<svg width="153" height="176" viewBox="0 0 153 176" fill="none" xmlns="http://www.w3.org/2000/svg">
<rect width="153" height="176" rx="8.00001" fill="#FFF2FC"/>
<g clip-path="url(#clip0_1422_21320)">
<path d="M91.9282 56C86.0791 56 80.6721 57.8396 76.2154 60.9496C71.7587 57.8396 66.3466 56 60.5025 56C45.3131 56 33 68.3131 33 83.5025C33 98.6919 45.3131 111.005 60.5025 111.005C66.3517 111.005 71.7587 109.165 76.2154 106.055C80.6721 109.165 86.0842 111.005 91.9282 111.005C107.118 111.005 119.426 98.6919 119.426 83.5025C119.426 68.3131 107.118 56 91.9282 56Z" fill="white"/>
<path d="M117.363 73.0237C116.916 71.9362 116.397 70.8843 115.823 69.873L86.6285 92.1007L76.2159 100.028L72.1454 102.595L58.9023 110.954C59.4308 110.985 59.9644 111 60.498 111C62.1953 111 63.8571 110.847 65.4731 110.548L73.1516 103.591L76.2109 100.816L85.7646 94.3621L117.353 73.0237H117.363Z" fill="#E60012"/>
<path d="M117.849 74.2891L76.4883 106.253C80.8891 109.247 86.2046 111 91.9318 111C107.121 111 119.429 98.6866 119.429 83.4972C119.429 80.2652 118.87 77.1653 117.849 74.2891Z" fill="#E60012"/>
<path d="M60.5025 56C45.3131 56 33 68.3131 33 83.5025C33 86.7345 33.559 89.8344 34.5855 92.7158L75.9359 60.7413C71.5351 57.7481 66.2246 56 60.5025 56Z" fill="#E60012"/>
<path d="M76.2178 78.2425L85.5327 72.1037L104.981 59.2875C103.837 58.6726 102.648 58.1339 101.418 57.6816L84.8416 70.691L76.2178 77.465L64.4942 85.3214L39.9492 101.766C40.7267 102.64 41.5601 103.463 42.4393 104.231L64.672 87.1254L76.2178 78.2425Z" fill="#E60012"/>
<path d="M76.2165 83.8891L87.1373 76.6221L109.096 62.012C108.15 61.2549 107.154 60.5587 106.113 59.9336L86.6698 75.0061L76.2216 83.1014L65.3009 90.3683L43.3477 104.989C44.2929 105.746 45.2889 106.442 46.3307 107.067L65.7735 91.9894L76.2216 83.8891H76.2165Z" fill="#E60012"/>
<path d="M76.2159 89.529L87.9396 81.6776L112.485 65.2381C111.707 64.364 110.879 63.5408 109.994 62.7734L87.7566 79.8685L76.2109 88.7464L66.8909 94.8953L47.4531 107.717C48.5965 108.337 49.7857 108.875 51.0154 109.322L67.5871 96.308L76.2109 89.529H76.2159Z" fill="#E60012"/>
<path d="M76.2143 72.6024L83.2424 68.0389L99.9462 57.1893C98.5385 56.7625 97.0852 56.4423 95.5962 56.2441L82.3887 66.8549L76.2143 71.8147L64.7143 79.5593L37.1914 98.0925C37.8063 99.0733 38.4822 100.019 39.214 100.913L64.4958 81.5666L76.2143 72.6024Z" fill="#E60012"/>
<path d="M76.2174 66.9563L80.2777 64.3951L93.5157 56.0457C92.9923 56.0152 92.4638 56 91.9302 56C90.2431 56 88.5915 56.1525 86.9857 56.4472L79.2766 63.4143L76.2174 66.1788L66.6688 72.6326L35.0703 93.9811C35.5175 95.0686 36.0358 96.1206 36.6152 97.1318L65.8099 74.8839L76.2174 66.9563Z" fill="#E60012"/>
<path d="M76.2162 95.1748L87.7214 87.4352L115.244 68.9122C114.624 67.9314 113.953 66.9862 113.222 66.0918L87.9348 85.4279L76.2162 94.3922L69.1882 98.9607L52.4844 109.815C53.892 110.242 55.3454 110.562 56.8344 110.761L70.0419 100.145L76.2162 95.1798V95.1748Z" fill="#E60012"/>
</g>
<path d="M60.5156 146.344H59.0313V156.812H60.5156V152.078H62.5469V150.844H60.5156V146.344ZM49.5313 149.172H57.875V147.969H54.4531V146.328H52.9688V147.969H49.5313V149.172ZM50.2969 152.484C50.2891 154.07 51.6719 155.102 53.7031 155.109C55.7109 155.102 57.0938 154.07 57.0938 152.484C57.0938 150.883 55.7109 149.836 53.7031 149.844C51.6719 149.836 50.2891 150.883 50.2969 152.484ZM51.6406 160.031H61.1094V158.828H53.125V155.984H51.6406V160.031ZM51.7344 152.484C51.7188 151.562 52.5156 150.992 53.7031 150.984C54.8906 150.992 55.6875 151.562 55.7031 152.484C55.6875 153.398 54.8906 153.961 53.7031 153.953C52.5156 153.961 51.7188 153.398 51.7344 152.484ZM73.8913 146.984H64.3131V148.187H72.4225C72.4225 149.187 72.4069 150.352 72.0788 151.922H62.7038V153.125H68.3444V155.516H64.0163V156.703H72.4694V160.328H73.9538V155.516H69.8288V153.125H75.5163V151.922H73.571C73.8991 150.297 73.8991 149.062 73.8913 148.031V146.984ZM87.5638 146.344H86.0794V150.125H83.4075V151.328H86.0794V156.594H87.5638V146.344ZM75.9075 153.672L76.6732 154.875C78.3372 154.281 79.5638 153.047 80.1732 151.5C80.7825 152.891 81.9466 154.016 83.5169 154.562L84.2826 153.375C82.1654 152.672 80.8997 150.914 80.9075 149.172V148.625H83.9075V147.406H76.3607V148.625H79.3919V149.172C79.3997 151.102 78.056 152.945 75.9075 153.672ZM78.47 160.031H87.9388V158.828H79.9544V155.672H78.47V160.031ZM95.7519 147.172H89.6426V148.359H94.2676V150.125H89.6582V154.391H90.6738C93.4629 154.383 94.9004 154.336 96.6113 154.047L96.4707 152.844C94.8926 153.133 93.5644 153.187 91.1269 153.187V151.25H95.7519V147.172ZM91.2519 156.859H99.2676V160.344H100.752V155.656H91.2519V156.859ZM96.6426 152.484H99.2676V154.953H100.752V146.344H99.2676V148.375H96.6426V149.562H99.2676V151.297H96.6426V152.484Z" fill="#464555"/>
<defs>
<clipPath id="clip0_1422_21320">
<rect width="86.4307" height="55" fill="white" transform="translate(33 56)"/>
</clipPath>
</defs>
</svg>
