<svg width="153" height="176" viewBox="0 0 153 176" fill="none" xmlns="http://www.w3.org/2000/svg">
<rect width="153" height="176" rx="8" fill="#EAFFE7"/>
<g clip-path="url(#clip0_1422_21250)">
<path d="M95.9408 79.0293L97.1208 79.6993L33.8008 116.259L35.7908 113.759L95.9408 79.0293Z" fill="#C2C4C4"/>
<path d="M95.9614 40.0308L97.1314 37.0508L97.1214 79.7008L95.9414 79.0308L95.9614 40.0308Z" fill="#E0E0E0"/>
<path d="M95.9591 40.0293L95.9391 79.0293L35.7891 113.759L35.8091 74.7493L95.9591 40.0293Z" fill="#E6E6E6"/>
<path d="M35.8086 74.7508L33.8086 73.6008L97.1286 37.0508L95.9586 40.0308L35.8086 74.7508Z" fill="#EBEBEB"/>
<path d="M33.8 116.261L32 115.211V72.5605L33.81 73.6005L33.8 116.261Z" fill="#C2C4C4"/>
<path d="M33.81 73.6L32 72.56L95.33 36L97.13 37.05L33.81 73.6Z" fill="#F4F4F4"/>
<path d="M35.7908 113.76L33.8008 116.26L33.8108 73.5996L35.8108 74.7496L35.7908 113.76Z" fill="#E0E0E0"/>
<path d="M93.8198 47.3809L38.3398 79.4109V109.691L93.8198 77.6509V47.3809Z" fill="#C2C4C4"/>
<path d="M91.0098 49.0009V76.0309L38.3398 106.441V109.691L93.8198 77.6509V47.3809L91.0098 49.0009Z" fill="#D7D9D9"/>
<path d="M91.0117 49.0009V76.0309L93.8217 77.6509V47.3809L91.0117 49.0009Z" fill="#E0E0E0"/>
<path d="M89.4981 68.4412L89.0881 68.2012L88.5781 68.5012L88.9881 68.7412C90.0781 69.3712 90.9681 70.9012 90.9581 72.1612C90.9581 72.7812 90.7381 73.2212 90.3781 73.4312L90.8881 73.1312C91.2481 72.9212 91.4681 72.4812 91.4681 71.8612C91.4681 70.6012 90.5881 69.0712 89.4981 68.4412Z" fill="url(#paint0_linear_1422_21250)"/>
<path d="M88.9886 68.7302C90.0786 69.3602 90.9686 70.8902 90.9586 72.1502C90.9586 73.4102 90.0686 73.9102 88.9686 73.2802L88.5586 73.0402V68.4902L88.9786 68.7302H88.9886Z" fill="#CACACA"/>
<path d="M88.9081 68.9505L88.5181 68.7305L86.5781 69.8605L86.9681 70.0805C87.1581 70.1905 87.3381 70.3305 87.5081 70.4905L89.4481 69.3605C89.2781 69.2005 89.0881 69.0605 88.9081 68.9505Z" fill="#8C1F1F"/>
<path d="M90.2284 73.3816L88.2884 74.5116C88.6284 74.3216 88.8284 73.9016 88.8384 73.3116C88.8384 72.6316 88.5684 71.8716 88.1484 71.2316L90.0884 70.1016C90.5084 70.7416 90.7784 71.5016 90.7784 72.1816C90.7784 72.7716 90.5684 73.1816 90.2384 73.3816H90.2284Z" fill="#993230"/>
<path d="M89.3567 68.9718L91.2867 67.8418L90.0767 70.1018L88.1367 71.2318L89.3567 68.9718Z" fill="#8C1F1F"/>
<path d="M88.707 68.2609L90.647 67.1309L91.287 67.8409L89.357 68.9709L88.707 68.2609Z" fill="#B74444"/>
<path d="M88.7086 68.2617L89.3486 68.9817L88.1386 71.2417C88.5586 71.8817 88.8286 72.6417 88.8286 73.3217C88.8286 74.5117 87.9886 74.9817 86.9486 74.3917L86.5586 74.1717V69.8717L86.9586 70.0917C87.1486 70.2017 87.3286 70.3417 87.4986 70.5017L88.6986 68.2717L88.7086 68.2617Z" fill="#7F1414"/>
<path d="M87.0294 69.8611L86.6194 69.6211L86.1094 69.9211L86.5194 70.1611C87.6094 70.7911 88.4994 72.3211 88.4894 73.5811C88.4894 74.2011 88.2694 74.6411 87.9094 74.8511L88.4194 74.5511C88.7794 74.3411 88.9994 73.9011 88.9994 73.2811C88.9994 72.0211 88.1194 70.4911 87.0294 69.8611Z" fill="url(#paint1_linear_1422_21250)"/>
<path d="M86.5198 70.1619C87.6098 70.7919 88.4998 72.3219 88.4898 73.5819C88.4898 74.8419 87.5998 75.3419 86.4998 74.7119L86.0898 74.4719V69.9219L86.5098 70.1619H86.5198Z" fill="#CACACA"/>
<path d="M86.6494 70.0798L86.2394 69.8398L83.8594 71.2198L84.2694 71.4598C85.3594 72.0898 86.2494 73.6198 86.2394 74.8798C86.2394 75.4998 86.0194 75.9398 85.6594 76.1498L88.0394 74.7698C88.3994 74.5598 88.6194 74.1198 88.6194 73.4998C88.6194 72.2398 87.7394 70.7098 86.6494 70.0798Z" fill="url(#paint2_linear_1422_21250)"/>
<path d="M84.2698 71.4607C85.3598 72.0907 86.2498 73.6207 86.2398 74.8807C86.2398 76.1407 85.3498 76.6407 84.2498 76.0107L83.8398 75.7707V71.2207L84.2598 71.4607H84.2698Z" fill="#CACACA"/>
<path d="M84.1894 71.679L83.7994 71.459L81.8594 72.589L82.2494 72.809C82.4394 72.919 82.6194 73.059 82.7894 73.219L84.7294 72.089C84.5594 71.929 84.3694 71.789 84.1894 71.679Z" fill="#8C1F1F"/>
<path d="M85.508 76.1003L83.568 77.2303C83.908 77.0403 84.108 76.6203 84.108 76.0303C84.108 75.3503 83.838 74.5903 83.418 73.9503L85.358 72.8203C85.778 73.4603 86.048 74.2203 86.048 74.9003C86.048 75.4903 85.838 75.9003 85.498 76.1003H85.508Z" fill="#993230"/>
<path d="M84.628 71.7003L86.568 70.5703L85.358 72.8303L83.418 73.9603L84.628 71.7003Z" fill="#8C1F1F"/>
<path d="M83.9883 70.9796L85.9283 69.8496L86.5683 70.5696L84.6283 71.6996L83.9883 70.9796Z" fill="#B74444"/>
<path d="M83.9898 70.9805L84.6298 71.7005L83.4198 73.9605C83.8398 74.6005 84.1098 75.3605 84.1098 76.0405C84.1098 77.2305 83.2698 77.7005 82.2298 77.1105L81.8398 76.8905V72.5905L82.2398 72.8105C82.4298 72.9205 82.6098 73.0605 82.7798 73.2205L83.9798 70.9905L83.9898 70.9805Z" fill="#7F1414"/>
<path d="M82.3106 72.5896L81.9006 72.3496L81.3906 72.6496L81.8006 72.8896C82.8906 73.5196 83.7806 75.0496 83.7706 76.3096C83.7706 76.9296 83.5506 77.3696 83.1906 77.5796L83.7006 77.2796C84.0606 77.0696 84.2806 76.6296 84.2806 76.0096C84.2806 74.7496 83.4006 73.2196 82.3106 72.5896Z" fill="url(#paint3_linear_1422_21250)"/>
<path d="M81.8011 72.8904C82.8911 73.5204 83.7811 75.0504 83.7711 76.3104C83.7711 77.5704 82.8811 78.0704 81.7811 77.4404L81.3711 77.2004V72.6504L81.7911 72.8904H81.8011Z" fill="#CACACA"/>
<path d="M81.9094 72.8201L81.4994 72.5801L79.1094 73.9601L79.5194 74.2001C80.6194 74.8301 81.4994 76.3701 81.4994 77.6301C81.4994 78.2601 81.2794 78.7001 80.9194 78.9001L83.3094 77.5201C83.6694 77.3101 83.8894 76.8701 83.8894 76.2501C83.8894 74.9901 83.0094 73.4601 81.9094 72.8201Z" fill="url(#paint4_linear_1422_21250)"/>
<path d="M79.5177 74.2009C80.6177 74.8309 81.4977 76.3709 81.4977 77.6309C81.4977 78.8909 80.6077 79.4009 79.5077 78.7609L79.0977 78.5209V73.9609L79.5177 74.2009Z" fill="#CACACA"/>
<path d="M79.4394 74.4095L79.0494 74.1895L77.1094 75.3195L77.4994 75.5395C77.6894 75.6495 77.8694 75.7895 78.0494 75.9495L79.9894 74.8195C79.8194 74.6595 79.6294 74.5195 79.4394 74.4095Z" fill="#1F738C"/>
<path d="M80.7675 78.8503L78.8275 79.9803C79.1675 79.7803 79.3675 79.3703 79.3775 78.7803C79.3775 78.1003 79.1075 77.3403 78.6875 76.7003L80.6275 75.5703C81.0475 76.2103 81.3175 76.9703 81.3175 77.6503C81.3175 78.2403 81.1075 78.6603 80.7675 78.8503Z" fill="#307C99"/>
<path d="M79.888 74.4405L81.828 73.3105L80.618 75.5705L78.668 76.7005L79.888 74.4405Z" fill="#1F738C"/>
<path d="M79.2383 73.7198L81.1883 72.5898L81.8283 73.3098L79.8883 74.4398L79.2383 73.7198Z" fill="#449CB7"/>
<path d="M79.2377 73.7207L79.8877 74.4407L78.6777 76.7107C79.0977 77.3507 79.3677 78.1107 79.3677 78.7907C79.3677 79.9807 78.5277 80.4607 77.4877 79.8607L77.0977 79.6407V75.3307L77.4977 75.5507C77.6877 75.6607 77.8677 75.8007 78.0477 75.9607L79.2477 73.7307L79.2377 73.7207Z" fill="#14667F"/>
<path d="M77.5606 75.3298L77.1506 75.0898L76.6406 75.3898L77.0506 75.6298C78.1506 76.2598 79.0306 77.7998 79.0306 79.0598C79.0306 79.6898 78.8106 80.1298 78.4506 80.3298L78.9606 80.0298C79.3206 79.8198 79.5406 79.3798 79.5406 78.7598C79.5406 77.4998 78.6606 75.9698 77.5606 75.3298Z" fill="url(#paint5_linear_1422_21250)"/>
<path d="M77.0489 75.6306C78.1489 76.2606 79.0289 77.8006 79.0289 79.0606C79.0289 80.3206 78.1389 80.8306 77.0389 80.1906L76.6289 79.9506V75.3906L77.0489 75.6306Z" fill="#CACACA"/>
<path d="M77.1008 75.5896L76.6908 75.3496L74.3008 76.7296L74.7108 76.9696C75.8108 77.5996 76.6908 79.1396 76.6908 80.3996C76.6908 81.0296 76.4708 81.4696 76.1108 81.6696L78.5008 80.2896C78.8608 80.0796 79.0808 79.6396 79.0808 79.0196C79.0808 77.7596 78.2008 76.2296 77.1008 75.5896Z" fill="url(#paint6_linear_1422_21250)"/>
<path d="M74.7091 76.9705C75.8091 77.6005 76.6891 79.1405 76.6891 80.4005C76.6891 81.6605 75.7991 82.1705 74.6991 81.5305L74.2891 81.2905V76.7305L74.7091 76.9705Z" fill="#CACACA"/>
<path d="M74.6308 77.1887L74.2408 76.9688L72.3008 78.0987L72.6908 78.3187C72.8808 78.4287 73.0608 78.5687 73.2408 78.7287L75.1808 77.5987C75.0108 77.4387 74.8208 77.2987 74.6308 77.1887Z" fill="#1F738C"/>
<path d="M75.9472 81.6296L74.0072 82.7596C74.3472 82.5596 74.5472 82.1496 74.5572 81.5596C74.5572 80.8796 74.2872 80.1196 73.8672 79.4796L75.8072 78.3496C76.2272 78.9896 76.4972 79.7496 76.4972 80.4296C76.4972 81.0196 76.2872 81.4396 75.9472 81.6296Z" fill="#307C99"/>
<path d="M75.0794 77.2101L77.0194 76.0801L75.8094 78.3501L73.8594 79.4801L75.0794 77.2101Z" fill="#1F738C"/>
<path d="M74.4297 76.4891L76.3797 75.3691L77.0197 76.0791L75.0797 77.2091L74.4297 76.4891Z" fill="#449CB7"/>
<path d="M74.4291 76.4883L75.0791 77.2083L73.8691 79.4783C74.2891 80.1183 74.5591 80.8783 74.5591 81.5583C74.5591 82.7483 73.7191 83.2283 72.6791 82.6283L72.2891 82.4083V78.0983L72.6891 78.3183C72.8791 78.4283 73.0591 78.5683 73.2391 78.7283L74.4391 76.4983L74.4291 76.4883Z" fill="#14667F"/>
<path d="M72.752 78.1091L72.342 77.8691L71.832 78.1691L72.242 78.4091C73.342 79.0391 74.222 80.5791 74.222 81.8391C74.222 82.4691 74.002 82.9091 73.642 83.1091L74.152 82.8091C74.512 82.5991 74.732 82.1591 74.732 81.5391C74.732 80.2791 73.852 78.7491 72.752 78.1091Z" fill="url(#paint7_linear_1422_21250)"/>
<path d="M72.2403 78.3982C73.3403 79.0282 74.2203 80.5682 74.2203 81.8282C74.2203 83.0882 73.3303 83.5982 72.2303 82.9582L71.8203 82.7182V78.1582L72.2403 78.3982Z" fill="#CACACA"/>
<path d="M72.2922 78.3709L71.8822 78.1309L69.4922 79.5109L69.9022 79.7509C71.0022 80.3809 71.8822 81.9209 71.8822 83.1809C71.8822 83.8109 71.6622 84.2509 71.3022 84.4509L73.6922 83.0709C74.0522 82.8609 74.2722 82.4209 74.2722 81.8009C74.2722 80.5409 73.3922 79.0109 72.2922 78.3709Z" fill="url(#paint8_linear_1422_21250)"/>
<path d="M69.9005 79.7517C71.0005 80.3817 71.8805 81.9217 71.8805 83.1817C71.8805 84.4417 70.9905 84.9517 69.8905 84.3117L69.4805 84.0717V79.5117L69.9005 79.7517Z" fill="#CACACA"/>
<path d="M69.8222 79.97L69.4322 79.75L67.4922 80.88L67.8822 81.1C68.0722 81.21 68.2522 81.35 68.4322 81.51L70.3722 80.38C70.2022 80.22 70.0122 80.08 69.8222 79.97Z" fill="#1F738C"/>
<path d="M71.1386 84.4109L69.1986 85.5409C69.5386 85.3409 69.7386 84.9309 69.7486 84.3409C69.7486 83.6609 69.4786 82.9009 69.0586 82.2609L70.9986 81.1309C71.4186 81.7709 71.6886 82.5309 71.6886 83.2109C71.6886 83.8009 71.4786 84.2209 71.1386 84.4109Z" fill="#307C99"/>
<path d="M70.2708 79.9913L72.2108 78.8613L71.0008 81.1313L69.0508 82.2513L70.2708 79.9913Z" fill="#1F738C"/>
<path d="M69.6211 79.2706L71.5711 78.1406L72.2111 78.8606L70.2711 79.9906L69.6211 79.2706Z" fill="#449CB7"/>
<path d="M69.6205 79.2715L70.2705 79.9915L69.0605 82.2615C69.4805 82.9015 69.7505 83.6615 69.7505 84.3415C69.7505 85.5315 68.9105 86.0115 67.8705 85.4115L67.4805 85.1915V80.8815L67.8805 81.1015C68.0705 81.2115 68.2505 81.3515 68.4305 81.5115L69.6305 79.2815L69.6205 79.2715Z" fill="#14667F"/>
<path d="M67.9434 80.8806L67.5334 80.6406L67.0234 80.9406L67.4334 81.1806C68.5334 81.8106 69.4134 83.3506 69.4134 84.6106C69.4134 85.2406 69.1934 85.6806 68.8334 85.8806L69.3434 85.5806C69.7034 85.3706 69.9234 84.9306 69.9234 84.3106C69.9234 83.0506 69.0434 81.5206 67.9434 80.8806Z" fill="url(#paint9_linear_1422_21250)"/>
<path d="M67.4317 81.1814C68.5317 81.8114 69.4117 83.3514 69.4117 84.6114C69.4117 85.8714 68.5217 86.3814 67.4217 85.7414L67.0117 85.5014V80.9414L67.4317 81.1814Z" fill="#CACACA"/>
<path d="M67.4797 81.1502L67.0697 80.9102L64.6797 82.2902L65.0897 82.5302C66.1897 83.1602 67.0697 84.7002 67.0697 85.9602C67.0697 86.5902 66.8497 87.0302 66.4897 87.2302L68.8797 85.8502C69.2397 85.6402 69.4597 85.2002 69.4597 84.5802C69.4597 83.3202 68.5797 81.7902 67.4797 81.1502Z" fill="url(#paint10_linear_1422_21250)"/>
<path d="M65.088 82.531C66.188 83.161 67.068 84.701 67.068 85.961C67.068 87.221 66.178 87.731 65.078 87.091L64.668 86.851V82.291L65.088 82.531Z" fill="#CACACA"/>
<path d="M65.0097 82.7395L64.6197 82.5195L62.6797 83.6495L63.0697 83.8695C63.2597 83.9795 63.4397 84.1195 63.6197 84.2795L65.5597 83.1495C65.3897 82.9895 65.1997 82.8495 65.0097 82.7395Z" fill="#1F738C"/>
<path d="M66.3261 87.1804L64.3861 88.3104C64.7261 88.1104 64.9261 87.7004 64.9361 87.1104C64.9361 86.4304 64.6661 85.6704 64.2461 85.0304L66.1861 83.9004C66.6061 84.5404 66.8761 85.3004 66.8761 85.9804C66.8761 86.5704 66.6661 86.9904 66.3261 87.1804Z" fill="#307C99"/>
<path d="M65.4583 82.7706L67.3983 81.6406L66.1883 83.9006L64.2383 85.0306L65.4583 82.7706Z" fill="#1F738C"/>
<path d="M64.8086 82.0499L66.7586 80.9199L67.3986 81.6399L65.4586 82.7699L64.8086 82.0499Z" fill="#449CB7"/>
<path d="M64.808 82.0508L65.458 82.7708L64.248 85.0408C64.668 85.6808 64.938 86.4408 64.938 87.1208C64.938 88.3108 64.098 88.7908 63.058 88.1908L62.668 87.9708V83.6608L63.068 83.8808C63.258 83.9908 63.438 84.1308 63.618 84.2908L64.818 82.0608L64.808 82.0508Z" fill="#14667F"/>
<path d="M63.1309 83.6599L62.7209 83.4199L62.2109 83.7199L62.6209 83.9599C63.7209 84.5899 64.6009 86.1299 64.6009 87.3899C64.6009 88.0199 64.3809 88.4599 64.0209 88.6599L64.5309 88.3599C64.8909 88.1499 65.1109 87.7099 65.1109 87.0899C65.1109 85.8299 64.2309 84.2999 63.1309 83.6599Z" fill="url(#paint11_linear_1422_21250)"/>
<path d="M62.6192 83.9607C63.7192 84.5907 64.5992 86.1307 64.5992 87.3907C64.5992 88.6507 63.7092 89.1607 62.6092 88.5207L62.1992 88.2807V83.7207L62.6192 83.9607Z" fill="#CACACA"/>
<path d="M62.6711 83.9197L62.2611 83.6797L59.8711 85.0597L60.2811 85.2997C61.3811 85.9297 62.2611 87.4697 62.2611 88.7297C62.2611 89.3597 62.0411 89.7997 61.6811 89.9997L64.0711 88.6197C64.4311 88.4097 64.6511 87.9697 64.6511 87.3497C64.6511 86.0897 63.7711 84.5597 62.6711 83.9197Z" fill="url(#paint12_linear_1422_21250)"/>
<path d="M60.2794 85.3103C61.3794 85.9403 62.2594 87.4803 62.2594 88.7403C62.2594 90.0003 61.3694 90.5103 60.2694 89.8703L59.8594 89.6303V85.0703L60.2794 85.3103Z" fill="#CACACA"/>
<path d="M60.2011 85.5188L59.8111 85.2988L57.8711 86.4288L58.2611 86.6488C58.4511 86.7588 58.6311 86.8988 58.8111 87.0588L60.7511 85.9288C60.5811 85.7688 60.3911 85.6288 60.2011 85.5188Z" fill="#1F738C"/>
<path d="M61.5175 89.9597L59.5775 91.0897C59.9175 90.8897 60.1175 90.4797 60.1275 89.8897C60.1275 89.2097 59.8575 88.4497 59.4375 87.8097L61.3775 86.6797C61.7975 87.3197 62.0675 88.0797 62.0675 88.7597C62.0675 89.3497 61.8575 89.7697 61.5175 89.9597Z" fill="#307C99"/>
<path d="M60.6497 85.5402L62.5897 84.4102L61.3797 86.6802L59.4297 87.8102L60.6497 85.5402Z" fill="#1F738C"/>
<path d="M60 84.8292L61.95 83.6992L62.59 84.4092L60.65 85.5392L60 84.8292Z" fill="#449CB7"/>
<path d="M59.9994 84.8301L60.6494 85.5501L59.4394 87.8201C59.8594 88.4601 60.1294 89.2201 60.1294 89.9001C60.1294 91.0901 59.2894 91.5701 58.2494 90.9701L57.8594 90.7501V86.4401L58.2594 86.6601C58.4494 86.7701 58.6294 86.9101 58.8094 87.0701L60.0094 84.8401L59.9994 84.8301Z" fill="#14667F"/>
<path d="M58.3223 86.4392L57.9123 86.1992L57.4023 86.4992L57.8123 86.7392C58.9123 87.3692 59.7923 88.9092 59.7923 90.1692C59.7923 90.7992 59.5723 91.2392 59.2123 91.4392L59.7223 91.1392C60.0823 90.9292 60.3023 90.4892 60.3023 89.8692C60.3023 88.6092 59.4223 87.0792 58.3223 86.4392Z" fill="url(#paint13_linear_1422_21250)"/>
<path d="M57.8106 86.74C58.9106 87.37 59.7906 88.91 59.7906 90.17C59.7906 91.43 58.9006 91.94 57.8006 91.3L57.3906 91.06V86.5L57.8106 86.74Z" fill="#CACACA"/>
<path d="M57.8625 86.7009L57.4525 86.4609L55.0625 87.8409L55.4725 88.0809C56.5725 88.7109 57.4525 90.2509 57.4525 91.5109C57.4525 92.1409 57.2325 92.5809 56.8725 92.7809L59.2625 91.4009C59.6225 91.1909 59.8425 90.7509 59.8425 90.1309C59.8425 88.8709 58.9625 87.3409 57.8625 86.7009Z" fill="url(#paint14_linear_1422_21250)"/>
<path d="M55.4708 88.0818C56.5708 88.7118 57.4508 90.2518 57.4508 91.5118C57.4508 92.7718 56.5608 93.2818 55.4608 92.6418L55.0508 92.4018V87.8418L55.4708 88.0818Z" fill="#CACACA"/>
<path d="M55.3925 88.3001L55.0025 88.0801L53.0625 89.2101L53.4525 89.4301C53.6425 89.5401 53.8225 89.6801 54.0025 89.8401L55.9425 88.7101C55.7725 88.5501 55.5825 88.4101 55.3925 88.3001Z" fill="#1F738C"/>
<path d="M56.7089 92.7409L54.7689 93.8709C55.1089 93.6709 55.3089 93.2609 55.3189 92.6709C55.3189 91.9909 55.0489 91.2309 54.6289 90.5909L56.5689 89.4609C56.9889 90.1009 57.2589 90.8609 57.2589 91.5409C57.2589 92.1309 57.0489 92.5509 56.7089 92.7409Z" fill="#307C99"/>
<path d="M55.8411 88.3214L57.7811 87.1914L56.5711 89.4614L54.6211 90.5914L55.8411 88.3214Z" fill="#1F738C"/>
<path d="M55.1914 87.6007L57.1314 86.4707L57.7814 87.1907L55.8414 88.3207L55.1914 87.6007Z" fill="#449CB7"/>
<path d="M55.1908 87.6016L55.8408 88.3216L54.6308 90.5916C55.0508 91.2316 55.3208 91.9916 55.3208 92.6716C55.3208 93.8616 54.4808 94.3416 53.4408 93.7416L53.0508 93.5216V89.2116L53.4508 89.4316C53.6408 89.5416 53.8208 89.6816 54.0008 89.8416L55.2008 87.6116L55.1908 87.6016Z" fill="#14667F"/>
<path d="M53.5138 89.2107L53.1038 88.9707L52.5938 89.2707L53.0037 89.5107C54.1037 90.1407 54.9837 91.6807 54.9837 92.9407C54.9837 93.5707 54.7637 94.0107 54.4037 94.2107L54.9137 93.9107C55.2737 93.7007 55.4937 93.2607 55.4937 92.6407C55.4937 91.3807 54.6137 89.8507 53.5138 89.2107Z" fill="url(#paint15_linear_1422_21250)"/>
<path d="M53.002 89.5115C54.102 90.1415 54.982 91.6815 54.982 92.9415C54.982 94.2015 54.092 94.7115 52.992 94.0715L52.582 93.8315V89.2715L53.002 89.5115Z" fill="#CACACA"/>
<path d="M53.0539 89.4802L52.6439 89.2402L50.2539 90.6202L50.6639 90.8602C51.7639 91.4902 52.6439 93.0302 52.6439 94.2902C52.6439 94.9202 52.4239 95.3602 52.0639 95.5602L54.4539 94.1802C54.8139 93.9702 55.0339 93.5302 55.0339 92.9102C55.0339 91.6502 54.1539 90.1202 53.0539 89.4802Z" fill="url(#paint16_linear_1422_21250)"/>
<path d="M50.6622 90.8611C51.7622 91.4911 52.6422 93.0311 52.6422 94.2911C52.6422 95.5511 51.7522 96.0611 50.6522 95.4211L50.2422 95.1811V90.6211L50.6622 90.8611Z" fill="#CACACA"/>
<path d="M50.0117 96.6007L51.9517 95.4707L52.9017 99.0907L50.9617 100.221L50.0117 96.6007Z" fill="#449CB7"/>
<path d="M50.6503 91.0208L50.2603 90.8008L48.3203 91.9308L48.7103 92.1508C49.7403 92.7508 50.5803 94.2008 50.5803 95.3908C50.5803 95.9808 50.3703 96.3908 50.0403 96.5908L51.9803 95.4608C52.3103 95.2708 52.5203 94.8508 52.5203 94.2608C52.5203 93.0708 51.6903 91.6208 50.6503 91.0208Z" fill="url(#paint17_linear_1422_21250)"/>
<path d="M48.7103 92.1516C49.7403 92.7516 50.5803 94.2016 50.5803 95.3916C50.5803 96.0016 50.3603 96.4216 50.0103 96.6016L50.9703 100.222L50.3003 100.112L49.4003 96.7016C49.1903 96.6816 48.9503 96.6016 48.7103 96.4616L48.3203 96.2416V91.9316L48.7203 92.1516H48.7103Z" fill="#14667F"/>
<path d="M48.7013 91.99L48.2913 91.75L47.7812 92.05L48.1913 92.29C49.2913 92.92 50.1713 94.46 50.1713 95.72C50.1713 96.35 49.9513 96.79 49.5913 96.99L50.1013 96.69C50.4613 96.48 50.6813 96.04 50.6813 95.42C50.6813 94.16 49.8013 92.63 48.7013 91.99Z" fill="url(#paint18_linear_1422_21250)"/>
<path d="M48.1817 92.2908C49.2817 92.9208 50.1617 94.4608 50.1617 95.7208C50.1617 96.9808 49.2717 97.4908 48.1717 96.8508L47.7617 96.6108V92.0508L48.1817 92.2908Z" fill="#CACACA"/>
<path d="M48.2414 92.2595L47.8314 92.0195L45.4414 93.3995L45.8514 93.6395C46.9514 94.2695 47.8314 95.8095 47.8314 97.0695C47.8314 97.6995 47.6114 98.1395 47.2514 98.3395L49.6414 96.9595C50.0014 96.7495 50.2214 96.3095 50.2214 95.6895C50.2214 94.4295 49.3414 92.8995 48.2414 92.2595Z" fill="url(#paint19_linear_1422_21250)"/>
<path d="M45.8497 93.6404C46.9497 94.2704 47.8297 95.8104 47.8297 97.0704C47.8297 98.3304 46.9397 98.8404 45.8397 98.2004L45.4297 97.9604V93.4004L45.8497 93.6404Z" fill="#CACACA"/>
<path d="M45.1875 99.38L47.1375 98.25L48.0875 101.87L46.1475 103L45.1875 99.38Z" fill="#449CB7"/>
<path d="M45.8378 93.8001L45.4478 93.5801L43.5078 94.7101L43.8978 94.9301C44.9278 95.5301 45.7678 96.9801 45.7678 98.1701C45.7678 98.7601 45.5578 99.1701 45.2278 99.3701L47.1678 98.2401C47.4978 98.0501 47.7078 97.6301 47.7078 97.0401C47.7078 95.8501 46.8778 94.4001 45.8378 93.8001Z" fill="url(#paint20_linear_1422_21250)"/>
<path d="M43.8978 94.9309C44.9278 95.5309 45.7678 96.9809 45.7678 98.1709C45.7678 98.7809 45.5478 99.2009 45.1978 99.3809L46.1578 103.001L45.4878 102.891L44.5878 99.4809C44.3778 99.4609 44.1378 99.3809 43.8978 99.2409L43.5078 99.0209V94.7109L43.9078 94.9309H43.8978Z" fill="#14667F"/>
<path d="M43.8888 94.7693L43.4787 94.5293L42.9688 94.8293L43.3787 95.0693C44.4787 95.6993 45.3587 97.2393 45.3587 98.4993C45.3587 99.1293 45.1387 99.5693 44.7787 99.7693L45.2887 99.4693C45.6487 99.2593 45.8687 98.8193 45.8687 98.1993C45.8687 96.9393 44.9887 95.4093 43.8888 94.7693Z" fill="url(#paint21_linear_1422_21250)"/>
<path d="M43.3692 95.0701C44.4692 95.7001 45.3492 97.2401 45.3492 98.5001C45.3492 99.7601 44.4592 100.27 43.3592 99.6301L42.9492 99.3901V94.8301L43.3692 95.0701Z" fill="#CACACA"/>
<path d="M43.4328 95.031L43.0228 94.791L40.6328 96.171L41.0428 96.411C42.1428 97.041 43.0228 98.581 43.0228 99.841C43.0228 100.471 42.8028 100.911 42.4428 101.111L44.8328 99.731C45.1928 99.521 45.4128 99.081 45.4128 98.461C45.4128 97.201 44.5328 95.671 43.4328 95.031Z" fill="url(#paint22_linear_1422_21250)"/>
<path d="M41.0411 96.4216C42.1411 97.0516 43.0211 98.5916 43.0211 99.8516C43.0211 101.112 42.1311 101.622 41.0311 100.982L40.6211 100.742V96.1816L41.0411 96.4216Z" fill="#CACACA"/>
<path d="M40.3711 102.161L42.3211 101.031L43.2711 104.651L41.3311 105.781L40.3711 102.161Z" fill="#449CB7"/>
<path d="M41.0214 96.5813L40.6314 96.3613L38.6914 97.4913L39.0814 97.7113C40.1114 98.3113 40.9514 99.7613 40.9514 100.951C40.9514 101.541 40.7414 101.951 40.4114 102.151L42.3514 101.021C42.6814 100.831 42.8914 100.411 42.8914 99.8213C42.8914 98.6313 42.0614 97.1813 41.0214 96.5813Z" fill="url(#paint23_linear_1422_21250)"/>
<path d="M39.0814 97.7122C40.1114 98.3122 40.9514 99.7622 40.9514 100.952C40.9514 101.562 40.7314 101.982 40.3814 102.162L41.3414 105.782L40.6714 105.672L39.7714 102.262C39.5614 102.242 39.3214 102.162 39.0814 102.022L38.6914 101.802V97.4922L39.0914 97.7122H39.0814Z" fill="#14667F"/>
<path d="M39.0802 97.5505L38.6702 97.3105L38.1602 97.6105L38.5702 97.8505C39.6702 98.4805 40.5502 100.021 40.5502 101.281C40.5502 101.911 40.3302 102.351 39.9702 102.551L40.4802 102.251C40.8402 102.041 41.0602 101.601 41.0602 100.981C41.0602 99.7205 40.1802 98.1905 39.0802 97.5505Z" fill="url(#paint24_linear_1422_21250)"/>
<path d="M38.5606 97.8513C39.6606 98.4813 40.5406 100.021 40.5406 101.281C40.5406 102.541 39.6506 103.051 38.5506 102.411L38.1406 102.171V97.6113L38.5606 97.8513Z" fill="#CACACA"/>
<path d="M88.7706 66.241L86.3906 67.611V65.411L88.7706 64.041V66.241Z" fill="#48484D"/>
<path d="M88.352 62.4806C88.352 62.9006 88.012 63.4306 87.592 63.6806C87.172 63.9306 86.832 63.7806 86.832 63.3606C86.832 62.9406 87.172 62.4106 87.592 62.1606C88.012 61.9106 88.352 62.0606 88.352 62.4806Z" fill="#48484D"/>
<path d="M88.0611 62.6398C88.0611 62.8998 87.8511 63.2298 87.5911 63.3798C87.3311 63.5298 87.1211 63.4398 87.1211 63.1798C87.1211 62.9198 87.3311 62.5898 87.5911 62.4398C87.8511 62.2898 88.0611 62.3798 88.0611 62.6398Z" fill="#72C93F"/>
<path d="M84.0206 68.9812L81.6406 70.3512V68.1513L84.0206 66.7812V68.9812Z" fill="#48484D"/>
<path d="M83.602 65.2208C83.602 65.6408 83.262 66.1708 82.842 66.4208C82.422 66.6708 82.082 66.5208 82.082 66.1008C82.082 65.6808 82.422 65.1508 82.842 64.9008C83.262 64.6508 83.602 64.8008 83.602 65.2208Z" fill="#48484D"/>
<path d="M83.3111 65.3917C83.3111 65.6517 83.1011 65.9817 82.8411 66.1317C82.5811 66.2817 82.3711 66.1918 82.3711 65.9318C82.3711 65.6718 82.5811 65.3418 82.8411 65.1918C83.1011 65.0418 83.3111 65.1317 83.3111 65.3917Z" fill="#72C93F"/>
<path d="M79.2706 71.7195L76.8906 73.0895V70.8895L79.2706 69.5195V71.7195Z" fill="#48484D"/>
<path d="M78.852 67.9605C78.852 68.3805 78.512 68.9105 78.092 69.1605C77.672 69.4105 77.332 69.2605 77.332 68.8405C77.332 68.4205 77.672 67.8905 78.092 67.6405C78.512 67.4005 78.852 67.5405 78.852 67.9605Z" fill="#48484D"/>
<path d="M78.5611 68.13C78.5611 68.39 78.3511 68.72 78.0911 68.87C77.8311 69.02 77.6211 68.93 77.6211 68.67C77.6211 68.41 77.8311 68.08 78.0911 67.93C78.3511 67.78 78.5611 67.87 78.5611 68.13Z" fill="#72C93F"/>
<path d="M74.5206 74.4617L72.1406 75.8317V73.6317L74.5206 72.2617V74.4617Z" fill="#48484D"/>
<path d="M74.102 70.7013C74.102 71.1213 73.762 71.6513 73.342 71.9013C72.922 72.1513 72.582 72.0013 72.582 71.5813C72.582 71.1613 72.922 70.6313 73.342 70.3813C73.762 70.1313 74.102 70.2813 74.102 70.7013Z" fill="#48484D"/>
<path d="M73.8111 70.8722C73.8111 71.1322 73.6011 71.4622 73.3411 71.6122C73.0811 71.7622 72.8711 71.6722 72.8711 71.4122C72.8711 71.1522 73.0811 70.8222 73.3411 70.6722C73.6011 70.5222 73.8111 70.6122 73.8111 70.8722Z" fill="#72C93F"/>
<path d="M69.7706 77.2117L67.3906 78.5817V76.3817L69.7706 75.0117V77.2117Z" fill="#48484D"/>
<path d="M69.352 73.441C69.352 73.861 69.012 74.391 68.592 74.641C68.172 74.881 67.832 74.741 67.832 74.321C67.832 73.901 68.172 73.371 68.592 73.121C69.012 72.881 69.352 73.021 69.352 73.441Z" fill="#48484D"/>
<path d="M69.0611 73.6105C69.0611 73.8705 68.8511 74.2005 68.5911 74.3505C68.3311 74.5005 68.1211 74.4105 68.1211 74.1505C68.1211 73.8905 68.3311 73.5605 68.5911 73.4105C68.8511 73.2605 69.0611 73.3505 69.0611 73.6105Z" fill="#72C93F"/>
<path d="M65.0206 79.95L62.6406 81.32V79.12L65.0206 77.75V79.95Z" fill="#48484D"/>
<path d="M64.602 76.191C64.602 76.611 64.262 77.141 63.842 77.391C63.422 77.631 63.082 77.491 63.082 77.071C63.082 76.651 63.422 76.121 63.842 75.871C64.262 75.631 64.602 75.771 64.602 76.191Z" fill="#48484D"/>
<path d="M64.3111 76.3605C64.3111 76.6205 64.1011 76.9505 63.8411 77.1005C63.5811 77.2505 63.3711 77.1605 63.3711 76.9005C63.3711 76.6405 63.5811 76.3105 63.8411 76.1605C64.1011 76.0105 64.3111 76.1005 64.3111 76.3605Z" fill="#72C93F"/>
<path d="M60.2706 82.6902L57.8906 84.0602V81.8602L60.2706 80.4902V82.6902Z" fill="#48484D"/>
<path d="M59.852 78.9312C59.852 79.3512 59.512 79.8812 59.092 80.1312C58.672 80.3712 58.332 80.2312 58.332 79.8112C58.332 79.3912 58.672 78.8612 59.092 78.6112C59.512 78.3712 59.852 78.5112 59.852 78.9312Z" fill="#48484D"/>
<path d="M59.5611 79.1007C59.5611 79.3607 59.3511 79.6907 59.0911 79.8407C58.8311 79.9907 58.6211 79.9007 58.6211 79.6407C58.6211 79.3807 58.8311 79.0507 59.0911 78.9007C59.3511 78.7507 59.5611 78.8407 59.5611 79.1007Z" fill="#72C93F"/>
<path d="M55.5206 85.4305L53.1406 86.8005V84.6005L55.5206 83.2305V85.4305Z" fill="#48484D"/>
<path d="M55.102 81.67C55.102 82.09 54.762 82.62 54.342 82.87C53.922 83.12 53.582 82.97 53.582 82.55C53.582 82.13 53.922 81.6 54.342 81.35C54.762 81.1 55.102 81.25 55.102 81.67Z" fill="#48484D"/>
<path d="M54.8111 81.841C54.8111 82.101 54.6011 82.431 54.3411 82.581C54.0811 82.731 53.8711 82.641 53.8711 82.381C53.8711 82.121 54.0811 81.791 54.3411 81.641C54.6011 81.491 54.8111 81.581 54.8111 81.841Z" fill="#72C93F"/>
<path d="M50.7706 88.1687L48.3906 89.5387V87.3387L50.7706 85.9688V88.1687Z" fill="#48484D"/>
<path d="M50.352 84.4097C50.352 84.8297 50.012 85.3597 49.592 85.6097C49.172 85.8497 48.832 85.7097 48.832 85.2897C48.832 84.8697 49.172 84.3397 49.592 84.0897C50.012 83.8497 50.352 83.9897 50.352 84.4097Z" fill="#48484D"/>
<path opacity="0.2" d="M50.0611 84.5793C50.0611 84.8393 49.8511 85.1692 49.5911 85.3192C49.3311 85.4692 49.1211 85.3792 49.1211 85.1192C49.1211 84.8592 49.3311 84.5293 49.5911 84.3793C49.8511 84.2293 50.0611 84.3193 50.0611 84.5793Z" fill="#B0F36E"/>
<path d="M46.0206 90.9207L43.6406 92.2907V90.0907L46.0206 88.7207V90.9207Z" fill="#48484D"/>
<path d="M45.602 87.1602C45.602 87.5802 45.262 88.1102 44.842 88.3602C44.422 88.6102 44.082 88.4602 44.082 88.0402C44.082 87.6202 44.422 87.0902 44.842 86.8402C45.262 86.5902 45.602 86.7402 45.602 87.1602Z" fill="#48484D"/>
<path opacity="0.2" d="M45.3111 87.3195C45.3111 87.5795 45.1011 87.9095 44.8411 88.0595C44.5811 88.2095 44.3711 88.1195 44.3711 87.8595C44.3711 87.5995 44.5811 87.2695 44.8411 87.1195C45.1011 86.9695 45.3111 87.0595 45.3111 87.3195Z" fill="#B0F36E"/>
<path d="M41.2706 93.659L38.8906 95.029V92.829L41.2706 91.459V93.659Z" fill="#48484D"/>
<path d="M40.852 89.8999C40.852 90.3199 40.512 90.8499 40.092 91.0999C39.672 91.3399 39.332 91.1999 39.332 90.7799C39.332 90.3599 39.672 89.8299 40.092 89.5799C40.512 89.3399 40.852 89.4799 40.852 89.8999Z" fill="#48484D"/>
<path opacity="0.2" d="M40.5611 90.0695C40.5611 90.3295 40.3511 90.6595 40.0911 90.8095C39.8311 90.9595 39.6211 90.8695 39.6211 90.6095C39.6211 90.3495 39.8311 90.0195 40.0911 89.8695C40.3511 89.7195 40.5611 89.8095 40.5611 90.0695Z" fill="#B0F36E"/>
<path style="mix-blend-mode:screen" d="M87.5625 78.1602C95.9848 78.1602 102.812 71.3325 102.812 62.9102C102.812 54.4878 95.9848 47.6602 87.5625 47.6602C79.1402 47.6602 72.3125 54.4878 72.3125 62.9102C72.3125 71.3325 79.1402 78.1602 87.5625 78.1602Z" fill="url(#paint25_radial_1422_21250)"/>
<path style="mix-blend-mode:screen" d="M82.832 80.8906C91.2544 80.8906 98.082 74.063 98.082 65.6406C98.082 57.2183 91.2544 50.3906 82.832 50.3906C74.4097 50.3906 67.582 57.2183 67.582 65.6406C67.582 74.063 74.4097 80.8906 82.832 80.8906Z" fill="url(#paint26_radial_1422_21250)"/>
<path style="mix-blend-mode:screen" d="M78.1016 83.6309C86.5239 83.6309 93.3516 76.8032 93.3516 68.3809C93.3516 59.9585 86.5239 53.1309 78.1016 53.1309C69.6792 53.1309 62.8516 59.9585 62.8516 68.3809C62.8516 76.8032 69.6792 83.6309 78.1016 83.6309Z" fill="url(#paint27_radial_1422_21250)"/>
<path style="mix-blend-mode:screen" d="M73.3594 86.3594C81.7817 86.3594 88.6094 79.5317 88.6094 71.1094C88.6094 62.687 81.7817 55.8594 73.3594 55.8594C64.937 55.8594 58.1094 62.687 58.1094 71.1094C58.1094 79.5317 64.937 86.3594 73.3594 86.3594Z" fill="url(#paint28_radial_1422_21250)"/>
<path style="mix-blend-mode:screen" d="M68.6289 89.0898C77.0513 89.0898 83.8789 82.2622 83.8789 73.8398C83.8789 65.4175 77.0513 58.5898 68.6289 58.5898C60.2066 58.5898 53.3789 65.4175 53.3789 73.8398C53.3789 82.2622 60.2066 89.0898 68.6289 89.0898Z" fill="url(#paint29_radial_1422_21250)"/>
<path style="mix-blend-mode:screen" d="M78.9499 79.0411C80.3139 70.73 74.6821 62.8867 66.3709 61.5227C58.0598 60.1587 50.2165 65.7905 48.8525 74.1017C47.4885 82.4129 53.1203 90.2561 61.4315 91.6201C69.7427 92.9841 77.5859 87.3523 78.9499 79.0411Z" fill="url(#paint30_radial_1422_21250)"/>
<path style="mix-blend-mode:screen" d="M59.1719 94.5508C67.5942 94.5508 74.4219 87.7231 74.4219 79.3008C74.4219 70.8784 67.5942 64.0508 59.1719 64.0508C50.7495 64.0508 43.9219 70.8784 43.9219 79.3008C43.9219 87.7231 50.7495 94.5508 59.1719 94.5508Z" fill="url(#paint31_radial_1422_21250)"/>
<path style="mix-blend-mode:screen" d="M54.4414 97.2793C62.8637 97.2793 69.6914 90.4516 69.6914 82.0293C69.6914 73.607 62.8637 66.7793 54.4414 66.7793C46.0191 66.7793 39.1914 73.607 39.1914 82.0293C39.1914 90.4516 46.0191 97.2793 54.4414 97.2793Z" fill="url(#paint32_radial_1422_21250)"/>
<path d="M88.5325 59.4402L38.8125 88.1502V81.4402L88.5325 52.7402V59.4402Z" fill="#48484D"/>
<path opacity="0.7" d="M117.37 59.3214L95.1303 46.4814C93.9903 45.8214 93.0703 46.3614 93.0703 47.6614L119.43 62.8814C119.43 61.5714 118.51 59.9814 117.37 59.3214Z" fill="#3E8C88"/>
<path opacity="0.7" d="M93.6602 46.3307L38.9102 78.0307C39.2802 77.8107 39.8002 77.8407 40.3702 78.1707L95.1202 46.4707C94.5502 46.1407 94.0302 46.1107 93.6602 46.3307Z" fill="#5177B1"/>
<path opacity="0.7" d="M95.1172 46.4707L40.3672 78.1707L62.6072 91.0107L117.357 59.3107L95.1172 46.4707Z" fill="#90C3E0"/>
<path opacity="0.7" d="M117.359 59.3105L62.6094 91.0105C63.7494 91.6705 64.6694 93.2605 64.6694 94.5705L119.419 62.8705C119.419 61.5705 118.499 59.9705 117.359 59.3105Z" fill="url(#paint33_linear_1422_21250)"/>
<path opacity="0.7" d="M62.6086 91.0108L40.3686 78.1708C39.2286 77.5108 38.3086 78.0508 38.3086 79.3508L64.6686 94.5708C64.6686 93.2608 63.7486 91.6708 62.6086 91.0108Z" fill="#3E5D8C"/>
</g>
<path d="M61.8672 159.26H63.5859V154.994H65.8984H66.0078L68.3047 159.26H70.2578L67.7578 154.689C69.1328 154.166 69.8203 153.018 69.8203 151.494C69.8203 149.408 68.5312 147.947 65.8984 147.947H61.8672V159.26ZM63.5859 153.51V149.416H65.7266C67.3906 149.424 68.0859 150.221 68.0859 151.494C68.0859 152.768 67.3906 153.502 65.7266 153.51H63.5859ZM70.5241 149.432H74.0553V159.26H75.7741V149.432H79.2897V147.947H70.5241V149.432ZM87.5716 151.635H89.3059C88.9231 149.205 87.0247 147.791 84.6341 147.791C81.7044 147.791 79.5403 149.986 79.5403 153.604C79.5403 157.221 81.6887 159.416 84.6341 159.416C87.1262 159.416 88.9466 157.854 89.3059 155.619L87.5716 155.604C87.2747 157.049 86.0716 157.846 84.6497 157.838C82.7044 157.846 81.2512 156.361 81.2434 153.604C81.2512 150.861 82.6966 149.361 84.6497 149.369C86.0872 149.361 87.2981 150.174 87.5716 151.635Z" fill="#464555"/>
<defs>
<linearGradient id="paint0_linear_1422_21250" x1="88.7581" y1="68.3912" x2="91.3381" y2="72.8712" gradientUnits="userSpaceOnUse">
<stop stop-color="#F4F4F4"/>
<stop offset="1" stop-color="#DBDBDB"/>
</linearGradient>
<linearGradient id="paint1_linear_1422_21250" x1="86.2794" y1="69.8211" x2="88.8694" y2="74.3011" gradientUnits="userSpaceOnUse">
<stop stop-color="#F4F4F4"/>
<stop offset="1" stop-color="#DBDBDB"/>
</linearGradient>
<linearGradient id="paint2_linear_1422_21250" x1="84.9694" y1="70.5798" x2="87.5494" y2="75.0598" gradientUnits="userSpaceOnUse">
<stop stop-color="#F4F4F4"/>
<stop offset="1" stop-color="#DBDBDB"/>
</linearGradient>
<linearGradient id="paint3_linear_1422_21250" x1="81.5606" y1="72.5496" x2="84.1506" y2="77.0296" gradientUnits="userSpaceOnUse">
<stop stop-color="#F4F4F4"/>
<stop offset="1" stop-color="#DBDBDB"/>
</linearGradient>
<linearGradient id="paint4_linear_1422_21250" x1="80.2294" y1="73.3201" x2="82.8194" y2="77.8001" gradientUnits="userSpaceOnUse">
<stop stop-color="#F4F4F4"/>
<stop offset="1" stop-color="#DBDBDB"/>
</linearGradient>
<linearGradient id="paint5_linear_1422_21250" x1="76.8106" y1="75.2898" x2="79.4006" y2="79.7698" gradientUnits="userSpaceOnUse">
<stop stop-color="#F4F4F4"/>
<stop offset="1" stop-color="#DBDBDB"/>
</linearGradient>
<linearGradient id="paint6_linear_1422_21250" x1="75.4208" y1="76.0896" x2="78.0108" y2="80.5796" gradientUnits="userSpaceOnUse">
<stop stop-color="#F4F4F4"/>
<stop offset="1" stop-color="#DBDBDB"/>
</linearGradient>
<linearGradient id="paint7_linear_1422_21250" x1="72.002" y1="78.0591" x2="74.592" y2="82.5491" gradientUnits="userSpaceOnUse">
<stop stop-color="#F4F4F4"/>
<stop offset="1" stop-color="#DBDBDB"/>
</linearGradient>
<linearGradient id="paint8_linear_1422_21250" x1="70.6122" y1="78.8709" x2="73.2022" y2="83.3609" gradientUnits="userSpaceOnUse">
<stop stop-color="#F4F4F4"/>
<stop offset="1" stop-color="#DBDBDB"/>
</linearGradient>
<linearGradient id="paint9_linear_1422_21250" x1="67.1934" y1="80.8406" x2="69.7834" y2="85.3306" gradientUnits="userSpaceOnUse">
<stop stop-color="#F4F4F4"/>
<stop offset="1" stop-color="#DBDBDB"/>
</linearGradient>
<linearGradient id="paint10_linear_1422_21250" x1="65.7997" y1="81.6502" x2="68.3897" y2="86.1302" gradientUnits="userSpaceOnUse">
<stop stop-color="#F4F4F4"/>
<stop offset="1" stop-color="#DBDBDB"/>
</linearGradient>
<linearGradient id="paint11_linear_1422_21250" x1="62.3809" y1="83.6199" x2="64.9709" y2="88.1099" gradientUnits="userSpaceOnUse">
<stop stop-color="#F4F4F4"/>
<stop offset="1" stop-color="#DBDBDB"/>
</linearGradient>
<linearGradient id="paint12_linear_1422_21250" x1="60.9811" y1="84.4297" x2="63.5811" y2="88.9097" gradientUnits="userSpaceOnUse">
<stop stop-color="#F4F4F4"/>
<stop offset="1" stop-color="#DBDBDB"/>
</linearGradient>
<linearGradient id="paint13_linear_1422_21250" x1="57.5723" y1="86.3992" x2="60.1623" y2="90.8792" gradientUnits="userSpaceOnUse">
<stop stop-color="#F4F4F4"/>
<stop offset="1" stop-color="#DBDBDB"/>
</linearGradient>
<linearGradient id="paint14_linear_1422_21250" x1="56.1725" y1="87.2009" x2="58.7625" y2="91.6909" gradientUnits="userSpaceOnUse">
<stop stop-color="#F4F4F4"/>
<stop offset="1" stop-color="#DBDBDB"/>
</linearGradient>
<linearGradient id="paint15_linear_1422_21250" x1="52.7638" y1="89.1707" x2="55.3537" y2="93.6607" gradientUnits="userSpaceOnUse">
<stop stop-color="#F4F4F4"/>
<stop offset="1" stop-color="#DBDBDB"/>
</linearGradient>
<linearGradient id="paint16_linear_1422_21250" x1="51.3639" y1="89.9802" x2="53.9539" y2="94.4702" gradientUnits="userSpaceOnUse">
<stop stop-color="#F4F4F4"/>
<stop offset="1" stop-color="#DBDBDB"/>
</linearGradient>
<linearGradient id="paint17_linear_1422_21250" x1="49.2203" y1="91.4008" x2="51.6603" y2="95.6408" gradientUnits="userSpaceOnUse">
<stop stop-color="#449CB7"/>
<stop offset="1" stop-color="#307C99"/>
</linearGradient>
<linearGradient id="paint18_linear_1422_21250" x1="47.9513" y1="91.95" x2="50.5413" y2="96.44" gradientUnits="userSpaceOnUse">
<stop stop-color="#F4F4F4"/>
<stop offset="1" stop-color="#DBDBDB"/>
</linearGradient>
<linearGradient id="paint19_linear_1422_21250" x1="46.5514" y1="92.7595" x2="49.1414" y2="97.2395" gradientUnits="userSpaceOnUse">
<stop stop-color="#F4F4F4"/>
<stop offset="1" stop-color="#DBDBDB"/>
</linearGradient>
<linearGradient id="paint20_linear_1422_21250" x1="44.4078" y1="94.1801" x2="46.8478" y2="98.4201" gradientUnits="userSpaceOnUse">
<stop stop-color="#449CB7"/>
<stop offset="1" stop-color="#307C99"/>
</linearGradient>
<linearGradient id="paint21_linear_1422_21250" x1="43.1388" y1="94.7293" x2="45.7288" y2="99.2193" gradientUnits="userSpaceOnUse">
<stop stop-color="#F4F4F4"/>
<stop offset="1" stop-color="#DBDBDB"/>
</linearGradient>
<linearGradient id="paint22_linear_1422_21250" x1="41.7428" y1="95.531" x2="44.3328" y2="100.021" gradientUnits="userSpaceOnUse">
<stop stop-color="#F4F4F4"/>
<stop offset="1" stop-color="#DBDBDB"/>
</linearGradient>
<linearGradient id="paint23_linear_1422_21250" x1="39.5914" y1="96.9613" x2="42.0314" y2="101.201" gradientUnits="userSpaceOnUse">
<stop stop-color="#449CB7"/>
<stop offset="1" stop-color="#307C99"/>
</linearGradient>
<linearGradient id="paint24_linear_1422_21250" x1="38.3302" y1="97.5105" x2="40.9202" y2="101.991" gradientUnits="userSpaceOnUse">
<stop stop-color="#F4F4F4"/>
<stop offset="1" stop-color="#DBDBDB"/>
</linearGradient>
<radialGradient id="paint25_radial_1422_21250" cx="0" cy="0" r="1" gradientUnits="userSpaceOnUse" gradientTransform="translate(87.5625 62.9102) scale(15.25 15.25)">
<stop stop-color="#6FC43D"/>
<stop offset="0.03" stop-color="#589B30"/>
<stop offset="0.05" stop-color="#437725"/>
<stop offset="0.08" stop-color="#31561B"/>
<stop offset="0.11" stop-color="#213B12"/>
<stop offset="0.15" stop-color="#15250B"/>
<stop offset="0.19" stop-color="#0B1406"/>
<stop offset="0.24" stop-color="#040802"/>
<stop offset="0.31" stop-color="#010100"/>
<stop offset="0.51"/>
</radialGradient>
<radialGradient id="paint26_radial_1422_21250" cx="0" cy="0" r="1" gradientUnits="userSpaceOnUse" gradientTransform="translate(82.832 65.6406) scale(15.25)">
<stop stop-color="#6FC43D"/>
<stop offset="0.03" stop-color="#589B30"/>
<stop offset="0.05" stop-color="#437725"/>
<stop offset="0.08" stop-color="#31561B"/>
<stop offset="0.11" stop-color="#213B12"/>
<stop offset="0.15" stop-color="#15250B"/>
<stop offset="0.19" stop-color="#0B1406"/>
<stop offset="0.24" stop-color="#040802"/>
<stop offset="0.31" stop-color="#010100"/>
<stop offset="0.51"/>
</radialGradient>
<radialGradient id="paint27_radial_1422_21250" cx="0" cy="0" r="1" gradientUnits="userSpaceOnUse" gradientTransform="translate(78.1016 68.3809) scale(15.25 15.25)">
<stop stop-color="#6FC43D"/>
<stop offset="0.03" stop-color="#589B30"/>
<stop offset="0.05" stop-color="#437725"/>
<stop offset="0.08" stop-color="#31561B"/>
<stop offset="0.11" stop-color="#213B12"/>
<stop offset="0.15" stop-color="#15250B"/>
<stop offset="0.19" stop-color="#0B1406"/>
<stop offset="0.24" stop-color="#040802"/>
<stop offset="0.31" stop-color="#010100"/>
<stop offset="0.51"/>
</radialGradient>
<radialGradient id="paint28_radial_1422_21250" cx="0" cy="0" r="1" gradientUnits="userSpaceOnUse" gradientTransform="translate(73.3594 71.1094) scale(15.25)">
<stop stop-color="#6FC43D"/>
<stop offset="0.03" stop-color="#589B30"/>
<stop offset="0.05" stop-color="#437725"/>
<stop offset="0.08" stop-color="#31561B"/>
<stop offset="0.11" stop-color="#213B12"/>
<stop offset="0.15" stop-color="#15250B"/>
<stop offset="0.19" stop-color="#0B1406"/>
<stop offset="0.24" stop-color="#040802"/>
<stop offset="0.31" stop-color="#010100"/>
<stop offset="0.51"/>
</radialGradient>
<radialGradient id="paint29_radial_1422_21250" cx="0" cy="0" r="1" gradientUnits="userSpaceOnUse" gradientTransform="translate(68.6289 73.8398) scale(15.25)">
<stop stop-color="#6FC43D"/>
<stop offset="0.03" stop-color="#589B30"/>
<stop offset="0.05" stop-color="#437725"/>
<stop offset="0.08" stop-color="#31561B"/>
<stop offset="0.11" stop-color="#213B12"/>
<stop offset="0.15" stop-color="#15250B"/>
<stop offset="0.19" stop-color="#0B1406"/>
<stop offset="0.24" stop-color="#040802"/>
<stop offset="0.31" stop-color="#010100"/>
<stop offset="0.51"/>
</radialGradient>
<radialGradient id="paint30_radial_1422_21250" cx="0" cy="0" r="1" gradientUnits="userSpaceOnUse" gradientTransform="translate(63.9006 76.5696) scale(15.25)">
<stop stop-color="#6FC43D"/>
<stop offset="0.03" stop-color="#589B30"/>
<stop offset="0.05" stop-color="#437725"/>
<stop offset="0.08" stop-color="#31561B"/>
<stop offset="0.11" stop-color="#213B12"/>
<stop offset="0.15" stop-color="#15250B"/>
<stop offset="0.19" stop-color="#0B1406"/>
<stop offset="0.24" stop-color="#040802"/>
<stop offset="0.31" stop-color="#010100"/>
<stop offset="0.51"/>
</radialGradient>
<radialGradient id="paint31_radial_1422_21250" cx="0" cy="0" r="1" gradientUnits="userSpaceOnUse" gradientTransform="translate(59.1719 79.3008) scale(15.25)">
<stop stop-color="#6FC43D"/>
<stop offset="0.03" stop-color="#589B30"/>
<stop offset="0.05" stop-color="#437725"/>
<stop offset="0.08" stop-color="#31561B"/>
<stop offset="0.11" stop-color="#213B12"/>
<stop offset="0.15" stop-color="#15250B"/>
<stop offset="0.19" stop-color="#0B1406"/>
<stop offset="0.24" stop-color="#040802"/>
<stop offset="0.31" stop-color="#010100"/>
<stop offset="0.51"/>
</radialGradient>
<radialGradient id="paint32_radial_1422_21250" cx="0" cy="0" r="1" gradientUnits="userSpaceOnUse" gradientTransform="translate(54.4414 82.0293) scale(15.25)">
<stop stop-color="#6FC43D"/>
<stop offset="0.03" stop-color="#589B30"/>
<stop offset="0.05" stop-color="#437725"/>
<stop offset="0.08" stop-color="#31561B"/>
<stop offset="0.11" stop-color="#213B12"/>
<stop offset="0.15" stop-color="#15250B"/>
<stop offset="0.19" stop-color="#0B1406"/>
<stop offset="0.24" stop-color="#040802"/>
<stop offset="0.31" stop-color="#010100"/>
<stop offset="0.51"/>
</radialGradient>
<linearGradient id="paint33_linear_1422_21250" x1="90.1794" y1="75.0005" x2="92.2694" y2="78.6305" gradientUnits="userSpaceOnUse">
<stop stop-color="#7295C9"/>
<stop offset="0.33" stop-color="#659FC0"/>
<stop offset="1" stop-color="#5183B1"/>
</linearGradient>
<clipPath id="clip0_1422_21250">
<rect width="87.42" height="80.26" fill="white" transform="translate(32 36)"/>
</clipPath>
</defs>
</svg>
