<svg width="153" height="176" viewBox="0 0 153 176" fill="none" xmlns="http://www.w3.org/2000/svg">
<rect x="0.5" y="0.5" width="152" height="175" rx="7.5" fill="#F8F8F8" stroke="#F2F2F2"/>
<g clip-path="url(#clip0_1422_21255)">
<rect width="73.05" height="70.65" transform="translate(45 49)" fill="#F8F8F8"/>
<path d="M68.5797 119.649L62.4297 116.099V113.199L68.5797 116.759V119.649Z" fill="#C2C4C4"/>
<path d="M75.3581 115.74L68.5781 119.65V116.76L75.3581 112.84V115.74Z" fill="#D7D9D9"/>
<path d="M68.5797 116.759L62.4297 113.199L69.1997 109.289L75.3597 112.839L68.5797 116.759Z" fill="#F4F4F4"/>
<path d="M90.6014 106.94L84.4414 103.39V100.49L90.6014 104.05V106.94Z" fill="#C2C4C4"/>
<path d="M97.3716 103.031L90.6016 106.941V104.051L97.3716 100.131V103.031Z" fill="#D7D9D9"/>
<path d="M90.6014 104.05L84.4414 100.49L91.2214 96.5801L97.3714 100.13L90.6014 104.05Z" fill="#F4F4F4"/>
<path d="M94.0117 98.3907V100.501L94.3017 100.331V98.2207L94.0117 98.3907Z" fill="#48484D"/>
<path d="M93.9897 96.8711C93.8197 96.4711 93.5797 96.1011 93.2897 95.7811C93.0497 95.5111 92.7897 95.2811 92.4997 95.1211C91.9997 94.8311 91.5397 94.8011 91.2197 94.9911L90.9297 95.1611C91.2597 94.9711 91.7097 95.0011 92.2097 95.2911C92.4897 95.4511 92.7597 95.6811 92.9997 95.9511C93.2797 96.2711 93.5197 96.6511 93.6997 97.0411C93.8997 97.4911 94.0097 97.9611 94.0097 98.4011L94.2997 98.2311C94.2997 97.7911 94.1897 97.3211 93.9897 96.8711Z" fill="#5F5F64"/>
<path d="M92.2202 95.282C91.2202 94.702 90.4102 95.162 90.4102 96.312V98.422L94.0102 100.502V98.392C94.0102 97.242 93.2102 95.852 92.2202 95.282Z" fill="#3B3B3F"/>
<path style="mix-blend-mode:screen" d="M93.3017 95.7715L93.0117 95.9415C93.2917 96.2615 93.5317 96.6415 93.7117 97.0315L94.0017 96.8615C93.8317 96.4615 93.5917 96.0915 93.3017 95.7715Z" fill="url(#paint0_linear_1422_21255)"/>
<path d="M91.5491 72.8402L93.5591 71.6602V100.13L91.5391 101.3L91.5491 72.8402Z" fill="#48484D"/>
<path d="M93.2167 70.1709C93.0267 69.7309 92.7567 69.3109 92.4467 68.9609C92.1867 68.6609 91.8867 68.4109 91.5767 68.2309C91.0267 67.9109 90.5267 67.8809 90.1567 68.0909L88.1367 69.2609C88.4967 69.0509 88.9967 69.0809 89.5567 69.4009C89.8667 69.5809 90.1667 69.8309 90.4267 70.1309C90.7367 70.4809 91.0067 70.9009 91.1967 71.3409C91.4167 71.8309 91.5467 72.3509 91.5367 72.8309L93.5567 71.6609C93.5567 71.1809 93.4267 70.6609 93.2167 70.1709Z" fill="#5F5F64"/>
<path style="mix-blend-mode:screen" d="M90.4297 70.1309L92.4497 68.9609C92.7597 69.3109 93.0297 69.7309 93.2197 70.1709L91.1997 71.3409C91.0097 70.9009 90.7397 70.4809 90.4297 70.1309Z" fill="url(#paint1_linear_1422_21255)"/>
<path d="M89.5586 69.4009C90.6586 70.0309 91.5486 71.5709 91.5486 72.8409V101.311L87.5586 99.0108V70.5409C87.5586 69.2809 88.4586 68.7709 89.5586 69.4009Z" fill="#39393D"/>
<path d="M90.8281 100.231V102.341L91.1181 102.171V100.061L90.8281 100.231Z" fill="#48484D"/>
<path d="M90.81 98.7012C90.64 98.3012 90.4 97.9312 90.11 97.6112C89.87 97.3412 89.61 97.1112 89.32 96.9512C88.82 96.6612 88.36 96.6312 88.04 96.8212L87.75 96.9912C88.08 96.8012 88.53 96.8312 89.03 97.1212C89.31 97.2812 89.58 97.5112 89.82 97.7812C90.1 98.1012 90.34 98.4812 90.52 98.8712C90.72 99.3212 90.83 99.7912 90.83 100.231L91.12 100.061C91.12 99.6212 91.01 99.1512 90.81 98.7012Z" fill="#5F5F64"/>
<path d="M89.0287 97.1219C88.0287 96.5419 87.2188 97.0019 87.2188 98.1519V100.262L90.8187 102.342V100.232C90.8187 99.0819 90.0187 97.6919 89.0287 97.1219Z" fill="#3B3B3F"/>
<path style="mix-blend-mode:screen" d="M90.1103 97.6113L89.8203 97.7813C90.1003 98.1013 90.3403 98.4813 90.5203 98.8713L90.8103 98.7013C90.6403 98.3013 90.4003 97.9313 90.1103 97.6113Z" fill="url(#paint2_linear_1422_21255)"/>
<path d="M72.0781 111.061V113.171L72.3681 113.001V110.891L72.0781 111.061Z" fill="#48484D"/>
<path d="M72.06 109.531C71.89 109.131 71.65 108.761 71.36 108.441C71.12 108.171 70.86 107.941 70.57 107.781C70.07 107.491 69.61 107.461 69.29 107.651L69 107.821C69.33 107.631 69.78 107.661 70.28 107.951C70.56 108.111 70.83 108.341 71.07 108.611C71.35 108.931 71.59 109.311 71.77 109.701C71.97 110.151 72.08 110.621 72.08 111.061L72.37 110.891C72.37 110.451 72.26 109.981 72.06 109.531Z" fill="#5F5F64"/>
<path d="M70.2788 107.952C69.2788 107.372 68.4688 107.832 68.4688 108.982V111.092L72.0688 113.172V111.062C72.0688 109.912 71.2688 108.522 70.2788 107.952Z" fill="#3B3B3F"/>
<path style="mix-blend-mode:screen" d="M71.3603 108.441L71.0703 108.611C71.3503 108.931 71.5903 109.311 71.7703 109.701L72.0603 109.531C71.8903 109.131 71.6503 108.761 71.3603 108.441Z" fill="url(#paint3_linear_1422_21255)"/>
<path d="M69.6055 85.5001L71.6255 84.3301L71.6155 112.79L69.6055 113.97V85.5001Z" fill="#48484D"/>
<path d="M71.2753 82.8408C71.0853 82.4008 70.8153 81.9808 70.5053 81.6308C70.2453 81.3308 69.9453 81.0808 69.6353 80.9008C69.0853 80.5808 68.5853 80.5508 68.2153 80.7608L66.1953 81.9308C66.5553 81.7208 67.0553 81.7508 67.6153 82.0708C67.9253 82.2508 68.2253 82.5008 68.4853 82.8008C68.7953 83.1508 69.0653 83.5708 69.2553 84.0108C69.4753 84.5008 69.6053 85.0208 69.5953 85.5008L71.6153 84.3308C71.6153 83.8508 71.4853 83.3308 71.2753 82.8408Z" fill="#5F5F64"/>
<path style="mix-blend-mode:screen" d="M68.4883 82.7911L70.5083 81.6211C70.8183 81.9711 71.0883 82.3911 71.2783 82.8311L69.2583 84.0011C69.0683 83.5611 68.7983 83.1411 68.4883 82.7911Z" fill="url(#paint4_linear_1422_21255)"/>
<path d="M67.6172 82.061C68.7172 82.691 69.6072 84.231 69.6072 85.501V113.971L65.6172 111.671V83.201C65.6172 81.941 66.5172 81.431 67.6172 82.061Z" fill="#39393D"/>
<path d="M68.8906 112.891V115.011L69.1806 114.831V112.721L68.8906 112.891Z" fill="#48484D"/>
<path d="M68.8686 111.371C68.6986 110.971 68.4586 110.601 68.1686 110.281C67.9286 110.011 67.6686 109.781 67.3786 109.621C66.8786 109.331 66.4186 109.301 66.0986 109.491L65.8086 109.661C66.1386 109.471 66.5886 109.501 67.0886 109.791C67.3686 109.951 67.6386 110.181 67.8786 110.451C68.1586 110.771 68.3986 111.151 68.5786 111.541C68.7786 111.991 68.8886 112.461 68.8886 112.901L69.1786 112.731C69.1786 112.291 69.0686 111.821 68.8686 111.371Z" fill="#5F5F64"/>
<path d="M67.0991 109.782C66.0991 109.202 65.2891 109.662 65.2891 110.812V112.922L68.8891 115.002V112.892C68.8891 111.742 68.0891 110.352 67.0991 109.782Z" fill="#3B3B3F"/>
<path style="mix-blend-mode:screen" d="M68.1806 110.281L67.8906 110.451C68.1706 110.771 68.4106 111.151 68.5906 111.541L68.8806 111.371C68.7106 110.971 68.4706 110.601 68.1806 110.281Z" fill="url(#paint5_linear_1422_21255)"/>
<path d="M71.1016 99.9206L106.452 79.4206L108.172 73.6406L72.8116 94.1406L71.1016 99.9206Z" fill="#ADADAD"/>
<path d="M92.3717 59.9609L108.172 73.6409L72.8117 94.1409L57.0117 80.4709L92.3717 59.9609Z" fill="#F4F4F4"/>
<path d="M107.419 73.4909L92.3594 60.4609L57.8594 80.4709L72.9194 93.5009L107.419 73.4909Z" fill="#008EEC"/>
<path d="M57.0108 80.4707L55.3008 86.2507L71.1008 99.9207L72.8108 94.1407L57.0108 80.4707Z" fill="#C2C4C4"/>
<path d="M79.7812 102.37L117.711 80.2696L118.051 79.0996L80.1213 101.2L79.7812 102.37Z" fill="#D7D9D9"/>
<path d="M83.2698 49L118.05 79.1L80.1198 101.2L45.3398 71.11L83.2698 49Z" fill="#F4F4F4"/>
<path d="M116.411 78.7698L83.2709 50.0898L47.2109 71.0998L80.3509 99.7898L116.411 78.7698Z" fill="#0089C8"/>
<path d="M45.34 71.1094L45 72.2794L79.78 102.369L80.12 101.199L45.34 71.1094Z" fill="#C2C4C4"/>
<path opacity="0.5" d="M60.6411 76.1208L63.0211 78.1508C63.1711 78.2808 63.2511 78.4308 63.2311 78.5808C63.2211 78.7108 63.1311 78.8308 62.9911 78.9108L60.4411 80.3908C60.3111 80.4708 60.1511 80.5008 59.9711 80.5008C59.7011 80.5008 59.4311 80.4108 59.2511 80.2508L56.8711 78.2208C56.7211 78.1008 56.6511 77.9508 56.6611 77.8008C56.6711 77.6608 56.7611 77.5408 56.9011 77.4608L59.4511 75.9808C59.5811 75.9108 59.7411 75.8708 59.9211 75.8708C60.1911 75.8708 60.4511 75.9608 60.6411 76.1208ZM68.2511 71.0508C68.0711 71.0508 67.9111 71.0908 67.7811 71.1708L65.2311 72.6508C65.0911 72.7308 65.0011 72.8508 64.9911 72.9808C64.9811 73.1308 65.0511 73.2808 65.2011 73.4008L67.5811 75.4308C67.7711 75.5908 68.0411 75.6808 68.3011 75.6808C68.4711 75.6808 68.6411 75.6408 68.7611 75.5708L71.3111 74.0908C71.4511 74.0108 71.5411 73.8908 71.5511 73.7508C71.5611 73.6008 71.4911 73.4508 71.3411 73.3208L68.9611 71.2908C68.7811 71.1408 68.5111 71.0508 68.2411 71.0508H68.2511ZM64.0911 73.4608C63.9111 73.4608 63.7511 73.5008 63.6211 73.5708L61.0711 75.0508C60.9211 75.1308 60.8411 75.2608 60.8311 75.3908C60.8211 75.5408 60.8911 75.6908 61.0411 75.8108L63.4211 77.8408C63.6011 78.0008 63.8711 78.0908 64.1411 78.0908C64.3211 78.0908 64.4811 78.0508 64.6111 77.9808L67.1611 76.5008C67.3011 76.4208 67.3911 76.3008 67.4011 76.1608C67.4111 76.0108 67.3411 75.8608 67.1911 75.7308L64.8111 73.7008C64.6311 73.5508 64.3611 73.4608 64.1011 73.4608H64.0911ZM91.0711 75.1508C91.2511 75.1508 91.4111 75.1108 91.5411 75.0408L94.0911 73.5608C94.2311 73.4808 94.3211 73.3608 94.3311 73.2308C94.3411 73.0808 94.2711 72.9308 94.1211 72.8008L91.7411 70.7708C91.5611 70.6208 91.2911 70.5208 91.0311 70.5208C90.8511 70.5208 90.6911 70.5608 90.5611 70.6308L88.0111 72.1108C87.8611 72.1908 87.7811 72.3108 87.7711 72.4508C87.7611 72.6008 87.8311 72.7508 87.9811 72.8708L90.3611 74.9008C90.5411 75.0608 90.8111 75.1508 91.0911 75.1508H91.0711ZM86.9111 77.5608C87.0911 77.5608 87.2511 77.5208 87.3811 77.4508L89.9311 75.9708C90.0711 75.8908 90.1611 75.7708 90.1711 75.6408C90.1811 75.4908 90.1111 75.3408 89.9611 75.2108L87.5811 73.1808C87.4011 73.0308 87.1311 72.9308 86.8611 72.9308C86.6811 72.9308 86.5211 72.9708 86.3911 73.0408L83.8411 74.5208C83.6911 74.6108 83.6111 74.7308 83.5911 74.8608C83.5811 75.0108 83.6511 75.1608 83.8011 75.2808L86.1811 77.3108C86.3611 77.4708 86.6311 77.5608 86.9011 77.5608H86.9111ZM72.4111 68.6308C72.2311 68.6308 72.0711 68.6708 71.9411 68.7508L69.3911 70.2308C69.2511 70.3108 69.1611 70.4308 69.1511 70.5608C69.1411 70.7108 69.2111 70.8608 69.3611 70.9808L71.7411 73.0108C71.9311 73.1708 72.2011 73.2608 72.4611 73.2608C72.6411 73.2608 72.8011 73.2208 72.9211 73.1508L75.4711 71.6708C75.6211 71.5908 75.7011 71.4708 75.7211 71.3308C75.7311 71.1808 75.6611 71.0308 75.5111 70.9008L73.1311 68.8708C72.9511 68.7208 72.6811 68.6208 72.4211 68.6208L72.4111 68.6308ZM81.3111 80.8008C81.4811 80.8008 81.6411 80.7608 81.7711 80.6908L84.3211 79.2108C84.4711 79.1308 84.5511 79.0108 84.5611 78.8708C84.5711 78.7208 84.5011 78.5708 84.3511 78.4408L81.9711 76.4108C81.7911 76.2608 81.5211 76.1608 81.2611 76.1608C81.0811 76.1608 80.9211 76.2008 80.7911 76.2808L78.2411 77.7608C78.1011 77.8408 78.0111 77.9608 78.0011 78.0908C77.9911 78.2408 78.0611 78.3908 78.2111 78.5108L80.5911 80.5408C80.7711 80.7008 81.0511 80.7908 81.3211 80.7908L81.3111 80.8008ZM78.0111 65.3808C77.8311 65.3808 77.6711 65.4208 77.5411 65.4908L74.9911 66.9708C74.8411 67.0608 74.7611 67.1808 74.7411 67.3108C74.7311 67.4608 74.8011 67.6008 74.9511 67.7308L77.3311 69.7608C77.5111 69.9208 77.7811 70.0108 78.0511 70.0108C78.2311 70.0108 78.3911 69.9708 78.5211 69.8908L81.0711 68.4108C81.2111 68.3308 81.3011 68.2108 81.3111 68.0808C81.3211 67.9308 81.2511 67.7808 81.1011 67.6508L78.7211 65.6208C78.5411 65.4708 78.2711 65.3708 78.0011 65.3708L78.0111 65.3808ZM82.8811 63.2208C82.7011 63.0708 82.4311 62.9708 82.1611 62.9708C81.9811 62.9708 81.8211 63.0108 81.6911 63.0808L79.1411 64.5608C78.9911 64.6408 78.9111 64.7608 78.9011 64.9008C78.8911 65.0508 78.9611 65.2008 79.1111 65.3208L81.4911 67.3508C81.6711 67.5108 81.9411 67.6008 82.2111 67.6008C82.3911 67.6008 82.5511 67.5608 82.6811 67.4908L85.2311 66.0108C85.3711 65.9308 85.4611 65.8108 85.4711 65.6808C85.4811 65.5308 85.4111 65.3808 85.2611 65.2508L82.8811 63.2208ZM86.7611 66.5308C86.5711 66.3708 86.3011 66.2808 86.0411 66.2808C85.8611 66.2808 85.7011 66.3208 85.5811 66.3908L83.0311 67.8708C82.8811 67.9508 82.8011 68.0708 82.7911 68.2108C82.7811 68.3608 82.8511 68.5108 83.0011 68.6408L85.3811 70.6708C85.5611 70.8208 85.8311 70.9108 86.0911 70.9108C86.2711 70.9108 86.4311 70.8708 86.5611 70.8008L89.1111 69.3208C89.2511 69.2408 89.3411 69.1208 89.3511 68.9908C89.3611 68.8408 89.2911 68.6908 89.1411 68.5708L86.7611 66.5408V66.5308ZM76.8511 88.9308C77.0311 88.9308 77.1911 88.8908 77.3211 88.8208L79.8711 87.3408C80.0211 87.2608 80.1011 87.1308 80.1111 87.0008C80.1211 86.8508 80.0511 86.7008 79.9011 86.5808L77.5211 84.5508C77.3411 84.3908 77.0711 84.3008 76.8011 84.3008C76.6211 84.3008 76.4611 84.3408 76.3311 84.4108L73.7811 85.8908C73.6311 85.9708 73.5511 86.0908 73.5411 86.2308C73.5311 86.3808 73.6011 86.5308 73.7511 86.6608L76.1311 88.6908C76.3111 88.8408 76.5811 88.9308 76.8411 88.9308H76.8511ZM72.6911 91.3408C72.8711 91.3408 73.0311 91.3008 73.1611 91.2208L75.7111 89.7408C75.8511 89.6608 75.9411 89.5408 75.9511 89.4108C75.9611 89.2608 75.8911 89.1108 75.7411 88.9908L73.3611 86.9608C73.1811 86.8008 72.9011 86.7108 72.6411 86.7108C72.4611 86.7108 72.3011 86.7508 72.1811 86.8208L69.6311 88.3008C69.4911 88.3808 69.4011 88.5008 69.3911 88.6408C69.3811 88.7908 69.4511 88.9408 69.6011 89.0708L71.9811 91.1008C72.1611 91.2508 72.4311 91.3408 72.6911 91.3408ZM81.9211 73.3208C82.1011 73.3208 82.2611 73.2808 82.3911 73.2008L84.9411 71.7208C85.0811 71.6408 85.1711 71.5208 85.1811 71.3908C85.1911 71.2408 85.1211 71.0908 84.9711 70.9708L82.5911 68.9408C82.4011 68.7808 82.1311 68.6908 81.8711 68.6908C81.6911 68.6908 81.5311 68.7308 81.4111 68.8008L78.8611 70.2808C78.7111 70.3608 78.6311 70.4808 78.6111 70.6208C78.6011 70.7708 78.6711 70.9208 78.8211 71.0508L81.2011 73.0808C81.3811 73.2308 81.6511 73.3308 81.9111 73.3308L81.9211 73.3208ZM72.1211 74.3508C71.9411 74.3508 71.7811 74.3908 71.6511 74.4608L69.1011 75.9408C68.9611 76.0208 68.8711 76.1408 68.8611 76.2708C68.8511 76.4208 68.9211 76.5708 69.0711 76.7008L71.4511 78.7308C71.6311 78.8808 71.9011 78.9808 72.1711 78.9808C72.3511 78.9808 72.5111 78.9408 72.6411 78.8708L75.1911 77.3908C75.3411 77.3108 75.4211 77.1808 75.4311 77.0508C75.4411 76.9008 75.3711 76.7508 75.2211 76.6308L72.8411 74.6008C72.6611 74.4408 72.3911 74.3508 72.1211 74.3508ZM76.2811 71.9408C76.1011 71.9408 75.9411 71.9808 75.8111 72.0608L73.2611 73.5408C73.1211 73.6208 73.0311 73.7408 73.0211 73.8708C73.0111 74.0208 73.0811 74.1708 73.2311 74.3008L75.6111 76.3308C75.7911 76.4808 76.0611 76.5808 76.3311 76.5808C76.5111 76.5808 76.6711 76.5408 76.8011 76.4708L79.3511 74.9908C79.5011 74.9008 79.5811 74.7808 79.6011 74.6508C79.6111 74.5008 79.5411 74.3508 79.3911 74.2308L77.0111 72.2008C76.8311 72.0408 76.5611 71.9508 76.2911 71.9508L76.2811 71.9408ZM67.9611 76.7608C67.7811 76.7608 67.6211 76.8008 67.4911 76.8708L64.9411 78.3508C64.7911 78.4308 64.7111 78.5508 64.7011 78.6908C64.6911 78.8408 64.7611 78.9908 64.9111 79.1208L67.2911 81.1508C67.4711 81.3008 67.7411 81.3908 68.0011 81.3908C68.1811 81.3908 68.3411 81.3508 68.4711 81.2808L71.0211 79.8008C71.1711 79.7208 71.2511 79.6008 71.2611 79.4608C71.2711 79.3108 71.2011 79.1608 71.0511 79.0408L68.6711 77.0108C68.4911 76.8508 68.2211 76.7608 67.9511 76.7608H67.9611ZM63.7911 79.1708C63.6111 79.1708 63.4511 79.2108 63.3311 79.2808L60.7811 80.7608C60.6311 80.8408 60.5511 80.9608 60.5411 81.1008C60.5311 81.2508 60.6011 81.4008 60.7511 81.5308L63.1311 83.5608C63.3111 83.7108 63.5811 83.8008 63.8411 83.8008C64.0211 83.8008 64.1811 83.7608 64.3111 83.6908L66.8611 82.2108C67.0011 82.1308 67.0911 82.0108 67.1011 81.8808C67.1111 81.7308 67.0411 81.5808 66.8911 81.4608L64.5111 79.4308C64.3211 79.2708 64.0511 79.1808 63.7911 79.1808V79.1708ZM103.821 74.2308C103.811 74.3808 103.881 74.5308 104.031 74.6608L106.411 76.6908C106.591 76.8408 106.861 76.9408 107.131 76.9408C107.311 76.9408 107.471 76.9008 107.601 76.8308L110.151 75.3508C110.301 75.2608 110.381 75.1408 110.401 75.0108C110.411 74.8608 110.341 74.7108 110.191 74.5908L107.811 72.5608C107.631 72.4008 107.361 72.3108 107.091 72.3108C106.911 72.3108 106.751 72.3508 106.621 72.4208L104.071 73.9008C103.931 73.9808 103.841 74.1008 103.831 74.2308H103.821ZM72.9711 85.6308C73.1511 85.6308 73.3111 85.5908 73.4411 85.5208L75.9911 84.0408C76.1311 83.9608 76.2211 83.8408 76.2311 83.7008C76.2411 83.5508 76.1711 83.4008 76.0211 83.2708L73.6411 81.2408C73.4611 81.0908 73.1911 81.0008 72.9211 81.0008C72.7411 81.0008 72.5811 81.0408 72.4511 81.1108L69.9011 82.5908C69.7511 82.6708 69.6711 82.7908 69.6611 82.9308C69.6511 83.0808 69.7211 83.2308 69.8711 83.3508L72.2511 85.3808C72.4311 85.5408 72.7011 85.6308 72.9811 85.6308H72.9711ZM68.8111 88.0408C68.9911 88.0408 69.1511 88.0008 69.2811 87.9308L71.8311 86.4508C71.9711 86.3708 72.0611 86.2508 72.0711 86.1208C72.0811 85.9708 72.0111 85.8208 71.8611 85.6908L69.4811 83.6608C69.3011 83.5108 69.0311 83.4108 68.7611 83.4108C68.5811 83.4108 68.4211 83.4508 68.2911 83.5208L65.7411 85.0008C65.5911 85.0808 65.5111 85.2008 65.5011 85.3408C65.4911 85.4908 65.5611 85.6408 65.7111 85.7608L68.0911 87.7908C68.2711 87.9508 68.5411 88.0408 68.8211 88.0408H68.8111ZM81.0011 86.5208C81.1811 86.5208 81.3411 86.4808 81.4711 86.4108L84.0211 84.9308C84.1711 84.8508 84.2511 84.7308 84.2611 84.5908C84.2711 84.4408 84.2011 84.2908 84.0511 84.1708L81.6711 82.1408C81.4911 81.9808 81.2211 81.8908 80.9511 81.8908C80.7711 81.8908 80.6111 81.9308 80.4811 82.0008L77.9311 83.4808C77.7911 83.5608 77.7011 83.6808 77.6911 83.8108C77.6811 83.9608 77.7511 84.1108 77.9011 84.2408L80.2811 86.2708C80.4611 86.4308 80.7311 86.5208 81.0011 86.5208ZM77.1311 83.2208C77.3111 83.2208 77.4611 83.1808 77.5911 83.1108L80.1411 81.6308C80.2811 81.5508 80.3711 81.4308 80.3811 81.2908C80.3911 81.1408 80.3211 80.9908 80.1711 80.8608L77.7911 78.8308C77.6111 78.6808 77.3411 78.5908 77.0811 78.5908C76.9011 78.5908 76.7411 78.6308 76.6111 78.7008L74.0611 80.1808C73.9211 80.2608 73.8311 80.3808 73.8211 80.5108C73.8111 80.6608 73.8811 80.8108 74.0311 80.9308L76.4111 82.9608C76.5911 83.1208 76.8711 83.2108 77.1411 83.2108L77.1311 83.2208ZM82.0511 55.9308C82.2311 56.0808 82.5011 56.1808 82.7711 56.1808C82.9511 56.1808 83.1111 56.1408 83.2411 56.0708L85.7911 54.5908C85.9411 54.5008 86.0211 54.3808 86.0411 54.2508C86.0511 54.1008 85.9811 53.9508 85.8311 53.8308L83.4511 51.8008C83.2711 51.6408 83.0011 51.5508 82.7311 51.5508C82.5511 51.5508 82.3911 51.5908 82.2611 51.6608L79.7111 53.1408C79.5711 53.2208 79.4811 53.3408 79.4711 53.4708C79.4611 53.6208 79.5311 53.7708 79.6811 53.9008L82.0611 55.9308H82.0511ZM73.7311 60.7508C73.9111 60.9008 74.1811 60.9908 74.4411 60.9908C74.6211 60.9908 74.7811 60.9508 74.9111 60.8808L77.4611 59.4008C77.6011 59.3208 77.6911 59.2008 77.7011 59.0708C77.7111 58.9208 77.6411 58.7708 77.4911 58.6508L75.1111 56.6208C74.9311 56.4608 74.6511 56.3708 74.3811 56.3708C74.2011 56.3708 74.0511 56.4108 73.9211 56.4808L71.3711 57.9608C71.2311 58.0408 71.1411 58.1608 71.1311 58.3008C71.1211 58.4508 71.1911 58.6008 71.3411 58.7308L73.7211 60.7608L73.7311 60.7508ZM77.9011 58.3408C78.0811 58.4908 78.3511 58.5908 78.6211 58.5908C78.8011 58.5908 78.9611 58.5508 79.0911 58.4808L81.6411 57.0008C81.7911 56.9208 81.8711 56.7908 81.8811 56.6608C81.8911 56.5108 81.8211 56.3608 81.6711 56.2408L79.2911 54.2108C79.1111 54.0508 78.8411 53.9608 78.5611 53.9608C78.3811 53.9608 78.2211 54.0008 78.0911 54.0708L75.5411 55.5508C75.4011 55.6308 75.3111 55.7508 75.3011 55.8808C75.2911 56.0308 75.3611 56.1808 75.5111 56.3108L77.8911 58.3408H77.9011ZM69.5811 63.1608C69.7611 63.3108 70.0311 63.4108 70.2911 63.4108C70.4711 63.4108 70.6311 63.3708 70.7611 63.2908L73.3111 61.8108C73.4511 61.7308 73.5411 61.6108 73.5511 61.4808C73.5611 61.3308 73.4911 61.1808 73.3411 61.0608L70.9611 59.0308C70.7811 58.8708 70.5111 58.7808 70.2311 58.7808C70.0611 58.7808 69.9011 58.8208 69.7711 58.8908L67.2211 60.3708C67.0811 60.4508 66.9911 60.5708 66.9811 60.7108C66.9711 60.8608 67.0411 61.0108 67.1911 61.1408L69.5711 63.1708L69.5811 63.1608ZM55.6511 71.2308C55.8311 71.3808 56.1011 71.4708 56.3611 71.4708C56.5411 71.4708 56.7011 71.4308 56.8311 71.3608L59.3811 69.8808C59.5311 69.8008 59.6111 69.6808 59.6211 69.5408C59.6311 69.3908 59.5611 69.2408 59.4111 69.1208L57.0311 67.0908C56.8511 66.9308 56.5811 66.8408 56.3011 66.8408C56.1211 66.8408 55.9611 66.8808 55.8311 66.9508L53.2811 68.4308C53.1411 68.5108 53.0511 68.6308 53.0411 68.7708C53.0311 68.9208 53.1011 69.0708 53.2511 69.2008L55.6311 71.2308H55.6511ZM59.8211 68.8208C60.0011 68.9708 60.2711 69.0708 60.5411 69.0708C60.7211 69.0708 60.8811 69.0308 61.0111 68.9608L63.5611 67.4808C63.7111 67.4008 63.7911 67.2808 63.8011 67.1408C63.8111 66.9908 63.7411 66.8408 63.5911 66.7208L61.2111 64.6908C61.0311 64.5408 60.7611 64.4408 60.4811 64.4408C60.3011 64.4408 60.1411 64.4808 60.0111 64.5508L57.4611 66.0308C57.3211 66.1108 57.2311 66.2308 57.2211 66.3608C57.2111 66.5108 57.2811 66.6608 57.4311 66.7908L59.8111 68.8208H59.8211ZM63.9811 66.4108C64.1611 66.5608 64.4311 66.6608 64.7011 66.6608C64.8811 66.6608 65.0411 66.6208 65.1711 66.5508L67.7211 65.0708C67.8711 64.9808 67.9511 64.8608 67.9711 64.7308C67.9811 64.5808 67.9111 64.4308 67.7611 64.3108L65.3811 62.2808C65.2011 62.1208 64.9311 62.0308 64.6611 62.0308C64.4811 62.0308 64.3211 62.0708 64.1911 62.1408L61.6411 63.6208C61.5011 63.7008 61.4111 63.8208 61.4011 63.9508C61.3911 64.1008 61.4611 64.2508 61.6111 64.3808L63.9911 66.4108H63.9811ZM91.1011 63.3808C91.0911 63.5308 91.1611 63.6808 91.3111 63.8108L93.6911 65.8408C93.8711 65.9908 94.1411 66.0908 94.4111 66.0908C94.5911 66.0908 94.7511 66.0508 94.8811 65.9808L97.4311 64.5008C97.5811 64.4108 97.6611 64.2908 97.6811 64.1608C97.6911 64.0108 97.6211 63.8608 97.4711 63.7408L95.0911 61.7108C94.9111 61.5508 94.6411 61.4608 94.3711 61.4608C94.1911 61.4608 94.0311 61.5008 93.9011 61.5808L91.3511 63.0608C91.2111 63.1408 91.1211 63.2608 91.1111 63.3908L91.1011 63.3808ZM99.9511 70.9208C99.9411 71.0708 100.011 71.2208 100.161 71.3508L102.541 73.3808C102.721 73.5308 102.991 73.6308 103.261 73.6308C103.441 73.6308 103.601 73.5908 103.721 73.5208L106.271 72.0408C106.421 71.9508 106.501 71.8308 106.521 71.7008C106.531 71.5508 106.461 71.4008 106.311 71.2808L103.931 69.2508C103.751 69.0908 103.481 69.0008 103.211 69.0008C103.031 69.0008 102.871 69.0408 102.741 69.1208L100.191 70.6008C100.051 70.6808 99.9611 70.8008 99.9511 70.9308V70.9208ZM96.0811 67.6208C96.0711 67.7708 96.1411 67.9208 96.2911 68.0408L98.6711 70.0708C98.8511 70.2308 99.1311 70.3208 99.4011 70.3208C99.5811 70.3208 99.7311 70.2808 99.8611 70.2108L102.411 68.7308C102.561 68.6508 102.641 68.5308 102.651 68.3908C102.661 68.2408 102.591 68.0908 102.441 67.9608L100.061 65.9308C99.8811 65.7808 99.6111 65.6808 99.3511 65.6808C99.1711 65.6808 99.0111 65.7208 98.8811 65.8008L96.3311 67.2808C96.1911 67.3608 96.1011 67.4808 96.0911 67.6108L96.0811 67.6208ZM102.981 79.3308C103.161 79.3308 103.321 79.2908 103.451 79.2208L106.001 77.7408C106.151 77.6608 106.231 77.5308 106.241 77.4008C106.251 77.2508 106.181 77.1008 106.031 76.9808L103.651 74.9508C103.471 74.7908 103.201 74.7008 102.921 74.7008C102.741 74.7008 102.581 74.7408 102.451 74.8108L99.9011 76.2908C99.7611 76.3708 99.6711 76.4908 99.6611 76.6208C99.6511 76.7708 99.7211 76.9208 99.8711 77.0508L102.251 79.0808C102.431 79.2308 102.701 79.3308 102.971 79.3308H102.981ZM83.3511 56.7908C83.3411 56.9408 83.4111 57.0908 83.5611 57.2108L85.9411 59.2408C86.1211 59.4008 86.3911 59.4908 86.6711 59.4908C86.8411 59.4908 87.0011 59.4508 87.1311 59.3808L89.6811 57.9008C89.8311 57.8208 89.9111 57.7008 89.9211 57.5608C89.9311 57.4108 89.8611 57.2608 89.7111 57.1308L87.3311 55.1008C87.1511 54.9508 86.8811 54.8508 86.6211 54.8508C86.4411 54.8508 86.2811 54.8908 86.1511 54.9708L83.6011 56.4508C83.4611 56.5308 83.3711 56.6508 83.3611 56.7808L83.3511 56.7908ZM87.2211 60.0908C87.2111 60.2408 87.2811 60.3908 87.4311 60.5108L89.8111 62.5408C90.0011 62.7008 90.2711 62.7908 90.5311 62.7908C90.7111 62.7908 90.8711 62.7508 90.9911 62.6808L93.5411 61.2008C93.6911 61.1208 93.7711 61.0008 93.7911 60.8608C93.8011 60.7108 93.7311 60.5608 93.5811 60.4308L91.2011 58.4008C91.0211 58.2508 90.7511 58.1508 90.4911 58.1508C90.3111 58.1508 90.1511 58.1908 90.0211 58.2708L87.4711 59.7508C87.3311 59.8308 87.2411 59.9508 87.2311 60.0808L87.2211 60.0908ZM51.5011 73.6508C51.6811 73.8008 51.9511 73.8908 52.2211 73.8908C52.4011 73.8908 52.5611 73.8508 52.6911 73.7708L55.2411 72.2908C55.3811 72.2108 55.4711 72.0908 55.4811 71.9608C55.4911 71.8108 55.4211 71.6608 55.2711 71.5408L52.8911 69.5108C52.7111 69.3508 52.4311 69.2608 52.1611 69.2608C51.9811 69.2608 51.8311 69.3008 51.7011 69.3708L49.1511 70.8508C49.0111 70.9308 48.9211 71.0508 48.9111 71.1908C48.9011 71.3408 48.9711 71.4908 49.1211 71.6208L51.5011 73.6508ZM103.361 80.6808C103.181 80.5208 102.901 80.4308 102.631 80.4308C102.451 80.4308 102.301 80.4708 102.171 80.5408L99.6211 82.0208C99.4811 82.1008 99.3911 82.2208 99.3811 82.3608C99.3711 82.5108 99.4411 82.6608 99.5911 82.7908L101.971 84.8208C102.151 84.9808 102.421 85.0708 102.701 85.0708C102.881 85.0708 103.041 85.0308 103.171 84.9608L105.721 83.4808C105.861 83.4008 105.951 83.2808 105.961 83.1508C105.971 83.0008 105.901 82.8508 105.751 82.7208L103.371 80.6908L103.361 80.6808ZM85.2811 91.1608C85.1011 91.0008 84.8311 90.9108 84.5511 90.9108C84.3711 90.9108 84.2111 90.9508 84.0811 91.0208L81.5311 92.5008C81.3911 92.5808 81.3011 92.7008 81.2911 92.8408C81.2811 92.9908 81.3511 93.1408 81.5011 93.2708L83.8811 95.3008C84.0611 95.4608 84.3311 95.5508 84.6111 95.5508C84.7911 95.5508 84.9511 95.5108 85.0811 95.4408L87.6311 93.9608C87.7711 93.8808 87.8611 93.7608 87.8711 93.6208C87.8811 93.4708 87.8111 93.3208 87.6611 93.1908L85.2811 91.1608ZM89.4411 88.7508C89.2611 88.5908 88.9911 88.5008 88.7111 88.5008C88.5311 88.5008 88.3711 88.5408 88.2411 88.6108L85.6911 90.0908C85.5511 90.1708 85.4611 90.2908 85.4511 90.4208C85.4411 90.5708 85.5111 90.7208 85.6611 90.8508L88.0411 92.8808C88.2211 93.0408 88.5011 93.1308 88.7711 93.1308C88.9511 93.1308 89.1011 93.0908 89.2311 93.0208L91.7811 91.5408C91.9211 91.4608 92.0111 91.3408 92.0211 91.2008C92.0311 91.0508 91.9611 90.9008 91.8111 90.7708L89.4311 88.7408L89.4411 88.7508ZM93.6011 86.3408C93.4211 86.1808 93.1511 86.0908 92.8811 86.0908C92.7011 86.0908 92.5411 86.1308 92.4111 86.2008L89.8611 87.6808C89.7211 87.7608 89.6311 87.8808 89.6211 88.0108C89.6111 88.1608 89.6811 88.3108 89.8311 88.4408L92.2111 90.4708C92.3911 90.6308 92.6711 90.7208 92.9411 90.7208C93.1211 90.7208 93.2711 90.6808 93.4011 90.6108L95.9511 89.1308C96.1011 89.0508 96.1811 88.9308 96.1911 88.7908C96.2011 88.6408 96.1311 88.4908 95.9811 88.3608L93.6011 86.3308V86.3408ZM114.061 77.8908L111.681 75.8608C111.501 75.7008 111.231 75.6108 110.961 75.6108C110.781 75.6108 110.621 75.6508 110.491 75.7208L107.941 77.2008C107.801 77.2808 107.711 77.4008 107.701 77.5308C107.691 77.6808 107.761 77.8308 107.911 77.9608L110.291 79.9908C110.471 80.1508 110.751 80.2408 111.021 80.2408C111.201 80.2408 111.351 80.2008 111.481 80.1308L114.031 78.6508C114.181 78.5708 114.261 78.4508 114.271 78.3108C114.281 78.1608 114.211 78.0108 114.061 77.8808V77.8908ZM107.521 78.2708C107.341 78.1108 107.071 78.0208 106.791 78.0208C106.611 78.0208 106.451 78.0608 106.321 78.1308L103.771 79.6108C103.631 79.6908 103.541 79.8108 103.531 79.9408C103.521 80.0908 103.591 80.2408 103.741 80.3708L106.121 82.4008C106.301 82.5608 106.581 82.6508 106.851 82.6508C107.031 82.6508 107.181 82.6108 107.311 82.5408L109.861 81.0608C110.001 80.9808 110.091 80.8608 110.101 80.7208C110.111 80.5708 110.041 80.4208 109.891 80.2908L107.511 78.2608L107.521 78.2708ZM98.8011 81.7608C98.9811 81.7608 99.1411 81.7208 99.2711 81.6508L101.821 80.1708C101.961 80.0908 102.051 79.9708 102.061 79.8408C102.071 79.6908 102.001 79.5408 101.851 79.4208L99.4711 77.3908C99.2911 77.2308 99.0111 77.1408 98.7411 77.1408C98.5611 77.1408 98.4111 77.1808 98.2811 77.2508L95.7311 78.7308C95.5911 78.8108 95.5011 78.9308 95.4911 79.0708C95.4811 79.2208 95.5511 79.3708 95.7011 79.5008L98.0811 81.5308C98.2611 81.6808 98.5311 81.7708 98.8011 81.7708V81.7608ZM99.1911 83.0908C99.0111 82.9308 98.7311 82.8408 98.4611 82.8408C98.2811 82.8408 98.1211 82.8808 98.0011 82.9508L95.4511 84.4308C95.3011 84.5108 95.2211 84.6308 95.2111 84.7708C95.2011 84.9208 95.2711 85.0708 95.4211 85.2008L97.8011 87.2308C97.9811 87.3908 98.2511 87.4808 98.5211 87.4808C98.7011 87.4808 98.8611 87.4408 98.9911 87.3708L101.541 85.8908C101.681 85.8108 101.771 85.6908 101.781 85.5608C101.791 85.4108 101.721 85.2608 101.571 85.1308L99.1911 83.1008V83.0908ZM81.1111 93.5708C80.9311 93.4108 80.6511 93.3208 80.3811 93.3208C80.2011 93.3208 80.0411 93.3608 79.9211 93.4308L77.3711 94.9108C77.2311 94.9908 77.1411 95.1108 77.1311 95.2508C77.1211 95.4008 77.1911 95.5508 77.3411 95.6808L79.7211 97.7108C79.9011 97.8708 80.1711 97.9608 80.4511 97.9608C80.6311 97.9608 80.7911 97.9208 80.9211 97.8508L83.4711 96.3708C83.6111 96.2908 83.7011 96.1708 83.7111 96.0408C83.7211 95.8908 83.6511 95.7408 83.5011 95.6108L81.1211 93.5808L81.1111 93.5708ZM74.1311 62.0908C73.9511 62.0908 73.7911 62.1308 73.6611 62.2008L71.1111 63.6808C70.9611 63.7708 70.8811 63.8908 70.8611 64.0208C70.8511 64.1708 70.9211 64.3208 71.0711 64.4408L73.4511 66.4708C73.6311 66.6308 73.9011 66.7208 74.1711 66.7208C74.3511 66.7208 74.5111 66.6808 74.6411 66.6108L77.1911 65.1308C77.3311 65.0508 77.4211 64.9308 77.4311 64.8008C77.4411 64.6508 77.3711 64.5008 77.2211 64.3708L74.8411 62.3408C74.6611 62.1908 74.3911 62.0908 74.1211 62.0908H74.1311ZM83.1711 57.5108C82.9911 57.3608 82.7211 57.2708 82.4611 57.2708C82.2811 57.2708 82.1211 57.3108 81.9911 57.3808L79.4411 58.8608C79.3011 58.9408 79.2111 59.0608 79.2011 59.1908C79.1911 59.3408 79.2611 59.4908 79.4111 59.6108L81.7911 61.6408C81.9711 61.8008 82.2511 61.8908 82.5211 61.8908C82.7011 61.8908 82.8511 61.8508 82.9811 61.7808L85.5311 60.3008C85.6711 60.2208 85.7611 60.1008 85.7711 59.9608C85.7811 59.8108 85.7111 59.6608 85.5611 59.5308L83.1811 57.5008L83.1711 57.5108ZM68.5311 65.3308C68.3511 65.3308 68.1911 65.3708 68.0611 65.4508L65.5111 66.9308C65.3711 67.0108 65.2811 67.1308 65.2711 67.2608C65.2611 67.4108 65.3311 67.5608 65.4811 67.6808L67.8611 69.7108C68.0411 69.8708 68.3111 69.9608 68.5911 69.9608C68.7711 69.9608 68.9211 69.9208 69.0511 69.8508L71.6011 68.3708C71.7511 68.2908 71.8311 68.1708 71.8411 68.0308C71.8511 67.8808 71.7811 67.7308 71.6311 67.6008L69.2511 65.5708C69.0711 65.4208 68.8011 65.3208 68.5411 65.3208L68.5311 65.3308ZM78.2911 59.6708C78.1111 59.6708 77.9511 59.7108 77.8211 59.7808L75.2711 61.2608C75.1211 61.3408 75.0411 61.4708 75.0311 61.6008C75.0211 61.7508 75.0911 61.9008 75.2411 62.0208L77.6211 64.0508C77.8011 64.2108 78.0711 64.3008 78.3511 64.3008C78.5311 64.3008 78.6911 64.2608 78.8211 64.1908L81.3711 62.7108C81.5111 62.6308 81.6011 62.5108 81.6111 62.3808C81.6211 62.2308 81.5511 62.0808 81.4011 61.9508L79.0211 59.9208C78.8411 59.7708 78.5711 59.6708 78.3011 59.6708H78.2911ZM64.3711 67.7408C64.1911 67.7408 64.0311 67.7808 63.9011 67.8508L61.3511 69.3308C61.2111 69.4108 61.1211 69.5308 61.1111 69.6608C61.1011 69.8108 61.1711 69.9608 61.3211 70.0808L63.7011 72.1108C63.8811 72.2708 64.1611 72.3608 64.4311 72.3608C64.6111 72.3608 64.7611 72.3208 64.8911 72.2508L67.4411 70.7708C67.5811 70.6908 67.6711 70.5708 67.6811 70.4308C67.6911 70.2808 67.6211 70.1308 67.4711 70.0008L65.0911 67.9708C64.9111 67.8208 64.6411 67.7308 64.3811 67.7308L64.3711 67.7408ZM56.0411 72.5608C55.8611 72.5608 55.7011 72.6008 55.5711 72.6708L53.0211 74.1508C52.8711 74.2308 52.7911 74.3608 52.7811 74.4908C52.7711 74.6408 52.8411 74.7908 52.9911 74.9108L55.3711 76.9408C55.5511 77.1008 55.8211 77.1908 56.1011 77.1908C56.2811 77.1908 56.4411 77.1508 56.5711 77.0808L59.1211 75.6008C59.2611 75.5208 59.3511 75.4008 59.3611 75.2708C59.3711 75.1208 59.3011 74.9708 59.1511 74.8408L56.7711 72.8108C56.5911 72.6608 56.3211 72.5608 56.0511 72.5608H56.0411ZM60.2111 70.1508C60.0311 70.1508 59.8711 70.1908 59.7411 70.2708L57.1911 71.7508C57.0411 71.8308 56.9611 71.9608 56.9511 72.0908C56.9411 72.2408 57.0111 72.3908 57.1611 72.5108L59.5411 74.5408C59.7211 74.7008 59.9911 74.7908 60.2711 74.7908C60.4511 74.7908 60.6111 74.7508 60.7411 74.6808L63.2911 73.2008C63.4311 73.1208 63.5211 73.0008 63.5311 72.8608C63.5411 72.7108 63.4711 72.5608 63.3211 72.4308L60.9411 70.4008C60.7611 70.2508 60.4911 70.1608 60.2211 70.1608L60.2111 70.1508ZM99.1011 76.0408C99.2811 76.0408 99.4411 76.0008 99.5711 75.9308L102.121 74.4508C102.271 74.3708 102.351 74.2508 102.361 74.1108C102.371 73.9608 102.301 73.8108 102.151 73.6908L99.7711 71.6608C99.5911 71.5008 99.3211 71.4108 99.0511 71.4108C98.8711 71.4108 98.7111 71.4508 98.5811 71.5208L96.0311 73.0008C95.8911 73.0808 95.8011 73.2008 95.7911 73.3308C95.7811 73.4808 95.8511 73.6308 96.0111 73.7608L98.3911 75.7908C98.5711 75.9408 98.8411 76.0408 99.1011 76.0408ZM94.9311 78.4508C95.1111 78.4508 95.2711 78.4108 95.4011 78.3408L97.9511 76.8608C98.0911 76.7808 98.1811 76.6608 98.1911 76.5308C98.2011 76.3808 98.1311 76.2308 97.9811 76.1108L95.6011 74.0808C95.4111 73.9208 95.1411 73.8308 94.8811 73.8308C94.7011 73.8308 94.5411 73.8708 94.4211 73.9408L91.8711 75.4208C91.7311 75.5008 91.6411 75.6208 91.6311 75.7608C91.6211 75.9108 91.6911 76.0608 91.8411 76.1908L94.2211 78.2208C94.4011 78.3708 94.6711 78.4608 94.9311 78.4608V78.4508ZM90.7711 80.8608C90.9511 80.8608 91.1111 80.8208 91.2411 80.7408L93.7911 79.2608C93.9311 79.1808 94.0211 79.0608 94.0311 78.9308C94.0411 78.7808 93.9711 78.6308 93.8211 78.5108L91.4411 76.4808C91.2611 76.3208 90.9811 76.2308 90.7211 76.2308C90.5411 76.2308 90.3811 76.2708 90.2611 76.3408L87.7111 77.8208C87.5611 77.9008 87.4811 78.0208 87.4611 78.1608C87.4511 78.3108 87.5211 78.4608 87.6711 78.5908L90.0511 80.6208C90.2311 80.7708 90.5011 80.8708 90.7611 80.8708L90.7711 80.8608ZM90.9211 64.1108C90.7411 63.9508 90.4711 63.8608 90.2011 63.8608C90.0211 63.8608 89.8611 63.9008 89.7311 63.9708L87.1811 65.4508C87.0411 65.5308 86.9511 65.6508 86.9411 65.7808C86.9311 65.9308 87.0011 66.0808 87.1511 66.2108L89.5311 68.2408C89.7111 68.3908 89.9811 68.4908 90.2511 68.4908C90.4311 68.4908 90.5911 68.4508 90.7111 68.3808L93.2611 66.9008C93.4111 66.8208 93.4911 66.7008 93.5011 66.5608C93.5111 66.4108 93.4411 66.2608 93.2911 66.1408L90.9111 64.1108H90.9211ZM87.0411 60.8008C86.8611 60.6508 86.5911 60.5608 86.3311 60.5608C86.1511 60.5608 85.9911 60.6008 85.8611 60.6708L83.3111 62.1508C83.1711 62.2308 83.0811 62.3508 83.0711 62.4808C83.0611 62.6308 83.1311 62.7808 83.2811 62.9008L85.6611 64.9308C85.8411 65.0908 86.1211 65.1808 86.3811 65.1808C86.5611 65.1808 86.7211 65.1408 86.8411 65.0708L89.3911 63.5908C89.5311 63.5108 89.6211 63.3908 89.6311 63.2508C89.6411 63.1008 89.5711 62.9508 89.4211 62.8208L87.0411 60.7908V60.8008ZM95.8911 68.3408C95.7111 68.1908 95.4411 68.1008 95.1811 68.1008C95.0011 68.1008 94.8411 68.1408 94.7111 68.2108L92.1611 69.6908C92.0211 69.7708 91.9311 69.8908 91.9211 70.0208C91.9111 70.1708 91.9811 70.3208 92.1311 70.4408L94.5111 72.4708C94.6911 72.6308 94.9711 72.7208 95.2411 72.7208C95.4211 72.7208 95.5711 72.6808 95.7011 72.6108L98.2511 71.1308C98.3911 71.0508 98.4811 70.9308 98.4911 70.7908C98.5011 70.6408 98.4311 70.4908 98.2811 70.3608L95.9011 68.3308L95.8911 68.3408ZM80.7111 92.2208C80.8911 92.2208 81.0511 92.1808 81.1811 92.1008L83.7311 90.6208C83.8811 90.5408 83.9611 90.4208 83.9711 90.2808C83.9811 90.1308 83.9111 89.9808 83.7611 89.8608L81.3811 87.8308C81.2011 87.6708 80.9311 87.5808 80.6511 87.5808C80.4711 87.5808 80.3111 87.6208 80.1811 87.6908L77.6311 89.1708C77.4911 89.2508 77.4011 89.3708 77.3911 89.5108C77.3811 89.6608 77.4511 89.8108 77.6011 89.9408L79.9811 91.9708C80.1611 92.1208 80.4311 92.2108 80.6911 92.2108L80.7111 92.2208ZM94.6311 84.1508C94.8111 84.1508 94.9711 84.1108 95.1011 84.0308L97.6511 82.5508C97.7911 82.4708 97.8811 82.3508 97.8911 82.2208C97.9011 82.0708 97.8311 81.9208 97.6811 81.8008L95.3011 79.7708C95.1211 79.6108 94.8411 79.5208 94.5711 79.5208C94.3911 79.5208 94.2411 79.5608 94.1111 79.6308L91.5611 81.1108C91.4111 81.1908 91.3311 81.3108 91.3211 81.4508C91.3111 81.6008 91.3811 81.7508 91.5311 81.8808L93.9111 83.9108C94.0911 84.0608 94.3611 84.1608 94.6211 84.1608L94.6311 84.1508ZM89.0311 87.4008C89.2111 87.4008 89.3711 87.3608 89.5011 87.2908L92.0511 85.8108C92.2011 85.7208 92.2811 85.6008 92.3011 85.4708C92.3111 85.3208 92.2411 85.1708 92.0911 85.0508L89.7111 83.0208C89.5311 82.8608 89.2611 82.7708 88.9911 82.7708C88.8111 82.7708 88.6511 82.8108 88.5211 82.8808L85.9711 84.3608C85.8311 84.4408 85.7411 84.5608 85.7311 84.6908C85.7211 84.8408 85.7911 84.9908 85.9411 85.1208L88.3211 87.1508C88.5011 87.3008 88.7711 87.4008 89.0411 87.4008H89.0311ZM84.8711 89.8108C85.0511 89.8108 85.2111 89.7708 85.3311 89.7008L87.8811 88.2208C88.0311 88.1408 88.1111 88.0108 88.1211 87.8808C88.1311 87.7308 88.0611 87.5808 87.9111 87.4608L85.5311 85.4308C85.3511 85.2708 85.0811 85.1808 84.8011 85.1808C84.6211 85.1808 84.4611 85.2208 84.3311 85.2908L81.7811 86.7708C81.6411 86.8508 81.5511 86.9708 81.5411 87.1008C81.5311 87.2508 81.6011 87.4008 81.7511 87.5308L84.1311 89.5608C84.3111 89.7108 84.5811 89.8108 84.8511 89.8108H84.8711ZM76.5411 94.6308C76.7211 94.6308 76.8811 94.5908 77.0111 94.5208L79.5611 93.0408C79.7011 92.9608 79.7911 92.8408 79.8011 92.7108C79.8111 92.5608 79.7411 92.4108 79.5911 92.2908L77.2111 90.2608C77.0311 90.1008 76.7511 90.0108 76.4811 90.0108C76.3011 90.0108 76.1511 90.0508 76.0211 90.1208L73.4711 91.6008C73.3311 91.6808 73.2411 91.8008 73.2311 91.9408C73.2211 92.0908 73.2911 92.2408 73.4411 92.3708L75.8211 94.4008C76.0011 94.5508 76.2711 94.6408 76.5311 94.6408L76.5411 94.6308ZM85.1511 84.1008C85.3311 84.1008 85.4911 84.0608 85.6111 83.9908L88.1611 82.5108C88.3111 82.4208 88.3911 82.3008 88.4111 82.1708C88.4211 82.0208 88.3511 81.8708 88.2011 81.7508L85.8211 79.7208C85.6411 79.5608 85.3711 79.4708 85.1011 79.4708C84.9211 79.4708 84.7611 79.5108 84.6311 79.5908L82.0811 81.0708C81.9411 81.1508 81.8511 81.2708 81.8411 81.4008C81.8311 81.5508 81.9011 81.7008 82.0511 81.8308L84.4311 83.8608C84.6111 84.0108 84.8811 84.1108 85.1511 84.1108V84.1008Z" fill="#B1DBE0"/>
<path d="M67.5505 111.88C67.5505 112.3 67.2605 112.47 66.8905 112.26C66.5305 112.05 66.2305 111.54 66.2305 111.12C66.2305 110.7 66.5205 110.53 66.8905 110.74C67.2505 110.95 67.5505 111.46 67.5505 111.88Z" fill="#C2C4C4"/>
<path d="M89.57 99.1694C89.57 99.5894 89.28 99.7595 88.91 99.5495C88.55 99.3395 88.25 98.8295 88.25 98.4095C88.25 97.9895 88.54 97.8195 88.91 98.0295C89.28 98.2395 89.57 98.7494 89.57 99.1694Z" fill="#C2C4C4"/>
</g>
<path d="M80.0859 145.979H78.6641V151.541H77.0078V146.26H75.6016V159.26H77.0078V152.76H78.6641V159.979H80.0859V145.979ZM67.8828 155.354L68.0547 156.604C69.8594 156.604 72.7891 156.541 74.9922 156.119L74.9141 155.025C74.4922 155.08 74.0391 155.127 73.5703 155.174V148.9H74.6797V147.682H68.1797V148.9H69.2891V155.346C68.7734 155.354 68.2969 155.354 67.8828 155.354ZM70.6484 155.322V148.9H72.2109V155.26C71.6875 155.291 71.1641 155.307 70.6484 155.322ZM83.5241 146.619H82.0553V152.65H83.1491C85.3912 152.666 87.3522 152.541 89.5866 152.119L89.3834 150.916C87.3834 151.291 85.5397 151.408 83.5241 151.416V146.619ZM83.7428 154.963H91.4147V156.15H83.7741V159.807H93.3522V158.604H85.2428V157.291H92.8991V153.791H83.7428V154.963ZM87.5709 149.4H91.4147V153.182H92.8991V145.979H91.4147V148.197H87.5709V149.4Z" fill="#464555"/>
<defs>
<linearGradient id="paint0_linear_1422_21255" x1="93.0017" y1="96.4015" x2="93.9917" y2="96.4015" gradientUnits="userSpaceOnUse">
<stop stop-color="#27262A"/>
<stop offset="0.6" stop-color="#2F2E33"/>
<stop offset="1" stop-color="#37373D"/>
</linearGradient>
<linearGradient id="paint1_linear_1422_21255" x1="90.4297" y1="70.1509" x2="93.2197" y2="70.1509" gradientUnits="userSpaceOnUse">
<stop stop-color="#27262A"/>
<stop offset="0.6" stop-color="#2F2E33"/>
<stop offset="1" stop-color="#37373D"/>
</linearGradient>
<linearGradient id="paint2_linear_1422_21255" x1="89.8203" y1="98.2413" x2="90.8103" y2="98.2413" gradientUnits="userSpaceOnUse">
<stop stop-color="#27262A"/>
<stop offset="0.6" stop-color="#2F2E33"/>
<stop offset="1" stop-color="#37373D"/>
</linearGradient>
<linearGradient id="paint3_linear_1422_21255" x1="71.0703" y1="109.071" x2="72.0603" y2="109.071" gradientUnits="userSpaceOnUse">
<stop stop-color="#27262A"/>
<stop offset="0.6" stop-color="#2F2E33"/>
<stop offset="1" stop-color="#37373D"/>
</linearGradient>
<linearGradient id="paint4_linear_1422_21255" x1="68.4883" y1="82.8211" x2="71.2783" y2="82.8211" gradientUnits="userSpaceOnUse">
<stop stop-color="#27262A"/>
<stop offset="0.6" stop-color="#2F2E33"/>
<stop offset="1" stop-color="#37373D"/>
</linearGradient>
<linearGradient id="paint5_linear_1422_21255" x1="67.8806" y1="110.911" x2="68.8706" y2="110.911" gradientUnits="userSpaceOnUse">
<stop stop-color="#27262A"/>
<stop offset="0.6" stop-color="#2F2E33"/>
<stop offset="1" stop-color="#37373D"/>
</linearGradient>
<clipPath id="clip0_1422_21255">
<rect width="73.05" height="70.65" fill="white" transform="translate(45 49)"/>
</clipPath>
</defs>
</svg>
