<svg width="153" height="176" viewBox="0 0 153 176" fill="none" xmlns="http://www.w3.org/2000/svg">
<rect width="153" height="176" rx="8" fill="#FFEDE1"/>
<rect x="40" y="46" width="78" height="65" rx="8" fill="#A23E02"/>
<rect x="43" y="49" width="72" height="59" rx="8" fill="#F75E00"/>
<circle cx="49" cy="56" r="2" fill="#FFEDA7"/>
<circle cx="49" cy="100" r="2" fill="#FFEDA7"/>
<circle cx="109" cy="56" r="2" fill="#FFEDA7"/>
<circle cx="109" cy="100" r="2" fill="#FFEDA7"/>
<rect x="62" y="74" width="34" height="22" rx="4" fill="#A23E02"/>
<rect x="65" y="76" width="28" height="18" rx="3" fill="#010101"/>
<rect x="69" y="79" width="20" height="12" rx="2" fill="#687063"/>
<path d="M68.125 146.344H66.6406V156.516H68.125V146.344ZM56.7969 150.75C56.8047 152.805 58.4141 154.234 60.5312 154.234C62.6406 154.234 64.25 152.805 64.25 150.75C64.25 148.727 62.6406 147.289 60.5312 147.281C58.4141 147.289 56.8047 148.727 56.7969 150.75ZM58.25 150.75C58.2422 149.461 59.2266 148.578 60.5312 148.578C61.8125 148.578 62.7969 149.461 62.7969 150.75C62.7969 152.07 61.8125 152.938 60.5312 152.938C59.2266 152.938 58.2422 152.07 58.25 150.75ZM58.9688 160.031H68.5469V158.828H60.4688V155.484H58.9688V160.031ZM81.3756 146.328H79.9069V151.438H76.8131V147.406H75.36V150.984H71.7506V147.406H70.2506V156.891H76.8131V152.656H79.9069V160.359H81.3756V146.328ZM71.7506 155.672V152.156H75.36V155.672H71.7506ZM94.5637 146.328H93.095V151.5H90.3137V152.719H93.095V160.359H94.5637V146.328ZM83.5325 157.047H84.6262C87.22 157.039 88.9778 156.953 91.0169 156.625L90.8606 155.422C89.0012 155.742 87.3762 155.812 85.0325 155.812V152.688H89.4856V151.5H85.0325V148.781H90.0794V147.578H83.5325V157.047Z" fill="#464555"/>
</svg>
