<svg width="390" height="844" viewBox="0 0 390 844" fill="none" xmlns="http://www.w3.org/2000/svg">
<g clip-path="url(#clip0_1442_16751)">
<rect width="390" height="844" rx="20" fill="white"/>
<path d="M52.1963 19.8145C49.5815 19.7979 47.8799 21.5908 47.8799 23.8818C47.8799 26.1812 49.6064 27.833 51.7646 27.833C53.0596 27.833 54.1885 27.2188 54.8359 26.2061H54.9854C54.9688 28.9536 53.8813 30.564 52.0303 30.5723C50.8184 30.564 50.0381 29.8584 49.7891 28.8457H47.9795C48.27 30.7964 49.814 32.166 52.0303 32.166C54.9106 32.166 56.7285 29.7754 56.7285 25.5586C56.7202 21.1592 54.4043 19.8311 52.1963 19.8145ZM49.6562 23.8486C49.6479 22.4707 50.7437 21.3418 52.1963 21.3418C53.6655 21.3418 54.7363 22.5288 54.7363 23.832C54.7363 25.1602 53.6157 26.3472 52.1631 26.3389C50.7021 26.3472 49.6646 25.2432 49.6562 23.8486ZM59.153 30.4561C59.7922 30.4478 60.3234 29.9248 60.3317 29.2773C60.3234 28.6299 59.7922 28.0986 59.153 28.0986C58.5055 28.0986 57.966 28.6299 57.9743 29.2773C57.966 29.9248 58.5055 30.4478 59.153 30.4561ZM57.9743 22.7197C57.966 23.3672 58.5055 23.8901 59.153 23.8984C59.7922 23.8901 60.3234 23.3672 60.3317 22.7197C60.3234 22.0723 59.7922 21.541 59.153 21.541C58.5055 21.541 57.966 22.0723 57.9743 22.7197ZM61.5111 29.6592H67.3548V32H69.0814V29.6592H70.725V28.1152H69.0814V19.9805H66.8236L61.5111 28.1816V29.6592ZM63.4369 28.1152V28.0156L67.222 22.1553H67.3548V28.1152H63.4369ZM76.2871 19.9805H74.4942L71.5059 21.9395V23.6826L74.378 21.8066H74.4444V32H76.2871V19.9805Z" fill="black"/>
<rect x="306.352" y="19" width="3.2" height="12" rx="1" fill="black"/>
<rect x="301.051" y="21.4004" width="3.2" height="9.6" rx="1" fill="black"/>
<rect x="295.75" y="24" width="3.2" height="7" rx="1" fill="black"/>
<rect x="290.449" y="26.4004" width="3.2" height="4.6" rx="1" fill="black"/>
<path d="M324.012 27.1328C324.715 27.1328 325.399 27.3177 326.001 27.6701L326.245 27.8129C326.43 27.9212 326.462 28.1746 326.311 28.3259L324.227 30.4036C324.099 30.5312 323.892 30.5312 323.764 30.4036L321.694 28.3392C321.543 28.1886 321.574 27.9365 321.758 27.8274L321.999 27.684C322.607 27.3226 323.299 27.1328 324.012 27.1328Z" fill="black"/>
<path d="M324.01 23.3164C325.76 23.3164 327.44 23.8969 328.808 24.972L329.002 25.1239C329.156 25.245 329.17 25.4733 329.031 25.6117L327.787 26.8521C327.672 26.9668 327.49 26.98 327.359 26.8831L327.208 26.7704C326.283 26.0833 325.169 25.7148 324.01 25.7148C322.843 25.7148 321.722 26.0879 320.795 26.7828L320.643 26.8966C320.512 26.9943 320.33 26.9814 320.214 26.8664L318.971 25.6264C318.832 25.4883 318.846 25.2606 318.999 25.1393L319.191 24.9872C320.563 23.9026 322.251 23.3164 324.01 23.3164Z" fill="black"/>
<path d="M324.01 19.5C326.787 19.5 329.443 20.4796 331.545 22.2752L331.725 22.4285C331.87 22.5524 331.878 22.7731 331.743 22.9078L330.503 24.1441C330.383 24.2639 330.191 24.2723 330.061 24.1635L329.907 24.0351C328.252 22.6512 326.178 21.8984 324.01 21.8984C321.835 21.8984 319.754 22.6564 318.096 24.049L317.943 24.178C317.812 24.2873 317.62 24.2791 317.5 24.1591L316.26 22.9229C316.125 22.7885 316.134 22.5681 316.278 22.4441L316.457 22.2908C318.562 20.4855 321.225 19.5 324.01 19.5Z" fill="black"/>
<rect x="340" y="20.5" width="21" height="9" rx="1.33" fill="black"/>
<path opacity="0.4" fill-rule="evenodd" clip-rule="evenodd" d="M343.6 19.5H357.4C358.397 19.5 359.084 19.5008 359.617 19.5444C360.139 19.587 360.425 19.6655 360.635 19.7725C361.105 20.0122 361.488 20.3946 361.728 20.865C361.834 21.0749 361.913 21.3608 361.956 21.8826C361.999 22.4161 362 23.1034 362 24.1V25.9C362 26.8966 361.999 27.5839 361.956 28.1174C361.913 28.6392 361.834 28.9251 361.728 29.135C361.488 29.6054 361.105 29.9878 360.635 30.2275C360.425 30.3345 360.139 30.413 359.617 30.4556C359.084 30.4992 358.397 30.5 357.4 30.5H343.6C342.603 30.5 341.916 30.4992 341.383 30.4556C340.861 30.413 340.575 30.3345 340.365 30.2275C339.895 29.9878 339.512 29.6054 339.272 29.135C339.166 28.9251 339.087 28.6392 339.044 28.1174C339.001 27.5839 339 26.8966 339 25.9V24.1C339 23.1034 339.001 22.4161 339.044 21.8826C339.087 21.3608 339.166 21.0749 339.272 20.865C339.512 20.3946 339.895 20.0122 340.365 19.7725C340.575 19.6655 340.861 19.587 341.383 19.5444C341.916 19.5008 342.603 19.5 343.6 19.5ZM338 24.1C338 22.1398 338 21.1597 338.381 20.411C338.717 19.7525 339.252 19.217 339.911 18.8815C340.66 18.5 341.64 18.5 343.6 18.5H357.4C359.36 18.5 360.34 18.5 361.089 18.8815C361.748 19.217 362.283 19.7525 362.619 20.411C363 21.1597 363 22.1398 363 24.1V25.9C363 27.8602 363 28.8403 362.619 29.589C362.283 30.2475 361.748 30.783 361.089 31.1185C360.34 31.5 359.36 31.5 357.4 31.5H343.6C341.64 31.5 340.66 31.5 339.911 31.1185C339.252 30.783 338.717 30.2475 338.381 29.589C338 28.8403 338 27.8602 338 25.9V24.1ZM364 27C364.828 26.8 365.5 26.1046 365.5 25C365.5 23.8954 364.828 23.2 364 23L364 25L364 27Z" fill="black"/>
<path d="M185.797 806.773H178.863V804.098H184.332V802.066H173.902V800.074H183.922V794.176H171.383V796.168H181.461V798.121H171.402V804.098H176.383V806.773H169.527V808.824H185.797V806.773ZM200.231 794.664H187.692V796.656H197.751V796.793C197.741 799.156 197.741 801.695 197.067 805.113L199.587 805.328C200.221 801.646 200.221 799.234 200.231 796.793V794.664ZM186.013 808.473H202.223V806.422H186.013V808.473ZM217.38 793.043H214.88V805.816H217.38V793.043ZM202.771 798.648C202.771 801.295 204.9 803.16 207.634 803.16C210.359 803.16 212.488 801.295 212.498 798.648C212.488 796.041 210.359 794.166 207.634 794.176C204.9 794.166 202.771 796.041 202.771 798.648ZM205.213 798.648C205.193 797.203 206.238 796.334 207.634 796.344C208.982 796.334 210.027 797.203 210.037 798.648C210.027 800.133 208.982 800.992 207.634 800.992C206.238 800.992 205.193 800.133 205.213 798.648ZM205.466 810.484H217.849V808.492H207.986V804.527H205.466V810.484Z" fill="white"/>
<path d="M26.9987 119.139C27.6903 119.139 28.3558 119.403 28.8586 119.878C29.3614 120.353 29.6635 121.002 29.7029 121.693L29.707 121.847L29.7079 128.474L29.7745 128.531C30.5511 129.224 31.0399 130.182 31.1445 131.217L31.1604 131.427L31.1654 131.639C31.1655 132.325 30.996 133.001 30.6719 133.606C30.3478 134.212 29.8792 134.727 29.3078 135.108C28.7363 135.488 28.0797 135.722 27.3964 135.787C26.713 135.853 26.024 135.748 25.3907 135.483C24.7574 135.218 24.1993 134.801 23.7661 134.268C23.333 133.736 23.0381 133.104 22.9078 132.43C22.7775 131.756 22.8157 131.061 23.0191 130.405C23.2225 129.749 23.5848 129.154 24.0737 128.672L24.2237 128.53L24.2895 128.474L24.2904 121.847C24.2902 121.181 24.5352 120.539 24.9785 120.043C25.4218 119.546 26.0324 119.23 26.6937 119.155L26.8454 119.143L26.9987 119.139ZM26.9987 120.389C26.6326 120.389 26.2799 120.526 26.0106 120.775C25.7414 121.023 25.5753 121.363 25.5454 121.728L25.5404 121.847V129.092L25.2829 129.28C24.7909 129.637 24.4231 130.14 24.2311 130.717C24.039 131.295 24.0322 131.917 24.2117 132.499C24.3912 133.08 24.748 133.591 25.2321 133.959C25.7162 134.328 26.3033 134.535 26.9114 134.554C27.5195 134.572 28.1181 134.399 28.6233 134.06C29.1285 133.722 29.5151 133.233 29.729 132.664C29.9429 132.094 29.9733 131.472 29.8161 130.884C29.6588 130.297 29.3218 129.773 28.852 129.386L28.7145 129.28L28.4587 129.093L28.457 121.847C28.457 121.46 28.3034 121.089 28.0299 120.816C27.7564 120.542 27.3855 120.389 26.9987 120.389ZM26.9987 124.139C27.1645 124.139 27.3234 124.205 27.4406 124.322C27.5578 124.439 27.6237 124.598 27.6237 124.764V129.651C28.0987 129.801 28.5046 130.115 28.7679 130.538C29.0311 130.96 29.1343 131.463 29.0587 131.956C28.9832 132.448 28.7339 132.897 28.3561 133.221C27.9782 133.545 27.4967 133.724 26.9987 133.724C26.5007 133.724 26.0192 133.545 25.6413 133.221C25.2635 132.897 25.0142 132.448 24.9387 131.956C24.8631 131.463 24.9663 130.96 25.2295 130.538C25.4928 130.115 25.8987 129.801 26.3737 129.651V124.764C26.3737 124.598 26.4395 124.439 26.5568 124.322C26.674 124.205 26.8329 124.139 26.9987 124.139Z" fill="black"/>
<path d="M52.5664 127.406H47.5625V126.135C49.8662 126.012 51.3154 125.137 51.3223 123.701C51.3154 122.204 49.6406 121.302 47.0293 121.295C44.3906 121.302 42.7227 122.204 42.7227 123.701C42.7227 125.137 44.165 126.012 46.4961 126.135V127.406H41.4922V128.295H52.5664V127.406ZM42.9277 132.82H51.3359V131.918H44.0078V129.279H42.9277V132.82ZM43.8301 123.701C43.8232 122.771 45.0674 122.17 47.0293 122.17C48.9775 122.17 50.2217 122.771 50.2285 123.701C50.2217 124.692 48.9775 125.26 47.0293 125.26C45.0674 125.26 43.8232 124.692 43.8301 123.701ZM62.8482 126.627H55.5337V122.799H62.7252V121.924H54.4537V127.502H58.0357V130.646H53.0318V131.549H64.1607V130.646H59.0884V127.502H62.8482V126.627Z" fill="#232323"/>
<path d="M73.3477 132.109C75.3232 132.109 76.7998 130.906 76.793 129.279C76.7998 128.021 76.0205 127.099 74.7285 126.9V126.832C75.7676 126.538 76.4238 125.718 76.4102 124.59C76.4238 123.175 75.2754 121.938 73.3887 121.938C71.6318 121.938 70.1689 122.99 70.1074 124.562H71.2969C71.3516 123.592 72.3154 123.011 73.375 123.004C74.5029 123.011 75.2275 123.667 75.2207 124.658C75.2275 125.677 74.3867 126.354 73.1836 126.354H72.377V127.434H73.1836C74.7217 127.44 75.583 128.199 75.5898 129.279C75.583 130.312 74.6396 131.016 73.334 131.016C72.1514 131.016 71.2148 130.428 71.1465 129.484H69.9023C69.9639 131.057 71.3789 132.109 73.3477 132.109ZM80.0748 126.449C81.3052 126.449 82.3033 125.458 82.3033 124.234C82.3033 122.99 81.3052 121.992 80.0748 121.992C78.8375 121.992 77.8462 122.99 77.8462 124.234C77.8462 125.458 78.8375 126.449 80.0748 126.449ZM78.817 124.234C78.8238 123.53 79.3843 122.983 80.0748 122.977C80.7652 122.983 81.3121 123.53 81.3189 124.234C81.3121 124.918 80.7652 125.479 80.0748 125.479C79.3843 125.479 78.8238 124.918 78.817 124.234Z" fill="#232323"/>
<path d="M112.25 121.473C112.25 121.473 108.25 126.44 108.25 129.954C108.25 132.727 109.796 134.473 112.25 134.473C114.704 134.473 116.25 132.727 116.25 129.954C116.25 126.44 112.25 121.473 112.25 121.473ZM112.694 132.841V132.088C113.136 132.087 113.56 131.889 113.872 131.536C114.185 131.183 114.361 130.704 114.361 130.205H115.028C115.027 130.904 114.781 131.574 114.344 132.068C113.906 132.562 113.313 132.84 112.694 132.841Z" fill="#59D4FE"/>
<path d="M129.217 128.227H128.15V132.916H136.367V128.227H135.287V129.648H129.217V128.227ZM126.742 127.365H137.816V126.477H126.742V127.365ZM127.371 124.754L127.781 125.615C129.654 125.335 131.514 124.385 132.286 123.018C133.059 124.378 134.911 125.335 136.791 125.615L137.188 124.754C135.048 124.48 132.833 123.134 132.84 121.637V121.062H131.732V121.637C131.732 123.182 129.538 124.46 127.371 124.754ZM129.217 132.055V130.496H135.287V132.055H129.217ZM148.098 126.627H140.784V122.799H147.975V121.924H139.704V127.502H143.286V130.646H138.282V131.549H149.411V130.646H144.338V127.502H148.098V126.627Z" fill="#232323"/>
<path d="M154.934 129.949H159.732V131.973H160.908V129.949H162.289V128.869H160.908V122.074H159.391L154.934 128.938V129.949ZM156.26 128.869V128.787L159.609 123.633H159.732V128.869H156.26ZM166.651 121.938C164.545 121.917 163.192 123.414 163.192 125.26C163.192 127.167 164.662 128.527 166.432 128.527C167.485 128.527 168.394 128.035 168.961 127.215H169.098C169.085 129.621 168.1 131.016 166.487 131.016C165.386 131.016 164.71 130.359 164.491 129.471H163.274C163.52 131.043 164.744 132.109 166.487 132.109C168.804 132.109 170.247 130.147 170.247 126.627C170.247 122.983 168.353 121.958 166.651 121.938ZM164.395 125.246C164.381 124.022 165.359 123.018 166.651 123.018C167.957 123.018 168.907 124.084 168.907 125.219C168.907 126.381 167.902 127.447 166.61 127.447C165.318 127.447 164.388 126.47 164.395 125.246ZM172.61 128.184C173.519 128.188 174.022 127.495 174.026 126.484C174.022 125.488 173.538 124.795 172.61 124.795C171.717 124.795 171.19 125.488 171.194 126.484C171.19 127.495 171.697 128.188 172.61 128.184ZM171.888 131.973H172.679L177.542 124.902H176.751L171.888 131.973ZM171.907 126.484C171.907 125.835 172.147 125.405 172.61 125.4C173.104 125.391 173.314 125.835 173.314 126.484C173.314 127.144 173.089 127.578 172.61 127.578C172.137 127.578 171.907 127.144 171.907 126.484ZM175.511 130.381C175.501 131.387 176.004 132.075 176.927 132.07C177.83 132.075 178.333 131.387 178.333 130.381C178.333 129.375 177.84 128.687 176.927 128.682C176.024 128.687 175.501 129.375 175.511 130.381ZM176.214 130.381C176.219 129.722 176.453 129.292 176.927 129.287C177.415 129.277 177.62 129.722 177.62 130.381C177.62 131.035 177.401 131.47 176.927 131.465C176.448 131.47 176.219 131.035 176.214 130.381Z" fill="#232323"/>
<path d="M206.211 126.762V129.887H206.914V126.762H206.211ZM203.711 128.856L203.062 129.125L203.66 130.568L204.309 130.299L203.711 128.856ZM209.414 128.856L208.816 130.299L209.465 130.568L210.063 129.125L209.414 128.856ZM199.601 129.303L199.104 129.801L201.314 132.01L201.811 131.513L199.601 129.303ZM213.524 129.303L211.314 131.513L211.811 132.01L214.021 129.801L213.524 129.303ZM206.562 131.41C205.746 131.41 204.945 131.625 204.238 132.033C202.902 132.805 202.044 134.183 201.929 135.707H211.196C211.081 134.183 210.223 132.805 208.887 132.033C208.18 131.625 207.379 131.41 206.562 131.41ZM199.16 133.339L198.891 133.989L200.334 134.586L200.603 133.937L199.16 133.339ZM213.965 133.339L212.522 133.937L212.791 134.586L214.234 133.989L213.965 133.339ZM197.5 135.41V136.113H215.625V135.41H197.5Z" fill="#EB7805"/>
<path d="M207.813 121.957L207.812 124.457L205.312 124.457L205.313 121.957L204.063 121.957L206.563 118.832L209.063 121.957L207.813 121.957Z" fill="#292929"/>
<path d="M207.813 121.957L207.812 124.457L205.312 124.457L205.313 121.957L204.063 121.957L206.563 118.832L209.063 121.957L207.813 121.957Z" fill="#292929"/>
<path d="M223.562 121.377C221.724 121.384 220.397 122.491 220.404 124.07C220.397 125.656 221.724 126.75 223.562 126.75C225.381 126.75 226.7 125.656 226.707 124.07C226.7 122.491 225.381 121.384 223.562 121.377ZM221.457 124.07C221.443 123.018 222.339 122.272 223.562 122.279C224.766 122.272 225.668 123.018 225.668 124.07C225.668 125.137 224.766 125.875 223.562 125.875C222.339 125.875 221.443 125.137 221.457 124.07ZM222.25 128.623H229.086V129.881H222.277V132.916H230.59V132.055H223.33V130.688H230.152V127.762H222.25V128.623ZM229.086 127.174H230.152V120.926H229.086V127.174ZM242.731 126.34H231.67V127.174H236.661V128.309H232.997V129.115H240.256V130.168H233.024V132.943H241.678V132.123H234.09V130.934H241.309V128.309H237.713V127.174H242.731V126.34ZM232.258 124.959L232.573 125.779C234.61 125.608 236.442 124.979 237.194 123.824C237.939 124.979 239.771 125.608 241.801 125.779L242.129 124.959C239.887 124.815 237.987 124.057 237.795 122.84H241.61V121.992H237.713V120.857H236.661V121.992H232.805V122.84H236.586C236.387 124.057 234.487 124.815 232.258 124.959Z" fill="#232323"/>
<path d="M251.199 131.59C253.08 131.59 254.164 130.008 254.164 127.23C254.164 124.477 253.062 122.871 251.199 122.871C249.33 122.871 248.229 124.477 248.234 127.23C248.229 130.008 249.318 131.59 251.199 131.59ZM249.254 127.23C249.26 125.033 249.98 123.791 251.199 123.785C252.418 123.791 253.139 125.033 253.133 127.23C253.139 129.428 252.424 130.652 251.199 130.652C249.969 130.652 249.26 129.428 249.254 127.23ZM258.043 131.59C259.831 131.607 260.997 130.33 260.997 128.73C260.997 127.09 259.737 125.918 258.231 125.918C257.317 125.918 256.538 126.334 256.051 127.043H255.946C255.94 124.998 256.778 123.809 258.172 123.809C259.116 123.809 259.69 124.371 259.883 125.121H260.926C260.709 123.791 259.666 122.871 258.172 122.871C256.18 122.871 254.95 124.553 254.95 127.559C254.95 130.699 256.573 131.572 258.043 131.59ZM256.086 128.754C256.098 127.752 256.954 126.85 258.067 126.844C259.174 126.85 259.971 127.699 259.977 128.742C259.971 129.797 259.139 130.658 258.043 130.664C256.907 130.658 256.092 129.75 256.086 128.754ZM262.696 130.348C263.112 130.342 263.452 130.002 263.446 129.586C263.452 129.176 263.112 128.836 262.696 128.836C262.286 128.836 261.935 129.176 261.946 129.586C261.935 130.002 262.286 130.342 262.696 130.348ZM261.946 124.875C261.935 125.291 262.286 125.631 262.696 125.637C263.112 125.631 263.452 125.291 263.446 124.875C263.452 124.465 263.112 124.125 262.696 124.125C262.286 124.125 261.935 124.465 261.946 124.875ZM267.314 131.59C269.195 131.59 270.279 130.008 270.279 127.23C270.279 124.477 269.177 122.871 267.314 122.871C265.445 122.871 264.343 124.477 264.349 127.23C264.343 130.008 265.433 131.59 267.314 131.59ZM265.369 127.23C265.374 125.033 266.095 123.791 267.314 123.785C268.533 123.791 269.253 125.033 269.247 127.23C269.253 129.428 268.539 130.652 267.314 130.652C266.083 130.652 265.374 129.428 265.369 127.23ZM274.041 131.59C275.81 131.59 277.053 130.6 277.064 129.223C277.053 128.127 276.291 127.219 275.33 127.066V127.02C276.162 126.826 276.725 126.047 276.736 125.121C276.725 123.826 275.588 122.871 274.041 122.871C272.488 122.871 271.351 123.826 271.357 125.121C271.351 126.047 271.908 126.826 272.752 127.02V127.066C271.785 127.219 271.023 128.127 271.029 129.223C271.023 130.6 272.254 131.59 274.041 131.59ZM272.084 129.164C272.066 128.227 272.904 127.535 274.041 127.535C275.184 127.535 276.01 128.227 276.01 129.164C276.01 130.055 275.254 130.658 274.041 130.664C272.822 130.658 272.066 130.055 272.084 129.164ZM272.377 125.203C272.383 124.354 273.033 123.779 274.041 123.785C275.031 123.779 275.705 124.354 275.705 125.203C275.705 126.059 275.008 126.639 274.041 126.645C273.068 126.639 272.383 126.059 272.377 125.203Z" fill="#232323"/>
<path d="M305.586 126.762V129.887H306.289V126.762H305.586ZM303.086 128.856L302.437 129.125L303.035 130.568L303.684 130.299L303.086 128.856ZM308.789 128.856L308.191 130.299L308.84 130.568L309.438 129.125L308.789 128.856ZM298.976 129.303L298.479 129.801L300.689 132.01L301.186 131.513L298.976 129.303ZM312.899 129.303L310.689 131.513L311.186 132.01L313.396 129.801L312.899 129.303ZM305.938 131.41C305.121 131.41 304.32 131.625 303.613 132.033C302.277 132.805 301.419 134.183 301.304 135.707H310.571C310.456 134.183 309.598 132.805 308.262 132.033C307.555 131.625 306.754 131.41 305.938 131.41ZM298.535 133.339L298.266 133.989L299.709 134.586L299.978 133.937L298.535 133.339ZM313.34 133.339L311.897 133.937L312.166 134.586L313.609 133.989L313.34 133.339ZM296.875 135.41V136.113H315V135.41H296.875Z" fill="#EB7805"/>
<path d="M304.688 121.332V118.832H307.188V121.332H308.438L305.938 124.457L303.438 121.332H304.688Z" fill="#292929"/>
<path d="M322.938 121.377C321.099 121.384 319.772 122.491 319.779 124.07C319.772 125.656 321.099 126.75 322.938 126.75C324.756 126.75 326.075 125.656 326.082 124.07C326.075 122.491 324.756 121.384 322.938 121.377ZM320.832 124.07C320.818 123.018 321.714 122.272 322.938 122.279C324.141 122.272 325.043 123.018 325.043 124.07C325.043 125.137 324.141 125.875 322.938 125.875C321.714 125.875 320.818 125.137 320.832 124.07ZM321.625 128.623H328.461V129.881H321.652V132.916H329.965V132.055H322.705V130.688H329.527V127.762H321.625V128.623ZM328.461 127.174H329.527V120.926H328.461V127.174ZM342.106 126.244H337.075V125.041H340.67V121.336H332.467V125.041H336.022V126.244H331.032V127.133H342.106V126.244ZM332.372 128.979H339.631V130.059H332.399V132.943H341.053V132.096H333.465V130.865H340.684V128.145H332.372V128.979ZM333.534 124.18V122.197H339.604V124.18H333.534Z" fill="#232323"/>
<path d="M350.797 122.988H349.73L347.621 124.395V125.461L349.684 124.09H349.73V131.473H350.797V122.988ZM355.403 122.871C353.598 122.854 352.438 124.137 352.438 125.719C352.438 127.354 353.698 128.52 355.215 128.52C356.118 128.52 356.897 128.098 357.383 127.395H357.5C357.489 129.457 356.645 130.652 355.262 130.652C354.319 130.652 353.739 130.09 353.551 129.328H352.508C352.719 130.676 353.768 131.59 355.262 131.59C357.249 131.59 358.485 129.908 358.485 126.891C358.485 123.768 356.862 122.889 355.403 122.871ZM353.469 125.707C353.457 124.658 354.295 123.797 355.403 123.797C356.522 123.797 357.336 124.711 357.336 125.684C357.336 126.68 356.475 127.594 355.368 127.594C354.26 127.594 353.463 126.756 353.469 125.707ZM360.185 130.348C360.601 130.342 360.94 130.002 360.935 129.586C360.94 129.176 360.601 128.836 360.185 128.836C359.774 128.836 359.423 129.176 359.435 129.586C359.423 130.002 359.774 130.342 360.185 130.348ZM359.435 124.875C359.423 125.291 359.774 125.631 360.185 125.637C360.601 125.631 360.94 125.291 360.935 124.875C360.94 124.465 360.601 124.125 360.185 124.125C359.774 124.125 359.423 124.465 359.435 124.875ZM364.802 131.59C366.683 131.59 367.767 130.008 367.767 127.23C367.767 124.477 366.665 122.871 364.802 122.871C362.933 122.871 361.831 124.477 361.837 127.23C361.831 130.008 362.921 131.59 364.802 131.59ZM362.857 127.23C362.863 125.033 363.583 123.791 364.802 123.785C366.021 123.791 366.742 125.033 366.736 127.23C366.742 129.428 366.027 130.652 364.802 130.652C363.572 130.652 362.863 129.428 362.857 127.23ZM371.693 122.988H370.627L368.517 124.395V125.461L370.58 124.09H370.627V131.473H371.693V122.988Z" fill="#232323"/>
<mask id="path-27-inside-1_1442_16751" fill="white">
<path d="M0 771H390V844H0V771Z"/>
</mask>
<path d="M0 771H390V844H0V771Z" fill="white"/>
<g opacity="0.3">
<rect x="38.0714" y="789.071" width="14.8574" height="10.9549" stroke="#232323" stroke-width="1.14288"/>
<rect x="39.7852" y="790.566" width="3.11694" height="3.46327" fill="#232323"/>
<rect x="43.9414" y="790.566" width="3.11694" height="3.46327" fill="#232323"/>
<rect x="48.0977" y="790.566" width="3.11694" height="3.46327" fill="#232323"/>
<rect x="39.7852" y="795.068" width="3.11694" height="3.46327" fill="#232323"/>
<rect x="43.9414" y="795.068" width="3.11694" height="3.46327" fill="#232323"/>
<rect x="48.0977" y="795.068" width="3.11694" height="3.46327" fill="#232323"/>
<rect x="44.5234" y="800.207" width="1.95125" height="4.29276" fill="#232323"/>
<path d="M49.2129 823.971H40.8457V827.443H49.2129V823.971ZM39.4922 823.041H50.5664V822.18H45.5625V821.243C47.7432 821.161 48.9668 820.587 48.9668 819.527C48.9668 818.399 47.5449 817.818 45.0293 817.805C42.5068 817.818 41.0781 818.399 41.0781 819.527C41.0781 820.587 42.3086 821.161 44.4961 821.243V822.18H39.4922V823.041ZM40.0664 817.312H49.9238V816.479H45.5625V815.275H44.4961V816.479H40.0664V817.312ZM41.9121 826.609V824.805H48.1602V826.609H41.9121ZM42.2266 819.527C42.2197 818.898 43.2451 818.57 45.0293 818.557C46.8135 818.57 47.8252 818.898 47.832 819.527C47.8252 820.149 46.8135 820.498 45.0293 820.498C43.2451 820.498 42.2197 820.149 42.2266 819.527Z" fill="#232323" fill-opacity="0.7"/>
</g>
<g opacity="0.3">
<rect x="135.5" y="789.031" width="11" height="15" rx="0.5" stroke="#232323"/>
<path d="M137.5 788.969H144.5V787.469C144.5 787.193 144.276 786.969 144 786.969H138C137.724 786.969 137.5 787.193 137.5 787.469V788.969Z" stroke="#232323"/>
<rect width="8" height="2" transform="matrix(1 0 0 -1 137 802.531)" fill="#232323"/>
<rect width="8" height="2" transform="matrix(1 0 0 -1 137 799.531)" fill="#232323"/>
<rect x="0.5" y="-0.5" width="7" height="1" transform="matrix(1 0 0 -1 137 795.531)" fill="#232323"/>
<rect x="0.5" y="-0.5" width="7" height="1" transform="matrix(1 0 0 -1 137 795.531)" stroke="#232323"/>
<rect x="0.5" y="-0.5" width="7" height="1" transform="matrix(1 0 0 -1 137 795.531)" stroke="black" stroke-opacity="0.2"/>
<rect x="0.5" y="-0.5" width="7" height="1" transform="matrix(1 0 0 -1 137 792.531)" fill="#232323"/>
<rect x="0.5" y="-0.5" width="7" height="1" transform="matrix(1 0 0 -1 137 792.531)" stroke="#232323"/>
<rect x="0.5" y="-0.5" width="7" height="1" transform="matrix(1 0 0 -1 137 792.531)" stroke="black" stroke-opacity="0.2"/>
<path d="M128.068 816.453H126.988V818.695H124.281V819.584H126.988V822.742H128.068V816.453ZM117.979 821.908L118.566 822.77C120.002 822.25 121.103 821.19 121.622 819.803C122.162 821.033 123.235 821.99 124.582 822.469L125.156 821.635C123.379 821.054 122.121 819.591 122.135 817.998V816.85H121.082V817.998C121.068 819.775 119.811 821.3 117.979 821.908ZM120.193 824.219H127.002V825.436H120.221V828.443H128.52V827.582H121.273V826.256H128.068V823.357H120.193V824.219ZM139.553 816.453H138.473V828.635H139.553V816.453ZM130.243 825.695H135.985V817.492H134.932V820.705H131.309V817.492H130.243V825.695ZM131.309 824.793V821.566H134.932V824.793H131.309ZM145.446 819.064V818.354H148.249V817.479H141.523V818.354H144.366V819.064C144.359 820.787 143.074 822.366 141.249 823.002L141.81 823.863C143.259 823.33 144.401 822.236 144.927 820.855C145.481 822.134 146.602 823.132 148.017 823.617L148.564 822.756C146.745 822.182 145.453 820.705 145.446 819.064ZM143.259 828.348H151.489V827.445H144.325V824.533H143.259V828.348ZM150.04 825.381H151.107V816.467H150.04V825.381ZM162.113 816.453H161.047V825.258H162.113V820.979H163.959V820.076H162.113V816.453ZM153.185 823.098H154.129C156.685 823.098 158.134 823.016 159.843 822.688L159.707 821.799C158.08 822.127 156.692 822.202 154.252 822.195V818.408H158.599V817.506H153.185V823.098ZM154.511 828.348H162.674V827.445H155.564V824.369H154.511V828.348Z" fill="#232323"/>
</g>
<rect x="235" y="791" width="15" height="2" stroke="#232323"/>
<rect x="235" y="800.391" width="15" height="2" stroke="#232323"/>
<rect x="236.777" y="788" width="11.4444" height="17" rx="1.5" fill="white" stroke="#232323"/>
<rect x="239.445" y="791" width="6.11111" height="3" stroke="#232323"/>
<path d="M235.055 815.453H233.988V818.406H231.527V819.309H233.988V822.057H235.055V815.453ZM225.047 821.414L225.607 822.262C227.05 821.735 228.178 820.607 228.697 819.213C229.224 820.457 230.283 821.476 231.65 821.975L232.211 821.141C230.434 820.525 229.217 818.994 229.217 817.436V817.08H231.938V816.191H225.389V817.08H228.137V817.436C228.137 819.158 226.838 820.765 225.047 821.414ZM227.234 827.443H235.055V822.645H233.988V824.162H228.314V822.645H227.234V827.443ZM228.314 826.568V825.023H233.988V826.568H228.314ZM247.647 821.564H242.588V819.691H241.536V821.564H236.532V822.453H247.647V821.564ZM237.202 819.486L237.612 820.348C239.478 820.026 241.303 819.062 242.069 817.647C242.828 819.049 244.66 820.026 246.499 820.348L246.936 819.486C244.79 819.192 242.602 817.839 242.602 816.219V815.645H241.522V816.219C241.522 817.839 239.348 819.192 237.202 819.486ZM237.762 824.504H245.159V827.607H246.239V823.643H237.762V824.504ZM257.573 815.453H256.507V822.781H257.573V819.609H259.405V818.693H257.573V815.453ZM248.099 817.641H255.345V816.752H252.255V815.357H251.189V816.752H248.099V817.641ZM248.796 820.402C248.789 821.722 249.958 822.576 251.722 822.576C253.465 822.576 254.634 821.722 254.648 820.402C254.634 819.104 253.465 818.242 251.722 818.242C249.958 818.242 248.789 819.104 248.796 820.402ZM249.821 820.402C249.815 819.609 250.573 819.076 251.722 819.076C252.857 819.076 253.622 819.609 253.636 820.402C253.622 821.229 252.857 821.742 251.722 821.756C250.573 821.742 249.815 821.229 249.821 820.402ZM249.903 827.443H257.573V823.479H249.903V827.443ZM250.956 826.568V824.34H256.507V826.568H250.956Z" fill="#232323"/>
<g opacity="0.3">
<path d="M334.75 797.75H339.75V799H334.75V797.75ZM334.75 794.625H342.25V795.875H334.75V794.625ZM334.75 800.875H337.875V802.125H334.75V800.875Z" fill="black"/>
<path d="M344.125 789.625H342.25V789C342.25 788.668 342.118 788.351 341.884 788.116C341.649 787.882 341.332 787.75 341 787.75H336C335.668 787.75 335.351 787.882 335.116 788.116C334.882 788.351 334.75 788.668 334.75 789V789.625H332.875C332.543 789.625 332.226 789.757 331.991 789.991C331.757 790.226 331.625 790.543 331.625 790.875V804C331.625 804.332 331.757 804.649 331.991 804.884C332.226 805.118 332.543 805.25 332.875 805.25H344.125C344.457 805.25 344.774 805.118 345.009 804.884C345.243 804.649 345.375 804.332 345.375 804V790.875C345.375 790.543 345.243 790.226 345.009 789.991C344.774 789.757 344.457 789.625 344.125 789.625ZM336 789H341V791.5H336V789ZM344.125 804H332.875V790.875H334.75V792.75H342.25V790.875H344.125V804Z" fill="black"/>
<path d="M332.121 825.16H327.049V822.535H330.754V816.314H329.701V818.516H323.385V816.314H322.305V822.535H325.996V825.16H320.992V826.049H332.121V825.16ZM323.385 821.66V819.391H329.701V821.66H323.385ZM342.28 816.684H333.708V817.572H341.2V817.9C341.193 819.356 341.193 821.059 340.735 823.383L341.829 823.506C342.266 821.059 342.266 819.391 342.28 817.9V816.684ZM332.532 825.885H343.606V824.996H337.932V820.648H336.879V824.996H332.532V825.885ZM348.351 818.721V816.506H347.257V818.721C347.25 820.963 345.842 823.301 344.058 824.176L344.755 825.037C346.136 824.306 347.277 822.747 347.817 820.929C348.358 822.658 349.499 824.107 350.88 824.818L351.523 823.943C349.759 823.137 348.344 820.922 348.351 818.721ZM350.196 820.484H353.081V827.635H354.148V815.453H353.081V819.609H350.196V820.484Z" fill="#232323"/>
</g>
<path d="M0 772H390V770H0V772Z" fill="#E0E0E0" mask="url(#path-27-inside-1_1442_16751)"/>
<rect x="146.449" y="65.4492" width="3.25101" height="10.8367" fill="#292929"/>
<rect x="155.66" y="73.0352" width="3.25101" height="8.66935" transform="rotate(90 155.66 73.0352)" fill="#292929"/>
<rect x="180.043" y="73.0352" width="3.25101" height="11.9204" transform="rotate(90 180.043 73.0352)" fill="#292929"/>
<rect x="175.707" y="85.498" width="3.25101" height="11.3785" transform="rotate(-180 175.707 85.498)" fill="#292929"/>
<path d="M146.451 65.4507L149.157 68.1586L139.946 78.9953L137.237 76.2864L146.451 65.4507Z" fill="#292929" fill-opacity="0.5"/>
<rect x="146.449" y="76.2871" width="3.25101" height="9.21119" transform="rotate(90 146.449 76.2871)" fill="#292929"/>
<path d="M149.699 85.498L146.448 85.498L146.448 76.2869C148.244 76.2869 149.699 77.7424 149.699 79.5379L149.699 85.498Z" fill="#292929"/>
<path d="M152.41 83.8713H154.705C155.808 83.8713 156.836 83.3123 157.435 82.3864L161.473 76.145C162.072 75.2192 163.1 74.6602 164.203 74.6602H166.769" stroke="#292929" stroke-width="3.25101"/>
<path d="M191.175 75.942H192.406C192.318 73.9897 190.629 72.5563 188.237 72.5651C185.854 72.5563 184.025 73.9721 184.016 76.0475C184.025 77.7008 185.195 78.7296 187.2 79.3188L188.712 79.7585C190.26 80.1982 191.35 80.7786 191.35 82.045C191.35 83.5487 189.996 84.5512 188.114 84.56C186.435 84.5512 185.098 83.751 184.966 82.256H183.682C183.832 84.305 185.485 85.6945 188.114 85.6857C190.911 85.6945 192.573 84.1291 192.564 82.0626C192.573 79.9256 190.682 79.0814 189.082 78.6329L187.763 78.2636C186.558 77.9294 185.239 77.3226 185.247 75.9947C185.239 74.658 186.443 73.6819 188.202 73.6731C189.856 73.6819 191.043 74.5437 191.175 75.942ZM204.806 79.1078C204.815 75.1153 202.502 72.5651 199.283 72.5651C196.047 72.5651 193.743 75.1153 193.743 79.1078C193.743 83.0914 196.047 85.6505 199.283 85.6505C202.502 85.6505 204.815 83.1002 204.806 79.1078ZM194.974 79.1078C194.966 75.7133 196.812 73.7435 199.283 73.7435C201.746 73.7435 203.592 75.7221 203.592 79.1078C203.592 82.4935 201.746 84.4721 199.283 84.4721C196.803 84.4721 194.966 82.4847 194.974 79.1078ZM206.565 85.4746H213.847V84.349H207.814V72.741H206.565V85.4746ZM216.345 85.4746L217.682 81.6932H222.976L224.312 85.4746H225.631L221.006 72.741H219.652L215.026 85.4746H216.345ZM218.077 80.5852L220.285 74.3591H220.373L222.58 80.5852H218.077ZM226.758 85.4746H228.006V80.3741H230.944C231.093 80.3741 231.243 80.3653 231.383 80.3565L234.145 85.4746H235.587L232.667 80.1191C234.259 79.5915 235.068 78.2812 235.059 76.5751C235.068 74.3327 233.67 72.741 230.926 72.741H226.758V85.4746ZM228.006 79.2309V73.8666H230.873C232.878 73.8578 233.828 74.9395 233.828 76.5751C233.828 78.2108 232.878 79.2309 230.891 79.2309H228.006Z" fill="#292929"/>
<path d="M249.533 72.9395L248.004 71.4098L248.004 66.8209L249.533 65.2913L251.063 66.8209L251.063 71.4098L249.533 72.9395Z" fill="#DC8772"/>
<path d="M249.533 63.6484L248.004 62.1188L248.004 57.5299L249.533 56.0003L251.063 57.5299L251.063 62.1188L249.533 63.6484Z" fill="#86A6D9"/>
<path d="M250.355 64.4684L251.885 62.9388L256.472 62.9388L258.001 64.4684L256.472 65.998L251.885 65.998L250.355 64.4684Z" fill="#F5C851"/>
<path d="M241.062 64.4684L242.592 62.9388L247.179 62.9388L248.708 64.4684L247.179 65.998L242.592 65.998L241.062 64.4684Z" fill="#87D5D7"/>
<path d="M326.25 79.1035C326.25 79.7003 326.013 80.2726 325.591 80.6945C325.169 81.1165 324.597 81.3535 324 81.3535C323.404 81.3535 322.831 81.1165 322.409 80.6945C321.987 80.2726 321.75 79.7003 321.75 79.1035M324.541 68.6058L323.442 68.6035C320.934 68.5975 318.756 70.6353 318.739 73.1035V75.946C318.739 76.5385 318.664 77.1168 318.341 77.6095L318.126 77.938C317.798 78.436 318.15 79.1035 318.739 79.1035H329.262C329.85 79.1035 330.202 78.436 329.875 77.938L329.66 77.6095C329.337 77.1168 329.262 76.5378 329.262 75.9453V73.1043C329.232 70.6353 327.049 68.6118 324.541 68.6058V68.6058Z" stroke="black" stroke-width="1.5" stroke-linecap="round" stroke-linejoin="round"/>
<path d="M324 66.3535C324.398 66.3535 324.779 66.5116 325.061 66.7929C325.342 67.0742 325.5 67.4557 325.5 67.8535V68.6035H322.5V67.8535C322.5 67.4557 322.658 67.0742 322.939 66.7929C323.221 66.5116 323.602 66.3535 324 66.3535Z" stroke="black" stroke-width="1.5" stroke-linecap="round" stroke-linejoin="round"/>
<circle cx="330" cy="68.1172" r="4" fill="#ED6967"/>
<rect x="356" y="65.7363" width="12" height="2" rx="1" fill="#232323"/>
<rect x="356" y="71.7363" width="12" height="2" rx="1" fill="#232323"/>
<rect x="356" y="77.7363" width="12" height="2" rx="1" fill="#232323"/>
<path d="M21.1667 466.834H32.8333C33.2754 466.834 33.6993 467.01 34.0118 467.322C34.3244 467.635 34.5 468.059 34.5 468.501V478.501C34.5 478.943 34.3244 479.367 34.0118 479.679C33.6993 479.992 33.2754 480.167 32.8333 480.167H21.1667C20.7246 480.167 20.3007 479.992 19.9882 479.679C19.6756 479.367 19.5 478.943 19.5 478.501V468.501C19.5 468.059 19.6756 467.635 19.9882 467.322C20.3007 467.01 20.7246 466.834 21.1667 466.834ZM21.1667 470.167V473.501H26.1667V470.167H21.1667ZM27.8333 470.167V473.501H32.8333V470.167H27.8333ZM21.1667 475.167V478.501H26.1667V475.167H21.1667ZM27.8333 475.167V478.501H32.8333V475.167H27.8333Z" fill="black"/>
<path d="M50.6074 469.646V466.992H48.4277V469.752C48.4277 472.459 47.5488 475.28 45.1758 476.748L46.5469 478.4C47.9971 477.521 48.9551 476.001 49.5264 474.19C50.0361 475.825 50.9062 477.214 52.2949 478.049L53.5078 476.309C51.3193 474.911 50.5986 472.239 50.6074 469.646ZM51.8203 472.846H53.8945V480.879H55.9863V465.85H53.8945V471.018H51.8203V472.846ZM57.1992 481.617H59.3438V465.621H57.1992V481.617ZM74.9362 474.85H60.2937V476.607H66.4636V481.617H68.6784V476.607H74.9362V474.85ZM62.0163 473.303H73.196V466.236H70.946V468.082H64.2312V466.236H62.0163V473.303ZM64.2312 471.51V469.84H70.946V471.51H64.2312ZM81.3881 468.785V468.557H84.6049V466.764H75.8159V468.557H79.103V468.785C79.103 470.807 77.8813 472.89 75.2182 473.742L76.3784 475.5C78.2592 474.876 79.56 473.619 80.2895 472.037C81.0102 473.479 82.267 474.63 84.06 475.201L85.2026 473.443C82.5746 472.644 81.3793 470.692 81.3881 468.785ZM77.8198 481.336H88.9643V479.543H80.0873V476.15H77.8198V481.336ZM86.2924 477.205H88.5424V465.639H86.2924V477.205ZM102.676 465.621H100.426V477.188H102.676V471.826H104.838V469.98H102.676V465.621ZM90.5998 474.551H91.9533C95.4953 474.551 97.341 474.454 99.3537 474.041L99.1252 472.248C97.341 472.626 95.7502 472.723 92.8498 472.74V468.697H97.8244V466.904H90.5998V474.551ZM92.3048 481.336H103.256V479.543H94.5373V475.957H92.3048V481.336ZM105.753 475.148C105.762 478.462 106.781 481.213 108.46 483.586H110.938C109.725 481.819 108.46 478.304 108.46 475.148C108.46 472.002 109.725 468.478 110.938 466.729H108.46C106.781 469.093 105.762 471.844 105.753 475.148ZM116.195 480C120.08 480 122.426 477.601 122.418 473.619C122.426 469.655 120.08 467.273 116.248 467.273H111.713V480H116.195ZM114.349 477.732V469.541H116.107C118.515 469.541 119.781 470.789 119.781 473.619C119.781 476.476 118.515 477.732 116.089 477.732H114.349ZM132.121 471.703H134.793C134.442 468.776 132.227 467.098 129.291 467.098C125.934 467.098 123.368 469.479 123.368 473.637C123.368 477.776 125.89 480.176 129.291 480.176C132.526 480.176 134.503 478.031 134.793 475.676L132.121 475.658C131.867 477.038 130.777 477.829 129.326 477.838C127.384 477.829 126.057 476.379 126.057 473.637C126.057 470.956 127.367 469.444 129.344 469.436C130.829 469.444 131.91 470.297 132.121 471.703ZM140.454 475.148C140.445 471.844 139.426 469.093 137.747 466.729H135.269C136.481 468.478 137.747 472.002 137.747 475.148C137.747 478.304 136.481 481.819 135.269 483.586H137.747C139.426 481.213 140.445 478.462 140.454 475.148Z" fill="#232323"/>
<rect width="358" height="33" transform="translate(17 504)" fill="#F0F2F2"/>
<path d="M47.4206 513.816H45.6706V521.719H47.4206V518.451H49.1023V517.002H47.4206V513.816ZM37.5495 516.359H44.9323V515.006H42.1159V513.748H40.3796V515.006H37.5495V516.359ZM38.1511 519.025C38.1511 520.365 39.4157 521.254 41.2409 521.254C43.0525 521.254 44.3034 520.365 44.3034 519.025C44.3034 517.699 43.0525 516.79 41.2409 516.783C39.4089 516.79 38.1511 517.699 38.1511 519.025ZM39.1491 524.057C39.1355 525.424 40.7419 526.265 43.3601 526.258C45.9167 526.265 47.5505 525.424 47.5573 524.057C47.5505 522.655 45.9167 521.835 43.3601 521.828C40.7419 521.835 39.1355 522.655 39.1491 524.057ZM39.8601 519.025C39.8532 518.403 40.407 518.062 41.2409 518.055C42.0818 518.062 42.6491 518.403 42.6491 519.025C42.6491 519.641 42.0818 519.962 41.2409 519.955C40.407 519.962 39.8532 519.641 39.8601 519.025ZM40.8718 524.057C40.865 523.435 41.7263 523.161 43.3601 523.154C44.946 523.161 45.8073 523.435 45.8073 524.057C45.8073 524.638 44.946 524.959 43.3601 524.959C41.7263 524.959 40.865 524.638 40.8718 524.057ZM59.0012 514.309H50.4973V518.684H53.8743V519.873H49.0891V521.281H60.4368V519.873H55.6243V518.684H59.0012V514.309ZM50.347 523.564H57.3196V526.258H59.0559V522.197H50.347V523.564ZM52.2063 517.316V515.662H57.2923V517.316H52.2063Z" fill="#232323"/>
<path d="M123.821 518.273H122.098V519.764H117.3V521.172H128.647V519.764H123.821V518.273ZM117.792 517.617L118.407 518.984C120.745 518.752 122.303 517.877 122.96 516.681C123.623 517.884 125.195 518.752 127.54 518.984L128.155 517.617C125.817 517.398 124.546 516.571 124.238 515.717H127.622V514.35H118.339V515.717H121.695C121.381 516.578 120.109 517.398 117.792 517.617ZM118.598 524.057C118.598 525.472 120.232 526.265 122.96 526.258C125.667 526.265 127.28 525.472 127.294 524.057C127.28 522.642 125.667 521.855 122.96 521.855C120.232 521.855 118.598 522.642 118.598 524.057ZM120.376 524.057C120.369 523.462 121.217 523.182 122.96 523.182C124.662 523.182 125.537 523.462 125.544 524.057C125.537 524.665 124.662 524.959 122.96 524.959C121.217 524.959 120.369 524.665 120.376 524.057ZM138.71 513.816H136.96V521.104H138.71V518.26H140.392V516.811H138.71V513.816ZM128.839 516.277H136.222V514.91H133.406V513.734H131.669V514.91H128.839V516.277ZM129.441 518.834C129.441 520.16 130.699 521.035 132.531 521.035C134.342 521.035 135.593 520.16 135.593 518.834C135.593 517.508 134.342 516.633 132.531 516.633C130.699 516.633 129.441 517.508 129.441 518.834ZM130.562 526.121H138.71V521.582H136.96V522.525H132.298V521.582H130.562V526.121ZM131.15 518.834C131.143 518.253 131.697 517.904 132.531 517.918C133.371 517.904 133.939 518.253 133.939 518.834C133.939 519.436 133.371 519.757 132.531 519.764C131.697 519.757 131.143 519.436 131.15 518.834ZM132.298 524.754V523.865H136.96V524.754H132.298Z" fill="#232323"/>
<path d="M197.826 525H204.142V523.305H199.877V515.102H197.826V525ZM208.491 515.102H206.549L204.102 516.66V518.479L206.371 517.057H206.426V525H208.491V515.102Z" fill="#232323"/>
<path d="M267.27 525H273.587V523.305H269.321V515.102H267.27V525ZM274.298 525H281.38V523.305H277.156V523.25L278.659 521.787C280.697 519.941 281.243 519.019 281.243 517.891C281.243 516.175 279.835 514.965 277.716 514.965C275.631 514.965 274.196 516.202 274.202 518.137H276.158C276.151 517.187 276.759 516.599 277.689 516.605C278.598 516.599 279.261 517.146 279.261 518.027C279.261 518.813 278.762 519.36 277.839 520.242L274.284 523.51L274.298 525Z" fill="#232323"/>
<path d="M339.322 525H345.638V523.305H341.373V515.102H339.322V525ZM350.014 525.137C352.249 525.137 353.856 523.92 353.842 522.225C353.856 520.987 353.056 520.105 351.6 519.928V519.846C352.707 519.647 353.48 518.861 353.473 517.754C353.48 516.188 352.106 514.965 350.041 514.965C348.011 514.965 346.48 516.147 346.446 517.85H348.414C348.449 517.091 349.166 516.599 350.041 516.605C350.916 516.599 351.497 517.118 351.491 517.877C351.497 518.656 350.814 519.189 349.836 519.189H348.92V520.707H349.836C350.998 520.714 351.716 521.281 351.709 522.088C351.716 522.888 351.012 523.435 350.028 523.441C349.071 523.435 348.353 522.949 348.319 522.211H346.241C346.282 523.94 347.84 525.137 350.014 525.137Z" fill="#232323"/>
<path d="M49.3219 554.967H48.2418V558.33H45.7398V559.219H48.2418V563.881H49.3219V554.967ZM39.3004 561.447L39.8609 562.322C41.3033 561.782 42.4244 560.668 42.9508 559.26C43.4771 560.518 44.5367 561.536 45.9039 562.035L46.4645 561.174C44.6871 560.565 43.4703 559.041 43.4703 557.469V556.84H46.191V555.951H39.6422V556.84H42.3902V557.469C42.3902 559.212 41.0914 560.818 39.3004 561.447ZM41.5152 566.848H49.6637V565.945H42.5953V563.074H41.5152V566.848ZM54.2033 555.582C52.3644 555.575 51.0246 556.717 51.0314 558.371C51.0246 560.053 52.3644 561.194 54.2033 561.188C56.0558 561.194 57.3683 560.053 57.3752 558.371C57.3683 556.717 56.0558 555.575 54.2033 555.582ZM52.0841 558.371C52.0705 557.257 52.9728 556.478 54.2033 556.484C55.4474 556.478 56.3361 557.257 56.3498 558.371C56.3361 559.492 55.4474 560.278 54.2033 560.285C52.9728 560.278 52.0705 559.492 52.0841 558.371ZM52.59 566.943H60.2873V562.131H59.2209V563.648H53.6564V562.131H52.59V566.943ZM53.6564 566.068V564.496H59.2209V566.068H53.6564ZM59.2209 561.529H60.2873V558.645H62.1193V557.742H60.2873V554.953H59.2209V561.529ZM66.0305 562.227C66.0442 564.811 66.7415 566.957 67.9993 568.789H69.0384C68.1155 567.429 67.2542 564.667 67.2473 562.227C67.2542 559.793 68.1155 557.024 69.0384 555.678H67.9993C66.7415 557.503 66.0442 559.649 66.0305 562.227ZM70.5428 556.102H69.244L72.867 566H74.1659L77.7889 556.102H76.4901L73.5643 564.4H73.4549L70.5428 556.102ZM81.0023 562.227C80.9887 559.649 80.2914 557.503 79.0336 555.678H77.9945C78.9174 557.024 79.7787 559.793 79.7855 562.227C79.7787 564.667 78.9174 567.429 77.9945 568.789H79.0336C80.2914 566.957 80.9887 564.811 81.0023 562.227Z" fill="#232323"/>
<path d="M118.33 563.977H123.129V566H124.304V563.977H125.685V562.896H124.304V556.102H122.787L118.33 562.965V563.977ZM119.656 562.896V562.814L123.005 557.66H123.129V562.896H119.656ZM129.992 566.137C132.187 566.137 133.451 564.291 133.451 561.051C133.451 557.838 132.166 555.965 129.992 555.965C127.812 555.965 126.527 557.838 126.533 561.051C126.527 564.291 127.798 566.137 129.992 566.137ZM127.723 561.051C127.73 558.487 128.57 557.038 129.992 557.031C131.414 557.038 132.255 558.487 132.248 561.051C132.255 563.614 131.421 565.043 129.992 565.043C128.557 565.043 127.73 563.614 127.723 561.051ZM138.032 556.102H136.788L134.327 557.742V558.986L136.733 557.387H136.788V566H138.032V556.102ZM140.37 566.082C140.856 566.075 141.252 565.679 141.245 565.193C141.252 564.715 140.856 564.318 140.37 564.318C139.892 564.318 139.482 564.715 139.495 565.193C139.482 565.679 139.892 566.075 140.37 566.082ZM142.271 563.977H147.07V566H148.246V563.977H149.627V562.896H148.246V556.102H146.728L142.271 562.965V563.977ZM143.597 562.896V562.814L146.947 557.66H147.07V562.896H143.597ZM153.934 566.137C156.128 566.137 157.393 564.291 157.393 561.051C157.393 557.838 156.108 555.965 153.934 555.965C151.753 555.965 150.468 557.838 150.475 561.051C150.468 564.291 151.74 566.137 153.934 566.137ZM151.664 561.051C151.671 558.487 152.512 557.038 153.934 557.031C155.356 557.038 156.197 558.487 156.19 561.051C156.197 563.614 155.363 565.043 153.934 565.043C152.498 565.043 151.671 563.614 151.664 561.051Z" fill="#232323"/>
<path d="M186.333 563.977H191.131V566H192.307V563.977H193.688V562.896H192.307V556.102H190.79L186.333 562.965V563.977ZM187.659 562.896V562.814L191.008 557.66H191.131V562.896H187.659ZM197.995 566.137C200.19 566.137 201.454 564.291 201.454 561.051C201.454 557.838 200.169 555.965 197.995 555.965C195.815 555.965 194.529 557.838 194.536 561.051C194.529 564.291 195.801 566.137 197.995 566.137ZM195.726 561.051C195.733 558.487 196.573 557.038 197.995 557.031C199.417 557.038 200.258 558.487 200.251 561.051C200.258 563.614 199.424 565.043 197.995 565.043C196.56 565.043 195.733 563.614 195.726 561.051ZM206.035 556.102H204.791L202.33 557.742V558.986L204.736 557.387H204.791V566H206.035V556.102ZM208.373 566.082C208.859 566.075 209.255 565.679 209.248 565.193C209.255 564.715 208.859 564.318 208.373 564.318C207.895 564.318 207.485 564.715 207.498 565.193C207.485 565.679 207.895 566.075 208.373 566.082ZM213.61 566.137C215.695 566.157 217.056 564.667 217.056 562.801C217.056 560.887 215.586 559.52 213.829 559.52C212.763 559.52 211.853 560.005 211.286 560.832H211.163C211.156 558.446 212.134 557.059 213.761 557.059C214.861 557.059 215.531 557.715 215.757 558.59H216.973C216.721 557.038 215.504 555.965 213.761 555.965C211.436 555.965 210.001 557.927 210.001 561.434C210.001 565.098 211.894 566.116 213.61 566.137ZM211.327 562.828C211.341 561.659 212.339 560.606 213.638 560.6C214.93 560.606 215.859 561.598 215.866 562.814C215.859 564.045 214.889 565.05 213.61 565.057C212.284 565.05 211.334 563.99 211.327 562.828ZM221.431 566.137C223.625 566.137 224.89 564.291 224.89 561.051C224.89 557.838 223.605 555.965 221.431 555.965C219.25 555.965 217.965 557.838 217.972 561.051C217.965 564.291 219.237 566.137 221.431 566.137ZM219.162 561.051C219.168 558.487 220.009 557.038 221.431 557.031C222.853 557.038 223.694 558.487 223.687 561.051C223.694 563.614 222.86 565.043 221.431 565.043C219.996 565.043 219.168 563.614 219.162 561.051Z" fill="#232323"/>
<path d="M252.873 563.977H257.671V566H258.847V563.977H260.228V562.896H258.847V556.102H257.33L252.873 562.965V563.977ZM254.199 562.896V562.814L257.548 557.66H257.671V562.896H254.199ZM264.535 566.137C266.73 566.137 267.994 564.291 267.994 561.051C267.994 557.838 266.709 555.965 264.535 555.965C262.355 555.965 261.069 557.838 261.076 561.051C261.069 564.291 262.341 566.137 264.535 566.137ZM262.266 561.051C262.273 558.487 263.113 557.038 264.535 557.031C265.957 557.038 266.798 558.487 266.791 561.051C266.798 563.614 265.964 565.043 264.535 565.043C263.1 565.043 262.273 563.614 262.266 561.051ZM272.315 566.137C274.509 566.137 275.774 564.291 275.774 561.051C275.774 557.838 274.489 555.965 272.315 555.965C270.134 555.965 268.849 557.838 268.856 561.051C268.849 564.291 270.121 566.137 272.315 566.137ZM270.046 561.051C270.052 558.487 270.893 557.038 272.315 557.031C273.737 557.038 274.578 558.487 274.571 561.051C274.578 563.614 273.744 565.043 272.315 565.043C270.88 565.043 270.052 563.614 270.046 561.051ZM277.347 566.082C277.832 566.075 278.229 565.679 278.222 565.193C278.229 564.715 277.832 564.318 277.347 564.318C276.868 564.318 276.458 564.715 276.472 565.193C276.458 565.679 276.868 566.075 277.347 566.082ZM279.494 566H285.92V564.906H281.203V564.824L283.472 562.486C285.222 560.682 285.735 559.82 285.742 558.713C285.735 557.175 284.464 555.965 282.666 555.965C280.875 555.965 279.521 557.141 279.535 558.891H280.697C280.704 557.783 281.442 557.038 282.625 557.031C283.739 557.038 284.587 557.694 284.594 558.713C284.587 559.629 284.026 560.299 282.857 561.543L279.48 565.098L279.494 566ZM290.391 566.137C292.585 566.137 293.85 564.291 293.85 561.051C293.85 557.838 292.565 555.965 290.391 555.965C288.21 555.965 286.925 557.838 286.932 561.051C286.925 564.291 288.197 566.137 290.391 566.137ZM288.121 561.051C288.128 558.487 288.969 557.038 290.391 557.031C291.813 557.038 292.654 558.487 292.647 561.051C292.654 563.614 291.82 565.043 290.391 565.043C288.955 565.043 288.128 563.614 288.121 561.051Z" fill="#232323"/>
<path d="M320.452 563.977H325.251V566H326.426V563.977H327.807V562.896H326.426V556.102H324.909L320.452 562.965V563.977ZM321.778 562.896V562.814L325.128 557.66H325.251V562.896H321.778ZM332.114 566.137C334.309 566.137 335.573 564.291 335.573 561.051C335.573 557.838 334.288 555.965 332.114 555.965C329.934 555.965 328.649 557.838 328.655 561.051C328.649 564.291 329.92 566.137 332.114 566.137ZM329.845 561.051C329.852 558.487 330.693 557.038 332.114 557.031C333.536 557.038 334.377 558.487 334.37 561.051C334.377 563.614 333.543 565.043 332.114 565.043C330.679 565.043 329.852 563.614 329.845 561.051ZM340.072 566.137C342.048 566.137 343.524 564.934 343.517 563.307C343.524 562.049 342.745 561.126 341.453 560.928V560.859C342.492 560.565 343.148 559.745 343.134 558.617C343.148 557.202 342 555.965 340.113 555.965C338.356 555.965 336.893 557.018 336.832 558.59H338.021C338.076 557.619 339.04 557.038 340.099 557.031C341.227 557.038 341.952 557.694 341.945 558.686C341.952 559.704 341.111 560.381 339.908 560.381H339.101V561.461H339.908C341.446 561.468 342.307 562.227 342.314 563.307C342.307 564.339 341.364 565.043 340.058 565.043C338.876 565.043 337.939 564.455 337.871 563.512H336.627C336.688 565.084 338.103 566.137 340.072 566.137ZM345.268 566.082C345.753 566.075 346.15 565.679 346.143 565.193C346.15 564.715 345.753 564.318 345.268 564.318C344.789 564.318 344.379 564.715 344.393 565.193C344.379 565.679 344.789 566.075 345.268 566.082ZM347.415 566H353.841V564.906H349.124V564.824L351.393 562.486C353.143 560.682 353.656 559.82 353.663 558.713C353.656 557.175 352.385 555.965 350.587 555.965C348.796 555.965 347.442 557.141 347.456 558.891H348.618C348.625 557.783 349.363 557.038 350.546 557.031C351.66 557.038 352.508 557.694 352.514 558.713C352.508 559.629 351.947 560.299 350.778 561.543L347.401 565.098L347.415 566ZM358.312 566.137C360.506 566.137 361.771 564.291 361.771 561.051C361.771 557.838 360.486 555.965 358.312 555.965C356.131 555.965 354.846 557.838 354.853 561.051C354.846 564.291 356.118 566.137 358.312 566.137ZM356.042 561.051C356.049 558.487 356.89 557.038 358.312 557.031C359.734 557.038 360.575 558.487 360.568 561.051C360.575 563.614 359.741 565.043 358.312 565.043C356.876 565.043 356.049 563.614 356.042 561.051Z" fill="#232323"/>
<path d="M49.3219 599.217H48.2418V602.58H45.7398V603.469H48.2418V608.131H49.3219V599.217ZM39.3004 605.697L39.8609 606.572C41.3033 606.032 42.4244 604.918 42.9508 603.51C43.4771 604.768 44.5367 605.786 45.9039 606.285L46.4645 605.424C44.6871 604.815 43.4703 603.291 43.4703 601.719V601.09H46.191V600.201H39.6422V601.09H42.3902V601.719C42.3902 603.462 41.0914 605.068 39.3004 605.697ZM41.5152 611.098H49.6637V610.195H42.5953V607.324H41.5152V611.098ZM61.9005 606.463H50.7716V607.324H53.6838V611.357H54.7638V607.324H57.9084V611.357H58.9748V607.324H61.9005V606.463ZM52.1115 600.57H59.4533V601.965H52.1388V605.205H60.8068V604.316H53.2189V602.799H60.547V599.682H52.1115V600.57ZM66.0305 606.477C66.0442 609.061 66.7415 611.207 67.9993 613.039H69.0384C68.1155 611.679 67.2542 608.917 67.2473 606.477C67.2542 604.043 68.1155 601.274 69.0384 599.928H67.9993C66.7415 601.753 66.0442 603.899 66.0305 606.477ZM70.5291 610.25L71.5204 607.461H75.4989L76.4901 610.25H77.7889L74.1659 600.352H72.867L69.244 610.25H70.5291ZM71.8963 606.381L73.4686 601.951H73.5506L75.1229 606.381H71.8963ZM81.0023 606.477C80.9887 603.899 80.2914 601.753 79.0336 599.928H77.9945C78.9174 601.274 79.7787 604.043 79.7855 606.477C79.7787 608.917 78.9174 611.679 77.9945 613.039H79.0336C80.2914 611.207 80.9887 609.061 81.0023 606.477Z" fill="#232323"/>
<path d="M122.178 600.352H120.934L118.473 601.992V603.236L120.879 601.637H120.934V610.25H122.178V600.352ZM127.497 610.387C129.692 610.387 130.956 608.541 130.956 605.301C130.956 602.088 129.671 600.215 127.497 600.215C125.317 600.215 124.031 602.088 124.038 605.301C124.031 608.541 125.303 610.387 127.497 610.387ZM125.228 605.301C125.235 602.737 126.075 601.288 127.497 601.281C128.919 601.288 129.76 602.737 129.753 605.301C129.76 607.864 128.926 609.293 127.497 609.293C126.062 609.293 125.235 607.864 125.228 605.301ZM131.791 608.227H136.59V610.25H137.765V608.227H139.146V607.146H137.765V600.352H136.248L131.791 607.215V608.227ZM133.117 607.146V607.064L136.467 601.91H136.59V607.146H133.117ZM140.61 610.332C141.095 610.325 141.491 609.929 141.485 609.443C141.491 608.965 141.095 608.568 140.61 608.568C140.131 608.568 139.721 608.965 139.735 609.443C139.721 609.929 140.131 610.325 140.61 610.332ZM142.757 610.25H149.182V609.156H144.466V609.074L146.735 606.736C148.485 604.932 148.998 604.07 149.005 602.963C148.998 601.425 147.726 600.215 145.929 600.215C144.138 600.215 142.784 601.391 142.798 603.141H143.96C143.967 602.033 144.705 601.288 145.888 601.281C147.002 601.288 147.849 601.944 147.856 602.963C147.849 603.879 147.289 604.549 146.12 605.793L142.743 609.348L142.757 610.25ZM149.949 608.227H154.747V610.25H155.923V608.227H157.304V607.146H155.923V600.352H154.406L149.949 607.215V608.227ZM151.275 607.146V607.064L154.624 601.91H154.747V607.146H151.275Z" fill="#232323"/>
<path d="M189.942 600.352H188.698L186.237 601.992V603.236L188.643 601.637H188.698V610.25H189.942V600.352ZM195.247 610.387C197.223 610.387 198.658 609.006 198.665 607.092C198.658 605.164 197.271 603.77 195.384 603.77C194.687 603.77 194.024 604.002 193.579 604.344H193.484L193.853 601.445H198.187V600.352H192.827L192.13 605.766H193.319C193.682 605.123 194.331 604.863 195.165 604.877C196.498 604.884 197.462 605.834 197.462 607.119C197.462 608.363 196.532 609.3 195.247 609.307C194.174 609.3 193.313 608.644 193.224 607.762H192.034C192.11 609.286 193.463 610.387 195.247 610.387ZM203.259 610.387C205.344 610.407 206.705 608.917 206.705 607.051C206.705 605.137 205.235 603.77 203.478 603.77C202.412 603.77 201.503 604.255 200.935 605.082H200.812C200.805 602.696 201.783 601.309 203.41 601.309C204.51 601.309 205.18 601.965 205.406 602.84H206.623C206.37 601.288 205.153 600.215 203.41 600.215C201.086 600.215 199.65 602.177 199.65 605.684C199.65 609.348 201.544 610.366 203.259 610.387ZM200.976 607.078C200.99 605.909 201.988 604.856 203.287 604.85C204.579 604.856 205.509 605.848 205.515 607.064C205.509 608.295 204.538 609.3 203.259 609.307C201.933 609.3 200.983 608.24 200.976 607.078ZM208.223 610.332C208.708 610.325 209.105 609.929 209.098 609.443C209.105 608.965 208.708 608.568 208.223 608.568C207.744 608.568 207.334 608.965 207.348 609.443C207.334 609.929 207.744 610.325 208.223 610.332ZM210.37 610.25H216.796V609.156H212.079V609.074L214.348 606.736C216.098 604.932 216.611 604.07 216.618 602.963C216.611 601.425 215.34 600.215 213.542 600.215C211.751 600.215 210.397 601.391 210.411 603.141H211.573C211.58 602.033 212.318 601.288 213.501 601.281C214.615 601.288 215.463 601.944 215.47 602.963C215.463 603.879 214.902 604.549 213.733 605.793L210.356 609.348L210.37 610.25ZM221.445 610.387C223.42 610.387 224.897 609.184 224.89 607.557C224.897 606.299 224.118 605.376 222.826 605.178V605.109C223.865 604.815 224.521 603.995 224.507 602.867C224.521 601.452 223.372 600.215 221.486 600.215C219.729 600.215 218.266 601.268 218.204 602.84H219.394C219.449 601.869 220.413 601.288 221.472 601.281C222.6 601.288 223.325 601.944 223.318 602.936C223.325 603.954 222.484 604.631 221.281 604.631H220.474V605.711H221.281C222.819 605.718 223.68 606.477 223.687 607.557C223.68 608.589 222.737 609.293 221.431 609.293C220.248 609.293 219.312 608.705 219.244 607.762H217.999C218.061 609.334 219.476 610.387 221.445 610.387Z" fill="#232323"/>
<path d="M259.018 600.352H257.774L255.313 601.992V603.236L257.719 601.637H257.774V610.25H259.018V600.352ZM264.597 600.352H263.353L260.892 601.992V603.236L263.298 601.637H263.353V610.25H264.597V600.352ZM269.916 610.387C272.11 610.387 273.375 608.541 273.375 605.301C273.375 602.088 272.09 600.215 269.916 600.215C267.735 600.215 266.45 602.088 266.457 605.301C266.45 608.541 267.721 610.387 269.916 610.387ZM267.646 605.301C267.653 602.737 268.494 601.288 269.916 601.281C271.338 601.288 272.178 602.737 272.172 605.301C272.178 607.864 271.344 609.293 269.916 609.293C268.48 609.293 267.653 607.864 267.646 605.301ZM274.948 610.332C275.433 610.325 275.829 609.929 275.823 609.443C275.829 608.965 275.433 608.568 274.948 608.568C274.469 608.568 274.059 608.965 274.073 609.443C274.059 609.929 274.469 610.325 274.948 610.332ZM277.095 610.25H283.52V609.156H278.804V609.074L281.073 606.736C282.823 604.932 283.336 604.07 283.343 602.963C283.336 601.425 282.064 600.215 280.266 600.215C278.475 600.215 277.122 601.391 277.136 603.141H278.298C278.305 602.033 279.043 601.288 280.225 601.281C281.34 601.288 282.187 601.944 282.194 602.963C282.187 603.879 281.627 604.549 280.458 605.793L277.081 609.348L277.095 610.25ZM287.992 610.387C290.186 610.387 291.451 608.541 291.451 605.301C291.451 602.088 290.165 600.215 287.992 600.215C285.811 600.215 284.526 602.088 284.533 605.301C284.526 608.541 285.797 610.387 287.992 610.387ZM285.722 605.301C285.729 602.737 286.57 601.288 287.992 601.281C289.413 601.288 290.254 602.737 290.247 605.301C290.254 607.864 289.42 609.293 287.992 609.293C286.556 609.293 285.729 607.864 285.722 605.301Z" fill="#232323"/>
<path d="M325.579 600.352H324.335L321.874 601.992V603.236L324.28 601.637H324.335V610.25H325.579V600.352ZM330.898 610.387C333.092 610.387 334.357 608.541 334.357 605.301C334.357 602.088 333.071 600.215 330.898 600.215C328.717 600.215 327.432 602.088 327.439 605.301C327.432 608.541 328.703 610.387 330.898 610.387ZM328.628 605.301C328.635 602.737 329.476 601.288 330.898 601.281C332.319 601.288 333.16 602.737 333.153 605.301C333.16 607.864 332.326 609.293 330.898 609.293C329.462 609.293 328.635 607.864 328.628 605.301ZM335.437 610.25H341.863V609.156H337.146V609.074L339.416 606.736C341.166 604.932 341.678 604.07 341.685 602.963C341.678 601.425 340.407 600.215 338.609 600.215C336.818 600.215 335.465 601.391 335.478 603.141H336.64C336.647 602.033 337.385 601.288 338.568 601.281C339.682 601.288 340.53 601.944 340.537 602.963C340.53 603.879 339.969 604.549 338.801 605.793L335.424 609.348L335.437 610.25ZM343.942 610.332C344.427 610.325 344.824 609.929 344.817 609.443C344.824 608.965 344.427 608.568 343.942 608.568C343.463 608.568 343.053 608.965 343.067 609.443C343.053 609.929 343.463 610.325 343.942 610.332ZM349.124 610.387C351.099 610.387 352.535 609.006 352.542 607.092C352.535 605.164 351.147 603.77 349.261 603.77C348.563 603.77 347.9 604.002 347.456 604.344H347.36L347.729 601.445H352.063V600.352H346.704L346.007 605.766H347.196C347.558 605.123 348.208 604.863 349.042 604.877C350.375 604.884 351.339 605.834 351.339 607.119C351.339 608.363 350.409 609.3 349.124 609.307C348.051 609.3 347.189 608.644 347.1 607.762H345.911C345.986 609.286 347.34 610.387 349.124 610.387ZM356.931 610.387C359.125 610.387 360.39 608.541 360.39 605.301C360.39 602.088 359.105 600.215 356.931 600.215C354.75 600.215 353.465 602.088 353.472 605.301C353.465 608.541 354.737 610.387 356.931 610.387ZM354.662 605.301C354.668 602.737 355.509 601.288 356.931 601.281C358.353 601.288 359.194 602.737 359.187 605.301C359.194 607.864 358.36 609.293 356.931 609.293C355.496 609.293 354.668 607.864 354.662 605.301Z" fill="#232323"/>
<path d="M39.5684 643.467H38.4883V646.83H35.9863V647.719H38.4883V652.381H39.5684V643.467ZM29.5469 649.947L30.1074 650.822C31.5498 650.282 32.6709 649.168 33.1973 647.76C33.7236 649.018 34.7832 650.036 36.1504 650.535L36.7109 649.674C34.9336 649.065 33.7168 647.541 33.7168 645.969V645.34H36.4375V644.451H29.8887V645.34H32.6367V645.969C32.6367 647.712 31.3379 649.318 29.5469 649.947ZM31.7617 655.348H39.9102V654.445H32.8418V651.574H31.7617V655.348ZM46.8013 644.205H41.524V645.066H45.7349V646.789H41.5513V650.371H42.4127C44.8736 650.371 46.1109 650.33 47.6216 650.084L47.5123 649.195C46.0836 649.455 44.9009 649.503 42.6177 649.496V647.609H46.8013V644.205ZM42.9185 652.463H50.0279V655.635H51.108V651.588H42.9185V652.463ZM47.608 648.676H50.0279V650.932H51.108V643.467H50.0279V645.271H47.608V646.146H50.0279V647.787H47.608V648.676ZM56.277 650.727C56.2907 653.311 56.988 655.457 58.2458 657.289H59.2848C58.362 655.929 57.5007 653.167 57.4938 650.727C57.5007 648.293 58.362 645.524 59.2848 644.178H58.2458C56.988 646.003 56.2907 648.149 56.277 650.727ZM60.3381 654.5H61.5686V651.314L62.7991 649.92L66.2034 654.5H67.7073L63.5647 649.072L67.7073 644.602H66.094L61.6916 649.496H61.5686V644.602H60.3381V654.5ZM69.1434 654.5H70.3191L71.9188 648.84H72.0281L73.6414 654.5H74.8035L77.0594 647.076H75.8289L74.243 652.709H74.1609L72.616 647.076H71.3582L69.7859 652.736H69.7176L68.1316 647.076H66.8875L69.1434 654.5ZM80.3822 650.727C80.3685 648.149 79.6712 646.003 78.4134 644.178H77.3744C78.2972 645.524 79.1586 648.293 79.1654 650.727C79.1586 653.167 78.2972 655.929 77.3744 657.289H78.4134C79.6712 655.457 80.3685 653.311 80.3822 650.727Z" fill="#232323"/>
<path d="M123.279 654.5H129.705V653.406H124.988V653.324L127.258 650.986C129.008 649.182 129.52 648.32 129.527 647.213C129.52 645.675 128.249 644.465 126.451 644.465C124.66 644.465 123.307 645.641 123.32 647.391H124.482C124.489 646.283 125.227 645.538 126.41 645.531C127.524 645.538 128.372 646.194 128.379 647.213C128.372 648.129 127.811 648.799 126.642 650.043L123.266 653.598L123.279 654.5ZM130.936 654.5H137.362V653.406H132.645V653.324L134.914 650.986C136.664 649.182 137.177 648.32 137.184 647.213C137.177 645.675 135.906 644.465 134.108 644.465C132.317 644.465 130.963 645.641 130.977 647.391H132.139C132.146 646.283 132.884 645.538 134.067 645.531C135.181 645.538 136.029 646.194 136.036 647.213C136.029 648.129 135.468 648.799 134.299 650.043L130.922 653.598L130.936 654.5ZM139.44 654.582C139.926 654.575 140.322 654.179 140.315 653.693C140.322 653.215 139.926 652.818 139.44 652.818C138.962 652.818 138.552 653.215 138.565 653.693C138.552 654.179 138.962 654.575 139.44 654.582ZM143.898 644.602H142.654L140.193 646.242V647.486L142.599 645.887H142.654V654.5H143.898V644.602ZM149.203 654.637C151.179 654.637 152.614 653.256 152.621 651.342C152.614 649.414 151.227 648.02 149.34 648.02C148.643 648.02 147.98 648.252 147.535 648.594H147.44L147.809 645.695H152.143V644.602H146.783L146.086 650.016H147.276C147.638 649.373 148.287 649.113 149.121 649.127C150.454 649.134 151.418 650.084 151.418 651.369C151.418 652.613 150.488 653.55 149.203 653.557C148.13 653.55 147.269 652.894 147.18 652.012H145.99C146.066 653.536 147.419 654.637 149.203 654.637Z" fill="#232323"/>
<path d="M195.035 644.602H193.791L191.33 646.242V647.486L193.736 645.887H193.791V654.5H195.035V644.602ZM197.428 654.5H198.713L203.239 645.75V644.602H196.731V645.695H201.967V645.764L197.428 654.5ZM203.417 654.582C203.902 654.575 204.299 654.179 204.292 653.693C204.299 653.215 203.902 652.818 203.417 652.818C202.938 652.818 202.528 653.215 202.542 653.693C202.528 654.179 202.938 654.575 203.417 654.582ZM205.564 654.5H211.99V653.406H207.273V653.324L209.543 650.986C211.293 649.182 211.805 648.32 211.812 647.213C211.805 645.675 210.534 644.465 208.736 644.465C206.945 644.465 205.591 645.641 205.605 647.391H206.767C206.774 646.283 207.512 645.538 208.695 645.531C209.809 645.538 210.657 646.194 210.664 647.213C210.657 648.129 210.096 648.799 208.927 650.043L205.55 653.598L205.564 654.5ZM216.447 654.637C218.423 654.637 219.859 653.256 219.865 651.342C219.859 649.414 218.471 648.02 216.584 648.02C215.887 648.02 215.224 648.252 214.779 648.594H214.684L215.053 645.695H219.387V644.602H214.027L213.33 650.016H214.52C214.882 649.373 215.531 649.113 216.365 649.127C217.698 649.134 218.662 650.084 218.662 651.369C218.662 652.613 217.733 653.55 216.447 653.557C215.374 653.55 214.513 652.894 214.424 652.012H213.234C213.31 653.536 214.663 654.637 216.447 654.637Z" fill="#232323"/>
<path d="M255.067 654.5H261.493V653.406H256.776V653.324L259.046 650.986C260.796 649.182 261.308 648.32 261.315 647.213C261.308 645.675 260.037 644.465 258.239 644.465C256.448 644.465 255.094 645.641 255.108 647.391H256.27C256.277 646.283 257.015 645.538 258.198 645.531C259.312 645.538 260.16 646.194 260.167 647.213C260.16 648.129 259.599 648.799 258.43 650.043L255.053 653.598L255.067 654.5ZM265.964 654.637C268.158 654.637 269.423 652.791 269.423 649.551C269.423 646.338 268.138 644.465 265.964 644.465C263.783 644.465 262.498 646.338 262.505 649.551C262.498 652.791 263.77 654.637 265.964 654.637ZM263.694 649.551C263.701 646.987 264.542 645.538 265.964 645.531C267.386 645.538 268.227 646.987 268.22 649.551C268.227 652.114 267.393 653.543 265.964 653.543C264.528 653.543 263.701 652.114 263.694 649.551ZM270.996 654.582C271.481 654.575 271.878 654.179 271.871 653.693C271.878 653.215 271.481 652.818 270.996 652.818C270.517 652.818 270.107 653.215 270.121 653.693C270.107 654.179 270.517 654.575 270.996 654.582ZM275.453 644.602H274.209L271.748 646.242V647.486L274.155 645.887H274.209V654.5H275.453V644.602ZM277.532 654.5H283.958V653.406H279.241V653.324L281.511 650.986C283.261 649.182 283.773 648.32 283.78 647.213C283.773 645.675 282.502 644.465 280.704 644.465C278.913 644.465 277.559 645.641 277.573 647.391H278.735C278.742 646.283 279.48 645.538 280.663 645.531C281.777 645.538 282.625 646.194 282.632 647.213C282.625 648.129 282.064 648.799 280.895 650.043L277.518 653.598L277.532 654.5ZM288.415 654.637C290.391 654.637 291.827 653.256 291.833 651.342C291.827 649.414 290.439 648.02 288.552 648.02C287.855 648.02 287.192 648.252 286.747 648.594H286.652L287.021 645.695H291.355V644.602H285.996L285.298 650.016H286.488C286.85 649.373 287.499 649.113 288.333 649.127C289.666 649.134 290.63 650.084 290.63 651.369C290.63 652.613 289.701 653.55 288.415 653.557C287.342 653.55 286.481 652.894 286.392 652.012H285.203C285.278 653.536 286.631 654.637 288.415 654.637Z" fill="#232323"/>
<path d="M326.488 654.5H332.914V653.406H328.197V653.324L330.467 650.986C332.217 649.182 332.729 648.32 332.736 647.213C332.729 645.675 331.458 644.465 329.66 644.465C327.869 644.465 326.516 645.641 326.529 647.391H327.691C327.698 646.283 328.436 645.538 329.619 645.531C330.733 645.538 331.581 646.194 331.588 647.213C331.581 648.129 331.02 648.799 329.851 650.043L326.474 653.598L326.488 654.5ZM333.68 652.477H338.479V654.5H339.655V652.477H341.036V651.396H339.655V644.602H338.137L333.68 651.465V652.477ZM335.006 651.396V651.314L338.356 646.16H338.479V651.396H335.006ZM342.499 654.582C342.984 654.575 343.381 654.179 343.374 653.693C343.381 653.215 342.984 652.818 342.499 652.818C342.021 652.818 341.61 653.215 341.624 653.693C341.61 654.179 342.021 654.575 342.499 654.582ZM346.957 644.602H345.712L343.252 646.242V647.486L345.658 645.887H345.712V654.5H346.957V644.602ZM352.481 654.637C354.566 654.657 355.926 653.167 355.926 651.301C355.926 649.387 354.456 648.02 352.699 648.02C351.633 648.02 350.724 648.505 350.156 649.332H350.033C350.026 646.946 351.004 645.559 352.631 645.559C353.732 645.559 354.401 646.215 354.627 647.09H355.844C355.591 645.538 354.374 644.465 352.631 644.465C350.307 644.465 348.871 646.427 348.871 649.934C348.871 653.598 350.765 654.616 352.481 654.637ZM350.197 651.328C350.211 650.159 351.209 649.106 352.508 649.1C353.8 649.106 354.73 650.098 354.736 651.314C354.73 652.545 353.759 653.55 352.481 653.557C351.154 653.55 350.204 652.49 350.197 651.328Z" fill="#232323"/>
<path d="M32.4043 688.469C30.7773 688.476 29.6221 689.651 29.6289 691.34C29.6221 693.035 30.7773 694.184 32.4043 694.184C34.0107 694.184 35.1865 693.035 35.1934 691.34C35.1865 689.651 34.0107 688.476 32.4043 688.469ZM30.5996 691.34C30.5859 690.212 31.3584 689.398 32.4043 689.398C33.4365 689.398 34.2021 690.212 34.209 691.34C34.2021 692.468 33.4365 693.288 32.4043 693.281C31.3584 693.288 30.5859 692.468 30.5996 691.34ZM31.625 696.494H38.7617V699.857H39.8145V695.633H31.625V696.494ZM36.1641 694.867H37.1758V691.736H38.7891V694.949H39.8145V687.717H38.7891V690.848H37.1758V687.949H36.1641V694.867ZM52.147 693.254H41.0181V694.088H44.0396V695.195H42.358V695.988H49.6861V697.027H42.3716V699.721H51.149V698.941H43.4517V697.779H50.7525V695.195H49.1392V694.088H52.147V693.254ZM42.4263 688.838H49.6314V689.85H42.4673V692.393H50.9302V691.613H43.5337V690.574H50.7115V688.072H42.4263V688.838ZM45.0923 695.195V694.088H48.0728V695.195H45.0923ZM56.277 694.977C56.2907 697.561 56.988 699.707 58.2458 701.539H59.2848C58.362 700.179 57.5007 697.417 57.4938 694.977C57.5007 692.543 58.362 689.774 59.2848 688.428H58.2458C56.988 690.253 56.2907 692.399 56.277 694.977ZM62.2659 693.445C63.5373 693.452 64.2414 692.481 64.2483 691.066C64.2414 689.672 63.5647 688.701 62.2659 688.701C61.0149 688.701 60.2766 689.672 60.2834 691.066C60.2766 692.481 60.9875 693.452 62.2659 693.445ZM61.2541 698.75H62.3616L69.1702 688.852H68.0627L61.2541 698.75ZM61.2815 691.066C61.2815 690.157 61.6164 689.556 62.2659 689.549C62.9563 689.535 63.2502 690.157 63.2502 691.066C63.2502 691.989 62.9358 692.598 62.2659 692.598C61.6028 692.598 61.2815 691.989 61.2815 691.066ZM66.3264 696.521C66.3127 697.93 67.0168 698.894 68.3088 698.887C69.5735 698.894 70.2776 697.93 70.2776 696.521C70.2776 695.113 69.5871 694.149 68.3088 694.143C67.0442 694.149 66.3127 695.113 66.3264 696.521ZM67.3108 696.521C67.3176 695.599 67.6457 694.997 68.3088 694.99C68.9924 694.977 69.2795 695.599 69.2795 696.521C69.2795 697.438 68.9719 698.046 68.3088 698.039C67.6389 698.046 67.3176 697.438 67.3108 696.521ZM74.284 694.977C74.2703 692.399 73.573 690.253 72.3152 688.428H71.2762C72.199 689.774 73.0604 692.543 73.0672 694.977C73.0604 697.417 72.199 700.179 71.2762 701.539H72.3152C73.573 699.707 74.2703 697.561 74.284 694.977Z" fill="#232323"/>
<path d="M135.017 688.715C132.912 688.694 131.558 690.191 131.558 692.037C131.558 693.944 133.028 695.305 134.799 695.305C135.851 695.305 136.76 694.812 137.328 693.992H137.465C137.451 696.398 136.467 697.793 134.853 697.793C133.753 697.793 133.076 697.137 132.857 696.248H131.64C131.886 697.82 133.11 698.887 134.853 698.887C137.171 698.887 138.613 696.925 138.613 693.404C138.613 689.761 136.719 688.735 135.017 688.715ZM132.761 692.023C132.748 690.8 133.725 689.795 135.017 689.795C136.323 689.795 137.273 690.861 137.273 691.996C137.273 693.158 136.268 694.225 134.976 694.225C133.684 694.225 132.755 693.247 132.761 692.023ZM143.248 688.852H142.004L139.543 690.492V691.736L141.949 690.137H142.004V698.75H143.248V688.852Z" fill="#232323"/>
<path d="M199.103 698.75H200.388L204.914 690V688.852H198.406V689.945H203.642V690.014L199.103 698.75ZM209.18 698.887C211.265 698.907 212.625 697.417 212.625 695.551C212.625 693.637 211.156 692.27 209.399 692.27C208.332 692.27 207.423 692.755 206.856 693.582H206.733C206.726 691.196 207.703 689.809 209.33 689.809C210.431 689.809 211.101 690.465 211.326 691.34H212.543C212.29 689.788 211.074 688.715 209.33 688.715C207.006 688.715 205.571 690.677 205.571 694.184C205.571 697.848 207.464 698.866 209.18 698.887ZM206.897 695.578C206.91 694.409 207.908 693.356 209.207 693.35C210.499 693.356 211.429 694.348 211.436 695.564C211.429 696.795 210.458 697.8 209.18 697.807C207.854 697.8 206.904 696.74 206.897 695.578Z" fill="#232323"/>
<path d="M269.56 698.887C271.645 698.907 273.006 697.417 273.006 695.551C273.006 693.637 271.536 692.27 269.779 692.27C268.713 692.27 267.803 692.755 267.236 693.582H267.113C267.106 691.196 268.084 689.809 269.711 689.809C270.811 689.809 271.481 690.465 271.707 691.34H272.924C272.671 689.788 271.454 688.715 269.711 688.715C267.386 688.715 265.951 690.677 265.951 694.184C265.951 697.848 267.844 698.866 269.56 698.887ZM267.277 695.578C267.291 694.409 268.289 693.356 269.588 693.35C270.88 693.356 271.809 694.348 271.816 695.564C271.809 696.795 270.839 697.8 269.56 697.807C268.234 697.8 267.284 696.74 267.277 695.578ZM277.367 698.887C279.343 698.887 280.779 697.506 280.785 695.592C280.779 693.664 279.391 692.27 277.504 692.27C276.807 692.27 276.144 692.502 275.699 692.844H275.604L275.973 689.945H280.307V688.852H274.948L274.25 694.266H275.44C275.802 693.623 276.451 693.363 277.285 693.377C278.618 693.384 279.582 694.334 279.582 695.619C279.582 696.863 278.653 697.8 277.367 697.807C276.294 697.8 275.433 697.144 275.344 696.262H274.155C274.23 697.786 275.583 698.887 277.367 698.887Z" fill="#232323"/>
<path d="M337.044 688.715C334.938 688.694 333.585 690.191 333.585 692.037C333.585 693.944 335.054 695.305 336.825 695.305C337.878 695.305 338.787 694.812 339.354 693.992H339.491C339.477 696.398 338.493 697.793 336.88 697.793C335.779 697.793 335.102 697.137 334.884 696.248H333.667C333.913 697.82 335.136 698.887 336.88 698.887C339.197 698.887 340.639 696.925 340.639 693.404C340.639 689.761 338.746 688.735 337.044 688.715ZM334.788 692.023C334.774 690.8 335.752 689.795 337.044 689.795C338.349 689.795 339.3 690.861 339.3 691.996C339.3 693.158 338.295 694.225 337.003 694.225C335.711 694.225 334.781 693.247 334.788 692.023ZM345.07 688.715C342.964 688.694 341.611 690.191 341.611 692.037C341.611 693.944 343.08 695.305 344.851 695.305C345.904 695.305 346.813 694.812 347.38 693.992H347.517C347.503 696.398 346.519 697.793 344.906 697.793C343.805 697.793 343.128 697.137 342.909 696.248H341.693C341.939 697.82 343.162 698.887 344.906 698.887C347.223 698.887 348.665 696.925 348.665 693.404C348.665 689.761 346.772 688.735 345.07 688.715ZM342.814 692.023C342.8 690.8 343.778 689.795 345.07 689.795C346.375 689.795 347.325 690.861 347.325 691.996C347.325 693.158 346.321 694.225 345.029 694.225C343.737 694.225 342.807 693.247 342.814 692.023Z" fill="#232323"/>
<path d="M35.8819 733.676V733.594H39.7647V732.719H30.7823V733.594H34.6787V733.676C34.6719 735.303 32.5118 736.684 30.3995 736.998L30.8233 737.846C32.6895 737.524 34.542 736.513 35.2803 735.05C36.0186 736.513 37.8711 737.524 39.7647 737.846L40.1612 736.998C38.042 736.684 35.875 735.303 35.8819 733.676ZM29.7432 739.773H34.7334V744.107H35.7862V739.773H40.8174V738.885H29.7432V739.773ZM48.2691 733.279H41.4332V734.168H42.773V740.17C42.192 740.177 41.6451 740.184 41.1324 740.184L41.2691 741.1C43.4225 741.086 46.3277 741.045 48.898 740.635L48.8434 739.842C48.2213 739.917 47.5719 739.979 46.9156 740.02V734.168H48.2691V733.279ZM43.8121 740.156V734.168H45.8902V740.081C45.193 740.115 44.4889 740.143 43.8121 740.156ZM49.6227 744.107H50.6891V737.736H52.7262V736.834H50.6891V731.953H49.6227V744.107ZM58.9201 733.088V732.391H57.8127V733.088C57.8127 734.831 55.591 736.28 53.3966 736.588L53.8341 737.463C55.7277 737.148 57.5939 736.116 58.3732 734.612C59.1525 736.103 61.0255 737.148 62.9123 737.463L63.3498 736.588C61.1554 736.28 58.9269 734.804 58.9201 733.088ZM52.8224 739.705H57.8127V744.107H58.8654V739.705H63.8966V738.803H52.8224V739.705ZM68.0677 739.227C68.0813 741.811 68.7786 743.957 70.0364 745.789H71.0755C70.1526 744.429 69.2913 741.667 69.2845 739.227C69.2913 736.793 70.1526 734.024 71.0755 732.678H70.0364C68.7786 734.503 68.0813 736.649 68.0677 739.227ZM72.1287 743H73.3592V738.584H78.5955V743H79.8397V733.102H78.5955V737.504H73.3592V733.102H72.1287V743ZM81.0844 743H86.9223V741.92H82.725V741.838L86.7855 736.506V735.576H81.2211V736.656H85.268V736.738L81.0844 742.111V743ZM90.5048 739.227C90.4912 736.649 89.7939 734.503 88.5361 732.678H87.497C88.4199 734.024 89.2812 736.793 89.288 739.227C89.2812 741.667 88.4199 744.429 87.497 745.789H88.5361C89.7939 743.957 90.4912 741.811 90.5048 739.227Z" fill="#232323"/>
<path d="M134.067 743.137C136.152 743.157 137.512 741.667 137.512 739.801C137.512 737.887 136.043 736.52 134.286 736.52C133.219 736.52 132.31 737.005 131.743 737.832H131.62C131.613 735.446 132.591 734.059 134.217 734.059C135.318 734.059 135.988 734.715 136.214 735.59H137.43C137.177 734.038 135.961 732.965 134.217 732.965C131.893 732.965 130.458 734.927 130.458 738.434C130.458 742.098 132.351 743.116 134.067 743.137ZM131.784 739.828C131.798 738.659 132.796 737.606 134.094 737.6C135.386 737.606 136.316 738.598 136.323 739.814C136.316 741.045 135.345 742.05 134.067 742.057C132.741 742.05 131.791 740.99 131.784 739.828ZM141.888 743.137C144.082 743.137 145.347 741.291 145.347 738.051C145.347 734.838 144.062 732.965 141.888 732.965C139.707 732.965 138.422 734.838 138.429 738.051C138.422 741.291 139.694 743.137 141.888 743.137ZM139.618 738.051C139.625 735.487 140.466 734.038 141.888 734.031C143.31 734.038 144.151 735.487 144.144 738.051C144.151 740.614 143.317 742.043 141.888 742.043C140.452 742.043 139.625 740.614 139.618 738.051Z" fill="#232323"/>
<path d="M201.817 743.137C203.902 743.157 205.262 741.667 205.262 739.801C205.262 737.887 203.793 736.52 202.036 736.52C200.969 736.52 200.06 737.005 199.493 737.832H199.37C199.363 735.446 200.341 734.059 201.967 734.059C203.068 734.059 203.738 734.715 203.964 735.59H205.18C204.927 734.038 203.711 732.965 201.967 732.965C199.643 732.965 198.208 734.927 198.208 738.434C198.208 742.098 200.101 743.116 201.817 743.137ZM199.534 739.828C199.548 738.659 200.546 737.606 201.844 737.6C203.136 737.606 204.066 738.598 204.073 739.814C204.066 741.045 203.095 742.05 201.817 742.057C200.491 742.05 199.541 740.99 199.534 739.828ZM209.638 743.137C211.832 743.137 213.097 741.291 213.097 738.051C213.097 734.838 211.812 732.965 209.638 732.965C207.457 732.965 206.172 734.838 206.179 738.051C206.172 741.291 207.444 743.137 209.638 743.137ZM207.368 738.051C207.375 735.487 208.216 734.038 209.638 734.031C211.06 734.038 211.901 735.487 211.894 738.051C211.901 740.614 211.067 742.043 209.638 742.043C208.202 742.043 207.375 740.614 207.368 738.051Z" fill="#232323"/>
<path d="M269.567 743.137C271.652 743.157 273.012 741.667 273.012 739.801C273.012 737.887 271.543 736.52 269.786 736.52C268.719 736.52 267.81 737.005 267.243 737.832H267.12C267.113 735.446 268.091 734.059 269.717 734.059C270.818 734.059 271.488 734.715 271.714 735.59H272.93C272.677 734.038 271.461 732.965 269.717 732.965C267.393 732.965 265.958 734.927 265.958 738.434C265.958 742.098 267.851 743.116 269.567 743.137ZM267.284 739.828C267.298 738.659 268.296 737.606 269.594 737.6C270.886 737.606 271.816 738.598 271.823 739.814C271.816 741.045 270.845 742.05 269.567 742.057C268.241 742.05 267.291 740.99 267.284 739.828ZM277.388 743.137C279.582 743.137 280.847 741.291 280.847 738.051C280.847 734.838 279.562 732.965 277.388 732.965C275.207 732.965 273.922 734.838 273.929 738.051C273.922 741.291 275.194 743.137 277.388 743.137ZM275.118 738.051C275.125 735.487 275.966 734.038 277.388 734.031C278.81 734.038 279.651 735.487 279.644 738.051C279.651 740.614 278.817 742.043 277.388 742.043C275.952 742.043 275.125 740.614 275.118 738.051Z" fill="#232323"/>
<path d="M337.317 743.137C339.402 743.157 340.762 741.667 340.762 739.801C340.762 737.887 339.293 736.52 337.536 736.52C336.469 736.52 335.56 737.005 334.993 737.832H334.87C334.863 735.446 335.841 734.059 337.467 734.059C338.568 734.059 339.238 734.715 339.464 735.59H340.68C340.427 734.038 339.211 732.965 337.467 732.965C335.143 732.965 333.708 734.927 333.708 738.434C333.708 742.098 335.601 743.116 337.317 743.137ZM335.034 739.828C335.048 738.659 336.046 737.606 337.344 737.6C338.636 737.606 339.566 738.598 339.573 739.814C339.566 741.045 338.595 742.05 337.317 742.057C335.991 742.05 335.041 740.99 335.034 739.828ZM345.138 743.137C347.332 743.137 348.597 741.291 348.597 738.051C348.597 734.838 347.312 732.965 345.138 732.965C342.957 732.965 341.672 734.838 341.679 738.051C341.672 741.291 342.944 743.137 345.138 743.137ZM342.868 738.051C342.875 735.487 343.716 734.038 345.138 734.031C346.56 734.038 347.401 735.487 347.394 738.051C347.401 740.614 346.567 742.043 345.138 742.043C343.702 742.043 342.875 740.614 342.868 738.051Z" fill="#232323"/>
<path d="M24.332 182.167V173.001H27.6654V182.167H24.332ZM29.332 182.167V168.834H32.6654V182.167H29.332ZM34.332 182.167V176.334H37.6654V182.167H34.332Z" fill="#232323"/>
<path d="M62.8691 167.639H60.6191V179.135H62.8691V167.639ZM49.7207 172.684C49.7207 175.065 51.6367 176.744 54.0977 176.744C56.5498 176.744 58.4658 175.065 58.4746 172.684C58.4658 170.337 56.5498 168.649 54.0977 168.658C51.6367 168.649 49.7207 170.337 49.7207 172.684ZM51.918 172.684C51.9004 171.383 52.8408 170.601 54.0977 170.609C55.3105 170.601 56.251 171.383 56.2598 172.684C56.251 174.02 55.3105 174.793 54.0977 174.793C52.8408 174.793 51.9004 174.02 51.918 172.684ZM52.1465 183.336H63.291V181.543H54.4141V177.975H52.1465V183.336ZM77.8112 167.621H75.5964V173.264H72.6257V168.852H70.4284V172.736H67.1413V168.852H64.9089V179.855H72.6257V175.074H75.5964V183.652H77.8112V167.621ZM67.1413 178.062V174.494H70.4284V178.062H67.1413ZM92.6479 167.621H90.433V173.264H87.6205V175.074H90.433V183.652H92.6479V167.621ZM79.8862 180.031H81.1518C83.894 180.022 85.9858 179.943 88.3237 179.592L88.0952 177.799C86.1176 178.106 84.3422 178.186 82.1186 178.203V175.18H86.7768V173.422H82.1186V170.768H87.3569V168.957H79.8862V180.031ZM107.467 167.621H105.235V169.66H102.281V168.307H100.067V170.17H96.9201V168.307H94.6701V175.391H102.281V174.248H105.235V175.848H107.467V167.621ZM96.8146 178.168H105.235V179.082H96.8322V183.441H107.942V181.684H99.0822V180.717H107.467V176.445H96.8146V178.168ZM96.9201 173.633V171.875H100.067V173.633H96.9201ZM102.281 172.561V171.33H105.235V172.561H102.281ZM114.957 168.342H112.724V175.32H120.476V168.342H118.226V170.24H114.957V168.342ZM114.324 178.098H122.709V179.1H114.359V183.512H125.398V181.736H116.556V180.699H124.941V176.357H114.324V178.098ZM114.957 173.562V171.928H118.226V173.562H114.957ZM122.691 175.76H124.941V172.543H127.103V170.732H124.941V167.621H122.691V175.76ZM140.569 167.639H138.336V171.77H135.717V173.58H138.336V179.311H140.569V167.639ZM126.998 175.707L128.141 177.535C130.031 176.911 131.305 175.619 132.017 174.028C132.711 175.461 133.933 176.621 135.7 177.201L136.807 175.426C134.267 174.6 133.124 172.622 133.133 170.768V170.504H136.315V168.711H127.631V170.504H130.848V170.75C130.839 172.798 129.644 174.881 126.998 175.707ZM129.951 183.336H140.955V181.543H132.201V178.291H129.951V183.336ZM158.834 167.639H156.601V171.611H154.439V173.422H156.601V175.021H154.439V176.797H156.601V179.82H158.834V167.639ZM145.386 171.084H154.281V169.309H151.064V167.604H148.832V169.309H145.386V171.084ZM146.177 174.793C146.16 176.639 147.751 177.922 149.922 177.922C152.119 177.922 153.701 176.639 153.719 174.793C153.701 172.947 152.119 171.646 149.922 171.646C147.751 171.646 146.16 172.947 146.177 174.793ZM148.181 183.336H159.168V181.543H150.449V178.783H148.181V183.336ZM148.269 174.793C148.261 173.896 148.946 173.396 149.922 173.387C150.888 173.396 151.6 173.896 151.609 174.793C151.6 175.716 150.888 176.217 149.922 176.217C148.946 176.217 148.261 175.716 148.269 174.793ZM172.985 167.639H170.735V178.432H172.985V174.02H175.024V172.174H172.985V167.639ZM160.012 176.305L160.241 177.992C163.071 177.992 166.753 177.948 170.155 177.359L169.997 175.848C168.757 176.006 167.439 176.111 166.129 176.173V175.32C167.852 175.083 168.916 174.274 168.924 173.088C168.916 171.664 167.377 170.794 165.004 170.803C162.614 170.794 161.076 171.664 161.084 173.088C161.076 174.274 162.148 175.083 163.897 175.32V176.261C162.508 176.296 161.181 176.305 160.012 176.305ZM160.434 170.416H169.592V168.764H166.129V167.498H163.897V168.764H160.434V170.416ZM162.122 181.104C162.122 182.756 164.099 183.635 167.588 183.635C171.051 183.635 173.038 182.756 173.038 181.104C173.038 179.469 171.051 178.555 167.588 178.572C164.099 178.555 162.122 179.469 162.122 181.104ZM163.229 173.088C163.22 172.561 163.862 172.271 165.004 172.262C166.129 172.271 166.771 172.561 166.78 173.088C166.771 173.65 166.129 173.923 165.004 173.932C163.862 173.923 163.22 173.65 163.229 173.088ZM164.372 181.104C164.363 180.479 165.374 180.189 167.588 180.189C169.768 180.189 170.779 180.479 170.788 181.104C170.779 181.71 169.768 182.009 167.588 182C165.374 182.009 164.363 181.71 164.372 181.104Z" fill="#232323"/>
<rect x="23" y="222" width="25" height="191" fill="#EB7805"/>
<rect x="58" y="265" width="25" height="148" fill="#EB7805"/>
<rect x="93" y="350" width="25" height="63" fill="#EB7805"/>
<rect x="128" y="341" width="25" height="72" fill="#EB7805"/>
<rect x="163" y="358" width="25" height="55" fill="#EB7805"/>
<rect x="198" y="358" width="25" height="55" fill="#EB7805"/>
<rect x="233" y="341" width="25" height="72" fill="#EB7805"/>
<rect x="268" y="370" width="25" height="43" fill="#EB7805"/>
<rect x="303" y="341" width="25" height="72" fill="#EB7805"/>
<rect x="338" y="323" width="25" height="90" fill="#EB7805"/>
<path d="M35 251.78C38.5722 247.55 50.6236 242.473 70.2517 256.01C94.7868 272.931 119.981 289.378 154.291 268.982C177.735 255.046 208.461 302.956 250 315.5C285.906 326.343 331.611 302.923 367 284.5" stroke="#01A300" stroke-width="2" stroke-linecap="round"/>
<circle cx="34" cy="253" r="3" fill="#01A300"/>
<circle cx="70" cy="256" r="3" fill="#01A300"/>
<circle cx="105" cy="276" r="3" fill="#01A300"/>
<circle cx="140" cy="276" r="3" fill="#01A300"/>
<circle cx="175" cy="270" r="3" fill="#01A300"/>
<circle cx="245" cy="314" r="3" fill="#01A300"/>
<circle cx="210" cy="294" r="3" fill="#01A300"/>
<circle cx="280" cy="318" r="3" fill="#01A300"/>
<circle cx="315" cy="309" r="3" fill="#01A300"/>
<circle cx="350" cy="293" r="3" fill="#01A300"/>
<circle cx="244" cy="219.5" r="5" fill="#F75E00"/>
<path d="M257.064 213.473H256.012V218.764H261.672V213.473H260.605V215.223H257.064V213.473ZM257.064 217.889V216.057H260.605V217.889H257.064ZM257.242 220.678H263.928V221.936H257.27V224.971H265.445V224.096H258.322V222.756H264.994V219.816H257.242V220.678ZM263.928 219.242H264.994V216.494H266.826V215.592H264.994V212.953H263.928V219.242ZM277.108 212.967H276.028V216.33H273.526V217.219H276.028V221.881H277.108V212.967ZM267.086 219.447L267.647 220.322C269.089 219.782 270.211 218.668 270.737 217.26C271.263 218.518 272.323 219.536 273.69 220.035L274.251 219.174C272.473 218.565 271.256 217.041 271.256 215.469V214.84H273.977V213.951H267.428V214.84H270.176V215.469C270.176 217.212 268.877 218.818 267.086 219.447ZM269.301 224.848H277.45V223.945H270.381V221.074H269.301V224.848ZM289.919 214.867H288.073V212.967H287.007V220.322H288.073V218.34H289.919V217.424H288.073V215.77H289.919V214.867ZM279.091 214.607H283.548V216.152H279.118V219.598H280.062C282.324 219.598 283.951 219.522 285.9 219.201L285.79 218.299C283.897 218.62 282.331 218.702 280.171 218.695V217H284.601V213.719H279.091V214.607ZM280.144 222.893C280.137 224.28 281.668 225.08 284.177 225.08C286.658 225.08 288.183 224.28 288.183 222.893C288.183 221.498 286.658 220.671 284.177 220.678C281.668 220.671 280.137 221.498 280.144 222.893ZM281.196 222.893C281.183 222.038 282.311 221.525 284.177 221.525C286.016 221.525 287.137 222.038 287.144 222.893C287.137 223.74 286.016 224.253 284.177 224.246C282.311 224.253 281.183 223.74 281.196 222.893Z" fill="#232323"/>
<circle cx="316" cy="219.5" r="5" fill="#01A300"/>
<path d="M329.064 213.473H328.012V218.764H333.672V213.473H332.605V215.223H329.064V213.473ZM329.064 217.889V216.057H332.605V217.889H329.064ZM329.242 220.678H335.928V221.936H329.27V224.971H337.445V224.096H330.322V222.756H336.994V219.816H329.242V220.678ZM335.928 219.242H336.994V216.494H338.826V215.592H336.994V212.953H335.928V219.242ZM349.108 212.967H348.028V216.33H345.526V217.219H348.028V221.881H349.108V212.967ZM339.086 219.447L339.647 220.322C341.089 219.782 342.211 218.668 342.737 217.26C343.263 218.518 344.323 219.536 345.69 220.035L346.251 219.174C344.473 218.565 343.256 217.041 343.256 215.469V214.84H345.977V213.951H339.428V214.84H342.176V215.469C342.176 217.212 340.877 218.818 339.086 219.447ZM341.301 224.848H349.45V223.945H342.381V221.074H341.301V224.848ZM361.071 214.771H356.628V213.158H355.575V214.771H351.118V215.66H361.071V214.771ZM350.571 223.713H361.7V222.824H358.692V220.575C359.595 220.192 360.108 219.563 360.101 218.736C360.108 217.287 358.569 216.446 356.109 216.453C353.627 216.446 352.103 217.287 352.116 218.736C352.109 219.563 352.609 220.192 353.511 220.575V222.824H350.571V223.713ZM353.196 218.736C353.183 217.834 354.297 217.301 356.109 217.301C357.9 217.301 359.014 217.834 359.007 218.736C359.014 219.618 357.9 220.151 356.109 220.158C354.297 220.151 353.183 219.618 353.196 218.736ZM354.591 222.824V220.883C355.042 220.965 355.555 221.006 356.109 221.006C356.669 221.006 357.182 220.965 357.64 220.876V222.824H354.591ZM367.648 213.104C364.934 213.104 363.341 213.855 363.341 215.209C363.341 216.576 364.934 217.321 367.648 217.328C370.348 217.321 371.934 216.576 371.941 215.209C371.934 213.855 370.348 213.104 367.648 213.104ZM362.111 218.941H365.132V220.145H363.451V220.965H370.711V222.072H363.478V224.971H372.132V224.123H364.545V222.865H371.763V220.145H370.095V218.941H373.185V218.066H362.111V218.941ZM364.463 215.209C364.449 214.409 365.632 213.938 367.648 213.924C369.665 213.938 370.841 214.409 370.847 215.209C370.841 216.043 369.665 216.494 367.648 216.508C365.632 216.494 364.449 216.043 364.463 215.209ZM366.185 220.145V218.941H369.029V220.145H366.185Z" fill="#232323"/>
</g>
<defs>
<clipPath id="clip0_1442_16751">
<rect width="390" height="844" rx="20" fill="white"/>
</clipPath>
</defs>
</svg>
