<svg width="390" height="844" viewBox="0 0 390 844" fill="none" xmlns="http://www.w3.org/2000/svg">
<g clip-path="url(#clip0_1442_16592)">
<rect width="390" height="844" rx="20" fill="white"/>
<path d="M52.1963 19.8145C49.5815 19.7979 47.8799 21.5908 47.8799 23.8818C47.8799 26.1812 49.6064 27.833 51.7646 27.833C53.0596 27.833 54.1885 27.2188 54.8359 26.2061H54.9854C54.9688 28.9536 53.8813 30.564 52.0303 30.5723C50.8184 30.564 50.0381 29.8584 49.7891 28.8457H47.9795C48.27 30.7964 49.814 32.166 52.0303 32.166C54.9106 32.166 56.7285 29.7754 56.7285 25.5586C56.7202 21.1592 54.4043 19.8311 52.1963 19.8145ZM49.6562 23.8486C49.6479 22.4707 50.7437 21.3418 52.1963 21.3418C53.6655 21.3418 54.7363 22.5288 54.7363 23.832C54.7363 25.1602 53.6157 26.3472 52.1631 26.3389C50.7021 26.3472 49.6646 25.2432 49.6562 23.8486ZM59.153 30.4561C59.7922 30.4478 60.3234 29.9248 60.3317 29.2773C60.3234 28.6299 59.7922 28.0986 59.153 28.0986C58.5055 28.0986 57.966 28.6299 57.9743 29.2773C57.966 29.9248 58.5055 30.4478 59.153 30.4561ZM57.9743 22.7197C57.966 23.3672 58.5055 23.8901 59.153 23.8984C59.7922 23.8901 60.3234 23.3672 60.3317 22.7197C60.3234 22.0723 59.7922 21.541 59.153 21.541C58.5055 21.541 57.966 22.0723 57.9743 22.7197ZM61.5111 29.6592H67.3548V32H69.0814V29.6592H70.725V28.1152H69.0814V19.9805H66.8236L61.5111 28.1816V29.6592ZM63.4369 28.1152V28.0156L67.222 22.1553H67.3548V28.1152H63.4369ZM76.2871 19.9805H74.4942L71.5059 21.9395V23.6826L74.378 21.8066H74.4444V32H76.2871V19.9805Z" fill="black"/>
<rect x="306.352" y="19" width="3.2" height="12" rx="1" fill="black"/>
<rect x="301.051" y="21.4004" width="3.2" height="9.6" rx="1" fill="black"/>
<rect x="295.75" y="24" width="3.2" height="7" rx="1" fill="black"/>
<rect x="290.449" y="26.4004" width="3.2" height="4.6" rx="1" fill="black"/>
<path d="M324.012 27.1328C324.715 27.1328 325.399 27.3177 326.001 27.6701L326.245 27.8129C326.43 27.9212 326.462 28.1746 326.311 28.3259L324.227 30.4036C324.099 30.5312 323.892 30.5312 323.764 30.4036L321.694 28.3392C321.543 28.1886 321.574 27.9365 321.758 27.8274L321.999 27.684C322.607 27.3226 323.299 27.1328 324.012 27.1328Z" fill="black"/>
<path d="M324.01 23.3164C325.76 23.3164 327.44 23.8969 328.808 24.972L329.002 25.1239C329.156 25.245 329.17 25.4733 329.031 25.6117L327.787 26.8521C327.672 26.9668 327.49 26.98 327.359 26.8831L327.208 26.7704C326.283 26.0833 325.169 25.7148 324.01 25.7148C322.843 25.7148 321.722 26.0879 320.795 26.7828L320.643 26.8966C320.512 26.9943 320.33 26.9814 320.214 26.8664L318.971 25.6264C318.832 25.4883 318.846 25.2606 318.999 25.1393L319.191 24.9872C320.563 23.9026 322.251 23.3164 324.01 23.3164Z" fill="black"/>
<path d="M324.01 19.5C326.787 19.5 329.443 20.4796 331.545 22.2752L331.725 22.4285C331.87 22.5524 331.878 22.7731 331.743 22.9078L330.503 24.1441C330.383 24.2639 330.191 24.2723 330.061 24.1635L329.907 24.0351C328.252 22.6512 326.178 21.8984 324.01 21.8984C321.835 21.8984 319.754 22.6564 318.096 24.049L317.943 24.178C317.812 24.2873 317.62 24.2791 317.5 24.1591L316.26 22.9229C316.125 22.7885 316.134 22.5681 316.278 22.4441L316.457 22.2908C318.562 20.4855 321.225 19.5 324.01 19.5Z" fill="black"/>
<rect x="340" y="20.5" width="21" height="9" rx="1.33" fill="black"/>
<path opacity="0.4" fill-rule="evenodd" clip-rule="evenodd" d="M343.6 19.5H357.4C358.397 19.5 359.084 19.5008 359.617 19.5444C360.139 19.587 360.425 19.6655 360.635 19.7725C361.105 20.0122 361.488 20.3946 361.728 20.865C361.834 21.0749 361.913 21.3608 361.956 21.8826C361.999 22.4161 362 23.1034 362 24.1V25.9C362 26.8966 361.999 27.5839 361.956 28.1174C361.913 28.6392 361.834 28.9251 361.728 29.135C361.488 29.6054 361.105 29.9878 360.635 30.2275C360.425 30.3345 360.139 30.413 359.617 30.4556C359.084 30.4992 358.397 30.5 357.4 30.5H343.6C342.603 30.5 341.916 30.4992 341.383 30.4556C340.861 30.413 340.575 30.3345 340.365 30.2275C339.895 29.9878 339.512 29.6054 339.272 29.135C339.166 28.9251 339.087 28.6392 339.044 28.1174C339.001 27.5839 339 26.8966 339 25.9V24.1C339 23.1034 339.001 22.4161 339.044 21.8826C339.087 21.3608 339.166 21.0749 339.272 20.865C339.512 20.3946 339.895 20.0122 340.365 19.7725C340.575 19.6655 340.861 19.587 341.383 19.5444C341.916 19.5008 342.603 19.5 343.6 19.5ZM338 24.1C338 22.1398 338 21.1597 338.381 20.411C338.717 19.7525 339.252 19.217 339.911 18.8815C340.66 18.5 341.64 18.5 343.6 18.5H357.4C359.36 18.5 360.34 18.5 361.089 18.8815C361.748 19.217 362.283 19.7525 362.619 20.411C363 21.1597 363 22.1398 363 24.1V25.9C363 27.8602 363 28.8403 362.619 29.589C362.283 30.2475 361.748 30.783 361.089 31.1185C360.34 31.5 359.36 31.5 357.4 31.5H343.6C341.64 31.5 340.66 31.5 339.911 31.1185C339.252 30.783 338.717 30.2475 338.381 29.589C338 28.8403 338 27.8602 338 25.9V24.1ZM364 27C364.828 26.8 365.5 26.1046 365.5 25C365.5 23.8954 364.828 23.2 364 23L364 25L364 27Z" fill="black"/>
<path d="M185.797 806.773H178.863V804.098H184.332V802.066H173.902V800.074H183.922V794.176H171.383V796.168H181.461V798.121H171.402V804.098H176.383V806.773H169.527V808.824H185.797V806.773ZM200.231 794.664H187.692V796.656H197.751V796.793C197.741 799.156 197.741 801.695 197.067 805.113L199.587 805.328C200.221 801.646 200.221 799.234 200.231 796.793V794.664ZM186.013 808.473H202.223V806.422H186.013V808.473ZM217.38 793.043H214.88V805.816H217.38V793.043ZM202.771 798.648C202.771 801.295 204.9 803.16 207.634 803.16C210.359 803.16 212.488 801.295 212.498 798.648C212.488 796.041 210.359 794.166 207.634 794.176C204.9 794.166 202.771 796.041 202.771 798.648ZM205.213 798.648C205.193 797.203 206.238 796.334 207.634 796.344C208.982 796.334 210.027 797.203 210.037 798.648C210.027 800.133 208.982 800.992 207.634 800.992C206.238 800.992 205.193 800.133 205.213 798.648ZM205.466 810.484H217.849V808.492H207.986V804.527H205.466V810.484Z" fill="white"/>
<path d="M26.9987 119.139C27.6903 119.139 28.3558 119.403 28.8586 119.878C29.3614 120.353 29.6635 121.002 29.7029 121.693L29.707 121.847L29.7079 128.474L29.7745 128.531C30.5511 129.224 31.0399 130.182 31.1445 131.217L31.1604 131.427L31.1654 131.639C31.1655 132.325 30.996 133.001 30.6719 133.606C30.3478 134.212 29.8792 134.727 29.3078 135.108C28.7363 135.488 28.0797 135.722 27.3964 135.787C26.713 135.853 26.024 135.748 25.3907 135.483C24.7574 135.218 24.1993 134.801 23.7661 134.268C23.333 133.736 23.0381 133.104 22.9078 132.43C22.7775 131.756 22.8157 131.061 23.0191 130.405C23.2225 129.749 23.5848 129.154 24.0737 128.672L24.2237 128.53L24.2895 128.474L24.2904 121.847C24.2902 121.181 24.5352 120.539 24.9785 120.043C25.4218 119.546 26.0324 119.23 26.6937 119.155L26.8454 119.143L26.9987 119.139ZM26.9987 120.389C26.6326 120.389 26.2799 120.526 26.0106 120.775C25.7414 121.023 25.5753 121.363 25.5454 121.728L25.5404 121.847V129.092L25.2829 129.28C24.7909 129.637 24.4231 130.14 24.2311 130.717C24.039 131.295 24.0322 131.917 24.2117 132.499C24.3912 133.08 24.748 133.591 25.2321 133.959C25.7162 134.328 26.3033 134.535 26.9114 134.554C27.5195 134.572 28.1181 134.399 28.6233 134.06C29.1285 133.722 29.5151 133.233 29.729 132.664C29.9429 132.094 29.9733 131.472 29.8161 130.884C29.6588 130.297 29.3218 129.773 28.852 129.386L28.7145 129.28L28.4587 129.093L28.457 121.847C28.457 121.46 28.3034 121.089 28.0299 120.816C27.7564 120.542 27.3855 120.389 26.9987 120.389V120.389ZM26.9987 124.139C27.1645 124.139 27.3234 124.205 27.4406 124.322C27.5578 124.439 27.6237 124.598 27.6237 124.764V129.651C28.0987 129.801 28.5046 130.115 28.7679 130.538C29.0311 130.96 29.1343 131.463 29.0587 131.956C28.9832 132.448 28.7339 132.897 28.3561 133.221C27.9782 133.545 27.4967 133.724 26.9987 133.724C26.5007 133.724 26.0192 133.545 25.6413 133.221C25.2635 132.897 25.0142 132.448 24.9387 131.956C24.8631 131.463 24.9663 130.96 25.2295 130.538C25.4928 130.115 25.8987 129.801 26.3737 129.651V124.764C26.3737 124.598 26.4395 124.439 26.5568 124.322C26.674 124.205 26.8329 124.139 26.9987 124.139V124.139Z" fill="black"/>
<path d="M52.5664 127.406H47.5625V126.135C49.8662 126.012 51.3154 125.137 51.3223 123.701C51.3154 122.204 49.6406 121.302 47.0293 121.295C44.3906 121.302 42.7227 122.204 42.7227 123.701C42.7227 125.137 44.165 126.012 46.4961 126.135V127.406H41.4922V128.295H52.5664V127.406ZM42.9277 132.82H51.3359V131.918H44.0078V129.279H42.9277V132.82ZM43.8301 123.701C43.8232 122.771 45.0674 122.17 47.0293 122.17C48.9775 122.17 50.2217 122.771 50.2285 123.701C50.2217 124.692 48.9775 125.26 47.0293 125.26C45.0674 125.26 43.8232 124.692 43.8301 123.701ZM62.8482 126.627H55.5337V122.799H62.7252V121.924H54.4537V127.502H58.0357V130.646H53.0318V131.549H64.1607V130.646H59.0884V127.502H62.8482V126.627Z" fill="#232323"/>
<path d="M73.3477 132.109C75.3232 132.109 76.7998 130.906 76.793 129.279C76.7998 128.021 76.0205 127.099 74.7285 126.9V126.832C75.7676 126.538 76.4238 125.718 76.4102 124.59C76.4238 123.175 75.2754 121.938 73.3887 121.938C71.6318 121.938 70.1689 122.99 70.1074 124.562H71.2969C71.3516 123.592 72.3154 123.011 73.375 123.004C74.5029 123.011 75.2275 123.667 75.2207 124.658C75.2275 125.677 74.3867 126.354 73.1836 126.354H72.377V127.434H73.1836C74.7217 127.44 75.583 128.199 75.5898 129.279C75.583 130.312 74.6396 131.016 73.334 131.016C72.1514 131.016 71.2148 130.428 71.1465 129.484H69.9023C69.9639 131.057 71.3789 132.109 73.3477 132.109ZM80.0748 126.449C81.3052 126.449 82.3033 125.458 82.3033 124.234C82.3033 122.99 81.3052 121.992 80.0748 121.992C78.8375 121.992 77.8462 122.99 77.8462 124.234C77.8462 125.458 78.8375 126.449 80.0748 126.449ZM78.817 124.234C78.8238 123.53 79.3843 122.983 80.0748 122.977C80.7652 122.983 81.3121 123.53 81.3189 124.234C81.3121 124.918 80.7652 125.479 80.0748 125.479C79.3843 125.479 78.8238 124.918 78.817 124.234Z" fill="#232323"/>
<path d="M112.25 121.473C112.25 121.473 108.25 126.44 108.25 129.954C108.25 132.727 109.796 134.473 112.25 134.473C114.704 134.473 116.25 132.727 116.25 129.954C116.25 126.44 112.25 121.473 112.25 121.473V121.473ZM112.694 132.841V132.088C113.136 132.087 113.56 131.889 113.872 131.536C114.185 131.183 114.361 130.704 114.361 130.205H115.028C115.027 130.904 114.781 131.574 114.344 132.068C113.906 132.562 113.313 132.84 112.694 132.841Z" fill="#59D4FE"/>
<path d="M129.217 128.227H128.15V132.916H136.367V128.227H135.287V129.648H129.217V128.227ZM126.742 127.365H137.816V126.477H126.742V127.365ZM127.371 124.754L127.781 125.615C129.654 125.335 131.514 124.385 132.286 123.018C133.059 124.378 134.911 125.335 136.791 125.615L137.188 124.754C135.048 124.48 132.833 123.134 132.84 121.637V121.062H131.732V121.637C131.732 123.182 129.538 124.46 127.371 124.754ZM129.217 132.055V130.496H135.287V132.055H129.217ZM148.098 126.627H140.784V122.799H147.975V121.924H139.704V127.502H143.286V130.646H138.282V131.549H149.411V130.646H144.338V127.502H148.098V126.627Z" fill="#232323"/>
<path d="M154.934 129.949H159.732V131.973H160.908V129.949H162.289V128.869H160.908V122.074H159.391L154.934 128.938V129.949ZM156.26 128.869V128.787L159.609 123.633H159.732V128.869H156.26ZM166.651 121.938C164.545 121.917 163.192 123.414 163.192 125.26C163.192 127.167 164.662 128.527 166.432 128.527C167.485 128.527 168.394 128.035 168.961 127.215H169.098C169.085 129.621 168.1 131.016 166.487 131.016C165.386 131.016 164.71 130.359 164.491 129.471H163.274C163.52 131.043 164.744 132.109 166.487 132.109C168.804 132.109 170.247 130.147 170.247 126.627C170.247 122.983 168.353 121.958 166.651 121.938ZM164.395 125.246C164.381 124.022 165.359 123.018 166.651 123.018C167.957 123.018 168.907 124.084 168.907 125.219C168.907 126.381 167.902 127.447 166.61 127.447C165.318 127.447 164.388 126.47 164.395 125.246ZM172.61 128.184C173.519 128.188 174.022 127.495 174.026 126.484C174.022 125.488 173.538 124.795 172.61 124.795C171.717 124.795 171.19 125.488 171.194 126.484C171.19 127.495 171.697 128.188 172.61 128.184ZM171.888 131.973H172.679L177.542 124.902H176.751L171.888 131.973ZM171.907 126.484C171.907 125.835 172.147 125.405 172.61 125.4C173.104 125.391 173.314 125.835 173.314 126.484C173.314 127.144 173.089 127.578 172.61 127.578C172.137 127.578 171.907 127.144 171.907 126.484ZM175.511 130.381C175.501 131.387 176.004 132.075 176.927 132.07C177.83 132.075 178.333 131.387 178.333 130.381C178.333 129.375 177.84 128.687 176.927 128.682C176.024 128.687 175.501 129.375 175.511 130.381ZM176.214 130.381C176.219 129.722 176.453 129.292 176.927 129.287C177.415 129.277 177.62 129.722 177.62 130.381C177.62 131.035 177.401 131.47 176.927 131.465C176.448 131.47 176.219 131.035 176.214 130.381Z" fill="#232323"/>
<path d="M206.211 126.762V129.887H206.914V126.762H206.211ZM203.711 128.856L203.062 129.125L203.66 130.568L204.309 130.299L203.711 128.856ZM209.414 128.856L208.816 130.299L209.465 130.568L210.063 129.125L209.414 128.856ZM199.601 129.303L199.104 129.801L201.314 132.01L201.811 131.513L199.601 129.303ZM213.524 129.303L211.314 131.513L211.811 132.01L214.021 129.801L213.524 129.303ZM206.562 131.41C205.746 131.41 204.945 131.625 204.238 132.033C202.902 132.805 202.044 134.183 201.929 135.707H211.196C211.081 134.183 210.223 132.805 208.887 132.033C208.18 131.625 207.379 131.41 206.562 131.41ZM199.16 133.339L198.891 133.989L200.334 134.586L200.603 133.937L199.16 133.339ZM213.965 133.339L212.522 133.937L212.791 134.586L214.234 133.989L213.965 133.339ZM197.5 135.41V136.113H215.625V135.41H197.5Z" fill="#EB7805"/>
<path d="M207.813 121.957L207.812 124.457L205.312 124.457L205.313 121.957L204.063 121.957L206.563 118.832L209.063 121.957L207.813 121.957Z" fill="#292929"/>
<path d="M207.813 121.957L207.812 124.457L205.312 124.457L205.313 121.957L204.063 121.957L206.563 118.832L209.063 121.957L207.813 121.957Z" fill="#292929"/>
<path d="M223.562 121.377C221.724 121.384 220.397 122.491 220.404 124.07C220.397 125.656 221.724 126.75 223.562 126.75C225.381 126.75 226.7 125.656 226.707 124.07C226.7 122.491 225.381 121.384 223.562 121.377ZM221.457 124.07C221.443 123.018 222.339 122.272 223.562 122.279C224.766 122.272 225.668 123.018 225.668 124.07C225.668 125.137 224.766 125.875 223.562 125.875C222.339 125.875 221.443 125.137 221.457 124.07ZM222.25 128.623H229.086V129.881H222.277V132.916H230.59V132.055H223.33V130.688H230.152V127.762H222.25V128.623ZM229.086 127.174H230.152V120.926H229.086V127.174ZM242.731 126.34H231.67V127.174H236.661V128.309H232.997V129.115H240.256V130.168H233.024V132.943H241.678V132.123H234.09V130.934H241.309V128.309H237.713V127.174H242.731V126.34ZM232.258 124.959L232.573 125.779C234.61 125.608 236.442 124.979 237.194 123.824C237.939 124.979 239.771 125.608 241.801 125.779L242.129 124.959C239.887 124.815 237.987 124.057 237.795 122.84H241.61V121.992H237.713V120.857H236.661V121.992H232.805V122.84H236.586C236.387 124.057 234.487 124.815 232.258 124.959Z" fill="#232323"/>
<path d="M251.199 131.59C253.08 131.59 254.164 130.008 254.164 127.23C254.164 124.477 253.062 122.871 251.199 122.871C249.33 122.871 248.229 124.477 248.234 127.23C248.229 130.008 249.318 131.59 251.199 131.59ZM249.254 127.23C249.26 125.033 249.98 123.791 251.199 123.785C252.418 123.791 253.139 125.033 253.133 127.23C253.139 129.428 252.424 130.652 251.199 130.652C249.969 130.652 249.26 129.428 249.254 127.23ZM258.043 131.59C259.831 131.607 260.997 130.33 260.997 128.73C260.997 127.09 259.737 125.918 258.231 125.918C257.317 125.918 256.538 126.334 256.051 127.043H255.946C255.94 124.998 256.778 123.809 258.172 123.809C259.116 123.809 259.69 124.371 259.883 125.121H260.926C260.709 123.791 259.666 122.871 258.172 122.871C256.18 122.871 254.95 124.553 254.95 127.559C254.95 130.699 256.573 131.572 258.043 131.59ZM256.086 128.754C256.098 127.752 256.954 126.85 258.067 126.844C259.174 126.85 259.971 127.699 259.977 128.742C259.971 129.797 259.139 130.658 258.043 130.664C256.907 130.658 256.092 129.75 256.086 128.754ZM262.696 130.348C263.112 130.342 263.452 130.002 263.446 129.586C263.452 129.176 263.112 128.836 262.696 128.836C262.286 128.836 261.935 129.176 261.946 129.586C261.935 130.002 262.286 130.342 262.696 130.348ZM261.946 124.875C261.935 125.291 262.286 125.631 262.696 125.637C263.112 125.631 263.452 125.291 263.446 124.875C263.452 124.465 263.112 124.125 262.696 124.125C262.286 124.125 261.935 124.465 261.946 124.875ZM267.314 131.59C269.195 131.59 270.279 130.008 270.279 127.23C270.279 124.477 269.177 122.871 267.314 122.871C265.445 122.871 264.343 124.477 264.349 127.23C264.343 130.008 265.433 131.59 267.314 131.59ZM265.369 127.23C265.374 125.033 266.095 123.791 267.314 123.785C268.533 123.791 269.253 125.033 269.247 127.23C269.253 129.428 268.539 130.652 267.314 130.652C266.083 130.652 265.374 129.428 265.369 127.23ZM274.041 131.59C275.81 131.59 277.053 130.6 277.064 129.223C277.053 128.127 276.291 127.219 275.33 127.066V127.02C276.162 126.826 276.725 126.047 276.736 125.121C276.725 123.826 275.588 122.871 274.041 122.871C272.488 122.871 271.351 123.826 271.357 125.121C271.351 126.047 271.908 126.826 272.752 127.02V127.066C271.785 127.219 271.023 128.127 271.029 129.223C271.023 130.6 272.254 131.59 274.041 131.59ZM272.084 129.164C272.066 128.227 272.904 127.535 274.041 127.535C275.184 127.535 276.01 128.227 276.01 129.164C276.01 130.055 275.254 130.658 274.041 130.664C272.822 130.658 272.066 130.055 272.084 129.164ZM272.377 125.203C272.383 124.354 273.033 123.779 274.041 123.785C275.031 123.779 275.705 124.354 275.705 125.203C275.705 126.059 275.008 126.639 274.041 126.645C273.068 126.639 272.383 126.059 272.377 125.203Z" fill="#232323"/>
<path d="M305.586 126.762V129.887H306.289V126.762H305.586ZM303.086 128.856L302.437 129.125L303.035 130.568L303.684 130.299L303.086 128.856ZM308.789 128.856L308.191 130.299L308.84 130.568L309.438 129.125L308.789 128.856ZM298.976 129.303L298.479 129.801L300.689 132.01L301.186 131.513L298.976 129.303ZM312.899 129.303L310.689 131.513L311.186 132.01L313.396 129.801L312.899 129.303ZM305.938 131.41C305.121 131.41 304.32 131.625 303.613 132.033C302.277 132.805 301.419 134.183 301.304 135.707H310.571C310.456 134.183 309.598 132.805 308.262 132.033C307.555 131.625 306.754 131.41 305.938 131.41ZM298.535 133.339L298.266 133.989L299.709 134.586L299.978 133.937L298.535 133.339ZM313.34 133.339L311.897 133.937L312.166 134.586L313.609 133.989L313.34 133.339ZM296.875 135.41V136.113H315V135.41H296.875Z" fill="#EB7805"/>
<path d="M304.688 121.332V118.832H307.188V121.332H308.438L305.938 124.457L303.438 121.332H304.688Z" fill="#292929"/>
<path d="M322.938 121.377C321.099 121.384 319.772 122.491 319.779 124.07C319.772 125.656 321.099 126.75 322.938 126.75C324.756 126.75 326.075 125.656 326.082 124.07C326.075 122.491 324.756 121.384 322.938 121.377ZM320.832 124.07C320.818 123.018 321.714 122.272 322.938 122.279C324.141 122.272 325.043 123.018 325.043 124.07C325.043 125.137 324.141 125.875 322.938 125.875C321.714 125.875 320.818 125.137 320.832 124.07ZM321.625 128.623H328.461V129.881H321.652V132.916H329.965V132.055H322.705V130.688H329.527V127.762H321.625V128.623ZM328.461 127.174H329.527V120.926H328.461V127.174ZM342.106 126.244H337.075V125.041H340.67V121.336H332.467V125.041H336.022V126.244H331.032V127.133H342.106V126.244ZM332.372 128.979H339.631V130.059H332.399V132.943H341.053V132.096H333.465V130.865H340.684V128.145H332.372V128.979ZM333.534 124.18V122.197H339.604V124.18H333.534Z" fill="#232323"/>
<path d="M350.797 122.988H349.73L347.621 124.395V125.461L349.684 124.09H349.73V131.473H350.797V122.988ZM355.403 122.871C353.598 122.854 352.438 124.137 352.438 125.719C352.438 127.354 353.698 128.52 355.215 128.52C356.118 128.52 356.897 128.098 357.383 127.395H357.5C357.489 129.457 356.645 130.652 355.262 130.652C354.319 130.652 353.739 130.09 353.551 129.328H352.508C352.719 130.676 353.768 131.59 355.262 131.59C357.249 131.59 358.485 129.908 358.485 126.891C358.485 123.768 356.862 122.889 355.403 122.871ZM353.469 125.707C353.457 124.658 354.295 123.797 355.403 123.797C356.522 123.797 357.336 124.711 357.336 125.684C357.336 126.68 356.475 127.594 355.368 127.594C354.26 127.594 353.463 126.756 353.469 125.707ZM360.185 130.348C360.601 130.342 360.94 130.002 360.935 129.586C360.94 129.176 360.601 128.836 360.185 128.836C359.774 128.836 359.423 129.176 359.435 129.586C359.423 130.002 359.774 130.342 360.185 130.348ZM359.435 124.875C359.423 125.291 359.774 125.631 360.185 125.637C360.601 125.631 360.94 125.291 360.935 124.875C360.94 124.465 360.601 124.125 360.185 124.125C359.774 124.125 359.423 124.465 359.435 124.875ZM364.802 131.59C366.683 131.59 367.767 130.008 367.767 127.23C367.767 124.477 366.665 122.871 364.802 122.871C362.933 122.871 361.831 124.477 361.837 127.23C361.831 130.008 362.921 131.59 364.802 131.59ZM362.857 127.23C362.863 125.033 363.583 123.791 364.802 123.785C366.021 123.791 366.742 125.033 366.736 127.23C366.742 129.428 366.027 130.652 364.802 130.652C363.572 130.652 362.863 129.428 362.857 127.23ZM371.693 122.988H370.627L368.517 124.395V125.461L370.58 124.09H370.627V131.473H371.693V122.988Z" fill="#232323"/>
<path d="M26 169.973L28.9167 167.056M32.9167 172.473C33.25 171.639 33.5 170.639 33.5 169.639C33.5 165.639 30.1667 162.473 26 162.473C21.8333 162.473 18.5 165.639 18.5 169.639C18.5 170.639 18.75 171.639 19.0833 172.473" stroke="black" stroke-width="1.66667" stroke-linecap="round" stroke-linejoin="round"/>
<path d="M57.8516 160.094H55.6191V168.197H57.8516V160.094ZM44.4043 166.475L45.5117 168.232C47.4189 167.661 48.7285 166.439 49.4492 164.884C50.1787 166.308 51.4443 167.424 53.2812 167.951L54.3711 166.229C51.752 165.473 50.5918 163.618 50.6094 161.676V160.445H48.2715V161.676C48.2715 163.662 47.0762 165.675 44.4043 166.475ZM47.1289 170.623H55.6367V171.555H47.1641V175.984H58.3086V174.209H49.3613V173.225H57.8691V168.883H47.1289V170.623ZM65.5339 163.715V161.324H63.2663V163.715C63.2575 166.817 61.8952 169.885 59.1003 171.062L60.4538 172.926C62.405 172.038 63.7146 170.298 64.4353 168.136C65.1648 170.113 66.4304 171.713 68.2585 172.539L69.5769 170.746C66.8611 169.595 65.5251 166.65 65.5339 163.715ZM70.4382 176.125H72.7058V160.094H70.4382V176.125ZM86.8393 160.094H84.5717V171.555H86.8393V166.422H89.0014V164.576H86.8393V160.094ZM74.0424 168.215L74.9741 169.99C79.7729 168.637 82.4711 165.613 82.4799 161.289H74.7455V163.117H80.0102C79.6586 165.367 77.6284 167.222 74.0424 168.215ZM76.433 175.809H87.3842V174.016H78.7006V170.377H76.433V175.809ZM95.12 160.814H92.8876V167.793H100.64V160.814H98.3895V162.713H95.12V160.814ZM94.4872 170.57H102.872V171.572H94.5223V175.984H105.561V174.209H96.7196V173.172H105.104V168.83H94.4872V170.57ZM95.12 166.035V164.4H98.3895V166.035H95.12ZM102.854 168.232H105.104V165.016H107.266V163.205H105.104V160.094H102.854V168.232ZM120.732 160.111H118.5V164.242H115.88V166.053H118.5V171.783H120.732V160.111ZM107.162 168.18L108.304 170.008C110.194 169.384 111.468 168.092 112.18 166.501C112.875 167.934 114.096 169.094 115.863 169.674L116.97 167.898C114.43 167.072 113.288 165.095 113.296 163.24V162.977H116.478V161.184H107.795V162.977H111.011V163.223C111.003 165.271 109.807 167.354 107.162 168.18ZM110.115 175.809H121.119V174.016H112.365V170.764H110.115V175.809ZM138.997 160.111H136.765V164.084H134.603V165.895H136.765V167.494H134.603V169.27H136.765V172.293H138.997V160.111ZM125.55 163.557H134.444V161.781H131.228V160.076H128.995V161.781H125.55V163.557ZM126.341 167.266C126.323 169.111 127.914 170.395 130.085 170.395C132.282 170.395 133.864 169.111 133.882 167.266C133.864 165.42 132.282 164.119 130.085 164.119C127.914 164.119 126.323 165.42 126.341 167.266ZM128.345 175.809H139.331V174.016H130.612V171.256H128.345V175.809ZM128.433 167.266C128.424 166.369 129.109 165.868 130.085 165.859C131.052 165.868 131.764 166.369 131.772 167.266C131.764 168.188 131.052 168.689 130.085 168.689C129.109 168.689 128.424 168.188 128.433 167.266ZM153.148 160.111H150.898V170.904H153.148V166.492H155.187V164.646H153.148V160.111ZM140.176 168.777L140.404 170.465C143.234 170.465 146.917 170.421 150.318 169.832L150.16 168.32C148.921 168.479 147.602 168.584 146.293 168.646V167.793C148.015 167.556 149.079 166.747 149.088 165.561C149.079 164.137 147.541 163.267 145.168 163.275C142.777 163.267 141.239 164.137 141.248 165.561C141.239 166.747 142.311 167.556 144.06 167.793V168.733C142.672 168.769 141.344 168.777 140.176 168.777ZM140.597 162.889H149.756V161.236H146.293V159.971H144.06V161.236H140.597V162.889ZM142.285 173.576C142.285 175.229 144.262 176.107 147.752 176.107C151.215 176.107 153.201 175.229 153.201 173.576C153.201 171.941 151.215 171.027 147.752 171.045C144.262 171.027 142.285 171.941 142.285 173.576ZM143.392 165.561C143.384 165.033 144.025 164.743 145.168 164.734C146.293 164.743 146.934 165.033 146.943 165.561C146.934 166.123 146.293 166.396 145.168 166.404C144.025 166.396 143.384 166.123 143.392 165.561ZM144.535 173.576C144.526 172.952 145.537 172.662 147.752 172.662C149.931 172.662 150.942 172.952 150.951 173.576C150.942 174.183 149.931 174.481 147.752 174.473C145.537 174.481 144.526 174.183 144.535 173.576Z" fill="#232323"/>
<rect x="16" y="194.473" width="358" height="225" rx="20" fill="white"/>
<path d="M182.355 291.303H180.619V293.381H178.322V292.109H176.6V294.023H174.152V292.109H172.402V298.508H178.322V297.441H180.619V300.477H182.355V291.303ZM174.07 303.512H182.615V302.117H175.834V299.561H174.07V303.512ZM174.152 297.141V295.35H176.6V297.141H174.152ZM178.322 296.047V294.789H180.619V296.047H178.322ZM193.362 291.289H191.612V300.996H193.362V296.812H194.948V295.377H193.362V291.289ZM183.272 298.439L183.45 299.779C185.596 299.759 188.543 299.725 191.161 299.219L191.038 298.016C190.074 298.159 189.048 298.255 188.03 298.316V297.681C189.363 297.482 190.197 296.812 190.204 295.842C190.197 294.611 188.987 293.894 187.155 293.9C185.309 293.894 184.099 294.611 184.106 295.842C184.099 296.819 184.94 297.489 186.294 297.681V298.398C185.207 298.433 184.168 298.439 183.272 298.439ZM183.6 293.545H190.723V292.301H188.03V291.248H186.294V292.301H183.6V293.545ZM185.022 303.512H193.786V302.117H186.772V300.354H185.022V303.512ZM185.774 295.842C185.767 295.315 186.266 295.062 187.155 295.062C188.03 295.062 188.529 295.315 188.536 295.842C188.529 296.307 188.03 296.573 187.155 296.566C186.266 296.573 185.767 296.307 185.774 295.842ZM205.79 292.875H201.47V291.426H199.747V292.875H195.441V294.27H205.79V292.875ZM194.948 302.486H206.337V301.092H203.534V299.041C204.375 298.631 204.854 298.002 204.847 297.182C204.854 295.664 203.22 294.775 200.609 294.775C197.977 294.775 196.343 295.664 196.357 297.182C196.35 298.002 196.821 298.631 197.669 299.041V301.092H194.948V302.486ZM198.148 297.182C198.141 296.471 198.995 296.115 200.609 296.115C202.188 296.115 203.056 296.471 203.056 297.182C203.056 297.879 202.188 298.228 200.609 298.221C198.995 298.228 198.141 297.879 198.148 297.182ZM199.419 301.092V299.506C199.788 299.554 200.185 299.574 200.609 299.574C201.039 299.574 201.436 299.554 201.812 299.506V301.092H199.419ZM212.162 291.398C209.291 291.398 207.623 292.15 207.623 293.531C207.623 294.905 209.291 295.65 212.162 295.65C215.026 295.65 216.68 294.905 216.687 293.531C216.68 292.15 215.026 291.398 212.162 291.398ZM206.488 297.537H209.345V298.412H207.8V299.684H214.732V300.367H207.814V303.648H216.783V302.336H209.523V301.584H216.455V298.412H214.992V297.537H217.836V296.17H206.488V297.537ZM209.455 293.531C209.448 292.964 210.337 292.684 212.162 292.684C214.001 292.684 214.882 292.964 214.882 293.531C214.882 294.126 214.001 294.372 212.162 294.379C210.337 294.372 209.448 294.126 209.455 293.531ZM211.068 298.412V297.537H213.256V298.412H211.068Z" fill="#908F99"/>
<path d="M168.777 312.402C164.307 312.389 161.285 315.287 161.285 319.266C161.312 322.957 163.938 325.637 167.492 325.637C169.693 325.637 171.648 324.598 172.578 322.848H172.742C172.729 326.799 171.307 329.219 168.613 329.219C167.027 329.219 165.893 328.357 165.551 326.895H161.504C161.9 330.244 164.635 332.746 168.613 332.746C173.59 332.746 176.775 328.781 176.762 322.055C176.762 314.863 172.879 312.416 168.777 312.402ZM165.305 319.156C165.277 317.188 166.781 315.643 168.805 315.629C170.828 315.643 172.305 317.242 172.332 319.129C172.332 321.029 170.787 322.629 168.777 322.629C166.74 322.629 165.305 321.111 165.305 319.156ZM178.65 332.473H182.915L191.255 316.094V312.676H177.282V316.039H186.989V316.176L178.65 332.473ZM191.858 332.719C193.074 332.719 194.127 331.693 194.127 330.422C194.127 329.164 193.074 328.139 191.858 328.152C190.573 328.139 189.533 329.164 189.561 330.422C189.533 331.693 190.573 332.719 191.858 332.719ZM196.234 332.473H210.398V329.082H201.949V328.973L204.956 326.047C209.031 322.355 210.124 320.51 210.124 318.254C210.124 314.822 207.308 312.402 203.07 312.402C198.9 312.402 196.029 314.877 196.042 318.746H199.952C199.939 316.846 201.156 315.67 203.015 315.684C204.833 315.67 206.16 316.764 206.16 318.527C206.16 320.1 205.161 321.193 203.316 322.957L196.206 329.492L196.234 332.473ZM215.469 325.402C217.559 325.402 218.721 323.879 218.731 321.633C218.721 319.396 217.588 317.844 215.469 317.844C213.409 317.844 212.208 319.396 212.208 321.633C212.208 323.859 213.35 325.402 215.469 325.402ZM214.2 321.633C214.209 320.432 214.639 319.592 215.469 319.582C216.348 319.582 216.729 320.412 216.739 321.633C216.729 322.854 216.309 323.654 215.469 323.664C214.649 323.654 214.209 322.854 214.2 321.633ZM214.239 332.473H216.426L226.153 318.332H223.965L214.239 332.473ZM221.758 329.172C221.758 331.398 222.901 332.941 225 332.941C227.11 332.941 228.272 331.418 228.282 329.172C228.272 326.936 227.139 325.393 225 325.383C222.959 325.393 221.758 326.936 221.758 329.172ZM223.75 329.172C223.76 327.971 224.18 327.131 225 327.141C225.889 327.121 226.28 327.951 226.29 329.172C226.28 330.393 225.86 331.203 225 331.203C224.2 331.203 223.76 330.393 223.75 329.172Z" fill="#232323"/>
<mask id="mask0_1442_16592" style="mask-type:alpha" maskUnits="userSpaceOnUse" x="70" y="194" width="250" height="154">
<rect x="70" y="194.473" width="250" height="153" fill="#D9D9D9"/>
</mask>
<g mask="url(#mask0_1442_16592)">
<path d="M70.5011 347.176C70.5011 330.864 73.714 314.712 79.9564 299.642C86.1987 284.571 95.3483 270.878 106.883 259.344C118.417 247.809 132.11 238.66 147.181 232.417C162.251 226.175 178.403 222.962 194.715 222.962C211.027 222.962 227.18 226.175 242.25 232.417C257.321 238.66 271.014 247.809 282.548 259.344C294.083 270.878 303.232 284.571 309.474 299.642C315.717 314.712 318.93 330.864 318.93 347.176L296.122 347.176C296.122 333.859 293.499 320.673 288.403 308.37C283.307 296.066 275.837 284.887 266.421 275.471C257.004 266.054 245.825 258.585 233.522 253.489C221.219 248.392 208.032 245.77 194.715 245.77C181.398 245.77 168.212 248.392 155.909 253.489C143.605 258.585 132.426 266.054 123.01 275.471C113.593 284.887 106.124 296.066 101.028 308.37C95.9316 320.673 93.3086 333.859 93.3086 347.176L70.5011 347.176Z" fill="#D9D9D9"/>
<path d="M70.5011 347.176C70.5011 316.456 81.8849 286.826 102.454 264.008C123.023 241.19 151.317 226.804 181.873 223.628C212.429 220.452 243.077 228.711 267.899 246.81C292.721 264.91 309.956 291.566 316.274 321.629L293.954 326.32C288.796 301.777 274.726 280.015 254.462 265.239C234.197 250.463 209.176 243.72 184.231 246.313C159.286 248.906 136.187 260.651 119.394 279.279C102.602 297.907 93.3086 322.097 93.3086 347.176L70.5011 347.176Z" fill="#EB7805"/>
</g>
<path d="M94.0486 380.602C91.8162 380.607 90.1755 381.715 90.1814 383.391C90.1755 384.961 91.5525 386.01 93.4978 386.168V388.23H89.2673V389.156H98.8767V388.23H94.5994V386.168C96.5564 386.01 97.9275 384.961 97.9275 383.391C97.9275 381.715 96.2927 380.607 94.0486 380.602ZM91.2595 383.391C91.2595 382.254 92.4314 381.504 94.0486 381.516C95.6775 381.504 96.8435 382.254 96.8494 383.391C96.8435 384.568 95.6775 385.301 94.0486 385.312C92.4314 385.301 91.2595 384.568 91.2595 383.391ZM107.631 382.359H101.514V380.121H100.424V383.262H107.631V382.359ZM99.1467 385.078H108.756V384.188H99.1467V385.078ZM100.319 386.789H106.447V387.668H100.342V390.34H107.912V389.461H101.455V388.488H107.549V385.922H100.319V386.789ZM112.471 380.719C110.819 380.713 109.606 381.738 109.612 383.215C109.606 384.691 110.819 385.717 112.471 385.723C114.13 385.717 115.325 384.691 115.331 383.215C115.325 381.738 114.13 380.713 112.471 380.719ZM109.108 387.305L109.249 388.23C111.124 388.23 113.673 388.219 116.046 387.762L115.964 386.953C113.667 387.287 111.018 387.305 109.108 387.305ZM110.714 383.215C110.702 382.295 111.452 381.68 112.471 381.68C113.491 381.68 114.241 382.295 114.241 383.215C114.241 384.146 113.491 384.75 112.471 384.75C111.452 384.75 110.702 384.146 110.714 383.215ZM116.62 390.492H117.733V379.969H116.62V390.492ZM130.425 379.969H129.359V390.469H130.425V379.969ZM121.507 384.504C121.507 386.783 122.398 388.213 123.769 388.207C125.07 388.213 125.943 386.941 126.043 384.891H127.226V389.953H128.293V380.168H127.226V383.988H126.037C125.908 382.02 125.047 380.807 123.769 380.812C122.398 380.807 121.507 382.23 121.507 384.504ZM122.539 384.504C122.539 382.828 123.013 381.85 123.769 381.855C124.543 381.85 125.023 382.828 125.023 384.504C125.023 386.174 124.543 387.158 123.769 387.152C123.013 387.158 122.539 386.174 122.539 384.504ZM140.047 379.969H138.934V383.355H135.805V384.27H138.934V390.492H140.047V379.969ZM131.844 387.961H132.688C134.334 387.967 135.858 387.873 137.551 387.527L137.41 386.613C135.881 386.918 134.469 387.012 132.969 387.035V381.129H131.844V387.961ZM145.04 383.062V381.949H147.43V381.023H141.512V381.949H143.915V383.062C143.903 384.873 142.731 386.842 141.149 387.586L141.794 388.465C143.018 387.867 144.003 386.59 144.489 385.09C144.975 386.49 145.96 387.65 147.196 388.195L147.805 387.328C146.188 386.637 145.034 384.82 145.04 383.062ZM148.755 390.469H149.868V379.969H148.755V390.469ZM162.267 379.98H161.154V381.844H158.857V380.672H157.755V382.453H155.13V380.672H154.017V385.992H158.857V385.008H161.154V387.738H162.267V379.98ZM155.13 385.09V383.309H157.755V385.09H155.13ZM155.412 390.246H162.502V389.344H156.537V386.977H155.412V390.246ZM158.857 384.105V382.758H161.154V384.105H158.857ZM171.666 379.969H170.553V388.172H171.666V384.492H173.166V383.566H171.666V379.969ZM163.334 386.133L163.451 387.023C165.285 387.006 167.811 386.977 170.049 386.555L169.955 385.77C169.076 385.904 168.127 385.992 167.19 386.045V385.359C168.373 385.225 169.117 384.65 169.123 383.789C169.117 382.77 168.133 382.16 166.627 382.172C165.121 382.16 164.119 382.77 164.131 383.789C164.119 384.65 164.881 385.225 166.076 385.365V386.098C165.086 386.133 164.143 386.133 163.334 386.133ZM163.604 381.762H169.662V380.941H167.19V379.934H166.076V380.941H163.604V381.762ZM164.881 390.246H172.041V389.344H165.994V387.621H164.881V390.246ZM165.186 383.789C165.186 383.244 165.731 382.928 166.627 382.934C167.512 382.928 168.063 383.244 168.057 383.789C168.063 384.299 167.512 384.621 166.627 384.621C165.731 384.621 165.186 384.299 165.186 383.789ZM182.389 381.457H178.628V380.121H177.526V381.457H173.753V382.359H182.389V381.457ZM173.295 389.309H182.905V388.406H180.385V386.531C181.147 386.197 181.575 385.658 181.569 384.949C181.575 383.695 180.227 382.957 178.077 382.969C175.909 382.957 174.567 383.695 174.573 384.949C174.567 385.658 174.995 386.197 175.756 386.531V388.406H173.295V389.309ZM175.71 384.949C175.698 384.234 176.577 383.83 178.077 383.824C179.553 383.83 180.438 384.234 180.432 384.949C180.438 385.658 179.553 386.062 178.077 386.062C176.577 386.062 175.698 385.658 175.71 384.949ZM176.87 388.406V386.842C177.233 386.9 177.637 386.93 178.077 386.93C178.516 386.93 178.926 386.9 179.295 386.842V388.406H176.87ZM187.968 380.086C185.601 380.08 184.212 380.73 184.218 381.891C184.212 383.068 185.601 383.707 187.968 383.707C190.335 383.707 191.712 383.068 191.718 381.891C191.712 380.73 190.335 380.08 187.968 380.086ZM183.187 385.172H185.73V386.109H184.335V386.941H190.452V387.762H184.347V390.363H191.847V389.508H185.437V388.57H191.554V386.109H190.183V385.172H192.761V384.281H183.187V385.172ZM185.378 381.891C185.372 381.275 186.298 380.924 187.968 380.918C189.649 380.924 190.575 381.275 190.569 381.891C190.575 382.541 189.649 382.869 187.968 382.875C186.298 382.869 185.372 382.541 185.378 381.891ZM186.831 386.109V385.172H189.069V386.109H186.831ZM202.652 385.453H193.078V386.344H202.652V385.453ZM194.109 382.418C194.103 383.742 195.574 384.545 197.859 384.551C200.132 384.545 201.603 383.742 201.609 382.418C201.603 381.1 200.132 380.314 197.859 380.32C195.574 380.314 194.103 381.1 194.109 382.418ZM194.285 390.246H201.574V389.344H195.41V387.199H194.285V390.246ZM195.257 382.418C195.251 381.668 196.248 381.211 197.859 381.211C199.464 381.211 200.466 381.668 200.46 382.418C200.466 383.197 199.464 383.637 197.859 383.637C196.248 383.637 195.251 383.197 195.257 382.418ZM208.7 380.871C206.854 380.859 205.653 382.125 205.653 383.742C205.653 385.365 206.872 386.531 208.395 386.531C209.309 386.531 210.106 386.098 210.563 385.383H210.668C210.657 387.322 209.889 388.459 208.582 388.465C207.727 388.459 207.176 387.961 207 387.246H205.723C205.928 388.623 207.018 389.59 208.582 389.59C210.616 389.59 211.899 387.902 211.899 384.926C211.893 381.82 210.258 380.883 208.7 380.871ZM206.907 383.719C206.901 382.746 207.674 381.949 208.7 381.949C209.737 381.949 210.493 382.787 210.493 383.707C210.493 384.645 209.702 385.482 208.676 385.477C207.645 385.482 206.913 384.703 206.907 383.719ZM212.837 389.473H214.185L217.958 382.137V380.988H212.251V382.09H216.622V382.16L212.837 389.473ZM218.146 389.555C218.597 389.549 218.972 389.18 218.978 388.723C218.972 388.266 218.597 387.891 218.146 387.891C217.689 387.891 217.308 388.266 217.314 388.723C217.308 389.18 217.689 389.549 218.146 389.555ZM219.998 389.473H225.705V388.371H221.791V388.301L223.514 386.555C225.107 384.99 225.553 384.234 225.564 383.285C225.553 381.908 224.422 380.871 222.787 380.871C221.17 380.871 219.986 381.896 219.998 383.449H221.217C221.223 382.547 221.82 381.949 222.764 381.949C223.654 381.949 224.334 382.482 224.334 383.32C224.334 384.064 223.871 384.604 222.939 385.57L219.998 388.535V389.473ZM228.6 385.02C229.743 385.031 230.375 384.176 230.381 382.91C230.375 381.668 229.766 380.807 228.6 380.812C227.469 380.807 226.807 381.668 226.819 382.91C226.807 384.17 227.44 385.031 228.6 385.02ZM227.78 389.473H228.846L234.67 380.988H233.604L227.78 389.473ZM227.78 382.91C227.786 382.154 228.055 381.645 228.6 381.633C229.168 381.627 229.409 382.148 229.409 382.91C229.409 383.689 229.151 384.193 228.6 384.199C228.055 384.193 227.786 383.689 227.78 382.91ZM232.174 387.539C232.168 388.787 232.801 389.648 233.955 389.648C235.098 389.648 235.731 388.793 235.737 387.539C235.731 386.285 235.116 385.424 233.955 385.43C232.825 385.424 232.168 386.285 232.174 387.539ZM233.135 387.539C233.141 386.771 233.416 386.262 233.955 386.25C234.524 386.25 234.764 386.766 234.764 387.539C234.764 388.307 234.506 388.816 233.955 388.816C233.411 388.816 233.141 388.307 233.135 387.539ZM246.155 388.277H241.878V386.438H245.229V385.523H238.819V383.988H244.983V380.707H237.694V381.621H243.882V383.098H237.718V386.438H240.776V388.277H236.546V389.215H246.155V388.277ZM257.64 379.969H256.527V382.641H254.57V383.555H256.527V386.215H257.64V379.969ZM248.887 385.266L249.473 386.156C250.726 385.693 251.646 384.75 252.103 383.578C252.56 384.615 253.428 385.459 254.605 385.863L255.18 384.984C253.592 384.445 252.642 383.15 252.648 381.82V381.598H254.898V380.695H249.238V381.598H251.512V381.832C251.517 383.279 250.515 384.697 248.887 385.266ZM250.574 388.488C250.568 389.736 251.916 390.463 254.125 390.469C256.322 390.463 257.67 389.736 257.676 388.488C257.67 387.24 256.322 386.514 254.125 386.508C251.916 386.514 250.568 387.24 250.574 388.488ZM251.676 388.488C251.67 387.773 252.584 387.369 254.125 387.375C255.654 387.369 256.568 387.773 256.574 388.488C256.568 389.197 255.654 389.602 254.125 389.59C252.584 389.602 251.67 389.197 251.676 388.488ZM262.399 381.645V380.52H261.297V381.551C261.285 383.121 260.336 384.521 258.696 385.102L259.293 385.992C260.518 385.541 261.409 384.615 261.866 383.438C262.323 384.475 263.184 385.295 264.332 385.699L264.93 384.82C263.366 384.305 262.393 383.021 262.399 381.645ZM260.114 388.5C260.114 389.742 261.455 390.451 263.641 390.445C265.797 390.451 267.121 389.742 267.121 388.5C267.121 387.27 265.797 386.549 263.641 386.555C261.455 386.549 260.114 387.27 260.114 388.5ZM261.227 388.5C261.221 387.832 262.123 387.434 263.641 387.434C265.147 387.434 266.037 387.832 266.032 388.5C266.037 389.191 265.147 389.566 263.641 389.578C262.123 389.566 261.221 389.191 261.227 388.5ZM265.914 386.309H267.028V383.543H268.551V382.605H267.028V379.969H265.914V386.309ZM277.376 379.969H276.263V385.605H277.376V379.969ZM268.88 382.887C268.886 384.322 270.069 385.324 271.68 385.312C273.286 385.324 274.47 384.322 274.47 382.887C274.47 381.445 273.286 380.443 271.68 380.449C270.069 380.443 268.886 381.445 268.88 382.887ZM269.97 382.887C269.964 381.99 270.684 381.381 271.68 381.387C272.665 381.381 273.38 381.99 273.38 382.887C273.38 383.795 272.665 384.398 271.68 384.398C270.684 384.398 269.964 383.795 269.97 382.887ZM270.509 390.34H277.376V386.109H276.274V387.293H271.598V386.109H270.509V390.34ZM271.598 389.426V388.172H276.274V389.426H271.598ZM287.279 379.969H286.165V390.469H287.279V379.969ZM279.204 387.797H280.083C281.741 387.803 283.429 387.674 285.286 387.293L285.134 386.355C283.452 386.695 281.841 386.83 280.306 386.836V380.988H279.204V387.797ZM296.631 379.969H295.517V390.492H296.631V384.949H298.318V384.035H296.631V379.969ZM288.896 387.879H289.74C291.691 387.885 293.086 387.832 294.732 387.539L294.592 386.602C293.092 386.871 291.773 386.947 290.01 386.953V381.879H293.806V380.977H288.896V387.879ZM299.537 389.555C299.989 389.549 300.364 389.18 300.369 388.723C300.364 388.266 299.989 387.891 299.537 387.891C299.08 387.891 298.699 388.266 298.705 388.723C298.699 389.18 299.08 389.549 299.537 389.555ZM126.734 401.348H122.491V400.141H121.39V401.348H117.159V402.25H126.734V401.348ZM117.663 399.801L118.015 400.656C119.82 400.486 121.284 399.877 121.941 398.898C122.591 399.877 124.062 400.486 125.878 400.656L126.218 399.801C124.132 399.631 122.685 398.869 122.562 397.855H125.773V396.965H122.491V395.957H121.39V396.965H118.12V397.855H121.32C121.185 398.869 119.743 399.631 117.663 399.801ZM118.296 404.699C118.296 405.836 119.644 406.451 121.941 406.445C124.226 406.451 125.556 405.836 125.562 404.699C125.556 403.562 124.226 402.941 121.941 402.941C119.644 402.941 118.296 403.562 118.296 404.699ZM119.421 404.699C119.415 404.102 120.318 403.773 121.941 403.773C123.54 403.773 124.448 404.102 124.448 404.699C124.448 405.297 123.54 405.613 121.941 405.602C120.318 405.613 119.415 405.297 119.421 404.699ZM138.535 395.969H137.469V406.469H138.535V395.969ZM129.617 400.504C129.617 402.783 130.508 404.213 131.879 404.207C133.18 404.213 134.053 402.941 134.153 400.891H135.336V405.953H136.403V396.168H135.336V399.988H134.147C134.018 398.02 133.156 396.807 131.879 396.812C130.508 396.807 129.617 398.23 129.617 400.504ZM130.649 400.504C130.649 398.828 131.123 397.85 131.879 397.855C132.653 397.85 133.133 398.828 133.133 400.504C133.133 402.174 132.653 403.158 131.879 403.152C131.123 403.158 130.649 402.174 130.649 400.504ZM148.157 395.969H147.044V399.355H143.915V400.27H147.044V406.492H148.157V395.969ZM139.954 403.961H140.798C142.444 403.967 143.967 403.873 145.661 403.527L145.52 402.613C143.991 402.918 142.579 403.012 141.079 403.035V397.129H139.954V403.961ZM153.15 399.062V397.949H155.54V397.023H149.622V397.949H152.025V399.062C152.013 400.873 150.841 402.842 149.259 403.586L149.903 404.465C151.128 403.867 152.112 402.59 152.599 401.09C153.085 402.49 154.069 403.65 155.306 404.195L155.915 403.328C154.298 402.637 153.144 400.82 153.15 399.062ZM156.864 406.469H157.978V395.969H156.864V406.469ZM163.123 396.414H162.033V400.996H166.979V396.414H165.877V397.844H163.123V396.414ZM163.088 402.707H168.772V403.656H163.111V406.363H170.236V405.473H164.201V404.477H169.873V401.828H163.088V402.707ZM163.123 400.105V398.699H165.877V400.105H163.123ZM168.76 401.371H169.873V399.074H171.397V398.172H169.873V395.969H168.76V401.371ZM180.268 395.98H179.155V398.816H177.151V399.719H179.155V403.668H180.268V395.98ZM171.526 401.477L172.1 402.379C173.348 401.934 174.268 401.008 174.725 399.848C175.182 400.891 176.055 401.734 177.233 402.145L177.807 401.254C176.219 400.727 175.27 399.408 175.276 398.102V397.691H177.526V396.777H171.866V397.691H174.139V398.102C174.145 399.549 173.137 400.932 171.526 401.477ZM173.448 406.246H180.549V405.344H174.561V402.977H173.448V406.246ZM191.19 397.539H189.655V395.98H188.542V402.32H189.655V400.68H191.19V399.754H189.655V398.465H191.19V397.539ZM181.827 397.516H185.519V398.699H181.839V401.746H182.683C184.698 401.758 186.087 401.693 187.71 401.406L187.593 400.504C186.064 400.762 184.774 400.832 182.952 400.832V399.555H186.608V396.613H181.827V397.516ZM182.73 404.523C182.73 405.742 184.071 406.445 186.257 406.445C188.413 406.445 189.749 405.742 189.749 404.523C189.749 403.305 188.413 402.578 186.257 402.578C184.071 402.578 182.73 403.305 182.73 404.523ZM183.819 404.523C183.814 403.844 184.716 403.451 186.257 403.457C187.774 403.451 188.665 403.844 188.659 404.523C188.665 405.209 187.774 405.602 186.257 405.59C184.716 405.602 183.814 405.209 183.819 404.523ZM200.871 401.453H191.296V402.344H200.871V401.453ZM192.328 398.418C192.322 399.742 193.793 400.545 196.078 400.551C198.351 400.545 199.822 399.742 199.828 398.418C199.822 397.1 198.351 396.314 196.078 396.32C193.793 396.314 192.322 397.1 192.328 398.418ZM192.503 406.246H199.793V405.344H193.628V403.199H192.503V406.246ZM193.476 398.418C193.47 397.668 194.466 397.211 196.078 397.211C197.683 397.211 198.685 397.668 198.679 398.418C198.685 399.197 197.683 399.637 196.078 399.637C194.466 399.637 193.47 399.197 193.476 398.418ZM204 405.473H209.708V404.371H205.793V404.301L207.516 402.555C209.11 400.99 209.555 400.234 209.567 399.285C209.555 397.908 208.424 396.871 206.79 396.871C205.172 396.871 203.989 397.896 204 399.449H205.219C205.225 398.547 205.823 397.949 206.766 397.949C207.657 397.949 208.336 398.482 208.336 399.32C208.336 400.064 207.874 400.604 206.942 401.57L204 404.535V405.473ZM213.88 396.988H212.614L210.505 398.371V399.602L212.532 398.277H212.579V405.473H213.88V396.988ZM215.568 405.473H216.822V403.211L217.425 402.613L219.587 405.473H221.122L218.374 401.84L220.947 399.109H219.447L216.927 401.793H216.822V396.988H215.568V405.473ZM223.232 405.473H224.533L226.314 399.133H226.385L228.166 405.473H229.467L231.822 396.988H230.463L228.81 403.551H228.74L227.018 396.988H225.682L223.959 403.551H223.889L222.236 396.988H220.877L223.232 405.473ZM233.545 401.699C233.545 400.686 234.184 400.105 235.069 400.105C235.913 400.105 236.416 400.645 236.416 401.582V405.473H237.67V401.43C237.67 399.836 236.797 399.027 235.491 399.027C234.5 399.027 233.903 399.461 233.604 400.152H233.522V396.988H232.291V405.473H233.545V401.699ZM249.484 395.969H248.37V401.605H249.484V395.969ZM240.988 398.887C240.994 400.322 242.177 401.324 243.788 401.312C245.394 401.324 246.578 400.322 246.578 398.887C246.578 397.445 245.394 396.443 243.788 396.449C242.177 396.443 240.994 397.445 240.988 398.887ZM242.078 398.887C242.072 397.99 242.792 397.381 243.788 397.387C244.773 397.381 245.488 397.99 245.488 398.887C245.488 399.795 244.773 400.398 243.788 400.398C242.792 400.398 242.072 399.795 242.078 398.887ZM242.617 406.34H249.484V402.109H248.382V403.293H243.706V402.109H242.617V406.34ZM243.706 405.426V404.172H248.382V405.426H243.706ZM259.387 395.969H258.273V406.469H259.387V395.969ZM251.312 403.797H252.191C253.849 403.803 255.537 403.674 257.394 403.293L257.242 402.355C255.56 402.695 253.949 402.83 252.414 402.836V396.988H251.312V403.797ZM268.739 395.969H267.625V406.492H268.739V400.949H270.426V400.035H268.739V395.969ZM261.004 403.879H261.848C263.799 403.885 265.194 403.832 266.84 403.539L266.7 402.602C265.2 402.871 263.881 402.947 262.118 402.953V397.879H265.914V396.977H261.004V403.879ZM271.645 405.555C272.096 405.549 272.471 405.18 272.477 404.723C272.471 404.266 272.096 403.891 271.645 403.891C271.188 403.891 270.807 404.266 270.813 404.723C270.807 405.18 271.188 405.549 271.645 405.555Z" fill="#2A2933"/>
<path d="M26 491.973L28.9167 489.056M32.9167 494.473C33.25 493.639 33.5 492.639 33.5 491.639C33.5 487.639 30.1667 484.473 26 484.473C21.8333 484.473 18.5 487.639 18.5 491.639C18.5 492.639 18.75 493.639 19.0833 494.473" stroke="black" stroke-width="1.66667" stroke-linecap="round" stroke-linejoin="round"/>
<path d="M57.8691 482.111H55.6191V493.607H57.8691V482.111ZM44.7207 487.156C44.7207 489.538 46.6367 491.217 49.0977 491.217C51.5498 491.217 53.4658 489.538 53.4746 487.156C53.4658 484.81 51.5498 483.122 49.0977 483.131C46.6367 483.122 44.7207 484.81 44.7207 487.156ZM46.918 487.156C46.9004 485.855 47.8408 485.073 49.0977 485.082C50.3105 485.073 51.251 485.855 51.2598 487.156C51.251 488.492 50.3105 489.266 49.0977 489.266C47.8408 489.266 46.9004 488.492 46.918 487.156ZM47.1465 497.809H58.291V496.016H49.4141V492.447H47.1465V497.809ZM72.8112 482.094H70.5964V487.736H67.6257V483.324H65.4284V487.209H62.1413V483.324H59.9089V494.328H67.6257V489.547H70.5964V498.125H72.8112V482.094ZM62.1413 492.535V488.967H65.4284V492.535H62.1413ZM87.6479 482.094H85.433V487.736H82.6205V489.547H85.433V498.125H87.6479V482.094ZM74.8862 494.504H76.1518C78.894 494.495 80.9858 494.416 83.3237 494.064L83.0952 492.271C81.1176 492.579 79.3422 492.658 77.1186 492.676V489.652H81.7768V487.895H77.1186V485.24H82.3569V483.43H74.8862V494.504ZM96.9657 482.568C94.496 482.56 92.6591 484.089 92.6591 486.225C92.6591 488.343 94.496 489.854 96.9657 489.863C99.4003 489.854 101.228 488.343 101.237 486.225C101.228 484.089 99.4003 482.56 96.9657 482.568ZM94.8387 486.225C94.8212 485.073 95.7352 484.396 96.9657 484.396C98.1786 484.396 99.0663 485.073 99.0751 486.225C99.0663 487.367 98.1786 488.044 96.9657 488.053C95.7264 488.044 94.8212 487.367 94.8387 486.225ZM95.0673 492.5H103.575V493.484H95.1024V497.914H106.247V496.156H97.2997V495.119H105.807V490.777H95.0673V492.5ZM103.557 490.109H105.807V482.094H103.557V490.109ZM123.299 482.094H121.049V498.055H123.299V490.074H125.567V488.229H123.299V482.094ZM110.502 493.572L111.768 495.295C117.147 492.649 119.01 488.51 119.028 483.729H111.416V485.557H116.751C116.329 489.125 114.29 491.674 110.502 493.572ZM140.14 489.652H133.935V488.281H138.47V486.523H129.522V484.537H138.382V482.797H127.29V488.281H131.737V489.652H125.515V491.41H140.14V489.652ZM127.185 495.172C127.185 497.044 129.294 498.107 132.792 498.107C136.264 498.107 138.347 497.044 138.364 495.172C138.347 493.273 136.264 492.219 132.792 492.219C129.294 492.219 127.185 493.273 127.185 495.172ZM129.47 495.172C129.461 494.346 130.577 493.924 132.792 493.924C134.963 493.924 136.106 494.346 136.114 495.172C136.106 496.007 134.963 496.402 132.792 496.402C130.577 496.402 129.461 496.007 129.47 495.172ZM154.976 489.178H140.334V490.812H143.955V491.744H142.004V493.291H151.004V494.1H142.021V497.984H153.693V496.455H144.254V495.523H153.219V491.744H151.373V490.812H154.976V489.178ZM142.127 483.887H150.951V484.695H142.162V488.439H153.482V486.91H144.394V486.119H153.201V482.375H142.127V483.887ZM146.187 491.744V490.812H149.123V491.744H146.187Z" fill="#232323"/>
<g clip-path="url(#clip1_1442_16592)">
<rect x="16" y="516.473" width="358" height="225" rx="20" fill="white"/>
<path d="M187.186 613.289H185.436V625.703H187.186V619.496H188.949V618.061H187.186V613.289ZM177.232 622.217L178.217 623.557C182.4 621.499 183.85 618.279 183.863 614.561H177.943V615.982H182.093C181.765 618.758 180.179 620.74 177.232 622.217ZM200.284 619.168H195.458V618.102H198.985V616.734H192.026V615.189H198.917V613.836H190.29V618.102H193.749V619.168H188.909V620.535H200.284V619.168ZM190.208 623.461C190.208 624.917 191.848 625.744 194.569 625.744C197.269 625.744 198.889 624.917 198.903 623.461C198.889 621.984 197.269 621.164 194.569 621.164C191.848 621.164 190.208 621.984 190.208 623.461ZM191.985 623.461C191.978 622.818 192.846 622.49 194.569 622.49C196.257 622.49 197.146 622.818 197.153 623.461C197.146 624.11 196.257 624.418 194.569 624.418C192.846 624.418 191.978 624.11 191.985 623.461ZM211.823 618.799H200.435V620.07H203.251V620.795H201.734V621.998H208.734V622.627H201.747V625.648H210.825V624.459H203.484V623.734H210.456V620.795H209.021V620.07H211.823V618.799ZM201.829 614.684H208.692V615.312H201.857V618.225H210.661V617.035H203.593V616.42H210.442V613.508H201.829V614.684ZM204.987 620.795V620.07H207.271V620.795H204.987Z" fill="#908F99"/>
<path d="M152.324 654.473H156.59L164.93 638.094V634.676H150.957V638.039H160.664V638.176L152.324 654.473ZM173.544 654.746C178.001 654.746 181.036 651.889 181.036 647.883C181.036 644.082 178.329 641.361 174.693 641.375C172.956 641.361 171.452 642.072 170.728 643.043H170.564L171.11 638.039H179.915V634.676H167.72L166.653 646.078H170.372C170.96 644.971 171.999 644.41 173.489 644.41C175.568 644.424 177.058 645.887 177.044 647.992C177.058 650.057 175.595 651.506 173.544 651.492C171.821 651.506 170.413 650.439 170.318 648.895H166.325C166.394 652.312 169.415 654.746 173.544 654.746ZM184.483 654.719C185.699 654.719 186.752 653.693 186.752 652.422C186.752 651.164 185.699 650.139 184.483 650.152C183.198 650.139 182.158 651.164 182.186 652.422C182.158 653.693 183.198 654.719 184.483 654.719ZM195.722 654.746C200.671 654.746 203.679 651.082 203.679 644.574C203.679 638.107 200.658 634.402 195.722 634.402C190.786 634.402 187.765 638.107 187.765 644.574C187.765 651.055 190.759 654.746 195.722 654.746ZM191.976 644.574C191.976 640.049 193.439 637.779 195.722 637.766C198.005 637.779 199.482 640.049 199.468 644.574C199.482 649.141 198.019 651.355 195.722 651.355C193.425 651.355 191.949 649.141 191.976 644.574ZM213.059 654.746C217.53 654.76 220.565 651.875 220.551 647.855C220.565 644.123 217.913 641.457 214.344 641.457C212.157 641.457 210.202 642.482 209.286 644.246H209.094C209.122 640.35 210.53 637.93 213.223 637.93C214.823 637.93 215.958 638.791 216.286 640.172H220.333C219.936 636.918 217.202 634.402 213.223 634.402C208.274 634.402 205.088 638.354 205.075 645.039C205.061 652.285 208.971 654.732 213.059 654.746ZM209.504 647.965C209.532 646.037 211.063 644.451 213.086 644.438C215.096 644.451 216.559 645.982 216.559 647.965C216.559 649.961 215.069 651.506 213.032 651.492C211.008 651.506 209.532 649.906 209.504 647.965ZM225.541 647.402C227.63 647.402 228.793 645.879 228.802 643.633C228.793 641.396 227.66 639.844 225.541 639.844C223.48 639.844 222.279 641.396 222.279 643.633C222.279 645.859 223.421 647.402 225.541 647.402ZM224.271 643.633C224.281 642.432 224.711 641.592 225.541 641.582C226.42 641.582 226.8 642.412 226.81 643.633C226.8 644.854 226.38 645.654 225.541 645.664C224.72 645.654 224.281 644.854 224.271 643.633ZM224.31 654.473H226.498L236.224 640.332H234.037L224.31 654.473ZM231.83 651.172C231.83 653.398 232.972 654.941 235.072 654.941C237.181 654.941 238.343 653.418 238.353 651.172C238.343 648.936 237.211 647.393 235.072 647.383C233.031 647.393 231.83 648.936 231.83 651.172ZM233.822 651.172C233.832 649.971 234.252 649.131 235.072 649.141C235.961 649.121 236.351 649.951 236.361 651.172C236.351 652.393 235.931 653.203 235.072 653.203C234.271 653.203 233.832 652.393 233.822 651.172Z" fill="#2A2933"/>
<mask id="mask1_1442_16592" style="mask-type:alpha" maskUnits="userSpaceOnUse" x="70" y="516" width="250" height="154">
<rect x="70" y="516.473" width="250" height="153" fill="#D9D9D9"/>
</mask>
<g mask="url(#mask1_1442_16592)">
<path d="M70.5011 669.176C70.5011 652.864 73.714 636.712 79.9564 621.642C86.1987 606.571 95.3483 592.878 106.883 581.344C118.417 569.809 132.11 560.66 147.181 554.417C162.251 548.175 178.403 544.962 194.715 544.962C211.027 544.962 227.18 548.175 242.25 554.417C257.321 560.66 271.014 569.809 282.548 581.344C294.083 592.878 303.232 606.571 309.474 621.642C315.717 636.712 318.93 652.864 318.93 669.176L296.122 669.176C296.122 655.859 293.499 642.673 288.403 630.37C283.307 618.066 275.837 606.887 266.421 597.471C257.004 588.054 245.825 580.585 233.522 575.489C221.219 570.392 208.032 567.77 194.715 567.77C181.398 567.77 168.212 570.392 155.909 575.489C143.605 580.585 132.426 588.054 123.01 597.471C113.593 606.887 106.124 618.066 101.028 630.37C95.9316 642.673 93.3086 655.859 93.3086 669.176L70.5011 669.176Z" fill="#D9D9D9"/>
<path d="M70.5011 669.176C70.5011 644.609 77.7862 620.593 91.435 600.167C105.084 579.74 124.483 563.819 147.181 554.417C169.878 545.016 194.853 542.556 218.948 547.349C243.044 552.142 265.177 563.972 282.548 581.344L266.421 597.471C252.239 583.289 234.17 573.631 214.499 569.718C194.828 565.805 174.438 567.813 155.909 575.489C137.379 583.164 121.541 596.161 110.399 612.838C99.256 629.514 93.3086 649.12 93.3086 669.176L70.5011 669.176Z" fill="#FFD21F"/>
</g>
<path d="M106.747 701.969H105.68V712.469H106.747V701.969ZM97.8286 706.504C97.8286 708.783 98.7192 710.213 100.09 710.207C101.391 710.213 102.264 708.941 102.364 706.891H103.547V711.953H104.614V702.168H103.547V705.988H102.358C102.229 704.02 101.368 702.807 100.09 702.812C98.7192 702.807 97.8286 704.23 97.8286 706.504ZM98.8598 706.504C98.8598 704.828 99.3344 703.85 100.09 703.855C100.864 703.85 101.344 704.828 101.344 706.504C101.344 708.174 100.864 709.158 100.09 709.152C99.3344 709.158 98.8598 708.174 98.8598 706.504ZM116.368 701.969H115.255V705.355H112.126V706.27H115.255V712.492H116.368V701.969ZM108.165 709.961H109.009C110.655 709.967 112.179 709.873 113.872 709.527L113.731 708.613C112.202 708.918 110.79 709.012 109.29 709.035V703.129H108.165V709.961ZM121.361 705.062V703.949H123.751V703.023H117.833V703.949H120.236V705.062C120.224 706.873 119.052 708.842 117.47 709.586L118.115 710.465C119.339 709.867 120.324 708.59 120.81 707.09C121.296 708.49 122.281 709.65 123.517 710.195L124.126 709.328C122.509 708.637 121.355 706.82 121.361 705.062ZM125.076 712.469H126.189V701.969H125.076V712.469ZM138.014 701.969H136.901V712.457H138.014V707.078H139.643V706.152H138.014V701.969ZM129.846 709.656L130.467 710.523C133.924 708.818 135.26 706.105 135.272 703.07H130.373V703.996H134.135C133.907 706.445 132.477 708.344 129.846 709.656ZM149.311 707.078H145.057V705.965H148.198V705.074H142.022V703.328H148.128V702.449H140.921V705.965H143.979V707.078H139.725V707.969H149.311V707.078ZM140.862 710.559C140.862 711.777 142.227 712.463 144.507 712.469C146.768 712.463 148.122 711.777 148.128 710.559C148.122 709.34 146.768 708.654 144.507 708.648C142.227 708.654 140.862 709.34 140.862 710.559ZM141.987 710.559C141.981 709.896 142.901 709.516 144.507 709.516C146.089 709.516 147.015 709.896 147.015 710.559C147.015 711.232 146.089 711.602 144.507 711.59C142.901 711.602 141.981 711.232 141.987 710.559ZM159.214 706.715H149.605V707.547H152.136V708.391H150.742V709.188H156.929V709.961H150.753V712.363H158.359V711.578H151.867V710.699H158.031V708.391H156.695V707.547H159.214V706.715ZM150.812 703.012H156.894V703.762H150.835V706.059H158.183V705.273H151.937V704.5H158.007V702.238H150.812V703.012ZM153.238 708.391V707.547H155.593V708.391H153.238ZM169.082 707.453H159.508V708.344H169.082V707.453ZM160.539 704.418C160.533 705.742 162.004 706.545 164.289 706.551C166.562 706.545 168.033 705.742 168.039 704.418C168.033 703.1 166.562 702.314 164.289 702.32C162.004 702.314 160.533 703.1 160.539 704.418ZM160.715 712.246H168.004V711.344H161.84V709.199H160.715V712.246ZM161.687 704.418C161.681 703.668 162.678 703.211 164.289 703.211C165.894 703.211 166.896 703.668 166.89 704.418C166.896 705.197 165.894 705.637 164.289 705.637C162.678 705.637 161.681 705.197 161.687 704.418ZM172.505 711.473H173.852L177.626 704.137V702.988H171.919V704.09H176.29V704.16L172.505 711.473ZM181.212 711.59C182.982 711.59 184.236 710.389 184.236 708.719C184.236 707.084 183.058 705.9 181.458 705.895C180.814 705.9 180.216 706.129 179.865 706.469H179.783L180.064 704.09H183.802V702.988H178.997L178.447 707.711H179.665C179.952 707.189 180.474 706.961 181.154 706.961C182.22 706.973 182.982 707.723 182.982 708.754C182.982 709.762 182.243 710.506 181.212 710.512C180.357 710.506 179.665 709.979 179.595 709.258H178.341C178.4 710.611 179.607 711.59 181.212 711.59ZM185.654 711.555C186.105 711.549 186.48 711.18 186.486 710.723C186.48 710.266 186.105 709.891 185.654 709.891C185.197 709.891 184.816 710.266 184.822 710.723C184.816 711.18 185.197 711.549 185.654 711.555ZM190.143 711.59C192.106 711.59 193.254 710.008 193.26 707.23C193.254 704.471 192.088 702.871 190.143 702.871C188.192 702.871 187.026 704.471 187.026 707.23C187.026 710.008 188.18 711.59 190.143 711.59ZM188.315 707.23C188.315 705.121 189 703.967 190.143 703.961C191.28 703.967 191.971 705.121 191.971 707.23C191.971 709.346 191.285 710.477 190.143 710.477C188.994 710.477 188.309 709.346 188.315 707.23ZM197.186 711.59C199.009 711.602 200.221 710.342 200.221 708.695C200.221 707.072 199.003 705.912 197.491 705.906C196.571 705.912 195.774 706.334 195.311 707.055H195.217C195.217 705.139 195.979 704.002 197.292 703.996C198.147 704.002 198.692 704.5 198.862 705.191H200.139C199.94 703.844 198.856 702.871 197.292 702.871C195.259 702.871 193.981 704.559 193.975 707.512C193.975 710.646 195.616 711.578 197.186 711.59ZM195.37 708.73C195.382 707.787 196.173 706.955 197.21 706.961C198.229 706.955 198.967 707.746 198.967 708.719C198.967 709.709 198.2 710.506 197.175 710.512C196.132 710.506 195.376 709.674 195.37 708.73ZM203.058 707.02C204.2 707.031 204.833 706.176 204.839 704.91C204.833 703.668 204.224 702.807 203.058 702.812C201.927 702.807 201.265 703.668 201.277 704.91C201.265 706.17 201.898 707.031 203.058 707.02ZM202.237 711.473H203.304L209.128 702.988H208.062L202.237 711.473ZM202.237 704.91C202.243 704.154 202.513 703.645 203.058 703.633C203.626 703.627 203.866 704.148 203.866 704.91C203.866 705.689 203.609 706.193 203.058 706.199C202.513 706.193 202.243 705.689 202.237 704.91ZM206.632 709.539C206.626 710.787 207.259 711.648 208.413 711.648C209.556 711.648 210.189 710.793 210.195 709.539C210.189 708.285 209.573 707.424 208.413 707.43C207.282 707.424 206.626 708.285 206.632 709.539ZM207.593 709.539C207.599 708.771 207.874 708.262 208.413 708.25C208.982 708.25 209.222 708.766 209.222 709.539C209.222 710.307 208.964 710.816 208.413 710.816C207.868 710.816 207.599 710.307 207.593 709.539ZM220.613 710.277H216.336V708.438H219.687V707.523H213.277V705.988H219.441V702.707H212.152V703.621H218.34V705.098H212.175V708.438H215.234V710.277H211.004V711.215H220.613V710.277ZM232.098 701.98H230.985V703.844H228.706C228.776 703.492 228.817 703.117 228.817 702.73H224.012V703.645H227.61C227.411 705.338 225.958 706.674 223.473 707.383L223.919 708.25C226.192 707.6 227.768 706.41 228.448 704.723H230.985V706H228.337V706.914H230.985V708.191H232.098V701.98ZM225.102 710.359C225.102 711.637 226.485 712.422 228.641 712.422C230.768 712.422 232.163 711.637 232.169 710.359C232.163 709.088 230.768 708.314 228.641 708.309C226.485 708.314 225.102 709.088 225.102 710.359ZM226.204 710.359C226.204 709.609 227.141 709.182 228.641 709.188C230.112 709.182 231.049 709.609 231.055 710.359C231.049 711.098 230.112 711.525 228.641 711.531C227.141 711.525 226.204 711.098 226.204 710.359ZM241.732 702.977H234.243V703.879H240.618V704.008C240.612 705.268 240.612 706.756 240.208 708.789L241.333 708.906C241.726 706.756 241.726 705.303 241.732 704.008V702.977ZM233.235 711.051H242.81V710.125H237.982V706.422H236.88V710.125H233.235V711.051ZM246.748 703.645V702.52H245.646V703.551C245.634 705.121 244.685 706.521 243.045 707.102L243.642 707.992C244.867 707.541 245.757 706.615 246.214 705.438C246.671 706.475 247.533 707.295 248.681 707.699L249.279 706.82C247.714 706.305 246.742 705.021 246.748 703.645ZM244.462 710.5C244.462 711.742 245.804 712.451 247.99 712.445C250.146 712.451 251.47 711.742 251.47 710.5C251.47 709.27 250.146 708.549 247.99 708.555C245.804 708.549 244.462 709.27 244.462 710.5ZM245.576 710.5C245.57 709.832 246.472 709.434 247.99 709.434C249.496 709.434 250.386 709.832 250.38 710.5C250.386 711.191 249.496 711.566 247.99 711.578C246.472 711.566 245.57 711.191 245.576 710.5ZM250.263 708.309H251.377V705.543H252.9V704.605H251.377V701.969H250.263V708.309ZM257.623 703.141H253.416V709.938H254.119C255.795 709.938 256.815 709.891 258.045 709.668L257.951 708.754C256.844 708.941 255.906 708.988 254.482 709V706.785H257.447V705.906H254.482V704.031H257.623V703.141ZM258.654 711.953H259.721V707.043H260.986V712.469H262.053V701.969H260.986V706.141H259.721V702.168H258.654V711.953ZM271.616 701.969H270.503V707.605H271.616V701.969ZM263.12 704.887C263.126 706.322 264.309 707.324 265.92 707.312C267.526 707.324 268.71 706.322 268.71 704.887C268.71 703.445 267.526 702.443 265.92 702.449C264.309 702.443 263.126 703.445 263.12 704.887ZM264.21 704.887C264.204 703.99 264.924 703.381 265.92 703.387C266.905 703.381 267.62 703.99 267.62 704.887C267.62 705.795 266.905 706.398 265.92 706.398C264.924 706.398 264.204 705.795 264.21 704.887ZM264.749 712.34H271.616V708.109H270.514V709.293H265.838V708.109H264.749V712.34ZM265.838 711.426V710.172H270.514V711.426H265.838ZM281.519 701.969H280.405V712.469H281.519V701.969ZM273.444 709.797H274.323C275.981 709.803 277.669 709.674 279.526 709.293L279.374 708.355C277.692 708.695 276.081 708.83 274.546 708.836V702.988H273.444V709.797ZM290.871 701.969H289.757V712.492H290.871V706.949H292.558V706.035H290.871V701.969ZM283.136 709.879H283.98C285.931 709.885 287.326 709.832 288.972 709.539L288.832 708.602C287.332 708.871 286.013 708.947 284.25 708.953V703.879H288.046V702.977H283.136V709.879ZM96.3227 717.98H95.2094V725.609H96.3227V717.98ZM87.8266 721.285C87.8325 722.826 89.0395 723.898 90.6274 723.898C92.2094 723.898 93.4165 722.826 93.4165 721.285C93.4165 719.768 92.2094 718.689 90.6274 718.684C89.0395 718.689 87.8325 719.768 87.8266 721.285ZM88.9165 721.285C88.9106 720.318 89.6489 719.656 90.6274 719.656C91.5884 719.656 92.3266 720.318 92.3266 721.285C92.3266 722.275 91.5884 722.926 90.6274 722.926C89.6489 722.926 88.9106 722.275 88.9165 721.285ZM89.4555 728.246H96.6391V727.344H90.5805V724.836H89.4555V728.246ZM106.261 717.969H105.159V721.801H102.839V718.777H101.749V721.461H99.0419V718.777H97.9169V725.891H102.839V722.715H105.159V728.492H106.261V717.969ZM99.0419 724.977V722.34H101.749V724.977H99.0419ZM116.152 717.969H115.05V721.848H112.964V722.762H115.05V728.492H116.152V717.969ZM107.878 726.008H108.699C110.644 726.002 111.962 725.938 113.492 725.691L113.374 724.789C111.98 725.029 110.761 725.082 109.003 725.082V722.738H112.343V721.848H109.003V719.809H112.789V718.906H107.878V726.008ZM126.887 722.785H117.277V723.641H126.887V722.785ZM118.414 725.176H124.601V725.949H118.426V728.34H126.031V727.555H119.539V726.688H125.703V724.379H118.414V725.176ZM118.484 719.023H124.566V719.773H118.508V722.094H125.855V721.309H119.609V720.512H125.68V718.238H118.484V719.023ZM138.384 717.98H137.27V720.711H135.583V721.625H137.27V722.926H135.583V723.816H137.27V725.984H138.384V717.98ZM129.641 720.102H135.548V719.199H133.204V717.969H132.102V719.199H129.641V720.102ZM130.227 722.621C130.227 723.828 131.224 724.648 132.641 724.648C134.054 724.648 135.061 723.828 135.067 722.621C135.061 721.42 134.054 720.6 132.641 720.605C131.224 720.6 130.227 721.42 130.227 722.621ZM131.27 722.621C131.265 721.93 131.827 721.484 132.641 721.473C133.444 721.484 134.013 721.93 134.024 722.621C134.013 723.336 133.444 723.781 132.641 723.781C131.827 723.781 131.265 723.336 131.27 722.621ZM131.528 728.246H138.618V727.344H132.653V725.281H131.528V728.246ZM143.189 719.902V719.621H145.451V718.719H139.767V719.621H142.076V719.914C142.07 721.373 141.079 722.727 139.439 723.266L140.013 724.156C141.273 723.717 142.193 722.809 142.65 721.66C143.113 722.656 143.986 723.447 145.181 723.828L145.708 722.961C144.115 722.457 143.183 721.238 143.189 719.902ZM140.857 726.477C140.857 727.725 142.199 728.451 144.384 728.445C146.546 728.451 147.865 727.725 147.865 726.477C147.865 725.246 146.546 724.525 144.384 724.531C142.199 724.525 140.857 725.246 140.857 726.477ZM141.97 726.477C141.964 725.791 142.867 725.404 144.384 725.41C145.89 725.404 146.781 725.791 146.775 726.477C146.781 727.18 145.89 727.572 144.384 727.566C142.867 727.572 141.964 727.18 141.97 726.477ZM146.658 724.273H147.771V721.484H149.294V720.57H147.771V717.969H146.658V724.273ZM158.166 717.969H157.053V720.523H155.084V721.449H157.053V724.086H158.166V717.969ZM149.424 723.148L149.998 724.027C151.246 723.588 152.166 722.668 152.623 721.508C153.08 722.551 153.953 723.395 155.131 723.805L155.705 722.926C154.117 722.375 153.168 721.068 153.174 719.762V719.516H155.424V718.602H149.764V719.516H152.037V719.762C152.043 721.197 151.035 722.598 149.424 723.148ZM151.24 728.34H158.166V724.578H151.24V728.34ZM152.342 727.438V725.457H157.076V727.438H152.342ZM164.729 718.625H159.948V719.539H163.539C163.323 721.197 161.823 722.504 159.397 723.184L159.854 724.051C162.895 723.189 164.729 721.297 164.729 718.625ZM161.19 728.328H168.057V724.355H161.19V728.328ZM162.28 727.438V725.246H166.955V727.438H162.28ZM164.776 721.531H166.944V723.922H168.057V717.98H166.944V720.605H164.776V721.531ZM177.374 717.969H176.272V728.469H177.374V723.148H179.061V722.223H177.374V717.969ZM169.136 720.523H175.358V719.609H172.839V718.109H171.725V719.609H169.136V720.523ZM169.675 723.734C169.675 725.176 170.776 726.178 172.288 726.184C173.794 726.178 174.895 725.176 174.901 723.734C174.895 722.305 173.794 721.297 172.288 721.297C170.776 721.297 169.675 722.305 169.675 723.734ZM170.741 723.734C170.735 722.838 171.391 722.217 172.288 722.211C173.179 722.217 173.829 722.838 173.835 723.734C173.829 724.648 173.179 725.258 172.288 725.246C171.391 725.258 170.735 724.648 170.741 723.734ZM187.816 717.969H186.691V728.469H187.816V717.969ZM179.191 725.656L179.777 726.559C183.38 724.83 184.687 722.17 184.687 719.094H179.695V719.984H183.562C183.345 722.434 181.98 724.326 179.191 725.656ZM197.719 717.969H196.617V722.129H194.261V723.043H196.617V728.469H197.719V717.969ZM188.953 725.645L189.539 726.523C193.101 724.76 194.285 722.135 194.297 719.094H189.422V719.984H193.166C192.972 722.393 191.736 724.285 188.953 725.645ZM208.676 722.094H207.047V717.969H205.934V728.457H207.047V723.008H208.676V722.094ZM199.266 725.82H200.133C201.709 725.826 203.362 725.721 205.16 725.363L205.031 724.426C203.362 724.766 201.832 724.889 200.367 724.895V718.988H199.266V725.82ZM217.056 718.766H211.759V719.68H215.96C215.948 720.342 215.913 721.191 215.685 722.352L216.786 722.457C217.044 721.098 217.044 720.055 217.056 719.352V718.766ZM211.126 723.359L211.232 724.262C213.083 724.256 215.591 724.215 217.782 723.828L217.712 723.02C216.657 723.172 215.497 723.254 214.372 723.301V721.121H213.271V723.336C212.503 723.354 211.771 723.359 211.126 723.359ZM212.72 728.246H219.857V727.344H213.833V725.141H212.72V728.246ZM218.38 725.855H219.517V722.246H220.958V721.309H219.517V717.969H218.38V725.855ZM229.818 717.969H228.705V728.492H229.818V717.969ZM221.685 719.82H225.47V721.859H221.697V725.973H222.588C224.445 725.967 226.027 725.896 227.884 725.586L227.779 724.672C226.021 724.959 224.539 725.041 222.834 725.047V722.75H226.607V718.918H221.685V719.82ZM240.6 726.219H236.299V723.723H235.197V726.219H230.99V727.133H240.6V726.219ZM231.319 722.996L231.811 723.91C233.504 723.576 235.051 722.516 235.742 721.086C236.434 722.521 237.992 723.576 239.697 723.91L240.178 722.996C238.151 722.656 236.322 721.098 236.322 719.434V718.637H235.151V719.434C235.145 721.098 233.34 722.656 231.319 722.996ZM250.491 726.277H246.214V724.438H249.565V723.523H243.155V721.988H249.319V718.707H242.03V719.621H248.217V721.098H242.053V724.438H245.112V726.277H240.881V727.215H250.491V726.277ZM261.976 717.98H260.863V719.562H258.244C257.752 718.977 256.996 718.619 256.129 718.613C254.546 718.625 253.369 719.732 253.375 721.285C253.369 722.826 254.546 723.934 256.129 723.934C257.002 723.934 257.763 723.576 258.255 722.984H260.863V725.715H261.976V717.98ZM254.441 721.285C254.435 720.295 255.144 719.615 256.129 719.609C257.072 719.615 257.793 720.295 257.793 721.285C257.793 722.275 257.072 722.955 256.129 722.949C255.144 722.955 254.435 722.275 254.441 721.285ZM255.156 728.246H262.257V727.344H256.269V724.906H255.156V728.246ZM258.736 720.465H260.863V722.082H258.742C258.818 721.836 258.859 721.566 258.859 721.285C258.859 720.992 258.818 720.723 258.736 720.465ZM268.316 718.59H263.535V719.492H267.227V720.723H263.547V723.852H264.391C266.406 723.857 267.795 723.787 269.418 723.512L269.301 722.609C267.772 722.867 266.482 722.926 264.66 722.938V721.59H268.316V718.59ZM264.426 725.785H270.25V728.457H271.363V724.883H264.426V725.785ZM270.25 724.355H271.363V721.531H272.898V720.605H271.363V717.98H270.25V724.355ZM281.184 717.969H280.083V728.469H281.184V723.148H282.872V722.223H281.184V717.969ZM272.946 720.523H279.169V719.609H276.649V718.109H275.536V719.609H272.946V720.523ZM273.485 723.734C273.485 725.176 274.586 726.178 276.098 726.184C277.604 726.178 278.706 725.176 278.711 723.734C278.706 722.305 277.604 721.297 276.098 721.297C274.586 721.297 273.485 722.305 273.485 723.734ZM274.551 723.734C274.545 722.838 275.202 722.217 276.098 722.211C276.989 722.217 277.639 722.838 277.645 723.734C277.639 724.648 276.989 725.258 276.098 725.246C275.202 725.258 274.545 724.648 274.551 723.734ZM286.095 720.84V718.93H285.017V720.887C285.022 722.674 284.237 724.531 282.755 725.422L283.446 726.254C284.466 725.633 285.192 724.496 285.573 723.166C285.937 724.379 286.599 725.428 287.583 726.02L288.204 725.164C286.798 724.303 286.095 722.516 286.095 720.84ZM287.067 722.586H288.696V727.953H289.751V718.168H288.696V721.66H287.067V722.586ZM290.864 728.469H291.931V717.969H290.864V728.469ZM302.396 726.23H300.099V723.465C300.943 722.99 301.447 722.246 301.447 721.32C301.447 719.668 299.824 718.584 297.568 718.578C295.318 718.584 293.695 719.668 293.701 721.32C293.695 722.264 294.222 723.014 295.084 723.488V726.23H292.787V727.156H302.396V726.23ZM294.779 721.32C294.779 720.189 295.921 719.469 297.568 719.469C299.203 719.469 300.363 720.189 300.369 721.32C300.363 722.445 299.203 723.178 297.568 723.184C295.921 723.178 294.779 722.445 294.779 721.32ZM296.185 726.23V723.898C296.607 723.998 297.076 724.051 297.568 724.051C298.072 724.051 298.546 723.998 298.974 723.898V726.23H296.185Z" fill="#2A2933"/>
</g>
<mask id="path-45-inside-1_1442_16592" fill="white">
<path d="M0 771H390V844H0V771Z"/>
</mask>
<path d="M0 771H390V844H0V771Z" fill="white"/>
<g opacity="0.3">
<rect x="38.0714" y="789.071" width="14.8574" height="10.9549" stroke="#232323" stroke-width="1.14288"/>
<rect x="39.7852" y="790.566" width="3.11694" height="3.46327" fill="#232323"/>
<rect x="43.9414" y="790.566" width="3.11694" height="3.46327" fill="#232323"/>
<rect x="48.0977" y="790.566" width="3.11694" height="3.46327" fill="#232323"/>
<rect x="39.7852" y="795.068" width="3.11694" height="3.46327" fill="#232323"/>
<rect x="43.9414" y="795.068" width="3.11694" height="3.46327" fill="#232323"/>
<rect x="48.0977" y="795.068" width="3.11694" height="3.46327" fill="#232323"/>
<rect x="44.5234" y="800.207" width="1.95125" height="4.29276" fill="#232323"/>
<path d="M49.2129 823.971H40.8457V827.443H49.2129V823.971ZM39.4922 823.041H50.5664V822.18H45.5625V821.243C47.7432 821.161 48.9668 820.587 48.9668 819.527C48.9668 818.399 47.5449 817.818 45.0293 817.805C42.5068 817.818 41.0781 818.399 41.0781 819.527C41.0781 820.587 42.3086 821.161 44.4961 821.243V822.18H39.4922V823.041ZM40.0664 817.312H49.9238V816.479H45.5625V815.275H44.4961V816.479H40.0664V817.312ZM41.9121 826.609V824.805H48.1602V826.609H41.9121ZM42.2266 819.527C42.2197 818.898 43.2451 818.57 45.0293 818.557C46.8135 818.57 47.8252 818.898 47.832 819.527C47.8252 820.149 46.8135 820.498 45.0293 820.498C43.2451 820.498 42.2197 820.149 42.2266 819.527Z" fill="#232323" fill-opacity="0.7"/>
</g>
<g opacity="0.3">
<rect x="135.5" y="789.031" width="11" height="15" rx="0.5" stroke="#232323"/>
<path d="M137.5 788.969H144.5V787.469C144.5 787.193 144.276 786.969 144 786.969H138C137.724 786.969 137.5 787.193 137.5 787.469V788.969Z" stroke="#232323"/>
<rect width="8" height="2" transform="matrix(1 0 0 -1 137 802.531)" fill="#232323"/>
<rect width="8" height="2" transform="matrix(1 0 0 -1 137 799.531)" fill="#232323"/>
<rect x="0.5" y="-0.5" width="7" height="1" transform="matrix(1 0 0 -1 137 795.531)" fill="#232323"/>
<rect x="0.5" y="-0.5" width="7" height="1" transform="matrix(1 0 0 -1 137 795.531)" stroke="#232323"/>
<rect x="0.5" y="-0.5" width="7" height="1" transform="matrix(1 0 0 -1 137 795.531)" stroke="black" stroke-opacity="0.2"/>
<rect x="0.5" y="-0.5" width="7" height="1" transform="matrix(1 0 0 -1 137 792.531)" fill="#232323"/>
<rect x="0.5" y="-0.5" width="7" height="1" transform="matrix(1 0 0 -1 137 792.531)" stroke="#232323"/>
<rect x="0.5" y="-0.5" width="7" height="1" transform="matrix(1 0 0 -1 137 792.531)" stroke="black" stroke-opacity="0.2"/>
<path d="M128.068 816.453H126.988V818.695H124.281V819.584H126.988V822.742H128.068V816.453ZM117.979 821.908L118.566 822.77C120.002 822.25 121.103 821.19 121.622 819.803C122.162 821.033 123.235 821.99 124.582 822.469L125.156 821.635C123.379 821.054 122.121 819.591 122.135 817.998V816.85H121.082V817.998C121.068 819.775 119.811 821.3 117.979 821.908ZM120.193 824.219H127.002V825.436H120.221V828.443H128.52V827.582H121.273V826.256H128.068V823.357H120.193V824.219ZM139.553 816.453H138.473V828.635H139.553V816.453ZM130.243 825.695H135.985V817.492H134.932V820.705H131.309V817.492H130.243V825.695ZM131.309 824.793V821.566H134.932V824.793H131.309ZM145.446 819.064V818.354H148.249V817.479H141.523V818.354H144.366V819.064C144.359 820.787 143.074 822.366 141.249 823.002L141.81 823.863C143.259 823.33 144.401 822.236 144.927 820.855C145.481 822.134 146.602 823.132 148.017 823.617L148.564 822.756C146.745 822.182 145.453 820.705 145.446 819.064ZM143.259 828.348H151.489V827.445H144.325V824.533H143.259V828.348ZM150.04 825.381H151.107V816.467H150.04V825.381ZM162.113 816.453H161.047V825.258H162.113V820.979H163.959V820.076H162.113V816.453ZM153.185 823.098H154.129C156.685 823.098 158.134 823.016 159.843 822.688L159.707 821.799C158.08 822.127 156.692 822.202 154.252 822.195V818.408H158.599V817.506H153.185V823.098ZM154.511 828.348H162.674V827.445H155.564V824.369H154.511V828.348Z" fill="#232323"/>
</g>
<rect x="235" y="791" width="15" height="2" stroke="#232323"/>
<rect x="235" y="800.391" width="15" height="2" stroke="#232323"/>
<rect x="236.777" y="788" width="11.4444" height="17" rx="1.5" fill="white" stroke="#232323"/>
<rect x="239.445" y="791" width="6.11111" height="3" stroke="#232323"/>
<path d="M235.055 815.453H233.988V818.406H231.527V819.309H233.988V822.057H235.055V815.453ZM225.047 821.414L225.607 822.262C227.05 821.735 228.178 820.607 228.697 819.213C229.224 820.457 230.283 821.476 231.65 821.975L232.211 821.141C230.434 820.525 229.217 818.994 229.217 817.436V817.08H231.938V816.191H225.389V817.08H228.137V817.436C228.137 819.158 226.838 820.765 225.047 821.414ZM227.234 827.443H235.055V822.645H233.988V824.162H228.314V822.645H227.234V827.443ZM228.314 826.568V825.023H233.988V826.568H228.314ZM247.647 821.564H242.588V819.691H241.536V821.564H236.532V822.453H247.647V821.564ZM237.202 819.486L237.612 820.348C239.478 820.026 241.303 819.062 242.069 817.647C242.828 819.049 244.66 820.026 246.499 820.348L246.936 819.486C244.79 819.192 242.602 817.839 242.602 816.219V815.645H241.522V816.219C241.522 817.839 239.348 819.192 237.202 819.486ZM237.762 824.504H245.159V827.607H246.239V823.643H237.762V824.504ZM257.573 815.453H256.507V822.781H257.573V819.609H259.405V818.693H257.573V815.453ZM248.099 817.641H255.345V816.752H252.255V815.357H251.189V816.752H248.099V817.641ZM248.796 820.402C248.789 821.722 249.958 822.576 251.722 822.576C253.465 822.576 254.634 821.722 254.648 820.402C254.634 819.104 253.465 818.242 251.722 818.242C249.958 818.242 248.789 819.104 248.796 820.402ZM249.821 820.402C249.815 819.609 250.573 819.076 251.722 819.076C252.857 819.076 253.622 819.609 253.636 820.402C253.622 821.229 252.857 821.742 251.722 821.756C250.573 821.742 249.815 821.229 249.821 820.402ZM249.903 827.443H257.573V823.479H249.903V827.443ZM250.956 826.568V824.34H256.507V826.568H250.956Z" fill="#232323"/>
<g opacity="0.3">
<path d="M334.75 797.75H339.75V799H334.75V797.75ZM334.75 794.625H342.25V795.875H334.75V794.625ZM334.75 800.875H337.875V802.125H334.75V800.875Z" fill="black"/>
<path d="M344.125 789.625H342.25V789C342.25 788.668 342.118 788.351 341.884 788.116C341.649 787.882 341.332 787.75 341 787.75H336C335.668 787.75 335.351 787.882 335.116 788.116C334.882 788.351 334.75 788.668 334.75 789V789.625H332.875C332.543 789.625 332.226 789.757 331.991 789.991C331.757 790.226 331.625 790.543 331.625 790.875V804C331.625 804.332 331.757 804.649 331.991 804.884C332.226 805.118 332.543 805.25 332.875 805.25H344.125C344.457 805.25 344.774 805.118 345.009 804.884C345.243 804.649 345.375 804.332 345.375 804V790.875C345.375 790.543 345.243 790.226 345.009 789.991C344.774 789.757 344.457 789.625 344.125 789.625V789.625ZM336 789H341V791.5H336V789ZM344.125 804H332.875V790.875H334.75V792.75H342.25V790.875H344.125V804Z" fill="black"/>
<path d="M332.121 825.16H327.049V822.535H330.754V816.314H329.701V818.516H323.385V816.314H322.305V822.535H325.996V825.16H320.992V826.049H332.121V825.16ZM323.385 821.66V819.391H329.701V821.66H323.385ZM342.28 816.684H333.708V817.572H341.2V817.9C341.193 819.356 341.193 821.059 340.735 823.383L341.829 823.506C342.266 821.059 342.266 819.391 342.28 817.9V816.684ZM332.532 825.885H343.606V824.996H337.932V820.648H336.879V824.996H332.532V825.885ZM348.351 818.721V816.506H347.257V818.721C347.25 820.963 345.842 823.301 344.058 824.176L344.755 825.037C346.136 824.306 347.277 822.747 347.817 820.929C348.358 822.658 349.499 824.107 350.88 824.818L351.523 823.943C349.759 823.137 348.344 820.922 348.351 818.721ZM350.196 820.484H353.081V827.635H354.148V815.453H353.081V819.609H350.196V820.484Z" fill="#232323"/>
</g>
<path d="M0 772H390V770H0V772Z" fill="#E0E0E0" mask="url(#path-45-inside-1_1442_16592)"/>
<rect x="146.449" y="65.4492" width="3.25101" height="10.8367" fill="#292929"/>
<rect x="155.66" y="73.0352" width="3.25101" height="8.66935" transform="rotate(90 155.66 73.0352)" fill="#292929"/>
<rect x="180.043" y="73.0352" width="3.25101" height="11.9204" transform="rotate(90 180.043 73.0352)" fill="#292929"/>
<rect x="175.707" y="85.498" width="3.25101" height="11.3785" transform="rotate(-180 175.707 85.498)" fill="#292929"/>
<path d="M146.451 65.4507L149.157 68.1586L139.946 78.9953L137.237 76.2864L146.451 65.4507Z" fill="#292929" fill-opacity="0.5"/>
<rect x="146.449" y="76.2871" width="3.25101" height="9.21119" transform="rotate(90 146.449 76.2871)" fill="#292929"/>
<path d="M149.699 85.498L146.448 85.498L146.448 76.2869V76.2869C148.244 76.2869 149.699 77.7424 149.699 79.5379L149.699 85.498Z" fill="#292929"/>
<path d="M152.41 83.8713H154.705C155.808 83.8713 156.836 83.3123 157.435 82.3864L161.473 76.145C162.072 75.2192 163.1 74.6602 164.203 74.6602H166.769" stroke="#292929" stroke-width="3.25101"/>
<path d="M191.175 75.942H192.406C192.318 73.9897 190.629 72.5563 188.237 72.5651C185.854 72.5563 184.025 73.9721 184.016 76.0475C184.025 77.7008 185.195 78.7296 187.2 79.3188L188.712 79.7585C190.26 80.1982 191.35 80.7786 191.35 82.045C191.35 83.5487 189.996 84.5512 188.114 84.56C186.435 84.5512 185.098 83.751 184.966 82.256H183.682C183.832 84.305 185.485 85.6945 188.114 85.6857C190.911 85.6945 192.573 84.1291 192.564 82.0626C192.573 79.9256 190.682 79.0814 189.082 78.6329L187.763 78.2636C186.558 77.9294 185.239 77.3226 185.247 75.9947C185.239 74.658 186.443 73.6819 188.202 73.6731C189.856 73.6819 191.043 74.5437 191.175 75.942ZM204.806 79.1078C204.815 75.1153 202.502 72.5651 199.283 72.5651C196.047 72.5651 193.743 75.1153 193.743 79.1078C193.743 83.0914 196.047 85.6505 199.283 85.6505C202.502 85.6505 204.815 83.1002 204.806 79.1078ZM194.974 79.1078C194.966 75.7133 196.812 73.7435 199.283 73.7435C201.746 73.7435 203.592 75.7221 203.592 79.1078C203.592 82.4935 201.746 84.4721 199.283 84.4721C196.803 84.4721 194.966 82.4847 194.974 79.1078ZM206.565 85.4746H213.847V84.349H207.814V72.741H206.565V85.4746ZM216.345 85.4746L217.682 81.6932H222.976L224.312 85.4746H225.631L221.006 72.741H219.652L215.026 85.4746H216.345ZM218.077 80.5852L220.285 74.3591H220.373L222.58 80.5852H218.077ZM226.758 85.4746H228.006V80.3741H230.944C231.093 80.3741 231.243 80.3653 231.383 80.3565L234.145 85.4746H235.587L232.667 80.1191C234.259 79.5915 235.068 78.2812 235.059 76.5751C235.068 74.3327 233.67 72.741 230.926 72.741H226.758V85.4746ZM228.006 79.2309V73.8666H230.873C232.878 73.8578 233.828 74.9395 233.828 76.5751C233.828 78.2108 232.878 79.2309 230.891 79.2309H228.006Z" fill="#292929"/>
<path d="M249.533 72.9395L248.004 71.4098L248.004 66.8209L249.533 65.2913L251.063 66.8209L251.063 71.4098L249.533 72.9395Z" fill="#DC8772"/>
<path d="M249.533 63.6484L248.004 62.1188L248.004 57.5299L249.533 56.0003L251.063 57.5299L251.063 62.1188L249.533 63.6484Z" fill="#86A6D9"/>
<path d="M250.355 64.4684L251.885 62.9388L256.472 62.9388L258.001 64.4684L256.472 65.998L251.885 65.998L250.355 64.4684Z" fill="#F5C851"/>
<path d="M241.062 64.4684L242.592 62.9388L247.179 62.9388L248.708 64.4684L247.179 65.998L242.592 65.998L241.062 64.4684Z" fill="#87D5D7"/>
<path d="M326.25 79.1035C326.25 79.7003 326.013 80.2726 325.591 80.6945C325.169 81.1165 324.597 81.3535 324 81.3535C323.404 81.3535 322.831 81.1165 322.409 80.6945C321.987 80.2726 321.75 79.7003 321.75 79.1035M324.541 68.6058L323.442 68.6035C320.934 68.5975 318.756 70.6353 318.739 73.1035V75.946C318.739 76.5385 318.664 77.1168 318.341 77.6095L318.126 77.938C317.798 78.436 318.15 79.1035 318.739 79.1035H329.262C329.85 79.1035 330.202 78.436 329.875 77.938L329.66 77.6095C329.337 77.1168 329.262 76.5378 329.262 75.9453V73.1043C329.232 70.6353 327.049 68.6118 324.541 68.6058V68.6058Z" stroke="black" stroke-width="1.5" stroke-linecap="round" stroke-linejoin="round"/>
<path d="M324 66.3535C324.398 66.3535 324.779 66.5116 325.061 66.7929C325.342 67.0742 325.5 67.4557 325.5 67.8535V68.6035H322.5V67.8535C322.5 67.4557 322.658 67.0742 322.939 66.7929C323.221 66.5116 323.602 66.3535 324 66.3535Z" stroke="black" stroke-width="1.5" stroke-linecap="round" stroke-linejoin="round"/>
<circle cx="330" cy="68.1172" r="4" fill="#ED6967"/>
<rect x="356" y="65.7363" width="12" height="2" rx="1" fill="#232323"/>
<rect x="356" y="71.7363" width="12" height="2" rx="1" fill="#232323"/>
<rect x="356" y="77.7363" width="12" height="2" rx="1" fill="#232323"/>
</g>
<defs>
<clipPath id="clip0_1442_16592">
<rect width="390" height="844" rx="20" fill="white"/>
</clipPath>
<clipPath id="clip1_1442_16592">
<rect x="16" y="516.473" width="358" height="225" rx="20" fill="white"/>
</clipPath>
</defs>
</svg>
