<svg width="642" height="97" viewBox="0 0 642 97" fill="none" xmlns="http://www.w3.org/2000/svg">
<rect width="641.817" height="97" rx="20" fill="white"/>
<path d="M48.4978 35.0273C49.616 35.0273 50.6918 35.455 51.5047 36.2227C52.3176 36.9905 52.8059 38.0402 52.8696 39.1566L52.8763 39.4058L52.8776 50.1189L52.9854 50.2119C54.2409 51.3312 55.0312 52.8805 55.2003 54.554L55.2259 54.8935L55.2339 55.2357C55.2341 56.3455 54.9601 57.4383 54.4362 58.4167C53.9123 59.3951 53.1547 60.2289 52.2309 60.844C51.307 61.459 50.2455 61.8363 49.1407 61.9422C48.0359 62.0482 46.9221 61.8795 45.8982 61.4511C44.8743 61.0228 43.9721 60.3481 43.2719 59.4871C42.5716 58.6261 42.0949 57.6053 41.8842 56.5156C41.6735 55.426 41.7353 54.3011 42.0642 53.2411C42.393 52.181 42.9787 51.2187 43.7691 50.4396L44.0116 50.2105L44.118 50.1189L44.1194 39.4058C44.1191 38.3298 44.5151 37.2914 45.2318 36.4887C45.9485 35.6861 46.9356 35.1755 48.0047 35.0543L48.2499 35.0341L48.4978 35.0273ZM48.4978 37.0482C47.9059 37.0482 47.3357 37.2709 46.9004 37.672C46.4651 38.0731 46.1966 38.6232 46.1483 39.2132L46.1402 39.4058V51.1186L45.7239 51.4217C44.9285 52.0002 44.334 52.813 44.0235 53.7462C43.713 54.6794 43.702 55.6864 43.9922 56.6261C44.2824 57.5658 44.8592 58.3913 45.6418 58.987C46.4244 59.5826 47.3737 59.9187 48.3567 59.9481C49.3398 59.9774 50.3075 59.6987 51.1243 59.1508C51.941 58.6029 52.5661 57.8134 52.9118 56.8927C53.2576 55.9719 53.3068 54.9661 53.0526 54.016C52.7984 53.066 52.2534 52.2191 51.4941 51.5941L51.2718 51.423L50.8582 51.1199L50.8555 39.4058C50.8555 38.7805 50.6071 38.1809 50.1649 37.7387C49.7228 37.2966 49.1231 37.0482 48.4978 37.0482ZM48.4978 43.1107C48.7658 43.1107 49.0228 43.2171 49.2123 43.4066C49.4018 43.5961 49.5082 43.8531 49.5082 44.1211V52.0226C50.2762 52.264 50.9324 52.7724 51.358 53.4558C51.7835 54.1391 51.9504 54.9523 51.8282 55.748C51.7061 56.5437 51.3031 57.2694 50.6922 57.7937C50.0813 58.318 49.3029 58.6063 48.4978 58.6063C47.6928 58.6063 46.9143 58.318 46.3034 57.7937C45.6925 57.2694 45.2895 56.5437 45.1674 55.748C45.0453 54.9523 45.2121 54.1391 45.6377 53.4558C46.0632 52.7724 46.7194 52.264 47.4874 52.0226V44.1211C47.4874 43.8531 47.5939 43.5961 47.7834 43.4066C47.9728 43.2171 48.2299 43.1107 48.4978 43.1107Z" fill="black"/>
<path d="M89.8318 49.6176H81.7422V47.5621C85.4665 47.3632 87.8094 45.9486 87.8205 43.6278C87.8094 41.2075 85.1018 39.7487 80.8802 39.7377C76.6143 39.7487 73.9178 41.2075 73.9178 43.6278C73.9178 45.9486 76.2496 47.3632 80.0182 47.5621V49.6176H71.9285V51.0543H89.8318V49.6176ZM74.2493 58.3704H87.8426V56.9116H75.9954V52.6457H74.2493V58.3704ZM75.7081 43.6278C75.6971 42.1248 77.7084 41.1522 80.8802 41.1522C84.0298 41.1522 86.0412 42.1248 86.0522 43.6278C86.0412 45.2302 84.0298 46.1475 80.8802 46.1475C77.7084 46.1475 75.6971 45.2302 75.7081 43.6278ZM106.454 48.3578H94.629V42.169H106.255V40.7544H92.8829V49.7724H98.6739V54.856H90.5842V56.3148H108.576V54.856H100.376V49.7724H106.454V48.3578Z" fill="#232323"/>
<path d="M123.626 57.221C126.82 57.221 129.207 55.276 129.196 52.6457C129.207 50.6123 127.947 49.1203 125.859 48.7998V48.6893C127.539 48.2141 128.6 46.8879 128.577 45.0645C128.6 42.7768 126.743 40.7765 123.693 40.7765C120.852 40.7765 118.487 42.4784 118.388 45.0202H120.311C120.399 43.4509 121.958 42.5116 123.671 42.5005C125.494 42.5116 126.666 43.5725 126.654 45.175C126.666 46.8216 125.306 47.9157 123.361 47.9157H122.057V49.6618H123.361C125.848 49.6729 127.24 50.8996 127.251 52.6457C127.24 54.3145 125.715 55.4528 123.604 55.4528C121.692 55.4528 120.178 54.5024 120.068 52.9773H118.056C118.156 55.5191 120.444 57.221 123.626 57.221ZM134.502 48.0704C136.491 48.0704 138.105 46.468 138.105 44.4898C138.105 42.4784 136.491 40.8649 134.502 40.8649C132.502 40.8649 130.899 42.4784 130.899 44.4898C130.899 46.468 132.502 48.0704 134.502 48.0704ZM132.468 44.4898C132.479 43.3515 133.386 42.4674 134.502 42.4563C135.618 42.4674 136.502 43.3515 136.513 44.4898C136.502 45.5949 135.618 46.5011 134.502 46.5011C133.386 46.5011 132.479 45.5949 132.468 44.4898Z" fill="#232323"/>
<path d="M185.818 38.8008C185.818 38.8008 179.352 46.831 179.352 52.5126C179.352 56.9949 181.85 59.8174 185.818 59.8174C189.786 59.8174 192.285 56.9949 192.285 52.5126C192.285 46.831 185.818 38.8008 185.818 38.8008ZM186.537 57.1796V55.9621C187.251 55.9612 187.936 55.6402 188.441 55.0696C188.946 54.499 189.23 53.7254 189.231 52.9184H190.309C190.308 54.0482 189.91 55.1313 189.203 55.9302C188.496 56.729 187.537 57.1784 186.537 57.1796Z" fill="#59D4FE"/>
<path d="M213.246 50.9438H211.522V58.5251H224.805V50.9438H223.059V53.2425H213.246V50.9438ZM209.245 49.5513H227.148V48.1146H209.245V49.5513ZM210.262 45.3297L210.925 46.7222C213.953 46.2691 216.959 44.7329 218.208 42.5226C219.456 44.7219 222.451 46.2691 225.491 46.7222L226.132 45.3297C222.672 44.8876 219.092 42.7105 219.103 40.2902V39.3619H217.312V40.2902C217.312 42.7879 213.765 44.8545 210.262 45.3297ZM213.246 57.1326V54.6129H223.059V57.1326H213.246ZM243.77 48.3578H231.945V42.169H243.572V40.7544H230.199V49.7724H235.99V54.856H227.901V56.3148H245.892V54.856H237.692V49.7724H243.77V48.3578Z" fill="#232323"/>
<path d="M255.019 53.7288H262.777V57H264.678V53.7288H266.911V51.9826H264.678V40.9975H262.225L255.019 52.0932V53.7288ZM257.163 51.9826V51.85L262.578 43.5173H262.777V51.9826H257.163ZM273.962 40.7765C270.558 40.7433 268.37 43.1636 268.37 46.1475C268.37 49.2308 270.746 51.4301 273.609 51.4301C275.311 51.4301 276.78 50.6344 277.698 49.3082H277.919C277.897 53.1983 276.305 55.4528 273.697 55.4528C271.918 55.4528 270.824 54.3919 270.47 52.9552H268.503C268.901 55.497 270.879 57.221 273.697 57.221C277.443 57.221 279.775 54.0493 279.775 48.3578C279.775 42.4674 276.714 40.8097 273.962 40.7765ZM270.315 46.1254C270.293 44.1472 271.874 42.5226 273.962 42.5226C276.073 42.5226 277.609 44.2466 277.609 46.0812C277.609 47.9599 275.985 49.684 273.896 49.684C271.807 49.684 270.304 48.1036 270.315 46.1254ZM283.597 50.8743C285.065 50.8822 285.878 49.7613 285.886 48.1273C285.878 46.5169 285.097 45.396 283.597 45.396C282.152 45.396 281.3 46.5169 281.308 48.1273C281.3 49.7613 282.121 50.8822 283.597 50.8743ZM282.429 57H283.707L291.57 45.5697H290.291L282.429 57ZM282.46 48.1273C282.46 47.0774 282.847 46.3827 283.597 46.3748C284.394 46.359 284.734 47.0774 284.734 48.1273C284.734 49.193 284.37 49.8955 283.597 49.8955C282.831 49.8955 282.46 49.193 282.46 48.1273ZM288.286 54.4266C288.27 56.0527 289.083 57.1658 290.575 57.1579C292.035 57.1658 292.848 56.0527 292.848 54.4266C292.848 52.8005 292.051 51.6874 290.575 51.6795C289.115 51.6874 288.27 52.8005 288.286 54.4266ZM289.423 54.4266C289.43 53.3609 289.809 52.6663 290.575 52.6584C291.364 52.6426 291.696 53.3609 291.696 54.4266C291.696 55.4844 291.341 56.1869 290.575 56.179C289.801 56.1869 289.43 55.4844 289.423 54.4266Z" fill="#232323"/>
<path d="M339.044 47.3516V52.4036H340.18V47.3516H339.044ZM335.002 50.7366L333.952 51.1714L334.919 53.5052L335.969 53.0703L335.002 50.7366ZM344.222 50.7366L343.255 53.0703L344.305 53.5052L345.272 51.1714L344.222 50.7366ZM328.358 51.4607L327.554 52.2644L331.127 55.8367L331.93 55.0331L328.358 51.4607ZM350.866 51.4607L347.293 55.0331L348.097 55.8367L351.67 52.2644L350.866 51.4607ZM339.612 54.8662C338.293 54.8661 336.997 55.2135 335.854 55.8734C333.694 57.1209 332.307 59.3498 332.12 61.8132H347.104C346.917 59.3498 345.53 57.1209 343.37 55.8734C342.227 55.2134 340.931 54.866 339.612 54.8662ZM327.644 57.9847L327.209 59.0349L329.543 60.0016L329.978 58.9515L327.644 57.9847ZM351.58 57.9847L349.246 58.9515L349.681 60.0016L352.015 59.035L351.58 57.9847ZM324.961 61.3332V62.4699H354.263V61.3332H324.961Z" fill="#EB7805"/>
<path d="M341.632 39.5833L341.632 43.625L337.59 43.625L337.59 39.5833L335.569 39.5833L339.611 34.5312L343.652 39.5833L341.632 39.5833Z" fill="#292929"/>
<path d="M341.632 39.5833L341.632 43.625L337.59 43.625L337.59 39.5833L335.569 39.5833L339.611 34.5312L343.652 39.5833L341.632 39.5833Z" fill="#292929"/>
<path d="M367.096 39.8703C364.123 39.8813 361.979 41.6717 361.99 44.2245C361.979 46.7885 364.123 48.5567 367.096 48.5567C370.036 48.5567 372.169 46.7885 372.18 44.2245C372.169 41.6717 370.036 39.8813 367.096 39.8703ZM363.692 44.2245C363.67 42.5226 365.118 41.318 367.096 41.3291C369.041 41.318 370.5 42.5226 370.5 44.2245C370.5 45.9486 369.041 47.1421 367.096 47.1421C365.118 47.1421 363.67 45.9486 363.692 44.2245ZM364.974 51.5848H376.026V53.6183H365.018V58.5251H378.457V57.1326H366.72V54.9223H377.75V50.1923H364.974V51.5848ZM376.026 49.2419H377.75V39.1409H376.026V49.2419ZM398.085 47.8936H380.204V49.2419H388.272V51.0764H382.348V52.3805H394.085V54.0824H382.392V58.5693H396.383V57.2431H384.116V55.3202H395.786V51.0764H389.973V49.2419H398.085V47.8936ZM381.154 45.6612L381.663 46.9874C384.956 46.7111 387.918 45.6944 389.134 43.8267C390.338 45.6944 393.3 46.7111 396.582 46.9874L397.113 45.6612C393.488 45.4292 390.416 44.2024 390.106 42.2353H396.273V40.8649H389.973V39.0304H388.272V40.8649H382.039V42.2353H388.15C387.829 44.2024 384.757 45.4292 381.154 45.6612Z" fill="#232323"/>
<path d="M411.974 55.1895C415.014 55.1895 416.767 52.6318 416.767 48.1418C416.767 43.6896 414.986 41.0941 411.974 41.0941C408.952 41.0941 407.171 43.6896 407.18 48.1418C407.171 52.6318 408.933 55.1895 411.974 55.1895ZM408.829 48.1418C408.838 44.5896 410.003 42.5813 411.974 42.5719C413.944 42.5813 415.109 44.5896 415.1 48.1418C415.109 51.694 413.953 53.6738 411.974 53.6738C409.984 53.6738 408.838 51.694 408.829 48.1418ZM423.038 55.1895C425.928 55.2179 427.813 53.1528 427.813 50.5668C427.813 47.9145 425.776 46.0199 423.342 46.0199C421.864 46.0199 420.604 46.6925 419.818 47.8387H419.647C419.638 44.5327 420.992 42.6098 423.247 42.6098C424.772 42.6098 425.7 43.5191 426.013 44.7316H427.699C427.349 42.5813 425.662 41.0941 423.247 41.0941C420.026 41.0941 418.037 43.8128 418.037 48.6723C418.037 53.7496 420.661 55.161 423.038 55.1895ZM419.875 50.6047C419.894 48.9849 421.277 47.5261 423.076 47.5166C424.867 47.5261 426.155 48.8996 426.164 50.5857C426.155 52.2908 424.81 53.6833 423.038 53.6928C421.201 53.6833 419.884 52.215 419.875 50.6047ZM430.561 53.1813C431.233 53.1718 431.782 52.6224 431.773 51.9498C431.782 51.2867 431.233 50.7373 430.561 50.7373C429.897 50.7373 429.329 51.2867 429.348 51.9498C429.329 52.6224 429.897 53.1718 430.561 53.1813ZM429.348 44.3338C429.329 45.0063 429.897 45.5558 430.561 45.5652C431.233 45.5558 431.782 45.0063 431.773 44.3338C431.782 43.6707 431.233 43.1213 430.561 43.1213C429.897 43.1213 429.329 43.6707 429.348 44.3338ZM438.026 55.1895C441.066 55.1895 442.819 52.6318 442.819 48.1418C442.819 43.6896 441.038 41.0941 438.026 41.0941C435.004 41.0941 433.223 43.6896 433.233 48.1418C433.223 52.6318 434.985 55.1895 438.026 55.1895ZM434.881 48.1418C434.89 44.5896 436.055 42.5813 438.026 42.5719C439.996 42.5813 441.161 44.5896 441.152 48.1418C441.161 51.694 440.005 53.6738 438.026 53.6738C436.036 53.6738 434.89 51.694 434.881 48.1418ZM448.901 55.1895C451.762 55.1895 453.77 53.5886 453.789 51.3625C453.77 49.5911 452.539 48.1229 450.985 47.8766V47.8008C452.33 47.4882 453.24 46.2283 453.258 44.7316C453.24 42.6382 451.402 41.0941 448.901 41.0941C446.391 41.0941 444.553 42.6382 444.563 44.7316C444.553 46.2283 445.453 47.4882 446.817 47.8008V47.8766C445.254 48.1229 444.023 49.5911 444.032 51.3625C444.023 53.5886 446.012 55.1895 448.901 55.1895ZM445.737 51.2678C445.709 49.7521 447.063 48.6344 448.901 48.6344C450.748 48.6344 452.084 49.7521 452.084 51.2678C452.084 52.7076 450.862 53.6833 448.901 53.6928C446.931 53.6833 445.709 52.7076 445.737 51.2678ZM446.211 44.8643C446.22 43.4907 447.272 42.5624 448.901 42.5719C450.502 42.5624 451.591 43.4907 451.591 44.8643C451.591 46.2473 450.464 47.1851 448.901 47.1945C447.329 47.1851 446.22 46.2473 446.211 44.8643Z" fill="#232323"/>
<path d="M499.329 47.3516V52.4036H500.465V47.3516H499.329ZM495.288 50.7366L494.237 51.1714L495.204 53.5052L496.254 53.0703L495.288 50.7366ZM504.507 50.7366L503.54 53.0703L504.59 53.5052L505.557 51.1714L504.507 50.7366ZM488.643 51.4607L487.84 52.2644L491.412 55.8367L492.216 55.0331L488.643 51.4607ZM511.151 51.4607L507.579 55.0331L508.382 55.8367L511.955 52.2644L511.151 51.4607ZM499.897 54.8662C498.578 54.8661 497.282 55.2135 496.14 55.8734C493.979 57.1209 492.592 59.3498 492.406 61.8132H507.389C507.202 59.3498 505.815 57.1209 503.655 55.8734C502.512 55.2134 501.216 54.866 499.897 54.8662ZM487.929 57.9847L487.494 59.0349L489.828 60.0016L490.263 58.9515L487.929 57.9847ZM511.865 57.9847L509.531 58.9515L509.966 60.0016L512.3 59.035L511.865 57.9847ZM485.246 61.3332V62.4699H514.548V61.3332H485.246Z" fill="#EB7805"/>
<path d="M497.876 38.5729V34.5312H501.918V38.5729H503.939L499.897 43.625L495.855 38.5729H497.876Z" fill="#292929"/>
<path d="M527.381 39.8703C524.408 39.8813 522.264 41.6717 522.275 44.2245C522.264 46.7885 524.408 48.5567 527.381 48.5567C530.321 48.5567 532.454 46.7885 532.465 44.2245C532.454 41.6717 530.321 39.8813 527.381 39.8703ZM523.977 44.2245C523.955 42.5226 525.403 41.318 527.381 41.3291C529.326 41.318 530.785 42.5226 530.785 44.2245C530.785 45.9486 529.326 47.1421 527.381 47.1421C525.403 47.1421 523.955 45.9486 523.977 44.2245ZM525.259 51.5848H536.311V53.6183H525.304V58.5251H538.742V57.1326H527.006V54.9223H538.035V50.1923H525.259V51.5848ZM536.311 49.2419H538.035V39.1409H536.311V49.2419ZM558.37 47.7389H550.236V45.7938H556.05V39.804H542.788V45.7938H548.535V47.7389H540.467V49.1756H558.37V47.7389ZM542.633 52.1595H554.37V53.9056H542.677V58.5693H556.668V57.1989H544.401V55.2097H556.072V50.8112H542.633V52.1595ZM544.512 44.4014V41.1965H554.326V44.4014H544.512Z" fill="#232323"/>
<path d="M572.619 41.2836H570.895L567.485 43.557V45.2811L570.819 43.0645H570.895V55H572.619V41.2836ZM580.065 41.0941C577.147 41.0657 575.272 43.1402 575.272 45.6979C575.272 48.3407 577.308 50.2258 579.762 50.2258C581.221 50.2258 582.481 49.5438 583.267 48.407H583.456C583.437 51.7414 582.073 53.6738 579.838 53.6738C578.313 53.6738 577.375 52.7645 577.072 51.533H575.386C575.727 53.7117 577.422 55.1895 579.838 55.1895C583.049 55.1895 585.048 52.4708 585.048 47.5924C585.048 42.5435 582.424 41.1226 580.065 41.0941ZM576.939 45.6789C576.92 43.9833 578.275 42.5908 580.065 42.5908C581.874 42.5908 583.191 44.0686 583.191 45.641C583.191 47.2514 581.799 48.7291 580.008 48.7291C578.218 48.7291 576.93 47.3745 576.939 45.6789ZM587.795 53.1813C588.468 53.1718 589.017 52.6224 589.008 51.9498C589.017 51.2867 588.468 50.7373 587.795 50.7373C587.132 50.7373 586.564 51.2867 586.583 51.9498C586.564 52.6224 587.132 53.1718 587.795 53.1813ZM586.583 44.3338C586.564 45.0063 587.132 45.5558 587.795 45.5652C588.468 45.5558 589.017 45.0063 589.008 44.3338C589.017 43.6707 588.468 43.1213 587.795 43.1213C587.132 43.1213 586.564 43.6707 586.583 44.3338ZM595.261 55.1895C598.301 55.1895 600.054 52.6318 600.054 48.1418C600.054 43.6896 598.273 41.0941 595.261 41.0941C592.239 41.0941 590.458 43.6896 590.468 48.1418C590.458 52.6318 592.22 55.1895 595.261 55.1895ZM592.116 48.1418C592.125 44.5896 593.29 42.5813 595.261 42.5719C597.231 42.5813 598.396 44.5896 598.387 48.1418C598.396 51.694 597.24 53.6738 595.261 53.6738C593.271 53.6738 592.125 51.694 592.116 48.1418ZM606.401 41.2836H604.677L601.267 43.557V45.2811L604.601 43.0645H604.677V55H606.401V41.2836Z" fill="#232323"/>
</svg>
