<svg width="339" height="371" viewBox="0 0 339 371" fill="none" xmlns="http://www.w3.org/2000/svg">
<rect width="339" height="370.333" rx="20" fill="white"/>
<rect x="28" y="23" width="83" height="34" rx="17" fill="#EB7805"/>
<path d="M51.8594 31.0234H49.457V37.8984H47.7969V31.3164H45.4531V47.9375H47.7969V39.9102H49.457V48.7969H51.8594V31.0234ZM37.25 44.4609H38.4609C40.2969 44.4707 42.3281 44.3438 44.7109 43.9336L44.457 41.7852C42.748 42.1172 41.1758 42.2441 39.75 42.2832V32.9961H37.25V44.4609ZM55.8203 31.8242H53.3398V39.5781H61.9531V31.8242H59.4531V33.9336H55.8203V31.8242ZM55.1172 42.6641H64.4336V43.7773H55.1562V48.6797H67.4219V46.707H57.5977V45.5547H66.9141V40.7305H55.1172V42.6641ZM55.8203 37.625V35.8086H59.4531V37.625H55.8203ZM64.4141 40.0664H66.9141V36.4922H69.3164V34.4805H66.9141V31.0234H64.4141V40.0664ZM84.0781 31.043H81.5977V35.6328H78.6875V37.6445H81.5977V44.0117H84.0781V31.043ZM69 40.0078L70.2695 42.0391C72.3691 41.3457 73.7852 39.9102 74.5762 38.1426C75.3477 39.7344 76.7051 41.0234 78.668 41.668L79.8984 39.6953C77.0762 38.7773 75.8066 36.5801 75.8164 34.5195V34.2266H79.3516V32.2344H69.7031V34.2266H73.2773V34.5C73.2676 36.7754 71.9395 39.0898 69 40.0078ZM72.2812 48.4844H84.5078V46.4922H74.7812V42.8789H72.2812V48.4844ZM101.652 44.6758H94.6602V40.6523H92.1797V44.6758H85.3828V46.668H101.652V44.6758ZM85.7734 39.1484L86.8281 41.2188C89.9336 40.6621 92.248 38.9727 93.4102 36.7656C94.582 38.9824 96.9062 40.6523 100.031 41.2188L101.086 39.1484C97.0234 38.5234 94.7285 35.8477 94.7383 33.3086V32.0391H92.082V33.3086C92.0625 35.8184 89.7969 38.5234 85.7734 39.1484Z" fill="white"/>
<path d="M69.4987 76.8333C68.3936 76.8333 67.3338 76.3943 66.5524 75.6129C65.771 74.8315 65.332 73.7717 65.332 72.6667C65.332 71.5616 65.771 70.5018 66.5524 69.7204C67.3338 68.939 68.3936 68.5 69.4987 68.5C70.6038 68.5 71.6636 68.939 72.445 69.7204C73.2264 70.5018 73.6654 71.5616 73.6654 72.6667C73.6654 73.2138 73.5576 73.7557 73.3482 74.2612C73.1388 74.7667 72.8319 75.226 72.445 75.6129C72.0581 75.9999 71.5987 76.3068 71.0932 76.5162C70.5877 76.7256 70.0459 76.8333 69.4987 76.8333M69.4987 61C66.4045 61 63.437 62.2292 61.2491 64.4171C59.0612 66.605 57.832 69.5725 57.832 72.6667C57.832 81.4167 69.4987 94.3333 69.4987 94.3333C69.4987 94.3333 81.1654 81.4167 81.1654 72.6667C81.1654 69.5725 79.9362 66.605 77.7483 64.4171C75.5604 62.2292 72.5929 61 69.4987 61V61Z" fill="#EB7805"/>
<path d="M51.7109 130.568C55.5781 130.568 58.3672 128.529 58.3672 125.764C58.3672 123.631 56.7031 121.896 54.6406 121.568V121.451C56.4219 121.1 57.7227 119.564 57.7344 117.701C57.7227 115.064 55.1797 113.131 51.7109 113.131C48.2422 113.131 45.6992 115.064 45.7109 117.701C45.6992 119.564 46.9648 121.1 48.8047 121.451V121.568C46.6953 121.896 45.0547 123.631 45.0547 125.764C45.0547 128.529 47.832 130.568 51.7109 130.568ZM48.7344 125.412C48.7227 123.936 49.9883 122.869 51.7109 122.857C53.4336 122.869 54.6992 123.947 54.6875 125.412C54.6992 126.865 53.5039 127.885 51.7109 127.873C49.918 127.885 48.7227 126.865 48.7344 125.412ZM49.1562 118.053C49.1445 116.729 50.1875 115.803 51.7109 115.803C53.2227 115.803 54.2773 116.729 54.2891 118.053C54.2773 119.412 53.1992 120.361 51.7109 120.373C50.2109 120.361 49.1445 119.412 49.1562 118.053ZM60.4375 130.334H64.0938L71.2422 116.295V113.365H59.2656V116.248H67.5859V116.365L60.4375 130.334ZM77.0391 121.85C79.5469 121.85 80.9414 120.021 80.9531 117.326C80.9414 114.643 79.582 112.779 77.0391 112.779C74.5664 112.779 73.125 114.643 73.125 117.326C73.125 119.998 74.4961 121.85 77.0391 121.85ZM75.5156 117.326C75.5273 115.885 76.043 114.877 77.0391 114.865C78.0938 114.865 78.5508 115.861 78.5625 117.326C78.5508 118.791 78.0469 119.752 77.0391 119.764C76.0547 119.752 75.5273 118.791 75.5156 117.326ZM75.5625 130.334H78.1875L89.8594 113.365H87.2344L75.5625 130.334ZM84.5859 126.373C84.5859 129.045 85.957 130.896 88.4766 130.896C91.0078 130.896 92.4023 129.068 92.4141 126.373C92.4023 123.689 91.043 121.838 88.4766 121.826C86.0273 121.838 84.5859 123.689 84.5859 126.373ZM86.9766 126.373C86.9883 124.932 87.4922 123.924 88.4766 123.936C89.543 123.912 90.0117 124.908 90.0234 126.373C90.0117 127.838 89.5078 128.811 88.4766 128.811C87.5156 128.811 86.9883 127.838 86.9766 126.373Z" fill="#25B860"/>
<rect x="29.5" y="145.334" width="80" height="175" fill="#26B860"/>
<path d="M69.5469 333.318H67.7031V331.553H65.7031V339.865H67.7031V338.053H69.5469V336.412H67.7031V334.943H69.5469V333.318ZM56.5156 335.771C56.5078 337.779 58.1953 339.217 60.4219 339.209C62.625 339.217 64.2969 337.779 64.2969 335.771C64.2969 333.748 62.625 332.326 60.4219 332.334C58.1953 332.326 56.5078 333.748 56.5156 335.771ZM58.1719 342.975C58.1641 344.725 60.0703 345.779 63.0469 345.771C65.9688 345.779 67.8359 344.725 67.8438 342.975C67.8359 341.201 65.9688 340.154 63.0469 340.146C60.0703 340.154 58.1641 341.201 58.1719 342.975ZM58.4844 335.771C58.4688 334.678 59.3047 333.998 60.4219 334.006C61.5156 333.998 62.3516 334.678 62.3594 335.771C62.3516 336.881 61.5156 337.529 60.4219 337.537C59.3047 337.529 58.4688 336.881 58.4844 335.771ZM60.1719 342.975C60.1562 342.146 61.1797 341.732 63.0469 341.725C64.8906 341.732 65.875 342.146 65.875 342.975C65.875 343.811 64.8906 344.193 63.0469 344.193C61.1797 344.193 60.1562 343.811 60.1719 342.975ZM81.6406 333.35H76.7031V331.693H74.7344V333.35H69.8125V334.943H81.6406V333.35ZM69.25 344.318H82.2656V342.725H76.7031V341.084C79.0859 340.873 80.5703 339.881 80.5625 338.318C80.5703 336.592 78.6719 335.561 75.7188 335.568C72.7109 335.561 70.8438 336.592 70.8594 338.318C70.8438 339.881 72.3125 340.873 74.7344 341.092V342.725H69.25V344.318ZM72.9062 338.318C72.8984 337.506 73.875 337.123 75.7188 337.115C77.5234 337.123 78.5156 337.506 78.5156 338.318C78.5156 339.162 77.5234 339.545 75.7188 339.537C73.875 339.545 72.8984 339.162 72.9062 338.318Z" fill="#2A2933"/>
<path d="M153.648 214.365H150.32L146.125 217.037V220.154L150.016 217.717H150.109V231.334H153.648V214.365ZM163.172 231.568C167.414 231.568 169.992 228.428 169.992 222.85C169.992 217.307 167.402 214.131 163.172 214.131C158.941 214.131 156.352 217.307 156.352 222.85C156.352 228.404 158.918 231.568 163.172 231.568ZM159.961 222.85C159.961 218.971 161.215 217.025 163.172 217.014C165.129 217.025 166.395 218.971 166.383 222.85C166.395 226.764 165.141 228.662 163.172 228.662C161.203 228.662 159.938 226.764 159.961 222.85ZM172.789 231.545C173.832 231.545 174.734 230.666 174.734 229.576C174.734 228.498 173.832 227.619 172.789 227.631C171.688 227.619 170.797 228.498 170.82 229.576C170.797 230.666 171.688 231.545 172.789 231.545ZM182.594 231.568C186.414 231.568 189.016 229.119 189.016 225.686C189.016 222.428 186.695 220.096 183.578 220.107C182.09 220.096 180.801 220.705 180.18 221.537H180.039L180.508 217.248H188.055V214.365H177.602L176.688 224.139H179.875C180.379 223.189 181.27 222.709 182.547 222.709C184.328 222.721 185.605 223.975 185.594 225.779C185.605 227.549 184.352 228.791 182.594 228.779C181.117 228.791 179.91 227.877 179.828 226.553H176.406C176.465 229.482 179.055 231.568 182.594 231.568ZM194.859 222.85C197.367 222.85 198.762 221.021 198.773 218.326C198.762 215.643 197.402 213.779 194.859 213.779C192.387 213.779 190.945 215.643 190.945 218.326C190.945 220.998 192.316 222.85 194.859 222.85ZM193.336 218.326C193.348 216.885 193.863 215.877 194.859 215.865C195.914 215.865 196.371 216.861 196.383 218.326C196.371 219.791 195.867 220.752 194.859 220.764C193.875 220.752 193.348 219.791 193.336 218.326ZM193.383 231.334H196.008L207.68 214.365H205.055L193.383 231.334ZM202.406 227.373C202.406 230.045 203.777 231.896 206.297 231.896C208.828 231.896 210.223 230.068 210.234 227.373C210.223 224.689 208.863 222.838 206.297 222.826C203.848 222.838 202.406 224.689 202.406 227.373ZM204.797 227.373C204.809 225.932 205.312 224.924 206.297 224.936C207.363 224.912 207.832 225.908 207.844 227.373C207.832 228.838 207.328 229.811 206.297 229.811C205.336 229.811 204.809 228.838 204.797 227.373Z" fill="#E3B617"/>
<rect x="139" y="246.334" width="80" height="74" fill="#E3B617"/>
<path d="M178.891 339.396H165.922V340.99H171.391V345.771H173.359V340.99H178.891V339.396ZM166.562 337.006L167.297 338.568C169.773 338.232 171.547 337.17 172.414 335.709C173.273 337.17 175.062 338.232 177.562 338.568L178.281 337.006C175.359 336.654 173.789 335.264 173.586 333.865H177.734V332.303H167.094V333.865H171.242C171.031 335.264 169.438 336.654 166.562 337.006ZM183.359 332.506C181.117 332.498 179.398 333.951 179.406 335.99C179.398 338.037 181.117 339.482 183.359 339.49C185.617 339.482 187.289 338.037 187.297 335.99C187.289 333.951 185.617 332.498 183.359 332.506ZM178.812 341.271L179.047 342.896C181.531 342.896 184.906 342.873 188.062 342.256L187.906 340.818C184.867 341.248 181.352 341.279 178.812 341.271ZM181.391 335.99C181.383 334.881 182.234 334.225 183.359 334.225C184.492 334.225 185.352 334.881 185.359 335.99C185.352 337.115 184.492 337.764 183.359 337.756C182.234 337.764 181.383 337.115 181.391 335.99ZM188.719 345.803H190.703V331.553H188.719V345.803Z" fill="#2A2933"/>
<path d="M261.836 287.334H273.977V284.428H266.734V284.334L269.312 281.826C272.805 278.662 273.742 277.08 273.742 275.146C273.742 272.205 271.328 270.131 267.695 270.131C264.121 270.131 261.66 272.252 261.672 275.568H265.023C265.012 273.939 266.055 272.932 267.648 272.943C269.207 272.932 270.344 273.869 270.344 275.381C270.344 276.729 269.488 277.666 267.906 279.178L261.812 284.779L261.836 287.334ZM279.938 278.85C282.445 278.85 283.84 277.021 283.852 274.326C283.84 271.643 282.48 269.779 279.938 269.779C277.465 269.779 276.023 271.643 276.023 274.326C276.023 276.998 277.395 278.85 279.938 278.85ZM278.414 274.326C278.426 272.885 278.941 271.877 279.938 271.865C280.992 271.865 281.449 272.861 281.461 274.326C281.449 275.791 280.945 276.752 279.938 276.764C278.953 276.752 278.426 275.791 278.414 274.326ZM278.461 287.334H281.086L292.758 270.365H290.133L278.461 287.334ZM287.484 283.373C287.484 286.045 288.855 287.896 291.375 287.896C293.906 287.896 295.301 286.068 295.312 283.373C295.301 280.689 293.941 278.838 291.375 278.826C288.926 278.838 287.484 280.689 287.484 283.373ZM289.875 283.373C289.887 281.932 290.391 280.924 291.375 280.936C292.441 280.912 292.91 281.908 292.922 283.373C292.91 284.838 292.406 285.811 291.375 285.811C290.414 285.811 289.887 284.838 289.875 283.373Z" fill="#E21D1D"/>
<rect x="239" y="306.334" width="80" height="10" fill="#E21D1D"/>
<path d="M277.906 331.568H275.922V333.85H273.273C273.344 333.428 273.375 332.982 273.375 332.521H266.812V334.115H271.203C270.922 336.068 269.312 337.639 266.047 338.49L266.828 340.068C269.953 339.217 271.977 337.662 272.867 335.412H275.922V336.771H272.719V338.365H275.922V339.756H277.906V331.568ZM268.312 342.803C268.305 344.584 270.25 345.709 273.172 345.709C276.055 345.709 278.008 344.584 278.016 342.803C278.008 341.045 276.055 339.936 273.172 339.928C270.25 339.936 268.305 341.045 268.312 342.803ZM270.297 342.803C270.297 341.928 271.367 341.475 273.172 341.49C274.938 341.475 276.008 341.928 276.016 342.803C276.008 343.686 274.938 344.131 273.172 344.131C271.367 344.131 270.297 343.686 270.297 342.803ZM290.469 332.787H280.094V334.365H288.469C288.461 336.037 288.438 338.037 287.891 340.725L289.891 340.928C290.461 337.912 290.461 335.912 290.469 334.131V332.787ZM278.75 344.037H291.719V342.412H285.375V337.521H283.391V342.412H278.75V344.037Z" fill="#2A2933"/>
</svg>
