<svg width="500" height="293" viewBox="0 0 500 293" fill="none" xmlns="http://www.w3.org/2000/svg">
<rect y="0.433594" width="500" height="291.98" rx="20" fill="white"/>
<path d="M248.121 112.372L207.561 157.265L25.0634 157.265L25.0634 68.2939L207.561 68.293L248.121 112.372Z" fill="#EB7805"/>
<path d="M84.5541 95.7895H82.3783V102.591H89.9338V95.7895H87.7408V97.6398H84.5541V95.7895ZM83.9374 105.298H92.1096V106.275H83.9716V110.575H94.7309V108.845H86.1132V107.834H94.2855V103.602H83.9374V105.298ZM84.5541 100.878V99.2845H87.7408V100.878H84.5541ZM92.0925 103.019H94.2855V99.8842H96.3928V98.1195H94.2855V95.087H92.0925V103.019ZM109.517 95.1042H107.341V99.1303H104.789V100.895H107.341V106.48H109.517V95.1042ZM96.2907 102.968L97.4043 104.75C99.2461 104.142 100.488 102.882 101.182 101.332C101.859 102.728 103.05 103.859 104.771 104.424L105.851 102.694C103.375 101.889 102.261 99.9613 102.27 98.1538V97.8968H105.371V96.1493H96.9075V97.8968H100.043V98.1367C100.034 100.133 98.8692 102.163 96.2907 102.968ZM99.169 110.404H109.894V108.656H101.362V105.487H99.169V110.404ZM123.978 95.1042H121.802V99.1303H119.249V100.895H121.802V106.48H123.978V95.1042ZM110.751 102.968L111.865 104.75C113.707 104.142 114.949 102.882 115.643 101.332C116.319 102.728 117.51 103.859 119.232 104.424L120.311 102.694C117.836 101.889 116.722 99.9613 116.731 98.1538V97.8968H119.832V96.1493H111.368V97.8968H114.503V98.1367C114.495 100.133 113.33 102.163 110.751 102.968ZM113.63 110.404H124.355V108.656H115.823V105.487H113.63V110.404ZM132.785 95.9951H125.88V97.7083H130.592V99.2331H125.914V104.27H127.079C130.095 104.262 131.731 104.219 133.556 103.893L133.35 102.146C131.774 102.446 130.386 102.523 128.073 102.523V100.861H132.785V95.9951ZM127.696 107.148H136.263V110.678H138.438V105.401H127.696V107.148ZM133.676 102.3H136.263V104.698H138.438V95.1042H136.263V97.2629H133.676V98.9933H136.263V100.569H133.676V102.3ZM144.71 109.102C148.496 109.102 150.783 106.763 150.775 102.882C150.783 99.019 148.496 96.6975 144.761 96.6975H140.341V109.102H144.71ZM142.911 106.891V98.9076H144.624C146.971 98.9076 148.205 100.124 148.205 102.882C148.205 105.666 146.971 106.891 144.607 106.891H142.911ZM160.233 101.015H162.837C162.494 98.1623 160.335 96.5262 157.474 96.5262C154.202 96.5262 151.701 98.8477 151.701 102.9C151.701 106.934 154.159 109.273 157.474 109.273C160.627 109.273 162.554 107.183 162.837 104.887L160.233 104.87C159.984 106.215 158.922 106.986 157.508 106.994C155.615 106.986 154.322 105.572 154.322 102.9C154.322 100.287 155.598 98.8134 157.526 98.8048C158.973 98.8134 160.027 99.6443 160.233 101.015ZM87.7751 117.698H85.3422L82.2755 119.651V121.929L85.1195 120.147H85.188V130.102H87.7751V117.698ZM92.0589 128.834H89.6261L88.7695 133.717H90.5855L92.0589 128.834ZM97.4221 117.698H94.9893L91.9226 119.651V121.929L94.7666 120.147H94.8351V130.102H97.4221V117.698ZM99.3931 127.909H105.424V130.102H107.874V127.909H109.45V125.836H107.874V117.698H104.636L99.3931 125.87V127.909ZM101.997 125.836V125.733L105.338 120.524H105.458V125.836H101.997ZM110.427 130.102H119.302V127.977H114.008V127.909L115.893 126.075C118.445 123.762 119.131 122.606 119.131 121.193C119.131 119.042 117.366 117.526 114.71 117.526C112.098 117.526 110.299 119.077 110.307 121.501H112.757C112.749 120.31 113.511 119.574 114.676 119.582C115.815 119.574 116.646 120.259 116.646 121.364C116.646 122.349 116.021 123.034 114.865 124.139L110.41 128.234L110.427 130.102ZM121.941 130.256C122.703 130.256 123.363 129.613 123.363 128.817C123.363 128.029 122.703 127.386 121.941 127.395C121.136 127.386 120.485 128.029 120.502 128.817C120.485 129.613 121.136 130.256 121.941 130.256ZM128.966 130.273C131.767 130.281 133.669 128.474 133.66 125.955C133.669 123.617 132.007 121.946 129.771 121.946C128.401 121.946 127.176 122.589 126.602 123.694H126.482C126.499 121.253 127.381 119.736 129.069 119.736C130.071 119.736 130.782 120.276 130.988 121.141H133.523C133.275 119.102 131.562 117.526 129.069 117.526C125.968 117.526 123.972 120.002 123.963 124.191C123.955 128.731 126.405 130.264 128.966 130.273ZM126.739 126.024C126.756 124.816 127.715 123.822 128.983 123.814C130.243 123.822 131.159 124.782 131.159 126.024C131.159 127.275 130.225 128.243 128.949 128.234C127.681 128.243 126.756 127.24 126.739 126.024ZM134.758 130.102H137.293V127.12L138.004 126.315L140.566 130.102H143.547L139.889 124.825L143.358 120.799H140.446L137.43 124.362H137.293V117.698H134.758V130.102ZM146.666 130.102H149.184L151.566 121.912H151.668L154.033 130.102H156.551L160.098 117.698H157.288L155.198 126.384H155.095L152.816 117.698H150.4L148.122 126.367H148.019L145.929 117.698H143.119L146.666 130.102Z" fill="white"/>
<rect x="248" y="45" width="1" height="198" fill="#D9D9D9"/>
<path d="M249.375 165.187L290.391 120.293L474.939 120.293L474.939 209.265L290.391 209.266L249.375 165.187Z" fill="#A23A03"/>
<path d="M337.691 147.791H335.515V154.593H343.071V147.791H340.878V149.642H337.691V147.791ZM337.074 157.3H345.246V158.277H337.108V162.577H347.868V160.847H339.25V159.836H347.422V155.604H337.074V157.3ZM337.691 152.88V151.286H340.878V152.88H337.691ZM345.229 155.021H347.422V151.886H349.53V150.121H347.422V147.089H345.229V155.021ZM362.654 147.106H360.478V151.132H357.925V152.897H360.478V158.482H362.654V147.106ZM349.427 154.97L350.541 156.752C352.383 156.144 353.625 154.884 354.319 153.334C354.996 154.73 356.186 155.861 357.908 156.426L358.987 154.696C356.512 153.891 355.398 151.963 355.407 150.156V149.899H358.508V148.151H350.044V149.899H353.179V150.139C353.171 152.135 352.006 154.165 349.427 154.97ZM352.306 162.406H363.031V160.658H354.499V157.489H352.306V162.406ZM377.115 147.106H374.939V151.132H372.386V152.897H374.939V158.482H377.115V147.106ZM363.888 154.97L365.002 156.752C366.843 156.144 368.086 154.884 368.779 153.334C369.456 154.73 370.647 155.861 372.369 156.426L373.448 154.696C370.972 153.891 369.859 151.963 369.867 150.156V149.899H372.968V148.151H364.505V149.899H367.64V150.139C367.632 152.135 366.467 154.165 363.888 154.97ZM366.766 162.406H377.491V160.658H368.959V157.489H366.766V162.406ZM385.921 147.997H379.017V149.71H383.728V151.235H379.051V156.272H380.216C383.232 156.264 384.868 156.221 386.692 155.895L386.487 154.148C384.911 154.447 383.523 154.525 381.21 154.525V152.863H385.921V147.997ZM380.833 159.15H389.399V162.68H391.575V157.403H380.833V159.15ZM386.812 154.302H389.399V156.7H391.575V147.106H389.399V149.265H386.812V150.995H389.399V152.571H386.812V154.302ZM395.551 161.104L396.484 158.242H400.973L401.907 161.104H404.665L400.382 148.699H397.075L392.775 161.104H395.551ZM397.135 156.238L398.686 151.492H398.772L400.322 156.238H397.135ZM413.078 153.017H415.682C415.34 150.164 413.181 148.528 410.32 148.528C407.047 148.528 404.546 150.85 404.546 154.901C404.546 158.936 407.005 161.275 410.32 161.275C413.472 161.275 415.4 159.185 415.682 156.889L413.078 156.872C412.83 158.217 411.767 158.988 410.354 158.996C408.461 158.988 407.167 157.574 407.167 154.901C407.167 152.289 408.444 150.815 410.371 150.807C411.819 150.815 412.872 151.646 413.078 153.017ZM340.912 169.699H338.479L335.412 171.653V173.931L338.256 172.149H338.325V182.104H340.912V169.699ZM345.196 180.836H342.763L341.906 185.719H343.722L345.196 180.836ZM350.559 169.699H348.126L345.059 171.653V173.931L347.903 172.149H347.972V182.104H350.559V169.699ZM352.53 179.911H358.561V182.104H361.01V179.911H362.587V177.837H361.01V169.699H357.772L352.53 177.872V179.911ZM355.134 177.837V177.735L358.475 172.526H358.595V177.837H355.134ZM368.378 182.275C371.479 182.275 373.364 179.979 373.364 175.901C373.364 171.85 371.471 169.528 368.378 169.528C365.286 169.528 363.393 171.85 363.393 175.901C363.393 179.962 365.269 182.275 368.378 182.275ZM366.031 175.901C366.031 173.066 366.948 171.644 368.378 171.635C369.809 171.644 370.734 173.066 370.725 175.901C370.734 178.763 369.817 180.15 368.378 180.15C366.939 180.15 366.014 178.763 366.031 175.901ZM375.438 182.258C376.2 182.258 376.86 181.615 376.86 180.819C376.86 180.03 376.2 179.388 375.438 179.397C374.632 179.388 373.981 180.03 373.998 180.819C373.981 181.615 374.632 182.258 375.438 182.258ZM381.983 169.699H379.55L376.483 171.653V173.931L379.327 172.149H379.396V182.104H381.983V169.699ZM388.717 182.275C391.509 182.275 393.411 180.484 393.411 177.975C393.411 175.593 391.715 173.888 389.436 173.897C388.348 173.888 387.406 174.334 386.952 174.942H386.849L387.192 171.807H392.709V169.699H385.068L384.399 176.844H386.729C387.098 176.15 387.749 175.799 388.682 175.799C389.985 175.807 390.918 176.724 390.91 178.043C390.918 179.337 390.002 180.245 388.717 180.236C387.637 180.245 386.755 179.576 386.695 178.608H384.194C384.237 180.75 386.13 182.275 388.717 182.275ZM394.474 182.104H397.01V179.122L397.721 178.317L400.282 182.104H403.263L399.605 176.827L403.075 172.8H400.162L397.147 176.364H397.01V169.699H394.474V182.104ZM406.382 182.104H408.9L411.282 173.914H411.385L413.749 182.104H416.267L419.814 169.699H417.004L414.914 178.386H414.811L412.533 169.699H410.117L407.838 178.369H407.735L405.645 169.699H402.835L406.382 182.104Z" fill="white"/>
<path d="M240.791 270.171C243.892 270.171 245.776 267.876 245.776 263.798C245.776 259.746 243.883 257.425 240.791 257.425C237.698 257.425 235.805 259.746 235.805 263.798C235.805 267.858 237.681 270.171 240.791 270.171ZM238.444 263.798C238.444 260.963 239.36 259.541 240.791 259.532C242.221 259.541 243.147 260.963 243.138 263.798C243.147 266.659 242.23 268.047 240.791 268.047C239.352 268.047 238.427 266.659 238.444 263.798ZM250.112 263.798C251.945 263.798 252.964 262.462 252.973 260.491C252.964 258.53 251.971 257.168 250.112 257.168C248.304 257.168 247.251 258.53 247.251 260.491C247.251 262.444 248.253 263.798 250.112 263.798ZM248.998 260.491C249.007 259.438 249.384 258.701 250.112 258.692C250.883 258.692 251.217 259.421 251.225 260.491C251.217 261.562 250.848 262.265 250.112 262.273C249.392 262.265 249.007 261.562 248.998 260.491ZM249.032 270H250.951L259.483 257.596H257.564L249.032 270ZM255.628 267.105C255.628 269.058 256.631 270.411 258.472 270.411C260.323 270.411 261.342 269.075 261.351 267.105C261.342 265.143 260.348 263.789 258.472 263.781C256.682 263.789 255.628 265.143 255.628 267.105ZM257.376 267.105C257.385 266.051 257.753 265.314 258.472 265.323C259.252 265.306 259.595 266.034 259.603 267.105C259.595 268.175 259.226 268.886 258.472 268.886C257.77 268.886 257.385 268.175 257.376 267.105Z" fill="#2A2933"/>
<path d="M233.322 18.5959H230.889L227.822 20.5491V22.8277L230.666 21.0459H230.735V31H233.322V18.5959ZM240.313 31.1713C243.414 31.1713 245.298 28.8755 245.298 24.798C245.298 20.7461 243.405 18.4246 240.313 18.4246C237.22 18.4246 235.327 20.7461 235.327 24.798C235.327 28.8584 237.203 31.1713 240.313 31.1713ZM237.966 24.798C237.966 21.9625 238.882 20.5405 240.313 20.5319C241.743 20.5405 242.669 21.9625 242.66 24.798C242.669 27.6591 241.752 29.0469 240.313 29.0469C238.874 29.0469 237.948 27.6591 237.966 24.798ZM251.193 31.1713C254.294 31.1713 256.178 28.8755 256.178 24.798C256.178 20.7461 254.285 18.4246 251.193 18.4246C248.1 18.4246 246.207 20.7461 246.207 24.798C246.207 28.8584 248.083 31.1713 251.193 31.1713ZM248.846 24.798C248.846 21.9625 249.762 20.5405 251.193 20.5319C252.623 20.5405 253.548 21.9625 253.54 24.798C253.548 27.6591 252.632 29.0469 251.193 29.0469C249.754 29.0469 248.828 27.6591 248.846 24.798ZM260.514 24.798C262.347 24.798 263.366 23.4616 263.375 21.4914C263.366 19.5297 262.372 18.1676 260.514 18.1676C258.706 18.1676 257.652 19.5297 257.652 21.4914C257.652 23.4445 258.655 24.798 260.514 24.798ZM259.4 21.4914C259.409 20.4377 259.785 19.701 260.514 19.6924C261.285 19.6924 261.619 20.4206 261.627 21.4914C261.619 22.5622 261.25 23.2646 260.514 23.2732C259.794 23.2646 259.409 22.5622 259.4 21.4914ZM259.434 31H261.353L269.885 18.5959H267.966L259.434 31ZM266.03 28.1046C266.03 30.0577 267.033 31.4112 268.874 31.4112C270.725 31.4112 271.744 30.0748 271.753 28.1046C271.744 26.1429 270.75 24.7894 268.874 24.7808C267.084 24.7894 266.03 26.1429 266.03 28.1046ZM267.778 28.1046C267.786 27.0509 268.155 26.3142 268.874 26.3228C269.654 26.3056 269.997 27.0338 270.005 28.1046C269.997 29.1754 269.628 29.8864 268.874 29.8864C268.172 29.8864 267.786 29.1754 267.778 28.1046Z" fill="#2A2933"/>
</svg>
