<svg width="390" height="844" viewBox="0 0 390 844" fill="none" xmlns="http://www.w3.org/2000/svg">
<g clip-path="url(#clip0_1418_18603)">
<rect width="390" height="844" rx="30" fill="white"/>
<path d="M52.1963 19.8145C49.5815 19.7979 47.8799 21.5908 47.8799 23.8818C47.8799 26.1812 49.6064 27.833 51.7646 27.833C53.0596 27.833 54.1885 27.2188 54.8359 26.2061H54.9854C54.9688 28.9536 53.8813 30.564 52.0303 30.5723C50.8184 30.564 50.0381 29.8584 49.7891 28.8457H47.9795C48.27 30.7964 49.814 32.166 52.0303 32.166C54.9106 32.166 56.7285 29.7754 56.7285 25.5586C56.7202 21.1592 54.4043 19.8311 52.1963 19.8145ZM49.6562 23.8486C49.6479 22.4707 50.7437 21.3418 52.1963 21.3418C53.6655 21.3418 54.7363 22.5288 54.7363 23.832C54.7363 25.1602 53.6157 26.3472 52.1631 26.3389C50.7021 26.3472 49.6646 25.2432 49.6562 23.8486ZM59.153 30.4561C59.7922 30.4478 60.3234 29.9248 60.3317 29.2773C60.3234 28.6299 59.7922 28.0986 59.153 28.0986C58.5055 28.0986 57.966 28.6299 57.9743 29.2773C57.966 29.9248 58.5055 30.4478 59.153 30.4561ZM57.9743 22.7197C57.966 23.3672 58.5055 23.8901 59.153 23.8984C59.7922 23.8901 60.3234 23.3672 60.3317 22.7197C60.3234 22.0723 59.7922 21.541 59.153 21.541C58.5055 21.541 57.966 22.0723 57.9743 22.7197ZM61.5111 29.6592H67.3548V32H69.0814V29.6592H70.725V28.1152H69.0814V19.9805H66.8236L61.5111 28.1816V29.6592ZM63.4369 28.1152V28.0156L67.222 22.1553H67.3548V28.1152H63.4369ZM76.2871 19.9805H74.4942L71.5059 21.9395V23.6826L74.378 21.8066H74.4444V32H76.2871V19.9805Z" fill="black"/>
<rect x="306.352" y="19" width="3.2" height="12" rx="1" fill="black"/>
<rect x="301.051" y="21.4004" width="3.2" height="9.6" rx="1" fill="black"/>
<rect x="295.75" y="24" width="3.2" height="7" rx="1" fill="black"/>
<rect x="290.449" y="26.4004" width="3.2" height="4.6" rx="1" fill="black"/>
<path d="M324.012 27.1328C324.715 27.1328 325.399 27.3177 326.001 27.6701L326.245 27.8129C326.43 27.9212 326.462 28.1746 326.311 28.3259L324.227 30.4036C324.099 30.5312 323.892 30.5312 323.764 30.4036L321.694 28.3392C321.543 28.1886 321.574 27.9365 321.758 27.8274L321.999 27.684C322.607 27.3226 323.299 27.1328 324.012 27.1328Z" fill="black"/>
<path d="M324.01 23.3164C325.76 23.3164 327.44 23.8969 328.808 24.972L329.002 25.1239C329.156 25.245 329.17 25.4733 329.031 25.6117L327.787 26.8521C327.672 26.9668 327.49 26.98 327.359 26.8831L327.208 26.7704C326.283 26.0833 325.169 25.7148 324.01 25.7148C322.843 25.7148 321.722 26.0879 320.795 26.7828L320.643 26.8966C320.512 26.9943 320.33 26.9814 320.214 26.8664L318.971 25.6264C318.832 25.4883 318.846 25.2606 318.999 25.1393L319.191 24.9872C320.563 23.9026 322.251 23.3164 324.01 23.3164Z" fill="black"/>
<path d="M324.01 19.5C326.787 19.5 329.443 20.4796 331.545 22.2752L331.725 22.4285C331.87 22.5524 331.878 22.7731 331.743 22.9078L330.503 24.1441C330.383 24.2639 330.191 24.2723 330.061 24.1635L329.907 24.0351C328.252 22.6512 326.178 21.8984 324.01 21.8984C321.835 21.8984 319.754 22.6564 318.096 24.049L317.943 24.178C317.812 24.2873 317.62 24.2791 317.5 24.1591L316.26 22.9229C316.125 22.7885 316.134 22.5681 316.278 22.4441L316.457 22.2908C318.562 20.4855 321.225 19.5 324.01 19.5Z" fill="black"/>
<rect x="340" y="20.5" width="21" height="9" rx="1.33" fill="black"/>
<path opacity="0.4" fill-rule="evenodd" clip-rule="evenodd" d="M343.6 19.5H357.4C358.397 19.5 359.084 19.5008 359.617 19.5444C360.139 19.587 360.425 19.6655 360.635 19.7725C361.105 20.0122 361.488 20.3946 361.728 20.865C361.834 21.0749 361.913 21.3608 361.956 21.8826C361.999 22.4161 362 23.1034 362 24.1V25.9C362 26.8966 361.999 27.5839 361.956 28.1174C361.913 28.6392 361.834 28.9251 361.728 29.135C361.488 29.6054 361.105 29.9878 360.635 30.2275C360.425 30.3345 360.139 30.413 359.617 30.4556C359.084 30.4992 358.397 30.5 357.4 30.5H343.6C342.603 30.5 341.916 30.4992 341.383 30.4556C340.861 30.413 340.575 30.3345 340.365 30.2275C339.895 29.9878 339.512 29.6054 339.272 29.135C339.166 28.9251 339.087 28.6392 339.044 28.1174C339.001 27.5839 339 26.8966 339 25.9V24.1C339 23.1034 339.001 22.4161 339.044 21.8826C339.087 21.3608 339.166 21.0749 339.272 20.865C339.512 20.3946 339.895 20.0122 340.365 19.7725C340.575 19.6655 340.861 19.587 341.383 19.5444C341.916 19.5008 342.603 19.5 343.6 19.5ZM338 24.1C338 22.1398 338 21.1597 338.381 20.411C338.717 19.7525 339.252 19.217 339.911 18.8815C340.66 18.5 341.64 18.5 343.6 18.5H357.4C359.36 18.5 360.34 18.5 361.089 18.8815C361.748 19.217 362.283 19.7525 362.619 20.411C363 21.1597 363 22.1398 363 24.1V25.9C363 27.8602 363 28.8403 362.619 29.589C362.283 30.2475 361.748 30.783 361.089 31.1185C360.34 31.5 359.36 31.5 357.4 31.5H343.6C341.64 31.5 340.66 31.5 339.911 31.1185C339.252 30.783 338.717 30.2475 338.381 29.589C338 28.8403 338 27.8602 338 25.9V24.1ZM364 27C364.828 26.8 365.5 26.1046 365.5 25C365.5 23.8954 364.828 23.2 364 23L364 25L364 27Z" fill="black"/>
<path d="M185.797 806.773H178.863V804.098H184.332V802.066H173.902V800.074H183.922V794.176H171.383V796.168H181.461V798.121H171.402V804.098H176.383V806.773H169.527V808.824H185.797V806.773ZM200.231 794.664H187.692V796.656H197.751V796.793C197.741 799.156 197.741 801.695 197.067 805.113L199.587 805.328C200.221 801.646 200.221 799.234 200.231 796.793V794.664ZM186.013 808.473H202.223V806.422H186.013V808.473ZM217.38 793.043H214.88V805.816H217.38V793.043ZM202.771 798.648C202.771 801.295 204.9 803.16 207.634 803.16C210.359 803.16 212.488 801.295 212.498 798.648C212.488 796.041 210.359 794.166 207.634 794.176C204.9 794.166 202.771 796.041 202.771 798.648ZM205.213 798.648C205.193 797.203 206.238 796.334 207.634 796.344C208.982 796.334 210.027 797.203 210.037 798.648C210.027 800.133 208.982 800.992 207.634 800.992C206.238 800.992 205.193 800.133 205.213 798.648ZM205.466 810.484H217.849V808.492H207.986V804.527H205.466V810.484Z" fill="white"/>
<path d="M26.9987 119.139C27.6903 119.139 28.3558 119.403 28.8586 119.878C29.3614 120.353 29.6635 121.002 29.7029 121.693L29.707 121.847L29.7079 128.474L29.7745 128.531C30.5511 129.224 31.0399 130.182 31.1445 131.217L31.1604 131.427L31.1654 131.639C31.1655 132.325 30.996 133.001 30.6719 133.606C30.3478 134.212 29.8792 134.727 29.3078 135.108C28.7363 135.488 28.0797 135.722 27.3964 135.787C26.713 135.853 26.024 135.748 25.3907 135.483C24.7574 135.218 24.1993 134.801 23.7661 134.268C23.333 133.736 23.0381 133.104 22.9078 132.43C22.7775 131.756 22.8157 131.061 23.0191 130.405C23.2225 129.749 23.5848 129.154 24.0737 128.672L24.2237 128.53L24.2895 128.474L24.2904 121.847C24.2902 121.181 24.5352 120.539 24.9785 120.043C25.4218 119.546 26.0324 119.23 26.6937 119.155L26.8454 119.143L26.9987 119.139ZM26.9987 120.389C26.6326 120.389 26.2799 120.526 26.0106 120.775C25.7414 121.023 25.5753 121.363 25.5454 121.728L25.5404 121.847V129.092L25.2829 129.28C24.7909 129.637 24.4231 130.14 24.2311 130.717C24.039 131.295 24.0322 131.917 24.2117 132.499C24.3912 133.08 24.748 133.591 25.2321 133.959C25.7162 134.328 26.3033 134.535 26.9114 134.554C27.5195 134.572 28.1181 134.399 28.6233 134.06C29.1285 133.722 29.5151 133.233 29.729 132.664C29.9429 132.094 29.9733 131.472 29.8161 130.884C29.6588 130.297 29.3218 129.773 28.852 129.386L28.7145 129.28L28.4587 129.093L28.457 121.847C28.457 121.46 28.3034 121.089 28.0299 120.816C27.7564 120.542 27.3855 120.389 26.9987 120.389ZM26.9987 124.139C27.1645 124.139 27.3234 124.205 27.4406 124.322C27.5578 124.439 27.6237 124.598 27.6237 124.764V129.651C28.0987 129.801 28.5046 130.115 28.7679 130.538C29.0311 130.96 29.1343 131.463 29.0587 131.956C28.9832 132.448 28.7339 132.897 28.3561 133.221C27.9782 133.545 27.4967 133.724 26.9987 133.724C26.5007 133.724 26.0192 133.545 25.6413 133.221C25.2635 132.897 25.0142 132.448 24.9387 131.956C24.8631 131.463 24.9663 130.96 25.2295 130.538C25.4928 130.115 25.8987 129.801 26.3737 129.651V124.764C26.3737 124.598 26.4395 124.439 26.5568 124.322C26.674 124.205 26.8329 124.139 26.9987 124.139Z" fill="black"/>
<path d="M52.5664 127.406H47.5625V126.135C49.8662 126.012 51.3154 125.137 51.3223 123.701C51.3154 122.204 49.6406 121.302 47.0293 121.295C44.3906 121.302 42.7227 122.204 42.7227 123.701C42.7227 125.137 44.165 126.012 46.4961 126.135V127.406H41.4922V128.295H52.5664V127.406ZM42.9277 132.82H51.3359V131.918H44.0078V129.279H42.9277V132.82ZM43.8301 123.701C43.8232 122.771 45.0674 122.17 47.0293 122.17C48.9775 122.17 50.2217 122.771 50.2285 123.701C50.2217 124.692 48.9775 125.26 47.0293 125.26C45.0674 125.26 43.8232 124.692 43.8301 123.701ZM62.8482 126.627H55.5337V122.799H62.7252V121.924H54.4537V127.502H58.0357V130.646H53.0318V131.549H64.1607V130.646H59.0884V127.502H62.8482V126.627Z" fill="#232323"/>
<path d="M73.3477 132.109C75.3232 132.109 76.7998 130.906 76.793 129.279C76.7998 128.021 76.0205 127.099 74.7285 126.9V126.832C75.7676 126.538 76.4238 125.718 76.4102 124.59C76.4238 123.175 75.2754 121.938 73.3887 121.938C71.6318 121.938 70.1689 122.99 70.1074 124.562H71.2969C71.3516 123.592 72.3154 123.011 73.375 123.004C74.5029 123.011 75.2275 123.667 75.2207 124.658C75.2275 125.677 74.3867 126.354 73.1836 126.354H72.377V127.434H73.1836C74.7217 127.44 75.583 128.199 75.5898 129.279C75.583 130.312 74.6396 131.016 73.334 131.016C72.1514 131.016 71.2148 130.428 71.1465 129.484H69.9023C69.9639 131.057 71.3789 132.109 73.3477 132.109ZM80.0748 126.449C81.3052 126.449 82.3033 125.458 82.3033 124.234C82.3033 122.99 81.3052 121.992 80.0748 121.992C78.8375 121.992 77.8462 122.99 77.8462 124.234C77.8462 125.458 78.8375 126.449 80.0748 126.449ZM78.817 124.234C78.8238 123.53 79.3843 122.983 80.0748 122.977C80.7652 122.983 81.3121 123.53 81.3189 124.234C81.3121 124.918 80.7652 125.479 80.0748 125.479C79.3843 125.479 78.8238 124.918 78.817 124.234Z" fill="#232323"/>
<path d="M112.25 121.473C112.25 121.473 108.25 126.44 108.25 129.954C108.25 132.727 109.796 134.473 112.25 134.473C114.704 134.473 116.25 132.727 116.25 129.954C116.25 126.44 112.25 121.473 112.25 121.473ZM112.694 132.841V132.088C113.136 132.087 113.56 131.889 113.872 131.536C114.185 131.183 114.361 130.704 114.361 130.205H115.028C115.027 130.904 114.781 131.574 114.344 132.068C113.906 132.562 113.313 132.84 112.694 132.841Z" fill="#59D4FE"/>
<path d="M129.217 128.227H128.15V132.916H136.367V128.227H135.287V129.648H129.217V128.227ZM126.742 127.365H137.816V126.477H126.742V127.365ZM127.371 124.754L127.781 125.615C129.654 125.335 131.514 124.385 132.286 123.018C133.059 124.378 134.911 125.335 136.791 125.615L137.188 124.754C135.048 124.48 132.833 123.134 132.84 121.637V121.062H131.732V121.637C131.732 123.182 129.538 124.46 127.371 124.754ZM129.217 132.055V130.496H135.287V132.055H129.217ZM148.098 126.627H140.784V122.799H147.975V121.924H139.704V127.502H143.286V130.646H138.282V131.549H149.411V130.646H144.338V127.502H148.098V126.627Z" fill="#232323"/>
<path d="M154.934 129.949H159.732V131.973H160.908V129.949H162.289V128.869H160.908V122.074H159.391L154.934 128.938V129.949ZM156.26 128.869V128.787L159.609 123.633H159.732V128.869H156.26ZM166.651 121.938C164.545 121.917 163.192 123.414 163.192 125.26C163.192 127.167 164.662 128.527 166.432 128.527C167.485 128.527 168.394 128.035 168.961 127.215H169.098C169.085 129.621 168.1 131.016 166.487 131.016C165.386 131.016 164.71 130.359 164.491 129.471H163.274C163.52 131.043 164.744 132.109 166.487 132.109C168.804 132.109 170.247 130.147 170.247 126.627C170.247 122.983 168.353 121.958 166.651 121.938ZM164.395 125.246C164.381 124.022 165.359 123.018 166.651 123.018C167.957 123.018 168.907 124.084 168.907 125.219C168.907 126.381 167.902 127.447 166.61 127.447C165.318 127.447 164.388 126.47 164.395 125.246ZM172.61 128.184C173.519 128.188 174.022 127.495 174.026 126.484C174.022 125.488 173.538 124.795 172.61 124.795C171.717 124.795 171.19 125.488 171.194 126.484C171.19 127.495 171.697 128.188 172.61 128.184ZM171.888 131.973H172.679L177.542 124.902H176.751L171.888 131.973ZM171.907 126.484C171.907 125.835 172.147 125.405 172.61 125.4C173.104 125.391 173.314 125.835 173.314 126.484C173.314 127.144 173.089 127.578 172.61 127.578C172.137 127.578 171.907 127.144 171.907 126.484ZM175.511 130.381C175.501 131.387 176.004 132.075 176.927 132.07C177.83 132.075 178.333 131.387 178.333 130.381C178.333 129.375 177.84 128.687 176.927 128.682C176.024 128.687 175.501 129.375 175.511 130.381ZM176.214 130.381C176.219 129.722 176.453 129.292 176.927 129.287C177.415 129.277 177.62 129.722 177.62 130.381C177.62 131.035 177.401 131.47 176.927 131.465C176.448 131.47 176.219 131.035 176.214 130.381Z" fill="#232323"/>
<path d="M206.211 126.762V129.887H206.914V126.762H206.211ZM203.711 128.856L203.062 129.125L203.66 130.568L204.309 130.299L203.711 128.856ZM209.414 128.856L208.816 130.299L209.465 130.568L210.063 129.125L209.414 128.856ZM199.601 129.303L199.104 129.801L201.314 132.01L201.811 131.513L199.601 129.303ZM213.524 129.303L211.314 131.513L211.811 132.01L214.021 129.801L213.524 129.303ZM206.562 131.41C205.746 131.41 204.945 131.625 204.238 132.033C202.902 132.805 202.044 134.183 201.929 135.707H211.196C211.081 134.183 210.223 132.805 208.887 132.033C208.18 131.625 207.379 131.41 206.562 131.41ZM199.16 133.339L198.891 133.989L200.334 134.586L200.603 133.937L199.16 133.339ZM213.965 133.339L212.522 133.937L212.791 134.586L214.234 133.989L213.965 133.339ZM197.5 135.41V136.113H215.625V135.41H197.5Z" fill="#EB7805"/>
<path d="M207.813 121.957L207.812 124.457L205.312 124.457L205.313 121.957L204.063 121.957L206.563 118.832L209.063 121.957L207.813 121.957Z" fill="#292929"/>
<path d="M207.813 121.957L207.812 124.457L205.312 124.457L205.313 121.957L204.063 121.957L206.563 118.832L209.063 121.957L207.813 121.957Z" fill="#292929"/>
<path d="M223.562 121.377C221.724 121.384 220.397 122.491 220.404 124.07C220.397 125.656 221.724 126.75 223.562 126.75C225.381 126.75 226.7 125.656 226.707 124.07C226.7 122.491 225.381 121.384 223.562 121.377ZM221.457 124.07C221.443 123.018 222.339 122.272 223.562 122.279C224.766 122.272 225.668 123.018 225.668 124.07C225.668 125.137 224.766 125.875 223.562 125.875C222.339 125.875 221.443 125.137 221.457 124.07ZM222.25 128.623H229.086V129.881H222.277V132.916H230.59V132.055H223.33V130.688H230.152V127.762H222.25V128.623ZM229.086 127.174H230.152V120.926H229.086V127.174ZM242.731 126.34H231.67V127.174H236.661V128.309H232.997V129.115H240.256V130.168H233.024V132.943H241.678V132.123H234.09V130.934H241.309V128.309H237.713V127.174H242.731V126.34ZM232.258 124.959L232.573 125.779C234.61 125.608 236.442 124.979 237.194 123.824C237.939 124.979 239.771 125.608 241.801 125.779L242.129 124.959C239.887 124.815 237.987 124.057 237.795 122.84H241.61V121.992H237.713V120.857H236.661V121.992H232.805V122.84H236.586C236.387 124.057 234.487 124.815 232.258 124.959Z" fill="#232323"/>
<path d="M251.199 131.59C253.08 131.59 254.164 130.008 254.164 127.23C254.164 124.477 253.062 122.871 251.199 122.871C249.33 122.871 248.229 124.477 248.234 127.23C248.229 130.008 249.318 131.59 251.199 131.59ZM249.254 127.23C249.26 125.033 249.98 123.791 251.199 123.785C252.418 123.791 253.139 125.033 253.133 127.23C253.139 129.428 252.424 130.652 251.199 130.652C249.969 130.652 249.26 129.428 249.254 127.23ZM258.043 131.59C259.831 131.607 260.997 130.33 260.997 128.73C260.997 127.09 259.737 125.918 258.231 125.918C257.317 125.918 256.538 126.334 256.051 127.043H255.946C255.94 124.998 256.778 123.809 258.172 123.809C259.116 123.809 259.69 124.371 259.883 125.121H260.926C260.709 123.791 259.666 122.871 258.172 122.871C256.18 122.871 254.95 124.553 254.95 127.559C254.95 130.699 256.573 131.572 258.043 131.59ZM256.086 128.754C256.098 127.752 256.954 126.85 258.067 126.844C259.174 126.85 259.971 127.699 259.977 128.742C259.971 129.797 259.139 130.658 258.043 130.664C256.907 130.658 256.092 129.75 256.086 128.754ZM262.696 130.348C263.112 130.342 263.452 130.002 263.446 129.586C263.452 129.176 263.112 128.836 262.696 128.836C262.286 128.836 261.935 129.176 261.946 129.586C261.935 130.002 262.286 130.342 262.696 130.348ZM261.946 124.875C261.935 125.291 262.286 125.631 262.696 125.637C263.112 125.631 263.452 125.291 263.446 124.875C263.452 124.465 263.112 124.125 262.696 124.125C262.286 124.125 261.935 124.465 261.946 124.875ZM267.314 131.59C269.195 131.59 270.279 130.008 270.279 127.23C270.279 124.477 269.177 122.871 267.314 122.871C265.445 122.871 264.343 124.477 264.349 127.23C264.343 130.008 265.433 131.59 267.314 131.59ZM265.369 127.23C265.374 125.033 266.095 123.791 267.314 123.785C268.533 123.791 269.253 125.033 269.247 127.23C269.253 129.428 268.539 130.652 267.314 130.652C266.083 130.652 265.374 129.428 265.369 127.23ZM274.041 131.59C275.81 131.59 277.053 130.6 277.064 129.223C277.053 128.127 276.291 127.219 275.33 127.066V127.02C276.162 126.826 276.725 126.047 276.736 125.121C276.725 123.826 275.588 122.871 274.041 122.871C272.488 122.871 271.351 123.826 271.357 125.121C271.351 126.047 271.908 126.826 272.752 127.02V127.066C271.785 127.219 271.023 128.127 271.029 129.223C271.023 130.6 272.254 131.59 274.041 131.59ZM272.084 129.164C272.066 128.227 272.904 127.535 274.041 127.535C275.184 127.535 276.01 128.227 276.01 129.164C276.01 130.055 275.254 130.658 274.041 130.664C272.822 130.658 272.066 130.055 272.084 129.164ZM272.377 125.203C272.383 124.354 273.033 123.779 274.041 123.785C275.031 123.779 275.705 124.354 275.705 125.203C275.705 126.059 275.008 126.639 274.041 126.645C273.068 126.639 272.383 126.059 272.377 125.203Z" fill="#232323"/>
<path d="M305.586 126.762V129.887H306.289V126.762H305.586ZM303.086 128.856L302.437 129.125L303.035 130.568L303.684 130.299L303.086 128.856ZM308.789 128.856L308.191 130.299L308.84 130.568L309.438 129.125L308.789 128.856ZM298.976 129.303L298.479 129.801L300.689 132.01L301.186 131.513L298.976 129.303ZM312.899 129.303L310.689 131.513L311.186 132.01L313.396 129.801L312.899 129.303ZM305.938 131.41C305.121 131.41 304.32 131.625 303.613 132.033C302.277 132.805 301.419 134.183 301.304 135.707H310.571C310.456 134.183 309.598 132.805 308.262 132.033C307.555 131.625 306.754 131.41 305.938 131.41ZM298.535 133.339L298.266 133.989L299.709 134.586L299.978 133.937L298.535 133.339ZM313.34 133.339L311.897 133.937L312.166 134.586L313.609 133.989L313.34 133.339ZM296.875 135.41V136.113H315V135.41H296.875Z" fill="#EB7805"/>
<path d="M304.688 121.332V118.832H307.188V121.332H308.438L305.938 124.457L303.438 121.332H304.688Z" fill="#292929"/>
<path d="M322.938 121.377C321.099 121.384 319.772 122.491 319.779 124.07C319.772 125.656 321.099 126.75 322.938 126.75C324.756 126.75 326.075 125.656 326.082 124.07C326.075 122.491 324.756 121.384 322.938 121.377ZM320.832 124.07C320.818 123.018 321.714 122.272 322.938 122.279C324.141 122.272 325.043 123.018 325.043 124.07C325.043 125.137 324.141 125.875 322.938 125.875C321.714 125.875 320.818 125.137 320.832 124.07ZM321.625 128.623H328.461V129.881H321.652V132.916H329.965V132.055H322.705V130.688H329.527V127.762H321.625V128.623ZM328.461 127.174H329.527V120.926H328.461V127.174ZM342.106 126.244H337.075V125.041H340.67V121.336H332.467V125.041H336.022V126.244H331.032V127.133H342.106V126.244ZM332.372 128.979H339.631V130.059H332.399V132.943H341.053V132.096H333.465V130.865H340.684V128.145H332.372V128.979ZM333.534 124.18V122.197H339.604V124.18H333.534Z" fill="#232323"/>
<path d="M350.797 122.988H349.73L347.621 124.395V125.461L349.684 124.09H349.73V131.473H350.797V122.988ZM355.403 122.871C353.598 122.854 352.438 124.137 352.438 125.719C352.438 127.354 353.698 128.52 355.215 128.52C356.118 128.52 356.897 128.098 357.383 127.395H357.5C357.489 129.457 356.645 130.652 355.262 130.652C354.319 130.652 353.739 130.09 353.551 129.328H352.508C352.719 130.676 353.768 131.59 355.262 131.59C357.249 131.59 358.485 129.908 358.485 126.891C358.485 123.768 356.862 122.889 355.403 122.871ZM353.469 125.707C353.457 124.658 354.295 123.797 355.403 123.797C356.522 123.797 357.336 124.711 357.336 125.684C357.336 126.68 356.475 127.594 355.368 127.594C354.26 127.594 353.463 126.756 353.469 125.707ZM360.185 130.348C360.601 130.342 360.94 130.002 360.935 129.586C360.94 129.176 360.601 128.836 360.185 128.836C359.774 128.836 359.423 129.176 359.435 129.586C359.423 130.002 359.774 130.342 360.185 130.348ZM359.435 124.875C359.423 125.291 359.774 125.631 360.185 125.637C360.601 125.631 360.94 125.291 360.935 124.875C360.94 124.465 360.601 124.125 360.185 124.125C359.774 124.125 359.423 124.465 359.435 124.875ZM364.802 131.59C366.683 131.59 367.767 130.008 367.767 127.23C367.767 124.477 366.665 122.871 364.802 122.871C362.933 122.871 361.831 124.477 361.837 127.23C361.831 130.008 362.921 131.59 364.802 131.59ZM362.857 127.23C362.863 125.033 363.583 123.791 364.802 123.785C366.021 123.791 366.742 125.033 366.736 127.23C366.742 129.428 366.027 130.652 364.802 130.652C363.572 130.652 362.863 129.428 362.857 127.23ZM371.693 122.988H370.627L368.517 124.395V125.461L370.58 124.09H370.627V131.473H371.693V122.988Z" fill="#232323"/>
<path d="M31.3555 242.5L34.2721 239.583M38.2721 245C38.6055 244.167 38.8555 243.167 38.8555 242.167C38.8555 238.167 35.5221 235 31.3555 235C27.1888 235 23.8555 238.167 23.8555 242.167C23.8555 243.167 24.1055 244.167 24.4388 245" stroke="black" stroke-width="1.66667" stroke-linecap="round" stroke-linejoin="round"/>
<path d="M63.207 232.621H60.9746V240.725H63.207V232.621ZM49.7598 239.002L50.8672 240.76C52.7744 240.188 54.084 238.967 54.8047 237.411C55.5342 238.835 56.7998 239.951 58.6367 240.479L59.7266 238.756C57.1074 238 55.9473 236.146 55.9648 234.203V232.973H53.627V234.203C53.627 236.189 52.4316 238.202 49.7598 239.002ZM52.4844 243.15H60.9922V244.082H52.5195V248.512H63.6641V246.736H54.7168V245.752H63.2246V241.41H52.4844V243.15ZM70.8894 236.242V233.852H68.6218V236.242C68.613 239.345 67.2507 242.412 64.4558 243.59L65.8093 245.453C67.7605 244.565 69.07 242.825 69.7907 240.663C70.5202 242.641 71.7859 244.24 73.614 245.066L74.9323 243.273C72.2165 242.122 70.8806 239.178 70.8894 236.242ZM75.7937 248.652H78.0612V232.621H75.7937V248.652ZM92.1948 232.621H89.9272V244.082H92.1948V238.949H94.3569V237.104H92.1948V232.621ZM79.3979 240.742L80.3295 242.518C85.1284 241.164 87.8266 238.141 87.8354 233.816H80.101V235.645H85.3657C85.0141 237.895 82.9838 239.749 79.3979 240.742ZM81.7885 248.336H92.7397V246.543H84.0561V242.904H81.7885V248.336ZM100.475 233.342H98.243V240.32H105.995V233.342H103.745V235.24H100.475V233.342ZM99.8427 243.098H108.227V244.1H99.8778V248.512H110.917V246.736H102.075V245.699H110.46V241.357H99.8427V243.098ZM100.475 238.562V236.928H103.745V238.562H100.475ZM108.21 240.76H110.46V237.543H112.622V235.732H110.46V232.621H108.21V240.76ZM126.088 232.639H123.855V236.77H121.236V238.58H123.855V244.311H126.088V232.639ZM112.517 240.707L113.66 242.535C115.549 241.911 116.824 240.619 117.536 239.028C118.23 240.461 119.452 241.621 121.218 242.201L122.326 240.426C119.786 239.6 118.643 237.622 118.652 235.768V235.504H121.834V233.711H113.15V235.504H116.367V235.75C116.358 237.798 115.163 239.881 112.517 240.707ZM115.47 248.336H126.474V246.543H117.72V243.291H115.47V248.336ZM144.353 232.639H142.12V236.611H139.958V238.422H142.12V240.021H139.958V241.797H142.12V244.82H144.353V232.639ZM130.905 236.084H139.8V234.309H136.583V232.604H134.351V234.309H130.905V236.084ZM131.696 239.793C131.679 241.639 133.27 242.922 135.44 242.922C137.638 242.922 139.22 241.639 139.237 239.793C139.22 237.947 137.638 236.646 135.44 236.646C133.27 236.646 131.679 237.947 131.696 239.793ZM133.7 248.336H144.687V246.543H135.968V243.783H133.7V248.336ZM133.788 239.793C133.779 238.896 134.465 238.396 135.44 238.387C136.407 238.396 137.119 238.896 137.128 239.793C137.119 240.716 136.407 241.217 135.44 241.217C134.465 241.217 133.779 240.716 133.788 239.793ZM158.504 232.639H156.254V243.432H158.504V239.02H160.543V237.174H158.504V232.639ZM145.531 241.305L145.76 242.992C148.59 242.992 152.272 242.948 155.674 242.359L155.515 240.848C154.276 241.006 152.958 241.111 151.648 241.173V240.32C153.371 240.083 154.434 239.274 154.443 238.088C154.434 236.664 152.896 235.794 150.523 235.803C148.133 235.794 146.594 236.664 146.603 238.088C146.594 239.274 147.667 240.083 149.416 240.32V241.261C148.027 241.296 146.7 241.305 145.531 241.305ZM145.953 235.416H155.111V233.764H151.648V232.498H149.416V233.764H145.953V235.416ZM147.64 246.104C147.64 247.756 149.618 248.635 153.107 248.635C156.57 248.635 158.556 247.756 158.556 246.104C158.556 244.469 156.57 243.555 153.107 243.572C149.618 243.555 147.64 244.469 147.64 246.104ZM148.748 238.088C148.739 237.561 149.381 237.271 150.523 237.262C151.648 237.271 152.29 237.561 152.299 238.088C152.29 238.65 151.648 238.923 150.523 238.932C149.381 238.923 148.739 238.65 148.748 238.088ZM149.89 246.104C149.882 245.479 150.892 245.189 153.107 245.189C155.287 245.189 156.298 245.479 156.306 246.104C156.298 246.71 155.287 247.009 153.107 247C150.892 247.009 149.882 246.71 149.89 246.104Z" fill="#232323"/>
<path d="M21.4922 282.763L31.8475 272.287L29.424 280.08H33.2178L22.8425 290.713L25.2659 282.763H21.4922Z" fill="#FFD21F"/>
<path d="M42.8301 275.377H41.0938V280.805H47.123V275.377H45.373V276.854H42.8301V275.377ZM42.3379 282.965H48.8594V283.744H42.3652V287.176H50.9512V285.795H44.0742V284.988H50.5957V281.611H42.3379V282.965ZM42.8301 279.438V278.166H45.373V279.438H42.8301ZM48.8457 281.146H50.5957V278.645H52.2773V277.236H50.5957V274.816H48.8457V281.146ZM62.7505 274.83H61.0142V278.043H58.9771V279.451H61.0142V283.908H62.7505V274.83ZM52.1959 281.105L53.0845 282.527C54.5543 282.042 55.5455 281.037 56.0992 279.8C56.6392 280.914 57.5894 281.816 58.9634 282.268L59.8248 280.887C57.8492 280.244 56.9605 278.706 56.9673 277.264V277.059H59.442V275.664H52.688V277.059H55.19V277.25C55.1832 278.843 54.2535 280.463 52.1959 281.105ZM54.4927 287.039H63.0513V285.645H56.2427V283.115H54.4927V287.039ZM74.2902 274.83H72.5538V278.043H70.5167V279.451H72.5538V283.908H74.2902V274.83ZM63.7355 281.105L64.6241 282.527C66.0939 282.042 67.0851 281.037 67.6388 279.8C68.1788 280.914 69.129 281.816 70.503 282.268L71.3644 280.887C69.3888 280.244 68.5001 278.706 68.507 277.264V277.059H70.9816V275.664H64.2277V277.059H66.7296V277.25C66.7228 278.843 65.7931 280.463 63.7355 281.105ZM66.0323 287.039H74.5909V285.645H67.7823V283.115H66.0323V287.039ZM81.318 275.541H75.8083V276.908H79.568V278.125H75.8356V282.145H76.7653C79.1716 282.138 80.4772 282.104 81.9333 281.844L81.7692 280.449C80.5114 280.688 79.404 280.75 77.5583 280.75V279.424H81.318V275.541ZM77.2575 284.441H84.0934V287.258H85.8298V283.047H77.2575V284.441ZM82.029 280.572H84.0934V282.486H85.8298V274.83H84.0934V276.553H82.029V277.934H84.0934V279.191H82.029V280.572Z" fill="#232323"/>
<path d="M309.842 275.273H307.346L304.199 277.277V279.615L307.117 277.787H307.188V288H309.842V275.273ZM312.075 288H321.18V285.82H315.749V285.75L317.682 283.869C320.301 281.496 321.005 280.31 321.005 278.859C321.005 276.653 319.194 275.098 316.469 275.098C313.789 275.098 311.943 276.688 311.952 279.176H314.466C314.457 277.954 315.239 277.198 316.434 277.207C317.603 277.198 318.456 277.901 318.456 279.035C318.456 280.046 317.814 280.749 316.628 281.883L312.057 286.084L312.075 288ZM323.888 288.158C324.67 288.158 325.347 287.499 325.347 286.682C325.347 285.873 324.67 285.214 323.888 285.223C323.062 285.214 322.394 285.873 322.412 286.682C322.394 287.499 323.062 288.158 323.888 288.158ZM331.272 288.176C334.137 288.176 336.088 286.339 336.088 283.764C336.088 281.32 334.348 279.571 332.01 279.58C330.894 279.571 329.927 280.028 329.461 280.652H329.356L329.707 277.436H335.367V275.273H327.528L326.842 282.604H329.233C329.611 281.892 330.278 281.531 331.236 281.531C332.572 281.54 333.53 282.48 333.522 283.834C333.53 285.161 332.59 286.093 331.272 286.084C330.164 286.093 329.259 285.407 329.197 284.414H326.631C326.675 286.611 328.617 288.176 331.272 288.176ZM340.607 288H343.209V284.941L343.938 284.115L346.566 288H349.625L345.872 282.586L349.431 278.455H346.443L343.349 282.111H343.209V275.273H340.607V288ZM352.825 288H355.409L357.852 279.598H357.957L360.383 288H362.967L366.606 275.273H363.723L361.578 284.186H361.473L359.135 275.273H356.657L354.319 284.168H354.213L352.069 275.273H349.186L352.825 288ZM369.788 282.48C369.788 281.224 370.553 280.494 371.651 280.494C372.741 280.494 373.374 281.188 373.374 282.375V288H375.976V281.918C375.976 279.677 374.666 278.332 372.671 278.332C371.221 278.332 370.263 279.009 369.823 280.125H369.718V275.273H367.187V288H369.788V282.48Z" fill="#232323"/>
<path d="M178.33 409.377H176.594V414.805H182.623V409.377H180.873V410.854H178.33V409.377ZM177.838 416.965H184.359V417.744H177.865V421.176H186.451V419.795H179.574V418.988H186.096V415.611H177.838V416.965ZM178.33 413.438V412.166H180.873V413.438H178.33ZM184.346 415.146H186.096V412.645H187.777V411.236H186.096V408.816H184.346V415.146ZM198.251 408.83H196.514V412.043H194.477V413.451H196.514V417.908H198.251V408.83ZM187.696 415.105L188.585 416.527C190.054 416.042 191.045 415.037 191.599 413.8C192.139 414.914 193.089 415.816 194.463 416.268L195.325 414.887C193.349 414.244 192.461 412.706 192.467 411.264V411.059H194.942V409.664H188.188V411.059H190.69V411.25C190.683 412.843 189.753 414.463 187.696 415.105ZM189.993 421.039H198.551V419.645H191.743V417.115H189.993V421.039ZM210.146 410.402H205.825V408.953H204.103V410.402H199.796V411.797H210.146V410.402ZM199.304 420.014H210.692V418.619H207.89V416.568C208.731 416.158 209.209 415.529 209.202 414.709C209.209 413.191 207.575 412.303 204.964 412.303C202.332 412.303 200.698 413.191 200.712 414.709C200.705 415.529 201.177 416.158 202.025 416.568V418.619H199.304V420.014ZM202.503 414.709C202.496 413.998 203.351 413.643 204.964 413.643C206.543 413.643 207.411 413.998 207.411 414.709C207.411 415.406 206.543 415.755 204.964 415.748C203.351 415.755 202.496 415.406 202.503 414.709ZM203.775 418.619V417.033C204.144 417.081 204.54 417.102 204.964 417.102C205.395 417.102 205.791 417.081 206.167 417.033V418.619H203.775ZM216.517 408.926C213.646 408.926 211.978 409.678 211.978 411.059C211.978 412.433 213.646 413.178 216.517 413.178C219.382 413.178 221.036 412.433 221.043 411.059C221.036 409.678 219.382 408.926 216.517 408.926ZM210.843 415.064H213.701V415.939H212.156V417.211H219.088V417.895H212.17V421.176H221.138V419.863H213.879V419.111H220.81V415.939H219.347V415.064H222.191V413.697H210.843V415.064ZM213.81 411.059C213.803 410.491 214.692 410.211 216.517 410.211C218.356 410.211 219.238 410.491 219.238 411.059C219.238 411.653 218.356 411.899 216.517 411.906C214.692 411.899 213.803 411.653 213.81 411.059ZM215.424 415.939V415.064H217.611V415.939H215.424Z" fill="#232323" fill-opacity="0.7"/>
<path d="M152.68 450H156.945L165.285 433.621V430.203H151.312V433.566H161.02V433.703L152.68 450ZM173.845 429.93C169.374 429.916 166.353 432.814 166.353 436.793C166.38 440.484 169.005 443.164 172.56 443.164C174.761 443.164 176.716 442.125 177.646 440.375H177.81C177.796 444.326 176.374 446.746 173.681 446.746C172.095 446.746 170.96 445.885 170.618 444.422H166.571C166.968 447.771 169.702 450.273 173.681 450.273C178.657 450.273 181.843 446.309 181.829 439.582C181.829 432.391 177.946 429.943 173.845 429.93ZM170.372 436.684C170.345 434.715 171.849 433.17 173.872 433.156C175.896 433.17 177.372 434.77 177.4 436.656C177.4 438.557 175.855 440.156 173.845 440.156C171.808 440.156 170.372 438.639 170.372 436.684ZM185.084 450.246C186.301 450.246 187.354 449.221 187.354 447.949C187.354 446.691 186.301 445.666 185.084 445.68C183.799 445.666 182.76 446.691 182.787 447.949C182.76 449.221 183.799 450.246 185.084 450.246ZM196.077 450.273C200.589 450.273 203.843 447.895 203.843 444.668C203.843 442.18 201.902 440.156 199.495 439.773V439.637C201.574 439.227 203.091 437.436 203.105 435.262C203.091 432.186 200.124 429.93 196.077 429.93C192.031 429.93 189.064 432.186 189.077 435.262C189.064 437.436 190.54 439.227 192.687 439.637V439.773C190.226 440.156 188.312 442.18 188.312 444.668C188.312 447.895 191.552 450.273 196.077 450.273ZM192.605 444.258C192.591 442.535 194.068 441.291 196.077 441.277C198.087 441.291 199.564 442.549 199.55 444.258C199.564 445.953 198.169 447.143 196.077 447.129C193.986 447.143 192.591 445.953 192.605 444.258ZM193.097 435.672C193.083 434.127 194.3 433.047 196.077 433.047C197.841 433.047 199.072 434.127 199.085 435.672C199.072 437.258 197.814 438.365 196.077 438.379C194.327 438.365 193.083 437.258 193.097 435.672ZM213.196 450.273C217.666 450.287 220.702 447.402 220.688 443.383C220.702 439.65 218.049 436.984 214.481 436.984C212.293 436.984 210.338 438.01 209.422 439.773H209.231C209.258 435.877 210.666 433.457 213.36 433.457C214.959 433.457 216.094 434.318 216.422 435.699H220.469C220.073 432.445 217.338 429.93 213.36 429.93C208.411 429.93 205.225 433.881 205.211 440.566C205.198 447.812 209.108 450.26 213.196 450.273ZM209.641 443.492C209.668 441.564 211.2 439.979 213.223 439.965C215.233 439.979 216.696 441.51 216.696 443.492C216.696 445.488 215.206 447.033 213.168 447.02C211.145 447.033 209.668 445.434 209.641 443.492ZM227.607 440.102C230.533 440.102 232.16 437.969 232.173 434.824C232.16 431.693 230.574 429.52 227.607 429.52C224.722 429.52 223.041 431.693 223.041 434.824C223.041 437.941 224.64 440.102 227.607 440.102ZM225.83 434.824C225.843 433.143 226.445 431.967 227.607 431.953C228.838 431.953 229.371 433.115 229.384 434.824C229.371 436.533 228.783 437.654 227.607 437.668C226.459 437.654 225.843 436.533 225.83 434.824ZM225.884 450H228.947L242.564 430.203H239.502L225.884 450ZM236.412 445.379C236.412 448.496 238.011 450.656 240.951 450.656C243.904 450.656 245.531 448.523 245.545 445.379C245.531 442.248 243.945 440.088 240.951 440.074C238.093 440.088 236.412 442.248 236.412 445.379ZM239.201 445.379C239.214 443.697 239.802 442.521 240.951 442.535C242.195 442.508 242.742 443.67 242.755 445.379C242.742 447.088 242.154 448.223 240.951 448.223C239.83 448.223 239.214 447.088 239.201 445.379Z" fill="#232323"/>
<mask id="mask0_1418_18603" style="mask-type:alpha" maskUnits="userSpaceOnUse" x="74" y="312" width="251" height="153">
<rect x="74.3555" y="312" width="250" height="153" fill="#D9D9D9"/>
</mask>
<g mask="url(#mask0_1418_18603)">
<path d="M74.8566 464.704C74.8566 448.392 78.0695 432.239 84.3118 417.169C90.5542 402.099 99.7038 388.405 111.238 376.871C122.772 365.337 136.466 356.187 151.536 349.945C166.607 343.702 182.759 340.489 199.071 340.489C215.383 340.489 231.535 343.702 246.606 349.945C261.676 356.187 275.369 365.337 286.904 376.871C298.438 388.405 307.588 402.099 313.83 417.169C320.072 432.239 323.285 448.392 323.285 464.704L300.478 464.704C300.478 451.387 297.855 438.2 292.759 425.897C287.662 413.594 280.193 402.415 270.776 392.998C261.36 383.582 250.181 376.112 237.878 371.016C225.574 365.92 212.388 363.297 199.071 363.297C185.754 363.297 172.567 365.92 160.264 371.016C147.961 376.112 136.782 383.582 127.365 392.998C117.949 402.415 110.479 413.594 105.383 425.897C100.287 438.2 97.6641 451.387 97.6641 464.704L74.8566 464.704Z" fill="#D9D9D9"/>
<path d="M74.8566 464.704C74.8566 437.515 83.777 411.078 100.249 389.448C116.721 367.818 139.835 352.189 166.045 344.96C192.254 337.732 220.112 339.302 245.343 349.43C270.575 359.558 291.786 377.685 305.723 401.029L286.14 412.721C274.762 393.663 257.445 378.864 236.847 370.596C216.248 362.327 193.506 361.045 172.109 366.947C150.712 372.848 131.842 385.607 118.394 403.266C104.947 420.925 97.6641 442.508 97.6641 464.704L74.8566 464.704Z" fill="#FFD21F"/>
</g>
<path d="M19.332 521.667V512.501H22.6654V521.667H19.332ZM24.332 521.667V508.334H27.6654V521.667H24.332ZM29.332 521.667V515.834H32.6654V521.667H29.332Z" fill="black"/>
<path d="M57.8516 507.621H55.6191V515.725H57.8516V507.621ZM44.4043 514.002L45.5117 515.76C47.4189 515.188 48.7285 513.967 49.4492 512.411C50.1787 513.835 51.4443 514.951 53.2812 515.479L54.3711 513.756C51.752 513 50.5918 511.146 50.6094 509.203V507.973H48.2715V509.203C48.2715 511.189 47.0762 513.202 44.4043 514.002ZM47.1289 518.15H55.6367V519.082H47.1641V523.512H58.3086V521.736H49.3613V520.752H57.8691V516.41H47.1289V518.15ZM65.5339 511.242V508.852H63.2663V511.242C63.2575 514.345 61.8952 517.412 59.1003 518.59L60.4538 520.453C62.405 519.565 63.7146 517.825 64.4353 515.663C65.1648 517.641 66.4304 519.24 68.2585 520.066L69.5769 518.273C66.8611 517.122 65.5251 514.178 65.5339 511.242ZM70.4382 523.652H72.7058V507.621H70.4382V523.652ZM86.8393 507.621H84.5717V519.082H86.8393V513.949H89.0014V512.104H86.8393V507.621ZM74.0424 515.742L74.9741 517.518C79.7729 516.164 82.4711 513.141 82.4799 508.816H74.7455V510.645H80.0102C79.6586 512.895 77.6284 514.749 74.0424 515.742ZM76.433 523.336H87.3842V521.543H78.7006V517.904H76.433V523.336ZM95.12 508.342H92.8876V515.32H100.64V508.342H98.3895V510.24H95.12V508.342ZM94.4872 518.098H102.872V519.1H94.5223V523.512H105.561V521.736H96.7196V520.699H105.104V516.357H94.4872V518.098ZM95.12 513.562V511.928H98.3895V513.562H95.12ZM102.854 515.76H105.104V512.543H107.266V510.732H105.104V507.621H102.854V515.76ZM120.732 507.639H118.5V511.77H115.88V513.58H118.5V519.311H120.732V507.639ZM107.162 515.707L108.304 517.535C110.194 516.911 111.468 515.619 112.18 514.028C112.875 515.461 114.096 516.621 115.863 517.201L116.97 515.426C114.43 514.6 113.288 512.622 113.296 510.768V510.504H116.478V508.711H107.795V510.504H111.011V510.75C111.003 512.798 109.807 514.881 107.162 515.707ZM110.115 523.336H121.119V521.543H112.365V518.291H110.115V523.336ZM140.105 517.201H125.515V519.029H131.685V523.635H133.899V519.029H140.105V517.201ZM126.253 514.582L127.062 516.34C129.795 516.032 131.764 514.934 132.81 513.466C133.847 514.916 135.807 516.032 138.522 516.34L139.331 514.582C136.018 514.213 134.216 512.631 133.97 511.225H138.769V509.467H133.899V507.639H131.685V509.467H126.833V511.225H131.649C131.377 512.648 129.575 514.213 126.253 514.582ZM153.746 507.621H151.478V523.652H153.746V507.621ZM140.826 514.441C140.817 517.957 142.601 520.154 145.062 520.154C147.47 520.154 149.263 517.957 149.263 514.441C149.263 510.952 147.47 508.746 145.062 508.746C142.601 508.746 140.817 510.952 140.826 514.441ZM142.988 514.441C142.979 512.068 143.814 510.768 145.062 510.768C146.275 510.768 147.093 512.068 147.101 514.441C147.093 516.823 146.275 518.124 145.062 518.115C143.814 518.124 142.979 516.823 142.988 514.441Z" fill="#232323"/>
<path d="M70.4064 772.239C72.1718 772.239 73.1892 770.754 73.1892 768.147C73.1892 765.563 72.1553 764.056 70.4064 764.056C68.6521 764.056 67.6182 765.563 67.6237 768.147C67.6182 770.754 68.6411 772.239 70.4064 772.239ZM68.5806 768.147C68.5861 766.085 69.2626 764.919 70.4064 764.914C71.5503 764.919 72.2268 766.085 72.2213 768.147C72.2268 770.21 71.5558 771.359 70.4064 771.359C69.2516 771.359 68.5861 770.21 68.5806 768.147ZM77.6327 765.871V764.089H76.7748V765.871C76.7638 767.724 75.5594 769.594 74.1021 770.259L74.652 770.985C75.7959 770.408 76.7583 769.17 77.2092 767.696C77.6767 769.088 78.6391 770.248 79.7555 770.787L80.2834 770.105C78.8426 769.451 77.6272 767.658 77.6327 765.871ZM81.3503 773.042H82.2192V763.242H81.3503V773.042Z" fill="#615E83"/>
<path d="M139.765 772.239C141.443 772.255 142.537 771.057 142.537 769.555C142.537 768.015 141.355 766.915 139.941 766.915C139.083 766.915 138.352 767.306 137.896 767.971H137.797C137.791 766.052 138.578 764.936 139.886 764.936C140.772 764.936 141.311 765.464 141.492 766.168H142.471C142.268 764.919 141.289 764.056 139.886 764.056C138.017 764.056 136.862 765.634 136.862 768.455C136.862 771.403 138.385 772.222 139.765 772.239ZM137.929 769.577C137.94 768.637 138.743 767.79 139.787 767.784C140.827 767.79 141.575 768.587 141.58 769.566C141.575 770.556 140.794 771.364 139.765 771.37C138.699 771.364 137.934 770.512 137.929 769.577ZM147.025 765.871V764.089H146.167V765.871C146.156 767.724 144.951 769.594 143.494 770.259L144.044 770.985C145.188 770.408 146.15 769.17 146.601 767.696C147.069 769.088 148.031 770.248 149.147 770.787L149.675 770.105C148.235 769.451 147.019 767.658 147.025 765.871ZM150.742 773.042H151.611V763.242H150.742V773.042Z" fill="#615E83"/>
<path d="M209.278 764.166H208.277L206.297 765.486V766.486L208.233 765.2H208.277V772.129H209.278V764.166ZM211.4 772.129H216.57V771.249H212.775V771.183L214.601 769.302C216.009 767.85 216.421 767.157 216.427 766.267C216.421 765.029 215.399 764.056 213.952 764.056C212.511 764.056 211.422 765.002 211.433 766.41H212.368C212.374 765.519 212.968 764.919 213.919 764.914C214.816 764.919 215.498 765.447 215.503 766.267C215.498 767.003 215.047 767.542 214.106 768.543L211.389 771.403L211.4 772.129ZM221.134 765.871V764.089H220.277V765.871C220.266 767.724 219.061 769.594 217.604 770.259L218.154 770.985C219.298 770.408 220.26 769.17 220.711 767.696C221.178 769.088 222.141 770.248 223.257 770.787L223.785 770.105C222.344 769.451 221.129 767.658 221.134 765.871ZM224.852 773.042H225.721V763.242H224.852V773.042Z" fill="#615E83"/>
<path d="M283.461 764.166H282.46L280.48 765.486V766.486L282.416 765.2H282.46V772.129H283.461V764.166ZM288.245 772.239C289.906 772.239 291.072 771.309 291.083 770.017C291.072 768.989 290.357 768.136 289.455 767.993V767.949C290.236 767.768 290.764 767.036 290.775 766.168C290.764 764.952 289.697 764.056 288.245 764.056C286.788 764.056 285.721 764.952 285.726 766.168C285.721 767.036 286.243 767.768 287.035 767.949V767.993C286.128 768.136 285.413 768.989 285.418 770.017C285.413 771.309 286.568 772.239 288.245 772.239ZM286.408 769.962C286.392 769.082 287.178 768.433 288.245 768.433C289.318 768.433 290.093 769.082 290.093 769.962C290.093 770.798 289.384 771.364 288.245 771.37C287.101 771.364 286.392 770.798 286.408 769.962ZM286.683 766.245C286.689 765.447 287.299 764.908 288.245 764.914C289.175 764.908 289.807 765.447 289.807 766.245C289.807 767.047 289.153 767.592 288.245 767.597C287.332 767.592 286.689 767.047 286.683 766.245ZM295.537 765.871V764.089H294.68V765.871C294.669 767.724 293.464 769.594 292.007 770.259L292.557 770.985C293.701 770.408 294.663 769.17 295.114 767.696C295.581 769.088 296.544 770.248 297.66 770.787L298.188 770.105C296.747 769.451 295.532 767.658 295.537 765.871ZM299.255 773.042H300.124V763.242H299.255V773.042Z" fill="#615E83"/>
<path d="M355.091 772.129H360.261V771.249H356.466V771.183L358.292 769.302C359.7 767.85 360.112 767.157 360.118 766.267C360.112 765.029 359.089 764.056 357.643 764.056C356.202 764.056 355.113 765.002 355.124 766.41H356.059C356.064 765.519 356.658 764.919 357.61 764.914C358.506 764.919 359.188 765.447 359.194 766.267C359.188 767.003 358.737 767.542 357.797 768.543L355.08 771.403L355.091 772.129ZM361.327 770.501H365.188V772.129H366.134V770.501H367.245V769.632H366.134V764.166H364.913L361.327 769.687V770.501ZM362.394 769.632V769.566L365.089 765.42H365.188V769.632H362.394ZM371.677 765.871V764.089H370.819V765.871C370.808 767.724 369.604 769.594 368.147 770.259L368.697 770.985C369.84 770.408 370.803 769.17 371.254 767.696C371.721 769.088 372.684 770.248 373.8 770.787L374.328 770.105C372.887 769.451 371.672 767.658 371.677 765.871ZM375.395 773.042H376.264V763.242H375.395V773.042Z" fill="#615E83"/>
<path d="M29.0224 744.431C28.3337 744.431 27.7471 744.243 27.2626 743.868C26.7781 743.491 26.4079 742.944 26.1519 742.228C25.8959 741.508 25.7679 740.64 25.7679 739.622C25.7679 738.61 25.8959 737.746 26.1519 737.03C26.4109 736.311 26.7827 735.763 27.2672 735.385C27.7548 735.004 28.3398 734.813 29.0224 734.813C29.705 734.813 30.2886 735.004 30.7731 735.385C31.2607 735.763 31.6325 736.311 31.8884 737.03C32.1474 737.746 32.277 738.61 32.277 739.622C32.277 740.64 32.149 741.508 31.893 742.228C31.637 742.944 31.2668 743.491 30.7823 743.868C30.2977 744.243 29.7111 744.431 29.0224 744.431ZM29.0224 743.425C29.705 743.425 30.2353 743.096 30.6131 742.438C30.991 741.78 31.1799 740.841 31.1799 739.622C31.1799 738.811 31.0931 738.121 30.9194 737.551C30.7487 736.982 30.5019 736.547 30.1789 736.249C29.8589 735.95 29.4734 735.801 29.0224 735.801C28.3459 735.801 27.8172 736.134 27.4363 736.802C27.0554 737.466 26.8649 738.406 26.8649 739.622C26.8649 740.433 26.9503 741.121 27.1209 741.688C27.2916 742.255 27.5369 742.686 27.8568 742.982C28.1799 743.277 28.5684 743.425 29.0224 743.425Z" fill="#615E83"/>
<path d="M28.8945 692.228C28.3581 692.228 27.8751 692.121 27.4455 691.908C27.0158 691.694 26.6714 691.402 26.4124 691.03C26.1534 690.658 26.0117 690.235 25.9873 689.759H27.0844C27.127 690.183 27.319 690.533 27.6603 690.811C28.0046 691.085 28.416 691.222 28.8945 691.222C29.2784 691.222 29.6197 691.132 29.9183 690.952C30.22 690.773 30.4562 690.526 30.6268 690.212C30.8005 689.895 30.8874 689.537 30.8874 689.138C30.8874 688.729 30.7975 688.365 30.6177 688.045C30.441 687.722 30.1972 687.468 29.8863 687.282C29.5755 687.096 29.2205 687.001 28.8213 686.998C28.5349 686.995 28.2408 687.04 27.9391 687.131C27.6374 687.219 27.3891 687.334 27.1941 687.474L26.1336 687.346L26.7004 682.738H31.5639V683.744H27.6512L27.322 686.505H27.3769C27.5689 686.352 27.8096 686.226 28.0991 686.125C28.3886 686.025 28.6903 685.975 29.0042 685.975C29.577 685.975 30.0875 686.112 30.5354 686.386C30.9864 686.657 31.3399 687.029 31.5959 687.501C31.8549 687.974 31.9844 688.513 31.9844 689.119C31.9844 689.717 31.8503 690.25 31.5822 690.719C31.3171 691.185 30.9514 691.554 30.4851 691.825C30.0189 692.094 29.4887 692.228 28.8945 692.228ZM36.8536 692.228C36.1649 692.228 35.5783 692.04 35.0938 691.665C34.6093 691.288 34.239 690.741 33.9831 690.024C33.7271 689.305 33.5991 688.437 33.5991 687.419C33.5991 686.407 33.7271 685.543 33.9831 684.827C34.2421 684.108 34.6139 683.56 35.0984 683.182C35.5859 682.801 36.171 682.61 36.8536 682.61C37.5362 682.61 38.1198 682.801 38.6043 683.182C39.0919 683.56 39.4636 684.108 39.7196 684.827C39.9786 685.543 40.1081 686.407 40.1081 687.419C40.1081 688.437 39.9801 689.305 39.7242 690.024C39.4682 690.741 39.098 691.288 38.6134 691.665C38.1289 692.04 37.5423 692.228 36.8536 692.228ZM36.8536 691.222C37.5362 691.222 38.0664 690.893 38.4443 690.235C38.8222 689.576 39.0111 688.638 39.0111 687.419C39.0111 686.608 38.9243 685.918 38.7506 685.348C38.5799 684.778 38.3331 684.344 38.0101 684.046C37.6901 683.747 37.3046 683.598 36.8536 683.598C36.1771 683.598 35.6484 683.931 35.2675 684.599C34.8866 685.263 34.6961 686.203 34.6961 687.419C34.6961 688.23 34.7815 688.918 34.9521 689.485C35.1228 690.052 35.3681 690.483 35.688 690.779C36.011 691.074 36.3996 691.222 36.8536 691.222ZM42.869 689.54L42.8507 688.205H43.0701L46.1418 685.079H47.4765L44.2037 688.388H44.1123L42.869 689.54ZM41.8634 692.1V682.738H42.9421V692.1H41.8634ZM46.3246 692.1L43.5821 688.626L44.35 687.876L47.6959 692.1H46.3246Z" fill="#615E83"/>
<path d="M29.2601 634.469V643.83H28.1265V635.657H28.0717L25.7862 637.175V636.023L28.1265 634.469H29.2601ZM35.0058 643.958C34.3171 643.958 33.7305 643.771 33.246 643.396C32.7615 643.018 32.3912 642.471 32.1353 641.755C31.8793 641.036 31.7513 640.167 31.7513 639.149C31.7513 638.138 31.8793 637.274 32.1353 636.558C32.3943 635.839 32.766 635.29 33.2506 634.912C33.7381 634.531 34.3232 634.341 35.0058 634.341C35.6884 634.341 36.272 634.531 36.7565 634.912C37.2441 635.29 37.6158 635.839 37.8718 636.558C38.1308 637.274 38.2603 638.138 38.2603 639.149C38.2603 640.167 38.1323 641.036 37.8764 641.755C37.6204 642.471 37.2501 643.018 36.7656 643.396C36.2811 643.771 35.6945 643.958 35.0058 643.958ZM35.0058 642.952C35.6884 642.952 36.2186 642.623 36.5965 641.965C36.9744 641.307 37.1633 640.368 37.1633 639.149C37.1633 638.339 37.0765 637.649 36.9028 637.079C36.7321 636.509 36.4853 636.075 36.1623 635.776C35.8423 635.477 35.4568 635.328 35.0058 635.328C34.3293 635.328 33.8006 635.662 33.4197 636.329C33.0388 636.993 32.8483 637.934 32.8483 639.149C32.8483 639.96 32.9336 640.649 33.1043 641.215C33.2749 641.782 33.5203 642.213 33.8402 642.509C34.1632 642.805 34.5518 642.952 35.0058 642.952ZM43.0507 643.958C42.362 643.958 41.7754 643.771 41.2909 643.396C40.8063 643.018 40.4361 642.471 40.1801 641.755C39.9242 641.036 39.7962 640.167 39.7962 639.149C39.7962 638.138 39.9242 637.274 40.1801 636.558C40.4391 635.839 40.8109 635.29 41.2954 634.912C41.783 634.531 42.3681 634.341 43.0507 634.341C43.7333 634.341 44.3168 634.531 44.8014 634.912C45.2889 635.29 45.6607 635.839 45.9167 636.558C46.1757 637.274 46.3052 638.138 46.3052 639.149C46.3052 640.167 46.1772 641.036 45.9212 641.755C45.6653 642.471 45.295 643.018 44.8105 643.396C44.326 643.771 43.7394 643.958 43.0507 643.958ZM43.0507 642.952C43.7333 642.952 44.2635 642.623 44.6414 641.965C45.0192 641.307 45.2082 640.368 45.2082 639.149C45.2082 638.339 45.1213 637.649 44.9476 637.079C44.777 636.509 44.5301 636.075 44.2071 635.776C43.8872 635.477 43.5017 635.328 43.0507 635.328C42.3742 635.328 41.8455 635.662 41.4646 636.329C41.0837 636.993 40.8932 637.934 40.8932 639.149C40.8932 639.96 40.9785 640.649 41.1492 641.215C41.3198 641.782 41.5651 642.213 41.8851 642.509C42.2081 642.805 42.5966 642.952 43.0507 642.952ZM49.0661 641.27L49.0478 639.936H49.2672L52.3389 636.809H53.6736L50.4008 640.118H50.3094L49.0661 641.27ZM48.0604 643.83V634.469H49.1392V643.83H48.0604ZM52.5217 643.83L49.7791 640.356L50.547 639.607L53.893 643.83H52.5217Z" fill="#615E83"/>
<path d="M28.8945 594.05C28.3581 594.05 27.8751 593.943 27.4455 593.73C27.0158 593.517 26.6714 593.224 26.4124 592.852C26.1534 592.481 26.0117 592.057 25.9873 591.582H27.0844C27.127 592.005 27.319 592.356 27.6603 592.633C28.0046 592.907 28.416 593.044 28.8945 593.044C29.2784 593.044 29.6197 592.954 29.9183 592.775C30.22 592.595 30.4562 592.348 30.6268 592.034C30.8005 591.717 30.8874 591.359 30.8874 590.96C30.8874 590.552 30.7975 590.187 30.6177 589.867C30.441 589.544 30.1972 589.29 29.8863 589.104C29.5755 588.918 29.2205 588.824 28.8213 588.821C28.5349 588.818 28.2408 588.862 27.9391 588.953C27.6374 589.042 27.3891 589.156 27.1941 589.296L26.1336 589.168L26.7004 584.561H31.5639V585.566H27.6512L27.322 588.327H27.3769C27.5689 588.175 27.8096 588.048 28.0991 587.948C28.3886 587.847 28.6903 587.797 29.0042 587.797C29.577 587.797 30.0875 587.934 30.5354 588.208C30.9864 588.479 31.3399 588.851 31.5959 589.323C31.8549 589.796 31.9844 590.335 31.9844 590.942C31.9844 591.539 31.8503 592.072 31.5822 592.541C31.3171 593.008 30.9514 593.376 30.4851 593.648C30.0189 593.916 29.4887 594.05 28.8945 594.05ZM36.8536 594.05C36.1649 594.05 35.5783 593.862 35.0938 593.488C34.6093 593.11 34.239 592.563 33.9831 591.847C33.7271 591.128 33.5991 590.259 33.5991 589.241C33.5991 588.23 33.7271 587.366 33.9831 586.649C34.2421 585.93 34.6139 585.382 35.0984 585.004C35.5859 584.623 36.171 584.433 36.8536 584.433C37.5362 584.433 38.1198 584.623 38.6043 585.004C39.0919 585.382 39.4636 585.93 39.7196 586.649C39.9786 587.366 40.1081 588.23 40.1081 589.241C40.1081 590.259 39.9801 591.128 39.7242 591.847C39.4682 592.563 39.098 593.11 38.6134 593.488C38.1289 593.862 37.5423 594.05 36.8536 594.05ZM36.8536 593.044C37.5362 593.044 38.0664 592.715 38.4443 592.057C38.8222 591.399 39.0111 590.46 39.0111 589.241C39.0111 588.431 38.9243 587.74 38.7506 587.171C38.5799 586.601 38.3331 586.166 38.0101 585.868C37.6901 585.569 37.3046 585.42 36.8536 585.42C36.1771 585.42 35.6484 585.754 35.2675 586.421C34.8866 587.085 34.6961 588.025 34.6961 589.241C34.6961 590.052 34.7815 590.74 34.9521 591.307C35.1228 591.874 35.3681 592.305 35.688 592.601C36.011 592.896 36.3996 593.044 36.8536 593.044ZM44.8985 594.05C44.2098 594.05 43.6232 593.862 43.1387 593.488C42.6542 593.11 42.2839 592.563 42.0279 591.847C41.772 591.128 41.644 590.259 41.644 589.241C41.644 588.23 41.772 587.366 42.0279 586.649C42.287 585.93 42.6587 585.382 43.1432 585.004C43.6308 584.623 44.2159 584.433 44.8985 584.433C45.5811 584.433 46.1646 584.623 46.6492 585.004C47.1367 585.382 47.5085 585.93 47.7645 586.649C48.0235 587.366 48.153 588.23 48.153 589.241C48.153 590.259 48.025 591.128 47.769 591.847C47.5131 592.563 47.1428 593.11 46.6583 593.488C46.1738 593.862 45.5872 594.05 44.8985 594.05ZM44.8985 593.044C45.5811 593.044 46.1113 592.715 46.4892 592.057C46.867 591.399 47.056 590.46 47.056 589.241C47.056 588.431 46.9691 587.74 46.7954 587.171C46.6248 586.601 46.378 586.166 46.0549 585.868C45.735 585.569 45.3495 585.42 44.8985 585.42C44.222 585.42 43.6933 585.754 43.3124 586.421C42.9315 587.085 42.741 588.025 42.741 589.241C42.741 590.052 42.8263 590.74 42.997 591.307C43.1676 591.874 43.4129 592.305 43.7329 592.601C44.0559 592.896 44.4444 593.044 44.8985 593.044ZM50.9139 591.362L50.8956 590.027H51.115L54.1867 586.901H55.5214L52.2486 590.21H52.1572L50.9139 591.362ZM49.9083 593.922V584.561H50.987V593.922H49.9083ZM54.3695 593.922L51.6269 590.448L52.3949 589.698L55.7408 593.922H54.3695Z" fill="#615E83"/>
<line x1="71.2929" y1="588.76" x2="382.306" y2="588.76" stroke="#E5E5EF" stroke-width="0.804487" stroke-linecap="round"/>
<line x1="71.2929" y1="640.246" x2="382.306" y2="640.246" stroke="#E5E5EF" stroke-width="0.804487" stroke-linecap="round"/>
<line x1="71.2929" y1="691.734" x2="382.306" y2="691.734" stroke="#E5E5EF" stroke-width="0.804487" stroke-linecap="round"/>
<line x1="71.2929" y1="743.221" x2="382.306" y2="743.221" stroke="#E5E5EF" stroke-width="0.804487" stroke-linecap="round"/>
<path d="M71.8086 645.885C75.3808 641.654 87.4322 636.578 107.06 650.115C131.595 667.036 164.027 692.417 191.1 663.087C218.173 633.758 255.681 568.331 378.639 674.368" stroke="#01A300" stroke-width="2.41346" stroke-linecap="round"/>
<line x1="253.035" y1="589.564" x2="253.035" y2="743.221" stroke="#9291A5" stroke-width="0.804487" stroke-linecap="round" stroke-dasharray="6.44 6.44"/>
<g filter="url(#filter0_d_1418_18603)">
<circle cx="253.12" cy="617.825" r="7.60001" fill="#01A300"/>
<circle cx="253.12" cy="617.825" r="6.79552" stroke="white" stroke-width="1.60897"/>
</g>
<g filter="url(#filter1_d_1418_18603)">
<circle cx="146" cy="673" r="5" fill="white"/>
<circle cx="146" cy="673" r="4.19551" stroke="#01A300" stroke-width="1.60897"/>
</g>
<g filter="url(#filter2_d_1418_18603)">
<circle cx="214" cy="638" r="5" fill="white"/>
<circle cx="214" cy="638" r="4.19551" stroke="#01A300" stroke-width="1.60897"/>
</g>
<g filter="url(#filter3_d_1418_18603)">
<circle cx="291" cy="620" r="5" fill="white"/>
<circle cx="291" cy="620" r="4.19551" stroke="#01A300" stroke-width="1.60897"/>
</g>
<g filter="url(#filter4_d_1418_18603)">
<circle cx="366" cy="663" r="5" fill="white"/>
<circle cx="366" cy="663" r="4.19551" stroke="#01A300" stroke-width="1.60897"/>
</g>
<g filter="url(#filter5_d_1418_18603)">
<circle cx="75" cy="644" r="5" fill="white"/>
<circle cx="75" cy="644" r="4.19551" stroke="#01A300" stroke-width="1.60897"/>
</g>
<rect x="336.98" y="552.281" width="6.4359" height="6.4359" rx="3.21795" fill="#01A300"/>
<path d="M351.636 551.114V555.562H356.344V551.114H355.432V552.578H352.56V551.114H351.636ZM352.56 553.31H355.432V554.808H352.56V553.31ZM358.18 550.697V555.945H359.115V550.697H358.18ZM358.709 552.882V553.659H360.613V552.882H358.709ZM352.65 556.441V557.184H358.202V558.209H352.672V560.439H353.596V558.908H359.115V556.441H352.65ZM352.672 560.023V560.766H359.486V560.023H352.672ZM366.975 553.501V554.267H369.543V553.501H366.975ZM369.014 550.708V558.164H369.949V550.708H369.014ZM363.45 559.887V560.653H370.23V559.887H363.45ZM363.45 557.511V560.282H364.385V557.511H363.45ZM364.171 551.97V552.792C364.171 554.233 363.123 555.585 361.603 556.126L362.087 556.869C363.788 556.238 364.937 554.639 364.937 552.792V551.97H364.171ZM364.351 551.97V552.781C364.351 554.504 365.443 556.035 367.099 556.632L367.572 555.9C366.097 555.382 365.106 554.098 365.106 552.781V551.97H364.351ZM361.896 551.53V552.285H367.336V551.53H361.896ZM379.555 552.285V553.062H381.346V552.285H379.555ZM379.555 554.425V555.202H381.346V554.425H379.555ZM378.902 550.697V556.858H379.836V550.697H378.902ZM372.38 555.495V556.272H373.18C375.061 556.272 376.401 556.204 378.012 555.934L377.933 555.157C376.345 555.439 375.027 555.495 373.18 555.495H372.38ZM372.358 551.328V552.093H376.018V553.366H372.38V555.99H373.293V554.098H376.942V551.328H372.358ZM376.582 557.162C374.509 557.162 373.236 557.838 373.236 559.009C373.236 560.191 374.509 560.867 376.582 560.867C378.665 560.867 379.927 560.191 379.927 559.009C379.927 557.838 378.665 557.162 376.582 557.162ZM376.582 557.894C378.102 557.894 379.026 558.299 379.026 559.009C379.026 559.73 378.102 560.135 376.582 560.135C375.061 560.135 374.149 559.73 374.149 559.009C374.149 558.299 375.061 557.894 376.582 557.894Z" fill="#615E83"/>
<mask id="path-69-inside-1_1418_18603" fill="white">
<path d="M0 771H390V844H0V771Z"/>
</mask>
<path d="M0 771H390V844H0V771Z" fill="white"/>
<rect x="38.0714" y="789.071" width="14.8574" height="10.9549" stroke="#232323" stroke-width="1.14288"/>
<rect x="39.7852" y="790.566" width="3.11694" height="3.46327" fill="#232323"/>
<rect x="43.9414" y="790.566" width="3.11694" height="3.46327" fill="#232323"/>
<rect x="48.0977" y="790.566" width="3.11694" height="3.46327" fill="#232323"/>
<rect x="39.7852" y="795.068" width="3.11694" height="3.46327" fill="#232323"/>
<rect x="43.9414" y="795.068" width="3.11694" height="3.46327" fill="#232323"/>
<rect x="48.0977" y="795.068" width="3.11694" height="3.46327" fill="#232323"/>
<rect x="44.5234" y="800.207" width="1.95125" height="4.29276" fill="#232323"/>
<path d="M49.2129 823.971H40.8457V827.443H49.2129V823.971ZM39.4922 823.041H50.5664V822.18H45.5625V821.243C47.7432 821.161 48.9668 820.587 48.9668 819.527C48.9668 818.399 47.5449 817.818 45.0293 817.805C42.5068 817.818 41.0781 818.399 41.0781 819.527C41.0781 820.587 42.3086 821.161 44.4961 821.243V822.18H39.4922V823.041ZM40.0664 817.312H49.9238V816.479H45.5625V815.275H44.4961V816.479H40.0664V817.312ZM41.9121 826.609V824.805H48.1602V826.609H41.9121ZM42.2266 819.527C42.2197 818.898 43.2451 818.57 45.0293 818.557C46.8135 818.57 47.8252 818.898 47.832 819.527C47.8252 820.149 46.8135 820.498 45.0293 820.498C43.2451 820.498 42.2197 820.149 42.2266 819.527Z" fill="#232323" fill-opacity="0.7"/>
<g opacity="0.3">
<rect x="135.5" y="789.031" width="11" height="15" rx="0.5" stroke="#232323"/>
<path d="M137.5 788.969H144.5V787.469C144.5 787.193 144.276 786.969 144 786.969H138C137.724 786.969 137.5 787.193 137.5 787.469V788.969Z" stroke="#232323"/>
<rect width="8" height="2" transform="matrix(1 0 0 -1 137 802.531)" fill="#232323"/>
<rect width="8" height="2" transform="matrix(1 0 0 -1 137 799.531)" fill="#232323"/>
<rect x="0.5" y="-0.5" width="7" height="1" transform="matrix(1 0 0 -1 137 795.531)" fill="#232323"/>
<rect x="0.5" y="-0.5" width="7" height="1" transform="matrix(1 0 0 -1 137 795.531)" stroke="#232323"/>
<rect x="0.5" y="-0.5" width="7" height="1" transform="matrix(1 0 0 -1 137 795.531)" stroke="black" stroke-opacity="0.2"/>
<rect x="0.5" y="-0.5" width="7" height="1" transform="matrix(1 0 0 -1 137 792.531)" fill="#232323"/>
<rect x="0.5" y="-0.5" width="7" height="1" transform="matrix(1 0 0 -1 137 792.531)" stroke="#232323"/>
<rect x="0.5" y="-0.5" width="7" height="1" transform="matrix(1 0 0 -1 137 792.531)" stroke="black" stroke-opacity="0.2"/>
<path d="M128.068 816.453H126.988V818.695H124.281V819.584H126.988V822.742H128.068V816.453ZM117.979 821.908L118.566 822.77C120.002 822.25 121.103 821.19 121.622 819.803C122.162 821.033 123.235 821.99 124.582 822.469L125.156 821.635C123.379 821.054 122.121 819.591 122.135 817.998V816.85H121.082V817.998C121.068 819.775 119.811 821.3 117.979 821.908ZM120.193 824.219H127.002V825.436H120.221V828.443H128.52V827.582H121.273V826.256H128.068V823.357H120.193V824.219ZM139.553 816.453H138.473V828.635H139.553V816.453ZM130.243 825.695H135.985V817.492H134.932V820.705H131.309V817.492H130.243V825.695ZM131.309 824.793V821.566H134.932V824.793H131.309ZM145.446 819.064V818.354H148.249V817.479H141.523V818.354H144.366V819.064C144.359 820.787 143.074 822.366 141.249 823.002L141.81 823.863C143.259 823.33 144.401 822.236 144.927 820.855C145.481 822.134 146.602 823.132 148.017 823.617L148.564 822.756C146.745 822.182 145.453 820.705 145.446 819.064ZM143.259 828.348H151.489V827.445H144.325V824.533H143.259V828.348ZM150.04 825.381H151.107V816.467H150.04V825.381ZM162.113 816.453H161.047V825.258H162.113V820.979H163.959V820.076H162.113V816.453ZM153.185 823.098H154.129C156.685 823.098 158.134 823.016 159.843 822.688L159.707 821.799C158.08 822.127 156.692 822.202 154.252 822.195V818.408H158.599V817.506H153.185V823.098ZM154.511 828.348H162.674V827.445H155.564V824.369H154.511V828.348Z" fill="#232323"/>
</g>
<g opacity="0.3">
<rect x="235" y="791" width="15" height="2" stroke="#232323"/>
<rect x="235" y="800.391" width="15" height="2" stroke="#232323"/>
<rect x="236.777" y="788" width="11.4444" height="17" rx="1.5" fill="white" stroke="#232323"/>
<rect x="239.445" y="791" width="6.11111" height="3" stroke="#232323"/>
<path d="M235.055 815.453H233.988V818.406H231.527V819.309H233.988V822.057H235.055V815.453ZM225.047 821.414L225.607 822.262C227.05 821.735 228.178 820.607 228.697 819.213C229.224 820.457 230.283 821.476 231.65 821.975L232.211 821.141C230.434 820.525 229.217 818.994 229.217 817.436V817.08H231.938V816.191H225.389V817.08H228.137V817.436C228.137 819.158 226.838 820.765 225.047 821.414ZM227.234 827.443H235.055V822.645H233.988V824.162H228.314V822.645H227.234V827.443ZM228.314 826.568V825.023H233.988V826.568H228.314ZM247.647 821.564H242.588V819.691H241.536V821.564H236.532V822.453H247.647V821.564ZM237.202 819.486L237.612 820.348C239.478 820.026 241.303 819.062 242.069 817.647C242.828 819.049 244.66 820.026 246.499 820.348L246.936 819.486C244.79 819.192 242.602 817.839 242.602 816.219V815.645H241.522V816.219C241.522 817.839 239.348 819.192 237.202 819.486ZM237.762 824.504H245.159V827.607H246.239V823.643H237.762V824.504ZM257.573 815.453H256.507V822.781H257.573V819.609H259.405V818.693H257.573V815.453ZM248.099 817.641H255.345V816.752H252.255V815.357H251.189V816.752H248.099V817.641ZM248.796 820.402C248.789 821.722 249.958 822.576 251.722 822.576C253.465 822.576 254.634 821.722 254.648 820.402C254.634 819.104 253.465 818.242 251.722 818.242C249.958 818.242 248.789 819.104 248.796 820.402ZM249.821 820.402C249.815 819.609 250.573 819.076 251.722 819.076C252.857 819.076 253.622 819.609 253.636 820.402C253.622 821.229 252.857 821.742 251.722 821.756C250.573 821.742 249.815 821.229 249.821 820.402ZM249.903 827.443H257.573V823.479H249.903V827.443ZM250.956 826.568V824.34H256.507V826.568H250.956Z" fill="#232323"/>
</g>
<g opacity="0.3">
<path d="M334.75 797.75H339.75V799H334.75V797.75ZM334.75 794.625H342.25V795.875H334.75V794.625ZM334.75 800.875H337.875V802.125H334.75V800.875Z" fill="black"/>
<path d="M344.125 789.625H342.25V789C342.25 788.668 342.118 788.351 341.884 788.116C341.649 787.882 341.332 787.75 341 787.75H336C335.668 787.75 335.351 787.882 335.116 788.116C334.882 788.351 334.75 788.668 334.75 789V789.625H332.875C332.543 789.625 332.226 789.757 331.991 789.991C331.757 790.226 331.625 790.543 331.625 790.875V804C331.625 804.332 331.757 804.649 331.991 804.884C332.226 805.118 332.543 805.25 332.875 805.25H344.125C344.457 805.25 344.774 805.118 345.009 804.884C345.243 804.649 345.375 804.332 345.375 804V790.875C345.375 790.543 345.243 790.226 345.009 789.991C344.774 789.757 344.457 789.625 344.125 789.625ZM336 789H341V791.5H336V789ZM344.125 804H332.875V790.875H334.75V792.75H342.25V790.875H344.125V804Z" fill="black"/>
<path d="M332.121 825.16H327.049V822.535H330.754V816.314H329.701V818.516H323.385V816.314H322.305V822.535H325.996V825.16H320.992V826.049H332.121V825.16ZM323.385 821.66V819.391H329.701V821.66H323.385ZM342.28 816.684H333.708V817.572H341.2V817.9C341.193 819.356 341.193 821.059 340.735 823.383L341.829 823.506C342.266 821.059 342.266 819.391 342.28 817.9V816.684ZM332.532 825.885H343.606V824.996H337.932V820.648H336.879V824.996H332.532V825.885ZM348.351 818.721V816.506H347.257V818.721C347.25 820.963 345.842 823.301 344.058 824.176L344.755 825.037C346.136 824.306 347.277 822.747 347.817 820.929C348.358 822.658 349.499 824.107 350.88 824.818L351.523 823.943C349.759 823.137 348.344 820.922 348.351 818.721ZM350.196 820.484H353.081V827.635H354.148V815.453H353.081V819.609H350.196V820.484Z" fill="#232323"/>
</g>
<path d="M0 772H390V770H0V772Z" fill="#E0E0E0" mask="url(#path-69-inside-1_1418_18603)"/>
<rect x="16" y="152" width="358" height="58" rx="8" fill="#F0F2F2"/>
<path d="M39.1816 173.842H36.9492V180.82H44.7012V173.842H42.4512V175.74H39.1816V173.842ZM38.5488 183.598H46.9336V184.6H38.584V189.012H49.623V187.236H40.7812V186.199H49.166V181.857H38.5488V183.598ZM39.1816 179.062V177.428H42.4512V179.062H39.1816ZM46.916 181.26H49.166V178.043H51.3281V176.232H49.166V173.121H46.916V181.26ZM64.7937 173.139H62.5612V177.27H59.9421V179.08H62.5612V184.811H64.7937V173.139ZM51.2234 181.207L52.3659 183.035C54.2556 182.411 55.53 181.119 56.2419 179.528C56.9362 180.961 58.1579 182.121 59.9245 182.701L61.032 180.926C58.4919 180.1 57.3493 178.122 57.3581 176.268V176.004H60.5398V174.211H51.8562V176.004H55.073V176.25C55.0642 178.298 53.8689 180.381 51.2234 181.207ZM54.1765 188.836H65.1804V187.043H56.4265V183.791H54.1765V188.836ZM79.0502 173.842H67.9409V175.635H76.8178C76.8002 176.76 76.7563 177.999 76.4135 179.59H66.1479V181.4H80.7905V179.59H78.6723C79.059 177.753 79.059 176.373 79.0502 175.125V173.842ZM67.8881 188.941H78.9975V183.088H67.8881V188.941ZM70.0854 187.148V184.846H76.7651V187.148H70.0854ZM84.7287 174.088C82.5929 174.079 81.0461 175.696 81.0548 177.99C81.0461 180.302 82.5929 181.875 84.7287 181.875C86.8556 181.875 88.4289 180.302 88.4377 177.99C88.4289 175.696 86.8556 174.079 84.7287 174.088ZM83.0588 177.99C83.05 176.725 83.7443 175.995 84.7287 175.986C85.7043 175.995 86.3898 176.725 86.3986 177.99C86.3898 179.247 85.7043 180.012 84.7287 180.012C83.7443 180.012 83.05 179.247 83.0588 177.99ZM83.674 185.18H92.4982V189.117H94.7306V183.387H83.674V185.18ZM89.2111 182.596H91.2853V178.799H92.6037V182.684H94.7306V173.139H92.6037V177.006H91.2853V173.42H89.2111V182.596Z" fill="#232323"/>
<path d="M233.531 169.375H229.094L223.5 172.938V177.094L228.688 173.844H228.812V192H233.531V169.375ZM237.126 188H248.126V192H252.595V188H255.47V184.219H252.595V169.375H246.689L237.126 184.281V188ZM241.876 184.219V184.031L247.97 174.531H248.189V184.219H241.876ZM266.69 169.375H262.252L256.659 172.938V177.094L261.846 173.844H261.971V192H266.69V169.375ZM274.504 189.688H270.066L268.504 198.594H271.816L274.504 189.688ZM276.974 188H287.974V192H292.443V188H295.318V184.219H292.443V169.375H286.536L276.974 184.281V188ZM281.724 184.219V184.031L287.818 174.531H288.036V184.219H281.724ZM297.1 192H313.287V188.125H303.631V188L307.069 184.656C311.725 180.438 312.975 178.328 312.975 175.75C312.975 171.828 309.756 169.062 304.912 169.062C300.147 169.062 296.866 171.891 296.881 176.312H301.35C301.334 174.141 302.725 172.797 304.85 172.812C306.928 172.797 308.444 174.047 308.444 176.062C308.444 177.859 307.303 179.109 305.194 181.125L297.069 188.594L297.1 192ZM314.476 188H325.476V192H329.945V188H332.82V184.219H329.945V169.375H324.039L314.476 184.281V188ZM319.226 184.219V184.031L325.32 174.531H325.539V184.219H319.226ZM351.524 172.852H348.524V185.227H344.446V187.266H348.524V188.953H351.524V172.852ZM333.384 182.297L333.735 184.664C335.353 184.664 337.169 184.652 339.079 184.582V187.406H336.103V193.781H351.993V191.391H339.079V188.461H342.079V184.406C343.802 184.277 345.548 184.078 347.235 183.797L347.071 181.664C342.56 182.215 337.286 182.273 333.384 182.297ZM334.954 177.398C334.954 179.684 337.145 181.16 340.321 181.148C343.415 181.16 345.63 179.684 345.642 177.398C345.63 175.125 343.415 173.566 340.321 173.578C337.145 173.566 334.954 175.125 334.954 177.398ZM337.79 177.398C337.778 176.344 338.798 175.758 340.321 175.758C341.751 175.758 342.782 176.344 342.806 177.398C342.782 178.43 341.751 179.004 340.321 178.992C338.798 179.004 337.778 178.43 337.79 177.398Z" fill="#232323"/>
<rect x="146.449" y="65.4492" width="3.25101" height="10.8367" fill="#292929"/>
<rect x="155.66" y="73.0352" width="3.25101" height="8.66935" transform="rotate(90 155.66 73.0352)" fill="#292929"/>
<rect x="180.043" y="73.0352" width="3.25101" height="11.9204" transform="rotate(90 180.043 73.0352)" fill="#292929"/>
<rect x="175.707" y="85.498" width="3.25101" height="11.3785" transform="rotate(-180 175.707 85.498)" fill="#292929"/>
<path d="M146.451 65.4507L149.157 68.1586L139.946 78.9953L137.237 76.2864L146.451 65.4507Z" fill="#292929" fill-opacity="0.5"/>
<rect x="146.449" y="76.2871" width="3.25101" height="9.21119" transform="rotate(90 146.449 76.2871)" fill="#292929"/>
<path d="M149.699 85.498L146.448 85.498L146.448 76.2869C148.244 76.2869 149.699 77.7424 149.699 79.5379L149.699 85.498Z" fill="#292929"/>
<path d="M152.41 83.8713H154.705C155.808 83.8713 156.836 83.3123 157.435 82.3864L161.473 76.145C162.072 75.2192 163.1 74.6602 164.203 74.6602H166.769" stroke="#292929" stroke-width="3.25101"/>
<path d="M191.175 75.942H192.406C192.318 73.9897 190.629 72.5563 188.237 72.5651C185.854 72.5563 184.025 73.9721 184.016 76.0475C184.025 77.7008 185.195 78.7296 187.2 79.3188L188.712 79.7585C190.26 80.1982 191.35 80.7786 191.35 82.045C191.35 83.5487 189.996 84.5512 188.114 84.56C186.435 84.5512 185.098 83.751 184.966 82.256H183.682C183.832 84.305 185.485 85.6945 188.114 85.6857C190.911 85.6945 192.573 84.1291 192.564 82.0626C192.573 79.9256 190.682 79.0814 189.082 78.6329L187.763 78.2636C186.558 77.9294 185.239 77.3226 185.247 75.9947C185.239 74.658 186.443 73.6819 188.202 73.6731C189.856 73.6819 191.043 74.5437 191.175 75.942ZM204.806 79.1078C204.815 75.1153 202.502 72.5651 199.283 72.5651C196.047 72.5651 193.743 75.1153 193.743 79.1078C193.743 83.0914 196.047 85.6505 199.283 85.6505C202.502 85.6505 204.815 83.1002 204.806 79.1078ZM194.974 79.1078C194.966 75.7133 196.812 73.7435 199.283 73.7435C201.746 73.7435 203.592 75.7221 203.592 79.1078C203.592 82.4935 201.746 84.4721 199.283 84.4721C196.803 84.4721 194.966 82.4847 194.974 79.1078ZM206.565 85.4746H213.847V84.349H207.814V72.741H206.565V85.4746ZM216.345 85.4746L217.682 81.6932H222.976L224.312 85.4746H225.631L221.006 72.741H219.652L215.026 85.4746H216.345ZM218.077 80.5852L220.285 74.3591H220.373L222.58 80.5852H218.077ZM226.758 85.4746H228.006V80.3741H230.944C231.093 80.3741 231.243 80.3653 231.383 80.3565L234.145 85.4746H235.587L232.667 80.1191C234.259 79.5915 235.068 78.2812 235.059 76.5751C235.068 74.3327 233.67 72.741 230.926 72.741H226.758V85.4746ZM228.006 79.2309V73.8666H230.873C232.878 73.8578 233.828 74.9395 233.828 76.5751C233.828 78.2108 232.878 79.2309 230.891 79.2309H228.006Z" fill="#292929"/>
<path d="M249.533 72.9395L248.004 71.4098L248.004 66.8209L249.533 65.2913L251.063 66.8209L251.063 71.4098L249.533 72.9395Z" fill="#DC8772"/>
<path d="M249.533 63.6484L248.004 62.1188L248.004 57.5299L249.533 56.0003L251.063 57.5299L251.063 62.1188L249.533 63.6484Z" fill="#86A6D9"/>
<path d="M250.355 64.4684L251.885 62.9388L256.472 62.9388L258.001 64.4684L256.472 65.998L251.885 65.998L250.355 64.4684Z" fill="#F5C851"/>
<path d="M241.062 64.4684L242.592 62.9388L247.179 62.9388L248.708 64.4684L247.179 65.998L242.592 65.998L241.062 64.4684Z" fill="#87D5D7"/>
<path d="M326.25 79.1035C326.25 79.7003 326.013 80.2726 325.591 80.6945C325.169 81.1165 324.597 81.3535 324 81.3535C323.404 81.3535 322.831 81.1165 322.409 80.6945C321.987 80.2726 321.75 79.7003 321.75 79.1035M324.541 68.6058L323.442 68.6035C320.934 68.5975 318.756 70.6353 318.739 73.1035V75.946C318.739 76.5385 318.664 77.1168 318.341 77.6095L318.126 77.938C317.798 78.436 318.15 79.1035 318.739 79.1035H329.262C329.85 79.1035 330.202 78.436 329.875 77.938L329.66 77.6095C329.337 77.1168 329.262 76.5378 329.262 75.9453V73.1043C329.232 70.6353 327.049 68.6118 324.541 68.6058V68.6058Z" stroke="black" stroke-width="1.5" stroke-linecap="round" stroke-linejoin="round"/>
<path d="M324 66.3535C324.398 66.3535 324.779 66.5116 325.061 66.7929C325.342 67.0742 325.5 67.4557 325.5 67.8535V68.6035H322.5V67.8535C322.5 67.4557 322.658 67.0742 322.939 66.7929C323.221 66.5116 323.602 66.3535 324 66.3535Z" stroke="black" stroke-width="1.5" stroke-linecap="round" stroke-linejoin="round"/>
<circle cx="330" cy="68.1172" r="4" fill="#ED6967"/>
<rect x="356" y="65.7363" width="12" height="2" rx="1" fill="#232323"/>
<rect x="356" y="71.7363" width="12" height="2" rx="1" fill="#232323"/>
<rect x="356" y="77.7363" width="12" height="2" rx="1" fill="#232323"/>
</g>
<defs>
<filter id="filter0_d_1418_18603" x="239.084" y="610.225" width="28.071" height="28.071" filterUnits="userSpaceOnUse" color-interpolation-filters="sRGB">
<feFlood flood-opacity="0" result="BackgroundImageFix"/>
<feColorMatrix in="SourceAlpha" type="matrix" values="0 0 0 0 0 0 0 0 0 0 0 0 0 0 0 0 0 0 127 0" result="hardAlpha"/>
<feOffset dy="6.4359"/>
<feGaussianBlur stdDeviation="3.21795"/>
<feComposite in2="hardAlpha" operator="out"/>
<feColorMatrix type="matrix" values="0 0 0 0 0.0509804 0 0 0 0 0.0392157 0 0 0 0 0.172549 0 0 0 0.08 0"/>
<feBlend mode="normal" in2="BackgroundImageFix" result="effect1_dropShadow_1418_18603"/>
<feBlend mode="normal" in="SourceGraphic" in2="effect1_dropShadow_1418_18603" result="shape"/>
</filter>
<filter id="filter1_d_1418_18603" x="134.564" y="668" width="22.8718" height="22.8718" filterUnits="userSpaceOnUse" color-interpolation-filters="sRGB">
<feFlood flood-opacity="0" result="BackgroundImageFix"/>
<feColorMatrix in="SourceAlpha" type="matrix" values="0 0 0 0 0 0 0 0 0 0 0 0 0 0 0 0 0 0 127 0" result="hardAlpha"/>
<feOffset dy="6.4359"/>
<feGaussianBlur stdDeviation="3.21795"/>
<feComposite in2="hardAlpha" operator="out"/>
<feColorMatrix type="matrix" values="0 0 0 0 0.0509804 0 0 0 0 0.0392157 0 0 0 0 0.172549 0 0 0 0.08 0"/>
<feBlend mode="normal" in2="BackgroundImageFix" result="effect1_dropShadow_1418_18603"/>
<feBlend mode="normal" in="SourceGraphic" in2="effect1_dropShadow_1418_18603" result="shape"/>
</filter>
<filter id="filter2_d_1418_18603" x="202.564" y="633" width="22.8718" height="22.8718" filterUnits="userSpaceOnUse" color-interpolation-filters="sRGB">
<feFlood flood-opacity="0" result="BackgroundImageFix"/>
<feColorMatrix in="SourceAlpha" type="matrix" values="0 0 0 0 0 0 0 0 0 0 0 0 0 0 0 0 0 0 127 0" result="hardAlpha"/>
<feOffset dy="6.4359"/>
<feGaussianBlur stdDeviation="3.21795"/>
<feComposite in2="hardAlpha" operator="out"/>
<feColorMatrix type="matrix" values="0 0 0 0 0.0509804 0 0 0 0 0.0392157 0 0 0 0 0.172549 0 0 0 0.08 0"/>
<feBlend mode="normal" in2="BackgroundImageFix" result="effect1_dropShadow_1418_18603"/>
<feBlend mode="normal" in="SourceGraphic" in2="effect1_dropShadow_1418_18603" result="shape"/>
</filter>
<filter id="filter3_d_1418_18603" x="279.564" y="615" width="22.8718" height="22.8718" filterUnits="userSpaceOnUse" color-interpolation-filters="sRGB">
<feFlood flood-opacity="0" result="BackgroundImageFix"/>
<feColorMatrix in="SourceAlpha" type="matrix" values="0 0 0 0 0 0 0 0 0 0 0 0 0 0 0 0 0 0 127 0" result="hardAlpha"/>
<feOffset dy="6.4359"/>
<feGaussianBlur stdDeviation="3.21795"/>
<feComposite in2="hardAlpha" operator="out"/>
<feColorMatrix type="matrix" values="0 0 0 0 0.0509804 0 0 0 0 0.0392157 0 0 0 0 0.172549 0 0 0 0.08 0"/>
<feBlend mode="normal" in2="BackgroundImageFix" result="effect1_dropShadow_1418_18603"/>
<feBlend mode="normal" in="SourceGraphic" in2="effect1_dropShadow_1418_18603" result="shape"/>
</filter>
<filter id="filter4_d_1418_18603" x="354.564" y="658" width="22.8718" height="22.8718" filterUnits="userSpaceOnUse" color-interpolation-filters="sRGB">
<feFlood flood-opacity="0" result="BackgroundImageFix"/>
<feColorMatrix in="SourceAlpha" type="matrix" values="0 0 0 0 0 0 0 0 0 0 0 0 0 0 0 0 0 0 127 0" result="hardAlpha"/>
<feOffset dy="6.4359"/>
<feGaussianBlur stdDeviation="3.21795"/>
<feComposite in2="hardAlpha" operator="out"/>
<feColorMatrix type="matrix" values="0 0 0 0 0.0509804 0 0 0 0 0.0392157 0 0 0 0 0.172549 0 0 0 0.08 0"/>
<feBlend mode="normal" in2="BackgroundImageFix" result="effect1_dropShadow_1418_18603"/>
<feBlend mode="normal" in="SourceGraphic" in2="effect1_dropShadow_1418_18603" result="shape"/>
</filter>
<filter id="filter5_d_1418_18603" x="63.5641" y="639" width="22.8718" height="22.8718" filterUnits="userSpaceOnUse" color-interpolation-filters="sRGB">
<feFlood flood-opacity="0" result="BackgroundImageFix"/>
<feColorMatrix in="SourceAlpha" type="matrix" values="0 0 0 0 0 0 0 0 0 0 0 0 0 0 0 0 0 0 127 0" result="hardAlpha"/>
<feOffset dy="6.4359"/>
<feGaussianBlur stdDeviation="3.21795"/>
<feComposite in2="hardAlpha" operator="out"/>
<feColorMatrix type="matrix" values="0 0 0 0 0.0509804 0 0 0 0 0.0392157 0 0 0 0 0.172549 0 0 0 0.08 0"/>
<feBlend mode="normal" in2="BackgroundImageFix" result="effect1_dropShadow_1418_18603"/>
<feBlend mode="normal" in="SourceGraphic" in2="effect1_dropShadow_1418_18603" result="shape"/>
</filter>
<clipPath id="clip0_1418_18603">
<rect width="390" height="844" rx="30" fill="white"/>
</clipPath>
</defs>
</svg>
