<svg width="500" height="267" viewBox="0 0 500 267" fill="none" xmlns="http://www.w3.org/2000/svg">
<rect y="0.585938" width="499.999" height="265.847" rx="25.2508" fill="white"/>
<path d="M29.151 263.557C28.6341 263.557 28.1685 263.454 27.7544 263.249C27.3403 263.043 27.0084 262.761 26.7587 262.403C26.509 262.044 26.3725 261.636 26.349 261.178H27.4063C27.4475 261.586 27.6325 261.924 27.9615 262.191C28.2933 262.456 28.6899 262.588 29.151 262.588C29.5211 262.588 29.85 262.501 30.1379 262.328C30.4286 262.154 30.6563 261.917 30.8207 261.614C30.9881 261.309 31.0719 260.963 31.0719 260.579C31.0719 260.185 30.9852 259.834 30.8119 259.526C30.6416 259.214 30.4066 258.969 30.107 258.79C29.8074 258.611 29.4653 258.52 29.0805 258.517C28.8044 258.514 28.521 258.557 28.2302 258.645C27.9394 258.73 27.7 258.84 27.5121 258.975L26.49 258.852L27.0363 254.411H31.7239V255.38H27.9526L27.6354 258.041H27.6883C27.8733 257.894 28.1054 257.772 28.3844 257.675C28.6634 257.578 28.9542 257.53 29.2567 257.53C29.8089 257.53 30.3009 257.662 30.7326 257.927C31.1673 258.188 31.508 258.546 31.7547 259.001C32.0044 259.457 32.1292 259.977 32.1292 260.561C32.1292 261.137 32 261.651 31.7415 262.103C31.486 262.552 31.1335 262.908 30.6842 263.169C30.2348 263.428 29.7237 263.557 29.151 263.557ZM37.4489 253.595C35.7864 253.595 34.5582 254.613 34.5582 256.089C34.5582 257.553 35.7864 258.57 37.4489 258.57C39.1237 258.57 40.352 257.553 40.352 256.089C40.352 254.613 39.1237 253.595 37.4489 253.595ZM37.4489 254.439C38.5406 254.439 39.3471 255.121 39.3471 256.089C39.3471 257.057 38.5406 257.727 37.4489 257.727C36.3695 257.727 35.5507 257.057 35.5507 256.089C35.5507 255.121 36.3695 254.439 37.4489 254.439ZM42.4611 253.186V258.93H43.5032V253.186H42.4611ZM36.2455 259.476V260.307H42.4859V261.436H36.2703V263.893H37.2752V262.205H43.5032V259.476H36.2455ZM36.2703 263.434V264.252H43.8754V263.434H36.2703Z" fill="#615E83"/>
<path d="M101.41 254.411V263.434H100.318V255.556H100.265L98.0621 257.019V255.909L100.318 254.411H101.41ZM107.693 263.557C107.029 263.557 106.464 263.376 105.997 263.015C105.53 262.651 105.173 262.124 104.926 261.433C104.679 260.74 104.556 259.903 104.556 258.922C104.556 257.947 104.679 257.114 104.926 256.424C105.176 255.731 105.534 255.202 106.001 254.838C106.471 254.471 107.035 254.287 107.693 254.287C108.351 254.287 108.913 254.471 109.38 254.838C109.85 255.202 110.208 255.731 110.455 256.424C110.705 257.114 110.83 257.947 110.83 258.922C110.83 259.903 110.706 260.74 110.459 261.433C110.213 262.124 109.856 262.651 109.389 263.015C108.922 263.376 108.356 263.557 107.693 263.557ZM107.693 262.588C108.351 262.588 108.862 262.27 109.226 261.636C109.59 261.002 109.772 260.097 109.772 258.922C109.772 258.141 109.688 257.476 109.521 256.926C109.357 256.377 109.119 255.959 108.807 255.671C108.499 255.383 108.127 255.239 107.693 255.239C107.041 255.239 106.531 255.561 106.164 256.204C105.797 256.844 105.613 257.75 105.613 258.922C105.613 259.703 105.695 260.367 105.86 260.914C106.024 261.46 106.261 261.875 106.569 262.16C106.881 262.445 107.255 262.588 107.693 262.588ZM116.073 253.595C114.411 253.595 113.183 254.613 113.183 256.089C113.183 257.553 114.411 258.57 116.073 258.57C117.748 258.57 118.976 257.553 118.976 256.089C118.976 254.613 117.748 253.595 116.073 253.595ZM116.073 254.439C117.165 254.439 117.971 255.121 117.971 256.089C117.971 257.057 117.165 257.727 116.073 257.727C114.994 257.727 114.175 257.057 114.175 256.089C114.175 255.121 114.994 254.439 116.073 254.439ZM121.085 253.186V258.93H122.128V253.186H121.085ZM114.87 259.476V260.307H121.11V261.436H114.895V263.893H115.9V262.205H122.128V259.476H114.87ZM114.895 263.434V264.252H122.5V263.434H114.895Z" fill="#615E83"/>
<path d="M180.275 254.411V263.434H179.182V255.556H179.13L176.927 257.019V255.909L179.182 254.411H180.275ZM186.434 263.557C185.917 263.557 185.452 263.454 185.037 263.249C184.623 263.043 184.291 262.761 184.042 262.403C183.792 262.044 183.656 261.636 183.632 261.178H184.689C184.731 261.586 184.916 261.924 185.245 262.191C185.576 262.456 185.973 262.588 186.434 262.588C186.804 262.588 187.133 262.501 187.421 262.328C187.712 262.154 187.939 261.917 188.104 261.614C188.271 261.309 188.355 260.963 188.355 260.579C188.355 260.185 188.268 259.834 188.095 259.526C187.925 259.214 187.69 258.969 187.39 258.79C187.09 258.611 186.748 258.52 186.364 258.517C186.087 258.514 185.804 258.557 185.513 258.645C185.222 258.73 184.983 258.84 184.795 258.975L183.773 258.852L184.319 254.411H189.007V255.38H185.236L184.918 258.041H184.971C185.156 257.894 185.388 257.772 185.667 257.675C185.946 257.578 186.237 257.53 186.54 257.53C187.092 257.53 187.584 257.662 188.016 257.927C188.45 258.188 188.791 258.546 189.038 259.001C189.287 259.457 189.412 259.977 189.412 260.561C189.412 261.137 189.283 261.651 189.025 262.103C188.769 262.552 188.417 262.908 187.967 263.169C187.518 263.428 187.007 263.557 186.434 263.557ZM194.732 253.595C193.069 253.595 191.841 254.613 191.841 256.089C191.841 257.553 193.069 258.57 194.732 258.57C196.407 258.57 197.635 257.553 197.635 256.089C197.635 254.613 196.407 253.595 194.732 253.595ZM194.732 254.439C195.824 254.439 196.63 255.121 196.63 256.089C196.63 257.057 195.824 257.727 194.732 257.727C193.653 257.727 192.834 257.057 192.834 256.089C192.834 255.121 193.653 254.439 194.732 254.439ZM199.744 253.186V258.93H200.786V253.186H199.744ZM193.529 259.476V260.307H199.769V261.436H193.553V263.893H194.558V262.205H200.786V259.476H193.529ZM193.553 263.434V264.252H201.158V263.434H193.553Z" fill="#615E83"/>
<path d="M255.893 263.434V262.641L258.872 259.38C259.221 258.999 259.509 258.667 259.735 258.385C259.961 258.1 260.129 257.833 260.237 257.583C260.349 257.33 260.405 257.066 260.405 256.79C260.405 256.473 260.328 256.198 260.176 255.966C260.026 255.734 259.82 255.555 259.559 255.428C259.297 255.302 259.004 255.239 258.678 255.239C258.331 255.239 258.029 255.311 257.77 255.455C257.515 255.596 257.316 255.794 257.175 256.05C257.037 256.305 256.968 256.605 256.968 256.948H255.929C255.929 256.42 256.05 255.956 256.294 255.556C256.538 255.157 256.87 254.845 257.29 254.622C257.713 254.399 258.187 254.287 258.713 254.287C259.242 254.287 259.71 254.399 260.118 254.622C260.527 254.845 260.847 255.147 261.079 255.525C261.311 255.904 261.427 256.326 261.427 256.79C261.427 257.122 261.367 257.446 261.246 257.763C261.129 258.078 260.923 258.429 260.629 258.816C260.339 259.201 259.935 259.671 259.418 260.226L257.391 262.394V262.464H261.585V263.434H255.893ZM267.092 263.557C266.429 263.557 265.863 263.376 265.396 263.015C264.929 262.651 264.572 262.124 264.326 261.433C264.079 260.74 263.956 259.903 263.956 258.922C263.956 257.947 264.079 257.114 264.326 256.424C264.575 255.731 264.934 255.202 265.401 254.838C265.871 254.471 266.434 254.287 267.092 254.287C267.75 254.287 268.313 254.471 268.78 254.838C269.25 255.202 269.608 255.731 269.855 256.424C270.104 257.114 270.229 257.947 270.229 258.922C270.229 259.903 270.106 260.74 269.859 261.433C269.612 262.124 269.256 262.651 268.789 263.015C268.322 263.376 267.756 263.557 267.092 263.557ZM267.092 262.588C267.75 262.588 268.261 262.27 268.626 261.636C268.99 261.002 269.172 260.097 269.172 258.922C269.172 258.141 269.088 257.476 268.921 256.926C268.756 256.377 268.518 255.959 268.207 255.671C267.899 255.383 267.527 255.239 267.092 255.239C266.44 255.239 265.931 255.561 265.564 256.204C265.196 256.844 265.013 257.75 265.013 258.922C265.013 259.703 265.095 260.367 265.26 260.914C265.424 261.46 265.661 261.875 265.969 262.16C266.28 262.445 266.655 262.588 267.092 262.588ZM275.473 253.595C273.81 253.595 272.582 254.613 272.582 256.089C272.582 257.553 273.81 258.57 275.473 258.57C277.148 258.57 278.376 257.553 278.376 256.089C278.376 254.613 277.148 253.595 275.473 253.595ZM275.473 254.439C276.565 254.439 277.371 255.121 277.371 256.089C277.371 257.057 276.565 257.727 275.473 257.727C274.394 257.727 273.575 257.057 273.575 256.089C273.575 255.121 274.394 254.439 275.473 254.439ZM280.485 253.186V258.93H281.527V253.186H280.485ZM274.269 259.476V260.307H280.51V261.436H274.294V263.893H275.299V262.205H281.527V259.476H274.269ZM274.294 263.434V264.252H281.899V263.434H274.294Z" fill="#615E83"/>
<path d="M336.262 263.434V262.641L339.24 259.38C339.59 258.999 339.878 258.667 340.104 258.385C340.33 258.1 340.497 257.833 340.606 257.583C340.718 257.33 340.773 257.066 340.773 256.79C340.773 256.473 340.697 256.198 340.544 255.966C340.394 255.734 340.189 255.555 339.927 255.428C339.666 255.302 339.372 255.239 339.046 255.239C338.7 255.239 338.397 255.311 338.139 255.455C337.883 255.596 337.685 255.794 337.544 256.05C337.406 256.305 337.337 256.605 337.337 256.948H336.297C336.297 256.42 336.419 255.956 336.663 255.556C336.907 255.157 337.239 254.845 337.659 254.622C338.081 254.399 338.556 254.287 339.082 254.287C339.61 254.287 340.079 254.399 340.487 254.622C340.895 254.845 341.215 255.147 341.447 255.525C341.679 255.904 341.795 256.326 341.795 256.79C341.795 257.122 341.735 257.446 341.615 257.763C341.497 258.078 341.292 258.429 340.998 258.816C340.707 259.201 340.303 259.671 339.786 260.226L337.76 262.394V262.464H341.954V263.434H336.262ZM347.338 263.557C346.821 263.557 346.355 263.454 345.941 263.249C345.527 263.043 345.195 262.761 344.945 262.403C344.696 262.044 344.559 261.636 344.536 261.178H345.593C345.634 261.586 345.819 261.924 346.148 262.191C346.48 262.456 346.876 262.588 347.338 262.588C347.708 262.588 348.037 262.501 348.324 262.328C348.615 262.154 348.843 261.917 349.007 261.614C349.175 261.309 349.258 260.963 349.258 260.579C349.258 260.185 349.172 259.834 348.999 259.526C348.828 259.214 348.593 258.969 348.294 258.79C347.994 258.611 347.652 258.52 347.267 258.517C346.991 258.514 346.708 258.557 346.417 258.645C346.126 258.73 345.887 258.84 345.699 258.975L344.677 258.852L345.223 254.411H349.911V255.38H346.139L345.822 258.041H345.875C346.06 257.894 346.292 257.772 346.571 257.675C346.85 257.578 347.141 257.53 347.443 257.53C347.996 257.53 348.487 257.662 348.919 257.927C349.354 258.188 349.695 258.546 349.941 259.001C350.191 259.457 350.316 259.977 350.316 260.561C350.316 261.137 350.187 261.651 349.928 262.103C349.673 262.552 349.32 262.908 348.871 263.169C348.421 263.428 347.91 263.557 347.338 263.557ZM355.636 253.595C353.973 253.595 352.745 254.613 352.745 256.089C352.745 257.553 353.973 258.57 355.636 258.57C357.31 258.57 358.539 257.553 358.539 256.089C358.539 254.613 357.31 253.595 355.636 253.595ZM355.636 254.439C356.727 254.439 357.534 255.121 357.534 256.089C357.534 257.057 356.727 257.727 355.636 257.727C354.556 257.727 353.737 257.057 353.737 256.089C353.737 255.121 354.556 254.439 355.636 254.439ZM360.648 253.186V258.93H361.69V253.186H360.648ZM354.432 259.476V260.307H360.672V261.436H354.457V263.893H355.462V262.205H361.69V259.476H354.432ZM354.457 263.434V264.252H362.062V263.434H354.457Z" fill="#615E83"/>
<path d="M419.276 263.557C418.694 263.557 418.176 263.457 417.72 263.257C417.268 263.058 416.908 262.78 416.641 262.425C416.377 262.066 416.233 261.651 416.209 261.178H417.319C417.343 261.469 417.443 261.72 417.619 261.931C417.795 262.14 418.026 262.301 418.311 262.416C418.596 262.53 418.911 262.588 419.258 262.588C419.646 262.588 419.989 262.52 420.289 262.385C420.588 262.25 420.823 262.062 420.994 261.821C421.164 261.58 421.249 261.301 421.249 260.984C421.249 260.652 421.167 260.36 421.003 260.107C420.838 259.852 420.597 259.652 420.28 259.508C419.963 259.364 419.575 259.292 419.117 259.292H418.394V258.323H419.117C419.475 258.323 419.79 258.258 420.06 258.129C420.333 258 420.546 257.818 420.699 257.583C420.854 257.348 420.932 257.072 420.932 256.755C420.932 256.449 420.865 256.183 420.729 255.957C420.594 255.731 420.403 255.555 420.157 255.428C419.913 255.302 419.625 255.239 419.293 255.239C418.982 255.239 418.688 255.296 418.412 255.411C418.139 255.522 417.916 255.685 417.742 255.9C417.569 256.111 417.475 256.367 417.46 256.666H416.403C416.421 256.194 416.563 255.779 416.83 255.424C417.098 255.066 417.447 254.787 417.879 254.587C418.314 254.387 418.791 254.287 419.311 254.287C419.869 254.287 420.348 254.4 420.747 254.627C421.146 254.85 421.453 255.145 421.668 255.512C421.882 255.879 421.989 256.276 421.989 256.702C421.989 257.21 421.856 257.643 421.589 258.001C421.324 258.36 420.964 258.608 420.509 258.746V258.816C421.079 258.91 421.524 259.153 421.844 259.543C422.164 259.931 422.324 260.411 422.324 260.984C422.324 261.475 422.191 261.915 421.923 262.306C421.659 262.693 421.298 262.999 420.84 263.222C420.381 263.445 419.86 263.557 419.276 263.557ZM427.814 263.557C427.15 263.557 426.584 263.376 426.117 263.015C425.65 262.651 425.294 262.124 425.047 261.433C424.8 260.74 424.677 259.903 424.677 258.922C424.677 257.947 424.8 257.114 425.047 256.424C425.296 255.731 425.655 255.202 426.122 254.838C426.592 254.471 427.156 254.287 427.814 254.287C428.471 254.287 429.034 254.471 429.501 254.838C429.971 255.202 430.329 255.731 430.576 256.424C430.826 257.114 430.95 257.947 430.95 258.922C430.95 259.903 430.827 260.74 430.58 261.433C430.334 262.124 429.977 262.651 429.51 263.015C429.043 263.376 428.477 263.557 427.814 263.557ZM427.814 262.588C428.471 262.588 428.983 262.27 429.347 261.636C429.711 261.002 429.893 260.097 429.893 258.922C429.893 258.141 429.809 257.476 429.642 256.926C429.477 256.377 429.24 255.959 428.928 255.671C428.62 255.383 428.248 255.239 427.814 255.239C427.162 255.239 426.652 255.561 426.285 256.204C425.918 256.844 425.734 257.75 425.734 258.922C425.734 259.703 425.816 260.367 425.981 260.914C426.145 261.46 426.382 261.875 426.69 262.16C427.001 262.445 427.376 262.588 427.814 262.588ZM436.194 253.595C434.532 253.595 433.303 254.613 433.303 256.089C433.303 257.553 434.532 258.57 436.194 258.57C437.869 258.57 439.097 257.553 439.097 256.089C439.097 254.613 437.869 253.595 436.194 253.595ZM436.194 254.439C437.286 254.439 438.092 255.121 438.092 256.089C438.092 257.057 437.286 257.727 436.194 257.727C435.115 257.727 434.296 257.057 434.296 256.089C434.296 255.121 435.115 254.439 436.194 254.439ZM441.206 253.186V258.93H442.248V253.186H441.206ZM434.991 259.476V260.307H441.231V261.436H435.015V263.893H436.02V262.205H442.248V259.476H434.991ZM435.015 263.434V264.252H442.621V263.434H435.015Z" fill="#615E83"/>
<line x1="118.347" y1="205.513" x2="118.347" y2="1.25137" stroke="#E5E5EF" stroke-width="1.32925" stroke-linecap="round" stroke-dasharray="3.54 6.2"/>
<line x1="216.179" y1="205.513" x2="216.179" y2="1.25137" stroke="#E5E5EF" stroke-width="1.32925" stroke-linecap="round" stroke-dasharray="3.54 6.2"/>
<line x1="314.011" y1="205.513" x2="314.011" y2="1.25137" stroke="#E5E5EF" stroke-width="1.32925" stroke-linecap="round" stroke-dasharray="3.54 6.2"/>
<path opacity="0.33" d="M173.746 78.6539C171.207 87.1731 169.84 88.3348 165.542 91.2391C160.19 94.8567 150.364 110.884 144.056 106.535C135.444 100.596 133.542 113.886 125.696 115.442C99.5282 120.629 90.7865 64.0978 26.2734 125.123V208.271H474.746V109.827C451.398 109.827 426.85 66.8662 418.492 99.1776C415.555 110.531 405.305 132.475 395.834 113.699C387.651 97.4763 363.783 100.112 355.206 83.1071C307.199 -12.0655 224.079 107.663 199.529 94.1433C192.498 90.2709 190.935 91.2391 186.443 77.4921C181.95 63.745 176.285 70.1346 173.746 78.6539Z" fill="url(#paint0_linear_1420_19917)"/>
<path d="M26.2734 125.123C90.7865 64.0978 99.5282 120.629 125.696 115.442C133.542 113.886 135.444 100.596 144.056 106.535C150.364 110.884 160.19 94.8567 165.542 91.2391C169.84 88.3348 171.207 87.1731 173.746 78.6539C176.285 70.1346 181.95 63.745 186.443 77.4921C190.935 91.2391 192.498 90.2709 199.53 94.1433C224.079 107.663 307.199 -12.0655 355.206 83.1071C363.783 100.112 387.651 97.4763 395.834 113.699C405.305 132.475 415.555 110.531 418.492 99.1776C426.85 66.8662 451.398 109.827 474.746 109.827" stroke="url(#paint1_linear_1420_19917)" stroke-width="3.54468" stroke-linecap="round"/>
<line x1="145.999" y1="107.515" x2="145.999" y2="205.29" stroke="#9291A5" stroke-width="1.77234" stroke-linecap="round" stroke-dasharray="6.2 6.2"/>
<g filter="url(#filter0_d_1420_19917)">
<ellipse cx="146.172" cy="106.629" rx="9.60942" ry="9.60938" fill="#EB7805"/>
<path d="M154.009 106.629C154.009 110.957 150.5 114.466 146.172 114.466C141.844 114.466 138.335 110.957 138.335 106.629C138.335 102.301 141.844 98.7919 146.172 98.7919C150.5 98.7919 154.009 102.301 154.009 106.629Z" stroke="white" stroke-width="3.54468"/>
</g>
<g filter="url(#filter1_d_1420_19917)">
<path fill-rule="evenodd" clip-rule="evenodd" d="M124.493 45.7676C120.577 45.7676 117.403 48.9416 117.403 52.8569L117.403 75.8973C117.403 79.8126 120.577 82.9866 124.493 82.9866L139.054 82.9866C139.065 82.9997 139.077 83.0127 139.089 83.0257L144.868 89.354C145.571 90.1235 146.783 90.1235 147.486 89.354L153.265 83.0257C153.277 83.0127 153.289 82.9997 153.3 82.9866L167.868 82.9866C171.783 82.9866 174.957 79.8126 174.957 75.8973L174.957 52.8569C174.957 48.9416 171.783 45.7676 167.868 45.7676L124.493 45.7676Z" fill="white"/>
</g>
<path d="M136.999 69.5433C136.368 69.5433 135.801 69.4225 135.297 69.1808C134.797 68.9358 134.397 68.6001 134.099 68.1738C133.8 67.7475 133.641 67.2608 133.62 66.7136H135.131C135.168 67.1567 135.364 67.5209 135.72 67.8062C136.076 68.0916 136.502 68.2342 136.999 68.2342C137.395 68.2342 137.746 68.1436 138.051 67.9623C138.36 67.7777 138.602 67.5243 138.776 67.202C138.954 66.8798 139.043 66.5122 139.043 66.0993C139.043 65.6798 138.952 65.3055 138.771 64.9765C138.59 64.6476 138.34 64.3891 138.021 64.2011C137.705 64.0132 137.343 63.9175 136.933 63.9141C136.621 63.9141 136.307 63.9678 135.992 64.0753C135.676 64.1827 135.421 64.3237 135.227 64.4982L133.802 64.2867L134.381 59.0906H140.05V60.4248H135.675L135.347 63.3099H135.408C135.609 63.1152 135.876 62.9524 136.208 62.8215C136.544 62.6906 136.903 62.6252 137.286 62.6252C137.914 62.6252 138.472 62.7745 138.963 63.0733C139.456 63.372 139.844 63.7799 140.126 64.2968C140.411 64.8104 140.552 65.4012 140.549 66.0691C140.552 66.7371 140.401 67.3329 140.095 67.8566C139.793 68.3802 139.374 68.7931 138.837 69.0952C138.303 69.394 137.69 69.5433 136.999 69.5433ZM142.735 69.4023L147.236 60.5004V60.4248H142.03V59.0906H148.848V60.4702L144.361 69.4023H142.735ZM149.551 67.3883V66.1296L154.007 59.0906H154.999V60.9435H154.37L151.183 65.9886V66.0691H157.29V67.3883H149.551ZM154.44 69.4023V67.0057L154.45 66.4317V59.0906H155.926V69.4023H154.44Z" fill="#1E1B39"/>
<defs>
<filter id="filter0_d_1420_19917" x="129.473" y="97.0195" width="33.3975" height="33.3975" filterUnits="userSpaceOnUse" color-interpolation-filters="sRGB">
<feFlood flood-opacity="0" result="BackgroundImageFix"/>
<feColorMatrix in="SourceAlpha" type="matrix" values="0 0 0 0 0 0 0 0 0 0 0 0 0 0 0 0 0 0 127 0" result="hardAlpha"/>
<feOffset dy="7.08936"/>
<feGaussianBlur stdDeviation="3.54468"/>
<feComposite in2="hardAlpha" operator="out"/>
<feColorMatrix type="matrix" values="0 0 0 0 0.0509804 0 0 0 0 0.0392157 0 0 0 0 0.172549 0 0 0 0.08 0"/>
<feBlend mode="normal" in2="BackgroundImageFix" result="effect1_dropShadow_1420_19917"/>
<feBlend mode="normal" in="SourceGraphic" in2="effect1_dropShadow_1420_19917" result="shape"/>
</filter>
<filter id="filter1_d_1420_19917" x="103.224" y="33.3612" width="85.9121" height="72.5215" filterUnits="userSpaceOnUse" color-interpolation-filters="sRGB">
<feFlood flood-opacity="0" result="BackgroundImageFix"/>
<feColorMatrix in="SourceAlpha" type="matrix" values="0 0 0 0 0 0 0 0 0 0 0 0 0 0 0 0 0 0 127 0" result="hardAlpha"/>
<feOffset dy="1.77234"/>
<feGaussianBlur stdDeviation="7.08936"/>
<feComposite in2="hardAlpha" operator="out"/>
<feColorMatrix type="matrix" values="0 0 0 0 0.0509804 0 0 0 0 0.0392157 0 0 0 0 0.172549 0 0 0 0.12 0"/>
<feBlend mode="normal" in2="BackgroundImageFix" result="effect1_dropShadow_1420_19917"/>
<feBlend mode="normal" in="SourceGraphic" in2="effect1_dropShadow_1420_19917" result="shape"/>
</filter>
<linearGradient id="paint0_linear_1420_19917" x1="250.51" y1="46.0352" x2="250.51" y2="192.835" gradientUnits="userSpaceOnUse">
<stop stop-color="#EB7805"/>
<stop offset="1" stop-color="white"/>
</linearGradient>
<linearGradient id="paint1_linear_1420_19917" x1="26.2734" y1="59.0995" x2="474.746" y2="59.0996" gradientUnits="userSpaceOnUse">
<stop stop-color="#EB7805"/>
<stop offset="1" stop-color="#EBAB05"/>
</linearGradient>
</defs>
</svg>
