<svg width="500" height="464" viewBox="0 0 500 464" fill="none" xmlns="http://www.w3.org/2000/svg">
<rect width="500" height="203.081" rx="11.2045" fill="#EB7805"/>
<path d="M50.7693 32.7253H47.9244V31.6311C47.9244 31.457 47.8553 31.29 47.7322 31.1669C47.609 31.0438 47.4421 30.9746 47.2679 30.9746C47.0938 30.9746 46.9268 31.0438 46.8037 31.1669C46.6806 31.29 46.6114 31.457 46.6114 31.6311V32.7253H37.4202V31.6311C37.4202 31.457 37.3511 31.29 37.228 31.1669C37.1048 31.0438 36.9378 30.9746 36.7637 30.9746C36.5896 30.9746 36.4226 31.0438 36.2995 31.1669C36.1764 31.29 36.1072 31.457 36.1072 31.6311V32.7253H33.2623C32.8561 32.7253 32.4664 32.8867 32.1791 33.174C31.8919 33.4613 31.7305 33.8509 31.7305 34.2572V51.7642C31.7305 52.1705 31.8919 52.5601 32.1791 52.8474C32.4664 53.1346 32.8561 53.296 33.2623 53.296H50.7693C51.1756 53.296 51.5652 53.1346 51.8525 52.8474C52.1398 52.5601 52.3012 52.1705 52.3012 51.7642V34.2572C52.3012 33.8509 52.1398 33.4613 51.8525 33.174C51.5652 32.8867 51.1756 32.7253 50.7693 32.7253ZM33.2623 34.0383H36.1072V35.1325C36.1072 35.3066 36.1764 35.4736 36.2995 35.5967C36.4226 35.7199 36.5896 35.789 36.7637 35.789C36.9378 35.789 37.1048 35.7199 37.228 35.5967C37.3511 35.4736 37.4202 35.3066 37.4202 35.1325V34.0383H46.6114V35.1325C46.6114 35.3066 46.6806 35.4736 46.8037 35.5967C46.9268 35.7199 47.0938 35.789 47.2679 35.789C47.4421 35.789 47.609 35.7199 47.7322 35.5967C47.8553 35.4736 47.9244 35.3066 47.9244 35.1325V34.0383H50.7693C50.8274 34.0383 50.883 34.0614 50.9241 34.1024C50.9651 34.1435 50.9882 34.1991 50.9882 34.2572V37.9774H33.0435V34.2572C33.0435 34.1991 33.0665 34.1435 33.1076 34.1024C33.1486 34.0614 33.2043 34.0383 33.2623 34.0383ZM50.7693 51.983H33.2623C33.2043 51.983 33.1486 51.96 33.1076 51.9189C33.0665 51.8779 33.0435 51.8222 33.0435 51.7642V39.2904H50.9882V51.7642C50.9882 51.8222 50.9651 51.8779 50.9241 51.9189C50.883 51.96 50.8274 51.983 50.7693 51.983Z" fill="white"/>
<path d="M86.725 31.8732H83.5491V54.2767H86.725V31.8732ZM67.9651 47.9249L69.6146 50.4361C77.6159 46.657 79.9916 41.0069 80.0039 34.212H69.1715V36.6739H76.8034C76.2987 41.647 73.7507 45.1922 67.9651 47.9249ZM106.446 31.8732H103.27V47.9249H106.446V40.7361H109.474V38.1511H106.446V31.8732ZM88.5232 43.2473L89.828 45.7338C96.549 43.8381 100.328 39.6036 100.34 33.5473H89.5079V36.1077H96.8814C96.389 39.259 93.5455 41.8563 88.5232 43.2473ZM91.8714 53.8828H107.209V51.3716H95.0473V46.2754H91.8714V53.8828ZM128.333 31.8732H125.207V34.729H121.071V32.8333H117.969V35.443H113.562V32.8333H110.411V42.7549H121.071V41.1546H125.207V43.395H128.333V31.8732ZM113.414 46.6447H125.207V47.9249H113.439V54.0305H128.998V51.5686H116.59V50.2145H128.333V44.232H113.414V46.6447ZM113.562 40.293V37.831H117.969V40.293H113.562ZM121.071 38.7912V37.0679H125.207V38.7912H121.071ZM138.823 32.8826H135.697V42.6564H146.554V32.8826H143.402V35.5415H138.823V32.8826ZM137.937 46.5463H149.68V47.9495H137.986V54.129H153.447V51.6424H141.064V50.1899H152.807V44.1089H137.937V46.5463ZM138.823 40.1945V37.9049H143.402V40.1945H138.823ZM149.656 43.2719H152.807V38.7666H155.835V36.2308H152.807V31.8732H149.656V43.2719ZM174.694 31.8978H171.568V37.6833H167.899V40.2191H171.568V48.245H174.694V31.8978ZM155.688 43.198L157.289 45.7584C159.935 44.8845 161.72 43.0749 162.717 40.8469C163.69 42.8534 165.401 44.4782 167.875 45.2907L169.426 42.8041C165.868 41.647 164.268 38.8774 164.28 36.28V35.9107H168.737V33.3996H156.575V35.9107H161.08V36.2554C161.068 39.1236 159.394 42.0409 155.688 43.198ZM159.824 53.8828H175.236V51.3716H162.976V46.8171H159.824V53.8828ZM194.638 33.1042H182.328V35.6153H186.92C186.772 38.1511 185.036 40.6499 181.467 41.6716L183.042 44.1336C185.701 43.3211 187.548 41.6347 188.557 39.5175C189.579 41.4624 191.364 43.0011 193.924 43.7397L195.5 41.3024C192.004 40.3422 190.293 37.9911 190.145 35.6153H194.638V33.1042ZM185.16 54.0305H200.153V44.9706H197.026V47.0633H188.262V44.9706H185.16V54.0305ZM188.262 51.5193V49.5006H197.026V51.5193H188.262ZM197.001 44.0351H200.153V31.8732H197.001V44.0351ZM221.597 31.8732H218.643V54.2767H221.597V31.8732ZM201.828 47.4079L203.674 49.6237C207.859 47.1371 210.149 44.0228 211.195 40.3176H213.94V43.3704H210.765V45.9062H213.94V53.2919H216.919V32.3656H213.94V37.7818H211.712C211.848 36.7355 211.922 35.6522 211.922 34.5321H203.133V37.0679H208.795C208.364 41.4624 206.37 44.7244 201.828 47.4079Z" fill="white"/>
<path d="M44.2878 90.1356H37.1837V85.9804H42.3538V77.9956H30.5393V85.9804H35.7093V90.1356H28.7011V91.3994H44.2878V90.1356ZM32.0137 84.7741V79.2019H40.8985V84.7741H32.0137ZM58.5349 81.0784H48.4437V78.4168H58.3625V77.1722H46.931V82.3039H58.5349V81.0784ZM44.863 84.9081H49.133V86.6697H46.7395V87.8186H56.9072V89.3505H46.7778V93.3908H58.8987V92.1844H48.2714V90.4611H58.3817V86.6697H56.2371V84.9081H60.3731V83.6826H44.863V84.9081ZM50.6266 86.6697V84.9081H54.7435V86.6697H50.6266ZM80.6718 84.9847H76.823V82.5816C78.1634 82.0454 78.9197 81.1837 78.9293 80.0444C78.9197 78.0434 76.6219 76.8945 72.9167 76.885C69.1828 76.8945 66.885 78.0434 66.885 80.0444C66.885 81.1933 67.651 82.055 69.0105 82.5816V84.9847H65.1617V86.2293H80.6718V84.9847ZM67.0382 90.5377C67.0286 92.4812 69.2211 93.544 72.9167 93.544C76.5645 93.544 78.757 92.4812 78.7761 90.5377C78.757 88.5941 76.5645 87.5218 72.9167 87.5314C69.2211 87.5218 67.0286 88.5941 67.0382 90.5377ZM68.436 80.0444C68.4265 78.8189 70.1307 78.0722 72.9167 78.0722C75.6741 78.0722 77.3879 78.8189 77.3974 80.0444C77.3879 81.2891 75.6741 82.0071 72.9167 82.0167C70.1307 82.0071 68.4265 81.2891 68.436 80.0444ZM68.5701 90.5377C68.5509 89.3792 70.1881 88.6994 72.9167 88.6803C75.6167 88.6994 77.2538 89.3792 77.2634 90.5377C77.2538 91.6962 75.6167 92.3855 72.9167 92.3759C70.1881 92.3855 68.5509 91.6962 68.5701 90.5377ZM70.5041 84.9847V82.9933C71.2221 83.1177 72.0263 83.1847 72.9167 83.1847C73.8071 83.1847 74.6114 83.1177 75.3294 82.9837V84.9847H70.5041ZM97.2167 79.2402H94.6317V76.5786H93.1381V86.8804H94.6317V84.1039H97.2167V82.8209H94.6317V80.504H97.2167V79.2402ZM82.0512 78.8764H88.2936V81.0401H82.0895V85.8655H83.4108C86.5798 85.8655 88.8585 85.7602 91.5871 85.3102L91.4339 84.0464C88.7819 84.4964 86.5894 84.6113 83.564 84.6017V82.2273H89.768V77.6317H82.0512V78.8764ZM83.5257 90.4802C83.5161 92.4238 85.6607 93.544 89.1744 93.544C92.6498 93.544 94.7849 92.4238 94.7849 90.4802C94.7849 88.5271 92.6498 87.3686 89.1744 87.3782C85.6607 87.3686 83.5161 88.5271 83.5257 90.4802ZM85.0001 90.4802C84.9809 89.2835 86.5607 88.5654 89.1744 88.5654C91.7498 88.5654 93.32 89.2835 93.3296 90.4802C93.32 91.6674 91.7498 92.3855 89.1744 92.3759C86.5607 92.3855 84.9809 91.6674 85.0001 90.4802Z" fill="white"/>
<path d="M390.192 78.1679H388.45L385.003 80.4657V82.2082L388.373 79.9678H388.45V92.0312H390.192V78.1679ZM394.463 90.7483H392.606L391.553 95.9566H392.97L394.463 90.7483ZM396.206 89.1973H402.927V92.0312H404.574V89.1973H406.508V87.6846H404.574V78.1679H402.449L396.206 87.7803V89.1973ZM398.064 87.6846V87.5697L402.755 80.3508H402.927V87.6846H398.064ZM412.617 77.9764C409.668 77.9477 407.773 80.0444 407.773 82.6294C407.773 85.3006 409.831 87.2059 412.311 87.2059C413.785 87.2059 415.059 86.5165 415.853 85.3676H416.045C416.026 88.7377 414.647 90.6909 412.387 90.6909C410.846 90.6909 409.898 89.7718 409.592 88.5271H407.888C408.232 90.7292 409.946 92.2227 412.387 92.2227C415.633 92.2227 417.653 89.475 417.653 84.5443C417.653 79.4413 415.001 78.0051 412.617 77.9764ZM409.458 82.6103C409.439 80.8965 410.808 79.4891 412.617 79.4891C414.446 79.4891 415.777 80.9827 415.777 82.572C415.777 84.1996 414.369 85.6932 412.56 85.6932C410.75 85.6932 409.448 84.3241 409.458 82.6103ZM424.069 92.2227C426.989 92.2515 428.894 90.1643 428.894 87.5506C428.894 84.8698 426.836 82.955 424.375 82.955C422.882 82.955 421.608 83.6347 420.813 84.7932H420.641C420.632 81.4518 422.001 79.5083 424.279 79.5083C425.821 79.5083 426.759 80.4274 427.075 81.6529H428.779C428.425 79.4795 426.721 77.9764 424.279 77.9764C421.024 77.9764 419.014 80.7242 419.014 85.6357C419.014 90.7675 421.666 92.194 424.069 92.2227ZM420.871 87.5888C420.89 85.9517 422.288 84.4773 424.107 84.4677C425.917 84.4773 427.219 85.8655 427.228 87.5697C427.219 89.293 425.859 90.7004 424.069 90.71C422.211 90.7004 420.881 89.2165 420.871 87.5888ZM431.02 92.1461C431.7 92.1366 432.255 91.5813 432.246 90.9015C432.255 90.2313 431.7 89.676 431.02 89.676C430.35 89.676 429.776 90.2313 429.795 90.9015C429.776 91.5813 430.35 92.1366 431.02 92.1461ZM438.068 92.2227C441.141 92.2227 442.912 89.6377 442.912 85.0996C442.912 80.5997 441.112 77.9764 438.068 77.9764C435.013 77.9764 433.214 80.5997 433.223 85.0996C433.214 89.6377 434.994 92.2227 438.068 92.2227ZM434.889 85.0996C434.899 81.5093 436.076 79.4795 438.068 79.47C440.059 79.4795 441.237 81.5093 441.227 85.0996C441.237 88.6899 440.069 90.6909 438.068 90.6909C436.057 90.6909 434.899 88.6899 434.889 85.0996ZM448.582 92.0312H450.228V88.1537L451.329 87.1293L455.188 92.0312H457.275L452.564 86.0857L456.949 81.6337H454.92L450.42 86.2293H450.228V78.1679H448.582V92.0312ZM460.263 92.0312H461.91L464.15 84.1039H464.303L466.563 92.0312H468.19L471.35 81.6337H469.626L467.405 89.5228H467.29L465.126 81.6337H463.365L461.163 89.5611H461.067L458.846 81.6337H457.103L460.263 92.0312Z" fill="white"/>
<path d="M42.7559 115.598H41.2623V128.045H42.7559V115.598ZM29.1032 120.96C29.0936 123.439 31.018 125.163 33.5647 125.153C36.1114 125.163 38.0167 123.439 38.0263 120.96C38.0167 118.509 36.1114 116.795 33.5647 116.785C31.018 116.795 29.0936 118.509 29.1032 120.96ZM30.5776 120.96C30.5584 119.294 31.8414 118.107 33.5647 118.107C35.2593 118.107 36.5519 119.294 36.5519 120.96C36.5519 122.654 35.2593 123.832 33.5647 123.832C31.8414 123.832 30.5584 122.654 30.5776 120.96ZM31.7648 132.238H43.292V130.974H33.2583V126.781H31.7648V132.238ZM58.9753 115.579H57.4817V121.917H53.4031V116.919H51.9287V121.362H47.065V116.919H45.5523V128.332H53.4031V123.162H57.4817V132.64H58.9753V115.579ZM47.065 127.087V122.568H51.9287V127.087H47.065ZM75.1372 115.579H73.6436V122.013H70.0437V123.257H73.6436V132.64H75.1372V115.579ZM61.81 128.523H63.1121C66.4056 128.523 68.4832 128.408 70.9629 128.006L70.7905 126.762C68.4544 127.183 66.4439 127.269 63.3227 127.279V123.162H69.0097V121.936H63.3227V118.394H69.7565V117.149H61.81V128.523ZM92.6969 124.004H88.8481V121.601C90.1885 121.065 90.9449 120.203 90.9544 119.064C90.9449 117.063 88.6471 115.914 84.9419 115.904C81.208 115.914 78.9102 117.063 78.9102 119.064C78.9102 120.213 79.6761 121.075 81.0356 121.601V124.004H77.1868V125.249H92.6969V124.004ZM79.0633 129.557C79.0538 131.501 81.2462 132.563 84.9419 132.563C88.5896 132.563 90.7821 131.501 90.8012 129.557C90.7821 127.614 88.5896 126.541 84.9419 126.551C81.2462 126.541 79.0538 127.614 79.0633 129.557ZM80.4612 119.064C80.4516 117.838 82.1558 117.092 84.9419 117.092C87.6992 117.092 89.413 117.838 89.4226 119.064C89.413 120.309 87.6992 121.027 84.9419 121.036C82.1558 121.027 80.4516 120.309 80.4612 119.064ZM80.5952 129.557C80.5761 128.399 82.2132 127.719 84.9419 127.7C87.6418 127.719 89.279 128.399 89.2885 129.557C89.279 130.716 87.6418 131.405 84.9419 131.395C82.2132 131.405 80.5761 130.716 80.5952 129.557ZM82.5292 124.004V122.013C83.2472 122.137 84.0515 122.204 84.9419 122.204C85.8323 122.204 86.6365 122.137 87.3546 122.003V124.004H82.5292ZM109.242 118.26H106.657V115.598H105.163V125.9H106.657V123.123H109.242V121.84H106.657V119.524H109.242V118.26ZM94.0764 117.896H100.319V120.06H94.1147V124.885H95.4359C98.6049 124.885 100.884 124.78 103.612 124.33L103.459 123.066C100.807 123.516 98.6145 123.631 95.5891 123.621V121.247H101.793V116.651H94.0764V117.896ZM95.5508 129.5C95.5412 131.443 97.6858 132.563 101.2 132.563C104.675 132.563 106.81 131.443 106.81 129.5C106.81 127.547 104.675 126.388 101.2 126.398C97.6858 126.388 95.5412 127.547 95.5508 129.5ZM97.0252 129.5C97.0061 128.303 98.5858 127.585 101.2 127.585C103.775 127.585 105.345 128.303 105.355 129.5C105.345 130.687 103.775 131.405 101.2 131.395C98.5858 131.405 97.0061 130.687 97.0252 129.5Z" fill="white"/>
<path d="M390.192 117.187H388.45L385.003 119.485V121.228L388.373 118.987H388.45V131.051H390.192V117.187ZM394.463 129.768H392.606L391.553 134.976H392.97L394.463 129.768ZM396.551 131.051H405.551V129.519H398.945V129.404L402.123 126.13C404.574 123.602 405.292 122.396 405.302 120.845C405.292 118.691 403.511 116.996 400.993 116.996C398.485 116.996 396.589 118.643 396.609 121.094H398.236C398.246 119.543 399.28 118.499 400.936 118.49C402.497 118.499 403.684 119.418 403.693 120.845C403.684 122.128 402.899 123.066 401.262 124.808L396.532 129.787L396.551 131.051ZM412.1 131.242C415.02 131.271 416.926 129.184 416.926 126.57C416.926 123.889 414.867 121.974 412.407 121.974C410.913 121.974 409.64 122.654 408.845 123.813H408.673C408.663 120.471 410.032 118.528 412.311 118.528C413.852 118.528 414.791 119.447 415.107 120.672H416.811C416.456 118.499 414.752 116.996 412.311 116.996C409.056 116.996 407.045 119.744 407.045 124.655C407.045 129.787 409.697 131.214 412.1 131.242ZM408.902 126.608C408.922 124.971 410.319 123.497 412.139 123.487C413.948 123.497 415.25 124.885 415.26 126.589C415.25 128.313 413.891 129.72 412.1 129.73C410.243 129.72 408.912 128.236 408.902 126.608ZM423.13 116.996C420.182 116.967 418.286 119.064 418.286 121.649C418.286 124.32 420.344 126.225 422.824 126.225C424.298 126.225 425.572 125.536 426.366 124.387H426.558C426.539 127.757 425.16 129.71 422.901 129.71C421.359 129.71 420.411 128.791 420.105 127.547H418.401C418.745 129.749 420.459 131.242 422.901 131.242C426.146 131.242 428.166 128.494 428.166 123.564C428.166 118.461 425.514 117.025 423.13 116.996ZM419.971 121.63C419.952 119.916 421.321 118.509 423.13 118.509C424.959 118.509 426.29 120.002 426.29 121.592C426.29 123.219 424.883 124.713 423.073 124.713C421.263 124.713 419.961 123.344 419.971 121.63ZM430.446 131.166C431.126 131.156 431.681 130.601 431.671 129.921C431.681 129.251 431.126 128.696 430.446 128.696C429.776 128.696 429.201 129.251 429.22 129.921C429.201 130.601 429.776 131.156 430.446 131.166ZM437.493 131.242C440.566 131.242 442.338 128.657 442.338 124.119C442.338 119.619 440.538 116.996 437.493 116.996C434.439 116.996 432.639 119.619 432.649 124.119C432.639 128.657 434.42 131.242 437.493 131.242ZM434.315 124.119C434.324 120.529 435.502 118.499 437.493 118.49C439.485 118.499 440.662 120.529 440.653 124.119C440.662 127.709 439.494 129.71 437.493 129.71C435.483 129.71 434.324 127.709 434.315 124.119ZM448.007 131.051H449.654V127.173L450.755 126.149L454.613 131.051H456.7L451.99 125.105L456.375 120.653H454.345L449.845 125.249H449.654V117.187H448.007V131.051ZM459.688 131.051H461.335L463.575 123.123H463.729L465.988 131.051H467.616L470.775 120.653H469.052L466.831 128.542H466.716L464.552 120.653H462.79L460.588 128.581H460.493L458.271 120.653H456.529L459.688 131.051Z" fill="white"/>
<path d="M30.9031 155.326H29.4287V162.737H37.3561V155.326H35.8625V157.777H30.9031V155.326ZM30.9031 161.511V158.945H35.8625V161.511H30.9031ZM31.152 165.417H40.5155V167.179H31.1903V171.43H42.641V170.204H32.6648V168.328H42.0091V164.211H31.152V165.417ZM40.5155 163.407H42.0091V159.558H44.575V158.294H42.0091V154.598H40.5155V163.407ZM58.9753 154.618H57.4625V159.328H53.9584V160.573H57.4625V167.102H58.9753V154.618ZM44.9396 163.694L45.7246 164.919C47.7448 164.163 49.315 162.602 50.0522 160.63C50.7894 162.392 52.2734 163.818 54.1882 164.517L54.9733 163.311C52.484 162.459 50.7798 160.324 50.7798 158.122V157.241H54.5903V155.996H45.4183V157.241H49.2671V158.122C49.2671 160.563 47.448 162.813 44.9396 163.694ZM48.0416 171.258H59.454V169.994H49.5543V165.973H48.0416V171.258ZM65.8503 155.23C63.2748 155.24 61.4174 156.791 61.427 159.003C61.4174 161.224 63.2748 162.756 65.8503 162.756C68.397 162.756 70.2448 161.224 70.2544 159.003C70.2448 156.791 68.397 155.24 65.8503 155.23ZM62.9014 159.003C62.8823 157.528 64.1365 156.485 65.8503 156.494C67.5353 156.485 68.7991 157.528 68.7991 159.003C68.7991 160.496 67.5353 161.53 65.8503 161.53C64.1365 161.53 62.8823 160.496 62.9014 159.003ZM64.012 165.379H73.5862V167.141H64.0503V171.392H75.6925V170.185H65.5247V168.27H75.0797V164.173H64.012V165.379ZM73.5862 163.349H75.0797V154.598H73.5862V163.349ZM85.7269 156.188V155.211H84.1759V156.188C84.1759 158.629 81.0643 160.659 77.991 161.09L78.6038 162.315C81.2558 161.875 83.8696 160.429 84.961 158.323C86.0525 160.41 88.6758 161.875 91.3182 162.315L91.931 161.09C88.8577 160.659 85.7365 158.591 85.7269 156.188ZM77.1868 165.456H84.1759V171.621H85.6504V165.456H92.6969V164.192H77.1868V165.456Z" fill="white"/>
<path d="M368.077 170.262C370.844 170.262 372.912 168.577 372.903 166.298C372.912 164.536 371.821 163.244 370.011 162.966V162.871C371.467 162.459 372.386 161.31 372.367 159.73C372.386 157.748 370.777 156.015 368.135 156.015C365.674 156.015 363.625 157.49 363.539 159.692H365.205C365.282 158.332 366.632 157.519 368.116 157.509C369.695 157.519 370.71 158.438 370.701 159.826C370.71 161.253 369.533 162.2 367.848 162.2H366.718V163.713H367.848C370.002 163.723 371.208 164.785 371.218 166.298C371.208 167.744 369.887 168.73 368.058 168.73C366.402 168.73 365.09 167.907 364.995 166.585H363.252C363.338 168.787 365.32 170.262 368.077 170.262ZM379.395 170.262C382.162 170.262 384.23 168.577 384.22 166.298C384.23 164.536 383.138 163.244 381.329 162.966V162.871C382.784 162.459 383.703 161.31 383.684 159.73C383.703 157.748 382.095 156.015 379.452 156.015C376.992 156.015 374.943 157.49 374.857 159.692H376.523C376.599 158.332 377.949 157.519 379.433 157.509C381.013 157.519 382.028 158.438 382.018 159.826C382.028 161.253 380.85 162.2 379.165 162.2H378.035V163.713H379.165C381.319 163.723 382.526 164.785 382.535 166.298C382.526 167.744 381.204 168.73 379.376 168.73C377.719 168.73 376.408 167.907 376.312 166.585H374.569C374.656 168.787 376.637 170.262 379.395 170.262ZM385.58 167.236H392.302V170.07H393.948V167.236H395.882V165.724H393.948V156.207H391.823L385.58 165.819V167.236ZM387.438 165.724V165.609L392.129 158.39H392.302V165.724H387.438ZM401.896 170.262C404.663 170.262 406.673 168.328 406.683 165.647C406.673 162.947 404.73 160.994 402.087 160.994C401.111 160.994 400.182 161.32 399.56 161.798H399.425L399.942 157.739H406.012V156.207H398.506L397.53 163.79H399.196C399.703 162.89 400.613 162.526 401.781 162.545C403.648 162.555 404.998 163.885 404.998 165.685C404.998 167.428 403.696 168.74 401.896 168.749C400.392 168.74 399.186 167.82 399.062 166.585H397.396C397.501 168.72 399.397 170.262 401.896 170.262ZM412.505 155.23C409.929 155.24 408.072 156.791 408.081 159.003C408.072 161.224 409.929 162.756 412.505 162.756C415.051 162.756 416.899 161.224 416.909 159.003C416.899 156.791 415.051 155.24 412.505 155.23ZM409.556 159.003C409.537 157.528 410.791 156.485 412.505 156.494C414.19 156.485 415.453 157.528 415.453 159.003C415.453 160.496 414.19 161.53 412.505 161.53C410.791 161.53 409.537 160.496 409.556 159.003ZM410.666 165.379H420.24V167.141H410.705V171.392H422.347V170.185H412.179V168.27H421.734V164.173H410.666V165.379ZM420.24 163.349H421.734V154.598H420.24V163.349ZM433.416 170.262C436.336 170.291 438.241 168.203 438.241 165.59C438.241 162.909 436.183 160.994 433.722 160.994C432.229 160.994 430.955 161.674 430.161 162.832H429.988C429.979 159.491 431.348 157.547 433.627 157.547C435.168 157.547 436.106 158.466 436.422 159.692H438.126C437.772 157.519 436.068 156.015 433.627 156.015C430.371 156.015 428.361 158.763 428.361 163.675C428.361 168.807 431.013 170.233 433.416 170.262ZM430.218 165.628C430.237 163.991 431.635 162.516 433.454 162.507C435.264 162.516 436.566 163.905 436.575 165.609C436.566 167.332 435.206 168.74 433.416 168.749C431.559 168.74 430.228 167.256 430.218 165.628ZM445.27 159.175V156.073H443.776V159.175C443.757 162.401 441.66 165.657 439.123 166.815L440.08 168.079C442.072 167.074 443.747 164.919 444.532 162.354C445.346 164.776 447.022 166.796 448.965 167.734L449.884 166.547C447.376 165.408 445.26 162.287 445.27 159.175ZM451.742 171.66H453.254V154.598H451.742V171.66ZM468.689 154.598H467.176V167.064H468.689V161.051H471.255V159.788H468.689V154.598ZM455.4 163.885L456.051 165.092C460.962 163.56 464.093 160.305 464.093 155.92H456.108V157.184H462.456C462.14 160.19 459.488 162.612 455.4 163.885ZM458.023 171.258H469.474V169.994H459.517V165.8H458.023V171.258Z" fill="white"/>
<rect y="260.504" width="500" height="203.081" rx="11.2045" fill="#A23A03"/>
<path d="M42.0154 291.844C42.984 291.844 43.9161 292.214 44.6203 292.879C45.3245 293.545 45.7476 294.454 45.8027 295.421L45.8085 295.637L45.8097 304.918L45.9031 304.999C46.9907 305.968 47.6754 307.31 47.8218 308.76L47.844 309.054L47.851 309.351C47.8512 310.312 47.6138 311.259 47.1599 312.107C46.706 312.954 46.0497 313.677 45.2494 314.209C44.449 314.742 43.5294 315.069 42.5723 315.161C41.6152 315.253 40.6502 315.106 39.7632 314.735C38.8762 314.364 38.0946 313.78 37.488 313.034C36.8813 312.288 36.4683 311.404 36.2858 310.46C36.1033 309.516 36.1568 308.541 36.4417 307.623C36.7266 306.704 37.234 305.871 37.9187 305.196L38.1288 304.997L38.221 304.918L38.2222 295.637C38.222 294.705 38.5651 293.805 39.1859 293.11C39.8068 292.414 40.6619 291.972 41.5882 291.867L41.8006 291.85L42.0154 291.844ZM42.0154 293.594C41.5026 293.594 41.0086 293.787 40.6315 294.135C40.2544 294.482 40.0218 294.959 39.9799 295.47L39.9729 295.637V305.784L39.6122 306.047C38.9232 306.548 38.4081 307.252 38.1391 308.06C37.8701 308.869 37.8606 309.741 38.112 310.555C38.3634 311.369 38.8631 312.085 39.5411 312.601C40.2191 313.117 41.0415 313.408 41.8931 313.433C42.7448 313.459 43.5831 313.217 44.2907 312.743C44.9983 312.268 45.5398 311.584 45.8393 310.786C46.1389 309.989 46.1815 309.117 45.9613 308.294C45.741 307.471 45.2689 306.737 44.6111 306.196L44.4185 306.048L44.0602 305.785L44.0578 295.637C44.0578 295.095 43.8427 294.576 43.4596 294.193C43.0766 293.81 42.5571 293.594 42.0154 293.594ZM42.0154 298.847C42.2475 298.847 42.4702 298.939 42.6343 299.103C42.7985 299.267 42.8907 299.49 42.8907 299.722V306.567C43.556 306.776 44.1245 307.217 44.4932 307.809C44.8619 308.401 45.0064 309.105 44.9006 309.795C44.7948 310.484 44.4457 311.113 43.9164 311.567C43.3872 312.021 42.7128 312.271 42.0154 312.271C41.3179 312.271 40.6435 312.021 40.1143 311.567C39.5851 311.113 39.2359 310.484 39.1301 309.795C39.0243 309.105 39.1689 308.401 39.5375 307.809C39.9062 307.217 40.4747 306.776 41.14 306.567V299.722C41.14 299.49 41.2322 299.267 41.3964 299.103C41.5606 298.939 41.7832 298.847 42.0154 298.847Z" fill="white"/>
<path d="M88.3252 303.924H79.6593V302.139C83.6845 301.794 86.2449 300.132 86.2572 297.523C86.2449 294.704 83.0075 292.943 78.1083 292.943C73.1721 292.943 69.9347 294.704 69.9347 297.523C69.9347 300.12 72.4828 301.782 76.508 302.126V303.924H67.8913V306.435H88.3252V303.924ZM70.3532 314.387H86.011V311.876H73.5045V307.838H70.3532V314.387ZM73.209 297.523C73.1844 296.181 74.9939 295.442 78.1083 295.43C81.198 295.442 83.0075 296.181 83.0075 297.523C83.0075 298.963 81.198 299.664 78.1083 299.664C74.9939 299.664 73.1844 298.963 73.209 297.523ZM106.938 302.397H94.2348V296.464H106.766V293.953H91.0836V304.884H97.3122V309.66H88.6709V312.22H109.179V309.66H100.439V304.884H106.938V302.397ZM128.333 292.377H125.207V295.233H121.071V293.337H117.969V295.947H113.562V293.337H110.411V303.259H121.071V301.659H125.207V303.899H128.333V292.377ZM113.414 307.149H125.207V308.429H113.439V314.534H128.998V312.072H116.59V310.718H128.333V304.736H113.414V307.149ZM113.562 300.797V298.335H117.969V300.797H113.562ZM121.071 299.295V297.572H125.207V299.295H121.071ZM138.823 293.386H135.697V303.16H146.554V293.386H143.402V296.045H138.823V293.386ZM137.937 307.05H149.68V308.453H137.986V314.633H153.447V312.146H141.064V310.694H152.807V304.613H137.937V307.05ZM138.823 300.698V298.409H143.402V300.698H138.823ZM149.656 303.776H152.807V299.27H155.835V296.735H152.807V292.377H149.656V303.776ZM174.694 292.402H171.568V298.187H167.899V300.723H171.568V308.749H174.694V292.402ZM155.688 303.702L157.289 306.262C159.935 305.388 161.72 303.579 162.717 301.351C163.69 303.357 165.401 304.982 167.875 305.795L169.426 303.308C165.868 302.151 164.268 299.381 164.28 296.784V296.415H168.737V293.903H156.575V296.415H161.08V296.759C161.068 299.627 159.394 302.545 155.688 303.702ZM159.824 314.387H175.236V311.876H162.976V307.321H159.824V314.387ZM194.638 293.608H182.328V296.119H186.92C186.772 298.655 185.036 301.154 181.467 302.176L183.042 304.637C185.701 303.825 187.548 302.139 188.557 300.021C189.579 301.966 191.364 303.505 193.924 304.244L195.5 301.806C192.004 300.846 190.293 298.495 190.145 296.119H194.638V293.608ZM185.16 314.534H200.153V305.475H197.026V307.567H188.262V305.475H185.16V314.534ZM188.262 312.023V310.004H197.026V312.023H188.262ZM197.001 304.539H200.153V292.377H197.001V304.539ZM221.597 292.377H218.643V314.781H221.597V292.377ZM201.828 307.912L203.674 310.128C207.859 307.641 210.149 304.527 211.195 300.821H213.94V303.874H210.765V306.41H213.94V313.796H216.919V292.869H213.94V298.286H211.712C211.848 297.239 211.922 296.156 211.922 295.036H203.133V297.572H208.795C208.364 301.966 206.37 305.228 201.828 307.912Z" fill="white"/>
<path d="M44.2878 350.639H37.1837V346.484H42.3538V338.499H30.5393V346.484H35.7093V350.639H28.7011V351.903H44.2878V350.639ZM32.0137 345.278V339.706H40.8985V345.278H32.0137ZM58.5349 341.582H48.4437V338.921H58.3625V337.676H46.931V342.808H58.5349V341.582ZM44.863 345.412H49.133V347.174H46.7395V348.323H56.9072V349.854H46.7778V353.895H58.8987V352.688H48.2714V350.965H58.3817V347.174H56.2371V345.412H60.3731V344.187H44.863V345.412ZM50.6266 347.174V345.412H54.7435V347.174H50.6266ZM80.6718 345.489H76.823V343.085C78.1634 342.549 78.9197 341.688 78.9293 340.548C78.9197 338.547 76.6219 337.398 72.9167 337.389C69.1828 337.398 66.885 338.547 66.885 340.548C66.885 341.697 67.651 342.559 69.0105 343.085V345.489H65.1617V346.733H80.6718V345.489ZM67.0382 351.042C67.0286 352.985 69.2211 354.048 72.9167 354.048C76.5645 354.048 78.757 352.985 78.7761 351.042C78.757 349.098 76.5645 348.026 72.9167 348.035C69.2211 348.026 67.0286 349.098 67.0382 351.042ZM68.436 340.548C68.4265 339.323 70.1307 338.576 72.9167 338.576C75.6741 338.576 77.3879 339.323 77.3974 340.548C77.3879 341.793 75.6741 342.511 72.9167 342.521C70.1307 342.511 68.4265 341.793 68.436 340.548ZM68.5701 351.042C68.5509 349.883 70.1881 349.203 72.9167 349.184C75.6167 349.203 77.2538 349.883 77.2634 351.042C77.2538 352.2 75.6167 352.889 72.9167 352.88C70.1881 352.889 68.5509 352.2 68.5701 351.042ZM70.5041 345.489V343.497C71.2221 343.622 72.0263 343.689 72.9167 343.689C73.8071 343.689 74.6114 343.622 75.3294 343.488V345.489H70.5041ZM97.2167 339.744H94.6317V337.082H93.1381V347.384H94.6317V344.608H97.2167V343.325H94.6317V341.008H97.2167V339.744ZM82.0512 339.38H88.2936V341.544H82.0895V346.369H83.4108C86.5798 346.369 88.8585 346.264 91.5871 345.814L91.4339 344.55C88.7819 345 86.5894 345.115 83.564 345.106V342.731H89.768V338.136H82.0512V339.38ZM83.5257 350.984C83.5161 352.928 85.6607 354.048 89.1744 354.048C92.6498 354.048 94.7849 352.928 94.7849 350.984C94.7849 349.031 92.6498 347.873 89.1744 347.882C85.6607 347.873 83.5161 349.031 83.5257 350.984ZM85.0001 350.984C84.9809 349.787 86.5607 349.069 89.1744 349.069C91.7498 349.069 93.32 349.787 93.3296 350.984C93.32 352.171 91.7498 352.889 89.1744 352.88C86.5607 352.889 84.9809 352.171 85.0001 350.984Z" fill="white"/>
<path d="M390.192 338.672H388.45L385.003 340.97V342.712L388.373 340.472H388.45V352.535H390.192V338.672ZM394.463 351.252H392.606L391.553 356.461H392.97L394.463 351.252ZM396.206 349.701H402.927V352.535H404.574V349.701H406.508V348.188H404.574V338.672H402.449L396.206 348.284V349.701ZM398.064 348.188V348.074L402.755 340.855H402.927V348.188H398.064ZM412.617 338.48C409.668 338.452 407.773 340.548 407.773 343.133C407.773 345.805 409.831 347.71 412.311 347.71C413.785 347.71 415.059 347.02 415.853 345.872H416.045C416.026 349.242 414.647 351.195 412.387 351.195C410.846 351.195 409.898 350.276 409.592 349.031H407.888C408.232 351.233 409.946 352.727 412.387 352.727C415.633 352.727 417.653 349.979 417.653 345.048C417.653 339.945 415.001 338.509 412.617 338.48ZM409.458 343.114C409.439 341.4 410.808 339.993 412.617 339.993C414.446 339.993 415.777 341.487 415.777 343.076C415.777 344.704 414.369 346.197 412.56 346.197C410.75 346.197 409.448 344.828 409.458 343.114ZM424.069 352.727C426.989 352.755 428.894 350.668 428.894 348.054C428.894 345.374 426.836 343.459 424.375 343.459C422.882 343.459 421.608 344.139 420.813 345.297H420.641C420.632 341.956 422.001 340.012 424.279 340.012C425.821 340.012 426.759 340.931 427.075 342.157H428.779C428.425 339.983 426.721 338.48 424.279 338.48C421.024 338.48 419.014 341.228 419.014 346.14C419.014 351.271 421.666 352.698 424.069 352.727ZM420.871 348.093C420.89 346.456 422.288 344.981 424.107 344.972C425.917 344.981 427.219 346.369 427.228 348.074C427.219 349.797 425.859 351.204 424.069 351.214C422.211 351.204 420.881 349.72 420.871 348.093ZM431.02 352.65C431.7 352.64 432.255 352.085 432.246 351.405C432.255 350.735 431.7 350.18 431.02 350.18C430.35 350.18 429.776 350.735 429.795 351.405C429.776 352.085 430.35 352.64 431.02 352.65ZM438.068 352.727C441.141 352.727 442.912 350.142 442.912 345.603C442.912 341.104 441.112 338.48 438.068 338.48C435.013 338.48 433.214 341.104 433.223 345.603C433.214 350.142 434.994 352.727 438.068 352.727ZM434.889 345.603C434.899 342.013 436.076 339.983 438.068 339.974C440.059 339.983 441.237 342.013 441.227 345.603C441.237 349.194 440.069 351.195 438.068 351.195C436.057 351.195 434.899 349.194 434.889 345.603ZM448.582 352.535H450.228V348.658L451.329 347.633L455.188 352.535H457.275L452.564 346.59L456.949 342.138H454.92L450.42 346.733H450.228V338.672H448.582V352.535ZM460.263 352.535H461.91L464.15 344.608H464.303L466.563 352.535H468.19L471.35 342.138H469.626L467.405 350.027H467.29L465.126 342.138H463.365L461.163 350.065H461.067L458.846 342.138H457.103L460.263 352.535Z" fill="white"/>
<path d="M42.7559 376.102H41.2623V388.548H42.7559V376.102ZM29.1032 381.464C29.0936 383.943 31.018 385.667 33.5647 385.657C36.1114 385.667 38.0167 383.943 38.0263 381.464C38.0167 379.013 36.1114 377.299 33.5647 377.289C31.018 377.299 29.0936 379.013 29.1032 381.464ZM30.5776 381.464C30.5584 379.798 31.8414 378.61 33.5647 378.61C35.2593 378.61 36.5519 379.798 36.5519 381.464C36.5519 383.158 35.2593 384.336 33.5647 384.336C31.8414 384.336 30.5584 383.158 30.5776 381.464ZM31.7648 392.742H43.292V391.478H33.2583V387.285H31.7648V392.742ZM58.9753 376.083H57.4817V382.421H53.4031V377.423H51.9287V381.866H47.065V377.423H45.5523V388.836H53.4031V383.666H57.4817V393.144H58.9753V376.083ZM47.065 387.591V383.072H51.9287V387.591H47.065ZM75.1372 376.083H73.6436V382.517H70.0437V383.761H73.6436V393.144H75.1372V376.083ZM61.81 389.027H63.1121C66.4056 389.027 68.4832 388.912 70.9629 388.51L70.7905 387.265C68.4544 387.687 66.4439 387.773 63.3227 387.782V383.666H69.0097V382.44H63.3227V378.898H69.7565V377.653H61.81V389.027ZM92.6969 384.508H88.8481V382.105C90.1885 381.569 90.9449 380.707 90.9544 379.568C90.9449 377.567 88.6471 376.418 84.9419 376.408C81.208 376.418 78.9102 377.567 78.9102 379.568C78.9102 380.717 79.6761 381.578 81.0356 382.105V384.508H77.1868V385.753H92.6969V384.508ZM79.0633 390.061C79.0538 392.005 81.2462 393.067 84.9419 393.067C88.5896 393.067 90.7821 392.005 90.8012 390.061C90.7821 388.118 88.5896 387.045 84.9419 387.055C81.2462 387.045 79.0538 388.118 79.0633 390.061ZM80.4612 379.568C80.4516 378.342 82.1558 377.596 84.9419 377.596C87.6992 377.596 89.413 378.342 89.4226 379.568C89.413 380.812 87.6992 381.531 84.9419 381.54C82.1558 381.531 80.4516 380.812 80.4612 379.568ZM80.5952 390.061C80.5761 388.903 82.2132 388.223 84.9419 388.204C87.6418 388.223 89.279 388.903 89.2885 390.061C89.279 391.22 87.6418 391.909 84.9419 391.899C82.2132 391.909 80.5761 391.22 80.5952 390.061ZM82.5292 384.508V382.517C83.2472 382.641 84.0515 382.708 84.9419 382.708C85.8323 382.708 86.6365 382.641 87.3546 382.507V384.508H82.5292ZM109.242 378.764H106.657V376.102H105.163V386.404H106.657V383.627H109.242V382.344H106.657V380.027H109.242V378.764ZM94.0764 378.4H100.319V380.564H94.1147V385.389H95.4359C98.6049 385.389 100.884 385.284 103.612 384.834L103.459 383.57C100.807 384.02 98.6145 384.135 95.5891 384.125V381.751H101.793V377.155H94.0764V378.4ZM95.5508 390.004C95.5412 391.947 97.6858 393.067 101.2 393.067C104.675 393.067 106.81 391.947 106.81 390.004C106.81 388.051 104.675 386.892 101.2 386.902C97.6858 386.892 95.5412 388.051 95.5508 390.004ZM97.0252 390.004C97.0061 388.807 98.5858 388.089 101.2 388.089C103.775 388.089 105.345 388.807 105.355 390.004C105.345 391.191 103.775 391.909 101.2 391.899C98.5858 391.909 97.0061 391.191 97.0252 390.004Z" fill="white"/>
<path d="M390.192 377.691H388.45L385.003 379.989V381.732L388.373 379.491H388.45V391.555H390.192V377.691ZM394.463 390.272H392.606L391.553 395.48H392.97L394.463 390.272ZM396.551 391.555H405.551V390.023H398.945V389.908L402.123 386.634C404.574 384.106 405.292 382.9 405.302 381.349C405.292 379.194 403.511 377.5 400.993 377.5C398.485 377.5 396.589 379.147 396.609 381.598H398.236C398.246 380.047 399.28 379.003 400.936 378.993C402.497 379.003 403.684 379.922 403.693 381.349C403.684 382.632 402.899 383.57 401.262 385.312L396.532 390.291L396.551 391.555ZM412.1 391.746C415.02 391.775 416.926 389.688 416.926 387.074C416.926 384.393 414.867 382.478 412.407 382.478C410.913 382.478 409.64 383.158 408.845 384.317H408.673C408.663 380.975 410.032 379.032 412.311 379.032C413.852 379.032 414.791 379.951 415.107 381.176H416.811C416.456 379.003 414.752 377.5 412.311 377.5C409.056 377.5 407.045 380.248 407.045 385.159C407.045 390.291 409.697 391.717 412.1 391.746ZM408.902 387.112C408.922 385.475 410.319 384.001 412.139 383.991C413.948 384.001 415.25 385.389 415.26 387.093C415.25 388.816 413.891 390.224 412.1 390.233C410.243 390.224 408.912 388.74 408.902 387.112ZM423.13 377.5C420.182 377.471 418.286 379.568 418.286 382.153C418.286 384.824 420.344 386.729 422.824 386.729C424.298 386.729 425.572 386.04 426.366 384.891H426.558C426.539 388.261 425.16 390.214 422.901 390.214C421.359 390.214 420.411 389.295 420.105 388.051H418.401C418.745 390.253 420.459 391.746 422.901 391.746C426.146 391.746 428.166 388.998 428.166 384.068C428.166 378.965 425.514 377.529 423.13 377.5ZM419.971 382.134C419.952 380.42 421.321 379.013 423.13 379.013C424.959 379.013 426.29 380.506 426.29 382.095C426.29 383.723 424.883 385.217 423.073 385.217C421.263 385.217 419.961 383.848 419.971 382.134ZM430.446 391.67C431.126 391.66 431.681 391.105 431.671 390.425C431.681 389.755 431.126 389.199 430.446 389.199C429.776 389.199 429.201 389.755 429.22 390.425C429.201 391.105 429.776 391.66 430.446 391.67ZM437.493 391.746C440.566 391.746 442.338 389.161 442.338 384.623C442.338 380.123 440.538 377.5 437.493 377.5C434.439 377.5 432.639 380.123 432.649 384.623C432.639 389.161 434.42 391.746 437.493 391.746ZM434.315 384.623C434.324 381.033 435.502 379.003 437.493 378.993C439.485 379.003 440.662 381.033 440.653 384.623C440.662 388.213 439.494 390.214 437.493 390.214C435.483 390.214 434.324 388.213 434.315 384.623ZM448.007 391.555H449.654V387.677L450.755 386.653L454.613 391.555H456.7L451.99 385.609L456.375 381.157H454.345L449.845 385.753H449.654V377.691H448.007V391.555ZM459.688 391.555H461.335L463.575 383.627H463.729L465.988 391.555H467.616L470.775 381.157H469.052L466.831 389.046H466.716L464.552 381.157H462.79L460.588 389.085H460.493L458.271 381.157H456.529L459.688 391.555Z" fill="white"/>
<path d="M30.9031 415.83H29.4287V423.24H37.3561V415.83H35.8625V418.281H30.9031V415.83ZM30.9031 422.015V419.449H35.8625V422.015H30.9031ZM31.152 425.921H40.5155V427.683H31.1903V431.934H42.641V430.708H32.6648V428.832H42.0091V424.715H31.152V425.921ZM40.5155 423.911H42.0091V420.062H44.575V418.798H42.0091V415.102H40.5155V423.911ZM58.9753 415.122H57.4625V419.832H53.9584V421.077H57.4625V427.606H58.9753V415.122ZM44.9396 424.198L45.7246 425.423C47.7448 424.667 49.315 423.106 50.0522 421.134C50.7894 422.896 52.2734 424.322 54.1882 425.021L54.9733 423.815C52.484 422.963 50.7798 420.828 50.7798 418.626V417.745H54.5903V416.5H45.4183V417.745H49.2671V418.626C49.2671 421.067 47.448 423.317 44.9396 424.198ZM48.0416 431.761H59.454V430.498H49.5543V426.476H48.0416V431.761ZM65.8503 415.734C63.2748 415.744 61.4174 417.295 61.427 419.507C61.4174 421.728 63.2748 423.26 65.8503 423.26C68.397 423.26 70.2448 421.728 70.2544 419.507C70.2448 417.295 68.397 415.744 65.8503 415.734ZM62.9014 419.507C62.8823 418.032 64.1365 416.989 65.8503 416.998C67.5353 416.989 68.7991 418.032 68.7991 419.507C68.7991 421 67.5353 422.034 65.8503 422.034C64.1365 422.034 62.8823 421 62.9014 419.507ZM64.012 425.883H73.5862V427.645H64.0503V431.895H75.6925V430.689H65.5247V428.774H75.0797V424.677H64.012V425.883ZM73.5862 423.853H75.0797V415.102H73.5862V423.853ZM85.7269 416.692V415.715H84.1759V416.692C84.1759 419.133 81.0643 421.163 77.991 421.594L78.6038 422.819C81.2558 422.379 83.8696 420.933 84.961 418.827C86.0525 420.914 88.6758 422.379 91.3182 422.819L91.931 421.594C88.8577 421.163 85.7365 419.095 85.7269 416.692ZM77.1868 425.959H84.1759V432.125H85.6504V425.959H92.6969V424.696H77.1868V425.959Z" fill="white"/>
<path d="M368.077 430.766C370.844 430.766 372.912 429.081 372.903 426.802C372.912 425.04 371.821 423.748 370.011 423.47V423.374C371.467 422.963 372.386 421.814 372.367 420.234C372.386 418.252 370.777 416.519 368.135 416.519C365.674 416.519 363.625 417.994 363.539 420.196H365.205C365.282 418.836 366.632 418.023 368.116 418.013C369.695 418.023 370.71 418.942 370.701 420.33C370.71 421.756 369.533 422.704 367.848 422.704H366.718V424.217H367.848C370.002 424.227 371.208 425.289 371.218 426.802C371.208 428.248 369.887 429.234 368.058 429.234C366.402 429.234 365.09 428.41 364.995 427.089H363.252C363.338 429.291 365.32 430.766 368.077 430.766ZM379.395 430.766C382.162 430.766 384.23 429.081 384.22 426.802C384.23 425.04 383.138 423.748 381.329 423.47V423.374C382.784 422.963 383.703 421.814 383.684 420.234C383.703 418.252 382.095 416.519 379.452 416.519C376.992 416.519 374.943 417.994 374.857 420.196H376.523C376.599 418.836 377.949 418.023 379.433 418.013C381.013 418.023 382.028 418.942 382.018 420.33C382.028 421.756 380.85 422.704 379.165 422.704H378.035V424.217H379.165C381.319 424.227 382.526 425.289 382.535 426.802C382.526 428.248 381.204 429.234 379.376 429.234C377.719 429.234 376.408 428.41 376.312 427.089H374.569C374.656 429.291 376.637 430.766 379.395 430.766ZM385.58 427.74H392.302V430.574H393.948V427.74H395.882V426.228H393.948V416.711H391.823L385.58 426.323V427.74ZM387.438 426.228V426.113L392.129 418.894H392.302V426.228H387.438ZM401.896 430.766C404.663 430.766 406.673 428.832 406.683 426.151C406.673 423.451 404.73 421.498 402.087 421.498C401.111 421.498 400.182 421.823 399.56 422.302H399.425L399.942 418.243H406.012V416.711H398.506L397.53 424.294H399.196C399.703 423.394 400.613 423.03 401.781 423.049C403.648 423.059 404.998 424.389 404.998 426.189C404.998 427.932 403.696 429.243 401.896 429.253C400.392 429.243 399.186 428.324 399.062 427.089H397.396C397.501 429.224 399.397 430.766 401.896 430.766ZM412.505 415.734C409.929 415.744 408.072 417.295 408.081 419.507C408.072 421.728 409.929 423.26 412.505 423.26C415.051 423.26 416.899 421.728 416.909 419.507C416.899 417.295 415.051 415.744 412.505 415.734ZM409.556 419.507C409.537 418.032 410.791 416.989 412.505 416.998C414.19 416.989 415.453 418.032 415.453 419.507C415.453 421 414.19 422.034 412.505 422.034C410.791 422.034 409.537 421 409.556 419.507ZM410.666 425.883H420.24V427.645H410.705V431.895H422.347V430.689H412.179V428.774H421.734V424.677H410.666V425.883ZM420.24 423.853H421.734V415.102H420.24V423.853ZM433.416 430.766C436.336 430.794 438.241 428.707 438.241 426.094C438.241 423.413 436.183 421.498 433.722 421.498C432.229 421.498 430.955 422.178 430.161 423.336H429.988C429.979 419.995 431.348 418.051 433.627 418.051C435.168 418.051 436.106 418.97 436.422 420.196H438.126C437.772 418.023 436.068 416.519 433.627 416.519C430.371 416.519 428.361 419.267 428.361 424.179C428.361 429.31 431.013 430.737 433.416 430.766ZM430.218 426.132C430.237 424.495 431.635 423.02 433.454 423.011C435.264 423.02 436.566 424.408 436.575 426.113C436.566 427.836 435.206 429.243 433.416 429.253C431.559 429.243 430.228 427.759 430.218 426.132ZM445.27 419.679V416.577H443.776V419.679C443.757 422.905 441.66 426.161 439.123 427.319L440.08 428.583C442.072 427.578 443.747 425.423 444.532 422.857C445.346 425.28 447.022 427.3 448.965 428.238L449.884 427.051C447.376 425.912 445.26 422.79 445.27 419.679ZM451.742 432.164H453.254V415.102H451.742V432.164ZM468.689 415.102H467.176V427.568H468.689V421.555H471.255V420.292H468.689V415.102ZM455.4 424.389L456.051 425.596C460.962 424.064 464.093 420.809 464.093 416.424H456.108V417.687H462.456C462.14 420.694 459.488 423.116 455.4 424.389ZM458.023 431.761H469.474V430.498H459.517V426.304H458.023V431.761Z" fill="white"/>
</svg>
