<svg width="842" height="456" viewBox="0 0 842 456" fill="none" xmlns="http://www.w3.org/2000/svg">
<path d="M47.5 17V171M47.5 171H356M47.5 171V239H356V171M356 171H425.5" stroke="#B5B5BB" stroke-dasharray="2 2"/>
<path d="M391.5 170H417.5M417.5 170V210.5M417.5 170V40H719M417.5 210.5H720M417.5 210.5V295M417.5 295H720M417.5 295V380H720" stroke="#B5B5BB" stroke-dasharray="2 2"/>
<path d="M741 13H720V27.5V49M720 49H741M720 49V80.5M720 125.5V180.5M720 125.5H417.5M720 125.5V80.5M720 180.5H741M720 180.5V215M720 215H741M720 215V282.5M741 443.5H720V413.5M720 413.5H741M720 413.5V382.5M720 382.5H741M720 382.5V317M720 317H741M720 317V282.5M720 282.5H741M720 80.5H741" stroke="#B5B5BB" stroke-dasharray="2 2"/>
<rect y="2" width="94" height="34" rx="4" fill="#EB7805"/>
<path d="M21.5312 12.6406V11.3125H19.5781V12.6406C19.5684 15.4922 16.5508 18.168 13.2305 18.793L14.0508 20.3359C16.8535 19.7109 19.4219 17.8848 20.5742 15.4336C21.707 17.8945 24.2754 19.7305 27.0781 20.3359L27.9375 18.793C24.5684 18.1875 21.5312 15.4922 21.5312 12.6406ZM12.6445 25.3555H28.6602V23.8125H12.6445V25.3555ZM44.3828 10.6875H31.3945V12.0938H33.9531V15.1211H31.4727V16.5469H44.3047V15.1211H41.8438V12.0938H44.3828V10.6875ZM29.9297 19.3008H45.8867V17.8359H29.9297V19.3008ZM31.8438 22.0547H42.0391V23.3633H31.8633V27.4844H44.3633V26.0781H33.6797V24.6719H43.875V20.668H31.8438V22.0547ZM35.7891 15.1211V12.0938H39.9883V15.1211H35.7891ZM54.3633 11.9961H47.7422V13.5195H52.5664V16.8008H47.7617V23.5781H48.9531C51.1309 23.5586 53.084 23.5 55.5156 23.0703L55.3594 21.5859C53.25 21.918 51.4531 22.0059 49.5586 22.0156V18.3242H54.3633V11.9961ZM56.4922 26.7617H58.1914V18.4805H60.457V27.6602H62.2344V10.1602H60.457V16.9766H58.1914V10.5117H56.4922V26.7617ZM70.9258 14.6133V11.625H69.0508V14.6133C69.0508 17.9531 67.1172 21.3027 64.3633 22.5234L65.4961 24.0859C67.5957 23.0605 69.207 20.9512 70.0176 18.3828C70.8379 20.7754 72.4297 22.7383 74.4414 23.6953L75.5547 22.2305C72.8398 21.0293 70.9062 17.8066 70.9258 14.6133ZM77.1367 27.6992H78.9922V10.1602H77.1367V27.6992Z" fill="white"/>
<rect x="0.5" y="66.5" width="93" height="33" rx="3.5" fill="white"/>
<path d="M37.6016 83.3789H30.5312V81.6895C33.793 81.4941 35.8535 80.2148 35.8633 78.1641C35.8535 75.9863 33.4023 74.6582 29.6133 74.6484C25.8047 74.6582 23.3535 75.9863 23.3633 78.1641C23.3535 80.2148 25.4141 81.4941 28.6953 81.6895V83.3789H21.6445V84.9023H37.6016V83.3789ZM23.6562 91.2891H35.8047V89.7852H25.5312V86.2109H23.6562V91.2891ZM25.2773 78.1641C25.2676 76.9141 26.9277 76.1426 29.6133 76.1523C32.2891 76.1426 33.959 76.9141 33.9492 78.1641C33.959 79.4824 32.2891 80.2051 29.6133 80.2148C26.9277 80.2051 25.2676 79.4824 25.2773 78.1641ZM54.9453 87.9492H47.8164V84.3555H53.0508V75.3516H51.2148V78.3594H42.6211V75.3516H40.7656V84.3555H45.9805V87.9492H38.9297V89.4922H54.9453V87.9492ZM42.6211 82.8516V79.8633H51.2148V82.8516H42.6211ZM70.7266 74.1602H68.8711V84.8242H70.7266V74.1602ZM57.2695 83.3203H58.7344C62.6602 83.3105 64.8672 83.2227 67.4062 82.7344L67.2305 81.2109C64.8184 81.6797 62.7188 81.8066 59.1055 81.8164V77.0117H65.5898V75.5078H57.2695V83.3203ZM58.8906 88.2812C58.8906 90.4004 61.1465 91.6504 64.8477 91.6602C68.5 91.6504 70.7754 90.4004 70.7852 88.2812C70.7754 86.1426 68.5 84.8926 64.8477 84.9023C61.1465 84.8926 58.8906 86.1426 58.8906 88.2812ZM60.7656 88.2812C60.7656 87.041 62.2598 86.3672 64.8477 86.3672C67.416 86.3672 68.959 87.041 68.9492 88.2812C68.959 89.4824 67.416 90.1758 64.8477 90.1758C62.2598 90.1758 60.7656 89.4824 60.7656 88.2812Z" fill="#464555"/>
<rect x="0.5" y="66.5" width="93" height="33" rx="3.5" stroke="#464555"/>
<path d="M6.70711 171L47 130.707L87.2929 171L47 211.293L6.70711 171Z" fill="white" stroke="#464555"/>
<path d="M34.1602 175.91H18.1445V177.473H34.1602V175.91ZM19.5117 165.363H22.168V171.203H19.5508V172.688H32.6367V171.203H30.0195V165.363H32.6953V163.84H19.5117V165.363ZM24.0039 171.203V165.363H28.2031V171.203H24.0039ZM51.4453 176.008H44.3164V172.941H49.9023V171.418H39.2188V168.859H49.4922V163.391H37.3438V164.914H47.6562V167.375H37.3828V172.941H42.4805V176.008H35.4297V177.57H51.4453V176.008ZM67.2656 162.16H65.3906V171.203H67.2656V162.16ZM53.0078 169.191L53.2227 170.676C56.2988 170.686 60.3711 170.559 63.8672 170.031L63.7891 168.684C62.998 168.781 62.1582 168.859 61.3086 168.918V164.777H62.9883V163.312H53.4766V164.777H55.1367V169.172C54.3945 169.182 53.6719 169.191 53.0078 169.191ZM55.6445 173.469H65.4297V174.992H55.7031V179.484H67.8711V178H57.5195V176.34H67.2656V172.004H55.6445V173.469ZM56.9141 169.133V164.777H59.5312V169.025C58.6523 169.074 57.7734 169.104 56.9141 169.133ZM72.8711 173.801V173.918H74.8633V173.801C74.8926 172.209 75.3516 171.506 76.5234 170.793C77.7637 170.031 78.5156 168.986 78.5156 167.414C78.5156 165.188 76.8164 163.664 74.2773 163.664C71.9531 163.664 70.0781 165.021 70 167.512H72.1094C72.1973 166.066 73.2227 165.422 74.2773 165.422C75.4492 165.422 76.3867 166.193 76.3867 167.414C76.3867 168.439 75.7617 169.162 74.9414 169.66C73.6523 170.461 72.9004 171.242 72.8711 173.801ZM72.5586 176.75C72.5488 177.512 73.1836 178.127 73.9453 178.137C74.6973 178.127 75.3223 177.512 75.332 176.75C75.3223 175.988 74.6973 175.363 73.9453 175.363C73.1836 175.363 72.5488 175.988 72.5586 176.75Z" fill="#464555"/>
<rect x="181.5" y="159.5" width="99" height="33" rx="3.5" fill="white"/>
<path d="M221.66 181.008H214.531V177.941H220.117V176.418H209.434V173.859H219.707V168.391H207.559V169.914H217.871V172.375H207.598V177.941H212.695V181.008H205.645V182.57H221.66V181.008ZM236.797 168.938H224.648V170.461H234.961V170.812C234.961 173.02 234.961 175.588 234.258 179.094L236.152 179.27C236.797 175.529 236.797 173.078 236.797 170.812V168.938ZM222.93 182.18H238.887V180.637H222.93V182.18ZM254.727 167.18H252.871V179.895H254.727V167.18ZM240.566 172.688C240.576 175.256 242.588 177.043 245.234 177.043C247.871 177.043 249.883 175.256 249.883 172.688C249.883 170.158 247.871 168.361 245.234 168.352C242.588 168.361 240.576 170.158 240.566 172.688ZM242.383 172.688C242.373 171.076 243.604 169.973 245.234 169.973C246.836 169.973 248.066 171.076 248.066 172.688C248.066 174.338 246.836 175.422 245.234 175.422C243.604 175.422 242.373 174.338 242.383 172.688ZM243.281 184.289H255.254V182.785H245.156V178.605H243.281V184.289Z" fill="#464555"/>
<rect x="181.5" y="159.5" width="99" height="33" rx="3.5" stroke="#464555"/>
<rect x="181.5" y="223.5" width="99" height="33" rx="3.5" fill="white"/>
<path d="M207.277 231.16H205.422V248.641H207.277V239.676H209.992V238.133H207.277V231.16ZM193.664 243.973L194.699 245.418C200.461 242.576 202.688 238.055 202.707 232.996H194.543V234.539H200.812C200.432 238.621 198.049 241.785 193.664 243.973ZM225.441 231.16H223.586V240.555H225.441V231.16ZM211.281 236.023C211.291 238.416 213.264 240.086 215.949 240.066C218.625 240.086 220.598 238.416 220.598 236.023C220.598 233.621 218.625 231.951 215.949 231.961C213.264 231.951 211.291 233.621 211.281 236.023ZM213.098 236.023C213.088 234.529 214.289 233.514 215.949 233.523C217.59 233.514 218.781 234.529 218.781 236.023C218.781 237.537 217.59 238.543 215.949 238.543C214.289 238.543 213.088 237.537 213.098 236.023ZM213.996 248.445H225.441V241.395H223.605V243.367H215.812V241.395H213.996V248.445ZM215.812 246.922V244.832H223.605V246.922H215.812ZM241.848 231.16H240.012V248.66H241.848V239.793H244.66V238.25H241.848V231.16ZM228.117 235.418H238.488V233.895H234.289V231.395H232.434V233.895H228.117V235.418ZM229.016 240.77C229.016 243.172 230.852 244.842 233.371 244.852C235.881 244.842 237.717 243.172 237.727 240.77C237.717 238.387 235.881 236.707 233.371 236.707C230.852 236.707 229.016 238.387 229.016 240.77ZM230.793 240.77C230.783 239.275 231.877 238.24 233.371 238.23C234.855 238.24 235.939 239.275 235.949 240.77C235.939 242.293 234.855 243.309 233.371 243.289C231.877 243.309 230.783 242.293 230.793 240.77ZM260.051 231.16H258.176V248.66H260.051V231.16ZM245.676 243.973L246.652 245.477C252.658 242.596 254.836 238.162 254.836 233.035H246.516V234.52H252.961C252.6 238.602 250.324 241.756 245.676 243.973Z" fill="#464555"/>
<rect x="181.5" y="223.5" width="99" height="33" rx="3.5" stroke="#464555"/>
<rect x="368" y="152" width="100" height="34" rx="4" fill="#EB7805"/>
<path d="M423.648 172.387H411.559V177.445H423.648V172.387ZM409.645 171.195H425.602V169.73H418.551V168.539C421.656 168.412 423.365 167.582 423.355 166.078C423.365 164.447 421.305 163.607 417.613 163.598C413.941 163.607 411.861 164.447 411.871 166.078C411.861 167.582 413.6 168.412 416.695 168.539V169.73H409.645V171.195ZM410.465 162.973H424.703V161.547H418.551V159.926H416.695V161.547H410.465V162.973ZM413.395 176.02V173.812H421.852V176.02H413.395ZM413.844 166.078C413.834 165.277 415.172 164.887 417.613 164.867C420.074 164.887 421.383 165.277 421.383 166.078C421.383 166.869 420.074 167.289 417.613 167.289C415.172 167.289 413.834 166.869 413.844 166.078Z" fill="white"/>
<rect x="555" y="27" width="100" height="34" rx="4" fill="#EB7805"/>
<path d="M610.648 47.3867H598.559V52.4453H610.648V47.3867ZM596.645 46.1953H612.602V44.7305H605.551V43.5391C608.656 43.4121 610.365 42.582 610.355 41.0781C610.365 39.4473 608.305 38.6074 604.613 38.5977C600.941 38.6074 598.861 39.4473 598.871 41.0781C598.861 42.582 600.6 43.4121 603.695 43.5391V44.7305H596.645V46.1953ZM597.465 37.9727H611.703V36.5469H605.551V34.9258H603.695V36.5469H597.465V37.9727ZM600.395 51.0195V48.8125H608.852V51.0195H600.395ZM600.844 41.0781C600.834 40.2773 602.172 39.8867 604.613 39.8672C607.074 39.8867 608.383 40.2773 608.383 41.0781C608.383 41.8691 607.074 42.2891 604.613 42.2891C602.172 42.2891 600.834 41.8691 600.844 41.0781Z" fill="white"/>
<rect x="555.5" y="111.5" width="99" height="33" rx="3.5" fill="white"/>
<path d="M585.234 119.16H583.379V122.168H579.688V123.672H583.379V128.164H585.234V119.16ZM570.586 126.758L571.582 128.242C573.652 127.529 575.146 126.064 575.908 124.18C576.68 125.85 578.135 127.168 580.059 127.832L581.035 126.387C578.398 125.547 576.797 123.477 576.797 121.25V119.727H574.961V121.25C574.951 123.711 573.32 125.889 570.586 126.758ZM573.789 130.449H583.398V131.934H573.828V136.445H585.84V134.961H575.645V133.34H585.234V128.984H573.789V130.449ZM602.422 119.16H600.566V136.699H602.422V119.16ZM588.906 132.5H597.305V120.625H595.469V125.117H590.762V120.625H588.906V132.5ZM590.762 130.977V126.582H595.469V130.977H590.762ZM611.699 122.812V122.051H615.547V120.547H605.898V122.051H609.824V122.812C609.814 125.205 608.135 127.471 605.41 128.398L606.367 129.863C608.447 129.131 610.01 127.627 610.791 125.723C611.592 127.471 613.105 128.848 615.117 129.512L616.074 128.066C613.369 127.207 611.699 125.078 611.699 122.812ZM608.281 136.289H620.254V134.785H610.156V130.742H608.281V136.289ZM617.871 131.953H619.727V119.18H617.871V131.953ZM636.25 119.141H634.395V131.816H636.25V125.762H638.809V124.219H636.25V119.141ZM623.281 128.789H624.668C628.418 128.789 630.488 128.672 632.852 128.203L632.637 126.699C630.439 127.148 628.525 127.256 625.117 127.246V122.148H631.094V120.645H623.281V128.789ZM625.156 136.289H636.992V134.785H627.012V130.508H625.156V136.289Z" fill="#464555"/>
<rect x="555.5" y="111.5" width="99" height="33" rx="3.5" stroke="#464555"/>
<rect x="555.5" y="195.5" width="99" height="33" rx="3.5" fill="white"/>
<path d="M594.215 203.16H592.379V207.301H589.098V208.824H592.379V212.691H594.215V203.16ZM579.664 211.52L580.621 212.984C582.701 212.252 584.234 210.709 584.996 208.785C585.758 210.504 587.203 211.891 589.176 212.594L590.133 211.148C587.486 210.26 585.904 208.062 585.914 205.895V205.641H589.664V204.137H580.23V205.641H584.02V205.875C584.029 208.287 582.35 210.582 579.664 211.52ZM582.828 220.445H594.215V213.473H592.379V215.484H584.664V213.473H582.828V220.445ZM584.664 218.941V216.93H592.379V218.941H584.664ZM612.926 211.852H605.816V209.293H603.98V211.852H596.93V213.375H612.926V211.852ZM597.848 208.785L598.531 210.25C601.324 209.801 603.775 208.453 604.889 206.52C606.002 208.453 608.453 209.801 611.227 210.25L611.949 208.785C608.57 208.355 605.826 206.412 605.836 204.176V203.434H603.961V204.176C603.951 206.383 601.197 208.355 597.848 208.785ZM598.707 216.383H609.059V220.66H610.934V214.918H598.707V216.383ZM627.965 203.16H626.109V213.707H627.965V209.273H630.504V207.691H627.965V203.16ZM614.234 206.422H624.664V204.938H620.387V203.023H618.531V204.938H614.234V206.422ZM615.191 210.309C615.182 212.203 616.9 213.443 619.449 213.453C621.969 213.443 623.688 212.203 623.688 210.309C623.688 208.443 621.979 207.184 619.449 207.184C616.9 207.184 615.182 208.443 615.191 210.309ZM616.793 220.445H627.965V214.625H616.793V220.445ZM616.988 210.309C616.969 209.264 617.965 208.6 619.449 208.609C620.934 208.6 621.93 209.264 621.949 210.309C621.93 211.393 620.934 212.037 619.449 212.047C617.965 212.037 616.969 211.393 616.988 210.309ZM618.609 218.941V216.09H626.129V218.941H618.609Z" fill="#464555"/>
<rect x="555.5" y="195.5" width="99" height="33" rx="3.5" stroke="#464555"/>
<rect x="555.5" y="279.5" width="99" height="33" rx="3.5" fill="white"/>
<path d="M595.66 300.949H588.531V297.355H593.766V288.352H591.93V291.359H583.336V288.352H581.48V297.355H586.695V300.949H579.645V302.492H595.66V300.949ZM583.336 295.852V292.863H591.93V295.852H583.336ZM611.09 288.84H598.609V290.344H609.234V290.559C609.225 292.658 609.225 295.139 608.551 298.527L610.426 298.723C611.08 295.139 611.08 292.717 611.09 290.559V288.84ZM596.93 302.297H612.887V300.754H604.84V294.582H603.004V300.754H596.93V302.297ZM620.523 291.613V288.625H618.648V291.613C618.639 294.855 616.832 298.225 614.117 299.523L615.289 301.027C617.311 299.982 618.834 297.854 619.605 295.334C620.377 297.727 621.881 299.699 623.863 300.695L624.996 299.211C622.32 298.01 620.523 294.816 620.523 291.613ZM623.062 294.484H626.969V304.699H628.805V287.16H626.969V292.98H623.062V294.484Z" fill="#464555"/>
<rect x="555.5" y="279.5" width="99" height="33" rx="3.5" stroke="#464555"/>
<rect x="555.5" y="363.5" width="99" height="33" rx="3.5" fill="white"/>
<path d="M588.531 372.781H580.504V384.402H581.891C585.191 384.402 587.32 384.295 589.84 383.816L589.625 382.293C587.32 382.732 585.318 382.84 582.379 382.859V374.324H588.531V372.781ZM587.535 378.953H592.398V388.699H594.254V371.16H592.398V377.41H587.535V378.953ZM612.945 384.949H605.816V381.355H611.051V372.352H609.215V375.359H600.621V372.352H598.766V381.355H603.98V384.949H596.93V386.492H612.945V384.949ZM600.621 379.852V376.863H609.215V379.852H600.621ZM628.766 371.16H626.891V388.66H628.766V371.16ZM614.391 383.973L615.367 385.477C621.373 382.596 623.551 378.162 623.551 373.035H615.23V374.52H621.676C621.314 378.602 619.039 381.756 614.391 383.973Z" fill="#464555"/>
<rect x="555.5" y="363.5" width="99" height="33" rx="3.5" stroke="#464555"/>
<rect x="742.5" y="0.5" width="99" height="25" rx="3.5" fill="white"/>
<path d="M762.201 7.43164H760.93V12.7773H766.699V7.43164H765.414V9.09961H762.201V7.43164ZM762.16 14.7734H768.791V15.8809H762.188V19.0391H770.5V18H763.459V16.8379H770.076V13.748H762.16V14.7734ZM762.201 11.7383V10.0977H765.414V11.7383H762.201ZM768.777 13.2148H770.076V10.5352H771.854V9.48242H770.076V6.91211H768.777V13.2148ZM782.764 6.92578H781.465V10.2344H779.127V11.2871H781.465V15.8945H782.764V6.92578ZM772.564 13.3379L773.234 14.3906C774.69 13.8711 775.764 12.791 776.297 11.4375C776.83 12.6543 777.849 13.6387 779.223 14.1172L779.893 13.0781C778.04 12.4629 776.933 10.9248 776.939 9.40039V8.92188H779.564V7.85547H772.961V8.92188H775.613V9.40039C775.62 11.0889 774.444 12.7021 772.564 13.3379ZM774.807 18.9023H783.092V17.8496H776.105V15.0879H774.807V18.9023ZM796.066 8.74414H794.275V6.92578H792.977V14.3223H794.275V12.4082H796.066V11.3281H794.275V9.82422H796.066V8.74414ZM785.143 8.7168H789.449V10.0977H785.156V13.6523H786.141C788.492 13.666 790.112 13.5908 792.006 13.2559L791.869 12.2031C790.085 12.5039 788.581 12.5859 786.455 12.5859V11.0957H790.721V7.66406H785.143V8.7168ZM786.195 16.8926C786.195 18.3145 787.761 19.1348 790.311 19.1348C792.826 19.1348 794.385 18.3145 794.385 16.8926C794.385 15.4707 792.826 14.623 790.311 14.623C787.761 14.623 786.195 15.4707 786.195 16.8926ZM787.467 16.8926C787.46 16.0996 788.513 15.6416 790.311 15.6484C792.081 15.6416 793.12 16.0996 793.113 16.8926C793.12 17.6924 792.081 18.1504 790.311 18.1367C788.513 18.1504 787.46 17.6924 787.467 16.8926ZM811.379 16.5645H806.416V13.666H805.117V16.5645H800.168V17.6309H811.379V16.5645ZM800.688 13.1055L801.221 14.1309C803.162 13.748 804.974 12.5791 805.76 10.9453C806.56 12.5586 808.385 13.707 810.367 14.0762L810.887 13.0508C808.556 12.6885 806.43 11.0205 806.43 9.14062V9.03125H810.408V7.96484H801.098V9.03125H805.076V9.14062C805.076 11.0205 802.964 12.7227 800.688 13.1055ZM822.398 6.91211H821.1V19.1621H822.398V6.91211ZM812.336 15.8262L812.514 16.9062C814.756 16.9131 817.723 16.8789 820.443 16.4277L820.348 15.457C819.268 15.6006 818.119 15.6826 816.984 15.7373V14.5479C818.406 14.3428 819.329 13.5088 819.336 12.3262C819.329 10.9453 818.105 10.0361 816.314 10.0293C814.544 10.0361 813.341 10.9453 813.348 12.3262C813.341 13.5225 814.271 14.3633 815.699 14.5547V15.7852C814.496 15.8125 813.348 15.8193 812.336 15.8262ZM812.596 9.41406H820.074V8.375H816.998V6.93945H815.699V8.375H812.596V9.41406ZM814.578 12.3262C814.564 11.54 815.289 11.041 816.314 11.041C817.374 11.041 818.092 11.54 818.092 12.3262C818.092 13.1055 817.374 13.5908 816.314 13.584C815.289 13.5908 814.564 13.1055 814.578 12.3262Z" fill="#464555"/>
<rect x="742.5" y="0.5" width="99" height="25" rx="3.5" stroke="#464555"/>
<rect x="742.5" y="34.5" width="99" height="25" rx="3.5" fill="white"/>
<path d="M776.596 40.9121H775.297V53.1895H776.596V40.9121ZM766.875 46.1211C766.875 48.7666 768.194 50.4346 770.047 50.4277C771.865 50.4346 773.205 48.7666 773.205 46.1211C773.205 43.5029 771.865 41.835 770.047 41.8281C768.194 41.835 766.875 43.5029 766.875 46.1211ZM768.133 46.1211C768.126 44.2002 768.905 42.9971 770.047 42.9902C771.168 42.9971 771.947 44.2002 771.947 46.1211C771.947 48.0693 771.168 49.2656 770.047 49.2656C768.905 49.2656 768.126 48.0693 768.133 46.1211ZM782.775 42.8672V41.5547H781.49V42.7578C781.477 44.5898 780.369 46.2236 778.455 46.9004L779.152 47.9395C780.581 47.4131 781.62 46.333 782.153 44.959C782.687 46.1689 783.691 47.126 785.031 47.5977L785.729 46.5723C783.903 45.9707 782.769 44.4736 782.775 42.8672ZM780.109 50.8652C780.109 52.3145 781.675 53.1416 784.225 53.1348C786.74 53.1416 788.285 52.3145 788.285 50.8652C788.285 49.4297 786.74 48.5889 784.225 48.5957C781.675 48.5889 780.109 49.4297 780.109 50.8652ZM781.408 50.8652C781.401 50.0859 782.454 49.6211 784.225 49.6211C785.981 49.6211 787.021 50.0859 787.014 50.8652C787.021 51.6719 785.981 52.1094 784.225 52.123C782.454 52.1094 781.401 51.6719 781.408 50.8652ZM786.877 48.3086H788.176V45.082H789.953V43.9883H788.176V40.9121H786.877V48.3086ZM803.693 40.9121H802.395V47.8301H803.693V44.877H805.471V43.7969H803.693V40.9121ZM794.014 46.9688L794.533 48.0078C798.184 47.0234 800.31 44.8154 800.316 41.6777H794.588V42.7441H798.908C798.669 44.6582 796.946 46.1963 794.014 46.9688ZM795.846 52.998H803.693V48.3496H795.846V52.998ZM797.145 51.959V49.4297H802.408V51.959H797.145ZM810.68 44.5215V43.2227H813.469V42.1426H806.564V43.2227H809.367V44.5215C809.354 46.6338 807.986 48.9307 806.141 49.7988L806.893 50.8242C808.321 50.127 809.47 48.6367 810.037 46.8867C810.604 48.5205 811.753 49.874 813.195 50.5098L813.906 49.498C812.02 48.6914 810.673 46.5723 810.68 44.5215ZM815.014 53.1621H816.312V40.9121H815.014V53.1621Z" fill="#464555"/>
<rect x="742.5" y="34.5" width="99" height="25" rx="3.5" stroke="#464555"/>
<rect x="742.5" y="68.5" width="99" height="25" rx="3.5" fill="white"/>
<path d="M764.137 74.9121H762.824V87.1621H764.137V74.9121ZM754.074 83.8809L754.758 84.9336C758.962 82.917 760.486 79.8135 760.486 76.2246H754.662V77.2637H759.174C758.921 80.1211 757.328 82.3291 754.074 83.8809ZM770.275 76.8672V75.5547H768.99V76.7578C768.977 78.5898 767.869 80.2236 765.955 80.9004L766.652 81.9395C768.081 81.4131 769.12 80.333 769.653 78.959C770.187 80.1689 771.191 81.126 772.531 81.5977L773.229 80.5723C771.403 79.9707 770.269 78.4736 770.275 76.8672ZM767.609 84.8652C767.609 86.3145 769.175 87.1416 771.725 87.1348C774.24 87.1416 775.785 86.3145 775.785 84.8652C775.785 83.4297 774.24 82.5889 771.725 82.5957C769.175 82.5889 767.609 83.4297 767.609 84.8652ZM768.908 84.8652C768.901 84.0859 769.954 83.6211 771.725 83.6211C773.481 83.6211 774.521 84.0859 774.514 84.8652C774.521 85.6719 773.481 86.1094 771.725 86.123C769.954 86.1094 768.901 85.6719 768.908 84.8652ZM774.377 82.3086H775.676V79.082H777.453V77.9883H775.676V74.9121H774.377V82.3086ZM788.363 74.9121H787.064V78.0293H784.781V79.0957H787.064V82.1992H788.363V74.9121ZM778.15 81.0918L778.834 82.1309C780.297 81.5908 781.37 80.4902 781.903 79.123C782.437 80.333 783.448 81.3174 784.822 81.7891L785.492 80.7637C783.64 80.1348 782.532 78.624 782.539 77.0723V76.8125H785.164V75.7598H778.561V76.8125H781.213V77.0859C781.22 78.7744 780.051 80.4287 778.15 81.0918ZM780.119 84.8516C780.112 86.3076 781.685 87.1553 784.262 87.1621C786.825 87.1553 788.397 86.3076 788.404 84.8516C788.397 83.3955 786.825 82.5479 784.262 82.541C781.685 82.5479 780.112 83.3955 780.119 84.8516ZM781.404 84.8516C781.397 84.0176 782.464 83.5459 784.262 83.5527C786.046 83.5459 787.112 84.0176 787.119 84.8516C787.112 85.6787 786.046 86.1504 784.262 86.1367C782.464 86.1504 781.397 85.6787 781.404 84.8516ZM801.461 84.5645H796.471V82.0488H800.135V75.7461H798.85V77.8516H792.834V75.7461H791.535V82.0488H795.186V84.5645H790.25V85.6445H801.461V84.5645ZM792.834 80.9961V78.9043H798.85V80.9961H792.834ZM816.979 84.5645H812.016V81.666H810.717V84.5645H805.768V85.6309H816.979V84.5645ZM806.287 81.1055L806.82 82.1309C808.762 81.748 810.573 80.5791 811.359 78.9453C812.159 80.5586 813.984 81.707 815.967 82.0762L816.486 81.0508C814.155 80.6885 812.029 79.0205 812.029 77.1406V77.0312H816.008V75.9648H806.697V77.0312H810.676V77.1406C810.676 79.0205 808.563 80.7227 806.287 81.1055ZM827.998 74.9121H826.699V87.1621H827.998V74.9121ZM817.936 83.8262L818.113 84.9062C820.355 84.9131 823.322 84.8789 826.043 84.4277L825.947 83.457C824.867 83.6006 823.719 83.6826 822.584 83.7373V82.5479C824.006 82.3428 824.929 81.5088 824.936 80.3262C824.929 78.9453 823.705 78.0361 821.914 78.0293C820.144 78.0361 818.94 78.9453 818.947 80.3262C818.94 81.5225 819.87 82.3633 821.299 82.5547V83.7852C820.096 83.8125 818.947 83.8193 817.936 83.8262ZM818.195 77.4141H825.674V76.375H822.598V74.9395H821.299V76.375H818.195V77.4141ZM820.178 80.3262C820.164 79.54 820.889 79.041 821.914 79.041C822.974 79.041 823.691 79.54 823.691 80.3262C823.691 81.1055 822.974 81.5908 821.914 81.584C820.889 81.5908 820.164 81.1055 820.178 80.3262Z" fill="#464555"/>
<rect x="742.5" y="68.5" width="99" height="25" rx="3.5" stroke="#464555"/>
<rect x="742.5" y="169.5" width="99" height="25" rx="3.5" fill="white"/>
<path d="M778.164 175.912H776.865V179.029H774.582V180.096H776.865V183.199H778.164V175.912ZM767.951 182.092L768.635 183.131C770.098 182.591 771.171 181.49 771.704 180.123C772.237 181.333 773.249 182.317 774.623 182.789L775.293 181.764C773.44 181.135 772.333 179.624 772.34 178.072V177.812H774.965V176.76H768.361V177.812H771.014V178.086C771.021 179.774 769.852 181.429 767.951 182.092ZM769.92 185.852C769.913 187.308 771.485 188.155 774.062 188.162C776.626 188.155 778.198 187.308 778.205 185.852C778.198 184.396 776.626 183.548 774.062 183.541C771.485 183.548 769.913 184.396 769.92 185.852ZM771.205 185.852C771.198 185.018 772.265 184.546 774.062 184.553C775.847 184.546 776.913 185.018 776.92 185.852C776.913 186.679 775.847 187.15 774.062 187.137C772.265 187.15 771.198 186.679 771.205 185.852ZM786.518 176.568H780.693V181.613H786.518V176.568ZM781.965 180.602V177.621H785.232V180.602H781.965ZM782.156 183.787H788.924V184.881H782.184V188.039H790.592V187H783.455V185.824H790.195V182.775H782.156V183.787ZM788.91 182.188H790.195V175.912H788.91V182.188ZM796.689 178.469V177.936H799.383V176.883H792.629V177.936H795.377V178.469C795.37 180.144 794.194 181.729 792.287 182.379L792.957 183.404C794.413 182.892 795.507 181.839 796.054 180.506C796.614 181.729 797.674 182.693 799.082 183.158L799.752 182.146C797.858 181.545 796.689 180.055 796.689 178.469ZM794.297 187.902H802.678V186.85H795.609V184.02H794.297V187.902ZM801.01 184.867H802.309V175.926H801.01V184.867ZM813.875 175.898H812.576V184.771H813.875V180.533H815.666V179.453H813.875V175.898ZM804.797 182.652H805.768C808.393 182.652 809.842 182.57 811.496 182.242L811.346 181.189C809.808 181.504 808.468 181.579 806.082 181.572V178.004H810.266V176.951H804.797V182.652ZM806.109 187.902H814.395V186.85H807.408V183.855H806.109V187.902Z" fill="#464555"/>
<rect x="742.5" y="169.5" width="99" height="25" rx="3.5" stroke="#464555"/>
<rect x="742.5" y="203.5" width="99" height="25" rx="3.5" fill="white"/>
<path d="M778.096 209.912H776.797V222.189H778.096V209.912ZM768.635 219.25H774.514V210.938H773.229V214.082H769.934V210.938H768.635V219.25ZM769.934 218.184V215.107H773.229V218.184H769.934ZM790.004 211.088H781.199V212.141H788.705V212.4C788.712 213.904 788.712 215.545 788.281 217.76L789.553 217.896C789.99 215.552 789.99 213.938 790.004 212.4V211.088ZM780.051 220.508H791.221V219.428H787.023V215.463H785.752V219.428H783.988V215.463H782.689V219.428H780.051V220.508ZM803.348 216.324H792.137V217.363H797.195V219.619H798.48V217.363H803.348V216.324ZM793.531 221.902H802.104V220.85H794.816V218.553H793.531V221.902ZM793.613 215.244H801.871V210.295H800.572V211.785H794.898V210.295H793.613V215.244ZM794.898 214.205V212.756H800.572V214.205H794.898ZM808.57 211.867V210.541H807.271V211.799C807.265 213.61 806.157 215.224 804.236 215.887L804.934 216.939C806.362 216.393 807.401 215.326 807.941 213.966C808.468 215.203 809.466 216.188 810.812 216.68L811.523 215.641C809.678 215.025 808.563 213.494 808.57 211.867ZM806.164 218.84H813.164V222.162H814.463V217.814H806.164V218.84ZM810.58 213.453H813.164V217.172H814.463V209.912H813.164V212.387H810.58V213.453Z" fill="#464555"/>
<rect x="742.5" y="203.5" width="99" height="25" rx="3.5" stroke="#464555"/>
<rect x="742.5" y="270.5" width="99" height="25" rx="3.5" fill="white"/>
<path d="M773.148 283.324H761.938V284.363H766.996V286.619H768.281V284.363H773.148V283.324ZM763.332 288.902H771.904V287.85H764.617V285.553H763.332V288.902ZM763.414 282.244H771.672V277.295H770.373V278.785H764.699V277.295H763.414V282.244ZM764.699 281.205V279.756H770.373V281.205H764.699ZM778.371 278.867V277.541H777.072V278.799C777.065 280.61 775.958 282.224 774.037 282.887L774.734 283.939C776.163 283.393 777.202 282.326 777.742 280.966C778.269 282.203 779.267 283.188 780.613 283.68L781.324 282.641C779.479 282.025 778.364 280.494 778.371 278.867ZM775.965 285.84H782.965V289.162H784.264V284.814H775.965V285.84ZM780.381 280.453H782.965V284.172H784.264V276.912H782.965V279.387H780.381V280.453ZM797.361 286.564H792.371V284.049H796.035V277.746H794.75V279.852H788.734V277.746H787.436V284.049H791.086V286.564H786.15V287.645H797.361V286.564ZM788.734 282.996V280.904H794.75V282.996H788.734ZM808.162 278.088H799.426V279.141H806.863V279.291C806.856 280.761 806.856 282.497 806.385 284.869L807.697 285.006C808.155 282.497 808.155 280.802 808.162 279.291V278.088ZM798.25 287.508H809.42V286.428H803.787V282.107H802.502V286.428H798.25V287.508ZM814.766 280.029V277.938H813.453V280.029C813.446 282.299 812.182 284.657 810.281 285.566L811.102 286.619C812.517 285.888 813.583 284.397 814.123 282.634C814.663 284.309 815.716 285.689 817.104 286.387L817.896 285.348C816.023 284.507 814.766 282.271 814.766 280.029ZM816.543 282.039H819.277V289.189H820.562V276.912H819.277V280.986H816.543V282.039Z" fill="#464555"/>
<rect x="742.5" y="270.5" width="99" height="25" rx="3.5" stroke="#464555"/>
<rect x="742.5" y="304.5" width="99" height="25" rx="3.5" fill="white"/>
<path d="M749.701 311.432H748.43V316.777H754.199V311.432H752.914V313.1H749.701V311.432ZM749.66 318.773H756.291V319.881H749.688V323.039H758V322H750.959V320.838H757.576V317.748H749.66V318.773ZM749.701 315.738V314.098H752.914V315.738H749.701ZM756.277 317.215H757.576V314.535H759.354V313.482H757.576V310.912H756.277V317.215ZM770.264 310.926H768.965V314.234H766.627V315.287H768.965V319.895H770.264V310.926ZM760.064 317.338L760.734 318.391C762.19 317.871 763.264 316.791 763.797 315.438C764.33 316.654 765.349 317.639 766.723 318.117L767.393 317.078C765.54 316.463 764.433 314.925 764.439 313.4V312.922H767.064V311.855H760.461V312.922H763.113V313.4C763.12 315.089 761.944 316.702 760.064 317.338ZM762.307 322.902H770.592V321.85H763.605V319.088H762.307V322.902ZM783.361 320.537H778.344V317.625H777.059V320.537H772.15V321.604H783.361V320.537ZM772.533 316.777L773.107 317.844C775.083 317.454 776.888 316.217 777.694 314.549C778.501 316.224 780.319 317.454 782.309 317.844L782.869 316.777C780.504 316.381 778.371 314.562 778.371 312.621V311.691H777.004V312.621C776.997 314.562 774.892 316.381 772.533 316.777ZM793.943 311.992V311.322H792.59V311.992C792.583 313.64 790.601 315.144 788.201 315.465L788.721 316.531C790.71 316.21 792.467 315.171 793.267 313.729C794.066 315.171 795.823 316.21 797.826 316.531L798.332 315.465C795.926 315.144 793.937 313.619 793.943 311.992ZM787.668 318.801H792.59V323.162H793.861V318.801H798.838V317.734H787.668V318.801ZM809.926 318.801H801.627V319.854H808.627V323.162H809.926V318.801ZM800.014 314.549C800.021 316.278 801.401 317.475 803.281 317.475C805.154 317.475 806.535 316.278 806.535 314.549C806.535 312.833 805.154 311.623 803.281 311.623C801.401 311.623 800.021 312.833 800.014 314.549ZM801.285 314.549C801.278 313.455 802.119 312.737 803.281 312.73C804.43 312.737 805.264 313.455 805.264 314.549C805.264 315.649 804.43 316.381 803.281 316.367C802.119 316.381 801.278 315.649 801.285 314.549ZM808.627 318.172H809.926V310.912H808.627V318.172ZM822.408 310.912H821.164V323.162H822.408V310.912ZM812.004 316.203C812.004 318.862 813.043 320.53 814.643 320.523C815.688 320.53 816.495 319.826 816.939 318.609H818.717V322.561H819.947V311.145H818.717V313.797H816.933C816.495 312.587 815.688 311.89 814.643 311.896C813.043 311.89 812.004 313.551 812.004 316.203ZM813.193 316.203C813.187 314.248 813.733 313.106 814.643 313.113C815.545 313.106 816.119 314.248 816.119 316.203C816.119 318.151 815.545 319.3 814.643 319.293C813.733 319.3 813.187 318.151 813.193 316.203ZM817.206 314.85H818.717V317.543H817.206C817.274 317.133 817.309 316.682 817.309 316.203C817.309 315.718 817.274 315.267 817.206 314.85ZM828.191 312.867V311.555H826.906V312.758C826.893 314.59 825.785 316.224 823.871 316.9L824.568 317.939C825.997 317.413 827.036 316.333 827.569 314.959C828.103 316.169 829.107 317.126 830.447 317.598L831.145 316.572C829.319 315.971 828.185 314.474 828.191 312.867ZM825.525 320.865C825.525 322.314 827.091 323.142 829.641 323.135C832.156 323.142 833.701 322.314 833.701 320.865C833.701 319.43 832.156 318.589 829.641 318.596C827.091 318.589 825.525 319.43 825.525 320.865ZM826.824 320.865C826.817 320.086 827.87 319.621 829.641 319.621C831.397 319.621 832.437 320.086 832.43 320.865C832.437 321.672 831.397 322.109 829.641 322.123C827.87 322.109 826.817 321.672 826.824 320.865ZM832.293 318.309H833.592V315.082H835.369V313.988H833.592V310.912H832.293V318.309Z" fill="#464555"/>
<rect x="742.5" y="304.5" width="99" height="25" rx="3.5" stroke="#464555"/>
<rect x="742.5" y="370.5" width="99" height="25" rx="3.5" fill="white"/>
<path d="M756.992 376.912H755.748V389.162H756.992V376.912ZM746.588 382.203C746.588 384.862 747.627 386.53 749.227 386.523C750.744 386.53 751.763 385.047 751.879 382.654H753.26V388.561H754.504V377.145H753.26V381.602H751.872C751.722 379.305 750.717 377.89 749.227 377.896C747.627 377.89 746.588 379.551 746.588 382.203ZM747.791 382.203C747.791 380.248 748.345 379.106 749.227 379.113C750.129 379.106 750.689 380.248 750.689 382.203C750.689 384.151 750.129 385.3 749.227 385.293C748.345 385.3 747.791 384.151 747.791 382.203ZM768.777 376.912H767.479V380.863H763.828V381.93H767.479V389.189H768.777V376.912ZM759.207 386.236H760.191C762.112 386.243 763.89 386.134 765.865 385.73L765.701 384.664C763.917 385.02 762.27 385.129 760.52 385.156V378.266H759.207V386.236ZM775.162 380.521V379.223H777.951V378.143H771.047V379.223H773.85V380.521C773.836 382.634 772.469 384.931 770.623 385.799L771.375 386.824C772.804 386.127 773.952 384.637 774.52 382.887C775.087 384.521 776.235 385.874 777.678 386.51L778.389 385.498C776.502 384.691 775.155 382.572 775.162 380.521ZM779.496 389.162H780.795V376.912H779.496V389.162ZM790.666 380.029V377.938H789.354V380.029C789.354 382.367 788 384.712 786.072 385.566L786.865 386.66C788.335 385.942 789.463 384.466 790.03 382.668C790.604 384.343 791.719 385.717 793.127 386.387L793.906 385.361C792.006 384.521 790.652 382.265 790.666 380.029ZM795.014 389.189H796.312V376.912H795.014V389.189ZM802.547 379.168V378.84H805.186V377.787H798.555V378.84H801.248V379.182C801.241 380.884 800.086 382.463 798.172 383.092L798.842 384.131C800.312 383.618 801.385 382.559 801.918 381.219C802.458 382.381 803.477 383.304 804.871 383.748L805.486 382.736C803.627 382.148 802.54 380.727 802.547 379.168ZM799.826 386.838C799.826 388.294 801.392 389.142 803.941 389.135C806.464 389.142 808.002 388.294 808.002 386.838C808.002 385.402 806.464 384.562 803.941 384.568C801.392 384.562 799.826 385.402 799.826 386.838ZM801.125 386.838C801.118 386.038 802.171 385.587 803.941 385.594C805.698 385.587 806.737 386.038 806.73 386.838C806.737 387.658 805.698 388.116 803.941 388.109C802.171 388.116 801.118 387.658 801.125 386.838ZM806.594 384.268H807.893V381.014H809.67V379.947H807.893V376.912H806.594V384.268ZM823.328 376.912H822.029V389.148H823.328V382.873H825.229V381.793H823.328V376.912ZM813.799 385.881L814.523 386.893C818.557 384.903 820.115 381.738 820.129 378.197H814.414V379.277H818.803C818.536 382.135 816.868 384.35 813.799 385.881ZM832.379 377.719H826.705V378.771H830.984C830.745 380.72 828.975 382.278 826.062 383.064L826.555 384.09C829.2 383.379 831.087 382.005 831.914 380.084H834.799V381.629H831.709V382.682H834.799V384.213H836.098V376.926H834.799V379.045H832.242C832.331 378.621 832.379 378.184 832.379 377.719ZM827.799 385.771H834.799V389.135H836.098V384.746H827.799V385.771Z" fill="#464555"/>
<rect x="742.5" y="370.5" width="99" height="25" rx="3.5" stroke="#464555"/>
<rect x="742.5" y="400.5" width="99" height="25" rx="3.5" fill="white"/>
<path d="M778.492 406.912H777.248V411.711H775.73V407.145H774.5V418.561H775.73V412.777H777.248V419.162H778.492V406.912ZM768.361 415.936H773.119V408.293H768.361V415.936ZM769.592 414.896V409.318H771.902V414.896H769.592ZM791.207 412.285H780.064V413.256H784.986V414.281H781.391V415.225H788.527V416.141H781.404V419.039H790.154V418.055H782.676V417.043H789.812V414.281H786.271V413.256H791.207V412.285ZM780.611 410.822L780.98 411.807C783.127 411.649 784.863 411.027 785.629 409.954C786.395 411.027 788.131 411.649 790.264 411.807L790.66 410.822C788.288 410.692 786.634 409.975 786.374 408.936H790.1V407.938H786.271V406.857H784.986V407.938H781.172V408.936H784.877C784.61 409.975 782.956 410.692 780.611 410.822ZM798.973 407.842H792.793V408.908H797.694C797.681 409.681 797.64 410.672 797.373 412.025L798.658 412.148C798.959 410.562 798.959 409.346 798.973 408.525V407.842ZM792.055 413.201L792.178 414.254C794.338 414.247 797.264 414.199 799.82 413.748L799.738 412.805C798.508 412.982 797.154 413.078 795.842 413.133V410.59H794.557V413.174C793.661 413.194 792.807 413.201 792.055 413.201ZM793.914 418.902H802.24V417.85H795.213V415.279H793.914V418.902ZM800.518 416.113H801.844V411.902H803.525V410.809H801.844V406.912H800.518V416.113ZM814.422 406.912H813.123V419.189H814.422V406.912ZM804.934 409.072H809.35V411.451H804.947V416.25H805.986C808.153 416.243 809.999 416.161 812.166 415.799L812.043 414.732C809.992 415.067 808.263 415.163 806.273 415.17V412.49H810.676V408.02H804.934V409.072Z" fill="#464555"/>
<rect x="742.5" y="400.5" width="99" height="25" rx="3.5" stroke="#464555"/>
<rect x="742.5" y="430.5" width="99" height="25" rx="3.5" fill="white"/>
<path d="M772.23 439.168V438.84H774.869V437.787H768.238V438.84H770.932V439.182C770.925 440.884 769.77 442.463 767.855 443.092L768.525 444.131C769.995 443.618 771.068 442.559 771.602 441.219C772.142 442.381 773.16 443.304 774.555 443.748L775.17 442.736C773.311 442.148 772.224 440.727 772.23 439.168ZM769.51 446.838C769.51 448.294 771.075 449.142 773.625 449.135C776.147 449.142 777.686 448.294 777.686 446.838C777.686 445.402 776.147 444.562 773.625 444.568C771.075 444.562 769.51 445.402 769.51 446.838ZM770.809 446.838C770.802 446.038 771.854 445.587 773.625 445.594C775.382 445.587 776.421 446.038 776.414 446.838C776.421 447.658 775.382 448.116 773.625 448.109C771.854 448.116 770.802 447.658 770.809 446.838ZM776.277 444.268H777.576V441.014H779.354V439.947H777.576V436.912H776.277V444.268ZM782.826 437.896C781.227 437.89 780.188 439.551 780.188 442.203C780.188 444.862 781.227 446.53 782.826 446.523C784.439 446.53 785.485 444.862 785.492 442.203C785.485 439.551 784.439 437.89 782.826 437.896ZM781.391 442.203C781.391 440.248 781.944 439.106 782.826 439.113C783.729 439.106 784.289 440.248 784.289 442.203C784.289 444.151 783.729 445.3 782.826 445.293C781.944 445.3 781.391 444.151 781.391 442.203ZM786.6 448.561H787.83V442.777H789.348V449.162H790.592V436.912H789.348V441.711H787.83V437.145H786.6V448.561ZM802.295 436.912H800.996V449.189H802.295V436.912ZM792.574 442.121C792.574 444.767 793.894 446.435 795.746 446.428C797.564 446.435 798.904 444.767 798.904 442.121C798.904 439.503 797.564 437.835 795.746 437.828C793.894 437.835 792.574 439.503 792.574 442.121ZM793.832 442.121C793.825 440.2 794.604 438.997 795.746 438.99C796.867 438.997 797.646 440.2 797.646 442.121C797.646 444.069 796.867 445.266 795.746 445.266C794.604 445.266 793.825 444.069 793.832 442.121ZM810.088 437.65H804.742V438.689H808.789V440.234H804.756V443.967H805.645C808.085 443.96 809.343 443.919 810.84 443.666L810.717 442.613C809.336 442.866 808.174 442.914 806.041 442.914V441.219H810.088V437.65ZM806.15 446.127H813.164V449.176H814.463V445.074H806.15V446.127ZM810.867 442.299H813.164V444.459H814.463V436.926H813.164V438.703H810.867V439.742H813.164V441.26H810.867V442.299Z" fill="#464555"/>
<rect x="742.5" y="430.5" width="99" height="25" rx="3.5" stroke="#464555"/>
</svg>
