<svg width="770" height="218" viewBox="0 0 770 218" fill="none" xmlns="http://www.w3.org/2000/svg">
<ellipse cx="319.156" cy="101.558" rx="67.0383" ry="66.3821" fill="#6C79F9"/>
<ellipse cx="321.79" cy="81.0523" rx="3.93062" ry="3.89214" fill="white"/>
<ellipse cx="332.125" cy="92.6837" rx="3.23487" ry="3.20321" fill="white"/>
<ellipse cx="305.766" cy="96.1915" rx="3.23487" ry="3.20321" fill="white"/>
<ellipse cx="320.321" cy="105.801" rx="3.23487" ry="3.20321" fill="white"/>
<path d="M303.789 130.58H305.147V127.424C305.147 126.709 305.024 125.658 304.953 124.943H304.994L305.596 126.72L306.771 129.896H307.639L308.803 126.72L309.416 124.943H309.467C309.385 125.658 309.273 126.709 309.273 127.424V130.58H310.652V123.013H308.977L307.721 126.556C307.557 127.026 307.424 127.527 307.261 128.006H307.21C307.057 127.527 306.914 127.026 306.75 126.556L305.464 123.013H303.789V130.58ZM314.773 130.723C316.202 130.723 317.52 129.62 317.52 127.721C317.52 125.821 316.202 124.718 314.773 124.718C313.343 124.718 312.025 125.821 312.025 127.721C312.025 129.62 313.343 130.723 314.773 130.723ZM314.773 129.498C313.996 129.498 313.557 128.803 313.557 127.721C313.557 126.648 313.996 125.944 314.773 125.944C315.549 125.944 315.988 126.648 315.988 127.721C315.988 128.803 315.549 129.498 314.773 129.498ZM320.788 130.723C321.38 130.723 321.952 130.396 322.371 129.988H322.411L322.524 130.58H323.739V122.43H322.248V124.442L322.299 125.341C321.891 124.963 321.492 124.718 320.849 124.718C319.613 124.718 318.449 125.862 318.449 127.721C318.449 129.6 319.368 130.723 320.788 130.723ZM321.176 129.487C320.42 129.487 319.991 128.895 319.991 127.71C319.991 126.567 320.532 125.954 321.176 125.954C321.533 125.954 321.901 126.066 322.248 126.383V128.895C321.911 129.324 321.574 129.487 321.176 129.487ZM327.84 130.723C328.545 130.723 329.27 130.478 329.831 130.09L329.321 129.171C328.912 129.426 328.504 129.569 328.034 129.569C327.186 129.569 326.574 129.079 326.451 128.139H329.974C330.015 128.006 330.046 127.731 330.046 127.445C330.046 125.872 329.229 124.718 327.656 124.718C326.298 124.718 324.991 125.872 324.991 127.721C324.991 129.61 326.237 130.723 327.84 130.723ZM326.431 127.138C326.543 126.311 327.074 125.882 327.677 125.882C328.412 125.882 328.759 126.372 328.759 127.138H326.431ZM332.691 130.723C333.049 130.723 333.294 130.662 333.468 130.59L333.284 129.477C333.182 129.498 333.141 129.498 333.08 129.498C332.937 129.498 332.783 129.385 332.783 129.038V122.43H331.282V128.977C331.282 130.039 331.65 130.723 332.691 130.723Z" fill="white"/>
<path d="M503.984 108.936L501.406 110.411L501.406 107.462L503.984 108.936Z" fill="#6C79F9"/>
<path d="M389.672 108.936H501.689" stroke="#6C79F9" stroke-width="0.567368" stroke-dasharray="1.13 1.13"/>
<path d="M248.555 108.936L245.976 110.411L245.976 107.462L248.555 108.936Z" fill="#6C79F9"/>
<path d="M134.242 108.936H246.259" stroke="#6C79F9" stroke-width="0.567368" stroke-dasharray="1.13 1.13"/>
<ellipse cx="733.902" cy="35.7442" rx="36.0976" ry="35.7442" fill="#6C79F9"/>
<path d="M723.98 28.2851H722.318V27.5881H721.24V28.2851H719.587V29.1281H723.98V28.2851ZM720.973 30.7329C720.973 30.3601 721.297 30.1736 721.783 30.1736C722.262 30.1736 722.594 30.3601 722.594 30.7329C722.594 31.1139 722.262 31.3003 721.783 31.3003C721.297 31.3003 720.973 31.1139 720.973 30.7329ZM723.615 30.7329C723.615 29.9224 722.861 29.3631 721.783 29.3631C720.714 29.3631 719.952 29.9224 719.952 30.7329C719.952 31.5515 720.714 32.1108 721.783 32.1108C722.861 32.1108 723.615 31.5515 723.615 30.7329ZM720.487 33.4725H724.393V35.1016H725.463V32.6133H720.487V33.4725ZM726.452 29.5495H725.463V27.6367H724.393V32.3053H725.463V30.433H726.452V29.5495ZM733.454 29.7198C731.777 29.5333 730.966 28.6904 730.966 27.9366V27.7096H729.864V27.9366C729.864 28.6985 729.053 29.5252 727.375 29.7198L727.748 30.5465C729.021 30.3844 729.945 29.8656 730.415 29.1524C730.893 29.8656 731.801 30.3925 733.073 30.5465L733.454 29.7198ZM731.882 34.1776H728.891V33.5292H731.882V34.1776ZM731.882 32.7268H728.891V32.1027H727.829V35.0044H732.936V32.1027H731.882V32.7268ZM727.043 30.8869V31.7299H733.787V30.8869H727.043ZM737.393 28.2041H736.323V29.2902C736.323 30.741 735.707 32.1837 734.402 32.743L735.042 33.6265C735.934 33.205 736.542 32.4026 736.874 31.4056C737.206 32.3215 737.782 33.0591 738.641 33.4482L739.249 32.5809C737.985 32.0379 737.393 30.6762 737.393 29.2902V28.2041ZM739.614 27.6205V35.1097H740.684V27.6205H739.614ZM742.223 28.1879V29.0389H744.655C744.484 30.0845 743.56 30.9518 741.899 31.4056L742.345 32.2567C744.565 31.6164 745.814 30.2142 745.814 28.1879H742.223ZM744.079 32.435H743.009V34.9639H748.083V34.1128H744.079V32.435ZM747.824 29.7116V27.6286H746.754V32.97H747.824V30.587H748.821V29.7116H747.824ZM726.031 40.5688H723.486V39.7096H722.416V40.5688H719.879V41.4199H726.031V40.5688ZM722.254 44.5566C722.464 44.5809 722.699 44.5971 722.942 44.5971C723.194 44.5971 723.429 44.5809 723.648 44.5566V45.4968H722.254V44.5566ZM722.951 42.5384C723.891 42.5384 724.385 42.741 724.385 43.1625C724.385 43.5759 723.891 43.7785 722.951 43.7785C722.01 43.7785 721.516 43.5759 721.516 43.1625C721.516 42.741 722.01 42.5384 722.951 42.5384ZM724.701 45.4968V44.2648C725.204 44.0216 725.479 43.6407 725.479 43.1625C725.479 42.2547 724.515 41.7198 722.951 41.7198C721.386 41.7198 720.414 42.2547 720.414 43.1625C720.414 43.6488 720.697 44.0297 721.2 44.2729V45.4968H719.587V46.3641H726.347V45.4968H724.701ZM730.415 40.4796C731.501 40.4796 732.012 40.6336 732.012 40.966C732.012 41.3145 731.501 41.4604 730.415 41.4604C729.337 41.4604 728.826 41.3145 728.826 40.966C728.826 40.6336 729.337 40.4796 730.415 40.4796ZM730.415 42.2385C732.125 42.2385 733.122 41.7927 733.122 40.966C733.122 40.1473 732.125 39.6934 730.415 39.6934C728.713 39.6934 727.716 40.1473 727.716 40.966C727.716 41.7927 728.713 42.2385 730.415 42.2385ZM731.055 43.892H729.791V43.3732H731.055V43.892ZM733.795 43.3732V42.5303H727.035V43.3732H728.721V43.892H727.805V44.6782H731.914V45.0753H727.821V47.0368H733.163V46.2344H728.883V45.8129H732.968V43.892H732.125V43.3732H733.795ZM738.892 40.3419H737.231V39.58H736.153V40.3419H734.499V41.1767H738.892V40.3419ZM735.885 42.7572C735.885 42.3925 736.218 42.198 736.696 42.198C737.174 42.198 737.506 42.3925 737.506 42.7572C737.506 43.122 737.174 43.3165 736.696 43.3165C736.218 43.3165 735.885 43.122 735.885 42.7572ZM738.528 42.7572C738.528 41.9629 737.774 41.4199 736.696 41.4199C735.618 41.4199 734.864 41.9629 734.864 42.7572C734.864 43.5515 735.618 44.0865 736.696 44.0865C737.774 44.0865 738.528 43.5515 738.528 42.7572ZM737.944 46.2992C737.004 46.2992 736.501 46.129 736.501 45.7724C736.501 45.4076 737.004 45.2455 737.944 45.2455C738.884 45.2455 739.387 45.4076 739.387 45.7724C739.387 46.129 738.884 46.2992 737.944 46.2992ZM737.944 44.4431C736.404 44.4431 735.44 44.9375 735.44 45.7724C735.44 46.5991 736.404 47.0935 737.944 47.0935C739.484 47.0935 740.449 46.5991 740.449 45.7724C740.449 44.9375 739.484 44.4431 737.944 44.4431ZM741.332 41.5739V40.6985H740.376V39.6367H739.306V44.3621H740.376V43.1949H741.332V42.3276H740.376V41.5739H741.332ZM746.357 42.9355C745.181 42.5708 744.679 41.6954 744.679 40.7958V40.0339H743.593V40.7066C743.593 41.7198 743.09 42.7167 741.842 43.1301L742.401 43.973C743.252 43.6731 743.828 43.0976 744.152 42.3682C744.468 43.0004 745.011 43.5029 745.797 43.7623L746.357 42.9355ZM745.392 46.2668C744.436 46.2668 743.925 46.0723 743.925 45.6508C743.925 45.2374 744.436 45.0429 745.392 45.0429C746.34 45.0429 746.851 45.2374 746.851 45.6508C746.851 46.0723 746.34 46.2668 745.392 46.2668ZM745.392 44.2162C743.836 44.2162 742.863 44.7511 742.863 45.6508C742.863 46.5586 743.836 47.0935 745.392 47.0935C746.94 47.0935 747.913 46.5586 747.913 45.6508C747.913 44.7511 746.94 44.2162 745.392 44.2162ZM747.832 41.3631V39.6367H746.762V44.046H747.832V42.2466H748.821V41.3631H747.832Z" fill="white"/>
<ellipse cx="733.902" cy="181.557" rx="36.0976" ry="35.7442" fill="#6C79F9"/>
<path d="M717.13 178.491H716.06V180.776H721.329V179.925H717.13V178.491ZM719.189 177.186V176.294H721.264V175.443H717.179V173.652H716.109V176.294H718.119V177.186H715.274V178.037H722.026V177.186H719.189ZM724.213 176.959H726.637V174.073H723.111V174.924H725.543V176.116H723.119V179.188H723.792C725.146 179.188 726.24 179.139 727.456 178.928L727.342 178.061C726.288 178.239 725.348 178.296 724.213 178.304V176.959ZM727.861 173.433V180.922H728.931V173.433H727.861ZM734.677 176.845C733.526 176.456 733.007 175.557 732.991 174.706H734.442V173.854H730.43V174.706H731.897C731.88 175.63 731.337 176.578 730.138 176.983L730.681 177.826C731.548 177.542 732.132 176.943 732.464 176.213C732.78 176.878 733.339 177.413 734.158 177.68L734.677 176.845ZM731.329 179.066H735.349V180.914H736.419V178.215H731.329V179.066ZM735.349 173.449V175.224H734.247V176.083H735.349V177.883H736.419V173.449H735.349ZM746.223 177.048H745.242C745.428 176.002 745.428 175.24 745.428 174.543V173.871H740.249V174.73H744.383C744.383 175.37 744.366 176.1 744.18 177.048H739.479V177.907H742.267V180.906H743.353V177.907H746.223V177.048ZM747.608 177.85C748.905 177.615 749.845 176.967 750.307 176.075C750.777 176.951 751.725 177.575 753.038 177.81L753.444 176.967C751.839 176.732 750.972 175.832 750.874 174.86H753.111V174.008H747.486V174.86H749.723C749.626 175.832 748.759 176.764 747.195 177.007L747.608 177.85ZM750.842 179.172V177.526H749.772V179.172H746.927V180.039H753.687V179.172H750.842ZM725.399 186.835H728.617V188.813H725.399V186.835ZM727.547 191.172V189.656H729.663V185.992H724.354V189.656H726.477V191.172H723.64V192.039H730.4V191.172H727.547ZM737.5 185.441H736.486V189.34H737.5V185.441ZM733.877 187.005V187.808H735.011V189.299H736.008V185.579H735.011V187.005H733.877ZM734.484 188.181C733.836 188.294 733.285 188.318 732.466 188.327V186.641H734.298V185.798H731.413V189.161H731.923C733.082 189.161 733.763 189.153 734.557 189.024L734.484 188.181ZM733.455 191.99V191.577H737.5V189.591H732.385V190.41H736.446V190.807H732.401V192.817H737.71V191.99H733.455ZM744.753 185.441H743.675V189.972H744.753V185.441ZM743.059 188.602C742.087 188.764 741.219 188.805 739.987 188.813V188.156H742.362V185.879H738.926V186.73H741.308V187.362H738.934V189.672H739.59C741.073 189.672 742.07 189.64 743.181 189.453L743.059 188.602ZM742.241 192.087C741.268 192.087 740.757 191.909 740.757 191.512C740.757 191.123 741.268 190.945 742.241 190.945C743.221 190.945 743.732 191.123 743.732 191.512C743.732 191.909 743.221 192.087 742.241 192.087ZM742.241 190.11C740.66 190.11 739.687 190.628 739.687 191.512C739.687 192.395 740.66 192.914 742.241 192.914C743.829 192.914 744.802 192.395 744.802 191.512C744.802 190.628 743.829 190.11 742.241 190.11Z" fill="white"/>
<ellipse cx="67.0383" cy="101.234" rx="67.0383" ry="66.3821" fill="#6C79F9"/>
<ellipse cx="65.5322" cy="98.7222" rx="3.93062" ry="3.89214" fill="white"/>
<path d="M56.5856 130.58H58.7405C60.9668 130.58 62.3966 129.314 62.3966 126.771C62.3966 124.218 60.9668 123.013 58.6588 123.013H56.5856V130.58ZM58.0971 129.365V124.228H58.5668C59.9762 124.228 60.8545 124.922 60.8545 126.771C60.8545 128.609 59.9762 129.365 58.5668 129.365H58.0971ZM65.1628 130.723C65.8165 130.723 66.3884 130.396 66.8888 129.967H66.9296L67.0318 130.58H68.2573V127.241C68.2573 125.586 67.5117 124.718 66.0616 124.718C65.1628 124.718 64.3458 125.055 63.6718 125.474L64.2131 126.464C64.7441 126.158 65.2548 125.923 65.7858 125.923C66.4905 125.923 66.7356 126.352 66.7662 126.914C64.4582 127.159 63.4676 127.802 63.4676 129.028C63.4676 129.998 64.1416 130.723 65.1628 130.723ZM65.6531 129.549C65.2139 129.549 64.8973 129.355 64.8973 128.905C64.8973 128.395 65.3671 128.006 66.7662 127.833V128.987C66.3986 129.344 66.082 129.549 65.6531 129.549ZM71.6914 130.723C72.1918 130.723 72.5901 130.611 72.8965 130.509L72.6514 129.416C72.4982 129.477 72.2735 129.538 72.0897 129.538C71.5791 129.538 71.3136 129.232 71.3136 128.578V126.046H72.7229V124.861H71.3136V123.319H70.0676L69.894 124.861L69.0055 124.932V126.046H69.8123V128.578C69.8123 129.855 70.3331 130.723 71.6914 130.723ZM75.0563 130.723C75.7099 130.723 76.2818 130.396 76.7823 129.967H76.8231L76.9252 130.58H78.1508V127.241C78.1508 125.586 77.4052 124.718 75.955 124.718C75.0563 124.718 74.2393 125.055 73.5653 125.474L74.1066 126.464C74.6376 126.158 75.1482 125.923 75.6793 125.923C76.384 125.923 76.6291 126.352 76.6597 126.914C74.3517 127.159 73.361 127.802 73.361 129.028C73.361 129.998 74.0351 130.723 75.0563 130.723ZM75.5465 129.549C75.1074 129.549 74.7908 129.355 74.7908 128.905C74.7908 128.395 75.2606 128.006 76.6597 127.833V128.987C76.2921 129.344 75.9755 129.549 75.5465 129.549Z" fill="white"/>
<ellipse opacity="0.4" cx="595.894" cy="101.316" rx="88.4022" ry="87.5368" fill="#6C79F9"/>
<ellipse opacity="0.6" cx="595.892" cy="101.316" rx="78.5797" ry="77.8105" fill="#6C79F9"/>
<ellipse cx="595.812" cy="101.56" rx="67.0383" ry="66.3821" fill="#6C79F9"/>
<circle cx="586.816" cy="81.8632" r="1.62105" fill="white"/>
<circle cx="607.887" cy="81.8632" r="1.62105" fill="white"/>
<circle cx="597.355" cy="75.3789" r="1.62105" fill="white"/>
<circle cx="597.355" cy="88.3476" r="1.62105" fill="white"/>
<circle cx="586.816" cy="94.0214" r="1.62105" fill="white"/>
<circle cx="607.887" cy="94.0214" r="1.62105" fill="white"/>
<circle cx="597.355" cy="99.6953" r="1.62105" fill="white"/>
<path d="M587.18 82.1526L597.583 75.5391L607.859 82.1526M587.18 82.1526V93.8535L597.583 99.8311M587.18 82.1526L597.583 88.7662M597.583 99.8311L607.859 93.8535V82.1526M597.583 99.8311V88.7662M607.859 82.1526L597.583 88.7662" stroke="white" stroke-width="0.254367"/>
<path d="M587.227 94.0204L597.763 88.752L607.895 93.6151" stroke="white" stroke-width="0.254367" stroke-dasharray="0.51 0.51"/>
<path d="M594.437 118.582C594.941 118.582 595.35 118.165 595.35 117.65C595.35 117.136 594.941 116.719 594.437 116.719C593.932 116.719 593.523 117.136 593.523 117.65C593.523 118.165 593.932 118.582 594.437 118.582Z" fill="white"/>
<path d="M602.779 120.268C602.284 119.617 601.502 119.203 600.461 119.203C599.42 119.203 598.714 119.578 598.216 120.18C598.216 119.763 597.884 119.425 597.476 119.425C597.048 119.425 596.703 119.776 596.703 120.213V126.868H598.216V122.35C598.261 121.343 598.906 120.545 600.049 120.545C601.192 120.545 601.882 121.402 601.882 122.461V126.868H603.398V122.272C603.398 121.506 603.184 120.809 602.779 120.272V120.268Z" fill="white"/>
<path d="M615.365 119.183C615.31 119.183 615.263 119.216 615.24 119.264L614.755 120.372L614.27 119.264C614.247 119.216 614.199 119.183 614.145 119.183C614.068 119.183 614.008 119.245 614.008 119.323V120.675H614.225V119.632L614.681 120.675H614.832L615.285 119.636V120.675H615.502V119.32C615.502 119.245 615.441 119.18 615.365 119.18V119.183Z" fill="white"/>
<path d="M613.649 119.184H612.464C612.413 119.184 612.375 119.226 612.375 119.275C612.375 119.324 612.417 119.366 612.464 119.366H612.95V120.672H613.167V119.366H613.649C613.7 119.366 613.738 119.324 613.738 119.275C613.738 119.226 613.697 119.184 613.649 119.184Z" fill="white"/>
<path d="M586.977 125.567V117.928C586.977 117.502 586.639 117.156 586.218 117.156C585.799 117.156 585.461 117.502 585.461 117.928V126.863H592.156V125.567H586.977Z" fill="white"/>
<path d="M595.181 126.866V120.198C595.181 119.771 594.842 119.426 594.421 119.426C594.002 119.426 593.664 119.771 593.664 120.198V126.866H595.181Z" fill="white"/>
<path d="M611.832 126.863L608.046 123.212L610.89 120.44C611.168 120.166 611.174 119.713 610.906 119.43L610.9 119.423C610.632 119.14 610.188 119.133 609.91 119.407L606.443 122.795V117.928C606.443 117.502 606.105 117.156 605.686 117.156C605.268 117.156 604.93 117.502 604.93 117.928V126.863H606.446V123.678L609.751 126.86H611.839L611.832 126.863Z" fill="white"/>
</svg>
