<svg width="468" height="195" viewBox="0 0 468 195" fill="none" xmlns="http://www.w3.org/2000/svg">
<g opacity="0.2">
<path d="M456.317 0.958984H177.026C171.308 0.958984 166.672 5.5949 166.672 11.3136V78.187C166.672 83.9056 171.308 88.5416 177.026 88.5416H456.317C462.036 88.5416 466.672 83.9056 466.672 78.187V11.3136C466.672 5.5949 462.036 0.958984 456.317 0.958984Z" fill="#FFEDED" stroke="#D4666A" stroke-width="1.6193"/>
<path d="M197.598 46.5413H200.118C200.067 47.3671 199.84 48.1002 199.435 48.7406C199.036 49.381 198.477 49.881 197.758 50.2406C197.045 50.6001 196.185 50.7799 195.18 50.7799C194.393 50.7799 193.688 50.645 193.065 50.3754C192.441 50.1001 191.907 49.7069 191.464 49.1957C191.025 48.6844 190.691 48.0665 190.461 47.3418C190.23 46.6171 190.115 45.8054 190.115 44.9065V44.0554C190.115 43.1566 190.233 42.3448 190.469 41.6201C190.711 40.8898 191.053 40.2691 191.497 39.7579C191.947 39.2467 192.483 38.8534 193.107 38.5781C193.73 38.3029 194.427 38.1652 195.197 38.1652C196.219 38.1652 197.081 38.3506 197.784 38.7214C198.491 39.0922 199.039 39.6034 199.427 40.255C199.82 40.9067 200.056 41.6482 200.135 42.4797H197.607C197.578 41.9853 197.48 41.5668 197.312 41.2241C197.143 40.8758 196.887 40.6146 196.545 40.4404C196.208 40.2607 195.758 40.1708 195.197 40.1708C194.775 40.1708 194.407 40.2494 194.093 40.4067C193.778 40.564 193.514 40.8028 193.301 41.123C193.087 41.4432 192.927 41.8477 192.82 42.3364C192.719 42.8195 192.669 43.3869 192.669 44.0386V44.9065C192.669 45.5413 192.716 46.1003 192.812 46.5834C192.907 47.0609 193.053 47.4654 193.25 47.7968C193.452 48.1227 193.711 48.3699 194.025 48.5384C194.345 48.7013 194.73 48.7828 195.18 48.7828C195.708 48.7828 196.143 48.6985 196.486 48.53C196.829 48.3614 197.09 48.1114 197.269 47.78C197.455 47.4485 197.564 47.0356 197.598 46.5413ZM201.238 46.1452V45.9683C201.238 45.2998 201.334 44.6846 201.525 44.1228C201.716 43.5555 201.994 43.0639 202.359 42.6482C202.724 42.2325 203.174 41.9095 203.707 41.6791C204.241 41.4432 204.853 41.3252 205.544 41.3252C206.235 41.3252 206.851 41.4432 207.39 41.6791C207.929 41.9095 208.381 42.2325 208.747 42.6482C209.117 43.0639 209.398 43.5555 209.589 44.1228C209.78 44.6846 209.876 45.2998 209.876 45.9683V46.1452C209.876 46.8081 209.78 47.4233 209.589 47.9907C209.398 48.5524 209.117 49.044 208.747 49.4653C208.381 49.881 207.932 50.204 207.398 50.4344C206.865 50.6647 206.252 50.7799 205.561 50.7799C204.87 50.7799 204.255 50.6647 203.716 50.4344C203.182 50.204 202.73 49.881 202.359 49.4653C201.994 49.044 201.716 48.5524 201.525 47.9907C201.334 47.4233 201.238 46.8081 201.238 46.1452ZM203.665 45.9683V46.1452C203.665 46.5272 203.699 46.884 203.766 47.2154C203.834 47.5469 203.941 47.839 204.087 48.0918C204.238 48.339 204.435 48.5328 204.676 48.6732C204.918 48.8137 205.213 48.8839 205.561 48.8839C205.898 48.8839 206.188 48.8137 206.429 48.6732C206.671 48.5328 206.865 48.339 207.011 48.0918C207.157 47.839 207.263 47.5469 207.331 47.2154C207.404 46.884 207.44 46.5272 207.44 46.1452V45.9683C207.44 45.5975 207.404 45.2492 207.331 44.9234C207.263 44.5919 207.154 44.2998 207.002 44.047C206.856 43.7886 206.662 43.5864 206.421 43.4403C206.179 43.2942 205.887 43.2212 205.544 43.2212C205.202 43.2212 204.91 43.2942 204.668 43.4403C204.432 43.5864 204.238 43.7886 204.087 44.047C203.941 44.2998 203.834 44.5919 203.766 44.9234C203.699 45.2492 203.665 45.5975 203.665 45.9683ZM213.794 43.3813V50.6113H211.359V41.4938H213.642L213.794 43.3813ZM213.457 45.7323H212.783C212.783 45.0975 212.859 44.5133 213.01 43.9796C213.168 43.4403 213.395 42.974 213.693 42.5808C213.996 42.1819 214.37 41.8729 214.814 41.6539C215.257 41.4348 215.771 41.3252 216.356 41.3252C216.76 41.3252 217.131 41.387 217.468 41.5106C217.805 41.6286 218.094 41.8168 218.336 42.0752C218.583 42.328 218.774 42.6594 218.909 43.0695C219.044 43.474 219.111 43.9599 219.111 44.5273V50.6113H216.684V44.797C216.684 44.3813 216.628 44.0611 216.516 43.8363C216.403 43.6116 216.243 43.4543 216.036 43.3645C215.833 43.2746 215.589 43.2296 215.302 43.2296C214.988 43.2296 214.713 43.2942 214.477 43.4234C214.246 43.5526 214.055 43.7324 213.904 43.9627C213.752 44.1875 213.64 44.4515 213.567 44.7548C213.493 45.0582 213.457 45.384 213.457 45.7323ZM218.884 45.4543L218.016 45.5638C218.016 44.9683 218.089 44.415 218.235 43.9038C218.387 43.3925 218.608 42.9431 218.901 42.5555C219.198 42.1679 219.566 41.8673 220.004 41.6539C220.443 41.4348 220.948 41.3252 221.521 41.3252C221.959 41.3252 222.358 41.3898 222.718 41.519C223.077 41.6426 223.384 41.8421 223.636 42.1173C223.895 42.387 224.091 42.7409 224.226 43.1791C224.367 43.6173 224.437 44.1537 224.437 44.7886V50.6113H222.002V44.7886C222.002 44.3672 221.945 44.047 221.833 43.8279C221.726 43.6032 221.569 43.4487 221.361 43.3645C221.159 43.2746 220.917 43.2296 220.636 43.2296C220.344 43.2296 220.089 43.2886 219.87 43.4066C219.651 43.5189 219.468 43.6762 219.322 43.8785C219.176 44.0807 219.066 44.3167 218.993 44.5863C218.92 44.8503 218.884 45.1397 218.884 45.4543ZM228.743 43.2465V54.1168H226.316V41.4938H228.566L228.743 43.2465ZM234.515 45.9514V46.1284C234.515 46.7913 234.436 47.4064 234.279 47.9738C234.127 48.5412 233.903 49.0356 233.605 49.4569C233.307 49.8726 232.936 50.1984 232.493 50.4344C232.054 50.6647 231.549 50.7799 230.976 50.7799C230.42 50.7799 229.937 50.6675 229.527 50.4428C229.116 50.2181 228.771 49.9035 228.49 49.499C228.215 49.0889 227.993 48.6142 227.824 48.0749C227.656 47.5356 227.527 46.957 227.437 46.339V45.8756C227.527 45.2127 227.656 44.606 227.824 44.0554C227.993 43.4993 228.215 43.019 228.49 42.6145C228.771 42.2044 229.114 41.887 229.518 41.6623C229.928 41.4376 230.408 41.3252 230.959 41.3252C231.538 41.3252 232.046 41.4348 232.484 41.6539C232.928 41.8729 233.299 42.1875 233.597 42.5976C233.9 43.0077 234.127 43.4965 234.279 44.0639C234.436 44.6313 234.515 45.2604 234.515 45.9514ZM232.08 46.1284V45.9514C232.08 45.5638 232.046 45.2071 231.979 44.8812C231.917 44.5498 231.816 44.2605 231.675 44.0133C231.54 43.7661 231.361 43.5751 231.136 43.4403C230.917 43.2999 230.65 43.2296 230.335 43.2296C230.004 43.2296 229.72 43.283 229.484 43.3897C229.254 43.4965 229.066 43.651 228.92 43.8532C228.774 44.0554 228.664 44.297 228.591 44.5779C228.518 44.8588 228.473 45.1762 228.456 45.5301V46.7014C228.484 47.1171 228.563 47.4907 228.692 47.8221C228.821 48.148 229.021 48.4064 229.291 48.5974C229.56 48.7884 229.914 48.8839 230.352 48.8839C230.673 48.8839 230.942 48.8137 231.161 48.6732C231.38 48.5271 231.557 48.3277 231.692 48.0749C231.833 47.8221 231.931 47.53 231.987 47.1986C232.049 46.8671 232.08 46.5104 232.08 46.1284ZM235.636 46.1452V45.9683C235.636 45.2998 235.731 44.6846 235.922 44.1228C236.113 43.5555 236.391 43.0639 236.757 42.6482C237.122 42.2325 237.571 41.9095 238.105 41.6791C238.638 41.4432 239.251 41.3252 239.942 41.3252C240.633 41.3252 241.248 41.4432 241.787 41.6791C242.327 41.9095 242.779 42.2325 243.144 42.6482C243.515 43.0639 243.796 43.5555 243.987 44.1228C244.178 44.6846 244.273 45.2998 244.273 45.9683V46.1452C244.273 46.8081 244.178 47.4233 243.987 47.9907C243.796 48.5524 243.515 49.044 243.144 49.4653C242.779 49.881 242.329 50.204 241.796 50.4344C241.262 50.6647 240.65 50.7799 239.959 50.7799C239.268 50.7799 238.653 50.6647 238.113 50.4344C237.58 50.204 237.127 49.881 236.757 49.4653C236.391 49.044 236.113 48.5524 235.922 47.9907C235.731 47.4233 235.636 46.8081 235.636 46.1452ZM238.063 45.9683V46.1452C238.063 46.5272 238.096 46.884 238.164 47.2154C238.231 47.5469 238.338 47.839 238.484 48.0918C238.636 48.339 238.832 48.5328 239.074 48.6732C239.315 48.8137 239.61 48.8839 239.959 48.8839C240.296 48.8839 240.585 48.8137 240.827 48.6732C241.068 48.5328 241.262 48.339 241.408 48.0918C241.554 47.839 241.661 47.5469 241.728 47.2154C241.801 46.884 241.838 46.5272 241.838 46.1452V45.9683C241.838 45.5975 241.801 45.2492 241.728 44.9234C241.661 44.5919 241.551 44.2998 241.4 44.047C241.254 43.7886 241.06 43.5864 240.818 43.4403C240.577 43.2942 240.284 43.2212 239.942 43.2212C239.599 43.2212 239.307 43.2942 239.065 43.4403C238.829 43.5864 238.636 43.7886 238.484 44.047C238.338 44.2998 238.231 44.5919 238.164 44.9234C238.096 45.2492 238.063 45.5975 238.063 45.9683ZM248.141 43.4403V50.6113H245.714V41.4938H247.989L248.141 43.4403ZM247.787 45.7323H247.13C247.13 45.0582 247.217 44.4515 247.391 43.9122C247.565 43.3673 247.809 42.9038 248.124 42.5218C248.439 42.1342 248.812 41.8392 249.245 41.637C249.683 41.4291 250.172 41.3252 250.711 41.3252C251.138 41.3252 251.528 41.387 251.882 41.5106C252.236 41.6342 252.54 41.8308 252.792 42.1005C253.051 42.3701 253.247 42.7268 253.382 43.1706C253.523 43.6144 253.593 44.1566 253.593 44.797V50.6113H251.149V44.7886C251.149 44.3841 251.093 44.0695 250.981 43.8448C250.868 43.6201 250.703 43.4628 250.483 43.3729C250.27 43.2774 250.006 43.2296 249.691 43.2296C249.366 43.2296 249.082 43.2942 248.84 43.4234C248.604 43.5526 248.408 43.7324 248.25 43.9627C248.099 44.1875 247.984 44.4515 247.905 44.7548C247.826 45.0582 247.787 45.384 247.787 45.7323ZM259.635 50.7799C258.927 50.7799 258.292 50.6675 257.73 50.4428C257.169 50.2125 256.691 49.8951 256.298 49.4906C255.91 49.0861 255.612 48.617 255.405 48.0833C255.197 47.544 255.093 46.971 255.093 46.3643V46.0273C255.093 45.3363 255.191 44.7043 255.388 44.1313C255.584 43.5583 255.865 43.0611 256.23 42.6398C256.601 42.2184 257.051 41.8954 257.579 41.6707C258.107 41.4404 258.702 41.3252 259.365 41.3252C260.011 41.3252 260.584 41.432 261.084 41.6454C261.584 41.8589 262.003 42.1623 262.34 42.5555C262.682 42.9487 262.941 43.4206 263.115 43.9712C263.289 44.5161 263.376 45.1228 263.376 45.7913V46.8025H256.129V45.1846H260.991V44.9992C260.991 44.6622 260.93 44.3616 260.806 44.0976C260.688 43.8279 260.508 43.6144 260.267 43.4571C260.025 43.2999 259.716 43.2212 259.34 43.2212C259.02 43.2212 258.744 43.2914 258.514 43.4319C258.284 43.5723 258.095 43.7689 257.949 44.0217C257.809 44.2745 257.702 44.5723 257.629 44.9149C257.562 45.252 257.528 45.6228 257.528 46.0273V46.3643C257.528 46.7295 257.579 47.0665 257.68 47.3755C257.786 47.6845 257.935 47.9513 258.126 48.176C258.323 48.4008 258.559 48.5749 258.834 48.6985C259.115 48.8221 259.432 48.8839 259.786 48.8839C260.225 48.8839 260.632 48.7996 261.008 48.6311C261.39 48.4569 261.719 48.1957 261.994 47.8474L263.174 49.1282C262.983 49.4035 262.722 49.6675 262.39 49.9203C262.064 50.1731 261.671 50.381 261.211 50.5439C260.75 50.7012 260.225 50.7799 259.635 50.7799ZM267.134 43.4403V50.6113H264.708V41.4938H266.983L267.134 43.4403ZM266.78 45.7323H266.123C266.123 45.0582 266.21 44.4515 266.384 43.9122C266.559 43.3673 266.803 42.9038 267.118 42.5218C267.432 42.1342 267.806 41.8392 268.238 41.637C268.676 41.4291 269.165 41.3252 269.705 41.3252C270.131 41.3252 270.522 41.387 270.876 41.5106C271.23 41.6342 271.533 41.8308 271.786 42.1005C272.044 42.3701 272.241 42.7268 272.376 43.1706C272.516 43.6144 272.586 44.1566 272.586 44.797V50.6113H270.143V44.7886C270.143 44.3841 270.087 44.0695 269.974 43.8448C269.862 43.6201 269.696 43.4628 269.477 43.3729C269.264 43.2774 268.999 43.2296 268.685 43.2296C268.359 43.2296 268.075 43.2942 267.834 43.4234C267.598 43.5526 267.401 43.7324 267.244 43.9627C267.092 44.1875 266.977 44.4515 266.898 44.7548C266.82 45.0582 266.78 45.384 266.78 45.7323ZM278.898 41.4938V43.2128H273.589V41.4938H278.898ZM274.904 39.2438H277.331V47.8643C277.331 48.1283 277.364 48.3305 277.432 48.471C277.505 48.6114 277.611 48.7097 277.752 48.7659C277.892 48.8165 278.069 48.8417 278.283 48.8417C278.434 48.8417 278.569 48.8361 278.687 48.8249C278.811 48.808 278.915 48.7912 278.999 48.7743L279.007 50.5608C278.8 50.6282 278.575 50.6815 278.333 50.7209C278.092 50.7602 277.825 50.7799 277.533 50.7799C276.999 50.7799 276.533 50.6928 276.134 50.5186C275.741 50.3389 275.437 50.0524 275.224 49.6591C275.01 49.2659 274.904 48.7491 274.904 48.1086V39.2438ZM292.734 43.3982V45.5217C292.734 46.443 292.636 47.2379 292.439 47.9064C292.243 48.5693 291.959 49.1142 291.588 49.5412C291.223 49.9625 290.788 50.2743 290.282 50.4765C289.777 50.6787 289.215 50.7799 288.597 50.7799C288.103 50.7799 287.642 50.7181 287.215 50.5945C286.788 50.4653 286.403 50.2658 286.061 49.9962C285.723 49.7265 285.431 49.3867 285.184 48.9766C284.943 48.5609 284.757 48.0665 284.628 47.4935C284.499 46.9205 284.434 46.2632 284.434 45.5217V43.3982C284.434 42.4769 284.533 41.6876 284.729 41.0303C284.931 40.3674 285.215 39.8253 285.58 39.404C285.951 38.9826 286.389 38.6736 286.895 38.477C287.4 38.2748 287.962 38.1737 288.58 38.1737C289.074 38.1737 289.532 38.2383 289.954 38.3675C290.381 38.4911 290.765 38.6849 291.108 38.9489C291.451 39.213 291.743 39.5528 291.984 39.9685C292.226 40.3786 292.411 40.8702 292.541 41.4432C292.67 42.0106 292.734 42.6622 292.734 43.3982ZM290.299 45.8419V43.0695C290.299 42.6257 290.274 42.2381 290.223 41.9067C290.178 41.5752 290.108 41.2943 290.013 41.064C289.917 40.828 289.799 40.637 289.659 40.491C289.518 40.3449 289.358 40.2382 289.178 40.1708C288.999 40.1034 288.799 40.0697 288.58 40.0697C288.305 40.0697 288.06 40.123 287.847 40.2298C287.639 40.3365 287.462 40.5078 287.316 40.7438C287.17 40.9741 287.058 41.2831 286.979 41.6707C286.906 42.0527 286.869 42.519 286.869 43.0695V45.8419C286.869 46.2857 286.892 46.6761 286.937 47.0132C286.987 47.3502 287.06 47.6395 287.156 47.8811C287.257 48.1171 287.375 48.3109 287.51 48.4625C287.65 48.6086 287.81 48.7153 287.99 48.7828C288.176 48.8502 288.378 48.8839 288.597 48.8839C288.867 48.8839 289.105 48.8305 289.313 48.7238C289.527 48.6114 289.706 48.4373 289.853 48.2013C290.004 47.9598 290.117 47.6452 290.19 47.2575C290.263 46.8699 290.299 46.398 290.299 45.8419ZM302.779 48.7153V50.6113H294.386V48.9934L298.355 44.738C298.754 44.2942 299.068 43.9038 299.299 43.5667C299.529 43.224 299.695 42.9178 299.796 42.6482C299.903 42.3729 299.956 42.1117 299.956 41.8645C299.956 41.4938 299.894 41.1763 299.771 40.9123C299.647 40.6427 299.464 40.4348 299.223 40.2887C298.987 40.1427 298.695 40.0697 298.347 40.0697C297.976 40.0697 297.656 40.1595 297.386 40.3393C297.122 40.5191 296.92 40.7691 296.779 41.0893C296.644 41.4095 296.577 41.7718 296.577 42.1763H294.142C294.142 41.446 294.316 40.7775 294.664 40.1708C295.012 39.5584 295.504 39.0725 296.139 38.713C296.774 38.3478 297.526 38.1652 298.397 38.1652C299.257 38.1652 299.981 38.3057 300.571 38.5866C301.167 38.8618 301.616 39.2607 301.919 39.7832C302.228 40.3 302.383 40.9179 302.383 41.637C302.383 42.0415 302.318 42.4375 302.189 42.8252C302.06 43.2072 301.874 43.5892 301.633 43.9712C301.397 44.3476 301.11 44.7296 300.773 45.1172C300.436 45.5048 300.063 45.9065 299.653 46.3222L297.521 48.7153H302.779Z" fill="#D4666A"/>
<path d="M420.078 62.2256C429.609 62.2256 437.336 54.4988 437.336 44.9673C437.336 35.4358 429.609 27.709 420.078 27.709C410.547 27.709 402.82 35.4358 402.82 44.9673C402.82 54.4988 410.547 62.2256 420.078 62.2256Z" fill="#D4666A"/>
<path d="M415.359 49.672L424.771 40.2598" stroke="white" stroke-width="2.50931" stroke-linecap="round" stroke-linejoin="round"/>
<path d="M415.359 40.2598L424.771 49.672" stroke="white" stroke-width="2.50931" stroke-linecap="round" stroke-linejoin="round"/>
</g>
<g opacity="0.2">
<path d="M290.645 106H11.3546C5.63591 106 1 110.636 1 116.355V183.228C1 188.947 5.63593 193.583 11.3546 193.583H290.645C296.364 193.583 301 188.947 301 183.228V116.355C301 110.636 296.364 106 290.645 106Z" fill="#FFEDED" stroke="#D4666A" stroke-width="1.6193"/>
<path d="M31.7934 151.582H34.313C34.2624 152.408 34.0349 153.141 33.6304 153.782C33.2316 154.422 32.6726 154.922 31.9535 155.282C31.2401 155.641 30.3806 155.821 29.375 155.821C28.5885 155.821 27.8835 155.686 27.2599 155.416C26.6364 155.141 26.1027 154.748 25.6589 154.237C25.2207 153.725 24.8864 153.108 24.6561 152.383C24.4258 151.658 24.3106 150.846 24.3106 149.948V149.096C24.3106 148.198 24.4286 147.386 24.6645 146.661C24.9061 145.931 25.2488 145.31 25.6926 144.799C26.142 144.288 26.6785 143.894 27.3021 143.619C27.9256 143.344 28.6222 143.206 29.3919 143.206C30.4143 143.206 31.2766 143.392 31.9788 143.762C32.6867 144.133 33.2344 144.644 33.622 145.296C34.0153 145.948 34.2512 146.689 34.3298 147.521H31.8019C31.7738 147.026 31.6755 146.608 31.5069 146.265C31.3384 145.917 31.0828 145.656 30.7401 145.481C30.4031 145.302 29.9536 145.212 29.3919 145.212C28.9705 145.212 28.6026 145.29 28.288 145.448C27.9734 145.605 27.7094 145.844 27.4959 146.164C27.2824 146.484 27.1223 146.889 27.0156 147.377C26.9144 147.861 26.8639 148.428 26.8639 149.08V149.948C26.8639 150.582 26.9116 151.141 27.0071 151.624C27.1026 152.102 27.2487 152.506 27.4453 152.838C27.6476 153.164 27.906 153.411 28.2206 153.579C28.5408 153.742 28.9256 153.824 29.375 153.824C29.9031 153.824 30.3385 153.74 30.6811 153.571C31.0238 153.402 31.285 153.152 31.4648 152.821C31.6502 152.49 31.7597 152.077 31.7934 151.582ZM35.4337 151.186V151.009C35.4337 150.341 35.5292 149.726 35.7202 149.164C35.9112 148.596 36.1893 148.105 36.5545 147.689C36.9196 147.273 37.369 146.95 37.9027 146.72C38.4364 146.484 39.0487 146.366 39.7397 146.366C40.4307 146.366 41.0458 146.484 41.5851 146.72C42.1244 146.95 42.5767 147.273 42.9418 147.689C43.3126 148.105 43.5935 148.596 43.7845 149.164C43.9755 149.726 44.071 150.341 44.071 151.009V151.186C44.071 151.849 43.9755 152.464 43.7845 153.032C43.5935 153.593 43.3126 154.085 42.9418 154.506C42.5767 154.922 42.1273 155.245 41.5936 155.475C41.0599 155.706 40.4476 155.821 39.7566 155.821C39.0656 155.821 38.4505 155.706 37.9112 155.475C37.3775 155.245 36.9252 154.922 36.5545 154.506C36.1893 154.085 35.9112 153.593 35.7202 153.032C35.5292 152.464 35.4337 151.849 35.4337 151.186ZM37.8606 151.009V151.186C37.8606 151.568 37.8943 151.925 37.9617 152.256C38.0291 152.588 38.1359 152.88 38.2819 153.133C38.4336 153.38 38.6302 153.574 38.8718 153.714C39.1133 153.855 39.4083 153.925 39.7566 153.925C40.0936 153.925 40.383 153.855 40.6245 153.714C40.8661 153.574 41.0599 153.38 41.206 153.133C41.352 152.88 41.4587 152.588 41.5262 152.256C41.5992 151.925 41.6357 151.568 41.6357 151.186V151.009C41.6357 150.639 41.5992 150.29 41.5262 149.964C41.4587 149.633 41.3492 149.341 41.1975 149.088C41.0515 148.83 40.8577 148.627 40.6161 148.481C40.3745 148.335 40.0824 148.262 39.7397 148.262C39.397 148.262 39.1049 148.335 38.8634 148.481C38.6274 148.627 38.4336 148.83 38.2819 149.088C38.1359 149.341 38.0291 149.633 37.9617 149.964C37.8943 150.29 37.8606 150.639 37.8606 151.009ZM47.9894 148.422V155.652H45.5541V146.535H47.8377L47.9894 148.422ZM47.6523 150.773H46.9782C46.9782 150.139 47.054 149.554 47.2057 149.021C47.363 148.481 47.5905 148.015 47.8882 147.622C48.1916 147.223 48.5652 146.914 49.009 146.695C49.4528 146.476 49.9668 146.366 50.551 146.366C50.9555 146.366 51.3263 146.428 51.6634 146.552C52.0004 146.67 52.2897 146.858 52.5313 147.116C52.7785 147.369 52.9695 147.7 53.1043 148.111C53.2391 148.515 53.3065 149.001 53.3065 149.568V155.652H50.8797V149.838C50.8797 149.422 50.8235 149.102 50.7112 148.877C50.5988 148.653 50.4387 148.495 50.2308 148.405C50.0286 148.316 49.7842 148.271 49.4977 148.271C49.1831 148.271 48.9079 148.335 48.6719 148.464C48.4416 148.594 48.2506 148.773 48.0989 149.004C47.9472 149.228 47.8349 149.493 47.7618 149.796C47.6888 150.099 47.6523 150.425 47.6523 150.773ZM53.079 150.495L52.2111 150.605C52.2111 150.009 52.2841 149.456 52.4302 148.945C52.5819 148.434 52.8038 147.984 53.0959 147.597C53.3936 147.209 53.7616 146.908 54.1998 146.695C54.6379 146.476 55.1435 146.366 55.7165 146.366C56.1547 146.366 56.5536 146.431 56.9131 146.56C57.2727 146.684 57.5788 146.883 57.8316 147.158C58.09 147.428 58.2867 147.782 58.4215 148.22C58.5619 148.658 58.6322 149.195 58.6322 149.83V155.652H56.1969V149.83C56.1969 149.408 56.1407 149.088 56.0283 148.869C55.9216 148.644 55.7643 148.49 55.5564 148.405C55.3542 148.316 55.1126 148.271 54.8318 148.271C54.5396 148.271 54.284 148.33 54.0649 148.448C53.8458 148.56 53.6633 148.717 53.5172 148.919C53.3711 149.122 53.2616 149.358 53.1886 149.627C53.1155 149.891 53.079 150.181 53.079 150.495ZM62.9381 148.287V159.158H60.5113V146.535H62.7612L62.9381 148.287ZM68.7104 150.992V151.169C68.7104 151.832 68.6317 152.447 68.4744 153.015C68.3227 153.582 68.098 154.077 67.8003 154.498C67.5025 154.914 67.1318 155.239 66.688 155.475C66.2498 155.706 65.7442 155.821 65.1712 155.821C64.615 155.821 64.1319 155.709 63.7218 155.484C63.3117 155.259 62.9662 154.945 62.6853 154.54C62.4101 154.13 62.1882 153.655 62.0196 153.116C61.8511 152.577 61.7219 151.998 61.632 151.38V150.917C61.7219 150.254 61.8511 149.647 62.0196 149.096C62.1882 148.54 62.4101 148.06 62.6853 147.656C62.9662 147.245 63.3089 146.928 63.7134 146.703C64.1235 146.479 64.6038 146.366 65.1543 146.366C65.733 146.366 66.2414 146.476 66.6796 146.695C67.1234 146.914 67.4941 147.229 67.7919 147.639C68.0952 148.049 68.3227 148.537 68.4744 149.105C68.6317 149.672 68.7104 150.301 68.7104 150.992ZM66.2751 151.169V150.992C66.2751 150.605 66.2414 150.248 66.174 149.922C66.1122 149.591 66.011 149.301 65.8706 149.054C65.7358 148.807 65.556 148.616 65.3313 148.481C65.1122 148.341 64.8454 148.271 64.5308 148.271C64.1993 148.271 63.9156 148.324 63.6797 148.431C63.4494 148.537 63.2612 148.692 63.1151 148.894C62.969 149.096 62.8595 149.338 62.7865 149.619C62.7134 149.9 62.6685 150.217 62.6516 150.571V151.742C62.6797 152.158 62.7584 152.532 62.8876 152.863C63.0168 153.189 63.2162 153.447 63.4859 153.638C63.7555 153.829 64.1094 153.925 64.5476 153.925C64.8678 153.925 65.1375 153.855 65.3566 153.714C65.5757 153.568 65.7526 153.369 65.8875 153.116C66.0279 152.863 66.1262 152.571 66.1824 152.24C66.2442 151.908 66.2751 151.551 66.2751 151.169ZM69.8311 151.186V151.009C69.8311 150.341 69.9266 149.726 70.1176 149.164C70.3086 148.596 70.5867 148.105 70.9518 147.689C71.317 147.273 71.7664 146.95 72.3001 146.72C72.8338 146.484 73.4461 146.366 74.1371 146.366C74.8281 146.366 75.4432 146.484 75.9825 146.72C76.5218 146.95 76.974 147.273 77.3392 147.689C77.71 148.105 77.9909 148.596 78.1819 149.164C78.3729 149.726 78.4684 150.341 78.4684 151.009V151.186C78.4684 151.849 78.3729 152.464 78.1819 153.032C77.9909 153.593 77.71 154.085 77.3392 154.506C76.974 154.922 76.5246 155.245 75.9909 155.475C75.4573 155.706 74.8449 155.821 74.1539 155.821C73.463 155.821 72.8478 155.706 72.3085 155.475C71.7748 155.245 71.3226 154.922 70.9518 154.506C70.5867 154.085 70.3086 153.593 70.1176 153.032C69.9266 152.464 69.8311 151.849 69.8311 151.186ZM72.258 151.009V151.186C72.258 151.568 72.2917 151.925 72.3591 152.256C72.4265 152.588 72.5332 152.88 72.6793 153.133C72.831 153.38 73.0276 153.574 73.2692 153.714C73.5107 153.855 73.8056 153.925 74.1539 153.925C74.491 153.925 74.7803 153.855 75.0219 153.714C75.2634 153.574 75.4573 153.38 75.6033 153.133C75.7494 152.88 75.8561 152.588 75.9235 152.256C75.9966 151.925 76.0331 151.568 76.0331 151.186V151.009C76.0331 150.639 75.9966 150.29 75.9235 149.964C75.8561 149.633 75.7466 149.341 75.5949 149.088C75.4488 148.83 75.255 148.627 75.0135 148.481C74.7719 148.335 74.4798 148.262 74.1371 148.262C73.7944 148.262 73.5023 148.335 73.2607 148.481C73.0248 148.627 72.831 148.83 72.6793 149.088C72.5332 149.341 72.4265 149.633 72.3591 149.964C72.2917 150.29 72.258 150.639 72.258 151.009ZM82.3362 148.481V155.652H79.9093V146.535H82.1845L82.3362 148.481ZM81.9823 150.773H81.325C81.325 150.099 81.4121 149.493 81.5862 148.953C81.7604 148.408 82.0047 147.945 82.3193 147.563C82.6339 147.175 83.0075 146.88 83.4401 146.678C83.8782 146.47 84.367 146.366 84.9063 146.366C85.3332 146.366 85.7237 146.428 86.0776 146.552C86.4315 146.675 86.7349 146.872 86.9877 147.141C87.2461 147.411 87.4427 147.768 87.5775 148.212C87.718 148.655 87.7882 149.198 87.7882 149.838V155.652H85.3445V149.83C85.3445 149.425 85.2883 149.11 85.1759 148.886C85.0636 148.661 84.8979 148.504 84.6788 148.414C84.4653 148.318 84.2013 148.271 83.8867 148.271C83.5608 148.271 83.2771 148.335 83.0356 148.464C82.7996 148.594 82.603 148.773 82.4457 149.004C82.294 149.228 82.1789 149.493 82.1002 149.796C82.0216 150.099 81.9823 150.425 81.9823 150.773ZM93.83 155.821C93.1222 155.821 92.4874 155.709 91.9256 155.484C91.3639 155.253 90.8864 154.936 90.4931 154.532C90.1055 154.127 89.8077 153.658 89.5999 153.124C89.392 152.585 89.2881 152.012 89.2881 151.405V151.068C89.2881 150.377 89.3864 149.745 89.583 149.172C89.7797 148.599 90.0605 148.102 90.4257 147.681C90.7965 147.259 91.2459 146.936 91.774 146.712C92.302 146.481 92.8975 146.366 93.5604 146.366C94.2064 146.366 94.7794 146.473 95.2794 146.686C95.7794 146.9 96.1979 147.203 96.535 147.597C96.8777 147.99 97.1361 148.462 97.3102 149.012C97.4844 149.557 97.5715 150.164 97.5715 150.832V151.844H90.3246V150.226H95.1867V150.04C95.1867 149.703 95.1249 149.403 95.0013 149.139C94.8834 148.869 94.7036 148.655 94.462 148.498C94.2205 148.341 93.9115 148.262 93.5351 148.262C93.2149 148.262 92.9396 148.332 92.7093 148.473C92.479 148.613 92.2908 148.81 92.1447 149.063C92.0043 149.316 91.8975 149.613 91.8245 149.956C91.7571 150.293 91.7234 150.664 91.7234 151.068V151.405C91.7234 151.77 91.774 152.108 91.8751 152.417C91.9818 152.726 92.1307 152.992 92.3217 153.217C92.5183 153.442 92.7542 153.616 93.0295 153.74C93.3104 153.863 93.6278 153.925 93.9817 153.925C94.4199 153.925 94.8272 153.841 95.2036 153.672C95.5856 153.498 95.9142 153.237 96.1895 152.888L97.3692 154.169C97.1782 154.445 96.917 154.709 96.5855 154.961C96.2597 155.214 95.8665 155.422 95.4058 155.585C94.9452 155.742 94.4199 155.821 93.83 155.821ZM101.33 148.481V155.652H98.9029V146.535H101.178L101.33 148.481ZM100.976 150.773H100.319C100.319 150.099 100.406 149.493 100.58 148.953C100.754 148.408 100.998 147.945 101.313 147.563C101.627 147.175 102.001 146.88 102.434 146.678C102.872 146.47 103.361 146.366 103.9 146.366C104.327 146.366 104.717 146.428 105.071 146.552C105.425 146.675 105.728 146.872 105.981 147.141C106.24 147.411 106.436 147.768 106.571 148.212C106.712 148.655 106.782 149.198 106.782 149.838V155.652H104.338V149.83C104.338 149.425 104.282 149.11 104.169 148.886C104.057 148.661 103.891 148.504 103.672 148.414C103.459 148.318 103.195 148.271 102.88 148.271C102.554 148.271 102.271 148.335 102.029 148.464C101.793 148.594 101.597 148.773 101.439 149.004C101.288 149.228 101.172 149.493 101.094 149.796C101.015 150.099 100.976 150.425 100.976 150.773ZM113.093 146.535V148.254H107.784V146.535H113.093ZM109.099 144.285H111.526V152.905C111.526 153.169 111.56 153.372 111.627 153.512C111.7 153.652 111.807 153.751 111.947 153.807C112.088 153.857 112.265 153.883 112.478 153.883C112.63 153.883 112.765 153.877 112.883 153.866C113.006 153.849 113.11 153.832 113.194 153.815L113.203 155.602C112.995 155.669 112.77 155.723 112.529 155.762C112.287 155.801 112.02 155.821 111.728 155.821C111.194 155.821 110.728 155.734 110.329 155.56C109.936 155.38 109.633 155.093 109.419 154.7C109.206 154.307 109.099 153.79 109.099 153.15V144.285ZM126.93 148.439V150.563C126.93 151.484 126.831 152.279 126.635 152.947C126.438 153.61 126.154 154.155 125.784 154.582C125.419 155.003 124.983 155.315 124.478 155.518C123.972 155.72 123.41 155.821 122.792 155.821C122.298 155.821 121.837 155.759 121.41 155.635C120.983 155.506 120.599 155.307 120.256 155.037C119.919 154.768 119.627 154.428 119.379 154.018C119.138 153.602 118.953 153.108 118.823 152.535C118.694 151.961 118.63 151.304 118.63 150.563V148.439C118.63 147.518 118.728 146.729 118.924 146.071C119.127 145.408 119.41 144.866 119.776 144.445C120.146 144.024 120.584 143.715 121.09 143.518C121.596 143.316 122.157 143.215 122.775 143.215C123.27 143.215 123.728 143.279 124.149 143.408C124.576 143.532 124.961 143.726 125.303 143.99C125.646 144.254 125.938 144.594 126.18 145.01C126.421 145.42 126.607 145.911 126.736 146.484C126.865 147.052 126.93 147.703 126.93 148.439ZM124.494 150.883V148.111C124.494 147.667 124.469 147.279 124.419 146.948C124.374 146.616 124.303 146.335 124.208 146.105C124.112 145.869 123.994 145.678 123.854 145.532C123.714 145.386 123.553 145.279 123.374 145.212C123.194 145.144 122.994 145.111 122.775 145.111C122.5 145.111 122.256 145.164 122.042 145.271C121.834 145.378 121.657 145.549 121.511 145.785C121.365 146.015 121.253 146.324 121.174 146.712C121.101 147.094 121.065 147.56 121.065 148.111V150.883C121.065 151.327 121.087 151.717 121.132 152.054C121.183 152.391 121.256 152.681 121.351 152.922C121.452 153.158 121.57 153.352 121.705 153.504C121.846 153.65 122.006 153.756 122.186 153.824C122.371 153.891 122.573 153.925 122.792 153.925C123.062 153.925 123.301 153.872 123.509 153.765C123.722 153.652 123.902 153.478 124.048 153.242C124.2 153.001 124.312 152.686 124.385 152.299C124.458 151.911 124.494 151.439 124.494 150.883ZM131.067 148.464H132.365C132.781 148.464 133.123 148.394 133.393 148.254C133.663 148.108 133.862 147.905 133.991 147.647C134.126 147.383 134.193 147.077 134.193 146.729C134.193 146.414 134.132 146.136 134.008 145.894C133.89 145.647 133.708 145.456 133.46 145.321C133.213 145.181 132.901 145.111 132.525 145.111C132.227 145.111 131.952 145.17 131.699 145.288C131.446 145.406 131.244 145.571 131.092 145.785C130.941 145.998 130.865 146.257 130.865 146.56H128.43C128.43 145.886 128.609 145.299 128.969 144.799C129.334 144.299 129.823 143.908 130.435 143.628C131.048 143.347 131.722 143.206 132.458 143.206C133.289 143.206 134.016 143.341 134.64 143.611C135.264 143.875 135.75 144.265 136.098 144.782C136.446 145.299 136.62 145.939 136.62 146.703C136.62 147.091 136.53 147.467 136.351 147.832C136.171 148.192 135.912 148.518 135.575 148.81C135.244 149.096 134.839 149.327 134.362 149.501C133.884 149.669 133.348 149.754 132.752 149.754H131.067V148.464ZM131.067 150.31V149.054H132.752C133.421 149.054 134.008 149.13 134.514 149.282C135.019 149.434 135.443 149.653 135.786 149.939C136.129 150.22 136.387 150.554 136.561 150.942C136.735 151.324 136.823 151.748 136.823 152.214C136.823 152.787 136.713 153.299 136.494 153.748C136.275 154.192 135.966 154.568 135.567 154.877C135.174 155.186 134.713 155.422 134.185 155.585C133.657 155.742 133.081 155.821 132.458 155.821C131.941 155.821 131.432 155.751 130.932 155.61C130.438 155.464 129.989 155.248 129.584 154.961C129.185 154.669 128.865 154.304 128.623 153.866C128.388 153.422 128.27 152.897 128.27 152.29H130.705C130.705 152.605 130.783 152.886 130.941 153.133C131.098 153.38 131.314 153.574 131.59 153.714C131.871 153.855 132.182 153.925 132.525 153.925C132.913 153.925 133.244 153.855 133.519 153.714C133.8 153.568 134.014 153.366 134.16 153.108C134.311 152.843 134.387 152.537 134.387 152.189C134.387 151.74 134.306 151.38 134.143 151.11C133.98 150.835 133.747 150.633 133.443 150.504C133.14 150.374 132.781 150.31 132.365 150.31H131.067Z" fill="#D4666A"/>
<path d="M254.406 167.267C263.937 167.267 271.664 159.54 271.664 150.008C271.664 140.477 263.937 132.75 254.406 132.75C244.875 132.75 237.148 140.477 237.148 150.008C237.148 159.54 244.875 167.267 254.406 167.267Z" fill="#D4666A"/>
<path d="M249.688 154.713L259.099 145.301" stroke="white" stroke-width="2.50931" stroke-linecap="round" stroke-linejoin="round"/>
<path d="M249.688 145.301L259.099 154.713" stroke="white" stroke-width="2.50931" stroke-linecap="round" stroke-linejoin="round"/>
</g>
</svg>
