<svg width="504" height="235" viewBox="0 0 504 235" fill="none" xmlns="http://www.w3.org/2000/svg">
<g opacity="0.2">
<path d="M490.671 132H167C160.373 132 155 137.373 155 144V221.5C155 228.127 160.373 233.5 167 233.5H490.671C497.299 233.5 502.671 228.127 502.671 221.5V144C502.671 137.373 497.299 132 490.671 132Z" fill="#FFEDED" stroke="#D4666A" stroke-width="1.87662"/>
<path d="M190.684 184.283H193.604C193.545 185.24 193.281 186.09 192.812 186.832C192.35 187.574 191.702 188.154 190.869 188.57C190.042 188.987 189.046 189.195 187.881 189.195C186.969 189.195 186.152 189.039 185.43 188.727C184.707 188.408 184.089 187.952 183.574 187.359C183.066 186.767 182.679 186.051 182.412 185.211C182.145 184.371 182.012 183.43 182.012 182.389V181.402C182.012 180.361 182.148 179.42 182.422 178.58C182.702 177.734 183.099 177.014 183.613 176.422C184.134 175.829 184.756 175.374 185.479 175.055C186.201 174.736 187.008 174.576 187.9 174.576C189.085 174.576 190.085 174.791 190.898 175.221C191.719 175.65 192.354 176.243 192.803 176.998C193.258 177.753 193.532 178.613 193.623 179.576H190.693C190.661 179.003 190.547 178.518 190.352 178.121C190.156 177.717 189.86 177.415 189.463 177.213C189.072 177.005 188.551 176.9 187.9 176.9C187.412 176.9 186.986 176.992 186.621 177.174C186.257 177.356 185.951 177.633 185.703 178.004C185.456 178.375 185.27 178.844 185.146 179.41C185.029 179.97 184.971 180.628 184.971 181.383V182.389C184.971 183.124 185.026 183.772 185.137 184.332C185.247 184.885 185.417 185.354 185.645 185.738C185.879 186.116 186.178 186.402 186.543 186.598C186.914 186.786 187.36 186.881 187.881 186.881C188.493 186.881 188.997 186.783 189.395 186.588C189.792 186.393 190.094 186.103 190.303 185.719C190.518 185.335 190.645 184.856 190.684 184.283ZM194.902 183.824V183.619C194.902 182.844 195.013 182.132 195.234 181.48C195.456 180.823 195.778 180.253 196.201 179.771C196.624 179.29 197.145 178.915 197.764 178.648C198.382 178.375 199.092 178.238 199.893 178.238C200.693 178.238 201.406 178.375 202.031 178.648C202.656 178.915 203.18 179.29 203.604 179.771C204.033 180.253 204.359 180.823 204.58 181.48C204.801 182.132 204.912 182.844 204.912 183.619V183.824C204.912 184.592 204.801 185.305 204.58 185.963C204.359 186.614 204.033 187.184 203.604 187.672C203.18 188.154 202.66 188.528 202.041 188.795C201.423 189.062 200.713 189.195 199.912 189.195C199.111 189.195 198.398 189.062 197.773 188.795C197.155 188.528 196.631 188.154 196.201 187.672C195.778 187.184 195.456 186.614 195.234 185.963C195.013 185.305 194.902 184.592 194.902 183.824ZM197.715 183.619V183.824C197.715 184.267 197.754 184.68 197.832 185.064C197.91 185.449 198.034 185.787 198.203 186.08C198.379 186.367 198.607 186.591 198.887 186.754C199.167 186.917 199.508 186.998 199.912 186.998C200.303 186.998 200.638 186.917 200.918 186.754C201.198 186.591 201.423 186.367 201.592 186.08C201.761 185.787 201.885 185.449 201.963 185.064C202.048 184.68 202.09 184.267 202.09 183.824V183.619C202.09 183.189 202.048 182.786 201.963 182.408C201.885 182.024 201.758 181.686 201.582 181.393C201.413 181.093 201.188 180.859 200.908 180.689C200.628 180.52 200.29 180.436 199.893 180.436C199.495 180.436 199.157 180.52 198.877 180.689C198.604 180.859 198.379 181.093 198.203 181.393C198.034 181.686 197.91 182.024 197.832 182.408C197.754 182.786 197.715 183.189 197.715 183.619ZM209.453 180.621V189H206.631V178.434H209.277L209.453 180.621ZM209.062 183.346H208.281C208.281 182.61 208.369 181.933 208.545 181.314C208.727 180.689 208.991 180.149 209.336 179.693C209.688 179.231 210.12 178.873 210.635 178.619C211.149 178.365 211.745 178.238 212.422 178.238C212.891 178.238 213.32 178.31 213.711 178.453C214.102 178.59 214.437 178.808 214.717 179.107C215.003 179.4 215.225 179.785 215.381 180.26C215.537 180.729 215.615 181.292 215.615 181.949V189H212.803V182.262C212.803 181.78 212.738 181.409 212.607 181.148C212.477 180.888 212.292 180.706 212.051 180.602C211.816 180.497 211.533 180.445 211.201 180.445C210.837 180.445 210.518 180.52 210.244 180.67C209.977 180.82 209.756 181.028 209.58 181.295C209.404 181.555 209.274 181.861 209.189 182.213C209.105 182.564 209.062 182.942 209.062 183.346ZM215.352 183.023L214.346 183.15C214.346 182.46 214.43 181.819 214.6 181.227C214.775 180.634 215.033 180.113 215.371 179.664C215.716 179.215 216.143 178.867 216.65 178.619C217.158 178.365 217.744 178.238 218.408 178.238C218.916 178.238 219.378 178.313 219.795 178.463C220.212 178.606 220.566 178.837 220.859 179.156C221.159 179.469 221.387 179.879 221.543 180.387C221.706 180.895 221.787 181.516 221.787 182.252V189H218.965V182.252C218.965 181.764 218.9 181.393 218.77 181.139C218.646 180.878 218.464 180.699 218.223 180.602C217.988 180.497 217.708 180.445 217.383 180.445C217.044 180.445 216.748 180.514 216.494 180.65C216.24 180.781 216.029 180.963 215.859 181.197C215.69 181.432 215.563 181.705 215.479 182.018C215.394 182.324 215.352 182.659 215.352 183.023ZM226.777 180.465V193.062H223.965V178.434H226.572L226.777 180.465ZM233.467 183.6V183.805C233.467 184.573 233.376 185.286 233.193 185.943C233.018 186.601 232.757 187.174 232.412 187.662C232.067 188.144 231.637 188.521 231.123 188.795C230.615 189.062 230.029 189.195 229.365 189.195C228.721 189.195 228.161 189.065 227.686 188.805C227.21 188.544 226.81 188.18 226.484 187.711C226.165 187.236 225.908 186.686 225.713 186.061C225.518 185.436 225.368 184.765 225.264 184.049V183.512C225.368 182.743 225.518 182.04 225.713 181.402C225.908 180.758 226.165 180.201 226.484 179.732C226.81 179.257 227.207 178.889 227.676 178.629C228.151 178.368 228.708 178.238 229.346 178.238C230.016 178.238 230.605 178.365 231.113 178.619C231.628 178.873 232.057 179.238 232.402 179.713C232.754 180.188 233.018 180.755 233.193 181.412C233.376 182.07 233.467 182.799 233.467 183.6ZM230.645 183.805V183.6C230.645 183.15 230.605 182.737 230.527 182.359C230.456 181.975 230.339 181.64 230.176 181.354C230.02 181.067 229.811 180.846 229.551 180.689C229.297 180.527 228.988 180.445 228.623 180.445C228.239 180.445 227.91 180.507 227.637 180.631C227.37 180.755 227.152 180.934 226.982 181.168C226.813 181.402 226.686 181.682 226.602 182.008C226.517 182.333 226.465 182.701 226.445 183.111V184.469C226.478 184.951 226.569 185.383 226.719 185.768C226.868 186.145 227.1 186.445 227.412 186.666C227.725 186.887 228.135 186.998 228.643 186.998C229.014 186.998 229.326 186.917 229.58 186.754C229.834 186.585 230.039 186.354 230.195 186.061C230.358 185.768 230.472 185.429 230.537 185.045C230.609 184.661 230.645 184.247 230.645 183.805ZM234.766 183.824V183.619C234.766 182.844 234.876 182.132 235.098 181.48C235.319 180.823 235.641 180.253 236.064 179.771C236.488 179.29 237.008 178.915 237.627 178.648C238.245 178.375 238.955 178.238 239.756 178.238C240.557 178.238 241.27 178.375 241.895 178.648C242.52 178.915 243.044 179.29 243.467 179.771C243.896 180.253 244.222 180.823 244.443 181.48C244.665 182.132 244.775 182.844 244.775 183.619V183.824C244.775 184.592 244.665 185.305 244.443 185.963C244.222 186.614 243.896 187.184 243.467 187.672C243.044 188.154 242.523 188.528 241.904 188.795C241.286 189.062 240.576 189.195 239.775 189.195C238.975 189.195 238.262 189.062 237.637 188.795C237.018 188.528 236.494 188.154 236.064 187.672C235.641 187.184 235.319 186.614 235.098 185.963C234.876 185.305 234.766 184.592 234.766 183.824ZM237.578 183.619V183.824C237.578 184.267 237.617 184.68 237.695 185.064C237.773 185.449 237.897 185.787 238.066 186.08C238.242 186.367 238.47 186.591 238.75 186.754C239.03 186.917 239.372 186.998 239.775 186.998C240.166 186.998 240.501 186.917 240.781 186.754C241.061 186.591 241.286 186.367 241.455 186.08C241.624 185.787 241.748 185.449 241.826 185.064C241.911 184.68 241.953 184.267 241.953 183.824V183.619C241.953 183.189 241.911 182.786 241.826 182.408C241.748 182.024 241.621 181.686 241.445 181.393C241.276 181.093 241.051 180.859 240.771 180.689C240.492 180.52 240.153 180.436 239.756 180.436C239.359 180.436 239.02 180.52 238.74 180.689C238.467 180.859 238.242 181.093 238.066 181.393C237.897 181.686 237.773 182.024 237.695 182.408C237.617 182.786 237.578 183.189 237.578 183.619ZM249.258 180.689V189H246.445V178.434H249.082L249.258 180.689ZM248.848 183.346H248.086C248.086 182.564 248.187 181.861 248.389 181.236C248.59 180.605 248.874 180.068 249.238 179.625C249.603 179.176 250.036 178.834 250.537 178.6C251.045 178.359 251.611 178.238 252.236 178.238C252.731 178.238 253.184 178.31 253.594 178.453C254.004 178.596 254.355 178.824 254.648 179.137C254.948 179.449 255.176 179.863 255.332 180.377C255.495 180.891 255.576 181.52 255.576 182.262V189H252.744V182.252C252.744 181.783 252.679 181.419 252.549 181.158C252.419 180.898 252.227 180.715 251.973 180.611C251.725 180.501 251.419 180.445 251.055 180.445C250.677 180.445 250.348 180.52 250.068 180.67C249.795 180.82 249.567 181.028 249.385 181.295C249.209 181.555 249.076 181.861 248.984 182.213C248.893 182.564 248.848 182.942 248.848 183.346ZM262.578 189.195C261.758 189.195 261.022 189.065 260.371 188.805C259.72 188.538 259.167 188.17 258.711 187.701C258.262 187.232 257.917 186.689 257.676 186.07C257.435 185.445 257.314 184.781 257.314 184.078V183.688C257.314 182.887 257.428 182.154 257.656 181.49C257.884 180.826 258.21 180.25 258.633 179.762C259.062 179.273 259.583 178.899 260.195 178.639C260.807 178.372 261.497 178.238 262.266 178.238C263.014 178.238 263.678 178.362 264.258 178.609C264.837 178.857 265.322 179.208 265.713 179.664C266.11 180.12 266.41 180.667 266.611 181.305C266.813 181.936 266.914 182.639 266.914 183.414V184.586H258.516V182.711H264.15V182.496C264.15 182.105 264.079 181.757 263.936 181.451C263.799 181.139 263.59 180.891 263.311 180.709C263.031 180.527 262.673 180.436 262.236 180.436C261.865 180.436 261.546 180.517 261.279 180.68C261.012 180.842 260.794 181.07 260.625 181.363C260.462 181.656 260.339 182.001 260.254 182.398C260.176 182.789 260.137 183.219 260.137 183.688V184.078C260.137 184.501 260.195 184.892 260.312 185.25C260.436 185.608 260.609 185.917 260.83 186.178C261.058 186.438 261.331 186.64 261.65 186.783C261.976 186.926 262.344 186.998 262.754 186.998C263.262 186.998 263.734 186.9 264.17 186.705C264.613 186.503 264.993 186.201 265.312 185.797L266.68 187.281C266.458 187.6 266.156 187.906 265.771 188.199C265.394 188.492 264.938 188.733 264.404 188.922C263.87 189.104 263.262 189.195 262.578 189.195ZM271.27 180.689V189H268.457V178.434H271.094L271.27 180.689ZM270.859 183.346H270.098C270.098 182.564 270.199 181.861 270.4 181.236C270.602 180.605 270.885 180.068 271.25 179.625C271.615 179.176 272.048 178.834 272.549 178.6C273.057 178.359 273.623 178.238 274.248 178.238C274.743 178.238 275.195 178.31 275.605 178.453C276.016 178.596 276.367 178.824 276.66 179.137C276.96 179.449 277.188 179.863 277.344 180.377C277.507 180.891 277.588 181.52 277.588 182.262V189H274.756V182.252C274.756 181.783 274.691 181.419 274.561 181.158C274.43 180.898 274.238 180.715 273.984 180.611C273.737 180.501 273.431 180.445 273.066 180.445C272.689 180.445 272.36 180.52 272.08 180.67C271.807 180.82 271.579 181.028 271.396 181.295C271.221 181.555 271.087 181.861 270.996 182.213C270.905 182.564 270.859 182.942 270.859 183.346ZM284.902 178.434V180.426H278.75V178.434H284.902ZM280.273 175.826H283.086V185.816C283.086 186.122 283.125 186.357 283.203 186.52C283.288 186.682 283.411 186.796 283.574 186.861C283.737 186.92 283.942 186.949 284.189 186.949C284.365 186.949 284.521 186.943 284.658 186.93C284.801 186.91 284.922 186.891 285.02 186.871L285.029 188.941C284.788 189.02 284.528 189.081 284.248 189.127C283.968 189.173 283.659 189.195 283.32 189.195C282.702 189.195 282.161 189.094 281.699 188.893C281.243 188.684 280.892 188.352 280.645 187.896C280.397 187.441 280.273 186.842 280.273 186.1V175.826ZM300.938 180.641V183.102C300.938 184.169 300.824 185.09 300.596 185.865C300.368 186.633 300.039 187.265 299.609 187.76C299.186 188.248 298.682 188.609 298.096 188.844C297.51 189.078 296.859 189.195 296.143 189.195C295.57 189.195 295.036 189.124 294.541 188.98C294.046 188.831 293.6 188.6 293.203 188.287C292.812 187.975 292.474 187.581 292.188 187.105C291.908 186.624 291.693 186.051 291.543 185.387C291.393 184.723 291.318 183.961 291.318 183.102V180.641C291.318 179.573 291.432 178.658 291.66 177.896C291.895 177.128 292.223 176.5 292.646 176.012C293.076 175.523 293.584 175.165 294.17 174.938C294.756 174.703 295.407 174.586 296.123 174.586C296.696 174.586 297.227 174.661 297.715 174.811C298.21 174.954 298.656 175.178 299.053 175.484C299.45 175.79 299.788 176.184 300.068 176.666C300.348 177.141 300.563 177.711 300.713 178.375C300.863 179.033 300.938 179.788 300.938 180.641ZM298.115 183.473V180.26C298.115 179.745 298.086 179.296 298.027 178.912C297.975 178.528 297.894 178.202 297.783 177.936C297.673 177.662 297.536 177.441 297.373 177.271C297.21 177.102 297.025 176.979 296.816 176.9C296.608 176.822 296.377 176.783 296.123 176.783C295.804 176.783 295.521 176.845 295.273 176.969C295.033 177.092 294.827 177.291 294.658 177.564C294.489 177.831 294.359 178.189 294.268 178.639C294.183 179.081 294.141 179.622 294.141 180.26V183.473C294.141 183.987 294.167 184.439 294.219 184.83C294.277 185.221 294.362 185.556 294.473 185.836C294.59 186.109 294.727 186.334 294.883 186.51C295.046 186.679 295.231 186.803 295.439 186.881C295.654 186.959 295.889 186.998 296.143 186.998C296.455 186.998 296.732 186.936 296.973 186.812C297.22 186.682 297.428 186.48 297.598 186.207C297.773 185.927 297.904 185.562 297.988 185.113C298.073 184.664 298.115 184.117 298.115 183.473ZM305.498 182.525L303.252 181.988L304.062 174.781H312.051V177.057H306.377L306.025 180.211C306.214 180.1 306.501 179.983 306.885 179.859C307.269 179.729 307.699 179.664 308.174 179.664C308.864 179.664 309.476 179.771 310.01 179.986C310.544 180.201 310.996 180.514 311.367 180.924C311.745 181.334 312.031 181.835 312.227 182.428C312.422 183.02 312.52 183.691 312.52 184.439C312.52 185.071 312.422 185.673 312.227 186.246C312.031 186.812 311.735 187.32 311.338 187.77C310.941 188.212 310.443 188.561 309.844 188.814C309.245 189.068 308.535 189.195 307.715 189.195C307.103 189.195 306.51 189.104 305.938 188.922C305.371 188.74 304.86 188.469 304.404 188.111C303.955 187.753 303.594 187.32 303.32 186.812C303.053 186.298 302.913 185.712 302.9 185.055H305.693C305.732 185.458 305.837 185.807 306.006 186.1C306.182 186.386 306.413 186.607 306.699 186.764C306.986 186.92 307.321 186.998 307.705 186.998C308.063 186.998 308.369 186.93 308.623 186.793C308.877 186.656 309.082 186.467 309.238 186.227C309.395 185.979 309.508 185.693 309.58 185.367C309.658 185.035 309.697 184.677 309.697 184.293C309.697 183.909 309.652 183.561 309.561 183.248C309.469 182.936 309.329 182.665 309.141 182.438C308.952 182.21 308.711 182.034 308.418 181.91C308.132 181.786 307.796 181.725 307.412 181.725C306.891 181.725 306.488 181.806 306.201 181.969C305.921 182.132 305.687 182.317 305.498 182.525Z" fill="#D4666A"/>
<path d="M448.68 203.002C459.725 203.002 468.68 194.047 468.68 183.001C468.68 171.955 459.725 163 448.68 163C437.634 163 428.68 171.955 428.68 183.001C428.68 194.047 437.634 203.002 448.68 203.002Z" fill="#D4666A"/>
<path d="M443.219 188.453L454.126 177.545" stroke="white" stroke-width="2.90806" stroke-linecap="round" stroke-linejoin="round"/>
<path d="M443.219 177.545L454.126 188.453" stroke="white" stroke-width="2.90806" stroke-linecap="round" stroke-linejoin="round"/>
</g>
<g opacity="0.2">
<path d="M336.671 1H13C6.37258 1 1 6.37258 1 13V90.5C1 97.1274 6.37259 102.5 13 102.5H336.671C343.299 102.5 348.671 97.1274 348.671 90.5V13C348.671 6.37258 343.299 1 336.671 1Z" fill="#FFEDED" stroke="#D4666A" stroke-width="1.87662"/>
<path d="M36.6836 53.2832H39.6035C39.5449 54.2402 39.2812 55.0898 38.8125 55.832C38.3503 56.5742 37.7025 57.1536 36.8691 57.5703C36.0423 57.987 35.0462 58.1953 33.8809 58.1953C32.9694 58.1953 32.1523 58.0391 31.4297 57.7266C30.707 57.4076 30.0885 56.9518 29.5742 56.3594C29.0664 55.7669 28.679 55.0508 28.4121 54.2109C28.1452 53.3711 28.0117 52.4303 28.0117 51.3887V50.4023C28.0117 49.3607 28.1484 48.4199 28.4219 47.5801C28.7018 46.7337 29.099 46.0143 29.6133 45.4219C30.1341 44.8294 30.7559 44.3737 31.4785 44.0547C32.2012 43.7357 33.0085 43.5762 33.9004 43.5762C35.0853 43.5762 36.0846 43.791 36.8984 44.2207C37.7188 44.6504 38.3535 45.2428 38.8027 45.998C39.2585 46.7533 39.5319 47.6126 39.623 48.5762H36.6934C36.6608 48.0033 36.5469 47.5182 36.3516 47.1211C36.1562 46.7174 35.86 46.4147 35.4629 46.2129C35.0723 46.0046 34.5514 45.9004 33.9004 45.9004C33.4121 45.9004 32.9857 45.9915 32.6211 46.1738C32.2565 46.3561 31.9505 46.6328 31.7031 47.0039C31.4557 47.375 31.2702 47.8438 31.1465 48.4102C31.0293 48.9701 30.9707 49.6276 30.9707 50.3828V51.3887C30.9707 52.1243 31.026 52.7721 31.1367 53.332C31.2474 53.8854 31.4167 54.3542 31.6445 54.7383C31.8789 55.1159 32.1784 55.4023 32.543 55.5977C32.9141 55.7865 33.36 55.8809 33.8809 55.8809C34.4928 55.8809 34.9974 55.7832 35.3945 55.5879C35.7917 55.3926 36.0944 55.1029 36.3027 54.7188C36.5176 54.3346 36.6445 53.8561 36.6836 53.2832ZM40.9023 52.8242V52.6191C40.9023 51.8444 41.013 51.1315 41.2344 50.4805C41.4557 49.8229 41.778 49.2533 42.2012 48.7715C42.6243 48.2897 43.1452 47.9154 43.7637 47.6484C44.3822 47.375 45.0918 47.2383 45.8926 47.2383C46.6934 47.2383 47.4062 47.375 48.0312 47.6484C48.6562 47.9154 49.1803 48.2897 49.6035 48.7715C50.0332 49.2533 50.3587 49.8229 50.5801 50.4805C50.8014 51.1315 50.9121 51.8444 50.9121 52.6191V52.8242C50.9121 53.5924 50.8014 54.3053 50.5801 54.9629C50.3587 55.6139 50.0332 56.1836 49.6035 56.6719C49.1803 57.1536 48.6595 57.528 48.041 57.7949C47.4225 58.0618 46.7129 58.1953 45.9121 58.1953C45.1113 58.1953 44.3984 58.0618 43.7734 57.7949C43.1549 57.528 42.6309 57.1536 42.2012 56.6719C41.778 56.1836 41.4557 55.6139 41.2344 54.9629C41.013 54.3053 40.9023 53.5924 40.9023 52.8242ZM43.7148 52.6191V52.8242C43.7148 53.2669 43.7539 53.6803 43.832 54.0645C43.9102 54.4486 44.0339 54.7871 44.2031 55.0801C44.3789 55.3665 44.6068 55.5911 44.8867 55.7539C45.1667 55.9167 45.5085 55.998 45.9121 55.998C46.3027 55.998 46.638 55.9167 46.918 55.7539C47.1979 55.5911 47.4225 55.3665 47.5918 55.0801C47.7611 54.7871 47.8848 54.4486 47.9629 54.0645C48.0475 53.6803 48.0898 53.2669 48.0898 52.8242V52.6191C48.0898 52.1895 48.0475 51.7858 47.9629 51.4082C47.8848 51.0241 47.7578 50.6855 47.582 50.3926C47.4128 50.0931 47.1882 49.8587 46.9082 49.6895C46.6283 49.5202 46.2897 49.4355 45.8926 49.4355C45.4954 49.4355 45.1569 49.5202 44.877 49.6895C44.6035 49.8587 44.3789 50.0931 44.2031 50.3926C44.0339 50.6855 43.9102 51.0241 43.832 51.4082C43.7539 51.7858 43.7148 52.1895 43.7148 52.6191ZM55.4531 49.6211V58H52.6309V47.4336H55.2773L55.4531 49.6211ZM55.0625 52.3457H54.2812C54.2812 51.61 54.3691 50.9329 54.5449 50.3145C54.7272 49.6895 54.9909 49.1491 55.3359 48.6934C55.6875 48.2311 56.1204 47.873 56.6348 47.6191C57.1491 47.3652 57.7448 47.2383 58.4219 47.2383C58.8906 47.2383 59.3203 47.3099 59.7109 47.4531C60.1016 47.5898 60.4368 47.8079 60.7168 48.1074C61.0033 48.4004 61.2246 48.7845 61.3809 49.2598C61.5371 49.7285 61.6152 50.2917 61.6152 50.9492V58H58.8027V51.2617C58.8027 50.7799 58.7376 50.4089 58.6074 50.1484C58.4772 49.888 58.2917 49.7057 58.0508 49.6016C57.8164 49.4974 57.5332 49.4453 57.2012 49.4453C56.8366 49.4453 56.5176 49.5202 56.2441 49.6699C55.9772 49.8197 55.7559 50.028 55.5801 50.2949C55.4043 50.5553 55.2741 50.8613 55.1895 51.2129C55.1048 51.5645 55.0625 51.9421 55.0625 52.3457ZM61.3516 52.0234L60.3457 52.1504C60.3457 51.4603 60.4303 50.819 60.5996 50.2266C60.7754 49.6341 61.0326 49.1133 61.3711 48.6641C61.7161 48.2148 62.1426 47.8665 62.6504 47.6191C63.1582 47.3652 63.7441 47.2383 64.4082 47.2383C64.916 47.2383 65.3783 47.3132 65.7949 47.4629C66.2116 47.6061 66.5664 47.8372 66.8594 48.1562C67.1589 48.4688 67.3867 48.8789 67.543 49.3867C67.7057 49.8945 67.7871 50.5163 67.7871 51.252V58H64.9648V51.252C64.9648 50.7637 64.8997 50.3926 64.7695 50.1387C64.6458 49.8783 64.4635 49.6992 64.2227 49.6016C63.9883 49.4974 63.7083 49.4453 63.3828 49.4453C63.0443 49.4453 62.748 49.5137 62.4941 49.6504C62.2402 49.7806 62.0286 49.9629 61.8594 50.1973C61.6901 50.4316 61.5632 50.7051 61.4785 51.0176C61.3939 51.3236 61.3516 51.6589 61.3516 52.0234ZM72.7773 49.4648V62.0625H69.9648V47.4336H72.5723L72.7773 49.4648ZM79.4668 52.5996V52.8047C79.4668 53.5729 79.3757 54.2858 79.1934 54.9434C79.0176 55.6009 78.7572 56.1738 78.4121 56.6621C78.0671 57.1439 77.6374 57.5215 77.123 57.7949C76.6152 58.0618 76.0293 58.1953 75.3652 58.1953C74.7207 58.1953 74.1608 58.0651 73.6855 57.8047C73.2103 57.5443 72.8099 57.1797 72.4844 56.7109C72.1654 56.2357 71.9082 55.6855 71.7129 55.0605C71.5176 54.4355 71.3678 53.765 71.2637 53.0488V52.5117C71.3678 51.7435 71.5176 51.0404 71.7129 50.4023C71.9082 49.7578 72.1654 49.2012 72.4844 48.7324C72.8099 48.2572 73.207 47.8893 73.6758 47.6289C74.151 47.3685 74.7077 47.2383 75.3457 47.2383C76.0163 47.2383 76.6055 47.3652 77.1133 47.6191C77.6276 47.873 78.0573 48.2376 78.4023 48.7129C78.7539 49.1882 79.0176 49.7546 79.1934 50.4121C79.3757 51.0697 79.4668 51.7988 79.4668 52.5996ZM76.6445 52.8047V52.5996C76.6445 52.1504 76.6055 51.737 76.5273 51.3594C76.4557 50.9753 76.3385 50.64 76.1758 50.3535C76.0195 50.0671 75.8112 49.8457 75.5508 49.6895C75.2969 49.5267 74.9876 49.4453 74.623 49.4453C74.2389 49.4453 73.9102 49.5072 73.6367 49.6309C73.3698 49.7546 73.1517 49.9336 72.9824 50.168C72.8132 50.4023 72.6862 50.6823 72.6016 51.0078C72.5169 51.3333 72.4648 51.7012 72.4453 52.1113V53.4688C72.4779 53.9505 72.569 54.3835 72.7188 54.7676C72.8685 55.1452 73.0996 55.4447 73.4121 55.666C73.7246 55.8874 74.1348 55.998 74.6426 55.998C75.0137 55.998 75.3262 55.9167 75.5801 55.7539C75.834 55.5846 76.0391 55.3535 76.1953 55.0605C76.3581 54.7676 76.472 54.429 76.5371 54.0449C76.6087 53.6608 76.6445 53.2474 76.6445 52.8047ZM80.7656 52.8242V52.6191C80.7656 51.8444 80.8763 51.1315 81.0977 50.4805C81.319 49.8229 81.6413 49.2533 82.0645 48.7715C82.4876 48.2897 83.0085 47.9154 83.627 47.6484C84.2454 47.375 84.9551 47.2383 85.7559 47.2383C86.5566 47.2383 87.2695 47.375 87.8945 47.6484C88.5195 47.9154 89.0436 48.2897 89.4668 48.7715C89.8965 49.2533 90.222 49.8229 90.4434 50.4805C90.6647 51.1315 90.7754 51.8444 90.7754 52.6191V52.8242C90.7754 53.5924 90.6647 54.3053 90.4434 54.9629C90.222 55.6139 89.8965 56.1836 89.4668 56.6719C89.0436 57.1536 88.5228 57.528 87.9043 57.7949C87.2858 58.0618 86.5762 58.1953 85.7754 58.1953C84.9746 58.1953 84.2617 58.0618 83.6367 57.7949C83.0182 57.528 82.4941 57.1536 82.0645 56.6719C81.6413 56.1836 81.319 55.6139 81.0977 54.9629C80.8763 54.3053 80.7656 53.5924 80.7656 52.8242ZM83.5781 52.6191V52.8242C83.5781 53.2669 83.6172 53.6803 83.6953 54.0645C83.7734 54.4486 83.8971 54.7871 84.0664 55.0801C84.2422 55.3665 84.4701 55.5911 84.75 55.7539C85.0299 55.9167 85.3717 55.998 85.7754 55.998C86.166 55.998 86.5013 55.9167 86.7812 55.7539C87.0612 55.5911 87.2858 55.3665 87.4551 55.0801C87.6243 54.7871 87.748 54.4486 87.8262 54.0645C87.9108 53.6803 87.9531 53.2669 87.9531 52.8242V52.6191C87.9531 52.1895 87.9108 51.7858 87.8262 51.4082C87.748 51.0241 87.6211 50.6855 87.4453 50.3926C87.276 50.0931 87.0514 49.8587 86.7715 49.6895C86.4915 49.5202 86.153 49.4355 85.7559 49.4355C85.3587 49.4355 85.0202 49.5202 84.7402 49.6895C84.4668 49.8587 84.2422 50.0931 84.0664 50.3926C83.8971 50.6855 83.7734 51.0241 83.6953 51.4082C83.6172 51.7858 83.5781 52.1895 83.5781 52.6191ZM95.2578 49.6895V58H92.4453V47.4336H95.082L95.2578 49.6895ZM94.8477 52.3457H94.0859C94.0859 51.5645 94.1868 50.8613 94.3887 50.2363C94.5905 49.6048 94.8737 49.0677 95.2383 48.625C95.6029 48.1758 96.0358 47.834 96.5371 47.5996C97.0449 47.3587 97.6113 47.2383 98.2363 47.2383C98.7311 47.2383 99.1836 47.3099 99.5938 47.4531C100.004 47.5964 100.355 47.8242 100.648 48.1367C100.948 48.4492 101.176 48.8626 101.332 49.377C101.495 49.8913 101.576 50.5195 101.576 51.2617V58H98.7441V51.252C98.7441 50.7832 98.679 50.4186 98.5488 50.1582C98.4186 49.8978 98.2266 49.7155 97.9727 49.6113C97.7253 49.5007 97.4193 49.4453 97.0547 49.4453C96.6771 49.4453 96.3483 49.5202 96.0684 49.6699C95.7949 49.8197 95.5671 50.028 95.3848 50.2949C95.209 50.5553 95.0755 50.8613 94.9844 51.2129C94.8932 51.5645 94.8477 51.9421 94.8477 52.3457ZM108.578 58.1953C107.758 58.1953 107.022 58.0651 106.371 57.8047C105.72 57.5378 105.167 57.1699 104.711 56.7012C104.262 56.2324 103.917 55.6888 103.676 55.0703C103.435 54.4453 103.314 53.7812 103.314 53.0781V52.6875C103.314 51.8867 103.428 51.1543 103.656 50.4902C103.884 49.8262 104.21 49.25 104.633 48.7617C105.062 48.2734 105.583 47.8991 106.195 47.6387C106.807 47.3717 107.497 47.2383 108.266 47.2383C109.014 47.2383 109.678 47.362 110.258 47.6094C110.837 47.8568 111.322 48.2083 111.713 48.6641C112.11 49.1198 112.41 49.6667 112.611 50.3047C112.813 50.9362 112.914 51.6393 112.914 52.4141V53.5859H104.516V51.7109H110.15V51.4961C110.15 51.1055 110.079 50.7572 109.936 50.4512C109.799 50.1387 109.59 49.8913 109.311 49.709C109.031 49.5267 108.673 49.4355 108.236 49.4355C107.865 49.4355 107.546 49.5169 107.279 49.6797C107.012 49.8424 106.794 50.0703 106.625 50.3633C106.462 50.6562 106.339 51.0013 106.254 51.3984C106.176 51.7891 106.137 52.2188 106.137 52.6875V53.0781C106.137 53.5013 106.195 53.8919 106.312 54.25C106.436 54.6081 106.609 54.9173 106.83 55.1777C107.058 55.4382 107.331 55.64 107.65 55.7832C107.976 55.9264 108.344 55.998 108.754 55.998C109.262 55.998 109.734 55.9004 110.17 55.7051C110.613 55.5033 110.993 55.2005 111.312 54.7969L112.68 56.2812C112.458 56.6003 112.156 56.9062 111.771 57.1992C111.394 57.4922 110.938 57.7331 110.404 57.9219C109.87 58.1042 109.262 58.1953 108.578 58.1953ZM117.27 49.6895V58H114.457V47.4336H117.094L117.27 49.6895ZM116.859 52.3457H116.098C116.098 51.5645 116.199 50.8613 116.4 50.2363C116.602 49.6048 116.885 49.0677 117.25 48.625C117.615 48.1758 118.048 47.834 118.549 47.5996C119.057 47.3587 119.623 47.2383 120.248 47.2383C120.743 47.2383 121.195 47.3099 121.605 47.4531C122.016 47.5964 122.367 47.8242 122.66 48.1367C122.96 48.4492 123.188 48.8626 123.344 49.377C123.507 49.8913 123.588 50.5195 123.588 51.2617V58H120.756V51.252C120.756 50.7832 120.691 50.4186 120.561 50.1582C120.43 49.8978 120.238 49.7155 119.984 49.6113C119.737 49.5007 119.431 49.4453 119.066 49.4453C118.689 49.4453 118.36 49.5202 118.08 49.6699C117.807 49.8197 117.579 50.028 117.396 50.2949C117.221 50.5553 117.087 50.8613 116.996 51.2129C116.905 51.5645 116.859 51.9421 116.859 52.3457ZM130.902 47.4336V49.4258H124.75V47.4336H130.902ZM126.273 44.8262H129.086V54.8164C129.086 55.1224 129.125 55.3568 129.203 55.5195C129.288 55.6823 129.411 55.7962 129.574 55.8613C129.737 55.9199 129.942 55.9492 130.189 55.9492C130.365 55.9492 130.521 55.9427 130.658 55.9297C130.801 55.9102 130.922 55.8906 131.02 55.8711L131.029 57.9414C130.788 58.0195 130.528 58.0814 130.248 58.127C129.968 58.1725 129.659 58.1953 129.32 58.1953C128.702 58.1953 128.161 58.0944 127.699 57.8926C127.243 57.6842 126.892 57.3522 126.645 56.8965C126.397 56.4408 126.273 55.8418 126.273 55.0996V44.8262ZM146.938 49.6406V52.1016C146.938 53.1693 146.824 54.0905 146.596 54.8652C146.368 55.6335 146.039 56.265 145.609 56.7598C145.186 57.248 144.682 57.6094 144.096 57.8438C143.51 58.0781 142.859 58.1953 142.143 58.1953C141.57 58.1953 141.036 58.1237 140.541 57.9805C140.046 57.8307 139.6 57.5996 139.203 57.2871C138.812 56.9746 138.474 56.5807 138.188 56.1055C137.908 55.6237 137.693 55.0508 137.543 54.3867C137.393 53.7227 137.318 52.9609 137.318 52.1016V49.6406C137.318 48.5729 137.432 47.6582 137.66 46.8965C137.895 46.1283 138.223 45.5 138.646 45.0117C139.076 44.5234 139.584 44.1654 140.17 43.9375C140.756 43.7031 141.407 43.5859 142.123 43.5859C142.696 43.5859 143.227 43.6608 143.715 43.8105C144.21 43.9538 144.656 44.1784 145.053 44.4844C145.45 44.7904 145.788 45.1842 146.068 45.666C146.348 46.1413 146.563 46.7109 146.713 47.375C146.863 48.0326 146.938 48.7878 146.938 49.6406ZM144.115 52.4727V49.2598C144.115 48.7454 144.086 48.2962 144.027 47.9121C143.975 47.528 143.894 47.2025 143.783 46.9355C143.673 46.6621 143.536 46.4408 143.373 46.2715C143.21 46.1022 143.025 45.9785 142.816 45.9004C142.608 45.8223 142.377 45.7832 142.123 45.7832C141.804 45.7832 141.521 45.8451 141.273 45.9688C141.033 46.0924 140.827 46.291 140.658 46.5645C140.489 46.8314 140.359 47.1895 140.268 47.6387C140.183 48.0814 140.141 48.6217 140.141 49.2598V52.4727C140.141 52.987 140.167 53.4395 140.219 53.8301C140.277 54.2207 140.362 54.556 140.473 54.8359C140.59 55.1094 140.727 55.334 140.883 55.5098C141.046 55.679 141.231 55.8027 141.439 55.8809C141.654 55.959 141.889 55.998 142.143 55.998C142.455 55.998 142.732 55.9362 142.973 55.8125C143.22 55.6823 143.428 55.4805 143.598 55.207C143.773 54.9271 143.904 54.5625 143.988 54.1133C144.073 53.6641 144.115 53.1172 144.115 52.4727ZM158.812 52.6875V54.8945H148.568L148.432 53.1855L154.359 43.7812H156.596L154.174 47.834L151.225 52.6875H158.812ZM157.201 43.7812V58H154.389V43.7812H157.201Z" fill="#D4666A"/>
<path d="M294.68 72.0015C305.725 72.0015 314.68 63.0469 314.68 52.0008C314.68 40.9546 305.725 32 294.68 32C283.634 32 274.68 40.9546 274.68 52.0008C274.68 63.0469 283.634 72.0015 294.68 72.0015Z" fill="#D4666A"/>
<path d="M289.219 57.4528L300.126 46.5449" stroke="white" stroke-width="2.90806" stroke-linecap="round" stroke-linejoin="round"/>
<path d="M289.219 46.5449L300.126 57.4528" stroke="white" stroke-width="2.90806" stroke-linecap="round" stroke-linejoin="round"/>
</g>
</svg>
