<svg width="456" height="221" viewBox="0 0 456 221" fill="none" xmlns="http://www.w3.org/2000/svg">
<g opacity="0.2">
<path d="M444.645 132H165.355C159.636 132 155 136.636 155 142.355V209.228C155 214.947 159.636 219.583 165.355 219.583H444.645C450.364 219.583 455 214.947 455 209.228V142.355C455 136.636 450.364 132 444.645 132Z" fill="#FFEDED" stroke="#D4666A" stroke-width="1.6193"/>
<path d="M185.793 177.582H188.313C188.262 178.408 188.035 179.141 187.63 179.782C187.232 180.422 186.673 180.922 185.954 181.282C185.24 181.641 184.381 181.821 183.375 181.821C182.589 181.821 181.884 181.686 181.26 181.416C180.636 181.141 180.103 180.748 179.659 180.237C179.221 179.725 178.886 179.108 178.656 178.383C178.426 177.658 178.311 176.846 178.311 175.948V175.096C178.311 174.198 178.429 173.386 178.665 172.661C178.906 171.931 179.249 171.31 179.693 170.799C180.142 170.288 180.678 169.894 181.302 169.619C181.926 169.344 182.622 169.206 183.392 169.206C184.414 169.206 185.277 169.392 185.979 169.762C186.687 170.133 187.234 170.644 187.622 171.296C188.015 171.948 188.251 172.689 188.33 173.521H185.802C185.774 173.026 185.675 172.608 185.507 172.265C185.338 171.917 185.083 171.656 184.74 171.481C184.403 171.302 183.954 171.212 183.392 171.212C182.971 171.212 182.603 171.29 182.288 171.448C181.973 171.605 181.709 171.844 181.496 172.164C181.282 172.484 181.122 172.889 181.016 173.377C180.914 173.861 180.864 174.428 180.864 175.08V175.948C180.864 176.582 180.912 177.141 181.007 177.624C181.103 178.102 181.249 178.506 181.445 178.838C181.648 179.164 181.906 179.411 182.221 179.579C182.541 179.742 182.926 179.824 183.375 179.824C183.903 179.824 184.338 179.74 184.681 179.571C185.024 179.402 185.285 179.152 185.465 178.821C185.65 178.49 185.76 178.077 185.793 177.582ZM189.434 177.186V177.009C189.434 176.341 189.529 175.726 189.72 175.164C189.911 174.596 190.189 174.105 190.554 173.689C190.92 173.273 191.369 172.95 191.903 172.72C192.436 172.484 193.049 172.366 193.74 172.366C194.431 172.366 195.046 172.484 195.585 172.72C196.124 172.95 196.577 173.273 196.942 173.689C197.313 174.105 197.593 174.596 197.784 175.164C197.975 175.726 198.071 176.341 198.071 177.009V177.186C198.071 177.849 197.975 178.464 197.784 179.032C197.593 179.593 197.313 180.085 196.942 180.506C196.577 180.922 196.127 181.245 195.594 181.475C195.06 181.706 194.448 181.821 193.757 181.821C193.066 181.821 192.45 181.706 191.911 181.475C191.377 181.245 190.925 180.922 190.554 180.506C190.189 180.085 189.911 179.593 189.72 179.032C189.529 178.464 189.434 177.849 189.434 177.186ZM191.861 177.009V177.186C191.861 177.568 191.894 177.925 191.962 178.256C192.029 178.588 192.136 178.88 192.282 179.133C192.434 179.38 192.63 179.574 192.872 179.714C193.113 179.855 193.408 179.925 193.757 179.925C194.094 179.925 194.383 179.855 194.625 179.714C194.866 179.574 195.06 179.38 195.206 179.133C195.352 178.88 195.459 178.588 195.526 178.256C195.599 177.925 195.636 177.568 195.636 177.186V177.009C195.636 176.639 195.599 176.29 195.526 175.964C195.459 175.633 195.349 175.341 195.198 175.088C195.051 174.83 194.858 174.627 194.616 174.481C194.375 174.335 194.082 174.262 193.74 174.262C193.397 174.262 193.105 174.335 192.863 174.481C192.627 174.627 192.434 174.83 192.282 175.088C192.136 175.341 192.029 175.633 191.962 175.964C191.894 176.29 191.861 176.639 191.861 177.009ZM201.989 174.422V181.652H199.554V172.535H201.838L201.989 174.422ZM201.652 176.773H200.978C200.978 176.139 201.054 175.554 201.206 175.021C201.363 174.481 201.591 174.015 201.888 173.622C202.192 173.223 202.565 172.914 203.009 172.695C203.453 172.476 203.967 172.366 204.551 172.366C204.956 172.366 205.326 172.428 205.663 172.552C206 172.67 206.29 172.858 206.531 173.116C206.778 173.369 206.969 173.7 207.104 174.111C207.239 174.515 207.307 175.001 207.307 175.568V181.652H204.88V175.838C204.88 175.422 204.824 175.102 204.711 174.877C204.599 174.653 204.439 174.495 204.231 174.405C204.029 174.316 203.784 174.271 203.498 174.271C203.183 174.271 202.908 174.335 202.672 174.464C202.442 174.594 202.251 174.773 202.099 175.004C201.947 175.228 201.835 175.493 201.762 175.796C201.689 176.099 201.652 176.425 201.652 176.773ZM207.079 176.495L206.211 176.605C206.211 176.009 206.284 175.456 206.43 174.945C206.582 174.434 206.804 173.984 207.096 173.597C207.394 173.209 207.762 172.908 208.2 172.695C208.638 172.476 209.144 172.366 209.717 172.366C210.155 172.366 210.554 172.431 210.913 172.56C211.273 172.684 211.579 172.883 211.832 173.158C212.09 173.428 212.287 173.782 212.421 174.22C212.562 174.658 212.632 175.195 212.632 175.83V181.652H210.197V175.83C210.197 175.408 210.141 175.088 210.028 174.869C209.922 174.644 209.764 174.49 209.556 174.405C209.354 174.316 209.113 174.271 208.832 174.271C208.54 174.271 208.284 174.33 208.065 174.448C207.846 174.56 207.663 174.717 207.517 174.919C207.371 175.122 207.262 175.358 207.189 175.627C207.116 175.891 207.079 176.181 207.079 176.495ZM216.938 174.287V185.158H214.511V172.535H216.761L216.938 174.287ZM222.71 176.992V177.169C222.71 177.832 222.632 178.447 222.474 179.015C222.323 179.582 222.098 180.077 221.8 180.498C221.503 180.914 221.132 181.239 220.688 181.475C220.25 181.706 219.744 181.821 219.171 181.821C218.615 181.821 218.132 181.709 217.722 181.484C217.312 181.259 216.966 180.945 216.685 180.54C216.41 180.13 216.188 179.655 216.02 179.116C215.851 178.577 215.722 177.998 215.632 177.38V176.917C215.722 176.254 215.851 175.647 216.02 175.096C216.188 174.54 216.41 174.06 216.685 173.656C216.966 173.245 217.309 172.928 217.713 172.703C218.123 172.479 218.604 172.366 219.154 172.366C219.733 172.366 220.241 172.476 220.68 172.695C221.123 172.914 221.494 173.229 221.792 173.639C222.095 174.049 222.323 174.537 222.474 175.105C222.632 175.672 222.71 176.301 222.71 176.992ZM220.275 177.169V176.992C220.275 176.605 220.241 176.248 220.174 175.922C220.112 175.591 220.011 175.301 219.871 175.054C219.736 174.807 219.556 174.616 219.331 174.481C219.112 174.341 218.845 174.271 218.531 174.271C218.199 174.271 217.916 174.324 217.68 174.431C217.449 174.537 217.261 174.692 217.115 174.894C216.969 175.096 216.859 175.338 216.786 175.619C216.713 175.9 216.668 176.217 216.652 176.571V177.742C216.68 178.158 216.758 178.532 216.888 178.863C217.017 179.189 217.216 179.447 217.486 179.638C217.756 179.829 218.109 179.925 218.548 179.925C218.868 179.925 219.137 179.855 219.357 179.714C219.576 179.568 219.753 179.369 219.887 179.116C220.028 178.863 220.126 178.571 220.182 178.24C220.244 177.908 220.275 177.551 220.275 177.169ZM223.831 177.186V177.009C223.831 176.341 223.927 175.726 224.118 175.164C224.309 174.596 224.587 174.105 224.952 173.689C225.317 173.273 225.766 172.95 226.3 172.72C226.834 172.484 227.446 172.366 228.137 172.366C228.828 172.366 229.443 172.484 229.983 172.72C230.522 172.95 230.974 173.273 231.339 173.689C231.71 174.105 231.991 174.596 232.182 175.164C232.373 175.726 232.468 176.341 232.468 177.009V177.186C232.468 177.849 232.373 178.464 232.182 179.032C231.991 179.593 231.71 180.085 231.339 180.506C230.974 180.922 230.525 181.245 229.991 181.475C229.457 181.706 228.845 181.821 228.154 181.821C227.463 181.821 226.848 181.706 226.309 181.475C225.775 181.245 225.323 180.922 224.952 180.506C224.587 180.085 224.309 179.593 224.118 179.032C223.927 178.464 223.831 177.849 223.831 177.186ZM226.258 177.009V177.186C226.258 177.568 226.292 177.925 226.359 178.256C226.426 178.588 226.533 178.88 226.679 179.133C226.831 179.38 227.028 179.574 227.269 179.714C227.511 179.855 227.806 179.925 228.154 179.925C228.491 179.925 228.78 179.855 229.022 179.714C229.263 179.574 229.457 179.38 229.603 179.133C229.749 178.88 229.856 178.588 229.924 178.256C229.997 177.925 230.033 177.568 230.033 177.186V177.009C230.033 176.639 229.997 176.29 229.924 175.964C229.856 175.633 229.747 175.341 229.595 175.088C229.449 174.83 229.255 174.627 229.013 174.481C228.772 174.335 228.48 174.262 228.137 174.262C227.794 174.262 227.502 174.335 227.261 174.481C227.025 174.627 226.831 174.83 226.679 175.088C226.533 175.341 226.426 175.633 226.359 175.964C226.292 176.29 226.258 176.639 226.258 177.009ZM236.336 174.481V181.652H233.909V172.535H236.184L236.336 174.481ZM235.982 176.773H235.325C235.325 176.099 235.412 175.493 235.586 174.953C235.76 174.408 236.005 173.945 236.319 173.563C236.634 173.175 237.007 172.88 237.44 172.678C237.878 172.47 238.367 172.366 238.906 172.366C239.333 172.366 239.724 172.428 240.078 172.552C240.431 172.675 240.735 172.872 240.988 173.141C241.246 173.411 241.443 173.768 241.578 174.212C241.718 174.655 241.788 175.198 241.788 175.838V181.652H239.344V175.83C239.344 175.425 239.288 175.11 239.176 174.886C239.064 174.661 238.898 174.504 238.679 174.414C238.465 174.318 238.201 174.271 237.887 174.271C237.561 174.271 237.277 174.335 237.036 174.464C236.8 174.594 236.603 174.773 236.446 175.004C236.294 175.228 236.179 175.493 236.1 175.796C236.022 176.099 235.982 176.425 235.982 176.773ZM247.83 181.821C247.122 181.821 246.487 181.709 245.926 181.484C245.364 181.253 244.886 180.936 244.493 180.532C244.105 180.127 243.808 179.658 243.6 179.124C243.392 178.585 243.288 178.012 243.288 177.405V177.068C243.288 176.377 243.386 175.745 243.583 175.172C243.78 174.599 244.061 174.102 244.426 173.681C244.796 173.259 245.246 172.936 245.774 172.712C246.302 172.481 246.897 172.366 247.56 172.366C248.206 172.366 248.779 172.473 249.279 172.686C249.779 172.9 250.198 173.203 250.535 173.597C250.878 173.99 251.136 174.462 251.31 175.012C251.484 175.557 251.571 176.164 251.571 176.832V177.844H244.325V176.226H249.187V176.04C249.187 175.703 249.125 175.403 249.001 175.139C248.883 174.869 248.704 174.655 248.462 174.498C248.22 174.341 247.912 174.262 247.535 174.262C247.215 174.262 246.94 174.332 246.709 174.473C246.479 174.613 246.291 174.81 246.145 175.063C246.004 175.316 245.898 175.613 245.825 175.956C245.757 176.293 245.723 176.664 245.723 177.068V177.405C245.723 177.77 245.774 178.108 245.875 178.417C245.982 178.726 246.131 178.992 246.322 179.217C246.518 179.442 246.754 179.616 247.03 179.74C247.31 179.863 247.628 179.925 247.982 179.925C248.42 179.925 248.827 179.841 249.204 179.672C249.586 179.498 249.914 179.237 250.189 178.888L251.369 180.169C251.178 180.445 250.917 180.709 250.586 180.961C250.26 181.214 249.866 181.422 249.406 181.585C248.945 181.742 248.42 181.821 247.83 181.821ZM255.33 174.481V181.652H252.903V172.535H255.178L255.33 174.481ZM254.976 176.773H254.319C254.319 176.099 254.406 175.493 254.58 174.953C254.754 174.408 254.998 173.945 255.313 173.563C255.627 173.175 256.001 172.88 256.434 172.678C256.872 172.47 257.361 172.366 257.9 172.366C258.327 172.366 258.717 172.428 259.071 172.552C259.425 172.675 259.728 172.872 259.981 173.141C260.24 173.411 260.436 173.768 260.571 174.212C260.712 174.655 260.782 175.198 260.782 175.838V181.652H258.338V175.83C258.338 175.425 258.282 175.11 258.169 174.886C258.057 174.661 257.891 174.504 257.672 174.414C257.459 174.318 257.195 174.271 256.88 174.271C256.554 174.271 256.271 174.335 256.029 174.464C255.793 174.594 255.597 174.773 255.439 175.004C255.288 175.228 255.172 175.493 255.094 175.796C255.015 176.099 254.976 176.425 254.976 176.773ZM267.093 172.535V174.254H261.784V172.535H267.093ZM263.099 170.285H265.526V178.905C265.526 179.169 265.56 179.372 265.627 179.512C265.7 179.652 265.807 179.751 265.947 179.807C266.088 179.857 266.265 179.883 266.478 179.883C266.63 179.883 266.765 179.877 266.883 179.866C267.006 179.849 267.11 179.832 267.194 179.815L267.203 181.602C266.995 181.669 266.77 181.723 266.529 181.762C266.287 181.801 266.02 181.821 265.728 181.821C265.194 181.821 264.728 181.734 264.329 181.56C263.936 181.38 263.633 181.093 263.419 180.7C263.206 180.307 263.099 179.79 263.099 179.15V170.285ZM280.93 174.439V176.563C280.93 177.484 280.831 178.279 280.635 178.947C280.438 179.61 280.154 180.155 279.784 180.582C279.419 181.003 278.983 181.315 278.478 181.518C277.972 181.72 277.41 181.821 276.792 181.821C276.298 181.821 275.837 181.759 275.41 181.635C274.983 181.506 274.599 181.307 274.256 181.037C273.919 180.768 273.627 180.428 273.379 180.018C273.138 179.602 272.953 179.108 272.823 178.535C272.694 177.961 272.63 177.304 272.63 176.563V174.439C272.63 173.518 272.728 172.729 272.924 172.071C273.127 171.408 273.41 170.866 273.776 170.445C274.146 170.024 274.584 169.715 275.09 169.518C275.596 169.316 276.157 169.215 276.775 169.215C277.27 169.215 277.728 169.279 278.149 169.408C278.576 169.532 278.961 169.726 279.303 169.99C279.646 170.254 279.938 170.594 280.18 171.01C280.421 171.42 280.607 171.911 280.736 172.484C280.865 173.052 280.93 173.703 280.93 174.439ZM278.494 176.883V174.111C278.494 173.667 278.469 173.279 278.419 172.948C278.374 172.616 278.303 172.335 278.208 172.105C278.112 171.869 277.994 171.678 277.854 171.532C277.714 171.386 277.553 171.279 277.374 171.212C277.194 171.144 276.994 171.111 276.775 171.111C276.5 171.111 276.256 171.164 276.042 171.271C275.834 171.378 275.657 171.549 275.511 171.785C275.365 172.015 275.253 172.324 275.174 172.712C275.101 173.094 275.065 173.56 275.065 174.111V176.883C275.065 177.327 275.087 177.717 275.132 178.054C275.183 178.391 275.256 178.681 275.351 178.922C275.452 179.158 275.57 179.352 275.705 179.504C275.846 179.65 276.006 179.756 276.186 179.824C276.371 179.891 276.573 179.925 276.792 179.925C277.062 179.925 277.301 179.872 277.509 179.765C277.722 179.652 277.902 179.478 278.048 179.242C278.2 179.001 278.312 178.686 278.385 178.299C278.458 177.911 278.494 177.439 278.494 176.883ZM284.865 176.066L282.927 175.602L283.626 169.383H290.519V171.347H285.623L285.32 174.068C285.483 173.973 285.73 173.872 286.062 173.765C286.393 173.653 286.764 173.597 287.174 173.597C287.769 173.597 288.297 173.689 288.758 173.875C289.219 174.06 289.609 174.33 289.929 174.684C290.255 175.037 290.502 175.47 290.671 175.981C290.839 176.492 290.924 177.071 290.924 177.717C290.924 178.262 290.839 178.782 290.671 179.276C290.502 179.765 290.247 180.203 289.904 180.591C289.561 180.973 289.132 181.273 288.615 181.492C288.098 181.711 287.486 181.821 286.778 181.821C286.25 181.821 285.738 181.742 285.244 181.585C284.755 181.428 284.314 181.194 283.921 180.886C283.534 180.577 283.222 180.203 282.986 179.765C282.755 179.321 282.635 178.815 282.623 178.248H285.033C285.067 178.596 285.157 178.897 285.303 179.15C285.455 179.397 285.654 179.588 285.901 179.723C286.149 179.857 286.438 179.925 286.769 179.925C287.078 179.925 287.342 179.866 287.561 179.748C287.781 179.63 287.957 179.467 288.092 179.259C288.227 179.046 288.325 178.799 288.387 178.518C288.455 178.231 288.488 177.922 288.488 177.591C288.488 177.259 288.449 176.959 288.37 176.689C288.292 176.419 288.171 176.186 288.008 175.99C287.845 175.793 287.637 175.641 287.384 175.535C287.137 175.428 286.848 175.375 286.517 175.375C286.067 175.375 285.719 175.445 285.472 175.585C285.23 175.726 285.028 175.886 284.865 176.066Z" fill="#D4666A"/>
<path d="M408.406 193.267C417.937 193.267 425.664 185.54 425.664 176.008C425.664 166.477 417.937 158.75 408.406 158.75C398.875 158.75 391.148 166.477 391.148 176.008C391.148 185.54 398.875 193.267 408.406 193.267Z" fill="#D4666A"/>
<path d="M403.688 180.713L413.099 171.301" stroke="white" stroke-width="2.50931" stroke-linecap="round" stroke-linejoin="round"/>
<path d="M403.688 171.301L413.099 180.713" stroke="white" stroke-width="2.50931" stroke-linecap="round" stroke-linejoin="round"/>
</g>
<g opacity="0.2">
<path d="M290.645 1H11.3546C5.63591 1 1 5.63592 1 11.3546V78.228C1 83.9467 5.63593 88.5826 11.3546 88.5826H290.645C296.364 88.5826 301 83.9467 301 78.228V11.3546C301 5.63591 296.364 1 290.645 1Z" fill="#FFEDED" stroke="#D4666A" stroke-width="1.6193"/>
<path d="M31.7934 46.5823H34.313C34.2624 47.4081 34.0349 48.1412 33.6304 48.7816C33.2316 49.4221 32.6726 49.922 31.9535 50.2816C31.2401 50.6411 30.3806 50.8209 29.375 50.8209C28.5885 50.8209 27.8835 50.6861 27.2599 50.4164C26.6364 50.1411 26.1027 49.7479 25.6589 49.2367C25.2207 48.7255 24.8864 48.1075 24.6561 47.3828C24.4258 46.6581 24.3106 45.8464 24.3106 44.9475V44.0965C24.3106 43.1976 24.4286 42.3859 24.6645 41.6612C24.9061 40.9309 25.2488 40.3101 25.6926 39.7989C26.142 39.2877 26.6785 38.8944 27.3021 38.6192C27.9256 38.3439 28.6222 38.2063 29.3919 38.2063C30.4143 38.2063 31.2766 38.3916 31.9788 38.7624C32.6867 39.1332 33.2344 39.6444 33.622 40.2961C34.0153 40.9477 34.2512 41.6893 34.3298 42.5207H31.8019C31.7738 42.0263 31.6755 41.6078 31.5069 41.2651C31.3384 40.9168 31.0828 40.6556 30.7401 40.4814C30.4031 40.3017 29.9536 40.2118 29.3919 40.2118C28.9705 40.2118 28.6026 40.2904 28.288 40.4477C27.9734 40.605 27.7094 40.8438 27.4959 41.164C27.2824 41.4842 27.1223 41.8887 27.0156 42.3774C26.9144 42.8606 26.8639 43.4279 26.8639 44.0796V44.9475C26.8639 45.5823 26.9116 46.1413 27.0071 46.6244C27.1026 47.1019 27.2487 47.5064 27.4453 47.8379C27.6476 48.1637 27.906 48.4109 28.2206 48.5794C28.5408 48.7423 28.9256 48.8238 29.375 48.8238C29.9031 48.8238 30.3385 48.7395 30.6811 48.571C31.0238 48.4024 31.285 48.1525 31.4648 47.821C31.6502 47.4896 31.7597 47.0767 31.7934 46.5823ZM35.4337 46.1862V46.0093C35.4337 45.3408 35.5292 44.7256 35.7202 44.1639C35.9112 43.5965 36.1893 43.1049 36.5545 42.6892C36.9196 42.2735 37.369 41.9505 37.9027 41.7202C38.4364 41.4842 39.0487 41.3662 39.7397 41.3662C40.4307 41.3662 41.0458 41.4842 41.5851 41.7202C42.1244 41.9505 42.5767 42.2735 42.9418 42.6892C43.3126 43.1049 43.5935 43.5965 43.7845 44.1639C43.9755 44.7256 44.071 45.3408 44.071 46.0093V46.1862C44.071 46.8491 43.9755 47.4643 43.7845 48.0317C43.5935 48.5934 43.3126 49.085 42.9418 49.5063C42.5767 49.922 42.1273 50.2451 41.5936 50.4754C41.0599 50.7057 40.4476 50.8209 39.7566 50.8209C39.0656 50.8209 38.4505 50.7057 37.9112 50.4754C37.3775 50.2451 36.9252 49.922 36.5545 49.5063C36.1893 49.085 35.9112 48.5934 35.7202 48.0317C35.5292 47.4643 35.4337 46.8491 35.4337 46.1862ZM37.8606 46.0093V46.1862C37.8606 46.5683 37.8943 46.925 37.9617 47.2564C38.0291 47.5879 38.1359 47.88 38.2819 48.1328C38.4336 48.38 38.6302 48.5738 38.8718 48.7142C39.1133 48.8547 39.4083 48.9249 39.7566 48.9249C40.0936 48.9249 40.383 48.8547 40.6245 48.7142C40.8661 48.5738 41.0599 48.38 41.206 48.1328C41.352 47.88 41.4587 47.5879 41.5262 47.2564C41.5992 46.925 41.6357 46.5683 41.6357 46.1862V46.0093C41.6357 45.6385 41.5992 45.2902 41.5262 44.9644C41.4587 44.6329 41.3492 44.3408 41.1975 44.088C41.0515 43.8296 40.8577 43.6274 40.6161 43.4813C40.3745 43.3352 40.0824 43.2622 39.7397 43.2622C39.397 43.2622 39.1049 43.3352 38.8634 43.4813C38.6274 43.6274 38.4336 43.8296 38.2819 44.088C38.1359 44.3408 38.0291 44.6329 37.9617 44.9644C37.8943 45.2902 37.8606 45.6385 37.8606 46.0093ZM47.9894 43.4223V50.6523H45.5541V41.5348H47.8377L47.9894 43.4223ZM47.6523 45.7733H46.9782C46.9782 45.1385 47.054 44.5543 47.2057 44.0206C47.363 43.4813 47.5905 43.015 47.8882 42.6218C48.1916 42.2229 48.5652 41.914 49.009 41.6949C49.4528 41.4758 49.9668 41.3662 50.551 41.3662C50.9555 41.3662 51.3263 41.428 51.6634 41.5516C52.0004 41.6696 52.2897 41.8578 52.5313 42.1162C52.7785 42.369 52.9695 42.7004 53.1043 43.1105C53.2391 43.515 53.3065 44.001 53.3065 44.5683V50.6523H50.8797V44.838C50.8797 44.4223 50.8235 44.1021 50.7112 43.8774C50.5988 43.6527 50.4387 43.4954 50.2308 43.4055C50.0286 43.3156 49.7842 43.2706 49.4977 43.2706C49.1831 43.2706 48.9079 43.3352 48.6719 43.4645C48.4416 43.5937 48.2506 43.7734 48.0989 44.0038C47.9472 44.2285 47.8349 44.4925 47.7618 44.7959C47.6888 45.0992 47.6523 45.425 47.6523 45.7733ZM53.079 45.4953L52.2111 45.6048C52.2111 45.0093 52.2841 44.456 52.4302 43.9448C52.5819 43.4336 52.8038 42.9841 53.0959 42.5965C53.3936 42.2089 53.7616 41.9083 54.1998 41.6949C54.6379 41.4758 55.1435 41.3662 55.7165 41.3662C56.1547 41.3662 56.5536 41.4308 56.9131 41.56C57.2727 41.6836 57.5788 41.8831 57.8316 42.1583C58.09 42.428 58.2867 42.7819 58.4215 43.2201C58.5619 43.6583 58.6322 44.1948 58.6322 44.8296V50.6523H56.1969V44.8296C56.1969 44.4082 56.1407 44.088 56.0283 43.8689C55.9216 43.6442 55.7643 43.4897 55.5564 43.4055C55.3542 43.3156 55.1126 43.2706 54.8318 43.2706C54.5396 43.2706 54.284 43.3296 54.0649 43.4476C53.8458 43.56 53.6633 43.7173 53.5172 43.9195C53.3711 44.1217 53.2616 44.3577 53.1886 44.6273C53.1155 44.8914 53.079 45.1807 53.079 45.4953ZM62.9381 43.2875V54.1578H60.5113V41.5348H62.7612L62.9381 43.2875ZM68.7104 45.9924V46.1694C68.7104 46.8323 68.6317 47.4474 68.4744 48.0148C68.3227 48.5822 68.098 49.0766 67.8003 49.4979C67.5025 49.9136 67.1318 50.2394 66.688 50.4754C66.2498 50.7057 65.7442 50.8209 65.1712 50.8209C64.615 50.8209 64.1319 50.7085 63.7218 50.4838C63.3117 50.2591 62.9662 49.9445 62.6853 49.54C62.4101 49.1299 62.1882 48.6552 62.0196 48.1159C61.8511 47.5766 61.7219 46.998 61.632 46.3801V45.9166C61.7219 45.2537 61.8511 44.647 62.0196 44.0965C62.1882 43.5403 62.4101 43.06 62.6853 42.6555C62.9662 42.2454 63.3089 41.928 63.7134 41.7033C64.1235 41.4786 64.6038 41.3662 65.1543 41.3662C65.733 41.3662 66.2414 41.4758 66.6796 41.6949C67.1234 41.914 67.4941 42.2286 67.7919 42.6387C68.0952 43.0487 68.3227 43.5375 68.4744 44.1049C68.6317 44.6723 68.7104 45.3015 68.7104 45.9924ZM66.2751 46.1694V45.9924C66.2751 45.6048 66.2414 45.2481 66.174 44.9223C66.1122 44.5908 66.011 44.3015 65.8706 44.0543C65.7358 43.8071 65.556 43.6161 65.3313 43.4813C65.1122 43.3409 64.8454 43.2706 64.5308 43.2706C64.1993 43.2706 63.9156 43.324 63.6797 43.4308C63.4494 43.5375 63.2612 43.692 63.1151 43.8942C62.969 44.0965 62.8595 44.338 62.7865 44.6189C62.7134 44.8998 62.6685 45.2172 62.6516 45.5711V46.7424C62.6797 47.1581 62.7584 47.5317 62.8876 47.8631C63.0168 48.189 63.2162 48.4474 63.4859 48.6384C63.7555 48.8294 64.1094 48.9249 64.5476 48.9249C64.8678 48.9249 65.1375 48.8547 65.3566 48.7142C65.5757 48.5682 65.7526 48.3687 65.8875 48.1159C66.0279 47.8631 66.1262 47.571 66.1824 47.2396C66.2442 46.9081 66.2751 46.5514 66.2751 46.1694ZM69.8311 46.1862V46.0093C69.8311 45.3408 69.9266 44.7256 70.1176 44.1639C70.3086 43.5965 70.5867 43.1049 70.9518 42.6892C71.317 42.2735 71.7664 41.9505 72.3001 41.7202C72.8338 41.4842 73.4461 41.3662 74.1371 41.3662C74.8281 41.3662 75.4432 41.4842 75.9825 41.7202C76.5218 41.9505 76.974 42.2735 77.3392 42.6892C77.71 43.1049 77.9909 43.5965 78.1819 44.1639C78.3729 44.7256 78.4684 45.3408 78.4684 46.0093V46.1862C78.4684 46.8491 78.3729 47.4643 78.1819 48.0317C77.9909 48.5934 77.71 49.085 77.3392 49.5063C76.974 49.922 76.5246 50.2451 75.9909 50.4754C75.4573 50.7057 74.8449 50.8209 74.1539 50.8209C73.463 50.8209 72.8478 50.7057 72.3085 50.4754C71.7748 50.2451 71.3226 49.922 70.9518 49.5063C70.5867 49.085 70.3086 48.5934 70.1176 48.0317C69.9266 47.4643 69.8311 46.8491 69.8311 46.1862ZM72.258 46.0093V46.1862C72.258 46.5683 72.2917 46.925 72.3591 47.2564C72.4265 47.5879 72.5332 47.88 72.6793 48.1328C72.831 48.38 73.0276 48.5738 73.2692 48.7142C73.5107 48.8547 73.8056 48.9249 74.1539 48.9249C74.491 48.9249 74.7803 48.8547 75.0219 48.7142C75.2634 48.5738 75.4573 48.38 75.6033 48.1328C75.7494 47.88 75.8561 47.5879 75.9235 47.2564C75.9966 46.925 76.0331 46.5683 76.0331 46.1862V46.0093C76.0331 45.6385 75.9966 45.2902 75.9235 44.9644C75.8561 44.6329 75.7466 44.3408 75.5949 44.088C75.4488 43.8296 75.255 43.6274 75.0135 43.4813C74.7719 43.3352 74.4798 43.2622 74.1371 43.2622C73.7944 43.2622 73.5023 43.3352 73.2607 43.4813C73.0248 43.6274 72.831 43.8296 72.6793 44.088C72.5332 44.3408 72.4265 44.6329 72.3591 44.9644C72.2917 45.2902 72.258 45.6385 72.258 46.0093ZM82.3362 43.4813V50.6523H79.9093V41.5348H82.1845L82.3362 43.4813ZM81.9823 45.7733H81.325C81.325 45.0992 81.4121 44.4925 81.5862 43.9532C81.7604 43.4083 82.0047 42.9448 82.3193 42.5628C82.6339 42.1752 83.0075 41.8803 83.4401 41.678C83.8782 41.4702 84.367 41.3662 84.9063 41.3662C85.3332 41.3662 85.7237 41.428 86.0776 41.5516C86.4315 41.6752 86.7349 41.8718 86.9877 42.1415C87.2461 42.4111 87.4427 42.7679 87.5775 43.2117C87.718 43.6555 87.7882 44.1976 87.7882 44.838V50.6523H85.3445V44.8296C85.3445 44.4251 85.2883 44.1105 85.1759 43.8858C85.0636 43.6611 84.8979 43.5038 84.6788 43.4139C84.4653 43.3184 84.2013 43.2706 83.8867 43.2706C83.5608 43.2706 83.2771 43.3352 83.0356 43.4645C82.7996 43.5937 82.603 43.7734 82.4457 44.0038C82.294 44.2285 82.1789 44.4925 82.1002 44.7959C82.0216 45.0992 81.9823 45.425 81.9823 45.7733ZM93.83 50.8209C93.1222 50.8209 92.4874 50.7085 91.9256 50.4838C91.3639 50.2535 90.8864 49.9361 90.4931 49.5316C90.1055 49.1271 89.8077 48.658 89.5999 48.1244C89.392 47.5851 89.2881 47.0121 89.2881 46.4053V46.0683C89.2881 45.3773 89.3864 44.7453 89.583 44.1723C89.7797 43.5993 90.0605 43.1021 90.4257 42.6808C90.7965 42.2595 91.2459 41.9364 91.774 41.7117C92.302 41.4814 92.8975 41.3662 93.5604 41.3662C94.2064 41.3662 94.7794 41.473 95.2794 41.6864C95.7794 41.8999 96.1979 42.2033 96.535 42.5965C96.8777 42.9898 97.1361 43.4616 97.3102 44.0122C97.4844 44.5571 97.5715 45.1638 97.5715 45.8323V46.8435H90.3246V45.2256H95.1867V45.0402C95.1867 44.7032 95.1249 44.4026 95.0013 44.1386C94.8834 43.8689 94.7036 43.6555 94.462 43.4982C94.2205 43.3409 93.9115 43.2622 93.5351 43.2622C93.2149 43.2622 92.9396 43.3324 92.7093 43.4729C92.479 43.6133 92.2908 43.8099 92.1447 44.0627C92.0043 44.3155 91.8975 44.6133 91.8245 44.956C91.7571 45.293 91.7234 45.6638 91.7234 46.0683V46.4053C91.7234 46.7705 91.774 47.1076 91.8751 47.4165C91.9818 47.7255 92.1307 47.9923 92.3217 48.2171C92.5183 48.4418 92.7542 48.6159 93.0295 48.7395C93.3104 48.8631 93.6278 48.9249 93.9817 48.9249C94.4199 48.9249 94.8272 48.8406 95.2036 48.6721C95.5856 48.4979 95.9142 48.2367 96.1895 47.8884L97.3692 49.1693C97.1782 49.4445 96.917 49.7086 96.5855 49.9614C96.2597 50.2142 95.8665 50.422 95.4058 50.5849C94.9452 50.7422 94.4199 50.8209 93.83 50.8209ZM101.33 43.4813V50.6523H98.9029V41.5348H101.178L101.33 43.4813ZM100.976 45.7733H100.319C100.319 45.0992 100.406 44.4925 100.58 43.9532C100.754 43.4083 100.998 42.9448 101.313 42.5628C101.627 42.1752 102.001 41.8803 102.434 41.678C102.872 41.4702 103.361 41.3662 103.9 41.3662C104.327 41.3662 104.717 41.428 105.071 41.5516C105.425 41.6752 105.728 41.8718 105.981 42.1415C106.24 42.4111 106.436 42.7679 106.571 43.2117C106.712 43.6555 106.782 44.1976 106.782 44.838V50.6523H104.338V44.8296C104.338 44.4251 104.282 44.1105 104.169 43.8858C104.057 43.6611 103.891 43.5038 103.672 43.4139C103.459 43.3184 103.195 43.2706 102.88 43.2706C102.554 43.2706 102.271 43.3352 102.029 43.4645C101.793 43.5937 101.597 43.7734 101.439 44.0038C101.288 44.2285 101.172 44.4925 101.094 44.7959C101.015 45.0992 100.976 45.425 100.976 45.7733ZM113.093 41.5348V43.2538H107.784V41.5348H113.093ZM109.099 39.2849H111.526V47.9053C111.526 48.1693 111.56 48.3715 111.627 48.512C111.7 48.6524 111.807 48.7507 111.947 48.8069C112.088 48.8575 112.265 48.8828 112.478 48.8828C112.63 48.8828 112.765 48.8771 112.883 48.8659C113.006 48.8491 113.11 48.8322 113.194 48.8153L113.203 50.6018C112.995 50.6692 112.77 50.7226 112.529 50.7619C112.287 50.8012 112.02 50.8209 111.728 50.8209C111.194 50.8209 110.728 50.7338 110.329 50.5597C109.936 50.3799 109.633 50.0934 109.419 49.7001C109.206 49.3069 109.099 48.7901 109.099 48.1496V39.2849ZM126.93 43.4392V45.5627C126.93 46.484 126.831 47.2789 126.635 47.9474C126.438 48.6103 126.154 49.1552 125.784 49.5822C125.419 50.0035 124.983 50.3153 124.478 50.5175C123.972 50.7198 123.41 50.8209 122.792 50.8209C122.298 50.8209 121.837 50.7591 121.41 50.6355C120.983 50.5063 120.599 50.3069 120.256 50.0372C119.919 49.7676 119.627 49.4277 119.379 49.0176C119.138 48.6019 118.953 48.1075 118.823 47.5345C118.694 46.9615 118.63 46.3042 118.63 45.5627V43.4392C118.63 42.5179 118.728 41.7286 118.924 41.0713C119.127 40.4084 119.41 39.8663 119.776 39.445C120.146 39.0236 120.584 38.7147 121.09 38.518C121.596 38.3158 122.157 38.2147 122.775 38.2147C123.27 38.2147 123.728 38.2793 124.149 38.4085C124.576 38.5321 124.961 38.7259 125.303 38.9899C125.646 39.254 125.938 39.5938 126.18 40.0096C126.421 40.4196 126.607 40.9112 126.736 41.4842C126.865 42.0516 126.93 42.7033 126.93 43.4392ZM124.494 45.8829V43.1105C124.494 42.6667 124.469 42.2791 124.419 41.9477C124.374 41.6162 124.303 41.3353 124.208 41.105C124.112 40.8691 123.994 40.6781 123.854 40.532C123.714 40.3859 123.553 40.2792 123.374 40.2118C123.194 40.1444 122.994 40.1107 122.775 40.1107C122.5 40.1107 122.256 40.164 122.042 40.2708C121.834 40.3775 121.657 40.5489 121.511 40.7848C121.365 41.0151 121.253 41.3241 121.174 41.7117C121.101 42.0937 121.065 42.56 121.065 43.1105V45.8829C121.065 46.3267 121.087 46.7171 121.132 47.0542C121.183 47.3913 121.256 47.6806 121.351 47.9221C121.452 48.1581 121.57 48.3519 121.705 48.5036C121.846 48.6496 122.006 48.7564 122.186 48.8238C122.371 48.8912 122.573 48.9249 122.792 48.9249C123.062 48.9249 123.301 48.8715 123.509 48.7648C123.722 48.6524 123.902 48.4783 124.048 48.2423C124.2 48.0008 124.312 47.6862 124.385 47.2986C124.458 46.9109 124.494 46.439 124.494 45.8829ZM137.176 46.0683V47.9727H128.337L128.219 46.498L133.334 38.3832H135.264L133.174 41.8803L130.629 46.0683H137.176ZM135.786 38.3832V50.6523H133.359V38.3832H135.786Z" fill="#D4666A"/>
<path d="M254.406 62.2666C263.937 62.2666 271.664 54.5398 271.664 45.0083C271.664 35.4768 263.937 27.75 254.406 27.75C244.875 27.75 237.148 35.4768 237.148 45.0083C237.148 54.5398 244.875 62.2666 254.406 62.2666Z" fill="#D4666A"/>
<path d="M249.688 49.713L259.099 40.3008" stroke="white" stroke-width="2.50931" stroke-linecap="round" stroke-linejoin="round"/>
<path d="M249.688 40.3008L259.099 49.713" stroke="white" stroke-width="2.50931" stroke-linecap="round" stroke-linejoin="round"/>
</g>
</svg>
