<svg width="27" height="42" viewBox="0 0 27 42" fill="none" xmlns="http://www.w3.org/2000/svg">
<g clip-path="url(#clip0_1196_22469)">
<path d="M6.74865 42C10.4739 42 13.4973 38.864 13.4973 35V28H6.74865C3.02339 28 0 31.136 0 35C0 38.864 3.02339 42 6.74865 42Z" fill="#0ACF83"/>
<path d="M0 21C0 17.136 3.02339 14 6.74865 14H13.4973V28H6.74865C3.02339 28 0 24.864 0 21Z" fill="#A259FF"/>
<path d="M0 7C0 3.136 3.02339 0 6.74865 0H13.4973V14H6.74865C3.02339 14 0 10.864 0 7Z" fill="#F24E1E"/>
<path d="M13.5 0H20.2487C23.9739 0 26.9973 3.136 26.9973 7C26.9973 10.864 23.9739 14 20.2487 14H13.5V0Z" fill="#FF7262"/>
<path d="M26.9973 21C26.9973 24.864 23.9739 28 20.2487 28C16.5234 28 13.5 24.864 13.5 21C13.5 17.136 16.5234 14 20.2487 14C23.9739 14 26.9973 17.136 26.9973 21Z" fill="#1ABCFE"/>
</g>
<defs>
<clipPath id="clip0_1196_22469">
<rect width="27" height="42" fill="white"/>
</clipPath>
</defs>
</svg>
