<svg width="81" height="81" viewBox="0 0 81 81" fill="none" xmlns="http://www.w3.org/2000/svg">
<mask id="mask0_754_16878" style="mask-type:alpha" maskUnits="userSpaceOnUse" x="0" y="0" width="81" height="81">
<circle cx="40.6016" cy="40.8008" r="40" fill="#C4C4C4"/>
</mask>
<g mask="url(#mask0_754_16878)">
<circle cx="40.6016" cy="40.8008" r="40" fill="#2A634C"/>
<path d="M81.0016 82.8C81.0016 82.8 77.9389 72.2326 75.0016 64.4C73.7794 61.1409 64.0958 59.8095 60.2016 57.6C60.2016 53.5999 56.9849 49.1364 44.6016 50.4C28.6093 52.0318 27.4016 58.0649 24.2016 60.4C17.0185 65.6418 14.0739 65.6634 12.2016 69.2C9.26422 74.748 9.64021 77.4026 8.66109 84.7217C7.68198 92.0408 19.105 88.6382 19.105 88.6382L16.494 109.2H63.1652C63.0564 103.869 69.1051 106.85 69.3662 105.283C69.6273 103.717 65.7761 94.8392 69.3662 91.2491C72.9563 87.659 81.0016 82.8 81.0016 82.8Z" fill="#61DBAF"/>
<path d="M28.3774 18.1426C26.775 19.0328 26.61 21.4063 27.2627 25.6492C27.9154 29.892 28.1071 32.0604 28.3774 33.6148C30.1862 44.0157 37.6294 46.5407 38.3593 47.1895L47.9624 45.2313C52.0669 40.0094 56.01 31.4837 56.8646 29.3472C57.9329 26.6765 56.8646 14.5526 47.9624 12.0768C32.7362 7.84219 31.8319 13.247 27.2627 10.9624C25.6308 16.8371 29.6593 17.4304 28.3774 18.1426Z" fill="#5B3232"/>
<path d="M54.5518 34.1206C53.8234 35.2132 51.2876 37.3254 49.9225 37.5034C49.5981 41.0721 49.6757 47.4646 49.7839 52.0851C49.8382 54.4077 50.9908 56.3853 50.9908 56.9809C50.9909 57.9129 45.5598 62.4726 41.9509 62.5291C38.666 62.5804 34.3398 58.7048 34.7708 56.9809C34.9184 56.3903 36.7833 53.4539 36.8867 52.7379C37.4165 49.0678 37.4165 46.2768 37.4165 46.2768C34.3897 46.8109 30.6191 42.4384 29.7289 39.9458C28.8387 37.4532 27.845 32.0176 27.845 29.881C27.845 29.2932 27.4809 30.0119 29.5488 28.2602L32.118 19.7324C32.8302 20.2072 34.3932 18.5673 35.7499 21.7328C35.9258 22.1432 37.2748 20.0381 38.3609 20.7536C39.34 22.7119 40.3191 20.7536 41.2982 22.3855C42.9491 24.2645 44.3099 27.3735 44.9374 27.9225C46.3617 29.1688 46.1837 29.5249 46.5398 29.881C46.8959 30.2371 46.8959 31.2718 47.7861 31.806C47.9285 30.6665 50.338 27.5329 50.9908 27.5329C55.9761 26.6427 55.9763 31.984 54.5518 34.1206Z" fill="#FFCCAF"/>
<path d="M35.0194 32.8145C35.0194 33.0547 34.3281 34.262 34.3281 34.4113C34.3281 34.8635 34.6634 35.2477 35.0194 35.3071" stroke="black" stroke-width="0.4" stroke-linecap="round"/>
<path d="M34.2109 37.7837C34.8989 37.7833 36.4955 37.7836 38.0326 37.7832" stroke="black" stroke-width="0.4" stroke-linecap="round"/>
<circle cx="32.8888" cy="32.2579" r="0.904427" fill="#272727"/>
<circle cx="40.131" cy="32.2579" r="0.904427" fill="#272727"/>
<path d="M31.0826 29.2486C31.4601 29.0471 32.4517 28.7305 33.3976 29.0764" stroke="black" stroke-width="0.8" stroke-linecap="round"/>
<path d="M39.4501 28.7579C40.0758 29.061 40.0758 29.061 41.7693 28.8583" stroke="black" stroke-width="0.8" stroke-linecap="round"/>
<path d="M49.1716 39.4941C47.2389 43.2289 40.7427 45.4306 37.7362 46.0645L37.4141 51.2517C46.8201 47.9319 49.1716 42.0301 49.1716 39.4941Z" fill="#FA9F6C"/>
</g>
</svg>
