<svg width="81" height="80" viewBox="0 0 81 80" fill="none" xmlns="http://www.w3.org/2000/svg">
<circle cx="40.6016" cy="40" r="40" fill="#E05B32"/>
<mask id="mask0_754_16839" style="mask-type:alpha" maskUnits="userSpaceOnUse" x="0" y="0" width="81" height="80">
<circle cx="40.6016" cy="40" r="40" fill="#86AC93"/>
</mask>
<g mask="url(#mask0_754_16839)">
<path d="M18.6008 60.4008C21.4328 52.8489 36.2517 49.2826 41.2864 49.5973C58.4627 49.5971 62.3696 57.6933 65.2017 63.0425C68.0337 68.3917 69.2532 71.0354 70.1972 78.0922C71.1412 85.149 59.1081 81.4109 59.1081 81.4109L65.2017 120.801H16.7419C16.8468 115.661 22.5282 86.4854 22.2765 84.975C22.0247 83.4645 15.1685 88.4364 11.7071 84.975C6.95049 80.2184 16.9355 64.8414 18.6008 60.4008Z" fill="#F9C16C"/>
<path d="M59.2109 22.3882C59.2109 16.2683 58.1335 14.9634 56.5885 14.1051C55.3525 13.4185 53.5558 12.1024 52.8119 11.5302C50.4086 9.41299 44.0227 6.03693 37.7055 9.47021C29.809 13.7618 28.0923 23.5466 29.1223 26.1216C29.9463 28.1816 24.774 46.1276 20.4139 49.6157H59.1258C59.1541 49.6168 59.1824 49.6168 59.2109 49.6157H59.1258C56.5268 49.5146 54.8633 40.1565 56.5885 30.2363C56.8492 28.7376 59.2109 28.5081 59.2109 22.3882Z" fill="#623F3F"/>
<path d="M31.352 30.724C32.0543 31.7774 34.4992 33.8139 35.8153 33.9856C36.1281 37.4264 36.0533 45.4778 35.949 49.9327C35.8966 52.172 30.317 51.1648 30.5963 53.6004C30.8756 56.036 40.0217 59.9479 43.5012 60.0023C46.6685 60.0519 53.3963 56.0004 52.9414 54.0235C52.4866 52.0466 48.4836 51.2525 48.384 50.5621C47.8731 47.0236 47.6102 42.377 47.6102 42.377C50.5286 42.892 54.2315 38.5473 55.0898 36.144C55.9481 33.7407 57.1016 28.6964 57.1016 26.6364C57.1016 24.0749 56.3486 19.5705 54.3548 17.8815L52.9817 16.8516C52.2951 17.3093 44.385 18.0282 43.077 21.0803C42.5318 22.3524 41.9951 23.5465 40.6218 24.7481C39.2485 25.9497 39.4202 26.2931 39.0769 26.6364C38.7335 26.9797 38.7335 27.9774 37.8752 28.4924C37.7379 27.3937 35.4148 24.3724 34.7853 24.3724C29.9788 23.5141 29.9786 28.664 31.352 30.724Z" fill="#FFCCAF"/>
<path d="M50.185 29.4648C50.185 29.6965 50.8516 30.8605 50.8516 31.0045C50.8515 31.4405 50.5283 31.8109 50.185 31.8681" stroke="black" stroke-width="0.4" stroke-linecap="round"/>
<path d="M50.1953 35.0483C49.8347 34.3688 47.3123 34.3699 46.5953 35.0484" stroke="black" stroke-width="0.4" stroke-linecap="round"/>
<ellipse rx="0.75" ry="1.1" transform="matrix(-1 0 0 1 45.3984 29.1)" fill="#272727"/>
<ellipse rx="0.653674" ry="0.980511" transform="matrix(-1 0 0 1 52.0338 29.2442)" fill="#272727"/>
<path d="M53.9822 26.0276C53.6182 25.8333 52.6622 25.5281 51.7502 25.8616" stroke="black" stroke-width="0.4" stroke-linecap="round"/>
<path d="M45.9072 25.5533C45.493 25.3226 44.5953 25.2004 43.671 25.6501" stroke="black" stroke-width="0.4" stroke-linecap="round"/>
<path d="M36.8055 36.5586C38.5359 40.0261 44.5022 41.7874 47.1938 42.376L47.6094 47.3624C39.1882 44.2802 36.8055 38.9131 36.8055 36.5586Z" fill="#FA9F6C"/>
<circle r="1.2587" transform="matrix(-1 0 0 1 35.3272 32.9403)" fill="white"/>
<path d="M11.6428 85.1447C10.7137 75.3899 56.9559 67.8377 59.4732 69.0964C61.9906 70.355 71.4934 74.4829 69.5428 78.2219C67.7821 81.597 63.6328 77.774 61.9906 78.2219C58.5292 79.1659 12.2721 91.7529 11.6428 85.1447Z" fill="#FFB185"/>
<path d="M24.2285 78.5357C19.9699 76.5744 13.9109 81.8784 14.4736 80.2532C14.9707 78.8172 18.3782 73.4498 22.9698 72.8716C34.424 71.4291 65.1114 76.4495 67.3388 77.2769C69.5663 78.1044 69.6617 81.7211 69.0907 83.098C67.642 86.5915 60.1917 86.8056 57.6519 86.3905C55.0284 85.9618 36.4062 84.1443 24.2285 78.5357Z" fill="#FFCCAF"/>
</g>
</svg>
