<svg width="81" height="81" viewBox="0 0 81 81" fill="none" xmlns="http://www.w3.org/2000/svg">
<mask id="mask0_754_16755" style="mask-type:alpha" maskUnits="userSpaceOnUse" x="0" y="0" width="81" height="81">
<circle cx="40.6016" cy="40.5" r="40" fill="#FFD568"/>
</mask>
<g mask="url(#mask0_754_16755)">
<circle cx="40.6016" cy="40.498" r="40" fill="#785495"/>
<path d="M36.5565 15.2108C43.156 9.24697 53.746 9.73666 59.3091 17.2418C59.3091 17.2418 55.8952 41.2239 63.961 49.8509C72.0268 58.4779 56.3249 76.2077 56.3249 76.2077C51.3011 78.5132 12.1722 78.246 10.3734 74.2282C9.37932 72.0079 0.170952 56.6416 23.1306 43.1538C23.3746 24.0838 31.9542 19.3699 36.5565 15.2108Z" fill="#2F1E37"/>
<path d="M10.7222 65.7041C13.5825 54.36 25.6555 50.9436 39.1064 48.1619C52.5573 45.3801 61.9476 62.9696 62.772 68.3169C63.3304 71.9387 66.7567 78.5802 69.3946 91.0208L78.228 90.3003C82.5256 89.7645 86.7922 89.234 86.8691 89.5955C87.9556 94.7068 88.2513 96.4395 89.0392 100.089L52.5413 108.873C41.5351 111.665 16.7808 117.099 15.187 115.36C13.1428 113.13 7.14675 79.8842 10.7222 65.7041Z" fill="#7871CB"/>
<path d="M45.1624 59.9201C39.7217 60.7019 36.5147 55.1429 33.9349 49.3998C33.9349 49.3998 35.6462 45.4407 35.8318 41.9687C36.0174 38.4967 35.9337 32.8486 35.9337 32.8486C38.8903 35.7852 47.8039 43.4071 47.6355 43.9913C47.4672 44.5755 47.4108 48.7303 47.4036 50.7348C47.6202 55.9237 48.0483 59.5054 45.1624 59.9201Z" fill="#FFCCAF"/>
<g style="mix-blend-mode:darken">
<path d="M47.8569 56.0463L36.0156 37.3945L47.3487 45.316L47.8569 56.0463Z" fill="#FA9F6C"/>
</g>
<path d="M50.5397 46.2251C56.904 43.6734 60.105 34.207 59.8354 25.7659C59.9979 20.1294 52.6597 13.7638 43.6739 17.1151C37.3643 19.9464 37.0583 33.1304 37.0875 32.1191C37.1318 30.5818 34.9958 29.3249 34.0869 29.4684C32.3583 29.7413 31.3123 30.5306 31.3268 32.6904C31.3489 35.9976 34.7277 38.5526 35.8939 38.2065C36.5889 38.0002 42.5842 49.4147 50.5397 46.2251Z" fill="#FFCCAF"/>
<path d="M47.4511 40.107C47.6099 39.6276 51.459 40.1133 51.837 40.4994C52.2149 40.8856 50.6239 41.9832 49.0517 41.7008C47.2939 41.385 47.2922 40.5863 47.4511 40.107Z" fill="#FFB4B4" stroke="#2F1E37" stroke-width="0.6"/>
<path d="M52.9954 25.2464C54.9534 21.201 58.6063 21.3422 54.5976 16.6996C49.6069 12.0342 45.9761 12.313 41.3299 13.3758C36.6837 14.4385 36.2432 22.7965 36.4815 26.3932C36.6721 29.2706 36.5059 35.5949 38.1271 37.528C37.8332 33.5755 38.6038 34.2084 40.6354 31.2924C43.1919 27.6228 46.4456 26.3204 47.6476 22.0076C47.6476 24.701 45.4935 27.0558 42.0975 30.201C47.261 28.9822 50.5975 30.201 52.9954 25.2464Z" fill="#2F1E37"/>
<path d="M57.3235 25.5746C55.8126 22.3459 55.1425 20.5019 53.5849 17.2091C53.4289 16.6917 54.742 14.0604 58.7435 16.1611C60.9509 17.32 62.5948 22.4482 63.0186 25.5374C63.3577 28.0088 60.6973 32.9147 59.02 33.7781C58.9192 33.3193 58.8868 28.9156 57.3235 25.5746Z" fill="#2F1E37"/>
<ellipse cx="48.642" cy="33.7476" rx="0.75" ry="1.02525" transform="rotate(1.65075 48.642 33.7476)" fill="#2F1E37"/>
<ellipse cx="55.5405" cy="34.7906" rx="0.75" ry="1.02525" transform="rotate(1.65075 55.5405 34.7906)" fill="#2F1E37"/>
<path d="M53 34.9004C53.0996 35.7012 53.7477 35.7961 53.5996 36.2012C53.4515 36.6063 53.3151 36.5925 52.945 36.8092" stroke="#2F1E37" stroke-width="0.6" stroke-linecap="round"/>
<path d="M46.2225 29.8308C46.7714 30.2049 48.188 30.7663 49.4637 30.0186" stroke="#2F1E37" stroke-width="0.6" stroke-linecap="round"/>
<path d="M51.239 34.5547C51.1764 35.784 49.9801 36.7648 48.5136 36.6901C47.0471 36.6154 45.9567 35.5181 46.0193 34.2888C46.0819 33.0596 47.2782 32.0787 48.7447 32.1534C50.2112 32.2281 51.3016 33.3255 51.239 34.5547Z" stroke="#2F1E37" stroke-width="0.4"/>
<path d="M58.4211 35.4503C58.3652 36.5479 57.3556 37.4134 56.1359 37.3513C54.9163 37.2891 53.9999 36.3255 54.0558 35.2279C54.1117 34.1304 55.1213 33.2648 56.341 33.327C57.5607 33.3891 58.477 34.3528 58.4211 35.4503Z" stroke="#2F1E37" stroke-width="0.4"/>
<path d="M54.0762 34.8957C54.1866 34.8957 54.2762 34.8061 54.2762 34.6957C54.2762 34.5852 54.1866 34.4957 54.0762 34.4957L54.0762 34.8957ZM51.252 34.4957L51.052 34.4957L51.052 34.8957L51.252 34.8957L51.252 34.4957ZM46.2361 33.2857C46.3417 33.3182 46.4536 33.259 46.4861 33.1534C46.5187 33.0479 46.4595 32.9359 46.3539 32.9034L46.2361 33.2857ZM36.6917 29.9261C36.5861 29.8935 36.4742 29.9527 36.4417 30.0583C36.4092 30.1639 36.4684 30.2758 36.5739 30.3083L36.6917 29.9261ZM54.0762 34.4957L51.252 34.4957L51.252 34.8957L54.0762 34.8957L54.0762 34.4957ZM46.3539 32.9034L36.6917 29.9261L36.5739 30.3083L46.2361 33.2857L46.3539 32.9034Z" fill="#2F1E37"/>
<path d="M55.2242 30.3057C55.6576 30.8091 56.8807 31.718 58.3064 31.3259" stroke="#2F1E37" stroke-width="0.6" stroke-linecap="round"/>
<circle cx="34.3184" cy="12.6528" r="6.70164" transform="rotate(-11.6843 34.3184 12.6528)" fill="#2F1E37"/>
</g>
</svg>
