<svg width="182" height="290" viewBox="0 0 182 290" fill="none" xmlns="http://www.w3.org/2000/svg">
<mask id="path-2-inside-1_1644_16384" fill="white">
<path d="M0 33.3086C0 26.6812 5.37258 21.3086 12 21.3086H170C176.627 21.3086 182 26.6812 182 33.3086V51.5035H0V33.3086Z"/>
</mask>
<path d="M0 33.3086C0 26.6812 5.37258 21.3086 12 21.3086H170C176.627 21.3086 182 26.6812 182 33.3086V51.5035H0V33.3086Z" fill="#F2F5FF"/>
<path d="M0 21.3086H182H0ZM182 52.5035H0V50.5035H182V52.5035ZM0 51.5035V21.3086V51.5035ZM182 21.3086V51.5035V21.3086Z" fill="#CCD1F4" mask="url(#path-2-inside-1_1644_16384)"/>
<ellipse cx="90.5367" cy="38.0488" rx="7.97423" ry="8.27924" fill="#D9D9D9"/>
<ellipse cx="90.5276" cy="37.8038" rx="6.09794" ry="6.33119" fill="black"/>
<path d="M86.3067 40.3036C84.3921 34.9247 75.018 14.0513 90.0559 14.0001C105.094 13.9489 97.4048 33.9676 94.7487 40.3036" stroke="#FF7A00" stroke-width="3" stroke-linecap="round"/>
<path d="M80.5 2L87.5 18.5M94 18.5L100 2" stroke="#FF7A00" stroke-width="3" stroke-linecap="round"/>
<path d="M0 51.5039H182V277.876C182 284.503 176.627 289.876 170 289.876H12C5.37258 289.876 0 284.503 0 277.876V51.5039Z" fill="#E6E9FE"/>
<path d="M52.2195 106.504H69.0293V101.992H57.6772V80.1613H52.2195V106.504ZM78.0163 80.1613H72.5586V106.504H78.0163V80.1613ZM82.4553 106.504H87.913V98.9722L90.6782 95.6248L97.9916 106.504H104.541L94.6078 91.95L104.432 80.1613H97.846L88.2768 91.8408H87.913V80.1613H82.4553V106.504ZM111.563 106.504L113.546 100.428H123.079L125.062 106.504H130.92L121.824 80.1613H114.801L105.669 106.504H111.563ZM114.929 96.1706L118.222 86.092H118.403L121.696 96.1706H114.929Z" fill="#464555"/>
<path d="M66.3999 197.943C66.3999 197.943 54.0039 183.554 62.3669 147.452C76.3608 139.848 115.413 140.318 116.571 147.451C119.979 168.439 122.645 178.544 120.585 187.297C119.816 190.566 116.571 196.151 116.571 196.151C116.571 196.151 93.1063 194.728 84.4206 197.037C75.603 199.381 66.3999 197.943 66.3999 197.943Z" fill="#2E1833"/>
<path d="M76.5293 177.334C85.0443 174.596 105.594 171.338 104.864 176.448C104.483 179.111 102.617 189.554 104.864 198.806C106.928 207.309 114.601 214.522 125.891 217.621C120.52 220.454 103.768 238.711 88.7047 237.765C69.6258 236.568 52.3189 215.629 53.9506 215.629C55.5657 215.629 75.1054 212.352 77.4131 202.347C79.2776 194.264 77.0451 184.525 76.5293 177.334Z" fill="url(#paint0_linear_1644_16384)"/>
<mask id="mask0_1644_16384" style="mask-type:alpha" maskUnits="userSpaceOnUse" x="53" y="173" width="73" height="65">
<path d="M76.5371 177.334C85.0522 174.596 105.601 171.338 104.871 176.448C104.491 179.111 102.625 189.554 104.871 198.806C106.936 207.309 114.609 214.522 125.899 217.621C120.527 220.454 103.776 238.711 88.7126 237.765C69.6336 236.568 52.3267 215.629 53.9584 215.629C55.5735 215.629 75.1132 212.352 77.4209 202.347C79.2855 194.264 77.0529 184.525 76.5371 177.334Z" fill="url(#paint1_linear_1644_16384)"/>
</mask>
<g mask="url(#mask0_1644_16384)">
<path d="M112.026 165.156C112.026 172.237 107.296 181.487 101.493 188.46C97.6276 193.105 92.2558 195.904 89.5476 195.904C86.8394 195.904 81.6545 193.124 77.8673 188.46C71.9927 181.225 67.1797 171.407 67.1797 163.879C67.1797 145.732 75.7649 131.514 89.5476 131.514C103.33 131.514 112.026 147.009 112.026 165.156Z" fill="#E29C76"/>
</g>
<path d="M134.779 217.291C123.101 210.773 117.602 211.832 110.62 208.505C109.934 210.001 106.122 198.508 105.307 199.693C102.964 203.101 102.251 207.391 90.9185 207.883C82.1098 208.266 80.6395 203.441 77.8581 200.357C77.4154 197.037 71.7193 207.801 70.311 208.505C39.7917 211.696 36.9064 223.137 36.9062 241.876H145.031C145.031 233.932 146.457 223.809 134.779 217.291Z" fill="black"/>
<ellipse rx="4.89867" ry="10.6077" transform="matrix(-0.847284 0.53114 0.269248 0.963071 67.3462 166.902)" fill="#FFC5A6"/>
<path d="M95.3019 137.336C94.3785 135.597 96.7503 130.727 98.0517 128.509C107.591 119.683 114.653 147.995 117.98 152.341C121.306 156.686 117.164 158.146 115.569 157.738C114.824 157.548 114.57 160.611 113.94 163.713C113.221 167.255 110.646 172.676 110.646 172.676C110.646 172.676 111.936 159.164 110.646 154.547C109.356 149.93 96.4561 139.508 95.3019 137.336Z" fill="#2E1833"/>
<path d="M110.798 144.779C108.757 142.317 102.874 139.894 101.082 139.147C99.289 138.401 96.7885 136.561 94.8985 137.318L91.7988 129.885C102.716 113.668 117.924 142.605 119.468 150.994C123.14 170.944 122.081 176.228 118.803 187.518C115.526 198.807 114.196 198.807 106.853 199.693C110.584 196.594 113.754 193.876 115.041 189.289C116.649 183.555 117.731 171.688 115.041 168.702C112.351 165.717 116.078 151.147 110.798 144.779Z" fill="#694D97"/>
<path d="M116.151 168.482C115.669 169.994 114.618 171.979 113.938 172.909C112.087 175.437 110.552 176.385 108.847 175.565C106.514 174.444 106.303 171.267 108.097 165.644C109.89 160.021 113.234 156.372 115.567 157.494C117.899 158.616 117.945 162.859 116.151 168.482Z" fill="#FFC5A6"/>
<path d="M111.954 172.021C113.789 171.336 114.844 168.875 115.649 167.138C116.023 166.328 117.756 162.431 117.265 160.731C116.912 159.511 115.649 158.739 113.594 160.432C112.929 160.831 111.774 164.464 111.732 166.709C111.691 168.953 109.141 173.487 109.739 173.128C111.001 172.369 110.118 172.707 111.954 172.021Z" fill="#F8B38D"/>
<path d="M63.7426 166.971C63.2045 165.571 63.1621 159.676 64.9765 160.348C65.4869 160.762 67.3253 167.316 67.4534 169.551C67.5815 171.786 69.0039 174.052 68.5446 173.679C67.5749 172.891 68.6818 174.581 67.2898 173.853C65.8978 173.124 64.4153 168.721 63.7426 166.971Z" fill="#EFA882"/>
<path d="M112.018 163.713C112.018 170.794 107.289 180.044 101.486 187.017C97.6198 191.662 92.248 194.46 89.5398 194.46C86.8316 194.46 81.6467 191.681 77.8595 187.017C71.9848 179.782 67.1719 169.963 67.1719 162.436C67.1719 144.289 75.7571 130.07 89.5398 130.07C103.322 130.07 112.018 145.565 112.018 163.713Z" fill="#FFD6C0"/>
<mask id="mask1_1644_16384" style="mask-type:alpha" maskUnits="userSpaceOnUse" x="67" y="130" width="46" height="65">
<path d="M112.018 163.709C112.018 170.79 107.289 180.04 101.486 187.013C97.6198 191.658 92.248 194.457 89.5398 194.457C86.8316 194.457 81.6467 191.677 77.8595 187.013C71.9848 179.778 67.1719 169.959 67.1719 162.432C67.1719 144.285 75.7571 130.066 89.5398 130.066C103.322 130.066 112.018 145.561 112.018 163.709Z" fill="#FFD6C0"/>
</mask>
<g mask="url(#mask1_1644_16384)">
<g filter="url(#filter0_f_1644_16384)">
<path d="M86.8224 196.172C84.2424 196.444 79.0158 185.773 74.6351 180.115C66.4877 169.591 74.7708 146.065 86.8224 140.26C94.349 136.634 98.0934 139.784 100.402 142.229C102.158 141.276 100.56 136.26 100.402 135.201C99.702 135.391 95.508 129.41 88.1805 129.702C79.7506 130.037 68.063 136.682 67.54 137.51C66.3179 139.445 68.117 182.898 70.0181 187.957C71.9192 193.015 84.8874 200.925 91.4394 201.604C97.9914 202.283 105.935 193.83 109.194 190.706C111.801 188.208 112.929 168.912 113.166 159.576L110.688 150.953C110.507 155.876 107.218 166.596 105.698 174.988C103.797 185.478 95.0039 194.916 92.2541 196.172C89.5043 197.428 89.4025 195.9 86.8224 196.172Z" fill="#FFC4B1"/>
</g>
</g>
<path d="M69.8978 174.466C68.3414 171.208 68.6853 165.075 69.0518 162.417C67.8886 162.331 65.6192 162.728 65.8478 165.004C66.1336 167.849 71.8433 178.54 69.8978 174.466Z" fill="#2E1833"/>
<path d="M85.6839 160.642C85.5284 159.208 83.2435 156.891 82.1204 155.912C81.4581 156.387 80.289 157.359 80.911 157.445C81.533 157.532 84.3521 161.34 85.6839 163.233C85.7487 162.967 85.8394 162.076 85.6839 160.642Z" fill="#FFC5A6"/>
<path d="M91.6016 186.567C90.385 185.792 86.1762 186.302 84.71 186.567C84.667 187.381 83.5874 189.185 84.167 188.943C85.7965 188.264 89.9721 187.45 92.7381 188.664C92.5707 188.447 92.8182 187.342 91.6016 186.567Z" fill="#FFC5A6"/>
<path d="M90.7607 160.785C90.8634 158.966 93.0701 156.807 94.1607 155.955L94.8878 157.605C94.7524 157.672 94.1095 158.338 92.6212 160.463C90.7608 163.12 93.113 170.809 93.562 172.177C94.0111 173.546 92.1849 173.934 91.5862 174.901C90.9874 175.867 89.5211 176.933 88.7085 177.114C88.0584 177.259 85.3932 175.531 84.2812 174.458C84.7517 174.082 85.2695 173.304 85.9709 173.224C86.8476 173.123 88.7935 174.23 89.5847 174.069C90.3759 173.908 90.5041 171.996 90.7607 170.809C91.0173 169.621 90.6324 163.059 90.7607 160.785Z" fill="#FFC5A6"/>
<path d="M86.2344 174.239C86.4163 174.457 87.5516 175.434 87.9155 175.434C88.3603 175.434 88.7695 175.308 89.1536 175.121C89.3575 175.022 89.8466 174.364 90.0786 174.239C90.3252 174.106 90.2605 174.089 90.6042 174.108C90.8791 174.123 91.1231 174.201 91.2107 174.239" stroke="#A0464E" stroke-width="0.143432"/>
<path d="M85.5101 174.28C85.4895 174.29 85.4704 174.3 85.4531 174.307C85.4704 174.293 85.4895 174.284 85.5101 174.28C85.6939 174.187 85.9972 174.009 86.2002 174.171C86.426 174.352 86.6983 174.634 86.7813 174.77C86.7758 174.807 86.7049 175.031 86.4659 174.941C86.1909 174.837 85.7474 174.235 85.5101 174.28Z" fill="#532929"/>
<path d="M90.1484 174.225C90.4495 174.008 90.9822 174.135 91.2109 174.225C90.9385 174.158 90.9283 174.621 90.5298 174.757C90.2111 174.865 89.4474 175.036 89.44 174.991C89.5507 174.828 89.8474 174.442 90.1484 174.225Z" fill="#532929"/>
<path d="M93.0391 158.985V157.18C93.7031 156.274 96.36 155.417 99.7279 154.884C103.096 154.351 106.943 156.372 109.036 157.944L109.045 157.957C109.416 158.463 109.67 158.809 109.036 158.457C100.315 153.617 94.1166 157.139 93.0391 158.985Z" fill="url(#paint2_linear_1644_16384)"/>
<path d="M83.6016 158.164V157.192C82.8547 155.351 79.6185 155.487 76.5064 155.487C73.2474 155.487 71.0638 156.615 69.1581 158.164C68.8157 158.669 68.5496 158.97 69.1581 158.669C76.744 154.918 82.6202 156.346 83.6016 158.164Z" fill="url(#paint3_linear_1644_16384)"/>
<ellipse cx="109.914" cy="176.276" rx="0.904037" ry="0.904034" transform="rotate(1.80596 109.914 176.276)" fill="url(#paint4_radial_1644_16384)"/>
<ellipse cx="69.7188" cy="176.276" rx="0.904037" ry="0.904034" transform="rotate(1.80596 69.7188 176.276)" fill="url(#paint5_radial_1644_16384)"/>
<path d="M97.8721 160.785C96.534 160.935 94.5416 162.828 93.6676 163.732C93.3879 164.013 93.8366 164.351 94.0156 164.324C95.5098 164.103 99.5763 166.316 102.935 164.013C103.704 163.467 105.15 162.376 104.789 162.376C104.427 162.376 101.624 161.128 100.268 160.504C99.9515 160.457 99.0293 160.448 97.8721 160.785Z" fill="#F29FA6"/>
<path d="M99.995 166.318L99.8594 165.055C99.9679 164.98 99.995 165.024 99.995 165.055V166.318Z" fill="black"/>
<path d="M102.066 165.618L101.016 164.959C101.025 164.824 101.075 164.829 101.099 164.848L102.066 165.618Z" fill="black"/>
<path d="M103.41 165.114L102.36 164.455C102.369 164.32 102.419 164.325 102.442 164.344L103.41 165.114Z" fill="black"/>
<path d="M103.957 164.737L102.907 164.078C102.915 163.943 102.965 163.948 102.989 163.967L103.957 164.737Z" fill="black"/>
<path d="M104.504 164.358L103.454 163.699C103.462 163.564 103.512 163.569 103.536 163.588L104.504 164.358Z" fill="black"/>
<path d="M97.6755 166.372L98.2737 165.262C98.404 165.266 98.4016 165.318 98.3841 165.344L97.6755 166.372Z" fill="black"/>
<path d="M94.9281 160.41C94.9643 160.71 95.7267 161.034 96.1034 161.159L95.9678 161.206C95.787 161.206 94.8364 160.831 94.9281 160.41Z" fill="black"/>
<path d="M104.149 160.035C104.116 160.352 103.59 160.93 103.244 161.062L103.368 161.111C103.534 161.111 104.233 160.481 104.149 160.035Z" fill="black"/>
<path d="M95.5187 164.102C95.091 164.102 94.8577 164.18 94.2399 164.102C94.0281 163.438 94.6305 162.889 94.8113 162.515C94.9921 162.14 95.8058 161.626 96.2579 161.251C96.7099 160.877 99.151 160.409 99.7387 160.362C100.209 160.325 103.083 161.199 104.078 161.667C104.575 162.135 104.419 162.848 102.43 163.97C99.9441 165.374 96.1604 164.102 95.5187 164.102Z" fill="#D9D9D9" stroke="black" stroke-width="0.142721"/>
<path d="M101.635 162.476C101.498 163.712 100.433 164.55 99.1726 164.55C97.9123 164.55 96.9345 163.712 96.7515 162.476C96.5684 161.24 96.6156 160.931 99.1726 160.27C102.23 160.667 101.771 161.24 101.635 162.476Z" fill="#412856"/>
<ellipse cx="99.1677" cy="161.815" rx="0.730221" ry="0.750214" fill="black"/>
<path d="M99.0847 160.889L99.0391 160.757L99.4498 160.713L99.4042 160.889H99.0847Z" fill="#D9D9D9"/>
<path d="M99.1616 161.151L99.0703 160.975H99.3898L99.3441 161.151H99.1616Z" fill="#D9D9D9"/>
<path d="M99.7188 161.241L99.9013 160.933C100.084 160.897 100.282 161.065 100.358 161.153L99.9013 161.374L99.7188 161.241Z" fill="#D9D9D9"/>
<ellipse cx="99.3947" cy="161.462" rx="0.136916" ry="0.132391" fill="#D9D9D9"/>
<g filter="url(#filter1_f_1644_16384)">
<path d="M99.729 163.521C99.035 163.882 98.1276 163.198 97.5938 162.94C97.9274 163.779 99.1949 164.288 99.9292 163.973C101.13 163.456 101.13 162.661 101.264 162.102C101.152 162.338 100.423 163.16 99.729 163.521Z" fill="#8E96CC" fill-opacity="0.5"/>
</g>
<path d="M95.8853 161.205L93.625 163.732C94.4387 163.077 96.1384 161.71 96.4277 161.486C96.7894 161.205 98.5524 160.691 99.3661 160.691C100.18 160.691 104.203 162.141 104.7 162.375C105.198 162.609 106.961 162.094 106.463 162.141C105.966 162.188 103.661 161.158 103.209 160.971C102.757 160.784 100.089 160.223 99.3661 160.223C98.7875 160.223 96.6236 160.893 95.8853 161.205Z" fill="black"/>
<path d="M97.8728 160.69L97.6016 158.912L98.0536 160.596L97.8728 160.69Z" fill="black"/>
<path d="M98.9232 160.429L99.1797 158.648L99.1228 160.395L98.9232 160.429Z" fill="black"/>
<path d="M99.7982 160.366L100.055 158.586L99.9978 160.333L99.7982 160.366Z" fill="black"/>
<path d="M100.78 160.528L101.828 159.092L100.971 160.598L100.78 160.528Z" fill="black"/>
<path d="M102.179 160.958L103.227 159.521L102.369 161.028L102.179 160.958Z" fill="black"/>
<path d="M93.625 162.999C94.4778 161.947 96.5917 160.012 98.2501 160.012C100.317 160.012 101.858 159.978 105.204 161.234" stroke="black" stroke-width="0.0678962"/>
<path d="M79.1261 161.217C80.3531 161.296 82.268 163.027 83.1118 163.858C83.3815 164.115 82.8454 164.281 82.6806 164.289C82.5488 164.297 77.2938 164.492 74.6828 164.588C73.9539 164.099 72.5786 163.115 72.9081 163.098C73.2376 163.08 75.7256 161.735 76.9284 161.065C77.2143 161.004 78.054 160.949 79.1261 161.217Z" fill="#F29FA6"/>
<path d="M77.5856 166.818L77.6428 165.591C77.54 165.524 77.5176 165.567 77.5192 165.597L77.5856 166.818Z" fill="black"/>
<path d="M75.7223 166.283L76.6444 165.594C76.6292 165.465 76.5839 165.471 76.5632 165.491L75.7223 166.283Z" fill="black"/>
<path d="M73.816 165.846L74.7381 165.157C74.723 165.027 74.6777 165.034 74.6569 165.053L73.816 165.846Z" fill="black"/>
<path d="M73.3707 165.412L74.2928 164.723C74.2777 164.593 74.2324 164.6 74.2116 164.62L73.3707 165.412Z" fill="black"/>
<path d="M72.8473 164.897L73.7694 164.208C73.7542 164.078 73.7089 164.085 73.6882 164.104L72.8473 164.897Z" fill="black"/>
<path d="M79.6732 166.225L79.0698 165.182C78.9512 165.192 78.9562 165.242 78.9735 165.266L79.6732 166.225Z" fill="black"/>
<path d="M81.7756 160.711C81.7584 161.002 81.0807 161.354 80.7441 161.493L80.8701 161.532C81.0348 161.523 81.8813 161.114 81.7756 160.711Z" fill="black"/>
<path d="M73.3501 160.804C73.3971 161.109 73.9071 161.641 74.2292 161.752L74.1183 161.806C73.9671 161.814 73.2969 161.239 73.3501 160.804Z" fill="black"/>
<path d="M80.284 164.475C80.5122 164.396 81.6932 164.175 82.2552 164.074C82.7984 163.373 82.1915 162.902 82.0077 162.576C81.8238 162.25 81.0536 161.83 80.6214 161.518C80.1892 161.206 77.9309 160.909 77.3904 160.896C76.958 160.886 75.0739 161.82 74.1859 162.288C73.7533 162.731 73.3571 163.845 75.2333 164.75C77.5786 165.882 79.9988 164.575 80.284 164.475Z" fill="#D9D9D9" stroke="black" stroke-width="0.143617"/>
<path d="M76.018 163.071C76.2068 164.266 77.4871 165.015 78.6245 164.953C79.7618 164.891 80.5999 164.028 80.6997 162.816C80.7995 161.605 80.7406 161.307 78.3979 160.788C75.6593 161.325 75.8293 161.875 76.018 163.071Z" fill="#412856"/>
<g filter="url(#filter2_f_1644_16384)">
<path d="M78.6546 163.999C77.9062 164.292 77.0595 163.517 76.545 163.205C76.7893 164.079 78.0229 164.714 78.8071 164.471C80.0898 164.074 80.1806 163.277 80.3804 162.73C80.2401 162.956 79.4029 163.706 78.6546 163.999Z" fill="#8E96CC" fill-opacity="0.5"/>
</g>
<ellipse rx="0.659976" ry="0.731076" transform="matrix(-0.998524 0.0543132 0.0543132 0.998524 78.4901 162.289)" fill="black"/>
<path d="M78.9838 161.508L79.018 161.377L78.6449 161.354L78.6955 161.524L78.9838 161.508Z" fill="#D9D9D9"/>
<path d="M78.9113 161.772L78.9844 161.596L78.6961 161.611L78.7466 161.781L78.9113 161.772Z" fill="#D9D9D9"/>
<path d="M78.5557 161.602L78.3746 161.311C78.2079 161.285 78.0383 161.458 77.9744 161.548L78.3979 161.74L78.5557 161.602Z" fill="#D9D9D9"/>
<ellipse rx="0.123745" ry="0.129013" transform="matrix(-0.998524 0.0543132 0.0543132 0.998524 78.2663 161.958)" fill="#D9D9D9"/>
<path d="M80.9532 161.527L83.1454 163.856C82.3696 163.264 80.7491 162.027 80.4737 161.825C80.1295 161.571 78.4961 161.161 77.7547 161.202C77.0133 161.242 73.4239 162.843 72.9831 163.094C72.5424 163.345 70.909 162.935 71.3645 162.955C71.82 162.976 73.8665 161.867 74.2685 161.663C74.6706 161.46 77.0711 160.785 77.7301 160.749C78.2573 160.721 80.2641 161.262 80.9532 161.527Z" fill="black"/>
<path d="M79.112 161.128L79.2656 159.396L78.9423 161.047L79.112 161.128Z" fill="black"/>
<path d="M78.1476 160.929L77.8203 159.221L77.964 160.907L78.1476 160.929Z" fill="black"/>
<path d="M77.3429 160.911L77.0156 159.203L77.1593 160.889L77.3429 160.911Z" fill="black"/>
<path d="M76.4442 161.116L75.4141 159.779L76.2742 161.193L76.4442 161.116Z" fill="black"/>
<path d="M75.2176 161.6L74.1875 160.264L75.0476 161.677L75.2176 161.6Z" fill="black"/>
<path d="M82.5872 162.642C82.038 162.018 81.6183 161.097 80.3408 160.681C78.3241 160.025 75.0258 160.281 72.2221 162.313" stroke="black" stroke-width="0.0633863"/>
<path d="M87.4318 179.387C87.1151 179.21 84.711 181.369 82.0547 182.254C83.4866 183.011 85.0848 185.2 85.6504 185.378C86.3573 185.6 88.7609 185.766 90.8251 185.655C92.4765 185.566 93.5655 183.139 95.5474 182.438C95.6039 182.235 95.6039 181.828 95.1515 181.828C94.699 181.828 91.8902 180.201 90.5423 179.387C90.0616 179.535 89.0323 179.831 88.7609 179.831C88.4215 179.831 87.8277 179.609 87.4318 179.387Z" fill="url(#paint6_linear_1644_16384)"/>
<path d="M87.588 181.734C87.3745 181.678 86.1748 181.758 85.6016 181.805C86.5503 181.758 88.2106 182.273 88.5071 182.273C88.7442 182.273 88.8826 182.335 88.9221 182.366C88.9715 182.335 89.1356 182.273 89.3965 182.273C89.6574 182.273 90.7899 181.914 91.3236 181.734C91.1457 181.719 90.7603 181.688 90.6417 181.688C90.4935 181.688 89.3965 181.805 89.1593 181.898C88.9221 181.992 87.8548 181.805 87.588 181.734Z" fill="white"/>
<path d="M94.4897 181.971C94.3528 182.013 93.6531 182.112 93.3203 182.155C93.634 182.261 94.2045 182.155 94.6038 182.155C95.0031 182.155 95.0601 182.261 95.1457 182.287C95.2312 182.314 95.3453 182.287 95.3453 182.155C95.3453 182.024 94.6608 181.918 94.4897 181.971Z" fill="black"/>
<path d="M85.5703 181.803C85.9083 181.794 86.652 181.756 86.9225 181.673C87.2605 181.569 88.0774 181.699 88.4718 181.803C88.8662 181.907 89.7394 181.673 90.0493 181.673C90.3592 181.673 90.5845 181.543 91.1198 181.673C91.4042 181.742 91.5966 181.777 91.7103 181.792C91.7514 181.796 91.7895 181.8 91.824 181.803C91.8051 181.803 91.7677 181.8 91.7103 181.792C91.3261 181.757 90.6911 181.706 90.5282 181.725C90.3028 181.751 89.2324 182.063 88.9789 182.089C88.7253 182.115 87.6549 181.751 87.4013 181.751C87.1478 181.751 85.9365 181.933 85.5703 181.803Z" fill="black"/>
<path d="M82.0547 182.255L82.7188 182.033C82.7188 182.052 82.8274 182.03 82.9419 182.097C83.085 182.181 83.8291 182.209 83.6288 182.209C83.4685 182.209 82.9324 182.358 82.6843 182.432L82.0547 182.255Z" fill="black"/>
<ellipse cx="90.9633" cy="183.077" rx="0.268015" ry="0.305532" fill="white" fill-opacity="0.5"/>
<ellipse cx="91.6118" cy="183.077" rx="0.268015" ry="0.305532" fill="white"/>
<path d="M73.0286 143.784C75.6564 141.32 83.2298 138.895 85.5376 138.148C87.8453 137.401 92.4741 136.474 94.9073 137.232L97.488 128.881C83.4335 112.653 64.8618 140.993 61.7011 149.001C58.381 157.412 58.5322 183.607 60.819 189.731C63.1058 195.854 67.268 199.545 73.0286 200.799C70.0842 197.553 67.1236 197.42 65.4669 192.83C63.3961 187.093 62.8262 170.671 66.2889 167.683C69.7516 164.696 66.2319 150.156 73.0286 143.784Z" fill="#513384"/>
<path d="M81.3243 142.901C82.784 139.608 84.6515 138.895 86.2807 136.688C87.9099 134.482 92.8781 135.013 95.3112 135.772L97.5858 129.016C83.5313 112.789 64.2723 136.585 62.1392 146.565C60.3398 154.984 62.1381 178.663 64.1315 185.082C66.1248 191.502 69.6684 194.379 76.3083 195.486C73.652 194.158 70.2173 187.901 68.5607 183.311C66.4898 177.574 68.197 162.834 71.6597 159.847C75.1224 156.86 77.1536 152.309 81.3243 142.901Z" fill="#694D97"/>
<path d="M100.438 154.977C93.3586 146.946 89.8519 133.313 96.2334 129.127C110.325 125.364 113.115 146.282 114.608 153.649C115.803 159.543 112.617 154.747 111.066 162.724C110.713 164.542 110.517 167.351 109.245 172.847C109.241 172.89 109.236 172.907 109.231 172.908C109.18 173.125 109.128 173.346 109.074 173.572C109.074 171.824 109.184 172.913 109.231 172.908C109.235 172.888 109.24 172.867 109.245 172.847C109.266 172.585 109.236 171.37 109.074 167.374C108.527 153.884 105.293 160.484 100.438 154.977Z" fill="#694D97"/>
<path d="M79.6199 149.047C79.6727 143.278 82.9389 138.62 84.2772 136.556L85.833 137.219C81.8485 140.54 80.9631 141.646 80.3126 148.965C80.0527 151.89 84.9467 157.191 73.4362 161.176C82.7331 156.306 79.5765 153.78 79.6199 149.047Z" fill="#694D97"/>
<ellipse cx="89.2196" cy="173.122" rx="0.305533" ry="0.305532" fill="white"/>
<g filter="url(#filter3_f_1644_16384)">
<ellipse cx="88.7421" cy="191.59" rx="1.86715" ry="1.86714" fill="white" fill-opacity="0.6"/>
</g>
<g filter="url(#filter4_f_1644_16384)">
<path d="M85.9264 164.905C85.9264 165.936 81.6278 176.413 80.5966 176.413C79.5654 176.413 72.9922 168.312 72.9922 167.281C72.9922 166.25 78.9543 166.025 79.9855 166.025C81.0167 166.025 85.9264 163.874 85.9264 164.905Z" fill="white" fill-opacity="0.2"/>
</g>
<g filter="url(#filter5_f_1644_16384)">
<path d="M92.6852 144.463C92.6852 145.495 88.0559 156.747 87.2794 156.747C86.5029 156.747 82.9453 147.872 82.9453 146.841C82.9453 145.809 86.5029 142.137 87.2794 142.137C88.0559 142.137 92.6852 143.432 92.6852 144.463Z" fill="white" fill-opacity="0.6"/>
</g>
<g filter="url(#filter6_f_1644_16384)">
<path d="M106.661 165.246C106.661 166.277 99.6127 170.033 98.5815 170.033C97.5503 170.033 94.3382 168.552 94.3382 167.521C94.3382 166.49 92.2207 164.262 93.2519 164.262C99.2603 167.181 106.661 164.215 106.661 165.246Z" fill="white" fill-opacity="0.3"/>
</g>
<path d="M74.8007 153.648L79.4068 143.005C78.3011 141.394 75.4764 147.84 74.8007 144.617C74.1249 141.394 73.1429 144.046 71.0852 146.094C69.0276 148.142 70.1638 141.595 69.2735 140.756C68.3832 139.917 66.6326 143.979 66.1106 143.005C65.5885 142.032 70.1638 136.559 67.4001 138.607C64.6364 140.655 62.579 147.202 62.1798 148.713C61.7806 150.223 64.5082 145.758 66.9648 145.322C69.4214 144.885 68.8741 148.813 70.1638 150.962C71.4535 153.11 72.7125 150.324 73.6031 149.585C74.3155 148.995 74.6983 152.047 74.8007 153.648Z" fill="#9171C5"/>
<path d="M111.274 149.483L108.337 138.636C106.816 137.663 108.575 144.246 106.45 141.729C104.325 139.213 105.156 141.854 105.023 144.376C104.889 146.898 102.07 140.856 101.091 140.465C100.111 140.075 101.237 144.213 100.406 143.57C99.5742 142.928 99.3802 136.532 98.8256 139.316C98.271 142.1 100.541 148.484 101.11 149.929C101.678 151.375 100.92 146.529 102.153 145.242C103.385 143.956 105.156 147.532 107.073 148.898C108.99 150.264 108.253 147.404 108.39 146.44C108.499 145.668 110.358 148.147 111.274 149.483Z" fill="#9171C5"/>
<path d="M117.37 148.559L114.921 142.874C113.731 141.696 116.844 147.659 114.921 145.017C112.998 142.375 113.569 143.764 114.05 145.904C114.531 148.043 112.327 142.917 111.614 142.361C110.9 141.806 112.953 145.757 112.278 145.017C111.602 144.278 109.63 139.507 110.287 141.697C110.951 143.911 112.941 148.78 114.048 150.773C114.793 152.114 112.664 147.397 113.163 146.568C113.661 145.738 114.271 148.56 115.377 150.33C116.553 152.213 115.506 147.867 115.377 147.068C115.273 146.429 116.263 147.068 117.37 148.559Z" fill="#9171C5"/>
<path d="M96.2335 154.533C92.8533 149.435 93.4808 137.676 94.9075 135.053L97.3151 135.591C94.9075 139.48 95.7679 150.941 96.677 153.647C97.586 156.354 100.881 157.189 104.203 157.632C102.202 157.632 99.0064 158.715 96.2335 154.533Z" fill="#694D97"/>
<rect x="20" y="241.875" width="142" height="28" rx="4" fill="#6C79F9"/>
<path d="M33.328 261.875V250.675H38.416C39.632 250.675 40.704 250.91 41.632 251.379C42.56 251.838 43.2853 252.483 43.808 253.315C44.3307 254.147 44.592 255.134 44.592 256.275C44.592 257.406 44.3307 258.392 43.808 259.235C43.2853 260.067 42.56 260.718 41.632 261.187C40.704 261.646 39.632 261.875 38.416 261.875H33.328ZM35.92 259.747H38.288C39.0347 259.747 39.68 259.608 40.224 259.331C40.7787 259.043 41.2053 258.638 41.504 258.115C41.8133 257.592 41.968 256.979 41.968 256.275C41.968 255.56 41.8133 254.947 41.504 254.435C41.2053 253.912 40.7787 253.512 40.224 253.235C39.68 252.947 39.0347 252.803 38.288 252.803H35.92V259.747ZM51.6508 261.875V260.195L51.4908 259.827V256.819C51.4908 256.286 51.3254 255.87 50.9948 255.571C50.6748 255.272 50.1788 255.123 49.5068 255.123C49.0481 255.123 48.5948 255.198 48.1468 255.347C47.7094 255.486 47.3361 255.678 47.0268 255.923L46.1308 254.179C46.6001 253.848 47.1654 253.592 47.8268 253.411C48.4881 253.23 49.1601 253.139 49.8428 253.139C51.1548 253.139 52.1734 253.448 52.8988 254.067C53.6241 254.686 53.9868 255.651 53.9868 256.963V261.875H51.6508ZM49.0268 262.003C48.3548 262.003 47.7788 261.891 47.2988 261.667C46.8188 261.432 46.4508 261.118 46.1948 260.723C45.9388 260.328 45.8108 259.886 45.8108 259.395C45.8108 258.883 45.9334 258.435 46.1788 258.051C46.4348 257.667 46.8348 257.368 47.3788 257.155C47.9228 256.931 48.6321 256.819 49.5068 256.819H51.7948V258.275H49.7788C49.1921 258.275 48.7868 258.371 48.5628 258.563C48.3494 258.755 48.2428 258.995 48.2428 259.283C48.2428 259.603 48.3654 259.859 48.6108 260.051C48.8668 260.232 49.2134 260.323 49.6508 260.323C50.0668 260.323 50.4401 260.227 50.7708 260.035C51.1014 259.832 51.3414 259.539 51.4908 259.155L51.8748 260.307C51.6934 260.862 51.3628 261.283 50.8828 261.571C50.4028 261.859 49.7841 262.003 49.0268 262.003ZM59.7658 262.003C58.7524 262.003 57.9631 261.747 57.3978 261.235C56.8324 260.712 56.5498 259.939 56.5498 258.915V251.363H59.0458V258.883C59.0458 259.246 59.1418 259.528 59.3338 259.731C59.5258 259.923 59.7871 260.019 60.1178 260.019C60.5124 260.019 60.8484 259.912 61.1258 259.699L61.7978 261.459C61.5418 261.64 61.2324 261.779 60.8698 261.875C60.5178 261.96 60.1498 262.003 59.7658 262.003ZM55.2218 255.379V253.459H61.1898V255.379H55.2218ZM68.4789 261.875V260.195L68.3189 259.827V256.819C68.3189 256.286 68.1535 255.87 67.8229 255.571C67.5029 255.272 67.0069 255.123 66.3349 255.123C65.8762 255.123 65.4229 255.198 64.9749 255.347C64.5375 255.486 64.1642 255.678 63.8549 255.923L62.9589 254.179C63.4282 253.848 63.9935 253.592 64.6549 253.411C65.3162 253.23 65.9882 253.139 66.6709 253.139C67.9829 253.139 69.0015 253.448 69.7269 254.067C70.4522 254.686 70.8149 255.651 70.8149 256.963V261.875H68.4789ZM65.8549 262.003C65.1829 262.003 64.6069 261.891 64.1269 261.667C63.6469 261.432 63.2789 261.118 63.0229 260.723C62.7669 260.328 62.6389 259.886 62.6389 259.395C62.6389 258.883 62.7615 258.435 63.0069 258.051C63.2629 257.667 63.6629 257.368 64.2069 257.155C64.7509 256.931 65.4602 256.819 66.3349 256.819H68.6229V258.275H66.6069C66.0202 258.275 65.6149 258.371 65.3909 258.563C65.1775 258.755 65.0709 258.995 65.0709 259.283C65.0709 259.603 65.1935 259.859 65.4389 260.051C65.6949 260.232 66.0415 260.323 66.4789 260.323C66.8949 260.323 67.2682 260.227 67.5989 260.035C67.9295 259.832 68.1695 259.539 68.3189 259.155L68.7029 260.307C68.5215 260.862 68.1909 261.283 67.7109 261.571C67.2309 261.859 66.6122 262.003 65.8549 262.003ZM81.4611 262.067C80.5651 262.067 79.7065 261.95 78.8851 261.715C78.0638 261.47 77.4025 261.155 76.9011 260.771L77.7811 258.819C78.2611 259.16 78.8265 259.443 79.4771 259.667C80.1385 259.88 80.8051 259.987 81.4771 259.987C81.9891 259.987 82.3998 259.939 82.7091 259.843C83.0291 259.736 83.2638 259.592 83.4131 259.411C83.5625 259.23 83.6371 259.022 83.6371 258.787C83.6371 258.488 83.5198 258.254 83.2851 258.083C83.0505 257.902 82.7411 257.758 82.3571 257.651C81.9731 257.534 81.5465 257.427 81.0771 257.331C80.6185 257.224 80.1545 257.096 79.6851 256.947C79.2265 256.798 78.8051 256.606 78.4211 256.371C78.0371 256.136 77.7225 255.827 77.4771 255.443C77.2425 255.059 77.1251 254.568 77.1251 253.971C77.1251 253.331 77.2958 252.75 77.6371 252.227C77.9891 251.694 78.5118 251.272 79.2051 250.963C79.9091 250.643 80.7891 250.483 81.8451 250.483C82.5491 250.483 83.2425 250.568 83.9251 250.739C84.6078 250.899 85.2105 251.144 85.7331 251.475L84.9331 253.443C84.4105 253.144 83.8878 252.926 83.3651 252.787C82.8425 252.638 82.3305 252.563 81.8291 252.563C81.3278 252.563 80.9171 252.622 80.5971 252.739C80.2771 252.856 80.0478 253.011 79.9091 253.203C79.7705 253.384 79.7011 253.598 79.7011 253.843C79.7011 254.131 79.8185 254.366 80.0531 254.547C80.2878 254.718 80.5971 254.856 80.9811 254.963C81.3651 255.07 81.7865 255.176 82.2451 255.283C82.7145 255.39 83.1785 255.512 83.6371 255.651C84.1065 255.79 84.5331 255.976 84.9171 256.211C85.3011 256.446 85.6105 256.755 85.8451 257.139C86.0905 257.523 86.2131 258.008 86.2131 258.595C86.2131 259.224 86.0371 259.8 85.6851 260.323C85.3331 260.846 84.8051 261.267 84.1011 261.587C83.4078 261.907 82.5278 262.067 81.4611 262.067ZM91.9683 262.003C91.0403 262.003 90.2136 261.816 89.4883 261.443C88.7629 261.059 88.1923 260.531 87.7763 259.859C87.3709 259.187 87.1683 258.424 87.1683 257.571C87.1683 256.707 87.3709 255.944 87.7763 255.283C88.1923 254.611 88.7629 254.088 89.4883 253.715C90.2136 253.331 91.0403 253.139 91.9683 253.139C92.8749 253.139 93.6643 253.331 94.3363 253.715C95.0083 254.088 95.5043 254.627 95.8243 255.331L93.8883 256.371C93.6643 255.966 93.3816 255.667 93.0403 255.475C92.7096 255.283 92.3469 255.187 91.9523 255.187C91.5256 255.187 91.1416 255.283 90.8003 255.475C90.4589 255.667 90.1869 255.939 89.9843 256.291C89.7923 256.643 89.6963 257.07 89.6963 257.571C89.6963 258.072 89.7923 258.499 89.9843 258.851C90.1869 259.203 90.4589 259.475 90.8003 259.667C91.1416 259.859 91.5256 259.955 91.9523 259.955C92.3469 259.955 92.7096 259.864 93.0403 259.683C93.3816 259.491 93.6643 259.187 93.8883 258.771L95.8243 259.827C95.5043 260.52 95.0083 261.059 94.3363 261.443C93.6643 261.816 92.8749 262.003 91.9683 262.003ZM97.2145 261.875V253.267H99.7105V261.875H97.2145ZM98.4625 252.067C98.0038 252.067 97.6305 251.934 97.3425 251.667C97.0545 251.4 96.9105 251.07 96.9105 250.675C96.9105 250.28 97.0545 249.95 97.3425 249.683C97.6305 249.416 98.0038 249.283 98.4625 249.283C98.9212 249.283 99.2945 249.411 99.5825 249.667C99.8705 249.912 100.015 250.232 100.015 250.627C100.015 251.043 99.8705 251.39 99.5825 251.667C99.3052 251.934 98.9318 252.067 98.4625 252.067ZM106.299 262.003C105.318 262.003 104.454 261.811 103.707 261.427C102.971 261.043 102.4 260.52 101.995 259.859C101.59 259.187 101.387 258.424 101.387 257.571C101.387 256.707 101.584 255.944 101.979 255.283C102.384 254.611 102.934 254.088 103.627 253.715C104.32 253.331 105.104 253.139 105.979 253.139C106.822 253.139 107.579 253.32 108.251 253.683C108.934 254.035 109.472 254.547 109.867 255.219C110.262 255.88 110.459 256.675 110.459 257.603C110.459 257.699 110.454 257.811 110.443 257.939C110.432 258.056 110.422 258.168 110.411 258.275H103.419V256.819H109.099L108.139 257.251C108.139 256.803 108.048 256.414 107.867 256.083C107.686 255.752 107.435 255.496 107.115 255.315C106.795 255.123 106.422 255.027 105.995 255.027C105.568 255.027 105.19 255.123 104.859 255.315C104.539 255.496 104.288 255.758 104.107 256.099C103.926 256.43 103.835 256.824 103.835 257.283V257.667C103.835 258.136 103.936 258.552 104.139 258.915C104.352 259.267 104.646 259.539 105.019 259.731C105.403 259.912 105.851 260.003 106.363 260.003C106.822 260.003 107.222 259.934 107.563 259.795C107.915 259.656 108.235 259.448 108.523 259.171L109.851 260.611C109.456 261.059 108.96 261.406 108.363 261.651C107.766 261.886 107.078 262.003 106.299 262.003ZM117.353 253.139C118.035 253.139 118.643 253.278 119.177 253.555C119.721 253.822 120.147 254.238 120.457 254.803C120.766 255.358 120.921 256.072 120.921 256.947V261.875H118.425V257.331C118.425 256.638 118.27 256.126 117.961 255.795C117.662 255.464 117.235 255.299 116.681 255.299C116.286 255.299 115.929 255.384 115.609 255.555C115.299 255.715 115.054 255.966 114.873 256.307C114.702 256.648 114.617 257.086 114.617 257.619V261.875H112.121V253.267H114.505V255.651L114.057 254.931C114.366 254.355 114.809 253.912 115.385 253.603C115.961 253.294 116.617 253.139 117.353 253.139ZM126.703 262.003C125.69 262.003 124.901 261.747 124.335 261.235C123.77 260.712 123.487 259.939 123.487 258.915V251.363H125.983V258.883C125.983 259.246 126.079 259.528 126.271 259.731C126.463 259.923 126.725 260.019 127.055 260.019C127.45 260.019 127.786 259.912 128.063 259.699L128.735 261.459C128.479 261.64 128.17 261.779 127.807 261.875C127.455 261.96 127.087 262.003 126.703 262.003ZM122.159 255.379V253.459H128.127V255.379H122.159ZM130.136 261.875V253.267H132.632V261.875H130.136ZM131.384 252.067C130.926 252.067 130.552 251.934 130.264 251.667C129.976 251.4 129.832 251.07 129.832 250.675C129.832 250.28 129.976 249.95 130.264 249.683C130.552 249.416 130.926 249.283 131.384 249.283C131.843 249.283 132.216 249.411 132.504 249.667C132.792 249.912 132.936 250.232 132.936 250.627C132.936 251.043 132.792 251.39 132.504 251.667C132.227 251.934 131.854 252.067 131.384 252.067ZM137.845 262.003C137.109 262.003 136.4 261.918 135.717 261.747C135.045 261.566 134.512 261.342 134.117 261.075L134.949 259.283C135.344 259.528 135.808 259.731 136.341 259.891C136.885 260.04 137.418 260.115 137.941 260.115C138.517 260.115 138.922 260.046 139.157 259.907C139.402 259.768 139.525 259.576 139.525 259.331C139.525 259.128 139.429 258.979 139.237 258.883C139.056 258.776 138.81 258.696 138.501 258.643C138.192 258.59 137.85 258.536 137.477 258.483C137.114 258.43 136.746 258.36 136.373 258.275C136 258.179 135.658 258.04 135.349 257.859C135.04 257.678 134.789 257.432 134.597 257.123C134.416 256.814 134.325 256.414 134.325 255.923C134.325 255.379 134.48 254.899 134.789 254.483C135.109 254.067 135.568 253.742 136.165 253.507C136.762 253.262 137.477 253.139 138.309 253.139C138.896 253.139 139.493 253.203 140.101 253.331C140.709 253.459 141.216 253.646 141.621 253.891L140.789 255.667C140.373 255.422 139.952 255.256 139.525 255.171C139.109 255.075 138.704 255.027 138.309 255.027C137.754 255.027 137.349 255.102 137.093 255.251C136.837 255.4 136.709 255.592 136.709 255.827C136.709 256.04 136.8 256.2 136.981 256.307C137.173 256.414 137.424 256.499 137.733 256.563C138.042 256.627 138.378 256.686 138.741 256.739C139.114 256.782 139.488 256.851 139.861 256.947C140.234 257.043 140.57 257.182 140.869 257.363C141.178 257.534 141.429 257.774 141.621 258.083C141.813 258.382 141.909 258.776 141.909 259.267C141.909 259.8 141.749 260.275 141.429 260.691C141.109 261.096 140.645 261.416 140.037 261.651C139.44 261.886 138.709 262.003 137.845 262.003ZM146.969 262.003C145.956 262.003 145.166 261.747 144.601 261.235C144.036 260.712 143.753 259.939 143.753 258.915V251.363H146.249V258.883C146.249 259.246 146.345 259.528 146.537 259.731C146.729 259.923 146.99 260.019 147.321 260.019C147.716 260.019 148.052 259.912 148.329 259.699L149.001 261.459C148.745 261.64 148.436 261.779 148.073 261.875C147.721 261.96 147.353 262.003 146.969 262.003ZM142.425 255.379V253.459H148.393V255.379H142.425Z" fill="white"/>
<defs>
<filter id="filter0_f_1644_16384" x="62.7134" y="125.264" width="54.8779" height="80.8056" filterUnits="userSpaceOnUse" color-interpolation-filters="sRGB">
<feFlood flood-opacity="0" result="BackgroundImageFix"/>
<feBlend mode="normal" in="SourceGraphic" in2="BackgroundImageFix" result="shape"/>
<feGaussianBlur stdDeviation="2.21362" result="effect1_foregroundBlur_1644_16384"/>
</filter>
<filter id="filter1_f_1644_16384" x="97.4657" y="161.973" width="3.92805" height="2.22102" filterUnits="userSpaceOnUse" color-interpolation-filters="sRGB">
<feFlood flood-opacity="0" result="BackgroundImageFix"/>
<feBlend mode="normal" in="SourceGraphic" in2="BackgroundImageFix" result="shape"/>
<feGaussianBlur stdDeviation="0.0640432" result="effect1_foregroundBlur_1644_16384"/>
</filter>
<filter id="filter2_f_1644_16384" x="76.4111" y="162.595" width="4.10752" height="2.06455" filterUnits="userSpaceOnUse" color-interpolation-filters="sRGB">
<feFlood flood-opacity="0" result="BackgroundImageFix"/>
<feBlend mode="normal" in="SourceGraphic" in2="BackgroundImageFix" result="shape"/>
<feGaussianBlur stdDeviation="0.0678962" result="effect1_foregroundBlur_1644_16384"/>
</filter>
<filter id="filter3_f_1644_16384" x="84.1592" y="187.007" width="9.16607" height="9.16607" filterUnits="userSpaceOnUse" color-interpolation-filters="sRGB">
<feFlood flood-opacity="0" result="BackgroundImageFix"/>
<feBlend mode="normal" in="SourceGraphic" in2="BackgroundImageFix" result="shape"/>
<feGaussianBlur stdDeviation="1.35792" result="effect1_foregroundBlur_1644_16384"/>
</filter>
<filter id="filter4_f_1644_16384" x="71.6343" y="163.267" width="15.6533" height="14.5049" filterUnits="userSpaceOnUse" color-interpolation-filters="sRGB">
<feFlood flood-opacity="0" result="BackgroundImageFix"/>
<feBlend mode="normal" in="SourceGraphic" in2="BackgroundImageFix" result="shape"/>
<feGaussianBlur stdDeviation="0.678962" result="effect1_foregroundBlur_1644_16384"/>
</filter>
<filter id="filter5_f_1644_16384" x="76.1557" y="135.347" width="23.3214" height="28.1886" filterUnits="userSpaceOnUse" color-interpolation-filters="sRGB">
<feFlood flood-opacity="0" result="BackgroundImageFix"/>
<feBlend mode="normal" in="SourceGraphic" in2="BackgroundImageFix" result="shape"/>
<feGaussianBlur stdDeviation="3.39481" result="effect1_foregroundBlur_1644_16384"/>
</filter>
<filter id="filter6_f_1644_16384" x="90.2529" y="161.546" width="19.127" height="11.2032" filterUnits="userSpaceOnUse" color-interpolation-filters="sRGB">
<feFlood flood-opacity="0" result="BackgroundImageFix"/>
<feBlend mode="normal" in="SourceGraphic" in2="BackgroundImageFix" result="shape"/>
<feGaussianBlur stdDeviation="1.35792" result="effect1_foregroundBlur_1644_16384"/>
</filter>
<linearGradient id="paint0_linear_1644_16384" x1="90.0329" y1="190.173" x2="90.697" y2="211.866" gradientUnits="userSpaceOnUse">
<stop stop-color="#F5AC84"/>
<stop offset="1" stop-color="#FFD6C0"/>
</linearGradient>
<linearGradient id="paint1_linear_1644_16384" x1="90.0407" y1="190.173" x2="90.7048" y2="211.866" gradientUnits="userSpaceOnUse">
<stop stop-color="#F5AC84"/>
<stop offset="1" stop-color="#FFD6C0"/>
</linearGradient>
<linearGradient id="paint2_linear_1644_16384" x1="101.231" y1="154.797" x2="101.231" y2="158.985" gradientUnits="userSpaceOnUse">
<stop stop-color="#2E1833"/>
<stop offset="1" stop-color="#2E1833" stop-opacity="0"/>
</linearGradient>
<linearGradient id="paint3_linear_1644_16384" x1="76.1982" y1="155.484" x2="76.1982" y2="158.789" gradientUnits="userSpaceOnUse">
<stop stop-color="#2E1833"/>
<stop offset="1" stop-color="#2E1833" stop-opacity="0"/>
</linearGradient>
<radialGradient id="paint4_radial_1644_16384" cx="0" cy="0" r="1" gradientUnits="userSpaceOnUse" gradientTransform="translate(110.667 176.003) rotate(149.036) scale(1.69589 1.69589)">
<stop stop-color="white"/>
<stop offset="0.770833" stop-color="#DBDBDB"/>
<stop offset="1" stop-color="white"/>
</radialGradient>
<radialGradient id="paint5_radial_1644_16384" cx="0" cy="0" r="1" gradientUnits="userSpaceOnUse" gradientTransform="translate(70.4713 176.003) rotate(149.036) scale(1.69589 1.69589)">
<stop stop-color="white"/>
<stop offset="0.770833" stop-color="#DBDBDB"/>
<stop offset="1" stop-color="white"/>
</radialGradient>
<linearGradient id="paint6_linear_1644_16384" x1="88.8727" y1="179.375" x2="88.8727" y2="185.69" gradientUnits="userSpaceOnUse">
<stop stop-color="#FFB9B9"/>
<stop offset="1" stop-color="#FF2929"/>
</linearGradient>
</defs>
</svg>
