<svg width="549" height="392" viewBox="0 0 549 392" fill="none" xmlns="http://www.w3.org/2000/svg">
<rect x="309.695" y="262.527" width="8.22358" height="108.804" fill="#3D5CFF"/>
<path d="M309.695 262.527H317.919V371.332L313.807 373.546L309.695 371.332V262.527Z" fill="#1F33DA"/>
<rect x="368.539" y="245.445" width="8.22358" height="108.804" fill="#1F33DA"/>
<rect x="180.648" y="227.736" width="8.22358" height="108.804" fill="#1F33DA"/>
<path d="M311.968 248.431C222.233 230.145 167.382 218.169 165.945 218.808V227.685L311.968 265.586L377.199 246.137L377.299 240.751L311.968 248.431Z" fill="#1F33DA"/>
<path d="M1 166.195C49.2751 159.612 44.4307 214.332 125.578 178.164C195.397 147.045 195.996 159.113 275.291 156.32" stroke="url(#paint0_linear_1482_16210)" stroke-width="0.640601"/>
<path d="M132.57 77.6345C180.845 71.0514 176.001 125.772 257.148 89.6035C326.968 58.484 327.566 70.5526 406.861 67.7598" stroke="url(#paint1_linear_1482_16210)" stroke-width="0.640601"/>
<path d="M121.114 245.752C113.613 239.209 164.501 239.768 164.501 239.768L168.782 242.96C168.782 242.96 129.575 244.954 130.182 247.248C132.135 254.63 133.216 280.562 130.888 295.125L125.303 295.846C127.464 281.25 128.615 252.295 121.114 245.752Z" fill="#181524"/>
<path d="M377.295 240.747C287.56 222.461 140.022 198.308 138.586 198.946L165.941 219.001L312.163 256.806L377.295 240.747Z" fill="#576FFF"/>
<path d="M112.047 291.845L166.05 280.755C167.109 280.538 168.102 281.347 168.102 282.429V292.422C168.102 293.27 167.48 293.99 166.641 294.113L112.724 302.002L112.047 291.845Z" fill="#38208D"/>
<path d="M458.472 273.34V28.3258C458.472 21.4217 448.163 18.1787 443.464 23.2367C384.413 86.7954 238.868 127.46 179.492 139.151V195.619C326.332 209.295 391.621 233.194 446.991 278.621C451.513 282.331 458.472 279.189 458.472 273.34Z" fill="url(#paint2_linear_1482_16210)"/>
<path d="M321.453 209.568V138.411C376.979 129.045 390.263 133.474 446.629 135.319L449.921 262.49C449.921 262.49 418.474 246.716 378.877 230.259C339.279 213.801 321.453 209.568 321.453 209.568Z" fill="white" fill-opacity="0.4"/>
<path d="M183.812 149.297V142.016C335.949 115.131 370.947 72.5795 444.332 34.793V124.35C444.332 124.35 420.822 120.461 333.63 127.783C246.438 135.104 183.812 149.297 183.812 149.297Z" fill="url(#paint3_linear_1482_16210)"/>
<path d="M311.07 118.171L310.395 97.7975C310.369 97.0273 310.86 96.3371 311.595 96.104C321.374 93.001 335.228 87.621 345.185 82.8306C346.332 82.2785 347.674 83.1089 347.674 84.3824V113.82C347.674 114.573 347.186 115.239 346.454 115.413C339.611 117.042 325.469 117.544 313.119 119.808C312.08 119.999 311.105 119.228 311.07 118.171Z" fill="#47B55B"/>
<path d="M247.087 197.948L247.086 142.838C247.086 142.838 308.412 134.965 313.07 134.965V208.445C306.128 205.174 265.805 196.585 247.087 197.948Z" fill="#F9F9F9" fill-opacity="0.5" stroke="#E0E0E0" stroke-width="0.677136"/>
<path d="M256.812 161.852L263.696 166.189C264.663 166.798 265.907 166.736 266.808 166.032L275.384 159.332C276.476 158.479 278.035 158.587 278.998 159.583L287.286 168.148C288.05 168.938 289.216 169.188 290.237 168.78L307.581 161.852" stroke="#6C79F9" stroke-width="2.13534" stroke-linecap="round"/>
<path d="M256.891 152.453C260.726 153.528 267.142 160.509 270.185 165.706C273.846 171.959 283.495 154.978 288.93 163.082C294.637 171.592 291.526 173.191 305.42 174.329" stroke="#A585F6" stroke-width="2.13534" stroke-linecap="round"/>
<path d="M172.422 119.214C172.422 118.335 173.088 117.6 173.963 117.514L182.715 116.653C183.72 116.554 184.59 117.344 184.59 118.353V127.323C184.59 128.229 183.884 128.977 182.98 129.029L174.228 129.531C173.248 129.587 172.422 128.808 172.422 127.826V119.214Z" fill="#6C79F9"/>
<rect x="247.703" y="94.3027" width="10.4557" height="10.4557" transform="rotate(30 247.703 94.3027)" fill="#6C79F9"/>
<path fill-rule="evenodd" clip-rule="evenodd" d="M178.934 121.455H177.87V122.917H176.406L176.406 123.981H177.87V125.445H178.934V123.981H180.396V122.917H178.934V121.455Z" fill="#D3DCFC"/>
<circle cx="271.785" cy="82.7552" r="5.38607" fill="#B97EDD"/>
<circle cx="230.293" cy="59.2186" r="2.79278" fill="#FFE0A3"/>
<circle cx="418.605" cy="79.3626" r="5.38607" fill="#867EDD"/>
<path d="M402.505 73.6689L403.468 91.0908L387.898 83.2139L402.505 73.6689Z" fill="#FFA5DB"/>
<path d="M348.486 207.649L347.735 182.061C347.708 181.159 348.387 180.392 349.286 180.31L386.309 176.904C387.31 176.812 388.173 177.6 388.173 178.605V210.329C388.173 211.318 387.343 212.101 386.357 212.034C379.715 211.582 356.798 210.02 350.271 209.545C349.311 209.476 348.514 208.611 348.486 207.649Z" fill="#F9F9FF" stroke="#6C79F9" stroke-width="1.06767"/>
<path d="M307.913 176.905L307.112 153.477C307.084 152.637 307.671 151.9 308.497 151.742L345.517 144.621C346.571 144.418 347.548 145.226 347.548 146.299V177.947C347.548 178.89 346.784 179.654 345.841 179.65C338.246 179.612 307.913 179.311 307.913 176.905Z" fill="#F9F9FF" stroke="#6C79F9" stroke-width="1.06767"/>
<path d="M304.174 80.287L305.281 61.3196C305.334 60.4163 306.006 59.4386 306.795 58.9951C311.93 56.1074 329.388 45.279 335.759 41.3172C336.842 40.6439 338.242 41.3582 338.353 42.6285L340.599 68.3667C340.666 69.1393 340.205 69.8603 339.475 70.1227L306.457 81.994C305.304 82.4086 304.103 81.5102 304.174 80.287Z" fill="#F9F9FF" stroke="#6C79F9" stroke-width="1.06767"/>
<path d="M326.948 53.7186L328.474 27.5983C328.527 26.6951 329.21 25.7274 330.002 25.2903C336.316 21.8075 361.313 6.30874 369.12 1.45699C370.202 0.784243 371.594 1.50323 371.705 2.77298L374.759 37.7229C374.826 38.4958 374.364 39.2171 373.634 39.4793L329.23 55.4259C328.077 55.84 326.876 54.9416 326.948 53.7186Z" fill="#F9F9FF" stroke="#6C79F9" stroke-width="1.06767"/>
<path d="M361.798 142.236L361.012 118.503C360.983 117.623 361.622 116.867 362.493 116.746C373.461 115.226 390.796 111.896 401.204 109.346C402.29 109.08 403.344 109.897 403.344 111.015V144.706C403.344 145.775 402.379 146.592 401.319 146.455C393.418 145.438 374.113 144.38 363.421 143.887C362.53 143.845 361.828 143.127 361.798 142.236Z" fill="#FFEDED" stroke="#D4666A" stroke-width="1.06767"/>
<path d="M184.32 189.394V150.961C184.32 150.961 196.317 149.21 209.959 147.076C223.601 144.942 240.64 142.016 240.64 142.016L243.556 198.696C237.797 195.982 200.135 189.394 184.32 189.394Z" fill="white" fill-opacity="0.5" stroke="#9C73F4" stroke-width="0.56172"/>
<path d="M192.664 177.125L192.664 157.063" stroke="#6C79F9" stroke-width="2.03141" stroke-linecap="round"/>
<path d="M199.438 177.125V165.904" stroke="#6C79F9" stroke-width="2.03141" stroke-linecap="round"/>
<path d="M206.203 177.125L206.203 159.784" stroke="#6C79F9" stroke-width="2.03141" stroke-linecap="round"/>
<path d="M212.977 177.125V168.964" stroke="#6C79F9" stroke-width="2.03141" stroke-linecap="round"/>
<path d="M219.75 177.125L219.75 155.703" stroke="#6C79F9" stroke-width="2.03141" stroke-linecap="round"/>
<path d="M226.523 177.125L226.523 159.104" stroke="#6C79F9" stroke-width="2.03141" stroke-linecap="round"/>
<path d="M362.916 84.4101L360.581 58.2665C360.521 57.5965 360.86 56.9538 361.447 56.6246L393.493 38.6464C394.589 38.0318 395.951 38.7702 396.034 40.0237L398.196 72.7769C398.25 73.5894 397.739 74.3227 396.953 74.5356C390.499 76.2844 362.863 83.8089 362.916 84.4101Z" fill="#EEFFF1" stroke="#47B55B" stroke-width="1.06767"/>
<path d="M273.362 176.603C273.838 176.254 274.46 176.174 275.008 176.394L276.032 176.803C276.707 177.073 277.138 177.741 277.104 178.468L275.192 220.109C275.148 221.062 274.333 221.794 273.38 221.735L222.995 218.627C222.525 218.598 222.089 218.377 221.788 218.015L221.146 217.246C220.516 216.49 220.654 215.359 221.447 214.776L273.362 176.603Z" fill="#6F7CFA"/>
<path d="M222.335 185.6C222.383 184.799 222.982 184.139 223.774 184.014L273.278 176.213C274.346 176.044 275.3 176.898 275.25 177.978L273.378 218.741C273.334 219.694 272.519 220.426 271.567 220.368L222.147 217.319C221.207 217.261 220.491 216.452 220.547 215.512L222.335 185.6Z" fill="#D8DBFF"/>
<path d="M270.633 217.745L223.164 214.03L224.529 185.594L272.302 179.527L270.633 217.745Z" fill="white"/>
<path d="M221.531 216.485C221.615 216.477 221.7 216.475 221.785 216.48L273.987 219.289C274.477 219.316 274.844 219.749 274.79 220.236L274.7 221.051C274.63 221.677 274.222 222.214 273.637 222.448L248.138 232.663C247.831 232.786 247.494 232.818 247.17 232.753L193.951 222.181C193.169 222.026 192.599 221.351 192.576 220.555L192.562 220.06C192.549 219.611 192.887 219.229 193.334 219.186L221.531 216.485Z" fill="#6F7CFA"/>
<path d="M219.687 216.574L271.623 218.648C272.541 218.684 272.762 219.947 271.91 220.293L247.596 230.162C247.445 230.223 247.28 230.24 247.12 230.211L194.57 220.539C193.593 220.36 193.658 218.939 194.648 218.849L219.687 216.574Z" fill="#D8DBFF"/>
<path d="M235.078 222.601L237.277 222.222L225.978 220.705L223.703 221.16L235.078 222.601Z" fill="white"/>
<path d="M238.192 223.127L240.695 222.596L238.192 222.293L235.766 222.9L238.192 223.127Z" fill="white"/>
<path d="M238.192 223.127L240.695 222.596L238.192 222.293L235.766 222.9L238.192 223.127Z" fill="white"/>
<path d="M241.216 223.434L243.718 222.903L241.216 222.6L238.789 223.206L241.216 223.434Z" fill="white"/>
<path d="M243.95 222.676L246.452 222.145L243.95 221.842L241.523 222.448L243.95 222.676Z" fill="white"/>
<path d="M248.802 222.221L251.304 221.69L248.802 221.387L246.375 221.993L248.802 222.221Z" fill="white"/>
<path d="M254.569 222.979L257.071 222.448L252.294 221.842L249.867 222.448L254.569 222.979Z" fill="white"/>
<path d="M251.536 221.311L254.038 220.78L251.536 220.477L249.109 221.083L251.536 221.311Z" fill="white"/>
<path d="M254.411 221.764L256.913 221.233L254.411 220.93L251.984 221.536L254.411 221.764Z" fill="white"/>
<path d="M257.903 222.221L260.405 221.69L257.903 221.387L255.477 221.993L257.903 222.221Z" fill="white"/>
<path d="M240.919 222.371L243.421 221.84L240.919 221.537L238.492 222.144L240.919 222.371Z" fill="white"/>
<path d="M245.77 221.916L248.273 221.385L245.77 221.082L243.344 221.689L245.77 221.916Z" fill="white"/>
<path d="M248.497 221.006L250.999 220.475L248.497 220.172L246.07 220.779L248.497 221.006Z" fill="white"/>
<path d="M237.731 221.916L240.234 221.385L237.731 221.082L235.305 221.689L237.731 221.916Z" fill="white"/>
<path d="M213.772 219.491L216.274 218.96L213.468 218.354L210.359 218.657L213.772 219.491Z" fill="white"/>
<path d="M216.651 218.58L219.153 218.049L216.651 217.746L214.148 218.049L216.651 218.58Z" fill="white"/>
<path d="M242.583 221.463L245.085 220.932L242.583 220.629L240.156 221.236L242.583 221.463Z" fill="white"/>
<path d="M245.325 220.551L247.827 220.02L245.325 219.717L242.898 220.323L245.325 220.551Z" fill="white"/>
<path d="M238.645 219.944L241.148 219.413L238.645 219.109L236.219 219.716L238.645 219.944Z" fill="white"/>
<path d="M234.395 221.463L236.898 220.932L234.395 220.629L231.969 221.236L234.395 221.463Z" fill="white"/>
<path d="M239.552 221.006L242.054 220.475L239.552 220.172L237.125 220.779L239.552 221.006Z" fill="white"/>
<path d="M236.372 220.705L238.874 220.174L236.372 219.871L233.945 220.478L236.372 220.705Z" fill="white"/>
<path d="M232.88 220.399L235.382 219.868L232.88 219.564L230.453 220.171L232.88 220.399Z" fill="white"/>
<path d="M242.286 220.098L244.788 219.567L242.286 219.264L239.859 219.87L242.286 220.098Z" fill="white"/>
<path d="M235.606 219.488L238.109 218.958L235.606 218.654L233.18 219.261L235.606 219.488Z" fill="white"/>
<path d="M244.262 223.889L246.765 223.358L244.262 223.055L241.836 223.661L244.262 223.889Z" fill="white"/>
<path d="M247.591 224.344L250.093 223.813L247.591 223.51L245.164 224.116L247.591 224.344Z" fill="white"/>
<path d="M251.156 223.736L253.659 223.205L247.137 222.371L244.711 222.978L251.156 223.736Z" fill="white"/>
<path d="M203.341 355.609C196.835 354.108 195.68 352.735 194.632 347.643C190.236 348.066 178.963 337.44 181.666 342.556C182.747 344.603 174.967 366.887 177.216 369.394C179.464 371.902 199.202 364.953 204.419 364.045C208.593 363.318 216.75 361.825 215.652 359.295C214.554 356.764 211.564 357.506 203.341 355.609Z" fill="black"/>
<path d="M176.212 368.289C176.153 368.045 176.308 367.804 176.556 367.767C178.875 367.42 189.501 365.83 195.395 364.988C201.341 364.139 212.861 360.756 215.213 360.055C215.448 359.985 215.686 360.129 215.744 360.367L216.246 362.448C216.297 362.66 216.19 362.873 215.985 362.946C213.499 363.829 198.582 369.065 195.395 368.679C192.259 368.299 179.868 371.081 177.458 371.633C177.23 371.685 177.006 371.544 176.95 371.316L176.212 368.289Z" fill="white"/>
<path d="M228.728 365.911C222.449 363.643 221.465 362.143 221.034 356.962C216.619 356.856 206.697 344.959 208.769 350.361C209.597 352.522 199.21 373.717 201.143 376.475C203.075 379.234 223.502 374.694 228.791 374.415C233.022 374.193 241.298 373.685 240.511 371.042C239.723 368.399 236.666 368.778 228.728 365.911Z" fill="#2C2C2C"/>
<path d="M228.728 365.911C222.449 363.643 221.465 362.143 221.034 356.962C216.619 356.856 206.697 344.959 208.769 350.361C209.597 352.522 199.21 373.717 201.143 376.475C203.075 379.234 223.502 374.694 228.791 374.415C233.022 374.193 241.298 373.685 240.511 371.042C239.723 368.399 236.666 368.778 228.728 365.911Z" fill="#E779FF" fill-opacity="0.2"/>
<path d="M200.298 375.258C200.268 375.009 200.451 374.788 200.702 374.781C203.046 374.713 213.786 374.405 219.738 374.274C225.742 374.141 237.584 372.159 240.003 371.744C240.245 371.703 240.465 371.874 240.493 372.118L240.742 374.233C240.768 374.454 240.626 374.656 240.408 374.7C237.869 375.203 223.35 378.039 219.297 377.938C215.294 377.838 203.445 378.593 201.118 378.745C200.892 378.76 200.698 378.595 200.671 378.369L200.298 375.258Z" fill="white"/>
<path d="M187.781 212.576C184.126 213.066 177.823 216.485 172.115 215.168L169.141 221.38L177.896 223.163C180.479 222.541 186.155 221.214 188.2 220.89C190.244 220.566 196.381 219.505 199.194 219.015C200.484 219.089 204.093 219.097 208.205 218.536C210.641 218.209 213.746 213.252 215.03 211.079L218.327 210.825C218.65 211.467 219.514 212.164 219.906 212.433C220.046 213.01 220.605 214.365 221.719 215.168C223.112 216.171 223.591 214.829 223.294 214.769C222.997 214.708 222.787 212.454 222.679 212.226C222.571 211.998 221.958 211.719 221.486 210.748C221.014 209.778 219.168 207.962 218.427 207.554C217.834 207.227 217.223 207.394 216.992 207.519C216.857 207.251 216.46 206.69 215.945 206.586C215.302 206.455 209.977 206.039 207.512 205.999C205.047 205.96 200.846 210.145 198.003 210.697C195.16 211.25 191.386 212.092 187.781 212.576Z" fill="#E5B8AA"/>
<path d="M187.781 212.576C184.126 213.066 177.823 216.485 172.115 215.168L169.141 221.38L177.896 223.163C180.479 222.541 186.155 221.214 188.2 220.89C190.244 220.566 196.381 219.505 199.194 219.015C200.484 219.089 204.093 219.097 208.205 218.536C210.641 218.209 213.746 213.252 215.03 211.079L218.327 210.825C218.65 211.467 219.514 212.164 219.906 212.433C220.046 213.01 220.605 214.365 221.719 215.168C223.112 216.171 223.591 214.829 223.294 214.769C222.997 214.708 222.787 212.454 222.679 212.226C222.571 211.998 221.958 211.719 221.486 210.748C221.014 209.778 219.168 207.962 218.427 207.554C217.834 207.227 217.223 207.394 216.992 207.519C216.857 207.251 216.46 206.69 215.945 206.586C215.302 206.455 209.977 206.039 207.512 205.999C205.047 205.96 200.846 210.145 198.003 210.697C195.16 211.25 191.386 212.092 187.781 212.576Z" fill="#E779FF" fill-opacity="0.2"/>
<path d="M230.66 213.437C230.166 212.942 230.154 210.683 230.211 209.616C230.525 209.346 231.316 209.203 231.672 209.166C231.934 209.578 232.458 210.481 232.458 210.796C232.458 211.11 232.87 212.8 233.076 213.605C233.114 213.699 233.043 213.954 232.458 214.223C231.728 214.561 231.278 214.055 230.66 213.437Z" fill="#DBA676"/>
<path d="M232.824 214.224C232.33 213.729 232.318 211.47 232.375 210.403C232.689 210.133 233.48 209.991 233.836 209.953C234.098 210.365 234.622 211.268 234.622 211.583C234.622 211.897 235.034 213.587 235.24 214.392C235.278 214.486 235.207 214.741 234.622 215.011C233.892 215.348 233.442 214.842 232.824 214.224Z" fill="#DBA676"/>
<path d="M200.797 219.507C196.92 220.856 190.401 221.474 183.883 221.306L182.422 233.275H192.368C195.047 232.02 200.943 229.308 203.101 228.498C205.259 227.689 211.717 225.164 214.677 224.003C216.101 223.797 220.038 223.003 224.398 221.474C226.983 220.575 229.269 214.469 230.186 211.809L233.727 210.797C234.221 211.427 235.319 211.996 235.806 212.202C236.087 212.802 236.997 214.158 238.391 214.787C240.133 215.574 240.357 214 240.02 214C239.683 214 238.953 211.584 238.784 211.359C238.615 211.135 237.885 210.966 237.154 210.011C236.424 209.055 234.008 207.482 233.108 207.201C232.389 206.976 231.76 207.295 231.535 207.482C231.329 207.22 230.771 206.695 230.186 206.695C229.456 206.695 223.556 207.426 220.858 207.932C218.161 208.437 214.508 213.944 211.53 215.181C208.552 216.417 204.622 218.177 200.797 219.507Z" fill="#FFF2EB"/>
<path d="M200.797 219.507C196.92 220.856 190.401 221.474 183.883 221.306L182.422 233.275H192.368C195.047 232.02 200.943 229.308 203.101 228.498C205.259 227.689 211.717 225.164 214.677 224.003C216.101 223.797 220.038 223.003 224.398 221.474C226.983 220.575 229.269 214.469 230.186 211.809L233.727 210.797C234.221 211.427 235.319 211.996 235.806 212.202C236.087 212.802 236.997 214.158 238.391 214.787C240.133 215.574 240.357 214 240.02 214C239.683 214 238.953 211.584 238.784 211.359C238.615 211.135 237.885 210.966 237.154 210.011C236.424 209.055 234.008 207.482 233.108 207.201C232.389 206.976 231.76 207.295 231.535 207.482C231.329 207.22 230.771 206.695 230.186 206.695C229.456 206.695 223.556 207.426 220.858 207.932C218.161 208.437 214.508 213.944 211.53 215.181C208.552 216.417 204.622 218.177 200.797 219.507Z" fill="#E779FF" fill-opacity="0.2"/>
<path d="M175.455 141.939C173.234 135.714 159.154 132.149 158.475 132.191C157.383 147.618 155.073 178.625 154.565 179.232C154.057 179.84 157.389 186.724 171.309 180.102C169.693 179.722 169.89 178.36 168.117 176.166C165.9 173.423 170.42 158.668 172.99 157.211C175.098 156.016 175.952 153.614 176.693 150.481C177.26 148.083 176.457 144.745 175.455 141.939Z" fill="black"/>
<path d="M175.455 141.939C173.234 135.714 159.154 132.149 158.475 132.191C157.383 147.618 155.073 178.625 154.565 179.232C154.057 179.84 157.389 186.724 171.309 180.102C169.693 179.722 169.89 178.36 168.117 176.166C165.9 173.423 170.42 158.668 172.99 157.211C175.098 156.016 175.952 153.614 176.693 150.481C177.26 148.083 176.457 144.745 175.455 141.939Z" fill="#E779FF" fill-opacity="0.2"/>
<path fill-rule="evenodd" clip-rule="evenodd" d="M159.636 197.484L131.599 189.347C131.377 189.556 131.527 189.326 131.527 189.326L131.599 189.347C131.98 188.988 133.457 187.338 138.673 181.014C146.928 171.008 144.627 167.763 144.627 167.763C144.187 167.044 143.633 166.224 143.022 165.32C140.473 161.547 136.934 156.31 136.595 150.832C136.178 144.1 146.282 128.409 161.573 138.534C162.274 138.3 163.035 138.153 163.855 138.102C167.596 137.871 172.335 142.459 173.828 147.142C174.185 148.26 174.035 149.893 173.871 151.683C173.721 153.32 173.559 155.088 173.762 156.709C173.885 157.699 174.965 158.991 176.863 160.914C176.667 162.348 175.893 162.64 175.281 162.871C175.011 162.973 174.773 163.063 174.63 163.233C174.561 163.312 174.485 163.392 174.409 163.474C173.996 163.914 173.551 164.387 173.901 164.946C173.883 165.046 173.551 165.214 173.223 165.379C172.923 165.53 172.627 165.68 172.577 165.774C172.335 166.239 172.604 166.39 172.852 166.53C173.082 166.66 173.294 166.78 173.058 167.131C172.941 167.306 172.663 167.526 172.391 167.742C172.129 167.949 171.872 168.152 171.768 168.308C171.251 169.155 170.912 169.908 170.632 170.532C170.018 171.896 169.679 172.648 168.352 172.448C166.852 172.222 165.837 171.519 164.701 170.731C164.387 170.514 164.064 170.289 163.718 170.067C163.594 170.248 163.47 170.435 163.346 170.629C158.774 177.78 155.111 191.153 159.636 197.484Z" fill="#FFD6C0"/>
<path d="M176.032 160.346C175.733 160.3 175.208 160.292 175.505 160.617C175.876 161.024 176.293 160.763 176.032 160.346Z" fill="white"/>
<path d="M176.032 160.346C175.733 160.3 175.208 160.292 175.505 160.617C175.876 161.024 176.293 160.763 176.032 160.346Z" fill="#E779FF" fill-opacity="0.2"/>
<path d="M170.613 159.09C170.517 158.549 169.337 157.29 168.797 156.83C169.191 156.916 170.137 157.347 170.467 157.569C170.797 157.791 170.702 158.675 170.613 159.09Z" fill="white"/>
<path d="M170.613 159.09C170.517 158.549 169.337 157.29 168.797 156.83C169.191 156.916 170.137 157.347 170.467 157.569C170.797 157.791 170.702 158.675 170.613 159.09Z" fill="#E779FF" fill-opacity="0.2"/>
<path d="M173.563 148.852C173.467 148.311 173.671 146.518 171.414 143.748C171.808 143.834 172.887 145.266 173.342 146.55C173.475 146.925 173.652 148.438 173.563 148.852Z" fill="white"/>
<path d="M153.224 157.107C152.818 155.642 153.462 154.208 154.344 153.792C154.87 153.741 155.938 153.713 155.963 153.968C156.548 154.532 157.539 158.869 157.962 160.967L158.004 161.406C157.93 160.638 157.106 161.271 156.317 161.125C155.529 160.979 153.732 158.939 153.224 157.107Z" fill="#F5A990"/>
<path d="M153.224 157.107C152.818 155.642 153.462 154.208 154.344 153.792C154.87 153.741 155.938 153.713 155.963 153.968C156.548 154.532 157.539 158.869 157.962 160.967L158.004 161.406C157.93 160.638 157.106 161.271 156.317 161.125C155.529 160.979 153.732 158.939 153.224 157.107Z" fill="#E779FF" fill-opacity="0.2"/>
<path d="M174.868 162.592C174.605 162.582 174.502 162.633 174.227 162.731" stroke="#774D3F" stroke-width="0.213534" stroke-linecap="round"/>
<path d="M158.448 163.764C158.812 167.557 160.879 169.815 163.065 170.657L161.874 172.876L160.935 175.176L159.168 179.649L154.982 169.657L158.448 163.764Z" fill="#E5B8AA"/>
<path d="M158.448 163.764C158.812 167.557 160.879 169.815 163.065 170.657L161.874 172.876L160.935 175.176L159.168 179.649L154.982 169.657L158.448 163.764Z" fill="#E779FF" fill-opacity="0.2"/>
<path d="M158.022 163.557C159.513 166.396 159.891 167.238 163.668 170.033L161.869 172.872L156.064 166.95L158.022 163.557Z" fill="#8E5E4E"/>
<path d="M158.022 163.557C159.513 166.396 159.891 167.238 163.668 170.033L161.869 172.872L156.064 166.95L158.022 163.557Z" fill="#E779FF" fill-opacity="0.2"/>
<path d="M167.047 154.766L170.404 154.138C170.017 154.793 170.387 156.991 170.273 156.846C170.159 156.7 168.264 155.495 167.047 154.766Z" fill="white"/>
<path d="M167.047 154.766L170.404 154.138C170.017 154.793 170.387 156.991 170.273 156.846C170.159 156.7 168.264 155.495 167.047 154.766Z" fill="#E779FF" fill-opacity="0.2"/>
<path d="M169.573 156.445C169.757 156.558 170.054 156.814 170.206 156.805C170.713 157.289 170.762 156.242 170.721 155.592C170.701 155.258 170.687 154.598 170.562 154.391C170.443 154.196 170.254 154.161 170.096 154.171C168.942 153.988 169.192 156.211 169.573 156.445Z" fill="#18142C"/>
<path d="M169.573 156.445C169.757 156.558 170.054 156.814 170.206 156.805C170.713 157.289 170.762 156.242 170.721 155.592C170.701 155.258 170.687 154.598 170.562 154.391C170.443 154.196 170.254 154.161 170.096 154.171C168.942 153.988 169.192 156.211 169.573 156.445Z" fill="#E779FF" fill-opacity="0.2"/>
<ellipse cx="170.324" cy="154.953" rx="0.126391" ry="0.146174" transform="rotate(-19.6391 170.324 154.953)" fill="white"/>
<ellipse cx="170.436" cy="155.78" rx="0.168205" ry="0.362763" transform="rotate(-2.89947 170.436 155.78)" fill="black"/>
<path d="M171.837 153.807C171.706 154.041 171.084 154.054 170.413 154.137M170.543 157.14C170.386 156.7 167.752 155.363 167.07 154.83C167.952 154.678 169.135 154.294 170.413 154.137M170.413 154.137C170.749 154.282 171.79 154.243 172.117 153.94M170.413 154.137C170.506 154.181 170.942 154.561 171.551 154.53" stroke="black" stroke-width="0.213534" stroke-linecap="round"/>
<path d="M171.837 153.807C171.706 154.041 171.084 154.054 170.413 154.137M170.543 157.14C170.386 156.7 167.752 155.363 167.07 154.83C167.952 154.678 169.135 154.294 170.413 154.137M170.413 154.137C170.749 154.282 171.79 154.243 172.117 153.94M170.413 154.137C170.506 154.181 170.942 154.561 171.551 154.53" stroke="#E779FF" stroke-opacity="0.2" stroke-width="0.213534" stroke-linecap="round"/>
<path d="M159.239 162.005C163.739 157.636 174.357 144.247 171.221 137.625C169.569 136.445 167.974 135.44 166.435 134.596L166.311 134.447C166.271 134.317 166.291 134.152 165.892 133.944C165.034 133.498 165.28 134.002 165.012 133.871C164.228 133.486 163.19 133.696 162.436 133.393C145.213 126.467 136.231 139.609 135.614 145.965C133.949 163.108 141.91 162.186 137.044 169.05C134.11 173.189 134.987 170.187 140.076 175.324C146.638 181.948 160.303 180.761 160.111 180.226C155.037 166.097 157.241 170.527 157.042 167.131C157.033 166.979 158.35 165.249 157.973 163.591C151.374 161.046 150.687 154.863 154.083 152.843C158.684 150.106 157.452 163.739 159.239 162.005Z" fill="url(#paint4_linear_1482_16210)"/>
<path d="M159.239 162.005C163.739 157.636 174.357 144.247 171.221 137.625C169.569 136.445 167.974 135.44 166.435 134.596L166.311 134.447C166.271 134.317 166.291 134.152 165.892 133.944C165.034 133.498 165.28 134.002 165.012 133.871C164.228 133.486 163.19 133.696 162.436 133.393C145.213 126.467 136.231 139.609 135.614 145.965C133.949 163.108 141.91 162.186 137.044 169.05C134.11 173.189 134.987 170.187 140.076 175.324C146.638 181.948 160.303 180.761 160.111 180.226C155.037 166.097 157.241 170.527 157.042 167.131C157.033 166.979 158.35 165.249 157.973 163.591C151.374 161.046 150.687 154.863 154.083 152.843C158.684 150.106 157.452 163.739 159.239 162.005Z" fill="#E779FF" fill-opacity="0.2"/>
<path d="M164.359 133.796C159.807 131.696 156.51 143.115 153.726 148.144C151.768 151.681 141.989 156.135 143.457 161.121C144.926 166.106 153.394 176.354 150.459 178.566C148.11 180.335 144.203 181.186 142.543 181.391" stroke="url(#paint5_linear_1482_16210)" stroke-width="0.854135" stroke-linecap="round"/>
<path d="M161.905 133.661C162.254 132.682 160.81 131.678 157.077 133.831C153.345 135.985 149.537 142.095 149.193 144.793C148.459 150.564 140.332 153.232 141.801 158.218C143.269 163.203 146.728 173.764 143.792 175.976C141.444 177.745 138.285 177.941 137.419 180.733" stroke="url(#paint6_linear_1482_16210)" stroke-width="0.427067" stroke-linecap="round"/>
<path d="M159.114 132.219C159.463 131.241 153.775 131.468 150.043 133.622C146.311 135.776 144.874 139.487 144.148 142.107C142.762 147.108 138.21 152.089 139.679 157.075C141.147 162.061 141.733 172.252 138.797 174.464C136.449 176.233 133.29 176.429 132.424 179.221" stroke="url(#paint7_linear_1482_16210)" stroke-width="0.854135" stroke-linecap="round"/>
<path d="M166.294 134.424C167.221 137.094 167.685 144.931 164.683 149.045C160.93 154.186 158.1 158.5 159.063 161.416" stroke="#352A70" stroke-width="1.06767" stroke-linecap="round"/>
<path d="M159.789 142.929C159.473 145.737 157.158 148.545 153.209 152.353C146.712 158.619 144.609 163.998 144.22 167.044" stroke="#352A70" stroke-width="0.427067" stroke-linecap="round"/>
<path d="M167.733 135.253C168.66 137.923 168.994 145.33 165.992 149.443C162.24 154.585 158.843 158.099 159.806 161.014" stroke="#352A70" stroke-width="0.427067" stroke-linecap="round"/>
<path d="M168.334 135.638C169.261 138.308 169.724 146.146 166.722 150.259C162.97 155.4 159.139 157.849 160.102 160.765" stroke="#352A70" stroke-width="0.427067" stroke-linecap="round"/>
<path d="M169.044 136.012C169.971 138.682 170.434 146.52 167.432 150.633C163.68 155.775 161.911 157.605 160.618 160.273" stroke="#352A70" stroke-width="0.427067" stroke-linecap="round"/>
<path d="M165.101 133.918C162.692 134.778 159.503 142.399 159.966 144.752C160.475 147.342 157.47 154.406 158.487 156.604" stroke="#352A70" stroke-width="0.640601" stroke-linecap="round"/>
<path d="M166.214 152.576C167.233 152.193 171.952 150.992 172.457 151.045L172.381 150.55C170.719 151.003 167.158 152.041 166.214 152.576Z" fill="#282251"/>
<path d="M166.214 152.576C167.233 152.193 171.952 150.992 172.457 151.045L172.381 150.55C170.719 151.003 167.158 152.041 166.214 152.576Z" fill="#E779FF" fill-opacity="0.2"/>
<path d="M169.675 165.594C171.4 167.701 171.768 167.867 172.464 167.8C173.159 167.734 173.153 167.343 173.229 166.873C173.293 166.476 172.641 166.172 172.583 165.908C173.973 165.775 173.957 165.095 173.907 165.079C173.824 165.053 173.907 165.08 173.526 164.765C172.902 164.963 171.5 165.671 169.675 165.594Z" fill="#F18867"/>
<path d="M169.675 165.594C171.4 167.701 171.768 167.867 172.464 167.8C173.159 167.734 173.153 167.343 173.229 166.873C173.293 166.476 172.641 166.172 172.583 165.908C173.973 165.775 173.957 165.095 173.907 165.079C173.824 165.053 173.907 165.08 173.526 164.765C172.902 164.963 171.5 165.671 169.675 165.594Z" fill="#E779FF" fill-opacity="0.2"/>
<path d="M172.612 166.255C172.447 166.314 171.563 166.49 170.453 165.895C170.453 165.895 172.231 165.941 172.578 165.907L172.612 166.255Z" fill="white"/>
<path opacity="0.7" d="M169.832 155.783C169.857 156.046 170.522 156.353 170.522 156.353C170.543 156.572 170.553 156.667 170.207 156.383C169.935 156.159 169.78 156.01 169.832 155.783Z" fill="#AFC6FF"/>
<path d="M171.93 166.539C171.872 166.453 171.65 166.511 171.753 166.648C171.882 166.819 171.989 166.626 171.93 166.539Z" fill="white"/>
<circle cx="157.602" cy="162.943" r="0.880943" transform="rotate(-5.48097 157.602 162.943)" fill="url(#paint8_radial_1482_16210)"/>
<g style="mix-blend-mode:soft-light">
<path d="M140.875 139.848C140.875 139.342 142.562 136.685 143.405 135.42C143.405 136.369 145.303 137.634 147.833 137.634C150.364 137.634 152.261 141.746 153.21 141.746C154.159 141.746 159.536 141.113 159.852 142.378C160.169 143.644 165.229 144.909 165.862 145.541C166.368 146.047 168.392 145.33 169.341 144.909L166.178 149.653C165.757 149.548 164.913 149.02 164.913 147.755C164.913 146.174 159.536 144.909 159.536 143.96C159.536 143.011 153.527 143.644 152.261 143.327C150.996 143.011 148.15 140.164 147.833 139.215C147.517 138.267 143.405 139.848 142.456 139.532C141.508 139.215 140.875 140.481 140.875 139.848Z" fill="#F0EDFF"/>
</g>
<path d="M167.628 213.019C162.808 211.958 151.477 190.847 149.87 189.785L140.231 199.869C144.693 206.768 155.975 221.841 165.401 226.936C174.826 232.031 188.964 225.344 201.281 220.567L198.604 208.891C188.071 209.245 171.484 213.868 167.628 213.019Z" fill="#AEB3E5"/>
<path d="M167.628 213.019C162.808 211.958 151.477 190.847 149.87 189.785L140.231 199.869C144.693 206.768 155.975 221.841 165.401 226.936C174.826 232.031 188.964 225.344 201.281 220.567L198.604 208.891C188.071 209.245 171.484 213.868 167.628 213.019Z" fill="#79AFFF" fill-opacity="0.2"/>
<path d="M201.234 262.294C186.407 260.839 154.041 265.625 145.786 271.289L130.796 295.593L182.183 293.214L175.959 349.619C175.959 349.619 176.501 350.932 187.573 352.782C198.644 354.632 199.68 352.782 199.68 352.782C199.735 321.594 212.974 263.445 201.234 262.294Z" fill="#424991"/>
<path d="M204.594 289.524C177.465 291.419 167.027 295.26 129.512 292.915C121.994 292.446 114.942 284.764 117.198 272.296C119.255 260.931 129.709 249.563 131.404 243.941L146.842 242.944L162.279 241.947V262.898C179.06 266.14 203.096 260.655 220.876 269.277C233.575 275.434 223.071 324.105 224.566 356.556C215.391 360.511 208.11 356.556 202.423 356.556C202.423 356.556 204.594 331.784 204.594 313.462V289.524Z" fill="#576FFF"/>
<path fill-rule="evenodd" clip-rule="evenodd" d="M157.757 182.737C157.874 182.827 157.99 182.918 158.103 183.01C158.587 183.402 158.998 183.937 159.345 184.601C161.702 188.074 163.679 194.138 165.617 200.082C166.897 204.008 168.161 207.883 169.505 210.924C170.612 213.428 171.718 214.842 172.704 216.104C173.858 217.579 174.848 218.846 175.49 221.403L205.71 213.144C205.71 213.144 208.804 214.478 210.883 219.467C212.962 224.456 212.494 226.584 212.494 226.584C203.812 229.646 196.79 232.779 190.907 235.404C176.961 241.626 169.417 244.991 161.33 237.796C162.081 246.317 163.636 254.863 166.677 262.656C166.702 262.72 166.696 262.785 166.649 262.835C165.491 264.067 150.081 280.233 138.884 280.233C127.893 280.233 117.738 271.337 116.639 270.344C116.578 270.289 116.568 270.205 116.607 270.133C120.707 262.55 120.82 250.213 120.909 240.431C120.946 236.369 120.979 232.748 121.292 230.09C120.822 199.596 126.707 185.943 134.966 181.333C142.597 177.074 151.465 178.538 156.847 182.091C157.157 182.26 157.46 182.477 157.757 182.737Z" fill="#DCE1FF"/>
<path d="M180.158 220.203C178.429 221.367 175.27 224.332 176.467 226.886C176.201 226.154 176.567 223.794 180.158 220.203Z" fill="#AEB3E5"/>
<path d="M179.48 220.199C175.901 220.946 168.807 223.674 169.062 228.615C169.114 227.25 171.27 223.657 179.48 220.199Z" fill="#AEB3E5"/>
<path d="M145.444 207.419C147.81 215.946 157.177 233.493 161.947 242.048L163.243 249.03C155.135 248.361 148.276 222.764 145.444 207.419C145.088 206.137 144.891 205.059 144.891 204.246C145.053 205.24 145.238 206.302 145.444 207.419Z" fill="#AEB3E6"/>
<path d="M110.144 203.623C109.524 200.731 111.892 198.008 114.835 198.298L131.355 199.923C132.488 200.034 133.527 200.601 134.089 201.592C136.176 205.274 140.866 216.158 140.005 238.569C139.323 256.338 138.218 264.107 137.476 267.446C137.134 268.985 135.739 269.674 134.195 269.353L116.844 265.745C114.469 265.252 112.926 262.87 113.27 260.469C113.868 256.29 114.592 249.063 114.592 238.569C114.592 226.3 111.859 211.624 110.144 203.623Z" fill="#95A4FF"/>
<path d="M129.505 203.859C128.814 201.7 130.706 199.523 132.929 199.968C133.716 200.125 134.397 200.604 134.734 201.332C136.259 204.63 140.299 215.581 140.154 238.834C140.035 258.038 138.519 265.553 137.533 268.419C137.138 269.57 136.006 270 134.806 269.8L133.499 269.583C132.217 269.369 131.438 268.019 131.839 266.782C133.275 262.348 136.048 252.073 136.048 238.834C136.048 226.146 131.906 211.361 129.505 203.859Z" fill="#3D5CFF"/>
<path d="M152.887 254.215C145.387 247.672 196.275 248.231 196.275 248.231L200.556 251.422C200.556 251.422 161.349 253.417 161.955 255.711C163.908 263.093 164.989 289.025 162.662 303.588L157.077 304.309C159.238 289.713 160.388 260.758 152.887 254.215Z" fill="#181524"/>
<path fill-rule="evenodd" clip-rule="evenodd" d="M130.745 358.425C130.736 358.542 130.735 358.661 130.743 358.784L130.745 358.785V361.626C130.136 362.101 129.745 362.841 129.745 363.673C129.745 364.758 130.41 365.687 131.355 366.074L122.573 367.474C121.537 367.639 120.774 368.533 120.774 369.582V371.95L120.778 371.949L120.774 371.95V375.441L120.913 375.437C120.218 376.004 119.773 376.868 119.773 377.835C119.773 379.543 121.158 380.927 122.865 380.927C124.573 380.927 125.957 379.543 125.957 377.835C125.957 376.713 125.359 375.73 124.465 375.189V371.364L145.809 367.973L161.364 377.462V381.062C160.697 381.629 160.273 382.475 160.273 383.419C160.273 385.127 161.658 386.511 163.365 386.511C165.073 386.511 166.457 385.127 166.457 383.419C166.457 382.212 165.765 381.166 164.756 380.657V375.844H164.698C164.568 375.297 164.226 374.817 163.736 374.516L151.575 367.057L172.454 363.741L172.691 367.929C172.045 368.496 171.637 369.328 171.637 370.255C171.637 371.962 173.021 373.347 174.729 373.347C176.437 373.347 177.821 371.962 177.821 370.255C177.821 369.042 177.123 367.992 176.106 367.486L176.029 363.175L176.004 363.177L176.031 363.172L175.945 361.366C175.885 360.095 174.733 359.158 173.476 359.359L146.132 363.718L134.448 356.552C132.881 355.591 130.912 356.645 130.749 358.385H130.745V358.425ZM134.017 365.649L140.345 364.641L134.137 360.853V361.805C134.626 362.277 134.931 362.939 134.931 363.673C134.931 364.465 134.576 365.174 134.017 365.649Z" fill="#181524"/>
<path d="M139.719 334.648C139.719 334.648 140.916 333.709 148.297 333.709C155.678 333.709 156.675 334.648 156.675 334.648V363.831C156.675 363.831 156.874 367.621 148.297 367.621C139.719 367.621 139.719 363.831 139.719 363.831V334.648Z" fill="url(#paint9_linear_1482_16210)"/>
<path d="M156.675 335.108C156.675 336.926 152.879 338.399 148.197 338.399C143.515 338.399 139.719 336.926 139.719 335.108C139.719 333.29 143.515 331.816 148.197 331.816C152.879 331.816 156.675 333.29 156.675 335.108Z" fill="#262237"/>
<g filter="url(#filter0_i_1482_16210)">
<path d="M143.977 307.438H152.832V334.476C152.832 334.476 152.996 335.904 148.486 335.904C143.977 335.904 143.977 334.476 143.977 334.476V307.438Z" fill="url(#paint10_linear_1482_16210)"/>
</g>
<path d="M147.984 293.199L201.386 288.59C202.384 288.504 203.241 289.29 203.241 290.292V300.54C203.241 301.378 202.632 302.093 201.805 302.226L148.611 310.804L147.984 293.199Z" fill="#3D5CFF"/>
<path d="M112.055 291.844L147.998 293.198L148.62 310.804L112.732 302.001L112.055 291.844Z" fill="#95A4FF"/>
<path d="M119.758 254.064C119.758 253.558 120.196 253.163 120.7 253.215L127.664 253.935C128.102 253.98 128.433 254.35 128.43 254.79L128.143 298.572C128.139 299.105 127.653 299.505 127.129 299.405L120.452 298.133C120.049 298.057 119.758 297.704 119.758 297.294V254.064Z" fill="#181524"/>
<rect x="381.586" y="215.816" width="7.38244" height="7.38244" transform="rotate(30 381.586 215.816)" fill="#6C79F9"/>
<path d="M34.1875 234.07C66.3043 223.996 85.4149 225.772 129.94 234.07C185.596 244.443 236.963 328.725 306.782 297.606C376.602 266.486 415.302 150.387 494.597 147.594" stroke="url(#paint11_linear_1482_16210)" stroke-width="0.854135" stroke-linecap="round"/>
<path d="M87.4453 237.064C119.562 226.99 138.673 228.766 183.198 237.064C238.854 247.437 266.482 277.16 336.302 246.041C406.121 214.921 468.559 153.381 547.854 150.588" stroke="url(#paint12_linear_1482_16210)" stroke-width="0.640601" stroke-linecap="round"/>
<rect x="306.18" y="251.791" width="7.38244" height="7.38244" transform="rotate(30 306.18 251.791)" fill="#69E4FF"/>
<circle cx="367.917" cy="230.976" r="5.38607" fill="#909AFD"/>
<circle cx="366.722" cy="249.327" r="5.38607" fill="#FF3E3C"/>
<circle cx="289.122" cy="259.901" r="3.59071" fill="#2BC413"/>
<circle cx="239.653" cy="296.604" r="3.59071" fill="#FD8660"/>
<circle cx="227.189" cy="290.521" r="2.49355" fill="#FFC700"/>
<circle cx="272.462" cy="259.605" r="2.49355" fill="#FFC700"/>
<path d="M251.028 201.453L243.053 199.297C242.51 199.216 242.109 198.755 242.109 198.21V193.779C242.109 193.234 242.51 192.772 243.053 192.691L251.028 189.496C251.564 189.417 252.044 189.828 252.044 190.366V200.583C252.044 201.121 251.564 201.532 251.028 201.453Z" fill="#6C79F9"/>
<g filter="url(#filter1_b_1482_16210)">
<path d="M239.302 194.851L244.172 195.988C244.75 196.065 245.177 196.501 245.177 197.016V201.205C245.177 201.72 244.75 202.156 244.172 202.233L239.302 203.054C238.731 203.131 238.219 202.74 238.219 202.233V195.672C238.219 195.163 238.731 194.774 239.302 194.849V194.851Z" fill="#9578FF" fill-opacity="0.7"/>
</g>
<defs>
<filter id="filter0_i_1482_16210" x="143.977" y="307.438" width="8.85938" height="31.1753" filterUnits="userSpaceOnUse" color-interpolation-filters="sRGB">
<feFlood flood-opacity="0" result="BackgroundImageFix"/>
<feBlend mode="normal" in="SourceGraphic" in2="BackgroundImageFix" result="shape"/>
<feColorMatrix in="SourceAlpha" type="matrix" values="0 0 0 0 0 0 0 0 0 0 0 0 0 0 0 0 0 0 127 0" result="hardAlpha"/>
<feOffset dy="6.77136"/>
<feGaussianBlur stdDeviation="1.35427"/>
<feComposite in2="hardAlpha" operator="arithmetic" k2="-1" k3="1"/>
<feColorMatrix type="matrix" values="0 0 0 0 0 0 0 0 0 0 0 0 0 0 0 0 0 0 0.25 0"/>
<feBlend mode="normal" in2="shape" result="effect1_innerShadow_1482_16210"/>
</filter>
<filter id="filter1_b_1482_16210" x="237.365" y="193.986" width="8.66921" height="9.93093" filterUnits="userSpaceOnUse" color-interpolation-filters="sRGB">
<feFlood flood-opacity="0" result="BackgroundImageFix"/>
<feGaussianBlur in="BackgroundImageFix" stdDeviation="0.427067"/>
<feComposite in2="SourceAlpha" operator="in" result="effect1_backgroundBlur_1482_16210"/>
<feBlend mode="normal" in="SourceGraphic" in2="effect1_backgroundBlur_1482_16210" result="shape"/>
</filter>
<linearGradient id="paint0_linear_1482_16210" x1="491.132" y1="126.597" x2="40.797" y2="181.754" gradientUnits="userSpaceOnUse">
<stop stop-color="#3045FF"/>
<stop offset="0.536458" stop-color="#C488FF"/>
<stop offset="1" stop-color="#C488FF" stop-opacity="0"/>
</linearGradient>
<linearGradient id="paint1_linear_1482_16210" x1="622.702" y1="38.0362" x2="172.367" y2="93.1939" gradientUnits="userSpaceOnUse">
<stop stop-color="#3045FF"/>
<stop offset="0.536458" stop-color="#C488FF"/>
<stop offset="1" stop-color="#C488FF" stop-opacity="0"/>
</linearGradient>
<linearGradient id="paint2_linear_1482_16210" x1="179.253" y1="165.073" x2="450.772" y2="158.228" gradientUnits="userSpaceOnUse">
<stop stop-color="#D7DEF5"/>
<stop offset="1" stop-color="white"/>
</linearGradient>
<linearGradient id="paint3_linear_1482_16210" x1="214.705" y1="137.271" x2="435.16" y2="99.6327" gradientUnits="userSpaceOnUse">
<stop stop-color="#B4C5FF"/>
<stop offset="1" stop-color="#BEC5FF" stop-opacity="0.76"/>
</linearGradient>
<linearGradient id="paint4_linear_1482_16210" x1="148.556" y1="131.117" x2="151.912" y2="185.288" gradientUnits="userSpaceOnUse">
<stop stop-color="#1E1940"/>
<stop offset="0.0001" stop-color="#534A89"/>
<stop offset="1" stop-color="#1E1940"/>
</linearGradient>
<linearGradient id="paint5_linear_1482_16210" x1="156.113" y1="137.437" x2="145.15" y2="173.476" gradientUnits="userSpaceOnUse">
<stop stop-color="#342970"/>
<stop offset="1" stop-color="#2C235E" stop-opacity="0"/>
</linearGradient>
<linearGradient id="paint6_linear_1482_16210" x1="151.895" y1="135.836" x2="139.966" y2="179.824" gradientUnits="userSpaceOnUse">
<stop stop-color="#322871"/>
<stop offset="1" stop-color="#4D184C" stop-opacity="0"/>
</linearGradient>
<linearGradient id="paint7_linear_1482_16210" x1="146.9" y1="134.324" x2="134.971" y2="178.312" gradientUnits="userSpaceOnUse">
<stop stop-color="#322871"/>
<stop offset="1" stop-color="#4D184C" stop-opacity="0"/>
</linearGradient>
<radialGradient id="paint8_radial_1482_16210" cx="0" cy="0" r="1" gradientUnits="userSpaceOnUse" gradientTransform="translate(158.335 162.678) rotate(149.036) scale(1.65257)">
<stop stop-color="white"/>
<stop offset="0.770833" stop-color="#CDA1E2"/>
<stop offset="1" stop-color="#EFCDFF"/>
</radialGradient>
<linearGradient id="paint9_linear_1482_16210" x1="139.545" y1="350.452" x2="156.624" y2="350.452" gradientUnits="userSpaceOnUse">
<stop stop-color="#95A4FF"/>
<stop offset="0.526042" stop-color="#95A4FF"/>
<stop offset="0.5625" stop-color="#3D5CFF"/>
<stop offset="1" stop-color="#3D5CFF"/>
</linearGradient>
<linearGradient id="paint10_linear_1482_16210" x1="143.977" y1="321.987" x2="152.833" y2="321.987" gradientUnits="userSpaceOnUse">
<stop stop-color="#95A4FF"/>
<stop offset="0.557292" stop-color="#95A4FF"/>
<stop offset="0.625" stop-color="#3D5CFF"/>
<stop offset="1" stop-color="#3D5CFF"/>
</linearGradient>
<linearGradient id="paint11_linear_1482_16210" x1="494.596" y1="152.381" x2="92.4367" y2="237.661" gradientUnits="userSpaceOnUse">
<stop stop-color="#FF3939"/>
<stop offset="0.671875" stop-color="#FFF383" stop-opacity="0.77"/>
<stop offset="1" stop-color="#FFF383" stop-opacity="0"/>
</linearGradient>
<linearGradient id="paint12_linear_1482_16210" x1="541.371" y1="146.598" x2="126.444" y2="252.026" gradientUnits="userSpaceOnUse">
<stop stop-color="#3045FF"/>
<stop offset="0.625" stop-color="#C488FF"/>
<stop offset="1" stop-color="#C488FF" stop-opacity="0"/>
</linearGradient>
</defs>
</svg>
