<svg width="182" height="238" viewBox="0 0 182 238" fill="none" xmlns="http://www.w3.org/2000/svg">
<rect width="182" height="238" rx="8" fill="#E6E9FE"/>
<path d="M61.2891 108.321C61.2891 108.321 69.104 94.1057 65.7151 62.2538C78.6508 55.2244 109.914 51.1597 114.638 55.8834C120.542 61.7881 114.232 103.388 117.606 105.919C120.981 108.449 88.5151 107.158 80.4862 109.293C72.3353 111.459 61.2891 108.321 61.2891 108.321Z" fill="#2E1833"/>
<ellipse rx="3.33508" ry="9.80562" transform="matrix(-0.847284 0.53114 0.269248 0.963071 68.1269 74.4981)" fill="#FFC5A6"/>
<path d="M74.5885 127.745C77.2878 127.745 78.764 98.2157 77.6971 83.341C85.5683 80.8104 105.63 77.4248 104.955 82.1485C104.281 86.8723 103.267 114.811 104.955 127.745H74.5885Z" fill="#FFC5A6"/>
<ellipse rx="4.33165" ry="9.87871" transform="matrix(0.901195 0.433414 -0.303843 0.952722 110.715 74.5781)" fill="#FFC5A6"/>
<path d="M113.785 74.0828C114.38 72.7978 114.113 67.3161 111.886 67.8839C111.271 68.2531 109.334 74.2902 109.296 76.3649C109.258 78.4396 107.606 80.5015 108.159 80.1693C109.326 79.4678 108.037 81.0044 109.734 80.3707C111.431 79.7369 113.041 75.6891 113.785 74.0828Z" fill="#EFA882"/>
<path d="M65.8132 73.9286C65.3157 72.6344 65.2766 67.1849 66.9538 67.8064C67.4256 68.1895 69.1249 74.2477 69.2433 76.3138C69.3617 78.3799 70.6766 80.4741 70.252 80.1294C69.3556 79.4016 70.3789 80.9637 69.0921 80.29C67.8054 79.6162 66.435 75.5464 65.8132 73.9286Z" fill="#EFA882"/>
<path d="M110.432 70.9152C110.432 84.8076 102.722 95.7975 94.8206 99.4136C93.1808 100.164 91.9952 100.622 89.6532 100.566C87.3112 100.509 86.1255 100.164 84.4858 99.4136C76.5844 95.7975 68.9766 83.6274 68.9766 69.735C68.9766 52.9595 76.9126 39.8164 89.6532 39.8164C102.394 39.8164 110.432 54.1397 110.432 70.9152Z" fill="#FFD6C0"/>
<mask id="mask0_1504_16155" style="mask-type:alpha" maskUnits="userSpaceOnUse" x="68" y="39" width="43" height="62">
<path d="M110.432 70.9152C110.432 84.8076 102.722 95.7975 94.8206 99.4136C93.1808 100.164 91.9952 100.622 89.6532 100.566C87.3112 100.509 86.1255 100.164 84.4858 99.4136C76.5844 95.7975 68.9766 83.6274 68.9766 69.735C68.9766 52.9595 76.9126 39.8164 89.6532 39.8164C102.394 39.8164 110.432 54.1397 110.432 70.9152Z" fill="#FFD6C0"/>
</mask>
<g mask="url(#mask0_1504_16155)">
<g filter="url(#filter0_f_1504_16155)">
<path d="M87.1389 100.923C84.754 101.174 79.9226 91.31 75.8731 86.0793C68.3417 76.3512 75.9986 54.604 87.1389 49.2379C94.0964 45.8865 97.5576 48.7985 99.6916 51.058C101.315 50.177 99.8377 45.5406 99.6916 44.5621C99.0446 44.7372 95.1678 39.2088 88.3943 39.4783C80.6019 39.7884 69.798 45.9304 69.3145 46.696C68.1848 48.4847 69.8479 88.6526 71.6052 93.3284C73.3626 98.0042 85.3502 105.316 91.4068 105.944C97.4634 106.571 104.807 98.7573 107.819 95.8702C110.229 93.5606 111.271 75.7236 111.491 67.0937L109.2 59.1229C109.033 63.6732 105.993 73.5833 104.587 81.3408C102.83 91.0375 94.7018 99.7615 92.1599 100.923C89.6181 102.084 89.5239 100.672 87.1389 100.923Z" fill="#FFCDB1"/>
</g>
</g>
<path d="M94.9893 46.5323C94.1357 44.9256 96.3282 40.4234 97.5312 38.3732C106.349 30.2141 112.877 56.3861 115.952 60.4029C119.028 64.4197 115.199 65.7689 113.724 65.3924C113.035 65.2165 112.8 68.0478 112.218 70.9156C111.553 74.1896 109.173 79.2002 109.173 79.2002C109.173 79.2002 110.366 66.7104 109.173 62.4425C107.981 58.1747 96.0562 48.5407 94.9893 46.5323Z" fill="#2E1833"/>
<path d="M70.0087 80.8302C69.1049 77.6168 70.3853 72.0853 71.1384 69.7213C70.0924 69.4598 67.9626 69.464 67.812 71.5728C67.6237 74.2088 71.1384 84.847 70.0087 80.8302Z" fill="#2E1833"/>
<path d="M86.2315 68.0381C86.0878 66.7125 83.9756 64.571 82.9375 63.666C82.3253 64.1052 81.2446 65.0036 81.8195 65.0834C82.3945 65.1633 85.0004 68.6836 86.2315 70.4337C86.2914 70.1875 86.3753 69.3637 86.2315 68.0381Z" fill="#FFC5A6"/>
<path d="M91.699 92.0027C90.5744 91.2864 86.6839 91.758 85.3286 92.0027C85.2888 92.7551 84.2908 94.4226 84.8266 94.1993C86.3328 93.5717 90.1927 92.8186 92.7496 93.9409C92.5948 93.7402 92.8236 92.719 91.699 92.0027Z" fill="#FFC5A6"/>
<path d="M91.0563 68.3102C91.1581 66.5065 93.3459 64.3662 94.4271 63.5215L95.148 65.1576C95.0138 65.2242 94.3763 65.8839 92.9008 67.991C91.0564 70.6248 93.3884 78.248 93.8336 79.6048C94.2788 80.9616 93.4944 81.201 92.9008 82.1588C92.3072 83.1165 88.9575 84.6928 88.1519 84.8724C87.5074 85.0161 85.1415 82.9236 84.0391 81.8595C84.5055 81.487 85.6121 80.7221 86.3075 80.6423C87.1767 80.5426 89.1059 81.64 89.8903 81.4804C90.6748 81.3207 90.8019 79.4252 91.0563 78.248C91.3107 77.0707 90.9291 70.5649 91.0563 68.3102Z" fill="#FFC5A6"/>
<path d="M87.3047 82.2969C87.493 82.5234 88.0997 82.996 88.4763 82.996C88.9365 82.996 89.2294 82.9183 89.6269 82.7241C89.838 82.621 90.4428 81.7725 90.7148 81.7531C90.9868 81.7337 90.9031 81.5977 91.2587 81.6171C91.5432 81.6327 91.7957 81.7142 91.8863 81.7531" stroke="#A0464E" stroke-width="0.142203"/>
<path d="M85.7446 81.7637C85.7183 81.7725 85.6939 81.7804 85.6719 81.7868C85.6939 81.7745 85.7183 81.767 85.7446 81.7637C85.9791 81.6849 86.366 81.5328 86.6251 81.6713C86.9132 81.8253 87.2605 82.2104 87.3665 82.3259C87.3594 82.3579 87.269 82.4029 86.964 82.3259C86.6132 82.2373 86.0473 81.7251 85.7446 81.7637Z" fill="#532929"/>
<path d="M90.7787 81.646C91.0561 81.4771 91.547 81.5756 91.7578 81.646C91.5068 81.5933 91.4973 81.9548 91.1302 82.0604C90.8365 82.1448 90.1328 82.2723 90.126 82.2371C90.228 82.1104 90.5013 81.8149 90.7787 81.646Z" fill="#532929"/>
<path d="M92.8906 66.5453V64.8763C93.5045 64.039 95.9605 63.2474 99.0737 62.7545C102.187 62.2616 105.744 64.13 107.678 65.5834L107.686 65.5949C108.029 66.0627 108.264 66.3826 107.678 66.0574C99.6168 61.5833 93.8867 64.839 92.8906 66.5453Z" fill="#2E1833"/>
<path d="M84.1641 65.7875V64.8891C83.4737 63.1871 80.4822 63.3126 77.6054 63.3126C74.5928 63.3126 72.5743 64.3557 70.8127 65.7875C70.4962 66.2543 70.2502 66.5325 70.8127 66.2543C77.8251 62.7867 83.2569 64.1067 84.1641 65.7875Z" fill="#2E1833"/>
<ellipse cx="109.165" cy="84.4405" rx="1.48619" ry="1.48619" transform="rotate(1.80596 109.165 84.4405)" fill="url(#paint0_radial_1504_16155)"/>
<ellipse cx="69.7776" cy="84.6167" rx="1.48619" ry="1.48619" transform="rotate(-5.48098 69.7776 84.6167)" fill="url(#paint1_radial_1504_16155)"/>
<path d="M97.4833 68.2092C96.2031 68.3476 94.297 70.0977 93.4609 70.9338C93.1933 71.1932 93.764 71.323 93.937 71.323C94.0754 71.323 99.588 71.2365 102.327 71.1933C103.062 70.6887 104.446 69.6796 104.1 69.6796C103.754 69.6796 101.073 68.5263 99.7754 67.9497C99.4727 67.9064 98.5904 67.8978 97.4833 68.2092Z" fill="#F29FA6"/>
<path d="M99.5126 73.3211L99.3828 72.1534C99.4866 72.0842 99.5126 72.1246 99.5126 72.1534V73.3211Z" fill="black"/>
<path d="M101.496 72.6755L100.491 72.0663C100.5 71.9418 100.547 71.9459 100.57 71.9634L101.496 72.6755Z" fill="black"/>
<path d="M102.777 72.2106L101.772 71.6014C101.781 71.477 101.829 71.481 101.852 71.4986L102.777 72.2106Z" fill="black"/>
<path d="M103.301 71.861L102.296 71.2518C102.304 71.1274 102.352 71.1314 102.375 71.149L103.301 71.861Z" fill="black"/>
<path d="M103.824 71.5114L102.819 70.9022C102.828 70.7777 102.876 70.7818 102.898 70.7994L103.824 71.5114Z" fill="black"/>
<path d="M97.2883 73.3736L97.8606 72.3475C97.9853 72.3514 97.983 72.3994 97.9663 72.4228L97.2883 73.3736Z" fill="black"/>
<path d="M94.67 67.8633C94.7046 68.1401 95.4341 68.4399 95.7945 68.5552L95.6647 68.5985C95.4917 68.5985 94.5823 68.2525 94.67 67.8633Z" fill="black"/>
<path d="M103.493 67.5156C103.462 67.8087 102.958 68.3424 102.627 68.4645L102.746 68.5103C102.905 68.5103 103.574 67.9277 103.493 67.5156Z" fill="black"/>
<path d="M96.4484 71.6684C96.2062 71.5992 94.9635 71.4378 94.3725 71.3657C93.767 70.6737 94.3725 70.1547 94.5455 69.8088C94.7185 69.4628 95.4969 68.9871 95.9294 68.6411C96.3619 68.2951 98.6973 67.8626 99.2595 67.8194C99.7092 67.7848 101.725 68.6411 102.676 69.0736C103.152 69.506 103.738 70.1165 101.835 71.1545C99.456 72.4519 96.7511 71.7549 96.4484 71.6684Z" fill="#D9D9D9" stroke="black" stroke-width="0.13193"/>
<path d="M101.071 69.8948C100.941 71.1057 99.932 71.9274 98.7377 71.9274C97.5435 71.9274 96.6168 71.1057 96.4434 69.8948C96.27 68.6839 96.3146 68.3811 98.7377 67.7324C101.635 68.1217 101.2 68.6839 101.071 69.8948Z" fill="#412856"/>
<path d="M95.5764 68.5977L93.4141 70.933C94.1925 70.3276 95.8186 69.0647 96.0954 68.8571C96.4414 68.5977 98.1281 68.1219 98.9065 68.1219C99.685 68.1219 103.534 69.4626 104.01 69.6788C104.485 69.8951 106.172 69.4194 105.696 69.4626C105.221 69.5059 103.015 68.5544 102.583 68.3814C102.15 68.2084 99.5985 67.6895 98.9065 67.6895C98.353 67.6895 96.2828 68.3093 95.5764 68.5977Z" fill="black"/>
<path d="M97.486 68.1219L97.2266 66.4785L97.659 68.0354L97.486 68.1219Z" fill="black"/>
<path d="M98.489 67.8799L98.7344 66.2344L98.6799 67.8493L98.489 67.8799Z" fill="black"/>
<path d="M99.3327 67.8214L99.5781 66.1758L99.5237 67.7907L99.3327 67.8214Z" fill="black"/>
<path d="M100.271 67.9725L101.273 66.6445L100.453 68.0369L100.271 67.9725Z" fill="black"/>
<path d="M101.599 68.3689L102.602 67.041L101.782 68.4334L101.599 68.3689Z" fill="black"/>
<ellipse cx="98.7388" cy="69.2469" rx="0.691964" ry="0.73521" fill="black"/>
<path d="M98.6526 68.339L98.6094 68.2093L98.9986 68.166L98.9554 68.339H98.6526Z" fill="#D9D9D9"/>
<path d="M98.7349 68.5968L98.6484 68.4238H98.9512L98.9079 68.5968H98.7349Z" fill="#D9D9D9"/>
<path d="M99.2578 68.6844L99.4308 68.3817C99.6038 68.3471 99.7912 68.5114 99.8633 68.5979L99.4308 68.8141L99.2578 68.6844Z" fill="#D9D9D9"/>
<ellipse cx="98.9501" cy="68.9012" rx="0.129743" ry="0.129743" fill="#D9D9D9"/>
<g filter="url(#filter1_f_1504_16155)">
<path d="M99.2734 70.9184C98.6158 71.2725 97.7558 70.6023 97.25 70.3493C97.5661 71.1713 98.7673 71.6702 99.463 71.361C100.601 70.8552 100.601 70.0753 100.728 69.5273C100.622 69.7592 99.931 70.5643 99.2734 70.9184Z" fill="#8E96CC" fill-opacity="0.5"/>
</g>
<path d="M93.4219 70.2558C94.2378 69.283 96.26 67.4942 97.8466 67.4942C99.8236 67.4942 101.299 67.4628 104.499 68.6239" stroke="black" stroke-width="0.0627624"/>
<path d="M80.1183 68.7099C81.2469 68.8439 82.9274 70.538 83.6646 71.3474C83.9006 71.5985 83.3974 71.7241 83.2449 71.7241C83.1229 71.7241 78.2626 71.6404 75.8477 71.5985C75.1995 71.1101 73.9794 70.1333 74.2844 70.1333C74.5895 70.1333 76.9535 69.0169 78.0974 68.4587C78.3643 68.4169 79.1421 68.4085 80.1183 68.7099Z" fill="#F29FA6"/>
<path d="M78.4169 73.8001L78.5312 72.6698C78.4397 72.6028 78.4169 72.6419 78.4169 72.6698V73.8001Z" fill="black"/>
<path d="M76.736 73.2138L77.6217 72.6241C77.6143 72.5036 77.5721 72.5076 77.552 72.5246L76.736 73.2138Z" fill="black"/>
<path d="M74.986 72.7119L75.8717 72.1222C75.8643 72.0017 75.8221 72.0056 75.802 72.0226L74.986 72.7119Z" fill="black"/>
<path d="M74.6032 72.2919L75.4889 71.7022C75.4815 71.5818 75.4393 71.5857 75.4192 71.6027L74.6032 72.2919Z" fill="black"/>
<path d="M74.1501 71.79L75.0358 71.2003C75.0284 71.0798 74.9862 71.0837 74.9661 71.1007L74.1501 71.79Z" fill="black"/>
<path d="M80.3835 73.3573L79.8789 72.3641C79.769 72.3679 79.771 72.4143 79.7858 72.437L80.3835 73.3573Z" fill="black"/>
<path d="M82.5963 68.375C82.5658 68.6429 81.9227 68.9332 81.6049 69.0448L81.7193 69.0867C81.8719 69.0867 82.6737 68.7518 82.5963 68.375Z" fill="black"/>
<path d="M74.8184 68.0391C74.8464 68.3228 75.2905 68.8394 75.5822 68.9576L75.4772 69.0019C75.3372 69.0019 74.7474 68.438 74.8184 68.0391Z" fill="black"/>
<path d="M81.0366 71.7742C81.2512 71.7122 82.3524 71.5675 82.8762 71.5029C83.4128 70.8829 82.8762 70.4178 82.7229 70.1078C82.5696 69.7978 81.8798 69.3715 81.4965 69.0614C81.1132 68.7514 79.0437 68.3639 78.5454 68.3251C78.1468 68.2941 76.3609 69.0614 75.5177 69.449C75.0961 69.8365 74.6746 70.8441 76.3609 71.7742C78.4688 72.9368 80.7683 71.8517 81.0366 71.7742Z" fill="#D9D9D9" stroke="black" stroke-width="0.132758"/>
<path d="M76.6984 70.3432C76.8126 71.5154 77.9568 72.3108 79.0097 72.3108C80.0626 72.3108 80.8796 71.5154 81.0325 70.3432C81.1854 69.171 81.146 68.878 79.0097 68.25C76.455 68.6268 76.5843 69.171 76.6984 70.3432Z" fill="#412856"/>
<g filter="url(#filter2_f_1504_16155)">
<path d="M79.0894 71.386C78.384 71.6312 77.6413 70.833 77.182 70.503C77.3637 71.3647 78.4704 72.048 79.2064 71.8531C80.4104 71.5343 80.5342 70.7644 80.7461 70.2434C80.6052 70.4556 79.7949 71.1408 79.0894 71.386Z" fill="#8E96CC" fill-opacity="0.5"/>
</g>
<path d="M81.7966 69.0862L83.7031 71.3468C83.0168 70.7607 81.5831 69.5383 81.3391 69.3374C81.0341 69.0862 79.547 68.6257 78.8607 68.6257C78.1743 68.6257 74.7808 69.9234 74.3614 70.1328C73.9419 70.3421 72.4549 69.8816 72.8743 69.9234C73.2937 69.9653 75.2384 69.0443 75.6196 68.8769C76.0009 68.7094 78.2506 68.207 78.8607 68.207C79.3487 68.207 81.1739 68.8071 81.7966 69.0862Z" fill="black"/>
<path d="M80.115 68.626L80.3438 67.0352L79.9625 68.5423L80.115 68.626Z" fill="black"/>
<path d="M79.232 68.3917L79.0156 66.7988L79.0636 68.3621L79.232 68.3917Z" fill="black"/>
<path d="M78.4898 68.3351L78.2734 66.7422L78.3214 68.3055L78.4898 68.3351Z" fill="black"/>
<path d="M77.6572 68.4808L76.7734 67.1953L77.4964 68.5431L77.6572 68.4808Z" fill="black"/>
<path d="M76.4931 68.8655L75.6094 67.5801L76.3323 68.9279L76.4931 68.8655Z" fill="black"/>
<ellipse rx="0.610074" ry="0.711685" transform="matrix(-1 0 0 1 79.0149 69.7136)" fill="black"/>
<path d="M79.5087 68.98L79.5469 68.8544L79.2037 68.8125L79.2418 68.98H79.5087Z" fill="#D9D9D9"/>
<path d="M79.4316 69.2319L79.5078 69.0645H79.2409L79.279 69.2319H79.4316Z" fill="#D9D9D9"/>
<path d="M79.1094 69.0476L78.9569 68.7546C78.8043 68.7211 78.6391 68.8802 78.5756 68.9639L78.9569 69.1732L79.1094 69.0476Z" fill="#D9D9D9"/>
<ellipse rx="0.114389" ry="0.125592" transform="matrix(-1 0 0 1 78.8231 69.3795)" fill="#D9D9D9"/>
<path d="M83.2461 70.1992C82.7704 69.5955 82.4292 68.7243 81.271 68.2762C79.4425 67.5689 76.3852 67.6395 73.6953 69.3751" stroke="black" stroke-width="0.0585935"/>
<path d="M87.5418 86.5613C87.2222 86.3972 83.8704 88.202 82.2344 89.1249C83.1665 90.0478 85.1734 91.9346 85.7441 92.0987C86.4575 92.3038 88.8829 92.4576 90.966 92.355C92.6324 92.273 94.8372 90.3383 95.7312 89.3812C95.7883 89.1932 95.7883 88.8172 95.3318 88.8172C94.8752 88.8172 92.0408 87.3132 90.6806 86.5613C90.1955 86.698 89.1569 86.9714 88.8829 86.9714C88.5405 86.9714 87.9413 86.7663 87.5418 86.5613Z" fill="#FF7777"/>
<path d="M87.6998 88.7288C87.4844 88.6769 86.2737 88.7505 85.6953 88.7937C86.6527 88.7504 88.3281 89.2266 88.6273 89.2266C88.8666 89.2266 89.0062 89.2843 89.0461 89.3132C89.096 89.2843 89.2615 89.2266 89.5248 89.2266C89.7881 89.2266 90.9309 88.8947 91.4695 88.7288C91.29 88.7144 90.901 88.6855 90.7813 88.6855C90.6318 88.6855 89.5248 88.7937 89.2855 88.8803C89.0461 88.9669 87.9691 88.7937 87.6998 88.7288Z" fill="white"/>
<path d="M94.6566 88.9484C94.5184 88.9874 93.8123 89.0784 93.4766 89.119C93.7932 89.2165 94.3688 89.119 94.7717 89.119C95.1746 89.119 95.2322 89.2165 95.3185 89.2409C95.4049 89.2652 95.52 89.2409 95.52 89.119C95.52 88.9971 94.8293 88.8996 94.6566 88.9484Z" fill="black"/>
<path d="M85.6641 88.7947C86.0052 88.7867 86.7556 88.7515 87.0285 88.6745C87.3696 88.5784 88.194 88.6986 88.592 88.7947C88.9899 88.8909 89.8712 88.6745 90.1838 88.6745C90.4965 88.6745 90.7239 88.5543 91.264 88.6745C91.551 88.7384 91.7452 88.7705 91.86 88.7848C91.9014 88.7883 91.9399 88.7916 91.9747 88.7947C91.9556 88.7947 91.9179 88.792 91.86 88.7848C91.4722 88.752 90.8315 88.7052 90.6671 88.7226C90.4397 88.7467 89.3595 89.0352 89.1036 89.0592C88.8478 89.0832 87.7676 88.7467 87.5118 88.7467C87.2559 88.7467 86.0336 88.9149 85.6641 88.7947Z" fill="black"/>
<path d="M82.1172 89.2715L82.8681 88.9355C82.8681 88.9528 82.897 89.0027 83.0125 89.0648C83.1569 89.1423 83.9078 89.1681 83.7056 89.1681C83.5439 89.1681 83.0029 89.306 82.7526 89.3749L82.1172 89.2715Z" fill="black"/>
<ellipse cx="91.0986" cy="89.9719" rx="0.270456" ry="0.28243" fill="white" fill-opacity="0.5"/>
<ellipse cx="91.7626" cy="89.9719" rx="0.270456" ry="0.28243" fill="white"/>
<path d="M74.3891 52.494C76.8182 50.2167 83.819 47.9751 85.9522 47.2847C88.0855 46.5943 92.3643 45.7365 94.6135 46.4374L96.9991 38.7176C84.0073 23.7174 63.8058 49.6149 62.1426 57.3974C60.4794 65.18 56.8538 80.6509 60.9016 90.4418C64.9494 100.233 68.1192 102.429 70.8808 105.379C69.2975 101.728 67.9706 98.0516 66.4498 93.8381L66.4245 93.7682C64.5103 88.4648 64.9581 77.3479 68.159 74.5864C71.3599 71.8248 68.1063 58.384 74.3891 52.494Z" fill="#513384"/>
<path d="M82.0619 51.6779C83.4113 48.634 85.1375 47.975 86.6435 45.9352C88.1495 43.8954 92.7421 44.387 94.9913 45.0879L97.0938 38.8432C84.102 23.843 62.9462 46.4062 60.9744 55.6321C59.311 63.4146 58.9032 64.1677 63.736 86.3542C66.2152 94.325 66.529 94.2309 72.3031 102.17C71.1424 99.9423 71.2613 92.7623 69.7299 88.5195C67.8156 83.2161 70.1377 73.2997 73.3386 70.5381C76.5395 67.7766 78.2066 60.3748 82.0619 51.6779Z" fill="#694D97"/>
<path d="M102.328 63.611C94.1374 58.0565 95.9342 40.6005 97.0322 40.6005C103.371 26.8556 117.148 53.8435 118.528 60.6532C119.633 66.101 119.961 79.7642 118.528 87.1388C116.882 95.6118 115.892 98.9381 115.422 103.677C114.637 101.354 114.951 96.1138 116.206 87.1388C117.461 78.1638 116.073 81.9062 115.163 75.881C114.253 69.8558 114.381 71.7849 102.328 63.611Z" fill="#694D97"/>
<ellipse cx="89.3606" cy="79.6145" rx="0.282431" ry="0.28243" fill="white"/>
<g filter="url(#filter3_f_1504_16155)">
<ellipse cx="88.9213" cy="96.6869" rx="1.72597" ry="1.72596" fill="white" fill-opacity="0.6"/>
</g>
<g filter="url(#filter4_f_1504_16155)">
<path d="M86.3156 72.0203C86.3156 72.9735 82.342 82.6586 81.3888 82.6586C80.4355 82.6586 74.3594 75.1703 74.3594 74.217C74.3594 73.2638 79.8707 73.0559 80.8239 73.0559C81.7771 73.0559 86.3156 71.0671 86.3156 72.0203Z" fill="white" fill-opacity="0.2"/>
</g>
<g filter="url(#filter5_f_1504_16155)">
<path d="M95.6359 52.9798C95.6359 53.933 89.9532 64.3301 89 64.3301C88.0468 64.3301 83.6797 56.1298 83.6797 55.1765C83.6797 54.2233 88.0468 50.8301 89 50.8301C89.9532 50.8301 95.6359 52.0266 95.6359 52.9798Z" fill="white" fill-opacity="0.6"/>
</g>
<g filter="url(#filter6_f_1504_16155)">
<path d="M105.485 72.3339C105.485 73.2871 98.9697 76.7587 98.0165 76.7587C97.0632 76.7587 94.094 75.3897 94.094 74.4364C94.094 73.4832 92.1366 71.4238 93.0898 71.4238C98.644 74.1226 105.485 71.3807 105.485 72.3339Z" fill="white" fill-opacity="0.3"/>
</g>
<path d="M77.0257 99.611C73.1658 97.0378 74.9543 110.783 71.879 112.32C43.6673 115.27 41.0001 125.846 41 143.168H140.949C140.949 135.825 142.267 126.467 131.472 120.442C120.677 114.417 114.045 116.714 107.591 113.638C106.389 114.672 107.654 102.687 104.014 99.611C93.4067 109.214 88.1974 107.059 77.0257 99.611Z" fill="black"/>
<path d="M75.7111 61.7907L80.4183 51.8429C79.2884 50.3366 76.4017 56.3618 75.7111 53.3492C75.0205 50.3366 74.017 52.8157 71.9142 54.7299C69.8115 56.6442 70.9726 50.5249 70.0627 49.7403C69.1529 48.9558 67.3639 52.7529 66.8305 51.8429C66.297 50.9328 70.9726 45.8177 68.1483 47.732C65.324 49.6462 63.2214 55.7655 62.8135 57.1777C62.4055 58.5898 65.1929 54.4161 67.7034 54.0082C70.2139 53.6002 69.6546 57.2718 70.9726 59.2802C72.2906 61.2886 73.5772 58.684 74.4873 57.9936C75.2153 57.4413 75.6065 60.2949 75.7111 61.7907Z" fill="#9171C5"/>
<path d="M116.303 56.5325L110.177 47.3904C108.304 47.5881 111.997 53.1558 109.056 52.204C106.116 51.2521 107.729 53.3849 108.295 56.1717C108.86 58.9586 104.202 54.8239 103.061 55.2028C101.921 55.5816 104.264 59.0645 103.209 59.0559C102.154 59.0472 100.16 52.4103 100.356 55.8166C100.551 59.2229 104.726 64.1658 105.729 65.2401C106.733 66.3144 104.579 61.7812 105.516 59.4167C106.453 57.0522 109.318 59.4151 111.718 59.3134C114.118 59.2117 112.542 56.7715 112.416 55.6362C112.315 54.728 114.966 55.8553 116.303 56.5325Z" fill="#9171C5"/>
<rect x="20" y="151.17" width="142" height="28" rx="4" fill="#6C79F9"/>
<path d="M33.328 171.17V159.97H38.416C39.632 159.97 40.704 160.205 41.632 160.674C42.56 161.133 43.2853 161.778 43.808 162.61C44.3307 163.442 44.592 164.429 44.592 165.57C44.592 166.701 44.3307 167.687 43.808 168.53C43.2853 169.362 42.56 170.013 41.632 170.482C40.704 170.941 39.632 171.17 38.416 171.17H33.328ZM35.92 169.042H38.288C39.0347 169.042 39.68 168.903 40.224 168.626C40.7787 168.338 41.2053 167.933 41.504 167.41C41.8133 166.887 41.968 166.274 41.968 165.57C41.968 164.855 41.8133 164.242 41.504 163.73C41.2053 163.207 40.7787 162.807 40.224 162.53C39.68 162.242 39.0347 162.098 38.288 162.098H35.92V169.042ZM51.6508 171.17V169.49L51.4908 169.122V166.114C51.4908 165.581 51.3254 165.165 50.9948 164.866C50.6748 164.567 50.1788 164.418 49.5068 164.418C49.0481 164.418 48.5948 164.493 48.1468 164.642C47.7094 164.781 47.3361 164.973 47.0268 165.218L46.1308 163.474C46.6001 163.143 47.1654 162.887 47.8268 162.706C48.4881 162.525 49.1601 162.434 49.8428 162.434C51.1548 162.434 52.1734 162.743 52.8988 163.362C53.6241 163.981 53.9868 164.946 53.9868 166.258V171.17H51.6508ZM49.0268 171.298C48.3548 171.298 47.7788 171.186 47.2988 170.962C46.8188 170.727 46.4508 170.413 46.1948 170.018C45.9388 169.623 45.8108 169.181 45.8108 168.69C45.8108 168.178 45.9334 167.73 46.1788 167.346C46.4348 166.962 46.8348 166.663 47.3788 166.45C47.9228 166.226 48.6321 166.114 49.5068 166.114H51.7948V167.57H49.7788C49.1921 167.57 48.7868 167.666 48.5628 167.858C48.3494 168.05 48.2428 168.29 48.2428 168.578C48.2428 168.898 48.3654 169.154 48.6108 169.346C48.8668 169.527 49.2134 169.618 49.6508 169.618C50.0668 169.618 50.4401 169.522 50.7708 169.33C51.1014 169.127 51.3414 168.834 51.4908 168.45L51.8748 169.602C51.6934 170.157 51.3628 170.578 50.8828 170.866C50.4028 171.154 49.7841 171.298 49.0268 171.298ZM59.7658 171.298C58.7524 171.298 57.9631 171.042 57.3978 170.53C56.8324 170.007 56.5498 169.234 56.5498 168.21V160.658H59.0458V168.178C59.0458 168.541 59.1418 168.823 59.3338 169.026C59.5258 169.218 59.7871 169.314 60.1178 169.314C60.5124 169.314 60.8484 169.207 61.1258 168.994L61.7978 170.754C61.5418 170.935 61.2324 171.074 60.8698 171.17C60.5178 171.255 60.1498 171.298 59.7658 171.298ZM55.2218 164.674V162.754H61.1898V164.674H55.2218ZM68.4789 171.17V169.49L68.3189 169.122V166.114C68.3189 165.581 68.1535 165.165 67.8229 164.866C67.5029 164.567 67.0069 164.418 66.3349 164.418C65.8762 164.418 65.4229 164.493 64.9749 164.642C64.5375 164.781 64.1642 164.973 63.8549 165.218L62.9589 163.474C63.4282 163.143 63.9935 162.887 64.6549 162.706C65.3162 162.525 65.9882 162.434 66.6709 162.434C67.9829 162.434 69.0015 162.743 69.7269 163.362C70.4522 163.981 70.8149 164.946 70.8149 166.258V171.17H68.4789ZM65.8549 171.298C65.1829 171.298 64.6069 171.186 64.1269 170.962C63.6469 170.727 63.2789 170.413 63.0229 170.018C62.7669 169.623 62.6389 169.181 62.6389 168.69C62.6389 168.178 62.7615 167.73 63.0069 167.346C63.2629 166.962 63.6629 166.663 64.2069 166.45C64.7509 166.226 65.4602 166.114 66.3349 166.114H68.6229V167.57H66.6069C66.0202 167.57 65.6149 167.666 65.3909 167.858C65.1775 168.05 65.0709 168.29 65.0709 168.578C65.0709 168.898 65.1935 169.154 65.4389 169.346C65.6949 169.527 66.0415 169.618 66.4789 169.618C66.8949 169.618 67.2682 169.522 67.5989 169.33C67.9295 169.127 68.1695 168.834 68.3189 168.45L68.7029 169.602C68.5215 170.157 68.1909 170.578 67.7109 170.866C67.2309 171.154 66.6122 171.298 65.8549 171.298ZM81.4611 171.362C80.5651 171.362 79.7065 171.245 78.8851 171.01C78.0638 170.765 77.4025 170.45 76.9011 170.066L77.7811 168.114C78.2611 168.455 78.8265 168.738 79.4771 168.962C80.1385 169.175 80.8051 169.282 81.4771 169.282C81.9891 169.282 82.3998 169.234 82.7091 169.138C83.0291 169.031 83.2638 168.887 83.4131 168.706C83.5625 168.525 83.6371 168.317 83.6371 168.082C83.6371 167.783 83.5198 167.549 83.2851 167.378C83.0505 167.197 82.7411 167.053 82.3571 166.946C81.9731 166.829 81.5465 166.722 81.0771 166.626C80.6185 166.519 80.1545 166.391 79.6851 166.242C79.2265 166.093 78.8051 165.901 78.4211 165.666C78.0371 165.431 77.7225 165.122 77.4771 164.738C77.2425 164.354 77.1251 163.863 77.1251 163.266C77.1251 162.626 77.2958 162.045 77.6371 161.522C77.9891 160.989 78.5118 160.567 79.2051 160.258C79.9091 159.938 80.7891 159.778 81.8451 159.778C82.5491 159.778 83.2425 159.863 83.9251 160.034C84.6078 160.194 85.2105 160.439 85.7331 160.77L84.9331 162.738C84.4105 162.439 83.8878 162.221 83.3651 162.082C82.8425 161.933 82.3305 161.858 81.8291 161.858C81.3278 161.858 80.9171 161.917 80.5971 162.034C80.2771 162.151 80.0478 162.306 79.9091 162.498C79.7705 162.679 79.7011 162.893 79.7011 163.138C79.7011 163.426 79.8185 163.661 80.0531 163.842C80.2878 164.013 80.5971 164.151 80.9811 164.258C81.3651 164.365 81.7865 164.471 82.2451 164.578C82.7145 164.685 83.1785 164.807 83.6371 164.946C84.1065 165.085 84.5331 165.271 84.9171 165.506C85.3011 165.741 85.6105 166.05 85.8451 166.434C86.0905 166.818 86.2131 167.303 86.2131 167.89C86.2131 168.519 86.0371 169.095 85.6851 169.618C85.3331 170.141 84.8051 170.562 84.1011 170.882C83.4078 171.202 82.5278 171.362 81.4611 171.362ZM91.9683 171.298C91.0403 171.298 90.2136 171.111 89.4883 170.738C88.7629 170.354 88.1923 169.826 87.7763 169.154C87.3709 168.482 87.1683 167.719 87.1683 166.866C87.1683 166.002 87.3709 165.239 87.7763 164.578C88.1923 163.906 88.7629 163.383 89.4883 163.01C90.2136 162.626 91.0403 162.434 91.9683 162.434C92.8749 162.434 93.6643 162.626 94.3363 163.01C95.0083 163.383 95.5043 163.922 95.8243 164.626L93.8883 165.666C93.6643 165.261 93.3816 164.962 93.0403 164.77C92.7096 164.578 92.3469 164.482 91.9523 164.482C91.5256 164.482 91.1416 164.578 90.8003 164.77C90.4589 164.962 90.1869 165.234 89.9843 165.586C89.7923 165.938 89.6963 166.365 89.6963 166.866C89.6963 167.367 89.7923 167.794 89.9843 168.146C90.1869 168.498 90.4589 168.77 90.8003 168.962C91.1416 169.154 91.5256 169.25 91.9523 169.25C92.3469 169.25 92.7096 169.159 93.0403 168.978C93.3816 168.786 93.6643 168.482 93.8883 168.066L95.8243 169.122C95.5043 169.815 95.0083 170.354 94.3363 170.738C93.6643 171.111 92.8749 171.298 91.9683 171.298ZM97.2145 171.17V162.562H99.7105V171.17H97.2145ZM98.4625 161.362C98.0038 161.362 97.6305 161.229 97.3425 160.962C97.0545 160.695 96.9105 160.365 96.9105 159.97C96.9105 159.575 97.0545 159.245 97.3425 158.978C97.6305 158.711 98.0038 158.578 98.4625 158.578C98.9212 158.578 99.2945 158.706 99.5825 158.962C99.8705 159.207 100.015 159.527 100.015 159.922C100.015 160.338 99.8705 160.685 99.5825 160.962C99.3052 161.229 98.9318 161.362 98.4625 161.362ZM106.299 171.298C105.318 171.298 104.454 171.106 103.707 170.722C102.971 170.338 102.4 169.815 101.995 169.154C101.59 168.482 101.387 167.719 101.387 166.866C101.387 166.002 101.584 165.239 101.979 164.578C102.384 163.906 102.934 163.383 103.627 163.01C104.32 162.626 105.104 162.434 105.979 162.434C106.822 162.434 107.579 162.615 108.251 162.978C108.934 163.33 109.472 163.842 109.867 164.514C110.262 165.175 110.459 165.97 110.459 166.898C110.459 166.994 110.454 167.106 110.443 167.234C110.432 167.351 110.422 167.463 110.411 167.57H103.419V166.114H109.099L108.139 166.546C108.139 166.098 108.048 165.709 107.867 165.378C107.686 165.047 107.435 164.791 107.115 164.61C106.795 164.418 106.422 164.322 105.995 164.322C105.568 164.322 105.19 164.418 104.859 164.61C104.539 164.791 104.288 165.053 104.107 165.394C103.926 165.725 103.835 166.119 103.835 166.578V166.962C103.835 167.431 103.936 167.847 104.139 168.21C104.352 168.562 104.646 168.834 105.019 169.026C105.403 169.207 105.851 169.298 106.363 169.298C106.822 169.298 107.222 169.229 107.563 169.09C107.915 168.951 108.235 168.743 108.523 168.466L109.851 169.906C109.456 170.354 108.96 170.701 108.363 170.946C107.766 171.181 107.078 171.298 106.299 171.298ZM117.353 162.434C118.035 162.434 118.643 162.573 119.177 162.85C119.721 163.117 120.147 163.533 120.457 164.098C120.766 164.653 120.921 165.367 120.921 166.242V171.17H118.425V166.626C118.425 165.933 118.27 165.421 117.961 165.09C117.662 164.759 117.235 164.594 116.681 164.594C116.286 164.594 115.929 164.679 115.609 164.85C115.299 165.01 115.054 165.261 114.873 165.602C114.702 165.943 114.617 166.381 114.617 166.914V171.17H112.121V162.562H114.505V164.946L114.057 164.226C114.366 163.65 114.809 163.207 115.385 162.898C115.961 162.589 116.617 162.434 117.353 162.434ZM126.703 171.298C125.69 171.298 124.901 171.042 124.335 170.53C123.77 170.007 123.487 169.234 123.487 168.21V160.658H125.983V168.178C125.983 168.541 126.079 168.823 126.271 169.026C126.463 169.218 126.725 169.314 127.055 169.314C127.45 169.314 127.786 169.207 128.063 168.994L128.735 170.754C128.479 170.935 128.17 171.074 127.807 171.17C127.455 171.255 127.087 171.298 126.703 171.298ZM122.159 164.674V162.754H128.127V164.674H122.159ZM130.136 171.17V162.562H132.632V171.17H130.136ZM131.384 161.362C130.926 161.362 130.552 161.229 130.264 160.962C129.976 160.695 129.832 160.365 129.832 159.97C129.832 159.575 129.976 159.245 130.264 158.978C130.552 158.711 130.926 158.578 131.384 158.578C131.843 158.578 132.216 158.706 132.504 158.962C132.792 159.207 132.936 159.527 132.936 159.922C132.936 160.338 132.792 160.685 132.504 160.962C132.227 161.229 131.854 161.362 131.384 161.362ZM137.845 171.298C137.109 171.298 136.4 171.213 135.717 171.042C135.045 170.861 134.512 170.637 134.117 170.37L134.949 168.578C135.344 168.823 135.808 169.026 136.341 169.186C136.885 169.335 137.418 169.41 137.941 169.41C138.517 169.41 138.922 169.341 139.157 169.202C139.402 169.063 139.525 168.871 139.525 168.626C139.525 168.423 139.429 168.274 139.237 168.178C139.056 168.071 138.81 167.991 138.501 167.938C138.192 167.885 137.85 167.831 137.477 167.778C137.114 167.725 136.746 167.655 136.373 167.57C136 167.474 135.658 167.335 135.349 167.154C135.04 166.973 134.789 166.727 134.597 166.418C134.416 166.109 134.325 165.709 134.325 165.218C134.325 164.674 134.48 164.194 134.789 163.778C135.109 163.362 135.568 163.037 136.165 162.802C136.762 162.557 137.477 162.434 138.309 162.434C138.896 162.434 139.493 162.498 140.101 162.626C140.709 162.754 141.216 162.941 141.621 163.186L140.789 164.962C140.373 164.717 139.952 164.551 139.525 164.466C139.109 164.37 138.704 164.322 138.309 164.322C137.754 164.322 137.349 164.397 137.093 164.546C136.837 164.695 136.709 164.887 136.709 165.122C136.709 165.335 136.8 165.495 136.981 165.602C137.173 165.709 137.424 165.794 137.733 165.858C138.042 165.922 138.378 165.981 138.741 166.034C139.114 166.077 139.488 166.146 139.861 166.242C140.234 166.338 140.57 166.477 140.869 166.658C141.178 166.829 141.429 167.069 141.621 167.378C141.813 167.677 141.909 168.071 141.909 168.562C141.909 169.095 141.749 169.57 141.429 169.986C141.109 170.391 140.645 170.711 140.037 170.946C139.44 171.181 138.709 171.298 137.845 171.298ZM146.969 171.298C145.956 171.298 145.166 171.042 144.601 170.53C144.036 170.007 143.753 169.234 143.753 168.21V160.658H146.249V168.178C146.249 168.541 146.345 168.823 146.537 169.026C146.729 169.218 146.99 169.314 147.321 169.314C147.716 169.314 148.052 169.207 148.329 168.994L149.001 170.754C148.745 170.935 148.436 171.074 148.073 171.17C147.721 171.255 147.353 171.298 146.969 171.298ZM142.425 164.674V162.754H148.393V164.674H142.425Z" fill="white"/>
<path d="M89.3008 188.986H87.5645V201.455H89.3008V188.986ZM79.5254 191.434H83.668V193.443H79.5391V198.543H80.6602C82.9297 198.543 84.7822 198.468 86.8262 198.105L86.6758 196.697C84.8506 196.998 83.2441 197.094 81.3438 197.107V194.824H85.4453V190.025H79.5254V191.434ZM97.4629 190.176H91.6934V191.57H95.7197C95.6787 192.158 95.5898 192.719 95.46 193.245L91.0371 193.512L91.2559 195.002L94.9336 194.66C94.2295 196.041 92.9922 197.196 90.9141 198.229L91.8711 199.541C96.5195 197.21 97.4492 194.018 97.4629 190.176ZM99.0352 201.4H100.785V195.193H102.549V193.758H100.785V188.986H99.0352V201.4Z" fill="#464555"/>
<defs>
<filter id="filter0_f_1504_16155" x="68.6943" y="39.2177" width="43.049" height="67.0119" filterUnits="userSpaceOnUse" color-interpolation-filters="sRGB">
<feFlood flood-opacity="0" result="BackgroundImageFix"/>
<feBlend mode="normal" in="SourceGraphic" in2="BackgroundImageFix" result="shape"/>
<feGaussianBlur stdDeviation="0.125525" result="effect1_foregroundBlur_1504_16155"/>
</filter>
<filter id="filter1_f_1504_16155" x="97.1245" y="69.4018" width="3.72761" height="2.17683" filterUnits="userSpaceOnUse" color-interpolation-filters="sRGB">
<feFlood flood-opacity="0" result="BackgroundImageFix"/>
<feBlend mode="normal" in="SourceGraphic" in2="BackgroundImageFix" result="shape"/>
<feGaussianBlur stdDeviation="0.0627624" result="effect1_foregroundBlur_1504_16155"/>
</filter>
<filter id="filter2_f_1504_16155" x="77.0542" y="70.1186" width="3.81355" height="1.89363" filterUnits="userSpaceOnUse" color-interpolation-filters="sRGB">
<feFlood flood-opacity="0" result="BackgroundImageFix"/>
<feBlend mode="normal" in="SourceGraphic" in2="BackgroundImageFix" result="shape"/>
<feGaussianBlur stdDeviation="0.0627624" result="effect1_foregroundBlur_1504_16155"/>
</filter>
<filter id="filter3_f_1504_16155" x="84.6848" y="92.4504" width="8.47412" height="8.47216" filterUnits="userSpaceOnUse" color-interpolation-filters="sRGB">
<feFlood flood-opacity="0" result="BackgroundImageFix"/>
<feBlend mode="normal" in="SourceGraphic" in2="BackgroundImageFix" result="shape"/>
<feGaussianBlur stdDeviation="1.25525" result="effect1_foregroundBlur_1504_16155"/>
</filter>
<filter id="filter4_f_1504_16155" x="73.1041" y="70.5065" width="14.4636" height="13.407" filterUnits="userSpaceOnUse" color-interpolation-filters="sRGB">
<feFlood flood-opacity="0" result="BackgroundImageFix"/>
<feBlend mode="normal" in="SourceGraphic" in2="BackgroundImageFix" result="shape"/>
<feGaussianBlur stdDeviation="0.627624" result="effect1_foregroundBlur_1504_16155"/>
</filter>
<filter id="filter5_f_1504_16155" x="77.4034" y="44.5538" width="24.5056" height="26.0525" filterUnits="userSpaceOnUse" color-interpolation-filters="sRGB">
<feFlood flood-opacity="0" result="BackgroundImageFix"/>
<feBlend mode="normal" in="SourceGraphic" in2="BackgroundImageFix" result="shape"/>
<feGaussianBlur stdDeviation="3.13812" result="effect1_foregroundBlur_1504_16155"/>
</filter>
<filter id="filter6_f_1504_16155" x="90.3176" y="68.9133" width="17.6772" height="10.355" filterUnits="userSpaceOnUse" color-interpolation-filters="sRGB">
<feFlood flood-opacity="0" result="BackgroundImageFix"/>
<feBlend mode="normal" in="SourceGraphic" in2="BackgroundImageFix" result="shape"/>
<feGaussianBlur stdDeviation="1.25525" result="effect1_foregroundBlur_1504_16155"/>
</filter>
<radialGradient id="paint0_radial_1504_16155" cx="0" cy="0" r="1" gradientUnits="userSpaceOnUse" gradientTransform="translate(110.402 83.9927) rotate(149.036) scale(2.78797 2.78796)">
<stop stop-color="white"/>
<stop offset="0.770833" stop-color="#CDA1E2"/>
<stop offset="1" stop-color="#EFCDFF"/>
</radialGradient>
<radialGradient id="paint1_radial_1504_16155" cx="0" cy="0" r="1" gradientUnits="userSpaceOnUse" gradientTransform="translate(71.0145 84.169) rotate(149.036) scale(2.78797 2.78796)">
<stop stop-color="white"/>
<stop offset="0.770833" stop-color="#CDA1E2"/>
<stop offset="1" stop-color="#EFCDFF"/>
</radialGradient>
</defs>
</svg>
