<svg width="182" height="290" viewBox="0 0 182 290" fill="none" xmlns="http://www.w3.org/2000/svg">
<mask id="path-2-inside-1_1644_16384" fill="white">
<path d="M0 33.3086C0 26.6812 5.37258 21.3086 12 21.3086H170C176.627 21.3086 182 26.6812 182 33.3086V51.5035H0V33.3086Z"/>
</mask>
<path d="M0 33.3086C0 26.6812 5.37258 21.3086 12 21.3086H170C176.627 21.3086 182 26.6812 182 33.3086V51.5035H0V33.3086Z" fill="#F2F5FF"/>
<path d="M0 21.3086H182H0ZM182 52.5035H0V50.5035H182V52.5035ZM0 51.5035V21.3086V51.5035ZM182 21.3086V51.5035V21.3086Z" fill="#CCD1F4" mask="url(#path-2-inside-1_1644_16384)"/>
<ellipse cx="90.5367" cy="38.0488" rx="7.97423" ry="8.27924" fill="#D9D9D9"/>
<ellipse cx="90.5276" cy="37.8038" rx="6.09794" ry="6.33119" fill="black"/>
<path d="M86.3067 40.3036C84.3921 34.9247 75.018 14.0513 90.0559 14.0001C105.094 13.9489 97.4048 33.9676 94.7487 40.3036" stroke="#FF7A00" stroke-width="3" stroke-linecap="round"/>
<path d="M80.5 2L87.5 18.5M94 18.5L100 2" stroke="#FF7A00" stroke-width="3" stroke-linecap="round"/>
<path d="M0 51.5039H182V277.677C182 284.305 176.627 289.677 170 289.677H12C5.37258 289.677 0 284.305 0 277.677V51.5039Z" fill="#E6E9FE"/>
<path d="M52.2195 106.504H69.0293V101.992H57.6772V80.1613H52.2195V106.504ZM78.0163 80.1613H72.5586V106.504H78.0163V80.1613ZM82.4553 106.504H87.913V98.9722L90.6782 95.6248L97.9916 106.504H104.541L94.6078 91.95L104.432 80.1613H97.846L88.2768 91.8408H87.913V80.1613H82.4553V106.504ZM111.563 106.504L113.546 100.428H123.079L125.062 106.504H130.92L121.824 80.1613H114.801L105.669 106.504H111.563ZM114.929 96.1706L118.222 86.092H118.403L121.696 96.1706H114.929Z" fill="#464555"/>
<path d="M66.443 197.818C66.443 197.818 54.0677 183.454 62.4168 147.412C76.3874 139.82 115.374 140.29 116.531 147.411C119.933 168.364 122.594 178.451 120.538 187.19C119.771 190.454 116.531 196.03 116.531 196.03C116.531 196.03 93.1051 194.608 84.4339 196.913C75.6309 199.253 66.443 197.818 66.443 197.818Z" fill="#2E1833"/>
<path d="M76.5541 177.246C85.055 174.513 105.57 171.26 104.841 176.362C104.462 179.02 102.599 189.446 104.841 198.682C106.902 207.171 114.563 214.372 125.834 217.466C120.471 220.294 103.748 238.52 88.7093 237.576C69.6621 236.381 52.3839 215.477 54.0129 215.477C55.6253 215.477 75.1326 212.206 77.4364 202.218C79.2979 194.148 77.0691 184.425 76.5541 177.246Z" fill="url(#paint0_linear_1644_16384)"/>
<mask id="mask0_1644_16384" style="mask-type:alpha" maskUnits="userSpaceOnUse" x="53" y="173" width="73" height="65">
<path d="M76.5541 177.244C85.055 174.511 105.57 171.258 104.841 176.36C104.462 179.018 102.599 189.444 104.841 198.68C106.902 207.169 114.563 214.37 125.834 217.464C120.471 220.292 103.748 238.519 88.7093 237.575C69.6621 236.379 52.3839 215.475 54.0129 215.475C55.6253 215.475 75.1326 212.204 77.4364 202.216C79.2979 194.146 77.0691 184.423 76.5541 177.244Z" fill="url(#paint1_linear_1644_16384)"/>
</mask>
<g mask="url(#mask0_1644_16384)">
<path d="M111.982 165.085C111.982 172.153 107.261 181.388 101.468 188.349C97.6083 192.987 92.2454 195.781 89.5417 195.781C86.838 195.781 81.6617 193.006 77.8808 188.349C72.0159 181.127 67.2109 171.324 67.2109 163.81C67.2109 145.693 75.7819 131.498 89.5417 131.498C103.301 131.498 111.982 146.967 111.982 165.085Z" fill="#E29C76"/>
</g>
<path d="M134.71 217.134C123.051 210.627 117.561 211.685 110.591 208.363C109.907 209.857 106.101 198.383 105.287 199.566C102.948 202.968 102.236 207.251 90.9225 207.743C82.1285 208.125 80.6607 203.308 77.8839 200.229C77.4419 196.914 71.7552 207.66 70.3493 208.363C39.8807 211.549 37.0001 222.97 37 241.678H144.945C144.945 233.748 146.369 223.642 134.71 217.134Z" fill="black"/>
<ellipse rx="4.89052" ry="10.59" transform="matrix(-0.847286 0.531137 0.26925 0.96307 67.3874 166.83)" fill="#FFC5A6"/>
<path d="M95.3015 137.31C94.3797 135.575 96.7476 130.713 98.0468 128.498C107.571 119.687 114.62 147.952 117.942 152.29C121.263 156.629 117.128 158.086 115.535 157.679C114.791 157.489 114.537 160.547 113.908 163.644C113.191 167.18 110.62 172.591 110.62 172.591C110.62 172.591 111.908 159.102 110.62 154.493C109.333 149.884 96.4539 139.479 95.3015 137.31Z" fill="#2E1833"/>
<path d="M110.77 144.743C108.732 142.285 102.859 139.865 101.069 139.12C99.2795 138.375 96.7831 136.537 94.8963 137.294L91.8017 129.873C102.701 113.683 117.883 142.572 119.425 150.947C123.091 170.863 122.034 176.139 118.762 187.41C115.489 198.68 114.162 198.68 106.831 199.564C110.556 196.47 113.72 193.757 115.005 189.178C116.611 183.453 117.69 171.606 115.005 168.626C112.32 165.645 116.04 151.1 110.77 144.743Z" fill="#694D97"/>
<path d="M116.112 168.405C115.631 169.915 114.582 171.897 113.902 172.825C112.055 175.349 110.522 176.296 108.819 175.477C106.491 174.357 106.28 171.186 108.071 165.573C109.861 159.959 113.2 156.316 115.528 157.436C117.857 158.556 117.903 162.792 116.112 168.405Z" fill="#FFC5A6"/>
<path d="M111.922 171.941C113.754 171.256 114.807 168.8 115.61 167.065C115.985 166.257 117.715 162.366 117.224 160.67C116.871 159.452 115.611 158.681 113.559 160.37C112.895 160.769 111.742 164.396 111.701 166.637C111.659 168.878 109.114 173.405 109.711 173.046C110.971 172.288 110.089 172.625 111.922 171.941Z" fill="#F8B38D"/>
<path d="M63.7945 166.899C63.2572 165.501 63.215 159.616 65.0263 160.287C65.5359 160.7 67.3712 167.243 67.4991 169.475C67.6269 171.706 69.047 173.968 68.5885 173.595C67.6203 172.809 68.7254 174.497 67.3357 173.769C65.9461 173.041 64.466 168.646 63.7945 166.899Z" fill="#EFA882"/>
<path d="M111.982 163.645C111.982 170.714 107.261 179.949 101.468 186.91C97.6083 191.547 92.2454 194.341 89.5417 194.341C86.838 194.341 81.6617 191.566 77.8808 186.91C72.0159 179.687 67.2109 169.885 67.2109 162.37C67.2109 144.253 75.7819 130.059 89.5417 130.059C103.301 130.059 111.982 145.528 111.982 163.645Z" fill="#FFD6C0"/>
<mask id="mask1_1644_16384" style="mask-type:alpha" maskUnits="userSpaceOnUse" x="67" y="130" width="45" height="65">
<path d="M111.982 163.643C111.982 170.712 107.261 179.947 101.468 186.908C97.6083 191.545 92.2454 194.339 89.5417 194.339C86.838 194.339 81.6617 191.564 77.8808 186.908C72.0159 179.685 67.2109 169.883 67.2109 162.368C67.2109 144.251 75.7819 130.057 89.5417 130.057C103.301 130.057 111.982 145.526 111.982 163.643Z" fill="#FFD6C0"/>
</mask>
<g mask="url(#mask1_1644_16384)">
<g filter="url(#filter0_f_1644_16384)">
<path d="M86.8288 196.051C84.253 196.322 79.0351 185.67 74.6617 180.021C66.5278 169.514 74.7972 146.028 86.8288 140.232C94.3429 136.613 98.081 139.758 100.386 142.198C102.139 141.246 100.543 136.239 100.386 135.182C99.6869 135.372 95.5 129.401 88.1846 129.692C79.7688 130.027 68.1006 136.66 67.5784 137.487C66.3583 139.419 68.1545 182.8 70.0524 187.85C71.9503 192.899 84.897 200.796 91.4381 201.474C97.9792 202.152 105.91 193.713 109.163 190.595C111.766 188.1 112.892 168.837 113.129 159.516L110.655 150.908C110.474 155.822 107.191 166.525 105.673 174.903C103.775 185.376 94.9967 194.797 92.2515 196.051C89.5062 197.305 89.4046 195.78 86.8288 196.051Z" fill="#FFC4B1"/>
</g>
</g>
<path d="M69.9373 174.383C68.3835 171.13 68.7269 165.007 69.0928 162.353C67.9314 162.267 65.6658 162.664 65.8941 164.936C66.1794 167.776 71.8796 178.449 69.9373 174.383Z" fill="#2E1833"/>
<path d="M85.6913 160.579C85.5361 159.148 83.2549 156.835 82.1338 155.857C81.4726 156.332 80.3054 157.302 80.9264 157.388C81.5473 157.474 84.3617 161.276 85.6913 163.166C85.756 162.901 85.8465 162.011 85.6913 160.579Z" fill="#FFC5A6"/>
<path d="M91.5956 186.461C90.381 185.687 86.1792 186.196 84.7155 186.461C84.6725 187.273 83.5947 189.074 84.1734 188.833C85.8001 188.155 89.9688 187.342 92.7302 188.554C92.563 188.337 92.8102 187.234 91.5956 186.461Z" fill="#FFC5A6"/>
<path d="M90.7578 160.722C90.8603 158.906 93.0634 156.751 94.1521 155.9L94.878 157.548C94.7428 157.615 94.1009 158.279 92.6151 160.401C90.7579 163.053 93.1061 170.729 93.5544 172.096C94.0027 173.462 92.1796 173.85 91.5819 174.814C90.9841 175.779 89.5202 176.843 88.7089 177.024C88.06 177.169 85.3992 175.444 84.2891 174.372C84.7587 173.997 85.2757 173.221 85.9759 173.14C86.8512 173.04 88.7938 174.145 89.5837 173.984C90.3736 173.823 90.5016 171.915 90.7578 170.729C91.014 169.544 90.6297 162.993 90.7578 160.722Z" fill="#FFC5A6"/>
<path d="M86.2344 174.154C86.416 174.372 87.5495 175.348 87.9127 175.348C88.3567 175.348 88.7653 175.222 89.1487 175.035C89.3524 174.936 89.8406 174.279 90.0722 174.154C90.3184 174.022 90.2539 174.005 90.5969 174.024C90.8714 174.039 91.115 174.117 91.2024 174.154" stroke="#A0464E" stroke-width="0.143193"/>
<path d="M85.5178 174.196C85.4973 174.206 85.4782 174.215 85.4609 174.223C85.4782 174.208 85.4972 174.2 85.5178 174.196C85.7013 174.103 86.0041 173.925 86.2068 174.087C86.4322 174.268 86.704 174.549 86.7869 174.684C86.7814 174.722 86.7107 174.946 86.472 174.856C86.1975 174.752 85.7547 174.15 85.5178 174.196Z" fill="#532929"/>
<path d="M90.1424 174.141C90.4429 173.925 90.9748 174.051 91.2031 174.141C90.9311 174.073 90.9209 174.536 90.5231 174.671C90.2049 174.78 89.4425 174.951 89.4352 174.905C89.5457 174.743 89.8418 174.357 90.1424 174.141Z" fill="#532929"/>
<path d="M93.0391 158.925V157.123C93.702 156.219 96.3545 155.364 99.7168 154.831C103.079 154.299 106.92 156.317 109.009 157.886L109.018 157.899C109.389 158.404 109.642 158.75 109.009 158.398C100.303 153.566 94.1148 157.083 93.0391 158.925Z" fill="url(#paint2_linear_1644_16384)"/>
<path d="M83.6172 158.107V157.136C82.8716 155.298 79.6407 155.434 76.5338 155.434C73.2802 155.434 71.1002 156.56 69.1977 158.107C68.8559 158.611 68.5902 158.911 69.1977 158.611C76.7711 154.866 82.6374 156.291 83.6172 158.107Z" fill="url(#paint3_linear_1644_16384)"/>
<ellipse cx="109.889" cy="176.186" rx="0.902535" ry="0.902527" transform="rotate(1.80597 109.889 176.186)" fill="url(#paint4_radial_1644_16384)"/>
<ellipse cx="69.7486" cy="176.186" rx="0.902535" ry="0.902527" transform="rotate(1.80597 69.7486 176.186)" fill="url(#paint5_radial_1644_16384)"/>
<path d="M97.8649 160.724C96.5291 160.873 94.54 162.763 93.6675 163.666C93.3882 163.947 93.8362 164.284 94.0149 164.257C95.5066 164.036 99.5664 166.246 102.92 163.947C103.687 163.402 105.131 162.312 104.77 162.312C104.409 162.312 101.611 161.066 100.257 160.444C99.9409 160.397 99.0203 160.388 97.8649 160.724Z" fill="#F29FA6"/>
<path d="M99.987 166.244L99.8516 164.983C99.9599 164.908 99.987 164.952 99.987 164.983V166.244Z" fill="black"/>
<path d="M102.049 165.546L101 164.888C101.009 164.754 101.059 164.758 101.083 164.777L102.049 165.546Z" fill="black"/>
<path d="M103.392 165.044L102.344 164.386C102.353 164.252 102.403 164.256 102.427 164.275L103.392 165.044Z" fill="black"/>
<path d="M103.939 164.667L102.891 164.01C102.9 163.875 102.95 163.879 102.974 163.898L103.939 164.667Z" fill="black"/>
<path d="M104.478 164.291L103.43 163.633C103.439 163.498 103.489 163.503 103.513 163.522L104.478 164.291Z" fill="black"/>
<path d="M97.6609 166.3L98.2581 165.192C98.3882 165.196 98.3858 165.248 98.3683 165.273L97.6609 166.3Z" fill="black"/>
<path d="M94.9281 160.35C94.9642 160.649 95.7254 160.972 96.1015 161.097L95.9661 161.144C95.7856 161.144 94.8366 160.77 94.9281 160.35Z" fill="black"/>
<path d="M104.134 159.975C104.1 160.291 103.575 160.868 103.23 160.999L103.354 161.049C103.52 161.049 104.218 160.42 104.134 159.975Z" fill="black"/>
<path d="M95.5087 164.035C95.0817 164.035 94.8488 164.113 94.232 164.035C94.0205 163.372 94.6219 162.824 94.8024 162.45C94.983 162.077 95.7953 161.563 96.2466 161.189C96.6979 160.816 99.135 160.349 99.7217 160.302C100.191 160.265 103.06 161.137 104.053 161.604C104.55 162.071 104.395 162.783 102.409 163.904C99.9267 165.305 96.1493 164.035 95.5087 164.035Z" fill="#D9D9D9" stroke="black" stroke-width="0.142484"/>
<path d="M101.611 162.412C101.474 163.645 100.411 164.482 99.1529 164.482C97.8947 164.482 96.9184 163.645 96.7357 162.412C96.553 161.178 96.6001 160.87 99.1529 160.209C102.206 160.605 101.747 161.178 101.611 162.412Z" fill="#412856"/>
<ellipse cx="99.1509" cy="161.753" rx="0.729008" ry="0.748962" fill="black"/>
<path d="M99.069 160.827L99.0234 160.694L99.4335 160.65L99.3879 160.827H99.069Z" fill="#D9D9D9"/>
<path d="M99.1458 161.09L99.0547 160.914H99.3736L99.3281 161.09H99.1458Z" fill="#D9D9D9"/>
<path d="M99.7031 161.178L99.8854 160.87C100.068 160.835 100.265 161.002 100.341 161.09L99.8854 161.311L99.7031 161.178Z" fill="#D9D9D9"/>
<ellipse cx="99.3789" cy="161.4" rx="0.136689" ry="0.13217" fill="#D9D9D9"/>
<g filter="url(#filter1_f_1644_16384)">
<path d="M99.7176 163.456C99.0248 163.817 98.1189 163.134 97.5859 162.876C97.919 163.714 99.1844 164.222 99.9175 163.907C101.117 163.392 101.117 162.597 101.25 162.039C101.139 162.275 100.41 163.095 99.7176 163.456Z" fill="#8E96CC" fill-opacity="0.5"/>
</g>
<path d="M95.8737 161.143L93.6172 163.665C94.4295 163.011 96.1264 161.647 96.4153 161.423C96.7763 161.143 98.5364 160.629 99.3488 160.629C100.161 160.629 104.178 162.077 104.674 162.311C105.171 162.544 106.931 162.03 106.434 162.077C105.938 162.124 103.636 161.096 103.185 160.909C102.734 160.723 100.071 160.162 99.3488 160.162C98.7711 160.162 96.6108 160.832 95.8737 161.143Z" fill="black"/>
<path d="M97.8645 160.63L97.5938 158.855L98.0451 160.537L97.8645 160.63Z" fill="black"/>
<path d="M98.9158 160.367L99.1719 158.59L99.1151 160.334L98.9158 160.367Z" fill="black"/>
<path d="M99.7908 160.305L100.047 158.527L99.9901 160.271L99.7908 160.305Z" fill="black"/>
<path d="M100.774 160.467L101.82 159.033L100.965 160.537L100.774 160.467Z" fill="black"/>
<path d="M102.165 160.895L103.211 159.461L102.355 160.965L102.165 160.895Z" fill="black"/>
<path d="M93.625 162.934C94.4764 161.883 96.5867 159.951 98.2424 159.951C100.305 159.951 101.845 159.917 105.185 161.171" stroke="black" stroke-width="0.0677831"/>
<path d="M79.156 161.156C80.381 161.234 82.2927 162.962 83.1351 163.792C83.4043 164.049 82.8691 164.214 82.7046 164.223C82.573 164.23 77.3268 164.425 74.7201 164.521C73.9924 164.033 72.6193 163.051 72.9483 163.033C73.2772 163.015 75.7611 161.673 76.962 161.003C77.2473 160.943 78.0857 160.888 79.156 161.156Z" fill="#F29FA6"/>
<path d="M77.617 166.744L77.674 165.518C77.5714 165.452 77.549 165.495 77.5507 165.525L77.617 166.744Z" fill="black"/>
<path d="M75.7707 166.212L76.6913 165.524C76.6762 165.394 76.631 165.401 76.6102 165.421L75.7707 166.212Z" fill="black"/>
<path d="M73.8488 165.772L74.7694 165.084C74.7543 164.955 74.7091 164.962 74.6883 164.981L73.8488 165.772Z" fill="black"/>
<path d="M73.4192 165.343L74.3397 164.655C74.3246 164.525 74.2794 164.532 74.2587 164.552L73.4192 165.343Z" fill="black"/>
<path d="M72.8957 164.827L73.8163 164.139C73.8012 164.01 73.756 164.016 73.7352 164.036L72.8957 164.827Z" fill="black"/>
<path d="M79.7112 166.151L79.1088 165.109C78.9905 165.12 78.9954 165.17 79.0126 165.194L79.7112 166.151Z" fill="black"/>
<path d="M81.8068 160.649C81.7897 160.939 81.1131 161.29 80.777 161.429L80.9028 161.468C81.0673 161.459 81.9123 161.051 81.8068 160.649Z" fill="black"/>
<path d="M73.397 160.744C73.4438 161.048 73.953 161.579 74.2746 161.69L74.1639 161.744C74.0129 161.752 73.3438 161.178 73.397 160.744Z" fill="black"/>
<path d="M80.3264 164.406C80.5543 164.327 81.7333 164.106 82.2944 164.006C82.8366 163.306 82.2307 162.836 82.0472 162.511C81.8637 162.185 81.0948 161.766 80.6633 161.454C80.2318 161.142 77.9772 160.846 77.4376 160.833C77.006 160.823 75.125 161.755 74.2385 162.223C73.8066 162.665 73.411 163.777 75.2841 164.681C77.6255 165.811 80.0417 164.506 80.3264 164.406Z" fill="#D9D9D9" stroke="black" stroke-width="0.143378"/>
<path d="M76.0648 163.002C76.2532 164.196 77.5314 164.943 78.6669 164.882C79.8023 164.82 80.6391 163.957 80.7387 162.748C80.8383 161.539 80.7795 161.241 78.4407 160.723C75.7067 161.259 75.8763 161.809 76.0648 163.002Z" fill="#412856"/>
<g filter="url(#filter2_f_1644_16384)">
<path d="M78.7059 163.93C77.9588 164.222 77.1135 163.449 76.5998 163.138C76.8437 164.009 78.0753 164.644 78.8582 164.401C80.1388 164.004 80.2294 163.209 80.4288 162.663C80.2888 162.888 79.453 163.637 78.7059 163.93Z" fill="#8E96CC" fill-opacity="0.5"/>
</g>
<ellipse rx="0.65888" ry="0.729857" transform="matrix(-0.998524 0.0543128 0.0543135 0.998524 78.5224 162.222)" fill="black"/>
<path d="M79.0229 161.441L79.057 161.31L78.6846 161.288L78.7351 161.457L79.0229 161.441Z" fill="#D9D9D9"/>
<path d="M78.9505 161.705L79.0234 161.529L78.7356 161.545L78.786 161.714L78.9505 161.705Z" fill="#D9D9D9"/>
<path d="M78.5947 161.535L78.4139 161.244C78.2476 161.219 78.0782 161.391 78.0144 161.481L78.4372 161.673L78.5947 161.535Z" fill="#D9D9D9"/>
<ellipse rx="0.12354" ry="0.128798" transform="matrix(-0.998524 0.0543128 0.0543135 0.998524 78.2977 161.891)" fill="#D9D9D9"/>
<path d="M80.9878 161.464L83.1764 163.79C82.4018 163.198 80.7841 161.964 80.5091 161.762C80.1654 161.509 78.5348 161.1 77.7946 161.14C77.0545 161.18 73.471 162.779 73.0309 163.029C72.5909 163.279 70.9603 162.87 71.415 162.89C71.8698 162.911 73.9128 161.804 74.3142 161.601C74.7156 161.398 77.1121 160.724 77.7701 160.688C78.2964 160.66 80.2998 161.2 80.9878 161.464Z" fill="black"/>
<path d="M79.1435 161.065L79.2969 159.336L78.9741 160.984L79.1435 161.065Z" fill="black"/>
<path d="M78.1783 160.865L77.8516 159.16L77.995 160.843L78.1783 160.865Z" fill="black"/>
<path d="M77.3737 160.848L77.0469 159.143L77.1903 160.826L77.3737 160.848Z" fill="black"/>
<path d="M76.4816 161.053L75.4531 159.719L76.3118 161.13L76.4816 161.053Z" fill="black"/>
<path d="M75.255 161.536L74.2266 160.201L75.0853 161.612L75.255 161.536Z" fill="black"/>
<path d="M82.6168 162.579C82.0684 161.955 81.6494 161.036 80.374 160.621C78.3607 159.965 75.0678 160.221 72.2688 162.25" stroke="black" stroke-width="0.0632808"/>
<path d="M87.4463 179.295C87.1302 179.118 84.7301 181.274 82.0781 182.157C83.5077 182.913 85.1032 185.099 85.6678 185.276C86.3736 185.497 88.7732 185.663 90.834 185.553C92.4826 185.464 93.5698 183.041 95.5484 182.341C95.6048 182.138 95.6048 181.732 95.1532 181.732C94.7015 181.732 91.8973 180.108 90.5517 179.295C90.0717 179.443 89.0442 179.738 88.7732 179.738C88.4344 179.738 87.8416 179.517 87.4463 179.295Z" fill="url(#paint6_linear_1644_16384)"/>
<path d="M87.6003 181.637C87.3872 181.58 86.1894 181.66 85.6172 181.707C86.5643 181.66 88.2219 182.174 88.5179 182.174C88.7546 182.174 88.8928 182.237 88.9322 182.268C88.9816 182.237 89.1453 182.174 89.4058 182.174C89.6663 182.174 90.7969 181.816 91.3297 181.637C91.1521 181.621 90.7674 181.59 90.649 181.59C90.501 181.59 89.4058 181.707 89.169 181.8C88.9322 181.894 87.8667 181.707 87.6003 181.637Z" fill="white"/>
<path d="M94.4877 181.873C94.3511 181.915 93.6525 182.014 93.3203 182.058C93.6335 182.163 94.203 182.058 94.6016 182.058C95.0003 182.058 95.0572 182.163 95.1426 182.189C95.2281 182.215 95.342 182.189 95.342 182.058C95.342 181.926 94.6586 181.821 94.4877 181.873Z" fill="black"/>
<path d="M85.5859 181.707C85.9234 181.698 86.6659 181.66 86.9358 181.577C87.2733 181.473 88.0889 181.603 88.4826 181.707C88.8763 181.811 89.7481 181.577 90.0575 181.577C90.3668 181.577 90.5918 181.447 91.1262 181.577C91.4101 181.646 91.6022 181.681 91.7157 181.696C91.7567 181.7 91.7948 181.704 91.8292 181.707C91.8104 181.707 91.7731 181.704 91.7157 181.696C91.3321 181.661 90.6982 181.61 90.5356 181.629C90.3106 181.655 89.2419 181.967 88.9888 181.993C88.7357 182.019 87.667 181.655 87.4139 181.655C87.1608 181.655 85.9515 181.837 85.5859 181.707Z" fill="black"/>
<path d="M82.0781 182.157L82.7411 181.936C82.7411 181.954 82.8496 181.932 82.9639 181.999C83.1067 182.083 83.8496 182.111 83.6496 182.111C83.4896 182.111 82.9543 182.26 82.7067 182.334L82.0781 182.157Z" fill="black"/>
<ellipse cx="90.9629" cy="182.979" rx="0.26757" ry="0.305023" fill="white" fill-opacity="0.5"/>
<ellipse cx="91.6191" cy="182.979" rx="0.26757" ry="0.305023" fill="white"/>
<path d="M73.0602 143.751C75.6837 141.291 83.2445 138.87 85.5484 138.125C87.8523 137.379 92.4734 136.453 94.9026 137.21L97.479 128.872C83.4479 112.672 64.907 140.964 61.7515 148.959C58.437 157.356 58.5879 183.508 60.8709 189.621C63.154 195.735 67.3092 199.419 73.0603 200.671C70.1207 197.43 67.165 197.297 65.5111 192.715C63.4437 186.988 62.8747 170.593 66.3317 167.61C69.7887 164.628 66.2748 150.112 73.0602 143.751Z" fill="#513384"/>
<path d="M81.3459 142.868C82.8032 139.581 84.6676 138.869 86.294 136.666C87.9205 134.463 92.8805 134.994 95.3096 135.751L97.5803 129.007C83.5492 112.807 64.3223 136.563 62.1927 146.527C60.3962 154.932 62.1916 178.571 64.1816 184.979C66.1716 191.388 69.7093 194.261 76.3382 195.366C73.6863 194.04 70.2574 187.794 68.6035 183.212C66.5361 177.484 68.2404 162.769 71.6974 159.786C75.1543 156.804 77.1821 152.261 81.3459 142.868Z" fill="#694D97"/>
<path d="M100.425 154.923C93.3578 146.906 89.857 133.296 96.2279 129.116C110.296 125.359 113.081 146.243 114.572 153.598C115.765 159.481 112.584 154.693 111.036 162.658C110.684 164.473 110.488 167.277 109.217 172.764C109.214 172.806 109.209 172.824 109.203 172.824C109.153 173.041 109.101 173.262 109.047 173.487C109.047 171.743 109.157 172.829 109.203 172.824C109.208 172.804 109.213 172.784 109.217 172.764C109.239 172.502 109.209 171.289 109.047 167.299C108.501 153.832 105.272 160.421 100.425 154.923Z" fill="#694D97"/>
<path d="M79.6338 149.005C79.6866 143.245 82.9474 138.596 84.2834 136.535L85.8367 137.197C81.8588 140.512 80.9748 141.616 80.3254 148.923C80.0659 151.843 84.9519 157.135 73.4604 161.113C82.7419 156.251 79.5905 153.73 79.6338 149.005Z" fill="#694D97"/>
<ellipse cx="89.2269" cy="173.039" rx="0.305026" ry="0.305023" fill="white"/>
<g filter="url(#filter3_f_1644_16384)">
<ellipse cx="88.7469" cy="191.477" rx="1.86405" ry="1.86403" fill="white" fill-opacity="0.6"/>
</g>
<g filter="url(#filter4_f_1644_16384)">
<path d="M85.9362 164.838C85.9362 165.867 81.6447 176.327 80.6152 176.327C79.5857 176.327 73.0234 168.24 73.0234 167.21C73.0234 166.181 78.9757 165.956 80.0051 165.956C81.0346 165.956 85.9362 163.808 85.9362 164.838Z" fill="white" fill-opacity="0.2"/>
</g>
<g filter="url(#filter5_f_1644_16384)">
<path d="M92.6847 144.43C92.6847 145.46 88.0631 156.693 87.2878 156.693C86.5126 156.693 82.9609 147.833 82.9609 146.803C82.9609 145.773 86.5126 142.107 87.2878 142.107C88.0631 142.107 92.6847 143.4 92.6847 144.43Z" fill="white" fill-opacity="0.6"/>
</g>
<g filter="url(#filter6_f_1644_16384)">
<path d="M106.638 165.176C106.638 166.206 99.6016 169.955 98.5722 169.955C97.5427 169.955 94.3359 168.476 94.3359 167.447C94.3359 166.417 92.2219 164.193 93.2514 164.193C99.2498 167.108 106.638 164.147 106.638 165.176Z" fill="white" fill-opacity="0.3"/>
</g>
<path d="M74.8265 153.598L79.425 142.974C78.3212 141.365 75.5012 147.8 74.8265 144.583C74.1519 141.365 73.1715 144.013 71.1172 146.057C69.063 148.102 70.1973 141.566 69.3085 140.728C68.4197 139.89 66.672 143.946 66.1509 142.974C65.6297 142.002 70.1973 136.539 67.4382 138.583C64.6791 140.628 62.6251 147.163 62.2266 148.672C61.8281 150.18 64.5511 145.722 67.0037 145.286C69.4562 144.851 68.9098 148.772 70.1973 150.917C71.4849 153.062 72.7419 150.28 73.6309 149.543C74.3421 148.953 74.7243 152.001 74.8265 153.598Z" fill="#9171C5"/>
<path d="M111.248 149.441L108.315 138.613C106.797 137.641 108.553 144.213 106.432 141.7C104.311 139.188 105.14 141.825 105.007 144.343C104.874 146.861 102.059 140.828 101.081 140.439C100.104 140.049 101.227 144.18 100.397 143.539C99.5673 142.898 99.3736 136.512 98.82 139.291C98.2663 142.07 100.532 148.444 101.1 149.887C101.668 151.33 100.911 146.492 102.141 145.208C103.372 143.924 105.14 147.493 107.054 148.857C108.968 150.221 108.232 147.366 108.368 146.403C108.477 145.633 110.333 148.108 111.248 149.441Z" fill="#9171C5"/>
<path d="M117.324 148.517L114.879 142.842C113.691 141.665 116.799 147.619 114.879 144.981C112.96 142.344 113.529 143.73 114.01 145.866C114.49 148.002 112.29 142.884 111.578 142.33C110.865 141.775 112.915 145.719 112.241 144.981C111.566 144.243 109.597 139.48 110.253 141.667C110.916 143.877 112.902 148.738 114.008 150.728C114.752 152.066 112.626 147.357 113.124 146.529C113.622 145.7 114.231 148.518 115.335 150.285C116.508 152.165 115.464 147.826 115.335 147.028C115.231 146.39 116.219 147.028 117.324 148.517Z" fill="#9171C5"/>
<path d="M96.2258 154.482C92.8512 149.393 93.4776 137.653 94.902 135.035L97.3055 135.572C94.902 139.455 95.761 150.896 96.6685 153.598C97.576 156.3 100.866 157.134 104.182 157.576C102.184 157.576 98.994 158.657 96.2258 154.482Z" fill="#694D97"/>
<rect x="20" y="241.678" width="142" height="28" rx="4" fill="#6C79F9"/>
<path d="M33.328 261.678V250.478H38.416C39.632 250.478 40.704 250.712 41.632 251.182C42.56 251.64 43.2853 252.286 43.808 253.118C44.3307 253.95 44.592 254.936 44.592 256.078C44.592 257.208 44.3307 258.195 43.808 259.038C43.2853 259.87 42.56 260.52 41.632 260.99C40.704 261.448 39.632 261.678 38.416 261.678H33.328ZM35.92 259.55H38.288C39.0347 259.55 39.68 259.411 40.224 259.134C40.7787 258.846 41.2053 258.44 41.504 257.918C41.8133 257.395 41.968 256.782 41.968 256.078C41.968 255.363 41.8133 254.75 41.504 254.238C41.2053 253.715 40.7787 253.315 40.224 253.038C39.68 252.75 39.0347 252.606 38.288 252.606H35.92V259.55ZM51.6508 261.678V259.998L51.4908 259.63V256.622C51.4908 256.088 51.3254 255.672 50.9948 255.374C50.6748 255.075 50.1788 254.926 49.5068 254.926C49.0481 254.926 48.5948 255 48.1468 255.15C47.7094 255.288 47.3361 255.48 47.0268 255.726L46.1308 253.982C46.6001 253.651 47.1654 253.395 47.8268 253.214C48.4881 253.032 49.1601 252.942 49.8428 252.942C51.1548 252.942 52.1734 253.251 52.8988 253.87C53.6241 254.488 53.9868 255.454 53.9868 256.766V261.678H51.6508ZM49.0268 261.806C48.3548 261.806 47.7788 261.694 47.2988 261.47C46.8188 261.235 46.4508 260.92 46.1948 260.526C45.9388 260.131 45.8108 259.688 45.8108 259.198C45.8108 258.686 45.9334 258.238 46.1788 257.854C46.4348 257.47 46.8348 257.171 47.3788 256.958C47.9228 256.734 48.6321 256.622 49.5068 256.622H51.7948V258.078H49.7788C49.1921 258.078 48.7868 258.174 48.5628 258.366C48.3494 258.558 48.2428 258.798 48.2428 259.086C48.2428 259.406 48.3654 259.662 48.6108 259.854C48.8668 260.035 49.2134 260.126 49.6508 260.126C50.0668 260.126 50.4401 260.03 50.7708 259.838C51.1014 259.635 51.3414 259.342 51.4908 258.958L51.8748 260.11C51.6934 260.664 51.3628 261.086 50.8828 261.374C50.4028 261.662 49.7841 261.806 49.0268 261.806ZM59.7658 261.806C58.7524 261.806 57.9631 261.55 57.3978 261.038C56.8324 260.515 56.5498 259.742 56.5498 258.718V251.166H59.0458V258.686C59.0458 259.048 59.1418 259.331 59.3338 259.534C59.5258 259.726 59.7871 259.822 60.1178 259.822C60.5124 259.822 60.8484 259.715 61.1258 259.502L61.7978 261.262C61.5418 261.443 61.2324 261.582 60.8698 261.678C60.5178 261.763 60.1498 261.806 59.7658 261.806ZM55.2218 255.182V253.262H61.1898V255.182H55.2218ZM68.4789 261.678V259.998L68.3189 259.63V256.622C68.3189 256.088 68.1535 255.672 67.8229 255.374C67.5029 255.075 67.0069 254.926 66.3349 254.926C65.8762 254.926 65.4229 255 64.9749 255.15C64.5375 255.288 64.1642 255.48 63.8549 255.726L62.9589 253.982C63.4282 253.651 63.9935 253.395 64.6549 253.214C65.3162 253.032 65.9882 252.942 66.6709 252.942C67.9829 252.942 69.0015 253.251 69.7269 253.87C70.4522 254.488 70.8149 255.454 70.8149 256.766V261.678H68.4789ZM65.8549 261.806C65.1829 261.806 64.6069 261.694 64.1269 261.47C63.6469 261.235 63.2789 260.92 63.0229 260.526C62.7669 260.131 62.6389 259.688 62.6389 259.198C62.6389 258.686 62.7615 258.238 63.0069 257.854C63.2629 257.47 63.6629 257.171 64.2069 256.958C64.7509 256.734 65.4602 256.622 66.3349 256.622H68.6229V258.078H66.6069C66.0202 258.078 65.6149 258.174 65.3909 258.366C65.1775 258.558 65.0709 258.798 65.0709 259.086C65.0709 259.406 65.1935 259.662 65.4389 259.854C65.6949 260.035 66.0415 260.126 66.4789 260.126C66.8949 260.126 67.2682 260.03 67.5989 259.838C67.9295 259.635 68.1695 259.342 68.3189 258.958L68.7029 260.11C68.5215 260.664 68.1909 261.086 67.7109 261.374C67.2309 261.662 66.6122 261.806 65.8549 261.806ZM81.4611 261.87C80.5651 261.87 79.7065 261.752 78.8851 261.518C78.0638 261.272 77.4025 260.958 76.9011 260.574L77.7811 258.622C78.2611 258.963 78.8265 259.246 79.4771 259.47C80.1385 259.683 80.8051 259.79 81.4771 259.79C81.9891 259.79 82.3998 259.742 82.7091 259.646C83.0291 259.539 83.2638 259.395 83.4131 259.214C83.5625 259.032 83.6371 258.824 83.6371 258.59C83.6371 258.291 83.5198 258.056 83.2851 257.886C83.0505 257.704 82.7411 257.56 82.3571 257.454C81.9731 257.336 81.5465 257.23 81.0771 257.134C80.6185 257.027 80.1545 256.899 79.6851 256.75C79.2265 256.6 78.8051 256.408 78.4211 256.174C78.0371 255.939 77.7225 255.63 77.4771 255.246C77.2425 254.862 77.1251 254.371 77.1251 253.774C77.1251 253.134 77.2958 252.552 77.6371 252.03C77.9891 251.496 78.5118 251.075 79.2051 250.766C79.9091 250.446 80.7891 250.286 81.8451 250.286C82.5491 250.286 83.2425 250.371 83.9251 250.542C84.6078 250.702 85.2105 250.947 85.7331 251.278L84.9331 253.246C84.4105 252.947 83.8878 252.728 83.3651 252.59C82.8425 252.44 82.3305 252.366 81.8291 252.366C81.3278 252.366 80.9171 252.424 80.5971 252.542C80.2771 252.659 80.0478 252.814 79.9091 253.006C79.7705 253.187 79.7011 253.4 79.7011 253.646C79.7011 253.934 79.8185 254.168 80.0531 254.35C80.2878 254.52 80.5971 254.659 80.9811 254.766C81.3651 254.872 81.7865 254.979 82.2451 255.086C82.7145 255.192 83.1785 255.315 83.6371 255.454C84.1065 255.592 84.5331 255.779 84.9171 256.014C85.3011 256.248 85.6105 256.558 85.8451 256.942C86.0905 257.326 86.2131 257.811 86.2131 258.398C86.2131 259.027 86.0371 259.603 85.6851 260.126C85.3331 260.648 84.8051 261.07 84.1011 261.39C83.4078 261.71 82.5278 261.87 81.4611 261.87ZM91.9683 261.806C91.0403 261.806 90.2136 261.619 89.4883 261.246C88.7629 260.862 88.1923 260.334 87.7763 259.662C87.3709 258.99 87.1683 258.227 87.1683 257.374C87.1683 256.51 87.3709 255.747 87.7763 255.086C88.1923 254.414 88.7629 253.891 89.4883 253.518C90.2136 253.134 91.0403 252.942 91.9683 252.942C92.8749 252.942 93.6643 253.134 94.3363 253.518C95.0083 253.891 95.5043 254.43 95.8243 255.134L93.8883 256.174C93.6643 255.768 93.3816 255.47 93.0403 255.278C92.7096 255.086 92.3469 254.99 91.9523 254.99C91.5256 254.99 91.1416 255.086 90.8003 255.278C90.4589 255.47 90.1869 255.742 89.9843 256.094C89.7923 256.446 89.6963 256.872 89.6963 257.374C89.6963 257.875 89.7923 258.302 89.9843 258.654C90.1869 259.006 90.4589 259.278 90.8003 259.47C91.1416 259.662 91.5256 259.758 91.9523 259.758C92.3469 259.758 92.7096 259.667 93.0403 259.486C93.3816 259.294 93.6643 258.99 93.8883 258.574L95.8243 259.63C95.5043 260.323 95.0083 260.862 94.3363 261.246C93.6643 261.619 92.8749 261.806 91.9683 261.806ZM97.2145 261.678V253.07H99.7105V261.678H97.2145ZM98.4625 251.87C98.0038 251.87 97.6305 251.736 97.3425 251.47C97.0545 251.203 96.9105 250.872 96.9105 250.478C96.9105 250.083 97.0545 249.752 97.3425 249.486C97.6305 249.219 98.0038 249.086 98.4625 249.086C98.9212 249.086 99.2945 249.214 99.5825 249.47C99.8705 249.715 100.015 250.035 100.015 250.43C100.015 250.846 99.8705 251.192 99.5825 251.47C99.3052 251.736 98.9318 251.87 98.4625 251.87ZM106.299 261.806C105.318 261.806 104.454 261.614 103.707 261.23C102.971 260.846 102.4 260.323 101.995 259.662C101.59 258.99 101.387 258.227 101.387 257.374C101.387 256.51 101.584 255.747 101.979 255.086C102.384 254.414 102.934 253.891 103.627 253.518C104.32 253.134 105.104 252.942 105.979 252.942C106.822 252.942 107.579 253.123 108.251 253.486C108.934 253.838 109.472 254.35 109.867 255.022C110.262 255.683 110.459 256.478 110.459 257.406C110.459 257.502 110.454 257.614 110.443 257.742C110.432 257.859 110.422 257.971 110.411 258.078H103.419V256.622H109.099L108.139 257.054C108.139 256.606 108.048 256.216 107.867 255.886C107.686 255.555 107.435 255.299 107.115 255.118C106.795 254.926 106.422 254.83 105.995 254.83C105.568 254.83 105.19 254.926 104.859 255.118C104.539 255.299 104.288 255.56 104.107 255.902C103.926 256.232 103.835 256.627 103.835 257.086V257.47C103.835 257.939 103.936 258.355 104.139 258.718C104.352 259.07 104.646 259.342 105.019 259.534C105.403 259.715 105.851 259.806 106.363 259.806C106.822 259.806 107.222 259.736 107.563 259.598C107.915 259.459 108.235 259.251 108.523 258.974L109.851 260.414C109.456 260.862 108.96 261.208 108.363 261.454C107.766 261.688 107.078 261.806 106.299 261.806ZM117.353 252.942C118.035 252.942 118.643 253.08 119.177 253.358C119.721 253.624 120.147 254.04 120.457 254.606C120.766 255.16 120.921 255.875 120.921 256.75V261.678H118.425V257.134C118.425 256.44 118.27 255.928 117.961 255.598C117.662 255.267 117.235 255.102 116.681 255.102C116.286 255.102 115.929 255.187 115.609 255.358C115.299 255.518 115.054 255.768 114.873 256.11C114.702 256.451 114.617 256.888 114.617 257.422V261.678H112.121V253.07H114.505V255.454L114.057 254.734C114.366 254.158 114.809 253.715 115.385 253.406C115.961 253.096 116.617 252.942 117.353 252.942ZM126.703 261.806C125.69 261.806 124.901 261.55 124.335 261.038C123.77 260.515 123.487 259.742 123.487 258.718V251.166H125.983V258.686C125.983 259.048 126.079 259.331 126.271 259.534C126.463 259.726 126.725 259.822 127.055 259.822C127.45 259.822 127.786 259.715 128.063 259.502L128.735 261.262C128.479 261.443 128.17 261.582 127.807 261.678C127.455 261.763 127.087 261.806 126.703 261.806ZM122.159 255.182V253.262H128.127V255.182H122.159ZM130.136 261.678V253.07H132.632V261.678H130.136ZM131.384 251.87C130.926 251.87 130.552 251.736 130.264 251.47C129.976 251.203 129.832 250.872 129.832 250.478C129.832 250.083 129.976 249.752 130.264 249.486C130.552 249.219 130.926 249.086 131.384 249.086C131.843 249.086 132.216 249.214 132.504 249.47C132.792 249.715 132.936 250.035 132.936 250.43C132.936 250.846 132.792 251.192 132.504 251.47C132.227 251.736 131.854 251.87 131.384 251.87ZM137.845 261.806C137.109 261.806 136.4 261.72 135.717 261.55C135.045 261.368 134.512 261.144 134.117 260.878L134.949 259.086C135.344 259.331 135.808 259.534 136.341 259.694C136.885 259.843 137.418 259.918 137.941 259.918C138.517 259.918 138.922 259.848 139.157 259.71C139.402 259.571 139.525 259.379 139.525 259.134C139.525 258.931 139.429 258.782 139.237 258.686C139.056 258.579 138.81 258.499 138.501 258.446C138.192 258.392 137.85 258.339 137.477 258.286C137.114 258.232 136.746 258.163 136.373 258.078C136 257.982 135.658 257.843 135.349 257.662C135.04 257.48 134.789 257.235 134.597 256.926C134.416 256.616 134.325 256.216 134.325 255.726C134.325 255.182 134.48 254.702 134.789 254.286C135.109 253.87 135.568 253.544 136.165 253.31C136.762 253.064 137.477 252.942 138.309 252.942C138.896 252.942 139.493 253.006 140.101 253.134C140.709 253.262 141.216 253.448 141.621 253.694L140.789 255.47C140.373 255.224 139.952 255.059 139.525 254.974C139.109 254.878 138.704 254.83 138.309 254.83C137.754 254.83 137.349 254.904 137.093 255.054C136.837 255.203 136.709 255.395 136.709 255.63C136.709 255.843 136.8 256.003 136.981 256.11C137.173 256.216 137.424 256.302 137.733 256.366C138.042 256.43 138.378 256.488 138.741 256.542C139.114 256.584 139.488 256.654 139.861 256.75C140.234 256.846 140.57 256.984 140.869 257.166C141.178 257.336 141.429 257.576 141.621 257.886C141.813 258.184 141.909 258.579 141.909 259.07C141.909 259.603 141.749 260.078 141.429 260.494C141.109 260.899 140.645 261.219 140.037 261.454C139.44 261.688 138.709 261.806 137.845 261.806ZM146.969 261.806C145.956 261.806 145.166 261.55 144.601 261.038C144.036 260.515 143.753 259.742 143.753 258.718V251.166H146.249V258.686C146.249 259.048 146.345 259.331 146.537 259.534C146.729 259.726 146.99 259.822 147.321 259.822C147.716 259.822 148.052 259.715 148.329 259.502L149.001 261.262C148.745 261.443 148.436 261.582 148.073 261.678C147.721 261.763 147.353 261.806 146.969 261.806ZM142.425 255.182V253.262H148.393V255.182H142.425Z" fill="white"/>
<defs>
<filter id="filter0_f_1644_16384" x="62.7598" y="125.262" width="54.785" height="80.6698" filterUnits="userSpaceOnUse" color-interpolation-filters="sRGB">
<feFlood flood-opacity="0" result="BackgroundImageFix"/>
<feBlend mode="normal" in="SourceGraphic" in2="BackgroundImageFix" result="shape"/>
<feGaussianBlur stdDeviation="2.20993" result="effect1_foregroundBlur_1644_16384"/>
</filter>
<filter id="filter1_f_1644_16384" x="97.4581" y="161.911" width="3.91981" height="2.21864" filterUnits="userSpaceOnUse" color-interpolation-filters="sRGB">
<feFlood flood-opacity="0" result="BackgroundImageFix"/>
<feBlend mode="normal" in="SourceGraphic" in2="BackgroundImageFix" result="shape"/>
<feGaussianBlur stdDeviation="0.0639366" result="effect1_foregroundBlur_1644_16384"/>
</filter>
<filter id="filter2_f_1644_16384" x="76.466" y="162.527" width="4.09926" height="2.06215" filterUnits="userSpaceOnUse" color-interpolation-filters="sRGB">
<feFlood flood-opacity="0" result="BackgroundImageFix"/>
<feBlend mode="normal" in="SourceGraphic" in2="BackgroundImageFix" result="shape"/>
<feGaussianBlur stdDeviation="0.0677831" result="effect1_foregroundBlur_1644_16384"/>
</filter>
<filter id="filter3_f_1644_16384" x="84.1715" y="186.902" width="9.14921" height="9.15117" filterUnits="userSpaceOnUse" color-interpolation-filters="sRGB">
<feFlood flood-opacity="0" result="BackgroundImageFix"/>
<feBlend mode="normal" in="SourceGraphic" in2="BackgroundImageFix" result="shape"/>
<feGaussianBlur stdDeviation="1.35566" result="effect1_foregroundBlur_1644_16384"/>
</filter>
<filter id="filter4_f_1644_16384" x="71.6678" y="163.203" width="15.6254" height="14.4789" filterUnits="userSpaceOnUse" color-interpolation-filters="sRGB">
<feFlood flood-opacity="0" result="BackgroundImageFix"/>
<feBlend mode="normal" in="SourceGraphic" in2="BackgroundImageFix" result="shape"/>
<feGaussianBlur stdDeviation="0.677831" result="effect1_foregroundBlur_1644_16384"/>
</filter>
<filter id="filter5_f_1644_16384" x="76.1826" y="135.329" width="23.2832" height="28.1426" filterUnits="userSpaceOnUse" color-interpolation-filters="sRGB">
<feFlood flood-opacity="0" result="BackgroundImageFix"/>
<feBlend mode="normal" in="SourceGraphic" in2="BackgroundImageFix" result="shape"/>
<feGaussianBlur stdDeviation="3.38916" result="effect1_foregroundBlur_1644_16384"/>
</filter>
<filter id="filter6_f_1644_16384" x="90.2574" y="161.482" width="19.0945" height="11.1844" filterUnits="userSpaceOnUse" color-interpolation-filters="sRGB">
<feFlood flood-opacity="0" result="BackgroundImageFix"/>
<feBlend mode="normal" in="SourceGraphic" in2="BackgroundImageFix" result="shape"/>
<feGaussianBlur stdDeviation="1.35566" result="effect1_foregroundBlur_1644_16384"/>
</filter>
<linearGradient id="paint0_linear_1644_16384" x1="90.0353" y1="190.063" x2="90.6983" y2="211.72" gradientUnits="userSpaceOnUse">
<stop stop-color="#F5AC84"/>
<stop offset="1" stop-color="#FFD6C0"/>
</linearGradient>
<linearGradient id="paint1_linear_1644_16384" x1="90.0353" y1="190.061" x2="90.6983" y2="211.718" gradientUnits="userSpaceOnUse">
<stop stop-color="#F5AC84"/>
<stop offset="1" stop-color="#FFD6C0"/>
</linearGradient>
<linearGradient id="paint2_linear_1644_16384" x1="101.217" y1="154.744" x2="101.217" y2="158.925" gradientUnits="userSpaceOnUse">
<stop stop-color="#2E1833"/>
<stop offset="1" stop-color="#2E1833" stop-opacity="0"/>
</linearGradient>
<linearGradient id="paint3_linear_1644_16384" x1="76.2261" y1="155.432" x2="76.2261" y2="158.731" gradientUnits="userSpaceOnUse">
<stop stop-color="#2E1833"/>
<stop offset="1" stop-color="#2E1833" stop-opacity="0"/>
</linearGradient>
<radialGradient id="paint4_radial_1644_16384" cx="0" cy="0" r="1" gradientUnits="userSpaceOnUse" gradientTransform="translate(110.64 175.914) rotate(149.036) scale(1.69307 1.69306)">
<stop stop-color="white"/>
<stop offset="0.770833" stop-color="#DBDBDB"/>
<stop offset="1" stop-color="white"/>
</radialGradient>
<radialGradient id="paint5_radial_1644_16384" cx="0" cy="0" r="1" gradientUnits="userSpaceOnUse" gradientTransform="translate(70.4998 175.914) rotate(149.036) scale(1.69307 1.69306)">
<stop stop-color="white"/>
<stop offset="0.770833" stop-color="#DBDBDB"/>
<stop offset="1" stop-color="white"/>
</radialGradient>
<linearGradient id="paint6_linear_1644_16384" x1="88.8848" y1="179.283" x2="88.8848" y2="185.587" gradientUnits="userSpaceOnUse">
<stop stop-color="#F25050"/>
<stop offset="0.40625" stop-color="#FF5959"/>
<stop offset="0.692708" stop-color="#FF9898"/>
<stop offset="1" stop-color="#FF5C5C"/>
</linearGradient>
</defs>
</svg>
