<svg width="182" height="238" viewBox="0 0 182 238" fill="none" xmlns="http://www.w3.org/2000/svg">
<rect width="182" height="238" fill="#E6E9FE"/>
<path d="M52.2195 54.8145H69.0293V50.3027H57.6772V28.4718H52.2195V54.8145ZM78.0163 28.4718H72.5586V54.8145H78.0163V28.4718ZM82.4553 54.8145H87.913V47.2828L90.6782 43.9354L97.9916 54.8145H104.541L94.6078 40.2605L104.432 28.4718H97.846L88.2768 40.1514H87.913V28.4718H82.4553V54.8145ZM111.563 54.8145L113.546 48.7382H123.079L125.062 54.8145H130.92L121.824 28.4718H114.801L105.669 54.8145H111.563ZM114.929 44.4812L118.222 34.4026H118.403L121.696 44.4812H114.929Z" fill="#464555"/>
<path d="M66.3999 146.253C66.3999 146.253 54.0039 131.865 62.3669 95.7628C76.3608 88.1585 115.413 88.6286 116.571 95.762C119.979 116.75 122.645 126.854 120.585 135.607C119.816 138.877 116.571 144.462 116.571 144.462C116.571 144.462 93.1063 143.038 84.4206 145.347C75.603 147.691 66.3999 146.253 66.3999 146.253Z" fill="#2E1833"/>
<path d="M76.5293 125.644C85.0443 122.907 105.594 119.649 104.864 124.759C104.483 127.421 102.617 137.865 104.864 147.116C106.928 155.619 114.601 162.833 125.891 165.932C120.52 168.764 103.768 187.021 88.7047 186.076C69.6258 184.878 52.3189 163.94 53.9506 163.94C55.5657 163.94 75.1054 160.663 77.4131 150.658C79.2776 142.574 77.0451 132.835 76.5293 125.644Z" fill="url(#paint0_linear_1504_16155)"/>
<mask id="mask0_1504_16155" style="mask-type:alpha" maskUnits="userSpaceOnUse" x="53" y="122" width="73" height="65">
<path d="M76.5371 125.644C85.0522 122.907 105.601 119.649 104.871 124.759C104.491 127.421 102.625 137.865 104.871 147.116C106.936 155.619 114.609 162.833 125.899 165.932C120.527 168.764 103.776 187.021 88.7126 186.076C69.6336 184.878 52.3267 163.94 53.9584 163.94C55.5735 163.94 75.1132 160.663 77.4209 150.658C79.2855 142.574 77.0529 132.835 76.5371 125.644Z" fill="url(#paint1_linear_1504_16155)"/>
</mask>
<g mask="url(#mask0_1504_16155)">
<path d="M112.026 113.467C112.026 120.548 107.296 129.798 101.493 136.771C97.6276 141.416 92.2558 144.214 89.5476 144.214C86.8394 144.214 81.6545 141.435 77.8673 136.771C71.9927 129.536 67.1797 119.717 67.1797 112.19C67.1797 94.0424 75.7649 79.8242 89.5476 79.8242C103.33 79.8242 112.026 95.3192 112.026 113.467Z" fill="#E29C76"/>
</g>
<path d="M134.779 165.601C123.101 159.083 117.602 160.142 110.62 156.816C109.934 158.312 106.122 146.819 105.307 148.004C102.964 151.411 102.251 155.702 90.9185 156.194C82.1098 156.577 80.6395 151.752 77.8581 148.668C77.4154 145.347 71.7193 156.111 70.311 156.816C39.7917 160.007 36.9064 171.447 36.9062 190.186H145.031C145.031 182.243 146.457 172.119 134.779 165.601Z" fill="black"/>
<ellipse rx="4.89867" ry="10.6077" transform="matrix(-0.847284 0.53114 0.269248 0.963071 67.3462 115.212)" fill="#FFC5A6"/>
<path d="M95.3019 85.6462C94.3785 83.908 96.7503 79.0376 98.0517 76.8197C107.591 67.9932 114.653 96.306 117.98 100.651C121.306 104.997 117.164 106.456 115.569 106.049C114.824 105.859 114.57 108.922 113.94 112.024C113.221 115.566 110.646 120.986 110.646 120.986C110.646 120.986 111.936 107.475 110.646 102.858C109.356 98.2409 96.4561 87.8188 95.3019 85.6462Z" fill="#2E1833"/>
<path d="M110.798 93.0899C108.757 90.6279 102.874 88.2043 101.082 87.4579C99.289 86.7115 96.7885 84.8711 94.8985 85.6288L91.7988 78.1957C102.716 61.9784 117.924 90.916 119.468 99.3044C123.14 119.254 122.081 124.539 118.803 135.828C115.526 147.118 114.196 147.118 106.853 148.003C110.584 144.904 113.754 142.186 115.041 137.599C116.649 131.865 117.731 119.998 115.041 117.013C112.351 114.027 116.078 99.4578 110.798 93.0899Z" fill="#694D97"/>
<path d="M116.151 116.792C115.669 118.304 114.618 120.29 113.938 121.219C112.087 123.748 110.552 124.696 108.847 123.876C106.514 122.754 106.303 119.578 108.097 113.955C109.89 108.332 113.234 104.683 115.567 105.804C117.899 106.926 117.945 111.169 116.151 116.792Z" fill="#FFC5A6"/>
<path d="M111.954 120.332C113.789 119.646 114.844 117.186 115.649 115.448C116.023 114.639 117.756 110.741 117.265 109.042C116.912 107.822 115.649 107.05 113.594 108.742C112.929 109.142 111.774 112.775 111.732 115.019C111.691 117.264 109.141 121.798 109.739 121.439C111.001 120.68 110.118 121.017 111.954 120.332Z" fill="#F8B38D"/>
<path d="M63.7426 115.281C63.2045 113.881 63.1621 107.986 64.9765 108.658C65.4869 109.073 67.3253 115.627 67.4534 117.862C67.5815 120.097 69.0039 122.362 68.5446 121.989C67.5749 121.202 68.6818 122.892 67.2898 122.163C65.8978 121.434 64.4153 117.031 63.7426 115.281Z" fill="#EFA882"/>
<path d="M112.018 112.023C112.018 119.104 107.289 128.354 101.486 135.327C97.6198 139.972 92.248 142.771 89.5398 142.771C86.8316 142.771 81.6467 139.991 77.8595 135.327C71.9848 128.092 67.1719 118.274 67.1719 110.747C67.1719 92.5991 75.7571 78.3809 89.5398 78.3809C103.322 78.3809 112.018 93.8758 112.018 112.023Z" fill="#FFD6C0"/>
<mask id="mask1_1504_16155" style="mask-type:alpha" maskUnits="userSpaceOnUse" x="67" y="78" width="46" height="65">
<path d="M112.018 112.02C112.018 119.1 107.289 128.35 101.486 135.323C97.6198 139.968 92.248 142.767 89.5398 142.767C86.8316 142.767 81.6467 139.987 77.8595 135.323C71.9848 128.088 67.1719 118.27 67.1719 110.743C67.1719 92.5952 75.7571 78.377 89.5398 78.377C103.322 78.377 112.018 93.8719 112.018 112.02Z" fill="#FFD6C0"/>
</mask>
<g mask="url(#mask1_1504_16155)">
<g filter="url(#filter0_f_1504_16155)">
<path d="M86.8224 144.483C84.2424 144.754 79.0158 134.084 74.6351 128.425C66.4877 117.901 74.7708 94.3752 86.8224 88.5701C94.349 84.9447 98.0934 88.0949 100.402 90.5391C102.158 89.5861 100.56 84.5705 100.402 83.5119C99.702 83.7013 95.508 77.7207 88.1805 78.0123C79.7506 78.3477 68.063 84.9922 67.54 85.8204C66.3179 87.7554 68.117 131.209 70.0181 136.267C71.9192 141.325 84.8874 149.235 91.4394 149.914C97.9914 150.593 105.935 142.14 109.194 139.017C111.801 136.518 112.929 117.222 113.166 107.887L110.688 99.2638C110.507 104.186 107.218 114.907 105.698 123.299C103.797 133.789 95.0039 143.226 92.2541 144.483C89.5043 145.739 89.4025 144.211 86.8224 144.483Z" fill="#FFC4B1"/>
</g>
</g>
<path d="M69.8978 122.777C68.3414 119.519 68.6853 113.386 69.0518 110.727C67.8886 110.641 65.6192 111.039 65.8478 113.315C66.1336 116.159 71.8433 126.85 69.8978 122.777Z" fill="#2E1833"/>
<path d="M85.6839 108.952C85.5284 107.518 83.2435 105.202 82.1204 104.223C81.4581 104.698 80.289 105.67 80.911 105.756C81.533 105.842 84.3521 109.651 85.6839 111.544C85.7487 111.278 85.8394 110.386 85.6839 108.952Z" fill="#FFC5A6"/>
<path d="M91.6016 134.878C90.385 134.103 86.1762 134.613 84.71 134.878C84.667 135.692 83.5874 137.495 84.167 137.254C85.7965 136.575 89.9721 135.76 92.7381 136.974C92.5707 136.757 92.8182 135.652 91.6016 134.878Z" fill="#FFC5A6"/>
<path d="M90.7607 109.096C90.8634 107.276 93.0701 105.118 94.1607 104.266L94.8878 105.916C94.7524 105.983 94.1095 106.648 92.6212 108.774C90.7608 111.43 93.113 119.119 93.562 120.488C94.0111 121.856 92.1849 122.245 91.5862 123.211C90.9874 124.177 89.5211 125.244 88.7085 125.425C88.0584 125.57 85.3932 123.842 84.2812 122.768C84.7517 122.393 85.2695 121.615 85.9709 121.534C86.8476 121.434 88.7935 122.541 89.5847 122.38C90.3759 122.219 90.5041 120.307 90.7607 119.119C91.0173 117.932 90.6324 111.37 90.7607 109.096Z" fill="#FFC5A6"/>
<path d="M86.2344 122.549C86.4163 122.767 87.5516 123.745 87.9155 123.745C88.3603 123.745 88.7695 123.618 89.1536 123.432C89.3575 123.332 89.8466 122.674 90.0786 122.549C90.3252 122.416 90.2605 122.4 90.6042 122.418C90.8791 122.433 91.1231 122.512 91.2107 122.549" stroke="#A0464E" stroke-width="0.143432"/>
<path d="M85.5101 122.591C85.4895 122.601 85.4704 122.61 85.4531 122.618C85.4704 122.603 85.4895 122.594 85.5101 122.591C85.6939 122.498 85.9972 122.319 86.2002 122.482C86.426 122.663 86.6983 122.944 86.7813 123.08C86.7758 123.118 86.7049 123.342 86.4659 123.251C86.1909 123.147 85.7474 122.545 85.5101 122.591Z" fill="#532929"/>
<path d="M90.1484 122.536C90.4495 122.319 90.9822 122.445 91.2109 122.536C90.9385 122.468 90.9283 122.932 90.5298 123.067C90.2111 123.175 89.4474 123.347 89.44 123.301C89.5507 123.139 89.8474 122.752 90.1484 122.536Z" fill="#532929"/>
<path d="M93.0391 107.296V105.49C93.7031 104.584 96.36 103.728 99.7279 103.195C103.096 102.661 106.943 104.683 109.036 106.255L109.045 106.267C109.416 106.773 109.67 107.12 109.036 106.768C100.315 101.928 94.1166 105.45 93.0391 107.296Z" fill="url(#paint2_linear_1504_16155)"/>
<path d="M83.6016 106.474V105.503C82.8547 103.661 79.6185 103.797 76.5064 103.797C73.2474 103.797 71.0638 104.926 69.1581 106.474C68.8157 106.979 68.5496 107.28 69.1581 106.979C76.744 103.228 82.6202 104.656 83.6016 106.474Z" fill="url(#paint3_linear_1504_16155)"/>
<ellipse cx="109.914" cy="124.586" rx="0.904037" ry="0.904034" transform="rotate(1.80596 109.914 124.586)" fill="url(#paint4_radial_1504_16155)"/>
<ellipse cx="69.7188" cy="124.586" rx="0.904037" ry="0.904034" transform="rotate(1.80596 69.7188 124.586)" fill="url(#paint5_radial_1504_16155)"/>
<path d="M97.8721 109.095C96.534 109.245 94.5416 111.138 93.6676 112.043C93.3879 112.324 93.8366 112.661 94.0156 112.635C95.5098 112.413 99.5763 114.627 102.935 112.324C103.704 111.778 105.15 110.686 104.789 110.686C104.427 110.686 101.624 109.439 100.268 108.815C99.9515 108.768 99.0293 108.759 97.8721 109.095Z" fill="#F29FA6"/>
<path d="M99.995 114.629L99.8594 113.366C99.9679 113.291 99.995 113.334 99.995 113.366V114.629Z" fill="black"/>
<path d="M102.066 113.928L101.016 113.269C101.025 113.135 101.075 113.139 101.099 113.158L102.066 113.928Z" fill="black"/>
<path d="M103.41 113.424L102.36 112.765C102.369 112.631 102.419 112.635 102.442 112.654L103.41 113.424Z" fill="black"/>
<path d="M103.957 113.048L102.907 112.388C102.915 112.254 102.965 112.258 102.989 112.277L103.957 113.048Z" fill="black"/>
<path d="M104.504 112.669L103.454 112.01C103.462 111.875 103.512 111.879 103.536 111.898L104.504 112.669Z" fill="black"/>
<path d="M97.6755 114.683L98.2737 113.573C98.404 113.577 98.4016 113.629 98.3841 113.654L97.6755 114.683Z" fill="black"/>
<path d="M94.9281 108.721C94.9643 109.02 95.7267 109.345 96.1034 109.469L95.9678 109.516C95.787 109.516 94.8364 109.142 94.9281 108.721Z" fill="black"/>
<path d="M104.149 108.346C104.116 108.663 103.59 109.24 103.244 109.372L103.368 109.422C103.534 109.422 104.233 108.792 104.149 108.346Z" fill="black"/>
<path d="M95.5187 112.413C95.091 112.413 94.8577 112.491 94.2399 112.413C94.0281 111.749 94.6305 111.199 94.8113 110.825C94.9921 110.451 95.8058 109.936 96.2579 109.562C96.7099 109.188 99.151 108.72 99.7387 108.673C100.209 108.636 103.083 109.51 104.078 109.978C104.575 110.445 104.419 111.158 102.43 112.281C99.9441 113.684 96.1604 112.413 95.5187 112.413Z" fill="#D9D9D9" stroke="black" stroke-width="0.142721"/>
<path d="M101.635 110.787C101.498 112.022 100.433 112.861 99.1726 112.861C97.9123 112.861 96.9345 112.022 96.7515 110.787C96.5684 109.551 96.6156 109.242 99.1726 108.58C102.23 108.977 101.771 109.551 101.635 110.787Z" fill="#412856"/>
<ellipse cx="99.1677" cy="110.125" rx="0.730221" ry="0.750214" fill="black"/>
<path d="M99.0847 109.2L99.0391 109.068L99.4498 109.023L99.4042 109.2H99.0847Z" fill="#D9D9D9"/>
<path d="M99.1616 109.462L99.0703 109.285H99.3898L99.3441 109.462H99.1616Z" fill="#D9D9D9"/>
<path d="M99.7188 109.552L99.9013 109.243C100.084 109.208 100.282 109.375 100.358 109.464L99.9013 109.684L99.7188 109.552Z" fill="#D9D9D9"/>
<ellipse cx="99.3947" cy="109.773" rx="0.136916" ry="0.132391" fill="#D9D9D9"/>
<g filter="url(#filter1_f_1504_16155)">
<path d="M99.729 111.832C99.035 112.193 98.1276 111.509 97.5938 111.251C97.9274 112.09 99.1949 112.599 99.9292 112.283C101.13 111.767 101.13 110.971 101.264 110.412C101.152 110.649 100.423 111.47 99.729 111.832Z" fill="#8E96CC" fill-opacity="0.5"/>
</g>
<path d="M95.8853 109.516L93.625 112.042C94.4387 111.387 96.1384 110.021 96.4277 109.796C96.7894 109.516 98.5524 109.001 99.3661 109.001C100.18 109.001 104.203 110.451 104.7 110.685C105.198 110.919 106.961 110.405 106.463 110.451C105.966 110.498 103.661 109.469 103.209 109.282C102.757 109.095 100.089 108.533 99.3661 108.533C98.7875 108.533 96.6236 109.204 95.8853 109.516Z" fill="black"/>
<path d="M97.8728 109L97.6016 107.223L98.0536 108.907L97.8728 109Z" fill="black"/>
<path d="M98.9232 108.739L99.1797 106.959L99.1228 108.706L98.9232 108.739Z" fill="black"/>
<path d="M99.7982 108.677L100.055 106.896L99.9978 108.644L99.7982 108.677Z" fill="black"/>
<path d="M100.78 108.839L101.828 107.402L100.971 108.909L100.78 108.839Z" fill="black"/>
<path d="M102.179 109.269L103.227 107.832L102.369 109.338L102.179 109.269Z" fill="black"/>
<path d="M93.625 111.31C94.4778 110.257 96.5917 108.322 98.2501 108.322C100.317 108.322 101.858 108.288 105.204 109.544" stroke="black" stroke-width="0.0678962"/>
<path d="M79.1261 109.528C80.3531 109.606 82.268 111.337 83.1118 112.168C83.3815 112.426 82.8454 112.591 82.6806 112.6C82.5488 112.607 77.2938 112.802 74.6828 112.899C73.9539 112.409 72.5786 111.426 72.9081 111.408C73.2376 111.39 75.7256 110.045 76.9284 109.375C77.2143 109.314 78.054 109.26 79.1261 109.528Z" fill="#F29FA6"/>
<path d="M77.5856 115.129L77.6428 113.901C77.54 113.834 77.5176 113.878 77.5192 113.908L77.5856 115.129Z" fill="black"/>
<path d="M75.7223 114.594L76.6444 113.905C76.6292 113.775 76.5839 113.782 76.5632 113.801L75.7223 114.594Z" fill="black"/>
<path d="M73.816 114.156L74.7381 113.467C74.723 113.338 74.6777 113.344 74.6569 113.364L73.816 114.156Z" fill="black"/>
<path d="M73.3707 113.723L74.2928 113.034C74.2777 112.904 74.2324 112.911 74.2116 112.93L73.3707 113.723Z" fill="black"/>
<path d="M72.8473 113.207L73.7694 112.518C73.7542 112.388 73.7089 112.395 73.6882 112.415L72.8473 113.207Z" fill="black"/>
<path d="M79.6732 114.536L79.0698 113.492C78.9512 113.503 78.9562 113.553 78.9735 113.577L79.6732 114.536Z" fill="black"/>
<path d="M81.7756 109.022C81.7584 109.313 81.0807 109.664 80.7441 109.804L80.8701 109.842C81.0348 109.833 81.8813 109.424 81.7756 109.022Z" fill="black"/>
<path d="M73.3501 109.115C73.3971 109.42 73.9071 109.952 74.2292 110.062L74.1183 110.116C73.9671 110.124 73.2969 109.55 73.3501 109.115Z" fill="black"/>
<path d="M80.284 112.786C80.5122 112.706 81.6932 112.485 82.2552 112.385C82.7984 111.684 82.1915 111.213 82.0077 110.887C81.8238 110.561 81.0536 110.141 80.6214 109.829C80.1892 109.516 77.9309 109.219 77.3904 109.207C76.958 109.197 75.0739 110.13 74.1859 110.599C73.7533 111.042 73.3571 112.155 75.2333 113.061C77.5786 114.193 79.9988 112.885 80.284 112.786Z" fill="#D9D9D9" stroke="black" stroke-width="0.143617"/>
<path d="M76.018 111.381C76.2068 112.577 77.4871 113.326 78.6245 113.264C79.7618 113.202 80.5999 112.338 80.6997 111.127C80.7995 109.915 80.7406 109.617 78.3979 109.099C75.6593 109.635 75.8293 110.186 76.018 111.381Z" fill="#412856"/>
<g filter="url(#filter2_f_1504_16155)">
<path d="M78.6546 112.31C77.9062 112.603 77.0595 111.827 76.545 111.516C76.7893 112.389 78.0229 113.025 78.8071 112.782C80.0898 112.384 80.1806 111.587 80.3804 111.04C80.2401 111.266 79.4029 112.017 78.6546 112.31Z" fill="#8E96CC" fill-opacity="0.5"/>
</g>
<ellipse rx="0.659976" ry="0.731076" transform="matrix(-0.998524 0.0543132 0.0543132 0.998524 78.4901 110.6)" fill="black"/>
<path d="M78.9838 109.819L79.018 109.687L78.6449 109.665L78.6955 109.834L78.9838 109.819Z" fill="#D9D9D9"/>
<path d="M78.9113 110.082L78.9844 109.906L78.6961 109.922L78.7466 110.091L78.9113 110.082Z" fill="#D9D9D9"/>
<path d="M78.5557 109.913L78.3746 109.621C78.2079 109.596 78.0383 109.769 77.9744 109.858L78.3979 110.05L78.5557 109.913Z" fill="#D9D9D9"/>
<ellipse rx="0.123745" ry="0.129013" transform="matrix(-0.998524 0.0543132 0.0543132 0.998524 78.2663 110.268)" fill="#D9D9D9"/>
<path d="M80.9532 109.837L83.1454 112.167C82.3696 111.574 80.7491 110.338 80.4737 110.135C80.1295 109.882 78.4961 109.472 77.7547 109.512C77.0133 109.552 73.4239 111.154 72.9831 111.404C72.5424 111.655 70.909 111.245 71.3645 111.266C71.82 111.286 73.8665 110.177 74.2685 109.974C74.6706 109.771 77.0711 109.096 77.7301 109.06C78.2573 109.031 80.2641 109.572 80.9532 109.837Z" fill="black"/>
<path d="M79.112 109.439L79.2656 107.707L78.9423 109.357L79.112 109.439Z" fill="black"/>
<path d="M78.1476 109.239L77.8203 107.531L77.964 109.217L78.1476 109.239Z" fill="black"/>
<path d="M77.3429 109.222L77.0156 107.514L77.1593 109.2L77.3429 109.222Z" fill="black"/>
<path d="M76.4442 109.426L75.4141 108.09L76.2742 109.503L76.4442 109.426Z" fill="black"/>
<path d="M75.2176 109.911L74.1875 108.574L75.0476 109.988L75.2176 109.911Z" fill="black"/>
<path d="M82.5872 110.953C82.038 110.329 81.6183 109.408 80.3408 108.992C78.3241 108.335 75.0258 108.591 72.2221 110.624" stroke="black" stroke-width="0.0633863"/>
<path d="M87.4318 127.698C87.1151 127.52 84.711 129.679 82.0547 130.564C83.4866 131.321 85.0848 133.511 85.6504 133.688C86.3573 133.91 88.7609 134.076 90.8251 133.966C92.4765 133.877 93.5655 131.45 95.5474 130.748C95.6039 130.545 95.6039 130.138 95.1515 130.138C94.699 130.138 91.8902 128.511 90.5423 127.698C90.0616 127.846 89.0323 128.142 88.7609 128.142C88.4215 128.142 87.8277 127.92 87.4318 127.698Z" fill="url(#paint6_linear_1504_16155)"/>
<path d="M87.588 130.045C87.3745 129.989 86.1748 130.068 85.6016 130.115C86.5503 130.068 88.2106 130.583 88.5071 130.583C88.7442 130.583 88.8826 130.646 88.9221 130.677C88.9715 130.646 89.1356 130.583 89.3965 130.583C89.6574 130.583 90.7899 130.224 91.3236 130.045C91.1457 130.029 90.7603 129.998 90.6417 129.998C90.4935 129.998 89.3965 130.115 89.1593 130.209C88.9221 130.302 87.8548 130.115 87.588 130.045Z" fill="white"/>
<path d="M94.4897 130.281C94.3528 130.324 93.6531 130.422 93.3203 130.466C93.634 130.572 94.2045 130.466 94.6038 130.466C95.0031 130.466 95.0601 130.571 95.1457 130.598C95.2312 130.624 95.3453 130.598 95.3453 130.466C95.3453 130.334 94.6608 130.229 94.4897 130.281Z" fill="black"/>
<path d="M85.5703 130.114C85.9083 130.105 86.652 130.067 86.9225 129.984C87.2605 129.88 88.0774 130.01 88.4718 130.114C88.8662 130.218 89.7394 129.984 90.0493 129.984C90.3592 129.984 90.5845 129.854 91.1198 129.984C91.4042 130.053 91.5966 130.087 91.7103 130.103C91.7514 130.107 91.7895 130.11 91.824 130.114C91.8051 130.114 91.7677 130.111 91.7103 130.103C91.3261 130.067 90.6911 130.017 90.5282 130.036C90.3028 130.062 89.2324 130.374 88.9789 130.4C88.7253 130.426 87.6549 130.062 87.4013 130.062C87.1478 130.062 85.9365 130.244 85.5703 130.114Z" fill="black"/>
<path d="M82.0547 130.565L82.7188 130.344C82.7188 130.362 82.8274 130.34 82.9419 130.407C83.085 130.491 83.8291 130.519 83.6288 130.519C83.4685 130.519 82.9324 130.668 82.6843 130.743L82.0547 130.565Z" fill="black"/>
<ellipse cx="90.9633" cy="131.388" rx="0.268015" ry="0.305532" fill="white" fill-opacity="0.5"/>
<ellipse cx="91.6118" cy="131.388" rx="0.268015" ry="0.305532" fill="white"/>
<path d="M73.0286 92.0943C75.6564 89.6308 83.2298 87.2058 85.5376 86.4589C87.8453 85.712 92.4741 84.7842 94.9073 85.5424L97.488 77.1911C83.4335 60.964 64.8618 89.3031 61.7011 97.3111C58.381 105.723 58.5322 131.918 60.819 138.041C63.1058 144.165 67.268 147.856 73.0286 149.11C70.0842 145.864 67.1236 145.731 65.4669 141.141C63.3961 135.404 62.8262 118.981 66.2889 115.994C69.7516 113.006 66.2319 98.4661 73.0286 92.0943Z" fill="#513384"/>
<path d="M81.3243 91.2113C82.784 87.9183 84.6515 87.2054 86.2807 84.9988C87.9099 82.7921 92.8781 83.324 95.3112 84.0822L97.5858 77.3267C83.5313 61.0995 64.2723 84.8953 62.1392 94.8758C60.3398 103.295 62.1381 126.973 64.1315 133.393C66.1248 139.812 69.6684 142.69 76.3083 143.797C73.652 142.469 70.2173 136.212 68.5607 131.622C66.4898 125.885 68.197 111.145 71.6597 108.158C75.1224 105.17 77.1536 100.619 81.3243 91.2113Z" fill="#694D97"/>
<path d="M100.438 103.287C93.3586 95.2565 89.8519 81.6237 96.2334 77.4372C110.325 73.6742 113.115 94.593 114.608 101.96C115.803 107.853 112.617 103.057 111.066 111.035C110.713 112.853 110.517 115.662 109.245 121.158C109.241 121.2 109.236 121.218 109.231 121.218C109.18 121.436 109.128 121.657 109.074 121.882C109.074 120.135 109.184 121.223 109.231 121.218C109.235 121.198 109.24 121.178 109.245 121.158C109.266 120.895 109.236 119.681 109.074 115.684C108.527 102.195 105.293 108.795 100.438 103.287Z" fill="#694D97"/>
<path d="M79.6199 97.358C79.6727 91.5882 82.9389 86.931 84.2772 84.867L85.833 85.5297C81.8485 88.8501 80.9631 89.9569 80.3126 97.2757C80.0527 100.2 84.9467 105.502 73.4362 109.486C82.7331 104.616 79.5765 102.091 79.6199 97.358Z" fill="#694D97"/>
<ellipse cx="89.2196" cy="121.432" rx="0.305533" ry="0.305532" fill="white"/>
<g filter="url(#filter3_f_1504_16155)">
<ellipse cx="88.7421" cy="139.9" rx="1.86715" ry="1.86714" fill="white" fill-opacity="0.6"/>
</g>
<g filter="url(#filter4_f_1504_16155)">
<path d="M85.9264 113.215C85.9264 114.246 81.6278 124.724 80.5966 124.724C79.5654 124.724 72.9922 116.623 72.9922 115.592C72.9922 114.561 78.9543 114.336 79.9855 114.336C81.0167 114.336 85.9264 112.184 85.9264 113.215Z" fill="white" fill-opacity="0.2"/>
</g>
<g filter="url(#filter5_f_1504_16155)">
<path d="M92.6852 92.7737C92.6852 93.8053 88.0559 105.057 87.2794 105.057C86.5029 105.057 82.9453 96.1826 82.9453 95.1511C82.9453 94.1195 86.5029 90.4473 87.2794 90.4473C88.0559 90.4473 92.6852 91.7421 92.6852 92.7737Z" fill="white" fill-opacity="0.6"/>
</g>
<g filter="url(#filter6_f_1504_16155)">
<path d="M106.661 113.557C106.661 114.588 99.6127 118.343 98.5815 118.343C97.5503 118.343 94.3382 116.862 94.3382 115.831C94.3382 114.8 92.2207 112.572 93.2519 112.572C99.2603 115.492 106.661 112.526 106.661 113.557Z" fill="white" fill-opacity="0.3"/>
</g>
<path d="M74.8007 101.958L79.4068 91.3159C78.3011 89.7044 75.4764 96.1502 74.8007 92.9273C74.1249 89.7043 73.1429 92.3565 71.0852 94.4045C69.0276 96.4524 70.1638 89.9058 69.2735 89.0665C68.3832 88.2272 66.6326 92.2894 66.1106 91.3159C65.5885 90.3423 70.1638 84.87 67.4001 86.9179C64.6364 88.9658 62.579 95.5124 62.1798 97.0231C61.7806 98.5338 64.5082 94.0687 66.9648 93.6323C69.4214 93.1959 68.8741 97.1238 70.1638 99.2724C71.4535 101.421 72.7125 98.6346 73.6031 97.896C74.3155 97.3051 74.6983 100.358 74.8007 101.958Z" fill="#9171C5"/>
<path d="M111.274 97.7937L108.337 86.9469C106.816 85.9736 108.575 92.5562 106.45 90.0398C104.325 87.5233 105.156 90.1649 105.023 92.6868C104.889 95.2087 102.07 89.1662 101.091 88.776C100.111 88.3858 101.237 92.5232 100.406 91.881C99.5742 91.2388 99.3802 84.8425 98.8256 87.6264C98.271 90.4103 100.541 96.7947 101.11 98.24C101.678 99.6852 100.92 94.8393 102.153 93.5529C103.385 92.2666 105.156 95.8422 107.073 97.2084C108.99 98.5746 108.253 95.7149 108.39 94.7503C108.499 93.9786 110.358 96.4577 111.274 97.7937Z" fill="#9171C5"/>
<path d="M117.37 96.8698L114.921 91.1849C113.731 90.0062 116.844 95.9699 114.921 93.3279C112.998 90.6859 113.569 92.0745 114.05 94.2141C114.531 96.3536 112.327 91.2276 111.614 90.672C110.9 90.1163 112.953 94.0671 112.278 93.3279C111.602 92.5887 109.63 87.8179 110.287 90.008C110.951 92.2218 112.941 97.091 114.048 99.0839C114.793 100.425 112.664 95.708 113.163 94.8781C113.661 94.0483 114.271 96.8704 115.377 98.641C116.553 100.523 115.506 96.1777 115.377 95.3785C115.273 94.7392 116.263 95.3785 117.37 96.8698Z" fill="#9171C5"/>
<path d="M96.2335 102.843C92.8533 97.7456 93.4808 85.9863 94.9075 83.3638L97.3151 83.9017C94.9075 87.7909 95.7679 99.2511 96.677 101.958C97.586 104.665 100.881 105.5 104.203 105.943C102.202 105.943 99.0064 107.025 96.2335 102.843Z" fill="#694D97"/>
<rect x="20" y="190.186" width="142" height="28" rx="4" fill="#6C79F9"/>
<path d="M33.328 210.186V198.986H38.416C39.632 198.986 40.704 199.22 41.632 199.69C42.56 200.148 43.2853 200.794 43.808 201.626C44.3307 202.458 44.592 203.444 44.592 204.586C44.592 205.716 44.3307 206.703 43.808 207.546C43.2853 208.378 42.56 209.028 41.632 209.498C40.704 209.956 39.632 210.186 38.416 210.186H33.328ZM35.92 208.058H38.288C39.0347 208.058 39.68 207.919 40.224 207.642C40.7787 207.354 41.2053 206.948 41.504 206.426C41.8133 205.903 41.968 205.29 41.968 204.586C41.968 203.871 41.8133 203.258 41.504 202.746C41.2053 202.223 40.7787 201.823 40.224 201.546C39.68 201.258 39.0347 201.114 38.288 201.114H35.92V208.058ZM51.6508 210.186V208.506L51.4908 208.138V205.13C51.4908 204.596 51.3254 204.18 50.9948 203.882C50.6748 203.583 50.1788 203.434 49.5068 203.434C49.0481 203.434 48.5948 203.508 48.1468 203.658C47.7094 203.796 47.3361 203.988 47.0268 204.234L46.1308 202.49C46.6001 202.159 47.1654 201.903 47.8268 201.722C48.4881 201.54 49.1601 201.45 49.8428 201.45C51.1548 201.45 52.1734 201.759 52.8988 202.378C53.6241 202.996 53.9868 203.962 53.9868 205.274V210.186H51.6508ZM49.0268 210.314C48.3548 210.314 47.7788 210.202 47.2988 209.978C46.8188 209.743 46.4508 209.428 46.1948 209.034C45.9388 208.639 45.8108 208.196 45.8108 207.706C45.8108 207.194 45.9334 206.746 46.1788 206.362C46.4348 205.978 46.8348 205.679 47.3788 205.466C47.9228 205.242 48.6321 205.13 49.5068 205.13H51.7948V206.586H49.7788C49.1921 206.586 48.7868 206.682 48.5628 206.874C48.3494 207.066 48.2428 207.306 48.2428 207.594C48.2428 207.914 48.3654 208.17 48.6108 208.362C48.8668 208.543 49.2134 208.634 49.6508 208.634C50.0668 208.634 50.4401 208.538 50.7708 208.346C51.1014 208.143 51.3414 207.85 51.4908 207.466L51.8748 208.618C51.6934 209.172 51.3628 209.594 50.8828 209.882C50.4028 210.17 49.7841 210.314 49.0268 210.314ZM59.7658 210.314C58.7524 210.314 57.9631 210.058 57.3978 209.546C56.8324 209.023 56.5498 208.25 56.5498 207.226V199.674H59.0458V207.194C59.0458 207.556 59.1418 207.839 59.3338 208.042C59.5258 208.234 59.7871 208.33 60.1178 208.33C60.5124 208.33 60.8484 208.223 61.1258 208.01L61.7978 209.77C61.5418 209.951 61.2324 210.09 60.8698 210.186C60.5178 210.271 60.1498 210.314 59.7658 210.314ZM55.2218 203.69V201.77H61.1898V203.69H55.2218ZM68.4789 210.186V208.506L68.3189 208.138V205.13C68.3189 204.596 68.1535 204.18 67.8229 203.882C67.5029 203.583 67.0069 203.434 66.3349 203.434C65.8762 203.434 65.4229 203.508 64.9749 203.658C64.5375 203.796 64.1642 203.988 63.8549 204.234L62.9589 202.49C63.4282 202.159 63.9935 201.903 64.6549 201.722C65.3162 201.54 65.9882 201.45 66.6709 201.45C67.9829 201.45 69.0015 201.759 69.7269 202.378C70.4522 202.996 70.8149 203.962 70.8149 205.274V210.186H68.4789ZM65.8549 210.314C65.1829 210.314 64.6069 210.202 64.1269 209.978C63.6469 209.743 63.2789 209.428 63.0229 209.034C62.7669 208.639 62.6389 208.196 62.6389 207.706C62.6389 207.194 62.7615 206.746 63.0069 206.362C63.2629 205.978 63.6629 205.679 64.2069 205.466C64.7509 205.242 65.4602 205.13 66.3349 205.13H68.6229V206.586H66.6069C66.0202 206.586 65.6149 206.682 65.3909 206.874C65.1775 207.066 65.0709 207.306 65.0709 207.594C65.0709 207.914 65.1935 208.17 65.4389 208.362C65.6949 208.543 66.0415 208.634 66.4789 208.634C66.8949 208.634 67.2682 208.538 67.5989 208.346C67.9295 208.143 68.1695 207.85 68.3189 207.466L68.7029 208.618C68.5215 209.172 68.1909 209.594 67.7109 209.882C67.2309 210.17 66.6122 210.314 65.8549 210.314ZM81.4611 210.378C80.5651 210.378 79.7065 210.26 78.8851 210.026C78.0638 209.78 77.4025 209.466 76.9011 209.082L77.7811 207.13C78.2611 207.471 78.8265 207.754 79.4771 207.978C80.1385 208.191 80.8051 208.298 81.4771 208.298C81.9891 208.298 82.3998 208.25 82.7091 208.154C83.0291 208.047 83.2638 207.903 83.4131 207.722C83.5625 207.54 83.6371 207.332 83.6371 207.098C83.6371 206.799 83.5198 206.564 83.2851 206.394C83.0505 206.212 82.7411 206.068 82.3571 205.962C81.9731 205.844 81.5465 205.738 81.0771 205.642C80.6185 205.535 80.1545 205.407 79.6851 205.258C79.2265 205.108 78.8051 204.916 78.4211 204.682C78.0371 204.447 77.7225 204.138 77.4771 203.754C77.2425 203.37 77.1251 202.879 77.1251 202.282C77.1251 201.642 77.2958 201.06 77.6371 200.538C77.9891 200.004 78.5118 199.583 79.2051 199.274C79.9091 198.954 80.7891 198.794 81.8451 198.794C82.5491 198.794 83.2425 198.879 83.9251 199.05C84.6078 199.21 85.2105 199.455 85.7331 199.786L84.9331 201.754C84.4105 201.455 83.8878 201.236 83.3651 201.098C82.8425 200.948 82.3305 200.874 81.8291 200.874C81.3278 200.874 80.9171 200.932 80.5971 201.05C80.2771 201.167 80.0478 201.322 79.9091 201.514C79.7705 201.695 79.7011 201.908 79.7011 202.154C79.7011 202.442 79.8185 202.676 80.0531 202.858C80.2878 203.028 80.5971 203.167 80.9811 203.274C81.3651 203.38 81.7865 203.487 82.2451 203.594C82.7145 203.7 83.1785 203.823 83.6371 203.962C84.1065 204.1 84.5331 204.287 84.9171 204.522C85.3011 204.756 85.6105 205.066 85.8451 205.45C86.0905 205.834 86.2131 206.319 86.2131 206.906C86.2131 207.535 86.0371 208.111 85.6851 208.634C85.3331 209.156 84.8051 209.578 84.1011 209.898C83.4078 210.218 82.5278 210.378 81.4611 210.378ZM91.9683 210.314C91.0403 210.314 90.2136 210.127 89.4883 209.754C88.7629 209.37 88.1923 208.842 87.7763 208.17C87.3709 207.498 87.1683 206.735 87.1683 205.882C87.1683 205.018 87.3709 204.255 87.7763 203.594C88.1923 202.922 88.7629 202.399 89.4883 202.026C90.2136 201.642 91.0403 201.45 91.9683 201.45C92.8749 201.45 93.6643 201.642 94.3363 202.026C95.0083 202.399 95.5043 202.938 95.8243 203.642L93.8883 204.682C93.6643 204.276 93.3816 203.978 93.0403 203.786C92.7096 203.594 92.3469 203.498 91.9523 203.498C91.5256 203.498 91.1416 203.594 90.8003 203.786C90.4589 203.978 90.1869 204.25 89.9843 204.602C89.7923 204.954 89.6963 205.38 89.6963 205.882C89.6963 206.383 89.7923 206.81 89.9843 207.162C90.1869 207.514 90.4589 207.786 90.8003 207.978C91.1416 208.17 91.5256 208.266 91.9523 208.266C92.3469 208.266 92.7096 208.175 93.0403 207.994C93.3816 207.802 93.6643 207.498 93.8883 207.082L95.8243 208.138C95.5043 208.831 95.0083 209.37 94.3363 209.754C93.6643 210.127 92.8749 210.314 91.9683 210.314ZM97.2145 210.186V201.578H99.7105V210.186H97.2145ZM98.4625 200.378C98.0038 200.378 97.6305 200.244 97.3425 199.978C97.0545 199.711 96.9105 199.38 96.9105 198.986C96.9105 198.591 97.0545 198.26 97.3425 197.994C97.6305 197.727 98.0038 197.594 98.4625 197.594C98.9212 197.594 99.2945 197.722 99.5825 197.978C99.8705 198.223 100.015 198.543 100.015 198.938C100.015 199.354 99.8705 199.7 99.5825 199.978C99.3052 200.244 98.9318 200.378 98.4625 200.378ZM106.299 210.314C105.318 210.314 104.454 210.122 103.707 209.738C102.971 209.354 102.4 208.831 101.995 208.17C101.59 207.498 101.387 206.735 101.387 205.882C101.387 205.018 101.584 204.255 101.979 203.594C102.384 202.922 102.934 202.399 103.627 202.026C104.32 201.642 105.104 201.45 105.979 201.45C106.822 201.45 107.579 201.631 108.251 201.994C108.934 202.346 109.472 202.858 109.867 203.53C110.262 204.191 110.459 204.986 110.459 205.914C110.459 206.01 110.454 206.122 110.443 206.25C110.432 206.367 110.422 206.479 110.411 206.586H103.419V205.13H109.099L108.139 205.562C108.139 205.114 108.048 204.724 107.867 204.394C107.686 204.063 107.435 203.807 107.115 203.626C106.795 203.434 106.422 203.338 105.995 203.338C105.568 203.338 105.19 203.434 104.859 203.626C104.539 203.807 104.288 204.068 104.107 204.41C103.926 204.74 103.835 205.135 103.835 205.594V205.978C103.835 206.447 103.936 206.863 104.139 207.226C104.352 207.578 104.646 207.85 105.019 208.042C105.403 208.223 105.851 208.314 106.363 208.314C106.822 208.314 107.222 208.244 107.563 208.106C107.915 207.967 108.235 207.759 108.523 207.482L109.851 208.922C109.456 209.37 108.96 209.716 108.363 209.962C107.766 210.196 107.078 210.314 106.299 210.314ZM117.353 201.45C118.035 201.45 118.643 201.588 119.177 201.866C119.721 202.132 120.147 202.548 120.457 203.114C120.766 203.668 120.921 204.383 120.921 205.258V210.186H118.425V205.642C118.425 204.948 118.27 204.436 117.961 204.106C117.662 203.775 117.235 203.61 116.681 203.61C116.286 203.61 115.929 203.695 115.609 203.866C115.299 204.026 115.054 204.276 114.873 204.618C114.702 204.959 114.617 205.396 114.617 205.93V210.186H112.121V201.578H114.505V203.962L114.057 203.242C114.366 202.666 114.809 202.223 115.385 201.914C115.961 201.604 116.617 201.45 117.353 201.45ZM126.703 210.314C125.69 210.314 124.901 210.058 124.335 209.546C123.77 209.023 123.487 208.25 123.487 207.226V199.674H125.983V207.194C125.983 207.556 126.079 207.839 126.271 208.042C126.463 208.234 126.725 208.33 127.055 208.33C127.45 208.33 127.786 208.223 128.063 208.01L128.735 209.77C128.479 209.951 128.17 210.09 127.807 210.186C127.455 210.271 127.087 210.314 126.703 210.314ZM122.159 203.69V201.77H128.127V203.69H122.159ZM130.136 210.186V201.578H132.632V210.186H130.136ZM131.384 200.378C130.926 200.378 130.552 200.244 130.264 199.978C129.976 199.711 129.832 199.38 129.832 198.986C129.832 198.591 129.976 198.26 130.264 197.994C130.552 197.727 130.926 197.594 131.384 197.594C131.843 197.594 132.216 197.722 132.504 197.978C132.792 198.223 132.936 198.543 132.936 198.938C132.936 199.354 132.792 199.7 132.504 199.978C132.227 200.244 131.854 200.378 131.384 200.378ZM137.845 210.314C137.109 210.314 136.4 210.228 135.717 210.058C135.045 209.876 134.512 209.652 134.117 209.386L134.949 207.594C135.344 207.839 135.808 208.042 136.341 208.202C136.885 208.351 137.418 208.426 137.941 208.426C138.517 208.426 138.922 208.356 139.157 208.218C139.402 208.079 139.525 207.887 139.525 207.642C139.525 207.439 139.429 207.29 139.237 207.194C139.056 207.087 138.81 207.007 138.501 206.954C138.192 206.9 137.85 206.847 137.477 206.794C137.114 206.74 136.746 206.671 136.373 206.586C136 206.49 135.658 206.351 135.349 206.17C135.04 205.988 134.789 205.743 134.597 205.434C134.416 205.124 134.325 204.724 134.325 204.234C134.325 203.69 134.48 203.21 134.789 202.794C135.109 202.378 135.568 202.052 136.165 201.818C136.762 201.572 137.477 201.45 138.309 201.45C138.896 201.45 139.493 201.514 140.101 201.642C140.709 201.77 141.216 201.956 141.621 202.202L140.789 203.978C140.373 203.732 139.952 203.567 139.525 203.482C139.109 203.386 138.704 203.338 138.309 203.338C137.754 203.338 137.349 203.412 137.093 203.562C136.837 203.711 136.709 203.903 136.709 204.138C136.709 204.351 136.8 204.511 136.981 204.618C137.173 204.724 137.424 204.81 137.733 204.874C138.042 204.938 138.378 204.996 138.741 205.05C139.114 205.092 139.488 205.162 139.861 205.258C140.234 205.354 140.57 205.492 140.869 205.674C141.178 205.844 141.429 206.084 141.621 206.394C141.813 206.692 141.909 207.087 141.909 207.578C141.909 208.111 141.749 208.586 141.429 209.002C141.109 209.407 140.645 209.727 140.037 209.962C139.44 210.196 138.709 210.314 137.845 210.314ZM146.969 210.314C145.956 210.314 145.166 210.058 144.601 209.546C144.036 209.023 143.753 208.25 143.753 207.226V199.674H146.249V207.194C146.249 207.556 146.345 207.839 146.537 208.042C146.729 208.234 146.99 208.33 147.321 208.33C147.716 208.33 148.052 208.223 148.329 208.01L149.001 209.77C148.745 209.951 148.436 210.09 148.073 210.186C147.721 210.271 147.353 210.314 146.969 210.314ZM142.425 203.69V201.77H148.393V203.69H142.425Z" fill="white"/>
<defs>
<filter id="filter0_f_1504_16155" x="62.7134" y="73.5747" width="54.8779" height="80.8056" filterUnits="userSpaceOnUse" color-interpolation-filters="sRGB">
<feFlood flood-opacity="0" result="BackgroundImageFix"/>
<feBlend mode="normal" in="SourceGraphic" in2="BackgroundImageFix" result="shape"/>
<feGaussianBlur stdDeviation="2.21362" result="effect1_foregroundBlur_1504_16155"/>
</filter>
<filter id="filter1_f_1504_16155" x="97.4657" y="110.284" width="3.92805" height="2.22102" filterUnits="userSpaceOnUse" color-interpolation-filters="sRGB">
<feFlood flood-opacity="0" result="BackgroundImageFix"/>
<feBlend mode="normal" in="SourceGraphic" in2="BackgroundImageFix" result="shape"/>
<feGaussianBlur stdDeviation="0.0640432" result="effect1_foregroundBlur_1504_16155"/>
</filter>
<filter id="filter2_f_1504_16155" x="76.4111" y="110.905" width="4.10752" height="2.06455" filterUnits="userSpaceOnUse" color-interpolation-filters="sRGB">
<feFlood flood-opacity="0" result="BackgroundImageFix"/>
<feBlend mode="normal" in="SourceGraphic" in2="BackgroundImageFix" result="shape"/>
<feGaussianBlur stdDeviation="0.0678962" result="effect1_foregroundBlur_1504_16155"/>
</filter>
<filter id="filter3_f_1504_16155" x="84.1592" y="135.317" width="9.16607" height="9.16607" filterUnits="userSpaceOnUse" color-interpolation-filters="sRGB">
<feFlood flood-opacity="0" result="BackgroundImageFix"/>
<feBlend mode="normal" in="SourceGraphic" in2="BackgroundImageFix" result="shape"/>
<feGaussianBlur stdDeviation="1.35792" result="effect1_foregroundBlur_1504_16155"/>
</filter>
<filter id="filter4_f_1504_16155" x="71.6343" y="111.578" width="15.6533" height="14.5049" filterUnits="userSpaceOnUse" color-interpolation-filters="sRGB">
<feFlood flood-opacity="0" result="BackgroundImageFix"/>
<feBlend mode="normal" in="SourceGraphic" in2="BackgroundImageFix" result="shape"/>
<feGaussianBlur stdDeviation="0.678962" result="effect1_foregroundBlur_1504_16155"/>
</filter>
<filter id="filter5_f_1504_16155" x="76.1557" y="83.6577" width="23.3214" height="28.1886" filterUnits="userSpaceOnUse" color-interpolation-filters="sRGB">
<feFlood flood-opacity="0" result="BackgroundImageFix"/>
<feBlend mode="normal" in="SourceGraphic" in2="BackgroundImageFix" result="shape"/>
<feGaussianBlur stdDeviation="3.39481" result="effect1_foregroundBlur_1504_16155"/>
</filter>
<filter id="filter6_f_1504_16155" x="90.2529" y="109.856" width="19.127" height="11.2032" filterUnits="userSpaceOnUse" color-interpolation-filters="sRGB">
<feFlood flood-opacity="0" result="BackgroundImageFix"/>
<feBlend mode="normal" in="SourceGraphic" in2="BackgroundImageFix" result="shape"/>
<feGaussianBlur stdDeviation="1.35792" result="effect1_foregroundBlur_1504_16155"/>
</filter>
<linearGradient id="paint0_linear_1504_16155" x1="90.0329" y1="138.483" x2="90.697" y2="160.176" gradientUnits="userSpaceOnUse">
<stop stop-color="#F5AC84"/>
<stop offset="1" stop-color="#FFD6C0"/>
</linearGradient>
<linearGradient id="paint1_linear_1504_16155" x1="90.0407" y1="138.483" x2="90.7048" y2="160.176" gradientUnits="userSpaceOnUse">
<stop stop-color="#F5AC84"/>
<stop offset="1" stop-color="#FFD6C0"/>
</linearGradient>
<linearGradient id="paint2_linear_1504_16155" x1="101.231" y1="103.107" x2="101.231" y2="107.296" gradientUnits="userSpaceOnUse">
<stop stop-color="#2E1833"/>
<stop offset="1" stop-color="#2E1833" stop-opacity="0"/>
</linearGradient>
<linearGradient id="paint3_linear_1504_16155" x1="76.1982" y1="103.795" x2="76.1982" y2="107.099" gradientUnits="userSpaceOnUse">
<stop stop-color="#2E1833"/>
<stop offset="1" stop-color="#2E1833" stop-opacity="0"/>
</linearGradient>
<radialGradient id="paint4_radial_1504_16155" cx="0" cy="0" r="1" gradientUnits="userSpaceOnUse" gradientTransform="translate(110.667 124.314) rotate(149.036) scale(1.69589 1.69589)">
<stop stop-color="white"/>
<stop offset="0.770833" stop-color="#DBDBDB"/>
<stop offset="1" stop-color="white"/>
</radialGradient>
<radialGradient id="paint5_radial_1504_16155" cx="0" cy="0" r="1" gradientUnits="userSpaceOnUse" gradientTransform="translate(70.4713 124.314) rotate(149.036) scale(1.69589 1.69589)">
<stop stop-color="white"/>
<stop offset="0.770833" stop-color="#DBDBDB"/>
<stop offset="1" stop-color="white"/>
</radialGradient>
<linearGradient id="paint6_linear_1504_16155" x1="88.8727" y1="127.686" x2="88.8727" y2="134" gradientUnits="userSpaceOnUse">
<stop stop-color="#FFB9B9"/>
<stop offset="1" stop-color="#FF2929"/>
</linearGradient>
</defs>
</svg>
