<svg width="365" height="676" viewBox="0 0 365 676" fill="none" xmlns="http://www.w3.org/2000/svg">
<path d="M364.5 24.5H57.5V128.75M364.5 658.5H57.5L57.5 550M57.5 441.5H364.5M57.5 441.5V233M57.5 441.5L57.5 550M57.5 233H364.5M57.5 233V128.75M57.5 128.75H364.5M57.5 550H364.5" stroke="#6C79F9" stroke-dasharray="2 2"/>
<path d="M0 336.5H361.5" stroke="#6C79F9" stroke-dasharray="2 2"/>
<rect x="102" width="94" height="40" rx="4" fill="#6C79F9"/>
<path d="M129.156 11.1797H127.301V23.8945H129.156V11.1797ZM114.996 16.6875C115.006 19.2559 117.018 21.043 119.664 21.043C122.301 21.043 124.312 19.2559 124.312 16.6875C124.312 14.1582 122.301 12.3613 119.664 12.3516C117.018 12.3613 115.006 14.1582 114.996 16.6875ZM116.812 16.6875C116.803 15.0762 118.033 13.9727 119.664 13.9727C121.266 13.9727 122.496 15.0762 122.496 16.6875C122.496 18.3379 121.266 19.4219 119.664 19.4219C118.033 19.4219 116.803 18.3379 116.812 16.6875ZM117.711 28.2891H129.684V26.7852H119.586V22.6055H117.711V28.2891ZM146.52 11.1602H144.684V17.625H141.207V19.1484H144.684V28.6992H146.52V11.1602ZM132.73 24.5586H134.098C137.34 24.5488 139.537 24.4414 142.086 24.0312L141.891 22.5273C139.566 22.9277 137.535 23.0156 134.605 23.0156V19.1094H140.172V17.625H134.605V14.2266H140.914V12.7227H132.73V24.5586ZM164.137 22.8789H152.262V24.3633H162.301V28.6602H164.137V22.8789ZM149.957 13.9531H154.41V16.1211H149.996V21.2969H151.148C153.697 21.3066 155.514 21.209 157.672 20.8086L157.477 19.3047C155.553 19.6855 153.941 19.8027 151.793 19.8125V17.4883H156.188V12.4883H149.957V13.9531ZM156.852 17.0586H158.863V21.9609H160.641V11.5117H158.863V15.5547H156.852V17.0586ZM162.379 22.0586H164.137V11.1797H162.379V22.0586ZM172.672 14.3242V12.1562H170.836V14.3242C170.826 17.0098 169.195 19.5 166.5 20.4961L167.496 21.9805C169.537 21.1699 171.021 19.5488 171.773 17.5078C172.516 19.4023 173.932 20.9355 175.836 21.707L176.852 20.2617C174.244 19.2559 172.682 16.8438 172.672 14.3242ZM169.664 28.2891H181.48V26.7852H171.539V22.8984H169.664V28.2891ZM175.836 18.6992H179.234V24.207H181.09V11.1797H179.234V13.6602H175.836V15.1641H179.234V17.1953H175.836V18.6992Z" fill="white"/>
<rect x="102" y="106" width="94" height="40" rx="4" fill="#6C79F9"/>
<path d="M124.664 118.957H114.859V120.48H116.656V128.859C115.875 128.869 115.123 128.879 114.43 128.879L114.645 130.422C117.711 130.412 121.842 130.354 125.504 129.738L125.406 128.391C124.586 128.488 123.736 128.566 122.867 128.635V120.48H124.664V118.957ZM118.453 128.83V120.48H121.07V128.742C120.191 128.781 119.312 128.811 118.453 128.83ZM126.422 134.66H128.277V125.578H131.09V124.055H128.277V117.16H126.422V134.66ZM145.562 117.16H143.727V134.699H145.562V125.559H148.375V123.996H145.562V117.16ZM132.613 120.246H138.785V123.664H132.652V130.52H134.078C137.359 130.5 139.723 130.383 142.457 129.875L142.281 128.371C139.723 128.84 137.486 128.947 134.488 128.957V125.168H140.621V118.742H132.613V120.246ZM158.395 118.84H150.191V130.344H158.395V118.84ZM152.027 128.84V120.305H156.598V128.84H152.027ZM161.852 134.699H163.707V117.16H161.852V134.699ZM181.09 117.16H179.254V123.625H175.777V125.148H179.254V134.699H181.09V117.16ZM167.301 130.559H168.668C171.91 130.549 174.107 130.441 176.656 130.031L176.461 128.527C174.137 128.928 172.105 129.016 169.176 129.016V125.109H174.742V123.625H169.176V120.227H175.484V118.723H167.301V130.559Z" fill="white"/>
<rect x="102" y="212" width="59" height="40" rx="4" fill="#6C79F9"/>
<path d="M129.684 223.16H127.887V230.113H125.738V223.57H124V239.82H125.738V231.637H127.887V240.66H129.684V223.16ZM114.703 235.797L115.797 237.125C121.1 234.166 122.428 229.928 122.438 225.25H115.641V226.754H120.621C120.562 227.613 120.436 228.443 120.221 229.234L114.762 229.566L114.996 231.188L119.703 230.689C118.834 232.652 117.281 234.371 114.703 235.797ZM146.441 223.18H144.586V233.59H146.441V223.18ZM132.027 231.559L132.965 233.043C135.045 232.262 136.588 230.68 137.369 228.688C138.16 230.475 139.674 231.881 141.715 232.574L142.633 231.109C139.947 230.221 138.287 228.033 138.297 225.641V223.941H136.402V225.641C136.393 228.17 134.752 230.582 132.027 231.559ZM134.645 237.281C134.654 239.381 136.91 240.602 140.602 240.602C144.254 240.602 146.529 239.381 146.539 237.281C146.529 235.172 144.254 233.951 140.602 233.941C136.91 233.951 134.654 235.172 134.645 237.281ZM136.5 237.281C136.49 236.07 138.023 235.416 140.602 235.406C143.16 235.416 144.713 236.07 144.723 237.281C144.713 238.482 143.16 239.137 140.602 239.137C138.023 239.137 136.49 238.482 136.5 237.281Z" fill="white"/>
<rect x="102" y="318" width="76" height="40" rx="4" fill="#6C79F9"/>
<path d="M129.176 329.16H127.32V346.699H129.176V329.16ZM115.621 332.246H121.93V335.645H115.641V342.5H117.125C120.221 342.49 122.857 342.373 125.953 341.855L125.777 340.332C122.848 340.811 120.377 340.947 117.535 340.957V337.129H123.824V330.742H115.621V332.246ZM147.945 342.93H140.816V338.887H146.031V330.566H133.766V338.887H138.98V342.93H131.93V344.473H147.945V342.93ZM135.562 337.422V332.051H144.215V337.422H135.562ZM163.414 338.477H153.102V335.938H162.867V334.473H153.102V332.109H163.238V330.605H151.227V339.961H163.414V338.477ZM149.215 344.453H165.23V342.93H149.215V344.453Z" fill="white"/>
<rect x="102" y="424" width="93" height="40" rx="4" fill="#6C79F9"/>
<path d="M115.445 451H123.98V449.145H117.594V436.859H115.445V451ZM126.012 451H128.102V440.395H126.012V451ZM125.738 437.523C125.748 438.207 126.344 438.764 127.066 438.754C127.779 438.764 128.375 438.207 128.375 437.523C128.375 436.84 127.779 436.293 127.066 436.293C126.344 436.293 125.748 436.84 125.738 437.523ZM132.73 444.711C132.73 443.021 133.756 442.055 135.191 442.055C136.598 442.055 137.428 442.973 137.438 444.516V451H139.508V444.262C139.518 441.635 138.072 440.258 135.895 440.258C134.312 440.258 133.268 440.99 132.77 442.133H132.652V440.395H130.641V451H132.73V444.711ZM142.047 451H144.137V447.23L145.143 446.234L148.746 451H151.305L146.725 444.945L151.012 440.395H148.512L144.312 444.867H144.137V436.859H142.047V451ZM167.262 441.332H169.469C168.99 438.568 166.627 436.664 163.57 436.664C159.918 436.664 157.242 439.418 157.242 443.93C157.242 448.412 159.84 451.195 163.668 451.195C167.105 451.195 169.566 448.939 169.566 445.355V443.754H164V445.531H167.477C167.438 447.797 165.943 449.232 163.688 449.223C161.188 449.232 159.381 447.348 159.371 443.93C159.381 440.502 161.207 438.627 163.59 438.637C165.455 438.627 166.734 439.662 167.262 441.332ZM172.535 451H174.625V440.395H172.535V451ZM172.262 437.523C172.271 438.207 172.867 438.764 173.59 438.754C174.303 438.764 174.898 438.207 174.898 437.523C174.898 436.84 174.303 436.293 173.59 436.293C172.867 436.293 172.271 436.84 172.262 437.523ZM182.125 440.395H179.957V437.855H177.887V440.395H176.324V442.055H177.887V448.305C177.867 450.238 179.342 451.137 180.973 451.137C181.549 451.137 181.998 451.098 182.281 451.059V449.242C181.988 449.271 181.529 449.301 181.227 449.301C180.553 449.291 179.967 449.076 179.957 447.875V442.055H182.125V440.395Z" fill="white"/>
<rect x="102" y="530" width="130" height="40" rx="4" fill="#6C79F9"/>
<path d="M115.445 557H117.594V550.828H124.625V557H126.773V542.859H124.625V548.992H117.594V542.859H115.445V557ZM134.059 557.215C136.393 557.215 138.023 556.062 138.492 554.344H136.383C136.031 554.988 135.26 555.496 134.078 555.496C132.34 555.496 131.148 554.354 131.09 552.332H138.629V551.59C138.629 547.752 136.334 546.258 133.922 546.258C130.963 546.258 129.01 548.504 129.02 551.766C129.01 555.057 130.934 557.215 134.059 557.215ZM131.1 550.77C131.188 549.275 132.271 547.967 133.941 547.977C135.533 547.967 136.578 549.158 136.578 550.77H131.1ZM142.789 542.859H140.699V557H142.789V542.859ZM145.328 560.984H147.418V555.34H147.535C147.916 556.033 148.678 557.205 150.602 557.215C153.17 557.205 155.035 555.145 155.035 551.727C155.035 548.27 153.15 546.258 150.582 546.258C148.619 546.258 147.906 547.449 147.535 548.113H147.359V546.395H145.328V560.984ZM147.379 551.688C147.379 549.48 148.336 548.025 150.133 548.035C151.998 548.025 152.926 549.598 152.926 551.688C152.926 553.816 151.969 555.428 150.133 555.438C148.355 555.428 147.379 553.914 147.379 551.688ZM166.48 557.215C168.98 557.215 170.611 555.701 170.836 553.641H168.805C168.541 554.783 167.662 555.447 166.48 555.438C164.732 555.447 163.609 554.012 163.609 551.688C163.609 549.432 164.762 548.006 166.48 547.996C167.799 548.006 168.59 548.836 168.805 549.832H170.836C170.611 547.684 168.863 546.258 166.441 546.258C163.453 546.258 161.51 548.514 161.52 551.746C161.51 554.939 163.385 557.215 166.48 557.215ZM177.379 557.215C179.713 557.215 181.344 556.062 181.812 554.344H179.703C179.352 554.988 178.58 555.496 177.398 555.496C175.66 555.496 174.469 554.354 174.41 552.332H181.949V551.59C181.949 547.752 179.654 546.258 177.242 546.258C174.283 546.258 172.33 548.504 172.34 551.766C172.33 555.057 174.254 557.215 177.379 557.215ZM174.42 550.77C174.508 549.275 175.592 547.967 177.262 547.977C178.854 547.967 179.898 549.158 179.898 550.77H174.42ZM186.109 550.711C186.109 549.021 187.135 548.055 188.57 548.055C189.977 548.055 190.807 548.973 190.816 550.516V557H192.887V550.262C192.896 547.635 191.451 546.258 189.273 546.258C187.691 546.258 186.646 546.99 186.148 548.133H186.031V546.395H184.02V557H186.109V550.711ZM200.387 546.395H198.219V543.855H196.148V546.395H194.586V548.055H196.148V554.305C196.129 556.238 197.604 557.137 199.234 557.137C199.811 557.137 200.26 557.098 200.543 557.059V555.242C200.25 555.271 199.791 555.301 199.488 555.301C198.814 555.291 198.229 555.076 198.219 553.875V548.055H200.387V546.395ZM206.871 557.215C209.205 557.215 210.836 556.062 211.305 554.344H209.195C208.844 554.988 208.072 555.496 206.891 555.496C205.152 555.496 203.961 554.354 203.902 552.332H211.441V551.59C211.441 547.752 209.146 546.258 206.734 546.258C203.775 546.258 201.822 548.504 201.832 551.766C201.822 555.057 203.746 557.215 206.871 557.215ZM203.912 550.77C204 549.275 205.084 547.967 206.754 547.977C208.346 547.967 209.391 549.158 209.391 550.77H203.912ZM213.512 557H215.602V550.535C215.602 549.148 216.676 548.143 218.121 548.152C218.551 548.143 219.039 548.23 219.215 548.27V546.277C219 546.258 218.59 546.229 218.336 546.238C217.096 546.229 216.031 546.941 215.641 548.074H215.523V546.395H213.512V557Z" fill="white"/>
<rect x="102" y="636" width="136" height="40" rx="4" fill="#6C79F9"/>
<path d="M115.445 663H117.594V657.668H120.484H120.621L123.492 663H125.934L122.809 657.287C124.527 656.633 125.387 655.197 125.387 653.293C125.387 650.686 123.775 648.859 120.484 648.859H115.445V663ZM117.594 655.812V650.695H120.27C122.35 650.705 123.219 651.701 123.219 653.293C123.219 654.885 122.35 655.803 120.27 655.812H117.594ZM134.332 658.586C134.332 660.393 132.994 661.242 131.832 661.242C130.562 661.242 129.684 660.324 129.684 658.879V652.395H127.594V659.133C127.594 661.76 129.039 663.137 131.09 663.137C132.682 663.137 133.766 662.297 134.254 661.164H134.371V663H136.402V652.395H134.332V658.586ZM141.031 656.711C141.031 655.021 142.057 654.055 143.492 654.055C144.898 654.055 145.729 654.973 145.738 656.516V663H147.809V656.262C147.818 653.635 146.373 652.258 144.195 652.258C142.613 652.258 141.568 652.99 141.07 654.133H140.953V652.395H138.941V663H141.031V656.711ZM152.633 663H154.781L156.91 655.363H157.066L159.215 663H161.344L164.449 652.395H162.301L160.25 660.129H160.133L158.082 652.395H155.934L153.863 660.168H153.746L151.676 652.395H149.527L152.633 663ZM165.68 660.012C165.67 662.082 167.242 663.234 169.254 663.234C171.012 663.234 171.988 662.346 172.398 661.555H172.477V663H174.508V655.949C174.498 652.873 172.037 652.258 170.348 652.258C167.838 652.258 166.197 653.527 166.012 655.285H168.082C168.297 654.504 169.039 653.938 170.27 653.938C171.686 653.938 172.428 654.631 172.418 655.832L172.428 656.682C171.939 656.701 170.348 656.789 169.645 656.828C167.73 656.965 165.67 657.59 165.68 660.012ZM167.711 660.031C167.711 658.986 168.57 658.469 169.938 658.371C170.436 658.342 171.949 658.234 172.428 658.205L172.438 659.172C172.438 660.432 171.422 661.564 169.723 661.574C168.551 661.564 167.711 661.047 167.711 660.031ZM177.926 666.984C179.674 666.975 180.748 666.086 181.363 664.406L185.738 652.395H183.492L180.816 660.617H180.699L178.023 652.395H175.797L179.684 663.137L179.43 663.84C178.932 665.178 178.395 665.217 177.75 665.227C177.457 665.217 177.047 665.207 176.812 665.188V666.926C177.076 666.965 177.496 666.975 177.926 666.984ZM206.285 647.18H204.43V649.816H200.064C199.244 648.84 197.984 648.244 196.539 648.234C193.902 648.254 191.939 650.1 191.949 652.688C191.939 655.256 193.902 657.102 196.539 657.102C197.994 657.102 199.264 656.506 200.084 655.52H204.43V660.07H206.285V647.18ZM193.727 652.688C193.717 651.037 194.898 649.904 196.539 649.895C198.111 649.904 199.312 651.037 199.312 652.688C199.312 654.338 198.111 655.471 196.539 655.461C194.898 655.471 193.717 654.338 193.727 652.688ZM194.918 664.289H206.754V662.785H196.773V658.723H194.918V664.289ZM200.885 651.32H204.43V654.016H200.895C201.021 653.605 201.09 653.156 201.09 652.688C201.09 652.199 201.021 651.75 200.885 651.32ZM224.957 655.676H217.867V653.82H223.102V652.336H212.809V649.426H222.984V647.961H210.973V653.82H216.07V655.676H208.98V657.16H224.957V655.676ZM210.875 661.477C210.875 663.508 213.15 664.65 216.949 664.66C220.719 664.65 222.975 663.508 222.984 661.477C222.975 659.445 220.719 658.303 216.949 658.293C213.15 658.303 210.875 659.445 210.875 661.477ZM212.75 661.477C212.74 660.373 214.273 659.738 216.949 659.738C219.586 659.738 221.129 660.373 221.129 661.477C221.129 662.6 219.586 663.215 216.949 663.195C214.273 663.215 212.74 662.6 212.75 661.477Z" fill="white"/>
<circle cx="57.5" cy="24.5" r="2.5" fill="#6C79F9"/>
<circle cx="57.5" cy="128.5" r="2.5" fill="#6C79F9"/>
<circle cx="57.5" cy="233.5" r="2.5" fill="#6C79F9"/>
<circle cx="57.5" cy="336.5" r="2.5" fill="#6C79F9"/>
<circle cx="57.5" cy="441.5" r="2.5" fill="#6C79F9"/>
<circle cx="57.5" cy="550.5" r="2.5" fill="#6C79F9"/>
<circle cx="57.5" cy="658.5" r="2.5" fill="#6C79F9"/>
</svg>
