<svg width="471" height="165" viewBox="0 0 471 165" fill="none" xmlns="http://www.w3.org/2000/svg">
<path fill-rule="evenodd" clip-rule="evenodd" d="M13.6543 103.958L10.8655 106.747V101.635C9.32848 99.8399 8.40625 97.554 8.40625 95.0652C8.40625 89.2933 13.3617 84.6133 19.473 84.6133C25.5843 84.6133 30.5397 89.2933 30.5397 95.0652C30.5397 100.837 25.5843 105.517 19.473 105.517C17.4293 105.524 15.4209 104.986 13.6543 103.958Z" fill="#333333"/>
<path fill-rule="evenodd" clip-rule="evenodd" d="M79.235 95.6788C79.235 98.5646 74.8083 101.655 70.3816 100.327C68.1683 99.6628 67.4305 101.655 68.9481 102.983C70.3816 104.311 69.6813 105.639 68.1683 105.639C62.0563 105.639 57.1016 101.18 57.1016 95.6788C57.1016 90.178 62.0563 85.7188 68.1683 85.7188C74.2802 85.7188 79.235 90.178 79.235 95.6788ZM67.432 89.7025C67.432 90.4359 66.7713 91.0305 65.9564 91.0305C65.1415 91.0305 64.4808 90.4359 64.4808 89.7025C64.4808 88.969 65.1415 88.3745 65.9564 88.3745C66.7713 88.3745 67.432 88.969 67.432 89.7025ZM61.5297 93.6862C62.3446 93.6862 63.0053 93.0917 63.0053 92.3582C63.0053 91.6248 62.3446 91.0302 61.5297 91.0302C60.7148 91.0302 60.0541 91.6248 60.0541 92.3582C60.0541 93.0917 60.7148 93.6862 61.5297 93.6862ZM71.8558 89.7025C71.8558 90.4359 71.1951 91.0305 70.3802 91.0305C69.5653 91.0305 68.9046 90.4359 68.9046 89.7025C68.9046 88.969 69.5653 88.3745 70.3802 88.3745C71.1951 88.3745 71.8558 88.969 71.8558 89.7025ZM74.8083 93.6862C75.6233 93.6862 76.2839 93.0917 76.2839 92.3582C76.2839 91.6248 75.6233 91.0302 74.8083 91.0302C73.9934 91.0302 73.3328 91.6248 73.3328 92.3582C73.3328 93.0917 73.9934 93.6862 74.8083 93.6862Z" fill="#333333"/>
<path fill-rule="evenodd" clip-rule="evenodd" d="M117.086 84.7957C116.912 84.5473 116.564 84.5473 116.39 84.7957L113.182 89.3751C112.966 89.6821 113.171 90.1202 113.53 90.1202H115.38V98.8746C115.38 99.0461 115.509 99.1851 115.67 99.1851H117.808C117.969 99.1851 118.098 99.0461 118.098 98.8746V90.1202H119.946C120.304 90.1202 120.509 89.6821 120.294 89.3751L117.086 84.7957Z" fill="#333333"/>
<path fill-rule="evenodd" clip-rule="evenodd" d="M112.554 91.7109H109.584C107.497 91.7109 105.805 93.4028 105.805 95.4898V103.907C105.805 105.994 107.497 107.686 109.584 107.686H124.159C126.246 107.686 127.938 105.994 127.938 103.907V95.4898C127.938 93.4028 126.246 91.7109 124.159 91.7109H120.651V94.2302H124.159C124.855 94.2302 125.419 94.7942 125.419 95.4898V103.907C125.419 104.602 124.855 105.166 124.159 105.166H109.584C108.888 105.166 108.324 104.602 108.324 103.907V95.4898C108.324 94.7942 108.888 94.2302 109.584 94.2302H112.554V91.7109Z" fill="#333333"/>
<path d="M112.427 91.7109H111.325C110.977 91.7109 110.695 91.9929 110.695 92.3408V93.6014C110.695 93.9493 110.977 94.2312 111.325 94.2312H112.427C112.775 94.2312 113.057 93.9493 113.057 93.6014V92.3408C113.057 91.9929 112.775 91.7109 112.427 91.7109Z" fill="#333333"/>
<path d="M121.873 91.7109H120.77C120.423 91.7109 120.141 91.9929 120.141 92.3408V93.5925C120.141 93.9403 120.423 94.2223 120.77 94.2223H121.873C122.22 94.2223 122.502 93.9403 122.502 93.5925V92.3408C122.502 91.9929 122.22 91.7109 121.873 91.7109Z" fill="#333333"/>
<g clip-path="url(#clip0_1586_16154)">
<path fill-rule="evenodd" clip-rule="evenodd" d="M157.399 88.092C156.6 87.6308 155.602 88.2073 155.602 89.1296V101.581C155.602 102.504 156.6 103.08 157.399 102.619L168.182 96.393C168.981 95.9319 168.981 94.7789 168.182 94.3178L157.399 88.092Z" fill="#333333"/>
<path fill-rule="evenodd" clip-rule="evenodd" d="M172.003 101.047C172.147 101.239 172.434 101.239 172.578 101.047L175.453 97.2132C175.631 96.9763 175.462 96.6381 175.166 96.6381H173.489V90.0483C173.489 89.7174 173.22 89.4492 172.889 89.4492H171.691C171.36 89.4492 171.092 89.7174 171.092 90.0483V96.6381H169.415C169.119 96.6381 168.95 96.9763 169.127 97.2132L172.003 101.047Z" fill="#333333"/>
</g>
<path fill-rule="evenodd" clip-rule="evenodd" d="M208.643 87.0177C207.69 86.4679 206.5 87.1552 206.5 88.2549V103.1C206.5 104.2 207.69 104.887 208.643 104.337L221.499 96.9147C222.452 96.3649 222.452 94.9903 221.499 94.4405L208.643 87.0177Z" fill="#333333"/>
<path d="M260.891 100.247L266.196 94.942L263.676 92.422L258.371 97.7274C258.298 97.8005 258.246 97.8921 258.221 97.9923L257.633 100.986L260.625 100.398C260.726 100.372 260.818 100.32 260.891 100.247V100.247ZM267.909 93.2293C268.123 93.0151 268.243 92.7248 268.243 92.422C268.243 92.1192 268.123 91.8289 267.909 91.6148L267.004 90.7093C266.789 90.4952 266.499 90.375 266.196 90.375C265.894 90.375 265.603 90.4952 265.389 90.7093L264.484 91.6148L267.004 94.1347L267.909 93.2293Z" fill="#6C79F9"/>
<rect x="252.982" y="85.72" width="19.9201" height="19.9201" rx="1.10667" stroke="#6C79F9" stroke-width="2.21335"/>
<path d="M315.323 95.152V96.206C315.323 96.5222 315.112 96.7329 314.796 96.7329H308.472C308.156 96.7329 307.945 96.5222 307.945 96.206V95.152C307.945 94.8358 308.156 94.625 308.472 94.625H314.796C315.112 94.625 315.323 94.8358 315.323 95.152Z" fill="#C55B5F"/>
<rect x="301.677" y="85.72" width="19.9201" height="19.9201" rx="1.10667" stroke="#C55B5F" stroke-width="2.21335"/>
<path fill-rule="evenodd" clip-rule="evenodd" d="M370.754 85.2534C371.316 85.8152 371.316 86.7262 370.754 87.288L351.94 106.101C351.379 106.663 350.468 106.663 349.906 106.101C349.344 105.54 349.344 104.629 349.906 104.067L368.719 85.2534C369.281 84.6916 370.192 84.6916 370.754 85.2534Z" fill="#333333"/>
<path fill-rule="evenodd" clip-rule="evenodd" d="M364.577 86.0693C363.314 85.846 361.864 85.7188 360.322 85.7188C355.434 85.7188 351.469 86.9971 351.469 88.5645V90.3431C351.469 91.6054 354.041 92.6802 357.596 93.0508L364.577 86.0693ZM356.454 94.1919C354.438 93.9013 352.649 93.3665 351.469 92.5663V96.5681C351.469 97.0856 351.901 97.5715 352.656 97.9904L356.454 94.1919ZM355.718 98.998L360.26 94.456C360.28 94.456 360.301 94.4561 360.322 94.4561C363.792 94.4561 367.273 93.8558 369.176 92.5663V96.5681C369.176 98.1355 365.21 99.4138 360.322 99.4138C358.636 99.4138 357.059 99.2617 355.718 98.998ZM351.704 98.9424C351.623 98.8931 351.545 98.8428 351.469 98.7913V99.1776L351.704 98.9424ZM351.546 103.17L354.643 100.073C356.34 100.484 358.333 100.681 360.322 100.681C363.792 100.681 367.273 100.081 369.176 98.7913V102.793C369.176 104.361 365.21 105.639 360.322 105.639C355.832 105.639 352.12 104.56 351.546 103.17ZM361.554 93.1614L367.715 87.0004C368.638 87.4497 369.176 87.9875 369.176 88.5645V90.3431C369.176 91.7764 365.859 92.968 361.554 93.1614Z" fill="#333333"/>
<path d="M417.879 88.5645V90.3431C417.879 91.9104 413.913 93.1888 409.025 93.1888C404.137 93.1888 400.172 91.9104 400.172 90.3431V88.5645C400.172 86.9971 404.137 85.7188 409.025 85.7188C413.913 85.7188 417.879 86.9971 417.879 88.5645ZM417.879 92.5663V96.5681C417.879 98.1355 413.913 99.4138 409.025 99.4138C404.137 99.4138 400.172 98.1355 400.172 96.5681V92.5663C402.074 93.8558 405.555 94.4561 409.025 94.4561C412.495 94.4561 415.977 93.8558 417.879 92.5663ZM417.879 98.7913V102.793C417.879 104.361 413.913 105.639 409.025 105.639C404.137 105.639 400.172 104.361 400.172 102.793V98.7913C402.074 100.081 405.555 100.681 409.025 100.681C412.495 100.681 415.977 100.081 417.879 98.7913Z" fill="#6C79F9"/>
<path d="M463.251 85.7188H449.971C448.743 85.7188 447.758 86.7148 447.758 87.9321V103.426C447.758 104.643 448.743 105.639 449.971 105.639H465.465C466.682 105.639 467.678 104.643 467.678 103.426V90.1454L463.251 85.7188ZM457.718 103.426C455.881 103.426 454.398 101.943 454.398 100.106C454.398 98.2684 455.881 96.7855 457.718 96.7855C459.555 96.7855 461.038 98.2684 461.038 100.106C461.038 101.943 459.555 103.426 457.718 103.426ZM461.038 92.3588H449.971V87.9321H461.038V92.3588Z" fill="#333333"/>
<g clip-path="url(#clip1_1586_16154)">
<path d="M13.889 144.305H11.3351H8.78125" stroke="#333333" stroke-width="1.66001" stroke-linecap="round"/>
<path d="M8.78125 149.412V146.859V144.305" stroke="#333333" stroke-width="1.66001" stroke-linecap="round"/>
<path d="M14.7403 150.264L11.8459 147.369L8.78125 144.305" stroke="#333333" stroke-width="1.66001" stroke-linecap="round"/>
<path d="M8.78125 157.926V160.48V163.034" stroke="#333333" stroke-width="1.66001" stroke-linecap="round"/>
<path d="M13.889 163.035H11.3351H8.78125" stroke="#333333" stroke-width="1.66001" stroke-linecap="round"/>
<path d="M14.7403 157.074L11.6756 160.139L8.78125 163.033" stroke="#333333" stroke-width="1.66001" stroke-linecap="round"/>
<path d="M22.3984 163.035H24.9523H27.5062" stroke="#333333" stroke-width="1.66001" stroke-linecap="round"/>
<path d="M27.5078 157.926V160.48V163.034" stroke="#333333" stroke-width="1.66001" stroke-linecap="round"/>
<path d="M21.5547 157.074L24.6193 160.139L27.5137 163.033" stroke="#333333" stroke-width="1.66001" stroke-linecap="round"/>
<path d="M27.5078 149.412V146.859V144.305" stroke="#333333" stroke-width="1.66001" stroke-linecap="round"/>
<path d="M22.3984 144.305H24.9523H27.5062" stroke="#333333" stroke-width="1.66001" stroke-linecap="round"/>
<path d="M21.5547 150.264L24.6193 147.199L27.5137 144.305" stroke="#333333" stroke-width="1.66001" stroke-linecap="round"/>
</g>
<g clip-path="url(#clip2_1586_16154)">
<path d="M56.7656 143.262C56.7656 142.622 57.4057 142.302 57.8858 142.622L70.3675 149.823C70.8476 150.143 70.8476 150.943 70.3675 151.263L57.8858 158.464C57.4057 158.784 56.7656 158.464 56.7656 157.824V143.262Z" fill="#333333"/>
<path d="M71.3316 163.264H68.4512L67.9712 164.864H66.2109L69.2514 156.863H70.8516L73.892 164.864H72.1317L71.3316 163.264ZM68.9313 161.824H71.0116L70.0515 158.783L68.9313 161.824ZM75.9723 164.864H74.3721V156.383H75.9723V164.864ZM79.0127 164.864H77.4125V156.383H79.0127V164.864Z" fill="#333333"/>
</g>
<g clip-path="url(#clip3_1586_16154)">
<path d="M110.828 146.75H124.662V160.583H110.828V146.75Z" fill="#333333"/>
</g>
<g clip-path="url(#clip4_1586_16154)">
<path d="M166.711 161.883C171.712 161.883 175.765 157.829 175.765 152.828C175.765 147.827 171.712 143.773 166.711 143.773C161.71 143.773 157.656 147.827 157.656 152.828C157.656 157.829 161.71 161.883 166.711 161.883Z" stroke="#333333" stroke-width="1.66001" stroke-linecap="round"/>
<path d="M173.922 160.039L175.766 161.884L177.611 163.728" stroke="#333333" stroke-width="1.66001" stroke-linecap="round"/>
<path d="M166.875 149.641V152.994V156.348" stroke="#333333" stroke-width="1.66001" stroke-linecap="round"/>
<path d="M170.231 153H166.877H163.523" stroke="#333333" stroke-width="1.66001" stroke-linecap="round"/>
</g>
<g clip-path="url(#clip5_1586_16154)">
<path d="M216.516 161.883C221.516 161.883 225.57 157.829 225.57 152.828C225.57 147.827 221.516 143.773 216.516 143.773C211.515 143.773 207.461 147.827 207.461 152.828C207.461 157.829 211.515 161.883 216.516 161.883Z" stroke="#333333" stroke-width="1.66001" stroke-linecap="round"/>
<path d="M223.727 160.039L225.571 161.884L227.415 163.728" stroke="#333333" stroke-width="1.66001" stroke-linecap="round"/>
<path d="M220.035 153H216.682H213.328" stroke="#333333" stroke-width="1.66001" stroke-linecap="round"/>
</g>
<g clip-path="url(#clip6_1586_16154)">
<path d="M265.762 143.984C260.436 143.984 256.078 148.342 256.078 153.668C256.078 158.994 260.436 163.351 265.762 163.351C271.087 163.351 275.445 158.994 275.445 153.668C275.445 148.342 271.087 143.984 265.762 143.984ZM270.216 152.118L264.503 156.476C264.309 156.573 264.212 156.67 264.019 156.67C263.825 156.67 263.631 156.573 263.437 156.476L261.307 154.346C260.92 153.958 260.92 153.474 261.307 153.184C261.694 152.893 262.179 152.893 262.469 153.184L264.115 154.83L269.248 150.956C269.635 150.666 270.119 150.763 270.41 151.15C270.603 151.344 270.506 151.925 270.216 152.118Z" fill="#419640"/>
</g>
<g clip-path="url(#clip7_1586_16154)">
<path d="M312.793 143.984C307.467 143.984 303.109 148.342 303.109 153.668C303.109 158.994 307.467 163.351 312.793 163.351C318.119 163.351 322.476 158.994 322.476 153.668C322.476 148.342 318.119 143.984 312.793 143.984ZM312.212 148.729H313.374C313.664 148.729 313.858 148.923 313.858 149.213L313.664 155.217C313.664 155.508 313.471 155.701 313.18 155.701H312.405C312.115 155.701 311.921 155.508 311.921 155.217L311.728 149.213C311.728 148.923 311.921 148.729 312.212 148.729ZM313.567 158.606C313.374 158.8 313.083 158.897 312.793 158.897C312.502 158.897 312.212 158.8 312.018 158.606C311.824 158.413 311.728 158.122 311.728 157.832C311.728 157.541 311.824 157.251 312.018 157.057C312.212 156.863 312.502 156.766 312.793 156.766C313.083 156.766 313.374 156.863 313.567 157.057C313.761 157.251 313.858 157.541 313.858 157.832C313.955 158.219 313.858 158.413 313.567 158.606Z" fill="#F44336"/>
</g>
<g clip-path="url(#clip8_1586_16154)">
<path d="M359.832 143.984C354.506 143.984 350.148 148.342 350.148 153.668C350.148 158.994 354.506 163.351 359.832 163.351C365.158 163.351 369.515 158.994 369.515 153.668C369.515 148.342 365.158 143.984 359.832 143.984ZM362.834 155.508C363.124 155.798 363.124 156.379 362.834 156.67C362.64 156.863 362.446 156.863 362.253 156.863C362.059 156.863 361.865 156.766 361.672 156.67L359.832 154.83L357.992 156.67C357.798 156.863 357.605 156.863 357.411 156.863C357.217 156.863 357.024 156.766 356.83 156.67C356.539 156.379 356.539 155.798 356.83 155.508L358.67 153.668L356.83 151.828C356.539 151.537 356.539 150.956 356.83 150.666C357.12 150.375 357.701 150.375 357.992 150.666L359.832 152.506L361.672 150.666C361.962 150.375 362.543 150.375 362.834 150.666C363.124 150.956 363.124 151.537 362.834 151.828L360.994 153.668L362.834 155.508Z" fill="#333333"/>
</g>
<path d="M410.492 148.479H413.086C413.605 148.479 413.951 148.825 413.951 149.344V150.208H402.711V149.344C402.711 148.825 403.143 148.479 403.576 148.479H406.169C406.342 147.528 407.293 146.75 408.331 146.75C409.368 146.75 410.319 147.528 410.492 148.479ZM407.034 148.479H409.628C409.455 147.96 408.85 147.615 408.331 147.615C407.812 147.615 407.207 147.96 407.034 148.479ZM403.576 151.073H413.086L412.308 159.805C412.308 160.238 411.876 160.583 411.443 160.583H405.218C404.786 160.583 404.44 160.238 404.354 159.805L403.576 151.073Z" fill="#333333"/>
<path fill-rule="evenodd" clip-rule="evenodd" d="M462.477 153.01L458.986 149.52L451.482 157.024L451.133 160.165V160.34C451.133 160.689 451.482 160.863 451.831 160.863L454.972 160.514L462.477 153.01Z" fill="#333333"/>
<path d="M464.71 148.744L463.117 147.152C462.859 146.894 462.509 146.75 462.144 146.75C461.779 146.75 461.429 146.894 461.171 147.152L459.578 148.744L463.117 152.283L464.71 150.691C464.967 150.432 465.111 150.082 465.111 149.717C465.111 149.353 464.967 149.003 464.71 148.744Z" fill="#333333"/>
<g clip-path="url(#clip9_1586_16154)">
<path d="M32.401 18.3013C32.401 22.2938 30.61 24.4977 28.8763 26.6292L28.8521 26.6589C28.252 27.3973 27.6313 28.1609 27.0466 29.0381C26.8059 29.4022 26.407 30.802 26.0485 32.4403H15.1918C14.8366 30.8055 14.4394 29.4093 14.197 29.0452C13.6007 28.1669 12.9776 27.4031 12.3763 26.6658L12.3724 26.661C10.6319 24.5366 8.83594 22.3398 8.83594 18.3013C8.83594 11.481 14.1229 5.92969 20.6184 5.92969C27.114 5.92969 32.401 11.481 32.401 18.3013Z" fill="url(#paint0_radial_1586_16154)"/>
<circle cx="14.7269" cy="14.7659" r="2.94563" fill="white"/>
<rect x="13.25" y="32.4414" width="14.7281" height="4.41844" rx="2.20922" fill="#D9D9D9"/>
<rect x="16.1953" y="38.332" width="8.83688" height="4.41844" rx="2.20922" fill="#D9D9D9"/>
<circle cx="35.3444" cy="14.7663" r="5.89125" fill="#FF0000"/>
</g>
<rect x="71.5078" y="2.98438" width="29.3851" height="33.6774" rx="2.94563" transform="rotate(15 71.5078 2.98438)" fill="url(#paint1_linear_1586_16154)"/>
<g filter="url(#filter0_i_1586_16154)">
<mask id="mask0_1586_16154" style="mask-type:alpha" maskUnits="userSpaceOnUse" x="67" y="31" width="26" height="11">
<path d="M67.956 32.8002C68.2392 31.7434 69.3255 31.1163 70.3823 31.3994L92.7067 37.3812L91.6812 41.2083L69.3568 35.2265C68.3 34.9433 67.6729 33.857 67.956 32.8002V32.8002Z" fill="white"/>
</mask>
<g mask="url(#mask0_1586_16154)">
<path d="M69.9642 8.70463C70.3852 7.13324 72.0004 6.20071 73.5718 6.62176L96.2652 12.7024C97.8366 13.1235 98.7691 14.7387 98.348 16.3101L91.9256 40.2791C91.5045 41.8505 89.8893 42.783 88.3179 42.362L65.6246 36.2813C64.0532 35.8603 63.1206 34.2451 63.5417 32.6737L69.9642 8.70463Z" fill="white"/>
</g>
</g>
<mask id="mask1_1586_16154" style="mask-type:alpha" maskUnits="userSpaceOnUse" x="62" y="2" width="14" height="35">
<rect x="71.5078" y="2.98438" width="4.29221" height="33.6774" transform="rotate(15 71.5078 2.98438)" fill="url(#paint2_linear_1586_16154)"/>
</mask>
<g mask="url(#mask1_1586_16154)">
<rect x="71.5078" y="2.98438" width="29.3851" height="33.6774" rx="2.94563" transform="rotate(15 71.5078 2.98438)" fill="url(#paint3_linear_1586_16154)"/>
</g>
<rect x="130.008" y="5.42969" width="32.4019" height="32.4019" rx="16.2009" fill="#AD7DFC"/>
<path d="M134.43 41.7796V31.5938H148.011L134.43 41.7796Z" fill="#AD7DFC"/>
<circle cx="140.317" cy="21.6291" r="1.47281" fill="white"/>
<circle cx="146.207" cy="21.6291" r="1.47281" fill="white"/>
<circle cx="152.098" cy="21.6291" r="1.47281" fill="white"/>
<path d="M217.83 42.7519V25.0781H200.156V42.7519L208.993 36.9377L217.83 42.7519Z" fill="#0DBC5D"/>
<circle cx="208.994" cy="19.1852" r="14.7281" fill="url(#paint4_linear_1586_16154)"/>
<circle cx="208.993" cy="19.1842" r="5.89125" fill="#F0FFF4"/>
<mask id="path-64-inside-1_1586_16154" fill="white">
<path fill-rule="evenodd" clip-rule="evenodd" d="M251.163 26.9531L280.969 26.9531L280.969 19.5038C280.969 19.5031 280.969 19.5024 280.969 19.5016C280.968 11.272 274.296 4.60088 266.066 4.60088C257.836 4.60088 251.164 11.272 251.163 19.5016C251.163 19.5024 251.163 19.5031 251.163 19.5038L251.163 26.9531Z"/>
</mask>
<path d="M280.969 26.9531L280.969 30.1662L284.182 30.1662L284.182 26.9531L280.969 26.9531ZM251.163 26.9531L247.95 26.9531L247.95 30.1662L251.163 30.1662L251.163 26.9531ZM280.969 19.5016L284.182 19.5016L284.182 19.5012L280.969 19.5016ZM251.163 19.5016L247.95 19.5012L247.95 19.5016L251.163 19.5016ZM251.163 19.5038L247.95 19.5038L247.95 19.5038L251.163 19.5038ZM280.969 23.7401L251.163 23.7401L251.163 30.1662L280.969 30.1662L280.969 23.7401ZM277.756 19.5038L277.756 26.9531L284.182 26.9531L284.182 19.5038L277.756 19.5038ZM284.182 19.5038C284.182 19.5038 284.182 19.5038 284.182 19.5038C284.182 19.5038 284.182 19.5038 284.182 19.5038C284.182 19.5038 284.182 19.5038 284.182 19.5038C284.182 19.5038 284.182 19.5038 284.182 19.5038C284.182 19.5038 284.182 19.5038 284.182 19.5038C284.182 19.5038 284.182 19.5038 284.182 19.5038C284.182 19.5038 284.182 19.5038 284.182 19.5038C284.182 19.5038 284.182 19.5038 284.182 19.5038C284.182 19.5038 284.182 19.5038 284.182 19.5038C284.182 19.5038 284.182 19.5038 284.182 19.5038C284.182 19.5038 284.182 19.5038 284.182 19.5038C284.182 19.5038 284.182 19.5038 284.182 19.5038C284.182 19.5038 284.182 19.5038 284.182 19.5038C284.182 19.5038 284.182 19.5038 284.182 19.5038C284.182 19.5038 284.182 19.5038 284.182 19.5038C284.182 19.5038 284.182 19.5038 284.182 19.5038C284.182 19.5038 284.182 19.5038 284.182 19.5038C284.182 19.5038 284.182 19.5038 284.182 19.5038C284.182 19.5038 284.182 19.5038 284.182 19.5038C284.182 19.5038 284.182 19.5037 284.182 19.5037C284.182 19.5037 284.182 19.5037 284.182 19.5037C284.182 19.5037 284.182 19.5037 284.182 19.5037C284.182 19.5037 284.182 19.5037 284.182 19.5037C284.182 19.5037 284.182 19.5037 284.182 19.5037C284.182 19.5037 284.182 19.5037 284.182 19.5037C284.182 19.5037 284.182 19.5037 284.182 19.5037C284.182 19.5037 284.182 19.5037 284.182 19.5037C284.182 19.5037 284.182 19.5037 284.182 19.5037C284.182 19.5037 284.182 19.5037 284.182 19.5037C284.182 19.5037 284.182 19.5037 284.182 19.5037C284.182 19.5037 284.182 19.5037 284.182 19.5037C284.182 19.5037 284.182 19.5037 284.182 19.5037C284.182 19.5037 284.182 19.5037 284.182 19.5037C284.182 19.5037 284.182 19.5037 284.182 19.5037C284.182 19.5037 284.182 19.5037 284.182 19.5037C284.182 19.5037 284.182 19.5037 284.182 19.5037C284.182 19.5037 284.182 19.5037 284.182 19.5037C284.182 19.5037 284.182 19.5037 284.182 19.5037C284.182 19.5037 284.182 19.5037 284.182 19.5037C284.182 19.5037 284.182 19.5037 284.182 19.5037C284.182 19.5037 284.182 19.5037 284.182 19.5037C284.182 19.5037 284.182 19.5037 284.182 19.5037C284.182 19.5037 284.182 19.5037 284.182 19.5036C284.182 19.5036 284.182 19.5036 284.182 19.5036C284.182 19.5036 284.182 19.5036 284.182 19.5036C284.182 19.5036 284.182 19.5036 284.182 19.5036C284.182 19.5036 284.182 19.5036 284.182 19.5036C284.182 19.5036 284.182 19.5036 284.182 19.5036C284.182 19.5036 284.182 19.5036 284.182 19.5036C284.182 19.5036 284.182 19.5036 284.182 19.5036C284.182 19.5036 284.182 19.5036 284.182 19.5036C284.182 19.5036 284.182 19.5036 284.182 19.5036C284.182 19.5036 284.182 19.5036 284.182 19.5036C284.182 19.5036 284.182 19.5036 284.182 19.5036C284.182 19.5036 284.182 19.5036 284.182 19.5036C284.182 19.5036 284.182 19.5036 284.182 19.5036C284.182 19.5036 284.182 19.5036 284.182 19.5036C284.182 19.5036 284.182 19.5036 284.182 19.5036C284.182 19.5036 284.182 19.5036 284.182 19.5036C284.182 19.5036 284.182 19.5036 284.182 19.5036C284.182 19.5036 284.182 19.5036 284.182 19.5036C284.182 19.5036 284.182 19.5036 284.182 19.5036C284.182 19.5036 284.182 19.5036 284.182 19.5036C284.182 19.5036 284.182 19.5036 284.182 19.5036C284.182 19.5036 284.182 19.5036 284.182 19.5036C284.182 19.5036 284.182 19.5036 284.182 19.5036C284.182 19.5035 284.182 19.5035 284.182 19.5035C284.182 19.5035 284.182 19.5035 284.182 19.5035C284.182 19.5035 284.182 19.5035 284.182 19.5035C284.182 19.5035 284.182 19.5035 284.182 19.5035C284.182 19.5035 284.182 19.5035 284.182 19.5035C284.182 19.5035 284.182 19.5035 284.182 19.5035C284.182 19.5035 284.182 19.5035 284.182 19.5035C284.182 19.5035 284.182 19.5035 284.182 19.5035C284.182 19.5035 284.182 19.5035 284.182 19.5035C284.182 19.5035 284.182 19.5035 284.182 19.5035C284.182 19.5035 284.182 19.5035 284.182 19.5035C284.182 19.5035 284.182 19.5035 284.182 19.5035C284.182 19.5035 284.182 19.5035 284.182 19.5035C284.182 19.5035 284.182 19.5035 284.182 19.5035C284.182 19.5035 284.182 19.5035 284.182 19.5035C284.182 19.5035 284.182 19.5035 284.182 19.5035C284.182 19.5035 284.182 19.5035 284.182 19.5035C284.182 19.5035 284.182 19.5035 284.182 19.5035C284.182 19.5035 284.182 19.5035 284.182 19.5035C284.182 19.5035 284.182 19.5035 284.182 19.5035C284.182 19.5035 284.182 19.5035 284.182 19.5035C284.182 19.5035 284.182 19.5035 284.182 19.5035C284.182 19.5035 284.182 19.5035 284.182 19.5035C284.182 19.5035 284.182 19.5035 284.182 19.5034C284.182 19.5034 284.182 19.5034 284.182 19.5034C284.182 19.5034 284.182 19.5034 284.182 19.5034C284.182 19.5034 284.182 19.5034 284.182 19.5034C284.182 19.5034 284.182 19.5034 284.182 19.5034C284.182 19.5034 284.182 19.5034 284.182 19.5034C284.182 19.5034 284.182 19.5034 284.182 19.5034C284.182 19.5034 284.182 19.5034 284.182 19.5034C284.182 19.5034 284.182 19.5034 284.182 19.5034C284.182 19.5034 284.182 19.5034 284.182 19.5034C284.182 19.5034 284.182 19.5034 284.182 19.5034C284.182 19.5034 284.182 19.5034 284.182 19.5034C284.182 19.5034 284.182 19.5034 284.182 19.5034C284.182 19.5034 284.182 19.5034 284.182 19.5034C284.182 19.5034 284.182 19.5034 284.182 19.5034C284.182 19.5034 284.182 19.5034 284.182 19.5034C284.182 19.5034 284.182 19.5034 284.182 19.5034C284.182 19.5034 284.182 19.5034 284.182 19.5034C284.182 19.5034 284.182 19.5034 284.182 19.5034C284.182 19.5034 284.182 19.5034 284.182 19.5034C284.182 19.5034 284.182 19.5034 284.182 19.5034C284.182 19.5034 284.182 19.5034 284.182 19.5034C284.182 19.5034 284.182 19.5034 284.182 19.5034C284.182 19.5034 284.182 19.5034 284.182 19.5034C284.182 19.5033 284.182 19.5033 284.182 19.5033C284.182 19.5033 284.182 19.5033 284.182 19.5033C284.182 19.5033 284.182 19.5033 284.182 19.5033C284.182 19.5033 284.182 19.5033 284.182 19.5033C284.182 19.5033 284.182 19.5033 284.182 19.5033C284.182 19.5033 284.182 19.5033 284.182 19.5033C284.182 19.5033 284.182 19.5033 284.182 19.5033C284.182 19.5033 284.182 19.5033 284.182 19.5033C284.182 19.5033 284.182 19.5033 284.182 19.5033C284.182 19.5033 284.182 19.5033 284.182 19.5033C284.182 19.5033 284.182 19.5033 284.182 19.5033C284.182 19.5033 284.182 19.5033 284.182 19.5033C284.182 19.5033 284.182 19.5033 284.182 19.5033C284.182 19.5033 284.182 19.5033 284.182 19.5033C284.182 19.5033 284.182 19.5033 284.182 19.5033C284.182 19.5033 284.182 19.5033 284.182 19.5033C284.182 19.5033 284.182 19.5033 284.182 19.5033C284.182 19.5033 284.182 19.5033 284.182 19.5033C284.182 19.5033 284.182 19.5033 284.182 19.5033C284.182 19.5033 284.182 19.5033 284.182 19.5033C284.182 19.5033 284.182 19.5033 284.182 19.5033C284.182 19.5033 284.182 19.5033 284.182 19.5033C284.182 19.5033 284.182 19.5033 284.182 19.5033C284.182 19.5033 284.182 19.5032 284.182 19.5032C284.182 19.5032 284.182 19.5032 284.182 19.5032C284.182 19.5032 284.182 19.5032 284.182 19.5032C284.182 19.5032 284.182 19.5032 284.182 19.5032C284.182 19.5032 284.182 19.5032 284.182 19.5032C284.182 19.5032 284.182 19.5032 284.182 19.5032C284.182 19.5032 284.182 19.5032 284.182 19.5032C284.182 19.5032 284.182 19.5032 284.182 19.5032C284.182 19.5032 284.182 19.5032 284.182 19.5032C284.182 19.5032 284.182 19.5032 284.182 19.5032C284.182 19.5032 284.182 19.5032 284.182 19.5032C284.182 19.5032 284.182 19.5032 284.182 19.5032C284.182 19.5032 284.182 19.5032 284.182 19.5032C284.182 19.5032 284.182 19.5032 284.182 19.5032C284.182 19.5032 284.182 19.5032 284.182 19.5032C284.182 19.5032 284.182 19.5032 284.182 19.5032C284.182 19.5032 284.182 19.5032 284.182 19.5032C284.182 19.5032 284.182 19.5032 284.182 19.5032C284.182 19.5032 284.182 19.5032 284.182 19.5032C284.182 19.5032 284.182 19.5032 284.182 19.5032C284.182 19.5032 284.182 19.5032 284.182 19.5032C284.182 19.5032 284.182 19.5032 284.182 19.5032C284.182 19.5032 284.182 19.5032 284.182 19.5032C284.182 19.5032 284.182 19.5032 284.182 19.5032C284.182 19.5031 284.182 19.5031 284.182 19.5031C284.182 19.5031 284.182 19.5031 284.182 19.5031C284.182 19.5031 284.182 19.5031 284.182 19.5031C284.182 19.5031 284.182 19.5031 284.182 19.5031C284.182 19.5031 284.182 19.5031 284.182 19.5031C284.182 19.5031 284.182 19.5031 284.182 19.5031C284.182 19.5031 284.182 19.5031 284.182 19.5031C284.182 19.5031 284.182 19.5031 284.182 19.5031C284.182 19.5031 284.182 19.5031 284.182 19.5031C284.182 19.5031 284.182 19.5031 284.182 19.5031C284.182 19.5031 284.182 19.5031 284.182 19.5031C284.182 19.5031 284.182 19.5031 284.182 19.5031C284.182 19.5031 284.182 19.5031 284.182 19.5031C284.182 19.5031 284.182 19.5031 284.182 19.5031C284.182 19.5031 284.182 19.5031 284.182 19.5031C284.182 19.5031 284.182 19.5031 284.182 19.5031C284.182 19.5031 284.182 19.5031 284.182 19.5031C284.182 19.5031 284.182 19.5031 284.182 19.5031C284.182 19.5031 284.182 19.5031 284.182 19.5031C284.182 19.5031 284.182 19.5031 284.182 19.5031C284.182 19.5031 284.182 19.5031 284.182 19.5031C284.182 19.5031 284.182 19.5031 284.182 19.5031C284.182 19.5031 284.182 19.5031 284.182 19.5031C284.182 19.5031 284.182 19.503 284.182 19.503C284.182 19.503 284.182 19.503 284.182 19.503C284.182 19.503 284.182 19.503 284.182 19.503C284.182 19.503 284.182 19.503 284.182 19.503C284.182 19.503 284.182 19.503 284.182 19.503C284.182 19.503 284.182 19.503 284.182 19.503C284.182 19.503 284.182 19.503 284.182 19.503C284.182 19.503 284.182 19.503 284.182 19.503C284.182 19.503 284.182 19.503 284.182 19.503C284.182 19.503 284.182 19.503 284.182 19.503C284.182 19.503 284.182 19.503 284.182 19.503C284.182 19.503 284.182 19.503 284.182 19.503C284.182 19.503 284.182 19.503 284.182 19.503C284.182 19.503 284.182 19.503 284.182 19.503C284.182 19.503 284.182 19.503 284.182 19.503C284.182 19.503 284.182 19.503 284.182 19.503C284.182 19.503 284.182 19.503 284.182 19.503C284.182 19.503 284.182 19.503 284.182 19.503C284.182 19.503 284.182 19.503 284.182 19.503C284.182 19.503 284.182 19.503 284.182 19.503C284.182 19.503 284.182 19.503 284.182 19.503C284.182 19.503 284.182 19.503 284.182 19.503C284.182 19.503 284.182 19.503 284.182 19.503C284.182 19.503 284.182 19.503 284.182 19.5029C284.182 19.5029 284.182 19.5029 284.182 19.5029C284.182 19.5029 284.182 19.5029 284.182 19.5029C284.182 19.5029 284.182 19.5029 284.182 19.5029C284.182 19.5029 284.182 19.5029 284.182 19.5029C284.182 19.5029 284.182 19.5029 284.182 19.5029C284.182 19.5029 284.182 19.5029 284.182 19.5029C284.182 19.5029 284.182 19.5029 284.182 19.5029C284.182 19.5029 284.182 19.5029 284.182 19.5029C284.182 19.5029 284.182 19.5029 284.182 19.5029C284.182 19.5029 284.182 19.5029 284.182 19.5029C284.182 19.5029 284.182 19.5029 284.182 19.5029C284.182 19.5029 284.182 19.5029 284.182 19.5029C284.182 19.5029 284.182 19.5029 284.182 19.5029C284.182 19.5029 284.182 19.5029 284.182 19.5029C284.182 19.5029 284.182 19.5029 284.182 19.5029C284.182 19.5029 284.182 19.5029 284.182 19.5029C284.182 19.5029 284.182 19.5029 284.182 19.5029C284.182 19.5029 284.182 19.5029 284.182 19.5029C284.182 19.5029 284.182 19.5029 284.182 19.5029C284.182 19.5029 284.182 19.5029 284.182 19.5029C284.182 19.5029 284.182 19.5029 284.182 19.5029C284.182 19.5029 284.182 19.5029 284.182 19.5029C284.182 19.5029 284.182 19.5029 284.182 19.5029C284.182 19.5029 284.182 19.5028 284.182 19.5028C284.182 19.5028 284.182 19.5028 284.182 19.5028C284.182 19.5028 284.182 19.5028 284.182 19.5028C284.182 19.5028 284.182 19.5028 284.182 19.5028C284.182 19.5028 284.182 19.5028 284.182 19.5028C284.182 19.5028 284.182 19.5028 284.182 19.5028C284.182 19.5028 284.182 19.5028 284.182 19.5028C284.182 19.5028 284.182 19.5028 284.182 19.5028C284.182 19.5028 284.182 19.5028 284.182 19.5028C284.182 19.5028 284.182 19.5028 284.182 19.5028C284.182 19.5028 284.182 19.5028 284.182 19.5028C284.182 19.5028 284.182 19.5028 284.182 19.5028C284.182 19.5028 284.182 19.5028 284.182 19.5028C284.182 19.5028 284.182 19.5028 284.182 19.5028C284.182 19.5028 284.182 19.5028 284.182 19.5028C284.182 19.5028 284.182 19.5028 284.182 19.5028C284.182 19.5028 284.182 19.5028 284.182 19.5028C284.182 19.5028 284.182 19.5028 284.182 19.5028C284.182 19.5028 284.182 19.5028 284.182 19.5028C284.182 19.5028 284.182 19.5028 284.182 19.5028C284.182 19.5028 284.182 19.5028 284.182 19.5028C284.182 19.5028 284.182 19.5028 284.182 19.5028C284.182 19.5028 284.182 19.5028 284.182 19.5028C284.182 19.5028 284.182 19.5028 284.182 19.5027C284.182 19.5027 284.182 19.5027 284.182 19.5027C284.182 19.5027 284.182 19.5027 284.182 19.5027C284.182 19.5027 284.182 19.5027 284.182 19.5027C284.182 19.5027 284.182 19.5027 284.182 19.5027C284.182 19.5027 284.182 19.5027 284.182 19.5027C284.182 19.5027 284.182 19.5027 284.182 19.5027C284.182 19.5027 284.182 19.5027 284.182 19.5027C284.182 19.5027 284.182 19.5027 284.182 19.5027C284.182 19.5027 284.182 19.5027 284.182 19.5027C284.182 19.5027 284.182 19.5027 284.182 19.5027C284.182 19.5027 284.182 19.5027 284.182 19.5027C284.182 19.5027 284.182 19.5027 284.182 19.5027C284.182 19.5027 284.182 19.5027 284.182 19.5027C284.182 19.5027 284.182 19.5027 284.182 19.5027C284.182 19.5027 284.182 19.5027 284.182 19.5027C284.182 19.5027 284.182 19.5027 284.182 19.5027C284.182 19.5027 284.182 19.5027 284.182 19.5027C284.182 19.5027 284.182 19.5027 284.182 19.5027C284.182 19.5027 284.182 19.5027 284.182 19.5027C284.182 19.5027 284.182 19.5027 284.182 19.5027C284.182 19.5027 284.182 19.5027 284.182 19.5027C284.182 19.5027 284.182 19.5027 284.182 19.5027C284.182 19.5027 284.182 19.5027 284.182 19.5027C284.182 19.5027 284.182 19.5026 284.182 19.5026C284.182 19.5026 284.182 19.5026 284.182 19.5026C284.182 19.5026 284.182 19.5026 284.182 19.5026C284.182 19.5026 284.182 19.5026 284.182 19.5026C284.182 19.5026 284.182 19.5026 284.182 19.5026C284.182 19.5026 284.182 19.5026 284.182 19.5026C284.182 19.5026 284.182 19.5026 284.182 19.5026C284.182 19.5026 284.182 19.5026 284.182 19.5026C284.182 19.5026 284.182 19.5026 284.182 19.5026C284.182 19.5026 284.182 19.5026 284.182 19.5026C284.182 19.5026 284.182 19.5026 284.182 19.5026C284.182 19.5026 284.182 19.5026 284.182 19.5026C284.182 19.5026 284.182 19.5026 284.182 19.5026C284.182 19.5026 284.182 19.5026 284.182 19.5026C284.182 19.5026 284.182 19.5026 284.182 19.5026C284.182 19.5026 284.182 19.5026 284.182 19.5026C284.182 19.5026 284.182 19.5026 284.182 19.5026C284.182 19.5026 284.182 19.5026 284.182 19.5026C284.182 19.5026 284.182 19.5026 284.182 19.5026C284.182 19.5026 284.182 19.5026 284.182 19.5026C284.182 19.5026 284.182 19.5026 284.182 19.5026C284.182 19.5026 284.182 19.5026 284.182 19.5026C284.182 19.5026 284.182 19.5026 284.182 19.5026C284.182 19.5026 284.182 19.5026 284.182 19.5025C284.182 19.5025 284.182 19.5025 284.182 19.5025C284.182 19.5025 284.182 19.5025 284.182 19.5025C284.182 19.5025 284.182 19.5025 284.182 19.5025C284.182 19.5025 284.182 19.5025 284.182 19.5025C284.182 19.5025 284.182 19.5025 284.182 19.5025C284.182 19.5025 284.182 19.5025 284.182 19.5025C284.182 19.5025 284.182 19.5025 284.182 19.5025C284.182 19.5025 284.182 19.5025 284.182 19.5025C284.182 19.5025 284.182 19.5025 284.182 19.5025C284.182 19.5025 284.182 19.5025 284.182 19.5025C284.182 19.5025 284.182 19.5025 284.182 19.5025C284.182 19.5025 284.182 19.5025 284.182 19.5025C284.182 19.5025 284.182 19.5025 284.182 19.5025C284.182 19.5025 284.182 19.5025 284.182 19.5025C284.182 19.5025 284.182 19.5025 284.182 19.5025C284.182 19.5025 284.182 19.5025 284.182 19.5025C284.182 19.5025 284.182 19.5025 284.182 19.5025C284.182 19.5025 284.182 19.5025 284.182 19.5025C284.182 19.5025 284.182 19.5025 284.182 19.5025C284.182 19.5025 284.182 19.5025 284.182 19.5025C284.182 19.5025 284.182 19.5025 284.182 19.5025C284.182 19.5025 284.182 19.5025 284.182 19.5025C284.182 19.5025 284.182 19.5025 284.182 19.5025C284.182 19.5024 284.182 19.5024 284.182 19.5024C284.182 19.5024 284.182 19.5024 284.182 19.5024C284.182 19.5024 284.182 19.5024 284.182 19.5024C284.182 19.5024 284.182 19.5024 284.182 19.5024C284.182 19.5024 284.182 19.5024 284.182 19.5024C284.182 19.5024 284.182 19.5024 284.182 19.5024C284.182 19.5024 284.182 19.5024 284.182 19.5024C284.182 19.5024 284.182 19.5024 284.182 19.5024C284.182 19.5024 284.182 19.5024 284.182 19.5024C284.182 19.5024 284.182 19.5024 284.182 19.5024C284.182 19.5024 284.182 19.5024 284.182 19.5024C284.182 19.5024 284.182 19.5024 284.182 19.5024C284.182 19.5024 284.182 19.5024 284.182 19.5024C284.182 19.5024 284.182 19.5024 284.182 19.5024C284.182 19.5024 284.182 19.5024 284.182 19.5024C284.182 19.5024 284.182 19.5024 284.182 19.5024C284.182 19.5024 284.182 19.5024 284.182 19.5024C284.182 19.5024 284.182 19.5024 284.182 19.5024C284.182 19.5024 284.182 19.5024 284.182 19.5024C284.182 19.5024 284.182 19.5024 284.182 19.5024C284.182 19.5024 284.182 19.5024 284.182 19.5024C284.182 19.5024 284.182 19.5024 284.182 19.5024C284.182 19.5024 284.182 19.5024 284.182 19.5024C284.182 19.5024 284.182 19.5023 284.182 19.5023C284.182 19.5023 284.182 19.5023 284.182 19.5023C284.182 19.5023 284.182 19.5023 284.182 19.5023C284.182 19.5023 284.182 19.5023 284.182 19.5023C284.182 19.5023 284.182 19.5023 284.182 19.5023C284.182 19.5023 284.182 19.5023 284.182 19.5023C284.182 19.5023 284.182 19.5023 284.182 19.5023C284.182 19.5023 284.182 19.5023 284.182 19.5023C284.182 19.5023 284.182 19.5023 284.182 19.5023C284.182 19.5023 284.182 19.5023 284.182 19.5023C284.182 19.5023 284.182 19.5023 284.182 19.5023C284.182 19.5023 284.182 19.5023 284.182 19.5023C284.182 19.5023 284.182 19.5023 284.182 19.5023C284.182 19.5023 284.182 19.5023 284.182 19.5023C284.182 19.5023 284.182 19.5023 284.182 19.5023C284.182 19.5023 284.182 19.5023 284.182 19.5023C284.182 19.5023 284.182 19.5023 284.182 19.5023C284.182 19.5023 284.182 19.5023 284.182 19.5023C284.182 19.5023 284.182 19.5023 284.182 19.5023C284.182 19.5023 284.182 19.5023 284.182 19.5023C284.182 19.5023 284.182 19.5023 284.182 19.5023C284.182 19.5023 284.182 19.5023 284.182 19.5023C284.182 19.5023 284.182 19.5023 284.182 19.5023C284.182 19.5023 284.182 19.5023 284.182 19.5023C284.182 19.5022 284.182 19.5022 284.182 19.5022C284.182 19.5022 284.182 19.5022 284.182 19.5022C284.182 19.5022 284.182 19.5022 284.182 19.5022C284.182 19.5022 284.182 19.5022 284.182 19.5022C284.182 19.5022 284.182 19.5022 284.182 19.5022C284.182 19.5022 284.182 19.5022 284.182 19.5022C284.182 19.5022 284.182 19.5022 284.182 19.5022C284.182 19.5022 284.182 19.5022 284.182 19.5022C284.182 19.5022 284.182 19.5022 284.182 19.5022C284.182 19.5022 284.182 19.5022 284.182 19.5022C284.182 19.5022 284.182 19.5022 284.182 19.5022C284.182 19.5022 284.182 19.5022 284.182 19.5022C284.182 19.5022 284.182 19.5022 284.182 19.5022C284.182 19.5022 284.182 19.5022 284.182 19.5022C284.182 19.5022 284.182 19.5022 284.182 19.5022C284.182 19.5022 284.182 19.5022 284.182 19.5022C284.182 19.5022 284.182 19.5022 284.182 19.5022C284.182 19.5022 284.182 19.5022 284.182 19.5022C284.182 19.5022 284.182 19.5022 284.182 19.5022C284.182 19.5022 284.182 19.5022 284.182 19.5022C284.182 19.5022 284.182 19.5022 284.182 19.5022C284.182 19.5022 284.182 19.5022 284.182 19.5022C284.182 19.5022 284.182 19.5022 284.182 19.5022C284.182 19.5022 284.182 19.5021 284.182 19.5021C284.182 19.5021 284.182 19.5021 284.182 19.5021C284.182 19.5021 284.182 19.5021 284.182 19.5021C284.182 19.5021 284.182 19.5021 284.182 19.5021C284.182 19.5021 284.182 19.5021 284.182 19.5021C284.182 19.5021 284.182 19.5021 284.182 19.5021C284.182 19.5021 284.182 19.5021 284.182 19.5021C284.182 19.5021 284.182 19.5021 284.182 19.5021C284.182 19.5021 284.182 19.5021 284.182 19.5021C284.182 19.5021 284.182 19.5021 284.182 19.5021C284.182 19.5021 284.182 19.5021 284.182 19.5021C284.182 19.5021 284.182 19.5021 284.182 19.5021C284.182 19.5021 284.182 19.5021 284.182 19.5021C284.182 19.5021 284.182 19.5021 284.182 19.5021C284.182 19.5021 284.182 19.5021 284.182 19.5021C284.182 19.5021 284.182 19.5021 284.182 19.5021C284.182 19.5021 284.182 19.5021 284.182 19.5021C284.182 19.5021 284.182 19.5021 284.182 19.5021C284.182 19.5021 284.182 19.5021 284.182 19.5021C284.182 19.5021 284.182 19.5021 284.182 19.5021C284.182 19.5021 284.182 19.5021 284.182 19.5021C284.182 19.5021 284.182 19.5021 284.182 19.5021C284.182 19.5021 284.182 19.5021 284.182 19.5021C284.182 19.5021 284.182 19.5021 284.182 19.502C284.182 19.502 284.182 19.502 284.182 19.502C284.182 19.502 284.182 19.502 284.182 19.502C284.182 19.502 284.182 19.502 284.182 19.502C284.182 19.502 284.182 19.502 284.182 19.502C284.182 19.502 284.182 19.502 284.182 19.502C284.182 19.502 284.182 19.502 284.182 19.502C284.182 19.502 284.182 19.502 284.182 19.502C284.182 19.502 284.182 19.502 284.182 19.502C284.182 19.502 284.182 19.502 284.182 19.502C284.182 19.502 284.182 19.502 284.182 19.502C284.182 19.502 284.182 19.502 284.182 19.502C284.182 19.502 284.182 19.502 284.182 19.502C284.182 19.502 284.182 19.502 284.182 19.502C284.182 19.502 284.182 19.502 284.182 19.502C284.182 19.502 284.182 19.502 284.182 19.502C284.182 19.502 284.182 19.502 284.182 19.502C284.182 19.502 284.182 19.502 284.182 19.502C284.182 19.502 284.182 19.502 284.182 19.502C284.182 19.502 284.182 19.502 284.182 19.502C284.182 19.502 284.182 19.502 284.182 19.502C284.182 19.502 284.182 19.502 284.182 19.502C284.182 19.502 284.182 19.502 284.182 19.502C284.182 19.502 284.182 19.502 284.182 19.502C284.182 19.502 284.182 19.5019 284.182 19.5019C284.182 19.5019 284.182 19.5019 284.182 19.5019C284.182 19.5019 284.182 19.5019 284.182 19.5019C284.182 19.5019 284.182 19.5019 284.182 19.5019C284.182 19.5019 284.182 19.5019 284.182 19.5019C284.182 19.5019 284.182 19.5019 284.182 19.5019C284.182 19.5019 284.182 19.5019 284.182 19.5019C284.182 19.5019 284.182 19.5019 284.182 19.5019C284.182 19.5019 284.182 19.5019 284.182 19.5019C284.182 19.5019 284.182 19.5019 284.182 19.5019C284.182 19.5019 284.182 19.5019 284.182 19.5019C284.182 19.5019 284.182 19.5019 284.182 19.5019C284.182 19.5019 284.182 19.5019 284.182 19.5019C284.182 19.5019 284.182 19.5019 284.182 19.5019C284.182 19.5019 284.182 19.5019 284.182 19.5019C284.182 19.5019 284.182 19.5019 284.182 19.5019C284.182 19.5019 284.182 19.5019 284.182 19.5019C284.182 19.5019 284.182 19.5019 284.182 19.5019C284.182 19.5019 284.182 19.5019 284.182 19.5019C284.182 19.5019 284.182 19.5019 284.182 19.5019C284.182 19.5019 284.182 19.5019 284.182 19.5019C284.182 19.5019 284.182 19.5019 284.182 19.5019C284.182 19.5019 284.182 19.5019 284.182 19.5019C284.182 19.5019 284.182 19.5019 284.182 19.5018C284.182 19.5018 284.182 19.5018 284.182 19.5018C284.182 19.5018 284.182 19.5018 284.182 19.5018C284.182 19.5018 284.182 19.5018 284.182 19.5018C284.182 19.5018 284.182 19.5018 284.182 19.5018C284.182 19.5018 284.182 19.5018 284.182 19.5018C284.182 19.5018 284.182 19.5018 284.182 19.5018C284.182 19.5018 284.182 19.5018 284.182 19.5018C284.182 19.5018 284.182 19.5018 284.182 19.5018C284.182 19.5018 284.182 19.5018 284.182 19.5018C284.182 19.5018 284.182 19.5018 284.182 19.5018C284.182 19.5018 284.182 19.5018 284.182 19.5018C284.182 19.5018 284.182 19.5018 284.182 19.5018C284.182 19.5018 284.182 19.5018 284.182 19.5018C284.182 19.5018 284.182 19.5018 284.182 19.5018C284.182 19.5018 284.182 19.5018 284.182 19.5018C284.182 19.5018 284.182 19.5018 284.182 19.5018C284.182 19.5018 284.182 19.5018 284.182 19.5018C284.182 19.5018 284.182 19.5018 284.182 19.5018C284.182 19.5018 284.182 19.5018 284.182 19.5018C284.182 19.5018 284.182 19.5018 284.182 19.5018C284.182 19.5018 284.182 19.5018 284.182 19.5018C284.182 19.5018 284.182 19.5018 284.182 19.5018C284.182 19.5018 284.182 19.5018 284.182 19.5018C284.182 19.5017 284.182 19.5017 284.182 19.5017C284.182 19.5017 284.182 19.5017 284.182 19.5017C284.182 19.5017 284.182 19.5017 284.182 19.5017C284.182 19.5017 284.182 19.5017 284.182 19.5017C284.182 19.5017 284.182 19.5017 284.182 19.5017C284.182 19.5017 284.182 19.5017 284.182 19.5017C284.182 19.5017 284.182 19.5017 284.182 19.5017C284.182 19.5017 284.182 19.5017 284.182 19.5017C284.182 19.5017 284.182 19.5017 284.182 19.5017C284.182 19.5017 284.182 19.5017 284.182 19.5017C284.182 19.5017 284.182 19.5017 284.182 19.5017C284.182 19.5017 284.182 19.5017 284.182 19.5017C284.182 19.5017 284.182 19.5017 284.182 19.5017C284.182 19.5017 284.182 19.5017 284.182 19.5017C284.182 19.5017 284.182 19.5017 284.182 19.5017C284.182 19.5017 284.182 19.5017 284.182 19.5017C284.182 19.5017 284.182 19.5017 284.182 19.5017C284.182 19.5017 284.182 19.5017 284.182 19.5017C284.182 19.5017 284.182 19.5017 284.182 19.5017C284.182 19.5017 284.182 19.5017 284.182 19.5017C284.182 19.5017 284.182 19.5017 284.182 19.5017C284.182 19.5017 284.182 19.5017 284.182 19.5017C284.182 19.5017 284.182 19.5017 284.182 19.5017C284.182 19.5017 284.182 19.5017 284.182 19.5016L277.756 19.5016C277.756 19.5016 277.756 19.5017 277.756 19.5017C277.756 19.5017 277.756 19.5017 277.756 19.5017C277.756 19.5017 277.756 19.5017 277.756 19.5017C277.756 19.5017 277.756 19.5017 277.756 19.5017C277.756 19.5017 277.756 19.5017 277.756 19.5017C277.756 19.5017 277.756 19.5017 277.756 19.5017C277.756 19.5017 277.756 19.5017 277.756 19.5017C277.756 19.5017 277.756 19.5017 277.756 19.5017C277.756 19.5017 277.756 19.5017 277.756 19.5017C277.756 19.5017 277.756 19.5017 277.756 19.5017C277.756 19.5017 277.756 19.5017 277.756 19.5017C277.756 19.5017 277.756 19.5017 277.756 19.5017C277.756 19.5017 277.756 19.5017 277.756 19.5017C277.756 19.5017 277.756 19.5017 277.756 19.5017C277.756 19.5017 277.756 19.5017 277.756 19.5017C277.756 19.5017 277.756 19.5017 277.756 19.5017C277.756 19.5017 277.756 19.5017 277.756 19.5017C277.756 19.5017 277.756 19.5017 277.756 19.5017C277.756 19.5017 277.756 19.5017 277.756 19.5017C277.756 19.5017 277.756 19.5017 277.756 19.5017C277.756 19.5017 277.756 19.5017 277.756 19.5017C277.756 19.5017 277.756 19.5017 277.756 19.5017C277.756 19.5017 277.756 19.5017 277.756 19.5017C277.756 19.5017 277.756 19.5017 277.756 19.5018C277.756 19.5018 277.756 19.5018 277.756 19.5018C277.756 19.5018 277.756 19.5018 277.756 19.5018C277.756 19.5018 277.756 19.5018 277.756 19.5018C277.756 19.5018 277.756 19.5018 277.756 19.5018C277.756 19.5018 277.756 19.5018 277.756 19.5018C277.756 19.5018 277.756 19.5018 277.756 19.5018C277.756 19.5018 277.756 19.5018 277.756 19.5018C277.756 19.5018 277.756 19.5018 277.756 19.5018C277.756 19.5018 277.756 19.5018 277.756 19.5018C277.756 19.5018 277.756 19.5018 277.756 19.5018C277.756 19.5018 277.756 19.5018 277.756 19.5018C277.756 19.5018 277.756 19.5018 277.756 19.5018C277.756 19.5018 277.756 19.5018 277.756 19.5018C277.756 19.5018 277.756 19.5018 277.756 19.5018C277.756 19.5018 277.756 19.5018 277.756 19.5018C277.756 19.5018 277.756 19.5018 277.756 19.5018C277.756 19.5018 277.756 19.5018 277.756 19.5018C277.756 19.5018 277.756 19.5018 277.756 19.5018C277.756 19.5018 277.756 19.5018 277.756 19.5018C277.756 19.5018 277.756 19.5018 277.756 19.5018C277.756 19.5018 277.756 19.5018 277.756 19.5018C277.756 19.5018 277.756 19.5018 277.756 19.5018C277.756 19.5018 277.756 19.5018 277.756 19.5018C277.756 19.5019 277.756 19.5019 277.756 19.5019C277.756 19.5019 277.756 19.5019 277.756 19.5019C277.756 19.5019 277.756 19.5019 277.756 19.5019C277.756 19.5019 277.756 19.5019 277.756 19.5019C277.756 19.5019 277.756 19.5019 277.756 19.5019C277.756 19.5019 277.756 19.5019 277.756 19.5019C277.756 19.5019 277.756 19.5019 277.756 19.5019C277.756 19.5019 277.756 19.5019 277.756 19.5019C277.756 19.5019 277.756 19.5019 277.756 19.5019C277.756 19.5019 277.756 19.5019 277.756 19.5019C277.756 19.5019 277.756 19.5019 277.756 19.5019C277.756 19.5019 277.756 19.5019 277.756 19.5019C277.756 19.5019 277.756 19.5019 277.756 19.5019C277.756 19.5019 277.756 19.5019 277.756 19.5019C277.756 19.5019 277.756 19.5019 277.756 19.5019C277.756 19.5019 277.756 19.5019 277.756 19.5019C277.756 19.5019 277.756 19.5019 277.756 19.5019C277.756 19.5019 277.756 19.5019 277.756 19.5019C277.756 19.5019 277.756 19.5019 277.756 19.5019C277.756 19.5019 277.756 19.5019 277.756 19.5019C277.756 19.5019 277.756 19.5019 277.756 19.5019C277.756 19.5019 277.756 19.5019 277.756 19.5019C277.756 19.5019 277.756 19.5019 277.756 19.5019C277.756 19.5019 277.756 19.5019 277.756 19.502C277.756 19.502 277.756 19.502 277.756 19.502C277.756 19.502 277.756 19.502 277.756 19.502C277.756 19.502 277.756 19.502 277.756 19.502C277.756 19.502 277.756 19.502 277.756 19.502C277.756 19.502 277.756 19.502 277.756 19.502C277.756 19.502 277.756 19.502 277.756 19.502C277.756 19.502 277.756 19.502 277.756 19.502C277.756 19.502 277.756 19.502 277.756 19.502C277.756 19.502 277.756 19.502 277.756 19.502C277.756 19.502 277.756 19.502 277.756 19.502C277.756 19.502 277.756 19.502 277.756 19.502C277.756 19.502 277.756 19.502 277.756 19.502C277.756 19.502 277.756 19.502 277.756 19.502C277.756 19.502 277.756 19.502 277.756 19.502C277.756 19.502 277.756 19.502 277.756 19.502C277.756 19.502 277.756 19.502 277.756 19.502C277.756 19.502 277.756 19.502 277.756 19.502C277.756 19.502 277.756 19.502 277.756 19.502C277.756 19.502 277.756 19.502 277.756 19.502C277.756 19.502 277.756 19.502 277.756 19.502C277.756 19.502 277.756 19.502 277.756 19.502C277.756 19.502 277.756 19.502 277.756 19.502C277.756 19.502 277.756 19.502 277.756 19.502C277.756 19.5021 277.756 19.5021 277.756 19.5021C277.756 19.5021 277.756 19.5021 277.756 19.5021C277.756 19.5021 277.756 19.5021 277.756 19.5021C277.756 19.5021 277.756 19.5021 277.756 19.5021C277.756 19.5021 277.756 19.5021 277.756 19.5021C277.756 19.5021 277.756 19.5021 277.756 19.5021C277.756 19.5021 277.756 19.5021 277.756 19.5021C277.756 19.5021 277.756 19.5021 277.756 19.5021C277.756 19.5021 277.756 19.5021 277.756 19.5021C277.756 19.5021 277.756 19.5021 277.756 19.5021C277.756 19.5021 277.756 19.5021 277.756 19.5021C277.756 19.5021 277.756 19.5021 277.756 19.5021C277.756 19.5021 277.756 19.5021 277.756 19.5021C277.756 19.5021 277.756 19.5021 277.756 19.5021C277.756 19.5021 277.756 19.5021 277.756 19.5021C277.756 19.5021 277.756 19.5021 277.756 19.5021C277.756 19.5021 277.756 19.5021 277.756 19.5021C277.756 19.5021 277.756 19.5021 277.756 19.5021C277.756 19.5021 277.756 19.5021 277.756 19.5021C277.756 19.5021 277.756 19.5021 277.756 19.5021C277.756 19.5021 277.756 19.5021 277.756 19.5021C277.756 19.5021 277.756 19.5021 277.756 19.5021C277.756 19.5021 277.756 19.5021 277.756 19.5021C277.756 19.5021 277.756 19.5022 277.756 19.5022C277.756 19.5022 277.756 19.5022 277.756 19.5022C277.756 19.5022 277.756 19.5022 277.756 19.5022C277.756 19.5022 277.756 19.5022 277.756 19.5022C277.756 19.5022 277.756 19.5022 277.756 19.5022C277.756 19.5022 277.756 19.5022 277.756 19.5022C277.756 19.5022 277.756 19.5022 277.756 19.5022C277.756 19.5022 277.756 19.5022 277.756 19.5022C277.756 19.5022 277.756 19.5022 277.756 19.5022C277.756 19.5022 277.756 19.5022 277.756 19.5022C277.756 19.5022 277.756 19.5022 277.756 19.5022C277.756 19.5022 277.756 19.5022 277.756 19.5022C277.756 19.5022 277.756 19.5022 277.756 19.5022C277.756 19.5022 277.756 19.5022 277.756 19.5022C277.756 19.5022 277.756 19.5022 277.756 19.5022C277.756 19.5022 277.756 19.5022 277.756 19.5022C277.756 19.5022 277.756 19.5022 277.756 19.5022C277.756 19.5022 277.756 19.5022 277.756 19.5022C277.756 19.5022 277.756 19.5022 277.756 19.5022C277.756 19.5022 277.756 19.5022 277.756 19.5022C277.756 19.5022 277.756 19.5022 277.756 19.5022C277.756 19.5022 277.756 19.5022 277.756 19.5022C277.756 19.5022 277.756 19.5022 277.756 19.5022C277.756 19.5022 277.756 19.5022 277.756 19.5022C277.756 19.5023 277.756 19.5023 277.756 19.5023C277.756 19.5023 277.756 19.5023 277.756 19.5023C277.756 19.5023 277.756 19.5023 277.756 19.5023C277.756 19.5023 277.756 19.5023 277.756 19.5023C277.756 19.5023 277.756 19.5023 277.756 19.5023C277.756 19.5023 277.756 19.5023 277.756 19.5023C277.756 19.5023 277.756 19.5023 277.756 19.5023C277.756 19.5023 277.756 19.5023 277.756 19.5023C277.756 19.5023 277.756 19.5023 277.756 19.5023C277.756 19.5023 277.756 19.5023 277.756 19.5023C277.756 19.5023 277.756 19.5023 277.756 19.5023C277.756 19.5023 277.756 19.5023 277.756 19.5023C277.756 19.5023 277.756 19.5023 277.756 19.5023C277.756 19.5023 277.756 19.5023 277.756 19.5023C277.756 19.5023 277.756 19.5023 277.756 19.5023C277.756 19.5023 277.756 19.5023 277.756 19.5023C277.756 19.5023 277.756 19.5023 277.756 19.5023C277.756 19.5023 277.756 19.5023 277.756 19.5023C277.756 19.5023 277.756 19.5023 277.756 19.5023C277.756 19.5023 277.756 19.5023 277.756 19.5023C277.756 19.5023 277.756 19.5023 277.756 19.5023C277.756 19.5023 277.756 19.5023 277.756 19.5023C277.756 19.5023 277.756 19.5023 277.756 19.5023C277.756 19.5023 277.756 19.5024 277.756 19.5024C277.756 19.5024 277.756 19.5024 277.756 19.5024C277.756 19.5024 277.756 19.5024 277.756 19.5024C277.756 19.5024 277.756 19.5024 277.756 19.5024C277.756 19.5024 277.756 19.5024 277.756 19.5024C277.756 19.5024 277.756 19.5024 277.756 19.5024C277.756 19.5024 277.756 19.5024 277.756 19.5024C277.756 19.5024 277.756 19.5024 277.756 19.5024C277.756 19.5024 277.756 19.5024 277.756 19.5024C277.756 19.5024 277.756 19.5024 277.756 19.5024C277.756 19.5024 277.756 19.5024 277.756 19.5024C277.756 19.5024 277.756 19.5024 277.756 19.5024C277.756 19.5024 277.756 19.5024 277.756 19.5024C277.756 19.5024 277.756 19.5024 277.756 19.5024C277.756 19.5024 277.756 19.5024 277.756 19.5024C277.756 19.5024 277.756 19.5024 277.756 19.5024C277.756 19.5024 277.756 19.5024 277.756 19.5024C277.756 19.5024 277.756 19.5024 277.756 19.5024C277.756 19.5024 277.756 19.5024 277.756 19.5024C277.756 19.5024 277.756 19.5024 277.756 19.5024C277.756 19.5024 277.756 19.5024 277.756 19.5024C277.756 19.5024 277.756 19.5024 277.756 19.5024C277.756 19.5024 277.756 19.5024 277.756 19.5024C277.756 19.5024 277.756 19.5024 277.756 19.5025C277.756 19.5025 277.756 19.5025 277.756 19.5025C277.756 19.5025 277.756 19.5025 277.756 19.5025C277.756 19.5025 277.756 19.5025 277.756 19.5025C277.756 19.5025 277.756 19.5025 277.756 19.5025C277.756 19.5025 277.756 19.5025 277.756 19.5025C277.756 19.5025 277.756 19.5025 277.756 19.5025C277.756 19.5025 277.756 19.5025 277.756 19.5025C277.756 19.5025 277.756 19.5025 277.756 19.5025C277.756 19.5025 277.756 19.5025 277.756 19.5025C277.756 19.5025 277.756 19.5025 277.756 19.5025C277.756 19.5025 277.756 19.5025 277.756 19.5025C277.756 19.5025 277.756 19.5025 277.756 19.5025C277.756 19.5025 277.756 19.5025 277.756 19.5025C277.756 19.5025 277.756 19.5025 277.756 19.5025C277.756 19.5025 277.756 19.5025 277.756 19.5025C277.756 19.5025 277.756 19.5025 277.756 19.5025C277.756 19.5025 277.756 19.5025 277.756 19.5025C277.756 19.5025 277.756 19.5025 277.756 19.5025C277.756 19.5025 277.756 19.5025 277.756 19.5025C277.756 19.5025 277.756 19.5025 277.756 19.5025C277.756 19.5025 277.756 19.5025 277.756 19.5025C277.756 19.5025 277.756 19.5025 277.756 19.5025C277.756 19.5025 277.756 19.5025 277.756 19.5025C277.756 19.5025 277.756 19.5026 277.756 19.5026C277.756 19.5026 277.756 19.5026 277.756 19.5026C277.756 19.5026 277.756 19.5026 277.756 19.5026C277.756 19.5026 277.756 19.5026 277.756 19.5026C277.756 19.5026 277.756 19.5026 277.756 19.5026C277.756 19.5026 277.756 19.5026 277.756 19.5026C277.756 19.5026 277.756 19.5026 277.756 19.5026C277.756 19.5026 277.756 19.5026 277.756 19.5026C277.756 19.5026 277.756 19.5026 277.756 19.5026C277.756 19.5026 277.756 19.5026 277.756 19.5026C277.756 19.5026 277.756 19.5026 277.756 19.5026C277.756 19.5026 277.756 19.5026 277.756 19.5026C277.756 19.5026 277.756 19.5026 277.756 19.5026C277.756 19.5026 277.756 19.5026 277.756 19.5026C277.756 19.5026 277.756 19.5026 277.756 19.5026C277.756 19.5026 277.756 19.5026 277.756 19.5026C277.756 19.5026 277.756 19.5026 277.756 19.5026C277.756 19.5026 277.756 19.5026 277.756 19.5026C277.756 19.5026 277.756 19.5026 277.756 19.5026C277.756 19.5026 277.756 19.5026 277.756 19.5026C277.756 19.5026 277.756 19.5026 277.756 19.5026C277.756 19.5026 277.756 19.5026 277.756 19.5026C277.756 19.5026 277.756 19.5026 277.756 19.5026C277.756 19.5026 277.756 19.5026 277.756 19.5027C277.756 19.5027 277.756 19.5027 277.756 19.5027C277.756 19.5027 277.756 19.5027 277.756 19.5027C277.756 19.5027 277.756 19.5027 277.756 19.5027C277.756 19.5027 277.756 19.5027 277.756 19.5027C277.756 19.5027 277.756 19.5027 277.756 19.5027C277.756 19.5027 277.756 19.5027 277.756 19.5027C277.756 19.5027 277.756 19.5027 277.756 19.5027C277.756 19.5027 277.756 19.5027 277.756 19.5027C277.756 19.5027 277.756 19.5027 277.756 19.5027C277.756 19.5027 277.756 19.5027 277.756 19.5027C277.756 19.5027 277.756 19.5027 277.756 19.5027C277.756 19.5027 277.756 19.5027 277.756 19.5027C277.756 19.5027 277.756 19.5027 277.756 19.5027C277.756 19.5027 277.756 19.5027 277.756 19.5027C277.756 19.5027 277.756 19.5027 277.756 19.5027C277.756 19.5027 277.756 19.5027 277.756 19.5027C277.756 19.5027 277.756 19.5027 277.756 19.5027C277.756 19.5027 277.756 19.5027 277.756 19.5027C277.756 19.5027 277.756 19.5027 277.756 19.5027C277.756 19.5027 277.756 19.5027 277.756 19.5027C277.756 19.5027 277.756 19.5027 277.756 19.5027C277.756 19.5027 277.756 19.5027 277.756 19.5027C277.756 19.5027 277.756 19.5027 277.756 19.5027C277.756 19.5028 277.756 19.5028 277.756 19.5028C277.756 19.5028 277.756 19.5028 277.756 19.5028C277.756 19.5028 277.756 19.5028 277.756 19.5028C277.756 19.5028 277.756 19.5028 277.756 19.5028C277.756 19.5028 277.756 19.5028 277.756 19.5028C277.756 19.5028 277.756 19.5028 277.756 19.5028C277.756 19.5028 277.756 19.5028 277.756 19.5028C277.756 19.5028 277.756 19.5028 277.756 19.5028C277.756 19.5028 277.756 19.5028 277.756 19.5028C277.756 19.5028 277.756 19.5028 277.756 19.5028C277.756 19.5028 277.756 19.5028 277.756 19.5028C277.756 19.5028 277.756 19.5028 277.756 19.5028C277.756 19.5028 277.756 19.5028 277.756 19.5028C277.756 19.5028 277.756 19.5028 277.756 19.5028C277.756 19.5028 277.756 19.5028 277.756 19.5028C277.756 19.5028 277.756 19.5028 277.756 19.5028C277.756 19.5028 277.756 19.5028 277.756 19.5028C277.756 19.5028 277.756 19.5028 277.756 19.5028C277.756 19.5028 277.756 19.5028 277.756 19.5028C277.756 19.5028 277.756 19.5028 277.756 19.5028C277.756 19.5028 277.756 19.5028 277.756 19.5028C277.756 19.5028 277.756 19.5028 277.756 19.5028C277.756 19.5028 277.756 19.5028 277.756 19.5028C277.756 19.5028 277.756 19.5028 277.756 19.5029C277.756 19.5029 277.756 19.5029 277.756 19.5029C277.756 19.5029 277.756 19.5029 277.756 19.5029C277.756 19.5029 277.756 19.5029 277.756 19.5029C277.756 19.5029 277.756 19.5029 277.756 19.5029C277.756 19.5029 277.756 19.5029 277.756 19.5029C277.756 19.5029 277.756 19.5029 277.756 19.5029C277.756 19.5029 277.756 19.5029 277.756 19.5029C277.756 19.5029 277.756 19.5029 277.756 19.5029C277.756 19.5029 277.756 19.5029 277.756 19.5029C277.756 19.5029 277.756 19.5029 277.756 19.5029C277.756 19.5029 277.756 19.5029 277.756 19.5029C277.756 19.5029 277.756 19.5029 277.756 19.5029C277.756 19.5029 277.756 19.5029 277.756 19.5029C277.756 19.5029 277.756 19.5029 277.756 19.5029C277.756 19.5029 277.756 19.5029 277.756 19.5029C277.756 19.5029 277.756 19.5029 277.756 19.5029C277.756 19.5029 277.756 19.5029 277.756 19.5029C277.756 19.5029 277.756 19.5029 277.756 19.5029C277.756 19.5029 277.756 19.5029 277.756 19.5029C277.756 19.5029 277.756 19.5029 277.756 19.5029C277.756 19.5029 277.756 19.5029 277.756 19.5029C277.756 19.5029 277.756 19.5029 277.756 19.5029C277.756 19.5029 277.756 19.5029 277.756 19.5029C277.756 19.503 277.756 19.503 277.756 19.503C277.756 19.503 277.756 19.503 277.756 19.503C277.756 19.503 277.756 19.503 277.756 19.503C277.756 19.503 277.756 19.503 277.756 19.503C277.756 19.503 277.756 19.503 277.756 19.503C277.756 19.503 277.756 19.503 277.756 19.503C277.756 19.503 277.756 19.503 277.756 19.503C277.756 19.503 277.756 19.503 277.756 19.503C277.756 19.503 277.756 19.503 277.756 19.503C277.756 19.503 277.756 19.503 277.756 19.503C277.756 19.503 277.756 19.503 277.756 19.503C277.756 19.503 277.756 19.503 277.756 19.503C277.756 19.503 277.756 19.503 277.756 19.503C277.756 19.503 277.756 19.503 277.756 19.503C277.756 19.503 277.756 19.503 277.756 19.503C277.756 19.503 277.756 19.503 277.756 19.503C277.756 19.503 277.756 19.503 277.756 19.503C277.756 19.503 277.756 19.503 277.756 19.503C277.756 19.503 277.756 19.503 277.756 19.503C277.756 19.503 277.756 19.503 277.756 19.503C277.756 19.503 277.756 19.503 277.756 19.503C277.756 19.503 277.756 19.503 277.756 19.503C277.756 19.503 277.756 19.503 277.756 19.503C277.756 19.503 277.756 19.5031 277.756 19.5031C277.756 19.5031 277.756 19.5031 277.756 19.5031C277.756 19.5031 277.756 19.5031 277.756 19.5031C277.756 19.5031 277.756 19.5031 277.756 19.5031C277.756 19.5031 277.756 19.5031 277.756 19.5031C277.756 19.5031 277.756 19.5031 277.756 19.5031C277.756 19.5031 277.756 19.5031 277.756 19.5031C277.756 19.5031 277.756 19.5031 277.756 19.5031C277.756 19.5031 277.756 19.5031 277.756 19.5031C277.756 19.5031 277.756 19.5031 277.756 19.5031C277.756 19.5031 277.756 19.5031 277.756 19.5031C277.756 19.5031 277.756 19.5031 277.756 19.5031C277.756 19.5031 277.756 19.5031 277.756 19.5031C277.756 19.5031 277.756 19.5031 277.756 19.5031C277.756 19.5031 277.756 19.5031 277.756 19.5031C277.756 19.5031 277.756 19.5031 277.756 19.5031C277.756 19.5031 277.756 19.5031 277.756 19.5031C277.756 19.5031 277.756 19.5031 277.756 19.5031C277.756 19.5031 277.756 19.5031 277.756 19.5031C277.756 19.5031 277.756 19.5031 277.756 19.5031C277.756 19.5031 277.756 19.5031 277.756 19.5031C277.756 19.5031 277.756 19.5031 277.756 19.5031C277.756 19.5031 277.756 19.5031 277.756 19.5031C277.756 19.5031 277.756 19.5031 277.756 19.5031C277.756 19.5032 277.756 19.5032 277.756 19.5032C277.756 19.5032 277.756 19.5032 277.756 19.5032C277.756 19.5032 277.756 19.5032 277.756 19.5032C277.756 19.5032 277.756 19.5032 277.756 19.5032C277.756 19.5032 277.756 19.5032 277.756 19.5032C277.756 19.5032 277.756 19.5032 277.756 19.5032C277.756 19.5032 277.756 19.5032 277.756 19.5032C277.756 19.5032 277.756 19.5032 277.756 19.5032C277.756 19.5032 277.756 19.5032 277.756 19.5032C277.756 19.5032 277.756 19.5032 277.756 19.5032C277.756 19.5032 277.756 19.5032 277.756 19.5032C277.756 19.5032 277.756 19.5032 277.756 19.5032C277.756 19.5032 277.756 19.5032 277.756 19.5032C277.756 19.5032 277.756 19.5032 277.756 19.5032C277.756 19.5032 277.756 19.5032 277.756 19.5032C277.756 19.5032 277.756 19.5032 277.756 19.5032C277.756 19.5032 277.756 19.5032 277.756 19.5032C277.756 19.5032 277.756 19.5032 277.756 19.5032C277.756 19.5032 277.756 19.5032 277.756 19.5032C277.756 19.5032 277.756 19.5032 277.756 19.5032C277.756 19.5032 277.756 19.5032 277.756 19.5032C277.756 19.5032 277.756 19.5032 277.756 19.5032C277.756 19.5032 277.756 19.5032 277.756 19.5032C277.756 19.5032 277.756 19.5033 277.756 19.5033C277.756 19.5033 277.756 19.5033 277.756 19.5033C277.756 19.5033 277.756 19.5033 277.756 19.5033C277.756 19.5033 277.756 19.5033 277.756 19.5033C277.756 19.5033 277.756 19.5033 277.756 19.5033C277.756 19.5033 277.756 19.5033 277.756 19.5033C277.756 19.5033 277.756 19.5033 277.756 19.5033C277.756 19.5033 277.756 19.5033 277.756 19.5033C277.756 19.5033 277.756 19.5033 277.756 19.5033C277.756 19.5033 277.756 19.5033 277.756 19.5033C277.756 19.5033 277.756 19.5033 277.756 19.5033C277.756 19.5033 277.756 19.5033 277.756 19.5033C277.756 19.5033 277.756 19.5033 277.756 19.5033C277.756 19.5033 277.756 19.5033 277.756 19.5033C277.756 19.5033 277.756 19.5033 277.756 19.5033C277.756 19.5033 277.756 19.5033 277.756 19.5033C277.756 19.5033 277.756 19.5033 277.756 19.5033C277.756 19.5033 277.756 19.5033 277.756 19.5033C277.756 19.5033 277.756 19.5033 277.756 19.5033C277.756 19.5033 277.756 19.5033 277.756 19.5033C277.756 19.5033 277.756 19.5033 277.756 19.5033C277.756 19.5033 277.756 19.5033 277.756 19.5033C277.756 19.5033 277.756 19.5033 277.756 19.5033C277.756 19.5033 277.756 19.5033 277.756 19.5034C277.756 19.5034 277.756 19.5034 277.756 19.5034C277.756 19.5034 277.756 19.5034 277.756 19.5034C277.756 19.5034 277.756 19.5034 277.756 19.5034C277.756 19.5034 277.756 19.5034 277.756 19.5034C277.756 19.5034 277.756 19.5034 277.756 19.5034C277.756 19.5034 277.756 19.5034 277.756 19.5034C277.756 19.5034 277.756 19.5034 277.756 19.5034C277.756 19.5034 277.756 19.5034 277.756 19.5034C277.756 19.5034 277.756 19.5034 277.756 19.5034C277.756 19.5034 277.756 19.5034 277.756 19.5034C277.756 19.5034 277.756 19.5034 277.756 19.5034C277.756 19.5034 277.756 19.5034 277.756 19.5034C277.756 19.5034 277.756 19.5034 277.756 19.5034C277.756 19.5034 277.756 19.5034 277.756 19.5034C277.756 19.5034 277.756 19.5034 277.756 19.5034C277.756 19.5034 277.756 19.5034 277.756 19.5034C277.756 19.5034 277.756 19.5034 277.756 19.5034C277.756 19.5034 277.756 19.5034 277.756 19.5034C277.756 19.5034 277.756 19.5034 277.756 19.5034C277.756 19.5034 277.756 19.5034 277.756 19.5034C277.756 19.5034 277.756 19.5034 277.756 19.5034C277.756 19.5034 277.756 19.5034 277.756 19.5034C277.756 19.5034 277.756 19.5034 277.756 19.5034C277.756 19.5035 277.756 19.5035 277.756 19.5035C277.756 19.5035 277.756 19.5035 277.756 19.5035C277.756 19.5035 277.756 19.5035 277.756 19.5035C277.756 19.5035 277.756 19.5035 277.756 19.5035C277.756 19.5035 277.756 19.5035 277.756 19.5035C277.756 19.5035 277.756 19.5035 277.756 19.5035C277.756 19.5035 277.756 19.5035 277.756 19.5035C277.756 19.5035 277.756 19.5035 277.756 19.5035C277.756 19.5035 277.756 19.5035 277.756 19.5035C277.756 19.5035 277.756 19.5035 277.756 19.5035C277.756 19.5035 277.756 19.5035 277.756 19.5035C277.756 19.5035 277.756 19.5035 277.756 19.5035C277.756 19.5035 277.756 19.5035 277.756 19.5035C277.756 19.5035 277.756 19.5035 277.756 19.5035C277.756 19.5035 277.756 19.5035 277.756 19.5035C277.756 19.5035 277.756 19.5035 277.756 19.5035C277.756 19.5035 277.756 19.5035 277.756 19.5035C277.756 19.5035 277.756 19.5035 277.756 19.5035C277.756 19.5035 277.756 19.5035 277.756 19.5035C277.756 19.5035 277.756 19.5035 277.756 19.5035C277.756 19.5035 277.756 19.5035 277.756 19.5035C277.756 19.5035 277.756 19.5035 277.756 19.5035C277.756 19.5035 277.756 19.5035 277.756 19.5035C277.756 19.5035 277.756 19.5035 277.756 19.5036C277.756 19.5036 277.756 19.5036 277.756 19.5036C277.756 19.5036 277.756 19.5036 277.756 19.5036C277.756 19.5036 277.756 19.5036 277.756 19.5036C277.756 19.5036 277.756 19.5036 277.756 19.5036C277.756 19.5036 277.756 19.5036 277.756 19.5036C277.756 19.5036 277.756 19.5036 277.756 19.5036C277.756 19.5036 277.756 19.5036 277.756 19.5036C277.756 19.5036 277.756 19.5036 277.756 19.5036C277.756 19.5036 277.756 19.5036 277.756 19.5036C277.756 19.5036 277.756 19.5036 277.756 19.5036C277.756 19.5036 277.756 19.5036 277.756 19.5036C277.756 19.5036 277.756 19.5036 277.756 19.5036C277.756 19.5036 277.756 19.5036 277.756 19.5036C277.756 19.5036 277.756 19.5036 277.756 19.5036C277.756 19.5036 277.756 19.5036 277.756 19.5036C277.756 19.5036 277.756 19.5036 277.756 19.5036C277.756 19.5036 277.756 19.5036 277.756 19.5036C277.756 19.5036 277.756 19.5036 277.756 19.5036C277.756 19.5036 277.756 19.5036 277.756 19.5036C277.756 19.5036 277.756 19.5036 277.756 19.5036C277.756 19.5036 277.756 19.5036 277.756 19.5036C277.756 19.5036 277.756 19.5036 277.756 19.5036C277.756 19.5036 277.756 19.5036 277.756 19.5036C277.756 19.5037 277.756 19.5037 277.756 19.5037C277.756 19.5037 277.756 19.5037 277.756 19.5037C277.756 19.5037 277.756 19.5037 277.756 19.5037C277.756 19.5037 277.756 19.5037 277.756 19.5037C277.756 19.5037 277.756 19.5037 277.756 19.5037C277.756 19.5037 277.756 19.5037 277.756 19.5037C277.756 19.5037 277.756 19.5037 277.756 19.5037C277.756 19.5037 277.756 19.5037 277.756 19.5037C277.756 19.5037 277.756 19.5037 277.756 19.5037C277.756 19.5037 277.756 19.5037 277.756 19.5037C277.756 19.5037 277.756 19.5037 277.756 19.5037C277.756 19.5037 277.756 19.5037 277.756 19.5037C277.756 19.5037 277.756 19.5037 277.756 19.5037C277.756 19.5037 277.756 19.5037 277.756 19.5037C277.756 19.5037 277.756 19.5037 277.756 19.5037C277.756 19.5037 277.756 19.5037 277.756 19.5037C277.756 19.5037 277.756 19.5037 277.756 19.5037C277.756 19.5037 277.756 19.5037 277.756 19.5037C277.756 19.5037 277.756 19.5037 277.756 19.5037C277.756 19.5037 277.756 19.5037 277.756 19.5037C277.756 19.5037 277.756 19.5037 277.756 19.5037C277.756 19.5037 277.756 19.5037 277.756 19.5037C277.756 19.5037 277.756 19.5037 277.756 19.5037C277.756 19.5037 277.756 19.5038 277.756 19.5038C277.756 19.5038 277.756 19.5038 277.756 19.5038C277.756 19.5038 277.756 19.5038 277.756 19.5038C277.756 19.5038 277.756 19.5038 277.756 19.5038C277.756 19.5038 277.756 19.5038 277.756 19.5038C277.756 19.5038 277.756 19.5038 277.756 19.5038C277.756 19.5038 277.756 19.5038 277.756 19.5038C277.756 19.5038 277.756 19.5038 277.756 19.5038C277.756 19.5038 277.756 19.5038 277.756 19.5038C277.756 19.5038 277.756 19.5038 277.756 19.5038C277.756 19.5038 277.756 19.5038 277.756 19.5038C277.756 19.5038 277.756 19.5038 277.756 19.5038C277.756 19.5038 277.756 19.5038 277.756 19.5038C277.756 19.5038 277.756 19.5038 277.756 19.5038C277.756 19.5038 277.756 19.5038 277.756 19.5038C277.756 19.5038 277.756 19.5038 277.756 19.5038C277.756 19.5038 277.756 19.5038 277.756 19.5038C277.756 19.5038 277.756 19.5038 277.756 19.5038C277.756 19.5038 277.756 19.5038 277.756 19.5038C277.756 19.5038 277.756 19.5038 277.756 19.5038L284.182 19.5038ZM284.182 19.5012C284.18 9.4972 276.07 1.38781 266.066 1.38781L266.066 7.81394C272.521 7.81395 277.755 13.0468 277.756 19.5021L284.182 19.5012ZM266.066 1.38781C256.061 1.38781 247.951 9.49719 247.95 19.5012L254.376 19.5021C254.377 13.0468 259.61 7.81394 266.066 7.81394L266.066 1.38781ZM247.95 19.5016C247.95 19.4996 247.95 19.4978 247.95 19.4985C247.95 19.4985 247.95 19.501 247.95 19.5038L254.376 19.5038C254.376 19.5059 254.376 19.5077 254.376 19.5069C254.376 19.5069 254.376 19.5045 254.376 19.5016L247.95 19.5016ZM254.376 26.9531L254.376 19.5038L247.95 19.5038L247.95 26.9531L254.376 26.9531Z" fill="url(#paint5_linear_1586_16154)" mask="url(#path-64-inside-1_1586_16154)"/>
<g filter="url(#filter1_i_1586_16154)">
<path fill-rule="evenodd" clip-rule="evenodd" d="M280.97 20.25H251.164V27.6993C251.164 27.7 251.164 27.7007 251.164 27.7015C251.165 35.9311 257.837 42.6022 266.067 42.6022C274.297 42.6022 280.969 35.9311 280.97 27.7015C280.97 27.7007 280.97 27.7 280.97 27.6993L280.97 20.25Z" fill="url(#paint6_linear_1586_16154)"/>
</g>
<circle cx="266.098" cy="27.223" r="2.26206" fill="white"/>
<rect x="265.422" y="28.3555" width="1.35723" height="7.23858" fill="white"/>
<circle cx="325.599" cy="23.6029" r="23.0756" fill="url(#paint7_linear_1586_16154)"/>
<g filter="url(#filter2_di_1586_16154)">
<circle cx="325.602" cy="23.6057" r="13.9065" fill="url(#paint8_linear_1586_16154)"/>
</g>
<g filter="url(#filter3_i_1586_16154)">
<path d="M328.01 22.0768H327.119V19.2752C327.119 18.967 326.867 18.7148 326.559 18.7148H324.317C324.009 18.7148 323.757 18.967 323.757 19.2752V22.0768H322.866C322.367 22.0768 322.115 22.682 322.468 23.035L325.04 25.6069C325.259 25.8255 325.612 25.8255 325.83 25.6069L328.402 23.035C328.755 22.682 328.509 22.0768 328.01 22.0768ZM321.516 27.6802C321.516 27.9884 321.768 28.2405 322.076 28.2405H328.8C329.108 28.2405 329.36 27.9884 329.36 27.6802C329.36 27.372 329.108 27.1198 328.8 27.1198H322.076C321.768 27.1198 321.516 27.372 321.516 27.6802Z" fill="#6C79F9"/>
</g>
<path fill-rule="evenodd" clip-rule="evenodd" d="M406.763 17.3792L388.493 4.53125L370.227 17.379H370.227V17.3792V31.2676H406.76V17.3792H406.763Z" fill="url(#paint9_linear_1586_16154)"/>
<rect x="374.242" y="16.1758" width="28.9078" height="22.4839" fill="white"/>
<g filter="url(#filter4_d_1586_16154)">
<path d="M388.344 30.1433L370.228 42.6733L370.228 17.3789L388.344 30.1433Z" fill="#BBCBFF"/>
</g>
<g filter="url(#filter5_d_1586_16154)">
<path d="M388.648 30.1545L406.764 17.3775L406.764 42.6719L388.648 30.1545Z" fill="#BBCBFF"/>
</g>
<g filter="url(#filter6_d_1586_16154)">
<path d="M388.493 29.9922L406.76 42.6731H370.227L388.493 29.9922Z" fill="#6C79F9"/>
</g>
<path d="M436.77 14.1566C436.77 18.8432 440.565 22.657 445.228 22.657C449.891 22.657 453.686 18.8432 453.686 14.1566C453.686 9.47009 449.891 5.65625 445.228 5.65625C440.565 5.65625 436.77 9.47009 436.77 14.1566ZM460.264 41.5468H462.144V39.6578C462.144 32.3682 456.24 26.435 448.987 26.435H441.469C434.214 26.435 428.312 32.3682 428.312 39.6578V41.5468H460.264Z" fill="url(#paint10_linear_1586_16154)" fill-opacity="0.7"/>
<defs>
<filter id="filter0_i_1586_16154" x="67.8906" y="31.332" width="24.8125" height="11.3478" filterUnits="userSpaceOnUse" color-interpolation-filters="sRGB">
<feFlood flood-opacity="0" result="BackgroundImageFix"/>
<feBlend mode="normal" in="SourceGraphic" in2="BackgroundImageFix" result="shape"/>
<feColorMatrix in="SourceAlpha" type="matrix" values="0 0 0 0 0 0 0 0 0 0 0 0 0 0 0 0 0 0 127 0" result="hardAlpha"/>
<feOffset dy="1.47281"/>
<feGaussianBlur stdDeviation="0.736407"/>
<feComposite in2="hardAlpha" operator="arithmetic" k2="-1" k3="1"/>
<feColorMatrix type="matrix" values="0 0 0 0 0.467083 0 0 0 0 0.491854 0 0 0 0 0.7375 0 0 0 0.4 0"/>
<feBlend mode="normal" in2="shape" result="effect1_innerShadow_1586_16154"/>
</filter>
<filter id="filter1_i_1586_16154" x="251.164" y="20.25" width="29.8047" height="23.6368" filterUnits="userSpaceOnUse" color-interpolation-filters="sRGB">
<feFlood flood-opacity="0" result="BackgroundImageFix"/>
<feBlend mode="normal" in="SourceGraphic" in2="BackgroundImageFix" result="shape"/>
<feColorMatrix in="SourceAlpha" type="matrix" values="0 0 0 0 0 0 0 0 0 0 0 0 0 0 0 0 0 0 127 0" result="hardAlpha"/>
<feOffset dy="1.28523"/>
<feGaussianBlur stdDeviation="0.642613"/>
<feComposite in2="hardAlpha" operator="arithmetic" k2="-1" k3="1"/>
<feColorMatrix type="matrix" values="0 0 0 0 1 0 0 0 0 1 0 0 0 0 1 0 0 0 0.25 0"/>
<feBlend mode="normal" in2="shape" result="effect1_innerShadow_1586_16154"/>
</filter>
<filter id="filter2_di_1586_16154" x="311.215" y="9.69922" width="28.774" height="29.7355" filterUnits="userSpaceOnUse" color-interpolation-filters="sRGB">
<feFlood flood-opacity="0" result="BackgroundImageFix"/>
<feColorMatrix in="SourceAlpha" type="matrix" values="0 0 0 0 0 0 0 0 0 0 0 0 0 0 0 0 0 0 127 0" result="hardAlpha"/>
<feOffset dy="0.480741"/>
<feGaussianBlur stdDeviation="0.24037"/>
<feComposite in2="hardAlpha" operator="out"/>
<feColorMatrix type="matrix" values="0 0 0 0 1 0 0 0 0 1 0 0 0 0 1 0 0 0 0.7 0"/>
<feBlend mode="normal" in2="BackgroundImageFix" result="effect1_dropShadow_1586_16154"/>
<feBlend mode="normal" in="SourceGraphic" in2="effect1_dropShadow_1586_16154" result="shape"/>
<feColorMatrix in="SourceAlpha" type="matrix" values="0 0 0 0 0 0 0 0 0 0 0 0 0 0 0 0 0 0 127 0" result="hardAlpha"/>
<feOffset dy="1.92296"/>
<feGaussianBlur stdDeviation="4.80741"/>
<feComposite in2="hardAlpha" operator="arithmetic" k2="-1" k3="1"/>
<feColorMatrix type="matrix" values="0 0 0 0 0 0 0 0 0 0 0 0 0 0 0 0 0 0 0.1 0"/>
<feBlend mode="normal" in2="shape" result="effect2_innerShadow_1586_16154"/>
</filter>
<filter id="filter3_i_1586_16154" x="318.719" y="17.0352" width="13.4453" height="13.93" filterUnits="userSpaceOnUse" color-interpolation-filters="sRGB">
<feFlood flood-opacity="0" result="BackgroundImageFix"/>
<feBlend mode="normal" in="SourceGraphic" in2="BackgroundImageFix" result="shape"/>
<feColorMatrix in="SourceAlpha" type="matrix" values="0 0 0 0 0 0 0 0 0 0 0 0 0 0 0 0 0 0 127 0" result="hardAlpha"/>
<feOffset dy="0.480741"/>
<feGaussianBlur stdDeviation="0.24037"/>
<feComposite in2="hardAlpha" operator="arithmetic" k2="-1" k3="1"/>
<feColorMatrix type="matrix" values="0 0 0 0 0 0 0 0 0 0 0 0 0 0 0 0 0 0 0.25 0"/>
<feBlend mode="normal" in2="shape" result="effect1_innerShadow_1586_16154"/>
</filter>
<filter id="filter4_d_1586_16154" x="369.29" y="16.2079" width="19.9908" height="27.1666" filterUnits="userSpaceOnUse" color-interpolation-filters="sRGB">
<feFlood flood-opacity="0" result="BackgroundImageFix"/>
<feColorMatrix in="SourceAlpha" type="matrix" values="0 0 0 0 0 0 0 0 0 0 0 0 0 0 0 0 0 0 127 0" result="hardAlpha"/>
<feOffset dy="-0.234207"/>
<feGaussianBlur stdDeviation="0.468414"/>
<feComposite in2="hardAlpha" operator="out"/>
<feColorMatrix type="matrix" values="0 0 0 0 0 0 0 0 0 0 0 0 0 0 0 0 0 0 0.05 0"/>
<feBlend mode="normal" in2="BackgroundImageFix" result="effect1_dropShadow_1586_16154"/>
<feBlend mode="normal" in="SourceGraphic" in2="effect1_dropShadow_1586_16154" result="shape"/>
</filter>
<filter id="filter5_d_1586_16154" x="387.712" y="16.2079" width="19.9908" height="27.1666" filterUnits="userSpaceOnUse" color-interpolation-filters="sRGB">
<feFlood flood-opacity="0" result="BackgroundImageFix"/>
<feColorMatrix in="SourceAlpha" type="matrix" values="0 0 0 0 0 0 0 0 0 0 0 0 0 0 0 0 0 0 127 0" result="hardAlpha"/>
<feOffset dy="-0.234207"/>
<feGaussianBlur stdDeviation="0.468414"/>
<feComposite in2="hardAlpha" operator="out"/>
<feColorMatrix type="matrix" values="0 0 0 0 0 0 0 0 0 0 0 0 0 0 0 0 0 0 0.05 0"/>
<feBlend mode="normal" in2="BackgroundImageFix" result="effect1_dropShadow_1586_16154"/>
<feBlend mode="normal" in="SourceGraphic" in2="effect1_dropShadow_1586_16154" result="shape"/>
</filter>
<filter id="filter6_d_1586_16154" x="369.29" y="28.8212" width="38.4049" height="14.5533" filterUnits="userSpaceOnUse" color-interpolation-filters="sRGB">
<feFlood flood-opacity="0" result="BackgroundImageFix"/>
<feColorMatrix in="SourceAlpha" type="matrix" values="0 0 0 0 0 0 0 0 0 0 0 0 0 0 0 0 0 0 127 0" result="hardAlpha"/>
<feOffset dy="-0.234207"/>
<feGaussianBlur stdDeviation="0.468414"/>
<feComposite in2="hardAlpha" operator="out"/>
<feColorMatrix type="matrix" values="0 0 0 0 0 0 0 0 0 0 0 0 0 0 0 0 0 0 0.05 0"/>
<feBlend mode="normal" in2="BackgroundImageFix" result="effect1_dropShadow_1586_16154"/>
<feBlend mode="normal" in="SourceGraphic" in2="effect1_dropShadow_1586_16154" result="shape"/>
</filter>
<radialGradient id="paint0_radial_1586_16154" cx="0" cy="0" r="1" gradientUnits="userSpaceOnUse" gradientTransform="translate(17.6728 14.7666) rotate(90) scale(19.1466 12.7644)">
<stop stop-color="white"/>
<stop offset="0.317708" stop-color="#FCE07D"/>
<stop offset="0.8125" stop-color="#FDCF5A"/>
<stop offset="1" stop-color="#FFE49D"/>
</radialGradient>
<linearGradient id="paint1_linear_1586_16154" x1="86.2004" y1="2.98437" x2="86.2004" y2="36.6617" gradientUnits="userSpaceOnUse">
<stop stop-color="#9EA7FF"/>
<stop offset="1" stop-color="#6C79F9"/>
</linearGradient>
<linearGradient id="paint2_linear_1586_16154" x1="73.6539" y1="8.98978" x2="73.6539" y2="36.6617" gradientUnits="userSpaceOnUse">
<stop stop-color="#BCC2FF"/>
<stop offset="1" stop-color="#BCC2FF" stop-opacity="0"/>
</linearGradient>
<linearGradient id="paint3_linear_1586_16154" x1="86.2004" y1="8.98978" x2="86.2004" y2="36.6617" gradientUnits="userSpaceOnUse">
<stop stop-color="#BCC2FF"/>
<stop offset="1" stop-color="#BCC2FF" stop-opacity="0"/>
</linearGradient>
<linearGradient id="paint4_linear_1586_16154" x1="208.994" y1="4.45703" x2="208.994" y2="33.9133" gradientUnits="userSpaceOnUse">
<stop stop-color="#D1FF6F"/>
<stop offset="1" stop-color="#39FF88"/>
</linearGradient>
<linearGradient id="paint5_linear_1586_16154" x1="266.066" y1="26.8572" x2="266.066" y2="4.60088" gradientUnits="userSpaceOnUse">
<stop stop-color="#9578FF"/>
<stop offset="1" stop-color="#BCC2FF"/>
</linearGradient>
<linearGradient id="paint6_linear_1586_16154" x1="266.067" y1="20.25" x2="266.067" y2="42.6022" gradientUnits="userSpaceOnUse">
<stop stop-color="#9578FF"/>
<stop offset="1" stop-color="#6C79F9"/>
</linearGradient>
<linearGradient id="paint7_linear_1586_16154" x1="325.599" y1="0.527344" x2="325.599" y2="46.6784" gradientUnits="userSpaceOnUse">
<stop stop-color="white"/>
<stop offset="1" stop-color="#CDCDCD"/>
</linearGradient>
<linearGradient id="paint8_linear_1586_16154" x1="325.602" y1="9.69922" x2="325.602" y2="37.5121" gradientUnits="userSpaceOnUse">
<stop stop-color="#E7E7E7"/>
<stop offset="1" stop-color="white"/>
</linearGradient>
<linearGradient id="paint9_linear_1586_16154" x1="388.695" y1="4.53125" x2="388.493" y2="31.2676" gradientUnits="userSpaceOnUse">
<stop stop-color="#D9CFFF"/>
<stop offset="1" stop-color="#9578FF"/>
</linearGradient>
<linearGradient id="paint10_linear_1586_16154" x1="445.228" y1="5.65625" x2="445.228" y2="41.5468" gradientUnits="userSpaceOnUse">
<stop stop-color="#C7CCFF"/>
<stop offset="1" stop-color="#6C79F9"/>
</linearGradient>
<clipPath id="clip0_1586_16154">
<rect width="22.1335" height="16.2312" fill="white" transform="translate(154.492 87.9297)"/>
</clipPath>
<clipPath id="clip1_1586_16154">
<rect width="22.1335" height="22.1335" fill="white" transform="translate(7.07812 142.602)"/>
</clipPath>
<clipPath id="clip2_1586_16154">
<rect width="22.1335" height="22.1335" fill="white" transform="translate(56.875 142.602)"/>
</clipPath>
<clipPath id="clip3_1586_16154">
<rect width="22.1335" height="22.1335" fill="white" transform="translate(106.68 142.602)"/>
</clipPath>
<clipPath id="clip4_1586_16154">
<rect width="22.1335" height="22.1335" fill="white" transform="translate(156.477 142.602)"/>
</clipPath>
<clipPath id="clip5_1586_16154">
<rect width="22.1335" height="22.1335" fill="white" transform="translate(206.281 142.602)"/>
</clipPath>
<clipPath id="clip6_1586_16154">
<rect width="19.3668" height="19.3668" fill="white" transform="translate(256.078 143.984)"/>
</clipPath>
<clipPath id="clip7_1586_16154">
<rect width="19.3668" height="19.3668" fill="white" transform="translate(303.109 143.984)"/>
</clipPath>
<clipPath id="clip8_1586_16154">
<rect width="19.3668" height="19.3668" fill="white" transform="translate(350.148 143.984)"/>
</clipPath>
<clipPath id="clip9_1586_16154">
<rect width="41.2388" height="41.2388" fill="white" transform="translate(0 2.98438)"/>
</clipPath>
</defs>
</svg>
