<svg width="173" height="43" viewBox="0 0 173 43" fill="none" xmlns="http://www.w3.org/2000/svg">
<path d="M0 21.502H40" stroke="black" stroke-width="0.520652"/>
<path d="M2.67969 11.5L37.3207 31.5" stroke="black" stroke-width="0.520652"/>
<path d="M10 4.18359L30 38.8246" stroke="black" stroke-width="0.520652"/>
<path d="M14.8203 2.17773L25.1731 40.8148" stroke="black" stroke-width="0.520652"/>
<path d="M25.1797 2.17773L14.8269 40.8148" stroke="black" stroke-width="0.520652"/>
<path d="M30 4.18359L10 38.8246" stroke="black" stroke-width="0.520652"/>
<path d="M37.3223 11.5L2.68125 31.5" stroke="black" stroke-width="0.520652"/>
<path d="M39.3203 16.3164L0.68328 26.6692" stroke="black" stroke-width="0.520652"/>
<path d="M39.3203 26.6816L0.68328 16.3289" stroke="black" stroke-width="0.520652"/>
<path d="M20 1.5L20 41.5" stroke="black" stroke-width="0.520652"/>
<path d="M34.1406 7.35938L5.85635 35.6436" stroke="black" stroke-width="0.520652"/>
<path d="M34.1406 35.6387L5.85635 7.3544" stroke="black" stroke-width="0.520652"/>
<path d="M52.544 32.208H62.4V34H50.88V11.6H53.056V33.616L52.544 32.208ZM72.3443 34.224C69.6563 34.224 67.6616 33.5947 66.3602 32.336C65.0589 31.0773 64.4083 29.1467 64.4083 26.544V11.6H66.5843V26.576C66.5843 28.624 67.0323 30.1173 67.9283 31.056C68.8456 31.9733 70.3176 32.432 72.3443 32.432C76.1203 32.432 78.0083 30.48 78.0083 26.576V11.6H80.1843V26.544C80.1843 27.8027 80.0029 28.912 79.6403 29.872C79.2989 30.8107 78.7869 31.6107 78.1042 32.272C77.4216 32.912 76.5896 33.4027 75.6083 33.744C74.6483 34.064 73.5603 34.224 72.3443 34.224ZM85.9738 11.6H89.3338L96.2458 29.04H96.3738L103.318 11.6H106.678V34H104.502V13.776H104.374L97.3658 31.408H95.2538L88.2458 13.776H88.1498V34H85.9738V11.6ZM114.712 11.6V34H112.536V11.6H114.712ZM122.263 32.208H133.559V34H120.599V11.6H133.431V13.392H122.263L122.775 11.984V22.832L122.263 22H132.823V23.664H122.263L122.775 22.832V33.616L122.263 32.208ZM138.099 11.6H145.587C147.827 11.6 149.501 12.1333 150.611 13.2C151.72 14.2667 152.275 15.888 152.275 18.064V19.184C152.275 21.2747 151.709 22.8533 150.579 23.92C149.469 24.9867 147.805 25.52 145.587 25.52H140.147V23.824H144.915C146.707 23.824 148.04 23.44 148.915 22.672C149.789 21.904 150.227 20.72 150.227 19.12V18.16C150.227 16.4533 149.8 15.216 148.947 14.448C148.093 13.68 146.749 13.296 144.915 13.296H139.763L140.275 12.592V34H138.099V11.6ZM146.387 24.912H148.595L152.627 34H150.387L146.387 24.912ZM159.388 32.208H170.684V34H157.724V11.6H170.556V13.392H159.388L159.9 11.984V22.832L159.388 22H169.948V23.664H159.388L159.9 22.832V33.616L159.388 32.208Z" fill="black"/>
</svg>
