<svg width="428" height="880" viewBox="0 0 428 880" fill="none" xmlns="http://www.w3.org/2000/svg">
<rect width="428" height="880" rx="73" fill="#585858"/>
<rect x="1" y="1" width="426" height="878" rx="72" stroke="black" stroke-opacity="0.2" stroke-width="2"/>
<g clip-path="url(#clip0_573_8818)">
<rect x="19" y="19" width="390" height="844" rx="60" fill="white"/>
<path d="M36.668 153V133.203H44.4336C48.9453 133.203 51.5156 135.746 51.5156 139.656C51.5156 142.363 50.2715 144.332 48.0156 145.289L52.2266 153H47.6875L43.9141 145.973H40.7695V153H36.668ZM40.7695 142.637H43.668C46.1016 142.637 47.2773 141.625 47.2773 139.656C47.2773 137.66 46.1016 136.566 43.668 136.566H40.7695V142.637ZM60.7578 153.301C56.2188 153.301 53.4297 150.348 53.4297 145.645C53.4297 141.051 56.2461 137.961 60.5938 137.961C64.5039 137.961 67.5664 140.422 67.5664 145.48V146.629H57.4219C57.4219 148.871 58.7617 150.266 60.8398 150.266C62.207 150.266 63.1914 149.664 63.6016 148.762H67.457C66.8828 151.496 64.4219 153.301 60.7578 153.301ZM57.4219 144.086H63.7383C63.7383 142.281 62.4805 140.996 60.6758 140.996C58.8164 140.996 57.4902 142.377 57.4219 144.086ZM76.7812 153.301C72.2422 153.301 69.5078 150.156 69.5078 145.617C69.5078 141.078 72.2695 137.961 76.7812 137.961C80.6094 137.961 83.207 140.203 83.3711 143.594H79.5703C79.3242 142.117 78.3672 141.105 76.8359 141.105C74.8945 141.105 73.6094 142.746 73.6094 145.562C73.6094 148.434 74.8672 150.074 76.8359 150.074C78.2578 150.074 79.3242 149.199 79.5703 147.613H83.3711C83.1797 150.977 80.7188 153.301 76.7812 153.301ZM92.5586 153.301C88.0742 153.301 85.2852 150.211 85.2852 145.617C85.2852 141.023 88.0742 137.961 92.5586 137.961C97.043 137.961 99.8594 141.023 99.8594 145.617C99.8594 150.211 97.043 153.301 92.5586 153.301ZM92.5859 150.156C94.6641 150.156 95.7305 148.215 95.7305 145.617C95.7305 142.992 94.6641 141.051 92.5859 141.051C90.4805 141.051 89.3867 142.992 89.3867 145.617C89.3867 148.215 90.4805 150.156 92.5859 150.156ZM102.402 153V138.152H106.312V140.723H106.477C107.023 138.891 108.391 137.934 110.059 137.934C110.469 137.934 110.988 137.988 111.344 138.07V141.68C110.961 141.57 110.195 141.461 109.621 141.461C107.789 141.461 106.449 142.746 106.449 144.551V153H102.402ZM118.316 153.246C114.926 153.246 112.273 150.539 112.273 145.59C112.273 140.504 115.035 137.961 118.316 137.961C120.805 137.961 121.98 139.438 122.527 140.641H122.664V133.203H126.711V153H122.719V150.621H122.527C121.953 151.852 120.723 153.246 118.316 153.246ZM119.574 150.02C121.598 150.02 122.746 148.242 122.746 145.562C122.746 142.883 121.598 141.188 119.574 141.188C117.523 141.188 116.43 142.965 116.43 145.562C116.43 148.188 117.523 150.02 119.574 150.02ZM138.797 158.578C138.004 158.578 137.266 158.551 136.746 158.496V155.352C137.266 155.379 137.867 155.406 138.387 155.406C139.18 155.406 139.836 155.324 140.328 154.039L140.574 153.41L135.242 138.152H139.48L142.598 149.09H142.762L145.906 138.152H150.199L144.402 154.641C143.555 157.02 141.941 158.578 138.797 158.578ZM158.348 153.301C153.863 153.301 151.074 150.211 151.074 145.617C151.074 141.023 153.863 137.961 158.348 137.961C162.832 137.961 165.648 141.023 165.648 145.617C165.648 150.211 162.832 153.301 158.348 153.301ZM158.375 150.156C160.453 150.156 161.52 148.215 161.52 145.617C161.52 142.992 160.453 141.051 158.375 141.051C156.27 141.051 155.176 142.992 155.176 145.617C155.176 148.215 156.27 150.156 158.375 150.156ZM177.707 146.684V138.152H181.754V153H177.871V150.32H177.707C177.023 152.043 175.438 153.191 173.195 153.191C170.215 153.191 168.191 151.086 168.191 147.613V138.152H172.238V146.902C172.238 148.652 173.25 149.773 174.836 149.773C176.312 149.773 177.707 148.707 177.707 146.684ZM184.898 153V138.152H188.809V140.723H188.973C189.52 138.891 190.887 137.934 192.555 137.934C192.965 137.934 193.484 137.988 193.84 138.07V141.68C193.457 141.57 192.691 141.461 192.117 141.461C190.285 141.461 188.945 142.746 188.945 144.551V153H184.898ZM202.344 153V133.203H206.391V140.641H206.5C207.074 139.438 208.25 137.961 210.738 137.961C214.02 137.961 216.781 140.504 216.781 145.59C216.781 150.539 214.129 153.246 210.738 153.246C208.305 153.246 207.074 151.852 206.5 150.621H206.336V153H202.344ZM206.309 145.562C206.309 148.242 207.457 150.02 209.453 150.02C211.531 150.02 212.625 148.188 212.625 145.562C212.625 142.965 211.531 141.188 209.453 141.188C207.43 141.188 206.309 142.883 206.309 145.562ZM219.379 153V138.152H223.289V140.723H223.453C224 138.891 225.367 137.934 227.035 137.934C227.445 137.934 227.965 137.988 228.32 138.07V141.68C227.938 141.57 227.172 141.461 226.598 141.461C224.766 141.461 223.426 142.746 223.426 144.551V153H219.379ZM236.551 153.301C232.012 153.301 229.223 150.348 229.223 145.645C229.223 141.051 232.039 137.961 236.387 137.961C240.297 137.961 243.359 140.422 243.359 145.48V146.629H233.215C233.215 148.871 234.555 150.266 236.633 150.266C238 150.266 238.984 149.664 239.395 148.762H243.25C242.676 151.496 240.215 153.301 236.551 153.301ZM233.215 144.086H239.531C239.531 142.281 238.273 140.996 236.469 140.996C234.609 140.996 233.283 142.377 233.215 144.086ZM245.191 148.844C245.191 145.535 247.871 144.441 250.715 144.277C251.781 144.209 253.777 144.113 254.406 144.086V142.883C254.379 141.652 253.531 140.914 252.027 140.914C250.66 140.914 249.785 141.543 249.566 142.555H245.711C245.957 139.984 248.199 137.961 252.137 137.961C255.363 137.961 258.426 139.41 258.426 142.992V153H254.598V150.949H254.488C253.75 152.316 252.355 153.273 250.141 153.273C247.297 153.273 245.191 151.797 245.191 148.844ZM249.074 148.734C249.074 149.883 250.004 150.484 251.289 150.484C253.121 150.484 254.434 149.254 254.406 147.695V146.602C253.791 146.629 252.068 146.725 251.371 146.793C249.977 146.93 249.074 147.586 249.074 148.734ZM269.336 138.152V141.188H266.547V148.434C266.547 149.609 267.121 149.91 267.941 149.938C268.352 149.938 269.062 149.91 269.555 149.855V153.055C269.117 153.137 268.406 153.191 267.395 153.191C264.469 153.191 262.473 151.879 262.5 149.008V141.188H260.449V138.152H262.5V134.598H266.547V138.152H269.336ZM276.254 144.414V153H272.207V133.203H276.145V140.75H276.309C276.992 139.027 278.496 137.961 280.738 137.961C283.828 137.961 285.879 140.039 285.879 143.539V153H281.832V144.25C281.832 142.418 280.848 141.324 279.152 141.324C277.457 141.324 276.254 142.445 276.254 144.414ZM293.398 150.977L291.047 158.77H288.148L289.516 150.977H293.398Z" fill="#292E34"/>
<rect x="75" y="295" width="278" height="278" rx="139" fill="url(#paint0_radial_573_8818)" fill-opacity="0.7"/>
<rect x="75.5" y="295.5" width="277" height="277" rx="138.5" stroke="#0663FF" stroke-opacity="0.1"/>
<rect x="96.4574" y="316.457" width="235.085" height="235.085" rx="117.543" stroke="#0663FF" stroke-opacity="0.2" stroke-width="0.914729"/>
<rect x="123.5" y="343.5" width="181" height="181" rx="90.5" stroke="#0F68FF" stroke-opacity="0.3"/>
<g style="mix-blend-mode:multiply">
<rect width="126" height="71.7907" transform="translate(151 398.104)" fill="url(#paint1_radial_573_8818)" fill-opacity="0.7"/>
<g filter="url(#filter0_di_573_8818)">
<rect x="158.326" y="417.884" width="5.86047" height="32.2326" rx="2.93023" fill="url(#paint2_linear_573_8818)"/>
</g>
<g filter="url(#filter1_di_573_8818)">
<rect x="171.512" y="405.431" width="5.86047" height="57.1395" rx="2.93023" fill="url(#paint3_linear_573_8818)"/>
</g>
<g filter="url(#filter2_di_573_8818)">
<rect x="184.698" y="409.459" width="5.86047" height="49.0814" rx="2.93023" fill="url(#paint4_linear_573_8818)"/>
</g>
<g filter="url(#filter3_di_573_8818)">
<rect x="197.884" y="413.122" width="5.86047" height="41.7558" rx="2.93023" fill="url(#paint5_linear_573_8818)"/>
</g>
<g filter="url(#filter4_di_573_8818)">
<rect x="211.07" y="413.122" width="5.86047" height="41.7558" rx="2.93023" fill="url(#paint6_linear_573_8818)"/>
</g>
<g filter="url(#filter5_di_573_8818)">
<rect x="224.256" y="418.616" width="5.86047" height="30.7674" rx="2.93023" fill="url(#paint7_linear_573_8818)"/>
</g>
<g filter="url(#filter6_di_573_8818)">
<rect x="237.442" y="426.675" width="5.86047" height="14.6512" rx="2.93023" fill="url(#paint8_linear_573_8818)"/>
</g>
<g filter="url(#filter7_di_573_8818)">
<rect x="250.628" y="417.151" width="5.86047" height="33.6977" rx="2.93023" fill="url(#paint9_linear_573_8818)"/>
</g>
<g filter="url(#filter8_di_573_8818)">
<rect x="263.814" y="412.39" width="5.86047" height="43.2209" rx="2.93023" fill="url(#paint10_linear_573_8818)"/>
</g>
</g>
<rect x="31.5" y="669.5" width="276" height="61" rx="11.5" stroke="#E9E9E9"/>
<path d="M45.3311 692L43.1719 684.223H44.418L45.9326 690.238H45.9971L47.5762 684.223H48.8008L50.3799 690.238H50.4443L51.959 684.223H53.2051L51.0459 692H49.8535L48.2207 686.188H48.1562L46.5234 692H45.3311ZM55.2246 688.541V692H54.0752V684.223H55.2031V687.123H55.2783C55.5576 686.489 56.0947 686.092 57.0078 686.092C58.2109 686.092 59.0059 686.833 59.0059 688.294V692H57.8564V688.434C57.8564 687.574 57.3945 687.08 56.6211 687.08C55.8154 687.08 55.2246 687.606 55.2246 688.541ZM60.8857 694.191C60.6494 694.191 60.4238 694.181 60.2734 694.159V693.203C60.4023 693.214 60.6279 693.225 60.7891 693.225C61.1436 693.225 61.4443 693.192 61.7129 692.462L61.8525 692.075L59.7148 686.167H60.9395L62.4111 690.689H62.4756L63.9473 686.167H65.1826L62.7764 692.773C62.4434 693.697 61.8418 694.191 60.8857 694.191ZM70.9834 692.118C69.5762 692.118 68.5449 690.979 68.5449 689.1C68.5449 687.198 69.5869 686.092 70.9941 686.092C72.0791 686.092 72.4766 686.747 72.6807 687.112H72.7344V684.223H73.8838V692H72.7666V691.087H72.6807C72.4658 691.474 72.0469 692.118 70.9834 692.118ZM71.2412 691.141C72.2188 691.141 72.7666 690.303 72.7666 689.078C72.7666 687.864 72.2295 687.069 71.2412 687.069C70.2207 687.069 69.7158 687.929 69.7158 689.078C69.7158 690.249 70.2422 691.141 71.2412 691.141ZM77.8477 692.118C76.1934 692.118 75.1191 690.915 75.1191 689.11C75.1191 687.295 76.1934 686.092 77.8477 686.092C79.4912 686.092 80.5654 687.295 80.5654 689.11C80.5654 690.915 79.4912 692.118 77.8477 692.118ZM77.8477 691.162C78.9004 691.162 79.4053 690.228 79.4053 689.11C79.4053 687.993 78.9004 687.037 77.8477 687.037C76.7734 687.037 76.2686 687.993 76.2686 689.11C76.2686 690.228 76.7734 691.162 77.8477 691.162ZM82.8428 688.541V692H81.6934V686.167H82.7998V687.123H82.8643C83.1436 686.5 83.7129 686.092 84.583 686.092C85.7861 686.092 86.5703 686.844 86.5703 688.294V692H85.4316V688.434C85.4316 687.585 84.9697 687.08 84.1963 687.08C83.4121 687.08 82.8428 687.606 82.8428 688.541ZM88.8369 684.223V686.994H87.8916V684.223H88.8369ZM92.8975 686.167V687.08H91.7051V690.281C91.7051 690.937 92.0381 691.055 92.4033 691.065C92.5645 691.065 92.8223 691.044 92.9834 691.033V692.032C92.8223 692.054 92.5752 692.075 92.2637 692.075C91.3613 692.075 90.5557 691.581 90.5664 690.518V687.08H89.707V686.167H90.5664V684.771H91.7051V686.167H92.8975ZM97.4092 694.191C97.1729 694.191 96.9473 694.181 96.7969 694.159V693.203C96.9258 693.214 97.1514 693.225 97.3125 693.225C97.667 693.225 97.9678 693.192 98.2363 692.462L98.376 692.075L96.2383 686.167H97.4629L98.9346 690.689H98.999L100.471 686.167H101.706L99.2998 692.773C98.9668 693.697 98.3652 694.191 97.4092 694.191ZM104.907 692.118C103.253 692.118 102.179 690.915 102.179 689.11C102.179 687.295 103.253 686.092 104.907 686.092C106.551 686.092 107.625 687.295 107.625 689.11C107.625 690.915 106.551 692.118 104.907 692.118ZM104.907 691.162C105.96 691.162 106.465 690.228 106.465 689.11C106.465 687.993 105.96 687.037 104.907 687.037C103.833 687.037 103.328 687.993 103.328 689.11C103.328 690.228 103.833 691.162 104.907 691.162ZM112.459 689.572V686.167H113.598V692H112.48V690.99H112.416C112.147 691.613 111.546 692.075 110.676 692.075C109.548 692.075 108.753 691.323 108.753 689.873V686.167H109.902V689.733C109.902 690.528 110.386 691.033 111.084 691.033C111.718 691.033 112.459 690.571 112.459 689.572ZM118.937 692L117.229 686.167H118.41L119.549 690.442H119.613L120.752 686.167H121.934L123.062 690.421H123.126L124.254 686.167H125.436L123.728 692H122.557L121.375 687.8H121.289L120.118 692H118.937ZM126.381 692V686.167H127.487V687.091H127.552C127.767 686.468 128.347 686.081 129.034 686.081C129.174 686.081 129.399 686.092 129.518 686.103V687.198C129.421 687.177 129.152 687.134 128.916 687.134C128.121 687.134 127.53 687.682 127.53 688.444V692H126.381ZM130.377 692V686.167H131.526V692H130.377ZM130.957 685.265C130.56 685.265 130.227 684.964 130.227 684.588C130.227 684.212 130.56 683.911 130.957 683.911C131.344 683.911 131.677 684.212 131.677 684.588C131.677 684.964 131.344 685.265 130.957 685.265ZM135.651 686.167V687.08H134.459V690.281C134.459 690.937 134.792 691.055 135.157 691.065C135.318 691.065 135.576 691.044 135.737 691.033V692.032C135.576 692.054 135.329 692.075 135.018 692.075C134.115 692.075 133.31 691.581 133.32 690.518V687.08H132.461V686.167H133.32V684.771H134.459V686.167H135.651ZM139.218 692.118C137.499 692.118 136.446 690.937 136.446 689.121C136.446 687.327 137.521 686.092 139.143 686.092C140.475 686.092 141.731 686.919 141.731 689.024V689.433H137.585C137.617 690.539 138.267 691.173 139.229 691.173C139.884 691.173 140.303 690.894 140.496 690.539H141.656C141.398 691.484 140.496 692.118 139.218 692.118ZM137.596 688.573H140.604C140.604 687.682 140.034 687.037 139.153 687.037C138.235 687.037 137.639 687.746 137.596 688.573ZM147.736 692.118C146.329 692.118 145.298 690.979 145.298 689.1C145.298 687.198 146.34 686.092 147.747 686.092C148.832 686.092 149.229 686.747 149.434 687.112H149.487V684.223H150.637V692H149.52V691.087H149.434C149.219 691.474 148.8 692.118 147.736 692.118ZM147.994 691.141C148.972 691.141 149.52 690.303 149.52 689.078C149.52 687.864 148.982 687.069 147.994 687.069C146.974 687.069 146.469 687.929 146.469 689.078C146.469 690.249 146.995 691.141 147.994 691.141ZM154.601 692.118C152.946 692.118 151.872 690.915 151.872 689.11C151.872 687.295 152.946 686.092 154.601 686.092C156.244 686.092 157.318 687.295 157.318 689.11C157.318 690.915 156.244 692.118 154.601 692.118ZM154.601 691.162C155.653 691.162 156.158 690.228 156.158 689.11C156.158 687.993 155.653 687.037 154.601 687.037C153.526 687.037 153.021 687.993 153.021 689.11C153.021 690.228 153.526 691.162 154.601 691.162ZM159.521 692L157.812 686.167H158.994L160.133 690.442H160.197L161.336 686.167H162.518L163.646 690.421H163.71L164.838 686.167H166.02L164.312 692H163.141L161.959 687.8H161.873L160.702 692H159.521ZM168.114 688.541V692H166.965V686.167H168.071V687.123H168.136C168.415 686.5 168.984 686.092 169.854 686.092C171.058 686.092 171.842 686.844 171.842 688.294V692H170.703V688.434C170.703 687.585 170.241 687.08 169.468 687.08C168.684 687.08 168.114 687.606 168.114 688.541ZM175.655 690.356C175.655 689.024 176.783 688.681 177.836 688.605C178.223 688.579 179.098 688.53 179.372 688.52L179.361 688.058C179.361 687.402 178.964 687.016 178.18 687.016C177.503 687.016 177.095 687.327 176.977 687.757H175.838C175.945 686.79 176.848 686.092 178.223 686.092C179.146 686.092 180.511 686.436 180.511 688.122V692H179.394V691.205H179.351C179.125 691.646 178.588 692.129 177.621 692.129C176.515 692.129 175.655 691.495 175.655 690.356ZM176.772 690.367C176.772 690.926 177.234 691.216 177.879 691.216C178.813 691.216 179.372 690.593 179.372 689.895V689.357L177.997 689.454C177.245 689.508 176.772 689.787 176.772 690.367ZM183.046 688.541V692H181.896V686.167H183.003V687.123H183.067C183.347 686.5 183.916 686.092 184.786 686.092C185.989 686.092 186.773 686.844 186.773 688.294V692H185.635V688.434C185.635 687.585 185.173 687.08 184.399 687.08C183.615 687.08 183.046 687.606 183.046 688.541ZM193.369 692.118C191.65 692.118 190.598 690.937 190.598 689.121C190.598 687.327 191.672 686.092 193.294 686.092C194.626 686.092 195.883 686.919 195.883 689.024V689.433H191.736C191.769 690.539 192.418 691.173 193.38 691.173C194.035 691.173 194.454 690.894 194.647 690.539H195.808C195.55 691.484 194.647 692.118 193.369 692.118ZM191.747 688.573H194.755C194.755 687.682 194.186 687.037 193.305 687.037C192.386 687.037 191.79 687.746 191.747 688.573ZM198.171 688.541V692H197.021V686.167H198.128V687.123H198.192C198.472 686.5 199.041 686.092 199.911 686.092C201.114 686.092 201.898 686.844 201.898 688.294V692H200.76V688.434C200.76 687.585 200.298 687.08 199.524 687.08C198.74 687.08 198.171 687.606 198.171 688.541ZM205.476 692.118C204.068 692.118 203.037 690.979 203.037 689.1C203.037 687.198 204.079 686.092 205.486 686.092C206.571 686.092 206.969 686.747 207.173 687.112H207.227V684.223H208.376V692H207.259V691.087H207.173C206.958 691.474 206.539 692.118 205.476 692.118ZM205.733 691.141C206.711 691.141 207.259 690.303 207.259 689.078C207.259 687.864 206.722 687.069 205.733 687.069C204.713 687.069 204.208 687.929 204.208 689.078C204.208 690.249 204.734 691.141 205.733 691.141ZM209.869 692V686.167H211.019V692H209.869ZM210.449 685.265C210.052 685.265 209.719 684.964 209.719 684.588C209.719 684.212 210.052 683.911 210.449 683.911C210.836 683.911 211.169 684.212 211.169 684.588C211.169 684.964 210.836 685.265 210.449 685.265ZM213.564 688.541V692H212.415V686.167H213.521V687.123H213.586C213.865 686.5 214.435 686.092 215.305 686.092C216.508 686.092 217.292 686.844 217.292 688.294V692H216.153V688.434C216.153 687.585 215.691 687.08 214.918 687.08C214.134 687.08 213.564 687.606 213.564 688.541ZM221.138 694.31C219.666 694.31 218.699 693.654 218.592 692.569H219.763C219.87 693.117 220.386 693.386 221.148 693.386C222.062 693.386 222.642 692.999 222.642 692.086V690.937H222.566C222.362 691.312 221.943 691.914 220.869 691.914C219.494 691.914 218.431 690.883 218.431 689.024C218.431 687.166 219.473 686.092 220.88 686.092C221.965 686.092 222.362 686.747 222.577 687.112H222.652V686.167H223.77V692.129C223.77 693.622 222.642 694.31 221.138 694.31ZM221.127 690.969C222.104 690.969 222.652 690.249 222.652 689.046C222.652 687.864 222.115 687.069 221.127 687.069C220.106 687.069 219.602 687.929 219.602 689.046C219.602 690.185 220.128 690.969 221.127 690.969ZM229.001 688.541V692H227.852V686.167H228.958V687.123H229.022C229.302 686.5 229.871 686.092 230.741 686.092C231.944 686.092 232.729 686.844 232.729 688.294V692H231.59V688.434C231.59 687.585 231.128 687.08 230.354 687.08C229.57 687.08 229.001 687.606 229.001 688.541ZM236.596 692.118C234.941 692.118 233.867 690.915 233.867 689.11C233.867 687.295 234.941 686.092 236.596 686.092C238.239 686.092 239.313 687.295 239.313 689.11C239.313 690.915 238.239 692.118 236.596 692.118ZM236.596 691.162C237.648 691.162 238.153 690.228 238.153 689.11C238.153 687.993 237.648 687.037 236.596 687.037C235.521 687.037 235.017 687.993 235.017 689.11C235.017 690.228 235.521 691.162 236.596 691.162ZM243.17 686.167V687.08H241.978V690.281C241.978 690.937 242.311 691.055 242.676 691.065C242.837 691.065 243.095 691.044 243.256 691.033V692.032C243.095 692.054 242.848 692.075 242.536 692.075C241.634 692.075 240.828 691.581 240.839 690.518V687.08H239.979V686.167H240.839V684.771H241.978V686.167H243.17ZM246.736 692.118C245.018 692.118 243.965 690.937 243.965 689.121C243.965 687.327 245.039 686.092 246.661 686.092C247.993 686.092 249.25 686.919 249.25 689.024V689.433H245.104C245.136 690.539 245.786 691.173 246.747 691.173C247.402 691.173 247.821 690.894 248.015 690.539H249.175C248.917 691.484 248.015 692.118 246.736 692.118ZM245.114 688.573H248.122C248.122 687.682 247.553 687.037 246.672 687.037C245.753 687.037 245.157 687.746 245.114 688.573ZM254.224 684.223V692H253.074V684.223H254.224ZM255.62 692V686.167H256.77V692H255.62ZM256.2 685.265C255.803 685.265 255.47 684.964 255.47 684.588C255.47 684.212 255.803 683.911 256.2 683.911C256.587 683.911 256.92 684.212 256.92 684.588C256.92 684.964 256.587 685.265 256.2 685.265ZM258.166 692V684.223H259.315V688.627H259.412L261.722 686.167H263.097L260.744 688.67L263.258 692H261.851L259.874 689.379L259.315 689.927V692H258.166ZM266.266 692.118C264.547 692.118 263.494 690.937 263.494 689.121C263.494 687.327 264.568 686.092 266.19 686.092C267.522 686.092 268.779 686.919 268.779 689.024V689.433H264.633C264.665 690.539 265.315 691.173 266.276 691.173C266.932 691.173 267.351 690.894 267.544 690.539H268.704C268.446 691.484 267.544 692.118 266.266 692.118ZM264.644 688.573H267.651C267.651 687.682 267.082 687.037 266.201 687.037C265.283 687.037 264.687 687.746 264.644 688.573ZM275.332 686.167V687.08H274.14V690.281C274.14 690.937 274.473 691.055 274.838 691.065C274.999 691.065 275.257 691.044 275.418 691.033V692.032C275.257 692.054 275.01 692.075 274.698 692.075C273.796 692.075 272.99 691.581 273.001 690.518V687.08H272.142V686.167H273.001V684.771H274.14V686.167H275.332ZM277.728 688.541V692H276.578V684.223H277.706V687.123H277.781C278.061 686.489 278.598 686.092 279.511 686.092C280.714 686.092 281.509 686.833 281.509 688.294V692H280.359V688.434C280.359 687.574 279.897 687.08 279.124 687.08C278.318 687.08 277.728 687.606 277.728 688.541ZM282.895 692V686.167H284.044V692H282.895ZM283.475 685.265C283.077 685.265 282.744 684.964 282.744 684.588C282.744 684.212 283.077 683.911 283.475 683.911C283.861 683.911 284.194 684.212 284.194 684.588C284.194 684.964 283.861 685.265 283.475 685.265ZM288.717 687.757C288.609 687.295 288.244 686.994 287.61 686.994C286.955 686.994 286.482 687.338 286.493 687.778C286.482 688.122 286.762 688.369 287.406 688.52L288.33 688.734C289.404 688.971 289.92 689.486 289.931 690.313C289.92 691.366 289.039 692.118 287.546 692.118C286.149 692.118 285.312 691.495 285.172 690.41H286.343C286.439 690.937 286.848 691.194 287.535 691.194C288.276 691.194 288.749 690.894 288.76 690.399C288.749 690.023 288.47 689.776 287.857 689.637L286.944 689.443C285.892 689.207 285.344 688.648 285.344 687.843C285.344 686.801 286.246 686.092 287.6 686.092C288.899 686.092 289.705 686.758 289.823 687.757H288.717ZM292.283 689.69C292.294 688.283 292.713 687.854 293.422 687.413C293.873 687.134 294.217 686.747 294.217 686.178C294.217 685.501 293.701 685.082 293.057 685.082C292.477 685.082 291.918 685.437 291.864 686.231H290.704C290.747 684.867 291.778 684.115 293.057 684.115C294.453 684.115 295.388 684.953 295.388 686.178C295.388 687.037 294.979 687.617 294.292 688.036C293.647 688.423 293.4 688.82 293.379 689.69V689.755H292.283V689.69ZM292.874 692.075C292.455 692.075 292.101 691.731 292.111 691.312C292.101 690.894 292.455 690.55 292.874 690.55C293.282 690.55 293.637 690.894 293.637 691.312C293.637 691.731 293.282 692.075 292.874 692.075Z" fill="#292E34" fill-opacity="0.6"/>
<path d="M45.7168 715L43.2031 705.809H44.3584L46.2754 713.248H46.3643L48.3066 705.809H49.5889L51.5439 713.248H51.6201L53.5371 705.809H54.6924L52.1787 715H50.998L48.9922 707.726H48.916L46.8975 715H45.7168ZM56.8633 710.861V715H55.7715V705.809H56.8633V709.186H56.9521C57.2695 708.475 57.8916 708.018 58.9834 708.018C60.3926 708.018 61.332 708.855 61.332 710.62V715H60.2402V710.696C60.2402 709.617 59.6436 708.995 58.6533 708.995C57.625 708.995 56.8633 709.668 56.8633 710.861ZM62.7539 713.045C62.7539 711.458 64.1504 711.103 65.3438 711.014C65.7817 710.982 66.8989 710.925 67.21 710.912V710.354C67.21 709.478 66.6895 708.97 65.6484 708.97C64.7725 708.97 64.252 709.376 64.0996 709.896H62.957C63.0967 708.792 64.1758 708.018 65.6992 708.018C66.6006 708.018 68.2891 708.284 68.2891 710.455V715H67.21V714.061H67.1592C66.9307 714.53 66.2959 715.165 65.1025 715.165C63.7949 715.165 62.7539 714.391 62.7539 713.045ZM63.8457 713.096C63.8457 713.819 64.4551 714.188 65.293 714.188C66.5244 714.188 67.21 713.362 67.21 712.499V711.801L65.4707 711.928C64.4805 711.991 63.8457 712.347 63.8457 713.096ZM73.0498 708.106V709.021H71.6025V713.02C71.6025 713.908 72.0342 714.048 72.5039 714.048C72.707 714.048 72.9863 714.035 73.1514 714.022V715.038C72.9863 715.063 72.707 715.089 72.3896 715.089C71.4756 715.089 70.498 714.518 70.498 713.299V709.021H69.457V708.106H70.498V706.456H71.6025V708.106H73.0498ZM80.3242 715.14C78.6104 715.14 77.3916 713.756 77.3916 711.572C77.3916 709.389 78.6104 708.018 80.3369 708.018C81.6699 708.018 82.1016 708.83 82.3301 709.198H82.4062V705.809H83.5107V715H82.4443V713.946H82.3301C82.0889 714.327 81.6445 715.14 80.3242 715.14ZM80.4766 714.162C81.7334 714.162 82.4443 713.096 82.4443 711.547C82.4443 710.023 81.7588 708.995 80.4766 708.995C79.1562 708.995 78.4961 710.112 78.4961 711.547C78.4961 713.02 79.1689 714.162 80.4766 714.162ZM88.2207 715.14C86.3418 715.14 85.0723 713.73 85.0723 711.585C85.0723 709.439 86.3418 708.018 88.2207 708.018C90.0869 708.018 91.3438 709.439 91.3438 711.585C91.3438 713.73 90.0869 715.14 88.2207 715.14ZM88.2207 714.175C89.6045 714.175 90.252 712.956 90.252 711.585C90.252 710.214 89.6045 708.982 88.2207 708.982C86.8115 708.982 86.1641 710.214 86.1641 711.585C86.1641 712.956 86.8115 714.175 88.2207 714.175ZM96.7393 717.59C96.498 717.59 96.2695 717.577 96.1299 717.564V716.587C96.2441 716.6 96.498 716.612 96.6631 716.612C97.1074 716.612 97.4756 716.574 97.8438 715.571L98.0469 715.051L95.4951 708.106H96.6885L98.5674 713.578H98.6436L100.522 708.106H101.716L98.7959 715.99C98.3896 717.069 97.7168 717.59 96.7393 717.59ZM105.486 715.14C103.607 715.14 102.338 713.73 102.338 711.585C102.338 709.439 103.607 708.018 105.486 708.018C107.353 708.018 108.609 709.439 108.609 711.585C108.609 713.73 107.353 715.14 105.486 715.14ZM105.486 714.175C106.87 714.175 107.518 712.956 107.518 711.585C107.518 710.214 106.87 708.982 105.486 708.982C104.077 708.982 103.43 710.214 103.43 711.585C103.43 712.956 104.077 714.175 105.486 714.175ZM114.398 712.169V708.106H115.478V715H114.398V713.832H114.322C113.992 714.53 113.319 715.089 112.278 715.089C110.971 715.089 110.044 714.238 110.044 712.486V708.106H111.136V712.41C111.136 713.4 111.758 714.035 112.634 714.035C113.408 714.035 114.398 713.451 114.398 712.169ZM122.041 715L119.946 708.106H121.102L122.574 713.362H122.638L124.098 708.106H125.266L126.7 713.337H126.776L128.249 708.106H129.392L127.297 715H126.218L124.72 709.744H124.618L123.133 715H122.041ZM130.268 713.045C130.268 711.458 131.664 711.103 132.857 711.014C133.295 710.982 134.413 710.925 134.724 710.912V710.354C134.724 709.478 134.203 708.97 133.162 708.97C132.286 708.97 131.766 709.376 131.613 709.896H130.471C130.61 708.792 131.689 708.018 133.213 708.018C134.114 708.018 135.803 708.284 135.803 710.455V715H134.724V714.061H134.673C134.444 714.53 133.81 715.165 132.616 715.165C131.309 715.165 130.268 714.391 130.268 713.045ZM131.359 713.096C131.359 713.819 131.969 714.188 132.807 714.188C134.038 714.188 134.724 713.362 134.724 712.499V711.801L132.984 711.928C131.994 711.991 131.359 712.347 131.359 713.096ZM138.646 710.861V715H137.555V708.106H138.608V709.186H138.697C139.027 708.487 139.662 708.018 140.716 708.018C142.112 708.018 143.039 708.868 143.039 710.62V715H141.947V710.696C141.947 709.63 141.363 708.995 140.386 708.995C139.383 708.995 138.646 709.668 138.646 710.861ZM147.8 708.106V709.021H146.353V713.02C146.353 713.908 146.784 714.048 147.254 714.048C147.457 714.048 147.736 714.035 147.901 714.022V715.038C147.736 715.063 147.457 715.089 147.14 715.089C146.226 715.089 145.248 714.518 145.248 713.299V709.021H144.207V708.106H145.248V706.456H146.353V708.106H147.8ZM155.48 708.106V709.021H154.033V713.02C154.033 713.908 154.465 714.048 154.935 714.048C155.138 714.048 155.417 714.035 155.582 714.022V715.038C155.417 715.063 155.138 715.089 154.82 715.089C153.906 715.089 152.929 714.518 152.929 713.299V709.021H151.888V708.106H152.929V706.456H154.033V708.106H155.48ZM159.632 715.14C157.753 715.14 156.483 713.73 156.483 711.585C156.483 709.439 157.753 708.018 159.632 708.018C161.498 708.018 162.755 709.439 162.755 711.585C162.755 713.73 161.498 715.14 159.632 715.14ZM159.632 714.175C161.016 714.175 161.663 712.956 161.663 711.585C161.663 710.214 161.016 708.982 159.632 708.982C158.223 708.982 157.575 710.214 157.575 711.585C157.575 712.956 158.223 714.175 159.632 714.175ZM171.286 709.896C171.134 709.325 170.702 708.944 169.89 708.944C169.039 708.944 168.43 709.401 168.43 709.985C168.43 710.442 168.798 710.76 169.61 710.95L170.639 711.204C171.87 711.496 172.479 712.105 172.479 713.07C172.479 714.264 171.502 715.14 169.775 715.14C168.227 715.14 167.3 714.454 167.122 713.197H168.265C168.392 713.87 168.887 714.188 169.75 714.188C170.728 714.188 171.35 713.781 171.35 713.134C171.35 712.651 171.007 712.321 170.22 712.144L169.179 711.902C167.973 711.623 167.338 710.963 167.338 710.049C167.338 708.868 168.366 708.018 169.89 708.018C171.312 708.018 172.213 708.779 172.353 709.896H171.286ZM173.571 713.045C173.571 711.458 174.968 711.103 176.161 711.014C176.599 710.982 177.716 710.925 178.027 710.912V710.354C178.027 709.478 177.507 708.97 176.466 708.97C175.59 708.97 175.069 709.376 174.917 709.896H173.774C173.914 708.792 174.993 708.018 176.517 708.018C177.418 708.018 179.106 708.284 179.106 710.455V715H178.027V714.061H177.977C177.748 714.53 177.113 715.165 175.92 715.165C174.612 715.165 173.571 714.391 173.571 713.045ZM174.663 713.096C174.663 713.819 175.272 714.188 176.11 714.188C177.342 714.188 178.027 713.362 178.027 712.499V711.801L176.288 711.928C175.298 711.991 174.663 712.347 174.663 713.096ZM181.303 717.59C181.062 717.59 180.833 717.577 180.693 717.564V716.587C180.808 716.6 181.062 716.612 181.227 716.612C181.671 716.612 182.039 716.574 182.407 715.571L182.61 715.051L180.059 708.106H181.252L183.131 713.578H183.207L185.086 708.106H186.279L183.359 715.99C182.953 717.069 182.28 717.59 181.303 717.59ZM193.757 708.106V709.021H192.31V713.02C192.31 713.908 192.741 714.048 193.211 714.048C193.414 714.048 193.693 714.035 193.858 714.022V715.038C193.693 715.063 193.414 715.089 193.097 715.089C192.183 715.089 191.205 714.518 191.205 713.299V709.021H190.164V708.106H191.205V706.456H192.31V708.106H193.757ZM197.908 715.14C196.029 715.14 194.76 713.73 194.76 711.585C194.76 709.439 196.029 708.018 197.908 708.018C199.774 708.018 201.031 709.439 201.031 711.585C201.031 713.73 199.774 715.14 197.908 715.14ZM197.908 714.175C199.292 714.175 199.939 712.956 199.939 711.585C199.939 710.214 199.292 708.982 197.908 708.982C196.499 708.982 195.852 710.214 195.852 711.585C195.852 712.956 196.499 714.175 197.908 714.175ZM206.427 717.59C206.186 717.59 205.957 717.577 205.817 717.564V716.587C205.932 716.6 206.186 716.612 206.351 716.612C206.795 716.612 207.163 716.574 207.531 715.571L207.734 715.051L205.183 708.106H206.376L208.255 713.578H208.331L210.21 708.106H211.403L208.483 715.99C208.077 717.069 207.404 717.59 206.427 717.59ZM215.174 715.14C213.295 715.14 212.025 713.73 212.025 711.585C212.025 709.439 213.295 708.018 215.174 708.018C217.04 708.018 218.297 709.439 218.297 711.585C218.297 713.73 217.04 715.14 215.174 715.14ZM215.174 714.175C216.558 714.175 217.205 712.956 217.205 711.585C217.205 710.214 216.558 708.982 215.174 708.982C213.765 708.982 213.117 710.214 213.117 711.585C213.117 712.956 213.765 714.175 215.174 714.175ZM224.086 712.169V708.106H225.165V715H224.086V713.832H224.01C223.68 714.53 223.007 715.089 221.966 715.089C220.658 715.089 219.731 714.238 219.731 712.486V708.106H220.823V712.41C220.823 713.4 221.445 714.035 222.321 714.035C223.096 714.035 224.086 713.451 224.086 712.169ZM226.917 715V708.106H227.971V709.16H228.047C228.301 708.462 229.012 707.992 229.824 707.992C229.989 707.992 230.269 708.005 230.396 708.018V709.122C230.319 709.097 230.015 709.046 229.735 709.046C228.745 709.046 228.009 709.731 228.009 710.658V715H226.917ZM238.559 709.896C238.406 709.325 237.975 708.944 237.162 708.944C236.312 708.944 235.702 709.401 235.702 709.985C235.702 710.442 236.07 710.76 236.883 710.95L237.911 711.204C239.143 711.496 239.752 712.105 239.752 713.07C239.752 714.264 238.774 715.14 237.048 715.14C235.499 715.14 234.572 714.454 234.395 713.197H235.537C235.664 713.87 236.159 714.188 237.022 714.188C238 714.188 238.622 713.781 238.622 713.134C238.622 712.651 238.279 712.321 237.492 712.144L236.451 711.902C235.245 711.623 234.61 710.963 234.61 710.049C234.61 708.868 235.639 708.018 237.162 708.018C238.584 708.018 239.485 708.779 239.625 709.896H238.559ZM241.174 717.59V708.106H242.228V709.198H242.354C242.583 708.83 243.015 708.018 244.348 708.018C246.074 708.018 247.28 709.389 247.28 711.572C247.28 713.756 246.074 715.14 244.36 715.14C243.04 715.14 242.583 714.327 242.354 713.946H242.266V717.59H241.174ZM242.24 711.547C242.24 713.096 242.938 714.162 244.208 714.162C245.516 714.162 246.188 713.02 246.188 711.547C246.188 710.112 245.528 708.995 244.208 708.995C242.913 708.995 242.24 710.023 242.24 711.547ZM251.521 715.14C249.642 715.14 248.372 713.73 248.372 711.585C248.372 709.439 249.642 708.018 251.521 708.018C253.387 708.018 254.644 709.439 254.644 711.585C254.644 713.73 253.387 715.14 251.521 715.14ZM251.521 714.175C252.904 714.175 253.552 712.956 253.552 711.585C253.552 710.214 252.904 708.982 251.521 708.982C250.111 708.982 249.464 710.214 249.464 711.585C249.464 712.956 250.111 714.175 251.521 714.175ZM260.433 712.169V708.106H261.512V715H260.433V713.832H260.356C260.026 714.53 259.354 715.089 258.312 715.089C257.005 715.089 256.078 714.238 256.078 712.486V708.106H257.17V712.41C257.17 713.4 257.792 714.035 258.668 714.035C259.442 714.035 260.433 713.451 260.433 712.169ZM267.098 709.896C266.945 709.325 266.514 708.944 265.701 708.944C264.851 708.944 264.241 709.401 264.241 709.985C264.241 710.442 264.609 710.76 265.422 710.95L266.45 711.204C267.682 711.496 268.291 712.105 268.291 713.07C268.291 714.264 267.313 715.14 265.587 715.14C264.038 715.14 263.111 714.454 262.934 713.197H264.076C264.203 713.87 264.698 714.188 265.562 714.188C266.539 714.188 267.161 713.781 267.161 713.134C267.161 712.651 266.818 712.321 266.031 712.144L264.99 711.902C263.784 711.623 263.149 710.963 263.149 710.049C263.149 708.868 264.178 708.018 265.701 708.018C267.123 708.018 268.024 708.779 268.164 709.896H267.098ZM272.607 715.14C270.614 715.14 269.383 713.73 269.383 711.61C269.383 709.49 270.627 708.018 272.506 708.018C273.953 708.018 275.477 708.906 275.477 711.458V711.915H270.475C270.525 713.375 271.376 714.175 272.607 714.175C273.433 714.175 273.953 713.819 274.207 713.388H275.375C275.045 714.429 274.029 715.14 272.607 715.14ZM270.487 710.988H274.372C274.372 709.833 273.636 708.982 272.506 708.982C271.312 708.982 270.551 709.922 270.487 710.988ZM278.282 712.347C278.295 710.646 278.815 710.125 279.691 709.592C280.212 709.274 280.618 708.767 280.618 708.056C280.618 707.192 279.945 706.646 279.107 706.646C278.384 706.646 277.66 707.078 277.584 708.119H276.429C276.492 706.583 277.66 705.682 279.107 705.682C280.694 705.682 281.735 706.71 281.735 708.106C281.735 709.097 281.266 709.795 280.479 710.277C279.691 710.76 279.399 711.242 279.374 712.347V712.41H278.282V712.347ZM278.866 715.076C278.422 715.076 278.041 714.708 278.054 714.251C278.041 713.807 278.422 713.438 278.866 713.438C279.311 713.438 279.679 713.807 279.679 714.251C279.679 714.708 279.311 715.076 278.866 715.076Z" fill="#292E34"/>
<rect x="320.5" y="669.5" width="268" height="61" rx="11.5" stroke="#E9E9E9"/>
<path d="M334.331 692L332.172 684.223H333.418L334.933 690.238H334.997L336.576 684.223H337.801L339.38 690.238H339.444L340.959 684.223H342.205L340.046 692H338.854L337.221 686.188H337.156L335.523 692H334.331ZM344.225 688.541V692H343.075V684.223H344.203V687.123H344.278C344.558 686.489 345.095 686.092 346.008 686.092C347.211 686.092 348.006 686.833 348.006 688.294V692H346.856V688.434C346.856 687.574 346.395 687.08 345.621 687.08C344.815 687.08 344.225 687.606 344.225 688.541ZM349.886 694.191C349.649 694.191 349.424 694.181 349.273 694.159V693.203C349.402 693.214 349.628 693.225 349.789 693.225C350.144 693.225 350.444 693.192 350.713 692.462L350.853 692.075L348.715 686.167H349.939L351.411 690.689H351.476L352.947 686.167H354.183L351.776 692.773C351.443 693.697 350.842 694.191 349.886 694.191ZM359.983 692.118C358.576 692.118 357.545 690.979 357.545 689.1C357.545 687.198 358.587 686.092 359.994 686.092C361.079 686.092 361.477 686.747 361.681 687.112H361.734V684.223H362.884V692H361.767V691.087H361.681C361.466 691.474 361.047 692.118 359.983 692.118ZM360.241 691.141C361.219 691.141 361.767 690.303 361.767 689.078C361.767 687.864 361.229 687.069 360.241 687.069C359.221 687.069 358.716 687.929 358.716 689.078C358.716 690.249 359.242 691.141 360.241 691.141ZM366.848 692.118C365.193 692.118 364.119 690.915 364.119 689.11C364.119 687.295 365.193 686.092 366.848 686.092C368.491 686.092 369.565 687.295 369.565 689.11C369.565 690.915 368.491 692.118 366.848 692.118ZM366.848 691.162C367.9 691.162 368.405 690.228 368.405 689.11C368.405 687.993 367.9 687.037 366.848 687.037C365.773 687.037 365.269 687.993 365.269 689.11C365.269 690.228 365.773 691.162 366.848 691.162ZM371.843 688.541V692H370.693V686.167H371.8V687.123H371.864C372.144 686.5 372.713 686.092 373.583 686.092C374.786 686.092 375.57 686.844 375.57 688.294V692H374.432V688.434C374.432 687.585 373.97 687.08 373.196 687.08C372.412 687.08 371.843 687.606 371.843 688.541ZM377.837 684.223V686.994H376.892V684.223H377.837ZM381.897 686.167V687.08H380.705V690.281C380.705 690.937 381.038 691.055 381.403 691.065C381.564 691.065 381.822 691.044 381.983 691.033V692.032C381.822 692.054 381.575 692.075 381.264 692.075C380.361 692.075 379.556 691.581 379.566 690.518V687.08H378.707V686.167H379.566V684.771H380.705V686.167H381.897ZM386.409 694.191C386.173 694.191 385.947 694.181 385.797 694.159V693.203C385.926 693.214 386.151 693.225 386.312 693.225C386.667 693.225 386.968 693.192 387.236 692.462L387.376 692.075L385.238 686.167H386.463L387.935 690.689H387.999L389.471 686.167H390.706L388.3 692.773C387.967 693.697 387.365 694.191 386.409 694.191ZM393.907 692.118C392.253 692.118 391.179 690.915 391.179 689.11C391.179 687.295 392.253 686.092 393.907 686.092C395.551 686.092 396.625 687.295 396.625 689.11C396.625 690.915 395.551 692.118 393.907 692.118ZM393.907 691.162C394.96 691.162 395.465 690.228 395.465 689.11C395.465 687.993 394.96 687.037 393.907 687.037C392.833 687.037 392.328 687.993 392.328 689.11C392.328 690.228 392.833 691.162 393.907 691.162ZM401.459 689.572V686.167H402.598V692H401.48V690.99H401.416C401.147 691.613 400.546 692.075 399.676 692.075C398.548 692.075 397.753 691.323 397.753 689.873V686.167H398.902V689.733C398.902 690.528 399.386 691.033 400.084 691.033C400.718 691.033 401.459 690.571 401.459 689.572ZM407.937 692L406.229 686.167H407.41L408.549 690.442H408.613L409.752 686.167H410.934L412.062 690.421H412.126L413.254 686.167H414.436L412.728 692H411.557L410.375 687.8H410.289L409.118 692H407.937ZM415.381 692V686.167H416.487V687.091H416.552C416.767 686.468 417.347 686.081 418.034 686.081C418.174 686.081 418.399 686.092 418.518 686.103V687.198C418.421 687.177 418.152 687.134 417.916 687.134C417.121 687.134 416.53 687.682 416.53 688.444V692H415.381ZM419.377 692V686.167H420.526V692H419.377ZM419.957 685.265C419.56 685.265 419.227 684.964 419.227 684.588C419.227 684.212 419.56 683.911 419.957 683.911C420.344 683.911 420.677 684.212 420.677 684.588C420.677 684.964 420.344 685.265 419.957 685.265ZM424.651 686.167V687.08H423.459V690.281C423.459 690.937 423.792 691.055 424.157 691.065C424.318 691.065 424.576 691.044 424.737 691.033V692.032C424.576 692.054 424.329 692.075 424.018 692.075C423.115 692.075 422.31 691.581 422.32 690.518V687.08H421.461V686.167H422.32V684.771H423.459V686.167H424.651ZM428.218 692.118C426.499 692.118 425.446 690.937 425.446 689.121C425.446 687.327 426.521 686.092 428.143 686.092C429.475 686.092 430.731 686.919 430.731 689.024V689.433H426.585C426.617 690.539 427.267 691.173 428.229 691.173C428.884 691.173 429.303 690.894 429.496 690.539H430.656C430.398 691.484 429.496 692.118 428.218 692.118ZM426.596 688.573H429.604C429.604 687.682 429.034 687.037 428.153 687.037C427.235 687.037 426.639 687.746 426.596 688.573ZM436.736 692.118C435.329 692.118 434.298 690.979 434.298 689.1C434.298 687.198 435.34 686.092 436.747 686.092C437.832 686.092 438.229 686.747 438.434 687.112H438.487V684.223H439.637V692H438.52V691.087H438.434C438.219 691.474 437.8 692.118 436.736 692.118ZM436.994 691.141C437.972 691.141 438.52 690.303 438.52 689.078C438.52 687.864 437.982 687.069 436.994 687.069C435.974 687.069 435.469 687.929 435.469 689.078C435.469 690.249 435.995 691.141 436.994 691.141ZM443.601 692.118C441.946 692.118 440.872 690.915 440.872 689.11C440.872 687.295 441.946 686.092 443.601 686.092C445.244 686.092 446.318 687.295 446.318 689.11C446.318 690.915 445.244 692.118 443.601 692.118ZM443.601 691.162C444.653 691.162 445.158 690.228 445.158 689.11C445.158 687.993 444.653 687.037 443.601 687.037C442.526 687.037 442.021 687.993 442.021 689.11C442.021 690.228 442.526 691.162 443.601 691.162ZM448.521 692L446.812 686.167H447.994L449.133 690.442H449.197L450.336 686.167H451.518L452.646 690.421H452.71L453.838 686.167H455.02L453.312 692H452.141L450.959 687.8H450.873L449.702 692H448.521ZM457.114 688.541V692H455.965V686.167H457.071V687.123H457.136C457.415 686.5 457.984 686.092 458.854 686.092C460.058 686.092 460.842 686.844 460.842 688.294V692H459.703V688.434C459.703 687.585 459.241 687.08 458.468 687.08C457.684 687.08 457.114 687.606 457.114 688.541ZM464.655 690.356C464.655 689.024 465.783 688.681 466.836 688.605C467.223 688.579 468.098 688.53 468.372 688.52L468.361 688.058C468.361 687.402 467.964 687.016 467.18 687.016C466.503 687.016 466.095 687.327 465.977 687.757H464.838C464.945 686.79 465.848 686.092 467.223 686.092C468.146 686.092 469.511 686.436 469.511 688.122V692H468.394V691.205H468.351C468.125 691.646 467.588 692.129 466.621 692.129C465.515 692.129 464.655 691.495 464.655 690.356ZM465.772 690.367C465.772 690.926 466.234 691.216 466.879 691.216C467.813 691.216 468.372 690.593 468.372 689.895V689.357L466.997 689.454C466.245 689.508 465.772 689.787 465.772 690.367ZM472.046 688.541V692H470.896V686.167H472.003V687.123H472.067C472.347 686.5 472.916 686.092 473.786 686.092C474.989 686.092 475.773 686.844 475.773 688.294V692H474.635V688.434C474.635 687.585 474.173 687.08 473.399 687.08C472.615 687.08 472.046 687.606 472.046 688.541ZM482.369 692.118C480.65 692.118 479.598 690.937 479.598 689.121C479.598 687.327 480.672 686.092 482.294 686.092C483.626 686.092 484.883 686.919 484.883 689.024V689.433H480.736C480.769 690.539 481.418 691.173 482.38 691.173C483.035 691.173 483.454 690.894 483.647 690.539H484.808C484.55 691.484 483.647 692.118 482.369 692.118ZM480.747 688.573H483.755C483.755 687.682 483.186 687.037 482.305 687.037C481.386 687.037 480.79 687.746 480.747 688.573ZM487.171 688.541V692H486.021V686.167H487.128V687.123H487.192C487.472 686.5 488.041 686.092 488.911 686.092C490.114 686.092 490.898 686.844 490.898 688.294V692H489.76V688.434C489.76 687.585 489.298 687.08 488.524 687.08C487.74 687.08 487.171 687.606 487.171 688.541ZM494.476 692.118C493.068 692.118 492.037 690.979 492.037 689.1C492.037 687.198 493.079 686.092 494.486 686.092C495.571 686.092 495.969 686.747 496.173 687.112H496.227V684.223H497.376V692H496.259V691.087H496.173C495.958 691.474 495.539 692.118 494.476 692.118ZM494.733 691.141C495.711 691.141 496.259 690.303 496.259 689.078C496.259 687.864 495.722 687.069 494.733 687.069C493.713 687.069 493.208 687.929 493.208 689.078C493.208 690.249 493.734 691.141 494.733 691.141ZM498.869 692V686.167H500.019V692H498.869ZM499.449 685.265C499.052 685.265 498.719 684.964 498.719 684.588C498.719 684.212 499.052 683.911 499.449 683.911C499.836 683.911 500.169 684.212 500.169 684.588C500.169 684.964 499.836 685.265 499.449 685.265ZM502.564 688.541V692H501.415V686.167H502.521V687.123H502.586C502.865 686.5 503.435 686.092 504.305 686.092C505.508 686.092 506.292 686.844 506.292 688.294V692H505.153V688.434C505.153 687.585 504.691 687.08 503.918 687.08C503.134 687.08 502.564 687.606 502.564 688.541ZM510.138 694.31C508.666 694.31 507.699 693.654 507.592 692.569H508.763C508.87 693.117 509.386 693.386 510.148 693.386C511.062 693.386 511.642 692.999 511.642 692.086V690.937H511.566C511.362 691.312 510.943 691.914 509.869 691.914C508.494 691.914 507.431 690.883 507.431 689.024C507.431 687.166 508.473 686.092 509.88 686.092C510.965 686.092 511.362 686.747 511.577 687.112H511.652V686.167H512.77V692.129C512.77 693.622 511.642 694.31 510.138 694.31ZM510.127 690.969C511.104 690.969 511.652 690.249 511.652 689.046C511.652 687.864 511.115 687.069 510.127 687.069C509.106 687.069 508.602 687.929 508.602 689.046C508.602 690.185 509.128 690.969 510.127 690.969ZM518.001 688.541V692H516.852V686.167H517.958V687.123H518.022C518.302 686.5 518.871 686.092 519.741 686.092C520.944 686.092 521.729 686.844 521.729 688.294V692H520.59V688.434C520.59 687.585 520.128 687.08 519.354 687.08C518.57 687.08 518.001 687.606 518.001 688.541ZM525.596 692.118C523.941 692.118 522.867 690.915 522.867 689.11C522.867 687.295 523.941 686.092 525.596 686.092C527.239 686.092 528.313 687.295 528.313 689.11C528.313 690.915 527.239 692.118 525.596 692.118ZM525.596 691.162C526.648 691.162 527.153 690.228 527.153 689.11C527.153 687.993 526.648 687.037 525.596 687.037C524.521 687.037 524.017 687.993 524.017 689.11C524.017 690.228 524.521 691.162 525.596 691.162ZM532.17 686.167V687.08H530.978V690.281C530.978 690.937 531.311 691.055 531.676 691.065C531.837 691.065 532.095 691.044 532.256 691.033V692.032C532.095 692.054 531.848 692.075 531.536 692.075C530.634 692.075 529.828 691.581 529.839 690.518V687.08H528.979V686.167H529.839V684.771H530.978V686.167H532.17ZM535.736 692.118C534.018 692.118 532.965 690.937 532.965 689.121C532.965 687.327 534.039 686.092 535.661 686.092C536.993 686.092 538.25 686.919 538.25 689.024V689.433H534.104C534.136 690.539 534.786 691.173 535.747 691.173C536.402 691.173 536.821 690.894 537.015 690.539H538.175C537.917 691.484 537.015 692.118 535.736 692.118ZM534.114 688.573H537.122C537.122 687.682 536.553 687.037 535.672 687.037C534.753 687.037 534.157 687.746 534.114 688.573ZM543.224 684.223V692H542.074V684.223H543.224ZM544.62 692V686.167H545.77V692H544.62ZM545.2 685.265C544.803 685.265 544.47 684.964 544.47 684.588C544.47 684.212 544.803 683.911 545.2 683.911C545.587 683.911 545.92 684.212 545.92 684.588C545.92 684.964 545.587 685.265 545.2 685.265ZM547.166 692V684.223H548.315V688.627H548.412L550.722 686.167H552.097L549.744 688.67L552.258 692H550.851L548.874 689.379L548.315 689.927V692H547.166ZM555.266 692.118C553.547 692.118 552.494 690.937 552.494 689.121C552.494 687.327 553.568 686.092 555.19 686.092C556.522 686.092 557.779 686.919 557.779 689.024V689.433H553.633C553.665 690.539 554.315 691.173 555.276 691.173C555.932 691.173 556.351 690.894 556.544 690.539H557.704C557.446 691.484 556.544 692.118 555.266 692.118ZM553.644 688.573H556.651C556.651 687.682 556.082 687.037 555.201 687.037C554.283 687.037 553.687 687.746 553.644 688.573ZM564.332 686.167V687.08H563.14V690.281C563.14 690.937 563.473 691.055 563.838 691.065C563.999 691.065 564.257 691.044 564.418 691.033V692.032C564.257 692.054 564.01 692.075 563.698 692.075C562.796 692.075 561.99 691.581 562.001 690.518V687.08H561.142V686.167H562.001V684.771H563.14V686.167H564.332ZM566.728 688.541V692H565.578V684.223H566.706V687.123H566.781C567.061 686.489 567.598 686.092 568.511 686.092C569.714 686.092 570.509 686.833 570.509 688.294V692H569.359V688.434C569.359 687.574 568.897 687.08 568.124 687.08C567.318 687.08 566.728 687.606 566.728 688.541ZM571.895 692V686.167H573.044V692H571.895ZM572.475 685.265C572.077 685.265 571.744 684.964 571.744 684.588C571.744 684.212 572.077 683.911 572.475 683.911C572.861 683.911 573.194 684.212 573.194 684.588C573.194 684.964 572.861 685.265 572.475 685.265ZM577.717 687.757C577.609 687.295 577.244 686.994 576.61 686.994C575.955 686.994 575.482 687.338 575.493 687.778C575.482 688.122 575.762 688.369 576.406 688.52L577.33 688.734C578.404 688.971 578.92 689.486 578.931 690.313C578.92 691.366 578.039 692.118 576.546 692.118C575.149 692.118 574.312 691.495 574.172 690.41H575.343C575.439 690.937 575.848 691.194 576.535 691.194C577.276 691.194 577.749 690.894 577.76 690.399C577.749 690.023 577.47 689.776 576.857 689.637L575.944 689.443C574.892 689.207 574.344 688.648 574.344 687.843C574.344 686.801 575.246 686.092 576.6 686.092C577.899 686.092 578.705 686.758 578.823 687.757H577.717ZM581.283 689.69C581.294 688.283 581.713 687.854 582.422 687.413C582.873 687.134 583.217 686.747 583.217 686.178C583.217 685.501 582.701 685.082 582.057 685.082C581.477 685.082 580.918 685.437 580.864 686.231H579.704C579.747 684.867 580.778 684.115 582.057 684.115C583.453 684.115 584.388 684.953 584.388 686.178C584.388 687.037 583.979 687.617 583.292 688.036C582.647 688.423 582.4 688.82 582.379 689.69V689.755H581.283V689.69ZM581.874 692.075C581.455 692.075 581.101 691.731 581.111 691.312C581.101 690.894 581.455 690.55 581.874 690.55C582.282 690.55 582.637 690.894 582.637 691.312C582.637 691.731 582.282 692.075 581.874 692.075Z" fill="#606060"/>
<path d="M334.717 715L332.203 705.809H333.358L335.275 713.248H335.364L337.307 705.809H338.589L340.544 713.248H340.62L342.537 705.809H343.692L341.179 715H339.998L337.992 707.726H337.916L335.897 715H334.717ZM345.863 710.861V715H344.771V705.809H345.863V709.186H345.952C346.27 708.475 346.892 708.018 347.983 708.018C349.393 708.018 350.332 708.855 350.332 710.62V715H349.24V710.696C349.24 709.617 348.644 708.995 347.653 708.995C346.625 708.995 345.863 709.668 345.863 710.861ZM351.754 713.045C351.754 711.458 353.15 711.103 354.344 711.014C354.782 710.982 355.899 710.925 356.21 710.912V710.354C356.21 709.478 355.689 708.97 354.648 708.97C353.772 708.97 353.252 709.376 353.1 709.896H351.957C352.097 708.792 353.176 708.018 354.699 708.018C355.601 708.018 357.289 708.284 357.289 710.455V715H356.21V714.061H356.159C355.931 714.53 355.296 715.165 354.103 715.165C352.795 715.165 351.754 714.391 351.754 713.045ZM352.846 713.096C352.846 713.819 353.455 714.188 354.293 714.188C355.524 714.188 356.21 713.362 356.21 712.499V711.801L354.471 711.928C353.48 711.991 352.846 712.347 352.846 713.096ZM362.05 708.106V709.021H360.603V713.02C360.603 713.908 361.034 714.048 361.504 714.048C361.707 714.048 361.986 714.035 362.151 714.022V715.038C361.986 715.063 361.707 715.089 361.39 715.089C360.476 715.089 359.498 714.518 359.498 713.299V709.021H358.457V708.106H359.498V706.456H360.603V708.106H362.05ZM369.324 715.14C367.61 715.14 366.392 713.756 366.392 711.572C366.392 709.389 367.61 708.018 369.337 708.018C370.67 708.018 371.102 708.83 371.33 709.198H371.406V705.809H372.511V715H371.444V713.946H371.33C371.089 714.327 370.645 715.14 369.324 715.14ZM369.477 714.162C370.733 714.162 371.444 713.096 371.444 711.547C371.444 710.023 370.759 708.995 369.477 708.995C368.156 708.995 367.496 710.112 367.496 711.547C367.496 713.02 368.169 714.162 369.477 714.162ZM377.221 715.14C375.342 715.14 374.072 713.73 374.072 711.585C374.072 709.439 375.342 708.018 377.221 708.018C379.087 708.018 380.344 709.439 380.344 711.585C380.344 713.73 379.087 715.14 377.221 715.14ZM377.221 714.175C378.604 714.175 379.252 712.956 379.252 711.585C379.252 710.214 378.604 708.982 377.221 708.982C375.812 708.982 375.164 710.214 375.164 711.585C375.164 712.956 375.812 714.175 377.221 714.175ZM385.739 717.59C385.498 717.59 385.27 717.577 385.13 717.564V716.587C385.244 716.6 385.498 716.612 385.663 716.612C386.107 716.612 386.476 716.574 386.844 715.571L387.047 715.051L384.495 708.106H385.688L387.567 713.578H387.644L389.522 708.106H390.716L387.796 715.99C387.39 717.069 386.717 717.59 385.739 717.59ZM394.486 715.14C392.607 715.14 391.338 713.73 391.338 711.585C391.338 709.439 392.607 708.018 394.486 708.018C396.353 708.018 397.609 709.439 397.609 711.585C397.609 713.73 396.353 715.14 394.486 715.14ZM394.486 714.175C395.87 714.175 396.518 712.956 396.518 711.585C396.518 710.214 395.87 708.982 394.486 708.982C393.077 708.982 392.43 710.214 392.43 711.585C392.43 712.956 393.077 714.175 394.486 714.175ZM403.398 712.169V708.106H404.478V715H403.398V713.832H403.322C402.992 714.53 402.319 715.089 401.278 715.089C399.971 715.089 399.044 714.238 399.044 712.486V708.106H400.136V712.41C400.136 713.4 400.758 714.035 401.634 714.035C402.408 714.035 403.398 713.451 403.398 712.169ZM411.041 715L408.946 708.106H410.102L411.574 713.362H411.638L413.098 708.106H414.266L415.7 713.337H415.776L417.249 708.106H418.392L416.297 715H415.218L413.72 709.744H413.618L412.133 715H411.041ZM419.268 713.045C419.268 711.458 420.664 711.103 421.857 711.014C422.295 710.982 423.413 710.925 423.724 710.912V710.354C423.724 709.478 423.203 708.97 422.162 708.97C421.286 708.97 420.766 709.376 420.613 709.896H419.471C419.61 708.792 420.689 708.018 422.213 708.018C423.114 708.018 424.803 708.284 424.803 710.455V715H423.724V714.061H423.673C423.444 714.53 422.81 715.165 421.616 715.165C420.309 715.165 419.268 714.391 419.268 713.045ZM420.359 713.096C420.359 713.819 420.969 714.188 421.807 714.188C423.038 714.188 423.724 713.362 423.724 712.499V711.801L421.984 711.928C420.994 711.991 420.359 712.347 420.359 713.096ZM427.646 710.861V715H426.555V708.106H427.608V709.186H427.697C428.027 708.487 428.662 708.018 429.716 708.018C431.112 708.018 432.039 708.868 432.039 710.62V715H430.947V710.696C430.947 709.63 430.363 708.995 429.386 708.995C428.383 708.995 427.646 709.668 427.646 710.861ZM436.8 708.106V709.021H435.353V713.02C435.353 713.908 435.784 714.048 436.254 714.048C436.457 714.048 436.736 714.035 436.901 714.022V715.038C436.736 715.063 436.457 715.089 436.14 715.089C435.226 715.089 434.248 714.518 434.248 713.299V709.021H433.207V708.106H434.248V706.456H435.353V708.106H436.8ZM444.48 708.106V709.021H443.033V713.02C443.033 713.908 443.465 714.048 443.935 714.048C444.138 714.048 444.417 714.035 444.582 714.022V715.038C444.417 715.063 444.138 715.089 443.82 715.089C442.906 715.089 441.929 714.518 441.929 713.299V709.021H440.888V708.106H441.929V706.456H443.033V708.106H444.48ZM448.632 715.14C446.753 715.14 445.483 713.73 445.483 711.585C445.483 709.439 446.753 708.018 448.632 708.018C450.498 708.018 451.755 709.439 451.755 711.585C451.755 713.73 450.498 715.14 448.632 715.14ZM448.632 714.175C450.016 714.175 450.663 712.956 450.663 711.585C450.663 710.214 450.016 708.982 448.632 708.982C447.223 708.982 446.575 710.214 446.575 711.585C446.575 712.956 447.223 714.175 448.632 714.175ZM459.461 708.106V709.021H458.014V713.02C458.014 713.908 458.445 714.048 458.915 714.048C459.118 714.048 459.397 714.035 459.562 714.022V715.038C459.397 715.063 459.118 715.089 458.801 715.089C457.887 715.089 456.909 714.518 456.909 713.299V709.021H455.868V708.106H456.909V706.456H458.014V708.106H459.461ZM463.688 715.14C461.695 715.14 460.464 713.73 460.464 711.61C460.464 709.49 461.708 708.018 463.587 708.018C465.034 708.018 466.558 708.906 466.558 711.458V711.915H461.556C461.606 713.375 462.457 714.175 463.688 714.175C464.514 714.175 465.034 713.819 465.288 713.388H466.456C466.126 714.429 465.11 715.14 463.688 715.14ZM461.568 710.988H465.453C465.453 709.833 464.717 708.982 463.587 708.982C462.394 708.982 461.632 709.922 461.568 710.988ZM469.071 705.809V715H467.979V705.809H469.071ZM471.902 705.809V715H470.811V705.809H471.902ZM477.603 717.59C477.361 717.59 477.133 717.577 476.993 717.564V716.587C477.107 716.6 477.361 716.612 477.526 716.612C477.971 716.612 478.339 716.574 478.707 715.571L478.91 715.051L476.358 708.106H477.552L479.431 713.578H479.507L481.386 708.106H482.579L479.659 715.99C479.253 717.069 478.58 717.59 477.603 717.59ZM486.35 715.14C484.471 715.14 483.201 713.73 483.201 711.585C483.201 709.439 484.471 708.018 486.35 708.018C488.216 708.018 489.473 709.439 489.473 711.585C489.473 713.73 488.216 715.14 486.35 715.14ZM486.35 714.175C487.733 714.175 488.381 712.956 488.381 711.585C488.381 710.214 487.733 708.982 486.35 708.982C484.94 708.982 484.293 710.214 484.293 711.585C484.293 712.956 484.94 714.175 486.35 714.175ZM495.262 712.169V708.106H496.341V715H495.262V713.832H495.186C494.855 714.53 494.183 715.089 493.142 715.089C491.834 715.089 490.907 714.238 490.907 712.486V708.106H491.999V712.41C491.999 713.4 492.621 714.035 493.497 714.035C494.271 714.035 495.262 713.451 495.262 712.169ZM498.093 715V708.106H499.146V709.16H499.223C499.477 708.462 500.188 707.992 501 707.992C501.165 707.992 501.444 708.005 501.571 708.018V709.122C501.495 709.097 501.19 709.046 500.911 709.046C499.921 709.046 499.185 709.731 499.185 710.658V715H498.093ZM505.9 715V705.809H506.992V711.153H507.119L510.103 708.106H511.448L508.541 711.052L511.664 715H510.28L507.729 711.75L506.992 712.423V715H505.9ZM512.616 715V708.106H513.708V715H512.616ZM513.162 706.964C512.743 706.964 512.4 706.646 512.4 706.24C512.4 705.834 512.743 705.517 513.162 705.517C513.581 705.517 513.937 705.834 513.937 706.24C513.937 706.646 513.581 706.964 513.162 706.964ZM518.05 715.14C516.336 715.14 515.117 713.756 515.117 711.572C515.117 709.389 516.336 708.018 518.062 708.018C519.396 708.018 519.827 708.83 520.056 709.198H520.132V705.809H521.236V715H520.17V713.946H520.056C519.814 714.327 519.37 715.14 518.05 715.14ZM518.202 714.162C519.459 714.162 520.17 713.096 520.17 711.547C520.17 710.023 519.484 708.995 518.202 708.995C516.882 708.995 516.222 710.112 516.222 711.547C516.222 713.02 516.895 714.162 518.202 714.162ZM526.962 709.896C526.81 709.325 526.378 708.944 525.565 708.944C524.715 708.944 524.105 709.401 524.105 709.985C524.105 710.442 524.474 710.76 525.286 710.95L526.314 711.204C527.546 711.496 528.155 712.105 528.155 713.07C528.155 714.264 527.178 715.14 525.451 715.14C523.902 715.14 522.976 714.454 522.798 713.197H523.94C524.067 713.87 524.562 714.188 525.426 714.188C526.403 714.188 527.025 713.781 527.025 713.134C527.025 712.651 526.683 712.321 525.896 712.144L524.854 711.902C523.648 711.623 523.014 710.963 523.014 710.049C523.014 708.868 524.042 708.018 525.565 708.018C526.987 708.018 527.889 708.779 528.028 709.896H526.962ZM530.961 712.347C530.974 710.646 531.494 710.125 532.37 709.592C532.891 709.274 533.297 708.767 533.297 708.056C533.297 707.192 532.624 706.646 531.786 706.646C531.062 706.646 530.339 707.078 530.263 708.119H529.107C529.171 706.583 530.339 705.682 531.786 705.682C533.373 705.682 534.414 706.71 534.414 708.106C534.414 709.097 533.944 709.795 533.157 710.277C532.37 710.76 532.078 711.242 532.053 712.347V712.41H530.961V712.347ZM531.545 715.076C531.101 715.076 530.72 714.708 530.732 714.251C530.72 713.807 531.101 713.438 531.545 713.438C531.989 713.438 532.357 713.807 532.357 714.251C532.357 714.708 531.989 715.076 531.545 715.076Z" fill="#292E34"/>
<circle cx="186" cy="753" r="2" fill="#00A3FF"/>
<circle cx="200" cy="753" r="2" fill="#D9D9D9"/>
<circle cx="214" cy="753" r="2" fill="#D9D9D9"/>
<circle cx="228" cy="753" r="2" fill="#D9D9D9"/>
<circle cx="242" cy="753" r="2" fill="#D9D9D9"/>
<rect width="390" height="102" transform="translate(19 764)" fill="white"/>
<path d="M54.6817 795.399V806.548H67.318V795.399M51.7085 797.629L60.9999 789.452L70.2913 797.629" stroke="#D2D6D8" stroke-width="1.85828" stroke-linecap="round" stroke-linejoin="round"/>
<path d="M43.9395 827V817.809H45.3359V821.795H49.9062V817.809H51.3027V827H49.9062V822.988H45.3359V827H43.9395ZM55.9873 827.14C54.0322 827.14 52.7563 825.718 52.7627 823.585C52.7563 821.439 54.0322 820.018 55.9873 820.018C57.9297 820.018 59.1992 821.439 59.1992 823.585C59.1992 825.718 57.9297 827.14 55.9873 827.14ZM54.1211 823.585C54.1211 824.899 54.7241 826.01 55.9873 826.01C57.2314 826.01 57.8281 824.899 57.8281 823.585C57.8281 822.265 57.2314 821.141 55.9873 821.135C54.7241 821.141 54.1211 822.265 54.1211 823.585ZM60.5322 827V820.106H61.8398V821.236H61.916C62.208 820.468 62.8872 820.018 63.7949 820.018C64.7153 820.018 65.3564 820.468 65.6484 821.236H65.7246C66.0483 820.494 66.7974 820.018 67.7939 820.018C69.0381 820.018 69.9204 820.798 69.9268 822.379V827H68.5684V822.506C68.5684 821.573 67.9844 821.186 67.2734 821.186C66.4038 821.186 65.9023 821.782 65.9023 822.607V827H64.5566V822.43C64.5566 821.674 64.0425 821.186 63.2998 821.186C62.5381 821.186 61.8906 821.82 61.8906 822.747V827H60.5322ZM74.5352 827.14C72.5039 827.14 71.2534 825.737 71.2598 823.598C71.2534 821.478 72.5229 820.018 74.4463 820.018C76.0142 820.018 77.5059 820.989 77.5059 823.483V823.966H72.6055C72.6436 825.28 73.418 826.022 74.5479 826.022C75.3159 826.022 75.8174 825.692 76.0459 825.273H77.417C77.1123 826.391 76.0522 827.14 74.5352 827.14ZM72.6118 822.95H76.1729C76.1729 821.903 75.4937 821.128 74.459 821.135C73.3735 821.128 72.6689 821.979 72.6118 822.95Z" fill="#D2D6D8"/>
<mask id="path-32-inside-1_573_8818" fill="white">
<rect x="121.75" y="787.167" width="20" height="21.6667" rx="2.08333"/>
</mask>
<rect x="121.75" y="787.167" width="20" height="21.6667" rx="2.08333" stroke="#292E34" stroke-width="5" mask="url(#path-32-inside-1_573_8818)"/>
<rect x="126.75" y="792.375" width="10" height="2.08333" rx="1.04167" fill="#292E34"/>
<rect x="126.75" y="796.958" width="10" height="2.08333" rx="1.04167" fill="#292E34"/>
<rect x="126.75" y="801.542" width="10" height="2.08333" rx="1.04167" fill="#292E34"/>
<path d="M97.1895 827V817.809H102.953V819.015H98.5859V821.795H102.648V822.988H98.5859V825.794H103.004V827H97.1895ZM105.911 822.912V827H104.553V820.106H105.86V821.236H105.937C106.267 820.5 106.939 820.018 107.968 820.018C109.39 820.018 110.316 820.906 110.316 822.62V827H108.971V822.785C108.971 821.782 108.425 821.186 107.511 821.186C106.584 821.186 105.911 821.808 105.911 822.912ZM114.544 827.14C112.881 827.14 111.662 825.794 111.662 823.572C111.662 821.325 112.894 820.018 114.557 820.018C115.839 820.018 116.309 820.792 116.55 821.224H116.613V817.809H117.972V827H116.651V825.921H116.55C116.296 826.378 115.801 827.14 114.544 827.14ZM114.849 825.984C116.004 825.984 116.651 824.994 116.651 823.547C116.651 822.112 116.017 821.173 114.849 821.173C113.643 821.173 113.046 822.188 113.046 823.547C113.046 824.931 113.668 825.984 114.849 825.984ZM119.736 827V820.106H121.095V827H119.736ZM120.422 819.04C119.952 819.04 119.559 818.685 119.559 818.24C119.559 817.796 119.952 817.44 120.422 817.44C120.879 817.44 121.272 817.796 121.272 818.24C121.272 818.685 120.879 819.04 120.422 819.04ZM124.104 822.912V827H122.745V820.106H124.053V821.236H124.129C124.459 820.5 125.132 820.018 126.16 820.018C127.582 820.018 128.509 820.906 128.509 822.62V827H127.163V822.785C127.163 821.782 126.617 821.186 125.703 821.186C124.776 821.186 124.104 821.808 124.104 822.912ZM133.054 829.729C131.314 829.729 130.172 828.955 130.045 827.673H131.429C131.556 828.32 132.165 828.638 133.066 828.638C134.146 828.638 134.831 828.181 134.831 827.102V825.743H134.742C134.501 826.188 134.006 826.898 132.736 826.898C131.111 826.898 129.854 825.68 129.854 823.483C129.854 821.287 131.086 820.018 132.749 820.018C134.031 820.018 134.501 820.792 134.755 821.224H134.844V820.106H136.164V827.152C136.164 828.917 134.831 829.729 133.054 829.729ZM133.041 825.781C134.196 825.781 134.844 824.931 134.844 823.509C134.844 822.112 134.209 821.173 133.041 821.173C131.835 821.173 131.238 822.188 131.238 823.509C131.238 824.854 131.86 825.781 133.041 825.781ZM142.347 822.912V827H140.988V820.106H142.296V821.236H142.372C142.702 820.5 143.375 820.018 144.403 820.018C145.825 820.018 146.752 820.906 146.752 822.62V827H145.406V822.785C145.406 821.782 144.86 821.186 143.946 821.186C143.02 821.186 142.347 821.808 142.347 822.912ZM151.322 827.14C149.367 827.14 148.098 825.718 148.098 823.585C148.098 821.439 149.367 820.018 151.322 820.018C153.265 820.018 154.534 821.439 154.534 823.585C154.534 825.718 153.265 827.14 151.322 827.14ZM151.322 826.01C152.566 826.01 153.163 824.905 153.163 823.585C153.163 822.265 152.566 821.135 151.322 821.135C150.053 821.135 149.456 822.265 149.456 823.585C149.456 824.905 150.053 826.01 151.322 826.01ZM159.092 820.106V821.186H157.683V824.969C157.683 825.743 158.076 825.883 158.508 825.896C158.698 825.896 159.003 825.87 159.193 825.857V827.038C159.003 827.063 158.711 827.089 158.343 827.089C157.276 827.089 156.324 826.505 156.337 825.248V821.186H155.321V820.106H156.337V818.456H157.683V820.106H159.092ZM163.307 827.14C161.275 827.14 160.031 825.743 160.031 823.598C160.031 821.478 161.301 820.018 163.218 820.018C164.792 820.018 166.277 820.995 166.277 823.483V823.966H161.377C161.415 825.273 162.183 826.022 163.319 826.022C164.094 826.022 164.589 825.692 164.817 825.273H166.188C165.884 826.391 164.817 827.14 163.307 827.14ZM161.39 822.95H164.944C164.944 821.896 164.271 821.135 163.23 821.135C162.145 821.135 161.44 821.973 161.39 822.95Z" fill="#292E34"/>
<path d="M229.002 803.843C228.442 803.843 228.023 803.636 227.743 803.222C227.463 802.808 227.273 802.198 227.172 801.392C227.082 800.575 227.038 799.439 227.038 797.984C227.038 796.584 227.071 795.493 227.138 794.71C227.217 793.926 227.396 793.299 227.676 792.829C227.967 792.359 228.414 792.124 229.019 792.124C229.623 792.124 230.065 792.359 230.345 792.829C230.636 793.299 230.815 793.926 230.882 794.71C230.961 795.493 231 796.584 231 797.984C231 799.36 230.938 800.474 230.815 801.325C230.703 802.164 230.502 802.796 230.211 803.222C229.92 803.636 229.517 803.843 229.002 803.843Z" fill="#D2D6D8"/>
<path d="M224.198 803.843C223.638 803.843 223.218 803.636 222.939 803.222C222.659 802.808 222.468 802.198 222.368 801.392C222.278 800.575 222.233 799.439 222.233 797.984C222.233 796.584 222.267 795.493 222.334 794.71C222.412 793.926 222.592 793.299 222.871 792.829C223.162 792.359 223.61 792.124 224.215 792.124C224.819 792.124 225.261 792.359 225.541 792.829C225.832 793.299 226.011 793.926 226.078 794.71C226.157 795.493 226.196 796.584 226.196 797.984C226.196 799.36 226.134 800.474 226.011 801.325C225.899 802.164 225.698 802.796 225.407 803.222C225.116 803.636 224.713 803.843 224.198 803.843Z" fill="#D2D6D8"/>
<path d="M217.889 803.877C217.061 803.877 216.328 803.715 215.69 803.39C215.052 803.066 214.553 802.613 214.195 802.031C213.848 801.437 213.675 800.771 213.675 800.033C213.675 799.305 213.848 798.633 214.195 798.018C214.553 797.402 215.046 796.91 215.673 796.54C216.3 796.171 217.01 795.986 217.805 795.986C218.521 795.986 219.154 796.132 219.702 796.423C220.251 796.714 220.671 797.1 220.962 797.581C221.253 798.051 221.398 798.544 221.398 799.059C221.398 799.898 221.079 800.514 220.441 800.906C219.814 801.286 219.064 801.476 218.191 801.476C217.609 801.476 217.117 801.404 216.714 801.258C217.05 801.807 217.604 802.081 218.376 802.081C218.689 802.081 219.025 802.042 219.383 801.963C219.518 801.93 219.646 801.913 219.769 801.913C220.016 801.913 220.212 801.975 220.357 802.098C220.514 802.221 220.592 802.389 220.592 802.601C220.592 802.948 220.38 803.251 219.954 803.508C219.529 803.754 218.84 803.877 217.889 803.877ZM216.764 799.21C216.865 799.367 216.999 799.484 217.167 799.562C217.346 799.63 217.542 799.663 217.755 799.663C218.001 799.663 218.214 799.607 218.393 799.495C218.583 799.383 218.678 799.238 218.678 799.059C218.678 798.857 218.594 798.684 218.426 798.538C218.27 798.393 218.04 798.32 217.738 798.32C217.436 798.32 217.195 798.415 217.016 798.605C216.848 798.785 216.764 798.986 216.764 799.21Z" fill="#D2D6D8"/>
<path d="M203.416 803.877C202.52 803.877 201.737 803.631 201.065 803.138C200.405 802.646 199.895 801.946 199.537 801.04C199.179 800.133 199 799.064 199 797.833C199 797.116 199.118 796.35 199.353 795.533C199.599 794.716 199.946 794.027 200.394 793.468C200.852 792.897 201.384 792.611 201.989 792.611C202.481 792.611 202.89 792.79 203.214 793.149C203.539 793.507 203.701 793.949 203.701 794.475C203.701 794.632 203.662 794.844 203.584 795.113C203.516 795.37 203.438 795.639 203.349 795.919C203.181 796.4 203.052 796.825 202.962 797.195C202.873 797.553 202.828 797.9 202.828 798.236C202.828 798.728 202.901 799.086 203.046 799.31C203.192 799.534 203.371 799.646 203.584 799.646C203.863 799.646 204.059 799.506 204.171 799.226C204.294 798.935 204.356 798.404 204.356 797.631L204.339 796.473C204.339 795.577 204.457 794.867 204.692 794.341C204.927 793.803 205.397 793.535 206.102 793.535C206.628 793.535 207.026 793.68 207.294 793.971C207.563 794.262 207.736 794.632 207.815 795.079C207.893 795.516 207.932 796.048 207.932 796.674V797.531C207.932 798.348 207.999 798.93 208.134 799.277C208.279 799.612 208.509 799.78 208.822 799.78C209.035 799.78 209.197 799.674 209.309 799.461C209.432 799.238 209.494 798.907 209.494 798.471C209.494 798.146 209.454 797.822 209.376 797.497C209.298 797.172 209.175 796.758 209.007 796.255C208.861 795.773 208.755 795.415 208.688 795.18C208.632 794.934 208.604 794.699 208.604 794.475C208.604 793.949 208.772 793.512 209.107 793.165C209.454 792.818 209.857 792.645 210.316 792.645C210.977 792.645 211.531 792.925 211.978 793.484C212.437 794.033 212.779 794.71 213.003 795.516C213.227 796.322 213.338 797.094 213.338 797.833C213.338 799.064 213.159 800.133 212.801 801.04C212.443 801.946 211.928 802.646 211.257 803.138C210.596 803.62 209.818 803.86 208.923 803.86C208.43 803.86 207.949 803.748 207.479 803.524C207.009 803.301 206.572 802.965 206.169 802.517C205.766 802.965 205.324 803.306 204.843 803.541C204.373 803.765 203.897 803.877 203.416 803.877Z" fill="#D2D6D8"/>
<path d="M187.292 827L184.741 817.809H186.213L188.003 824.918H188.08L189.946 817.809H191.393L193.259 824.918H193.335L195.125 817.809H196.598L194.046 827H192.637L190.708 820.132H190.631L188.702 827H187.292ZM199.912 827.14C197.88 827.14 196.636 825.743 196.636 823.598C196.636 821.478 197.906 820.018 199.823 820.018C201.397 820.018 202.882 820.995 202.882 823.483V823.966H197.982C198.02 825.273 198.788 826.022 199.924 826.022C200.699 826.022 201.194 825.692 201.422 825.273H202.793C202.489 826.391 201.422 827.14 199.912 827.14ZM197.995 822.95H201.549C201.549 821.896 200.876 821.135 199.835 821.135C198.75 821.135 198.045 821.973 197.995 822.95ZM205.586 817.809V827H204.228V817.809H205.586ZM208.595 817.809V827H207.237V817.809H208.595ZM215.997 827.14C214.333 827.14 213.115 825.794 213.115 823.572C213.115 821.325 214.346 820.018 216.009 820.018C217.292 820.018 217.761 820.792 218.002 821.224H218.066V817.809H219.424V827H218.104V825.921H218.002C217.749 826.378 217.253 827.14 215.997 827.14ZM216.301 825.984C217.457 825.984 218.104 824.994 218.104 823.547C218.104 822.112 217.469 821.173 216.301 821.173C215.095 821.173 214.499 822.188 214.499 823.547C214.499 824.931 215.121 825.984 216.301 825.984ZM222.027 829.59C221.748 829.59 221.481 829.577 221.303 829.552V828.422C221.456 828.435 221.722 828.447 221.913 828.447C222.332 828.447 222.687 828.409 223.004 827.546L223.169 827.089L220.643 820.106H222.09L223.83 825.451H223.906L225.645 820.106H227.105L224.261 827.914C223.868 829.006 223.157 829.59 222.027 829.59ZM228.209 827V820.106H229.568V827H228.209ZM228.895 819.04C228.425 819.04 228.032 818.685 228.032 818.24C228.032 817.796 228.425 817.44 228.895 817.44C229.352 817.44 229.746 817.796 229.746 818.24C229.746 818.685 229.352 819.04 228.895 819.04ZM232.577 822.912V827H231.218V820.106H232.526V821.236H232.602C232.932 820.5 233.605 820.018 234.633 820.018C236.055 820.018 236.982 820.906 236.982 822.62V827H235.636V822.785C235.636 821.782 235.09 821.186 234.176 821.186C233.25 821.186 232.577 821.808 232.577 822.912ZM241.527 829.729C239.788 829.729 238.645 828.955 238.518 827.673H239.902C240.029 828.32 240.638 828.638 241.54 828.638C242.619 828.638 243.304 828.181 243.304 827.102V825.743H243.215C242.974 826.188 242.479 826.898 241.209 826.898C239.584 826.898 238.328 825.68 238.328 823.483C238.328 821.287 239.559 820.018 241.222 820.018C242.504 820.018 242.974 820.792 243.228 821.224H243.317V820.106H244.637V827.152C244.637 828.917 243.304 829.729 241.527 829.729ZM241.514 825.781C242.669 825.781 243.317 824.931 243.317 823.509C243.317 822.112 242.682 821.173 241.514 821.173C240.308 821.173 239.711 822.188 239.711 823.509C239.711 824.854 240.333 825.781 241.514 825.781Z" fill="#D2D6D8"/>
<path d="M305.323 795.484C304.088 792.227 300.941 789.911 297.256 789.911C293.57 789.911 290.424 792.224 289.189 795.481C286.878 796.088 285.171 798.191 285.171 800.696C285.171 803.675 287.584 806.088 290.561 806.088H303.939C306.916 806.088 309.329 803.675 309.329 800.696C309.329 798.196 307.628 796.093 305.323 795.484ZM306.301 803.06C305.992 803.372 305.624 803.618 305.218 803.786C304.813 803.954 304.378 804.04 303.939 804.039H290.561C289.669 804.039 288.83 803.691 288.199 803.06C287.888 802.75 287.641 802.382 287.473 801.976C287.305 801.57 287.219 801.135 287.22 800.696C287.22 799.941 287.466 799.232 287.927 798.639C288.378 798.064 289.003 797.651 289.709 797.46L290.731 797.193L291.106 796.207C291.338 795.592 291.661 795.018 292.068 794.497C292.47 793.982 292.946 793.528 293.481 793.152C294.589 792.373 295.894 791.96 297.256 791.96C298.617 791.96 299.922 792.373 301.03 793.152C301.567 793.529 302.041 793.982 302.443 794.497C302.85 795.018 303.174 795.595 303.406 796.207L303.778 797.191L304.797 797.46C306.261 797.851 307.28 799.181 307.28 800.696C307.28 801.588 306.932 802.429 306.301 803.06Z" fill="#D2D6D8"/>
<path d="M269.91 820.805C269.682 819.624 268.704 818.964 267.536 818.964C265.949 818.964 264.769 820.183 264.769 822.404C264.769 824.639 265.962 825.845 267.536 825.845C268.691 825.845 269.669 825.197 269.91 824.029L271.319 824.042C271.027 825.857 269.542 827.127 267.523 827.127C265.124 827.127 263.385 825.337 263.385 822.404C263.385 819.459 265.137 817.682 267.523 817.682C269.466 817.682 271.002 818.824 271.319 820.805H269.91ZM275.636 827.14C273.681 827.14 272.411 825.718 272.411 823.585C272.411 821.439 273.681 820.018 275.636 820.018C277.578 820.018 278.848 821.439 278.848 823.585C278.848 825.718 277.578 827.14 275.636 827.14ZM275.636 826.01C276.88 826.01 277.477 824.905 277.477 823.585C277.477 822.265 276.88 821.135 275.636 821.135C274.366 821.135 273.77 822.265 273.77 823.585C273.77 824.905 274.366 826.01 275.636 826.01ZM280.181 827V820.106H281.488V821.236H281.564C281.856 820.462 282.529 820.018 283.443 820.018C284.357 820.018 285.005 820.475 285.297 821.236H285.373C285.703 820.487 286.439 820.018 287.442 820.018C288.687 820.018 289.575 820.805 289.575 822.379V827H288.217V822.506C288.217 821.579 287.633 821.186 286.922 821.186C286.046 821.186 285.551 821.782 285.551 822.607V827H284.205V822.43C284.205 821.681 283.685 821.186 282.948 821.186C282.187 821.186 281.539 821.82 281.539 822.747V827H280.181ZM291.213 827V820.106H292.521V821.236H292.597C292.889 820.462 293.562 820.018 294.476 820.018C295.39 820.018 296.037 820.475 296.329 821.236H296.405C296.735 820.487 297.472 820.018 298.475 820.018C299.719 820.018 300.607 820.805 300.607 822.379V827H299.249V822.506C299.249 821.579 298.665 821.186 297.954 821.186C297.078 821.186 296.583 821.782 296.583 822.607V827H295.237V822.43C295.237 821.681 294.717 821.186 293.98 821.186C293.219 821.186 292.571 821.82 292.571 822.747V827H291.213ZM306.625 824.131V820.106H307.971V827H306.65V825.807H306.574C306.257 826.543 305.546 827.089 304.518 827.089C303.185 827.089 302.245 826.2 302.245 824.486V820.106H303.604V824.321C303.604 825.261 304.175 825.857 305 825.857C305.749 825.857 306.625 825.312 306.625 824.131ZM310.979 822.912V827H309.621V820.106H310.929V821.236H311.005C311.335 820.5 312.008 820.018 313.036 820.018C314.458 820.018 315.385 820.906 315.385 822.62V827H314.039V822.785C314.039 821.782 313.493 821.186 312.579 821.186C311.652 821.186 310.979 821.808 310.979 822.912ZM317.035 827V820.106H318.394V827H317.035ZM317.721 819.04C317.251 819.04 316.857 818.685 316.857 818.24C316.857 817.796 317.251 817.44 317.721 817.44C318.178 817.44 318.571 817.796 318.571 818.24C318.571 818.685 318.178 819.04 317.721 819.04ZM323.269 820.106V821.186H321.859V824.969C321.859 825.743 322.253 825.883 322.685 825.896C322.875 825.896 323.18 825.87 323.37 825.857V827.038C323.18 827.063 322.888 827.089 322.52 827.089C321.453 827.089 320.501 826.505 320.514 825.248V821.186H319.498V820.106H320.514V818.456H321.859V820.106H323.269ZM325.427 829.59C325.147 829.59 324.881 829.577 324.703 829.552V828.422C324.855 828.435 325.122 828.447 325.312 828.447C325.731 828.447 326.087 828.409 326.404 827.546L326.569 827.089L324.043 820.106H325.49L327.229 825.451H327.306L329.045 820.106H330.505L327.661 827.914C327.268 829.006 326.557 829.59 325.427 829.59Z" fill="#D2D6D8"/>
<path d="M359.853 800.144C359.284 800.144 358.739 799.918 358.337 799.516C357.934 799.114 357.708 798.568 357.708 798C357.708 797.431 357.934 796.886 358.337 796.483C358.739 796.081 359.284 795.855 359.853 795.855C360.421 795.855 360.967 796.081 361.369 796.483C361.771 796.886 361.997 797.431 361.997 798C361.997 798.568 361.771 799.114 361.369 799.516C360.967 799.918 360.421 800.144 359.853 800.144ZM367 800.144C366.431 800.144 365.886 799.918 365.484 799.516C365.082 799.114 364.856 798.568 364.856 798C364.856 797.431 365.082 796.886 365.484 796.483C365.886 796.081 366.431 795.855 367 795.855C367.569 795.855 368.114 796.081 368.516 796.483C368.918 796.886 369.144 797.431 369.144 798C369.144 798.568 368.918 799.114 368.516 799.516C368.114 799.918 367.569 800.144 367 800.144ZM374.147 800.144C373.578 800.144 373.033 799.918 372.631 799.516C372.229 799.114 372.003 798.568 372.003 798C372.003 797.431 372.229 796.886 372.631 796.483C373.033 796.081 373.578 795.855 374.147 795.855C374.716 795.855 375.261 796.081 375.663 796.483C376.065 796.886 376.291 797.431 376.291 798C376.291 798.568 376.065 799.114 375.663 799.516C375.261 799.918 374.716 800.144 374.147 800.144Z" fill="#D2D6D8"/>
<path d="M358.925 822.404C358.925 825.337 357.16 827.127 354.786 827.127C352.387 827.127 350.635 825.337 350.635 822.404C350.635 819.459 352.387 817.682 354.786 817.682C357.16 817.682 358.925 819.459 358.925 822.404ZM357.541 822.404C357.541 820.17 356.36 818.964 354.786 818.964C353.199 818.964 352.019 820.17 352.019 822.404C352.019 824.639 353.199 825.845 354.786 825.845C356.36 825.845 357.541 824.639 357.541 822.404ZM363.609 820.106V821.186H362.2V824.969C362.2 825.743 362.594 825.883 363.025 825.896C363.216 825.896 363.521 825.87 363.711 825.857V827.038C363.521 827.063 363.229 827.089 362.86 827.089C361.794 827.089 360.842 826.505 360.854 825.248V821.186H359.839V820.106H360.854V818.456H362.2V820.106H363.609ZM366.44 822.912V827H365.082V817.809H366.415V821.236H366.504C366.834 820.487 367.469 820.018 368.548 820.018C369.97 820.018 370.909 820.894 370.909 822.62V827H369.551V822.785C369.551 821.77 369.005 821.186 368.091 821.186C367.139 821.186 366.44 821.808 366.44 822.912ZM375.518 827.14C373.486 827.14 372.242 825.743 372.242 823.598C372.242 821.478 373.512 820.018 375.429 820.018C377.003 820.018 378.488 820.995 378.488 823.483V823.966H373.588C373.626 825.273 374.394 826.022 375.53 826.022C376.305 826.022 376.8 825.692 377.028 825.273H378.399C378.095 826.391 377.028 827.14 375.518 827.14ZM373.601 822.95H377.155C377.155 821.896 376.482 821.135 375.441 821.135C374.356 821.135 373.651 821.973 373.601 822.95ZM379.834 827V820.106H381.142V821.198H381.218C381.472 820.462 382.157 820.005 382.97 820.005C383.135 820.005 383.401 820.018 383.541 820.03V821.325C383.427 821.3 383.109 821.249 382.83 821.249C381.891 821.249 381.192 821.896 381.192 822.798V827H379.834Z" fill="#D2D6D8"/>
<path d="M71.1963 50.8145C73.4043 50.8311 75.7285 52.1592 75.7285 56.5586C75.7285 60.7754 73.9189 63.166 71.0303 63.166C68.8223 63.166 67.2617 61.8047 66.9795 59.8457H68.7891C69.0381 60.8584 69.8184 61.5723 71.0303 61.5723C72.8896 61.5723 73.9688 59.9453 73.9854 57.2061H73.8359C73.1885 58.2188 72.0596 58.833 70.7646 58.833C68.6064 58.833 66.8799 57.1895 66.8799 54.8818C66.8799 52.5908 68.5898 50.7979 71.1963 50.8145ZM71.1963 52.3418C69.7354 52.3418 68.6562 53.4707 68.6562 54.8486C68.6562 56.2432 69.7021 57.3389 71.1631 57.3389C72.6074 57.3389 73.7363 56.1602 73.7363 54.832C73.7363 53.5371 72.6738 52.3418 71.1963 52.3418ZM78.153 61.4561C77.5055 61.4561 76.9577 60.9248 76.9743 60.2773C76.9577 59.6299 77.5055 59.0986 78.153 59.0986C78.7839 59.0986 79.3317 59.6299 79.3317 60.2773C79.3317 60.9248 78.7839 61.4561 78.153 61.4561ZM78.153 54.8984C77.5055 54.8984 76.9577 54.3672 76.9743 53.7197C76.9577 53.0723 77.5055 52.541 78.153 52.541C78.7839 52.541 79.3317 53.0723 79.3317 53.7197C79.3317 54.3672 78.7839 54.8984 78.153 54.8984ZM80.5111 60.6592V59.1816L85.8236 50.9805H88.0814V59.1152H89.725V60.6592H88.0814V63H86.3548V60.6592H80.5111ZM82.4369 59.1152H86.3548V53.1553H86.222L82.4369 59.0156V59.1152ZM95.2871 50.9805V63H93.4444V52.8066H93.378L90.5059 54.6826V52.9395L93.4942 50.9805H95.2871Z" fill="black"/>
<rect x="325.35" y="50" width="3.2" height="12" rx="1" fill="black"/>
<rect x="320.05" y="52.4004" width="3.2" height="9.6" rx="1" fill="black"/>
<rect x="314.75" y="55" width="3.2" height="7" rx="1" fill="black"/>
<rect x="309.45" y="57.4004" width="3.2" height="4.6" rx="1" fill="black"/>
<path d="M343.009 58.1338C343.712 58.1338 344.396 58.3186 344.998 58.6711L345.242 58.8139C345.427 58.9222 345.459 59.1756 345.308 59.3268L343.224 61.4045C343.096 61.5322 342.889 61.5322 342.761 61.4045L340.691 59.3402C340.54 59.1896 340.571 58.9375 340.755 58.8284L340.996 58.685C341.604 58.3236 342.296 58.1338 343.009 58.1338Z" fill="black"/>
<path d="M343.009 54.3164C344.759 54.3164 346.439 54.8969 347.807 55.972L348.001 56.1239C348.155 56.245 348.169 56.4733 348.03 56.6117L346.786 57.8521C346.671 57.9668 346.489 57.98 346.358 57.8831L346.207 57.7704C345.282 57.0833 344.168 56.7148 343.009 56.7148C341.842 56.7148 340.721 57.0879 339.794 57.7828L339.642 57.8966C339.512 57.9943 339.329 57.9814 339.213 57.8664L337.97 56.6264C337.831 56.4883 337.845 56.2606 337.998 56.1393L338.19 55.9872C339.562 54.9026 341.25 54.3164 343.009 54.3164Z" fill="black"/>
<path d="M343.009 50.5C345.786 50.5 348.442 51.4796 350.544 53.2752L350.723 53.4285C350.868 53.5524 350.877 53.7731 350.742 53.9078L349.502 55.1441C349.382 55.2639 349.19 55.2723 349.06 55.1635L348.906 55.0351C347.251 53.6512 345.177 52.8984 343.009 52.8984C340.833 52.8984 338.752 53.6564 337.095 55.049L336.941 55.178C336.811 55.2873 336.619 55.2791 336.498 55.1591L335.259 53.9229C335.124 53.7885 335.132 53.5681 335.277 53.4441L335.455 53.2908C337.56 51.4855 340.223 50.5 343.009 50.5Z" fill="black"/>
<rect x="359" y="51.5" width="21" height="9" rx="1.33" fill="black"/>
<path opacity="0.4" fill-rule="evenodd" clip-rule="evenodd" d="M362.6 50.5H376.4C377.397 50.5 378.084 50.5008 378.617 50.5444C379.139 50.587 379.425 50.6655 379.635 50.7725C380.105 51.0122 380.488 51.3946 380.728 51.865C380.834 52.0749 380.913 52.3608 380.956 52.8826C380.999 53.4161 381 54.1034 381 55.1V56.9C381 57.8966 380.999 58.5839 380.956 59.1174C380.913 59.6392 380.834 59.9251 380.728 60.135C380.488 60.6054 380.105 60.9878 379.635 61.2275C379.425 61.3345 379.139 61.413 378.617 61.4556C378.084 61.4992 377.397 61.5 376.4 61.5H362.6C361.603 61.5 360.916 61.4992 360.383 61.4556C359.861 61.413 359.575 61.3345 359.365 61.2275C358.895 60.9878 358.512 60.6054 358.272 60.135C358.166 59.9251 358.087 59.6392 358.044 59.1174C358.001 58.5839 358 57.8966 358 56.9V55.1C358 54.1034 358.001 53.4161 358.044 52.8826C358.087 52.3608 358.166 52.0749 358.272 51.865C358.512 51.3946 358.895 51.0122 359.365 50.7725C359.575 50.6655 359.861 50.587 360.383 50.5444C360.916 50.5008 361.603 50.5 362.6 50.5ZM357 55.1C357 53.1398 357 52.1597 357.381 51.411C357.717 50.7525 358.252 50.217 358.911 49.8815C359.66 49.5 360.64 49.5 362.6 49.5H376.4C378.36 49.5 379.34 49.5 380.089 49.8815C380.748 50.217 381.283 50.7525 381.619 51.411C382 52.1597 382 53.1398 382 55.1V56.9C382 58.8602 382 59.8403 381.619 60.589C381.283 61.2475 380.748 61.783 380.089 62.1185C379.34 62.5 378.36 62.5 376.4 62.5H362.6C360.64 62.5 359.66 62.5 358.911 62.1185C358.252 61.783 357.717 61.2475 357.381 60.589C357 59.8403 357 58.8602 357 56.9V55.1ZM383 58C383.828 57.8 384.5 57.1046 384.5 56C384.5 54.8954 383.828 54.2 383 54L383 56L383 58Z" fill="black"/>
<rect x="177" y="47" width="74" height="20" rx="10" fill="black"/>
<rect x="144" y="848" width="140" height="6" rx="3" fill="black"/>
</g>
<rect x="13" y="13" width="402" height="856" rx="66" stroke="black" stroke-width="12"/>
<defs>
<filter id="filter0_di_573_8818" x="149.535" y="409.093" width="23.4417" height="49.8138" filterUnits="userSpaceOnUse" color-interpolation-filters="sRGB">
<feFlood flood-opacity="0" result="BackgroundImageFix"/>
<feColorMatrix in="SourceAlpha" type="matrix" values="0 0 0 0 0 0 0 0 0 0 0 0 0 0 0 0 0 0 127 0" result="hardAlpha"/>
<feMorphology radius="4.39535" operator="dilate" in="SourceAlpha" result="effect1_dropShadow_573_8818"/>
<feOffset/>
<feGaussianBlur stdDeviation="2.19767"/>
<feComposite in2="hardAlpha" operator="out"/>
<feColorMatrix type="matrix" values="0 0 0 0 1 0 0 0 0 1 0 0 0 0 1 0 0 0 1 0"/>
<feBlend mode="normal" in2="BackgroundImageFix" result="effect1_dropShadow_573_8818"/>
<feBlend mode="normal" in="SourceGraphic" in2="effect1_dropShadow_573_8818" result="shape"/>
<feColorMatrix in="SourceAlpha" type="matrix" values="0 0 0 0 0 0 0 0 0 0 0 0 0 0 0 0 0 0 127 0" result="hardAlpha"/>
<feOffset dy="0.732558"/>
<feGaussianBlur stdDeviation="0.366279"/>
<feComposite in2="hardAlpha" operator="arithmetic" k2="-1" k3="1"/>
<feColorMatrix type="matrix" values="0 0 0 0 1 0 0 0 0 1 0 0 0 0 1 0 0 0 0.7 0"/>
<feBlend mode="normal" in2="shape" result="effect2_innerShadow_573_8818"/>
</filter>
<filter id="filter1_di_573_8818" x="162.721" y="396.64" width="23.4417" height="74.721" filterUnits="userSpaceOnUse" color-interpolation-filters="sRGB">
<feFlood flood-opacity="0" result="BackgroundImageFix"/>
<feColorMatrix in="SourceAlpha" type="matrix" values="0 0 0 0 0 0 0 0 0 0 0 0 0 0 0 0 0 0 127 0" result="hardAlpha"/>
<feMorphology radius="4.39535" operator="dilate" in="SourceAlpha" result="effect1_dropShadow_573_8818"/>
<feOffset/>
<feGaussianBlur stdDeviation="2.19767"/>
<feComposite in2="hardAlpha" operator="out"/>
<feColorMatrix type="matrix" values="0 0 0 0 1 0 0 0 0 1 0 0 0 0 1 0 0 0 1 0"/>
<feBlend mode="normal" in2="BackgroundImageFix" result="effect1_dropShadow_573_8818"/>
<feBlend mode="normal" in="SourceGraphic" in2="effect1_dropShadow_573_8818" result="shape"/>
<feColorMatrix in="SourceAlpha" type="matrix" values="0 0 0 0 0 0 0 0 0 0 0 0 0 0 0 0 0 0 127 0" result="hardAlpha"/>
<feOffset dy="0.732558"/>
<feGaussianBlur stdDeviation="0.366279"/>
<feComposite in2="hardAlpha" operator="arithmetic" k2="-1" k3="1"/>
<feColorMatrix type="matrix" values="0 0 0 0 1 0 0 0 0 1 0 0 0 0 1 0 0 0 0.7 0"/>
<feBlend mode="normal" in2="shape" result="effect2_innerShadow_573_8818"/>
</filter>
<filter id="filter2_di_573_8818" x="175.907" y="400.668" width="23.4417" height="66.6624" filterUnits="userSpaceOnUse" color-interpolation-filters="sRGB">
<feFlood flood-opacity="0" result="BackgroundImageFix"/>
<feColorMatrix in="SourceAlpha" type="matrix" values="0 0 0 0 0 0 0 0 0 0 0 0 0 0 0 0 0 0 127 0" result="hardAlpha"/>
<feMorphology radius="4.39535" operator="dilate" in="SourceAlpha" result="effect1_dropShadow_573_8818"/>
<feOffset/>
<feGaussianBlur stdDeviation="2.19767"/>
<feComposite in2="hardAlpha" operator="out"/>
<feColorMatrix type="matrix" values="0 0 0 0 1 0 0 0 0 1 0 0 0 0 1 0 0 0 1 0"/>
<feBlend mode="normal" in2="BackgroundImageFix" result="effect1_dropShadow_573_8818"/>
<feBlend mode="normal" in="SourceGraphic" in2="effect1_dropShadow_573_8818" result="shape"/>
<feColorMatrix in="SourceAlpha" type="matrix" values="0 0 0 0 0 0 0 0 0 0 0 0 0 0 0 0 0 0 127 0" result="hardAlpha"/>
<feOffset dy="0.732558"/>
<feGaussianBlur stdDeviation="0.366279"/>
<feComposite in2="hardAlpha" operator="arithmetic" k2="-1" k3="1"/>
<feColorMatrix type="matrix" values="0 0 0 0 1 0 0 0 0 1 0 0 0 0 1 0 0 0 0.7 0"/>
<feBlend mode="normal" in2="shape" result="effect2_innerShadow_573_8818"/>
</filter>
<filter id="filter3_di_573_8818" x="189.093" y="404.331" width="23.4417" height="59.3373" filterUnits="userSpaceOnUse" color-interpolation-filters="sRGB">
<feFlood flood-opacity="0" result="BackgroundImageFix"/>
<feColorMatrix in="SourceAlpha" type="matrix" values="0 0 0 0 0 0 0 0 0 0 0 0 0 0 0 0 0 0 127 0" result="hardAlpha"/>
<feMorphology radius="4.39535" operator="dilate" in="SourceAlpha" result="effect1_dropShadow_573_8818"/>
<feOffset/>
<feGaussianBlur stdDeviation="2.19767"/>
<feComposite in2="hardAlpha" operator="out"/>
<feColorMatrix type="matrix" values="0 0 0 0 1 0 0 0 0 1 0 0 0 0 1 0 0 0 1 0"/>
<feBlend mode="normal" in2="BackgroundImageFix" result="effect1_dropShadow_573_8818"/>
<feBlend mode="normal" in="SourceGraphic" in2="effect1_dropShadow_573_8818" result="shape"/>
<feColorMatrix in="SourceAlpha" type="matrix" values="0 0 0 0 0 0 0 0 0 0 0 0 0 0 0 0 0 0 127 0" result="hardAlpha"/>
<feOffset dy="0.732558"/>
<feGaussianBlur stdDeviation="0.366279"/>
<feComposite in2="hardAlpha" operator="arithmetic" k2="-1" k3="1"/>
<feColorMatrix type="matrix" values="0 0 0 0 1 0 0 0 0 1 0 0 0 0 1 0 0 0 0.7 0"/>
<feBlend mode="normal" in2="shape" result="effect2_innerShadow_573_8818"/>
</filter>
<filter id="filter4_di_573_8818" x="202.279" y="404.331" width="23.4417" height="59.3373" filterUnits="userSpaceOnUse" color-interpolation-filters="sRGB">
<feFlood flood-opacity="0" result="BackgroundImageFix"/>
<feColorMatrix in="SourceAlpha" type="matrix" values="0 0 0 0 0 0 0 0 0 0 0 0 0 0 0 0 0 0 127 0" result="hardAlpha"/>
<feMorphology radius="4.39535" operator="dilate" in="SourceAlpha" result="effect1_dropShadow_573_8818"/>
<feOffset/>
<feGaussianBlur stdDeviation="2.19767"/>
<feComposite in2="hardAlpha" operator="out"/>
<feColorMatrix type="matrix" values="0 0 0 0 1 0 0 0 0 1 0 0 0 0 1 0 0 0 1 0"/>
<feBlend mode="normal" in2="BackgroundImageFix" result="effect1_dropShadow_573_8818"/>
<feBlend mode="normal" in="SourceGraphic" in2="effect1_dropShadow_573_8818" result="shape"/>
<feColorMatrix in="SourceAlpha" type="matrix" values="0 0 0 0 0 0 0 0 0 0 0 0 0 0 0 0 0 0 127 0" result="hardAlpha"/>
<feOffset dy="0.732558"/>
<feGaussianBlur stdDeviation="0.366279"/>
<feComposite in2="hardAlpha" operator="arithmetic" k2="-1" k3="1"/>
<feColorMatrix type="matrix" values="0 0 0 0 1 0 0 0 0 1 0 0 0 0 1 0 0 0 0.7 0"/>
<feBlend mode="normal" in2="shape" result="effect2_innerShadow_573_8818"/>
</filter>
<filter id="filter5_di_573_8818" x="215.465" y="409.826" width="23.4417" height="48.349" filterUnits="userSpaceOnUse" color-interpolation-filters="sRGB">
<feFlood flood-opacity="0" result="BackgroundImageFix"/>
<feColorMatrix in="SourceAlpha" type="matrix" values="0 0 0 0 0 0 0 0 0 0 0 0 0 0 0 0 0 0 127 0" result="hardAlpha"/>
<feMorphology radius="4.39535" operator="dilate" in="SourceAlpha" result="effect1_dropShadow_573_8818"/>
<feOffset/>
<feGaussianBlur stdDeviation="2.19767"/>
<feComposite in2="hardAlpha" operator="out"/>
<feColorMatrix type="matrix" values="0 0 0 0 1 0 0 0 0 1 0 0 0 0 1 0 0 0 1 0"/>
<feBlend mode="normal" in2="BackgroundImageFix" result="effect1_dropShadow_573_8818"/>
<feBlend mode="normal" in="SourceGraphic" in2="effect1_dropShadow_573_8818" result="shape"/>
<feColorMatrix in="SourceAlpha" type="matrix" values="0 0 0 0 0 0 0 0 0 0 0 0 0 0 0 0 0 0 127 0" result="hardAlpha"/>
<feOffset dy="0.732558"/>
<feGaussianBlur stdDeviation="0.366279"/>
<feComposite in2="hardAlpha" operator="arithmetic" k2="-1" k3="1"/>
<feColorMatrix type="matrix" values="0 0 0 0 1 0 0 0 0 1 0 0 0 0 1 0 0 0 0.7 0"/>
<feBlend mode="normal" in2="shape" result="effect2_innerShadow_573_8818"/>
</filter>
<filter id="filter6_di_573_8818" x="228.651" y="417.884" width="23.4417" height="32.2328" filterUnits="userSpaceOnUse" color-interpolation-filters="sRGB">
<feFlood flood-opacity="0" result="BackgroundImageFix"/>
<feColorMatrix in="SourceAlpha" type="matrix" values="0 0 0 0 0 0 0 0 0 0 0 0 0 0 0 0 0 0 127 0" result="hardAlpha"/>
<feMorphology radius="4.39535" operator="dilate" in="SourceAlpha" result="effect1_dropShadow_573_8818"/>
<feOffset/>
<feGaussianBlur stdDeviation="2.19767"/>
<feComposite in2="hardAlpha" operator="out"/>
<feColorMatrix type="matrix" values="0 0 0 0 1 0 0 0 0 1 0 0 0 0 1 0 0 0 1 0"/>
<feBlend mode="normal" in2="BackgroundImageFix" result="effect1_dropShadow_573_8818"/>
<feBlend mode="normal" in="SourceGraphic" in2="effect1_dropShadow_573_8818" result="shape"/>
<feColorMatrix in="SourceAlpha" type="matrix" values="0 0 0 0 0 0 0 0 0 0 0 0 0 0 0 0 0 0 127 0" result="hardAlpha"/>
<feOffset dy="0.732558"/>
<feGaussianBlur stdDeviation="0.366279"/>
<feComposite in2="hardAlpha" operator="arithmetic" k2="-1" k3="1"/>
<feColorMatrix type="matrix" values="0 0 0 0 1 0 0 0 0 1 0 0 0 0 1 0 0 0 0.7 0"/>
<feBlend mode="normal" in2="shape" result="effect2_innerShadow_573_8818"/>
</filter>
<filter id="filter7_di_573_8818" x="241.837" y="408.361" width="23.4417" height="51.2787" filterUnits="userSpaceOnUse" color-interpolation-filters="sRGB">
<feFlood flood-opacity="0" result="BackgroundImageFix"/>
<feColorMatrix in="SourceAlpha" type="matrix" values="0 0 0 0 0 0 0 0 0 0 0 0 0 0 0 0 0 0 127 0" result="hardAlpha"/>
<feMorphology radius="4.39535" operator="dilate" in="SourceAlpha" result="effect1_dropShadow_573_8818"/>
<feOffset/>
<feGaussianBlur stdDeviation="2.19767"/>
<feComposite in2="hardAlpha" operator="out"/>
<feColorMatrix type="matrix" values="0 0 0 0 1 0 0 0 0 1 0 0 0 0 1 0 0 0 1 0"/>
<feBlend mode="normal" in2="BackgroundImageFix" result="effect1_dropShadow_573_8818"/>
<feBlend mode="normal" in="SourceGraphic" in2="effect1_dropShadow_573_8818" result="shape"/>
<feColorMatrix in="SourceAlpha" type="matrix" values="0 0 0 0 0 0 0 0 0 0 0 0 0 0 0 0 0 0 127 0" result="hardAlpha"/>
<feOffset dy="0.732558"/>
<feGaussianBlur stdDeviation="0.366279"/>
<feComposite in2="hardAlpha" operator="arithmetic" k2="-1" k3="1"/>
<feColorMatrix type="matrix" values="0 0 0 0 1 0 0 0 0 1 0 0 0 0 1 0 0 0 0.7 0"/>
<feBlend mode="normal" in2="shape" result="effect2_innerShadow_573_8818"/>
</filter>
<filter id="filter8_di_573_8818" x="255.023" y="403.599" width="23.4417" height="60.8021" filterUnits="userSpaceOnUse" color-interpolation-filters="sRGB">
<feFlood flood-opacity="0" result="BackgroundImageFix"/>
<feColorMatrix in="SourceAlpha" type="matrix" values="0 0 0 0 0 0 0 0 0 0 0 0 0 0 0 0 0 0 127 0" result="hardAlpha"/>
<feMorphology radius="4.39535" operator="dilate" in="SourceAlpha" result="effect1_dropShadow_573_8818"/>
<feOffset/>
<feGaussianBlur stdDeviation="2.19767"/>
<feComposite in2="hardAlpha" operator="out"/>
<feColorMatrix type="matrix" values="0 0 0 0 1 0 0 0 0 1 0 0 0 0 1 0 0 0 1 0"/>
<feBlend mode="normal" in2="BackgroundImageFix" result="effect1_dropShadow_573_8818"/>
<feBlend mode="normal" in="SourceGraphic" in2="effect1_dropShadow_573_8818" result="shape"/>
<feColorMatrix in="SourceAlpha" type="matrix" values="0 0 0 0 0 0 0 0 0 0 0 0 0 0 0 0 0 0 127 0" result="hardAlpha"/>
<feOffset dy="0.732558"/>
<feGaussianBlur stdDeviation="0.366279"/>
<feComposite in2="hardAlpha" operator="arithmetic" k2="-1" k3="1"/>
<feColorMatrix type="matrix" values="0 0 0 0 1 0 0 0 0 1 0 0 0 0 1 0 0 0 0.7 0"/>
<feBlend mode="normal" in2="shape" result="effect2_innerShadow_573_8818"/>
</filter>
<radialGradient id="paint0_radial_573_8818" cx="0" cy="0" r="1" gradientUnits="userSpaceOnUse" gradientTransform="translate(214 434) rotate(90) scale(139)">
<stop stop-color="#64A2FF"/>
<stop offset="0.83" stop-color="#64A2FF" stop-opacity="0"/>
</radialGradient>
<radialGradient id="paint1_radial_573_8818" cx="0" cy="0" r="1" gradientUnits="userSpaceOnUse" gradientTransform="translate(63 35.8953) rotate(90) scale(35.8953 63)">
<stop stop-color="#64A2FF"/>
<stop offset="1" stop-color="#CFF3FF" stop-opacity="0"/>
</radialGradient>
<linearGradient id="paint2_linear_573_8818" x1="161.323" y1="418.976" x2="161.323" y2="449.194" gradientUnits="userSpaceOnUse">
<stop stop-color="#A0CBFF"/>
<stop offset="1" stop-color="#0075FF"/>
</linearGradient>
<linearGradient id="paint3_linear_573_8818" x1="174.509" y1="407.367" x2="174.509" y2="460.936" gradientUnits="userSpaceOnUse">
<stop stop-color="#A0CBFF"/>
<stop offset="1" stop-color="#0075FF"/>
</linearGradient>
<linearGradient id="paint4_linear_573_8818" x1="187.695" y1="411.123" x2="187.695" y2="457.136" gradientUnits="userSpaceOnUse">
<stop stop-color="#A0CBFF"/>
<stop offset="1" stop-color="#0075FF"/>
</linearGradient>
<linearGradient id="paint5_linear_573_8818" x1="200.881" y1="414.537" x2="200.881" y2="453.683" gradientUnits="userSpaceOnUse">
<stop stop-color="#A0CBFF"/>
<stop offset="1" stop-color="#0075FF"/>
</linearGradient>
<linearGradient id="paint6_linear_573_8818" x1="214.067" y1="414.537" x2="214.067" y2="453.683" gradientUnits="userSpaceOnUse">
<stop stop-color="#A0CBFF"/>
<stop offset="1" stop-color="#0075FF"/>
</linearGradient>
<linearGradient id="paint7_linear_573_8818" x1="227.253" y1="419.659" x2="227.253" y2="448.504" gradientUnits="userSpaceOnUse">
<stop stop-color="#A0CBFF"/>
<stop offset="1" stop-color="#0075FF"/>
</linearGradient>
<linearGradient id="paint8_linear_573_8818" x1="240.439" y1="427.171" x2="240.439" y2="440.907" gradientUnits="userSpaceOnUse">
<stop stop-color="#A0CBFF"/>
<stop offset="1" stop-color="#0075FF"/>
</linearGradient>
<linearGradient id="paint9_linear_573_8818" x1="253.625" y1="418.294" x2="253.625" y2="449.885" gradientUnits="userSpaceOnUse">
<stop stop-color="#A0CBFF"/>
<stop offset="1" stop-color="#0075FF"/>
</linearGradient>
<linearGradient id="paint10_linear_573_8818" x1="266.811" y1="413.855" x2="266.811" y2="454.374" gradientUnits="userSpaceOnUse">
<stop stop-color="#A0CBFF"/>
<stop offset="1" stop-color="#0075FF"/>
</linearGradient>
<clipPath id="clip0_573_8818">
<rect x="19" y="19" width="390" height="844" rx="60" fill="white"/>
</clipPath>
</defs>
</svg>
