<svg width="503" height="236" viewBox="0 0 503 236" fill="none" xmlns="http://www.w3.org/2000/svg">
<rect width="503" height="236" rx="20" fill="white"/>
<path d="M28.3555 44L24.3125 29.8594H27.5156L29.8984 39.7422H30.0156L32.6133 29.8594H35.3672L37.9648 39.7617H38.082L40.4648 29.8594H43.668L39.625 44H36.7539L34.0586 34.6641H33.9414L31.2266 44H28.3555ZM48.7656 44.2148C45.5137 44.2051 43.5215 42.1055 43.5312 38.7461C43.5215 35.4746 45.543 33.2578 48.6484 33.2578C51.4316 33.2578 53.6289 35.0156 53.6289 38.6289V39.4492H46.3828C46.3828 41.0508 47.3301 42.0371 48.8242 42.0469C49.8105 42.0371 50.5137 41.6074 50.7969 40.9727H53.5508C53.1406 42.9355 51.3828 44.2051 48.7656 44.2148ZM46.3828 37.6328H50.8945C50.8848 36.3438 49.9961 35.416 48.707 35.4258C47.3789 35.416 46.4414 36.4121 46.3828 37.6328ZM57.3203 29.8594V35.2109H55.2305V29.8594H57.3203ZM59.3906 44V33.3945H62.1836V35.2305H62.3008C62.6816 33.9316 63.668 33.2383 64.8594 33.2383C65.1523 33.2383 65.5234 33.2773 65.7773 33.3359V35.9141C65.5039 35.8262 64.9473 35.7578 64.5469 35.7578C63.2383 35.7578 62.2715 36.666 62.2812 37.9648V44H59.3906ZM71.6562 44.2148C68.4043 44.2051 66.4121 42.1055 66.4219 38.7461C66.4121 35.4746 68.4336 33.2578 71.5391 33.2578C74.3223 33.2578 76.5195 35.0156 76.5195 38.6289V39.4492H69.2734C69.2734 41.0508 70.2207 42.0371 71.7148 42.0469C72.7012 42.0371 73.4043 41.6074 73.6875 40.9727H76.4414C76.0312 42.9355 74.2734 44.2051 71.6562 44.2148ZM69.2734 37.6328H73.7852C73.7754 36.3438 72.8867 35.416 71.5977 35.4258C70.2695 35.416 69.332 36.4121 69.2734 37.6328ZM82.4375 41.0312C82.4473 38.668 84.3418 37.8965 86.3828 37.7695C87.1445 37.7207 88.5703 37.6523 89.0195 37.6328V36.7734C89.0098 35.8848 88.4043 35.377 87.3203 35.3672C86.334 35.377 85.7188 35.8164 85.5625 36.5391H82.8086C82.9844 34.7031 84.5859 33.2578 87.3984 33.2578C89.7129 33.2578 91.9004 34.293 91.8906 36.8516V44H89.1562V42.5352H89.0781C88.5605 43.5117 87.5449 44.2051 85.9727 44.1953C83.9414 44.2051 82.4473 43.1309 82.4375 41.0312ZM85.2109 40.9531C85.2109 41.7637 85.8652 42.1934 86.793 42.2031C88.1113 42.1934 89.0293 41.334 89.0195 40.2109V39.4395C88.5801 39.459 87.3398 39.5273 86.8516 39.5664C85.8457 39.6543 85.2109 40.1328 85.2109 40.9531ZM94.0977 44V33.3945H96.8906V35.2305H97.0078C97.3887 33.9316 98.375 33.2383 99.5664 33.2383C99.8594 33.2383 100.23 33.2773 100.484 33.3359V35.9141C100.211 35.8262 99.6543 35.7578 99.2539 35.7578C97.9453 35.7578 96.9785 36.666 96.9883 37.9648V44H94.0977ZM106.324 44.2148C103.072 44.2051 101.119 41.959 101.129 38.7266C101.119 35.4844 103.111 33.2578 106.324 33.2578C109.059 33.2578 110.914 34.8496 111.031 37.2812H108.316C108.141 36.2363 107.457 35.5137 106.363 35.5039C104.977 35.5137 104.059 36.6758 104.059 38.6875C104.059 40.7383 104.957 41.9102 106.363 41.9102C107.379 41.9102 108.131 41.2754 108.316 40.1523H111.031C110.904 42.5547 109.137 44.2051 106.324 44.2148ZM115.719 37.8672V44H112.828V29.8594H115.641V35.25H115.758C116.246 34.0098 117.311 33.2578 118.922 33.2578C121.139 33.2578 122.594 34.752 122.594 37.2422V44H119.703V37.75C119.703 36.4316 119 35.6602 117.789 35.6602C116.568 35.6602 115.719 36.4707 115.719 37.8672ZM124.82 44V33.3945H127.711V44H124.82ZM124.684 30.543C124.684 29.7227 125.396 29.0684 126.266 29.0586C127.125 29.0684 127.838 29.7227 127.828 30.543C127.838 31.3438 127.125 32.0078 126.266 32.0078C125.396 32.0078 124.684 31.3438 124.684 30.543ZM139.801 33.3945L136.07 44H132.828L129.117 33.3945H132.164L134.391 41.0117H134.508L136.734 33.3945H139.801ZM141.207 44V33.3945H144.098V44H141.207ZM141.07 30.543C141.07 29.7227 141.783 29.0684 142.652 29.0586C143.512 29.0684 144.225 29.7227 144.215 30.543C144.225 31.3438 143.512 32.0078 142.652 32.0078C141.783 32.0078 141.07 31.3438 141.07 30.543ZM149.234 37.8672V44H146.344V33.3945H149.098V35.25H149.215C149.693 34.0293 150.826 33.2578 152.398 33.2578C154.615 33.2578 156.061 34.7715 156.051 37.2422V44H153.18V37.75C153.17 36.4414 152.467 35.6602 151.266 35.6602C150.064 35.6602 149.234 36.4707 149.234 37.8672ZM163.062 48.1992C160.133 48.1992 158.326 46.8809 158.16 44.8789H161.012C161.168 45.7285 161.969 46.1094 163.121 46.1094C164.459 46.1094 165.357 45.5332 165.367 44.0586V42.125H165.23C164.85 42.9844 163.912 43.8535 162.203 43.8438C159.811 43.8535 157.887 42.1641 157.887 38.6289C157.887 35.0449 159.859 33.2578 162.203 33.2578C163.98 33.2578 164.84 34.3125 165.23 35.1719H165.348V33.3945H168.219V44.1172C168.209 46.8223 166.08 48.1992 163.062 48.1992ZM160.855 38.668C160.846 40.5039 161.637 41.666 163.102 41.6758C164.547 41.666 165.367 40.5527 165.367 38.668C165.367 36.7832 164.557 35.5625 163.102 35.5625C161.627 35.5625 160.846 36.8418 160.855 38.668ZM176.773 47.9844C176.207 47.9746 175.68 47.9648 175.309 47.9258V45.6797C175.68 45.709 176.119 45.7188 176.48 45.7188C177.057 45.7188 177.516 45.6602 177.867 44.7422L178.043 44.293L174.234 33.3945H177.262L179.488 41.207H179.605L181.852 33.3945H184.918L180.777 45.1719C180.172 46.8809 179.01 47.9746 176.773 47.9844ZM190.738 44.2148C187.535 44.2051 185.533 42.0078 185.543 38.7266C185.533 35.4551 187.535 33.2578 190.738 33.2578C193.951 33.2578 195.943 35.4551 195.953 38.7266C195.943 42.0078 193.951 44.2051 190.738 44.2148ZM188.473 38.7266C188.473 40.582 189.244 41.959 190.758 41.9688C192.232 41.959 193.014 40.582 193.004 38.7266C193.014 36.8613 192.232 35.4648 190.758 35.4648C189.244 35.4648 188.473 36.8613 188.473 38.7266ZM204.566 39.4883V33.3945H207.457V44H204.684V42.0859H204.566C204.088 43.3164 202.945 44.1367 201.344 44.1367C199.225 44.1367 197.77 42.6328 197.77 40.1523V33.3945H200.66V39.6445C200.66 40.9043 201.383 41.6855 202.516 41.6953C203.57 41.6855 204.566 40.9336 204.566 39.4883ZM209.703 44V33.3945H212.496V35.2305H212.613C212.994 33.9316 213.98 33.2383 215.172 33.2383C215.465 33.2383 215.836 33.2773 216.09 33.3359V35.9141C215.816 35.8262 215.26 35.7578 214.859 35.7578C213.551 35.7578 212.584 36.666 212.594 37.9648V44H209.703ZM226.012 44.1758C223.59 44.1758 221.695 42.252 221.695 38.707C221.695 35.0742 223.668 33.2578 226.012 33.2578C227.789 33.2578 228.639 34.3125 229.02 35.1719H229.117V29.8594H232.008V44H229.156V42.3008H229.02C228.619 43.1797 227.74 44.1758 226.012 44.1758ZM224.664 38.6875C224.654 40.5625 225.445 41.8613 226.91 41.8711C228.355 41.8613 229.176 40.6016 229.176 38.6875C229.176 36.7832 228.365 35.5625 226.91 35.5625C225.436 35.5625 224.654 36.8418 224.664 38.6875ZM234.332 44V33.3945H237.223V44H234.332ZM234.195 30.543C234.195 29.7227 234.908 29.0684 235.777 29.0586C236.637 29.0684 237.35 29.7227 237.34 30.543C237.35 31.3438 236.637 32.0078 235.777 32.0078C234.908 32.0078 234.195 31.3438 234.195 30.543ZM244.234 48.1992C241.305 48.1992 239.498 46.8809 239.332 44.8789H242.184C242.34 45.7285 243.141 46.1094 244.293 46.1094C245.631 46.1094 246.529 45.5332 246.539 44.0586V42.125H246.402C246.021 42.9844 245.084 43.8535 243.375 43.8438C240.982 43.8535 239.059 42.1641 239.059 38.6289C239.059 35.0449 241.031 33.2578 243.375 33.2578C245.152 33.2578 246.012 34.3125 246.402 35.1719H246.52V33.3945H249.391V44.1172C249.381 46.8223 247.252 48.1992 244.234 48.1992ZM242.027 38.668C242.018 40.5039 242.809 41.666 244.273 41.6758C245.719 41.666 246.539 40.5527 246.539 38.668C246.539 36.7832 245.729 35.5625 244.273 35.5625C242.799 35.5625 242.018 36.8418 242.027 38.668ZM251.637 44V33.3945H254.527V44H251.637ZM251.5 30.543C251.5 29.7227 252.213 29.0684 253.082 29.0586C253.941 29.0684 254.654 29.7227 254.645 30.543C254.654 31.3438 253.941 32.0078 253.082 32.0078C252.213 32.0078 251.5 31.3438 251.5 30.543ZM262.359 33.3945V35.5625H260.367V40.7383C260.357 41.5879 260.777 41.793 261.363 41.8125C261.656 41.8125 262.164 41.7832 262.516 41.7539V44.0391C262.203 44.0879 261.686 44.1465 260.973 44.1367C258.883 44.1465 257.457 43.209 257.477 41.1484V35.5625H256.012V33.3945H257.477V30.8555H260.367V33.3945H262.359ZM263.668 41.0312C263.678 38.668 265.572 37.8965 267.613 37.7695C268.375 37.7207 269.801 37.6523 270.25 37.6328V36.7734C270.24 35.8848 269.635 35.377 268.551 35.3672C267.564 35.377 266.949 35.8164 266.793 36.5391H264.039C264.215 34.7031 265.816 33.2578 268.629 33.2578C270.943 33.2578 273.131 34.293 273.121 36.8516V44H270.387V42.5352H270.309C269.791 43.5117 268.775 44.2051 267.203 44.1953C265.172 44.2051 263.678 43.1309 263.668 41.0312ZM266.441 40.9531C266.441 41.7637 267.096 42.1934 268.023 42.2031C269.342 42.1934 270.26 41.334 270.25 40.2109V39.4395C269.811 39.459 268.57 39.5273 268.082 39.5664C267.076 39.6543 266.441 40.1328 266.441 40.9531ZM278.219 29.8594V44H275.328V29.8594H278.219ZM284.566 41.0312C284.576 38.668 286.471 37.8965 288.512 37.7695C289.273 37.7207 290.699 37.6523 291.148 37.6328V36.7734C291.139 35.8848 290.533 35.377 289.449 35.3672C288.463 35.377 287.848 35.8164 287.691 36.5391H284.938C285.113 34.7031 286.715 33.2578 289.527 33.2578C291.842 33.2578 294.029 34.293 294.02 36.8516V44H291.285V42.5352H291.207C290.689 43.5117 289.674 44.2051 288.102 44.1953C286.07 44.2051 284.576 43.1309 284.566 41.0312ZM287.34 40.9531C287.34 41.7637 287.994 42.1934 288.922 42.2031C290.24 42.1934 291.158 41.334 291.148 40.2109V39.4395C290.709 39.459 289.469 39.5273 288.98 39.5664C287.975 39.6543 287.34 40.1328 287.34 40.9531ZM302.281 36.5391C302.154 35.7969 301.51 35.3184 300.543 35.3086C299.605 35.3184 298.893 35.7578 298.902 36.4023C298.893 36.8809 299.264 37.252 300.27 37.457L302.164 37.8477C304.225 38.2773 305.221 39.1953 305.23 40.7188C305.221 42.8086 303.346 44.2051 300.523 44.2148C297.662 44.2051 295.982 42.9258 295.738 40.8555H298.648C298.785 41.6855 299.459 42.1152 300.523 42.125C301.578 42.1152 302.281 41.6953 302.281 41.0117C302.281 40.4648 301.832 40.123 300.836 39.918L299.078 39.5664C297.057 39.166 296.021 38.1309 296.031 36.5586C296.021 34.5273 297.77 33.2578 300.504 33.2578C303.18 33.2578 304.84 34.5273 304.996 36.5391H302.281ZM313.062 36.5391C312.936 35.7969 312.291 35.3184 311.324 35.3086C310.387 35.3184 309.674 35.7578 309.684 36.4023C309.674 36.8809 310.045 37.252 311.051 37.457L312.945 37.8477C315.006 38.2773 316.002 39.1953 316.012 40.7188C316.002 42.8086 314.127 44.2051 311.305 44.2148C308.443 44.2051 306.764 42.9258 306.52 40.8555H309.43C309.566 41.6855 310.24 42.1152 311.305 42.125C312.359 42.1152 313.062 41.6953 313.062 41.0117C313.062 40.4648 312.613 40.123 311.617 39.918L309.859 39.5664C307.838 39.166 306.803 38.1309 306.812 36.5586C306.803 34.5273 308.551 33.2578 311.285 33.2578C313.961 33.2578 315.621 34.5273 315.777 36.5391H313.062ZM322.594 44.2148C319.342 44.2051 317.35 42.1055 317.359 38.7461C317.35 35.4746 319.371 33.2578 322.477 33.2578C325.26 33.2578 327.457 35.0156 327.457 38.6289V39.4492H320.211C320.211 41.0508 321.158 42.0371 322.652 42.0469C323.639 42.0371 324.342 41.6074 324.625 40.9727H327.379C326.969 42.9355 325.211 44.2051 322.594 44.2148ZM320.211 37.6328H324.723C324.713 36.3438 323.824 35.416 322.535 35.4258C321.207 35.416 320.27 36.4121 320.211 37.6328ZM334.859 33.3945V35.5625H332.867V40.7383C332.857 41.5879 333.277 41.793 333.863 41.8125C334.156 41.8125 334.664 41.7832 335.016 41.7539V44.0391C334.703 44.0879 334.186 44.1465 333.473 44.1367C331.383 44.1465 329.957 43.209 329.977 41.1484V35.5625H328.512V33.3945H329.977V30.8555H332.867V33.3945H334.859ZM342.574 36.5391C342.447 35.7969 341.803 35.3184 340.836 35.3086C339.898 35.3184 339.186 35.7578 339.195 36.4023C339.186 36.8809 339.557 37.252 340.562 37.457L342.457 37.8477C344.518 38.2773 345.514 39.1953 345.523 40.7188C345.514 42.8086 343.639 44.2051 340.816 44.2148C337.955 44.2051 336.275 42.9258 336.031 40.8555H338.941C339.078 41.6855 339.752 42.1152 340.816 42.125C341.871 42.1152 342.574 41.6953 342.574 41.0117C342.574 40.4648 342.125 40.123 341.129 39.918L339.371 39.5664C337.35 39.166 336.314 38.1309 336.324 36.5586C336.314 34.5273 338.062 33.2578 340.797 33.2578C343.473 33.2578 345.133 34.5273 345.289 36.5391H342.574Z" fill="#292E34"/>
<path d="M26.7168 87L24.2031 77.8086H25.3584L27.2754 85.248H27.3643L29.3066 77.8086H30.5889L32.5439 85.248H32.6201L34.5371 77.8086H35.6924L33.1787 87H31.998L29.9922 79.7256H29.916L27.8975 87H26.7168ZM39.0059 87.1396C37.0127 87.1396 35.7812 85.7305 35.7812 83.6104C35.7812 81.4902 37.0254 80.0176 38.9043 80.0176C40.3516 80.0176 41.875 80.9062 41.875 83.458V83.915H36.873C36.9238 85.375 37.7744 86.1748 39.0059 86.1748C39.8311 86.1748 40.3516 85.8193 40.6055 85.3877H41.7734C41.4434 86.4287 40.4277 87.1396 39.0059 87.1396ZM36.8857 82.9883H40.7705C40.7705 81.833 40.0342 80.9824 38.9043 80.9824C37.7109 80.9824 36.9492 81.9219 36.8857 82.9883ZM44.2236 77.8086V80.9824H43.2207V77.8086H44.2236ZM47.0039 77.8086V87H45.9121V77.8086H47.0039ZM49.835 77.8086V87H48.7432V77.8086H49.835ZM54.8369 89.5898V80.1064H55.8906V81.1982H56.0176C56.2461 80.8301 56.6777 80.0176 58.0107 80.0176C59.7373 80.0176 60.9434 81.3887 60.9434 83.5723C60.9434 85.7559 59.7373 87.1396 58.0234 87.1396C56.7031 87.1396 56.2461 86.3271 56.0176 85.9463H55.9287V89.5898H54.8369ZM55.9033 83.5469C55.9033 85.0957 56.6016 86.1621 57.8711 86.1621C59.1787 86.1621 59.8516 85.0195 59.8516 83.5469C59.8516 82.1123 59.1914 80.9951 57.8711 80.9951C56.5762 80.9951 55.9033 82.0234 55.9033 83.5469ZM62.3652 87V80.1064H63.4189V81.1602H63.4951C63.749 80.4619 64.46 79.9922 65.2725 79.9922C65.4375 79.9922 65.7168 80.0049 65.8438 80.0176V81.1221C65.7676 81.0967 65.4629 81.0459 65.1836 81.0459C64.1934 81.0459 63.457 81.7314 63.457 82.6582V87H62.3652ZM69.5 87.1396C67.6211 87.1396 66.3516 85.7305 66.3516 83.585C66.3516 81.4395 67.6211 80.0176 69.5 80.0176C71.3662 80.0176 72.623 81.4395 72.623 83.585C72.623 85.7305 71.3662 87.1396 69.5 87.1396ZM69.5 86.1748C70.8838 86.1748 71.5312 84.9561 71.5312 83.585C71.5312 82.2139 70.8838 80.9824 69.5 80.9824C68.0908 80.9824 67.4434 82.2139 67.4434 83.585C67.4434 84.9561 68.0908 86.1748 69.5 86.1748ZM77.0664 80.1064V81.0205H75.6191V85.0195C75.6191 85.9082 76.0508 86.0479 76.5205 86.0479C76.7236 86.0479 77.0029 86.0352 77.168 86.0225V87.0381C77.0029 87.0635 76.7236 87.0889 76.4062 87.0889C75.4922 87.0889 74.5146 86.5176 74.5146 85.2988V81.0205H73.4736V80.1064H74.5146V78.4561H75.6191V80.1064H77.0664ZM81.2939 87.1396C79.3008 87.1396 78.0693 85.7305 78.0693 83.6104C78.0693 81.4902 79.3135 80.0176 81.1924 80.0176C82.6396 80.0176 84.1631 80.9062 84.1631 83.458V83.915H79.1611C79.2119 85.375 80.0625 86.1748 81.2939 86.1748C82.1191 86.1748 82.6396 85.8193 82.8936 85.3877H84.0615C83.7314 86.4287 82.7158 87.1396 81.2939 87.1396ZM79.1738 82.9883H83.0586C83.0586 81.833 82.3223 80.9824 81.1924 80.9824C79.999 80.9824 79.2373 81.9219 79.1738 82.9883ZM88.4033 87.1396C86.4482 87.1396 85.2549 85.6543 85.2549 83.585C85.2549 81.4902 86.499 80.0176 88.3779 80.0176C89.8506 80.0176 90.9424 80.8809 91.1201 82.1885H90.0283C89.876 81.5537 89.3174 80.9824 88.4033 80.9824C87.1719 80.9824 86.3467 81.998 86.3467 83.5469C86.3467 85.1465 87.1465 86.1621 88.4033 86.1621C89.2158 86.1621 89.8379 85.7305 90.0283 84.9688H91.1201C90.9424 86.2002 89.9395 87.1396 88.4033 87.1396ZM95.4746 80.1064V81.0205H94.0273V85.0195C94.0273 85.9082 94.459 86.0479 94.9287 86.0479C95.1318 86.0479 95.4111 86.0352 95.5762 86.0225V87.0381C95.4111 87.0635 95.1318 87.0889 94.8145 87.0889C93.9004 87.0889 92.9229 86.5176 92.9229 85.2988V81.0205H91.8818V80.1064H92.9229V78.4561H94.0273V80.1064H95.4746ZM100.845 89.5898C100.604 89.5898 100.375 89.5771 100.235 89.5645V88.5869C100.35 88.5996 100.604 88.6123 100.769 88.6123C101.213 88.6123 101.581 88.5742 101.949 87.5713L102.152 87.0508L99.6006 80.1064H100.794L102.673 85.5781H102.749L104.628 80.1064H105.821L102.901 87.9902C102.495 89.0693 101.822 89.5898 100.845 89.5898ZM109.592 87.1396C107.713 87.1396 106.443 85.7305 106.443 83.585C106.443 81.4395 107.713 80.0176 109.592 80.0176C111.458 80.0176 112.715 81.4395 112.715 83.585C112.715 85.7305 111.458 87.1396 109.592 87.1396ZM109.592 86.1748C110.976 86.1748 111.623 84.9561 111.623 83.585C111.623 82.2139 110.976 80.9824 109.592 80.9824C108.183 80.9824 107.535 82.2139 107.535 83.585C107.535 84.9561 108.183 86.1748 109.592 86.1748ZM118.504 84.1689V80.1064H119.583V87H118.504V85.832H118.428C118.098 86.5303 117.425 87.0889 116.384 87.0889C115.076 87.0889 114.149 86.2383 114.149 84.4863V80.1064H115.241V84.4102C115.241 85.4004 115.863 86.0352 116.739 86.0352C117.514 86.0352 118.504 85.4512 118.504 84.1689ZM121.335 87V80.1064H122.389V81.1602H122.465C122.719 80.4619 123.43 79.9922 124.242 79.9922C124.407 79.9922 124.687 80.0049 124.813 80.0176V81.1221C124.737 81.0967 124.433 81.0459 124.153 81.0459C123.163 81.0459 122.427 81.7314 122.427 82.6582V87H121.335ZM131.745 87.1396C130.031 87.1396 128.812 85.7559 128.812 83.5723C128.812 81.3887 130.031 80.0176 131.758 80.0176C133.091 80.0176 133.522 80.8301 133.751 81.1982H133.827V77.8086H134.932V87H133.865V85.9463H133.751C133.51 86.3271 133.065 87.1396 131.745 87.1396ZM131.897 86.1621C133.154 86.1621 133.865 85.0957 133.865 83.5469C133.865 82.0234 133.18 80.9951 131.897 80.9951C130.577 80.9951 129.917 82.1123 129.917 83.5469C129.917 85.0195 130.59 86.1621 131.897 86.1621ZM136.823 87V80.1064H137.915V87H136.823ZM137.369 78.9639C136.95 78.9639 136.607 78.6465 136.607 78.2402C136.607 77.834 136.95 77.5166 137.369 77.5166C137.788 77.5166 138.144 77.834 138.144 78.2402C138.144 78.6465 137.788 78.9639 137.369 78.9639ZM142.447 89.7295C140.784 89.7295 139.654 89.0059 139.527 87.7236H140.67C140.822 88.4219 141.47 88.7773 142.447 88.7773C143.628 88.7773 144.352 88.2695 144.352 87.127V85.7305H144.263C144.034 86.1113 143.59 86.8984 142.257 86.8984C140.581 86.8984 139.324 85.6289 139.324 83.458C139.324 81.3379 140.543 80.0176 142.27 80.0176C143.603 80.0176 144.034 80.8301 144.288 81.1982H144.377V80.1064H145.443V87.1904C145.443 88.9678 144.123 89.7295 142.447 89.7295ZM142.409 85.9209C143.666 85.9209 144.377 85.0195 144.377 83.4961C144.377 82.0234 143.691 80.9951 142.409 80.9951C141.089 80.9951 140.429 82.1123 140.429 83.4961C140.429 84.9307 141.102 85.9209 142.409 85.9209ZM147.183 87V80.1064H148.274V87H147.183ZM147.729 78.9639C147.31 78.9639 146.967 78.6465 146.967 78.2402C146.967 77.834 147.31 77.5166 147.729 77.5166C148.147 77.5166 148.503 77.834 148.503 78.2402C148.503 78.6465 148.147 78.9639 147.729 78.9639ZM153.022 80.1064V81.0205H151.575V85.0195C151.575 85.9082 152.007 86.0479 152.477 86.0479C152.68 86.0479 152.959 86.0352 153.124 86.0225V87.0381C152.959 87.0635 152.68 87.0889 152.362 87.0889C151.448 87.0889 150.471 86.5176 150.471 85.2988V81.0205H149.43V80.1064H150.471V78.4561H151.575V80.1064H153.022ZM154.102 85.0449C154.102 83.458 155.498 83.1025 156.691 83.0137C157.129 82.9819 158.247 82.9248 158.558 82.9121V82.3535C158.558 81.4775 158.037 80.9697 156.996 80.9697C156.12 80.9697 155.6 81.376 155.447 81.8965H154.305C154.444 80.792 155.523 80.0176 157.047 80.0176C157.948 80.0176 159.637 80.2842 159.637 82.4551V87H158.558V86.0605H158.507C158.278 86.5303 157.644 87.165 156.45 87.165C155.143 87.165 154.102 86.3906 154.102 85.0449ZM155.193 85.0957C155.193 85.8193 155.803 86.1875 156.641 86.1875C157.872 86.1875 158.558 85.3623 158.558 84.499V83.8008L156.818 83.9277C155.828 83.9912 155.193 84.3467 155.193 85.0957ZM162.48 77.8086V87H161.389V77.8086H162.48ZM167.152 85.0449C167.152 83.458 168.549 83.1025 169.742 83.0137C170.18 82.9819 171.297 82.9248 171.608 82.9121V82.3535C171.608 81.4775 171.088 80.9697 170.047 80.9697C169.171 80.9697 168.65 81.376 168.498 81.8965H167.355C167.495 80.792 168.574 80.0176 170.098 80.0176C170.999 80.0176 172.688 80.2842 172.688 82.4551V87H171.608V86.0605H171.558C171.329 86.5303 170.694 87.165 169.501 87.165C168.193 87.165 167.152 86.3906 167.152 85.0449ZM168.244 85.0957C168.244 85.8193 168.854 86.1875 169.691 86.1875C170.923 86.1875 171.608 85.3623 171.608 84.499V83.8008L169.869 83.9277C168.879 83.9912 168.244 84.3467 168.244 85.0957ZM178.273 81.8965C178.121 81.3252 177.689 80.9443 176.877 80.9443C176.026 80.9443 175.417 81.4014 175.417 81.9854C175.417 82.4424 175.785 82.7598 176.598 82.9502L177.626 83.2041C178.857 83.4961 179.467 84.1055 179.467 85.0703C179.467 86.2637 178.489 87.1396 176.763 87.1396C175.214 87.1396 174.287 86.4541 174.109 85.1973H175.252C175.379 85.8701 175.874 86.1875 176.737 86.1875C177.715 86.1875 178.337 85.7812 178.337 85.1338C178.337 84.6514 177.994 84.3213 177.207 84.1436L176.166 83.9023C174.96 83.623 174.325 82.9629 174.325 82.0488C174.325 80.8682 175.354 80.0176 176.877 80.0176C178.299 80.0176 179.2 80.7793 179.34 81.8965H178.273ZM184.723 81.8965C184.57 81.3252 184.139 80.9443 183.326 80.9443C182.476 80.9443 181.866 81.4014 181.866 81.9854C181.866 82.4424 182.234 82.7598 183.047 82.9502L184.075 83.2041C185.307 83.4961 185.916 84.1055 185.916 85.0703C185.916 86.2637 184.938 87.1396 183.212 87.1396C181.663 87.1396 180.736 86.4541 180.559 85.1973H181.701C181.828 85.8701 182.323 86.1875 183.187 86.1875C184.164 86.1875 184.786 85.7812 184.786 85.1338C184.786 84.6514 184.443 84.3213 183.656 84.1436L182.615 83.9023C181.409 83.623 180.774 82.9629 180.774 82.0488C180.774 80.8682 181.803 80.0176 183.326 80.0176C184.748 80.0176 185.649 80.7793 185.789 81.8965H184.723ZM190.232 87.1396C188.239 87.1396 187.008 85.7305 187.008 83.6104C187.008 81.4902 188.252 80.0176 190.131 80.0176C191.578 80.0176 193.102 80.9062 193.102 83.458V83.915H188.1C188.15 85.375 189.001 86.1748 190.232 86.1748C191.058 86.1748 191.578 85.8193 191.832 85.3877H193C192.67 86.4287 191.654 87.1396 190.232 87.1396ZM188.112 82.9883H191.997C191.997 81.833 191.261 80.9824 190.131 80.9824C188.938 80.9824 188.176 81.9219 188.112 82.9883ZM197.532 80.1064V81.0205H196.085V85.0195C196.085 85.9082 196.517 86.0479 196.986 86.0479C197.189 86.0479 197.469 86.0352 197.634 86.0225V87.0381C197.469 87.0635 197.189 87.0889 196.872 87.0889C195.958 87.0889 194.98 86.5176 194.98 85.2988V81.0205H193.939V80.1064H194.98V78.4561H196.085V80.1064H197.532ZM202.648 81.8965C202.496 81.3252 202.064 80.9443 201.252 80.9443C200.401 80.9443 199.792 81.4014 199.792 81.9854C199.792 82.4424 200.16 82.7598 200.973 82.9502L202.001 83.2041C203.232 83.4961 203.842 84.1055 203.842 85.0703C203.842 86.2637 202.864 87.1396 201.138 87.1396C199.589 87.1396 198.662 86.4541 198.484 85.1973H199.627C199.754 85.8701 200.249 86.1875 201.112 86.1875C202.09 86.1875 202.712 85.7812 202.712 85.1338C202.712 84.6514 202.369 84.3213 201.582 84.1436L200.541 83.9023C199.335 83.623 198.7 82.9629 198.7 82.0488C198.7 80.8682 199.729 80.0176 201.252 80.0176C202.674 80.0176 203.575 80.7793 203.715 81.8965H202.648ZM211.611 80.1064V81.0205H210.088V87H208.983V81.0205H207.879V80.1064H208.983V79.167C208.983 78.0498 209.732 77.377 210.951 77.377C211.218 77.377 211.535 77.415 211.764 77.4531V78.4307C211.535 78.3926 211.332 78.3799 211.192 78.3799C210.431 78.3799 210.088 78.6973 210.088 79.4082V80.1064H211.611ZM215.433 87.1396C213.554 87.1396 212.284 85.7305 212.284 83.585C212.284 81.4395 213.554 80.0176 215.433 80.0176C217.299 80.0176 218.556 81.4395 218.556 83.585C218.556 85.7305 217.299 87.1396 215.433 87.1396ZM215.433 86.1748C216.816 86.1748 217.464 84.9561 217.464 83.585C217.464 82.2139 216.816 80.9824 215.433 80.9824C214.023 80.9824 213.376 82.2139 213.376 83.585C213.376 84.9561 214.023 86.1748 215.433 86.1748ZM219.99 87V80.1064H221.044V81.1602H221.12C221.374 80.4619 222.085 79.9922 222.897 79.9922C223.062 79.9922 223.342 80.0049 223.469 80.0176V81.1221C223.393 81.0967 223.088 81.0459 222.809 81.0459C221.818 81.0459 221.082 81.7314 221.082 82.6582V87H219.99ZM231.035 77.8086V87H229.88V79.002H229.829L227.595 80.4873V79.332L229.88 77.8086H231.035ZM236.494 87.127C234.45 87.127 233.282 85.4131 233.282 82.4043C233.282 79.4209 234.476 77.6816 236.494 77.6816C238.513 77.6816 239.706 79.4209 239.706 82.4043C239.706 85.4131 238.525 87.127 236.494 87.127ZM236.494 86.1113C237.814 86.1113 238.589 84.7783 238.589 82.4043C238.589 80.0303 237.814 78.6719 236.494 78.6719C235.174 78.6719 234.387 80.0303 234.387 82.4043C234.387 84.7783 235.161 86.1113 236.494 86.1113ZM244.238 87.127C242.194 87.127 241.026 85.4131 241.026 82.4043C241.026 79.4209 242.22 77.6816 244.238 77.6816C246.257 77.6816 247.45 79.4209 247.45 82.4043C247.45 85.4131 246.27 87.127 244.238 87.127ZM244.238 86.1113C245.559 86.1113 246.333 84.7783 246.333 82.4043C246.333 80.0303 245.559 78.6719 244.238 78.6719C242.918 78.6719 242.131 80.0303 242.131 82.4043C242.131 84.7783 242.905 86.1113 244.238 86.1113ZM252.947 89.5898C252.706 89.5898 252.478 89.5771 252.338 89.5645V88.5869C252.452 88.5996 252.706 88.6123 252.871 88.6123C253.315 88.6123 253.684 88.5742 254.052 87.5713L254.255 87.0508L251.703 80.1064H252.896L254.775 85.5781H254.852L256.73 80.1064H257.924L255.004 87.9902C254.598 89.0693 253.925 89.5898 252.947 89.5898ZM261.771 87.1396C259.777 87.1396 258.546 85.7305 258.546 83.6104C258.546 81.4902 259.79 80.0176 261.669 80.0176C263.116 80.0176 264.64 80.9062 264.64 83.458V83.915H259.638C259.688 85.375 260.539 86.1748 261.771 86.1748C262.596 86.1748 263.116 85.8193 263.37 85.3877H264.538C264.208 86.4287 263.192 87.1396 261.771 87.1396ZM259.65 82.9883H263.535C263.535 81.833 262.799 80.9824 261.669 80.9824C260.476 80.9824 259.714 81.9219 259.65 82.9883ZM265.731 85.0449C265.731 83.458 267.128 83.1025 268.321 83.0137C268.759 82.9819 269.876 82.9248 270.188 82.9121V82.3535C270.188 81.4775 269.667 80.9697 268.626 80.9697C267.75 80.9697 267.229 81.376 267.077 81.8965H265.935C266.074 80.792 267.153 80.0176 268.677 80.0176C269.578 80.0176 271.267 80.2842 271.267 82.4551V87H270.188V86.0605H270.137C269.908 86.5303 269.273 87.165 268.08 87.165C266.772 87.165 265.731 86.3906 265.731 85.0449ZM266.823 85.0957C266.823 85.8193 267.433 86.1875 268.271 86.1875C269.502 86.1875 270.188 85.3623 270.188 84.499V83.8008L268.448 83.9277C267.458 83.9912 266.823 84.3467 266.823 85.0957ZM273.019 87V80.1064H274.072V81.1602H274.148C274.402 80.4619 275.113 79.9922 275.926 79.9922C276.091 79.9922 276.37 80.0049 276.497 80.0176V81.1221C276.421 81.0967 276.116 81.0459 275.837 81.0459C274.847 81.0459 274.11 81.7314 274.11 82.6582V87H273.019ZM281.397 81.8965C281.245 81.3252 280.813 80.9443 280.001 80.9443C279.15 80.9443 278.541 81.4014 278.541 81.9854C278.541 82.4424 278.909 82.7598 279.722 82.9502L280.75 83.2041C281.981 83.4961 282.591 84.1055 282.591 85.0703C282.591 86.2637 281.613 87.1396 279.887 87.1396C278.338 87.1396 277.411 86.4541 277.233 85.1973H278.376C278.503 85.8701 278.998 86.1875 279.861 86.1875C280.839 86.1875 281.461 85.7812 281.461 85.1338C281.461 84.6514 281.118 84.3213 280.331 84.1436L279.29 83.9023C278.084 83.623 277.449 82.9629 277.449 82.0488C277.449 80.8682 278.478 80.0176 280.001 80.0176C281.423 80.0176 282.324 80.7793 282.464 81.8965H281.397ZM286.945 85.0449C286.945 83.458 288.342 83.1025 289.535 83.0137C289.973 82.9819 291.09 82.9248 291.401 82.9121V82.3535C291.401 81.4775 290.881 80.9697 289.84 80.9697C288.964 80.9697 288.443 81.376 288.291 81.8965H287.148C287.288 80.792 288.367 80.0176 289.891 80.0176C290.792 80.0176 292.48 80.2842 292.48 82.4551V87H291.401V86.0605H291.351C291.122 86.5303 290.487 87.165 289.294 87.165C287.986 87.165 286.945 86.3906 286.945 85.0449ZM288.037 85.0957C288.037 85.8193 288.646 86.1875 289.484 86.1875C290.716 86.1875 291.401 85.3623 291.401 84.499V83.8008L289.662 83.9277C288.672 83.9912 288.037 84.3467 288.037 85.0957ZM297.317 80.1064V81.0205H295.794V87H294.689V81.0205H293.585V80.1064H294.689V79.167C294.689 78.0498 295.438 77.377 296.657 77.377C296.924 77.377 297.241 77.415 297.47 77.4531V78.4307C297.241 78.3926 297.038 78.3799 296.898 78.3799C296.137 78.3799 295.794 78.6973 295.794 79.4082V80.1064H297.317ZM301.621 80.1064V81.0205H300.174V85.0195C300.174 85.9082 300.605 86.0479 301.075 86.0479C301.278 86.0479 301.558 86.0352 301.723 86.0225V87.0381C301.558 87.0635 301.278 87.0889 300.961 87.0889C300.047 87.0889 299.069 86.5176 299.069 85.2988V81.0205H298.028V80.1064H299.069V78.4561H300.174V80.1064H301.621ZM305.849 87.1396C303.855 87.1396 302.624 85.7305 302.624 83.6104C302.624 81.4902 303.868 80.0176 305.747 80.0176C307.194 80.0176 308.718 80.9062 308.718 83.458V83.915H303.716C303.767 85.375 304.617 86.1748 305.849 86.1748C306.674 86.1748 307.194 85.8193 307.448 85.3877H308.616C308.286 86.4287 307.271 87.1396 305.849 87.1396ZM303.729 82.9883H307.613C307.613 81.833 306.877 80.9824 305.747 80.9824C304.554 80.9824 303.792 81.9219 303.729 82.9883ZM310.14 87V80.1064H311.193V81.1602H311.27C311.523 80.4619 312.234 79.9922 313.047 79.9922C313.212 79.9922 313.491 80.0049 313.618 80.0176V81.1221C313.542 81.0967 313.237 81.0459 312.958 81.0459C311.968 81.0459 311.231 81.7314 311.231 82.6582V87H310.14ZM318.646 89.5898C318.404 89.5898 318.176 89.5771 318.036 89.5645V88.5869C318.15 88.5996 318.404 88.6123 318.569 88.6123C319.014 88.6123 319.382 88.5742 319.75 87.5713L319.953 87.0508L317.401 80.1064H318.595L320.474 85.5781H320.55L322.429 80.1064H323.622L320.702 87.9902C320.296 89.0693 319.623 89.5898 318.646 89.5898ZM327.393 87.1396C325.514 87.1396 324.244 85.7305 324.244 83.585C324.244 81.4395 325.514 80.0176 327.393 80.0176C329.259 80.0176 330.516 81.4395 330.516 83.585C330.516 85.7305 329.259 87.1396 327.393 87.1396ZM327.393 86.1748C328.776 86.1748 329.424 84.9561 329.424 83.585C329.424 82.2139 328.776 80.9824 327.393 80.9824C325.983 80.9824 325.336 82.2139 325.336 83.585C325.336 84.9561 325.983 86.1748 327.393 86.1748ZM336.305 84.1689V80.1064H337.384V87H336.305V85.832H336.229C335.898 86.5303 335.226 87.0889 334.185 87.0889C332.877 87.0889 331.95 86.2383 331.95 84.4863V80.1064H333.042V84.4102C333.042 85.4004 333.664 86.0352 334.54 86.0352C335.314 86.0352 336.305 85.4512 336.305 84.1689ZM340.062 77.8086V80.9824H339.06V77.8086H340.062ZM341.751 87V80.1064H342.805V81.1602H342.881C343.135 80.4619 343.846 79.9922 344.658 79.9922C344.823 79.9922 345.103 80.0049 345.229 80.0176V81.1221C345.153 81.0967 344.849 81.0459 344.569 81.0459C343.579 81.0459 342.843 81.7314 342.843 82.6582V87H341.751ZM348.962 87.1396C346.969 87.1396 345.737 85.7305 345.737 83.6104C345.737 81.4902 346.981 80.0176 348.86 80.0176C350.308 80.0176 351.831 80.9062 351.831 83.458V83.915H346.829C346.88 85.375 347.73 86.1748 348.962 86.1748C349.787 86.1748 350.308 85.8193 350.562 85.3877H351.729C351.399 86.4287 350.384 87.1396 348.962 87.1396ZM346.842 82.9883H350.727C350.727 81.833 349.99 80.9824 348.86 80.9824C347.667 80.9824 346.905 81.9219 346.842 82.9883ZM359.309 89.7295C357.646 89.7295 356.516 89.0059 356.389 87.7236H357.531C357.684 88.4219 358.331 88.7773 359.309 88.7773C360.489 88.7773 361.213 88.2695 361.213 87.127V85.7305H361.124C360.896 86.1113 360.451 86.8984 359.118 86.8984C357.442 86.8984 356.186 85.6289 356.186 83.458C356.186 81.3379 357.404 80.0176 359.131 80.0176C360.464 80.0176 360.896 80.8301 361.149 81.1982H361.238V80.1064H362.305V87.1904C362.305 88.9678 360.984 89.7295 359.309 89.7295ZM359.271 85.9209C360.527 85.9209 361.238 85.0195 361.238 83.4961C361.238 82.0234 360.553 80.9951 359.271 80.9951C357.95 80.9951 357.29 82.1123 357.29 83.4961C357.29 84.9307 357.963 85.9209 359.271 85.9209ZM366.862 87.1396C364.983 87.1396 363.714 85.7305 363.714 83.585C363.714 81.4395 364.983 80.0176 366.862 80.0176C368.729 80.0176 369.985 81.4395 369.985 83.585C369.985 85.7305 368.729 87.1396 366.862 87.1396ZM366.862 86.1748C368.246 86.1748 368.894 84.9561 368.894 83.585C368.894 82.2139 368.246 80.9824 366.862 80.9824C365.453 80.9824 364.806 82.2139 364.806 83.585C364.806 84.9561 365.453 86.1748 366.862 86.1748ZM372.512 82.8613V87H371.42V80.1064H372.474V81.1855H372.562C372.893 80.4873 373.527 80.0176 374.581 80.0176C375.978 80.0176 376.904 80.8682 376.904 82.6201V87H375.812V82.6963C375.812 81.6299 375.229 80.9951 374.251 80.9951C373.248 80.9951 372.512 81.668 372.512 82.8613ZM381.551 87.1396C379.558 87.1396 378.326 85.7305 378.326 83.6104C378.326 81.4902 379.57 80.0176 381.449 80.0176C382.896 80.0176 384.42 80.9062 384.42 83.458V83.915H379.418C379.469 85.375 380.319 86.1748 381.551 86.1748C382.376 86.1748 382.896 85.8193 383.15 85.3877H384.318C383.988 86.4287 382.973 87.1396 381.551 87.1396ZM379.431 82.9883H383.315C383.315 81.833 382.579 80.9824 381.449 80.9824C380.256 80.9824 379.494 81.9219 379.431 82.9883ZM26.1582 94.8086V104H25.0156V94.8086H26.1582ZM31.0586 97.1064V98.0205H29.6113V102.02C29.6113 102.908 30.043 103.048 30.5127 103.048C30.7158 103.048 30.9951 103.035 31.1602 103.022V104.038C30.9951 104.063 30.7158 104.089 30.3984 104.089C29.4844 104.089 28.5068 103.518 28.5068 102.299V98.0205H27.4658V97.1064H28.5068V95.4561H29.6113V97.1064H31.0586ZM37.2793 104L35.1846 97.1064H36.3398L37.8125 102.362H37.876L39.3359 97.1064H40.5039L41.9385 102.337H42.0146L43.4873 97.1064H44.6299L42.5352 104H41.4561L39.958 98.7441H39.8564L38.3711 104H37.2793ZM45.8359 104V97.1064H46.9277V104H45.8359ZM46.3818 95.9639C45.9629 95.9639 45.6201 95.6465 45.6201 95.2402C45.6201 94.834 45.9629 94.5166 46.3818 94.5166C46.8008 94.5166 47.1562 94.834 47.1562 95.2402C47.1562 95.6465 46.8008 95.9639 46.3818 95.9639ZM49.7588 94.8086V104H48.667V94.8086H49.7588ZM52.5898 94.8086V104H51.498V94.8086H52.5898ZM57.7314 104V94.8086H58.8232V98.1982H58.9121C59.1533 97.8301 59.5596 97.0176 60.9053 97.0176C62.6318 97.0176 63.8506 98.3887 63.8506 100.572C63.8506 102.756 62.6318 104.14 60.918 104.14C59.5977 104.14 59.1533 103.327 58.9121 102.946H58.7852V104H57.7314ZM58.7979 100.547C58.7979 102.096 59.4961 103.162 60.7529 103.162C62.0605 103.162 62.7461 102.02 62.7461 100.547C62.7461 99.1123 62.0859 97.9951 60.7529 97.9951C59.4834 97.9951 58.7979 99.0234 58.7979 100.547ZM68.167 104.14C66.1738 104.14 64.9424 102.73 64.9424 100.61C64.9424 98.4902 66.1865 97.0176 68.0654 97.0176C69.5127 97.0176 71.0361 97.9062 71.0361 100.458V100.915H66.0342C66.085 102.375 66.9355 103.175 68.167 103.175C68.9922 103.175 69.5127 102.819 69.7666 102.388H70.9346C70.6045 103.429 69.5889 104.14 68.167 104.14ZM66.0469 99.9883H69.9316C69.9316 98.833 69.1953 97.9824 68.0654 97.9824C66.8721 97.9824 66.1104 98.9219 66.0469 99.9883ZM79.5547 98.8965C79.4023 98.3252 78.9707 97.9443 78.1582 97.9443C77.3076 97.9443 76.6982 98.4014 76.6982 98.9854C76.6982 99.4424 77.0664 99.7598 77.8789 99.9502L78.9072 100.204C80.1387 100.496 80.748 101.105 80.748 102.07C80.748 103.264 79.7705 104.14 78.0439 104.14C76.4951 104.14 75.5684 103.454 75.3906 102.197H76.5332C76.6602 102.87 77.1553 103.188 78.0186 103.188C78.9961 103.188 79.6182 102.781 79.6182 102.134C79.6182 101.651 79.2754 101.321 78.4883 101.144L77.4473 100.902C76.2412 100.623 75.6064 99.9629 75.6064 99.0488C75.6064 97.8682 76.6348 97.0176 78.1582 97.0176C79.5801 97.0176 80.4814 97.7793 80.6211 98.8965H79.5547ZM83.2617 99.8613V104H82.1699V94.8086H83.2617V98.1855H83.3506C83.668 97.4746 84.29 97.0176 85.3818 97.0176C86.791 97.0176 87.7305 97.8555 87.7305 99.6201V104H86.6387V99.6963C86.6387 98.6172 86.042 97.9951 85.0518 97.9951C84.0234 97.9951 83.2617 98.668 83.2617 99.8613ZM89.1523 102.045C89.1523 100.458 90.5488 100.103 91.7422 100.014C92.1802 99.9819 93.2974 99.9248 93.6084 99.9121V99.3535C93.6084 98.4775 93.0879 97.9697 92.0469 97.9697C91.1709 97.9697 90.6504 98.376 90.498 98.8965H89.3555C89.4951 97.792 90.5742 97.0176 92.0977 97.0176C92.999 97.0176 94.6875 97.2842 94.6875 99.4551V104H93.6084V103.061H93.5576C93.3291 103.53 92.6943 104.165 91.501 104.165C90.1934 104.165 89.1523 103.391 89.1523 102.045ZM90.2441 102.096C90.2441 102.819 90.8535 103.188 91.6914 103.188C92.9229 103.188 93.6084 102.362 93.6084 101.499V100.801L91.8691 100.928C90.8789 100.991 90.2441 101.347 90.2441 102.096ZM96.4395 104V97.1064H97.4932V98.1602H97.5693C97.8232 97.4619 98.5342 96.9922 99.3467 96.9922C99.5117 96.9922 99.791 97.0049 99.918 97.0176V98.1221C99.8418 98.0967 99.5371 98.0459 99.2578 98.0459C98.2676 98.0459 97.5312 98.7314 97.5312 99.6582V104H96.4395ZM103.65 104.14C101.657 104.14 100.426 102.73 100.426 100.61C100.426 98.4902 101.67 97.0176 103.549 97.0176C104.996 97.0176 106.52 97.9062 106.52 100.458V100.915H101.518C101.568 102.375 102.419 103.175 103.65 103.175C104.476 103.175 104.996 102.819 105.25 102.388H106.418C106.088 103.429 105.072 104.14 103.65 104.14ZM101.53 99.9883H105.415C105.415 98.833 104.679 97.9824 103.549 97.9824C102.355 97.9824 101.594 98.9219 101.53 99.9883ZM110.544 104.14C108.83 104.14 107.611 102.756 107.611 100.572C107.611 98.3887 108.83 97.0176 110.557 97.0176C111.89 97.0176 112.321 97.8301 112.55 98.1982H112.626V94.8086H113.73V104H112.664V102.946H112.55C112.309 103.327 111.864 104.14 110.544 104.14ZM110.696 103.162C111.953 103.162 112.664 102.096 112.664 100.547C112.664 99.0234 111.979 97.9951 110.696 97.9951C109.376 97.9951 108.716 99.1123 108.716 100.547C108.716 102.02 109.389 103.162 110.696 103.162ZM120.434 104L118.339 97.1064H119.494L120.967 102.362H121.03L122.49 97.1064H123.658L125.093 102.337H125.169L126.642 97.1064H127.784L125.689 104H124.61L123.112 98.7441H123.011L121.525 104H120.434ZM128.99 104V97.1064H130.082V104H128.99ZM129.536 95.9639C129.117 95.9639 128.774 95.6465 128.774 95.2402C128.774 94.834 129.117 94.5166 129.536 94.5166C129.955 94.5166 130.311 94.834 130.311 95.2402C130.311 95.6465 129.955 95.9639 129.536 95.9639ZM134.83 97.1064V98.0205H133.383V102.02C133.383 102.908 133.814 103.048 134.284 103.048C134.487 103.048 134.767 103.035 134.932 103.022V104.038C134.767 104.063 134.487 104.089 134.17 104.089C133.256 104.089 132.278 103.518 132.278 102.299V98.0205H131.237V97.1064H132.278V95.4561H133.383V97.1064H134.83ZM137.483 99.8613V104H136.392V94.8086H137.483V98.1855H137.572C137.89 97.4746 138.512 97.0176 139.604 97.0176C141.013 97.0176 141.952 97.8555 141.952 99.6201V104H140.86V99.6963C140.86 98.6172 140.264 97.9951 139.273 97.9951C138.245 97.9951 137.483 98.668 137.483 99.8613ZM147.665 106.59C147.424 106.59 147.195 106.577 147.056 106.564V105.587C147.17 105.6 147.424 105.612 147.589 105.612C148.033 105.612 148.401 105.574 148.77 104.571L148.973 104.051L146.421 97.1064H147.614L149.493 102.578H149.569L151.448 97.1064H152.642L149.722 104.99C149.315 106.069 148.643 106.59 147.665 106.59ZM156.412 104.14C154.533 104.14 153.264 102.73 153.264 100.585C153.264 98.4395 154.533 97.0176 156.412 97.0176C158.278 97.0176 159.535 98.4395 159.535 100.585C159.535 102.73 158.278 104.14 156.412 104.14ZM156.412 103.175C157.796 103.175 158.443 101.956 158.443 100.585C158.443 99.2139 157.796 97.9824 156.412 97.9824C155.003 97.9824 154.355 99.2139 154.355 100.585C154.355 101.956 155.003 103.175 156.412 103.175ZM165.324 101.169V97.1064H166.403V104H165.324V102.832H165.248C164.918 103.53 164.245 104.089 163.204 104.089C161.896 104.089 160.97 103.238 160.97 101.486V97.1064H162.062V101.41C162.062 102.4 162.684 103.035 163.56 103.035C164.334 103.035 165.324 102.451 165.324 101.169ZM168.155 104V97.1064H169.209V98.1602H169.285C169.539 97.4619 170.25 96.9922 171.062 96.9922C171.228 96.9922 171.507 97.0049 171.634 97.0176V98.1221C171.558 98.0967 171.253 98.0459 170.974 98.0459C169.983 98.0459 169.247 98.7314 169.247 99.6582V104H168.155ZM179.048 97.1064V98.0205H177.524V104H176.42V98.0205H175.315V97.1064H176.42V96.167C176.42 95.0498 177.169 94.377 178.388 94.377C178.654 94.377 178.972 94.415 179.2 94.4531V95.4307C178.972 95.3926 178.769 95.3799 178.629 95.3799C177.867 95.3799 177.524 95.6973 177.524 96.4082V97.1064H179.048ZM179.81 102.045C179.81 100.458 181.206 100.103 182.399 100.014C182.837 99.9819 183.955 99.9248 184.266 99.9121V99.3535C184.266 98.4775 183.745 97.9697 182.704 97.9697C181.828 97.9697 181.308 98.376 181.155 98.8965H180.013C180.152 97.792 181.231 97.0176 182.755 97.0176C183.656 97.0176 185.345 97.2842 185.345 99.4551V104H184.266V103.061H184.215C183.986 103.53 183.352 104.165 182.158 104.165C180.851 104.165 179.81 103.391 179.81 102.045ZM180.901 102.096C180.901 102.819 181.511 103.188 182.349 103.188C183.58 103.188 184.266 102.362 184.266 101.499V100.801L182.526 100.928C181.536 100.991 180.901 101.347 180.901 102.096ZM187.097 104V97.1064H188.15V98.1855H188.239C188.531 97.4492 189.191 97.0176 190.093 97.0176C190.994 97.0176 191.604 97.4492 191.934 98.1855H192.01C192.365 97.4746 193.089 97.0176 194.079 97.0176C195.311 97.0176 196.187 97.7666 196.187 99.3916V104H195.095V99.4043C195.095 98.3887 194.447 97.9951 193.698 97.9951C192.733 97.9951 192.188 98.6426 192.188 99.5186V104H191.083V99.29C191.083 98.5156 190.524 97.9951 189.737 97.9951C188.912 97.9951 188.188 98.6934 188.188 99.6963V104H187.097ZM197.938 104V97.1064H199.03V104H197.938ZM198.484 95.9639C198.065 95.9639 197.723 95.6465 197.723 95.2402C197.723 94.834 198.065 94.5166 198.484 94.5166C198.903 94.5166 199.259 94.834 199.259 95.2402C199.259 95.6465 198.903 95.9639 198.484 95.9639ZM201.861 94.8086V104H200.77V94.8086H201.861ZM204.299 106.59C204.058 106.59 203.829 106.577 203.689 106.564V105.587C203.804 105.6 204.058 105.612 204.223 105.612C204.667 105.612 205.035 105.574 205.403 104.571L205.606 104.051L203.055 97.1064H204.248L206.127 102.578H206.203L208.082 97.1064H209.275L206.355 104.99C205.949 106.069 205.276 106.59 204.299 106.59ZM213.414 102.045C213.414 100.458 214.811 100.103 216.004 100.014C216.442 99.9819 217.559 99.9248 217.87 99.9121V99.3535C217.87 98.4775 217.35 97.9697 216.309 97.9697C215.433 97.9697 214.912 98.376 214.76 98.8965H213.617C213.757 97.792 214.836 97.0176 216.359 97.0176C217.261 97.0176 218.949 97.2842 218.949 99.4551V104H217.87V103.061H217.819C217.591 103.53 216.956 104.165 215.763 104.165C214.455 104.165 213.414 103.391 213.414 102.045ZM214.506 102.096C214.506 102.819 215.115 103.188 215.953 103.188C217.185 103.188 217.87 102.362 217.87 101.499V100.801L216.131 100.928C215.141 100.991 214.506 101.347 214.506 102.096ZM221.793 99.8613V104H220.701V97.1064H221.755V98.1855H221.844C222.174 97.4873 222.809 97.0176 223.862 97.0176C225.259 97.0176 226.186 97.8682 226.186 99.6201V104H225.094V99.6963C225.094 98.6299 224.51 97.9951 223.532 97.9951C222.529 97.9951 221.793 98.668 221.793 99.8613ZM230.54 104.14C228.826 104.14 227.607 102.756 227.607 100.572C227.607 98.3887 228.826 97.0176 230.553 97.0176C231.886 97.0176 232.317 97.8301 232.546 98.1982H232.622V94.8086H233.727V104H232.66V102.946H232.546C232.305 103.327 231.86 104.14 230.54 104.14ZM230.692 103.162C231.949 103.162 232.66 102.096 232.66 100.547C232.66 99.0234 231.975 97.9951 230.692 97.9951C229.372 97.9951 228.712 99.1123 228.712 100.547C228.712 102.02 229.385 103.162 230.692 103.162ZM241.966 97.1064V98.0205H240.442V104H239.338V98.0205H238.233V97.1064H239.338V96.167C239.338 95.0498 240.087 94.377 241.306 94.377C241.572 94.377 241.89 94.415 242.118 94.4531V95.4307C241.89 95.3926 241.687 95.3799 241.547 95.3799C240.785 95.3799 240.442 95.6973 240.442 96.4082V97.1064H241.966ZM243.261 104V97.1064H244.314V98.1602H244.391C244.645 97.4619 245.355 96.9922 246.168 96.9922C246.333 96.9922 246.612 97.0049 246.739 97.0176V98.1221C246.663 98.0967 246.358 98.0459 246.079 98.0459C245.089 98.0459 244.353 98.7314 244.353 99.6582V104H243.261ZM247.806 104V97.1064H248.897V104H247.806ZM248.352 95.9639C247.933 95.9639 247.59 95.6465 247.59 95.2402C247.59 94.834 247.933 94.5166 248.352 94.5166C248.771 94.5166 249.126 94.834 249.126 95.2402C249.126 95.6465 248.771 95.9639 248.352 95.9639ZM253.531 104.14C251.538 104.14 250.307 102.73 250.307 100.61C250.307 98.4902 251.551 97.0176 253.43 97.0176C254.877 97.0176 256.4 97.9062 256.4 100.458V100.915H251.398C251.449 102.375 252.3 103.175 253.531 103.175C254.356 103.175 254.877 102.819 255.131 102.388H256.299C255.969 103.429 254.953 104.14 253.531 104.14ZM251.411 99.9883H255.296C255.296 98.833 254.56 97.9824 253.43 97.9824C252.236 97.9824 251.475 98.9219 251.411 99.9883ZM258.914 99.8613V104H257.822V97.1064H258.876V98.1855H258.965C259.295 97.4873 259.93 97.0176 260.983 97.0176C262.38 97.0176 263.307 97.8682 263.307 99.6201V104H262.215V99.6963C262.215 98.6299 261.631 97.9951 260.653 97.9951C259.65 97.9951 258.914 98.668 258.914 99.8613ZM267.661 104.14C265.947 104.14 264.729 102.756 264.729 100.572C264.729 98.3887 265.947 97.0176 267.674 97.0176C269.007 97.0176 269.438 97.8301 269.667 98.1982H269.743V94.8086H270.848V104H269.781V102.946H269.667C269.426 103.327 268.981 104.14 267.661 104.14ZM267.813 103.162C269.07 103.162 269.781 102.096 269.781 100.547C269.781 99.0234 269.096 97.9951 267.813 97.9951C266.493 97.9951 265.833 99.1123 265.833 100.547C265.833 102.02 266.506 103.162 267.813 103.162ZM276.573 98.8965C276.421 98.3252 275.989 97.9443 275.177 97.9443C274.326 97.9443 273.717 98.4014 273.717 98.9854C273.717 99.4424 274.085 99.7598 274.897 99.9502L275.926 100.204C277.157 100.496 277.767 101.105 277.767 102.07C277.767 103.264 276.789 104.14 275.062 104.14C273.514 104.14 272.587 103.454 272.409 102.197H273.552C273.679 102.87 274.174 103.188 275.037 103.188C276.015 103.188 276.637 102.781 276.637 102.134C276.637 101.651 276.294 101.321 275.507 101.144L274.466 100.902C273.26 100.623 272.625 99.9629 272.625 99.0488C272.625 97.8682 273.653 97.0176 275.177 97.0176C276.599 97.0176 277.5 97.7793 277.64 98.8965H276.573ZM285.536 97.1064V98.0205H284.013V104H282.908V98.0205H281.804V97.1064H282.908V96.167C282.908 95.0498 283.657 94.377 284.876 94.377C285.143 94.377 285.46 94.415 285.688 94.4531V95.4307C285.46 95.3926 285.257 95.3799 285.117 95.3799C284.355 95.3799 284.013 95.6973 284.013 96.4082V97.1064H285.536ZM286.831 104V97.1064H287.885V98.1602H287.961C288.215 97.4619 288.926 96.9922 289.738 96.9922C289.903 96.9922 290.183 97.0049 290.31 97.0176V98.1221C290.233 98.0967 289.929 98.0459 289.649 98.0459C288.659 98.0459 287.923 98.7314 287.923 99.6582V104H286.831ZM293.966 104.14C292.087 104.14 290.817 102.73 290.817 100.585C290.817 98.4395 292.087 97.0176 293.966 97.0176C295.832 97.0176 297.089 98.4395 297.089 100.585C297.089 102.73 295.832 104.14 293.966 104.14ZM293.966 103.175C295.35 103.175 295.997 101.956 295.997 100.585C295.997 99.2139 295.35 97.9824 293.966 97.9824C292.557 97.9824 291.909 99.2139 291.909 100.585C291.909 101.956 292.557 103.175 293.966 103.175ZM298.523 104V97.1064H299.577V98.1855H299.666C299.958 97.4492 300.618 97.0176 301.52 97.0176C302.421 97.0176 303.03 97.4492 303.36 98.1855H303.437C303.792 97.4746 304.516 97.0176 305.506 97.0176C306.737 97.0176 307.613 97.7666 307.613 99.3916V104H306.521V99.4043C306.521 98.3887 305.874 97.9951 305.125 97.9951C304.16 97.9951 303.614 98.6426 303.614 99.5186V104H302.51V99.29C302.51 98.5156 301.951 97.9951 301.164 97.9951C300.339 97.9951 299.615 98.6934 299.615 99.6963V104H298.523ZM315.637 97.1064V98.0205H314.189V102.02C314.189 102.908 314.621 103.048 315.091 103.048C315.294 103.048 315.573 103.035 315.738 103.022V104.038C315.573 104.063 315.294 104.089 314.977 104.089C314.062 104.089 313.085 103.518 313.085 102.299V98.0205H312.044V97.1064H313.085V95.4561H314.189V97.1064H315.637ZM317.046 104V97.1064H318.138V104H317.046ZM317.592 95.9639C317.173 95.9639 316.83 95.6465 316.83 95.2402C316.83 94.834 317.173 94.5166 317.592 94.5166C318.011 94.5166 318.366 94.834 318.366 95.2402C318.366 95.6465 318.011 95.9639 317.592 95.9639ZM319.877 104V97.1064H320.931V98.1855H321.02C321.312 97.4492 321.972 97.0176 322.873 97.0176C323.774 97.0176 324.384 97.4492 324.714 98.1855H324.79C325.146 97.4746 325.869 97.0176 326.859 97.0176C328.091 97.0176 328.967 97.7666 328.967 99.3916V104H327.875V99.4043C327.875 98.3887 327.228 97.9951 326.479 97.9951C325.514 97.9951 324.968 98.6426 324.968 99.5186V104H323.863V99.29C323.863 98.5156 323.305 97.9951 322.518 97.9951C321.692 97.9951 320.969 98.6934 320.969 99.6963V104H319.877ZM333.613 104.14C331.62 104.14 330.389 102.73 330.389 100.61C330.389 98.4902 331.633 97.0176 333.512 97.0176C334.959 97.0176 336.482 97.9062 336.482 100.458V100.915H331.48C331.531 102.375 332.382 103.175 333.613 103.175C334.438 103.175 334.959 102.819 335.213 102.388H336.381C336.051 103.429 335.035 104.14 333.613 104.14ZM331.493 99.9883H335.378C335.378 98.833 334.642 97.9824 333.512 97.9824C332.318 97.9824 331.557 98.9219 331.493 99.9883ZM344.176 97.1064V98.0205H342.729V102.02C342.729 102.908 343.16 103.048 343.63 103.048C343.833 103.048 344.112 103.035 344.277 103.022V104.038C344.112 104.063 343.833 104.089 343.516 104.089C342.602 104.089 341.624 103.518 341.624 102.299V98.0205H340.583V97.1064H341.624V95.4561H342.729V97.1064H344.176ZM348.327 104.14C346.448 104.14 345.179 102.73 345.179 100.585C345.179 98.4395 346.448 97.0176 348.327 97.0176C350.193 97.0176 351.45 98.4395 351.45 100.585C351.45 102.73 350.193 104.14 348.327 104.14ZM348.327 103.175C349.711 103.175 350.358 101.956 350.358 100.585C350.358 99.2139 349.711 97.9824 348.327 97.9824C346.918 97.9824 346.271 99.2139 346.271 100.585C346.271 101.956 346.918 103.175 348.327 103.175ZM359.156 97.1064V98.0205H357.709V102.02C357.709 102.908 358.141 103.048 358.61 103.048C358.813 103.048 359.093 103.035 359.258 103.022V104.038C359.093 104.063 358.813 104.089 358.496 104.089C357.582 104.089 356.604 103.518 356.604 102.299V98.0205H355.563V97.1064H356.604V95.4561H357.709V97.1064H359.156ZM360.565 104V97.1064H361.657V104H360.565ZM361.111 95.9639C360.692 95.9639 360.35 95.6465 360.35 95.2402C360.35 94.834 360.692 94.5166 361.111 94.5166C361.53 94.5166 361.886 94.834 361.886 95.2402C361.886 95.6465 361.53 95.9639 361.111 95.9639ZM363.396 104V97.1064H364.45V98.1855H364.539C364.831 97.4492 365.491 97.0176 366.393 97.0176C367.294 97.0176 367.903 97.4492 368.233 98.1855H368.31C368.665 97.4746 369.389 97.0176 370.379 97.0176C371.61 97.0176 372.486 97.7666 372.486 99.3916V104H371.395V99.4043C371.395 98.3887 370.747 97.9951 369.998 97.9951C369.033 97.9951 368.487 98.6426 368.487 99.5186V104H367.383V99.29C367.383 98.5156 366.824 97.9951 366.037 97.9951C365.212 97.9951 364.488 98.6934 364.488 99.6963V104H363.396ZM377.133 104.14C375.14 104.14 373.908 102.73 373.908 100.61C373.908 98.4902 375.152 97.0176 377.031 97.0176C378.479 97.0176 380.002 97.9062 380.002 100.458V100.915H375C375.051 102.375 375.901 103.175 377.133 103.175C377.958 103.175 378.479 102.819 378.732 102.388H379.9C379.57 103.429 378.555 104.14 377.133 104.14ZM375.013 99.9883H378.897C378.897 98.833 378.161 97.9824 377.031 97.9824C375.838 97.9824 375.076 98.9219 375.013 99.9883ZM390.361 97.1064L387.81 104H386.68L384.141 97.1064H385.334L387.213 102.578H387.289L389.168 97.1064H390.361ZM391.567 104V97.1064H392.659V104H391.567ZM392.113 95.9639C391.694 95.9639 391.352 95.6465 391.352 95.2402C391.352 94.834 391.694 94.5166 392.113 94.5166C392.532 94.5166 392.888 94.834 392.888 95.2402C392.888 95.6465 392.532 95.9639 392.113 95.9639ZM394.068 102.045C394.068 100.458 395.465 100.103 396.658 100.014C397.096 99.9819 398.213 99.9248 398.524 99.9121V99.3535C398.524 98.4775 398.004 97.9697 396.963 97.9697C396.087 97.9697 395.566 98.376 395.414 98.8965H394.271C394.411 97.792 395.49 97.0176 397.014 97.0176C397.915 97.0176 399.604 97.2842 399.604 99.4551V104H398.524V103.061H398.474C398.245 103.53 397.61 104.165 396.417 104.165C395.109 104.165 394.068 103.391 394.068 102.045ZM395.16 102.096C395.16 102.819 395.77 103.188 396.607 103.188C397.839 103.188 398.524 102.362 398.524 101.499V100.801L396.785 100.928C395.795 100.991 395.16 101.347 395.16 102.096ZM405.164 104H403.971L407.335 94.8086H408.541L411.905 104H410.699L409.785 101.41H406.091L405.164 104ZM406.434 100.407H409.43L407.97 96.2939H407.894L406.434 100.407ZM414.292 94.8086V104H413.149V94.8086H414.292ZM416.958 104.076C416.514 104.076 416.133 103.708 416.146 103.251C416.133 102.807 416.514 102.438 416.958 102.438C417.402 102.438 417.771 102.807 417.771 103.251C417.771 103.708 417.402 104.076 416.958 104.076Z" fill="#777777"/>
<rect x="24" y="154" width="455" height="58" rx="12" fill="#0075FF"/>
<path d="M207.332 175.859H210.633L213.895 181.953H214.031L217.273 175.859H220.574L215.418 184.961V190H212.488V184.961L207.332 175.859ZM224.656 190.215C221.404 190.205 219.412 188.105 219.422 184.746C219.412 181.475 221.434 179.258 224.539 179.258C227.322 179.258 229.52 181.016 229.52 184.629V185.449H222.273C222.273 187.051 223.221 188.037 224.715 188.047C225.701 188.037 226.404 187.607 226.688 186.973H229.441C229.031 188.936 227.273 190.205 224.656 190.215ZM222.273 183.633H226.785C226.775 182.344 225.887 181.416 224.598 181.426C223.27 181.416 222.332 182.412 222.273 183.633ZM237.391 182.539C237.264 181.797 236.619 181.318 235.652 181.309C234.715 181.318 234.002 181.758 234.012 182.402C234.002 182.881 234.373 183.252 235.379 183.457L237.273 183.848C239.334 184.277 240.33 185.195 240.34 186.719C240.33 188.809 238.455 190.205 235.633 190.215C232.771 190.205 231.092 188.926 230.848 186.855H233.758C233.895 187.686 234.568 188.115 235.633 188.125C236.688 188.115 237.391 187.695 237.391 187.012C237.391 186.465 236.941 186.123 235.945 185.918L234.188 185.566C232.166 185.166 231.131 184.131 231.141 182.559C231.131 180.527 232.879 179.258 235.613 179.258C238.289 179.258 239.949 180.527 240.105 182.539H237.391ZM245.262 188.555L243.582 194.121H241.512L242.488 188.555H245.262ZM256.59 190.215C253.387 190.205 251.385 188.008 251.395 184.727C251.385 181.455 253.387 179.258 256.59 179.258C259.803 179.258 261.795 181.455 261.805 184.727C261.795 188.008 259.803 190.205 256.59 190.215ZM254.324 184.727C254.324 186.582 255.096 187.959 256.609 187.969C258.084 187.959 258.865 186.582 258.855 184.727C258.865 182.861 258.084 181.465 256.609 181.465C255.096 181.465 254.324 182.861 254.324 184.727ZM263.621 190V175.859H266.512V183.457H266.668L270.105 179.395H273.426L269.471 183.984L273.641 190H270.242L267.322 185.684L266.512 186.602V190H263.621ZM274.266 187.031C274.275 184.668 276.17 183.896 278.211 183.77C278.973 183.721 280.398 183.652 280.848 183.633V182.773C280.838 181.885 280.232 181.377 279.148 181.367C278.162 181.377 277.547 181.816 277.391 182.539H274.637C274.812 180.703 276.414 179.258 279.227 179.258C281.541 179.258 283.729 180.293 283.719 182.852V190H280.984V188.535H280.906C280.389 189.512 279.373 190.205 277.801 190.195C275.77 190.205 274.275 189.131 274.266 187.031ZM277.039 186.953C277.039 187.764 277.693 188.193 278.621 188.203C279.939 188.193 280.857 187.334 280.848 186.211V185.439C280.408 185.459 279.168 185.527 278.68 185.566C277.674 185.654 277.039 186.133 277.039 186.953ZM287.234 193.984C286.668 193.975 286.141 193.965 285.77 193.926V191.68C286.141 191.709 286.58 191.719 286.941 191.719C287.518 191.719 287.977 191.66 288.328 190.742L288.504 190.293L284.695 179.395H287.723L289.949 187.207H290.066L292.312 179.395H295.379L291.238 191.172C290.633 192.881 289.471 193.975 287.234 193.984Z" fill="white"/>
</svg>
