<svg width="28" height="28" viewBox="0 0 28 28" fill="none" xmlns="http://www.w3.org/2000/svg">
<circle cx="14" cy="14" r="13" stroke="white" stroke-width="2"/>
<path d="M15.75 18.0417C15.5833 17.875 15.5033 17.6736 15.51 17.4375C15.5172 17.2014 15.6042 17 15.7708 16.8333L18.125 14.4792H8.83333C8.59722 14.4792 8.39917 14.3992 8.23917 14.2392C8.07972 14.0797 8 13.8819 8 13.6458C8 13.4097 8.07972 13.2117 8.23917 13.0517C8.39917 12.8922 8.59722 12.8125 8.83333 12.8125H18.125L15.75 10.4375C15.5833 10.2708 15.5 10.0728 15.5 9.84333C15.5 9.61444 15.5833 9.41667 15.75 9.25C15.9167 9.08333 16.1147 9 16.3442 9C16.5731 9 16.7708 9.08333 16.9375 9.25L20.75 13.0625C20.8333 13.1458 20.8925 13.2361 20.9275 13.3333C20.9619 13.4306 20.9792 13.5347 20.9792 13.6458C20.9792 13.7569 20.9619 13.8611 20.9275 13.9583C20.8925 14.0556 20.8333 14.1458 20.75 14.2292L16.9167 18.0625C16.7639 18.2153 16.5731 18.2917 16.3442 18.2917C16.1147 18.2917 15.9167 18.2083 15.75 18.0417V18.0417Z" fill="white"/>
</svg>
