<svg width="362" height="275" viewBox="0 0 362 275" fill="none" xmlns="http://www.w3.org/2000/svg">
<path d="M3.21289 10.0977C4.82422 10.0977 5.98633 9.24805 5.98633 8.0957C5.98633 7.20703 5.29297 6.48438 4.43359 6.34766V6.29883C5.17578 6.15234 5.71777 5.5127 5.72266 4.73633C5.71777 3.6377 4.6582 2.83203 3.21289 2.83203C1.76758 2.83203 0.708008 3.6377 0.712891 4.73633C0.708008 5.5127 1.23535 6.15234 2.00195 6.29883V6.34766C1.12305 6.48438 0.439453 7.20703 0.439453 8.0957C0.439453 9.24805 1.59668 10.0977 3.21289 10.0977ZM1.97266 7.94922C1.96777 7.33398 2.49512 6.88965 3.21289 6.88477C3.93066 6.88965 4.45801 7.33887 4.45312 7.94922C4.45801 8.55469 3.95996 8.97949 3.21289 8.97461C2.46582 8.97949 1.96777 8.55469 1.97266 7.94922ZM2.14844 4.88281C2.14355 4.33105 2.57812 3.94531 3.21289 3.94531C3.84277 3.94531 4.28223 4.33105 4.28711 4.88281C4.28223 5.44922 3.83301 5.84473 3.21289 5.84961C2.58789 5.84473 2.14355 5.44922 2.14844 4.88281ZM9.73633 10.0977C11.5039 10.0977 12.5781 8.78906 12.5781 6.46484C12.5781 4.15527 11.499 2.83203 9.73633 2.83203C7.97363 2.83203 6.89453 4.15527 6.89453 6.46484C6.89453 8.7793 7.96387 10.0977 9.73633 10.0977ZM8.39844 6.46484C8.39844 4.84863 8.9209 4.03809 9.73633 4.0332C10.5518 4.03809 11.0791 4.84863 11.0742 6.46484C11.0791 8.0957 10.5566 8.88672 9.73633 8.88672C8.91602 8.88672 8.38867 8.0957 8.39844 6.46484ZM15.4492 6.46484C16.4941 6.46484 17.0752 5.70312 17.0801 4.58008C17.0752 3.46191 16.5088 2.68555 15.4492 2.68555C14.4189 2.68555 13.8184 3.46191 13.8184 4.58008C13.8184 5.69336 14.3896 6.46484 15.4492 6.46484ZM14.8145 4.58008C14.8193 3.97949 15.0342 3.55957 15.4492 3.55469C15.8887 3.55469 16.0791 3.96973 16.084 4.58008C16.0791 5.19043 15.8691 5.59082 15.4492 5.5957C15.0391 5.59082 14.8193 5.19043 14.8145 4.58008ZM14.834 10H15.9277L20.791 2.92969H19.6973L14.834 10ZM18.5938 8.34961C18.5938 9.46289 19.165 10.2344 20.2148 10.2344C21.2695 10.2344 21.8506 9.47266 21.8555 8.34961C21.8506 7.23145 21.2842 6.45996 20.2148 6.45508C19.1943 6.45996 18.5938 7.23145 18.5938 8.34961ZM19.5898 8.34961C19.5947 7.74902 19.8047 7.3291 20.2148 7.33398C20.6592 7.32422 20.8545 7.73926 20.8594 8.34961C20.8545 8.95996 20.6445 9.36523 20.2148 9.36523C19.8145 9.36523 19.5947 8.95996 19.5898 8.34961Z" fill="#908F99"/>
<path d="M3.29102 73.0977C4.8877 73.1025 5.97168 72.0723 5.9668 70.6367C5.97168 69.3037 5.02441 68.3516 3.75 68.3516C2.96875 68.3516 2.27051 68.7178 1.94336 69.3477H1.875C1.88477 67.9561 2.3877 67.0918 3.34961 67.0918C3.9209 67.0918 4.32617 67.3994 4.44336 67.8926H5.88867C5.74707 66.7305 4.77051 65.832 3.34961 65.832C1.58203 65.832 0.444336 67.2432 0.439453 69.6309C0.43457 72.2188 1.83105 73.0928 3.29102 73.0977ZM2.02148 70.6758C2.03125 69.9873 2.57812 69.4209 3.30078 69.416C4.01855 69.4209 4.54102 69.9678 4.54102 70.6758C4.54102 71.3887 4.00879 71.9404 3.28125 71.9355C2.55859 71.9404 2.03125 71.3691 2.02148 70.6758ZM9.72656 73.0977C11.4941 73.0977 12.5684 71.7891 12.5684 69.4648C12.5684 67.1553 11.4893 65.832 9.72656 65.832C7.96387 65.832 6.88477 67.1553 6.88477 69.4648C6.88477 71.7793 7.9541 73.0977 9.72656 73.0977ZM8.38867 69.4648C8.38867 67.8486 8.91113 67.0381 9.72656 67.0332C10.542 67.0381 11.0693 67.8486 11.0645 69.4648C11.0693 71.0957 10.5469 71.8867 9.72656 71.8867C8.90625 71.8867 8.37891 71.0957 8.38867 69.4648ZM15.4395 69.4648C16.4844 69.4648 17.0654 68.7031 17.0703 67.5801C17.0654 66.4619 16.499 65.6855 15.4395 65.6855C14.4092 65.6855 13.8086 66.4619 13.8086 67.5801C13.8086 68.6934 14.3799 69.4648 15.4395 69.4648ZM14.8047 67.5801C14.8096 66.9795 15.0244 66.5596 15.4395 66.5547C15.8789 66.5547 16.0693 66.9697 16.0742 67.5801C16.0693 68.1904 15.8594 68.5908 15.4395 68.5957C15.0293 68.5908 14.8096 68.1904 14.8047 67.5801ZM14.8242 73H15.918L20.7812 65.9297H19.6875L14.8242 73ZM18.584 71.3496C18.584 72.4629 19.1553 73.2344 20.2051 73.2344C21.2598 73.2344 21.8408 72.4727 21.8457 71.3496C21.8408 70.2314 21.2744 69.46 20.2051 69.4551C19.1846 69.46 18.584 70.2314 18.584 71.3496ZM19.5801 71.3496C19.585 70.749 19.7949 70.3291 20.2051 70.334C20.6494 70.3242 20.8447 70.7393 20.8496 71.3496C20.8447 71.96 20.6348 72.3652 20.2051 72.3652C19.8047 72.3652 19.585 71.96 19.5801 71.3496Z" fill="#908F99"/>
<path d="M0.439453 134.75H3.87695V136H5.27344V134.75H6.17188V133.568H5.27344V128.93H3.42773L0.439453 133.588V134.75ZM1.92383 133.568V133.51L3.82812 130.541H3.89648V133.568H1.92383ZM9.87305 136.098C11.6406 136.098 12.7148 134.789 12.7148 132.465C12.7148 130.155 11.6357 128.832 9.87305 128.832C8.11035 128.832 7.03125 130.155 7.03125 132.465C7.03125 134.779 8.10059 136.098 9.87305 136.098ZM8.53516 132.465C8.53516 130.849 9.05762 130.038 9.87305 130.033C10.6885 130.038 11.2158 130.849 11.2109 132.465C11.2158 134.096 10.6934 134.887 9.87305 134.887C9.05273 134.887 8.52539 134.096 8.53516 132.465ZM15.5859 132.465C16.6309 132.465 17.2119 131.703 17.2168 130.58C17.2119 129.462 16.6455 128.686 15.5859 128.686C14.5557 128.686 13.9551 129.462 13.9551 130.58C13.9551 131.693 14.5264 132.465 15.5859 132.465ZM14.9512 130.58C14.9561 129.979 15.1709 129.56 15.5859 129.555C16.0254 129.555 16.2158 129.97 16.2207 130.58C16.2158 131.19 16.0059 131.591 15.5859 131.596C15.1758 131.591 14.9561 131.19 14.9512 130.58ZM14.9707 136H16.0645L20.9277 128.93H19.834L14.9707 136ZM18.7305 134.35C18.7305 135.463 19.3018 136.234 20.3516 136.234C21.4062 136.234 21.9873 135.473 21.9922 134.35C21.9873 133.231 21.4209 132.46 20.3516 132.455C19.3311 132.46 18.7305 133.231 18.7305 134.35ZM19.7266 134.35C19.7314 133.749 19.9414 133.329 20.3516 133.334C20.7959 133.324 20.9912 133.739 20.9961 134.35C20.9912 134.96 20.7812 135.365 20.3516 135.365C19.9512 135.365 19.7314 134.96 19.7266 134.35Z" fill="#908F99"/>
<path d="M0.556641 199H5.61523V197.789H2.59766V197.75L3.67188 196.705C5.12695 195.387 5.51758 194.728 5.51758 193.922C5.51758 192.696 4.51172 191.832 2.99805 191.832C1.50879 191.832 0.483398 192.716 0.488281 194.098H1.88477C1.87988 193.419 2.31445 192.999 2.97852 193.004C3.62793 192.999 4.10156 193.39 4.10156 194.02C4.10156 194.581 3.74512 194.972 3.08594 195.602L0.546875 197.936L0.556641 199ZM9.4043 199.098C11.1719 199.098 12.2461 197.789 12.2461 195.465C12.2461 193.155 11.167 191.832 9.4043 191.832C7.6416 191.832 6.5625 193.155 6.5625 195.465C6.5625 197.779 7.63184 199.098 9.4043 199.098ZM8.06641 195.465C8.06641 193.849 8.58887 193.038 9.4043 193.033C10.2197 193.038 10.7471 193.849 10.7422 195.465C10.7471 197.096 10.2246 197.887 9.4043 197.887C8.58398 197.887 8.05664 197.096 8.06641 195.465ZM15.1172 195.465C16.1621 195.465 16.7432 194.703 16.748 193.58C16.7432 192.462 16.1768 191.686 15.1172 191.686C14.0869 191.686 13.4863 192.462 13.4863 193.58C13.4863 194.693 14.0576 195.465 15.1172 195.465ZM14.4824 193.58C14.4873 192.979 14.7021 192.56 15.1172 192.555C15.5566 192.555 15.7471 192.97 15.752 193.58C15.7471 194.19 15.5371 194.591 15.1172 194.596C14.707 194.591 14.4873 194.19 14.4824 193.58ZM14.502 199H15.5957L20.459 191.93H19.3652L14.502 199ZM18.2617 197.35C18.2617 198.463 18.833 199.234 19.8828 199.234C20.9375 199.234 21.5186 198.473 21.5234 197.35C21.5186 196.231 20.9521 195.46 19.8828 195.455C18.8623 195.46 18.2617 196.231 18.2617 197.35ZM19.2578 197.35C19.2627 196.749 19.4727 196.329 19.8828 196.334C20.3271 196.324 20.5225 196.739 20.5273 197.35C20.5225 197.96 20.3125 198.365 19.8828 198.365C19.4824 198.365 19.2627 197.96 19.2578 197.35Z" fill="#908F99"/>
<path d="M9.30078 262.098C11.0684 262.098 12.1426 260.789 12.1426 258.465C12.1426 256.155 11.0635 254.832 9.30078 254.832C7.53809 254.832 6.45898 256.155 6.45898 258.465C6.45898 260.779 7.52832 262.098 9.30078 262.098ZM7.96289 258.465C7.96289 256.849 8.48535 256.038 9.30078 256.033C10.1162 256.038 10.6436 256.849 10.6387 258.465C10.6436 260.096 10.1211 260.887 9.30078 260.887C8.48047 260.887 7.95312 260.096 7.96289 258.465ZM15.0137 258.465C16.0586 258.465 16.6396 257.703 16.6445 256.58C16.6396 255.462 16.0732 254.686 15.0137 254.686C13.9834 254.686 13.3828 255.462 13.3828 256.58C13.3828 257.693 13.9541 258.465 15.0137 258.465ZM14.3789 256.58C14.3838 255.979 14.5986 255.56 15.0137 255.555C15.4531 255.555 15.6436 255.97 15.6484 256.58C15.6436 257.19 15.4336 257.591 15.0137 257.596C14.6035 257.591 14.3838 257.19 14.3789 256.58ZM14.3984 262H15.4922L20.3555 254.93H19.2617L14.3984 262ZM18.1582 260.35C18.1582 261.463 18.7295 262.234 19.7793 262.234C20.834 262.234 21.415 261.473 21.4199 260.35C21.415 259.231 20.8486 258.46 19.7793 258.455C18.7588 258.46 18.1582 259.231 18.1582 260.35ZM19.1543 260.35C19.1592 259.749 19.3691 259.329 19.7793 259.334C20.2236 259.324 20.4189 259.739 20.4238 260.35C20.4189 260.96 20.209 261.365 19.7793 261.365C19.3789 261.365 19.1592 260.96 19.1543 260.35Z" fill="#908F99"/>
<path d="M40.0625 6H361.999" stroke="#DADADD" stroke-width="0.965327" stroke-dasharray="1.93 1.93"/>
<path d="M40.0625 68.7461H361.999" stroke="#DADADD" stroke-width="0.965327" stroke-dasharray="1.93 1.93"/>
<path d="M40.0625 131.492H361.999" stroke="#DADADD" stroke-width="0.965327" stroke-dasharray="1.93 1.93"/>
<path d="M40.0625 194.238H361.999" stroke="#DADADD" stroke-width="0.965327" stroke-dasharray="1.93 1.93"/>
<path d="M40.0625 256.984H361.999" stroke="#464555" stroke-width="0.965327"/>
<path d="M52.6816 263.824H51.4316V268.258H52.6816V266.715H53.8828V265.689H52.6816V263.824ZM45.8945 268.082H50.1621V264.381H45.8945V268.082ZM46.4316 272.477H46.9199C47.7695 272.477 48.4873 272.442 49.2344 272.174L49.0586 271.207C48.5996 271.354 48.1357 271.427 47.6426 271.461V269H46.4316V272.477ZM47.125 267.105V265.348H48.9316V267.105H47.125ZM48.9316 269.986H53.4043V269.088H51.7832V268.443H50.5723V269.088H48.9316V269.986ZM49.4492 271.461C49.4395 272.223 50.1328 272.701 51.1582 272.701C52.1787 272.701 52.8818 272.223 52.8867 271.461C52.8818 270.685 52.1787 270.211 51.1582 270.211C50.1377 270.211 49.4395 270.685 49.4492 271.461ZM50.5527 271.461C50.5479 271.188 50.8066 271.056 51.1582 271.051C51.5146 271.056 51.7686 271.188 51.7734 271.461C51.7686 271.734 51.5146 271.871 51.1582 271.871C50.8066 271.871 50.5479 271.734 50.5527 271.461ZM61.7148 263.824H60.4551V272.73H61.7148V263.824ZM54.5371 267.613C54.5322 269.566 55.5234 270.787 56.8906 270.787C58.2285 270.787 59.2246 269.566 59.2246 267.613C59.2246 265.675 58.2285 264.449 56.8906 264.449C55.5234 264.449 54.5322 265.675 54.5371 267.613ZM55.7383 267.613C55.7334 266.295 56.1973 265.572 56.8906 265.572C57.5645 265.572 58.0186 266.295 58.0234 267.613C58.0186 268.937 57.5645 269.659 56.8906 269.654C56.1973 269.659 55.7334 268.937 55.7383 267.613ZM73.4922 267.193H72.2324V263.824H70.9824V272.691H72.2324V268.209H73.4922V267.193ZM65.5039 270.523H66.2754C67.584 270.523 69.0244 270.445 70.5137 270.143L70.3867 269.107C69.1025 269.366 67.8818 269.474 66.7441 269.493V264.674H65.5039V270.523ZM81.9688 268.404H78.5312V267.696C80.1279 267.56 81.1436 266.9 81.1484 265.865C81.1436 264.747 79.8594 264.049 77.916 264.049C75.958 264.049 74.6738 264.747 74.6738 265.865C74.6738 266.896 75.6846 267.555 77.2812 267.691V268.404H73.8633V269.4H81.9688V268.404ZM74.8398 272.555H81.0508V271.559H76.0898V269.957H74.8398V272.555ZM75.9727 265.865C75.9629 265.333 76.6807 265.04 77.916 265.035C79.1416 265.04 79.8594 265.333 79.8594 265.865C79.8594 266.437 79.1416 266.715 77.916 266.715C76.6807 266.715 75.9629 266.437 75.9727 265.865ZM89.5176 263.824H88.2676V272.73H89.5176V268.141H90.8262V267.125H89.5176V263.824ZM82.8574 270.572H83.6094C85.1768 270.577 86.3877 270.543 87.7695 270.309L87.6328 269.264C86.4512 269.469 85.3867 269.537 84.0977 269.547V265.65H87.0273V264.645H82.8574V270.572Z" fill="#3E9BFB"/>
<path d="M137.072 263.824H135.812V272.73H137.072V263.824ZM130.07 270.65H134.465V264.527H133.234V266.695H131.32V264.527H130.07V270.65ZM131.32 269.645V267.662H133.234V269.645H131.32ZM146.379 267.984H138.273V268.99H146.379V267.984ZM138.684 266.51L139.143 267.506C140.646 267.286 141.755 266.622 142.326 265.733C142.893 266.622 143.996 267.286 145.5 267.506L145.979 266.51C143.991 266.275 142.971 265.221 142.971 264.273V263.971H141.691V264.273C141.682 265.24 140.646 266.275 138.684 266.51ZM138.82 271.715L139.26 272.672C140.715 272.477 141.765 271.91 142.321 271.1C142.868 271.91 143.918 272.477 145.373 272.672L145.832 271.715C143.874 271.48 142.946 270.567 142.951 269.635V269.449H141.691V269.635C141.682 270.567 140.754 271.48 138.82 271.715ZM153.928 263.824H152.697V272.711H153.928V268.326H155.236V267.301H153.928V263.824ZM146.867 266.148H152.092V265.152H150.129V263.961H148.879V265.152H146.867V266.148ZM147.229 268.766C147.224 270.006 148.19 270.88 149.504 270.885C150.798 270.88 151.77 270.006 151.77 268.766C151.77 267.525 150.798 266.642 149.504 266.646C148.19 266.642 147.224 267.525 147.229 268.766ZM148.42 268.766C148.42 268.082 148.874 267.662 149.504 267.652C150.124 267.662 150.578 268.082 150.578 268.766C150.578 269.454 150.124 269.864 149.504 269.859C148.874 269.864 148.42 269.454 148.42 268.766ZM163.264 263.824H162.092V272.711H163.264V263.824ZM155.451 269.986L156.154 270.865C157.419 270.133 158.244 269.254 158.752 268.238H160.207V272.32H161.369V264.02H160.207V267.252H159.138C159.353 266.52 159.445 265.729 159.445 264.879H155.939V265.885H158.21C158.039 267.628 157.248 268.922 155.451 269.986ZM174.777 267.193H173.518V263.824H172.268V272.691H173.518V268.209H174.777V267.193ZM166.789 270.523H167.561C168.869 270.523 170.31 270.445 171.799 270.143L171.672 269.107C170.388 269.366 169.167 269.474 168.029 269.493V264.674H166.789V270.523ZM183.254 268.404H179.816V267.696C181.413 267.56 182.429 266.9 182.434 265.865C182.429 264.747 181.145 264.049 179.201 264.049C177.243 264.049 175.959 264.747 175.959 265.865C175.959 266.896 176.97 267.555 178.566 267.691V268.404H175.148V269.4H183.254V268.404ZM176.125 272.555H182.336V271.559H177.375V269.957H176.125V272.555ZM177.258 265.865C177.248 265.333 177.966 265.04 179.201 265.035C180.427 265.04 181.145 265.333 181.145 265.865C181.145 266.437 180.427 266.715 179.201 266.715C177.966 266.715 177.248 266.437 177.258 265.865ZM190.803 263.824H189.553V272.73H190.803V268.141H192.111V267.125H190.803V263.824ZM184.143 270.572H184.895C186.462 270.577 187.673 270.543 189.055 270.309L188.918 269.264C187.736 269.469 186.672 269.537 185.383 269.547V265.65H188.312V264.645H184.143V270.572Z" fill="#464555"/>
<path d="M235.758 264.322H230.934V265.309H232.721C232.711 266.412 232.047 267.589 230.582 268.053L231.217 269.039C232.267 268.702 232.975 267.989 233.37 267.105C233.756 267.901 234.435 268.546 235.416 268.854L236.031 267.896C234.63 267.433 233.995 266.354 233.99 265.309H235.758V264.322ZM232.018 270.504H236.881V272.711H238.121V269.508H232.018V270.504ZM235.504 266.979H236.881V269.117H238.121V263.824H236.881V265.963H235.504V266.979ZM246.979 263.824H245.807V272.711H246.979V263.824ZM239.166 269.986L239.869 270.865C241.134 270.133 241.959 269.254 242.467 268.238H243.922V272.32H245.084V264.02H243.922V267.252H242.853C243.067 266.52 243.16 265.729 243.16 264.879H239.654V265.885H241.925C241.754 267.628 240.963 268.922 239.166 269.986ZM258.492 267.193H257.232V263.824H255.982V272.691H257.232V268.209H258.492V267.193ZM250.504 270.523H251.275C252.584 270.523 254.024 270.445 255.514 270.143L255.387 269.107C254.103 269.366 252.882 269.474 251.744 269.493V264.674H250.504V270.523ZM266.969 268.404H263.531V267.696C265.128 267.56 266.144 266.9 266.148 265.865C266.144 264.747 264.859 264.049 262.916 264.049C260.958 264.049 259.674 264.747 259.674 265.865C259.674 266.896 260.685 267.555 262.281 267.691V268.404H258.863V269.4H266.969V268.404ZM259.84 272.555H266.051V271.559H261.09V269.957H259.84V272.555ZM260.973 265.865C260.963 265.333 261.681 265.04 262.916 265.035C264.142 265.04 264.859 265.333 264.859 265.865C264.859 266.437 264.142 266.715 262.916 266.715C261.681 266.715 260.963 266.437 260.973 265.865ZM274.518 263.824H273.268V272.73H274.518V268.141H275.826V267.125H274.518V263.824ZM267.857 270.572H268.609C270.177 270.577 271.388 270.543 272.77 270.309L272.633 269.264C271.451 269.469 270.387 269.537 269.098 269.547V265.65H272.027V264.645H267.857V270.572Z" fill="#464555"/>
<path d="M319.611 264.469H315.041V265.484H318.396C318.386 266.017 318.347 266.666 318.186 267.516L319.406 267.633C319.611 266.529 319.611 265.641 319.611 265.025V264.469ZM314.514 268.277L314.621 269.273C316.169 269.269 318.249 269.234 320.1 268.893L320.031 267.994C319.196 268.116 318.293 268.185 317.404 268.224V266.52H316.164V268.263C315.573 268.277 315.012 268.277 314.514 268.277ZM315.822 272.555H322.062V271.559H317.072V269.879H315.822V272.555ZM320.51 270.475H321.789V267.574H322.863V266.529H321.789V263.824H320.51V270.475ZM330.715 263.834H329.465V268.844H330.715V263.834ZM323.244 267.711L323.85 268.688C324.909 268.355 325.632 267.672 326.037 266.808C326.438 267.604 327.141 268.219 328.156 268.521L328.762 267.574C327.326 267.13 326.672 266.095 326.682 265.016V264.156H325.383V265.016C325.383 266.124 324.733 267.262 323.244 267.711ZM324.758 272.613H330.715V269.254H324.758V272.613ZM325.988 271.617V270.24H329.494V271.617H325.988ZM339.357 263.824H338.098V272.73H339.357V263.824ZM332.18 267.613C332.175 269.566 333.166 270.787 334.533 270.787C335.871 270.787 336.867 269.566 336.867 267.613C336.867 265.675 335.871 264.449 334.533 264.449C333.166 264.449 332.175 265.675 332.18 267.613ZM333.381 267.613C333.376 266.295 333.84 265.572 334.533 265.572C335.207 265.572 335.661 266.295 335.666 267.613C335.661 268.937 335.207 269.659 334.533 269.654C333.84 269.659 333.376 268.937 333.381 267.613ZM345.002 269.02H343.85V272.613H347.111V271.925L347.619 272.691C348.342 272.413 348.83 271.9 349.123 271.28C349.406 271.92 349.899 272.428 350.666 272.691L351.311 271.764C350.197 271.402 349.763 270.543 349.768 269.635V268.951H348.518V269.635C348.518 270.44 348.098 271.271 347.111 271.72V269.02H345.959V269.908H345.002V269.02ZM342.98 266.246C342.971 267.486 343.977 268.355 345.344 268.355C346.477 268.355 347.385 267.716 347.624 266.754H349.113V268.531H350.354V263.824H349.113V265.729H347.619C347.375 264.786 346.472 264.161 345.344 264.156C343.977 264.161 342.971 265.025 342.98 266.246ZM344.162 266.246C344.157 265.592 344.646 265.187 345.344 265.182C346.018 265.187 346.501 265.592 346.506 266.246C346.501 266.92 346.018 267.335 345.344 267.34C344.646 267.335 344.157 266.92 344.162 266.246ZM345.002 271.666V270.826H345.959V271.666H345.002ZM358.518 263.824H357.268V272.73H358.518V268.141H359.826V267.125H358.518V263.824ZM351.857 270.572H352.609C354.177 270.577 355.388 270.543 356.77 270.309L356.633 269.264C355.451 269.469 354.387 269.537 353.098 269.547V265.65H356.027V264.645H351.857V270.572Z" fill="#464555"/>
<rect x="47.3008" y="170.588" width="36.6824" height="85.9141" fill="#158FE5"/>
<rect x="136.109" y="202.443" width="36.6824" height="54.0583" fill="#DADADD"/>
<rect x="224.922" y="234.299" width="36.6824" height="22.2025" fill="#DADADD"/>
<rect x="313.73" y="85.6387" width="36.6824" height="170.863" fill="#DADADD"/>
</svg>
