<svg width="348" height="60" viewBox="0 0 348 60" fill="none" xmlns="http://www.w3.org/2000/svg">
<path d="M2.23047 18.1044L19.4894 0.644531L15.4502 13.6334H21.7731L4.48091 31.3544L8.52005 18.1044H2.23047Z" fill="#464555"/>
<path d="M10.1719 46.3807H9.13238V49.6178H6.72427V50.4731H9.13238V54.9603H10.1719V46.3807ZM0.526362 52.618L1.06588 53.4602C2.45416 52.9404 3.5332 51.868 4.03983 50.5126C4.54645 51.7232 5.56628 52.7036 6.88218 53.1839L7.4217 52.3549C5.71102 51.7693 4.53987 50.302 4.53987 48.7888V48.1834H7.15852V47.3281H0.855338V48.1834H3.50031V48.7888C3.50031 50.4665 2.2502 52.0127 0.526362 52.618ZM2.65813 57.8159H10.5009V56.9474H3.69769V54.184H2.65813V57.8159ZM21.7914 46.3675H20.7518V58.0659H21.7914V46.3675ZM12.2642 55.0261L12.8301 55.8683C16.7515 53.9866 18.3174 51.0061 18.3305 47.6439H12.8037V48.4861H17.2778C17.0475 51.2824 15.429 53.526 12.2642 55.0261Z" fill="#464555"/>
<path d="M92.9188 24.7512C92.9185 25.2858 92.7713 25.81 92.4932 26.2666C92.2152 26.7232 91.8169 27.0946 91.342 27.3402C90.8672 27.5858 90.3339 27.6961 89.8006 27.6591C89.2673 27.6221 88.7544 27.4392 88.3179 27.1305C87.8815 26.8217 87.5384 26.3989 87.326 25.9083C87.1136 25.4177 87.0401 24.8781 87.1136 24.3486C87.1872 23.8191 87.4048 23.3199 87.7428 22.9057C88.0808 22.4915 88.5262 22.1782 89.0302 22V13.0854C89.0302 12.8276 89.1327 12.5803 89.315 12.398C89.4973 12.2157 89.7445 12.1133 90.0024 12.1133C90.2602 12.1133 90.5075 12.2157 90.6898 12.398C90.8721 12.5803 90.9745 12.8276 90.9745 13.0854V22C91.5434 22.2011 92.0359 22.5737 92.3841 23.0665C92.7323 23.5592 92.9191 24.1478 92.9188 24.7512Z" fill="#464555"/>
<path d="M85.1396 5.30604C85.1396 4.0169 85.6517 2.78055 86.5633 1.86899C87.4748 0.957424 88.7112 0.445313 90.0003 0.445312C91.2895 0.445313 92.5258 0.957424 93.4374 1.86899C94.349 2.78055 94.8611 4.0169 94.8611 5.30604V19.9855C95.7989 20.9426 96.4332 22.1553 96.6846 23.4715C96.9359 24.7877 96.7931 26.1488 96.274 27.3842C95.7549 28.6195 94.8826 29.6742 93.7666 30.4158C92.6505 31.1574 91.3403 31.553 90.0003 31.553C88.6603 31.553 87.3502 31.1574 86.2341 30.4158C85.1181 29.6742 84.2458 28.6195 83.7267 27.3842C83.2076 26.1488 83.0648 24.7877 83.3161 23.4715C83.5675 22.1553 84.2018 20.9426 85.1396 19.9855V5.30604ZM90.0003 2.3896C89.2269 2.3896 88.485 2.69687 87.9381 3.24381C87.3912 3.79075 87.0839 4.53256 87.0839 5.30604V20.8351L86.7592 21.1267C86.0254 21.783 85.5081 22.6466 85.2758 23.6033C85.0436 24.5599 85.1073 25.5646 85.4585 26.4842C85.8098 27.4039 86.432 28.1952 87.2428 28.7535C88.0537 29.3118 89.0149 29.6107 89.9994 29.6107C90.9838 29.6107 91.9451 29.3118 92.7559 28.7535C93.5668 28.1952 94.189 27.4039 94.5402 26.4842C94.8914 25.5646 94.9551 24.5599 94.7229 23.6033C94.4906 22.6466 93.9734 21.783 93.2395 21.1267L92.9168 20.8351V5.30604C92.9168 4.53256 92.6095 3.79075 92.0626 3.24381C91.5156 2.69687 90.7738 2.3896 90.0003 2.3896Z" fill="#464555"/>
<path d="M80.0791 47.2228H79.0396V52.7102H79.9739C81.7437 52.7102 83.5202 52.5983 85.5007 52.1838L85.3822 51.3285C83.4742 51.7232 81.7503 51.8285 80.0791 51.8285V47.2228ZM80.3423 57.8159H88.0403V56.9474H81.3687V53.9997H80.3423V57.8159ZM86.5929 54.8288H87.6193V50.7495H89.3826V49.8546H87.6193V46.3807H86.5929V54.8288ZM95.5147 53.7234C93.1066 53.7234 91.6393 54.5129 91.6328 55.8815C91.6393 57.2632 93.1066 58.0527 95.5147 58.0659C97.9162 58.0527 99.3703 57.2632 99.3703 55.8815C99.3703 54.5129 97.9162 53.7234 95.5147 53.7234ZM90.6195 52.4996H96.0674V47.1044H95.041V48.894H91.6328V47.1044H90.6195V52.4996ZM91.6328 51.6574V49.7099H95.041V51.6574H91.6328ZM92.6723 55.8815C92.6592 55.0459 93.7514 54.5524 95.5147 54.5393C97.2846 54.5524 98.3636 55.0459 98.3702 55.8815C98.3636 56.7237 97.2846 57.2237 95.5147 57.2237C93.7514 57.2237 92.6592 56.7237 92.6723 55.8815ZM98.2386 53.4076H99.265V50.1968H101.028V49.3151H99.265V46.3675H98.2386V53.4076Z" fill="#464555"/>
<path fill-rule="evenodd" clip-rule="evenodd" d="M167.999 28.7023C172.282 28.7023 174.979 25.2389 174.979 19.7373C174.979 13.8335 169.975 5.86341 168.441 3.55805C168.386 3.47614 168.319 3.41038 168.242 3.3653C168.166 3.32022 168.083 3.29688 167.999 3.29688C167.915 3.29688 167.832 3.32022 167.756 3.3653C167.68 3.41038 167.612 3.47614 167.557 3.55805C166.023 5.86341 161.02 13.8335 161.02 19.7373C161.02 25.2389 163.716 28.7023 167.999 28.7023ZM172.934 20.2349C172.934 19.8215 172.599 19.4863 172.186 19.4863C171.772 19.4863 171.437 19.8215 171.437 20.2349C171.437 21.3743 171.088 22.4394 170.502 23.2003C169.92 23.9569 169.179 24.3255 168.463 24.3255C168.05 24.3255 167.715 24.6606 167.715 25.0741C167.715 25.4875 168.05 25.8227 168.463 25.8227C169.722 25.8227 170.875 25.1716 171.689 24.1131C172.5 23.059 172.934 21.6624 172.934 20.2349Z" fill="#464555"/>
<path d="M162.343 47.4597V46.7886H161.277V47.4597C161.277 49.1375 159.138 50.5323 157.026 50.8284L157.447 51.6706C159.27 51.3679 161.066 50.3744 161.816 48.9269C162.566 50.3613 164.369 51.3679 166.185 51.6706L166.606 50.8284C164.494 50.5323 162.349 49.1112 162.343 47.4597ZM156.474 53.8287H161.277V58.0659H162.29V53.8287H167.133V52.9602H156.474V53.8287ZM177.568 51.8548H170.528V48.1703H177.449V47.3281H169.488V52.697H172.936V55.7236H168.119V56.5921H178.831V55.7236H173.949V52.697H177.568V51.8548Z" fill="#464555"/>
<path d="M242.943 6.23047C240.625 7.50392 239.453 9.72022 240.151 13.21C240.878 16.8461 242.245 16.0018 242.245 20.8874C242.245 22.2833 241.547 25.0751 239.453 25.7731" stroke="#464555" stroke-width="2.7918" stroke-linecap="round"/>
<path d="M250.744 6.23047C248.425 7.50392 247.254 9.72022 247.952 13.21C248.679 16.8461 250.046 16.0018 250.046 20.8874C250.046 22.2833 249.348 25.0751 247.254 25.7731" stroke="#464555" stroke-width="2.7918" stroke-linecap="round"/>
<path d="M258.548 6.23047C256.23 7.50392 255.059 9.72022 255.757 13.21C256.484 16.8461 257.85 16.0018 257.85 20.8874C257.85 22.2833 257.152 25.0751 255.059 25.7731" stroke="#464555" stroke-width="2.7918" stroke-linecap="round"/>
<path d="M251.133 52.6049H246.316V51.3811C248.534 51.2627 249.928 50.4205 249.935 49.0388C249.928 47.5979 248.317 46.7294 245.803 46.7228C243.263 46.7294 241.658 47.5979 241.658 49.0388C241.658 50.4205 243.046 51.2627 245.29 51.3811V52.6049H240.474V53.4602H251.133V52.6049ZM241.855 57.8159H249.948V56.9474H242.895V54.4077H241.855V57.8159ZM242.724 49.0388C242.717 48.144 243.915 47.565 245.803 47.565C247.678 47.565 248.876 48.144 248.882 49.0388C248.876 49.9928 247.678 50.5389 245.803 50.5389C243.915 50.5389 242.717 49.9928 242.724 49.0388ZM257.988 47.4597V46.7886H256.923V47.4597C256.923 49.1375 254.784 50.5323 252.672 50.8284L253.093 51.6706C254.916 51.3679 256.712 50.3744 257.462 48.9269C258.212 50.3613 260.015 51.3679 261.831 51.6706L262.252 50.8284C260.14 50.5323 257.995 49.1112 257.988 47.4597ZM252.119 53.8287H256.923V58.0659H257.936V53.8287H262.778V52.9602H252.119V53.8287Z" fill="#464555"/>
<path d="M322.888 26.8697H320.445V2.44141H322.888M344.874 2.44141H342.431V26.8697H344.874M339.06 6.52093L334.174 11.4066C333.49 11.08 332.722 10.9735 331.975 11.1016C331.228 11.2297 330.54 11.5863 330.004 12.1221C329.468 12.6579 329.112 13.3466 328.983 14.0935C328.855 14.8403 328.962 15.6085 329.288 16.2922L324.403 21.1779L326.137 22.9123L331.023 18.0266C331.707 18.3532 332.475 18.4598 333.222 18.3316C333.968 18.2035 334.657 17.847 335.193 17.3112C335.729 16.7754 336.085 16.0866 336.213 15.3398C336.342 14.5929 336.235 13.8248 335.908 13.141L340.794 8.25534L339.06 6.52093Z" fill="#464555"/>
<path d="M330.527 46.3675H329.501V58.0659H330.527V51.9996H332.422V51.1311H330.527V46.3675ZM321.553 55.0261L322.132 55.842C325.941 53.9603 327.494 50.9403 327.501 47.6308H322.092V48.4993H326.454C326.218 51.2692 324.573 53.526 321.553 55.0261ZM338.949 48.0913V47.1965H337.87V48.0913C337.863 50.1047 335.593 51.8746 333.567 52.2627L334.041 53.1312C335.811 52.7167 337.659 51.4666 338.423 49.7494C339.179 51.4666 341.035 52.7233 342.805 53.1312L343.278 52.2627C341.245 51.8811 338.956 50.0981 338.949 48.0913ZM333.119 56.4736H343.831V55.6183H333.119V56.4736Z" fill="#464555"/>
</svg>
