<svg width="363" height="785" viewBox="0 0 363 785" fill="none" xmlns="http://www.w3.org/2000/svg">
<g clip-path="url(#clip0_1203_21504)">
<rect x="0.636719" width="362.319" height="784.095" rx="27.8707" fill="white"/>
<rect x="0.636719" width="362.319" height="143.998" fill="#F4F5F9"/>
<path d="M327.655 61.3164C327.311 61.3164 326.98 61.4519 326.736 61.6932C326.492 61.9344 326.355 62.2616 326.355 62.6027C326.355 62.6581 326.368 62.7108 326.375 62.7635C324.127 63.3315 322.453 65.351 322.453 67.7481V73.5366C322.453 73.9007 322.171 74.1798 321.803 74.1798H321.152V75.4661H325.827C325.749 75.6719 325.707 75.8895 325.705 76.1093C325.705 77.1673 326.586 78.0388 327.655 78.0388C328.725 78.0388 329.606 77.1673 329.606 76.1093C329.604 75.8895 329.562 75.6719 329.484 75.4661H334.159V74.1798H333.508C333.14 74.1798 332.858 73.9007 332.858 73.5366V67.9288C332.858 65.5118 331.224 63.3559 328.936 62.7635C328.943 62.7108 328.956 62.6581 328.956 62.6027C328.956 62.2616 328.819 61.9344 328.575 61.6932C328.331 61.4519 328 61.3164 327.655 61.3164ZM327.371 63.8891C327.465 63.8814 327.559 63.8891 327.655 63.8891H327.778C329.901 63.9521 331.557 65.7929 331.557 67.9288V73.5366C331.557 73.763 331.606 73.9765 331.68 74.1798H323.632C323.71 73.974 323.751 73.7564 323.754 73.5366V67.7481C323.752 66.7717 324.124 65.8309 324.795 65.1149C325.466 64.3989 326.387 63.9609 327.371 63.8891H327.371ZM327.655 75.4661C328.022 75.4661 328.306 75.7478 328.306 76.1093C328.306 76.4714 328.021 76.7525 327.655 76.7525C327.289 76.7525 327.005 76.4708 327.005 76.1093C327.005 75.7472 327.29 75.4661 327.655 75.4661Z" fill="#454545"/>
<rect x="327.656" y="56.6719" width="13.4322" height="12.7161" rx="6.35804" fill="#DD8382"/>
<path d="M331.771 67.5312H336.193V66.6208H334.483C334.149 66.6208 333.712 66.658 333.359 66.6951C334.808 65.3016 335.868 63.9359 335.868 62.626C335.868 61.3811 335.059 60.5729 333.805 60.5729C332.913 60.5729 332.309 60.9538 331.715 61.5948L332.328 62.1801C332.69 61.762 333.136 61.4276 333.675 61.4276C334.437 61.4276 334.827 61.9385 334.827 62.6725C334.827 63.7966 333.796 65.1251 331.771 66.9088V67.5312Z" fill="white"/>
<rect x="148.285" y="59.9727" width="3.17331" height="10.5777" fill="#454545"/>
<rect x="157.277" y="67.375" width="3.17331" height="8.46216" transform="rotate(90 157.277 67.375)" fill="#454545"/>
<rect x="181.078" y="67.375" width="3.17331" height="11.6355" transform="rotate(90 181.078 67.375)" fill="#454545"/>
<rect x="176.844" y="79.5391" width="3.17331" height="11.1066" transform="rotate(-180 176.844 79.5391)" fill="#454545"/>
<path d="M148.287 59.9763L150.928 62.6195L141.937 73.1972L139.293 70.553L148.287 59.9763Z" fill="#454545" fill-opacity="0.5"/>
<rect x="148.285" y="70.5508" width="3.17331" height="8.99105" transform="rotate(90 148.285 70.5508)" fill="#454545"/>
<path d="M151.461 79.5391L148.288 79.5391L148.288 70.548C150.04 70.548 151.461 71.9688 151.461 73.7213L151.461 79.5391Z" fill="#454545"/>
<path d="M154.105 77.9559H156.346C157.422 77.9559 158.425 77.4102 159.01 76.5065L162.952 70.4143C163.537 69.5105 164.54 68.9648 165.616 68.9648H168.121" stroke="#454545" stroke-width="3.17331"/>
<rect x="184.781" y="73.7227" width="1.05777" height="7.93328" transform="rotate(-90 184.781 73.7227)" fill="#454545"/>
<rect x="192.754" y="79.5391" width="1.05777" height="12.1644" transform="rotate(-180 192.754 79.5391)" fill="#454545"/>
<rect x="185.84" y="79.5586" width="1.05777" height="12.1644" transform="rotate(-180 185.84 79.5586)" fill="#454545"/>
<path d="M202.804 73.4572C202.804 76.6522 200.796 79.0105 198.572 79.0105C196.349 79.0105 194.341 76.6522 194.341 73.4572C194.341 70.2621 196.349 67.9039 198.572 67.9039C200.796 67.9039 202.804 70.2621 202.804 73.4572Z" stroke="#454545" stroke-width="1.05777"/>
<path d="M209.157 78.4805L208.099 78.4805L211.802 67.3739L212.859 67.3739L209.157 78.4805Z" fill="#454545"/>
<path d="M209.156 78.4805L208.098 78.4805L204.396 67.3739L205.454 67.3739L209.156 78.4805Z" fill="#454545"/>
<rect x="212.859" y="79.5391" width="1.05777" height="12.1644" transform="rotate(-180 212.859 79.5391)" fill="#454545"/>
<rect x="205.449" y="79.5391" width="1.05777" height="12.1644" transform="rotate(-180 205.449 79.5391)" fill="#454545"/>
<path fill-rule="evenodd" clip-rule="evenodd" d="M213.914 79.5394H215.387H215.501H220.675V78.4816L215.501 78.4816L215.501 74.2504H219.618V73.1926H215.501L215.501 68.4333L220.79 68.4333V67.3755L215.501 67.3755V67.375C214.624 67.375 213.914 68.0854 213.914 68.9617V79.5394Z" fill="#454545"/>
<path d="M230.268 68.4336L229.122 67.2877L229.122 63.8499L230.268 62.704L231.414 63.8499L231.414 67.2877L230.268 68.4336Z" fill="#DC8772"/>
<path d="M230.268 61.4727L229.122 60.3267L229.122 56.889L230.268 55.7431L231.414 56.889L231.414 60.3267L230.268 61.4727Z" fill="#86A6D9"/>
<path d="M230.883 62.0885L232.029 60.9425L235.466 60.9425L236.612 62.0885L235.466 63.2344L232.029 63.2344L230.883 62.0885Z" fill="#F5C851"/>
<path d="M223.918 62.0885L225.064 60.9425L228.502 60.9425L229.648 62.0885L228.502 63.2344L225.064 63.2344L223.918 62.0885Z" fill="#87D5D7"/>
<path d="M24.0236 120.58H22.4704V133.702H24.0236V120.58ZM12.8317 126.255C12.8317 129.151 13.9495 130.951 15.6624 130.944C17.2882 130.951 18.3841 129.384 18.5365 126.822H19.7849V133.063H21.3236V120.812H19.7849V125.515H18.522C18.3333 123.062 17.2519 121.574 15.6624 121.581C13.9495 121.574 12.8317 123.367 12.8317 126.255ZM14.3269 126.255C14.3196 124.209 14.8277 123.098 15.6624 123.105C16.5333 123.098 17.0486 124.209 17.0559 126.255C17.0486 128.309 16.5333 129.413 15.6624 129.405C14.8277 129.413 14.3196 128.309 14.3269 126.255ZM36.5654 120.58H34.9541V124.731H31.1944V126.038H34.9541V133.717H36.5654V120.58ZM26.2445 130.61H27.3187C29.3291 130.603 31.2888 130.494 33.4009 130.059L33.2122 128.738C31.3686 129.101 29.6195 129.231 27.8558 129.253V122.017H26.2445V130.61ZM43.3443 124.31V123.207H46.2185V121.872H38.8153V123.207H41.704V124.31C41.6968 126.538 40.4048 128.984 38.3363 129.942L39.2653 131.205C40.7968 130.48 41.9508 128.97 42.5532 127.17C43.1556 128.839 44.2879 130.211 45.8411 130.886L46.7265 129.609C44.6072 128.723 43.3443 126.459 43.3443 124.31ZM47.6846 133.702H49.3104V120.58H47.6846V133.702ZM63.2312 130.799H58.0054V128.244H61.8667V121.451H60.2554V123.599H54.1732V121.451H52.562V128.244H56.4087V130.799H51.241V132.12H63.2312V130.799ZM54.1732 126.938V124.891H60.2554V126.938H54.1732ZM74.8004 121.784H65.336V123.076H73.1746C73.1674 124.651 73.1674 126.517 72.6521 129.071L74.2778 129.246C74.7859 126.502 74.7859 124.68 74.8004 123.047V121.784ZM64.0876 132.004H76.0488V130.683H70.0972V126.125H68.5005V130.683H64.0876V132.004ZM81.7826 123.73V121.639H80.1423V123.73C80.135 126.183 78.9447 128.709 76.8036 129.71L77.8197 131.017C79.3294 130.255 80.4036 128.745 80.977 126.93C81.5358 128.651 82.581 130.044 84.0616 130.77L85.0342 129.478C82.9439 128.563 81.7753 126.168 81.7826 123.73ZM83.5826 126.125H86.3406V133.717H87.9374V120.58H86.3406V124.818H83.5826V126.125Z" fill="#454545" fill-opacity="0.3"/>
<path d="M113.778 121.552H107.087V122.888H112.189C112.174 123.693 112.124 124.702 111.862 126.052L113.459 126.197C113.764 124.535 113.764 123.229 113.778 122.336V121.552ZM106.303 127.242L106.448 128.534C108.749 128.527 111.848 128.476 114.577 127.983L114.49 126.822C113.22 127.003 111.826 127.105 110.469 127.163V124.543H108.872V127.213C107.95 127.228 107.079 127.235 106.303 127.242ZM108.262 133.441H117.335V132.134H109.888V129.536H108.262V133.441ZM115.259 130.407H116.914V126.023H118.612V124.673H116.914V120.58H115.259V130.407ZM130.225 120.58H128.628V133.717H130.225V120.58ZM120.006 123.033H124.549V125.37H120.02V130.61H121.167C123.526 130.617 125.485 130.53 127.714 130.146L127.569 128.825C125.522 129.166 123.744 129.275 121.675 129.289V126.647H126.19V121.726H120.006V123.033ZM143.057 120.58H141.431V133.717H143.057V120.58ZM132.838 130.625H139.225V121.654H137.628V124.934H134.449V121.654H132.838V130.625ZM134.449 129.304V126.197H137.628V129.304H134.449ZM155.338 120.551H153.726V127.707H155.338V124.818H157.181V123.512H155.338V120.551ZM145.002 122.873H152.783V121.639H149.705V120.478H148.094V121.639H145.002V122.873ZM145.67 125.428C145.67 126.771 146.955 127.576 148.892 127.576C150.838 127.576 152.093 126.771 152.101 125.428C152.093 124.122 150.838 123.287 148.892 123.28C146.955 123.287 145.67 124.122 145.67 125.428ZM146.759 129.463H153.726V130.334H146.773V133.586H155.744V132.381H148.37V131.452H155.338V128.288H146.759V129.463ZM147.238 125.428C147.23 124.804 147.876 124.434 148.892 124.441C149.909 124.434 150.562 124.804 150.562 125.428C150.562 126.074 149.909 126.408 148.892 126.415C147.876 126.408 147.23 126.074 147.238 125.428ZM168.765 120.594H167.139V130.073H168.765V120.594ZM158.067 124.731C158.067 126.669 159.613 128.026 161.608 128.026C163.604 128.026 165.143 126.669 165.136 124.731C165.143 122.822 163.604 121.458 161.608 121.451C159.613 121.458 158.067 122.822 158.067 124.731ZM159.649 124.731C159.642 123.599 160.484 122.859 161.608 122.859C162.704 122.859 163.554 123.599 163.554 124.731C163.554 125.892 162.704 126.618 161.608 126.618C160.484 126.618 159.642 125.892 159.649 124.731ZM160.084 133.441H169.128V132.134H161.71V129.115H160.084V133.441Z" fill="#454545"/>
<rect x="101.898" y="142.41" width="72.4637" height="1.85804" rx="0.929022" fill="#454545"/>
<path d="M201.638 126.865H196.441V125.617H200.259V124.339H192.739V122.438H200.186V121.175H191.128V125.617H194.859V126.865H189.662V128.157H201.638V126.865ZM191.056 131.307C191.056 132.831 192.776 133.695 195.628 133.702C198.459 133.695 200.164 132.831 200.172 131.307C200.164 129.768 198.459 128.905 195.628 128.912C192.776 128.905 191.056 129.768 191.056 131.307ZM192.696 131.307C192.689 130.552 193.719 130.146 195.628 130.146C197.508 130.146 198.546 130.552 198.56 131.307C198.546 132.069 197.508 132.461 195.628 132.454C193.719 132.461 192.689 132.069 192.696 131.307ZM204.672 121.886H203.06V130.494H203.946C205.608 130.494 207.045 130.436 208.707 130.073L208.475 128.709C207.132 128.999 205.956 129.086 204.672 129.101V121.886ZM206.747 126.125H209.491V133.078H211.015V120.855H209.491V124.818H206.747V126.125ZM212.292 133.702H213.831V120.58H212.292V133.702ZM225.705 120.551H224.094V127.707H225.705V124.818H227.549V123.512H225.705V120.551ZM215.37 122.873H223.15V121.639H220.073V120.478H218.462V121.639H215.37V122.873ZM216.038 125.428C216.038 126.771 217.322 127.576 219.26 127.576C221.205 127.576 222.461 126.771 222.468 125.428C222.461 124.122 221.205 123.287 219.26 123.28C217.322 123.287 216.038 124.122 216.038 125.428ZM217.126 129.463H224.094V130.334H217.141V133.586H226.112V132.381H218.738V131.452H225.705V128.288H217.126V129.463ZM217.605 125.428C217.598 124.804 218.244 124.434 219.26 124.441C220.276 124.434 220.929 124.804 220.929 125.428C220.929 126.074 220.276 126.408 219.26 126.415C218.244 126.408 217.598 126.074 217.605 125.428ZM239.132 120.594H237.507V130.073H239.132V120.594ZM228.434 124.731C228.434 126.669 229.98 128.026 231.976 128.026C233.972 128.026 235.511 126.669 235.503 124.731C235.511 122.822 233.972 121.458 231.976 121.451C229.98 121.458 228.434 122.822 228.434 124.731ZM230.016 124.731C230.009 123.599 230.851 122.859 231.976 122.859C233.072 122.859 233.921 123.599 233.921 124.731C233.921 125.892 233.072 126.618 231.976 126.618C230.851 126.618 230.009 125.892 230.016 124.731ZM230.452 133.441H239.495V132.134H232.078V129.115H230.452V133.441Z" fill="#454545" fill-opacity="0.3"/>
<path d="M283.707 120.58H282.081V133.717H283.707V120.58ZM273.212 126.168C273.205 129.021 274.649 130.813 276.638 130.813C278.605 130.813 280.056 129.021 280.063 126.168C280.056 123.338 278.605 121.538 276.638 121.538C274.649 121.538 273.205 123.338 273.212 126.168ZM274.765 126.168C274.765 124.165 275.527 122.989 276.638 122.989C277.741 122.989 278.496 124.165 278.496 126.168C278.496 128.186 277.741 129.355 276.638 129.362C275.527 129.355 274.765 128.186 274.765 126.168ZM296.858 120.58H295.32V130.509H296.858V120.58ZM286.146 128.157H291.328V125.573H292.721V130.102H294.246V120.812H292.721V124.267H291.328V121.61H289.833V123.686H287.67V121.61H286.146V128.157ZM287.67 126.851V124.92H289.833V126.851H287.67ZM288.076 133.441H297.221V132.134H289.688V129.188H288.076V133.441ZM309.153 127.46H301.591V125.762H308.732V124.499H301.591V122.917H309.037V121.61H299.95V128.738H309.153V127.46ZM298.484 132.105H310.474V130.784H298.484V132.105Z" fill="#454545" fill-opacity="0.3"/>
<path d="M49.0532 18.5426C46.5778 18.5272 44.9352 20.1852 44.9352 22.3676C44.9429 24.4806 46.4853 25.9998 48.4826 25.9921C49.7087 25.9998 50.7883 25.4214 51.3513 24.4497H51.4747C51.4592 26.848 50.5493 28.2747 48.9298 28.2747C47.9196 28.2747 47.2333 27.7117 47.0328 26.8249H45.0432C45.29 28.6757 46.7783 30.0175 48.9298 30.0175C51.6752 30.0175 53.418 27.7889 53.418 23.9408C53.4103 19.8613 51.2356 18.5581 49.0532 18.5426ZM46.894 22.3213C46.8785 21.126 47.8117 20.1698 49.0686 20.1621C50.3179 20.1698 51.2279 21.1723 51.2279 22.3059C51.2356 23.4626 50.2794 24.4652 49.0378 24.4652C47.7885 24.4652 46.894 23.5243 46.894 22.3213ZM55.6858 28.4752C56.3259 28.4752 56.8734 27.9354 56.8734 27.2722C56.8734 26.6244 56.3259 26.0923 55.6858 26.0846C55.0226 26.0923 54.4751 26.6244 54.4828 27.2722C54.4751 27.9354 55.0226 28.4752 55.6858 28.4752ZM54.4828 21.288C54.4751 21.9512 55.0226 22.491 55.6858 22.491C56.3259 22.491 56.8734 21.9512 56.8734 21.288C56.8734 20.6402 56.3259 20.1081 55.6858 20.1004C55.0226 20.1081 54.4751 20.6402 54.4828 21.288ZM57.9228 27.7811H63.3364V29.8633H65.2488V27.7811H66.714V26.1309H65.2488V18.6969H62.7503L57.9228 26.1771V27.7811ZM59.9741 26.1309V26.0537L63.2438 20.9795H63.3672V26.1309H59.9741ZM72.0665 18.6969H70.1386L67.3779 20.486V22.3213L69.9844 20.6556H70.0461V29.8633H72.0665V18.6969Z" fill="#454545"/>
<g clip-path="url(#clip1_1203_21504)">
<rect x="285.242" y="17.6523" width="2.97287" height="11.1483" rx="0.929022" fill="#454545"/>
<rect x="280.32" y="19.8789" width="2.97287" height="8.91861" rx="0.929022" fill="#454545"/>
<rect x="275.395" y="22.2969" width="2.97287" height="6.50315" rx="0.929022" fill="#454545"/>
<rect x="270.469" y="24.5234" width="2.97287" height="4.2735" rx="0.929022" fill="#454545"/>
</g>
<g clip-path="url(#clip2_1203_21504)">
<path d="M301.649 25.2031C302.302 25.2031 302.937 25.3749 303.497 25.7023L303.724 25.835C303.895 25.9356 303.926 26.171 303.785 26.3115L301.849 28.2417C301.73 28.3603 301.538 28.3603 301.419 28.2417L299.495 26.3239C299.355 26.184 299.384 25.9498 299.555 25.8485L299.779 25.7152C300.344 25.3794 300.987 25.2031 301.649 25.2031Z" fill="#454545"/>
<path d="M301.649 21.6602C303.275 21.6602 304.836 22.1995 306.107 23.1982L306.287 23.3394C306.43 23.4519 306.443 23.6639 306.314 23.7925L305.158 24.9449C305.051 25.0515 304.882 25.0637 304.761 24.9737L304.62 24.869C303.761 24.2307 302.726 23.8883 301.649 23.8883C300.566 23.8883 299.524 24.2349 298.662 24.8805L298.521 24.9862C298.4 25.077 298.23 25.0651 298.123 24.9582L296.968 23.8062C296.839 23.6779 296.852 23.4664 296.994 23.3536L297.173 23.2124C298.448 22.2047 300.016 21.6602 301.649 21.6602Z" fill="#454545"/>
<path d="M301.648 18.1133C304.229 18.1133 306.696 19.0234 308.649 20.6915L308.815 20.8339C308.95 20.949 308.958 21.1541 308.833 21.2792L307.681 22.4278C307.569 22.5391 307.391 22.5469 307.27 22.4458L307.127 22.3265C305.59 21.0408 303.663 20.3414 301.648 20.3414C299.628 20.3414 297.694 21.0456 296.154 22.3394L296.012 22.4592C295.891 22.5608 295.712 22.5532 295.6 22.4417L294.449 21.2933C294.323 21.1684 294.331 20.9636 294.465 20.8484L294.631 20.706C296.587 19.0288 299.061 18.1133 301.648 18.1133Z" fill="#454545"/>
</g>
<rect x="316.508" y="19.0469" width="19.5095" height="8.3612" rx="1.2356" fill="#454545"/>
<path opacity="0.4" fill-rule="evenodd" clip-rule="evenodd" d="M319.855 18.1165H332.675C333.601 18.1165 334.24 18.1172 334.735 18.1577C335.22 18.1973 335.486 18.2703 335.681 18.3697C336.118 18.5923 336.473 18.9476 336.696 19.3847C336.795 19.5796 336.868 19.8453 336.908 20.33C336.948 20.8256 336.949 21.4642 336.949 22.39V24.0623C336.949 24.9881 336.948 25.6266 336.908 26.1222C336.868 26.607 336.795 26.8726 336.696 27.0676C336.473 27.5046 336.118 27.8599 335.681 28.0826C335.486 28.182 335.22 28.2549 334.735 28.2945C334.24 28.335 333.601 28.3358 332.675 28.3358H319.855C318.929 28.3358 318.29 28.335 317.795 28.2945C317.31 28.2549 317.044 28.182 316.85 28.0826C316.412 27.8599 316.057 27.5046 315.835 27.0676C315.735 26.8726 315.662 26.607 315.623 26.1222C315.582 25.6266 315.581 24.9881 315.581 24.0623V22.39C315.581 21.4642 315.582 20.8256 315.623 20.33C315.662 19.8453 315.735 19.5796 315.835 19.3847C316.057 18.9476 316.412 18.5923 316.85 18.3697C317.044 18.2703 317.31 18.1973 317.795 18.1577C318.29 18.1172 318.929 18.1165 319.855 18.1165ZM314.652 22.39C314.652 20.569 314.652 19.6584 315.007 18.9629C315.318 18.3511 315.816 17.8536 316.428 17.5419C317.123 17.1875 318.034 17.1875 319.855 17.1875H332.675C334.496 17.1875 335.407 17.1875 336.103 17.5419C336.714 17.8536 337.212 18.3511 337.523 18.9629C337.878 19.6584 337.878 20.569 337.878 22.39V24.0623C337.878 25.8833 337.878 26.7938 337.523 27.4894C337.212 28.1012 336.714 28.5986 336.103 28.9104C335.407 29.2648 334.496 29.2648 332.675 29.2648H319.855C318.034 29.2648 317.123 29.2648 316.428 28.9104C315.816 28.5986 315.318 28.1012 315.007 27.4894C314.652 26.7938 314.652 25.8833 314.652 24.0623V22.39ZM338.807 25.0842C339.577 24.8984 340.2 24.2523 340.2 23.2261C340.2 22.2 339.577 21.5539 338.807 21.3681L338.807 23.2261L338.807 25.0842Z" fill="#454545"/>
<rect x="115.129" y="774.805" width="133.333" height="4.64511" rx="2.32256" fill="black"/>
<rect x="0.636719" y="693.051" width="362.319" height="91.0442" fill="white"/>
<mask id="path-44-inside-1_1203_21504" fill="white">
<path d="M15.5 693.98H348.09V758.006H15.5V693.98Z"/>
</mask>
<path d="M15.5 693.98H348.09V758.006H15.5V693.98Z" fill="white"/>
<g opacity="0.3">
<path d="M27.7619 724.825V735.973H40.3966V724.825M24.7891 727.054L34.0793 718.879L43.3695 727.054" stroke="#454545" stroke-width="1.85804" stroke-linecap="round" stroke-linejoin="round"/>
<path d="M37.4277 753.822H30.1271V756.877H37.4277V753.822ZM28.9712 753.103H38.6071V752.218H34.3494V751.499C36.2247 751.422 37.2567 750.921 37.2508 750.012C37.2567 749.028 36.0124 748.52 33.7833 748.515C31.566 748.52 30.3099 749.028 30.3158 750.012C30.3099 750.921 31.3596 751.422 33.229 751.499V752.218H28.9712V753.103ZM29.4666 748.137H38.0646V747.276H34.3494V746.297H33.229V747.276H29.4666V748.137ZM31.2357 756.016V754.683H36.3426V756.016H31.2357ZM31.507 750.012C31.5011 749.529 32.309 749.293 33.7833 749.281C35.2694 749.293 36.0596 749.529 36.0596 750.012C36.0596 750.49 35.2694 750.744 33.7833 750.744C32.309 750.744 31.5011 750.49 31.507 750.012Z" fill="#454545"/>
</g>
<g opacity="0.3">
<path d="M114.172 731.867L119.019 736.714" stroke="#454545" stroke-width="1.85804" stroke-linecap="round" stroke-linejoin="round"/>
<path d="M108.116 733.482C112.354 733.482 115.79 730.046 115.79 725.807C115.79 721.569 112.354 718.133 108.116 718.133C103.877 718.133 100.441 721.569 100.441 725.807C100.441 730.046 103.877 733.482 108.116 733.482Z" stroke="#454545" stroke-width="1.85804" stroke-linecap="round" stroke-linejoin="round"/>
<path d="M109.791 754.766H105.51V752.265H104.389V754.766H100.12V755.685H109.791V754.766ZM100.568 751.782L101.028 752.666C102.703 752.336 104.265 751.327 104.944 749.918C105.633 751.31 107.208 752.301 108.918 752.619L109.366 751.734C107.355 751.422 105.521 749.983 105.521 748.361V748.267H108.954V747.347H100.922V748.267H104.354V748.361C104.354 749.983 102.532 751.451 100.568 751.782ZM118.368 746.439H117.248V757.006H118.368V746.439ZM109.688 754.129L109.841 755.06C111.775 755.066 114.334 755.037 116.681 754.648L116.599 753.81C115.667 753.934 114.676 754.005 113.698 754.052V753.026C114.924 752.849 115.72 752.13 115.726 751.109C115.72 749.918 114.665 749.134 113.12 749.128C111.592 749.134 110.554 749.918 110.56 751.109C110.554 752.141 111.356 752.867 112.589 753.032V754.093C111.551 754.117 110.56 754.123 109.688 754.129ZM109.912 748.597H116.363V747.701H113.709V746.462H112.589V747.701H109.912V748.597ZM111.622 751.109C111.61 750.431 112.235 750.001 113.12 750.001C114.034 750.001 114.653 750.431 114.653 751.109C114.653 751.782 114.034 752.2 113.12 752.194C112.235 752.2 111.61 751.782 111.622 751.109Z" fill="#454545"/>
</g>
<g opacity="0.3">
<path d="M176.086 718.133V736.713H194.666M181.288 732.254V728.538M187.234 732.254V724.079M193.18 732.254V719.619" stroke="#454545" stroke-width="1.85804" stroke-linecap="round" stroke-linejoin="round"/>
<path d="M185.428 751.97H175.756V752.867H180.12V754.813H181.229V752.867H185.428V751.97ZM176.959 756.782H184.354V755.874H178.068V753.893H176.959V756.782ZM177.03 751.039H184.154V746.769H183.033V748.055H178.139V746.769H177.03V751.039ZM178.139 750.142V748.892H183.033V750.142H178.139ZM189.004 748.125V746.981H187.884V748.066C187.878 749.629 186.922 751.021 185.265 751.593L185.867 752.501C187.099 752.029 187.996 751.109 188.461 749.936C188.916 751.003 189.776 751.852 190.938 752.277L191.552 751.381C189.959 750.85 188.998 749.529 189.004 748.125ZM186.928 754.14H192.967V757.006H194.087V753.256H186.928V754.14ZM190.738 749.493H192.967V752.702H194.087V746.439H192.967V748.574H190.738V749.493Z" fill="#454545"/>
</g>
<g opacity="0.3">
<path d="M269.094 724.908C267.859 721.652 264.713 719.336 261.028 719.336C257.343 719.336 254.197 721.649 252.962 724.906C250.652 725.512 248.945 727.615 248.945 730.119C248.945 733.098 251.358 735.511 254.334 735.511H267.711C270.687 735.511 273.1 733.098 273.1 730.119C273.1 727.62 271.399 725.517 269.094 724.908ZM270.072 732.483C269.763 732.795 269.395 733.041 268.99 733.209C268.584 733.377 268.15 733.463 267.711 733.462H254.334C253.442 733.462 252.604 733.114 251.973 732.483C251.662 732.174 251.415 731.805 251.247 731.399C251.079 730.993 250.993 730.558 250.994 730.119C250.994 729.364 251.239 728.655 251.7 728.062C252.152 727.488 252.777 727.075 253.482 726.884L254.504 726.617L254.879 725.631C255.111 725.016 255.434 724.442 255.841 723.922C256.243 723.406 256.719 722.953 257.254 722.576C258.362 721.797 259.667 721.385 261.028 721.385C262.389 721.385 263.694 721.797 264.802 722.576C265.339 722.954 265.813 723.407 266.215 723.922C266.622 724.442 266.945 725.019 267.177 725.631L267.549 726.615L268.568 726.884C270.032 727.275 271.051 728.604 271.051 730.119C271.051 731.012 270.703 731.853 270.072 732.483Z" fill="#454545"/>
<path d="M254.194 747.465H252.896V756.004H254.194V747.465ZM262.417 751.734C262.417 749.004 260.777 747.347 258.572 747.347C256.349 747.347 254.715 749.004 254.715 751.734C254.715 754.459 256.349 756.122 258.572 756.122C260.777 756.122 262.417 754.465 262.417 751.734ZM256.001 751.734C256.007 749.659 257.098 748.532 258.572 748.538C260.034 748.532 261.125 749.659 261.131 751.734C261.125 753.81 260.034 754.937 258.572 754.931C257.098 754.937 256.007 753.81 256.001 751.734ZM262.16 748.585H264.826V756.004H266.123V748.585H268.777V747.465H262.16V748.585Z" fill="#454545"/>
</g>
<path d="M325.941 729.569C325.372 729.569 324.827 729.343 324.425 728.941C324.023 728.539 323.797 727.994 323.797 727.425C323.797 726.857 324.023 726.311 324.425 725.909C324.827 725.507 325.372 725.281 325.941 725.281C326.509 725.281 327.055 725.507 327.457 725.909C327.859 726.311 328.085 726.857 328.085 727.425C328.085 727.994 327.859 728.539 327.457 728.941C327.055 729.343 326.509 729.569 325.941 729.569ZM333.087 729.569C332.518 729.569 331.973 729.343 331.571 728.941C331.169 728.539 330.943 727.994 330.943 727.425C330.943 726.857 331.169 726.311 331.571 725.909C331.973 725.507 332.518 725.281 333.087 725.281C333.656 725.281 334.201 725.507 334.603 725.909C335.005 726.311 335.231 726.857 335.231 727.425C335.231 727.994 335.005 728.539 334.603 728.941C334.201 729.343 333.656 729.569 333.087 729.569ZM340.233 729.569C339.665 729.569 339.12 729.343 338.717 728.941C338.315 728.539 338.09 727.994 338.09 727.425C338.09 726.857 338.315 726.311 338.717 725.909C339.12 725.507 339.665 725.281 340.233 725.281C340.802 725.281 341.347 725.507 341.749 725.909C342.151 726.311 342.377 726.857 342.377 727.425C342.377 727.994 342.151 728.539 341.749 728.941C341.347 729.343 340.802 729.569 340.233 729.569Z" fill="#454545"/>
<path d="M323.845 745.847H318.998V752.865H319.835C321.829 752.865 323.114 752.8 324.636 752.511L324.506 751.591C323.114 751.857 321.905 751.921 320.13 751.933V746.779H323.845V745.847ZM323.244 749.574H326.181V755.46H327.301V744.868H326.181V748.643H323.244V749.574ZM337.659 753.195H333.354V751.025H336.515V745.588H335.406V747.404H330.217V745.588H329.097V751.025H332.246V753.195H327.988V754.127H337.659V753.195ZM330.217 750.117V748.312H335.406V750.117H330.217ZM346.283 744.868H345.151V755.436H346.283V744.868ZM337.603 752.605L338.193 753.514C341.819 751.774 343.134 749.097 343.134 746.001H338.11V746.897H342.002C341.784 749.362 340.41 751.267 337.603 752.605Z" fill="#454545"/>
<path d="M15.5 694.909H348.09V693.051H15.5V694.909Z" fill="#454545" mask="url(#path-44-inside-1_1203_21504)"/>
<path d="M23.2866 176.6H17.4403V178.266H21.2453C21.1963 178.878 21.1146 179.458 20.9758 180.013L16.7054 180.242L16.934 182.006L20.3961 181.655C19.6939 183.092 18.5099 184.325 16.6238 185.419L17.7832 186.84C20.0532 185.541 21.4413 183.998 22.2496 182.234H24.4461V189.142H26.3894V175.261H24.4461V180.552H22.8457C23.1641 179.319 23.2866 178.005 23.2866 176.6ZM27.5978 189.795H29.5575V174.935H27.5978V189.795ZM33.9341 175.996H31.8764V183.524H39.1271V175.996H37.0532V178.135H33.9341V175.996ZM33.5748 189.534H43.912V187.868H35.6651V184.766H33.5748V189.534ZM33.9341 181.891V179.719H37.0532V181.891H33.9341ZM41.4787 185.86H43.569V174.951H41.4787V185.86ZM58.3481 174.951H56.3721V178.266H55.082V175.18H53.1387V183.116H55.082V179.899H56.3721V183.198H58.3481V174.951ZM46.1656 177.335H49.8236V178.413H46.1819V182.773H47.2107C49.4153 182.773 50.8769 182.716 52.6161 182.414L52.4365 180.748C51.0321 181.026 49.8154 181.083 48.1906 181.099V179.932H51.8322V175.702H46.1656V177.335ZM48.1906 189.632H58.3481V183.802H56.2905V185.06H50.2482V183.802H48.1906V189.632ZM50.2482 187.966V186.676H56.2905V187.966H50.2482ZM72.4576 174.935H70.3837V183.28H72.4576V174.935ZM60.8793 182.545H62.1694C64.8395 182.545 67.0604 182.365 69.3712 181.875L69.1262 180.193C67.1257 180.618 65.2232 180.781 62.9696 180.805V175.784H60.8793V182.545ZM62.5287 189.616H72.4576V183.884H62.5287V189.616ZM64.57 187.983V185.517H70.4163V187.983H64.57ZM86.8774 176.225H79.643V177.303H85.6118C85.5955 178.225 85.5628 179.458 85.2117 181.189L86.5018 181.287C86.8693 179.393 86.8693 177.948 86.8774 176.992V176.225ZM78.7449 182.643L78.8755 183.704C81.4639 183.696 84.9586 183.639 88.0042 183.116L87.9226 182.169C86.412 182.381 84.7463 182.496 83.1378 182.561V179.442H81.864V182.602C80.7453 182.634 79.6839 182.643 78.7449 182.643ZM80.9821 189.305H90.6824V188.228H82.2722V185.043H80.9821V189.305ZM88.9024 186.023H90.2088V180.928H92.3318V179.834H90.2088V175.098H88.9024V186.023ZM105.266 175.098H103.992V189.648H105.266V175.098ZM94.0955 177.515H99.5662V180.569H94.1282V186.121H95.3366C97.8433 186.121 100.048 186.015 102.718 185.598L102.587 184.521C99.9908 184.937 97.8433 185.051 95.4346 185.043V181.614H100.856V176.453H94.0955V177.515ZM119.702 175.098H118.412V189.648H119.702V175.098ZM108.581 186.137H115.439V176.339H114.182V180.177H109.854V176.339H108.581V186.137ZM109.854 185.06V181.206H114.182V185.06H109.854ZM137.731 175.049H136.457V183.084H137.731V179.638H139.935V178.576H137.731V175.049ZM126.413 177.45H135.069V176.421H131.378V174.951H130.104V176.421H126.413V177.45ZM127.246 180.487C127.238 181.965 128.626 182.863 130.741 182.871C132.848 182.863 134.219 181.965 134.236 180.487C134.219 179.017 132.848 178.111 130.741 178.103C128.626 178.111 127.238 179.017 127.246 180.487ZM128.471 184.798H136.457V186.105H128.504V189.452H138.269V188.473H129.761V187.052H137.731V183.835H128.471V184.798ZM128.471 180.487C128.463 179.621 129.361 179.058 130.741 179.05C132.113 179.058 133.011 179.621 133.027 180.487C133.011 181.361 132.113 181.908 130.741 181.908C129.361 181.908 128.463 181.361 128.471 180.487ZM152.82 175.114H151.546V185.729H152.82V175.114ZM141.176 179.687C141.168 181.802 142.809 183.271 144.981 183.263C147.153 183.271 148.778 181.802 148.786 179.687C148.778 177.597 147.153 176.135 144.981 176.127C142.809 176.135 141.168 177.597 141.176 179.687ZM142.434 179.687C142.417 178.266 143.511 177.254 144.981 177.254C146.426 177.254 147.529 178.266 147.529 179.687C147.529 181.132 146.426 182.136 144.981 182.136C143.511 182.136 142.417 181.132 142.434 179.687ZM143.446 189.305H153.277V188.228H144.72V184.651H143.446V189.305Z" fill="#454545"/>
<path d="M302.741 176.47H300.422L297.499 178.331V180.503L300.21 178.805H300.275V188.293H302.741V176.47ZM309.828 188.456C312.49 188.456 314.303 186.75 314.303 184.357C314.303 182.087 312.686 180.463 310.514 180.471C309.477 180.463 308.579 180.887 308.146 181.467H308.048L308.375 178.478H313.633V176.47H306.35L305.713 183.28H307.934C308.285 182.618 308.905 182.283 309.795 182.283C311.037 182.292 311.927 183.165 311.918 184.423C311.927 185.656 311.053 186.521 309.828 186.513C308.799 186.521 307.958 185.884 307.901 184.962H305.517C305.558 187.003 307.362 188.456 309.828 188.456ZM320.557 188.456C323.513 188.456 325.309 186.268 325.309 182.381C325.309 178.519 323.505 176.306 320.557 176.306C317.61 176.306 315.805 178.519 315.805 182.381C315.805 186.252 317.593 188.456 320.557 188.456ZM318.32 182.381C318.32 179.679 319.194 178.323 320.557 178.315C321.921 178.323 322.803 179.679 322.795 182.381C322.803 185.109 321.929 186.431 320.557 186.431C319.186 186.431 318.304 185.109 318.32 182.381ZM331.597 188.456C334.552 188.456 336.349 186.268 336.349 182.381C336.349 178.519 334.544 176.306 331.597 176.306C328.649 176.306 326.845 178.519 326.845 182.381C326.845 186.252 328.633 188.456 331.597 188.456ZM329.359 182.381C329.359 179.679 330.233 178.323 331.597 178.315C332.96 178.323 333.842 179.679 333.834 182.381C333.842 185.109 332.968 186.431 331.597 186.431C330.225 186.431 329.343 185.109 329.359 182.381ZM338.113 188.293H340.562V184.439H342.685C345.412 184.439 346.98 182.814 346.98 180.454C346.98 178.127 345.437 176.47 342.75 176.47H338.113V188.293ZM340.562 182.463V178.478H342.293C343.747 178.487 344.457 179.279 344.449 180.454C344.457 181.646 343.747 182.463 342.293 182.463H340.562Z" fill="#3D9DFF"/>
<path d="M37.1538 229.297H36.1631V235.546H37.1538V232.866H38.8685V232.04H37.1538V229.297ZM28.3517 231.164H35.0835V230.364H32.2129V229.221H31.2222V230.364H28.3517V231.164ZM28.9995 233.526C28.9931 234.676 30.0727 235.374 31.7176 235.381C33.3561 235.374 34.423 234.676 34.4357 233.526C34.423 232.383 33.3561 231.678 31.7176 231.672C30.0727 231.678 28.9931 232.383 28.9995 233.526ZM29.9521 236.88H36.1631V237.896H29.9775V240.499H37.573V239.737H30.9555V238.632H37.1538V236.13H29.9521V236.88ZM29.9521 233.526C29.9457 232.853 30.6443 232.415 31.7176 232.409C32.7845 232.415 33.4831 232.853 33.4958 233.526C33.4831 234.206 32.7845 234.631 31.7176 234.631C30.6443 234.631 29.9457 234.206 29.9521 233.526ZM48.89 229.348H47.8992V237.604H48.89V229.348ZM39.8338 232.904C39.8275 234.549 41.104 235.692 42.7933 235.686C44.4826 235.692 45.7463 234.549 45.7527 232.904C45.7463 231.278 44.4826 230.141 42.7933 230.135C41.104 230.141 39.8275 231.278 39.8338 232.904ZM40.8118 232.904C40.7991 231.799 41.6501 231.011 42.7933 231.011C43.9173 231.011 44.7747 231.799 44.7747 232.904C44.7747 234.028 43.9173 234.809 42.7933 234.809C41.6501 234.809 40.7991 234.028 40.8118 232.904ZM41.5993 240.385H49.2456V239.547H42.59V236.765H41.5993V240.385ZM59.6354 229.297H58.6447V235.546H59.6354V232.866H61.3501V232.04H59.6354V229.297ZM50.8333 231.164H57.5651V230.364H54.6945V229.221H53.7038V230.364H50.8333V231.164ZM51.4811 233.526C51.4747 234.676 52.5543 235.374 54.1992 235.381C55.8377 235.374 56.9046 234.676 56.9173 233.526C56.9046 232.383 55.8377 231.678 54.1992 231.672C52.5543 231.678 51.4747 232.383 51.4811 233.526ZM52.4337 236.88H58.6447V237.896H52.4591V240.499H60.0546V239.737H53.4371V238.632H59.6354V236.13H52.4337V236.88ZM52.4337 233.526C52.4273 232.853 53.1259 232.415 54.1992 232.409C55.2661 232.415 55.9647 232.853 55.9774 233.526C55.9647 234.206 55.2661 234.631 54.1992 234.631C53.1259 234.631 52.4273 234.206 52.4337 233.526ZM74.2929 229.945H66.6212V230.77H73.3022V230.783C73.3085 231.659 73.3085 232.675 72.991 234.098H65.313V234.924H75.652V234.098H73.9944C74.2929 232.688 74.2929 231.659 74.2929 230.783V229.945ZM66.5831 240.474H74.3437V236.486H66.5831V240.474ZM67.5738 239.661V237.273H73.353V239.661H67.5738ZM79.2592 230.046C77.7477 230.052 76.6744 231.145 76.6808 232.713C76.6744 234.288 77.7477 235.355 79.2592 235.355C80.7516 235.355 81.8439 234.288 81.8503 232.713C81.8439 231.145 80.7516 230.052 79.2592 230.046ZM77.5826 232.713C77.5699 231.666 78.2875 230.91 79.2592 230.91C80.2181 230.91 80.9294 231.666 80.9358 232.713C80.9294 233.761 80.2181 234.523 79.2592 234.517C78.2875 234.523 77.5699 233.761 77.5826 232.713ZM78.5352 237.502H85.1654V240.626H86.1434V236.702H78.5352V237.502ZM82.7521 235.99H83.692V233.082H85.1908V236.067H86.1434V229.348H85.1908V232.256H83.692V229.563H82.7521V235.99ZM92.9387 229.538C90.4174 229.538 88.9377 230.23 88.9377 231.481C88.9377 232.764 90.4174 233.456 92.9387 233.463C95.4472 233.456 96.9206 232.764 96.9269 231.481C96.9206 230.23 95.4472 229.538 92.9387 229.538ZM87.7946 235.038H98.0828V234.225H87.7946V235.038ZM89.0393 236.778H95.7838V237.807H89.0647V240.499H97.1048V239.712H90.0554V238.543H96.7618V236.016H89.0393V236.778ZM89.9792 231.481C89.9665 230.738 91.0652 230.294 92.9387 230.287C94.8121 230.294 95.9045 230.738 95.9108 231.481C95.9045 232.269 94.8121 232.701 92.9387 232.701C91.0652 232.701 89.9665 232.269 89.9792 231.481ZM106.161 231.469V230.033H105.183V231.431C105.177 233.164 104.008 234.746 102.312 235.368L102.846 236.181C104.179 235.647 105.208 234.568 105.685 233.202C106.167 234.435 107.158 235.413 108.396 235.902L108.955 235.127C107.304 234.53 106.161 233.044 106.161 231.469ZM104.357 240.385H111.915V239.547H105.361V236.841H104.357V240.385ZM108.142 232.84H110.657V237.807H111.661V229.348H110.657V232.002H108.142V232.84ZM118.431 230.16H114.049V235.597H114.76C116.595 235.59 117.662 235.54 118.989 235.279L118.888 234.454C117.675 234.689 116.646 234.752 115.001 234.758V233.196H118.304V232.409H115.001V230.999H118.431V230.16ZM115.522 237.591H122.152V240.626H123.13V236.778H115.522V237.591ZM119.663 236.117H120.59V233.107H122.177V236.194H123.13V229.348H122.177V232.294H120.59V229.563H119.663V236.117ZM130.421 231.291H128.096V229.678H127.106V231.291H124.756V232.104H130.421V231.291ZM125.162 235.432C125.162 236.949 126.185 238.016 127.588 238.023C129.011 238.016 130.027 236.949 130.04 235.432C130.027 233.933 129.011 232.872 127.588 232.866C126.185 232.872 125.162 233.933 125.162 235.432ZM126.051 235.432C126.051 234.441 126.693 233.717 127.588 233.704C128.49 233.717 129.151 234.441 129.151 235.432C129.151 236.435 128.49 237.153 127.588 237.146C126.693 237.153 126.051 236.435 126.051 235.432ZM131.005 240.068H131.945V234.924H133.444V240.626H134.396V229.335H133.444V234.098H131.945V229.614H131.005V240.068ZM141.725 230.935V230.859H145.332V230.046H136.987V230.859H140.607V230.935C140.601 232.447 138.594 233.73 136.632 234.022L137.025 234.809C138.759 234.511 140.48 233.571 141.166 232.212C141.852 233.571 143.573 234.511 145.332 234.809L145.701 234.022C143.732 233.73 141.719 232.447 141.725 230.935ZM136.022 236.6H140.658V240.626H141.636V236.6H146.31V235.775H136.022V236.6ZM150.616 232.548V230.402H149.651V232.586C149.651 234.523 148.698 236.524 147.136 237.438L147.771 238.188C148.901 237.502 149.74 236.206 150.152 234.701C150.546 236.079 151.327 237.286 152.42 237.946L152.991 237.172C151.492 236.283 150.616 234.346 150.616 232.548ZM151.746 234.238H153.664V240.055H154.604V229.576H153.664V233.387H151.746V234.238ZM155.976 240.626H156.941V229.335H155.976V240.626ZM168.843 238.34H166.277V235.266C167.211 234.765 167.776 233.965 167.776 232.955C167.776 231.208 166.061 230.059 163.648 230.046C161.234 230.059 159.52 231.208 159.52 232.955C159.52 233.984 160.104 234.796 161.069 235.298V238.34H158.504V239.179H168.843V238.34ZM160.485 232.955C160.479 231.691 161.793 230.859 163.648 230.872C165.483 230.859 166.81 231.691 166.81 232.955C166.81 234.219 165.483 235.063 163.648 235.063C161.793 235.063 160.479 234.219 160.485 232.955ZM162.047 238.34V235.66C162.53 235.787 163.07 235.851 163.648 235.851C164.238 235.851 164.785 235.781 165.274 235.654V238.34H162.047Z" fill="#454545"/>
<path d="M333.225 232.112L328.582 236.638L323.939 232.112C323.856 232.031 323.745 231.985 323.629 231.985C323.513 231.985 323.401 232.031 323.318 232.112C323.278 232.151 323.246 232.198 323.224 232.25C323.203 232.302 323.191 232.357 323.191 232.414C323.191 232.47 323.203 232.526 323.224 232.577C323.246 232.629 323.278 232.676 323.318 232.716L328.258 237.532C328.345 237.616 328.461 237.663 328.582 237.663C328.703 237.663 328.82 237.616 328.906 237.532L333.846 232.716C333.886 232.677 333.919 232.63 333.941 232.578C333.962 232.526 333.974 232.47 333.974 232.414C333.974 232.357 333.962 232.301 333.941 232.249C333.919 232.197 333.886 232.15 333.846 232.111C333.763 232.03 333.652 231.984 333.536 231.984C333.42 231.984 333.308 232.03 333.225 232.111V232.112Z" fill="#454545"/>
<rect x="16.8942" y="218.34" width="329.803" height="32.5158" stroke="#E0E0E0" stroke-width="0.929022"/>
<rect x="16.4297" y="262.469" width="330.732" height="37.1483" rx="3.71609" fill="#3D9DFF"/>
<path d="M170.222 275.628H168.596V281.89H170.222V279.438H171.784V278.143H170.222V275.628ZM161.052 277.749H167.911V276.517H165.294V275.577H163.681V276.517H161.052V277.749ZM161.611 279.921C161.611 281.102 162.76 281.807 164.481 281.813C166.215 281.807 167.326 281.102 167.326 279.921C167.326 278.765 166.215 278.035 164.481 278.028C162.76 278.035 161.611 278.765 161.611 279.921ZM162.551 283.528H168.609V284.176H162.576V287.135H170.552V285.941H164.164V285.281H170.222V282.36H162.551V283.528ZM163.198 279.921C163.192 279.432 163.681 279.165 164.481 279.171C165.288 279.165 165.789 279.432 165.789 279.921C165.789 280.416 165.288 280.651 164.481 280.658C163.681 280.651 163.192 280.416 163.198 279.921ZM181.042 275.666H179.416V283.973H181.042V275.666ZM171.541 279.311C171.541 281.032 172.926 282.245 174.704 282.245C176.476 282.245 177.86 281.032 177.867 279.311C177.86 277.616 176.476 276.396 174.704 276.403C172.926 276.396 171.541 277.616 171.541 279.311ZM173.129 279.311C173.116 278.371 173.796 277.806 174.704 277.812C175.58 277.806 176.26 278.371 176.266 279.311C176.26 280.276 175.58 280.835 174.704 280.835C173.796 280.835 173.116 280.276 173.129 279.311ZM173.294 287.008H181.347V285.713H174.933V283.134H173.294V287.008ZM190.795 275.653H189.195V287.212H190.795V281.509H192.497V280.175H190.795V275.653ZM181.612 278.676H188.407V277.381H185.854V275.831H184.228V277.381H181.612V278.676ZM182.082 282.08C182.075 283.693 183.333 284.83 185.041 284.836C186.724 284.83 187.988 283.693 187.988 282.08C187.988 280.467 186.724 279.318 185.041 279.324C183.333 279.318 182.075 280.467 182.082 282.08ZM183.631 282.08C183.631 281.191 184.222 280.645 185.041 280.632C185.848 280.645 186.438 281.191 186.438 282.08C186.438 282.976 185.848 283.509 185.041 283.503C184.222 283.509 183.631 282.976 183.631 282.08ZM201.704 275.653H200.065V287.212H201.704V275.653ZM192.025 283.935L192.876 285.23C197.004 283.28 198.23 280.365 198.236 276.86H192.648V278.13H196.585C196.325 280.696 195.01 282.525 192.025 283.935Z" fill="white"/>
<rect x="0.636719" y="333.059" width="362.319" height="7.43218" fill="#E0E0E0"/>
<path d="M26.2988 376.56H24.889V382.822H26.2988V380.295H27.9119V379.151H26.2988V376.56ZM17.2554 378.593H24.0634V377.513H21.3706V376.497H19.9608V377.513H17.2554V378.593ZM17.8396 380.828C17.8396 382.003 18.9637 382.708 20.6594 382.708C22.3614 382.708 23.46 382.003 23.4664 380.828C23.46 379.685 22.3614 378.955 20.6594 378.948C18.9637 378.955 17.8396 379.685 17.8396 380.828ZM18.7922 384.359H24.889V385.121H18.8049V387.966H26.6545V386.912H20.2021V386.099H26.2988V383.33H18.7922V384.359ZM19.2114 380.828C19.205 380.282 19.7703 379.958 20.6594 379.964C21.5485 379.958 22.12 380.282 22.12 380.828C22.12 381.393 21.5485 381.685 20.6594 381.692C19.7703 381.685 19.205 381.393 19.2114 380.828ZM38.0477 376.599H36.6251V384.893H38.0477V376.599ZM28.6867 380.218C28.6867 381.914 30.0394 383.102 31.7859 383.102C33.5323 383.102 34.8787 381.914 34.8723 380.218C34.8787 378.548 33.5323 377.354 31.7859 377.348C30.0394 377.354 28.6867 378.548 28.6867 380.218ZM30.0712 380.218C30.0648 379.228 30.8015 378.58 31.7859 378.58C32.7448 378.58 33.4879 379.228 33.4879 380.218C33.4879 381.235 32.7448 381.87 31.7859 381.87C30.8015 381.87 30.0648 381.235 30.0712 380.218ZM30.4522 387.839H38.3652V386.696H31.8748V384.054H30.4522V387.839ZM55.7535 376.586H54.3945V381.108H53.1243V376.802H51.8034V387.484H53.1243V382.263H54.3945V388.068H55.7535V376.586ZM46.3925 385.21H47.1546C48.3676 385.21 49.6822 385.128 51.2318 384.854L51.0921 383.622C49.8855 383.857 48.8058 383.946 47.8151 383.965V377.907H46.3925V385.21ZM66.753 383.915H58.9289V385.032H65.3431V388.068H66.753V383.915ZM57.2904 380.002C57.2904 381.654 58.5923 382.822 60.3261 382.822C61.2787 382.822 62.1043 382.454 62.6504 381.844H65.3431V383.368H66.753V376.586H65.3431V378.173H62.6377C62.0979 377.57 61.2723 377.215 60.3261 377.221C58.5923 377.208 57.2904 378.377 57.2904 380.002ZM58.6368 380.002C58.6368 379.044 59.3417 378.408 60.3261 378.415C61.266 378.408 61.9836 379.044 61.99 380.002C61.9836 381 61.266 381.622 60.3261 381.628C59.3417 381.622 58.6368 381 58.6368 380.002ZM63.2474 380.701C63.3046 380.479 63.3363 380.244 63.3363 380.002C63.3363 379.768 63.3046 379.545 63.2538 379.329H65.3431V380.701H63.2474Z" fill="#454545"/>
<path d="M77.0922 377.794L81.6184 382.437L77.0922 387.081C77.0111 387.164 76.9658 387.275 76.9658 387.391C76.9658 387.507 77.0111 387.618 77.0922 387.701C77.1315 387.741 77.1785 387.773 77.2303 387.795C77.2822 387.817 77.3379 387.828 77.3941 387.828C77.4503 387.828 77.506 387.817 77.5579 387.795C77.6097 387.773 77.6567 387.741 77.696 387.701L82.5121 382.762C82.5966 382.675 82.644 382.559 82.644 382.437C82.644 382.316 82.5966 382.2 82.5121 382.113L77.697 377.174C77.6576 377.133 77.6105 377.101 77.5585 377.079C77.5064 377.057 77.4506 377.046 77.3941 377.046C77.3376 377.046 77.2818 377.057 77.2297 377.079C77.1777 377.101 77.1306 377.133 77.0912 377.174C77.0102 377.257 76.9648 377.368 76.9648 377.484C76.9648 377.6 77.0102 377.711 77.0912 377.794L77.0922 377.794Z" fill="#454545"/>
<path d="M31.5338 434.861C33.5723 434.861 34.7472 433.147 34.7472 430.136C34.7472 427.152 33.5533 425.411 31.5338 425.411C29.5079 425.411 28.3139 427.152 28.3203 430.136C28.3139 433.147 29.4952 434.861 31.5338 434.861ZM29.4253 430.136C29.4317 427.755 30.2128 426.409 31.5338 426.402C32.8547 426.409 33.6358 427.755 33.6295 430.136C33.6358 432.518 32.8611 433.845 31.5338 433.845C30.2001 433.845 29.4317 432.518 29.4253 430.136ZM39.3325 425.411C37.3764 425.392 36.119 426.783 36.119 428.498C36.119 430.27 37.4844 431.534 39.1292 431.534C40.1072 431.534 40.9519 431.076 41.479 430.314H41.606C41.5933 432.55 40.6788 433.845 39.18 433.845C38.1576 433.845 37.5288 433.236 37.3256 432.41H36.1952C36.4238 433.871 37.5606 434.861 39.18 434.861C41.3329 434.861 42.6729 433.039 42.6729 429.768C42.6729 426.383 40.9138 425.431 39.3325 425.411ZM37.2367 428.485C37.224 427.348 38.1322 426.415 39.3325 426.415C40.5454 426.415 41.4282 427.406 41.4282 428.46C41.4282 429.539 40.4946 430.53 39.2944 430.53C38.0941 430.53 37.2304 429.622 37.2367 428.485ZM44.7052 434.811C45.1561 434.804 45.5244 434.436 45.5181 433.985C45.5244 433.54 45.1561 433.172 44.7052 433.172C44.2606 433.172 43.8796 433.54 43.8923 433.985C43.8796 434.436 44.2606 434.804 44.7052 434.811ZM49.9001 434.861C51.9387 434.861 53.1136 433.147 53.1136 430.136C53.1136 427.152 51.9196 425.411 49.9001 425.411C47.8742 425.411 46.6803 427.152 46.6866 430.136C46.6803 433.147 47.8615 434.861 49.9001 434.861ZM47.7916 430.136C47.798 427.755 48.5791 426.409 49.9001 426.402C51.221 426.409 52.0022 427.755 51.9958 430.136C52.0022 432.518 51.2274 433.845 49.9001 433.845C48.5664 433.845 47.798 432.518 47.7916 430.136ZM57.6988 425.411C55.7428 425.392 54.4853 426.783 54.4853 428.498C54.4853 430.27 55.8507 431.534 57.4956 431.534C58.4736 431.534 59.3182 431.076 59.8453 430.314H59.9724C59.9597 432.55 59.0451 433.845 57.5464 433.845C56.5239 433.845 55.8952 433.236 55.692 432.41H54.5615C54.7902 433.871 55.9269 434.861 57.5464 434.861C59.6993 434.861 61.0393 433.039 61.0393 429.768C61.0393 426.383 59.2801 425.431 57.6988 425.411ZM55.603 428.485C55.5903 427.348 56.4985 426.415 57.6988 426.415C58.9118 426.415 59.7945 427.406 59.7945 428.46C59.7945 429.539 58.861 430.53 57.6607 430.53C56.4604 430.53 55.5967 429.622 55.603 428.485ZM74.795 424.484H73.8043V432.766H74.795V424.484ZM65.5864 430.352L66.1326 431.127C67.4535 430.6 68.4823 429.489 68.9713 428.104C69.4731 429.406 70.4892 430.422 71.7974 430.924L72.3182 430.124C70.6352 429.514 69.4604 427.971 69.4731 426.25V425.119H68.4569V426.25C68.4569 428.034 67.2948 429.686 65.5864 430.352ZM67.5043 435.522H75.1506V434.684H68.495V432.004H67.5043V435.522ZM80.5614 426.898V426.656H83.1144V425.856H80.5868V424.421H79.5834V425.856H77.0304V426.656H79.5834V426.898C79.5771 428.428 78.4085 429.806 76.751 430.365L77.2337 431.127C78.58 430.683 79.6152 429.711 80.0978 428.479C80.6122 429.59 81.6538 430.441 82.962 430.835L83.4447 430.06C81.7808 429.571 80.5678 428.301 80.5614 426.898ZM78.5419 433.68C78.5356 434.988 79.9772 435.738 82.3269 435.738C84.6704 435.738 86.112 434.988 86.112 433.68C86.112 432.366 84.6704 431.616 82.3269 431.623C79.9772 431.616 78.5356 432.366 78.5419 433.68ZM79.5326 433.68C79.5263 432.874 80.5932 432.41 82.3269 432.397C84.0607 432.41 85.1213 432.874 85.1213 433.68C85.1213 434.468 84.0607 434.95 82.3269 434.95C80.5932 434.95 79.5263 434.468 79.5326 433.68ZM82.7588 428.536H85.0705V431.318H86.0739V424.472H85.0705V427.71H82.7588V428.536Z" fill="#454545"/>
<path d="M260.514 423.411H258.195L255.272 425.273V427.445L257.982 425.746H258.048V435.234H260.514V423.411ZM263.061 433.144H268.809V435.234H271.145V433.144H272.647V431.168H271.145V423.411H268.058L263.061 431.201V433.144ZM265.543 431.168V431.07L268.728 426.106H268.842V431.168H265.543ZM278.624 435.398C281.294 435.398 283.213 433.944 283.197 431.919C283.213 430.441 282.258 429.388 280.518 429.176V429.078C281.841 428.841 282.764 427.902 282.756 426.579C282.764 424.709 281.123 423.248 278.657 423.248C276.232 423.248 274.403 424.66 274.362 426.694H276.713C276.754 425.787 277.612 425.199 278.657 425.207C279.702 425.199 280.396 425.82 280.388 426.726C280.396 427.657 279.579 428.294 278.412 428.294H277.318V430.107H278.412C279.8 430.115 280.657 430.792 280.649 431.756C280.657 432.711 279.816 433.365 278.64 433.373C277.497 433.365 276.64 432.785 276.599 431.903H274.117C274.166 433.969 276.028 435.398 278.624 435.398ZM287.23 434.026H284.911L284.095 438.68H285.826L287.23 434.026ZM293.485 435.398C296.441 435.398 298.237 433.209 298.237 429.323C298.237 425.461 296.432 423.248 293.485 423.248C290.537 423.248 288.733 425.461 288.733 429.323C288.733 433.193 290.521 435.398 293.485 435.398ZM291.248 429.323C291.248 426.62 292.121 425.265 293.485 425.256C294.848 425.265 295.73 426.62 295.722 429.323C295.73 432.05 294.857 433.373 293.485 433.373C292.113 433.373 291.231 432.05 291.248 429.323ZM304.524 435.398C307.48 435.398 309.276 433.209 309.276 429.323C309.276 425.461 307.472 423.248 304.524 423.248C301.577 423.248 299.772 425.461 299.772 429.323C299.772 433.193 301.56 435.398 304.524 435.398ZM302.287 429.323C302.287 426.62 303.161 425.265 304.524 425.256C305.888 425.265 306.77 426.62 306.761 429.323C306.77 432.05 305.896 433.373 304.524 433.373C303.152 433.373 302.271 432.05 302.287 429.323ZM315.564 435.398C318.519 435.398 320.316 433.209 320.316 429.323C320.316 425.461 318.511 423.248 315.564 423.248C312.616 423.248 310.811 425.461 310.811 429.323C310.811 433.193 312.6 435.398 315.564 435.398ZM313.326 429.323C313.326 426.62 314.2 425.265 315.564 425.256C316.927 425.265 317.809 426.62 317.801 429.323C317.809 432.05 316.935 433.373 315.564 433.373C314.192 433.373 313.31 432.05 313.326 429.323ZM334.115 421.892H332.025V430.515H329.183V431.936H332.025V433.111H334.115V421.892ZM321.475 428.474L321.72 430.123C322.847 430.123 324.113 430.115 325.444 430.066V432.034H323.37V436.475H334.442V434.81H325.444V432.768H327.534V429.943C328.734 429.853 329.951 429.715 331.127 429.519L331.012 428.033C327.869 428.416 324.194 428.457 321.475 428.474ZM322.569 425.06C322.569 426.653 324.096 427.682 326.309 427.673C328.465 427.682 330.008 426.653 330.016 425.06C330.008 423.476 328.465 422.39 326.309 422.399C324.096 422.39 322.569 423.476 322.569 425.06ZM324.545 425.06C324.537 424.326 325.248 423.917 326.309 423.917C327.305 423.917 328.024 424.326 328.04 425.06C328.024 425.779 327.305 426.179 326.309 426.171C325.248 426.179 324.537 425.779 324.545 425.06Z" fill="#454545"/>
<path d="M295.849 463.52H291.823V464.524H295.849V463.52ZM299.582 468.08C301.417 468.08 302.751 466.797 302.757 465.019C302.751 463.228 301.462 461.933 299.709 461.933C299.061 461.933 298.445 462.149 298.032 462.466H297.943L298.286 459.773H302.313V458.757H297.334L296.686 463.787H297.791C298.128 463.19 298.731 462.949 299.506 462.961C300.744 462.968 301.639 463.851 301.639 465.044C301.639 466.2 300.776 467.07 299.582 467.077C298.585 467.07 297.785 466.461 297.702 465.641H296.597C296.667 467.058 297.924 468.08 299.582 468.08ZM304.521 467.102H303.289L302.59 470.557H303.53L304.521 467.102ZM308.177 468.08C310.216 468.08 311.391 466.365 311.391 463.355C311.391 460.37 310.197 458.63 308.177 458.63C306.151 458.63 304.957 460.37 304.964 463.355C304.957 466.365 306.139 468.08 308.177 468.08ZM306.069 463.355C306.075 460.974 306.856 459.627 308.177 459.621C309.498 459.627 310.279 460.974 310.273 463.355C310.279 465.737 309.504 467.064 308.177 467.064C306.843 467.064 306.075 465.737 306.069 463.355ZM314.996 468.08C317.035 468.08 318.209 466.365 318.209 463.355C318.209 460.37 317.016 458.63 314.996 458.63C312.97 458.63 311.776 460.37 311.783 463.355C311.776 466.365 312.957 468.08 314.996 468.08ZM312.888 463.355C312.894 460.974 313.675 459.627 314.996 459.621C316.317 459.627 317.098 460.974 317.092 463.355C317.098 465.737 316.323 467.064 314.996 467.064C313.662 467.064 312.894 465.737 312.888 463.355ZM321.815 468.08C323.853 468.08 325.028 466.365 325.028 463.355C325.028 460.37 323.834 458.63 321.815 458.63C319.789 458.63 318.595 460.37 318.601 463.355C318.595 466.365 319.776 468.08 321.815 468.08ZM319.706 463.355C319.713 460.974 320.494 459.627 321.815 459.621C323.136 459.627 323.917 460.974 323.911 463.355C323.917 465.737 323.142 467.064 321.815 467.064C320.481 467.064 319.713 465.737 319.706 463.355ZM334.527 457.703H333.524V464.384H331.187V465.108H333.524V466.277H334.527V457.703ZM325.154 462.936L325.293 463.749C326.24 463.749 327.325 463.749 328.469 463.704V465.883H329.472V463.654C330.507 463.59 331.568 463.489 332.571 463.33L332.508 462.606C330.088 462.904 327.256 462.923 325.154 462.936ZM326.068 460.129C326.062 461.336 327.192 462.085 328.862 462.085C330.52 462.085 331.65 461.336 331.657 460.129C331.65 458.941 330.52 458.16 328.862 458.16C327.192 458.16 326.062 458.941 326.068 460.129ZM326.779 468.741H334.807V467.902H327.783V465.438H326.779V468.741ZM327.021 460.129C327.008 459.405 327.757 458.91 328.862 458.922C329.936 458.91 330.698 459.405 330.704 460.129C330.698 460.866 329.936 461.342 328.862 461.348C327.757 461.342 327.008 460.866 327.021 460.129Z" fill="#3D9DFF"/>
<path d="M347.162 478.739H16.4297V480.597H347.162V478.739Z" fill="#E0E0E0" mask="url(#path-68-inside-2_1203_21504)"/>
<path d="M31.5338 505.01C33.5723 505.01 34.7472 503.295 34.7472 500.285C34.7472 497.3 33.5533 495.56 31.5338 495.56C29.5079 495.56 28.3139 497.3 28.3203 500.285C28.3139 503.295 29.4952 505.01 31.5338 505.01ZM29.4253 500.285C29.4317 497.903 30.2128 496.557 31.5338 496.551C32.8547 496.557 33.6358 497.903 33.6295 500.285C33.6358 502.666 32.8611 503.994 31.5338 503.994C30.2001 503.994 29.4317 502.666 29.4253 500.285ZM39.3452 505.01C41.2631 505.01 42.6094 503.937 42.6221 502.444C42.6094 501.257 41.7838 500.272 40.7423 500.107V500.056C41.6441 499.847 42.2538 499.002 42.2665 497.999C42.2538 496.595 41.0218 495.56 39.3452 495.56C37.6622 495.56 36.4302 496.595 36.4365 497.999C36.4302 499.002 37.0335 499.847 37.948 500.056V500.107C36.9001 500.272 36.0745 501.257 36.0809 502.444C36.0745 503.937 37.4082 505.01 39.3452 505.01ZM37.224 502.381C37.205 501.365 38.1131 500.615 39.3452 500.615C40.5836 500.615 41.479 501.365 41.479 502.381C41.479 503.346 40.6598 504 39.3452 504.006C38.0242 504 37.205 503.346 37.224 502.381ZM37.5416 498.088C37.5479 497.167 38.2528 496.544 39.3452 496.551C40.4184 496.544 41.1488 497.167 41.1488 498.088C41.1488 499.015 40.393 499.643 39.3452 499.65C38.2909 499.643 37.5479 499.015 37.5416 498.088ZM44.6544 504.959C45.1053 504.953 45.4736 504.584 45.4673 504.133C45.4736 503.689 45.1053 503.321 44.6544 503.321C44.2098 503.321 43.8288 503.689 43.8415 504.133C43.8288 504.584 44.2098 504.953 44.6544 504.959ZM49.8493 505.01C51.8879 505.01 53.0628 503.295 53.0628 500.285C53.0628 497.3 51.8688 495.56 49.8493 495.56C47.8234 495.56 46.6295 497.3 46.6358 500.285C46.6295 503.295 47.8107 505.01 49.8493 505.01ZM47.7408 500.285C47.7472 497.903 48.5283 496.557 49.8493 496.551C51.1702 496.557 51.9514 497.903 51.945 500.285C51.9514 502.666 51.1766 503.994 49.8493 503.994C48.5156 503.994 47.7472 502.666 47.7408 500.285ZM57.7623 505.01C59.5977 505.01 60.9694 503.892 60.9631 502.381C60.9694 501.212 60.2454 500.355 59.0451 500.171V500.107C60.0105 499.834 60.6201 499.072 60.6074 498.024C60.6201 496.709 59.5532 495.56 57.8004 495.56C56.1683 495.56 54.8092 496.538 54.752 497.999H55.8571C55.9079 497.097 56.8033 496.557 57.7877 496.551C58.8356 496.557 59.5087 497.167 59.5024 498.088C59.5087 499.034 58.7276 499.663 57.6099 499.663H56.8605V500.666H57.6099C59.0388 500.672 59.839 501.377 59.8453 502.381C59.839 503.34 58.9626 503.994 57.7496 503.994C56.6509 503.994 55.7809 503.448 55.7174 502.571H54.5615C54.6187 504.032 55.9333 505.01 57.7623 505.01ZM74.795 494.633H73.8043V502.914H74.795V494.633ZM65.5864 500.501L66.1326 501.276C67.4535 500.748 68.4823 499.637 68.9713 498.253C69.4731 499.555 70.4892 500.571 71.7974 501.072L72.3182 500.272C70.6352 499.663 69.4604 498.119 69.4731 496.398V495.268H68.4569V496.398C68.4569 498.183 67.2948 499.834 65.5864 500.501ZM67.5043 505.67H75.1506V504.832H68.495V502.152H67.5043V505.67ZM80.5614 497.046V496.805H83.1144V496.004H80.5868V494.569H79.5834V496.004H77.0304V496.805H79.5834V497.046C79.5771 498.577 78.4085 499.955 76.751 500.514L77.2337 501.276C78.58 500.831 79.6152 499.859 80.0978 498.627C80.6122 499.739 81.6538 500.59 82.962 500.983L83.4447 500.209C81.7808 499.72 80.5678 498.45 80.5614 497.046ZM78.5419 503.829C78.5356 505.137 79.9772 505.886 82.3269 505.886C84.6704 505.886 86.112 505.137 86.112 503.829C86.112 502.514 84.6704 501.765 82.3269 501.771C79.9772 501.765 78.5356 502.514 78.5419 503.829ZM79.5326 503.829C79.5263 503.022 80.5932 502.558 82.3269 502.546C84.0607 502.558 85.1213 503.022 85.1213 503.829C85.1213 504.616 84.0607 505.099 82.3269 505.099C80.5932 505.099 79.5263 504.616 79.5326 503.829ZM82.7588 498.684H85.0705V501.466H86.0739V494.62H85.0705V497.859H82.7588V498.684Z" fill="#454545"/>
<path d="M264.285 493.56H261.967L259.043 495.421V497.593L261.754 495.895H261.82V505.383H264.285V493.56ZM267.029 505.383H275.488V503.358H270.442V503.293L272.238 501.545C274.672 499.341 275.325 498.238 275.325 496.891C275.325 494.841 273.643 493.396 271.112 493.396C268.621 493.396 266.907 494.874 266.915 497.185H269.25C269.242 496.05 269.968 495.348 271.079 495.356C272.165 495.348 272.957 496.001 272.957 497.054C272.957 497.993 272.361 498.646 271.259 499.7L267.013 503.603L267.029 505.383ZM277.693 505.383H280.24L285.221 495.601V493.56H276.876V495.568H282.674V495.65L277.693 505.383ZM287.458 504.174H285.139L284.323 508.829H286.054L287.458 504.174ZM293.713 505.546C296.669 505.546 298.465 503.358 298.465 499.471C298.465 495.609 296.661 493.396 293.713 493.396C290.765 493.396 288.961 495.609 288.961 499.471C288.961 503.342 290.749 505.546 293.713 505.546ZM291.476 499.471C291.476 496.768 292.349 495.413 293.713 495.405C295.077 495.413 295.958 496.768 295.95 499.471C295.958 502.198 295.085 503.521 293.713 503.521C292.341 503.521 291.459 502.198 291.476 499.471ZM304.752 505.546C307.708 505.546 309.505 503.358 309.505 499.471C309.505 495.609 307.7 493.396 304.752 493.396C301.805 493.396 300 495.609 300 499.471C300 503.342 301.788 505.546 304.752 505.546ZM302.515 499.471C302.515 496.768 303.389 495.413 304.752 495.405C306.116 495.413 306.998 496.768 306.99 499.471C306.998 502.198 306.124 503.521 304.752 503.521C303.381 503.521 302.499 502.198 302.515 499.471ZM315.792 505.546C318.748 505.546 320.544 503.358 320.544 499.471C320.544 495.609 318.739 493.396 315.792 493.396C312.844 493.396 311.04 495.609 311.04 499.471C311.04 503.342 312.828 505.546 315.792 505.546ZM313.554 499.471C313.554 496.768 314.428 495.413 315.792 495.405C317.155 495.413 318.037 496.768 318.029 499.471C318.037 502.198 317.164 503.521 315.792 503.521C314.42 503.521 313.538 502.198 313.554 499.471ZM334.343 492.041H332.253V500.663H329.411V502.084H332.253V503.26H334.343V492.041ZM321.703 498.622L321.948 500.271C323.075 500.271 324.341 500.263 325.672 500.214V502.182H323.598V506.624H334.67V504.958H325.672V502.917H327.762V500.092C328.962 500.002 330.179 499.863 331.355 499.667L331.24 498.181C328.097 498.565 324.422 498.606 321.703 498.622ZM322.798 495.209C322.798 496.801 324.324 497.83 326.537 497.822C328.693 497.83 330.236 496.801 330.244 495.209C330.236 493.625 328.693 492.539 326.537 492.547C324.324 492.539 322.798 493.625 322.798 495.209ZM324.774 495.209C324.765 494.474 325.476 494.066 326.537 494.066C327.533 494.066 328.252 494.474 328.268 495.209C328.252 495.927 327.533 496.328 326.537 496.319C325.476 496.328 324.765 495.927 324.774 495.209Z" fill="#454545"/>
<path d="M295.261 533.669H291.234V534.672H295.261V533.669ZM299.031 538.229C300.866 538.229 302.238 537.111 302.232 535.599C302.238 534.431 301.514 533.573 300.314 533.389V533.326C301.279 533.053 301.889 532.291 301.876 531.243C301.889 529.928 300.822 528.779 299.069 528.779C297.437 528.779 296.078 529.757 296.021 531.217H297.126C297.177 530.316 298.072 529.776 299.056 529.769C300.104 529.776 300.777 530.385 300.771 531.306C300.777 532.253 299.996 532.881 298.879 532.881H298.129V533.885H298.879C300.308 533.891 301.108 534.596 301.114 535.599C301.108 536.558 300.231 537.212 299.018 537.212C297.92 537.212 297.05 536.666 296.986 535.79H295.83C295.887 537.251 297.202 538.229 299.031 538.229ZM304.11 537.251H302.878L302.179 540.705H303.119L304.11 537.251ZM307.766 538.229C309.805 538.229 310.979 536.514 310.979 533.504C310.979 530.519 309.786 528.779 307.766 528.779C305.74 528.779 304.546 530.519 304.553 533.504C304.546 536.514 305.727 538.229 307.766 538.229ZM305.658 533.504C305.664 531.122 306.445 529.776 307.766 529.769C309.087 529.776 309.868 531.122 309.862 533.504C309.868 535.885 309.093 537.212 307.766 537.212C306.432 537.212 305.664 535.885 305.658 533.504ZM314.585 538.229C316.623 538.229 317.798 536.514 317.798 533.504C317.798 530.519 316.604 528.779 314.585 528.779C312.559 528.779 311.365 530.519 311.371 533.504C311.365 536.514 312.546 538.229 314.585 538.229ZM312.476 533.504C312.483 531.122 313.264 529.776 314.585 529.769C315.906 529.776 316.687 531.122 316.681 533.504C316.687 535.885 315.912 537.212 314.585 537.212C313.251 537.212 312.483 535.885 312.476 533.504ZM321.404 538.229C323.442 538.229 324.617 536.514 324.617 533.504C324.617 530.519 323.423 528.779 321.404 528.779C319.378 528.779 318.184 530.519 318.19 533.504C318.184 536.514 319.365 538.229 321.404 538.229ZM319.295 533.504C319.302 531.122 320.083 529.776 321.404 529.769C322.725 529.776 323.506 531.122 323.5 533.504C323.506 535.885 322.731 537.212 321.404 537.212C320.07 537.212 319.302 535.885 319.295 533.504ZM334.116 527.851H333.113V534.532H330.776V535.256H333.113V536.425H334.116V527.851ZM324.742 533.084L324.882 533.897C325.828 533.897 326.914 533.897 328.058 533.853V536.031H329.061V533.802C330.096 533.739 331.157 533.637 332.16 533.478L332.097 532.754C329.677 533.053 326.845 533.072 324.742 533.084ZM325.657 530.277C325.651 531.484 326.781 532.233 328.451 532.233C330.109 532.233 331.239 531.484 331.246 530.277C331.239 529.09 330.109 528.309 328.451 528.309C326.781 528.309 325.651 529.09 325.657 530.277ZM326.368 538.889H334.396V538.051H327.372V535.587H326.368V538.889ZM326.61 530.277C326.597 529.553 327.346 529.058 328.451 529.071C329.525 529.058 330.287 529.553 330.293 530.277C330.287 531.014 329.525 531.49 328.451 531.497C327.346 531.49 326.597 531.014 326.61 530.277Z" fill="#3D9DFF"/>
<path d="M347.162 548.887H16.4297V550.745H347.162V548.887Z" fill="#E0E0E0" mask="url(#path-73-inside-3_1203_21504)"/>
<path d="M31.7167 575.158C33.7553 575.158 34.9302 573.444 34.9302 570.433C34.9302 567.448 33.7362 565.708 31.7167 565.708C29.6908 565.708 28.4969 567.448 28.5032 570.433C28.4969 573.444 29.6781 575.158 31.7167 575.158ZM29.6083 570.433C29.6146 568.052 30.3957 566.705 31.7167 566.699C33.0377 566.705 33.8188 568.052 33.8124 570.433C33.8188 572.815 33.044 574.142 31.7167 574.142C30.383 574.142 29.6146 572.815 29.6083 570.433ZM36.4925 575.031H37.6864L41.8906 566.902V565.835H35.8447V566.852H40.7093V566.915L36.4925 575.031ZM42.5765 575.107C43.0274 575.101 43.3957 574.733 43.3894 574.282C43.3957 573.837 43.0274 573.469 42.5765 573.469C42.1319 573.469 41.7509 573.837 41.7636 574.282C41.7509 574.733 42.1319 575.101 42.5765 575.107ZM47.7714 575.158C49.8099 575.158 50.9848 573.444 50.9848 570.433C50.9848 567.448 49.7909 565.708 47.7714 565.708C45.7455 565.708 44.5515 567.448 44.5579 570.433C44.5515 573.444 45.7328 575.158 47.7714 575.158ZM45.6629 570.433C45.6693 568.052 46.4504 566.705 47.7714 566.699C49.0923 566.705 49.8735 568.052 49.8671 570.433C49.8735 572.815 49.0987 574.142 47.7714 574.142C46.4377 574.142 45.6693 572.815 45.6629 570.433ZM52.5471 575.031H53.7411L57.9452 566.902V565.835H51.8993V566.852H56.764V566.915L52.5471 575.031ZM71.612 564.781H70.6213V573.063H71.612V564.781ZM62.4035 570.649L62.9496 571.424C64.2706 570.897 65.2994 569.786 65.7884 568.401C66.2901 569.703 67.3062 570.719 68.6145 571.221L69.1352 570.421C67.4523 569.811 66.2774 568.268 66.2901 566.547V565.416H65.274V566.547C65.274 568.331 64.1118 569.982 62.4035 570.649ZM64.3214 575.819H71.9677V574.98H65.3121V572.3H64.3214V575.819ZM77.3785 567.194V566.953H79.9315V566.153H77.4039V564.718H76.4005V566.153H73.8475V566.953H76.4005V567.194C76.3941 568.725 75.2256 570.103 73.5681 570.662L74.0507 571.424C75.3971 570.979 76.4322 570.008 76.9149 568.776C77.4293 569.887 78.4708 570.738 79.7791 571.132L80.2617 570.357C78.5978 569.868 77.3848 568.598 77.3785 567.194ZM75.359 573.977C75.3526 575.285 76.7942 576.035 79.144 576.035C81.4874 576.035 82.929 575.285 82.929 573.977C82.929 572.662 81.4874 571.913 79.144 571.919C76.7942 571.913 75.3526 572.662 75.359 573.977ZM76.3497 573.977C76.3433 573.17 77.4102 572.707 79.144 572.694C80.8778 572.707 81.9383 573.17 81.9383 573.977C81.9383 574.765 80.8778 575.247 79.144 575.247C77.4102 575.247 76.3433 574.765 76.3497 573.977ZM79.5759 568.833H81.8875V571.615H82.8909V564.768H81.8875V568.007H79.5759V568.833Z" fill="#454545"/>
<path d="M263.508 563.708H261.189L258.266 565.57V567.742L260.977 566.043H261.042V575.531H263.508V563.708ZM266.709 575.531H269.256L274.237 565.749V563.708H265.892V565.717H271.689V565.798L266.709 575.531ZM274.727 573.441H280.475V575.531H282.81V573.441H284.313V571.465H282.81V563.708H279.724L274.727 571.498V573.441ZM277.209 571.465V571.367L280.394 566.403H280.508V571.465H277.209ZM288.314 574.323H285.995L285.178 578.977H286.909L288.314 574.323ZM294.47 575.695C297.14 575.695 299.059 574.241 299.043 572.216C299.059 570.738 298.104 569.685 296.365 569.473V569.375C297.688 569.138 298.61 568.199 298.602 566.876C298.61 565.006 296.969 563.545 294.503 563.545C292.078 563.545 290.249 564.957 290.208 566.99H292.56C292.601 566.084 293.458 565.496 294.503 565.504C295.548 565.496 296.242 566.117 296.234 567.023C296.242 567.954 295.426 568.591 294.258 568.591H293.164V570.403H294.258C295.646 570.412 296.504 571.089 296.495 572.053C296.504 573.008 295.663 573.661 294.487 573.67C293.344 573.661 292.486 573.082 292.445 572.2H289.963C290.012 574.266 291.874 575.695 294.47 575.695ZM300.774 575.531H309.233V573.506H304.187V573.441L305.983 571.694C308.417 569.489 309.07 568.387 309.07 567.039C309.07 564.99 307.388 563.545 304.857 563.545C302.366 563.545 300.651 565.023 300.66 567.333H302.995C302.987 566.198 303.713 565.496 304.824 565.504C305.91 565.496 306.702 566.149 306.702 567.203C306.702 568.142 306.106 568.795 305.004 569.848L300.758 573.751L300.774 575.531ZM315.569 575.695C318.525 575.695 320.322 573.506 320.322 569.62C320.322 565.757 318.517 563.545 315.569 563.545C312.622 563.545 310.817 565.757 310.817 569.62C310.817 573.49 312.605 575.695 315.569 575.695ZM313.332 569.62C313.332 566.917 314.206 565.562 315.569 565.553C316.933 565.562 317.815 566.917 317.807 569.62C317.815 572.347 316.941 573.67 315.569 573.67C314.198 573.67 313.316 572.347 313.332 569.62ZM334.121 562.189H332.03V570.812H329.189V572.232H332.03V573.408H334.121V562.189ZM321.481 568.77L321.726 570.42C322.853 570.42 324.118 570.412 325.449 570.363V572.33H323.375V576.772H334.447V575.107H325.449V573.065H327.54V570.24C328.74 570.15 329.957 570.012 331.132 569.816L331.018 568.33C327.874 568.713 324.2 568.754 321.481 568.77ZM322.575 565.357C322.575 566.95 324.102 567.978 326.315 567.97C328.47 567.978 330.014 566.95 330.022 565.357C330.014 563.773 328.47 562.687 326.315 562.696C324.102 562.687 322.575 563.773 322.575 565.357ZM324.551 565.357C324.543 564.622 325.253 564.214 326.315 564.214C327.311 564.214 328.03 564.622 328.046 565.357C328.03 566.076 327.311 566.476 326.315 566.468C325.253 566.476 324.543 566.076 324.551 565.357Z" fill="#454545"/>
<path d="M290.962 603.817H286.936V604.821H290.962V603.817ZM294.949 599.054H293.793L291.507 600.578V601.734L293.742 600.248H293.793V608.25H294.949V599.054ZM299.482 608.377C301.52 608.377 302.695 606.662 302.695 603.652C302.695 600.667 301.501 598.927 299.482 598.927C297.456 598.927 296.262 600.667 296.268 603.652C296.262 606.662 297.443 608.377 299.482 608.377ZM297.373 603.652C297.379 601.271 298.161 599.924 299.482 599.918C300.802 599.924 301.584 601.271 301.577 603.652C301.584 606.034 300.809 607.361 299.482 607.361C298.148 607.361 297.379 606.034 297.373 603.652ZM304.408 607.399H303.176L302.477 610.854H303.417L304.408 607.399ZM308.064 608.377C310.103 608.377 311.278 606.662 311.278 603.652C311.278 600.667 310.084 598.927 308.064 598.927C306.038 598.927 304.844 600.667 304.851 603.652C304.844 606.662 306.025 608.377 308.064 608.377ZM305.956 603.652C305.962 601.271 306.743 599.924 308.064 599.918C309.385 599.924 310.166 601.271 310.16 603.652C310.166 606.034 309.391 607.361 308.064 607.361C306.73 607.361 305.962 606.034 305.956 603.652ZM314.883 608.377C316.922 608.377 318.096 606.662 318.096 603.652C318.096 600.667 316.902 598.927 314.883 598.927C312.857 598.927 311.663 600.667 311.669 603.652C311.663 606.662 312.844 608.377 314.883 608.377ZM312.775 603.652C312.781 601.271 313.562 599.924 314.883 599.918C316.204 599.924 316.985 601.271 316.979 603.652C316.985 606.034 316.21 607.361 314.883 607.361C313.549 607.361 312.781 606.034 312.775 603.652ZM321.702 608.377C323.74 608.377 324.915 606.662 324.915 603.652C324.915 600.667 323.721 598.927 321.702 598.927C319.676 598.927 318.482 600.667 318.488 603.652C318.482 606.662 319.663 608.377 321.702 608.377ZM319.593 603.652C319.6 601.271 320.381 599.924 321.702 599.918C323.023 599.924 323.804 601.271 323.798 603.652C323.804 606.034 323.029 607.361 321.702 607.361C320.368 607.361 319.6 606.034 319.593 603.652ZM334.414 598H333.411V604.681H331.074V605.405H333.411V606.573H334.414V598ZM325.04 603.233L325.18 604.046C326.126 604.046 327.212 604.046 328.356 604.001V606.18H329.359V603.951C330.394 603.887 331.455 603.785 332.458 603.627L332.395 602.903C329.975 603.201 327.143 603.22 325.04 603.233ZM325.955 600.426C325.949 601.633 327.079 602.382 328.749 602.382C330.407 602.382 331.537 601.633 331.544 600.426C331.537 599.238 330.407 598.457 328.749 598.457C327.079 598.457 325.949 599.238 325.955 600.426ZM326.666 609.037H334.694V608.199H327.67V605.735H326.666V609.037ZM326.908 600.426C326.895 599.702 327.644 599.207 328.749 599.219C329.823 599.207 330.585 599.702 330.591 600.426C330.585 601.163 329.823 601.639 328.749 601.645C327.644 601.639 326.895 601.163 326.908 600.426Z" fill="#3D9DFF"/>
<path d="M347.162 619.036H16.4297V620.894H347.162V619.036Z" fill="#E0E0E0" mask="url(#path-78-inside-4_1203_21504)"/>
<rect x="16.8942" y="409.984" width="329.803" height="209.516" stroke="#E0E0E0" stroke-width="0.929022"/>
<rect x="16.4297" y="638.543" width="330.732" height="44.5804" rx="3.71609" fill="#CCCCCC"/>
<path d="M171.632 664.346H167.148V661.768H165.523V664.346H161.052V665.654H171.632V664.346ZM161.484 660.993L162.119 662.276C164.113 661.914 165.599 660.891 166.329 659.5C167.079 660.872 168.577 661.856 170.603 662.212L171.238 660.929C168.762 660.567 167.314 659.151 167.187 657.627H170.705V656.319H161.928V657.627H165.459C165.319 659.157 163.884 660.605 161.484 660.993ZM181.08 655.442H179.467V667.001H181.08V655.442ZM171.414 663.736L171.63 665.057C173.688 665.064 176.412 665.038 178.946 664.6L178.832 663.406C177.905 663.527 176.933 663.603 175.961 663.647V662.727C177.232 662.492 178.057 661.704 178.057 660.624C178.057 659.335 176.863 658.452 175.149 658.452C173.447 658.452 172.272 659.335 172.278 660.624C172.272 661.71 173.097 662.498 174.361 662.727V663.705C173.307 663.73 172.297 663.73 171.414 663.736ZM171.643 657.995H178.667V656.725H175.974V655.493H174.361V656.725H171.643V657.995ZM173.815 660.624C173.809 660.027 174.361 659.691 175.149 659.685C175.961 659.691 176.508 660.027 176.508 660.624C176.508 661.234 175.961 661.564 175.149 661.564C174.361 661.564 173.809 661.234 173.815 660.624ZM190.795 655.442H189.195V667.001H190.795V661.298H192.497V659.964H190.795V655.442ZM181.612 658.465H188.407V657.17H185.854V655.62H184.228V657.17H181.612V658.465ZM182.082 661.869C182.075 663.482 183.333 664.619 185.041 664.625C186.724 664.619 187.988 663.482 187.988 661.869C187.988 660.256 186.724 659.107 185.041 659.113C183.333 659.107 182.075 660.256 182.082 661.869ZM183.631 661.869C183.631 660.98 184.222 660.434 185.041 660.421C185.848 660.434 186.438 660.98 186.438 661.869C186.438 662.765 185.848 663.298 185.041 663.292C184.222 663.298 183.631 662.765 183.631 661.869ZM201.704 655.442H200.065V667.001H201.704V655.442ZM192.025 663.724L192.876 665.019C197.004 663.069 198.23 660.154 198.236 656.649H192.648V657.919H196.585C196.325 660.485 195.01 662.314 192.025 663.724Z" fill="white"/>
</g>
<defs>
<clipPath id="clip0_1203_21504">
<rect x="0.636719" width="362.319" height="784.095" rx="27.8707" fill="white"/>
</clipPath>
<clipPath id="clip1_1203_21504">
<rect width="18.5804" height="13.0063" fill="white" transform="translate(270.055 16.7227)"/>
</clipPath>
<clipPath id="clip2_1203_21504">
<rect width="18.5804" height="11.1483" fill="white" transform="translate(292.352 17.6523)"/>
</clipPath>
</defs>
</svg>
