<svg width="363" height="785" viewBox="0 0 363 785" fill="none" xmlns="http://www.w3.org/2000/svg">
<g clip-path="url(#clip0_1249_21001)">
<rect width="362.365" height="784.194" rx="27.8742" fill="white"/>
<path d="M327.059 61.3203C326.714 61.3203 326.383 61.4559 326.139 61.6971C325.895 61.9384 325.758 62.2656 325.758 62.6068C325.758 62.6621 325.771 62.7149 325.778 62.7676C323.53 63.3356 321.855 65.3554 321.855 67.7528V73.5421C321.855 73.9062 321.573 74.1853 321.205 74.1853H320.555V75.4718H325.23C325.152 75.6776 325.11 75.8953 325.107 76.1151C325.107 77.1732 325.989 78.0448 327.059 78.0448C328.129 78.0448 329.01 77.1732 329.01 76.1151C329.007 75.8953 328.966 75.6776 328.888 75.4718H333.563V74.1853H332.912C332.544 74.1853 332.262 73.9062 332.262 73.5421V67.9336C332.262 65.5162 330.628 63.3601 328.339 62.7676C328.346 62.7149 328.359 62.6621 328.359 62.6068C328.359 62.2656 328.222 61.9384 327.978 61.6971C327.735 61.4559 327.404 61.3203 327.059 61.3203V61.3203ZM326.774 63.8933C326.868 63.8856 326.962 63.8933 327.059 63.8933H327.181C329.304 63.9564 330.961 65.7973 330.961 67.9336V73.5421C330.961 73.7685 331.009 73.9821 331.083 74.1853H323.035C323.113 73.9795 323.154 73.7618 323.156 73.5421V67.7528C323.154 66.7763 323.527 65.8354 324.198 65.1193C324.869 64.4032 325.79 63.9652 326.774 63.8933H326.774ZM327.059 75.4718C327.425 75.4718 327.709 75.7536 327.709 76.1151C327.709 76.4772 327.424 76.7583 327.059 76.7583C326.692 76.7583 326.408 76.4766 326.408 76.1151C326.408 75.7529 326.693 75.4718 327.059 75.4718Z" fill="black"/>
<rect x="327.059" y="56.6758" width="13.4331" height="12.7166" rx="6.35828" fill="#DD8382"/>
<path d="M331.173 67.5352H335.596V66.6246H333.886C333.552 66.6246 333.115 66.6618 332.762 66.6989C334.211 65.3052 335.27 63.9394 335.27 62.6293C335.27 61.3842 334.462 60.5759 333.208 60.5759C332.316 60.5759 331.712 60.9568 331.117 61.598L331.73 62.1833C332.093 61.7652 332.539 61.4307 333.078 61.4307C333.84 61.4307 334.23 61.9417 334.23 62.6758C334.23 63.8 333.198 65.1287 331.173 66.9126V67.5352Z" fill="white"/>
<rect x="14.8633" y="111.496" width="332.632" height="52.961" rx="26.4805" fill="#F4F5F9"/>
<circle cx="74.2692" cy="138.441" r="20.4411" fill="#3D9DFF"/>
<path d="M76.5689 137.329H79.6751L70.2687 146.969L72.4004 139.976L72.5833 139.376H71.956H68.882L78.2478 129.901L76.1253 136.726L75.9379 137.329H76.5689Z" fill="white" stroke="white" stroke-width="0.92914" stroke-linecap="round"/>
<circle cx="128.16" cy="138.441" r="20.4411" fill="white" fill-opacity="0.5"/>
<path d="M129.984 145.326C129.984 145.682 129.886 146.031 129.701 146.335C129.516 146.639 129.251 146.886 128.935 147.049C128.618 147.213 128.263 147.286 127.909 147.262C127.554 147.237 127.212 147.115 126.922 146.91C126.631 146.704 126.403 146.423 126.261 146.096C126.12 145.77 126.071 145.411 126.12 145.058C126.169 144.706 126.314 144.373 126.539 144.098C126.764 143.822 127.06 143.613 127.396 143.495V137.561C127.396 137.39 127.464 137.225 127.585 137.104C127.707 136.982 127.871 136.914 128.043 136.914C128.214 136.914 128.379 136.982 128.5 137.104C128.622 137.225 128.69 137.39 128.69 137.561V143.495C129.069 143.629 129.396 143.877 129.628 144.205C129.86 144.533 129.984 144.924 129.984 145.326V145.326Z" fill="#E0E0E0"/>
<path d="M124.81 132.384C124.81 131.526 125.151 130.703 125.757 130.096C126.364 129.489 127.187 129.148 128.045 129.148C128.903 129.148 129.726 129.489 130.333 130.096C130.94 130.703 131.281 131.526 131.281 132.384V142.155C131.905 142.792 132.327 143.599 132.494 144.475C132.662 145.351 132.567 146.257 132.221 147.079C131.876 147.902 131.295 148.604 130.552 149.097C129.809 149.591 128.937 149.854 128.045 149.854C127.153 149.854 126.281 149.591 125.538 149.097C124.795 148.604 124.215 147.902 123.869 147.079C123.524 146.257 123.429 145.351 123.596 144.475C123.763 143.599 124.186 142.792 124.81 142.155V132.384ZM128.045 130.443C127.53 130.443 127.037 130.647 126.673 131.011C126.308 131.375 126.104 131.869 126.104 132.384V142.72L125.888 142.914C125.399 143.351 125.055 143.926 124.9 144.563C124.746 145.2 124.788 145.868 125.022 146.48C125.256 147.093 125.67 147.619 126.21 147.991C126.749 148.363 127.389 148.562 128.045 148.562C128.7 148.562 129.34 148.363 129.879 147.991C130.419 147.619 130.833 147.093 131.067 146.48C131.301 145.868 131.343 145.2 131.189 144.563C131.034 143.926 130.69 143.351 130.201 142.914L129.986 142.72V132.384C129.986 131.869 129.782 131.375 129.418 131.011C129.054 130.647 128.56 130.443 128.045 130.443Z" fill="#E0E0E0"/>
<circle cx="182.05" cy="138.441" r="20.4411" fill="white"/>
<path d="M188.551 140.834C188.551 144.496 186.218 146.801 182.512 146.801C178.806 146.801 176.473 144.496 176.473 140.834C176.473 136.904 180.802 131.599 182.13 130.064C182.177 130.01 182.236 129.966 182.302 129.936C182.368 129.906 182.44 129.891 182.512 129.891C182.585 129.891 182.657 129.906 182.723 129.936C182.789 129.966 182.847 130.01 182.895 130.064C184.222 131.599 188.551 136.904 188.551 140.834Z" fill="#979FA4"/>
<path d="M186.13 141.164C186.13 142.018 185.791 142.837 185.187 143.441C184.583 144.045 183.764 144.384 182.91 144.384" fill="#F9F9F9"/>
<path d="M186.13 141.164C186.13 142.018 185.791 142.837 185.187 143.441C184.583 144.045 183.764 144.384 182.91 144.384" stroke="white" stroke-width="1.85828" stroke-linecap="round" stroke-linejoin="round"/>
<circle cx="235.941" cy="138.441" r="20.4411" fill="white" fill-opacity="0.5"/>
<path d="M231.764 131.473C230.221 132.32 229.441 133.796 229.906 136.118C230.39 138.539 231.3 137.977 231.3 141.229C231.3 142.158 230.835 144.016 229.441 144.481" stroke="#E0E0E0" stroke-width="1.85828" stroke-linecap="round"/>
<path d="M237.803 131.473C236.26 132.32 235.48 133.796 235.945 136.118C236.429 138.539 237.339 137.977 237.339 141.229C237.339 142.158 236.874 144.016 235.48 144.481" stroke="#E0E0E0" stroke-width="1.85828" stroke-linecap="round"/>
<path d="M243.842 131.473C242.299 132.32 241.52 133.796 241.984 136.118C242.468 138.539 243.378 137.977 243.378 141.229C243.378 142.158 242.913 144.016 241.52 144.481" stroke="#E0E0E0" stroke-width="1.85828" stroke-linecap="round"/>
<circle cx="289.828" cy="138.441" r="20.4411" fill="white" fill-opacity="0.5"/>
<path d="M282.86 147.033H281.234V130.773H282.86M297.494 130.773H295.868V147.033H297.494M293.624 133.489L290.372 136.741C289.917 136.523 289.406 136.453 288.909 136.538C288.412 136.623 287.953 136.86 287.597 137.217C287.24 137.574 287.003 138.032 286.917 138.529C286.832 139.026 286.903 139.538 287.12 139.993L283.868 143.245L285.023 144.399L288.275 141.147C288.73 141.365 289.241 141.436 289.738 141.35C290.236 141.265 290.694 141.028 291.051 140.671C291.407 140.314 291.645 139.856 291.73 139.359C291.815 138.862 291.744 138.35 291.527 137.895L294.779 134.643L293.624 133.489Z" fill="#E0E0E0"/>
<rect x="147.66" y="59.9766" width="3.17371" height="10.579" fill="#575556"/>
<rect x="156.652" y="67.3828" width="3.17371" height="8.46324" transform="rotate(90 156.652 67.3828)" fill="#575556"/>
<rect x="180.457" y="67.3828" width="3.17371" height="11.637" transform="rotate(90 180.457 67.3828)" fill="#575556"/>
<rect x="176.227" y="79.5469" width="3.17372" height="11.108" transform="rotate(-180 176.227 79.5469)" fill="#575556"/>
<path d="M147.666 59.9802L150.307 62.6237L141.315 73.2028L138.67 70.5583L147.666 59.9802Z" fill="#575556" fill-opacity="0.5"/>
<rect x="147.66" y="70.5547" width="3.17371" height="8.99219" transform="rotate(90 147.66 70.5547)" fill="#575556"/>
<path d="M150.836 79.5469L147.662 79.5469L147.662 70.5547V70.5547C149.415 70.5547 150.836 71.9756 150.836 73.7284L150.836 79.5469Z" fill="#575556"/>
<path d="M153.48 77.9609H155.721C156.798 77.9609 157.801 77.4152 158.386 76.5114L162.328 70.4183C162.913 69.5145 163.916 68.9688 164.993 68.9688H167.498" stroke="#575556" stroke-width="3.17371"/>
<rect x="184.156" y="73.7305" width="1.0579" height="7.93429" transform="rotate(-90 184.156 73.7305)" fill="#575556"/>
<rect x="192.129" y="79.5469" width="1.0579" height="12.1659" transform="rotate(-180 192.129 79.5469)" fill="#575556"/>
<rect x="185.215" y="79.5664" width="1.0579" height="12.1659" transform="rotate(-180 185.215 79.5664)" fill="#575556"/>
<path d="M202.176 73.4658C202.176 76.6612 200.168 79.0198 197.944 79.0198C195.721 79.0198 193.713 76.6612 193.713 73.4658C193.713 70.2703 195.721 67.9118 197.944 67.9118C200.168 67.9118 202.176 70.2703 202.176 73.4658Z" stroke="#575556" stroke-width="1.0579"/>
<path d="M208.528 78.4922L207.47 78.4922L211.173 67.3842L212.23 67.3842L208.528 78.4922Z" fill="#575556"/>
<path d="M208.531 78.4922L207.473 78.4922L203.771 67.3842L204.829 67.3842L208.531 78.4922Z" fill="#575556"/>
<rect x="212.23" y="79.5469" width="1.05791" height="12.1659" transform="rotate(-180 212.23 79.5469)" fill="#575556"/>
<rect x="204.824" y="79.5469" width="1.05791" height="12.1659" transform="rotate(-180 204.824 79.5469)" fill="#575556"/>
<path fill-rule="evenodd" clip-rule="evenodd" d="M213.289 79.5487H214.763H214.876H220.052V78.4908H214.876L214.876 74.2593H218.994V73.2014H214.876L214.876 68.4415L220.165 68.4415V67.3836L214.876 67.3836V67.3828C214 67.3828 213.289 68.0933 213.289 68.9697V79.5487Z" fill="#575556"/>
<path d="M229.647 68.4414L228.501 67.2953L228.501 63.8572L229.647 62.7111L230.793 63.8572L230.793 67.2953L229.647 68.4414Z" fill="#DC8772"/>
<path d="M229.647 61.4766L228.501 60.3305L228.501 56.8923L229.647 55.7462L230.793 56.8923L230.793 60.3305L229.647 61.4766Z" fill="#86A6D9"/>
<path d="M230.262 62.0922L231.408 60.9462L234.846 60.9462L235.992 62.0922L234.846 63.2383L231.408 63.2383L230.262 62.0922Z" fill="#F5C851"/>
<path d="M223.301 62.0922L224.447 60.9462L227.885 60.9462L229.031 62.0922L227.885 63.2383L224.447 63.2383L223.301 62.0922Z" fill="#87D5D7"/>
<path d="M49.5378 198.853H39.2156V200.519H47.4635C47.4472 201.564 47.4064 202.715 47.0879 204.193H37.5497V205.876H51.1547V204.193H49.1866C49.5459 202.487 49.5459 201.204 49.5378 200.045V198.853ZM39.1666 212.882H49.4888V207.444H39.1666V212.882ZM41.2082 211.216V209.077H47.4145V211.216H41.2082ZM55.305 198.624C53.0102 198.616 51.3035 200.037 51.3035 202.021C51.3035 203.989 53.0102 205.394 55.305 205.402C57.567 205.394 59.2656 203.989 59.2738 202.021C59.2656 200.037 57.567 198.616 55.305 198.624ZM53.3287 202.021C53.3124 200.951 54.1617 200.323 55.305 200.323C56.4319 200.323 57.2567 200.951 57.2649 202.021C57.2567 203.083 56.4319 203.712 55.305 203.72C54.1535 203.712 53.3124 203.083 53.3287 202.021ZM53.541 207.852H61.446V208.766H53.5737V212.882H63.9285V211.249H55.6153V210.285H63.5202V206.251H53.541V207.852ZM61.4297 205.631H63.5202V198.183H61.4297V205.631Z" fill="#232323"/>
<rect x="14.8633" y="222.543" width="72.4729" height="1.85828" rx="0.92914" fill="#232323"/>
<path d="M136.406 198.853H126.083V200.519H134.331C134.315 201.564 134.274 202.715 133.956 204.193H124.418V205.876H138.023V204.193H136.054C136.414 202.487 136.414 201.204 136.406 200.045V198.853ZM126.034 212.882H136.357V207.444H126.034V212.882ZM128.076 211.216V209.077H134.282V211.216H128.076ZM150.535 198.199H148.445V205.075H145.75V206.333H148.445V206.807H150.535V198.199ZM137.943 203.426L138.155 204.863C139.233 204.871 140.401 204.871 141.618 204.838V206.839H143.675V204.765C144.998 204.691 146.346 204.577 147.661 204.406L147.563 203.115C144.378 203.418 140.817 203.434 137.943 203.426ZM138.955 200.633C138.955 202.013 140.458 202.862 142.728 202.854C144.941 202.862 146.46 202.013 146.468 200.633C146.46 199.294 144.941 198.403 142.728 198.395C140.458 198.403 138.955 199.294 138.955 200.633ZM140.066 208.652H148.461V209.387H140.131V212.948H150.878V211.494H142.173V210.726H150.535V207.248H140.066V208.652ZM140.932 200.633C140.915 200.086 141.601 199.759 142.728 199.767C143.822 199.759 144.517 200.086 144.525 200.633C144.517 201.18 143.822 201.49 142.728 201.498C141.601 201.49 140.915 201.18 140.932 200.633Z" fill="#232323" fill-opacity="0.3"/>
<path d="M223.281 198.853H212.958V200.519H221.206C221.19 201.564 221.149 202.715 220.831 204.193H211.293V205.876H224.898V204.193H222.929C223.289 202.487 223.289 201.204 223.281 200.045V198.853ZM212.909 212.882H223.232V207.444H212.909V212.882ZM214.951 211.216V209.077H221.157V211.216H214.951ZM237.345 198.199H235.271V199.849H231.579V201.482H235.271V202.625H231.579V204.259H235.271V209.126H237.345V198.199ZM225.651 207.199H226.843C229.064 207.19 231.065 207.117 233.294 206.692L233.082 205.01C231.236 205.345 229.521 205.459 227.709 205.484V199.13H225.651V207.199ZM227.464 212.784H237.704V211.118H229.554V208.146H227.464V212.784Z" fill="#232323" fill-opacity="0.3"/>
<path d="M23.7773 250.426V247.504H21.0273V250.426C21.0273 254.057 19.4697 257.795 16.1504 259.32L17.8477 261.533C20.0605 260.438 21.5645 258.364 22.4238 255.84C23.2295 258.192 24.6475 260.126 26.7422 261.168L28.3965 258.977C25.2598 257.462 23.7666 253.928 23.7773 250.426ZM29.2559 265.551H32.0059V255.861H34.8848V253.541H32.0059V246H29.2559V265.551ZM52.4966 255.26H48.3931V252.939C49.8541 252.316 50.6812 251.339 50.692 250.061C50.6812 247.697 47.899 246.29 43.5806 246.279C39.23 246.29 36.4478 247.697 36.4478 250.061C36.4478 251.317 37.2535 252.284 38.6822 252.918V255.26H34.6646V257.451H52.4966V255.26ZM36.7056 261.984C36.7056 264.294 39.273 265.529 43.5591 265.529C47.7808 265.529 50.3482 264.294 50.3697 261.984C50.3482 259.729 47.7808 258.472 43.5591 258.482C39.273 258.472 36.7056 259.729 36.7056 261.984ZM39.3052 250.061C39.2838 248.965 40.8199 248.385 43.5806 248.385C46.3091 248.385 47.856 248.965 47.856 250.061C47.856 251.135 46.3091 251.683 43.5806 251.672C40.8199 251.683 39.2838 251.135 39.3052 250.061ZM39.4986 261.984C39.4879 261.018 40.8521 260.556 43.5591 260.545C46.2125 260.556 47.6089 261.018 47.6197 261.984C47.6089 262.983 46.2125 263.488 43.5591 263.488C40.8521 263.488 39.4879 262.983 39.4986 261.984ZM41.4537 255.26V253.616C42.1089 253.691 42.8179 253.734 43.5806 253.734C44.3218 253.734 45.0201 253.702 45.6646 253.616V255.26H41.4537ZM70.9034 248.621H68.2609V246.021H65.5109V257.816H68.2609V255.023H70.9034V252.768H68.2609V250.898H70.9034V248.621ZM53.4366 249.33H59.753V250.941H53.4581V256.957H55.1124C59.0763 256.957 61.59 256.86 64.3937 256.334L64.0929 254.143C61.6007 254.583 59.4093 254.701 56.1866 254.723V253.004H62.4171V247.182H53.4366V249.33ZM55.1124 261.877C55.1124 264.187 57.6798 265.529 61.8155 265.529C65.8761 265.529 68.4435 264.187 68.4542 261.877C68.4435 259.524 65.8761 258.117 61.8155 258.117C57.6798 258.117 55.1124 259.524 55.1124 261.877ZM57.8195 261.877C57.798 260.792 59.2052 260.233 61.8155 260.244C64.3937 260.233 65.7472 260.792 65.7472 261.877C65.7472 262.94 64.3937 263.488 61.8155 263.488C59.2052 263.488 57.798 262.94 57.8195 261.877ZM91.3459 246H88.5745V265.594H91.3459V246ZM75.9416 261.018H85.6096V247.547H82.9026V252.316H78.6916V247.547H75.9416V261.018ZM78.6916 258.805V254.443H82.9026V258.805H78.6916ZM109.28 247.697H94.8211V249.867H106.53C106.519 252.134 106.498 254.787 105.864 258.375L108.55 258.611C109.269 254.669 109.269 251.994 109.28 249.609V247.697ZM93.0594 263.166H110.891V260.932H104.446V254.787H101.739V260.932H99.5906V254.787H96.8621V260.932H93.0594V263.166Z" fill="#232323"/>
<path d="M116.959 257.301C116.973 259.885 117.67 262.031 118.928 263.863H119.967C119.044 262.503 118.183 259.741 118.176 257.301C118.183 254.867 119.044 252.099 119.967 250.752H118.928C117.67 252.577 116.973 254.724 116.959 257.301ZM188.114 253.65H186.829L184.805 259.543H184.723L182.7 253.65H181.415L184.149 261.074H185.366L188.114 253.65ZM192.613 255.578H193.761C193.611 254.375 192.647 253.555 191.109 253.555C189.475 253.555 188.361 254.471 188.361 255.742C188.361 256.733 189.051 257.438 190.343 257.738L191.464 257.998C192.305 258.196 192.681 258.538 192.681 259.064C192.681 259.762 192.018 260.206 190.958 260.199C190.022 260.206 189.495 259.857 189.359 259.133H188.128C188.326 260.486 189.318 261.231 190.986 261.225C192.845 261.231 193.891 260.281 193.898 258.996C193.891 257.964 193.241 257.301 191.915 256.986L190.808 256.713C189.94 256.501 189.543 256.166 189.536 255.674C189.543 255.052 190.193 254.56 191.109 254.553C191.977 254.56 192.449 254.963 192.613 255.578ZM197.071 261.074H203.496V259.98H198.78V259.898L201.049 257.561C202.799 255.756 203.312 254.895 203.319 253.787C203.312 252.249 202.04 251.039 200.243 251.039C198.452 251.039 197.098 252.215 197.112 253.965H198.274C198.281 252.857 199.019 252.112 200.202 252.105C201.316 252.112 202.163 252.769 202.17 253.787C202.163 254.703 201.603 255.373 200.434 256.617L197.057 260.172L197.071 261.074ZM207.599 261.211C209.793 261.211 211.058 259.365 211.058 256.125C211.058 252.912 209.772 251.039 207.599 251.039C205.418 251.039 204.133 252.912 204.14 256.125C204.133 259.365 205.404 261.211 207.599 261.211ZM205.329 256.125C205.336 253.562 206.177 252.112 207.599 252.105C209.02 252.112 209.861 253.562 209.854 256.125C209.861 258.688 209.027 260.117 207.599 260.117C206.163 260.117 205.336 258.688 205.329 256.125ZM215.269 251.176H214.025L211.564 252.816V254.061L213.97 252.461H214.025V261.074H215.269V251.176ZM217.293 261.074H218.578L223.104 252.324V251.176H216.596V252.27H221.832V252.338L217.293 261.074ZM222.913 261.156C223.398 261.149 223.795 260.753 223.788 260.268C223.795 259.789 223.398 259.393 222.913 259.393C222.434 259.393 222.024 259.789 222.038 260.268C222.024 260.753 222.434 261.149 222.913 261.156ZM227.575 261.211C229.77 261.211 231.034 259.365 231.034 256.125C231.034 252.912 229.749 251.039 227.575 251.039C225.395 251.039 224.11 252.912 224.116 256.125C224.11 259.365 225.381 261.211 227.575 261.211ZM225.306 256.125C225.313 253.562 226.154 252.112 227.575 252.105C228.997 252.112 229.838 253.562 229.831 256.125C229.838 258.688 229.004 260.117 227.575 260.117C226.14 260.117 225.313 258.688 225.306 256.125ZM235.191 261.211C237.276 261.231 238.636 259.741 238.636 257.875C238.636 255.961 237.167 254.594 235.41 254.594C234.344 254.594 233.434 255.079 232.867 255.906H232.744C232.737 253.521 233.715 252.133 235.342 252.133C236.442 252.133 237.112 252.789 237.338 253.664H238.554C238.302 252.112 237.085 251.039 235.342 251.039C233.017 251.039 231.582 253.001 231.582 256.508C231.582 260.172 233.475 261.19 235.191 261.211ZM232.908 257.902C232.922 256.733 233.92 255.681 235.219 255.674C236.511 255.681 237.44 256.672 237.447 257.889C237.44 259.119 236.47 260.124 235.191 260.131C233.865 260.124 232.915 259.064 232.908 257.902ZM239.785 261.156C240.271 261.149 240.667 260.753 240.66 260.268C240.667 259.789 240.271 259.393 239.785 259.393C239.307 259.393 238.897 259.789 238.91 260.268C238.897 260.753 239.307 261.149 239.785 261.156ZM244.448 261.211C246.642 261.211 247.907 259.365 247.907 256.125C247.907 252.912 246.622 251.039 244.448 251.039C242.267 251.039 240.982 252.912 240.989 256.125C240.982 259.365 242.254 261.211 244.448 261.211ZM242.179 256.125C242.185 253.562 243.026 252.112 244.448 252.105C245.87 252.112 246.711 253.562 246.704 256.125C246.711 258.688 245.877 260.117 244.448 260.117C243.013 260.117 242.185 258.688 242.179 256.125ZM252.119 251.176H250.874L248.414 252.816V254.061L250.82 252.461H250.874V261.074H252.119V251.176ZM256.426 257.301C256.412 254.724 255.715 252.577 254.457 250.752H253.418C254.341 252.099 255.202 254.867 255.209 257.301C255.202 259.741 254.341 262.503 253.418 263.863H254.457C255.715 262.031 256.412 259.885 256.426 257.301Z" fill="#232323" fill-opacity="0.5"/>
<path d="M120.487 261.074H126.913V259.98H122.196V259.898L124.465 257.561C126.215 255.756 126.728 254.895 126.735 253.787C126.728 252.249 125.457 251.039 123.659 251.039C121.868 251.039 120.514 252.215 120.528 253.965H121.69C121.697 252.857 122.435 252.112 123.618 252.105C124.732 252.112 125.58 252.769 125.586 253.787C125.58 254.703 125.019 255.373 123.85 256.617L120.473 260.172L120.487 261.074ZM131.015 261.211C133.209 261.211 134.474 259.365 134.474 256.125C134.474 252.912 133.189 251.039 131.015 251.039C128.834 251.039 127.549 252.912 127.556 256.125C127.549 259.365 128.82 261.211 131.015 261.211ZM128.745 256.125C128.752 253.562 129.593 252.112 131.015 252.105C132.437 252.112 133.277 253.562 133.271 256.125C133.277 258.688 132.443 260.117 131.015 260.117C129.579 260.117 128.752 258.688 128.745 256.125ZM138.685 251.176H137.441L134.98 252.816V254.061L137.386 252.461H137.441V261.074H138.685V251.176ZM143.703 261.211C145.768 261.211 147.217 260.056 147.231 258.449C147.217 257.171 146.328 256.111 145.207 255.934V255.879C146.178 255.653 146.834 254.744 146.848 253.664C146.834 252.153 145.508 251.039 143.703 251.039C141.892 251.039 140.566 252.153 140.573 253.664C140.566 254.744 141.215 255.653 142.199 255.879V255.934C141.072 256.111 140.183 257.171 140.19 258.449C140.183 260.056 141.618 261.211 143.703 261.211ZM141.42 258.381C141.4 257.287 142.377 256.48 143.703 256.48C145.036 256.48 146 257.287 146 258.381C146 259.42 145.118 260.124 143.703 260.131C142.281 260.124 141.4 259.42 141.42 258.381ZM141.762 253.76C141.769 252.769 142.528 252.099 143.703 252.105C144.859 252.099 145.645 252.769 145.645 253.76C145.645 254.758 144.831 255.435 143.703 255.441C142.569 255.435 141.769 254.758 141.762 253.76ZM148.489 261.156C148.974 261.149 149.371 260.753 149.364 260.268C149.371 259.789 148.974 259.393 148.489 259.393C148.011 259.393 147.6 259.789 147.614 260.268C147.6 260.753 148.011 261.149 148.489 261.156ZM153.152 261.211C155.346 261.211 156.611 259.365 156.611 256.125C156.611 252.912 155.326 251.039 153.152 251.039C150.971 251.039 149.686 252.912 149.693 256.125C149.686 259.365 150.957 261.211 153.152 261.211ZM150.882 256.125C150.889 253.562 151.73 252.112 153.152 252.105C154.574 252.112 155.414 253.562 155.408 256.125C155.414 258.688 154.58 260.117 153.152 260.117C151.716 260.117 150.889 258.688 150.882 256.125ZM160.768 261.211C162.852 261.231 164.213 259.741 164.213 257.875C164.213 255.961 162.743 254.594 160.986 254.594C159.92 254.594 159.011 255.079 158.443 255.906H158.32C158.313 253.521 159.291 252.133 160.918 252.133C162.018 252.133 162.688 252.789 162.914 253.664H164.131C163.878 252.112 162.661 251.039 160.918 251.039C158.594 251.039 157.158 253.001 157.158 256.508C157.158 260.172 159.052 261.19 160.768 261.211ZM158.484 257.902C158.498 256.733 159.496 255.681 160.795 255.674C162.087 255.681 163.017 256.672 163.023 257.889C163.017 259.119 162.046 260.124 160.768 260.131C159.441 260.124 158.491 259.064 158.484 257.902ZM165.362 261.156C165.847 261.149 166.244 260.753 166.237 260.268C166.244 259.789 165.847 259.393 165.362 259.393C164.883 259.393 164.473 259.789 164.487 260.268C164.473 260.753 164.883 261.149 165.362 261.156ZM170.024 261.211C172.219 261.211 173.483 259.365 173.483 256.125C173.483 252.912 172.198 251.039 170.024 251.039C167.844 251.039 166.559 252.912 166.565 256.125C166.559 259.365 167.83 261.211 170.024 261.211ZM167.755 256.125C167.762 253.562 168.603 252.112 170.024 252.105C171.446 252.112 172.287 253.562 172.28 256.125C172.287 258.688 171.453 260.117 170.024 260.117C168.589 260.117 167.762 258.688 167.755 256.125ZM177.695 251.176H176.451L173.99 252.816V254.061L176.396 252.461H176.451V261.074H177.695V251.176Z" fill="#3D9DFF"/>
<rect x="15" y="279.098" width="332" height="263" rx="7.43312" fill="#F4F5F9"/>
<rect x="222.793" y="368.992" width="33.0275" height="19.2661" rx="2.75229" fill="#D9D9D9"/>
<rect x="226.922" y="374.496" width="24.7706" height="0.688073" fill="white"/>
<rect x="226.922" y="378.625" width="24.7706" height="0.688073" fill="white"/>
<rect x="226.922" y="382.754" width="24.7706" height="0.688073" fill="white"/>
<path d="M116.434 451.944L143.097 430.614H225.424L252.087 451.944H116.434Z" fill="white" stroke="#31444E" stroke-width="0.688073"/>
<path d="M197.32 439.069C189.32 440.269 168.5 435.764 163.5 434.098C166.5 430.098 188.82 434.069 192.82 433.569C196.82 433.069 205.82 434.069 207.32 435.069C208.82 436.069 207.32 437.569 197.32 439.069Z" fill="#D9D9D9"/>
<rect x="82.207" y="305.516" width="197.583" height="26.4331" rx="13.2166" fill="#31444E"/>
<path d="M92.0807 317.465H93.1841L93.9971 313.705H93.1405L92.0807 317.465ZM94.5487 317.465H95.6521L96.4651 313.705H95.6085L94.5487 317.465ZM102.078 314.997V314.271H105.054V313.502H98.1724V314.271H101.192V315.012C101.178 316.913 99.7185 318.554 97.8675 319.236L98.3611 319.948C99.8637 319.382 101.105 318.206 101.642 316.688C102.179 318.068 103.355 319.156 104.822 319.686L105.286 318.961C103.45 318.322 102.085 316.768 102.078 314.997ZM99.5225 321.762H106.927V325.363H107.841V320.993H99.5225V321.762ZM106.927 320.267H107.841V316.826H109.816V316.028H107.841V312.558H106.927V320.267ZM121.177 312.558H120.263V314.329H116.401V315.084H120.263V316.783H116.401V317.552H120.263V322.067H121.177V312.558ZM111.392 320.064H112.35C114.209 320.064 115.958 319.977 118.114 319.585L117.998 318.801C115.929 319.186 114.165 319.28 112.35 319.28H112.321V313.531H111.392V320.064ZM113.018 325.058H121.54V324.289H113.933V321.269H113.018V325.058ZM135.109 322.895H129.664V320.006H133.628V313.487H132.728V315.897H125.73V313.487H124.801V320.006H128.75V322.895H123.378V323.679H135.109V322.895ZM125.73 319.236V316.667H132.728V319.236H125.73ZM145.991 312.558H145.077V325.377H145.991V318.496H148.198V317.726H145.991V312.558ZM136.714 322.14H137.701C140.191 322.133 141.846 322.06 143.872 321.69L143.741 320.891C141.796 321.254 140.148 321.349 137.701 321.341H137.629V314.591H142.681V313.821H136.714V322.14ZM152.484 324.23H160.004V322.43H155.518V322.372L157.115 320.819C159.278 318.859 159.859 317.879 159.859 316.681C159.859 314.859 158.363 313.574 156.113 313.574C153.899 313.574 152.375 314.888 152.382 316.943H154.458C154.451 315.934 155.097 315.309 156.084 315.317C157.049 315.309 157.753 315.89 157.753 316.826C157.753 317.661 157.224 318.242 156.244 319.178L152.469 322.648L152.484 324.23ZM165.544 324.376C168.171 324.376 169.768 322.43 169.768 318.975C169.768 315.542 168.164 313.574 165.544 313.574C162.923 313.574 161.319 315.542 161.319 318.975C161.319 322.416 162.909 324.376 165.544 324.376ZM163.555 318.975C163.555 316.572 164.332 315.367 165.544 315.36C166.756 315.367 167.54 316.572 167.533 318.975C167.54 321.399 166.763 322.575 165.544 322.575C164.324 322.575 163.54 321.399 163.555 318.975ZM175.265 324.376C177.893 324.376 179.49 322.43 179.49 318.975C179.49 315.542 177.885 313.574 175.265 313.574C172.644 313.574 171.04 315.542 171.04 318.975C171.04 322.416 172.63 324.376 175.265 324.376ZM173.276 318.975C173.276 316.572 174.053 315.367 175.265 315.36C176.477 315.367 177.261 316.572 177.254 318.975C177.261 321.399 176.484 322.575 175.265 322.575C174.045 322.575 173.261 321.399 173.276 318.975ZM191.664 312.369H189.806V320.035H187.28V321.298H189.806V322.343H191.664V312.369ZM180.427 318.22L180.645 319.686C181.647 319.686 182.772 319.679 183.955 319.636V321.385H182.111V325.334H191.955V323.853H183.955V322.038H185.814V319.527C186.881 319.447 187.962 319.323 189.007 319.149L188.906 317.828C186.111 318.169 182.845 318.206 180.427 318.22ZM181.4 315.186C181.4 316.601 182.758 317.516 184.725 317.509C186.641 317.516 188.013 316.601 188.02 315.186C188.013 313.778 186.641 312.812 184.725 312.819C182.758 312.812 181.4 313.778 181.4 315.186ZM183.157 315.186C183.15 314.533 183.781 314.17 184.725 314.17C185.61 314.17 186.249 314.533 186.264 315.186C186.249 315.825 185.61 316.18 184.725 316.173C183.781 316.18 183.15 315.825 183.157 315.186ZM199.222 312.79C196.406 312.79 194.736 313.582 194.736 315.012C194.736 316.463 196.406 317.262 199.222 317.262C202.046 317.262 203.708 316.463 203.708 315.012C203.708 313.582 202.046 312.79 199.222 312.79ZM193.401 318.975H205.073V318.22H193.401V318.975ZM194.838 320.92H202.648V322.227H194.881V325.203H203.94V324.448H195.767V322.938H203.534V320.195H194.838V320.92ZM195.68 315.012C195.68 314.075 197.03 313.502 199.222 313.502C201.429 313.502 202.779 314.075 202.779 315.012C202.779 315.984 201.429 316.543 199.222 316.551C197.03 316.543 195.68 315.984 195.68 315.012ZM211.304 318.06H211.26V314.126H216.269V313.371H210.36V318.83H211.304C213.808 318.823 215.325 318.743 217.14 318.394L217.038 317.639C215.267 317.995 213.772 318.075 211.304 318.06ZM211.957 320.775H219.289V322.14H212.001V325.174H220.726V324.419H212.901V322.88H220.189V320.02H211.957V320.775ZM215.427 316.202H219.289V319.382H220.189V312.558H219.289V315.462H215.427V316.202ZM230.165 321.283V320.441H229.294V321.283C229.28 322.503 228.22 323.926 226.623 324.506L227.088 325.218C228.329 324.731 229.251 323.795 229.701 322.742C230.071 323.846 230.877 324.833 232.125 325.319C233.338 324.797 234.136 323.766 234.521 322.713C234.956 323.809 235.893 324.746 237.178 325.218L237.657 324.506C236.023 323.955 234.971 322.604 234.971 321.283V320.441H234.1V321.283C234.093 322.285 233.396 323.65 232.111 324.405C230.841 323.715 230.165 322.459 230.165 321.283ZM225.839 318.569L226.362 319.236C227.371 318.634 227.981 317.581 228.307 316.522C228.568 317.596 229.113 318.714 230.136 319.352C231.124 318.743 231.668 317.676 231.944 316.609C232.256 317.676 232.88 318.663 233.897 319.236L234.434 318.569C232.946 317.763 232.358 316.057 232.358 314.707V313.27H231.487V314.707C231.479 315.701 231.196 317.284 230.144 318.271C229.062 317.255 228.772 315.636 228.772 314.707V313.27H227.901V314.707C227.893 315.861 227.298 317.697 225.839 318.569ZM233.505 316.202H235.711V320.107H236.626V312.558H235.711V315.447H233.505V316.202ZM242.064 313.574C240.191 313.582 238.885 315.309 238.899 318.002C238.885 320.703 240.191 322.43 242.064 322.43C243.857 322.43 245.128 320.826 245.222 318.293H248.307V325.377H249.207V312.558H248.307V317.538H245.215C245.069 315.113 243.814 313.582 242.064 313.574ZM239.77 318.002C239.763 315.861 240.707 314.395 242.064 314.387C243.414 314.395 244.365 315.861 244.358 318.002C244.365 320.144 243.414 321.617 242.064 321.617C240.707 321.617 239.763 320.144 239.77 318.002ZM263.138 322.88H260.119V319.294C261.215 318.735 261.875 317.828 261.875 316.681C261.875 314.714 259.959 313.429 257.23 313.415C254.522 313.429 252.598 314.714 252.598 316.681C252.598 317.843 253.281 318.765 254.399 319.316V322.88H251.408V323.664H263.138V322.88ZM253.469 316.681C253.469 315.186 255.045 314.177 257.23 314.184C259.407 314.177 261.004 315.186 261.004 316.681C261.004 318.148 259.407 319.171 257.23 319.164C255.045 319.171 253.469 318.148 253.469 316.681ZM255.299 322.88V319.657C255.879 319.817 256.525 319.904 257.23 319.904C257.948 319.904 258.616 319.817 259.204 319.65V322.88H255.299ZM268.896 313.734H267.793L266.98 317.494H267.836L268.896 313.734ZM264.512 317.494H265.368L266.428 313.734H265.325L264.512 317.494Z" fill="white"/>
<mask id="path-57-inside-1_1249_21001" fill="white">
<path d="M116 351.098H167.581V402.678H116V351.098Z"/>
</mask>
<path d="M116 402.678H115.3V403.378H116V402.678ZM167.581 401.978H116V403.378H167.581V401.978ZM116.7 402.678V351.098H115.3V402.678H116.7Z" fill="#31444E" mask="url(#path-57-inside-1_1249_21001)"/>
<rect x="123.641" y="368.289" width="3.82078" height="26.7455" fill="#3D9DFF"/>
<rect x="131.59" y="381.664" width="3.82078" height="13.3727" fill="#3D9DFF"/>
<rect x="139.539" y="360.648" width="3.82078" height="34.387" fill="#3D9DFF"/>
<rect x="147.488" y="368.289" width="3.82078" height="26.7455" fill="#3D9DFF"/>
<rect x="155.438" y="382.648" width="4.12844" height="12.3853" fill="#3D9DFF"/>
<path d="M165.306 424.771L158.264 427.119C158.32 421.251 159.414 414.18 162.345 408.534C165.348 402.75 170.261 398.485 177.977 398.485C185.812 398.485 191.058 400.199 194.349 403.332C197.571 406.4 198.981 410.891 199.034 416.667H193.36H193.016V417.011V425.574L165.759 429.205V425.098V424.62L165.306 424.771Z" fill="#3D9DFF" stroke="#31444E" stroke-width="0.688073"/>
<path d="M174.598 392.5H182.588V400.8L182.586 400.81C182.58 400.837 182.571 400.879 182.557 400.934C182.53 401.042 182.488 401.199 182.426 401.388C182.302 401.767 182.103 402.269 181.8 402.769C181.194 403.767 180.203 404.716 178.593 404.716C176.983 404.716 175.992 403.767 175.386 402.769C175.083 402.269 174.884 401.767 174.76 401.388C174.698 401.199 174.656 401.042 174.629 400.934C174.615 400.879 174.606 400.837 174.6 400.81L174.598 400.8V392.5Z" fill="white" stroke="#31444E" stroke-width="0.688073"/>
<ellipse rx="3.67117" ry="4.45623" transform="matrix(-0.513937 -0.857828 -0.857828 0.513937 187.564 396.293)" fill="#31444E"/>
<ellipse rx="2.3362" ry="2.7423" transform="matrix(-0.513937 -0.857828 -0.857828 0.513937 190.752 398.28)" fill="#31444E"/>
<ellipse rx="1.6683" ry="1.71351" transform="matrix(-0.513937 -0.857828 -0.857828 0.513937 193.591 399.688)" fill="#31444E"/>
<path d="M200.314 399.56L195.119 399.56L194.113 400.55L195.168 404.978C196.52 405.101 199.162 401.417 200.314 399.56Z" fill="#31444E"/>
<ellipse cx="169.871" cy="394.958" rx="3.6713" ry="4.33881" transform="rotate(-69.6801 169.871 394.958)" fill="#31444E"/>
<ellipse cx="167.151" cy="397.514" rx="2.33628" ry="2.67004" transform="rotate(-69.6801 167.151 397.514)" fill="#31444E"/>
<circle cx="164.652" cy="399.437" r="1.66836" transform="rotate(-69.6801 164.652 399.437)" fill="#31444E"/>
<path d="M158.171 400.599L163.167 399.602L164.303 400.377L164.048 404.911C162.769 405.291 159.597 402.195 158.171 400.599Z" fill="#31444E"/>
<path d="M171.886 388.382C171.886 390.916 169.781 392.982 167.17 392.982C164.56 392.982 162.455 390.916 162.455 388.382C162.455 385.849 164.56 383.783 167.17 383.783C169.781 383.783 171.886 385.849 171.886 388.382Z" fill="white" stroke="#31444E" stroke-width="0.582183"/>
<path d="M194.905 386.843C194.905 389.377 192.801 391.443 190.19 391.443C187.579 391.443 185.475 389.377 185.475 386.843C185.475 384.31 187.579 382.244 190.19 382.244C192.801 382.244 194.905 384.31 194.905 386.843Z" fill="white" stroke="#31444E" stroke-width="0.582183"/>
<path d="M191.08 384.031C191.08 392.588 185.349 399.427 178.389 399.427C171.429 399.427 165.697 392.588 165.697 384.031C165.697 375.474 171.429 368.635 178.389 368.635C185.349 368.635 191.08 375.474 191.08 384.031Z" fill="white" stroke="#31444E" stroke-width="0.582183"/>
<path d="M176.227 393.227C177.308 394.308 179.471 394.308 180.553 393.227" stroke="#31444E" stroke-width="0.341501" stroke-linecap="round"/>
<path d="M178.58 389.551C178.58 389.551 178.374 390.084 178.775 390.49C178.885 390.601 178.849 391.032 178.58 391.167" stroke="#31444E" stroke-width="0.341501" stroke-linecap="round"/>
<path d="M166.967 391.173C165.771 390.115 161.958 386.117 162.157 384.794C160.363 376.193 164.517 370.434 167.507 368.45C169.9 366.862 172.89 367.126 174.086 367.456C174.385 366.464 177.376 364.81 181.562 365.141C185.749 365.471 189.745 366.762 192.925 373.212C195.593 378.621 193.125 382.122 192.925 383.997C192.562 387.418 190.287 391.252 190.533 389.621C190.832 387.636 190.533 389.425 190.533 386.117C190.533 383.471 188.739 381.045 187.842 380.163C187.543 383.801 180.284 385.44 180.965 384.794C183.058 382.81 184.253 376.855 184.253 376.855C181.861 382.942 175.183 384.574 172.89 384.794C174.086 381.927 175.282 376.524 175.282 376.524C175.282 376.524 170.797 385.125 169.9 386.117C169.002 387.11 166.631 385.425 166.012 387.11C165.802 387.68 167.066 389.519 166.967 391.173Z" fill="#31444E"/>
<ellipse cx="173.953" cy="390.012" rx="0.582183" ry="1.16437" fill="#31444E"/>
<path d="M172 385.82C172.445 385.375 173.535 384.752 174.336 385.82" stroke="#31444E" stroke-width="0.341501" stroke-linecap="round"/>
<path d="M181.684 385.82C182.128 385.375 183.218 384.752 184.019 385.82" stroke="#31444E" stroke-width="0.341501" stroke-linecap="round"/>
<ellipse cx="183.27" cy="390.012" rx="0.582183" ry="1.16437" fill="#31444E"/>
<path d="M159.399 424.956C162.16 423.038 174.725 422.895 176.316 423.388C177.907 423.881 182.165 425.898 180.372 429.035C178.579 432.171 175.241 431.582 174.457 430.648C167.854 432.008 165.001 432.776 161.953 432.866C158.144 432.978 155.948 427.354 159.399 424.956Z" fill="white" stroke="#31444E" stroke-width="0.688073" stroke-linecap="round"/>
<path fill-rule="evenodd" clip-rule="evenodd" d="M179.843 411.923L178.758 411.59L175.25 432.642L167.379 433.006V433.904L176.024 434.851H206.59L196.448 431.661L176.399 432.588L179.843 411.923ZM179.845 411.922H210.412L209.326 411.59H178.759L179.845 411.922Z" fill="#999999"/>
<path d="M167.719 433.521L176.109 434.02L175.835 434.486L167.719 433.741V433.521Z" fill="#D9D9D9" stroke="black" stroke-width="0.688073"/>
<path d="M224.164 379.195C227.07 379.195 229.901 380.115 232.253 381.824C234.604 383.532 236.354 385.94 237.252 388.704C238.15 391.468 238.15 394.445 237.252 397.209C236.354 399.973 234.604 402.382 232.253 404.09L224.164 392.957L224.164 379.195Z" fill="#E7EFF7"/>
<path d="M232.251 404.091C230.494 405.368 228.459 406.21 226.314 406.549C224.169 406.889 221.974 406.715 219.909 406.044C217.844 405.373 215.967 404.222 214.431 402.686C212.896 401.15 211.746 399.273 211.075 397.207L224.164 392.957L232.251 404.091Z" fill="#D0E5FA"/>
<path d="M211.074 397.204C210.404 395.138 210.232 392.943 210.573 390.799C210.913 388.654 211.757 386.62 213.034 384.864C214.311 383.107 215.986 381.678 217.921 380.693C219.857 379.708 221.998 379.194 224.169 379.195L224.164 392.957L211.074 397.204Z" fill="#3D9DFF"/>
<circle cx="224.168" cy="392.859" r="13.4174" stroke="#31444E" stroke-width="0.688073"/>
<path d="M176.43 434.503L180.136 412.266H210.004L206.298 434.503H176.43Z" fill="#D9D9D9" stroke="#31444E" stroke-width="0.688073"/>
<rect x="33.2656" y="475.883" width="36.8662" height="20.4331" rx="10.2166" fill="#3D9DFF"/>
<path d="M50.1376 480.943H42.4649V481.769H49.1468V481.782C49.1531 482.658 49.1531 483.674 48.8355 485.097H41.1565V485.923H51.4968V485.097H49.8391C50.1376 483.687 50.1376 482.658 50.1376 481.782V480.943ZM42.4268 491.474H50.1884V487.485H42.4268V491.474ZM43.4177 490.661V488.273H49.1976V490.661H43.4177ZM54.6708 480.753C52.9622 480.759 51.73 481.788 51.7364 483.255C51.73 484.729 52.9622 485.745 54.6708 485.745C56.3603 485.745 57.5862 484.729 57.5925 483.255C57.5862 481.788 56.3603 480.759 54.6708 480.753ZM52.7145 483.255C52.7018 482.277 53.5339 481.585 54.6708 481.591C55.7887 481.585 56.6271 482.277 56.6271 483.255C56.6271 484.246 55.7887 484.932 54.6708 484.932C53.5339 484.932 52.7018 484.246 52.7145 483.255ZM53.4513 487.485H59.8028V488.654H53.4767V491.474H61.2002V490.674H54.4548V489.404H60.7937V486.685H53.4513V487.485ZM59.8028 486.139H60.7937V480.334H59.8028V486.139Z" fill="white"/>
<path d="M85.143 490.725C86.9786 490.725 88.3124 489.442 88.3188 487.663C88.3124 485.872 87.023 484.576 85.27 484.576C84.6222 484.576 84.0061 484.792 83.5932 485.11H83.5043L83.8473 482.417H87.8742V481.401H82.8945L82.2467 486.431H83.3519C83.6885 485.834 84.2919 485.593 85.0668 485.605C86.3053 485.612 87.2009 486.495 87.2009 487.689C87.2009 488.845 86.3371 489.715 85.143 489.721C84.1458 489.715 83.3455 489.105 83.2629 488.286H82.1578C82.2276 489.702 83.4852 490.725 85.143 490.725ZM92.2295 481.401H91.0735L88.787 482.925V484.081L91.0227 482.595H91.0735V490.598H92.2295V481.401ZM93.7648 490.598H94.8572V488.025L95.5876 487.346L98.1473 490.598H99.532L96.407 486.653L99.316 483.7H97.9695L94.9843 486.749H94.8572V481.401H93.7648V490.598ZM101.105 490.598H102.198L103.684 485.339H103.786L105.285 490.598H106.364L108.46 483.7H107.317L105.844 488.934H105.767L104.332 483.7H103.163L101.702 488.959H101.639L100.165 483.7H99.0093L101.105 490.598ZM109.831 486.456C109.831 485.262 110.593 484.589 111.622 484.589C112.613 484.589 113.21 485.205 113.21 486.291V490.598H114.302V486.215C114.302 484.443 113.362 483.611 111.952 483.611C110.859 483.611 110.243 484.068 109.919 484.78H109.831V481.401H108.738V490.598H109.831V486.456Z" fill="#232323"/>
<path d="M262.766 478.331H259.674L255.776 480.814V483.71L259.391 481.445H259.478V494.098H262.766V478.331ZM268.174 492.486H265.082L263.993 498.693H266.301L268.174 492.486ZM275.455 494.315C279.015 494.315 281.574 492.377 281.552 489.677C281.574 487.706 280.3 486.302 277.981 486.018V485.888C279.745 485.572 280.975 484.32 280.964 482.556C280.975 480.063 278.786 478.114 275.498 478.114C272.264 478.114 269.825 479.997 269.771 482.708H272.907C272.961 481.5 274.104 480.716 275.498 480.727C276.892 480.716 277.817 481.543 277.807 482.752C277.817 483.993 276.729 484.843 275.172 484.843H273.713V487.26H275.172C277.023 487.271 278.166 488.174 278.155 489.459C278.166 490.733 277.044 491.604 275.476 491.615C273.952 491.604 272.809 490.831 272.754 489.655H269.444C269.51 492.41 271.992 494.315 275.455 494.315ZM288.767 494.315C292.328 494.315 294.887 492.377 294.865 489.677C294.887 487.706 293.613 486.302 291.294 486.018V485.888C293.057 485.572 294.288 484.32 294.277 482.556C294.288 480.063 292.099 478.114 288.811 478.114C285.577 478.114 283.138 479.997 283.084 482.708H286.22C286.274 481.5 287.417 480.716 288.811 480.727C290.205 480.716 291.13 481.543 291.119 482.752C291.13 483.993 290.041 484.843 288.484 484.843H287.025V487.26H288.484C290.335 487.271 291.479 488.174 291.468 489.459C291.479 490.733 290.357 491.604 288.789 491.615C287.265 491.604 286.122 490.831 286.067 489.655H282.757C282.822 492.41 285.305 494.315 288.767 494.315ZM302.363 494.315C306.305 494.315 308.7 491.397 308.7 486.214C308.7 481.064 306.294 478.114 302.363 478.114C298.433 478.114 296.026 481.064 296.026 486.214C296.026 491.376 298.411 494.315 302.363 494.315ZM299.38 486.214C299.38 482.61 300.545 480.803 302.363 480.792C304.182 480.803 305.358 482.61 305.347 486.214C305.358 489.851 304.193 491.615 302.363 491.615C300.534 491.615 299.358 489.851 299.38 486.214ZM326.173 476.306H323.385V487.804H319.596V489.699H323.385V491.267H326.173V476.306ZM309.317 485.082L309.644 487.282C311.147 487.282 312.834 487.271 314.609 487.205V489.829H311.844V495.753H326.608V493.531H314.609V490.809H317.397V487.042C318.997 486.922 320.62 486.737 322.187 486.476L322.035 484.494C317.843 485.006 312.943 485.06 309.317 485.082ZM310.776 480.531C310.776 482.654 312.813 484.026 315.763 484.015C318.638 484.026 320.696 482.654 320.707 480.531C320.696 478.418 318.638 476.97 315.763 476.981C312.813 476.97 310.776 478.418 310.776 480.531ZM313.411 480.531C313.401 479.551 314.348 479.006 315.763 479.006C317.092 479.006 318.05 479.551 318.072 480.531C318.05 481.489 317.092 482.022 315.763 482.012C314.348 482.022 313.401 481.489 313.411 480.531Z" fill="#3D9DFF"/>
<rect x="33.2656" y="509.883" width="36.8662" height="20.4331" rx="10.2166" fill="#232323" fill-opacity="0.3"/>
<path d="M50.1376 514.943H42.4649V515.769H49.1468V515.782C49.1531 516.658 49.1531 517.674 48.8355 519.097H41.1565V519.923H51.4968V519.097H49.8391C50.1376 517.687 50.1376 516.658 50.1376 515.782V514.943ZM42.4268 525.474H50.1884V521.485H42.4268V525.474ZM43.4177 524.661V522.273H49.1976V524.661H43.4177ZM54.6708 514.753C52.9622 514.759 51.73 515.788 51.7364 517.255C51.73 518.729 52.9622 519.745 54.6708 519.745C56.3603 519.745 57.5862 518.729 57.5925 517.255C57.5862 515.788 56.3603 514.759 54.6708 514.753ZM52.7145 517.255C52.7018 516.277 53.5339 515.585 54.6708 515.591C55.7887 515.585 56.6271 516.277 56.6271 517.255C56.6271 518.246 55.7887 518.932 54.6708 518.932C53.5339 518.932 52.7018 518.246 52.7145 517.255ZM53.4513 521.485H59.8028V522.654H53.4767V525.474H61.2002V524.674H54.4548V523.404H60.7937V520.685H53.4513V521.485ZM59.8028 520.139H60.7937V514.334H59.8028V520.139Z" fill="white"/>
<path d="M85.3462 524.725C87.2835 524.744 88.5474 523.359 88.5474 521.625C88.5474 519.847 87.1818 518.576 85.5495 518.576C84.5586 518.576 83.7139 519.027 83.1867 519.796H83.0724C83.066 517.579 83.9743 516.29 85.486 516.29C86.5086 516.29 87.131 516.9 87.3406 517.713H88.4712C88.2362 516.271 87.1056 515.274 85.486 515.274C83.3264 515.274 81.9926 517.096 81.9926 520.355C81.9926 523.759 83.752 524.706 85.3462 524.725ZM83.2248 521.651C83.2375 520.564 84.1649 519.586 85.3716 519.58C86.5721 519.586 87.4359 520.507 87.4422 521.638C87.4359 522.781 86.534 523.715 85.3462 523.721C84.114 523.715 83.2312 522.73 83.2248 521.651ZM89.1935 524.598H95.1639V523.581H90.7813V523.505L92.8901 521.333C94.5161 519.656 94.9924 518.856 94.9988 517.827C94.9924 516.398 93.811 515.274 92.1406 515.274C90.4765 515.274 89.2189 516.366 89.2316 517.992H90.3113C90.3177 516.963 91.0036 516.271 92.1025 516.264C93.1378 516.271 93.9254 516.881 93.9317 517.827C93.9254 518.678 93.4045 519.3 92.3184 520.456L89.1808 523.759L89.1935 524.598ZM95.9116 524.598H97.004V522.025L97.7345 521.346L100.294 524.598H101.679L98.5538 520.653L101.463 517.7H100.116L97.1311 520.749H97.004V515.401H95.9116V524.598ZM103.252 524.598H104.345L105.831 519.339H105.932L107.431 524.598H108.511L110.607 517.7H109.464L107.99 522.934H107.914L106.479 517.7H105.31L103.849 522.959H103.786L102.312 517.7H101.156L103.252 524.598ZM111.977 520.456C111.977 519.262 112.74 518.589 113.768 518.589C114.759 518.589 115.356 519.205 115.356 520.291V524.598H116.449V520.215C116.449 518.443 115.509 517.611 114.099 517.611C113.006 517.611 112.39 518.068 112.066 518.78H111.977V515.401H110.885V524.598H111.977V520.456Z" fill="#232323"/>
<path d="M262.766 512.331H259.674L255.776 514.814V517.71L259.391 515.445H259.478V528.098H262.766V512.331ZM268.174 526.486H265.082L263.993 532.693H266.301L268.174 526.486ZM275.781 528.315C279.331 528.315 281.748 526.04 281.748 522.849C281.748 519.823 279.592 517.656 276.696 517.667C275.313 517.656 274.115 518.222 273.538 518.995H273.408L273.843 515.01H280.855V512.331H271.143L270.294 521.412H273.255C273.723 520.53 274.551 520.084 275.738 520.084C277.393 520.095 278.58 521.26 278.569 522.937C278.58 524.581 277.415 525.735 275.781 525.724C274.409 525.735 273.288 524.886 273.212 523.655H270.032C270.087 526.377 272.493 528.315 275.781 528.315ZM288.876 528.315C292.437 528.315 294.996 526.377 294.974 523.677C294.996 521.706 293.722 520.302 291.402 520.018V519.888C293.166 519.572 294.397 518.32 294.386 516.556C294.397 514.063 292.208 512.114 288.92 512.114C285.686 512.114 283.247 513.997 283.193 516.708H286.328C286.383 515.5 287.526 514.716 288.92 514.727C290.314 514.716 291.239 515.543 291.228 516.752C291.239 517.993 290.15 518.843 288.593 518.843H287.134V521.26H288.593C290.444 521.271 291.588 522.174 291.577 523.459C291.588 524.733 290.466 525.604 288.898 525.615C287.374 525.604 286.23 524.831 286.176 523.655H282.866C282.931 526.41 285.414 528.315 288.876 528.315ZM302.472 528.315C306.414 528.315 308.809 525.397 308.809 520.214C308.809 515.064 306.403 512.114 302.472 512.114C298.542 512.114 296.135 515.064 296.135 520.214C296.135 525.376 298.52 528.315 302.472 528.315ZM299.489 520.214C299.489 516.61 300.654 514.803 302.472 514.792C304.291 514.803 305.467 516.61 305.456 520.214C305.467 523.851 304.302 525.615 302.472 525.615C300.643 525.615 299.467 523.851 299.489 520.214ZM326.282 510.306H323.494V521.804H319.705V523.699H323.494V525.267H326.282V510.306ZM309.426 519.082L309.753 521.282C311.256 521.282 312.943 521.271 314.718 521.205V523.829H311.952V529.753H326.717V527.531H314.718V524.809H317.505V521.042C319.106 520.922 320.728 520.737 322.296 520.476L322.144 518.494C317.952 519.006 313.052 519.06 309.426 519.082ZM310.885 514.531C310.885 516.654 312.921 518.026 315.872 518.015C318.747 518.026 320.805 516.654 320.816 514.531C320.805 512.418 318.747 510.97 315.872 510.981C312.921 510.97 310.885 512.418 310.885 514.531ZM313.52 514.531C313.509 513.551 314.457 513.006 315.872 513.006C317.201 513.006 318.159 513.551 318.181 514.531C318.159 515.489 317.201 516.022 315.872 516.012C314.457 516.022 313.509 515.489 313.52 514.531Z" fill="#232323" fill-opacity="0.3"/>
<path d="M18.3476 610.449C20.008 610.465 21.0914 609.278 21.0914 607.792C21.0914 606.268 19.9209 605.179 18.5218 605.179C17.6725 605.179 16.9484 605.565 16.4965 606.224H16.3985C16.3931 604.324 17.1716 603.219 18.4673 603.219C19.3438 603.219 19.8774 603.741 20.057 604.438H21.0261C20.8247 603.203 19.8556 602.348 18.4673 602.348C16.6163 602.348 15.473 603.91 15.473 606.703C15.473 609.621 16.9811 610.432 18.3476 610.449ZM16.5292 607.814C16.5401 606.883 17.3349 606.044 18.3693 606.039C19.3983 606.044 20.1387 606.834 20.1441 607.803C20.1387 608.783 19.3656 609.583 18.3476 609.589C17.2914 609.583 16.5346 608.739 16.5292 607.814ZM24.6047 604.144V602.38H23.7554V604.144C23.7446 605.979 22.5523 607.83 21.1096 608.489L21.654 609.207C22.7864 608.636 23.7391 607.411 24.1855 605.952C24.6483 607.329 25.601 608.478 26.7062 609.011L27.2288 608.336C25.8025 607.689 24.5993 605.914 24.6047 604.144ZM28.285 611.244H29.1452V601.542H28.285V611.244Z" fill="#485760"/>
<rect x="145.551" y="599.406" width="65.5655" height="7.43312" fill="#D0E5FA"/>
<rect x="45.7305" y="599.406" width="131.938" height="7.43312" fill="#3D9DFF"/>
<rect x="45.7305" y="606.84" width="144.946" height="7.43312" fill="url(#paint0_linear_1249_21001)"/>
<path d="M15.8541 636.355H16.8776L20.4817 629.387V628.472H15.2988V629.343H19.4691V629.398L15.8541 636.355ZM23.9188 630.16V628.396H23.0695V630.16C23.0586 631.995 21.8663 633.846 20.4236 634.504L20.968 635.223C22.1004 634.651 23.0531 633.427 23.4996 631.967C23.9623 633.345 24.9151 634.494 26.0202 635.027L26.5429 634.352C25.1165 633.704 23.9133 631.929 23.9188 630.16ZM27.599 637.259H28.4592V627.558H27.599V637.259Z" fill="#485760"/>
<rect x="45.6602" y="625.422" width="83.6226" height="7.43312" fill="#3D9DFF"/>
<rect x="45.6602" y="632.855" width="104.064" height="7.43312" fill="url(#paint1_linear_1249_21001)"/>
<path d="M18.2387 662.48C19.8828 662.48 21.037 661.56 21.0479 660.281C21.037 659.262 20.3292 658.419 19.4364 658.277V658.234C20.2095 658.054 20.7321 657.33 20.743 656.47C20.7321 655.266 19.6759 654.379 18.2387 654.379C16.796 654.379 15.7398 655.266 15.7452 656.47C15.7398 657.33 16.257 658.054 17.041 658.234V658.277C16.1427 658.419 15.4349 659.262 15.4404 660.281C15.4349 661.56 16.5782 662.48 18.2387 662.48ZM16.4203 660.226C16.404 659.355 17.1825 658.713 18.2387 658.713C19.3003 658.713 20.0679 659.355 20.0679 660.226C20.0679 661.054 19.3656 661.614 18.2387 661.62C17.1063 661.614 16.404 661.054 16.4203 660.226ZM16.6925 656.546C16.698 655.756 17.3023 655.223 18.2387 655.228C19.1587 655.223 19.7848 655.756 19.7848 656.546C19.7848 657.341 19.137 657.88 18.2387 657.885C17.3349 657.88 16.698 657.341 16.6925 656.546ZM24.5285 656.176V654.412H23.6792V656.176C23.6683 658.01 22.4761 659.861 21.0334 660.52L21.5778 661.239C22.7102 660.667 23.6629 659.442 24.1093 657.983C24.5721 659.36 25.5248 660.509 26.63 661.043L27.1526 660.368C25.7262 659.72 24.5231 657.945 24.5285 656.176ZM28.2088 663.275H29.069V653.573H28.2088V663.275Z" fill="#485760"/>
<rect x="45.7305" y="651.438" width="128.221" height="7.43312" fill="#3D9DFF"/>
<rect x="45.7305" y="658.871" width="233.214" height="7.43312" fill="url(#paint2_linear_1249_21001)"/>
<path d="M18.2278 680.395C16.551 680.378 15.473 681.571 15.473 683.041C15.473 684.559 16.6435 685.643 18.0536 685.643C18.892 685.643 19.6161 685.251 20.0679 684.598H20.1768C20.1659 686.514 19.382 687.625 18.0971 687.625C17.2206 687.625 16.6816 687.102 16.5074 686.394H15.5384C15.7344 687.646 16.7089 688.496 18.0971 688.496C19.9427 688.496 21.0914 686.933 21.0914 684.129C21.0914 681.228 19.5834 680.411 18.2278 680.395ZM16.4312 683.03C16.4203 682.055 17.1988 681.255 18.2278 681.255C19.2676 681.255 20.0244 682.104 20.0244 683.008C20.0244 683.933 19.2241 684.783 18.1951 684.783C17.1662 684.783 16.4258 684.004 16.4312 683.03ZM24.6047 682.191V680.427H23.7554V682.191C23.7446 684.026 22.5523 685.877 21.1096 686.536L21.654 687.254C22.7864 686.683 23.7391 685.458 24.1855 683.999C24.6483 685.376 25.601 686.525 26.7062 687.058L27.2288 686.383C25.8025 685.735 24.5993 683.961 24.6047 682.191ZM28.285 689.29H29.1452V679.589H28.285V689.29Z" fill="#485760"/>
<rect x="193.215" y="677.453" width="96.8748" height="7.43312" fill="#E7EFF7"/>
<rect x="177.668" y="677.453" width="65.9689" height="7.43312" fill="#D0E5FA"/>
<rect x="45.7305" y="677.453" width="131.938" height="7.43312" fill="#3D9DFF"/>
<rect x="45.7305" y="684.887" width="250.868" height="7.43312" fill="url(#paint3_linear_1249_21001)"/>
<path d="M18.3911 706.519H17.4003L15.4404 707.826V708.817L17.3567 707.543H17.4003V714.402H18.3911V706.519ZM22.144 714.511C23.8915 714.511 24.8987 713.041 24.8987 710.461C24.8987 707.902 23.8752 706.41 22.144 706.41C20.4073 706.41 19.3838 707.902 19.3892 710.461C19.3838 713.041 20.3964 714.511 22.144 714.511ZM20.3365 710.461C20.3419 708.419 21.0116 707.265 22.144 707.26C23.2764 707.265 23.946 708.419 23.9405 710.461C23.946 712.502 23.2818 713.64 22.144 713.64C21.0007 713.64 20.3419 712.502 20.3365 710.461ZM28.3685 708.207V706.443H27.5192V708.207C27.5083 710.042 26.316 711.893 24.8733 712.551L25.4177 713.27C26.5501 712.698 27.5029 711.473 27.9493 710.014C28.412 711.392 29.3648 712.54 30.4699 713.074L30.9926 712.399C29.5662 711.751 28.363 709.976 28.3685 708.207ZM32.0487 715.306H32.9089V705.605H32.0487V715.306Z" fill="#485760"/>
<rect x="180.039" y="703.469" width="88.0345" height="7.43312" fill="#E7EFF7"/>
<rect x="93.3984" y="703.469" width="150.521" height="7.43312" fill="#D0E5FA"/>
<rect x="46.0117" y="703.469" width="133.796" height="7.43312" fill="#3D9DFF"/>
<rect x="46.0117" y="710.902" width="206.269" height="7.43312" fill="url(#paint4_linear_1249_21001)"/>
<path d="M45.5234 723.91L45.5234 591.043" stroke="#999999" stroke-opacity="0.2" stroke-width="0.92914" stroke-dasharray="1.86 1.86"/>
<path d="M177.465 723.91L177.465 591.043" stroke="#999999" stroke-opacity="0.2" stroke-width="0.92914" stroke-dasharray="1.86 1.86"/>
<path d="M243.434 723.91L243.434 591.043" stroke="#999999" stroke-opacity="0.2" stroke-width="0.92914" stroke-dasharray="1.86 1.86"/>
<path d="M309.406 723.91L309.406 591.043" stroke="#999999" stroke-opacity="0.2" stroke-width="0.92914" stroke-dasharray="1.86 1.86"/>
<circle cx="261.246" cy="571.059" r="6.03941" fill="#3D9DFF"/>
<path d="M280.671 565.227H272.643V566.523H279.058C279.045 567.336 279.013 568.232 278.765 569.381H271.347V570.69H281.929V569.381H280.398C280.677 568.054 280.677 567.057 280.671 566.155V565.227ZM272.604 576.139H280.633V571.909H272.604V576.139ZM274.192 574.844V573.179H279.02V574.844H274.192ZM291.527 564.719H289.914V566.002H287.043V567.273H289.914V568.162H287.043V569.432H289.914V573.218H291.527V564.719ZM282.431 571.719H283.359C285.086 571.712 286.643 571.655 288.376 571.325L288.211 570.016C286.776 570.277 285.442 570.366 284.032 570.385V565.443H282.431V571.719ZM283.841 576.063H291.806V574.767H285.467V572.455H283.841V576.063Z" fill="#485760"/>
<circle cx="310.192" cy="571.059" r="6.03941" fill="#D8DBE0"/>
<path d="M330.035 564.719H328.422V567.704H326.529V569.013H328.422V573.154H330.035V564.719ZM320.229 570.55L321.054 571.871C322.42 571.42 323.341 570.486 323.855 569.337C324.357 570.372 325.24 571.211 326.517 571.63L327.317 570.347C325.481 569.75 324.656 568.321 324.662 566.98V566.79H326.961V565.494H320.686V566.79H323.011V566.968C323.004 568.448 322.141 569.953 320.229 570.55ZM322.363 576.063H330.315V574.767H323.989V572.417H322.363V576.063ZM340.472 564.719H338.859V566.002H335.988V567.273H338.859V568.162H335.988V569.432H338.859V573.218H340.472V564.719ZM331.377 571.719H332.304C334.032 571.712 335.588 571.655 337.322 571.325L337.157 570.016C335.721 570.277 334.387 570.366 332.977 570.385V565.443H331.377V571.719ZM332.787 576.063H340.752V574.767H334.413V572.455H332.787V576.063Z" fill="#485760"/>
<mask id="path-128-inside-2_1249_21001" fill="white">
<path d="M14.8633 694.066H347.495V758.098H14.8633V694.066Z"/>
</mask>
<path d="M14.8633 694.066H347.495V758.098H14.8633V694.066Z" fill="white"/>
<path d="M27.1295 724.915V736.065H39.7658V724.915M24.1562 727.145L33.4477 718.969L42.7391 727.145" stroke="#D2D6D8" stroke-width="1.85828" stroke-linecap="round" stroke-linejoin="round"/>
<path d="M36.7921 753.915H29.4906V756.971H36.7921V753.915ZM28.3346 753.196H37.9717V752.311H33.7134V751.592C35.5889 751.515 36.6211 751.014 36.6152 750.105C36.6211 749.12 35.3766 748.613 33.1472 748.607C30.9296 748.613 29.6734 749.12 29.6793 750.105C29.6734 751.014 30.7232 751.515 32.5928 751.592V752.311H28.3346V753.196ZM28.83 748.23H37.4291V747.369H33.7134V746.39H32.5928V747.369H28.83V748.23ZM30.5994 756.109V754.777H35.7069V756.109H30.5994ZM30.8707 750.105C30.8648 749.622 31.6728 749.386 33.1472 749.374C34.6335 749.386 35.4238 749.622 35.4238 750.105C35.4238 750.583 34.6335 750.837 33.1472 750.837C31.6728 750.837 30.8648 750.583 30.8707 750.105Z" fill="#D2D6D8"/>
<path d="M113.543 731.961L118.391 736.809" stroke="#485760" stroke-width="1.85828" stroke-linecap="round" stroke-linejoin="round"/>
<path d="M107.488 733.578C111.727 733.578 115.164 730.141 115.164 725.902C115.164 721.663 111.727 718.227 107.488 718.227C103.249 718.227 99.8125 721.663 99.8125 725.902C99.8125 730.141 103.249 733.578 107.488 733.578Z" stroke="#485760" stroke-width="1.85828" stroke-linecap="round" stroke-linejoin="round"/>
<path d="M109.163 754.859H104.881V752.358H103.761V754.859H99.4908V755.779H109.163V754.859ZM99.9391 751.875L100.399 752.759C102.074 752.429 103.637 751.421 104.315 750.011C105.005 751.403 106.58 752.394 108.29 752.712L108.739 751.828C106.727 751.515 104.893 750.076 104.893 748.454V748.36H108.326V747.44H100.293V748.36H103.725V748.454C103.725 750.076 101.903 751.545 99.9391 751.875ZM117.742 746.531H116.621V757.1H117.742V746.531ZM109.06 754.222L109.213 755.154C111.148 755.16 113.707 755.13 116.055 754.741L115.972 753.904C115.04 754.028 114.049 754.098 113.07 754.145V753.119C114.297 752.942 115.093 752.223 115.099 751.202C115.093 750.011 114.038 749.227 112.492 749.221C110.965 749.227 109.927 750.011 109.933 751.202C109.927 752.235 110.729 752.96 111.962 753.125V754.187C110.924 754.21 109.933 754.216 109.06 754.222ZM109.284 748.69H115.736V747.793H113.082V746.555H111.962V747.793H109.284V748.69ZM110.994 751.202C110.983 750.524 111.608 750.094 112.492 750.094C113.407 750.094 114.026 750.524 114.026 751.202C114.026 751.875 113.407 752.294 112.492 752.288C111.608 752.294 110.983 751.875 110.994 751.202Z" fill="#485760"/>
<path d="M175.473 718.227V736.809H194.055M180.676 732.349V728.633M186.622 732.349V724.173M192.569 732.349V719.713" stroke="#D2D6D8" stroke-width="1.85828" stroke-linecap="round" stroke-linejoin="round"/>
<path d="M184.812 752.064H175.139V752.96H179.504V754.906H180.612V752.96H184.812V752.064ZM176.342 756.876H183.738V755.968H177.451V753.986H176.342V756.876ZM176.413 751.132H183.538V746.862H182.417V748.147H177.522V746.862H176.413V751.132ZM177.522 750.235V748.985H182.417V750.235H177.522ZM188.389 748.218V747.074H187.268V748.159C187.262 749.722 186.307 751.114 184.649 751.686L185.251 752.594C186.483 752.122 187.38 751.202 187.846 750.029C188.3 751.096 189.161 751.946 190.323 752.37L190.936 751.474C189.344 750.943 188.383 749.622 188.389 748.218ZM186.312 754.234H192.352V757.1H193.472V753.349H186.312V754.234ZM190.122 749.586H192.352V752.795H193.472V746.531H192.352V748.666H190.122V749.586Z" fill="#D2D6D8"/>
<path d="M268.491 725.003C267.256 721.746 264.11 719.43 260.424 719.43C256.738 719.43 253.592 721.743 252.357 725C250.047 725.607 248.34 727.71 248.34 730.214C248.34 733.194 250.753 735.607 253.729 735.607H267.108C270.084 735.607 272.497 733.194 272.497 730.214C272.497 727.715 270.796 725.612 268.491 725.003ZM269.47 732.579C269.16 732.89 268.792 733.137 268.387 733.305C267.981 733.473 267.547 733.559 267.108 733.558H253.729C252.837 733.558 251.999 733.21 251.368 732.579C251.056 732.269 250.81 731.9 250.642 731.495C250.474 731.089 250.388 730.654 250.389 730.214C250.389 729.459 250.634 728.75 251.095 728.157C251.547 727.583 252.172 727.169 252.877 726.979L253.899 726.712L254.274 725.725C254.506 725.111 254.83 724.536 255.237 724.016C255.639 723.5 256.115 723.047 256.649 722.67C257.758 721.891 259.062 721.479 260.424 721.479C261.786 721.479 263.091 721.891 264.199 722.67C264.735 723.048 265.21 723.501 265.611 724.016C266.019 724.536 266.342 725.113 266.574 725.725L266.946 726.709L267.965 726.979C269.429 727.37 270.448 728.699 270.448 730.214C270.448 731.107 270.101 731.948 269.47 732.579Z" fill="#D2D6D8"/>
<path d="M253.588 747.558H252.291V756.098H253.588V747.558ZM261.813 751.828C261.813 749.097 260.173 747.44 257.967 747.44C255.744 747.44 254.11 749.097 254.11 751.828C254.11 754.552 255.744 756.216 257.967 756.216C260.173 756.216 261.813 754.558 261.813 751.828ZM255.396 751.828C255.402 749.752 256.493 748.625 257.967 748.631C259.43 748.625 260.521 749.752 260.527 751.828C260.521 753.904 259.43 755.03 257.967 755.024C256.493 755.03 255.402 753.904 255.396 751.828ZM261.556 748.678H264.222V756.098H265.519V748.678H268.173V747.558H261.556V748.678Z" fill="#D2D6D8"/>
<path d="M325.347 729.659C324.779 729.659 324.233 729.434 323.831 729.031C323.429 728.629 323.203 728.084 323.203 727.515C323.203 726.947 323.429 726.401 323.831 725.999C324.233 725.597 324.779 725.371 325.347 725.371C325.916 725.371 326.461 725.597 326.863 725.999C327.266 726.401 327.491 726.947 327.491 727.515C327.491 728.084 327.266 728.629 326.863 729.031C326.461 729.434 325.916 729.659 325.347 729.659ZM332.495 729.659C331.926 729.659 331.38 729.434 330.978 729.031C330.576 728.629 330.35 728.084 330.35 727.515C330.35 726.947 330.576 726.401 330.978 725.999C331.38 725.597 331.926 725.371 332.495 725.371C333.063 725.371 333.609 725.597 334.011 725.999C334.413 726.401 334.639 726.947 334.639 727.515C334.639 728.084 334.413 728.629 334.011 729.031C333.609 729.434 333.063 729.659 332.495 729.659ZM339.642 729.659C339.073 729.659 338.528 729.434 338.126 729.031C337.723 728.629 337.498 728.084 337.498 727.515C337.498 726.947 337.723 726.401 338.126 725.999C338.528 725.597 339.073 725.371 339.642 725.371C340.21 725.371 340.756 725.597 341.158 725.999C341.56 726.401 341.786 726.947 341.786 727.515C341.786 728.084 341.56 728.629 341.158 729.031C340.756 729.434 340.21 729.659 339.642 729.659Z" fill="#D2D6D8"/>
<path d="M323.252 745.936H318.404V752.955H319.242C321.235 752.955 322.521 752.89 324.043 752.601L323.913 751.681C322.521 751.946 321.312 752.011 319.537 752.023V746.868H323.252V745.936ZM322.651 749.664H325.588V755.55H326.709V744.957H325.588V748.732H322.651V749.664ZM337.068 753.285H332.762V751.114H335.924V745.677H334.815V747.493H329.625V745.677H328.504V751.114H331.654V753.285H327.395V754.217H337.068V753.285ZM329.625 750.206V748.401H334.815V750.206H329.625ZM345.693 744.957H344.561V755.526H345.693V744.957ZM337.012 752.695L337.601 753.603C341.229 751.864 342.544 749.186 342.544 746.089H337.519V746.986H341.411C341.193 749.451 339.819 751.356 337.012 752.695Z" fill="#D2D6D8"/>
<path d="M14.8633 694.996H347.495V693.137H14.8633V694.996Z" fill="#D2D6D8" mask="url(#path-128-inside-2_1249_21001)"/>
<path d="M48.4081 18.544C45.933 18.5286 44.2906 20.1864 44.2906 22.3685C44.2983 24.4812 45.8404 26.0002 47.8375 25.9925C49.0635 26.0002 50.143 25.4219 50.7059 24.4504H50.8293C50.8138 26.8484 49.904 28.2749 48.2847 28.2749C47.2746 28.2749 46.5884 27.712 46.3879 26.8253H44.3985C44.6453 28.6758 46.1335 30.0175 48.2847 30.0175C51.0297 30.0175 52.7723 27.7891 52.7723 23.9415C52.7646 19.8625 50.5902 18.5594 48.4081 18.544ZM46.2491 22.3222C46.2337 21.1271 47.1667 20.171 48.4235 20.1632C49.6727 20.171 50.5825 21.1733 50.5825 22.3068C50.5902 23.4634 49.6341 24.4658 48.3927 24.4658C47.1435 24.4658 46.2491 23.5251 46.2491 22.3222ZM55.0399 28.4754C55.6799 28.4754 56.2273 27.9356 56.2273 27.2725C56.2273 26.6248 55.6799 26.0928 55.0399 26.085C54.3768 26.0928 53.8293 26.6248 53.837 27.2725C53.8293 27.9356 54.3768 28.4754 55.0399 28.4754ZM53.837 21.289C53.8293 21.9521 54.3768 22.4919 55.0399 22.4919C55.6799 22.4919 56.2273 21.9521 56.2273 21.289C56.2273 20.6413 55.6799 20.1093 55.0399 20.1016C54.3768 20.1093 53.8293 20.6413 53.837 21.289ZM57.2766 27.7814H62.6895V29.8633H64.6018V27.7814H66.0668V26.1313H64.6018V18.6982H62.1035L57.2766 26.1776V27.7814ZM59.3277 26.1313V26.0542L62.597 20.9806H62.7204V26.1313H59.3277ZM71.4186 18.6982H69.4909L66.7305 20.4871V22.3222L69.3367 20.6567H69.3984V29.8633H71.4186V18.6982Z" fill="black"/>
<g clip-path="url(#clip1_1249_21001)">
<rect x="284.574" y="17.6484" width="2.97251" height="11.1469" rx="0.92891" fill="black"/>
<rect x="279.648" y="19.8789" width="2.97251" height="8.91754" rx="0.92891" fill="black"/>
<rect x="274.727" y="22.293" width="2.97251" height="6.50237" rx="0.92891" fill="black"/>
<rect x="269.801" y="24.5234" width="2.97251" height="4.27299" rx="0.92891" fill="black"/>
</g>
<g clip-path="url(#clip2_1249_21001)">
<path d="M300.977 25.2031C301.63 25.2031 302.265 25.3748 302.825 25.7022L303.051 25.8349C303.223 25.9355 303.253 26.1708 303.112 26.3114L301.177 28.2414C301.058 28.3599 300.865 28.3599 300.746 28.2414L298.824 26.3238C298.683 26.1839 298.713 25.9497 298.883 25.8484L299.107 25.7151C299.672 25.3794 300.315 25.2031 300.977 25.2031Z" fill="black"/>
<path d="M300.977 21.6602C302.602 21.6602 304.163 22.1994 305.434 23.198L305.614 23.3392C305.757 23.4517 305.77 23.6637 305.641 23.7923L304.485 24.9445C304.379 25.0511 304.209 25.0633 304.088 24.9733L303.947 24.8686C303.089 24.2304 302.053 23.888 300.977 23.888C299.893 23.888 298.852 24.2346 297.99 24.8802L297.849 24.9858C297.728 25.0766 297.558 25.0646 297.451 24.9578L296.296 23.806C296.168 23.6776 296.18 23.4662 296.322 23.3534L296.501 23.2122C297.775 22.2047 299.343 21.6602 300.977 21.6602Z" fill="black"/>
<path d="M300.976 18.1133C303.555 18.1133 306.022 19.0233 307.975 20.6912L308.142 20.8336C308.276 20.9487 308.284 21.1537 308.159 21.2788L307.007 22.4273C306.896 22.5385 306.717 22.5463 306.597 22.4452L306.454 22.326C304.916 21.0405 302.99 20.3412 300.976 20.3412C298.955 20.3412 297.022 21.0453 295.482 22.3389L295.34 22.4587C295.219 22.5603 295.04 22.5527 294.928 22.4412L293.777 21.2929C293.651 21.168 293.659 20.9633 293.793 20.8481L293.959 20.7057C295.915 19.0287 298.388 18.1133 300.976 18.1133Z" fill="black"/>
</g>
<rect x="315.824" y="19.043" width="19.5071" height="8.36019" rx="1.23545" fill="black"/>
<path opacity="0.4" fill-rule="evenodd" clip-rule="evenodd" d="M319.167 18.1164H331.986C332.911 18.1164 333.55 18.1171 334.045 18.1576C334.53 18.1972 334.796 18.2702 334.991 18.3695C335.428 18.5922 335.783 18.9474 336.006 19.3844C336.105 19.5794 336.178 19.845 336.217 20.3297C336.258 20.8252 336.259 21.4637 336.259 22.3894V24.0614C336.259 24.9872 336.258 25.6256 336.217 26.1212C336.178 26.6059 336.105 26.8715 336.006 27.0664C335.783 27.5034 335.428 27.8587 334.991 28.0813C334.796 28.1806 334.53 28.2536 334.045 28.2932C333.55 28.3337 332.911 28.3344 331.986 28.3344H319.167C318.241 28.3344 317.603 28.3337 317.107 28.2932C316.622 28.2536 316.357 28.1806 316.162 28.0813C315.725 27.8587 315.37 27.5034 315.147 27.0664C315.048 26.8715 314.975 26.6059 314.935 26.1212C314.894 25.6256 314.894 24.9872 314.894 24.0614V22.3894C314.894 21.4636 314.894 20.8252 314.935 20.3297C314.975 19.845 315.048 19.5794 315.147 19.3844C315.37 18.9474 315.725 18.5922 316.162 18.3695C316.357 18.2702 316.622 18.1972 317.107 18.1576C317.603 18.1171 318.241 18.1164 319.167 18.1164ZM313.965 22.3894C313.965 20.5686 313.965 19.6581 314.319 18.9627C314.631 18.3509 315.128 17.8536 315.74 17.5419C316.435 17.1875 317.346 17.1875 319.167 17.1875H331.986C333.807 17.1875 334.717 17.1875 335.412 17.5419C336.024 17.8536 336.522 18.3509 336.833 18.9627C337.188 19.6581 337.188 20.5686 337.188 22.3894V24.0614C337.188 25.8823 337.188 26.7927 336.833 27.4882C336.522 28.0999 336.024 28.5973 335.412 28.909C334.717 29.2633 333.807 29.2633 331.986 29.2633H319.167C317.346 29.2633 316.435 29.2633 315.74 28.909C315.128 28.5973 314.631 28.0999 314.319 27.4882C313.965 26.7927 313.965 25.8823 313.965 24.0614V22.3894ZM338.117 25.0832C338.886 24.8975 339.51 24.2515 339.51 23.2254C339.51 22.1994 338.886 21.5534 338.117 21.3676L338.117 23.2254L338.117 25.0832Z" fill="black"/>
<rect x="114.504" y="774.902" width="133.35" height="4.6457" rx="2.32285" fill="black"/>
</g>
<defs>
<linearGradient id="paint0_linear_1249_21001" x1="190.676" y1="610.556" x2="45.7305" y2="610.556" gradientUnits="userSpaceOnUse">
<stop stop-color="#D8DBE0"/>
<stop offset="1" stop-color="#D8DBE0" stop-opacity="0.4"/>
</linearGradient>
<linearGradient id="paint1_linear_1249_21001" x1="149.724" y1="636.572" x2="45.6602" y2="636.572" gradientUnits="userSpaceOnUse">
<stop stop-color="#D8DBE0"/>
<stop offset="1" stop-color="#D8DBE0" stop-opacity="0.4"/>
</linearGradient>
<linearGradient id="paint2_linear_1249_21001" x1="278.945" y1="662.588" x2="45.7305" y2="662.588" gradientUnits="userSpaceOnUse">
<stop stop-color="#D8DBE0"/>
<stop offset="1" stop-color="#D8DBE0" stop-opacity="0.4"/>
</linearGradient>
<linearGradient id="paint3_linear_1249_21001" x1="296.598" y1="688.603" x2="45.7305" y2="688.603" gradientUnits="userSpaceOnUse">
<stop stop-color="#D8DBE0"/>
<stop offset="1" stop-color="#D8DBE0" stop-opacity="0.4"/>
</linearGradient>
<linearGradient id="paint4_linear_1249_21001" x1="252.281" y1="714.619" x2="46.0117" y2="714.619" gradientUnits="userSpaceOnUse">
<stop stop-color="#D8DBE0"/>
<stop offset="1" stop-color="#D8DBE0" stop-opacity="0.4"/>
</linearGradient>
<clipPath id="clip0_1249_21001">
<rect width="362.365" height="784.194" rx="27.8742" fill="white"/>
</clipPath>
<clipPath id="clip1_1249_21001">
<rect width="18.5782" height="13.0047" fill="white" transform="translate(269.383 16.7188)"/>
</clipPath>
<clipPath id="clip2_1249_21001">
<rect width="18.5782" height="11.1469" fill="white" transform="translate(291.676 17.6484)"/>
</clipPath>
</defs>
</svg>
