<svg width="363" height="785" viewBox="0 0 363 785" fill="none" xmlns="http://www.w3.org/2000/svg">
<g clip-path="url(#clip0_1249_21003)">
<rect x="0.226562" width="362.365" height="784.194" rx="27.8742" fill="white"/>
<path d="M327.289 61.3203C326.944 61.3203 326.613 61.4559 326.369 61.6971C326.125 61.9384 325.988 62.2656 325.988 62.6068C325.988 62.6621 326.001 62.7149 326.009 62.7676C323.76 63.3356 322.086 65.3554 322.086 67.7528V73.5421C322.086 73.9062 321.804 74.1853 321.436 74.1853H320.785V75.4718H325.46C325.382 75.6776 325.341 75.8953 325.338 76.1151C325.338 77.1732 326.219 78.0448 327.289 78.0448C328.359 78.0448 329.24 77.1732 329.24 76.1151C329.238 75.8953 329.196 75.6776 329.118 75.4718H333.793V74.1853H333.143C332.775 74.1853 332.492 73.9062 332.492 73.5421V67.9336C332.492 65.5162 330.859 63.3601 328.57 62.7676C328.577 62.7149 328.59 62.6621 328.59 62.6068C328.59 62.2656 328.453 61.9384 328.209 61.6971C327.965 61.4559 327.634 61.3203 327.289 61.3203ZM327.004 63.8933C327.099 63.8856 327.193 63.8933 327.289 63.8933H327.411C329.535 63.9564 331.192 65.7973 331.192 67.9336V73.5421C331.192 73.7685 331.24 73.9821 331.314 74.1853H323.265C323.343 73.9795 323.384 73.7618 323.387 73.5421V67.7528C323.385 66.7763 323.757 65.8354 324.428 65.1193C325.1 64.4032 326.02 63.9652 327.005 63.8933H327.004ZM327.289 75.4718C327.655 75.4718 327.94 75.7536 327.94 76.1151C327.94 76.4772 327.655 76.7583 327.289 76.7583C326.923 76.7583 326.639 76.4766 326.639 76.1151C326.639 75.7529 326.924 75.4718 327.289 75.4718Z" fill="black"/>
<rect x="327.289" y="56.6758" width="13.4331" height="12.7166" rx="6.35828" fill="#DD8382"/>
<path d="M331.403 67.5352H335.826V66.6246H334.117C333.782 66.6246 333.345 66.6618 332.992 66.6989C334.442 65.3052 335.501 63.9394 335.501 62.6293C335.501 61.3842 334.693 60.5759 333.438 60.5759C332.546 60.5759 331.942 60.9568 331.348 61.598L331.961 62.1833C332.323 61.7652 332.769 61.4307 333.308 61.4307C334.07 61.4307 334.46 61.9417 334.46 62.6758C334.46 63.8 333.429 65.1287 331.403 66.9126V67.5352Z" fill="white"/>
<rect x="15.0938" y="111.496" width="332.632" height="52.961" rx="26.4805" fill="#F4F5F9"/>
<circle cx="74.4997" cy="138.441" r="20.4411" fill="#3D9DFF"/>
<path d="M76.7993 137.329H79.9055L70.4992 146.969L72.6309 139.976L72.8138 139.376H72.1865H69.1125L78.4782 129.901L76.3557 136.726L76.1684 137.329H76.7993Z" fill="white" stroke="white" stroke-width="0.92914" stroke-linecap="round"/>
<circle cx="128.39" cy="138.441" r="20.4411" fill="white" fill-opacity="0.5"/>
<path d="M130.215 145.326C130.214 145.682 130.116 146.031 129.931 146.335C129.746 146.639 129.481 146.886 129.165 147.049C128.849 147.213 128.494 147.286 128.139 147.262C127.784 147.237 127.443 147.115 127.152 146.91C126.862 146.704 126.633 146.423 126.492 146.096C126.35 145.77 126.302 145.411 126.35 145.058C126.399 144.706 126.544 144.373 126.769 144.098C126.994 143.822 127.291 143.613 127.626 143.495V137.561C127.626 137.39 127.694 137.225 127.816 137.104C127.937 136.982 128.102 136.914 128.273 136.914C128.445 136.914 128.609 136.982 128.731 137.104C128.852 137.225 128.92 137.39 128.92 137.561V143.495C129.299 143.629 129.627 143.877 129.859 144.205C130.09 144.533 130.215 144.924 130.215 145.326Z" fill="#E0E0E0"/>
<path d="M125.04 132.384C125.04 131.526 125.381 130.703 125.988 130.096C126.595 129.489 127.418 129.148 128.276 129.148C129.134 129.148 129.957 129.489 130.563 130.096C131.17 130.703 131.511 131.526 131.511 132.384V142.155C132.135 142.792 132.558 143.599 132.725 144.475C132.892 145.351 132.797 146.257 132.452 147.079C132.106 147.902 131.525 148.604 130.783 149.097C130.04 149.591 129.168 149.854 128.276 149.854C127.384 149.854 126.512 149.591 125.769 149.097C125.026 148.604 124.445 147.902 124.1 147.079C123.754 146.257 123.659 145.351 123.826 144.475C123.994 143.599 124.416 142.792 125.04 142.155V132.384ZM128.276 130.443C127.761 130.443 127.267 130.647 126.903 131.011C126.539 131.375 126.334 131.869 126.334 132.384V142.72L126.118 142.914C125.63 143.351 125.286 143.926 125.131 144.563C124.976 145.2 125.019 145.868 125.253 146.48C125.486 147.093 125.9 147.619 126.44 147.991C126.98 148.363 127.62 148.562 128.275 148.562C128.93 148.562 129.57 148.363 130.11 147.991C130.65 147.619 131.064 147.093 131.297 146.48C131.531 145.868 131.574 145.2 131.419 144.563C131.264 143.926 130.92 143.351 130.432 142.914L130.217 142.72V132.384C130.217 131.869 130.012 131.375 129.648 131.011C129.284 130.647 128.791 130.443 128.276 130.443Z" fill="#E0E0E0"/>
<circle cx="182.281" cy="138.441" r="20.4411" fill="white"/>
<path d="M188.786 140.834C188.786 144.496 186.453 146.801 182.746 146.801C179.04 146.801 176.707 144.496 176.707 140.834C176.707 136.904 181.037 131.599 182.364 130.064C182.412 130.01 182.47 129.966 182.536 129.936C182.602 129.906 182.674 129.891 182.747 129.891C182.819 129.891 182.891 129.906 182.957 129.936C183.023 129.966 183.082 130.01 183.129 130.064C184.456 131.599 188.786 136.904 188.786 140.834Z" fill="#979FA4"/>
<path d="M186.365 141.164C186.365 142.018 186.025 142.837 185.422 143.441C184.818 144.045 183.999 144.384 183.145 144.384" fill="#F9F9F9"/>
<path d="M186.365 141.164C186.365 142.018 186.025 142.837 185.422 143.441C184.818 144.045 183.999 144.384 183.145 144.384" stroke="white" stroke-width="1.85828" stroke-linecap="round" stroke-linejoin="round"/>
<circle cx="236.172" cy="138.441" r="20.4411" fill="white" fill-opacity="0.5"/>
<path d="M231.995 131.473C230.452 132.32 229.672 133.796 230.136 136.118C230.62 138.539 231.53 137.977 231.53 141.229C231.53 142.158 231.066 144.016 229.672 144.481" stroke="#E0E0E0" stroke-width="1.85828" stroke-linecap="round"/>
<path d="M238.034 131.473C236.491 132.32 235.711 133.796 236.176 136.118C236.66 138.539 237.569 137.977 237.569 141.229C237.569 142.158 237.105 144.016 235.711 144.481" stroke="#E0E0E0" stroke-width="1.85828" stroke-linecap="round"/>
<path d="M244.073 131.473C242.53 132.32 241.75 133.796 242.215 136.118C242.699 138.539 243.608 137.977 243.608 141.229C243.608 142.158 243.144 144.016 241.75 144.481" stroke="#E0E0E0" stroke-width="1.85828" stroke-linecap="round"/>
<circle cx="290.058" cy="138.441" r="20.4411" fill="white" fill-opacity="0.5"/>
<path d="M283.087 147.033H281.461V130.773H283.087M297.721 130.773H296.095V147.033H297.721M293.851 133.489L290.599 136.741C290.144 136.523 289.633 136.453 289.135 136.538C288.638 136.623 288.18 136.86 287.823 137.217C287.467 137.574 287.229 138.032 287.144 138.529C287.059 139.026 287.13 139.538 287.347 139.993L284.095 143.245L285.25 144.399L288.501 141.147C288.957 141.365 289.468 141.436 289.965 141.35C290.462 141.265 290.921 141.028 291.277 140.671C291.634 140.314 291.871 139.856 291.956 139.359C292.042 138.862 291.971 138.35 291.753 137.895L295.005 134.643L293.851 133.489Z" fill="#E0E0E0"/>
<rect x="147.887" y="59.9766" width="3.17371" height="10.579" fill="#575556"/>
<rect x="156.879" y="67.3828" width="3.17371" height="8.46324" transform="rotate(90 156.879 67.3828)" fill="#575556"/>
<rect x="180.684" y="67.3828" width="3.17371" height="11.637" transform="rotate(90 180.684 67.3828)" fill="#575556"/>
<rect x="176.453" y="79.5469" width="3.17372" height="11.108" transform="rotate(-180 176.453 79.5469)" fill="#575556"/>
<path d="M147.892 59.9802L150.534 62.6237L141.541 73.2028L138.897 70.5583L147.892 59.9802Z" fill="#575556" fill-opacity="0.5"/>
<rect x="147.887" y="70.5547" width="3.17371" height="8.99219" transform="rotate(90 147.887 70.5547)" fill="#575556"/>
<path d="M151.062 79.5469L147.889 79.5469L147.889 70.5547C149.642 70.5547 151.063 71.9756 151.063 73.7284L151.062 79.5469Z" fill="#575556"/>
<path d="M153.707 77.9609H155.948C157.024 77.9609 158.027 77.4152 158.612 76.5114L162.555 70.4183C163.14 69.5145 164.143 68.9688 165.219 68.9688H167.724" stroke="#575556" stroke-width="3.17371"/>
<rect x="184.383" y="73.7305" width="1.0579" height="7.93429" transform="rotate(-90 184.383 73.7305)" fill="#575556"/>
<rect x="192.355" y="79.5469" width="1.0579" height="12.1659" transform="rotate(-180 192.355 79.5469)" fill="#575556"/>
<rect x="185.441" y="79.5664" width="1.0579" height="12.1659" transform="rotate(-180 185.441 79.5664)" fill="#575556"/>
<path d="M202.402 73.4658C202.402 76.6612 200.394 79.0198 198.171 79.0198C195.947 79.0198 193.939 76.6612 193.939 73.4658C193.939 70.2703 195.947 67.9118 198.171 67.9118C200.394 67.9118 202.402 70.2703 202.402 73.4658Z" stroke="#575556" stroke-width="1.0579"/>
<path d="M208.754 78.4922L207.696 78.4922L211.399 67.3842L212.457 67.3842L208.754 78.4922Z" fill="#575556"/>
<path d="M208.758 78.4922L207.7 78.4922L203.997 67.3842L205.055 67.3842L208.758 78.4922Z" fill="#575556"/>
<rect x="212.457" y="79.5469" width="1.05791" height="12.1659" transform="rotate(-180 212.457 79.5469)" fill="#575556"/>
<rect x="205.051" y="79.5469" width="1.05791" height="12.1659" transform="rotate(-180 205.051 79.5469)" fill="#575556"/>
<path fill-rule="evenodd" clip-rule="evenodd" d="M213.516 79.5487H214.989H215.102H220.279V78.4908H215.102L215.102 74.2593H219.221V73.2014H215.102L215.102 68.4415L220.392 68.4415V67.3836L215.102 67.3836V67.3828C214.226 67.3828 213.516 68.0933 213.516 68.9697V79.5487Z" fill="#575556"/>
<path d="M229.877 68.4414L228.731 67.2953L228.731 63.8572L229.877 62.7111L231.023 63.8572L231.023 67.2953L229.877 68.4414Z" fill="#DC8772"/>
<path d="M229.877 61.4766L228.731 60.3305L228.731 56.8923L229.877 55.7462L231.023 56.8923L231.023 60.3305L229.877 61.4766Z" fill="#86A6D9"/>
<path d="M230.492 62.0922L231.638 60.9462L235.076 60.9462L236.223 62.0922L235.076 63.2383L231.638 63.2383L230.492 62.0922Z" fill="#F5C851"/>
<path d="M223.531 62.0922L224.677 60.9462L228.116 60.9462L229.262 62.0922L228.116 63.2383L224.677 63.2383L223.531 62.0922Z" fill="#87D5D7"/>
<path d="M35.7575 198.183H33.6506V213.078H35.7575V198.183ZM24.047 209.599H31.3967V199.359H29.3388V202.985H26.1376V199.359H24.047V209.599ZM26.1376 207.917V204.602H29.3388V207.917H26.1376ZM49.1683 199.473H38.1765V201.123H47.0777C47.0696 202.846 47.0532 204.863 46.5714 207.59L48.613 207.77C49.1601 204.773 49.1601 202.74 49.1683 200.927V199.473ZM36.8372 211.233H50.3932V209.534H45.4935V204.863H43.4356V209.534H41.8023V204.863H39.7281V209.534H36.8372V211.233ZM63.9511 205.81H50.3461V207.444H56.2911V209.844H58.349V207.444H63.9511V205.81ZM51.9466 212.784H62.4485V211.118H54.0045V208.668H51.9466V212.784ZM52.0936 204.765H62.1871V198.657H60.1129V200.208H54.1515V198.657H52.0936V204.765ZM54.1515 203.115V201.76H60.1129V203.115H54.1515ZM69.4569 200.502V198.951H67.35V200.372C67.3419 202.405 66.2803 204.348 63.7896 205.141L64.9165 206.807C66.5906 206.21 67.7584 205.059 68.4117 203.589C69.0405 204.936 70.1347 206.006 71.7272 206.545L72.8378 204.896C70.4859 204.152 69.4488 202.356 69.4569 200.502ZM66.2068 209.354H74.3404V213.046H76.4146V207.705H66.2068V209.354ZM71.5475 202.658H74.3404V207.035H76.4146V198.183H74.3404V200.943H71.5475V202.658Z" fill="#232323" fill-opacity="0.3"/>
<path d="M123.559 198.183H121.566V213.046H123.559V198.183ZM110.803 204.618C110.803 207.958 112.069 210.024 114.037 210.024C115.286 210.024 116.258 209.199 116.813 207.754H118.561V212.36H120.521V198.395H118.561V201.482H116.805C116.258 200.053 115.278 199.236 114.037 199.245C112.069 199.236 110.803 201.294 110.803 204.618ZM112.697 204.618C112.681 202.34 113.163 201.204 114.037 201.204C114.894 201.204 115.417 202.34 115.425 204.618C115.417 206.905 114.894 208.031 114.037 208.015C113.163 208.031 112.681 206.905 112.697 204.618ZM117.222 203.148H118.561V206.072H117.23C117.287 205.622 117.32 205.132 117.32 204.618C117.32 204.095 117.287 203.605 117.222 203.148ZM137.753 205.549H124.197V207.215H137.753V205.549ZM124.769 203.426L125.406 205.01C128.125 204.806 130.02 204.014 130.951 202.813C131.89 204.014 133.776 204.806 136.512 205.01L137.149 203.426C133.899 203.222 132.396 202.258 132.151 201.188H136.447V199.571H131.988V198.232H129.93V199.571H125.504V201.188H129.759C129.505 202.258 127.995 203.222 124.769 203.426ZM125.7 209.975H134.03V213.046H136.104V208.342H125.7V209.975ZM151.311 205.81H137.706V207.444H143.651V209.844H145.709V207.444H151.311V205.81ZM139.307 212.784H149.809V211.118H141.365V208.668H139.307V212.784ZM139.454 204.765H149.547V198.657H147.473V200.208H141.512V198.657H139.454V204.765ZM141.512 203.115V201.76H147.473V203.115H141.512ZM156.817 200.502V198.951H154.71V200.372C154.702 202.405 153.64 204.348 151.15 205.141L152.277 206.807C153.951 206.21 155.118 205.059 155.772 203.589C156.401 204.936 157.495 206.006 159.087 206.545L160.198 204.896C157.846 204.152 156.809 202.356 156.817 200.502ZM153.567 209.354H161.7V213.046H163.775V207.705H153.567V209.354ZM158.908 202.658H161.7V207.035H163.775V198.183H161.7V200.943H158.908V202.658Z" fill="#232323"/>
<rect x="101.508" y="222.543" width="72.4729" height="1.85828" rx="0.92914" fill="#232323"/>
<path d="M48.6347 18.544C46.1595 18.5286 44.5172 20.1864 44.5172 22.3685C44.5249 24.4812 46.067 26.0002 48.0641 25.9925C49.2901 26.0002 50.3696 25.4219 50.9324 24.4504H51.0558C51.0404 26.8484 50.1305 28.2749 48.5113 28.2749C47.5012 28.2749 46.8149 27.712 46.6145 26.8253H44.6251C44.8719 28.6758 46.36 30.0175 48.5113 30.0175C51.2563 30.0175 52.9989 27.7891 52.9989 23.9415C52.9912 19.8625 50.8168 18.5594 48.6347 18.544ZM46.4757 22.3222C46.4603 21.1271 47.3932 20.171 48.6501 20.1632C49.8992 20.171 50.8091 21.1733 50.8091 22.3068C50.8168 23.4634 49.8607 24.4658 48.6192 24.4658C47.3701 24.4658 46.4757 23.5251 46.4757 22.3222ZM55.2665 28.4754C55.9065 28.4754 56.4539 27.9356 56.4539 27.2725C56.4539 26.6248 55.9065 26.0928 55.2665 26.085C54.6033 26.0928 54.0559 26.6248 54.0636 27.2725C54.0559 27.9356 54.6033 28.4754 55.2665 28.4754ZM54.0636 21.289C54.0559 21.9521 54.6033 22.4919 55.2665 22.4919C55.9065 22.4919 56.4539 21.9521 56.4539 21.289C56.4539 20.6413 55.9065 20.1093 55.2665 20.1016C54.6033 20.1093 54.0559 20.6413 54.0636 21.289ZM57.5032 27.7814H62.9161V29.8633H64.8283V27.7814H66.2934V26.1313H64.8283V18.6982H62.3301L57.5032 26.1776V27.7814ZM59.5542 26.1313V26.0542L62.8235 20.9806H62.9469V26.1313H59.5542ZM71.6452 18.6982H69.7175L66.9571 20.4871V22.3222L69.5633 20.6567H69.625V29.8633H71.6452V18.6982Z" fill="black"/>
<rect x="284.801" y="17.6484" width="2.97251" height="11.1469" rx="0.92891" fill="black"/>
<rect x="279.875" y="19.8789" width="2.97251" height="8.91754" rx="0.92891" fill="black"/>
<rect x="274.953" y="22.293" width="2.97251" height="6.50237" rx="0.92891" fill="black"/>
<rect x="270.027" y="24.5234" width="2.97251" height="4.27299" rx="0.92891" fill="black"/>
<g clip-path="url(#clip1_1249_21003)">
<path d="M301.203 25.2031C301.857 25.2031 302.492 25.3748 303.051 25.7022L303.278 25.8349C303.45 25.9355 303.48 26.1708 303.339 26.3114L301.404 28.2414C301.285 28.3599 301.092 28.3599 300.973 28.2414L299.05 26.3238C298.91 26.1839 298.939 25.9497 299.109 25.8484L299.334 25.7151C299.898 25.3794 300.541 25.2031 301.203 25.2031Z" fill="black"/>
<path d="M301.203 21.6602C302.829 21.6602 304.389 22.1994 305.661 23.198L305.841 23.3392C305.984 23.4517 305.996 23.6637 305.867 23.7923L304.712 24.9445C304.605 25.0511 304.436 25.0633 304.315 24.9733L304.174 24.8686C303.315 24.2304 302.28 23.888 301.203 23.888C300.12 23.888 299.078 24.2346 298.217 24.8802L298.076 24.9858C297.955 25.0766 297.785 25.0646 297.678 24.9578L296.523 23.806C296.394 23.6776 296.406 23.4662 296.549 23.3534L296.728 23.2122C298.002 22.2047 299.57 21.6602 301.203 21.6602Z" fill="black"/>
<path d="M301.202 18.1133C303.782 18.1133 306.249 19.0233 308.202 20.6912L308.368 20.8336C308.503 20.9487 308.511 21.1537 308.386 21.2788L307.234 22.4273C307.122 22.5385 306.944 22.5463 306.823 22.4452L306.68 22.326C305.143 21.0405 303.216 20.3412 301.202 20.3412C299.182 20.3412 297.248 21.0453 295.709 22.3389L295.566 22.4587C295.445 22.5603 295.267 22.5527 295.155 22.4412L294.003 21.2929C293.878 21.168 293.886 20.9633 294.02 20.8481L294.186 20.7057C296.141 19.0287 298.615 18.1133 301.202 18.1133Z" fill="black"/>
</g>
<rect x="316.051" y="19.043" width="19.5071" height="8.36019" rx="1.23545" fill="black"/>
<path opacity="0.4" fill-rule="evenodd" clip-rule="evenodd" d="M319.393 18.1164H332.212C333.138 18.1164 333.776 18.1171 334.272 18.1576C334.757 18.1972 335.022 18.2702 335.217 18.3695C335.654 18.5922 336.009 18.9474 336.232 19.3844C336.331 19.5794 336.404 19.845 336.444 20.3297C336.485 20.8252 336.485 21.4637 336.485 22.3894V24.0614C336.485 24.9872 336.485 25.6256 336.444 26.1212C336.404 26.6059 336.331 26.8715 336.232 27.0664C336.009 27.5034 335.654 27.8587 335.217 28.0813C335.022 28.1806 334.757 28.2536 334.272 28.2932C333.776 28.3337 333.138 28.3344 332.212 28.3344H319.393C318.468 28.3344 317.829 28.3337 317.334 28.2932C316.849 28.2536 316.583 28.1806 316.388 28.0813C315.951 27.8587 315.596 27.5034 315.373 27.0664C315.274 26.8715 315.201 26.6059 315.162 26.1212C315.121 25.6256 315.12 24.9872 315.12 24.0614V22.3894C315.12 21.4636 315.121 20.8252 315.162 20.3297C315.201 19.845 315.274 19.5794 315.373 19.3844C315.596 18.9474 315.951 18.5922 316.388 18.3695C316.583 18.2702 316.849 18.1972 317.334 18.1576C317.829 18.1171 318.468 18.1164 319.393 18.1164ZM314.191 22.3894C314.191 20.5686 314.191 19.6581 314.546 18.9627C314.857 18.3509 315.355 17.8536 315.967 17.5419C316.662 17.1875 317.572 17.1875 319.393 17.1875H332.212C334.033 17.1875 334.944 17.1875 335.639 17.5419C336.251 17.8536 336.748 18.3509 337.06 18.9627C337.414 19.6581 337.414 20.5686 337.414 22.3894V24.0614C337.414 25.8823 337.414 26.7927 337.06 27.4882C336.748 28.0999 336.251 28.5973 335.639 28.909C334.944 29.2633 334.033 29.2633 332.212 29.2633H319.393C317.572 29.2633 316.662 29.2633 315.967 28.909C315.355 28.5973 314.857 28.0999 314.546 27.4882C314.191 26.7927 314.191 25.8823 314.191 24.0614V22.3894ZM338.343 25.0832C339.113 24.8975 339.736 24.2515 339.736 23.2254C339.736 22.1994 339.113 21.5534 338.343 21.3676L338.343 23.2254L338.343 25.0832Z" fill="black"/>
<rect x="114.734" y="774.902" width="133.35" height="4.6457" rx="2.32285" fill="black"/>
<rect x="27.3633" y="258.984" width="1.1198" height="4.6908" fill="#888B97" stroke="#31444E" stroke-width="0.5"/>
<circle cx="27.9124" cy="258.74" r="1.3694" fill="#3D9DFF" stroke="#31444E" stroke-width="0.5"/>
<rect x="15.3477" y="263.152" width="25.5159" height="23.3479" rx="11.674" fill="url(#paint0_radial_1249_21003)" stroke="#31444E" stroke-width="0.5"/>
<rect x="20.2109" y="269.531" width="15.698" height="5.9792" rx="2.9896" fill="#323232" stroke="#31444E" stroke-width="0.5"/>
<g filter="url(#filter0_f_1249_21003)">
<circle cx="24.8225" cy="272.51" r="1.6194" fill="#3D9DFF"/>
</g>
<circle cx="24.8225" cy="272.51" r="1.6194" fill="#3D9DFF"/>
<g filter="url(#filter1_f_1249_21003)">
<circle cx="31.2952" cy="272.51" r="1.6194" fill="#3D9DFF"/>
</g>
<circle cx="31.2952" cy="272.51" r="1.6194" fill="#3D9DFF"/>
<path d="M58.043 263.373C53.8428 263.373 50.6953 265.5 50.6953 268.723C50.6953 271.666 53.1768 273.643 56.668 274.04V277.381H49.127V279.637H67.0234V277.381H59.3965V274.04C62.9092 273.653 65.4014 271.677 65.4121 268.723C65.4014 265.5 62.2432 263.373 58.043 263.373ZM53.4023 268.723C53.4023 266.768 55.3037 265.554 58.043 265.564C60.793 265.554 62.6943 266.768 62.7051 268.723C62.6943 270.785 60.793 271.935 58.043 271.945C55.3037 271.935 53.4023 270.785 53.4023 268.723ZM83.024 266.316H72.1529V262.6H69.4244V268.486H83.024V266.316ZM67.19 271.967H85.0865V269.797H67.19V271.967ZM69.231 275.254H80.2095V276.371H69.274V281.699H83.5396V279.594H72.024V278.348H82.938V273.148H69.231V275.254Z" fill="#232323"/>
<path d="M26.8571 300.82H25.3037V313.944H26.8571V300.82ZM15.6639 306.497C15.6639 309.393 16.7817 311.193 18.4948 311.186C19.6054 311.193 20.4765 310.453 20.9556 309.168H22.676V313.306H24.2003V301.053H22.676V303.826H20.9556C20.4692 302.548 19.6054 301.815 18.4948 301.822C16.7817 301.815 15.6639 303.608 15.6639 306.497ZM17.1447 306.497C17.1302 304.45 17.631 303.339 18.4948 303.346C19.3659 303.339 19.9031 304.45 19.9031 306.497C19.9031 308.551 19.3659 309.654 18.4948 309.647C17.631 309.654 17.1302 308.551 17.1447 306.497ZM21.2822 305.132H22.676V307.847H21.2895C21.3476 307.426 21.3839 306.976 21.3839 306.497C21.3839 306.01 21.3476 305.553 21.2822 305.132ZM39.415 307.368H27.4523V308.66H39.415V307.368ZM28.0185 305.568L28.5266 306.802C30.8567 306.606 32.5916 305.88 33.4191 304.74C34.2321 305.88 35.967 306.606 38.3116 306.802L38.8198 305.568C36.0541 305.379 34.508 304.464 34.3338 303.346H38.2391V302.083H34.2176V300.849H32.6207V302.083H28.6283V303.346H32.4973C32.3158 304.464 30.7696 305.379 28.0185 305.568ZM28.7734 311.07H36.3372V313.944H37.9487V309.792H28.7734V311.07ZM46.6594 303.971V301.88H45.0479V303.971C45.0406 306.395 43.8357 308.907 41.7233 309.908L42.7105 311.201C44.2131 310.446 45.2874 308.965 45.8609 307.179C46.4198 308.849 47.4433 310.235 48.8661 310.954L49.8533 309.662C47.8208 308.682 46.6449 306.315 46.6594 303.971ZM50.6373 313.944H52.2487V307.339H54.2667V305.96H52.2487V300.82H50.6373V313.944ZM65.8519 307.136H63.021V305.473C64.0154 305.06 64.5816 304.399 64.5889 303.535C64.5816 301.96 62.7451 301.038 59.8561 301.038C56.9598 301.038 55.1233 301.96 55.1233 303.535C55.1233 304.392 55.6822 305.052 56.6767 305.473V307.136H53.8893V308.428H65.8519V307.136ZM55.283 311.564C55.283 313.088 56.9888 313.915 59.8561 313.915C62.6798 313.915 64.3929 313.088 64.4002 311.564C64.3929 310.054 62.6798 309.212 59.8561 309.226C56.9888 309.212 55.283 310.054 55.283 311.564ZM56.8073 303.535C56.7928 302.729 57.9179 302.279 59.8561 302.287C61.7869 302.279 62.9193 302.729 62.9193 303.535C62.9193 304.334 61.7869 304.762 59.8561 304.755C57.9179 304.762 56.7928 304.334 56.8073 303.535ZM56.9235 311.564C56.9162 310.83 57.947 310.453 59.8561 310.446C61.7361 310.453 62.7742 310.83 62.7887 311.564C62.7742 312.304 61.7361 312.703 59.8561 312.696C57.947 312.703 56.9162 312.304 56.9235 311.564ZM58.3027 307.136V305.887C58.7745 305.952 59.2971 305.989 59.8561 305.989C60.415 305.989 60.9377 305.952 61.4095 305.887V307.136H58.3027ZM78.0033 302.693H76.1596V300.835H74.5481V308.762H76.1596V306.802H78.0033V305.452H76.1596V304.029H78.0033V302.693ZM66.302 302.911H70.7154V304.188H66.3165V308.108H67.3908C69.9823 308.116 71.6954 308.043 73.648 307.687L73.4738 306.395C71.6881 306.693 70.1492 306.773 67.928 306.787V305.408H72.2978V301.633H66.302V302.911ZM67.4344 311.491C67.4271 313.03 69.1257 313.915 71.8768 313.915C74.5844 313.915 76.283 313.03 76.2902 311.491C76.283 309.945 74.5844 309.016 71.8768 309.008C69.1257 309.016 67.4271 309.945 67.4344 311.491ZM69.0168 311.491C69.0096 310.7 70.0403 310.271 71.8768 310.271C73.6843 310.271 74.6933 310.7 74.6933 311.491C74.6933 312.275 73.6843 312.703 71.8768 312.696C70.0403 312.703 69.0096 312.275 69.0168 311.491ZM87.3238 301.633H80.994V307.092H87.3238V301.633ZM81.778 312.667L82.3296 313.901C84.471 313.669 86.1043 312.856 86.91 311.752C87.7085 312.841 89.32 313.676 91.4468 313.901L91.9985 312.667C89.4869 312.413 87.9045 311.302 87.7593 310.286H91.5049V309.066H87.7158V307.92H86.0898V309.066H82.3151V310.286H86.0535C85.9083 311.331 84.2968 312.449 81.778 312.667ZM82.591 305.829V302.911H85.7268V305.829H82.591ZM89.6321 308.297H91.2291V300.82H89.6321V308.297ZM106.807 306.932H94.844V308.239H106.807V306.932ZM95.4247 305.074L95.9764 306.352C98.3573 306.105 100.099 305.154 100.811 303.826C101.522 305.154 103.286 306.105 105.674 306.352L106.24 305.074C103.751 304.835 102.183 303.847 101.943 302.766H105.732V301.445H95.9328V302.766H99.6857C99.4389 303.862 97.8565 304.835 95.4247 305.074ZM96.2377 311.52C96.2377 313.066 97.9581 313.93 100.811 313.93C103.642 313.93 105.348 313.066 105.355 311.52C105.348 309.996 103.642 309.11 100.811 309.11C97.9581 309.11 96.2377 309.996 96.2377 311.52ZM97.8782 311.52C97.871 310.758 98.9017 310.373 100.811 310.373C102.691 310.373 103.729 310.758 103.743 311.52C103.729 312.282 102.691 312.66 100.811 312.667C98.9017 312.66 97.871 312.282 97.8782 311.52ZM117.114 300.82H115.503V308.195H117.114V305.132H118.944V303.811H117.114V300.82ZM106.662 307.15L107.3 308.442C111.227 307.39 113.463 305.03 113.47 301.619H107.286V302.925H111.714C111.431 304.82 109.703 306.373 106.662 307.15ZM108.621 313.77H117.114V308.718H108.621V313.77ZM110.233 312.493V310.039H115.517V312.493H110.233ZM124.649 300.951C121.666 300.958 119.916 301.757 119.916 303.201C119.916 304.668 121.666 305.459 124.649 305.466C127.64 305.459 129.375 304.668 129.382 303.201C129.375 301.757 127.64 300.958 124.649 300.951ZM118.682 307.368H121.775V308.413H120.09V309.604H127.567V310.475H120.105V313.828H129.513V312.594H121.687V311.622H129.15V308.413H127.538V307.368H130.645V306.09H118.682V307.368ZM121.615 303.201C121.608 302.526 122.653 302.163 124.649 302.156C126.674 302.163 127.712 302.526 127.712 303.201C127.712 303.927 126.674 304.261 124.649 304.276C122.653 304.261 121.608 303.927 121.615 303.201ZM123.372 308.413V307.368H125.927V308.413H123.372Z" fill="#3D9DFF"/>
<path d="M16.0885 328.362C16.0994 330.42 16.6547 332.129 17.6564 333.588H18.4839C17.749 332.505 17.063 330.306 17.0576 328.362C17.063 326.424 17.749 324.219 18.4839 323.146H17.6564C16.6547 324.6 16.0994 326.31 16.0885 328.362ZM23.195 324.246H21.2024V322.863H20.3531V324.246H18.3388V324.943H23.195V324.246ZM18.6872 327.796C18.6872 329.097 19.5637 330.012 20.7669 330.017C21.9864 330.012 22.8574 329.097 22.8683 327.796C22.8574 326.511 21.9864 325.602 20.7669 325.596C19.5637 325.602 18.6872 326.511 18.6872 327.796ZM19.4494 327.796C19.4494 326.947 19.9992 326.326 20.7669 326.315C21.5399 326.326 22.1061 326.947 22.1061 327.796C22.1061 328.656 21.5399 329.271 20.7669 329.266C19.9992 329.271 19.4494 328.656 19.4494 327.796ZM23.6958 331.77H24.5016V327.36H25.7864V332.249H26.603V322.569H25.7864V326.653H24.5016V322.809H23.6958V331.77ZM34.6459 322.569H33.7857V328.351H34.6459V325.814H36.094V325.095H34.6459V322.569ZM27.514 327.556H28.2653C30.3123 327.556 31.4719 327.502 32.8275 327.23L32.7404 326.522C31.4393 326.789 30.3123 326.849 28.3524 326.859V324.018H31.8149V323.31H27.514V327.556ZM28.3198 330.376C28.3252 331.552 29.5556 332.227 31.5318 332.227C33.5081 332.227 34.7221 331.552 34.7221 330.376C34.7221 329.217 33.5081 328.542 31.5318 328.536C29.5556 328.542 28.3252 329.217 28.3198 330.376ZM29.1582 330.376C29.1636 329.663 30.0728 329.233 31.5318 329.244C32.98 329.233 33.9 329.663 33.8946 330.376C33.9 331.095 32.98 331.536 31.5318 331.541C30.0728 331.536 29.1636 331.095 29.1582 330.376ZM45.9407 322.569H45.1132V332.249H45.9407V322.569ZM37.7636 326.751C37.769 328.808 38.5857 330.12 39.8433 330.115C40.6708 330.12 41.3132 329.554 41.6562 328.58H43.1969V331.759H44.0135V322.776H43.1969V324.921H41.6562C41.3078 323.952 40.6708 323.391 39.8433 323.386C38.5857 323.391 37.769 324.693 37.7636 326.751ZM38.5584 326.751C38.553 325.177 39.0484 324.192 39.8433 324.192C40.6327 324.192 41.139 325.177 41.139 326.751C41.139 328.318 40.6327 329.309 39.8433 329.298C39.0484 329.309 38.553 328.318 38.5584 326.751ZM41.8358 325.629H43.1969V327.861H41.8413C41.9012 327.524 41.9338 327.148 41.9338 326.751C41.9338 326.348 41.9012 325.972 41.8358 325.629ZM55.1704 327.458H46.3509V328.155H55.1704V327.458ZM46.8735 326.25L47.1566 326.925C48.7409 326.745 50.1672 326.163 50.7607 325.183C51.3432 326.163 52.7696 326.745 54.3647 326.925L54.6478 326.25C52.8186 326.092 51.2887 325.34 51.2289 324.235H54.2776V323.549H51.1744V322.548H50.336V323.549H47.2655V324.235H50.2925C50.2217 325.34 48.6864 326.092 46.8735 326.25ZM47.3308 329.897H53.2214V332.249H54.0816V329.2H47.3308V329.897ZM63.8775 327.676H55.0579V328.373H63.8775V327.676ZM56.0379 324.834C56.0379 326.037 57.3663 326.761 59.4677 326.761C61.5474 326.761 62.8812 326.037 62.8867 324.834C62.8812 323.62 61.5474 322.907 59.4677 322.918C57.3663 322.907 56.0379 323.62 56.0379 324.834ZM56.2012 332.042H62.8976V331.324H57.0614V329.222H56.2012V332.042ZM56.9198 324.834C56.9144 324.077 57.9052 323.604 59.4677 323.604C61.0193 323.604 62.0102 324.077 62.0156 324.834C62.0102 325.602 61.0193 326.065 59.4677 326.065C57.9052 326.065 56.9144 325.602 56.9198 324.834ZM68.5631 331.476C70.3107 331.476 71.3179 330.006 71.3179 327.426C71.3179 324.867 70.2944 323.375 68.5631 323.375C66.8264 323.375 65.8029 324.867 65.8084 327.426C65.8029 330.006 66.8155 331.476 68.5631 331.476ZM66.7557 327.426C66.7611 325.384 67.4307 324.23 68.5631 324.224C69.6955 324.23 70.3652 325.384 70.3597 327.426C70.3652 329.467 69.701 330.605 68.5631 330.605C67.4199 330.605 66.7611 329.467 66.7557 327.426ZM74.2759 331.476C76.0235 331.476 77.0306 330.006 77.0306 327.426C77.0306 324.867 76.0071 323.375 74.2759 323.375C72.5392 323.375 71.5157 324.867 71.5211 327.426C71.5157 330.006 72.5283 331.476 74.2759 331.476ZM72.4684 327.426C72.4739 325.384 73.1435 324.23 74.2759 324.224C75.4083 324.23 76.0779 325.384 76.0725 327.426C76.0779 329.467 75.4137 330.605 74.2759 330.605C73.1326 330.605 72.4739 329.467 72.4684 327.426ZM77.7239 328.133V329.037C78.056 328.585 78.4752 328.357 78.9543 328.351C79.7545 328.357 80.5113 328.983 81.3388 328.983C81.8179 328.983 82.2425 328.77 82.6019 328.362V327.458C82.2752 327.91 81.8506 328.139 81.3606 328.144C80.5657 328.139 79.8144 327.518 78.9869 327.513C78.5078 327.518 78.0777 327.725 77.7239 328.133ZM83.11 331.367H88.2275V330.496H84.471V330.431L86.2785 328.569C87.6722 327.132 88.0805 326.446 88.086 325.564C88.0805 324.339 87.0679 323.375 85.6361 323.375C84.2097 323.375 83.1318 324.312 83.1426 325.705H84.0682C84.0736 324.823 84.6616 324.23 85.6034 324.224C86.4908 324.23 87.1659 324.753 87.1713 325.564C87.1659 326.293 86.7195 326.827 85.7885 327.818L83.0991 330.649L83.11 331.367ZM88.3545 329.756H92.1764V331.367H93.1128V329.756H94.2125V328.896H93.1128V323.484H91.9041L88.3545 328.95V329.756ZM89.4107 328.896V328.83L92.0784 324.725H92.1764V328.896H89.4107ZM97.6713 325.172V323.408H96.822V325.172C96.8112 327.006 95.6189 328.857 94.1762 329.516L94.7206 330.235C95.853 329.663 96.8057 328.438 97.2521 326.979C97.7149 328.357 98.6676 329.505 99.7728 330.039L100.295 329.364C98.8691 328.716 97.6659 326.941 97.6713 325.172ZM101.352 332.271H102.212V322.569H101.352V332.271ZM114.679 322.569H113.819V332.249H114.679V322.569ZM106.796 329.734L107.264 330.431C110.509 328.874 111.804 326.408 111.815 323.626H107.242V324.322H110.944C110.754 326.636 109.414 328.493 106.796 329.734ZM120.348 323.778V323.756H123.419V323.059H116.189V323.756H119.238V323.778C119.243 324.97 117.632 325.939 115.927 326.173L116.243 326.849C117.811 326.62 119.265 325.841 119.793 324.709C120.316 325.841 121.78 326.62 123.342 326.849L123.68 326.173C121.965 325.939 120.343 324.97 120.348 323.778ZM115.372 328.264H119.444V330.246H120.294V328.264H124.235V327.556H115.372V328.264ZM116.505 332.042H123.244V331.324H117.365V329.277H116.505V332.042ZM128.5 323.201C126.48 323.206 124.961 324.263 124.961 325.858C124.961 327.469 126.48 328.525 128.5 328.514C130.52 328.525 132.039 327.469 132.039 325.858C132.039 324.263 130.52 323.206 128.5 323.201ZM124.09 330.964H132.953V330.246H124.09V330.964ZM125.778 325.858C125.767 324.698 126.937 323.892 128.5 323.898C130.052 323.892 131.211 324.698 131.211 325.858C131.211 327.034 130.052 327.818 128.5 327.818C126.937 327.818 125.767 327.034 125.778 325.858ZM141.66 330.333H137.621V328.504H140.767V327.796H134.757V326.217H140.539V323.288H133.886V323.996H139.7V325.52H133.908V328.504H136.782V330.333H132.797V331.051H141.66V330.333ZM150.941 322.569H150.092V328.199H150.941V325.781H152.4V325.052H150.941V322.569ZM143.395 324.279H149.166V323.571H146.705V322.482H145.856V323.571H143.395V324.279ZM143.951 326.424C143.945 327.458 144.876 328.128 146.281 328.122C147.669 328.128 148.6 327.458 148.611 326.424C148.6 325.389 147.669 324.731 146.281 324.725C144.876 324.731 143.945 325.389 143.951 326.424ZM144.767 326.424C144.762 325.798 145.366 325.379 146.281 325.389C147.184 325.379 147.794 325.798 147.805 326.424C147.794 327.055 147.184 327.469 146.281 327.469C145.366 327.469 144.762 327.055 144.767 326.424ZM144.822 332.118H150.941V328.623H150.092V329.658H145.671V328.623H144.822V332.118ZM145.671 331.433V330.333H150.092V331.433H145.671ZM160.062 322.569H159.212V332.249H160.062V322.569ZM152.712 329.756H153.496C155.048 329.756 156.577 329.636 158.298 329.277L158.178 328.547C156.556 328.89 155.031 329.004 153.55 329.015V323.528H152.712V329.756ZM168.279 322.569H167.429V332.271H168.279V327.121H169.901V326.402H168.279V322.569ZM161.212 329.843H161.974C163.814 329.843 165.083 329.788 166.602 329.516L166.493 328.776C165.05 329.043 163.814 329.119 162.061 329.124V324.224H165.731V323.517H161.212V329.843ZM170.518 331.433C170.905 331.427 171.22 331.111 171.215 330.725C171.22 330.344 170.905 330.028 170.518 330.028C170.137 330.028 169.81 330.344 169.821 330.725C169.81 331.111 170.137 331.427 170.518 331.433ZM173.814 328.362C173.803 326.31 173.247 324.6 172.246 323.146H171.418C172.153 324.219 172.839 326.424 172.845 328.362C172.839 330.306 172.153 332.505 171.418 333.588H172.246C173.247 332.129 173.803 330.42 173.814 328.362Z" fill="#485760" fill-opacity="0.6"/>
<path d="M25.1839 360.575H23.5706V363.446H22.0081V364.754H23.5706V365.91H22.0081V367.193H23.5706V369.378H25.1839V360.575ZM15.466 363.065H21.8938V361.781H19.5691V360.549H17.9559V361.781H15.466V363.065ZM16.0377 365.745C16.025 367.079 17.1746 368.006 18.7434 368.006C20.3313 368.006 21.4746 367.079 21.4873 365.745C21.4746 364.411 20.3313 363.471 18.7434 363.471C17.1746 363.471 16.025 364.411 16.0377 365.745ZM17.4858 371.919H25.4253V370.623H19.1245V368.628H17.4858V371.919ZM17.5494 365.745C17.543 365.097 18.0384 364.735 18.7434 364.729C19.4421 364.735 19.9566 365.097 19.9629 365.745C19.9566 366.412 19.4421 366.774 18.7434 366.774C18.0384 366.774 17.543 366.412 17.5494 365.745ZM35.84 360.562H34.2902V365.008H33.3121V360.727H31.775V368.254C30.0347 367.352 29.4376 365.434 29.4376 363.42V363.052H31.2034V361.756H25.9062V363.052H27.8624V363.42C27.8561 365.631 27.2717 367.676 25.5124 368.667L26.5159 369.911C27.6211 369.251 28.3007 368.146 28.6818 366.793C29.0946 367.968 29.787 368.927 30.8604 369.492L31.775 368.279V371.588H33.3121V366.329H34.2902V372.122H35.84V360.562ZM40.3224 363.179V361.451H38.6964V363.179C38.6964 365.326 37.7754 367.536 35.8128 368.438L36.8163 369.746C38.1247 369.098 39.0139 367.873 39.5221 366.38C39.9984 367.771 40.8368 368.914 42.0754 369.53L43.0535 368.235C41.1989 367.339 40.316 365.249 40.3224 363.179ZM43.5616 372.122H45.1876V366.393H46.8899V365.021H45.1876V360.562H43.5616V372.122ZM56.9235 366.037H54.4972V364.665C55.361 364.297 55.8501 363.719 55.8564 362.963C55.8501 361.566 54.205 360.733 51.6517 360.727C49.0793 360.733 47.4343 361.566 47.4343 362.963C47.4343 363.706 47.9106 364.278 48.7554 364.652V366.037H46.3799V367.333H56.9235V366.037ZM47.5867 370.013C47.5867 371.379 49.1047 372.109 51.639 372.109C54.1351 372.109 55.6532 371.379 55.6659 370.013C55.6532 368.679 54.1351 367.936 51.639 367.942C49.1047 367.936 47.5867 368.679 47.5867 370.013ZM49.1238 362.963C49.1111 362.315 50.0193 361.972 51.6517 361.972C53.265 361.972 54.1796 362.315 54.1796 362.963C54.1796 363.598 53.265 363.922 51.6517 363.916C50.0193 363.922 49.1111 363.598 49.1238 362.963ZM49.2381 370.013C49.2318 369.441 50.0384 369.168 51.639 369.162C53.2078 369.168 54.0335 369.441 54.0399 370.013C54.0335 370.604 53.2078 370.902 51.639 370.902C50.0384 370.902 49.2318 370.604 49.2381 370.013ZM50.3941 366.037V365.065C50.7815 365.11 51.2007 365.135 51.6517 365.135C52.09 365.135 52.5028 365.116 52.8839 365.065V366.037H50.3941ZM67.4271 362.112H65.8646V360.575H64.2386V367.549H65.8646V365.897H67.4271V364.563H65.8646V363.458H67.4271V362.112ZM57.0995 362.531H60.8342V363.484H57.1122V367.041H58.0903C60.4341 367.041 61.9203 366.983 63.5781 366.672L63.4002 365.376C61.9267 365.637 60.631 365.707 58.7255 365.719V364.703H62.4094V361.261H57.0995V362.531ZM58.0903 369.95C58.0903 371.315 59.6084 372.109 62.0537 372.109C64.4546 372.109 65.9726 371.315 65.979 369.95C65.9726 368.559 64.4546 367.727 62.0537 367.727C59.6084 367.727 58.0903 368.559 58.0903 369.95ZM59.6909 369.95C59.6782 369.308 60.5103 368.978 62.0537 368.984C63.5781 368.978 64.3784 369.308 64.3784 369.95C64.3784 370.578 63.5781 370.902 62.0537 370.902C60.5103 370.902 59.6782 370.578 59.6909 369.95Z" fill="#232323"/>
<path d="M72.8923 370.953H74.8739L78.7484 363.344V361.756H72.2571V363.319H76.7667V363.382L72.8923 370.953ZM82.3669 371.08C84.463 371.08 85.9746 369.975 85.9746 368.476C85.9746 367.32 85.0727 366.38 83.9548 366.202V366.139C84.9203 365.948 85.6253 365.116 85.6316 364.106C85.6253 362.677 84.247 361.629 82.3669 361.629C80.4869 361.629 79.1086 362.677 79.115 364.106C79.1086 365.116 79.7946 365.948 80.7918 366.139V366.202C79.6485 366.38 78.7593 367.32 78.7593 368.476C78.7593 369.975 80.2646 371.08 82.3669 371.08ZM80.7537 368.285C80.7473 367.485 81.4333 366.907 82.3669 366.901C83.3006 366.907 83.9866 367.492 83.9802 368.285C83.9866 369.073 83.3387 369.626 82.3669 369.619C81.3952 369.626 80.7473 369.073 80.7537 368.285ZM80.9823 364.297C80.976 363.579 81.5412 363.077 82.3669 363.077C83.1863 363.077 83.7579 363.579 83.7643 364.297C83.7579 365.033 83.1736 365.548 82.3669 365.554C81.554 365.548 80.976 365.033 80.9823 364.297ZM88.7675 366.355C90.1267 366.355 90.8826 365.364 90.8889 363.903C90.8826 362.448 90.1458 361.439 88.7675 361.439C87.4273 361.439 86.6461 362.448 86.6461 363.903C86.6461 365.351 87.3892 366.355 88.7675 366.355ZM87.9418 363.903C87.9481 363.122 88.2276 362.575 88.7675 362.569C89.3391 362.569 89.5868 363.109 89.5932 363.903C89.5868 364.697 89.3137 365.218 88.7675 365.224C88.234 365.218 87.9481 364.697 87.9418 363.903ZM87.9672 370.953H89.3899L95.7161 361.756H94.2933L87.9672 370.953ZM92.8579 368.806C92.8579 370.254 93.601 371.258 94.9666 371.258C96.3385 371.258 97.0944 370.267 97.1007 368.806C97.0944 367.352 96.3576 366.348 94.9666 366.342C93.6391 366.348 92.8579 367.352 92.8579 368.806ZM94.1536 368.806C94.16 368.025 94.4331 367.479 94.9666 367.485C95.5446 367.472 95.7986 368.012 95.805 368.806C95.7986 369.6 95.5255 370.127 94.9666 370.127C94.4458 370.127 94.16 369.6 94.1536 368.806Z" fill="#3D9DFF"/>
<rect x="15.0977" y="382.668" width="332.632" height="11.1497" rx="5.57484" fill="#F4F5F9"/>
<rect x="15.0977" y="382.668" width="208.127" height="11.1497" rx="5.57484" fill="#6E48A1" fill-opacity="0.2"/>
<rect x="15.0977" y="382.668" width="153.308" height="11.1497" rx="5.57484" fill="#3D9DFF"/>
<path d="M15.7328 413.655H20.1916V415.535H21.2841V413.655H22.5671V412.652H21.2841V406.338H19.874L15.7328 412.715V413.655ZM16.965 412.652V412.575L20.0773 407.786H20.1916V412.652H16.965ZM23.1496 415.535H29.12V414.519H24.7375V414.443L26.8462 412.27C28.4722 410.594 28.9486 409.793 28.9549 408.764C28.9486 407.335 27.7672 406.211 26.0967 406.211C24.4326 406.211 23.175 407.304 23.1877 408.93H24.2675C24.2738 407.901 24.9598 407.208 26.0586 407.202C27.0939 407.208 27.8815 407.818 27.8878 408.764C27.8815 409.616 27.3607 410.238 26.2746 411.394L23.1369 414.697L23.1496 415.535ZM32.2033 415.535H33.2957V412.963L34.0262 412.283L36.5858 415.535H37.9705L34.8455 411.591L37.7545 408.637H36.408L33.4228 411.686H33.2957V406.338H32.2033V415.535ZM39.836 415.535H41.0174L43.0372 408.256H43.1134L45.1205 415.535H46.3019L48.8171 406.338H47.6611L45.7429 413.782H45.6667L43.7105 406.338H42.4274L40.4839 413.782H40.3949L38.4768 406.338H37.3208L39.836 415.535ZM50.0602 411.394C50.0602 410.2 50.8224 409.527 51.8513 409.527C52.8422 409.527 53.4392 410.143 53.4392 411.229V415.535H54.5317V411.153C54.5317 409.381 53.5916 408.548 52.1816 408.548C51.0891 408.548 50.473 409.006 50.1491 409.717H50.0602V406.338H48.9677V415.535H50.0602V411.394Z" fill="#232323"/>
<path d="M290.661 416.535H299.122V414.51H294.075V414.445L295.872 412.697C298.305 410.492 298.958 409.39 298.958 408.042C298.958 405.993 297.276 404.547 294.745 404.547C292.254 404.547 290.539 406.025 290.547 408.336H292.883C292.874 407.201 293.601 406.499 294.712 406.507C295.798 406.499 296.59 407.152 296.59 408.206C296.59 409.145 295.994 409.798 294.892 410.851L290.645 414.755L290.661 416.535ZM302.586 415.327H300.267L299.45 419.981H301.181L302.586 415.327ZM307.912 416.698C310.868 416.698 312.665 414.51 312.665 410.623C312.665 406.76 310.86 404.547 307.912 404.547C304.964 404.547 303.159 406.76 303.159 410.623C303.159 414.494 304.948 416.698 307.912 416.698ZM305.675 410.623C305.675 407.92 306.548 406.564 307.912 406.556C309.276 406.564 310.158 407.92 310.15 410.623C310.158 413.35 309.284 414.673 307.912 414.673C306.54 414.673 305.658 413.35 305.675 410.623ZM318.024 416.698C320.98 416.698 322.777 414.51 322.777 410.623C322.777 406.76 320.972 404.547 318.024 404.547C315.076 404.547 313.271 406.76 313.271 410.623C313.271 414.494 315.06 416.698 318.024 416.698ZM315.786 410.623C315.786 407.92 316.66 406.564 318.024 406.556C319.388 406.564 320.27 407.92 320.261 410.623C320.27 413.35 319.396 414.673 318.024 414.673C316.652 414.673 315.77 413.35 315.786 410.623ZM328.136 416.698C331.092 416.698 332.888 414.51 332.888 410.623C332.888 406.76 331.084 404.547 328.136 404.547C325.188 404.547 323.383 406.76 323.383 410.623C323.383 414.494 325.171 416.698 328.136 416.698ZM325.898 410.623C325.898 407.92 326.772 406.564 328.136 406.556C329.499 406.564 330.381 407.92 330.373 410.623C330.381 413.35 329.507 414.673 328.136 414.673C326.764 414.673 325.882 413.35 325.898 410.623ZM345.76 403.191H343.67V411.815H340.828V413.236H343.67V414.412H345.76V403.191ZM333.119 409.773L333.364 411.423C334.491 411.423 335.756 411.415 337.088 411.366V413.334H335.013V417.776H346.087V416.111H337.088V414.069H339.178V411.243C340.379 411.154 341.595 411.015 342.771 410.819L342.657 409.333C339.513 409.716 335.838 409.757 333.119 409.773ZM334.213 406.36C334.213 407.952 335.74 408.981 337.953 408.973C340.109 408.981 341.653 407.952 341.661 406.36C341.653 404.776 340.109 403.69 337.953 403.698C335.74 403.69 334.213 404.776 334.213 406.36ZM336.189 406.36C336.181 405.625 336.892 405.217 337.953 405.217C338.949 405.217 339.668 405.625 339.684 406.36C339.668 407.079 338.949 407.479 337.953 407.471C336.892 407.479 336.181 407.079 336.189 406.36Z" fill="#3D9DFF"/>
<path d="M20.7124 442.893C18.229 442.893 16.368 444.151 16.368 446.056C16.368 447.797 17.8352 448.965 19.8994 449.201V451.176H15.4406V452.51H26.0223V451.176H21.5127V449.201C23.5897 448.972 25.0632 447.803 25.0696 446.056C25.0632 444.151 23.1959 442.893 20.7124 442.893ZM17.9686 446.056C17.9686 444.901 19.0928 444.183 20.7124 444.189C22.3384 444.183 23.4626 444.901 23.469 446.056C23.4626 447.276 22.3384 447.956 20.7124 447.962C19.0928 447.956 17.9686 447.276 17.9686 446.056ZM35.1032 444.634H28.6754V442.436H27.0621V445.917H35.1032V444.634ZM25.741 447.975H36.3227V446.692H25.741V447.975ZM26.9478 449.918H33.4391V450.579H26.9732V453.729H35.4081V452.484H28.5992V451.747H35.0524V448.673H26.9478V449.918ZM40.3224 444.913V443.186H38.6964V444.913C38.6964 447.06 37.7754 449.27 35.8128 450.172L36.8163 451.481C38.1247 450.833 39.0139 449.607 39.5221 448.114C39.9984 449.505 40.8368 450.649 42.0754 451.265L43.0535 449.969C41.1989 449.073 40.316 446.984 40.3224 444.913ZM43.5616 453.856H45.1876V448.127H46.8899V446.755H45.1876V442.296H43.5616V453.856ZM56.9235 447.771H54.4972V446.399C55.361 446.031 55.8501 445.453 55.8564 444.697C55.8501 443.3 54.205 442.468 51.6517 442.462C49.0793 442.468 47.4343 443.3 47.4343 444.697C47.4343 445.44 47.9106 446.012 48.7554 446.387V447.771H46.3799V449.067H56.9235V447.771ZM47.5867 451.747C47.5867 453.113 49.1047 453.843 51.639 453.843C54.1351 453.843 55.6532 453.113 55.6659 451.747C55.6532 450.414 54.1351 449.671 51.639 449.677C49.1047 449.671 47.5867 450.414 47.5867 451.747ZM49.1238 444.697C49.1111 444.049 50.0193 443.706 51.6517 443.706C53.265 443.706 54.1796 444.049 54.1796 444.697C54.1796 445.332 53.265 445.656 51.6517 445.65C50.0193 445.656 49.1111 445.332 49.1238 444.697ZM49.2381 451.747C49.2318 451.176 50.0384 450.903 51.639 450.896C53.2078 450.903 54.0335 451.176 54.0399 451.747C54.0335 452.338 53.2078 452.637 51.639 452.637C50.0384 452.637 49.2318 452.338 49.2381 451.747ZM50.3941 447.771V446.8C50.7815 446.844 51.2007 446.869 51.6517 446.869C52.09 446.869 52.5028 446.85 52.8839 446.8V447.771H50.3941ZM67.4271 443.846H65.8646V442.309H64.2386V449.283H65.8646V447.632H67.4271V446.298H65.8646V445.193H67.4271V443.846ZM57.0995 444.265H60.8342V445.218H57.1122V448.775H58.0903C60.4341 448.775 61.9203 448.718 63.5781 448.407L63.4002 447.111C61.9267 447.371 60.631 447.441 58.7255 447.454V446.438H62.4094V442.995H57.0995V444.265ZM58.0903 451.684C58.0903 453.05 59.6084 453.843 62.0537 453.843C64.4546 453.843 65.9726 453.05 65.979 451.684C65.9726 450.293 64.4546 449.461 62.0537 449.461C59.6084 449.461 58.0903 450.293 58.0903 451.684ZM59.6909 451.684C59.6782 451.042 60.5103 450.712 62.0537 450.719C63.5781 450.712 64.3784 451.042 64.3784 451.684C64.3784 452.313 63.5781 452.637 62.0537 452.637C60.5103 452.637 59.6782 452.313 59.6909 451.684Z" fill="#232323"/>
<path d="M72.6019 448.683C72.611 450.398 73.0964 451.818 73.9448 453.039H74.834C74.2079 452.136 73.6091 450.307 73.6091 448.683C73.6091 447.064 74.2079 445.235 74.834 444.337H73.9448C73.0964 445.553 72.611 446.973 72.6019 448.683ZM78.9916 448.148H78.1296V449.591C77.3175 449.618 76.5417 449.622 75.8884 449.627L75.9973 450.335C77.449 450.335 79.4226 450.321 81.26 449.981L81.1965 449.346C80.4887 449.45 79.7356 449.513 78.9916 449.554V448.148ZM76.1061 447.758L76.5145 448.411C77.4899 448.134 78.2067 447.513 78.5606 446.701C78.928 447.472 79.6539 448.062 80.6248 448.338L81.0241 447.667C79.8082 447.34 79.0369 446.519 78.9916 445.562H80.8154V444.863H78.9916V443.892H78.1296V444.863H76.3239V445.562H78.1205C78.0751 446.56 77.3175 447.408 76.1061 447.758ZM81.7046 451.977H82.5666V443.829H81.7046V451.977ZM89.9217 443.829H89.096V447.05H88.0434V443.992H87.254V451.541H88.0434V447.758H89.096V451.959H89.9217V443.829ZM83.2162 450.008H83.7607C84.9448 449.999 85.7886 449.967 86.764 449.763L86.7005 449.055C85.8294 449.223 85.0763 449.268 84.0782 449.273V445.507H86.265V444.809H83.2162V450.008ZM94.2062 445.898V444.509H93.3442V445.898C93.3397 447.386 92.4958 448.946 91.2482 449.545L91.7836 450.244C92.7091 449.763 93.4214 448.788 93.7843 447.635C94.1427 448.719 94.8278 449.627 95.7124 450.09L96.2478 449.4C95.0365 448.81 94.1972 447.336 94.2062 445.898ZM96.8557 451.959H97.7177V447.803H99.0243V447.068H97.7177V443.829H96.8557V451.959ZM105.899 447.794H104.102V446.705C104.733 446.447 105.086 446.038 105.091 445.498C105.086 444.532 103.97 443.969 102.187 443.974C100.4 443.969 99.2793 444.532 99.2838 445.498C99.2793 446.038 99.6332 446.447 100.264 446.701V447.794H98.4854V448.493H105.899V447.794ZM99.3655 450.489C99.3655 451.428 100.418 451.941 102.187 451.941C103.934 451.941 104.987 451.428 104.991 450.489C104.987 449.559 103.934 449.046 102.187 449.046C100.418 449.046 99.3655 449.559 99.3655 450.489ZM100.173 445.498C100.169 444.954 100.922 444.641 102.187 444.636C103.444 444.641 104.206 444.954 104.202 445.498C104.206 446.043 103.444 446.347 102.187 446.351C100.922 446.347 100.169 446.043 100.173 445.498ZM100.237 450.489C100.232 449.99 100.944 449.708 102.187 449.708C103.412 449.708 104.129 449.99 104.129 450.489C104.129 450.997 103.412 451.287 102.187 451.278C100.944 451.287 100.232 450.997 100.237 450.489ZM101.135 447.794V446.932C101.452 446.977 101.806 447.005 102.187 447.005C102.573 447.005 102.931 446.977 103.249 446.927V447.794H101.135ZM113.163 445.045H111.974V443.838H111.112V448.747H111.974V447.476H113.163V446.76H111.974V445.761H113.163V445.045ZM105.913 445.027H108.771V445.943H105.922V448.302H106.575C108.136 448.311 109.211 448.261 110.468 448.039L110.377 447.34C109.193 447.54 108.195 447.594 106.784 447.594V446.605H109.615V444.328H105.913V445.027ZM106.612 450.453C106.612 451.396 107.651 451.941 109.343 451.941C111.012 451.941 112.047 451.396 112.047 450.453C112.047 449.509 111.012 448.946 109.343 448.946C107.651 448.946 106.612 449.509 106.612 450.453ZM107.456 450.453C107.451 449.926 108.15 449.622 109.343 449.627C110.518 449.622 111.207 449.926 111.203 450.453C111.207 450.983 110.518 451.287 109.343 451.278C108.15 451.287 107.451 450.983 107.456 450.453ZM121.004 443.829H120.179V447.05H119.126V443.992H118.337V451.541H119.126V447.758H120.179V451.959H121.004V443.829ZM114.299 450.008H114.843C116.027 449.999 116.871 449.967 117.847 449.763L117.783 449.055C116.912 449.223 116.159 449.268 115.161 449.273V445.507H117.348V444.809H114.299V450.008ZM127.86 443.829H126.998V451.977H127.86V443.829ZM121.581 450.026H125.483V444.509H124.63V446.596H122.443V444.509H121.581V450.026ZM122.443 449.318V447.277H124.63V449.318H122.443ZM132.227 451.278C133.638 451.287 134.577 450.312 134.577 449.037C134.577 447.78 133.633 446.882 132.462 446.878C131.75 446.882 131.133 447.209 130.775 447.767H130.702C130.702 446.283 131.292 445.403 132.308 445.399C132.971 445.403 133.393 445.789 133.524 446.324H134.513C134.359 445.281 133.52 444.527 132.308 444.527C130.734 444.527 129.745 445.834 129.74 448.121C129.74 450.548 131.011 451.269 132.227 451.278ZM130.82 449.064C130.829 448.334 131.442 447.69 132.245 447.694C133.034 447.69 133.606 448.302 133.606 449.055C133.606 449.822 133.011 450.439 132.217 450.443C131.41 450.439 130.825 449.795 130.82 449.064ZM134.936 451.188H135.979L138.901 445.507V444.618H134.482V445.471H137.867V445.526L134.936 451.188ZM140.485 447.74C141.37 447.749 141.86 447.086 141.865 446.106C141.86 445.144 141.388 444.478 140.485 444.482C139.61 444.478 139.097 445.144 139.106 446.106C139.097 447.082 139.587 447.749 140.485 447.74ZM139.85 451.188H140.676L145.186 444.618H144.36L139.85 451.188ZM139.85 446.106C139.855 445.521 140.063 445.126 140.485 445.117C140.925 445.113 141.111 445.516 141.111 446.106C141.111 446.71 140.912 447.1 140.485 447.104C140.063 447.1 139.855 446.71 139.85 446.106ZM143.253 449.69C143.248 450.657 143.738 451.324 144.632 451.324C145.517 451.324 146.007 450.661 146.011 449.69C146.007 448.719 145.53 448.053 144.632 448.057C143.756 448.053 143.248 448.719 143.253 449.69ZM143.997 449.69C144.001 449.096 144.215 448.701 144.632 448.692C145.072 448.692 145.258 449.091 145.258 449.69C145.258 450.285 145.058 450.679 144.632 450.679C144.21 450.679 144.001 450.285 143.997 449.69ZM149.652 448.683C149.642 446.973 149.157 445.553 148.309 444.337H147.419C148.046 445.235 148.644 447.064 148.644 448.683C148.644 450.307 148.046 452.136 147.419 453.039H148.309C149.157 451.818 149.642 450.398 149.652 448.683Z" fill="#232323"/>
<rect x="15.0977" y="464.402" width="332.632" height="11.1497" rx="5.57484" fill="#F4F5F9"/>
<rect x="15.0977" y="464.402" width="208.127" height="11.1497" rx="5.57484" fill="#6E48A1"/>
<path d="M18.9594 497.397C20.795 497.397 22.1288 496.114 22.1352 494.335C22.1288 492.544 20.8395 491.248 19.0864 491.248C18.4386 491.248 17.8225 491.464 17.4096 491.782H17.3207L17.6637 489.089H21.6906V488.072H16.7109L16.0631 493.103H17.1683C17.5049 492.506 18.1083 492.265 18.8832 492.277C20.1217 492.284 21.0173 493.166 21.0173 494.361C21.0173 495.517 20.1535 496.387 18.9594 496.393C17.9622 496.387 17.1619 495.777 17.0793 494.958H15.9742C16.044 496.374 17.3016 497.397 18.9594 497.397ZM25.7918 497.397C27.6274 497.397 28.9613 496.114 28.9676 494.335C28.9613 492.544 27.6719 491.248 25.9189 491.248C25.271 491.248 24.6549 491.464 24.2421 491.782H24.1531L24.4961 489.089H28.523V488.072H23.5434L22.8955 493.103H24.0007C24.3373 492.506 24.9407 492.265 25.7156 492.277C26.9542 492.284 27.8497 493.166 27.8497 494.361C27.8497 495.517 26.9859 496.387 25.7918 496.393C24.7946 496.387 23.9944 495.777 23.9118 494.958H22.8066C22.8765 496.374 24.1341 497.397 25.7918 497.397ZM31.9746 497.27H33.0671V494.697L33.7975 494.018L36.3572 497.27H37.7418L34.6169 493.325L37.5259 490.372H36.1793L33.1941 493.42H33.0671V488.072H31.9746V497.27ZM39.6074 497.27H40.7887L42.8085 489.991H42.8847L44.8918 497.27H46.0732L48.5884 488.072H47.4325L45.5143 495.517H45.4381L43.4818 488.072H42.1988L40.2552 495.517H40.1663L38.2481 488.072H37.0921L39.6074 497.27ZM49.8315 493.128C49.8315 491.934 50.5937 491.261 51.6227 491.261C52.6135 491.261 53.2105 491.877 53.2105 492.963V497.27H54.303V492.887C54.303 491.115 53.363 490.283 51.9529 490.283C50.8605 490.283 50.2444 490.74 49.9204 491.452H49.8315V488.072H48.7391V497.27H49.8315V493.128Z" fill="#232323"/>
<path d="M297.039 498.433C299.709 498.433 301.628 496.979 301.612 494.954C301.628 493.476 300.673 492.422 298.933 492.21V492.112C300.256 491.875 301.179 490.936 301.171 489.613C301.179 487.743 299.537 486.281 297.071 486.281C294.646 486.281 292.817 487.694 292.776 489.728H295.128C295.168 488.821 296.026 488.233 297.071 488.241C298.116 488.233 298.811 488.854 298.802 489.76C298.811 490.691 297.994 491.328 296.826 491.328H295.732V493.141H296.826C298.214 493.149 299.072 493.827 299.064 494.791C299.072 495.746 298.231 496.399 297.055 496.408C295.912 496.399 295.054 495.82 295.013 494.938H292.531C292.58 497.004 294.442 498.433 297.039 498.433ZM304.717 497.061H302.397L301.581 501.716H303.312L304.717 497.061ZM305.976 498.27H308.524L313.505 488.486V486.445H305.159V488.454H310.957V488.535L305.976 498.27ZM318.538 498.433C321.494 498.433 323.29 496.244 323.29 492.357C323.29 488.495 321.486 486.281 318.538 486.281C315.59 486.281 313.785 488.495 313.785 492.357C313.785 496.228 315.573 498.433 318.538 498.433ZM316.3 492.357C316.3 489.654 317.174 488.299 318.538 488.29C319.901 488.299 320.783 489.654 320.775 492.357C320.783 495.085 319.91 496.408 318.538 496.408C317.166 496.408 316.284 495.085 316.3 492.357ZM328.649 498.433C331.605 498.433 333.402 496.244 333.402 492.357C333.402 488.495 331.597 486.281 328.649 486.281C325.701 486.281 323.897 488.495 323.897 492.357C323.897 496.228 325.685 498.433 328.649 498.433ZM326.412 492.357C326.412 489.654 327.286 488.299 328.649 488.29C330.013 488.299 330.895 489.654 330.887 492.357C330.895 495.085 330.021 496.408 328.649 496.408C327.277 496.408 326.395 495.085 326.412 492.357ZM346.274 484.926H344.183V493.549H341.341V494.97H344.183V496.146H346.274V484.926ZM333.633 491.508L333.877 493.157C335.004 493.157 336.27 493.149 337.601 493.1V495.068H335.527V499.511H346.601V497.845H337.601V495.803H339.692V492.978C340.892 492.888 342.109 492.749 343.285 492.553L343.171 491.067C340.027 491.451 336.352 491.492 333.633 491.508ZM334.727 488.094C334.727 489.687 336.254 490.716 338.467 490.708C340.623 490.716 342.166 489.687 342.174 488.094C342.166 486.51 340.623 485.424 338.467 485.432C336.254 485.424 334.727 486.51 334.727 488.094ZM336.703 488.094C336.695 487.359 337.405 486.951 338.467 486.951C339.463 486.951 340.182 487.359 340.198 488.094C340.182 488.813 339.463 489.213 338.467 489.205C337.405 489.213 336.695 488.813 336.703 488.094Z" fill="#6E48A1"/>
<rect x="0.226562" y="525.891" width="362.365" height="7.43312" fill="#E0E0E0"/>
<rect x="27.3633" y="560.957" width="1.1198" height="4.6908" fill="#888B97" stroke="#31444E" stroke-width="0.5"/>
<circle cx="27.9124" cy="560.713" r="1.3694" fill="#3D9DFF" stroke="#31444E" stroke-width="0.5"/>
<rect x="15.3477" y="565.125" width="25.5159" height="23.3479" rx="11.674" fill="url(#paint1_radial_1249_21003)" stroke="#31444E" stroke-width="0.5"/>
<rect x="20.2109" y="571.504" width="15.698" height="5.9792" rx="2.9896" fill="#323232" stroke="#31444E" stroke-width="0.5"/>
<g filter="url(#filter2_f_1249_21003)">
<circle cx="24.8225" cy="574.483" r="1.6194" fill="#3D9DFF"/>
</g>
<circle cx="24.8225" cy="574.483" r="1.6194" fill="#3D9DFF"/>
<g filter="url(#filter3_f_1249_21003)">
<circle cx="31.2952" cy="574.483" r="1.6194" fill="#3D9DFF"/>
</g>
<circle cx="31.2952" cy="574.483" r="1.6194" fill="#3D9DFF"/>
<path d="M65.498 564.336H62.7266V583.93H65.498V564.336ZM49.707 572.672C49.6963 576.969 51.877 579.654 54.8848 579.654C57.8281 579.654 60.0195 576.969 60.0195 572.672C60.0195 568.407 57.8281 565.711 54.8848 565.711C51.877 565.711 49.6963 568.407 49.707 572.672ZM52.3496 572.672C52.3389 569.771 53.3594 568.182 54.8848 568.182C56.3672 568.182 57.3662 569.771 57.377 572.672C57.3662 575.583 56.3672 577.173 54.8848 577.162C53.3594 577.173 52.3389 575.583 52.3496 572.672ZM83.69 564.357H80.9615V569.535H77.3521V565.625H74.6451V568.633H70.7994V565.625H68.0494V575.68H77.3521V571.727H80.9615V578.773H83.69V564.357ZM70.6705 583.543H84.0982V581.352H73.442V577.334H70.6705V583.543ZM70.7994 573.531V570.717H74.6451V573.531H70.7994ZM103.128 575.121H85.296V577.312H92.8155V583.887H95.5226V577.312H103.128V575.121ZM86.1769 571.834L87.1866 573.982C90.5919 573.521 93.0304 572.06 94.2228 570.051C95.4044 572.06 97.8644 573.521 101.302 573.982L102.29 571.834C98.2726 571.351 96.1134 569.438 95.8341 567.516H101.538V565.367H86.9073V567.516H92.6114C92.3214 569.438 90.13 571.351 86.1769 571.834Z" fill="#232323"/>
<path d="M26.8571 602.793H25.3037V615.917H26.8571V602.793ZM15.6639 608.469C15.6639 611.366 16.7817 613.166 18.4948 613.159C19.6054 613.166 20.4765 612.426 20.9556 611.141H22.676V615.278H24.2003V603.025H22.676V605.798H20.9556C20.4692 604.521 19.6054 603.787 18.4948 603.795C16.7817 603.787 15.6639 605.58 15.6639 608.469ZM17.1447 608.469C17.1302 606.422 17.631 605.312 18.4948 605.319C19.3659 605.312 19.9031 606.422 19.9031 608.469C19.9031 610.524 19.3659 611.627 18.4948 611.62C17.631 611.627 17.1302 610.524 17.1447 608.469ZM21.2822 607.105H22.676V609.82H21.2895C21.3476 609.399 21.3839 608.949 21.3839 608.469C21.3839 607.983 21.3476 607.526 21.2822 607.105ZM39.415 609.341H27.4523V610.633H39.415V609.341ZM28.0185 607.54L28.5266 608.774C30.8567 608.578 32.5916 607.852 33.4191 606.713C34.2321 607.852 35.967 608.578 38.3116 608.774L38.8198 607.54C36.0541 607.352 34.508 606.437 34.3338 605.319H38.2391V604.056H34.2176V602.822H32.6207V604.056H28.6283V605.319H32.4973C32.3158 606.437 30.7696 607.352 28.0185 607.54ZM28.7734 613.043H36.3372V615.917H37.9487V611.765H28.7734V613.043ZM46.6594 605.943V603.853H45.0479V605.943C45.0406 608.368 43.8357 610.879 41.7233 611.881L42.7105 613.173C44.2131 612.418 45.2874 610.937 45.8609 609.152C46.4198 610.821 47.4433 612.208 48.8661 612.926L49.8533 611.634C47.8208 610.654 46.6449 608.288 46.6594 605.943ZM50.6373 615.917H52.2487V609.311H54.2667V607.932H52.2487V602.793H50.6373V615.917ZM65.8519 609.108H63.021V607.446C64.0154 607.032 64.5816 606.372 64.5889 605.508C64.5816 603.933 62.7451 603.011 59.8561 603.011C56.9598 603.011 55.1233 603.933 55.1233 605.508C55.1233 606.364 55.6822 607.025 56.6767 607.446V609.108H53.8893V610.4H65.8519V609.108ZM55.283 613.536C55.283 615.061 56.9888 615.888 59.8561 615.888C62.6798 615.888 64.3929 615.061 64.4002 613.536C64.3929 612.026 62.6798 611.184 59.8561 611.199C56.9888 611.184 55.283 612.026 55.283 613.536ZM56.8073 605.508C56.7928 604.702 57.9179 604.252 59.8561 604.259C61.7869 604.252 62.9193 604.702 62.9193 605.508C62.9193 606.306 61.7869 606.735 59.8561 606.727C57.9179 606.735 56.7928 606.306 56.8073 605.508ZM56.9235 613.536C56.9162 612.803 57.947 612.426 59.8561 612.418C61.7361 612.426 62.7742 612.803 62.7887 613.536C62.7742 614.277 61.7361 614.676 59.8561 614.669C57.947 614.676 56.9162 614.277 56.9235 613.536ZM58.3027 609.108V607.86C58.7745 607.925 59.2971 607.961 59.8561 607.961C60.415 607.961 60.9377 607.925 61.4095 607.86V609.108H58.3027ZM78.0033 604.666H76.1596V602.808H74.5481V610.734H76.1596V608.774H78.0033V607.424H76.1596V606.001H78.0033V604.666ZM66.302 604.884H70.7154V606.161H66.3165V610.081H67.3908C69.9823 610.088 71.6954 610.016 73.648 609.66L73.4738 608.368C71.6881 608.665 70.1492 608.745 67.928 608.76V607.381H72.2978V603.606H66.302V604.884ZM67.4344 613.464C67.4271 615.002 69.1257 615.888 71.8768 615.888C74.5844 615.888 76.283 615.002 76.2902 613.464C76.283 611.917 74.5844 610.988 71.8768 610.981C69.1257 610.988 67.4271 611.917 67.4344 613.464ZM69.0168 613.464C69.0096 612.672 70.0403 612.244 71.8768 612.244C73.6843 612.244 74.6933 612.672 74.6933 613.464C74.6933 614.248 73.6843 614.676 71.8768 614.669C70.0403 614.676 69.0096 614.248 69.0168 613.464ZM87.3238 603.606H80.994V609.065H87.3238V603.606ZM81.778 614.64L82.3296 615.874C84.471 615.641 86.1043 614.828 86.91 613.725C87.7085 614.814 89.32 615.649 91.4468 615.874L91.9985 614.64C89.4869 614.385 87.9045 613.275 87.7593 612.259H91.5049V611.039H87.7158V609.892H86.0898V611.039H82.3151V612.259H86.0535C85.9083 613.304 84.2968 614.422 81.778 614.64ZM82.591 607.802V604.884H85.7268V607.802H82.591ZM89.6321 610.27H91.2291V602.793H89.6321V610.27ZM106.807 608.905H94.844V610.212H106.807V608.905ZM95.4247 607.047L95.9764 608.324C98.3573 608.077 100.099 607.127 100.811 605.798C101.522 607.127 103.286 608.077 105.674 608.324L106.24 607.047C103.751 606.807 102.183 605.82 101.943 604.738H105.732V603.417H95.9328V604.738H99.6857C99.4389 605.834 97.8565 606.807 95.4247 607.047ZM96.2377 613.493C96.2377 615.039 97.9581 615.903 100.811 615.903C103.642 615.903 105.348 615.039 105.355 613.493C105.348 611.968 103.642 611.083 100.811 611.083C97.9581 611.083 96.2377 611.968 96.2377 613.493ZM97.8782 613.493C97.871 612.73 98.9017 612.346 100.811 612.346C102.691 612.346 103.729 612.73 103.743 613.493C103.729 614.255 102.691 614.632 100.811 614.64C98.9017 614.632 97.871 614.255 97.8782 613.493ZM117.114 602.793H115.503V610.168H117.114V607.105H118.944V605.784H117.114V602.793ZM106.662 609.123L107.3 610.415C111.227 609.362 113.463 607.003 113.47 603.591H107.286V604.898H111.714C111.431 606.793 109.703 608.346 106.662 609.123ZM108.621 615.743H117.114V610.691H108.621V615.743ZM110.233 614.465V612.012H115.517V614.465H110.233ZM124.649 602.924C121.666 602.931 119.916 603.729 119.916 605.174C119.916 606.64 121.666 607.431 124.649 607.439C127.64 607.431 129.375 606.64 129.382 605.174C129.375 603.729 127.64 602.931 124.649 602.924ZM118.682 609.341H121.775V610.386H120.09V611.576H127.567V612.447H120.105V615.801H129.513V614.567H121.687V613.594H129.15V610.386H127.538V609.341H130.645V608.063H118.682V609.341ZM121.615 605.174C121.608 604.499 122.653 604.136 124.649 604.129C126.674 604.136 127.712 604.499 127.712 605.174C127.712 605.9 126.674 606.234 124.649 606.248C122.653 606.234 121.608 605.9 121.615 605.174ZM123.372 610.386V609.341H125.927V610.386H123.372Z" fill="#3D9DFF"/>
<path d="M16.0885 630.335C16.0994 632.393 16.6547 634.102 17.6564 635.561H18.4839C17.749 634.478 17.063 632.278 17.0576 630.335C17.063 628.397 17.749 626.192 18.4839 625.119H17.6564C16.6547 626.573 16.0994 628.282 16.0885 630.335ZM23.195 626.219H21.2024V624.836H20.3531V626.219H18.3388V626.916H23.195V626.219ZM18.6872 629.768C18.6872 631.07 19.5637 631.984 20.7669 631.99C21.9864 631.984 22.8574 631.07 22.8683 629.768C22.8574 628.484 21.9864 627.574 20.7669 627.569C19.5637 627.574 18.6872 628.484 18.6872 629.768ZM19.4494 629.768C19.4494 628.919 19.9992 628.299 20.7669 628.288C21.5399 628.299 22.1061 628.919 22.1061 629.768C22.1061 630.629 21.5399 631.244 20.7669 631.238C19.9992 631.244 19.4494 630.629 19.4494 629.768ZM23.6958 633.743H24.5016V629.333H25.7864V634.222H26.603V624.542H25.7864V628.625H24.5016V624.782H23.6958V633.743ZM34.6459 624.542H33.7857V630.324H34.6459V627.787H36.094V627.068H34.6459V624.542ZM27.514 629.529H28.2653C30.3123 629.529 31.4719 629.474 32.8275 629.202L32.7404 628.495C31.4393 628.761 30.3123 628.821 28.3524 628.832V625.99H31.8149V625.282H27.514V629.529ZM28.3198 632.349C28.3252 633.525 29.5556 634.2 31.5318 634.2C33.5081 634.2 34.7221 633.525 34.7221 632.349C34.7221 631.189 33.5081 630.514 31.5318 630.509C29.5556 630.514 28.3252 631.189 28.3198 632.349ZM29.1582 632.349C29.1636 631.636 30.0728 631.206 31.5318 631.217C32.98 631.206 33.9 631.636 33.8946 632.349C33.9 633.068 32.98 633.509 31.5318 633.514C30.0728 633.509 29.1636 633.068 29.1582 632.349ZM45.9407 624.542H45.1132V634.222H45.9407V624.542ZM37.7636 628.723C37.769 630.781 38.5857 632.093 39.8433 632.088C40.6708 632.093 41.3132 631.527 41.6562 630.552H43.1969V633.732H44.0135V624.749H43.1969V626.894H41.6562C41.3078 625.925 40.6708 625.364 39.8433 625.359C38.5857 625.364 37.769 626.665 37.7636 628.723ZM38.5584 628.723C38.553 627.15 39.0484 626.164 39.8433 626.164C40.6327 626.164 41.139 627.15 41.139 628.723C41.139 630.291 40.6327 631.282 39.8433 631.271C39.0484 631.282 38.553 630.291 38.5584 628.723ZM41.8358 627.602H43.1969V629.834H41.8413C41.9012 629.496 41.9338 629.121 41.9338 628.723C41.9338 628.32 41.9012 627.945 41.8358 627.602ZM55.1704 629.431H46.3509V630.128H55.1704V629.431ZM46.8735 628.222L47.1566 628.897C48.7409 628.718 50.1672 628.135 50.7607 627.155C51.3432 628.135 52.7696 628.718 54.3647 628.897L54.6478 628.222C52.8186 628.064 51.2887 627.313 51.2289 626.208H54.2776V625.522H51.1744V624.52H50.336V625.522H47.2655V626.208H50.2925C50.2217 627.313 48.6864 628.064 46.8735 628.222ZM47.3308 631.87H53.2214V634.222H54.0816V631.173H47.3308V631.87ZM63.8775 629.649H55.0579V630.346H63.8775V629.649ZM56.0379 626.807C56.0379 628.01 57.3663 628.734 59.4677 628.734C61.5474 628.734 62.8812 628.01 62.8867 626.807C62.8812 625.593 61.5474 624.88 59.4677 624.89C57.3663 624.88 56.0379 625.593 56.0379 626.807ZM56.2012 634.015H62.8976V633.296H57.0614V631.195H56.2012V634.015ZM56.9198 626.807C56.9144 626.05 57.9052 625.576 59.4677 625.576C61.0193 625.576 62.0102 626.05 62.0156 626.807C62.0102 627.574 61.0193 628.037 59.4677 628.037C57.9052 628.037 56.9144 627.574 56.9198 626.807ZM68.378 624.901C66.9135 624.907 65.8574 625.789 65.8628 627.046C65.8574 628.309 66.9135 629.18 68.378 629.18C69.8262 629.18 70.8769 628.309 70.8824 627.046C70.8769 625.789 69.8262 624.907 68.378 624.901ZM66.7012 627.046C66.6903 626.208 67.4035 625.615 68.378 625.62C69.3362 625.615 70.0548 626.208 70.0548 627.046C70.0548 627.896 69.3362 628.484 68.378 628.484C67.4035 628.484 66.6903 627.896 66.7012 627.046ZM67.3327 630.672H72.7769V631.674H67.3545V634.091H73.9746V633.405H68.1929V632.316H73.6262V629.986H67.3327V630.672ZM72.7769 629.518H73.6262V624.542H72.7769V629.518ZM83.2043 632.262H81.0049V629.627C81.8052 629.197 82.2897 628.511 82.2897 627.645C82.2897 626.148 80.8198 625.163 78.751 625.152C76.6822 625.163 75.2123 626.148 75.2123 627.645C75.2123 628.527 75.7132 629.224 76.5407 629.654V632.262H74.3412V632.981H83.2043V632.262ZM76.0398 627.645C76.0344 626.562 77.1613 625.849 78.751 625.86C80.3244 625.849 81.4622 626.562 81.4622 627.645C81.4622 628.729 80.3244 629.453 78.751 629.453C77.1613 629.453 76.0344 628.729 76.0398 627.645ZM77.3791 632.262V629.964C77.7928 630.073 78.2556 630.128 78.751 630.128C79.2573 630.128 79.7255 630.068 80.1447 629.959V632.262H77.3791ZM85.7921 624.901C84.3277 624.907 83.2715 625.789 83.2769 627.046C83.2715 628.309 84.3277 629.18 85.7921 629.18C87.2403 629.18 88.291 628.309 88.2965 627.046C88.291 625.789 87.2403 624.907 85.7921 624.901ZM84.1153 627.046C84.1044 626.208 84.8176 625.615 85.7921 625.62C86.7503 625.615 87.469 626.208 87.469 627.046C87.469 627.896 86.7503 628.484 85.7921 628.484C84.8176 628.484 84.1044 627.896 84.1153 627.046ZM84.7469 630.672H90.191V631.674H84.7686V634.091H91.3888V633.405H85.607V632.316H91.0403V629.986H84.7469V630.672ZM90.191 629.518H91.0403V624.542H90.191V629.518ZM92.4195 630.106V631.01C92.7516 630.558 93.1708 630.329 93.6499 630.324C94.4502 630.329 95.2069 630.955 96.0345 630.955C96.5136 630.955 96.9382 630.743 97.2975 630.335V629.431C96.9709 629.883 96.5462 630.111 96.0562 630.117C95.2614 630.111 94.5101 629.491 93.6826 629.485C93.2035 629.491 92.7734 629.698 92.4195 630.106ZM105.656 629.583H99.8309V628.124H105.34V627.427H99.8309V626.045H105.547V625.337H98.9598V630.28H101.802V632.305H97.8165V633.013H106.68V632.305H102.651V630.28H105.656V629.583ZM115.387 632.262H113.187V629.627C113.988 629.197 114.472 628.511 114.472 627.645C114.472 626.148 113.002 625.163 110.933 625.152C108.865 625.163 107.395 626.148 107.395 627.645C107.395 628.527 107.896 629.224 108.723 629.654V632.262H106.524V632.981H115.387V632.262ZM108.222 627.645C108.217 626.562 109.344 625.849 110.933 625.86C112.507 625.849 113.645 626.562 113.645 627.645C113.645 628.729 112.507 629.453 110.933 629.453C109.344 629.453 108.217 628.729 108.222 627.645ZM109.561 632.262V629.964C109.975 630.073 110.438 630.128 110.933 630.128C111.44 630.128 111.908 630.068 112.327 629.959V632.262H109.561ZM117.975 624.901C116.51 624.907 115.454 625.789 115.459 627.046C115.454 628.309 116.51 629.18 117.975 629.18C119.423 629.18 120.473 628.309 120.479 627.046C120.473 625.789 119.423 624.907 117.975 624.901ZM116.298 627.046C116.287 626.208 117 625.615 117.975 625.62C118.933 625.615 119.651 626.208 119.651 627.046C119.651 627.896 118.933 628.484 117.975 628.484C117 628.484 116.287 627.896 116.298 627.046ZM116.929 630.672H122.373V631.674H116.951V634.091H123.571V633.405H117.789V632.316H123.223V629.986H116.929V630.672ZM122.373 629.518H123.223V624.542H122.373V629.518ZM135.679 624.542H134.819V634.222H135.679V624.542ZM127.796 631.707L128.264 632.403C131.509 630.846 132.804 628.38 132.815 625.598H128.242V626.295H131.944C131.754 628.609 130.414 630.465 127.796 631.707ZM141.348 625.751V625.729H144.419V625.032H137.189V625.729H140.238V625.751C140.243 626.943 138.632 627.912 136.928 628.146L137.243 628.821C138.811 628.593 140.265 627.814 140.793 626.682C141.316 627.814 142.78 628.593 144.342 628.821L144.68 628.146C142.965 627.912 141.343 626.943 141.348 625.751ZM136.372 630.237H140.444V632.218H141.294V630.237H145.235V629.529H136.372V630.237ZM137.505 634.015H144.244V633.296H138.365V631.249H137.505V634.015ZM149.5 625.174C147.48 625.179 145.961 626.235 145.961 627.83C145.961 629.442 147.48 630.498 149.5 630.487C151.52 630.498 153.039 629.442 153.039 627.83C153.039 626.235 151.52 625.179 149.5 625.174ZM145.09 632.937H153.953V632.218H145.09V632.937ZM146.778 627.83C146.767 626.671 147.937 625.865 149.5 625.87C151.052 625.865 152.211 626.671 152.211 627.83C152.211 629.006 151.052 629.79 149.5 629.79C147.937 629.79 146.767 629.006 146.778 627.83ZM162.66 632.305H158.621V630.476H161.767V629.768H155.757V628.19H161.539V625.261H154.886V625.968H160.7V627.493H154.908V630.476H157.782V632.305H153.797V633.024H162.66V632.305ZM171.941 624.542H171.092V630.171H171.941V627.754H173.4V627.025H171.941V624.542ZM164.395 626.252H170.166V625.544H167.705V624.455H166.856V625.544H164.395V626.252ZM164.951 628.397C164.945 629.431 165.876 630.101 167.281 630.095C168.669 630.101 169.6 629.431 169.611 628.397C169.6 627.362 168.669 626.703 167.281 626.698C165.876 626.703 164.945 627.362 164.951 628.397ZM165.767 628.397C165.762 627.77 166.366 627.351 167.281 627.362C168.184 627.351 168.794 627.77 168.805 628.397C168.794 629.028 168.184 629.442 167.281 629.442C166.366 629.442 165.762 629.028 165.767 628.397ZM165.822 634.091H171.941V630.596H171.092V631.63H166.671V630.596H165.822V634.091ZM166.671 633.405V632.305H171.092V633.405H166.671ZM181.062 624.542H180.212V634.222H181.062V624.542ZM173.712 631.728H174.496C176.048 631.728 177.577 631.609 179.298 631.249L179.178 630.52C177.556 630.863 176.031 630.977 174.55 630.988V625.5H173.712V631.728ZM189.279 624.542H188.429V634.244H189.279V629.093H190.901V628.375H189.279V624.542ZM182.212 631.815H182.974C184.815 631.815 186.083 631.761 187.602 631.489L187.493 630.748C186.05 631.015 184.815 631.091 183.061 631.097V626.197H186.731V625.489H182.212V631.815ZM191.518 633.405C191.905 633.4 192.22 633.084 192.215 632.697C192.22 632.316 191.905 632.001 191.518 632.001C191.137 632.001 190.81 632.316 190.821 632.697C190.81 633.084 191.137 633.4 191.518 633.405ZM194.814 630.335C194.803 628.282 194.247 626.573 193.246 625.119H192.418C193.153 626.192 193.839 628.397 193.845 630.335C193.839 632.278 193.153 634.478 192.418 635.561H193.246C194.247 634.102 194.803 632.393 194.814 630.335Z" fill="#485760" fill-opacity="0.6"/>
<path d="M25.1839 662.547H23.5706V665.418H22.0081V666.727H23.5706V667.883H22.0081V669.166H23.5706V671.351H25.1839V662.547ZM15.466 665.037H21.8938V663.754H19.5691V662.522H17.9559V663.754H15.466V665.037ZM16.0377 667.718C16.025 669.051 17.1746 669.979 18.7434 669.979C20.3313 669.979 21.4746 669.051 21.4873 667.718C21.4746 666.384 20.3313 665.444 18.7434 665.444C17.1746 665.444 16.025 666.384 16.0377 667.718ZM17.4858 673.891H25.4253V672.596H19.1245V670.601H17.4858V673.891ZM17.5494 667.718C17.543 667.07 18.0384 666.708 18.7434 666.701C19.4421 666.708 19.9566 667.07 19.9629 667.718C19.9566 668.384 19.4421 668.746 18.7434 668.746C18.0384 668.746 17.543 668.384 17.5494 667.718ZM35.84 662.535H34.2902V666.981H33.3121V662.7H31.775V670.226C30.0347 669.324 29.4376 667.406 29.4376 665.393V665.024H31.2034V663.729H25.9062V665.024H27.8624V665.393C27.8561 667.603 27.2717 669.648 25.5124 670.639L26.5159 671.884C27.6211 671.224 28.3007 670.118 28.6818 668.766C29.0946 669.941 29.787 670.9 30.8604 671.465L31.775 670.252V673.561H33.3121V668.302H34.2902V674.094H35.84V662.535ZM40.3224 665.151V663.424H38.6964V665.151C38.6964 667.298 37.7754 669.509 35.8128 670.411L36.8163 671.719C38.1247 671.071 39.0139 669.845 39.5221 668.353C39.9984 669.744 40.8368 670.887 42.0754 671.503L43.0535 670.207C41.1989 669.312 40.316 667.222 40.3224 665.151ZM43.5616 674.094H45.1876V668.365H46.8899V666.993H45.1876V662.535H43.5616V674.094ZM56.9235 668.01H54.4972V666.638C55.361 666.269 55.8501 665.691 55.8564 664.936C55.8501 663.538 54.205 662.706 51.6517 662.7C49.0793 662.706 47.4343 663.538 47.4343 664.936C47.4343 665.679 47.9106 666.25 48.7554 666.625V668.01H46.3799V669.305H56.9235V668.01ZM47.5867 671.986C47.5867 673.351 49.1047 674.082 51.639 674.082C54.1351 674.082 55.6532 673.351 55.6659 671.986C55.6532 670.652 54.1351 669.909 51.639 669.915C49.1047 669.909 47.5867 670.652 47.5867 671.986ZM49.1238 664.936C49.1111 664.288 50.0193 663.945 51.6517 663.945C53.265 663.945 54.1796 664.288 54.1796 664.936C54.1796 665.571 53.265 665.895 51.6517 665.888C50.0193 665.895 49.1111 665.571 49.1238 664.936ZM49.2381 671.986C49.2318 671.414 50.0384 671.141 51.639 671.135C53.2078 671.141 54.0335 671.414 54.0399 671.986C54.0335 672.576 53.2078 672.875 51.639 672.875C50.0384 672.875 49.2318 672.576 49.2381 671.986ZM50.3941 668.01V667.038C50.7815 667.082 51.2007 667.108 51.6517 667.108C52.09 667.108 52.5028 667.089 52.8839 667.038V668.01H50.3941ZM67.4271 664.084H65.8646V662.547H64.2386V669.521H65.8646V667.87H67.4271V666.536H65.8646V665.431H67.4271V664.084ZM57.0995 664.504H60.8342V665.456H57.1122V669.013H58.0903C60.4341 669.013 61.9203 668.956 63.5781 668.645L63.4002 667.349C61.9267 667.61 60.631 667.679 58.7255 667.692V666.676H62.4094V663.233H57.0995V664.504ZM58.0903 671.922C58.0903 673.288 59.6084 674.082 62.0537 674.082C64.4546 674.082 65.9726 673.288 65.979 671.922C65.9726 670.531 64.4546 669.699 62.0537 669.699C59.6084 669.699 58.0903 670.531 58.0903 671.922ZM59.6909 671.922C59.6782 671.281 60.5103 670.95 62.0537 670.957C63.5781 670.95 64.3784 671.281 64.3784 671.922C64.3784 672.551 63.5781 672.875 62.0537 672.875C60.5103 672.875 59.6782 672.551 59.6909 671.922Z" fill="#232323"/>
<path d="M76.0934 673.053C78.1704 673.059 79.5804 671.719 79.5741 669.852C79.5804 668.118 78.3482 666.879 76.6905 666.879C75.6742 666.879 74.766 667.355 74.3404 668.175H74.2515C74.2642 666.365 74.9184 665.24 76.1697 665.24C76.9128 665.24 77.44 665.641 77.5924 666.282H79.4725C79.2883 664.77 78.018 663.602 76.1697 663.602C73.8704 663.602 72.3905 665.437 72.3841 668.543C72.3778 671.91 74.1943 673.046 76.0934 673.053ZM74.442 669.902C74.4547 669.007 75.1661 668.27 76.1061 668.264C77.0398 668.27 77.7194 668.981 77.7194 669.902C77.7194 670.83 77.0271 671.547 76.0807 671.541C75.1407 671.547 74.4547 670.804 74.442 669.902ZM83.4213 673.053C85.5173 673.053 87.029 671.948 87.029 670.449C87.029 669.293 86.1271 668.353 85.0092 668.175V668.111C85.9746 667.921 86.6796 667.089 86.686 666.079C86.6796 664.65 85.3014 663.602 83.4213 663.602C81.5412 663.602 80.163 664.65 80.1693 666.079C80.163 667.089 80.8489 667.921 81.8461 668.111V668.175C80.7028 668.353 79.8136 669.293 79.8136 670.449C79.8136 671.948 81.3189 673.053 83.4213 673.053ZM81.808 670.258C81.8017 669.458 82.4876 668.88 83.4213 668.873C84.355 668.88 85.0409 669.464 85.0346 670.258C85.0409 671.046 84.3931 671.598 83.4213 671.592C82.4495 671.598 81.8017 671.046 81.808 670.258ZM82.0367 666.269C82.0303 665.552 82.5956 665.05 83.4213 665.05C84.2407 665.05 84.8123 665.552 84.8186 666.269C84.8123 667.006 84.228 667.521 83.4213 667.527C82.6083 667.521 82.0303 667.006 82.0367 666.269ZM89.8218 668.327C91.1811 668.327 91.9369 667.336 91.9433 665.876C91.9369 664.421 91.2001 663.411 89.8218 663.411C88.4817 663.411 87.7004 664.421 87.7004 665.876C87.7004 667.324 88.4436 668.327 89.8218 668.327ZM88.9961 665.876C89.0025 665.094 89.282 664.548 89.8218 664.542C90.3935 664.542 90.6412 665.082 90.6475 665.876C90.6412 666.67 90.3681 667.19 89.8218 667.197C89.2883 667.19 89.0025 666.67 88.9961 665.876ZM89.0216 672.926H90.4443L96.7704 663.729H95.3477L89.0216 672.926ZM93.9122 670.779C93.9122 672.227 94.6554 673.231 96.021 673.231C97.3929 673.231 98.1487 672.24 98.1551 670.779C98.1487 669.324 97.4119 668.321 96.021 668.315C94.6935 668.321 93.9122 669.324 93.9122 670.779ZM95.208 670.779C95.2143 669.998 95.4874 669.451 96.021 669.458C96.5989 669.445 96.853 669.985 96.8594 670.779C96.853 671.573 96.5799 672.1 96.021 672.1C95.5001 672.1 95.2143 671.573 95.208 670.779Z" fill="#3D9DFF"/>
<rect x="15.0977" y="684.641" width="332.632" height="18.5828" rx="9.2914" fill="#F4F5F9"/>
<rect x="15.0977" y="684.641" width="230.555" height="18.5828" rx="9.2914" fill="#3D9DFF"/>
<path d="M15.7328 723.061H20.1916V724.941H21.2841V723.061H22.5671V722.058H21.2841V715.744H19.874L15.7328 722.121V723.061ZM16.965 722.058V721.982L20.0773 717.193H20.1916V722.058H16.965ZM25.4979 724.941H26.5903V722.369L27.3207 721.689L29.8804 724.941H31.2651L28.1401 720.997L31.0491 718.044H29.7026L26.7174 721.092H26.5903V715.744H25.4979V724.941ZM33.1306 724.941H34.312L36.3318 717.663H36.408L38.4151 724.941H39.5965L42.1117 715.744H40.9557L39.0375 723.188H38.9613L37.005 715.744H35.722L33.7785 723.188H33.6895L31.7714 715.744H30.6154L33.1306 724.941ZM43.3548 720.8C43.3548 719.606 44.1169 718.933 45.1459 718.933C46.1367 718.933 46.7338 719.549 46.7338 720.635V724.941H47.8263V720.559C47.8263 718.787 46.8862 717.955 45.4762 717.955C44.3837 717.955 43.7676 718.412 43.4437 719.123H43.3548V715.744H42.2623V724.941H43.3548V720.8Z" fill="#232323"/>
<path d="M280.465 723.851H286.214V725.941H288.55V723.851H290.053V721.875H288.55V714.117H285.463L280.465 721.907V723.851ZM282.948 721.875V721.777L286.133 716.812H286.247V721.875H282.948ZM295.101 726.105C297.772 726.105 299.691 724.651 299.674 722.626C299.691 721.148 298.735 720.094 296.996 719.882V719.784C298.319 719.547 299.242 718.608 299.233 717.285C299.242 715.415 297.6 713.953 295.134 713.953C292.708 713.953 290.879 715.366 290.838 717.399H293.19C293.231 716.493 294.089 715.905 295.134 715.913C296.179 715.905 296.873 716.526 296.865 717.432C296.873 718.363 296.057 719 294.889 719H293.795V720.813H294.889C296.277 720.821 297.135 721.499 297.126 722.463C297.135 723.418 296.293 724.071 295.118 724.079C293.974 724.071 293.117 723.492 293.076 722.61H290.593C290.642 724.676 292.504 726.105 295.101 726.105ZM302.779 724.733H300.46L299.643 729.388H301.375L302.779 724.733ZM308.106 726.105C311.062 726.105 312.858 723.916 312.858 720.029C312.858 716.166 311.054 713.953 308.106 713.953C305.158 713.953 303.353 716.166 303.353 720.029C303.353 723.9 305.141 726.105 308.106 726.105ZM305.868 720.029C305.868 717.326 306.742 715.97 308.106 715.962C309.469 715.97 310.351 717.326 310.343 720.029C310.351 722.757 309.477 724.079 308.106 724.079C306.734 724.079 305.852 722.757 305.868 720.029ZM318.217 726.105C321.173 726.105 322.97 723.916 322.97 720.029C322.97 716.166 321.165 713.953 318.217 713.953C315.269 713.953 313.464 716.166 313.464 720.029C313.464 723.9 315.253 726.105 318.217 726.105ZM315.98 720.029C315.98 717.326 316.853 715.97 318.217 715.962C319.581 715.97 320.463 717.326 320.455 720.029C320.463 722.757 319.589 724.079 318.217 724.079C316.845 724.079 315.963 722.757 315.98 720.029ZM328.329 726.105C331.285 726.105 333.082 723.916 333.082 720.029C333.082 716.166 331.277 713.953 328.329 713.953C325.381 713.953 323.576 716.166 323.576 720.029C323.576 723.9 325.364 726.105 328.329 726.105ZM326.091 720.029C326.091 717.326 326.965 715.97 328.329 715.962C329.693 715.97 330.575 717.326 330.566 720.029C330.575 722.757 329.701 724.079 328.329 724.079C326.957 724.079 326.075 722.757 326.091 720.029ZM345.953 712.598H343.863V721.221H341.021V722.642H343.863V723.818H345.953V712.598ZM333.312 719.18L333.557 720.829C334.684 720.829 335.95 720.821 337.281 720.772V722.74H335.207V727.183H346.28V725.517H337.281V723.475H339.371V720.65C340.572 720.56 341.789 720.421 342.965 720.225L342.85 718.739C339.706 719.123 336.031 719.163 333.312 719.18ZM334.406 715.766C334.406 717.359 335.933 718.388 338.147 718.379C340.302 718.388 341.846 717.359 341.854 715.766C341.846 714.182 340.302 713.096 338.147 713.104C335.933 713.096 334.406 714.182 334.406 715.766ZM336.383 715.766C336.374 715.031 337.085 714.623 338.147 714.623C339.143 714.623 339.861 715.031 339.878 715.766C339.861 716.485 339.143 716.885 338.147 716.877C337.085 716.885 336.374 716.485 336.383 715.766Z" fill="#3D9DFF"/>
<path d="M20.7124 752.296C18.229 752.296 16.368 753.553 16.368 755.459C16.368 757.199 17.8352 758.368 19.8994 758.603V760.578H15.4406V761.912H26.0223V760.578H21.5127V758.603C23.5897 758.374 25.0632 757.206 25.0696 755.459C25.0632 753.553 23.1959 752.296 20.7124 752.296ZM17.9686 755.459C17.9686 754.303 19.0928 753.585 20.7124 753.591C22.3384 753.585 23.4626 754.303 23.469 755.459C23.4626 756.678 22.3384 757.358 20.7124 757.364C19.0928 757.358 17.9686 756.678 17.9686 755.459ZM35.1032 754.036H28.6754V751.838H27.0621V755.319H35.1032V754.036ZM25.741 757.377H36.3227V756.094H25.741V757.377ZM26.9478 759.321H33.4391V759.981H26.9732V763.131H35.4081V761.887H28.5992V761.15H35.0524V758.076H26.9478V759.321ZM40.3224 754.316V752.588H38.6964V754.316C38.6964 756.462 37.7754 758.673 35.8128 759.575L36.8163 760.883C38.1247 760.235 39.0139 759.009 39.5221 757.517C39.9984 758.908 40.8368 760.051 42.0754 760.667L43.0535 759.371C41.1989 758.476 40.316 756.386 40.3224 754.316ZM43.5616 763.259H45.1876V757.529H46.8899V756.158H45.1876V751.699H43.5616V763.259ZM56.9235 757.174H54.4972V755.802C55.361 755.433 55.8501 754.855 55.8564 754.1C55.8501 752.702 54.205 751.87 51.6517 751.864C49.0793 751.87 47.4343 752.702 47.4343 754.1C47.4343 754.843 47.9106 755.414 48.7554 755.789V757.174H46.3799V758.469H56.9235V757.174ZM47.5867 761.15C47.5867 762.515 49.1047 763.246 51.639 763.246C54.1351 763.246 55.6532 762.515 55.6659 761.15C55.6532 759.816 54.1351 759.073 51.639 759.079C49.1047 759.073 47.5867 759.816 47.5867 761.15ZM49.1238 754.1C49.1111 753.452 50.0193 753.109 51.6517 753.109C53.265 753.109 54.1796 753.452 54.1796 754.1C54.1796 754.735 53.265 755.059 51.6517 755.052C50.0193 755.059 49.1111 754.735 49.1238 754.1ZM49.2381 761.15C49.2318 760.578 50.0384 760.305 51.639 760.299C53.2078 760.305 54.0335 760.578 54.0399 761.15C54.0335 761.741 53.2078 762.039 51.639 762.039C50.0384 762.039 49.2318 761.741 49.2381 761.15ZM50.3941 757.174V756.202C50.7815 756.246 51.2007 756.272 51.6517 756.272C52.09 756.272 52.5028 756.253 52.8839 756.202V757.174H50.3941ZM67.4271 753.248H65.8646V751.711H64.2386V758.685H65.8646V757.034H67.4271V755.7H65.8646V754.595H67.4271V753.248ZM57.0995 753.668H60.8342V754.62H57.1122V758.177H58.0903C60.4341 758.177 61.9203 758.12 63.5781 757.809L63.4002 756.513C61.9267 756.774 60.631 756.843 58.7255 756.856V755.84H62.4094V752.397H57.0995V753.668ZM58.0903 761.086C58.0903 762.452 59.6084 763.246 62.0537 763.246C64.4546 763.246 65.9726 762.452 65.979 761.086C65.9726 759.695 64.4546 758.863 62.0537 758.863C59.6084 758.863 58.0903 759.695 58.0903 761.086ZM59.6909 761.086C59.6782 760.445 60.5103 760.115 62.0537 760.121C63.5781 760.115 64.3784 760.445 64.3784 761.086C64.3784 761.715 63.5781 762.039 62.0537 762.039C60.5103 762.039 59.6782 761.715 59.6909 761.086Z" fill="#232323"/>
<rect x="15.0977" y="773.805" width="332.632" height="18.5828" rx="9.2914" fill="#F4F5F9"/>
<rect x="15.0977" y="773.805" width="208.127" height="18.5828" rx="9.2914" fill="#69BCDE"/>
<rect x="0.230469" y="693.137" width="362.365" height="91.0557" fill="white"/>
<mask id="path-102-inside-1_1249_21003" fill="white">
<path d="M15.0977 694.066H347.73V758.098H15.0977V694.066Z"/>
</mask>
<path d="M15.0977 694.066H347.73V758.098H15.0977V694.066Z" fill="white"/>
<path d="M27.3639 724.915V736.065H40.0002V724.915M24.3906 727.145L33.682 718.969L42.9734 727.145" stroke="#D2D6D8" stroke-width="1.85828" stroke-linecap="round" stroke-linejoin="round"/>
<path d="M37.0265 753.915H29.7249V756.971H37.0265V753.915ZM28.5689 753.196H38.2061V752.311H33.9478V751.592C35.8233 751.515 36.8554 751.014 36.8495 750.105C36.8554 749.12 35.611 748.613 33.3816 748.607C31.164 748.613 29.9078 749.12 29.9137 750.105C29.9078 751.014 30.9576 751.515 32.8272 751.592V752.311H28.5689V753.196ZM29.0644 748.23H37.6634V747.369H33.9478V746.39H32.8272V747.369H29.0644V748.23ZM30.8337 756.109V754.777H35.9413V756.109H30.8337ZM31.105 750.105C31.0991 749.622 31.9071 749.386 33.3816 749.374C34.8679 749.386 35.6582 749.622 35.6582 750.105C35.6582 750.583 34.8679 750.837 33.3816 750.837C31.9071 750.837 31.0991 750.583 31.105 750.105Z" fill="#D2D6D8"/>
<path d="M113.777 731.961L118.625 736.809" stroke="#D2D6D8" stroke-width="1.85828" stroke-linecap="round" stroke-linejoin="round"/>
<path d="M107.722 733.578C111.961 733.578 115.398 730.141 115.398 725.902C115.398 721.663 111.961 718.227 107.722 718.227C103.483 718.227 100.047 721.663 100.047 725.902C100.047 730.141 103.483 733.578 107.722 733.578Z" stroke="#D2D6D8" stroke-width="1.85828" stroke-linecap="round" stroke-linejoin="round"/>
<path d="M109.398 754.859H105.116V752.358H103.995V754.859H99.7252V755.779H109.398V754.859ZM100.173 751.875L100.633 752.759C102.308 752.429 103.871 751.421 104.55 750.011C105.24 751.403 106.814 752.394 108.525 752.712L108.973 751.828C106.962 751.515 105.128 750.076 105.128 748.454V748.36H108.56V747.44H100.527V748.36H103.96V748.454C103.96 750.076 102.137 751.545 100.173 751.875ZM117.976 746.531H116.855V757.1H117.976V746.531ZM109.294 754.222L109.448 755.154C111.382 755.16 113.942 755.13 116.289 754.741L116.207 753.904C115.275 754.028 114.284 754.098 113.305 754.145V753.119C114.532 752.942 115.328 752.223 115.334 751.202C115.328 750.011 114.272 749.227 112.727 749.221C111.199 749.227 110.161 750.011 110.167 751.202C110.161 752.235 110.963 752.96 112.196 753.125V754.187C111.158 754.21 110.167 754.216 109.294 754.222ZM109.518 748.69H115.971V747.793H113.317V746.555H112.196V747.793H109.518V748.69ZM111.229 751.202C111.217 750.524 111.842 750.094 112.727 750.094C113.641 750.094 114.26 750.524 114.26 751.202C114.26 751.875 113.641 752.294 112.727 752.288C111.842 752.294 111.217 751.875 111.229 751.202Z" fill="#D2D6D8"/>
<path d="M175.707 718.227V736.809H194.29M180.91 732.349V728.633M186.857 732.349V724.173M192.803 732.349V719.713" stroke="#485760" stroke-width="1.85828" stroke-linecap="round" stroke-linejoin="round"/>
<path d="M185.046 752.064H175.374V752.96H179.738V754.906H180.847V752.96H185.046V752.064ZM176.577 756.876H183.973V755.968H177.686V753.986H176.577V756.876ZM176.647 751.132H183.772V746.862H182.652V748.147H177.756V746.862H176.647V751.132ZM177.756 750.235V748.985H182.652V750.235H177.756ZM188.623 748.218V747.074H187.502V748.159C187.496 749.722 186.541 751.114 184.884 751.686L185.485 752.594C186.718 752.122 187.614 751.202 188.08 750.029C188.534 751.096 189.395 751.946 190.557 752.37L191.171 751.474C189.578 750.943 188.617 749.622 188.623 748.218ZM186.547 754.234H192.586V757.1H193.707V753.349H186.547V754.234ZM190.357 749.586H192.586V752.795H193.707V746.531H192.586V748.666H190.357V749.586Z" fill="#485760"/>
<g opacity="0.3">
<path d="M268.725 725.003C267.491 721.746 264.344 719.43 260.658 719.43C256.973 719.43 253.826 721.743 252.592 725C250.281 725.607 248.574 727.71 248.574 730.214C248.574 733.194 250.987 735.607 253.964 735.607H267.342C270.319 735.607 272.732 733.194 272.732 730.214C272.732 727.715 271.031 725.612 268.725 725.003ZM269.704 732.579C269.395 732.89 269.027 733.137 268.621 733.305C268.216 733.473 267.781 733.559 267.342 733.558H253.964C253.071 733.558 252.233 733.21 251.602 732.579C251.291 732.269 251.044 731.9 250.876 731.495C250.708 731.089 250.622 730.654 250.623 730.214C250.623 729.459 250.869 728.75 251.33 728.157C251.781 727.583 252.406 727.169 253.112 726.979L254.134 726.712L254.508 725.725C254.74 725.111 255.064 724.536 255.471 724.016C255.873 723.5 256.349 723.047 256.884 722.67C257.992 721.891 259.297 721.479 260.658 721.479C262.02 721.479 263.325 721.891 264.433 722.67C264.97 723.048 265.444 723.501 265.846 724.016C266.253 724.536 266.577 725.113 266.808 725.725L267.18 726.709L268.2 726.979C269.664 727.37 270.683 728.699 270.683 730.214C270.683 731.107 270.335 731.948 269.704 732.579Z" fill="#485760"/>
<path d="M253.823 747.558H252.525V756.098H253.823V747.558ZM262.047 751.828C262.047 749.097 260.407 747.44 258.202 747.44C255.978 747.44 254.344 749.097 254.344 751.828C254.344 754.552 255.978 756.216 258.202 756.216C260.407 756.216 262.047 754.558 262.047 751.828ZM255.63 751.828C255.636 749.752 256.727 748.625 258.202 748.631C259.664 748.625 260.755 749.752 260.761 751.828C260.755 753.904 259.664 755.03 258.202 755.024C256.727 755.03 255.636 753.904 255.63 751.828ZM261.79 748.678H264.456V756.098H265.754V748.678H268.408V747.558H261.79V748.678Z" fill="#485760"/>
</g>
<path d="M325.582 729.659C325.013 729.659 324.468 729.434 324.066 729.031C323.663 728.629 323.438 728.084 323.438 727.515C323.438 726.947 323.663 726.401 324.066 725.999C324.468 725.597 325.013 725.371 325.582 725.371C326.15 725.371 326.696 725.597 327.098 725.999C327.5 726.401 327.726 726.947 327.726 727.515C327.726 728.084 327.5 728.629 327.098 729.031C326.696 729.434 326.15 729.659 325.582 729.659ZM332.729 729.659C332.16 729.659 331.615 729.434 331.213 729.031C330.811 728.629 330.585 728.084 330.585 727.515C330.585 726.947 330.811 726.401 331.213 725.999C331.615 725.597 332.16 725.371 332.729 725.371C333.298 725.371 333.843 725.597 334.245 725.999C334.647 726.401 334.873 726.947 334.873 727.515C334.873 728.084 334.647 728.629 334.245 729.031C333.843 729.434 333.298 729.659 332.729 729.659ZM339.876 729.659C339.307 729.659 338.762 729.434 338.36 729.031C337.958 728.629 337.732 728.084 337.732 727.515C337.732 726.947 337.958 726.401 338.36 725.999C338.762 725.597 339.307 725.371 339.876 725.371C340.445 725.371 340.99 725.597 341.392 725.999C341.794 726.401 342.02 726.947 342.02 727.515C342.02 728.084 341.794 728.629 341.392 729.031C340.99 729.434 340.445 729.659 339.876 729.659Z" fill="#D2D6D8"/>
<path d="M323.487 745.936H318.639V752.955H319.476C321.47 752.955 322.755 752.89 324.277 752.601L324.147 751.681C322.755 751.946 321.546 752.011 319.771 752.023V746.868H323.487V745.936ZM322.885 749.664H325.822V755.55H326.943V744.957H325.822V748.732H322.885V749.664ZM337.302 753.285H332.997V751.114H336.158V745.677H335.049V747.493H329.859V745.677H328.739V751.114H331.888V753.285H327.63V754.217H337.302V753.285ZM329.859 750.206V748.401H335.049V750.206H329.859ZM345.928 744.957H344.795V755.526H345.928V744.957ZM337.246 752.695L337.836 753.603C341.463 751.864 342.778 749.186 342.778 746.089H337.753V746.986H341.646C341.428 749.451 340.053 751.356 337.246 752.695Z" fill="#D2D6D8"/>
<path d="M15.0977 694.996H347.73V693.137H15.0977V694.996Z" fill="#D2D6D8" mask="url(#path-102-inside-1_1249_21003)"/>
</g>
<defs>
<filter id="filter0_f_1249_21003" x="18.6533" y="266.341" width="12.3379" height="12.3379" filterUnits="userSpaceOnUse" color-interpolation-filters="sRGB">
<feFlood flood-opacity="0" result="BackgroundImageFix"/>
<feBlend mode="normal" in="SourceGraphic" in2="BackgroundImageFix" result="shape"/>
<feGaussianBlur stdDeviation="2.27491" result="effect1_foregroundBlur_1249_21003"/>
</filter>
<filter id="filter1_f_1249_21003" x="25.126" y="266.341" width="12.3379" height="12.3379" filterUnits="userSpaceOnUse" color-interpolation-filters="sRGB">
<feFlood flood-opacity="0" result="BackgroundImageFix"/>
<feBlend mode="normal" in="SourceGraphic" in2="BackgroundImageFix" result="shape"/>
<feGaussianBlur stdDeviation="2.27491" result="effect1_foregroundBlur_1249_21003"/>
</filter>
<filter id="filter2_f_1249_21003" x="18.6533" y="568.313" width="12.3379" height="12.3379" filterUnits="userSpaceOnUse" color-interpolation-filters="sRGB">
<feFlood flood-opacity="0" result="BackgroundImageFix"/>
<feBlend mode="normal" in="SourceGraphic" in2="BackgroundImageFix" result="shape"/>
<feGaussianBlur stdDeviation="2.27491" result="effect1_foregroundBlur_1249_21003"/>
</filter>
<filter id="filter3_f_1249_21003" x="25.126" y="568.313" width="12.3379" height="12.3379" filterUnits="userSpaceOnUse" color-interpolation-filters="sRGB">
<feFlood flood-opacity="0" result="BackgroundImageFix"/>
<feBlend mode="normal" in="SourceGraphic" in2="BackgroundImageFix" result="shape"/>
<feGaussianBlur stdDeviation="2.27491" result="effect1_foregroundBlur_1249_21003"/>
</filter>
<radialGradient id="paint0_radial_1249_21003" cx="0" cy="0" r="1" gradientUnits="userSpaceOnUse" gradientTransform="translate(22.9136 269.114) rotate(54.6599) scale(18.0166 14.1757)">
<stop stop-color="white"/>
<stop offset="1" stop-color="#E4E6EF"/>
</radialGradient>
<radialGradient id="paint1_radial_1249_21003" cx="0" cy="0" r="1" gradientUnits="userSpaceOnUse" gradientTransform="translate(22.9136 571.087) rotate(54.6599) scale(18.0166 14.1757)">
<stop stop-color="white"/>
<stop offset="1" stop-color="#E4E6EF"/>
</radialGradient>
<clipPath id="clip0_1249_21003">
<rect x="0.226562" width="362.365" height="784.194" rx="27.8742" fill="white"/>
</clipPath>
<clipPath id="clip1_1249_21003">
<rect width="18.5782" height="11.1469" fill="white" transform="translate(291.902 17.6484)"/>
</clipPath>
</defs>
</svg>
