<svg width="99" height="100" viewBox="0 0 99 100" fill="none" xmlns="http://www.w3.org/2000/svg">
<path d="M49.5041 99.8105L40.5667 90.8732L40.5667 64.0611L49.5041 55.1238L58.4414 64.0611L58.4414 90.8732L49.5041 99.8105Z" fill="#DC8772"/>
<path d="M49.5041 45.5039L40.5667 36.5666L40.5667 9.75451L49.5041 0.817161L58.4414 9.75451L58.4414 36.5666L49.5041 45.5039Z" fill="#86A6D9"/>
<path d="M54.3125 50.3087L63.2499 41.3714L90.0619 41.3714L98.9992 50.3088L90.0619 59.2461L63.2499 59.2461L54.3125 50.3087Z" fill="#F5C851"/>
<path d="M-1.17201e-06 50.3087L8.93735 41.3714L35.7494 41.3714L44.6867 50.3088L35.7494 59.2461L8.93735 59.2461L-1.17201e-06 50.3087Z" fill="#87D5D7"/>
</svg>
