<svg width="1282" height="452" viewBox="0 0 1282 452" fill="none" xmlns="http://www.w3.org/2000/svg">
<path d="M0.999973 42.5449L1281 42.5449" stroke="black" stroke-opacity="0.03" stroke-width="0.802005"/>
<path d="M0.999973 163.586L1281 163.586" stroke="black" stroke-opacity="0.03" stroke-width="0.802005"/>
<path d="M0.999973 284.625L1281 284.625" stroke="black" stroke-opacity="0.03" stroke-width="0.802005"/>
<path d="M172.625 402.509V12.7344" stroke="#3E9BFB" stroke-width="1.513" stroke-dasharray="3.03 3.03"/>
<path d="M500.648 402.509V12.7344" stroke="#3E9BFB" stroke-width="1.513" stroke-dasharray="3.03 3.03"/>
<path d="M828.668 402.509V12.7344" stroke="#3E9BFB" stroke-width="1.513" stroke-dasharray="3.03 3.03"/>
<path d="M1156.69 402.509V12.7344" stroke="#3E9BFB" stroke-width="1.513" stroke-dasharray="3.03 3.03"/>
<path d="M497.04 282.608L1 351.254V405.722H1281V125.816L1154.66 135.44L804.404 161.506L631.922 187.85L497.04 282.608Z" fill="url(#paint0_linear_1206_22546)"/>
<path d="M1 351.254L497.04 282.608L631.922 187.85L804.404 161.506L1154.66 135.44L1281 125.816" stroke="#3E9BFB" stroke-width="3"/>
<rect x="19.5" y="145.5" width="328.062" height="147.6" rx="26.4842" fill="white"/>
<path d="M53.6168 173.423V168.63H50.6406V173.423C50.6249 178.561 47.7114 183.949 43.4038 186.017L45.2521 188.429C48.4476 186.769 50.9069 183.401 52.16 179.422C53.3975 183.166 55.7628 186.299 58.8173 187.897L60.6657 185.516C56.4833 183.479 53.5855 178.389 53.6168 173.423ZM62.7647 194.35H65.7408V180.002H70.2521V177.464H65.7408V166.28H62.7647V194.35ZM94.8449 166.28H91.9V180.723H94.8449V166.28ZM71.6932 178.216L73.197 180.566C76.5491 179.422 79.0554 176.979 80.3242 173.909C81.593 176.76 84.0522 178.968 87.3261 180.033L88.7985 177.715C84.4908 176.368 81.7966 172.953 81.8123 169.194V167.032H78.7734V169.194C78.7578 173.078 76.0792 176.76 71.6932 178.216ZM76.4238 184.419H91.9313V186.832H76.5178V194.068H95.816V191.688H79.4V189.087H94.8762V182.07H76.4238V184.419ZM131.248 166.28H128.397V194.35H131.248V166.28ZM106.75 186.612L108.567 188.837C111.308 187.129 113.219 183.996 114.221 180.331C115.208 183.714 117.041 186.581 119.72 188.179L121.505 185.986C117.558 183.714 115.616 178.906 115.616 174.112V171.857H120.44V169.444H107.595V171.857H112.765V174.112C112.749 179.109 110.728 184.216 106.75 186.612ZM118.372 178.655H122.727V192.941H125.547V166.875H122.727V176.211H118.372V178.655ZM158.974 166.28H156.123V177.402H152.489V166.844H149.763V192.909H152.489V179.845H156.123V194.35H158.974V166.28ZM135.822 187.615H137.702C141.79 187.583 144.704 187.474 148.072 186.769L147.852 184.325C144.845 184.905 142.245 185.062 138.798 185.077V172.076H146.349V169.664H135.822V187.615ZM188.297 188.492H176.862V183.573H185.822V181.13H168.686V177.026H185.164V168.254H165.678V170.698H182.22V174.645H165.741V183.573H173.918V188.492H162.608V190.998H188.297V188.492ZM204.463 167.345H201.518V178.686H209.475V181.443H198.166V183.887H223.761V181.443H212.42V178.686H220.44V167.345H217.464V170.666H204.463V167.345ZM201.392 193.755H220.879V191.343H204.4V185.892H201.392V193.755ZM204.463 176.274V172.984H217.464V176.274H204.463ZM243.78 171.261V170.51H249.795V168.097H234.663V170.51H240.741V171.293C240.757 175.099 238.062 178.843 233.755 180.315L235.29 182.665C238.626 181.49 241.085 179.015 242.307 175.929C243.529 178.702 245.863 180.958 249.012 182.038L250.547 179.72C246.302 178.263 243.764 174.802 243.78 171.261ZM238.109 186.894H254.149V194.35H257.126V184.482H238.109V186.894ZM248.949 175.867H254.149V183.072H257.126V166.28H254.149V173.423H248.949V175.867ZM275.265 182.728H272.476V194.006H282.408V182.728H279.651V185.986H275.265V182.728ZM269.688 173.956C269.673 177.825 272.758 180.488 277.05 180.472C280.778 180.488 283.661 178.357 284.24 175.146H289.707V181.161H292.683V166.28H289.707V172.703H284.225C283.614 169.554 280.747 167.471 277.05 167.471C272.758 167.471 269.673 170.118 269.688 173.956ZM272.539 173.956C272.523 171.559 274.403 169.93 277.05 169.946C279.651 169.93 281.499 171.559 281.499 173.956C281.499 176.384 279.651 178.044 277.05 178.06C274.403 178.044 272.523 176.384 272.539 173.956ZM275.265 191.688V188.241H279.651V191.688H275.265ZM282.564 191.969L284.068 194.225C286.48 193.223 288.125 191.359 289.049 189.197C289.942 191.421 291.587 193.254 294.124 194.225L295.659 191.969C292.198 190.748 290.537 187.771 290.553 184.827V182.54H287.608V184.827C287.608 187.63 285.948 190.575 282.564 191.969ZM309.788 166.875C303.648 166.86 299.748 168.865 299.763 172.264C299.748 175.6 303.648 177.574 309.788 177.558C315.944 177.574 319.798 175.6 319.814 172.264C319.798 168.865 315.944 166.86 309.788 166.875ZM297.007 182.132H322.602V179.72H297.007V182.132ZM300.077 194.006H319.469V184.639H300.077V194.006ZM302.834 172.264C302.818 170.322 305.465 169.209 309.788 169.225C314.08 169.209 316.759 170.322 316.743 172.264C316.759 174.128 314.08 175.224 309.788 175.24C305.465 175.224 302.818 174.128 302.834 172.264ZM303.022 191.594V187.02H316.587V191.594H303.022ZM52.4576 209.669V206.035H49.5754V209.669C49.5754 212.786 47.5391 216.357 43.7484 218.002L45.3774 220.32C48.103 219.146 50.014 216.89 51.0479 214.29C52.0504 216.592 53.8831 218.503 56.499 219.506L58.0654 217.219C54.4157 215.84 52.4576 212.739 52.4576 209.669ZM48.9175 227.213C48.8862 230.408 52.536 232.303 58.41 232.288C64.2684 232.303 67.9495 230.408 67.9652 227.213C67.9495 224.017 64.2684 222.122 58.41 222.106C52.536 222.122 48.8862 224.017 48.9175 227.213ZM51.8624 227.213C51.8311 225.411 54.3217 224.377 58.41 224.393C62.4827 224.377 64.9733 225.411 64.989 227.213C64.9733 228.998 62.4827 230.032 58.41 230.001C54.3217 230.032 51.8311 228.998 51.8624 227.213ZM58.9426 220.696H61.6995V214.055H64.989V221.573H67.8085V204.312H64.989V211.611H61.6995V204.813H58.9426V220.696ZM93.6544 204.28H90.6782V220.696H93.6544V213.71H97.7271V211.204H93.6544V204.28ZM71.4426 218.159L72.6644 220.446C80.9977 218.3 85.8693 213.224 85.885 206.003H72.7897V208.416H82.6895C82.1725 212.833 78.1782 216.389 71.4426 218.159ZM75.108 224.33H90.6782V232.35H93.6544V221.918H75.108V224.33ZM125.014 226.398H113.579V220.634H121.975V206.191H119.03V211.016H105.246V206.191H102.27V220.634H110.634V226.398H99.3248V228.873H125.014V226.398ZM105.246 218.221V213.428H119.03V218.221H105.246ZM148.918 204.28H145.941V232.413H148.918V217.595H153.429V215.151H148.918V204.28ZM128.241 225.427H130.496C135.713 225.443 139.441 225.302 143.842 224.518L143.466 222.012C139.456 222.733 135.932 222.936 131.217 222.952V209.387H141.367V206.974H128.241V225.427ZM178.241 206.411H164.08V208.854H175.312C175.28 210.624 175.186 212.896 174.575 215.997L177.52 216.279C178.21 212.645 178.21 209.857 178.241 207.977V206.411ZM162.389 218.691L162.671 221.104C167.621 221.088 174.325 220.978 180.183 219.944L179.995 217.783C177.176 218.19 174.074 218.409 171.067 218.535V212.708H168.122V218.629C166.07 218.676 164.112 218.691 162.389 218.691ZM166.649 231.755H185.728V229.343H169.626V223.453H166.649V231.755ZM181.781 225.364H184.82V215.715H188.673V213.209H184.82V204.28H181.781V225.364ZM213.642 204.28H210.666V232.413H213.642V204.28ZM191.9 209.23H202.019V214.681H191.931V225.677H194.312C199.278 225.662 203.507 225.474 208.473 224.644L208.191 222.2C203.491 222.968 199.528 223.187 194.97 223.203V217.062H205.058V206.818H191.9V209.23ZM241.305 204.28H238.329V232.413H241.305V204.28ZM219.626 225.677H233.097V206.63H230.152V213.835H222.602V206.63H219.626V225.677ZM222.602 223.234V216.185H230.152V223.234H222.602ZM267.652 204.28H264.676V232.319H267.652V217.939H272.007V215.464H267.652V204.28ZM245.816 224.832L247.476 227.15C256.718 222.592 260.29 215.339 260.321 207.225H247.226V209.7H257.282C256.671 216.248 252.849 221.323 245.816 224.832ZM65.9288 242.28H62.9526V256.535H65.9288V250.927H70.0015V248.452H65.9288V242.28ZM44.9702 255.626H58.0967V244.097H44.9702V255.626ZM46.6932 269.599H48.1343C50.2333 269.599 52.7553 269.489 55.3712 268.596L54.9326 266.246C53.1469 266.842 51.2515 267.077 49.6068 267.155V258.978H46.6932V269.599ZM47.8837 253.245V246.478H55.1832V253.245H47.8837ZM54.4 261.484H68.5604V259.292H62.984V256.942H60.0704V259.292H54.4V261.484ZM56.1857 266.34C56.1544 268.768 58.316 270.288 61.4802 270.288C64.5817 270.288 66.7747 268.768 66.7747 266.34C66.7747 263.912 64.5817 262.424 61.4802 262.393C58.316 262.424 56.1544 263.912 56.1857 266.34ZM58.8173 266.34C58.8173 265.181 59.9294 264.492 61.4802 264.461C62.9996 264.492 64.0961 265.181 64.1118 266.34C64.0961 267.531 62.9996 268.251 61.4802 268.251C59.9294 268.251 58.8173 267.531 58.8173 266.34ZM94.8449 242.28H91.8687V270.413H94.8449V242.28ZM72.5704 254.216C72.5704 260.278 75.5936 264.1 79.8386 264.085C84.0053 264.1 87.0754 260.278 87.0754 254.216C87.0754 248.217 84.0053 244.395 79.8386 244.379C75.5936 244.395 72.5704 248.217 72.5704 254.216ZM75.4526 254.216C75.437 249.815 77.2227 247.058 79.8386 247.042C82.4075 247.058 84.1932 249.815 84.1932 254.216C84.1932 258.681 82.4075 261.422 79.8386 261.422C77.2227 261.422 75.437 258.681 75.4526 254.216ZM133.379 253.308H129.024V242.28H126.048V270.319H129.024V255.751H133.379V253.308ZM108.222 263.27H110.54C114.754 263.286 119.171 263.004 123.98 262.048L123.636 259.542C119.171 260.451 115.083 260.78 111.167 260.795V245.006H108.222V263.27ZM156.969 242.312H153.993V259.323H156.969V252.117H160.979V249.674H156.969V242.312ZM134.851 255.939L135.164 258.289C140.02 258.289 146.615 258.211 152.52 257.161L152.27 255.031C149.951 255.391 147.461 255.595 144.97 255.736V253.48C148.228 253.01 150.39 251.052 150.421 248.389C150.39 245.256 147.523 243.142 143.404 243.157C139.237 243.142 136.402 245.256 136.418 248.389C136.402 251.099 138.611 253.073 141.994 253.511V255.845C139.425 255.924 136.966 255.939 134.851 255.939ZM135.791 267.781L137.263 270.006C139.911 269.066 141.775 267.296 142.777 265.119C143.654 267.327 145.33 269.27 147.978 270.256C150.594 269.27 152.27 267.312 153.163 265.103C154.149 267.312 156.029 269.097 158.755 270.006L160.227 267.781C156.546 266.654 154.604 263.975 154.619 261.171V260.513H151.737V261.171C151.721 263.396 150.484 265.886 147.962 267.39C145.424 265.917 144.234 263.458 144.218 261.171V260.513H141.336V261.171C141.32 263.928 139.425 266.622 135.791 267.781ZM139.206 248.389C139.174 246.541 140.866 245.366 143.404 245.382C145.894 245.366 147.602 246.541 147.602 248.389C147.602 250.191 145.894 251.397 143.404 251.397C140.866 251.397 139.174 250.191 139.206 248.389ZM175.39 242.875C169.25 242.86 165.349 244.865 165.365 248.264C165.349 251.6 169.25 253.574 175.39 253.558C181.546 253.574 185.399 251.6 185.415 248.264C185.399 244.865 181.546 242.86 175.39 242.875ZM162.608 258.132H188.203V255.72H162.608V258.132ZM165.678 270.006H185.07V260.639H165.678V270.006ZM168.435 248.264C168.419 246.322 171.067 245.209 175.39 245.225C179.682 245.209 182.361 246.322 182.345 248.264C182.361 250.128 179.682 251.224 175.39 251.24C171.067 251.224 168.419 250.128 168.435 248.264ZM168.623 267.594V263.02H182.188V267.594H168.623Z" fill="black"/>
<rect x="19.5" y="145.5" width="328.062" height="147.6" rx="26.4842" stroke="#908F99"/>
<g clip-path="url(#clip0_1206_22546)">
<path d="M828.997 186.994C852.333 186.994 863.994 171.326 863.994 151.997C863.994 132.669 852.333 117 828.997 117C805.661 117 794 132.669 794 151.997C794 171.326 805.661 186.994 828.997 186.994Z" fill="url(#paint1_radial_1206_22546)"/>
<path d="M828.997 186.994C852.333 186.994 863.994 171.326 863.994 151.997C863.994 132.669 852.333 117 828.997 117C805.661 117 794 132.669 794 151.997C794 171.326 805.661 186.994 828.997 186.994Z" fill="url(#paint2_radial_1206_22546)"/>
<path d="M828.997 186.994C852.333 186.994 863.994 171.326 863.994 151.997C863.994 132.669 852.333 117 828.997 117C805.661 117 794 132.669 794 151.997C794 171.326 805.661 186.994 828.997 186.994Z" fill="url(#paint3_radial_1206_22546)" fill-opacity="0.6"/>
<path d="M828.997 186.994C852.333 186.994 863.994 171.326 863.994 151.997C863.994 132.669 852.333 117 828.997 117C805.661 117 794 132.669 794 151.997C794 171.326 805.661 186.994 828.997 186.994Z" fill="url(#paint4_radial_1206_22546)"/>
<path d="M828.997 186.994C852.333 186.994 863.994 171.326 863.994 151.997C863.994 132.669 852.333 117 828.997 117C805.661 117 794 132.669 794 151.997C794 171.326 805.661 186.994 828.997 186.994Z" fill="url(#paint5_radial_1206_22546)"/>
<path d="M828.997 186.994C852.333 186.994 863.994 171.326 863.994 151.997C863.994 132.669 852.333 117 828.997 117C805.661 117 794 132.669 794 151.997C794 171.326 805.661 186.994 828.997 186.994Z" fill="url(#paint6_radial_1206_22546)"/>
<path d="M828.997 186.994C852.333 186.994 863.994 171.326 863.994 151.997C863.994 132.669 852.333 117 828.997 117C805.661 117 794 132.669 794 151.997C794 171.326 805.661 186.994 828.997 186.994Z" fill="url(#paint7_radial_1206_22546)"/>
<g filter="url(#filter0_f_1206_22546)">
<path fill-rule="evenodd" clip-rule="evenodd" d="M818.987 148.568C821.28 146.735 822.75 143.914 822.75 140.75C822.75 135.227 818.273 130.75 812.75 130.75C807.227 130.75 802.75 135.227 802.75 140.75C802.75 143.914 804.22 146.735 806.513 148.568C808.298 147.969 810.579 147.417 812.75 147.417C814.921 147.417 817.202 147.969 818.987 148.568Z" fill="#B3671F"/>
</g>
<g filter="url(#filter1_f_1206_22546)">
<path fill-rule="evenodd" clip-rule="evenodd" d="M847.737 147.943C850.03 146.11 851.5 143.289 851.5 140.125C851.5 134.602 847.023 130.125 841.5 130.125C835.977 130.125 831.5 134.602 831.5 140.125C831.5 143.289 832.97 146.11 835.263 147.943C837.048 147.344 839.329 146.792 841.5 146.792C843.671 146.792 845.952 147.344 847.737 147.943Z" fill="#9F5915"/>
</g>
<path fill-rule="evenodd" clip-rule="evenodd" d="M826.5 138.25C826.5 141.81 824.847 144.983 822.266 147.045C820.258 146.371 817.692 145.75 815.25 145.75C812.808 145.75 810.242 146.371 808.234 147.045C805.653 144.983 804 141.81 804 138.25C804 132.037 809.037 127 815.25 127C821.463 127 826.5 132.037 826.5 138.25ZM854 138.25C854 141.81 852.347 144.983 849.766 147.045C847.758 146.371 845.192 145.75 842.75 145.75C840.308 145.75 837.742 146.371 835.734 147.045C833.153 144.983 831.5 141.81 831.5 138.25C831.5 132.037 836.537 127 842.75 127C848.963 127 854 132.037 854 138.25Z" fill="white"/>
<path fill-rule="evenodd" clip-rule="evenodd" d="M824 138.25C824 141.836 822.151 144.917 819.506 146.269C818.135 145.96 816.671 145.75 815.25 145.75C814.469 145.75 813.675 145.814 812.891 145.922C810.572 144.434 809 141.556 809 138.25C809 133.418 812.358 129.5 816.5 129.5C820.642 129.5 824 133.418 824 138.25ZM849 138.25C849 141.556 847.428 144.434 845.109 145.922C844.325 145.814 843.531 145.75 842.75 145.75C841.329 145.75 839.865 145.96 838.494 146.269C835.849 144.917 834 141.836 834 138.25C834 133.418 837.358 129.5 841.5 129.5C845.642 129.5 849 133.418 849 138.25Z" fill="url(#paint8_linear_1206_22546)"/>
<path d="M829 174.5C806.5 174.5 806.5 152 806.5 152H851.5C851.5 152 851.5 174.5 829 174.5Z" fill="url(#paint9_radial_1206_22546)"/>
<path d="M809 154.75V152H849V154.75C849 155.302 848.552 155.75 848 155.75H810C809.448 155.75 809 155.302 809 154.75Z" fill="url(#paint10_linear_1206_22546)"/>
</g>
<rect x="332.227" y="29.5781" width="333.502" height="99.2728" rx="18.156" fill="#FF6464"/>
<path d="M356.912 47.4984C352.73 47.514 349.769 51.3361 349.801 57.3355C349.769 63.3975 352.73 67.2195 356.912 67.2039C359.622 67.2195 361.815 65.5748 363.021 62.7553H369.757V73.5322H372.702V45.3994H369.757V51.5084H362.818C361.58 48.9708 359.481 47.514 356.912 47.4984ZM352.62 57.3355C352.636 52.9338 354.375 50.1769 356.912 50.1613C359.45 50.1769 361.189 52.9338 361.204 57.3355C361.189 61.7997 359.45 64.541 356.912 64.541C354.375 64.541 352.636 61.7997 352.62 57.3355ZM363.663 53.952H369.757V60.3117H363.742C363.93 59.3875 364.024 58.4006 364.024 57.3355C364.024 56.1137 363.883 54.9858 363.663 53.952ZM402.683 59.7791H376.994V62.16H402.683V59.7791ZM380.221 48.3756H396.48V50.7565H380.283V57.6487H400.02V55.3618H383.228V52.9495H399.456V46.0259H380.221V48.3756ZM380.408 73.1249H399.487V64.447H380.408V73.1249ZM383.353 70.7127V66.8279H396.543V70.7127H383.353ZM420.383 48.4069H406.035V50.8192H417.439C417.423 53.1531 417.345 56.4269 416.624 60.9069L419.569 61.1262C420.368 56.1137 420.368 52.4952 420.383 50.1299V48.4069ZM404.469 65.0109L404.813 67.4232C409.794 67.4545 416.326 67.3292 422.169 66.3893L422.012 64.165C419.209 64.5253 416.154 64.7133 413.178 64.8386V56.4269H410.233V64.9326C408.181 64.9796 406.223 64.9952 404.469 65.0109ZM423.61 73.4695H426.618V59.5284H430.91V56.9909H426.618V45.3994H423.61V73.4695ZM454.594 48.4069H441.499V50.7878H451.602C451.038 57.2728 447.435 62.3637 440.214 65.9194L441.781 68.3004C448.391 65.0736 452.025 60.5466 453.623 55.3305H460.734V60.4683H453.184V62.9119H460.734V73.4382H463.679V45.368H460.734V52.9495H454.187C454.469 51.4771 454.594 49.9576 454.594 48.4069ZM480.816 45.7127C474.487 45.697 470.775 47.4357 470.791 50.5372C470.775 53.6857 474.487 55.3931 480.816 55.3931C487.144 55.3931 490.825 53.6857 490.841 50.5372C490.825 47.4357 487.144 45.697 480.816 45.7127ZM468.034 59.4031H479.312V61.8154H471.104V64.0397H487.457V66.2327H471.135V73.1876H491.185V70.9006H474.049V68.3944H490.402V61.8154H482.288V59.4031H493.629V57.0535H468.034V59.4031ZM473.892 50.5372C473.877 48.8925 476.351 47.9526 480.816 47.937C485.311 47.9526 487.786 48.8925 487.771 50.5372C487.786 52.2759 485.311 53.1531 480.816 53.1688C476.351 53.1531 473.877 52.2759 473.892 50.5372ZM519.913 45.3994H517.063V73.4695H519.913V45.3994ZM496.073 57.5234C496.073 63.6168 498.454 67.4388 502.119 67.4232C505.596 67.4388 507.93 64.0397 508.197 58.5573H511.361V72.0911H514.212V45.932H511.361V56.145H508.181C507.836 50.8818 505.534 47.6393 502.119 47.655C498.454 47.6393 496.073 51.4457 496.073 57.5234ZM498.83 57.5234C498.83 53.0435 500.098 50.4276 502.119 50.4432C504.187 50.4276 505.471 53.0435 505.471 57.5234C505.471 61.9877 504.187 64.6193 502.119 64.6036C500.098 64.6193 498.83 61.9877 498.83 57.5234ZM546.95 47.5297H532.789V49.9733H544.021C543.989 51.7434 543.895 54.0147 543.284 57.1162L546.229 57.3981C546.918 53.764 546.918 50.9758 546.95 49.0961V47.5297ZM531.098 59.8104L531.38 62.2227C536.33 62.207 543.034 62.0974 548.892 61.0635L548.704 58.9019C545.885 59.3091 542.783 59.5284 539.776 59.6538V53.8267H536.831V59.7477C534.779 59.7947 532.821 59.8104 531.098 59.8104ZM535.358 72.8743H554.437V70.462H538.335V64.5723H535.358V72.8743ZM550.49 66.4833H553.529V56.8342H557.382V54.3279H553.529V45.3994H550.49V66.4833ZM582.351 45.3994H579.375V73.5322H582.351V45.3994ZM560.609 50.3492H570.728V55.8004H560.64V66.7966H563.021C567.987 66.781 572.216 66.593 577.182 65.7628L576.9 63.3192C572.2 64.0867 568.237 64.306 563.679 64.3217V58.1813H573.767V47.937H560.609V50.3492ZM610.014 45.3994H607.038V73.5322H610.014V45.3994ZM588.335 66.7966H601.806V47.749H598.861V54.9545H591.311V47.749H588.335V66.7966ZM591.311 64.353V57.3041H598.861V64.353H591.311ZM636.361 45.3994H633.385V73.4382H636.361V59.0585H640.715V56.5836H636.361V45.3994ZM614.525 65.9508L616.185 68.269C625.427 63.7108 628.999 56.4583 629.03 48.3442H615.935V50.8192H625.991C625.38 57.3668 621.558 62.442 614.525 65.9508ZM371.355 83.3994H368.378V97.6538H371.355V92.046H375.427V89.5711H371.355V83.3994ZM350.396 96.7452H363.523V85.2164H350.396V96.7452ZM352.119 110.718H353.56C355.659 110.718 358.181 110.608 360.797 109.715L360.358 107.366C358.573 107.961 356.677 108.196 355.033 108.274V100.097H352.119V110.718ZM353.309 94.3643V87.5974H360.609V94.3643H353.309ZM359.826 102.604H373.986V100.411H368.41V98.061H365.496V100.411H359.826V102.604ZM361.611 107.46C361.58 109.887 363.742 111.407 366.906 111.407C370.007 111.407 372.2 109.887 372.2 107.46C372.2 105.032 370.007 103.543 366.906 103.512C363.742 103.543 361.58 105.032 361.611 107.46ZM364.243 107.46C364.243 106.3 365.355 105.611 366.906 105.58C368.425 105.611 369.522 106.3 369.538 107.46C369.522 108.65 368.425 109.371 366.906 109.371C365.355 109.371 364.243 108.65 364.243 107.46ZM400.271 83.3994H397.294V111.532H400.271V83.3994ZM377.996 95.3355C377.996 101.397 381.019 105.22 385.264 105.204C389.431 105.22 392.501 101.397 392.501 95.3355C392.501 89.3361 389.431 85.514 385.264 85.4984C381.019 85.514 377.996 89.3361 377.996 95.3355ZM380.878 95.3355C380.863 90.9338 382.648 88.1769 385.264 88.1613C387.833 88.1769 389.619 90.9338 389.619 95.3355C389.619 99.7997 387.833 102.541 385.264 102.541C382.648 102.541 380.863 99.7997 380.878 95.3355ZM438.804 94.4269H434.45V83.3994H431.474V111.438H434.45V96.8706H438.804V94.4269ZM413.648 104.389H415.966C420.18 104.405 424.597 104.123 429.406 103.168L429.061 100.661C424.597 101.57 420.509 101.899 416.593 101.914V86.1249H413.648V104.389ZM453.09 83.7127C446.762 83.697 443.049 85.4357 443.065 88.5372C443.049 91.4351 446.182 93.1112 451.586 93.3618V95.3355H440.308V97.7164H465.903V95.3355H454.5V93.3618C459.967 93.1268 463.1 91.4508 463.115 88.5372C463.1 85.4357 459.419 83.697 453.09 83.7127ZM443.378 102.071H459.732V104.264H443.41V111.188H463.46V108.901H446.323V106.394H462.677V99.8154H443.378V102.071ZM446.167 88.5372C446.151 86.8925 448.626 85.9526 453.09 85.937C457.586 85.9526 460.061 86.8925 460.045 88.5372C460.061 90.2759 457.586 91.1531 453.09 91.1688C448.626 91.1531 446.151 90.2759 446.167 88.5372ZM490.34 83.3994H487.363V111.47H490.34V97.2465H494.412V94.8029H490.34V83.3994ZM467.783 103.575L470.133 105.235C475.224 99.8154 476.477 93.4244 476.492 86.4069H468.786V88.8505H473.673C473.375 94.4739 471.887 99.2985 467.783 103.575ZM475.803 105.455L478.184 107.084C483.338 100.99 484.231 93.5028 484.231 86.4069H477.401V88.8505H481.427C481.207 94.8342 479.986 100.567 475.803 105.455ZM500.208 85.6863H497.232V98.4056H502.84V103.293C500.192 103.371 497.623 103.371 495.415 103.387L495.885 105.862C500.741 105.846 507.273 105.783 513.209 104.797L512.99 102.604C510.703 102.901 508.244 103.089 505.784 103.199V98.4056H511.361V85.6863H508.416V89.7277H500.208V85.6863ZM500.208 96.0247V91.9833H508.416V96.0247H500.208ZM514.682 111.47H517.658V97.4971H521.981V94.9909H517.658V83.3994H514.682V111.47ZM545.885 85.1538H533.071V87.5974H542.689C542.125 92.0303 538.131 95.5234 531.63 97.3405L532.821 99.6588C540.966 97.3561 545.869 92.2966 545.885 85.1538ZM535.703 103.418H551.743V111.407H554.719V101.006H535.703V103.418ZM546.041 93.0485H551.743V99.8467H554.719V83.4307H551.743V90.5736H546.041V93.0485ZM582.445 83.3994H579.469V90.5422H574.237V92.9858H579.469V100.097H582.445V83.3994ZM559.043 97.5598L560.609 99.9407C563.961 98.7033 566.42 96.1813 567.642 93.0485C568.864 95.8211 571.182 98.0767 574.331 99.1575L575.866 96.8079C571.621 95.3668 569.083 91.905 569.099 88.3492V87.754H575.114V85.3417H559.982V87.754H566.06V88.3806C566.076 92.2496 563.397 96.0404 559.043 97.5598ZM563.554 106.175C563.538 109.512 567.141 111.454 573.046 111.47C578.92 111.454 582.523 109.512 582.539 106.175C582.523 102.839 578.92 100.896 573.046 100.881C567.141 100.896 563.538 102.839 563.554 106.175ZM566.499 106.175C566.483 104.264 568.927 103.183 573.046 103.199C577.135 103.183 579.578 104.264 579.594 106.175C579.578 108.07 577.135 109.151 573.046 109.12C568.927 109.151 566.483 108.07 566.499 106.175ZM608.823 83.3994H605.847V100.317H608.823V93.2051H612.896V90.6675H608.823V83.3994ZM586.799 88.6312H603.529V86.2502H596.668V83.1801H593.692V86.2502H586.799V88.6312ZM588.335 94.8655C588.319 97.9044 591.076 99.8937 595.164 99.9094C599.205 99.8937 601.962 97.9044 601.962 94.8655C601.962 91.8737 599.221 89.853 595.164 89.853C591.076 89.853 588.319 91.8737 588.335 94.8655ZM590.903 111.125H608.823V101.789H590.903V111.125ZM591.217 94.8655C591.185 93.1895 592.783 92.1243 595.164 92.14C597.545 92.1243 599.143 93.1895 599.174 94.8655C599.143 96.6043 597.545 97.6381 595.164 97.6538C592.783 97.6381 591.185 96.6043 591.217 94.8655ZM593.817 108.713V104.139H605.878V108.713H593.817Z" fill="white"/>
<rect x="647.914" y="223.359" width="380.095" height="98.2728" rx="17.656" fill="white"/>
<path d="M687.733 238.681H684.788V253.123H687.733V238.681ZM664.581 250.617L666.085 252.966C669.437 251.823 671.943 249.379 673.212 246.309C674.481 249.16 676.94 251.369 680.214 252.434L681.686 250.115C677.379 248.768 674.684 245.354 674.7 241.594V239.433H671.661V241.594C671.645 245.479 668.967 249.16 664.581 250.617ZM669.312 256.82H684.819V259.232H669.406V266.469H688.704V264.088H672.288V261.488H687.764V254.47H669.312V256.82ZM702.52 245.823V241.03H699.512V245.823C699.512 251.181 696.411 256.553 691.993 258.511L693.81 261.018C697.178 259.373 699.763 255.99 701.063 251.87C702.379 255.708 704.932 258.856 708.159 260.391L709.944 258.042C705.59 256.115 702.488 250.946 702.52 245.823ZM712.482 266.813H715.458V238.681H712.482V266.813ZM741.993 238.681H738.986V259.075H741.993V249.458H746.066V246.983H741.993V238.681ZM719.907 253.624L721.16 256.005C729.368 253.515 734.38 248.173 734.38 240.811H721.097V243.286H731.138C730.558 247.907 726.486 251.651 719.907 253.624ZM724.167 266.156H743.152V263.743H727.175V256.976H724.167V266.156ZM760.446 240.372C754.572 240.372 750.092 243.49 750.107 248.204C750.092 252.951 754.572 256.052 760.446 256.037C766.335 256.052 770.815 252.951 770.815 248.204C770.815 243.49 766.335 240.372 760.446 240.372ZM747.664 263.117H773.353V260.642H747.664V263.117ZM752.958 248.204C752.942 244.946 756.138 242.769 760.446 242.785C764.738 242.769 767.917 244.946 767.933 248.204C767.917 251.478 764.738 253.593 760.446 253.593C756.138 253.593 752.942 251.478 752.958 248.204ZM801.078 260.892H789.644V255.974H798.603V253.53H781.467V249.426H797.946V240.654H778.459V243.098H795.001V247.045H778.522V255.974H786.699V260.892H775.389V263.399H801.078V260.892ZM826.58 240.811H812.419V243.255H823.65C823.619 245.025 823.525 247.296 822.914 250.397L825.859 250.679C826.548 247.045 826.548 244.257 826.58 242.377V240.811ZM810.728 253.092L811.01 255.504C815.959 255.488 822.664 255.379 828.522 254.345L828.334 252.183C825.515 252.59 822.413 252.81 819.406 252.935V247.108H816.461V253.029C814.409 253.076 812.451 253.092 810.728 253.092ZM814.988 266.156H834.067V263.743H817.964V257.854H814.988V266.156ZM830.12 259.765H833.159V250.115H837.012V247.609H833.159V238.681H830.12V259.765ZM861.981 238.681H859.004V266.813H861.981V238.681ZM840.239 243.63H850.358V249.082H840.27V260.078H842.651C847.617 260.062 851.846 259.874 856.812 259.044L856.53 256.6C851.83 257.368 847.867 257.587 843.309 257.603V251.463H853.397V241.218H840.239V243.63ZM889.644 238.681H886.667V266.813H889.644V238.681ZM867.964 260.078H881.436V241.03H878.491V248.236H870.941V241.03H867.964V260.078ZM870.941 257.634V250.585H878.491V257.634H870.941ZM924.042 238.712H921.066V257.603H924.042V249.489H928.052V247.045H924.042V238.712ZM901.768 254.47L902.081 256.851C907.031 256.851 913.688 256.804 919.719 255.755L919.468 253.624C917.119 253.969 914.581 254.172 912.075 254.298V252.512C915.239 252.136 917.228 250.632 917.244 248.392C917.228 245.823 914.597 244.226 910.571 244.257C906.545 244.226 903.867 245.823 903.898 248.392C903.867 250.648 905.903 252.152 909.098 252.512V254.407C906.467 254.47 903.945 254.47 901.768 254.47ZM902.488 243.317H918.685V241.093H912.075V238.461H909.098V241.093H902.488V243.317ZM905.276 261.237H921.066V266.751H924.042V258.919H905.276V261.237ZM906.718 248.392C906.718 247.045 908.174 246.262 910.571 246.293C912.936 246.262 914.409 247.045 914.393 248.392C914.409 249.708 912.936 250.57 910.571 250.554C908.174 250.57 906.718 249.708 906.718 248.392ZM952.958 238.712H949.982V259.107H952.958V238.712ZM930.245 247.547C930.261 251.666 933.488 254.533 937.733 254.533C941.962 254.533 945.189 251.666 945.189 247.547C945.189 243.49 941.962 240.607 937.733 240.592C933.488 240.607 930.261 243.49 930.245 247.547ZM933.159 247.547C933.143 244.962 935.117 243.192 937.733 243.192C940.301 243.192 942.275 244.962 942.275 247.547C942.275 250.194 940.301 251.933 937.733 251.933C935.117 251.933 933.143 250.194 933.159 247.547ZM934.6 266.156H953.804V263.743H937.607V257.039H934.6V266.156ZM979.274 238.681H976.298V266.719H979.274V252.34H983.629V249.865H979.274V238.681ZM957.438 259.232L959.098 261.55C968.34 256.992 971.912 249.74 971.943 241.625H958.848V244.1H968.904C968.293 250.648 964.471 255.723 957.438 259.232ZM1007.81 246.262H991.492V239.182H988.547V248.674H1007.81V246.262ZM985.132 254.094H1010.76V251.651H985.132V254.094ZM988.171 261.488C988.171 264.777 991.821 266.625 997.914 266.625C1003.96 266.625 1007.58 264.777 1007.59 261.488C1007.58 258.214 1003.96 256.365 997.914 256.381C991.821 256.365 988.171 258.214 988.171 261.488ZM991.179 261.488C991.163 259.671 993.622 258.715 997.914 258.699C1002.14 258.715 1004.62 259.671 1004.62 261.488C1004.62 263.289 1002.14 264.323 997.914 264.339C993.622 264.323 991.163 263.289 991.179 261.488ZM687.733 276.681H684.756V304.813H687.733V276.681ZM665.458 288.617C665.458 294.679 668.481 298.501 672.726 298.485C676.893 298.501 679.963 294.679 679.963 288.617C679.963 282.617 676.893 278.795 672.726 278.78C668.481 278.795 665.458 282.617 665.458 288.617ZM668.34 288.617C668.325 284.215 670.11 281.458 672.726 281.443C675.295 281.458 677.081 284.215 677.081 288.617C677.081 293.081 675.295 295.822 672.726 295.822C670.11 295.822 668.325 293.081 668.34 288.617ZM717.87 289.337H692.213V291.812H703.491V294.757H706.436V291.812H717.87V289.337ZM693.998 302.37L694.969 304.625C699.528 304.156 703.24 302.448 704.932 299.958C706.624 302.479 710.367 304.14 714.957 304.625L715.865 302.37C710.43 301.853 706.467 299.582 706.467 296.762V295.979H703.397V296.762C703.412 299.519 699.387 301.853 693.998 302.37ZM694.969 282.288C694.954 285.562 698.823 287.473 704.994 287.458C711.197 287.473 715.004 285.562 715.02 282.288C715.004 278.952 711.197 277.088 704.994 277.088C698.823 277.088 694.954 278.952 694.969 282.288ZM698.04 282.288C698.024 280.409 700.624 279.312 704.994 279.344C709.333 279.312 711.965 280.409 711.949 282.288C711.965 284.09 709.333 285.171 704.994 285.171C700.624 285.171 698.024 284.09 698.04 282.288ZM730.339 281.161V280.847H736.511V278.435H721.035V280.847H727.332V281.161C727.316 284.842 724.59 288.288 720.22 289.619L721.724 291.969C725.092 290.857 727.598 288.538 728.851 285.578C730.135 288.335 732.61 290.465 735.884 291.468L737.388 289.149C733.065 287.88 730.339 284.654 730.339 281.161ZM724.857 304.406H743.215V293.191H740.27V296.323H727.77V293.191H724.857V304.406ZM727.77 301.994V298.673H740.27V301.994H727.77ZM740.239 291.875H743.215V276.681H740.239V291.875ZM763.296 279.688H748.948V282.1H760.352C760.336 284.434 760.258 287.708 759.537 292.188L762.482 292.407C763.281 287.395 763.281 283.776 763.296 281.411V279.688ZM747.382 296.292L747.726 298.704C752.708 298.736 759.239 298.61 765.082 297.671L764.926 295.446C762.122 295.807 759.067 295.995 756.091 296.12V287.708H753.146V296.214C751.094 296.261 749.136 296.276 747.382 296.292ZM766.523 304.751H769.531V290.81H773.823V288.272H769.531V276.681H766.523V304.751ZM798.854 278.811H784.694V281.255H795.925C795.894 283.025 795.8 285.296 795.189 288.397L798.134 288.679C798.823 285.045 798.823 282.257 798.854 280.377V278.811ZM783.002 291.092L783.284 293.504C788.234 293.488 794.938 293.379 800.796 292.345L800.609 290.183C797.789 290.59 794.687 290.81 791.68 290.935V285.108H788.735V291.029C786.683 291.076 784.725 291.092 783.002 291.092ZM787.263 304.156H806.342V301.743H790.239V295.854H787.263V304.156ZM802.394 297.765H805.433V288.115H809.286V285.609H805.433V276.681H802.394V297.765ZM834.255 276.681H831.279V304.813H834.255V276.681ZM812.513 281.63H822.632V287.082H812.545V298.078H814.926C819.891 298.062 824.12 297.874 829.086 297.044L828.804 294.6C824.105 295.368 820.142 295.587 815.583 295.603V289.463H825.671V279.218H812.513V281.63ZM861.918 276.681H858.942V304.813H861.918V276.681ZM840.239 298.078H853.71V279.03H850.765V286.236H843.215V279.03H840.239V298.078ZM843.215 295.634V288.585H850.765V295.634H843.215ZM897.476 276.681H894.499V304.813H897.476V276.681ZM875.796 298.078H889.268V279.03H886.323V286.236H878.773V279.03H875.796V298.078ZM878.773 295.634V288.585H886.323V295.634H878.773ZM924.763 279.375H904.587V281.787H921.786V282.382C921.802 285.828 921.802 289.588 920.815 294.663L923.729 294.976C924.731 289.604 924.731 285.907 924.763 282.382V279.375ZM901.956 300.96H927.551V298.485H917.933V289.4H915.02V298.485H910.978V289.4H908.002V298.485H901.956V300.96ZM951.548 276.681H948.572V304.719H951.548V290.34H955.903V287.865H951.548V276.681ZM929.713 297.232L931.373 299.55C940.615 294.992 944.186 287.74 944.218 279.625H931.122V282.1H941.179C940.568 288.648 936.746 293.723 929.713 297.232ZM980.088 284.262H963.766V277.182H960.822V286.674H980.088V284.262ZM957.407 292.094H983.033V289.651H957.407V292.094ZM960.446 299.488C960.446 302.777 964.095 304.625 970.189 304.625C976.235 304.625 979.854 302.777 979.869 299.488C979.854 296.214 976.235 294.365 970.189 294.381C964.095 294.365 960.446 296.214 960.446 299.488ZM963.453 299.488C963.437 297.671 965.897 296.715 970.189 296.699C974.418 296.715 976.893 297.671 976.893 299.488C976.893 301.289 974.418 302.323 970.189 302.339C965.897 302.323 963.437 301.289 963.453 299.488Z" fill="black"/>
<rect x="647.914" y="223.359" width="380.095" height="98.2728" rx="17.656" stroke="#908F99"/>
<rect x="955.387" y="0.705078" width="325.153" height="99.2728" rx="18.156" fill="#3E9BFB"/>
<path d="M982.798 24.797V21.8208H989.189V19.3459H973.368V21.8208H979.79V24.797C979.759 29.6372 976.626 34.9004 972.397 36.8897L974.12 39.2394C977.394 37.6416 980.025 34.2268 981.326 30.2168C982.626 33.9605 985.257 37.062 988.562 38.5188L990.191 36.2005C985.868 34.3521 982.782 29.4963 982.798 24.797ZM992.729 44.5965H995.705V16.5263H992.729V44.5965ZM1025.84 30.4674H1014.44V26.3634H1011.49V30.4674H1000.19V32.911H1025.84V30.4674ZM1001.66 25.5489L1002.75 27.8985C1007.23 27.178 1011.17 25.0163 1012.95 21.9148C1014.74 25.0163 1018.67 27.178 1023.12 27.8985L1024.28 25.5489C1018.86 24.8597 1014.46 21.7425 1014.47 18.1554V16.9649H1011.46V18.1554C1011.45 21.6955 1007.03 24.8597 1001.66 25.5489ZM1003.04 37.7356H1019.64V44.5965H1022.65V35.386H1003.04V37.7356ZM1037.97 21.5075V20.7556H1043.98V18.3434H1028.85V20.7556H1034.93V21.5389C1034.94 25.3452 1032.25 29.089 1027.94 30.5614L1029.48 32.911C1032.81 31.7362 1035.27 29.2613 1036.49 26.1754C1037.72 28.948 1040.05 31.2036 1043.2 32.2845L1044.73 29.9662C1040.49 28.5094 1037.95 25.0476 1037.97 21.5075ZM1032.3 37.1404H1048.34V44.5965H1051.31V34.7281H1032.3V37.1404ZM1043.14 26.1128H1048.34V33.3183H1051.31V16.5263H1048.34V23.6692H1043.14V26.1128ZM1078.91 16.5577H1075.94V36.9524H1078.91V16.5577ZM1056.2 25.3922C1056.22 29.5119 1059.44 32.3785 1063.69 32.3785C1067.92 32.3785 1071.14 29.5119 1071.14 25.3922C1071.14 21.3352 1067.92 18.453 1063.69 18.4374C1059.44 18.453 1056.22 21.3352 1056.2 25.3922ZM1059.11 25.3922C1059.1 22.8077 1061.07 21.0376 1063.69 21.0376C1066.26 21.0376 1068.23 22.8077 1068.23 25.3922C1068.23 28.0395 1066.26 29.7782 1063.69 29.7782C1061.07 29.7782 1059.1 28.0395 1059.11 25.3922ZM1060.55 44.0013H1079.76V41.589H1063.56V34.8847H1060.55V44.0013ZM1113.25 16.5263H1110.27V30.7181H1113.25V24.8597H1117.32V22.3847H1113.25V16.5263ZM1091.63 23.7632C1091.6 27.4442 1094.75 30.0288 1098.99 30.0288C1103.26 30.0288 1106.36 27.4442 1106.36 23.7632C1106.36 20.0508 1103.26 17.5132 1098.99 17.4975C1094.75 17.5132 1091.6 20.0508 1091.63 23.7632ZM1094.51 23.7632C1094.5 21.4762 1096.41 19.9254 1098.99 19.9411C1101.58 19.9254 1103.47 21.4762 1103.47 23.7632C1103.47 26.0501 1101.58 27.6479 1098.99 27.6479C1096.41 27.6479 1094.5 26.0501 1094.51 23.7632ZM1095.11 34.3208H1110.3V36.8897H1095.17V44.2519H1114.22V41.8709H1098.09V39.114H1113.25V32.0025H1095.11V34.3208ZM1140.97 16.5577H1138V33.2556H1140.97V26.0501H1145.08V23.5439H1140.97V16.5577ZM1120.05 20.411H1129.92V23.7005H1120.08V31.9399H1122.33C1127.72 31.9399 1131.44 31.7832 1135.77 31L1135.46 28.6191C1131.37 29.3083 1127.93 29.4493 1123.05 29.4649V25.9562H1132.83V18.0301H1120.05V20.411ZM1122.99 44.2519H1140.97V34.5714H1122.99V44.2519ZM1125.91 41.8396V36.8897H1138.09V41.8396H1125.91ZM1159.43 16.9963C1153.1 16.9806 1149.39 18.688 1149.4 21.8208C1149.39 24.9693 1153.1 26.6767 1159.43 26.6767C1165.76 26.6767 1169.44 24.9693 1169.45 21.8208C1169.44 18.688 1165.76 16.9806 1159.43 16.9963ZM1146.65 30.7807H1172.24V28.3998H1146.65V30.7807ZM1149.72 35.1667H1166.07V37.3597H1149.75V44.3145H1169.8V42.0276H1152.66V39.5213H1169.01V32.9424H1149.72V35.1667ZM1152.5 21.8208C1152.49 20.1604 1154.96 19.1892 1159.43 19.1892C1163.92 19.1892 1166.4 20.1604 1166.38 21.8208C1166.4 23.5595 1163.92 24.4524 1159.43 24.4524C1154.96 24.4524 1152.49 23.5595 1152.5 21.8208ZM1207.8 31.282H1196.46V28.8384H1204.85V26.5201H1188.5V24.1391H1203.94V21.9148H1188.5V19.6278H1204.67V17.2782H1185.49V28.8384H1193.48V31.282H1182.14V33.6316H1207.8V31.282ZM1185.24 40.0226C1185.24 42.9831 1188.73 44.5495 1194.98 44.5338C1201.14 44.5495 1204.65 42.9831 1204.67 40.0226C1204.65 37.0777 1201.14 35.4643 1194.98 35.48C1188.73 35.4643 1185.24 37.0777 1185.24 40.0226ZM1188.22 40.0226C1188.2 38.5031 1190.55 37.7043 1194.98 37.7043C1199.35 37.7043 1201.69 38.5031 1201.69 40.0226C1201.69 41.542 1199.35 42.3095 1194.98 42.2782C1190.55 42.3095 1188.2 41.542 1188.22 40.0226ZM1223.81 21.1629H1218.32V17.3409H1215.38V21.1629H1209.87V23.5752H1223.81V21.1629ZM1210.77 31.7206C1210.76 35.5583 1213.33 38.2525 1216.85 38.2369C1220.41 38.2525 1222.95 35.5583 1222.96 31.7206C1222.95 27.9455 1220.41 25.2669 1216.85 25.2669C1213.33 25.2669 1210.76 27.9455 1210.77 31.7206ZM1213.41 31.7206C1213.39 29.3866 1214.83 27.7575 1216.85 27.7419C1218.87 27.7575 1220.33 29.3866 1220.33 31.7206C1220.33 34.1015 1218.87 35.6993 1216.85 35.6993C1214.83 35.6993 1213.39 34.1015 1213.41 31.7206ZM1225.09 43.2807H1227.91V30.6554H1231.14V44.5965H1233.96V16.5263H1231.14V28.2118H1227.91V17.1529H1225.09V43.2807ZM996.614 54.5263H993.763V82.5965H996.614V54.5263ZM972.773 66.6504C972.773 72.7437 975.154 76.5658 978.819 76.5501C982.297 76.5658 984.631 73.1667 984.897 67.6842H988.061V81.2181H990.912V55.0589H988.061V65.2719H984.881C984.537 60.0088 982.234 56.7663 978.819 56.782C975.154 56.7663 972.773 60.5727 972.773 66.6504ZM975.53 66.6504C975.53 62.1704 976.799 59.5545 978.819 59.5702C980.887 59.5545 982.171 62.1704 982.171 66.6504C982.171 71.1147 980.887 73.7463 978.819 73.7306C976.799 73.7463 975.53 71.1147 975.53 66.6504ZM1023.62 54.5263H1020.64V63.5802H1012.28V66.0238H1020.64V82.6592H1023.62V54.5263ZM1001.69 75.8922H1003.94C1008.35 75.9079 1012.42 75.6573 1016.95 74.7331L1016.57 72.2895C1012.48 73.104 1008.71 73.3546 1004.7 73.4173V57.6278H1001.69V75.8922ZM1038.25 62.797V59.8208H1044.64V57.3459H1028.82V59.8208H1035.24V62.797C1035.21 67.6372 1032.08 72.9004 1027.85 74.8897L1029.57 77.2394C1032.84 75.6416 1035.48 72.2268 1036.78 68.2168C1038.08 71.9605 1040.71 75.062 1044.01 76.5188L1045.64 74.2005C1041.32 72.3521 1038.23 67.4963 1038.25 62.797ZM1048.18 82.5965H1051.16V54.5263H1048.18V82.5965ZM1079.1 56.6567H1064.94V59.1003H1076.17C1076.14 60.8703 1076.05 63.1416 1075.44 66.2431L1078.38 66.5251C1079.07 62.891 1079.07 60.1028 1079.1 58.2231V56.6567ZM1063.25 68.9374L1063.53 71.3496C1068.48 71.334 1075.19 71.2243 1081.04 70.1905L1080.86 68.0288C1078.04 68.4361 1074.93 68.6554 1071.93 68.7807V62.9536H1068.98V68.8747C1066.93 68.9217 1064.97 68.9374 1063.25 68.9374ZM1067.51 82.0013H1086.59V79.589H1070.49V73.6993H1067.51V82.0013ZM1082.64 75.6103H1085.68V65.9612H1089.53V63.4549H1085.68V54.5263H1082.64V75.6103ZM1114.5 54.5263H1111.53V82.6592H1114.5V54.5263ZM1092.76 59.4762H1102.88V64.9273H1092.79V75.9236H1095.17C1100.14 75.9079 1104.37 75.7199 1109.33 74.8897L1109.05 72.4461C1104.35 73.2137 1100.39 73.433 1095.83 73.4486V67.3083H1105.92V57.0639H1092.76V59.4762ZM1133.74 56.312H1120.39V67.8409H1133.74V56.312ZM1122.24 80.2155L1123.27 82.5025C1127.69 81.9699 1131.37 80.1216 1133.1 77.6153C1134.79 80.0902 1138.42 81.9699 1142.82 82.5025L1143.83 80.2155C1138.72 79.6516 1134.82 77.0827 1134.62 74.6391H1142.82V72.3835H1134.55V69.7519H1131.61V72.3835H1123.37V74.6391H1131.54C1131.34 77.161 1127.35 79.7143 1122.24 80.2155ZM1123.31 65.5226V58.693H1130.79V65.5226H1123.31ZM1139.22 70.5664H1142.17V54.5263H1139.22V70.5664ZM1178.63 54.5263H1175.78V82.5965H1178.63V54.5263ZM1154.79 66.6504C1154.79 72.7437 1157.17 76.5658 1160.84 76.5501C1163.23 76.5658 1165.08 74.9524 1166.1 72.1642H1170.17V81.2181H1172.99V55.0589H1170.17V61.1366H1166.08C1165.08 58.364 1163.23 56.7663 1160.84 56.782C1157.17 56.7663 1154.79 60.5727 1154.79 66.6504ZM1157.52 66.6504C1157.5 62.1704 1158.75 59.5545 1160.84 59.5702C1162.9 59.5545 1164.22 62.1704 1164.22 66.6504C1164.22 71.1147 1162.9 73.7463 1160.84 73.7306C1158.75 73.7463 1157.5 71.1147 1157.52 66.6504ZM1166.71 63.5489H1170.17V69.7206H1166.71C1166.87 68.7807 1166.95 67.7469 1166.95 66.6504C1166.95 65.5382 1166.87 64.5044 1166.71 63.5489ZM1207.8 68.6241H1182.2V71.005H1207.8V68.6241ZM1183.58 64.9273L1184.52 67.2143C1189.33 66.76 1193.25 65.131 1194.98 62.4994C1196.71 65.131 1200.61 66.76 1205.45 67.2143L1206.39 64.9273C1200.75 64.4887 1196.91 62.4211 1196.63 59.6328H1205.23V57.2832H1196.46V54.495H1193.51V57.2832H1184.77V59.6328H1193.34C1193.03 62.4211 1189.17 64.4887 1183.58 64.9273ZM1185.05 76.1115H1201.66V82.5965H1204.67V73.7306H1185.05V76.1115ZM1231.8 54.5263H1228.82V82.5652H1231.8V68.1855H1236.15V65.7105H1231.8V54.5263ZM1209.96 75.0777L1211.62 77.396C1220.86 72.8377 1224.43 65.5852 1224.46 57.4712H1211.37V59.9461H1221.43C1220.81 66.4937 1216.99 71.5689 1209.96 75.0777ZM1260.34 62.1078H1244.01V55.0276H1241.07V64.5201H1260.34V62.1078ZM1237.65 69.9399H1263.28V67.4963H1237.65V69.9399ZM1240.69 77.3333C1240.69 80.6228 1244.34 82.4712 1250.44 82.4712C1256.48 82.4712 1260.1 80.6228 1260.12 77.3333C1260.1 74.0595 1256.48 72.2112 1250.44 72.2268C1244.34 72.2112 1240.69 74.0595 1240.69 77.3333ZM1243.7 77.3333C1243.68 75.5163 1246.14 74.5608 1250.44 74.5451C1254.67 74.5608 1257.14 75.5163 1257.14 77.3333C1257.14 79.1347 1254.67 80.1686 1250.44 80.1842C1246.14 80.1686 1243.68 79.1347 1243.7 77.3333Z" fill="white"/>
<g clip-path="url(#clip1_1206_22546)">
<path d="M172.997 350.994C196.333 350.994 207.994 335.326 207.994 315.997C207.994 296.669 196.333 281 172.997 281C149.661 281 138 296.669 138 315.997C138 335.326 149.661 350.994 172.997 350.994Z" fill="url(#paint11_radial_1206_22546)"/>
<path d="M172.997 350.994C196.333 350.994 207.994 335.326 207.994 315.997C207.994 296.669 196.333 281 172.997 281C149.661 281 138 296.669 138 315.997C138 335.326 149.661 350.994 172.997 350.994Z" fill="url(#paint12_radial_1206_22546)"/>
<path d="M172.997 350.994C196.333 350.994 207.994 335.326 207.994 315.997C207.994 296.669 196.333 281 172.997 281C149.661 281 138 296.669 138 315.997C138 335.326 149.661 350.994 172.997 350.994Z" fill="url(#paint13_radial_1206_22546)" fill-opacity="0.6"/>
<path d="M172.997 350.994C196.333 350.994 207.994 335.326 207.994 315.997C207.994 296.669 196.333 281 172.997 281C149.661 281 138 296.669 138 315.997C138 335.326 149.661 350.994 172.997 350.994Z" fill="url(#paint14_radial_1206_22546)"/>
<path d="M172.997 350.994C196.333 350.994 207.994 335.326 207.994 315.997C207.994 296.669 196.333 281 172.997 281C149.661 281 138 296.669 138 315.997C138 335.326 149.661 350.994 172.997 350.994Z" fill="url(#paint15_radial_1206_22546)"/>
<path d="M172.997 350.994C196.333 350.994 207.994 335.326 207.994 315.997C207.994 296.669 196.333 281 172.997 281C149.661 281 138 296.669 138 315.997C138 335.326 149.661 350.994 172.997 350.994Z" fill="url(#paint16_radial_1206_22546)"/>
<path d="M172.997 350.994C196.333 350.994 207.994 335.326 207.994 315.997C207.994 296.669 196.333 281 172.997 281C149.661 281 138 296.669 138 315.997C138 335.326 149.661 350.994 172.997 350.994Z" fill="url(#paint17_radial_1206_22546)"/>
<path d="M169.733 311.999C169.733 317.834 165.002 322.565 159.167 322.565C153.332 322.565 148.602 317.834 148.602 311.999C148.602 306.164 153.332 301.434 159.167 301.434C165.002 301.434 169.733 306.164 169.733 311.999Z" fill="white"/>
<path d="M176.271 311.999C176.271 317.834 181.002 322.565 186.837 322.565C192.672 322.565 197.402 317.834 197.402 311.999C197.402 306.164 192.672 301.434 186.837 301.434C181.002 301.434 176.271 306.164 176.271 311.999Z" fill="white"/>
<path d="M168.015 311.986C168.015 314.706 165.81 316.911 163.089 316.911C160.369 316.911 158.164 314.706 158.164 311.986C158.164 309.266 160.369 307.061 163.089 307.061C165.81 307.061 168.015 309.266 168.015 311.986Z" fill="#402931"/>
<path d="M177.989 311.986C177.989 314.706 180.194 316.911 182.914 316.911C185.635 316.911 187.84 314.706 187.84 311.986C187.84 309.266 185.635 307.061 182.914 307.061C180.194 307.061 177.989 309.266 177.989 311.986Z" fill="#402931"/>
<g filter="url(#filter2_iii_1206_22546)">
<path d="M174.228 319.177C173.109 317.797 171.048 317.556 169.627 318.639L160.746 325.401L161.557 322.892C162.119 321.152 161.118 319.296 159.321 318.747C157.514 318.196 155.593 319.176 155.041 320.93L152.807 328.034L150.19 333.636C150.142 333.739 150.099 333.843 150.061 333.949C149.142 335.544 148.591 337.379 148.529 339.343C148.323 345.767 153.414 351.142 159.899 351.349C162.752 351.441 165.399 350.516 167.487 348.905L180.839 340.015C182.405 338.973 182.78 336.885 181.669 335.387C181.186 334.734 180.502 334.304 179.758 334.118L181.031 333.148C182.518 332.016 182.775 329.926 181.603 328.482C181.105 327.869 180.429 327.47 179.703 327.302L180.094 327.004C181.581 325.871 181.837 323.782 180.666 322.338C179.494 320.893 177.338 320.641 175.85 321.774L174.4 322.878C175.147 321.77 175.121 320.278 174.228 319.177Z" fill="url(#paint18_linear_1206_22546)"/>
<path d="M174.228 319.177C173.109 317.797 171.048 317.556 169.627 318.639L160.746 325.401L161.557 322.892C162.119 321.152 161.118 319.296 159.321 318.747C157.514 318.196 155.593 319.176 155.041 320.93L152.807 328.034L150.19 333.636C150.142 333.739 150.099 333.843 150.061 333.949C149.142 335.544 148.591 337.379 148.529 339.343C148.323 345.767 153.414 351.142 159.899 351.349C162.752 351.441 165.399 350.516 167.487 348.905L180.839 340.015C182.405 338.973 182.78 336.885 181.669 335.387C181.186 334.734 180.502 334.304 179.758 334.118L181.031 333.148C182.518 332.016 182.775 329.926 181.603 328.482C181.105 327.869 180.429 327.47 179.703 327.302L180.094 327.004C181.581 325.871 181.837 323.782 180.666 322.338C179.494 320.893 177.338 320.641 175.85 321.774L174.4 322.878C175.147 321.77 175.121 320.278 174.228 319.177Z" fill="url(#paint19_radial_1206_22546)"/>
<path d="M174.228 319.177C173.109 317.797 171.048 317.556 169.627 318.639L160.746 325.401L161.557 322.892C162.119 321.152 161.118 319.296 159.321 318.747C157.514 318.196 155.593 319.176 155.041 320.93L152.807 328.034L150.19 333.636C150.142 333.739 150.099 333.843 150.061 333.949C149.142 335.544 148.591 337.379 148.529 339.343C148.323 345.767 153.414 351.142 159.899 351.349C162.752 351.441 165.399 350.516 167.487 348.905L180.839 340.015C182.405 338.973 182.78 336.885 181.669 335.387C181.186 334.734 180.502 334.304 179.758 334.118L181.031 333.148C182.518 332.016 182.775 329.926 181.603 328.482C181.105 327.869 180.429 327.47 179.703 327.302L180.094 327.004C181.581 325.871 181.837 323.782 180.666 322.338C179.494 320.893 177.338 320.641 175.85 321.774L174.4 322.878C175.147 321.77 175.121 320.278 174.228 319.177Z" fill="url(#paint20_radial_1206_22546)"/>
</g>
<path d="M187.125 290.791C190.703 290.791 196.142 293.177 196.526 300.172" stroke="#4A2D45" stroke-width="1.9669" stroke-linecap="round"/>
<path d="M158.879 290.791C155.301 290.791 149.862 293.177 149.478 300.172" stroke="#4A2D45" stroke-width="1.9669" stroke-linecap="round"/>
<path d="M174.402 322.906L163.045 331.705L160.75 325.402L169.63 318.64C171.052 317.558 173.112 317.799 174.232 319.179C175.095 320.242 175.174 321.695 174.402 322.906Z" fill="url(#paint21_radial_1206_22546)"/>
<path d="M174.402 322.906L163.045 331.705L160.75 325.402L169.63 318.64C171.052 317.558 173.112 317.799 174.232 319.179C175.095 320.242 175.174 321.695 174.402 322.906Z" fill="url(#paint22_linear_1206_22546)"/>
<path d="M174.402 322.906L163.045 331.705L160.75 325.402L169.63 318.64C171.052 317.558 173.112 317.799 174.232 319.179C175.095 320.242 175.174 321.695 174.402 322.906Z" fill="url(#paint23_linear_1206_22546)"/>
<path d="M174.402 322.906L163.045 331.705L160.75 325.402L169.63 318.64C171.052 317.558 173.112 317.799 174.232 319.179C175.095 320.242 175.174 321.695 174.402 322.906Z" fill="url(#paint24_radial_1206_22546)"/>
<path d="M174.693 322.67L163.277 331.469L166.637 336.625L179.726 327.306C179.719 327.304 179.712 327.302 179.705 327.301L180.095 327.003C181.583 325.87 181.839 323.781 180.667 322.337C179.495 320.893 177.339 320.64 175.852 321.773L174.714 322.64L174.693 322.67Z" fill="url(#paint25_radial_1206_22546)"/>
<path d="M174.693 322.67L163.277 331.469L166.637 336.625L179.726 327.306C179.719 327.304 179.712 327.302 179.705 327.301L180.095 327.003C181.583 325.87 181.839 323.781 180.667 322.337C179.495 320.893 177.339 320.64 175.852 321.773L174.714 322.64L174.693 322.67Z" fill="url(#paint26_linear_1206_22546)"/>
<path d="M174.693 322.67L163.277 331.469L166.637 336.625L179.726 327.306C179.719 327.304 179.712 327.302 179.705 327.301L180.095 327.003C181.583 325.87 181.839 323.781 180.667 322.337C179.495 320.893 177.339 320.64 175.852 321.773L174.714 322.64L174.693 322.67Z" fill="url(#paint27_radial_1206_22546)"/>
<path d="M174.693 322.67L163.277 331.469L166.637 336.625L179.726 327.306C179.719 327.304 179.712 327.302 179.705 327.301L180.095 327.003C181.583 325.87 181.839 323.781 180.667 322.337C179.495 320.893 177.339 320.64 175.852 321.773L174.714 322.64L174.693 322.67Z" fill="url(#paint28_linear_1206_22546)"/>
<path fill-rule="evenodd" clip-rule="evenodd" d="M168.527 335.282L168.355 335.417L171.363 339.792L179.922 333.996L181.033 333.15C182.52 332.017 182.776 329.928 181.604 328.484C181.112 327.876 180.444 327.48 179.726 327.308C179.719 327.307 179.712 327.305 179.705 327.303L180.095 327.006C180.305 326.846 180.49 326.668 180.649 326.475C180.664 326.458 180.679 326.44 180.693 326.422M168.527 335.282L179.726 327.308Z" fill="url(#paint29_radial_1206_22546)"/>
<path fill-rule="evenodd" clip-rule="evenodd" d="M168.527 335.282L168.355 335.417L171.363 339.792L179.922 333.996L181.033 333.15C182.52 332.017 182.776 329.928 181.604 328.484C181.112 327.876 180.444 327.48 179.726 327.308C179.719 327.307 179.712 327.305 179.705 327.303L180.095 327.006C180.305 326.846 180.49 326.668 180.649 326.475C180.664 326.458 180.679 326.44 180.693 326.422M168.527 335.282L179.726 327.308Z" fill="url(#paint30_linear_1206_22546)"/>
<path fill-rule="evenodd" clip-rule="evenodd" d="M168.527 335.282L168.355 335.417L171.363 339.792L179.922 333.996L181.033 333.15C182.52 332.017 182.776 329.928 181.604 328.484C181.112 327.876 180.444 327.48 179.726 327.308C179.719 327.307 179.712 327.305 179.705 327.303L180.095 327.006C180.305 326.846 180.49 326.668 180.649 326.475C180.664 326.458 180.679 326.44 180.693 326.422M168.527 335.282L179.726 327.308Z" fill="url(#paint31_radial_1206_22546)"/>
<path fill-rule="evenodd" clip-rule="evenodd" d="M168.527 335.282L168.355 335.417L171.363 339.792L179.922 333.996L181.033 333.15C182.52 332.017 182.776 329.928 181.604 328.484C181.112 327.876 180.444 327.48 179.726 327.308C179.719 327.307 179.712 327.305 179.705 327.303L180.095 327.006C180.305 326.846 180.49 326.668 180.649 326.475C180.664 326.458 180.679 326.44 180.693 326.422M168.527 335.282L179.726 327.308Z" fill="url(#paint32_linear_1206_22546)"/>
<path d="M179.803 334.082L171.398 339.79L174.498 344.237L180.837 340.016C182.403 338.973 182.777 336.886 181.667 335.387C181.184 334.735 180.5 334.304 179.756 334.118L179.803 334.082Z" fill="url(#paint33_radial_1206_22546)"/>
<path d="M179.803 334.082L171.398 339.79L174.498 344.237L180.837 340.016C182.403 338.973 182.777 336.886 181.667 335.387C181.184 334.735 180.5 334.304 179.756 334.118L179.803 334.082Z" fill="url(#paint34_radial_1206_22546)"/>
<g filter="url(#filter3_f_1206_22546)">
<path d="M166.273 333.107C169.388 333.652 171.042 333.357 171.402 333.107C170.177 334.503 169.319 336.718 169.305 337.867L166.273 333.107Z" fill="url(#paint35_linear_1206_22546)"/>
</g>
<g filter="url(#filter4_f_1206_22546)">
<path d="M169.219 337.865C172.333 338.41 173.988 338.114 174.348 337.865C173.122 339.261 172.264 341.476 172.25 342.625L169.219 337.865Z" fill="url(#paint36_linear_1206_22546)"/>
</g>
<g filter="url(#filter5_f_1206_22546)">
<path d="M162.203 328.346C165.318 328.89 166.972 328.595 167.332 328.346C166.107 329.742 165.249 331.956 165.235 333.105L162.203 328.346Z" fill="url(#paint37_linear_1206_22546)"/>
</g>
<g filter="url(#filter6_f_1206_22546)">
<path d="M155.371 329.851L160.147 325.947C158.527 326.778 155.786 326.418 155.745 325.947L155.371 329.851Z" fill="url(#paint38_linear_1206_22546)"/>
</g>
<g filter="url(#filter7_f_1206_22546)">
<path d="M161.078 327.9C163.798 329.446 169.682 334.205 171.462 340.88" stroke="#FFD25B" stroke-width="1.513" stroke-linecap="round"/>
</g>
</g>
<path d="M1 406.12V16.7461" stroke="#464555" stroke-width="0.802005"/>
<path d="M1.00003 405.717L1281 405.717" stroke="#464555" stroke-width="0.802005"/>
<g clip-path="url(#clip2_1206_22546)">
<path d="M1157 174.994C1180.33 174.994 1191.99 159.326 1191.99 139.997C1191.99 120.669 1180.33 105 1157 105C1133.66 105 1122 120.669 1122 139.997C1122 159.326 1133.66 174.994 1157 174.994Z" fill="url(#paint39_radial_1206_22546)"/>
<path d="M1157 174.994C1180.33 174.994 1191.99 159.326 1191.99 139.997C1191.99 120.669 1180.33 105 1157 105C1133.66 105 1122 120.669 1122 139.997C1122 159.326 1133.66 174.994 1157 174.994Z" fill="url(#paint40_radial_1206_22546)"/>
<path d="M1157 174.994C1180.33 174.994 1191.99 159.326 1191.99 139.997C1191.99 120.669 1180.33 105 1157 105C1133.66 105 1122 120.669 1122 139.997C1122 159.326 1133.66 174.994 1157 174.994Z" fill="url(#paint41_radial_1206_22546)" fill-opacity="0.6"/>
<path d="M1157 174.994C1180.33 174.994 1191.99 159.326 1191.99 139.997C1191.99 120.669 1180.33 105 1157 105C1133.66 105 1122 120.669 1122 139.997C1122 159.326 1133.66 174.994 1157 174.994Z" fill="url(#paint42_radial_1206_22546)"/>
<path d="M1157 174.994C1180.33 174.994 1191.99 159.326 1191.99 139.997C1191.99 120.669 1180.33 105 1157 105C1133.66 105 1122 120.669 1122 139.997C1122 159.326 1133.66 174.994 1157 174.994Z" fill="url(#paint43_radial_1206_22546)"/>
<path d="M1157 174.994C1180.33 174.994 1191.99 159.326 1191.99 139.997C1191.99 120.669 1180.33 105 1157 105C1133.66 105 1122 120.669 1122 139.997C1122 159.326 1133.66 174.994 1157 174.994Z" fill="url(#paint44_radial_1206_22546)"/>
<path d="M1157 174.994C1180.33 174.994 1191.99 159.326 1191.99 139.997C1191.99 120.669 1180.33 105 1157 105C1133.66 105 1122 120.669 1122 139.997C1122 159.326 1133.66 174.994 1157 174.994Z" fill="url(#paint45_radial_1206_22546)"/>
<circle cx="1139.54" cy="133.55" r="11.6832" fill="url(#paint46_radial_1206_22546)"/>
<ellipse cx="1165.11" cy="134.859" rx="10.6108" ry="10.6108" fill="url(#paint47_radial_1206_22546)"/>
<path d="M1143.05 140.561C1148.85 140.561 1153.56 135.853 1153.56 130.046C1153.56 124.239 1148.85 119.531 1143.05 119.531C1137.24 119.531 1132.53 124.239 1132.53 130.046C1132.53 135.853 1137.24 140.561 1143.05 140.561Z" fill="white"/>
<path d="M1170.92 140.753C1176.78 140.753 1181.53 136.002 1181.53 130.142C1181.53 124.282 1176.78 119.531 1170.92 119.531C1165.06 119.531 1160.31 124.282 1160.31 130.142C1160.31 136.002 1165.06 140.753 1170.92 140.753Z" fill="white"/>
<path d="M1144.5 137.5C1148.64 137.5 1152 134.142 1152 130C1152 125.858 1148.64 122.5 1144.5 122.5C1140.36 122.5 1137 125.858 1137 130C1137 134.142 1140.36 137.5 1144.5 137.5Z" fill="url(#paint48_linear_1206_22546)"/>
<path d="M1169.5 137.5C1173.64 137.5 1177 134.142 1177 130C1177 125.858 1173.64 122.5 1169.5 122.5C1165.36 122.5 1162 125.858 1162 130C1162 134.142 1165.36 137.5 1169.5 137.5Z" fill="url(#paint49_linear_1206_22546)"/>
<path fill-rule="evenodd" clip-rule="evenodd" d="M1143 145.5C1144.1 144.672 1145.67 144.896 1146.5 146C1147.27 147.031 1150.78 150 1157 150C1163.22 150 1166.73 147.031 1167.5 146C1168.33 144.896 1169.9 144.672 1171 145.5C1172.1 146.329 1172.33 147.896 1171.5 149C1169.77 151.302 1164.78 155 1157 155C1149.22 155 1144.23 151.302 1142.5 149C1141.67 147.896 1141.9 146.329 1143 145.5Z" fill="url(#paint50_radial_1206_22546)"/>
</g>
<g clip-path="url(#clip3_1206_22546)">
<g filter="url(#filter8_i_1206_22546)">
<path fill-rule="evenodd" clip-rule="evenodd" d="M528.994 278.997C528.994 288.66 526.08 297.408 520.25 303.741V310.25L519 314H515.25L512.185 309.914C507.222 312.518 501.16 313.994 493.997 313.994C491.288 313.994 488.735 313.783 486.34 313.379L484 316.5L480.25 317.75L479 316.5L476.5 314V310.265C475.548 309.795 474.634 309.284 473.76 308.736L472.75 310.25L469 311.5L466.5 307.75V302.298C461.5 296.11 459 287.946 459 278.997C459 259.669 470.661 244 493.997 244C517.333 244 528.994 259.669 528.994 278.997Z" fill="url(#paint51_radial_1206_22546)"/>
</g>
<circle cx="476.5" cy="276.5" r="12.5" fill="url(#paint52_radial_1206_22546)"/>
<circle cx="502.75" cy="277.75" r="11.25" fill="url(#paint53_radial_1206_22546)"/>
<path d="M480.25 284C486.463 284 491.5 278.963 491.5 272.75C491.5 266.537 486.463 261.5 480.25 261.5C474.037 261.5 469 266.537 469 272.75C469 278.963 474.037 284 480.25 284Z" fill="white"/>
<path d="M507.75 284C513.963 284 519 278.963 519 272.75C519 266.537 513.963 261.5 507.75 261.5C501.537 261.5 496.5 266.537 496.5 272.75C496.5 278.963 501.537 284 507.75 284Z" fill="white"/>
<path d="M484 279C486.761 279 489 276.761 489 274C489 271.239 486.761 269 484 269C481.239 269 479 271.239 479 274C479 276.761 481.239 279 484 279Z" fill="url(#paint54_linear_1206_22546)"/>
<path d="M504 279C506.761 279 509 276.761 509 274C509 271.239 506.761 269 504 269C501.239 269 499 271.239 499 274C499 276.761 501.239 279 504 279Z" fill="url(#paint55_linear_1206_22546)"/>
<path d="M528.869 278.997C528.869 288.637 525.962 297.354 520.155 303.659C514.35 309.963 505.636 313.869 493.997 313.869C482.359 313.869 473.645 309.963 467.84 303.659C462.033 297.354 459.125 288.637 459.125 278.997C459.125 269.357 462.033 260.641 467.84 254.335C473.645 248.031 482.359 244.125 493.997 244.125C505.636 244.125 514.35 248.031 520.155 254.335C525.962 260.641 528.869 269.357 528.869 278.997Z" fill="url(#paint56_linear_1206_22546)" stroke="url(#paint57_radial_1206_22546)" stroke-width="0.25"/>
<rect x="476.5" y="286.5" width="35" height="15" rx="5" fill="#3A3E67"/>
<path fill-rule="evenodd" clip-rule="evenodd" d="M506.498 286.5H481.498C479.721 286.5 478.16 287.428 477.273 288.825L478.657 292.974C478.861 293.587 479.434 294 480.08 294H507.917C508.563 294 509.136 293.587 509.34 292.974L510.723 288.825C509.837 287.428 508.276 286.5 506.498 286.5Z" fill="url(#paint58_linear_1206_22546)"/>
<path fill-rule="evenodd" clip-rule="evenodd" d="M481.521 301.5H506.48C507.213 301.5 507.839 300.97 507.959 300.246L508.903 294.582C508.953 294.277 508.718 294 508.41 294H479.59C479.281 294 479.046 294.277 479.097 294.582L480.041 300.247C480.162 300.97 480.788 301.5 481.521 301.5Z" fill="url(#paint59_linear_1206_22546)"/>
<path d="M480.25 252.75C480.25 252.75 479 260.25 470.25 260.25" stroke="url(#paint60_linear_1206_22546)" stroke-width="1.25" stroke-linecap="round" stroke-linejoin="round"/>
<path d="M480.25 252.75C480.25 252.75 479 260.25 470.25 260.25" stroke="url(#paint61_radial_1206_22546)" stroke-width="1.25" stroke-linecap="round" stroke-linejoin="round"/>
<path d="M507.75 252.75C507.75 252.75 509 260.25 517.75 260.25" stroke="url(#paint62_radial_1206_22546)" stroke-width="1.25" stroke-linecap="round" stroke-linejoin="round"/>
</g>
<path d="M83.1082 430.564H73.4273V432.715H80.5328C80.5121 433.842 80.4294 435.218 80.0881 437.017L82.6738 437.266C83.1082 434.928 83.1082 433.046 83.1082 431.743V430.564ZM72.3103 438.631L72.5378 440.741C75.8165 440.731 80.2225 440.658 84.1424 439.934L83.9976 438.031C82.229 438.29 80.3156 438.434 78.4332 438.517V434.908H75.8061V438.6C74.5547 438.631 73.3652 438.631 72.3103 438.631ZM75.0822 447.691H88.3002V445.581H77.7299V442.023H75.0822V447.691ZM85.0112 443.285H87.721V437.142H89.9965V434.928H87.721V429.198H85.0112V443.285ZM106.648 429.198H104.021V448.064H106.648V429.198ZM91.8582 432.901H98.1259V435.942H91.8788V443.658H93.5751C97.0089 443.658 99.8118 443.544 102.904 442.996L102.677 440.865C99.9152 441.32 97.4846 441.465 94.6093 441.486V438.031H100.815V430.77H91.8582V432.901ZM124.934 429.198H122.266V448.064H124.934V429.198ZM110.103 443.658H119.411V430.688H116.805V435.28H112.751V430.688H110.103V443.658ZM112.751 441.527V437.328H116.805V441.527H112.751ZM147.875 430.832H134.139V432.922H145.227C145.217 435.135 145.186 437.783 144.462 441.341L147.109 441.61C147.864 437.617 147.864 434.97 147.875 432.611V430.832ZM132.361 445.726H149.53V443.575H141.131V437.1H138.504V443.575H132.361V445.726ZM157.969 434.328V433.17H161.9V431.019H151.267V433.17H155.259V434.328C155.259 437.514 153.646 440.999 150.522 442.396L152.033 444.485C154.256 443.461 155.818 441.392 156.666 438.921C157.514 441.196 159.045 443.068 161.258 444.009L162.686 441.941C159.531 440.627 157.959 437.369 157.969 434.328ZM163.761 448.022H166.43V429.198H163.761V448.022ZM176.09 433.46V430.646H173.421V433.46C173.401 436.997 171.932 440.627 168.705 442.085L170.36 444.237C172.511 443.182 173.959 441.155 174.766 438.683C175.552 441.01 176.959 442.892 179.048 443.906L180.661 441.796C177.527 440.441 176.1 436.997 176.09 433.46ZM178.551 437.245H182.254V448.064H184.861V429.198H182.254V435.114H178.551V437.245ZM204.491 437.638H187.26V439.603H204.491V437.638ZM189.225 442.354H199.816V443.306H189.246V447.857H202.981V446.057H191.873V444.981H202.423V440.534H189.225V442.354ZM189.37 431.329H199.754V432.28H189.411V436.749H202.733V434.97H192.038V433.956H202.402V429.529H189.37V431.329ZM225.404 429.198H222.756V440.182H225.404V435.652H227.949V433.48H225.404V429.198ZM211.028 439.252H220.15V430.295H217.502V432.694H213.655V430.295H211.028V439.252ZM213.096 447.774H225.859V445.705H215.723V443.12H225.508V441.03H213.096V447.774ZM213.655 437.183V434.742H217.502V437.183H213.655ZM237.361 429.55C233.192 429.54 230.493 430.936 230.493 433.232C230.493 435.518 233.192 436.883 237.361 436.873C241.549 436.883 244.197 435.518 244.207 433.232C244.197 430.936 241.549 429.54 237.361 429.55ZM228.776 440.079H245.945V437.969H228.776V440.079ZM230.762 447.815H243.897V441.403H230.762V447.815ZM233.244 433.232C233.223 432.146 234.723 431.598 237.361 431.598C239.957 431.598 241.477 432.146 241.477 433.232C241.477 434.287 239.957 434.825 237.361 434.825C234.723 434.825 233.223 434.287 233.244 433.232ZM233.368 445.705V443.492H241.311V445.705H233.368Z" fill="#464555"/>
<path d="M423.723 429.198H421.055V448.064H423.723V429.198ZM408.519 437.224C408.509 441.361 410.609 443.947 413.505 443.947C416.339 443.947 418.448 441.361 418.448 437.224C418.448 433.118 416.339 430.522 413.505 430.522C410.609 430.522 408.509 433.118 408.519 437.224ZM411.064 437.224C411.053 434.432 412.036 432.901 413.505 432.901C414.932 432.901 415.894 434.432 415.904 437.224C415.894 440.027 414.932 441.558 413.505 441.548C412.036 441.558 411.053 440.027 411.064 437.224ZM442.133 429.219H439.506V434.204H436.031V430.439H433.425V433.335H429.722V430.439H427.074V440.12H436.031V436.314H439.506V443.099H442.133V429.219ZM429.598 447.691H442.526V445.581H432.266V441.713H429.598V447.691ZM429.722 438.052V435.342H433.425V438.052H429.722ZM453.697 430.171H445.236V438.114H446.808C450.863 438.124 453.159 438.062 455.6 437.493L455.331 435.445C453.128 435.9 451.142 436.045 447.863 436.066V432.26H453.697V430.171ZM447.015 441.424H456.882V442.541H447.057V447.815H460.047V445.705H449.642V444.526H459.509V439.334H447.015V441.424ZM456.862 438.569H459.509V434.908H462.054V432.756H459.509V429.198H456.862V438.569ZM478.313 430.564H468.632V432.715H475.737C475.716 433.842 475.634 435.218 475.292 437.017L477.878 437.266C478.313 434.928 478.313 433.046 478.313 431.743V430.564ZM467.515 438.631L467.742 440.741C471.021 440.731 475.427 440.658 479.347 439.934L479.202 438.031C477.433 438.29 475.52 438.434 473.638 438.517V434.908H471.01V438.6C469.759 438.631 468.57 438.631 467.515 438.631ZM470.287 447.691H483.505V445.581H472.934V442.023H470.287V447.691ZM480.216 443.285H482.925V437.142H485.201V434.928H482.925V429.198H480.216V443.285ZM501.853 429.198H499.226V448.064H501.853V429.198ZM487.063 432.901H493.33V435.942H487.083V443.658H488.779C492.213 443.658 495.016 443.544 498.109 442.996L497.881 440.865C495.12 441.32 492.689 441.465 489.814 441.486V438.031H496.019V430.77H487.063V432.901ZM520.139 429.198H517.47V448.064H520.139V429.198ZM505.307 443.658H514.616V430.688H512.009V435.28H507.955V430.688H505.307V443.658ZM507.955 441.527V437.328H512.009V441.527H507.955ZM537.535 429.198H534.888V447.981H537.535V438.59H540.204V436.418H537.535V429.198ZM522.476 442.706L523.966 444.733C530.295 441.62 532.488 436.749 532.509 431.122H523.552V433.273H529.83C529.333 437.473 526.934 440.472 522.476 442.706ZM555.677 430.295H547.03V432.405H552.853C552.419 434.939 550.122 437.007 546.016 438.114L547.051 440.162C552.563 438.631 555.677 435.218 555.677 430.295ZM548.809 442.996H559.11V447.981H561.737V440.886H548.809V442.996ZM555.863 435.942H559.11V440.141H561.737V429.219H559.11V433.77H555.863V435.942ZM580.044 429.198H577.417V433.791H574.48V435.921H577.417V440.369H580.044V429.198ZM564.054 438.3L565.419 440.389C567.654 439.624 569.164 438.083 569.991 436.169C570.808 437.855 572.246 439.221 574.314 439.893L575.617 437.824C572.69 436.852 571.346 434.639 571.294 432.446H575.038V430.336H564.82V432.446H568.605C568.543 434.804 567.136 437.266 564.054 438.3ZM567.136 444.423C567.136 446.709 569.598 448.043 573.611 448.043C577.634 448.043 580.096 446.709 580.106 444.423C580.096 442.137 577.634 440.793 573.611 440.782C569.598 440.793 567.136 442.137 567.136 444.423ZM569.763 444.423C569.763 443.337 571.118 442.799 573.611 442.809C576.114 442.799 577.469 443.337 577.479 444.423C577.469 445.499 576.114 446.036 573.611 446.036C571.118 446.036 569.763 445.499 569.763 444.423ZM598.33 429.219H595.703V440.637H598.33V429.219ZM582.63 438.155L582.899 440.162C586.229 440.162 590.687 440.12 594.71 439.396L594.545 437.576C593.117 437.773 591.607 437.897 590.097 437.99V436.397H593.448V434.287H586.808V432.28H593.345V430.15H584.161V436.397H587.429V438.103C585.712 438.145 584.068 438.155 582.63 438.155ZM585.526 447.815H598.33V441.403H585.526V447.815ZM588.112 445.705V443.492H595.765V445.705H588.112Z" fill="#464555"/>
<path d="M761.732 443.471H769.013V446.119H771.971V443.471H773.874V440.968H771.971V431.143H768.061L761.732 441.01V443.471ZM764.876 440.968V440.844L768.91 434.556H769.054V440.968H764.876ZM784.113 435.425H787.092C787.051 432.777 784.868 430.936 781.548 430.936C778.27 430.936 775.87 432.746 775.881 435.466C775.881 437.659 777.432 438.921 779.956 439.541L781.59 439.934C783.224 440.338 784.155 440.813 784.155 441.837C784.155 442.954 783.1 443.72 781.466 443.72C779.811 443.72 778.611 442.954 778.508 441.444H775.488C775.581 444.661 777.887 446.336 781.507 446.326C785.158 446.336 787.289 444.578 787.299 441.837C787.289 439.345 785.375 438.041 782.81 437.452L781.466 437.121C780.173 436.831 779.056 436.345 779.066 435.259C779.076 434.266 779.956 433.542 781.528 433.542C783.048 433.542 783.989 434.235 784.113 435.425ZM788.747 433.708H793.339V446.119H796.421V433.708H801.014V431.143H788.747V433.708ZM807.819 446.119H810.922V439.913H817.417V446.119H820.541V431.143H817.417V437.348H810.922V431.143H807.819V446.119ZM836.779 438.631C836.779 433.739 833.748 430.936 829.787 430.936C825.795 430.936 822.775 433.739 822.775 438.631C822.775 443.502 825.795 446.326 829.787 446.326C833.748 446.326 836.779 443.523 836.779 438.631ZM825.94 438.631C825.94 435.425 827.46 433.697 829.787 433.687C832.094 433.697 833.624 435.425 833.614 438.631C833.624 441.827 832.094 443.564 829.787 443.575C827.46 443.564 825.94 441.827 825.94 438.631ZM839.013 431.143V446.119H842.033V436.273H842.157L846.067 446.057H848.135L852.045 436.314H852.169V446.119H855.189V431.143H851.342L847.184 441.299H847.018L842.86 431.143H839.013ZM857.713 446.119H867.787V443.554H860.816V439.913H867.249V437.348H860.816V433.708H867.766V431.143H857.713V446.119ZM881.294 433.46V430.646H878.647V433.46C878.647 436.955 877.147 440.555 873.951 442.023L875.585 444.154C877.716 443.099 879.164 441.103 879.991 438.672C880.767 440.937 882.132 442.799 884.149 443.802L885.742 441.692C882.722 440.234 881.284 436.831 881.294 433.46ZM886.569 448.022H889.217V438.693H891.989V436.459H889.217V429.198H886.569V448.022ZM909.84 438.114H905.889V435.88C907.296 435.28 908.092 434.339 908.103 433.108C908.092 430.832 905.414 429.478 901.256 429.467C897.067 429.478 894.388 430.832 894.388 433.108C894.388 434.318 895.164 435.249 896.54 435.859V438.114H892.671V440.224H909.84V438.114ZM894.636 444.588C894.636 446.812 897.108 448.002 901.235 448.002C905.3 448.002 907.772 446.812 907.792 444.588C907.772 442.416 905.3 441.206 901.235 441.217C897.108 441.206 894.636 442.416 894.636 444.588ZM897.139 433.108C897.119 432.053 898.598 431.494 901.256 431.494C903.883 431.494 905.372 432.053 905.372 433.108C905.372 434.142 903.883 434.67 901.256 434.659C898.598 434.67 897.119 434.142 897.139 433.108ZM897.326 444.588C897.315 443.658 898.629 443.213 901.235 443.202C903.79 443.213 905.134 443.658 905.145 444.588C905.134 445.55 903.79 446.036 901.235 446.036C898.629 446.036 897.315 445.55 897.326 444.588ZM899.208 438.114V436.531C899.839 436.604 900.522 436.645 901.256 436.645C901.97 436.645 902.642 436.614 903.262 436.531V438.114H899.208Z" fill="#464555"/>
<path d="M1088.08 429.198H1085.56V448.022H1088.08V429.198ZM1071.93 437.348C1071.93 441.579 1073.53 444.195 1076.02 444.195C1078.34 444.195 1079.92 441.951 1080.15 438.259H1081.67V447.153H1084.15V429.467H1081.67V436.169H1080.13C1079.84 432.653 1078.29 430.533 1076.02 430.543C1073.53 430.533 1071.93 433.139 1071.93 437.348ZM1074.37 437.348C1074.35 434.463 1074.97 433.025 1076.02 433.025C1077.11 433.025 1077.75 434.463 1077.74 437.348C1077.75 440.244 1077.11 441.672 1076.02 441.651C1074.97 441.672 1074.35 440.244 1074.37 437.348ZM1105.98 429.198H1103.35V435.011H1098.2V437.162H1103.35V448.064H1105.98V429.198ZM1091.04 443.637H1092.63C1095.45 443.637 1098.34 443.482 1101.38 442.851L1101.09 440.7C1098.54 441.186 1096.08 441.392 1093.69 441.434V431.205H1091.04V443.637ZM1115.68 434.328V433.17H1119.61V431.019H1108.97V433.17H1112.97V434.328C1112.97 437.514 1111.35 440.999 1108.23 442.396L1109.74 444.485C1111.96 443.461 1113.53 441.392 1114.37 438.921C1115.22 441.196 1116.75 443.068 1118.97 444.009L1120.39 441.941C1117.24 440.627 1115.67 437.369 1115.68 434.328ZM1121.47 448.022H1124.14V429.198H1121.47V448.022ZM1138.49 433.46V430.646H1135.85V433.46C1135.85 436.955 1134.35 440.555 1131.15 442.023L1132.78 444.154C1134.91 443.099 1136.36 441.103 1137.19 438.672C1137.97 440.937 1139.33 442.799 1141.35 443.802L1142.94 441.692C1139.92 440.234 1138.48 436.831 1138.49 433.46ZM1143.77 448.022H1146.42V438.693H1149.19V436.459H1146.42V429.198H1143.77V448.022ZM1167.04 438.114H1163.09V435.88C1164.5 435.28 1165.29 434.339 1165.3 433.108C1165.29 430.832 1162.61 429.478 1158.45 429.467C1154.27 429.478 1151.59 430.832 1151.59 433.108C1151.59 434.318 1152.36 435.249 1153.74 435.859V438.114H1149.87V440.224H1167.04V438.114ZM1151.84 444.588C1151.84 446.812 1154.31 448.002 1158.43 448.002C1162.5 448.002 1164.97 446.812 1164.99 444.588C1164.97 442.416 1162.5 441.206 1158.43 441.217C1154.31 441.206 1151.84 442.416 1151.84 444.588ZM1154.34 433.108C1154.32 432.053 1155.8 431.494 1158.45 431.494C1161.08 431.494 1162.57 432.053 1162.57 433.108C1162.57 434.142 1161.08 434.67 1158.45 434.659C1155.8 434.67 1154.32 434.142 1154.34 433.108ZM1154.52 444.588C1154.51 443.658 1155.83 443.213 1158.43 443.202C1160.99 443.213 1162.33 443.658 1162.34 444.588C1162.33 445.55 1160.99 446.036 1158.43 446.036C1155.83 446.036 1154.51 445.55 1154.52 444.588ZM1156.41 438.114V436.531C1157.04 436.604 1157.72 436.645 1158.45 436.645C1159.17 436.645 1159.84 436.614 1160.46 436.531V438.114H1156.41ZM1183.61 430.564H1173.93V432.715H1181.03C1181.01 433.842 1180.93 435.218 1180.59 437.017L1183.17 437.266C1183.61 434.928 1183.61 433.046 1183.61 431.743V430.564ZM1172.81 438.631L1173.04 440.741C1176.32 440.731 1180.72 440.658 1184.64 439.934L1184.5 438.031C1182.73 438.29 1180.82 438.434 1178.93 438.517V434.908H1176.31V438.6C1175.06 438.631 1173.87 438.631 1172.81 438.631ZM1175.58 447.691H1188.8V445.581H1178.23V442.023H1175.58V447.691ZM1185.51 443.285H1188.22V437.142H1190.5V434.928H1188.22V429.198H1185.51V443.285ZM1207.15 429.198H1204.52V448.064H1207.15V429.198ZM1192.36 432.901H1198.63V435.942H1192.38V443.658H1194.08C1197.51 443.658 1200.31 443.544 1203.4 442.996L1203.18 440.865C1200.42 441.32 1197.99 441.465 1195.11 441.486V438.031H1201.32V430.77H1192.36V432.901Z" fill="#464555"/>
<defs>
<filter id="filter0_f_1206_22546" x="800.75" y="128.75" width="24" height="21.8184" filterUnits="userSpaceOnUse" color-interpolation-filters="sRGB">
<feFlood flood-opacity="0" result="BackgroundImageFix"/>
<feBlend mode="normal" in="SourceGraphic" in2="BackgroundImageFix" result="shape"/>
<feGaussianBlur stdDeviation="1" result="effect1_foregroundBlur_1206_22546"/>
</filter>
<filter id="filter1_f_1206_22546" x="829.5" y="128.125" width="24" height="21.8184" filterUnits="userSpaceOnUse" color-interpolation-filters="sRGB">
<feFlood flood-opacity="0" result="BackgroundImageFix"/>
<feBlend mode="normal" in="SourceGraphic" in2="BackgroundImageFix" result="shape"/>
<feGaussianBlur stdDeviation="1" result="effect1_foregroundBlur_1206_22546"/>
</filter>
<filter id="filter2_iii_1206_22546" x="148.523" y="317.204" width="34.1947" height="34.4536" filterUnits="userSpaceOnUse" color-interpolation-filters="sRGB">
<feFlood flood-opacity="0" result="BackgroundImageFix"/>
<feBlend mode="normal" in="SourceGraphic" in2="BackgroundImageFix" result="shape"/>
<feColorMatrix in="SourceAlpha" type="matrix" values="0 0 0 0 0 0 0 0 0 0 0 0 0 0 0 0 0 0 127 0" result="hardAlpha"/>
<feOffset dx="0.378251" dy="-0.756501"/>
<feGaussianBlur stdDeviation="0.756501"/>
<feComposite in2="hardAlpha" operator="arithmetic" k2="-1" k3="1"/>
<feColorMatrix type="matrix" values="0 0 0 0 0.988235 0 0 0 0 0.603922 0 0 0 0 0.329412 0 0 0 1 0"/>
<feBlend mode="normal" in2="shape" result="effect1_innerShadow_1206_22546"/>
<feColorMatrix in="SourceAlpha" type="matrix" values="0 0 0 0 0 0 0 0 0 0 0 0 0 0 0 0 0 0 127 0" result="hardAlpha"/>
<feOffset dy="0.3026"/>
<feGaussianBlur stdDeviation="0.453901"/>
<feComposite in2="hardAlpha" operator="arithmetic" k2="-1" k3="1"/>
<feColorMatrix type="matrix" values="0 0 0 0 0.854902 0 0 0 0 0.698039 0 0 0 0 0.258824 0 0 0 1 0"/>
<feBlend mode="normal" in2="effect1_innerShadow_1206_22546" result="effect2_innerShadow_1206_22546"/>
<feColorMatrix in="SourceAlpha" type="matrix" values="0 0 0 0 0 0 0 0 0 0 0 0 0 0 0 0 0 0 127 0" result="hardAlpha"/>
<feOffset dy="-0.22695"/>
<feGaussianBlur stdDeviation="0.1513"/>
<feComposite in2="hardAlpha" operator="arithmetic" k2="-1" k3="1"/>
<feColorMatrix type="matrix" values="0 0 0 0 0.984314 0 0 0 0 0.529412 0 0 0 0 0.615686 0 0 0 1 0"/>
<feBlend mode="normal" in2="effect2_innerShadow_1206_22546" result="effect3_innerShadow_1206_22546"/>
</filter>
<filter id="filter3_f_1206_22546" x="165.971" y="332.805" width="5.73411" height="5.36497" filterUnits="userSpaceOnUse" color-interpolation-filters="sRGB">
<feFlood flood-opacity="0" result="BackgroundImageFix"/>
<feBlend mode="normal" in="SourceGraphic" in2="BackgroundImageFix" result="shape"/>
<feGaussianBlur stdDeviation="0.1513" result="effect1_foregroundBlur_1206_22546"/>
</filter>
<filter id="filter4_f_1206_22546" x="168.916" y="337.563" width="5.73411" height="5.36497" filterUnits="userSpaceOnUse" color-interpolation-filters="sRGB">
<feFlood flood-opacity="0" result="BackgroundImageFix"/>
<feBlend mode="normal" in="SourceGraphic" in2="BackgroundImageFix" result="shape"/>
<feGaussianBlur stdDeviation="0.1513" result="effect1_foregroundBlur_1206_22546"/>
</filter>
<filter id="filter5_f_1206_22546" x="161.901" y="328.043" width="5.73411" height="5.36497" filterUnits="userSpaceOnUse" color-interpolation-filters="sRGB">
<feFlood flood-opacity="0" result="BackgroundImageFix"/>
<feBlend mode="normal" in="SourceGraphic" in2="BackgroundImageFix" result="shape"/>
<feGaussianBlur stdDeviation="0.1513" result="effect1_foregroundBlur_1206_22546"/>
</filter>
<filter id="filter6_f_1206_22546" x="155.068" y="325.645" width="5.38254" height="4.5095" filterUnits="userSpaceOnUse" color-interpolation-filters="sRGB">
<feFlood flood-opacity="0" result="BackgroundImageFix"/>
<feBlend mode="normal" in="SourceGraphic" in2="BackgroundImageFix" result="shape"/>
<feGaussianBlur stdDeviation="0.1513" result="effect1_foregroundBlur_1206_22546"/>
</filter>
<filter id="filter7_f_1206_22546" x="158.051" y="324.875" width="16.4374" height="19.0312" filterUnits="userSpaceOnUse" color-interpolation-filters="sRGB">
<feFlood flood-opacity="0" result="BackgroundImageFix"/>
<feBlend mode="normal" in="SourceGraphic" in2="BackgroundImageFix" result="shape"/>
<feGaussianBlur stdDeviation="1.13475" result="effect1_foregroundBlur_1206_22546"/>
</filter>
<filter id="filter8_i_1206_22546" x="459" y="244" width="70.9961" height="75.75" filterUnits="userSpaceOnUse" color-interpolation-filters="sRGB">
<feFlood flood-opacity="0" result="BackgroundImageFix"/>
<feBlend mode="normal" in="SourceGraphic" in2="BackgroundImageFix" result="shape"/>
<feColorMatrix in="SourceAlpha" type="matrix" values="0 0 0 0 0 0 0 0 0 0 0 0 0 0 0 0 0 0 127 0" result="hardAlpha"/>
<feOffset dx="1" dy="2"/>
<feGaussianBlur stdDeviation="1.25"/>
<feComposite in2="hardAlpha" operator="arithmetic" k2="-1" k3="1"/>
<feColorMatrix type="matrix" values="0 0 0 0 0 0 0 0 0 0 0 0 0 0 0 0 0 0 0.16 0"/>
<feBlend mode="normal" in2="shape" result="effect1_innerShadow_1206_22546"/>
</filter>
<linearGradient id="paint0_linear_1206_22546" x1="641" y1="125.816" x2="641" y2="405.722" gradientUnits="userSpaceOnUse">
<stop stop-color="#98CBFF"/>
<stop offset="1" stop-color="#3E9BFB" stop-opacity="0"/>
</linearGradient>
<radialGradient id="paint1_radial_1206_22546" cx="0" cy="0" r="1" gradientUnits="userSpaceOnUse" gradientTransform="translate(852.75 134.5) rotate(131.878) scale(97.3717)">
<stop stop-color="#FFF478"/>
<stop offset="0.474827" stop-color="#FFB02E"/>
<stop offset="1" stop-color="#F70A8D"/>
</radialGradient>
<radialGradient id="paint2_radial_1206_22546" cx="0" cy="0" r="1" gradientUnits="userSpaceOnUse" gradientTransform="translate(829 143.25) rotate(101.31) scale(44.6164 57.1451)">
<stop offset="0.787821" stop-color="#F59639" stop-opacity="0"/>
<stop offset="0.972509" stop-color="#FF7DCE"/>
</radialGradient>
<radialGradient id="paint3_radial_1206_22546" cx="0" cy="0" r="1" gradientUnits="userSpaceOnUse" gradientTransform="translate(834 147) rotate(135) scale(102.53)">
<stop offset="0.314853" stop-opacity="0"/>
<stop offset="1"/>
</radialGradient>
<radialGradient id="paint4_radial_1206_22546" cx="0" cy="0" r="1" gradientUnits="userSpaceOnUse" gradientTransform="translate(829 154.5) rotate(77.692) scale(70.3673)">
<stop offset="0.507903" stop-color="#7D6133" stop-opacity="0"/>
<stop offset="1" stop-color="#715B32"/>
</radialGradient>
<radialGradient id="paint5_radial_1206_22546" cx="0" cy="0" r="1" gradientUnits="userSpaceOnUse" gradientTransform="translate(830.25 153.25) rotate(55.7131) scale(33.2838 24.1258)">
<stop stop-color="#FFB849"/>
<stop offset="1" stop-color="#FFB847" stop-opacity="0"/>
</radialGradient>
<radialGradient id="paint6_radial_1206_22546" cx="0" cy="0" r="1" gradientUnits="userSpaceOnUse" gradientTransform="translate(840.25 157) rotate(9.86581) scale(29.1815)">
<stop stop-color="#FFA64B"/>
<stop offset="0.900412" stop-color="#FFAE46" stop-opacity="0"/>
</radialGradient>
<radialGradient id="paint7_radial_1206_22546" cx="0" cy="0" r="1" gradientUnits="userSpaceOnUse" gradientTransform="translate(832.75 149.5) rotate(43.9708) scale(147.632)">
<stop offset="0.185425" stop-opacity="0"/>
<stop offset="1" stop-opacity="0.4"/>
</radialGradient>
<linearGradient id="paint8_linear_1206_22546" x1="844.385" y1="129.5" x2="840.811" y2="146.121" gradientUnits="userSpaceOnUse">
<stop stop-color="#553B3E"/>
<stop offset="1" stop-color="#3D2432"/>
</linearGradient>
<radialGradient id="paint9_radial_1206_22546" cx="0" cy="0" r="1" gradientUnits="userSpaceOnUse" gradientTransform="translate(829 179.5) rotate(-90) scale(27.5 55)">
<stop stop-color="#F70A8D"/>
<stop offset="1" stop-color="#89029C"/>
</radialGradient>
<linearGradient id="paint10_linear_1206_22546" x1="829" y1="152" x2="829" y2="155.75" gradientUnits="userSpaceOnUse">
<stop stop-color="#ECCDFF"/>
<stop offset="1" stop-color="white"/>
</linearGradient>
<radialGradient id="paint11_radial_1206_22546" cx="0" cy="0" r="1" gradientUnits="userSpaceOnUse" gradientTransform="translate(196.75 298.5) rotate(131.878) scale(97.3717)">
<stop stop-color="#FFF478"/>
<stop offset="0.474827" stop-color="#FFB02E"/>
<stop offset="1" stop-color="#F70A8D"/>
</radialGradient>
<radialGradient id="paint12_radial_1206_22546" cx="0" cy="0" r="1" gradientUnits="userSpaceOnUse" gradientTransform="translate(173 307.25) rotate(101.31) scale(44.6164 57.1451)">
<stop offset="0.787821" stop-color="#F59639" stop-opacity="0"/>
<stop offset="0.972509" stop-color="#FF7DCE"/>
</radialGradient>
<radialGradient id="paint13_radial_1206_22546" cx="0" cy="0" r="1" gradientUnits="userSpaceOnUse" gradientTransform="translate(178 311) rotate(135) scale(102.53)">
<stop offset="0.314853" stop-opacity="0"/>
<stop offset="1"/>
</radialGradient>
<radialGradient id="paint14_radial_1206_22546" cx="0" cy="0" r="1" gradientUnits="userSpaceOnUse" gradientTransform="translate(173 318.5) rotate(77.692) scale(70.3673)">
<stop offset="0.507903" stop-color="#7D6133" stop-opacity="0"/>
<stop offset="1" stop-color="#715B32"/>
</radialGradient>
<radialGradient id="paint15_radial_1206_22546" cx="0" cy="0" r="1" gradientUnits="userSpaceOnUse" gradientTransform="translate(174.25 317.25) rotate(55.7131) scale(33.2838 24.1258)">
<stop stop-color="#FFB849"/>
<stop offset="1" stop-color="#FFB847" stop-opacity="0"/>
</radialGradient>
<radialGradient id="paint16_radial_1206_22546" cx="0" cy="0" r="1" gradientUnits="userSpaceOnUse" gradientTransform="translate(184.25 321) rotate(9.86581) scale(29.1815)">
<stop stop-color="#FFA64B"/>
<stop offset="0.900412" stop-color="#FFAE46" stop-opacity="0"/>
</radialGradient>
<radialGradient id="paint17_radial_1206_22546" cx="0" cy="0" r="1" gradientUnits="userSpaceOnUse" gradientTransform="translate(176.75 313.5) rotate(43.9708) scale(147.632)">
<stop offset="0.185425" stop-opacity="0"/>
<stop offset="1" stop-opacity="0.4"/>
</radialGradient>
<linearGradient id="paint18_linear_1206_22546" x1="180.879" y1="324.903" x2="150.624" y2="347.269" gradientUnits="userSpaceOnUse">
<stop offset="0.206158" stop-color="#FFC549"/>
<stop offset="1" stop-color="#FBA945"/>
</linearGradient>
<radialGradient id="paint19_radial_1206_22546" cx="0" cy="0" r="1" gradientUnits="userSpaceOnUse" gradientTransform="translate(160.658 320.61) rotate(156.705) scale(3.06211 2.47211)">
<stop stop-color="#FFD862"/>
<stop offset="1" stop-color="#FFD862" stop-opacity="0"/>
</radialGradient>
<radialGradient id="paint20_radial_1206_22546" cx="0" cy="0" r="1" gradientUnits="userSpaceOnUse" gradientTransform="translate(148.157 345.806) rotate(-6.20701) scale(10.2901 17.9407)">
<stop stop-color="#EF9D34"/>
<stop offset="1" stop-color="#EF9D34" stop-opacity="0"/>
</radialGradient>
<radialGradient id="paint21_radial_1206_22546" cx="0" cy="0" r="1" gradientUnits="userSpaceOnUse" gradientTransform="translate(173.24 324.361) rotate(144.545) scale(12.6601 3.24168)">
<stop offset="0.476847" stop-color="#F9B417"/>
<stop offset="1" stop-color="#F9B417" stop-opacity="0"/>
</radialGradient>
<linearGradient id="paint22_linear_1206_22546" x1="165.427" y1="320.611" x2="167.842" y2="323.58" gradientUnits="userSpaceOnUse">
<stop stop-color="#EDB225"/>
<stop offset="1" stop-color="#EDB225" stop-opacity="0"/>
</linearGradient>
<linearGradient id="paint23_linear_1206_22546" x1="161.99" y1="329.518" x2="166.912" y2="325.377" gradientUnits="userSpaceOnUse">
<stop stop-color="#FEBC48"/>
<stop offset="1" stop-color="#FEBC48" stop-opacity="0"/>
</linearGradient>
<radialGradient id="paint24_radial_1206_22546" cx="0" cy="0" r="1" gradientUnits="userSpaceOnUse" gradientTransform="translate(173.591 319.986) rotate(141.843) scale(2.78195 1.886)">
<stop stop-color="#FFDA65"/>
<stop offset="1" stop-color="#FFDA65" stop-opacity="0"/>
</radialGradient>
<radialGradient id="paint25_radial_1206_22546" cx="0" cy="0" r="1" gradientUnits="userSpaceOnUse" gradientTransform="translate(182.066 326.234) rotate(143.758) scale(19.9543 3.76287)">
<stop offset="0.476847" stop-color="#F9B417"/>
<stop offset="1" stop-color="#F9B417" stop-opacity="0"/>
</radialGradient>
<linearGradient id="paint26_linear_1206_22546" x1="169.957" y1="325.531" x2="171.91" y2="328.031" gradientUnits="userSpaceOnUse">
<stop stop-color="#F7B51D"/>
<stop offset="1" stop-color="#F7B51D" stop-opacity="0"/>
</linearGradient>
<radialGradient id="paint27_radial_1206_22546" cx="0" cy="0" r="1" gradientUnits="userSpaceOnUse" gradientTransform="translate(180.504 322.406) rotate(142.907) scale(4.01565 2.39434)">
<stop stop-color="#FFDA65"/>
<stop offset="1" stop-color="#FFDA65" stop-opacity="0"/>
</radialGradient>
<linearGradient id="paint28_linear_1206_22546" x1="165.035" y1="334.281" x2="169.488" y2="330.844" gradientUnits="userSpaceOnUse">
<stop offset="0.31397" stop-color="#FEBB48"/>
<stop offset="1" stop-color="#FEBB48" stop-opacity="0"/>
</linearGradient>
<radialGradient id="paint29_radial_1206_22546" cx="0" cy="0" r="1" gradientUnits="userSpaceOnUse" gradientTransform="translate(187.67 329.721) rotate(147.264) scale(19.6679 3.5382)">
<stop offset="0.476847" stop-color="#F9B417"/>
<stop offset="1" stop-color="#F9B417" stop-opacity="0"/>
</radialGradient>
<linearGradient id="paint30_linear_1206_22546" x1="175.222" y1="329.087" x2="176.914" y2="331.557" gradientUnits="userSpaceOnUse">
<stop stop-color="#F7B51D"/>
<stop offset="1" stop-color="#F7B51D" stop-opacity="0"/>
</linearGradient>
<radialGradient id="paint31_radial_1206_22546" cx="0" cy="0" r="1" gradientUnits="userSpaceOnUse" gradientTransform="translate(181.949 328.581) rotate(149.036) scale(3.41657 2.51749)">
<stop stop-color="#FFDA65"/>
<stop offset="1" stop-color="#FFDA65" stop-opacity="0"/>
</radialGradient>
<linearGradient id="paint32_linear_1206_22546" x1="170.162" y1="336.975" x2="174.279" y2="333.352" gradientUnits="userSpaceOnUse">
<stop offset="0.31397" stop-color="#FEBB48"/>
<stop offset="1" stop-color="#FEBB48" stop-opacity="0"/>
</linearGradient>
<radialGradient id="paint33_radial_1206_22546" cx="0" cy="0" r="1" gradientUnits="userSpaceOnUse" gradientTransform="translate(176.852 335.22) rotate(51.0991) scale(2.76066 7.00802)">
<stop offset="0.428752" stop-color="#F7B51D"/>
<stop offset="1" stop-color="#F7B51D" stop-opacity="0"/>
</radialGradient>
<radialGradient id="paint34_radial_1206_22546" cx="0" cy="0" r="1" gradientUnits="userSpaceOnUse" gradientTransform="translate(182.001 335.722) rotate(149.703) scale(2.64659 1.9254)">
<stop stop-color="#FFDA65"/>
<stop offset="1" stop-color="#FFDA65" stop-opacity="0"/>
</radialGradient>
<linearGradient id="paint35_linear_1206_22546" x1="171.548" y1="333.107" x2="167.955" y2="335.645" gradientUnits="userSpaceOnUse">
<stop offset="0.240958" stop-color="#FFD563"/>
<stop offset="1" stop-color="#FFD563" stop-opacity="0"/>
</linearGradient>
<linearGradient id="paint36_linear_1206_22546" x1="174.493" y1="337.865" x2="170.901" y2="340.403" gradientUnits="userSpaceOnUse">
<stop offset="0.240958" stop-color="#FFD563"/>
<stop offset="1" stop-color="#FFD563" stop-opacity="0"/>
</linearGradient>
<linearGradient id="paint37_linear_1206_22546" x1="167.477" y1="328.346" x2="163.885" y2="330.884" gradientUnits="userSpaceOnUse">
<stop offset="0.240958" stop-color="#FFD563"/>
<stop offset="1" stop-color="#FFD563" stop-opacity="0"/>
</linearGradient>
<linearGradient id="paint38_linear_1206_22546" x1="160.282" y1="325.947" x2="157.231" y2="328.395" gradientUnits="userSpaceOnUse">
<stop offset="0.240958" stop-color="#FFD563"/>
<stop offset="1" stop-color="#FFD563" stop-opacity="0"/>
</linearGradient>
<radialGradient id="paint39_radial_1206_22546" cx="0" cy="0" r="1" gradientUnits="userSpaceOnUse" gradientTransform="translate(1180.75 122.5) rotate(131.878) scale(97.3717)">
<stop stop-color="#FFF478"/>
<stop offset="0.474827" stop-color="#FFB02E"/>
<stop offset="1" stop-color="#F70A8D"/>
</radialGradient>
<radialGradient id="paint40_radial_1206_22546" cx="0" cy="0" r="1" gradientUnits="userSpaceOnUse" gradientTransform="translate(1157 131.25) rotate(101.31) scale(44.6164 57.1451)">
<stop offset="0.787821" stop-color="#F59639" stop-opacity="0"/>
<stop offset="0.972509" stop-color="#FF7DCE"/>
</radialGradient>
<radialGradient id="paint41_radial_1206_22546" cx="0" cy="0" r="1" gradientUnits="userSpaceOnUse" gradientTransform="translate(1162 135) rotate(135) scale(102.53)">
<stop offset="0.314853" stop-opacity="0"/>
<stop offset="1"/>
</radialGradient>
<radialGradient id="paint42_radial_1206_22546" cx="0" cy="0" r="1" gradientUnits="userSpaceOnUse" gradientTransform="translate(1157 142.5) rotate(77.692) scale(70.3673)">
<stop offset="0.507903" stop-color="#7D6133" stop-opacity="0"/>
<stop offset="1" stop-color="#715B32"/>
</radialGradient>
<radialGradient id="paint43_radial_1206_22546" cx="0" cy="0" r="1" gradientUnits="userSpaceOnUse" gradientTransform="translate(1158.25 141.25) rotate(55.7131) scale(33.2838 24.1258)">
<stop stop-color="#FFB849"/>
<stop offset="1" stop-color="#FFB847" stop-opacity="0"/>
</radialGradient>
<radialGradient id="paint44_radial_1206_22546" cx="0" cy="0" r="1" gradientUnits="userSpaceOnUse" gradientTransform="translate(1168.25 145) rotate(9.86581) scale(29.1815)">
<stop stop-color="#FFA64B"/>
<stop offset="0.900412" stop-color="#FFAE46" stop-opacity="0"/>
</radialGradient>
<radialGradient id="paint45_radial_1206_22546" cx="0" cy="0" r="1" gradientUnits="userSpaceOnUse" gradientTransform="translate(1160.75 137.5) rotate(43.9708) scale(147.632)">
<stop offset="0.185425" stop-opacity="0"/>
<stop offset="1" stop-opacity="0.4"/>
</radialGradient>
<radialGradient id="paint46_radial_1206_22546" cx="0" cy="0" r="1" gradientUnits="userSpaceOnUse" gradientTransform="translate(1148.63 124.463) rotate(135) scale(22.7645 11.7821)">
<stop stop-color="#392108"/>
<stop offset="1" stop-color="#C87928" stop-opacity="0"/>
</radialGradient>
<radialGradient id="paint47_radial_1206_22546" cx="0" cy="0" r="1" gradientUnits="userSpaceOnUse" gradientTransform="translate(1173.36 126.606) rotate(135) scale(19.1742 10.8241)">
<stop stop-color="#392108"/>
<stop offset="1" stop-color="#C87928" stop-opacity="0"/>
</radialGradient>
<linearGradient id="paint48_linear_1206_22546" x1="1158.25" y1="120" x2="1155.75" y2="137.5" gradientUnits="userSpaceOnUse">
<stop stop-color="#553B3E"/>
<stop offset="1" stop-color="#3D2432"/>
</linearGradient>
<linearGradient id="paint49_linear_1206_22546" x1="1158.25" y1="120" x2="1155.75" y2="137.5" gradientUnits="userSpaceOnUse">
<stop stop-color="#553B3E"/>
<stop offset="1" stop-color="#3D2432"/>
</linearGradient>
<radialGradient id="paint50_radial_1206_22546" cx="0" cy="0" r="1" gradientUnits="userSpaceOnUse" gradientTransform="translate(1157 142.5) rotate(90) scale(13.75 21.0464)">
<stop offset="0.34763" stop-color="#241A1A"/>
<stop offset="0.628228" stop-color="#57444A"/>
<stop offset="1" stop-color="#4E2553"/>
<stop offset="1" stop-color="#502A56"/>
</radialGradient>
<radialGradient id="paint51_radial_1206_22546" cx="0" cy="0" r="1" gradientUnits="userSpaceOnUse" gradientTransform="translate(520.25 265.25) rotate(136.548) scale(65.4313 102.337)">
<stop stop-color="#BCDFFF"/>
<stop offset="0.457009" stop-color="#BDB5FF"/>
<stop offset="1" stop-color="#AE89FF"/>
</radialGradient>
<radialGradient id="paint52_radial_1206_22546" cx="0" cy="0" r="1" gradientUnits="userSpaceOnUse" gradientTransform="translate(482.75 269) rotate(132.51) scale(20.3485 10.5317)">
<stop offset="0.309386" stop-color="#765FD7"/>
<stop offset="1" stop-color="#765FD7" stop-opacity="0"/>
</radialGradient>
<radialGradient id="paint53_radial_1206_22546" cx="0" cy="0" r="1" gradientUnits="userSpaceOnUse" gradientTransform="translate(508.375 271) rotate(132.51) scale(18.3137 9.47855)">
<stop offset="0.0533088" stop-color="#765FD7"/>
<stop offset="1" stop-color="#765FD7" stop-opacity="0"/>
</radialGradient>
<linearGradient id="paint54_linear_1206_22546" x1="505.538" y1="269" x2="503.816" y2="279.075" gradientUnits="userSpaceOnUse">
<stop stop-color="#553B3E"/>
<stop offset="1" stop-color="#3D2432"/>
</linearGradient>
<linearGradient id="paint55_linear_1206_22546" x1="505.538" y1="269" x2="503.816" y2="279.075" gradientUnits="userSpaceOnUse">
<stop stop-color="#553B3E"/>
<stop offset="1" stop-color="#3D2432"/>
</linearGradient>
<linearGradient id="paint56_linear_1206_22546" x1="493.997" y1="244" x2="493.997" y2="266.5" gradientUnits="userSpaceOnUse">
<stop stop-color="#5DA0FF"/>
<stop offset="1" stop-color="#5DA0FF" stop-opacity="0"/>
</linearGradient>
<radialGradient id="paint57_radial_1206_22546" cx="0" cy="0" r="1" gradientUnits="userSpaceOnUse" gradientTransform="translate(493.997 310.25) rotate(-90) scale(38.75)">
<stop stop-color="#F4BCFF"/>
<stop offset="1" stop-color="#F4BCFF" stop-opacity="0"/>
</radialGradient>
<linearGradient id="paint58_linear_1206_22546" x1="498.777" y1="291.5" x2="498.777" y2="294" gradientUnits="userSpaceOnUse">
<stop stop-color="#FFF2FF"/>
<stop offset="0.717436" stop-color="#FFECFF"/>
<stop offset="0.988281" stop-color="#383B64"/>
</linearGradient>
<linearGradient id="paint59_linear_1206_22546" x1="498.974" y1="294" x2="498.974" y2="306.5" gradientUnits="userSpaceOnUse">
<stop stop-color="#FFF7FF"/>
<stop offset="1" stop-color="#FFE1FF"/>
</linearGradient>
<linearGradient id="paint60_linear_1206_22546" x1="477.75" y1="251.5" x2="477.75" y2="255.25" gradientUnits="userSpaceOnUse">
<stop offset="0.0299084" stop-color="#524049"/>
<stop offset="1" stop-color="#4A2C42"/>
</linearGradient>
<radialGradient id="paint61_radial_1206_22546" cx="0" cy="0" r="1" gradientUnits="userSpaceOnUse" gradientTransform="translate(471.5 251.5) rotate(54.4623) scale(10.7529)">
<stop offset="0.541667" stop-color="#493032"/>
<stop offset="0.806723" stop-color="#5E445A"/>
<stop offset="0.955326" stop-color="#4A2C42"/>
</radialGradient>
<radialGradient id="paint62_radial_1206_22546" cx="0" cy="0" r="1" gradientUnits="userSpaceOnUse" gradientTransform="translate(516.5 251.5) rotate(125.538) scale(10.7529)">
<stop stop-color="#C2B4B5"/>
<stop offset="0.887405" stop-color="#462B45"/>
<stop offset="1" stop-color="#4A2C42"/>
</radialGradient>
<clipPath id="clip0_1206_22546">
<rect width="80" height="80" fill="white" transform="translate(789 112)"/>
</clipPath>
<clipPath id="clip1_1206_22546">
<rect width="80" height="80" fill="white" transform="translate(133 276)"/>
</clipPath>
<clipPath id="clip2_1206_22546">
<rect width="80" height="80" fill="white" transform="translate(1117 100)"/>
</clipPath>
<clipPath id="clip3_1206_22546">
<rect width="80" height="80" fill="white" transform="translate(454 239)"/>
</clipPath>
</defs>
</svg>
