<svg width="392" height="142" viewBox="0 0 392 142" fill="none" xmlns="http://www.w3.org/2000/svg">
<path d="M53.293 122.638V3.87891" stroke="#3E9BFB" stroke-width="0.460992" stroke-dasharray="0.92 0.92"/>
<path d="M153.238 122.638V3.87891" stroke="#3E9BFB" stroke-width="0.460992" stroke-dasharray="0.92 0.92"/>
<path d="M253.18 122.638V3.87891" stroke="#3E9BFB" stroke-width="0.460992" stroke-dasharray="0.92 0.92"/>
<path d="M353.121 122.638V3.87891" stroke="#3E9BFB" stroke-width="0.460992" stroke-dasharray="0.92 0.92"/>
<path d="M152.137 86.1064L1 107.022V123.617H390.999V38.334L352.506 41.2663L245.787 49.208L193.234 57.2346L152.137 86.1064Z" fill="url(#paint0_linear_1254_21004)"/>
<path d="M1 107.022L152.137 86.1064L193.234 57.2346L245.787 49.208L352.506 41.2663L390.999 38.334" stroke="#3E9BFB" stroke-width="0.91406"/>
<rect x="6.98438" y="44.6777" width="99.2607" height="44.2765" rx="7.72172" fill="white"/>
<path d="M17.1929 52.4346V51.1397H15.9741V52.4346C15.9741 54.0437 15.2838 55.7004 13.8127 56.3765L14.5649 57.3572C15.5456 56.8716 16.2122 55.9528 16.593 54.834C16.9501 55.8766 17.5785 56.7335 18.5068 57.1953L19.24 56.2241C17.8498 55.5529 17.1881 53.9866 17.1929 52.4346ZM19.6208 59.1377H20.8396V54.8435H22.1155V53.8152H20.8396V50.4732H19.6208V59.1377ZM29.6755 50.4732H28.4663V54.8626H29.6755V50.4732ZM22.3916 53.9295L22.9914 54.8816C24.0245 54.5722 24.7339 53.9104 25.1242 53.0678C25.5194 53.839 26.2049 54.4436 27.1999 54.7293L27.7902 53.7962C26.3715 53.3867 25.7431 52.3822 25.7527 51.3301V50.6636H24.4863V51.3301C24.4863 52.406 23.8388 53.4962 22.3916 53.9295ZM23.8674 56.1765H28.4758V56.6812H23.8864V59.0806H29.9231V58.1189H25.0766V57.5857H29.685V55.2339H23.8674V56.1765ZM40.5966 50.4732H39.4445V59.1377H40.5966V50.4732ZM32.9223 56.605L33.6555 57.5C34.4505 57.0144 34.9742 56.1575 35.2694 55.1482C35.5645 56.0813 36.0692 56.8525 36.8452 57.3096L37.5593 56.4146C36.2929 55.6909 35.8406 54.2341 35.8454 52.7964V52.3299H37.1594V51.3587H33.2556V52.3299H34.6743V52.7964C34.6743 54.2675 34.1982 55.8195 32.9223 56.605ZM36.5405 54.4246H37.683V58.7378H38.8256V50.616H37.683V53.4439H36.5405V54.4246ZM49.0231 50.4732H47.871V53.8152H47.0331V50.616H45.9191V58.7187H47.0331V54.7864H47.871V59.1377H49.0231V50.4732ZM41.7773 57.1763H42.3771C43.5197 57.1715 44.4433 57.1382 45.5002 56.9382L45.4145 55.948C44.5766 56.0956 43.8339 56.1432 42.996 56.1575V52.4536H45.005V51.4729H41.7773V57.1763ZM57.8876 57.1763H54.5075V55.8718H57.1735V54.8816H52.089V53.9104H56.9735V51.0349H50.8607V52.0061H55.7738V52.9583H50.8703V55.8718H53.2982V57.1763H49.9562V58.176H57.8876V57.1763ZM62.8387 50.7874H61.639V54.3294H63.9623V55.0625H60.6298V56.0337H68.5326V55.0625H65.181V54.3294H67.5233V50.7874H66.3141V51.6538H62.8387V50.7874ZM61.5819 58.9853H67.6375V58.0142H62.8006V56.5288H61.5819V58.9853ZM62.8387 53.3582V52.5869H66.3141V53.3582H62.8387ZM76.3021 50.9588H71.5985V51.9204H73.3409C73.3314 52.9964 72.6839 54.1437 71.2557 54.596L71.8746 55.5576C72.8982 55.2291 73.5885 54.5341 73.9741 53.6724C74.3502 54.4484 75.0119 55.0768 75.9688 55.3767L76.5687 54.4436C75.2023 53.9913 74.5835 52.9392 74.5787 51.9204H76.3021V50.9588ZM72.6554 56.9858H77.397V59.1377H78.6063V56.0147H72.6554V56.9858ZM76.0545 53.5486H77.397V55.6338H78.6063V50.4732H77.397V52.5584H76.0545V53.5486ZM84.0621 55.5386H82.9385V59.0425H86.1187V58.3712L86.6138 59.1186C87.3184 58.8473 87.7945 58.3474 88.0801 57.7428C88.3562 58.3665 88.8371 58.8616 89.5845 59.1186L90.2129 58.2141C89.1275 57.8618 88.7038 57.0239 88.7085 56.1384V55.4719H87.4898V56.1384C87.4898 56.924 87.0804 57.7333 86.1187 58.1713V55.5386H84.9952V56.405H84.0621V55.5386ZM82.0911 52.8345C82.0816 54.0437 83.0623 54.8911 84.3953 54.8911C85.4998 54.8911 86.3853 54.2675 86.6186 53.3296H88.0706V55.0625H89.2798V50.4732H88.0706V52.3299H86.6138C86.3758 51.411 85.495 50.8017 84.3953 50.7969C83.0623 50.8017 82.0816 51.6443 82.0911 52.8345ZM83.2432 52.8345C83.2385 52.1965 83.7145 51.8014 84.3953 51.7966C85.0523 51.8014 85.5236 52.1965 85.5284 52.8345C85.5236 53.4915 85.0523 53.8961 84.3953 53.9009C83.7145 53.8961 83.2385 53.4915 83.2432 52.8345ZM84.0621 58.1189V57.3001H84.9952V58.1189H84.0621ZM94.3548 50.635C92.4362 50.6303 91.1936 51.273 91.1936 52.3299C91.1936 53.382 92.4362 54.0104 94.3548 54.0056C96.2829 54.0104 97.5016 53.382 97.5064 52.3299C97.5016 51.273 96.2829 50.6303 94.3548 50.635ZM90.4034 55.4815H98.3062V54.5103H90.4034V55.4815ZM91.3174 59.0425H97.3635V56.0908H91.3174V59.0425ZM92.46 52.3299C92.4505 51.83 93.1408 51.5777 94.3548 51.5777C95.5497 51.5777 96.2495 51.83 96.2495 52.3299C96.2495 52.8154 95.5497 53.063 94.3548 53.063C93.1408 53.063 92.4505 52.8154 92.46 52.3299ZM92.5171 58.0713V57.0525H96.1734V58.0713H92.5171ZM16.7739 64.0156V62.9968H15.5933V64.0156C15.5933 64.9821 15.1029 66.0485 13.8794 66.5864L14.5364 67.5195C15.3457 67.1815 15.8884 66.5579 16.2026 65.8104C16.5121 66.4484 17.0215 66.9625 17.7641 67.2434L18.4116 66.3198C17.2595 65.8771 16.7739 64.9535 16.7739 64.0156ZM15.4885 69.519C15.4838 70.5236 16.6501 71.1425 18.4878 71.1377C20.3159 71.1425 21.487 70.5236 21.4966 69.519C21.487 68.505 20.3159 67.8956 18.4878 67.9004C16.6501 67.8956 15.4838 68.505 15.4885 69.519ZM16.7073 69.519C16.6977 69.0477 17.35 68.8049 18.4878 68.8049C19.6161 68.8049 20.2683 69.0477 20.2683 69.519C20.2683 69.9856 19.6161 70.2236 18.4878 70.2236C17.35 70.2236 16.6977 69.9856 16.7073 69.519ZM18.4402 67.51H19.5732V65.5772H20.2969V67.7766H21.449V62.4827H20.2969V64.5965H19.5732V62.635H18.4402V67.51ZM29.3042 62.4732H28.0854V67.51H29.3042V65.5105H30.4753V64.5012H29.3042V62.4732ZM22.3059 66.5674L22.8105 67.491C25.4099 66.8388 26.8619 65.2725 26.8667 62.9588H22.7629V63.9204H25.5527C25.367 65.0868 24.2816 66.0675 22.3059 66.5674ZM23.4675 68.824H28.0854V71.1377H29.3042V67.8528H23.4675V68.824ZM38.7875 69.1382H35.4074V67.5386H37.902V63.0254H36.6928V64.3679H32.9128V63.0254H31.694V67.5386H34.1982V69.1382H30.8562V70.1284H38.7875V69.1382ZM32.9128 66.5674V65.3391H36.6928V66.5674H32.9128ZM46.1191 62.4732H44.9003V71.1567H46.1191V66.6817H47.3949V65.6914H46.1191V62.4732ZM39.6254 69.0525H40.3586C41.8868 69.0573 43.0674 69.0239 44.4147 68.7954L44.2814 67.7766C43.1293 67.9766 42.0915 68.0432 40.8346 68.0527V64.2537H43.6911V63.273H39.6254V69.0525ZM54.8121 63.1016H50.3561V64.0918H53.6267C53.6172 64.6107 53.5791 65.2439 53.422 66.0723L54.6122 66.1865C54.8121 65.1106 54.8121 64.2442 54.8121 63.6443V63.1016ZM49.8419 66.815L49.9467 67.7861C51.4558 67.7814 53.4839 67.7481 55.2882 67.4148L55.2216 66.5388C54.4075 66.6578 53.5267 66.7245 52.6603 66.7626V65.1011H51.4511V66.8007C50.875 66.815 50.3275 66.815 49.8419 66.815ZM51.1178 70.9853H57.202V70.0142H52.3366V68.3765H51.1178V70.9853ZM55.6881 68.9573H56.9354V66.1294H57.9828V65.1106H56.9354V62.4732H55.6881V68.9573ZM65.6476 62.4732H64.4383V71.1567H65.6476V62.4732ZM58.8397 64.1775H61.7247V65.5772H58.8492V69.1287H59.63C61.2106 69.1287 62.5007 69.0763 63.9242 68.824L63.8194 67.8433C62.5483 68.0527 61.4296 68.1194 60.1061 68.1289V66.5388H62.9625V63.1968H58.8397V64.1775ZM74.0645 62.4732H72.8363V71.1567H74.0645V62.4732ZM67.2376 69.1287H71.5223V63.1587H70.3226V65.2725H68.4564V63.1587H67.2376V69.1287ZM68.4564 68.148V66.2151H70.3226V68.148H68.4564ZM82.0721 62.4732H80.8533V71.1186H82.0721V66.7959H83.3003V65.7962H82.0721V62.4732ZM75.1405 68.6907L75.826 69.6238C78.7396 68.1908 79.7488 65.9485 79.7584 63.3587H75.6356V64.3489H78.5253C78.2968 66.2817 77.1923 67.6624 75.1405 68.6907ZM20.8777 74.4732H19.6589V78.7959H20.8777V77.2915H22.0488V76.2918H20.8777V74.4732ZM14.2603 78.6245H18.4211V75.0159H14.2603V78.6245ZM14.7839 82.9092H15.26C16.0884 82.9092 16.7882 82.8759 17.5166 82.614L17.3452 81.6714C16.8977 81.8142 16.4454 81.8856 15.9646 81.9189V79.5195H14.7839V82.9092ZM15.46 77.6724V75.9585H17.2214V77.6724H15.46ZM17.2214 80.4812H21.5823V79.6052H20.0017V78.9768H18.821V79.6052H17.2214V80.4812ZM17.7261 81.9189C17.7165 82.6616 18.3926 83.1282 19.3923 83.1282C20.3873 83.1282 21.0729 82.6616 21.0776 81.9189C21.0729 81.162 20.3873 80.7002 19.3923 80.7002C18.3973 80.7002 17.7165 81.162 17.7261 81.9189ZM18.802 81.9189C18.7972 81.6523 19.0495 81.5238 19.3923 81.519C19.7399 81.5238 19.9874 81.6523 19.9922 81.9189C19.9874 82.1855 19.7399 82.3188 19.3923 82.3188C19.0495 82.3188 18.7972 82.1855 18.802 81.9189ZM29.685 74.4732H28.4567V83.1567H29.685V74.4732ZM22.6867 78.1675C22.682 80.0718 23.6484 81.262 24.9814 81.262C26.2859 81.262 27.257 80.0718 27.257 78.1675C27.257 76.2775 26.2859 75.0825 24.9814 75.0825C23.6484 75.0825 22.682 76.2775 22.6867 78.1675ZM23.8579 78.1675C23.8531 76.8821 24.3054 76.1775 24.9814 76.1775C25.6384 76.1775 26.0811 76.8821 26.0859 78.1675C26.0811 79.4576 25.6384 80.1622 24.9814 80.1575C24.3054 80.1622 23.8531 79.4576 23.8579 78.1675ZM41.1679 77.7581H39.9396V74.4732H38.7209V83.1186H39.9396V78.7483H41.1679V77.7581ZM33.3793 81.0049H34.1315C35.4074 81.0049 36.8118 80.9287 38.2638 80.6335L38.1401 79.6243C36.888 79.8766 35.6978 79.9813 34.5886 80.0004V75.3015H33.3793V81.0049ZM48.4613 74.4827H47.2426V79.6719H48.4613V77.5867H49.5658V76.5965H48.4613V74.4827ZM41.5107 78.5579L41.6344 79.491C43.1008 79.491 45.0812 79.4624 46.8617 79.1482L46.757 78.3008C46.1238 78.3912 45.4478 78.4531 44.767 78.4865V77.9342C45.6953 77.7485 46.3142 77.1487 46.319 76.3489C46.3142 75.3682 45.4097 74.6826 44.1386 74.6826C42.8532 74.6826 41.9534 75.3682 41.9582 76.3489C41.9534 77.1582 42.5866 77.7676 43.5483 77.9437V78.5341C42.8151 78.5531 42.1153 78.5579 41.5107 78.5579ZM41.7677 82.1475L42.3581 83.033C43.1436 82.7664 43.6816 82.2665 43.991 81.6428C44.2719 82.2855 44.7765 82.833 45.5763 83.1186C46.3571 82.833 46.8665 82.276 47.1521 81.6285C47.4568 82.2712 47.9995 82.7759 48.8136 83.033L49.4135 82.1475C48.2471 81.8047 47.7615 81.0239 47.7663 80.186V80.0337H46.5761V80.186C46.5713 80.8145 46.2619 81.5 45.5668 81.9666C44.8717 81.5143 44.5861 80.8383 44.5861 80.186V80.0337H43.3959V80.186C43.3864 81.0049 42.9103 81.7856 41.7677 82.1475ZM43.0912 76.3489C43.0817 75.8633 43.5007 75.5777 44.1386 75.5777C44.7575 75.5777 45.1764 75.8633 45.1764 76.3489C45.1764 76.825 44.7622 77.1201 44.1386 77.1201C43.5007 77.1201 43.0817 76.825 43.0912 76.3489ZM53.9076 74.635C51.989 74.6303 50.7465 75.273 50.7465 76.3299C50.7465 77.382 51.989 78.0104 53.9076 78.0056C55.8357 78.0104 57.0544 77.382 57.0592 76.3299C57.0544 75.273 55.8357 74.6303 53.9076 74.635ZM49.9562 79.4815H57.859V78.5103H49.9562V79.4815ZM50.8703 83.0425H56.9164V80.0908H50.8703V83.0425ZM52.0128 76.3299C52.0033 75.83 52.6936 75.5777 53.9076 75.5777C55.1025 75.5777 55.8024 75.83 55.8024 76.3299C55.8024 76.8154 55.1025 77.063 53.9076 77.063C52.6936 77.063 52.0033 76.8154 52.0128 76.3299ZM52.07 82.0713V81.0525H55.7262V82.0713H52.07Z" fill="#464555"/>
<rect x="6.98438" y="44.6777" width="99.2607" height="44.2765" rx="7.72172" stroke="#E0E0E0"/>
<g clip-path="url(#clip0_1254_21004)">
<path d="M253.28 56.9728C260.391 56.9728 263.944 52.1988 263.944 46.3097C263.944 40.4206 260.391 35.6465 253.28 35.6465C246.17 35.6465 242.617 40.4206 242.617 46.3097C242.617 52.1988 246.17 56.9728 253.28 56.9728Z" fill="url(#paint1_radial_1254_21004)"/>
<path d="M253.28 56.9728C260.391 56.9728 263.944 52.1988 263.944 46.3097C263.944 40.4206 260.391 35.6465 253.28 35.6465C246.17 35.6465 242.617 40.4206 242.617 46.3097C242.617 52.1988 246.17 56.9728 253.28 56.9728Z" fill="url(#paint2_radial_1254_21004)"/>
<path d="M253.28 56.9728C260.391 56.9728 263.944 52.1988 263.944 46.3097C263.944 40.4206 260.391 35.6465 253.28 35.6465C246.17 35.6465 242.617 40.4206 242.617 46.3097C242.617 52.1988 246.17 56.9728 253.28 56.9728Z" fill="url(#paint3_radial_1254_21004)" fill-opacity="0.6"/>
<path d="M253.28 56.9728C260.391 56.9728 263.944 52.1988 263.944 46.3097C263.944 40.4206 260.391 35.6465 253.28 35.6465C246.17 35.6465 242.617 40.4206 242.617 46.3097C242.617 52.1988 246.17 56.9728 253.28 56.9728Z" fill="url(#paint4_radial_1254_21004)"/>
<path d="M253.28 56.9728C260.391 56.9728 263.944 52.1988 263.944 46.3097C263.944 40.4206 260.391 35.6465 253.28 35.6465C246.17 35.6465 242.617 40.4206 242.617 46.3097C242.617 52.1988 246.17 56.9728 253.28 56.9728Z" fill="url(#paint5_radial_1254_21004)"/>
<path d="M253.28 56.9728C260.391 56.9728 263.944 52.1988 263.944 46.3097C263.944 40.4206 260.391 35.6465 253.28 35.6465C246.17 35.6465 242.617 40.4206 242.617 46.3097C242.617 52.1988 246.17 56.9728 253.28 56.9728Z" fill="url(#paint6_radial_1254_21004)"/>
<path d="M253.28 56.9728C260.391 56.9728 263.944 52.1988 263.944 46.3097C263.944 40.4206 260.391 35.6465 253.28 35.6465C246.17 35.6465 242.617 40.4206 242.617 46.3097C242.617 52.1988 246.17 56.9728 253.28 56.9728Z" fill="url(#paint7_radial_1254_21004)"/>
<g filter="url(#filter0_f_1254_21004)">
<path fill-rule="evenodd" clip-rule="evenodd" d="M250.228 45.2647C250.927 44.7064 251.375 43.8469 251.375 42.8828C251.375 41.2001 250.011 39.8359 248.328 39.8359C246.645 39.8359 245.281 41.2001 245.281 42.8828C245.281 43.8467 245.729 44.7061 246.428 45.2644C246.971 45.082 247.666 44.9139 248.328 44.9139C248.989 44.9139 249.684 45.0822 250.228 45.2647ZM248.363 45.9295H248.293C248.305 45.9296 248.316 45.9297 248.328 45.9297C248.34 45.9297 248.352 45.9296 248.363 45.9295Z" fill="#B3671F"/>
</g>
<g filter="url(#filter1_f_1254_21004)">
<path fill-rule="evenodd" clip-rule="evenodd" d="M258.99 45.0733C259.689 44.515 260.137 43.6555 260.137 42.6914C260.137 41.0087 258.773 39.6445 257.09 39.6445C255.407 39.6445 254.043 41.0087 254.043 42.6914C254.043 43.6553 254.491 44.5147 255.189 45.073C255.733 44.8906 256.428 44.7224 257.089 44.7224C257.751 44.7224 258.446 44.8908 258.99 45.0733ZM257.125 45.7381H257.055C257.066 45.7382 257.078 45.7383 257.09 45.7383C257.102 45.7383 257.113 45.7382 257.125 45.7381Z" fill="#9F5915"/>
</g>
<path fill-rule="evenodd" clip-rule="evenodd" d="M260.898 42.1211C260.898 43.2057 260.395 44.1726 259.608 44.8007C258.997 44.5955 258.215 44.4062 257.471 44.4062C256.727 44.4062 255.945 44.5955 255.333 44.8007C254.547 44.1726 254.043 43.2057 254.043 42.1211C254.043 40.228 255.578 38.6934 257.471 38.6934C259.364 38.6934 260.898 40.228 260.898 42.1211ZM252.52 42.1211C252.52 43.2057 252.016 44.1726 251.229 44.8007C250.618 44.5955 249.836 44.4062 249.092 44.4062C248.348 44.4062 247.566 44.5955 246.954 44.8007C246.168 44.1726 245.664 43.2057 245.664 42.1211C245.664 40.228 247.199 38.6934 249.092 38.6934C250.985 38.6934 252.52 40.228 252.52 42.1211Z" fill="white"/>
<path fill-rule="evenodd" clip-rule="evenodd" d="M259.375 42.1211C259.375 43.1284 258.896 44.0052 258.189 44.4587C257.951 44.4256 257.709 44.4062 257.471 44.4062C257.038 44.4062 256.592 44.4703 256.174 44.5644C255.368 44.1526 254.805 43.2136 254.805 42.1211C254.805 40.6487 255.828 39.4551 257.09 39.4551C258.352 39.4551 259.375 40.6487 259.375 42.1211ZM251.758 42.1211C251.758 43.2136 251.195 44.1526 250.388 44.5644C249.971 44.4704 249.525 44.4062 249.092 44.4062C248.854 44.4062 248.612 44.4256 248.373 44.4587C247.666 44.0052 247.188 43.1284 247.188 42.1211C247.188 40.6487 248.211 39.4551 249.473 39.4551C250.735 39.4551 251.758 40.6487 251.758 42.1211Z" fill="url(#paint8_linear_1254_21004)"/>
<path d="M253.281 53.166C246.426 53.166 246.426 46.3105 246.426 46.3105H260.137C260.137 46.3105 260.137 53.166 253.281 53.166Z" fill="url(#paint9_radial_1254_21004)"/>
<path d="M247.188 47.1484V46.3105H259.375V47.1484C259.375 47.3167 259.239 47.4531 259.07 47.4531H247.492C247.324 47.4531 247.188 47.3167 247.188 47.1484Z" fill="url(#paint10_linear_1254_21004)"/>
</g>
<rect x="101.922" y="9.00977" width="101.614" height="30.2471" rx="5.5319" fill="#FF6464"/>
<path d="M109.462 14.2345C108.145 14.2345 107.2 15.4324 107.209 17.3272C107.2 19.2362 108.145 20.4294 109.462 20.4294C110.302 20.4294 110.994 19.933 111.381 19.0739H113.194V22.3289H114.397V13.6236H113.194V15.4085H111.29C110.894 14.6592 110.245 14.2345 109.462 14.2345ZM108.374 17.3272C108.369 16.0385 108.813 15.3322 109.462 15.3322C110.116 15.3322 110.55 16.0385 110.55 17.3272C110.55 18.6205 110.116 19.3269 109.462 19.3221C108.813 19.3269 108.369 18.6205 108.374 17.3272ZM111.629 16.3917H113.194V18.1003H111.658C111.696 17.8569 111.715 17.5992 111.715 17.3272C111.715 16.9931 111.686 16.6781 111.629 16.3917ZM123.456 18.0049H115.504V18.9689H123.456V18.0049ZM116.478 14.7213H121.27V15.2272H116.497V17.5371H122.654V16.6113H117.709V16.1054H122.492V13.7858H116.478V14.7213ZM116.526 22.2144H122.53V19.5035H116.526V22.2144ZM117.719 21.2407V20.4676H121.317V21.2407H117.719ZM128.849 14.4922H124.343V15.4658H127.636C127.627 16.2342 127.608 17.1649 127.407 18.4249L128.61 18.5203C128.839 17.0742 128.839 16.0051 128.849 15.189V14.4922ZM123.885 19.5608L124 20.5344C125.522 20.5439 127.489 20.5105 129.278 20.2098L129.202 19.303C128.4 19.408 127.536 19.4701 126.682 19.5035V16.9835H125.479V19.5417C124.916 19.556 124.372 19.5608 123.885 19.5608ZM129.612 22.3098H130.844V18.129H132.027V17.1172H130.844V13.6236H129.612V22.3098ZM139.11 14.5304H134.986V15.4849H137.869C137.669 17.4083 136.647 18.7876 134.566 19.8471L135.196 20.8112C137.234 19.8042 138.322 18.4296 138.8 16.8213H140.771V18.2149H138.671V19.1885H140.771V22.3098H141.983V13.614H140.771V15.8572H139.015C139.081 15.4276 139.11 14.9838 139.11 14.5304ZM147.071 13.6999C145.066 13.6999 143.902 14.2249 143.902 15.189C143.902 16.1483 145.066 16.6685 147.071 16.6685C149.071 16.6685 150.225 16.1483 150.23 15.189C150.225 14.2249 149.071 13.6999 147.071 13.6999ZM143.109 18.0144H146.45V18.5967H144.026V19.4844H148.865V19.9617H144.035V22.2525H150.297V21.3362H145.229V20.8112H150.068V18.5967H147.672V18.0144H151.032V17.0599H143.109V18.0144ZM145.181 15.189C145.176 14.7929 145.796 14.5972 147.071 14.5972C148.355 14.5972 148.97 14.7929 148.97 15.189C148.97 15.6042 148.355 15.776 147.071 15.7808C145.796 15.776 145.176 15.6042 145.181 15.189ZM159.088 13.6236H157.924V22.3098H159.088V13.6236ZM151.633 17.3844C151.633 19.3364 152.373 20.5439 153.523 20.5439C154.592 20.5439 155.323 19.5083 155.428 17.8044H156.129V21.9089H157.275V13.7477H156.129V16.8403H155.418C155.285 15.2176 154.569 14.2392 153.523 14.244C152.373 14.2392 151.633 15.442 151.633 17.3844ZM152.76 17.3844C152.75 16.0529 153.037 15.3895 153.523 15.3895C154.025 15.3895 154.32 16.0529 154.316 17.3844C154.32 18.7208 154.025 19.3794 153.523 19.3699C153.037 19.3794 152.75 18.7208 152.76 17.3844ZM167.125 14.2536H162.658V15.2463H165.937C165.928 15.7665 165.889 16.4013 165.732 17.2317L166.925 17.3462C167.125 16.2676 167.125 15.399 167.125 14.7976V14.2536ZM162.143 17.9762L162.248 18.9499C163.761 18.9451 165.794 18.9117 167.603 18.5776L167.536 17.6994C166.72 17.8187 165.837 17.8856 164.968 17.9237V16.2581H163.756V17.9619C163.178 17.9762 162.63 17.9762 162.143 17.9762ZM163.422 22.1571H169.521V21.1835H164.644V19.5417H163.422V22.1571ZM168.004 20.1239H169.254V17.289H170.304V16.2676H169.254V13.6236H168.004V20.1239ZM177.988 13.6236H176.776V22.3289H177.988V13.6236ZM171.163 15.3322H174.055V16.7353H171.173V20.2957H171.955C173.54 20.2957 174.833 20.2432 176.26 19.9903L176.155 19.0071C174.881 19.2171 173.759 19.2839 172.433 19.2935V17.6994H175.296V14.349H171.163V15.3322ZM186.426 13.6236H185.195V22.3289H186.426V13.6236ZM179.582 20.2957H183.878V14.3108H182.675V16.4299H180.804V14.3108H179.582V20.2957ZM180.804 19.3126V17.3749H182.675V19.3126H180.804ZM194.454 13.6236H193.232V22.2907H194.454V17.9571H195.685V16.9549H194.454V13.6236ZM187.505 19.8567L188.192 20.7921C191.113 19.3555 192.125 17.1076 192.134 14.5113H188.001V15.504H190.898C190.669 17.4417 189.562 18.8258 187.505 19.8567ZM113.958 25.6236H112.736V29.9571H113.958V28.449H115.132V27.4467H113.958V25.6236ZM107.324 29.7853H111.495V26.1677H107.324V29.7853ZM107.849 34.0807H108.326C109.157 34.0807 109.858 34.0473 110.589 33.7848L110.417 32.8398C109.968 32.983 109.515 33.0546 109.033 33.088V30.6826H107.849V34.0807ZM108.527 28.8308V27.1126H110.293V28.8308H108.527ZM110.293 31.6467H114.664V30.7685H113.08V30.1385H111.896V30.7685H110.293V31.6467ZM110.799 33.088C110.789 33.8325 111.467 34.3003 112.469 34.3003C113.466 34.3003 114.154 33.8325 114.158 33.088C114.154 32.3292 113.466 31.8662 112.469 31.8662C111.471 31.8662 110.789 32.3292 110.799 33.088ZM111.877 33.088C111.872 32.8207 112.125 32.6919 112.469 32.6871C112.817 32.6919 113.066 32.8207 113.07 33.088C113.066 33.3553 112.817 33.4889 112.469 33.4889C112.125 33.4889 111.872 33.3553 111.877 33.088ZM122.787 25.6236H121.556V34.3289H122.787V25.6236ZM115.772 29.3272C115.767 31.2362 116.736 32.4294 118.072 32.4294C119.38 32.4294 120.353 31.2362 120.353 29.3272C120.353 27.4324 119.38 26.2345 118.072 26.2345C116.736 26.2345 115.767 27.4324 115.772 29.3272ZM116.946 29.3272C116.941 28.0385 117.394 27.3322 118.072 27.3322C118.731 27.3322 119.175 28.0385 119.179 29.3272C119.175 30.6205 118.731 31.3269 118.072 31.3221C117.394 31.3269 116.941 30.6205 116.946 29.3272ZM134.299 28.9167H133.068V25.6236H131.846V34.2907H133.068V29.9094H134.299V28.9167ZM126.491 32.1717H127.245C128.524 32.1717 129.932 32.0953 131.388 31.7994L131.264 30.7876C130.008 31.0405 128.815 31.1455 127.703 31.1646V26.454H126.491V32.1717ZM138.623 25.6999C136.619 25.6999 135.454 26.2249 135.454 27.189C135.454 28.0433 136.38 28.5492 138.003 28.6494V29.1553H134.662V30.1194H142.584V29.1553H139.205V28.6542C140.847 28.5588 141.778 28.0529 141.783 27.189C141.778 26.2249 140.623 25.6999 138.623 25.6999ZM135.578 31.5035H140.418V31.9617H135.588V34.2525H141.849V33.3362H136.781V32.8112H141.62V30.5967H135.578V31.5035ZM136.733 27.189C136.728 26.7929 137.349 26.5972 138.623 26.5972C139.907 26.5972 140.523 26.7929 140.523 27.189C140.523 27.6042 139.907 27.776 138.623 27.7808C137.349 27.776 136.728 27.6042 136.733 27.189ZM150.068 25.6236H148.846V34.3098H150.068V30.0335H151.223V29.0312H150.068V25.6236ZM142.938 31.7898L143.892 32.4676C145.448 30.759 145.696 28.8976 145.706 26.5113H143.319V27.504H144.541C144.465 29.2365 144.121 30.506 142.938 31.7898ZM145.391 32.353L146.355 33.0307C147.892 31.1408 148.106 28.9883 148.111 26.5113H145.992V27.504H146.961C146.894 29.4131 146.57 30.9021 145.391 32.353ZM153.18 26.3108H151.987V30.3103H153.59V31.6705C152.822 31.6848 152.092 31.6848 151.452 31.6848L151.614 32.6776C153.089 32.6728 155.046 32.668 156.864 32.3435L156.778 31.4558C156.148 31.5417 155.475 31.5942 154.802 31.6276V30.3103H156.397V26.3108H155.175V27.399H153.18V26.3108ZM153.18 29.3558V28.3249H155.175V29.3558H153.18ZM157.237 34.3098H158.458V30.1099H159.642V29.0981H158.458V25.6236H157.237V34.3098ZM166.782 26.1295H162.792V27.1031H165.479C165.278 28.2724 164.219 29.2269 162.324 29.7376L162.801 30.6826C165.345 29.9762 166.782 28.4013 166.782 26.1295ZM163.613 31.9903H168.366V34.2907H169.579V31.0167H163.613V31.9903ZM166.868 28.7353H168.366V30.673H169.579V25.6331H168.366V27.7331H166.868V28.7353ZM178.026 25.6236H176.814V27.7426H175.459V28.7258H176.814V30.778H178.026V25.6236ZM170.648 29.8235L171.278 30.7876C172.309 30.4344 173.005 29.7233 173.387 28.8403C173.764 29.6183 174.428 30.2483 175.382 30.5585L175.984 29.604C174.633 29.1553 174.012 28.134 173.989 27.1222H175.716V26.1486H171.001V27.1222H172.748C172.719 28.2103 172.07 29.3462 170.648 29.8235ZM172.07 32.6489C172.07 33.7037 173.206 34.3194 175.058 34.3194C176.914 34.3194 178.05 33.7037 178.055 32.6489C178.05 31.5942 176.914 30.9737 175.058 30.9689C173.206 30.9737 172.07 31.5942 172.07 32.6489ZM173.282 32.6489C173.282 32.1478 173.907 31.8996 175.058 31.9044C176.213 31.8996 176.838 32.1478 176.843 32.6489C176.838 33.1453 176.213 33.3935 175.058 33.3935C173.907 33.3935 173.282 33.1453 173.282 32.6489ZM186.044 25.6236H184.823V30.8639H186.044V28.7831H187.218V27.7617H186.044V25.6236ZM179.153 27.3704H184.307V26.4063H182.341V25.5758H181.128V26.4063H179.153V27.3704ZM179.573 29.1935C179.573 30.1337 180.451 30.7637 181.73 30.7685C182.995 30.7637 183.868 30.1337 183.868 29.1935C183.868 28.2772 182.995 27.6376 181.73 27.6376C180.451 27.6376 179.573 28.2772 179.573 29.1935ZM180.365 34.2144H186.044V31.2458H180.365V34.2144ZM180.766 29.1935C180.761 28.7783 181.148 28.5492 181.73 28.554C182.317 28.5492 182.713 28.7783 182.713 29.1935C182.713 29.6374 182.317 29.8665 181.73 29.8712C181.148 29.8665 180.761 29.6374 180.766 29.1935ZM181.568 33.2407V32.2003H184.842V33.2407H181.568Z" fill="white"/>
<rect x="197.953" y="67.9004" width="116.115" height="30.2471" rx="5.5319" fill="white"/>
<path d="M210.343 72.5337H209.134V76.9231H210.343V72.5337ZM203.059 75.99L203.659 76.9421C204.692 76.6327 205.401 75.971 205.791 75.1283C206.187 75.8995 206.872 76.5042 207.867 76.7898L208.458 75.8567C207.039 75.4473 206.41 74.4428 206.42 73.3906V72.7241H205.154V73.3906C205.154 74.4666 204.506 75.5568 203.059 75.99ZM204.535 78.2371H209.143V78.7417H204.554V81.1411H210.59V80.1794H205.744V79.6462H210.352V77.2944H204.535V78.2371ZM214.894 74.4951V73.2002H213.666V74.4951C213.661 76.1757 212.923 77.8372 211.409 78.4751L212.142 79.4844C213.199 79.0035 213.909 78.0609 214.299 76.8898C214.694 77.9609 215.38 78.8274 216.37 79.2749L217.084 78.3037C215.613 77.6801 214.889 76.0852 214.894 74.4951ZM217.55 81.2173H218.779V72.5337H217.55V81.2173ZM226.824 72.5337H225.596V78.7417H226.824V75.9614H227.996V74.9617H226.824V72.5337ZM219.893 76.9326L220.397 77.8943C222.997 77.1611 224.458 75.5235 224.463 73.1812H220.274V74.1714H223.125C222.935 75.3902 221.835 76.3947 219.893 76.9326ZM221.188 81.0459H227.12V80.0747H222.416V78.1038H221.188V81.0459ZM232.328 72.9717C230.495 72.9765 229.071 73.9667 229.071 75.4663C229.071 76.9802 230.495 77.9657 232.328 77.9609C234.156 77.9657 235.589 76.9802 235.594 75.4663C235.589 73.9667 234.156 72.9765 232.328 72.9717ZM228.376 80.1414H236.308V79.1606H228.376V80.1414ZM230.252 75.4663C230.247 74.538 231.123 73.9524 232.328 73.9619C233.523 73.9524 234.389 74.538 234.394 75.4663C234.389 76.4089 233.523 76.9707 232.328 76.9707C231.123 76.9707 230.247 76.4089 230.252 75.4663ZM244.734 79.2368H241.354V77.9324H244.02V76.9421H238.936V75.971H243.82V73.0955H237.707V74.0667H242.62V75.0188H237.717V77.9324H240.145V79.2368H236.803V80.2366H244.734V79.2368ZM252.332 73.1621H247.876V74.1524H251.147C251.137 74.6713 251.099 75.3045 250.942 76.1328L252.132 76.2471C252.332 75.1712 252.332 74.3047 252.332 73.7049V73.1621ZM247.362 76.8755L247.467 77.8467C248.976 77.8419 251.004 77.8086 252.808 77.4753L252.742 76.5994C251.928 76.7184 251.047 76.785 250.181 76.8231V75.1616H248.971V76.8612C248.395 76.8755 247.848 76.8755 247.362 76.8755ZM248.638 81.0459H254.722V80.0747H249.857V78.437H248.638V81.0459ZM253.208 79.0178H254.456V76.19H255.503V75.1712H254.456V72.5337H253.208V79.0178ZM263.168 72.5337H261.959V81.2173H263.168V72.5337ZM256.36 74.2381H259.245V75.6377H256.369V79.1892H257.15C258.731 79.1892 260.021 79.1368 261.444 78.8845L261.34 77.9038C260.069 78.1133 258.95 78.1799 257.626 78.1895V76.5994H260.483V73.2573H256.36V74.2381ZM271.585 72.5337H270.357V81.2173H271.585V72.5337ZM264.758 79.1892H269.043V73.2193H267.843V75.333H265.977V73.2193H264.758V79.1892ZM265.977 78.2085V76.2756H267.843V78.2085H265.977ZM281.935 72.5432H280.716V78.4275H281.935V76.0186H283.039V75.0188H281.935V72.5432ZM274.908 77.3135L275.032 78.2561C276.56 78.2561 278.569 78.2371 280.402 77.9133L280.316 77.0754C279.649 77.1611 278.935 77.2135 278.221 77.2516V76.8041C279.15 76.6708 279.73 76.2138 279.735 75.552C279.73 74.7475 278.888 74.2523 277.612 74.2571C276.326 74.2523 275.484 74.7475 275.489 75.552C275.484 76.2138 276.069 76.6755 277.012 76.8088V77.2944C276.26 77.3135 275.541 77.3135 274.908 77.3135ZM275.136 74.0571H280.097V73.1717H278.221V72.4671H277.012V73.1717H275.136V74.0571ZM276.012 79.7129H280.716V81.1982H281.935V78.7798H276.012V79.7129ZM276.65 75.552C276.645 75.214 276.993 75.0664 277.612 75.0664C278.221 75.0664 278.569 75.214 278.574 75.552C278.569 75.8662 278.221 76.0519 277.612 76.0471C276.993 76.0519 276.645 75.8662 276.65 75.552ZM290.685 72.5432H289.466V78.7703H290.685V72.5432ZM283.563 75.2759C283.563 76.5661 284.601 77.4753 285.934 77.4753C287.262 77.4753 288.3 76.5661 288.304 75.2759C288.3 74.0048 287.262 73.0907 285.934 73.0955C284.601 73.0907 283.563 74.0048 283.563 75.2759ZM284.753 75.2759C284.743 74.5713 285.253 74.1476 285.934 74.1524C286.591 74.1476 287.1 74.5713 287.105 75.2759C287.1 75.9995 286.591 76.4185 285.934 76.4185C285.253 76.4185 284.743 75.9995 284.753 75.2759ZM284.877 81.0459H290.913V80.0747H286.105V78.1419H284.877V81.0459ZM298.692 72.5337H297.474V81.1792H298.692V76.8565H299.921V75.8567H298.692V72.5337ZM291.761 78.7512L292.446 79.6843C295.36 78.2513 296.369 76.009 296.379 73.4192H292.256V74.4094H295.146C294.917 76.3423 293.813 77.7229 291.761 78.7512ZM307.309 74.7046H302.491V72.667H301.282V75.6758H307.309V74.7046ZM300.282 77.4087H308.204V76.4185H300.282V77.4087ZM301.187 79.5605C301.187 80.5936 302.33 81.1697 304.224 81.1697C306.105 81.1697 307.233 80.5936 307.243 79.5605C307.233 78.537 306.105 77.9562 304.224 77.9514C302.33 77.9562 301.187 78.537 301.187 79.5605ZM302.425 79.5605C302.42 79.0988 303.025 78.9036 304.224 78.894C305.4 78.9036 306.019 79.0988 306.024 79.5605C306.019 80.0128 305.4 80.2413 304.224 80.2461C303.025 80.2413 302.42 80.0128 302.425 79.5605ZM210.352 84.5337H209.124V93.2173H210.352V84.5337ZM203.354 88.228C203.349 90.1323 204.316 91.3225 205.649 91.3225C206.953 91.3225 207.924 90.1323 207.924 88.228C207.924 86.338 206.953 85.1431 205.649 85.1431C204.316 85.1431 203.349 86.338 203.354 88.228ZM204.525 88.228C204.52 86.9426 204.973 86.2381 205.649 86.2381C206.306 86.2381 206.748 86.9426 206.753 88.228C206.748 89.5182 206.306 90.2228 205.649 90.218C204.973 90.2228 204.52 89.5182 204.525 88.228ZM219.426 88.3328H211.523V89.3325H214.856V90.1514H216.065V89.3325H219.426V88.3328ZM212.028 92.2461L212.437 93.1602C213.894 93.0269 214.918 92.527 215.441 91.8414C215.97 92.5413 217.013 93.0269 218.493 93.1602L218.864 92.2461C216.951 92.089 216.07 91.3701 216.075 90.656V90.4846H214.827V90.656C214.823 91.3368 213.909 92.089 212.028 92.2461ZM212.314 86.2666C212.314 87.2997 213.547 87.9043 215.475 87.9043C217.412 87.9043 218.622 87.2997 218.626 86.2666C218.622 85.224 217.412 84.6384 215.475 84.6384C213.547 84.6384 212.314 85.224 212.314 86.2666ZM213.58 86.2666C213.571 85.7858 214.251 85.5335 215.475 85.5335C216.684 85.5335 217.37 85.7858 217.37 86.2666C217.37 86.7284 216.684 86.9807 215.475 86.9807C214.251 86.9807 213.571 86.7284 213.58 86.2666ZM225.072 85.0098H220.312V85.981H222.087C222.03 86.9617 221.359 87.9281 219.978 88.3233L220.588 89.2754C221.616 88.9612 222.33 88.309 222.721 87.4901C223.116 88.2423 223.806 88.8374 224.796 89.1231L225.406 88.1804C224.054 87.8091 223.392 86.8998 223.335 85.981H225.072V85.0098ZM221.407 93.103H227.205V89.5991H225.996V90.4085H222.606V89.5991H221.407V93.103ZM222.606 92.1318V91.3511H225.996V92.1318H222.606ZM225.987 89.2373H227.205V84.5337H225.987V89.2373ZM233.251 85.4002H228.757V86.3714H232.042C232.033 87.1378 232.014 88.0662 231.814 89.323L233.013 89.4182C233.242 87.9757 233.242 86.9093 233.251 86.0952V85.4002ZM228.3 90.4561L228.414 91.4272C229.933 91.4368 231.895 91.4034 233.68 91.1035L233.604 90.199C232.804 90.3037 231.942 90.3656 231.09 90.3989V87.8853H229.89V90.437C229.329 90.4513 228.786 90.4561 228.3 90.4561ZM234.013 93.1982H235.241V89.0278H236.422V88.0186H235.241V84.5337H234.013V93.1982ZM243.906 85.1621H239.45V86.1524H242.72C242.711 86.6713 242.673 87.3045 242.516 88.1328L243.706 88.2471C243.906 87.1712 243.906 86.3047 243.906 85.7049V85.1621ZM238.936 88.8755L239.04 89.8467C240.55 89.8419 242.578 89.8086 244.382 89.4753L244.315 88.5994C243.501 88.7184 242.62 88.785 241.754 88.8231V87.1616H240.545V88.8612C239.969 88.8755 239.421 88.8755 238.936 88.8755ZM240.212 93.0459H246.296V92.0747H241.43V90.437H240.212V93.0459ZM244.782 91.0178H246.029V88.19H247.077V87.1712H246.029V84.5337H244.782V91.0178ZM254.741 84.5337H253.532V93.2173H254.741V84.5337ZM247.933 86.2381H250.818V87.6377H247.943V91.1892H248.724C250.304 91.1892 251.594 91.1368 253.018 90.8845L252.913 89.9038C251.642 90.1133 250.523 90.1799 249.2 90.1895V88.5994H252.056V85.2573H247.933V86.2381ZM263.158 84.5337H261.93V93.2173H263.158V84.5337ZM256.331 91.1892H260.616V85.2193H259.416V87.333H257.55V85.2193H256.331V91.1892ZM257.55 90.2085V88.2756H259.416V90.2085H257.55ZM273.832 84.5337H272.604V93.2173H273.832V84.5337ZM267.005 91.1892H271.29V85.2193H270.09V87.333H268.224V85.2193H267.005V91.1892ZM268.224 90.2085V88.2756H270.09V90.2085H268.224ZM282.192 85.2859H275.784V86.2476H280.973C280.968 87.2521 280.959 88.428 280.678 90.0181L281.868 90.1228C282.187 88.3756 282.187 87.1902 282.192 86.1333V85.2859ZM275.003 92.1414H282.906V91.1511H280.049V88.428H278.85V91.1511H277.897V88.428H276.688V91.1511H275.003V92.1414ZM290.266 84.5337H289.047V93.1792H290.266V88.8565H291.494V87.8567H290.266V84.5337ZM283.334 90.7512L284.02 91.6843C286.933 90.2513 287.943 88.009 287.952 85.4192H283.829V86.4094H286.719C286.491 88.3423 285.386 89.7229 283.334 90.7512ZM298.883 86.7046H294.065V84.667H292.856V87.6758H298.883V86.7046ZM291.856 89.4087H299.778V88.4185H291.856V89.4087ZM292.76 91.5605C292.76 92.5936 293.903 93.1697 295.798 93.1697C297.678 93.1697 298.807 92.5936 298.816 91.5605C298.807 90.537 297.678 89.9562 295.798 89.9514C293.903 89.9562 292.76 90.537 292.76 91.5605ZM293.998 91.5605C293.994 91.0988 294.598 90.9036 295.798 90.894C296.974 90.9036 297.593 91.0988 297.597 91.5605C297.593 92.0128 296.974 92.2413 295.798 92.2461C294.598 92.2413 293.994 92.0128 293.998 91.5605Z" fill="#464555"/>
<rect x="291.785" y="0.212891" width="99.0697" height="30.2471" rx="5.5319" fill="#3E9BFB"/>
<path d="M300.29 7.20753V6.67433H302.099V5.6841H297.205V6.67433H299.043V7.20753C299.043 8.67384 298.3 10.2782 296.862 10.9209L297.557 11.8826C298.581 11.4113 299.3 10.4591 299.69 9.3213C300.081 10.3687 300.785 11.2304 301.804 11.6636L302.461 10.7114C301.009 10.1068 300.285 8.60719 300.29 7.20753ZM302.956 13.5107H304.184V4.84621H302.956V13.5107ZM313.258 9.06422H309.897V7.91212H308.697V9.06422H305.355V10.0354H313.258V9.06422ZM305.765 7.48366L306.193 8.42628C307.655 8.21205 308.731 7.58839 309.283 6.7267C309.831 7.59315 310.906 8.20729 312.373 8.42628L312.839 7.48366C310.883 7.24086 309.911 6.28871 309.916 5.27468V4.98903H308.678V5.27468C308.674 6.25063 307.679 7.24086 305.765 7.48366ZM306.231 11.5874H311.087V13.5107H312.297V10.6448H306.231V11.5874ZM318.781 5.33181H314.077V6.29347H315.82C315.81 7.3694 315.163 8.51673 313.734 8.969L314.353 9.93067C315.377 9.60218 316.067 8.90711 316.453 8.04542C316.829 8.82142 317.491 9.44984 318.447 9.74976L319.047 8.81666C317.681 8.36439 317.062 7.31227 317.057 6.29347H318.781V5.33181ZM315.134 11.3589H319.876V13.5107H321.085V10.3877H315.134V11.3589ZM318.533 7.92164H319.876V10.0068H321.085V4.84621H319.876V6.93141H318.533V7.92164ZM329.464 4.85573H328.245V11.0828H329.464V4.85573ZM322.342 7.58839C322.342 8.87855 323.38 9.78785 324.713 9.78785C326.041 9.78785 327.079 8.87855 327.083 7.58839C327.079 6.31728 326.041 5.40322 324.713 5.40798C323.38 5.40322 322.342 6.31728 322.342 7.58839ZM323.532 7.58839C323.522 6.8838 324.032 6.4601 324.713 6.46486C325.37 6.4601 325.879 6.8838 325.884 7.58839C325.879 8.31202 325.37 8.73097 324.713 8.73097C324.032 8.73097 323.522 8.31202 323.532 7.58839ZM323.656 13.3584H329.692V12.3872H324.884V10.4544H323.656V13.3584ZM339.756 4.84621H338.538V9.17848H339.756V7.52174H340.928V6.52199H339.756V4.84621ZM332.939 7.06471C332.934 8.20729 333.939 9.02613 335.272 9.02613C336.6 9.02613 337.595 8.20729 337.595 7.06471C337.595 5.90786 336.6 5.10805 335.272 5.10329C333.939 5.10805 332.934 5.90786 332.939 7.06471ZM334.006 10.4544H338.547V11.0066H334.025V13.4155H340.004V12.4634H335.215V11.8826H339.756V9.52125H334.006V10.4544ZM334.129 7.06471C334.12 6.4601 334.605 6.09352 335.272 6.09352C335.934 6.09352 336.414 6.4601 336.414 7.06471C336.414 7.67885 335.934 8.06447 335.272 8.06447C334.605 8.06447 334.12 7.67885 334.129 7.06471ZM348.183 4.85573H346.964V9.99732H348.183V7.91212H349.354V6.90285H348.183V4.85573ZM341.613 6.24587H344.412V6.99806H341.623V9.68311H342.356C344.113 9.68311 345.227 9.64027 346.469 9.39747L346.336 8.44532C345.231 8.64051 344.26 8.68336 342.832 8.69288V7.91212H345.593V5.27468H341.613V6.24587ZM342.508 13.4155H348.183V10.3591H342.508V13.4155ZM343.698 12.4443V11.3113H346.993V12.4443H343.698ZM353.686 4.96999C351.687 4.96999 350.525 5.49367 350.525 6.44582C350.525 7.41225 351.687 7.93117 353.686 7.93117C355.681 7.93117 356.833 7.41225 356.838 6.44582C356.833 5.49367 355.681 4.96999 353.686 4.96999ZM349.735 9.30226H357.638V8.34059H349.735V9.30226ZM350.649 10.6924H355.476V11.1685H350.659V13.4536H356.905V12.5396H351.849V12.0159H356.676V9.80689H350.649V10.6924ZM351.801 6.44582C351.796 6.0602 352.415 5.85549 353.686 5.85549C354.967 5.85549 355.581 6.0602 355.581 6.44582C355.581 6.86952 354.967 7.03615 353.686 7.03615C352.415 7.03615 351.796 6.86952 351.801 6.44582ZM368.311 9.31178H364.96V8.77858H367.464V7.84547H362.598V7.35036H367.188V6.47438H362.598V5.98879H367.388V5.05568H361.38V8.77858H363.741V9.31178H360.389V10.2639H368.311V9.31178ZM361.313 12.0825C361.313 13.0156 362.408 13.5155 364.35 13.5107C366.259 13.5155 367.359 13.0156 367.369 12.0825C367.359 11.1685 366.259 10.6543 364.35 10.6638C362.408 10.6543 361.313 11.1685 361.313 12.0825ZM362.532 12.0825C362.522 11.7207 363.103 11.5541 364.35 11.5588C365.569 11.5541 366.145 11.7207 366.15 12.0825C366.145 12.4539 365.569 12.6157 364.35 12.6157C363.103 12.6157 362.522 12.4539 362.532 12.0825ZM373.015 6.1697H371.53V5.08425H370.33V6.1697H368.825V7.13136H373.015V6.1697ZM369.025 9.57838C369.025 10.7876 369.835 11.6445 370.939 11.6445C372.048 11.6445 372.839 10.7876 372.844 9.57838C372.839 8.37391 372.048 7.5265 370.939 7.52174C369.835 7.5265 369.025 8.37391 369.025 9.57838ZM370.092 9.57838C370.092 8.92616 370.435 8.53102 370.939 8.53102C371.425 8.53102 371.772 8.92616 371.777 9.57838C371.772 10.2401 371.425 10.6162 370.939 10.6162C370.435 10.6162 370.092 10.2401 370.092 9.57838ZM373.339 13.1394H374.472V9.34034H375.176V13.5107H376.328V4.84621H375.176V8.36915H374.472V5.0176H373.339V13.1394ZM304.441 16.8462H303.28V25.5107H304.441V16.8462ZM297.005 20.5977C297.005 22.5448 297.743 23.7493 298.89 23.7493C299.957 23.7493 300.685 22.7162 300.79 21.0166H301.49V25.1108H302.632V16.97H301.49V20.0549H300.78C300.647 18.4363 299.933 17.4603 298.89 17.4651C297.743 17.4603 297.005 18.6601 297.005 20.5977ZM298.129 20.5977C298.119 19.2694 298.405 18.6077 298.89 18.6077C299.39 18.6077 299.685 19.2694 299.681 20.5977C299.685 21.9307 299.39 22.5877 298.89 22.5781C298.405 22.5877 298.119 21.9307 298.129 20.5977ZM312.677 16.8462H311.468V19.5217H309.097V20.512H311.468V25.5298H312.677V16.8462ZM305.803 23.4922H306.536C307.831 23.4922 309.164 23.4208 310.564 23.1304L310.43 22.1401C309.254 22.3639 308.121 22.4591 307.022 22.4782V17.7698H305.803V23.4922ZM317.143 19.2075V18.6743H318.952V17.6841H314.058V18.6743H315.896V19.2075C315.896 20.6738 315.153 22.2782 313.715 22.9209L314.41 23.8826C315.434 23.4113 316.153 22.4591 316.543 21.3213C316.934 22.3687 317.638 23.2304 318.657 23.6636L319.314 22.7114C317.862 22.1068 317.138 20.6072 317.143 19.2075ZM319.809 25.5107H321.037V16.8462H319.809V25.5107ZM329.311 17.4746H324.855V18.4649H328.126C328.116 18.9838 328.078 19.617 327.921 20.4453L329.111 20.5596C329.311 19.4837 329.311 18.6172 329.311 18.0174V17.4746ZM324.341 21.188L324.446 22.1592C325.955 22.1544 327.983 22.1211 329.788 21.7878L329.721 20.9119C328.907 21.0309 328.026 21.0975 327.16 21.1356V19.4741H325.95V21.1737C325.374 21.188 324.827 21.188 324.341 21.188ZM325.617 25.3584H331.701V24.3872H326.836V22.7495H325.617V25.3584ZM330.187 23.3303H331.435V20.5025H332.482V19.4837H331.435V16.8462H330.187V23.3303ZM340.147 16.8462H338.938V25.5298H340.147V16.8462ZM333.339 18.5506H336.224V19.9502H333.349V23.5017H334.129C335.71 23.5017 337 23.4493 338.423 23.197L338.319 22.2163C337.048 22.4258 335.929 22.4924 334.605 22.502V20.9119H337.462V17.5698H333.339V18.5506ZM345.984 17.3699H341.746V21.0166H345.984V17.3699ZM342.203 24.5776L342.622 25.4917C344.07 25.3536 345.103 24.8442 345.636 24.1587C346.164 24.8347 347.188 25.3584 348.63 25.4917L349.04 24.5776C347.321 24.411 346.412 23.7302 346.279 23.1399H348.707V22.2354H346.241V21.5212H345.022V22.2354H342.556V23.1399H344.984C344.85 23.7493 343.936 24.4348 342.203 24.5776ZM342.946 20.0645V18.3125H344.774V20.0645H342.946ZM347.345 21.7593H348.554V16.8462H347.345V21.7593ZM359.494 16.8462H358.333V25.5107H359.494V16.8462ZM352.058 20.5977C352.058 22.5448 352.796 23.7493 353.943 23.7493C354.672 23.7493 355.238 23.2684 355.562 22.4258H356.581V25.1108H357.723V16.97H356.581V18.7695H355.557C355.238 17.9364 354.667 17.4603 353.943 17.4651C352.796 17.4603 352.058 18.6601 352.058 20.5977ZM353.163 20.5977C353.153 19.2694 353.434 18.6077 353.943 18.6077C354.443 18.6077 354.748 19.2694 354.753 20.5977C354.748 21.9307 354.443 22.5877 353.943 22.5781C353.434 22.5877 353.153 21.9307 353.163 20.5977ZM355.8 19.7407H356.581V21.4451H355.805C355.838 21.1832 355.857 20.8976 355.857 20.5977C355.857 20.293 355.838 20.0073 355.8 19.7407ZM368.311 21.1404H360.409V22.1116H368.311V21.1404ZM360.742 19.9026L361.113 20.8262C362.698 20.7072 363.803 20.2454 364.346 19.5455C364.893 20.2454 365.993 20.7072 367.588 20.8262L367.959 19.9026C366.064 19.7836 365.188 19.2218 365.045 18.5982H367.55V17.6555H364.95V16.8748H363.751V17.6555H361.17V18.5982H363.651C363.503 19.2218 362.622 19.7836 360.742 19.9026ZM361.284 23.7207H366.14V25.5107H367.35V22.7686H361.284V23.7207ZM375.671 16.8462H374.453V25.4917H375.671V21.169H376.9V20.1692H375.671V16.8462ZM368.74 23.0637L369.425 23.9968C372.339 22.5638 373.348 20.3215 373.358 17.7317H369.235V18.7219H372.125C371.896 20.6548 370.792 22.0354 368.74 23.0637ZM384.288 19.0171H379.47V16.9795H378.261V19.9883H384.288V19.0171ZM377.261 21.7212H385.183V20.731H377.261V21.7212ZM378.166 23.873C378.166 24.9061 379.309 25.4822 381.203 25.4822C383.084 25.4822 384.212 24.9061 384.222 23.873C384.212 22.8495 383.084 22.2687 381.203 22.2639C379.309 22.2687 378.166 22.8495 378.166 23.873ZM379.404 23.873C379.399 23.4113 380.004 23.2161 381.203 23.2065C382.379 23.2161 382.998 23.4113 383.003 23.873C382.998 24.3253 382.379 24.5538 381.203 24.5586C380.004 24.5538 379.399 24.3253 379.404 23.873Z" fill="white"/>
<g clip-path="url(#clip1_1254_21004)">
<path d="M53.4093 106.942C60.5195 106.942 64.0725 102.168 64.0725 96.2784C64.0725 90.3893 60.5195 85.6152 53.4093 85.6152C46.2991 85.6152 42.7461 90.3893 42.7461 96.2784C42.7461 102.168 46.2991 106.942 53.4093 106.942Z" fill="url(#paint11_radial_1254_21004)"/>
<path d="M53.4093 106.942C60.5195 106.942 64.0725 102.168 64.0725 96.2784C64.0725 90.3893 60.5195 85.6152 53.4093 85.6152C46.2991 85.6152 42.7461 90.3893 42.7461 96.2784C42.7461 102.168 46.2991 106.942 53.4093 106.942Z" fill="url(#paint12_radial_1254_21004)"/>
<path d="M53.4093 106.942C60.5195 106.942 64.0725 102.168 64.0725 96.2784C64.0725 90.3893 60.5195 85.6152 53.4093 85.6152C46.2991 85.6152 42.7461 90.3893 42.7461 96.2784C42.7461 102.168 46.2991 106.942 53.4093 106.942Z" fill="url(#paint13_radial_1254_21004)" fill-opacity="0.6"/>
<path d="M53.4093 106.942C60.5195 106.942 64.0725 102.168 64.0725 96.2784C64.0725 90.3893 60.5195 85.6152 53.4093 85.6152C46.2991 85.6152 42.7461 90.3893 42.7461 96.2784C42.7461 102.168 46.2991 106.942 53.4093 106.942Z" fill="url(#paint14_radial_1254_21004)"/>
<path d="M53.4093 106.942C60.5195 106.942 64.0725 102.168 64.0725 96.2784C64.0725 90.3893 60.5195 85.6152 53.4093 85.6152C46.2991 85.6152 42.7461 90.3893 42.7461 96.2784C42.7461 102.168 46.2991 106.942 53.4093 106.942Z" fill="url(#paint15_radial_1254_21004)"/>
<path d="M53.4093 106.942C60.5195 106.942 64.0725 102.168 64.0725 96.2784C64.0725 90.3893 60.5195 85.6152 53.4093 85.6152C46.2991 85.6152 42.7461 90.3893 42.7461 96.2784C42.7461 102.168 46.2991 106.942 53.4093 106.942Z" fill="url(#paint16_radial_1254_21004)"/>
<path d="M53.4093 106.942C60.5195 106.942 64.0725 102.168 64.0725 96.2784C64.0725 90.3893 60.5195 85.6152 53.4093 85.6152C46.2991 85.6152 42.7461 90.3893 42.7461 96.2784C42.7461 102.168 46.2991 106.942 53.4093 106.942Z" fill="url(#paint17_radial_1254_21004)"/>
<path d="M52.4149 95.061C52.4149 96.8389 50.9736 98.2801 49.1957 98.2801C47.4178 98.2801 45.9766 96.8389 45.9766 95.061C45.9766 93.2831 47.4178 91.8418 49.1957 91.8418C50.9736 91.8418 52.4149 93.2831 52.4149 95.061Z" fill="white"/>
<path d="M54.4054 95.061C54.4054 96.8389 55.8467 98.2801 57.6246 98.2801C59.4025 98.2801 60.8438 96.8389 60.8438 95.061C60.8438 93.2831 59.4025 91.8418 57.6246 91.8418C55.8467 91.8418 54.4054 93.2831 54.4054 95.061Z" fill="white"/>
<path d="M51.892 95.0554C51.892 95.8842 51.2201 96.5561 50.3913 96.5561C49.5625 96.5561 48.8906 95.8842 48.8906 95.0554C48.8906 94.2266 49.5625 93.5547 50.3913 93.5547C51.2201 93.5547 51.892 94.2266 51.892 95.0554Z" fill="#402931"/>
<path d="M54.9322 95.0554C54.9322 95.8842 55.6041 96.5561 56.4329 96.5561C57.2617 96.5561 57.9336 95.8842 57.9336 95.0554C57.9336 94.2266 57.2617 93.5547 56.4329 93.5547C55.6041 93.5547 54.9322 94.2266 54.9322 95.0554Z" fill="#402931"/>
<g filter="url(#filter2_iii_1254_21004)">
<path d="M53.7833 97.2473C53.4421 96.8268 52.8144 96.7533 52.3812 97.0832L49.6756 99.1435L49.9225 98.3792C50.0939 97.8488 49.7889 97.2833 49.2413 97.1162C48.6908 96.9481 48.1053 97.2467 47.9373 97.7812L47.2566 99.9459L46.4592 101.653C46.4445 101.684 46.4314 101.716 46.4199 101.748C46.1398 102.234 45.972 102.793 45.9529 103.391C45.8904 105.349 47.4415 106.987 49.4174 107.05C50.2866 107.077 51.0932 106.796 51.7294 106.305L55.7976 103.596C56.2747 103.279 56.3887 102.643 56.0504 102.186C55.9031 101.987 55.6948 101.856 55.4681 101.799L55.8559 101.504C56.3092 101.159 56.3872 100.522 56.0301 100.082C55.8784 99.8953 55.6726 99.7739 55.4513 99.7226L55.5704 99.6319C56.0237 99.2867 56.1017 98.6502 55.7446 98.2101C55.3876 97.7701 54.7307 97.6932 54.2774 98.0384L53.8355 98.3749C54.0631 98.0372 54.0554 97.5825 53.7833 97.2473Z" fill="url(#paint18_linear_1254_21004)"/>
<path d="M53.7833 97.2473C53.4421 96.8268 52.8144 96.7533 52.3812 97.0832L49.6756 99.1435L49.9225 98.3792C50.0939 97.8488 49.7889 97.2833 49.2413 97.1162C48.6908 96.9481 48.1053 97.2467 47.9373 97.7812L47.2566 99.9459L46.4592 101.653C46.4445 101.684 46.4314 101.716 46.4199 101.748C46.1398 102.234 45.972 102.793 45.9529 103.391C45.8904 105.349 47.4415 106.987 49.4174 107.05C50.2866 107.077 51.0932 106.796 51.7294 106.305L55.7976 103.596C56.2747 103.279 56.3887 102.643 56.0504 102.186C55.9031 101.987 55.6948 101.856 55.4681 101.799L55.8559 101.504C56.3092 101.159 56.3872 100.522 56.0301 100.082C55.8784 99.8953 55.6726 99.7739 55.4513 99.7226L55.5704 99.6319C56.0237 99.2867 56.1017 98.6502 55.7446 98.2101C55.3876 97.7701 54.7307 97.6932 54.2774 98.0384L53.8355 98.3749C54.0631 98.0372 54.0554 97.5825 53.7833 97.2473Z" fill="url(#paint19_radial_1254_21004)"/>
<path d="M53.7833 97.2473C53.4421 96.8268 52.8144 96.7533 52.3812 97.0832L49.6756 99.1435L49.9225 98.3792C50.0939 97.8488 49.7889 97.2833 49.2413 97.1162C48.6908 96.9481 48.1053 97.2467 47.9373 97.7812L47.2566 99.9459L46.4592 101.653C46.4445 101.684 46.4314 101.716 46.4199 101.748C46.1398 102.234 45.972 102.793 45.9529 103.391C45.8904 105.349 47.4415 106.987 49.4174 107.05C50.2866 107.077 51.0932 106.796 51.7294 106.305L55.7976 103.596C56.2747 103.279 56.3887 102.643 56.0504 102.186C55.9031 101.987 55.6948 101.856 55.4681 101.799L55.8559 101.504C56.3092 101.159 56.3872 100.522 56.0301 100.082C55.8784 99.8953 55.6726 99.7739 55.4513 99.7226L55.5704 99.6319C56.0237 99.2867 56.1017 98.6502 55.7446 98.2101C55.3876 97.7701 54.7307 97.6932 54.2774 98.0384L53.8355 98.3749C54.0631 98.0372 54.0554 97.5825 53.7833 97.2473Z" fill="url(#paint20_radial_1254_21004)"/>
</g>
<path d="M57.7148 88.5977C58.8051 88.5977 60.4621 89.3245 60.5792 91.4558" stroke="#4A2D45" stroke-width="0.599289" stroke-linecap="round"/>
<path d="M49.1094 88.5977C48.0191 88.5977 46.3621 89.3245 46.245 91.4558" stroke="#4A2D45" stroke-width="0.599289" stroke-linecap="round"/>
<path d="M53.8354 98.3831L50.3749 101.064L49.6758 99.1437L52.3815 97.0833C52.8146 96.7535 53.4423 96.8269 53.7835 97.2474C54.0464 97.5714 54.0704 98.0142 53.8354 98.3831Z" fill="url(#paint21_radial_1254_21004)"/>
<path d="M53.8354 98.3831L50.3749 101.064L49.6758 99.1437L52.3815 97.0833C52.8146 96.7535 53.4423 96.8269 53.7835 97.2474C54.0464 97.5714 54.0704 98.0142 53.8354 98.3831Z" fill="url(#paint22_linear_1254_21004)"/>
<path d="M53.8354 98.3831L50.3749 101.064L49.6758 99.1437L52.3815 97.0833C52.8146 96.7535 53.4423 96.8269 53.7835 97.2474C54.0464 97.5714 54.0704 98.0142 53.8354 98.3831Z" fill="url(#paint23_linear_1254_21004)"/>
<path d="M53.8354 98.3831L50.3749 101.064L49.6758 99.1437L52.3815 97.0833C52.8146 96.7535 53.4423 96.8269 53.7835 97.2474C54.0464 97.5714 54.0704 98.0142 53.8354 98.3831Z" fill="url(#paint24_radial_1254_21004)"/>
<path d="M53.9275 98.3114L50.4492 100.992L51.4728 102.563L55.461 99.7239C55.4588 99.7234 55.4566 99.7229 55.4544 99.7224L55.5735 99.6317C56.0268 99.2865 56.1048 98.65 55.7477 98.2099C55.3907 97.7699 54.7338 97.693 54.2805 98.0382L53.9337 98.3023L53.9275 98.3114Z" fill="url(#paint25_radial_1254_21004)"/>
<path d="M53.9275 98.3114L50.4492 100.992L51.4728 102.563L55.461 99.7239C55.4588 99.7234 55.4566 99.7229 55.4544 99.7224L55.5735 99.6317C56.0268 99.2865 56.1048 98.65 55.7477 98.2099C55.3907 97.7699 54.7338 97.693 54.2805 98.0382L53.9337 98.3023L53.9275 98.3114Z" fill="url(#paint26_linear_1254_21004)"/>
<path d="M53.9275 98.3114L50.4492 100.992L51.4728 102.563L55.461 99.7239C55.4588 99.7234 55.4566 99.7229 55.4544 99.7224L55.5735 99.6317C56.0268 99.2865 56.1048 98.65 55.7477 98.2099C55.3907 97.7699 54.7338 97.693 54.2805 98.0382L53.9337 98.3023L53.9275 98.3114Z" fill="url(#paint27_radial_1254_21004)"/>
<path d="M53.9275 98.3114L50.4492 100.992L51.4728 102.563L55.461 99.7239C55.4588 99.7234 55.4566 99.7229 55.4544 99.7224L55.5735 99.6317C56.0268 99.2865 56.1048 98.65 55.7477 98.2099C55.3907 97.7699 54.7338 97.693 54.2805 98.0382L53.9337 98.3023L53.9275 98.3114Z" fill="url(#paint28_linear_1254_21004)"/>
<path fill-rule="evenodd" clip-rule="evenodd" d="M52.0483 102.155L51.9961 102.196L52.9125 103.529L55.5202 101.763L55.8586 101.505C56.3119 101.16 56.3899 100.523 56.0329 100.083C55.8827 99.8982 55.6794 99.7774 55.4606 99.7252C55.4584 99.7247 55.4562 99.7242 55.454 99.7236L55.5731 99.6329C55.6369 99.5844 55.6932 99.5301 55.7419 99.4714C55.7464 99.466 55.7508 99.4606 55.7552 99.4551M52.0483 102.155L55.4606 99.7252Z" fill="url(#paint29_radial_1254_21004)"/>
<path fill-rule="evenodd" clip-rule="evenodd" d="M52.0483 102.155L51.9961 102.196L52.9125 103.529L55.5202 101.763L55.8586 101.505C56.3119 101.16 56.3899 100.523 56.0329 100.083C55.8827 99.8982 55.6794 99.7774 55.4606 99.7252C55.4584 99.7247 55.4562 99.7242 55.454 99.7236L55.5731 99.6329C55.6369 99.5844 55.6932 99.5301 55.7419 99.4714C55.7464 99.466 55.7508 99.4606 55.7552 99.4551M52.0483 102.155L55.4606 99.7252Z" fill="url(#paint30_linear_1254_21004)"/>
<path fill-rule="evenodd" clip-rule="evenodd" d="M52.0483 102.155L51.9961 102.196L52.9125 103.529L55.5202 101.763L55.8586 101.505C56.3119 101.16 56.3899 100.523 56.0329 100.083C55.8827 99.8982 55.6794 99.7774 55.4606 99.7252C55.4584 99.7247 55.4562 99.7242 55.454 99.7236L55.5731 99.6329C55.6369 99.5844 55.6932 99.5301 55.7419 99.4714C55.7464 99.466 55.7508 99.4606 55.7552 99.4551M52.0483 102.155L55.4606 99.7252Z" fill="url(#paint31_radial_1254_21004)"/>
<path fill-rule="evenodd" clip-rule="evenodd" d="M52.0483 102.155L51.9961 102.196L52.9125 103.529L55.5202 101.763L55.8586 101.505C56.3119 101.16 56.3899 100.523 56.0329 100.083C55.8827 99.8982 55.6794 99.7774 55.4606 99.7252C55.4584 99.7247 55.4562 99.7242 55.454 99.7236L55.5731 99.6329C55.6369 99.5844 55.6932 99.5301 55.7419 99.4714C55.7464 99.466 55.7508 99.4606 55.7552 99.4551M52.0483 102.155L55.4606 99.7252Z" fill="url(#paint32_linear_1254_21004)"/>
<path d="M55.4828 101.789L52.9219 103.528L53.8662 104.883L55.7978 103.597C56.2749 103.279 56.3889 102.643 56.0506 102.187C55.9033 101.988 55.6949 101.857 55.4683 101.8L55.4828 101.789Z" fill="url(#paint33_radial_1254_21004)"/>
<path d="M55.4828 101.789L52.9219 103.528L53.8662 104.883L55.7978 103.597C56.2749 103.279 56.3889 102.643 56.0506 102.187C55.9033 101.988 55.6949 101.857 55.4683 101.8L55.4828 101.789Z" fill="url(#paint34_radial_1254_21004)"/>
<g filter="url(#filter3_f_1254_21004)">
<path d="M51.3594 101.492C52.3084 101.658 52.8124 101.568 52.9221 101.492C52.5488 101.917 52.2873 102.592 52.2831 102.942L51.3594 101.492Z" fill="url(#paint35_linear_1254_21004)"/>
</g>
<g filter="url(#filter4_f_1254_21004)">
<path d="M52.2578 102.941C53.2068 103.107 53.7108 103.017 53.8205 102.941C53.4472 103.367 53.1857 104.042 53.1815 104.392L52.2578 102.941Z" fill="url(#paint36_linear_1254_21004)"/>
</g>
<g filter="url(#filter5_f_1254_21004)">
<path d="M50.1211 100.041C51.0701 100.207 51.5741 100.117 51.6838 100.041C51.3105 100.466 51.049 101.141 51.0448 101.491L50.1211 100.041Z" fill="url(#paint37_linear_1254_21004)"/>
</g>
<g filter="url(#filter6_f_1254_21004)">
<path d="M48.0391 100.5L49.4942 99.3105C49.0007 99.5636 48.1656 99.4539 48.1529 99.3105L48.0391 100.5Z" fill="url(#paint38_linear_1254_21004)"/>
</g>
<g filter="url(#filter7_f_1254_21004)">
<path d="M49.7773 99.9043C50.606 100.375 52.3988 101.825 52.9412 103.859" stroke="#FFD25B" stroke-width="0.460992" stroke-linecap="round"/>
</g>
</g>
<path d="M1 123.737V5.09961" stroke="#464555" stroke-width="0.24436"/>
<path d="M1.00106 123.615L391 123.615" stroke="#464555" stroke-width="0.24436"/>
<g clip-path="url(#clip2_1254_21004)">
<path d="M353.214 53.3166C360.324 53.3166 363.877 48.5425 363.877 42.6534C363.877 36.7643 360.324 31.9902 353.214 31.9902C346.104 31.9902 342.551 36.7643 342.551 42.6534C342.551 48.5425 346.104 53.3166 353.214 53.3166Z" fill="url(#paint39_radial_1254_21004)"/>
<path d="M353.214 53.3166C360.324 53.3166 363.877 48.5425 363.877 42.6534C363.877 36.7643 360.324 31.9902 353.214 31.9902C346.104 31.9902 342.551 36.7643 342.551 42.6534C342.551 48.5425 346.104 53.3166 353.214 53.3166Z" fill="url(#paint40_radial_1254_21004)"/>
<path d="M353.214 53.3166C360.324 53.3166 363.877 48.5425 363.877 42.6534C363.877 36.7643 360.324 31.9902 353.214 31.9902C346.104 31.9902 342.551 36.7643 342.551 42.6534C342.551 48.5425 346.104 53.3166 353.214 53.3166Z" fill="url(#paint41_radial_1254_21004)" fill-opacity="0.6"/>
<path d="M353.214 53.3166C360.324 53.3166 363.877 48.5425 363.877 42.6534C363.877 36.7643 360.324 31.9902 353.214 31.9902C346.104 31.9902 342.551 36.7643 342.551 42.6534C342.551 48.5425 346.104 53.3166 353.214 53.3166Z" fill="url(#paint42_radial_1254_21004)"/>
<path d="M353.214 53.3166C360.324 53.3166 363.877 48.5425 363.877 42.6534C363.877 36.7643 360.324 31.9902 353.214 31.9902C346.104 31.9902 342.551 36.7643 342.551 42.6534C342.551 48.5425 346.104 53.3166 353.214 53.3166Z" fill="url(#paint43_radial_1254_21004)"/>
<path d="M353.214 53.3166C360.324 53.3166 363.877 48.5425 363.877 42.6534C363.877 36.7643 360.324 31.9902 353.214 31.9902C346.104 31.9902 342.551 36.7643 342.551 42.6534C342.551 48.5425 346.104 53.3166 353.214 53.3166Z" fill="url(#paint44_radial_1254_21004)"/>
<path d="M353.214 53.3166C360.324 53.3166 363.877 48.5425 363.877 42.6534C363.877 36.7643 360.324 31.9902 353.214 31.9902C346.104 31.9902 342.551 36.7643 342.551 42.6534C342.551 48.5425 346.104 53.3166 353.214 53.3166Z" fill="url(#paint45_radial_1254_21004)"/>
<circle cx="347.896" cy="40.6886" r="3.55973" fill="url(#paint46_radial_1254_21004)"/>
<ellipse cx="355.686" cy="41.0884" rx="3.23296" ry="3.23296" fill="url(#paint47_radial_1254_21004)"/>
<path d="M348.962 42.8255C350.731 42.8255 352.165 41.3911 352.165 39.6217C352.165 37.8523 350.731 36.418 348.962 36.418C347.192 36.418 345.758 37.8523 345.758 39.6217C345.758 41.3911 347.192 42.8255 348.962 42.8255Z" fill="white"/>
<path d="M357.454 42.8839C359.24 42.8839 360.687 41.4364 360.687 39.6509C360.687 37.8654 359.24 36.418 357.454 36.418C355.669 36.418 354.221 37.8654 354.221 39.6509C354.221 41.4364 355.669 42.8839 357.454 42.8839Z" fill="white"/>
<path d="M349.406 41.8926C350.668 41.8926 351.691 40.8695 351.691 39.6074C351.691 38.3454 350.668 37.3223 349.406 37.3223C348.144 37.3223 347.121 38.3454 347.121 39.6074C347.121 40.8695 348.144 41.8926 349.406 41.8926Z" fill="url(#paint48_linear_1254_21004)"/>
<path d="M357.023 41.8926C358.285 41.8926 359.309 40.8695 359.309 39.6074C359.309 38.3454 358.285 37.3223 357.023 37.3223C355.761 37.3223 354.738 38.3454 354.738 39.6074C354.738 40.8695 355.761 41.8926 357.023 41.8926Z" fill="url(#paint49_linear_1254_21004)"/>
<path fill-rule="evenodd" clip-rule="evenodd" d="M348.949 44.3301C349.286 44.0777 349.763 44.1459 350.016 44.4825C350.251 44.7967 351.32 45.7012 353.215 45.7012C355.11 45.7012 356.178 44.7967 356.414 44.4825C356.666 44.1459 357.144 44.0777 357.48 44.3301C357.817 44.5825 357.885 45.06 357.633 45.3965C357.107 46.0979 355.585 47.2246 353.215 47.2246C350.845 47.2246 349.323 46.0979 348.797 45.3965C348.545 45.06 348.613 44.5825 348.949 44.3301Z" fill="url(#paint50_radial_1254_21004)"/>
</g>
<g clip-path="url(#clip3_1254_21004)">
<g filter="url(#filter8_i_1254_21004)">
<path fill-rule="evenodd" clip-rule="evenodd" d="M161.873 85.005C161.873 87.949 160.985 90.6144 159.209 92.5439V94.5273L158.828 95.6699H157.685L156.752 94.4248C155.239 95.2184 153.392 95.6682 151.21 95.6682C150.384 95.6682 149.607 95.6038 148.877 95.4808L148.164 96.4316L147.021 96.8124L146.641 96.4316L145.879 95.6699V94.532C145.589 94.3887 145.31 94.2331 145.044 94.0659L144.736 94.5273L143.594 94.9081L142.832 93.7656V92.1044C141.308 90.219 140.547 87.7315 140.547 85.005C140.547 79.1159 144.1 74.3418 151.21 74.3418C158.32 74.3418 161.873 79.1159 161.873 85.005Z" fill="url(#paint51_radial_1254_21004)"/>
</g>
<circle cx="145.879" cy="84.2441" r="3.80858" fill="url(#paint52_radial_1254_21004)"/>
<circle cx="153.877" cy="84.625" r="3.42773" fill="url(#paint53_radial_1254_21004)"/>
<path d="M147.021 86.5293C148.915 86.5293 150.449 84.9946 150.449 83.1016C150.449 81.2085 148.915 79.6738 147.021 79.6738C145.128 79.6738 143.594 81.2085 143.594 83.1016C143.594 84.9946 145.128 86.5293 147.021 86.5293Z" fill="white"/>
<path d="M155.4 86.5293C157.293 86.5293 158.828 84.9946 158.828 83.1016C158.828 81.2085 157.293 79.6738 155.4 79.6738C153.507 79.6738 151.973 81.2085 151.973 83.1016C151.973 84.9946 153.507 86.5293 155.4 86.5293Z" fill="white"/>
<path d="M148.164 85.0059C149.005 85.0059 149.687 84.3238 149.687 83.4824C149.687 82.641 149.005 81.959 148.164 81.959C147.323 81.959 146.641 82.641 146.641 83.4824C146.641 84.3238 147.323 85.0059 148.164 85.0059Z" fill="url(#paint54_linear_1254_21004)"/>
<path d="M154.258 85.0059C155.099 85.0059 155.781 84.3238 155.781 83.4824C155.781 82.641 155.099 81.959 154.258 81.959C153.416 81.959 152.734 82.641 152.734 83.4824C152.734 84.3238 153.416 85.0059 154.258 85.0059Z" fill="url(#paint55_linear_1254_21004)"/>
<path d="M161.835 85.005C161.835 87.9421 160.949 90.598 159.18 92.5192C157.411 94.4399 154.756 95.6301 151.21 95.6301C147.664 95.6301 145.009 94.4399 143.24 92.5192C141.471 90.598 140.585 87.9421 140.585 85.005C140.585 82.0679 141.471 79.412 143.24 77.4908C145.009 75.5701 147.664 74.3799 151.21 74.3799C154.756 74.3799 157.411 75.5701 159.18 77.4908C160.949 79.412 161.835 82.0679 161.835 85.005Z" fill="url(#paint56_linear_1254_21004)" stroke="url(#paint57_radial_1254_21004)" stroke-width="0.0761717"/>
<rect x="145.879" y="87.291" width="10.664" height="4.5703" rx="1.52343" fill="#3A3E67"/>
<path fill-rule="evenodd" clip-rule="evenodd" d="M155.022 87.291H147.404C146.863 87.291 146.387 87.5736 146.117 87.9994L146.539 89.2637C146.601 89.4503 146.775 89.5762 146.972 89.5762H155.454C155.651 89.5762 155.825 89.4503 155.888 89.2637L156.309 87.9994C156.039 87.5736 155.563 87.291 155.022 87.291Z" fill="url(#paint58_linear_1254_21004)"/>
<path fill-rule="evenodd" clip-rule="evenodd" d="M147.409 91.8613H155.013C155.237 91.8613 155.427 91.6998 155.464 91.4794L155.752 89.7535C155.767 89.6607 155.695 89.5762 155.601 89.5762H146.82C146.726 89.5762 146.655 89.6607 146.67 89.7536L146.958 91.4795C146.995 91.6998 147.185 91.8613 147.409 91.8613Z" fill="url(#paint59_linear_1254_21004)"/>
<path d="M147.02 77.0078C147.02 77.0078 146.639 79.293 143.973 79.293" stroke="url(#paint60_linear_1254_21004)" stroke-width="0.380858" stroke-linecap="round" stroke-linejoin="round"/>
<path d="M147.02 77.0078C147.02 77.0078 146.639 79.293 143.973 79.293" stroke="url(#paint61_radial_1254_21004)" stroke-width="0.380858" stroke-linecap="round" stroke-linejoin="round"/>
<path d="M155.398 77.0078C155.398 77.0078 155.779 79.293 158.445 79.293" stroke="url(#paint62_radial_1254_21004)" stroke-width="0.380858" stroke-linecap="round" stroke-linejoin="round"/>
</g>
<path d="M19.2441 132.488H14.6738V133.504H18.0283C18.0186 134.036 17.9795 134.686 17.8184 135.535L19.0391 135.652C19.2441 134.549 19.2441 133.66 19.2441 133.045V132.488ZM14.1465 136.297L14.2539 137.293C15.8018 137.288 17.8818 137.254 19.7324 136.912L19.6641 136.014C18.8291 136.136 17.9258 136.204 17.0371 136.243V134.539H15.7969V136.282C15.2061 136.297 14.6445 136.297 14.1465 136.297ZM15.4551 140.574H21.6953V139.578H16.7051V137.898H15.4551V140.574ZM20.1426 138.494H21.4219V135.594H22.4961V134.549H21.4219V131.844H20.1426V138.494ZM30.3574 131.844H29.1172V140.75H30.3574V131.844ZM23.375 133.592H26.334V135.027H23.3848V138.67H24.1855C25.8066 138.67 27.1299 138.616 28.5898 138.357L28.4824 137.352C27.1787 137.566 26.0312 137.635 24.6738 137.645V136.014H27.6035V132.586H23.375V133.592ZM38.9902 131.844H37.7305V140.75H38.9902V131.844ZM31.9883 138.67H36.3828V132.547H35.1523V134.715H33.2383V132.547H31.9883V138.67ZM33.2383 137.664V135.682H35.1523V137.664H33.2383ZM49.8203 132.615H43.3359V133.602H48.5703C48.5654 134.646 48.5508 135.896 48.209 137.576L49.459 137.703C49.8154 135.818 49.8154 134.568 49.8203 133.455V132.615ZM42.4961 139.646H50.6016V138.631H46.6367V135.574H45.3965V138.631H42.4961V139.646ZM54.5859 134.266V133.719H56.4414V132.703H51.4219V133.719H53.3066V134.266C53.3066 135.77 52.5449 137.415 51.0703 138.074L51.7832 139.061C52.833 138.577 53.5703 137.601 53.9707 136.434C54.3711 137.508 55.0938 138.392 56.1387 138.836L56.8125 137.859C55.3232 137.239 54.5811 135.701 54.5859 134.266ZM57.3203 140.73H58.5801V131.844H57.3203V140.73ZM63.1406 133.855V132.527H61.8809V133.855C61.8711 135.525 61.1777 137.239 59.6543 137.928L60.4355 138.943C61.4512 138.445 62.1348 137.488 62.5156 136.321C62.8867 137.42 63.5508 138.309 64.5371 138.787L65.2988 137.791C63.8193 137.151 63.1455 135.525 63.1406 133.855ZM64.3027 135.643H66.0508V140.75H67.2812V131.844H66.0508V134.637H64.3027V135.643ZM76.5488 135.828H68.4141V136.756H76.5488V135.828ZM69.3418 138.055H74.3418V138.504H69.3516V140.652H75.8359V139.803H70.5918V139.295H75.5723V137.195H69.3418V138.055ZM69.4102 132.85H74.3125V133.299H69.4297V135.408H75.7188V134.568H70.6699V134.09H75.5625V132H69.4102V132.85ZM86.4219 131.844H85.1719V137.029H86.4219V134.891H87.623V133.865H86.4219V131.844ZM79.6348 136.59H83.9414V132.361H82.6914V133.494H80.875V132.361H79.6348V136.59ZM80.6113 140.613H86.6367V139.637H81.8516V138.416H86.4707V137.43H80.6113V140.613ZM80.875 135.613V134.461H82.6914V135.613H80.875ZM92.0664 132.01C90.0986 132.005 88.8242 132.664 88.8242 133.748C88.8242 134.827 90.0986 135.472 92.0664 135.467C94.0439 135.472 95.2939 134.827 95.2988 133.748C95.2939 132.664 94.0439 132.005 92.0664 132.01ZM88.0137 136.98H96.1191V135.984H88.0137V136.98ZM88.9512 140.633H95.1523V137.605H88.9512V140.633ZM90.123 133.748C90.1133 133.235 90.8213 132.977 92.0664 132.977C93.292 132.977 94.0098 133.235 94.0098 133.748C94.0098 134.246 93.292 134.5 92.0664 134.5C90.8213 134.5 90.1133 134.246 90.123 133.748ZM90.1816 139.637V138.592H93.9316V139.637H90.1816Z" fill="#464555"/>
<path d="M117.705 131.844H116.445V140.75H117.705V131.844ZM110.527 135.633C110.522 137.586 111.514 138.807 112.881 138.807C114.219 138.807 115.215 137.586 115.215 135.633C115.215 133.694 114.219 132.469 112.881 132.469C111.514 132.469 110.522 133.694 110.527 135.633ZM111.729 135.633C111.724 134.314 112.188 133.592 112.881 133.592C113.555 133.592 114.009 134.314 114.014 135.633C114.009 136.956 113.555 137.679 112.881 137.674C112.188 137.679 111.724 136.956 111.729 135.633ZM126.396 131.854H125.156V134.207H123.516V132.43H122.285V133.797H120.537V132.43H119.287V137H123.516V135.203H125.156V138.406H126.396V131.854ZM120.479 140.574H126.582V139.578H121.738V137.752H120.479V140.574ZM120.537 136.023V134.744H122.285V136.023H120.537ZM131.855 132.303H127.861V136.053H128.604C130.518 136.058 131.602 136.028 132.754 135.76L132.627 134.793C131.587 135.008 130.649 135.076 129.102 135.086V133.289H131.855V132.303ZM128.701 137.615H133.359V138.143H128.721V140.633H134.854V139.637H129.941V139.08H134.6V136.629H128.701V137.615ZM133.35 136.268H134.6V134.539H135.801V133.523H134.6V131.844H133.35V136.268ZM143.477 132.488H138.906V133.504H142.261C142.251 134.036 142.212 134.686 142.051 135.535L143.271 135.652C143.477 134.549 143.477 133.66 143.477 133.045V132.488ZM138.379 136.297L138.486 137.293C140.034 137.288 142.114 137.254 143.965 136.912L143.896 136.014C143.062 136.136 142.158 136.204 141.27 136.243V134.539H140.029V136.282C139.438 136.297 138.877 136.297 138.379 136.297ZM139.688 140.574H145.928V139.578H140.938V137.898H139.688V140.574ZM144.375 138.494H145.654V135.594H146.729V134.549H145.654V131.844H144.375V138.494ZM154.59 131.844H153.35V140.75H154.59V131.844ZM147.607 133.592H150.566V135.027H147.617V138.67H148.418C150.039 138.67 151.362 138.616 152.822 138.357L152.715 137.352C151.411 137.566 150.264 137.635 148.906 137.645V136.014H151.836V132.586H147.607V133.592ZM163.223 131.844H161.963V140.75H163.223V131.844ZM156.221 138.67H160.615V132.547H159.385V134.715H157.471V132.547H156.221V138.67ZM157.471 137.664V135.682H159.385V137.664H157.471ZM171.436 131.844H170.186V140.711H171.436V136.277H172.695V135.252H171.436V131.844ZM164.326 138.221L165.029 139.178C168.018 137.708 169.053 135.408 169.062 132.752H164.834V133.768H167.798C167.563 135.75 166.431 137.166 164.326 138.221ZM180 132.361H175.918V133.357H178.667C178.462 134.554 177.378 135.53 175.439 136.053L175.928 137.02C178.53 136.297 180 134.686 180 132.361ZM176.758 138.357H181.621V140.711H182.861V137.361H176.758V138.357ZM180.088 135.027H181.621V137.01H182.861V131.854H181.621V134.002H180.088V135.027ZM191.504 131.844H190.264V134.012H188.877V135.018H190.264V137.117H191.504V131.844ZM183.955 136.141L184.6 137.127C185.654 136.766 186.367 136.038 186.758 135.135C187.144 135.931 187.822 136.575 188.799 136.893L189.414 135.916C188.032 135.457 187.397 134.412 187.373 133.377H189.141V132.381H184.316V133.377H186.104C186.074 134.49 185.41 135.652 183.955 136.141ZM185.41 139.031C185.41 140.11 186.572 140.74 188.467 140.74C190.366 140.74 191.528 140.11 191.533 139.031C191.528 137.952 190.366 137.317 188.467 137.312C186.572 137.317 185.41 137.952 185.41 139.031ZM186.65 139.031C186.65 138.519 187.29 138.265 188.467 138.27C189.648 138.265 190.288 138.519 190.293 139.031C190.288 139.539 189.648 139.793 188.467 139.793C187.29 139.793 186.65 139.539 186.65 139.031ZM200.137 131.854H198.896V137.244H200.137V131.854ZM192.725 136.072L192.852 137.02C194.424 137.02 196.528 137 198.428 136.658L198.35 135.799C197.676 135.892 196.963 135.95 196.25 135.994V135.242H197.832V134.246H194.697V133.299H197.783V132.293H193.447V135.242H194.99V136.048C194.18 136.067 193.403 136.072 192.725 136.072ZM194.092 140.633H200.137V137.605H194.092V140.633ZM195.312 139.637V138.592H198.926V139.637H195.312Z" fill="#464555"/>
<path d="M218.439 138.582H221.877V139.832H223.273V138.582H224.172V137.4H223.273V132.762H221.428L218.439 137.42V138.582ZM219.924 137.4V137.342L221.828 134.373H221.896V137.4H219.924ZM229.006 134.783H230.412C230.393 133.533 229.362 132.664 227.795 132.664C226.247 132.664 225.114 133.519 225.119 134.803C225.119 135.838 225.852 136.434 227.043 136.727L227.814 136.912C228.586 137.103 229.025 137.327 229.025 137.811C229.025 138.338 228.527 138.699 227.756 138.699C226.975 138.699 226.408 138.338 226.359 137.625H224.934C224.978 139.144 226.066 139.935 227.775 139.93C229.499 139.935 230.505 139.104 230.51 137.811C230.505 136.634 229.602 136.019 228.391 135.74L227.756 135.584C227.146 135.447 226.618 135.218 226.623 134.705C226.628 134.236 227.043 133.895 227.785 133.895C228.503 133.895 228.947 134.222 229.006 134.783ZM231.193 133.973H233.361V139.832H234.816V133.973H236.984V132.762H231.193V133.973ZM240.197 139.832H241.662V136.902H244.729V139.832H246.203V132.762H244.729V135.691H241.662V132.762H240.197V139.832ZM253.869 136.297C253.869 133.987 252.438 132.664 250.568 132.664C248.684 132.664 247.258 133.987 247.258 136.297C247.258 138.597 248.684 139.93 250.568 139.93C252.438 139.93 253.869 138.606 253.869 136.297ZM248.752 136.297C248.752 134.783 249.47 133.968 250.568 133.963C251.657 133.968 252.38 134.783 252.375 136.297C252.38 137.806 251.657 138.626 250.568 138.631C249.47 138.626 248.752 137.806 248.752 136.297ZM254.924 132.762V139.832H256.35V135.184H256.408L258.254 139.803H259.23L261.076 135.203H261.135V139.832H262.561V132.762H260.744L258.781 137.557H258.703L256.74 132.762H254.924ZM263.752 139.832H268.508V138.621H265.217V136.902H268.254V135.691H265.217V133.973H268.498V132.762H263.752V139.832ZM274.885 133.855V132.527H273.635V133.855C273.635 135.506 272.927 137.205 271.418 137.898L272.189 138.904C273.195 138.406 273.879 137.464 274.27 136.316C274.636 137.386 275.28 138.265 276.232 138.738L276.984 137.742C275.559 137.054 274.88 135.447 274.885 133.855ZM277.375 140.73H278.625V136.326H279.934V135.271H278.625V131.844H277.375V140.73ZM288.361 136.053H286.496V134.998C287.16 134.715 287.536 134.271 287.541 133.689C287.536 132.615 286.271 131.976 284.309 131.971C282.331 131.976 281.066 132.615 281.066 133.689C281.066 134.261 281.433 134.7 282.082 134.988V136.053H280.256V137.049H288.361V136.053ZM281.184 139.109C281.184 140.159 282.351 140.721 284.299 140.721C286.218 140.721 287.385 140.159 287.395 139.109C287.385 138.084 286.218 137.513 284.299 137.518C282.351 137.513 281.184 138.084 281.184 139.109ZM282.365 133.689C282.355 133.191 283.054 132.928 284.309 132.928C285.549 132.928 286.252 133.191 286.252 133.689C286.252 134.178 285.549 134.427 284.309 134.422C283.054 134.427 282.355 134.178 282.365 133.689ZM282.453 139.109C282.448 138.67 283.068 138.46 284.299 138.455C285.505 138.46 286.14 138.67 286.145 139.109C286.14 139.563 285.505 139.793 284.299 139.793C283.068 139.793 282.448 139.563 282.453 139.109ZM283.342 136.053V135.306C283.64 135.34 283.962 135.359 284.309 135.359C284.646 135.359 284.963 135.345 285.256 135.306V136.053H283.342Z" fill="#464555"/>
<path d="M327.969 131.844H326.777V140.73H327.969V131.844ZM320.342 135.691C320.342 137.688 321.099 138.924 322.275 138.924C323.369 138.924 324.116 137.864 324.224 136.121H324.941V140.32H326.113V131.971H324.941V135.135H324.214C324.077 133.475 323.345 132.474 322.275 132.479C321.099 132.474 320.342 133.704 320.342 135.691ZM321.494 135.691C321.484 134.329 321.777 133.65 322.275 133.65C322.788 133.65 323.091 134.329 323.086 135.691C323.091 137.059 322.788 137.732 322.275 137.723C321.777 137.732 321.484 137.059 321.494 135.691ZM336.416 131.844H335.176V134.588H332.744V135.604H335.176V140.75H336.416V131.844ZM329.365 138.66H330.117C331.445 138.66 332.812 138.587 334.248 138.289L334.111 137.273C332.905 137.503 331.743 137.601 330.615 137.62V132.791H329.365V138.66ZM340.996 134.266V133.719H342.852V132.703H337.832V133.719H339.717V134.266C339.717 135.77 338.955 137.415 337.48 138.074L338.193 139.061C339.243 138.577 339.98 137.601 340.381 136.434C340.781 137.508 341.504 138.392 342.549 138.836L343.223 137.859C341.733 137.239 340.991 135.701 340.996 134.266ZM343.73 140.73H344.99V131.844H343.73V140.73ZM351.768 133.855V132.527H350.518V133.855C350.518 135.506 349.81 137.205 348.301 137.898L349.072 138.904C350.078 138.406 350.762 137.464 351.152 136.316C351.519 137.386 352.163 138.265 353.115 138.738L353.867 137.742C352.441 137.054 351.763 135.447 351.768 133.855ZM354.258 140.73H355.508V136.326H356.816V135.271H355.508V131.844H354.258V140.73ZM365.244 136.053H363.379V134.998C364.043 134.715 364.419 134.271 364.424 133.689C364.419 132.615 363.154 131.976 361.191 131.971C359.214 131.976 357.949 132.615 357.949 133.689C357.949 134.261 358.315 134.7 358.965 134.988V136.053H357.139V137.049H365.244V136.053ZM358.066 139.109C358.066 140.159 359.233 140.721 361.182 140.721C363.101 140.721 364.268 140.159 364.277 139.109C364.268 138.084 363.101 137.513 361.182 137.518C359.233 137.513 358.066 138.084 358.066 139.109ZM359.248 133.689C359.238 133.191 359.937 132.928 361.191 132.928C362.432 132.928 363.135 133.191 363.135 133.689C363.135 134.178 362.432 134.427 361.191 134.422C359.937 134.427 359.238 134.178 359.248 133.689ZM359.336 139.109C359.331 138.67 359.951 138.46 361.182 138.455C362.388 138.46 363.022 138.67 363.027 139.109C363.022 139.563 362.388 139.793 361.182 139.793C359.951 139.793 359.331 139.563 359.336 139.109ZM360.225 136.053V135.306C360.522 135.34 360.845 135.359 361.191 135.359C361.528 135.359 361.846 135.345 362.139 135.306V136.053H360.225ZM373.066 132.488H368.496V133.504H371.851C371.841 134.036 371.802 134.686 371.641 135.535L372.861 135.652C373.066 134.549 373.066 133.66 373.066 133.045V132.488ZM367.969 136.297L368.076 137.293C369.624 137.288 371.704 137.254 373.555 136.912L373.486 136.014C372.651 136.136 371.748 136.204 370.859 136.243V134.539H369.619V136.282C369.028 136.297 368.467 136.297 367.969 136.297ZM369.277 140.574H375.518V139.578H370.527V137.898H369.277V140.574ZM373.965 138.494H375.244V135.594H376.318V134.549H375.244V131.844H373.965V138.494ZM384.18 131.844H382.939V140.75H384.18V131.844ZM377.197 133.592H380.156V135.027H377.207V138.67H378.008C379.629 138.67 380.952 138.616 382.412 138.357L382.305 137.352C381.001 137.566 379.854 137.635 378.496 137.645V136.014H381.426V132.586H377.197V133.592Z" fill="#464555"/>
<defs>
<filter id="filter0_f_1254_21004" x="244.672" y="39.2266" width="7.3125" height="7.3125" filterUnits="userSpaceOnUse" color-interpolation-filters="sRGB">
<feFlood flood-opacity="0" result="BackgroundImageFix"/>
<feBlend mode="normal" in="SourceGraphic" in2="BackgroundImageFix" result="shape"/>
<feGaussianBlur stdDeviation="0.304687" result="effect1_foregroundBlur_1254_21004"/>
</filter>
<filter id="filter1_f_1254_21004" x="253.434" y="39.0352" width="7.3125" height="7.3125" filterUnits="userSpaceOnUse" color-interpolation-filters="sRGB">
<feFlood flood-opacity="0" result="BackgroundImageFix"/>
<feBlend mode="normal" in="SourceGraphic" in2="BackgroundImageFix" result="shape"/>
<feGaussianBlur stdDeviation="0.304687" result="effect1_foregroundBlur_1254_21004"/>
</filter>
<filter id="filter2_iii_1254_21004" x="45.9492" y="96.6465" width="10.4199" height="10.4965" filterUnits="userSpaceOnUse" color-interpolation-filters="sRGB">
<feFlood flood-opacity="0" result="BackgroundImageFix"/>
<feBlend mode="normal" in="SourceGraphic" in2="BackgroundImageFix" result="shape"/>
<feColorMatrix in="SourceAlpha" type="matrix" values="0 0 0 0 0 0 0 0 0 0 0 0 0 0 0 0 0 0 127 0" result="hardAlpha"/>
<feOffset dx="0.115248" dy="-0.230496"/>
<feGaussianBlur stdDeviation="0.230496"/>
<feComposite in2="hardAlpha" operator="arithmetic" k2="-1" k3="1"/>
<feColorMatrix type="matrix" values="0 0 0 0 0.988235 0 0 0 0 0.603922 0 0 0 0 0.329412 0 0 0 1 0"/>
<feBlend mode="normal" in2="shape" result="effect1_innerShadow_1254_21004"/>
<feColorMatrix in="SourceAlpha" type="matrix" values="0 0 0 0 0 0 0 0 0 0 0 0 0 0 0 0 0 0 127 0" result="hardAlpha"/>
<feOffset dy="0.0921983"/>
<feGaussianBlur stdDeviation="0.138297"/>
<feComposite in2="hardAlpha" operator="arithmetic" k2="-1" k3="1"/>
<feColorMatrix type="matrix" values="0 0 0 0 0.854902 0 0 0 0 0.698039 0 0 0 0 0.258824 0 0 0 1 0"/>
<feBlend mode="normal" in2="effect1_innerShadow_1254_21004" result="effect2_innerShadow_1254_21004"/>
<feColorMatrix in="SourceAlpha" type="matrix" values="0 0 0 0 0 0 0 0 0 0 0 0 0 0 0 0 0 0 127 0" result="hardAlpha"/>
<feOffset dy="-0.0691487"/>
<feGaussianBlur stdDeviation="0.0460992"/>
<feComposite in2="hardAlpha" operator="arithmetic" k2="-1" k3="1"/>
<feColorMatrix type="matrix" values="0 0 0 0 0.984314 0 0 0 0 0.529412 0 0 0 0 0.615686 0 0 0 1 0"/>
<feBlend mode="normal" in2="effect2_innerShadow_1254_21004" result="effect3_innerShadow_1254_21004"/>
</filter>
<filter id="filter3_f_1254_21004" x="51.2672" y="101.4" width="1.7469" height="1.63362" filterUnits="userSpaceOnUse" color-interpolation-filters="sRGB">
<feFlood flood-opacity="0" result="BackgroundImageFix"/>
<feBlend mode="normal" in="SourceGraphic" in2="BackgroundImageFix" result="shape"/>
<feGaussianBlur stdDeviation="0.0460992" result="effect1_foregroundBlur_1254_21004"/>
</filter>
<filter id="filter4_f_1254_21004" x="52.1656" y="102.849" width="1.7469" height="1.63362" filterUnits="userSpaceOnUse" color-interpolation-filters="sRGB">
<feFlood flood-opacity="0" result="BackgroundImageFix"/>
<feBlend mode="normal" in="SourceGraphic" in2="BackgroundImageFix" result="shape"/>
<feGaussianBlur stdDeviation="0.0460992" result="effect1_foregroundBlur_1254_21004"/>
</filter>
<filter id="filter5_f_1254_21004" x="50.0289" y="99.9488" width="1.7469" height="1.63362" filterUnits="userSpaceOnUse" color-interpolation-filters="sRGB">
<feFlood flood-opacity="0" result="BackgroundImageFix"/>
<feBlend mode="normal" in="SourceGraphic" in2="BackgroundImageFix" result="shape"/>
<feGaussianBlur stdDeviation="0.0460992" result="effect1_foregroundBlur_1254_21004"/>
</filter>
<filter id="filter6_f_1254_21004" x="47.9469" y="99.2183" width="1.64143" height="1.37385" filterUnits="userSpaceOnUse" color-interpolation-filters="sRGB">
<feFlood flood-opacity="0" result="BackgroundImageFix"/>
<feBlend mode="normal" in="SourceGraphic" in2="BackgroundImageFix" result="shape"/>
<feGaussianBlur stdDeviation="0.0460992" result="effect1_foregroundBlur_1254_21004"/>
</filter>
<filter id="filter7_f_1254_21004" x="48.8554" y="98.9823" width="5.00797" height="5.79899" filterUnits="userSpaceOnUse" color-interpolation-filters="sRGB">
<feFlood flood-opacity="0" result="BackgroundImageFix"/>
<feBlend mode="normal" in="SourceGraphic" in2="BackgroundImageFix" result="shape"/>
<feGaussianBlur stdDeviation="0.345744" result="effect1_foregroundBlur_1254_21004"/>
</filter>
<filter id="filter8_i_1254_21004" x="140.547" y="74.3418" width="21.6328" height="23.0801" filterUnits="userSpaceOnUse" color-interpolation-filters="sRGB">
<feFlood flood-opacity="0" result="BackgroundImageFix"/>
<feBlend mode="normal" in="SourceGraphic" in2="BackgroundImageFix" result="shape"/>
<feColorMatrix in="SourceAlpha" type="matrix" values="0 0 0 0 0 0 0 0 0 0 0 0 0 0 0 0 0 0 127 0" result="hardAlpha"/>
<feOffset dx="0.304687" dy="0.609373"/>
<feGaussianBlur stdDeviation="0.380858"/>
<feComposite in2="hardAlpha" operator="arithmetic" k2="-1" k3="1"/>
<feColorMatrix type="matrix" values="0 0 0 0 0 0 0 0 0 0 0 0 0 0 0 0 0 0 0.16 0"/>
<feBlend mode="normal" in2="shape" result="effect1_innerShadow_1254_21004"/>
</filter>
<linearGradient id="paint0_linear_1254_21004" x1="195.999" y1="38.334" x2="195.999" y2="123.617" gradientUnits="userSpaceOnUse">
<stop stop-color="#98CBFF"/>
<stop offset="1" stop-color="#3E9BFB" stop-opacity="0"/>
</linearGradient>
<radialGradient id="paint1_radial_1254_21004" cx="0" cy="0" r="1" gradientUnits="userSpaceOnUse" gradientTransform="translate(260.518 40.9785) rotate(131.878) scale(29.6679)">
<stop stop-color="#FFF478"/>
<stop offset="0.474827" stop-color="#FFB02E"/>
<stop offset="1" stop-color="#F70A8D"/>
</radialGradient>
<radialGradient id="paint2_radial_1254_21004" cx="0" cy="0" r="1" gradientUnits="userSpaceOnUse" gradientTransform="translate(253.281 43.6445) rotate(101.31) scale(13.594 17.4114)">
<stop offset="0.787821" stop-color="#F59639" stop-opacity="0"/>
<stop offset="0.972509" stop-color="#FF7DCE"/>
</radialGradient>
<radialGradient id="paint3_radial_1254_21004" cx="0" cy="0" r="1" gradientUnits="userSpaceOnUse" gradientTransform="translate(254.805 44.7871) rotate(135) scale(31.2397)">
<stop offset="0.314853" stop-opacity="0"/>
<stop offset="1"/>
</radialGradient>
<radialGradient id="paint4_radial_1254_21004" cx="0" cy="0" r="1" gradientUnits="userSpaceOnUse" gradientTransform="translate(253.281 47.0722) rotate(77.692) scale(21.44)">
<stop offset="0.507903" stop-color="#7D6133" stop-opacity="0"/>
<stop offset="1" stop-color="#715B32"/>
</radialGradient>
<radialGradient id="paint5_radial_1254_21004" cx="0" cy="0" r="1" gradientUnits="userSpaceOnUse" gradientTransform="translate(253.662 46.6914) rotate(55.7131) scale(10.1411 7.35081)">
<stop stop-color="#FFB849"/>
<stop offset="1" stop-color="#FFB847" stop-opacity="0"/>
</radialGradient>
<radialGradient id="paint6_radial_1254_21004" cx="0" cy="0" r="1" gradientUnits="userSpaceOnUse" gradientTransform="translate(256.709 47.834) rotate(9.86581) scale(8.89123)">
<stop stop-color="#FFA64B"/>
<stop offset="0.900412" stop-color="#FFAE46" stop-opacity="0"/>
</radialGradient>
<radialGradient id="paint7_radial_1254_21004" cx="0" cy="0" r="1" gradientUnits="userSpaceOnUse" gradientTransform="translate(254.424 45.5488) rotate(43.9708) scale(44.9816)">
<stop offset="0.185425" stop-opacity="0"/>
<stop offset="1" stop-opacity="0.4"/>
</radialGradient>
<linearGradient id="paint8_linear_1254_21004" x1="257.969" y1="39.4551" x2="256.88" y2="44.5193" gradientUnits="userSpaceOnUse">
<stop stop-color="#553B3E"/>
<stop offset="1" stop-color="#3D2432"/>
</linearGradient>
<radialGradient id="paint9_radial_1254_21004" cx="0" cy="0" r="1" gradientUnits="userSpaceOnUse" gradientTransform="translate(253.281 54.6894) rotate(-90) scale(8.37888 16.7578)">
<stop stop-color="#F70A8D"/>
<stop offset="1" stop-color="#89029C"/>
</radialGradient>
<linearGradient id="paint10_linear_1254_21004" x1="253.281" y1="46.3105" x2="253.281" y2="47.4531" gradientUnits="userSpaceOnUse">
<stop stop-color="#ECCDFF"/>
<stop offset="1" stop-color="white"/>
</linearGradient>
<radialGradient id="paint11_radial_1254_21004" cx="0" cy="0" r="1" gradientUnits="userSpaceOnUse" gradientTransform="translate(60.6464 90.9473) rotate(131.878) scale(29.6679)">
<stop stop-color="#FFF478"/>
<stop offset="0.474827" stop-color="#FFB02E"/>
<stop offset="1" stop-color="#F70A8D"/>
</radialGradient>
<radialGradient id="paint12_radial_1254_21004" cx="0" cy="0" r="1" gradientUnits="userSpaceOnUse" gradientTransform="translate(53.4101 93.6133) rotate(101.31) scale(13.594 17.4114)">
<stop offset="0.787821" stop-color="#F59639" stop-opacity="0"/>
<stop offset="0.972509" stop-color="#FF7DCE"/>
</radialGradient>
<radialGradient id="paint13_radial_1254_21004" cx="0" cy="0" r="1" gradientUnits="userSpaceOnUse" gradientTransform="translate(54.9336 94.7558) rotate(135) scale(31.2397)">
<stop offset="0.314853" stop-opacity="0"/>
<stop offset="1"/>
</radialGradient>
<radialGradient id="paint14_radial_1254_21004" cx="0" cy="0" r="1" gradientUnits="userSpaceOnUse" gradientTransform="translate(53.4101 97.041) rotate(77.692) scale(21.44)">
<stop offset="0.507903" stop-color="#7D6133" stop-opacity="0"/>
<stop offset="1" stop-color="#715B32"/>
</radialGradient>
<radialGradient id="paint15_radial_1254_21004" cx="0" cy="0" r="1" gradientUnits="userSpaceOnUse" gradientTransform="translate(53.791 96.6601) rotate(55.7131) scale(10.1411 7.35081)">
<stop stop-color="#FFB849"/>
<stop offset="1" stop-color="#FFB847" stop-opacity="0"/>
</radialGradient>
<radialGradient id="paint16_radial_1254_21004" cx="0" cy="0" r="1" gradientUnits="userSpaceOnUse" gradientTransform="translate(56.8379 97.8027) rotate(9.86581) scale(8.89123)">
<stop stop-color="#FFA64B"/>
<stop offset="0.900412" stop-color="#FFAE46" stop-opacity="0"/>
</radialGradient>
<radialGradient id="paint17_radial_1254_21004" cx="0" cy="0" r="1" gradientUnits="userSpaceOnUse" gradientTransform="translate(54.5527 95.5176) rotate(43.9708) scale(44.9816)">
<stop offset="0.185425" stop-opacity="0"/>
<stop offset="1" stop-opacity="0.4"/>
</radialGradient>
<linearGradient id="paint18_linear_1254_21004" x1="55.8097" y1="98.9918" x2="46.5915" y2="105.806" gradientUnits="userSpaceOnUse">
<stop offset="0.206158" stop-color="#FFC549"/>
<stop offset="1" stop-color="#FBA945"/>
</linearGradient>
<radialGradient id="paint19_radial_1254_21004" cx="0" cy="0" r="1" gradientUnits="userSpaceOnUse" gradientTransform="translate(49.6487 97.6838) rotate(156.705) scale(0.932984 0.75322)">
<stop stop-color="#FFD862"/>
<stop offset="1" stop-color="#FFD862" stop-opacity="0"/>
</radialGradient>
<radialGradient id="paint20_radial_1254_21004" cx="0" cy="0" r="1" gradientUnits="userSpaceOnUse" gradientTransform="translate(45.8397 105.361) rotate(-6.20701) scale(3.13524 5.4663)">
<stop stop-color="#EF9D34"/>
<stop offset="1" stop-color="#EF9D34" stop-opacity="0"/>
</radialGradient>
<radialGradient id="paint21_radial_1254_21004" cx="0" cy="0" r="1" gradientUnits="userSpaceOnUse" gradientTransform="translate(53.4813 98.8265) rotate(144.545) scale(3.85737 0.987697)">
<stop offset="0.476847" stop-color="#F9B417"/>
<stop offset="1" stop-color="#F9B417" stop-opacity="0"/>
</radialGradient>
<linearGradient id="paint22_linear_1254_21004" x1="51.1009" y1="97.6839" x2="51.8367" y2="98.5885" gradientUnits="userSpaceOnUse">
<stop stop-color="#EDB225"/>
<stop offset="1" stop-color="#EDB225" stop-opacity="0"/>
</linearGradient>
<linearGradient id="paint23_linear_1254_21004" x1="50.0536" y1="100.398" x2="51.5532" y2="99.1359" gradientUnits="userSpaceOnUse">
<stop stop-color="#FEBC48"/>
<stop offset="1" stop-color="#FEBC48" stop-opacity="0"/>
</linearGradient>
<radialGradient id="paint24_radial_1254_21004" cx="0" cy="0" r="1" gradientUnits="userSpaceOnUse" gradientTransform="translate(53.5884 97.4935) rotate(141.843) scale(0.847624 0.574639)">
<stop stop-color="#FFDA65"/>
<stop offset="1" stop-color="#FFDA65" stop-opacity="0"/>
</radialGradient>
<radialGradient id="paint25_radial_1254_21004" cx="0" cy="0" r="1" gradientUnits="userSpaceOnUse" gradientTransform="translate(56.174 99.3974) rotate(143.758) scale(6.07982 1.1465)">
<stop offset="0.476847" stop-color="#F9B417"/>
<stop offset="1" stop-color="#F9B417" stop-opacity="0"/>
</radialGradient>
<linearGradient id="paint26_linear_1254_21004" x1="52.4844" y1="99.1832" x2="53.0795" y2="99.9449" gradientUnits="userSpaceOnUse">
<stop stop-color="#F7B51D"/>
<stop offset="1" stop-color="#F7B51D" stop-opacity="0"/>
</linearGradient>
<radialGradient id="paint27_radial_1254_21004" cx="0" cy="0" r="1" gradientUnits="userSpaceOnUse" gradientTransform="translate(55.6979 98.2311) rotate(142.907) scale(1.22352 0.729525)">
<stop stop-color="#FFDA65"/>
<stop offset="1" stop-color="#FFDA65" stop-opacity="0"/>
</radialGradient>
<linearGradient id="paint28_linear_1254_21004" x1="50.9848" y1="101.849" x2="52.3416" y2="100.802" gradientUnits="userSpaceOnUse">
<stop offset="0.31397" stop-color="#FEBB48"/>
<stop offset="1" stop-color="#FEBB48" stop-opacity="0"/>
</linearGradient>
<radialGradient id="paint29_radial_1254_21004" cx="0" cy="0" r="1" gradientUnits="userSpaceOnUse" gradientTransform="translate(57.8811 100.46) rotate(147.264) scale(5.99254 1.07804)">
<stop offset="0.476847" stop-color="#F9B417"/>
<stop offset="1" stop-color="#F9B417" stop-opacity="0"/>
</radialGradient>
<linearGradient id="paint30_linear_1254_21004" x1="54.0883" y1="100.267" x2="54.6039" y2="101.02" gradientUnits="userSpaceOnUse">
<stop stop-color="#F7B51D"/>
<stop offset="1" stop-color="#F7B51D" stop-opacity="0"/>
</linearGradient>
<radialGradient id="paint31_radial_1254_21004" cx="0" cy="0" r="1" gradientUnits="userSpaceOnUse" gradientTransform="translate(56.1379 100.113) rotate(149.036) scale(1.04098 0.767045)">
<stop stop-color="#FFDA65"/>
<stop offset="1" stop-color="#FFDA65" stop-opacity="0"/>
</radialGradient>
<linearGradient id="paint32_linear_1254_21004" x1="52.5467" y1="102.671" x2="53.8009" y2="101.567" gradientUnits="userSpaceOnUse">
<stop offset="0.31397" stop-color="#FEBB48"/>
<stop offset="1" stop-color="#FEBB48" stop-opacity="0"/>
</linearGradient>
<radialGradient id="paint33_radial_1254_21004" cx="0" cy="0" r="1" gradientUnits="userSpaceOnUse" gradientTransform="translate(54.5836 102.136) rotate(51.0991) scale(0.841136 2.13525)">
<stop offset="0.428752" stop-color="#F7B51D"/>
<stop offset="1" stop-color="#F7B51D" stop-opacity="0"/>
</radialGradient>
<radialGradient id="paint34_radial_1254_21004" cx="0" cy="0" r="1" gradientUnits="userSpaceOnUse" gradientTransform="translate(56.1525 102.289) rotate(149.703) scale(0.806382 0.586644)">
<stop stop-color="#FFDA65"/>
<stop offset="1" stop-color="#FFDA65" stop-opacity="0"/>
</radialGradient>
<linearGradient id="paint35_linear_1254_21004" x1="52.9663" y1="101.492" x2="51.8718" y2="102.265" gradientUnits="userSpaceOnUse">
<stop offset="0.240958" stop-color="#FFD563"/>
<stop offset="1" stop-color="#FFD563" stop-opacity="0"/>
</linearGradient>
<linearGradient id="paint36_linear_1254_21004" x1="53.8648" y1="102.941" x2="52.7703" y2="103.715" gradientUnits="userSpaceOnUse">
<stop offset="0.240958" stop-color="#FFD563"/>
<stop offset="1" stop-color="#FFD563" stop-opacity="0"/>
</linearGradient>
<linearGradient id="paint37_linear_1254_21004" x1="51.728" y1="100.041" x2="50.6336" y2="100.814" gradientUnits="userSpaceOnUse">
<stop offset="0.240958" stop-color="#FFD563"/>
<stop offset="1" stop-color="#FFD563" stop-opacity="0"/>
</linearGradient>
<linearGradient id="paint38_linear_1254_21004" x1="49.5354" y1="99.3105" x2="48.6057" y2="100.056" gradientUnits="userSpaceOnUse">
<stop offset="0.240958" stop-color="#FFD563"/>
<stop offset="1" stop-color="#FFD563" stop-opacity="0"/>
</linearGradient>
<radialGradient id="paint39_radial_1254_21004" cx="0" cy="0" r="1" gradientUnits="userSpaceOnUse" gradientTransform="translate(360.451 37.3223) rotate(131.878) scale(29.6679)">
<stop stop-color="#FFF478"/>
<stop offset="0.474827" stop-color="#FFB02E"/>
<stop offset="1" stop-color="#F70A8D"/>
</radialGradient>
<radialGradient id="paint40_radial_1254_21004" cx="0" cy="0" r="1" gradientUnits="userSpaceOnUse" gradientTransform="translate(353.215 39.9883) rotate(101.31) scale(13.594 17.4114)">
<stop offset="0.787821" stop-color="#F59639" stop-opacity="0"/>
<stop offset="0.972509" stop-color="#FF7DCE"/>
</radialGradient>
<radialGradient id="paint41_radial_1254_21004" cx="0" cy="0" r="1" gradientUnits="userSpaceOnUse" gradientTransform="translate(354.738 41.1308) rotate(135) scale(31.2397)">
<stop offset="0.314853" stop-opacity="0"/>
<stop offset="1"/>
</radialGradient>
<radialGradient id="paint42_radial_1254_21004" cx="0" cy="0" r="1" gradientUnits="userSpaceOnUse" gradientTransform="translate(353.215 43.416) rotate(77.692) scale(21.44)">
<stop offset="0.507903" stop-color="#7D6133" stop-opacity="0"/>
<stop offset="1" stop-color="#715B32"/>
</radialGradient>
<radialGradient id="paint43_radial_1254_21004" cx="0" cy="0" r="1" gradientUnits="userSpaceOnUse" gradientTransform="translate(353.596 43.0351) rotate(55.7131) scale(10.1411 7.35081)">
<stop stop-color="#FFB849"/>
<stop offset="1" stop-color="#FFB847" stop-opacity="0"/>
</radialGradient>
<radialGradient id="paint44_radial_1254_21004" cx="0" cy="0" r="1" gradientUnits="userSpaceOnUse" gradientTransform="translate(356.643 44.1777) rotate(9.86581) scale(8.89123)">
<stop stop-color="#FFA64B"/>
<stop offset="0.900412" stop-color="#FFAE46" stop-opacity="0"/>
</radialGradient>
<radialGradient id="paint45_radial_1254_21004" cx="0" cy="0" r="1" gradientUnits="userSpaceOnUse" gradientTransform="translate(354.357 41.8926) rotate(43.9708) scale(44.9816)">
<stop offset="0.185425" stop-opacity="0"/>
<stop offset="1" stop-opacity="0.4"/>
</radialGradient>
<radialGradient id="paint46_radial_1254_21004" cx="0" cy="0" r="1" gradientUnits="userSpaceOnUse" gradientTransform="translate(350.664 37.92) rotate(135) scale(6.93603 3.58986)">
<stop stop-color="#392108"/>
<stop offset="1" stop-color="#C87928" stop-opacity="0"/>
</radialGradient>
<radialGradient id="paint47_radial_1254_21004" cx="0" cy="0" r="1" gradientUnits="userSpaceOnUse" gradientTransform="translate(358.201 38.5739) rotate(135) scale(5.84212 3.29797)">
<stop stop-color="#392108"/>
<stop offset="1" stop-color="#C87928" stop-opacity="0"/>
</radialGradient>
<linearGradient id="paint48_linear_1254_21004" x1="353.596" y1="36.5605" x2="352.834" y2="41.8926" gradientUnits="userSpaceOnUse">
<stop stop-color="#553B3E"/>
<stop offset="1" stop-color="#3D2432"/>
</linearGradient>
<linearGradient id="paint49_linear_1254_21004" x1="353.596" y1="36.5605" x2="352.834" y2="41.8926" gradientUnits="userSpaceOnUse">
<stop stop-color="#553B3E"/>
<stop offset="1" stop-color="#3D2432"/>
</linearGradient>
<radialGradient id="paint50_radial_1254_21004" cx="0" cy="0" r="1" gradientUnits="userSpaceOnUse" gradientTransform="translate(353.215 43.4161) rotate(90) scale(4.18944 6.41255)">
<stop offset="0.34763" stop-color="#241A1A"/>
<stop offset="0.628228" stop-color="#57444A"/>
<stop offset="1" stop-color="#4E2553"/>
<stop offset="1" stop-color="#502A56"/>
</radialGradient>
<radialGradient id="paint51_radial_1254_21004" cx="0" cy="0" r="1" gradientUnits="userSpaceOnUse" gradientTransform="translate(159.209 80.8164) rotate(136.548) scale(19.936 31.1807)">
<stop stop-color="#BCDFFF"/>
<stop offset="0.457009" stop-color="#BDB5FF"/>
<stop offset="1" stop-color="#AE89FF"/>
</radialGradient>
<radialGradient id="paint52_radial_1254_21004" cx="0" cy="0" r="1" gradientUnits="userSpaceOnUse" gradientTransform="translate(147.783 81.959) rotate(132.51) scale(6.19992 3.20887)">
<stop offset="0.309386" stop-color="#765FD7"/>
<stop offset="1" stop-color="#765FD7" stop-opacity="0"/>
</radialGradient>
<radialGradient id="paint53_radial_1254_21004" cx="0" cy="0" r="1" gradientUnits="userSpaceOnUse" gradientTransform="translate(155.591 82.5684) rotate(132.51) scale(5.57993 2.88799)">
<stop offset="0.0533088" stop-color="#765FD7"/>
<stop offset="1" stop-color="#765FD7" stop-opacity="0"/>
</radialGradient>
<linearGradient id="paint54_linear_1254_21004" x1="154.727" y1="81.959" x2="154.202" y2="85.0288" gradientUnits="userSpaceOnUse">
<stop stop-color="#553B3E"/>
<stop offset="1" stop-color="#3D2432"/>
</linearGradient>
<linearGradient id="paint55_linear_1254_21004" x1="154.727" y1="81.959" x2="154.202" y2="85.0288" gradientUnits="userSpaceOnUse">
<stop stop-color="#553B3E"/>
<stop offset="1" stop-color="#3D2432"/>
</linearGradient>
<linearGradient id="paint56_linear_1254_21004" x1="151.21" y1="74.3418" x2="151.21" y2="81.1972" gradientUnits="userSpaceOnUse">
<stop stop-color="#5DA0FF"/>
<stop offset="1" stop-color="#5DA0FF" stop-opacity="0"/>
</linearGradient>
<radialGradient id="paint57_radial_1254_21004" cx="0" cy="0" r="1" gradientUnits="userSpaceOnUse" gradientTransform="translate(151.21 94.5273) rotate(-90) scale(11.8066)">
<stop stop-color="#F4BCFF"/>
<stop offset="1" stop-color="#F4BCFF" stop-opacity="0"/>
</radialGradient>
<linearGradient id="paint58_linear_1254_21004" x1="152.669" y1="88.8144" x2="152.669" y2="89.5762" gradientUnits="userSpaceOnUse">
<stop stop-color="#FFF2FF"/>
<stop offset="0.717436" stop-color="#FFECFF"/>
<stop offset="0.988281" stop-color="#383B64"/>
</linearGradient>
<linearGradient id="paint59_linear_1254_21004" x1="152.726" y1="89.5762" x2="152.726" y2="93.3848" gradientUnits="userSpaceOnUse">
<stop stop-color="#FFF7FF"/>
<stop offset="1" stop-color="#FFE1FF"/>
</linearGradient>
<linearGradient id="paint60_linear_1254_21004" x1="146.258" y1="76.627" x2="146.258" y2="77.7695" gradientUnits="userSpaceOnUse">
<stop offset="0.0299084" stop-color="#524049"/>
<stop offset="1" stop-color="#4A2C42"/>
</linearGradient>
<radialGradient id="paint61_radial_1254_21004" cx="0" cy="0" r="1" gradientUnits="userSpaceOnUse" gradientTransform="translate(144.354 76.627) rotate(54.4623) scale(3.27627)">
<stop offset="0.541667" stop-color="#493032"/>
<stop offset="0.806723" stop-color="#5E445A"/>
<stop offset="0.955326" stop-color="#4A2C42"/>
</radialGradient>
<radialGradient id="paint62_radial_1254_21004" cx="0" cy="0" r="1" gradientUnits="userSpaceOnUse" gradientTransform="translate(158.064 76.627) rotate(125.538) scale(3.27627)">
<stop stop-color="#C2B4B5"/>
<stop offset="0.887405" stop-color="#462B45"/>
<stop offset="1" stop-color="#4A2C42"/>
</radialGradient>
<clipPath id="clip0_1254_21004">
<rect width="24.3749" height="24.3749" fill="white" transform="translate(241.094 34.123)"/>
</clipPath>
<clipPath id="clip1_1254_21004">
<rect width="24.3749" height="24.3749" fill="white" transform="translate(41.2227 84.0918)"/>
</clipPath>
<clipPath id="clip2_1254_21004">
<rect width="24.3749" height="24.3749" fill="white" transform="translate(341.027 30.4668)"/>
</clipPath>
<clipPath id="clip3_1254_21004">
<rect width="24.3749" height="24.3749" fill="white" transform="translate(139.023 72.8184)"/>
</clipPath>
</defs>
</svg>
