<svg width="153" height="154" viewBox="0 0 153 154" fill="none" xmlns="http://www.w3.org/2000/svg">
<path d="M65.7625 6.79404C77.0215 2.37338 84.1578 4.55207 90.6576 6.76481C97.1573 8.97756 98.731 14.6406 102.851 20.1701C106.971 25.6995 107.138 28.8825 108.309 39.0351C109.479 49.1878 106.666 44.2269 107.467 59.5066C108.268 74.7864 121.103 63.8999 124.718 84.138C128.332 104.376 96.736 108.382 76.3765 122.969C56.017 137.556 37.0915 141.083 48.6237 135.409C60.1559 129.734 31.1611 126.068 31.029 111.394C30.9535 103.012 42.9778 90.8452 47.1525 74.7978C50.2863 62.751 46.0674 47.1899 45.1567 36.7301C43.0329 12.3371 54.5035 11.2147 65.7625 6.79404Z" fill="#2A2933"/>
<path d="M29.9946 153.694C24.1015 81.2147 61.6013 82.9002 64.1269 83.743C83.4909 81.2143 97.5447 78.0877 115.224 86.5159C129.367 93.2585 124.13 132.36 112.044 153.695L29.9946 153.694Z" fill="#88B8EE"/>
<path d="M68.0557 79.8552C69.4058 77.8301 68.0557 66.0728 67.2118 60.4473C74.8062 58.7597 89.995 56.397 89.995 60.4473C89.995 65.5103 90.3655 78.5818 92.0531 80.2694C93.4032 81.6195 98.2968 82.5382 99.7031 82.8194C92.39 92.3827 74.975 115.296 72.2748 115.296C69.5745 115.296 64.8284 96.7317 61.4531 86.6058C63.9846 85.762 66.7056 81.8804 68.0557 79.8552Z" fill="#FDCFAE"/>
<path d="M99.6631 44.8564C100.468 60.2143 87.6432 69.4852 79.0085 69.9379C70.3739 70.3905 56.6497 62.5115 55.8446 47.1536C55.0394 31.7957 64.1958 18.8315 76.296 18.1971C88.3961 17.5627 98.858 29.4985 99.6631 44.8564Z" fill="#FDD9BF"/>
<ellipse cx="99.934" cy="45.0813" rx="7.34989" ry="9.56053" transform="rotate(8.94553 99.934 45.0813)" fill="#FDD9BF"/>
<ellipse cx="55.8275" cy="48.4716" rx="7.34989" ry="9.56053" transform="rotate(-18.001 55.8275 48.4716)" fill="#FDD9BF"/>
<path d="M67.6711 30.4761C76.1613 24.958 79.6568 17.5382 78.9625 15.0397C67.563 7.1875 52.526 16.0627 47.0691 24.7986C45.2646 27.6875 40.4266 47.0615 46.354 62.7102C52.2814 78.3588 29.0504 115.507 34.6814 108.008C44.2802 95.2265 62.6155 95.8043 57.2978 74.9586C55.8229 69.177 52.1159 40.586 67.6711 30.4761Z" fill="#2A2933"/>
<path d="M91.5438 35.1408C88.7059 32.5856 76.9546 21.5659 75.8764 17.1158C76.3792 15.9628 87.4588 15.2444 92.213 15.6712C98.1559 16.2046 97.9317 28.0461 99.9263 33.8564C101.522 38.5046 100.278 47.0609 99.2572 49.0861C98.8567 41.4466 95.0912 38.3348 91.5438 35.1408Z" fill="#2A2933"/>
<path d="M61.4508 145.854L95.8758 134.586L98.4258 153.71H86.1008H61.4508V145.854Z" fill="#FDCFAE"/>
<path d="M95.8758 129.486L53.8008 141.926V153.711H67.8258C77.1758 148.692 95.8758 138.391 95.8758 137.343V129.486Z" fill="#FDD9BF"/>
</svg>
