<svg width="121" height="121" viewBox="0 0 121 121" fill="none" xmlns="http://www.w3.org/2000/svg">
<path d="M24.015 76.3709C28.8327 73.1978 46.096 69.0391 54.1255 67.3564C77.7837 65.1929 96.2801 70.6016 101.872 75.2892C106.346 79.0392 112.339 106.66 114.777 120.001H6.37891C10.2502 106.78 19.1974 79.5441 24.015 76.3709Z" fill="#D3D3D3"/>
<path d="M44.9341 86.5064C44.9341 86.5064 43.9178 73.6165 48.4259 69.7959C52.9339 65.9752 76.3532 65.8026 77.5827 69.7954L82.8819 86.5064L62.6984 76.8183L44.9341 86.5064Z" fill="white"/>
<path d="M52.6121 70.0495C54.0427 68.598 54.5607 49.3915 54.203 46.6699L69.0812 47.2011L71.2108 68.9868C74.9249 74.2986 70.9365 75.8927 62.1711 75.8927C59.1302 75.8927 47.2657 75.4738 52.6121 70.0495Z" fill="#FCCFAE"/>
<ellipse cx="42.8579" cy="40.1638" rx="4.27745" ry="9.16597" transform="rotate(-15.6558 42.8579 40.1638)" fill="#E9BB9A"/>
<ellipse cx="79.3123" cy="38.3867" rx="4.61334" ry="9.16597" transform="rotate(5.6574 79.3123 38.3867)" fill="#E9BB9A"/>
<ellipse cx="61.6405" cy="37.6437" rx="18.0663" ry="23.9112" fill="#FDD9BF"/>
<path d="M64.0929 28.0249C64.3139 10.6136 60.2772 13.843 58.6625 15.4577C57.0478 15.4577 55.3307 15.7494 55.3307 17.2473C54.8798 21.741 56.6834 27.778 55.3307 30.7193C53.978 33.6607 46.7369 34.1536 44.7079 34.5621C44.1442 37.8303 44.4136 45.7856 43.8725 42.8442C43.1962 39.1675 39.4996 36.2952 37.1324 31.3929C34.7651 26.4907 36.779 15.0267 41.5135 8.49036C45.3011 3.2613 53.0496 5.01242 54.1769 7.1912C54.1769 5.96564 55.0983 2.86636 67.5433 2.53955C83.0995 2.13103 84.311 30.3608 84.9873 32.4034C85.4121 33.6863 82.3738 39.7288 79.6535 40.4854C78.9087 40.6925 79.3792 34.8632 78.8461 34.834C76.7043 34.834 63.9993 35.4014 64.0929 28.0249Z" fill="#2A2933"/>
</svg>
