<svg width="120" height="121" viewBox="0 0 120 121" fill="none" xmlns="http://www.w3.org/2000/svg">
<path d="M81.5559 39.8264C81.5559 39.8264 76.272 37.4964 74.7962 38.3224C74.7057 38.373 73.4813 36.5581 74.2377 34.5411C76.5068 33.2805 84.5813 30.7451 84.5813 32.263C84.5813 34.6549 81.5559 39.8264 81.5559 39.8264Z" fill="#0E1F27"/>
<path d="M47.5199 71.5912C49.2847 70.3306 53.117 67.6581 54.3272 67.053C60.3781 65.8428 65.9248 66.5487 67.9417 67.053C76.766 72.3475 98.0451 83.3905 100.466 85.2058C102.886 87.021 104.499 109.157 105.004 119.999H14.9961C14.9961 110.166 15.2986 89.744 16.5088 86.7185C17.719 83.693 37.1828 75.373 47.5199 71.5912Z" fill="#9BC1D6" stroke="#464555"/>
<path d="M58.8711 79.9118L63.4093 74.6172L68.7039 79.1554L65.6784 82.1809L72.4857 119.243H58.8711L62.6529 82.9372L58.8711 79.9118Z" fill="#0F2027" stroke="#464555"/>
<path d="M52.8125 67.8133V54.9551L70.2089 55.7114V67.8133L63.4016 74.6206L52.8125 67.8133Z" fill="#F5BE97" stroke="#464555"/>
<mask id="path-5-inside-1_1163_20918" fill="white">
<path fill-rule="evenodd" clip-rule="evenodd" d="M47.6202 49.4654C50.7132 57.0616 55.9787 63.7217 64.3731 63.2738C78.5313 62.5184 82.0216 42.5998 81.7695 32.2628C75.7185 21.4215 59.6836 6.54632 43.9512 33.7755C43.9973 34.375 44.0598 35.0139 44.1398 35.685C43.4039 35.6591 42.6656 35.7777 41.9565 36.0577C38.765 37.3181 37.3751 41.3717 38.8521 45.1118C40.3291 48.8518 44.1137 50.8619 47.3052 49.6015C47.4123 49.5593 47.5173 49.5138 47.6202 49.4654Z"/>
</mask>
<path fill-rule="evenodd" clip-rule="evenodd" d="M47.6202 49.4654C50.7132 57.0616 55.9787 63.7217 64.3731 63.2738C78.5313 62.5184 82.0216 42.5998 81.7695 32.2628C75.7185 21.4215 59.6836 6.54632 43.9512 33.7755C43.9973 34.375 44.0598 35.0139 44.1398 35.685C43.4039 35.6591 42.6656 35.7777 41.9565 36.0577C38.765 37.3181 37.3751 41.3717 38.8521 45.1118C40.3291 48.8518 44.1137 50.8619 47.3052 49.6015C47.4123 49.5593 47.5173 49.5138 47.6202 49.4654Z" fill="#FDD9BF"/>
<path d="M64.3731 63.2738L64.4263 64.2724L64.4263 64.2724L64.3731 63.2738ZM47.6202 49.4654L48.5464 49.0883L48.1487 48.1116L47.1945 48.5606L47.6202 49.4654ZM81.7695 32.2628L82.7692 32.2384L82.7632 31.9913L82.6427 31.7754L81.7695 32.2628ZM43.9512 33.7755L43.0853 33.2752L42.9303 33.5434L42.9541 33.8522L43.9512 33.7755ZM44.1398 35.685L44.1045 36.6844L45.2709 36.7256L45.1327 35.5667L44.1398 35.685ZM41.9565 36.0577L42.3238 36.9878L42.3238 36.9878L41.9565 36.0577ZM47.3052 49.6015L46.9379 48.6714L46.9379 48.6714L47.3052 49.6015ZM64.3198 62.2752C56.6107 62.6865 51.6059 56.6022 48.5464 49.0883L46.6941 49.8425C49.8205 57.521 55.3467 64.7568 64.4263 64.2724L64.3198 62.2752ZM80.7698 32.2872C80.8935 37.3606 80.094 44.7785 77.5499 50.982C75.0018 57.1954 70.8327 61.9277 64.3198 62.2752L64.4263 64.2724C72.0717 63.8645 76.7269 58.2599 79.4004 51.7408C82.078 45.2119 82.8976 37.5019 82.7692 32.2384L80.7698 32.2872ZM44.817 34.2758C48.7002 27.5549 52.5454 23.5342 56.1575 21.3869C59.7412 19.2564 63.1393 18.9414 66.25 19.7133C72.5758 21.2829 77.9162 27.4109 80.8963 32.7501L82.6427 31.7754C79.5718 26.2734 73.8693 19.5432 66.7317 17.7722C63.1107 16.8737 59.1722 17.2679 55.1355 19.6677C51.1271 22.0507 47.0683 26.3815 43.0853 33.2752L44.817 34.2758ZM45.1327 35.5667C45.0543 34.9087 44.9932 34.2837 44.9482 33.6988L42.9541 33.8522C43.0013 34.4663 43.0652 35.1191 43.1468 35.8034L45.1327 35.5667ZM42.3238 36.9878C42.9001 36.7602 43.5009 36.6631 44.1045 36.6844L44.175 34.6857C43.3069 34.655 42.4311 34.7951 41.5892 35.1276L42.3238 36.9878ZM39.7822 44.7445C38.4512 41.3743 39.7788 37.9928 42.3238 36.9878L41.5892 35.1276C37.7511 36.6433 36.2989 41.3692 37.922 45.4791L39.7822 44.7445ZM46.9379 48.6714C44.3929 49.6765 41.1131 48.1146 39.7822 44.7445L37.922 45.4791C39.5451 49.589 43.8344 52.0474 47.6725 50.5316L46.9379 48.6714ZM47.1945 48.5606C47.1107 48.6 47.0252 48.637 46.9379 48.6714L47.6725 50.5316C47.7994 50.4815 47.9239 50.4277 48.046 50.3702L47.1945 48.5606Z" fill="#464555" mask="url(#path-5-inside-1_1163_20918)"/>
<path d="M47.4847 40.5416C46.7284 39.0288 40.6785 37.4866 39.2026 38.3126C39.1122 38.3632 38.2461 36.8945 38.2461 34.8945C40.5152 33.6339 46.7636 30.7486 46.7636 32.2665C46.7636 34.6584 48.2411 42.0543 47.4847 40.5416Z" fill="#0E1F27" stroke="#464555"/>
<path d="M79.5 8.81437C85.7571 12.9215 84.5819 25.9597 83.0691 33.775C79.4156 23.8583 61.2461 25.8954 44.2461 32.8954C42.1625 33.5902 39.7579 34.277 38.2461 34.8954C39.0025 24.3043 38.9515 15.4349 44.2461 10.8967C49.5407 6.3585 71.2461 3.39648 79.5 8.81437Z" fill="#2B456A" stroke="#464555"/>
<path d="M39.1992 28.4852V26.2161C61.5877 17.1404 78.7824 18.9005 84.5812 20.917V23.1869C70.059 17.741 48.2756 24.4513 39.1992 28.4852Z" fill="#DAB028"/>
<circle cx="71.7271" cy="14.8658" r="3.78183" fill="#DAB028"/>
<path d="M81.7461 34.8969C78.6283 23.6342 56.2539 28.3521 44.2461 32.8954C73.2461 15.3967 93.6225 29.8955 93.6225 30.5931C93.6225 33.3965 85.6433 33.5931 81.7461 34.8969Z" fill="#1D3251" stroke="#464555"/>
<path d="M41.4686 77.6466L37.6868 74.6211L27.0977 79.9157L30.8795 84.4539L41.4686 77.6466Z" fill="#0E1F26" stroke="#464555"/>
<mask id="mask0_1163_20918" style="mask-type:alpha" maskUnits="userSpaceOnUse" x="27" y="74" width="15" height="11">
<path d="M41.4686 77.6466L37.6868 74.6211L27.0977 79.9157L30.8795 84.4539L41.4686 77.6466Z" fill="#0E1F26"/>
</mask>
<g mask="url(#mask0_1163_20918)">
<path d="M36.9375 73.8652L36.1811 77.6471L41.4757 79.1598" stroke="#D8B128" stroke-width="1.51273"/>
<path d="M34.3547 74.6254L33.1542 79.1607L40.548 81.4726" stroke="#D8B128" stroke-width="1.51273"/>
<path d="M31.3174 76.1329L30.1268 80.6705L40.2359 83.6031" stroke="#D8B128" stroke-width="1.51273"/>
</g>
<path d="M79.793 77.5959L84.089 75.7156L94.1111 82.0423L89.5947 85.1965L79.793 77.5959Z" fill="#0E1F26" stroke="#464555"/>
<mask id="mask1_1163_20918" style="mask-type:alpha" maskUnits="userSpaceOnUse" x="79" y="75" width="16" height="11">
<path d="M79.793 77.5959L84.089 75.7156L94.1111 82.0423L89.5947 85.1965L79.793 77.5959Z" fill="#0E1F26"/>
</mask>
<g mask="url(#mask1_1163_20918)">
<path d="M84.9727 75.2168L85.1924 78.5348L79.575 78.8744" stroke="#D8B128" stroke-width="1.29275"/>
<path d="M87.4926 76.3091L88.0553 80.34L80.1815 80.9821" stroke="#D8B128" stroke-width="1.29275"/>
<path d="M90.3624 78.1176L90.9146 82.1486L80.1826 82.8343" stroke="#D8B128" stroke-width="1.29275"/>
</g>
<rect width="63" height="28" transform="translate(32.2461 89)" fill="#142A51"/>
<path d="M47.3523 95.4472H37.6731V97.5981H44.7774C44.7567 98.7253 44.674 100.101 44.3327 101.9L46.918 102.148C47.3523 99.8111 47.3523 97.929 47.3523 96.6261V95.4472ZM36.5563 103.513L36.7838 105.623C40.0619 105.612 44.4671 105.54 48.3864 104.816L48.2416 102.913C46.4733 103.172 44.5602 103.317 42.6782 103.399V99.7904H40.0516V103.482C38.8003 103.513 37.6111 103.513 36.5563 103.513ZM39.3277 112.572H52.5434V110.462H41.975V106.905H39.3277V112.572ZM49.255 108.167H51.9643V102.024H54.2393V99.8111H51.9643V94.0822H49.255V108.167ZM70.8883 94.0822H68.2617V112.944H70.8883V94.0822ZM56.1007 97.7843H62.3673V100.825H56.1214V108.539H57.8173C61.2505 108.539 64.0529 108.425 67.1448 107.877L66.9173 105.747C64.1563 106.202 61.7262 106.347 58.8514 106.367V102.913H65.056V95.654H56.1007V97.7843ZM89.1504 94.0822H86.5238V103.617H89.1504V94.0822ZM73.3287 101.59L74.6317 103.658C76.8757 102.986 78.4165 101.548 79.2644 99.718C80.1227 101.393 81.6118 102.707 83.7731 103.327L85.0554 101.3C81.9738 100.411 80.6088 98.2289 80.6294 95.9436V94.4958H77.8787V95.9436C77.8787 98.2806 76.4724 100.649 73.3287 101.59ZM76.5344 106.471H86.5445V107.567H76.5758V112.779H89.6881V110.69H79.161V109.532H89.1711V104.423H76.5344V106.471Z" fill="white"/>
</svg>
