<svg width="120" height="122" viewBox="0 0 120 122" fill="none" xmlns="http://www.w3.org/2000/svg">
<path d="M51.576 5.50134C60.4065 2.03415 66.0037 3.74293 71.1015 5.47842C76.1994 7.2139 77.4336 11.6555 80.6651 15.9923C83.8966 20.3292 84.0275 22.8256 84.9456 30.7885C85.8637 38.7513 83.657 34.8604 84.2853 46.8446C84.9136 58.8287 94.9804 50.2903 97.8153 66.1632C100.65 82.0362 75.8689 85.178 59.9007 96.6189C43.9324 108.06 29.0889 110.826 38.1338 106.375C47.1787 101.925 24.4376 99.0494 24.334 87.5404C24.2748 80.9664 33.7057 71.4238 36.9799 58.8376C39.4378 49.3892 36.1289 37.1844 35.4146 28.9806C33.7489 9.8488 42.7454 8.96853 51.576 5.50134Z" fill="#2A2933"/>
<path d="M23.5233 120.717C18.9013 63.8698 48.3129 65.1918 50.2938 65.8529C65.4812 63.8695 76.5038 61.4173 90.3699 68.0277C101.463 73.316 97.3552 103.984 87.8757 120.717L23.5233 120.717Z" fill="#3068B3" stroke="#464555"/>
<path d="M53.3738 62.804C54.4327 61.2157 53.3738 51.9943 52.712 47.5822C58.6683 46.2585 70.5811 44.4054 70.5811 47.5822C70.5811 51.5531 70.8717 61.8053 72.1953 63.1289C73.2542 64.1878 77.0923 64.9083 78.1953 65.1289C72.4595 72.6295 58.8007 90.6005 56.6829 90.6005C54.5651 90.6005 50.8426 76.0405 48.1953 68.0986C50.1808 67.4368 52.3149 64.3924 53.3738 62.804Z" fill="#FDCFAE" stroke="#464555"/>
<path d="M77.6639 35.3803C77.9715 41.2473 75.6788 45.9445 72.4817 49.2249C69.2724 52.5178 65.1783 54.3566 61.9374 54.5265C58.6965 54.6964 54.4326 53.2958 50.8965 50.3565C47.374 47.4284 44.6027 42.9967 44.2951 37.1297C43.6719 25.2425 50.7521 15.4218 59.8623 14.9441C68.9724 14.4665 77.0407 23.4931 77.6639 35.3803Z" fill="#FDD9BF" stroke="#464555"/>
<ellipse cx="78.3762" cy="35.5302" rx="5.76462" ry="7.49846" transform="rotate(8.94553 78.3762 35.5302)" fill="#FDD9BF"/>
<ellipse cx="43.7841" cy="38.1898" rx="5.76462" ry="7.49846" transform="rotate(-18.001 43.7841 38.1898)" fill="#FDD9BF"/>
<path d="M53.0728 24.075C59.7317 19.7471 62.4734 13.9277 61.9288 11.968C52.9879 5.80948 41.1943 12.7704 36.9144 19.6221C35.499 21.8879 31.7046 37.0832 36.3535 49.3567C41.0024 61.6301 22.782 90.7658 27.1985 84.8847C34.7269 74.8597 49.1076 75.3128 44.9368 58.9632C43.7801 54.4287 40.8726 32.0044 53.0728 24.075Z" fill="#2A2933"/>
<path d="M71.7978 27.7338C69.572 25.7298 60.3554 17.0868 59.5097 13.5966C59.9041 12.6923 68.5939 12.1288 72.3227 12.4635C76.9838 12.8819 76.8079 22.1693 78.3723 26.7264C79.6238 30.3721 78.6479 37.083 77.8476 38.6713C77.5334 32.6795 74.5801 30.2389 71.7978 27.7338Z" fill="#2A2933"/>
<path d="M48.1953 114.568L75.1953 105.73L77.1953 120.73H67.5286H48.1953V114.568Z" fill="#FCCFAE" stroke="#464555" stroke-linecap="round"/>
<path d="M75.1953 101.73L42.1953 111.487V120.73H53.1953C60.5286 116.794 75.1953 108.714 75.1953 107.893V101.73Z" fill="#FDCFAE" stroke="#464555" stroke-linecap="round"/>
</svg>
