<svg width="153" height="154" viewBox="0 0 153 154" fill="none" xmlns="http://www.w3.org/2000/svg">
<path d="M102.71 50.2114C102.71 50.2114 95.9732 47.2406 94.0915 48.2937C93.9762 48.3583 92.4151 46.0443 93.3794 43.4726C96.2725 41.8654 106.568 38.6327 106.568 40.5681C106.568 43.6177 102.71 50.2114 102.71 50.2114Z" fill="#0E1F27"/>
<path d="M59.3115 90.7124C61.5617 89.1051 66.4479 85.6977 67.9908 84.9262C75.7058 83.3832 82.7778 84.2833 85.3495 84.9262C96.6004 91.6768 123.731 105.757 126.817 108.071C129.903 110.385 131.961 138.609 132.603 152.432H17.8438C17.8438 139.895 18.2295 113.857 19.7725 110C21.3155 106.142 46.1319 95.5342 59.3115 90.7124Z" fill="#8BB9F0"/>
<path d="M73.7852 101.321L79.5714 94.5703L86.3219 100.357L82.4645 104.214L91.1438 151.468H73.7852L78.607 105.178L73.7852 101.321Z" fill="#0F2027"/>
<path d="M66.0625 85.8942V69.5L88.2429 70.4644V85.8942L79.5636 94.5735L66.0625 85.8942Z" fill="#F5BE97"/>
<path fill-rule="evenodd" clip-rule="evenodd" d="M59.4431 62.5036C63.3867 72.1882 70.1001 80.6789 80.8023 80.1079C98.8541 79.1448 103.304 53.7486 102.983 40.5689C95.2678 26.7463 74.8233 7.78039 54.7644 42.4976C54.8232 43.2622 54.903 44.0772 55.005 44.9332C54.0672 44.9003 53.1262 45.0515 52.2225 45.4084C48.1533 47.0154 46.3813 52.1838 48.2644 56.9523C50.1476 61.7208 54.973 64.2838 59.0422 62.6768C59.1784 62.623 59.312 62.5652 59.4431 62.5036Z" fill="#FDD9BF"/>
<path d="M59.2675 51.1251C58.3032 49.1963 50.5895 47.23 48.7078 48.2832C48.5925 48.3477 47.4883 46.4751 47.4883 43.9251C50.3814 42.3178 58.3481 38.639 58.3481 40.5744C58.3481 43.624 60.2319 53.0538 59.2675 51.1251Z" fill="#0E1F27"/>
<path d="M100.087 10.672C108.065 15.9086 106.566 32.5323 104.638 42.4968C99.9794 29.853 76.8133 32.4503 55.1383 41.3753C52.4817 42.2612 49.4158 43.1368 47.4883 43.9253C48.4526 30.4217 48.3877 19.1132 55.1383 13.327C61.8889 7.54078 89.5633 3.76421 100.087 10.672Z" fill="#2B456A"/>
<path d="M48.7031 35.7528V32.8597C77.2484 21.2881 99.1717 23.5323 106.565 26.1033V28.9974C88.0493 22.0539 60.2755 30.6095 48.7031 35.7528Z" fill="#DAB028"/>
<circle cx="90.1773" cy="18.3882" r="4.82184" fill="#DAB028"/>
<path d="M102.953 43.9263C98.978 29.5664 70.4506 35.5816 55.1406 41.3743C92.1156 19.0635 118.096 37.5495 118.096 38.4389C118.096 42.0132 107.922 42.2639 102.953 43.9263Z" fill="#1D3251"/>
<path d="M51.5847 98.4317L46.7629 94.5742L33.2617 101.325L38.0836 107.111L51.5847 98.4317Z" fill="#0E1F26" stroke="#464555" stroke-width="1.275"/>
<mask id="mask0_1169_20940" style="mask-type:alpha" maskUnits="userSpaceOnUse" x="33" y="94" width="19" height="14">
<path d="M51.5847 98.4317L46.7629 94.5742L33.2617 101.325L38.0836 107.111L51.5847 98.4317Z" fill="#0E1F26"/>
</mask>
<g mask="url(#mask0_1169_20940)">
<path d="M45.8086 93.6094L44.8442 98.4312L51.5948 100.36" stroke="#D8B128" stroke-width="1.92873"/>
<path d="M42.5185 94.5805L40.9879 100.363L50.415 103.311" stroke="#D8B128" stroke-width="1.92873"/>
<path d="M38.6465 96.4995L37.1285 102.285L50.0176 106.024" stroke="#D8B128" stroke-width="1.92873"/>
</g>
<path d="M100.464 98.3687L105.941 95.9713L118.719 104.038L112.961 108.059L100.464 98.3687Z" fill="#0E1F26" stroke="#464555" stroke-width="1.275"/>
<mask id="mask1_1169_20940" style="mask-type:alpha" maskUnits="userSpaceOnUse" x="100" y="95" width="19" height="14">
<path d="M100.464 98.3687L105.941 95.9713L118.719 104.038L112.961 108.059L100.464 98.3687Z" fill="#0E1F26"/>
</mask>
<g mask="url(#mask1_1169_20940)">
<path d="M107.059 95.334L107.339 99.5644L100.177 99.9974" stroke="#D8B128" stroke-width="1.64826"/>
<path d="M110.272 96.7278L110.989 101.867L100.95 102.686" stroke="#D8B128" stroke-width="1.64826"/>
<path d="M113.93 99.0323L114.634 104.172L100.95 105.046" stroke="#D8B128" stroke-width="1.64826"/>
</g>
<rect width="81.2" height="35" transform="translate(39.8398 112.91)" fill="#142A51"/>
<path d="M59.1018 120.08H46.7609V122.823H55.8188C55.7924 124.26 55.6869 126.013 55.2518 128.308L58.548 128.624C59.1018 125.644 59.1018 123.245 59.1018 121.583V120.08ZM45.3369 130.364L45.627 133.054C49.8066 133.041 55.4232 132.949 60.4203 132.026L60.2357 129.6C57.9811 129.929 55.5419 130.114 53.1423 130.219V125.618H49.7934V130.325C48.198 130.364 46.6818 130.364 45.3369 130.364ZM48.8704 141.914H65.7205V139.225H52.2457V134.689H48.8704V141.914ZM61.5278 136.298H64.9822V128.466H67.8828V125.644H64.9822V118.34H61.5278V136.298ZM89.1102 118.34H85.7613V142.389H89.1102V118.34ZM70.256 123.06H78.246V126.936H70.2824V136.772H72.4447C76.822 136.772 80.3951 136.627 84.3373 135.928L84.0472 133.212C80.5269 133.792 77.4285 133.977 73.7632 134.003V129.6H81.674V120.344H70.256V123.06ZM112.394 118.34H109.045V130.496H112.394V118.34ZM92.2218 127.912L93.883 130.549C96.7441 129.692 98.7086 127.859 99.7898 125.526C100.884 127.662 102.783 129.336 105.538 130.127L107.173 127.543C103.244 126.409 101.504 123.627 101.53 120.713V118.867H98.023V120.713C98.023 123.693 96.2299 126.712 92.2218 127.912ZM96.309 134.135H109.072V135.533H96.3618V142.178H113.08V139.515H99.6579V138.038H112.421V131.525H96.309V134.135Z" fill="white"/>
<rect x="15.9375" y="151.16" width="121.125" height="2.55" fill="#F4F4F4"/>
</svg>
