<svg width="121" height="121" viewBox="0 0 121 121" fill="none" xmlns="http://www.w3.org/2000/svg">
<path d="M24.015 76.3709C28.8327 73.1978 46.096 69.0391 54.1255 67.3564C77.7837 65.1929 96.2801 70.6016 101.872 75.2892C106.346 79.0392 112.339 106.66 114.777 120.001H6.37891C10.2502 106.78 19.1974 79.5441 24.015 76.3709Z" fill="#D3D3D3" stroke="#464555"/>
<path d="M44.9341 86.5064C44.9341 86.5064 43.9178 73.6165 48.4259 69.7959C52.9339 65.9752 76.3532 65.8026 77.5827 69.7954L82.8819 86.5064L62.6984 76.8183L44.9341 86.5064Z" fill="white" stroke="#464555"/>
<path d="M52.6121 70.0495C54.0427 68.598 54.5607 49.3915 54.203 46.6699L69.0812 47.2011L71.2108 68.9868C74.9249 74.2986 70.9365 75.8927 62.1711 75.8927C59.1302 75.8927 47.2657 75.4738 52.6121 70.0495Z" fill="#FCCFAE" stroke="#464555"/>
<path d="M46.4952 39.1444C47.1631 41.5275 47.3094 43.7881 47.026 45.5071C46.7353 47.2704 46.0357 48.2731 45.1965 48.5083C44.3573 48.7435 43.2384 48.2504 42.0737 46.895C40.9383 45.5736 39.8885 43.5663 39.2206 41.1832C38.5527 38.8001 38.4064 36.5395 38.6898 34.8205C38.9805 33.0573 39.6801 32.0545 40.5193 31.8193C41.3585 31.5841 42.4774 32.0772 43.642 33.4326C44.7775 34.754 45.8273 36.7613 46.4952 39.1444Z" fill="#FDD9BF" stroke="#464555"/>
<path d="M83.4056 38.7921C83.1621 41.25 82.4416 43.4007 81.4973 44.8903C80.5356 46.4072 79.4375 47.1074 78.458 47.0104C77.4785 46.9134 76.5391 46.0113 75.8937 44.3352C75.26 42.6893 74.9755 40.439 75.219 37.9812C75.4625 35.5233 76.1829 33.3726 77.1273 31.883C78.089 30.3661 79.1871 29.6659 80.1666 29.7629C81.146 29.8599 82.0854 30.762 82.7308 32.4381C83.3646 34.084 83.6491 36.3343 83.4056 38.7921Z" fill="#E9BB9A" stroke="#464555"/>
<path d="M79.2067 37.6437C79.2067 44.148 77.2142 50.0176 74.0163 54.25C70.8187 58.4822 66.4383 61.0549 61.6405 61.0549C56.8427 61.0549 52.4623 58.4822 49.2646 54.25C46.0668 50.0176 44.0742 44.148 44.0742 37.6437C44.0742 31.1393 46.0668 25.2698 49.2646 21.0373C52.4623 16.8051 56.8427 14.2324 61.6405 14.2324C66.4383 14.2324 70.8187 16.8051 74.0163 21.0373C77.2142 25.2698 79.2067 31.1393 79.2067 37.6437Z" fill="#FDD9BF" stroke="#464555"/>
<path d="M64.0929 28.0249C64.3139 10.6136 60.2772 13.843 58.6625 15.4577C57.0478 15.4577 55.3307 15.7494 55.3307 17.2473C54.8798 21.741 56.6834 27.778 55.3307 30.7193C53.978 33.6607 46.7369 34.1536 44.7079 34.5621C44.1442 37.8303 44.4136 45.7856 43.8725 42.8442C43.1962 39.1675 39.4996 36.2952 37.1324 31.3929C34.7651 26.4907 36.779 15.0267 41.5135 8.49036C45.3011 3.2613 53.0496 5.01242 54.1769 7.1912C54.1769 5.96564 55.0983 2.86636 67.5433 2.53955C83.0995 2.13103 84.311 30.3608 84.9873 32.4034C85.4121 33.6863 82.3738 39.7288 79.6535 40.4854C78.9087 40.6925 79.3792 34.8632 78.8461 34.834C76.7043 34.834 63.9993 35.4014 64.0929 28.0249Z" fill="#2A2933"/>
</svg>
