<svg width="153" height="154" viewBox="0 0 153 154" fill="none" xmlns="http://www.w3.org/2000/svg">
<path d="M103.987 51.4907C103.987 51.4907 97.2505 48.5199 95.3688 49.573C95.2535 49.6376 93.6924 47.3236 94.6568 44.7519C97.5499 43.1447 107.845 39.912 107.845 41.8474C107.845 44.897 103.987 51.4907 103.987 51.4907Z" fill="#0E1F27"/>
<path d="M60.5889 91.9917C62.8391 90.3844 67.7252 86.977 69.2682 86.2055C76.9831 84.6625 84.0552 85.5626 86.6268 86.2055C97.8778 92.956 125.009 107.036 128.095 109.35C131.181 111.665 133.238 139.889 133.881 153.711H19.1211C19.1211 141.174 19.5068 115.136 21.0498 111.279C22.5928 107.422 47.4092 96.8135 60.5889 91.9917Z" fill="#8BB9F0"/>
<path d="M75.0664 102.6L80.8526 95.8496L87.6032 101.636L83.7457 105.493L92.425 152.747H75.0664L79.8882 106.458L75.0664 102.6Z" fill="#0F2027"/>
<path d="M67.3398 87.1735V70.7793L89.5203 71.7437V87.1735L80.841 95.8528L67.3398 87.1735Z" fill="#F5BE97"/>
<path fill-rule="evenodd" clip-rule="evenodd" d="M60.7204 63.7828C64.664 73.4675 71.3774 81.9582 82.0797 81.3872C100.131 80.4241 104.582 55.0279 104.26 41.8482C96.5452 28.0256 76.1006 9.05969 56.0418 43.7769C56.1006 44.5415 56.1803 45.3565 56.2824 46.2125C55.3446 46.1796 54.4036 46.3308 53.4999 46.6877C49.4307 48.2947 47.6586 53.4631 49.5418 58.2316C51.425 63.0001 56.2503 65.5631 60.3195 63.9561C60.4557 63.9023 60.5894 63.8445 60.7204 63.7828Z" fill="#FDD9BF"/>
<path d="M60.5449 52.4044C59.5805 50.4756 51.8669 48.5093 49.9852 49.5624C49.8699 49.627 48.7656 47.7544 48.7656 45.2044C51.6587 43.5971 59.6254 39.9183 59.6254 41.8537C59.6254 44.9033 61.5092 54.3331 60.5449 52.4044Z" fill="#0E1F27"/>
<path d="M101.364 11.9513C109.342 17.1879 107.844 33.8116 105.915 43.7761C101.257 31.1323 78.0906 33.7296 56.4156 42.6546C53.7591 43.5405 50.6931 44.4161 48.7656 45.2046C49.73 31.701 49.6651 20.3925 56.4156 14.6063C63.1662 8.82007 90.8406 5.04351 101.364 11.9513Z" fill="#2B456A"/>
<path d="M49.9805 37.0321V34.139C78.5257 22.5674 100.449 24.8116 107.842 27.3826V30.2767C89.3266 23.3332 61.5529 31.8888 49.9805 37.0321Z" fill="#DAB028"/>
<circle cx="91.4547" cy="19.6675" r="4.82184" fill="#DAB028"/>
<path d="M104.234 45.2056C100.259 30.8457 71.7318 36.8609 56.4219 42.6536C93.3969 20.3428 119.377 38.8288 119.377 39.7182C119.377 43.2925 109.203 43.5432 104.234 45.2056Z" fill="#1D3251"/>
<path d="M52.8659 99.711L48.0441 95.8535L34.543 102.604L39.3648 108.39L52.8659 99.711Z" fill="#0E1F26" stroke="#464555" stroke-width="1.275"/>
<mask id="mask0_1169_20940" style="mask-type:alpha" maskUnits="userSpaceOnUse" x="34" y="95" width="19" height="14">
<path d="M52.8659 99.711L48.0441 95.8535L34.543 102.604L39.3648 108.39L52.8659 99.711Z" fill="#0E1F26"/>
</mask>
<g mask="url(#mask0_1169_20940)">
<path d="M47.0898 94.8887L46.1255 99.7105L52.876 101.639" stroke="#D8B128" stroke-width="1.92873"/>
<path d="M43.7997 95.8598L42.2691 101.642L51.6962 104.59" stroke="#D8B128" stroke-width="1.92873"/>
<path d="M39.9278 97.7788L38.4097 103.564L51.2988 107.303" stroke="#D8B128" stroke-width="1.92873"/>
</g>
<path d="M101.741 99.648L107.218 97.2506L119.997 105.317L114.238 109.339L101.741 99.648Z" fill="#0E1F26" stroke="#464555" stroke-width="1.275"/>
<mask id="mask1_1169_20940" style="mask-type:alpha" maskUnits="userSpaceOnUse" x="101" y="97" width="19" height="13">
<path d="M101.741 99.648L107.218 97.2506L119.997 105.317L114.238 109.339L101.741 99.648Z" fill="#0E1F26"/>
</mask>
<g mask="url(#mask1_1169_20940)">
<path d="M108.336 96.6133L108.616 100.844L101.454 101.277" stroke="#D8B128" stroke-width="1.64826"/>
<path d="M111.549 98.0071L112.267 103.146L102.228 103.965" stroke="#D8B128" stroke-width="1.64826"/>
<path d="M115.207 100.312L115.911 105.451L102.228 106.325" stroke="#D8B128" stroke-width="1.64826"/>
</g>
<rect width="81.2" height="35" transform="translate(41.1211 114.189)" fill="#142A51"/>
<path d="M60.383 121.36H48.0421V124.102H57.1C57.0737 125.539 56.9682 127.293 56.5331 129.587L59.8293 129.903C60.383 126.924 60.383 124.524 60.383 122.863V121.36ZM46.6182 131.644L46.9083 134.333C51.0878 134.32 56.7045 134.228 61.7015 133.305L61.5169 130.879C59.2623 131.209 56.8232 131.393 54.4235 131.499V126.897H51.0746V131.604C49.4793 131.644 47.963 131.644 46.6182 131.644ZM50.1517 143.194H67.0018V140.504H53.527V135.968H50.1517V143.194ZM62.809 137.577H66.2634V129.745H69.164V126.924H66.2634V119.619H62.809V137.577ZM90.3914 119.619H87.0425V143.668H90.3914V119.619ZM71.5373 124.339H79.5272V128.216H71.5637V138.051H73.726C78.1033 138.051 81.6763 137.906 85.6186 137.208L85.3285 134.492C81.8082 135.072 78.7098 135.256 75.0444 135.283V130.879H82.9552V121.623H71.5373V124.339ZM113.676 119.619H110.327V131.776H113.676V119.619ZM93.503 129.191L95.1643 131.828C98.0254 130.971 99.9899 129.139 101.071 126.805C102.165 128.941 104.064 130.615 106.82 131.406L108.454 128.822C104.525 127.688 102.785 124.906 102.811 121.993V120.147H99.3043V121.993C99.3043 124.972 97.5112 127.992 93.503 129.191ZM97.5903 135.415H110.353V136.812H97.643V143.457H114.361V140.794H100.939V139.317H113.702V132.804H97.5903V135.415Z" fill="white"/>
</svg>
