<svg width="358" height="301" viewBox="0 0 358 301" fill="none" xmlns="http://www.w3.org/2000/svg">
<g clip-path="url(#clip0_410_4841)">
<rect width="358" height="301" rx="12" fill="white"/>
<rect x="117.498" y="288.758" width="123.005" height="4.58974" rx="2.29487" fill="black"/>
<rect width="358" height="36.7179" transform="translate(0 71.6003)" fill="#3D9DFF" fill-opacity="0.1"/>
<path d="M23.4035 96.9438H29.6768V95.7579H27.3672V85.5053H26.2749C25.6663 85.8798 24.9328 86.1451 23.9029 86.3168V87.2375H25.9472V95.7579H23.4035V96.9438ZM41.1105 84.0384V94.2598H42.4057V84.0384H41.1105ZM42.0156 88.2362V89.3129H44.4968V88.2362H42.0156ZM32.1063 90.7018V91.7785H33.1987C36.1636 91.7785 37.8334 91.6849 39.7684 91.2792L39.628 90.2336C37.7398 90.6238 36.1012 90.7018 33.1987 90.7018H32.1063ZM32.1063 85.2556V91.2792H33.3859V86.3324H38.3328V85.2556H32.1063ZM33.62 96.7878V97.8489H43.0455V96.7878H33.62ZM33.62 93.2454V97.2716H34.9152V93.2454H33.62ZM51.2838 87.9709V89.0164H54.4204V87.9709H51.2838ZM51.1746 91.5133V92.5588H54.3892V91.5133H51.1746ZM56.5583 84.054V98.161H57.8067V84.054H56.5583ZM53.7338 84.4129V97.4432H54.951V84.4129H53.7338ZM50.5816 85.833V86.0671C50.5816 89.391 49.0991 92.1999 45.8064 94.1973L46.5554 95.118C50.3475 92.8553 51.83 89.5314 51.83 85.833H50.5816ZM46.4306 85.833V86.8941H51.0965V85.833H46.4306Z" fill="#505967"/>
<path d="M276.104 96.9438H282.673V95.4614H280.426V85.4585H279.069C278.398 85.8642 277.649 86.1451 276.556 86.3324V87.4715H278.632V95.4614H276.104V96.9438ZM284.894 100.08C286.517 99.4719 287.469 98.2079 287.469 96.5537C287.469 95.3521 286.954 94.6343 286.08 94.6343C285.394 94.6343 284.816 95.0712 284.816 95.7891C284.816 96.5225 285.394 96.9438 286.033 96.9438C286.33 96.9438 286.611 96.8502 286.829 96.6161L286.08 95.4458L286.205 96.8814C286.205 97.8177 285.581 98.6136 284.504 99.0661L284.894 100.08ZM293.116 97.1623C294.973 97.1623 296.549 95.6642 296.549 93.3859C296.549 90.9515 295.238 89.7811 293.303 89.7811C292.445 89.7811 291.384 90.3117 290.713 91.2168L290.791 92.5276C291.477 91.4821 292.304 91.0763 292.991 91.0763C294.208 91.0763 294.879 91.9034 294.879 93.3859C294.879 94.8684 294.099 95.7735 293.1 95.7735C291.696 95.7735 290.822 94.3846 290.822 91.4196C290.822 87.9085 292.055 86.7225 293.584 86.7225C294.255 86.7225 294.957 87.0814 295.378 87.5808L296.362 86.4884C295.706 85.7862 294.77 85.2556 293.49 85.2556C291.212 85.2556 289.152 87.019 289.152 91.4196C289.152 95.3209 290.931 97.1623 293.116 97.1623ZM301.672 97.1623C303.919 97.1623 305.386 95.1493 305.386 91.1543C305.386 87.1906 303.919 85.2556 301.672 85.2556C299.409 85.2556 297.958 87.1906 297.958 91.1543C297.958 95.1493 299.409 97.1623 301.672 97.1623ZM301.672 95.7266C300.502 95.7266 299.675 94.4782 299.675 91.1543C299.675 87.8773 300.502 86.6601 301.672 86.6601C302.843 86.6601 303.654 87.8773 303.654 91.1543C303.654 94.4782 302.843 95.7266 301.672 95.7266ZM310.572 97.1623C312.819 97.1623 314.286 95.1493 314.286 91.1543C314.286 87.1906 312.819 85.2556 310.572 85.2556C308.309 85.2556 306.858 87.1906 306.858 91.1543C306.858 95.1493 308.309 97.1623 310.572 97.1623ZM310.572 95.7266C309.402 95.7266 308.575 94.4782 308.575 91.1543C308.575 87.8773 309.402 86.6601 310.572 86.6601C311.742 86.6601 312.554 87.8773 312.554 91.1543C312.554 94.4782 311.742 95.7266 310.572 95.7266ZM319.628 91.2168V94.369H321.266V91.2168H319.628ZM325.917 83.976V94.8059H327.555V83.976H325.917ZM317.584 96.6317V97.9582H327.883V96.6317H317.584ZM317.584 93.7604V96.9907H319.222V93.7604H317.584ZM315.883 91.7629C318.458 91.7629 321.859 91.7005 324.918 91.2012L324.809 90.0152C321.797 90.4053 318.286 90.4365 315.664 90.4365L315.883 91.7629ZM323.108 92.3403V93.4951H326.307V92.3403H323.108ZM320.283 84.5222C318.192 84.5222 316.757 85.5209 316.757 87.0346C316.757 88.5483 318.192 89.5314 320.283 89.5314C322.359 89.5314 323.81 88.5483 323.81 87.0346C323.81 85.5209 322.359 84.5222 320.283 84.5222ZM320.283 85.7238C321.438 85.7238 322.25 86.2075 322.25 87.0346C322.25 87.8461 321.438 88.3298 320.283 88.3298C319.113 88.3298 318.301 87.8461 318.301 87.0346C318.301 86.2075 319.113 85.7238 320.283 85.7238Z" fill="#353D4A"/>
<rect width="358" height="36.7179" transform="translate(0 108.318)" fill="white"/>
<path d="M22.7169 133.661H29.8953V132.444H26.7274C26.15 132.444 25.4634 132.491 24.8548 132.553C27.5545 130.009 29.3491 127.684 29.3491 125.39C29.3491 123.346 28.0695 122.019 26.0252 122.019C24.5739 122.019 23.5752 122.69 22.6389 123.705L23.4659 124.501C24.1058 123.752 24.9172 123.174 25.8535 123.174C27.2736 123.174 27.9446 124.142 27.9446 125.453C27.9446 127.403 26.3061 129.697 22.7169 132.834V133.661ZM41.1105 120.755V130.977H42.4057V120.755H41.1105ZM42.0156 124.953V126.03H44.4968V124.953H42.0156ZM32.1063 127.419V128.496H33.1987C36.1636 128.496 37.8334 128.402 39.7684 127.996L39.628 126.951C37.7398 127.341 36.1012 127.419 33.1987 127.419H32.1063ZM32.1063 121.973V127.996H33.3859V123.049H38.3328V121.973H32.1063ZM33.62 133.505V134.566H43.0455V133.505H33.62ZM33.62 129.962V133.989H34.9152V129.962H33.62ZM51.2838 124.688V125.733H54.4204V124.688H51.2838ZM51.1746 128.23V129.276H54.3892V128.23H51.1746ZM56.5583 120.771V134.878H57.8067V120.771H56.5583ZM53.7338 121.13V134.16H54.951V121.13H53.7338ZM50.5816 122.55V122.784C50.5816 126.108 49.0991 128.917 45.8064 130.914L46.5554 131.835C50.3475 129.572 51.83 126.248 51.83 122.55H50.5816ZM46.4306 122.55V123.611H51.0965V122.55H46.4306Z" fill="#505967"/>
<path d="M278.944 133.879C281.066 133.879 282.798 132.662 282.798 130.587C282.798 129.026 281.753 128.043 280.426 127.7V127.622C281.643 127.169 282.408 126.248 282.408 124.922C282.408 123.034 280.957 121.973 278.897 121.973C277.57 121.973 276.509 122.534 275.589 123.346L276.541 124.485C277.196 123.83 277.945 123.408 278.819 123.408C279.927 123.408 280.582 124.048 280.582 125.062C280.582 126.217 279.833 127.06 277.586 127.06V128.402C280.161 128.402 280.972 129.213 280.972 130.493C280.972 131.679 280.083 132.397 278.803 132.397C277.602 132.397 276.759 131.819 276.088 131.133L275.199 132.288C275.979 133.162 277.149 133.879 278.944 133.879ZM284.894 136.798C286.517 136.189 287.469 134.925 287.469 133.271C287.469 132.069 286.954 131.351 286.08 131.351C285.394 131.351 284.816 131.788 284.816 132.506C284.816 133.24 285.394 133.661 286.033 133.661C286.33 133.661 286.611 133.567 286.829 133.333L286.08 132.163L286.205 133.598C286.205 134.535 285.581 135.331 284.504 135.783L284.894 136.798ZM292.772 133.879C295.02 133.879 296.486 131.866 296.486 127.871C296.486 123.908 295.02 121.973 292.772 121.973C290.51 121.973 289.058 123.908 289.058 127.871C289.058 131.866 290.51 133.879 292.772 133.879ZM292.772 132.444C291.602 132.444 290.775 131.195 290.775 127.871C290.775 124.594 291.602 123.377 292.772 123.377C293.943 123.377 294.754 124.594 294.754 127.871C294.754 131.195 293.943 132.444 292.772 132.444ZM301.672 133.879C303.919 133.879 305.386 131.866 305.386 127.871C305.386 123.908 303.919 121.973 301.672 121.973C299.409 121.973 297.958 123.908 297.958 127.871C297.958 131.866 299.409 133.879 301.672 133.879ZM301.672 132.444C300.502 132.444 299.675 131.195 299.675 127.871C299.675 124.594 300.502 123.377 301.672 123.377C302.843 123.377 303.654 124.594 303.654 127.871C303.654 131.195 302.843 132.444 301.672 132.444ZM310.572 133.879C312.819 133.879 314.286 131.866 314.286 127.871C314.286 123.908 312.819 121.973 310.572 121.973C308.309 121.973 306.858 123.908 306.858 127.871C306.858 131.866 308.309 133.879 310.572 133.879ZM310.572 132.444C309.402 132.444 308.575 131.195 308.575 127.871C308.575 124.594 309.402 123.377 310.572 123.377C311.742 123.377 312.554 124.594 312.554 127.871C312.554 131.195 311.742 132.444 310.572 132.444ZM319.628 127.934V131.086H321.266V127.934H319.628ZM325.917 120.693V131.523H327.555V120.693H325.917ZM317.584 133.349V134.675H327.883V133.349H317.584ZM317.584 130.477V133.708H319.222V130.477H317.584ZM315.883 128.48C318.458 128.48 321.859 128.418 324.918 127.918L324.809 126.732C321.797 127.122 318.286 127.154 315.664 127.154L315.883 128.48ZM323.108 129.057V130.212H326.307V129.057H323.108ZM320.283 121.239C318.192 121.239 316.757 122.238 316.757 123.752C316.757 125.265 318.192 126.248 320.283 126.248C322.359 126.248 323.81 125.265 323.81 123.752C323.81 122.238 322.359 121.239 320.283 121.239ZM320.283 122.441C321.438 122.441 322.25 122.925 322.25 123.752C322.25 124.563 321.438 125.047 320.283 125.047C319.113 125.047 318.301 124.563 318.301 123.752C318.301 122.925 319.113 122.441 320.283 122.441Z" fill="#353D4A"/>
<rect width="358" height="36.7179" transform="translate(0 145.036)" fill="white"/>
<path d="M26.1344 170.6C28.1787 170.6 29.8172 169.367 29.8172 167.339C29.8172 165.762 28.7249 164.748 27.3828 164.42V164.358C28.6 163.921 29.4115 163 29.4115 161.612C29.4115 159.786 28.007 158.74 26.0876 158.74C24.7768 158.74 23.7624 159.318 22.9042 160.098L23.6688 161.019C24.3086 160.363 25.1201 159.895 26.0408 159.895C27.2268 159.895 27.9602 160.613 27.9602 161.705C27.9602 162.954 27.1644 163.89 24.808 163.89V164.998C27.4453 164.998 28.366 165.903 28.366 167.276C28.366 168.587 27.3984 169.414 26.0408 169.414C24.73 169.414 23.8717 168.79 23.2007 168.088L22.4828 169.024C23.2319 169.851 24.3398 170.6 26.1344 170.6ZM41.1105 157.476V167.698H42.4057V157.476H41.1105ZM42.0156 161.674V162.751H44.4968V161.674H42.0156ZM32.1063 164.14V165.216H33.1987C36.1636 165.216 37.8334 165.123 39.7684 164.717L39.628 163.671C37.7398 164.062 36.1012 164.14 33.1987 164.14H32.1063ZM32.1063 158.693V164.717H33.3859V159.77H38.3328V158.693H32.1063ZM33.62 170.226V171.287H43.0455V170.226H33.62ZM33.62 166.683V170.709H34.9152V166.683H33.62ZM51.2838 161.409V162.454H54.4204V161.409H51.2838ZM51.1746 164.951V165.997H54.3892V164.951H51.1746ZM56.5583 157.492V171.599H57.8067V157.492H56.5583ZM53.7338 157.851V170.881H54.951V157.851H53.7338ZM50.5816 159.271V159.505C50.5816 162.829 49.0991 165.638 45.8064 167.635L46.5554 168.556C50.3475 166.293 51.83 162.969 51.83 159.271H50.5816ZM46.4306 159.271V160.332H51.0965V159.271H46.4306Z" fill="#505967"/>
<path d="M277.773 170.382H279.615C279.818 165.903 280.239 163.359 282.923 159.989V158.896H275.542V160.426H280.941C278.71 163.515 277.976 166.199 277.773 170.382ZM284.894 173.518C286.517 172.91 287.469 171.646 287.469 169.991C287.469 168.79 286.954 168.072 286.08 168.072C285.394 168.072 284.816 168.509 284.816 169.227C284.816 169.96 285.394 170.382 286.033 170.382C286.33 170.382 286.611 170.288 286.829 170.054L286.08 168.883L286.205 170.319C286.205 171.255 285.581 172.051 284.504 172.504L284.894 173.518ZM292.492 170.6C294.614 170.6 296.346 169.383 296.346 167.307C296.346 165.747 295.3 164.764 293.974 164.42V164.342C295.191 163.89 295.956 162.969 295.956 161.643C295.956 159.754 294.505 158.693 292.445 158.693C291.118 158.693 290.057 159.255 289.136 160.067L290.088 161.206C290.744 160.55 291.493 160.129 292.367 160.129C293.475 160.129 294.13 160.769 294.13 161.783C294.13 162.938 293.381 163.781 291.134 163.781V165.123C293.709 165.123 294.52 165.934 294.52 167.214C294.52 168.4 293.631 169.118 292.351 169.118C291.15 169.118 290.307 168.54 289.636 167.854L288.746 169.008C289.527 169.882 290.697 170.6 292.492 170.6ZM301.672 170.6C303.919 170.6 305.386 168.587 305.386 164.592C305.386 160.628 303.919 158.693 301.672 158.693C299.409 158.693 297.958 160.628 297.958 164.592C297.958 168.587 299.409 170.6 301.672 170.6ZM301.672 169.164C300.502 169.164 299.675 167.916 299.675 164.592C299.675 161.315 300.502 160.098 301.672 160.098C302.843 160.098 303.654 161.315 303.654 164.592C303.654 167.916 302.843 169.164 301.672 169.164ZM310.572 170.6C312.819 170.6 314.286 168.587 314.286 164.592C314.286 160.628 312.819 158.693 310.572 158.693C308.309 158.693 306.858 160.628 306.858 164.592C306.858 168.587 308.309 170.6 310.572 170.6ZM310.572 169.164C309.402 169.164 308.575 167.916 308.575 164.592C308.575 161.315 309.402 160.098 310.572 160.098C311.742 160.098 312.554 161.315 312.554 164.592C312.554 167.916 311.742 169.164 310.572 169.164ZM319.628 164.655V167.807H321.266V164.655H319.628ZM325.917 157.414V168.244H327.555V157.414H325.917ZM317.584 170.069V171.396H327.883V170.069H317.584ZM317.584 167.198V170.428H319.222V167.198H317.584ZM315.883 165.201C318.458 165.201 321.859 165.138 324.918 164.639L324.809 163.453C321.797 163.843 318.286 163.874 315.664 163.874L315.883 165.201ZM323.108 165.778V166.933H326.307V165.778H323.108ZM320.283 157.96C318.192 157.96 316.757 158.959 316.757 160.472C316.757 161.986 318.192 162.969 320.283 162.969C322.359 162.969 323.81 161.986 323.81 160.472C323.81 158.959 322.359 157.96 320.283 157.96ZM320.283 159.162C321.438 159.162 322.25 159.645 322.25 160.472C322.25 161.284 321.438 161.768 320.283 161.768C319.113 161.768 318.301 161.284 318.301 160.472C318.301 159.645 319.113 159.162 320.283 159.162Z" fill="#353D4A"/>
<path d="M112.126 252.58H102.659V248.08H100.956V253.96H112.126V252.58ZM99.0916 257.582H105.528V263.355H107.213V257.582H113.793V256.184H99.0916V257.582ZM119.993 250.644V249.944H123.525V248.564H114.668V249.944H118.272V250.644C118.263 252.84 116.721 254.92 114.22 255.771L115.098 257.116C117.008 256.443 118.442 255.063 119.159 253.315C119.894 254.92 121.284 256.184 123.13 256.793L124.009 255.466C121.526 254.678 119.993 252.723 119.993 250.644ZM116.855 263.014H127.846V261.634H118.577V257.923H116.855V263.014ZM125.658 259.034H127.362V247.309H125.658V259.034ZM141.611 247.273H139.908V258.909H141.611V253.351H143.96V251.934H141.611V247.273ZM129.707 256.13H130.98C134.422 256.13 136.322 256.022 138.492 255.592L138.295 254.211C136.278 254.624 134.521 254.722 131.392 254.713V250.034H136.878V248.653H129.707V256.13ZM131.428 263.014H142.293V261.634H133.131V257.707H131.428V263.014ZM157.744 247.291H156.13V263.355H157.744V247.291ZM143.849 258.711L144.853 259.931C147.883 258.129 149.595 255.78 150.375 253.082H152.849V255.699H150.106V257.098H152.849V262.566H154.463V247.703H152.849V251.683H150.689C150.814 250.904 150.877 250.106 150.877 249.281H144.638V250.679H149.192C148.896 253.987 147.264 256.686 143.849 258.711ZM223.352 247.291H221.649V255.915H223.352V247.291ZM210.354 251.755C210.362 253.951 212.173 255.484 214.638 255.466C217.095 255.484 218.905 253.951 218.905 251.755C218.905 249.55 217.095 248.017 214.638 248.026C212.173 248.017 210.362 249.55 210.354 251.755ZM212.021 251.755C212.012 250.384 213.115 249.451 214.638 249.46C216.144 249.451 217.238 250.384 217.238 251.755C217.238 253.145 216.144 254.068 214.638 254.068C213.115 254.068 212.012 253.145 212.021 251.755ZM212.846 263.158H223.352V256.686H221.667V258.496H214.513V256.686H212.846V263.158ZM214.513 261.759V259.841H221.667V261.759H214.513ZM238.319 247.291H236.615V263.355H238.319V247.291ZM225.966 259.267H227.31C229.847 259.276 232.429 259.079 235.271 258.496L235.038 257.062C232.465 257.582 230 257.788 227.651 257.797V248.851H225.966V259.267ZM252.443 247.291H250.74V263.391H252.443V254.911H255.025V253.512H252.443V247.291ZM240.61 259.393H241.901C244.886 259.402 247.019 259.321 249.538 258.873L249.323 257.439C247.028 257.851 245.011 257.967 242.313 257.976V250.213H248.122V248.833H240.61V259.393ZM256.706 261.957C257.397 261.948 257.97 261.383 257.979 260.684C257.97 259.984 257.397 259.411 256.706 259.411C256.007 259.411 255.424 259.984 255.433 260.684C255.424 261.383 256.007 261.948 256.706 261.957Z" fill="#232323"/>
<path d="M162.541 253.799H164.549L165.5 248.851H163.976L162.541 253.799ZM171.341 248.851H169.404L166.177 250.966V252.849L169.279 250.823H169.351V261.831H171.341V248.851ZM185.788 247.273H184.084V258.909H185.788V253.351H188.136V251.934H185.788V247.273ZM173.883 256.13H175.156C178.598 256.13 180.499 256.022 182.668 255.592L182.471 254.211C180.454 254.624 178.697 254.722 175.568 254.713V250.034H181.054V248.653H173.883V256.13ZM175.604 263.014H186.469V261.634H177.307V257.707H175.604V263.014ZM201.92 247.291H200.306V263.355H201.92V247.291ZM188.025 258.711L189.029 259.931C192.059 258.129 193.771 255.78 194.551 253.082H197.025V255.699H194.282V257.098H197.025V262.566H198.639V247.703H197.025V251.683H194.865C194.99 250.904 195.053 250.106 195.053 249.281H188.814V250.679H193.368C193.072 253.987 191.441 256.686 188.025 258.711ZM206.112 248.869H204.104L203.153 253.817H204.677L206.112 248.869Z" fill="#3D9DFF"/>
<rect x="23.8638" y="22.0303" width="79.6872" height="29.6718" rx="3.6718" fill="#3D9DFF" fill-opacity="0.1"/>
<path d="M40.8962 35.177H34.4454V32.1148H32.839V36.4571H40.8962V35.177ZM31.5464 39.0675H35.9138V43.0208H37.5202V39.0675H42.0006V37.7623H31.5464V39.0675ZM46.1905 33.8593V33.6961H48.4872V32.416H42.2121V33.6961H44.559V33.8593C44.559 35.3025 43.6868 36.7897 41.7854 37.3984L42.6138 38.6534C43.9566 38.2079 44.8853 37.3105 45.4061 36.181C45.9207 37.2101 46.818 38.0322 48.0981 38.44L48.9139 37.185C47.0377 36.614 46.1843 35.2209 46.1905 33.8593ZM43.6429 42.82H51.5996V41.5399H45.2618V39.1177H43.6429V42.82ZM49.692 39.8707H51.2984V31.6128H49.692V39.8707ZM55.5887 34.4742V32.5792H54.0325V34.5495C54.0325 36.4822 53.405 38.4965 51.7108 39.5444L52.6897 40.7242C53.7251 40.0966 54.409 39.0111 54.8169 37.7184C55.1809 38.8856 55.8021 39.877 56.7936 40.4732L57.6595 39.2307C56.097 38.233 55.5825 36.3253 55.5887 34.4742ZM56.4547 36.7583H57.9356V42.4937H59.4291V31.7634H57.9356V35.4531H56.4547V36.7583ZM60.295 43.0208H61.8261V31.6002H60.295V43.0208ZM74.0589 31.6002H72.5529V43.0208H74.0589V31.6002ZM63.9812 39.5193L64.9224 40.6489C67.0559 39.3813 68.2231 37.7937 68.7565 35.9049H70.1558V37.4611H68.5368V38.7538H70.1558V42.5188H71.6744V31.8512H70.1558V34.6123H69.02C69.089 34.0789 69.1267 33.5267 69.1267 32.9557H64.6463V34.2483H67.5328C67.3132 36.4885 66.2967 38.1514 63.9812 39.5193ZM78.5626 33.5581V32.303H76.9562V33.5455C76.9436 35.1017 76.109 36.6328 74.1575 37.2352L75.0485 38.5028C76.3663 38.051 77.2762 37.1537 77.7845 36.0116C78.2802 37.0533 79.1461 37.869 80.3949 38.2894L81.2357 37.0344C79.3846 36.4383 78.5563 35.0201 78.5626 33.5581ZM75.9898 42.82H83.8336V41.5399H77.6213V39.1428H75.9898V42.82ZM81.8005 39.9711H83.4069V36.2563H84.9506V34.9009H83.4069V31.6002H81.8005V39.9711ZM86.6305 32.1775H85.0241V37.5239H90.4583V35.5159H92.5667V37.8502H94.1605V31.6002H92.5667V34.2107H90.4583V32.1775H88.8769V33.6459H86.6305V32.1775ZM86.5426 42.8702H94.1605V38.3271H92.5667V39.3813H88.1239V38.3271H86.5426V42.8702ZM86.6305 36.2438V34.8758H88.8769V36.2438H86.6305ZM88.1239 41.5901V40.6112H92.5667V41.5901H88.1239Z" fill="#3D9DFF"/>
</g>
<defs>
<clipPath id="clip0_410_4841">
<rect width="358" height="301" rx="12" fill="white"/>
</clipPath>
</defs>
</svg>
