<svg width="359" height="261" viewBox="0 0 359 261" fill="none" xmlns="http://www.w3.org/2000/svg">
<rect x="0.972656" width="358" height="260.826" rx="20" fill="white"/>
<rect x="20.9727" y="22" width="79.6872" height="29.6718" rx="3.6718" fill="#FFF9D8"/>
<path d="M38.0051 35.1467H31.5543V32.0845H29.9479V36.4269H38.0051V35.1467ZM28.6553 39.0373H33.0227V42.9905H34.6291V39.0373H39.1095V37.7321H28.6553V39.0373ZM43.2994 33.829V33.6658H45.5961V32.3857H39.321V33.6658H41.6679V33.829C41.6679 35.2722 40.7957 36.7594 38.8943 37.3681L39.7226 38.6231C41.0655 38.1776 41.9942 37.2803 42.515 36.1508C43.0296 37.1799 43.9269 38.0019 45.207 38.4098L46.0228 37.1548C44.1465 36.5837 43.2931 35.1907 43.2994 33.829ZM40.7517 42.7897H48.7085V41.5096H42.3707V39.0875H40.7517V42.7897ZM46.8009 39.8405H48.4073V31.5825H46.8009V39.8405ZM52.6976 34.4439V32.5489H51.1414V34.5192C51.1414 36.452 50.5139 38.4662 48.8197 39.5142L49.7986 40.6939C50.8339 40.0664 51.5179 38.9808 51.9258 37.6881C52.2898 38.8553 52.911 39.8467 53.9024 40.4429L54.7684 39.2004C53.2059 38.2027 52.6914 36.2951 52.6976 34.4439ZM53.5636 36.7281H55.0445V42.4634H56.538V31.7331H55.0445V35.4228H53.5636V36.7281ZM57.4039 42.9905H58.935V31.57H57.4039V42.9905ZM71.1678 31.57H69.6618V42.9905H71.1678V31.57ZM61.0901 39.4891L62.0313 40.6186C64.1648 39.351 65.332 37.7634 65.8654 35.8746H67.2647V37.4309H65.6457V38.7235H67.2647V42.4885H68.7833V31.821H67.2647V34.582H66.1289C66.1979 34.0486 66.2356 33.4964 66.2356 32.9254H61.7552V34.218H64.6417C64.4221 36.4582 63.4055 38.1211 61.0901 39.4891ZM75.6715 33.5278V32.2728H74.065V33.5152C74.0525 35.0714 73.2179 36.6026 71.2664 37.205L72.1574 38.4725C73.4752 38.0207 74.3851 37.1234 74.8933 35.9813C75.3891 37.023 76.255 37.8387 77.5038 38.2592L78.3446 37.0042C76.4935 36.408 75.6652 34.9899 75.6715 33.5278ZM73.0987 42.7897H80.9425V41.5096H74.7302V39.1126H73.0987V42.7897ZM78.9094 39.9409H80.5158V36.2261H82.0594V34.8706H80.5158V31.57H78.9094V39.9409ZM83.7394 32.1473H82.133V37.4936H87.5671V35.4856H89.6756V37.8199H91.2694V31.57H89.6756V34.1804H87.5671V32.1473H85.9858V33.6156H83.7394V32.1473ZM83.6515 42.8399H91.2694V38.2968H89.6756V39.351H85.2328V38.2968H83.6515V42.8399ZM83.7394 36.2135V34.8455H85.9858V36.2135H83.7394ZM85.2328 41.5598V40.5809H89.6756V41.5598H85.2328Z" fill="#FF8E3D"/>
<rect width="358" height="36.7179" transform="translate(0.972656 71.6719)" fill="#F2F2F2"/>
<path d="M24.3772 97.0156H30.6504V95.8296H28.3409V85.5771H27.2485C26.6399 85.9516 25.9065 86.2169 24.8765 86.3885V87.3092H26.9208V95.8296H24.3772V97.0156ZM42.0841 84.1102V94.3315H43.3793V84.1102H42.0841ZM42.9892 88.308V89.3847H45.4704V88.308H42.9892ZM33.0799 90.7736V91.8503H34.1723C37.1373 91.8503 38.807 91.7567 40.7421 91.351L40.6016 90.3054C38.7134 90.6955 37.0749 90.7736 34.1723 90.7736H33.0799ZM33.0799 85.3274V91.351H34.3596V86.4041H39.3064V85.3274H33.0799ZM34.5936 96.8596V97.9207H44.0191V96.8596H34.5936ZM34.5936 93.3172V97.3433H35.8889V93.3172H34.5936ZM52.2574 88.0427V89.0882H55.3941V88.0427H52.2574ZM52.1482 91.585V92.6306H55.3629V91.585H52.1482ZM57.532 84.1258V98.2328H58.7804V84.1258H57.532ZM54.7074 84.4847V97.515H55.9246V84.4847H54.7074ZM51.5552 85.9048V86.1388C51.5552 89.4627 50.0727 92.2717 46.78 94.2691L47.5291 95.1898C51.3211 92.9271 52.8036 89.6032 52.8036 85.9048H51.5552ZM47.4042 85.9048V86.9659H52.0702V85.9048H47.4042Z" fill="#464555"/>
<path d="M277.075 97.0156H283.645V95.5331H281.398V85.5302H280.04C279.369 85.936 278.62 86.2169 277.528 86.4041V87.5433H279.603V95.5331H277.075V97.0156ZM285.866 100.152C287.489 99.5437 288.441 98.2796 288.441 96.6255C288.441 95.4239 287.926 94.7061 287.052 94.7061C286.365 94.7061 285.788 95.143 285.788 95.8608C285.788 96.5943 286.365 97.0156 287.005 97.0156C287.302 97.0156 287.582 96.922 287.801 96.6879L287.052 95.5175L287.177 96.9532C287.177 97.8895 286.552 98.6854 285.476 99.1379L285.866 100.152ZM294.087 97.2341C295.944 97.2341 297.521 95.736 297.521 93.4577C297.521 91.0233 296.21 89.8529 294.275 89.8529C293.416 89.8529 292.355 90.3834 291.684 91.2885L291.762 92.5994C292.449 91.5538 293.276 91.1481 293.963 91.1481C295.18 91.1481 295.851 91.9752 295.851 93.4577C295.851 94.9401 295.071 95.8452 294.072 95.8452C292.667 95.8452 291.793 94.4564 291.793 91.4914C291.793 87.9803 293.026 86.7943 294.556 86.7943C295.227 86.7943 295.929 87.1532 296.35 87.6525L297.333 86.5602C296.678 85.858 295.742 85.3274 294.462 85.3274C292.184 85.3274 290.124 87.0908 290.124 91.4914C290.124 95.3927 291.903 97.2341 294.087 97.2341ZM302.644 97.2341C304.891 97.2341 306.358 95.221 306.358 91.2261C306.358 87.2624 304.891 85.3274 302.644 85.3274C300.381 85.3274 298.93 87.2624 298.93 91.2261C298.93 95.221 300.381 97.2341 302.644 97.2341ZM302.644 95.7984C301.474 95.7984 300.646 94.55 300.646 91.2261C300.646 87.949 301.474 86.7318 302.644 86.7318C303.814 86.7318 304.626 87.949 304.626 91.2261C304.626 94.55 303.814 95.7984 302.644 95.7984ZM311.544 97.2341C313.791 97.2341 315.258 95.221 315.258 91.2261C315.258 87.2624 313.791 85.3274 311.544 85.3274C309.281 85.3274 307.83 87.2624 307.83 91.2261C307.83 95.221 309.281 97.2341 311.544 97.2341ZM311.544 95.7984C310.373 95.7984 309.546 94.55 309.546 91.2261C309.546 87.949 310.373 86.7318 311.544 86.7318C312.714 86.7318 313.526 87.949 313.526 91.2261C313.526 94.55 312.714 95.7984 311.544 95.7984ZM320.6 91.2885V94.4408H322.238V91.2885H320.6ZM326.888 84.0478V94.8777H328.527V84.0478H326.888ZM318.555 96.7035V98.03H328.855V96.7035H318.555ZM318.555 93.8322V97.0624H320.194V93.8322H318.555ZM316.854 91.8347C319.429 91.8347 322.831 91.7723 325.89 91.2729L325.78 90.0869C322.769 90.4771 319.258 90.5083 316.636 90.5083L316.854 91.8347ZM324.08 92.4121V93.5669H327.279V92.4121H324.08ZM321.255 84.5939C319.164 84.5939 317.728 85.5927 317.728 87.1064C317.728 88.6201 319.164 89.6032 321.255 89.6032C323.33 89.6032 324.782 88.6201 324.782 87.1064C324.782 85.5927 323.33 84.5939 321.255 84.5939ZM321.255 85.7955C322.41 85.7955 323.221 86.2793 323.221 87.1064C323.221 87.9178 322.41 88.4016 321.255 88.4016C320.085 88.4016 319.273 87.9178 319.273 87.1064C319.273 86.2793 320.085 85.7955 321.255 85.7955Z" fill="#464555"/>
<rect width="358" height="36.7179" transform="translate(0.972656 108.391)" fill="white"/>
<path d="M23.6905 133.734H30.8689V132.517H27.7011C27.1237 132.517 26.437 132.564 25.8284 132.626C28.5281 130.083 30.3227 127.758 30.3227 125.464C30.3227 123.419 29.0431 122.093 26.9988 122.093C25.5475 122.093 24.5488 122.764 23.6125 123.778L24.4396 124.574C25.0794 123.825 25.8909 123.248 26.8272 123.248C28.2472 123.248 28.9183 124.215 28.9183 125.526C28.9183 127.477 27.2797 129.771 23.6905 132.907V133.734ZM42.0841 120.829V131.05H43.3793V120.829H42.0841ZM42.9892 125.027V126.103H45.4704V125.027H42.9892ZM33.0799 127.492V128.569H34.1723C37.1373 128.569 38.807 128.475 40.7421 128.07L40.6016 127.024C38.7134 127.414 37.0749 127.492 34.1723 127.492H33.0799ZM33.0799 122.046V128.07H34.3596V123.123H39.3064V122.046H33.0799ZM34.5936 133.578V134.639H44.0191V133.578H34.5936ZM34.5936 130.036V134.062H35.8889V130.036H34.5936ZM52.2574 124.761V125.807H55.3941V124.761H52.2574ZM52.1482 128.304V129.349H55.3629V128.304H52.1482ZM57.532 120.845V134.952H58.7804V120.845H57.532ZM54.7074 121.203V134.234H55.9246V121.203H54.7074ZM51.5552 122.624V122.858C51.5552 126.181 50.0727 128.99 46.78 130.988L47.5291 131.909C51.3211 129.646 52.8036 126.322 52.8036 122.624H51.5552ZM47.4042 122.624V123.685H52.0702V122.624H47.4042Z" fill="#464555"/>
<path d="M279.915 133.953C282.038 133.953 283.77 132.736 283.77 130.66C283.77 129.1 282.724 128.117 281.398 127.773V127.695C282.615 127.243 283.38 126.322 283.38 124.996C283.38 123.107 281.928 122.046 279.869 122.046C278.542 122.046 277.481 122.608 276.56 123.419L277.512 124.559C278.168 123.903 278.917 123.482 279.791 123.482C280.899 123.482 281.554 124.122 281.554 125.136C281.554 126.291 280.805 127.133 278.558 127.133V128.475C281.133 128.475 281.944 129.287 281.944 130.567C281.944 131.753 281.055 132.47 279.775 132.47C278.573 132.47 277.731 131.893 277.06 131.206L276.17 132.361C276.95 133.235 278.121 133.953 279.915 133.953ZM285.866 136.871C287.489 136.262 288.441 134.998 288.441 133.344C288.441 132.143 287.926 131.425 287.052 131.425C286.365 131.425 285.788 131.862 285.788 132.58C285.788 133.313 286.365 133.734 287.005 133.734C287.302 133.734 287.582 133.641 287.801 133.407L287.052 132.236L287.177 133.672C287.177 134.608 286.552 135.404 285.476 135.857L285.866 136.871ZM293.744 133.953C295.991 133.953 297.458 131.94 297.458 127.945C297.458 123.981 295.991 122.046 293.744 122.046C291.481 122.046 290.03 123.981 290.03 127.945C290.03 131.94 291.481 133.953 293.744 133.953ZM293.744 132.517C292.574 132.517 291.747 131.269 291.747 127.945C291.747 124.668 292.574 123.451 293.744 123.451C294.915 123.451 295.726 124.668 295.726 127.945C295.726 131.269 294.915 132.517 293.744 132.517ZM302.644 133.953C304.891 133.953 306.358 131.94 306.358 127.945C306.358 123.981 304.891 122.046 302.644 122.046C300.381 122.046 298.93 123.981 298.93 127.945C298.93 131.94 300.381 133.953 302.644 133.953ZM302.644 132.517C301.474 132.517 300.646 131.269 300.646 127.945C300.646 124.668 301.474 123.451 302.644 123.451C303.814 123.451 304.626 124.668 304.626 127.945C304.626 131.269 303.814 132.517 302.644 132.517ZM311.544 133.953C313.791 133.953 315.258 131.94 315.258 127.945C315.258 123.981 313.791 122.046 311.544 122.046C309.281 122.046 307.83 123.981 307.83 127.945C307.83 131.94 309.281 133.953 311.544 133.953ZM311.544 132.517C310.373 132.517 309.546 131.269 309.546 127.945C309.546 124.668 310.373 123.451 311.544 123.451C312.714 123.451 313.526 124.668 313.526 127.945C313.526 131.269 312.714 132.517 311.544 132.517ZM320.6 128.007V131.16H322.238V128.007H320.6ZM326.888 120.767V131.596H328.527V120.767H326.888ZM318.555 133.422V134.749H328.855V133.422H318.555ZM318.555 130.551V133.781H320.194V130.551H318.555ZM316.854 128.553C319.429 128.553 322.831 128.491 325.89 127.992L325.78 126.806C322.769 127.196 319.258 127.227 316.636 127.227L316.854 128.553ZM324.08 129.131V130.286H327.279V129.131H324.08ZM321.255 121.313C319.164 121.313 317.728 122.311 317.728 123.825C317.728 125.339 319.164 126.322 321.255 126.322C323.33 126.322 324.782 125.339 324.782 123.825C324.782 122.311 323.33 121.313 321.255 121.313ZM321.255 122.514C322.41 122.514 323.221 122.998 323.221 123.825C323.221 124.637 322.41 125.12 321.255 125.12C320.085 125.12 319.273 124.637 319.273 123.825C319.273 122.998 320.085 122.514 321.255 122.514Z" fill="#464555"/>
<rect width="358" height="36.7179" transform="translate(0.972656 145.109)" fill="white"/>
<path d="M27.1081 170.672C29.1523 170.672 30.7909 169.439 30.7909 167.41C30.7909 165.834 29.6985 164.82 28.3565 164.492V164.43C29.5737 163.993 30.3851 163.072 30.3851 161.683C30.3851 159.857 28.9807 158.812 27.0612 158.812C25.7504 158.812 24.7361 159.389 23.8778 160.169L24.6424 161.09C25.2823 160.435 26.0937 159.966 27.0144 159.966C28.2004 159.966 28.9339 160.684 28.9339 161.777C28.9339 163.025 28.138 163.961 25.7816 163.961V165.069C28.4189 165.069 29.3396 165.974 29.3396 167.348C29.3396 168.659 28.3721 169.486 27.0144 169.486C25.7036 169.486 24.8453 168.861 24.1743 168.159L23.4565 169.095C24.2055 169.923 25.3135 170.672 27.1081 170.672ZM42.0841 157.548V167.769H43.3793V157.548H42.0841ZM42.9892 161.745V162.822H45.4704V161.745H42.9892ZM33.0799 164.211V165.288H34.1723C37.1373 165.288 38.807 165.194 40.7421 164.788L40.6016 163.743C38.7134 164.133 37.0749 164.211 34.1723 164.211H33.0799ZM33.0799 158.765V164.788H34.3596V159.842H39.3064V158.765H33.0799ZM34.5936 170.297V171.358H44.0191V170.297H34.5936ZM34.5936 166.755V170.781H35.8889V166.755H34.5936ZM52.2574 161.48V162.526H55.3941V161.48H52.2574ZM52.1482 165.023V166.068H55.3629V165.023H52.1482ZM57.532 157.563V171.67H58.7804V157.563H57.532ZM54.7074 157.922V170.952H55.9246V157.922H54.7074ZM51.5552 159.342V159.576C51.5552 162.9 50.0727 165.709 46.78 167.707L47.5291 168.627C51.3211 166.365 52.8036 163.041 52.8036 159.342H51.5552ZM47.4042 159.342V160.403H52.0702V159.342H47.4042Z" fill="#464555"/>
<path d="M278.745 170.453H280.586C280.789 165.974 281.211 163.431 283.895 160.06V158.968H276.513V160.497H281.913C279.681 163.587 278.948 166.271 278.745 170.453ZM285.866 173.59C287.489 172.981 288.441 171.717 288.441 170.063C288.441 168.861 287.926 168.144 287.052 168.144C286.365 168.144 285.788 168.581 285.788 169.298C285.788 170.032 286.365 170.453 287.005 170.453C287.302 170.453 287.582 170.359 287.801 170.125L287.052 168.955L287.177 170.391C287.177 171.327 286.552 172.123 285.476 172.575L285.866 173.59ZM293.463 170.672C295.586 170.672 297.318 169.454 297.318 167.379C297.318 165.818 296.272 164.835 294.946 164.492V164.414C296.163 163.961 296.928 163.041 296.928 161.714C296.928 159.826 295.476 158.765 293.416 158.765C292.09 158.765 291.029 159.327 290.108 160.138L291.06 161.277C291.715 160.622 292.465 160.201 293.338 160.201C294.446 160.201 295.102 160.84 295.102 161.855C295.102 163.009 294.353 163.852 292.106 163.852V165.194C294.68 165.194 295.492 166.006 295.492 167.285C295.492 168.471 294.602 169.189 293.323 169.189C292.121 169.189 291.279 168.612 290.607 167.925L289.718 169.08C290.498 169.954 291.669 170.672 293.463 170.672ZM302.644 170.672C304.891 170.672 306.358 168.659 306.358 164.664C306.358 160.7 304.891 158.765 302.644 158.765C300.381 158.765 298.93 160.7 298.93 164.664C298.93 168.659 300.381 170.672 302.644 170.672ZM302.644 169.236C301.474 169.236 300.646 167.988 300.646 164.664C300.646 161.387 301.474 160.169 302.644 160.169C303.814 160.169 304.626 161.387 304.626 164.664C304.626 167.988 303.814 169.236 302.644 169.236ZM311.544 170.672C313.791 170.672 315.258 168.659 315.258 164.664C315.258 160.7 313.791 158.765 311.544 158.765C309.281 158.765 307.83 160.7 307.83 164.664C307.83 168.659 309.281 170.672 311.544 170.672ZM311.544 169.236C310.373 169.236 309.546 167.988 309.546 164.664C309.546 161.387 310.373 160.169 311.544 160.169C312.714 160.169 313.526 161.387 313.526 164.664C313.526 167.988 312.714 169.236 311.544 169.236ZM320.6 164.726V167.878H322.238V164.726H320.6ZM326.888 157.485V168.315H328.527V157.485H326.888ZM318.555 170.141V171.467H328.855V170.141H318.555ZM318.555 167.27V170.5H320.194V167.27H318.555ZM316.854 165.272C319.429 165.272 322.831 165.21 325.89 164.71L325.78 163.524C322.769 163.915 319.258 163.946 316.636 163.946L316.854 165.272ZM324.08 165.85V167.004H327.279V165.85H324.08ZM321.255 158.031C319.164 158.031 317.728 159.03 317.728 160.544C317.728 162.058 319.164 163.041 321.255 163.041C323.33 163.041 324.782 162.058 324.782 160.544C324.782 159.03 323.33 158.031 321.255 158.031ZM321.255 159.233C322.41 159.233 323.221 159.717 323.221 160.544C323.221 161.355 322.41 161.839 321.255 161.839C320.085 161.839 319.273 161.355 319.273 160.544C319.273 159.717 320.085 159.233 321.255 159.233Z" fill="#464555"/>
<path d="M112.598 217.573H103.132V213.073H101.429V218.954H112.598V217.573ZM99.5643 222.575H106.001V228.348H107.686V222.575H114.266V221.177H99.5643V222.575ZM120.466 215.637V214.937H123.998V213.557H115.141V214.937H118.744V215.637C118.735 217.833 117.194 219.913 114.693 220.764L115.571 222.109C117.48 221.437 118.915 220.056 119.632 218.308C120.367 219.913 121.756 221.177 123.603 221.786L124.482 220.46C121.998 219.671 120.466 217.716 120.466 215.637ZM117.328 228.008H128.318V226.627H119.049V222.916H117.328V228.008ZM126.131 224.027H127.834V212.302H126.131V224.027ZM142.084 212.266H140.381V223.902H142.084V218.344H144.433V216.928H142.084V212.266ZM130.179 221.123H131.452C134.895 221.123 136.795 221.015 138.964 220.585L138.767 219.205C136.75 219.617 134.993 219.715 131.865 219.707V215.027H137.351V213.647H130.179V221.123ZM131.9 228.008H142.765V226.627H133.604V222.701H131.9V228.008ZM158.216 212.284H156.603V228.348H158.216V212.284ZM144.321 223.705L145.325 224.924C148.355 223.122 150.068 220.773 150.848 218.075H153.322V220.693H150.579V222.091H153.322V227.559H154.935V212.696H153.322V216.677H151.161C151.287 215.897 151.35 215.099 151.35 214.274H145.11V215.673H149.664C149.368 218.98 147.737 221.679 144.321 223.705ZM224.739 212.284H223.036V220.908H224.739V212.284ZM211.741 216.748C211.749 218.945 213.56 220.477 216.025 220.46C218.482 220.477 220.293 218.945 220.293 216.748C220.293 214.543 218.482 213.01 216.025 213.019C213.56 213.01 211.749 214.543 211.741 216.748ZM213.408 216.748C213.399 215.377 214.502 214.444 216.025 214.453C217.531 214.444 218.625 215.377 218.625 216.748C218.625 218.138 217.531 219.061 216.025 219.061C214.502 219.061 213.399 218.138 213.408 216.748ZM214.233 228.151H224.739V221.679H223.054V223.489H215.9V221.679H214.233V228.151ZM215.9 226.753V224.834H223.054V226.753H215.9ZM239.706 212.284H238.002V228.348H239.706V212.284ZM227.353 224.26H228.697C231.234 224.269 233.816 224.072 236.658 223.489L236.425 222.055C233.852 222.575 231.387 222.781 229.038 222.79V213.844H227.353V224.26ZM253.83 212.284H252.127V228.384H253.83V219.904H256.412V218.505H253.83V212.284ZM241.997 224.386H243.288C246.273 224.395 248.406 224.314 250.925 223.866L250.71 222.432C248.415 222.844 246.398 222.961 243.7 222.97V215.206H249.509V213.826H241.997V224.386ZM258.093 226.95C258.784 226.941 259.357 226.376 259.366 225.677C259.357 224.978 258.784 224.404 258.093 224.404C257.394 224.404 256.811 224.978 256.82 225.677C256.811 226.376 257.394 226.941 258.093 226.95Z" fill="#464555"/>
<path d="M162.781 218.954H165.327L166.223 213.844H164.323L162.781 218.954ZM172.62 213.844H170.074L166.865 215.888V218.272L169.841 216.408H169.913V226.824H172.62V213.844ZM187.121 212.159H184.826V223.956H187.121V218.487H189.326V216.605H187.121V212.159ZM174.804 221.266H176.184C179.797 221.266 181.679 221.168 183.732 220.746L183.499 218.918C181.679 219.303 180.057 219.402 177.099 219.42V215.296H182.173V213.467H174.804V221.266ZM176.543 228.187H187.712V226.358H178.82V222.701H176.543V228.187ZM203.271 212.159H201.12V228.474H203.271V212.159ZM188.874 223.472L190.219 225.085C193.267 223.274 194.934 221.006 195.696 218.308H197.695V220.531H195.382V222.378H197.695V227.757H199.865V212.517H197.695V216.461H196.073C196.171 215.699 196.225 214.911 196.225 214.095H189.824V215.942H193.948C193.634 219.142 192.182 221.517 188.874 223.472ZM207.732 213.844H205.186L204.289 218.954H206.19L207.732 213.844Z" fill="#FF8E3D"/>
</svg>
