<svg width="336" height="247" viewBox="0 0 336 247" fill="none" xmlns="http://www.w3.org/2000/svg">
<rect x="0.710938" y="0.5" width="334" height="51" rx="25.5" fill="white"/>
<path d="M29.5391 20.4141H28.0508V23.707H25.1328V24.9258H28.0508V31.1016H29.5391V20.4141ZM21.0781 28.5938H21.9805C23.5742 28.5938 25.2148 28.5059 26.9375 28.1484L26.7734 26.9297C25.3262 27.2051 23.9316 27.3223 22.5781 27.3457V21.5508H21.0781V28.5938ZM40.6484 26.3789H30.8867V27.5742H35V31.0664H36.4766V27.5742H40.6484V26.3789ZM32.0352 25.2305H39.4766V20.9297H32.0352V25.2305ZM33.5117 24.0586V22.1133H37.9883V24.0586H33.5117ZM49.625 23.5898H48.1484V24.5742H44.0234V25.7695H53.7852V24.5742H49.625V23.5898ZM44.4453 23.0859L44.9258 24.1992C46.9766 24.0527 48.3477 23.3965 48.8984 22.4473C49.4434 23.3965 50.8145 24.0527 52.8711 24.1992L53.3398 23.0859C51.3887 22.9805 50.3105 22.4238 50.0059 21.8086H52.8828V20.6719H44.9258V21.8086H47.7734C47.457 22.418 46.3672 22.9805 44.4453 23.0859ZM44.9141 27.9727H52.8594V26.8594H49.6367V26.0625H48.1367V26.8594H44.9141V27.9727ZM45.6055 29.6953C45.5996 30.627 46.7891 31.1191 48.875 31.1133C50.9434 31.1191 52.1621 30.627 52.168 29.6953C52.1621 28.7812 50.9434 28.2891 48.875 28.2891C46.7891 28.2891 45.5996 28.7812 45.6055 29.6953ZM47.1406 29.6953C47.1406 29.3906 47.7324 29.2852 48.875 29.2734C50.0352 29.2852 50.5977 29.3906 50.6094 29.6953C50.5977 29.9941 50.0352 30.1289 48.875 30.1289C47.7324 30.1289 47.1406 29.9941 47.1406 29.6953ZM58.332 26.4609H56.8203V28.6523H54.4062V29.8828H64.168V28.6523H61.7422V26.4609H60.2305V28.6523H58.332V26.4609ZM54.8047 25.3945L55.3906 26.5898C57.2305 26.2559 58.6016 25.3125 59.2754 24.0293C59.9668 25.2891 61.3496 26.209 63.2188 26.5547L63.8047 25.3477C61.5664 25.0195 60.248 23.7715 60.0723 22.3945H63.3125V21.2109H55.2148V22.3945H58.4609C58.2852 23.7715 56.9727 25.0605 54.8047 25.3945ZM66.1602 30.1055C66.6816 30.1055 67.1328 29.666 67.1328 29.1211C67.1328 28.582 66.6816 28.1426 66.1602 28.1484C65.6094 28.1426 65.1641 28.582 65.1758 29.1211C65.1641 29.666 65.6094 30.1055 66.1602 30.1055ZM79.4609 20.4141H77.9727V25.8164H79.4609V20.4141ZM70.4961 24.668L71.2344 25.8398C72.5059 25.459 73.3789 24.6445 73.8594 23.6074C74.3457 24.5566 75.1895 25.3008 76.4141 25.6523L77.1406 24.5039C75.3945 24 74.6211 22.7637 74.6328 21.4688V20.6484H73.0742V21.4688C73.0742 22.793 72.2773 24.1348 70.4961 24.668ZM72.3125 27.4336H77.9844V28.0547H72.3359V31.0078H79.7656V29.8242H73.8008V29.168H79.4727V26.2734H72.3125V27.4336ZM85.0625 22.8281V21.2344H83.5508V22.8281C83.5449 24.8965 82.6367 26.9414 80.7734 27.7266L81.6758 28.9688C82.9766 28.377 83.8496 27.2168 84.3301 25.7754C84.8164 27.0938 85.6602 28.1602 86.8789 28.7109L87.7578 27.5156C85.9473 26.748 85.0566 24.7852 85.0625 22.8281ZM88.332 31.1016H89.8438V20.4141H88.332V31.1016ZM99.7461 20.4141H98.2344V28.0547H99.7461V24.6328H101.188V23.4023H99.7461V20.4141ZM91.2148 25.8281L91.8359 27.0117C95.0352 26.1094 96.834 24.0938 96.8398 21.2109H91.6836V22.4297H95.1934C94.959 23.9297 93.6055 25.166 91.2148 25.8281ZM92.8086 30.8906H100.109V29.6953H94.3203V27.2695H92.8086V30.8906ZM106.52 20.9531C104.264 20.959 102.512 22.1777 102.512 24.0234C102.512 25.8867 104.264 27.0996 106.52 27.0938C108.77 27.0996 110.533 25.8867 110.539 24.0234C110.533 22.1777 108.77 20.959 106.52 20.9531ZM101.656 29.7773H111.418V28.5703H101.656V29.7773ZM103.965 24.0234C103.959 22.8809 105.037 22.1602 106.52 22.1719C107.99 22.1602 109.057 22.8809 109.062 24.0234C109.057 25.1836 107.99 25.875 106.52 25.875C105.037 25.875 103.959 25.1836 103.965 24.0234ZM121.789 28.6641H117.629V27.0586H120.91V25.8398H114.652V24.6445H120.664V21.1055H113.141V22.3008H119.188V23.4727H113.152V27.0586H116.141V28.6641H112.027V29.8945H121.789V28.6641ZM133.625 20.4141H132.125V25.7461H133.625V23.707H135.066V22.4766H133.625V20.4141ZM125.234 23.1445C125.229 24.5508 126.465 25.5586 128.105 25.5586C129.74 25.5586 130.965 24.5508 130.965 23.1445C130.965 21.7207 129.74 20.7363 128.105 20.7305C126.465 20.7363 125.229 21.7207 125.234 23.1445ZM126.547 27.3164H132.137V27.9961H126.57V30.9609H133.93V29.7891H128.035V29.0742H133.625V26.168H126.547V27.3164ZM126.699 23.1445C126.688 22.4004 127.285 21.9492 128.105 21.9492C128.92 21.9492 129.512 22.4004 129.512 23.1445C129.512 23.9004 128.92 24.375 128.105 24.375C127.285 24.375 126.688 23.9004 126.699 23.1445ZM144.781 20.4141H143.375V31.0781H144.781V20.4141ZM135.406 27.8086L136.25 28.8633C137.768 27.9844 138.758 26.9297 139.367 25.7109H141.113V30.6094H142.508V20.6484H141.113V24.5273H139.83C140.088 23.6484 140.199 22.6992 140.199 21.6797H135.992V22.8867H138.717C138.512 24.9785 137.562 26.5312 135.406 27.8086ZM152.258 24.75H148.145V22.5469H152.199V21.3633H146.656V25.9453H148.684V27.7441C147.729 27.7676 146.803 27.7676 145.953 27.7617L146.129 28.9805C148.133 28.9805 150.559 28.9629 152.891 28.6055L152.773 27.5156C151.941 27.6035 151.062 27.6621 150.184 27.6973V25.9453H152.258V24.75ZM153.383 31.1016H154.871V20.4141H153.383V31.1016ZM161.785 21.2812H156.723V26.4727H161.785V25.5703H163.777V28.1836H165.266V20.4258H163.777V22.0898H161.785V21.2812ZM158.164 30.8906H165.488V29.6953H159.676V27.4453H158.164V30.8906ZM158.211 25.3125V22.4648H160.32V25.3125H158.211ZM161.785 24.3867V23.2969H163.777V24.3867H161.785ZM175.391 21.1875H169.906V22.4062H173.932C173.92 23.0449 173.873 23.8242 173.68 24.8438L175.145 24.9844C175.391 23.6602 175.391 22.5938 175.391 21.8555V21.1875ZM169.273 25.7578L169.402 26.9531C171.26 26.9473 173.756 26.9062 175.977 26.4961L175.895 25.418C174.893 25.5645 173.809 25.6465 172.742 25.6934V23.6484H171.254V25.7402C170.545 25.7578 169.871 25.7578 169.273 25.7578ZM170.844 30.8906H178.332V29.6953H172.344V27.6797H170.844V30.8906ZM176.469 28.3945H178.004V24.9141H179.293V23.6602H178.004V20.4141H176.469V28.3945ZM188.727 20.4141H187.238V31.1016H188.727V20.4141ZM180.348 22.5117H183.898V24.2344H180.359V28.6055H181.32C183.266 28.6055 184.854 28.541 186.605 28.2305L186.477 27.0234C184.912 27.2812 183.535 27.3633 181.906 27.375V25.418H185.422V21.3047H180.348V22.5117ZM199.086 20.4141H197.574V31.1016H199.086V20.4141ZM190.684 28.6055H195.957V21.2578H194.48V23.8594H192.184V21.2578H190.684V28.6055ZM192.184 27.3984V25.0195H194.48V27.3984H192.184ZM209.223 25.1836H203.176V22.3594H209.141V21.1641H201.676V26.3672H204.641V28.6406H200.527V29.8594H210.289V28.6406H206.129V26.3672H209.223V25.1836ZM216.535 21.1641C214.9 21.1641 213.717 22.6348 213.723 24.9609C213.717 27.3047 214.9 28.7695 216.535 28.7695C218.164 28.7695 219.342 27.3047 219.348 24.9609C219.342 22.6348 218.164 21.1641 216.535 21.1641ZM215.164 24.9609C215.164 23.3789 215.721 22.5117 216.535 22.5117C217.367 22.5117 217.912 23.3789 217.918 24.9609C217.912 26.5488 217.367 27.416 216.535 27.4102C215.721 27.416 215.164 26.5488 215.164 24.9609ZM220.578 31.0781H222.078V25.6758H223.648V24.4336H222.078V20.4141H220.578V31.0781ZM227.352 20.918H224.434V22.1133H225.881C225.705 23.3262 225.131 24.0293 224.035 24.75L224.973 25.6875C226.719 24.4805 227.34 23.1211 227.352 20.918ZM225.734 27.4102H231.477V28.0195H225.758V30.9609H233.281V29.7891H227.223V29.1211H232.965V26.2266H225.734V27.4102ZM227.117 25.0898L228.172 25.9688C229.895 24.6387 230.363 23.168 230.375 20.918H227.691V22.1133H228.934C228.793 23.4082 228.301 24.2402 227.117 25.0898ZM231.441 25.8164H232.953V20.4141H231.441V25.8164ZM242.832 21.2461V20.7305H241.262V21.2461C241.256 22.5059 239.973 23.8945 237.547 24.1992L238.145 25.4062C239.984 25.1367 241.344 24.2695 242.047 23.1211C242.744 24.2754 244.109 25.1367 245.973 25.4062L246.559 24.1992C244.115 23.8945 242.826 22.5059 242.832 21.2461ZM237.172 27.4336H241.273V31.0781H242.75V27.4336H246.898V26.2148H237.172V27.4336ZM254.188 27.2578V26.8945H252.734V27.2578C252.729 28.2949 252.131 29.3555 250.73 29.8359L251.469 30.9258C252.441 30.5801 253.098 29.9355 253.479 29.1445C253.824 29.9648 254.451 30.6562 255.453 31.0195C256.408 30.6445 257.029 29.9297 257.381 29.1035C257.75 29.9297 258.418 30.5801 259.438 30.9258L260.164 29.8359C258.74 29.3965 258.148 28.3711 258.16 27.2578V26.8945H256.684V27.2578C256.684 28.0488 256.297 28.9629 255.412 29.5898C254.551 29.0039 254.188 28.1133 254.188 27.2578ZM250.473 23.5312C250.473 25.0137 251.727 26.0801 253.391 26.0742C255.049 26.0801 256.303 25.0137 256.309 23.5312C256.303 22.0195 255.049 20.9648 253.391 20.9648C251.727 20.9648 250.473 22.0195 250.473 23.5312ZM251.938 23.5312C251.926 22.7051 252.535 22.2188 253.391 22.2188C254.223 22.2188 254.826 22.7051 254.832 23.5312C254.826 24.334 254.223 24.8379 253.391 24.832C252.535 24.8379 251.926 24.334 251.938 23.5312ZM257.738 26.4492H259.238V20.4258H257.738V26.4492ZM265.543 20.5664C263.082 20.5664 261.652 21.2109 261.652 22.3828C261.652 23.5723 263.082 24.2109 265.543 24.2109C267.998 24.2109 269.416 23.5723 269.422 22.3828C269.416 21.2109 267.998 20.5664 265.543 20.5664ZM260.68 25.8984H270.406V24.7148H260.68V25.8984ZM261.805 27.6094H267.746V28.1953H261.816V31.0078H269.504V29.8828H263.281V29.2383H269.223V26.5195H261.805V27.6094ZM263.223 22.3828C263.217 21.9082 263.979 21.6562 265.543 21.6562C267.119 21.6562 267.875 21.9082 267.875 22.3828C267.875 22.9043 267.119 23.1094 265.543 23.1094C263.979 23.1094 263.217 22.9043 263.223 22.3828ZM280.039 20.4258H278.551V23.2383H276.664V24.457H278.551V27.5039H280.039V20.4258ZM271.168 25.8633L271.812 27.0352C275.053 26.0273 276.582 24.1172 276.582 21.2344H271.742V22.418H274.971C274.748 23.9648 273.588 25.1484 271.168 25.8633ZM272.293 29.8594L272.879 31.043C274.555 30.7617 275.773 30.0059 276.424 28.9688C277.062 30.0059 278.27 30.7559 279.945 31.0312L280.543 29.8477C278.293 29.502 277.168 28.2832 277.168 27.0703V26.6953H275.691V27.0703C275.68 28.2832 274.561 29.5312 272.293 29.8594ZM292.648 20.4141H291.148V26.0156H292.648V23.8477H294.09V22.6289H292.648V20.4141ZM284.141 25.0078L284.773 26.2031C288.014 25.5938 289.748 23.9531 289.754 21.1406H284.668V22.3125H288.072C287.92 23.5137 286.777 24.5742 284.141 25.0078ZM285.617 30.9609H292.918V29.8594H287.117V29.2148H292.578V28.1484H287.117V27.5156H292.684V26.4141H285.617V30.9609ZM297.43 21.1641C295.795 21.1641 294.611 22.6348 294.617 24.9609C294.611 27.3047 295.795 28.7695 297.43 28.7695C299.059 28.7695 300.236 27.3047 300.242 24.9609C300.236 22.6348 299.059 21.1641 297.43 21.1641ZM296.059 24.9609C296.059 23.3789 296.615 22.5117 297.43 22.5117C298.262 22.5117 298.807 23.3789 298.812 24.9609C298.807 26.5488 298.262 27.416 297.43 27.4102C296.615 27.416 296.059 26.5488 296.059 24.9609ZM301.473 31.0781H302.973V25.6758H304.543V24.4336H302.973V20.4141H301.473V31.0781ZM314.691 28.6055H312.523V25.9629C313.326 25.4648 313.807 24.7207 313.812 23.8008C313.807 22.0723 312.102 20.9355 309.793 20.9297C307.473 20.9355 305.785 22.0723 305.785 23.8008C305.785 24.7383 306.283 25.4941 307.109 25.9922V28.6055H304.93V29.8359H314.691V28.6055ZM307.262 23.8008C307.262 22.7285 308.264 22.1074 309.793 22.1133C311.299 22.1074 312.33 22.7285 312.336 23.8008C312.33 24.8438 311.299 25.4883 309.793 25.4883C308.264 25.4883 307.262 24.8438 307.262 23.8008ZM308.586 28.6055V26.5371C308.961 26.6074 309.365 26.6484 309.793 26.6484C310.221 26.6484 310.631 26.6074 311.012 26.5312V28.6055H308.586Z" fill="#464555"/>
<rect x="0.710938" y="0.5" width="334" height="51" rx="25.5" stroke="#464555" stroke-dasharray="2 2"/>
<rect x="0.5" y="133.5" width="308" height="51" rx="25.5" fill="white"/>
<path d="M23.2578 154.164C21.6406 154.164 20.4805 155.635 20.4922 157.961C20.4805 160.305 21.6406 161.77 23.2578 161.77C24.2891 161.77 25.1387 161.16 25.6133 160.105H27.8398V164.102H29.3164V153.414H27.8398V155.605H25.502C25.0156 154.686 24.2188 154.164 23.2578 154.164ZM21.9219 157.961C21.916 156.379 22.4609 155.512 23.2578 155.512C24.0605 155.512 24.5938 156.379 24.5938 157.961C24.5938 159.549 24.0605 160.416 23.2578 160.41C22.4609 160.416 21.916 159.549 21.9219 157.961ZM25.918 156.812H27.8398V158.91H25.9531C26 158.611 26.0234 158.295 26.0234 157.961C26.0234 157.551 25.9883 157.164 25.918 156.812ZM40.4375 158.793H30.6758V159.977H40.4375V158.793ZM31.8711 154.762H37.7539V155.383H31.8945V158.219H39.4531V157.082H33.3828V156.461H39.2539V153.613H31.8711V154.762ZM31.9297 163.961H39.3008V160.633H31.9297V163.961ZM33.3945 162.766V161.816H37.8125V162.766H33.3945ZM49.9883 153.414H48.4766V164.102H49.9883V153.414ZM41.375 157.961C41.3691 160.305 42.5586 161.77 44.1992 161.77C45.8047 161.77 47 160.305 47 157.961C47 155.635 45.8047 154.164 44.1992 154.164C42.5586 154.164 41.3691 155.635 41.375 157.961ZM42.8164 157.961C42.8105 156.379 43.3672 155.512 44.1992 155.512C45.0078 155.512 45.5527 156.379 45.5586 157.961C45.5527 159.549 45.0078 160.416 44.1992 160.41C43.3672 160.416 42.8105 159.549 42.8164 157.961ZM59.8906 153.426H58.3906V159.812H59.8906V157.141H61.332V155.91H59.8906V153.426ZM51.8047 155.23H55.25V156.109H51.8164V159.391H52.7188C54.8809 159.391 56.252 159.338 57.7812 159.051L57.6172 157.855C56.2578 158.096 55.0625 158.16 53.3047 158.172V157.234H56.7031V154.059H51.8047V155.23ZM52.7188 162.074C52.7188 163.334 54.1191 164.066 56.375 164.066C58.5898 164.066 59.9902 163.334 59.9961 162.074C59.9902 160.791 58.5898 160.023 56.375 160.023C54.1191 160.023 52.7188 160.791 52.7188 162.074ZM54.1953 162.074C54.1836 161.482 54.9512 161.178 56.375 161.184C57.7812 161.178 58.5195 161.482 58.5195 162.074C58.5195 162.654 57.7812 162.953 56.375 162.953C54.9512 162.953 54.1836 162.654 54.1953 162.074ZM64.0508 162.133H62.3867L61.8008 165.473H63.043L64.0508 162.133ZM70.707 154.527H65.6445V155.699H69.1836C68.9375 158.061 67.6836 159.754 65.1289 161.055L65.9023 162.238C68.4043 161.002 69.7402 159.314 70.3262 157.34H72.7461V159.051H70.168V160.246H72.7461V164.078H74.2344V153.402H72.7461V156.156H70.5898C70.6719 155.629 70.707 155.084 70.707 154.527ZM80.4805 153.508C78.0195 153.508 76.5898 154.152 76.5898 155.336C76.5898 156.514 78.0195 157.152 80.4805 157.152C82.9355 157.152 84.3535 156.514 84.3594 155.336C84.3535 154.152 82.9355 153.508 80.4805 153.508ZM75.6172 158.805H79.7188V159.52H76.7422V160.609H82.6836V161.195H76.7539V164.008H84.4414V162.883H78.2188V162.238H84.1602V159.52H81.2188V158.805H85.3438V157.633H75.6172V158.805ZM78.1602 155.336C78.1543 154.85 78.916 154.609 80.4805 154.609C82.0566 154.609 82.8125 154.85 82.8125 155.336C82.8125 155.846 82.0566 156.057 80.4805 156.062C78.916 156.057 78.1543 155.846 78.1602 155.336ZM95.2344 153.414H93.8047V164.078H95.2344V153.414ZM86.082 158.031C86.082 160.428 86.9902 161.91 88.4023 161.91C89.7148 161.91 90.6113 160.639 90.7402 158.547H91.6016V163.586H93.0078V153.566H91.6016V157.363H90.7285C90.5645 155.371 89.6855 154.17 88.4023 154.176C86.9902 154.17 86.082 155.646 86.082 158.031ZM87.4648 158.031C87.4531 156.396 87.8047 155.582 88.4023 155.582C89.0176 155.582 89.3809 156.396 89.375 158.031C89.3809 159.672 89.0176 160.48 88.4023 160.469C87.8047 160.48 87.4531 159.672 87.4648 158.031ZM105.02 156.32H99.0547V153.789H97.5664V157.492H105.02V156.32ZM96.3477 159.812H106.109V158.641H96.3477V159.812ZM97.4727 163.844H105.09V162.648H98.9727V160.68H97.4727V163.844ZM115.473 154.188H109.988V155.406H114.014C114.002 156.045 113.955 156.824 113.762 157.844L115.227 157.984C115.473 156.66 115.473 155.594 115.473 154.855V154.188ZM109.355 158.758L109.484 159.953C111.342 159.947 113.838 159.906 116.059 159.496L115.977 158.418C114.975 158.564 113.891 158.646 112.824 158.693V156.648H111.336V158.74C110.627 158.758 109.953 158.758 109.355 158.758ZM110.926 163.891H118.414V162.695H112.426V160.68H110.926V163.891ZM116.551 161.395H118.086V157.914H119.375V156.66H118.086V153.414H116.551V161.395ZM128.809 153.414H127.32V164.102H128.809V153.414ZM120.43 155.512H123.98V157.234H120.441V161.605H121.402C123.348 161.605 124.936 161.541 126.688 161.23L126.559 160.023C124.994 160.281 123.617 160.363 121.988 160.375V158.418H125.504V154.305H120.43V155.512ZM139.168 153.414H137.656V164.102H139.168V153.414ZM130.766 161.605H136.039V154.258H134.562V156.859H132.266V154.258H130.766V161.605ZM132.266 160.398V158.02H134.562V160.398H132.266ZM149.023 153.414H147.523V164.055H149.023V158.734H150.535V157.504H149.023V153.414ZM140.492 161.066L141.336 162.215C144.922 160.451 146.164 157.691 146.176 154.504H141.102V155.723H144.658C144.377 158.102 143.018 159.801 140.492 161.066ZM162.207 153.414H160.707V158.734H162.207V156.883H163.648V155.652H162.207V153.414ZM154.062 158.523H159.184V154.082H154.062V158.523ZM154.707 163.797H155.293C156.312 163.797 157.174 163.756 158.07 163.434L157.859 162.273C157.309 162.449 156.752 162.537 156.16 162.578V159.625H154.707V163.797ZM155.539 157.352V155.242H157.707V157.352H155.539ZM157.707 160.809H163.074V159.73H161.129V158.957H159.676V159.73H157.707V160.809ZM158.328 162.578C158.316 163.492 159.148 164.066 160.379 164.066C161.604 164.066 162.447 163.492 162.453 162.578C162.447 161.646 161.604 161.078 160.379 161.078C159.154 161.078 158.316 161.646 158.328 162.578ZM159.652 162.578C159.646 162.25 159.957 162.092 160.379 162.086C160.807 162.092 161.111 162.25 161.117 162.578C161.111 162.906 160.807 163.07 160.379 163.07C159.957 163.07 159.646 162.906 159.652 162.578ZM173.047 153.414H171.535V164.102H173.047V153.414ZM164.434 157.961C164.428 160.305 165.617 161.77 167.258 161.77C168.863 161.77 170.059 160.305 170.059 157.961C170.059 155.635 168.863 154.164 167.258 154.164C165.617 154.164 164.428 155.635 164.434 157.961ZM165.875 157.961C165.869 156.379 166.426 155.512 167.258 155.512C168.066 155.512 168.611 156.379 168.617 157.961C168.611 159.549 168.066 160.416 167.258 160.41C166.426 160.416 165.869 159.549 165.875 157.961ZM187.18 157.457H185.668V153.414H184.168V164.055H185.668V158.676H187.18V157.457ZM177.594 161.453H178.52C180.09 161.453 181.818 161.359 183.605 160.996L183.453 159.754C181.912 160.064 180.447 160.193 179.082 160.217V154.434H177.594V161.453ZM192.488 153.508C190.027 153.508 188.598 154.152 188.598 155.336C188.598 156.385 189.734 157.006 191.727 157.129V157.75H187.625V158.934H197.352V157.75H193.203V157.135C195.219 157.018 196.361 156.396 196.367 155.336C196.361 154.152 194.943 153.508 192.488 153.508ZM188.75 160.633H194.691V161.195H188.762V164.008H196.449V162.883H190.227V162.238H196.168V159.52H188.75V160.633ZM190.168 155.336C190.162 154.85 190.924 154.609 192.488 154.609C194.064 154.609 194.82 154.85 194.82 155.336C194.82 155.846 194.064 156.057 192.488 156.062C190.924 156.057 190.162 155.846 190.168 155.336ZM206.539 153.414H205.039V164.078H206.539V158.828H207.957V157.598H206.539V153.414ZM197.785 160.984L198.957 161.816C200.867 159.719 201.172 157.434 201.184 154.504H198.254V155.723H199.754C199.66 157.85 199.238 159.408 197.785 160.984ZM200.797 161.676L201.98 162.508C203.867 160.188 204.131 157.545 204.137 154.504H201.535V155.723H202.725C202.643 158.066 202.244 159.895 200.797 161.676ZM210.359 154.258H208.895V159.168H210.863V160.838C209.92 160.855 209.023 160.855 208.238 160.855L208.438 162.074C210.248 162.068 212.65 162.062 214.883 161.664L214.777 160.574C214.004 160.68 213.178 160.744 212.352 160.785V159.168H214.309V154.258H212.809V155.594H210.359V154.258ZM210.359 157.996V156.73H212.809V157.996H210.359ZM215.34 164.078H216.84V158.922H218.293V157.68H216.84V153.414H215.34V164.078ZM232.73 153.414H231.23V160.188H232.73V157.387H234.172V156.145H232.73V153.414ZM224.27 155.594H230.598V154.434H228.184V153.355H226.695V154.434H224.27V155.594ZM224.785 157.879C224.785 159.027 225.869 159.789 227.434 159.789C228.986 159.789 230.059 159.027 230.059 157.879C230.059 156.742 228.986 155.963 227.434 155.957C225.863 155.963 224.785 156.742 224.785 157.879ZM225.641 162.191C225.629 163.363 227.006 164.084 229.25 164.078C231.441 164.084 232.842 163.363 232.848 162.191C232.842 160.99 231.441 160.287 229.25 160.281C227.006 160.287 225.629 160.99 225.641 162.191ZM226.25 157.879C226.244 157.346 226.719 157.053 227.434 157.047C228.154 157.053 228.641 157.346 228.641 157.879C228.641 158.406 228.154 158.682 227.434 158.676C226.719 158.682 226.244 158.406 226.25 157.879ZM227.117 162.191C227.111 161.658 227.85 161.424 229.25 161.418C230.609 161.424 231.348 161.658 231.348 162.191C231.348 162.689 230.609 162.965 229.25 162.965C227.85 162.965 227.111 162.689 227.117 162.191ZM238.531 155.09V153.977H237.031V154.949C237.02 156.42 236.258 157.838 234.477 158.43L235.285 159.602C236.504 159.191 237.33 158.348 237.793 157.275C238.25 158.207 239.041 158.934 240.172 159.309L240.969 158.148C239.281 157.627 238.525 156.385 238.531 155.09ZM235.953 162.016C235.947 163.322 237.359 164.084 239.609 164.078C241.818 164.084 243.201 163.322 243.207 162.016C243.201 160.721 241.818 159.953 239.609 159.953C237.359 159.953 235.947 160.721 235.953 162.016ZM237.453 162.016C237.441 161.436 238.209 161.125 239.609 161.125C240.992 161.125 241.73 161.436 241.73 162.016C241.73 162.619 240.992 162.906 239.609 162.906C238.209 162.906 237.441 162.619 237.453 162.016ZM241.602 159.742H243.102V157.152H244.543V155.91H243.102V153.414H241.602V159.742ZM253.332 154.035H248.434V155.23H251.732C251.486 156.666 250.186 157.838 247.859 158.465L248.445 159.625C251.568 158.758 253.332 156.824 253.332 154.035ZM249.441 161.23H255.277V164.055H256.766V160.035H249.441V161.23ZM253.438 157.234H255.277V159.613H256.766V153.426H255.277V156.004H253.438V157.234ZM267.137 153.414H265.648V156.016H263.984V157.223H265.648V159.742H267.137V153.414ZM258.078 158.57L258.852 159.754C260.117 159.32 260.973 158.447 261.441 157.363C261.904 158.318 262.719 159.092 263.891 159.473L264.629 158.301C262.971 157.75 262.209 156.496 262.18 155.254H264.301V154.059H258.512V155.254H260.656C260.621 156.59 259.824 157.984 258.078 158.57ZM259.824 162.039C259.824 163.334 261.219 164.09 263.492 164.09C265.771 164.09 267.166 163.334 267.172 162.039C267.166 160.744 265.771 159.982 263.492 159.977C261.219 159.982 259.824 160.744 259.824 162.039ZM261.312 162.039C261.312 161.424 262.08 161.119 263.492 161.125C264.91 161.119 265.678 161.424 265.684 162.039C265.678 162.648 264.91 162.953 263.492 162.953C262.08 162.953 261.312 162.648 261.312 162.039ZM273.664 155.043H271.836V153.707H270.359V155.043H268.508V156.227H273.664V155.043ZM268.754 159.238C268.754 160.727 269.75 161.781 271.109 161.781C272.475 161.781 273.447 160.727 273.453 159.238C273.447 157.756 272.475 156.713 271.109 156.707C269.75 156.713 268.754 157.756 268.754 159.238ZM270.066 159.238C270.066 158.436 270.488 157.949 271.109 157.949C271.707 157.949 272.135 158.436 272.141 159.238C272.135 160.053 271.707 160.516 271.109 160.516C270.488 160.516 270.066 160.053 270.066 159.238ZM274.062 163.621H275.457V158.945H276.324V164.078H277.742V153.414H276.324V157.75H275.457V153.625H274.062V163.621ZM288.652 161.605H286.484V158.963C287.287 158.465 287.768 157.721 287.773 156.801C287.768 155.072 286.062 153.936 283.754 153.93C281.434 153.936 279.746 155.072 279.746 156.801C279.746 157.738 280.244 158.494 281.07 158.992V161.605H278.891V162.836H288.652V161.605ZM281.223 156.801C281.223 155.729 282.225 155.107 283.754 155.113C285.26 155.107 286.291 155.729 286.297 156.801C286.291 157.844 285.26 158.488 283.754 158.488C282.225 158.488 281.223 157.844 281.223 156.801ZM282.547 161.605V159.537C282.922 159.607 283.326 159.648 283.754 159.648C284.182 159.648 284.592 159.607 284.973 159.531V161.605H282.547Z" fill="#464555"/>
<rect x="0.5" y="133.5" width="308" height="51" rx="25.5" stroke="#464555" stroke-dasharray="2 2"/>
<rect x="115.5" y="67.5" width="219" height="51" rx="25.5" fill="white"/>
<path d="M141.293 88.1875H135.809V89.4062H139.834C139.822 90.0449 139.775 90.8242 139.582 91.8438L141.047 91.9844C141.293 90.6602 141.293 89.5938 141.293 88.8555V88.1875ZM135.176 92.7578L135.305 93.9531C137.162 93.9473 139.658 93.9062 141.879 93.4961L141.797 92.418C140.795 92.5645 139.711 92.6465 138.645 92.6934V90.6484H137.156V92.7402C136.447 92.7578 135.773 92.7578 135.176 92.7578ZM136.746 97.8906H144.234V96.6953H138.246V94.6797H136.746V97.8906ZM142.371 95.3945H143.906V91.9141H145.195V90.6602H143.906V87.4141H142.371V95.3945ZM154.629 87.4141H153.141V98.1016H154.629V87.4141ZM146.25 89.5117H149.801V91.2344H146.262V95.6055H147.223C149.168 95.6055 150.756 95.541 152.508 95.2305L152.379 94.0234C150.814 94.2812 149.438 94.3633 147.809 94.375V92.418H151.324V88.3047H146.25V89.5117ZM164.988 87.4141H163.477V98.1016H164.988V87.4141ZM156.586 95.6055H161.859V88.2578H160.383V90.8594H158.086V88.2578H156.586V95.6055ZM158.086 94.3984V92.0195H160.383V94.3984H158.086ZM176.18 92.1953H166.418V93.3086H176.18V92.1953ZM167.531 94.8672H173.531V95.4062H167.543V97.9844H175.324V96.9648H169.031V96.3555H175.008V93.8359H167.531V94.8672ZM167.613 88.6211H173.496V89.1602H167.637V91.6914H175.184V90.6836H169.125V90.1094H174.996V87.6016H167.613V88.6211ZM188.027 87.4141H186.527V92.7461H188.027V90.707H189.469V89.4766H188.027V87.4141ZM179.637 90.1445C179.631 91.5508 180.867 92.5586 182.508 92.5586C184.143 92.5586 185.367 91.5508 185.367 90.1445C185.367 88.7207 184.143 87.7363 182.508 87.7305C180.867 87.7363 179.631 88.7207 179.637 90.1445ZM180.949 94.3164H186.539V94.9961H180.973V97.9609H188.332V96.7891H182.438V96.0742H188.027V93.168H180.949V94.3164ZM181.102 90.1445C181.09 89.4004 181.688 88.9492 182.508 88.9492C183.322 88.9492 183.914 89.4004 183.914 90.1445C183.914 90.9004 183.322 91.375 182.508 91.375C181.688 91.375 181.09 90.9004 181.102 90.1445ZM198.363 88.2461V87.7305H196.793V88.2461C196.787 89.5059 195.504 90.8945 193.078 91.1992L193.676 92.4062C195.516 92.1367 196.875 91.2695 197.578 90.1211C198.275 91.2754 199.641 92.1367 201.504 92.4062L202.09 91.1992C199.646 90.8945 198.357 89.5059 198.363 88.2461ZM192.703 94.4336H196.805V98.0781H198.281V94.4336H202.43V93.2148H192.703V94.4336ZM209.719 94.2578V93.8945H208.266V94.2578C208.26 95.2949 207.662 96.3555 206.262 96.8359L207 97.9258C207.973 97.5801 208.629 96.9355 209.01 96.1445C209.355 96.9648 209.982 97.6562 210.984 98.0195C211.939 97.6445 212.561 96.9297 212.912 96.1035C213.281 96.9297 213.949 97.5801 214.969 97.9258L215.695 96.8359C214.271 96.3965 213.68 95.3711 213.691 94.2578V93.8945H212.215V94.2578C212.215 95.0488 211.828 95.9629 210.943 96.5898C210.082 96.0039 209.719 95.1133 209.719 94.2578ZM206.004 90.5312C206.004 92.0137 207.258 93.0801 208.922 93.0742C210.58 93.0801 211.834 92.0137 211.84 90.5312C211.834 89.0195 210.58 87.9648 208.922 87.9648C207.258 87.9648 206.004 89.0195 206.004 90.5312ZM207.469 90.5312C207.457 89.7051 208.066 89.2188 208.922 89.2188C209.754 89.2188 210.357 89.7051 210.363 90.5312C210.357 91.334 209.754 91.8379 208.922 91.832C208.066 91.8379 207.457 91.334 207.469 90.5312ZM213.27 93.4492H214.77V87.4258H213.27V93.4492ZM224.625 87.4141H223.125V98.1016H224.625V92.5938H226.195V91.375H224.625V87.4141ZM216.633 95.5117H217.535C219.416 95.5176 220.869 95.4766 222.527 95.1953L222.363 93.9414C220.945 94.1875 219.668 94.2695 218.121 94.2812V89.6055H221.637V88.3984H216.633V95.5117ZM232.09 88.2812H227.027V93.4727H232.09V92.5703H234.082V95.1836H235.57V87.4258H234.082V89.0898H232.09V88.2812ZM228.469 97.8906H235.793V96.6953H229.98V94.4453H228.469V97.8906ZM228.516 92.3125V89.4648H230.625V92.3125H228.516ZM232.09 91.3867V90.2969H234.082V91.3867H232.09ZM249.445 91.6562H239.719V92.8281H243.832V93.5195H240.844V94.6328H246.785V95.207H240.855V98.0078H248.543V96.8828H242.32V96.25H248.262V93.5195H245.32V92.8281H249.445V91.6562ZM240.152 90.2383L240.621 91.3633C242.578 91.2168 243.932 90.5898 244.57 89.6992C245.209 90.5957 246.58 91.2168 248.555 91.3633L249.023 90.2383C247.049 90.1094 245.924 89.5117 245.578 88.8672H248.566V87.7188H240.609V88.8672H243.574C243.229 89.5176 242.115 90.1094 240.152 90.2383ZM253.031 88.1641C251.414 88.1641 250.254 89.6348 250.266 91.9609C250.254 94.3047 251.414 95.7695 253.031 95.7695C254.062 95.7695 254.912 95.1602 255.387 94.1055H257.613V98.1016H259.09V87.4141H257.613V89.6055H255.275C254.789 88.6855 253.992 88.1641 253.031 88.1641ZM251.695 91.9609C251.689 90.3789 252.234 89.5117 253.031 89.5117C253.834 89.5117 254.367 90.3789 254.367 91.9609C254.367 93.5488 253.834 94.416 253.031 94.4102C252.234 94.416 251.689 93.5488 251.695 91.9609ZM255.691 90.8125H257.613V92.9102H255.727C255.773 92.6113 255.797 92.2949 255.797 91.9609C255.797 91.5508 255.762 91.1641 255.691 90.8125ZM270.223 95.6172H266.062V93.6484H269.133V88.0938H267.645V89.7461H262.992V88.0938H261.492V93.6484H264.574V95.6172H260.461V96.8359H270.223V95.6172ZM262.992 92.4531V90.9414H267.645V92.4531H262.992ZM279.621 88.3398H271.84V89.5234H278.121C278.115 90.7773 278.098 92.2773 277.688 94.293L279.188 94.4453C279.615 92.1836 279.615 90.6836 279.621 89.3477V88.3398ZM270.832 96.7773H280.559V95.5586H275.801V91.8906H274.312V95.5586H270.832V96.7773ZM292.898 87.4258H291.398V93.332H292.898V87.4258ZM283.934 92.0078L284.648 93.1797C285.926 92.793 286.799 91.9785 287.285 90.9473C287.771 91.9023 288.621 92.6406 289.852 93.0039L290.566 91.8203C288.82 91.3398 288.047 90.0859 288.059 88.8203V87.7891H286.5V88.8203C286.5 90.1387 285.715 91.4688 283.934 92.0078ZM285.539 97.9609H293.051V96.7656H291.68V94.9961H292.957V93.8125H285.633V94.9961H286.922V96.7656H285.539V97.9609ZM288.398 96.7656V94.9961H290.203V96.7656H288.398ZM297.281 88.1641C295.664 88.1641 294.504 89.6348 294.516 91.9609C294.504 94.3047 295.664 95.7695 297.281 95.7695C298.77 95.7695 299.871 94.5156 300.029 92.4648H301.863V98.1016H303.34V87.4141H301.863V91.2695H300.012C299.801 89.3477 298.723 88.1641 297.281 88.1641ZM295.945 91.9609C295.939 90.3789 296.484 89.5117 297.281 89.5117C298.084 89.5117 298.617 90.3789 298.617 91.9609C298.617 93.5488 298.084 94.416 297.281 94.4102C296.484 94.416 295.939 93.5488 295.945 91.9609ZM314.473 95.6055H312.305V92.9629C313.107 92.4648 313.588 91.7207 313.594 90.8008C313.588 89.0723 311.883 87.9355 309.574 87.9297C307.254 87.9355 305.566 89.0723 305.566 90.8008C305.566 91.7383 306.064 92.4941 306.891 92.9922V95.6055H304.711V96.8359H314.473V95.6055ZM307.043 90.8008C307.043 89.7285 308.045 89.1074 309.574 89.1133C311.08 89.1074 312.111 89.7285 312.117 90.8008C312.111 91.8438 311.08 92.4883 309.574 92.4883C308.045 92.4883 307.043 91.8438 307.043 90.8008ZM308.367 95.6055V93.5371C308.742 93.6074 309.146 93.6484 309.574 93.6484C310.002 93.6484 310.412 93.6074 310.793 93.5312V95.6055H308.367Z" fill="#464555"/>
<rect x="115.5" y="67.5" width="219" height="51" rx="25.5" stroke="#464555" stroke-dasharray="2 2"/>
<rect x="91.5" y="195.5" width="243" height="51" rx="25.5" fill="white"/>
<path d="M117.293 216.188H111.809V217.406H115.834C115.822 218.045 115.775 218.824 115.582 219.844L117.047 219.984C117.293 218.66 117.293 217.594 117.293 216.855V216.188ZM111.176 220.758L111.305 221.953C113.162 221.947 115.658 221.906 117.879 221.496L117.797 220.418C116.795 220.564 115.711 220.646 114.645 220.693V218.648H113.156V220.74C112.447 220.758 111.773 220.758 111.176 220.758ZM112.746 225.891H120.234V224.695H114.246V222.68H112.746V225.891ZM118.371 223.395H119.906V219.914H121.195V218.66H119.906V215.414H118.371V223.395ZM130.629 215.414H129.141V226.102H130.629V215.414ZM122.25 217.512H125.801V219.234H122.262V223.605H123.223C125.168 223.605 126.756 223.541 128.508 223.23L128.379 222.023C126.814 222.281 125.438 222.363 123.809 222.375V220.418H127.324V216.305H122.25V217.512ZM140.988 215.414H139.477V226.102H140.988V215.414ZM132.586 223.605H137.859V216.258H136.383V218.859H134.086V216.258H132.586V223.605ZM134.086 222.398V220.02H136.383V222.398H134.086ZM152.18 220.195H142.418V221.309H152.18V220.195ZM143.531 222.867H149.531V223.406H143.543V225.984H151.324V224.965H145.031V224.355H151.008V221.836H143.531V222.867ZM143.613 216.621H149.496V217.16H143.637V219.691H151.184V218.684H145.125V218.109H150.996V215.602H143.613V216.621ZM164.027 215.414H162.527V220.746H164.027V218.707H165.469V217.477H164.027V215.414ZM155.637 218.145C155.631 219.551 156.867 220.559 158.508 220.559C160.143 220.559 161.367 219.551 161.367 218.145C161.367 216.721 160.143 215.736 158.508 215.73C156.867 215.736 155.631 216.721 155.637 218.145ZM156.949 222.316H162.539V222.996H156.973V225.961H164.332V224.789H158.438V224.074H164.027V221.168H156.949V222.316ZM157.102 218.145C157.09 217.4 157.688 216.949 158.508 216.949C159.322 216.949 159.914 217.4 159.914 218.145C159.914 218.9 159.322 219.375 158.508 219.375C157.688 219.375 157.09 218.9 157.102 218.145ZM174.363 216.246V215.73H172.793V216.246C172.787 217.506 171.504 218.895 169.078 219.199L169.676 220.406C171.516 220.137 172.875 219.27 173.578 218.121C174.275 219.275 175.641 220.137 177.504 220.406L178.09 219.199C175.646 218.895 174.357 217.506 174.363 216.246ZM168.703 222.434H172.805V226.078H174.281V222.434H178.43V221.215H168.703V222.434ZM185.719 222.258V221.895H184.266V222.258C184.26 223.295 183.662 224.355 182.262 224.836L183 225.926C183.973 225.58 184.629 224.936 185.01 224.145C185.355 224.965 185.982 225.656 186.984 226.02C187.939 225.645 188.561 224.93 188.912 224.104C189.281 224.93 189.949 225.58 190.969 225.926L191.695 224.836C190.271 224.396 189.68 223.371 189.691 222.258V221.895H188.215V222.258C188.215 223.049 187.828 223.963 186.943 224.59C186.082 224.004 185.719 223.113 185.719 222.258ZM182.004 218.531C182.004 220.014 183.258 221.08 184.922 221.074C186.58 221.08 187.834 220.014 187.84 218.531C187.834 217.02 186.58 215.965 184.922 215.965C183.258 215.965 182.004 217.02 182.004 218.531ZM183.469 218.531C183.457 217.705 184.066 217.219 184.922 217.219C185.754 217.219 186.357 217.705 186.363 218.531C186.357 219.334 185.754 219.838 184.922 219.832C184.066 219.838 183.457 219.334 183.469 218.531ZM189.27 221.449H190.77V215.426H189.27V221.449ZM200.625 215.414H199.125V226.102H200.625V220.594H202.195V219.375H200.625V215.414ZM192.633 223.512H193.535C195.416 223.518 196.869 223.477 198.527 223.195L198.363 221.941C196.945 222.188 195.668 222.27 194.121 222.281V217.605H197.637V216.398H192.633V223.512ZM208.09 216.281H203.027V221.473H208.09V220.57H210.082V223.184H211.57V215.426H210.082V217.09H208.09V216.281ZM204.469 225.891H211.793V224.695H205.98V222.445H204.469V225.891ZM204.516 220.312V217.465H206.625V220.312H204.516ZM208.09 219.387V218.297H210.082V219.387H208.09ZM225.48 223.629H221.344V221.25H219.844V223.629H215.719V224.836H225.48V223.629ZM216.117 220.535L216.703 221.719C218.543 221.385 219.914 220.441 220.588 219.158C221.279 220.424 222.662 221.332 224.531 221.66L225.117 220.477C222.832 220.143 221.496 218.836 221.379 217.43H224.625V216.223H216.527V217.43H219.785C219.656 218.842 218.332 220.178 216.117 220.535ZM234.691 215.895H227.285V217.09H233.203C233.191 217.84 233.162 218.666 232.934 219.727H226.09V220.934H235.852V219.727H234.439C234.697 218.502 234.697 217.582 234.691 216.75V215.895ZM227.25 225.961H234.656V222.059H227.25V225.961ZM228.715 224.766V223.23H233.168V224.766H228.715ZM248.953 219.656H239.227V220.828H243.34V221.52H240.352V222.633H246.293V223.207H240.363V226.008H248.051V224.883H241.828V224.25H247.77V221.52H244.828V220.828H248.953V219.656ZM239.66 218.238L240.129 219.363C242.086 219.217 243.439 218.59 244.078 217.699C244.717 218.596 246.088 219.217 248.062 219.363L248.531 218.238C246.557 218.109 245.432 217.512 245.086 216.867H248.074V215.719H240.117V216.867H243.082C242.736 217.518 241.623 218.109 239.66 218.238ZM252.539 216.164C250.922 216.164 249.762 217.635 249.773 219.961C249.762 222.305 250.922 223.77 252.539 223.77C253.57 223.77 254.42 223.16 254.895 222.105H257.121V226.102H258.598V215.414H257.121V217.605H254.783C254.297 216.686 253.5 216.164 252.539 216.164ZM251.203 219.961C251.197 218.379 251.742 217.512 252.539 217.512C253.342 217.512 253.875 218.379 253.875 219.961C253.875 221.549 253.342 222.416 252.539 222.41C251.742 222.416 251.197 221.549 251.203 219.961ZM255.199 218.812H257.121V220.91H255.234C255.281 220.611 255.305 220.295 255.305 219.961C255.305 219.551 255.27 219.164 255.199 218.812ZM269.73 223.617H265.57V221.648H268.641V216.094H267.152V217.746H262.5V216.094H261V221.648H264.082V223.617H259.969V224.836H269.73V223.617ZM262.5 220.453V218.941H267.152V220.453H262.5ZM279.129 216.34H271.348V217.523H277.629C277.623 218.777 277.605 220.277 277.195 222.293L278.695 222.445C279.123 220.184 279.123 218.684 279.129 217.348V216.34ZM270.34 224.777H280.066V223.559H275.309V219.891H273.82V223.559H270.34V224.777ZM292.406 215.426H290.906V221.332H292.406V215.426ZM283.441 220.008L284.156 221.18C285.434 220.793 286.307 219.979 286.793 218.947C287.279 219.902 288.129 220.641 289.359 221.004L290.074 219.82C288.328 219.34 287.555 218.086 287.566 216.82V215.789H286.008V216.82C286.008 218.139 285.223 219.469 283.441 220.008ZM285.047 225.961H292.559V224.766H291.188V222.996H292.465V221.812H285.141V222.996H286.43V224.766H285.047V225.961ZM287.906 224.766V222.996H289.711V224.766H287.906ZM296.789 216.164C295.172 216.164 294.012 217.635 294.023 219.961C294.012 222.305 295.172 223.77 296.789 223.77C298.277 223.77 299.379 222.516 299.537 220.465H301.371V226.102H302.848V215.414H301.371V219.27H299.52C299.309 217.348 298.23 216.164 296.789 216.164ZM295.453 219.961C295.447 218.379 295.992 217.512 296.789 217.512C297.592 217.512 298.125 218.379 298.125 219.961C298.125 221.549 297.592 222.416 296.789 222.41C295.992 222.416 295.447 221.549 295.453 219.961ZM313.98 223.605H311.812V220.963C312.615 220.465 313.096 219.721 313.102 218.801C313.096 217.072 311.391 215.936 309.082 215.93C306.762 215.936 305.074 217.072 305.074 218.801C305.074 219.738 305.572 220.494 306.398 220.992V223.605H304.219V224.836H313.98V223.605ZM306.551 218.801C306.551 217.729 307.553 217.107 309.082 217.113C310.588 217.107 311.619 217.729 311.625 218.801C311.619 219.844 310.588 220.488 309.082 220.488C307.553 220.488 306.551 219.844 306.551 218.801ZM307.875 223.605V221.537C308.25 221.607 308.654 221.648 309.082 221.648C309.51 221.648 309.92 221.607 310.301 221.531V223.605H307.875Z" fill="#464555"/>
<rect x="91.5" y="195.5" width="243" height="51" rx="25.5" stroke="#464555" stroke-dasharray="2 2"/>
</svg>
