<svg width="1038" height="718" viewBox="0 0 1038 718" fill="none" xmlns="http://www.w3.org/2000/svg">
<rect x="895.177" y="21.9421" width="141.683" height="36.018" rx="5.00898" fill="white"/>
<path d="M962.94 31.0829H961.081V39.9464H962.94V36.2875H965.484V34.7418H962.94V31.0829ZM949.439 35.6027C949.42 37.9017 951.386 39.516 954.037 39.516C956.698 39.516 958.635 37.9017 958.635 35.6027C958.635 33.2841 956.698 31.6992 954.037 31.6894C951.386 31.6992 949.42 33.2841 949.439 35.6027ZM951.239 35.6027C951.229 34.1744 952.423 33.2058 954.037 33.2156C955.651 33.2058 956.835 34.1744 956.835 35.6027C956.835 37.031 955.651 38.0289 954.037 38.0289C952.423 38.0289 951.229 37.031 951.239 35.6027ZM951.611 42.1966H961.101V43.801H951.65V48.3991H963.546V46.912H953.47V45.1902H962.94V40.7486H951.611V42.1966ZM981.019 31.1024H979.16V41.4922H981.019V31.1024ZM967.362 33.6265H973.584V35.6223H967.401V40.7095H968.869C972.185 40.7193 974.572 40.6215 977.439 40.1812L977.204 38.655C974.533 39.0953 972.293 39.1833 969.221 39.1833V37.0702H975.423V32.1395H967.362V33.6265ZM969.495 48.3991H981.019V42.3726H969.495V48.3991ZM971.334 46.8925V43.8597H979.2V46.8925H971.334Z" fill="#3E9BFB"/>
<rect x="895.177" y="21.9421" width="141.683" height="36.018" rx="5.00898" stroke="#3E9BFB" stroke-width="1.43114"/>
<rect x="895.177" y="70.8406" width="141.683" height="36.018" rx="5.00898" fill="white"/>
<path d="M956.71 93.756H940.665V95.3213H956.71V93.756ZM942.035 83.1902H944.696V89.0405H942.074V90.5276H955.183V89.0405H952.562V83.1902H955.242V81.664H942.035V83.1902ZM946.535 89.0405V83.1902H950.742V89.0405H946.535ZM974.026 93.8538H966.884V90.7819H972.48V89.2558H961.777V86.6926H972.069V81.214H959.899V82.7402H970.23V85.2055H959.938V90.7819H965.045V93.8538H957.981V95.4192H974.026V93.8538ZM989.875 79.9813H987.996V89.0405H989.875V79.9813ZM975.591 87.0252L975.806 88.5122C978.888 88.522 982.968 88.3948 986.47 87.8665L986.392 86.5165C985.599 86.6143 984.758 86.6926 983.907 86.7513V82.6032H985.59V81.1357H976.061V82.6032H977.724V87.0056C976.98 87.0154 976.256 87.0252 975.591 87.0252ZM978.233 91.3102H988.035V92.8364H978.291V97.3367H990.481V95.8496H980.111V94.1865H989.875V89.8427H978.233V91.3102ZM979.504 86.9665V82.6032H982.126V86.8589C981.246 86.9078 980.365 86.9371 979.504 86.9665Z" fill="#3E9BFB"/>
<rect x="895.177" y="70.8406" width="141.683" height="36.018" rx="5.00898" stroke="#3E9BFB" stroke-width="1.43114"/>
<rect x="895.177" y="162.434" width="141.683" height="35.7784" rx="5.00898" fill="white"/>
<path d="M935.751 171.575H933.97V189.106H935.751V171.575ZM920.861 179.147C920.861 182.953 922.348 185.34 924.637 185.33C926.809 185.34 928.267 183.217 928.433 179.793H930.409V188.246H932.19V171.908H930.409V178.286H928.423C928.208 174.999 926.77 172.974 924.637 172.984C922.348 172.974 920.861 175.351 920.861 179.147ZM922.583 179.147C922.583 176.349 923.375 174.715 924.637 174.725C925.929 174.715 926.731 176.349 926.731 179.147C926.731 181.935 925.929 183.579 924.637 183.569C923.375 183.579 922.583 181.935 922.583 179.147ZM952.617 171.575H950.758V177.23H945.534V178.756H950.758V189.146H952.617V171.575ZM938.921 184.919H940.329C943.078 184.929 945.622 184.773 948.449 184.195L948.215 182.669C945.661 183.178 943.303 183.334 940.799 183.374V173.512H938.921V184.919ZM961.755 176.741V174.882H965.746V173.336H955.865V174.882H959.876V176.741C959.857 179.764 957.9 183.051 955.258 184.293L956.335 185.761C958.379 184.763 960.023 182.63 960.835 180.126C961.647 182.464 963.29 184.401 965.355 185.311L966.372 183.863C963.672 182.708 961.745 179.676 961.755 176.741ZM967.957 189.106H969.816V171.575H967.957V189.106ZM993.55 185.389H986.447V181.241H984.588V185.389H977.505V186.915H993.55V185.389ZM978.249 180.439L979.012 181.906C981.79 181.358 984.383 179.685 985.508 177.347C986.653 179.656 989.265 181.3 992.102 181.828L992.845 180.36C989.509 179.842 986.467 177.455 986.467 174.764V174.608H992.161V173.082H978.836V174.608H984.53V174.764C984.53 177.455 981.507 179.891 978.249 180.439ZM1009.32 171.575H1007.46V189.106H1009.32V171.575ZM994.919 184.332L995.174 185.878C998.383 185.888 1002.63 185.839 1006.52 185.193L1006.39 183.804C1004.84 184.009 1003.2 184.127 1001.57 184.205V182.503C1003.61 182.209 1004.93 181.016 1004.94 179.323C1004.93 177.347 1003.18 176.046 1000.61 176.036C998.079 176.046 996.358 177.347 996.367 179.323C996.358 181.035 997.688 182.239 999.733 182.513V184.274C998.011 184.313 996.367 184.323 994.919 184.332ZM995.291 175.156H1005.99V173.669H1001.59V171.614H999.733V173.669H995.291V175.156ZM998.128 179.323C998.109 178.198 999.146 177.484 1000.61 177.484C1002.13 177.484 1003.16 178.198 1003.16 179.323C1003.16 180.439 1002.13 181.133 1000.61 181.123C999.146 181.133 998.109 180.439 998.128 179.323Z" fill="#3E9BFB"/>
<rect x="895.177" y="162.434" width="141.683" height="35.7784" rx="5.00898" stroke="#3E9BFB" stroke-width="1.43114"/>
<rect x="895.177" y="264.046" width="141.683" height="36.018" rx="5.00898" fill="white"/>
<path d="M946.183 273.186H944.325V290.757H946.183V273.186ZM932.644 286.55H941.057V274.654H939.218V279.154H934.502V274.654H932.644V286.55ZM934.502 285.024V280.622H939.218V285.024H934.502ZM963.226 274.869H950.625V276.376H961.367V276.747C961.377 278.9 961.377 281.248 960.76 284.417L962.58 284.613C963.206 281.258 963.206 278.949 963.226 276.747V274.869ZM948.981 288.35H964.967V286.805H958.96V281.13H957.141V286.805H954.617V281.13H952.758V286.805H948.981V288.35ZM982.322 282.363H966.278V283.85H973.518V287.078H975.357V283.85H982.322V282.363ZM968.274 290.346H980.542V288.839H970.113V285.552H968.274V290.346ZM968.391 280.817H980.209V273.734H978.35V275.867H970.23V273.734H968.391V280.817ZM970.23 279.33V277.256H978.35V279.33H970.23ZM989.797 275.984V274.086H987.938V275.887C987.928 278.479 986.343 280.788 983.594 281.737L984.592 283.243C986.637 282.461 988.124 280.935 988.897 278.988C989.65 280.759 991.078 282.167 993.006 282.872L994.023 281.385C991.382 280.504 989.787 278.313 989.797 275.984ZM986.353 285.963H996.371V290.718H998.23V284.496H986.353V285.963ZM992.673 278.254H996.371V283.576H998.23V273.186H996.371V276.728H992.673V278.254Z" fill="#3E9BFB"/>
<rect x="895.177" y="264.046" width="141.683" height="36.018" rx="5.00898" stroke="#3E9BFB" stroke-width="1.43114"/>
<rect x="895.177" y="312.944" width="141.683" height="36.018" rx="5.00898" fill="white"/>
<path d="M946.751 322.085H944.97V339.616H946.751V322.085ZM931.861 329.657C931.861 333.463 933.348 335.85 935.637 335.84C937.134 335.85 938.288 334.842 938.924 333.101H941.468V338.755H943.229V322.417H941.468V326.213H938.915C938.288 324.482 937.134 323.484 935.637 323.494C933.348 323.484 931.861 325.861 931.861 329.657ZM933.563 329.657C933.553 326.859 934.336 325.225 935.637 325.235C936.929 325.225 937.75 326.859 937.75 329.657C937.75 332.445 936.929 334.089 935.637 334.079C934.336 334.089 933.553 332.445 933.563 329.657ZM939.306 327.72H941.468V331.574H939.306C939.404 330.988 939.453 330.342 939.453 329.657C939.453 328.962 939.404 328.317 939.306 327.72ZM964.967 330.89H948.981V332.377H964.967V330.89ZM949.842 328.581L950.429 330.009C953.433 329.725 955.879 328.708 956.964 327.064C958.041 328.708 960.477 329.725 963.5 330.009L964.087 328.581C960.565 328.307 958.168 327.016 957.992 325.274H963.363V323.807H957.884V322.065H956.045V323.807H950.586V325.274H955.937C955.742 327.016 953.335 328.307 949.842 328.581ZM950.762 335.566H961.132V339.616H963.01V334.079H950.762V335.566ZM982.322 331.261H966.278V332.748H973.518V335.977H975.357V332.748H982.322V331.261ZM968.274 339.245H980.542V337.738H970.113V334.451H968.274V339.245ZM968.391 329.716H980.209V322.633H978.35V324.765H970.23V322.633H968.391V329.716ZM970.23 328.229V326.155H978.35V328.229H970.23ZM989.797 324.883V322.985H987.938V324.785C987.928 327.378 986.343 329.686 983.594 330.635L984.592 332.142C986.637 331.359 988.124 329.833 988.897 327.886C989.65 329.657 991.078 331.066 993.006 331.77L994.023 330.283C991.382 329.403 989.787 327.211 989.797 324.883ZM986.353 334.862H996.371V339.616H998.23V333.394H986.353V334.862ZM992.673 327.153H996.371V332.475H998.23V322.085H996.371V325.626H992.673V327.153Z" fill="#3E9BFB"/>
<rect x="895.177" y="312.944" width="141.683" height="36.018" rx="5.00898" stroke="#3E9BFB" stroke-width="1.43114"/>
<rect x="895.177" y="379.968" width="141.683" height="36.018" rx="5.00898" fill="white"/>
<path d="M940.861 390.791H932.644V402.316H940.861V390.791ZM934.483 400.809V392.258H939.061V400.809H934.483ZM944.325 406.679H946.183V389.108H944.325V406.679ZM954.323 393.902V390.713H952.523V393.98C952.533 396.964 951.222 400.065 948.747 401.552L949.901 402.942C951.603 401.905 952.816 400.007 953.452 397.786C954.059 399.811 955.164 401.562 956.808 402.55L957.845 401.122C955.497 399.684 954.323 396.7 954.323 393.902ZM955.947 396.817H958.667V405.779H960.428V389.441H958.667V395.272H955.947V396.817ZM962.287 406.64H964.067V389.108H962.287V406.64ZM975.239 390.595H967.1V398.833H975.239V395.409H979.055V401.905H980.914V389.128H979.055V393.922H975.239V390.595ZM968.939 397.365V392.102H973.42V397.365H968.939ZM969.526 406.268H981.383V404.761H971.385V400.711H969.526V406.268ZM990.071 394.274V392.415H994.062V390.869H984.181V392.415H988.192V394.274C988.173 397.297 986.216 400.584 983.575 401.826L984.651 403.294C986.696 402.296 988.339 400.163 989.151 397.659C989.963 399.997 991.607 401.934 993.671 402.844L994.688 401.396C991.988 400.242 990.061 397.209 990.071 394.274ZM996.273 406.64H998.132V389.108H996.273V406.64Z" fill="#3E9BFB"/>
<rect x="895.177" y="379.968" width="141.683" height="36.018" rx="5.00898" stroke="#3E9BFB" stroke-width="1.43114"/>
<rect x="895.177" y="428.866" width="141.683" height="36.018" rx="5.00898" fill="white"/>
<path d="M933.181 453.875L934.472 450.138H939.99L941.281 453.875H943.57L938.463 439.709H935.979L930.891 453.875H933.181ZM935.088 448.338L937.172 442.292H937.27L939.364 448.338H935.088ZM947.523 439.709H945.37V453.875H947.523V439.709ZM958.499 440.492V439.161H956.543V440.492C956.533 443.348 953.51 446.029 950.184 446.655L951.005 448.201C953.813 447.575 956.386 445.745 957.541 443.29C958.675 445.755 961.248 447.594 964.056 448.201L964.917 446.655C961.542 446.048 958.499 443.348 958.499 440.492ZM949.597 453.229H965.641V451.684H949.597V453.229ZM981.49 438.007H979.611V455.538H981.49V438.007ZM966.874 449.747L967.089 451.292C970.317 451.282 974.485 451.224 978.281 450.607L978.183 449.238C977.312 449.336 976.412 449.424 975.503 449.492V441.333H977.322V439.807H967.343V441.333H969.183V449.727C968.371 449.737 967.598 449.747 966.874 449.747ZM970.983 449.698V441.333H973.683V449.6C972.773 449.639 971.863 449.678 970.983 449.698ZM993.171 439.787H985.168V441.294H991.322C991.253 442.292 991.087 443.25 990.813 444.151L984.268 444.561L984.562 446.166L990.246 445.628C989.179 447.858 987.281 449.747 984.21 451.312L985.247 452.721C991.478 449.551 993.161 444.953 993.171 439.787ZM993.132 446.479H996.986V455.538H998.826V438.007H996.986V444.953H993.132V446.479Z" fill="#3E9BFB"/>
<rect x="895.177" y="428.866" width="141.683" height="36.018" rx="5.00898" stroke="#3E9BFB" stroke-width="1.43114"/>
<rect x="895.177" y="477.764" width="141.683" height="36.018" rx="5.00898" fill="white"/>
<path d="M948.355 488.862H941.33V500.21H942.504C945.302 500.21 947.005 500.132 949.059 499.76L948.903 498.234C947.054 498.547 945.488 498.625 943.111 498.645V494.947H948.061V493.479H943.111V490.349H948.355V488.862ZM950.077 503.576H951.857V495.377H953.97V504.437H955.751V486.905H953.97V493.871H951.857V487.238H950.077V503.576ZM974.241 489.39H971.756V486.905H969.897V497.256H971.756V494.693H974.241V493.147H971.756V490.916H974.241V489.39ZM958.255 492.09C958.236 494.536 960.232 496.248 962.912 496.258C965.603 496.248 967.569 494.536 967.588 492.09C967.569 489.625 965.603 487.923 962.912 487.923C960.232 487.923 958.236 489.625 958.255 492.09ZM960.075 492.09C960.055 490.544 961.269 489.478 962.912 489.488C964.556 489.478 965.759 490.544 965.769 492.09C965.759 493.646 964.556 494.673 962.912 494.693C961.269 494.673 960.055 493.646 960.075 492.09ZM960.212 501.071C960.212 503.165 962.482 504.407 966.101 504.397C969.682 504.407 971.913 503.165 971.913 501.071C971.913 498.968 969.682 497.735 966.101 497.725C962.482 497.735 960.212 498.968 960.212 501.071ZM962.071 501.071C962.061 499.897 963.568 499.222 966.101 499.232C968.616 499.222 970.103 499.897 970.093 501.071C970.103 502.265 968.616 502.92 966.101 502.91C963.568 502.92 962.061 502.265 962.071 501.071ZM985.061 487.962H976.217V489.488H983.212C983.202 490.525 983.144 491.807 982.772 493.519L984.611 493.675C985.051 491.66 985.051 490.075 985.061 488.96V487.962ZM975.161 495.182L975.337 496.727C978.487 496.718 982.615 496.62 986.274 496.003L986.157 494.693C984.396 494.908 982.469 495.035 980.581 495.103V491.797H978.741V495.152C977.469 495.172 976.247 495.182 975.161 495.182ZM977.45 501.149C977.45 503.204 979.71 504.388 983.379 504.378C987.047 504.388 989.307 503.204 989.307 501.149C989.307 499.173 987.047 497.98 983.379 497.98C979.71 497.98 977.45 499.173 977.45 501.149ZM979.328 501.149C979.319 500.073 980.845 499.428 983.379 499.428C985.903 499.428 987.409 500.073 987.429 501.149C987.409 502.314 985.903 502.92 983.379 502.91C980.845 502.92 979.319 502.314 979.328 501.149ZM987.272 497.764H989.17V493.088H991.596V491.542H989.17V486.905H987.272V497.764Z" fill="#3E9BFB"/>
<rect x="895.177" y="477.764" width="141.683" height="36.018" rx="5.00898" stroke="#3E9BFB" stroke-width="1.43114"/>
<rect x="895.177" y="551.225" width="141.683" height="36.018" rx="5.00898" fill="white"/>
<path d="M927.364 560.366H925.584V577.898H927.364V560.366ZM912.474 567.938C912.474 571.744 913.961 574.131 916.25 574.121C918.422 574.131 919.88 572.008 920.046 568.584H922.023V577.037H923.803V560.699H922.023V567.077H920.037C919.821 563.79 918.383 561.765 916.25 561.775C913.961 561.765 912.474 564.142 912.474 567.938ZM914.196 567.938C914.196 565.14 914.988 563.506 916.25 563.516C917.542 563.506 918.344 565.14 918.344 567.938C918.344 570.726 917.542 572.37 916.25 572.36C914.988 572.37 914.196 570.726 914.196 567.938ZM944.23 560.366H942.372V566.021H937.147V567.547H942.372V577.937H944.23V560.366ZM930.534 573.71H931.943C934.692 573.72 937.235 573.564 940.063 572.986L939.828 571.46C937.274 571.969 934.917 572.125 932.412 572.165V562.303H930.534V573.71ZM953.368 565.532V563.673H957.359V562.127H947.478V563.673H951.489V565.532C951.47 568.555 949.513 571.842 946.872 573.084L947.948 574.552C949.993 573.554 951.636 571.421 952.448 568.917C953.26 571.255 954.904 573.192 956.968 574.102L957.985 572.654C955.285 571.499 953.358 568.467 953.368 565.532ZM959.57 577.898H961.429V560.366H959.57V577.898ZM980.272 574.18H973.13V570.58H978.374V561.56H976.534V564.573H967.925V561.56H966.066V570.58H971.291V574.18H964.227V575.726H980.272V574.18ZM967.925 569.073V566.079H976.534V569.073H967.925ZM995.729 562.049H983.226V563.555H993.87V563.771C993.86 565.874 993.86 568.359 993.185 571.754L995.064 571.949C995.719 568.359 995.719 565.933 995.729 563.771V562.049ZM981.543 575.53H997.529V573.984H989.468V567.801H987.628V573.984H981.543V575.53ZM1005.18 564.827V561.834H1003.3V564.827C1003.29 568.075 1001.48 571.45 998.762 572.752L999.936 574.258C1001.96 573.211 1003.49 571.079 1004.26 568.555C1005.03 570.951 1006.54 572.928 1008.53 573.926L1009.66 572.439C1006.98 571.235 1005.18 568.036 1005.18 564.827ZM1007.72 567.703H1011.64V577.937H1013.48V560.366H1011.64V566.197H1007.72V567.703Z" fill="#3E9BFB"/>
<rect x="895.177" y="551.225" width="141.683" height="36.018" rx="5.00898" stroke="#3E9BFB" stroke-width="1.43114"/>
<rect x="895.177" y="594.399" width="141.683" height="36.018" rx="5.00898" fill="white"/>
<path d="M932.929 604.87H924.085V606.397H931.099C931.08 607.502 931.021 608.921 930.64 610.858L932.479 611.034C932.909 608.764 932.909 607.023 932.929 605.849V604.87ZM923.028 612.54L923.204 614.047C926.296 614.037 930.483 613.969 934.142 613.323L934.025 611.973C932.264 612.227 930.326 612.364 928.448 612.443V608.803H926.609V612.501C925.327 612.531 924.104 612.54 923.028 612.54ZM925.689 620.7H937.605V619.193H927.548V615.515H925.689V620.7ZM935.14 616.708H937.038V610.682H939.444V609.116H937.038V603.54H935.14V616.708ZM955.039 603.54H953.18V621.11H955.039V603.54ZM941.46 606.631H947.78V610.036H941.479V616.904H942.966C946.068 616.894 948.709 616.777 951.81 616.258L951.634 614.732C948.699 615.211 946.224 615.348 943.377 615.358V611.523H949.678V605.125H941.46V606.631ZM972.316 603.54H970.457V621.11H972.316V603.54ZM958.776 616.904H967.189V605.007H965.35V609.508H960.635V605.007H958.776V616.904ZM960.635 615.378V610.975H965.35V615.378H960.635ZM988.889 603.481H987.03V613.127H988.889V609.116H991.452V607.59H988.889V603.481ZM975.133 606.494H985.582V605.027H981.297V603.383H979.438V605.027H975.133V606.494ZM976.092 610.036C976.082 611.816 977.785 612.902 980.358 612.893C982.931 612.902 984.604 611.816 984.604 610.036C984.604 608.265 982.931 607.16 980.358 607.16C977.785 607.16 976.082 608.265 976.092 610.036ZM977.56 615.338H987.049V616.708H977.599V620.895H989.495V619.486H979.418V618.019H988.889V613.949H977.56V615.338ZM977.892 610.036C977.873 609.087 978.841 608.5 980.358 608.49C981.864 608.5 982.843 609.087 982.862 610.036C982.843 610.985 981.864 611.543 980.358 611.543C978.841 611.543 977.873 610.985 977.892 610.036ZM1006.97 603.559H1005.11V616.297H1006.97V603.559ZM992.782 609.077C992.792 611.65 994.807 613.44 997.459 613.44C1000.1 613.44 1002.12 611.65 1002.12 609.077C1002.12 606.543 1000.1 604.743 997.459 604.733C994.807 604.743 992.792 606.543 992.782 609.077ZM994.602 609.077C994.592 607.463 995.825 606.357 997.459 606.357C999.063 606.357 1000.3 607.463 1000.3 609.077C1000.3 610.731 999.063 611.816 997.459 611.816C995.825 611.816 994.592 610.731 994.602 609.077ZM995.502 620.7H1007.5V619.193H997.38V615.006H995.502V620.7Z" fill="#3E9BFB"/>
<rect x="895.177" y="594.399" width="141.683" height="36.018" rx="5.00898" stroke="#3E9BFB" stroke-width="1.43114"/>
<rect x="895.177" y="637.573" width="141.683" height="36.018" rx="5.00898" fill="white"/>
<path d="M947.67 655.245H940.568V653.386H945.812V651.899H935.5V648.983H945.694V647.516H933.661V653.386H938.768V655.245H931.665V656.732H947.67V655.245ZM933.563 661.056C933.563 663.091 935.843 664.235 939.648 664.245C943.425 664.235 945.684 663.091 945.694 661.056C945.684 659.021 943.425 657.876 939.648 657.867C935.843 657.876 933.563 659.021 933.563 661.056ZM935.442 661.056C935.432 659.95 936.968 659.314 939.648 659.314C942.29 659.314 943.835 659.95 943.835 661.056C943.835 662.181 942.29 662.797 939.648 662.778C936.968 662.797 935.432 662.181 935.442 661.056ZM951.642 648.533H949.784V659.882H950.938C953.11 659.882 955.057 659.794 957.336 659.314L957.082 657.73C955.135 658.14 953.443 658.248 951.642 658.277V648.533ZM954.695 654.012H958.53V663.384H960.291V647.105H958.53V652.486H954.695V654.012ZM962.287 664.245H964.048V646.714H962.287V664.245ZM980.914 646.714H979.055V651.175H975.787V652.701H979.055V657.143H980.914V646.714ZM966.298 655.558L967.276 657.045C969.37 656.272 970.906 654.697 971.669 652.74C972.432 654.472 973.88 655.881 975.846 656.556L976.805 655.088C974.154 654.188 972.569 652.026 972.578 649.805V649.433H976.335V647.927H966.885V649.433H970.68V649.825C970.69 652.241 969.017 654.609 966.298 655.558ZM969.115 660.938C969.105 663.022 971.356 664.235 975.044 664.245C978.712 664.235 980.963 663.022 980.972 660.938C980.963 658.855 978.712 657.642 975.044 657.632C971.356 657.642 969.105 658.855 969.115 660.938ZM970.954 660.938C970.945 659.745 972.471 659.07 975.044 659.08C977.597 659.07 979.123 659.745 979.133 660.938C979.123 662.122 977.597 662.797 975.044 662.778C972.471 662.797 970.945 662.122 970.954 660.938ZM999.658 660.528H992.517V656.927H997.76V647.907H995.921V650.92H987.312V647.907H985.453V656.927H990.677V660.528H983.614V662.073H999.658V660.528ZM987.312 655.421V652.427H995.921V655.421H987.312Z" fill="#3E9BFB"/>
<rect x="895.177" y="637.573" width="141.683" height="36.018" rx="5.00898" stroke="#3E9BFB" stroke-width="1.43114"/>
<rect x="895.177" y="680.745" width="141.683" height="36.018" rx="5.00898" fill="white"/>
<path d="M955.183 689.886H953.325V707.456H955.183V689.886ZM941.272 697.34C941.272 701.126 943.16 703.514 945.811 703.504C948.413 703.514 950.331 701.126 950.331 697.34C950.331 693.593 948.413 691.206 945.811 691.197C943.16 691.206 941.272 693.593 941.272 697.34ZM943.072 697.34C943.062 694.591 944.177 692.869 945.811 692.86C947.416 692.869 948.531 694.591 948.531 697.34C948.531 700.129 947.416 701.841 945.811 701.841C944.177 701.841 943.062 700.129 943.072 697.34ZM972.93 689.886H971.169V703.191H972.93V689.886ZM958.725 699.943H965.593V696.401H967.745V702.643H969.506V690.199H967.745V694.895H965.593V691.275H963.871V694.151H960.486V691.275H958.725V699.943ZM960.486 698.436V695.579H963.871V698.436H960.486ZM961.308 707.045H973.439V705.539H963.147V701.391H961.308V707.045ZM989.522 699.219H979.191V696.675H988.975V695.208H979.191V692.84H989.346V691.334H977.313V700.706H989.522V699.219ZM975.298 705.206H991.342V703.68H975.298V705.206Z" fill="#3E9BFB"/>
<rect x="895.177" y="680.745" width="141.683" height="36.018" rx="5.00898" stroke="#3E9BFB" stroke-width="1.43114"/>
<path d="M67.9805 24.3301V244.725H509.486" stroke="#3E9BFB" stroke-width="1.43114" stroke-dasharray="2.86 2.86"/>
<rect x="0.589844" width="133.347" height="48.4491" rx="5.72455" fill="#3E9BFB"/>
<path d="M31.4022 15.6055V13.7048H28.6071V15.6055C28.5931 19.6865 24.2745 23.5159 19.5227 24.4104L20.6967 26.6186C24.7078 25.7241 28.3834 23.1106 30.0326 19.6026C31.6538 23.1246 35.3295 25.752 39.3406 26.6186L40.5705 24.4104C35.7488 23.5438 31.4022 19.6865 31.4022 15.6055ZM18.6841 33.8022H41.6047V31.594H18.6841V33.8022ZM64.106 12.8103H45.518V14.8229H49.1797V19.1554H45.6298V21.1959H63.9942V19.1554H60.4722V14.8229H64.106V12.8103ZM43.4216 25.1371H66.2583V23.0407H43.4216V25.1371ZM46.1609 29.0783H60.7518V30.9511H46.1888V36.849H64.078V34.8364H48.7883V32.8239H63.3792V27.0937H46.1609V29.0783ZM51.8071 19.1554V14.8229H57.8168V19.1554H51.8071ZM78.3894 14.6831H68.9137V16.8633H75.8178V21.5593H68.9417V31.2586H70.6467C73.7634 31.2306 76.5586 31.1468 80.0386 30.5318L79.815 28.4075C76.7961 28.8827 74.2246 29.0084 71.5132 29.0224V23.7395H78.3894V14.6831ZM81.4362 35.8147H83.868V23.9631H87.1104V37.1005H89.654V12.0556H87.1104V21.8108H83.868V12.5587H81.4362V35.8147ZM102.093 18.4286V14.152H99.4092V18.4286C99.4092 23.2084 96.642 28.0022 92.7008 29.7492L94.322 31.9853C97.3268 30.5178 99.6329 27.499 100.793 23.8234C101.967 27.2475 104.245 30.0566 107.124 31.4263L108.717 29.3299C104.832 27.6108 102.065 22.9988 102.093 18.4286ZM110.981 37.1564H113.637V12.0556H110.981V37.1564Z" fill="white"/>
<rect x="0.715569" y="94.1648" width="133.096" height="47.018" rx="5.00898" fill="white"/>
<path d="M53.5208 118.698H43.4022V116.28C48.0702 116.001 51.0191 114.17 51.0331 111.235C51.0191 108.118 47.5112 106.218 42.0885 106.204C36.6379 106.218 33.1299 108.118 33.1439 111.235C33.1299 114.17 36.0788 116.001 40.7748 116.28V118.698H30.6841V120.878H53.5208V118.698ZM33.5632 130.019H50.9493V127.866H36.2466V122.751H33.5632V130.019ZM35.8832 111.235C35.8692 109.446 38.2451 108.342 42.0885 108.356C45.9179 108.342 48.3078 109.446 48.2938 111.235C48.3078 113.122 45.9179 114.156 42.0885 114.17C38.2451 114.156 35.8692 113.122 35.8832 111.235ZM78.3421 125.239H68.1397V120.096H75.6308V107.21H73.0033V111.514H60.7045V107.21H58.049V120.096H65.5122V125.239H55.4216V127.447H78.3421V125.239ZM60.7045 117.943V113.667H73.0033V117.943H60.7045ZM100.927 105.505H98.2718V120.767H100.927V105.505ZM81.6684 118.614H83.7648C89.3831 118.6 92.5417 118.475 96.1755 117.776L95.9239 115.595C92.4718 116.266 89.467 116.448 84.2959 116.462V109.586H93.5759V107.434H81.6684V118.614ZM83.9884 125.714C83.9884 128.747 87.2169 130.536 92.5138 130.55C97.7408 130.536 100.997 128.747 101.011 125.714C100.997 122.653 97.7408 120.864 92.5138 120.878C87.2169 120.864 83.9884 122.653 83.9884 125.714ZM86.6718 125.714C86.6718 123.939 88.8101 122.975 92.5138 122.975C96.1894 122.975 98.3976 123.939 98.3837 125.714C98.3976 127.433 96.1894 128.425 92.5138 128.425C88.8101 128.425 86.6718 127.433 86.6718 125.714Z" fill="#3E9BFB"/>
<rect x="0.715569" y="94.1648" width="133.096" height="47.018" rx="5.00898" stroke="#3E9BFB" stroke-width="1.43114"/>
<path d="M9.59791 245.575L67.2626 187.91L124.927 245.575L67.2626 303.24L9.59791 245.575Z" fill="white" stroke="#3E9BFB" stroke-width="1.43114"/>
<path d="M48.8859 252.98H25.9654V255.216H48.8859V252.98ZM27.922 237.886H31.7235V246.243H27.9779V248.368H46.7057V246.243H42.9601V237.886H46.7896V235.706H27.922V237.886ZM34.351 246.243V237.886H40.3606V246.243H34.351ZM73.6234 253.12H63.4209V248.731H71.4152V246.551H56.1255V242.889H70.8282V235.063H53.4421V237.243H68.2007V240.765H53.498V248.731H60.7935V253.12H50.7028V255.356H73.6234V253.12ZM96.2644 233.302H93.581V246.243H96.2644V233.302ZM75.8595 243.364L76.167 245.489C80.5694 245.503 86.3974 245.321 91.4008 244.566L91.289 242.638C90.1569 242.777 88.955 242.889 87.7391 242.973V237.047H90.143V234.951H76.5304V237.047H78.9063V243.336C77.8441 243.35 76.8099 243.364 75.8595 243.364ZM79.633 249.486H93.6369V251.666H79.7169V258.095H97.1309V255.971H82.3164V253.595H96.2644V247.389H79.633V249.486ZM81.4499 243.281V237.047H85.1955V243.127C83.9376 243.197 82.6798 243.239 81.4499 243.281ZM104.287 249.961V250.129H107.138V249.961C107.18 247.683 107.837 246.677 109.514 245.656C111.289 244.566 112.365 243.071 112.365 240.821C112.365 237.634 109.933 235.454 106.299 235.454C102.973 235.454 100.29 237.397 100.178 240.961H103.196C103.322 238.892 104.79 237.97 106.299 237.97C107.976 237.97 109.318 239.074 109.318 240.821C109.318 242.288 108.424 243.322 107.25 244.035C105.405 245.181 104.329 246.299 104.287 249.961ZM103.839 254.182C103.825 255.272 104.734 256.152 105.824 256.166C106.9 256.152 107.795 255.272 107.809 254.182C107.795 253.092 106.9 252.197 105.824 252.197C104.734 252.197 103.825 253.092 103.839 254.182Z" fill="#3E9BFB"/>
<rect x="198.212" y="218.249" width="141.683" height="47.018" rx="5.00898" fill="white"/>
<path d="M255.398 249.407H245.195V245.018H253.189V242.838H237.9V239.176H252.602V231.35H235.216V233.53H249.975V237.052H235.272V245.018H242.568V249.407H232.477V251.643H255.398V249.407ZM277.06 232.132H259.674V234.313H274.433V234.816C274.433 237.974 274.433 241.65 273.427 246.667L276.138 246.919C277.06 241.566 277.06 238.058 277.06 234.816V232.132ZM257.215 251.084H280.051V248.876H257.215V251.084ZM302.72 229.617H300.065V247.813H302.72V229.617ZM282.455 237.499C282.469 241.175 285.348 243.732 289.136 243.732C292.909 243.732 295.788 241.175 295.788 237.499C295.788 233.879 292.909 231.308 289.136 231.294C285.348 231.308 282.469 233.879 282.455 237.499ZM285.055 237.499C285.041 235.193 286.802 233.614 289.136 233.614C291.428 233.614 293.189 235.193 293.189 237.499C293.189 239.861 291.428 241.412 289.136 241.412C286.802 241.412 285.041 239.861 285.055 237.499ZM286.34 254.103H303.475V251.95H289.024V245.969H286.34V254.103Z" fill="#3E9BFB"/>
<rect x="198.212" y="218.249" width="141.683" height="47.018" rx="5.00898" stroke="#3E9BFB" stroke-width="1.43114"/>
<rect x="198.212" y="309.632" width="141.683" height="47.018" rx="5.00898" fill="white"/>
<path d="M235.101 320.972H232.445V345.989H235.101V333.159H238.986V330.95H235.101V320.972ZM215.618 339.308L217.1 341.377C225.346 337.31 228.532 330.839 228.56 323.599H216.876V325.807H225.849C225.304 331.649 221.894 336.177 215.618 339.308ZM261.096 320.972H258.441V334.416H261.096V320.972ZM240.831 327.932C240.845 331.356 243.668 333.746 247.511 333.718C251.341 333.746 254.164 331.356 254.164 327.932C254.164 324.494 251.341 322.104 247.511 322.118C243.668 322.104 240.845 324.494 240.831 327.932ZM243.43 327.932C243.417 325.793 245.136 324.34 247.511 324.354C249.859 324.34 251.564 325.793 251.564 327.932C251.564 330.098 249.859 331.537 247.511 331.537C245.136 331.537 243.417 330.098 243.43 327.932ZM244.716 345.709H261.096V335.618H258.469V338.442H247.316V335.618H244.716V345.709ZM247.316 343.529V340.538H258.469V343.529H247.316ZM284.576 320.972H281.948V346.017H284.576V333.326H288.601V331.118H284.576V320.972ZM264.925 327.065H279.768V324.885H273.758V321.307H271.103V324.885H264.925V327.065ZM266.211 334.724C266.211 338.162 268.839 340.552 272.445 340.566C276.036 340.552 278.664 338.162 278.678 334.724C278.664 331.314 276.036 328.91 272.445 328.91C268.839 328.91 266.211 331.314 266.211 334.724ZM268.755 334.724C268.741 332.586 270.306 331.104 272.445 331.09C274.569 331.104 276.12 332.586 276.134 334.724C276.12 336.904 274.569 338.358 272.445 338.33C270.306 338.358 268.741 336.904 268.755 334.724ZM310.627 320.972H307.943V346.017H310.627V320.972ZM290.054 339.308L291.452 341.46C300.047 337.337 303.164 330.992 303.164 323.655H291.256V325.779H300.48C299.963 331.621 296.707 336.136 290.054 339.308Z" fill="#3E9BFB"/>
<rect x="198.212" y="309.632" width="141.683" height="47.018" rx="5.00898" stroke="#3E9BFB" stroke-width="1.43114"/>
<rect x="432.203" y="217.533" width="143.114" height="48.6587" rx="5.72455" fill="#3E9BFB"/>
<path d="M512.226 247.087H494.923V254.326H512.226V247.087ZM492.184 245.382H515.021V243.285H504.93V241.58C509.375 241.398 511.82 240.211 511.806 238.058C511.82 235.724 508.871 234.522 503.589 234.508C498.334 234.522 495.357 235.724 495.371 238.058C495.357 240.211 497.844 241.398 502.275 241.58V243.285H492.184V245.382ZM493.358 233.614H513.735V231.573H504.93V229.253H502.275V231.573H493.358V233.614ZM497.551 252.286V249.127H509.654V252.286H497.551ZM498.194 238.058C498.18 236.912 500.095 236.353 503.589 236.325C507.11 236.353 508.983 236.912 508.983 238.058C508.983 239.19 507.11 239.791 503.589 239.791C500.095 239.791 498.18 239.19 498.194 238.058Z" fill="white"/>
<path d="M577.465 243.294H614.674M614.674 243.294V301.255M614.674 243.294V57.2461H649.737M614.674 301.255H862.977M614.674 301.255V422.186M614.674 422.186H862.977M614.674 422.186V543.833H862.977" stroke="#3E9BFB" stroke-width="1.43114" stroke-dasharray="2.86 2.86"/>
<path d="M794.997 58.6773H862.26M862.26 58.6773V37.9258H892.314M862.26 58.6773V89.4467M862.26 89.4467H892.314M862.26 89.4467V179.608M862.26 179.608H892.314M862.26 179.608V279.788M862.26 179.608H613.242M862.26 279.788H892.314M862.26 279.788V329.162M862.26 329.162H892.314M862.26 329.162V397.141M892.314 698.396H862.26V656.177M862.26 656.177H892.314M862.26 656.177V613.243M862.26 613.243H892.314M862.26 613.243V568.878M862.26 568.878H892.314M862.26 568.878V494.459M862.26 494.459H892.314M862.26 494.459V446.516M862.26 446.516H892.314M862.26 446.516V397.141M862.26 397.141H892.314" stroke="#3E9BFB" stroke-width="1.43114" stroke-dasharray="2.86 2.86"/>
<rect x="651.168" y="36.3027" width="143.114" height="48.4491" rx="5.72455" fill="#3E9BFB"/>
<path d="M731.19 65.8562H713.888V73.0958H731.19V65.8562ZM711.149 64.1512H733.986V62.0548H723.895V60.3497C728.339 60.168 730.785 58.9801 730.771 56.8278C730.785 54.4938 727.836 53.2919 722.553 53.2779C717.298 53.2919 714.322 54.4938 714.335 56.8278C714.322 58.9801 716.809 60.168 721.24 60.3497V62.0548H711.149V64.1512ZM712.323 52.3834H732.7V50.3429H723.895V48.0229H721.24V50.3429H712.323V52.3834ZM716.516 71.0553V67.8967H728.619V71.0553H716.516ZM717.159 56.8278C717.145 55.6817 719.059 55.1227 722.553 55.0948C726.075 55.1227 727.948 55.6817 727.948 56.8278C727.948 57.9598 726.075 58.5608 722.553 58.5608C719.059 58.5608 717.145 57.9598 717.159 56.8278Z" fill="white"/>
<rect x="651.884" y="157.024" width="141.683" height="47.018" rx="5.00898" fill="white"/>
<path d="M721.57 188.098H711.423V182.172H708.768V188.098H698.649V190.279H721.57V188.098ZM699.711 181.026L700.801 183.123C704.77 182.34 708.474 179.95 710.081 176.61C711.716 179.908 715.448 182.256 719.501 183.011L720.563 180.915C715.797 180.174 711.451 176.764 711.451 172.92V172.697H719.585V170.517H700.55V172.697H708.684V172.92C708.684 176.764 704.365 180.244 699.711 181.026ZM744.099 168.364H741.443V193.409H744.099V168.364ZM723.526 186.589L723.89 188.797C728.474 188.811 734.539 188.741 740.102 187.819L739.906 185.834C737.698 186.128 735.35 186.295 733.03 186.407V183.975C735.937 183.556 737.824 181.851 737.838 179.433C737.824 176.61 735.322 174.751 731.66 174.737C728.04 174.751 725.581 176.61 725.595 179.433C725.581 181.879 727.481 183.598 730.402 183.989V186.505C727.943 186.561 725.595 186.575 723.526 186.589ZM724.057 173.479H739.347V171.355H733.058V168.42H730.402V171.355H724.057V173.479ZM728.11 179.433C728.082 177.826 729.564 176.806 731.66 176.806C733.826 176.806 735.294 177.826 735.294 179.433C735.294 181.026 733.826 182.019 731.66 182.005C729.564 182.019 728.082 181.026 728.11 179.433Z" fill="#3E9BFB"/>
<rect x="651.884" y="157.024" width="141.683" height="47.018" rx="5.00898" stroke="#3E9BFB" stroke-width="1.43114"/>
<rect x="651.884" y="277.03" width="141.683" height="47.018" rx="5.00898" fill="white"/>
<path d="M721.542 301.48H698.621V303.604H708.963V308.216H711.591V303.604H721.542V301.48ZM701.472 312.884H718.998V310.732H704.1V306.036H701.472V312.884ZM701.64 299.271H718.523V289.153H715.867V292.199H704.267V289.153H701.64V299.271ZM704.267 297.147V294.184H715.867V297.147H704.267ZM732.219 292.367V289.656H729.564V292.227C729.55 295.931 727.286 299.229 723.358 300.585L724.784 302.737C727.705 301.619 729.829 299.439 730.933 296.658C732.01 299.187 734.05 301.2 736.803 302.206L738.257 300.082C734.483 298.824 732.205 295.693 732.219 292.367ZM727.3 306.623H741.611V313.415H744.266V304.526H727.3V306.623ZM736.328 295.61H741.611V303.213H744.266V288.37H741.611V293.429H736.328V295.61Z" fill="#3E9BFB"/>
<rect x="651.884" y="277.03" width="141.683" height="47.018" rx="5.00898" stroke="#3E9BFB" stroke-width="1.43114"/>
<rect x="651.884" y="397.036" width="141.683" height="47.018" rx="5.00898" fill="white"/>
<path d="M704.87 410.808H701.795V431.045H704.87V410.808ZM726.56 420.926C726.56 414.455 722.675 410.528 717.448 410.528C712.179 410.528 708.308 414.455 708.308 420.926C708.308 427.383 712.179 431.324 717.448 431.324C722.675 431.324 726.56 427.397 726.56 420.926ZM711.355 420.926C711.369 416.007 713.954 413.337 717.448 413.351C720.914 413.337 723.5 416.007 723.514 420.926C723.5 425.846 720.914 428.515 717.448 428.501C713.954 428.515 711.369 425.846 711.355 420.926ZM728.154 413.463H734.471V431.045H737.545V413.463H743.835V410.808H728.154V413.463Z" fill="#3E9BFB"/>
<rect x="651.884" y="397.036" width="141.683" height="47.018" rx="5.00898" stroke="#3E9BFB" stroke-width="1.43114"/>
<rect x="651.884" y="517.044" width="141.683" height="47.018" rx="5.00898" fill="white"/>
<path d="M698.867 530.704H687.379V547.335H689.363C694.087 547.335 697.134 547.181 700.74 546.497L700.432 544.316C697.134 544.945 694.269 545.099 690.062 545.127V532.912H698.867V530.704ZM697.442 539.537H704.402V553.485H707.057V528.384H704.402V537.328H697.442V539.537ZM733.807 548.118H723.605V542.975H731.096V530.089H728.468V534.393H716.169V530.089H713.514V542.975H720.977V548.118H710.886V550.326H733.807V548.118ZM716.169 540.822V536.546H728.468V540.822H716.169ZM756.448 528.384H753.765V553.429H756.448V528.384ZM735.875 546.72L737.273 548.872C745.868 544.75 748.985 538.404 748.985 531.067H737.077V533.191H746.301C745.784 539.033 742.528 543.548 735.875 546.72Z" fill="#3E9BFB"/>
<rect x="651.884" y="517.044" width="141.683" height="47.018" rx="5.00898" stroke="#3E9BFB" stroke-width="1.43114"/>
</svg>
