<svg width="61" height="61" viewBox="0 0 61 61" fill="none" xmlns="http://www.w3.org/2000/svg">
<rect x="1.25732" y="0.902344" width="58.9999" height="58.9999" rx="7.5" fill="#2D2D3C"/>
<mask id="mask0_295_3135" style="mask-type:alpha" maskUnits="userSpaceOnUse" x="13" y="13" width="35" height="35">
<rect x="13.8345" y="13.4785" width="33.8461" height="33.8461" fill="#D9D9D9"/>
</mask>
<g mask="url(#mask0_295_3135)">
<path opacity="0.3" d="M30.7573 30.78L36.911 33.8568L30.7573 36.9336L24.6036 33.8568L30.7573 30.78Z" fill="url(#paint0_linear_295_3135)"/>
<path opacity="0.5" d="M30.7573 27.444L36.911 30.5209L30.7573 33.5977L24.6036 30.5209L30.7573 27.444Z" fill="url(#paint1_linear_295_3135)"/>
<path d="M30.7573 24.319L36.911 27.3959L30.7573 30.4727L24.6036 27.3959L30.7573 24.319Z" fill="url(#paint2_linear_295_3135)"/>
<path d="M19.2188 37.4023C15.3952 30.7798 17.6643 22.3117 24.2868 18.4882C26.4709 17.2272 28.8557 16.6289 31.2085 16.6309" stroke="url(#paint3_linear_295_3135)" stroke-width="3.07692" stroke-linecap="round"/>
<path d="M30.7573 16.5684C38.4043 16.5684 44.6034 22.7675 44.6034 30.4145C44.6034 32.9365 43.9292 35.301 42.7511 37.3375" stroke="url(#paint4_linear_295_3135)" stroke-width="3.07692" stroke-linecap="round"/>
<path d="M43.3594 37.709C39.5359 44.3315 31.0677 46.6005 24.4452 42.777C22.2611 41.516 20.5505 39.7498 19.3759 37.7113" stroke="url(#paint5_linear_295_3135)" stroke-width="3.07692" stroke-linecap="round"/>
</g>
<rect x="1.25732" y="0.902344" width="58.9999" height="58.9999" rx="7.5" stroke="#454954"/>
<defs>
<linearGradient id="paint0_linear_295_3135" x1="27.7504" y1="30.71" x2="33.9041" y2="36.8637" gradientUnits="userSpaceOnUse">
<stop stop-color="#6C79F9"/>
<stop offset="1" stop-color="#AA7BF6"/>
</linearGradient>
<linearGradient id="paint1_linear_295_3135" x1="27.7504" y1="27.3741" x2="33.9041" y2="33.5278" gradientUnits="userSpaceOnUse">
<stop stop-color="#6C79F9"/>
<stop offset="1" stop-color="#AA7BF6"/>
</linearGradient>
<linearGradient id="paint2_linear_295_3135" x1="27.7504" y1="24.2491" x2="33.9041" y2="30.4028" gradientUnits="userSpaceOnUse">
<stop stop-color="#6C79F9"/>
<stop offset="1" stop-color="#AA7BF6"/>
</linearGradient>
<linearGradient id="paint3_linear_295_3135" x1="19.2188" y1="38.8747" x2="32.2956" y2="15.7978" gradientUnits="userSpaceOnUse">
<stop stop-color="#6C79F9" stop-opacity="0"/>
<stop offset="1" stop-color="#AA7BF6"/>
</linearGradient>
<linearGradient id="paint4_linear_295_3135" x1="29.4822" y1="15.8322" x2="42.9289" y2="38.6955" gradientUnits="userSpaceOnUse">
<stop stop-color="#6C79F9" stop-opacity="0"/>
<stop offset="1" stop-color="#AA7BF6"/>
</linearGradient>
<linearGradient id="paint5_linear_295_3135" x1="44.6345" y1="36.9727" x2="18.1109" y2="37.1863" gradientUnits="userSpaceOnUse">
<stop stop-color="#6C79F9" stop-opacity="0"/>
<stop offset="1" stop-color="#AA7BF6"/>
</linearGradient>
</defs>
</svg>
