<svg width="61" height="61" viewBox="0 0 61 61" fill="none" xmlns="http://www.w3.org/2000/svg">
<rect x="1.25244" y="0.902344" width="58.9999" height="58.9999" rx="7.5" fill="#2D2D3C"/>
<path opacity="0.4" d="M18.6372 38.1932L30.7526 31.2701M30.7526 31.2701L42.8679 38.1932M30.7526 31.2701V16.5586" stroke="url(#paint0_linear_295_3134)" stroke-width="0.769229"/>
<circle cx="30.7524" cy="31.2704" r="5.1923" fill="url(#paint1_linear_295_3134)"/>
<path fill-rule="evenodd" clip-rule="evenodd" d="M32.359 16.3366C32.4391 16.1373 32.4831 15.9197 32.4831 15.6917C32.4831 14.7358 31.7083 13.9609 30.7524 13.9609C29.7965 13.9609 29.0216 14.7358 29.0216 15.6917C29.0216 15.8931 29.056 16.0865 29.1192 16.2662L19.9577 22.3615C19.6403 21.9871 19.1664 21.7494 18.637 21.7494C17.6811 21.7494 16.9062 22.5243 16.9062 23.4801C16.9062 24.3038 17.4816 24.9931 18.2524 25.168V36.5038C17.4816 36.6787 16.9062 37.368 16.9062 38.1917C16.9062 39.1475 17.6811 39.9224 18.637 39.9224C19.2261 39.9224 19.7465 39.6281 20.0591 39.1785L29.0956 44.6125C29.0475 44.7714 29.0216 44.9401 29.0216 45.1147C29.0216 46.0706 29.7965 46.8455 30.7524 46.8455C31.7083 46.8455 32.4831 46.0706 32.4831 45.1147C32.4831 44.9156 32.4495 44.7243 32.3876 44.5462L41.4398 39.1699C41.7517 39.6244 42.2749 39.9224 42.8677 39.9224C43.8236 39.9224 44.5985 39.1475 44.5985 38.1917C44.5985 37.368 44.0231 36.6787 43.2523 36.5038V25.168C44.0231 24.9931 44.5985 24.3038 44.5985 23.4801C44.5985 22.5243 43.8236 21.7494 42.8677 21.7494C42.3345 21.7494 41.8577 21.9905 41.5402 22.3696L32.359 16.3366ZM31.9793 43.894L41.1553 38.4442C41.1432 38.3618 41.137 38.2774 41.137 38.1917C41.137 37.368 41.7124 36.6787 42.4831 36.5038V25.168C42.2362 25.112 42.0094 25.0032 41.8151 24.8541L32.4624 30.9997C32.476 31.0874 32.4831 31.1771 32.4831 31.2686C32.4831 32.1189 31.87 32.8259 31.0617 32.9718V43.4115C31.4172 43.4757 31.7349 43.6483 31.9793 43.894ZM30.2925 43.4457V32.9376C29.5598 32.7362 29.0216 32.0652 29.0216 31.2686C29.0216 31.2048 29.0251 31.1419 29.0318 31.0799L19.6824 24.8596C19.4897 25.0059 19.2655 25.1127 19.0216 25.168V36.5038C19.7924 36.6787 20.3678 37.368 20.3678 38.1917C20.3678 38.281 20.361 38.3688 20.3479 38.4546L29.4773 43.9444C29.6938 43.7086 29.9749 43.533 30.2925 43.4457ZM41.1886 23.059L31.9204 16.9689C31.6126 17.2506 31.2025 17.4225 30.7524 17.4225C30.2751 17.4225 29.843 17.2293 29.5299 16.9169L20.3136 23.0487C20.349 23.1866 20.3678 23.3312 20.3678 23.4801C20.3678 23.7632 20.2998 24.0304 20.1793 24.2663L29.2966 30.3322C29.6046 29.8543 30.1415 29.5378 30.7524 29.5378C31.3375 29.5378 31.8548 29.8282 32.1681 30.2727L41.3213 24.2581C41.2034 24.0242 41.137 23.7599 41.137 23.4801C41.137 23.3349 41.1549 23.1938 41.1886 23.059Z" fill="url(#paint2_linear_295_3134)"/>
<rect x="1.25244" y="0.902344" width="58.9999" height="58.9999" rx="7.5" stroke="#454954"/>
<defs>
<linearGradient id="paint0_linear_295_3134" x1="18.6372" y1="27.13" x2="42.8679" y2="27.13" gradientUnits="userSpaceOnUse">
<stop stop-color="#6C79F9"/>
<stop offset="1" stop-color="#AA7BF6"/>
</linearGradient>
<linearGradient id="paint1_linear_295_3134" x1="30.7524" y1="26.0781" x2="30.7524" y2="36.4627" gradientUnits="userSpaceOnUse">
<stop stop-color="#6C79F9" stop-opacity="0.3"/>
<stop offset="1" stop-color="#6C79F9"/>
</linearGradient>
<linearGradient id="paint2_linear_295_3134" x1="16.9063" y1="30.0295" x2="44.5985" y2="30.0295" gradientUnits="userSpaceOnUse">
<stop stop-color="#6C79F9"/>
<stop offset="1" stop-color="#AA7BF6"/>
</linearGradient>
</defs>
</svg>
