<svg width="61" height="61" viewBox="0 0 61 61" fill="none" xmlns="http://www.w3.org/2000/svg">
<rect x="0.737793" y="0.902344" width="58.9999" height="58.9999" rx="7.5" fill="#2D2D3C"/>
<path d="M25.0609 38.0705C19.4628 37.5126 17.5318 36.4235 14.2378 31.9531V37.3015C15.7306 40.6489 20.5824 43.7174 25.0609 43.7174V38.0705Z" fill="#8893FF" fill-opacity="0.7"/>
<path d="M32.1192 29.2032C36.7438 29.4264 37.7661 29.4757 41.0601 31.0078V28.8685C39.8268 27.5295 35.8189 26.3021 32.1192 26.3021V29.2032Z" fill="#863EBE"/>
<path d="M36.3546 22.8072V24.7399C36.3546 26.4431 32.5606 27.8322 27.8843 27.8322C23.208 27.8322 19.4141 26.4431 19.4141 24.7399V22.8072C19.4141 21.104 23.208 19.7148 27.8843 19.7148C32.5606 19.7148 36.3546 21.104 36.3546 22.8072ZM36.3546 27.1557V31.5043C36.3546 33.2075 32.5606 34.5966 27.8843 34.5966C23.208 34.5966 19.4141 33.2075 19.4141 31.5043V27.1557C21.2338 28.557 24.5646 29.2093 27.8843 29.2093C31.2041 29.2093 34.5348 28.557 36.3546 27.1557ZM36.3546 33.9202V38.2688C36.3546 39.972 32.5606 41.3611 27.8843 41.3611C23.208 41.3611 19.4141 39.972 19.4141 38.2688V33.9202C21.2338 35.3214 24.5646 35.9737 27.8843 35.9737C31.2041 35.9737 34.5348 35.3214 36.3546 33.9202Z" fill="url(#paint0_linear_198_3178)"/>
<ellipse cx="27.8843" cy="22.7736" rx="8.47027" ry="3.05871" fill="url(#paint1_linear_198_3178)"/>
<ellipse cx="27.8848" cy="22.5368" rx="3.294" ry="0.941142" fill="#2D2D3C"/>
<g filter="url(#filter0_bdi_198_3178)">
<path d="M30.7085 28.851C30.7085 27.8115 31.5512 26.9688 32.5908 26.9688H42.0022L43.8845 28.6157L46.2373 30.7333V46.7327C46.2373 47.7723 45.3946 48.615 44.355 48.615H32.5908C31.5512 48.615 30.7085 47.7723 30.7085 46.7327V28.851Z" fill="url(#paint2_linear_198_3178)" fill-opacity="0.7" shape-rendering="crispEdges"/>
</g>
<path d="M42.0022 30.7344L42.0022 26.9698L46.2373 30.7344L42.0022 30.7344Z" fill="#D9D9D9"/>
<path d="M42.0024 37.7938L37.5908 34.9703L37.5908 36.4915L34.4733 36.4915L34.4733 39.0961L37.5908 39.0961L37.5908 40.6172L42.0024 37.7938Z" fill="white"/>
<rect x="19.4136" y="16.8965" width="1.88228" height="3.76457" fill="#6C79F9"/>
<rect x="33.5312" y="18.3066" width="1.88228" height="1.88228" fill="#6C79F9"/>
<rect x="30.708" y="12.1895" width="0.941142" height="0.941142" fill="#6C79F9"/>
<rect x="21.7671" y="14.5449" width="1.88228" height="1.88228" fill="#944AF2"/>
<rect x="29.7661" y="13.6016" width="0.941142" height="4.23514" fill="#944AF2"/>
<rect x="34.4722" y="19.248" width="1.88228" height="2.82342" fill="#915EFF" fill-opacity="0.6"/>
<rect x="0.737793" y="0.902344" width="58.9999" height="58.9999" rx="7.5" stroke="#454954"/>
<defs>
<filter id="filter0_bdi_198_3178" x="26.9439" y="24.1453" width="21.1757" height="26.3522" filterUnits="userSpaceOnUse" color-interpolation-filters="sRGB">
<feFlood flood-opacity="0" result="BackgroundImageFix"/>
<feGaussianBlur in="BackgroundImageFix" stdDeviation="0.941142"/>
<feComposite in2="SourceAlpha" operator="in" result="effect1_backgroundBlur_198_3178"/>
<feColorMatrix in="SourceAlpha" type="matrix" values="0 0 0 0 0 0 0 0 0 0 0 0 0 0 0 0 0 0 127 0" result="hardAlpha"/>
<feOffset dx="-1.88228" dy="-0.941142"/>
<feGaussianBlur stdDeviation="0.941142"/>
<feComposite in2="hardAlpha" operator="out"/>
<feColorMatrix type="matrix" values="0 0 0 0 0 0 0 0 0 0 0 0 0 0 0 0 0 0 0.2 0"/>
<feBlend mode="normal" in2="effect1_backgroundBlur_198_3178" result="effect2_dropShadow_198_3178"/>
<feBlend mode="normal" in="SourceGraphic" in2="effect2_dropShadow_198_3178" result="shape"/>
<feColorMatrix in="SourceAlpha" type="matrix" values="0 0 0 0 0 0 0 0 0 0 0 0 0 0 0 0 0 0 127 0" result="hardAlpha"/>
<feOffset dx="-0.352928" dy="0.352928"/>
<feComposite in2="hardAlpha" operator="arithmetic" k2="-1" k3="1"/>
<feColorMatrix type="matrix" values="0 0 0 0 1 0 0 0 0 1 0 0 0 0 1 0 0 0 0.2 0"/>
<feBlend mode="normal" in2="shape" result="effect3_innerShadow_198_3178"/>
</filter>
<linearGradient id="paint0_linear_198_3178" x1="19.4141" y1="30.292" x2="36.3546" y2="30.292" gradientUnits="userSpaceOnUse">
<stop stop-color="#6C79F9"/>
<stop offset="1" stop-color="#AA7BF6"/>
</linearGradient>
<linearGradient id="paint1_linear_198_3178" x1="19.4141" y1="22.704" x2="36.3546" y2="22.704" gradientUnits="userSpaceOnUse">
<stop stop-color="#A5ADFF"/>
<stop offset="1" stop-color="#BB92FF"/>
</linearGradient>
<linearGradient id="paint2_linear_198_3178" x1="38.4729" y1="26.9687" x2="38.4729" y2="52.3796" gradientUnits="userSpaceOnUse">
<stop stop-color="#C9D8ED" stop-opacity="0.6"/>
<stop offset="1" stop-color="#546175"/>
</linearGradient>
</defs>
</svg>
