<svg width="33" height="32" viewBox="0 0 33 32" fill="none" xmlns="http://www.w3.org/2000/svg">
<path d="M2.25 9.833C2.25 9.63132 2.37165 9.45109 2.56391 9.39016C3.31039 9.1536 5.41167 8.61719 9.118 8.61719C12.7034 8.61719 14.7868 8.87539 15.5947 9.00238C15.8249 9.03856 15.9884 9.23636 15.9917 9.46932L16.2407 26.8478C16.2454 27.1767 15.9365 27.4281 15.6126 27.3705C14.6161 27.1934 12.4513 26.897 9.118 26.897C5.86208 26.897 3.8448 27.1798 2.89653 27.358C2.57013 27.4194 2.25 27.1695 2.25 26.8374V9.833Z" fill="#592C91"/>
<g filter="url(#filter0_d_180_4928)">
<path d="M15.9896 9.42463C15.9873 9.25946 15.905 9.10729 15.7645 9.02044C15.0665 8.58905 12.802 7.26939 10.1745 6.58057C7.62761 5.91289 4.70327 6.26674 3.65215 6.43162C3.41671 6.46855 3.25 6.67251 3.25 6.91083V23.9427C3.25 24.2405 3.50874 24.474 3.80567 24.4514C5.04991 24.3567 8.11233 24.2118 10.1745 24.8604C12.0574 25.4527 14.3429 26.5421 15.5004 27.119C15.8401 27.2883 16.2433 27.038 16.2379 26.6585L15.9896 9.42463Z" fill="#944AF2"/>
</g>
<g filter="url(#filter1_b_180_4928)">
<path d="M16.25 9.69313C16.25 9.56885 16.2049 9.45034 16.1191 9.3605C15.5632 8.77896 13.3138 6.53179 10.8452 5.53943C8.71433 4.68286 6.64032 4.52653 5.73063 4.50213C5.4621 4.49492 5.25 4.71306 5.25 4.98169V22.0488C5.25 22.3053 5.44243 22.5208 5.69689 22.5531C6.62891 22.6716 8.85871 22.9997 10.8452 23.6343C12.5272 24.1716 14.3035 25.641 15.3426 26.6056C15.6758 26.915 16.25 26.6795 16.25 26.2247V9.69313Z" fill="#E3E4E8"/>
</g>
<path d="M30.75 9.833C30.75 9.63132 30.6283 9.45109 30.4361 9.39016C29.6896 9.1536 27.5884 8.61719 23.8821 8.61719C20.2968 8.61719 18.2134 8.87539 17.4055 9.00238C17.1754 9.03856 17.0119 9.23636 17.0085 9.46931L16.7596 26.8478C16.7549 27.1767 17.0638 27.4281 17.3876 27.3705C18.3841 27.1934 20.5489 26.897 23.8821 26.897C27.138 26.897 29.1552 27.1798 30.1035 27.358C30.4299 27.4194 30.75 27.1695 30.75 26.8374V9.833Z" fill="#592C91"/>
<g filter="url(#filter2_d_180_4928)">
<path d="M17.0104 9.42267C17.0127 9.25751 17.095 9.10533 17.2355 9.01849C17.9335 8.5871 20.198 7.26743 22.8254 6.57861C25.3722 5.91094 28.2965 6.26479 29.3476 6.42967C29.5831 6.4666 29.7498 6.67056 29.7498 6.90887V23.9407C29.7498 24.2385 29.4911 24.4721 29.1941 24.4495C27.9499 24.3547 24.8875 24.2098 22.8254 24.8584C20.9426 25.4507 18.6571 26.5402 17.4996 27.1171C17.1599 27.2864 16.7567 27.0361 16.7621 26.6566L17.0104 9.42267Z" fill="#944AF2"/>
</g>
<g filter="url(#filter3_b_180_4928)">
<path d="M16.75 9.69312C16.75 9.56885 16.7951 9.45034 16.8809 9.3605C17.4368 8.77897 19.6861 6.53179 22.1547 5.53943C24.2855 4.68286 26.3595 4.52653 27.2692 4.50213C27.5377 4.49492 27.7498 4.71306 27.7498 4.98169V22.0488C27.7498 22.3053 27.5574 22.5208 27.3029 22.5531C26.3709 22.6716 24.1412 22.9997 22.1547 23.6343C20.4727 24.1716 18.6965 25.641 17.6574 26.6056C17.3242 26.915 16.75 26.6795 16.75 26.2247V9.69312Z" fill="#E3E4E8"/>
</g>
<defs>
<filter id="filter0_d_180_4928" x="1.25" y="6.18945" width="16.9878" height="24.9844" filterUnits="userSpaceOnUse" color-interpolation-filters="sRGB">
<feFlood flood-opacity="0" result="BackgroundImageFix"/>
<feColorMatrix in="SourceAlpha" type="matrix" values="0 0 0 0 0 0 0 0 0 0 0 0 0 0 0 0 0 0 127 0" result="hardAlpha"/>
<feOffset dy="2"/>
<feGaussianBlur stdDeviation="1"/>
<feComposite in2="hardAlpha" operator="out"/>
<feColorMatrix type="matrix" values="0 0 0 0 0 0 0 0 0 0 0 0 0 0 0 0 0 0 0.25 0"/>
<feBlend mode="normal" in2="BackgroundImageFix" result="effect1_dropShadow_180_4928"/>
<feBlend mode="normal" in="SourceGraphic" in2="effect1_dropShadow_180_4928" result="shape"/>
</filter>
<filter id="filter1_b_180_4928" x="4.75" y="4.00195" width="12" height="23.2441" filterUnits="userSpaceOnUse" color-interpolation-filters="sRGB">
<feFlood flood-opacity="0" result="BackgroundImageFix"/>
<feGaussianBlur in="BackgroundImageFix" stdDeviation="0.25"/>
<feComposite in2="SourceAlpha" operator="in" result="effect1_backgroundBlur_180_4928"/>
<feBlend mode="normal" in="SourceGraphic" in2="effect1_backgroundBlur_180_4928" result="shape"/>
</filter>
<filter id="filter2_d_180_4928" x="14.7622" y="6.1875" width="16.9878" height="24.9844" filterUnits="userSpaceOnUse" color-interpolation-filters="sRGB">
<feFlood flood-opacity="0" result="BackgroundImageFix"/>
<feColorMatrix in="SourceAlpha" type="matrix" values="0 0 0 0 0 0 0 0 0 0 0 0 0 0 0 0 0 0 127 0" result="hardAlpha"/>
<feOffset dy="2"/>
<feGaussianBlur stdDeviation="1"/>
<feComposite in2="hardAlpha" operator="out"/>
<feColorMatrix type="matrix" values="0 0 0 0 0 0 0 0 0 0 0 0 0 0 0 0 0 0 0.25 0"/>
<feBlend mode="normal" in2="BackgroundImageFix" result="effect1_dropShadow_180_4928"/>
<feBlend mode="normal" in="SourceGraphic" in2="effect1_dropShadow_180_4928" result="shape"/>
</filter>
<filter id="filter3_b_180_4928" x="16.25" y="4.00195" width="12" height="23.2441" filterUnits="userSpaceOnUse" color-interpolation-filters="sRGB">
<feFlood flood-opacity="0" result="BackgroundImageFix"/>
<feGaussianBlur in="BackgroundImageFix" stdDeviation="0.25"/>
<feComposite in2="SourceAlpha" operator="in" result="effect1_backgroundBlur_180_4928"/>
<feBlend mode="normal" in="SourceGraphic" in2="effect1_backgroundBlur_180_4928" result="shape"/>
</filter>
</defs>
</svg>
