<svg width="401" height="308" viewBox="0 0 401 308" fill="none" xmlns="http://www.w3.org/2000/svg">
<g clip-path="url(#clip0_597_10392)">
<rect x="0.0234375" y="0.556641" width="400" height="306.504" rx="12" fill="#131316" fill-opacity="0.6"/>
<g clip-path="url(#clip1_597_10392)">
<rect x="20.0234" y="20.5566" width="80" height="80" rx="40" fill="url(#paint0_linear_597_10392)" fill-opacity="0.5"/>
<rect x="20.0234" y="20.5566" width="80" height="80" rx="40" fill="#DFDCDA"/>
<path d="M43.4048 51.9484C43.2832 43.1911 50.7003 35.9442 53.5223 35.7854C64.9268 28.5421 78.2646 39.5007 79.8953 48.1873C81.526 56.8739 78.6195 58.1402 79.446 65.2649C80.133 71.1868 77.8594 71.2227 80.8594 75.8893C83.8594 80.556 78.9335 80.8066 71.1268 86.1089C68.7209 87.743 61.2223 80.0289 60.3807 85.9999C59.5391 91.9708 55.7642 81.9775 51.5488 87.603C49.7247 90.0374 27.4765 80.5547 39.0589 71.6817C44.8404 67.2527 43.5569 62.895 43.4048 51.9484Z" fill="url(#paint1_linear_597_10392)"/>
<path d="M85.0664 101.492C84.941 96.7025 79.0531 83.6029 74.3492 80.7985C65.8821 77.0773 55.05 78.6089 48.2748 80.7985C43.4509 82.3575 34.5289 95.2356 36.0446 101.492H85.0664Z" fill="url(#paint2_linear_597_10392)"/>
<path d="M55.0273 80.859C57.1847 80.859 57.9394 71.0357 56.6173 64.9639C59.6042 64.9639 66.1895 65.2583 67.102 65.8426C68.5297 66.7569 64.4165 74.8361 67.9421 80.859C67.9421 80.859 67.8809 91.8727 64.5439 91.6641C61.207 91.4555 55.0273 80.859 55.0273 80.859Z" fill="#D67967"/>
<mask id="mask0_597_10392" style="mask-type:alpha" maskUnits="userSpaceOnUse" x="53" y="64" width="15" height="28">
<path d="M53.5417 81.8861C55.422 80.8284 58.2814 71.6379 56.6126 64.9629C59.5995 64.9629 66.1855 65.2571 67.0979 65.8414C68.5256 66.7557 64.4124 74.8349 67.938 80.8578L62.6909 91.2549C60.1937 88.7086 51.6614 82.9438 53.5417 81.8861Z" fill="#D67967"/>
</mask>
<g mask="url(#mask0_597_10392)">
<path d="M69.0056 65.6944L71.0622 78.0339C71.0622 78.0339 68.2711 79.9436 61.5138 73.1862C54.7565 66.4289 53.1406 64.3724 53.1406 64.3724L54.9034 60.1123L69.0056 65.6944Z" fill="url(#paint3_linear_597_10392)"/>
</g>
<path d="M49.1114 42.5731C54.384 31.2571 66.5108 32.2007 70.9112 35.7832C74.8197 34.7354 75.439 37.396 75.2601 38.8572L62.3883 66.3091C59.4753 64.8553 55.5368 68.1591 54.9506 64.3381C54.218 59.562 42.5207 56.7182 49.1114 42.5731Z" fill="url(#paint4_linear_597_10392)"/>
<path d="M75.378 65.6936C76.082 66.875 76.3058 70.3282 74.3856 70.888C72.836 71.3397 71.4566 68.3842 72.6191 66.2134" stroke="url(#paint5_linear_597_10392)" stroke-width="0.834382" stroke-linecap="round"/>
<path d="M81.1873 41.8675C79.2822 37.4356 69.4834 36.5902 66.6354 38.1897C62.6893 41.6232 70.2725 45.914 70.8479 49.1646C71.3083 51.7651 71.6025 59.8275 71.6921 63.5336C72.5195 62.5949 74.6232 59.0087 77.3932 56.2477C79.1135 51.9401 83.0925 46.2993 81.1873 41.8675Z" fill="url(#paint6_linear_597_10392)"/>
<path d="M78.3406 54.1743C79.0838 52.1627 79.5665 49.323 76.3404 42.7245C73.1144 36.126 61.6579 40.5184 59.286 42.7572C56.9141 44.9961 55.0672 54.6634 54.5717 54.1201C54.0763 53.5768 52.9781 53.0679 51.459 53.9741C49.9398 54.8803 49.7663 58.1374 49.6689 60.2125C49.5716 62.2877 51.7424 63.4502 52.6146 64.3646C53.3123 65.0961 55.3922 65.7427 56.345 65.9746C56.8723 68.6309 65.9558 74.9478 69.2753 74.0117C72.5948 73.0755 72.5899 72.2355 74.6749 68.5791C76.4265 65.5072 77.6235 61.8475 77.287 59.6894C76.9725 57.673 77.4115 56.6888 78.3406 54.1743Z" fill="url(#paint7_radial_597_10392)"/>
<g filter="url(#filter0_f_597_10392)">
<path d="M74.1485 61.5854C73.9323 62.7169 72.8398 63.459 71.7082 63.2428C70.5766 63.0267 69.2199 61.8167 69.4361 60.6851C69.6522 59.5535 70.4433 57.0549 71.5749 57.2711C72.7064 57.4873 74.3647 60.4538 74.1485 61.5854Z" fill="#D8806F" fill-opacity="0.6"/>
</g>
<path d="M55.0907 58.335C55.3857 59.1391 54.699 59.6061 54.0116 60.073C53.0906 60.6985 53.8819 61.5435 53.8802 61.5432C53.0832 62.5874 52.9652 62.4153 51.2824 61.0469C49.5996 59.6785 50.3778 56.3877 52.0137 55.6534C53.6495 54.919 54.7956 57.5308 55.0907 58.335Z" fill="#B15A46"/>
<path d="M55.771 63.9209C56.6843 64.9492 57.5521 68.2991 55.771 69.2092C54.3337 69.9437 52.4242 67.2996 53.1587 64.9492" stroke="url(#paint8_linear_597_10392)" stroke-width="0.834382" stroke-linecap="round"/>
<path d="M65.4256 65.1231C70.9496 67.521 71.7418 67.0277 73.0729 66.5841C73.0015 66.3311 72.5076 66.1507 72.3381 65.7331C72.2214 65.5612 71.7133 65.8723 71.3971 65.9614C71.1442 66.0327 70.6569 65.6612 70.2905 65.4915L65.4256 65.1231Z" fill="#933C42"/>
<path d="M62.6184 53.6089C63.5758 52.6872 64.1865 53.0307 65.1557 52.8329C65.9248 52.676 67.3787 53.9027 68.1018 54.4274C68.5458 54.8535 68.6098 56.1943 68.5507 56.5454C68.4916 56.8964 66.7037 57.0806 65.5323 56.8833L65.528 56.8826C64.3593 56.6857 63.6799 56.5712 63.0951 56.3364C62.5047 56.0994 61.6611 54.5307 62.6184 53.6089Z" fill="#EDF1FA"/>
<mask id="mask1_597_10392" style="mask-type:alpha" maskUnits="userSpaceOnUse" x="62" y="52" width="7" height="5">
<path d="M62.6145 53.6089C63.5719 52.6872 64.1826 53.0307 65.1518 52.8329C65.9209 52.676 67.3748 53.9027 68.0978 54.4274C68.5419 54.8535 68.6059 56.1943 68.5468 56.5454C68.4877 56.8964 66.6998 57.0806 65.5284 56.8833L65.5241 56.8826C64.3554 56.6857 63.676 56.5712 63.0912 56.3364C62.5007 56.0994 61.6572 54.5307 62.6145 53.6089Z" fill="#EDF1FA"/>
</mask>
<g mask="url(#mask1_597_10392)">
<path d="M64.7286 55.8899C64.3946 54.6555 64.7156 53.848 65.2136 53.0102C65.8537 52.3902 68.4289 53.5177 68.5938 54.1276C68.7588 54.7375 68.4205 56.3732 67.5044 56.9918C66.2963 57.8077 65.2238 57.7202 64.7286 55.8899Z" fill="url(#paint9_linear_597_10392)"/>
<ellipse cx="66.6234" cy="54.5342" rx="0.834382" ry="1.04298" fill="#14080E"/>
</g>
<path d="M63.092 56.3498C62.4394 55.7742 62.1239 54.8582 62.2705 54.2523C62.8712 53.3702 63.7479 53.3635 64.5098 53.2673C65.9131 53.0901 68.0437 54.5237 68.9398 55.4833C68.3941 53.6991 65.5574 52.2148 63.8812 52.6313C62.2049 53.0478 62.1415 52.6296 61.9289 52.3026C61.9637 52.8907 62.0598 53.418 62.969 53.1052C62.6372 53.486 62.0577 54.2255 61.3669 53.8763C60.6762 53.5272 60.4562 53.3646 60.4128 53.3573C61.4366 54.2574 61.7514 54.3104 61.8556 54.3279C61.9857 54.3498 62.034 54.8619 62.1165 55.1668C62.199 55.4718 62.4896 55.9572 63.092 56.3498Z" fill="#060107"/>
<circle cx="67.2101" cy="54.4698" r="0.208596" transform="rotate(9.55715 67.2101 54.4698)" fill="white"/>
<path d="M77.0402 56.744C76.7774 55.9097 76.4058 56.013 75.9787 55.6701C75.6398 55.398 74.6656 55.9227 74.1998 56.1255C73.8909 56.3209 73.6927 57.3241 73.6445 57.5762C73.5964 57.8283 74.2289 58.5544 74.8406 58.6712C75.4523 58.788 75.892 58.7025 76.2117 58.5022C76.5315 58.3019 77.3031 57.5782 77.0402 56.744Z" fill="#EDF1FA"/>
<path d="M74.769 55.7829C73.9347 56.2002 74.1431 58.2861 75.3947 58.4947C76.6463 58.7033 76.8558 57.7848 77.0636 56.6173C77.0397 56.0309 75.6034 55.3656 74.769 55.7829Z" fill="url(#paint10_linear_597_10392)"/>
<ellipse cx="75.6023" cy="56.4096" rx="0.625787" ry="0.834382" fill="#14080E"/>
<path d="M76.2108 58.5114C76.6535 58.2588 77.0072 57.7017 77.0687 57.2569C76.9703 56.5263 76.6799 56.1861 76.3311 55.957C75.6889 55.5349 74.3022 56.1558 73.7756 56.4422C74.3193 55.8089 75.9195 55.1616 76.6419 55.8055C77.3642 56.4494 77.4866 56.1777 77.6614 56.0003C77.5157 56.394 77.4729 56.4316 76.9808 56.3245C77.0585 56.6555 77.2076 57.2665 77.6193 57.1766C78.031 57.0867 78.1436 57.0408 78.1662 57.0451C77.7104 57.3795 77.3079 57.4079 77.2535 57.3975C77.1856 57.3845 77.05 57.7235 76.9432 57.9138C76.8364 58.1041 76.5891 58.3729 76.2108 58.5114Z" fill="#060107"/>
<circle cx="0.208596" cy="0.208596" r="0.208596" transform="matrix(-0.982236 -0.187649 -0.187649 0.982236 76.4766 56.084)" fill="white"/>
<path d="M73.3047 57.1211C72.9915 58.7602 74.362 60.4369 74.8676 60.5603C75.3732 60.6838 75.3603 63.0354 72.7842 63.1803" stroke="#401109" stroke-width="0.293797" stroke-linecap="round"/>
<path d="M66.6461 48.7277C72.4748 45.7733 72.5368 41.3783 71.8392 39.55C72.9732 33.614 63.8764 35.0377 57.594 38.1746C51.3349 41.2999 52.358 46.57 53.6461 53.2056L53.6605 53.2795C54.9123 59.7286 59.3679 63.3396 57.288 59.3529C55.2081 55.3663 59.3601 52.4206 66.6461 48.7277Z" fill="url(#paint11_linear_597_10392)"/>
<path d="M61.0567 52.2371C66.6451 47.4842 69.0893 49.6993 69.6129 51.4009C66.5231 49.8491 66.9826 50.4223 65.3079 50.4472C64.477 50.4596 62.1296 51.6027 61.0567 52.2371Z" fill="#28111B"/>
<path d="M74.3084 52.8954C75.6108 52.6854 77.8279 52.654 78.412 53.6791C78.2766 52.9642 77.5897 52.4941 76.612 52.1286C75.6343 51.763 74.8455 51.9665 74.3084 52.8954Z" fill="#28111B"/>
<path d="M70.1828 62.3273C71.0997 62.1087 71.706 62.2931 71.8365 62.5642C71.7912 62.8014 71.4937 62.8465 71.3089 62.4634C71.2457 62.3324 70.4326 62.3751 70.1828 62.3273Z" fill="#3A2323"/>
<path d="M69.7217 66.7301C71.6532 67.2257 72.0628 66.8422 72.9288 66.5535C71.8977 67.2539 71.2827 68.7126 70.1516 68.5654C68.3007 68.3245 67.2318 67.4094 65.4258 65.1201C66.2639 65.4298 68.6846 66.4639 69.7217 66.7301Z" fill="#AB4C53"/>
<circle cx="73.1631" cy="61.6416" r="0.293797" transform="rotate(10.8156 73.1631 61.6416)" fill="white"/>
<circle cx="60.2438" cy="56.1705" r="0.208596" fill="#060107"/>
<path d="M69.6343 50.8646C72.7661 47.3706 73.4928 39.7155 70.7294 37.8971C72.0802 37.8532 74.4278 39.6971 75.3163 42.6234C76.5276 46.6124 74.6428 49.6418 73.4508 51.8007L69.6343 50.8646Z" fill="url(#paint12_linear_597_10392)"/>
<path d="M76.8531 54.5341C79.9548 50.4856 75.7861 42.2797 73.707 39.6787C74.8485 39.7753 78.7083 41.0849 81.0659 43.6555C83.4234 46.2262 81.5895 54.0309 80.2977 56.616L76.8531 54.5341Z" fill="url(#paint13_linear_597_10392)"/>
</g>
<rect x="110.023" y="20.5566" width="270" height="151.504" rx="12" fill="#4E3B63"/>
<rect x="122.023" y="32.5566" width="95.6115" height="20.8705" rx="10.4352" fill="#261D30"/>
<path d="M136.031 46.9922H133.043V38.5078H136.066C138.621 38.5078 140.186 40.0957 140.18 42.7383C140.186 45.3926 138.621 46.9922 136.031 46.9922ZM134.801 45.4805H135.961C137.578 45.4805 138.422 44.6426 138.422 42.7383C138.422 40.8516 137.578 40.0195 135.973 40.0195H134.801V45.4805ZM141.117 45.2109C141.123 43.793 142.26 43.3301 143.484 43.2539C143.941 43.2246 144.797 43.1836 145.066 43.1719V42.6562C145.061 42.123 144.697 41.8184 144.047 41.8125C143.455 41.8184 143.086 42.082 142.992 42.5156H141.34C141.445 41.4141 142.406 40.5469 144.094 40.5469C145.482 40.5469 146.795 41.168 146.789 42.7031V46.9922H145.148V46.1133H145.102C144.791 46.6992 144.182 47.1152 143.238 47.1094C142.02 47.1152 141.123 46.4707 141.117 45.2109ZM142.781 45.1641C142.781 45.6504 143.174 45.9082 143.73 45.9141C144.521 45.9082 145.072 45.3926 145.066 44.7188V44.2559C144.803 44.2676 144.059 44.3086 143.766 44.332C143.162 44.3848 142.781 44.6719 142.781 45.1641ZM151.465 40.6289V41.9297H150.27V45.0352C150.264 45.5449 150.516 45.668 150.867 45.6797C151.043 45.6797 151.348 45.6621 151.559 45.6445V47.0156C151.371 47.0449 151.061 47.0801 150.633 47.0742C149.379 47.0801 148.523 46.5176 148.535 45.2812V41.9297H147.656V40.6289H148.535V39.1055H150.27V40.6289H151.465ZM152.25 45.2109C152.256 43.793 153.393 43.3301 154.617 43.2539C155.074 43.2246 155.93 43.1836 156.199 43.1719V42.6562C156.193 42.123 155.83 41.8184 155.18 41.8125C154.588 41.8184 154.219 42.082 154.125 42.5156H152.473C152.578 41.4141 153.539 40.5469 155.227 40.5469C156.615 40.5469 157.928 41.168 157.922 42.7031V46.9922H156.281V46.1133H156.234C155.924 46.6992 155.314 47.1152 154.371 47.1094C153.152 47.1152 152.256 46.4707 152.25 45.2109ZM153.914 45.1641C153.914 45.6504 154.307 45.9082 154.863 45.9141C155.654 45.9082 156.205 45.3926 156.199 44.7188V44.2559C155.936 44.2676 155.191 44.3086 154.898 44.332C154.295 44.3848 153.914 44.6719 153.914 45.1641ZM166.652 40.9336C166.582 40.2598 166.049 39.8672 165.188 39.8672C164.297 39.8672 163.799 40.2773 163.793 40.8398C163.787 41.4551 164.42 41.7305 165.152 41.8945L165.914 42.082C167.367 42.416 168.451 43.1543 168.457 44.5664C168.451 46.1191 167.244 47.1152 165.176 47.1094C163.125 47.1152 161.818 46.166 161.766 44.3438H163.477C163.535 45.1992 164.215 45.6328 165.152 45.6328C166.078 45.6328 166.676 45.1992 166.676 44.5664C166.676 43.9863 166.148 43.7168 165.223 43.4883L164.297 43.2656C162.867 42.9141 161.988 42.1992 161.988 40.957C161.982 39.416 163.342 38.3906 165.199 38.3906C167.08 38.3906 168.316 39.4336 168.34 40.9336H166.652ZM172.43 47.1211C170.479 47.1152 169.307 45.7676 169.312 43.8281C169.307 41.8828 170.502 40.5469 172.43 40.5469C174.07 40.5469 175.184 41.502 175.254 42.9609H173.625C173.52 42.334 173.109 41.9004 172.453 41.8945C171.621 41.9004 171.07 42.5977 171.07 43.8047C171.07 45.0352 171.609 45.7383 172.453 45.7383C173.062 45.7383 173.514 45.3574 173.625 44.6836H175.254C175.178 46.125 174.117 47.1152 172.43 47.1211ZM176.332 46.9922V40.6289H178.066V46.9922H176.332ZM176.25 38.918C176.25 38.4258 176.678 38.0332 177.199 38.0273C177.715 38.0332 178.143 38.4258 178.137 38.918C178.143 39.3984 177.715 39.7969 177.199 39.7969C176.678 39.7969 176.25 39.3984 176.25 38.918ZM182.297 47.1211C180.346 47.1152 179.15 45.8555 179.156 43.8398C179.15 41.877 180.363 40.5469 182.227 40.5469C183.896 40.5469 185.215 41.6016 185.215 43.7695V44.2617H180.867C180.867 45.2227 181.436 45.8145 182.332 45.8203C182.924 45.8145 183.346 45.5566 183.516 45.1758H185.168C184.922 46.3535 183.867 47.1152 182.297 47.1211ZM180.867 43.1719H183.574C183.568 42.3984 183.035 41.8418 182.262 41.8477C181.465 41.8418 180.902 42.4395 180.867 43.1719ZM188.039 43.3125V46.9922H186.305V40.6289H187.957V41.7422H188.027C188.314 41.0098 188.994 40.5469 189.938 40.5469C191.268 40.5469 192.135 41.4551 192.129 42.9375V46.9922H190.406V43.2422C190.4 42.457 189.979 41.9883 189.258 41.9883C188.537 41.9883 188.039 42.4746 188.039 43.3125ZM196.828 40.6289V41.9297H195.633V45.0352C195.627 45.5449 195.879 45.668 196.23 45.6797C196.406 45.6797 196.711 45.6621 196.922 45.6445V47.0156C196.734 47.0449 196.424 47.0801 195.996 47.0742C194.742 47.0801 193.887 46.5176 193.898 45.2812V41.9297H193.02V40.6289H193.898V39.1055H195.633V40.6289H196.828ZM197.918 46.9922V40.6289H199.652V46.9922H197.918ZM197.836 38.918C197.836 38.4258 198.264 38.0332 198.785 38.0273C199.301 38.0332 199.729 38.4258 199.723 38.918C199.729 39.3984 199.301 39.7969 198.785 39.7969C198.264 39.7969 197.836 39.3984 197.836 38.918ZM204.633 42.5156C204.557 42.0703 204.17 41.7832 203.59 41.7773C203.027 41.7832 202.6 42.0469 202.605 42.4336C202.6 42.7207 202.822 42.9434 203.426 43.0664L204.562 43.3008C205.799 43.5586 206.396 44.1094 206.402 45.0234C206.396 46.2773 205.271 47.1152 203.578 47.1211C201.861 47.1152 200.854 46.3477 200.707 45.1055H202.453C202.535 45.6035 202.939 45.8613 203.578 45.8672C204.211 45.8613 204.633 45.6094 204.633 45.1992C204.633 44.8711 204.363 44.666 203.766 44.543L202.711 44.332C201.498 44.0918 200.877 43.4707 200.883 42.5273C200.877 41.3086 201.926 40.5469 203.566 40.5469C205.172 40.5469 206.168 41.3086 206.262 42.5156H204.633Z" fill="#ECECF8"/>
<path d="M123.453 79.2441V62.2754H130.109C133.965 62.2754 136.18 64.4434 136.18 67.8066C136.18 70.127 135.113 71.8145 133.18 72.6465L136.789 79.2441H132.898L129.652 73.2207H126.969V79.2441H123.453ZM126.969 70.3613H129.453C131.539 70.3613 132.559 69.5059 132.547 67.8066C132.559 66.0957 131.539 65.1699 129.453 65.1582H126.969V70.3613ZM138.547 79.2441V66.5176H142.016V79.2441H138.547ZM138.383 63.0957C138.383 62.1113 139.238 61.3262 140.281 61.3145C141.312 61.3262 142.168 62.1113 142.156 63.0957C142.168 64.0566 141.312 64.8535 140.281 64.8535C139.238 64.8535 138.383 64.0566 138.383 63.0957ZM144.102 75.6816C144.113 72.8457 146.387 71.9199 148.836 71.7676C149.75 71.709 151.461 71.627 152 71.6035V70.5723C151.988 69.5059 151.262 68.8965 149.961 68.8848C148.777 68.8965 148.039 69.4238 147.852 70.291H144.547C144.758 68.0879 146.68 66.3535 150.055 66.3535C152.832 66.3535 155.457 67.5957 155.445 70.666V79.2441H152.164V77.4863H152.07C151.449 78.6582 150.23 79.4902 148.344 79.4785C145.906 79.4902 144.113 78.2012 144.102 75.6816ZM147.43 75.5879C147.43 76.5605 148.215 77.0762 149.328 77.0879C150.91 77.0762 152.012 76.0449 152 74.6973V73.7715C151.473 73.7949 149.984 73.877 149.398 73.9238C148.191 74.0293 147.43 74.6035 147.43 75.5879Z" fill="#ECECF8"/>
<path d="M124.539 92.1621V102.061H123.035V92.1621H124.539ZM131.443 102.061L129.27 94.6367H130.773L132.223 100.078H132.305L133.754 94.6367H135.258L136.693 100.051H136.775L138.211 94.6367H139.715L137.541 102.061H136.051L134.547 96.7148H134.438L132.947 102.061H131.443ZM140.576 99.9688C140.569 98.2734 142.012 97.8359 143.352 97.7402C143.844 97.7129 144.958 97.6514 145.3 97.6377L145.293 97.043C145.3 96.2021 144.78 95.7168 143.789 95.7168C142.928 95.7168 142.408 96.1133 142.258 96.6602H140.809C140.938 95.4297 142.087 94.541 143.844 94.541C145.026 94.541 146.749 94.9717 146.756 97.125V102.061H145.334V101.049H145.279C144.992 101.603 144.309 102.225 143.078 102.225C141.67 102.225 140.569 101.418 140.576 99.9688ZM141.998 99.9824C141.998 100.693 142.586 101.056 143.406 101.062C144.596 101.056 145.307 100.263 145.307 99.3809L145.3 98.7041C144.965 98.7246 143.905 98.7998 143.557 98.8203C142.6 98.8887 141.998 99.251 141.998 99.9824ZM149.982 97.6582V102.061H148.52V94.6367H149.928V95.8535H150.01C150.358 95.0537 151.09 94.541 152.197 94.541C153.722 94.541 154.733 95.5049 154.727 97.3438V102.061H153.277V97.5215C153.271 96.4414 152.689 95.7988 151.705 95.7988C150.7 95.7988 149.982 96.4756 149.982 97.6582ZM159.977 94.6367V95.7988H158.459V99.873C158.466 100.714 158.876 100.864 159.348 100.871C159.56 100.871 159.881 100.851 160.086 100.83V102.102C159.888 102.129 159.573 102.156 159.17 102.156C158.028 102.156 156.996 101.527 157.01 100.174V95.7988H155.916V94.6367H157.01V92.8594H158.459V94.6367H159.977ZM168.289 94.6367V95.7988H166.771V99.873C166.778 100.714 167.188 100.864 167.66 100.871C167.872 100.871 168.193 100.851 168.398 100.83V102.102C168.2 102.129 167.886 102.156 167.482 102.156C166.341 102.156 165.309 101.527 165.322 100.174V95.7988H164.229V94.6367H165.322V92.8594H166.771V94.6367H168.289ZM172.773 102.211C170.668 102.211 169.294 100.68 169.301 98.3828C169.294 96.0723 170.668 94.541 172.773 94.541C174.865 94.541 176.232 96.0723 176.232 98.3828C176.232 100.68 174.865 102.211 172.773 102.211ZM170.764 98.3828C170.764 99.7979 171.413 100.994 172.773 100.994C174.113 100.994 174.756 99.7979 174.756 98.3828C174.756 96.9609 174.113 95.751 172.773 95.7441C171.413 95.751 170.764 96.9609 170.764 98.3828ZM180.744 99.9688C180.737 98.2734 182.18 97.8359 183.52 97.7402C184.012 97.7129 185.126 97.6514 185.468 97.6377L185.461 97.043C185.468 96.2021 184.948 95.7168 183.957 95.7168C183.096 95.7168 182.576 96.1133 182.426 96.6602H180.977C181.106 95.4297 182.255 94.541 184.012 94.541C185.194 94.541 186.917 94.9717 186.924 97.125V102.061H185.502V101.049H185.447C185.16 101.603 184.477 102.225 183.246 102.225C181.838 102.225 180.737 101.418 180.744 99.9688ZM182.166 99.9824C182.166 100.693 182.754 101.056 183.574 101.062C184.764 101.056 185.475 100.263 185.475 99.3809L185.468 98.7041C185.133 98.7246 184.073 98.7998 183.725 98.8203C182.768 98.8887 182.166 99.251 182.166 99.9824ZM190.15 97.6582V102.061H188.688V94.6367H190.096V95.8535H190.178C190.526 95.0537 191.258 94.541 192.365 94.541C193.89 94.541 194.901 95.5049 194.895 97.3438V102.061H193.445V97.5215C193.438 96.4414 192.857 95.7988 191.873 95.7988C190.868 95.7988 190.15 96.4756 190.15 97.6582ZM196.33 99.9688C196.323 98.2734 197.766 97.8359 199.105 97.7402C199.598 97.7129 200.712 97.6514 201.054 97.6377L201.047 97.043C201.054 96.2021 200.534 95.7168 199.543 95.7168C198.682 95.7168 198.162 96.1133 198.012 96.6602H196.562C196.692 95.4297 197.841 94.541 199.598 94.541C200.78 94.541 202.503 94.9717 202.51 97.125V102.061H201.088V101.049H201.033C200.746 101.603 200.062 102.225 198.832 102.225C197.424 102.225 196.323 101.418 196.33 99.9688ZM197.752 99.9824C197.752 100.693 198.34 101.056 199.16 101.062C200.35 101.056 201.061 100.263 201.061 99.3809L201.054 98.7041C200.719 98.7246 199.659 98.7998 199.311 98.8203C198.354 98.8887 197.752 99.251 197.752 99.9824ZM205.736 92.1621V102.061H204.273V92.1621H205.736ZM208.416 104.85C208.115 104.843 207.821 104.836 207.637 104.809V103.592C207.801 103.605 208.088 103.612 208.293 103.619C208.744 103.612 209.12 103.585 209.469 102.648L209.646 102.156L206.926 94.6367H208.484L210.357 100.393H210.439L212.312 94.6367H213.885L210.822 103.045C210.392 104.221 209.64 104.843 208.416 104.85ZM214.91 102.061V101.062L218.93 95.9629V95.8945H215.047V94.6367H220.748V95.6895L216.893 100.734V100.803H220.885V102.061H214.91ZM225.396 102.211C223.209 102.211 221.862 100.7 221.869 98.3965C221.862 96.1133 223.229 94.541 225.301 94.541C226.989 94.541 228.596 95.5869 228.596 98.2734V98.793H223.318C223.359 100.208 224.193 101.008 225.41 101.008C226.237 101.008 226.777 100.652 227.023 100.201H228.5C228.172 101.404 227.03 102.211 225.396 102.211ZM223.325 97.6992H227.16C227.16 96.5713 226.429 95.7373 225.314 95.7441C224.146 95.7373 223.387 96.6533 223.325 97.6992ZM236.238 102.211C234.447 102.204 233.135 100.762 233.135 98.3691C233.135 95.9492 234.468 94.541 236.252 94.541C237.633 94.541 238.132 95.375 238.398 95.8398H238.467V92.1621H239.93V102.061H238.508V100.898H238.398C238.125 101.384 237.592 102.204 236.238 102.211ZM234.625 98.3418C234.618 99.832 235.288 100.96 236.566 100.967C237.811 100.96 238.508 99.9004 238.508 98.3418C238.508 96.7969 237.824 95.7783 236.566 95.7852C235.274 95.7783 234.618 96.8789 234.625 98.3418ZM241.488 99.9688C241.481 98.2734 242.924 97.8359 244.264 97.7402C244.756 97.7129 245.87 97.6514 246.212 97.6377L246.205 97.043C246.212 96.2021 245.692 95.7168 244.701 95.7168C243.84 95.7168 243.32 96.1133 243.17 96.6602H241.721C241.851 95.4297 242.999 94.541 244.756 94.541C245.938 94.541 247.661 94.9717 247.668 97.125V102.061H246.246V101.049H246.191C245.904 101.603 245.221 102.225 243.99 102.225C242.582 102.225 241.481 101.418 241.488 99.9688ZM242.91 99.9824C242.91 100.693 243.498 101.056 244.318 101.062C245.508 101.056 246.219 100.263 246.219 99.3809L246.212 98.7041C245.877 98.7246 244.817 98.7998 244.469 98.8203C243.512 98.8887 242.91 99.251 242.91 99.9824ZM252.904 94.6367V95.7988H251.387V99.873C251.394 100.714 251.804 100.864 252.275 100.871C252.487 100.871 252.809 100.851 253.014 100.83V102.102C252.815 102.129 252.501 102.156 252.098 102.156C250.956 102.156 249.924 101.527 249.938 100.174V95.7988H248.844V94.6367H249.938V92.8594H251.387V94.6367H252.904ZM253.984 99.9688C253.978 98.2734 255.42 97.8359 256.76 97.7402C257.252 97.7129 258.366 97.6514 258.708 97.6377L258.701 97.043C258.708 96.2021 258.188 95.7168 257.197 95.7168C256.336 95.7168 255.816 96.1133 255.666 96.6602H254.217C254.347 95.4297 255.495 94.541 257.252 94.541C258.435 94.541 260.157 94.9717 260.164 97.125V102.061H258.742V101.049H258.688C258.4 101.603 257.717 102.225 256.486 102.225C255.078 102.225 253.978 101.418 253.984 99.9688ZM255.406 99.9824C255.406 100.693 255.994 101.056 256.814 101.062C258.004 101.056 258.715 100.263 258.715 99.3809L258.708 98.7041C258.373 98.7246 257.313 98.7998 256.965 98.8203C256.008 98.8887 255.406 99.251 255.406 99.9824ZM265.004 99.9688C264.997 98.2734 266.439 97.8359 267.779 97.7402C268.271 97.7129 269.386 97.6514 269.728 97.6377L269.721 97.043C269.728 96.2021 269.208 95.7168 268.217 95.7168C267.355 95.7168 266.836 96.1133 266.686 96.6602H265.236C265.366 95.4297 266.515 94.541 268.271 94.541C269.454 94.541 271.177 94.9717 271.184 97.125V102.061H269.762V101.049H269.707C269.42 101.603 268.736 102.225 267.506 102.225C266.098 102.225 264.997 101.418 265.004 99.9688ZM266.426 99.9824C266.426 100.693 267.014 101.056 267.834 101.062C269.023 101.056 269.734 100.263 269.734 99.3809L269.728 98.7041C269.393 98.7246 268.333 98.7998 267.984 98.8203C267.027 98.8887 266.426 99.251 266.426 99.9824ZM274.41 97.6582V102.061H272.947V94.6367H274.355V95.8535H274.438C274.786 95.0537 275.518 94.541 276.625 94.541C278.149 94.541 279.161 95.5049 279.154 97.3438V102.061H277.705V97.5215C277.698 96.4414 277.117 95.7988 276.133 95.7988C275.128 95.7988 274.41 96.4756 274.41 97.6582ZM283.707 102.211C281.916 102.204 280.604 100.762 280.604 98.3691C280.604 95.9492 281.937 94.541 283.721 94.541C285.102 94.541 285.601 95.375 285.867 95.8398H285.936V92.1621H287.398V102.061H285.977V100.898H285.867C285.594 101.384 285.061 102.204 283.707 102.211ZM282.094 98.3418C282.087 99.832 282.757 100.96 284.035 100.967C285.279 100.96 285.977 99.9004 285.977 98.3418C285.977 96.7969 285.293 95.7783 284.035 95.7852C282.743 95.7783 282.087 96.8789 282.094 98.3418ZM295.861 102.211C293.694 102.211 292.382 100.618 292.389 98.3828C292.382 96.1201 293.742 94.541 295.834 94.541C297.529 94.541 298.753 95.5391 298.91 97.043H297.488C297.338 96.3457 296.784 95.7646 295.861 95.7578C294.658 95.7646 293.852 96.7627 293.852 98.3418C293.852 99.9688 294.638 100.974 295.861 100.967C296.688 100.974 297.304 100.509 297.488 99.709H298.91C298.753 101.151 297.611 102.211 295.861 102.211ZM300.291 102.061V94.6367H301.699V95.8125H301.781C302.055 95.0195 302.8 94.5205 303.668 94.5273C303.846 94.5205 304.133 94.541 304.283 94.5547V95.9492C304.16 95.9219 303.818 95.8604 303.518 95.8672C302.506 95.8604 301.754 96.5645 301.754 97.5352V102.061H300.291ZM308.33 102.211C306.143 102.211 304.796 100.7 304.803 98.3965C304.796 96.1133 306.163 94.541 308.234 94.541C309.923 94.541 311.529 95.5869 311.529 98.2734V98.793H306.252C306.293 100.208 307.127 101.008 308.344 101.008C309.171 101.008 309.711 100.652 309.957 100.201H311.434C311.105 101.404 309.964 102.211 308.33 102.211ZM306.259 97.6992H310.094C310.094 96.5713 309.362 95.7373 308.248 95.7441C307.079 95.7373 306.32 96.6533 306.259 97.6992ZM312.637 99.9688C312.63 98.2734 314.072 97.8359 315.412 97.7402C315.904 97.7129 317.019 97.6514 317.36 97.6377L317.354 97.043C317.36 96.2021 316.841 95.7168 315.85 95.7168C314.988 95.7168 314.469 96.1133 314.318 96.6602H312.869C312.999 95.4297 314.147 94.541 315.904 94.541C317.087 94.541 318.81 94.9717 318.816 97.125V102.061H317.395V101.049H317.34C317.053 101.603 316.369 102.225 315.139 102.225C313.73 102.225 312.63 101.418 312.637 99.9688ZM314.059 99.9824C314.059 100.693 314.646 101.056 315.467 101.062C316.656 101.056 317.367 100.263 317.367 99.3809L317.36 98.7041C317.025 98.7246 315.966 98.7998 315.617 98.8203C314.66 98.8887 314.059 99.251 314.059 99.9824ZM324.053 94.6367V95.7988H322.535V99.873C322.542 100.714 322.952 100.864 323.424 100.871C323.636 100.871 323.957 100.851 324.162 100.83V102.102C323.964 102.129 323.649 102.156 323.246 102.156C322.104 102.156 321.072 101.527 321.086 100.174V95.7988H319.992V94.6367H321.086V92.8594H322.535V94.6367H324.053ZM328.592 102.211C326.404 102.211 325.058 100.7 325.064 98.3965C325.058 96.1133 326.425 94.541 328.496 94.541C330.185 94.541 331.791 95.5869 331.791 98.2734V98.793H326.514C326.555 100.208 327.389 101.008 328.605 101.008C329.433 101.008 329.973 100.652 330.219 100.201H331.695C331.367 101.404 330.226 102.211 328.592 102.211ZM326.521 97.6992H330.355C330.355 96.5713 329.624 95.7373 328.51 95.7441C327.341 95.7373 326.582 96.6533 326.521 97.6992ZM336.316 99.9688C336.31 98.2734 337.752 97.8359 339.092 97.7402C339.584 97.7129 340.698 97.6514 341.04 97.6377L341.033 97.043C341.04 96.2021 340.521 95.7168 339.529 95.7168C338.668 95.7168 338.148 96.1133 337.998 96.6602H336.549C336.679 95.4297 337.827 94.541 339.584 94.541C340.767 94.541 342.489 94.9717 342.496 97.125V102.061H341.074V101.049H341.02C340.732 101.603 340.049 102.225 338.818 102.225C337.41 102.225 336.31 101.418 336.316 99.9688ZM337.738 99.9824C337.738 100.693 338.326 101.056 339.146 101.062C340.336 101.056 341.047 100.263 341.047 99.3809L341.04 98.7041C340.705 98.7246 339.646 98.7998 339.297 98.8203C338.34 98.8887 337.738 99.251 337.738 99.9824ZM122.912 120.061V112.637H124.32V113.854H124.402C124.717 113.026 125.448 112.541 126.426 112.541C127.417 112.541 128.107 113.026 128.422 113.854H128.504C128.853 113.054 129.659 112.541 130.732 112.541C132.072 112.541 133.022 113.382 133.029 115.084V120.061H131.566V115.221C131.566 114.216 130.938 113.799 130.172 113.799C129.235 113.799 128.695 114.441 128.695 115.33V120.061H127.246V115.139C127.246 114.325 126.692 113.799 125.893 113.799C125.072 113.799 124.375 114.482 124.375 115.48V120.061H122.912ZM137.938 120.211C135.832 120.211 134.458 118.68 134.465 116.383C134.458 114.072 135.832 112.541 137.938 112.541C140.029 112.541 141.396 114.072 141.396 116.383C141.396 118.68 140.029 120.211 137.938 120.211ZM135.928 116.383C135.928 117.798 136.577 118.994 137.938 118.994C139.277 118.994 139.92 117.798 139.92 116.383C139.92 114.961 139.277 113.751 137.938 113.744C136.577 113.751 135.928 114.961 135.928 116.383ZM145.607 120.211C143.816 120.204 142.504 118.762 142.504 116.369C142.504 113.949 143.837 112.541 145.621 112.541C147.002 112.541 147.501 113.375 147.768 113.84H147.836V110.162H149.299V120.061H147.877V118.898H147.768C147.494 119.384 146.961 120.204 145.607 120.211ZM143.994 116.342C143.987 117.832 144.657 118.96 145.936 118.967C147.18 118.96 147.877 117.9 147.877 116.342C147.877 114.797 147.193 113.778 145.936 113.785C144.644 113.778 143.987 114.879 143.994 116.342ZM154.398 120.211C152.211 120.211 150.864 118.7 150.871 116.396C150.864 114.113 152.231 112.541 154.303 112.541C155.991 112.541 157.598 113.587 157.598 116.273V116.793H152.32C152.361 118.208 153.195 119.008 154.412 119.008C155.239 119.008 155.779 118.652 156.025 118.201H157.502C157.174 119.404 156.032 120.211 154.398 120.211ZM152.327 115.699H156.162C156.162 114.571 155.431 113.737 154.316 113.744C153.147 113.737 152.389 114.653 152.327 115.699ZM160.51 110.162V120.061H159.047V110.162H160.51ZM164.051 119.117L162.957 122.891H161.795L162.52 119.117H164.051ZM168.945 117.969C168.938 116.273 170.381 115.836 171.721 115.74C172.213 115.713 173.327 115.651 173.669 115.638L173.662 115.043C173.669 114.202 173.149 113.717 172.158 113.717C171.297 113.717 170.777 114.113 170.627 114.66H169.178C169.308 113.43 170.456 112.541 172.213 112.541C173.396 112.541 175.118 112.972 175.125 115.125V120.061H173.703V119.049H173.648C173.361 119.603 172.678 120.225 171.447 120.225C170.039 120.225 168.938 119.418 168.945 117.969ZM170.367 117.982C170.367 118.693 170.955 119.056 171.775 119.062C172.965 119.056 173.676 118.263 173.676 117.381L173.669 116.704C173.334 116.725 172.274 116.8 171.926 116.82C170.969 116.889 170.367 117.251 170.367 117.982ZM178.352 115.658V120.061H176.889V112.637H178.297V113.854H178.379C178.728 113.054 179.459 112.541 180.566 112.541C182.091 112.541 183.103 113.505 183.096 115.344V120.061H181.646V115.521C181.64 114.441 181.059 113.799 180.074 113.799C179.069 113.799 178.352 114.476 178.352 115.658ZM187.648 120.211C185.857 120.204 184.545 118.762 184.545 116.369C184.545 113.949 185.878 112.541 187.662 112.541C189.043 112.541 189.542 113.375 189.809 113.84H189.877V110.162H191.34V120.061H189.918V118.898H189.809C189.535 119.384 189.002 120.204 187.648 120.211ZM186.035 116.342C186.028 117.832 186.698 118.96 187.977 118.967C189.221 118.96 189.918 117.9 189.918 116.342C189.918 114.797 189.234 113.778 187.977 113.785C186.685 113.778 186.028 114.879 186.035 116.342ZM199.434 120.211C197.643 120.204 196.33 118.762 196.33 116.369C196.33 113.949 197.663 112.541 199.447 112.541C200.828 112.541 201.327 113.375 201.594 113.84H201.662V110.162H203.125V120.061H201.703V118.898H201.594C201.32 119.384 200.787 120.204 199.434 120.211ZM197.82 116.342C197.813 117.832 198.483 118.96 199.762 118.967C201.006 118.96 201.703 117.9 201.703 116.342C201.703 114.797 201.02 113.778 199.762 113.785C198.47 113.778 197.813 114.879 197.82 116.342ZM205.025 120.061V112.637H206.488V120.061H205.025ZM204.834 110.627C204.841 110.148 205.258 109.766 205.764 109.766C206.263 109.766 206.68 110.148 206.68 110.627C206.68 111.105 206.263 111.495 205.764 111.488C205.258 111.495 204.841 111.105 204.834 110.627ZM212.436 114.66C212.299 114.072 211.834 113.689 211.027 113.689C210.193 113.689 209.599 114.12 209.605 114.688C209.599 115.125 209.947 115.439 210.768 115.631L211.943 115.904C213.311 116.212 213.974 116.861 213.98 117.914C213.974 119.254 212.839 120.211 210.945 120.211C209.161 120.211 208.108 119.418 207.924 118.037H209.414C209.544 118.707 210.05 119.042 210.932 119.035C211.875 119.042 212.483 118.646 212.49 118.023C212.483 117.545 212.128 117.237 211.342 117.053L210.18 116.807C208.84 116.513 208.143 115.795 208.143 114.77C208.143 113.45 209.291 112.541 211.014 112.541C212.668 112.541 213.7 113.382 213.844 114.66H212.436ZM218.875 112.637V113.799H217.357V117.873C217.364 118.714 217.774 118.864 218.246 118.871C218.458 118.871 218.779 118.851 218.984 118.83V120.102C218.786 120.129 218.472 120.156 218.068 120.156C216.927 120.156 215.895 119.527 215.908 118.174V113.799H214.814V112.637H215.908V110.859H217.357V112.637H218.875ZM220.297 120.061V112.637H221.705V113.812H221.787C222.061 113.02 222.806 112.521 223.674 112.527C223.852 112.521 224.139 112.541 224.289 112.555V113.949C224.166 113.922 223.824 113.86 223.523 113.867C222.512 113.86 221.76 114.564 221.76 115.535V120.061H220.297ZM225.383 120.061V112.637H226.846V120.061H225.383ZM225.191 110.627C225.198 110.148 225.615 109.766 226.121 109.766C226.62 109.766 227.037 110.148 227.037 110.627C227.037 111.105 226.62 111.495 226.121 111.488C225.615 111.495 225.198 111.105 225.191 110.627ZM228.746 120.061V110.162H230.195V113.84H230.277C230.544 113.375 231.036 112.541 232.41 112.541C234.208 112.541 235.534 113.949 235.541 116.369C235.534 118.762 234.222 120.204 232.424 120.211C231.077 120.204 230.551 119.384 230.277 118.898H230.168V120.061H228.746ZM230.168 116.342C230.168 117.9 230.865 118.96 232.096 118.967C233.381 118.96 234.051 117.832 234.051 116.342C234.051 114.879 233.401 113.778 232.096 113.785C230.845 113.778 230.168 114.797 230.168 116.342ZM241.707 116.971V112.637H243.156V120.061H241.734V118.775H241.652C241.311 119.568 240.552 120.156 239.438 120.156C238.002 120.156 236.99 119.192 236.99 117.354V112.637H238.453V117.176C238.453 118.188 239.068 118.83 239.957 118.83C240.771 118.83 241.707 118.235 241.707 116.971ZM248.406 112.637V113.799H246.889V117.873C246.896 118.714 247.306 118.864 247.777 118.871C247.989 118.871 248.311 118.851 248.516 118.83V120.102C248.317 120.129 248.003 120.156 247.6 120.156C246.458 120.156 245.426 119.527 245.439 118.174V113.799H244.346V112.637H245.439V110.859H246.889V112.637H248.406ZM252.945 120.211C250.758 120.211 249.411 118.7 249.418 116.396C249.411 114.113 250.778 112.541 252.85 112.541C254.538 112.541 256.145 113.587 256.145 116.273V116.793H250.867C250.908 118.208 251.742 119.008 252.959 119.008C253.786 119.008 254.326 118.652 254.572 118.201H256.049C255.721 119.404 254.579 120.211 252.945 120.211ZM250.874 115.699H254.709C254.709 114.571 253.978 113.737 252.863 113.744C251.694 113.737 250.936 114.653 250.874 115.699ZM260.67 117.969C260.663 116.273 262.105 115.836 263.445 115.74C263.938 115.713 265.052 115.651 265.394 115.638L265.387 115.043C265.394 114.202 264.874 113.717 263.883 113.717C263.021 113.717 262.502 114.113 262.352 114.66H260.902C261.032 113.43 262.181 112.541 263.938 112.541C265.12 112.541 266.843 112.972 266.85 115.125V120.061H265.428V119.049H265.373C265.086 119.603 264.402 120.225 263.172 120.225C261.764 120.225 260.663 119.418 260.67 117.969ZM262.092 117.982C262.092 118.693 262.68 119.056 263.5 119.062C264.689 119.056 265.4 118.263 265.4 117.381L265.394 116.704C265.059 116.725 263.999 116.8 263.65 116.82C262.693 116.889 262.092 117.251 262.092 117.982ZM270.076 115.658V120.061H268.613V112.637H270.021V113.854H270.104C270.452 113.054 271.184 112.541 272.291 112.541C273.815 112.541 274.827 113.505 274.82 115.344V120.061H273.371V115.521C273.364 114.441 272.783 113.799 271.799 113.799C270.794 113.799 270.076 114.476 270.076 115.658ZM279.373 120.211C277.582 120.204 276.27 118.762 276.27 116.369C276.27 113.949 277.603 112.541 279.387 112.541C280.768 112.541 281.267 113.375 281.533 113.84H281.602V110.162H283.064V120.061H281.643V118.898H281.533C281.26 119.384 280.727 120.204 279.373 120.211ZM277.76 116.342C277.753 117.832 278.423 118.96 279.701 118.967C280.945 118.96 281.643 117.9 281.643 116.342C281.643 114.797 280.959 113.778 279.701 113.785C278.409 113.778 277.753 114.879 277.76 116.342ZM292.553 114.66C292.416 114.072 291.951 113.689 291.145 113.689C290.311 113.689 289.716 114.12 289.723 114.688C289.716 115.125 290.064 115.439 290.885 115.631L292.061 115.904C293.428 116.212 294.091 116.861 294.098 117.914C294.091 119.254 292.956 120.211 291.062 120.211C289.278 120.211 288.226 119.418 288.041 118.037H289.531C289.661 118.707 290.167 119.042 291.049 119.035C291.992 119.042 292.601 118.646 292.607 118.023C292.601 117.545 292.245 117.237 291.459 117.053L290.297 116.807C288.957 116.513 288.26 115.795 288.26 114.77C288.26 113.45 289.408 112.541 291.131 112.541C292.785 112.541 293.817 113.382 293.961 114.66H292.553ZM298.719 120.211C296.531 120.211 295.185 118.7 295.191 116.396C295.185 114.113 296.552 112.541 298.623 112.541C300.312 112.541 301.918 113.587 301.918 116.273V116.793H296.641C296.682 118.208 297.516 119.008 298.732 119.008C299.56 119.008 300.1 118.652 300.346 118.201H301.822C301.494 119.404 300.353 120.211 298.719 120.211ZM296.647 115.699H300.482C300.482 114.571 299.751 113.737 298.637 113.744C297.468 113.737 296.709 114.653 296.647 115.699ZM303.367 120.061V112.637H304.775V113.812H304.857C305.131 113.02 305.876 112.521 306.744 112.527C306.922 112.521 307.209 112.541 307.359 112.555V113.949C307.236 113.922 306.895 113.86 306.594 113.867C305.582 113.86 304.83 114.564 304.83 115.535V120.061H303.367ZM315.057 112.637L312.363 120.061H310.791L308.098 112.637H309.67L311.543 118.338H311.611L313.484 112.637H315.057ZM319.186 120.211C316.998 120.211 315.651 118.7 315.658 116.396C315.651 114.113 317.019 112.541 319.09 112.541C320.778 112.541 322.385 113.587 322.385 116.273V116.793H317.107C317.148 118.208 317.982 119.008 319.199 119.008C320.026 119.008 320.566 118.652 320.812 118.201H322.289C321.961 119.404 320.819 120.211 319.186 120.211ZM317.114 115.699H320.949C320.949 114.571 320.218 113.737 319.104 113.744C317.935 113.737 317.176 114.653 317.114 115.699ZM330.725 112.637V113.799H329.207V117.873C329.214 118.714 329.624 118.864 330.096 118.871C330.308 118.871 330.629 118.851 330.834 118.83V120.102C330.636 120.129 330.321 120.156 329.918 120.156C328.776 120.156 327.744 119.527 327.758 118.174V113.799H326.664V112.637H327.758V110.859H329.207V112.637H330.725ZM333.773 115.658V120.061H332.311V110.162H333.746V113.854H333.842C334.19 113.047 334.888 112.541 336.043 112.541C337.567 112.541 338.586 113.484 338.586 115.344V120.061H337.123V115.521C337.123 114.428 336.535 113.799 335.551 113.799C334.519 113.799 333.773 114.476 333.773 115.658ZM343.549 120.211C341.361 120.211 340.015 118.7 340.021 116.396C340.015 114.113 341.382 112.541 343.453 112.541C345.142 112.541 346.748 113.587 346.748 116.273V116.793H341.471C341.512 118.208 342.346 119.008 343.562 119.008C344.39 119.008 344.93 118.652 345.176 118.201H346.652C346.324 119.404 345.183 120.211 343.549 120.211ZM341.478 115.699H345.312C345.312 114.571 344.581 113.737 343.467 113.744C342.298 113.737 341.539 114.653 341.478 115.699ZM126.057 138.211C123.89 138.211 122.577 136.618 122.584 134.383C122.577 132.12 123.938 130.541 126.029 130.541C127.725 130.541 128.948 131.539 129.105 133.043H127.684C127.533 132.346 126.979 131.765 126.057 131.758C124.854 131.765 124.047 132.763 124.047 134.342C124.047 135.969 124.833 136.974 126.057 136.967C126.884 136.974 127.499 136.509 127.684 135.709H129.105C128.948 137.151 127.807 138.211 126.057 138.211ZM130.486 138.061V130.637H131.895V131.812H131.977C132.25 131.02 132.995 130.521 133.863 130.527C134.041 130.521 134.328 130.541 134.479 130.555V131.949C134.355 131.922 134.014 131.86 133.713 131.867C132.701 131.86 131.949 132.564 131.949 133.535V138.061H130.486ZM138.525 138.211C136.338 138.211 134.991 136.7 134.998 134.396C134.991 132.113 136.358 130.541 138.43 130.541C140.118 130.541 141.725 131.587 141.725 134.273V134.793H136.447C136.488 136.208 137.322 137.008 138.539 137.008C139.366 137.008 139.906 136.652 140.152 136.201H141.629C141.301 137.404 140.159 138.211 138.525 138.211ZM136.454 133.699H140.289C140.289 132.571 139.558 131.737 138.443 131.744C137.274 131.737 136.516 132.653 136.454 133.699ZM142.832 135.969C142.825 134.273 144.268 133.836 145.607 133.74C146.1 133.713 147.214 133.651 147.556 133.638L147.549 133.043C147.556 132.202 147.036 131.717 146.045 131.717C145.184 131.717 144.664 132.113 144.514 132.66H143.064C143.194 131.43 144.343 130.541 146.1 130.541C147.282 130.541 149.005 130.972 149.012 133.125V138.061H147.59V137.049H147.535C147.248 137.603 146.564 138.225 145.334 138.225C143.926 138.225 142.825 137.418 142.832 135.969ZM144.254 135.982C144.254 136.693 144.842 137.056 145.662 137.062C146.852 137.056 147.562 136.263 147.562 135.381L147.556 134.704C147.221 134.725 146.161 134.8 145.812 134.82C144.855 134.889 144.254 135.251 144.254 135.982ZM154.248 130.637V131.799H152.73V135.873C152.737 136.714 153.147 136.864 153.619 136.871C153.831 136.871 154.152 136.851 154.357 136.83V138.102C154.159 138.129 153.845 138.156 153.441 138.156C152.3 138.156 151.268 137.527 151.281 136.174V131.799H150.188V130.637H151.281V128.859H152.73V130.637H154.248ZM158.787 138.211C156.6 138.211 155.253 136.7 155.26 134.396C155.253 132.113 156.62 130.541 158.691 130.541C160.38 130.541 161.986 131.587 161.986 134.273V134.793H156.709C156.75 136.208 157.584 137.008 158.801 137.008C159.628 137.008 160.168 136.652 160.414 136.201H161.891C161.562 137.404 160.421 138.211 158.787 138.211ZM156.716 133.699H160.551C160.551 132.571 159.819 131.737 158.705 131.744C157.536 131.737 156.777 132.653 156.716 133.699ZM166.211 138.211C164.42 138.204 163.107 136.762 163.107 134.369C163.107 131.949 164.44 130.541 166.225 130.541C167.605 130.541 168.104 131.375 168.371 131.84H168.439V128.162H169.902V138.061H168.48V136.898H168.371C168.098 137.384 167.564 138.204 166.211 138.211ZM164.598 134.342C164.591 135.832 165.261 136.96 166.539 136.967C167.783 136.96 168.48 135.9 168.48 134.342C168.48 132.797 167.797 131.778 166.539 131.785C165.247 131.778 164.591 132.879 164.598 134.342ZM175.221 138.061V130.637H176.629V131.854H176.711C177.025 131.026 177.757 130.541 178.734 130.541C179.726 130.541 180.416 131.026 180.73 131.854H180.812C181.161 131.054 181.968 130.541 183.041 130.541C184.381 130.541 185.331 131.382 185.338 133.084V138.061H183.875V133.221C183.875 132.216 183.246 131.799 182.48 131.799C181.544 131.799 181.004 132.441 181.004 133.33V138.061H179.555V133.139C179.555 132.325 179.001 131.799 178.201 131.799C177.381 131.799 176.684 132.482 176.684 133.48V138.061H175.221ZM190.246 138.211C188.141 138.211 186.767 136.68 186.773 134.383C186.767 132.072 188.141 130.541 190.246 130.541C192.338 130.541 193.705 132.072 193.705 134.383C193.705 136.68 192.338 138.211 190.246 138.211ZM188.236 134.383C188.236 135.798 188.886 136.994 190.246 136.994C191.586 136.994 192.229 135.798 192.229 134.383C192.229 132.961 191.586 131.751 190.246 131.744C188.886 131.751 188.236 132.961 188.236 134.383ZM197.916 138.211C196.125 138.204 194.812 136.762 194.812 134.369C194.812 131.949 196.146 130.541 197.93 130.541C199.311 130.541 199.81 131.375 200.076 131.84H200.145V128.162H201.607V138.061H200.186V136.898H200.076C199.803 137.384 199.27 138.204 197.916 138.211ZM196.303 134.342C196.296 135.832 196.966 136.96 198.244 136.967C199.488 136.96 200.186 135.9 200.186 134.342C200.186 132.797 199.502 131.778 198.244 131.785C196.952 131.778 196.296 132.879 196.303 134.342ZM206.707 138.211C204.52 138.211 203.173 136.7 203.18 134.396C203.173 132.113 204.54 130.541 206.611 130.541C208.3 130.541 209.906 131.587 209.906 134.273V134.793H204.629C204.67 136.208 205.504 137.008 206.721 137.008C207.548 137.008 208.088 136.652 208.334 136.201H209.811C209.482 137.404 208.341 138.211 206.707 138.211ZM204.636 133.699H208.471C208.471 132.571 207.739 131.737 206.625 131.744C205.456 131.737 204.697 132.653 204.636 133.699ZM212.818 128.162V138.061H211.355V128.162H212.818ZM219.613 138.061L217.439 130.637H218.943L220.393 136.078H220.475L221.924 130.637H223.428L224.863 136.051H224.945L226.381 130.637H227.885L225.711 138.061H224.221L222.717 132.715H222.607L221.117 138.061H219.613ZM229.088 138.061V130.637H230.551V138.061H229.088ZM228.896 128.627C228.903 128.148 229.32 127.766 229.826 127.766C230.325 127.766 230.742 128.148 230.742 128.627C230.742 129.105 230.325 129.495 229.826 129.488C229.32 129.495 228.903 129.105 228.896 128.627ZM235.801 130.637V131.799H234.283V135.873C234.29 136.714 234.7 136.864 235.172 136.871C235.384 136.871 235.705 136.851 235.91 136.83V138.102C235.712 138.129 235.397 138.156 234.994 138.156C233.853 138.156 232.82 137.527 232.834 136.174V131.799H231.74V130.637H232.834V128.859H234.283V130.637H235.801ZM238.85 133.658V138.061H237.387V128.162H238.822V131.854H238.918C239.267 131.047 239.964 130.541 241.119 130.541C242.644 130.541 243.662 131.484 243.662 133.344V138.061H242.199V133.521C242.199 132.428 241.611 131.799 240.627 131.799C239.595 131.799 238.85 132.476 238.85 133.658ZM248.57 138.211C246.465 138.211 245.091 136.68 245.098 134.383C245.091 132.072 246.465 130.541 248.57 130.541C250.662 130.541 252.029 132.072 252.029 134.383C252.029 136.68 250.662 138.211 248.57 138.211ZM246.561 134.383C246.561 135.798 247.21 136.994 248.57 136.994C249.91 136.994 250.553 135.798 250.553 134.383C250.553 132.961 249.91 131.751 248.57 131.744C247.21 131.751 246.561 132.961 246.561 134.383ZM258.182 134.971V130.637H259.631V138.061H258.209V136.775H258.127C257.785 137.568 257.026 138.156 255.912 138.156C254.477 138.156 253.465 137.192 253.465 135.354V130.637H254.928V135.176C254.928 136.188 255.543 136.83 256.432 136.83C257.245 136.83 258.182 136.235 258.182 134.971ZM264.881 130.637V131.799H263.363V135.873C263.37 136.714 263.78 136.864 264.252 136.871C264.464 136.871 264.785 136.851 264.99 136.83V138.102C264.792 138.129 264.478 138.156 264.074 138.156C262.933 138.156 261.9 137.527 261.914 136.174V131.799H260.82V130.637H261.914V128.859H263.363V130.637H264.881ZM269.379 135.969C269.372 134.273 270.814 133.836 272.154 133.74C272.646 133.713 273.761 133.651 274.103 133.638L274.096 133.043C274.103 132.202 273.583 131.717 272.592 131.717C271.73 131.717 271.211 132.113 271.061 132.66H269.611C269.741 131.43 270.89 130.541 272.646 130.541C273.829 130.541 275.552 130.972 275.559 133.125V138.061H274.137V137.049H274.082C273.795 137.603 273.111 138.225 271.881 138.225C270.473 138.225 269.372 137.418 269.379 135.969ZM270.801 135.982C270.801 136.693 271.389 137.056 272.209 137.062C273.398 137.056 274.109 136.263 274.109 135.381L274.103 134.704C273.768 134.725 272.708 134.8 272.359 134.82C271.402 134.889 270.801 135.251 270.801 135.982ZM278.785 133.658V138.061H277.322V130.637H278.73V131.854H278.812C279.161 131.054 279.893 130.541 281 130.541C282.524 130.541 283.536 131.505 283.529 133.344V138.061H282.08V133.521C282.073 132.441 281.492 131.799 280.508 131.799C279.503 131.799 278.785 132.476 278.785 133.658ZM285.936 140.85C285.635 140.843 285.341 140.836 285.156 140.809V139.592C285.32 139.605 285.607 139.612 285.812 139.619C286.264 139.612 286.64 139.585 286.988 138.648L287.166 138.156L284.445 130.637H286.004L287.877 136.393H287.959L289.832 130.637H291.404L288.342 139.045C287.911 140.221 287.159 140.843 285.936 140.85ZM122.912 156.061V148.637H124.375V156.061H122.912ZM122.721 146.627C122.728 146.148 123.145 145.766 123.65 145.766C124.149 145.766 124.566 146.148 124.566 146.627C124.566 147.105 124.149 147.495 123.65 147.488C123.145 147.495 122.728 147.105 122.721 146.627ZM127.615 151.658V156.061H126.152V148.637H127.561V149.854H127.643C127.991 149.054 128.723 148.541 129.83 148.541C131.354 148.541 132.366 149.505 132.359 151.344V156.061H130.91V151.521C130.903 150.441 130.322 149.799 129.338 149.799C128.333 149.799 127.615 150.476 127.615 151.658ZM137.678 148.637V149.799H136.078V156.061H134.615V149.799H133.467V148.637H134.615V147.775C134.622 146.449 135.47 145.697 136.83 145.697C137.179 145.697 137.541 145.738 137.828 145.793V147.01C137.555 146.969 137.343 146.955 137.213 146.955C136.44 146.955 136.078 147.27 136.078 147.994V148.637H137.678ZM139.004 156.061V148.637H140.412V149.812H140.494C140.768 149.02 141.513 148.521 142.381 148.527C142.559 148.521 142.846 148.541 142.996 148.555V149.949C142.873 149.922 142.531 149.86 142.23 149.867C141.219 149.86 140.467 150.564 140.467 151.535V156.061H139.004ZM143.666 153.969C143.659 152.273 145.102 151.836 146.441 151.74C146.934 151.713 148.048 151.651 148.39 151.638L148.383 151.043C148.39 150.202 147.87 149.717 146.879 149.717C146.018 149.717 145.498 150.113 145.348 150.66H143.898C144.028 149.43 145.177 148.541 146.934 148.541C148.116 148.541 149.839 148.972 149.846 151.125V156.061H148.424V155.049H148.369C148.082 155.603 147.398 156.225 146.168 156.225C144.76 156.225 143.659 155.418 143.666 153.969ZM145.088 153.982C145.088 154.693 145.676 155.056 146.496 155.062C147.686 155.056 148.396 154.263 148.396 153.381L148.39 152.704C148.055 152.725 146.995 152.8 146.646 152.82C145.689 152.889 145.088 153.251 145.088 153.982ZM155.779 150.66C155.643 150.072 155.178 149.689 154.371 149.689C153.537 149.689 152.942 150.12 152.949 150.688C152.942 151.125 153.291 151.439 154.111 151.631L155.287 151.904C156.654 152.212 157.317 152.861 157.324 153.914C157.317 155.254 156.183 156.211 154.289 156.211C152.505 156.211 151.452 155.418 151.268 154.037H152.758C152.888 154.707 153.394 155.042 154.275 155.035C155.219 155.042 155.827 154.646 155.834 154.023C155.827 153.545 155.472 153.237 154.686 153.053L153.523 152.807C152.184 152.513 151.486 151.795 151.486 150.77C151.486 149.45 152.635 148.541 154.357 148.541C156.012 148.541 157.044 149.382 157.188 150.66H155.779ZM162.219 148.637V149.799H160.701V153.873C160.708 154.714 161.118 154.864 161.59 154.871C161.802 154.871 162.123 154.851 162.328 154.83V156.102C162.13 156.129 161.815 156.156 161.412 156.156C160.271 156.156 159.238 155.527 159.252 154.174V149.799H158.158V148.637H159.252V146.859H160.701V148.637H162.219ZM163.641 156.061V148.637H165.049V149.812H165.131C165.404 149.02 166.149 148.521 167.018 148.527C167.195 148.521 167.482 148.541 167.633 148.555V149.949C167.51 149.922 167.168 149.86 166.867 149.867C165.855 149.86 165.104 150.564 165.104 151.535V156.061H163.641ZM173.443 152.971V148.637H174.893V156.061H173.471V154.775H173.389C173.047 155.568 172.288 156.156 171.174 156.156C169.738 156.156 168.727 155.192 168.727 153.354V148.637H170.189V153.176C170.189 154.188 170.805 154.83 171.693 154.83C172.507 154.83 173.443 154.235 173.443 152.971ZM179.814 156.211C177.647 156.211 176.335 154.618 176.342 152.383C176.335 150.12 177.695 148.541 179.787 148.541C181.482 148.541 182.706 149.539 182.863 151.043H181.441C181.291 150.346 180.737 149.765 179.814 149.758C178.611 149.765 177.805 150.763 177.805 152.342C177.805 153.969 178.591 154.974 179.814 154.967C180.642 154.974 181.257 154.509 181.441 153.709H182.863C182.706 155.151 181.564 156.211 179.814 156.211ZM187.717 148.637V149.799H186.199V153.873C186.206 154.714 186.616 154.864 187.088 154.871C187.3 154.871 187.621 154.851 187.826 154.83V156.102C187.628 156.129 187.313 156.156 186.91 156.156C185.769 156.156 184.736 155.527 184.75 154.174V149.799H183.656V148.637H184.75V146.859H186.199V148.637H187.717ZM193.855 152.971V148.637H195.305V156.061H193.883V154.775H193.801C193.459 155.568 192.7 156.156 191.586 156.156C190.15 156.156 189.139 155.192 189.139 153.354V148.637H190.602V153.176C190.602 154.188 191.217 154.83 192.105 154.83C192.919 154.83 193.855 154.235 193.855 152.971ZM197.082 156.061V148.637H198.49V149.812H198.572C198.846 149.02 199.591 148.521 200.459 148.527C200.637 148.521 200.924 148.541 201.074 148.555V149.949C200.951 149.922 200.609 149.86 200.309 149.867C199.297 149.86 198.545 150.564 198.545 151.535V156.061H197.082ZM205.121 156.211C202.934 156.211 201.587 154.7 201.594 152.396C201.587 150.113 202.954 148.541 205.025 148.541C206.714 148.541 208.32 149.587 208.32 152.273V152.793H203.043C203.084 154.208 203.918 155.008 205.135 155.008C205.962 155.008 206.502 154.652 206.748 154.201H208.225C207.896 155.404 206.755 156.211 205.121 156.211ZM203.05 151.699H206.885C206.885 150.571 206.153 149.737 205.039 149.744C203.87 149.737 203.111 150.653 203.05 151.699ZM213.188 156.061V146.162H214.65V151.768H214.773L217.713 148.637H219.463L216.462 151.822L219.668 156.061H217.877L215.354 152.725L214.65 153.422V156.061H213.188ZM222.074 151.658V156.061H220.611V148.637H222.02V149.854H222.102C222.45 149.054 223.182 148.541 224.289 148.541C225.813 148.541 226.825 149.505 226.818 151.344V156.061H225.369V151.521C225.362 150.441 224.781 149.799 223.797 149.799C222.792 149.799 222.074 150.476 222.074 151.658ZM231.74 156.211C229.635 156.211 228.261 154.68 228.268 152.383C228.261 150.072 229.635 148.541 231.74 148.541C233.832 148.541 235.199 150.072 235.199 152.383C235.199 154.68 233.832 156.211 231.74 156.211ZM229.73 152.383C229.73 153.798 230.38 154.994 231.74 154.994C233.08 154.994 233.723 153.798 233.723 152.383C233.723 150.961 233.08 149.751 231.74 149.744C230.38 149.751 229.73 150.961 229.73 152.383ZM238.002 156.061L235.828 148.637H237.332L238.781 154.078H238.863L240.312 148.637H241.816L243.252 154.051H243.334L244.77 148.637H246.273L244.1 156.061H242.609L241.105 150.715H240.996L239.506 156.061H238.002ZM248.939 146.162V156.061H247.477V146.162H248.939ZM253.916 156.211C251.729 156.211 250.382 154.7 250.389 152.396C250.382 150.113 251.749 148.541 253.82 148.541C255.509 148.541 257.115 149.587 257.115 152.273V152.793H251.838C251.879 154.208 252.713 155.008 253.93 155.008C254.757 155.008 255.297 154.652 255.543 154.201H257.02C256.691 155.404 255.55 156.211 253.916 156.211ZM251.845 151.699H255.68C255.68 150.571 254.948 149.737 253.834 149.744C252.665 149.737 251.906 150.653 251.845 151.699ZM261.34 156.211C259.549 156.204 258.236 154.762 258.236 152.369C258.236 149.949 259.569 148.541 261.354 148.541C262.734 148.541 263.233 149.375 263.5 149.84H263.568V146.162H265.031V156.061H263.609V154.898H263.5C263.227 155.384 262.693 156.204 261.34 156.211ZM259.727 152.342C259.72 153.832 260.39 154.96 261.668 154.967C262.912 154.96 263.609 153.9 263.609 152.342C263.609 150.797 262.926 149.778 261.668 149.785C260.376 149.778 259.72 150.879 259.727 152.342ZM270.049 159C268.176 159 266.938 158.173 266.809 156.785H268.299C268.442 157.489 269.099 157.831 270.062 157.824C271.225 157.831 271.956 157.325 271.963 156.17V154.707H271.867C271.607 155.186 271.074 155.951 269.707 155.951C267.957 155.951 266.604 154.646 266.604 152.273C266.604 149.901 267.937 148.541 269.721 148.541C271.102 148.541 271.607 149.375 271.881 149.84H271.977V148.637H273.398V156.225C273.405 158.132 271.963 159 270.049 159ZM268.094 152.301C268.087 153.757 268.757 154.741 270.035 154.748C271.279 154.741 271.977 153.832 271.977 152.301C271.977 150.797 271.293 149.778 270.035 149.785C268.743 149.778 268.087 150.879 268.094 152.301ZM278.375 156.211C276.188 156.211 274.841 154.7 274.848 152.396C274.841 150.113 276.208 148.541 278.279 148.541C279.968 148.541 281.574 149.587 281.574 152.273V152.793H276.297C276.338 154.208 277.172 155.008 278.389 155.008C279.216 155.008 279.756 154.652 280.002 154.201H281.479C281.15 155.404 280.009 156.211 278.375 156.211ZM276.304 151.699H280.139C280.139 150.571 279.407 149.737 278.293 149.744C277.124 149.737 276.365 150.653 276.304 151.699ZM283.98 156.156C283.447 156.149 283.003 155.719 283.01 155.186C283.003 154.652 283.447 154.215 283.98 154.215C284.507 154.215 284.944 154.652 284.951 155.186C284.944 155.719 284.507 156.149 283.98 156.156Z" fill="#ECECF8"/>
<g clip-path="url(#clip2_597_10392)">
<path d="M40.4746 196.857V195.162H48.582V196.857H45.5469V205.061H43.5098V196.857H40.4746ZM52.0957 205.211C49.8193 205.204 48.4248 203.734 48.4316 201.383C48.4248 199.093 49.8398 197.541 52.0137 197.541C53.9619 197.541 55.5 198.771 55.5 201.301V201.875H50.4277C50.4277 202.996 51.0908 203.687 52.1367 203.693C52.8271 203.687 53.3193 203.386 53.5176 202.941H55.4453C55.1582 204.315 53.9277 205.204 52.0957 205.211ZM50.4277 200.604H53.5859C53.5791 199.701 52.957 199.052 52.0547 199.059C51.125 199.052 50.4688 199.749 50.4277 200.604ZM60.1074 205.211C57.8311 205.204 56.4639 203.632 56.4707 201.369C56.4639 199.1 57.8584 197.541 60.1074 197.541C62.0215 197.541 63.3203 198.655 63.4023 200.357H61.502C61.3789 199.626 60.9004 199.12 60.1348 199.113C59.1641 199.12 58.5215 199.934 58.5215 201.342C58.5215 202.777 59.1504 203.598 60.1348 203.598C60.8457 203.598 61.3721 203.153 61.502 202.367H63.4023C63.3135 204.049 62.0762 205.204 60.1074 205.211ZM66.6836 200.768V205.061H64.6602V195.162H66.6289V198.936H66.7109C67.0527 198.067 67.7979 197.541 68.9258 197.541C70.4775 197.541 71.4961 198.587 71.4961 200.33V205.061H69.4727V200.686C69.4727 199.763 68.9805 199.223 68.1328 199.223C67.2783 199.223 66.6836 199.79 66.6836 200.768Z" fill="#ECECF8" fill-opacity="0.5"/>
<path d="M40.543 227.961V226.662H48.2129V227.961H45.1367V236.561H43.6328V227.961H40.543ZM51.7402 236.711C49.5527 236.711 48.2061 235.2 48.2129 232.896C48.2061 230.613 49.5732 229.041 51.6445 229.041C53.333 229.041 54.9395 230.087 54.9395 232.773V233.293H49.6621C49.7031 234.708 50.5371 235.508 51.7539 235.508C52.5811 235.508 53.1211 235.152 53.3672 234.701H54.8438C54.5156 235.904 53.374 236.711 51.7402 236.711ZM49.6689 232.199H53.5039C53.5039 231.071 52.7725 230.237 51.6582 230.244C50.4893 230.237 49.7305 231.153 49.6689 232.199ZM59.5332 236.711C57.3662 236.711 56.0537 235.118 56.0605 232.883C56.0537 230.62 57.4141 229.041 59.5059 229.041C61.2012 229.041 62.4248 230.039 62.582 231.543H61.1602C61.0098 230.846 60.4561 230.265 59.5332 230.258C58.3301 230.265 57.5234 231.263 57.5234 232.842C57.5234 234.469 58.3096 235.474 59.5332 235.467C60.3604 235.474 60.9756 235.009 61.1602 234.209H62.582C62.4248 235.651 61.2832 236.711 59.5332 236.711ZM65.4258 232.158V236.561H63.9629V226.662H65.3984V230.354H65.4941C65.8428 229.547 66.54 229.041 67.6953 229.041C69.2197 229.041 70.2383 229.984 70.2383 231.844V236.561H68.7754V232.021C68.7754 230.928 68.1875 230.299 67.2031 230.299C66.1709 230.299 65.4258 230.976 65.4258 232.158ZM73.4648 232.158V236.561H72.002V229.137H73.4102V230.354H73.4922C73.8408 229.554 74.5723 229.041 75.6797 229.041C77.2041 229.041 78.2158 230.005 78.209 231.844V236.561H76.7598V232.021C76.7529 230.941 76.1719 230.299 75.1875 230.299C74.1826 230.299 73.4648 230.976 73.4648 232.158ZM79.9863 236.561V229.137H81.4492V236.561H79.9863ZM79.7949 227.127C79.8018 226.648 80.2188 226.266 80.7246 226.266C81.2236 226.266 81.6406 226.648 81.6406 227.127C81.6406 227.605 81.2236 227.995 80.7246 227.988C80.2188 227.995 79.8018 227.605 79.7949 227.127ZM86.3711 236.711C84.2041 236.711 82.8916 235.118 82.8984 232.883C82.8916 230.62 84.252 229.041 86.3438 229.041C88.0391 229.041 89.2627 230.039 89.4199 231.543H87.998C87.8477 230.846 87.2939 230.265 86.3711 230.258C85.168 230.265 84.3613 231.263 84.3613 232.842C84.3613 234.469 85.1475 235.474 86.3711 235.467C87.1982 235.474 87.8135 235.009 87.998 234.209H89.4199C89.2627 235.651 88.1211 236.711 86.3711 236.711ZM90.459 234.469C90.4521 232.773 91.8945 232.336 93.2344 232.24C93.7266 232.213 94.8408 232.151 95.1826 232.138L95.1758 231.543C95.1826 230.702 94.6631 230.217 93.6719 230.217C92.8105 230.217 92.291 230.613 92.1406 231.16H90.6914C90.8213 229.93 91.9697 229.041 93.7266 229.041C94.9092 229.041 96.6318 229.472 96.6387 231.625V236.561H95.2168V235.549H95.1621C94.875 236.103 94.1914 236.725 92.9609 236.725C91.5527 236.725 90.4521 235.918 90.459 234.469ZM91.8809 234.482C91.8809 235.193 92.4688 235.556 93.2891 235.562C94.4785 235.556 95.1895 234.763 95.1895 233.881L95.1826 233.204C94.8477 233.225 93.7881 233.3 93.4395 233.32C92.4824 233.389 91.8809 233.751 91.8809 234.482ZM99.8652 226.662V236.561H98.4023V226.662H99.8652ZM105.061 239.35V229.137H106.482V230.34H106.605C106.865 229.875 107.364 229.041 108.738 229.041C110.536 229.041 111.855 230.449 111.855 232.869C111.855 235.262 110.55 236.704 108.752 236.711C107.405 236.704 106.872 235.884 106.605 235.398H106.523V239.35H105.061ZM106.496 232.842C106.496 234.4 107.18 235.46 108.424 235.467C109.709 235.46 110.379 234.332 110.379 232.842C110.379 231.379 109.729 230.278 108.424 230.285C107.166 230.278 106.496 231.297 106.496 232.842ZM113.305 236.561V229.137H114.713V230.312H114.795C115.068 229.52 115.813 229.021 116.682 229.027C116.859 229.021 117.146 229.041 117.297 229.055V230.449C117.174 230.422 116.832 230.36 116.531 230.367C115.52 230.36 114.768 231.064 114.768 232.035V236.561H113.305ZM121.289 236.711C119.184 236.711 117.81 235.18 117.816 232.883C117.81 230.572 119.184 229.041 121.289 229.041C123.381 229.041 124.748 230.572 124.748 232.883C124.748 235.18 123.381 236.711 121.289 236.711ZM119.279 232.883C119.279 234.298 119.929 235.494 121.289 235.494C122.629 235.494 123.271 234.298 123.271 232.883C123.271 231.461 122.629 230.251 121.289 230.244C119.929 230.251 119.279 231.461 119.279 232.883ZM129.725 229.137V230.299H128.125V236.561H126.662V230.299H125.514V229.137H126.662V228.275C126.669 226.949 127.517 226.197 128.877 226.197C129.226 226.197 129.588 226.238 129.875 226.293V227.51C129.602 227.469 129.39 227.455 129.26 227.455C128.487 227.455 128.125 227.77 128.125 228.494V229.137H129.725ZM131.051 236.561V229.137H132.514V236.561H131.051ZM130.859 227.127C130.866 226.648 131.283 226.266 131.789 226.266C132.288 226.266 132.705 226.648 132.705 227.127C132.705 227.605 132.288 227.995 131.789 227.988C131.283 227.995 130.866 227.605 130.859 227.127ZM137.436 236.711C135.269 236.711 133.956 235.118 133.963 232.883C133.956 230.62 135.316 229.041 137.408 229.041C139.104 229.041 140.327 230.039 140.484 231.543H139.062C138.912 230.846 138.358 230.265 137.436 230.258C136.232 230.265 135.426 231.263 135.426 232.842C135.426 234.469 136.212 235.474 137.436 235.467C138.263 235.474 138.878 235.009 139.062 234.209H140.484C140.327 235.651 139.186 236.711 137.436 236.711ZM141.865 236.561V229.137H143.328V236.561H141.865ZM141.674 227.127C141.681 226.648 142.098 226.266 142.604 226.266C143.103 226.266 143.52 226.648 143.52 227.127C143.52 227.605 143.103 227.995 142.604 227.988C142.098 227.995 141.681 227.605 141.674 227.127ZM148.305 236.711C146.117 236.711 144.771 235.2 144.777 232.896C144.771 230.613 146.138 229.041 148.209 229.041C149.897 229.041 151.504 230.087 151.504 232.773V233.293H146.227C146.268 234.708 147.102 235.508 148.318 235.508C149.146 235.508 149.686 235.152 149.932 234.701H151.408C151.08 235.904 149.938 236.711 148.305 236.711ZM146.233 232.199H150.068C150.068 231.071 149.337 230.237 148.223 230.244C147.054 230.237 146.295 231.153 146.233 232.199ZM154.416 232.158V236.561H152.953V229.137H154.361V230.354H154.443C154.792 229.554 155.523 229.041 156.631 229.041C158.155 229.041 159.167 230.005 159.16 231.844V236.561H157.711V232.021C157.704 230.941 157.123 230.299 156.139 230.299C155.134 230.299 154.416 230.976 154.416 232.158ZM164.082 236.711C161.915 236.711 160.603 235.118 160.609 232.883C160.603 230.62 161.963 229.041 164.055 229.041C165.75 229.041 166.974 230.039 167.131 231.543H165.709C165.559 230.846 165.005 230.265 164.082 230.258C162.879 230.265 162.072 231.263 162.072 232.842C162.072 234.469 162.858 235.474 164.082 235.467C164.909 235.474 165.524 235.009 165.709 234.209H167.131C166.974 235.651 165.832 236.711 164.082 236.711ZM169.414 239.35C169.113 239.343 168.819 239.336 168.635 239.309V238.092C168.799 238.105 169.086 238.112 169.291 238.119C169.742 238.112 170.118 238.085 170.467 237.148L170.645 236.656L167.924 229.137H169.482L171.355 234.893H171.438L173.311 229.137H174.883L171.82 237.545C171.39 238.721 170.638 239.343 169.414 239.35ZM179.49 236.561V229.137H180.953V236.561H179.49ZM179.299 227.127C179.306 226.648 179.723 226.266 180.229 226.266C180.728 226.266 181.145 226.648 181.145 227.127C181.145 227.605 180.728 227.995 180.229 227.988C179.723 227.995 179.306 227.605 179.299 227.127ZM184.193 232.158V236.561H182.73V229.137H184.139V230.354H184.221C184.569 229.554 185.301 229.041 186.408 229.041C187.933 229.041 188.944 230.005 188.938 231.844V236.561H187.488V232.021C187.481 230.941 186.9 230.299 185.916 230.299C184.911 230.299 184.193 230.976 184.193 232.158ZM194.256 226.662H196.088L199.219 234.332H199.342L202.473 226.662H204.305V236.561H202.869V229.41H202.773L199.875 236.547H198.686L195.773 229.396H195.691V236.561H194.256V226.662ZM206.328 236.561V226.662H207.832V235.262H212.303V236.561H206.328Z" fill="#ECECF8"/>
<circle cx="246.023" cy="232.061" r="6" fill="#944AF2"/>
<circle cx="270.023" cy="232.061" r="6" fill="#944AF2"/>
<circle cx="294.023" cy="232.061" r="6" fill="#944AF2"/>
<circle cx="318.023" cy="232.061" r="6" fill="#ECECF8" fill-opacity="0.3"/>
<circle cx="342.023" cy="232.061" r="6" fill="#ECECF8" fill-opacity="0.3"/>
<path d="M40.543 264.961V263.662H48.2129V264.961H45.1367V273.561H43.6328V264.961H40.543ZM51.7402 273.711C49.5527 273.711 48.2061 272.2 48.2129 269.896C48.2061 267.613 49.5732 266.041 51.6445 266.041C53.333 266.041 54.9395 267.087 54.9395 269.773V270.293H49.6621C49.7031 271.708 50.5371 272.508 51.7539 272.508C52.5811 272.508 53.1211 272.152 53.3672 271.701H54.8438C54.5156 272.904 53.374 273.711 51.7402 273.711ZM49.6689 269.199H53.5039C53.5039 268.071 52.7725 267.237 51.6582 267.244C50.4893 267.237 49.7305 268.153 49.6689 269.199ZM59.5332 273.711C57.3662 273.711 56.0537 272.118 56.0605 269.883C56.0537 267.62 57.4141 266.041 59.5059 266.041C61.2012 266.041 62.4248 267.039 62.582 268.543H61.1602C61.0098 267.846 60.4561 267.265 59.5332 267.258C58.3301 267.265 57.5234 268.263 57.5234 269.842C57.5234 271.469 58.3096 272.474 59.5332 272.467C60.3604 272.474 60.9756 272.009 61.1602 271.209H62.582C62.4248 272.651 61.2832 273.711 59.5332 273.711ZM65.4258 269.158V273.561H63.9629V263.662H65.3984V267.354H65.4941C65.8428 266.547 66.54 266.041 67.6953 266.041C69.2197 266.041 70.2383 266.984 70.2383 268.844V273.561H68.7754V269.021C68.7754 267.928 68.1875 267.299 67.2031 267.299C66.1709 267.299 65.4258 267.976 65.4258 269.158ZM73.4648 269.158V273.561H72.002V266.137H73.4102V267.354H73.4922C73.8408 266.554 74.5723 266.041 75.6797 266.041C77.2041 266.041 78.2158 267.005 78.209 268.844V273.561H76.7598V269.021C76.7529 267.941 76.1719 267.299 75.1875 267.299C74.1826 267.299 73.4648 267.976 73.4648 269.158ZM79.9863 273.561V266.137H81.4492V273.561H79.9863ZM79.7949 264.127C79.8018 263.648 80.2188 263.266 80.7246 263.266C81.2236 263.266 81.6406 263.648 81.6406 264.127C81.6406 264.605 81.2236 264.995 80.7246 264.988C80.2188 264.995 79.8018 264.605 79.7949 264.127ZM86.3711 273.711C84.2041 273.711 82.8916 272.118 82.8984 269.883C82.8916 267.62 84.252 266.041 86.3438 266.041C88.0391 266.041 89.2627 267.039 89.4199 268.543H87.998C87.8477 267.846 87.2939 267.265 86.3711 267.258C85.168 267.265 84.3613 268.263 84.3613 269.842C84.3613 271.469 85.1475 272.474 86.3711 272.467C87.1982 272.474 87.8135 272.009 87.998 271.209H89.4199C89.2627 272.651 88.1211 273.711 86.3711 273.711ZM90.459 271.469C90.4521 269.773 91.8945 269.336 93.2344 269.24C93.7266 269.213 94.8408 269.151 95.1826 269.138L95.1758 268.543C95.1826 267.702 94.6631 267.217 93.6719 267.217C92.8105 267.217 92.291 267.613 92.1406 268.16H90.6914C90.8213 266.93 91.9697 266.041 93.7266 266.041C94.9092 266.041 96.6318 266.472 96.6387 268.625V273.561H95.2168V272.549H95.1621C94.875 273.103 94.1914 273.725 92.9609 273.725C91.5527 273.725 90.4521 272.918 90.459 271.469ZM91.8809 271.482C91.8809 272.193 92.4688 272.556 93.2891 272.562C94.4785 272.556 95.1895 271.763 95.1895 270.881L95.1826 270.204C94.8477 270.225 93.7881 270.3 93.4395 270.32C92.4824 270.389 91.8809 270.751 91.8809 271.482ZM99.8652 263.662V273.561H98.4023V263.662H99.8652ZM105.061 276.35V266.137H106.482V267.34H106.605C106.865 266.875 107.364 266.041 108.738 266.041C110.536 266.041 111.855 267.449 111.855 269.869C111.855 272.262 110.55 273.704 108.752 273.711C107.405 273.704 106.872 272.884 106.605 272.398H106.523V276.35H105.061ZM106.496 269.842C106.496 271.4 107.18 272.46 108.424 272.467C109.709 272.46 110.379 271.332 110.379 269.842C110.379 268.379 109.729 267.278 108.424 267.285C107.166 267.278 106.496 268.297 106.496 269.842ZM113.305 273.561V266.137H114.713V267.312H114.795C115.068 266.52 115.813 266.021 116.682 266.027C116.859 266.021 117.146 266.041 117.297 266.055V267.449C117.174 267.422 116.832 267.36 116.531 267.367C115.52 267.36 114.768 268.064 114.768 269.035V273.561H113.305ZM121.289 273.711C119.184 273.711 117.81 272.18 117.816 269.883C117.81 267.572 119.184 266.041 121.289 266.041C123.381 266.041 124.748 267.572 124.748 269.883C124.748 272.18 123.381 273.711 121.289 273.711ZM119.279 269.883C119.279 271.298 119.929 272.494 121.289 272.494C122.629 272.494 123.271 271.298 123.271 269.883C123.271 268.461 122.629 267.251 121.289 267.244C119.929 267.251 119.279 268.461 119.279 269.883ZM129.725 266.137V267.299H128.125V273.561H126.662V267.299H125.514V266.137H126.662V265.275C126.669 263.949 127.517 263.197 128.877 263.197C129.226 263.197 129.588 263.238 129.875 263.293V264.51C129.602 264.469 129.39 264.455 129.26 264.455C128.487 264.455 128.125 264.77 128.125 265.494V266.137H129.725ZM131.051 273.561V266.137H132.514V273.561H131.051ZM130.859 264.127C130.866 263.648 131.283 263.266 131.789 263.266C132.288 263.266 132.705 263.648 132.705 264.127C132.705 264.605 132.288 264.995 131.789 264.988C131.283 264.995 130.866 264.605 130.859 264.127ZM137.436 273.711C135.269 273.711 133.956 272.118 133.963 269.883C133.956 267.62 135.316 266.041 137.408 266.041C139.104 266.041 140.327 267.039 140.484 268.543H139.062C138.912 267.846 138.358 267.265 137.436 267.258C136.232 267.265 135.426 268.263 135.426 269.842C135.426 271.469 136.212 272.474 137.436 272.467C138.263 272.474 138.878 272.009 139.062 271.209H140.484C140.327 272.651 139.186 273.711 137.436 273.711ZM141.865 273.561V266.137H143.328V273.561H141.865ZM141.674 264.127C141.681 263.648 142.098 263.266 142.604 263.266C143.103 263.266 143.52 263.648 143.52 264.127C143.52 264.605 143.103 264.995 142.604 264.988C142.098 264.995 141.681 264.605 141.674 264.127ZM148.305 273.711C146.117 273.711 144.771 272.2 144.777 269.896C144.771 267.613 146.138 266.041 148.209 266.041C149.897 266.041 151.504 267.087 151.504 269.773V270.293H146.227C146.268 271.708 147.102 272.508 148.318 272.508C149.146 272.508 149.686 272.152 149.932 271.701H151.408C151.08 272.904 149.938 273.711 148.305 273.711ZM146.233 269.199H150.068C150.068 268.071 149.337 267.237 148.223 267.244C147.054 267.237 146.295 268.153 146.233 269.199ZM154.416 269.158V273.561H152.953V266.137H154.361V267.354H154.443C154.792 266.554 155.523 266.041 156.631 266.041C158.155 266.041 159.167 267.005 159.16 268.844V273.561H157.711V269.021C157.704 267.941 157.123 267.299 156.139 267.299C155.134 267.299 154.416 267.976 154.416 269.158ZM164.082 273.711C161.915 273.711 160.603 272.118 160.609 269.883C160.603 267.62 161.963 266.041 164.055 266.041C165.75 266.041 166.974 267.039 167.131 268.543H165.709C165.559 267.846 165.005 267.265 164.082 267.258C162.879 267.265 162.072 268.263 162.072 269.842C162.072 271.469 162.858 272.474 164.082 272.467C164.909 272.474 165.524 272.009 165.709 271.209H167.131C166.974 272.651 165.832 273.711 164.082 273.711ZM169.414 276.35C169.113 276.343 168.819 276.336 168.635 276.309V275.092C168.799 275.105 169.086 275.112 169.291 275.119C169.742 275.112 170.118 275.085 170.467 274.148L170.645 273.656L167.924 266.137H169.482L171.355 271.893H171.438L173.311 266.137H174.883L171.82 274.545C171.39 275.721 170.638 276.343 169.414 276.35ZM179.49 273.561V266.137H180.953V273.561H179.49ZM179.299 264.127C179.306 263.648 179.723 263.266 180.229 263.266C180.728 263.266 181.145 263.648 181.145 264.127C181.145 264.605 180.728 264.995 180.229 264.988C179.723 264.995 179.306 264.605 179.299 264.127ZM184.193 269.158V273.561H182.73V266.137H184.139V267.354H184.221C184.569 266.554 185.301 266.041 186.408 266.041C187.933 266.041 188.944 267.005 188.938 268.844V273.561H187.488V269.021C187.481 267.941 186.9 267.299 185.916 267.299C184.911 267.299 184.193 267.976 184.193 269.158ZM202.855 268.611C202.855 271.776 200.955 273.697 198.398 273.697C195.821 273.697 193.928 271.77 193.928 268.611C193.928 265.446 195.821 263.525 198.398 263.525C200.955 263.525 202.855 265.446 202.855 268.611ZM195.418 268.611C195.425 271.018 196.689 272.323 198.398 272.316C200.094 272.323 201.358 271.018 201.365 268.611C201.358 266.205 200.094 264.899 198.398 264.906C196.689 264.899 195.425 266.205 195.418 268.611ZM204.428 276.35V266.137H205.85V267.34H205.973C206.232 266.875 206.731 266.041 208.105 266.041C209.903 266.041 211.223 267.449 211.223 269.869C211.223 272.262 209.917 273.704 208.119 273.711C206.772 273.704 206.239 272.884 205.973 272.398H205.891V276.35H204.428ZM205.863 269.842C205.863 271.4 206.547 272.46 207.791 272.467C209.076 272.46 209.746 271.332 209.746 269.842C209.746 268.379 209.097 267.278 207.791 267.285C206.533 267.278 205.863 268.297 205.863 269.842ZM216.842 268.16C216.705 267.572 216.24 267.189 215.434 267.189C214.6 267.189 214.005 267.62 214.012 268.188C214.005 268.625 214.354 268.939 215.174 269.131L216.35 269.404C217.717 269.712 218.38 270.361 218.387 271.414C218.38 272.754 217.245 273.711 215.352 273.711C213.567 273.711 212.515 272.918 212.33 271.537H213.82C213.95 272.207 214.456 272.542 215.338 272.535C216.281 272.542 216.89 272.146 216.896 271.523C216.89 271.045 216.534 270.737 215.748 270.553L214.586 270.307C213.246 270.013 212.549 269.295 212.549 268.27C212.549 266.95 213.697 266.041 215.42 266.041C217.074 266.041 218.106 266.882 218.25 268.16H216.842Z" fill="#ECECF8"/>
<circle cx="246.023" cy="269.061" r="6" fill="#944AF2"/>
<circle cx="270.023" cy="269.061" r="6" fill="#ECECF8" fill-opacity="0.3"/>
<circle cx="294.023" cy="269.061" r="6" fill="#ECECF8" fill-opacity="0.3"/>
<circle cx="318.023" cy="269.061" r="6" fill="#ECECF8" fill-opacity="0.3"/>
<circle cx="342.023" cy="269.061" r="6" fill="#ECECF8" fill-opacity="0.3"/>
</g>
</g>
<rect x="0.523438" y="1.05664" width="399" height="305.504" rx="11.5" stroke="white" stroke-opacity="0.2"/>
<defs>
<filter id="filter0_f_597_10392" x="67.7453" y="55.589" width="8.09143" height="9.35999" filterUnits="userSpaceOnUse" color-interpolation-filters="sRGB">
<feFlood flood-opacity="0" result="BackgroundImageFix"/>
<feBlend mode="normal" in="SourceGraphic" in2="BackgroundImageFix" result="shape"/>
<feGaussianBlur stdDeviation="0.834382" result="effect1_foregroundBlur_597_10392"/>
</filter>
<linearGradient id="paint0_linear_597_10392" x1="60.0234" y1="20.5566" x2="60.0234" y2="100.557" gradientUnits="userSpaceOnUse">
<stop stop-color="#8371B9"/>
<stop offset="1" stop-opacity="0"/>
</linearGradient>
<linearGradient id="paint1_linear_597_10392" x1="59.957" y1="40.9758" x2="35.9685" y2="85.6152" gradientUnits="userSpaceOnUse">
<stop stop-color="#2F2632"/>
<stop offset="0.503343" stop-color="#0C0C0F"/>
<stop offset="0.762152" stop-color="#39447A"/>
<stop offset="1" stop-color="#694795"/>
</linearGradient>
<linearGradient id="paint2_linear_597_10392" x1="60.4521" y1="93.7512" x2="60.4521" y2="102.095" gradientUnits="userSpaceOnUse">
<stop stop-color="#4D3A63"/>
<stop offset="1" stop-color="#17121C"/>
</linearGradient>
<linearGradient id="paint3_linear_597_10392" x1="62.034" y1="67.4658" x2="66.8317" y2="78.73" gradientUnits="userSpaceOnUse">
<stop stop-color="#AA585E"/>
<stop offset="1" stop-color="#AA585E" stop-opacity="0"/>
</linearGradient>
<linearGradient id="paint4_linear_597_10392" x1="63.9315" y1="32.2396" x2="50.9205" y2="53.1123" gradientUnits="userSpaceOnUse">
<stop stop-color="#0C0A0C"/>
<stop offset="0.281029" stop-color="#423445"/>
<stop offset="1" stop-color="#0C0C0E"/>
</linearGradient>
<linearGradient id="paint5_linear_597_10392" x1="74.5236" y1="65.5303" x2="73.5078" y2="70.8475" gradientUnits="userSpaceOnUse">
<stop stop-color="#464023"/>
<stop offset="1" stop-color="#9B905C"/>
</linearGradient>
<linearGradient id="paint6_linear_597_10392" x1="74.5331" y1="37.8178" x2="69.6932" y2="63.1517" gradientUnits="userSpaceOnUse">
<stop stop-color="#110B13"/>
<stop offset="1" stop-color="#060107" stop-opacity="0"/>
<stop offset="1" stop-color="#060107"/>
</linearGradient>
<radialGradient id="paint7_radial_597_10392" cx="0" cy="0" r="1" gradientUnits="userSpaceOnUse" gradientTransform="translate(74.2642 60.9706) rotate(-179.549) scale(22.6538 18.0444)">
<stop stop-color="#D9A49A"/>
<stop offset="1" stop-color="#D67967"/>
</radialGradient>
<linearGradient id="paint8_linear_597_10392" x1="54.9012" y1="63.9209" x2="56.6192" y2="70.8046" gradientUnits="userSpaceOnUse">
<stop offset="0.235389" stop-color="#665E31"/>
<stop offset="1" stop-color="#A79C66"/>
</linearGradient>
<linearGradient id="paint9_linear_597_10392" x1="67.1498" y1="52.7083" x2="66.17" y2="58.528" gradientUnits="userSpaceOnUse">
<stop stop-color="#392C11"/>
<stop offset="1" stop-color="#060107"/>
</linearGradient>
<linearGradient id="paint10_linear_597_10392" x1="76.4941" y1="55.5634" x2="74.7672" y2="59.1331" gradientUnits="userSpaceOnUse">
<stop offset="0.0001" stop-color="#392C11"/>
<stop offset="1" stop-color="#140817"/>
</linearGradient>
<linearGradient id="paint11_linear_597_10392" x1="68.1716" y1="37.2954" x2="55.7785" y2="56.5893" gradientUnits="userSpaceOnUse">
<stop stop-color="#060107"/>
<stop offset="0.314262" stop-color="#463749"/>
<stop offset="0.631981" stop-color="#2A212D"/>
</linearGradient>
<linearGradient id="paint12_linear_597_10392" x1="72.3421" y1="37.8447" x2="72.796" y2="51.822" gradientUnits="userSpaceOnUse">
<stop stop-color="#0D060D"/>
<stop offset="0.421875" stop-color="#413344"/>
<stop offset="1" stop-color="#2B222D"/>
</linearGradient>
<linearGradient id="paint13_linear_597_10392" x1="78.7745" y1="40.4977" x2="77.4307" y2="56.3733" gradientUnits="userSpaceOnUse">
<stop stop-color="#110A12"/>
<stop offset="0.322917" stop-color="#403243"/>
<stop offset="0.724698" stop-color="#2B222D"/>
</linearGradient>
<clipPath id="clip0_597_10392">
<rect x="0.0234375" y="0.556641" width="400" height="306.504" rx="12" fill="white"/>
</clipPath>
<clipPath id="clip1_597_10392">
<rect x="20.0234" y="20.5566" width="80" height="80" rx="40" fill="white"/>
</clipPath>
<clipPath id="clip2_597_10392">
<rect x="20.0234" y="192.061" width="360" height="95" rx="12" fill="white"/>
</clipPath>
</defs>
</svg>
