<svg width="401" height="308" viewBox="0 0 401 308" fill="none" xmlns="http://www.w3.org/2000/svg">
<g clip-path="url(#clip0_597_10462)">
<rect x="0.0234375" y="0.556641" width="400" height="306.504" rx="12" fill="#131316" fill-opacity="0.6"/>
<g clip-path="url(#clip1_597_10462)">
<rect x="20.0234" y="20.5566" width="80" height="80" rx="40" fill="#DFDCDA"/>
<ellipse cx="77.2474" cy="53.8401" rx="1.93869" ry="5.07042" transform="rotate(9.95946 77.2474 53.8401)" fill="#D36266"/>
<path d="M57.1149 81.4684C57.5921 80.2753 56.5184 70.2339 55.9219 65.3623C57.3535 67.1519 67.1563 69.4882 71.8788 70.4327C71.8291 73.6142 71.9981 80.2753 73.0718 81.4684C74.414 82.9597 70.5366 89.2231 68.5979 90.8635C66.6592 92.504 56.5184 82.9597 57.1149 81.4684Z" fill="#EB8682"/>
<mask id="mask0_597_10462" style="mask-type:alpha" maskUnits="userSpaceOnUse" x="55" y="65" width="19" height="27">
<path d="M57.1149 81.4693C57.5921 80.2763 56.5184 70.2349 55.9219 65.3633C57.3535 67.1528 67.1563 69.4892 71.8788 70.4337C71.8291 73.6151 71.9981 80.2763 73.0718 81.4693C74.414 82.9606 70.5366 89.2241 68.5979 90.8645C66.6592 92.505 56.5184 82.9606 57.1149 81.4693Z" fill="#EB8682"/>
</mask>
<g mask="url(#mask0_597_10462)">
<path d="M72.3235 78.9344C65.1652 83.7066 59.2994 70.2351 53.9805 65.5127L79.1835 76.2501C77.6922 76.8963 73.9875 77.8251 72.3235 78.9344Z" fill="url(#paint0_linear_597_10462)"/>
</g>
<path d="M72.9273 31.9587C72.0921 31.2429 68.1054 31.6605 66.2164 31.9587C65.3713 33.102 63.711 35.806 63.8303 37.4763C63.9794 39.5641 69.9447 36.8797 72.9273 36.8797C75.3133 36.8797 76.7052 45.927 77.1029 50.4506C77.3017 48.4125 77.5801 43.9783 77.1029 42.5467C76.5064 40.7571 77.4012 38.2219 76.6555 36.8797C75.9099 35.5376 73.9712 32.8535 72.9273 31.9587Z" fill="#615151"/>
<path d="M57.4152 53.7699C59.8013 50.668 61.6902 45.4186 62.3365 43.1817C65.2202 43.7782 70.3016 43.7782 67.5577 39.0061C64.1277 33.0409 49.3614 37.1768 45.0366 41.7999C41.5768 45.4983 46.1816 58.1941 49.0648 61.0773L60.3962 70.2837C60.5453 69.6871 57.7731 62.6283 57.4152 61.0773C56.9678 59.1386 54.4326 57.6473 57.4152 53.7699Z" fill="#806669"/>
<path d="M77.4401 49.5286C77.5594 47.739 75.3026 40.2328 74.1593 36.7034C68.0446 30.8873 60.7379 36.7034 56.8602 38.9403C53.758 40.7299 53.7783 49.3297 54.1761 53.4059C53.5795 53.3562 51.8793 53.2866 49.8514 53.4059C47.3165 53.5551 48.19 54.6878 47.7426 57.223C47.2952 59.7582 51.1932 61.7572 52.3863 63.0994C53.3407 64.1731 55.7665 64.2427 56.8602 64.1433C57.407 65.3363 58.6796 68.1996 59.3954 70.1085C60.2902 72.4946 71.1767 75.9246 74.1593 76.2228C77.1419 76.5211 77.4401 71.7489 79.2297 66.9768C81.0192 62.2046 78.9314 62.2046 78.3349 60.7133C77.7384 59.222 77.291 51.7655 77.4401 49.5286Z" fill="url(#paint1_radial_597_10462)"/>
<g filter="url(#filter0_f_597_10462)">
<ellipse cx="71.1125" cy="57.5425" rx="2.98835" ry="4.49726" transform="rotate(-24.4392 71.1125 57.5425)" fill="#E36A6F" fill-opacity="0.5"/>
</g>
<path d="M70.9813 51.0459C71.0807 52.6863 71.4883 56.1163 72.3235 56.7128C73.3674 57.4585 75.4552 58.2041 74.5604 59.3972C73.6656 60.5902 73.2183 61.0376 72.6217 61.0376C72.0252 61.0376 70.9813 61.0376 70.5339 60.7394C70.0865 60.4411 69.7883 59.6954 68.8935 59.6954M67.7004 60.1428C67.5016 59.6457 67.1934 58.5322 67.5513 58.055" stroke="black" stroke-width="0.29826" stroke-linecap="round"/>
<path d="M65.7611 51.1953L66.805 51.7918C66.9045 52.9849 66.6559 55.4008 64.8664 55.5201C63.0768 55.6394 61.4364 54.2773 60.8398 53.5814C61.675 52.3884 64.4687 51.4936 65.7611 51.1953Z" fill="#D9D9D9" stroke="black" stroke-width="0.29826" stroke-linecap="round"/>
<mask id="mask1_597_10462" style="mask-type:alpha" maskUnits="userSpaceOnUse" x="60" y="51" width="7" height="5">
<path d="M65.7611 51.1953L66.805 51.7918C66.9045 52.9849 66.6559 55.4008 64.8664 55.5201C63.0768 55.6394 61.4364 54.2773 60.8398 53.5814C61.675 52.3884 64.4687 51.4936 65.7611 51.1953Z" fill="#D9D9D9" stroke="black" stroke-width="0.29826" stroke-linecap="round"/>
</mask>
<g mask="url(#mask1_597_10462)">
<path d="M65.759 54.6253C64.2081 54.6253 63.8203 52.438 63.8203 51.3444C63.8203 50.4496 65.759 50.1514 66.952 50.1514C67.9065 50.1514 68.3439 52.1398 68.4433 53.134C68.1948 53.6311 67.31 54.6253 65.759 54.6253Z" fill="#131313"/>
<circle cx="64.5018" cy="52.5965" r="0.211765" transform="rotate(9.55715 64.5018 52.5965)" fill="white"/>
</g>
<path d="M74.7823 49.1074L75.462 49.7039C75.5268 50.897 75.3649 53.3129 74.1998 53.4322C73.0346 53.5515 71.9665 52.1894 71.5781 51.4935C72.1219 50.3005 73.9408 49.4057 74.7823 49.1074Z" fill="#D9D9D9" stroke="black" stroke-width="0.29826" stroke-linecap="round"/>
<mask id="mask2_597_10462" style="mask-type:alpha" maskUnits="userSpaceOnUse" x="71" y="48" width="5" height="6">
<path d="M74.7823 49.1074L75.462 49.7039C75.5268 50.897 75.3649 53.3129 74.1998 53.4322C73.0346 53.5515 71.9665 52.1894 71.5781 51.4935C72.1219 50.3005 73.9408 49.4057 74.7823 49.1074Z" fill="#D9D9D9" stroke="black" stroke-width="0.29826" stroke-linecap="round"/>
</mask>
<g mask="url(#mask2_597_10462)">
<path d="M74.7818 52.5374C73.772 52.5374 73.5195 50.3501 73.5195 49.2565C73.5195 48.3617 74.7818 48.0635 75.5586 48.0635C76.18 48.0635 76.4648 50.0519 76.5296 51.0461C76.3677 51.5432 75.7916 52.5374 74.7818 52.5374Z" fill="#131313"/>
<circle cx="73.8182" cy="51.326" r="0.211765" transform="rotate(9.55715 73.8182 51.326)" fill="white"/>
</g>
<path d="M66.5138 47.9146L67.856 46.125H62.7795L59.9461 47.4672L57.2617 51.0463C58.0074 50.5989 59.6776 49.6146 60.3935 49.2567C61.1093 48.8988 64.9231 48.2128 66.5138 47.9146Z" fill="#614746"/>
<path d="M72.3072 47.3725L71.5966 46.5048L75.5212 46.7223L77.0212 47.3731L77.3984 48.3628C76.4535 47.8435 73.375 47.5558 72.3072 47.3725Z" fill="#614746"/>
<path d="M58.1581 45.9757C60.5442 42.8738 62.4332 37.6245 63.0794 35.3875C65.9631 35.984 71.0446 35.984 68.3006 31.2119C64.8706 25.2467 49.8077 35.3875 45.483 40.0105C42.0231 43.709 46.9245 50.3999 49.8077 53.2831L53.0357 54.4703L54.9416 57.6468C55.0907 57.0503 55.9348 57.9271 55.5769 56.3762C55.1295 54.4375 55.1755 49.8531 58.1581 45.9757Z" fill="#806669"/>
<path d="M73.9671 63.8721C71.4617 64.7072 67.5545 65.3137 65.9141 65.5125C66.8088 66.4073 69.6423 66.5564 71.7301 66.109C73.4004 65.7511 73.9174 64.4686 73.9671 63.8721Z" fill="#E26762"/>
<path d="M74.1162 63.8721C71.9787 64.4686 67.3457 65.6318 65.9141 65.5125" stroke="black" stroke-width="0.29826" stroke-linecap="round"/>
<path d="M67.9958 54.7832C67.9958 55.0799 68.2363 55.3205 68.533 55.3205C68.8297 55.3205 69.0704 55.0799 69.0704 54.7832H67.9958ZM71.6377 54.3922C71.6377 54.6889 71.878 54.9294 72.1749 54.9294C72.4715 54.9294 72.7121 54.6889 72.7121 54.3922H71.6377ZM60.37 55.1035C60.6529 55.1929 60.9548 55.0361 61.0442 54.7532C61.1336 54.4703 60.9768 54.1684 60.6939 54.079L60.37 55.1035ZM48.7047 52.7354L48.9359 53.2204C48.9417 53.2176 48.9474 53.2147 48.9531 53.2118L48.7047 52.7354ZM46.2932 56.5474C46.3473 56.8392 46.6277 57.0318 46.9194 56.9777C47.2112 56.9236 47.4038 56.6432 47.3497 56.3515L46.2932 56.5474ZM67.9958 54.5912C67.9958 56.6613 66.5635 58.1995 64.9572 58.1995V59.274C67.3005 59.274 69.0704 57.1002 69.0704 54.5912H67.9958ZM64.9572 58.1995C63.3508 58.1995 61.0715 56.6613 61.0715 54.5912H59.997C59.997 57.1002 62.6138 59.274 64.9572 59.274V58.1995ZM61.0715 54.5912C61.0715 52.5212 63.3508 50.983 64.9572 50.983V49.9086C62.6138 49.9086 59.997 52.0823 59.997 54.5912H61.0715ZM64.9572 50.983C66.5635 50.983 67.9958 52.5212 67.9958 54.5912H69.0704C69.0704 52.0823 67.3005 49.9086 64.9572 49.9086V50.983ZM78.7561 53.7901C78.7561 55.8602 77.3238 57.3983 75.7175 57.3983V58.4728C78.0609 58.4728 79.8306 56.299 79.8306 53.7901H78.7561ZM75.7175 57.3983C74.1111 57.3983 72.6792 55.8602 72.6792 53.7901H71.6047C71.6047 56.299 73.3744 58.4728 75.7175 58.4728V57.3983ZM72.6792 53.7901C72.6792 51.7201 74.1111 50.1819 75.7175 50.1819V49.1074C73.3744 49.1074 71.6047 51.2812 71.6047 53.7901H72.6792ZM75.7175 50.1819C77.3238 50.1819 78.7561 51.7201 78.7561 53.7901H79.8306C79.8306 51.2812 78.0609 49.1074 75.7175 49.1074V50.1819ZM69.0704 54.7832C69.0704 54.5996 69.1592 54.4371 69.3909 54.2896C69.6341 54.1344 69.9937 54.0306 70.3866 54.0067C70.7799 53.9828 71.1427 54.0429 71.3837 54.1523C71.6287 54.2633 71.6377 54.3608 71.6377 54.3922H72.7121C72.7121 53.7634 72.2655 53.3723 71.8275 53.1737C71.3859 52.9735 70.8382 52.9027 70.3211 52.9342C69.8035 52.9657 69.2527 53.1035 68.8133 53.3835C68.3619 53.6711 67.9958 54.1373 67.9958 54.7832H69.0704ZM60.5319 54.5912C60.6939 54.079 60.6939 54.079 60.6939 54.079L60.6932 54.0788L60.6917 54.0783C60.6903 54.0779 60.6883 54.0772 60.6858 54.0765C60.6806 54.0748 60.6731 54.0725 60.6632 54.0694C60.6435 54.0632 60.6144 54.0541 60.5765 54.0424C60.5007 54.019 60.3896 53.9849 60.2476 53.9422C59.9637 53.8566 59.5559 53.7362 59.0586 53.5959C58.0649 53.3155 57.558 52.9552 56.1213 52.6366C54.6873 52.3187 53.1569 52.0392 51.814 51.9251C51.1427 51.868 50.506 51.8512 49.9448 51.895C49.3917 51.9383 48.87 52.0433 48.4563 52.259L48.9531 53.2118C49.1814 53.0927 49.5375 53.0046 50.0285 52.9663C50.5117 52.9285 51.0858 52.9416 51.7231 52.9957C52.9974 53.104 54.4751 53.3722 55.8887 53.6856C57.2994 53.9984 57.7855 54.3532 58.7669 54.63C59.2572 54.7683 59.659 54.887 59.9377 54.971C60.0771 55.013 60.1857 55.0462 60.2592 55.069C60.2959 55.0803 60.3239 55.089 60.3425 55.0949C60.3519 55.0978 60.3588 55.1 60.3634 55.1014C60.3658 55.1022 60.3674 55.1027 60.3686 55.1031L60.37 55.1035C60.37 55.1035 60.37 55.1035 60.5319 54.5912ZM48.4736 52.2504C47.6887 52.6245 47.0497 53.2492 46.6556 54.0265L47.6139 54.5124C47.9012 53.9459 48.3662 53.4918 48.9359 53.2204L48.4736 52.2504ZM46.6556 54.0265C46.2615 54.8037 46.1342 55.6901 46.2932 56.5474L47.3497 56.3515C47.2336 55.7258 47.3266 55.079 47.6139 54.5124L46.6556 54.0265Z" fill="black"/>
<path d="M63.2277 64.9158C64.4207 62.8876 67.9998 60.9887 69.6403 60.2928C70.3859 59.9545 70.2368 60.2928 70.6842 60.74C71.1316 61.1872 71.579 61.1875 72.4737 61.1875C73.3685 61.1875 73.5177 60.7401 73.6668 60.2928C73.8159 59.8454 74.4124 60.591 76.202 61.1875C77.9916 61.7841 76.9476 61.7841 77.2459 62.5297C77.5442 63.2754 75.4563 62.5297 75.1581 63.4245C74.8598 64.3193 72.6229 62.9771 72.1755 63.4245C71.7281 63.8719 69.6403 63.8719 68.8946 64.6175C68.2981 65.2141 66.3594 65.0649 65.4646 64.9158C64.2219 65.7609 62.0346 66.944 63.2277 64.9158Z" fill="#614746"/>
<path d="M33.9994 90.7144C34.3573 89.76 48.1668 84.3515 55.0268 81.7666L61.8867 86.3896C63.5272 87.8312 67.0109 90.611 67.6462 90.0463C68.7199 89.0919 71.779 85.0475 72.9224 83.407C76.4518 84.7492 84.2562 87.6423 87.2388 88.4775C90.2215 89.3126 90.9671 96.8784 90.9671 100.557H29.0781C30.5694 97.6738 33.6415 91.6688 33.9994 90.7144Z" fill="url(#paint2_linear_597_10462)"/>
<path d="M65.4672 86.5389L57.8616 81.0211C57.2709 80.5171 57.2709 79.2465 57.1159 77.7402C57.1159 77.7402 53.8739 81.4446 53.8828 81.9994C53.8917 82.5542 58.6072 91.7585 58.6072 91.7585C59.5517 90.6151 61.7091 88.2688 62.7828 88.0302C63.8566 87.7916 66.3769 90.0465 67.6475 90.2582L65.4672 86.5389Z" fill="#EEEEEE"/>
<path d="M71.8464 81.0211L68.3605 86.5389L67.6452 90.2582C68.4922 89.4112 69.7231 88.251 69.9746 88.1406C70.4754 87.9208 74.2099 90.2582 75.4805 91.0128L73.9981 83.6935L72.2283 77.8722C72.2161 77.8253 72.2028 77.7812 72.1882 77.7402L72.2283 77.8722C72.4815 78.8486 72.2117 81.0211 71.8464 81.0211Z" fill="#EEEEEE"/>
<path d="M69.7619 70.5646C67.5249 70.3161 65.3148 69.5394 63.5252 69.5394C62.3488 69.5394 55.4722 55.9678 55.4722 55.9678L54.7266 57.3099C54.7266 57.3099 59.1706 70.5237 59.6479 71.4781C60.1251 72.4325 69.4904 75.4549 74.1135 76.8468C74.71 76.5982 76.0223 76.1011 76.4996 76.1011C76.9768 76.1011 79.3827 68.9429 80.5261 65.3638L79.9266 62.9411L79.0795 61.6705C79.0795 61.9191 78.8677 62.8606 78.8677 63.5764C78.8677 64.4712 77.6359 68.0235 76.3266 68.447C75.0172 68.8705 73.9972 67.1764 72.9204 66.8551L71.8765 67.1533C71.8765 67.1533 72.0257 67.3599 72.473 68.6446C72.9204 69.9294 69.7619 70.5646 69.7619 70.5646Z" fill="#614746"/>
<path d="M73.2216 37.3266C73.2216 35.537 71.1338 33.996 70.0898 33.4492C71.5811 31.6596 73.2216 33.8966 74.862 35.2388C76.1744 36.3125 73.6193 39.7624 72.1777 41.3531C72.5256 40.7566 73.2216 39.1161 73.2216 37.3266Z" fill="#615151"/>
<path d="M52.1925 56.4152C52.3119 56.5345 53.137 58.0556 53.5347 58.8012C53.8335 59.3574 53.3851 59.8451 53.0868 59.8451C52.7886 59.8451 52.6395 60.4416 52.7886 60.889C52.9377 61.3364 53.3851 62.3803 52.7886 62.6786C52.1921 62.9768 49.3591 59.696 48.9117 59.0995C48.4643 58.5029 48.4643 56.7134 48.7626 55.8186C49.0608 54.9238 49.6573 55.2221 50.2539 54.9239C50.8504 54.6256 52.0434 56.266 52.1925 56.4152Z" fill="#D36266"/>
<path d="M53.2363 58.0557C52.6398 56.9124 51.1783 54.6854 50.1046 54.924C49.0308 55.1626 48.663 55.7192 48.6133 55.9676" stroke="#793033" stroke-width="0.29826" stroke-linecap="round"/>
<path d="M52.9386 45.6378C56.7563 44.0868 59.7986 38.5293 60.8425 35.9443C59.4109 45.7273 49.2104 48.6701 44.2891 48.9187C45.5815 48.4713 49.1209 47.1887 52.9386 45.6378Z" fill="#D9D9D9"/>
<path d="M51.5948 50.8569C55.4125 49.306 55.7704 47.0293 56.8144 44.4443C55.3827 54.2273 50.4018 51.8014 45.4805 52.05C46.7729 51.6026 47.7771 52.4079 51.5948 50.8569Z" fill="#D9D9D9"/>
<path d="M50.7046 43.2948C53.8 41.9756 56.2667 37.2485 57.1131 35.0498C55.9523 43.3709 47.6816 45.874 43.6914 46.0854C44.7393 45.7049 47.6091 44.614 50.7046 43.2948Z" fill="#D9D9D9"/>
</g>
<rect x="110.023" y="20.5566" width="270" height="113.504" rx="12" fill="#284B3D"/>
<rect x="122.023" y="32.5566" width="119.611" height="20.8705" rx="10.4352" fill="#11221B"/>
<path d="M133.043 46.9922V38.5078H136.371C138.299 38.5078 139.406 39.6973 139.406 41.3672C139.406 43.0605 138.281 44.2266 136.324 44.2266H134.801V46.9922H133.043ZM134.801 42.8086H136.043C137.086 42.8086 137.596 42.2227 137.59 41.3672C137.596 40.5234 137.086 39.9551 136.043 39.9492H134.801V42.8086ZM140.484 46.9922V40.6289H142.16V41.7305H142.23C142.459 40.9512 143.051 40.5352 143.766 40.5352C143.941 40.5352 144.164 40.5586 144.316 40.5938V42.1406C144.152 42.0879 143.818 42.0469 143.578 42.0469C142.793 42.0469 142.213 42.5918 142.219 43.3711V46.9922H140.484ZM147.82 47.1211C145.898 47.1152 144.697 45.7969 144.703 43.8281C144.697 41.8652 145.898 40.5469 147.82 40.5469C149.748 40.5469 150.943 41.8652 150.949 43.8281C150.943 45.7969 149.748 47.1152 147.82 47.1211ZM146.461 43.8281C146.461 44.9414 146.924 45.7676 147.832 45.7734C148.717 45.7676 149.186 44.9414 149.18 43.8281C149.186 42.709 148.717 41.8711 147.832 41.8711C146.924 41.8711 146.461 42.709 146.461 43.8281ZM154.383 47.0977C152.93 47.0977 151.793 45.9434 151.793 43.8164C151.793 41.6367 152.977 40.5469 154.383 40.5469C155.449 40.5469 155.959 41.1797 156.188 41.6953H156.246V38.5078H157.98V46.9922H156.27V45.9727H156.188C155.947 46.5 155.42 47.0977 154.383 47.0977ZM153.574 43.8047C153.568 44.9297 154.043 45.709 154.922 45.7148C155.789 45.709 156.281 44.9531 156.281 43.8047C156.281 42.6621 155.795 41.9297 154.922 41.9297C154.037 41.9297 153.568 42.6973 153.574 43.8047ZM163.453 44.2852V40.6289H165.188V46.9922H163.523V45.8438H163.453C163.166 46.582 162.48 47.0742 161.52 47.0742C160.248 47.0742 159.375 46.1719 159.375 44.6836V40.6289H161.109V44.3789C161.109 45.1348 161.543 45.6035 162.223 45.6094C162.855 45.6035 163.453 45.1523 163.453 44.2852ZM169.395 47.1211C167.443 47.1152 166.271 45.7676 166.277 43.8281C166.271 41.8828 167.467 40.5469 169.395 40.5469C171.035 40.5469 172.148 41.502 172.219 42.9609H170.59C170.484 42.334 170.074 41.9004 169.418 41.8945C168.586 41.9004 168.035 42.5977 168.035 43.8047C168.035 45.0352 168.574 45.7383 169.418 45.7383C170.027 45.7383 170.479 45.3574 170.59 44.6836H172.219C172.143 46.125 171.082 47.1152 169.395 47.1211ZM176.648 40.6289V41.9297H175.453V45.0352C175.447 45.5449 175.699 45.668 176.051 45.6797C176.227 45.6797 176.531 45.6621 176.742 45.6445V47.0156C176.555 47.0449 176.244 47.0801 175.816 47.0742C174.562 47.0801 173.707 46.5176 173.719 45.2812V41.9297H172.84V40.6289H173.719V39.1055H175.453V40.6289H176.648ZM188.309 42.75C188.309 45.5215 186.592 47.1094 184.348 47.1094C182.086 47.1094 180.375 45.5098 180.375 42.75C180.375 39.9785 182.086 38.3906 184.348 38.3906C186.592 38.3906 188.309 39.9785 188.309 42.75ZM182.168 42.75C182.168 44.5605 183.029 45.5449 184.348 45.5508C185.654 45.5449 186.521 44.5605 186.516 42.75C186.521 40.9336 185.654 39.9551 184.348 39.9492C183.029 39.9551 182.168 40.9336 182.168 42.75ZM189.539 49.3828V40.6289H191.25V41.6953H191.32C191.561 41.1797 192.064 40.5469 193.137 40.5469C194.543 40.5469 195.721 41.6367 195.715 43.8164C195.721 45.9434 194.59 47.0977 193.137 47.0977C192.1 47.0977 191.566 46.5 191.32 45.9727H191.273V49.3828H189.539ZM191.238 43.8047C191.232 44.9531 191.725 45.709 192.586 45.7148C193.471 45.709 193.951 44.9297 193.945 43.8047C193.951 42.6973 193.482 41.9297 192.586 41.9297C191.719 41.9297 191.232 42.6621 191.238 43.8047ZM199.723 47.1211C197.771 47.1152 196.576 45.8555 196.582 43.8398C196.576 41.877 197.789 40.5469 199.652 40.5469C201.322 40.5469 202.641 41.6016 202.641 43.7695V44.2617H198.293C198.293 45.2227 198.861 45.8145 199.758 45.8203C200.35 45.8145 200.771 45.5566 200.941 45.1758H202.594C202.348 46.3535 201.293 47.1152 199.723 47.1211ZM198.293 43.1719H201C200.994 42.3984 200.461 41.8418 199.688 41.8477C198.891 41.8418 198.328 42.4395 198.293 43.1719ZM203.73 46.9922V40.6289H205.406V41.7305H205.477C205.705 40.9512 206.297 40.5352 207.012 40.5352C207.188 40.5352 207.41 40.5586 207.562 40.5938V42.1406C207.398 42.0879 207.064 42.0469 206.824 42.0469C206.039 42.0469 205.459 42.5918 205.465 43.3711V46.9922H203.73ZM207.926 45.2109C207.932 43.793 209.068 43.3301 210.293 43.2539C210.75 43.2246 211.605 43.1836 211.875 43.1719V42.6562C211.869 42.123 211.506 41.8184 210.855 41.8125C210.264 41.8184 209.895 42.082 209.801 42.5156H208.148C208.254 41.4141 209.215 40.5469 210.902 40.5469C212.291 40.5469 213.604 41.168 213.598 42.7031V46.9922H211.957V46.1133H211.91C211.6 46.6992 210.99 47.1152 210.047 47.1094C208.828 47.1152 207.932 46.4707 207.926 45.2109ZM209.59 45.1641C209.59 45.6504 209.982 45.9082 210.539 45.9141C211.33 45.9082 211.881 45.3926 211.875 44.7188V44.2559C211.611 44.2676 210.867 44.3086 210.574 44.332C209.971 44.3848 209.59 44.6719 209.59 45.1641ZM218.273 40.6289V41.9297H217.078V45.0352C217.072 45.5449 217.324 45.668 217.676 45.6797C217.852 45.6797 218.156 45.6621 218.367 45.6445V47.0156C218.18 47.0449 217.869 47.0801 217.441 47.0742C216.188 47.0801 215.332 46.5176 215.344 45.2812V41.9297H214.465V40.6289H215.344V39.1055H217.078V40.6289H218.273ZM222.152 47.1211C220.23 47.1152 219.029 45.7969 219.035 43.8281C219.029 41.8652 220.23 40.5469 222.152 40.5469C224.08 40.5469 225.275 41.8652 225.281 43.8281C225.275 45.7969 224.08 47.1152 222.152 47.1211ZM220.793 43.8281C220.793 44.9414 221.256 45.7676 222.164 45.7734C223.049 45.7676 223.518 44.9414 223.512 43.8281C223.518 42.709 223.049 41.8711 222.164 41.8711C221.256 41.8711 220.793 42.709 220.793 43.8281ZM226.371 46.9922V40.6289H228.047V41.7305H228.117C228.346 40.9512 228.938 40.5352 229.652 40.5352C229.828 40.5352 230.051 40.5586 230.203 40.5938V42.1406C230.039 42.0879 229.705 42.0469 229.465 42.0469C228.68 42.0469 228.1 42.5918 228.105 43.3711V46.9922H226.371Z" fill="#ECECF8"/>
<path d="M130.227 62.2754H133.719V74.1113C133.719 77.4043 131.387 79.4785 127.977 79.4785C124.906 79.4785 122.504 77.8613 122.516 74.5098H126.031C126.055 75.8574 126.875 76.6426 128.141 76.6426C129.488 76.6426 130.227 75.7754 130.227 74.1113V62.2754ZM142.227 79.502C138.383 79.4902 135.98 76.8535 135.992 72.916C135.98 68.9902 138.383 66.3535 142.227 66.3535C146.082 66.3535 148.473 68.9902 148.484 72.916C148.473 76.8535 146.082 79.4902 142.227 79.502ZM139.508 72.916C139.508 75.1426 140.434 76.7949 142.25 76.8066C144.02 76.7949 144.957 75.1426 144.945 72.916C144.957 70.6777 144.02 69.002 142.25 69.002C140.434 69.002 139.508 70.6777 139.508 72.916ZM154.133 71.8848V79.2441H150.664V66.5176H153.969V68.7441H154.109C154.684 67.2793 156.043 66.3535 157.93 66.3535C160.59 66.3535 162.324 68.1699 162.312 71.1348V79.2441H158.867V71.7441C158.855 70.1738 158.012 69.2363 156.57 69.2363C155.129 69.2363 154.133 70.209 154.133 71.8848ZM164.398 75.6816C164.41 72.8457 166.684 71.9199 169.133 71.7676C170.047 71.709 171.758 71.627 172.297 71.6035V70.5723C172.285 69.5059 171.559 68.8965 170.258 68.8848C169.074 68.8965 168.336 69.4238 168.148 70.291H164.844C165.055 68.0879 166.977 66.3535 170.352 66.3535C173.129 66.3535 175.754 67.5957 175.742 70.666V79.2441H172.461V77.4863H172.367C171.746 78.6582 170.527 79.4902 168.641 79.4785C166.203 79.4902 164.41 78.2012 164.398 75.6816ZM167.727 75.5879C167.727 76.5605 168.512 77.0762 169.625 77.0879C171.207 77.0762 172.309 76.0449 172.297 74.6973V73.7715C171.77 73.7949 170.281 73.877 169.695 73.9238C168.488 74.0293 167.727 74.6035 167.727 75.5879ZM185.094 66.5176V69.1191H182.703V75.3301C182.691 76.3496 183.195 76.5957 183.898 76.6191C184.25 76.6191 184.859 76.584 185.281 76.5488V79.291C184.906 79.3496 184.285 79.4199 183.43 79.4082C180.922 79.4199 179.211 78.2949 179.234 75.8223V69.1191H177.477V66.5176H179.234V63.4707H182.703V66.5176H185.094ZM191.023 71.8848V79.2441H187.555V62.2754H190.93V68.7441H191.07C191.656 67.2559 192.934 66.3535 194.867 66.3535C197.527 66.3535 199.273 68.1465 199.273 71.1348V79.2441H195.805V71.7441C195.805 70.1621 194.961 69.2363 193.508 69.2363C192.043 69.2363 191.023 70.209 191.023 71.8848ZM201.336 75.6816C201.348 72.8457 203.621 71.9199 206.07 71.7676C206.984 71.709 208.695 71.627 209.234 71.6035V70.5723C209.223 69.5059 208.496 68.8965 207.195 68.8848C206.012 68.8965 205.273 69.4238 205.086 70.291H201.781C201.992 68.0879 203.914 66.3535 207.289 66.3535C210.066 66.3535 212.691 67.5957 212.68 70.666V79.2441H209.398V77.4863H209.305C208.684 78.6582 207.465 79.4902 205.578 79.4785C203.141 79.4902 201.348 78.2012 201.336 75.6816ZM204.664 75.5879C204.664 76.5605 205.449 77.0762 206.562 77.0879C208.145 77.0762 209.246 76.0449 209.234 74.6973V73.7715C208.707 73.7949 207.219 73.877 206.633 73.9238C205.426 74.0293 204.664 74.6035 204.664 75.5879ZM218.797 71.8848V79.2441H215.328V66.5176H218.633V68.7441H218.773C219.348 67.2793 220.707 66.3535 222.594 66.3535C225.254 66.3535 226.988 68.1699 226.977 71.1348V79.2441H223.531V71.7441C223.52 70.1738 222.676 69.2363 221.234 69.2363C219.793 69.2363 218.797 70.209 218.797 71.8848Z" fill="#ECECF8"/>
<path d="M124.539 91.1621V101.061H123.035V91.1621H124.539ZM131.443 101.061L129.27 93.6367H130.773L132.223 99.0781H132.305L133.754 93.6367H135.258L136.693 99.0508H136.775L138.211 93.6367H139.715L137.541 101.061H136.051L134.547 95.7148H134.438L132.947 101.061H131.443ZM140.576 98.9688C140.569 97.2734 142.012 96.8359 143.352 96.7402C143.844 96.7129 144.958 96.6514 145.3 96.6377L145.293 96.043C145.3 95.2021 144.78 94.7168 143.789 94.7168C142.928 94.7168 142.408 95.1133 142.258 95.6602H140.809C140.938 94.4297 142.087 93.541 143.844 93.541C145.026 93.541 146.749 93.9717 146.756 96.125V101.061H145.334V100.049H145.279C144.992 100.603 144.309 101.225 143.078 101.225C141.67 101.225 140.569 100.418 140.576 98.9688ZM141.998 98.9824C141.998 99.6934 142.586 100.056 143.406 100.062C144.596 100.056 145.307 99.2627 145.307 98.3809L145.3 97.7041C144.965 97.7246 143.905 97.7998 143.557 97.8203C142.6 97.8887 141.998 98.251 141.998 98.9824ZM149.982 96.6582V101.061H148.52V93.6367H149.928V94.8535H150.01C150.358 94.0537 151.09 93.541 152.197 93.541C153.722 93.541 154.733 94.5049 154.727 96.3438V101.061H153.277V96.5215C153.271 95.4414 152.689 94.7988 151.705 94.7988C150.7 94.7988 149.982 95.4756 149.982 96.6582ZM159.977 93.6367V94.7988H158.459V98.873C158.466 99.7139 158.876 99.8643 159.348 99.8711C159.56 99.8711 159.881 99.8506 160.086 99.8301V101.102C159.888 101.129 159.573 101.156 159.17 101.156C158.028 101.156 156.996 100.527 157.01 99.1738V94.7988H155.916V93.6367H157.01V91.8594H158.459V93.6367H159.977ZM168.289 93.6367V94.7988H166.771V98.873C166.778 99.7139 167.188 99.8643 167.66 99.8711C167.872 99.8711 168.193 99.8506 168.398 99.8301V101.102C168.2 101.129 167.886 101.156 167.482 101.156C166.341 101.156 165.309 100.527 165.322 99.1738V94.7988H164.229V93.6367H165.322V91.8594H166.771V93.6367H168.289ZM172.773 101.211C170.668 101.211 169.294 99.6797 169.301 97.3828C169.294 95.0723 170.668 93.541 172.773 93.541C174.865 93.541 176.232 95.0723 176.232 97.3828C176.232 99.6797 174.865 101.211 172.773 101.211ZM170.764 97.3828C170.764 98.7979 171.413 99.9941 172.773 99.9941C174.113 99.9941 174.756 98.7979 174.756 97.3828C174.756 95.9609 174.113 94.751 172.773 94.7441C171.413 94.751 170.764 95.9609 170.764 97.3828ZM180.744 98.9688C180.737 97.2734 182.18 96.8359 183.52 96.7402C184.012 96.7129 185.126 96.6514 185.468 96.6377L185.461 96.043C185.468 95.2021 184.948 94.7168 183.957 94.7168C183.096 94.7168 182.576 95.1133 182.426 95.6602H180.977C181.106 94.4297 182.255 93.541 184.012 93.541C185.194 93.541 186.917 93.9717 186.924 96.125V101.061H185.502V100.049H185.447C185.16 100.603 184.477 101.225 183.246 101.225C181.838 101.225 180.737 100.418 180.744 98.9688ZM182.166 98.9824C182.166 99.6934 182.754 100.056 183.574 100.062C184.764 100.056 185.475 99.2627 185.475 98.3809L185.468 97.7041C185.133 97.7246 184.073 97.7998 183.725 97.8203C182.768 97.8887 182.166 98.251 182.166 98.9824ZM191.832 101.211C189.665 101.211 188.353 99.6182 188.359 97.3828C188.353 95.1201 189.713 93.541 191.805 93.541C193.5 93.541 194.724 94.5391 194.881 96.043H193.459C193.309 95.3457 192.755 94.7646 191.832 94.7578C190.629 94.7646 189.822 95.7627 189.822 97.3418C189.822 98.9688 190.608 99.9736 191.832 99.9668C192.659 99.9736 193.274 99.5088 193.459 98.709H194.881C194.724 100.151 193.582 101.211 191.832 101.211ZM199.734 93.6367V94.7988H198.217V98.873C198.224 99.7139 198.634 99.8643 199.105 99.8711C199.317 99.8711 199.639 99.8506 199.844 99.8301V101.102C199.646 101.129 199.331 101.156 198.928 101.156C197.786 101.156 196.754 100.527 196.768 99.1738V94.7988H195.674V93.6367H196.768V91.8594H198.217V93.6367H199.734ZM205.873 97.9707V93.6367H207.322V101.061H205.9V99.7754H205.818C205.477 100.568 204.718 101.156 203.604 101.156C202.168 101.156 201.156 100.192 201.156 98.3535V93.6367H202.619V98.1758C202.619 99.1875 203.234 99.8301 204.123 99.8301C204.937 99.8301 205.873 99.2354 205.873 97.9707ZM208.758 98.9688C208.751 97.2734 210.193 96.8359 211.533 96.7402C212.025 96.7129 213.14 96.6514 213.481 96.6377L213.475 96.043C213.481 95.2021 212.962 94.7168 211.971 94.7168C211.109 94.7168 210.59 95.1133 210.439 95.6602H208.99C209.12 94.4297 210.269 93.541 212.025 93.541C213.208 93.541 214.931 93.9717 214.938 96.125V101.061H213.516V100.049H213.461C213.174 100.603 212.49 101.225 211.26 101.225C209.852 101.225 208.751 100.418 208.758 98.9688ZM210.18 98.9824C210.18 99.6934 210.768 100.056 211.588 100.062C212.777 100.056 213.488 99.2627 213.488 98.3809L213.481 97.7041C213.146 97.7246 212.087 97.7998 211.738 97.8203C210.781 97.8887 210.18 98.251 210.18 98.9824ZM218.164 91.1621V101.061H216.701V91.1621H218.164ZM221.404 91.1621V101.061H219.941V91.1621H221.404ZM224.084 103.85C223.783 103.843 223.489 103.836 223.305 103.809V102.592C223.469 102.605 223.756 102.612 223.961 102.619C224.412 102.612 224.788 102.585 225.137 101.648L225.314 101.156L222.594 93.6367H224.152L226.025 99.3926H226.107L227.98 93.6367H229.553L226.49 102.045C226.06 103.221 225.308 103.843 224.084 103.85ZM237.305 101.211C235.199 101.211 233.825 99.6797 233.832 97.3828C233.825 95.0723 235.199 93.541 237.305 93.541C239.396 93.541 240.764 95.0723 240.764 97.3828C240.764 99.6797 239.396 101.211 237.305 101.211ZM235.295 97.3828C235.295 98.7979 235.944 99.9941 237.305 99.9941C238.645 99.9941 239.287 98.7979 239.287 97.3828C239.287 95.9609 238.645 94.751 237.305 94.7441C235.944 94.751 235.295 95.9609 235.295 97.3828ZM242.199 103.85V93.6367H243.621V94.8398H243.744C244.004 94.375 244.503 93.541 245.877 93.541C247.675 93.541 248.994 94.9492 248.994 97.3691C248.994 99.7617 247.688 101.204 245.891 101.211C244.544 101.204 244.011 100.384 243.744 99.8984H243.662V103.85H242.199ZM243.635 97.3418C243.635 98.9004 244.318 99.96 245.562 99.9668C246.848 99.96 247.518 98.832 247.518 97.3418C247.518 95.8789 246.868 94.7783 245.562 94.7852C244.305 94.7783 243.635 95.7969 243.635 97.3418ZM253.643 101.211C251.455 101.211 250.108 99.7002 250.115 97.3965C250.108 95.1133 251.476 93.541 253.547 93.541C255.235 93.541 256.842 94.5869 256.842 97.2734V97.793H251.564C251.605 99.208 252.439 100.008 253.656 100.008C254.483 100.008 255.023 99.6523 255.27 99.2012H256.746C256.418 100.404 255.276 101.211 253.643 101.211ZM251.571 96.6992H255.406C255.406 95.5713 254.675 94.7373 253.561 94.7441C252.392 94.7373 251.633 95.6533 251.571 96.6992ZM258.291 101.061V93.6367H259.699V94.8125H259.781C260.055 94.0195 260.8 93.5205 261.668 93.5273C261.846 93.5205 262.133 93.541 262.283 93.5547V94.9492C262.16 94.9219 261.818 94.8604 261.518 94.8672C260.506 94.8604 259.754 95.5645 259.754 96.5352V101.061H258.291ZM262.953 98.9688C262.946 97.2734 264.389 96.8359 265.729 96.7402C266.221 96.7129 267.335 96.6514 267.677 96.6377L267.67 96.043C267.677 95.2021 267.157 94.7168 266.166 94.7168C265.305 94.7168 264.785 95.1133 264.635 95.6602H263.186C263.315 94.4297 264.464 93.541 266.221 93.541C267.403 93.541 269.126 93.9717 269.133 96.125V101.061H267.711V100.049H267.656C267.369 100.603 266.686 101.225 265.455 101.225C264.047 101.225 262.946 100.418 262.953 98.9688ZM264.375 98.9824C264.375 99.6934 264.963 100.056 265.783 100.062C266.973 100.056 267.684 99.2627 267.684 98.3809L267.677 97.7041C267.342 97.7246 266.282 97.7998 265.934 97.8203C264.977 97.8887 264.375 98.251 264.375 98.9824ZM274.369 93.6367V94.7988H272.852V98.873C272.858 99.7139 273.269 99.8643 273.74 99.8711C273.952 99.8711 274.273 99.8506 274.479 99.8301V101.102C274.28 101.129 273.966 101.156 273.562 101.156C272.421 101.156 271.389 100.527 271.402 99.1738V94.7988H270.309V93.6367H271.402V91.8594H272.852V93.6367H274.369ZM278.908 101.211C276.721 101.211 275.374 99.7002 275.381 97.3965C275.374 95.1133 276.741 93.541 278.812 93.541C280.501 93.541 282.107 94.5869 282.107 97.2734V97.793H276.83C276.871 99.208 277.705 100.008 278.922 100.008C279.749 100.008 280.289 99.6523 280.535 99.2012H282.012C281.684 100.404 280.542 101.211 278.908 101.211ZM276.837 96.6992H280.672C280.672 95.5713 279.94 94.7373 278.826 94.7441C277.657 94.7373 276.898 95.6533 276.837 96.6992ZM286.633 98.9688C286.626 97.2734 288.068 96.8359 289.408 96.7402C289.9 96.7129 291.015 96.6514 291.356 96.6377L291.35 96.043C291.356 95.2021 290.837 94.7168 289.846 94.7168C288.984 94.7168 288.465 95.1133 288.314 95.6602H286.865C286.995 94.4297 288.144 93.541 289.9 93.541C291.083 93.541 292.806 93.9717 292.812 96.125V101.061H291.391V100.049H291.336C291.049 100.603 290.365 101.225 289.135 101.225C287.727 101.225 286.626 100.418 286.633 98.9688ZM288.055 98.9824C288.055 99.6934 288.643 100.056 289.463 100.062C290.652 100.056 291.363 99.2627 291.363 98.3809L291.356 97.7041C291.021 97.7246 289.962 97.7998 289.613 97.8203C288.656 97.8887 288.055 98.251 288.055 98.9824ZM296.039 96.6582V101.061H294.576V93.6367H295.984V94.8535H296.066C296.415 94.0537 297.146 93.541 298.254 93.541C299.778 93.541 300.79 94.5049 300.783 96.3438V101.061H299.334V96.5215C299.327 95.4414 298.746 94.7988 297.762 94.7988C296.757 94.7988 296.039 95.4756 296.039 96.6582ZM305.336 101.211C303.545 101.204 302.232 99.7617 302.232 97.3691C302.232 94.9492 303.565 93.541 305.35 93.541C306.73 93.541 307.229 94.375 307.496 94.8398H307.564V91.1621H309.027V101.061H307.605V99.8984H307.496C307.223 100.384 306.689 101.204 305.336 101.211ZM303.723 97.3418C303.716 98.832 304.386 99.96 305.664 99.9668C306.908 99.96 307.605 98.9004 307.605 97.3418C307.605 95.7969 306.922 94.7783 305.664 94.7852C304.372 94.7783 303.716 95.8789 303.723 97.3418ZM314.346 101.061V93.6367H315.754V94.8535H315.836C316.15 94.0264 316.882 93.541 317.859 93.541C318.851 93.541 319.541 94.0264 319.855 94.8535H319.938C320.286 94.0537 321.093 93.541 322.166 93.541C323.506 93.541 324.456 94.3818 324.463 96.084V101.061H323V96.2207C323 95.2158 322.371 94.7988 321.605 94.7988C320.669 94.7988 320.129 95.4414 320.129 96.3301V101.061H318.68V96.1387C318.68 95.3252 318.126 94.7988 317.326 94.7988C316.506 94.7988 315.809 95.4824 315.809 96.4805V101.061H314.346ZM325.885 98.9688C325.878 97.2734 327.32 96.8359 328.66 96.7402C329.152 96.7129 330.267 96.6514 330.608 96.6377L330.602 96.043C330.608 95.2021 330.089 94.7168 329.098 94.7168C328.236 94.7168 327.717 95.1133 327.566 95.6602H326.117C326.247 94.4297 327.396 93.541 329.152 93.541C330.335 93.541 332.058 93.9717 332.064 96.125V101.061H330.643V100.049H330.588C330.301 100.603 329.617 101.225 328.387 101.225C326.979 101.225 325.878 100.418 325.885 98.9688ZM327.307 98.9824C327.307 99.6934 327.895 100.056 328.715 100.062C329.904 100.056 330.615 99.2627 330.615 98.3809L330.608 97.7041C330.273 97.7246 329.214 97.7998 328.865 97.8203C327.908 97.8887 327.307 98.251 327.307 98.9824ZM335.291 96.6582V101.061H333.828V93.6367H335.236V94.8535H335.318C335.667 94.0537 336.398 93.541 337.506 93.541C339.03 93.541 340.042 94.5049 340.035 96.3438V101.061H338.586V96.5215C338.579 95.4414 337.998 94.7988 337.014 94.7988C336.009 94.7988 335.291 95.4756 335.291 96.6582ZM341.471 98.9688C341.464 97.2734 342.906 96.8359 344.246 96.7402C344.738 96.7129 345.853 96.6514 346.194 96.6377L346.188 96.043C346.194 95.2021 345.675 94.7168 344.684 94.7168C343.822 94.7168 343.303 95.1133 343.152 95.6602H341.703C341.833 94.4297 342.981 93.541 344.738 93.541C345.921 93.541 347.644 93.9717 347.65 96.125V101.061H346.229V100.049H346.174C345.887 100.603 345.203 101.225 343.973 101.225C342.564 101.225 341.464 100.418 341.471 98.9688ZM342.893 98.9824C342.893 99.6934 343.48 100.056 344.301 100.062C345.49 100.056 346.201 99.2627 346.201 98.3809L346.194 97.7041C345.859 97.7246 344.8 97.7998 344.451 97.8203C343.494 97.8887 342.893 98.251 342.893 98.9824ZM352.531 104C350.658 104 349.421 103.173 349.291 101.785H350.781C350.925 102.489 351.581 102.831 352.545 102.824C353.707 102.831 354.438 102.325 354.445 101.17V99.707H354.35C354.09 100.186 353.557 100.951 352.189 100.951C350.439 100.951 349.086 99.6455 349.086 97.2734C349.086 94.9014 350.419 93.541 352.203 93.541C353.584 93.541 354.09 94.375 354.363 94.8398H354.459V93.6367H355.881V101.225C355.888 103.132 354.445 104 352.531 104ZM350.576 97.3008C350.569 98.7568 351.239 99.7412 352.518 99.748C353.762 99.7412 354.459 98.832 354.459 97.3008C354.459 95.7969 353.775 94.7783 352.518 94.7852C351.226 94.7783 350.569 95.8789 350.576 97.3008ZM360.857 101.211C358.67 101.211 357.323 99.7002 357.33 97.3965C357.323 95.1133 358.69 93.541 360.762 93.541C362.45 93.541 364.057 94.5869 364.057 97.2734V97.793H358.779C358.82 99.208 359.654 100.008 360.871 100.008C361.698 100.008 362.238 99.6523 362.484 99.2012H363.961C363.633 100.404 362.491 101.211 360.857 101.211ZM358.786 96.6992H362.621C362.621 95.5713 361.89 94.7373 360.775 94.7441C359.606 94.7373 358.848 95.6533 358.786 96.6992ZM126.385 110.637V111.799H124.867V115.873C124.874 116.714 125.284 116.864 125.756 116.871C125.968 116.871 126.289 116.851 126.494 116.83V118.102C126.296 118.129 125.981 118.156 125.578 118.156C124.437 118.156 123.404 117.527 123.418 116.174V111.799H122.324V110.637H123.418V108.859H124.867V110.637H126.385ZM129.434 113.658V118.061H127.971V108.162H129.406V111.854H129.502C129.851 111.047 130.548 110.541 131.703 110.541C133.228 110.541 134.246 111.484 134.246 113.344V118.061H132.783V113.521C132.783 112.428 132.195 111.799 131.211 111.799C130.179 111.799 129.434 112.476 129.434 113.658ZM139.209 118.211C137.021 118.211 135.675 116.7 135.682 114.396C135.675 112.113 137.042 110.541 139.113 110.541C140.802 110.541 142.408 111.587 142.408 114.273V114.793H137.131C137.172 116.208 138.006 117.008 139.223 117.008C140.05 117.008 140.59 116.652 140.836 116.201H142.312C141.984 117.404 140.843 118.211 139.209 118.211ZM137.138 113.699H140.973C140.973 112.571 140.241 111.737 139.127 111.744C137.958 111.737 137.199 112.653 137.138 113.699ZM147.275 118.061V110.637H148.684V111.854H148.766C149.08 111.026 149.812 110.541 150.789 110.541C151.78 110.541 152.471 111.026 152.785 111.854H152.867C153.216 111.054 154.022 110.541 155.096 110.541C156.436 110.541 157.386 111.382 157.393 113.084V118.061H155.93V113.221C155.93 112.216 155.301 111.799 154.535 111.799C153.599 111.799 153.059 112.441 153.059 113.33V118.061H151.609V113.139C151.609 112.325 151.056 111.799 150.256 111.799C149.436 111.799 148.738 112.482 148.738 113.48V118.061H147.275ZM162.301 118.211C160.195 118.211 158.821 116.68 158.828 114.383C158.821 112.072 160.195 110.541 162.301 110.541C164.393 110.541 165.76 112.072 165.76 114.383C165.76 116.68 164.393 118.211 162.301 118.211ZM160.291 114.383C160.291 115.798 160.94 116.994 162.301 116.994C163.641 116.994 164.283 115.798 164.283 114.383C164.283 112.961 163.641 111.751 162.301 111.744C160.94 111.751 160.291 112.961 160.291 114.383ZM169.971 118.211C168.18 118.204 166.867 116.762 166.867 114.369C166.867 111.949 168.2 110.541 169.984 110.541C171.365 110.541 171.864 111.375 172.131 111.84H172.199V108.162H173.662V118.061H172.24V116.898H172.131C171.857 117.384 171.324 118.204 169.971 118.211ZM168.357 114.342C168.351 115.832 169.021 116.96 170.299 116.967C171.543 116.96 172.24 115.9 172.24 114.342C172.24 112.797 171.557 111.778 170.299 111.785C169.007 111.778 168.351 112.879 168.357 114.342ZM178.762 118.211C176.574 118.211 175.228 116.7 175.234 114.396C175.228 112.113 176.595 110.541 178.666 110.541C180.354 110.541 181.961 111.587 181.961 114.273V114.793H176.684C176.725 116.208 177.559 117.008 178.775 117.008C179.603 117.008 180.143 116.652 180.389 116.201H181.865C181.537 117.404 180.396 118.211 178.762 118.211ZM176.69 113.699H180.525C180.525 112.571 179.794 111.737 178.68 111.744C177.511 111.737 176.752 112.653 176.69 113.699ZM184.873 108.162V118.061H183.41V108.162H184.873ZM187.607 118.156C187.074 118.149 186.63 117.719 186.637 117.186C186.63 116.652 187.074 116.215 187.607 116.215C188.134 116.215 188.571 116.652 188.578 117.186C188.571 117.719 188.134 118.149 187.607 118.156Z" fill="#ECECF8"/>
<g clip-path="url(#clip2_597_10462)">
<path d="M40.4746 196.857V195.162H48.582V196.857H45.5469V205.061H43.5098V196.857H40.4746ZM52.0957 205.211C49.8193 205.204 48.4248 203.734 48.4316 201.383C48.4248 199.093 49.8398 197.541 52.0137 197.541C53.9619 197.541 55.5 198.771 55.5 201.301V201.875H50.4277C50.4277 202.996 51.0908 203.687 52.1367 203.693C52.8271 203.687 53.3193 203.386 53.5176 202.941H55.4453C55.1582 204.315 53.9277 205.204 52.0957 205.211ZM50.4277 200.604H53.5859C53.5791 199.701 52.957 199.052 52.0547 199.059C51.125 199.052 50.4688 199.749 50.4277 200.604ZM60.1074 205.211C57.8311 205.204 56.4639 203.632 56.4707 201.369C56.4639 199.1 57.8584 197.541 60.1074 197.541C62.0215 197.541 63.3203 198.655 63.4023 200.357H61.502C61.3789 199.626 60.9004 199.12 60.1348 199.113C59.1641 199.12 58.5215 199.934 58.5215 201.342C58.5215 202.777 59.1504 203.598 60.1348 203.598C60.8457 203.598 61.3721 203.153 61.502 202.367H63.4023C63.3135 204.049 62.0762 205.204 60.1074 205.211ZM66.6836 200.768V205.061H64.6602V195.162H66.6289V198.936H66.7109C67.0527 198.067 67.7979 197.541 68.9258 197.541C70.4775 197.541 71.4961 198.587 71.4961 200.33V205.061H69.4727V200.686C69.4727 199.763 68.9805 199.223 68.1328 199.223C67.2783 199.223 66.6836 199.79 66.6836 200.768Z" fill="#ECECF8" fill-opacity="0.5"/>
<path d="M40.543 227.961V226.662H48.2129V227.961H45.1367V236.561H43.6328V227.961H40.543ZM51.7402 236.711C49.5527 236.711 48.2061 235.2 48.2129 232.896C48.2061 230.613 49.5732 229.041 51.6445 229.041C53.333 229.041 54.9395 230.087 54.9395 232.773V233.293H49.6621C49.7031 234.708 50.5371 235.508 51.7539 235.508C52.5811 235.508 53.1211 235.152 53.3672 234.701H54.8438C54.5156 235.904 53.374 236.711 51.7402 236.711ZM49.6689 232.199H53.5039C53.5039 231.071 52.7725 230.237 51.6582 230.244C50.4893 230.237 49.7305 231.153 49.6689 232.199ZM59.5332 236.711C57.3662 236.711 56.0537 235.118 56.0605 232.883C56.0537 230.62 57.4141 229.041 59.5059 229.041C61.2012 229.041 62.4248 230.039 62.582 231.543H61.1602C61.0098 230.846 60.4561 230.265 59.5332 230.258C58.3301 230.265 57.5234 231.263 57.5234 232.842C57.5234 234.469 58.3096 235.474 59.5332 235.467C60.3604 235.474 60.9756 235.009 61.1602 234.209H62.582C62.4248 235.651 61.2832 236.711 59.5332 236.711ZM65.4258 232.158V236.561H63.9629V226.662H65.3984V230.354H65.4941C65.8428 229.547 66.54 229.041 67.6953 229.041C69.2197 229.041 70.2383 229.984 70.2383 231.844V236.561H68.7754V232.021C68.7754 230.928 68.1875 230.299 67.2031 230.299C66.1709 230.299 65.4258 230.976 65.4258 232.158ZM73.4648 232.158V236.561H72.002V229.137H73.4102V230.354H73.4922C73.8408 229.554 74.5723 229.041 75.6797 229.041C77.2041 229.041 78.2158 230.005 78.209 231.844V236.561H76.7598V232.021C76.7529 230.941 76.1719 230.299 75.1875 230.299C74.1826 230.299 73.4648 230.976 73.4648 232.158ZM79.9863 236.561V229.137H81.4492V236.561H79.9863ZM79.7949 227.127C79.8018 226.648 80.2188 226.266 80.7246 226.266C81.2236 226.266 81.6406 226.648 81.6406 227.127C81.6406 227.605 81.2236 227.995 80.7246 227.988C80.2188 227.995 79.8018 227.605 79.7949 227.127ZM86.3711 236.711C84.2041 236.711 82.8916 235.118 82.8984 232.883C82.8916 230.62 84.252 229.041 86.3438 229.041C88.0391 229.041 89.2627 230.039 89.4199 231.543H87.998C87.8477 230.846 87.2939 230.265 86.3711 230.258C85.168 230.265 84.3613 231.263 84.3613 232.842C84.3613 234.469 85.1475 235.474 86.3711 235.467C87.1982 235.474 87.8135 235.009 87.998 234.209H89.4199C89.2627 235.651 88.1211 236.711 86.3711 236.711ZM90.459 234.469C90.4521 232.773 91.8945 232.336 93.2344 232.24C93.7266 232.213 94.8408 232.151 95.1826 232.138L95.1758 231.543C95.1826 230.702 94.6631 230.217 93.6719 230.217C92.8105 230.217 92.291 230.613 92.1406 231.16H90.6914C90.8213 229.93 91.9697 229.041 93.7266 229.041C94.9092 229.041 96.6318 229.472 96.6387 231.625V236.561H95.2168V235.549H95.1621C94.875 236.103 94.1914 236.725 92.9609 236.725C91.5527 236.725 90.4521 235.918 90.459 234.469ZM91.8809 234.482C91.8809 235.193 92.4688 235.556 93.2891 235.562C94.4785 235.556 95.1895 234.763 95.1895 233.881L95.1826 233.204C94.8477 233.225 93.7881 233.3 93.4395 233.32C92.4824 233.389 91.8809 233.751 91.8809 234.482ZM99.8652 226.662V236.561H98.4023V226.662H99.8652ZM105.061 239.35V229.137H106.482V230.34H106.605C106.865 229.875 107.364 229.041 108.738 229.041C110.536 229.041 111.855 230.449 111.855 232.869C111.855 235.262 110.55 236.704 108.752 236.711C107.405 236.704 106.872 235.884 106.605 235.398H106.523V239.35H105.061ZM106.496 232.842C106.496 234.4 107.18 235.46 108.424 235.467C109.709 235.46 110.379 234.332 110.379 232.842C110.379 231.379 109.729 230.278 108.424 230.285C107.166 230.278 106.496 231.297 106.496 232.842ZM113.305 236.561V229.137H114.713V230.312H114.795C115.068 229.52 115.813 229.021 116.682 229.027C116.859 229.021 117.146 229.041 117.297 229.055V230.449C117.174 230.422 116.832 230.36 116.531 230.367C115.52 230.36 114.768 231.064 114.768 232.035V236.561H113.305ZM121.289 236.711C119.184 236.711 117.81 235.18 117.816 232.883C117.81 230.572 119.184 229.041 121.289 229.041C123.381 229.041 124.748 230.572 124.748 232.883C124.748 235.18 123.381 236.711 121.289 236.711ZM119.279 232.883C119.279 234.298 119.929 235.494 121.289 235.494C122.629 235.494 123.271 234.298 123.271 232.883C123.271 231.461 122.629 230.251 121.289 230.244C119.929 230.251 119.279 231.461 119.279 232.883ZM129.725 229.137V230.299H128.125V236.561H126.662V230.299H125.514V229.137H126.662V228.275C126.669 226.949 127.517 226.197 128.877 226.197C129.226 226.197 129.588 226.238 129.875 226.293V227.51C129.602 227.469 129.39 227.455 129.26 227.455C128.487 227.455 128.125 227.77 128.125 228.494V229.137H129.725ZM131.051 236.561V229.137H132.514V236.561H131.051ZM130.859 227.127C130.866 226.648 131.283 226.266 131.789 226.266C132.288 226.266 132.705 226.648 132.705 227.127C132.705 227.605 132.288 227.995 131.789 227.988C131.283 227.995 130.866 227.605 130.859 227.127ZM137.436 236.711C135.269 236.711 133.956 235.118 133.963 232.883C133.956 230.62 135.316 229.041 137.408 229.041C139.104 229.041 140.327 230.039 140.484 231.543H139.062C138.912 230.846 138.358 230.265 137.436 230.258C136.232 230.265 135.426 231.263 135.426 232.842C135.426 234.469 136.212 235.474 137.436 235.467C138.263 235.474 138.878 235.009 139.062 234.209H140.484C140.327 235.651 139.186 236.711 137.436 236.711ZM141.865 236.561V229.137H143.328V236.561H141.865ZM141.674 227.127C141.681 226.648 142.098 226.266 142.604 226.266C143.103 226.266 143.52 226.648 143.52 227.127C143.52 227.605 143.103 227.995 142.604 227.988C142.098 227.995 141.681 227.605 141.674 227.127ZM148.305 236.711C146.117 236.711 144.771 235.2 144.777 232.896C144.771 230.613 146.138 229.041 148.209 229.041C149.897 229.041 151.504 230.087 151.504 232.773V233.293H146.227C146.268 234.708 147.102 235.508 148.318 235.508C149.146 235.508 149.686 235.152 149.932 234.701H151.408C151.08 235.904 149.938 236.711 148.305 236.711ZM146.233 232.199H150.068C150.068 231.071 149.337 230.237 148.223 230.244C147.054 230.237 146.295 231.153 146.233 232.199ZM154.416 232.158V236.561H152.953V229.137H154.361V230.354H154.443C154.792 229.554 155.523 229.041 156.631 229.041C158.155 229.041 159.167 230.005 159.16 231.844V236.561H157.711V232.021C157.704 230.941 157.123 230.299 156.139 230.299C155.134 230.299 154.416 230.976 154.416 232.158ZM164.082 236.711C161.915 236.711 160.603 235.118 160.609 232.883C160.603 230.62 161.963 229.041 164.055 229.041C165.75 229.041 166.974 230.039 167.131 231.543H165.709C165.559 230.846 165.005 230.265 164.082 230.258C162.879 230.265 162.072 231.263 162.072 232.842C162.072 234.469 162.858 235.474 164.082 235.467C164.909 235.474 165.524 235.009 165.709 234.209H167.131C166.974 235.651 165.832 236.711 164.082 236.711ZM169.414 239.35C169.113 239.343 168.819 239.336 168.635 239.309V238.092C168.799 238.105 169.086 238.112 169.291 238.119C169.742 238.112 170.118 238.085 170.467 237.148L170.645 236.656L167.924 229.137H169.482L171.355 234.893H171.438L173.311 229.137H174.883L171.82 237.545C171.39 238.721 170.638 239.343 169.414 239.35ZM179.49 236.561V229.137H180.953V236.561H179.49ZM179.299 227.127C179.306 226.648 179.723 226.266 180.229 226.266C180.728 226.266 181.145 226.648 181.145 227.127C181.145 227.605 180.728 227.995 180.229 227.988C179.723 227.995 179.306 227.605 179.299 227.127ZM184.193 232.158V236.561H182.73V229.137H184.139V230.354H184.221C184.569 229.554 185.301 229.041 186.408 229.041C187.933 229.041 188.944 230.005 188.938 231.844V236.561H187.488V232.021C187.481 230.941 186.9 230.299 185.916 230.299C184.911 230.299 184.193 230.976 184.193 232.158ZM194.256 226.662H196.088L199.219 234.332H199.342L202.473 226.662H204.305V236.561H202.869V229.41H202.773L199.875 236.547H198.686L195.773 229.396H195.691V236.561H194.256V226.662ZM206.328 236.561V226.662H207.832V235.262H212.303V236.561H206.328Z" fill="#ECECF8"/>
<circle cx="246.023" cy="232.061" r="6" fill="#944AF2"/>
<circle cx="270.023" cy="232.061" r="6" fill="#ECECF8" fill-opacity="0.3"/>
<circle cx="294.023" cy="232.061" r="6" fill="#ECECF8" fill-opacity="0.3"/>
<circle cx="318.023" cy="232.061" r="6" fill="#ECECF8" fill-opacity="0.3"/>
<circle cx="342.023" cy="232.061" r="6" fill="#ECECF8" fill-opacity="0.3"/>
<path d="M40.543 264.961V263.662H48.2129V264.961H45.1367V273.561H43.6328V264.961H40.543ZM51.7402 273.711C49.5527 273.711 48.2061 272.2 48.2129 269.896C48.2061 267.613 49.5732 266.041 51.6445 266.041C53.333 266.041 54.9395 267.087 54.9395 269.773V270.293H49.6621C49.7031 271.708 50.5371 272.508 51.7539 272.508C52.5811 272.508 53.1211 272.152 53.3672 271.701H54.8438C54.5156 272.904 53.374 273.711 51.7402 273.711ZM49.6689 269.199H53.5039C53.5039 268.071 52.7725 267.237 51.6582 267.244C50.4893 267.237 49.7305 268.153 49.6689 269.199ZM59.5332 273.711C57.3662 273.711 56.0537 272.118 56.0605 269.883C56.0537 267.62 57.4141 266.041 59.5059 266.041C61.2012 266.041 62.4248 267.039 62.582 268.543H61.1602C61.0098 267.846 60.4561 267.265 59.5332 267.258C58.3301 267.265 57.5234 268.263 57.5234 269.842C57.5234 271.469 58.3096 272.474 59.5332 272.467C60.3604 272.474 60.9756 272.009 61.1602 271.209H62.582C62.4248 272.651 61.2832 273.711 59.5332 273.711ZM65.4258 269.158V273.561H63.9629V263.662H65.3984V267.354H65.4941C65.8428 266.547 66.54 266.041 67.6953 266.041C69.2197 266.041 70.2383 266.984 70.2383 268.844V273.561H68.7754V269.021C68.7754 267.928 68.1875 267.299 67.2031 267.299C66.1709 267.299 65.4258 267.976 65.4258 269.158ZM73.4648 269.158V273.561H72.002V266.137H73.4102V267.354H73.4922C73.8408 266.554 74.5723 266.041 75.6797 266.041C77.2041 266.041 78.2158 267.005 78.209 268.844V273.561H76.7598V269.021C76.7529 267.941 76.1719 267.299 75.1875 267.299C74.1826 267.299 73.4648 267.976 73.4648 269.158ZM79.9863 273.561V266.137H81.4492V273.561H79.9863ZM79.7949 264.127C79.8018 263.648 80.2188 263.266 80.7246 263.266C81.2236 263.266 81.6406 263.648 81.6406 264.127C81.6406 264.605 81.2236 264.995 80.7246 264.988C80.2188 264.995 79.8018 264.605 79.7949 264.127ZM86.3711 273.711C84.2041 273.711 82.8916 272.118 82.8984 269.883C82.8916 267.62 84.252 266.041 86.3438 266.041C88.0391 266.041 89.2627 267.039 89.4199 268.543H87.998C87.8477 267.846 87.2939 267.265 86.3711 267.258C85.168 267.265 84.3613 268.263 84.3613 269.842C84.3613 271.469 85.1475 272.474 86.3711 272.467C87.1982 272.474 87.8135 272.009 87.998 271.209H89.4199C89.2627 272.651 88.1211 273.711 86.3711 273.711ZM90.459 271.469C90.4521 269.773 91.8945 269.336 93.2344 269.24C93.7266 269.213 94.8408 269.151 95.1826 269.138L95.1758 268.543C95.1826 267.702 94.6631 267.217 93.6719 267.217C92.8105 267.217 92.291 267.613 92.1406 268.16H90.6914C90.8213 266.93 91.9697 266.041 93.7266 266.041C94.9092 266.041 96.6318 266.472 96.6387 268.625V273.561H95.2168V272.549H95.1621C94.875 273.103 94.1914 273.725 92.9609 273.725C91.5527 273.725 90.4521 272.918 90.459 271.469ZM91.8809 271.482C91.8809 272.193 92.4688 272.556 93.2891 272.562C94.4785 272.556 95.1895 271.763 95.1895 270.881L95.1826 270.204C94.8477 270.225 93.7881 270.3 93.4395 270.32C92.4824 270.389 91.8809 270.751 91.8809 271.482ZM99.8652 263.662V273.561H98.4023V263.662H99.8652ZM105.061 276.35V266.137H106.482V267.34H106.605C106.865 266.875 107.364 266.041 108.738 266.041C110.536 266.041 111.855 267.449 111.855 269.869C111.855 272.262 110.55 273.704 108.752 273.711C107.405 273.704 106.872 272.884 106.605 272.398H106.523V276.35H105.061ZM106.496 269.842C106.496 271.4 107.18 272.46 108.424 272.467C109.709 272.46 110.379 271.332 110.379 269.842C110.379 268.379 109.729 267.278 108.424 267.285C107.166 267.278 106.496 268.297 106.496 269.842ZM113.305 273.561V266.137H114.713V267.312H114.795C115.068 266.52 115.813 266.021 116.682 266.027C116.859 266.021 117.146 266.041 117.297 266.055V267.449C117.174 267.422 116.832 267.36 116.531 267.367C115.52 267.36 114.768 268.064 114.768 269.035V273.561H113.305ZM121.289 273.711C119.184 273.711 117.81 272.18 117.816 269.883C117.81 267.572 119.184 266.041 121.289 266.041C123.381 266.041 124.748 267.572 124.748 269.883C124.748 272.18 123.381 273.711 121.289 273.711ZM119.279 269.883C119.279 271.298 119.929 272.494 121.289 272.494C122.629 272.494 123.271 271.298 123.271 269.883C123.271 268.461 122.629 267.251 121.289 267.244C119.929 267.251 119.279 268.461 119.279 269.883ZM129.725 266.137V267.299H128.125V273.561H126.662V267.299H125.514V266.137H126.662V265.275C126.669 263.949 127.517 263.197 128.877 263.197C129.226 263.197 129.588 263.238 129.875 263.293V264.51C129.602 264.469 129.39 264.455 129.26 264.455C128.487 264.455 128.125 264.77 128.125 265.494V266.137H129.725ZM131.051 273.561V266.137H132.514V273.561H131.051ZM130.859 264.127C130.866 263.648 131.283 263.266 131.789 263.266C132.288 263.266 132.705 263.648 132.705 264.127C132.705 264.605 132.288 264.995 131.789 264.988C131.283 264.995 130.866 264.605 130.859 264.127ZM137.436 273.711C135.269 273.711 133.956 272.118 133.963 269.883C133.956 267.62 135.316 266.041 137.408 266.041C139.104 266.041 140.327 267.039 140.484 268.543H139.062C138.912 267.846 138.358 267.265 137.436 267.258C136.232 267.265 135.426 268.263 135.426 269.842C135.426 271.469 136.212 272.474 137.436 272.467C138.263 272.474 138.878 272.009 139.062 271.209H140.484C140.327 272.651 139.186 273.711 137.436 273.711ZM141.865 273.561V266.137H143.328V273.561H141.865ZM141.674 264.127C141.681 263.648 142.098 263.266 142.604 263.266C143.103 263.266 143.52 263.648 143.52 264.127C143.52 264.605 143.103 264.995 142.604 264.988C142.098 264.995 141.681 264.605 141.674 264.127ZM148.305 273.711C146.117 273.711 144.771 272.2 144.777 269.896C144.771 267.613 146.138 266.041 148.209 266.041C149.897 266.041 151.504 267.087 151.504 269.773V270.293H146.227C146.268 271.708 147.102 272.508 148.318 272.508C149.146 272.508 149.686 272.152 149.932 271.701H151.408C151.08 272.904 149.938 273.711 148.305 273.711ZM146.233 269.199H150.068C150.068 268.071 149.337 267.237 148.223 267.244C147.054 267.237 146.295 268.153 146.233 269.199ZM154.416 269.158V273.561H152.953V266.137H154.361V267.354H154.443C154.792 266.554 155.523 266.041 156.631 266.041C158.155 266.041 159.167 267.005 159.16 268.844V273.561H157.711V269.021C157.704 267.941 157.123 267.299 156.139 267.299C155.134 267.299 154.416 267.976 154.416 269.158ZM164.082 273.711C161.915 273.711 160.603 272.118 160.609 269.883C160.603 267.62 161.963 266.041 164.055 266.041C165.75 266.041 166.974 267.039 167.131 268.543H165.709C165.559 267.846 165.005 267.265 164.082 267.258C162.879 267.265 162.072 268.263 162.072 269.842C162.072 271.469 162.858 272.474 164.082 272.467C164.909 272.474 165.524 272.009 165.709 271.209H167.131C166.974 272.651 165.832 273.711 164.082 273.711ZM169.414 276.35C169.113 276.343 168.819 276.336 168.635 276.309V275.092C168.799 275.105 169.086 275.112 169.291 275.119C169.742 275.112 170.118 275.085 170.467 274.148L170.645 273.656L167.924 266.137H169.482L171.355 271.893H171.438L173.311 266.137H174.883L171.82 274.545C171.39 275.721 170.638 276.343 169.414 276.35ZM179.49 273.561V266.137H180.953V273.561H179.49ZM179.299 264.127C179.306 263.648 179.723 263.266 180.229 263.266C180.728 263.266 181.145 263.648 181.145 264.127C181.145 264.605 180.728 264.995 180.229 264.988C179.723 264.995 179.306 264.605 179.299 264.127ZM184.193 269.158V273.561H182.73V266.137H184.139V267.354H184.221C184.569 266.554 185.301 266.041 186.408 266.041C187.933 266.041 188.944 267.005 188.938 268.844V273.561H187.488V269.021C187.481 267.941 186.9 267.299 185.916 267.299C184.911 267.299 184.193 267.976 184.193 269.158ZM202.855 268.611C202.855 271.776 200.955 273.697 198.398 273.697C195.821 273.697 193.928 271.77 193.928 268.611C193.928 265.446 195.821 263.525 198.398 263.525C200.955 263.525 202.855 265.446 202.855 268.611ZM195.418 268.611C195.425 271.018 196.689 272.323 198.398 272.316C200.094 272.323 201.358 271.018 201.365 268.611C201.358 266.205 200.094 264.899 198.398 264.906C196.689 264.899 195.425 266.205 195.418 268.611ZM204.428 276.35V266.137H205.85V267.34H205.973C206.232 266.875 206.731 266.041 208.105 266.041C209.903 266.041 211.223 267.449 211.223 269.869C211.223 272.262 209.917 273.704 208.119 273.711C206.772 273.704 206.239 272.884 205.973 272.398H205.891V276.35H204.428ZM205.863 269.842C205.863 271.4 206.547 272.46 207.791 272.467C209.076 272.46 209.746 271.332 209.746 269.842C209.746 268.379 209.097 267.278 207.791 267.285C206.533 267.278 205.863 268.297 205.863 269.842ZM216.842 268.16C216.705 267.572 216.24 267.189 215.434 267.189C214.6 267.189 214.005 267.62 214.012 268.188C214.005 268.625 214.354 268.939 215.174 269.131L216.35 269.404C217.717 269.712 218.38 270.361 218.387 271.414C218.38 272.754 217.245 273.711 215.352 273.711C213.567 273.711 212.515 272.918 212.33 271.537H213.82C213.95 272.207 214.456 272.542 215.338 272.535C216.281 272.542 216.89 272.146 216.896 271.523C216.89 271.045 216.534 270.737 215.748 270.553L214.586 270.307C213.246 270.013 212.549 269.295 212.549 268.27C212.549 266.95 213.697 266.041 215.42 266.041C217.074 266.041 218.106 266.882 218.25 268.16H216.842Z" fill="#ECECF8"/>
<circle cx="246.023" cy="269.061" r="6" fill="#944AF2"/>
<circle cx="270.023" cy="269.061" r="6" fill="#ECECF8" fill-opacity="0.3"/>
<circle cx="294.023" cy="269.061" r="6" fill="#ECECF8" fill-opacity="0.3"/>
<circle cx="318.023" cy="269.061" r="6" fill="#ECECF8" fill-opacity="0.3"/>
<circle cx="342.023" cy="269.061" r="6" fill="#ECECF8" fill-opacity="0.3"/>
</g>
</g>
<rect x="0.523438" y="1.05664" width="399" height="305.504" rx="11.5" stroke="white" stroke-opacity="0.2"/>
<defs>
<filter id="filter0_f_597_10462" x="66.1223" y="51.5705" width="9.98199" height="11.9439" filterUnits="userSpaceOnUse" color-interpolation-filters="sRGB">
<feFlood flood-opacity="0" result="BackgroundImageFix"/>
<feBlend mode="normal" in="SourceGraphic" in2="BackgroundImageFix" result="shape"/>
<feGaussianBlur stdDeviation="0.847059" result="effect1_foregroundBlur_597_10462"/>
</filter>
<linearGradient id="paint0_linear_597_10462" x1="63.4085" y1="67.8123" x2="66.582" y2="79.942" gradientUnits="userSpaceOnUse">
<stop stop-color="#8F5250"/>
<stop offset="1" stop-color="#8F5250" stop-opacity="0"/>
</linearGradient>
<radialGradient id="paint1_radial_597_10462" cx="0" cy="0" r="1" gradientUnits="userSpaceOnUse" gradientTransform="translate(71.2485 46.423) rotate(109.622) scale(25.8544 19.446)">
<stop stop-color="#FFC6C4"/>
<stop offset="1" stop-color="#EB8682"/>
</radialGradient>
<linearGradient id="paint2_linear_597_10462" x1="60.0226" y1="81.7666" x2="60.0226" y2="100.557" gradientUnits="userSpaceOnUse">
<stop stop-color="#396352"/>
<stop offset="1" stop-color="#132E23"/>
</linearGradient>
<clipPath id="clip0_597_10462">
<rect x="0.0234375" y="0.556641" width="400" height="306.504" rx="12" fill="white"/>
</clipPath>
<clipPath id="clip1_597_10462">
<rect x="20.0234" y="20.5566" width="80" height="80" rx="40" fill="white"/>
</clipPath>
<clipPath id="clip2_597_10462">
<rect x="20.0234" y="192.061" width="360" height="95" rx="12" fill="white"/>
</clipPath>
</defs>
</svg>
