<svg width="401" height="308" viewBox="0 0 401 308" fill="none" xmlns="http://www.w3.org/2000/svg">
<g clip-path="url(#clip0_597_10532)">
<rect x="0.0234375" y="0.556641" width="400" height="306.504" rx="12" fill="#131316" fill-opacity="0.6"/>
<g clip-path="url(#clip1_597_10532)">
<rect x="20.0234" y="20.5566" width="80" height="80" rx="40" fill="#DFDCDA"/>
<path d="M72.3117 46.9915C71.4454 51.0341 70.4058 59.6969 73.1779 62.0069L75.0545 63.7395C73.5391 63.523 70.6836 62.9481 70.2101 62.2462C70.3122 63.6606 70.5322 69.2002 72.3117 69.0815C71.3969 69.1778 69.452 68.6773 68.9899 65.9052C68.8935 67.1083 68.845 69.6879 69.4231 70.3809C70.1456 71.2472 66.5351 68.3596 66.3907 66.9158C66.2752 65.7608 66.8239 52.0929 67.1126 45.4033L72.3117 46.9915Z" fill="#140610"/>
<path d="M45.9121 50.9984C47.3242 55.0386 50.1403 64.122 45.6213 66.4308L43.4213 67.8308C45.7935 67.623 48.7018 67.0147 49.328 66.332C49.1565 67.8726 48.756 73.1918 45.9121 73.0755C47.4032 73.1717 50.5739 72.6715 51.327 69.901C51.4843 71.1035 51.5633 73.6815 50.6209 74.3742C49.443 75.2399 55.3288 72.354 55.5642 70.9111C55.7525 69.7567 54.8581 56.0968 54.3874 49.4111L45.9121 50.9984Z" fill="#140610"/>
<path d="M42.7407 75.6848C40.5461 69.3321 48.6602 67.1664 52.9916 66.8776C61.3652 60.6693 74.1038 72.3699 75.8039 75.6854C78.6915 81.3166 71.7613 89.4018 66.8524 92.8669C61.9435 96.332 45.4839 83.6257 42.7407 75.6848Z" fill="#202F72"/>
<path d="M53.3953 77.0594C53.8108 75.8957 52.746 62.5719 52.2266 57.8203C53.4732 59.5658 62.139 65.3743 66.2511 66.2955C66.2078 69.3986 66.355 75.8957 67.29 77.0594C68.4587 78.514 65.0824 84.6232 63.3943 86.2232C61.7061 87.8232 52.8758 78.514 53.3953 77.0594Z" fill="url(#paint0_linear_597_10532)"/>
<mask id="mask0_597_10532" style="mask-type:alpha" maskUnits="userSpaceOnUse" x="51" y="57" width="17" height="30">
<path d="M53.3686 77.1077C53.7849 75.9499 52.4579 62.5489 51.9375 57.8213C53.1865 59.5579 62.1286 65.4817 66.2484 66.3983C66.2051 69.4857 66.3525 75.9499 67.2892 77.1077C68.4601 78.5549 65.0775 84.6332 63.3862 86.2251C61.695 87.8171 52.8482 78.5549 53.3686 77.1077Z" fill="#EB8682"/>
</mask>
<g mask="url(#mask0_597_10532)">
<path d="M68.6852 73.1638C61.755 77.784 55.9798 67.9278 51.6484 57.8213L75.3266 70.565C73.8829 71.1907 70.2962 72.0898 68.6852 73.1638Z" fill="url(#paint1_linear_597_10532)"/>
</g>
<path d="M48.8225 58.6302C49.7533 52.5355 51.1406 49.8459 51.1406 49.8459C51.1406 49.8459 49.554 48.5006 48.1563 49.8035C46.7587 51.1063 47.2675 59.05 46.8284 60.7224C46.2224 63.0301 45.3101 63.3544 43.8224 64.4302C45.8224 63.6302 48.1715 62.8929 48.8225 58.6302Z" fill="url(#paint2_linear_597_10532)"/>
<path d="M47.3669 55.2945C47.0639 49.1366 47.887 46.2245 47.887 46.2245C47.887 46.2245 46.0641 45.2225 44.9542 46.7779C43.8444 48.3332 46.1205 54.104 46.0236 55.8304C45.8899 58.2126 45.6669 60.2796 44.4236 61.6304C46.2239 60.4477 47.5789 59.6015 47.3669 55.2945Z" fill="url(#paint3_linear_597_10532)"/>
<path d="M72.6953 31.2996C71.976 30.5145 68.0956 30.4518 66.2454 30.5186C65.3001 31.5191 63.3896 33.9248 63.3099 35.544C63.2103 37.568 69.256 35.6822 72.1226 36.0293C74.4119 36.3065 73.8556 53.2529 73.7101 57.6836L73.7093 57.7071C74.1377 55.7713 75.2839 51.1152 75.554 49.6793C75.9623 47.5086 77.89 41.1975 77.3295 39.8207C76.769 38.444 73.5945 32.2811 72.6953 31.2996Z" fill="#140610"/>
<path d="M55.2475 50.4579C57.9018 47.7543 60.3283 42.9288 61.2097 40.8541C63.9119 41.763 68.7958 42.3544 66.7139 37.4484C64.1115 31.3159 48.9201 33.2896 44.2254 37.2296C40.4697 40.3816 45.7942 52.6558 48.2297 55.7624L53.8254 60.0296C54.0381 59.4736 54.5605 59.0135 54.397 57.4812C54.1927 55.5658 51.9296 53.8374 55.2475 50.4579Z" fill="#140610"/>
<path d="M74.1694 48.1342C74.4924 46.4281 74.0094 39.5286 73.3212 36.0033C68.1212 29.7018 60.4216 34.4414 56.4343 36.1401C53.2445 37.499 52.2631 45.7669 52.1712 49.7309C51.6035 49.6137 49.973 49.0476 48.0145 49.2276C45.8212 49.4292 46.3461 49.4446 45.6211 51.8292C44.896 54.2138 48.3323 57.4104 49.3227 58.8392C50.1151 59.9823 52.4385 60.3315 53.5012 60.3632C53.8879 61.5735 53.5428 60.765 54.4211 62.6292C55.7669 65.4859 60.5891 68.1954 63.4211 68.8292C66.253 69.463 68.2846 70.2833 70.56 65.9049C71.1602 64.7499 72.3287 63.8606 72.87 62.1511C73.1647 61.2205 74.3368 56.7755 74.6026 53.0673C74.7602 50.8681 74.0192 48.9282 74.1694 48.1342Z" fill="url(#paint4_linear_597_10532)"/>
<g filter="url(#filter0_f_597_10532)">
<ellipse cx="69.1509" cy="53.665" rx="2.82234" ry="4.24742" transform="rotate(-24.4392 69.1509 53.665)" fill="#E36A6F" fill-opacity="0.3"/>
</g>
<path d="M63.4477 48.7682L65.0307 50.3462C65.011 51.505 63.9027 52.9059 62.1672 52.8477C60.4318 52.7894 58.9834 51.3186 58.4761 50.5905C59.3961 49.5221 62.1738 48.9305 63.4477 48.7682Z" fill="#D9D9D9" stroke="black" stroke-width="0.288759" stroke-linecap="round"/>
<mask id="mask1_597_10532" style="mask-type:alpha" maskUnits="userSpaceOnUse" x="58" y="48" width="8" height="5">
<path d="M63.4477 48.7692L65.0307 50.3471C65.011 51.506 63.9027 52.9069 62.1672 52.8486C60.4318 52.7904 58.9834 51.3196 58.4761 50.5915C59.3961 49.523 62.1738 48.9314 63.4477 48.7692Z" fill="#D9D9D9" stroke="black" stroke-width="0.288759" stroke-linecap="round"/>
</mask>
<g mask="url(#mask1_597_10532)">
<path d="M63.6178 52.4318C62.1237 52.2818 61.4584 49.7789 61.5642 48.7254C61.6508 47.8635 63.5472 47.7638 64.6965 47.8792C65.6159 47.9716 65.8448 49.9293 65.8444 50.8967C65.5569 51.3515 65.1118 52.5819 63.6178 52.4318Z" fill="url(#paint5_radial_597_10532)"/>
</g>
<ellipse cx="62.1629" cy="49.8948" rx="0.577517" ry="0.288759" transform="rotate(5.73654 62.1629 49.8948)" fill="white"/>
<path d="M72.7746 52.587C74.1278 52.1025 74.1588 50.7271 74.3166 49.9165C72.4152 48.5538 70.5808 49.0051 69.5993 50.8543C70.0022 51.9397 71.4215 53.0715 72.7746 52.587Z" fill="#D9D9D9" stroke="black" stroke-width="0.288759" stroke-linecap="round"/>
<mask id="mask2_597_10532" style="mask-type:alpha" maskUnits="userSpaceOnUse" x="69" y="49" width="6" height="5">
<path d="M69.7768 49.4333L69.2529 50.3036C69.6558 51.389 70.8 53.4387 72.1532 52.9542C73.5063 52.4698 74.1603 50.7274 74.3181 49.9168C73.2334 49.1394 70.8386 49.2705 69.7768 49.4333Z" fill="#D9D9D9" stroke="black" stroke-width="0.288759" stroke-linecap="round"/>
</mask>
<g mask="url(#mask2_597_10532)">
<path d="M74.8569 52.4613C75.9884 51.9501 75.3996 49.8925 74.9638 48.9276C74.6071 48.1382 73.0739 48.5139 72.2035 48.9071C71.5071 49.2216 71.5936 51.128 72.3041 52.0301C73.0147 52.9322 73.7254 52.9724 74.8569 52.4613Z" fill="url(#paint6_radial_597_10532)"/>
</g>
<path d="M64.9046 46.3545L66.3208 45.4683L61.8775 44.9303L59.0595 45.3823L56.2271 47.1547C56.9753 46.9809 58.6501 46.602 59.3633 46.4768C60.0765 46.3516 63.3547 46.3431 64.9046 46.3545Z" fill="#101010"/>
<path d="M70.4314 46.4347L69.7432 45.5052L72.4617 45.8344L74.0522 46.6616L74.356 47.6636C73.3668 47.0374 71.5962 46.7546 70.4314 46.4347Z" fill="#101010"/>
<path d="M57.2202 46.43C59.8745 43.7264 65.1207 35.725 66.0021 33.6502C68.7043 34.5592 70.4114 34.9498 68.3295 30.0439C65.7271 23.9114 50.3148 30.09 45.6201 34.03C41.8644 37.182 45.5513 45.9982 47.9869 49.1048L52.4118 55.6187C52.7747 57.7499 53.1459 59.4717 53.7112 59.5169C54.8685 59.6095 54 56.485 54.5775 55.0412C55.2929 53.2527 53.9023 49.8095 57.2202 46.43Z" fill="url(#paint7_linear_597_10532)"/>
<path d="M70.1301 61.2855C67.5788 61.4529 64.2091 61.2125 62.624 60.9963C63.2424 62.0538 65.482 62.7045 67.5471 62.7977C69.1992 62.8723 69.9372 61.832 70.1301 61.2855Z" fill="#E79795"/>
<path d="M70.2733 61.2858C68.125 61.32 64.2097 61.5742 62.6224 60.9969" stroke="black" stroke-width="0.288759" stroke-linecap="round"/>
<path d="M33.7904 85.6858C34.1369 84.7617 43.6082 78.1901 50.2496 75.6875L57.7573 84.348C59.3455 85.7437 64.2544 90.1232 66.8532 88.9681C68.1242 88.4033 70.0777 80.4498 71.1846 78.8616C74.6016 80.161 79.5586 83.8666 82.4462 84.6751C85.3338 85.4836 88.2492 96.9955 88.2492 100.557H31.7969C31.7969 97.5249 33.4439 86.6098 33.7904 85.6858Z" fill="url(#paint8_linear_597_10532)"/>
<path d="M72.3523 36.4939C72.5606 34.7739 70.7333 33.0498 69.7936 32.4028C71.4352 30.8564 72.7515 33.1973 74.172 34.6782C74.7736 35.3055 75.62 42.2485 76.1934 46.8097C76.7028 50.8628 79.2263 51.2464 78.4873 51.8868C78.7077 51.596 75.7766 51.8868 74.6248 47.6305C73.6663 44.0883 72.2577 37.2752 72.3523 36.4939Z" fill="#140610"/>
<path d="M67.4225 33.8296C67.6307 32.1096 67.1622 30.8766 66.2225 30.2296C67.8641 28.6832 69.3345 30.3788 70.755 31.8597C71.3567 32.487 69.4113 38.8836 69.9846 43.4448C70.4941 47.4979 74.2536 47.9132 73.5146 48.5536C73.735 48.2628 69.9743 48.2859 68.8225 44.0296C67.8639 40.4875 67.3279 34.6108 67.4225 33.8296Z" fill="url(#paint9_linear_597_10532)"/>
<path d="M70.1785 33.7962C69.0138 32.2285 68.1987 30.88 67.2513 30.2967C68.8676 28.9589 74.2033 31.0002 75.6427 32.3246C76.2524 32.8857 75.7284 37.5365 75.2188 41.5958C73.4294 46.6943 77.6726 49.5828 76.9441 50.136C77.16 49.8831 71.781 47.5415 70.5697 43.7773C69.5615 40.6448 70.6151 34.384 70.1785 33.7962Z" fill="url(#paint10_linear_597_10532)"/>
<path d="M49.9202 52.3924C50.021 52.521 50.6371 54.079 50.9325 54.842C51.1549 55.4113 50.6672 55.8278 50.3806 55.7931C50.0939 55.7584 49.8812 56.3144 49.9724 56.7617C50.0637 57.2091 50.3722 58.2645 49.7642 58.4817C49.1561 58.699 46.8151 55.2159 46.4545 54.5905C46.0939 53.9651 46.3022 52.2452 46.693 51.4199C47.0838 50.5946 47.6224 50.9507 48.2305 50.7335C48.8385 50.5162 49.7943 52.2317 49.9202 52.3924Z" fill="#D36266"/>
<path d="M50.7291 54.0914C50.2888 52.9231 49.1434 50.6126 48.0836 50.717C47.0238 50.8213 46.6055 51.3135 46.5288 51.5465" stroke="#793033" stroke-width="0.288759" stroke-linecap="round"/>
<ellipse cx="72.267" cy="49.9366" rx="0.410123" ry="0.288759" transform="rotate(6.9042 72.267 49.9366)" fill="white"/>
<path d="M67.6758 36.8332C66.5528 31.6943 67.8144 30.8071 68.7584 31.0183C67.6992 30.1632 66.666 29.9285 65.7584 31.4184C64.8508 32.9082 66.5926 37.9542 66.756 39.6302C67.1789 43.9663 63.4257 46.8191 60.8251 48.9848C64.7252 47.9741 69.0795 43.2568 67.6758 36.8332Z" fill="#2E0822"/>
<path d="M64.3733 37.6723C65.4215 31.5862 66.506 29.526 64.7482 29.4953C66.8999 28.9275 67.1063 28.7171 68.3047 30.3962C69.503 32.0753 66.8036 39.6006 66.0236 41.1926C65.5532 42.1526 65.9544 47.2788 67.3398 48.7705C64.4711 48.2732 63.6401 41.9291 64.3733 37.6723Z" fill="url(#paint11_linear_597_10532)"/>
<path d="M62.448 42.6868C64.2334 36.7856 64.3102 34.5249 65.5941 35.1309C64.2755 33.8396 64.2142 33.5742 62.646 34.6658C61.0778 35.7574 59.8849 43.56 59.7836 45.2861C59.7225 46.327 56.2497 49.3766 54.6246 50.2306C56.9067 50.814 61.1993 46.8142 62.448 42.6868Z" fill="url(#paint12_linear_597_10532)"/>
<path d="M69.4102 49.5908C69.4102 51.3234 70.1619 53.3875 71.4256 54.23C72.6256 55.03 72.0677 56.4971 71.6256 56.83C71.1835 57.1628 69.8256 58.23 69.8256 58.23" stroke="black" stroke-width="0.288759" stroke-linecap="round"/>
<ellipse cx="70.7542" cy="54.9357" rx="0.313784" ry="0.288759" transform="rotate(3.19743 70.7542 54.9357)" fill="#FFDCD6"/>
<path d="M69.1193 57.8201C68.8305 57.6759 68.253 57.5311 67.3867 57.8201" stroke="black" stroke-width="0.288759" stroke-linecap="round"/>
<path d="M67.1006 51.0415C66.7115 49.2728 64.3365 48.6441 59.9363 49.1867C57.6517 49.4684 57.5901 53.3476 60.5361 54.5868C63.9232 56.0115 67.9292 54.808 67.1006 51.0415ZM67.1006 51.0415C68.2489 50.1586 69.0581 50.405 69.6215 50.6304M69.6215 50.6304C70.3727 49.6914 72.5112 47.8395 74.5363 49.1868C76.6246 50.576 74.9363 53.7867 72.9363 53.7867C71.4659 53.7867 70.1792 53.5074 69.6215 50.6304Z" stroke="#28111B" stroke-width="0.56338"/>
</g>
<rect x="110.023" y="20.5566" width="270" height="113.504" rx="12" fill="#202F72"/>
<rect x="122.023" y="32.5566" width="95.6115" height="20.8705" rx="10.4352" fill="#11193C"/>
<path d="M136.031 46.9922H133.043V38.5078H136.066C138.621 38.5078 140.186 40.0957 140.18 42.7383C140.186 45.3926 138.621 46.9922 136.031 46.9922ZM134.801 45.4805H135.961C137.578 45.4805 138.422 44.6426 138.422 42.7383C138.422 40.8516 137.578 40.0195 135.973 40.0195H134.801V45.4805ZM141.117 45.2109C141.123 43.793 142.26 43.3301 143.484 43.2539C143.941 43.2246 144.797 43.1836 145.066 43.1719V42.6562C145.061 42.123 144.697 41.8184 144.047 41.8125C143.455 41.8184 143.086 42.082 142.992 42.5156H141.34C141.445 41.4141 142.406 40.5469 144.094 40.5469C145.482 40.5469 146.795 41.168 146.789 42.7031V46.9922H145.148V46.1133H145.102C144.791 46.6992 144.182 47.1152 143.238 47.1094C142.02 47.1152 141.123 46.4707 141.117 45.2109ZM142.781 45.1641C142.781 45.6504 143.174 45.9082 143.73 45.9141C144.521 45.9082 145.072 45.3926 145.066 44.7188V44.2559C144.803 44.2676 144.059 44.3086 143.766 44.332C143.162 44.3848 142.781 44.6719 142.781 45.1641ZM151.465 40.6289V41.9297H150.27V45.0352C150.264 45.5449 150.516 45.668 150.867 45.6797C151.043 45.6797 151.348 45.6621 151.559 45.6445V47.0156C151.371 47.0449 151.061 47.0801 150.633 47.0742C149.379 47.0801 148.523 46.5176 148.535 45.2812V41.9297H147.656V40.6289H148.535V39.1055H150.27V40.6289H151.465ZM152.25 45.2109C152.256 43.793 153.393 43.3301 154.617 43.2539C155.074 43.2246 155.93 43.1836 156.199 43.1719V42.6562C156.193 42.123 155.83 41.8184 155.18 41.8125C154.588 41.8184 154.219 42.082 154.125 42.5156H152.473C152.578 41.4141 153.539 40.5469 155.227 40.5469C156.615 40.5469 157.928 41.168 157.922 42.7031V46.9922H156.281V46.1133H156.234C155.924 46.6992 155.314 47.1152 154.371 47.1094C153.152 47.1152 152.256 46.4707 152.25 45.2109ZM153.914 45.1641C153.914 45.6504 154.307 45.9082 154.863 45.9141C155.654 45.9082 156.205 45.3926 156.199 44.7188V44.2559C155.936 44.2676 155.191 44.3086 154.898 44.332C154.295 44.3848 153.914 44.6719 153.914 45.1641ZM166.652 40.9336C166.582 40.2598 166.049 39.8672 165.188 39.8672C164.297 39.8672 163.799 40.2773 163.793 40.8398C163.787 41.4551 164.42 41.7305 165.152 41.8945L165.914 42.082C167.367 42.416 168.451 43.1543 168.457 44.5664C168.451 46.1191 167.244 47.1152 165.176 47.1094C163.125 47.1152 161.818 46.166 161.766 44.3438H163.477C163.535 45.1992 164.215 45.6328 165.152 45.6328C166.078 45.6328 166.676 45.1992 166.676 44.5664C166.676 43.9863 166.148 43.7168 165.223 43.4883L164.297 43.2656C162.867 42.9141 161.988 42.1992 161.988 40.957C161.982 39.416 163.342 38.3906 165.199 38.3906C167.08 38.3906 168.316 39.4336 168.34 40.9336H166.652ZM172.43 47.1211C170.479 47.1152 169.307 45.7676 169.312 43.8281C169.307 41.8828 170.502 40.5469 172.43 40.5469C174.07 40.5469 175.184 41.502 175.254 42.9609H173.625C173.52 42.334 173.109 41.9004 172.453 41.8945C171.621 41.9004 171.07 42.5977 171.07 43.8047C171.07 45.0352 171.609 45.7383 172.453 45.7383C173.062 45.7383 173.514 45.3574 173.625 44.6836H175.254C175.178 46.125 174.117 47.1152 172.43 47.1211ZM176.332 46.9922V40.6289H178.066V46.9922H176.332ZM176.25 38.918C176.25 38.4258 176.678 38.0332 177.199 38.0273C177.715 38.0332 178.143 38.4258 178.137 38.918C178.143 39.3984 177.715 39.7969 177.199 39.7969C176.678 39.7969 176.25 39.3984 176.25 38.918ZM182.297 47.1211C180.346 47.1152 179.15 45.8555 179.156 43.8398C179.15 41.877 180.363 40.5469 182.227 40.5469C183.896 40.5469 185.215 41.6016 185.215 43.7695V44.2617H180.867C180.867 45.2227 181.436 45.8145 182.332 45.8203C182.924 45.8145 183.346 45.5566 183.516 45.1758H185.168C184.922 46.3535 183.867 47.1152 182.297 47.1211ZM180.867 43.1719H183.574C183.568 42.3984 183.035 41.8418 182.262 41.8477C181.465 41.8418 180.902 42.4395 180.867 43.1719ZM188.039 43.3125V46.9922H186.305V40.6289H187.957V41.7422H188.027C188.314 41.0098 188.994 40.5469 189.938 40.5469C191.268 40.5469 192.135 41.4551 192.129 42.9375V46.9922H190.406V43.2422C190.4 42.457 189.979 41.9883 189.258 41.9883C188.537 41.9883 188.039 42.4746 188.039 43.3125ZM196.828 40.6289V41.9297H195.633V45.0352C195.627 45.5449 195.879 45.668 196.23 45.6797C196.406 45.6797 196.711 45.6621 196.922 45.6445V47.0156C196.734 47.0449 196.424 47.0801 195.996 47.0742C194.742 47.0801 193.887 46.5176 193.898 45.2812V41.9297H193.02V40.6289H193.898V39.1055H195.633V40.6289H196.828ZM197.918 46.9922V40.6289H199.652V46.9922H197.918ZM197.836 38.918C197.836 38.4258 198.264 38.0332 198.785 38.0273C199.301 38.0332 199.729 38.4258 199.723 38.918C199.729 39.3984 199.301 39.7969 198.785 39.7969C198.264 39.7969 197.836 39.3984 197.836 38.918ZM204.633 42.5156C204.557 42.0703 204.17 41.7832 203.59 41.7773C203.027 41.7832 202.6 42.0469 202.605 42.4336C202.6 42.7207 202.822 42.9434 203.426 43.0664L204.562 43.3008C205.799 43.5586 206.396 44.1094 206.402 45.0234C206.396 46.2773 205.271 47.1152 203.578 47.1211C201.861 47.1152 200.854 46.3477 200.707 45.1055H202.453C202.535 45.6035 202.939 45.8613 203.578 45.8672C204.211 45.8613 204.633 45.6094 204.633 45.1992C204.633 44.8711 204.363 44.666 203.766 44.543L202.711 44.332C201.498 44.0918 200.877 43.4707 200.883 42.5273C200.877 41.3086 201.926 40.5469 203.566 40.5469C205.172 40.5469 206.168 41.3086 206.262 42.5156H204.633Z" fill="#ECECF8"/>
<path d="M123.453 79.2441V62.2754H126.969V69.7988H127.203L133.367 62.2754H137.609L131.281 69.8691L137.68 79.2441H133.461L128.75 72.2363L126.969 74.3926V79.2441H123.453ZM138.688 75.6816C138.699 72.8457 140.973 71.9199 143.422 71.7676C144.336 71.709 146.047 71.627 146.586 71.6035V70.5723C146.574 69.5059 145.848 68.8965 144.547 68.8848C143.363 68.8965 142.625 69.4238 142.438 70.291H139.133C139.344 68.0879 141.266 66.3535 144.641 66.3535C147.418 66.3535 150.043 67.5957 150.031 70.666V79.2441H146.75V77.4863H146.656C146.035 78.6582 144.816 79.4902 142.93 79.4785C140.492 79.4902 138.699 78.2012 138.688 75.6816ZM142.016 75.5879C142.016 76.5605 142.801 77.0762 143.914 77.0879C145.496 77.0762 146.598 76.0449 146.586 74.6973V73.7715C146.059 73.7949 144.57 73.877 143.984 73.9238C142.777 74.0293 142.016 74.6035 142.016 75.5879ZM156.148 71.8848V79.2441H152.68V66.5176H155.984V68.7441H156.125C156.699 67.2793 158.059 66.3535 159.945 66.3535C162.605 66.3535 164.34 68.1699 164.328 71.1348V79.2441H160.883V71.7441C160.871 70.1738 160.027 69.2363 158.586 69.2363C157.145 69.2363 156.148 70.209 156.148 71.8848ZM172.742 84.2832C169.227 84.2832 167.059 82.7012 166.859 80.2988H170.281C170.469 81.3184 171.43 81.7754 172.812 81.7754C174.418 81.7754 175.496 81.084 175.508 79.3145V76.9941H175.344C174.887 78.0254 173.762 79.0684 171.711 79.0566C168.84 79.0684 166.531 77.041 166.531 72.7988C166.531 68.498 168.898 66.3535 171.711 66.3535C173.844 66.3535 174.875 67.6191 175.344 68.6504H175.484V66.5176H178.93V79.3848C178.918 82.6309 176.363 84.2832 172.742 84.2832ZM170.094 72.8457C170.082 75.0488 171.031 76.4434 172.789 76.4551C174.523 76.4434 175.508 75.1074 175.508 72.8457C175.508 70.584 174.535 69.1191 172.789 69.1191C171.02 69.1191 170.082 70.6543 170.094 72.8457ZM189.523 70.877V73.6426H181.789V70.877H189.523ZM192.406 79.2441V66.5176H195.875V79.2441H192.406ZM192.242 63.0957C192.242 62.1113 193.098 61.3262 194.141 61.3145C195.172 61.3262 196.027 62.1113 196.016 63.0957C196.027 64.0566 195.172 64.8535 194.141 64.8535C193.098 64.8535 192.242 64.0566 192.242 63.0957ZM202.039 62.2754V79.2441H198.57V62.2754H202.039ZM210.336 79.2441V62.2754H213.852V69.7988H214.086L220.25 62.2754H224.492L218.164 69.8691L224.562 79.2441H220.344L215.633 72.2363L213.852 74.3926V79.2441H210.336ZM226.977 79.2441V66.5176H230.445V79.2441H226.977ZM226.812 63.0957C226.812 62.1113 227.668 61.3262 228.711 61.3145C229.742 61.3262 230.598 62.1113 230.586 63.0957C230.598 64.0566 229.742 64.8535 228.711 64.8535C227.668 64.8535 226.812 64.0566 226.812 63.0957ZM233.141 79.2441V66.5176H236.445V68.7441H236.586C237.125 67.2559 238.414 66.3535 240.125 66.3535C241.871 66.3535 243.172 67.2793 243.594 68.7441H243.711C244.238 67.3027 245.691 66.3535 247.555 66.3535C249.91 66.3535 251.562 67.9121 251.562 70.6895V79.2441H248.094V71.3691C248.105 69.916 247.238 69.2129 246.102 69.2129C244.801 69.2129 244.027 70.1152 244.039 71.4629V79.2441H240.664V71.2754C240.676 70.0215 239.879 69.2129 238.695 69.2129C237.512 69.2129 236.598 70.1621 236.609 71.6035V79.2441H233.141Z" fill="#ECECF8"/>
<path d="M124.539 91.1621V101.061H123.035V91.1621H124.539ZM131.443 101.061L129.27 93.6367H130.773L132.223 99.0781H132.305L133.754 93.6367H135.258L136.693 99.0508H136.775L138.211 93.6367H139.715L137.541 101.061H136.051L134.547 95.7148H134.438L132.947 101.061H131.443ZM140.576 98.9688C140.569 97.2734 142.012 96.8359 143.352 96.7402C143.844 96.7129 144.958 96.6514 145.3 96.6377L145.293 96.043C145.3 95.2021 144.78 94.7168 143.789 94.7168C142.928 94.7168 142.408 95.1133 142.258 95.6602H140.809C140.938 94.4297 142.087 93.541 143.844 93.541C145.026 93.541 146.749 93.9717 146.756 96.125V101.061H145.334V100.049H145.279C144.992 100.603 144.309 101.225 143.078 101.225C141.67 101.225 140.569 100.418 140.576 98.9688ZM141.998 98.9824C141.998 99.6934 142.586 100.056 143.406 100.062C144.596 100.056 145.307 99.2627 145.307 98.3809L145.3 97.7041C144.965 97.7246 143.905 97.7998 143.557 97.8203C142.6 97.8887 141.998 98.251 141.998 98.9824ZM149.982 96.6582V101.061H148.52V93.6367H149.928V94.8535H150.01C150.358 94.0537 151.09 93.541 152.197 93.541C153.722 93.541 154.733 94.5049 154.727 96.3438V101.061H153.277V96.5215C153.271 95.4414 152.689 94.7988 151.705 94.7988C150.7 94.7988 149.982 95.4756 149.982 96.6582ZM159.977 93.6367V94.7988H158.459V98.873C158.466 99.7139 158.876 99.8643 159.348 99.8711C159.56 99.8711 159.881 99.8506 160.086 99.8301V101.102C159.888 101.129 159.573 101.156 159.17 101.156C158.028 101.156 156.996 100.527 157.01 99.1738V94.7988H155.916V93.6367H157.01V91.8594H158.459V93.6367H159.977ZM168.289 93.6367V94.7988H166.771V98.873C166.778 99.7139 167.188 99.8643 167.66 99.8711C167.872 99.8711 168.193 99.8506 168.398 99.8301V101.102C168.2 101.129 167.886 101.156 167.482 101.156C166.341 101.156 165.309 100.527 165.322 99.1738V94.7988H164.229V93.6367H165.322V91.8594H166.771V93.6367H168.289ZM172.773 101.211C170.668 101.211 169.294 99.6797 169.301 97.3828C169.294 95.0723 170.668 93.541 172.773 93.541C174.865 93.541 176.232 95.0723 176.232 97.3828C176.232 99.6797 174.865 101.211 172.773 101.211ZM170.764 97.3828C170.764 98.7979 171.413 99.9941 172.773 99.9941C174.113 99.9941 174.756 98.7979 174.756 97.3828C174.756 95.9609 174.113 94.751 172.773 94.7441C171.413 94.751 170.764 95.9609 170.764 97.3828ZM185.803 97.9707V93.6367H187.252V101.061H185.83V99.7754H185.748C185.406 100.568 184.647 101.156 183.533 101.156C182.098 101.156 181.086 100.192 181.086 98.3535V93.6367H182.549V98.1758C182.549 99.1875 183.164 99.8301 184.053 99.8301C184.866 99.8301 185.803 99.2354 185.803 97.9707ZM193.199 95.6602C193.062 95.0723 192.598 94.6895 191.791 94.6895C190.957 94.6895 190.362 95.1201 190.369 95.6875C190.362 96.125 190.711 96.4395 191.531 96.6309L192.707 96.9043C194.074 97.2119 194.737 97.8613 194.744 98.9141C194.737 100.254 193.603 101.211 191.709 101.211C189.925 101.211 188.872 100.418 188.688 99.0371H190.178C190.308 99.707 190.813 100.042 191.695 100.035C192.639 100.042 193.247 99.6455 193.254 99.0234C193.247 98.5449 192.892 98.2373 192.105 98.0527L190.943 97.8066C189.604 97.5127 188.906 96.7949 188.906 95.7695C188.906 94.4502 190.055 93.541 191.777 93.541C193.432 93.541 194.464 94.3818 194.607 95.6602H193.199ZM199.365 101.211C197.178 101.211 195.831 99.7002 195.838 97.3965C195.831 95.1133 197.198 93.541 199.27 93.541C200.958 93.541 202.564 94.5869 202.564 97.2734V97.793H197.287C197.328 99.208 198.162 100.008 199.379 100.008C200.206 100.008 200.746 99.6523 200.992 99.2012H202.469C202.141 100.404 200.999 101.211 199.365 101.211ZM197.294 96.6992H201.129C201.129 95.5713 200.397 94.7373 199.283 94.7441C198.114 94.7373 197.355 95.6533 197.294 96.6992ZM207.432 101.061V93.6367H208.895V101.061H207.432ZM207.24 91.627C207.247 91.1484 207.664 90.7656 208.17 90.7656C208.669 90.7656 209.086 91.1484 209.086 91.627C209.086 92.1055 208.669 92.4951 208.17 92.4883C207.664 92.4951 207.247 92.1055 207.24 91.627ZM214.145 93.6367V94.7988H212.627V98.873C212.634 99.7139 213.044 99.8643 213.516 99.8711C213.728 99.8711 214.049 99.8506 214.254 99.8301V101.102C214.056 101.129 213.741 101.156 213.338 101.156C212.196 101.156 211.164 100.527 211.178 99.1738V94.7988H210.084V93.6367H211.178V91.8594H212.627V93.6367H214.145ZM222.457 93.6367V94.7988H220.939V98.873C220.946 99.7139 221.356 99.8643 221.828 99.8711C222.04 99.8711 222.361 99.8506 222.566 99.8301V101.102C222.368 101.129 222.054 101.156 221.65 101.156C220.509 101.156 219.477 100.527 219.49 99.1738V94.7988H218.396V93.6367H219.49V91.8594H220.939V93.6367H222.457ZM226.941 101.211C224.836 101.211 223.462 99.6797 223.469 97.3828C223.462 95.0723 224.836 93.541 226.941 93.541C229.033 93.541 230.4 95.0723 230.4 97.3828C230.4 99.6797 229.033 101.211 226.941 101.211ZM224.932 97.3828C224.932 98.7979 225.581 99.9941 226.941 99.9941C228.281 99.9941 228.924 98.7979 228.924 97.3828C228.924 95.9609 228.281 94.751 226.941 94.7441C225.581 94.751 224.932 95.9609 224.932 97.3828ZM238.029 101.211C236.238 101.204 234.926 99.7617 234.926 97.3691C234.926 94.9492 236.259 93.541 238.043 93.541C239.424 93.541 239.923 94.375 240.189 94.8398H240.258V91.1621H241.721V101.061H240.299V99.8984H240.189C239.916 100.384 239.383 101.204 238.029 101.211ZM236.416 97.3418C236.409 98.832 237.079 99.96 238.357 99.9668C239.602 99.96 240.299 98.9004 240.299 97.3418C240.299 95.7969 239.615 94.7783 238.357 94.7852C237.065 94.7783 236.409 95.8789 236.416 97.3418ZM246.82 101.211C244.633 101.211 243.286 99.7002 243.293 97.3965C243.286 95.1133 244.653 93.541 246.725 93.541C248.413 93.541 250.02 94.5869 250.02 97.2734V97.793H244.742C244.783 99.208 245.617 100.008 246.834 100.008C247.661 100.008 248.201 99.6523 248.447 99.2012H249.924C249.596 100.404 248.454 101.211 246.82 101.211ZM244.749 96.6992H248.584C248.584 95.5713 247.853 94.7373 246.738 94.7441C245.569 94.7373 244.811 95.6533 244.749 96.6992ZM257.607 93.6367L254.914 101.061H253.342L250.648 93.6367H252.221L254.094 99.3379H254.162L256.035 93.6367H257.607ZM261.736 101.211C259.549 101.211 258.202 99.7002 258.209 97.3965C258.202 95.1133 259.569 93.541 261.641 93.541C263.329 93.541 264.936 94.5869 264.936 97.2734V97.793H259.658C259.699 99.208 260.533 100.008 261.75 100.008C262.577 100.008 263.117 99.6523 263.363 99.2012H264.84C264.512 100.404 263.37 101.211 261.736 101.211ZM259.665 96.6992H263.5C263.5 95.5713 262.769 94.7373 261.654 94.7441C260.485 94.7373 259.727 95.6533 259.665 96.6992ZM267.848 91.1621V101.061H266.385V91.1621H267.848ZM272.77 101.211C270.664 101.211 269.29 99.6797 269.297 97.3828C269.29 95.0723 270.664 93.541 272.77 93.541C274.861 93.541 276.229 95.0723 276.229 97.3828C276.229 99.6797 274.861 101.211 272.77 101.211ZM270.76 97.3828C270.76 98.7979 271.409 99.9941 272.77 99.9941C274.109 99.9941 274.752 98.7979 274.752 97.3828C274.752 95.9609 274.109 94.751 272.77 94.7441C271.409 94.751 270.76 95.9609 270.76 97.3828ZM277.664 103.85V93.6367H279.086V94.8398H279.209C279.469 94.375 279.968 93.541 281.342 93.541C283.14 93.541 284.459 94.9492 284.459 97.3691C284.459 99.7617 283.153 101.204 281.355 101.211C280.009 101.204 279.476 100.384 279.209 99.8984H279.127V103.85H277.664ZM279.1 97.3418C279.1 98.9004 279.783 99.96 281.027 99.9668C282.312 99.96 282.982 98.832 282.982 97.3418C282.982 95.8789 282.333 94.7783 281.027 94.7852C279.77 94.7783 279.1 95.7969 279.1 97.3418ZM289.326 101.061V93.6367H290.734V94.8535H290.816C291.131 94.0264 291.862 93.541 292.84 93.541C293.831 93.541 294.521 94.0264 294.836 94.8535H294.918C295.267 94.0537 296.073 93.541 297.146 93.541C298.486 93.541 299.437 94.3818 299.443 96.084V101.061H297.98V96.2207C297.98 95.2158 297.352 94.7988 296.586 94.7988C295.649 94.7988 295.109 95.4414 295.109 96.3301V101.061H293.66V96.1387C293.66 95.3252 293.106 94.7988 292.307 94.7988C291.486 94.7988 290.789 95.4824 290.789 96.4805V101.061H289.326ZM304.352 101.211C302.246 101.211 300.872 99.6797 300.879 97.3828C300.872 95.0723 302.246 93.541 304.352 93.541C306.443 93.541 307.811 95.0723 307.811 97.3828C307.811 99.6797 306.443 101.211 304.352 101.211ZM302.342 97.3828C302.342 98.7979 302.991 99.9941 304.352 99.9941C305.691 99.9941 306.334 98.7979 306.334 97.3828C306.334 95.9609 305.691 94.751 304.352 94.7441C302.991 94.751 302.342 95.9609 302.342 97.3828ZM312.021 101.211C310.23 101.204 308.918 99.7617 308.918 97.3691C308.918 94.9492 310.251 93.541 312.035 93.541C313.416 93.541 313.915 94.375 314.182 94.8398H314.25V91.1621H315.713V101.061H314.291V99.8984H314.182C313.908 100.384 313.375 101.204 312.021 101.211ZM310.408 97.3418C310.401 98.832 311.071 99.96 312.35 99.9668C313.594 99.96 314.291 98.9004 314.291 97.3418C314.291 95.7969 313.607 94.7783 312.35 94.7852C311.058 94.7783 310.401 95.8789 310.408 97.3418ZM320.812 101.211C318.625 101.211 317.278 99.7002 317.285 97.3965C317.278 95.1133 318.646 93.541 320.717 93.541C322.405 93.541 324.012 94.5869 324.012 97.2734V97.793H318.734C318.775 99.208 319.609 100.008 320.826 100.008C321.653 100.008 322.193 99.6523 322.439 99.2012H323.916C323.588 100.404 322.446 101.211 320.812 101.211ZM318.741 96.6992H322.576C322.576 95.5713 321.845 94.7373 320.73 94.7441C319.562 94.7373 318.803 95.6533 318.741 96.6992ZM326.924 91.1621V101.061H325.461V91.1621H326.924ZM333.09 101.061H331.49L335.045 91.1621H336.781L340.35 101.061H338.75L337.848 98.4492H333.992L333.09 101.061ZM334.423 97.1914H337.41L335.947 92.9668H335.879L334.423 97.1914ZM341.607 101.061V91.1621H345.135C347.438 91.1621 348.566 92.543 348.566 94.375C348.566 96.2002 347.432 97.5879 345.135 97.5879H343.111V101.061H341.607ZM343.111 96.3027H344.984C346.44 96.3096 347.049 95.4893 347.049 94.375C347.049 93.2539 346.44 92.4541 344.984 92.4473H343.111V96.3027ZM351.656 91.1621V101.061H350.152V91.1621H351.656ZM122.57 115.969C122.563 114.273 124.006 113.836 125.346 113.74C125.838 113.713 126.952 113.651 127.294 113.638L127.287 113.043C127.294 112.202 126.774 111.717 125.783 111.717C124.922 111.717 124.402 112.113 124.252 112.66H122.803C122.933 111.43 124.081 110.541 125.838 110.541C127.021 110.541 128.743 110.972 128.75 113.125V118.061H127.328V117.049H127.273C126.986 117.603 126.303 118.225 125.072 118.225C123.664 118.225 122.563 117.418 122.57 115.969ZM123.992 115.982C123.992 116.693 124.58 117.056 125.4 117.062C126.59 117.056 127.301 116.263 127.301 115.381L127.294 114.704C126.959 114.725 125.899 114.8 125.551 114.82C124.594 114.889 123.992 115.251 123.992 115.982ZM130.514 120.85V110.637H131.936V111.84H132.059C132.318 111.375 132.817 110.541 134.191 110.541C135.989 110.541 137.309 111.949 137.309 114.369C137.309 116.762 136.003 118.204 134.205 118.211C132.858 118.204 132.325 117.384 132.059 116.898H131.977V120.85H130.514ZM131.949 114.342C131.949 115.9 132.633 116.96 133.877 116.967C135.162 116.96 135.832 115.832 135.832 114.342C135.832 112.879 135.183 111.778 133.877 111.785C132.619 111.778 131.949 112.797 131.949 114.342ZM138.758 120.85V110.637H140.18V111.84H140.303C140.562 111.375 141.062 110.541 142.436 110.541C144.233 110.541 145.553 111.949 145.553 114.369C145.553 116.762 144.247 118.204 142.449 118.211C141.103 118.204 140.569 117.384 140.303 116.898H140.221V120.85H138.758ZM140.193 114.342C140.193 115.9 140.877 116.96 142.121 116.967C143.406 116.96 144.076 115.832 144.076 114.342C144.076 112.879 143.427 111.778 142.121 111.785C140.863 111.778 140.193 112.797 140.193 114.342ZM148.465 108.162V118.061H147.002V108.162H148.465ZM150.242 118.061V110.637H151.705V118.061H150.242ZM150.051 108.627C150.058 108.148 150.475 107.766 150.98 107.766C151.479 107.766 151.896 108.148 151.896 108.627C151.896 109.105 151.479 109.495 150.98 109.488C150.475 109.495 150.058 109.105 150.051 108.627ZM156.627 118.211C154.46 118.211 153.147 116.618 153.154 114.383C153.147 112.12 154.508 110.541 156.6 110.541C158.295 110.541 159.519 111.539 159.676 113.043H158.254C158.104 112.346 157.55 111.765 156.627 111.758C155.424 111.765 154.617 112.763 154.617 114.342C154.617 115.969 155.403 116.974 156.627 116.967C157.454 116.974 158.069 116.509 158.254 115.709H159.676C159.519 117.151 158.377 118.211 156.627 118.211ZM160.715 115.969C160.708 114.273 162.15 113.836 163.49 113.74C163.982 113.713 165.097 113.651 165.438 113.638L165.432 113.043C165.438 112.202 164.919 111.717 163.928 111.717C163.066 111.717 162.547 112.113 162.396 112.66H160.947C161.077 111.43 162.226 110.541 163.982 110.541C165.165 110.541 166.888 110.972 166.895 113.125V118.061H165.473V117.049H165.418C165.131 117.603 164.447 118.225 163.217 118.225C161.809 118.225 160.708 117.418 160.715 115.969ZM162.137 115.982C162.137 116.693 162.725 117.056 163.545 117.062C164.734 117.056 165.445 116.263 165.445 115.381L165.438 114.704C165.104 114.725 164.044 114.8 163.695 114.82C162.738 114.889 162.137 115.251 162.137 115.982ZM172.131 110.637V111.799H170.613V115.873C170.62 116.714 171.03 116.864 171.502 116.871C171.714 116.871 172.035 116.851 172.24 116.83V118.102C172.042 118.129 171.728 118.156 171.324 118.156C170.183 118.156 169.15 117.527 169.164 116.174V111.799H168.07V110.637H169.164V108.859H170.613V110.637H172.131ZM173.553 118.061V110.637H175.016V118.061H173.553ZM173.361 108.627C173.368 108.148 173.785 107.766 174.291 107.766C174.79 107.766 175.207 108.148 175.207 108.627C175.207 109.105 174.79 109.495 174.291 109.488C173.785 109.495 173.368 109.105 173.361 108.627ZM179.938 118.211C177.832 118.211 176.458 116.68 176.465 114.383C176.458 112.072 177.832 110.541 179.938 110.541C182.029 110.541 183.396 112.072 183.396 114.383C183.396 116.68 182.029 118.211 179.938 118.211ZM177.928 114.383C177.928 115.798 178.577 116.994 179.938 116.994C181.277 116.994 181.92 115.798 181.92 114.383C181.92 112.961 181.277 111.751 179.938 111.744C178.577 111.751 177.928 112.961 177.928 114.383ZM186.295 113.658V118.061H184.832V110.637H186.24V111.854H186.322C186.671 111.054 187.402 110.541 188.51 110.541C190.034 110.541 191.046 111.505 191.039 113.344V118.061H189.59V113.521C189.583 112.441 189.002 111.799 188.018 111.799C187.013 111.799 186.295 112.476 186.295 113.658ZM196.986 112.66C196.85 112.072 196.385 111.689 195.578 111.689C194.744 111.689 194.149 112.12 194.156 112.688C194.149 113.125 194.498 113.439 195.318 113.631L196.494 113.904C197.861 114.212 198.524 114.861 198.531 115.914C198.524 117.254 197.39 118.211 195.496 118.211C193.712 118.211 192.659 117.418 192.475 116.037H193.965C194.095 116.707 194.601 117.042 195.482 117.035C196.426 117.042 197.034 116.646 197.041 116.023C197.034 115.545 196.679 115.237 195.893 115.053L194.73 114.807C193.391 114.513 192.693 113.795 192.693 112.77C192.693 111.45 193.842 110.541 195.564 110.541C197.219 110.541 198.251 111.382 198.395 112.66H196.986ZM206.516 118.211C204.349 118.211 203.036 116.618 203.043 114.383C203.036 112.12 204.396 110.541 206.488 110.541C208.184 110.541 209.407 111.539 209.564 113.043H208.143C207.992 112.346 207.438 111.765 206.516 111.758C205.312 111.765 204.506 112.763 204.506 114.342C204.506 115.969 205.292 116.974 206.516 116.967C207.343 116.974 207.958 116.509 208.143 115.709H209.564C209.407 117.151 208.266 118.211 206.516 118.211ZM210.945 118.061V110.637H212.354V111.812H212.436C212.709 111.02 213.454 110.521 214.322 110.527C214.5 110.521 214.787 110.541 214.938 110.555V111.949C214.814 111.922 214.473 111.86 214.172 111.867C213.16 111.86 212.408 112.564 212.408 113.535V118.061H210.945ZM218.984 118.211C216.797 118.211 215.45 116.7 215.457 114.396C215.45 112.113 216.817 110.541 218.889 110.541C220.577 110.541 222.184 111.587 222.184 114.273V114.793H216.906C216.947 116.208 217.781 117.008 218.998 117.008C219.825 117.008 220.365 116.652 220.611 116.201H222.088C221.76 117.404 220.618 118.211 218.984 118.211ZM216.913 113.699H220.748C220.748 112.571 220.017 111.737 218.902 111.744C217.733 111.737 216.975 112.653 216.913 113.699ZM223.291 115.969C223.284 114.273 224.727 113.836 226.066 113.74C226.559 113.713 227.673 113.651 228.015 113.638L228.008 113.043C228.015 112.202 227.495 111.717 226.504 111.717C225.643 111.717 225.123 112.113 224.973 112.66H223.523C223.653 111.43 224.802 110.541 226.559 110.541C227.741 110.541 229.464 110.972 229.471 113.125V118.061H228.049V117.049H227.994C227.707 117.603 227.023 118.225 225.793 118.225C224.385 118.225 223.284 117.418 223.291 115.969ZM224.713 115.982C224.713 116.693 225.301 117.056 226.121 117.062C227.311 117.056 228.021 116.263 228.021 115.381L228.015 114.704C227.68 114.725 226.62 114.8 226.271 114.82C225.314 114.889 224.713 115.251 224.713 115.982ZM234.707 110.637V111.799H233.189V115.873C233.196 116.714 233.606 116.864 234.078 116.871C234.29 116.871 234.611 116.851 234.816 116.83V118.102C234.618 118.129 234.304 118.156 233.9 118.156C232.759 118.156 231.727 117.527 231.74 116.174V111.799H230.646V110.637H231.74V108.859H233.189V110.637H234.707ZM239.246 118.211C237.059 118.211 235.712 116.7 235.719 114.396C235.712 112.113 237.079 110.541 239.15 110.541C240.839 110.541 242.445 111.587 242.445 114.273V114.793H237.168C237.209 116.208 238.043 117.008 239.26 117.008C240.087 117.008 240.627 116.652 240.873 116.201H242.35C242.021 117.404 240.88 118.211 239.246 118.211ZM237.175 113.699H241.01C241.01 112.571 240.278 111.737 239.164 111.744C237.995 111.737 237.236 112.653 237.175 113.699ZM246.67 118.211C244.879 118.204 243.566 116.762 243.566 114.369C243.566 111.949 244.899 110.541 246.684 110.541C248.064 110.541 248.563 111.375 248.83 111.84H248.898V108.162H250.361V118.061H248.939V116.898H248.83C248.557 117.384 248.023 118.204 246.67 118.211ZM245.057 114.342C245.05 115.832 245.72 116.96 246.998 116.967C248.242 116.96 248.939 115.9 248.939 114.342C248.939 112.797 248.256 111.778 246.998 111.785C245.706 111.778 245.05 112.879 245.057 114.342ZM259.152 110.637V111.799H257.635V115.873C257.642 116.714 258.052 116.864 258.523 116.871C258.735 116.871 259.057 116.851 259.262 116.83V118.102C259.063 118.129 258.749 118.156 258.346 118.156C257.204 118.156 256.172 117.527 256.186 116.174V111.799H255.092V110.637H256.186V108.859H257.635V110.637H259.152ZM262.201 113.658V118.061H260.738V108.162H262.174V111.854H262.27C262.618 111.047 263.315 110.541 264.471 110.541C265.995 110.541 267.014 111.484 267.014 113.344V118.061H265.551V113.521C265.551 112.428 264.963 111.799 263.979 111.799C262.946 111.799 262.201 112.476 262.201 113.658ZM268.777 118.061V110.637H270.186V111.812H270.268C270.541 111.02 271.286 110.521 272.154 110.527C272.332 110.521 272.619 110.541 272.77 110.555V111.949C272.646 111.922 272.305 111.86 272.004 111.867C270.992 111.86 270.24 112.564 270.24 113.535V118.061H268.777ZM276.762 118.211C274.656 118.211 273.282 116.68 273.289 114.383C273.282 112.072 274.656 110.541 276.762 110.541C278.854 110.541 280.221 112.072 280.221 114.383C280.221 116.68 278.854 118.211 276.762 118.211ZM274.752 114.383C274.752 115.798 275.401 116.994 276.762 116.994C278.102 116.994 278.744 115.798 278.744 114.383C278.744 112.961 278.102 111.751 276.762 111.744C275.401 111.751 274.752 112.961 274.752 114.383ZM286.373 114.971V110.637H287.822V118.061H286.4V116.775H286.318C285.977 117.568 285.218 118.156 284.104 118.156C282.668 118.156 281.656 117.192 281.656 115.354V110.637H283.119V115.176C283.119 116.188 283.734 116.83 284.623 116.83C285.437 116.83 286.373 116.235 286.373 114.971ZM292.717 121C290.844 121 289.606 120.173 289.477 118.785H290.967C291.11 119.489 291.767 119.831 292.73 119.824C293.893 119.831 294.624 119.325 294.631 118.17V116.707H294.535C294.275 117.186 293.742 117.951 292.375 117.951C290.625 117.951 289.271 116.646 289.271 114.273C289.271 111.901 290.604 110.541 292.389 110.541C293.77 110.541 294.275 111.375 294.549 111.84H294.645V110.637H296.066V118.225C296.073 120.132 294.631 121 292.717 121ZM290.762 114.301C290.755 115.757 291.425 116.741 292.703 116.748C293.947 116.741 294.645 115.832 294.645 114.301C294.645 112.797 293.961 111.778 292.703 111.785C291.411 111.778 290.755 112.879 290.762 114.301ZM299.307 113.658V118.061H297.844V108.162H299.279V111.854H299.375C299.724 111.047 300.421 110.541 301.576 110.541C303.101 110.541 304.119 111.484 304.119 113.344V118.061H302.656V113.521C302.656 112.428 302.068 111.799 301.084 111.799C300.052 111.799 299.307 112.476 299.307 113.658ZM309.424 118.061V108.162H312.951C315.255 108.162 316.383 109.44 316.383 111.266C316.383 112.599 315.781 113.604 314.578 114.062L316.766 118.061H315.057L313.047 114.328H312.951H310.928V118.061H309.424ZM310.928 113.029H312.801C314.257 113.022 314.865 112.38 314.865 111.266C314.865 110.151 314.257 109.454 312.801 109.447H310.928V113.029ZM322.645 114.971V110.637H324.094V118.061H322.672V116.775H322.59C322.248 117.568 321.489 118.156 320.375 118.156C318.939 118.156 317.928 117.192 317.928 115.354V110.637H319.391V115.176C319.391 116.188 320.006 116.83 320.895 116.83C321.708 116.83 322.645 116.235 322.645 114.971ZM327.334 113.658V118.061H325.871V110.637H327.279V111.854H327.361C327.71 111.054 328.441 110.541 329.549 110.541C331.073 110.541 332.085 111.505 332.078 113.344V118.061H330.629V113.521C330.622 112.441 330.041 111.799 329.057 111.799C328.052 111.799 327.334 112.476 327.334 113.658ZM335.455 118.061L333.281 110.637H334.785L336.234 116.078H336.316L337.766 110.637H339.27L340.705 116.051H340.787L342.223 110.637H343.727L341.553 118.061H340.062L338.559 112.715H338.449L336.959 118.061H335.455ZM344.588 115.969C344.581 114.273 346.023 113.836 347.363 113.74C347.855 113.713 348.97 113.651 349.312 113.638L349.305 113.043C349.312 112.202 348.792 111.717 347.801 111.717C346.939 111.717 346.42 112.113 346.27 112.66H344.82C344.95 111.43 346.099 110.541 347.855 110.541C349.038 110.541 350.761 110.972 350.768 113.125V118.061H349.346V117.049H349.291C349.004 117.603 348.32 118.225 347.09 118.225C345.682 118.225 344.581 117.418 344.588 115.969ZM346.01 115.982C346.01 116.693 346.598 117.056 347.418 117.062C348.607 117.056 349.318 116.263 349.318 115.381L349.312 114.704C348.977 114.725 347.917 114.8 347.568 114.82C346.611 114.889 346.01 115.251 346.01 115.982ZM353.16 120.85C352.859 120.843 352.565 120.836 352.381 120.809V119.592C352.545 119.605 352.832 119.612 353.037 119.619C353.488 119.612 353.864 119.585 354.213 118.648L354.391 118.156L351.67 110.637H353.229L355.102 116.393H355.184L357.057 110.637H358.629L355.566 119.045C355.136 120.221 354.384 120.843 353.16 120.85ZM360.311 118.156C359.777 118.149 359.333 117.719 359.34 117.186C359.333 116.652 359.777 116.215 360.311 116.215C360.837 116.215 361.274 116.652 361.281 117.186C361.274 117.719 360.837 118.149 360.311 118.156Z" fill="#ECECF8"/>
<g clip-path="url(#clip2_597_10532)">
<path d="M40.4746 196.857V195.162H48.582V196.857H45.5469V205.061H43.5098V196.857H40.4746ZM52.0957 205.211C49.8193 205.204 48.4248 203.734 48.4316 201.383C48.4248 199.093 49.8398 197.541 52.0137 197.541C53.9619 197.541 55.5 198.771 55.5 201.301V201.875H50.4277C50.4277 202.996 51.0908 203.687 52.1367 203.693C52.8271 203.687 53.3193 203.386 53.5176 202.941H55.4453C55.1582 204.315 53.9277 205.204 52.0957 205.211ZM50.4277 200.604H53.5859C53.5791 199.701 52.957 199.052 52.0547 199.059C51.125 199.052 50.4688 199.749 50.4277 200.604ZM60.1074 205.211C57.8311 205.204 56.4639 203.632 56.4707 201.369C56.4639 199.1 57.8584 197.541 60.1074 197.541C62.0215 197.541 63.3203 198.655 63.4023 200.357H61.502C61.3789 199.626 60.9004 199.12 60.1348 199.113C59.1641 199.12 58.5215 199.934 58.5215 201.342C58.5215 202.777 59.1504 203.598 60.1348 203.598C60.8457 203.598 61.3721 203.153 61.502 202.367H63.4023C63.3135 204.049 62.0762 205.204 60.1074 205.211ZM66.6836 200.768V205.061H64.6602V195.162H66.6289V198.936H66.7109C67.0527 198.067 67.7979 197.541 68.9258 197.541C70.4775 197.541 71.4961 198.587 71.4961 200.33V205.061H69.4727V200.686C69.4727 199.763 68.9805 199.223 68.1328 199.223C67.2783 199.223 66.6836 199.79 66.6836 200.768Z" fill="#ECECF8" fill-opacity="0.5"/>
<path d="M40.543 227.961V226.662H48.2129V227.961H45.1367V236.561H43.6328V227.961H40.543ZM51.7402 236.711C49.5527 236.711 48.2061 235.2 48.2129 232.896C48.2061 230.613 49.5732 229.041 51.6445 229.041C53.333 229.041 54.9395 230.087 54.9395 232.773V233.293H49.6621C49.7031 234.708 50.5371 235.508 51.7539 235.508C52.5811 235.508 53.1211 235.152 53.3672 234.701H54.8438C54.5156 235.904 53.374 236.711 51.7402 236.711ZM49.6689 232.199H53.5039C53.5039 231.071 52.7725 230.237 51.6582 230.244C50.4893 230.237 49.7305 231.153 49.6689 232.199ZM59.5332 236.711C57.3662 236.711 56.0537 235.118 56.0605 232.883C56.0537 230.62 57.4141 229.041 59.5059 229.041C61.2012 229.041 62.4248 230.039 62.582 231.543H61.1602C61.0098 230.846 60.4561 230.265 59.5332 230.258C58.3301 230.265 57.5234 231.263 57.5234 232.842C57.5234 234.469 58.3096 235.474 59.5332 235.467C60.3604 235.474 60.9756 235.009 61.1602 234.209H62.582C62.4248 235.651 61.2832 236.711 59.5332 236.711ZM65.4258 232.158V236.561H63.9629V226.662H65.3984V230.354H65.4941C65.8428 229.547 66.54 229.041 67.6953 229.041C69.2197 229.041 70.2383 229.984 70.2383 231.844V236.561H68.7754V232.021C68.7754 230.928 68.1875 230.299 67.2031 230.299C66.1709 230.299 65.4258 230.976 65.4258 232.158ZM73.4648 232.158V236.561H72.002V229.137H73.4102V230.354H73.4922C73.8408 229.554 74.5723 229.041 75.6797 229.041C77.2041 229.041 78.2158 230.005 78.209 231.844V236.561H76.7598V232.021C76.7529 230.941 76.1719 230.299 75.1875 230.299C74.1826 230.299 73.4648 230.976 73.4648 232.158ZM79.9863 236.561V229.137H81.4492V236.561H79.9863ZM79.7949 227.127C79.8018 226.648 80.2188 226.266 80.7246 226.266C81.2236 226.266 81.6406 226.648 81.6406 227.127C81.6406 227.605 81.2236 227.995 80.7246 227.988C80.2188 227.995 79.8018 227.605 79.7949 227.127ZM86.3711 236.711C84.2041 236.711 82.8916 235.118 82.8984 232.883C82.8916 230.62 84.252 229.041 86.3438 229.041C88.0391 229.041 89.2627 230.039 89.4199 231.543H87.998C87.8477 230.846 87.2939 230.265 86.3711 230.258C85.168 230.265 84.3613 231.263 84.3613 232.842C84.3613 234.469 85.1475 235.474 86.3711 235.467C87.1982 235.474 87.8135 235.009 87.998 234.209H89.4199C89.2627 235.651 88.1211 236.711 86.3711 236.711ZM90.459 234.469C90.4521 232.773 91.8945 232.336 93.2344 232.24C93.7266 232.213 94.8408 232.151 95.1826 232.138L95.1758 231.543C95.1826 230.702 94.6631 230.217 93.6719 230.217C92.8105 230.217 92.291 230.613 92.1406 231.16H90.6914C90.8213 229.93 91.9697 229.041 93.7266 229.041C94.9092 229.041 96.6318 229.472 96.6387 231.625V236.561H95.2168V235.549H95.1621C94.875 236.103 94.1914 236.725 92.9609 236.725C91.5527 236.725 90.4521 235.918 90.459 234.469ZM91.8809 234.482C91.8809 235.193 92.4688 235.556 93.2891 235.562C94.4785 235.556 95.1895 234.763 95.1895 233.881L95.1826 233.204C94.8477 233.225 93.7881 233.3 93.4395 233.32C92.4824 233.389 91.8809 233.751 91.8809 234.482ZM99.8652 226.662V236.561H98.4023V226.662H99.8652ZM105.061 239.35V229.137H106.482V230.34H106.605C106.865 229.875 107.364 229.041 108.738 229.041C110.536 229.041 111.855 230.449 111.855 232.869C111.855 235.262 110.55 236.704 108.752 236.711C107.405 236.704 106.872 235.884 106.605 235.398H106.523V239.35H105.061ZM106.496 232.842C106.496 234.4 107.18 235.46 108.424 235.467C109.709 235.46 110.379 234.332 110.379 232.842C110.379 231.379 109.729 230.278 108.424 230.285C107.166 230.278 106.496 231.297 106.496 232.842ZM113.305 236.561V229.137H114.713V230.312H114.795C115.068 229.52 115.813 229.021 116.682 229.027C116.859 229.021 117.146 229.041 117.297 229.055V230.449C117.174 230.422 116.832 230.36 116.531 230.367C115.52 230.36 114.768 231.064 114.768 232.035V236.561H113.305ZM121.289 236.711C119.184 236.711 117.81 235.18 117.816 232.883C117.81 230.572 119.184 229.041 121.289 229.041C123.381 229.041 124.748 230.572 124.748 232.883C124.748 235.18 123.381 236.711 121.289 236.711ZM119.279 232.883C119.279 234.298 119.929 235.494 121.289 235.494C122.629 235.494 123.271 234.298 123.271 232.883C123.271 231.461 122.629 230.251 121.289 230.244C119.929 230.251 119.279 231.461 119.279 232.883ZM129.725 229.137V230.299H128.125V236.561H126.662V230.299H125.514V229.137H126.662V228.275C126.669 226.949 127.517 226.197 128.877 226.197C129.226 226.197 129.588 226.238 129.875 226.293V227.51C129.602 227.469 129.39 227.455 129.26 227.455C128.487 227.455 128.125 227.77 128.125 228.494V229.137H129.725ZM131.051 236.561V229.137H132.514V236.561H131.051ZM130.859 227.127C130.866 226.648 131.283 226.266 131.789 226.266C132.288 226.266 132.705 226.648 132.705 227.127C132.705 227.605 132.288 227.995 131.789 227.988C131.283 227.995 130.866 227.605 130.859 227.127ZM137.436 236.711C135.269 236.711 133.956 235.118 133.963 232.883C133.956 230.62 135.316 229.041 137.408 229.041C139.104 229.041 140.327 230.039 140.484 231.543H139.062C138.912 230.846 138.358 230.265 137.436 230.258C136.232 230.265 135.426 231.263 135.426 232.842C135.426 234.469 136.212 235.474 137.436 235.467C138.263 235.474 138.878 235.009 139.062 234.209H140.484C140.327 235.651 139.186 236.711 137.436 236.711ZM141.865 236.561V229.137H143.328V236.561H141.865ZM141.674 227.127C141.681 226.648 142.098 226.266 142.604 226.266C143.103 226.266 143.52 226.648 143.52 227.127C143.52 227.605 143.103 227.995 142.604 227.988C142.098 227.995 141.681 227.605 141.674 227.127ZM148.305 236.711C146.117 236.711 144.771 235.2 144.777 232.896C144.771 230.613 146.138 229.041 148.209 229.041C149.897 229.041 151.504 230.087 151.504 232.773V233.293H146.227C146.268 234.708 147.102 235.508 148.318 235.508C149.146 235.508 149.686 235.152 149.932 234.701H151.408C151.08 235.904 149.938 236.711 148.305 236.711ZM146.233 232.199H150.068C150.068 231.071 149.337 230.237 148.223 230.244C147.054 230.237 146.295 231.153 146.233 232.199ZM154.416 232.158V236.561H152.953V229.137H154.361V230.354H154.443C154.792 229.554 155.523 229.041 156.631 229.041C158.155 229.041 159.167 230.005 159.16 231.844V236.561H157.711V232.021C157.704 230.941 157.123 230.299 156.139 230.299C155.134 230.299 154.416 230.976 154.416 232.158ZM164.082 236.711C161.915 236.711 160.603 235.118 160.609 232.883C160.603 230.62 161.963 229.041 164.055 229.041C165.75 229.041 166.974 230.039 167.131 231.543H165.709C165.559 230.846 165.005 230.265 164.082 230.258C162.879 230.265 162.072 231.263 162.072 232.842C162.072 234.469 162.858 235.474 164.082 235.467C164.909 235.474 165.524 235.009 165.709 234.209H167.131C166.974 235.651 165.832 236.711 164.082 236.711ZM169.414 239.35C169.113 239.343 168.819 239.336 168.635 239.309V238.092C168.799 238.105 169.086 238.112 169.291 238.119C169.742 238.112 170.118 238.085 170.467 237.148L170.645 236.656L167.924 229.137H169.482L171.355 234.893H171.438L173.311 229.137H174.883L171.82 237.545C171.39 238.721 170.638 239.343 169.414 239.35ZM179.49 236.561V229.137H180.953V236.561H179.49ZM179.299 227.127C179.306 226.648 179.723 226.266 180.229 226.266C180.728 226.266 181.145 226.648 181.145 227.127C181.145 227.605 180.728 227.995 180.229 227.988C179.723 227.995 179.306 227.605 179.299 227.127ZM184.193 232.158V236.561H182.73V229.137H184.139V230.354H184.221C184.569 229.554 185.301 229.041 186.408 229.041C187.933 229.041 188.944 230.005 188.938 231.844V236.561H187.488V232.021C187.481 230.941 186.9 230.299 185.916 230.299C184.911 230.299 184.193 230.976 184.193 232.158ZM194.256 226.662H196.088L199.219 234.332H199.342L202.473 226.662H204.305V236.561H202.869V229.41H202.773L199.875 236.547H198.686L195.773 229.396H195.691V236.561H194.256V226.662ZM206.328 236.561V226.662H207.832V235.262H212.303V236.561H206.328Z" fill="#ECECF8"/>
<circle cx="246.023" cy="232.061" r="6" fill="#944AF2"/>
<circle cx="270.023" cy="232.061" r="6" fill="#ECECF8" fill-opacity="0.3"/>
<circle cx="294.023" cy="232.061" r="6" fill="#ECECF8" fill-opacity="0.3"/>
<circle cx="318.023" cy="232.061" r="6" fill="#ECECF8" fill-opacity="0.3"/>
<circle cx="342.023" cy="232.061" r="6" fill="#ECECF8" fill-opacity="0.3"/>
<path d="M40.543 264.961V263.662H48.2129V264.961H45.1367V273.561H43.6328V264.961H40.543ZM51.7402 273.711C49.5527 273.711 48.2061 272.2 48.2129 269.896C48.2061 267.613 49.5732 266.041 51.6445 266.041C53.333 266.041 54.9395 267.087 54.9395 269.773V270.293H49.6621C49.7031 271.708 50.5371 272.508 51.7539 272.508C52.5811 272.508 53.1211 272.152 53.3672 271.701H54.8438C54.5156 272.904 53.374 273.711 51.7402 273.711ZM49.6689 269.199H53.5039C53.5039 268.071 52.7725 267.237 51.6582 267.244C50.4893 267.237 49.7305 268.153 49.6689 269.199ZM59.5332 273.711C57.3662 273.711 56.0537 272.118 56.0605 269.883C56.0537 267.62 57.4141 266.041 59.5059 266.041C61.2012 266.041 62.4248 267.039 62.582 268.543H61.1602C61.0098 267.846 60.4561 267.265 59.5332 267.258C58.3301 267.265 57.5234 268.263 57.5234 269.842C57.5234 271.469 58.3096 272.474 59.5332 272.467C60.3604 272.474 60.9756 272.009 61.1602 271.209H62.582C62.4248 272.651 61.2832 273.711 59.5332 273.711ZM65.4258 269.158V273.561H63.9629V263.662H65.3984V267.354H65.4941C65.8428 266.547 66.54 266.041 67.6953 266.041C69.2197 266.041 70.2383 266.984 70.2383 268.844V273.561H68.7754V269.021C68.7754 267.928 68.1875 267.299 67.2031 267.299C66.1709 267.299 65.4258 267.976 65.4258 269.158ZM73.4648 269.158V273.561H72.002V266.137H73.4102V267.354H73.4922C73.8408 266.554 74.5723 266.041 75.6797 266.041C77.2041 266.041 78.2158 267.005 78.209 268.844V273.561H76.7598V269.021C76.7529 267.941 76.1719 267.299 75.1875 267.299C74.1826 267.299 73.4648 267.976 73.4648 269.158ZM79.9863 273.561V266.137H81.4492V273.561H79.9863ZM79.7949 264.127C79.8018 263.648 80.2188 263.266 80.7246 263.266C81.2236 263.266 81.6406 263.648 81.6406 264.127C81.6406 264.605 81.2236 264.995 80.7246 264.988C80.2188 264.995 79.8018 264.605 79.7949 264.127ZM86.3711 273.711C84.2041 273.711 82.8916 272.118 82.8984 269.883C82.8916 267.62 84.252 266.041 86.3438 266.041C88.0391 266.041 89.2627 267.039 89.4199 268.543H87.998C87.8477 267.846 87.2939 267.265 86.3711 267.258C85.168 267.265 84.3613 268.263 84.3613 269.842C84.3613 271.469 85.1475 272.474 86.3711 272.467C87.1982 272.474 87.8135 272.009 87.998 271.209H89.4199C89.2627 272.651 88.1211 273.711 86.3711 273.711ZM90.459 271.469C90.4521 269.773 91.8945 269.336 93.2344 269.24C93.7266 269.213 94.8408 269.151 95.1826 269.138L95.1758 268.543C95.1826 267.702 94.6631 267.217 93.6719 267.217C92.8105 267.217 92.291 267.613 92.1406 268.16H90.6914C90.8213 266.93 91.9697 266.041 93.7266 266.041C94.9092 266.041 96.6318 266.472 96.6387 268.625V273.561H95.2168V272.549H95.1621C94.875 273.103 94.1914 273.725 92.9609 273.725C91.5527 273.725 90.4521 272.918 90.459 271.469ZM91.8809 271.482C91.8809 272.193 92.4688 272.556 93.2891 272.562C94.4785 272.556 95.1895 271.763 95.1895 270.881L95.1826 270.204C94.8477 270.225 93.7881 270.3 93.4395 270.32C92.4824 270.389 91.8809 270.751 91.8809 271.482ZM99.8652 263.662V273.561H98.4023V263.662H99.8652ZM105.061 276.35V266.137H106.482V267.34H106.605C106.865 266.875 107.364 266.041 108.738 266.041C110.536 266.041 111.855 267.449 111.855 269.869C111.855 272.262 110.55 273.704 108.752 273.711C107.405 273.704 106.872 272.884 106.605 272.398H106.523V276.35H105.061ZM106.496 269.842C106.496 271.4 107.18 272.46 108.424 272.467C109.709 272.46 110.379 271.332 110.379 269.842C110.379 268.379 109.729 267.278 108.424 267.285C107.166 267.278 106.496 268.297 106.496 269.842ZM113.305 273.561V266.137H114.713V267.312H114.795C115.068 266.52 115.813 266.021 116.682 266.027C116.859 266.021 117.146 266.041 117.297 266.055V267.449C117.174 267.422 116.832 267.36 116.531 267.367C115.52 267.36 114.768 268.064 114.768 269.035V273.561H113.305ZM121.289 273.711C119.184 273.711 117.81 272.18 117.816 269.883C117.81 267.572 119.184 266.041 121.289 266.041C123.381 266.041 124.748 267.572 124.748 269.883C124.748 272.18 123.381 273.711 121.289 273.711ZM119.279 269.883C119.279 271.298 119.929 272.494 121.289 272.494C122.629 272.494 123.271 271.298 123.271 269.883C123.271 268.461 122.629 267.251 121.289 267.244C119.929 267.251 119.279 268.461 119.279 269.883ZM129.725 266.137V267.299H128.125V273.561H126.662V267.299H125.514V266.137H126.662V265.275C126.669 263.949 127.517 263.197 128.877 263.197C129.226 263.197 129.588 263.238 129.875 263.293V264.51C129.602 264.469 129.39 264.455 129.26 264.455C128.487 264.455 128.125 264.77 128.125 265.494V266.137H129.725ZM131.051 273.561V266.137H132.514V273.561H131.051ZM130.859 264.127C130.866 263.648 131.283 263.266 131.789 263.266C132.288 263.266 132.705 263.648 132.705 264.127C132.705 264.605 132.288 264.995 131.789 264.988C131.283 264.995 130.866 264.605 130.859 264.127ZM137.436 273.711C135.269 273.711 133.956 272.118 133.963 269.883C133.956 267.62 135.316 266.041 137.408 266.041C139.104 266.041 140.327 267.039 140.484 268.543H139.062C138.912 267.846 138.358 267.265 137.436 267.258C136.232 267.265 135.426 268.263 135.426 269.842C135.426 271.469 136.212 272.474 137.436 272.467C138.263 272.474 138.878 272.009 139.062 271.209H140.484C140.327 272.651 139.186 273.711 137.436 273.711ZM141.865 273.561V266.137H143.328V273.561H141.865ZM141.674 264.127C141.681 263.648 142.098 263.266 142.604 263.266C143.103 263.266 143.52 263.648 143.52 264.127C143.52 264.605 143.103 264.995 142.604 264.988C142.098 264.995 141.681 264.605 141.674 264.127ZM148.305 273.711C146.117 273.711 144.771 272.2 144.777 269.896C144.771 267.613 146.138 266.041 148.209 266.041C149.897 266.041 151.504 267.087 151.504 269.773V270.293H146.227C146.268 271.708 147.102 272.508 148.318 272.508C149.146 272.508 149.686 272.152 149.932 271.701H151.408C151.08 272.904 149.938 273.711 148.305 273.711ZM146.233 269.199H150.068C150.068 268.071 149.337 267.237 148.223 267.244C147.054 267.237 146.295 268.153 146.233 269.199ZM154.416 269.158V273.561H152.953V266.137H154.361V267.354H154.443C154.792 266.554 155.523 266.041 156.631 266.041C158.155 266.041 159.167 267.005 159.16 268.844V273.561H157.711V269.021C157.704 267.941 157.123 267.299 156.139 267.299C155.134 267.299 154.416 267.976 154.416 269.158ZM164.082 273.711C161.915 273.711 160.603 272.118 160.609 269.883C160.603 267.62 161.963 266.041 164.055 266.041C165.75 266.041 166.974 267.039 167.131 268.543H165.709C165.559 267.846 165.005 267.265 164.082 267.258C162.879 267.265 162.072 268.263 162.072 269.842C162.072 271.469 162.858 272.474 164.082 272.467C164.909 272.474 165.524 272.009 165.709 271.209H167.131C166.974 272.651 165.832 273.711 164.082 273.711ZM169.414 276.35C169.113 276.343 168.819 276.336 168.635 276.309V275.092C168.799 275.105 169.086 275.112 169.291 275.119C169.742 275.112 170.118 275.085 170.467 274.148L170.645 273.656L167.924 266.137H169.482L171.355 271.893H171.438L173.311 266.137H174.883L171.82 274.545C171.39 275.721 170.638 276.343 169.414 276.35ZM179.49 273.561V266.137H180.953V273.561H179.49ZM179.299 264.127C179.306 263.648 179.723 263.266 180.229 263.266C180.728 263.266 181.145 263.648 181.145 264.127C181.145 264.605 180.728 264.995 180.229 264.988C179.723 264.995 179.306 264.605 179.299 264.127ZM184.193 269.158V273.561H182.73V266.137H184.139V267.354H184.221C184.569 266.554 185.301 266.041 186.408 266.041C187.933 266.041 188.944 267.005 188.938 268.844V273.561H187.488V269.021C187.481 267.941 186.9 267.299 185.916 267.299C184.911 267.299 184.193 267.976 184.193 269.158ZM202.855 268.611C202.855 271.776 200.955 273.697 198.398 273.697C195.821 273.697 193.928 271.77 193.928 268.611C193.928 265.446 195.821 263.525 198.398 263.525C200.955 263.525 202.855 265.446 202.855 268.611ZM195.418 268.611C195.425 271.018 196.689 272.323 198.398 272.316C200.094 272.323 201.358 271.018 201.365 268.611C201.358 266.205 200.094 264.899 198.398 264.906C196.689 264.899 195.425 266.205 195.418 268.611ZM204.428 276.35V266.137H205.85V267.34H205.973C206.232 266.875 206.731 266.041 208.105 266.041C209.903 266.041 211.223 267.449 211.223 269.869C211.223 272.262 209.917 273.704 208.119 273.711C206.772 273.704 206.239 272.884 205.973 272.398H205.891V276.35H204.428ZM205.863 269.842C205.863 271.4 206.547 272.46 207.791 272.467C209.076 272.46 209.746 271.332 209.746 269.842C209.746 268.379 209.097 267.278 207.791 267.285C206.533 267.278 205.863 268.297 205.863 269.842ZM216.842 268.16C216.705 267.572 216.24 267.189 215.434 267.189C214.6 267.189 214.005 267.62 214.012 268.188C214.005 268.625 214.354 268.939 215.174 269.131L216.35 269.404C217.717 269.712 218.38 270.361 218.387 271.414C218.38 272.754 217.245 273.711 215.352 273.711C213.567 273.711 212.515 272.918 212.33 271.537H213.82C213.95 272.207 214.456 272.542 215.338 272.535C216.281 272.542 216.89 272.146 216.896 271.523C216.89 271.045 216.534 270.737 215.748 270.553L214.586 270.307C213.246 270.013 212.549 269.295 212.549 268.27C212.549 266.95 213.697 266.041 215.42 266.041C217.074 266.041 218.106 266.882 218.25 268.16H216.842Z" fill="#ECECF8"/>
<circle cx="246.023" cy="269.061" r="6" fill="#944AF2"/>
<circle cx="270.023" cy="269.061" r="6" fill="#ECECF8" fill-opacity="0.3"/>
<circle cx="294.023" cy="269.061" r="6" fill="#ECECF8" fill-opacity="0.3"/>
<circle cx="318.023" cy="269.061" r="6" fill="#ECECF8" fill-opacity="0.3"/>
<circle cx="342.023" cy="269.061" r="6" fill="#ECECF8" fill-opacity="0.3"/>
</g>
</g>
<rect x="0.523438" y="1.05664" width="399" height="305.504" rx="11.5" stroke="white" stroke-opacity="0.2"/>
<defs>
<filter id="filter0_f_597_10532" x="64.4391" y="48.025" width="9.42656" height="11.2801" filterUnits="userSpaceOnUse" color-interpolation-filters="sRGB">
<feFlood flood-opacity="0" result="BackgroundImageFix"/>
<feBlend mode="normal" in="SourceGraphic" in2="BackgroundImageFix" result="shape"/>
<feGaussianBlur stdDeviation="0.8" result="effect1_foregroundBlur_597_10532"/>
</filter>
<linearGradient id="paint0_linear_597_10532" x1="56.423" y1="70.4299" x2="63.023" y2="89.4299" gradientUnits="userSpaceOnUse">
<stop stop-color="#FBBFB4"/>
<stop offset="1" stop-color="#EA8F7F"/>
</linearGradient>
<linearGradient id="paint1_linear_597_10532" x1="64.0225" y1="67.6308" x2="64.6225" y2="74.2308" gradientUnits="userSpaceOnUse">
<stop stop-color="#E79795"/>
<stop offset="1" stop-color="#E79795" stop-opacity="0"/>
</linearGradient>
<linearGradient id="paint2_linear_597_10532" x1="49.684" y1="48.9359" x2="45.1999" y2="68.006" gradientUnits="userSpaceOnUse">
<stop stop-color="#060204"/>
<stop offset="1" stop-color="#2E0822"/>
</linearGradient>
<linearGradient id="paint3_linear_597_10532" x1="46.2782" y1="45.6231" x2="45.6864" y2="65.2043" gradientUnits="userSpaceOnUse">
<stop stop-color="#060204"/>
<stop offset="1" stop-color="#2E0822"/>
</linearGradient>
<linearGradient id="paint4_linear_597_10532" x1="70.8211" y1="52.2292" x2="58.3819" y2="69.2786" gradientUnits="userSpaceOnUse">
<stop stop-color="#FFD3CB"/>
<stop offset="1" stop-color="#FFB2A4"/>
</linearGradient>
<radialGradient id="paint5_radial_597_10532" cx="0" cy="0" r="1" gradientUnits="userSpaceOnUse" gradientTransform="translate(64.0178 50.0318) rotate(135) scale(1.9799 2.0459)">
<stop stop-color="#4B3F47"/>
<stop offset="1" stop-color="#1C1519"/>
</radialGradient>
<radialGradient id="paint6_radial_597_10532" cx="0" cy="0" r="1" gradientUnits="userSpaceOnUse" gradientTransform="translate(73.8271 50.0307) rotate(114.444) scale(2.41661 2.09897)">
<stop stop-color="#4B3F47"/>
<stop offset="1" stop-color="#1C1519"/>
</radialGradient>
<linearGradient id="paint7_linear_597_10532" x1="57.6586" y1="26.968" x2="53.7173" y2="59.5179" gradientUnits="userSpaceOnUse">
<stop stop-color="#060204"/>
<stop offset="1" stop-color="#2E0822"/>
</linearGradient>
<linearGradient id="paint8_linear_597_10532" x1="60.023" y1="75.6875" x2="60.023" y2="100.557" gradientUnits="userSpaceOnUse">
<stop offset="0.411458" stop-color="#202F72"/>
<stop offset="1" stop-color="#0D1021"/>
</linearGradient>
<linearGradient id="paint9_linear_597_10532" x1="71.1412" y1="29.5119" x2="68.9031" y2="47.9953" gradientUnits="userSpaceOnUse">
<stop stop-color="#090207"/>
<stop offset="1" stop-color="#2E0822"/>
</linearGradient>
<linearGradient id="paint10_linear_597_10532" x1="73.3245" y1="30.3555" x2="71.0162" y2="49.4182" gradientUnits="userSpaceOnUse">
<stop stop-color="#080306"/>
<stop offset="1" stop-color="#2E0822"/>
</linearGradient>
<linearGradient id="paint11_linear_597_10532" x1="66.7984" y1="29.0898" x2="65.3834" y2="48.6288" gradientUnits="userSpaceOnUse">
<stop stop-color="#060204"/>
<stop offset="1" stop-color="#2E0822"/>
</linearGradient>
<linearGradient id="paint12_linear_597_10532" x1="64.2812" y1="34.0235" x2="57.139" y2="52.2653" gradientUnits="userSpaceOnUse">
<stop stop-color="#060204"/>
<stop offset="1" stop-color="#2E0822"/>
</linearGradient>
<clipPath id="clip0_597_10532">
<rect x="0.0234375" y="0.556641" width="400" height="306.504" rx="12" fill="white"/>
</clipPath>
<clipPath id="clip1_597_10532">
<rect x="20.0234" y="20.5566" width="80" height="80" rx="40" fill="white"/>
</clipPath>
<clipPath id="clip2_597_10532">
<rect x="20.0234" y="192.061" width="360" height="95" rx="12" fill="white"/>
</clipPath>
</defs>
</svg>
