<svg width="401" height="308" viewBox="0 0 401 308" fill="none" xmlns="http://www.w3.org/2000/svg">
<g clip-path="url(#clip0_597_10602)">
<rect x="0.0234375" y="0.556641" width="400" height="306.504" rx="12" fill="#131316" fill-opacity="0.6"/>
<g clip-path="url(#clip1_597_10602)">
<rect x="20.0234" y="20.5566" width="80" height="80" rx="40" fill="#DFDCDA"/>
<ellipse cx="74.2056" cy="57.6162" rx="1.83099" ry="4.78873" transform="rotate(9.95946 74.2056 57.6162)" fill="#F3A4A7"/>
<circle cx="73.9445" cy="62.4103" r="1.97183" fill="url(#paint0_radial_597_10602)"/>
<path d="M56.0493 81.5654C57.8521 80.5513 55.7676 68.6546 54.5 62.833C57.3638 62.833 63.1479 63.0865 63.3732 64.1006C63.5986 65.1147 66.1901 74.664 67.4577 79.3119L60.9789 90.157C58.5845 87.7156 54.2465 82.5795 56.0493 81.5654Z" fill="#FDC6BF"/>
<mask id="mask0_597_10602" style="mask-type:alpha" maskUnits="userSpaceOnUse" x="54" y="62" width="14" height="29">
<path d="M56.0493 81.5654C57.8521 80.5513 55.7676 68.6546 54.5 62.833C57.3638 62.833 63.1479 63.0865 63.3732 64.1006C63.5986 65.1147 66.1901 74.664 67.4577 79.3119L60.9789 90.157C58.5845 87.7156 54.2465 82.5795 56.0493 81.5654Z" fill="#FDC6BF"/>
</mask>
<g mask="url(#mask0_597_10602)">
<path d="M67.0355 65.65L69.0073 77.481C69.0073 77.481 66.3313 79.3119 59.8524 72.8331C53.3735 66.3542 51.8242 64.3824 51.8242 64.3824L53.5144 60.2979L67.0355 65.65Z" fill="url(#paint1_linear_597_10602)"/>
</g>
<mask id="mask1_597_10602" style="mask-type:alpha" maskUnits="userSpaceOnUse" x="39" y="76" width="42" height="25">
<path d="M39.0977 100.557C39.2103 96.3881 43.4639 83.2783 47.6892 80.837C55.2948 77.5976 69.661 76.0521 75.2948 76.4746C79.8019 76.8127 81.8676 95.1111 80.5061 100.557H39.0977Z" fill="url(#paint2_linear_597_10602)"/>
</mask>
<g mask="url(#mask1_597_10602)">
<path d="M39.0977 100.557C39.2103 96.3881 43.4639 83.2783 47.6892 80.837C55.2948 77.5976 69.661 76.0521 75.2948 76.4746C79.8019 76.8127 81.8676 95.1111 80.5061 100.557H39.0977Z" fill="url(#paint3_linear_597_10602)"/>
<path d="M48.3581 84.5894L48.9775 86.2193L50.7191 86.1339L49.3604 87.2267L49.9799 88.8567L48.5206 87.9021L47.1619 88.995L47.6188 87.3122L46.1596 86.3576L47.9012 86.2722L48.3581 84.5894Z" fill="#D9D9D9"/>
<path d="M54.3502 84.2954L54.9697 85.9254L56.7113 85.8399L55.3526 86.9328L55.9721 88.5627L54.5128 87.6082L53.1541 88.701L53.611 87.0182L52.1517 86.0637L53.8933 85.9782L54.3502 84.2954Z" fill="#D9D9D9"/>
<path d="M60.3424 84.0015L60.9619 85.6314L62.7035 85.546L61.3448 86.6388L61.9642 88.2688L60.505 87.3142L59.1463 88.4071L59.6032 86.7243L58.1439 85.7697L59.8855 85.6843L60.3424 84.0015Z" fill="#D9D9D9"/>
<path d="M66.3346 83.7066L66.9541 85.3365L68.6957 85.251L67.337 86.3439L67.9564 87.9738L66.4972 87.0193L65.1385 88.1121L65.5953 86.4294L64.1361 85.4748L65.8777 85.3894L66.3346 83.7066Z" fill="#D9D9D9"/>
<path d="M72.3307 83.4126L72.9502 85.0426L74.6918 84.9571L73.333 86.0499L73.9525 87.6799L72.4933 86.7254L71.1345 87.8182L71.5914 86.1354L70.1322 85.1809L71.8738 85.0954L72.3307 83.4126Z" fill="#D9D9D9"/>
<path d="M48.3581 79.1245L48.9775 80.7545L50.7191 80.669L49.3604 81.7619L49.9799 83.3918L48.5206 82.4373L47.1619 83.5301L47.6188 81.8473L46.1596 80.8928L47.9012 80.8073L48.3581 79.1245Z" fill="#D9D9D9"/>
<path d="M54.3502 78.8306L54.9697 80.4605L56.7113 80.3751L55.3526 81.4679L55.9721 83.0979L54.5128 82.1433L53.1541 83.2362L53.611 81.5534L52.1517 80.5988L53.8933 80.5134L54.3502 78.8306Z" fill="#D9D9D9"/>
<path d="M60.3424 78.5367L60.9619 80.1666L62.7035 80.0811L61.3448 81.174L61.9642 82.8039L60.505 81.8494L59.1463 82.9422L59.6032 81.2594L58.1439 80.3049L59.8855 80.2194L60.3424 78.5367Z" fill="#D9D9D9"/>
<path d="M66.3346 78.2417L66.9541 79.8717L68.6957 79.7862L67.337 80.879L67.9564 82.509L66.4972 81.5545L65.1385 82.6473L65.5953 80.9645L64.1361 80.01L65.8777 79.9245L66.3346 78.2417Z" fill="#D9D9D9"/>
<path d="M72.3307 77.9478L72.9502 79.5777L74.6918 79.4923L73.333 80.5851L73.9525 82.2151L72.4933 81.2605L71.1345 82.3534L71.5914 80.6706L70.1322 79.716L71.8738 79.6306L72.3307 77.9478Z" fill="#D9D9D9"/>
<path d="M48.3581 89.9243L48.9775 91.5543L50.7191 91.4688L49.3604 92.5617L49.9799 94.1916L48.5206 93.2371L47.1619 94.3299L47.6188 92.6471L46.1596 91.6926L47.9012 91.6071L48.3581 89.9243Z" fill="#D9D9D9"/>
<path d="M54.3502 89.6304L54.9697 91.2604L56.7113 91.1749L55.3526 92.2677L55.9721 93.8977L54.5128 92.9431L53.1541 94.036L53.611 92.3532L52.1517 91.3987L53.8933 91.3132L54.3502 89.6304Z" fill="#D9D9D9"/>
<path d="M60.3424 89.3365L60.9619 90.9664L62.7035 90.8809L61.3448 91.9738L61.9642 93.6037L60.505 92.6492L59.1463 93.742L59.6032 92.0592L58.1439 91.1047L59.8855 91.0192L60.3424 89.3365Z" fill="#D9D9D9"/>
<path d="M66.3346 89.0415L66.9541 90.6715L68.6957 90.586L67.337 91.6789L67.9564 93.3088L66.4972 92.3543L65.1385 93.4471L65.5953 91.7643L64.1361 90.8098L65.8777 90.7243L66.3346 89.0415Z" fill="#D9D9D9"/>
<path d="M72.3307 88.7476L72.9502 90.3775L74.6918 90.2921L73.333 91.3849L73.9525 93.0149L72.4933 92.0603L71.1345 93.1532L71.5914 91.4704L70.1322 90.5158L71.8738 90.4304L72.3307 88.7476Z" fill="#D9D9D9"/>
<path d="M48.3581 95.9243L48.9775 97.5543L50.7191 97.4688L49.3604 98.5617L49.9799 100.192L48.5206 99.2371L47.1619 100.33L47.6188 98.6471L46.1596 97.6926L47.9012 97.6071L48.3581 95.9243Z" fill="#D9D9D9"/>
<path d="M54.3502 95.6304L54.9697 97.2604L56.7113 97.1749L55.3526 98.2677L55.9721 99.8977L54.5128 98.9431L53.1541 100.036L53.611 98.3532L52.1517 97.3987L53.8933 97.3132L54.3502 95.6304Z" fill="#D9D9D9"/>
<path d="M60.3424 95.3365L60.9619 96.9664L62.7035 96.8809L61.3448 97.9738L61.9642 99.6037L60.505 98.6492L59.1463 99.742L59.6032 98.0592L58.1439 97.1047L59.8855 97.0192L60.3424 95.3365Z" fill="#D9D9D9"/>
<path d="M66.3346 95.0415L66.9541 96.6715L68.6957 96.586L67.337 97.6789L67.9564 99.3088L66.4972 98.3543L65.1385 99.4471L65.5953 97.7643L64.1361 96.8098L65.8777 96.7243L66.3346 95.0415Z" fill="#D9D9D9"/>
<path d="M72.3307 94.7476L72.9502 96.3775L74.6918 96.2921L73.333 97.3849L73.9525 99.0149L72.4933 98.0603L71.1345 99.1532L71.5914 97.4704L70.1322 96.5158L71.8738 96.4304L72.3307 94.7476Z" fill="#D9D9D9"/>
</g>
<path d="M47.8811 29.7347C51.5994 27.3685 53.7497 30.7207 54.36 32.6925C55.7691 32.6925 53.7959 34.6642 52.9509 38.1853C52.1058 41.7064 50.6973 49.4529 49.148 52.2698C47.5987 55.0867 45.7678 56.9177 44.641 62.2698C43.7396 66.5515 43.1848 73.0304 49.148 76.636C49.148 76.636 40.1738 75.9177 37.3568 68.0304C33.8356 58.1712 42.3882 50.5797 41.1206 41.2839C39.853 31.9881 43.2332 32.6925 47.8811 29.7347Z" fill="url(#paint4_linear_597_10602)"/>
<circle cx="50.2755" cy="36.7765" r="3.80282" fill="#E0BF66"/>
<path d="M44.3374 42.4103C47.267 30.8047 58.9852 30.814 63.774 33.3961C67.2663 31.7061 68.4881 34.9458 68.5826 36.3542L61.3995 64.5232C61.0979 67.3399 51.0697 66.7484 49.8303 63.2554C48.281 58.8892 40.6755 56.9174 44.3374 42.4103Z" fill="url(#paint5_linear_597_10602)"/>
<path d="M77.2225 38.9573C75.4778 34.6738 65.7652 34.0535 63.3708 36.0723C60.2722 40.0158 68.1858 42.6924 69.3126 45.6502C70.214 48.0164 71.2201 56.9193 71.9713 60.3935C72.5816 59.3606 75.2225 56.9574 75.2225 52.5573C75.2225 48.1573 80.4225 46.814 77.2225 38.9573Z" fill="url(#paint6_linear_597_10602)"/>
<path d="M74.3566 50.2979C74.6947 48.2698 74.6383 45.5086 70.413 39.8748C66.1876 34.241 56.1886 40.4388 54.3576 42.974C52.5266 45.5092 52.5266 54.9458 51.9623 54.5233C51.3979 54.1008 50.2721 53.8191 49.0045 54.9458C47.7369 56.0726 48.1595 59.1712 48.4411 61.143C48.7228 63.1149 50.9764 63.8191 51.9623 64.5233C52.751 65.0867 54.8261 65.3214 55.7651 65.3684C58.7715 69.9935 65.3715 72.1935 68.3715 72.1935C71.3715 72.1935 72.9302 65.7611 73.7715 63.9935C74.9863 61.4411 74.6767 58.7653 73.9715 56.7935C73.3126 54.9511 73.9341 52.8332 74.3566 50.2979Z" fill="url(#paint7_linear_597_10602)"/>
<path d="M65.1206 52.8304C64.8408 51.1464 60.5218 48.0297 57.5214 53.4299C60.1218 51.0297 63.0833 51.3738 65.1206 52.8304Z" fill="#D07966"/>
<mask id="mask2_597_10602" style="mask-type:alpha" maskUnits="userSpaceOnUse" x="57" y="51" width="8" height="6">
<path d="M58.2412 53.0453C59.0143 51.7326 59.7331 51.9747 60.6939 51.4979C61.4564 51.1195 63.3635 51.8524 64.2433 52.2757C64.8088 52.656 64.8192 54.653 64.8428 55.0749C64.8663 55.4968 63.9421 56.3267 63.3874 56.4987C62.8328 56.6707 61.5903 56.599 59.1494 55.934C58.4699 55.7489 57.4681 54.3581 58.2412 53.0453Z" fill="url(#paint8_linear_597_10602)"/>
</mask>
<g mask="url(#mask2_597_10602)">
<path d="M58.2392 53.0454C59.0123 51.7326 59.7312 51.9747 60.692 51.4979C61.4545 51.1195 63.3616 51.8524 64.2414 52.2757C64.8068 52.656 64.8173 54.653 64.8408 55.0749C64.8644 55.4968 63.9401 56.3267 63.3855 56.4987C62.8308 56.6707 59.7335 56.3245 59.1475 55.9341C58.5614 55.5436 57.4661 54.3581 58.2392 53.0454Z" fill="url(#paint9_linear_597_10602)"/>
<path d="M62.1046 55.7691C61.4717 54.6625 61.5372 52.3443 61.8625 51.4327C62.3861 50.6982 64.2764 51.7212 64.589 52.268C64.9017 52.8148 65.5758 55.2268 64.7644 56.0212C63.6944 57.0689 63.0429 57.41 62.1046 55.7691Z" fill="url(#paint10_radial_597_10602)"/>
<ellipse cx="63.3037" cy="53.4988" rx="0.8" ry="1" transform="rotate(-3.1954 63.3037 53.4988)" fill="#1F2714"/>
<ellipse cx="62.0629" cy="52.7663" rx="0.4" ry="0.2" transform="rotate(-3.1954 62.0629 52.7663)" fill="white"/>
</g>
<path d="M59.4265 56.0299C58.6385 55.5092 58.1102 54.0869 58.123 53.475C58.545 52.4984 59.325 52.2905 60.0964 52.0299C61.5172 51.5498 64.1258 52.3661 65.0965 52.83C64.7862 52.5066 64.4113 51.9637 63.7232 51.6859C62.4182 51.1589 60.5068 51.0643 59.4265 51.5681C57.7767 52.3375 57.6141 51.9516 57.3171 51.6859C57.4891 52.2407 58.0205 52.6625 58.8954 52.1622C58.6377 52.5998 57.6902 53.3147 57.1844 53.0476C56.6785 52.7806 56.7738 52.8703 56.3522 52.4932C56.3968 53.2919 57.6444 53.5463 57.7083 53.6391C57.828 53.813 57.9401 54.5565 58.0964 54.8299C58.2527 55.1033 58.6964 55.8299 59.4265 56.0299Z" fill="#000525"/>
<path d="M59.4141 57.098C59.3971 56.5163 59.7588 56.1008 59.7588 56.1008L60.1693 56.2781C59.8498 56.296 59.4699 56.9024 59.4141 57.098Z" fill="black"/>
<path d="M58.9938 56.7441C58.9604 56.145 59.3486 55.923 59.3486 55.923L59.5594 56.1116C59.2399 56.1294 59.1712 56.3335 58.9938 56.7441Z" fill="black"/>
<path d="M59.8253 57.2982C59.8082 56.7166 60.1689 56.2775 60.1689 56.2775L60.5688 56.264C60.2493 56.2818 59.881 57.1027 59.8253 57.2982Z" fill="black"/>
<path d="M60.6155 57.0541L60.7817 56.4439L60.9819 56.4416C60.7934 56.6524 60.6155 57.0541 60.6155 57.0541Z" fill="black"/>
<path d="M61.0246 57.2318C61.0251 57.2406 61.1802 56.4307 61.1802 56.4307L61.3772 56.4197C61.3783 56.4191 61.3792 56.419 61.3799 56.4196L61.3772 56.4197C61.3379 56.4437 61.0251 57.2403 61.0246 57.2318Z" fill="black"/>
<path d="M61.6116 57.0073L61.5781 56.4082L61.7778 56.3971L61.6116 57.0073Z" fill="black"/>
<path d="M53.0915 58.3259C53.5141 59.0301 52.9513 59.5935 52.388 60.1569C51.6332 60.9116 52.5305 61.565 52.5288 61.565C51.9661 62.6918 51.8239 62.551 49.9929 61.565C48.1619 60.5791 48.3028 57.34 49.7112 56.354C51.1197 55.3681 52.669 57.6217 53.0915 58.3259Z" fill="#FA9CAE"/>
<path d="M67.8794 64.9379C69.7876 65.0572 70.4086 65.2209 71.1723 64.7933C70.1864 65.6383 71.0838 65.9998 69.9921 66.0647C68.2057 66.1709 65.7036 65.5304 65.0625 64.6562C65.8498 65.0499 66.8548 64.8739 67.8794 64.9379Z" fill="#F7E0E0"/>
<path d="M57.7732 47.3927C62.7309 43.5617 66.9591 39.3889 65.9732 37.7927C65.9732 31.9983 56.4131 33.9625 51.8238 38.8886C48.3731 42.5927 49.2465 46.7955 50.3732 52.9927C51.5 59.1899 53.8199 61.7927 53.8199 60.7927C53.8199 59.7927 51.576 52.1814 57.7732 47.3927Z" fill="url(#paint11_linear_597_10602)"/>
<g filter="url(#filter0_d_597_10602)">
<path d="M76.6244 42.5569C75.755 36.3521 69.4862 35.2108 67.6112 35.2758C64.4268 37.9631 72.5408 40.5201 73.4349 47.1931C73.8706 50.4444 73.2768 53.5898 74.0237 56.5931C74.1589 56.393 74.6302 60.9931 75.0174 56.3931C74.5752 53.8278 77.0093 45.3036 76.6244 42.5569Z" fill="url(#paint12_linear_597_10602)"/>
</g>
<path d="M56.7726 51.7186C60.7727 46.9934 63.8809 47.8834 64.6801 49.3918C61.4911 48.4862 62.0269 48.9433 60.4542 49.2681C59.6739 49.4293 57.6689 50.9281 56.7726 51.7186Z" fill="#C85B4B"/>
<path d="M73.7488 53.1129C73.4993 51.3543 71.7223 49.6303 69.7223 52.6302C72.3632 51.4564 71.7236 51.6263 73.7488 53.1129Z" fill="#D07966"/>
<path d="M73.4641 52.8496C72.9473 51.7588 72.5166 52.0013 71.9137 51.6377C71.4352 51.3491 70.2957 52.0703 69.773 52.4762C69.4407 52.8301 69.5024 54.5464 69.5024 54.9099C69.5024 55.2735 70.084 55.9554 70.4285 56.0766C70.773 56.1978 72.5166 55.8795 72.8611 55.5159C73.2057 55.1523 73.9808 53.9404 73.4641 52.8496Z" fill="url(#paint13_linear_597_10602)"/>
<mask id="mask3_597_10602" style="mask-type:alpha" maskUnits="userSpaceOnUse" x="69" y="51" width="5" height="6">
<path d="M73.4641 52.8505C72.9473 51.7597 72.5166 52.0022 71.9137 51.6386C71.4352 51.3501 70.2957 52.0713 69.773 52.4772C69.4407 52.8311 69.5024 54.5473 69.5024 54.9109C69.5024 55.2745 70.1053 56.1229 70.4498 56.2441C70.7944 56.3653 72.5166 55.8805 72.8611 55.5169C73.2057 55.1533 73.9808 53.9413 73.4641 52.8505Z" fill="#EDF1FA"/>
</mask>
<g mask="url(#mask3_597_10602)">
<path d="M73.6448 54.4189C74.1961 53.6433 73.8745 51.9141 73.6448 51.1465C73.3001 50.5406 71.2783 51.4938 71.1061 51.9786C70.9338 52.4634 70.9698 55.5589 73.0205 55.5589C74.1473 55.5589 72.9558 55.3885 73.6448 54.4189Z" fill="url(#paint14_radial_597_10602)"/>
</g>
<path d="M73.0319 55.2734C73.38 54.8717 73.5774 53.7383 73.5487 53.2132C73.237 52.336 72.833 52.0856 72.3125 51.922C71.4523 51.6518 70.3995 51.9369 69.845 52.3648C70.3619 51.8799 71.6542 51.0555 72.6878 51.6374C73.7214 52.2193 74.3802 51.7383 74.58 51.4297C74.4938 51.753 73.7088 52.5524 73.1576 52.1644C73.3298 52.528 73.5037 53.0114 73.9799 52.8065C74.3799 52.6344 74.7252 52.3648 74.7539 52.3648C74.7539 52.6344 73.8764 53.3343 73.8075 53.3343C73.7214 53.3343 73.7214 53.8191 73.6353 54.0615C73.5491 54.3039 73.4621 55.0309 73.0319 55.2734Z" fill="#000525"/>
<ellipse cx="0.6" cy="0.688411" rx="0.6" ry="0.688411" transform="matrix(-1 0 0 1 73.3789 52.6348)" fill="#1F2714"/>
<ellipse cx="0.4" cy="0.172103" rx="0.4" ry="0.172103" transform="matrix(-1 0 0 1 72.582 52.6348)" fill="white"/>
<path d="M73.031 56.4008C73.0175 55.9002 72.7813 55.5605 72.7813 55.5605L72.5043 55.7644C72.7843 55.7644 72.9727 56.2355 73.031 56.4008Z" fill="black"/>
<path d="M73.4961 55.9049C73.4961 55.3886 72.982 55.3887 72.982 55.3887L72.782 55.5608H72.7823C73.0622 55.5608 73.3211 55.5608 73.4961 55.9049Z" fill="black"/>
<path d="M72.6836 56.5934C72.6701 56.0928 72.3066 55.7646 72.3066 55.7646L71.9836 55.905C72.2636 55.905 72.6254 56.428 72.6836 56.5934Z" fill="black"/>
<path d="M71.582 56.4533V55.999H71.3051C71.4801 56.1711 71.582 56.4533 71.582 56.4533Z" fill="black"/>
<path d="M70.2157 49.745C71.4044 49.3128 73.4867 48.8843 74.2213 49.7447C73.9651 49.0958 73.2336 48.7766 72.2471 48.6083C71.2606 48.4399 70.5544 48.7735 70.2157 49.745Z" fill="#C85B4B"/>
<path d="M56.1912 74.3826C55.7687 75.5094 53.7969 78.9742 53.7969 82.6925C58.7265 90.7206 68.8673 82.6925 69.7124 79.8756C70.3884 77.6221 67.4588 74.5235 65.9096 73.2559C65.6748 73.7253 64.848 77.3404 60.5574 77.3404C56.8955 77.3404 57.8814 75.5094 56.1912 74.3826Z" fill="#F9EFE4"/>
<path d="M69.1474 65.7907C71.0556 65.91 70.3727 64.9933 72.1052 64.6562C71.2601 65.5013 70.8644 67.1284 69.7727 67.1933C67.9863 67.2994 66.8939 66.4872 64.7812 64.6562C65.1502 64.7177 66.434 64.9687 67.1727 65.1933C68.1258 65.483 68.5702 65.7546 69.1474 65.7907Z" fill="url(#paint15_linear_597_10602)"/>
<circle cx="68.9852" cy="66.3572" r="0.2" fill="white"/>
<circle cx="69.5828" cy="66.3572" r="0.2" fill="white"/>
<circle cx="70.977" cy="58.3256" r="0.28169" fill="white"/>
<path d="M64.7812 64.6597C70.4151 65.9241 71.0723 65.317 72.246 64.6597C72.1334 64.4343 71.6357 64.3533 71.401 63.9905C71.2601 63.8496 70.8376 64.234 70.5559 64.3748C70.3305 64.4875 69.8047 64.2252 69.4291 64.1313L64.7812 64.6597Z" fill="#D7506A"/>
<g filter="url(#filter1_f_597_10602)">
<path d="M72.3879 56.9181C70.8104 57.5942 69.9617 56.2922 69.5391 55.541C68.5532 57.372 67.7092 58.9213 67.1458 59.7664C66.5824 60.6114 67.85 60.6114 68.2726 60.6114C68.6951 60.6114 69.2585 60.8931 69.8219 61.4565C70.2726 61.9072 70.8753 61.7173 71.1203 61.566C72.3597 60.3266 72.4818 57.951 72.3879 56.9181Z" fill="#F5A69C" fill-opacity="0.6"/>
</g>
<path d="M69.4219 55.5938C69.8444 56.3449 70.8118 57.5941 72.3893 56.918C72.4832 57.9509 72.3611 60.3265 71.1217 61.5659" stroke="url(#paint16_linear_597_10602)" stroke-width="0.28169" stroke-linecap="round"/>
<path d="M68.1641 60.5791C68.8401 60.3537 69.5725 60.5787 69.7134 60.7196C69.7134 60.8603 69.4902 60.9186 69.2908 60.7196C69.15 60.579 68.3988 60.5322 68.1641 60.5791Z" fill="#3A2323"/>
<circle cx="70.977" cy="58.3256" r="0.28169" fill="white"/>
<circle cx="54.9015" cy="65.5089" r="1.97183" fill="url(#paint17_radial_597_10602)"/>
<g filter="url(#filter2_d_597_10602)">
<path d="M66.688 35.5588C67.6739 37.155 65.0459 42.3278 60.0882 46.1588C55.2289 49.9137 54.793 57.1256 54.8313 59.7752C54.865 60.1811 54.8883 60.5146 54.8883 60.7588C54.8883 60.8883 54.8418 60.5047 54.8313 59.7752C54.5614 56.5232 53.6261 48.6219 58.6882 44.7587C64.0403 40.6742 62.7756 34.1254 66.688 35.5588Z" fill="url(#paint18_linear_597_10602)"/>
</g>
</g>
<rect x="110.023" y="20.5566" width="270" height="113.504" rx="12" fill="#A2812A"/>
<rect x="122.023" y="32.5566" width="95.6115" height="20.8705" rx="10.4352" fill="#3D3110"/>
<path d="M136.031 46.9922H133.043V38.5078H136.066C138.621 38.5078 140.186 40.0957 140.18 42.7383C140.186 45.3926 138.621 46.9922 136.031 46.9922ZM134.801 45.4805H135.961C137.578 45.4805 138.422 44.6426 138.422 42.7383C138.422 40.8516 137.578 40.0195 135.973 40.0195H134.801V45.4805ZM141.117 45.2109C141.123 43.793 142.26 43.3301 143.484 43.2539C143.941 43.2246 144.797 43.1836 145.066 43.1719V42.6562C145.061 42.123 144.697 41.8184 144.047 41.8125C143.455 41.8184 143.086 42.082 142.992 42.5156H141.34C141.445 41.4141 142.406 40.5469 144.094 40.5469C145.482 40.5469 146.795 41.168 146.789 42.7031V46.9922H145.148V46.1133H145.102C144.791 46.6992 144.182 47.1152 143.238 47.1094C142.02 47.1152 141.123 46.4707 141.117 45.2109ZM142.781 45.1641C142.781 45.6504 143.174 45.9082 143.73 45.9141C144.521 45.9082 145.072 45.3926 145.066 44.7188V44.2559C144.803 44.2676 144.059 44.3086 143.766 44.332C143.162 44.3848 142.781 44.6719 142.781 45.1641ZM151.465 40.6289V41.9297H150.27V45.0352C150.264 45.5449 150.516 45.668 150.867 45.6797C151.043 45.6797 151.348 45.6621 151.559 45.6445V47.0156C151.371 47.0449 151.061 47.0801 150.633 47.0742C149.379 47.0801 148.523 46.5176 148.535 45.2812V41.9297H147.656V40.6289H148.535V39.1055H150.27V40.6289H151.465ZM152.25 45.2109C152.256 43.793 153.393 43.3301 154.617 43.2539C155.074 43.2246 155.93 43.1836 156.199 43.1719V42.6562C156.193 42.123 155.83 41.8184 155.18 41.8125C154.588 41.8184 154.219 42.082 154.125 42.5156H152.473C152.578 41.4141 153.539 40.5469 155.227 40.5469C156.615 40.5469 157.928 41.168 157.922 42.7031V46.9922H156.281V46.1133H156.234C155.924 46.6992 155.314 47.1152 154.371 47.1094C153.152 47.1152 152.256 46.4707 152.25 45.2109ZM153.914 45.1641C153.914 45.6504 154.307 45.9082 154.863 45.9141C155.654 45.9082 156.205 45.3926 156.199 44.7188V44.2559C155.936 44.2676 155.191 44.3086 154.898 44.332C154.295 44.3848 153.914 44.6719 153.914 45.1641ZM166.652 40.9336C166.582 40.2598 166.049 39.8672 165.188 39.8672C164.297 39.8672 163.799 40.2773 163.793 40.8398C163.787 41.4551 164.42 41.7305 165.152 41.8945L165.914 42.082C167.367 42.416 168.451 43.1543 168.457 44.5664C168.451 46.1191 167.244 47.1152 165.176 47.1094C163.125 47.1152 161.818 46.166 161.766 44.3438H163.477C163.535 45.1992 164.215 45.6328 165.152 45.6328C166.078 45.6328 166.676 45.1992 166.676 44.5664C166.676 43.9863 166.148 43.7168 165.223 43.4883L164.297 43.2656C162.867 42.9141 161.988 42.1992 161.988 40.957C161.982 39.416 163.342 38.3906 165.199 38.3906C167.08 38.3906 168.316 39.4336 168.34 40.9336H166.652ZM172.43 47.1211C170.479 47.1152 169.307 45.7676 169.312 43.8281C169.307 41.8828 170.502 40.5469 172.43 40.5469C174.07 40.5469 175.184 41.502 175.254 42.9609H173.625C173.52 42.334 173.109 41.9004 172.453 41.8945C171.621 41.9004 171.07 42.5977 171.07 43.8047C171.07 45.0352 171.609 45.7383 172.453 45.7383C173.062 45.7383 173.514 45.3574 173.625 44.6836H175.254C175.178 46.125 174.117 47.1152 172.43 47.1211ZM176.332 46.9922V40.6289H178.066V46.9922H176.332ZM176.25 38.918C176.25 38.4258 176.678 38.0332 177.199 38.0273C177.715 38.0332 178.143 38.4258 178.137 38.918C178.143 39.3984 177.715 39.7969 177.199 39.7969C176.678 39.7969 176.25 39.3984 176.25 38.918ZM182.297 47.1211C180.346 47.1152 179.15 45.8555 179.156 43.8398C179.15 41.877 180.363 40.5469 182.227 40.5469C183.896 40.5469 185.215 41.6016 185.215 43.7695V44.2617H180.867C180.867 45.2227 181.436 45.8145 182.332 45.8203C182.924 45.8145 183.346 45.5566 183.516 45.1758H185.168C184.922 46.3535 183.867 47.1152 182.297 47.1211ZM180.867 43.1719H183.574C183.568 42.3984 183.035 41.8418 182.262 41.8477C181.465 41.8418 180.902 42.4395 180.867 43.1719ZM188.039 43.3125V46.9922H186.305V40.6289H187.957V41.7422H188.027C188.314 41.0098 188.994 40.5469 189.938 40.5469C191.268 40.5469 192.135 41.4551 192.129 42.9375V46.9922H190.406V43.2422C190.4 42.457 189.979 41.9883 189.258 41.9883C188.537 41.9883 188.039 42.4746 188.039 43.3125ZM196.828 40.6289V41.9297H195.633V45.0352C195.627 45.5449 195.879 45.668 196.23 45.6797C196.406 45.6797 196.711 45.6621 196.922 45.6445V47.0156C196.734 47.0449 196.424 47.0801 195.996 47.0742C194.742 47.0801 193.887 46.5176 193.898 45.2812V41.9297H193.02V40.6289H193.898V39.1055H195.633V40.6289H196.828ZM197.918 46.9922V40.6289H199.652V46.9922H197.918ZM197.836 38.918C197.836 38.4258 198.264 38.0332 198.785 38.0273C199.301 38.0332 199.729 38.4258 199.723 38.918C199.729 39.3984 199.301 39.7969 198.785 39.7969C198.264 39.7969 197.836 39.3984 197.836 38.918ZM204.633 42.5156C204.557 42.0703 204.17 41.7832 203.59 41.7773C203.027 41.7832 202.6 42.0469 202.605 42.4336C202.6 42.7207 202.822 42.9434 203.426 43.0664L204.562 43.3008C205.799 43.5586 206.396 44.1094 206.402 45.0234C206.396 46.2773 205.271 47.1152 203.578 47.1211C201.861 47.1152 200.854 46.3477 200.707 45.1055H202.453C202.535 45.6035 202.939 45.8613 203.578 45.8672C204.211 45.8613 204.633 45.6094 204.633 45.1992C204.633 44.8711 204.363 44.666 203.766 44.543L202.711 44.332C201.498 44.0918 200.877 43.4707 200.883 42.5273C200.877 41.3086 201.926 40.5469 203.566 40.5469C205.172 40.5469 206.168 41.3086 206.262 42.5156H204.633Z" fill="#ECECF8"/>
<path d="M123.453 79.2441V62.2754H134.844V65.1816H126.969V69.3066H134.258V72.2129H126.969V76.3379H134.867V79.2441H123.453ZM140.984 62.2754V79.2441H137.516V62.2754H140.984ZM147.148 62.2754V79.2441H143.68V62.2754H147.148ZM149.844 79.2441V66.5176H153.312V79.2441H149.844ZM149.68 63.0957C149.68 62.1113 150.535 61.3262 151.578 61.3145C152.609 61.3262 153.465 62.1113 153.453 63.0957C153.465 64.0566 152.609 64.8535 151.578 64.8535C150.535 64.8535 149.68 64.0566 149.68 63.0957ZM161.773 79.502C157.871 79.4902 155.48 76.9707 155.492 72.9395C155.48 69.0137 157.906 66.3535 161.633 66.3535C164.973 66.3535 167.609 68.4629 167.609 72.7988V73.7832H158.914C158.914 75.7051 160.051 76.8887 161.844 76.9004C163.027 76.8887 163.871 76.373 164.211 75.6113H167.516C167.023 77.9668 164.914 79.4902 161.773 79.502ZM158.914 71.6035H164.328C164.316 70.0566 163.25 68.9434 161.703 68.9551C160.109 68.9434 158.984 70.1387 158.914 71.6035Z" fill="#ECECF8"/>
<path d="M124.539 91.1621V101.061H123.035V91.1621H124.539ZM131.443 101.061L129.27 93.6367H130.773L132.223 99.0781H132.305L133.754 93.6367H135.258L136.693 99.0508H136.775L138.211 93.6367H139.715L137.541 101.061H136.051L134.547 95.7148H134.438L132.947 101.061H131.443ZM140.576 98.9688C140.569 97.2734 142.012 96.8359 143.352 96.7402C143.844 96.7129 144.958 96.6514 145.3 96.6377L145.293 96.043C145.3 95.2021 144.78 94.7168 143.789 94.7168C142.928 94.7168 142.408 95.1133 142.258 95.6602H140.809C140.938 94.4297 142.087 93.541 143.844 93.541C145.026 93.541 146.749 93.9717 146.756 96.125V101.061H145.334V100.049H145.279C144.992 100.603 144.309 101.225 143.078 101.225C141.67 101.225 140.569 100.418 140.576 98.9688ZM141.998 98.9824C141.998 99.6934 142.586 100.056 143.406 100.062C144.596 100.056 145.307 99.2627 145.307 98.3809L145.3 97.7041C144.965 97.7246 143.905 97.7998 143.557 97.8203C142.6 97.8887 141.998 98.251 141.998 98.9824ZM149.982 96.6582V101.061H148.52V93.6367H149.928V94.8535H150.01C150.358 94.0537 151.09 93.541 152.197 93.541C153.722 93.541 154.733 94.5049 154.727 96.3438V101.061H153.277V96.5215C153.271 95.4414 152.689 94.7988 151.705 94.7988C150.7 94.7988 149.982 95.4756 149.982 96.6582ZM159.977 93.6367V94.7988H158.459V98.873C158.466 99.7139 158.876 99.8643 159.348 99.8711C159.56 99.8711 159.881 99.8506 160.086 99.8301V101.102C159.888 101.129 159.573 101.156 159.17 101.156C158.028 101.156 156.996 100.527 157.01 99.1738V94.7988H155.916V93.6367H157.01V91.8594H158.459V93.6367H159.977ZM168.289 93.6367V94.7988H166.771V98.873C166.778 99.7139 167.188 99.8643 167.66 99.8711C167.872 99.8711 168.193 99.8506 168.398 99.8301V101.102C168.2 101.129 167.886 101.156 167.482 101.156C166.341 101.156 165.309 100.527 165.322 99.1738V94.7988H164.229V93.6367H165.322V91.8594H166.771V93.6367H168.289ZM172.773 101.211C170.668 101.211 169.294 99.6797 169.301 97.3828C169.294 95.0723 170.668 93.541 172.773 93.541C174.865 93.541 176.232 95.0723 176.232 97.3828C176.232 99.6797 174.865 101.211 172.773 101.211ZM170.764 97.3828C170.764 98.7979 171.413 99.9941 172.773 99.9941C174.113 99.9941 174.756 98.7979 174.756 97.3828C174.756 95.9609 174.113 94.751 172.773 94.7441C171.413 94.751 170.764 95.9609 170.764 97.3828ZM181.086 101.061V93.6367H182.494V94.8125H182.576C182.85 94.0195 183.595 93.5205 184.463 93.5273C184.641 93.5205 184.928 93.541 185.078 93.5547V94.9492C184.955 94.9219 184.613 94.8604 184.312 94.8672C183.301 94.8604 182.549 95.5645 182.549 96.5352V101.061H181.086ZM189.125 101.211C186.938 101.211 185.591 99.7002 185.598 97.3965C185.591 95.1133 186.958 93.541 189.029 93.541C190.718 93.541 192.324 94.5869 192.324 97.2734V97.793H187.047C187.088 99.208 187.922 100.008 189.139 100.008C189.966 100.008 190.506 99.6523 190.752 99.2012H192.229C191.9 100.404 190.759 101.211 189.125 101.211ZM187.054 96.6992H190.889C190.889 95.5713 190.157 94.7373 189.043 94.7441C187.874 94.7373 187.115 95.6533 187.054 96.6992ZM197.943 95.6602C197.807 95.0723 197.342 94.6895 196.535 94.6895C195.701 94.6895 195.106 95.1201 195.113 95.6875C195.106 96.125 195.455 96.4395 196.275 96.6309L197.451 96.9043C198.818 97.2119 199.481 97.8613 199.488 98.9141C199.481 100.254 198.347 101.211 196.453 101.211C194.669 101.211 193.616 100.418 193.432 99.0371H194.922C195.052 99.707 195.558 100.042 196.439 100.035C197.383 100.042 197.991 99.6455 197.998 99.0234C197.991 98.5449 197.636 98.2373 196.85 98.0527L195.688 97.8066C194.348 97.5127 193.65 96.7949 193.65 95.7695C193.65 94.4502 194.799 93.541 196.521 93.541C198.176 93.541 199.208 94.3818 199.352 95.6602H197.943ZM204.055 101.211C201.949 101.211 200.575 99.6797 200.582 97.3828C200.575 95.0723 201.949 93.541 204.055 93.541C206.146 93.541 207.514 95.0723 207.514 97.3828C207.514 99.6797 206.146 101.211 204.055 101.211ZM202.045 97.3828C202.045 98.7979 202.694 99.9941 204.055 99.9941C205.395 99.9941 206.037 98.7979 206.037 97.3828C206.037 95.9609 205.395 94.751 204.055 94.7441C202.694 94.751 202.045 95.9609 202.045 97.3828ZM210.412 91.1621V101.061H208.949V91.1621H210.412ZM218.561 93.6367L215.867 101.061H214.295L211.602 93.6367H213.174L215.047 99.3379H215.115L216.988 93.6367H218.561ZM222.689 101.211C220.502 101.211 219.155 99.7002 219.162 97.3965C219.155 95.1133 220.522 93.541 222.594 93.541C224.282 93.541 225.889 94.5869 225.889 97.2734V97.793H220.611C220.652 99.208 221.486 100.008 222.703 100.008C223.53 100.008 224.07 99.6523 224.316 99.2012H225.793C225.465 100.404 224.323 101.211 222.689 101.211ZM220.618 96.6992H224.453C224.453 95.5713 223.722 94.7373 222.607 94.7441C221.438 94.7373 220.68 95.6533 220.618 96.6992ZM230.414 98.9688C230.407 97.2734 231.85 96.8359 233.189 96.7402C233.682 96.7129 234.796 96.6514 235.138 96.6377L235.131 96.043C235.138 95.2021 234.618 94.7168 233.627 94.7168C232.766 94.7168 232.246 95.1133 232.096 95.6602H230.646C230.776 94.4297 231.925 93.541 233.682 93.541C234.864 93.541 236.587 93.9717 236.594 96.125V101.061H235.172V100.049H235.117C234.83 100.603 234.146 101.225 232.916 101.225C231.508 101.225 230.407 100.418 230.414 98.9688ZM231.836 98.9824C231.836 99.6934 232.424 100.056 233.244 100.062C234.434 100.056 235.145 99.2627 235.145 98.3809L235.138 97.7041C234.803 97.7246 233.743 97.7998 233.395 97.8203C232.438 97.8887 231.836 98.251 231.836 98.9824ZM239.82 96.6582V101.061H238.357V93.6367H239.766V94.8535H239.848C240.196 94.0537 240.928 93.541 242.035 93.541C243.56 93.541 244.571 94.5049 244.564 96.3438V101.061H243.115V96.5215C243.108 95.4414 242.527 94.7988 241.543 94.7988C240.538 94.7988 239.82 95.4756 239.82 96.6582ZM246.971 103.85C246.67 103.843 246.376 103.836 246.191 103.809V102.592C246.355 102.605 246.643 102.612 246.848 102.619C247.299 102.612 247.675 102.585 248.023 101.648L248.201 101.156L245.48 93.6367H247.039L248.912 99.3926H248.994L250.867 93.6367H252.439L249.377 102.045C248.946 103.221 248.194 103.843 246.971 103.85ZM257.047 101.061V93.6367H258.51V101.061H257.047ZM256.855 91.627C256.862 91.1484 257.279 90.7656 257.785 90.7656C258.284 90.7656 258.701 91.1484 258.701 91.627C258.701 92.1055 258.284 92.4951 257.785 92.4883C257.279 92.4951 256.862 92.1055 256.855 91.627ZM261.75 96.6582V101.061H260.287V93.6367H261.695V94.8535H261.777C262.126 94.0537 262.857 93.541 263.965 93.541C265.489 93.541 266.501 94.5049 266.494 96.3438V101.061H265.045V96.5215C265.038 95.4414 264.457 94.7988 263.473 94.7988C262.468 94.7988 261.75 95.4756 261.75 96.6582ZM271.812 93.6367V94.7988H270.213V101.061H268.75V94.7988H267.602V93.6367H268.75V92.7754C268.757 91.4492 269.604 90.6973 270.965 90.6973C271.313 90.6973 271.676 90.7383 271.963 90.793V92.0098C271.689 91.9688 271.478 91.9551 271.348 91.9551C270.575 91.9551 270.213 92.2695 270.213 92.9941V93.6367H271.812ZM273.139 101.061V93.6367H274.547V94.8125H274.629C274.902 94.0195 275.647 93.5205 276.516 93.5273C276.693 93.5205 276.98 93.541 277.131 93.5547V94.9492C277.008 94.9219 276.666 94.8604 276.365 94.8672C275.354 94.8604 274.602 95.5645 274.602 96.5352V101.061H273.139ZM277.801 98.9688C277.794 97.2734 279.236 96.8359 280.576 96.7402C281.068 96.7129 282.183 96.6514 282.524 96.6377L282.518 96.043C282.524 95.2021 282.005 94.7168 281.014 94.7168C280.152 94.7168 279.633 95.1133 279.482 95.6602H278.033C278.163 94.4297 279.312 93.541 281.068 93.541C282.251 93.541 283.974 93.9717 283.98 96.125V101.061H282.559V100.049H282.504C282.217 100.603 281.533 101.225 280.303 101.225C278.895 101.225 277.794 100.418 277.801 98.9688ZM279.223 98.9824C279.223 99.6934 279.811 100.056 280.631 100.062C281.82 100.056 282.531 99.2627 282.531 98.3809L282.524 97.7041C282.189 97.7246 281.13 97.7998 280.781 97.8203C279.824 97.8887 279.223 98.251 279.223 98.9824ZM289.914 95.6602C289.777 95.0723 289.312 94.6895 288.506 94.6895C287.672 94.6895 287.077 95.1201 287.084 95.6875C287.077 96.125 287.426 96.4395 288.246 96.6309L289.422 96.9043C290.789 97.2119 291.452 97.8613 291.459 98.9141C291.452 100.254 290.317 101.211 288.424 101.211C286.64 101.211 285.587 100.418 285.402 99.0371H286.893C287.022 99.707 287.528 100.042 288.41 100.035C289.354 100.042 289.962 99.6455 289.969 99.0234C289.962 98.5449 289.606 98.2373 288.82 98.0527L287.658 97.8066C286.318 97.5127 285.621 96.7949 285.621 95.7695C285.621 94.4502 286.77 93.541 288.492 93.541C290.146 93.541 291.179 94.3818 291.322 95.6602H289.914ZM296.354 93.6367V94.7988H294.836V98.873C294.843 99.7139 295.253 99.8643 295.725 99.8711C295.937 99.8711 296.258 99.8506 296.463 99.8301V101.102C296.265 101.129 295.95 101.156 295.547 101.156C294.405 101.156 293.373 100.527 293.387 99.1738V94.7988H292.293V93.6367H293.387V91.8594H294.836V93.6367H296.354ZM297.775 101.061V93.6367H299.184V94.8125H299.266C299.539 94.0195 300.284 93.5205 301.152 93.5273C301.33 93.5205 301.617 93.541 301.768 93.5547V94.9492C301.645 94.9219 301.303 94.8604 301.002 94.8672C299.99 94.8604 299.238 95.5645 299.238 96.5352V101.061H297.775ZM307.578 97.9707V93.6367H309.027V101.061H307.605V99.7754H307.523C307.182 100.568 306.423 101.156 305.309 101.156C303.873 101.156 302.861 100.192 302.861 98.3535V93.6367H304.324V98.1758C304.324 99.1875 304.939 99.8301 305.828 99.8301C306.642 99.8301 307.578 99.2354 307.578 97.9707ZM313.949 101.211C311.782 101.211 310.47 99.6182 310.477 97.3828C310.47 95.1201 311.83 93.541 313.922 93.541C315.617 93.541 316.841 94.5391 316.998 96.043H315.576C315.426 95.3457 314.872 94.7646 313.949 94.7578C312.746 94.7646 311.939 95.7627 311.939 97.3418C311.939 98.9688 312.726 99.9736 313.949 99.9668C314.776 99.9736 315.392 99.5088 315.576 98.709H316.998C316.841 100.151 315.699 101.211 313.949 101.211ZM321.852 93.6367V94.7988H320.334V98.873C320.341 99.7139 320.751 99.8643 321.223 99.8711C321.435 99.8711 321.756 99.8506 321.961 99.8301V101.102C321.763 101.129 321.448 101.156 321.045 101.156C319.903 101.156 318.871 100.527 318.885 99.1738V94.7988H317.791V93.6367H318.885V91.8594H320.334V93.6367H321.852ZM327.99 97.9707V93.6367H329.439V101.061H328.018V99.7754H327.936C327.594 100.568 326.835 101.156 325.721 101.156C324.285 101.156 323.273 100.192 323.273 98.3535V93.6367H324.736V98.1758C324.736 99.1875 325.352 99.8301 326.24 99.8301C327.054 99.8301 327.99 99.2354 327.99 97.9707ZM331.217 101.061V93.6367H332.625V94.8125H332.707C332.98 94.0195 333.726 93.5205 334.594 93.5273C334.771 93.5205 335.059 93.541 335.209 93.5547V94.9492C335.086 94.9219 334.744 94.8604 334.443 94.8672C333.432 94.8604 332.68 95.5645 332.68 96.5352V101.061H331.217ZM335.879 98.9688C335.872 97.2734 337.314 96.8359 338.654 96.7402C339.146 96.7129 340.261 96.6514 340.603 96.6377L340.596 96.043C340.603 95.2021 340.083 94.7168 339.092 94.7168C338.23 94.7168 337.711 95.1133 337.561 95.6602H336.111C336.241 94.4297 337.39 93.541 339.146 93.541C340.329 93.541 342.052 93.9717 342.059 96.125V101.061H340.637V100.049H340.582C340.295 100.603 339.611 101.225 338.381 101.225C336.973 101.225 335.872 100.418 335.879 98.9688ZM337.301 98.9824C337.301 99.6934 337.889 100.056 338.709 100.062C339.898 100.056 340.609 99.2627 340.609 98.3809L340.603 97.7041C340.268 97.7246 339.208 97.7998 338.859 97.8203C337.902 97.8887 337.301 98.251 337.301 98.9824ZM345.285 91.1621V101.061H343.822V91.1621H345.285ZM122.912 118.061V110.637H124.375V118.061H122.912ZM122.721 108.627C122.728 108.148 123.145 107.766 123.65 107.766C124.149 107.766 124.566 108.148 124.566 108.627C124.566 109.105 124.149 109.495 123.65 109.488C123.145 109.495 122.728 109.105 122.721 108.627ZM130.322 112.66C130.186 112.072 129.721 111.689 128.914 111.689C128.08 111.689 127.485 112.12 127.492 112.688C127.485 113.125 127.834 113.439 128.654 113.631L129.83 113.904C131.197 114.212 131.86 114.861 131.867 115.914C131.86 117.254 130.726 118.211 128.832 118.211C127.048 118.211 125.995 117.418 125.811 116.037H127.301C127.431 116.707 127.937 117.042 128.818 117.035C129.762 117.042 130.37 116.646 130.377 116.023C130.37 115.545 130.015 115.237 129.229 115.053L128.066 114.807C126.727 114.513 126.029 113.795 126.029 112.77C126.029 111.45 127.178 110.541 128.9 110.541C130.555 110.541 131.587 111.382 131.73 112.66H130.322ZM137.459 112.66C137.322 112.072 136.857 111.689 136.051 111.689C135.217 111.689 134.622 112.12 134.629 112.688C134.622 113.125 134.971 113.439 135.791 113.631L136.967 113.904C138.334 114.212 138.997 114.861 139.004 115.914C138.997 117.254 137.862 118.211 135.969 118.211C134.185 118.211 133.132 117.418 132.947 116.037H134.438C134.567 116.707 135.073 117.042 135.955 117.035C136.898 117.042 137.507 116.646 137.514 116.023C137.507 115.545 137.151 115.237 136.365 115.053L135.203 114.807C133.863 114.513 133.166 113.795 133.166 112.77C133.166 111.45 134.314 110.541 136.037 110.541C137.691 110.541 138.724 111.382 138.867 112.66H137.459ZM145.143 114.971V110.637H146.592V118.061H145.17V116.775H145.088C144.746 117.568 143.987 118.156 142.873 118.156C141.438 118.156 140.426 117.192 140.426 115.354V110.637H141.889V115.176C141.889 116.188 142.504 116.83 143.393 116.83C144.206 116.83 145.143 116.235 145.143 114.971ZM151.568 118.211C149.381 118.211 148.034 116.7 148.041 114.396C148.034 112.113 149.401 110.541 151.473 110.541C153.161 110.541 154.768 111.587 154.768 114.273V114.793H149.49C149.531 116.208 150.365 117.008 151.582 117.008C152.409 117.008 152.949 116.652 153.195 116.201H154.672C154.344 117.404 153.202 118.211 151.568 118.211ZM149.497 113.699H153.332C153.332 112.571 152.601 111.737 151.486 111.744C150.317 111.737 149.559 112.653 149.497 113.699ZM160.387 112.66C160.25 112.072 159.785 111.689 158.979 111.689C158.145 111.689 157.55 112.12 157.557 112.688C157.55 113.125 157.898 113.439 158.719 113.631L159.895 113.904C161.262 114.212 161.925 114.861 161.932 115.914C161.925 117.254 160.79 118.211 158.896 118.211C157.112 118.211 156.06 117.418 155.875 116.037H157.365C157.495 116.707 158.001 117.042 158.883 117.035C159.826 117.042 160.435 116.646 160.441 116.023C160.435 115.545 160.079 115.237 159.293 115.053L158.131 114.807C156.791 114.513 156.094 113.795 156.094 112.77C156.094 111.45 157.242 110.541 158.965 110.541C160.619 110.541 161.651 111.382 161.795 112.66H160.387ZM168.371 118.061L166.197 110.637H167.701L169.15 116.078H169.232L170.682 110.637H172.186L173.621 116.051H173.703L175.139 110.637H176.643L174.469 118.061H172.979L171.475 112.715H171.365L169.875 118.061H168.371ZM179.309 113.658V118.061H177.846V108.162H179.281V111.854H179.377C179.726 111.047 180.423 110.541 181.578 110.541C183.103 110.541 184.121 111.484 184.121 113.344V118.061H182.658V113.521C182.658 112.428 182.07 111.799 181.086 111.799C180.054 111.799 179.309 112.476 179.309 113.658ZM185.885 118.061V110.637H187.348V118.061H185.885ZM185.693 108.627C185.7 108.148 186.117 107.766 186.623 107.766C187.122 107.766 187.539 108.148 187.539 108.627C187.539 109.105 187.122 109.495 186.623 109.488C186.117 109.495 185.7 109.105 185.693 108.627ZM190.588 108.162V118.061H189.125V108.162H190.588ZM195.564 118.211C193.377 118.211 192.03 116.7 192.037 114.396C192.03 112.113 193.397 110.541 195.469 110.541C197.157 110.541 198.764 111.587 198.764 114.273V114.793H193.486C193.527 116.208 194.361 117.008 195.578 117.008C196.405 117.008 196.945 116.652 197.191 116.201H198.668C198.34 117.404 197.198 118.211 195.564 118.211ZM193.493 113.699H197.328C197.328 112.571 196.597 111.737 195.482 111.744C194.313 111.737 193.555 112.653 193.493 113.699ZM206.775 118.211C204.67 118.211 203.296 116.68 203.303 114.383C203.296 112.072 204.67 110.541 206.775 110.541C208.867 110.541 210.234 112.072 210.234 114.383C210.234 116.68 208.867 118.211 206.775 118.211ZM204.766 114.383C204.766 115.798 205.415 116.994 206.775 116.994C208.115 116.994 208.758 115.798 208.758 114.383C208.758 112.961 208.115 111.751 206.775 111.744C205.415 111.751 204.766 112.961 204.766 114.383ZM211.67 120.85V110.637H213.092V111.84H213.215C213.475 111.375 213.974 110.541 215.348 110.541C217.146 110.541 218.465 111.949 218.465 114.369C218.465 116.762 217.159 118.204 215.361 118.211C214.015 118.204 213.481 117.384 213.215 116.898H213.133V120.85H211.67ZM213.105 114.342C213.105 115.9 213.789 116.96 215.033 116.967C216.318 116.96 216.988 115.832 216.988 114.342C216.988 112.879 216.339 111.778 215.033 111.785C213.775 111.778 213.105 112.797 213.105 114.342ZM223.113 118.211C220.926 118.211 219.579 116.7 219.586 114.396C219.579 112.113 220.946 110.541 223.018 110.541C224.706 110.541 226.312 111.587 226.312 114.273V114.793H221.035C221.076 116.208 221.91 117.008 223.127 117.008C223.954 117.008 224.494 116.652 224.74 116.201H226.217C225.889 117.404 224.747 118.211 223.113 118.211ZM221.042 113.699H224.877C224.877 112.571 224.146 111.737 223.031 111.744C221.862 111.737 221.104 112.653 221.042 113.699ZM227.762 118.061V110.637H229.17V111.812H229.252C229.525 111.02 230.271 110.521 231.139 110.527C231.316 110.521 231.604 110.541 231.754 110.555V111.949C231.631 111.922 231.289 111.86 230.988 111.867C229.977 111.86 229.225 112.564 229.225 113.535V118.061H227.762ZM232.424 115.969C232.417 114.273 233.859 113.836 235.199 113.74C235.691 113.713 236.806 113.651 237.147 113.638L237.141 113.043C237.147 112.202 236.628 111.717 235.637 111.717C234.775 111.717 234.256 112.113 234.105 112.66H232.656C232.786 111.43 233.935 110.541 235.691 110.541C236.874 110.541 238.597 110.972 238.604 113.125V118.061H237.182V117.049H237.127C236.84 117.603 236.156 118.225 234.926 118.225C233.518 118.225 232.417 117.418 232.424 115.969ZM233.846 115.982C233.846 116.693 234.434 117.056 235.254 117.062C236.443 117.056 237.154 116.263 237.154 115.381L237.147 114.704C236.812 114.725 235.753 114.8 235.404 114.82C234.447 114.889 233.846 115.251 233.846 115.982ZM243.84 110.637V111.799H242.322V115.873C242.329 116.714 242.739 116.864 243.211 116.871C243.423 116.871 243.744 116.851 243.949 116.83V118.102C243.751 118.129 243.437 118.156 243.033 118.156C241.892 118.156 240.859 117.527 240.873 116.174V111.799H239.779V110.637H240.873V108.859H242.322V110.637H243.84ZM245.262 118.061V110.637H246.725V118.061H245.262ZM245.07 108.627C245.077 108.148 245.494 107.766 246 107.766C246.499 107.766 246.916 108.148 246.916 108.627C246.916 109.105 246.499 109.495 246 109.488C245.494 109.495 245.077 109.105 245.07 108.627ZM249.965 113.658V118.061H248.502V110.637H249.91V111.854H249.992C250.341 111.054 251.072 110.541 252.18 110.541C253.704 110.541 254.716 111.505 254.709 113.344V118.061H253.26V113.521C253.253 112.441 252.672 111.799 251.688 111.799C250.683 111.799 249.965 112.476 249.965 113.658ZM259.604 121C257.73 121 256.493 120.173 256.363 118.785H257.854C257.997 119.489 258.653 119.831 259.617 119.824C260.779 119.831 261.511 119.325 261.518 118.17V116.707H261.422C261.162 117.186 260.629 117.951 259.262 117.951C257.512 117.951 256.158 116.646 256.158 114.273C256.158 111.901 257.491 110.541 259.275 110.541C260.656 110.541 261.162 111.375 261.436 111.84H261.531V110.637H262.953V118.225C262.96 120.132 261.518 121 259.604 121ZM257.648 114.301C257.642 115.757 258.312 116.741 259.59 116.748C260.834 116.741 261.531 115.832 261.531 114.301C261.531 112.797 260.848 111.778 259.59 111.785C258.298 111.778 257.642 112.879 257.648 114.301ZM268.271 108.162H270.104L273.234 115.832H273.357L276.488 108.162H278.32V118.061H276.885V110.91H276.789L273.891 118.047H272.701L269.789 110.896H269.707V118.061H268.271V108.162ZM280.344 118.061V108.162H281.848V116.762H286.318V118.061H280.344ZM296.066 113.111C296.066 116.276 294.166 118.197 291.609 118.197C289.032 118.197 287.139 116.27 287.139 113.111C287.139 109.946 289.032 108.025 291.609 108.025C294.166 108.025 296.066 109.946 296.066 113.111ZM288.629 113.111C288.636 115.518 289.9 116.823 291.609 116.816C293.305 116.823 294.569 115.518 294.576 113.111C294.569 110.705 293.305 109.399 291.609 109.406C289.9 109.399 288.636 110.705 288.629 113.111ZM297.639 120.85V110.637H299.061V111.84H299.184C299.443 111.375 299.942 110.541 301.316 110.541C303.114 110.541 304.434 111.949 304.434 114.369C304.434 116.762 303.128 118.204 301.33 118.211C299.983 118.204 299.45 117.384 299.184 116.898H299.102V120.85H297.639ZM299.074 114.342C299.074 115.9 299.758 116.96 301.002 116.967C302.287 116.96 302.957 115.832 302.957 114.342C302.957 112.879 302.308 111.778 301.002 111.785C299.744 111.778 299.074 112.797 299.074 114.342ZM310.053 112.66C309.916 112.072 309.451 111.689 308.645 111.689C307.811 111.689 307.216 112.12 307.223 112.688C307.216 113.125 307.564 113.439 308.385 113.631L309.561 113.904C310.928 114.212 311.591 114.861 311.598 115.914C311.591 117.254 310.456 118.211 308.562 118.211C306.778 118.211 305.726 117.418 305.541 116.037H307.031C307.161 116.707 307.667 117.042 308.549 117.035C309.492 117.042 310.101 116.646 310.107 116.023C310.101 115.545 309.745 115.237 308.959 115.053L307.797 114.807C306.457 114.513 305.76 113.795 305.76 112.77C305.76 111.45 306.908 110.541 308.631 110.541C310.285 110.541 311.317 111.382 311.461 112.66H310.053Z" fill="#ECECF8"/>
<g clip-path="url(#clip2_597_10602)">
<path d="M40.4746 196.857V195.162H48.582V196.857H45.5469V205.061H43.5098V196.857H40.4746ZM52.0957 205.211C49.8193 205.204 48.4248 203.734 48.4316 201.383C48.4248 199.093 49.8398 197.541 52.0137 197.541C53.9619 197.541 55.5 198.771 55.5 201.301V201.875H50.4277C50.4277 202.996 51.0908 203.687 52.1367 203.693C52.8271 203.687 53.3193 203.386 53.5176 202.941H55.4453C55.1582 204.315 53.9277 205.204 52.0957 205.211ZM50.4277 200.604H53.5859C53.5791 199.701 52.957 199.052 52.0547 199.059C51.125 199.052 50.4688 199.749 50.4277 200.604ZM60.1074 205.211C57.8311 205.204 56.4639 203.632 56.4707 201.369C56.4639 199.1 57.8584 197.541 60.1074 197.541C62.0215 197.541 63.3203 198.655 63.4023 200.357H61.502C61.3789 199.626 60.9004 199.12 60.1348 199.113C59.1641 199.12 58.5215 199.934 58.5215 201.342C58.5215 202.777 59.1504 203.598 60.1348 203.598C60.8457 203.598 61.3721 203.153 61.502 202.367H63.4023C63.3135 204.049 62.0762 205.204 60.1074 205.211ZM66.6836 200.768V205.061H64.6602V195.162H66.6289V198.936H66.7109C67.0527 198.067 67.7979 197.541 68.9258 197.541C70.4775 197.541 71.4961 198.587 71.4961 200.33V205.061H69.4727V200.686C69.4727 199.763 68.9805 199.223 68.1328 199.223C67.2783 199.223 66.6836 199.79 66.6836 200.768Z" fill="#ECECF8" fill-opacity="0.5"/>
<path d="M40.543 227.961V226.662H48.2129V227.961H45.1367V236.561H43.6328V227.961H40.543ZM51.7402 236.711C49.5527 236.711 48.2061 235.2 48.2129 232.896C48.2061 230.613 49.5732 229.041 51.6445 229.041C53.333 229.041 54.9395 230.087 54.9395 232.773V233.293H49.6621C49.7031 234.708 50.5371 235.508 51.7539 235.508C52.5811 235.508 53.1211 235.152 53.3672 234.701H54.8438C54.5156 235.904 53.374 236.711 51.7402 236.711ZM49.6689 232.199H53.5039C53.5039 231.071 52.7725 230.237 51.6582 230.244C50.4893 230.237 49.7305 231.153 49.6689 232.199ZM59.5332 236.711C57.3662 236.711 56.0537 235.118 56.0605 232.883C56.0537 230.62 57.4141 229.041 59.5059 229.041C61.2012 229.041 62.4248 230.039 62.582 231.543H61.1602C61.0098 230.846 60.4561 230.265 59.5332 230.258C58.3301 230.265 57.5234 231.263 57.5234 232.842C57.5234 234.469 58.3096 235.474 59.5332 235.467C60.3604 235.474 60.9756 235.009 61.1602 234.209H62.582C62.4248 235.651 61.2832 236.711 59.5332 236.711ZM65.4258 232.158V236.561H63.9629V226.662H65.3984V230.354H65.4941C65.8428 229.547 66.54 229.041 67.6953 229.041C69.2197 229.041 70.2383 229.984 70.2383 231.844V236.561H68.7754V232.021C68.7754 230.928 68.1875 230.299 67.2031 230.299C66.1709 230.299 65.4258 230.976 65.4258 232.158ZM73.4648 232.158V236.561H72.002V229.137H73.4102V230.354H73.4922C73.8408 229.554 74.5723 229.041 75.6797 229.041C77.2041 229.041 78.2158 230.005 78.209 231.844V236.561H76.7598V232.021C76.7529 230.941 76.1719 230.299 75.1875 230.299C74.1826 230.299 73.4648 230.976 73.4648 232.158ZM79.9863 236.561V229.137H81.4492V236.561H79.9863ZM79.7949 227.127C79.8018 226.648 80.2188 226.266 80.7246 226.266C81.2236 226.266 81.6406 226.648 81.6406 227.127C81.6406 227.605 81.2236 227.995 80.7246 227.988C80.2188 227.995 79.8018 227.605 79.7949 227.127ZM86.3711 236.711C84.2041 236.711 82.8916 235.118 82.8984 232.883C82.8916 230.62 84.252 229.041 86.3438 229.041C88.0391 229.041 89.2627 230.039 89.4199 231.543H87.998C87.8477 230.846 87.2939 230.265 86.3711 230.258C85.168 230.265 84.3613 231.263 84.3613 232.842C84.3613 234.469 85.1475 235.474 86.3711 235.467C87.1982 235.474 87.8135 235.009 87.998 234.209H89.4199C89.2627 235.651 88.1211 236.711 86.3711 236.711ZM90.459 234.469C90.4521 232.773 91.8945 232.336 93.2344 232.24C93.7266 232.213 94.8408 232.151 95.1826 232.138L95.1758 231.543C95.1826 230.702 94.6631 230.217 93.6719 230.217C92.8105 230.217 92.291 230.613 92.1406 231.16H90.6914C90.8213 229.93 91.9697 229.041 93.7266 229.041C94.9092 229.041 96.6318 229.472 96.6387 231.625V236.561H95.2168V235.549H95.1621C94.875 236.103 94.1914 236.725 92.9609 236.725C91.5527 236.725 90.4521 235.918 90.459 234.469ZM91.8809 234.482C91.8809 235.193 92.4688 235.556 93.2891 235.562C94.4785 235.556 95.1895 234.763 95.1895 233.881L95.1826 233.204C94.8477 233.225 93.7881 233.3 93.4395 233.32C92.4824 233.389 91.8809 233.751 91.8809 234.482ZM99.8652 226.662V236.561H98.4023V226.662H99.8652ZM105.061 239.35V229.137H106.482V230.34H106.605C106.865 229.875 107.364 229.041 108.738 229.041C110.536 229.041 111.855 230.449 111.855 232.869C111.855 235.262 110.55 236.704 108.752 236.711C107.405 236.704 106.872 235.884 106.605 235.398H106.523V239.35H105.061ZM106.496 232.842C106.496 234.4 107.18 235.46 108.424 235.467C109.709 235.46 110.379 234.332 110.379 232.842C110.379 231.379 109.729 230.278 108.424 230.285C107.166 230.278 106.496 231.297 106.496 232.842ZM113.305 236.561V229.137H114.713V230.312H114.795C115.068 229.52 115.813 229.021 116.682 229.027C116.859 229.021 117.146 229.041 117.297 229.055V230.449C117.174 230.422 116.832 230.36 116.531 230.367C115.52 230.36 114.768 231.064 114.768 232.035V236.561H113.305ZM121.289 236.711C119.184 236.711 117.81 235.18 117.816 232.883C117.81 230.572 119.184 229.041 121.289 229.041C123.381 229.041 124.748 230.572 124.748 232.883C124.748 235.18 123.381 236.711 121.289 236.711ZM119.279 232.883C119.279 234.298 119.929 235.494 121.289 235.494C122.629 235.494 123.271 234.298 123.271 232.883C123.271 231.461 122.629 230.251 121.289 230.244C119.929 230.251 119.279 231.461 119.279 232.883ZM129.725 229.137V230.299H128.125V236.561H126.662V230.299H125.514V229.137H126.662V228.275C126.669 226.949 127.517 226.197 128.877 226.197C129.226 226.197 129.588 226.238 129.875 226.293V227.51C129.602 227.469 129.39 227.455 129.26 227.455C128.487 227.455 128.125 227.77 128.125 228.494V229.137H129.725ZM131.051 236.561V229.137H132.514V236.561H131.051ZM130.859 227.127C130.866 226.648 131.283 226.266 131.789 226.266C132.288 226.266 132.705 226.648 132.705 227.127C132.705 227.605 132.288 227.995 131.789 227.988C131.283 227.995 130.866 227.605 130.859 227.127ZM137.436 236.711C135.269 236.711 133.956 235.118 133.963 232.883C133.956 230.62 135.316 229.041 137.408 229.041C139.104 229.041 140.327 230.039 140.484 231.543H139.062C138.912 230.846 138.358 230.265 137.436 230.258C136.232 230.265 135.426 231.263 135.426 232.842C135.426 234.469 136.212 235.474 137.436 235.467C138.263 235.474 138.878 235.009 139.062 234.209H140.484C140.327 235.651 139.186 236.711 137.436 236.711ZM141.865 236.561V229.137H143.328V236.561H141.865ZM141.674 227.127C141.681 226.648 142.098 226.266 142.604 226.266C143.103 226.266 143.52 226.648 143.52 227.127C143.52 227.605 143.103 227.995 142.604 227.988C142.098 227.995 141.681 227.605 141.674 227.127ZM148.305 236.711C146.117 236.711 144.771 235.2 144.777 232.896C144.771 230.613 146.138 229.041 148.209 229.041C149.897 229.041 151.504 230.087 151.504 232.773V233.293H146.227C146.268 234.708 147.102 235.508 148.318 235.508C149.146 235.508 149.686 235.152 149.932 234.701H151.408C151.08 235.904 149.938 236.711 148.305 236.711ZM146.233 232.199H150.068C150.068 231.071 149.337 230.237 148.223 230.244C147.054 230.237 146.295 231.153 146.233 232.199ZM154.416 232.158V236.561H152.953V229.137H154.361V230.354H154.443C154.792 229.554 155.523 229.041 156.631 229.041C158.155 229.041 159.167 230.005 159.16 231.844V236.561H157.711V232.021C157.704 230.941 157.123 230.299 156.139 230.299C155.134 230.299 154.416 230.976 154.416 232.158ZM164.082 236.711C161.915 236.711 160.603 235.118 160.609 232.883C160.603 230.62 161.963 229.041 164.055 229.041C165.75 229.041 166.974 230.039 167.131 231.543H165.709C165.559 230.846 165.005 230.265 164.082 230.258C162.879 230.265 162.072 231.263 162.072 232.842C162.072 234.469 162.858 235.474 164.082 235.467C164.909 235.474 165.524 235.009 165.709 234.209H167.131C166.974 235.651 165.832 236.711 164.082 236.711ZM169.414 239.35C169.113 239.343 168.819 239.336 168.635 239.309V238.092C168.799 238.105 169.086 238.112 169.291 238.119C169.742 238.112 170.118 238.085 170.467 237.148L170.645 236.656L167.924 229.137H169.482L171.355 234.893H171.438L173.311 229.137H174.883L171.82 237.545C171.39 238.721 170.638 239.343 169.414 239.35ZM179.49 236.561V229.137H180.953V236.561H179.49ZM179.299 227.127C179.306 226.648 179.723 226.266 180.229 226.266C180.728 226.266 181.145 226.648 181.145 227.127C181.145 227.605 180.728 227.995 180.229 227.988C179.723 227.995 179.306 227.605 179.299 227.127ZM184.193 232.158V236.561H182.73V229.137H184.139V230.354H184.221C184.569 229.554 185.301 229.041 186.408 229.041C187.933 229.041 188.944 230.005 188.938 231.844V236.561H187.488V232.021C187.481 230.941 186.9 230.299 185.916 230.299C184.911 230.299 184.193 230.976 184.193 232.158ZM194.256 226.662H196.088L199.219 234.332H199.342L202.473 226.662H204.305V236.561H202.869V229.41H202.773L199.875 236.547H198.686L195.773 229.396H195.691V236.561H194.256V226.662ZM206.328 236.561V226.662H207.832V235.262H212.303V236.561H206.328Z" fill="#ECECF8"/>
<circle cx="246.023" cy="232.061" r="6" fill="#944AF2"/>
<circle cx="270.023" cy="232.061" r="6" fill="#ECECF8" fill-opacity="0.3"/>
<circle cx="294.023" cy="232.061" r="6" fill="#ECECF8" fill-opacity="0.3"/>
<circle cx="318.023" cy="232.061" r="6" fill="#ECECF8" fill-opacity="0.3"/>
<circle cx="342.023" cy="232.061" r="6" fill="#ECECF8" fill-opacity="0.3"/>
<path d="M40.543 264.961V263.662H48.2129V264.961H45.1367V273.561H43.6328V264.961H40.543ZM51.7402 273.711C49.5527 273.711 48.2061 272.2 48.2129 269.896C48.2061 267.613 49.5732 266.041 51.6445 266.041C53.333 266.041 54.9395 267.087 54.9395 269.773V270.293H49.6621C49.7031 271.708 50.5371 272.508 51.7539 272.508C52.5811 272.508 53.1211 272.152 53.3672 271.701H54.8438C54.5156 272.904 53.374 273.711 51.7402 273.711ZM49.6689 269.199H53.5039C53.5039 268.071 52.7725 267.237 51.6582 267.244C50.4893 267.237 49.7305 268.153 49.6689 269.199ZM59.5332 273.711C57.3662 273.711 56.0537 272.118 56.0605 269.883C56.0537 267.62 57.4141 266.041 59.5059 266.041C61.2012 266.041 62.4248 267.039 62.582 268.543H61.1602C61.0098 267.846 60.4561 267.265 59.5332 267.258C58.3301 267.265 57.5234 268.263 57.5234 269.842C57.5234 271.469 58.3096 272.474 59.5332 272.467C60.3604 272.474 60.9756 272.009 61.1602 271.209H62.582C62.4248 272.651 61.2832 273.711 59.5332 273.711ZM65.4258 269.158V273.561H63.9629V263.662H65.3984V267.354H65.4941C65.8428 266.547 66.54 266.041 67.6953 266.041C69.2197 266.041 70.2383 266.984 70.2383 268.844V273.561H68.7754V269.021C68.7754 267.928 68.1875 267.299 67.2031 267.299C66.1709 267.299 65.4258 267.976 65.4258 269.158ZM73.4648 269.158V273.561H72.002V266.137H73.4102V267.354H73.4922C73.8408 266.554 74.5723 266.041 75.6797 266.041C77.2041 266.041 78.2158 267.005 78.209 268.844V273.561H76.7598V269.021C76.7529 267.941 76.1719 267.299 75.1875 267.299C74.1826 267.299 73.4648 267.976 73.4648 269.158ZM79.9863 273.561V266.137H81.4492V273.561H79.9863ZM79.7949 264.127C79.8018 263.648 80.2188 263.266 80.7246 263.266C81.2236 263.266 81.6406 263.648 81.6406 264.127C81.6406 264.605 81.2236 264.995 80.7246 264.988C80.2188 264.995 79.8018 264.605 79.7949 264.127ZM86.3711 273.711C84.2041 273.711 82.8916 272.118 82.8984 269.883C82.8916 267.62 84.252 266.041 86.3438 266.041C88.0391 266.041 89.2627 267.039 89.4199 268.543H87.998C87.8477 267.846 87.2939 267.265 86.3711 267.258C85.168 267.265 84.3613 268.263 84.3613 269.842C84.3613 271.469 85.1475 272.474 86.3711 272.467C87.1982 272.474 87.8135 272.009 87.998 271.209H89.4199C89.2627 272.651 88.1211 273.711 86.3711 273.711ZM90.459 271.469C90.4521 269.773 91.8945 269.336 93.2344 269.24C93.7266 269.213 94.8408 269.151 95.1826 269.138L95.1758 268.543C95.1826 267.702 94.6631 267.217 93.6719 267.217C92.8105 267.217 92.291 267.613 92.1406 268.16H90.6914C90.8213 266.93 91.9697 266.041 93.7266 266.041C94.9092 266.041 96.6318 266.472 96.6387 268.625V273.561H95.2168V272.549H95.1621C94.875 273.103 94.1914 273.725 92.9609 273.725C91.5527 273.725 90.4521 272.918 90.459 271.469ZM91.8809 271.482C91.8809 272.193 92.4688 272.556 93.2891 272.562C94.4785 272.556 95.1895 271.763 95.1895 270.881L95.1826 270.204C94.8477 270.225 93.7881 270.3 93.4395 270.32C92.4824 270.389 91.8809 270.751 91.8809 271.482ZM99.8652 263.662V273.561H98.4023V263.662H99.8652ZM105.061 276.35V266.137H106.482V267.34H106.605C106.865 266.875 107.364 266.041 108.738 266.041C110.536 266.041 111.855 267.449 111.855 269.869C111.855 272.262 110.55 273.704 108.752 273.711C107.405 273.704 106.872 272.884 106.605 272.398H106.523V276.35H105.061ZM106.496 269.842C106.496 271.4 107.18 272.46 108.424 272.467C109.709 272.46 110.379 271.332 110.379 269.842C110.379 268.379 109.729 267.278 108.424 267.285C107.166 267.278 106.496 268.297 106.496 269.842ZM113.305 273.561V266.137H114.713V267.312H114.795C115.068 266.52 115.813 266.021 116.682 266.027C116.859 266.021 117.146 266.041 117.297 266.055V267.449C117.174 267.422 116.832 267.36 116.531 267.367C115.52 267.36 114.768 268.064 114.768 269.035V273.561H113.305ZM121.289 273.711C119.184 273.711 117.81 272.18 117.816 269.883C117.81 267.572 119.184 266.041 121.289 266.041C123.381 266.041 124.748 267.572 124.748 269.883C124.748 272.18 123.381 273.711 121.289 273.711ZM119.279 269.883C119.279 271.298 119.929 272.494 121.289 272.494C122.629 272.494 123.271 271.298 123.271 269.883C123.271 268.461 122.629 267.251 121.289 267.244C119.929 267.251 119.279 268.461 119.279 269.883ZM129.725 266.137V267.299H128.125V273.561H126.662V267.299H125.514V266.137H126.662V265.275C126.669 263.949 127.517 263.197 128.877 263.197C129.226 263.197 129.588 263.238 129.875 263.293V264.51C129.602 264.469 129.39 264.455 129.26 264.455C128.487 264.455 128.125 264.77 128.125 265.494V266.137H129.725ZM131.051 273.561V266.137H132.514V273.561H131.051ZM130.859 264.127C130.866 263.648 131.283 263.266 131.789 263.266C132.288 263.266 132.705 263.648 132.705 264.127C132.705 264.605 132.288 264.995 131.789 264.988C131.283 264.995 130.866 264.605 130.859 264.127ZM137.436 273.711C135.269 273.711 133.956 272.118 133.963 269.883C133.956 267.62 135.316 266.041 137.408 266.041C139.104 266.041 140.327 267.039 140.484 268.543H139.062C138.912 267.846 138.358 267.265 137.436 267.258C136.232 267.265 135.426 268.263 135.426 269.842C135.426 271.469 136.212 272.474 137.436 272.467C138.263 272.474 138.878 272.009 139.062 271.209H140.484C140.327 272.651 139.186 273.711 137.436 273.711ZM141.865 273.561V266.137H143.328V273.561H141.865ZM141.674 264.127C141.681 263.648 142.098 263.266 142.604 263.266C143.103 263.266 143.52 263.648 143.52 264.127C143.52 264.605 143.103 264.995 142.604 264.988C142.098 264.995 141.681 264.605 141.674 264.127ZM148.305 273.711C146.117 273.711 144.771 272.2 144.777 269.896C144.771 267.613 146.138 266.041 148.209 266.041C149.897 266.041 151.504 267.087 151.504 269.773V270.293H146.227C146.268 271.708 147.102 272.508 148.318 272.508C149.146 272.508 149.686 272.152 149.932 271.701H151.408C151.08 272.904 149.938 273.711 148.305 273.711ZM146.233 269.199H150.068C150.068 268.071 149.337 267.237 148.223 267.244C147.054 267.237 146.295 268.153 146.233 269.199ZM154.416 269.158V273.561H152.953V266.137H154.361V267.354H154.443C154.792 266.554 155.523 266.041 156.631 266.041C158.155 266.041 159.167 267.005 159.16 268.844V273.561H157.711V269.021C157.704 267.941 157.123 267.299 156.139 267.299C155.134 267.299 154.416 267.976 154.416 269.158ZM164.082 273.711C161.915 273.711 160.603 272.118 160.609 269.883C160.603 267.62 161.963 266.041 164.055 266.041C165.75 266.041 166.974 267.039 167.131 268.543H165.709C165.559 267.846 165.005 267.265 164.082 267.258C162.879 267.265 162.072 268.263 162.072 269.842C162.072 271.469 162.858 272.474 164.082 272.467C164.909 272.474 165.524 272.009 165.709 271.209H167.131C166.974 272.651 165.832 273.711 164.082 273.711ZM169.414 276.35C169.113 276.343 168.819 276.336 168.635 276.309V275.092C168.799 275.105 169.086 275.112 169.291 275.119C169.742 275.112 170.118 275.085 170.467 274.148L170.645 273.656L167.924 266.137H169.482L171.355 271.893H171.438L173.311 266.137H174.883L171.82 274.545C171.39 275.721 170.638 276.343 169.414 276.35ZM179.49 273.561V266.137H180.953V273.561H179.49ZM179.299 264.127C179.306 263.648 179.723 263.266 180.229 263.266C180.728 263.266 181.145 263.648 181.145 264.127C181.145 264.605 180.728 264.995 180.229 264.988C179.723 264.995 179.306 264.605 179.299 264.127ZM184.193 269.158V273.561H182.73V266.137H184.139V267.354H184.221C184.569 266.554 185.301 266.041 186.408 266.041C187.933 266.041 188.944 267.005 188.938 268.844V273.561H187.488V269.021C187.481 267.941 186.9 267.299 185.916 267.299C184.911 267.299 184.193 267.976 184.193 269.158ZM202.855 268.611C202.855 271.776 200.955 273.697 198.398 273.697C195.821 273.697 193.928 271.77 193.928 268.611C193.928 265.446 195.821 263.525 198.398 263.525C200.955 263.525 202.855 265.446 202.855 268.611ZM195.418 268.611C195.425 271.018 196.689 272.323 198.398 272.316C200.094 272.323 201.358 271.018 201.365 268.611C201.358 266.205 200.094 264.899 198.398 264.906C196.689 264.899 195.425 266.205 195.418 268.611ZM204.428 276.35V266.137H205.85V267.34H205.973C206.232 266.875 206.731 266.041 208.105 266.041C209.903 266.041 211.223 267.449 211.223 269.869C211.223 272.262 209.917 273.704 208.119 273.711C206.772 273.704 206.239 272.884 205.973 272.398H205.891V276.35H204.428ZM205.863 269.842C205.863 271.4 206.547 272.46 207.791 272.467C209.076 272.46 209.746 271.332 209.746 269.842C209.746 268.379 209.097 267.278 207.791 267.285C206.533 267.278 205.863 268.297 205.863 269.842ZM216.842 268.16C216.705 267.572 216.24 267.189 215.434 267.189C214.6 267.189 214.005 267.62 214.012 268.188C214.005 268.625 214.354 268.939 215.174 269.131L216.35 269.404C217.717 269.712 218.38 270.361 218.387 271.414C218.38 272.754 217.245 273.711 215.352 273.711C213.567 273.711 212.515 272.918 212.33 271.537H213.82C213.95 272.207 214.456 272.542 215.338 272.535C216.281 272.542 216.89 272.146 216.896 271.523C216.89 271.045 216.534 270.737 215.748 270.553L214.586 270.307C213.246 270.013 212.549 269.295 212.549 268.27C212.549 266.95 213.697 266.041 215.42 266.041C217.074 266.041 218.106 266.882 218.25 268.16H216.842Z" fill="#ECECF8"/>
<circle cx="246.023" cy="269.061" r="6" fill="#944AF2"/>
<circle cx="270.023" cy="269.061" r="6" fill="#944AF2"/>
<circle cx="294.023" cy="269.061" r="6" fill="#944AF2"/>
<circle cx="318.023" cy="269.061" r="6" fill="#ECECF8" fill-opacity="0.3"/>
<circle cx="342.023" cy="269.061" r="6" fill="#ECECF8" fill-opacity="0.3"/>
</g>
</g>
<rect x="0.523438" y="1.05664" width="399" height="305.504" rx="11.5" stroke="white" stroke-opacity="0.2"/>
<defs>
<filter id="filter0_d_597_10602" x="65.275" y="35.2734" width="11.3891" height="24.7719" filterUnits="userSpaceOnUse" color-interpolation-filters="sRGB">
<feFlood flood-opacity="0" result="BackgroundImageFix"/>
<feColorMatrix in="SourceAlpha" type="matrix" values="0 0 0 0 0 0 0 0 0 0 0 0 0 0 0 0 0 0 127 0" result="hardAlpha"/>
<feOffset dx="-0.8" dy="0.8"/>
<feGaussianBlur stdDeviation="0.4"/>
<feComposite in2="hardAlpha" operator="out"/>
<feColorMatrix type="matrix" values="0 0 0 0 0.8625 0 0 0 0 0.531077 0 0 0 0 0.479167 0 0 0 0.2 0"/>
<feBlend mode="normal" in2="BackgroundImageFix" result="effect1_dropShadow_597_10602"/>
<feBlend mode="normal" in="SourceGraphic" in2="effect1_dropShadow_597_10602" result="shape"/>
</filter>
<filter id="filter1_f_597_10602" x="65.5955" y="54.1326" width="8.22706" height="9.01417" filterUnits="userSpaceOnUse" color-interpolation-filters="sRGB">
<feFlood flood-opacity="0" result="BackgroundImageFix"/>
<feBlend mode="normal" in="SourceGraphic" in2="BackgroundImageFix" result="shape"/>
<feGaussianBlur stdDeviation="0.704225" result="effect1_foregroundBlur_597_10602"/>
</filter>
<filter id="filter2_d_597_10602" x="53.7859" y="35.3574" width="13.9086" height="27.0258" filterUnits="userSpaceOnUse" color-interpolation-filters="sRGB">
<feFlood flood-opacity="0" result="BackgroundImageFix"/>
<feColorMatrix in="SourceAlpha" type="matrix" values="0 0 0 0 0 0 0 0 0 0 0 0 0 0 0 0 0 0 127 0" result="hardAlpha"/>
<feOffset dy="0.8"/>
<feGaussianBlur stdDeviation="0.4"/>
<feComposite in2="hardAlpha" operator="out"/>
<feColorMatrix type="matrix" values="0 0 0 0 0.854167 0 0 0 0 0.400131 0 0 0 0 0.334549 0 0 0 0.2 0"/>
<feBlend mode="normal" in2="BackgroundImageFix" result="effect1_dropShadow_597_10602"/>
<feBlend mode="normal" in="SourceGraphic" in2="effect1_dropShadow_597_10602" result="shape"/>
</filter>
<radialGradient id="paint0_radial_597_10602" cx="0" cy="0" r="1" gradientUnits="userSpaceOnUse" gradientTransform="translate(75.1727 61.5931) rotate(112.62) scale(2.6)">
<stop stop-color="white"/>
<stop offset="1" stop-color="#A2957B"/>
</radialGradient>
<linearGradient id="paint1_linear_597_10602" x1="58.7732" y1="67.3934" x2="63.3732" y2="75.5934" gradientUnits="userSpaceOnUse">
<stop stop-color="#F3A4A7"/>
<stop offset="1" stop-color="#F3A4A7" stop-opacity="0"/>
</linearGradient>
<linearGradient id="paint2_linear_597_10602" x1="60.0087" y1="76.4062" x2="60.0087" y2="100.557" gradientUnits="userSpaceOnUse">
<stop stop-color="#F1CF73"/>
<stop offset="1" stop-color="#8C6F20"/>
</linearGradient>
<linearGradient id="paint3_linear_597_10602" x1="60.0087" y1="76.4062" x2="60.0087" y2="100.557" gradientUnits="userSpaceOnUse">
<stop stop-color="#F1CF73"/>
<stop offset="1" stop-color="#8C6F20"/>
</linearGradient>
<linearGradient id="paint4_linear_597_10602" x1="45.788" y1="28.9209" x2="45.788" y2="76.636" gradientUnits="userSpaceOnUse">
<stop stop-color="#C15646"/>
<stop offset="1" stop-color="#F98C7C"/>
</linearGradient>
<linearGradient id="paint5_linear_597_10602" x1="55.9671" y1="32.0039" x2="55.9671" y2="66.3066" gradientUnits="userSpaceOnUse">
<stop stop-color="#DE6351"/>
<stop offset="0.270833" stop-color="#F68270"/>
<stop offset="1" stop-color="#A03A2B"/>
</linearGradient>
<linearGradient id="paint6_linear_597_10602" x1="71.5713" y1="34.3936" x2="81.1713" y2="50.1936" gradientUnits="userSpaceOnUse">
<stop stop-color="#EC7564"/>
<stop offset="0.281343" stop-color="#FF9E93"/>
<stop offset="1" stop-color="#A92D2D"/>
</linearGradient>
<linearGradient id="paint7_linear_597_10602" x1="69.5715" y1="53.9935" x2="55.7715" y2="62.1935" gradientUnits="userSpaceOnUse">
<stop stop-color="#FFDAD5"/>
<stop offset="1" stop-color="#FDC4BD"/>
</linearGradient>
<linearGradient id="paint8_linear_597_10602" x1="61.2552" y1="51.3893" x2="61.4897" y2="53.1993" gradientUnits="userSpaceOnUse">
<stop stop-color="#F4D6D6"/>
<stop offset="1" stop-color="#FFF9F9"/>
</linearGradient>
<linearGradient id="paint9_linear_597_10602" x1="61.2533" y1="51.3893" x2="61.4877" y2="53.1994" gradientUnits="userSpaceOnUse">
<stop stop-color="#F4D6D6"/>
<stop offset="1" stop-color="#FFF9F9"/>
</linearGradient>
<radialGradient id="paint10_radial_597_10602" cx="0" cy="0" r="1" gradientUnits="userSpaceOnUse" gradientTransform="translate(63.5062 53.4874) rotate(89.9374) scale(3.41785 2.0082)">
<stop stop-color="#ADC54A"/>
<stop offset="1" stop-color="#51673E"/>
</radialGradient>
<linearGradient id="paint11_linear_597_10602" x1="60.5846" y1="36.7564" x2="57.6883" y2="60.6003" gradientUnits="userSpaceOnUse">
<stop stop-color="#EC7664"/>
<stop offset="0.236111" stop-color="#FFA699"/>
<stop offset="0.488958" stop-color="#DE6351"/>
</linearGradient>
<linearGradient id="paint12_linear_597_10602" x1="66.4867" y1="34.0282" x2="86.7268" y2="51.4362" gradientUnits="userSpaceOnUse">
<stop stop-color="#EC7664"/>
<stop offset="0.288194" stop-color="#FA9485"/>
<stop offset="1" stop-color="#DE6351"/>
</linearGradient>
<linearGradient id="paint13_linear_597_10602" x1="71.5673" y1="51.5713" x2="71.5673" y2="56.1028" gradientUnits="userSpaceOnUse">
<stop stop-color="#FFF5F5"/>
<stop offset="1" stop-color="#FAEDED"/>
<stop offset="1" stop-color="white"/>
</linearGradient>
<radialGradient id="paint14_radial_597_10602" cx="0" cy="0" r="1" gradientUnits="userSpaceOnUse" gradientTransform="translate(72.8146 53.2561) rotate(90) scale(2.30278 1.13461)">
<stop stop-color="#8EA646"/>
<stop offset="1" stop-color="#51673E"/>
</radialGradient>
<linearGradient id="paint15_linear_597_10602" x1="68.4432" y1="65.557" x2="68.4432" y2="67.2024" gradientUnits="userSpaceOnUse">
<stop stop-color="#F05775"/>
<stop offset="1" stop-color="#F594AB"/>
</linearGradient>
<linearGradient id="paint16_linear_597_10602" x1="69.5246" y1="56.0307" x2="70.918" y2="61.5659" gradientUnits="userSpaceOnUse">
<stop stop-color="#000525" stop-opacity="0"/>
<stop offset="0.264886" stop-color="#A06961"/>
<stop offset="1" stop-color="#000525" stop-opacity="0"/>
</linearGradient>
<radialGradient id="paint17_radial_597_10602" cx="0" cy="0" r="1" gradientUnits="userSpaceOnUse" gradientTransform="translate(55.5719 64.7932) rotate(104.005) scale(2.76995)">
<stop stop-color="white"/>
<stop offset="1" stop-color="#A2957B"/>
</radialGradient>
<linearGradient id="paint18_linear_597_10602" x1="65.8402" y1="34.1637" x2="60.7555" y2="60.3713" gradientUnits="userSpaceOnUse">
<stop offset="0.116228" stop-color="#EC7664"/>
<stop offset="0.289525" stop-color="#FFB4A9"/>
<stop offset="0.637926" stop-color="#DE6351"/>
</linearGradient>
<clipPath id="clip0_597_10602">
<rect x="0.0234375" y="0.556641" width="400" height="306.504" rx="12" fill="white"/>
</clipPath>
<clipPath id="clip1_597_10602">
<rect x="20.0234" y="20.5566" width="80" height="80" rx="40" fill="white"/>
</clipPath>
<clipPath id="clip2_597_10602">
<rect x="20.0234" y="192.061" width="360" height="95" rx="12" fill="white"/>
</clipPath>
</defs>
</svg>
