<svg width="855" height="105" viewBox="0 0 855 105" fill="none" xmlns="http://www.w3.org/2000/svg">
<path d="M62.8132 22.0847H57.7075V16.9499H63.0904C65.0608 16.9499 66.0459 17.8189 66.0459 19.5573C66.0459 21.2425 64.9679 22.0855 62.8132 22.0855M66.4828 16.89C65.7788 16.2635 64.8042 15.9502 63.5463 15.9502L56.2344 15.9907V28.2755H57.7075L57.6943 23.0456H63.1353C64.4993 23.0456 65.5738 22.7323 66.3574 22.1058C67.1411 21.4792 67.5331 20.6098 67.5331 19.4979C67.5331 18.386 67.1833 17.517 66.4837 16.89H66.4828ZM76.0185 25.6957C75.8776 26.0976 75.637 26.4572 75.3193 26.7407C74.6593 27.3849 73.6526 27.7065 72.2983 27.7065C71.0751 27.7065 70.137 27.3985 69.4823 26.7676C68.8276 26.1366 68.4998 25.3037 68.4998 24.2539C68.4998 23.7074 68.5856 23.2221 68.7567 22.7988C68.9279 22.3755 69.1765 22.0182 69.5021 21.7269C70.1797 21.1096 71.1116 20.8007 72.2987 20.8007C74.9282 20.8007 76.2433 21.9518 76.2433 24.2539C76.2433 24.8008 76.1685 25.2813 76.0233 25.6957M76.2904 21.1637C75.3928 20.3453 74.064 19.9317 72.3031 19.9317C70.6399 19.9317 69.3543 20.3497 68.4479 21.1857C67.6295 21.9425 67.2159 22.9633 67.2159 24.249C67.2159 25.525 67.6383 26.5546 68.4831 27.3378C68.9495 27.7602 69.4929 28.0665 70.1137 28.2557C70.7345 28.4449 71.4627 28.5395 72.2987 28.5395C74.0499 28.5395 75.3787 28.1347 76.2992 27.3251C77.1176 26.5859 77.5312 25.5651 77.5312 24.2486C77.5312 22.9286 77.1176 21.899 76.2904 21.1589V21.1637ZM87.4303 26.0508C87.4303 27.7043 85.9488 28.5311 82.9863 28.5311C82.0808 28.5311 81.3178 28.4739 80.6983 28.3586C80.0788 28.2433 79.575 28.0528 79.1882 27.7875C78.8897 27.5856 78.6452 27.3137 78.4759 26.9955C78.2999 26.6699 78.1855 26.2607 78.1327 25.7635L79.5112 25.7503C79.5112 26.4015 79.7523 26.8802 80.235 27.1882C80.7529 27.5578 81.6694 27.7426 82.9863 27.7426C85.057 27.7426 86.0927 27.2234 86.0927 26.1859C86.0927 25.5787 85.7407 25.1616 85.0508 24.9319C84.91 24.8879 84.0727 24.7713 82.5428 24.5825C81.0129 24.3938 80.0524 24.2239 79.6749 24.0743C78.8574 23.7487 78.4486 23.1635 78.4486 22.3196C78.4486 21.4924 78.8138 20.8764 79.5486 20.4725C79.9094 20.3053 80.3604 20.1759 80.902 20.0831C81.4437 19.9903 82.0707 19.9445 82.7835 19.9445C85.6356 19.9445 87.0616 20.8395 87.0616 22.6285H85.7504C85.7504 21.3701 84.7472 20.7365 82.743 20.7365C81.7231 20.7365 80.9623 20.8685 80.4612 21.1193C79.96 21.3701 79.7096 21.7661 79.7096 22.2941C79.7096 22.7869 80.0484 23.1433 80.7252 23.3633C81.1212 23.4777 82.0311 23.6097 83.4558 23.7593C84.7309 23.8737 85.6061 24.0365 86.0808 24.2433C86.9872 24.5953 87.4395 25.1937 87.4395 26.0372L87.4303 26.0508ZM92.8449 28.2917L92.2839 28.3709L91.9341 28.3973C91.0365 28.3973 90.3941 28.2675 89.9924 28.0071C89.5907 27.7466 89.3971 27.2912 89.3971 26.6431V21.0309H87.7665V20.2063H89.3887L89.4019 17.5575H90.6586V20.2063H92.8471V21.0441L90.6586 21.0309V26.4855C90.6586 26.8917 90.7664 27.1719 90.982 27.3215C91.1976 27.4711 91.5821 27.553 92.1365 27.553C92.2157 27.5618 92.3037 27.5591 92.4005 27.5442C92.5472 27.518 92.6926 27.4849 92.8361 27.4447L92.8493 28.2807L92.8449 28.2917ZM101.537 26.4305C101.194 26.7121 100.803 26.9269 100.364 27.0773C99.9241 27.2278 99.4185 27.2973 98.8474 27.2973C96.2188 27.2973 94.905 26.2119 94.905 24.0413C94.905 23.0307 95.2412 22.2395 95.9139 21.668C96.5867 21.0964 97.5331 20.8109 98.7554 20.8109C99.9861 20.8109 100.92 21.0991 101.557 21.6746C102.194 22.2501 102.513 23.0219 102.513 23.989C102.513 25.0437 102.188 25.8568 101.538 26.4279M103.771 20.2085H102.514L102.501 21.5945C101.946 21.0313 101.55 20.6762 101.313 20.5266C100.609 20.1394 99.6988 19.9467 98.5816 19.9467C96.9457 19.9467 95.6961 20.3207 94.8346 21.0678C94.0162 21.7542 93.6079 22.7473 93.6079 24.0484C93.6079 24.6908 93.7113 25.2637 93.9181 25.7644C94.1249 26.2651 94.4267 26.6985 94.8232 27.0501C95.6864 27.7708 96.9066 28.1316 98.484 28.1316C100.378 28.1316 101.721 27.6137 102.514 26.5775V28.0119C102.514 28.9271 102.226 29.6346 101.65 30.1362C101.074 30.6378 100.126 30.8842 98.8069 30.8842C97.5661 30.8842 96.6826 30.7082 96.155 30.3721C95.759 30.1094 95.4862 29.654 95.3366 29.0059H94.0431C94.1839 29.9109 94.571 30.5657 95.187 30.9696C95.9086 31.4351 97.123 31.6679 98.839 31.6679C102.121 31.6679 103.767 30.4477 103.767 28.0071V20.212L103.771 20.2085ZM110.569 21.0238C110.19 20.9622 109.839 20.9358 109.514 20.9358C107.449 20.9358 106.416 22.0688 106.416 24.3339V28.2737H105.172L105.159 20.212L106.416 20.2243V21.6631H106.482C106.693 21.0964 107.028 20.6665 107.485 20.3739C107.985 20.0906 108.732 19.9489 109.726 19.9489H110.569V21.0313L110.569 21.0238ZM111.738 23.7333C111.896 22.8173 112.252 22.108 112.805 21.6055C113.166 21.3151 113.575 21.0964 114.032 20.9512C114.489 20.806 115 20.733 115.576 20.733C116.692 20.733 117.6 21.0392 118.313 21.6517C119.025 22.2642 119.374 22.9585 119.374 23.7329H111.738M119.496 21.246C119.056 20.8047 118.511 20.4787 117.859 20.2666C117.208 20.0545 116.451 19.9489 115.571 19.9489C113.943 19.9489 112.681 20.3273 111.782 21.0841C110.884 21.8409 110.436 22.8705 110.436 24.1738C110.436 25.4771 110.867 26.5058 111.729 27.2758C112.662 28.1206 113.973 28.543 115.675 28.543C116.353 28.543 116.979 28.466 117.555 28.3129C118.132 28.1597 118.635 27.9424 119.066 27.6617C119.823 27.1183 120.302 26.4473 120.505 25.6509H119.146C118.68 27.0294 117.52 27.7189 115.664 27.7189C114.354 27.7189 113.347 27.3818 112.644 26.7077C112.036 26.13 111.734 25.3816 111.734 24.462H120.693C120.693 23.0945 120.297 22.0222 119.492 21.25L119.496 21.246Z" fill="white"/>
<path d="M133.975 24.9821C133.975 27.3757 132.045 28.5725 128.184 28.5725C125.871 28.5725 124.182 28.1602 123.118 27.3405C122.247 26.6629 121.812 25.6298 121.812 24.2394H123.367C123.367 26.4737 124.973 27.5909 128.184 27.5909C129.724 27.5909 130.837 27.3621 131.528 26.9054C132.108 26.5014 132.399 25.8683 132.399 25.0072C132.399 24.1545 132.003 23.557 131.211 23.2138C130.762 23.029 129.671 22.7958 127.924 22.515C125.733 22.1806 124.313 21.8471 123.661 21.5132C122.72 21.0204 122.253 20.1857 122.253 19.0078C122.253 17.9091 122.649 17.0916 123.455 16.5553C124.317 15.9665 125.795 15.6717 127.889 15.6717C131.673 15.6717 133.565 16.9284 133.565 19.4417H131.997C131.997 17.5585 130.592 16.6177 127.783 16.6177C126.374 16.6177 125.343 16.8069 124.691 17.1897C124.075 17.5945 123.767 18.1885 123.767 18.9717C123.767 19.7901 124.163 20.3665 124.955 20.7009C125.378 20.8945 126.619 21.1629 128.678 21.5061C130.614 21.7965 131.921 22.1353 132.594 22.5181C133.518 22.9933 133.98 23.8161 133.98 24.9821H133.975ZM146.603 26.2036C146.023 26.6686 145.366 27.0176 144.635 27.2508C143.904 27.484 143.085 27.5997 142.178 27.5997C140.329 27.5997 138.834 27.1012 137.693 26.1046C136.552 25.108 135.983 23.7796 135.983 22.1195C135.983 20.3894 136.548 19.0413 137.68 18.075C138.811 17.1088 140.311 16.6261 142.178 16.6261C144.071 16.6261 145.56 17.1312 146.643 18.141C147.215 18.6338 147.637 19.2085 147.911 19.8671C148.185 20.5258 148.32 21.2769 148.32 22.1199C148.32 23.8412 147.747 25.2026 146.602 26.2031M147.429 27.018C148.238 26.4469 148.838 25.7552 149.225 24.9421C149.613 24.129 149.807 23.1909 149.807 22.127C149.807 20.2196 149.173 18.695 147.906 17.5387C147.229 16.9059 146.41 16.4356 145.451 16.128C144.492 15.8205 143.396 15.666 142.164 15.666C139.771 15.666 137.896 16.2468 136.532 17.4062C135.168 18.5656 134.486 20.1395 134.486 22.1261C134.486 24.0594 135.174 25.6197 136.551 26.8059C137.928 27.9922 139.808 28.5857 142.192 28.5857C143.125 28.5857 143.938 28.5228 144.633 28.3965C145.327 28.2702 145.917 28.0766 146.401 27.8157L148.697 29.4072L149.657 28.5263L147.433 27.0184L147.429 27.018ZM161.443 28.2751H150.819V15.9727L152.278 15.9463V27.2442H161.452L161.438 28.2711L161.443 28.2751Z" fill="#367FAF"/>
<path d="M46.1588 26.2099C46.3066 25.1671 46.2622 25.014 47.1787 25.1829L47.4119 25.2005C48.1168 25.2278 49.0386 25.1046 49.5802 24.8912C50.7462 24.4327 51.437 23.6671 50.2877 23.8682C47.6653 24.3267 47.4849 23.5734 47.4849 23.5734C50.2539 20.0908 51.4115 15.6697 50.4127 14.5873C47.6825 11.6362 42.9701 13.0319 42.8865 13.0684L42.8614 13.0728C42.3431 12.9817 41.7632 12.9276 41.112 12.9188C39.9253 12.9021 39.0251 13.1828 38.3418 13.6215C38.3418 13.6215 29.9263 10.6823 30.3179 17.3175C30.4015 18.729 32.7049 27.9976 35.4519 25.1979C36.4559 24.174 37.4266 23.3085 37.4266 23.3085C37.9327 23.592 38.5122 23.7173 39.0902 23.6684L39.1368 23.6346C39.1223 23.7622 39.128 23.8854 39.1558 24.0332C38.4482 24.7033 38.6559 24.8208 37.2409 25.0681C35.8096 25.318 36.6504 25.7633 37.1995 25.8799C37.8652 26.0207 39.4052 26.2209 40.4458 24.9867L40.4045 25.1275C40.6817 25.3158 40.6632 26.4805 40.7028 27.313C40.7424 28.1454 40.8084 28.922 41.0082 29.3801C41.2079 29.8381 41.4446 31.0169 43.3041 30.6798C44.8582 30.3974 46.0466 29.9912 46.1553 26.2116" fill="#231F20"/>
<path d="M46.1588 26.2099C46.3066 25.1671 46.2622 25.014 47.1787 25.1829L47.4119 25.2005C48.1168 25.2278 49.0386 25.1046 49.5802 24.8912C50.7462 24.4327 51.437 23.6671 50.2877 23.8682C47.6653 24.3267 47.4849 23.5734 47.4849 23.5734C50.2539 20.0908 51.4115 15.6697 50.4127 14.5873C47.6825 11.6362 42.9701 13.0319 42.8865 13.0684L42.8614 13.0728C42.3431 12.9817 41.7632 12.9276 41.112 12.9188C39.9253 12.9021 39.0251 13.1828 38.3418 13.6215C38.3418 13.6215 29.9263 10.6823 30.3179 17.3175C30.4015 18.729 32.7049 27.9976 35.4519 25.1979C36.4559 24.174 37.4266 23.3085 37.4266 23.3085C37.9327 23.592 38.5122 23.7173 39.0902 23.6684L39.1368 23.6346C39.1223 23.7622 39.128 23.8854 39.1558 24.0332C38.4482 24.7033 38.6559 24.8208 37.2409 25.0681C35.8096 25.318 36.6504 25.7633 37.1995 25.8799C37.8652 26.0207 39.4052 26.2209 40.4458 24.9867L40.4045 25.1275C40.6817 25.3158 40.6632 26.4805 40.7028 27.313C40.7424 28.1454 40.8084 28.922 41.0082 29.3801C41.2079 29.8381 41.4446 31.0169 43.3041 30.6798C44.8582 30.3974 46.0466 29.9912 46.1553 26.2116" stroke="#231F20" stroke-width="1.80752"/>
<path d="M50.2882 23.868C47.6658 24.3265 47.4854 23.5732 47.4854 23.5732C50.2543 20.0901 51.4119 15.669 50.4131 14.5871C47.6878 11.636 42.971 13.0321 42.8874 13.0686L42.8619 13.073C42.3436 12.982 41.7636 12.9278 41.112 12.919C39.9253 12.9028 39.0251 13.183 38.3422 13.6217C38.3422 13.6217 29.9263 10.6825 30.3179 17.3177C30.4015 18.7292 32.7045 27.9983 35.4519 25.1981C36.4559 24.1742 37.4261 23.3087 37.4261 23.3087C37.9323 23.5922 38.5117 23.7175 39.0898 23.6687L39.1368 23.6348C39.1223 23.7624 39.1289 23.8856 39.1558 24.0334C38.4482 24.7035 38.6559 24.821 37.2418 25.0683C35.81 25.3182 36.6513 25.7635 37.2004 25.8801C37.8661 26.0209 39.4061 26.2211 40.4467 24.9869L40.4054 25.1277C40.6826 25.316 40.8775 26.3522 40.8454 27.2925C40.8132 28.2328 40.7908 28.8765 41.0095 29.3807C41.2282 29.885 41.446 31.0175 43.3063 30.6805C44.8604 30.398 45.666 29.6667 45.7777 28.4462C45.8569 27.5785 46.0373 27.707 46.0483 26.9313L46.1927 26.5643C46.359 25.3882 46.2191 25.0089 47.1765 25.1853L47.4097 25.2029C48.1146 25.2302 49.0368 25.107 49.578 24.8936C50.744 24.4351 51.4348 23.6695 50.2855 23.8706L50.2882 23.868Z" fill="#417BA2"/>
<path d="M40.5625 24.5404C40.4903 26.7285 40.5801 28.9324 40.8331 29.4684C41.0861 30.0043 41.6269 31.0458 43.4872 30.7078C45.0412 30.4254 45.6066 29.8789 45.8517 28.6724C46.0277 27.7849 46.381 25.3196 46.4255 24.8149M38.3326 13.5694C38.3326 13.5694 29.9066 10.6522 30.3026 17.2905C30.3906 18.702 32.6892 27.971 35.4374 25.1665C36.4415 24.1426 37.3492 23.3396 37.3492 23.3396M42.8866 13.037C42.5949 13.1145 47.5712 11.4953 50.3991 14.5581C51.3979 15.6405 50.2407 20.0616 47.4714 23.5446" stroke="#0E0E12" stroke-width="0.602359" stroke-linecap="round" stroke-linejoin="round"/>
<path d="M47.4658 23.5418C47.4658 23.5418 47.6418 24.2942 50.2686 23.8357C51.4179 23.6346 50.7262 24.4002 49.5602 24.8592C48.6037 25.2354 46.4591 25.3317 46.4243 24.8121C46.3341 23.4701 47.5529 23.878 47.4649 23.5418C47.3857 23.2391 46.8401 22.9421 46.4793 22.2011C46.1647 21.5543 42.163 16.5946 47.589 17.3312C47.7879 17.296 46.1735 12.9559 41.0946 12.8855C36.0157 12.8151 36.1842 18.1786 36.1842 18.1786" stroke="#0E0E12" stroke-width="0.602359" stroke-linecap="round" stroke-linejoin="bevel"/>
<path d="M39.14 23.9981C38.4316 24.6682 38.6402 24.7857 37.2252 25.033C35.7934 25.2838 36.6347 25.7282 37.1838 25.8448C37.8495 25.9856 39.3895 26.1858 40.4301 24.9507C40.7469 24.5745 40.4284 23.9739 39.9932 23.8217C39.7829 23.7478 39.5017 23.6554 39.1396 23.9977L39.14 23.9981Z" stroke="#0E0E12" stroke-width="0.602359" stroke-linejoin="round"/>
<path d="M39.0961 23.9894C39.0248 23.5951 39.2488 23.127 39.489 22.5778C39.8498 21.755 40.6823 20.9314 40.017 18.32C39.5207 16.3739 36.1903 17.9152 36.189 18.1792C36.1877 18.4432 36.3395 19.5168 36.1331 20.7664C35.8638 22.3979 37.3576 23.7773 39.0776 23.6365" stroke="#0E0E12" stroke-width="0.602359" stroke-linecap="round" stroke-linejoin="round"/>
<path d="M38.3015 18.1443C38.2866 18.2345 38.4965 18.4743 38.7697 18.5068C39.0429 18.5394 39.2757 18.3511 39.2911 18.2613C39.3065 18.1716 39.0966 18.0721 38.8229 18.0396C38.5493 18.007 38.3161 18.0545 38.3015 18.1443Z" fill="#0E0E12" stroke="#0E0E12" stroke-width="0.20064"/>
<path d="M46.6118 17.9587C46.6268 18.0489 46.4174 18.2887 46.1437 18.3213C45.87 18.3538 45.6368 18.1655 45.6218 18.0749C45.6069 17.9842 45.8168 17.8857 46.09 17.8531C46.3632 17.8205 46.596 17.8676 46.6114 17.9578L46.6118 17.9587Z" fill="#0E0E12" stroke="#0E0E12" stroke-width="0.10032"/>
<path d="M47.5908 17.333C47.6357 18.0401 47.4113 18.521 47.3827 19.2743C47.3409 20.3681 47.9978 21.6195 47.0078 22.8735" stroke="#0E0E12" stroke-width="0.602359" stroke-linecap="round" stroke-linejoin="round"/>
<g clip-path="url(#clip0_713_8117)">
<path d="M303.469 24.0095H310.242L306.664 18.2318L300.086 28.6673H297.095L305.095 16.1473C305.27 15.8975 305.501 15.6931 305.771 15.5513C306.041 15.4094 306.34 15.3343 306.645 15.3321C306.95 15.3299 307.251 15.4008 307.522 15.5388C307.794 15.6767 308.028 15.8778 308.206 16.1251L316.229 28.6673H313.237L311.829 26.334H304.975L303.482 24.0095M334.562 26.334V15.4585H332.02V27.4051C332.019 27.5711 332.052 27.7355 332.117 27.8883C332.182 28.0411 332.278 28.1791 332.397 28.294C332.518 28.4171 332.662 28.5148 332.82 28.5812C332.979 28.6476 333.15 28.6814 333.322 28.6807H344.877L346.384 26.3473H334.549M292.531 24.3918C293.715 24.3918 294.852 23.9212 295.689 23.0835C296.527 22.2459 296.998 21.1097 296.998 19.9251C296.998 18.7405 296.527 17.6044 295.689 16.7667C294.852 15.929 293.715 15.4585 292.531 15.4585H281.42V28.6673H283.958V17.7962H292.375C292.942 17.7962 293.486 18.0215 293.887 18.4224C294.288 18.8233 294.513 19.367 294.513 19.934C294.513 20.501 294.288 21.0447 293.887 21.4456C293.486 21.8465 292.942 22.0718 292.375 22.0718H285.215L292.798 28.6673H296.482L291.389 24.3918H292.531ZM265.811 28.6673H273.486C275.208 28.6227 276.844 27.9075 278.045 26.6742C279.247 25.4409 279.92 23.787 279.92 22.0651C279.92 20.3432 279.247 18.6893 278.045 17.456C276.844 16.2227 275.208 15.5076 273.486 15.4629H265.811C264.929 15.44 264.052 15.5939 263.231 15.9154C262.41 16.2369 261.662 16.7196 261.031 17.3349C260.399 17.9502 259.897 18.6858 259.554 19.4982C259.212 20.3106 259.035 21.1834 259.035 22.0651C259.035 22.9468 259.212 23.8196 259.554 24.632C259.897 25.4444 260.399 26.18 261.031 26.7953C261.662 27.4107 262.41 27.8933 263.231 28.2148C264.052 28.5363 264.929 28.6902 265.811 28.6673M273.313 26.3429H265.98C264.87 26.3071 263.818 25.8412 263.046 25.0437C262.274 24.2462 261.842 23.1796 261.842 22.0696C261.842 20.9595 262.274 19.8929 263.046 19.0954C263.818 18.2979 264.87 17.832 265.98 17.7962H273.313C273.886 17.7778 274.457 17.8746 274.991 18.0811C275.526 18.2875 276.013 18.5993 276.425 18.9979C276.837 19.3966 277.164 19.8739 277.388 20.4016C277.611 20.9292 277.726 21.4965 277.726 22.0696C277.726 22.6426 277.611 23.2099 277.388 23.7375C277.164 24.2652 276.837 24.7425 276.425 25.1412C276.013 25.5398 275.526 25.8516 274.991 26.0581C274.457 26.2645 273.886 26.3614 273.313 26.3429M321.531 28.6673H329.366L330.851 26.3429H321.704C321.131 26.3614 320.561 26.2645 320.026 26.0581C319.492 25.8516 319.004 25.5398 318.592 25.1412C318.18 24.7425 317.853 24.2652 317.63 23.7375C317.406 23.2099 317.291 22.6426 317.291 22.0696C317.291 21.4965 317.406 20.9292 317.63 20.4016C317.853 19.8739 318.18 19.3966 318.592 18.9979C319.004 18.5993 319.492 18.2875 320.026 18.0811C320.561 17.8746 321.131 17.7778 321.704 17.7962H329.149L330.651 15.4629H321.531C320.649 15.44 319.772 15.5939 318.951 15.9154C318.13 16.2369 317.382 16.7196 316.75 17.3349C316.119 17.9502 315.617 18.6858 315.274 19.4982C314.932 20.3106 314.755 21.1834 314.755 22.0651C314.755 22.9468 314.932 23.8196 315.274 24.632C315.617 25.4444 316.119 26.18 316.75 26.7953C317.382 27.4107 318.13 27.8933 318.951 28.2148C319.772 28.5363 320.649 28.6902 321.531 28.6673M352.584 26.3429C351.653 26.3432 350.747 26.0396 350.004 25.478C349.261 24.9165 348.722 24.1278 348.469 23.2318H359.322L360.815 20.9029H348.469C348.722 20.0065 349.261 19.2174 350.004 18.6557C350.747 18.0941 351.653 17.7907 352.584 17.7918H360.033L361.522 15.4585H352.411C350.689 15.5031 349.054 16.2183 347.852 17.4516C346.65 18.6849 345.978 20.3387 345.978 22.0607C345.978 23.7826 346.65 25.4365 347.852 26.6697C349.054 27.903 350.689 28.6182 352.411 28.6629H360.246L361.735 26.3384H352.58" fill="#C74634"/>
</g>
<path fill-rule="evenodd" clip-rule="evenodd" d="M494.852 33.0326H497.429V24.8643L501.455 31.986C501.91 32.8421 502.566 33.1592 503.834 33.1592C505.102 33.1592 505.718 32.8417 506.189 31.986L510.194 24.8643V33.0326H512.791V24.8643C512.791 24.0715 512.395 23.6901 511.562 23.4839C509.599 23.0082 508.29 23.4206 507.696 24.4828L503.751 31.5253L499.944 24.4828C499.369 23.4206 498.04 23.0082 496.058 23.4839C495.244 23.6901 494.848 24.0712 494.848 24.8643L494.848 33.0326H494.852ZM514.937 26.3869H517.534V30.8758C517.515 31.1293 517.633 31.7005 519.045 31.7158C519.778 31.7318 524.636 31.7158 524.675 31.7158V26.3549H527.273V33.6988C527.273 35.5069 524.473 35.9029 523.168 35.9193H515.001V34.5399H523.189C524.855 34.397 524.657 33.7312 524.657 33.509V32.9693H519.164C516.606 32.9533 514.96 32.0493 514.941 31.0183V26.3862L514.937 26.3869ZM570.649 21.1841C569.064 21.1521 567.834 21.2794 566.803 21.6285C566.506 21.7245 566.03 21.7245 565.991 22.0252C566.149 22.1515 566.168 22.358 566.307 22.5329C566.545 22.8504 566.962 23.278 567.338 23.4999C567.755 23.754 568.172 24.0075 568.607 24.2297C569.38 24.6101 570.253 24.8323 571.006 25.213C571.442 25.4352 571.878 25.7207 572.314 25.9589C572.537 26.0858 572.671 26.2923 572.949 26.3712V26.3232C572.81 26.181 572.77 25.9749 572.632 25.8156C572.434 25.6574 572.235 25.5141 572.037 25.3559C571.462 24.7374 570.748 24.1977 569.975 23.754C569.34 23.4049 567.953 22.9293 567.695 22.3427L567.656 22.3107C568.092 22.2787 568.607 22.1518 569.024 22.0565C569.698 21.9143 570.313 21.9456 571.006 21.8031C571.324 21.7391 571.64 21.6602 571.958 21.5809V21.4387C571.601 21.1532 571.344 20.7725 570.967 20.503C569.956 19.8052 568.845 19.1229 567.695 18.552C567.081 18.2349 566.287 18.0284 565.633 17.7592C565.395 17.664 564.999 17.6163 564.86 17.4578C564.502 17.1094 564.305 16.649 564.047 16.2363C563.472 15.3639 562.917 14.3966 562.421 13.4765C562.065 12.858 561.846 12.2394 561.411 11.6685C559.368 8.97199 557.147 7.33847 553.737 5.73623C553.004 5.40312 552.132 5.25986 551.204 5.08566L549.717 5.02167C549.4 4.91076 549.083 4.60929 548.805 4.46638C547.675 3.89545 544.76 2.65831 543.927 4.29218C543.392 5.32314 544.72 6.33809 545.171 6.86174C545.509 7.22648 545.945 7.63886 546.183 8.05124C546.317 8.32071 546.361 8.60654 546.5 8.892C546.817 9.58985 547.115 10.3673 547.531 11.0179C547.753 11.351 547.986 11.7005 548.264 12.0016C548.423 12.1758 548.701 12.2554 548.76 12.5409C548.482 12.8583 548.463 13.3336 548.304 13.7307C547.59 15.5231 547.868 17.7436 548.879 19.0597C549.197 19.4561 549.945 20.3288 550.961 19.9953C551.853 19.7099 551.654 18.8058 551.912 18.0127C551.972 17.8225 551.932 17.6956 552.051 17.5683V17.6003L552.864 18.9168C553.478 19.6939 554.549 20.503 555.441 21.0426C555.917 21.3281 556.294 21.8201 556.888 21.9943V21.9463H556.849C556.73 21.8041 556.551 21.7401 556.393 21.6292C556.036 21.3438 555.639 20.9947 555.362 20.6775C554.529 19.7895 553.796 18.8058 553.142 17.7909C552.824 17.2992 552.546 16.7599 552.289 16.2683C552.169 16.0777 552.169 15.7919 551.972 15.6973C551.674 16.0457 551.238 16.3479 551.019 16.7759C550.642 17.4578 550.603 18.2985 550.465 19.1709C550.385 19.1869 550.42 19.1709 550.385 19.2029C549.751 19.0764 549.532 18.5524 549.295 18.1087C548.7 16.9825 548.601 15.1744 549.116 13.8736C549.255 13.5405 549.85 12.4936 549.612 12.1765C549.492 11.875 549.097 11.7008 548.878 11.4626C548.621 11.1612 548.344 10.7808 548.165 10.4477C547.69 9.55892 547.452 8.57596 546.936 7.68757C546.697 7.27519 546.281 6.84681 545.944 6.46642C545.567 6.03805 545.152 5.73658 544.854 5.22928C544.755 5.05509 544.616 4.76927 544.775 4.57872C544.814 4.4518 544.894 4.40452 545.052 4.37253C545.31 4.19833 546.044 4.42016 546.301 4.51473C547.035 4.75291 547.649 4.97475 548.264 5.30749C548.542 5.46605 548.839 5.76751 549.196 5.84714H549.613C550.247 5.95806 550.961 5.87914 551.555 6.02134C552.606 6.29152 553.557 6.68755 554.41 7.11628C557.007 8.4327 559.149 10.3044 560.596 12.5412C560.834 12.906 560.933 13.2391 561.151 13.6198C561.568 14.3973 562.084 15.19 562.499 15.9519C562.916 16.6974 563.312 17.4592 563.907 18.0778C564.205 18.4109 565.394 18.5851 565.929 18.7596C566.326 18.9018 566.94 19.0298 567.298 19.204C567.971 19.5371 568.645 19.9178 569.279 20.2826C569.596 20.4724 570.588 20.8692 570.647 21.1856L570.649 21.1841ZM550.431 7.40068C550.157 7.39874 549.884 7.42539 549.618 7.47996V7.51195H549.657C549.816 7.76578 550.094 7.94033 550.292 8.16252L550.748 8.924L550.787 8.892C551.065 8.73345 551.204 8.47962 551.204 8.09924C551.085 7.98832 551.066 7.87705 550.966 7.76613C550.847 7.60758 550.59 7.52795 550.431 7.40139V7.40068Z" fill="#00678C"/>
<path fill-rule="evenodd" clip-rule="evenodd" d="M529.25 33.0324H536.705C537.577 33.0324 538.41 32.8902 539.084 32.636C540.214 32.2236 540.749 31.6691 540.749 30.9392V29.4166C540.749 28.83 540.135 28.2744 538.906 27.894C538.272 27.7038 537.478 27.5925 536.705 27.5925H533.572C532.521 27.5925 532.026 27.3384 531.887 26.7838C531.867 26.7205 531.867 26.6569 531.867 26.5936V25.6575C531.867 25.6096 531.867 25.5466 531.887 25.4834C532.026 25.055 532.303 24.9437 533.22 24.8648H540.853V23.4844H533.596C532.545 23.4844 531.99 23.5324 531.495 23.6593C529.968 24.0397 529.294 24.6426 529.294 25.7048V26.911C529.294 27.846 530.602 28.6398 532.823 28.83C533.06 28.846 533.318 28.846 533.576 28.846H536.253C536.352 28.846 536.451 28.846 536.53 28.862C537.343 28.9253 537.7 29.0362 537.937 29.2737C538.096 29.4006 538.136 29.5119 538.136 29.6548V30.8599C538.136 31.0021 538.017 31.1934 537.779 31.3516C537.542 31.5098 537.164 31.6211 536.668 31.6371C536.569 31.6371 536.511 31.6531 536.411 31.6531H529.25V33.0324ZM556.888 30.6377C556.888 32.0491 558.221 32.8418 560.874 33.0011C561.131 33.0171 561.369 33.0324 561.627 33.0324H568.368V31.6531H561.568C560.06 31.6531 559.485 31.3516 559.485 30.6221V23.4844H556.883V30.6381L556.888 30.6377ZM542.395 30.7007V25.7841C542.395 24.531 543.505 23.7691 545.666 23.5317C545.904 23.5157 546.142 23.4997 546.36 23.4997H551.276C551.534 23.4997 551.753 23.5157 552.01 23.5317C554.171 23.7691 555.261 24.5306 555.261 25.7841V30.7007C555.261 31.7156 554.806 32.2553 553.734 32.6204L556.272 34.4597H553.279L551.217 32.9691L549.134 33.0644H546.359C545.85 33.0624 545.344 33.0092 544.852 32.9062C543.208 32.5407 542.395 31.8432 542.395 30.7007V30.7007ZM545.19 30.5905C545.19 30.6537 545.234 30.7167 545.25 30.7967C545.388 31.3672 546.062 31.6847 547.093 31.6847H549.433L547.292 30.1301H550.285L552.168 31.4945C552.526 31.3356 552.744 31.1134 552.823 30.8279C552.843 30.7647 552.843 30.6857 552.843 30.6218V25.9107C552.843 25.8474 552.843 25.7845 552.823 25.7205C552.684 25.1815 552.011 24.8804 550.999 24.8804H547.093C545.943 24.8804 545.19 25.2768 545.19 25.9107L545.19 30.5905Z" fill="#CE8B2C"/>
<path d="M697.993 23.026L704.503 20.8994H704.509L704.671 21.2844C704.373 21.3548 704.079 21.4422 703.791 21.5463C703.778 21.6129 703.778 21.6814 703.791 21.7479C703.922 22.5111 704.004 23.2817 704.037 24.0552C704.066 24.5973 704.053 26.1949 704.019 26.6741C703.926 28.0967 703.729 29.5104 703.427 30.9037C702.879 33.0163 702.106 35.0639 701.12 37.011C700.944 37.4248 700.743 37.8279 700.52 38.2183C700.233 38.2355 699.945 38.2355 699.658 38.2183C697.413 38.0842 695.182 37.7662 692.988 37.2676C691.916 36.9979 690.865 36.6478 689.845 36.2201C688.29 35.5365 686.957 34.5335 686.289 33.5488C686.036 33.2024 685.87 32.8009 685.803 32.3774C685.736 31.9539 685.77 31.5206 685.904 31.1132C686.131 30.527 686.453 29.9821 686.857 29.4999C687.247 29.0348 687.679 28.6069 688.148 28.2219C688.507 27.9364 688.973 27.541 689.476 27.1089C689.934 26.716 690.356 26.3258 690.759 25.9434L692.331 25.5244L697.993 23.026Z" fill="url(#paint0_linear_713_8117)"/>
<path d="M697.79 5.72461C697.683 5.72461 695.936 6.34005 694.81 6.79836C693.611 7.25266 692.462 7.82924 691.382 8.51899C691.122 8.69876 690.896 8.92413 690.716 9.1842C690.696 9.23763 690.686 9.29459 690.688 9.35181L691.345 9.97773L692.916 10.4779L696.651 11.1484L700.92 11.8817L700.964 11.5124H700.925L700.365 11.4234L700.252 11.2217C699.671 10.1977 699.032 8.92754 698.657 8.07901C698.375 7.43446 698.135 6.77222 697.939 6.0965C697.856 5.76127 697.845 5.74032 697.79 5.73509V5.72461ZM697.712 5.9865C697.732 6.08775 697.747 6.19004 697.756 6.29291C697.846 6.99463 698.007 7.68528 698.238 8.354C698.421 8.8935 698.421 8.87778 698.209 8.80184C697.706 8.66303 695.459 8.27805 693.83 8.04759C693.568 8.01354 693.348 7.9795 693.348 7.97426C693.348 7.96902 694.524 7.33001 695.051 7.08383C695.724 6.7748 697.575 6.00221 697.714 5.97603L697.712 5.9865ZM692.969 8.18115L693.163 8.24401C694.834 8.71958 696.545 9.04561 698.275 9.21824L698.578 9.24967C698.48 9.31272 698.377 9.36705 698.269 9.41204C697.57 9.76298 696.803 10.1977 696.271 10.5198C696.17 10.5887 696.063 10.6483 695.952 10.6979C695.931 10.6979 695.829 10.677 695.721 10.6639L695.522 10.6325L695.032 10.1506C694.166 9.30991 693.487 8.66041 693.225 8.41424L692.969 8.18115ZM692.772 8.33305L693.466 9.19991C693.846 9.67655 694.228 10.1427 694.312 10.2475C694.366 10.308 694.416 10.3719 694.462 10.4387C694.441 10.4544 693.456 10.2606 692.935 10.1427C692.414 10.0249 692.178 9.96202 691.848 9.85726L691.586 9.77083V9.70012C691.586 9.37014 692.008 8.8804 692.717 8.39067L692.78 8.34615L692.772 8.33305ZM698.667 9.51156C698.686 9.51156 698.712 9.55608 698.77 9.68965C698.937 10.0563 699.458 11.0515 699.587 11.2427C699.626 11.3081 699.694 11.3134 699.003 11.1981C697.334 10.9363 696.798 10.8394 696.798 10.8289C696.832 10.8006 696.87 10.776 696.91 10.7555C697.442 10.4547 697.945 10.104 698.411 9.70798L698.647 9.51156C698.647 9.51156 698.662 9.49585 698.667 9.51156V9.51156Z" fill="url(#paint1_linear_713_8117)"/>
<path d="M690.752 9.11528C690.72 9.18187 690.703 9.25482 690.703 9.32872C690.703 9.40262 690.72 9.47557 690.752 9.54216C690.871 9.75152 691.028 9.93706 691.215 10.0895C691.215 10.0895 693.405 12.2239 693.669 12.5303C694.833 13.8063 695.471 15.4754 695.455 17.2025C695.484 18.4281 695.214 19.6423 694.669 20.7407C693.648 22.9746 691.488 25.439 688.156 28.1758L688.643 28.0134C689.202 27.6262 689.786 27.2763 690.39 26.9658C693.006 25.5622 695.719 24.3474 698.509 23.3308C703.113 21.5997 710.684 19.5726 714.995 18.9126L715.443 18.8446L715.375 18.7346C715.071 18.2531 714.74 17.7889 714.385 17.3439C713.42 16.1568 712.233 15.1686 710.891 14.4343C708.964 13.3579 706.468 12.5173 703.309 11.8913C702.715 11.7735 701.405 11.5483 700.342 11.3859C698.09 11.0349 696.634 10.794 695.028 10.519C694.455 10.4195 693.593 10.2728 693.022 10.1498C692.58 10.0574 692.143 9.94111 691.713 9.80144C691.359 9.66263 690.846 9.52383 690.739 9.10742L690.752 9.11528ZM692.022 10.3436C692.022 10.3436 692.106 10.3697 692.208 10.4038C692.396 10.4666 692.637 10.5426 692.923 10.6212L693.572 10.7914L694.117 10.9354C694.151 10.9695 694.641 12.5592 694.816 13.1694C694.879 13.3998 694.929 13.5962 694.924 13.5962C694.876 13.5371 694.835 13.473 694.8 13.4051C694.144 12.293 693.283 11.3155 692.263 10.5243C692.177 10.4661 692.097 10.4013 692.022 10.3305V10.3436ZM694.442 11.014C694.53 11.0232 694.617 11.038 694.704 11.0585C695.542 11.2445 697.042 11.5299 698.001 11.6923C698.1 11.7021 698.198 11.7241 698.291 11.7578C698.25 11.7906 698.205 11.8187 698.158 11.8416C697.996 11.9228 697.341 12.313 697.126 12.4596C696.627 12.7856 696.161 13.1583 695.733 13.5727C695.591 13.7141 695.471 13.8346 695.471 13.8346C695.449 13.7737 695.431 13.7116 695.416 13.6486C695.186 12.8228 694.892 12.0163 694.536 11.2366C694.498 11.1637 694.465 11.0885 694.436 11.0114C694.436 11.0114 694.436 11.0114 694.436 11.0114L694.442 11.014ZM698.703 11.8259C698.788 11.9978 698.848 12.1813 698.881 12.3706C699.064 13.1076 699.143 13.8665 699.116 14.6255C699.114 14.7665 699.103 14.9072 699.085 15.0471V15.0969L698.823 15.0131C698.299 14.8455 697.44 14.5967 696.707 14.3898C696.291 14.2745 695.95 14.1724 695.95 14.1619C696.225 13.8568 696.516 13.5665 696.822 13.2925C697.425 12.7704 698.055 12.2809 698.71 11.8259H698.703ZM699.043 11.8756C699.056 11.8599 701.078 12.2082 702 12.3994C702.683 12.533 703.676 12.7399 703.736 12.7634C703.796 12.787 703.663 12.8315 703.333 12.9808C702.21 13.4703 701.131 14.0565 700.109 14.7329C699.847 14.8978 699.648 15.0366 699.643 15.0366C699.636 14.932 699.636 14.827 699.643 14.7224C699.65 13.8041 699.471 12.8939 699.119 12.0458C699.086 11.9903 699.06 11.9304 699.043 11.8678V11.8756ZM704.263 12.9153C704.245 13.1346 704.208 13.3519 704.153 13.5648C703.861 14.5613 703.445 15.5169 702.914 16.409C702.852 16.5247 702.782 16.6366 702.707 16.7442C702.611 16.6969 702.518 16.6426 702.429 16.5818C701.809 16.2242 701.165 15.9084 700.502 15.6364C700.305 15.5526 700.133 15.4845 700.127 15.474C700.122 15.4635 701.678 14.3976 702.513 13.9027C703.171 13.4889 704.263 12.8891 704.263 12.9153ZM704.634 12.9756C704.679 12.9756 705.575 13.2217 706.043 13.3579C707.184 13.6986 708.302 14.1079 709.393 14.5836L709.762 14.7486L709.5 14.8088C707.566 15.2404 705.669 15.8272 703.828 16.5635C703.686 16.6237 703.566 16.6735 703.548 16.6735C703.572 16.5822 703.607 16.4942 703.652 16.4116C704.154 15.382 704.475 14.2737 704.6 13.1353C704.6 13.041 704.621 12.9677 704.634 12.9677V12.9756ZM695.73 15.0105C695.746 14.9974 696.429 15.1597 696.799 15.2724C697.392 15.4383 697.977 15.6341 698.551 15.859C698.551 15.859 698.417 15.9768 698.26 16.1209C697.616 16.6447 696.995 17.2234 696.251 17.941C696.031 18.1532 695.843 18.326 695.835 18.326C695.827 18.326 695.819 18.2972 695.835 18.2579C695.943 17.2637 695.917 16.2595 695.756 15.2724C695.743 15.1855 695.734 15.0981 695.73 15.0105V15.0105ZM710.103 15.0262C709.943 15.3059 709.768 15.5769 709.579 15.838C709.283 16.2597 708.851 16.8228 707.871 18.051C707.348 18.7005 706.774 19.4338 706.583 19.68C706.392 19.9262 706.222 20.1331 706.219 20.1331C706.168 20.0713 706.121 20.0056 706.08 19.9366C705.528 19.1092 704.856 18.3679 704.087 17.7368C703.94 17.6137 703.778 17.4749 703.723 17.4408C703.687 17.4171 703.653 17.389 703.624 17.357C703.624 17.357 704.462 16.9851 705.095 16.7285C706.208 16.2754 707.714 15.7333 708.859 15.385C709.456 15.199 710.09 15.0157 710.1 15.0262H710.103ZM710.48 15.1231C710.58 15.1572 710.675 15.2038 710.763 15.2619C711.957 15.946 713.062 16.7755 714.052 17.7315C714.314 17.9934 714.958 18.656 714.948 18.6612C714.937 18.6665 714.723 18.6822 714.455 18.7005C712.005 18.9196 709.575 19.324 707.185 19.9105L706.85 19.9864C706.85 19.9864 707.033 19.7926 707.274 19.5621C708.77 18.1217 709.453 17.2051 710.26 15.5866C710.373 15.3457 710.472 15.1388 710.48 15.1231V15.1231ZM699.525 16.2466C699.593 16.2466 700.232 16.5609 700.714 16.8018C701.157 17.0244 701.822 17.378 701.856 17.4068C701.89 17.4356 701.625 17.5351 701.332 17.6687C700.408 18.1322 699.614 18.5696 698.789 19.0724L698.352 19.3343C698.331 19.3343 698.336 19.316 698.47 19.0724C698.928 18.2239 699.265 17.3149 699.47 16.3723C699.491 16.299 699.509 16.2492 699.525 16.2492V16.2466ZM698.883 16.3644C698.813 16.685 698.726 17.0014 698.621 17.3125C698.392 18.0036 698.1 18.6725 697.749 19.3107C697.671 19.4495 697.553 19.6512 697.487 19.7638L697.364 19.9602L697.102 19.6983C696.834 19.4263 696.525 19.1983 696.186 19.0226C696.103 18.9849 696.024 18.9393 695.95 18.8865C695.95 18.8472 696.791 18.0851 697.435 17.5325C697.899 17.1344 698.873 16.3513 698.886 16.3671L698.883 16.3644ZM702.796 17.9725L703.037 18.1296C703.625 18.5163 704.192 18.9351 704.734 19.3841C705.014 19.6171 705.556 20.1043 705.664 20.2221L705.724 20.285L705.326 20.3976C703.071 21.034 701.329 21.5813 699.287 22.3434C699.061 22.4272 698.87 22.4953 698.855 22.4953C698.839 22.4953 698.8 22.5189 699.308 22.0527C700.553 20.9196 701.662 19.6452 702.613 18.2553L702.786 17.9934L702.796 17.9725ZM701.767 18.2343C701.767 18.2343 701.104 19.2007 700.701 19.7245C700.219 20.3635 699.363 21.4373 698.771 22.1339C698.525 22.4246 698.315 22.6577 698.305 22.6708C698.294 22.6839 698.284 22.6027 698.284 22.4901C698.278 21.8755 698.136 21.2699 697.867 20.7171C697.752 20.4919 697.734 20.4369 697.757 20.4133C697.851 20.3295 699.284 19.5124 700.188 19.0253C700.798 18.7005 701.759 18.2186 701.759 18.2396L701.767 18.2343ZM695.549 19.7586C695.639 19.7959 695.727 19.8388 695.811 19.8869C696.112 20.0499 696.396 20.241 696.66 20.4578C696.574 20.5469 696.478 20.626 696.374 20.6935C695.906 21.0287 695.199 21.5656 694.785 21.8956C694.371 22.2256 694.337 22.2491 694.387 22.1758C694.631 21.8118 694.848 21.4302 695.036 21.034C695.196 20.7001 695.334 20.3563 695.45 20.0047C695.468 19.9124 695.502 19.8238 695.549 19.7428V19.7586ZM697.207 21.068C697.231 21.068 697.262 21.1073 697.393 21.3037C697.679 21.7355 697.868 22.2243 697.946 22.7363V22.8358L697.273 23.0977C696.068 23.5665 694.955 24.0274 694.203 24.3731C693.991 24.47 693.622 24.6481 693.381 24.7659C693.14 24.8838 692.944 24.9833 692.944 24.9781C692.944 24.9728 693.096 24.8602 693.281 24.7162C694.655 23.7437 695.899 22.5996 696.982 21.3116C697.087 21.1885 697.178 21.0759 697.189 21.0706L697.207 21.068ZM696.445 21.2566C696.159 21.6247 695.85 21.9746 695.521 22.3041C694.607 23.2377 693.586 24.0589 692.477 24.7502L692.182 24.9362C692.147 24.9571 692.182 24.9073 692.705 24.3521C693.006 24.0305 693.29 23.694 693.556 23.3439C693.682 23.1552 693.844 22.9932 694.033 22.8672C694.756 22.3434 696.424 21.2225 696.445 21.2435V21.2566Z" fill="url(#paint2_radial_713_8117)"/>
<path d="M734.724 18.0155C734.58 18.0155 734.436 18.0312 734.294 18.0312C731.387 18.1857 729.428 19.4637 728.284 21.9595C727.304 24.2197 727.409 27.1712 728.284 29.4418C729.31 31.6626 730.971 32.8464 733.744 33.2759C734.331 33.3728 734.724 33.6949 735.86 35.0201L737.259 36.6595H739.794L738.107 34.9598C737.175 34.0275 736.421 33.2156 736.421 33.1449C736.421 33.0742 736.777 32.9171 737.206 32.7861C738.628 32.3566 739.81 31.2567 740.637 29.5727C741.305 28.2188 741.402 27.8023 741.499 26.1184C741.761 21.111 739.108 17.9788 734.711 18.0155H734.724ZM736.947 31.11C735.714 31.7071 733.922 31.825 732.757 31.3981C731.547 30.9529 730.376 29.6984 729.85 28.2764C729.266 26.7233 729.35 23.8556 730.017 22.5645C731.094 20.5087 732.516 19.5632 734.595 19.5632C737.678 19.5632 739.432 21.4515 739.66 25.0027C739.841 27.9647 738.848 30.1882 736.95 31.1074L736.947 31.11ZM780.735 22.2948C780.254 22.2734 779.775 22.3805 779.349 22.605C778.922 22.8296 778.563 23.1636 778.308 23.5728L777.878 24.2459V22.499H776.045V32.9747H777.878V29.6225C777.878 26.561 777.915 26.2179 778.342 25.3668C778.934 24.2197 779.947 23.6461 780.927 23.9211L781.584 24.1123V22.2974H780.735V22.2948ZM769.922 22.1979C769.544 22.202 769.167 22.2468 768.798 22.3314C766.337 22.9757 764.949 25.3327 765.032 27.7578C765.032 29.7875 765.428 30.8036 766.407 31.8669C768.416 33.5142 770.231 33.6478 772.68 32.7626C773.099 32.5845 773.554 32.3802 773.554 32.3802V30.7251L772.68 31.1755C770.697 32.0398 769.204 32.0398 768.007 31.0236C767.245 30.2379 766.908 29.3135 766.753 28.2502H774.188V26.8386C774.188 23.9578 772.454 22.1455 769.935 22.19L769.922 22.1979ZM766.926 26.7967C766.926 26.7967 767.201 25.0027 768.217 24.2982C768.683 23.962 769.242 23.779 769.817 23.7745C770.379 23.7735 770.926 23.9575 771.373 24.2982C772.303 25.0132 772.46 26.7705 772.46 26.7705H766.926V26.7967ZM722.559 24.9084C720.563 23.7011 719.678 22.829 719.788 21.7998C720.097 18.9583 723.609 19.3511 725.55 20.4275L725.565 18.513C724.729 18.1947 723.842 18.0288 722.946 18.0233C720.589 17.9866 719.052 18.7618 718.337 20.3411C717.29 22.6719 718.214 24.4292 721.585 26.3881C723.475 27.4881 724.311 28.444 724.311 29.4837C724.311 31.6364 721.716 32.3881 719.039 31.0367C718.489 30.7748 718.023 30.5339 717.991 30.5339C717.932 31.2218 717.916 31.9129 717.944 32.6028C718.61 32.8613 719.298 33.0568 720 33.1868C723.059 33.797 725.843 32.3619 726.105 30.0441C726.333 27.8573 725.542 26.7103 722.546 24.9189L722.559 24.9084ZM797.028 22.1821C796.645 22.1873 796.264 22.2321 795.891 22.3157C793.429 22.96 792.044 25.317 792.138 27.7421C792.138 29.7692 792.534 30.7748 793.513 31.8381C795.519 33.488 797.337 33.6216 799.799 32.7364C800.215 32.5583 800.668 32.354 800.668 32.354V30.7041L799.796 31.1598C797.811 32.0188 796.315 32.0188 795.124 31.0027C794.356 30.217 794.024 29.3056 793.869 28.2318H801.276V26.8202C801.276 23.9552 799.544 22.1376 797.022 22.1848L797.028 22.1821ZM794.026 26.7731C794.026 26.7731 794.304 24.9792 795.318 24.2616C795.784 23.9254 796.343 23.7423 796.918 23.7378C797.479 23.7372 798.025 23.9212 798.471 24.2616C799.403 24.9792 799.56 26.7469 799.56 26.7469H794.029L794.026 26.7731ZM760.295 24.9399C758.299 23.7352 757.414 22.8604 757.524 21.8312C757.833 18.9871 761.348 19.3825 763.286 20.4589L763.299 18.5445C762.462 18.2263 761.575 18.0613 760.68 18.0574C758.323 18.0207 756.785 18.7959 756.068 20.3751C755.02 22.7059 755.96 24.4606 759.318 26.4222C761.206 27.5195 762.044 28.4623 762.044 29.5046C762.044 31.6574 759.451 32.4195 756.775 31.0577C756.225 30.7827 755.759 30.5574 755.727 30.5574C755.668 31.2454 755.652 31.9364 755.68 32.6264C756.343 32.8784 757.027 33.0738 757.723 33.2104C760.785 33.8206 763.568 32.3881 763.83 30.0677C764.058 27.8914 763.267 26.7469 760.282 24.953L760.295 24.9399ZM807.841 22.2712C807.36 22.2483 806.881 22.3548 806.454 22.5796C806.028 22.8043 805.669 23.1391 805.416 23.5492L804.984 24.2197V22.4755H803.151V32.9511H804.984V29.5963C804.984 26.5374 805.021 26.1786 805.45 25.3432C806.039 24.1961 807.053 23.6226 808.032 23.8975L808.69 24.0887V22.2712H807.841ZM745.658 24.8639V18.1962H743.809V32.9668H751.61V31.22H745.658V24.8639ZM788.566 26.9433L787.037 30.9215L785.567 26.9198L784.075 22.4859H782.173C783.404 25.9743 784.742 29.5256 786.102 32.9616C786.686 32.9747 787.272 32.9616 787.859 32.9616L789.923 27.7762L792.018 22.4833H790.203C790.203 22.4833 789.401 24.5785 788.566 26.9355V26.9433ZM749.934 14.1709C750.074 14.1754 750.213 14.151 750.343 14.0991C750.473 14.0473 750.59 13.9692 750.689 13.8697C750.788 13.7746 750.867 13.6599 750.92 13.5328C750.974 13.4057 751 13.2689 750.998 13.1312C751.001 12.9933 750.975 12.8562 750.922 12.729C750.869 12.6017 750.789 12.4871 750.689 12.3926C750.489 12.2029 750.223 12.0994 749.947 12.1046C749.809 12.099 749.67 12.1216 749.541 12.1711C749.411 12.2206 749.293 12.296 749.193 12.3926C749.095 12.4892 749.018 12.6048 748.967 12.7323C748.916 12.8598 748.891 12.9964 748.895 13.1338C748.889 13.271 748.913 13.4079 748.964 13.5353C749.016 13.6626 749.094 13.7775 749.193 13.8723C749.291 13.9682 749.407 14.0432 749.534 14.0927C749.662 14.1423 749.798 14.1653 749.934 14.1604V14.1709ZM749.277 12.4712C749.408 12.3408 749.575 12.252 749.757 12.216C749.938 12.18 750.126 12.1984 750.298 12.2688C750.469 12.3393 750.615 12.4587 750.719 12.6121C750.822 12.7655 750.878 12.9461 750.88 13.1312C750.883 13.2543 750.861 13.3769 750.816 13.4916C750.771 13.6063 750.704 13.7108 750.618 13.799C750.532 13.8853 750.429 13.953 750.316 13.998C750.203 14.0431 750.082 14.0645 749.961 14.0609C749.839 14.0656 749.717 14.0447 749.604 13.9996C749.491 13.9545 749.388 13.8862 749.303 13.799C749.215 13.7119 749.145 13.6079 749.098 13.4931C749.05 13.3784 749.027 13.2553 749.028 13.1312C749.022 13.01 749.041 12.8889 749.084 12.7754C749.127 12.6619 749.193 12.5584 749.277 12.4712ZM749.72 13.2255H749.832C749.916 13.2255 750 13.3093 750.071 13.4638L750.215 13.7885H750.442L750.272 13.4402C750.199 13.2962 750.128 13.2124 750.044 13.1783C750.139 13.1625 750.226 13.1166 750.293 13.0474C750.351 12.981 750.38 12.8943 750.374 12.8064C750.379 12.7576 750.372 12.7084 750.354 12.6628C750.335 12.6173 750.307 12.5767 750.27 12.5445C750.157 12.4664 750.021 12.4285 749.885 12.4372H749.505V13.778H749.696V13.2255H749.72ZM749.72 12.6048H749.887C749.979 12.5956 750.071 12.6167 750.149 12.665C750.194 12.6991 750.207 12.7462 750.207 12.83C750.207 12.9871 750.11 13.0578 749.932 13.0578H749.727V12.6048H749.72ZM719.078 13.1076C719.078 12.6414 719.078 12.2931 719.052 12.0888H719.065C719.099 12.2741 719.151 12.4557 719.22 12.631L721.001 16.6091H721.286L723.067 12.5943C723.132 12.431 723.183 12.2629 723.221 12.0915H723.237C723.2 12.4895 723.187 12.8352 723.187 13.1102V16.6222H723.798V11.4001H723.033L721.396 15.0325C721.337 15.1774 721.249 15.3922 721.134 15.6768H721.111C721.046 15.4643 720.967 15.2569 720.872 15.0561L719.269 11.3896H718.458V16.6091H719.044V13.1102L719.078 13.1076ZM725.146 13.1076H725.67V16.3603H725.146V13.1076ZM725.408 11.916C725.457 11.9161 725.505 11.9065 725.55 11.8876C725.595 11.8687 725.636 11.841 725.67 11.806C725.744 11.7384 725.788 11.6442 725.793 11.5441C725.793 11.4944 725.782 11.4452 725.762 11.4C725.741 11.3548 725.71 11.3146 725.673 11.2822C725.636 11.2461 725.593 11.2177 725.545 11.1988C725.497 11.1799 725.446 11.1708 725.395 11.1722C725.346 11.1722 725.298 11.1819 725.253 11.2008C725.208 11.2197 725.167 11.2474 725.133 11.2822C725.06 11.3505 725.017 11.4444 725.013 11.5441C725.011 11.5941 725.022 11.6436 725.043 11.689C725.063 11.7344 725.094 11.7744 725.133 11.806C725.203 11.8747 725.297 11.9141 725.395 11.916H725.408ZM729.423 16.431V15.8575C729.161 16.0641 728.837 16.1774 728.504 16.1796C728.33 16.1878 728.156 16.1579 727.995 16.0918C727.834 16.0258 727.689 15.9252 727.571 15.7972C727.331 15.5106 727.208 15.1441 727.226 14.7706C727.211 14.38 727.345 13.9983 727.6 13.7021C727.718 13.5727 727.862 13.4704 728.023 13.4021C728.184 13.3339 728.358 13.3013 728.533 13.3066C728.85 13.3085 729.16 13.4092 729.418 13.5947V12.974C729.045 12.8005 728.629 12.7432 728.224 12.8096C727.818 12.8759 727.442 13.0628 727.145 13.3459C726.785 13.7526 726.597 14.2831 726.621 14.8256C726.6 15.3174 726.771 15.7979 727.097 16.1665C727.263 16.3403 727.464 16.4769 727.687 16.5672C727.909 16.6575 728.148 16.6995 728.389 16.6903C728.747 16.6912 729.101 16.6011 729.415 16.4284L729.423 16.431ZM730.929 14.6973C730.906 14.3402 730.998 13.9852 731.191 13.6838C731.259 13.5851 731.349 13.5043 731.455 13.4483C731.561 13.3922 731.679 13.3625 731.798 13.3616C731.959 13.3485 732.119 13.391 732.251 13.4821V12.8667C732.137 12.8279 732.016 12.8119 731.895 12.8195C731.685 12.8193 731.482 12.8914 731.319 13.0238C731.124 13.1884 730.983 13.4085 730.916 13.655H730.903V12.8902H730.306V16.6196H730.903V14.7051L730.929 14.6973ZM734.36 16.685C734.61 16.6961 734.86 16.6537 735.092 16.5607C735.325 16.4677 735.535 16.3261 735.708 16.1455C736.056 15.7538 736.238 15.2417 736.214 14.7182C736.244 14.2023 736.078 13.694 735.748 13.2962C735.582 13.1177 735.378 12.9781 735.152 12.8876C734.925 12.797 734.682 12.7577 734.438 12.7724C734.192 12.7611 733.946 12.7986 733.714 12.8826C733.482 12.9667 733.269 13.0956 733.087 13.2621C732.899 13.4652 732.754 13.7043 732.661 13.9649C732.569 14.2256 732.53 14.5024 732.547 14.7785C732.522 15.2813 732.693 15.7744 733.024 16.1534C733.197 16.331 733.406 16.4697 733.636 16.56C733.867 16.6503 734.115 16.6903 734.362 16.6772L734.36 16.685ZM733.508 13.6471C733.624 13.5278 733.764 13.4341 733.918 13.3723C734.072 13.3105 734.238 13.2819 734.404 13.2883C734.569 13.2789 734.734 13.3061 734.887 13.3682C735.04 13.4302 735.178 13.5255 735.289 13.6471C735.527 13.9632 735.64 14.3557 735.606 14.7497C735.633 15.1231 735.527 15.494 735.308 15.7972C735.199 15.9269 735.061 16.0292 734.906 16.0961C734.75 16.1629 734.581 16.1924 734.412 16.1822C734.242 16.1884 734.072 16.1572 733.915 16.0907C733.758 16.0241 733.617 15.924 733.503 15.7972C733.265 15.5022 733.146 15.1282 733.171 14.7497C733.151 14.5555 733.17 14.3593 733.227 14.1726C733.284 13.986 733.378 13.8127 733.503 13.6628L733.508 13.6471ZM738.833 16.3682C738.944 16.2746 739.033 16.1575 739.093 16.0252C739.154 15.8929 739.184 15.7488 739.181 15.6034C739.186 15.4781 739.165 15.3532 739.12 15.2361C739.075 15.1191 739.007 15.0124 738.919 14.9225C738.715 14.744 738.479 14.6062 738.223 14.5166C738.021 14.4412 737.832 14.3361 737.662 14.2049C737.611 14.1557 737.57 14.0962 737.544 14.0303C737.517 13.9644 737.505 13.8936 737.508 13.8226C737.506 13.7509 737.521 13.6799 737.552 13.6153C737.583 13.5507 737.629 13.4943 737.686 13.4507C737.824 13.3495 737.994 13.2995 738.165 13.3093C738.469 13.3032 738.766 13.395 739.013 13.5712V12.9767C738.764 12.8546 738.49 12.7935 738.212 12.7986C737.87 12.7844 737.534 12.8941 737.267 13.1076C737.058 13.282 736.926 13.5322 736.902 13.8033C736.877 14.0744 736.961 14.3442 737.136 14.5532C737.322 14.7346 737.543 14.8763 737.785 14.9697C738.004 15.0568 738.209 15.174 738.395 15.318C738.446 15.3621 738.486 15.4169 738.513 15.4786C738.54 15.5402 738.552 15.607 738.55 15.6741C738.55 16.0225 738.312 16.1979 737.845 16.1979C737.49 16.1994 737.146 16.073 736.876 15.8418V16.486C737.156 16.6444 737.474 16.7232 737.796 16.7139C738.167 16.7197 738.53 16.5977 738.822 16.3682H738.833ZM741.68 12.7829C741.433 12.7716 741.187 12.8091 740.955 12.8931C740.723 12.9771 740.51 13.1061 740.328 13.2726C740.141 13.4741 739.996 13.7112 739.902 13.9699C739.807 14.2286 739.766 14.5036 739.781 14.7785C739.756 15.2812 739.927 15.774 740.257 16.1534C740.62 16.4991 741.101 16.6919 741.602 16.6919C742.103 16.6919 742.585 16.4991 742.947 16.1534C743.296 15.7601 743.476 15.2458 743.45 14.7209C743.48 14.205 743.313 13.6969 742.984 13.2988C742.816 13.1219 742.613 12.9834 742.387 12.893C742.16 12.8025 741.917 12.7623 741.674 12.775L741.68 12.7829ZM742.824 14.7497C742.851 15.1231 742.745 15.494 742.525 15.7972C742.417 15.9269 742.279 16.0292 742.123 16.0961C741.968 16.1629 741.799 16.1924 741.63 16.1822C741.459 16.1886 741.29 16.1574 741.133 16.0909C740.975 16.0244 740.835 15.9241 740.721 15.7972C740.498 15.4817 740.381 15.104 740.386 14.7179C740.39 14.3318 740.517 13.9571 740.747 13.6471C740.863 13.5274 741.002 13.4335 741.157 13.3716C741.311 13.3098 741.477 13.2814 741.643 13.2883C741.807 13.2805 741.971 13.3086 742.124 13.3705C742.276 13.4325 742.413 13.5269 742.525 13.6471C742.741 13.973 742.846 14.3596 742.824 14.7497ZM744.44 16.6169H745.034V13.38H745.904V12.8798H745.029V12.3036C745.029 11.7798 745.233 11.5179 745.652 11.5179C745.789 11.5165 745.924 11.5489 746.045 11.6122V11.0832C745.907 11.0335 745.76 11.013 745.613 11.0229C745.467 11.0178 745.321 11.0415 745.184 11.0927C745.047 11.1439 744.921 11.2217 744.814 11.3215C744.685 11.4462 744.583 11.5972 744.517 11.7643C744.451 11.9314 744.421 12.1109 744.429 12.2905V12.9007H743.809V13.4035H744.44V16.6091V16.6169ZM746.889 15.5982C746.889 16.3289 747.211 16.6981 747.868 16.6981C748.063 16.7101 748.257 16.6674 748.428 16.575V16.0513C748.318 16.1324 748.183 16.1748 748.046 16.1717C747.967 16.1797 747.888 16.1697 747.813 16.1425C747.739 16.1153 747.672 16.0716 747.617 16.0146C747.519 15.8582 747.472 15.6751 747.483 15.4908V13.3957H748.428V12.8771H747.475V11.7798C747.271 11.8505 747.069 11.9108 746.878 11.971V12.8771H746.234V13.38H746.878V15.5903L746.889 15.5982ZM811.021 22.4702C810.922 22.3756 810.806 22.3014 810.679 22.2519C810.552 22.2025 810.416 22.1788 810.279 22.1821C810.141 22.1789 810.003 22.2038 809.875 22.2553C809.746 22.3068 809.629 22.3839 809.532 22.4818C809.434 22.5797 809.357 22.6965 809.305 22.825C809.254 22.9536 809.229 23.0913 809.232 23.2297C809.227 23.3669 809.251 23.5036 809.302 23.6309C809.354 23.7582 809.431 23.8731 809.53 23.9682C809.631 24.0638 809.749 24.1384 809.879 24.1879C810.008 24.2373 810.146 24.2606 810.285 24.2563C810.424 24.2601 810.562 24.2355 810.691 24.1842C810.82 24.1329 810.938 24.0558 811.036 23.9578C811.136 23.862 811.215 23.7468 811.268 23.6193C811.321 23.4918 811.347 23.3547 811.345 23.2166C811.345 23.0777 811.316 22.9403 811.26 22.8129C811.205 22.6855 811.124 22.5707 811.023 22.4755L811.021 22.4702ZM810.924 23.8818C810.746 24.0467 810.512 24.1384 810.269 24.1384C810.026 24.1384 809.792 24.0467 809.614 23.8818C809.526 23.7938 809.456 23.6888 809.408 23.5732C809.361 23.4576 809.338 23.3337 809.339 23.2088C809.344 23.0265 809.401 22.8495 809.504 22.6992C809.607 22.5489 809.751 22.4318 809.92 22.3621C810.088 22.2925 810.273 22.2733 810.453 22.3069C810.632 22.3405 810.797 22.4255 810.929 22.5514C811.017 22.6367 811.086 22.7389 811.134 22.8519C811.181 22.9649 811.205 23.0863 811.204 23.2088C811.208 23.3333 811.185 23.4572 811.137 23.572C811.088 23.6868 811.016 23.7898 810.924 23.874V23.8818ZM810.4 23.2716C810.498 23.2538 810.589 23.2083 810.662 23.1407C810.72 23.0743 810.749 22.9876 810.743 22.8997C810.748 22.8506 810.741 22.8011 810.722 22.7554C810.703 22.7097 810.674 22.6694 810.636 22.6378C810.524 22.5606 810.389 22.5236 810.253 22.5331H809.871V23.8687H810.065V23.3083H810.183C810.266 23.3083 810.348 23.3895 810.421 23.5466L810.565 23.8687H810.793L810.615 23.5099C810.552 23.3528 810.481 23.2821 810.408 23.248L810.4 23.2716ZM810.269 23.1511H810.062V22.6981H810.232C810.319 22.6915 810.407 22.7126 810.481 22.7583C810.531 22.7924 810.541 22.8395 810.541 22.9259C810.541 23.0804 810.444 23.1511 810.266 23.1511H810.269ZM701.762 38.2754H701.869V37.4321H702.147V37.3273H701.484V37.4321H701.762V38.2754ZM702.404 37.6416C702.409 37.5789 702.409 37.5158 702.404 37.4531C702.411 37.4872 702.421 37.5206 702.435 37.5526L702.757 38.2754H702.81L703.126 37.5342C703.126 37.5107 703.142 37.4819 703.158 37.4426C703.155 37.5036 703.155 37.5648 703.158 37.6259V38.2649H703.27V37.3169H703.134L702.841 37.9716C702.841 37.9952 702.812 38.0397 702.796 38.0921C702.784 38.0537 702.769 38.0161 702.752 37.9795L702.459 37.3169H702.307V38.2675H702.411V37.6311L702.404 37.6416Z" fill="#DCDEE1"/>
<path d="M57.8144 64.7041L58.747 66.2074C58.95 66.4786 59.1863 66.7304 59.4519 66.9584C60.2331 67.6279 60.9765 68.3297 61.6422 69.0814C63.2232 70.8612 64.2901 72.8375 65.0524 74.9774C65.5093 76.2842 65.7574 77.6232 65.7762 78.9784C65.8532 83.0286 64.2328 86.5068 60.956 89.3976C60.4251 89.8559 59.8517 90.2765 59.2415 90.6553C58.9164 90.6553 58.7649 90.4353 58.6315 90.2468C58.3748 89.8802 58.2311 89.479 58.1549 89.0713C58.0403 88.5814 57.9641 88.0916 58.0026 87.5848V87.356C57.9838 87.3069 57.6981 64.8192 57.8118 64.7048L57.8144 64.7041Z" fill="#599636"/>
<path d="M57.8153 64.6575C57.7768 64.5915 57.7383 64.6413 57.7007 64.6736C57.7195 64.9999 57.586 65.294 57.3756 65.5719C57.1471 65.8506 56.8417 66.0618 56.5371 66.2906C54.8414 67.5483 53.5085 69.067 52.4407 70.7654C51.0308 73.0519 50.2882 75.5013 50.0794 78.0819C49.9853 79.0132 50.4216 82.2956 50.7656 83.2423C51.6981 85.7577 53.375 87.8638 55.5567 89.6927C56.0905 90.1327 56.662 90.5419 57.2524 90.9335C57.4235 90.9335 57.4432 90.803 57.4808 90.7047C57.5559 90.4962 57.6131 90.2832 57.6519 90.0675C57.823 89.2513 57.9188 88.4343 58.0326 87.6181L57.823 64.6575H57.8153Z" fill="#6CAC48"/>
<path d="M58.751 91.6526C58.7895 91.2771 59.0077 90.9669 59.2276 90.6567C58.9991 90.576 58.8272 90.4118 58.6937 90.2314C58.579 90.0678 58.4841 89.8647 58.4079 89.6924C58.141 89.0067 58.0828 88.288 58.0075 87.5855V87.1602C57.9134 87.2262 57.8929 87.7806 57.8929 87.8627C57.8356 88.6136 57.7218 89.3492 57.5507 90.0671C57.4933 90.3604 57.4566 90.6552 57.2461 90.9163C57.2461 90.9493 57.2461 90.9823 57.2649 91.0307C57.6071 91.896 57.703 92.7782 57.7611 93.6766V94.0029C57.7611 94.3945 57.7423 94.3131 58.123 94.4429C58.2753 94.492 58.4481 94.5089 58.5996 94.6064C58.7142 94.6064 58.733 94.5258 58.733 94.4598L58.6757 93.9208V92.4174C58.6569 92.1564 58.7142 91.8946 58.7527 91.6496L58.751 91.6526Z" fill="#C2BFBF"/>
<path d="M73.217 84.821V86.3763C73.2149 86.4379 73.219 86.4995 73.2292 86.5605C73.2528 86.7447 73.3847 86.8571 73.5786 86.9087C73.7596 86.9496 73.9434 86.9803 74.129 87.0008C74.2365 87.0113 74.2723 87.0518 74.2845 87.1506C74.2968 87.4988 74.2609 87.54 73.8669 87.519C72.9479 87.4778 72.0279 87.4681 71.1089 87.519H71.0215C70.735 87.5295 70.7114 87.5085 70.7114 87.2629C70.7114 87.2217 70.7236 87.1708 70.7236 87.1296C70.7236 87.0548 70.783 87.0173 70.8669 87.0173C71.0591 86.9971 71.2373 86.9559 71.4173 86.9252C71.668 86.8743 71.8104 86.741 71.8349 86.5261C71.8698 86.2909 71.8698 86.0453 71.8698 85.8095L71.882 83.0673C71.886 82.9877 71.8634 82.9089 71.817 82.8399C71.7706 82.771 71.7023 82.7148 71.62 82.6779C71.4039 82.575 71.1754 82.4926 70.9385 82.4323C70.8669 82.412 70.7953 82.4023 70.7358 82.3709C70.5611 82.299 70.5568 82.1664 70.7236 82.0841C70.783 82.0541 70.8547 82.0331 70.9263 82.0226C71.6508 81.931 72.3627 81.7767 73.051 81.5621C73.1942 81.5209 73.2301 81.5322 73.2432 81.6542C73.2554 81.7291 73.2432 81.819 73.2309 81.8894C73.2073 82.0227 73.2073 82.1552 73.2073 82.2787C73.2073 82.3297 73.2196 82.3813 73.279 82.412C73.3384 82.4427 73.3987 82.412 73.4537 82.3821C73.7044 82.2173 73.9552 82.0646 74.2295 81.9328C74.6226 81.7486 75.042 81.5846 75.4962 81.5337C76.0466 81.4723 76.5228 81.5951 76.9412 81.9021C77.1142 82.0348 77.2666 82.1861 77.3946 82.3521C77.5143 82.5019 77.5257 82.5056 77.6812 82.4031C78.1355 82.1163 78.6125 81.8609 79.1262 81.6767C79.6634 81.482 80.213 81.452 80.7616 81.6153C81.3225 81.789 81.7051 82.1267 81.9323 82.5873C82.1245 82.9557 82.2066 83.3361 82.2066 83.733V86.4752C82.2066 86.6594 82.2939 86.7747 82.5054 86.8645C82.7325 86.9394 82.9832 86.9769 83.2217 87.0181C83.3772 87.048 83.3772 87.048 83.3772 87.1828C83.3536 87.5198 83.3178 87.5407 82.9352 87.5198C81.977 87.4737 81.0165 87.4737 80.0583 87.5198C79.8661 87.5303 79.8661 87.5303 79.8556 87.3663V87.3153C79.8434 87.0383 79.8434 87.0383 80.1544 86.9784L80.4646 86.9065C80.5696 86.8853 80.6633 86.8344 80.7305 86.762C80.7977 86.6896 80.8345 86.5999 80.835 86.5074L80.8699 85.7398L80.8463 83.7345C80.8372 83.5554 80.7929 83.379 80.7153 83.2125C80.4165 82.588 79.7604 82.3634 79.127 82.4248C78.6492 82.466 78.2316 82.6292 77.8376 82.8651C77.7537 82.916 77.6943 82.9774 77.7065 83.08C77.814 83.7352 77.7415 84.3904 77.7546 85.0449V86.4677C77.7546 86.7238 77.8743 86.8466 78.1608 86.908L78.7112 87.0106C78.7951 87.0211 78.8422 87.0518 78.8422 87.1334V87.2083C78.83 87.4951 78.8073 87.5078 78.4718 87.5048C77.5169 87.4636 76.5612 87.4748 75.6186 87.5048C75.2953 87.5153 75.2691 87.4846 75.284 87.2053C75.2962 87.0405 75.3189 87.0315 75.4989 87.0008L75.892 86.9394C76.2414 86.878 76.3699 86.7657 76.3935 86.4482L76.4284 85.7623L76.4048 83.7053C76.3812 83.4492 76.3175 83.2035 76.1541 82.9684C75.9156 82.5895 75.5425 82.3956 75.0315 82.3746C74.5178 82.3446 74.0644 82.5079 73.6337 82.7116C73.3349 82.8613 73.2038 83.0388 73.2274 83.3361V84.83L73.217 84.821ZM95.7102 84.8832V86.3261C95.7121 86.4288 95.72 86.5312 95.7338 86.6332C95.7389 86.7011 95.7696 86.7658 95.8213 86.8175C95.873 86.8692 95.9428 86.9052 96.0204 86.92C96.2264 86.9714 96.4386 87.0023 96.6529 87.0121C96.7726 87.0225 96.7961 87.063 96.8084 87.1454V87.2172C96.7961 87.5752 96.749 87.6164 96.3427 87.5961C95.4342 87.5452 94.5282 87.555 93.6205 87.5961L93.2711 87.6066C93.1994 87.6066 93.1837 87.5767 93.1636 87.5347C93.1287 87.393 93.1287 87.2466 93.1636 87.1049C93.1758 87.0435 93.223 87.03 93.2946 87.0128C93.4694 86.9926 93.6179 86.9619 93.7839 86.9379C94.0827 86.8765 94.1901 86.7732 94.2015 86.5081L94.2364 85.6485V83.1309C94.2364 82.9467 94.1526 82.8344 93.9621 82.752C93.7472 82.6494 93.52 82.5783 93.2807 82.5064C93.209 82.4862 93.1374 82.4652 93.078 82.4345C92.9225 82.3424 92.9033 82.2099 93.0544 82.1073C93.1222 82.0595 93.2054 82.0308 93.2929 82.0249C94.0573 81.9223 94.7973 81.7793 95.5137 81.5337C95.5975 81.5037 95.6333 81.5232 95.6692 81.5846C95.705 81.646 95.7172 81.7179 95.7041 81.789L95.6692 82.2698C95.6692 82.3312 95.6342 82.4195 95.6928 82.4435C95.7644 82.4847 95.8124 82.3926 95.8718 82.3686C96.2244 82.1151 96.6138 81.9019 97.0303 81.7344C97.4007 81.5846 97.7816 81.4887 98.2123 81.5097C99.0125 81.5509 99.5856 81.8991 99.9552 82.5026C100.147 82.8201 100.23 83.1676 100.265 83.5263L100.3 84.2751L100.312 86.5366C100.325 86.7103 100.396 86.8234 100.599 86.8848C100.809 86.9448 101.025 86.9894 101.244 87.0181C101.436 87.0383 101.446 87.069 101.459 87.2225V87.2734C101.435 87.6216 101.411 87.6313 101.004 87.6104C100.114 87.5694 99.221 87.5694 98.3302 87.6104C98.2105 87.6209 98.0917 87.6104 97.9808 87.6209C97.9091 87.6209 97.8611 87.6104 97.8497 87.549C97.8262 87.4157 97.8017 87.2831 97.8375 87.1394C97.8497 87.078 97.8856 87.0473 97.9685 87.0368L98.5189 86.9619C98.7111 86.9207 98.8177 86.8121 98.8422 86.6624L98.8658 86.3756L98.8535 84.2369C98.8535 83.9913 98.8413 83.7457 98.7819 83.5001C98.6386 82.9759 98.173 82.6015 97.5413 82.5491C96.991 82.4982 96.493 82.621 96.037 82.8763C95.8098 82.9991 95.7137 83.1728 95.7137 83.3878V84.9333C95.7137 84.9034 95.7137 84.9034 95.726 84.9034L95.7102 84.8832Z" fill="#ABAFBA"/>
<path d="M130.679 81.9796C130.548 81.2322 130.224 80.5673 129.663 79.984C129.175 79.4686 128.542 79.0674 127.824 78.8173C127.073 78.5515 126.272 78.4691 125.46 78.4489C125.126 78.4384 120.566 78.4998 120.231 78.4489C120.147 78.4384 120.088 78.4594 120.039 78.5208C119.979 78.5956 119.919 78.6743 119.883 78.7559C119.74 79.033 119.74 79.012 120.086 79.0524C120.372 79.0936 120.647 79.1138 120.922 79.1857C121.173 79.2576 121.352 79.3804 121.411 79.6155C121.435 79.7279 121.459 83.3297 121.459 85.0086L121.411 86.2067C121.399 86.2988 121.388 86.3909 121.352 86.4725C121.304 86.5953 121.221 86.6972 121.077 86.7496C120.92 86.8132 120.75 86.8512 120.576 86.8619C120.253 86.8919 120.206 86.9031 120.098 87.2101L120.063 87.3224C120.04 87.4557 120.051 87.4759 120.206 87.4759L123.776 87.5059L125.174 87.4857L126.141 87.3831C127.239 87.2094 128.218 86.82 129.054 86.1962C129.531 85.835 129.92 85.3969 130.2 84.9067C130.534 84.3339 130.678 83.7086 130.714 83.0751C130.773 82.7172 130.748 82.3487 130.679 81.9803V81.9796ZM128.947 83.4323C128.899 84.0875 128.744 84.7218 128.35 85.2946C127.849 86.0419 127.133 86.5639 126.142 86.7473C125.712 86.8222 125.282 86.8597 124.831 86.8087C124.508 86.7788 124.199 86.7473 123.9 86.6552C123.363 86.4905 123.172 86.2059 123.16 85.7566L123.148 79.5863C123.148 79.2179 123.34 79.137 123.649 79.1258C124.115 79.0959 124.593 79.1056 125.059 79.146C125.554 79.1871 126.041 79.288 126.504 79.4456C126.847 79.5684 127.166 79.7378 127.447 79.9473C128.092 80.419 128.522 81.0106 128.758 81.707C128.95 82.2701 128.985 82.843 128.95 83.4158L128.947 83.4323ZM140.601 84.4357C140.601 84.3743 140.601 84.3234 140.589 84.262C140.482 83.6989 140.135 83.2691 139.598 82.9418C139.252 82.7269 138.858 82.5839 138.452 82.4813C138.381 82.4611 138.321 82.4401 138.249 82.4304C138.262 82.3794 138.298 82.369 138.333 82.3585C138.572 82.2559 138.799 82.1436 139.002 81.9901C139.372 81.7242 139.613 81.3962 139.742 80.9971C139.813 80.7822 139.813 80.5673 139.79 80.3419C139.77 80.0782 139.682 79.8217 139.531 79.5913C139.38 79.361 139.17 79.1627 138.918 79.0112C138.367 78.663 137.724 78.52 137.055 78.5095C135.766 78.4893 134.465 78.5095 133.176 78.5095C132.806 78.5095 132.436 78.5297 132.054 78.4796C131.982 78.4691 131.879 78.4496 131.827 78.5208C131.739 78.654 131.634 78.7866 131.599 78.9401C131.587 79.012 131.612 79.0524 131.707 79.0629L132.531 79.1655C132.854 79.2067 133.081 79.3602 133.104 79.6058C133.127 79.7755 133.139 79.9463 133.139 80.1173L133.115 82.0305L133.103 85.8166C133.103 86.0412 133.068 86.2569 133.019 86.4815C133.007 86.5528 132.972 86.6197 132.917 86.6742C132.862 86.7286 132.79 86.7683 132.709 86.7885C132.47 86.8499 132.243 86.9113 131.993 86.9113C131.926 86.9059 131.858 86.9201 131.802 86.9517C131.746 86.9832 131.703 87.0303 131.682 87.0851C131.634 87.1772 131.595 87.2798 131.575 87.3719C131.551 87.4947 131.587 87.5366 131.73 87.5216C131.838 87.5111 135.778 87.5935 136.518 87.5321C136.96 87.4909 137.392 87.44 137.831 87.3277C138.582 87.1233 139.276 86.826 139.825 86.3243C140.279 85.9146 140.541 85.4234 140.565 84.8506C140.6 84.7173 140.6 84.5847 140.6 84.441L140.601 84.4357ZM134.811 80.2423L134.846 79.4238C134.846 79.2703 134.917 79.1992 135.097 79.1677C135.383 79.1168 135.67 79.1378 135.956 79.1475C136.243 79.1677 136.517 79.1984 136.804 79.2703C137.328 79.4036 137.735 79.6597 137.974 80.0888C138.083 80.2839 138.14 80.4971 138.141 80.7133C138.153 81.0001 138.129 81.2764 137.998 81.552C137.795 81.9309 137.474 82.1765 137.007 82.2484C136.541 82.3203 135.216 82.2896 135.014 82.2896C134.834 82.2896 134.821 82.2694 134.821 82.1159V81.1521C134.793 80.8524 134.789 80.5515 134.809 80.2513L134.811 80.2423ZM138.69 85.7477C138.487 86.2082 138.117 86.5264 137.592 86.6987C137.305 86.7908 137.019 86.8484 136.718 86.832C136.348 86.8215 135.978 86.832 135.608 86.7706C135.107 86.6784 134.88 86.2688 134.844 85.9723C134.785 85.4504 134.82 84.918 134.809 84.5293V83.1784C134.809 83.0137 134.833 82.9635 135.036 82.9635L136.159 82.974L136.923 83.0489C137.461 83.1515 137.95 83.326 138.332 83.6832C138.643 83.97 138.81 84.3174 138.846 84.6963C138.881 85.0542 138.858 85.4025 138.703 85.7402L138.69 85.7477Z" fill="#E3E4E8"/>
<path d="M108.357 82.6725L108.667 82.7136C109.002 82.7241 109.396 82.6215 109.514 82.2224C109.58 82.0318 109.58 81.829 109.514 81.6383C109.443 81.6383 109.407 81.6893 109.371 81.7102C109.192 81.833 108.989 81.9049 108.774 81.9251C108.345 81.9663 107.915 81.9454 107.497 81.8128L106.912 81.6391C106.504 81.5245 106.074 81.4762 105.645 81.4968C105.036 81.538 104.463 81.7117 103.926 81.9573C103.353 82.2232 102.947 82.6223 102.755 83.1652C102.648 83.4827 102.635 83.8092 102.684 84.1372C102.803 84.8845 103.257 85.4064 104.068 85.6827C104.116 85.6932 104.152 85.7127 104.199 85.7239C104.307 85.7748 104.319 85.8265 104.223 85.8976L103.924 86.0714L103.208 86.4503C103.029 86.5424 103.005 86.615 103.064 86.7775C103.135 86.9687 103.268 87.1389 103.446 87.2687C103.61 87.3892 103.796 87.4861 103.996 87.5555C104.127 87.6065 104.127 87.6304 104.008 87.7203L103.327 88.1396C103.099 88.2894 102.872 88.4392 102.682 88.6309C102.549 88.7523 102.454 88.9 102.404 89.0606C102.354 89.2213 102.351 89.39 102.395 89.5519C102.484 89.9071 102.701 90.2294 103.016 90.473C103.326 90.7194 103.704 90.8952 104.114 90.9844C104.782 91.1492 105.475 91.1581 106.155 91.0458C107.134 90.8923 107.99 90.5216 108.663 89.8896C109.128 89.4703 109.403 88.9791 109.427 88.392C109.453 88.0524 109.338 87.716 109.102 87.4425C108.866 87.1689 108.524 86.976 108.138 86.8981L107.493 86.7955L105.523 86.6457C105.308 86.6352 105.093 86.6045 104.914 86.5124C104.687 86.3896 104.627 86.1545 104.771 86.001C104.878 85.8887 105.009 85.8168 105.177 85.8063L105.559 85.7763C106.314 85.7105 107.022 85.4337 107.576 84.9886C107.871 84.7541 108.083 84.4523 108.185 84.1184C108.328 83.6781 108.328 83.2199 108.208 82.7706C108.173 82.6582 108.185 82.6477 108.352 82.668L108.357 82.6725ZM105.43 87.7697C105.502 87.7802 105.573 87.7697 105.645 87.7697C106.147 87.7899 106.66 87.8206 107.15 87.9344C107.309 87.9749 107.465 88.0262 107.615 88.088C108.093 88.3126 108.272 88.702 108.212 89.1213C108.14 89.5819 107.841 89.9091 107.376 90.1248C107.066 90.2745 106.719 90.3397 106.361 90.3704C106.23 90.3809 106.11 90.3704 105.979 90.3704C105.561 90.3809 105.155 90.3404 104.761 90.1966C104.487 90.1045 104.26 89.972 104.057 89.787C103.639 89.4291 103.445 88.7739 104.069 88.2415C104.451 87.9419 104.882 87.73 105.43 87.7697V87.7697ZM106.791 84.5767C106.541 85.1189 105.991 85.2829 105.442 85.211C104.941 85.1496 104.571 84.9144 104.333 84.5251C104.023 84.0031 103.94 83.4617 104.118 82.8979C104.249 82.4785 104.548 82.161 105.073 82.0891C105.741 81.9865 106.383 82.1917 106.721 82.7646C106.895 83.0416 106.971 83.3786 106.971 83.8593C106.959 84.054 106.912 84.3199 106.792 84.576L106.791 84.5767ZM91.7492 83.8803C91.6418 83.3277 91.4033 82.826 90.9612 82.4066C90.3042 81.7821 89.469 81.508 88.5255 81.5058C87.7017 81.4953 86.9268 81.7005 86.2331 82.0689C85.5512 82.4187 85.0514 82.979 84.8362 83.6347C84.6335 84.2285 84.644 84.8328 84.8013 85.4356C85.2188 87.0531 86.6761 87.748 88.4181 87.6462C88.9318 87.6162 89.421 87.4724 89.8858 87.2777C90.5785 87.0007 91.08 86.5611 91.426 85.9778C91.7003 85.497 91.8191 84.9848 91.8077 84.4015L91.7483 83.8796L91.7492 83.8803ZM90.0544 86.1522C89.969 86.3825 89.8072 86.5864 89.5887 86.7391C89.3703 86.8918 89.1046 86.9866 88.8243 87.0119C88.3001 87.0733 87.8091 86.961 87.368 86.6944C87.0495 86.4936 86.7916 86.2304 86.6158 85.9268C86.1265 85.0672 86.0427 84.1671 86.2925 83.2461C86.373 82.961 86.547 82.7017 86.794 82.4987C87.2361 82.1505 87.7489 82.0689 88.3228 82.1715C88.8732 82.2741 89.2899 82.5294 89.6333 82.9188C89.9766 83.3082 90.1347 83.7575 90.23 84.2293C90.278 84.4644 90.278 84.71 90.2894 84.8635C90.2894 85.3547 90.2413 85.7621 90.0622 86.153L90.0544 86.1522ZM117.836 83.9627C117.748 83.3689 117.49 82.8267 117 82.3767C116.355 81.7731 115.519 81.517 114.588 81.5065C113.788 81.4961 113.048 81.6908 112.368 82.0285C111.603 82.4179 111.078 82.9697 110.876 83.7171C110.633 84.5324 110.735 85.3948 111.162 86.1522C111.555 86.8689 112.224 87.3294 113.109 87.5338C114.087 87.7585 115.019 87.6566 115.926 87.2777C116.714 86.9505 117.275 86.439 117.597 85.7426C117.789 85.333 117.859 84.8935 117.872 84.3813C117.884 84.2892 117.859 84.1252 117.837 83.9619L117.836 83.9627ZM116.188 86.0197C115.996 86.5723 115.591 86.9303 114.911 87.0126C114.409 87.074 113.932 86.9715 113.502 86.7258C113.131 86.5109 112.869 86.2241 112.678 85.8872C112.463 85.5292 112.343 85.1503 112.296 84.7617C112.224 84.2809 112.224 83.8107 112.355 83.3292C112.38 83.2342 112.416 83.1417 112.463 83.0529C112.798 82.3362 113.537 82.009 114.409 82.173C114.995 82.2853 115.436 82.5624 115.77 82.9817C116.094 83.3913 116.248 83.8414 116.321 84.3296C116.356 84.5243 116.369 84.7287 116.356 84.9025C116.356 85.3016 116.321 85.67 116.181 86.0279L116.188 86.0197Z" fill="#ABAFBA"/>
<path d="M322.866 72.7859C323.356 78.5024 314.358 83.9432 302.77 84.9378C291.182 85.9324 281.388 82.1028 280.898 76.3862C280.408 70.6666 289.403 65.2258 300.994 64.2343C312.585 63.2397 322.376 67.0693 322.866 72.7859V72.7859Z" fill="#B9E5FB"/>
<path opacity="0.35" d="M301.33 64.9035C296.909 64.8322 291.737 66.5859 287.886 68.2311C287.486 69.3869 287.27 70.6138 287.27 71.8873C287.27 78.6697 293.392 84.1662 300.946 84.1662C308.5 84.1662 314.625 78.6666 314.625 71.8873C314.625 69.7401 314.012 67.723 312.934 65.9693C309.854 65.4922 305.618 64.9747 301.33 64.9066V64.9035Z" fill="#EFF1F4" fill-opacity="0.7"/>
<path d="M300.948 64.8966C298.501 64.7479 294.284 66.0244 290.764 67.2979C290.231 68.5589 289.934 69.9408 289.934 71.3878C289.934 77.3305 295.322 82.1485 301.02 82.1485C306.718 82.1485 311.691 77.3243 312.106 71.3878C312.242 69.4544 311.576 67.6356 310.653 66.0647C307.006 65.4233 303.136 65.0298 300.948 64.8966V64.8966Z" fill="#EFF1F4" fill-opacity="0.7"/>
<path d="M294.668 70.6061C294.969 69.94 295.424 69.6146 295.864 69.0569C295.815 68.9237 295.709 68.493 295.709 68.3443C295.709 67.675 296.252 67.1328 296.921 67.1328C297.079 67.1328 297.228 67.1638 297.367 67.2196C299.369 65.6921 302.008 65.029 304.658 65.6208C304.899 65.6766 305.138 65.7416 305.37 65.8129C302.752 65.4504 299.799 66.3768 297.792 67.9973C297.853 68.1429 298.024 68.555 298.024 68.7223C298.024 69.3915 297.59 69.5527 296.924 69.5527C296.772 69.5527 296.627 69.5217 296.493 69.4721C296.041 70.0825 295.483 71.2413 295.211 71.9663C296.32 72.9609 297.324 73.3203 298.631 73.8068C298.628 73.7448 298.678 73.6859 298.678 73.624C298.678 71.61 300.45 69.9709 302.467 69.9709C304.273 69.9709 305.767 71.2847 306.061 73.0074C306.963 72.4342 307.833 71.9942 308.497 71.1452C308.342 70.9562 308.174 70.4202 308.174 70.1568C308.174 69.5496 308.667 69.06 309.271 69.06C309.358 69.06 309.438 69.0724 309.519 69.091C309.857 68.397 310.111 67.6626 310.272 66.9066C307.121 64.5735 301.023 64.8927 301.023 64.8927C301.023 64.8927 296.171 64.6386 292.887 66.2405C293.107 67.8237 293.739 69.3296 294.668 70.603V70.6061Z" fill="#221E1F"/>
<path d="M309.725 69.6994C309.949 69.9008 310.069 70.0774 310.165 70.2478C310.46 70.7776 309.868 71.2641 309.264 71.2641C309.202 71.2641 309.143 71.2548 309.084 71.2455C308.399 72.3145 307.203 73.6808 306.141 74.3718C307.77 74.6383 309.307 75.292 310.531 76.3021C311.42 74.7064 312.105 72.4012 312.105 70.443C312.105 68.9527 311.448 67.8621 310.454 67.0596C310.401 67.859 309.976 68.9744 309.725 69.7025V69.6994Z" fill="#221E1F"/>
<path d="M296.493 79.8074C297.036 78.3078 298.374 77.1459 299.635 76.1234C299.449 75.8694 299.174 75.2435 299.056 74.9461C297.516 74.4782 296.15 73.5983 295.093 72.4395C295.084 72.4735 295.074 72.5045 295.068 72.5386C294.87 73.4309 294.833 74.3264 294.932 75.197C295.669 75.3334 296.23 75.9809 296.23 76.7586C296.23 77.2203 295.827 77.8895 295.511 78.1808C295.852 78.9182 296.084 79.2714 296.493 79.8074Z" fill="#221E1F"/>
<path d="M296.398 81.0692C295.75 80.4248 295.301 79.1389 294.883 78.3333C294.802 78.3457 294.721 78.355 294.641 78.355C293.761 78.355 292.841 77.6176 293.051 76.7656C293.166 76.2946 293.491 75.9848 294.024 75.7276C293.903 74.7485 293.869 73.3449 294.099 72.3255C294.164 72.0343 294.3 71.898 294.393 71.6222C293.423 70.2031 292.797 68.341 292.797 66.4944C292.797 66.4262 292.797 66.3611 292.804 66.293C291.164 67.114 289.938 68.4092 289.938 70.4479C289.938 74.9561 292.534 79.3775 296.398 81.1095C296.398 81.0971 296.404 81.0847 296.407 81.0723L296.398 81.0692Z" fill="#221E1F"/>
<path d="M305.895 74.833C305.396 76.2521 304.045 77.2714 302.455 77.2714C301.603 77.2714 300.823 76.9771 300.203 76.4907C298.923 77.4852 297.764 79.2358 297.176 80.754C297.439 81.0391 297.625 81.2746 297.922 81.5255C298.818 81.7579 300.048 81.5255 301.018 81.5255C304.913 81.5255 308.361 79.7935 310.341 76.754C309.027 75.8431 307.475 74.9755 305.898 74.833H305.895Z" fill="#221E1F"/>
<path d="M294.57 71.1352C294.87 70.4691 295.245 69.8556 295.688 69.2979C295.639 69.1647 295.611 69.0252 295.611 68.8734C295.611 68.2042 296.153 67.6619 296.822 67.6619C296.98 67.6619 297.129 67.6929 297.269 67.7487C299.27 66.2212 301.91 65.555 304.559 66.1499C304.801 66.2057 305.039 66.2708 305.272 66.342C302.654 65.9795 299.946 66.782 297.938 68.4025C298 68.5481 298.034 68.7061 298.034 68.8734C298.034 69.5427 297.492 70.0849 296.822 70.0849C296.671 70.0849 296.525 70.057 296.392 70.0043C295.939 70.6147 295.568 71.2871 295.295 72.0121C296.249 73.0408 297.42 73.8525 298.725 74.3421C298.725 74.2801 298.716 74.2181 298.716 74.1531C298.716 72.1391 300.348 70.5032 302.365 70.5032C304.172 70.5032 305.665 71.8169 305.96 73.5396C306.861 72.9664 307.661 72.229 308.324 71.38C308.169 71.191 308.073 70.9524 308.073 70.6891C308.073 70.0818 308.565 69.5922 309.17 69.5922C309.256 69.5922 309.337 69.6046 309.417 69.6232C309.755 68.9292 310.009 68.1949 310.17 67.4389C307.019 65.1058 300.922 65.4249 300.922 65.4249C300.922 65.4249 296.069 65.1708 292.785 66.7727C293.005 68.356 293.637 69.8618 294.567 71.1352H294.57Z" fill="#0082AF"/>
<path d="M309.899 69.877C310.122 70.0784 310.265 70.3665 310.265 70.6887C310.265 71.296 309.772 71.7856 309.168 71.7856C309.106 71.7856 309.047 71.7763 308.988 71.767C308.307 72.8359 307.399 73.7438 306.336 74.4347C307.907 74.6795 309.388 75.3487 310.609 76.3557C311.498 74.76 312.009 72.9227 312.009 70.9645C312.009 69.4742 311.352 68.3835 310.358 67.5811C310.305 68.3804 310.15 69.1488 309.899 69.877V69.877Z" fill="#0082AF"/>
<path d="M296.663 80.1665C297.205 78.6669 298.15 77.3191 299.414 76.2997C299.229 76.0456 299.077 75.7699 298.962 75.4724C297.422 75.0046 296.056 74.1277 294.999 72.9658C294.99 72.9999 294.981 73.0309 294.974 73.065C294.776 73.9573 294.739 74.8527 294.838 75.7234C295.576 75.8628 296.136 76.5073 296.136 77.285C296.136 77.7466 295.938 78.1618 295.625 78.4531C295.91 79.0573 296.26 79.6305 296.669 80.1665H296.663Z" fill="#0082AF"/>
<path d="M296.396 81.0457C295.749 80.4013 295.203 79.6607 294.785 78.8552C294.704 78.8676 294.624 78.8738 294.543 78.8738C293.663 78.8738 292.954 78.1611 292.954 77.2843C292.954 76.6553 293.322 76.11 293.852 75.8528C293.731 74.8737 293.772 73.8605 294.001 72.8443C294.066 72.553 294.144 72.268 294.236 71.9922C293.267 70.5731 292.7 68.8597 292.7 67.01C292.7 66.9418 292.7 66.8768 292.706 66.8086C291.067 67.6297 289.84 68.9248 289.84 70.9635C289.84 75.4717 292.532 79.3478 296.393 81.0798C296.393 81.0674 296.399 81.055 296.402 81.0426L296.396 81.0457Z" fill="#0082AF"/>
<path d="M305.801 75.3594C305.302 76.7784 303.951 77.7978 302.362 77.7978C301.51 77.7978 300.729 77.5035 300.109 77.017C298.83 78.0116 297.866 79.3718 297.277 80.8869C297.541 81.172 297.826 81.4415 298.12 81.6925C299.016 81.9249 299.954 82.0488 300.921 82.0488C304.816 82.0488 308.24 80.038 310.216 77.0015C308.903 76.0906 307.375 75.5019 305.798 75.3594H305.801Z" fill="#0082AF"/>
<g style="mix-blend-mode:soft-light">
<path d="M305.929 74.4244L309.3 73.622L305.916 73.4484L308.671 71.3446L305.545 72.4632L307.67 69.5228L304.736 71.4717L305.761 68.0263L303.747 70.8644L303.701 67.2764L302.378 70.474L301.272 67.2393L301.331 71.0503L299.422 67.6328L300.454 71.261L297.359 69.0084L299.785 72.0573L295.939 70.6413L298.973 72.8876L295.081 73.0085L299.06 74.034L295.078 74.8954L299.01 75.1805L295.695 77.3029L299.109 76.0666L296.739 79.0658L299.732 76.6522L298.654 80.677L300.965 77.402L300.643 81.2688L301.954 77.7614L303.069 81.4485L303.342 77.7521L304.999 80.9063L304.02 77.2967L307.053 79.6483L305.095 76.6522L308.423 77.9473L305.879 75.4469L309.291 75.7165L305.929 74.4244Z" fill="#EFF1F4" fill-opacity="0.7"/>
</g>
<path opacity="0.35" d="M270.043 80.8701C280.497 70.4161 288.847 67.1876 296.426 65.7159C297.43 65.5207 297.619 63.3301 297.619 63.3301C297.619 63.3301 297.758 64.9444 298.462 65.155C299.162 65.3657 300.076 62.6298 300.076 62.6298C300.076 62.6298 299.233 65.0869 300.076 65.2263C300.919 65.3657 302.462 62.8405 302.462 62.8405C302.462 62.8405 301.83 65.0156 302.251 65.155C302.672 65.2945 304.776 61.9978 304.776 61.9978C304.776 61.9978 303.512 64.1729 304.705 64.3835C305.898 64.5942 307.639 62.8994 307.639 62.8994C307.639 62.8994 306.27 64.4486 306.88 64.6655C309.476 65.5764 311.577 62.2023 311.577 62.2023C311.577 62.2023 311.091 63.6833 309.827 65.2945C312.562 65.9947 314.595 61.8738 314.595 61.8738L312.562 65.9947C313.616 66.5555 317.824 61.7158 317.824 61.7158C317.824 61.7158 315.649 65.5052 314.384 66.2767C315.085 66.8375 317.613 64.5942 317.613 64.5942C317.613 64.5942 315.577 67.1194 316.349 67.2589C317.47 68.1698 321.61 62.5586 321.61 62.5586C321.61 62.5586 319.996 65.8553 317.61 68.4517C319.605 69.4494 324.556 63.0481 324.556 63.0481C324.556 63.0481 324.417 65.0838 320.838 68.3092C323.506 67.9591 326.942 62.9056 326.942 62.9056C326.942 62.9056 325.678 66.6949 322.663 69.3596C325.281 69.0869 329.467 62.6237 329.467 62.6237C329.467 62.6237 327.853 67.1132 324.556 69.7097C328.206 70.5153 333.467 65.0776 333.467 65.0776C333.467 65.0776 331.398 68.9382 328.696 70.5153C331.714 71.6741 335.853 66.9025 335.853 66.9025C335.853 66.9025 331.714 73.2883 325.12 73.0064C322.958 72.9134 316.411 66.4409 302.387 66.9738C283.865 67.6802 279.936 75.5378 270.043 80.8701Z" fill="black"/>
<path d="M270.473 80.0801C280.927 69.6261 289.274 66.3976 296.853 64.9258C297.856 64.7306 298.045 62.54 298.045 62.54C298.045 62.54 298.185 64.1543 298.888 64.365C299.588 64.5757 300.502 61.8398 300.502 61.8398C300.502 61.8398 299.66 64.2968 300.502 64.4363C301.345 64.5757 302.888 62.0505 302.888 62.0505C302.888 62.0505 302.256 64.2256 302.678 64.365C303.099 64.5044 305.203 61.2077 305.203 61.2077C305.203 61.2077 303.939 63.3828 305.132 63.5935C306.324 63.8042 308.066 62.1094 308.066 62.1094C308.066 62.1094 306.696 63.6586 307.307 63.8755C309.903 64.7864 312.004 61.4122 312.004 61.4122C312.004 61.4122 311.517 62.8933 310.256 64.5044C312.992 65.2047 315.025 61.0838 315.025 61.0838L312.992 65.2047C314.046 65.7655 318.253 60.9258 318.253 60.9258C318.253 60.9258 316.078 64.7151 314.817 65.4866C315.517 66.0474 318.046 63.8042 318.046 63.8042C318.046 63.8042 316.01 66.3294 316.782 66.4688C317.903 67.3797 322.043 61.7685 322.043 61.7685C322.043 61.7685 320.428 65.0652 318.043 67.6617C320.038 68.6594 324.989 62.2581 324.989 62.2581C324.989 62.2581 324.85 64.2937 321.271 67.5192C323.939 67.1691 327.375 62.1156 327.375 62.1156C327.375 62.1156 326.111 65.9049 323.096 68.5695C325.714 68.2969 329.9 61.8336 329.9 61.8336C329.9 61.8336 328.286 66.3232 324.989 68.9196C328.639 69.7252 333.9 64.2906 333.9 64.2906C333.9 64.2906 331.831 68.1481 329.129 69.7283C332.147 70.8871 336.286 66.1156 336.286 66.1156C336.286 66.1156 332.147 72.5014 325.55 72.2194C323.387 72.1265 316.84 65.6539 302.817 66.1869C284.292 66.8902 280.363 74.7477 270.473 80.0801Z" fill="#EFF1F4" fill-opacity="0.7"/>
<path opacity="0.35" d="M269.77 82.0182C275.294 84.7913 280.348 81.5968 286.715 83.3908C291.554 84.7541 297.448 86.4365 305.448 85.2808C313.445 84.1251 320.286 80.6518 323.549 74.4426C324.565 71.6727 328.704 75.0747 328.704 75.0747C328.704 75.0747 325.687 73.8106 325.758 74.4085C325.829 75.0065 330.285 77.0763 330.285 77.0763C330.285 77.0763 326.25 75.8121 326.495 76.7602C326.74 77.7083 331.546 81.4977 331.546 81.4977C331.546 81.4977 326.108 77.3582 325.653 77.919C325.197 78.4798 327.967 80.7603 327.967 80.7603C327.967 80.7603 323.372 77.919 321.758 78.7556C320.596 79.3567 326.529 83.2514 326.529 83.2514C326.529 83.2514 322.669 80.3048 321.758 81.0763C320.847 81.8478 326.108 88.1623 326.108 88.1623C326.108 88.1623 320.144 81.7084 319.549 82.0244C318.951 82.3404 321.197 85.4264 321.197 85.4264C321.197 85.4264 318.25 82.1979 317.445 82.7587C316.639 83.3195 321.656 91.7038 321.656 91.7038C321.656 91.7038 316.218 83.1088 313.975 84.5465C317.501 92.2832 316.184 93.3862 316.184 93.3862C316.184 93.3862 315.734 85.4946 311.344 85.7022C309.135 85.8076 312.397 91.5954 312.397 91.5954C312.397 91.5954 309.395 86.3095 307.397 86.4148C311.081 93.3893 309.767 96.2275 309.767 96.2275C309.767 96.2275 310.377 90.2692 305.376 86.954C307.27 88.6364 304.187 96.2275 304.187 96.2275C304.187 96.2275 306.898 85.0453 302.185 87.177C301.442 87.5148 302.132 92.7542 302.132 92.7542C302.132 92.7542 301.184 86.7557 299.765 87.0717C298.938 87.2545 294.504 95.3847 294.504 95.3847C294.504 95.3847 298.136 86.5976 297.029 86.9664C296.224 87.2359 294.715 90.861 294.715 90.861C294.715 90.861 295.452 87.2824 294.715 87.0717C293.977 86.861 289.875 90.861 289.875 90.861C289.875 90.861 292.927 87.2824 292.4 86.545C291.604 85.4295 290.668 85.3769 289.559 85.8076C287.945 86.4365 285.77 89.3862 285.77 89.3862C285.77 89.3862 287.939 86.3993 287.558 85.2808C286.95 83.4838 280.716 88.7541 280.716 88.7541C280.716 88.7541 284.4 85.2808 283.557 84.5434C282.715 83.806 278.145 84.0353 276.716 84.0291C272.505 84.0167 271.049 83.0283 269.77 82.0151V82.0182Z" fill="black"/>
<path d="M269.559 81.3838C275.083 84.1569 280.137 80.9624 286.504 82.7564C291.344 84.1197 297.24 85.8021 305.237 84.6464C313.234 83.4876 320.075 80.0143 323.338 73.8082C324.354 71.0352 328.494 74.4403 328.494 74.4403C328.494 74.4403 325.476 73.1762 325.547 73.7742C325.618 74.3691 330.074 76.4388 330.074 76.4388C330.074 76.4388 326.04 75.1777 326.284 76.1227C326.529 77.0709 331.335 80.8571 331.335 80.8571C331.335 80.8571 325.897 76.7176 325.442 77.2784C324.986 77.8393 327.756 80.1197 327.756 80.1197C327.756 80.1197 323.161 77.2784 321.547 78.115C320.385 78.7161 326.318 82.6108 326.318 82.6108C326.318 82.6108 322.458 79.6642 321.547 80.4357C320.636 81.2072 325.897 87.5218 325.897 87.5218C325.897 87.5218 319.933 81.0678 319.338 81.3838C318.743 81.6999 320.986 84.7859 320.986 84.7859C320.986 84.7859 318.039 81.5573 317.231 82.1181C316.425 82.679 321.442 91.0632 321.442 91.0632C321.442 91.0632 316.004 82.4683 313.761 83.9059C317.287 91.6395 315.97 92.7457 315.97 92.7457C315.97 92.7457 315.52 84.854 311.13 85.0616C308.921 85.167 312.183 90.9548 312.183 90.9548C312.183 90.9548 309.181 85.6689 307.183 85.7743C310.87 92.7487 309.553 95.5869 309.553 95.5869C309.553 95.5869 310.163 89.6287 305.162 86.3134C307.056 87.9958 303.973 95.5869 303.973 95.5869C303.973 95.5869 306.684 84.4048 301.974 86.5365C301.231 86.8742 301.922 92.1136 301.922 92.1136C301.922 92.1136 300.973 86.1151 299.554 86.4311C298.727 86.6139 294.293 94.7441 294.293 94.7441C294.293 94.7441 297.925 85.9571 296.818 86.3258C296.013 86.5953 294.504 90.2205 294.504 90.2205C294.504 90.2205 295.241 86.6418 294.504 86.4311C293.766 86.2204 289.664 90.2205 289.664 90.2205C289.664 90.2205 292.716 86.6418 292.189 85.9044C291.393 84.789 290.457 84.7363 289.348 85.167C287.734 85.7959 285.559 88.7456 285.559 88.7456C285.559 88.7456 287.728 85.7588 287.347 84.6402C286.739 82.8432 280.505 88.1135 280.505 88.1135C280.505 88.1135 284.189 84.6402 283.347 83.9028C282.504 83.1654 277.934 83.3947 276.505 83.3885C272.294 83.3761 270.838 82.3877 269.559 81.3745V81.3838Z" fill="#EFF1F4" fill-opacity="0.7"/>
<path d="M276.575 97.9885C277.139 97.9885 277.675 98.1217 277.945 98.3912C277.988 98.8064 277.617 99.4757 277.381 99.4757C277.099 99.3703 276.83 99.3115 276.504 99.3115C275.15 99.3115 274.481 100.709 274.481 102.094C274.481 102.955 274.778 103.476 275.463 103.476C276.191 103.476 276.935 102.986 277.353 102.611C277.459 102.686 277.592 102.924 277.592 103.191C277.592 103.488 277.502 103.77 277.235 104.04C276.758 104.517 275.956 104.916 274.797 104.916C273.458 104.916 272.535 104.157 272.535 102.388C272.535 100.067 274.066 97.9854 276.566 97.9854H276.582L276.575 97.9885Z" fill="#EFF1F4" fill-opacity="0.7"/>
<path d="M278.554 102.732C278.554 101.855 278.851 100.322 279.967 99.2061C280.918 98.2239 282.08 97.9854 283.133 97.9854C283.834 97.9854 284.785 98.2084 285.38 98.3293C285.231 98.983 284.875 101.452 284.71 102.881C284.636 103.491 284.605 104.337 284.636 104.65C284.147 104.858 283.223 104.92 282.969 104.92C282.836 104.92 282.805 104.309 282.851 103.73C282.867 103.538 282.895 103.253 282.91 103.135C282.331 104.102 281.184 104.92 279.979 104.92C279.118 104.92 278.551 104.207 278.551 102.748V102.732H278.554ZM280.949 103.401C281.677 103.401 283 102.122 283.372 99.6833C283.387 99.5345 283.403 99.4912 283.431 99.3424C283.267 99.2836 283.043 99.2371 282.82 99.2371C282.269 99.2371 281.705 99.4013 281.2 100.086C280.679 100.814 280.456 101.722 280.456 102.45C280.456 103.076 280.636 103.401 280.933 103.401H280.949Z" fill="#EFF1F4" fill-opacity="0.7"/>
<path d="M289.085 97.9854C289.696 97.9854 290.275 98.2084 290.542 98.4904C290.526 98.9056 290.201 99.6058 289.677 99.4137C289.454 99.3394 289.231 99.2805 288.934 99.2805C288.534 99.2805 288.19 99.4602 288.19 99.832C288.19 100.114 288.398 100.322 289.395 101.022C290.108 101.542 290.393 102.004 290.393 102.658C290.393 103.742 289.367 104.92 287.583 104.92C286.855 104.92 286.213 104.638 286.006 104.34C285.739 103.894 285.947 103.017 286.244 103.166C286.631 103.358 287.27 103.569 287.79 103.569C288.28 103.569 288.593 103.346 288.593 103.048C288.593 102.794 288.37 102.571 287.462 101.933C286.703 101.369 286.464 100.848 286.464 100.253C286.464 99.0202 287.521 97.9915 289.067 97.9915H289.082L289.085 97.9854Z" fill="#EFF1F4" fill-opacity="0.7"/>
<path d="M294.214 97.9854C294.825 97.9854 295.404 98.2084 295.671 98.4904C295.655 98.9056 295.33 99.6058 294.809 99.4137C294.586 99.3394 294.363 99.2805 294.066 99.2805C293.663 99.2805 293.322 99.4602 293.322 99.832C293.322 100.114 293.53 100.322 294.527 101.022C295.24 101.542 295.522 102.004 295.522 102.658C295.522 103.742 294.496 104.92 292.712 104.92C291.983 104.92 291.342 104.638 291.134 104.34C290.868 103.894 291.076 103.017 291.373 103.166C291.76 103.358 292.399 103.569 292.919 103.569C293.409 103.569 293.722 103.346 293.722 103.048C293.722 102.794 293.499 102.571 292.591 101.933C291.832 101.369 291.593 100.848 291.593 100.253C291.593 99.0202 292.65 97.9915 294.196 97.9915H294.211L294.214 97.9854Z" fill="#EFF1F4" fill-opacity="0.7"/>
<path d="M296.503 102.732C296.503 101.855 296.801 100.322 297.916 99.2061C298.867 98.2239 300.029 97.9854 301.083 97.9854C301.783 97.9854 302.734 98.2084 303.329 98.3293C303.18 98.983 302.824 101.452 302.66 102.881C302.585 103.491 302.554 104.337 302.585 104.65C302.096 104.858 301.172 104.92 300.918 104.92C300.785 104.92 300.754 104.309 300.801 103.73C300.816 103.538 300.844 103.253 300.859 103.135C300.28 104.102 299.134 104.92 297.928 104.92C297.064 104.92 296.5 104.207 296.5 102.748V102.732H296.503ZM298.898 103.401C299.626 103.401 300.949 102.122 301.324 99.6833C301.34 99.5345 301.355 99.4912 301.383 99.3424C301.219 99.2836 300.996 99.2371 300.773 99.2371C300.221 99.2371 299.657 99.4013 299.152 100.086C298.632 100.814 298.409 101.722 298.409 102.45C298.409 103.076 298.588 103.401 298.886 103.401H298.901H298.898Z" fill="#EFF1F4" fill-opacity="0.7"/>
<path d="M306.693 99.9188C307.378 98.8188 308.27 97.9854 309.519 97.9854C310.575 97.9854 310.916 98.9675 310.724 100.365C310.618 101.019 310.442 101.957 310.321 102.819C310.216 103.547 310.141 104.201 310.157 104.647C309.77 104.839 308.639 104.916 308.388 104.916C308.282 104.916 308.27 104.098 308.403 103.234C308.521 102.521 308.775 101.226 308.893 100.483C308.967 100.052 308.952 99.5315 308.536 99.5315C307.985 99.5315 306.677 100.408 306.024 104.009C305.98 104.306 305.859 104.486 305.695 104.588C305.472 104.721 304.995 104.842 304.031 104.854C304.211 103.947 304.493 102.088 304.701 100.721C304.893 99.4726 304.967 98.667 304.924 98.3572C305.178 98.2673 306.501 97.9854 306.649 97.9854C306.814 97.9854 306.842 98.447 306.693 99.5624C306.677 99.6678 306.662 99.8289 306.649 99.9188H306.693V99.9188Z" fill="#EFF1F4" fill-opacity="0.7"/>
<path d="M313.265 104.92C312.314 104.92 311.719 104.071 311.719 102.614C311.719 100.204 313.221 97.9885 315.75 97.9885C316.196 97.9885 316.599 98.1063 316.85 98.2581C316.983 97.5734 317.296 95.4603 317.311 94.8375C317.727 94.7631 318.619 94.6299 319.022 94.6299C319.186 94.6299 319.229 94.7941 319.17 95.1659C318.814 97.3968 318.176 101.682 318.055 102.633C317.965 103.436 317.95 104.226 317.965 104.672C317.488 104.879 316.521 104.926 316.27 104.926C316.165 104.926 316.106 104.241 316.137 103.631C316.153 103.439 316.18 103.154 316.18 103.11C315.437 104.331 314.411 104.926 313.28 104.926H313.265V104.92ZM314.247 103.386C314.901 103.386 316.224 102.165 316.596 100.009C316.611 99.891 316.655 99.6679 316.686 99.5315C316.493 99.3518 316.239 99.2341 315.837 99.2341C314.334 99.2341 313.665 101.034 313.665 102.326C313.665 103.027 313.903 103.383 314.228 103.383H314.244L314.247 103.386Z" fill="#EFF1F4" fill-opacity="0.7"/>
<path d="M321.982 100.133C322.769 98.3764 323.707 97.9922 324.318 97.9922C324.51 97.9922 324.807 98.1099 324.944 98.2617C325.003 98.7513 324.618 99.7335 324.274 100.105C324.095 100.015 323.875 99.9256 323.621 99.9256C323.116 99.9256 322.118 100.716 321.492 104.105C321.449 104.387 321.359 104.508 321.195 104.582C320.94 104.731 319.946 104.852 319.469 104.864C319.692 103.644 320.079 101.162 320.228 99.7025C320.271 99.3307 320.287 98.6459 320.259 98.3795C320.541 98.2463 321.656 97.9922 321.91 97.9922C322.044 97.9922 322.149 98.8102 321.941 100.133H321.985H321.982Z" fill="#EFF1F4" fill-opacity="0.7"/>
<path d="M324.835 102.732C324.835 101.855 325.133 100.322 326.248 99.2061C327.199 98.2239 328.361 97.9854 329.415 97.9854C330.115 97.9854 331.066 98.2084 331.661 98.3293C331.512 98.983 331.156 101.452 330.992 102.881C330.917 103.491 330.886 104.337 330.917 104.65C330.428 104.858 329.504 104.92 329.25 104.92C329.117 104.92 329.086 104.309 329.133 103.73C329.148 103.538 329.176 103.253 329.191 103.135C328.612 104.102 327.466 104.92 326.26 104.92C325.396 104.92 324.832 104.207 324.832 102.748V102.732H324.835ZM327.23 103.401C327.958 103.401 329.281 102.122 329.656 99.6833C329.672 99.5345 329.687 99.4912 329.715 99.3424C329.551 99.2836 329.328 99.2371 329.105 99.2371C328.553 99.2371 327.989 99.4013 327.484 100.086C326.964 100.814 326.741 101.722 326.741 102.45C326.741 103.076 326.92 103.401 327.218 103.401H327.233H327.23Z" fill="#EFF1F4" fill-opacity="0.7"/>
<g clip-path="url(#clip1_713_8117)">
<g clip-path="url(#clip2_713_8117)">
<path d="M512.58 80.5669H508.367L508.942 77.7451H521.327L520.752 80.5669H516.446L514.089 91.9907H510.224L512.576 80.5669H512.58Z" fill="#005FB3"/>
<path d="M521.575 82.0862H525.175L523.127 91.9897H519.527L521.575 82.0862ZM522.419 77.7832H526.093L525.558 80.4252H521.88L522.416 77.7832H522.419Z" fill="#005FB3"/>
<path d="M530.859 77.7451L529.749 83.1307C531.011 81.8488 532.715 81.8292 533.059 81.8292C534.896 81.8292 535.815 82.8376 536.198 83.9006C536.522 84.8269 536.389 85.9134 536.178 86.9803C535.775 88.9149 535.107 90.0014 534.13 90.8886C532.809 92.0923 531.566 92.2096 530.839 92.2096C530.206 92.2096 528.831 92.151 527.986 90.5329L527.564 91.9946H524.195C524.52 90.869 524.809 89.5871 524.828 89.5285L527.24 77.749H530.859V77.7451ZM530.054 89.978C531.852 89.978 532.332 87.6096 532.465 86.9608C532.676 85.9564 532.962 83.9827 531.355 83.9827C529.573 83.9827 528.999 86.2534 528.846 86.9803C528.713 87.633 528.35 89.978 530.054 89.978Z" fill="#005FB3"/>
<path d="M540.239 87.7912C540.141 88.3227 539.742 90.1987 541.579 90.1987C542.537 90.1987 543.244 89.6867 543.533 88.7604H546.883C546.097 91.2461 543.647 92.2153 541.157 92.2153C537.808 92.2153 536.354 90.4801 537.042 87.205C537.71 83.8908 539.742 81.7412 543.283 81.7412C545.964 81.7412 546.957 82.8668 547.32 84.2659C547.571 85.114 547.492 86.0598 547.129 87.799H540.239V87.7912ZM544.163 85.7784C544.241 85.2078 544.432 83.7071 542.861 83.7071C541.29 83.7071 540.833 85.3055 540.696 85.7784H544.163Z" fill="#005FB3"/>
<path d="M548.774 84.1973L549.118 82.0869H552.62L552.257 84.1387C553.519 81.9305 555.262 81.9892 556.087 82.0087L555.418 85.1861C555.016 85.147 554.922 85.1275 554.672 85.1275C552.471 85.1275 551.838 86.726 551.608 87.7929L550.744 91.9943H547.164L548.77 84.2012L548.774 84.1973Z" fill="#005FB3"/>
<path d="M562.652 81.751C565.774 81.751 567.877 83.369 567.15 86.8825C566.861 88.3208 566.154 89.7824 564.95 90.8103C563.973 91.6193 562.652 92.2329 560.682 92.2329C558.556 92.2329 557.294 91.7014 556.547 90.7712C555.668 89.6847 555.707 88.2074 555.953 87.0037C556.586 83.967 558.845 81.7549 562.652 81.7549V81.751ZM559.646 89.3682C559.916 90.1186 560.565 90.1576 560.889 90.1576C562.46 90.1576 563.129 88.4028 563.418 87.0193C563.762 85.3036 563.668 83.8614 562.23 83.8614C560.639 83.8614 559.99 85.5381 559.685 87.0193C559.553 87.672 559.4 88.6373 559.646 89.3682Z" fill="#005FB3"/>
<path d="M459.014 81.6338H455.414L456.247 77.7139H469.234L468.397 81.6338H464.798L462.527 92.3151H456.743L459.014 81.6338Z" fill="#005FB3"/>
<path d="M460.488 79.8323H453.723L455.149 73.5439H461.918L460.488 79.8323Z" fill="#E00012"/>
<path d="M471.569 83.8457H471.608C472.574 82.5013 473.965 81.9971 475.423 81.9971C476.607 81.9971 477.815 82.6224 477.975 83.8066C478.881 82.6381 480.367 81.9776 481.828 81.9424C483.927 81.9424 485.197 83.3064 484.736 85.4598L483.349 91.9944H479.655L480.875 86.2571C481.039 85.3035 481.027 84.2756 479.878 84.2756C478.049 84.2756 477.854 86.2766 477.83 86.3939L476.638 91.9944H472.945L474.168 86.2571C474.332 85.3035 474.317 84.2756 473.172 84.2756C471.342 84.2756 471.151 86.2766 471.128 86.3939L469.939 91.9944H466.242L467.786 84.7407C467.974 83.8652 468.075 83.2829 468.204 82.2355H471.858L471.573 83.8496L471.569 83.8457Z" fill="#005FB3"/>
<path d="M494.542 91.9974C494.656 90.8288 494.671 90.4028 494.757 89.9924L495.82 84.9742C496.328 82.7778 494.112 81.9414 492.131 81.9414C491.04 81.9414 489.755 82.0587 488.645 82.5237C487.558 82.9732 486.667 83.7705 486.394 85.1501H489.876C489.977 84.5678 490.454 83.6923 491.361 83.6532C492.85 83.5946 492.389 84.8413 492.209 85.6933H491.044C487.855 85.6933 485.471 86.6665 484.928 89.0388C484.463 91.0398 485.405 92.2827 487.718 92.2827C489.548 92.2827 490.575 91.3681 491.173 90.6685H491.212C491.06 91.3681 490.994 91.6808 491.009 91.9934H494.542V91.9974ZM488.543 88.8668C488.688 88.1868 489.188 87.8351 489.79 87.5654C490.349 87.3114 491.08 87.3504 491.853 87.3504C491.58 88.6519 491.126 90.1487 489.528 90.1487C488.828 90.1487 488.387 89.5664 488.539 88.8668H488.543Z" fill="#005FB3"/>
<path d="M499.018 91.9943H495.246L499.616 86.894L497.712 82.2314H501.968L502.578 85.2252L504.516 82.2314H508.253L504.262 86.894L506.486 91.9943H502.168L501.402 88.3752L499.018 91.9943Z" fill="#005FB3"/>
</g>
</g>
<defs>
<linearGradient id="paint0_linear_713_8117" x1="690.491" y1="32.01" x2="692.87" y2="30.6043" gradientUnits="userSpaceOnUse">
<stop stop-color="#919DAA"/>
<stop offset="1" stop-color="#EEEDEE"/>
</linearGradient>
<linearGradient id="paint1_linear_713_8117" x1="690.543" y1="5.51813" x2="692.457" y2="5.51813" gradientUnits="userSpaceOnUse">
<stop stop-color="#949FAB"/>
<stop offset="1" stop-color="#DCDEE1"/>
</linearGradient>
<radialGradient id="paint2_radial_713_8117" cx="0" cy="0" r="1" gradientUnits="userSpaceOnUse" gradientTransform="translate(689.042 31.9663) rotate(-169.695) scale(2.36761 4.90569)">
<stop stop-color="#E7382F"/>
<stop offset="1" stop-color="#AA1F22"/>
</radialGradient>
<clipPath id="clip0_713_8117">
<rect width="102.667" height="13.3333" fill="white" transform="translate(259.207 15.334)"/>
</clipPath>
<clipPath id="clip1_713_8117">
<rect x="415.176" y="60.9258" width="190.67" height="44" rx="8.53732" fill="white"/>
</clipPath>
<clipPath id="clip2_713_8117">
<rect width="113.574" height="18.7714" fill="white" transform="translate(453.723 73.54)"/>
</clipPath>
</defs>
</svg>
