<svg width="219" height="78" viewBox="0 0 219 78" fill="none" xmlns="http://www.w3.org/2000/svg">
<path d="M37.817 31.7411C31.4926 31.1108 29.3111 29.8804 25.5898 24.8301V30.8722C27.2763 34.6539 32.7575 38.1204 37.817 38.1204V31.7411Z" fill="#8893FF" fill-opacity="0.7"/>
<path d="M45.7939 21.7289C51.0184 21.981 52.1732 22.0367 55.8945 23.7676V21.3507C54.5013 19.8381 49.9735 18.4514 45.7939 18.4514V21.7289Z" fill="#863EBE"/>
<path d="M50.5795 14.5032V16.6866C50.5795 18.6108 46.2934 20.1801 41.0104 20.1801C35.7275 20.1801 31.4414 18.6108 31.4414 16.6866V14.5032C31.4414 12.5791 35.7275 11.0098 41.0104 11.0098C46.2934 11.0098 50.5795 12.5791 50.5795 14.5032ZM50.5795 19.4159V24.3286C50.5795 26.2527 46.2934 27.822 41.0104 27.822C35.7275 27.822 31.4414 26.2527 31.4414 24.3286V19.4159C33.4973 20.9989 37.2601 21.7358 41.0104 21.7358C44.7608 21.7358 48.5236 20.9989 50.5795 19.4159ZM50.5795 27.0578V31.9705C50.5795 33.8947 46.2934 35.464 41.0104 35.464C35.7275 35.464 31.4414 33.8947 31.4414 31.9705V27.0578C33.4973 28.6408 37.2601 29.3778 41.0104 29.3778C44.7608 29.3778 48.5236 28.6408 50.5795 27.0578Z" fill="url(#paint0_linear_557_7918)"/>
<ellipse cx="41.0104" cy="14.4653" rx="9.56904" ry="3.45549" fill="url(#paint1_linear_557_7918)"/>
<ellipse cx="41.0104" cy="14.198" rx="3.72129" ry="1.06323" fill="black"/>
<path d="M44.1992 21.3237C44.1992 20.1493 45.1513 19.1973 46.3257 19.1973H56.9579L59.0844 21.0579L61.7425 23.4502V41.525C61.7425 42.6994 60.7904 43.6515 59.616 43.6515H46.3257C45.1513 43.6515 44.1992 42.6994 44.1992 41.525V21.3237Z" fill="url(#paint2_linear_557_7918)" fill-opacity="0.7"/>
<path d="M56.9577 23.4512L56.9577 19.1983L61.7422 23.4512L56.9577 23.4512Z" fill="#D9D9D9"/>
<path d="M56.9648 31.4275L51.981 28.2378L51.981 29.9563L48.459 29.9563L48.459 32.8987L51.981 32.8987L51.981 34.6172L56.9648 31.4275Z" fill="white"/>
<rect x="31.4375" y="7.81836" width="2.12645" height="4.25291" fill="#6C79F9"/>
<rect x="47.3867" y="9.41406" width="2.12645" height="2.12645" fill="#6C79F9"/>
<rect x="44.1953" y="2.50195" width="1.06323" height="1.06323" fill="#6C79F9"/>
<rect x="34.0977" y="5.16211" width="2.12645" height="2.12645" fill="#944AF2"/>
<rect x="43.1328" y="4.09766" width="1.06323" height="4.78452" fill="#944AF2"/>
<rect x="48.4492" y="10.4766" width="2.12645" height="3.18968" fill="#915EFF" fill-opacity="0.6"/>
<path d="M5.76661 71.3848C9.04817 71.3848 10.9382 69.3459 10.9457 65.9825C10.9382 62.6265 9.04817 60.61 5.87079 60.61H2.26926V71.3848H5.76661ZM3.90632 69.9561V62.0387H5.76661C8.11802 62.0387 9.32349 63.445 9.32349 65.9825C9.32349 68.5274 8.11802 69.9486 5.67732 69.9561H3.90632ZM12.3649 69.1078C12.3574 70.6853 13.5555 71.5634 15.0883 71.5634C16.4278 71.5634 17.1719 70.8862 17.4844 70.2835H17.5439V71.3848H19.0917V66.0122C19.0843 63.6683 17.2091 63.1995 15.9218 63.1995C14.0094 63.1995 12.7593 64.1668 12.6179 65.5062H14.1954C14.3591 64.9109 14.9246 64.4794 15.8622 64.4794C16.9412 64.4794 17.5067 65.0077 17.4993 65.9229L17.5067 66.5703C17.1347 66.5852 15.9218 66.6522 15.386 66.6819C13.9275 66.7861 12.3574 67.2624 12.3649 69.1078ZM13.9126 69.1227C13.9126 68.3264 14.5675 67.9321 15.6092 67.8577C15.9887 67.8353 17.1421 67.7535 17.5067 67.7312L17.5142 68.4678C17.5142 69.4277 16.7403 70.2909 15.4455 70.2984C14.5526 70.2909 13.9126 69.8965 13.9126 69.1227ZM24.8714 63.3037H23.2195V61.369H21.642V63.3037H20.4514V64.5687H21.642V69.331C21.6271 70.8044 22.7507 71.4889 23.9934 71.4889C24.4324 71.4889 24.7747 71.4592 24.9905 71.4294V70.0454C24.7673 70.0677 24.4175 70.09 24.1868 70.09C23.6734 70.0826 23.2269 69.9189 23.2195 69.0036V64.5687H24.8714V63.3037ZM26.1269 69.1078C26.1195 70.6853 27.3175 71.5634 28.8504 71.5634C30.1898 71.5634 30.9339 70.8862 31.2465 70.2835H31.306V71.3848H32.8538V66.0122C32.8463 63.6683 30.9711 63.1995 29.6838 63.1995C27.7714 63.1995 26.5213 64.1668 26.3799 65.5062H27.9575C28.1212 64.9109 28.6867 64.4794 29.6243 64.4794C30.7033 64.4794 31.2688 65.0077 31.2614 65.9229L31.2688 66.5703C30.8967 66.5852 29.6838 66.6522 29.1481 66.6819C27.6896 66.7861 26.1195 67.2624 26.1269 69.1078ZM27.6747 69.1227C27.6747 68.3264 28.3295 67.9321 29.3713 67.8577C29.7508 67.8353 30.9042 67.7535 31.2688 67.7312L31.2762 68.4678C31.2762 69.4277 30.5024 70.2909 29.2076 70.2984C28.3146 70.2909 27.6747 69.8965 27.6747 69.1227ZM43.1929 65.5062H44.7258C44.5695 64.1147 43.4459 63.1995 41.6451 63.1995C39.7699 63.1995 38.5198 64.1892 38.5198 65.6253C38.5198 66.7415 39.2788 67.5228 40.7373 67.8428L42.0023 68.1107C42.858 68.3116 43.245 68.6464 43.2524 69.1673C43.245 69.8444 42.5827 70.276 41.5558 70.2686C40.5959 70.276 40.0453 69.9114 39.9039 69.1822H38.2817C38.4826 70.6853 39.6286 71.5485 41.5707 71.5485C43.6319 71.5485 44.8671 70.5067 44.8746 69.0482C44.8671 67.9023 44.1454 67.1954 42.6571 66.8605L41.3772 66.5629C40.4843 66.3545 40.1048 66.0122 40.1122 65.536C40.1048 64.9184 40.7522 64.4496 41.66 64.4496C42.5381 64.4496 43.0441 64.8663 43.1929 65.5062ZM49.9251 71.5485C52.2021 71.5485 53.6903 69.8816 53.6903 67.3814C53.6903 64.8663 52.2021 63.1995 49.9251 63.1995C47.6332 63.1995 46.1375 64.8663 46.145 67.3814C46.1375 69.8816 47.6332 71.5485 49.9251 71.5485ZM47.7374 67.3814C47.7374 65.8337 48.4443 64.5166 49.9251 64.5091C51.3836 64.5166 52.083 65.8337 52.083 67.3814C52.083 68.9217 51.3836 70.2239 49.9251 70.2239C48.4443 70.2239 47.7374 68.9217 47.7374 67.3814ZM60.4672 68.0214C60.4672 69.398 59.4477 70.0454 58.5622 70.0454C57.5949 70.0454 56.9252 69.3459 56.9252 68.2446V63.3037H55.3328V68.4381C55.3328 70.4397 56.4341 71.4889 57.9967 71.4889C59.2096 71.4889 60.0356 70.849 60.4077 69.9858H60.4969V71.3848H62.0447V63.3037H60.4672V68.0214ZM64.0592 71.3848H65.6516V66.4587C65.6516 65.4021 66.4702 64.6356 67.5714 64.6431C67.8989 64.6356 68.2709 64.7026 68.4049 64.7324V63.2144C68.2412 63.1995 67.9286 63.1772 67.7352 63.1846C66.7901 63.1772 65.979 63.7204 65.6814 64.5835H65.5921V63.3037H64.0592V71.3848ZM72.8303 71.5485C74.7352 71.5485 75.9779 70.3951 76.1491 68.825H74.6013C74.4004 69.6956 73.7307 70.2016 72.8303 70.1942C71.4983 70.2016 70.6426 69.1078 70.6426 67.3368C70.6426 65.6179 71.5207 64.5314 72.8303 64.524C73.8349 64.5314 74.4376 65.1639 74.6013 65.9229H76.1491C75.9779 64.2859 74.646 63.1995 72.8005 63.1995C70.5235 63.1995 69.0428 64.9184 69.0502 67.3814C69.0428 69.8147 70.4715 71.5485 72.8303 71.5485ZM81.2145 71.5485C82.9929 71.5485 84.2356 70.6704 84.5927 69.3608H82.9855C82.7176 69.8519 82.1297 70.2388 81.2293 70.2388C79.9048 70.2388 78.997 69.3682 78.9523 67.8279H84.6969V67.2624C84.6969 64.338 82.9482 63.1995 81.1103 63.1995C78.8556 63.1995 77.3674 64.9109 77.3748 67.3963C77.3674 69.904 78.8333 71.5485 81.2145 71.5485ZM78.9598 66.6373C79.0267 65.4988 79.8527 64.5017 81.1252 64.5091C82.3381 64.5017 83.1343 65.4095 83.1343 66.6373H78.9598Z" fill="#737A8C"/>
<path d="M123.646 38.8008L119.836 36.6011V41.0004L123.646 38.8008ZM95.4805 39.1818H96.2629V38.4198H95.4805V39.1818ZM97.8276 39.1818H99.3924V38.4198H97.8276V39.1818ZM100.957 39.1818H102.522V38.4198H100.957V39.1818ZM104.087 39.1818H105.651V38.4198H104.087V39.1818ZM107.216 39.1818H108.781V38.4198H107.216V39.1818ZM110.346 39.1818H111.911V38.4198H110.346V39.1818ZM113.475 39.1818H115.04V38.4198H113.475V39.1818ZM116.605 39.1818H118.17V38.4198H116.605V39.1818ZM119.734 39.1818H121.299V38.4198H119.734V39.1818Z" fill="#454954"/>
<path fill-rule="evenodd" clip-rule="evenodd" d="M171.221 29.3114C171.239 29.3147 171.258 29.3164 171.276 29.3164C171.289 29.3164 171.301 29.3157 171.314 29.3142L174.984 29.3142C175.146 29.3142 175.277 29.1832 175.277 29.0215C175.277 28.8599 175.146 28.7289 174.984 28.7289L171.584 28.7289L171.584 25.5269C171.584 25.3569 171.446 25.2192 171.276 25.2192C171.107 25.2192 170.969 25.3569 170.969 25.5269L170.969 29.0087C170.969 29.0109 170.969 29.013 170.969 29.0152C170.969 29.0173 170.969 29.0194 170.969 29.0215C170.969 29.1694 171.078 29.2917 171.221 29.3114Z" fill="#944AF2"/>
<path fill-rule="evenodd" clip-rule="evenodd" d="M171.261 5.32031C171.1 5.32031 170.969 5.45134 170.969 5.61297C170.969 5.62375 170.969 5.63439 170.97 5.64486L170.97 9.10999C170.97 9.27994 171.108 9.4177 171.278 9.4177C171.448 9.4177 171.586 9.27994 171.586 9.10999L171.586 5.90563H174.984C175.146 5.90563 175.277 5.77461 175.277 5.61297C175.277 5.45134 175.146 5.32031 174.984 5.32031H171.261Z" fill="#944AF2"/>
<path fill-rule="evenodd" clip-rule="evenodd" d="M194.717 5.3214C194.699 5.31812 194.68 5.31641 194.661 5.31641C194.648 5.31641 194.636 5.31716 194.624 5.31863L190.953 5.31862C190.792 5.31862 190.661 5.44965 190.661 5.61129C190.661 5.77292 190.792 5.90395 190.953 5.90395L194.353 5.90395L194.353 9.10594C194.353 9.27588 194.491 9.41365 194.661 9.41365C194.831 9.41365 194.969 9.27588 194.969 9.10594L194.969 5.62412C194.969 5.62195 194.969 5.61978 194.969 5.61762C194.969 5.61552 194.969 5.6134 194.969 5.61129C194.969 5.46337 194.859 5.34109 194.717 5.3214Z" fill="#944AF2"/>
<path fill-rule="evenodd" clip-rule="evenodd" d="M194.676 29.3164C194.838 29.3164 194.969 29.1854 194.969 29.0237C194.969 29.013 194.968 29.0023 194.967 28.9919L194.967 25.5269C194.967 25.3569 194.829 25.2192 194.659 25.2192C194.489 25.2192 194.352 25.3569 194.352 25.5269L194.352 28.7311L190.953 28.7311C190.792 28.7311 190.661 28.8621 190.661 29.0237C190.661 29.1854 190.792 29.3164 190.953 29.3164L194.659 29.3164L194.676 29.3164Z" fill="#944AF2"/>
<path d="M190.021 10.5593V12.1589C190.021 13.5685 186.881 14.7182 183.01 14.7182C179.14 14.7182 176 13.5685 176 12.1589V10.5593C176 9.14968 179.14 8 183.01 8C186.881 8 190.021 9.14968 190.021 10.5593ZM190.021 14.1583V17.7573C190.021 19.167 186.881 20.3166 183.01 20.3166C179.14 20.3166 176 19.167 176 17.7573V14.1583C177.506 15.318 180.263 15.8579 183.01 15.8579C185.758 15.8579 188.514 15.318 190.021 14.1583ZM190.021 19.7568V23.3558C190.021 24.7654 186.881 25.9151 183.01 25.9151C179.14 25.9151 176 24.7654 176 23.3558V19.7568C177.506 20.9165 180.263 21.4564 183.01 21.4564C185.758 21.4564 188.514 20.9165 190.021 19.7568Z" fill="url(#paint3_linear_557_7918)"/>
<ellipse cx="183.01" cy="10.7073" rx="7.01027" ry="2.53149" fill="url(#paint4_linear_557_7918)"/>
<ellipse cx="183.011" cy="10.5113" rx="2.72621" ry="0.778918" fill="black"/>
<rect x="155.949" y="14.834" width="26" height="26" rx="5.46917" fill="url(#paint5_linear_557_7918)" fill-opacity="0.7"/>
<ellipse cx="177.595" cy="18.9566" rx="1.08746" ry="1.08746" fill="#DF6E62"/>
<circle cx="168.949" cy="27.834" r="8.72654" fill="#D9D9D9" stroke="#5D64CC" stroke-width="0.546917"/>
<g filter="url(#filter0_i_557_7918)">
<ellipse cx="168.947" cy="27.8358" rx="8.47059" ry="8.47059" fill="#464755"/>
</g>
<path d="M177.144 27.8358C177.144 32.363 173.474 36.033 168.947 36.033C164.42 36.033 160.75 32.363 160.75 27.8358C160.75 23.3087 164.42 19.6387 168.947 19.6387C173.474 19.6387 177.144 23.3087 177.144 27.8358Z" stroke="black" stroke-width="0.546917"/>
<path d="M175.558 27.8355C175.558 31.4855 172.599 34.4444 168.949 34.4444C165.299 34.4444 162.34 31.4855 162.34 27.8355C162.34 24.1855 165.299 21.2266 168.949 21.2266C172.599 21.2266 175.558 24.1855 175.558 27.8355Z" fill="#07070E" stroke="black" stroke-width="0.546917"/>
<path d="M173.967 27.8332C173.967 30.606 171.719 32.8538 168.946 32.8538C166.174 32.8538 163.926 30.606 163.926 27.8332C163.926 25.0603 166.174 22.8125 168.946 22.8125C171.719 22.8125 173.967 25.0603 173.967 27.8332Z" fill="url(#paint6_radial_557_7918)" stroke="black" stroke-width="0.546917"/>
<ellipse cx="169.081" cy="27.8348" rx="3.70588" ry="3.70588" fill="#3F3F6A"/>
<path d="M168.946 33.1281C171.87 33.1281 174.241 30.7578 174.241 27.834C174.241 27.834 171.594 29.1575 168.946 29.1575C166.299 29.1575 163.652 27.834 163.652 27.834C163.652 30.7578 166.023 33.1281 168.946 33.1281Z" fill="url(#paint7_linear_557_7918)" fill-opacity="0.5"/>
<g style="mix-blend-mode:color-dodge">
<path d="M172.654 26.5114C172.654 28.1195 170.995 26.2467 168.948 26.2467C166.901 26.2467 165.242 28.1195 165.242 26.5114C165.242 24.9033 166.901 23.5996 168.948 23.5996C170.995 23.5996 172.654 24.9033 172.654 26.5114Z" fill="url(#paint8_radial_557_7918)"/>
</g>
<g filter="url(#filter1_f_557_7918)">
<ellipse cx="166.83" cy="25.6013" rx="0.529412" ry="0.794118" transform="rotate(-41.7454 166.83 25.6013)" fill="white"/>
</g>
<ellipse cx="168.949" cy="27.8342" rx="1.05882" ry="1.05882" fill="#626286"/>
<ellipse cx="170.533" cy="28.8927" rx="0.529412" ry="0.529412" fill="white"/>
<path d="M169.477 27.2519C169.477 27.5442 169.24 27.1456 168.947 27.1456C168.655 27.1456 168.418 27.5442 168.418 27.2519C168.418 27.0401 168.655 26.8809 168.947 26.8809C169.24 26.8809 169.477 27.0401 169.477 27.2519Z" fill="white"/>
<path d="M152.56 71.3848C155.841 71.3848 157.731 69.3459 157.739 65.9825C157.731 62.6265 155.841 60.61 152.664 60.61H149.062V71.3848H152.56ZM150.699 69.9561V62.0387H152.56C154.911 62.0387 156.116 63.445 156.116 65.9825C156.116 68.5274 154.911 69.9486 152.47 69.9561H150.699ZM159.158 69.1078C159.15 70.6853 160.348 71.5634 161.881 71.5634C163.221 71.5634 163.965 70.8862 164.277 70.2835H164.337V71.3848H165.885V66.0122C165.877 63.6683 164.002 63.1995 162.715 63.1995C160.802 63.1995 159.552 64.1668 159.411 65.5062H160.988C161.152 64.9109 161.718 64.4794 162.655 64.4794C163.734 64.4794 164.3 65.0077 164.292 65.9229L164.3 66.5703C163.928 66.5852 162.715 66.6522 162.179 66.6819C160.72 66.7861 159.15 67.2624 159.158 69.1078ZM160.706 69.1227C160.706 68.3264 161.36 67.9321 162.402 67.8577C162.782 67.8353 163.935 67.7535 164.3 67.7312L164.307 68.4678C164.307 69.4277 163.533 70.2909 162.238 70.2984C161.346 70.2909 160.706 69.8965 160.706 69.1227ZM171.664 63.3037H170.012V61.369H168.435V63.3037H167.244V64.5687H168.435V69.331C168.42 70.8044 169.544 71.4889 170.786 71.4889C171.225 71.4889 171.568 71.4592 171.783 71.4294V70.0454C171.56 70.0677 171.21 70.09 170.98 70.09C170.466 70.0826 170.02 69.9189 170.012 69.0036V64.5687H171.664V63.3037ZM172.92 69.1078C172.912 70.6853 174.11 71.5634 175.643 71.5634C176.983 71.5634 177.727 70.8862 178.039 70.2835H178.099V71.3848H179.647V66.0122C179.639 63.6683 177.764 63.1995 176.477 63.1995C174.564 63.1995 173.314 64.1668 173.173 65.5062H174.75C174.914 64.9109 175.48 64.4794 176.417 64.4794C177.496 64.4794 178.062 65.0077 178.054 65.9229L178.062 66.5703C177.69 66.5852 176.477 66.6522 175.941 66.6819C174.483 66.7861 172.912 67.2624 172.92 69.1078ZM174.468 69.1227C174.468 68.3264 175.122 67.9321 176.164 67.8577C176.544 67.8353 177.697 67.7535 178.062 67.7312L178.069 68.4678C178.069 69.4277 177.295 70.2909 176.001 70.2984C175.108 70.2909 174.468 69.8965 174.468 69.1227ZM186.185 65.5062H187.718C187.562 64.1147 186.438 63.1995 184.638 63.1995C182.763 63.1995 181.512 64.1892 181.512 65.6253C181.512 66.7415 182.271 67.5228 183.73 67.8428L184.995 68.1107C185.851 68.3116 186.238 68.6464 186.245 69.1673C186.238 69.8444 185.575 70.276 184.548 70.2686C183.588 70.276 183.038 69.9114 182.896 69.1822H181.274C181.475 70.6853 182.621 71.5485 184.563 71.5485C186.624 71.5485 187.86 70.5067 187.867 69.0482C187.86 67.9023 187.138 67.1954 185.65 66.8605L184.37 66.5629C183.477 66.3545 183.097 66.0122 183.105 65.536C183.097 64.9184 183.745 64.4496 184.653 64.4496C185.531 64.4496 186.037 64.8663 186.185 65.5062ZM192.977 71.5485C194.756 71.5485 195.998 70.6704 196.355 69.3608H194.748C194.48 69.8519 193.892 70.2388 192.992 70.2388C191.668 70.2388 190.76 69.3682 190.715 67.8279H196.46V67.2624C196.46 64.338 194.711 63.1995 192.873 63.1995C190.618 63.1995 189.13 64.9109 189.138 67.3963C189.13 69.904 190.596 71.5485 192.977 71.5485ZM190.723 66.6373C190.79 65.4988 191.615 64.5017 192.888 64.5091C194.101 64.5017 194.897 65.4095 194.897 66.6373H190.723ZM201.897 63.3037H200.245V61.369H198.668V63.3037H197.477V64.5687H198.668V69.331C198.653 70.8044 199.776 71.4889 201.019 71.4889C201.458 71.4889 201.8 71.4592 202.016 71.4294V70.0454C201.793 70.0677 201.443 70.09 201.213 70.09C200.699 70.0826 200.253 69.9189 200.245 69.0036V64.5687H201.897V63.3037Z" fill="#737A8C"/>
<defs>
<filter id="filter0_i_557_7918" x="160.477" y="19.3652" width="16.9414" height="17.2149" filterUnits="userSpaceOnUse" color-interpolation-filters="sRGB">
<feFlood flood-opacity="0" result="BackgroundImageFix"/>
<feBlend mode="normal" in="SourceGraphic" in2="BackgroundImageFix" result="shape"/>
<feColorMatrix in="SourceAlpha" type="matrix" values="0 0 0 0 0 0 0 0 0 0 0 0 0 0 0 0 0 0 127 0" result="hardAlpha"/>
<feOffset dy="0.273458"/>
<feGaussianBlur stdDeviation="0.273458"/>
<feComposite in2="hardAlpha" operator="arithmetic" k2="-1" k3="1"/>
<feColorMatrix type="matrix" values="0 0 0 0 1 0 0 0 0 1 0 0 0 0 1 0 0 0 0.25 0"/>
<feBlend mode="normal" in2="shape" result="effect1_innerShadow_557_7918"/>
</filter>
<filter id="filter1_f_557_7918" x="165.625" y="24.3652" width="2.41024" height="2.47274" filterUnits="userSpaceOnUse" color-interpolation-filters="sRGB">
<feFlood flood-opacity="0" result="BackgroundImageFix"/>
<feBlend mode="normal" in="SourceGraphic" in2="BackgroundImageFix" result="shape"/>
<feGaussianBlur stdDeviation="0.273458" result="effect1_foregroundBlur_557_7918"/>
</filter>
<linearGradient id="paint0_linear_557_7918" x1="31.4414" y1="22.959" x2="50.5795" y2="22.959" gradientUnits="userSpaceOnUse">
<stop stop-color="#6C79F9"/>
<stop offset="1" stop-color="#AA7BF6"/>
</linearGradient>
<linearGradient id="paint1_linear_557_7918" x1="31.4414" y1="14.3867" x2="50.5795" y2="14.3867" gradientUnits="userSpaceOnUse">
<stop stop-color="#A5ADFF"/>
<stop offset="1" stop-color="#BB92FF"/>
</linearGradient>
<linearGradient id="paint2_linear_557_7918" x1="52.9708" y1="19.1973" x2="52.9708" y2="47.9044" gradientUnits="userSpaceOnUse">
<stop stop-color="#C9D8ED" stop-opacity="0.6"/>
<stop offset="1" stop-color="#546175"/>
</linearGradient>
<linearGradient id="paint3_linear_557_7918" x1="176" y1="16.754" x2="190.021" y2="16.754" gradientUnits="userSpaceOnUse">
<stop stop-color="#6C79F9"/>
<stop offset="1" stop-color="#AA7BF6"/>
</linearGradient>
<linearGradient id="paint4_linear_557_7918" x1="176" y1="10.6497" x2="190.021" y2="10.6497" gradientUnits="userSpaceOnUse">
<stop stop-color="#A5ADFF"/>
<stop offset="1" stop-color="#BB92FF"/>
</linearGradient>
<linearGradient id="paint5_linear_557_7918" x1="168.949" y1="14.834" x2="168.949" y2="45.3557" gradientUnits="userSpaceOnUse">
<stop stop-color="#C9D8ED" stop-opacity="0.6"/>
<stop offset="1" stop-color="#546175"/>
</linearGradient>
<radialGradient id="paint6_radial_557_7918" cx="0" cy="0" r="1" gradientUnits="userSpaceOnUse" gradientTransform="translate(168.946 25.6273) rotate(90) scale(7.5 7.5)">
<stop stop-color="#CAE6FF"/>
<stop offset="0.447917" stop-color="#7CB1FF"/>
<stop offset="0.869792" stop-color="#4D2270"/>
</radialGradient>
<linearGradient id="paint7_linear_557_7918" x1="168.946" y1="28.8928" x2="168.946" y2="31.5399" gradientUnits="userSpaceOnUse">
<stop/>
<stop offset="1" stop-opacity="0"/>
</linearGradient>
<radialGradient id="paint8_radial_557_7918" cx="0" cy="0" r="1" gradientUnits="userSpaceOnUse" gradientTransform="translate(168.948 24.129) rotate(90) scale(3.44118 3.30934)">
<stop offset="0.247487" stop-color="white" stop-opacity="0.54"/>
<stop offset="0.736521" stop-color="white" stop-opacity="0"/>
</radialGradient>
</defs>
</svg>
