<svg width="218" height="78" viewBox="0 0 218 78" fill="none" xmlns="http://www.w3.org/2000/svg">
<mask id="mask0_557_7988" style="mask-type:alpha" maskUnits="userSpaceOnUse" x="24" y="3" width="39" height="40">
<rect x="24.1875" y="3.73438" width="38.6848" height="38.6848" fill="#D9D9D9"/>
</mask>
<g mask="url(#mask0_557_7988)">
<path opacity="0.3" d="M43.5352 23.5109L50.5686 27.0276L43.5352 30.5443L36.5017 27.0276L43.5352 23.5109Z" fill="url(#paint0_linear_557_7988)"/>
<path opacity="0.5" d="M43.5352 19.6984L50.5686 23.2151L43.5352 26.7318L36.5017 23.2151L43.5352 19.6984Z" fill="url(#paint1_linear_557_7988)"/>
<path d="M43.5352 16.1261L50.5686 19.6428L43.5352 23.1595L36.5017 19.6428L43.5352 16.1261Z" fill="url(#paint2_linear_557_7988)"/>
<path d="M30.3438 31.0781C25.9736 23.5089 28.5671 13.8301 36.1363 9.45993C38.6327 8.01867 41.3585 7.33481 44.0476 7.33707" stroke="url(#paint3_linear_557_7988)" stroke-width="3.5168" stroke-linecap="round"/>
<path d="M43.5312 7.26367C52.2715 7.26367 59.3569 14.349 59.3569 23.0893C59.3569 25.9718 58.5862 28.6744 57.2397 31.0021" stroke="url(#paint4_linear_557_7988)" stroke-width="3.5168" stroke-linecap="round"/>
<path d="M57.9336 31.4297C53.5635 38.999 43.8847 41.5924 36.3154 37.2223C33.8191 35.781 31.8639 33.7623 30.5213 31.4323" stroke="url(#paint5_linear_557_7988)" stroke-width="3.5168" stroke-linecap="round"/>
</g>
<path d="M23.4962 63.4525H25.0886C25.0365 61.7112 23.5111 60.4611 21.3234 60.4611C19.1431 60.4611 17.4912 61.6964 17.4837 63.5567C17.4912 65.0598 18.5627 65.9378 20.2965 66.4141L21.5764 66.7564C22.7149 67.0614 23.6078 67.4409 23.6152 68.3785C23.6078 69.4352 22.6107 70.1272 21.2341 70.1346C19.9765 70.1272 18.9347 69.5691 18.838 68.3934H17.201C17.3051 70.3579 18.8231 71.5634 21.2341 71.5634C23.7789 71.5634 25.23 70.2314 25.2374 68.4083C25.23 66.4587 23.5036 65.7072 22.127 65.3723L21.0852 65.0895C20.2295 64.8886 19.1208 64.4868 19.1208 63.4674C19.1282 62.5521 19.9616 61.875 21.2787 61.875C22.5139 61.875 23.392 62.4479 23.4962 63.4525ZM30.4219 71.5485C32.2003 71.5485 33.443 70.6704 33.8002 69.3608H32.1929C31.925 69.8519 31.3371 70.2388 30.4367 70.2388C29.1122 70.2388 28.2044 69.3682 28.1597 67.8279H33.9043V67.2624C33.9043 64.338 32.1557 63.1995 30.3177 63.1995C28.063 63.1995 26.5748 64.9109 26.5822 67.3963C26.5748 69.904 28.0407 71.5485 30.4219 71.5485ZM28.1672 66.6373C28.2342 65.4988 29.0601 64.5017 30.3326 64.5091C31.5455 64.5017 32.3417 65.4095 32.3417 66.6373H28.1672ZM35.5617 71.3848H37.1541V66.4587C37.1541 65.4021 37.9726 64.6356 39.0739 64.6431C39.4013 64.6356 39.7734 64.7026 39.9073 64.7324V63.2144C39.7436 63.1995 39.4311 63.1772 39.2376 63.1846C38.2926 63.1772 37.4815 63.7204 37.1838 64.5835H37.0945V63.3037H35.5617V71.3848ZM48.3659 63.3037H46.6544L44.6155 69.5096H44.5411L42.5022 63.3037H40.7908L43.7226 71.3848H45.434L48.3659 63.3037ZM49.7404 71.3848H51.3328V63.3037H49.7404V71.3848ZM49.5321 61.116C49.5395 61.6368 49.9934 62.061 50.5441 62.0535C51.0873 62.061 51.5412 61.6368 51.5412 61.116C51.5412 60.5951 51.0873 60.1784 50.5441 60.1784C49.9934 60.1784 49.5395 60.5951 49.5321 61.116ZM54.9398 66.5927C54.9398 65.3053 55.7211 64.5687 56.8149 64.5687C57.8865 64.5687 58.519 65.2681 58.5264 66.4438V71.3848H60.1039V66.2504C60.1114 64.2487 59.0101 63.1995 57.3507 63.1995C56.1452 63.1995 55.349 63.7576 54.9695 64.6282H54.8802V63.3037H53.3473V71.3848H54.9398V66.5927ZM65.5116 74.5845C67.5951 74.5845 69.1652 73.6394 69.1578 71.5634V63.3037H67.61V64.6133H67.5058C67.2082 64.1073 66.6576 63.1995 65.1544 63.1995C63.2123 63.1995 61.7613 64.6803 61.7613 67.2624C61.7613 69.8444 63.2346 71.2657 65.1396 71.2657C66.6278 71.2657 67.2082 70.4323 67.491 69.9114H67.5951V71.5038C67.5877 72.7614 66.7915 73.312 65.5265 73.3046C64.4773 73.312 63.7629 72.94 63.6067 72.1735H61.9845C62.1259 73.6841 63.4727 74.5845 65.5116 74.5845ZM63.3834 67.2921C63.376 65.7444 64.0904 64.5463 65.4967 64.5538C66.8659 64.5463 67.61 65.6551 67.61 67.2921C67.61 68.9589 66.851 69.9486 65.4967 69.9561C64.1052 69.9486 63.376 68.8771 63.3834 67.2921Z" fill="#737A8C"/>
<path d="M123.51 38.8008L119.7 36.6011V41.0004L123.51 38.8008ZM95.3438 39.1818H96.1261V38.4198H95.3438V39.1818ZM97.6909 39.1818H99.2557V38.4198H97.6909V39.1818ZM100.82 39.1818H102.385V38.4198H100.82V39.1818ZM103.95 39.1818H105.515V38.4198H103.95V39.1818ZM107.08 39.1818H108.644V38.4198H107.08V39.1818ZM110.209 39.1818H111.774V38.4198H110.209V39.1818ZM113.339 39.1818H114.903V38.4198H113.339V39.1818ZM116.468 39.1818H118.033V38.4198H116.468V39.1818ZM119.598 39.1818H121.162V38.4198H119.598V39.1818Z" fill="#454954"/>
<rect x="165.234" y="34.8633" width="19.8247" height="2.14321" rx="1.0716" fill="url(#paint6_linear_557_7988)"/>
<path d="M157.742 31.1133H192.569V31.1133C192.569 32.5929 191.37 33.7923 189.89 33.7923H160.421C158.942 33.7923 157.742 32.5929 157.742 31.1133V31.1133Z" fill="url(#paint7_linear_557_7988)"/>
<path d="M158.078 12.6633C158.078 10.721 159.653 9.14648 161.595 9.14648H189.388C191.331 9.14648 192.905 10.721 192.905 12.6633V31.1144H158.078V12.6633Z" fill="url(#paint8_linear_557_7988)" fill-opacity="0.7"/>
<rect width="2.07419" height="5.3608" transform="matrix(-1 0 0 1 171.004 21.2324)" fill="white"/>
<rect width="2.07419" height="9.35458" transform="matrix(-1 0 0 1 176.594 17.2383)" fill="white"/>
<rect width="2.07419" height="7.60911" transform="matrix(-1 0 0 1 182.188 18.9844)" fill="white"/>
<path d="M138.426 60.61V71.3848H139.988V63.5864H140.077L143.247 71.3699H144.542L147.697 63.6013H147.801V71.3848H149.364V60.61H147.37L143.962 68.9589H143.828L140.42 60.61H138.426ZM154.935 71.5485C157.212 71.5485 158.701 69.8816 158.701 67.3814C158.701 64.8663 157.212 63.1995 154.935 63.1995C152.644 63.1995 151.148 64.8663 151.155 67.3814C151.148 69.8816 152.644 71.5485 154.935 71.5485ZM152.748 67.3814C152.748 65.8337 153.455 64.5166 154.935 64.5091C156.394 64.5166 157.093 65.8337 157.093 67.3814C157.093 68.9217 156.394 70.2239 154.935 70.2239C153.455 70.2239 152.748 68.9217 152.748 67.3814ZM161.936 66.5927C161.936 65.3053 162.717 64.5687 163.811 64.5687C164.882 64.5687 165.515 65.2681 165.522 66.4438V71.3848H167.1V66.2504C167.107 64.2487 166.006 63.1995 164.346 63.1995C163.141 63.1995 162.345 63.7576 161.965 64.6282H161.876V63.3037H160.343V71.3848H161.936V66.5927ZM169.114 71.3848H170.707V63.3037H169.114V71.3848ZM168.906 61.116C168.913 61.6368 169.367 62.061 169.918 62.0535C170.461 62.061 170.915 61.6368 170.915 61.116C170.915 60.5951 170.461 60.1784 169.918 60.1784C169.367 60.1784 168.913 60.5951 168.906 61.116ZM176.501 63.3037H174.849V61.369H173.272V63.3037H172.081V64.5687H173.272V69.331C173.257 70.8044 174.38 71.4889 175.623 71.4889C176.062 71.4889 176.404 71.4592 176.62 71.4294V70.0454C176.397 70.0677 176.047 70.09 175.817 70.09C175.303 70.0826 174.857 69.9189 174.849 69.0036V64.5687H176.501V63.3037ZM181.462 71.5485C183.739 71.5485 185.228 69.8816 185.228 67.3814C185.228 64.8663 183.739 63.1995 181.462 63.1995C179.171 63.1995 177.675 64.8663 177.682 67.3814C177.675 69.8816 179.171 71.5485 181.462 71.5485ZM179.275 67.3814C179.275 65.8337 179.982 64.5166 181.462 64.5091C182.921 64.5166 183.62 65.8337 183.62 67.3814C183.62 68.9217 182.921 70.2239 181.462 70.2239C179.982 70.2239 179.275 68.9217 179.275 67.3814ZM186.87 71.3848H188.463V66.4587C188.463 65.4021 189.281 64.6356 190.382 64.6431C190.71 64.6356 191.082 64.7026 191.216 64.7324V63.2144C191.052 63.1995 190.74 63.1772 190.546 63.1846C189.601 63.1772 188.79 63.7204 188.492 64.5835H188.403V63.3037H186.87V71.3848ZM192.486 71.3848H194.079V63.3037H192.486V71.3848ZM192.278 61.116C192.285 61.6368 192.739 62.061 193.29 62.0535C193.833 62.061 194.287 61.6368 194.287 61.116C194.287 60.5951 193.833 60.1784 193.29 60.1784C192.739 60.1784 192.285 60.5951 192.278 61.116ZM197.685 66.5927C197.685 65.3053 198.467 64.5687 199.561 64.5687C200.632 64.5687 201.265 65.2681 201.272 66.4438V71.3848H202.85V66.2504C202.857 64.2487 201.756 63.1995 200.096 63.1995C198.891 63.1995 198.095 63.7576 197.715 64.6282H197.626V63.3037H196.093V71.3848H197.685V66.5927ZM208.257 74.5845C210.341 74.5845 211.911 73.6394 211.903 71.5634V63.3037H210.356V64.6133H210.252C209.954 64.1073 209.403 63.1995 207.9 63.1995C205.958 63.1995 204.507 64.6803 204.507 67.2624C204.507 69.8444 205.98 71.2657 207.885 71.2657C209.373 71.2657 209.954 70.4323 210.237 69.9114H210.341V71.5038C210.333 72.7614 209.537 73.312 208.272 73.3046C207.223 73.312 206.509 72.94 206.352 72.1735H204.73C204.872 73.6841 206.218 74.5845 208.257 74.5845ZM206.129 67.2921C206.122 65.7444 206.836 64.5463 208.242 64.5538C209.612 64.5463 210.356 65.6551 210.356 67.2921C210.356 68.9589 209.597 69.9486 208.242 69.9561C206.851 69.9486 206.122 68.8771 206.129 67.2921Z" fill="#737A8C"/>
<defs>
<linearGradient id="paint0_linear_557_7988" x1="40.0984" y1="23.4309" x2="47.1318" y2="30.4643" gradientUnits="userSpaceOnUse">
<stop stop-color="#6C79F9"/>
<stop offset="1" stop-color="#AA7BF6"/>
</linearGradient>
<linearGradient id="paint1_linear_557_7988" x1="40.0984" y1="19.6184" x2="47.1318" y2="26.6518" gradientUnits="userSpaceOnUse">
<stop stop-color="#6C79F9"/>
<stop offset="1" stop-color="#AA7BF6"/>
</linearGradient>
<linearGradient id="paint2_linear_557_7988" x1="40.0984" y1="16.0462" x2="47.1318" y2="23.0796" gradientUnits="userSpaceOnUse">
<stop stop-color="#6C79F9"/>
<stop offset="1" stop-color="#AA7BF6"/>
</linearGradient>
<linearGradient id="paint3_linear_557_7988" x1="30.3438" y1="32.761" x2="45.2902" y2="6.38495" gradientUnits="userSpaceOnUse">
<stop stop-color="#6C79F9" stop-opacity="0"/>
<stop offset="1" stop-color="#AA7BF6"/>
</linearGradient>
<linearGradient id="paint4_linear_557_7988" x1="42.0738" y1="6.42229" x2="57.443" y2="32.5542" gradientUnits="userSpaceOnUse">
<stop stop-color="#6C79F9" stop-opacity="0"/>
<stop offset="1" stop-color="#AA7BF6"/>
</linearGradient>
<linearGradient id="paint5_linear_557_7988" x1="59.391" y1="30.5882" x2="29.0755" y2="30.8323" gradientUnits="userSpaceOnUse">
<stop stop-color="#6C79F9" stop-opacity="0"/>
<stop offset="1" stop-color="#AA7BF6"/>
</linearGradient>
<linearGradient id="paint6_linear_557_7988" x1="165.234" y1="35.9105" x2="185.059" y2="35.9105" gradientUnits="userSpaceOnUse">
<stop stop-color="#6C79F9"/>
<stop offset="1" stop-color="#AA7BF6"/>
</linearGradient>
<linearGradient id="paint7_linear_557_7988" x1="157.742" y1="32.4223" x2="192.569" y2="32.4223" gradientUnits="userSpaceOnUse">
<stop stop-color="#6C79F9"/>
<stop offset="1" stop-color="#AA7BF6"/>
</linearGradient>
<linearGradient id="paint8_linear_557_7988" x1="175.492" y1="9.14648" x2="175.492" y2="31.1144" gradientUnits="userSpaceOnUse">
<stop stop-color="#C9D8ED" stop-opacity="0.6"/>
<stop offset="1" stop-color="#546175"/>
</linearGradient>
</defs>
</svg>
