<?xml version="1.0" encoding="utf-8"?>
<!-- Generator: Adobe Illustrator 27.2.0, SVG Export Plug-In . SVG Version: 6.00 Build 0)  -->
<svg version="1.1" id="Layer_1" xmlns="http://www.w3.org/2000/svg" xmlns:xlink="http://www.w3.org/1999/xlink" x="0px" y="0px"
	 viewBox="0 0 592 840" style="enable-background:new 0 0 592 840;" xml:space="preserve">
<style type="text/css">
	.st0{fill:#4E5E56;}
	.st1{fill:#B0BF24;}
	.st2{fill:#FFFFFF;}
	.st3{fill:#006EB0;}
</style>
<g>
	<g>
		<path class="st0" d="M206.1,484v-6.7c0,0-17.1,0-18.2,0c1.3-4,2.4-8,3.2-11.8l0,0c0.9-4.4,1.3-6.9,1.3-10.4c0,0,0.2-3.4,0.2-3.4
			l0.2-3.9l-0.8,0H135v6.9c0,0,16.6,0,17.5,0c0,3.8-0.3,6.7-0.9,10.6c-0.6,4.1-1.4,8.1-2.6,11.9c-0.7,0-25.2,0-25.2,0v6.7
			c0,0,34.8,0,35.7,0v11c-0.9,0-21.2,0-21.2,0v3.6l0.6,0.1c0,0,0.4,0.1,1.4,0.8c0.6,0.4,0.9,1.2,0.9,2.3v20.3c0,1,0.4,1.9,1.1,2.4
			c0.7,0.5,1.4,0.8,2,0.8h41.9c0.9,0,1.7-0.3,2.4-0.8c0.7-0.6,1-1.4,1-2.4v-20.8c0,0,0.1-3.1,0.1-3.1l0.3-3.2l-0.8,0
			c0,0-18.1,0-18.9,0v-11C171.2,484,206.1,484,206.1,484z M181.6,454.8c0,3.5-0.3,6.4-0.8,10.3l0,0c-0.5,4.1-1.3,8.2-2.4,12.2h-20.1
			c1.3-3.9,2.4-7.8,3.1-11.5c0.7-3.8,1.3-6.8,1.5-11H181.6z M179.8,501.8v16.9h-28.7v-16.9H179.8z"/>
		<path class="st0" d="M361.6,500.1c1.8-3.9,3.4-8.8,4.7-14.6c1.5-6.4,2.2-26.3,2.2-30.2c0,0,0.1-3.5,0.1-3.5c0,0,0.3-3.3,0.3-3.3
			l0-0.4l-0.8-0.1h-56v6.9c0,0,44.3,0,45.2,0c0,0.7,0,4.9,0,4.9c0,4.5-0.5,23.4-1.4,27.8c-0.9,4.4-2.4,8.6-3.9,12.6
			c-0.6,0-50.3,0-50.3,0v7.1H380v-7.1C380,500.1,362.9,500.1,361.6,500.1z"/>
		<path class="st0" d="M421.1,516.9c0-0.8,0-11.1,0-11.1c0-1.3,0.1-2.4,0.3-3.6l0.6-3.3l-0.9,0l-12.4-0.8l-2,3.5l1,0.2
			c0.3,0.1,1,0.3,2.2,1.1c0.8,0.5,1.2,1.6,1.2,3.3v14.9c0,1.1,0.4,1.9,1.1,2.3c0.6,0.4,1.3,0.6,2,0.6h45.8v-7.1
			C460.1,516.9,421.9,516.9,421.1,516.9z M448.8,483.9c0,1,0,20.7,0,20.7h8.6l0.8-9.5c0,0,0-51.5,0-51.5h-9.4c0,0,0,33.3,0,34.1
			c-6.8,1.5-13.7,2.5-20.6,3.2c-7.2,0.7-13.8,1-19.7,1c0,0-3,0-3.7,0v-10.6c0.9,0,31.3,0,31.3,0v-23.3H392v7c0,0,33,0,33.8,0v9.5
			c-0.9,0-34.4,0-34.4,0v3.9l0.6,0.1c0.1,0,0.4,0.1,1.5,0.8c0.6,0.4,0.9,1.3,0.9,2.6v14.8c0,1.1,0.4,1.9,1.1,2.5
			c0.7,0.5,1.5,0.8,2.5,0.8c7.8,0,16.4-0.6,25.7-1.7C432.5,487.2,440.9,485.7,448.8,483.9z"/>
		<path class="st0" d="M262.3,466.3h-6.4c-1-4.3-3.2-8-6.8-10.9c-3.7-3-8.2-4.5-13.3-4.5c-5.8,0-10.7,1.9-14.7,5.8
			c-4,3.8-6,8.6-6,14.1c0,5.5,2.1,10.1,6.1,13.7c4,3.5,8.9,5.3,14.6,5.3c5.3,0,9.9-1.6,13.6-4.7c3.6-3,5.8-6.9,6.5-11.5h6.3
			c0,0.8,0,43.8,0,43.8h8l0.9-9.2c0,0,0-59.8,0-59.8v-0.4h-8.9C262.3,447.9,262.3,465.6,262.3,466.3z M243.6,478.4L243.6,478.4
			c-1.9,2.5-4.5,3.7-7.8,3.7c-3.3,0-5.9-1.2-7.7-3.7c-1.9-2.5-2.9-5.3-2.9-8.2c0-2.9,1-5.7,2.9-8.2c1.8-2.4,4.4-3.6,7.7-3.6
			c3.3,0,5.9,1.2,7.8,3.6c2,2.5,2.9,5.3,2.9,8.2C246.6,473.2,245.6,475.9,243.6,478.4z M278,445.9v79.5h7.9l1.1-8.6
			c0-0.1,0-70.4,0-70.4v-0.4H278z"/>
	</g>
	<g>
		<g>
			<path class="st1" d="M208.7,335c11.8-7.1,37.1-15.4,82.6-1.1c47.2,14.9,75.3,14,90.3,10.8c-0.1-5.6-0.2-11.1-0.2-16.4
				c0-36.8,3.4-89.3,3.4-89.7c-0.3,0-52.9,3.4-89.8,3.4c-36.9,0-89.4-3.4-89.7-3.4c0,0.4,3.4,52.9,3.4,89.7
				C208.7,330.6,208.7,332.8,208.7,335z"/>
			<path class="st2" d="M262,273.6c-5.9,1.6-8.1,8-13.6,10.8c-4.4,2.3-12.7,4.4-17.2,1.1c-2-1.5-2.7-4.7-1.6-6.9
				c0.9-2,5.9-3.9,5.6-6c-0.4-2.1-6.8-2.1-8.2-2.3c-3.1-0.5-8-0.6-9.2-4c-1-2.6,2.8-5.1,5-5.1c2.8,0,5.6,1.8,8.1,3
				c0.9,0.4,6.1,3.1,6.7,1.2c0.5-1.6-1.9-3.9-1.9-5.6c-0.2-7.5,12.2-0.7,14.3,1.1c2.6,2.1,4.8,4.7,6.9,7.4
				C257.7,269.4,262.3,273.5,262,273.6"/>
			<path class="st2" d="M366.6,293.2c-4.9-6.3-13.2-9.2-21.2-0.6c-3,3.7-8.4,8.9-12.2,12.2c-3.8,3.2-7.1,5.7-11.4,5.7
				c-4.3,0-8-1.6-10.5-3.7c-2.5-2-4.3-4.4-8.4-4.6c-8-1.4-14.2,6.6-21.7,13.3c-2.5,2.2-7.2,7.6-12.5,12.9c6.9,1.3,14.4,3.1,22.5,5.7
				c47.2,14.9,75.2,14,90.3,10.8c-0.1-5.6-0.2-11.1-0.2-16.4c0-4.1,0-8.4,0.1-12.8c-1-1.7-2.1-3.4-3.3-5.2
				C374.5,304.7,370.8,298.6,366.6,293.2z"/>
			<path class="st3" d="M381.6,344.8c-15.1,3.3-43.1,4.2-90.3-10.8c-45.5-14.4-70.9-6-82.6,1.1c-0.4,35.8-3.3,79.2-3.4,79.5
				c0.2,0,22-1.4,47.4-2.4c2.2-0.1,4.4-0.2,6.6-0.2c12.1-0.4,24.6-0.7,35.7-0.7c36.9,0,89.5,3.4,89.8,3.4
				C384.8,414.2,382.3,378.2,381.6,344.8z"/>
		</g>
		<path class="st2" d="M260.5,389.7c25.4,19.5,42.8-4.5,42.8-4.5c-10.3-13.1-21.4-12.1-29.4-8.5c15.1-15.9,0.1-30.9,0.1-30.9
			c-13.6,5.9-17.7,18.3-17.2,26.4c-8.5-16.3-22.9-7.9-22.9-7.9c1,18.7,9.2,25.5,22.2,24.3c-3.2,6-3.5,16.5-3.4,23.5
			c2.2-0.1,4.4-0.2,6.6-0.2C258.2,405.6,257.7,395.6,260.5,389.7z"/>
	</g>
</g>
</svg>
