<svg width="47" height="47" viewBox="0 0 47 47" fill="none" xmlns="http://www.w3.org/2000/svg">
<rect x="1.17163" y="0.528074" width="45.2579" height="45.2579" rx="5.75314" fill="#2D2D3C"/>
<path opacity="0.5" d="M16.0317 15.4395V16.4426C16.0317 16.9666 16.0317 17.2285 16.1337 17.4286C16.2234 17.6046 16.3665 17.7477 16.5425 17.8374C16.7426 17.9394 17.0046 17.9394 17.5285 17.9394H18.8151C19.339 17.9394 19.6009 17.9394 19.801 18.0413C19.9771 18.131 20.1202 18.2741 20.2099 18.4502C20.3118 18.6503 20.3118 18.9122 20.3118 19.4361V20.1132M21.0557 24.1996V28.0235M26.0806 15.4396V16.4426C26.0806 16.9666 26.0806 17.2285 25.9786 17.4286C25.889 17.6046 25.7459 17.7477 25.5698 17.8374C25.3697 17.9394 25.1078 17.9394 24.5839 17.9394H23.2973C22.7734 17.9394 22.5114 17.9394 22.3113 18.0413C22.1353 18.131 21.9922 18.2741 21.9025 18.4502C21.8005 18.6503 21.8005 18.9122 21.8005 19.4361V20.1132" stroke="#D9DBE0" stroke-width="0.467731" stroke-linecap="square"/>
<mask id="path-3-inside-1_414_8041" fill="white">
<path fill-rule="evenodd" clip-rule="evenodd" d="M20.134 12.3417C20.134 11.8251 19.7151 11.4062 19.1985 11.4062H12.935C12.4183 11.4062 11.9995 11.8251 11.9995 12.3417V14.9899C11.9995 15.5066 12.4183 15.9254 12.935 15.9254H19.1985C19.7151 15.9254 20.134 15.5066 20.134 14.9899V12.3417ZM24.8223 21.2404C24.8223 20.7237 24.4035 20.3049 23.8869 20.3049H17.94C17.4234 20.3049 17.0045 20.7237 17.0045 21.2404V23.7127C17.0045 24.2293 17.4234 24.6481 17.94 24.6481H23.8869C24.4035 24.6481 24.8223 24.2293 24.8223 23.7127V21.2404ZM17.0044 28.9569C17.0044 28.4403 17.4232 28.0215 17.9399 28.0215H23.8867C24.4034 28.0215 24.8222 28.4403 24.8222 28.9569V31.4292C24.8222 31.9459 24.4034 32.3647 23.8867 32.3647H17.9399C17.4232 32.3647 17.0044 31.9459 17.0044 31.4292V28.9569ZM29.6894 12.4784C29.6894 11.9618 29.2705 11.543 28.7539 11.543H22.807C22.2904 11.543 21.8716 11.9618 21.8716 12.4784V14.9507C21.8716 15.4674 22.2904 15.8862 22.807 15.8862H28.7539C29.2705 15.8862 29.6894 15.4674 29.6894 14.9507V12.4784Z"/>
</mask>
<path fill-rule="evenodd" clip-rule="evenodd" d="M20.134 12.3417C20.134 11.8251 19.7151 11.4062 19.1985 11.4062H12.935C12.4183 11.4062 11.9995 11.8251 11.9995 12.3417V14.9899C11.9995 15.5066 12.4183 15.9254 12.935 15.9254H19.1985C19.7151 15.9254 20.134 15.5066 20.134 14.9899V12.3417ZM24.8223 21.2404C24.8223 20.7237 24.4035 20.3049 23.8869 20.3049H17.94C17.4234 20.3049 17.0045 20.7237 17.0045 21.2404V23.7127C17.0045 24.2293 17.4234 24.6481 17.94 24.6481H23.8869C24.4035 24.6481 24.8223 24.2293 24.8223 23.7127V21.2404ZM17.0044 28.9569C17.0044 28.4403 17.4232 28.0215 17.9399 28.0215H23.8867C24.4034 28.0215 24.8222 28.4403 24.8222 28.9569V31.4292C24.8222 31.9459 24.4034 32.3647 23.8867 32.3647H17.9399C17.4232 32.3647 17.0044 31.9459 17.0044 31.4292V28.9569ZM29.6894 12.4784C29.6894 11.9618 29.2705 11.543 28.7539 11.543H22.807C22.2904 11.543 21.8716 11.9618 21.8716 12.4784V14.9507C21.8716 15.4674 22.2904 15.8862 22.807 15.8862H28.7539C29.2705 15.8862 29.6894 15.4674 29.6894 14.9507V12.4784Z" fill="#944AF2"/>
<path d="M12.935 11.874H19.1985V10.9385H12.935V11.874ZM12.4672 14.9899V12.3417H11.5318V14.9899H12.4672ZM19.1985 15.4577H12.935V16.3931H19.1985V15.4577ZM19.6662 12.3417V14.9899H20.6017V12.3417H19.6662ZM17.94 20.7726H23.8869V19.8372H17.94V20.7726ZM17.4723 23.7127V21.2404H16.5368V23.7127H17.4723ZM23.8869 24.1804H17.94V25.1159H23.8869V24.1804ZM24.3546 21.2404V23.7127H25.2901V21.2404H24.3546ZM23.8867 27.5538H17.9399V28.4892H23.8867V27.5538ZM25.2899 31.4292V28.9569H24.3544V31.4292H25.2899ZM17.9399 32.8324H23.8867V31.897H17.9399V32.8324ZM16.5367 28.9569V31.4292H17.4721V28.9569H16.5367ZM22.807 12.0107H28.7539V11.0752H22.807V12.0107ZM22.3393 14.9507V12.4784H21.4039V14.9507H22.3393ZM28.7539 15.4185H22.807V16.3539H28.7539V15.4185ZM29.2216 12.4784V14.9507H30.1571V12.4784H29.2216ZM28.7539 16.3539C29.5289 16.3539 30.1571 15.7257 30.1571 14.9507H29.2216C29.2216 15.209 29.0122 15.4185 28.7539 15.4185V16.3539ZM21.4039 14.9507C21.4039 15.7257 22.0321 16.3539 22.807 16.3539V15.4185C22.5487 15.4185 22.3393 15.209 22.3393 14.9507H21.4039ZM28.7539 12.0107C29.0122 12.0107 29.2216 12.2201 29.2216 12.4784H30.1571C30.1571 11.7035 29.5289 11.0752 28.7539 11.0752V12.0107ZM22.807 11.0752C22.0321 11.0752 21.4039 11.7035 21.4039 12.4784H22.3393C22.3393 12.2201 22.5487 12.0107 22.807 12.0107V11.0752ZM17.9399 31.897C17.6815 31.897 17.4721 31.6876 17.4721 31.4292H16.5367C16.5367 32.2042 17.1649 32.8324 17.9399 32.8324V31.897ZM24.3544 31.4292C24.3544 31.6876 24.145 31.897 23.8867 31.897V32.8324C24.6617 32.8324 25.2899 32.2042 25.2899 31.4292H24.3544ZM17.9399 27.5538C17.1649 27.5538 16.5367 28.182 16.5367 28.9569H17.4721C17.4721 28.6986 17.6815 28.4892 17.9399 28.4892V27.5538ZM23.8867 28.4892C24.145 28.4892 24.3544 28.6986 24.3544 28.9569H25.2899C25.2899 28.182 24.6617 27.5538 23.8867 27.5538V28.4892ZM23.8869 25.1159C24.6618 25.1159 25.2901 24.4876 25.2901 23.7127H24.3546C24.3546 23.971 24.1452 24.1804 23.8869 24.1804V25.1159ZM16.5368 23.7127C16.5368 24.4876 17.165 25.1159 17.94 25.1159V24.1804C17.6817 24.1804 17.4723 23.971 17.4723 23.7127H16.5368ZM23.8869 20.7726C24.1452 20.7726 24.3546 20.9821 24.3546 21.2404H25.2901C25.2901 20.4654 24.6618 19.8372 23.8869 19.8372V20.7726ZM17.94 19.8372C17.165 19.8372 16.5368 20.4654 16.5368 21.2404H17.4723C17.4723 20.9821 17.6817 20.7726 17.94 20.7726V19.8372ZM19.1985 16.3931C19.9735 16.3931 20.6017 15.7649 20.6017 14.9899H19.6662C19.6662 15.2482 19.4568 15.4577 19.1985 15.4577V16.3931ZM11.5318 14.9899C11.5318 15.7649 12.16 16.3931 12.935 16.3931V15.4577C12.6767 15.4577 12.4672 15.2482 12.4672 14.9899H11.5318ZM19.1985 11.874C19.4568 11.874 19.6662 12.0834 19.6662 12.3417H20.6017C20.6017 11.5667 19.9735 10.9385 19.1985 10.9385V11.874ZM12.935 10.9385C12.16 10.9385 11.5318 11.5668 11.5318 12.3417H12.4672C12.4672 12.0834 12.6767 11.874 12.935 11.874V10.9385Z" fill="#763BC2" mask="url(#path-3-inside-1_414_8041)"/>
<path fill-rule="evenodd" clip-rule="evenodd" d="M29.8654 34.9047C33.0908 34.9047 35.7054 32.29 35.7054 29.0646C35.7054 25.8393 33.0908 23.2246 29.8654 23.2246C26.6401 23.2246 24.0254 25.8393 24.0254 29.0646C24.0254 32.29 26.6401 34.9047 29.8654 34.9047ZM28.743 31.0098L32.1123 29.0646L28.743 27.1193V31.0098Z" fill="url(#paint0_linear_414_8041)"/>
<rect x="1.17163" y="0.528074" width="45.2579" height="45.2579" rx="5.75314" stroke="#454954" stroke-width="0.767085"/>
<defs>
<linearGradient id="paint0_linear_414_8041" x1="29.8654" y1="23.2246" x2="29.8654" y2="34.9047" gradientUnits="userSpaceOnUse">
<stop stop-color="#6C79F9" stop-opacity="0.3"/>
<stop offset="1" stop-color="#6C79F9"/>
</linearGradient>
</defs>
</svg>
