<svg width="47" height="47" viewBox="0 0 47 47" fill="none" xmlns="http://www.w3.org/2000/svg">
<rect x="0.769285" y="0.528074" width="45.2579" height="45.2579" rx="5.75314" fill="#2D2D3C"/>
<path fill-rule="evenodd" clip-rule="evenodd" d="M21.3564 26.2286C21.3564 26.3299 21.4386 26.4121 21.54 26.4121C21.5428 26.4121 21.5457 26.412 21.5485 26.4119L23.7366 26.4119C23.8411 26.4119 23.9259 26.3271 23.9259 26.2226C23.9259 26.118 23.8411 26.0332 23.7366 26.0332L21.7235 26.0332L21.7235 23.9447C21.7235 23.8433 21.6413 23.7611 21.54 23.7611C21.4386 23.7611 21.3564 23.8433 21.3564 23.9447L21.3564 26.2226L21.3564 26.2286Z" fill="#944AF2"/>
<path fill-rule="evenodd" clip-rule="evenodd" d="M21.5429 10.8867C21.5419 10.8867 21.541 10.8867 21.54 10.8867C21.4386 10.8867 21.3564 10.9689 21.3564 11.0703V13.3542C21.3564 13.4555 21.4386 13.5377 21.54 13.5377C21.6413 13.5377 21.7235 13.4555 21.7235 13.3542L21.7235 11.2654H23.7366C23.8412 11.2654 23.926 11.1807 23.926 11.0761C23.926 10.9715 23.8412 10.8867 23.7366 10.8867H21.5458C21.5449 10.8867 21.5439 10.8867 21.5429 10.8867Z" fill="#944AF2"/>
<path fill-rule="evenodd" clip-rule="evenodd" d="M35.6714 11.0663C35.6714 10.965 35.5892 10.8828 35.4879 10.8828C35.485 10.8828 35.4822 10.8829 35.4793 10.883L33.2908 10.883C33.1862 10.883 33.1014 10.9678 33.1014 11.0724C33.1014 11.1769 33.1862 11.2617 33.2908 11.2617L35.3043 11.2617L35.3043 13.3503C35.3043 13.4516 35.3865 13.5338 35.4879 13.5338C35.5892 13.5338 35.6714 13.4516 35.6714 13.3503L35.6714 11.0663Z" fill="#944AF2"/>
<path fill-rule="evenodd" clip-rule="evenodd" d="M35.4792 26.4119C35.4822 26.412 35.4852 26.4121 35.4882 26.4121C35.5839 26.4121 35.6624 26.3389 35.671 26.2455C35.6719 26.238 35.6724 26.2303 35.6724 26.2225C35.6724 26.2174 35.6722 26.2123 35.6718 26.2072L35.6718 23.9447C35.6718 23.8433 35.5896 23.7611 35.4882 23.7611C35.3869 23.7611 35.3047 23.8433 35.3047 23.9447L35.3047 26.0332L33.2922 26.0332C33.1877 26.0332 33.1029 26.118 33.1029 26.2225C33.1029 26.3271 33.1877 26.4119 33.2922 26.4119L35.4792 26.4119Z" fill="#944AF2"/>
<path d="M32.8195 14.7453V15.6883C32.8195 16.5194 30.9682 17.1972 28.6863 17.1972C26.4045 17.1972 24.5532 16.5194 24.5532 15.6883V14.7453C24.5532 13.9142 26.4045 13.2363 28.6863 13.2363C30.9682 13.2363 32.8195 13.9142 32.8195 14.7453ZM32.8195 16.8672V18.9891C32.8195 19.8202 30.9682 20.498 28.6863 20.498C26.4045 20.498 24.5532 19.8202 24.5532 18.9891V16.8672C25.4412 17.5509 27.0665 17.8692 28.6863 17.8692C30.3062 17.8692 31.9315 17.5509 32.8195 16.8672ZM32.8195 20.1679V22.2898C32.8195 23.1209 30.9682 23.7988 28.6863 23.7988C26.4045 23.7988 24.5532 23.1209 24.5532 22.2898V20.1679C25.4412 20.8517 27.0665 21.17 28.6863 21.17C30.3062 21.17 31.9315 20.8517 32.8195 20.1679Z" fill="url(#paint0_linear_414_8000)"/>
<ellipse cx="28.6863" cy="14.7288" rx="4.13313" ry="1.49252" fill="url(#paint1_linear_414_8000)"/>
<ellipse cx="28.6869" cy="14.6155" rx="1.60733" ry="0.459236" fill="#2D2D3C"/>
<rect x="11.1245" y="17.3223" width="17.5524" height="18.1092" rx="3.67067" fill="url(#paint2_linear_414_8000)" fill-opacity="0.7"/>
<ellipse cx="25.8069" cy="20.2809" rx="0.734134" ry="0.757424" fill="#DF6E62"/>
<path d="M25.808 26.2311C25.808 29.6908 23.091 32.4856 19.7514 32.4856C16.4118 32.4856 13.6948 29.6908 13.6948 26.2311C13.6948 22.7713 16.4118 19.9765 19.7514 19.9765C23.091 19.9765 25.808 22.7713 25.808 26.2311Z" fill="#D9D9D9" stroke="#5D64CC" stroke-width="0.367067"/>
<path d="M25.4401 26.2313C25.4401 29.4819 22.8874 32.1071 19.7505 32.1071C16.6136 32.1071 14.061 29.4819 14.061 26.2313C14.061 22.9807 16.6136 20.3554 19.7505 20.3554C22.8874 20.3554 25.4401 22.9807 25.4401 26.2313Z" fill="#464755" stroke="black" stroke-width="0.367067"/>
<path d="M24.3397 26.2318C24.3397 28.855 22.2801 30.9716 19.7514 30.9716C17.2227 30.9716 15.163 28.855 15.163 26.2318C15.163 23.6087 17.2227 21.4921 19.7514 21.4921C22.2801 21.4921 24.3397 23.6087 24.3397 26.2318Z" fill="#07070E" stroke="black" stroke-width="0.367067"/>
<path d="M23.2384 26.2305C23.2384 28.2261 21.6718 29.8341 19.7512 29.8341C17.8307 29.8341 16.2641 28.2261 16.2641 26.2305C16.2641 24.2348 17.8307 22.6269 19.7512 22.6269C21.6718 22.6269 23.2384 24.2348 23.2384 26.2305Z" fill="url(#paint3_radial_414_8000)" stroke="black" stroke-width="0.367067"/>
<ellipse cx="19.8429" cy="26.233" rx="2.56947" ry="2.65098" fill="#3F3F6A"/>
<path d="M19.7512 30.0176C21.7785 30.0176 23.4219 28.322 23.4219 26.2305C23.4219 26.2305 21.5866 27.1772 19.7512 27.1772C17.9159 27.1772 16.0806 26.2305 16.0806 26.2305C16.0806 28.322 17.724 30.0176 19.7512 30.0176Z" fill="url(#paint4_linear_414_8000)" fill-opacity="0.5"/>
<g style="mix-blend-mode:color-dodge">
<path d="M22.3206 25.2841C22.3206 26.4345 21.1702 25.0947 19.7511 25.0947C18.332 25.0947 17.1816 26.4345 17.1816 25.2841C17.1816 24.1337 18.332 23.2012 19.7511 23.2012C21.1702 23.2012 22.3206 24.1337 22.3206 25.2841Z" fill="url(#paint5_radial_414_8000)"/>
</g>
<g filter="url(#filter0_f_414_8000)">
<ellipse cx="0.372274" cy="0.560392" rx="0.372274" ry="0.560392" transform="matrix(0.735674 -0.677336 0.654189 0.756331 17.6411 24.4629)" fill="white"/>
</g>
<ellipse cx="19.7512" cy="26.232" rx="0.734134" ry="0.757424" fill="#626286"/>
<ellipse cx="20.8529" cy="26.99" rx="0.367067" ry="0.378712" fill="white"/>
<path d="M20.1184 25.8142C20.1184 26.0234 19.9541 25.7382 19.7513 25.7382C19.5486 25.7382 19.3843 26.0234 19.3843 25.8142C19.3843 25.6627 19.5486 25.5488 19.7513 25.5488C19.9541 25.5488 20.1184 25.6627 20.1184 25.8142Z" fill="white"/>
<rect x="0.769285" y="0.528074" width="45.2579" height="45.2579" rx="5.75314" stroke="#454954" stroke-width="0.767085"/>
<defs>
<filter id="filter0_f_414_8000" x="17.4567" y="23.7736" width="1.64966" height="1.72046" filterUnits="userSpaceOnUse" color-interpolation-filters="sRGB">
<feFlood flood-opacity="0" result="BackgroundImageFix"/>
<feBlend mode="normal" in="SourceGraphic" in2="BackgroundImageFix" result="shape"/>
<feGaussianBlur stdDeviation="0.183534" result="effect1_foregroundBlur_414_8000"/>
</filter>
<linearGradient id="paint0_linear_414_8000" x1="24.5532" y1="18.3975" x2="32.8195" y2="18.3975" gradientUnits="userSpaceOnUse">
<stop stop-color="#6C79F9"/>
<stop offset="1" stop-color="#AA7BF6"/>
</linearGradient>
<linearGradient id="paint1_linear_414_8000" x1="24.5532" y1="14.6949" x2="32.8195" y2="14.6949" gradientUnits="userSpaceOnUse">
<stop stop-color="#A5ADFF"/>
<stop offset="1" stop-color="#BB92FF"/>
</linearGradient>
<linearGradient id="paint2_linear_414_8000" x1="19.9007" y1="17.3223" x2="19.9007" y2="38.5809" gradientUnits="userSpaceOnUse">
<stop stop-color="#C9D8ED" stop-opacity="0.6"/>
<stop offset="1" stop-color="#546175"/>
</linearGradient>
<radialGradient id="paint3_radial_414_8000" cx="0" cy="0" r="1" gradientUnits="userSpaceOnUse" gradientTransform="translate(19.7512 24.6525) rotate(90) scale(5.36509 5.20012)">
<stop stop-color="#CAE6FF"/>
<stop offset="0.447917" stop-color="#7CB1FF"/>
<stop offset="0.869792" stop-color="#4D2270"/>
</radialGradient>
<linearGradient id="paint4_linear_414_8000" x1="19.7512" y1="26.9879" x2="19.7512" y2="28.8815" gradientUnits="userSpaceOnUse">
<stop/>
<stop offset="1" stop-opacity="0"/>
</linearGradient>
<radialGradient id="paint5_radial_414_8000" cx="0" cy="0" r="1" gradientUnits="userSpaceOnUse" gradientTransform="translate(19.7511 23.5799) rotate(90) scale(2.46163 2.29453)">
<stop offset="0.247487" stop-color="white" stop-opacity="0.54"/>
<stop offset="0.736521" stop-color="white" stop-opacity="0"/>
</radialGradient>
</defs>
</svg>
