<svg width="27" height="42" viewBox="0 0 27 42" fill="none" xmlns="http://www.w3.org/2000/svg">
<g clip-path="url(#clip0_976_7943)">
<path d="M6.7506 42.0004C10.4759 42.0004 13.4993 38.8644 13.4993 35.0004V28.0004H6.7506C3.02535 28.0004 0.00195312 31.1364 0.00195312 35.0004C0.00195312 38.8644 3.02535 42.0004 6.7506 42.0004Z" fill="#0ACF83"/>
<path d="M0.00195312 20.9996C0.00195312 17.1356 3.02535 13.9996 6.7506 13.9996H13.4993V27.9996H6.7506C3.02535 27.9996 0.00195312 24.8636 0.00195312 20.9996Z" fill="#A259FF"/>
<path d="M0.00390625 7C0.00390625 3.136 3.0273 0 6.75256 0H13.5012V14H6.75256C3.0273 14 0.00390625 10.864 0.00390625 7Z" fill="#F24E1E"/>
<path d="M13.5 0H20.2487C23.9739 0 26.9973 3.136 26.9973 7C26.9973 10.864 23.9739 14 20.2487 14H13.5V0Z" fill="#FF7262"/>
<path d="M26.9973 20.9996C26.9973 24.8636 23.9739 27.9996 20.2487 27.9996C16.5234 27.9996 13.5 24.8636 13.5 20.9996C13.5 17.1356 16.5234 13.9996 20.2487 13.9996C23.9739 13.9996 26.9973 17.1356 26.9973 20.9996Z" fill="#1ABCFE"/>
</g>
<defs>
<clipPath id="clip0_976_7943">
<rect width="27" height="42" fill="white"/>
</clipPath>
</defs>
</svg>
