<svg width="405" height="342" viewBox="0 0 405 342" fill="none" xmlns="http://www.w3.org/2000/svg">
<g clip-path="url(#clip0_518_4557)">
<rect width="405" height="342" rx="20" fill="#131316" fill-opacity="0.6"/>
<rect x="20" y="20" width="180" height="200" rx="8.4507" fill="black"/>
<path d="M140.724 86.0886C138.559 96.1951 135.96 117.852 142.89 123.627L147.582 127.959C143.793 127.417 136.654 125.98 135.47 124.225C135.726 127.761 136.276 141.61 140.724 141.314C138.438 141.554 133.575 140.303 132.42 133.373C132.179 136.381 132.058 142.83 133.503 144.562C135.309 146.728 126.283 139.509 125.922 135.899C125.633 133.012 127.005 98.8421 127.727 82.1182L140.724 86.0886Z" fill="#140610"/>
<path d="M74.7274 96.1029C78.2579 106.204 85.2979 128.912 74.0005 134.684L68.5005 138.184C74.4311 137.664 81.7018 136.144 83.2673 134.437C82.8385 138.288 81.8372 151.586 74.7274 151.296C78.4553 151.536 86.3819 150.286 88.2648 143.359C88.658 146.366 88.8554 152.811 86.4996 154.542C83.5548 156.707 98.2693 149.492 98.8577 145.885C99.3285 142.999 97.0925 108.849 95.9157 92.1348L74.7274 96.1029Z" fill="#140610"/>
<path d="M66.797 157.819C61.3106 141.937 81.5958 136.523 92.4243 135.801C113.358 120.28 145.205 149.532 149.455 157.82C156.674 171.899 139.349 192.111 127.076 200.774C114.804 209.437 73.655 177.671 66.797 157.819Z" fill="#202F72"/>
<path d="M93.4316 161.257C94.4704 158.348 91.8083 125.038 90.5098 113.159C93.6263 117.523 115.291 132.044 125.571 134.347C125.463 142.105 125.831 158.348 128.168 161.257C131.09 164.893 122.649 180.166 118.429 184.166C114.209 188.167 92.133 164.893 93.4316 161.257Z" fill="url(#paint0_linear_518_4557)"/>
<mask id="mask0_518_4557" style="mask-type:alpha" maskUnits="userSpaceOnUse" x="89" y="113" width="40" height="72">
<path d="M93.3648 161.376C94.4056 158.482 91.0881 124.979 89.7871 113.16C92.9095 117.502 115.265 132.311 125.564 134.603C125.456 142.321 125.825 158.482 128.166 161.376C131.094 164.994 122.637 180.19 118.409 184.17C114.181 188.15 92.0638 164.994 93.3648 161.376Z" fill="#EB8682"/>
</mask>
<g mask="url(#mask0_518_4557)">
<path d="M131.656 151.517C114.331 163.067 99.8929 138.427 89.0645 113.16L148.26 145.019C144.65 146.584 135.684 148.832 131.656 151.517Z" fill="url(#paint1_linear_518_4557)"/>
</g>
<path d="M82.0015 115.184C84.3286 99.9471 87.7968 93.2233 87.7968 93.2233C87.7968 93.2233 83.8302 89.86 80.3361 93.1171C76.842 96.3742 78.1141 116.233 77.0163 120.414C75.5013 126.184 73.2204 126.995 69.5014 129.684C74.5014 127.684 80.374 125.841 82.0015 115.184Z" fill="url(#paint2_linear_518_4557)"/>
<path d="M78.3587 106.843C77.6011 91.4484 79.659 84.1681 79.659 84.1681C79.659 84.1681 75.1015 81.6632 72.327 85.5516C69.5525 89.44 75.2427 103.867 75.0005 108.183C74.6663 114.139 74.1086 119.306 71.0004 122.683C75.5013 119.726 78.8886 117.611 78.3587 106.843Z" fill="url(#paint3_linear_518_4557)"/>
<path d="M141.68 46.858C139.881 44.895 130.18 44.7384 125.555 44.9055C123.192 47.4066 118.416 53.4208 118.216 57.4688C117.967 62.5288 133.081 57.8144 140.248 58.6822C145.971 59.3752 144.58 101.741 144.217 112.818L144.215 112.877C145.286 108.037 148.151 96.3968 148.826 92.8072C149.847 87.3804 154.666 71.6027 153.265 68.1608C151.864 64.7188 143.928 49.3117 141.68 46.858Z" fill="#140610"/>
<path d="M98.0562 94.7537C104.692 87.9946 110.758 75.931 112.962 70.744C119.717 73.0164 131.927 74.4948 126.722 62.2299C120.216 46.8987 82.2376 51.8329 70.501 61.6829C61.1116 69.5628 74.423 100.248 80.5119 108.015L94.501 118.683C95.0329 117.293 96.3388 116.143 95.9301 112.312C95.4192 107.523 89.7614 103.202 98.0562 94.7537Z" fill="#140610"/>
<path d="M145.371 88.9454C146.178 84.6802 144.971 67.4314 143.25 58.6182C130.25 42.8642 111.001 54.7133 101.033 58.96C93.0585 62.3574 90.6051 83.027 90.3752 92.9372C88.9561 92.6441 84.8797 91.2288 79.9836 91.6789C74.5003 92.1829 75.8126 92.2214 74 98.1829C72.1874 104.144 80.778 112.136 83.2541 115.708C85.235 118.566 91.0436 119.439 93.7003 119.518C94.6671 122.544 93.8043 120.522 96 125.183C99.3646 132.325 111.42 139.098 118.5 140.683C125.58 142.267 130.659 144.318 136.347 133.372C137.848 130.485 140.769 128.261 142.122 123.988C142.859 121.661 145.789 110.548 146.454 101.278C146.848 95.7802 144.995 90.9303 145.371 88.9454Z" fill="url(#paint4_linear_518_4557)"/>
<g filter="url(#filter0_f_518_4557)">
<ellipse cx="132.817" cy="102.769" rx="7.05584" ry="10.6185" transform="rotate(-24.4392 132.817 102.769)" fill="#E36A6F" fill-opacity="0.3"/>
</g>
<path d="M118.57 90.5275L122.528 94.4723C122.479 97.3695 119.708 100.872 115.369 100.726C111.031 100.58 107.41 96.9035 106.141 95.0832C108.441 92.4121 115.386 90.9331 118.57 90.5275Z" fill="#D9D9D9" stroke="black" stroke-width="0.721897" stroke-linecap="round"/>
<mask id="mask1_518_4557" style="mask-type:alpha" maskUnits="userSpaceOnUse" x="105" y="90" width="18" height="12">
<path d="M118.57 90.5285L122.528 94.4733C122.479 97.3705 119.708 100.873 115.369 100.727C111.031 100.581 107.41 96.9044 106.141 95.0841C108.441 92.4131 115.386 90.9341 118.57 90.5285Z" fill="#D9D9D9" stroke="black" stroke-width="0.721897" stroke-linecap="round"/>
</mask>
<g mask="url(#mask1_518_4557)">
<path d="M119.001 99.6841C115.266 99.3089 113.603 93.0517 113.868 90.418C114.084 88.2632 118.825 88.0139 121.698 88.3026C123.997 88.5335 124.569 93.4278 124.568 95.8462C123.849 96.9832 122.737 100.059 119.001 99.6841Z" fill="url(#paint5_radial_518_4557)"/>
</g>
<ellipse cx="115.362" cy="93.3431" rx="1.44379" ry="0.721897" transform="rotate(5.73654 115.362 93.3431)" fill="white"/>
<path d="M141.876 100.076C145.259 98.8647 145.336 95.4261 145.731 93.3995C140.978 89.9928 136.391 91.1211 133.938 95.744C134.945 98.4575 138.493 101.287 141.876 100.076Z" fill="#D9D9D9" stroke="black" stroke-width="0.721897" stroke-linecap="round"/>
<mask id="mask2_518_4557" style="mask-type:alpha" maskUnits="userSpaceOnUse" x="132" y="91" width="15" height="11">
<path d="M134.375 92.1912L133.066 94.367C134.073 97.0805 136.934 102.205 140.316 100.993C143.699 99.7823 145.334 95.4264 145.729 93.3999C143.017 91.4563 137.03 91.7843 134.375 92.1912Z" fill="#D9D9D9" stroke="black" stroke-width="0.721897" stroke-linecap="round"/>
</mask>
<g mask="url(#mask2_518_4557)">
<path d="M147.076 99.7606C149.905 98.4828 148.433 93.3388 147.343 90.9265C146.451 88.9528 142.618 89.8921 140.442 90.875C138.701 91.6614 138.918 96.4274 140.694 98.6826C142.47 100.938 144.247 101.038 147.076 99.7606Z" fill="url(#paint6_radial_518_4557)"/>
</g>
<path d="M122.201 84.4951L125.742 82.2796L114.633 80.9345L107.588 82.0646L100.507 86.4957C102.378 86.0612 106.565 85.1138 108.348 84.8009C110.131 84.4879 118.326 84.4666 122.201 84.4951Z" fill="#101010"/>
<path d="M136.02 84.6967L134.299 82.373L141.096 83.1959L145.072 85.2639L145.831 87.7688C143.358 86.2034 138.932 85.4964 136.02 84.6967Z" fill="#101010"/>
<path d="M103.002 84.6834C109.637 77.9243 122.753 57.921 124.957 52.734C131.712 55.0064 135.98 55.983 130.775 43.718C124.269 28.3869 85.7381 43.8334 74.0015 53.6833C64.6121 61.5633 73.8295 83.6039 79.9184 91.3705L90.9807 107.655C91.8879 112.983 92.816 117.288 94.2292 117.401C97.1225 117.632 94.9511 109.821 96.3949 106.211C98.1834 101.74 94.7069 93.1322 103.002 84.6834Z" fill="url(#paint7_linear_518_4557)"/>
<path d="M135.265 121.823C128.886 122.241 120.462 121.64 116.499 121.1C118.046 123.743 123.644 125.37 128.807 125.603C132.937 125.79 134.782 123.189 135.265 121.823Z" fill="#E79795"/>
<path d="M135.627 121.822C130.256 121.908 120.468 122.543 116.499 121.1" stroke="black" stroke-width="0.721897" stroke-linecap="round"/>
<path d="M44.4193 182.823C45.2856 180.513 68.9638 164.084 85.5674 157.827L104.337 179.478C108.307 182.968 120.579 193.916 127.076 191.029C130.254 189.617 135.138 169.733 137.905 165.762C146.447 169.011 158.84 178.275 166.059 180.296C173.278 182.317 180.566 211.097 180.566 220H39.4355C39.4355 212.421 43.553 185.133 44.4193 182.823Z" fill="url(#paint8_linear_518_4557)"/>
<path d="M140.82 59.8417C141.341 55.5418 136.773 51.2315 134.423 49.6139C138.527 45.7479 141.818 51.6001 145.369 55.3024C146.874 56.8706 148.99 74.2283 150.423 85.6313C151.697 95.764 158.005 96.723 156.158 98.324C156.709 97.597 149.381 98.3239 146.501 87.6831C144.105 78.8278 140.584 61.7948 140.82 59.8417Z" fill="#140610"/>
<path d="M128.501 53.1829C129.022 48.8829 127.851 45.8005 125.502 44.1829C129.606 40.3168 133.282 44.556 136.833 48.2582C138.337 49.8265 133.474 65.8178 134.907 77.2209C136.181 87.3536 145.579 88.3918 143.732 89.9929C144.283 89.2658 134.881 89.3237 132.001 78.6829C129.605 69.8276 128.265 55.136 128.501 53.1829Z" fill="url(#paint9_linear_518_4557)"/>
<path d="M135.39 53.0985C132.478 49.1792 130.44 45.8078 128.072 44.3496C132.112 41.0051 145.452 46.1084 149.05 49.4195C150.574 50.8221 149.264 62.4492 147.99 72.5975C143.517 85.3437 154.125 92.565 152.304 93.9478C152.843 93.3157 139.396 87.4617 136.367 78.0513C133.847 70.2199 136.481 54.5678 135.39 53.0985Z" fill="url(#paint10_linear_518_4557)"/>
<path d="M84.742 99.59C84.9939 99.9113 86.5341 103.806 87.2727 105.714C87.8287 107.137 86.6095 108.178 85.8929 108.092C85.1762 108.005 84.6443 109.395 84.8725 110.513C85.1006 111.632 85.8719 114.27 84.3518 114.813C82.8317 115.356 76.9791 106.649 76.0777 105.085C75.1763 103.522 75.6969 99.2218 76.6739 97.1586C77.6509 95.0954 78.9975 95.9857 80.5176 95.4426C82.0377 94.8995 84.427 99.1882 84.742 99.59Z" fill="#D36266"/>
<path d="M86.772 103.836C85.6713 100.915 82.8076 95.1385 80.1582 95.3994C77.5088 95.6603 76.463 96.8906 76.2713 97.4732" stroke="#793033" stroke-width="0.721897" stroke-linecap="round"/>
<ellipse cx="140.603" cy="93.4493" rx="1.02531" ry="0.721897" transform="rotate(6.9042 140.603 93.4493)" fill="white"/>
<path d="M129.127 60.6914C126.32 47.8441 129.474 45.6261 131.834 46.1542C129.186 44.0163 126.602 43.4296 124.333 47.1543C122.065 50.879 126.419 63.4939 126.828 67.6839C127.885 78.5242 118.502 85.6561 112 91.0705C121.75 88.5437 132.636 76.7505 129.127 60.6914Z" fill="#2E0822"/>
<path d="M120.875 62.7897C123.495 47.5745 126.206 42.424 121.812 42.347C127.191 40.9277 127.707 40.4017 130.703 44.5995C133.699 48.7972 126.951 67.6103 125 71.5904C123.824 73.9905 124.827 86.8059 128.291 90.5351C121.119 89.2919 119.042 73.4316 120.875 62.7897Z" fill="url(#paint11_linear_518_4557)"/>
<path d="M116.059 75.3238C120.523 60.5709 120.715 54.9191 123.925 56.4341C120.628 53.206 120.475 52.5425 116.554 55.2714C112.634 58.0003 109.652 77.507 109.398 81.8223C109.246 84.4244 100.564 92.0483 96.501 94.1833C102.206 95.6419 112.938 85.6423 116.059 75.3238Z" fill="url(#paint12_linear_518_4557)"/>
<path d="M133.463 92.5859C133.463 96.9173 135.342 102.078 138.501 104.184C141.501 106.184 140.107 109.852 139.001 110.684C137.896 111.516 134.501 114.184 134.501 114.184" stroke="black" stroke-width="0.721897" stroke-linecap="round"/>
<ellipse cx="136.825" cy="105.948" rx="0.784459" ry="0.721897" transform="rotate(3.19743 136.825 105.948)" fill="#FFDCD6"/>
<path d="M132.742 113.16C132.02 112.8 130.576 112.438 128.41 113.16" stroke="black" stroke-width="0.721897" stroke-linecap="round"/>
<path d="M127.699 96.2116C126.726 91.79 120.789 90.2182 109.788 91.5747C104.077 92.279 103.923 101.977 111.287 105.075C119.755 108.637 129.77 105.628 127.699 96.2116ZM127.699 96.2116C130.569 94.0044 132.593 94.6205 134.001 95.1838M134.001 95.1838C135.879 92.8364 141.225 88.2068 146.288 91.5748C151.509 95.048 147.288 103.075 142.288 103.075C138.612 103.075 135.395 102.376 134.001 95.1838Z" stroke="#28111B" stroke-width="1.40845"/>
<rect x="220.352" y="20.3521" width="121.197" height="18.9296" rx="9.46479" fill="#2E075F"/>
<rect x="220.352" y="20.3521" width="121.197" height="18.9296" rx="9.46479" stroke="#944AF2" stroke-width="0.704225"/>
<path d="M233.771 27.7588C233.701 27.085 233.168 26.6924 232.307 26.6924C231.416 26.6924 230.918 27.1025 230.912 27.665C230.906 28.2803 231.539 28.5557 232.271 28.7197L233.033 28.9072C234.486 29.2412 235.57 29.9795 235.576 31.3916C235.57 32.9443 234.363 33.9404 232.295 33.9346C230.244 33.9404 228.938 32.9912 228.885 31.1689H230.596C230.654 32.0244 231.334 32.458 232.271 32.458C233.197 32.458 233.795 32.0244 233.795 31.3916C233.795 30.8115 233.268 30.542 232.342 30.3135L231.416 30.0908C229.986 29.7393 229.107 29.0244 229.107 27.7822C229.102 26.2412 230.461 25.2158 232.318 25.2158C234.199 25.2158 235.436 26.2588 235.459 27.7588H233.771ZM239.549 33.9463C237.627 33.9404 236.426 32.6221 236.432 30.6533C236.426 28.6904 237.627 27.3721 239.549 27.3721C241.477 27.3721 242.672 28.6904 242.678 30.6533C242.672 32.6221 241.477 33.9404 239.549 33.9463ZM238.189 30.6533C238.189 31.7666 238.652 32.5928 239.561 32.5986C240.445 32.5928 240.914 31.7666 240.908 30.6533C240.914 29.5342 240.445 28.6963 239.561 28.6963C238.652 28.6963 238.189 29.5342 238.189 30.6533ZM247.154 27.4541V28.7549H245.889V33.8174H244.154V28.7549H243.252V27.4541H244.154V26.9736C244.154 25.6318 244.963 24.9346 246.24 24.9346C246.633 24.9346 246.967 24.9697 247.271 25.04V26.3525C247.02 26.3291 246.838 26.3232 246.744 26.3174C246.188 26.3232 245.889 26.5342 245.889 27.0674V27.4541H247.154ZM251.525 27.4541V28.7549H250.33V31.8604C250.324 32.3701 250.576 32.4932 250.928 32.5049C251.104 32.5049 251.408 32.4873 251.619 32.4697V33.8408C251.432 33.8701 251.121 33.9053 250.693 33.8994C249.439 33.9053 248.584 33.3428 248.596 32.1064V28.7549H247.717V27.4541H248.596V25.9307H250.33V27.4541H251.525ZM253.869 33.8174L252.135 27.4541H253.893L254.889 31.7549H254.947L255.99 27.4541H257.713L258.768 31.7314H258.826L259.811 27.4541H261.568L259.822 33.8174H257.994L256.893 29.7744H256.811L255.709 33.8174H253.869ZM262.143 32.0361C262.148 30.6182 263.285 30.1553 264.51 30.0791C264.967 30.0498 265.822 30.0088 266.092 29.9971V29.4814C266.086 28.9482 265.723 28.6436 265.072 28.6377C264.48 28.6436 264.111 28.9072 264.018 29.3408H262.365C262.471 28.2393 263.432 27.3721 265.119 27.3721C266.508 27.3721 267.82 27.9932 267.814 29.5283V33.8174H266.174V32.9385H266.127C265.816 33.5244 265.207 33.9404 264.264 33.9346C263.045 33.9404 262.148 33.2959 262.143 32.0361ZM263.807 31.9893C263.807 32.4756 264.199 32.7334 264.756 32.7393C265.547 32.7334 266.098 32.2178 266.092 31.5439V31.0811C265.828 31.0928 265.084 31.1338 264.791 31.1572C264.188 31.21 263.807 31.4971 263.807 31.9893ZM269.139 33.8174V27.4541H270.814V28.5557H270.885C271.113 27.7764 271.705 27.3604 272.42 27.3604C272.596 27.3604 272.818 27.3838 272.971 27.4189V28.9658C272.807 28.9131 272.473 28.8721 272.232 28.8721C271.447 28.8721 270.867 29.417 270.873 30.1963V33.8174H269.139ZM276.498 33.9463C274.547 33.9404 273.352 32.6807 273.357 30.665C273.352 28.7021 274.564 27.3721 276.428 27.3721C278.098 27.3721 279.416 28.4268 279.416 30.5947V31.0869H275.068C275.068 32.0479 275.637 32.6396 276.533 32.6455C277.125 32.6396 277.547 32.3818 277.717 32.001H279.369C279.123 33.1787 278.068 33.9404 276.498 33.9463ZM275.068 29.9971H277.775C277.77 29.2236 277.236 28.667 276.463 28.6729C275.666 28.667 275.104 29.2646 275.068 29.9971ZM283.307 33.8174V25.333H289.002V26.7861H285.064V28.8486H288.709V30.3018H285.064V32.3643H289.014V33.8174H283.307ZM292.072 30.1377V33.8174H290.338V27.4541H291.99V28.5674H292.061C292.348 27.835 293.027 27.3721 293.971 27.3721C295.301 27.3721 296.168 28.2803 296.162 29.7627V33.8174H294.439V30.0674C294.434 29.2822 294.012 28.8135 293.291 28.8135C292.57 28.8135 292.072 29.2998 292.072 30.1377ZM300.369 36.3369C298.611 36.3369 297.527 35.5459 297.428 34.3447H299.139C299.232 34.8545 299.713 35.083 300.404 35.083C301.207 35.083 301.746 34.7373 301.752 33.8525V32.6924H301.67C301.441 33.208 300.879 33.7295 299.854 33.7236C298.418 33.7295 297.264 32.7158 297.264 30.5947C297.264 28.4443 298.447 27.3721 299.854 27.3721C300.92 27.3721 301.436 28.0049 301.67 28.5205H301.74V27.4541H303.463V33.8877C303.457 35.5107 302.18 36.3369 300.369 36.3369ZM299.045 30.6182C299.039 31.7197 299.514 32.417 300.393 32.4229C301.26 32.417 301.752 31.749 301.752 30.6182C301.752 29.4873 301.266 28.7549 300.393 28.7549C299.508 28.7549 299.039 29.5225 299.045 30.6182ZM304.811 33.8174V27.4541H306.545V33.8174H304.811ZM304.729 25.7432C304.729 25.251 305.156 24.8584 305.678 24.8525C306.193 24.8584 306.621 25.251 306.615 25.7432C306.621 26.2236 306.193 26.6221 305.678 26.6221C305.156 26.6221 304.729 26.2236 304.729 25.7432ZM309.627 30.1377V33.8174H307.893V27.4541H309.545V28.5674H309.615C309.902 27.835 310.582 27.3721 311.525 27.3721C312.855 27.3721 313.723 28.2803 313.717 29.7627V33.8174H311.994V30.0674C311.988 29.2822 311.566 28.8135 310.846 28.8135C310.125 28.8135 309.627 29.2998 309.627 30.1377ZM317.947 33.9463C315.996 33.9404 314.801 32.6807 314.807 30.665C314.801 28.7021 316.014 27.3721 317.877 27.3721C319.547 27.3721 320.865 28.4268 320.865 30.5947V31.0869H316.518C316.518 32.0479 317.086 32.6396 317.982 32.6455C318.574 32.6396 318.996 32.3818 319.166 32.001H320.818C320.572 33.1787 319.518 33.9404 317.947 33.9463ZM316.518 29.9971H319.225C319.219 29.2236 318.686 28.667 317.912 28.6729C317.115 28.667 316.553 29.2646 316.518 29.9971ZM324.838 33.9463C322.887 33.9404 321.691 32.6807 321.697 30.665C321.691 28.7021 322.904 27.3721 324.768 27.3721C326.438 27.3721 327.756 28.4268 327.756 30.5947V31.0869H323.408C323.408 32.0479 323.977 32.6396 324.873 32.6455C325.465 32.6396 325.887 32.3818 326.057 32.001H327.709C327.463 33.1787 326.408 33.9404 324.838 33.9463ZM323.408 29.9971H326.115C326.109 29.2236 325.576 28.667 324.803 28.6729C324.006 28.667 323.443 29.2646 323.408 29.9971ZM328.846 33.8174V27.4541H330.521V28.5557H330.592C330.82 27.7764 331.412 27.3604 332.127 27.3604C332.303 27.3604 332.525 27.3838 332.678 27.4189V28.9658C332.514 28.9131 332.18 28.8721 331.939 28.8721C331.154 28.8721 330.574 29.417 330.58 30.1963V33.8174H328.846Z" fill="#ECECF8"/>
<path d="M231.953 56.7041C231.953 62.3291 228.273 66.1729 221.898 67.8135L220.75 65.4932C225.555 64.2627 228.273 61.8955 228.742 59.0244H221.992V56.7041H231.953ZM224.266 76.5322V68.2588H238.492V76.5322H224.266ZM227.242 74.1885H235.562V70.6025H227.242V74.1885ZM235.492 67.3916V55.4854H238.492V67.3916H235.492ZM258.297 55.4619V60.4775H261.18V62.915H258.297V67.8369H255.297V55.4619H258.297ZM241.234 65.8916C245.934 64.6494 248.617 62.2119 249.086 59.2588H242.242V56.8682H252.344C252.355 62.5518 248.781 66.5361 242.43 68.3057L241.234 65.8916ZM244.117 72.4541C244.094 69.7822 247 68.0947 251.336 68.0947C255.684 68.0947 258.52 69.7822 258.531 72.4541C258.52 75.1494 255.684 76.8135 251.336 76.8135C247 76.8135 244.094 75.1494 244.117 72.4541ZM247.07 72.4541C247.059 73.7432 248.652 74.4814 251.336 74.4697C253.984 74.4814 255.578 73.7432 255.578 72.4541C255.578 71.1416 253.984 70.415 251.336 70.415C248.652 70.415 247.059 71.1416 247.07 72.4541ZM268.188 56.0947C271.434 56.083 273.871 58.1221 273.883 60.9697C273.871 63.7939 271.434 65.8096 268.188 65.8213C264.895 65.8096 262.445 63.7939 262.445 60.9697C262.445 58.1221 264.895 56.083 268.188 56.0947ZM265.352 60.9697C265.328 62.4932 266.535 63.3955 268.188 63.4072C269.805 63.3955 270.988 62.4932 271 60.9697C270.988 59.4346 269.805 58.5322 268.188 58.5322C266.547 58.5322 265.328 59.4346 265.352 60.9697ZM265.656 69.3369V67.04H279.977V72.8291H268.633V74.2119H280.562V76.5557H265.703V70.6494H277V69.3369H265.656ZM276.977 66.1494V55.4619H279.977V66.1494H276.977Z" fill="#ECECF8"/>
<path d="M231.75 95.415V100.415H227.891V101.774H233.391V103.384H220.422V101.774H225.891V100.415H222.031V95.415H231.75ZM221.859 105.993V104.431H231.812V109.071H229.828V105.993H221.859ZM223.984 98.8525H229.797V96.9619H223.984V98.8525ZM247.266 105.899V107.493H234.25V105.899H237.484V103.196H235.328V101.587H237.234V97.5869H235.266V95.9932H246.172V97.5869H244.172V101.587H246.109V103.196H243.969V105.899H247.266ZM239.234 101.587H242.203V97.5869H239.234V101.587ZM239.484 105.899H241.969V103.196H239.484V105.899Z" fill="#ECECF8" fill-opacity="0.5"/>
<path d="M220.834 127.451V117.553H224.717C226.966 117.553 228.258 118.817 228.258 120.779C228.258 122.133 227.636 123.117 226.508 123.603L228.613 127.451H226.344L224.45 123.938H222.885V127.451H220.834ZM222.885 122.27H224.334C225.551 122.27 226.146 121.771 226.139 120.779C226.146 119.781 225.551 119.241 224.334 119.234H222.885V122.27ZM234.396 124.293V120.027H236.42V127.451H234.479V126.111H234.396C234.062 126.973 233.262 127.547 232.141 127.547C230.657 127.547 229.639 126.494 229.639 124.758V120.027H231.662V124.402C231.662 125.284 232.168 125.831 232.961 125.838C233.699 125.831 234.396 125.305 234.396 124.293ZM240.016 123.158V127.451H237.992V120.027H239.92V121.326H240.002C240.337 120.472 241.13 119.932 242.23 119.932C243.782 119.932 244.794 120.991 244.787 122.721V127.451H242.777V123.076C242.771 122.16 242.278 121.613 241.438 121.613C240.597 121.613 240.016 122.181 240.016 123.158ZM247.822 127.451L245.799 120.027H247.85L249.012 125.045H249.08L250.297 120.027H252.307L253.537 125.018H253.605L254.754 120.027H256.805L254.768 127.451H252.635L251.35 122.734H251.254L249.969 127.451H247.822ZM257.475 125.373C257.481 123.719 258.808 123.179 260.236 123.09C260.77 123.056 261.768 123.008 262.082 122.994V122.393C262.075 121.771 261.651 121.415 260.893 121.408C260.202 121.415 259.771 121.723 259.662 122.229H257.734C257.857 120.943 258.979 119.932 260.947 119.932C262.567 119.932 264.099 120.656 264.092 122.447V127.451H262.178V126.426H262.123C261.761 127.109 261.05 127.595 259.949 127.588C258.527 127.595 257.481 126.843 257.475 125.373ZM259.416 125.318C259.416 125.886 259.874 126.187 260.523 126.193C261.446 126.187 262.089 125.585 262.082 124.799V124.259C261.774 124.272 260.906 124.32 260.564 124.348C259.86 124.409 259.416 124.744 259.416 125.318ZM266.553 130.24C266.156 130.233 265.787 130.227 265.527 130.199V128.627C265.787 128.647 266.095 128.654 266.348 128.654C266.751 128.654 267.072 128.613 267.318 127.971L267.441 127.656L264.775 120.027H266.895L268.453 125.496H268.535L270.107 120.027H272.254L269.355 128.271C268.932 129.468 268.118 130.233 266.553 130.24ZM284.189 121.846V123.145H272.801V121.846H284.189ZM274.1 124.963V123.76H282.822V126.699H275.85V127.41H283.191V128.6H274.113V125.592H281.1V124.963H274.1ZM274.195 117.676V116.486H282.809V119.412H275.959V120.082H283.027V121.258H274.223V118.305H281.059V117.676H274.195ZM299.488 122.68V124.047H288.113V122.68H292.926V121.914H289.535V116.568H298.162V117.908H291.285V118.605H297.875V119.863H291.285V120.574H298.271V121.914H294.676V122.68H299.488ZM289.439 126.658C289.439 125.346 291.012 124.607 293.801 124.621C296.542 124.607 298.121 125.346 298.135 126.658C298.121 127.998 296.542 128.716 293.801 128.709C291.012 128.716 289.439 127.998 289.439 126.658ZM291.189 126.658C291.176 127.191 292.01 127.424 293.801 127.424C295.551 127.424 296.378 127.191 296.385 126.658C296.378 126.139 295.551 125.899 293.801 125.906C292.01 125.899 291.176 126.139 291.189 126.658ZM306.242 118.168V119.549H300.227V118.168H302.387V116.609H304.109V118.168H306.242ZM300.514 123.062C300.514 121.333 301.676 120.116 303.262 120.109C304.854 120.116 305.989 121.333 305.996 123.062C305.989 124.799 304.854 126.029 303.262 126.029C301.676 126.029 300.514 124.799 300.514 123.062ZM302.045 123.062C302.045 124.013 302.537 124.553 303.262 124.553C303.959 124.553 304.458 124.013 304.465 123.062C304.458 122.126 303.959 121.559 303.262 121.559C302.537 121.559 302.045 122.126 302.045 123.062ZM306.707 128.176V116.514H308.334V121.326H309.346V116.268H311V128.709H309.346V122.721H308.334V128.176H306.707ZM317.043 119.084C317.05 121.422 317.993 123.698 320.064 124.594L318.998 125.988C317.617 125.318 316.688 124.074 316.168 122.536C315.635 124.17 314.678 125.51 313.256 126.207L312.162 124.785C314.295 123.821 315.266 121.422 315.279 119.084V117.225H317.043V119.084ZM318.67 121.586V120.178H321.117V116.268H322.84V128.736H321.117V121.586H318.67ZM334.01 117.293V123.268H328.035V117.293H334.01ZM329.471 128.49V124.457H331.207V127.096H337.988V128.49H329.471ZM329.758 121.9H332.287V118.688H329.758V121.9ZM335.787 125.346V116.268H337.537V119.85H339.219V121.285H337.537V125.346H335.787ZM351.141 121.121V122.488H339.766V121.121H351.141ZM341.078 124.539V123.227H349.732V126.48H342.801V127.246H350.061V128.6H341.092V125.236H348.01V124.539H341.078ZM341.188 120.438V116.514H349.691V117.908H342.924V119.07H349.787V120.438H341.188ZM355.297 117.143C356.979 117.143 358.236 118.523 358.482 120.766H360.643V116.268H362.365V128.736H360.643V122.16H358.503C358.318 124.553 357.033 126.016 355.297 126.016C353.41 126.016 352.057 124.307 352.07 121.572C352.057 118.858 353.41 117.143 355.297 117.143ZM353.738 121.572C353.731 123.425 354.367 124.437 355.297 124.43C356.233 124.437 356.855 123.425 356.855 121.572C356.855 119.727 356.233 118.715 355.297 118.715C354.367 118.715 353.731 119.727 353.738 121.572ZM368.818 118.729C368.812 120.212 369.741 121.729 371.785 122.352L370.896 123.719C369.502 123.274 368.524 122.379 367.964 121.258C367.396 122.488 366.385 123.466 364.922 123.951L364.02 122.584C366.091 121.921 367.041 120.301 367.041 118.729V118.551H364.484V117.156H371.32V118.551H368.818V118.729ZM366.043 128.49V124.457H367.807V127.096H374.711V128.49H366.043ZM372.633 125.277V116.281H374.383V125.277H372.633ZM231.758 142.824V144.26H220.369V142.824H225.168V140.281H221.572V134.184H230.486V140.281H226.904V142.824H231.758ZM223.295 138.914H228.764V135.578H223.295V138.914ZM243.229 133.281V139.789H241.574V133.281H243.229ZM233.002 139.475V133.869H237.855V135.236H234.738V138.094C236.126 138.08 237.09 138.032 238.211 137.848L238.32 139.229C236.967 139.44 235.818 139.475 233.863 139.475H233.002ZM234.643 141.553V140.186H243.229V143.494H236.393V144.205H243.598V145.572H234.656V142.195H241.52V141.553H234.643ZM237.131 137.191V135.879H239.086V133.486H240.727V139.734H239.086V137.191H237.131ZM249.914 144.451H247.699L251.131 134.553H253.77L257.188 144.451H254.986L254.241 142.168H250.659L249.914 144.451ZM251.179 140.568H253.722L252.484 136.781H252.416L251.179 140.568ZM258.309 144.451V134.553H262.191C264.44 134.553 265.732 135.94 265.732 137.889C265.732 139.864 264.42 141.225 262.137 141.225H260.359V144.451H258.309ZM260.359 139.57H261.809C263.025 139.57 263.62 138.887 263.613 137.889C263.62 136.904 263.025 136.241 261.809 136.234H260.359V139.57ZM269.082 134.553V144.451H267.031V134.553H269.082ZM275.631 144.451H273.416L276.848 134.553H279.486L282.904 144.451H280.703L279.958 142.168H276.376L275.631 144.451ZM276.896 140.568H279.438L278.201 136.781H278.133L276.896 140.568ZM283.984 147.24V137.027H285.98V138.271H286.062C286.343 137.67 286.931 136.932 288.182 136.932C289.822 136.932 291.196 138.203 291.189 140.746C291.196 143.228 289.877 144.574 288.182 144.574C286.972 144.574 286.35 143.877 286.062 143.262H286.008V147.24H283.984ZM285.967 140.732C285.96 142.072 286.534 142.954 287.539 142.961C288.571 142.954 289.132 142.045 289.125 140.732C289.132 139.44 288.585 138.545 287.539 138.545C286.527 138.545 285.96 139.399 285.967 140.732ZM292.502 147.24V137.027H294.498V138.271H294.58C294.86 137.67 295.448 136.932 296.699 136.932C298.34 136.932 299.714 138.203 299.707 140.746C299.714 143.228 298.395 144.574 296.699 144.574C295.489 144.574 294.867 143.877 294.58 143.262H294.525V147.24H292.502ZM294.484 140.732C294.478 142.072 295.052 142.954 296.057 142.961C297.089 142.954 297.649 142.045 297.643 140.732C297.649 139.44 297.103 138.545 296.057 138.545C295.045 138.545 294.478 139.399 294.484 140.732ZM303.043 134.553V144.451H301.02V134.553H303.043ZM304.615 144.451V137.027H306.639V144.451H304.615ZM304.52 135.031C304.52 134.457 305.019 133.999 305.627 133.992C306.229 133.999 306.728 134.457 306.721 135.031C306.728 135.592 306.229 136.057 305.627 136.057C305.019 136.057 304.52 135.592 304.52 135.031ZM311.547 144.602C309.271 144.595 307.903 143.022 307.91 140.76C307.903 138.49 309.298 136.932 311.547 136.932C313.461 136.932 314.76 138.046 314.842 139.748H312.941C312.818 139.017 312.34 138.511 311.574 138.504C310.604 138.511 309.961 139.324 309.961 140.732C309.961 142.168 310.59 142.988 311.574 142.988C312.285 142.988 312.812 142.544 312.941 141.758H314.842C314.753 143.439 313.516 144.595 311.547 144.602ZM315.744 142.373C315.751 140.719 317.077 140.179 318.506 140.09C319.039 140.056 320.037 140.008 320.352 139.994V139.393C320.345 138.771 319.921 138.415 319.162 138.408C318.472 138.415 318.041 138.723 317.932 139.229H316.004C316.127 137.943 317.248 136.932 319.217 136.932C320.837 136.932 322.368 137.656 322.361 139.447V144.451H320.447V143.426H320.393C320.03 144.109 319.319 144.595 318.219 144.588C316.797 144.595 315.751 143.843 315.744 142.373ZM317.686 142.318C317.686 142.886 318.144 143.187 318.793 143.193C319.716 143.187 320.358 142.585 320.352 141.799V141.259C320.044 141.272 319.176 141.32 318.834 141.348C318.13 141.409 317.686 141.744 317.686 142.318ZM327.816 137.027V138.545H326.422V142.168C326.415 142.763 326.709 142.906 327.119 142.92C327.324 142.92 327.68 142.899 327.926 142.879V144.479C327.707 144.513 327.345 144.554 326.846 144.547C325.383 144.554 324.385 143.897 324.398 142.455V138.545H323.373V137.027H324.398V135.25H326.422V137.027H327.816ZM329.088 144.451V137.027H331.111V144.451H329.088ZM328.992 135.031C328.992 134.457 329.491 133.999 330.1 133.992C330.701 133.999 331.2 134.457 331.193 135.031C331.2 135.592 330.701 136.057 330.1 136.057C329.491 136.057 328.992 135.592 328.992 135.031ZM336.02 144.602C333.777 144.595 332.376 143.057 332.383 140.76C332.376 138.47 333.777 136.932 336.02 136.932C338.269 136.932 339.663 138.47 339.67 140.76C339.663 143.057 338.269 144.595 336.02 144.602ZM334.434 140.76C334.434 142.059 334.974 143.022 336.033 143.029C337.065 143.022 337.612 142.059 337.605 140.76C337.612 139.454 337.065 138.477 336.033 138.477C334.974 138.477 334.434 139.454 334.434 140.76ZM342.965 140.158V144.451H340.941V137.027H342.869V138.326H342.951C343.286 137.472 344.079 136.932 345.18 136.932C346.731 136.932 347.743 137.991 347.736 139.721V144.451H345.727V140.076C345.72 139.16 345.228 138.613 344.387 138.613C343.546 138.613 342.965 139.181 342.965 140.158ZM362.844 133.268V145.709H361.162V139.379H360.027V145.162H358.4V133.596H360.027V137.984H361.162V133.268H362.844ZM351.961 141.949C354.497 140.459 355.591 138.634 355.823 136.193H352.59V134.799H357.525C357.519 138.271 356.479 141.115 352.973 143.152L351.961 141.949ZM366.316 133.828V135.305H368.859V133.828H370.609V139.256H364.58V133.828H366.316ZM365.824 141.416V140.062H374.082V143.439H367.561V144.246H374.438V145.627H365.852V142.195H372.346V141.416H365.824ZM366.316 137.889H368.859V136.617H366.316V137.889ZM372.332 139.598V133.268H374.082V135.688H375.764V137.096H374.082V139.598H372.332ZM231.156 150.268V162.709H229.488V150.268H231.156ZM220.479 155.654C220.479 152.872 221.538 151.149 223.186 151.156C224.683 151.149 225.708 152.551 225.899 154.875H226.918V150.445H228.559V162.135H226.918V156.256H225.913C225.763 158.696 224.717 160.18 223.186 160.18C221.538 160.18 220.479 158.45 220.479 155.654ZM222.092 155.654C222.078 157.568 222.488 158.512 223.186 158.498C223.903 158.512 224.327 157.568 224.32 155.654C224.327 153.747 223.903 152.797 223.186 152.797C222.488 152.797 222.078 153.747 222.092 155.654ZM240.275 153.084C240.269 155.312 241.219 157.562 243.215 158.525L242.162 159.92C240.829 159.257 239.927 158.026 239.414 156.529C238.867 158.136 237.91 159.455 236.502 160.152L235.422 158.744C237.534 157.773 238.525 155.395 238.525 153.084V151.225H240.275V153.084ZM243.762 162.709V150.268H245.512V155.066H247.344V156.543H245.512V162.709H243.762ZM259.143 156.16V157.555H247.795V156.16H250.352V154.67C249.442 154.267 248.93 153.651 248.93 152.852C248.93 151.348 250.7 150.452 253.469 150.445C256.217 150.452 257.987 151.348 257.994 152.852C257.987 153.665 257.461 154.287 256.531 154.684V156.16H259.143ZM249.094 160.439C249.094 159.004 250.728 158.204 253.455 158.211C256.142 158.204 257.775 159.004 257.789 160.439C257.775 161.909 256.142 162.695 253.455 162.695C250.728 162.695 249.094 161.909 249.094 160.439ZM250.748 152.852C250.734 153.535 251.712 153.884 253.469 153.877C255.205 153.884 256.189 153.535 256.189 152.852C256.189 152.154 255.205 151.785 253.469 151.785C251.712 151.785 250.734 152.154 250.748 152.852ZM250.871 160.439C250.864 161.075 251.732 161.396 253.455 161.396C255.144 161.396 256.032 161.075 256.039 160.439C256.032 159.824 255.144 159.53 253.455 159.523C251.732 159.53 250.864 159.824 250.871 160.439ZM252.115 156.16H254.795V155.114C254.385 155.169 253.94 155.189 253.469 155.189C252.983 155.189 252.532 155.162 252.115 155.114V156.16ZM269.711 150.268V155.135H271.543V156.57H269.711V162.709H267.988V150.268H269.711ZM259.826 153.521V152.127H262.643V150.459H264.393V152.127H267.141V153.521H259.826ZM260.332 157.186C260.325 155.449 261.679 154.212 263.518 154.219C265.329 154.212 266.689 155.449 266.689 157.186C266.689 158.922 265.329 160.146 263.518 160.152C261.679 160.146 260.325 158.922 260.332 157.186ZM262 157.186C262 158.149 262.636 158.724 263.518 158.717C264.386 158.724 265.021 158.149 265.021 157.186C265.021 156.229 264.386 155.641 263.518 155.627C262.636 155.641 262 156.229 262 157.186ZM282.248 151.348V152.523C282.241 154.082 282.241 155.832 281.742 158.471L279.992 158.293C280.471 155.941 280.491 154.191 280.498 152.729H273.17V151.348H282.248ZM271.994 161.191V159.77H276.055V155.49H277.791V159.77H283.342V161.191H271.994ZM297.738 150.281V157.172H295.988V150.281H297.738ZM287.279 155.627C289.357 154.998 290.273 153.446 290.273 151.908V150.705H292.092V151.908C292.078 153.385 292.98 154.848 295.018 155.408L294.184 156.789C292.748 156.365 291.757 155.504 291.189 154.39C290.622 155.593 289.604 156.543 288.113 156.994L287.279 155.627ZM289.152 162.572V161.178H290.766V159.113H289.262V157.732H297.807V159.113H296.316V161.178H297.916V162.572H289.152ZM292.488 161.178H294.594V159.113H292.488V161.178ZM302.469 157.732V158.785H307.596V157.732H309.332V162.572H300.746V157.732H302.469ZM299.42 157.104V155.695H310.768V157.104H299.42ZM299.98 153.781C302.756 153.446 304.191 152.093 304.205 150.814V150.391H305.996V150.814C305.996 152.059 307.425 153.467 310.207 153.781L309.592 155.148C307.452 154.875 305.894 153.986 305.094 152.783C304.287 153.986 302.729 154.875 300.609 155.148L299.98 153.781ZM302.469 161.205H307.596V160.111H302.469V161.205ZM321.979 150.268V162.709H320.242V150.268H321.979ZM312.189 159.633V151.457H313.912V158.149C315.594 158.122 317.398 157.965 319.23 157.609L319.449 159.045C317.269 159.503 315.204 159.64 313.283 159.633H312.189ZM333.436 150.268V154.889H335.268V156.311H333.436V162.736H331.686V150.268H333.436ZM324.111 159.715V151.416H329.949V152.824H325.848V158.279C327.652 158.266 329.143 158.17 330.797 157.883L330.988 159.346C329.054 159.674 327.358 159.722 325.164 159.715H324.111Z" fill="#ECECF8"/>
<path d="M20.3867 267.969V266.516H27.3359V267.969H24.7344V275H22.9883V267.969H20.3867ZM30.3477 275.129C28.3965 275.123 27.2012 273.863 27.207 271.848C27.2012 269.885 28.4141 268.555 30.2773 268.555C31.9473 268.555 33.2656 269.609 33.2656 271.777V272.27H28.918C28.918 273.23 29.4863 273.822 30.3828 273.828C30.9746 273.822 31.3965 273.564 31.5664 273.184H33.2188C32.9727 274.361 31.918 275.123 30.3477 275.129ZM28.918 271.18H31.625C31.6191 270.406 31.0859 269.85 30.3125 269.855C29.5156 269.85 28.9531 270.447 28.918 271.18ZM37.2148 275.129C35.2637 275.123 34.0918 273.775 34.0977 271.836C34.0918 269.891 35.2871 268.555 37.2148 268.555C38.8555 268.555 39.9688 269.51 40.0391 270.969H38.4102C38.3047 270.342 37.8945 269.908 37.2383 269.902C36.4062 269.908 35.8555 270.605 35.8555 271.812C35.8555 273.043 36.3945 273.746 37.2383 273.746C37.8477 273.746 38.2988 273.365 38.4102 272.691H40.0391C39.9629 274.133 38.9023 275.123 37.2148 275.129ZM42.8516 271.32V275H41.1172V266.516H42.8047V269.75H42.875C43.168 269.006 43.8066 268.555 44.7734 268.555C46.1035 268.555 46.9766 269.451 46.9766 270.945V275H45.2422V271.25C45.2422 270.459 44.8203 269.996 44.0938 269.996C43.3613 269.996 42.8516 270.482 42.8516 271.32Z" fill="#ECECF8" fill-opacity="0.5"/>
<path d="M20.9375 287.516H22.2031L25.0625 294.5H25.168L28.0273 287.516H29.293V296H28.2969V289.59H28.2148L25.5781 296H24.6406L22.0039 289.59H21.9336V296H20.9375V287.516ZM31.168 296V287.516H32.2227V295.062H36.1602V296H31.168ZM45.9805 286.531V296.949H45.0898V286.531H45.9805ZM37.1797 291.031C37.1855 288.816 38.0645 287.416 39.418 287.41C40.6836 287.416 41.5391 288.635 41.6562 290.598H43.0039V286.754H43.8828V296.422H43.0039V291.359H41.6621C41.5742 293.387 40.7012 294.658 39.418 294.652C38.0645 294.658 37.1855 293.246 37.1797 291.031ZM38.0469 291.031C38.0352 292.719 38.5742 293.785 39.418 293.773C40.2676 293.785 40.8066 292.719 40.8008 291.031C40.8066 289.338 40.2676 288.277 39.418 288.277C38.5742 288.277 38.0352 289.338 38.0469 291.031ZM59.3398 286.531V296.949H58.4609V291.488H56.9258V296.41H56.082V286.766H56.9258V290.727H58.4609V286.531H59.3398ZM50.8203 294.371V287.809H54.7227V288.57H51.7344V293.586C53.1699 293.58 54.1602 293.527 55.3203 293.293L55.4023 294.066C54.1484 294.324 53.0879 294.365 51.4883 294.371H50.8203ZM68.9492 286.543V289.977H70.5195V290.75H68.9492V294.348H68.0352V286.543H68.9492ZM60.8281 288.57V287.82H63.4766V286.543H64.3906V287.82H67.0391V288.57H60.8281ZM61.4258 291.09C61.4199 289.906 62.4277 289.145 63.9336 289.145C65.4219 289.145 66.4297 289.906 66.4414 291.09C66.4297 292.262 65.4219 293.018 63.9336 293.012C62.4277 293.018 61.4199 292.262 61.4258 291.09ZM62.3047 291.09C62.2988 291.822 62.9492 292.297 63.9336 292.285C64.9062 292.297 65.5625 291.822 65.5742 291.09C65.5625 290.346 64.9062 289.865 63.9336 289.871C62.9492 289.865 62.2988 290.346 62.3047 291.09ZM62.4336 296.727V293.727H63.3359V295.953H69.4297V296.727H62.4336ZM82.8008 286.531V296.949H81.875V286.531H82.8008ZM74.3164 294.242C77.1348 292.906 78.5762 290.908 78.7812 288.418H74.7969V287.668H79.7188C79.707 290.662 78.3125 293.316 74.8203 294.992L74.3164 294.242ZM89.7852 286.988C89.7793 288.283 91.6602 289.279 93.5352 289.508L93.207 290.211C91.5664 289.988 89.9609 289.256 89.3047 288.131C88.6367 289.256 87.0254 289.988 85.4023 290.211L85.0859 289.508C86.9551 289.279 88.8359 288.283 88.8359 286.988V286.59H89.7852V286.988ZM84.5586 291.641V290.891H94.0508V291.641H89.75V292.684H92.832V295.051H86.6445V296.105H93.1484V296.832H85.7305V294.359H91.9297V293.41H85.707V292.684H88.8359V291.641H84.5586ZM103.168 287.164C103.162 288.482 105.061 289.654 106.895 289.918L106.531 290.633C104.938 290.381 103.355 289.549 102.693 288.371C102.031 289.555 100.443 290.381 98.8438 290.633L98.4922 289.918C100.338 289.654 102.219 288.506 102.219 287.164V286.672H103.168V287.164ZM97.9414 292.227V291.465H107.434V292.227H103.133V293.562H106.262V296.949H105.336V294.312H98.9961V293.562H102.23V292.227H97.9414ZM113.258 287.281V290.316H109.672V292.039C111.576 292.039 112.625 291.992 113.891 291.77L113.984 292.531C112.625 292.766 111.535 292.801 109.496 292.801H108.746V289.59H112.32V288.031H108.723V287.281H113.258ZM110.176 296.668V293.645H111.102V295.906H117.266V296.668H110.176ZM113.961 291.395V290.633H116.023V289.051H113.961V288.301H116.023V286.543H116.949V294.207H116.023V291.395H113.961ZM127.098 291.418V292.168H123.875V294.863H128.223V295.637H118.684V294.863H122.973V292.168H119.902V287.387H126.992V288.137H120.828V291.418H127.098Z" fill="#ECECF8"/>
<circle cx="271" cy="292" r="6" fill="#944AF2"/>
<circle cx="295" cy="292" r="6" fill="#ECECF8" fill-opacity="0.3"/>
<circle cx="319" cy="292" r="6" fill="#ECECF8" fill-opacity="0.3"/>
<circle cx="343" cy="292" r="6" fill="#ECECF8" fill-opacity="0.3"/>
<circle cx="367" cy="292" r="6" fill="#ECECF8" fill-opacity="0.3"/>
<path d="M28.1094 311.758C28.1152 314.441 26.5332 316.117 24.3594 316.117C22.1797 316.117 20.6035 314.441 20.6094 311.758C20.6035 309.074 22.1797 307.398 24.3594 307.398C26.5332 307.398 28.1152 309.074 28.1094 311.758ZM21.6289 311.758C21.6348 313.943 22.8242 315.127 24.3594 315.133C25.8945 315.127 27.084 313.943 27.0898 311.758C27.084 309.566 25.8945 308.383 24.3594 308.383C22.8242 308.383 21.6348 309.566 21.6289 311.758ZM29.5273 318.391V309.637H30.5V310.645H30.6172C30.834 310.305 31.2207 309.555 32.457 309.555C34.0566 309.555 35.1641 310.82 35.1641 312.836C35.1641 314.857 34.0566 316.135 32.4688 316.129C31.2559 316.135 30.834 315.379 30.6172 315.027H30.5352V318.391H29.5273ZM30.5117 312.812C30.5176 314.242 31.1562 315.227 32.3281 315.227C33.5352 315.227 34.1562 314.166 34.1562 312.812C34.1562 311.482 33.5527 310.457 32.3281 310.457C31.1387 310.457 30.5176 311.4 30.5117 312.812ZM40.0156 311.289C39.875 310.762 39.4707 310.416 38.7266 310.41C37.9414 310.416 37.3848 310.838 37.3789 311.371C37.3848 311.793 37.7246 312.08 38.4688 312.262L39.418 312.496C40.5547 312.766 41.1113 313.334 41.1172 314.219C41.1113 315.32 40.2148 316.135 38.6211 316.129C37.1914 316.135 36.3418 315.496 36.1719 314.336H37.2266C37.3438 314.957 37.7949 315.256 38.5977 315.25C39.5059 315.256 40.0742 314.875 40.0742 314.277C40.0742 313.826 39.752 313.533 39.0312 313.363L38.0703 313.141C36.9629 312.883 36.3711 312.279 36.3711 311.43C36.3711 310.34 37.3262 309.555 38.7266 309.555C40.0449 309.555 40.8711 310.258 41 311.289H40.0156ZM50.9727 306.531V316.949H50.082V306.531H50.9727ZM42.1719 311.031C42.1777 308.816 43.0566 307.416 44.4102 307.41C45.6758 307.416 46.5312 308.635 46.6484 310.598H47.9961V306.754H48.875V316.422H47.9961V311.359H46.6543C46.5664 313.387 45.6934 314.658 44.4102 314.652C43.0566 314.658 42.1777 313.246 42.1719 311.031ZM43.0391 311.031C43.0273 312.719 43.5664 313.785 44.4102 313.773C45.2598 313.785 45.7988 312.719 45.793 311.031C45.7988 309.338 45.2598 308.277 44.4102 308.277C43.5664 308.277 43.0273 309.338 43.0391 311.031ZM64.332 306.531V316.949H63.4531V311.488H61.918V316.41H61.0742V306.766H61.918V310.727H63.4531V306.531H64.332ZM55.8125 314.371V307.809H59.7148V308.57H56.7266V313.586C58.1621 313.58 59.1523 313.527 60.3125 313.293L60.3945 314.066C59.1406 314.324 58.0801 314.365 56.4805 314.371H55.8125ZM73.9414 306.543V309.977H75.5117V310.75H73.9414V314.348H73.0273V306.543H73.9414ZM65.8203 308.57V307.82H68.4688V306.543H69.3828V307.82H72.0312V308.57H65.8203ZM66.418 311.09C66.4121 309.906 67.4199 309.145 68.9258 309.145C70.4141 309.145 71.4219 309.906 71.4336 311.09C71.4219 312.262 70.4141 313.018 68.9258 313.012C67.4199 313.018 66.4121 312.262 66.418 311.09ZM67.2969 311.09C67.291 311.822 67.9414 312.297 68.9258 312.285C69.8984 312.297 70.5547 311.822 70.5664 311.09C70.5547 310.346 69.8984 309.865 68.9258 309.871C67.9414 309.865 67.291 310.346 67.2969 311.09ZM67.4258 316.727V313.727H68.3281V315.953H74.4219V316.727H67.4258ZM87.793 306.531V316.949H86.8672V306.531H87.793ZM79.3086 314.242C82.127 312.906 83.5684 310.908 83.7734 308.418H79.7891V307.668H84.7109C84.6992 310.662 83.3047 313.316 79.8125 314.992L79.3086 314.242ZM94.7773 306.988C94.7715 308.283 96.6523 309.279 98.5273 309.508L98.1992 310.211C96.5586 309.988 94.9531 309.256 94.2969 308.131C93.6289 309.256 92.0176 309.988 90.3945 310.211L90.0781 309.508C91.9473 309.279 93.8281 308.283 93.8281 306.988V306.59H94.7773V306.988ZM89.5508 311.641V310.891H99.043V311.641H94.7422V312.684H97.8242V315.051H91.6367V316.105H98.1406V316.832H90.7227V314.359H96.9219V313.41H90.6992V312.684H93.8281V311.641H89.5508ZM108.16 307.164C108.154 308.482 110.053 309.654 111.887 309.918L111.523 310.633C109.93 310.381 108.348 309.549 107.686 308.371C107.023 309.555 105.436 310.381 103.836 310.633L103.484 309.918C105.33 309.654 107.211 308.506 107.211 307.164V306.672H108.16V307.164ZM102.934 312.227V311.465H112.426V312.227H108.125V313.562H111.254V316.949H110.328V314.312H103.988V313.562H107.223V312.227H102.934ZM118.25 307.281V310.316H114.664V312.039C116.568 312.039 117.617 311.992 118.883 311.77L118.977 312.531C117.617 312.766 116.527 312.801 114.488 312.801H113.738V309.59H117.312V308.031H113.715V307.281H118.25ZM115.168 316.668V313.645H116.094V315.906H122.258V316.668H115.168ZM118.953 311.395V310.633H121.016V309.051H118.953V308.301H121.016V306.543H121.941V314.207H121.016V311.395H118.953ZM132.09 311.418V312.168H128.867V314.863H133.215V315.637H123.676V314.863H127.965V312.168H124.895V307.387H131.984V308.137H125.82V311.418H132.09Z" fill="#ECECF8"/>
<circle cx="271" cy="312" r="6" fill="#944AF2"/>
<circle cx="295" cy="312" r="6" fill="#ECECF8" fill-opacity="0.3"/>
<circle cx="319" cy="312" r="6" fill="#ECECF8" fill-opacity="0.3"/>
<circle cx="343" cy="312" r="6" fill="#ECECF8" fill-opacity="0.3"/>
<circle cx="367" cy="312" r="6" fill="#ECECF8" fill-opacity="0.3"/>
</g>
<rect x="0.5" y="0.5" width="404" height="341" rx="19.5" stroke="white" stroke-opacity="0.2"/>
<defs>
<filter id="filter0_f_518_4557" x="121.033" y="88.6689" width="23.5664" height="28.2012" filterUnits="userSpaceOnUse" color-interpolation-filters="sRGB">
<feFlood flood-opacity="0" result="BackgroundImageFix"/>
<feBlend mode="normal" in="SourceGraphic" in2="BackgroundImageFix" result="shape"/>
<feGaussianBlur stdDeviation="2" result="effect1_foregroundBlur_518_4557"/>
</filter>
<linearGradient id="paint0_linear_518_4557" x1="101.001" y1="144.683" x2="117.501" y2="192.183" gradientUnits="userSpaceOnUse">
<stop stop-color="#FBBFB4"/>
<stop offset="1" stop-color="#EA8F7F"/>
</linearGradient>
<linearGradient id="paint1_linear_518_4557" x1="120" y1="137.684" x2="121.5" y2="154.184" gradientUnits="userSpaceOnUse">
<stop stop-color="#E79795"/>
<stop offset="1" stop-color="#E79795" stop-opacity="0"/>
</linearGradient>
<linearGradient id="paint2_linear_518_4557" x1="84.1553" y1="90.9482" x2="72.9451" y2="138.623" gradientUnits="userSpaceOnUse">
<stop stop-color="#060204"/>
<stop offset="1" stop-color="#2E0822"/>
</linearGradient>
<linearGradient id="paint3_linear_518_4557" x1="75.6368" y1="82.6647" x2="74.1573" y2="131.618" gradientUnits="userSpaceOnUse">
<stop stop-color="#060204"/>
<stop offset="1" stop-color="#2E0822"/>
</linearGradient>
<linearGradient id="paint4_linear_518_4557" x1="137" y1="99.1829" x2="105.902" y2="141.806" gradientUnits="userSpaceOnUse">
<stop stop-color="#FFD3CB"/>
<stop offset="1" stop-color="#FFB2A4"/>
</linearGradient>
<radialGradient id="paint5_radial_518_4557" cx="0" cy="0" r="1" gradientUnits="userSpaceOnUse" gradientTransform="translate(120.001 93.6841) rotate(135) scale(4.94975 5.11474)">
<stop stop-color="#4B3F47"/>
<stop offset="1" stop-color="#1C1519"/>
</radialGradient>
<radialGradient id="paint6_radial_518_4557" cx="0" cy="0" r="1" gradientUnits="userSpaceOnUse" gradientTransform="translate(144.501 93.6841) rotate(114.444) scale(6.04152 5.24743)">
<stop stop-color="#4B3F47"/>
<stop offset="1" stop-color="#1C1519"/>
</radialGradient>
<linearGradient id="paint7_linear_518_4557" x1="104.098" y1="36.0285" x2="94.2443" y2="117.403" gradientUnits="userSpaceOnUse">
<stop stop-color="#060204"/>
<stop offset="1" stop-color="#2E0822"/>
</linearGradient>
<linearGradient id="paint8_linear_518_4557" x1="110.001" y1="157.827" x2="110.001" y2="220" gradientUnits="userSpaceOnUse">
<stop offset="0.411458" stop-color="#202F72"/>
<stop offset="1" stop-color="#0D1021"/>
</linearGradient>
<linearGradient id="paint9_linear_518_4557" x1="137.798" y1="42.3886" x2="132.203" y2="88.5971" gradientUnits="userSpaceOnUse">
<stop stop-color="#090207"/>
<stop offset="1" stop-color="#2E0822"/>
</linearGradient>
<linearGradient id="paint10_linear_518_4557" x1="143.255" y1="44.4967" x2="137.484" y2="92.1533" gradientUnits="userSpaceOnUse">
<stop stop-color="#080306"/>
<stop offset="1" stop-color="#2E0822"/>
</linearGradient>
<linearGradient id="paint11_linear_518_4557" x1="126.937" y1="41.3333" x2="123.4" y2="90.1809" gradientUnits="userSpaceOnUse">
<stop stop-color="#060204"/>
<stop offset="1" stop-color="#2E0822"/>
</linearGradient>
<linearGradient id="paint12_linear_518_4557" x1="120.642" y1="53.6657" x2="102.787" y2="99.2703" gradientUnits="userSpaceOnUse">
<stop stop-color="#060204"/>
<stop offset="1" stop-color="#2E0822"/>
</linearGradient>
<clipPath id="clip0_518_4557">
<rect width="405" height="342" rx="20" fill="white"/>
</clipPath>
</defs>
</svg>
