<svg width="300" height="650" viewBox="0 0 300 650" fill="none" xmlns="http://www.w3.org/2000/svg">
<rect width="300" height="649.673" rx="20" fill="#131316"/>
<rect x="1" y="1" width="298" height="647.673" rx="19" stroke="white" stroke-opacity="0.1" stroke-width="2"/>
<rect x="20.4294" y="20.4294" width="94.7527" height="20.0117" rx="10.0058" fill="#944AF2"/>
<rect x="20.4294" y="20.4294" width="94.7527" height="20.0117" rx="10.0058" stroke="#944AF2" stroke-width="0.858811"/>
<path d="M34.009 34.4353H31.0208V25.9509H34.0442C36.5989 25.9509 38.1633 27.5388 38.1575 30.1814C38.1633 32.8357 36.5989 34.4353 34.009 34.4353ZM32.7786 32.9236H33.9387C35.5559 32.9236 36.3997 32.0857 36.3997 30.1814C36.3997 28.2947 35.5559 27.4626 33.9504 27.4626H32.7786V32.9236ZM39.095 32.6541C39.1008 31.2361 40.2375 30.7732 41.4622 30.697C41.9192 30.6677 42.7747 30.6267 43.0442 30.615V30.0994C43.0383 29.5662 42.675 29.2615 42.0247 29.2556C41.4329 29.2615 41.0637 29.5251 40.97 29.9587H39.3176C39.4231 28.8572 40.384 27.99 42.0715 27.99C43.4602 27.99 44.7727 28.6111 44.7668 30.1462V34.4353H43.1262V33.5564H43.0793C42.7688 34.1423 42.1594 34.5583 41.2161 34.5525C39.9973 34.5583 39.1008 33.9138 39.095 32.6541ZM40.759 32.6072C40.759 33.0935 41.1516 33.3513 41.7083 33.3572C42.4993 33.3513 43.05 32.8357 43.0442 32.1619V31.699C42.7805 31.7107 42.0364 31.7517 41.7434 31.7751C41.1399 31.8279 40.759 32.115 40.759 32.6072ZM49.4426 28.072V29.3728H48.2473V32.4783C48.2415 32.988 48.4934 33.1111 48.845 33.1228C49.0208 33.1228 49.3254 33.1052 49.5364 33.0876V34.4587C49.3489 34.488 49.0383 34.5232 48.6106 34.5173C47.3567 34.5232 46.5012 33.9607 46.5129 32.7244V29.3728H45.634V28.072H46.5129V26.5486H48.2473V28.072H49.4426ZM50.2278 32.6541C50.2336 31.2361 51.3704 30.7732 52.595 30.697C53.052 30.6677 53.9075 30.6267 54.177 30.615V30.0994C54.1711 29.5662 53.8079 29.2615 53.1575 29.2556C52.5657 29.2615 52.1965 29.5251 52.1028 29.9587H50.4504C50.5559 28.8572 51.5168 27.99 53.2043 27.99C54.593 27.99 55.9055 28.6111 55.8997 30.1462V34.4353H54.259V33.5564H54.2122C53.9016 34.1423 53.2922 34.5583 52.3489 34.5525C51.1301 34.5583 50.2336 33.9138 50.2278 32.6541ZM51.8918 32.6072C51.8918 33.0935 52.2844 33.3513 52.8411 33.3572C53.6321 33.3513 54.1829 32.8357 54.177 32.1619V31.699C53.9133 31.7107 53.1692 31.7517 52.8762 31.7751C52.2727 31.8279 51.8918 32.115 51.8918 32.6072ZM64.6301 28.3767C64.5598 27.7029 64.0266 27.3103 63.1653 27.3103C62.2747 27.3103 61.7766 27.7205 61.7708 28.283C61.7649 28.8982 62.3977 29.1736 63.1301 29.3376L63.8918 29.5251C65.345 29.8591 66.429 30.5974 66.4348 32.0095C66.429 33.5623 65.2219 34.5583 63.1536 34.5525C61.1028 34.5583 59.7961 33.6091 59.7434 31.7869H61.4543C61.5129 32.6423 62.1926 33.0759 63.1301 33.0759C64.0559 33.0759 64.6536 32.6423 64.6536 32.0095C64.6536 31.4294 64.1262 31.1599 63.2004 30.9314L62.2747 30.7087C60.845 30.3572 59.9661 29.6423 59.9661 28.4001C59.9602 26.8591 61.3196 25.8337 63.177 25.8337C65.0579 25.8337 66.2942 26.8767 66.3176 28.3767H64.6301ZM70.4075 34.5642C68.4563 34.5583 67.2844 33.2107 67.2903 31.2712C67.2844 29.3259 68.4797 27.99 70.4075 27.99C72.0481 27.99 73.1614 28.9451 73.2317 30.4041H71.6028C71.4973 29.7771 71.0872 29.3435 70.4309 29.3376C69.5989 29.3435 69.0481 30.0408 69.0481 31.2478C69.0481 32.4783 69.5872 33.1814 70.4309 33.1814C71.0403 33.1814 71.4915 32.8005 71.6028 32.1267H73.2317C73.1555 33.5681 72.095 34.5583 70.4075 34.5642ZM74.3098 34.4353V28.072H76.0442V34.4353H74.3098ZM74.2278 26.3611C74.2278 25.8689 74.6555 25.4763 75.177 25.4705C75.6926 25.4763 76.1204 25.8689 76.1145 26.3611C76.1204 26.8416 75.6926 27.24 75.177 27.24C74.6555 27.24 74.2278 26.8416 74.2278 26.3611ZM80.2747 34.5642C78.3235 34.5583 77.1282 33.2986 77.134 31.283C77.1282 29.3201 78.3411 27.99 80.2043 27.99C81.8743 27.99 83.1926 29.0447 83.1926 31.2126V31.7048H78.845C78.845 32.6658 79.4133 33.2576 80.3098 33.2634C80.9016 33.2576 81.3235 32.9998 81.4934 32.6189H83.1458C82.8997 33.7966 81.845 34.5583 80.2747 34.5642ZM78.845 30.615H81.552C81.5461 29.8416 81.0129 29.2849 80.2395 29.2908C79.4426 29.2849 78.8801 29.8826 78.845 30.615ZM86.0168 30.7556V34.4353H84.2825V28.072H85.9348V29.1853H86.0051C86.2922 28.4529 86.9719 27.99 87.9153 27.99C89.2454 27.99 90.1125 28.8982 90.1067 30.3806V34.4353H88.384V30.6853C88.3782 29.9001 87.9563 29.4314 87.2356 29.4314C86.5149 29.4314 86.0168 29.9177 86.0168 30.7556ZM94.8059 28.072V29.3728H93.6106V32.4783C93.6047 32.988 93.8567 33.1111 94.2083 33.1228C94.384 33.1228 94.6887 33.1052 94.8997 33.0876V34.4587C94.7122 34.488 94.4016 34.5232 93.9739 34.5173C92.72 34.5232 91.8645 33.9607 91.8762 32.7244V29.3728H90.9973V28.072H91.8762V26.5486H93.6106V28.072H94.8059ZM95.8958 34.4353V28.072H97.6301V34.4353H95.8958ZM95.8137 26.3611C95.8137 25.8689 96.2415 25.4763 96.7629 25.4705C97.2786 25.4763 97.7063 25.8689 97.7004 26.3611C97.7063 26.8416 97.2786 27.24 96.7629 27.24C96.2415 27.24 95.8137 26.8416 95.8137 26.3611ZM102.611 29.9587C102.534 29.5134 102.148 29.2263 101.568 29.2205C101.005 29.2263 100.577 29.49 100.583 29.8767C100.577 30.1638 100.8 30.3865 101.404 30.5095L102.54 30.7439C103.777 31.0017 104.374 31.5525 104.38 32.4666C104.374 33.7205 103.249 34.5583 101.556 34.5642C99.8391 34.5583 98.8313 33.7908 98.6848 32.5486H100.431C100.513 33.0466 100.917 33.3044 101.556 33.3103C102.189 33.3044 102.611 33.0525 102.611 32.6423C102.611 32.3142 102.341 32.1091 101.743 31.9861L100.689 31.7751C99.4758 31.5349 98.8547 30.9138 98.8606 29.9705C98.8547 28.7517 99.9036 27.99 101.544 27.99C103.15 27.99 104.146 28.7517 104.24 29.9587H102.611Z" fill="#131316"/>
<rect x="20" y="60.8706" width="260" height="197.183" rx="8.4507" fill="url(#paint0_linear_1223_1112)" fill-opacity="0.5"/>
<rect x="20" y="60.8706" width="260" height="197.183" rx="8.4507" fill="black"/>
<path d="M110.323 139.3C110.031 118.309 127.81 100.938 134.574 100.558C161.911 83.1959 193.881 109.463 197.79 130.285C201.699 151.107 184.729 158.893 196.713 171.22C208.697 183.547 197.548 179.983 190.907 186.601C184.265 193.218 183.38 186.597 189.189 195.593C194.998 204.589 182.539 217.265 176.772 221.182C171.005 225.099 153.031 206.609 151.014 220.921C148.996 235.233 139.948 211.28 129.844 224.764C119.74 238.248 119.505 218.845 112.968 213.653C106.432 208.461 98.8801 221.716 95.92 214.698C92.9599 207.679 81.7466 196.934 95.6047 186.317C109.463 175.701 110.687 165.539 110.323 139.3Z" fill="url(#paint1_linear_1223_1112)"/>
<path d="M210.189 258.054C209.889 246.574 195.775 215.175 184.5 208.453C164.205 199.533 138.24 203.204 122 208.453C110.437 212.189 89.0517 243.058 92.6848 258.054H210.189Z" fill="url(#paint2_linear_1223_1112)"/>
<path d="M138.189 208.6C143.36 208.6 145.169 185.054 142 170.5C149.16 170.5 164.945 171.206 167.132 172.606C170.554 174.798 160.695 194.164 169.145 208.6C169.145 208.6 168.999 235 161 234.5C153.001 234 138.189 208.6 138.189 208.6Z" fill="#D67967"/>
<mask id="mask0_1223_1112" style="mask-type:alpha" maskUnits="userSpaceOnUse" x="133" y="170" width="37" height="64">
<path d="M134.639 211.065C139.146 208.529 146 186.5 142 170.5C149.16 170.5 164.946 171.205 167.133 172.606C170.556 174.797 160.696 194.163 169.147 208.6L156.57 233.521C150.584 227.418 130.132 213.6 134.639 211.065Z" fill="#D67967"/>
</mask>
<g mask="url(#mask0_1223_1112)">
<path d="M171.711 172.254L176.64 201.832C176.64 201.832 169.95 206.409 153.753 190.212C137.556 174.015 133.683 169.085 133.683 169.085L137.908 158.874L171.711 172.254Z" fill="url(#paint3_linear_1223_1112)"/>
</g>
<path d="M124.003 116.83C136.642 89.7053 165.709 91.9671 176.257 100.554C185.626 98.0427 187.11 104.42 186.681 107.923L155.828 173.724C148.845 170.24 139.405 178.159 138 169C136.244 157.552 108.206 150.735 124.003 116.83Z" fill="url(#paint4_linear_1223_1112)"/>
<path d="M186.968 172.248C188.656 175.08 189.192 183.357 184.589 184.699C180.875 185.782 177.569 178.698 180.355 173.494" stroke="url(#paint5_linear_1223_1112)" stroke-width="2" stroke-linecap="round"/>
<path d="M200.889 115.139C196.322 104.516 172.834 102.49 166.008 106.324C156.549 114.554 174.726 124.839 176.105 132.63C177.209 138.864 177.914 158.189 178.129 167.073C180.112 164.823 185.154 156.226 191.794 149.608C195.918 139.283 205.455 125.762 200.889 115.139Z" fill="url(#paint6_linear_1223_1112)"/>
<path d="M194.07 144.637C195.852 139.815 197.009 133.009 189.276 117.192C181.543 101.376 154.082 111.904 148.397 117.27C142.711 122.637 138.284 145.809 137.097 144.507C135.909 143.205 133.277 141.985 129.636 144.157C125.994 146.329 125.578 154.136 125.345 159.111C125.112 164.085 130.315 166.871 132.406 169.063C134.078 170.816 139.064 172.366 141.347 172.922C142.611 179.289 164.384 194.431 172.341 192.187C180.298 189.943 180.286 187.929 185.284 179.165C189.482 171.802 192.352 163.029 191.545 157.857C190.791 153.023 191.844 150.664 194.07 144.637Z" fill="url(#paint7_radial_1223_1112)"/>
<g filter="url(#filter0_f_1223_1112)">
<path d="M184.018 162.401C183.5 165.113 180.881 166.892 178.169 166.374C175.456 165.856 172.204 162.955 172.722 160.243C173.24 157.531 175.137 151.541 177.849 152.06C180.561 152.578 184.536 159.689 184.018 162.401Z" fill="#D8806F" fill-opacity="0.6"/>
</g>
<path d="M138.331 154.61C139.038 156.537 137.392 157.656 135.744 158.776C133.537 160.275 135.433 162.3 135.429 162.3C133.519 164.802 133.236 164.39 129.202 161.11C125.169 157.83 127.034 149.942 130.955 148.182C134.876 146.421 137.624 152.682 138.331 154.61Z" fill="#B15A46"/>
<path d="M139.967 168C142.156 170.465 144.236 178.494 139.967 180.676C136.522 182.437 131.945 176.099 133.705 170.465" stroke="url(#paint8_linear_1223_1112)" stroke-width="2" stroke-linecap="round"/>
<path d="M163.104 170.881C176.345 176.629 178.244 175.447 181.434 174.383C181.263 173.777 180.079 173.345 179.673 172.344C179.393 171.932 178.175 172.677 177.418 172.891C176.811 173.062 175.643 172.171 174.765 171.764L163.104 170.881Z" fill="#933C42"/>
<path d="M156.391 143.282C158.686 141.073 160.15 141.896 162.473 141.422C164.317 141.046 167.802 143.986 169.535 145.244C170.599 146.266 170.753 149.479 170.611 150.321C170.469 151.162 166.184 151.604 163.376 151.131L163.366 151.129C160.564 150.657 158.936 150.383 157.534 149.82C156.119 149.252 154.097 145.492 156.391 143.282Z" fill="#EDF1FA"/>
<mask id="mask1_1223_1112" style="mask-type:alpha" maskUnits="userSpaceOnUse" x="155" y="141" width="16" height="11">
<path d="M156.391 143.282C158.686 141.073 160.15 141.896 162.473 141.422C164.317 141.046 167.802 143.986 169.535 145.244C170.599 146.266 170.753 149.479 170.611 150.321C170.469 151.162 166.184 151.604 163.376 151.131L163.366 151.129C160.564 150.657 158.936 150.383 157.534 149.82C156.119 149.252 154.097 145.492 156.391 143.282Z" fill="#EDF1FA"/>
</mask>
<g mask="url(#mask1_1223_1112)">
<path d="M161.462 148.748C160.662 145.789 161.431 143.854 162.625 141.846C164.159 140.36 170.332 143.062 170.727 144.524C171.123 145.986 170.312 149.907 168.116 151.389C165.22 153.345 162.649 153.135 161.462 148.748Z" fill="url(#paint9_linear_1223_1112)"/>
<ellipse cx="166" cy="145.5" rx="2" ry="2.5" fill="#14080E"/>
</g>
<path d="M157.53 149.851C155.966 148.472 155.209 146.276 155.561 144.824C157.001 142.709 159.102 142.693 160.928 142.463C164.292 142.038 169.399 145.474 171.547 147.774C170.239 143.498 163.44 139.94 159.422 140.938C155.404 141.936 155.252 140.934 154.742 140.15C154.825 141.56 155.056 142.824 157.235 142.074C156.44 142.987 155.051 144.759 153.395 143.922C151.739 143.085 151.212 142.696 151.108 142.678C153.562 144.836 154.317 144.963 154.566 145.005C154.878 145.057 154.994 146.285 155.192 147.016C155.389 147.747 156.086 148.91 157.53 149.851Z" fill="#060107"/>
<circle cx="167.391" cy="145.347" r="0.5" transform="rotate(9.55715 167.391 145.347)" fill="white"/>
<path d="M190.942 150.794C190.312 148.794 189.422 149.042 188.398 148.22C187.586 147.567 185.25 148.825 184.134 149.311C183.394 149.78 182.918 152.184 182.803 152.789C182.687 153.393 184.204 155.133 185.67 155.413C187.136 155.693 188.19 155.488 188.956 155.008C189.723 154.528 191.572 152.793 190.942 150.794Z" fill="#EDF1FA"/>
<path d="M185.5 148.5C183.5 149.5 184 154.5 187 155C190 155.5 190.502 153.299 191 150.5C190.943 149.095 187.5 147.5 185.5 148.5Z" fill="url(#paint10_linear_1223_1112)"/>
<ellipse cx="187.5" cy="150" rx="1.5" ry="2" fill="#14080E"/>
<path d="M188.953 155.031C190.014 154.425 190.862 153.09 191.009 152.024C190.774 150.273 190.077 149.457 189.241 148.908C187.702 147.896 184.378 149.385 183.116 150.071C184.419 148.553 188.255 147.001 189.986 148.545C191.718 150.088 192.011 149.437 192.43 149.012C192.081 149.955 191.978 150.046 190.799 149.789C190.985 150.582 191.342 152.047 192.329 151.831C193.316 151.616 193.586 151.506 193.64 151.516C192.548 152.318 191.583 152.386 191.452 152.361C191.289 152.33 190.965 153.142 190.709 153.598C190.453 154.055 189.86 154.699 188.953 155.031Z" fill="#060107"/>
<circle cx="0.5" cy="0.5" r="0.5" transform="matrix(-0.982236 -0.187649 -0.187649 0.982236 189.592 149.213)" fill="white"/>
<path d="M181.99 151.701C181.24 155.63 184.525 159.649 185.737 159.945C186.949 160.241 186.918 165.877 180.743 166.225" stroke="#401109" stroke-width="0.704225" stroke-linecap="round"/>
<path d="M166.032 131.581C180.004 124.499 180.152 113.964 178.48 109.582C181.199 95.3536 159.394 98.7663 144.335 106.285C129.276 113.804 137.207 128.583 137.067 144.33C136.926 160.076 148.587 166.605 143.601 157.049C138.616 147.493 148.568 140.433 166.032 131.581Z" fill="url(#paint11_linear_1223_1112)"/>
<path d="M152.641 139.991C166.037 128.599 171.895 133.908 173.15 137.987C165.744 134.268 166.846 135.641 162.831 135.701C160.84 135.731 155.213 138.471 152.641 139.991Z" fill="#28111B"/>
<path d="M184.403 141.569C187.524 141.066 192.839 140.991 194.239 143.448C193.914 141.734 192.268 140.607 189.924 139.731C187.581 138.855 185.69 139.343 184.403 141.569Z" fill="#28111B"/>
<path d="M174.516 164.178C176.714 163.654 178.167 164.096 178.48 164.746C178.371 165.315 177.658 165.423 177.215 164.504C177.064 164.19 175.115 164.293 174.516 164.178Z" fill="#3A2323"/>
<path d="M173.403 174.732C178.032 175.92 179.014 175.001 181.09 174.309C178.618 175.988 177.144 179.484 174.433 179.132C169.997 178.554 167.434 176.361 163.105 170.873C165.115 171.616 170.917 174.094 173.403 174.732Z" fill="#AB4C53"/>
<circle cx="181.656" cy="162.535" r="0.704225" transform="rotate(10.8156 181.656 162.535)" fill="white"/>
<circle cx="150.69" cy="149.424" r="0.5" fill="#060107"/>
<path d="M173.197 136.703C180.704 128.328 182.446 109.979 175.822 105.62C179.06 105.515 184.687 109.934 186.817 116.949C189.72 126.51 185.203 133.772 182.346 138.947L173.197 136.703Z" fill="url(#paint12_linear_1223_1112)"/>
<path d="M190.5 145.5C197.935 135.796 187.942 116.126 182.959 109.892C185.695 110.123 194.947 113.262 200.598 119.424C206.249 125.586 201.853 144.294 198.757 150.49L190.5 145.5Z" fill="url(#paint13_linear_1223_1112)"/>
<path d="M43.1445 283.089V309.808H39.4238V283.089H43.1445ZM22.1973 288.333V285.315H34.8828V295.599H26.0938V300.491C30.166 300.462 33.6084 300.257 37.5195 299.612L37.8418 302.63C33.4619 303.406 29.4922 303.567 24.6289 303.567H22.2266V292.64H31.0742V288.333H22.1973ZM53.8965 284.964C57.9688 284.964 60.9131 288.641 60.9277 294.456C60.9131 300.315 57.9688 303.978 53.8965 303.978C49.8096 303.978 46.8506 300.315 46.8652 294.456C46.8506 288.641 49.8096 284.964 53.8965 284.964ZM50.4688 294.456C50.4688 298.426 51.8604 300.594 53.8965 300.579C55.9766 300.594 57.3389 298.426 57.3535 294.456C57.3389 290.501 55.9766 288.333 53.8965 288.333C51.8604 288.333 50.4688 290.501 50.4688 294.456ZM64.0039 309.749V283.089H67.7539V293.138H71.6797V296.243H67.7539V309.749H64.0039Z" fill="#ECECF8"/>
<path d="M31.75 336.835V341.835H27.8906V343.194H33.3906V344.804H20.4219V343.194H25.8906V341.835H22.0312V336.835H31.75ZM21.8594 347.413V345.851H31.8125V350.491H29.8281V347.413H21.8594ZM23.9844 340.272H29.7969V338.382H23.9844V340.272ZM47.2656 347.319V348.913H34.25V347.319H37.4844V344.616H35.3281V343.007H37.2344V339.007H35.2656V337.413H46.1719V339.007H44.1719V343.007H46.1094V344.616H43.9688V347.319H47.2656ZM39.2344 343.007H42.2031V339.007H39.2344V343.007ZM39.4844 347.319H41.9688V344.616H39.4844V347.319Z" fill="#ECECF8" fill-opacity="0.5"/>
<path d="M43.9062 361.906V388.566H40.3027V361.906H43.9062ZM21.6113 382.619V364.923H31.8066V367.912H25.2734V379.528C28.1152 379.499 30.2832 379.337 32.7734 378.839L33.0664 381.886C30.0488 382.487 27.3682 382.619 23.457 382.619H21.6113ZM29.9902 374.679V371.632H34.7656V362.375H38.252V387.365H34.7656V374.679H29.9902ZM69.043 361.906V388.625H65.2637V361.906H69.043ZM47.5098 373.273C47.4951 367.458 50.4688 363.781 54.5703 363.781C58.584 363.781 61.5723 367.458 61.5723 373.273C61.5723 379.132 58.584 382.794 54.5703 382.794C50.4688 382.794 47.4951 379.132 47.5098 373.273ZM51.1133 373.273C51.0986 377.243 52.4902 379.411 54.5703 379.396C56.5918 379.411 57.9541 377.243 57.9688 373.273C57.9541 369.318 56.5918 367.15 54.5703 367.15C52.4902 367.15 51.0986 369.318 51.1133 373.273ZM95.1465 361.906V388.625H91.4551V374.328H86.7676V371.31H91.4551V361.906H95.1465ZM73.877 382.589V364.132H86.3281V367.15H77.5977V371.574H85.3613V374.503H77.5977V379.542C81.3037 379.513 84.2627 379.381 87.5586 378.869L87.9395 381.857C84.043 382.443 80.5566 382.575 75.9863 382.589H73.877ZM122.949 373.859V376.642H98.5449V373.859H122.949ZM101.328 380.539V377.96H120.02V384.259H105.078V385.783H120.811V388.332H101.357V381.886H116.328V380.539H101.328ZM101.533 364.923V362.375H119.99V368.644H105.312V370.08H120.459V372.599H101.592V366.271H116.24V364.923H101.533ZM155.791 375.587V378.517H145.742V382.824H142.051V378.517H131.387V375.587H155.791ZM134.258 388.097V380.714H137.949V385.109H153.096V388.097H134.258ZM134.521 373.712V362.755H138.213V365.539H148.906V362.755H152.627V373.712H134.521ZM138.213 370.753H148.906V368.322H138.213V370.753ZM167.334 366.066C167.319 369.391 169.18 372.614 173.398 373.947L171.406 376.906C168.55 375.939 166.587 374.02 165.459 371.603C164.287 374.24 162.192 376.305 159.189 377.375L157.168 374.386C161.636 372.965 163.54 369.479 163.555 365.832V363.283H167.334V366.066ZM161.504 381.945V378.986H179.814V388.566H176.094V381.945H161.504ZM171.084 369.933V366.857H176.094V361.906H179.814V377.785H176.094V369.933H171.084ZM204.307 361.906V372.335H208.232V375.412H204.307V388.566H200.615V361.906H204.307ZM183.125 368.878V365.89H189.16V362.316H192.91V365.89H198.799V368.878H183.125ZM184.209 376.73C184.194 373.009 187.095 370.358 191.035 370.373C194.917 370.358 197.832 373.009 197.832 376.73C197.832 380.451 194.917 383.073 191.035 383.087C187.095 383.073 184.194 380.451 184.209 376.73ZM187.783 376.73C187.783 378.795 189.146 380.026 191.035 380.011C192.896 380.026 194.258 378.795 194.258 376.73C194.258 374.679 192.896 373.419 191.035 373.39C189.146 373.419 187.783 374.679 187.783 376.73ZM231.172 364.22V366.74C231.157 370.08 231.157 373.83 230.088 379.484L226.338 379.103C227.363 374.064 227.407 370.314 227.422 367.179H211.719V364.22H231.172ZM209.199 385.314V382.267H217.9V373.097H221.621V382.267H233.516V385.314H209.199ZM45.1953 421.384V424.46H20.791V421.384H31.0742V415.935H23.3691V402.869H42.4707V415.935H34.7949V421.384H45.1953ZM27.0605 413.005H38.7793V405.857H27.0605V413.005ZM69.7754 400.935V414.88H66.2305V400.935H69.7754ZM47.8613 414.207V402.195H58.2617V405.125H51.582V411.248C54.5557 411.218 56.6211 411.116 59.0234 410.72L59.2578 413.679C56.3574 414.133 53.8965 414.207 49.707 414.207H47.8613ZM51.377 418.66V415.73H69.7754V422.82H55.127V424.343H70.5664V427.273H51.4062V420.037H66.1133V418.66H51.377ZM56.709 409.314V406.501H60.8984V401.375H64.4141V414.763H60.8984V409.314H56.709ZM84.8047 401.287C90.9424 401.287 94.4873 402.898 94.502 405.828C94.4873 408.801 90.9424 410.398 84.8047 410.398C78.6523 410.398 75.0781 408.801 75.0781 405.828C75.0781 402.898 78.6523 401.287 84.8047 401.287ZM72.6465 414.617V411.658H96.9629V414.617H72.6465ZM75.459 418.894V416.169H94.0039V422.966H79.1504V424.578H94.707V427.39H75.4883V420.359H90.3125V418.894H75.459ZM79.0039 405.828C78.9893 407.131 80.8936 407.644 84.8047 407.644C88.7451 407.644 90.6348 407.131 90.6348 405.828C90.6348 404.641 88.7451 404.011 84.8047 404.011C80.8936 404.011 78.9893 404.641 79.0039 405.828ZM119.082 403.103V415.906H106.279V403.103H119.082ZM109.355 427.097V418.455H113.076V424.109H127.607V427.097H109.355ZM109.971 412.976H115.391V406.091H109.971V412.976ZM122.891 420.359V400.906H126.641V408.582H130.244V411.658H126.641V420.359H122.891ZM155.791 412.478V415.466H131.416V412.478H155.791ZM134.346 427.185V416.931H138.008V419.128H149.053V416.931H152.803V427.185H134.346ZM134.375 410.632V401.55H152.861V404.626H138.096V407.644H153.125V410.632H134.375ZM138.008 424.197H149.053V422H138.008V424.197ZM179.756 400.906V427.566H176.035V400.906H179.756ZM158.779 420.974V403.455H162.471V417.795C166.074 417.737 169.941 417.4 173.867 416.638L174.336 419.714C169.663 420.696 165.239 420.989 161.123 420.974H158.779ZM204.307 400.906V410.808H208.232V413.855H204.307V427.625H200.557V400.906H204.307ZM184.326 421.15V403.367H196.836V406.384H188.047V418.074C191.914 418.044 195.107 417.839 198.652 417.224L199.062 420.359C194.917 421.062 191.284 421.165 186.582 421.15H184.326ZM212.656 425.134C211.279 425.134 210.166 424.036 210.195 422.673C210.166 421.326 211.279 420.227 212.656 420.242C213.96 420.227 215.088 421.326 215.088 422.673C215.088 424.036 213.96 425.134 212.656 425.134ZM43.4668 451.361V454.32H33.7988V442.132H43.2617V445.121H37.5488V451.361H43.4668ZM20.791 463.46V460.443H31.0449V455.492H34.7363V460.443H45.1953V463.46H20.791ZM22.666 454.32V442.132H32.1289V445.121H26.416V451.288C28.5107 451.229 30.3125 451.068 32.3047 450.687L32.5684 453.734C29.8584 454.291 27.5439 454.334 24.3652 454.32H22.666ZM67.8711 439.935V448.109H71.4746V451.156H67.8711V459.828H64.1211V439.935H67.8711ZM46.7188 445.677V442.718H52.7832V439.876H56.5039V442.718H62.5391V445.677H46.7188ZM48.0078 451.771C48.0078 448.68 50.7471 446.615 54.6289 446.615C58.4961 446.615 61.1914 448.68 61.1914 451.771C61.1914 454.847 58.4961 456.869 54.6289 456.869C50.7471 456.869 48.0078 454.847 48.0078 451.771ZM50.5859 466.097V458.304H54.3066V463.109H68.8379V466.097H50.5859ZM51.6699 451.771C51.6553 453.236 52.8418 454.027 54.6289 454.027C56.4307 454.027 57.6465 453.236 57.6465 451.771C57.6465 450.292 56.4307 449.471 54.6289 449.457C52.8418 449.471 51.6553 450.292 51.6699 451.771ZM93.1543 442.103V454.906H80.3516V442.103H93.1543ZM83.4277 466.097V457.455H87.1484V463.109H101.68V466.097H83.4277ZM84.043 451.976H89.4629V445.091H84.043V451.976ZM96.9629 459.359V439.906H100.713V447.582H104.316V450.658H100.713V459.359H96.9629ZM129.863 450.306V453.236H105.488V450.306H129.863ZM108.301 457.63V454.818H126.846V461.791H111.992V463.431H127.549V466.332H108.33V459.125H123.154V457.63H108.301ZM108.535 448.841V440.433H126.758V443.421H112.256V445.912H126.963V448.841H108.535ZM138.77 441.781C142.373 441.781 145.068 444.74 145.596 449.544H150.225V439.906H153.916V466.625H150.225V452.533H145.64C145.244 457.66 142.49 460.794 138.77 460.794C134.727 460.794 131.826 457.132 131.855 451.273C131.826 445.458 134.727 441.781 138.77 441.781ZM135.43 451.273C135.415 455.243 136.777 457.411 138.77 457.396C140.776 457.411 142.109 455.243 142.109 451.273C142.109 447.318 140.776 445.15 138.77 445.15C136.777 445.15 135.415 447.318 135.43 451.273ZM167.744 445.179C167.729 448.358 169.722 451.61 174.102 452.943L172.197 455.873C169.209 454.92 167.114 453.001 165.913 450.599C164.697 453.236 162.529 455.331 159.395 456.371L157.461 453.441C161.899 452.02 163.936 448.548 163.936 445.179V444.798H158.457V441.81H173.105V444.798H167.744V445.179ZM161.797 466.097V457.455H165.576V463.109H180.371V466.097H161.797ZM175.918 459.212V439.935H179.668V459.212H175.918ZM214.59 460.384V463.46H190.186V460.384H200.469V454.935H192.764V441.869H211.865V454.935H204.189V460.384H214.59ZM196.455 452.005H208.174V444.857H196.455V452.005ZM239.17 439.935V453.88H235.625V439.935H239.17ZM217.256 453.207V441.195H227.656V444.125H220.977V450.248C223.95 450.218 226.016 450.116 228.418 449.72L228.652 452.679C225.752 453.133 223.291 453.207 219.102 453.207H217.256ZM220.771 457.66V454.73H239.17V461.82H224.521V463.343H239.961V466.273H220.801V459.037H235.508V457.66H220.771ZM226.104 448.314V445.501H230.293V440.375H233.809V453.763H230.293V448.314H226.104ZM254.199 440.287C260.337 440.287 263.882 441.898 263.896 444.828C263.882 447.801 260.337 449.398 254.199 449.398C248.047 449.398 244.473 447.801 244.473 444.828C244.473 441.898 248.047 440.287 254.199 440.287ZM242.041 453.617V450.658H266.357V453.617H242.041ZM244.854 457.894V455.169H263.398V461.966H248.545V463.578H264.102V466.39H244.883V459.359H259.707V457.894H244.854ZM248.398 444.828C248.384 446.131 250.288 446.644 254.199 446.644C258.14 446.644 260.029 446.131 260.029 444.828C260.029 443.641 258.14 443.011 254.199 443.011C250.288 443.011 248.384 443.641 248.398 444.828ZM43.1152 478.935V498.095H39.3652V478.935H43.1152ZM21.2012 487.343C21.2012 483.432 24.3945 480.62 28.4961 480.634C32.583 480.62 35.7764 483.432 35.791 487.343C35.7764 491.313 32.583 494.111 28.4961 494.111C24.3945 494.111 21.2012 491.313 21.2012 487.343ZM24.8633 487.343C24.834 489.57 26.4014 490.859 28.4961 490.859C30.5176 490.859 32.085 489.57 32.0996 487.343C32.085 485.175 30.5176 483.872 28.4961 483.886C26.4014 483.872 24.834 485.175 24.8633 487.343ZM25.2441 505.097V496.162H29.0234V502.109H43.8184V505.097H25.2441ZM71.123 499.355V502.46H46.7188V499.355H71.123ZM48.623 484.238V481.25H69.0723V484.238H65.3223V492.324H68.9551V495.253H48.7402V492.324H52.3145V484.238H48.623ZM56.0645 492.324H61.6309V484.238H56.0645V492.324ZM93.6816 478.906V488.984H97.6074V492.06H93.6816V505.625H89.9902V478.906H93.6816ZM73.7305 484.15V481.132H86.0645V491.474H77.4805V496.308C81.3623 496.293 84.5703 496.118 88.1152 495.517L88.4375 498.505C84.3652 499.252 80.7031 499.414 76.0156 499.414H73.7598V488.515H82.3438V484.15H73.7305ZM115.83 486.171C115.815 490.478 118.042 495.092 122.51 496.953L120.488 499.882C117.354 498.549 115.186 495.898 113.984 492.675C112.783 496.176 110.571 499.106 107.422 500.556L105.283 497.597C109.707 495.62 111.992 490.683 111.992 486.171V484.531H106.338V481.484H121.396V484.531H115.83V486.171ZM124.033 505.566V478.906H127.812V505.566H124.033ZM141.641 482.685C141.611 486.01 143.516 489.248 147.91 490.566L146.035 493.496C143.003 492.529 140.894 490.625 139.707 488.193C138.506 490.815 136.338 492.895 133.203 493.906L131.328 490.976C135.781 489.555 137.744 486.083 137.744 482.685V480.136H141.641V482.685ZM135.4 498.945V495.957H153.74V505.566H149.99V498.945H135.4ZM149.99 494.814V478.906H153.74V494.814H149.99ZM163.76 494.492V497.158H166.631V494.492H170.088V502.592C173.047 501.245 174.307 498.754 174.307 496.337V494.287H178.057V496.337C178.042 499.062 179.346 501.64 182.686 502.724L180.752 505.507C178.452 504.716 176.973 503.193 176.123 501.274C175.244 503.134 173.779 504.672 171.611 505.507L170.088 503.208V505.273H160.303V494.492H163.76ZM157.695 486.171C157.666 482.509 160.684 479.917 164.785 479.902C168.169 479.917 170.879 481.792 171.611 484.619H176.094V478.906H179.814V493.027H176.094V487.695H171.626C170.908 490.581 168.184 492.5 164.785 492.5C160.684 492.5 157.666 489.892 157.695 486.171ZM161.24 486.171C161.226 488.193 162.69 489.438 164.785 489.453C166.807 489.438 168.257 488.193 168.271 486.171C168.257 484.208 166.807 482.993 164.785 482.978C162.69 482.993 161.226 484.208 161.24 486.171ZM163.76 502.431H166.631V499.912H163.76V502.431ZM205.596 478.906V505.625H201.816V478.906H205.596ZM184.062 490.273C184.048 484.458 187.021 480.781 191.123 480.781C195.137 480.781 198.125 484.458 198.125 490.273C198.125 496.132 195.137 499.794 191.123 499.794C187.021 499.794 184.048 496.132 184.062 490.273ZM187.666 490.273C187.651 494.243 189.043 496.411 191.123 496.396C193.145 496.411 194.507 494.243 194.521 490.273C194.507 486.318 193.145 484.15 191.123 484.15C189.043 484.15 187.651 486.318 187.666 490.273ZM25.0684 520.279V526.285H28.7012V520.279H32.1582V538.238H21.5527V520.279H25.0684ZM25.0684 535.25H28.7012V529.214H25.0684V535.25ZM34.3848 543.335V518.287H37.9297V528.072H40.332V517.906H43.9062V544.566H40.332V531.119H37.9297V543.335H34.3848ZM71.123 538.472V541.607H46.7188V538.472H56.9727V533.667H48.7402V530.738H52.3145V523.121H48.623V520.132H69.0723V523.121H65.3223V530.738H68.9551V533.667H60.6934V538.472H71.123ZM56.0645 530.738H61.6309V523.121H56.0645V530.738ZM78.2715 539.703L75.752 548.052H72.6465L74.1113 539.703H78.2715ZM97.2852 523.941C97.2998 528.951 99.3213 533.829 103.76 535.748L101.475 538.736C98.5156 537.3 96.5234 534.634 95.4102 531.338C94.2676 534.839 92.2168 537.71 89.1699 539.205L86.8262 536.158C91.3965 534.092 93.4766 528.951 93.5059 523.941V519.957H97.2852V523.941ZM100.771 529.302V526.285H106.016V517.906H109.707V544.625H106.016V529.302H100.771ZM118.174 519.517V523.033H123.77V519.517H127.49V532.173H114.482V519.517H118.174ZM117.207 539.468C117.192 536.202 120.708 534.297 126.377 534.283C132.017 534.297 135.518 536.202 135.547 539.468C135.518 542.706 132.017 544.581 126.377 544.566C120.708 544.581 117.192 542.706 117.207 539.468ZM118.174 529.214H123.77V525.904H118.174V529.214ZM120.957 539.468C120.957 540.918 122.788 541.724 126.377 541.724C129.937 541.724 131.841 540.918 131.855 539.468C131.841 537.901 129.937 537.139 126.377 537.154C122.788 537.139 120.957 537.901 120.957 539.468ZM131.709 533.873V517.935H135.459V533.873H131.709ZM160.098 517.906V528.335H164.023V531.412H160.098V544.566H156.406V517.906H160.098ZM138.916 524.878V521.89H144.951V518.316H148.701V521.89H154.59V524.878H138.916ZM140 532.73C139.985 529.009 142.886 526.358 146.826 526.373C150.708 526.358 153.623 529.009 153.623 532.73C153.623 536.451 150.708 539.073 146.826 539.087C142.886 539.073 139.985 536.451 140 532.73ZM143.574 532.73C143.574 534.795 144.937 536.026 146.826 536.011C148.687 536.026 150.049 534.795 150.049 532.73C150.049 530.679 148.687 529.419 146.826 529.39C144.937 529.419 143.574 530.679 143.574 532.73ZM186.963 520.22V522.74C186.948 526.08 186.948 529.83 185.879 535.484L182.129 535.103C183.154 530.064 183.198 526.314 183.213 523.179H167.51V520.22H186.963ZM164.99 541.314V538.267H173.691V529.097H177.412V538.267H189.307V541.314H164.99ZM43.1152 556.935V571.701H39.3652V556.935H43.1152ZM20.7031 568.39C25.1562 567.042 27.1191 563.717 27.1191 560.421V557.843H31.0156V560.421C30.9863 563.585 32.9199 566.72 37.2852 567.921L35.498 570.88C32.4219 569.972 30.2979 568.126 29.082 565.739C27.8662 568.317 25.6836 570.353 22.4902 571.32L20.7031 568.39ZM24.7168 583.273V580.285H28.1738V575.861H24.9512V572.902H43.2617V575.861H40.0684V580.285H43.4961V583.273H24.7168ZM31.8652 580.285H36.377V575.861H31.8652V580.285ZM53.252 572.902V575.158H64.2383V572.902H67.959V583.273H49.5605V572.902H53.252ZM46.7188 571.554V568.537H71.0352V571.554H46.7188ZM47.9199 564.435C53.8672 563.717 56.9434 560.817 56.9727 558.078V557.169H60.8105V558.078C60.8105 560.744 63.8721 563.761 69.834 564.435L68.5156 567.365C63.9307 566.779 60.5908 564.875 58.877 562.296C57.1484 564.875 53.8086 566.779 49.2676 567.365L47.9199 564.435ZM53.252 580.343H64.2383V578H53.252V580.343ZM95.0586 556.906V583.566H91.3379V556.906H95.0586ZM74.082 576.974V559.455H77.7734V573.795C81.377 573.737 85.2441 573.4 89.1699 572.638L89.6387 575.714C84.9658 576.696 80.542 576.989 76.4258 576.974H74.082ZM119.609 556.906V566.808H123.535V569.855H119.609V583.625H115.859V556.906H119.609ZM99.6289 577.15V559.367H112.139V562.384H103.35V574.074C107.217 574.044 110.41 573.839 113.955 573.224L114.365 576.359C110.22 577.062 106.587 577.165 101.885 577.15H99.6289ZM127.959 581.134C126.582 581.134 125.469 580.036 125.498 578.673C125.469 577.326 126.582 576.227 127.959 576.242C129.263 576.227 130.391 577.326 130.391 578.673C130.391 580.036 129.263 581.134 127.959 581.134Z" fill="#ECECF8"/>
<defs>
<filter id="filter0_f_1223_1112" x="168.667" y="148.028" width="19.3965" height="22.4355" filterUnits="userSpaceOnUse" color-interpolation-filters="sRGB">
<feFlood flood-opacity="0" result="BackgroundImageFix"/>
<feBlend mode="normal" in="SourceGraphic" in2="BackgroundImageFix" result="shape"/>
<feGaussianBlur stdDeviation="2" result="effect1_foregroundBlur_1223_1112"/>
</filter>
<linearGradient id="paint0_linear_1223_1112" x1="150" y1="60.8706" x2="150" y2="258.054" gradientUnits="userSpaceOnUse">
<stop stop-color="#8371B9"/>
<stop offset="1" stop-opacity="0"/>
</linearGradient>
<linearGradient id="paint1_linear_1223_1112" x1="150" y1="113" x2="92.4998" y2="220" gradientUnits="userSpaceOnUse">
<stop stop-color="#2F2632"/>
<stop offset="0.503343" stop-color="#0C0C0F"/>
<stop offset="0.762152" stop-color="#39447A"/>
<stop offset="1" stop-color="#694795"/>
</linearGradient>
<linearGradient id="paint2_linear_1223_1112" x1="151.189" y1="239.5" x2="151.189" y2="259.5" gradientUnits="userSpaceOnUse">
<stop stop-color="#4D3A63"/>
<stop offset="1" stop-color="#17121C"/>
</linearGradient>
<linearGradient id="paint3_linear_1223_1112" x1="155" y1="176.5" x2="166.5" y2="203.5" gradientUnits="userSpaceOnUse">
<stop stop-color="#AA585E"/>
<stop offset="1" stop-color="#AA585E" stop-opacity="0"/>
</linearGradient>
<linearGradient id="paint4_linear_1223_1112" x1="159.527" y1="92.0603" x2="128.34" y2="142.092" gradientUnits="userSpaceOnUse">
<stop stop-color="#0C0A0C"/>
<stop offset="0.281029" stop-color="#423445"/>
<stop offset="1" stop-color="#0C0C0E"/>
</linearGradient>
<linearGradient id="paint5_linear_1223_1112" x1="184.92" y1="171.857" x2="182.485" y2="184.602" gradientUnits="userSpaceOnUse">
<stop stop-color="#464023"/>
<stop offset="1" stop-color="#9B905C"/>
</linearGradient>
<linearGradient id="paint6_linear_1223_1112" x1="184.938" y1="105.432" x2="173.337" y2="166.157" gradientUnits="userSpaceOnUse">
<stop stop-color="#110B13"/>
<stop offset="1" stop-color="#060107" stop-opacity="0"/>
<stop offset="1" stop-color="#060107"/>
</linearGradient>
<radialGradient id="paint7_radial_1223_1112" cx="0" cy="0" r="1" gradientUnits="userSpaceOnUse" gradientTransform="translate(184.299 160.928) rotate(-179.549) scale(54.3009 43.2522)">
<stop stop-color="#D9A49A"/>
<stop offset="1" stop-color="#D67967"/>
</radialGradient>
<linearGradient id="paint8_linear_1223_1112" x1="137.882" y1="168" x2="142" y2="184.5" gradientUnits="userSpaceOnUse">
<stop offset="0.235389" stop-color="#665E31"/>
<stop offset="1" stop-color="#A79C66"/>
</linearGradient>
<linearGradient id="paint9_linear_1223_1112" x1="167.266" y1="141.122" x2="164.917" y2="155.072" gradientUnits="userSpaceOnUse">
<stop stop-color="#392C11"/>
<stop offset="1" stop-color="#060107"/>
</linearGradient>
<linearGradient id="paint10_linear_1223_1112" x1="189.635" y1="147.974" x2="185.495" y2="156.531" gradientUnits="userSpaceOnUse">
<stop offset="0.0001" stop-color="#392C11"/>
<stop offset="1" stop-color="#140817"/>
</linearGradient>
<linearGradient id="paint11_linear_1223_1112" x1="169.689" y1="104.178" x2="139.983" y2="150.425" gradientUnits="userSpaceOnUse">
<stop stop-color="#060107"/>
<stop offset="0.314262" stop-color="#463749"/>
<stop offset="0.631981" stop-color="#2A212D"/>
</linearGradient>
<linearGradient id="paint12_linear_1223_1112" x1="179.688" y1="105.494" x2="180.776" y2="138.998" gradientUnits="userSpaceOnUse">
<stop stop-color="#0D060D"/>
<stop offset="0.421875" stop-color="#413344"/>
<stop offset="1" stop-color="#2B222D"/>
</linearGradient>
<linearGradient id="paint13_linear_1223_1112" x1="195.106" y1="111.855" x2="191.885" y2="149.908" gradientUnits="userSpaceOnUse">
<stop stop-color="#110A12"/>
<stop offset="0.322917" stop-color="#403243"/>
<stop offset="0.724698" stop-color="#2B222D"/>
</linearGradient>
</defs>
</svg>
