<svg width="300" height="600" viewBox="0 0 300 600" fill="none" xmlns="http://www.w3.org/2000/svg">
<rect x="0.5" y="0.5" width="299" height="599" rx="19.5" fill="black"/>
<rect x="20" y="46" width="260" height="197.183" rx="8.4507" fill="url(#paint0_linear_17_3805)"/>
<ellipse cx="187.187" cy="135.422" rx="4.57746" ry="11.9718" transform="rotate(9.95946 187.187 135.422)" fill="#F3A4A7"/>
<circle cx="186.62" cy="147.409" r="4.92958" fill="white"/>
<path d="M140.19 195.296C144.697 192.761 139.486 163.019 136.317 148.465C143.477 148.465 157.937 149.099 158.5 151.634C159.064 154.17 165.542 178.043 168.712 189.663L152.514 216.775C146.528 210.672 135.683 197.832 140.19 195.296Z" fill="#FDC6BF"/>
<mask id="mask0_17_3805" style="mask-type:alpha" maskUnits="userSpaceOnUse" x="136" y="148" width="33" height="69">
<path d="M140.191 195.296C144.698 192.761 139.486 163.019 136.317 148.465C143.477 148.465 157.937 149.099 158.5 151.634C159.064 154.17 165.543 178.043 168.712 189.663L152.515 216.775C146.529 210.672 135.684 197.832 140.191 195.296Z" fill="#FDC6BF"/>
</mask>
<g mask="url(#mask0_17_3805)">
<path d="M167.655 155.508L172.585 185.085C172.585 185.085 165.895 189.663 149.698 173.465C133.5 157.268 129.627 152.339 129.627 152.339L133.853 142.127L167.655 155.508Z" fill="#F3A4A7"/>
</g>
<path d="M119.77 65.7192C129.065 59.8037 134.441 68.184 135.967 73.1135C139.49 73.1135 134.557 78.0428 132.444 86.8456C130.331 95.6484 126.81 115.015 122.937 122.057C119.064 129.099 114.486 133.677 111.669 147.057C109.416 157.761 118.242 175.461 122.937 182.972C116.247 176.986 101.108 160.085 94.0651 140.367C85.2621 115.719 106.037 117.832 102.868 94.5921C99.6991 71.3526 108.15 73.1135 119.77 65.7192Z" fill="#A9504F"/>
<circle cx="125.754" cy="83.3244" r="9.50704" fill="white"/>
<path d="M110.915 97.4086C118.239 68.3945 147.535 68.4177 159.507 74.8731C168.237 70.6481 171.292 78.7474 171.528 82.2682L153.57 152.691C152.817 159.733 127.746 158.254 124.648 149.521C120.774 138.606 101.76 133.676 110.915 97.4086Z" fill="#DE6351"/>
<path d="M194.414 83.6763C187.935 74.0989 164.485 76.5157 158.499 81.5627C150.752 91.4214 170.536 98.113 173.353 105.507C175.606 111.423 182.981 134.497 184.859 143.183C186.385 140.601 194.414 131.563 191.949 119.24C189.484 106.916 200.893 93.2538 194.414 83.6763Z" fill="#DE6351"/>
<path d="M185.963 117.127C186.808 112.057 186.667 105.154 176.103 91.0694C165.54 76.9849 140.543 92.4793 135.965 98.8173C131.388 105.155 131.388 128.747 129.977 127.691C128.566 126.634 125.751 125.93 122.582 128.747C119.413 131.564 120.47 139.31 121.174 144.24C121.878 149.169 127.512 150.93 129.977 152.691C131.949 154.099 137.136 154.686 139.484 154.803C145.472 169.592 171.528 172.157 173.641 172.761C175.754 173.365 178.571 172.761 179.979 170.648C181.388 168.536 180.699 162.354 185.963 153.747C189.838 147.409 188.43 144.944 186.667 140.015C185.02 135.409 184.906 123.465 185.963 117.127Z" fill="#FDC4BD"/>
<path d="M132.797 137.198C133.854 138.959 132.447 140.367 131.039 141.776C129.152 143.663 131.395 145.296 131.391 145.296C129.984 148.113 129.628 147.761 125.051 145.296C120.473 142.832 120.826 134.734 124.347 132.269C127.868 129.804 131.741 135.438 132.797 137.198Z" fill="#FA9CAE"/>
<path d="M169.768 153.728C174.538 154.026 178.422 154.093 180.331 153.023C177.866 155.136 177.779 156.382 175.05 156.545C170.584 156.81 164.328 155.209 162.726 153.023C164.694 154.008 167.206 153.568 169.768 153.728Z" fill="white"/>
<path d="M162.021 153.032C176.106 156.193 177.749 154.675 180.683 153.032C180.402 152.468 179.158 152.266 178.571 151.359C178.219 151.006 177.162 151.967 176.458 152.319C175.895 152.601 174.58 151.945 173.641 151.711L162.021 153.032Z" fill="#E25E78"/>
<path d="M146.53 123.029C148.642 119.86 150.403 120.565 152.868 119.508C154.824 118.67 159.482 120.765 161.619 121.944C162.977 122.973 162.725 127.959 162.725 129.015C162.725 130.071 160.26 132.536 158.852 132.888C157.444 133.24 150.403 131.832 148.995 130.776C147.586 129.719 144.417 126.198 146.53 123.029Z" fill="#EDF1FA"/>
<mask id="mask1_17_3805" style="mask-type:alpha" maskUnits="userSpaceOnUse" x="145" y="119" width="18" height="14">
<path d="M146.529 123.03C148.642 119.861 150.402 120.565 152.867 119.509C154.823 118.671 159.481 120.766 161.618 121.945C162.977 122.973 162.724 127.959 162.724 129.016C162.724 130.072 160.26 132.537 158.851 132.889C157.443 133.241 150.402 131.832 148.994 130.776C147.585 129.72 144.416 126.199 146.529 123.03Z" fill="#EDF1FA"/>
</mask>
<g mask="url(#mask1_17_3805)">
<path d="M155.683 129.016C154.258 126.165 154.744 121.739 155.683 119.509C157.093 117.748 161.668 120.565 162.373 121.973C163.077 123.382 164.157 130.315 162.021 132.185C159.204 134.651 157.797 133.242 155.683 129.016Z" fill="#51673E"/>
</g>
<path d="M148.29 130.071C146.319 128.944 146.06 125.611 146.178 124.086C147.367 121.707 149.144 120.755 151.106 120.212C154.719 119.212 159.663 121.034 162.021 122.327C159.908 119.863 153.922 117.817 149.697 119.508C145.472 121.198 145.12 120.212 144.415 119.508C144.768 120.916 146.035 122.043 148.289 120.916C147.584 121.973 145.683 123.945 143.711 123.381C141.739 122.818 141.012 122.677 140.894 122.677C142.185 123.264 144.838 124.438 145.12 124.438C145.472 124.438 145.472 125.846 145.824 126.55C146.176 127.254 146.532 129.366 148.29 130.071Z" fill="#000525"/>
<ellipse cx="159.204" cy="125.494" rx="1.05634" ry="2.8169" fill="#000525"/>
<ellipse cx="156.387" cy="123.381" rx="1.05634" ry="0.704225" fill="white"/>
<path d="M183.206 122.991C181.914 119.822 180.837 120.526 179.33 119.47C178.134 118.631 175.285 120.727 173.978 121.906C173.148 122.934 173.302 127.92 173.302 128.976C173.302 130.033 174.809 132.498 175.67 132.85C176.532 133.202 180.837 131.793 181.699 130.737C182.56 129.681 184.498 126.16 183.206 122.991Z" fill="#EDF1FA"/>
<mask id="mask2_17_3805" style="mask-type:alpha" maskUnits="userSpaceOnUse" x="173" y="119" width="11" height="14">
<path d="M183.207 122.991C181.916 119.822 180.839 120.526 179.332 119.47C178.135 118.631 175.287 120.727 173.98 121.906C173.149 122.934 173.303 127.92 173.303 128.976C173.303 130.033 174.811 132.498 175.672 132.85C176.533 133.202 180.839 131.793 181.7 130.737C182.562 129.681 184.499 126.16 183.207 122.991Z" fill="#EDF1FA"/>
</mask>
<g mask="url(#mask2_17_3805)">
<path d="M183.654 127.547C185.032 125.294 184.228 120.27 183.654 118.04C182.792 116.28 179.994 119.097 179.563 120.505C179.133 121.914 176.966 130.859 182.093 130.859C184.91 130.859 181.931 130.364 183.654 127.547Z" fill="#51673E"/>
</g>
<path d="M183.422 124.047C183.493 125.573 183.336 128.906 182.13 130.033C183.205 129.328 183.423 127.216 183.638 126.512C183.853 125.808 183.853 124.399 184.069 124.399C184.241 124.399 185.863 123.225 186.653 122.639C186.581 122.639 186.136 122.779 184.93 123.343C183.724 123.906 182.875 122.057 182.444 121C183.592 121.939 184.104 120.903 184.368 119.988C184.462 119.826 184.499 119.639 184.499 119.469C184.463 119.626 184.421 119.804 184.368 119.988C184.074 120.494 183.229 120.751 181.269 119.469C178.685 117.779 175.455 120.174 174.162 121.582C175.549 120.339 178.181 119.511 180.331 120.296C181.632 120.771 182.642 121.499 183.422 124.047Z" fill="#000525"/>
<ellipse cx="0.645991" cy="2.8169" rx="0.645991" ry="2.8169" transform="matrix(-1 0 0 1 181.624 122.409)" fill="#000525"/>
<ellipse cx="0.645991" cy="0.704225" rx="0.645991" ry="0.704225" transform="matrix(-1 0 0 1 180.92 122.409)" fill="white"/>
<path d="M155.685 109.38C168.08 99.803 166.249 89.4274 163.784 85.4368C163.784 70.9508 143.007 78.3946 129.627 88.6058C116.246 98.8171 126.81 111.845 129.627 127.338C132.443 142.831 145.122 147.057 138.432 138.606C131.742 130.155 140.192 121.352 155.685 109.38Z" fill="#DE6351"/>
<path d="M144.111 120.155C155.13 106.451 161.881 110.567 163.879 114.338C155.907 112.074 157.246 113.217 153.315 114.029C151.364 114.432 146.351 118.179 144.111 120.155Z" fill="#401109"/>
<path d="M175.604 115.745C178.575 114.664 183.781 113.593 185.618 115.744C184.977 114.122 183.148 113.324 180.682 112.903C178.216 112.482 176.45 113.316 175.604 115.745Z" fill="#401109"/>
<path d="M103.571 243.183C103.852 232.761 114.486 199.986 125.05 193.883C144.064 185.784 179.979 181.921 194.064 182.977C205.331 183.822 210.496 229.568 207.092 243.183H103.571Z" fill="#F1CF73"/>
<path d="M140.542 177.338C139.486 180.155 134.557 188.817 134.557 198.113C146.88 218.183 172.233 198.113 174.345 191.071C176.035 185.437 168.711 177.69 164.838 174.521C164.251 175.695 162.184 184.733 151.458 184.733C142.303 184.733 144.768 180.155 140.542 177.338Z" fill="#F9EFE4"/>
<path d="M172.937 155.86C177.707 156.158 178.422 154.093 180.331 153.023C178.219 155.136 177.427 158.847 174.697 159.009C170.231 159.275 167.303 157.601 162.021 153.023C164.134 153.376 170.375 155.699 172.937 155.86Z" fill="#E25E78"/>
<g filter="url(#filter0_f_17_3805)">
<path d="M181.035 133.677C177.092 135.367 174.97 132.112 173.913 130.234C171.449 134.811 169.339 138.685 167.93 140.797C166.522 142.91 169.691 142.91 170.747 142.91C171.803 142.91 173.212 143.614 174.62 145.023C175.747 146.149 177.254 145.675 177.866 145.296C180.965 142.198 181.27 136.259 181.035 133.677Z" fill="#F5A69C"/>
</g>
<path d="M173.916 130.234C174.972 132.112 177.092 135.367 181.035 133.677C181.27 136.259 180.965 142.198 177.866 145.296" stroke="#65332D" stroke-width="0.704225" stroke-linecap="round"/>
<path d="M170.472 142.831C172.162 142.268 173.993 142.831 174.345 143.183C174.345 143.535 173.787 143.68 173.289 143.183C172.937 142.831 171.059 142.714 170.472 142.831Z" fill="#3A2323"/>
<circle cx="177.514" cy="137.198" r="0.704225" fill="white"/>
<circle cx="137.324" cy="155.156" r="4.92958" fill="white"/>
<path d="M30.6597 260.113H29.353V272.464H30.6597V260.113ZM20.8803 265.353C20.8803 268.015 22.2076 269.693 24.0713 269.686C25.9006 269.693 27.2486 268.015 27.2486 265.353C27.2486 262.719 25.9006 261.041 24.0713 261.034C22.2076 261.041 20.8803 262.719 20.8803 265.353ZM22.1457 265.353C22.1388 263.421 22.9228 262.21 24.0713 262.203C25.1992 262.21 25.9832 263.421 25.9832 265.353C25.9832 267.313 25.1992 268.517 24.0713 268.517C22.9228 268.517 22.1388 267.313 22.1457 265.353ZM43.8914 266.426H32.6128V267.471H43.8914V266.426ZM34.0295 261.419H41.168V262.465H34.057V265.491H42.7223V264.487H35.3499V263.428H42.4747V260.388H34.0295V261.419ZM34.112 272.285H42.4884V268.475H34.112V272.285ZM35.4049 271.226V269.521H41.1955V271.226H35.4049Z" fill="#ECECF8" fill-opacity="0.7"/>
<path d="M33.3528 279.6H31.3556V287.275H33.3528V279.6ZM20.5117 283.61C20.5034 285.558 21.9476 286.928 23.9613 286.928C25.6861 286.928 27.0065 285.921 27.3531 284.403H28.3682V287.209H30.3158V279.847H28.3682V282.703H27.3366C26.957 281.192 25.6531 280.26 23.9613 280.276C21.9476 280.26 20.5034 281.58 20.5117 283.61ZM22.3933 283.61C22.385 282.529 23.037 281.886 23.9613 281.877C24.8773 281.886 25.5458 282.529 25.5623 283.61C25.5458 284.642 24.8773 285.253 23.9613 285.261C23.037 285.253 22.385 284.642 22.3933 283.61ZM23.07 289.437H31.2401V290.312H23.0865V294.438H33.8644V292.787H25.2157V291.847H33.3528V287.819H23.07V289.437ZM47.6463 279.583H45.5502V294.636H47.6463V279.583ZM35.8451 282.538H40.8462V284.964H35.8616V291.12H37.215C39.9549 291.12 42.1914 291.03 44.6589 290.592L44.4773 288.892C42.2739 289.255 40.3345 289.371 38.0403 289.387V286.631H42.9919V280.838H35.8451V282.538Z" fill="#ECECF8"/>
<path d="M32.8741 314.823H22.8554V316.061H31.3061V320.121H32.8741V314.823ZM20.7592 309.723C20.751 311.827 22.4098 313.313 24.638 313.305C25.8924 313.313 26.9652 312.826 27.6585 312.017H31.3061V314.047H32.8741V305.332H31.3061V307.445H27.6585C26.9735 306.636 25.8924 306.149 24.638 306.158C22.4098 306.149 20.751 307.635 20.7592 309.723ZM22.2612 309.723C22.253 308.402 23.2515 307.486 24.638 307.478C25.9667 307.486 26.9817 308.402 26.9817 309.723C26.9817 311.076 25.9667 311.976 24.638 311.984C23.2515 311.976 22.253 311.076 22.2612 309.723ZM28.3434 310.73C28.4342 310.416 28.4837 310.078 28.4837 309.723C28.4837 309.376 28.4342 309.046 28.3517 308.733H31.3061V310.73H28.3434ZM46.7716 305.283H45.2036V313.42H46.7716V310.036H48.9338V308.749H46.7716V305.283ZM35.1684 307.825H43.9822V306.587H40.3675V305.2H38.7995V306.587H35.1684V307.825ZM35.9771 310.812C35.9689 312.314 37.4048 313.23 39.5753 313.222C41.7457 313.23 43.1569 312.314 43.1569 310.812C43.1569 309.319 41.7457 308.386 39.5753 308.386C37.4048 308.386 35.9689 309.319 35.9771 310.812ZM37.215 315.285H45.2201V316.441H37.248V319.973H47.2832V318.784H38.783V317.546H46.7716V314.113H37.215V315.285ZM37.4956 310.812C37.4791 310.012 38.2961 309.517 39.5753 309.508C40.8462 309.517 41.6714 310.012 41.6879 310.812C41.6714 311.613 40.8462 312.083 39.5753 312.083C38.2961 312.083 37.4791 311.613 37.4956 310.812ZM66.3798 312.034H62.6001V307.94H66.2313V306.669H61.0321V313.288H66.3798V312.034ZM53.8853 318.273H67.4197V317.002H61.3622V313.998H59.8272V317.002H53.8853V318.273ZM55.0077 313.288H55.8825C57.4505 313.296 58.7874 313.255 60.3719 312.908L60.2399 311.604C58.9607 311.893 57.8054 311.984 56.5757 312.001V307.957H60.1078V306.686H55.0077V313.288ZM80.4588 309.657H71.8266V305.861H70.2751V310.911H80.4588V309.657ZM68.476 314.031H82.0103V312.776H68.476V314.031ZM70.1596 319.775H80.5579V318.487H71.7276V315.434H70.1596V319.775ZM92.7058 307.99V307.577H95.9573V306.306H87.8037V307.577H91.1213V307.99C91.113 309.995 89.6936 311.926 87.3911 312.727L88.1998 313.932C89.9576 313.313 91.2698 312.042 91.9383 310.441C92.6067 311.926 93.8942 313.09 95.5942 313.651L96.403 312.43C94.117 311.712 92.7058 309.888 92.7058 307.99ZM89.4707 316.275H97.9214V320.121H99.4894V315.005H89.4707V316.275ZM97.9214 314.262H99.4894V305.332H97.9214V314.262ZM106.306 308.584V308.452H108.848V307.198H106.306V305.498H104.821V307.198H102.246V308.452H104.821V308.584C104.812 310.375 103.789 312.067 101.916 312.826L102.658 313.981C104.094 313.395 105.085 312.289 105.605 310.944C106.133 312.182 107.107 313.197 108.501 313.734L109.244 312.545C107.362 311.877 106.306 310.251 106.306 308.584ZM104.392 316.408H112.892V320.121H114.443V315.137H104.392V316.408ZM109.772 314.328H111.274V310.499H112.958V314.394H114.443V305.349H112.958V309.211H111.274V305.597H109.772V314.328Z" fill="#ECECF8" fill-opacity="0.7"/>
<rect x="20.3521" y="328.704" width="128.197" height="24.9296" rx="12.4648" fill="#170330"/>
<path d="M31.9333 335.219H29.4575V347.169H31.9333V335.219ZM36.3402 341.986C36.3402 340.806 37.0417 340.121 38.0568 340.121C39.0718 340.121 39.666 340.781 39.6743 341.887V347.169H42.1006V341.458C42.1088 339.37 40.8874 338.091 39.0141 338.091C37.6854 338.091 36.7281 338.743 36.3237 339.775H36.2247V338.207H33.8974V347.169H36.3402V341.986ZM48.7687 338.207H46.9861V337.662C46.9861 336.911 47.407 336.614 48.191 336.606C48.323 336.614 48.5789 336.622 48.9337 336.655V334.806C48.5046 334.707 48.0342 334.658 47.4813 334.658C45.6822 334.658 44.5433 335.64 44.5433 337.53V338.207H43.2724V340.039H44.5433V347.169H46.9861V340.039H48.7687V338.207ZM50.2046 347.169H52.6474V342.069C52.6392 340.971 53.4562 340.204 54.562 340.204C54.9004 340.204 55.3708 340.261 55.6019 340.336V338.157C55.3873 338.108 55.0737 338.075 54.8261 338.075C53.8193 338.075 52.9858 338.66 52.6639 339.758H52.5649V338.207H50.2046V347.169ZM56.1135 344.66C56.1218 346.434 57.3844 347.342 59.101 347.334C60.4297 347.342 61.2879 346.756 61.7253 345.931H61.7914V347.169H64.1021V341.128C64.1103 338.966 62.2618 338.091 60.3059 338.091C57.9291 338.091 56.5757 339.312 56.4271 340.864H58.7544C58.8864 340.253 59.4063 339.882 60.2399 339.874C61.1559 339.882 61.6676 340.311 61.6758 341.062V341.788C61.2962 341.805 60.0913 341.862 59.4476 341.904C57.7228 342.011 56.1218 342.663 56.1135 344.66ZM58.4573 344.594C58.4573 343.901 58.9937 343.497 59.8437 343.422C60.2564 343.389 61.3044 343.331 61.6758 343.315V343.967C61.6841 344.916 60.9083 345.642 59.7942 345.65C59.0102 345.642 58.4573 345.279 58.4573 344.594ZM69.912 347.169H77.95V345.122H72.3877V342.217H77.5209V340.171H72.3877V337.266H77.9335V335.219H69.912V347.169ZM82.2579 341.986C82.2579 340.806 82.9594 340.121 83.9745 340.121C84.9895 340.121 85.5837 340.781 85.592 341.887V347.169H88.0182V341.458C88.0265 339.37 86.8051 338.091 84.9318 338.091C83.6031 338.091 82.6458 338.743 82.2414 339.775H82.1424V338.207H79.8151V347.169H82.2579V341.986ZM93.9436 350.718C96.4937 350.718 98.2928 349.554 98.301 347.268V338.207H95.8748V339.709H95.7757C95.4456 338.982 94.7194 338.091 93.2174 338.091C91.2368 338.091 89.5697 339.601 89.5697 342.63C89.5697 345.617 91.1955 347.045 93.2174 347.037C94.6616 347.045 95.4539 346.311 95.7757 345.584H95.8913V347.218C95.883 348.465 95.1238 348.952 93.9932 348.952C93.0193 348.952 92.3426 348.63 92.2106 347.912H89.8008C89.9411 349.603 91.4679 350.718 93.9436 350.718ZM92.0785 342.663C92.0703 341.12 92.7305 340.039 93.9767 340.039C95.2063 340.039 95.8913 341.07 95.8913 342.663C95.8913 344.256 95.198 345.197 93.9767 345.205C92.7388 345.197 92.0703 344.214 92.0785 342.663ZM100.199 347.169H102.642V338.207H100.199V347.169ZM100.084 335.797C100.084 336.474 100.686 337.035 101.421 337.035C102.147 337.035 102.749 336.474 102.741 335.797C102.749 335.104 102.147 334.551 101.421 334.542C100.686 334.551 100.084 335.104 100.084 335.797ZM106.983 341.986C106.983 340.806 107.684 340.121 108.699 340.121C109.714 340.121 110.309 340.781 110.317 341.887V347.169H112.743V341.458C112.751 339.37 111.53 338.091 109.657 338.091C108.328 338.091 107.371 338.743 106.966 339.775H106.867V338.207H104.54V347.169H106.983V341.986ZM118.702 347.351C120.913 347.342 122.399 346.269 122.745 344.611H120.418C120.179 345.147 119.585 345.51 118.751 345.518C117.488 345.51 116.688 344.677 116.688 343.323H122.811V342.63C122.811 339.577 120.955 338.091 118.603 338.091C115.978 338.091 114.27 339.964 114.278 342.729C114.27 345.568 115.953 347.342 118.702 347.351ZM116.688 341.788C116.737 340.757 117.53 339.915 118.652 339.923C119.741 339.915 120.492 340.699 120.501 341.788H116.688ZM128.407 347.351C130.618 347.342 132.104 346.269 132.45 344.611H130.123C129.884 345.147 129.29 345.51 128.456 345.518C127.194 345.51 126.393 344.677 126.393 343.323H132.516V342.63C132.516 339.577 130.66 338.091 128.308 338.091C125.683 338.091 123.975 339.964 123.983 342.729C123.975 345.568 125.659 347.342 128.407 347.351ZM126.393 341.788C126.443 340.757 127.235 339.915 128.357 339.923C129.447 339.915 130.197 340.699 130.206 341.788H126.393ZM134.051 347.169H136.494V342.069C136.486 340.971 137.303 340.204 138.409 340.204C138.747 340.204 139.218 340.261 139.449 340.336V338.157C139.234 338.108 138.921 338.075 138.673 338.075C137.666 338.075 136.833 338.66 136.511 339.758H136.412V338.207H134.051V347.169Z" fill="#944AF2"/>
<rect x="20.3521" y="328.704" width="128.197" height="24.9296" rx="12.4648" stroke="#944AF2" stroke-width="0.704225"/>
<rect x="20.3521" y="359.972" width="151.197" height="24.9296" rx="12.4648" fill="#170330"/>
<path d="M35.9441 369.903H38.3208C38.2878 367.791 36.5465 366.322 33.8974 366.322C31.2813 366.322 29.3667 367.766 29.375 369.936C29.375 371.686 30.6129 372.693 32.6265 373.188L33.9304 373.501C35.2344 373.823 35.9771 374.203 35.9771 375.02C35.9771 375.911 35.1353 376.522 33.8314 376.522C32.511 376.522 31.5537 375.911 31.4712 374.706H29.0614C29.1357 377.273 30.976 378.61 33.8644 378.602C36.7776 378.61 38.4776 377.207 38.4859 375.02C38.4776 373.031 36.9509 371.991 34.9042 371.521L33.8314 371.257C32.7998 371.026 31.9085 370.638 31.9168 369.771C31.925 368.979 32.6265 368.401 33.8809 368.401C35.0941 368.401 35.8451 368.954 35.9441 369.903ZM41.4899 381.804C43.3797 381.795 44.3618 380.871 44.8734 379.427L48.3726 369.474H45.7812L43.8831 376.076H43.7841L41.9025 369.474H39.3442L42.5627 378.684L42.4142 379.064C42.1171 379.839 41.7292 379.889 41.2423 379.889C40.9369 379.889 40.5656 379.881 40.252 379.856V381.754C40.5656 381.787 41.0112 381.795 41.4899 381.804ZM54.6776 372.132H56.9718C56.8398 370.431 55.4368 369.359 53.1756 369.359C50.8649 369.359 49.3876 370.431 49.3959 372.148C49.3876 373.477 50.2624 374.351 51.9707 374.69L53.4562 374.987C54.298 375.16 54.6776 375.449 54.6776 375.911C54.6776 376.489 54.0834 376.844 53.1921 376.852C52.2926 376.844 51.7231 376.481 51.6076 375.779H49.1483C49.3546 377.529 50.7741 378.61 53.1921 378.618C55.5771 378.61 57.1616 377.43 57.1699 375.664C57.1616 374.376 56.3199 373.6 54.5785 373.237L52.9775 372.907C52.1275 372.734 51.8139 372.42 51.8222 372.016C51.8139 371.471 52.4164 371.1 53.2086 371.092C54.0256 371.1 54.5703 371.504 54.6776 372.132ZM63.3924 369.474H61.7088V367.328H59.266V369.474H58.0282V371.306H59.266V376.027C59.2495 377.768 60.4544 378.56 62.2205 378.552C62.8229 378.56 63.2603 378.511 63.5244 378.47V376.538C63.2273 376.563 62.7982 376.588 62.5506 376.588C62.0554 376.571 61.7006 376.398 61.7088 375.68V371.306H63.3924V369.474ZM68.8886 378.618C71.1003 378.61 72.5858 377.537 72.9324 375.878H70.6052C70.3658 376.415 69.7717 376.778 68.9381 376.786C67.6755 376.778 66.875 375.944 66.875 374.591H72.9984V373.898C72.9984 370.844 71.1416 369.359 68.7896 369.359C66.1653 369.359 64.457 371.232 64.4652 373.997C64.457 376.836 66.1405 378.61 68.8886 378.618ZM66.875 373.056C66.9245 372.024 67.7168 371.182 68.8391 371.191C69.9285 371.182 70.6795 371.966 70.6877 373.056H66.875ZM74.5334 378.437H76.9762V373.056C76.968 372.041 77.6117 371.372 78.4452 371.372C79.2787 371.372 79.8399 371.942 79.8316 372.825V378.437H82.2084V372.957C82.2001 372.008 82.7448 371.372 83.6609 371.372C84.4614 371.372 85.0721 371.867 85.0638 372.891V378.437H87.5066V372.412C87.5066 370.456 86.343 369.359 84.6842 369.359C83.372 369.359 82.3487 370.027 81.9773 371.042H81.8948C81.5977 370.011 80.6817 369.359 79.452 369.359C78.2471 369.359 77.3393 369.994 76.9597 371.042H76.8607V369.474H74.5334V378.437ZM93.3329 378.437H101.371V376.39H95.8087V373.485H100.942V371.438H95.8087V368.533H101.355V366.487H93.3329V378.437ZM105.679 373.254C105.679 372.074 106.38 371.389 107.395 371.389C108.411 371.389 109.005 372.049 109.013 373.155V378.437H111.439V372.726C111.448 370.638 110.226 369.359 108.353 369.359C107.024 369.359 106.067 370.011 105.662 371.042H105.563V369.474H103.236V378.437H105.679V373.254ZM117.365 381.985C119.915 381.985 121.714 380.822 121.722 378.536V369.474H119.296V370.976H119.197C118.867 370.25 118.14 369.359 116.638 369.359C114.658 369.359 112.991 370.869 112.991 373.898C112.991 376.885 114.617 378.313 116.638 378.304C118.083 378.313 118.875 377.578 119.197 376.852H119.312V378.486C119.304 379.732 118.545 380.219 117.414 380.219C116.44 380.219 115.764 379.897 115.632 379.179H113.222C113.362 380.871 114.889 381.985 117.365 381.985ZM115.5 373.931C115.491 372.387 116.152 371.306 117.398 371.306C118.627 371.306 119.312 372.338 119.312 373.931C119.312 375.523 118.619 376.464 117.398 376.472C116.16 376.464 115.491 375.482 115.5 373.931ZM123.62 378.437H126.063V369.474H123.62V378.437ZM123.505 367.064C123.505 367.741 124.107 368.302 124.842 368.302C125.568 368.302 126.17 367.741 126.162 367.064C126.17 366.371 125.568 365.818 124.842 365.81C124.107 365.818 123.505 366.371 123.505 367.064ZM130.404 373.254C130.404 372.074 131.105 371.389 132.12 371.389C133.135 371.389 133.73 372.049 133.738 373.155V378.437H136.164V372.726C136.172 370.638 134.951 369.359 133.078 369.359C131.749 369.359 130.792 370.011 130.387 371.042H130.288V369.474H127.961V378.437H130.404V373.254ZM142.123 378.618C144.334 378.61 145.82 377.537 146.166 375.878H143.839C143.6 376.415 143.006 376.778 142.172 376.786C140.909 376.778 140.109 375.944 140.109 374.591H146.232V373.898C146.232 370.844 144.376 369.359 142.024 369.359C139.399 369.359 137.691 371.232 137.699 373.997C137.691 376.836 139.374 378.61 142.123 378.618ZM140.109 373.056C140.158 372.024 140.951 371.182 142.073 371.191C143.162 371.182 143.913 371.966 143.922 373.056H140.109ZM151.828 378.618C154.039 378.61 155.525 377.537 155.871 375.878H153.544C153.305 376.415 152.711 376.778 151.877 376.786C150.615 376.778 149.814 375.944 149.814 374.591H155.937V373.898C155.937 370.844 154.081 369.359 151.729 369.359C149.104 369.359 147.396 371.232 147.404 373.997C147.396 376.836 149.08 378.61 151.828 378.618ZM149.814 373.056C149.864 372.024 150.656 371.182 151.778 371.191C152.868 371.182 153.618 371.966 153.627 373.056H149.814ZM157.472 378.437H159.915V373.336C159.907 372.239 160.724 371.471 161.83 371.471C162.168 371.471 162.639 371.529 162.87 371.603V369.425C162.655 369.375 162.342 369.342 162.094 369.342C161.087 369.342 160.254 369.928 159.932 371.026H159.833V369.474H157.472V378.437Z" fill="#944AF2"/>
<rect x="20.3521" y="359.972" width="151.197" height="24.9296" rx="12.4648" stroke="#944AF2" stroke-width="0.704225"/>
<path d="M28.2746 415.818H21.4305V419.339H24.1483V420.296H20.2971V421.429H29.43V420.296H25.5568V419.339H28.2746V415.818ZM21.3094 423.267H26.9212V425.435H28.3187V422.167H21.3094V423.267ZM22.8059 418.238V416.907H26.8992V418.238H22.8059ZM39.2011 423.201H36.8794V421.297H38.3869V420.164H37.0224V417.347H38.4309V416.225H30.7504V417.347H32.1369V420.164H30.7945V421.297H32.3129V423.201H30.0352V424.323H39.2011V423.201ZM33.5453 420.164V417.347H35.636V420.164H33.5453ZM33.7214 423.201V421.297H35.471V423.201H33.7214Z" fill="#ECECF8" fill-opacity="0.5"/>
<path d="M21.1914 434.099V448.239H24.043V438.942H24.1602L27.8516 448.181H29.8047L33.4961 438.981H33.6133V448.239H36.4648V434.099H32.832L28.9062 443.688H28.75L24.8242 434.099H21.1914ZM38.8477 448.239H47.8711V445.817H41.7773V434.099H38.8477V448.239ZM62.1484 441.169C62.1484 436.55 59.2871 433.903 55.5469 433.903C51.7773 433.903 48.9258 436.55 48.9258 441.169C48.9258 445.769 51.7773 448.435 55.5469 448.435C59.2871 448.435 62.1484 445.788 62.1484 441.169ZM51.9141 441.169C51.9141 438.142 53.3496 436.511 55.5469 436.501C57.7246 436.511 59.1699 438.142 59.1602 441.169C59.1699 444.187 57.7246 445.827 55.5469 445.837C53.3496 445.827 51.9141 444.187 51.9141 441.169ZM64.1992 452.224H67.0898V446.54H67.168C67.5781 447.419 68.4668 448.415 70.1953 448.415C72.6172 448.415 74.502 446.491 74.4922 442.946C74.502 439.313 72.5391 437.497 70.1953 437.497C68.4082 437.497 67.5684 438.552 67.168 439.411H67.0508V437.634H64.1992V452.224ZM67.0312 442.927C67.0215 441.022 67.832 439.802 69.2773 439.802C70.7715 439.802 71.5527 441.081 71.543 442.927C71.5527 444.802 70.752 446.101 69.2773 446.11C67.8418 446.101 67.0215 444.841 67.0312 442.927ZM82.4219 440.778H85.1367C84.9805 438.767 83.3203 437.497 80.6445 437.497C77.9102 437.497 76.1621 438.767 76.1719 440.798C76.1621 442.37 77.1973 443.405 79.2188 443.806L80.9766 444.157C81.9727 444.362 82.4219 444.704 82.4219 445.251C82.4219 445.935 81.7188 446.354 80.6641 446.364C79.5996 446.354 78.9258 445.925 78.7891 445.095H75.8789C76.123 447.165 77.8027 448.444 80.6641 448.454C83.4863 448.444 85.3613 447.048 85.3711 444.958C85.3613 443.435 84.3652 442.517 82.3047 442.087L80.4102 441.696C79.4043 441.491 79.0332 441.12 79.043 440.642C79.0332 439.997 79.7461 439.558 80.6836 439.548C81.6504 439.558 82.2949 440.036 82.4219 440.778ZM102.793 440.231H86.5234V442.087H102.793V440.231ZM88.3789 444.685H98.3789V445.583H88.3984V449.88H101.367V448.181H90.8789V447.165H100.84V442.966H88.3789V444.685ZM88.5156 434.274H98.3203V435.173H88.5547V439.392H101.133V437.712H91.0352V436.755H100.82V432.575H88.5156V434.274ZM124.688 440.915H108.418V442.907H115.43V445.993H117.949V442.907H124.688V440.915ZM110.098 436.286C110.098 438.552 112.676 439.958 116.543 439.958C120.391 439.958 122.959 438.552 122.969 436.286C122.959 434.03 120.391 432.614 116.543 432.595C112.676 432.614 110.098 434.03 110.098 436.286ZM110.352 449.724H122.891V447.712H112.871V444.411H110.352V449.724ZM112.793 436.286C112.783 435.153 114.248 434.567 116.543 434.567C118.838 434.567 120.293 435.153 120.293 436.286C120.293 437.37 118.838 437.956 116.543 437.966C114.248 437.956 112.783 437.37 112.793 436.286ZM130.684 433.22C127.988 433.21 125.938 435.036 125.957 437.575C125.938 440.085 127.988 441.921 130.684 441.911C132.09 441.921 133.32 441.403 134.17 440.544H138.223V442.673H140.703V432.263H138.223V434.606H134.189C133.34 433.737 132.1 433.21 130.684 433.22ZM128.32 437.575C128.311 436.159 129.297 435.339 130.684 435.349C132.021 435.339 132.998 436.159 133.008 437.575C132.998 438.942 132.021 439.812 130.684 439.802C129.297 439.812 128.311 438.942 128.32 437.575ZM128.516 446.54C128.516 448.747 130.869 450.046 134.629 450.036C138.389 450.046 140.752 448.747 140.762 446.54C140.752 444.333 138.389 443.034 134.629 443.044C130.869 443.034 128.516 444.333 128.516 446.54ZM130.957 446.54C130.957 445.476 132.275 444.948 134.629 444.938C137.031 444.948 138.311 445.476 138.32 446.54C138.311 447.575 137.031 448.103 134.629 448.103C132.275 448.103 130.957 447.575 130.957 446.54ZM135.254 436.579H138.223V438.552H135.264C135.332 438.239 135.371 437.917 135.371 437.575C135.371 437.233 135.332 436.892 135.254 436.579ZM157.031 432.263H154.57V450.036H157.031V441.267H159.648V439.216H157.031V432.263ZM142.91 436.911H153.359V434.919H149.434V432.536H146.934V434.919H142.91V436.911ZM143.633 442.146C143.623 444.626 145.557 446.374 148.184 446.384C150.771 446.374 152.715 444.626 152.715 442.146C152.715 439.665 150.771 437.897 148.184 437.907C145.557 437.897 143.623 439.665 143.633 442.146ZM146.016 442.146C146.016 440.778 146.924 439.938 148.184 439.919C149.424 439.938 150.332 440.778 150.332 442.146C150.332 443.522 149.424 444.343 148.184 444.333C146.924 444.343 146.016 443.522 146.016 442.146ZM169.473 433.708H161.035V442.36H169.473V440.856H172.793V445.212H175.273V432.282H172.793V435.056H169.473V433.708ZM163.438 449.724H175.645V447.731H165.957V443.981H163.438V449.724ZM163.516 440.427V435.681H167.031V440.427H163.516ZM169.473 438.884V437.067H172.793V438.884H169.473ZM184.297 436.286V433.63H181.777V436.286C181.758 439.626 180.371 443.054 177.324 444.431L178.887 446.462C180.918 445.466 182.285 443.552 183.047 441.218C183.789 443.415 185.117 445.192 187.09 446.149L188.613 444.157C185.654 442.878 184.307 439.626 184.297 436.286ZM186.621 439.86H190.117V450.075H192.578V432.263H190.117V437.849H186.621V439.86ZM214.355 432.282H211.855V445.056H214.355V432.282ZM199.746 437.888C199.746 440.534 201.875 442.399 204.609 442.399C207.334 442.399 209.463 440.534 209.473 437.888C209.463 435.28 207.334 433.405 204.609 433.415C201.875 433.405 199.746 435.28 199.746 437.888ZM202.188 437.888C202.168 436.442 203.213 435.573 204.609 435.583C205.957 435.573 207.002 436.442 207.012 437.888C207.002 439.372 205.957 440.231 204.609 440.231C203.213 440.231 202.168 439.372 202.188 437.888ZM202.441 449.724H214.824V447.731H204.961V443.767H202.441V449.724ZM233.027 445.896H216.758V447.966H233.027V445.896ZM218.027 435.817H220.488V441.208H218.105V443.161H231.582V441.208H229.16V435.817H231.66V433.825H218.027V435.817ZM222.988 441.208V435.817H226.699V441.208H222.988ZM248.066 432.263H245.605V450.075H248.066V441.032H250.684V438.981H248.066V432.263ZM234.766 435.759H240.508V438.669H234.785V445.935H236.289C239.414 445.935 241.855 445.827 244.57 445.329L244.355 443.337C241.992 443.737 239.854 443.854 237.266 443.864V440.642H242.988V433.747H234.766V435.759ZM261.582 433.259H251.934V435.231H255.508C255.488 437.438 254.16 439.792 251.23 440.72L252.5 442.692C254.6 442.019 256.016 440.593 256.807 438.825C257.578 440.417 258.936 441.706 260.898 442.321L262.129 440.407C259.326 439.479 258.057 437.321 258.047 435.231H261.582V433.259ZM254.102 445.622H263.828V450.036H266.309V443.63H254.102V445.622ZM261.074 438.571H263.828V442.849H266.309V432.263H263.828V436.54H261.074V438.571ZM35.4102 456.263H32.8906V474.075H35.4102V456.263ZM21.0547 463.841C21.0449 467.747 23.0273 470.188 25.7617 470.188C28.4375 470.188 30.4297 467.747 30.4297 463.841C30.4297 459.964 28.4375 457.513 25.7617 457.513C23.0273 457.513 21.0449 459.964 21.0547 463.841ZM23.457 463.841C23.4473 461.204 24.375 459.759 25.7617 459.759C27.1094 459.759 28.0176 461.204 28.0273 463.841C28.0176 466.487 27.1094 467.933 25.7617 467.923C24.375 467.933 23.4473 466.487 23.457 463.841ZM54.0625 466.067H37.793V468.079H41.5625V474.075H44.0625V468.079H47.8906V474.075H50.3906V468.079H54.0625V466.067ZM38.4375 462.649L39.4141 464.681C42.5 464.212 44.7754 462.737 45.9375 460.804C47.1094 462.747 49.3848 464.212 52.4805 464.681L53.4375 462.649C49.4238 462.122 47.2363 459.759 47.2461 457.649V456.79H44.6289V457.649C44.6191 459.769 42.4414 462.112 38.4375 462.649ZM69.1211 456.263H66.6211V473.997H69.1211V465.13H71.6406V463.079H69.1211V456.263ZM54.9023 469.017L56.3086 470.931C62.2852 467.991 64.3555 463.392 64.375 458.079H55.918V460.11H61.8457C61.377 464.075 59.1113 466.907 54.9023 469.017ZM83.457 467.669V467.063H81.0352V467.669C81.0254 469.397 80.0293 471.165 77.6953 471.966L78.9258 473.782C80.5469 473.206 81.6406 472.132 82.2754 470.813C82.8516 472.181 83.8965 473.333 85.5664 473.938C87.1582 473.313 88.1934 472.122 88.7793 470.745C89.3945 472.122 90.5078 473.206 92.207 473.782L93.418 471.966C91.0449 471.233 90.0586 469.524 90.0781 467.669V467.063H87.6172V467.669C87.6172 468.987 86.9727 470.511 85.498 471.556C84.0625 470.579 83.457 469.095 83.457 467.669ZM77.2656 461.458C77.2656 463.929 79.3555 465.706 82.1289 465.696C84.8926 465.706 86.9824 463.929 86.9922 461.458C86.9824 458.938 84.8926 457.181 82.1289 457.181C79.3555 457.181 77.2656 458.938 77.2656 461.458ZM79.707 461.458C79.6875 460.081 80.7031 459.271 82.1289 459.271C83.5156 459.271 84.5215 460.081 84.5312 461.458C84.5215 462.796 83.5156 463.636 82.1289 463.626C80.7031 463.636 79.6875 462.796 79.707 461.458ZM89.375 466.321H91.875V456.282H89.375V466.321ZM102.383 456.517C98.2812 456.517 95.8984 457.591 95.8984 459.544C95.8984 461.526 98.2812 462.591 102.383 462.591C106.475 462.591 108.838 461.526 108.848 459.544C108.838 457.591 106.475 456.517 102.383 456.517ZM94.2773 465.403H110.488V463.431H94.2773V465.403ZM96.1523 468.255H106.055V469.231H96.1719V473.919H108.984V472.044H98.6133V470.97H108.516V466.438H96.1523V468.255ZM98.5156 459.544C98.5059 458.753 99.7754 458.333 102.383 458.333C105.01 458.333 106.27 458.753 106.27 459.544C106.27 460.413 105.01 460.755 102.383 460.755C99.7754 460.755 98.5059 460.413 98.5156 459.544ZM123.477 456.556H121.191V473.235H123.477V465.188H124.824V474.036H127.168V456.263H124.824V463.157H123.477V456.556ZM111.855 469.72H112.656C113.594 469.729 114.551 469.7 115.84 469.427L115.664 467.356C115.107 467.493 114.609 467.571 114.141 467.62V460.384H115.664V458.392H111.855V469.72ZM116.348 469.72H117.148C118.242 469.729 119.287 469.71 120.625 469.427L120.469 467.356C119.766 467.522 119.15 467.61 118.574 467.64V460.384H120.254V458.392H116.348V469.72ZM142.031 458.978H138.984V456.751H136.523V458.978H133.438V460.95H142.031V458.978ZM133.848 465.97C133.848 468.45 135.508 470.208 137.773 470.208C140.049 470.208 141.67 468.45 141.68 465.97C141.67 463.499 140.049 461.761 137.773 461.751C135.508 461.761 133.848 463.499 133.848 465.97ZM136.035 465.97C136.035 464.632 136.738 463.821 137.773 463.821C138.77 463.821 139.482 464.632 139.492 465.97C139.482 467.327 138.77 468.099 137.773 468.099C136.738 468.099 136.035 467.327 136.035 465.97ZM142.695 473.274H145.02V465.481H146.465V474.036H148.828V456.263H146.465V463.489H145.02V456.614H142.695V473.274ZM165.723 456.263H163.242V458.489H159.883C159.961 458.001 160 457.483 160 456.946H151.953V458.958H157.236C156.904 461.097 155.029 462.786 150.957 463.587L151.797 465.618C155.732 464.759 158.271 463.05 159.375 460.384H163.242V461.946H159.18V463.841H163.242V465.208H165.723V456.263ZM153.906 467.806H163.223V468.88H153.926V473.86H166.113V471.888H156.426V470.716H165.723V465.853H153.906V467.806ZM182.129 456.263H179.629V466.673H182.129V462.61H184.531V460.54H182.129V456.263ZM168.027 459.778H178.574V457.825H174.551V456.146H172.07V457.825H168.027V459.778ZM168.887 463.431C168.887 465.325 170.684 466.575 173.301 466.575C175.889 466.575 177.676 465.325 177.676 463.431C177.676 461.536 175.889 460.286 173.301 460.286C170.684 460.286 168.887 461.536 168.887 463.431ZM170.488 473.841H182.129V467.356H179.629V468.704H172.969V467.356H170.488V473.841ZM171.328 463.431C171.318 462.601 172.109 462.103 173.301 462.122C174.502 462.103 175.312 462.601 175.312 463.431C175.312 464.29 174.502 464.749 173.301 464.759C172.109 464.749 171.318 464.29 171.328 463.431ZM172.969 471.888V470.618H179.629V471.888H172.969ZM200.254 456.263H197.773V474.036H200.254V456.263ZM186.27 469.642H187.832C190.576 469.651 193.525 469.456 196.641 468.802L196.328 466.751C193.711 467.259 191.133 467.483 188.73 467.522V457.962H186.27V469.642ZM216.621 456.263H214.121V474.075H216.621V464.896H219.238V462.864H216.621V456.263ZM203.301 469.759H204.805C207.939 469.769 210.361 469.7 213.125 469.231L212.852 467.142C210.488 467.552 208.359 467.688 205.781 467.708V459.915H211.641V457.903H203.301V469.759ZM222.188 472.415C223.057 472.415 223.809 471.683 223.809 470.774C223.809 469.876 223.057 469.144 222.188 469.153C221.27 469.144 220.527 469.876 220.547 470.774C220.527 471.683 221.27 472.415 222.188 472.415Z" fill="#ECECF8"/>
<rect x="0.5" y="0.5" width="299" height="599" rx="19.5" stroke="#282B30"/>
<defs>
<filter id="filter0_f_17_3805" x="164.054" y="126.713" width="20.5642" height="22.5344" filterUnits="userSpaceOnUse" color-interpolation-filters="sRGB">
<feFlood flood-opacity="0" result="BackgroundImageFix"/>
<feBlend mode="normal" in="SourceGraphic" in2="BackgroundImageFix" result="shape"/>
<feGaussianBlur stdDeviation="1.76056" result="effect1_foregroundBlur_17_3805"/>
</filter>
<linearGradient id="paint0_linear_17_3805" x1="150" y1="46" x2="150" y2="243.183" gradientUnits="userSpaceOnUse">
<stop stop-color="#CDEFE3"/>
<stop offset="1" stop-color="#8CB2A5" stop-opacity="0"/>
</linearGradient>
</defs>
</svg>
