<svg width="300" height="645" viewBox="0 0 300 645" fill="none" xmlns="http://www.w3.org/2000/svg">
<rect width="300" height="644.225" rx="20" fill="black"/>
<g clip-path="url(#clip0_17_3682)">
<rect x="20" y="45" width="260" height="197.183" rx="8.4507" fill="url(#paint0_linear_17_3682)"/>
<ellipse cx="190.669" cy="131.879" rx="4.57746" ry="11.9718" transform="rotate(9.95946 190.669 131.879)" fill="#D36266"/>
<path d="M143.134 197.113C144.261 194.296 141.725 170.587 140.317 159.084C143.697 163.31 166.843 168.826 177.993 171.056C177.876 178.568 178.275 194.296 180.81 197.113C183.979 200.634 174.824 215.423 170.246 219.296C165.669 223.169 141.725 200.634 143.134 197.113Z" fill="#EB8682"/>
<mask id="mask0_17_3682" style="mask-type:alpha" maskUnits="userSpaceOnUse" x="140" y="159" width="42" height="61">
<path d="M143.134 197.113C144.261 194.296 141.726 170.587 140.317 159.084C143.698 163.31 166.843 168.826 177.993 171.056C177.876 178.568 178.275 194.296 180.81 197.113C183.979 200.634 174.824 215.423 170.247 219.296C165.669 223.169 141.726 200.634 143.134 197.113Z" fill="#EB8682"/>
</mask>
<g mask="url(#mask0_17_3682)">
<path d="M179.05 191.127C162.148 202.394 148.298 170.587 135.74 159.437L195.247 184.789C191.726 186.314 182.979 188.507 179.05 191.127Z" fill="#8F5250"/>
</g>
<path d="M180.472 80.212C178.5 78.5219 169.087 79.5078 164.627 80.212C162.632 82.9113 158.712 89.2959 158.993 93.2395C159.345 98.1691 173.43 91.8311 180.472 91.8311C186.106 91.8311 189.392 113.193 190.331 123.873C190.801 119.061 191.458 108.592 190.331 105.211C188.923 100.986 191.036 95.0001 189.275 91.8311C187.514 88.6621 182.937 82.3247 180.472 80.212Z" fill="#615151"/>
<path d="M143.842 131.714C149.476 124.39 153.936 111.995 155.462 106.714C162.27 108.122 174.268 108.122 167.789 96.8544C159.691 82.7699 124.826 92.5354 114.615 103.451C106.446 112.183 117.318 142.16 124.126 148.967L150.88 170.704C151.232 169.296 144.687 152.629 143.842 148.967C142.786 144.39 136.8 140.869 143.842 131.714Z" fill="#806669"/>
<path d="M191.119 121.699C191.401 117.474 186.072 99.7506 183.373 91.4173C168.936 77.6849 151.684 91.4173 142.528 96.699C135.203 100.924 135.251 121.229 136.191 130.854C134.782 130.737 130.767 130.572 125.979 130.854C119.994 131.206 123.514 134.727 122.457 140.713C121.401 146.699 129.148 150.572 131.964 153.741C134.218 156.276 139.946 156.441 142.528 156.206C143.819 159.023 146.824 165.783 148.514 170.291C150.626 175.924 176.331 184.023 183.373 184.727C190.415 185.431 191.119 174.164 195.345 162.896C199.57 151.629 194.641 151.629 193.232 148.107C191.824 144.586 190.767 126.981 191.119 121.699Z" fill="#EB8682"/>
<path d="M175.878 125.282C176.113 129.155 177.076 137.254 179.047 138.662C181.512 140.423 186.442 142.183 184.329 145C182.216 147.817 181.16 148.873 179.752 148.873C178.343 148.873 175.878 148.873 174.822 148.169C173.766 147.465 173.061 145.704 170.949 145.704M168.132 146.761C167.662 145.587 166.935 142.958 167.78 141.831" stroke="black" stroke-width="0.704225" stroke-linecap="round"/>
<path d="M163.556 125.634L166.021 127.042C166.256 129.859 165.669 135.563 161.444 135.845C157.218 136.127 153.345 132.911 151.937 131.268C153.908 128.451 160.505 126.338 163.556 125.634Z" fill="#D9D9D9" stroke="black" stroke-width="0.704225" stroke-linecap="round"/>
<mask id="mask1_17_3682" style="mask-type:alpha" maskUnits="userSpaceOnUse" x="151" y="125" width="16" height="12">
<path d="M163.556 125.634L166.021 127.042C166.256 129.859 165.669 135.563 161.444 135.845C157.218 136.127 153.345 132.911 151.937 131.268C153.908 128.451 160.505 126.338 163.556 125.634Z" fill="#D9D9D9" stroke="black" stroke-width="0.704225" stroke-linecap="round"/>
</mask>
<g mask="url(#mask1_17_3682)">
<path d="M163.556 133.732C159.894 133.732 158.979 128.568 158.979 125.986C158.979 123.873 163.556 123.169 166.373 123.169C168.627 123.169 169.66 127.864 169.894 130.211C169.308 131.385 167.218 133.732 163.556 133.732Z" fill="#131313"/>
</g>
<path d="M184.855 120.704L186.46 122.113C186.612 124.929 186.23 130.634 183.479 130.915C180.728 131.197 178.206 127.981 177.289 126.338C178.573 123.521 182.868 121.408 184.855 120.704Z" fill="#D9D9D9" stroke="black" stroke-width="0.704225" stroke-linecap="round"/>
<mask id="mask2_17_3682" style="mask-type:alpha" maskUnits="userSpaceOnUse" x="176" y="120" width="11" height="12">
<path d="M184.855 120.704L186.46 122.113C186.613 124.929 186.231 130.634 183.48 130.915C180.729 131.197 178.207 127.981 177.29 126.338C178.574 123.521 182.868 121.408 184.855 120.704Z" fill="#D9D9D9" stroke="black" stroke-width="0.704225" stroke-linecap="round"/>
</mask>
<g mask="url(#mask2_17_3682)">
<path d="M184.856 128.803C182.471 128.803 181.875 123.638 181.875 121.056C181.875 118.943 184.856 118.239 186.69 118.239C188.157 118.239 188.83 122.934 188.982 125.282C188.6 126.455 187.24 128.803 184.856 128.803Z" fill="#131313"/>
</g>
<path d="M164.261 117.887L167.43 113.662H156.514L149.824 116.831L143.486 125.282C145.247 124.225 149.19 121.902 150.88 121.056C152.57 120.211 160.505 118.592 164.261 117.887Z" fill="#614746"/>
<path d="M182.488 117.119L180.81 115.07H186.589L190.13 116.607L191.021 118.944C188.79 117.718 185.009 117.552 182.488 117.119Z" fill="#614746"/>
<path d="M145.595 113.31C151.229 105.986 155.689 93.5913 157.215 88.3096C164.023 89.718 176.021 89.718 169.542 78.4504C161.444 64.3659 125.879 88.3096 115.667 99.2251C107.498 107.957 119.071 123.756 125.879 130.563L137.496 139.366C137.848 137.957 138.341 134.225 137.496 130.563C136.44 125.986 138.553 122.465 145.595 113.31Z" fill="#806669"/>
<path d="M182.923 155.563C177.007 157.535 167.782 158.967 163.908 159.437C166.021 161.549 172.711 161.902 177.641 160.845C181.585 160 182.805 156.972 182.923 155.563Z" fill="#E26762"/>
<path d="M183.275 155.563C178.228 156.972 167.289 159.718 163.908 159.437" stroke="black" stroke-width="0.704225" stroke-linecap="round"/>
<path d="M168.829 134.105C168.829 134.806 169.397 135.374 170.098 135.374C170.798 135.374 171.366 134.806 171.366 134.105H168.829ZM177.428 133.182C177.428 133.883 177.995 134.45 178.696 134.45C179.397 134.45 179.965 133.883 179.965 133.182H177.428ZM152.824 134.862C153.492 135.073 154.204 134.702 154.416 134.034C154.627 133.366 154.256 132.654 153.589 132.443L152.824 134.862ZM123.281 129.27L123.827 130.415C123.84 130.409 123.854 130.402 123.867 130.395L123.281 129.27ZM117.587 138.271C117.715 138.96 118.377 139.414 119.066 139.287C119.754 139.159 120.209 138.497 120.081 137.808L117.587 138.271ZM168.829 133.652C168.829 138.54 165.447 142.171 161.655 142.171V144.708C167.188 144.708 171.366 139.576 171.366 133.652H168.829ZM161.655 142.171C157.862 142.171 154.48 138.54 154.48 133.652H151.943C151.943 139.576 156.122 144.708 161.655 144.708V142.171ZM154.48 133.652C154.48 128.764 157.862 125.133 161.655 125.133V122.596C156.122 122.596 151.943 127.728 151.943 133.652H154.48ZM161.655 125.133C165.447 125.133 168.829 128.764 168.829 133.652H171.366C171.366 127.728 167.188 122.596 161.655 122.596V125.133ZM194.235 131.761C194.235 136.648 190.854 140.28 187.061 140.28V142.817C192.594 142.817 196.772 137.684 196.772 131.761H194.235ZM187.061 140.28C183.268 140.28 179.887 136.648 179.887 131.761H177.35C177.35 137.684 181.529 142.817 187.061 142.817V140.28ZM179.887 131.761C179.887 126.873 183.268 123.241 187.061 123.241V120.704C181.529 120.704 177.35 125.837 177.35 131.761H179.887ZM187.061 123.241C190.854 123.241 194.235 126.873 194.235 131.761H196.772C196.772 125.837 192.594 120.704 187.061 120.704V123.241ZM171.366 134.105C171.366 133.672 171.576 133.288 172.123 132.94C172.697 132.573 173.546 132.328 174.474 132.272C175.403 132.215 176.259 132.357 176.828 132.616C177.407 132.878 177.428 133.108 177.428 133.182H179.965C179.965 131.697 178.91 130.774 177.876 130.305C176.833 129.832 175.54 129.665 174.319 129.74C173.097 129.814 171.797 130.139 170.759 130.8C169.694 131.479 168.829 132.58 168.829 134.105H171.366ZM153.206 133.652C153.589 132.443 153.588 132.442 153.588 132.442C153.588 132.442 153.587 132.442 153.587 132.442C153.586 132.442 153.585 132.441 153.583 132.441C153.58 132.44 153.575 132.438 153.569 132.437C153.557 132.433 153.539 132.427 153.516 132.42C153.47 132.405 153.401 132.384 153.311 132.356C153.132 132.301 152.87 132.22 152.535 132.119C151.864 131.918 150.901 131.633 149.727 131.302C147.381 130.64 144.184 129.789 140.792 129.037C137.406 128.286 133.793 127.626 130.622 127.357C129.037 127.222 127.534 127.182 126.209 127.286C124.903 127.388 123.671 127.636 122.694 128.145L123.867 130.395C124.406 130.114 125.247 129.906 126.406 129.815C127.547 129.726 128.903 129.757 130.407 129.885C133.416 130.141 136.905 130.774 140.243 131.514C143.574 132.252 146.721 133.09 149.039 133.744C150.196 134.07 151.145 134.35 151.803 134.549C152.132 134.648 152.389 134.726 152.562 134.78C152.649 134.807 152.715 134.827 152.759 134.841C152.781 134.848 152.797 134.853 152.808 134.857C152.814 134.858 152.818 134.86 152.82 134.86C152.822 134.861 152.823 134.861 152.823 134.861C152.823 134.861 152.824 134.861 152.824 134.862C152.824 134.862 152.824 134.862 153.206 133.652ZM122.735 128.125C120.882 129.008 119.373 130.483 118.443 132.319L120.705 133.466C121.384 132.128 122.482 131.056 123.827 130.415L122.735 128.125ZM118.443 132.319C117.512 134.154 117.212 136.246 117.587 138.271L120.081 137.808C119.807 136.331 120.027 134.804 120.705 133.466L118.443 132.319Z" fill="black"/>
<path d="M157.57 158.031C160.387 153.242 168.838 148.759 172.711 147.116C174.472 146.317 174.12 147.116 175.176 148.172C176.232 149.228 177.289 149.228 179.401 149.228C181.514 149.228 181.866 148.172 182.218 147.116C182.57 146.059 183.979 147.82 188.204 149.228C192.43 150.637 189.965 150.637 190.669 152.397C191.373 154.158 186.444 152.397 185.74 154.51C185.035 156.623 179.754 153.454 178.697 154.51C177.641 155.566 172.711 155.566 170.951 157.327C169.542 158.735 164.965 158.383 162.852 158.031C159.918 160.026 154.754 162.82 157.57 158.031Z" fill="#614746"/>
<path d="M88.5564 218.944C89.4014 216.69 122.007 203.92 138.204 197.817L154.401 208.732C158.275 212.136 166.655 218.38 169.19 216.127C171.725 213.873 177.758 205.563 180.458 201.69C188.791 204.859 207.218 211.69 214.261 213.662C221.303 215.634 223.063 233.498 223.063 242.183H76.9366C80.4578 235.376 87.7113 221.197 88.5564 218.944Z" fill="#214134"/>
<path d="M162.852 209.085L144.894 196.057C142.923 196.057 141.491 190.423 143.134 188.31L133.979 196.057L146.655 221.409C148.885 218.709 153.979 213.169 156.514 212.606C159.049 212.042 165.082 217.066 167.782 219.648L162.852 209.085Z" fill="#EEEEEE"/>
<path d="M169.689 209.085L177.92 196.057C178.823 196.057 179.48 190.423 178.727 188.31L182.923 196.057L187.5 219.648C186.478 216.949 173.756 213.169 172.594 212.606C171.432 212.042 168.667 217.066 167.43 219.648L169.689 209.085Z" fill="#EEEEEE"/>
<path d="M179.401 170.706C174.12 170.119 162.5 168.946 158.275 168.946C155.497 168.946 139.261 136.901 139.261 136.901L137.5 140.07C137.5 140.07 147.993 171.269 149.12 173.523C150.246 175.777 172.359 182.913 183.275 186.199C184.683 185.612 187.782 184.438 188.908 184.438C190.035 184.438 195.716 167.537 198.415 159.086L195.599 150.988V154.861C195.599 156.974 186.092 165.777 185.035 166.833C184.19 167.678 181.631 164.368 180.458 162.608L177.993 163.312L179.401 170.706Z" fill="#614746"/>
<path d="M181.162 92.8876C181.162 88.6622 176.232 85.0237 173.768 83.7327C177.289 79.5073 181.162 84.789 185.035 87.958C188.134 90.4932 182.101 98.6388 178.697 102.395C179.519 100.986 181.162 97.1129 181.162 92.8876Z" fill="#615151"/>
<path d="M131.515 137.958C131.797 138.24 133.745 141.831 134.684 143.592C135.39 144.905 134.331 146.057 133.627 146.057C132.923 146.057 132.57 147.465 132.923 148.521C133.275 149.578 134.331 152.042 132.923 152.747C131.514 153.451 124.825 145.704 123.769 144.296C122.712 142.888 122.712 138.662 123.417 136.55C124.121 134.437 125.529 135.141 126.938 134.437C128.346 133.733 131.163 137.606 131.515 137.958Z" fill="#D36266"/>
<path d="M133.979 141.832C132.57 139.132 129.12 133.874 126.584 134.437C124.049 135.001 123.181 136.315 123.063 136.902" stroke="#793033" stroke-width="0.704225" stroke-linecap="round"/>
<path d="M133.275 112.512C142.289 108.85 149.472 95.7283 151.937 89.625C148.556 112.724 124.472 119.672 112.852 120.259C115.904 119.202 124.261 116.174 133.275 112.512Z" fill="#D9D9D9"/>
<path d="M130.106 124.836C139.12 121.174 139.965 115.799 142.43 109.695C139.049 132.794 127.289 127.066 115.669 127.653C118.721 126.597 121.092 128.498 130.106 124.836Z" fill="#D9D9D9"/>
<path d="M128.003 106.98C135.311 103.865 141.135 92.7035 143.134 87.5122C140.393 107.159 120.865 113.069 111.444 113.569C113.918 112.67 120.694 110.094 128.003 106.98Z" fill="#D9D9D9"/>
</g>
<path d="M30.6597 259.113H29.353V271.464H30.6597V259.113ZM20.8803 264.353C20.8803 267.015 22.2076 268.693 24.0713 268.686C25.9006 268.693 27.2486 267.015 27.2486 264.353C27.2486 261.719 25.9006 260.041 24.0713 260.034C22.2076 260.041 20.8803 261.719 20.8803 264.353ZM22.1457 264.353C22.1388 262.421 22.9228 261.21 24.0713 261.203C25.1992 261.21 25.9832 262.421 25.9832 264.353C25.9832 266.313 25.1992 267.517 24.0713 267.517C22.9228 267.517 22.1388 266.313 22.1457 264.353ZM43.8914 265.426H32.6128V266.471H43.8914V265.426ZM34.0295 260.419H41.168V261.465H34.057V264.491H42.7223V263.487H35.3499V262.428H42.4747V259.388H34.0295V260.419ZM34.112 271.285H42.4884V267.475H34.112V271.285ZM35.4049 270.226V268.521H41.1955V270.226H35.4049Z" fill="#ECECF8" fill-opacity="0.7"/>
<path d="M34.1945 290.153H28.3682V286.803H26.2555V290.153H20.4456V291.853H34.1945V290.153ZM21.0068 285.796L21.8321 287.463C24.4234 286.993 26.3545 285.664 27.3036 283.857C28.2774 285.639 30.225 286.918 32.8576 287.38L33.6829 285.713C30.4643 285.243 28.5827 283.403 28.4177 281.422H32.9897V279.722H21.5845V281.422H26.173C25.9914 283.411 24.1263 285.293 21.0068 285.796ZM49.0328 284.277H46.9036V278.583H44.7909V293.57H46.9036V285.994H49.0328V284.277ZM35.5315 289.906H36.8354C39.0471 289.906 41.4816 289.774 43.9987 289.262L43.7841 287.513C41.6137 287.95 39.5505 288.131 37.6276 288.164V280.019H35.5315V289.906ZM61.5768 278.583H59.4641V289.444H61.5768V284.41H63.607V282.676H61.5768V278.583ZM50.2377 286.968H51.5086C54.8344 286.968 56.5675 286.877 58.4573 286.489L58.2427 284.806C56.5675 285.161 55.0737 285.251 52.3504 285.268V281.472H57.0213V279.788H50.2377V286.968ZM51.8387 293.339H62.1215V291.655H53.9349V288.288H51.8387V293.339Z" fill="#ECECF8"/>
<path d="M32.8741 313.823H22.8554V315.061H31.3061V319.121H32.8741V313.823ZM20.7592 308.723C20.751 310.827 22.4098 312.313 24.638 312.305C25.8924 312.313 26.9652 311.826 27.6585 311.017H31.3061V313.047H32.8741V304.332H31.3061V306.445H27.6585C26.9735 305.636 25.8924 305.149 24.638 305.158C22.4098 305.149 20.751 306.635 20.7592 308.723ZM22.2612 308.723C22.253 307.402 23.2515 306.486 24.638 306.478C25.9667 306.486 26.9817 307.402 26.9817 308.723C26.9817 310.076 25.9667 310.976 24.638 310.984C23.2515 310.976 22.253 310.076 22.2612 308.723ZM28.3434 309.73C28.4342 309.416 28.4837 309.078 28.4837 308.723C28.4837 308.376 28.4342 308.046 28.3517 307.733H31.3061V309.73H28.3434ZM46.7716 304.283H45.2036V312.42H46.7716V309.036H48.9338V307.749H46.7716V304.283ZM35.1684 306.825H43.9822V305.587H40.3675V304.2H38.7995V305.587H35.1684V306.825ZM35.9771 309.812C35.9689 311.314 37.4048 312.23 39.5753 312.222C41.7457 312.23 43.1569 311.314 43.1569 309.812C43.1569 308.319 41.7457 307.386 39.5753 307.386C37.4048 307.386 35.9689 308.319 35.9771 309.812ZM37.215 314.285H45.2201V315.441H37.248V318.973H47.2832V317.784H38.783V316.546H46.7716V313.113H37.215V314.285ZM37.4956 309.812C37.4791 309.012 38.2961 308.517 39.5753 308.508C40.8462 308.517 41.6714 309.012 41.6879 309.812C41.6714 310.613 40.8462 311.083 39.5753 311.083C38.2961 311.083 37.4791 310.613 37.4956 309.812ZM66.3798 311.034H62.6001V306.94H66.2313V305.669H61.0321V312.288H66.3798V311.034ZM53.8853 317.273H67.4197V316.002H61.3622V312.998H59.8272V316.002H53.8853V317.273ZM55.0077 312.288H55.8825C57.4505 312.296 58.7874 312.255 60.3719 311.908L60.2399 310.604C58.9607 310.893 57.8054 310.984 56.5757 311.001V306.957H60.1078V305.686H55.0077V312.288ZM80.4588 308.657H71.8266V304.861H70.2751V309.911H80.4588V308.657ZM68.476 313.031H82.0103V311.776H68.476V313.031ZM70.1596 318.775H80.5579V317.487H71.7276V314.434H70.1596V318.775ZM92.7058 306.99V306.577H95.9573V305.306H87.8037V306.577H91.1213V306.99C91.113 308.995 89.6936 310.926 87.3911 311.727L88.1998 312.932C89.9576 312.313 91.2698 311.042 91.9383 309.441C92.6067 310.926 93.8942 312.09 95.5942 312.651L96.403 311.43C94.117 310.712 92.7058 308.888 92.7058 306.99ZM89.4707 315.275H97.9214V319.121H99.4894V314.005H89.4707V315.275ZM97.9214 313.262H99.4894V304.332H97.9214V313.262ZM106.306 307.584V307.452H108.848V306.198H106.306V304.498H104.821V306.198H102.246V307.452H104.821V307.584C104.812 309.375 103.789 311.067 101.916 311.826L102.658 312.981C104.094 312.395 105.085 311.289 105.605 309.944C106.133 311.182 107.107 312.197 108.501 312.734L109.244 311.545C107.362 310.877 106.306 309.251 106.306 307.584ZM104.392 315.408H112.892V319.121H114.443V314.137H104.392V315.408ZM109.772 313.328H111.274V309.499H112.958V313.394H114.443V304.349H112.958V308.211H111.274V304.597H109.772V313.328Z" fill="#ECECF8" fill-opacity="0.7"/>
<rect x="20.3521" y="328.07" width="93.1972" height="24.9296" rx="12.4648" fill="#170330"/>
<path d="M41.886 333.034H39.8888V348.054H41.886V333.034ZM28.5827 343.663L29.8536 345.215C31.2318 344.373 32.1396 342.887 32.6513 341.138C33.1629 342.755 34.0377 344.092 35.3829 344.885L36.6208 343.333C34.4256 342.079 33.6416 339.553 33.6498 337.061V336.252H35.9276V334.569H29.1604V336.252H31.6197V337.061C31.6197 339.611 30.7944 342.302 28.5827 343.663ZM34.8547 339.884H36.8354V347.36H38.816V333.281H36.8354V338.183H34.8547V339.884ZM57.2029 340.065H43.5035V341.732H49.2969V343.02H45.088V347.889H55.5689V343.02H51.393V341.732H57.2029V340.065ZM44.7084 335.13H46.656V337.424H44.8074V339.108H55.8825V337.424H54.0174V335.13H55.9815V333.446H44.7084V335.13ZM47.1677 346.205V344.654H53.5057V346.205H47.1677ZM48.7687 337.424V335.13H51.9047V337.424H48.7687ZM75.7383 340.346H61.9894V342.029H67.9148V344.637H70.044V342.029H75.7383V340.346ZM63.4089 336.434C63.4089 338.349 65.5876 339.537 68.8556 339.537C72.1072 339.537 74.2776 338.349 74.2859 336.434C74.2776 334.528 72.1072 333.331 68.8556 333.314C65.5876 333.331 63.4089 334.528 63.4089 336.434ZM63.6234 347.79H74.2198V346.09H65.7526V343.3H63.6234V347.79ZM65.6866 336.434C65.6783 335.477 66.9162 334.981 68.8556 334.981C70.795 334.981 72.0246 335.477 72.0246 336.434C72.0246 337.35 70.795 337.845 68.8556 337.853C66.9162 337.845 65.6783 337.35 65.6866 336.434ZM80.8054 333.843C78.5277 333.834 76.7947 335.378 76.8112 337.523C76.7947 339.644 78.5277 341.196 80.8054 341.187C81.9938 341.196 83.0337 340.758 83.7516 340.032H87.1765V341.831H89.2726V333.034H87.1765V335.014H83.7681C83.0502 334.28 82.0021 333.834 80.8054 333.843ZM78.8083 337.523C78.8 336.327 79.6336 335.633 80.8054 335.642C81.936 335.633 82.7613 336.327 82.7696 337.523C82.7613 338.679 81.936 339.413 80.8054 339.405C79.6336 339.413 78.8 338.679 78.8083 337.523ZM78.9734 345.099C78.9734 346.964 80.9622 348.062 84.1395 348.054C87.3168 348.062 89.3139 346.964 89.3222 345.099C89.3139 343.234 87.3168 342.136 84.1395 342.145C80.9622 342.136 78.9734 343.234 78.9734 345.099ZM81.0365 345.099C81.0365 344.2 82.1506 343.754 84.1395 343.746C86.1697 343.754 87.2508 344.2 87.259 345.099C87.2508 345.974 86.1697 346.42 84.1395 346.42C82.1506 346.42 81.0365 345.974 81.0365 345.099ZM84.6677 336.682H87.1765V338.349H84.6759C84.7337 338.084 84.7667 337.812 84.7667 337.523C84.7667 337.234 84.7337 336.946 84.6677 336.682ZM96.766 337.127V336.203H99.7865V334.486H91.4679V336.203H94.6534V337.127C94.6369 339.611 93.3742 342.401 90.8737 343.564L92.0951 345.231C93.8281 344.414 95.066 342.731 95.7345 340.75C96.4112 342.549 97.5996 344.084 99.2749 344.852L100.447 343.201C97.9792 342.054 96.7578 339.413 96.766 337.127ZM100.958 348.054H103.071V340.527H105.283V338.761H103.071V333.034H100.958V348.054Z" fill="#944AF2"/>
<rect x="20.3521" y="328.07" width="93.1972" height="24.9296" rx="12.4648" stroke="#944AF2" stroke-width="0.704225"/>
<path d="M28.2746 383.916H21.4305V387.437H24.1483V388.395H20.2971V389.528H29.43V388.395H25.5568V387.437H28.2746V383.916ZM21.3094 391.366H26.9212V393.533H28.3187V390.265H21.3094V391.366ZM22.8059 386.337V385.006H26.8992V386.337H22.8059ZM39.2011 391.3H36.8794V389.396H38.3869V388.263H37.0224V385.446H38.4309V384.323H30.7504V385.446H32.1369V388.263H30.7945V389.396H32.3129V391.3H30.0352V392.422H39.2011V391.3ZM33.5453 388.263V385.446H35.636V388.263H33.5453ZM33.7214 391.3V389.396H35.471V391.3H33.7214Z" fill="#ECECF8" fill-opacity="0.5"/>
<path d="M31.8288 409.701H26.946V407.143H30.5496V401.008H21.5818V407.143H25.1992V409.701H20.3714V411.145H31.8288V409.701ZM23.3148 405.767V402.411H28.8166V405.767H23.3148ZM43.3687 400.101H41.7044V406.648H43.3687V400.101ZM33.0804 406.331H33.947C35.9138 406.331 37.0692 406.297 38.4309 406.084L38.3209 404.695C37.193 404.88 36.2233 404.928 34.8272 404.942V402.067H37.9632V400.692H33.0804V406.331ZM34.731 408.422H41.6494V409.068H34.7447V412.466H43.7401V411.09H36.4915V410.375H43.3687V407.047H34.731V408.422ZM37.2343 404.034H39.2011V406.593H40.8517V400.307H39.2011V402.714H37.2343V404.034ZM50.4247 400.266C47.5363 400.266 45.8583 401.022 45.8583 402.398C45.8583 403.794 47.5363 404.543 50.4247 404.543C53.3063 404.543 54.9706 403.794 54.9774 402.398C54.9706 401.022 53.3063 400.266 50.4247 400.266ZM44.7167 406.524H56.1328V405.135H44.7167V406.524ZM46.0371 408.532H53.0106V409.22H46.0508V412.521H55.0737V411.2H47.7701V410.444H54.7436V407.253H46.0371V408.532ZM47.7014 402.398C47.6945 401.84 48.5885 401.545 50.4247 401.545C52.2747 401.545 53.1619 401.84 53.1619 402.398C53.1619 403.01 52.2747 403.25 50.4247 403.25C48.5885 403.25 47.6945 403.01 47.7014 402.398ZM70.6024 400.087H68.8556V406.428H70.6024V400.087ZM60.0803 405.08L60.9469 406.455C62.4392 406.008 63.4639 405.052 64.0278 403.835C64.5986 404.949 65.589 405.822 67.0263 406.235L67.8791 404.887C65.8297 404.296 64.9219 402.845 64.9356 401.325V400.362H63.1063V401.325C63.1063 402.879 62.171 404.454 60.0803 405.08ZM62.2123 408.326H68.8694V409.055H62.2398V412.521H70.9601V411.132H63.9591V410.361H70.6162V406.964H62.2123V408.326ZM82.7751 400.087H81.0283V406.51H82.7751V400.087ZM72.363 405.258L73.1608 406.648C74.7013 406.207 75.7603 405.265 76.3312 404.076C76.8951 405.148 77.8992 405.987 79.3502 406.386L80.1893 405.038C78.2705 404.536 77.3215 403.312 77.2046 402.067H79.7079V400.664H72.8307V402.067H75.389C75.2721 403.408 74.3093 404.722 72.363 405.258ZM74.3849 408.339H81.042V409.096H74.4124V412.521H83.1327V411.173H76.1317V410.348H82.7888V407.005H74.3849V408.339ZM91.7017 400.788H84.907V402.177H87.4241C87.4103 403.732 86.475 405.389 84.4119 406.042L85.3059 407.432C86.7845 406.957 87.7817 405.953 88.3387 404.708C88.882 405.829 89.838 406.737 91.2203 407.17L92.0868 405.822C90.1131 405.169 89.219 403.649 89.2122 402.177H91.7017V400.788ZM86.4338 409.495H93.2835V412.603H95.0303V408.092H86.4338V409.495ZM91.3441 404.529H93.2835V407.542H95.0303V400.087H93.2835V403.099H91.3441V404.529ZM102.361 400.719C99.7136 400.726 97.6574 402.157 97.6574 404.323C97.6574 406.51 99.7136 407.934 102.361 407.927C105.002 407.934 107.072 406.51 107.079 404.323C107.072 402.157 105.002 400.726 102.361 400.719ZM96.6533 411.077H108.111V409.66H96.6533V411.077ZM99.3629 404.323C99.356 402.982 100.621 402.136 102.361 402.15C104.088 402.136 105.339 402.982 105.346 404.323C105.339 405.685 104.088 406.496 102.361 406.496C100.621 406.496 99.356 405.685 99.3629 404.323ZM120.283 409.77H115.401V407.886H119.252V406.455H111.907V405.052H118.963V400.898H110.133V402.301H117.23V403.677H110.146V407.886H113.654V409.77H108.826V411.214H120.283V409.77ZM135.688 406.18H124.231V407.583H129.169V409.756H130.943V407.583H135.688V406.18ZM125.414 402.92C125.414 404.516 127.229 405.506 129.953 405.506C132.662 405.506 134.471 404.516 134.478 402.92C134.471 401.332 132.662 400.334 129.953 400.321C127.229 400.334 125.414 401.332 125.414 402.92ZM125.593 412.383H134.423V410.967H127.367V408.642H125.593V412.383ZM127.312 402.92C127.305 402.122 128.337 401.71 129.953 401.71C131.569 401.71 132.594 402.122 132.594 402.92C132.594 403.684 131.569 404.096 129.953 404.103C128.337 404.096 127.305 403.684 127.312 402.92ZM139.911 400.761C138.013 400.754 136.569 402.04 136.582 403.828C136.569 405.595 138.013 406.888 139.911 406.881C140.901 406.888 141.768 406.524 142.366 405.919H145.22V407.418H146.967V400.087H145.22V401.737H142.38C141.781 401.125 140.908 400.754 139.911 400.761ZM138.247 403.828C138.24 402.831 138.934 402.253 139.911 402.26C140.853 402.253 141.541 402.831 141.548 403.828C141.541 404.791 140.853 405.403 139.911 405.396C138.934 405.403 138.24 404.791 138.247 403.828ZM138.384 410.141C138.384 411.696 140.042 412.61 142.689 412.603C145.337 412.61 147.001 411.696 147.008 410.141C147.001 408.587 145.337 407.672 142.689 407.679C140.042 407.672 138.384 408.587 138.384 410.141ZM140.103 410.141C140.103 409.392 141.032 409.02 142.689 409.013C144.381 409.02 145.282 409.392 145.289 410.141C145.282 410.87 144.381 411.242 142.689 411.242C141.032 411.242 140.103 410.87 140.103 410.141ZM143.129 403.127H145.22V404.516H143.136C143.184 404.296 143.212 404.069 143.212 403.828C143.212 403.587 143.184 403.347 143.129 403.127ZM158.466 400.087H156.733V412.603H158.466V406.428H160.309V404.983H158.466V400.087ZM148.521 403.36H155.88V401.957H153.115V400.279H151.355V401.957H148.521V403.36ZM149.03 407.047C149.023 408.793 150.385 410.024 152.235 410.031C154.057 410.024 155.426 408.793 155.426 407.047C155.426 405.3 154.057 404.055 152.235 404.062C150.385 404.055 149.023 405.3 149.03 407.047ZM150.708 407.047C150.708 406.084 151.348 405.492 152.235 405.479C153.108 405.492 153.748 406.084 153.748 407.047C153.748 408.016 153.108 408.594 152.235 408.587C151.348 408.594 150.708 408.016 150.708 407.047ZM171.078 401.173H161.945V402.563H169.318C169.311 404.034 169.29 405.795 168.809 408.161L170.569 408.339C171.071 405.685 171.071 403.924 171.078 402.356V401.173ZM160.763 411.077H172.179V409.646H166.594V405.341H164.848V409.646H160.763V411.077ZM27.3861 417.995H20.9491V419.425H25.6737C25.6599 420.175 25.6049 421.089 25.378 422.286L27.0973 422.451C27.3861 420.897 27.3861 419.645 27.3861 418.779V417.995ZM20.2063 423.359L20.3576 424.762C22.5377 424.755 25.4674 424.707 28.0738 424.225L27.9776 422.96C26.8016 423.132 25.5293 423.228 24.2776 423.283V420.883H22.5308V423.338C21.6987 423.359 20.9078 423.359 20.2063 423.359ZM22.0494 429.383H30.8385V427.98H23.81V425.615H22.0494V429.383ZM28.6515 426.454H30.4533V422.368H31.9663V420.897H30.4533V417.087H28.6515V426.454ZM43.0386 417.087H41.2918V429.631H43.0386V417.087ZM33.2042 419.549H37.3718V421.571H33.218V426.701H34.3458C36.6291 426.701 38.4928 426.625 40.5491 426.261L40.3978 424.844C38.5616 425.147 36.9454 425.243 35.0336 425.257V422.96H39.1599V418.132H33.2042V419.549ZM54.5923 417.087H52.8593V429.603H54.5923V423.428H56.4354V421.983H54.5923V417.087ZM44.6479 420.36H52.0065V418.957H49.2419V417.279H47.4813V418.957H44.6479V420.36ZM45.1568 424.047C45.1499 425.793 46.5116 427.024 48.3616 427.031C50.184 427.024 51.5526 425.793 51.5526 424.047C51.5526 422.3 50.184 421.055 48.3616 421.062C46.5116 421.055 45.1499 422.3 45.1568 424.047ZM46.8348 424.047C46.8348 423.084 47.4744 422.492 48.3616 422.479C49.235 422.492 49.8746 423.084 49.8746 424.047C49.8746 425.016 49.235 425.594 48.3616 425.587C47.4744 425.594 46.8348 425.016 46.8348 424.047ZM67.2051 418.173H58.0722V419.563H65.4445C65.4377 421.034 65.417 422.795 64.9356 425.161L66.6962 425.339C67.1982 422.685 67.1982 420.924 67.2051 419.356V418.173ZM56.8893 428.077H68.3055V426.646H62.7212V422.341H60.9744V426.646H56.8893V428.077ZM82.7888 417.101H81.0283V424.033H82.7888V417.101ZM72.2667 422.479L73.1057 423.854C74.605 423.4 75.6297 422.444 76.2005 421.234C76.7713 422.355 77.7685 423.221 79.2127 423.648L80.0517 422.258C78.0023 421.695 77.0945 420.223 77.1083 418.737V417.527H75.2789V418.737C75.2789 420.285 74.3574 421.846 72.2667 422.479ZM74.1511 429.466H82.9677V428.063H81.3584V425.986H82.8576V424.597H74.2611V425.986H75.7741V428.063H74.1511V429.466ZM77.5072 428.063V425.986H79.6253V428.063H77.5072ZM87.5479 424.597H85.8148V429.466H94.4526V424.597H92.7058V425.656H87.5479V424.597ZM84.4806 423.964H95.8968V422.547H84.4806V423.964ZM85.0446 420.622L85.6773 421.997C87.8092 421.722 89.3772 420.828 90.1887 419.618C90.9933 420.828 92.5613 421.722 94.7139 421.997L95.3329 420.622C92.5338 420.305 91.0965 418.889 91.0965 417.637V417.211H89.2947V417.637C89.2809 418.923 87.8367 420.285 85.0446 420.622ZM87.5479 428.09V426.99H92.7058V428.09H87.5479ZM107.175 417.087H105.429V429.603H107.175V417.087ZM97.3272 426.509H98.4276C100.36 426.515 102.437 426.378 104.631 425.917L104.411 424.473C102.568 424.831 100.752 424.989 99.0603 425.016V418.283H97.3272V426.509ZM118.702 417.087H116.941V429.631H118.702V423.166H120.545V421.736H118.702V417.087ZM109.321 426.591H110.38C112.588 426.598 114.293 426.55 116.24 426.22L116.047 424.748C114.383 425.037 112.883 425.133 111.068 425.147V419.659H115.194V418.242H109.321V426.591ZM122.622 428.462C123.234 428.462 123.763 427.946 123.763 427.306C123.763 426.674 123.234 426.158 122.622 426.165C121.975 426.158 121.452 426.674 121.466 427.306C121.452 427.946 121.975 428.462 122.622 428.462Z" fill="#ECECF8"/>
<path d="M29.452 466.237H25.5678V465.379H28.4067V464.279H22.8059V463.035H28.3517V461.946H21.4085V465.379H24.1923V466.237H20.2971V467.338H29.452V466.237ZM21.3424 469.693C21.3424 470.864 22.6629 471.53 24.8526 471.53C27.0257 471.53 28.3297 470.864 28.3407 469.693C28.3297 468.504 27.0257 467.844 24.8526 467.844C22.6629 467.844 21.3424 468.504 21.3424 469.693ZM22.7729 469.693C22.7674 469.175 23.4661 468.911 24.8526 468.911C26.2115 468.911 26.9267 469.175 26.9322 469.693C26.9267 470.215 26.2115 470.463 24.8526 470.463C23.4661 470.463 22.7674 470.215 22.7729 469.693ZM38.4529 461.506H37.0335V471.519H38.4529V461.506ZM30.0682 468.68L30.8055 469.803C34.3816 468.114 35.4434 465.588 35.4489 462.551H30.6074V463.652H34.0185C33.7929 465.874 32.654 467.459 30.0682 468.68ZM47.7729 462.111H42.8763V466.325H47.7729V462.111ZM43.4045 470.441L43.8886 471.497C45.5612 471.338 46.7551 470.749 47.3713 469.957C47.982 470.738 49.1648 471.343 50.8319 471.497L51.305 470.441C49.3189 470.248 48.268 469.462 48.114 468.779H50.9199V467.734H48.07V466.909H46.6615V467.734H43.8116V468.779H46.6175C46.4635 469.484 45.4071 470.276 43.4045 470.441ZM44.2628 465.225V463.2H46.3754V465.225H44.2628ZM49.3464 467.184H50.7438V461.506H49.3464V467.184ZM63.86 466.458H54.6941V467.569H58.6994V469.296H60.0858V467.569H63.86V466.458ZM55.7724 471.343H62.8477V470.221H57.1699V468.427H55.7724V471.343ZM55.8385 465.632H62.6827V461.946H55.8385V465.632ZM57.2139 464.543V463.035H61.3072V464.543H57.2139ZM73.103 461.506H71.7716V471.519H73.103V461.506ZM64.2342 468.592L65.0814 469.627C66.0002 469.065 66.6054 468.075 66.9465 466.909C67.2876 467.987 67.8708 468.878 68.7676 469.406L69.5929 468.372C68.1294 467.536 67.6067 465.852 67.6122 464.191V463.652H69.1307V462.529H64.6193V463.652H66.2588V464.191C66.2588 465.891 65.7086 467.684 64.2342 468.592ZM68.4155 466.072H69.7359V471.057H71.0563V461.671H69.7359V464.939H68.4155V466.072ZM82.621 461.506H81.2236V463.817H79.6391V464.961H81.2236V467.294H82.621V461.506ZM74.1263 466.204L74.8415 467.305C76.0189 466.931 76.8222 466.133 77.2623 465.132C77.697 466.034 78.4617 466.766 79.5731 467.129L80.2663 466.017C78.7038 465.495 77.9831 464.29 77.9665 463.145H79.9582V462.012H74.5224V463.145H76.5361C76.4976 464.405 75.7493 465.682 74.1263 466.204ZM75.8869 471.409H82.621V467.712H75.8869V471.409ZM77.2953 470.287V468.812H81.2456V470.287H77.2953ZM92.6012 461.506H91.2588V471.519H92.6012V461.506ZM84.0075 465.841C84.0075 468.092 84.8603 469.484 86.1862 469.484C87.4186 469.484 88.2603 468.29 88.3814 466.325H89.1901V471.057H90.5106V461.649H89.1901V465.214H88.3704C88.2163 463.344 87.3911 462.216 86.1862 462.221C84.8603 462.216 84.0075 463.602 84.0075 465.841ZM85.3059 465.841C85.2949 464.306 85.625 463.542 86.1862 463.542C86.7639 463.542 87.105 464.306 87.0995 465.841C87.105 467.382 86.7639 468.141 86.1862 468.13C85.625 468.141 85.2949 467.382 85.3059 465.841ZM104.914 461.506H103.583V465.368H102.614V461.671H101.327V471.035H102.614V466.491H103.583V471.519H104.914V461.506ZM96.5405 469.252H97.2337C98.5541 469.247 99.6215 469.208 100.843 468.977L100.744 467.833C99.7755 468.004 98.9173 468.059 97.9489 468.075V463.795H100.271V462.661H96.5405V469.252ZM113.937 461.517H112.529V468.988H113.937V465.731H115.29V464.587H113.937V461.517ZM105.993 463.674H111.934V462.562H109.668V461.495H108.27V462.562H105.993V463.674ZM106.477 465.962C106.477 467.118 107.506 467.877 108.963 467.877C110.416 467.877 111.428 467.118 111.428 465.962C111.428 464.802 110.416 464.026 108.963 464.026C107.506 464.026 106.477 464.802 106.477 465.962ZM107.445 471.343H114.3V470.221H108.842V468.416H107.445V471.343ZM107.852 465.962C107.847 465.407 108.292 465.099 108.963 465.093C109.64 465.099 110.097 465.407 110.097 465.962C110.097 466.513 109.64 466.81 108.963 466.81C108.292 466.81 107.847 466.513 107.852 465.962ZM126.767 461.506H125.37V463.002H123.488V464.114H125.37V466.601H126.767V461.506ZM118.25 465.566L118.977 466.678C120.149 466.309 120.935 465.561 121.375 464.598C121.81 465.456 122.558 466.127 123.631 466.469L124.368 465.39C122.773 464.917 122.074 463.756 122.08 462.562V461.836H120.66V462.562C120.655 463.855 119.912 465.077 118.25 465.566ZM120.11 468.097H125.381V468.669H120.121V471.409H127.053V470.309H121.507V469.693H126.767V467.019H120.11V468.097ZM136.505 461.506H135.108V462.969H133.237V462.243H128.484V466.821H133.237V466.094H135.108V467.371H136.505V461.506ZM129.639 469.583C129.639 470.82 130.949 471.525 133.083 471.519C135.223 471.525 136.533 470.82 136.538 469.583C136.533 468.35 135.223 467.629 133.083 467.635C130.949 467.629 129.639 468.35 129.639 469.583ZM129.881 465.709V463.355H131.862V465.709H129.881ZM131.037 469.583C131.037 468.988 131.757 468.702 133.083 468.702C134.415 468.702 135.135 468.988 135.141 469.583C135.135 470.155 134.415 470.452 133.083 470.452C131.757 470.452 131.037 470.155 131.037 469.583ZM133.237 464.961V464.081H135.108V464.961H133.237Z" fill="#ECECF8" fill-opacity="0.5"/>
<path d="M28.5057 477.444H27.6364V480.052H25.9419V480.767H27.6364V482.098H25.9419V482.803H27.6364V484.904H28.5057V477.444ZM20.4071 479.347H25.9419V478.643H23.6422V477.433H22.7839V478.643H20.4071V479.347ZM20.9903 481.757C20.9793 482.869 21.8926 483.622 23.202 483.628C24.5114 483.622 25.4302 482.869 25.4357 481.757C25.4302 480.635 24.5114 479.887 23.202 479.887C21.8926 479.887 20.9793 480.635 20.9903 481.757ZM21.7936 481.757C21.7881 481.053 22.3658 480.58 23.202 480.569C24.0383 480.58 24.616 481.053 24.6215 481.757C24.616 482.461 24.0383 482.94 23.202 482.935C22.3658 482.94 21.7881 482.461 21.7936 481.757ZM22.1787 487.006H28.7258V486.28H23.048V484.244H22.1787V487.006ZM38.5409 477.433H37.7047V481.394H36.3732V477.642H35.548V486.72H36.3732V482.131H37.7047V487.215H38.5409V477.433ZM30.0352 484.53L30.5744 485.19C31.6032 484.591 32.2964 483.523 32.632 482.164C32.9787 483.358 33.6609 484.321 34.6457 484.86L35.1629 484.189C33.7709 483.474 33.0282 481.895 33.0282 480.107V479.325H34.8438V478.599H30.2663V479.325H32.1919V480.107C32.1974 482.093 31.4437 483.754 30.0352 484.53ZM51.6461 482.406H42.6893V483.122H46.8046V485.124H47.6739V483.122H51.6461V482.406ZM43.7016 479.656C43.6961 480.86 45.066 481.609 47.1567 481.603C49.2474 481.609 50.6008 480.86 50.6008 479.656C50.6008 478.44 49.2474 477.691 47.1567 477.686C45.066 477.691 43.6961 478.44 43.7016 479.656ZM43.8446 487.006H50.6448V486.269H44.7139V484.145H43.8446V487.006ZM44.6259 479.656C44.6149 478.874 45.6327 478.396 47.1567 478.39C48.6752 478.396 49.6875 478.874 49.6875 479.656C49.6875 480.415 48.6752 480.899 47.1567 480.899C45.6327 480.899 44.6149 480.415 44.6259 479.656ZM55.1342 478.027C53.6708 478.022 52.5869 478.979 52.5924 480.349C52.5869 481.708 53.6708 482.665 55.1342 482.66C55.9595 482.665 56.6637 482.351 57.1149 481.834H59.6787V483.232H60.548V477.433H59.6787V478.852H57.1149C56.6582 478.335 55.9595 478.022 55.1342 478.027ZM53.4177 480.349C53.4177 479.419 54.1329 478.77 55.1342 478.775C56.1026 478.77 56.8288 479.419 56.8288 480.349C56.8288 481.257 56.1026 481.928 55.1342 481.922C54.1329 481.928 53.4177 481.257 53.4177 480.349ZM54.0229 485.322C54.0174 486.511 55.2718 487.193 57.3019 487.193C59.3266 487.193 60.581 486.511 60.581 485.322C60.581 484.145 59.3266 483.463 57.3019 483.463C55.2718 483.463 54.0174 484.145 54.0229 485.322ZM54.8702 485.322C54.8647 484.58 55.8 484.14 57.3019 484.134C58.8039 484.14 59.7392 484.58 59.7337 485.322C59.7392 486.06 58.8039 486.505 57.3019 486.5C55.8 486.505 54.8647 486.06 54.8702 485.322ZM57.5275 479.557H59.6787V481.119H57.533C57.6155 480.882 57.6651 480.624 57.6651 480.349C57.6651 480.063 57.6155 479.799 57.5275 479.557ZM68.0084 481.658H63.827V479.072H67.9643V478.368H62.9798V482.373H65.0044V484.332C64.0306 484.36 63.0843 484.365 62.2315 484.365L62.3526 485.091C64.2232 485.097 66.5889 485.053 68.7566 484.739L68.6906 484.09C67.7828 484.195 66.82 484.261 65.8627 484.299V482.373H68.0084V481.658ZM69.3398 487.237H70.1981V477.433H69.3398V487.237ZM79.7601 478.423H72.8609V479.138H78.8908V479.403C78.8853 480.574 78.8853 481.944 78.5167 483.815L79.397 483.914C79.7491 481.944 79.7491 480.602 79.7601 479.403V478.423ZM71.9146 485.829H80.8275V485.113H76.261V481.614H75.4137V485.113H71.9146V485.829ZM87.7927 484.002V483.463H86.9564V484.002C86.9454 484.937 86.2027 485.983 84.9648 486.445L85.4049 487.083C86.3402 486.731 87.0114 486.049 87.3636 485.262C87.6552 486.082 88.2603 486.797 89.2122 487.16C90.1144 486.78 90.7141 486.027 91.0167 485.234C91.3578 486.054 92.0401 486.736 93.0194 487.083L93.4485 486.445C92.1941 486.01 91.4514 485.009 91.4569 484.002V483.463H90.6096V484.002C90.6151 484.756 90.1199 485.735 89.1846 486.313C88.2548 485.785 87.7872 484.866 87.7927 484.002ZM84.7117 480.305C84.7062 481.647 85.7901 482.572 87.2755 482.572C88.761 482.572 89.8339 481.647 89.8394 480.305C89.8339 478.94 88.761 478.011 87.2755 478.016C85.7901 478.011 84.7062 478.94 84.7117 480.305ZM85.559 480.305C85.548 479.392 86.2687 478.742 87.2755 478.753C88.2714 478.742 88.9921 479.392 88.9921 480.305C88.9921 481.213 88.2714 481.851 87.2755 481.856C86.2687 481.851 85.548 481.213 85.559 480.305ZM91.6989 483.034H92.5572V477.444H91.6989V483.034ZM102.13 480.404H96.2874V477.796H95.4291V481.097H102.13V480.404ZM94.2077 483.133H103.165V482.428H94.2077V483.133ZM95.3741 486.973H102.185V486.258H96.2324V484.134H95.3741V486.973ZM115.742 485.234H111.659V482.847H114.63V478.258H107.841V482.847H110.812V485.234H106.785V485.961H115.742V485.234ZM108.688 482.153V478.951H113.794V482.153H108.688ZM124.853 477.444H124.027V482.649H124.853V477.444ZM117.007 482.153H117.623C119.131 482.153 120.094 482.115 121.276 481.9L121.221 481.185C120.116 481.405 119.202 481.449 117.865 481.449V478.709H120.737V478.016H117.007V482.153ZM118.338 483.771H124.016V484.684H118.36V487.083H125.227V486.39H119.219V485.355H124.853V483.078H118.338V483.771ZM120.121 480.283H122.146V482.561H122.971V477.642H122.146V479.601H120.121V480.283ZM129.463 478.148C127.917 478.154 126.817 479.089 126.822 480.448C126.817 481.812 127.917 482.742 129.463 482.748C130.998 482.742 132.087 481.812 132.093 480.448C132.087 479.089 130.998 478.154 129.463 478.148ZM126.316 484.343L126.437 485.08C128.198 485.08 130.602 485.069 132.841 484.651L132.775 484.013C130.613 484.332 128.121 484.349 126.316 484.343ZM127.669 480.448C127.664 479.54 128.418 478.907 129.463 478.907C130.497 478.907 131.251 479.54 131.246 480.448C131.251 481.361 130.497 481.988 129.463 481.988C128.418 481.988 127.664 481.361 127.669 480.448ZM133.424 487.237H134.283V477.433H133.424V487.237ZM142.194 478.973V477.994H141.336V479.006C141.325 480.525 140.324 481.823 138.816 482.351L139.289 483.056C140.472 482.61 141.363 481.702 141.781 480.53C142.205 481.559 143.052 482.357 144.131 482.759L144.615 482.087C143.179 481.598 142.183 480.371 142.194 478.973ZM140.412 485.366C140.406 486.533 141.655 487.193 143.691 487.193C145.721 487.193 146.97 486.533 146.97 485.366C146.97 484.189 145.721 483.512 143.691 483.518C141.655 483.512 140.406 484.189 140.412 485.366ZM141.27 485.366C141.264 484.635 142.189 484.2 143.691 484.2C145.187 484.2 146.111 484.635 146.111 485.366C146.111 486.076 145.187 486.505 143.691 486.5C142.189 486.505 141.264 486.076 141.27 485.366ZM143.889 480.25H146.067V483.232H146.937V477.433H146.067V479.535H143.889V480.25ZM156.466 480.173H150.645V477.631H149.787V480.888H156.466V480.173ZM148.565 482.748H157.489V482.032H148.565V482.748ZM149.643 485.399C149.638 486.533 150.909 487.171 153.022 487.171C155.118 487.171 156.378 486.533 156.389 485.399C156.378 484.261 155.118 483.622 153.022 483.628C150.909 483.622 149.638 484.261 149.643 485.399ZM150.524 485.399C150.513 484.706 151.454 484.316 153.022 484.31C154.573 484.316 155.514 484.706 155.519 485.399C155.514 486.082 154.573 486.494 153.022 486.5C151.454 486.494 150.513 486.082 150.524 485.399ZM166.369 477.433H165.5V487.237H166.369V477.433ZM158.666 481.603C158.672 483.688 159.706 485.009 161.164 485.003C162.617 485.009 163.667 483.688 163.662 481.603C163.667 479.524 162.617 478.198 161.164 478.192C159.706 478.198 158.672 479.524 158.666 481.603ZM159.503 481.603C159.503 480.013 160.185 478.968 161.164 478.962C162.149 478.968 162.826 480.013 162.826 481.603C162.826 483.193 162.149 484.239 161.164 484.233C160.185 484.239 159.503 483.193 159.503 481.603ZM178.968 477.433H178.11V479.612H176.063C175.87 478.511 174.875 477.779 173.565 477.785C172.091 477.779 171.018 478.682 171.023 479.986C171.018 481.306 172.091 482.225 173.565 482.219C174.886 482.225 175.887 481.466 176.068 480.338H178.11V482.417H178.968V477.433ZM171.849 479.986C171.849 479.116 172.564 478.489 173.565 478.5C174.533 478.489 175.26 479.116 175.26 479.986C175.26 480.877 174.533 481.51 173.565 481.504C172.564 481.51 171.849 480.877 171.849 479.986ZM172.63 483.65H178.11V484.64H172.652V487.083H179.342V486.39H173.51V485.3H178.968V482.957H172.63V483.65ZM185.526 478.423H181.015V484.728H185.526V478.423ZM181.851 484.024V479.116H184.668V484.024H181.851ZM187.32 487.215H188.178V482.087H189.817V481.339H188.178V477.433H187.32V487.215ZM199.5 481.339H197.916V477.433H197.058V487.215H197.916V482.065H199.5V481.339ZM190.753 484.728H191.534C193.014 484.728 194.532 484.629 196.221 484.288L196.111 483.551C194.499 483.892 193.041 484.002 191.611 484.002V478.401H190.753V484.728ZM212.066 481.339H210.482V477.433H209.624V487.215H210.482V482.065H212.066V481.339ZM203.319 484.728H204.1C205.58 484.728 207.098 484.629 208.787 484.288L208.677 483.551C207.065 483.892 205.607 484.002 204.177 484.002V478.401H203.319V484.728ZM217.106 478.071C215.032 478.082 213.53 479.094 213.53 480.635C213.53 482.087 214.828 483.05 216.677 483.182V485.234H212.65V485.961H221.607V485.234H217.524V483.182C219.384 483.056 220.682 482.093 220.682 480.635C220.682 479.094 219.186 478.082 217.106 478.071ZM214.366 480.635C214.361 479.529 215.522 478.781 217.106 478.786C218.691 478.781 219.846 479.529 219.846 480.635C219.846 481.763 218.691 482.495 217.106 482.506C215.522 482.495 214.361 481.763 214.366 480.635ZM230.299 480.404H224.456V477.796H223.598V481.097H230.299V480.404ZM222.377 483.133H231.334V482.428H222.377V483.133ZM223.543 486.973H230.354V486.258H224.401V484.134H223.543V486.973ZM235.625 480.437V479.16H237.958V478.445H232.445V479.16H234.756V480.437C234.75 482.131 233.529 483.98 232.126 484.651L232.643 485.333C233.76 484.772 234.75 483.529 235.207 482.093C235.664 483.446 236.648 484.574 237.793 485.091L238.277 484.409C236.835 483.787 235.63 482.098 235.625 480.437ZM239.322 487.215H240.191V477.433H239.322V487.215ZM28.0326 490.444H27.1633V497.002H28.0326V494.13H29.496V493.404H28.0326V490.444ZM20.3521 496.001L20.4511 496.705C22.1732 496.71 24.5114 496.694 26.6351 496.32L26.5581 495.693C25.6998 495.819 24.7755 495.896 23.8622 495.94V495.252C24.9956 495.142 25.7108 494.62 25.7218 493.811C25.7108 492.92 24.8085 492.37 23.4221 492.37C22.0467 492.37 21.1279 492.92 21.1334 493.811C21.1279 494.625 21.8651 495.148 23.004 495.252V495.973C22.0467 496.001 21.1334 496.001 20.3521 496.001ZM20.5942 491.995H26.261V491.335H23.8622V490.356H23.004V491.335H20.5942V491.995ZM21.5515 498.179H27.1633V500.215H28.0326V497.486H21.5515V498.179ZM21.9586 493.811C21.9531 493.294 22.5198 492.975 23.4221 492.986C24.3244 492.975 24.8966 493.294 24.8966 493.811C24.8966 494.323 24.3244 494.669 23.4221 494.658C22.5198 494.669 21.9531 494.323 21.9586 493.811ZM38.2108 490.444H37.3526V497.596H38.2108V490.444ZM30.3653 493.525C30.3598 494.95 31.4657 495.94 32.9291 495.935C34.3926 495.94 35.4875 494.95 35.493 493.525C35.4875 492.116 34.3926 491.132 32.9291 491.126C31.4657 491.132 30.3598 492.116 30.3653 493.525ZM31.2126 493.525C31.2016 492.568 31.9388 491.885 32.9291 491.885C33.9029 491.885 34.6457 492.568 34.6457 493.525C34.6457 494.499 33.9029 495.175 32.9291 495.175C31.9388 495.175 31.2016 494.499 31.2126 493.525ZM31.8948 500.006H38.5189V499.28H32.7531V496.87H31.8948V500.006ZM47.4428 490.433H46.5845V500.215H47.4428V495.186H49.0823V494.471H47.4428V490.433ZM39.8173 492.722H45.6382V492.006H43.1954V490.554H42.3371V492.006H39.8173V492.722ZM40.3785 495.781C40.373 497.107 41.3853 498.025 42.7773 498.025C44.1582 498.025 45.1651 497.107 45.1761 495.781C45.1651 494.46 44.1582 493.536 42.7773 493.536C41.3853 493.536 40.373 494.46 40.3785 495.781ZM41.2038 495.781C41.1983 494.895 41.864 494.257 42.7773 494.262C43.6796 494.257 44.3398 494.895 44.3508 495.781C44.3398 496.672 43.6796 497.299 42.7773 497.288C41.864 497.299 41.1983 496.672 41.2038 495.781ZM57.6981 490.433H56.8288V500.215H57.6981V490.433ZM49.7315 497.673L50.2047 498.377C53.4837 496.804 54.7931 494.312 54.8041 491.5H50.1827V492.204H53.9239C53.7313 494.543 52.3779 496.419 49.7315 497.673ZM66.919 490.433H66.0607V500.215H66.919V495.142H68.5035V494.416H66.919V490.433ZM59.4146 497.673L59.8988 498.355C63.0843 496.782 64.3827 494.257 64.3882 491.489H59.8658V492.215H63.5134C63.3154 494.532 61.9399 496.419 59.4146 497.673ZM74.5445 491.192C73.0975 491.198 72.0852 492.524 72.0907 494.603C72.0852 496.688 73.0975 498.009 74.5445 498.003C75.9089 498.009 76.8882 496.809 76.9817 494.889H79.1659V500.237H80.0242V490.433H79.1659V494.174H76.9707C76.8387 492.342 75.8759 491.198 74.5445 491.192ZM72.9159 494.603C72.9214 493.013 73.5816 491.968 74.5445 491.962C75.5018 491.968 76.173 493.013 76.173 494.603C76.173 496.193 75.5018 497.239 74.5445 497.233C73.5816 497.239 72.9214 496.193 72.9159 494.603ZM89.7623 490.444H88.893V491.709H86.9454V492.425H88.893V493.613H86.9454V494.317H88.893V495.913H89.7623V490.444ZM82.0489 491.599H85.4379V492.854H82.0709V495.616H82.7641C84.7172 495.605 85.713 495.583 86.9564 495.373L86.8794 494.658C85.6965 494.862 84.7447 494.878 82.9291 494.889V493.525H86.2962V490.884H82.0489V491.599ZM83.3803 500.083H89.7623V496.309H88.9041V497.453H84.2496V496.309H83.3803V500.083ZM84.2496 499.379V498.146H88.9041V499.379H84.2496ZM98.9613 490.433H98.103V500.237H98.9613V495.032H100.601V494.306H98.9613V490.433ZM91.82 497.783H92.5902C94.4498 497.783 95.7317 497.728 97.2667 497.453L97.1567 496.705C95.6987 496.974 94.4498 497.052 92.6783 497.057V492.105H96.3864V491.39H91.82V497.783ZM102.163 499.39C102.554 499.384 102.873 499.065 102.868 498.675C102.873 498.289 102.554 497.97 102.163 497.97C101.778 497.97 101.448 498.289 101.459 498.675C101.448 499.065 101.778 499.384 102.163 499.39ZM29.353 511.234H25.2707V508.847H28.2416V504.258H21.4525V508.847H24.4234V511.234H20.3961V511.961H29.353V511.234ZM22.2997 508.153V504.951H27.4054V508.153H22.2997ZM38.4639 503.444H37.6386V508.649H38.4639V503.444ZM30.6184 508.153H31.2346C32.7421 508.153 33.7049 508.115 34.8878 507.9L34.8327 507.185C33.7269 507.405 32.8136 507.449 31.4767 507.449V504.709H34.3486V504.016H30.6184V508.153ZM31.9498 509.771H37.6276V510.684H31.9718V513.083H38.838V512.39H32.8301V511.355H38.4639V509.078H31.9498V509.771ZM33.7324 506.283H35.757V508.561H36.5823V503.642H35.757V505.601H33.7324V506.283ZM48.257 503.433H47.4208V513.215H48.257V503.433ZM39.9934 507.658C39.9989 509.738 40.8242 511.064 42.0951 511.058C43.3 511.064 44.1197 509.87 44.2022 507.966H45.4621V512.72H46.2874V503.642H45.4621V507.251H44.1967C44.0867 505.408 43.2835 504.264 42.0951 504.258C40.8242 504.264 39.9989 505.579 39.9934 507.658ZM40.8077 507.658C40.7967 506.068 41.3028 505.072 42.0951 505.072C42.8928 505.072 43.399 506.068 43.3935 507.658C43.399 509.243 42.8928 510.244 42.0951 510.233C41.3028 510.244 40.7967 509.243 40.8077 507.658ZM60.8011 503.433H59.9758V507.372H58.5343V503.653H57.7421V512.709H58.5343V508.087H59.9758V513.215H60.8011V503.433ZM52.8015 510.794H53.4287C54.9307 510.789 55.9265 510.75 57.1039 510.508L57.0269 509.782C55.9375 510.002 55.0077 510.052 53.6598 510.057V505.347H56.4657V504.632H52.8015V510.794ZM69.8239 503.444H68.9657V510.772H69.8239V507.394H71.2984V506.668H69.8239V503.444ZM62.1985 505.347H68.0304V504.643H65.5436V503.444H64.6853V504.643H62.1985V505.347ZM62.7597 507.713C62.7542 508.814 63.7005 509.523 65.1144 509.518C66.5119 509.523 67.4582 508.814 67.4692 507.713C67.4582 506.602 66.5119 505.887 65.1144 505.887C63.7005 505.887 62.7542 506.602 62.7597 507.713ZM63.5849 507.713C63.5794 507.015 64.1901 506.563 65.1144 506.569C66.0277 506.563 66.6439 507.015 66.6549 507.713C66.6439 508.401 66.0277 508.847 65.1144 508.836C64.1901 508.847 63.5794 508.401 63.5849 507.713ZM63.706 513.006H70.2751V512.28H64.5533V510.189H63.706V513.006ZM78.1096 504.973V503.994H77.2513V505.006C77.2403 506.525 76.239 507.823 74.7315 508.351L75.2047 509.056C76.3875 508.61 77.2788 507.702 77.697 506.53C78.1206 507.559 78.9679 508.357 80.0462 508.759L80.5304 508.087C79.0944 507.598 78.0986 506.371 78.1096 504.973ZM76.327 511.366C76.3215 512.533 77.5704 513.193 79.6061 513.193C81.6362 513.193 82.8851 512.533 82.8851 511.366C82.8851 510.189 81.6362 509.512 79.6061 509.518C77.5704 509.512 76.3215 510.189 76.327 511.366ZM77.1853 511.366C77.1798 510.635 78.1041 510.2 79.6061 510.2C81.1026 510.2 82.0268 510.635 82.0268 511.366C82.0268 512.076 81.1026 512.505 79.6061 512.5C78.1041 512.505 77.1798 512.076 77.1853 511.366ZM79.8041 506.25H81.9828V509.232H82.8521V503.433H81.9828V505.535H79.8041V506.25ZM92.3812 506.173H86.5603V503.631H85.702V506.888H92.3812V506.173ZM84.4806 508.748H93.4045V508.032H84.4806V508.748ZM85.559 511.399C85.5535 512.533 86.8244 513.171 88.9371 513.171C91.0332 513.171 92.2931 512.533 92.3041 511.399C92.2931 510.261 91.0332 509.622 88.9371 509.628C86.8244 509.622 85.5535 510.261 85.559 511.399ZM86.4393 511.399C86.4283 510.706 87.3691 510.316 88.9371 510.31C90.4886 510.316 91.4294 510.706 91.4349 511.399C91.4294 512.082 90.4886 512.494 88.9371 512.5C87.3691 512.494 86.4283 512.082 86.4393 511.399ZM105.112 503.433H104.243V513.237H105.112V503.433ZM97.6188 510.871H102.24V504.269H101.393V506.855H98.4771V504.269H97.6188V510.871ZM98.4771 510.145V507.548H101.393V510.145H98.4771ZM114.641 504.423H107.72V505.138H113.794V505.513C113.789 506.734 113.789 508.021 113.442 509.749L114.289 509.848C114.636 508.027 114.636 506.767 114.641 505.513V504.423ZM106.785 511.829H115.698V511.113H112.287V507.889H111.439V511.113H109.855V507.889H108.996V511.113H106.785V511.829ZM126.943 503.433H126.074V513.215H126.943V508.329H128.506V507.603H126.943V503.433ZM119.23 510.607L119.373 511.344C121.089 511.344 123.4 511.322 125.535 510.959L125.48 510.299C124.627 510.42 123.703 510.497 122.795 510.541V509.496C123.928 509.364 124.682 508.698 124.688 507.724C124.682 506.618 123.73 505.903 122.366 505.909C120.979 505.903 120.044 506.618 120.055 507.724C120.044 508.693 120.787 509.364 121.926 509.496V510.574C120.957 510.602 120.028 510.607 119.23 510.607ZM119.406 505.336H125.304V504.632H122.795V503.455H121.926V504.632H119.406V505.336ZM120.858 507.724C120.864 507.042 121.458 506.58 122.366 506.58C123.257 506.58 123.857 507.042 123.862 507.724C123.857 508.401 123.257 508.847 122.366 508.836C121.458 508.847 120.864 508.401 120.858 507.724ZM134.04 504.291H129.551V508.858H134.04V507.977H136.329V510.585H137.199V503.444H136.329V505.16H134.04V504.291ZM130.409 508.164V505.006H133.193V508.164H130.409ZM130.871 513.006H137.419V512.28H131.741V509.947H130.871V513.006ZM134.04 507.262V505.887H136.329V507.262H134.04ZM146.893 503.433H146.023V513.237H146.893V503.433ZM139.19 507.603C139.196 509.688 140.23 511.009 141.688 511.003C143.14 511.009 144.191 509.688 144.186 507.603C144.191 505.524 143.14 504.198 141.688 504.192C140.23 504.198 139.196 505.524 139.19 507.603ZM140.026 507.603C140.026 506.013 140.709 504.968 141.688 504.962C142.673 504.968 143.349 506.013 143.349 507.603C143.349 509.193 142.673 510.239 141.688 510.233C140.709 510.239 140.026 509.193 140.026 507.603ZM154.705 510.002V509.463H153.869V510.002C153.858 510.937 153.115 511.983 151.877 512.445L152.317 513.083C153.253 512.731 153.924 512.049 154.276 511.262C154.568 512.082 155.173 512.797 156.125 513.16C157.027 512.78 157.627 512.027 157.929 511.234C158.27 512.054 158.952 512.736 159.932 513.083L160.361 512.445C159.107 512.01 158.364 511.009 158.369 510.002V509.463H157.522V510.002C157.528 510.756 157.032 511.735 156.097 512.313C155.167 511.785 154.7 510.866 154.705 510.002ZM151.624 506.305C151.619 507.647 152.702 508.572 154.188 508.572C155.673 508.572 156.746 507.647 156.752 506.305C156.746 504.94 155.673 504.011 154.188 504.016C152.702 504.011 151.619 504.94 151.624 506.305ZM152.471 506.305C152.46 505.392 153.181 504.742 154.188 504.753C155.184 504.742 155.904 505.392 155.904 506.305C155.904 507.213 155.184 507.851 154.188 507.856C153.181 507.851 152.46 507.213 152.471 506.305ZM158.611 509.034H159.47V503.444H158.611V509.034ZM168.977 504.423H162.077V505.138H168.107V505.403C168.102 506.574 168.102 507.944 167.733 509.815L168.614 509.914C168.966 507.944 168.966 506.602 168.977 505.403V504.423ZM161.131 511.829H170.044V511.113H165.478V507.614H164.63V511.113H161.131V511.829ZM181.62 512.28H175.722V510.189H174.853V513.006H181.62V512.28ZM173.697 509.408H182.643V508.682H178.572V507.02H177.724V508.682H173.697V509.408ZM174.28 506.976L174.632 507.658C176.107 507.383 177.548 506.547 178.154 505.359C178.759 506.547 180.2 507.378 181.675 507.658L182.016 506.976C180.305 506.706 178.583 505.524 178.583 504.137V503.697H177.713V504.137C177.713 505.513 175.991 506.69 174.28 506.976ZM185.856 509.529H184.998V513.083H191.446V509.529H190.599V510.596H185.856V509.529ZM183.446 507.724L183.567 508.439C184.415 508.439 185.388 508.439 186.417 508.401V509.826H187.276V508.357C188.172 508.302 189.086 508.214 189.971 508.065L189.916 507.449C187.765 507.724 185.306 507.724 183.446 507.724ZM183.886 506.437L184.283 507.119C185.443 506.822 186.34 506.162 186.753 505.287C187.182 506.107 188.079 506.706 189.223 506.965L189.597 506.305C188.189 505.997 187.187 505.171 187.187 504.17V503.675H186.307V504.17C186.302 505.221 185.311 506.107 183.886 506.437ZM185.856 512.379V511.278H190.599V512.379H185.856ZM190.588 509.056H191.446V503.444H190.588V509.056ZM201.547 503.433H200.722V513.215H201.547V503.433ZM193.184 510.475L193.691 511.102C195.055 510.299 196.001 509.292 196.59 508.153H198.664V512.72H199.489V503.697H198.664V507.449H196.909C197.245 506.58 197.399 505.65 197.399 504.687H193.603V505.403H196.54C196.375 507.449 195.308 509.215 193.184 510.475ZM28.8028 516.433H27.9665V520.394H26.6351V516.642H25.8099V525.72H26.6351V521.131H27.9665V526.215H28.8028V516.433ZM20.2971 523.53L20.8363 524.19C21.8651 523.591 22.5583 522.523 22.8939 521.164C23.2405 522.358 23.9228 523.321 24.9076 523.86L25.4247 523.189C24.0328 522.474 23.2901 520.895 23.2901 519.107V518.325H25.1056V517.599H20.5282V518.325H22.4538V519.107C22.4593 521.093 21.7055 522.754 20.2971 523.53ZM35.9881 517.489H33.5013V516.389H32.643V517.489H30.1563V518.193H35.9881V517.489ZM30.7174 520.471C30.7119 521.533 31.6582 522.226 33.0722 522.232C34.4751 522.226 35.4159 521.533 35.4269 520.471C35.4159 519.393 34.4751 518.711 33.0722 518.7C31.6582 518.711 30.7119 519.393 30.7174 520.471ZM31.3776 523.794H36.9234V526.215H37.7817V523.09H31.3776V523.794ZM31.5427 520.471C31.5372 519.805 32.1479 519.376 33.0722 519.371C33.9855 519.376 34.6017 519.805 34.6127 520.471C34.6017 521.12 33.9855 521.544 33.0722 521.539C32.1479 521.544 31.5372 521.12 31.5427 520.471ZM36.9234 522.551H37.7817V519.877H39.2562V519.151H37.7817V516.433H36.9234V522.551ZM41.864 522.309H41.0057V526.083H47.6188V522.309H46.7496V523.453H41.864V522.309ZM39.8724 521.616H48.7852V520.9H39.8724V521.616ZM40.3785 519.514L40.7086 520.207C42.2161 519.982 43.7126 519.217 44.3343 518.116C44.956 519.211 46.447 519.982 47.9599 520.207L48.279 519.514C46.557 519.294 44.7744 518.21 44.7799 517.005V516.543H43.8886V517.005C43.8886 518.248 42.1226 519.277 40.3785 519.514ZM41.864 525.39V524.135H46.7496V525.39H41.864ZM54.0669 516.609C51.8827 516.609 50.6008 517.209 50.6008 518.292C50.6008 519.404 51.8827 520.004 54.0669 520.009C56.2401 520.004 57.5165 519.404 57.522 518.292C57.5165 517.209 56.2401 516.609 54.0669 516.609ZM49.6105 521.373H58.5233V520.669H49.6105V521.373ZM50.6888 522.881H56.5317V523.772H50.7108V526.105H57.6761V525.423H51.5691V524.41H57.379V522.221H50.6888V522.881ZM51.5031 518.292C51.4921 517.649 52.4439 517.264 54.0669 517.258C55.6899 517.264 56.6362 517.649 56.6417 518.292C56.6362 518.975 55.6899 519.349 54.0669 519.349C52.4439 519.349 51.4921 518.975 51.5031 518.292ZM69.7469 516.433H68.8886V526.215H69.7469V521.186H71.3864V520.471H69.7469V516.433ZM62.1215 518.722H67.9423V518.006H65.4996V516.554H64.6413V518.006H62.1215V518.722ZM62.6827 521.781C62.6772 523.107 63.6895 524.025 65.0814 524.025C66.4624 524.025 67.4692 523.107 67.4802 521.781C67.4692 520.46 66.4624 519.536 65.0814 519.536C63.6895 519.536 62.6772 520.46 62.6827 521.781ZM63.5079 521.781C63.5024 520.895 64.1681 520.257 65.0814 520.262C65.9837 520.257 66.6439 520.895 66.6549 521.781C66.6439 522.672 65.9837 523.299 65.0814 523.288C64.1681 523.299 63.5024 522.672 63.5079 521.781ZM79.7601 517.423H72.8609V518.138H78.8908V518.403C78.8853 519.574 78.8853 520.944 78.5167 522.815L79.397 522.914C79.7491 520.944 79.7491 519.602 79.7601 518.403V517.423ZM71.9146 524.829H80.8275V524.113H76.261V520.614H75.4137V524.113H71.9146V524.829ZM92.8873 516.433H92.0511V520.394H90.7196V516.642H89.8944V525.72H90.7196V521.131H92.0511V526.215H92.8873V516.433ZM84.3816 523.53L84.9208 524.19C85.9496 523.591 86.6428 522.523 86.9784 521.164C87.325 522.358 88.0073 523.321 88.9921 523.86L89.5092 523.189C88.1173 522.474 87.3746 520.895 87.3746 519.107V518.325H89.1901V517.599H84.6127V518.325H86.5383V519.107C86.5438 521.093 85.7901 522.754 84.3816 523.53ZM95.4071 517.368H94.5819V523.772H98.3341V517.368H97.5308V519.756H95.4071V517.368ZM95.4071 523.057V520.46H97.5308V523.057H95.4071ZM99.5775 525.72H100.403V521.032H101.767V526.215H102.603V516.433H101.767V520.317H100.403V516.642H99.5775V525.72ZM112.914 524.267H108.82V522.012H112.033V521.318H110.504V518.105H112.055V517.39H104.749V518.105H106.301V521.318H104.771V522.012H107.973V524.267H103.957V525.005H112.914V524.267ZM107.159 521.318V518.105H109.657V521.318H107.159ZM124.17 516.4H123.312V521.814H124.17V519.492H125.656V518.777H124.17V516.4ZM116.545 518.017H122.377V517.324H119.89V516.334H119.032V517.324H116.545V518.017ZM117.106 520.064C117.101 521.06 118.036 521.665 119.461 521.671C120.88 521.665 121.805 521.06 121.816 520.064C121.805 519.074 120.88 518.463 119.461 518.458C118.036 518.463 117.101 519.074 117.106 520.064ZM117.931 522.969H123.312V523.849H117.953V526.105H124.533V525.445H118.801V524.487H124.17V522.32H117.931V522.969ZM117.931 520.064C117.926 519.481 118.531 519.101 119.461 519.096C120.385 519.101 120.99 519.481 121.001 520.064C120.99 520.653 120.385 521.021 119.461 521.021C118.531 521.021 117.926 520.653 117.931 520.064ZM133.996 517.346V516.785H133.105V517.346C133.105 518.749 131.317 519.915 129.551 520.163L129.903 520.867C131.427 520.614 132.929 519.783 133.556 518.573C134.184 519.772 135.691 520.614 137.21 520.867L137.562 520.163C135.796 519.915 134.002 518.727 133.996 517.346ZM129.089 522.672H133.105V526.215H133.952V522.672H138.002V521.946H129.089V522.672ZM144.967 523.002V522.463H144.131V523.002C144.12 523.937 143.377 524.983 142.139 525.445L142.579 526.083C143.515 525.731 144.186 525.049 144.538 524.262C144.829 525.082 145.435 525.797 146.386 526.16C147.289 525.78 147.888 525.027 148.191 524.234C148.532 525.054 149.214 525.736 150.194 526.083L150.623 525.445C149.368 525.01 148.626 524.009 148.631 523.002V522.463H147.784V523.002C147.789 523.756 147.294 524.735 146.359 525.313C145.429 524.785 144.961 523.866 144.967 523.002ZM141.886 519.305C141.881 520.647 142.964 521.572 144.45 521.572C145.935 521.572 147.008 520.647 147.014 519.305C147.008 517.94 145.935 517.011 144.45 517.016C142.964 517.011 141.881 517.94 141.886 519.305ZM142.733 519.305C142.722 518.392 143.443 517.742 144.45 517.753C145.446 517.742 146.166 518.392 146.166 519.305C146.166 520.213 145.446 520.851 144.45 520.856C143.443 520.851 142.722 520.213 142.733 519.305ZM148.873 522.034H149.732V516.444H148.873V522.034ZM159.305 519.404H153.462V516.796H152.603V520.097H159.305V519.404ZM151.382 522.133H160.339V521.428H151.382V522.133ZM152.548 525.973H159.36V525.258H153.407V523.134H152.548V525.973ZM171.596 516.433H170.726V524.091H171.596V520.592H173.059V519.866H171.596V516.433ZM163.915 522.254L164.014 522.958C165.725 522.941 168.102 522.914 170.198 522.518L170.121 521.902C169.268 522.034 168.338 522.116 167.425 522.171V521.461C168.559 521.351 169.274 520.807 169.285 519.987C169.274 519.046 168.371 518.474 166.985 518.48C165.61 518.474 164.691 519.046 164.696 519.987C164.691 520.812 165.428 521.357 166.567 521.461V522.21C165.61 522.243 164.691 522.254 163.915 522.254ZM164.157 518.05H169.824V517.401H167.425V516.411H166.567V517.401H164.157V518.05ZM165.379 526.006H171.948V525.28H166.248V523.574H165.379V526.006ZM165.522 519.987C165.516 519.431 166.083 519.09 166.985 519.096C167.887 519.09 168.46 519.431 168.46 519.987C168.46 520.521 167.887 520.867 166.985 520.867C166.083 520.867 165.516 520.521 165.522 519.987ZM181.807 516.444H180.937V518.27H178.654C178.737 517.924 178.781 517.555 178.781 517.17H174.324V517.896H177.84C177.669 519.591 176.189 520.917 173.829 521.616L174.192 522.298C176.289 521.676 177.796 520.537 178.44 518.964H180.937V520.284H178.341V520.999H180.937V522.32H181.807V516.444ZM175.337 524.289C175.331 525.461 176.602 526.171 178.605 526.171C180.585 526.171 181.862 525.461 181.862 524.289C181.862 523.123 180.585 522.419 178.605 522.419C176.602 522.419 175.331 523.123 175.337 524.289ZM176.184 524.289C176.189 523.552 177.13 523.107 178.605 523.112C180.057 523.107 180.998 523.552 181.004 524.289C180.998 525.027 180.057 525.472 178.605 525.467C177.13 525.472 176.189 525.027 176.184 524.289ZM188.376 517.324H183.853V521.825H188.376V517.324ZM184.701 521.131V518.028H187.54V521.131H184.701ZM184.965 526.006H191.534V525.28H185.812V522.925H184.965V526.006ZM190.224 523.607H191.083V520.141H192.557V519.415H191.083V516.433H190.224V523.607ZM200.942 517.819V517.753H204.067V517.049H196.838V517.753H199.974V517.819C199.968 519.129 198.23 520.24 196.529 520.493L196.871 521.175C198.373 520.917 199.864 520.103 200.458 518.925C201.052 520.103 202.543 520.917 204.067 521.175L204.386 520.493C202.68 520.24 200.936 519.129 200.942 517.819ZM196.001 522.727H200.018V526.215H200.865V522.727H204.914V522.012H196.001V522.727ZM208.369 517.192C206.922 517.198 205.91 518.524 205.915 520.603C205.91 522.688 206.922 524.009 208.369 524.003C209.734 524.009 210.713 522.809 210.807 520.889H212.991V526.237H213.849V516.433H212.991V520.174H210.796C210.664 518.342 209.701 517.198 208.369 517.192ZM206.741 520.603C206.746 519.013 207.406 517.968 208.369 517.962C209.327 517.968 209.998 519.013 209.998 520.603C209.998 522.193 209.327 523.239 208.369 523.233C207.406 523.239 206.746 522.193 206.741 520.603ZM218.999 518.535V517.962H221.254V517.258H215.841V517.962H218.129V518.535C218.124 519.921 217.09 521.192 215.621 521.704L216.072 522.397C217.238 521.968 218.157 521.087 218.581 519.976C219.026 521.005 219.928 521.808 221.067 522.199L221.507 521.506C220.044 521.043 219.004 519.855 218.999 518.535ZM217.238 526.006H223.862V525.28H218.096V522.936H217.238V526.006ZM222.696 523.618H223.554V516.444H222.696V523.618ZM232.786 516.433H231.928V526.237H232.786V521.032H234.426V520.306H232.786V516.433ZM225.645 523.783H226.415C228.275 523.783 229.557 523.728 231.092 523.453L230.982 522.705C229.524 522.974 228.275 523.052 226.503 523.057V518.105H230.211V517.39H225.645V523.783ZM239.905 517.291H235.416V521.858H239.905V520.977H242.194V523.585H243.063V516.444H242.194V518.16H239.905V517.291ZM236.274 521.164V518.006H239.058V521.164H236.274ZM236.736 526.006H243.283V525.28H237.606V522.947H236.736V526.006ZM239.905 520.262V518.887H242.194V520.262H239.905ZM23.169 529.796C21.689 529.802 20.6217 530.693 20.6272 531.964C20.6217 533.24 21.689 534.12 23.169 534.12C24.6325 534.12 25.6943 533.24 25.6998 531.964C25.6943 530.693 24.6325 529.802 23.169 529.796ZM21.4745 531.964C21.4635 531.116 22.1842 530.517 23.169 530.522C24.1373 530.517 24.8636 531.116 24.8636 531.964C24.8636 532.822 24.1373 533.416 23.169 533.416C22.1842 533.416 21.4635 532.822 21.4745 531.964ZM22.1127 535.628H27.6144V536.64H22.1347V539.083H28.8248V538.39H22.982V537.289H28.4727V534.935H22.1127V535.628ZM27.6144 534.461H28.4727V529.433H27.6144V534.461ZM37.7047 529.433H36.8464V539.215H37.7047V534.186H39.3442V533.471H37.7047V529.433ZM30.0792 531.722H35.9001V531.006H33.4573V529.554H32.599V531.006H30.0792V531.722ZM30.6404 534.781C30.6349 536.107 31.6472 537.025 33.0392 537.025C34.4201 537.025 35.4269 536.107 35.4379 534.781C35.4269 533.46 34.4201 532.536 33.0392 532.536C31.6472 532.536 30.6349 533.46 30.6404 534.781ZM31.4657 534.781C31.4602 533.895 32.1259 533.257 33.0392 533.262C33.9415 533.257 34.6017 533.895 34.6127 534.781C34.6017 535.672 33.9415 536.299 33.0392 536.288C32.1259 536.299 31.4602 535.672 31.4657 534.781ZM47.9599 529.433H47.0907V539.215H47.9599V529.433ZM39.9934 536.673L40.4665 537.377C43.7456 535.804 45.055 533.312 45.066 530.5H40.4445V531.204H44.1857C43.9932 533.543 42.6397 535.419 39.9934 536.673ZM60.537 529.433H59.6787V531.612H57.632C57.4395 530.511 56.4437 529.779 55.1342 529.785C53.6598 529.779 52.5869 530.682 52.5924 531.986C52.5869 533.306 53.6598 534.225 55.1342 534.219C56.4547 534.225 57.456 533.466 57.6375 532.338H59.6787V534.417H60.537V529.433ZM53.4177 531.986C53.4177 531.116 54.1329 530.489 55.1342 530.5C56.1026 530.489 56.8288 531.116 56.8288 531.986C56.8288 532.877 56.1026 533.51 55.1342 533.504C54.1329 533.51 53.4177 532.877 53.4177 531.986ZM54.1989 535.65H59.6787V536.64H54.221V539.083H60.9111V538.39H55.0792V537.3H60.537V534.957H54.1989V535.65ZM67.0951 530.423H62.5836V536.728H67.0951V530.423ZM63.4199 536.024V531.116H66.2368V536.024H63.4199ZM68.8886 539.215H69.7469V534.087H71.3864V533.339H69.7469V529.433H68.8886V539.215ZM81.0695 533.339H79.485V529.433H78.6268V539.215H79.485V534.065H81.0695V533.339ZM72.3217 536.728H73.103C74.583 536.728 76.1015 536.629 77.7905 536.288L77.6805 535.551C76.0684 535.892 74.6105 536.002 73.18 536.002V530.401H72.3217V536.728ZM92.5902 529.433H91.721V531.303H90.0484V532.019H91.721V533.152H90.0484V533.878H91.721V536.717H92.5902V529.433ZM84.5026 534.495L84.6127 535.232C86.2027 535.226 88.4364 535.193 90.3345 534.902L90.2905 534.252C89.8669 534.302 89.4212 534.34 88.9701 534.368V530.94H89.9714V530.236H84.7777V530.94H85.768V534.484C85.3169 534.489 84.8933 534.495 84.5026 534.495ZM86.2852 539.006H92.8543V538.28H87.1545V536.112H86.2852V539.006ZM86.6043 534.467V530.94H88.1338V534.417C87.6221 534.439 87.105 534.456 86.6043 534.467ZM101.866 529.4H101.008V534.814H101.866V532.492H103.352V531.777H101.866V529.4ZM94.2408 531.017H100.073V530.324H97.5858V529.334H96.7276V530.324H94.2408V531.017ZM94.8019 533.064C94.7964 534.06 95.7317 534.665 97.1567 534.671C98.5761 534.665 99.5004 534.06 99.5114 533.064C99.5004 532.074 98.5761 531.463 97.1567 531.458C95.7317 531.463 94.7964 532.074 94.8019 533.064ZM95.6272 535.969H101.008V536.849H95.6492V539.105H102.229V538.445H96.4965V537.487H101.866V535.32H95.6272V535.969ZM95.6272 533.064C95.6217 532.481 96.2269 532.101 97.1567 532.096C98.081 532.101 98.6862 532.481 98.6972 533.064C98.6862 533.653 98.081 534.021 97.1567 534.021C96.2269 534.021 95.6217 533.653 95.6272 533.064ZM111.703 529.433H110.834V539.215H111.703V534.197H113.189V533.471H111.703V529.433ZM103.924 536.508L104.617 537.003C106.394 535.127 106.917 532.827 106.928 530.5H104.232V531.226H106.108C105.998 533.174 105.398 534.995 103.924 536.508ZM106.73 537.168L107.434 537.653C109.266 535.523 109.607 532.822 109.613 530.5H107.236V531.226H108.798C108.716 533.268 108.259 535.441 106.73 537.168ZM124.908 529.433H124.071V533.317H122.707V529.642H121.882V538.72H122.707V534.032H124.071V539.215H124.908V529.433ZM116.886 536.585H120.627V530.577H116.886V536.585ZM117.7 535.892V531.27H119.813V535.892H117.7ZM134.371 529.444H133.501V532.195H131.191V530.093H130.343V531.832H127.614V530.093H126.756V535.012H131.191V532.921H133.501V536.684H134.371V529.444ZM127.614 534.296V532.514H130.343V534.296H127.614ZM128.044 539.006H134.591V538.28H128.913V535.969H128.044V539.006ZM141.743 531.381V530.049H140.918V531.381C140.912 532.47 140.125 533.735 138.838 534.296L139.311 534.968C140.274 534.55 140.978 533.719 141.336 532.789C141.688 533.631 142.365 534.329 143.305 534.693L143.757 534.032C142.502 533.559 141.748 532.464 141.743 531.381ZM140.621 537.454C140.61 538.549 141.864 539.193 143.9 539.193C145.924 539.193 147.184 538.549 147.19 537.454C147.184 536.349 145.924 535.699 143.9 535.705C141.864 535.699 140.61 536.349 140.621 537.454ZM141.479 537.454C141.468 536.778 142.398 536.371 143.9 536.365C145.385 536.371 146.32 536.778 146.331 537.454C146.32 538.12 145.385 538.527 143.9 538.522C142.398 538.527 141.468 538.12 141.479 537.454ZM144.197 535.177H145.011V532.789H146.309V535.485H147.135V529.444H146.309V532.074H145.011V529.631H144.197V535.177ZM156.213 529.433H155.354V535.177H156.213V532.657H157.687V531.92H156.213V529.433ZM148.554 534.395L148.906 535.067C151.795 534.302 153.522 532.536 153.528 530.06H148.994V530.775H152.609C152.433 532.437 150.953 533.746 148.554 534.395ZM149.809 536.332H155.354V539.215H156.213V535.628H149.809V536.332ZM165.951 529.444H165.092V536.772H165.951V533.394H167.425V532.668H165.951V529.444ZM158.325 531.347H164.157V530.643H161.67V529.444H160.812V530.643H158.325V531.347ZM158.886 533.713C158.881 534.814 159.827 535.523 161.241 535.518C162.639 535.523 163.585 534.814 163.596 533.713C163.585 532.602 162.639 531.887 161.241 531.887C159.827 531.887 158.881 532.602 158.886 533.713ZM159.712 533.713C159.706 533.015 160.317 532.563 161.241 532.569C162.154 532.563 162.771 533.015 162.782 533.713C162.771 534.401 162.154 534.847 161.241 534.836C160.317 534.847 159.706 534.401 159.712 533.713ZM159.833 539.006H166.402V538.28H160.68V536.189H159.833V539.006ZM175.612 529.433H174.754V539.237H175.612V534.032H177.251V533.306H175.612V529.433ZM168.471 536.783H169.241C171.1 536.783 172.382 536.728 173.917 536.453L173.807 535.705C172.349 535.974 171.1 536.052 169.329 536.057V531.105H173.037V530.39H168.471V536.783ZM178.814 538.39C179.204 538.384 179.524 538.065 179.518 537.675C179.524 537.289 179.204 536.97 178.814 536.97C178.429 536.97 178.099 537.289 178.11 537.675C178.099 538.065 178.429 538.384 178.814 538.39ZM28.1096 543.478H21.3644V544.193H27.2623V544.458C27.2623 545.657 27.2623 547.12 26.8662 549.123L27.7465 549.211C28.1096 547.082 28.1096 545.69 28.1096 544.458V543.478ZM20.3961 550.774H29.309V550.058H20.3961V550.774ZM38.2328 542.433H37.3746V546.196H35.471V546.922H37.3746V552.237H38.2328V542.433ZM30.4754 544.061H34.0405V546.053H30.5084V549.882H31.2566C33.0282 549.877 34.2991 549.816 35.768 549.552L35.702 548.826C34.2771 549.09 33.0557 549.145 31.3666 549.145V546.768H34.8768V543.346H30.4754V544.061ZM47.5198 542.444H46.6615V549.772H47.5198V546.394H48.9943V545.668H47.5198V542.444ZM39.8944 544.347H45.7262V543.643H43.2394V542.444H42.3812V543.643H39.8944V544.347ZM40.4555 546.713C40.45 547.814 41.3963 548.523 42.8103 548.518C44.2077 548.523 45.154 547.814 45.1651 546.713C45.154 545.602 44.2077 544.887 42.8103 544.887C41.3963 544.887 40.45 545.602 40.4555 546.713ZM41.2808 546.713C41.2753 546.015 41.886 545.563 42.8103 545.569C43.7236 545.563 44.3398 546.015 44.3508 546.713C44.3398 547.401 43.7236 547.847 42.8103 547.836C41.886 547.847 41.2753 547.401 41.2808 546.713ZM41.4018 552.006H47.971V551.28H42.2491V549.189H41.4018V552.006ZM60.8011 542.433H59.9758V552.215H60.8011V542.433ZM52.3173 549.607L52.8675 550.256C53.8468 549.646 54.5566 548.496 54.9087 547.148C55.2498 548.391 55.932 549.448 56.8948 550.025L57.423 549.387C56.075 548.606 55.3103 546.917 55.3103 545.228V544.303H57.1039V543.588H52.5924V544.303H54.474V545.228C54.4795 547.005 53.6818 548.793 52.3173 549.607ZM56.3556 546.669H58.0062V551.709H58.8204V542.675H58.0062V545.965H56.3556V546.669ZM71.0893 547.164H62.1765V547.88H66.2038V549.035H63.2658V552.083H70V549.035H67.0511V547.88H71.0893V547.164ZM63.0128 543.467H64.5202V545.525H63.0458V546.24H70.2091V545.525H68.7346V543.467H70.2421V542.752H63.0128V543.467ZM64.1241 551.379V549.717H69.1527V551.379H64.1241ZM65.3785 545.525V543.467H67.8763V545.525H65.3785ZM79.9802 542.433H79.1109V552.237H79.9802V542.433ZM72.2777 546.603C72.2832 548.688 73.3176 550.009 74.7755 550.003C76.228 550.009 77.2788 548.688 77.2733 546.603C77.2788 544.524 76.228 543.198 74.7755 543.192C73.3176 543.198 72.2832 544.524 72.2777 546.603ZM73.114 546.603C73.114 545.013 73.7962 543.968 74.7755 543.962C75.7603 543.968 76.4371 545.013 76.4371 546.603C76.4371 548.193 75.7603 549.239 74.7755 549.233C73.7962 549.239 73.114 548.193 73.114 546.603ZM87.7927 549.002V548.463H86.9564V549.002C86.9454 549.937 86.2027 550.983 84.9648 551.445L85.4049 552.083C86.3402 551.731 87.0114 551.049 87.3636 550.262C87.6552 551.082 88.2603 551.797 89.2122 552.16C90.1144 551.78 90.7141 551.027 91.0167 550.234C91.3578 551.054 92.0401 551.736 93.0194 552.083L93.4485 551.445C92.1941 551.01 91.4514 550.009 91.4569 549.002V548.463H90.6096V549.002C90.6151 549.756 90.1199 550.735 89.1846 551.313C88.2548 550.785 87.7872 549.866 87.7927 549.002ZM84.7117 545.305C84.7062 546.647 85.7901 547.572 87.2755 547.572C88.761 547.572 89.8339 546.647 89.8394 545.305C89.8339 543.94 88.761 543.011 87.2755 543.016C85.7901 543.011 84.7062 543.94 84.7117 545.305ZM85.559 545.305C85.548 544.392 86.2687 543.742 87.2755 543.753C88.2714 543.742 88.9921 544.392 88.9921 545.305C88.9921 546.213 88.2714 546.851 87.2755 546.856C86.2687 546.851 85.548 546.213 85.559 545.305ZM91.6989 548.034H92.5572V542.444H91.6989V548.034ZM98.6752 542.609C96.491 542.609 95.2091 543.209 95.2091 544.292C95.2091 545.404 96.491 546.004 98.6752 546.009C100.848 546.004 102.125 545.404 102.13 544.292C102.125 543.209 100.848 542.609 98.6752 542.609ZM94.2188 547.373H103.132V546.669H94.2188V547.373ZM95.2971 548.881H101.14V549.772H95.3191V552.105H102.284V551.423H96.1774V550.41H101.987V548.221H95.2971V548.881ZM96.1114 544.292C96.1004 543.649 97.0522 543.264 98.6752 543.258C100.298 543.264 101.244 543.649 101.25 544.292C101.244 544.975 100.298 545.349 98.6752 545.349C97.0522 545.349 96.1004 544.975 96.1114 544.292ZM111.703 542.433H110.834V552.215H111.703V547.197H113.189V546.471H111.703V542.433ZM103.924 549.508L104.617 550.003C106.394 548.127 106.917 545.827 106.928 543.5H104.232V544.226H106.108C105.998 546.174 105.398 547.995 103.924 549.508ZM106.73 550.168L107.434 550.653C109.266 548.523 109.607 545.822 109.613 543.5H107.236V544.226H108.798C108.716 546.268 108.259 548.441 106.73 550.168ZM115.257 549.024V549.079H116.204V549.024C116.226 548.072 116.473 547.649 117.161 547.23C117.843 546.812 118.25 546.213 118.25 545.349C118.25 544.133 117.354 543.247 115.973 543.247C114.713 543.247 113.706 544.023 113.651 545.36H114.652C114.713 544.452 115.346 544.078 115.973 544.083C116.699 544.078 117.282 544.557 117.282 545.305C117.282 545.921 116.936 546.361 116.479 546.636C115.72 547.098 115.268 547.55 115.257 549.024ZM115.059 550.675C115.048 551.065 115.379 551.384 115.764 551.39C116.154 551.384 116.473 551.065 116.468 550.675C116.473 550.289 116.154 549.97 115.764 549.97C115.379 549.97 115.048 550.289 115.059 550.675ZM124.699 542.796C123.219 542.802 122.151 543.693 122.157 544.964C122.151 546.24 123.219 547.12 124.699 547.12C126.162 547.12 127.224 546.24 127.229 544.964C127.224 543.693 126.162 542.802 124.699 542.796ZM123.004 544.964C122.993 544.116 123.714 543.517 124.699 543.522C125.667 543.517 126.393 544.116 126.393 544.964C126.393 545.822 125.667 546.416 124.699 546.416C123.714 546.416 122.993 545.822 123.004 544.964ZM123.642 548.628H129.144V549.64H123.664V552.083H130.354V551.39H124.511V550.289H130.002V547.935H123.642V548.628ZM129.144 547.461H130.002V542.433H129.144V547.461ZM139.234 542.433H138.376V552.215H139.234V547.186H140.874V546.471H139.234V542.433ZM131.609 544.722H137.43V544.006H134.987V542.554H134.129V544.006H131.609V544.722ZM132.17 547.781C132.164 549.107 133.177 550.025 134.569 550.025C135.95 550.025 136.956 549.107 136.967 547.781C136.956 546.46 135.95 545.536 134.569 545.536C133.177 545.536 132.164 546.46 132.17 547.781ZM132.995 547.781C132.99 546.895 133.655 546.257 134.569 546.262C135.471 546.257 136.131 546.895 136.142 547.781C136.131 548.672 135.471 549.299 134.569 549.288C133.655 549.299 132.99 548.672 132.995 547.781ZM149.489 542.433H148.62V552.215H149.489V542.433ZM141.523 549.673L141.996 550.377C145.275 548.804 146.585 546.312 146.596 543.5H141.974V544.204H145.715C145.523 546.543 144.169 548.419 141.523 549.673ZM162.044 542.433H161.186V548.364H162.044V542.433ZM154.111 544.193H160.108V543.489H157.544V542.356H156.675V543.489H154.111V544.193ZM154.716 546.416C154.705 547.489 155.662 548.166 157.115 548.166C158.562 548.166 159.508 547.489 159.514 546.416C159.508 545.354 158.562 544.678 157.115 544.678C155.662 544.678 154.705 545.354 154.716 546.416ZM155.541 546.416C155.53 545.767 156.158 545.338 157.115 545.338C158.061 545.338 158.683 545.767 158.688 546.416C158.683 547.082 158.061 547.495 157.115 547.506C156.158 547.495 155.53 547.082 155.541 546.416ZM155.684 552.083H162.044V548.892H155.684V552.083ZM156.532 551.379V549.585H161.197V551.379H156.532ZM172.63 546.548H163.706V547.241H172.63V546.548ZM164.784 548.793H170.627V549.739H164.806V552.105H171.772V551.401H165.665V550.388H171.474V548.122H164.784V548.793ZM164.894 545.745H171.563V545.041H165.764V543.467H171.463V542.774H164.894V545.745ZM181.015 542.433H180.156V552.237H181.015V547.032H182.654V546.306H181.015V542.433ZM173.873 549.783H174.643C176.503 549.783 177.785 549.728 179.32 549.453L179.21 548.705C177.752 548.974 176.503 549.052 174.732 549.057V544.105H178.44V543.39H173.873V549.783ZM184.217 551.39C184.607 551.384 184.926 551.065 184.921 550.675C184.926 550.289 184.607 549.97 184.217 549.97C183.831 549.97 183.501 550.289 183.512 550.675C183.501 551.065 183.831 551.384 184.217 551.39ZM186.373 550.675C186.362 551.065 186.692 551.384 187.077 551.39C187.468 551.384 187.787 551.065 187.782 550.675C187.787 550.289 187.468 549.97 187.077 549.97C186.692 549.97 186.362 550.289 186.373 550.675ZM189.234 550.675C189.223 551.065 189.553 551.384 189.938 551.39C190.329 551.384 190.648 551.065 190.643 550.675C190.648 550.289 190.329 549.97 189.938 549.97C189.553 549.97 189.223 550.289 189.234 550.675Z" fill="#ECECF8"/>
<defs>
<linearGradient id="paint0_linear_17_3682" x1="150" y1="45" x2="150" y2="242.183" gradientUnits="userSpaceOnUse">
<stop stop-color="#E4FFDC"/>
<stop offset="1" stop-color="#27491C" stop-opacity="0"/>
</linearGradient>
<clipPath id="clip0_17_3682">
<rect x="20" y="45" width="260" height="197.183" rx="8.4507" fill="white"/>
</clipPath>
</defs>
</svg>
