<svg width="405" height="342" viewBox="0 0 405 342" fill="none" xmlns="http://www.w3.org/2000/svg">
<g clip-path="url(#clip0_518_4633)">
<rect width="405" height="342" rx="20" fill="#131316" fill-opacity="0.6"/>
<rect x="20" y="20" width="180" height="200" rx="8.4507" fill="black"/>
<ellipse cx="145.452" cy="112.648" rx="4.57746" ry="11.9718" transform="rotate(9.95946 145.452 112.648)" fill="#F3A4A7"/>
<circle cx="144.803" cy="124.634" r="4.92958" fill="url(#paint0_radial_518_4633)"/>
<path d="M100.063 172.52C104.57 169.985 99.3585 140.243 96.1895 125.689C103.349 125.689 117.809 126.323 118.373 128.858C118.936 131.394 125.415 155.267 128.584 166.887L112.387 193.999C106.401 187.896 95.5557 175.056 100.063 172.52Z" fill="#FDC6BF"/>
<mask id="mask0_518_4633" style="mask-type:alpha" maskUnits="userSpaceOnUse" x="96" y="125" width="33" height="69">
<path d="M100.063 172.52C104.57 169.985 99.3585 140.243 96.1895 125.689C103.349 125.689 117.809 126.323 118.373 128.858C118.936 131.394 125.415 155.267 128.584 166.887L112.387 193.999C106.401 187.896 95.5557 175.056 100.063 172.52Z" fill="#FDC6BF"/>
</mask>
<g mask="url(#mask0_518_4633)">
<path d="M127.528 132.732L132.458 162.309C132.458 162.309 125.768 166.887 109.57 150.69C93.3732 134.492 89.5 129.563 89.5 129.563L93.7254 119.352L127.528 132.732Z" fill="url(#paint1_linear_518_4633)"/>
</g>
<mask id="mask1_518_4633" style="mask-type:alpha" maskUnits="userSpaceOnUse" x="57" y="159" width="106" height="61">
<path d="M57.6797 220C57.9614 209.578 68.5952 176.803 79.1586 170.7C98.1726 162.601 134.088 158.738 148.173 159.794C159.44 160.639 164.605 206.385 161.201 220H57.6797Z" fill="url(#paint2_linear_518_4633)"/>
</mask>
<g mask="url(#mask1_518_4633)">
<path d="M57.6797 220C57.9614 209.578 68.5952 176.803 79.1586 170.7C98.1726 162.601 134.088 158.738 148.173 159.794C159.44 160.639 164.605 206.385 161.201 220H57.6797Z" fill="url(#paint3_linear_518_4633)"/>
<path d="M80.8307 180.08L82.3794 184.155L86.7334 183.941L83.3365 186.673L84.8852 190.748L81.2371 188.362L77.8403 191.094L78.9825 186.887L75.3344 184.501L79.6884 184.287L80.8307 180.08Z" fill="#D9D9D9"/>
<path d="M95.8131 179.345L97.3618 183.419L101.716 183.206L98.3189 185.938L99.8676 190.013L96.2196 187.626L92.8227 190.358L93.9649 186.152L90.3168 183.765L94.6709 183.552L95.8131 179.345Z" fill="#D9D9D9"/>
<path d="M110.796 178.609L112.344 182.684L116.698 182.47L113.301 185.202L114.85 189.277L111.202 186.891L107.805 189.623L108.947 185.416L105.299 183.03L109.653 182.816L110.796 178.609Z" fill="#D9D9D9"/>
<path d="M125.776 177.874L127.325 181.949L131.679 181.735L128.282 184.467L129.831 188.542L126.182 186.156L122.786 188.888L123.928 184.681L120.28 182.294L124.634 182.081L125.776 177.874Z" fill="#D9D9D9"/>
<path d="M140.758 177.139L142.307 181.213L146.661 181L143.264 183.732L144.813 187.807L141.165 185.42L137.768 188.152L138.91 183.945L135.262 181.559L139.616 181.345L140.758 177.139Z" fill="#D9D9D9"/>
<path d="M80.8307 166.419L82.3794 170.494L86.7334 170.28L83.3365 173.012L84.8852 177.087L81.2371 174.701L77.8403 177.433L78.9825 173.226L75.3344 170.839L79.6884 170.626L80.8307 166.419Z" fill="#D9D9D9"/>
<path d="M95.8131 165.683L97.3618 169.758L101.716 169.545L98.3189 172.277L99.8676 176.352L96.2196 173.965L92.8227 176.697L93.9649 172.49L90.3168 170.104L94.6709 169.89L95.8131 165.683Z" fill="#D9D9D9"/>
<path d="M110.796 164.948L112.344 169.023L116.698 168.809L113.301 171.541L114.85 175.616L111.202 173.23L107.805 175.962L108.947 171.755L105.299 169.369L109.653 169.155L110.796 164.948Z" fill="#D9D9D9"/>
<path d="M125.776 164.213L127.325 168.288L131.679 168.074L128.282 170.806L129.831 174.881L126.182 172.495L122.786 175.227L123.928 171.02L120.28 168.633L124.634 168.42L125.776 164.213Z" fill="#D9D9D9"/>
<path d="M140.758 163.477L142.307 167.552L146.661 167.339L143.264 170.071L144.813 174.146L141.165 171.759L137.768 174.491L138.91 170.284L135.262 167.898L139.616 167.684L140.758 163.477Z" fill="#D9D9D9"/>
<path d="M80.8307 193.419L82.3794 197.494L86.7334 197.28L83.3365 200.012L84.8852 204.087L81.2371 201.701L77.8403 204.433L78.9825 200.226L75.3344 197.839L79.6884 197.626L80.8307 193.419Z" fill="#D9D9D9"/>
<path d="M95.8131 192.683L97.3618 196.758L101.716 196.545L98.3189 199.277L99.8676 203.352L96.2196 200.965L92.8227 203.697L93.9649 199.49L90.3168 197.104L94.6709 196.89L95.8131 192.683Z" fill="#D9D9D9"/>
<path d="M110.796 191.948L112.344 196.023L116.698 195.809L113.301 198.541L114.85 202.616L111.202 200.23L107.805 202.962L108.947 198.755L105.299 196.369L109.653 196.155L110.796 191.948Z" fill="#D9D9D9"/>
<path d="M125.776 191.213L127.325 195.288L131.679 195.074L128.282 197.806L129.831 201.881L126.182 199.495L122.786 202.227L123.928 198.02L120.28 195.633L124.634 195.42L125.776 191.213Z" fill="#D9D9D9"/>
<path d="M140.758 190.477L142.307 194.552L146.661 194.339L143.264 197.071L144.813 201.146L141.165 198.759L137.768 201.491L138.91 197.284L135.262 194.898L139.616 194.684L140.758 190.477Z" fill="#D9D9D9"/>
<path d="M80.8307 208.419L82.3794 212.494L86.7334 212.28L83.3365 215.012L84.8852 219.087L81.2371 216.701L77.8403 219.433L78.9825 215.226L75.3344 212.839L79.6884 212.626L80.8307 208.419Z" fill="#D9D9D9"/>
<path d="M95.8131 207.683L97.3618 211.758L101.716 211.545L98.3189 214.277L99.8676 218.352L96.2196 215.965L92.8227 218.697L93.9649 214.49L90.3168 212.104L94.6709 211.89L95.8131 207.683Z" fill="#D9D9D9"/>
<path d="M110.796 206.948L112.344 211.023L116.698 210.809L113.301 213.541L114.85 217.616L111.202 215.23L107.805 217.962L108.947 213.755L105.299 211.369L109.653 211.155L110.796 206.948Z" fill="#D9D9D9"/>
<path d="M125.776 206.213L127.325 210.288L131.679 210.074L128.282 212.806L129.831 216.881L126.182 214.495L122.786 217.227L123.928 213.02L120.28 210.633L124.634 210.42L125.776 206.213Z" fill="#D9D9D9"/>
<path d="M140.758 205.477L142.307 209.552L146.661 209.339L143.264 212.071L144.813 216.146L141.165 213.759L137.768 216.491L138.91 212.284L135.262 209.898L139.616 209.684L140.758 205.477Z" fill="#D9D9D9"/>
</g>
<path d="M79.6423 42.9438C88.938 37.0283 94.3136 45.4086 95.8394 50.3381C99.3623 50.3381 94.4293 55.2674 92.3166 64.0702C90.2039 72.873 86.6828 92.2392 82.8095 99.2815C78.9363 106.324 74.3588 110.901 71.5419 124.281C69.2884 134.986 67.9014 151.183 82.8095 160.197C82.8095 160.197 60.3739 158.401 53.3314 138.683C44.5284 114.035 65.9099 95.0561 62.7408 71.8167C59.5718 48.5773 68.0225 50.3381 79.6423 42.9438Z" fill="url(#paint4_linear_518_4633)"/>
<circle cx="85.6262" cy="60.549" r="9.50704" fill="#E0BF66"/>
<path d="M70.7889 74.6332C78.1129 45.6191 107.408 45.6423 119.38 52.0977C128.111 47.8727 131.166 55.972 131.402 59.4928L113.444 129.915C112.69 136.957 87.6196 135.478 84.5211 126.746C80.6478 115.83 61.634 110.901 70.7889 74.6332Z" fill="url(#paint5_linear_518_4633)"/>
<path d="M153 66.0002C148.638 55.2914 124.356 53.7408 118.37 58.7877C110.624 68.6465 130.408 75.338 133.225 82.7324C135.478 88.6478 137.994 110.905 139.872 119.591C141.397 117.009 148 111 148 100C148 89.0001 161 85.642 153 66.0002Z" fill="url(#paint6_linear_518_4633)"/>
<path d="M145.835 94.3513C146.68 89.2809 146.539 82.3781 135.976 68.2935C125.412 54.209 100.415 69.7034 95.8374 76.0415C91.2599 82.3795 91.2599 105.971 89.849 104.915C88.4381 103.858 85.6237 103.154 82.4547 105.971C79.2857 108.788 80.342 116.534 81.0462 121.464C81.7504 126.394 87.3842 128.154 89.849 129.915C91.8209 131.323 97.0087 131.91 99.3561 132.027C106.872 143.59 123.372 149.09 130.872 149.09C138.372 149.09 142.269 133.009 144.372 128.59C147.409 122.209 146.635 115.52 144.872 110.59C143.225 105.984 144.779 100.689 145.835 94.3513Z" fill="url(#paint7_linear_518_4633)"/>
<path d="M122.743 100.684C122.044 96.474 111.246 88.6821 103.745 102.183C110.246 96.1821 117.65 97.0423 122.743 100.684Z" fill="#D07966"/>
<mask id="mask2_518_4633" style="mask-type:alpha" maskUnits="userSpaceOnUse" x="104" y="97" width="19" height="14">
<path d="M105.538 101.221C107.471 97.9394 109.268 98.5447 111.67 97.3526C113.577 96.4066 118.344 98.2388 120.544 99.2973C121.957 100.248 121.984 105.24 122.042 106.295C122.101 107.35 119.791 109.425 118.404 109.855C117.017 110.285 113.911 110.105 107.809 108.443C106.11 107.98 103.606 104.503 105.538 101.221Z" fill="url(#paint8_linear_518_4633)"/>
</mask>
<g mask="url(#mask2_518_4633)">
<path d="M105.538 101.221C107.47 97.939 109.267 98.5442 111.669 97.3521C113.576 96.4062 118.343 98.2383 120.543 99.2968C121.957 100.248 121.983 105.24 122.042 106.295C122.1 107.349 119.79 109.424 118.403 109.854C117.017 110.284 109.273 109.419 107.808 108.443C106.343 107.466 103.605 104.503 105.538 101.221Z" fill="url(#paint9_linear_518_4633)"/>
<path d="M115.193 108.031C113.611 105.265 113.775 99.4692 114.588 97.1902C115.897 95.3539 120.623 97.9113 121.404 99.2783C122.186 100.645 123.871 106.675 121.843 108.662C119.168 111.281 117.539 112.133 115.193 108.031Z" fill="url(#paint10_radial_518_4633)"/>
<ellipse cx="118.199" cy="102.354" rx="2" ry="2.5" transform="rotate(-3.1954 118.199 102.354)" fill="#1F2714"/>
<ellipse cx="115.091" cy="100.525" rx="1" ry="0.5" transform="rotate(-3.1954 115.091 100.525)" fill="white"/>
</g>
<path d="M108.504 108.683C106.534 107.381 105.213 103.825 105.245 102.295C106.3 99.8538 108.25 99.3343 110.179 98.6826C113.73 97.4824 120.252 99.5231 122.679 100.683C121.903 99.8743 120.966 98.5171 119.246 97.8226C115.983 96.5053 111.204 96.2688 108.504 97.5282C104.379 99.4517 103.973 98.4869 103.23 97.8226C103.66 99.2096 104.989 100.264 107.176 99.0134C106.532 100.107 104.163 101.895 102.898 101.227C101.634 100.559 101.872 100.784 100.818 99.8408C100.929 101.838 104.048 102.474 104.208 102.706C104.508 103.14 104.788 104.999 105.179 105.683C105.569 106.366 106.679 108.183 108.504 108.683Z" fill="#000525"/>
<path d="M108.473 111.351C108.43 109.897 109.334 108.858 109.334 108.858L110.361 109.302C109.562 109.346 108.612 110.863 108.473 111.351Z" fill="black"/>
<path d="M107.422 110.468C107.338 108.97 108.309 108.415 108.309 108.415L108.836 108.886C108.037 108.931 107.866 109.441 107.422 110.468Z" fill="black"/>
<path d="M109.503 111.854C109.46 110.399 110.362 109.302 110.362 109.302L111.361 109.268C110.563 109.312 109.642 111.365 109.503 111.854Z" fill="black"/>
<path d="M111.472 111.243L111.888 109.717L112.388 109.711C111.917 110.238 111.472 111.243 111.472 111.243Z" fill="black"/>
<path d="M112.497 111.686C112.498 111.708 112.886 109.683 112.886 109.683L113.379 109.656C113.381 109.654 113.384 109.654 113.385 109.655L113.379 109.656C113.28 109.716 112.498 111.707 112.497 111.686Z" fill="black"/>
<path d="M113.968 111.126L113.885 109.628L114.384 109.6L113.968 111.126Z" fill="black"/>
<path d="M92.6702 114.423C93.7265 116.183 92.3198 117.592 90.9113 119C89.0244 120.887 91.2676 122.521 91.2634 122.521C89.8566 125.337 89.5012 124.985 84.9237 122.521C80.3463 120.056 80.6984 111.958 84.2195 109.493C87.7406 107.028 91.6139 112.662 92.6702 114.423Z" fill="#FA9CAE"/>
<path d="M129.64 130.952C134.41 131.25 135.963 131.66 137.872 130.591C135.407 132.703 137.651 133.607 134.922 133.769C130.456 134.035 124.2 132.434 122.598 130.248C124.566 131.232 127.078 130.792 129.64 130.952Z" fill="#F7E0E0"/>
<path d="M104.372 87.0901C116.767 77.5127 127.337 67.0807 124.872 63.0901C124.872 48.6041 100.972 53.5146 89.4989 65.83C80.8721 75.0901 83.0556 85.5972 85.8725 101.09C88.6894 116.583 94.4893 123.09 94.4893 120.59C94.4893 118.09 88.8794 99.062 104.372 87.0901Z" fill="url(#paint11_linear_518_4633)"/>
<g filter="url(#filter0_d_518_4633)">
<path d="M151.504 75.0001C149.331 59.4881 133.659 56.635 128.971 56.7973C121.01 63.5155 141.295 69.9082 143.531 86.5907C144.62 94.719 143.135 102.582 145.003 110.091C145.341 109.591 146.519 121.091 147.487 109.591C146.381 103.178 152.467 81.8669 151.504 75.0001Z" fill="url(#paint12_linear_518_4633)"/>
</g>
<path d="M101.873 97.9035C111.873 86.0903 119.644 88.3155 121.642 92.0863C113.669 89.8225 115.009 90.9652 111.077 91.7772C109.126 92.1801 104.114 95.9272 101.873 97.9035Z" fill="#C85B4B"/>
<path d="M144.313 101.39C143.69 96.9931 139.247 92.6831 134.247 100.183C140.849 97.2485 139.25 97.6731 144.313 101.39Z" fill="#D07966"/>
<path d="M143.596 100.732C142.304 98.0048 141.227 98.6111 139.72 97.7021C138.524 96.9807 135.675 98.7836 134.368 99.7985C133.537 100.683 133.691 104.974 133.691 105.883C133.691 106.792 135.146 108.496 136.007 108.799C136.868 109.102 141.227 108.307 142.088 107.398C142.95 106.489 144.888 103.459 143.596 100.732Z" fill="url(#paint13_linear_518_4633)"/>
<mask id="mask3_518_4633" style="mask-type:alpha" maskUnits="userSpaceOnUse" x="133" y="97" width="12" height="13">
<path d="M143.598 100.732C142.306 98.0048 141.229 98.6111 139.722 97.7021C138.526 96.9807 135.677 98.7836 134.37 99.7985C133.539 100.683 133.693 104.974 133.693 105.883C133.693 106.792 135.201 108.913 136.062 109.216C136.923 109.519 141.229 108.307 142.09 107.398C142.952 106.489 144.89 103.459 143.598 100.732Z" fill="#EDF1FA"/>
</mask>
<g mask="url(#mask3_518_4633)">
<path d="M144.044 104.653C145.422 102.714 144.618 98.3908 144.044 96.4718C143.182 94.9568 138.127 97.3399 137.697 98.5519C137.266 99.7639 137.356 107.503 142.483 107.503C145.3 107.503 142.321 107.077 144.044 104.653Z" fill="url(#paint14_radial_518_4633)"/>
</g>
<path d="M142.519 106.792C143.389 105.788 143.883 102.954 143.811 101.641C143.032 99.4484 142.022 98.8223 140.721 98.4135C138.57 97.7378 135.938 98.4506 134.552 99.5204C135.844 98.308 139.075 96.2471 141.659 97.7019C144.243 99.1567 145.89 97.9541 146.389 97.1826C146.174 97.9908 144.211 99.9893 142.833 99.0195C143.264 99.9285 143.699 101.137 144.889 100.625C145.889 100.194 146.752 99.5204 146.824 99.5204C146.824 100.194 144.631 101.944 144.458 101.944C144.243 101.944 144.243 103.156 144.028 103.762C143.812 104.368 143.595 106.186 142.519 106.792Z" fill="#000525"/>
<ellipse cx="1.5" cy="1.72103" rx="1.5" ry="1.72103" transform="matrix(-1 0 0 1 143.389 100.194)" fill="#1F2714"/>
<ellipse cx="1" cy="0.430257" rx="1" ry="0.430257" transform="matrix(-1 0 0 1 141.389 100.194)" fill="white"/>
<path d="M142.513 109.61C142.479 108.358 141.889 107.509 141.889 107.509L141.196 108.018C141.896 108.018 142.367 109.196 142.513 109.61Z" fill="black"/>
<path d="M143.674 108.369C143.674 107.078 142.389 107.078 142.389 107.078L141.889 107.508H141.889C142.589 107.508 143.236 107.508 143.674 108.369Z" fill="black"/>
<path d="M141.639 110.089C141.605 108.838 140.696 108.018 140.696 108.018L139.889 108.368C140.589 108.368 141.493 109.676 141.639 110.089Z" fill="black"/>
<path d="M138.889 109.739V108.604H138.196C138.634 109.034 138.889 109.739 138.889 109.739Z" fill="black"/>
<path d="M135.477 92.9694C138.448 91.8889 143.654 90.8178 145.491 92.9686C144.85 91.3465 143.022 90.5485 140.555 90.1277C138.089 89.7068 136.323 90.5406 135.477 92.9694Z" fill="#C85B4B"/>
<path d="M100.416 154.563C99.3593 157.38 94.4297 166.042 94.4297 175.338C106.754 195.408 132.106 175.338 134.218 168.295C135.909 162.662 128.585 154.915 124.711 151.746C124.125 152.92 122.058 161.957 111.331 161.957C102.176 161.957 104.641 157.38 100.416 154.563Z" fill="#F9EFE4"/>
<path d="M132.81 133.084C137.58 133.382 135.873 131.091 140.204 130.248C138.092 132.361 137.102 136.428 134.373 136.591C129.907 136.856 127.176 134.826 121.895 130.248C122.817 130.402 126.026 131.029 127.873 131.591C130.256 132.315 131.367 132.994 132.81 133.084Z" fill="url(#paint15_linear_518_4633)"/>
<circle cx="132.402" cy="134.5" r="0.5" fill="white"/>
<circle cx="133.902" cy="134.5" r="0.5" fill="white"/>
<circle cx="137.386" cy="114.422" r="0.704225" fill="white"/>
<path d="M121.895 130.256C135.979 133.417 137.622 131.899 140.557 130.256C140.275 129.693 139.031 129.49 138.444 128.583C138.092 128.231 137.035 129.192 136.331 129.544C135.768 129.826 134.453 129.17 133.514 128.935L121.895 130.256Z" fill="#D7506A"/>
<g filter="url(#filter1_f_518_4633)">
<path d="M140.907 110.902C136.964 112.592 134.842 109.337 133.785 107.459C131.321 112.036 129.21 115.91 127.802 118.022C126.394 120.135 129.563 120.135 130.619 120.135C131.675 120.135 133.084 120.839 134.492 122.248C135.619 123.374 137.126 122.9 137.738 122.521C140.837 119.423 141.142 113.484 140.907 110.902Z" fill="#F5A69C" fill-opacity="0.6"/>
</g>
<path d="M133.49 107.591C134.547 109.469 136.965 112.592 140.909 110.901C141.144 113.484 140.838 119.423 137.74 122.521" stroke="url(#paint16_linear_518_4633)" stroke-width="0.704225" stroke-linecap="round"/>
<path d="M130.344 120.056C132.034 119.492 133.865 120.055 134.217 120.407C134.217 120.759 133.659 120.904 133.161 120.407C132.809 120.055 130.931 119.938 130.344 120.056Z" fill="#3A2323"/>
<circle cx="137.388" cy="114.422" r="0.704225" fill="white"/>
<circle cx="97.1972" cy="132.38" r="4.92958" fill="url(#paint17_radial_518_4633)"/>
<g filter="url(#filter2_d_518_4633)">
<path d="M126.658 57.5034C129.122 61.494 122.552 74.426 110.158 84.0034C98.0096 93.3908 96.92 111.421 97.0157 118.044C97.0999 119.059 97.1582 119.893 97.1582 120.503C97.1582 120.827 97.042 119.868 97.0157 118.044C96.3409 109.915 94.0028 90.1612 106.658 80.5033C120.038 70.292 116.876 53.92 126.658 57.5034Z" fill="url(#paint18_linear_518_4633)"/>
</g>
<rect x="220.352" y="20.3521" width="115.197" height="18.9296" rx="9.46479" fill="#2E075F"/>
<rect x="220.352" y="20.3521" width="115.197" height="18.9296" rx="9.46479" stroke="#944AF2" stroke-width="0.704225"/>
<path d="M229.166 33.8174V25.333H232.494C234.422 25.333 235.529 26.5225 235.529 28.1924C235.529 29.8857 234.404 31.0518 232.447 31.0518H230.924V33.8174H229.166ZM230.924 29.6338H232.166C233.209 29.6338 233.719 29.0479 233.713 28.1924C233.719 27.3486 233.209 26.7803 232.166 26.7744H230.924V29.6338ZM236.607 33.8174V27.4541H238.283V28.5557H238.354C238.582 27.7764 239.174 27.3604 239.889 27.3604C240.064 27.3604 240.287 27.3838 240.439 27.4189V28.9658C240.275 28.9131 239.941 28.8721 239.701 28.8721C238.916 28.8721 238.336 29.417 238.342 30.1963V33.8174H236.607ZM243.943 33.9463C242.021 33.9404 240.82 32.6221 240.826 30.6533C240.82 28.6904 242.021 27.3721 243.943 27.3721C245.871 27.3721 247.066 28.6904 247.072 30.6533C247.066 32.6221 245.871 33.9404 243.943 33.9463ZM242.584 30.6533C242.584 31.7666 243.047 32.5928 243.955 32.5986C244.84 32.5928 245.309 31.7666 245.303 30.6533C245.309 29.5342 244.84 28.6963 243.955 28.6963C243.047 28.6963 242.584 29.5342 242.584 30.6533ZM250.506 33.9229C249.053 33.9229 247.916 32.7686 247.916 30.6416C247.916 28.4619 249.1 27.3721 250.506 27.3721C251.572 27.3721 252.082 28.0049 252.311 28.5205H252.369V25.333H254.104V33.8174H252.393V32.7979H252.311C252.07 33.3252 251.543 33.9229 250.506 33.9229ZM249.697 30.6299C249.691 31.7549 250.166 32.5342 251.045 32.54C251.912 32.5342 252.404 31.7783 252.404 30.6299C252.404 29.4873 251.918 28.7549 251.045 28.7549C250.16 28.7549 249.691 29.5225 249.697 30.6299ZM259.576 31.1104V27.4541H261.311V33.8174H259.646V32.6689H259.576C259.289 33.4072 258.604 33.8994 257.643 33.8994C256.371 33.8994 255.498 32.9971 255.498 31.5088V27.4541H257.232V31.2041C257.232 31.96 257.666 32.4287 258.346 32.4346C258.979 32.4287 259.576 31.9775 259.576 31.1104ZM265.518 33.9463C263.566 33.9404 262.395 32.5928 262.4 30.6533C262.395 28.708 263.59 27.3721 265.518 27.3721C267.158 27.3721 268.271 28.3271 268.342 29.7861H266.713C266.607 29.1592 266.197 28.7256 265.541 28.7197C264.709 28.7256 264.158 29.4229 264.158 30.6299C264.158 31.8604 264.697 32.5635 265.541 32.5635C266.15 32.5635 266.602 32.1826 266.713 31.5088H268.342C268.266 32.9502 267.205 33.9404 265.518 33.9463ZM272.771 27.4541V28.7549H271.576V31.8604C271.57 32.3701 271.822 32.4932 272.174 32.5049C272.35 32.5049 272.654 32.4873 272.865 32.4697V33.8408C272.678 33.8701 272.367 33.9053 271.939 33.8994C270.686 33.9053 269.83 33.3428 269.842 32.1064V28.7549H268.963V27.4541H269.842V25.9307H271.576V27.4541H272.771ZM284.432 29.5752C284.432 32.3467 282.715 33.9346 280.471 33.9346C278.209 33.9346 276.498 32.335 276.498 29.5752C276.498 26.8037 278.209 25.2158 280.471 25.2158C282.715 25.2158 284.432 26.8037 284.432 29.5752ZM278.291 29.5752C278.291 31.3857 279.152 32.3701 280.471 32.376C281.777 32.3701 282.645 31.3857 282.639 29.5752C282.645 27.7588 281.777 26.7803 280.471 26.7744C279.152 26.7803 278.291 27.7588 278.291 29.5752ZM285.662 36.208V27.4541H287.373V28.5205H287.443C287.684 28.0049 288.188 27.3721 289.26 27.3721C290.666 27.3721 291.844 28.4619 291.838 30.6416C291.844 32.7686 290.713 33.9229 289.26 33.9229C288.223 33.9229 287.689 33.3252 287.443 32.7979H287.396V36.208H285.662ZM287.361 30.6299C287.355 31.7783 287.848 32.5342 288.709 32.54C289.594 32.5342 290.074 31.7549 290.068 30.6299C290.074 29.5225 289.605 28.7549 288.709 28.7549C287.842 28.7549 287.355 29.4873 287.361 30.6299ZM295.846 33.9463C293.895 33.9404 292.699 32.6807 292.705 30.665C292.699 28.7021 293.912 27.3721 295.775 27.3721C297.445 27.3721 298.764 28.4268 298.764 30.5947V31.0869H294.416C294.416 32.0479 294.984 32.6396 295.881 32.6455C296.473 32.6396 296.895 32.3818 297.064 32.001H298.717C298.471 33.1787 297.416 33.9404 295.846 33.9463ZM294.416 29.9971H297.123C297.117 29.2236 296.584 28.667 295.811 28.6729C295.014 28.667 294.451 29.2646 294.416 29.9971ZM299.854 33.8174V27.4541H301.529V28.5557H301.6C301.828 27.7764 302.42 27.3604 303.135 27.3604C303.311 27.3604 303.533 27.3838 303.686 27.4189V28.9658C303.521 28.9131 303.188 28.8721 302.947 28.8721C302.162 28.8721 301.582 29.417 301.588 30.1963V33.8174H299.854ZM304.049 32.0361C304.055 30.6182 305.191 30.1553 306.416 30.0791C306.873 30.0498 307.729 30.0088 307.998 29.9971V29.4814C307.992 28.9482 307.629 28.6436 306.979 28.6377C306.387 28.6436 306.018 28.9072 305.924 29.3408H304.271C304.377 28.2393 305.338 27.3721 307.025 27.3721C308.414 27.3721 309.727 27.9932 309.721 29.5283V33.8174H308.08V32.9385H308.033C307.723 33.5244 307.113 33.9404 306.17 33.9346C304.951 33.9404 304.055 33.2959 304.049 32.0361ZM305.713 31.9893C305.713 32.4756 306.105 32.7334 306.662 32.7393C307.453 32.7334 308.004 32.2178 307.998 31.5439V31.0811C307.734 31.0928 306.99 31.1338 306.697 31.1572C306.094 31.21 305.713 31.4971 305.713 31.9893ZM314.396 27.4541V28.7549H313.201V31.8604C313.195 32.3701 313.447 32.4932 313.799 32.5049C313.975 32.5049 314.279 32.4873 314.49 32.4697V33.8408C314.303 33.8701 313.992 33.9053 313.564 33.8994C312.311 33.9053 311.455 33.3428 311.467 32.1064V28.7549H310.588V27.4541H311.467V25.9307H313.201V27.4541H314.396ZM318.275 33.9463C316.354 33.9404 315.152 32.6221 315.158 30.6533C315.152 28.6904 316.354 27.3721 318.275 27.3721C320.203 27.3721 321.398 28.6904 321.404 30.6533C321.398 32.6221 320.203 33.9404 318.275 33.9463ZM316.916 30.6533C316.916 31.7666 317.379 32.5928 318.287 32.5986C319.172 32.5928 319.641 31.7666 319.635 30.6533C319.641 29.5342 319.172 28.6963 318.287 28.6963C317.379 28.6963 316.916 29.5342 316.916 30.6533ZM322.494 33.8174V27.4541H324.17V28.5557H324.24C324.469 27.7764 325.061 27.3604 325.775 27.3604C325.951 27.3604 326.174 27.3838 326.326 27.4189V28.9658C326.162 28.9131 325.828 28.8721 325.588 28.8721C324.803 28.8721 324.223 29.417 324.229 30.1963V33.8174H322.494Z" fill="#ECECF8"/>
<path d="M221.43 74.6338V57.665H232.82V60.5713H224.945V64.6963H232.234V67.6025H224.945V71.7275H232.844V74.6338H221.43ZM238.961 57.665V74.6338H235.492V57.665H238.961ZM245.125 57.665V74.6338H241.656V57.665H245.125ZM247.82 74.6338V61.9072H251.289V74.6338H247.82ZM247.656 58.4854C247.656 57.501 248.512 56.7158 249.555 56.7041C250.586 56.7158 251.441 57.501 251.43 58.4854C251.441 59.4463 250.586 60.2432 249.555 60.2432C248.512 60.2432 247.656 59.4463 247.656 58.4854ZM259.75 74.8916C255.848 74.8799 253.457 72.3604 253.469 68.3291C253.457 64.4033 255.883 61.7432 259.609 61.7432C262.949 61.7432 265.586 63.8525 265.586 68.1885V69.1729H256.891C256.891 71.0947 258.027 72.2783 259.82 72.29C261.004 72.2783 261.848 71.7627 262.188 71.001H265.492C265 73.3564 262.891 74.8799 259.75 74.8916ZM256.891 66.9932H262.305C262.293 65.4463 261.227 64.333 259.68 64.3447C258.086 64.333 256.961 65.5283 256.891 66.9932Z" fill="#ECECF8"/>
<path d="M223.484 107.634L220.25 96.3213H222.812L224.719 104.228H224.812L226.891 96.3213H229.094L231.172 104.243H231.266L233.172 96.3213H235.734L232.5 107.634H230.203L228.047 100.165H227.953L225.781 107.634H223.484ZM239.203 102.728V107.634H236.891V96.3213H239.141V100.634H239.234C239.625 99.6416 240.477 99.04 241.766 99.04C243.539 99.04 244.703 100.235 244.703 102.228V107.634H242.391V102.634C242.391 101.579 241.828 100.962 240.859 100.962C239.883 100.962 239.203 101.61 239.203 102.728ZM246.078 105.259C246.086 103.368 247.602 102.751 249.234 102.649C249.844 102.61 250.984 102.556 251.344 102.54V101.853C251.336 101.142 250.852 100.735 249.984 100.728C249.195 100.735 248.703 101.087 248.578 101.665H246.375C246.516 100.196 247.797 99.04 250.047 99.04C251.898 99.04 253.648 99.8682 253.641 101.915V107.634H251.453V106.462H251.391C250.977 107.243 250.164 107.798 248.906 107.79C247.281 107.798 246.086 106.938 246.078 105.259ZM248.297 105.196C248.297 105.845 248.82 106.188 249.562 106.196C250.617 106.188 251.352 105.501 251.344 104.603V103.985C250.992 104.001 250 104.056 249.609 104.087C248.805 104.157 248.297 104.54 248.297 105.196ZM259.875 99.1494V100.884H258.281V105.024C258.273 105.704 258.609 105.868 259.078 105.884C259.312 105.884 259.719 105.86 260 105.837V107.665C259.75 107.704 259.336 107.751 258.766 107.743C257.094 107.751 255.953 107.001 255.969 105.353V100.884H254.797V99.1494H255.969V97.1182H258.281V99.1494H259.875ZM266.375 110.821C265.922 110.813 265.5 110.806 265.203 110.774V108.978C265.5 109.001 265.852 109.009 266.141 109.009C266.602 109.009 266.969 108.962 267.25 108.228L267.391 107.868L264.344 99.1494H266.766L268.547 105.399H268.641L270.438 99.1494H272.891L269.578 108.571C269.094 109.938 268.164 110.813 266.375 110.821ZM277.547 107.806C274.984 107.798 273.383 106.04 273.391 103.415C273.383 100.798 274.984 99.04 277.547 99.04C280.117 99.04 281.711 100.798 281.719 103.415C281.711 106.04 280.117 107.798 277.547 107.806ZM275.734 103.415C275.734 104.899 276.352 106.001 277.562 106.009C278.742 106.001 279.367 104.899 279.359 103.415C279.367 101.923 278.742 100.806 277.562 100.806C276.352 100.806 275.734 101.923 275.734 103.415ZM288.609 104.024V99.1494H290.922V107.634H288.703V106.103H288.609C288.227 107.087 287.312 107.743 286.031 107.743C284.336 107.743 283.172 106.54 283.172 104.556V99.1494H285.484V104.149C285.484 105.157 286.062 105.782 286.969 105.79C287.812 105.782 288.609 105.181 288.609 104.024ZM298.078 107.634L295.766 99.1494H298.109L299.438 104.884H299.516L300.906 99.1494H303.203L304.609 104.853H304.688L306 99.1494H308.344L306.016 107.634H303.578L302.109 102.243H302L300.531 107.634H298.078ZM309.109 105.259C309.117 103.368 310.633 102.751 312.266 102.649C312.875 102.61 314.016 102.556 314.375 102.54V101.853C314.367 101.142 313.883 100.735 313.016 100.728C312.227 100.735 311.734 101.087 311.609 101.665H309.406C309.547 100.196 310.828 99.04 313.078 99.04C314.93 99.04 316.68 99.8682 316.672 101.915V107.634H314.484V106.462H314.422C314.008 107.243 313.195 107.798 311.938 107.79C310.312 107.798 309.117 106.938 309.109 105.259ZM311.328 105.196C311.328 105.845 311.852 106.188 312.594 106.196C313.648 106.188 314.383 105.501 314.375 104.603V103.985C314.023 104.001 313.031 104.056 312.641 104.087C311.836 104.157 311.328 104.54 311.328 105.196ZM320.75 102.728V107.634H318.438V99.1494H320.641V100.634H320.734C321.117 99.6572 322.023 99.04 323.281 99.04C325.055 99.04 326.211 100.251 326.203 102.228V107.634H323.906V102.634C323.898 101.587 323.336 100.962 322.375 100.962C321.414 100.962 320.75 101.61 320.75 102.728ZM332.469 99.1494V100.884H330.875V105.024C330.867 105.704 331.203 105.868 331.672 105.884C331.906 105.884 332.312 105.86 332.594 105.837V107.665C332.344 107.704 331.93 107.751 331.359 107.743C329.688 107.751 328.547 107.001 328.562 105.353V100.884H327.391V99.1494H328.562V97.1182H330.875V99.1494H332.469Z" fill="#ECECF8" fill-opacity="0.5"/>
<path d="M222.516 117.553V127.451H221.012V117.553H222.516ZM229.42 127.451L227.246 120.027H228.75L230.199 125.469H230.281L231.73 120.027H233.234L234.67 125.441H234.752L236.188 120.027H237.691L235.518 127.451H234.027L232.523 122.105H232.414L230.924 127.451H229.42ZM238.553 125.359C238.546 123.664 239.988 123.227 241.328 123.131C241.82 123.104 242.935 123.042 243.276 123.028L243.27 122.434C243.276 121.593 242.757 121.107 241.766 121.107C240.904 121.107 240.385 121.504 240.234 122.051H238.785C238.915 120.82 240.063 119.932 241.82 119.932C243.003 119.932 244.726 120.362 244.732 122.516V127.451H243.311V126.439H243.256C242.969 126.993 242.285 127.615 241.055 127.615C239.646 127.615 238.546 126.809 238.553 125.359ZM239.975 125.373C239.975 126.084 240.562 126.446 241.383 126.453C242.572 126.446 243.283 125.653 243.283 124.771L243.276 124.095C242.941 124.115 241.882 124.19 241.533 124.211C240.576 124.279 239.975 124.642 239.975 125.373ZM247.959 123.049V127.451H246.496V120.027H247.904V121.244H247.986C248.335 120.444 249.066 119.932 250.174 119.932C251.698 119.932 252.71 120.896 252.703 122.734V127.451H251.254V122.912C251.247 121.832 250.666 121.189 249.682 121.189C248.677 121.189 247.959 121.866 247.959 123.049ZM257.953 120.027V121.189H256.436V125.264C256.442 126.104 256.853 126.255 257.324 126.262C257.536 126.262 257.857 126.241 258.062 126.221V127.492C257.864 127.52 257.55 127.547 257.146 127.547C256.005 127.547 254.973 126.918 254.986 125.564V121.189H253.893V120.027H254.986V118.25H256.436V120.027H257.953ZM266.266 120.027V121.189H264.748V125.264C264.755 126.104 265.165 126.255 265.637 126.262C265.849 126.262 266.17 126.241 266.375 126.221V127.492C266.177 127.52 265.862 127.547 265.459 127.547C264.317 127.547 263.285 126.918 263.299 125.564V121.189H262.205V120.027H263.299V118.25H264.748V120.027H266.266ZM270.75 127.602C268.645 127.602 267.271 126.07 267.277 123.773C267.271 121.463 268.645 119.932 270.75 119.932C272.842 119.932 274.209 121.463 274.209 123.773C274.209 126.07 272.842 127.602 270.75 127.602ZM268.74 123.773C268.74 125.188 269.39 126.385 270.75 126.385C272.09 126.385 272.732 125.188 272.732 123.773C272.732 122.352 272.09 121.142 270.75 121.135C269.39 121.142 268.74 122.352 268.74 123.773ZM279.062 127.451V120.027H280.471V121.203H280.553C280.826 120.41 281.571 119.911 282.439 119.918C282.617 119.911 282.904 119.932 283.055 119.945V121.34C282.932 121.312 282.59 121.251 282.289 121.258C281.277 121.251 280.525 121.955 280.525 122.926V127.451H279.062ZM287.102 127.602C284.914 127.602 283.567 126.091 283.574 123.787C283.567 121.504 284.935 119.932 287.006 119.932C288.694 119.932 290.301 120.978 290.301 123.664V124.184H285.023C285.064 125.599 285.898 126.398 287.115 126.398C287.942 126.398 288.482 126.043 288.729 125.592H290.205C289.877 126.795 288.735 127.602 287.102 127.602ZM285.03 123.09H288.865C288.865 121.962 288.134 121.128 287.02 121.135C285.851 121.128 285.092 122.044 285.03 123.09ZM295.92 122.051C295.783 121.463 295.318 121.08 294.512 121.08C293.678 121.08 293.083 121.511 293.09 122.078C293.083 122.516 293.432 122.83 294.252 123.021L295.428 123.295C296.795 123.603 297.458 124.252 297.465 125.305C297.458 126.645 296.323 127.602 294.43 127.602C292.646 127.602 291.593 126.809 291.408 125.428H292.898C293.028 126.098 293.534 126.433 294.416 126.426C295.359 126.433 295.968 126.036 295.975 125.414C295.968 124.936 295.612 124.628 294.826 124.443L293.664 124.197C292.324 123.903 291.627 123.186 291.627 122.16C291.627 120.841 292.775 119.932 294.498 119.932C296.152 119.932 297.185 120.772 297.328 122.051H295.92ZM302.031 127.602C299.926 127.602 298.552 126.07 298.559 123.773C298.552 121.463 299.926 119.932 302.031 119.932C304.123 119.932 305.49 121.463 305.49 123.773C305.49 126.07 304.123 127.602 302.031 127.602ZM300.021 123.773C300.021 125.188 300.671 126.385 302.031 126.385C303.371 126.385 304.014 125.188 304.014 123.773C304.014 122.352 303.371 121.142 302.031 121.135C300.671 121.142 300.021 122.352 300.021 123.773ZM308.389 117.553V127.451H306.926V117.553H308.389ZM316.537 120.027L313.844 127.451H312.271L309.578 120.027H311.15L313.023 125.729H313.092L314.965 120.027H316.537ZM320.666 127.602C318.479 127.602 317.132 126.091 317.139 123.787C317.132 121.504 318.499 119.932 320.57 119.932C322.259 119.932 323.865 120.978 323.865 123.664V124.184H318.588C318.629 125.599 319.463 126.398 320.68 126.398C321.507 126.398 322.047 126.043 322.293 125.592H323.77C323.441 126.795 322.3 127.602 320.666 127.602ZM318.595 123.09H322.43C322.43 121.962 321.698 121.128 320.584 121.135C319.415 121.128 318.656 122.044 318.595 123.09ZM328.391 125.359C328.384 123.664 329.826 123.227 331.166 123.131C331.658 123.104 332.772 123.042 333.114 123.028L333.107 122.434C333.114 121.593 332.595 121.107 331.604 121.107C330.742 121.107 330.223 121.504 330.072 122.051H328.623C328.753 120.82 329.901 119.932 331.658 119.932C332.841 119.932 334.563 120.362 334.57 122.516V127.451H333.148V126.439H333.094C332.807 126.993 332.123 127.615 330.893 127.615C329.484 127.615 328.384 126.809 328.391 125.359ZM329.812 125.373C329.812 126.084 330.4 126.446 331.221 126.453C332.41 126.446 333.121 125.653 333.121 124.771L333.114 124.095C332.779 124.115 331.72 124.19 331.371 124.211C330.414 124.279 329.812 124.642 329.812 125.373ZM337.797 123.049V127.451H336.334V120.027H337.742V121.244H337.824C338.173 120.444 338.904 119.932 340.012 119.932C341.536 119.932 342.548 120.896 342.541 122.734V127.451H341.092V122.912C341.085 121.832 340.504 121.189 339.52 121.189C338.515 121.189 337.797 121.866 337.797 123.049ZM344.947 130.24C344.646 130.233 344.353 130.227 344.168 130.199V128.982C344.332 128.996 344.619 129.003 344.824 129.01C345.275 129.003 345.651 128.976 346 128.039L346.178 127.547L343.457 120.027H345.016L346.889 125.783H346.971L348.844 120.027H350.416L347.354 128.436C346.923 129.611 346.171 130.233 344.947 130.24ZM220.889 144.451V137.027H222.352V144.451H220.889ZM220.697 135.018C220.704 134.539 221.121 134.156 221.627 134.156C222.126 134.156 222.543 134.539 222.543 135.018C222.543 135.496 222.126 135.886 221.627 135.879C221.121 135.886 220.704 135.496 220.697 135.018ZM225.592 140.049V144.451H224.129V137.027H225.537V138.244H225.619C225.968 137.444 226.699 136.932 227.807 136.932C229.331 136.932 230.343 137.896 230.336 139.734V144.451H228.887V139.912C228.88 138.832 228.299 138.189 227.314 138.189C226.31 138.189 225.592 138.866 225.592 140.049ZM235.654 137.027V138.189H234.055V144.451H232.592V138.189H231.443V137.027H232.592V136.166C232.599 134.84 233.446 134.088 234.807 134.088C235.155 134.088 235.518 134.129 235.805 134.184V135.4C235.531 135.359 235.319 135.346 235.189 135.346C234.417 135.346 234.055 135.66 234.055 136.385V137.027H235.654ZM236.98 144.451V137.027H238.389V138.203H238.471C238.744 137.41 239.489 136.911 240.357 136.918C240.535 136.911 240.822 136.932 240.973 136.945V138.34C240.85 138.312 240.508 138.251 240.207 138.258C239.195 138.251 238.443 138.955 238.443 139.926V144.451H236.98ZM241.643 142.359C241.636 140.664 243.078 140.227 244.418 140.131C244.91 140.104 246.024 140.042 246.366 140.028L246.359 139.434C246.366 138.593 245.847 138.107 244.855 138.107C243.994 138.107 243.475 138.504 243.324 139.051H241.875C242.005 137.82 243.153 136.932 244.91 136.932C246.093 136.932 247.815 137.362 247.822 139.516V144.451H246.4V143.439H246.346C246.059 143.993 245.375 144.615 244.145 144.615C242.736 144.615 241.636 143.809 241.643 142.359ZM243.064 142.373C243.064 143.084 243.652 143.446 244.473 143.453C245.662 143.446 246.373 142.653 246.373 141.771L246.366 141.095C246.031 141.115 244.972 141.19 244.623 141.211C243.666 141.279 243.064 141.642 243.064 142.373ZM253.756 139.051C253.619 138.463 253.154 138.08 252.348 138.08C251.514 138.08 250.919 138.511 250.926 139.078C250.919 139.516 251.268 139.83 252.088 140.021L253.264 140.295C254.631 140.603 255.294 141.252 255.301 142.305C255.294 143.645 254.159 144.602 252.266 144.602C250.481 144.602 249.429 143.809 249.244 142.428H250.734C250.864 143.098 251.37 143.433 252.252 143.426C253.195 143.433 253.804 143.036 253.811 142.414C253.804 141.936 253.448 141.628 252.662 141.443L251.5 141.197C250.16 140.903 249.463 140.186 249.463 139.16C249.463 137.841 250.611 136.932 252.334 136.932C253.988 136.932 255.021 137.772 255.164 139.051H253.756ZM260.195 137.027V138.189H258.678V142.264C258.685 143.104 259.095 143.255 259.566 143.262C259.778 143.262 260.1 143.241 260.305 143.221V144.492C260.106 144.52 259.792 144.547 259.389 144.547C258.247 144.547 257.215 143.918 257.229 142.564V138.189H256.135V137.027H257.229V135.25H258.678V137.027H260.195ZM261.617 144.451V137.027H263.025V138.203H263.107C263.381 137.41 264.126 136.911 264.994 136.918C265.172 136.911 265.459 136.932 265.609 136.945V138.34C265.486 138.312 265.145 138.251 264.844 138.258C263.832 138.251 263.08 138.955 263.08 139.926V144.451H261.617ZM271.42 141.361V137.027H272.869V144.451H271.447V143.166H271.365C271.023 143.959 270.265 144.547 269.15 144.547C267.715 144.547 266.703 143.583 266.703 141.744V137.027H268.166V141.566C268.166 142.578 268.781 143.221 269.67 143.221C270.483 143.221 271.42 142.626 271.42 141.361ZM277.791 144.602C275.624 144.602 274.312 143.009 274.318 140.773C274.312 138.511 275.672 136.932 277.764 136.932C279.459 136.932 280.683 137.93 280.84 139.434H279.418C279.268 138.736 278.714 138.155 277.791 138.148C276.588 138.155 275.781 139.153 275.781 140.732C275.781 142.359 276.567 143.364 277.791 143.357C278.618 143.364 279.233 142.899 279.418 142.1H280.84C280.683 143.542 279.541 144.602 277.791 144.602ZM285.693 137.027V138.189H284.176V142.264C284.183 143.104 284.593 143.255 285.064 143.262C285.276 143.262 285.598 143.241 285.803 143.221V144.492C285.604 144.52 285.29 144.547 284.887 144.547C283.745 144.547 282.713 143.918 282.727 142.564V138.189H281.633V137.027H282.727V135.25H284.176V137.027H285.693ZM291.832 141.361V137.027H293.281V144.451H291.859V143.166H291.777C291.436 143.959 290.677 144.547 289.562 144.547C288.127 144.547 287.115 143.583 287.115 141.744V137.027H288.578V141.566C288.578 142.578 289.193 143.221 290.082 143.221C290.896 143.221 291.832 142.626 291.832 141.361ZM295.059 144.451V137.027H296.467V138.203H296.549C296.822 137.41 297.567 136.911 298.436 136.918C298.613 136.911 298.9 136.932 299.051 136.945V138.34C298.928 138.312 298.586 138.251 298.285 138.258C297.273 138.251 296.521 138.955 296.521 139.926V144.451H295.059ZM299.721 142.359C299.714 140.664 301.156 140.227 302.496 140.131C302.988 140.104 304.103 140.042 304.444 140.028L304.438 139.434C304.444 138.593 303.925 138.107 302.934 138.107C302.072 138.107 301.553 138.504 301.402 139.051H299.953C300.083 137.82 301.231 136.932 302.988 136.932C304.171 136.932 305.894 137.362 305.9 139.516V144.451H304.479V143.439H304.424C304.137 143.993 303.453 144.615 302.223 144.615C300.814 144.615 299.714 143.809 299.721 142.359ZM301.143 142.373C301.143 143.084 301.73 143.446 302.551 143.453C303.74 143.446 304.451 142.653 304.451 141.771L304.444 141.095C304.109 141.115 303.05 141.19 302.701 141.211C301.744 141.279 301.143 141.642 301.143 142.373ZM309.127 134.553V144.451H307.664V134.553H309.127ZM314.322 144.451V137.027H315.785V144.451H314.322ZM314.131 135.018C314.138 134.539 314.555 134.156 315.061 134.156C315.56 134.156 315.977 134.539 315.977 135.018C315.977 135.496 315.56 135.886 315.061 135.879C314.555 135.886 314.138 135.496 314.131 135.018ZM321.732 139.051C321.596 138.463 321.131 138.08 320.324 138.08C319.49 138.08 318.896 138.511 318.902 139.078C318.896 139.516 319.244 139.83 320.064 140.021L321.24 140.295C322.607 140.603 323.271 141.252 323.277 142.305C323.271 143.645 322.136 144.602 320.242 144.602C318.458 144.602 317.405 143.809 317.221 142.428H318.711C318.841 143.098 319.347 143.433 320.229 143.426C321.172 143.433 321.78 143.036 321.787 142.414C321.78 141.936 321.425 141.628 320.639 141.443L319.477 141.197C318.137 140.903 317.439 140.186 317.439 139.16C317.439 137.841 318.588 136.932 320.311 136.932C321.965 136.932 322.997 137.772 323.141 139.051H321.732ZM328.869 139.051C328.732 138.463 328.268 138.08 327.461 138.08C326.627 138.08 326.032 138.511 326.039 139.078C326.032 139.516 326.381 139.83 327.201 140.021L328.377 140.295C329.744 140.603 330.407 141.252 330.414 142.305C330.407 143.645 329.272 144.602 327.379 144.602C325.595 144.602 324.542 143.809 324.357 142.428H325.848C325.978 143.098 326.483 143.433 327.365 143.426C328.309 143.433 328.917 143.036 328.924 142.414C328.917 141.936 328.562 141.628 327.775 141.443L326.613 141.197C325.273 140.903 324.576 140.186 324.576 139.16C324.576 137.841 325.725 136.932 327.447 136.932C329.102 136.932 330.134 137.772 330.277 139.051H328.869ZM336.553 141.361V137.027H338.002V144.451H336.58V143.166H336.498C336.156 143.959 335.397 144.547 334.283 144.547C332.848 144.547 331.836 143.583 331.836 141.744V137.027H333.299V141.566C333.299 142.578 333.914 143.221 334.803 143.221C335.616 143.221 336.553 142.626 336.553 141.361ZM342.979 144.602C340.791 144.602 339.444 143.091 339.451 140.787C339.444 138.504 340.812 136.932 342.883 136.932C344.571 136.932 346.178 137.978 346.178 140.664V141.184H340.9C340.941 142.599 341.775 143.398 342.992 143.398C343.819 143.398 344.359 143.043 344.605 142.592H346.082C345.754 143.795 344.612 144.602 342.979 144.602ZM340.907 140.09H344.742C344.742 138.962 344.011 138.128 342.896 138.135C341.728 138.128 340.969 139.044 340.907 140.09ZM351.797 139.051C351.66 138.463 351.195 138.08 350.389 138.08C349.555 138.08 348.96 138.511 348.967 139.078C348.96 139.516 349.309 139.83 350.129 140.021L351.305 140.295C352.672 140.603 353.335 141.252 353.342 142.305C353.335 143.645 352.2 144.602 350.307 144.602C348.522 144.602 347.47 143.809 347.285 142.428H348.775C348.905 143.098 349.411 143.433 350.293 143.426C351.236 143.433 351.845 143.036 351.852 142.414C351.845 141.936 351.489 141.628 350.703 141.443L349.541 141.197C348.201 140.903 347.504 140.186 347.504 139.16C347.504 137.841 348.652 136.932 350.375 136.932C352.029 136.932 353.062 137.772 353.205 139.051H351.797ZM222.488 161.451L220.314 154.027H221.818L223.268 159.469H223.35L224.799 154.027H226.303L227.738 159.441H227.82L229.256 154.027H230.76L228.586 161.451H227.096L225.592 156.105H225.482L223.992 161.451H222.488ZM233.426 157.049V161.451H231.963V151.553H233.398V155.244H233.494C233.843 154.438 234.54 153.932 235.695 153.932C237.22 153.932 238.238 154.875 238.238 156.734V161.451H236.775V156.912C236.775 155.818 236.188 155.189 235.203 155.189C234.171 155.189 233.426 155.866 233.426 157.049ZM240.002 161.451V154.027H241.465V161.451H240.002ZM239.811 152.018C239.817 151.539 240.234 151.156 240.74 151.156C241.239 151.156 241.656 151.539 241.656 152.018C241.656 152.496 241.239 152.886 240.74 152.879C240.234 152.886 239.817 152.496 239.811 152.018ZM244.705 151.553V161.451H243.242V151.553H244.705ZM249.682 161.602C247.494 161.602 246.147 160.091 246.154 157.787C246.147 155.504 247.515 153.932 249.586 153.932C251.274 153.932 252.881 154.978 252.881 157.664V158.184H247.604C247.645 159.599 248.479 160.398 249.695 160.398C250.522 160.398 251.062 160.043 251.309 159.592H252.785C252.457 160.795 251.315 161.602 249.682 161.602ZM247.61 157.09H251.445C251.445 155.962 250.714 155.128 249.6 155.135C248.431 155.128 247.672 156.044 247.61 157.09ZM260.893 161.602C258.787 161.602 257.413 160.07 257.42 157.773C257.413 155.463 258.787 153.932 260.893 153.932C262.984 153.932 264.352 155.463 264.352 157.773C264.352 160.07 262.984 161.602 260.893 161.602ZM258.883 157.773C258.883 159.188 259.532 160.385 260.893 160.385C262.232 160.385 262.875 159.188 262.875 157.773C262.875 156.352 262.232 155.142 260.893 155.135C259.532 155.142 258.883 156.352 258.883 157.773ZM265.787 164.24V154.027H267.209V155.23H267.332C267.592 154.766 268.091 153.932 269.465 153.932C271.263 153.932 272.582 155.34 272.582 157.76C272.582 160.152 271.276 161.595 269.479 161.602C268.132 161.595 267.599 160.774 267.332 160.289H267.25V164.24H265.787ZM267.223 157.732C267.223 159.291 267.906 160.351 269.15 160.357C270.436 160.351 271.105 159.223 271.105 157.732C271.105 156.27 270.456 155.169 269.15 155.176C267.893 155.169 267.223 156.188 267.223 157.732ZM277.23 161.602C275.043 161.602 273.696 160.091 273.703 157.787C273.696 155.504 275.063 153.932 277.135 153.932C278.823 153.932 280.43 154.978 280.43 157.664V158.184H275.152C275.193 159.599 276.027 160.398 277.244 160.398C278.071 160.398 278.611 160.043 278.857 159.592H280.334C280.006 160.795 278.864 161.602 277.23 161.602ZM275.159 157.09H278.994C278.994 155.962 278.263 155.128 277.148 155.135C275.979 155.128 275.221 156.044 275.159 157.09ZM281.879 161.451V154.027H283.287V155.203H283.369C283.643 154.41 284.388 153.911 285.256 153.918C285.434 153.911 285.721 153.932 285.871 153.945V155.34C285.748 155.312 285.406 155.251 285.105 155.258C284.094 155.251 283.342 155.955 283.342 156.926V161.451H281.879ZM286.541 159.359C286.534 157.664 287.977 157.227 289.316 157.131C289.809 157.104 290.923 157.042 291.265 157.028L291.258 156.434C291.265 155.593 290.745 155.107 289.754 155.107C288.893 155.107 288.373 155.504 288.223 156.051H286.773C286.903 154.82 288.052 153.932 289.809 153.932C290.991 153.932 292.714 154.362 292.721 156.516V161.451H291.299V160.439H291.244C290.957 160.993 290.273 161.615 289.043 161.615C287.635 161.615 286.534 160.809 286.541 159.359ZM287.963 159.373C287.963 160.084 288.551 160.446 289.371 160.453C290.561 160.446 291.271 159.653 291.271 158.771L291.265 158.095C290.93 158.115 289.87 158.19 289.521 158.211C288.564 158.279 287.963 158.642 287.963 159.373ZM297.957 154.027V155.189H296.439V159.264C296.446 160.104 296.856 160.255 297.328 160.262C297.54 160.262 297.861 160.241 298.066 160.221V161.492C297.868 161.52 297.554 161.547 297.15 161.547C296.009 161.547 294.977 160.918 294.99 159.564V155.189H293.896V154.027H294.99V152.25H296.439V154.027H297.957ZM299.379 161.451V154.027H300.842V161.451H299.379ZM299.188 152.018C299.194 151.539 299.611 151.156 300.117 151.156C300.616 151.156 301.033 151.539 301.033 152.018C301.033 152.496 300.616 152.886 300.117 152.879C299.611 152.886 299.194 152.496 299.188 152.018ZM304.082 157.049V161.451H302.619V154.027H304.027V155.244H304.109C304.458 154.444 305.189 153.932 306.297 153.932C307.821 153.932 308.833 154.896 308.826 156.734V161.451H307.377V156.912C307.37 155.832 306.789 155.189 305.805 155.189C304.8 155.189 304.082 155.866 304.082 157.049ZM313.721 164.391C311.848 164.391 310.61 163.563 310.48 162.176H311.971C312.114 162.88 312.771 163.222 313.734 163.215C314.896 163.222 315.628 162.716 315.635 161.561V160.098H315.539C315.279 160.576 314.746 161.342 313.379 161.342C311.629 161.342 310.275 160.036 310.275 157.664C310.275 155.292 311.608 153.932 313.393 153.932C314.773 153.932 315.279 154.766 315.553 155.23H315.648V154.027H317.07V161.615C317.077 163.522 315.635 164.391 313.721 164.391ZM311.766 157.691C311.759 159.147 312.429 160.132 313.707 160.139C314.951 160.132 315.648 159.223 315.648 157.691C315.648 156.188 314.965 155.169 313.707 155.176C312.415 155.169 311.759 156.27 311.766 157.691ZM322.389 151.553H324.221L327.352 159.223H327.475L330.605 151.553H332.438V161.451H331.002V154.301H330.906L328.008 161.438H326.818L323.906 154.287H323.824V161.451H322.389V151.553ZM334.461 161.451V151.553H335.965V160.152H340.436V161.451H334.461ZM350.184 156.502C350.184 159.667 348.283 161.588 345.727 161.588C343.149 161.588 341.256 159.66 341.256 156.502C341.256 153.337 343.149 151.416 345.727 151.416C348.283 151.416 350.184 153.337 350.184 156.502ZM342.746 156.502C342.753 158.908 344.018 160.214 345.727 160.207C347.422 160.214 348.687 158.908 348.693 156.502C348.687 154.096 347.422 152.79 345.727 152.797C344.018 152.79 342.753 154.096 342.746 156.502ZM351.756 164.24V154.027H353.178V155.23H353.301C353.561 154.766 354.06 153.932 355.434 153.932C357.231 153.932 358.551 155.34 358.551 157.76C358.551 160.152 357.245 161.595 355.447 161.602C354.101 161.595 353.567 160.774 353.301 160.289H353.219V164.24H351.756ZM353.191 157.732C353.191 159.291 353.875 160.351 355.119 160.357C356.404 160.351 357.074 159.223 357.074 157.732C357.074 156.27 356.425 155.169 355.119 155.176C353.861 155.169 353.191 156.188 353.191 157.732ZM364.17 156.051C364.033 155.463 363.568 155.08 362.762 155.08C361.928 155.08 361.333 155.511 361.34 156.078C361.333 156.516 361.682 156.83 362.502 157.021L363.678 157.295C365.045 157.603 365.708 158.252 365.715 159.305C365.708 160.645 364.573 161.602 362.68 161.602C360.896 161.602 359.843 160.809 359.658 159.428H361.148C361.278 160.098 361.784 160.433 362.666 160.426C363.609 160.433 364.218 160.036 364.225 159.414C364.218 158.936 363.862 158.628 363.076 158.443L361.914 158.197C360.574 157.903 359.877 157.186 359.877 156.16C359.877 154.841 361.025 153.932 362.748 153.932C364.402 153.932 365.435 154.772 365.578 156.051H364.17Z" fill="#ECECF8"/>
<path d="M20.3867 267.969V266.516H27.3359V267.969H24.7344V275H22.9883V267.969H20.3867ZM30.3477 275.129C28.3965 275.123 27.2012 273.863 27.207 271.848C27.2012 269.885 28.4141 268.555 30.2773 268.555C31.9473 268.555 33.2656 269.609 33.2656 271.777V272.27H28.918C28.918 273.23 29.4863 273.822 30.3828 273.828C30.9746 273.822 31.3965 273.564 31.5664 273.184H33.2188C32.9727 274.361 31.918 275.123 30.3477 275.129ZM28.918 271.18H31.625C31.6191 270.406 31.0859 269.85 30.3125 269.855C29.5156 269.85 28.9531 270.447 28.918 271.18ZM37.2148 275.129C35.2637 275.123 34.0918 273.775 34.0977 271.836C34.0918 269.891 35.2871 268.555 37.2148 268.555C38.8555 268.555 39.9688 269.51 40.0391 270.969H38.4102C38.3047 270.342 37.8945 269.908 37.2383 269.902C36.4062 269.908 35.8555 270.605 35.8555 271.812C35.8555 273.043 36.3945 273.746 37.2383 273.746C37.8477 273.746 38.2988 273.365 38.4102 272.691H40.0391C39.9629 274.133 38.9023 275.123 37.2148 275.129ZM42.8516 271.32V275H41.1172V266.516H42.8047V269.75H42.875C43.168 269.006 43.8066 268.555 44.7734 268.555C46.1035 268.555 46.9766 269.451 46.9766 270.945V275H45.2422V271.25C45.2422 270.459 44.8203 269.996 44.0938 269.996C43.3613 269.996 42.8516 270.482 42.8516 271.32Z" fill="#ECECF8" fill-opacity="0.5"/>
<path d="M20.4688 288.453V287.516H26.8672V288.453H24.207V296H23.1406V288.453H20.4688ZM29.8906 296.129C28.0508 296.135 26.9141 294.822 26.9141 292.871C26.9141 290.914 28.0684 289.555 29.7969 289.555C31.1328 289.555 32.5449 290.375 32.5391 292.73V293.152H27.9219C27.9746 294.5 28.7598 295.238 29.8906 295.238C30.6523 295.238 31.1328 294.904 31.3672 294.512H32.4453C32.1465 295.479 31.2031 296.135 29.8906 296.129ZM27.9277 292.297H31.5195C31.5137 291.236 30.8457 290.445 29.7969 290.445C28.6953 290.445 27.998 291.312 27.9277 292.297ZM36.4531 296.129C34.6484 296.135 33.5469 294.758 33.5469 292.848C33.5469 290.914 34.7012 289.555 36.4297 289.555C37.7832 289.555 38.8027 290.357 38.9609 291.559H37.9531C37.8066 290.979 37.3027 290.445 36.4531 290.445C35.3164 290.445 34.5605 291.383 34.5547 292.812C34.5605 294.283 35.2988 295.227 36.4531 295.227C37.2031 295.227 37.7773 294.822 37.9531 294.125H38.9609C38.8027 295.262 37.8652 296.135 36.4531 296.129ZM41.2109 292.18V296H40.2031V287.516H41.2109V290.633H41.293C41.5918 289.977 42.1602 289.555 43.168 289.555C44.4688 289.555 45.3359 290.322 45.3359 291.957V296H44.3281V292.027C44.3281 291.025 43.7773 290.457 42.8633 290.457C41.9141 290.457 41.2109 291.078 41.2109 292.18ZM47.9609 292.18V296H46.9531V289.637H47.9258V290.633H48.0078C48.3066 289.982 48.9043 289.555 49.8711 289.555C51.1602 289.555 52.0215 290.34 52.0156 291.957V296H51.0078V292.027C51.0078 291.043 50.4688 290.457 49.5664 290.457C48.6406 290.457 47.9609 291.078 47.9609 292.18ZM53.6328 296V289.637H54.6406V296H53.6328ZM53.4336 287.914C53.4277 287.539 53.75 287.24 54.1367 287.246C54.5234 287.24 54.8457 287.539 54.8516 287.914C54.8457 288.283 54.5234 288.582 54.1367 288.582C53.75 288.582 53.4277 288.283 53.4336 287.914ZM58.8477 296.129C57.043 296.135 55.9414 294.758 55.9414 292.848C55.9414 290.914 57.0957 289.555 58.8242 289.555C60.1777 289.555 61.1973 290.357 61.3555 291.559H60.3477C60.2012 290.979 59.6973 290.445 58.8477 290.445C57.7109 290.445 56.9551 291.383 56.9492 292.812C56.9551 294.283 57.6934 295.227 58.8477 295.227C59.5977 295.227 60.1719 294.822 60.3477 294.125H61.3555C61.1973 295.262 60.2598 296.135 58.8477 296.129ZM62.293 294.195C62.293 292.736 63.582 292.402 64.6836 292.32C65.0938 292.291 66.1191 292.232 66.4062 292.227V291.711C66.4062 290.902 65.9258 290.434 64.9648 290.434C64.1621 290.434 63.6758 290.803 63.5352 291.289H62.4805C62.6094 290.264 63.6055 289.555 65.0117 289.555C65.8438 289.555 67.4082 289.801 67.4023 291.805V296H66.4062V295.133H66.3594C66.1484 295.561 65.5684 296.146 64.4609 296.152C63.2539 296.146 62.293 295.438 62.293 294.195ZM63.3008 294.242C63.3066 294.916 63.8633 295.256 64.6367 295.25C65.7734 295.256 66.4062 294.494 66.4062 293.691V293.053C66.1074 293.07 65.1055 293.146 64.8008 293.164C63.8867 293.223 63.3066 293.545 63.3008 294.242ZM70.0273 287.516V296H69.0195V287.516H70.0273ZM74.6445 298.391V289.637H75.6172V290.645H75.7344C75.9512 290.305 76.3379 289.555 77.5742 289.555C79.1738 289.555 80.2812 290.82 80.2812 292.836C80.2812 294.857 79.1738 296.135 77.5859 296.129C76.373 296.135 75.9512 295.379 75.7344 295.027H75.6523V298.391H74.6445ZM75.6289 292.812C75.6348 294.242 76.2734 295.227 77.4453 295.227C78.6523 295.227 79.2734 294.166 79.2734 292.812C79.2734 291.482 78.6699 290.457 77.4453 290.457C76.2559 290.457 75.6348 291.4 75.6289 292.812ZM81.5938 296V289.637H82.5664V290.609H82.6367C82.8652 289.965 83.5273 289.537 84.2773 289.531C84.4297 289.537 84.6875 289.543 84.8047 289.555V290.574C84.7285 290.557 84.459 290.504 84.1953 290.504C83.2812 290.504 82.6016 291.137 82.6016 291.992V296H81.5938ZM88.1797 296.129C86.4453 296.135 85.2734 294.822 85.2734 292.848C85.2734 290.861 86.4453 289.555 88.1797 289.555C89.9082 289.555 91.0684 290.861 91.0625 292.848C91.0684 294.822 89.9082 296.135 88.1797 296.129ZM86.2812 292.848C86.2871 294.119 86.8848 295.238 88.1797 295.238C89.4629 295.238 90.0547 294.119 90.0547 292.848C90.0547 291.582 89.4629 290.445 88.1797 290.445C86.8848 290.445 86.2871 291.582 86.2812 292.848ZM95.2344 289.637V290.48H93.8281V296H92.8086V290.48H91.7891V289.637H92.8086V288.77C92.8145 287.738 93.5 287.117 94.625 287.117C94.8711 287.117 95.1641 287.146 95.375 287.188V288.09C95.1582 288.055 94.9766 288.043 94.8477 288.043C94.1387 288.043 93.8223 288.336 93.8281 288.992V289.637H95.2344ZM96.4297 296V289.637H97.4375V296H96.4297ZM96.2305 287.914C96.2246 287.539 96.5469 287.24 96.9336 287.246C97.3203 287.24 97.6426 287.539 97.6484 287.914C97.6426 288.283 97.3203 288.582 96.9336 288.582C96.5469 288.582 96.2246 288.283 96.2305 287.914ZM101.645 296.129C99.8398 296.135 98.7383 294.758 98.7383 292.848C98.7383 290.914 99.8926 289.555 101.621 289.555C102.975 289.555 103.994 290.357 104.152 291.559H103.145C102.998 290.979 102.494 290.445 101.645 290.445C100.508 290.445 99.752 291.383 99.7461 292.812C99.752 294.283 100.49 295.227 101.645 295.227C102.395 295.227 102.969 294.822 103.145 294.125H104.152C103.994 295.262 103.057 296.135 101.645 296.129ZM105.395 296V289.637H106.402V296H105.395ZM105.195 287.914C105.189 287.539 105.512 287.24 105.898 287.246C106.285 287.24 106.607 287.539 106.613 287.914C106.607 288.283 106.285 288.582 105.898 288.582C105.512 288.582 105.189 288.283 105.195 287.914ZM110.68 296.129C108.84 296.135 107.703 294.822 107.703 292.871C107.703 290.914 108.857 289.555 110.586 289.555C111.922 289.555 113.334 290.375 113.328 292.73V293.152H108.711C108.764 294.5 109.549 295.238 110.68 295.238C111.441 295.238 111.922 294.904 112.156 294.512H113.234C112.936 295.479 111.992 296.135 110.68 296.129ZM108.717 292.297H112.309C112.303 291.236 111.635 290.445 110.586 290.445C109.484 290.445 108.787 291.312 108.717 292.297ZM115.648 292.18V296H114.641V289.637H115.613V290.633H115.695C115.994 289.982 116.592 289.555 117.559 289.555C118.848 289.555 119.709 290.34 119.703 291.957V296H118.695V292.027C118.695 291.043 118.156 290.457 117.254 290.457C116.328 290.457 115.648 291.078 115.648 292.18ZM123.922 296.129C122.117 296.135 121.016 294.758 121.016 292.848C121.016 290.914 122.17 289.555 123.898 289.555C125.252 289.555 126.271 290.357 126.43 291.559H125.422C125.275 290.979 124.771 290.445 123.922 290.445C122.785 290.445 122.029 291.383 122.023 292.812C122.029 294.283 122.768 295.227 123.922 295.227C124.672 295.227 125.246 294.822 125.422 294.125H126.43C126.271 295.262 125.334 296.135 123.922 296.129ZM128.316 298.391C128.1 298.385 127.883 298.379 127.754 298.367V297.465C127.859 297.477 128.088 297.482 128.246 297.488C128.656 297.482 129.002 297.459 129.336 296.527L129.523 296.047L127.168 289.637H128.27L130.004 294.688H130.074L131.809 289.637H132.91L130.215 296.914C129.84 297.916 129.219 298.385 128.316 298.391ZM137.035 296V289.637H138.043V296H137.035ZM136.836 287.914C136.83 287.539 137.152 287.24 137.539 287.246C137.926 287.24 138.248 287.539 138.254 287.914C138.248 288.283 137.926 288.582 137.539 288.582C137.152 288.582 136.83 288.283 136.836 287.914ZM140.656 292.18V296H139.648V289.637H140.621V290.633H140.703C141.002 289.982 141.6 289.555 142.566 289.555C143.855 289.555 144.717 290.34 144.711 291.957V296H143.703V292.027C143.703 291.043 143.164 290.457 142.262 290.457C141.336 290.457 140.656 291.078 140.656 292.18ZM149.469 287.516H150.734L153.594 294.5H153.699L156.559 287.516H157.824V296H156.828V289.59H156.746L154.109 296H153.172L150.535 289.59H150.465V296H149.469V287.516ZM159.699 296V287.516H160.754V295.062H164.691V296H159.699Z" fill="#ECECF8"/>
<circle cx="271" cy="292" r="6" fill="#944AF2"/>
<circle cx="295" cy="292" r="6" fill="#ECECF8" fill-opacity="0.3"/>
<circle cx="319" cy="292" r="6" fill="#ECECF8" fill-opacity="0.3"/>
<circle cx="343" cy="292" r="6" fill="#ECECF8" fill-opacity="0.3"/>
<circle cx="367" cy="292" r="6" fill="#ECECF8" fill-opacity="0.3"/>
<path d="M20.4688 308.453V307.516H26.8672V308.453H24.207V316H23.1406V308.453H20.4688ZM29.8906 316.129C28.0508 316.135 26.9141 314.822 26.9141 312.871C26.9141 310.914 28.0684 309.555 29.7969 309.555C31.1328 309.555 32.5449 310.375 32.5391 312.73V313.152H27.9219C27.9746 314.5 28.7598 315.238 29.8906 315.238C30.6523 315.238 31.1328 314.904 31.3672 314.512H32.4453C32.1465 315.479 31.2031 316.135 29.8906 316.129ZM27.9277 312.297H31.5195C31.5137 311.236 30.8457 310.445 29.7969 310.445C28.6953 310.445 27.998 311.312 27.9277 312.297ZM36.4531 316.129C34.6484 316.135 33.5469 314.758 33.5469 312.848C33.5469 310.914 34.7012 309.555 36.4297 309.555C37.7832 309.555 38.8027 310.357 38.9609 311.559H37.9531C37.8066 310.979 37.3027 310.445 36.4531 310.445C35.3164 310.445 34.5605 311.383 34.5547 312.812C34.5605 314.283 35.2988 315.227 36.4531 315.227C37.2031 315.227 37.7773 314.822 37.9531 314.125H38.9609C38.8027 315.262 37.8652 316.135 36.4531 316.129ZM41.2109 312.18V316H40.2031V307.516H41.2109V310.633H41.293C41.5918 309.977 42.1602 309.555 43.168 309.555C44.4688 309.555 45.3359 310.322 45.3359 311.957V316H44.3281V312.027C44.3281 311.025 43.7773 310.457 42.8633 310.457C41.9141 310.457 41.2109 311.078 41.2109 312.18ZM47.9609 312.18V316H46.9531V309.637H47.9258V310.633H48.0078C48.3066 309.982 48.9043 309.555 49.8711 309.555C51.1602 309.555 52.0215 310.34 52.0156 311.957V316H51.0078V312.027C51.0078 311.043 50.4688 310.457 49.5664 310.457C48.6406 310.457 47.9609 311.078 47.9609 312.18ZM53.6328 316V309.637H54.6406V316H53.6328ZM53.4336 307.914C53.4277 307.539 53.75 307.24 54.1367 307.246C54.5234 307.24 54.8457 307.539 54.8516 307.914C54.8457 308.283 54.5234 308.582 54.1367 308.582C53.75 308.582 53.4277 308.283 53.4336 307.914ZM58.8477 316.129C57.043 316.135 55.9414 314.758 55.9414 312.848C55.9414 310.914 57.0957 309.555 58.8242 309.555C60.1777 309.555 61.1973 310.357 61.3555 311.559H60.3477C60.2012 310.979 59.6973 310.445 58.8477 310.445C57.7109 310.445 56.9551 311.383 56.9492 312.812C56.9551 314.283 57.6934 315.227 58.8477 315.227C59.5977 315.227 60.1719 314.822 60.3477 314.125H61.3555C61.1973 315.262 60.2598 316.135 58.8477 316.129ZM62.293 314.195C62.293 312.736 63.582 312.402 64.6836 312.32C65.0938 312.291 66.1191 312.232 66.4062 312.227V311.711C66.4062 310.902 65.9258 310.434 64.9648 310.434C64.1621 310.434 63.6758 310.803 63.5352 311.289H62.4805C62.6094 310.264 63.6055 309.555 65.0117 309.555C65.8438 309.555 67.4082 309.801 67.4023 311.805V316H66.4062V315.133H66.3594C66.1484 315.561 65.5684 316.146 64.4609 316.152C63.2539 316.146 62.293 315.438 62.293 314.195ZM63.3008 314.242C63.3066 314.916 63.8633 315.256 64.6367 315.25C65.7734 315.256 66.4062 314.494 66.4062 313.691V313.053C66.1074 313.07 65.1055 313.146 64.8008 313.164C63.8867 313.223 63.3066 313.545 63.3008 314.242ZM70.0273 307.516V316H69.0195V307.516H70.0273ZM74.6445 318.391V309.637H75.6172V310.645H75.7344C75.9512 310.305 76.3379 309.555 77.5742 309.555C79.1738 309.555 80.2812 310.82 80.2812 312.836C80.2812 314.857 79.1738 316.135 77.5859 316.129C76.373 316.135 75.9512 315.379 75.7344 315.027H75.6523V318.391H74.6445ZM75.6289 312.812C75.6348 314.242 76.2734 315.227 77.4453 315.227C78.6523 315.227 79.2734 314.166 79.2734 312.812C79.2734 311.482 78.6699 310.457 77.4453 310.457C76.2559 310.457 75.6348 311.4 75.6289 312.812ZM81.5938 316V309.637H82.5664V310.609H82.6367C82.8652 309.965 83.5273 309.537 84.2773 309.531C84.4297 309.537 84.6875 309.543 84.8047 309.555V310.574C84.7285 310.557 84.459 310.504 84.1953 310.504C83.2812 310.504 82.6016 311.137 82.6016 311.992V316H81.5938ZM88.1797 316.129C86.4453 316.135 85.2734 314.822 85.2734 312.848C85.2734 310.861 86.4453 309.555 88.1797 309.555C89.9082 309.555 91.0684 310.861 91.0625 312.848C91.0684 314.822 89.9082 316.135 88.1797 316.129ZM86.2812 312.848C86.2871 314.119 86.8848 315.238 88.1797 315.238C89.4629 315.238 90.0547 314.119 90.0547 312.848C90.0547 311.582 89.4629 310.445 88.1797 310.445C86.8848 310.445 86.2871 311.582 86.2812 312.848ZM95.2344 309.637V310.48H93.8281V316H92.8086V310.48H91.7891V309.637H92.8086V308.77C92.8145 307.738 93.5 307.117 94.625 307.117C94.8711 307.117 95.1641 307.146 95.375 307.188V308.09C95.1582 308.055 94.9766 308.043 94.8477 308.043C94.1387 308.043 93.8223 308.336 93.8281 308.992V309.637H95.2344ZM96.4297 316V309.637H97.4375V316H96.4297ZM96.2305 307.914C96.2246 307.539 96.5469 307.24 96.9336 307.246C97.3203 307.24 97.6426 307.539 97.6484 307.914C97.6426 308.283 97.3203 308.582 96.9336 308.582C96.5469 308.582 96.2246 308.283 96.2305 307.914ZM101.645 316.129C99.8398 316.135 98.7383 314.758 98.7383 312.848C98.7383 310.914 99.8926 309.555 101.621 309.555C102.975 309.555 103.994 310.357 104.152 311.559H103.145C102.998 310.979 102.494 310.445 101.645 310.445C100.508 310.445 99.752 311.383 99.7461 312.812C99.752 314.283 100.49 315.227 101.645 315.227C102.395 315.227 102.969 314.822 103.145 314.125H104.152C103.994 315.262 103.057 316.135 101.645 316.129ZM105.395 316V309.637H106.402V316H105.395ZM105.195 307.914C105.189 307.539 105.512 307.24 105.898 307.246C106.285 307.24 106.607 307.539 106.613 307.914C106.607 308.283 106.285 308.582 105.898 308.582C105.512 308.582 105.189 308.283 105.195 307.914ZM110.68 316.129C108.84 316.135 107.703 314.822 107.703 312.871C107.703 310.914 108.857 309.555 110.586 309.555C111.922 309.555 113.334 310.375 113.328 312.73V313.152H108.711C108.764 314.5 109.549 315.238 110.68 315.238C111.441 315.238 111.922 314.904 112.156 314.512H113.234C112.936 315.479 111.992 316.135 110.68 316.129ZM108.717 312.297H112.309C112.303 311.236 111.635 310.445 110.586 310.445C109.484 310.445 108.787 311.312 108.717 312.297ZM115.648 312.18V316H114.641V309.637H115.613V310.633H115.695C115.994 309.982 116.592 309.555 117.559 309.555C118.848 309.555 119.709 310.34 119.703 311.957V316H118.695V312.027C118.695 311.043 118.156 310.457 117.254 310.457C116.328 310.457 115.648 311.078 115.648 312.18ZM123.922 316.129C122.117 316.135 121.016 314.758 121.016 312.848C121.016 310.914 122.17 309.555 123.898 309.555C125.252 309.555 126.271 310.357 126.43 311.559H125.422C125.275 310.979 124.771 310.445 123.922 310.445C122.785 310.445 122.029 311.383 122.023 312.812C122.029 314.283 122.768 315.227 123.922 315.227C124.672 315.227 125.246 314.822 125.422 314.125H126.43C126.271 315.262 125.334 316.135 123.922 316.129ZM128.316 318.391C128.1 318.385 127.883 318.379 127.754 318.367V317.465C127.859 317.477 128.088 317.482 128.246 317.488C128.656 317.482 129.002 317.459 129.336 316.527L129.523 316.047L127.168 309.637H128.27L130.004 314.688H130.074L131.809 309.637H132.91L130.215 316.914C129.84 317.916 129.219 318.385 128.316 318.391ZM137.035 316V309.637H138.043V316H137.035ZM136.836 307.914C136.83 307.539 137.152 307.24 137.539 307.246C137.926 307.24 138.248 307.539 138.254 307.914C138.248 308.283 137.926 308.582 137.539 308.582C137.152 308.582 136.83 308.283 136.836 307.914ZM140.656 312.18V316H139.648V309.637H140.621V310.633H140.703C141.002 309.982 141.6 309.555 142.566 309.555C143.855 309.555 144.717 310.34 144.711 311.957V316H143.703V312.027C143.703 311.043 143.164 310.457 142.262 310.457C141.336 310.457 140.656 311.078 140.656 312.18ZM156.641 311.758C156.646 314.441 155.064 316.117 152.891 316.117C150.711 316.117 149.135 314.441 149.141 311.758C149.135 309.074 150.711 307.398 152.891 307.398C155.064 307.398 156.646 309.074 156.641 311.758ZM150.16 311.758C150.166 313.943 151.355 315.127 152.891 315.133C154.426 315.127 155.615 313.943 155.621 311.758C155.615 309.566 154.426 308.383 152.891 308.383C151.355 308.383 150.166 309.566 150.16 311.758ZM158.059 318.391V309.637H159.031V310.645H159.148C159.365 310.305 159.752 309.555 160.988 309.555C162.588 309.555 163.695 310.82 163.695 312.836C163.695 314.857 162.588 316.135 161 316.129C159.787 316.135 159.365 315.379 159.148 315.027H159.066V318.391H158.059ZM159.043 312.812C159.049 314.242 159.688 315.227 160.859 315.227C162.066 315.227 162.688 314.166 162.688 312.812C162.688 311.482 162.084 310.457 160.859 310.457C159.67 310.457 159.049 311.4 159.043 312.812ZM168.547 311.289C168.406 310.762 168.002 310.416 167.258 310.41C166.473 310.416 165.916 310.838 165.91 311.371C165.916 311.793 166.256 312.08 167 312.262L167.949 312.496C169.086 312.766 169.643 313.334 169.648 314.219C169.643 315.32 168.746 316.135 167.152 316.129C165.723 316.135 164.873 315.496 164.703 314.336H165.758C165.875 314.957 166.326 315.256 167.129 315.25C168.037 315.256 168.605 314.875 168.605 314.277C168.605 313.826 168.283 313.533 167.562 313.363L166.602 313.141C165.494 312.883 164.902 312.279 164.902 311.43C164.902 310.34 165.857 309.555 167.258 309.555C168.576 309.555 169.402 310.258 169.531 311.289H168.547Z" fill="#ECECF8"/>
<circle cx="271" cy="312" r="6" fill="#944AF2"/>
<circle cx="295" cy="312" r="6" fill="#944AF2"/>
<circle cx="319" cy="312" r="6" fill="#944AF2"/>
<circle cx="343" cy="312" r="6" fill="#ECECF8" fill-opacity="0.3"/>
<circle cx="367" cy="312" r="6" fill="#ECECF8" fill-opacity="0.3"/>
</g>
<rect x="0.5" y="0.5" width="404" height="341" rx="19.5" stroke="white" stroke-opacity="0.2"/>
<defs>
<filter id="filter0_d_518_4633" x="123.129" y="56.791" width="28.4785" height="61.9297" filterUnits="userSpaceOnUse" color-interpolation-filters="sRGB">
<feFlood flood-opacity="0" result="BackgroundImageFix"/>
<feColorMatrix in="SourceAlpha" type="matrix" values="0 0 0 0 0 0 0 0 0 0 0 0 0 0 0 0 0 0 127 0" result="hardAlpha"/>
<feOffset dx="-2" dy="2"/>
<feGaussianBlur stdDeviation="1"/>
<feComposite in2="hardAlpha" operator="out"/>
<feColorMatrix type="matrix" values="0 0 0 0 0.8625 0 0 0 0 0.531077 0 0 0 0 0.479167 0 0 0 0.2 0"/>
<feBlend mode="normal" in2="BackgroundImageFix" result="effect1_dropShadow_518_4633"/>
<feBlend mode="normal" in="SourceGraphic" in2="effect1_dropShadow_518_4633" result="shape"/>
</filter>
<filter id="filter1_f_518_4633" x="123.926" y="103.938" width="20.5637" height="22.5344" filterUnits="userSpaceOnUse" color-interpolation-filters="sRGB">
<feFlood flood-opacity="0" result="BackgroundImageFix"/>
<feBlend mode="normal" in="SourceGraphic" in2="BackgroundImageFix" result="shape"/>
<feGaussianBlur stdDeviation="1.76056" result="effect1_foregroundBlur_518_4633"/>
</filter>
<filter id="filter2_d_518_4633" x="94.4023" y="57" width="34.7676" height="67.5654" filterUnits="userSpaceOnUse" color-interpolation-filters="sRGB">
<feFlood flood-opacity="0" result="BackgroundImageFix"/>
<feColorMatrix in="SourceAlpha" type="matrix" values="0 0 0 0 0 0 0 0 0 0 0 0 0 0 0 0 0 0 127 0" result="hardAlpha"/>
<feOffset dy="2"/>
<feGaussianBlur stdDeviation="1"/>
<feComposite in2="hardAlpha" operator="out"/>
<feColorMatrix type="matrix" values="0 0 0 0 0.854167 0 0 0 0 0.400131 0 0 0 0 0.334549 0 0 0 0.2 0"/>
<feBlend mode="normal" in2="BackgroundImageFix" result="effect1_dropShadow_518_4633"/>
<feBlend mode="normal" in="SourceGraphic" in2="effect1_dropShadow_518_4633" result="shape"/>
</filter>
<radialGradient id="paint0_radial_518_4633" cx="0" cy="0" r="1" gradientUnits="userSpaceOnUse" gradientTransform="translate(147.873 122.591) rotate(112.62) scale(6.5)">
<stop stop-color="white"/>
<stop offset="1" stop-color="#A2957B"/>
</radialGradient>
<linearGradient id="paint1_linear_518_4633" x1="106.873" y1="137.09" x2="118.373" y2="157.59" gradientUnits="userSpaceOnUse">
<stop stop-color="#F3A4A7"/>
<stop offset="1" stop-color="#F3A4A7" stop-opacity="0"/>
</linearGradient>
<linearGradient id="paint2_linear_518_4633" x1="109.957" y1="159.623" x2="109.957" y2="220" gradientUnits="userSpaceOnUse">
<stop stop-color="#F1CF73"/>
<stop offset="1" stop-color="#8C6F20"/>
</linearGradient>
<linearGradient id="paint3_linear_518_4633" x1="109.957" y1="159.623" x2="109.957" y2="220" gradientUnits="userSpaceOnUse">
<stop stop-color="#F1CF73"/>
<stop offset="1" stop-color="#8C6F20"/>
</linearGradient>
<linearGradient id="paint4_linear_518_4633" x1="74.4094" y1="40.9092" x2="74.4094" y2="160.197" gradientUnits="userSpaceOnUse">
<stop stop-color="#C15646"/>
<stop offset="1" stop-color="#F98C7C"/>
</linearGradient>
<linearGradient id="paint5_linear_518_4633" x1="99.863" y1="48.6172" x2="99.863" y2="134.374" gradientUnits="userSpaceOnUse">
<stop stop-color="#DE6351"/>
<stop offset="0.270833" stop-color="#F68270"/>
<stop offset="1" stop-color="#A03A2B"/>
</linearGradient>
<linearGradient id="paint6_linear_518_4633" x1="138.872" y1="54.5909" x2="162.872" y2="94.0909" gradientUnits="userSpaceOnUse">
<stop stop-color="#EC7564"/>
<stop offset="0.281343" stop-color="#FF9E93"/>
<stop offset="1" stop-color="#A92D2D"/>
</linearGradient>
<linearGradient id="paint7_linear_518_4633" x1="133.872" y1="103.59" x2="99.3721" y2="124.09" gradientUnits="userSpaceOnUse">
<stop stop-color="#FFDAD5"/>
<stop offset="1" stop-color="#FDC4BD"/>
</linearGradient>
<linearGradient id="paint8_linear_518_4633" x1="113.074" y1="97.0811" x2="113.66" y2="101.606" gradientUnits="userSpaceOnUse">
<stop stop-color="#F4D6D6"/>
<stop offset="1" stop-color="#FFF9F9"/>
</linearGradient>
<linearGradient id="paint9_linear_518_4633" x1="113.073" y1="97.0807" x2="113.659" y2="101.606" gradientUnits="userSpaceOnUse">
<stop stop-color="#F4D6D6"/>
<stop offset="1" stop-color="#FFF9F9"/>
</linearGradient>
<radialGradient id="paint10_radial_518_4633" cx="0" cy="0" r="1" gradientUnits="userSpaceOnUse" gradientTransform="translate(118.697 102.327) rotate(89.9374) scale(8.54463 5.0205)">
<stop stop-color="#ADC54A"/>
<stop offset="1" stop-color="#51673E"/>
</radialGradient>
<linearGradient id="paint11_linear_518_4633" x1="111.401" y1="60.4994" x2="104.16" y2="120.109" gradientUnits="userSpaceOnUse">
<stop stop-color="#EC7664"/>
<stop offset="0.236111" stop-color="#FFA699"/>
<stop offset="0.488958" stop-color="#DE6351"/>
</linearGradient>
<linearGradient id="paint12_linear_518_4633" x1="126.16" y1="53.6785" x2="176.76" y2="97.1983" gradientUnits="userSpaceOnUse">
<stop stop-color="#EC7664"/>
<stop offset="0.288194" stop-color="#FA9485"/>
<stop offset="1" stop-color="#DE6351"/>
</linearGradient>
<linearGradient id="paint13_linear_518_4633" x1="138.854" y1="97.5361" x2="138.854" y2="108.865" gradientUnits="userSpaceOnUse">
<stop stop-color="#FFF5F5"/>
<stop offset="1" stop-color="#FAEDED"/>
<stop offset="1" stop-color="white"/>
</linearGradient>
<radialGradient id="paint14_radial_518_4633" cx="0" cy="0" r="1" gradientUnits="userSpaceOnUse" gradientTransform="translate(141.968 101.746) rotate(90) scale(5.75696 2.83652)">
<stop stop-color="#8EA646"/>
<stop offset="1" stop-color="#51673E"/>
</radialGradient>
<linearGradient id="paint15_linear_518_4633" x1="131.049" y1="132.5" x2="131.049" y2="136.614" gradientUnits="userSpaceOnUse">
<stop stop-color="#F05775"/>
<stop offset="1" stop-color="#F594AB"/>
</linearGradient>
<linearGradient id="paint16_linear_518_4633" x1="133.747" y1="108.683" x2="137.231" y2="122.521" gradientUnits="userSpaceOnUse">
<stop stop-color="#000525" stop-opacity="0"/>
<stop offset="0.264886" stop-color="#A06961"/>
<stop offset="1" stop-color="#000525" stop-opacity="0"/>
</linearGradient>
<radialGradient id="paint17_radial_518_4633" cx="0" cy="0" r="1" gradientUnits="userSpaceOnUse" gradientTransform="translate(98.873 130.59) rotate(104.005) scale(6.92487)">
<stop stop-color="white"/>
<stop offset="1" stop-color="#A2957B"/>
</radialGradient>
<linearGradient id="paint18_linear_518_4633" x1="124.538" y1="54.0156" x2="111.826" y2="119.535" gradientUnits="userSpaceOnUse">
<stop offset="0.116228" stop-color="#EC7664"/>
<stop offset="0.289525" stop-color="#FFB4A9"/>
<stop offset="0.637926" stop-color="#DE6351"/>
</linearGradient>
<clipPath id="clip0_518_4633">
<rect width="405" height="342" rx="20" fill="white"/>
</clipPath>
</defs>
</svg>
