<svg width="300" height="650" viewBox="0 0 300 650" fill="none" xmlns="http://www.w3.org/2000/svg">
<rect width="300" height="649.673" rx="20" fill="#131316"/>
<rect x="1" y="1" width="298" height="647.673" rx="19" stroke="white" stroke-opacity="0.1" stroke-width="2"/>
<rect x="20.3521" y="20.3521" width="115.197" height="18.9296" rx="9.46479" fill="#944AF2"/>
<rect x="20.3521" y="20.3521" width="115.197" height="18.9296" rx="9.46479" stroke="#944AF2" stroke-width="0.704225"/>
<path d="M29.1655 33.8169V25.3325H32.4937C34.4214 25.3325 35.5288 26.522 35.5288 28.1919C35.5288 29.8853 34.4038 31.0513 32.4468 31.0513H30.9233V33.8169H29.1655ZM30.9233 29.6333H32.1655C33.2085 29.6333 33.7183 29.0474 33.7124 28.1919C33.7183 27.3481 33.2085 26.7798 32.1655 26.7739H30.9233V29.6333ZM36.6069 33.8169V27.4536H38.2827V28.5552H38.353C38.5815 27.7759 39.1733 27.3599 39.8882 27.3599C40.064 27.3599 40.2866 27.3833 40.439 27.4185V28.9653C40.2749 28.9126 39.9409 28.8716 39.7007 28.8716C38.9155 28.8716 38.3354 29.4165 38.3413 30.1958V33.8169H36.6069ZM43.9429 33.9458C42.021 33.9399 40.8198 32.6216 40.8257 30.6528C40.8198 28.6899 42.021 27.3716 43.9429 27.3716C45.8706 27.3716 47.0659 28.6899 47.0718 30.6528C47.0659 32.6216 45.8706 33.9399 43.9429 33.9458ZM42.5835 30.6528C42.5835 31.7661 43.0464 32.5923 43.9546 32.5981C44.8394 32.5923 45.3081 31.7661 45.3022 30.6528C45.3081 29.5337 44.8394 28.6958 43.9546 28.6958C43.0464 28.6958 42.5835 29.5337 42.5835 30.6528ZM50.5054 33.9224C49.0522 33.9224 47.9155 32.7681 47.9155 30.6411C47.9155 28.4614 49.0991 27.3716 50.5054 27.3716C51.5718 27.3716 52.0815 28.0044 52.3101 28.52H52.3687V25.3325H54.103V33.8169H52.3921V32.7974H52.3101C52.0698 33.3247 51.5425 33.9224 50.5054 33.9224ZM49.6968 30.6294C49.6909 31.7544 50.1655 32.5337 51.0444 32.5396C51.9116 32.5337 52.4038 31.7778 52.4038 30.6294C52.4038 29.4868 51.9175 28.7544 51.0444 28.7544C50.1597 28.7544 49.6909 29.522 49.6968 30.6294ZM59.5757 31.1099V27.4536H61.3101V33.8169H59.646V32.6685H59.5757C59.2886 33.4067 58.603 33.8989 57.6421 33.8989C56.3706 33.8989 55.4976 32.9966 55.4976 31.5083V27.4536H57.2319V31.2036C57.2319 31.9595 57.6655 32.4282 58.3452 32.4341C58.978 32.4282 59.5757 31.9771 59.5757 31.1099ZM65.5171 33.9458C63.5659 33.9399 62.394 32.5923 62.3999 30.6528C62.394 28.7075 63.5894 27.3716 65.5171 27.3716C67.1577 27.3716 68.271 28.3267 68.3413 29.7856H66.7124C66.6069 29.1587 66.1968 28.7251 65.5405 28.7192C64.7085 28.7251 64.1577 29.4224 64.1577 30.6294C64.1577 31.8599 64.6968 32.563 65.5405 32.563C66.1499 32.563 66.6011 32.1821 66.7124 31.5083H68.3413C68.2651 32.9497 67.2046 33.9399 65.5171 33.9458ZM72.771 27.4536V28.7544H71.5757V31.8599C71.5698 32.3696 71.8218 32.4927 72.1733 32.5044C72.3491 32.5044 72.6538 32.4868 72.8647 32.4692V33.8403C72.6772 33.8696 72.3667 33.9048 71.939 33.8989C70.6851 33.9048 69.8296 33.3423 69.8413 32.106V28.7544H68.9624V27.4536H69.8413V25.9302H71.5757V27.4536H72.771ZM84.4312 29.5747C84.4312 32.3462 82.7144 33.9341 80.4702 33.9341C78.2085 33.9341 76.4976 32.3345 76.4976 29.5747C76.4976 26.8032 78.2085 25.2153 80.4702 25.2153C82.7144 25.2153 84.4312 26.8032 84.4312 29.5747ZM78.2905 29.5747C78.2905 31.3853 79.1519 32.3696 80.4702 32.3755C81.7769 32.3696 82.644 31.3853 82.6382 29.5747C82.644 27.7583 81.7769 26.7798 80.4702 26.7739C79.1519 26.7798 78.2905 27.7583 78.2905 29.5747ZM85.6616 36.2075V27.4536H87.3726V28.52H87.4429C87.6831 28.0044 88.187 27.3716 89.2593 27.3716C90.6655 27.3716 91.8433 28.4614 91.8374 30.6411C91.8433 32.7681 90.7124 33.9224 89.2593 33.9224C88.2222 33.9224 87.689 33.3247 87.4429 32.7974H87.396V36.2075H85.6616ZM87.3608 30.6294C87.355 31.7778 87.8472 32.5337 88.7085 32.5396C89.5933 32.5337 90.0737 31.7544 90.0679 30.6294C90.0737 29.522 89.605 28.7544 88.7085 28.7544C87.8413 28.7544 87.355 29.4868 87.3608 30.6294ZM95.8452 33.9458C93.894 33.9399 92.6987 32.6802 92.7046 30.6646C92.6987 28.7017 93.9116 27.3716 95.7749 27.3716C97.4448 27.3716 98.7632 28.4263 98.7632 30.5942V31.0864H94.4155C94.4155 32.0474 94.9839 32.6392 95.8804 32.645C96.4722 32.6392 96.894 32.3813 97.064 32.0005H98.7163C98.4702 33.1782 97.4155 33.9399 95.8452 33.9458ZM94.4155 29.9966H97.1226C97.1167 29.2231 96.5835 28.6665 95.8101 28.6724C95.0132 28.6665 94.4507 29.2642 94.4155 29.9966ZM99.853 33.8169V27.4536H101.529V28.5552H101.599C101.828 27.7759 102.419 27.3599 103.134 27.3599C103.31 27.3599 103.533 27.3833 103.685 27.4185V28.9653C103.521 28.9126 103.187 28.8716 102.947 28.8716C102.162 28.8716 101.582 29.4165 101.587 30.1958V33.8169H99.853ZM104.048 32.0356C104.054 30.6177 105.191 30.1548 106.416 30.0786C106.873 30.0493 107.728 30.0083 107.998 29.9966V29.481C107.992 28.9478 107.628 28.6431 106.978 28.6372C106.386 28.6431 106.017 28.9067 105.923 29.3403H104.271C104.376 28.2388 105.337 27.3716 107.025 27.3716C108.414 27.3716 109.726 27.9927 109.72 29.5278V33.8169H108.08V32.938H108.033C107.722 33.5239 107.113 33.9399 106.169 33.9341C104.951 33.9399 104.054 33.2954 104.048 32.0356ZM105.712 31.9888C105.712 32.4751 106.105 32.7329 106.662 32.7388C107.453 32.7329 108.003 32.2173 107.998 31.5435V31.0806C107.734 31.0923 106.99 31.1333 106.697 31.1567C106.093 31.2095 105.712 31.4966 105.712 31.9888ZM114.396 27.4536V28.7544H113.201V31.8599C113.195 32.3696 113.447 32.4927 113.798 32.5044C113.974 32.5044 114.279 32.4868 114.49 32.4692V33.8403C114.302 33.8696 113.992 33.9048 113.564 33.8989C112.31 33.9048 111.455 33.3423 111.466 32.106V28.7544H110.587V27.4536H111.466V25.9302H113.201V27.4536H114.396ZM118.275 33.9458C116.353 33.9399 115.152 32.6216 115.158 30.6528C115.152 28.6899 116.353 27.3716 118.275 27.3716C120.203 27.3716 121.398 28.6899 121.404 30.6528C121.398 32.6216 120.203 33.9399 118.275 33.9458ZM116.916 30.6528C116.916 31.7661 117.378 32.5923 118.287 32.5981C119.171 32.5923 119.64 31.7661 119.634 30.6528C119.64 29.5337 119.171 28.6958 118.287 28.6958C117.378 28.6958 116.916 29.5337 116.916 30.6528ZM122.494 33.8169V27.4536H124.169V28.5552H124.24C124.468 27.7759 125.06 27.3599 125.775 27.3599C125.951 27.3599 126.173 27.3833 126.326 27.4185V28.9653C126.162 28.9126 125.828 28.8716 125.587 28.8716C124.802 28.8716 124.222 29.4165 124.228 30.1958V33.8169H122.494Z" fill="#131316"/>
<g clip-path="url(#clip0_1223_1171)">
<rect x="20" y="59.6338" width="260" height="197.183" rx="8.4507" fill="black"/>
<ellipse cx="190.669" cy="146.513" rx="4.57746" ry="11.9718" transform="rotate(9.95946 190.669 146.513)" fill="#D36266"/>
<path d="M143.134 211.746C144.261 208.93 141.725 185.221 140.317 173.718C143.697 177.944 166.843 183.46 177.993 185.69C177.876 193.202 178.275 208.93 180.81 211.746C183.979 215.268 174.824 230.056 170.246 233.93C165.669 237.803 141.725 215.268 143.134 211.746Z" fill="#EB8682"/>
<mask id="mask0_1223_1171" style="mask-type:alpha" maskUnits="userSpaceOnUse" x="140" y="173" width="42" height="62">
<path d="M143.134 211.746C144.261 208.93 141.726 185.221 140.317 173.718C143.697 177.944 166.843 183.46 177.993 185.69C177.876 193.202 178.275 208.93 180.81 211.746C183.979 215.268 174.824 230.056 170.247 233.93C165.669 237.803 141.726 215.268 143.134 211.746Z" fill="#EB8682"/>
</mask>
<g mask="url(#mask0_1223_1171)">
<path d="M179.05 205.76C162.148 217.028 148.298 185.221 135.74 174.07L195.247 199.422C191.726 200.948 182.979 203.141 179.05 205.76Z" fill="url(#paint0_linear_1223_1171)"/>
</g>
<path d="M180.472 94.8458C178.5 93.1557 169.087 94.1416 164.627 94.8458C162.632 97.5451 158.711 103.93 158.993 107.873C159.345 112.803 173.43 106.465 180.472 106.465C186.106 106.465 189.392 127.826 190.331 138.507C190.801 133.695 191.458 123.225 190.331 119.845C188.923 115.62 191.035 109.634 189.275 106.465C187.514 103.296 182.937 96.9585 180.472 94.8458Z" fill="#615151"/>
<path d="M143.842 146.347C149.475 139.023 153.936 126.629 155.461 121.347C162.27 122.756 174.268 122.756 167.789 111.488C159.691 97.4037 124.826 107.169 114.615 118.085C106.446 126.817 117.318 156.793 124.125 163.601L150.88 185.338C151.232 183.93 144.687 167.263 143.842 163.601C142.785 159.023 136.799 155.502 143.842 146.347Z" fill="#806669"/>
<path d="M191.119 136.333C191.401 132.107 186.072 114.384 183.373 106.051C168.936 92.3184 151.684 106.051 142.528 111.333C135.203 115.558 135.251 135.863 136.191 145.487C134.782 145.37 130.767 145.206 125.979 145.487C119.994 145.84 122.057 148.514 121 154.5C119.944 160.486 129.148 165.206 131.964 168.375C134.218 170.91 139.946 171.074 142.528 170.84C143.819 173.656 146.824 180.417 148.514 184.924C150.626 190.558 176.331 198.656 183.373 199.361C190.415 200.065 191.119 188.797 195.345 177.53C199.57 166.262 194.64 166.262 193.232 162.741C191.824 159.22 190.767 141.614 191.119 136.333Z" fill="url(#paint1_radial_1223_1171)"/>
<g filter="url(#filter0_f_1223_1171)">
<ellipse cx="176.183" cy="155.252" rx="7.05584" ry="10.6185" transform="rotate(-24.4392 176.183 155.252)" fill="#E36A6F" fill-opacity="0.5"/>
</g>
<path d="M175.878 139.916C176.113 143.789 177.075 151.887 179.047 153.296C181.512 155.056 186.441 156.817 184.329 159.634C182.216 162.451 181.16 163.507 179.751 163.507C178.343 163.507 175.878 163.507 174.822 162.803C173.765 162.099 173.061 160.338 170.949 160.338M168.132 161.394C167.662 160.221 166.934 157.592 167.779 156.465" stroke="black" stroke-width="0.704225" stroke-linecap="round"/>
<path d="M163.556 140.268L166.021 141.676C166.256 144.493 165.669 150.197 161.444 150.479C157.218 150.761 153.345 147.545 151.937 145.901C153.908 143.084 160.505 140.972 163.556 140.268Z" fill="#D9D9D9" stroke="black" stroke-width="0.704225" stroke-linecap="round"/>
<mask id="mask1_1223_1171" style="mask-type:alpha" maskUnits="userSpaceOnUse" x="151" y="139" width="16" height="12">
<path d="M163.556 140.268L166.021 141.676C166.256 144.493 165.669 150.197 161.444 150.479C157.218 150.761 153.345 147.545 151.937 145.901C153.908 143.084 160.505 140.972 163.556 140.268Z" fill="#D9D9D9" stroke="black" stroke-width="0.704225" stroke-linecap="round"/>
</mask>
<g mask="url(#mask1_1223_1171)">
<path d="M163.556 148.366C159.894 148.366 158.979 143.202 158.979 140.62C158.979 138.507 163.556 137.803 166.373 137.803C168.627 137.803 169.66 142.498 169.894 144.845C169.307 146.019 167.218 148.366 163.556 148.366Z" fill="#131313"/>
<circle cx="160.576" cy="143.576" r="0.5" transform="rotate(9.55715 160.576 143.576)" fill="white"/>
</g>
<path d="M184.855 135.338L186.459 136.747C186.612 139.563 186.23 145.268 183.479 145.549C180.728 145.831 178.206 142.615 177.289 140.972C178.573 138.155 182.868 136.042 184.855 135.338Z" fill="#D9D9D9" stroke="black" stroke-width="0.704225" stroke-linecap="round"/>
<mask id="mask2_1223_1171" style="mask-type:alpha" maskUnits="userSpaceOnUse" x="176" y="134" width="11" height="12">
<path d="M184.855 135.338L186.46 136.747C186.613 139.563 186.231 145.268 183.48 145.549C180.728 145.831 178.207 142.615 177.29 140.972C178.573 138.155 182.868 136.042 184.855 135.338Z" fill="#D9D9D9" stroke="black" stroke-width="0.704225" stroke-linecap="round"/>
</mask>
<g mask="url(#mask2_1223_1171)">
<path d="M184.856 143.437C182.471 143.437 181.875 138.272 181.875 135.69C181.875 133.578 184.856 132.873 186.69 132.873C188.157 132.873 188.829 137.568 188.982 139.916C188.6 141.089 187.24 143.437 184.856 143.437Z" fill="#131313"/>
<circle cx="182.576" cy="140.576" r="0.5" transform="rotate(9.55715 182.576 140.576)" fill="white"/>
</g>
<path d="M165.331 132.521L168.5 128.296H156.514L149.824 131.465L143.486 139.915C145.246 138.859 149.19 136.535 150.88 135.69C152.57 134.845 161.575 133.225 165.331 132.521Z" fill="#614746"/>
<path d="M179 131.241L177.322 129.192L186.589 129.706L190.13 131.242L191.021 133.579C188.79 132.353 181.521 131.674 179 131.241Z" fill="#614746"/>
<path d="M145.595 127.943C151.228 120.619 155.688 108.225 157.214 102.943C164.023 104.352 176.021 104.352 169.542 93.0842C161.443 78.9997 125.878 102.943 115.667 113.859C107.498 122.591 119.071 138.389 125.878 145.197L133.5 148L138 155.5C138.352 154.092 140.345 156.162 139.5 152.5C138.444 147.923 138.552 137.098 145.595 127.943Z" fill="#806669"/>
<path d="M182.923 170.197C177.007 172.169 167.782 173.601 163.908 174.071C166.021 176.183 172.711 176.535 177.641 175.479C181.585 174.634 182.805 171.606 182.923 170.197Z" fill="#E26762"/>
<path d="M183.275 170.197C178.228 171.606 167.289 174.352 163.908 174.071" stroke="black" stroke-width="0.704225" stroke-linecap="round"/>
<path d="M168.829 148.739C168.829 149.44 169.397 150.008 170.097 150.008C170.798 150.008 171.366 149.44 171.366 148.739H168.829ZM177.428 147.816C177.428 148.517 177.995 149.085 178.696 149.085C179.397 149.085 179.965 148.517 179.965 147.816H177.428ZM150.824 149.496C151.492 149.707 152.204 149.336 152.416 148.668C152.627 148 152.256 147.288 151.588 147.077L150.824 149.496ZM123.281 143.904L123.826 145.049C123.84 145.043 123.854 145.036 123.867 145.029L123.281 143.904ZM117.587 152.905C117.715 153.594 118.377 154.049 119.065 153.921C119.754 153.793 120.209 153.131 120.081 152.442L117.587 152.905ZM168.829 148.286C168.829 153.174 165.447 156.805 161.655 156.805V159.342C167.187 159.342 171.366 154.21 171.366 148.286H168.829ZM161.655 156.805C157.862 156.805 152.48 153.174 152.48 148.286H149.943C149.943 154.21 156.122 159.342 161.655 159.342V156.805ZM152.48 148.286C152.48 143.398 157.862 139.767 161.655 139.767V137.23C156.122 137.23 149.943 142.362 149.943 148.286H152.48ZM161.655 139.767C165.447 139.767 168.829 143.398 168.829 148.286H171.366C171.366 142.362 167.187 137.23 161.655 137.23V139.767ZM194.235 146.395C194.235 151.282 190.854 154.914 187.061 154.914V157.451C192.594 157.451 196.772 152.318 196.772 146.395H194.235ZM187.061 154.914C183.268 154.914 179.887 151.282 179.887 146.395H177.35C177.35 152.318 181.528 157.451 187.061 157.451V154.914ZM179.887 146.395C179.887 141.507 183.268 137.875 187.061 137.875V135.338C181.528 135.338 177.35 140.471 177.35 146.395H179.887ZM187.061 137.875C190.854 137.875 194.235 141.507 194.235 146.395H196.772C196.772 140.471 192.594 135.338 187.061 135.338V137.875ZM171.366 148.739C171.366 148.306 171.576 147.922 172.123 147.574C172.697 147.207 173.546 146.962 174.474 146.906C175.403 146.849 176.259 146.991 176.828 147.25C177.407 147.512 177.428 147.742 177.428 147.816H179.965C179.965 146.331 178.91 145.408 177.876 144.939C176.833 144.466 175.54 144.299 174.319 144.374C173.097 144.448 171.797 144.773 170.759 145.434C169.694 146.113 168.829 147.214 168.829 148.739H171.366ZM151.206 148.286C151.588 147.077 151.588 147.077 151.588 147.077L151.587 147.076L151.583 147.075C151.58 147.074 151.575 147.072 151.569 147.071C151.557 147.067 151.539 147.061 151.516 147.054C151.469 147.039 151.401 147.018 151.311 146.99C151.132 146.935 150.87 146.854 150.535 146.754C149.864 146.552 148.901 146.267 147.727 145.936C145.381 145.274 144.184 144.423 140.792 143.671C137.406 142.92 133.793 142.26 130.622 141.991C129.037 141.856 127.534 141.816 126.209 141.92C124.903 142.022 123.671 142.27 122.694 142.779L123.867 145.029C124.406 144.748 125.247 144.54 126.406 144.449C127.547 144.36 128.903 144.391 130.407 144.519C133.416 144.775 136.905 145.408 140.243 146.148C143.574 146.886 144.721 147.724 147.039 148.378C148.196 148.704 149.145 148.984 149.803 149.183C150.132 149.282 150.388 149.36 150.562 149.414C150.649 149.441 150.715 149.461 150.759 149.475C150.781 149.482 150.797 149.487 150.808 149.491C150.814 149.492 150.818 149.494 150.82 149.494L150.824 149.496C150.824 149.496 150.824 149.496 151.206 148.286ZM122.735 142.759C120.882 143.642 119.373 145.117 118.442 146.953L120.705 148.1C121.383 146.762 122.481 145.69 123.826 145.049L122.735 142.759ZM118.442 146.953C117.512 148.788 117.211 150.881 117.587 152.905L120.081 152.442C119.807 150.965 120.027 149.438 120.705 148.1L118.442 146.953Z" fill="black"/>
<path d="M157.57 172.665C160.387 167.876 168.838 163.392 172.711 161.749C174.472 160.951 174.12 161.749 175.176 162.805C176.232 163.861 177.289 163.862 179.401 163.862C181.514 163.862 181.866 162.806 182.218 161.749C182.57 160.693 183.979 162.453 188.204 163.862C192.43 165.27 189.965 165.27 190.669 167.031C191.373 168.791 186.444 167.031 185.739 169.144C185.035 171.256 179.753 168.087 178.697 169.144C177.641 170.2 172.711 170.2 170.951 171.96C169.542 173.369 164.965 173.017 162.852 172.665C159.918 174.66 154.753 177.453 157.57 172.665Z" fill="#614746"/>
<path d="M88.5562 233.577C89.4013 231.324 122.007 218.554 138.204 212.451L154.401 223.366C158.275 226.77 166.5 233.333 168 232C170.535 229.746 177.758 220.197 180.458 216.324C188.791 219.493 207.218 226.324 214.26 228.296C221.303 230.268 223.063 248.131 223.063 256.817H76.9365C80.4576 250.009 87.7112 235.831 88.5562 233.577Z" fill="url(#paint2_linear_1223_1171)"/>
<path d="M162.852 223.718L144.894 210.69C143.5 209.5 143.5 206.5 143.134 202.944C143.134 202.944 135.479 211.69 135.5 213C135.521 214.31 146.655 236.042 146.655 236.042C148.885 233.343 153.979 227.803 156.514 227.239C159.049 226.676 165 232 168 232.5L162.852 223.718Z" fill="#EEEEEE"/>
<path d="M177.92 210.69L169.689 223.718L168 232.5C170 230.5 172.906 227.761 173.5 227.5C174.682 226.981 183.5 232.5 186.5 234.282L183 217L178.821 203.255C178.793 203.145 178.761 203.04 178.727 202.944L178.821 203.255C179.419 205.561 178.782 210.69 177.92 210.69Z" fill="#EEEEEE"/>
<path d="M173 186C167.718 185.413 162.5 183.579 158.275 183.579C155.497 183.579 139.261 151.535 139.261 151.535L137.5 154.704C137.5 154.704 147.993 185.903 149.12 188.157C150.246 190.41 172.359 197.546 183.275 200.833C184.683 200.246 187.782 199.072 188.908 199.072C190.035 199.072 195.716 182.171 198.415 173.72L197 168L195 165C195 165.587 194.5 167.81 194.5 169.5C194.5 171.613 191.592 180 188.5 181C185.408 182 183 178 180.458 177.241L177.993 177.946C177.993 177.946 178.345 178.433 179.401 181.467C180.458 184.5 173 186 173 186Z" fill="#614746"/>
<path d="M181.162 107.521C181.162 103.296 176.232 99.6575 173.768 98.3664C177.289 94.1411 181.162 99.4228 185.035 102.592C188.134 105.127 182.101 113.273 178.697 117.028C179.519 115.62 181.162 111.747 181.162 107.521Z" fill="#615151"/>
<path d="M131.515 152.592C131.797 152.873 133.745 156.465 134.684 158.225C135.39 159.539 134.331 160.69 133.627 160.69C132.922 160.69 132.57 162.099 132.922 163.155C133.275 164.211 134.331 166.676 132.922 167.38C131.514 168.084 124.825 160.338 123.769 158.93C122.712 157.521 122.712 153.296 123.417 151.183C124.121 149.07 125.529 149.775 126.938 149.07C128.346 148.366 131.163 152.24 131.515 152.592Z" fill="#D36266"/>
<path d="M133.979 156.465C132.57 153.766 129.12 148.508 126.584 149.071C124.049 149.634 123.181 150.948 123.063 151.535" stroke="#793033" stroke-width="0.704225" stroke-linecap="round"/>
<path d="M133.275 127.146C142.289 123.484 149.472 110.362 151.937 104.259C148.556 127.357 124.472 134.305 112.852 134.892C115.904 133.836 124.261 130.808 133.275 127.146Z" fill="#D9D9D9"/>
<path d="M130.106 139.47C139.12 135.808 139.965 130.432 142.43 124.329C139.049 147.428 127.289 141.7 115.669 142.287C118.721 141.231 121.091 143.132 130.106 139.47Z" fill="#D9D9D9"/>
<path d="M128.002 121.613C135.311 118.499 141.135 107.337 143.134 102.146C140.393 121.793 120.865 127.703 111.444 128.202C113.918 127.304 120.694 124.728 128.002 121.613Z" fill="#D9D9D9"/>
</g>
<path d="M45.1953 302.389V305.407H20.791V302.389H31.1035V296.442H34.8535V302.389H45.1953ZM21.7871 294.655C27.3242 293.761 30.6348 290.421 30.957 286.891H22.8125V283.874H43.0566V286.891H34.9414C35.2344 290.407 38.5742 293.673 44.2871 294.508L42.8223 297.467C38.1494 296.647 34.6924 294.376 32.9639 291.212C31.2793 294.42 27.8516 296.779 23.252 297.614L21.7871 294.655ZM71.5332 291.959V295.006H67.7539V308.454H64.0039V281.852H67.7539V291.959H71.5332ZM47.5684 301.95V284.401H51.2891V298.859C54.7021 298.8 58.3643 298.478 62.2168 297.702L62.5977 300.807C58.1299 301.715 53.8086 301.95 49.8828 301.95H47.5684ZM93.7988 281.852V289.118H97.4023V292.194H93.7988V301.129H90.0488V281.852H93.7988ZM73.6719 296.735V283.991H85.7129V286.979H77.4219V293.717C82.2559 293.688 84.9072 293.527 87.8809 292.897L88.2617 295.885C84.9072 296.574 81.8311 296.735 75.9277 296.735H73.6719ZM76.5137 308.043V299.079H80.2344V305.055H94.7656V308.043H76.5137Z" fill="#ECECF8"/>
<path d="M31.75 335.598V340.598H27.8906V341.958H33.3906V343.567H20.4219V341.958H25.8906V340.598H22.0312V335.598H31.75ZM21.8594 346.176V344.614H31.8125V349.254H29.8281V346.176H21.8594ZM23.9844 339.036H29.7969V337.145H23.9844V339.036ZM47.2656 346.083V347.676H34.25V346.083H37.4844V343.379H35.3281V341.77H37.2344V337.77H35.2656V336.176H46.1719V337.77H44.1719V341.77H46.1094V343.379H43.9688V346.083H47.2656ZM39.2344 341.77H42.2031V337.77H39.2344V341.77ZM39.4844 346.083H41.9688V343.379H39.4844V346.083Z" fill="#ECECF8" fill-opacity="0.5"/>
<path d="M45.1953 380.147V383.224H20.791V380.147H31.0742V374.698H23.3691V361.632H42.4707V374.698H34.7949V380.147H45.1953ZM27.0605 371.769H38.7793V364.62H27.0605V371.769ZM69.7754 359.698V373.644H66.2305V359.698H69.7754ZM47.8613 372.97V360.958H58.2617V363.888H51.582V370.011C54.5557 369.981 56.6211 369.879 59.0234 369.483L59.2578 372.442C56.3574 372.896 53.8965 372.97 49.707 372.97H47.8613ZM51.377 377.423V374.493H69.7754V381.583H55.127V383.106H70.5664V386.036H51.4062V378.8H66.1133V377.423H51.377ZM56.709 368.077V365.265H60.8984V360.138H64.4141V373.526H60.8984V368.077H56.709ZM84.8047 360.05C90.9424 360.05 94.4873 361.661 94.502 364.591C94.4873 367.564 90.9424 369.161 84.8047 369.161C78.6523 369.161 75.0781 367.564 75.0781 364.591C75.0781 361.661 78.6523 360.05 84.8047 360.05ZM72.6465 373.38V370.421H96.9629V373.38H72.6465ZM75.459 377.657V374.933H94.0039V381.729H79.1504V383.341H94.707V386.153H75.4883V379.122H90.3125V377.657H75.459ZM79.0039 364.591C78.9893 365.895 80.8936 366.407 84.8047 366.407C88.7451 366.407 90.6348 365.895 90.6348 364.591C90.6348 363.404 88.7451 362.774 84.8047 362.774C80.8936 362.774 78.9893 363.404 79.0039 364.591ZM127.783 359.669V373.175H124.062V359.669H127.783ZM105.371 370.304C109.824 368.971 111.816 365.616 111.816 362.306V360.255H115.713V362.306C115.684 365.543 117.617 368.634 121.982 369.894L120.166 372.765C117.104 371.886 114.995 370.025 113.779 367.652C112.578 370.245 110.396 372.281 107.217 373.233L105.371 370.304ZM109.912 377.218V374.317H127.812V381.554H113.633V383.194H128.545V386.153H109.971V378.771H124.092V377.218H109.912ZM153.711 359.669V373.351H149.99V359.669H153.711ZM131.533 370.685C135.679 369.542 137.729 366.744 137.979 363.888H132.529V360.899H147.178V363.888H141.846C142.095 366.539 144.116 369.146 148.203 370.216L146.416 373.087C143.325 372.237 141.187 370.45 139.985 368.165C138.77 370.699 136.514 372.706 133.232 373.644L131.533 370.685ZM135.84 377.247V374.405H153.74V381.524H139.561V383.282H154.473V386.153H135.898V378.858H150.02V377.247H135.84ZM172.725 361.163V364.122H167.422C167.437 367.257 169.341 370.494 173.545 371.886L171.699 374.757C168.755 373.834 166.719 371.9 165.562 369.513C164.375 372.164 162.251 374.303 159.102 375.313L157.197 372.354C161.592 370.963 163.584 367.433 163.613 364.122H158.252V361.163H172.725ZM161.504 379.708V376.72H179.814V386.329H176.094V379.708H161.504ZM171.963 369.132V366.085H176.094V359.669H179.814V375.548H176.094V369.132H171.963ZM195.43 361.017C201.055 361.031 205.464 364.078 205.479 368.692C205.464 373.351 201.055 376.383 195.43 376.368C189.79 376.383 185.41 373.351 185.41 368.692C185.41 364.078 189.79 361.031 195.43 361.017ZM183.271 383.077V380.06H207.676V383.077H183.271ZM189.043 368.692C189.028 371.593 191.724 373.321 195.43 373.321C199.106 373.321 201.772 371.593 201.787 368.692C201.772 365.836 199.106 364.034 195.43 364.063C191.724 364.034 189.028 365.836 189.043 368.692ZM233.604 380.294V383.37H209.199V380.294H219.482V376.28H212.012V367.315H227.1V364.386H211.982V361.397H230.791V370.245H215.762V373.233H231.406V376.28H223.203V380.294H233.604ZM45.166 408.647V411.636H35.0586V416.265H31.2793V411.636H20.7617V408.647H45.166ZM23.2812 401.704C23.2812 398.32 27.1484 396.196 32.9492 396.167C38.7207 396.196 42.5732 398.32 42.5879 401.704C42.5732 405.103 38.7207 407.212 32.9492 407.212C27.1484 407.212 23.2812 405.103 23.2812 401.704ZM23.6621 421.86V413.892H27.4414V418.843H42.4707V421.86H23.6621ZM27.3242 401.704C27.3096 403.33 29.5068 404.209 32.9492 404.224C36.3916 404.209 38.5742 403.33 38.5742 401.704C38.5742 400.005 36.3916 399.126 32.9492 399.126C29.5068 399.126 27.3096 400.005 27.3242 401.704ZM54.1602 397.104C56.2842 397.09 58.1445 397.881 59.4189 399.185H65.4688V395.669H69.1895V411.284H65.4688V408.091H59.3896C58.1152 409.38 56.2695 410.156 54.1602 410.142C50.1172 410.156 47.041 407.402 47.0703 403.638C47.041 399.829 50.1172 397.09 54.1602 397.104ZM50.6152 403.638C50.6006 405.688 52.0801 406.992 54.1602 406.978C56.167 406.992 57.6318 405.688 57.6465 403.638C57.6318 401.514 56.167 400.283 54.1602 400.298C52.0801 400.283 50.6006 401.514 50.6152 403.638ZM50.9082 417.085C50.9082 413.774 54.4385 411.826 60.0781 411.841C65.7178 411.826 69.2627 413.774 69.2773 417.085C69.2627 420.396 65.7178 422.344 60.0781 422.329C54.4385 422.344 50.9082 420.396 50.9082 417.085ZM54.5703 417.085C54.5703 418.638 56.5479 419.429 60.0781 419.429C63.6816 419.429 65.6006 418.638 65.6152 417.085C65.6006 415.488 63.6816 414.697 60.0781 414.683C56.5479 414.697 54.5703 415.488 54.5703 417.085ZM61.0156 402.144C61.1328 402.612 61.1914 403.125 61.1914 403.638C61.1914 404.15 61.1328 404.634 61.0303 405.103H65.4688V402.144H61.0156ZM93.6816 395.669V406.099H97.6074V409.175H93.6816V422.329H89.9902V395.669H93.6816ZM72.5 402.642V399.653H78.5352V396.079H82.2852V399.653H88.1738V402.642H72.5ZM73.584 410.493C73.5693 406.772 76.4697 404.121 80.4102 404.136C84.292 404.121 87.207 406.772 87.207 410.493C87.207 414.214 84.292 416.836 80.4102 416.851C76.4697 416.836 73.5693 414.214 73.584 410.493ZM77.1582 410.493C77.1582 412.559 78.5205 413.789 80.4102 413.774C82.2705 413.789 83.6328 412.559 83.6328 410.493C83.6328 408.442 82.2705 407.183 80.4102 407.153C78.5205 407.183 77.1582 408.442 77.1582 410.493ZM120.547 397.983V400.503C120.532 403.843 120.532 407.593 119.463 413.247L115.713 412.866C116.738 407.827 116.782 404.077 116.797 400.942H101.094V397.983H120.547ZM98.5742 419.077V416.03H107.275V406.86H110.996V416.03H122.891V419.077H98.5742ZM146.357 397.603V399.272C146.357 401.118 146.357 403.784 145.742 407.095L142.08 406.743C142.563 404.194 142.681 402.246 142.71 400.649H132.646V397.603H146.357ZM131.064 409.028C132.559 409.028 134.243 409.028 136.016 408.984V403.755H139.736V408.867C142.402 408.75 145.112 408.545 147.617 408.179L147.822 410.874C142.271 411.899 136.03 412.002 131.387 412.017L131.064 409.028ZM134.99 421.86V413.833H138.74V418.872H153.711V421.86H134.99ZM149.053 415.62V395.669H152.891V403.784H156.113V406.919H152.891V415.62H149.053ZM179.697 395.669V422.388H175.977V395.669H179.697ZM158.75 400.913V397.896H171.436V408.179H162.646V413.071C166.719 413.042 170.161 412.837 174.072 412.192L174.395 415.21C170.015 415.986 166.045 416.147 161.182 416.147H158.779V405.22H167.627V400.913H158.75ZM204.307 395.669V406.099H208.232V409.175H204.307V422.329H200.615V395.669H204.307ZM183.125 402.642V399.653H189.16V396.079H192.91V399.653H198.799V402.642H183.125ZM184.209 410.493C184.194 406.772 187.095 404.121 191.035 404.136C194.917 404.121 197.832 406.772 197.832 410.493C197.832 414.214 194.917 416.836 191.035 416.851C187.095 416.836 184.194 414.214 184.209 410.493ZM187.783 410.493C187.783 412.559 189.146 413.789 191.035 413.774C192.896 413.789 194.258 412.559 194.258 410.493C194.258 408.442 192.896 407.183 191.035 407.153C189.146 407.183 187.783 408.442 187.783 410.493ZM231.172 397.983V400.503C231.157 403.843 231.157 407.593 230.088 413.247L226.338 412.866C227.363 407.827 227.407 404.077 227.422 400.942H211.719V397.983H231.172ZM209.199 419.077V416.03H217.9V406.86H221.621V416.03H233.516V419.077H209.199ZM43.1152 431.698V446.464H39.3652V431.698H43.1152ZM20.7031 443.153C25.1562 441.806 27.1191 438.48 27.1191 435.185V432.606H31.0156V435.185C30.9863 438.349 32.9199 441.483 37.2852 442.685L35.498 445.644C32.4219 444.735 30.2979 442.89 29.082 440.502C27.8662 443.08 25.6836 445.116 22.4902 446.083L20.7031 443.153ZM24.7168 458.036V455.048H28.1738V450.624H24.9512V447.665H43.2617V450.624H40.0684V455.048H43.4961V458.036H24.7168ZM31.8652 455.048H36.377V450.624H31.8652V455.048ZM53.252 447.665V449.921H64.2383V447.665H67.959V458.036H49.5605V447.665H53.252ZM46.7188 446.317V443.3H71.0352V446.317H46.7188ZM47.9199 439.198C53.8672 438.48 56.9434 435.58 56.9727 432.841V431.933H60.8105V432.841C60.8105 435.507 63.8721 438.524 69.834 439.198L68.5156 442.128C63.9307 441.542 60.5908 439.638 58.877 437.06C57.1484 439.638 53.8086 441.542 49.2676 442.128L47.9199 439.198ZM53.252 455.106H64.2383V452.763H53.252V455.106ZM95.0586 431.669V458.329H91.3379V431.669H95.0586ZM74.082 451.737V434.218H77.7734V448.559C81.377 448.5 85.2441 448.163 89.1699 447.401L89.6387 450.478C84.9658 451.459 80.542 451.752 76.4258 451.737H74.082ZM119.609 431.669V441.571H123.535V444.618H119.609V458.388H115.859V431.669H119.609ZM99.6289 451.913V434.13H112.139V437.147H103.35V448.837C107.217 448.808 110.41 448.603 113.955 447.987L114.365 451.122C110.22 451.825 106.587 451.928 101.885 451.913H99.6289ZM127.959 455.897C126.582 455.897 125.469 454.799 125.498 453.437C125.469 452.089 126.582 450.99 127.959 451.005C129.263 450.99 130.391 452.089 130.391 453.437C130.391 454.799 129.263 455.897 127.959 455.897Z" fill="#ECECF8"/>
<defs>
<filter id="filter0_f_1223_1171" x="164.4" y="141.151" width="23.5659" height="28.2019" filterUnits="userSpaceOnUse" color-interpolation-filters="sRGB">
<feFlood flood-opacity="0" result="BackgroundImageFix"/>
<feBlend mode="normal" in="SourceGraphic" in2="BackgroundImageFix" result="shape"/>
<feGaussianBlur stdDeviation="2" result="effect1_foregroundBlur_1223_1171"/>
</filter>
<linearGradient id="paint0_linear_1223_1171" x1="158" y1="179.5" x2="165.493" y2="208.139" gradientUnits="userSpaceOnUse">
<stop stop-color="#8F5250"/>
<stop offset="1" stop-color="#8F5250" stop-opacity="0"/>
</linearGradient>
<radialGradient id="paint1_radial_1223_1171" cx="0" cy="0" r="1" gradientUnits="userSpaceOnUse" gradientTransform="translate(176.5 129) rotate(109.622) scale(61.0451 45.9142)">
<stop stop-color="#FFC6C4"/>
<stop offset="1" stop-color="#EB8682"/>
</radialGradient>
<linearGradient id="paint2_linear_1223_1171" x1="150" y1="212.451" x2="150" y2="256.817" gradientUnits="userSpaceOnUse">
<stop stop-color="#396352"/>
<stop offset="1" stop-color="#132E23"/>
</linearGradient>
<clipPath id="clip0_1223_1171">
<rect x="20" y="59.6338" width="260" height="197.183" rx="8.4507" fill="white"/>
</clipPath>
</defs>
</svg>
