<svg width="405" height="342" viewBox="0 0 405 342" fill="none" xmlns="http://www.w3.org/2000/svg">
<g clip-path="url(#clip0_518_4414)">
<rect width="405" height="342" rx="20" fill="#131316" fill-opacity="0.6"/>
<rect x="22.5" y="20" width="180" height="200" rx="8.95804" fill="url(#paint0_linear_518_4414)" fill-opacity="0.5"/>
<rect x="22.5" y="20" width="180" height="200" rx="8.95804" fill="black"/>
<path d="M70.2696 94.1178C69.9605 71.8666 88.8066 53.4528 95.977 53.0494C124.954 34.6452 158.844 62.4896 162.988 84.5613C167.131 106.633 159.746 109.851 161.846 127.954C163.592 143 159.06 140.13 155.747 149.5C152.303 159.243 152.419 166.464 158.577 176C164.735 185.537 146.821 176.764 140.708 180.916C134.595 185.068 115.542 165.467 113.403 180.639C111.265 195.81 101.673 170.418 90.9626 184.712C80.2518 199.006 69.9672 204.004 63.0386 198.5C56.11 192.997 53.3734 192.152 50.2356 184.712C47.0978 177.273 44.5372 155.512 59.2272 144.258C73.9172 133.004 70.656 121.932 70.2696 94.1178Z" fill="url(#paint1_linear_518_4414)"/>
<path d="M176.131 220.001C175.812 207.832 160.852 174.547 148.9 167.422C127.386 157.967 99.8627 161.858 82.6475 167.422C70.3906 171.383 47.7208 204.105 51.5721 220.001H176.131Z" fill="url(#paint2_linear_518_4414)"/>
<path d="M99.8086 167.578C105.29 167.578 107.208 142.618 103.848 127.19C111.438 127.19 128.17 127.938 130.489 129.423C134.117 131.746 123.665 152.275 132.624 167.578C132.624 167.578 132.468 195.563 123.989 195.033C115.51 194.503 99.8086 167.578 99.8086 167.578Z" fill="#D67967"/>
<mask id="mask0_518_4414" style="mask-type:alpha" maskUnits="userSpaceOnUse" x="95" y="127" width="38" height="67">
<path d="M96.0469 170.19C100.824 167.503 108.09 144.151 103.85 127.19C111.439 127.19 128.173 127.938 130.492 129.423C134.119 131.746 123.668 152.274 132.626 167.578L119.294 193.995C112.949 187.526 91.2693 172.878 96.0469 170.19Z" fill="#D67967"/>
</mask>
<g mask="url(#mask0_518_4414)">
<path d="M135.344 129.05L140.57 160.403C140.57 160.403 133.478 165.255 116.309 148.086C99.139 130.916 95.0332 125.691 95.0332 125.691L99.5122 114.866L135.344 129.05Z" fill="url(#paint3_linear_518_4414)"/>
</g>
<path d="M84.7716 70.2978C98.1687 41.5451 128.981 43.9427 140.162 53.0455C150.093 50.383 151.667 57.1432 151.213 60.8562L118.507 130.608C111.105 126.914 101.098 135.309 99.6085 125.6C97.7469 113.465 68.0253 106.239 84.7716 70.2978Z" fill="url(#paint4_linear_518_4414)"/>
<path d="M151.517 129.044C153.306 132.046 153.875 140.82 148.996 142.242C145.058 143.39 141.554 135.88 144.507 130.365" stroke="url(#paint5_linear_518_4414)" stroke-width="2.12007" stroke-linecap="round"/>
<path d="M166.272 68.5059C161.432 57.245 136.534 55.0968 129.298 59.161C119.271 67.8851 138.539 78.7877 140.001 87.0471C141.171 93.6546 141.919 114.14 142.146 123.557C144.249 121.172 149.594 112.06 156.632 105.044C161.003 94.0992 171.113 79.7667 166.272 68.5059Z" fill="url(#paint6_linear_518_4414)"/>
<path d="M159.045 99.7745C160.934 94.6632 162.16 87.4479 153.963 70.6819C145.766 53.9158 116.656 65.0762 110.629 70.7649C104.603 76.4535 99.9099 101.017 98.651 99.6367C97.3921 98.2561 94.6018 96.9631 90.7419 99.2657C86.882 101.568 86.4409 109.844 86.1936 115.117C85.9463 120.39 91.462 123.343 93.6782 125.667C95.4511 127.526 100.736 129.168 103.157 129.758C104.497 136.507 127.577 152.558 136.011 150.179C144.446 147.8 144.433 145.666 149.731 136.375C154.182 128.57 157.223 119.271 156.368 113.788C155.569 108.664 156.684 106.164 159.045 99.7745Z" fill="url(#paint7_radial_518_4414)"/>
<g filter="url(#filter0_f_518_4414)">
<path d="M148.389 118.606C147.839 121.481 145.063 123.366 142.188 122.817C139.313 122.268 135.866 119.193 136.415 116.318C136.964 113.443 138.974 107.094 141.849 107.643C144.725 108.193 148.938 115.73 148.389 118.606Z" fill="#D8806F" fill-opacity="0.6"/>
</g>
<path d="M99.96 110.346C100.71 112.389 98.9647 113.576 97.2181 114.762C94.878 116.351 96.8887 118.498 96.8844 118.498C94.8593 121.151 94.5593 120.713 90.2835 117.237C86.0077 113.76 87.9851 105.398 92.1416 103.532C96.2981 101.666 99.2103 108.303 99.96 110.346Z" fill="#B15A46"/>
<path d="M101.693 124.54C104.014 127.153 106.219 135.665 101.693 137.977C98.0412 139.843 93.1895 133.125 95.0558 127.153" stroke="url(#paint8_linear_518_4414)" stroke-width="2.12007" stroke-linecap="round"/>
<path d="M126.22 127.595C140.256 133.688 142.269 132.434 145.651 131.307C145.47 130.664 144.215 130.206 143.784 129.145C143.488 128.708 142.197 129.498 141.394 129.725C140.751 129.906 139.513 128.962 138.582 128.531L126.22 127.595Z" fill="#933C42"/>
<path d="M119.106 98.3383C121.538 95.9962 123.09 96.8691 125.552 96.3665C127.506 95.9677 131.201 99.0846 133.038 100.418C134.166 101.501 134.329 104.907 134.179 105.799C134.028 106.691 129.486 107.159 126.509 106.658L126.498 106.656C123.529 106.156 121.803 105.865 120.317 105.269C118.816 104.666 116.673 100.68 119.106 98.3383Z" fill="#EDF1FA"/>
<mask id="mask1_518_4414" style="mask-type:alpha" maskUnits="userSpaceOnUse" x="118" y="96" width="17" height="11">
<path d="M119.106 98.3383C121.538 95.9962 123.09 96.8691 125.552 96.3665C127.506 95.9677 131.201 99.0846 133.038 100.418C134.166 101.501 134.329 104.907 134.179 105.799C134.028 106.691 129.486 107.159 126.509 106.658L126.498 106.656C123.529 106.156 121.803 105.865 120.317 105.269C118.816 104.666 116.673 100.68 119.106 98.3383Z" fill="#EDF1FA"/>
</mask>
<g mask="url(#mask1_518_4414)">
<path d="M124.481 104.132C123.632 100.996 124.448 98.9445 125.713 96.8155C127.34 95.2404 133.883 98.1051 134.302 99.6548C134.721 101.205 133.862 105.361 131.534 106.932C128.464 109.005 125.739 108.783 124.481 104.132Z" fill="url(#paint9_linear_518_4414)"/>
<ellipse cx="129.29" cy="100.689" rx="2.12007" ry="2.65009" fill="#14080E"/>
</g>
<path d="M120.312 105.302C118.653 103.84 117.852 101.512 118.224 99.9725C119.751 97.7311 121.978 97.7142 123.914 97.4697C127.48 97.0195 132.893 100.662 135.17 103.1C133.784 98.5669 126.576 94.7954 122.317 95.8537C118.058 96.9121 117.897 95.8494 117.356 95.0185C117.445 96.5129 117.689 97.8526 119.999 97.058C119.156 98.0254 117.684 99.9044 115.928 99.0172C114.173 98.13 113.614 97.717 113.504 97.6984C116.106 99.9853 116.905 100.12 117.17 100.165C117.501 100.22 117.623 101.521 117.833 102.296C118.043 103.071 118.781 104.304 120.312 105.302Z" fill="#060107"/>
<circle cx="130.765" cy="100.527" r="0.530017" transform="rotate(9.55715 130.765 100.527)" fill="white"/>
<path d="M155.729 106.301C155.061 104.182 154.117 104.444 153.032 103.573C152.17 102.881 149.695 104.215 148.511 104.73C147.727 105.226 147.223 107.775 147.101 108.416C146.978 109.057 148.585 110.902 150.14 111.198C151.694 111.495 152.811 111.278 153.624 110.769C154.436 110.26 156.397 108.421 155.729 106.301Z" fill="#EDF1FA"/>
<path d="M149.96 103.87C147.84 104.93 148.369 110.23 151.55 110.76C154.73 111.29 155.262 108.957 155.79 105.99C155.729 104.5 152.08 102.81 149.96 103.87Z" fill="url(#paint10_linear_518_4414)"/>
<ellipse cx="152.08" cy="105.46" rx="1.59005" ry="2.12007" fill="#14080E"/>
<path d="M153.62 110.792C154.745 110.15 155.644 108.735 155.8 107.605C155.55 105.748 154.812 104.884 153.926 104.302C152.294 103.229 148.771 104.807 147.433 105.535C148.814 103.925 152.88 102.281 154.716 103.917C156.551 105.553 156.862 104.862 157.306 104.412C156.936 105.412 156.827 105.508 155.577 105.236C155.774 106.076 156.153 107.629 157.199 107.401C158.245 107.172 158.531 107.055 158.589 107.066C157.431 107.916 156.408 107.988 156.27 107.962C156.097 107.929 155.753 108.79 155.481 109.274C155.21 109.757 154.582 110.44 153.62 110.792Z" fill="#060107"/>
<circle cx="0.530017" cy="0.530017" r="0.530017" transform="matrix(-0.982236 -0.187649 -0.187649 0.982236 154.297 104.625)" fill="white"/>
<path d="M146.24 107.263C145.445 111.428 148.927 115.688 150.211 116.001C151.496 116.315 151.463 122.29 144.918 122.659" stroke="#401109" stroke-width="0.746503" stroke-linecap="round"/>
<path d="M129.325 85.9353C144.135 78.4286 144.292 67.2613 142.52 62.616C145.401 47.5331 122.287 51.1506 106.325 59.1211C90.4209 67.0622 93.0204 80.453 96.2935 97.3133L96.3299 97.5009C99.5108 113.887 110.832 123.063 105.547 112.933C100.262 102.803 110.812 95.3186 129.325 85.9353Z" fill="url(#paint11_linear_518_4414)"/>
<path d="M115.129 94.8509C129.329 82.7744 135.539 88.4026 136.87 92.7263C129.019 88.7834 130.186 90.2396 125.931 90.303C123.82 90.3344 117.855 93.2389 115.129 94.8509Z" fill="#28111B"/>
<path d="M148.796 96.5233C152.105 95.9895 157.739 95.9098 159.223 98.5145C158.879 96.6981 157.134 95.5036 154.649 94.5748C152.165 93.6459 150.161 94.163 148.796 96.5233Z" fill="#28111B"/>
<path d="M138.316 120.489C140.646 119.933 142.187 120.402 142.518 121.091C142.403 121.694 141.647 121.808 141.177 120.835C141.017 120.502 138.951 120.61 138.316 120.489Z" fill="#3A2323"/>
<path d="M137.136 131.677C142.044 132.936 143.085 131.961 145.285 131.228C142.665 133.008 141.102 136.714 138.228 136.34C133.526 135.728 130.809 133.403 126.221 127.586C128.35 128.373 134.501 131 137.136 131.677Z" fill="#AB4C53"/>
<circle cx="145.884" cy="118.747" r="0.746503" transform="rotate(10.8156 145.884 118.747)" fill="white"/>
<circle cx="113.059" cy="104.849" r="0.530017" fill="#060107"/>
<path d="M136.919 91.3639C144.877 82.4861 146.723 63.0355 139.702 58.4151C143.134 58.3036 149.099 62.9886 151.357 70.4239C154.434 80.5596 149.645 88.2571 146.617 93.7426L136.919 91.3639Z" fill="url(#paint12_linear_518_4414)"/>
<path d="M155.261 100.689C163.142 90.4024 152.55 69.5521 147.268 62.9434C150.168 63.1888 159.975 66.5162 165.966 73.048C171.956 79.5797 167.296 99.4106 164.014 105.979L155.261 100.689Z" fill="url(#paint13_linear_518_4414)"/>
<rect x="222.929" y="20.4294" width="94.7527" height="20.0117" rx="10.0058" fill="#2E075F"/>
<rect x="222.929" y="20.4294" width="94.7527" height="20.0117" rx="10.0058" stroke="#944AF2" stroke-width="0.858811"/>
<path d="M236.51 34.4355H233.521V25.9512H236.545C239.1 25.9512 240.664 27.5391 240.658 30.1816C240.664 32.8359 239.1 34.4355 236.51 34.4355ZM235.279 32.9238H236.439C238.057 32.9238 238.9 32.0859 238.9 30.1816C238.9 28.2949 238.057 27.4629 236.451 27.4629H235.279V32.9238ZM241.596 32.6543C241.602 31.2363 242.738 30.7734 243.963 30.6973C244.42 30.668 245.275 30.627 245.545 30.6152V30.0996C245.539 29.5664 245.176 29.2617 244.525 29.2559C243.934 29.2617 243.564 29.5254 243.471 29.959H241.818C241.924 28.8574 242.885 27.9902 244.572 27.9902C245.961 27.9902 247.273 28.6113 247.268 30.1465V34.4355H245.627V33.5566H245.58C245.27 34.1426 244.66 34.5586 243.717 34.5527C242.498 34.5586 241.602 33.9141 241.596 32.6543ZM243.26 32.6074C243.26 33.0938 243.652 33.3516 244.209 33.3574C245 33.3516 245.551 32.8359 245.545 32.1621V31.6992C245.281 31.7109 244.537 31.752 244.244 31.7754C243.641 31.8281 243.26 32.1152 243.26 32.6074ZM251.943 28.0723V29.373H250.748V32.4785C250.742 32.9883 250.994 33.1113 251.346 33.123C251.521 33.123 251.826 33.1055 252.037 33.0879V34.459C251.85 34.4883 251.539 34.5234 251.111 34.5176C249.857 34.5234 249.002 33.9609 249.014 32.7246V29.373H248.135V28.0723H249.014V26.5488H250.748V28.0723H251.943ZM252.729 32.6543C252.734 31.2363 253.871 30.7734 255.096 30.6973C255.553 30.668 256.408 30.627 256.678 30.6152V30.0996C256.672 29.5664 256.309 29.2617 255.658 29.2559C255.066 29.2617 254.697 29.5254 254.604 29.959H252.951C253.057 28.8574 254.018 27.9902 255.705 27.9902C257.094 27.9902 258.406 28.6113 258.4 30.1465V34.4355H256.76V33.5566H256.713C256.402 34.1426 255.793 34.5586 254.85 34.5527C253.631 34.5586 252.734 33.9141 252.729 32.6543ZM254.393 32.6074C254.393 33.0938 254.785 33.3516 255.342 33.3574C256.133 33.3516 256.684 32.8359 256.678 32.1621V31.6992C256.414 31.7109 255.67 31.752 255.377 31.7754C254.773 31.8281 254.393 32.1152 254.393 32.6074ZM267.131 28.377C267.061 27.7031 266.527 27.3105 265.666 27.3105C264.775 27.3105 264.277 27.7207 264.271 28.2832C264.266 28.8984 264.898 29.1738 265.631 29.3379L266.393 29.5254C267.846 29.8594 268.93 30.5977 268.936 32.0098C268.93 33.5625 267.723 34.5586 265.654 34.5527C263.604 34.5586 262.297 33.6094 262.244 31.7871H263.955C264.014 32.6426 264.693 33.0762 265.631 33.0762C266.557 33.0762 267.154 32.6426 267.154 32.0098C267.154 31.4297 266.627 31.1602 265.701 30.9316L264.775 30.709C263.346 30.3574 262.467 29.6426 262.467 28.4004C262.461 26.8594 263.82 25.834 265.678 25.834C267.559 25.834 268.795 26.877 268.818 28.377H267.131ZM272.908 34.5645C270.957 34.5586 269.785 33.2109 269.791 31.2715C269.785 29.3262 270.98 27.9902 272.908 27.9902C274.549 27.9902 275.662 28.9453 275.732 30.4043H274.104C273.998 29.7773 273.588 29.3438 272.932 29.3379C272.1 29.3438 271.549 30.041 271.549 31.248C271.549 32.4785 272.088 33.1816 272.932 33.1816C273.541 33.1816 273.992 32.8008 274.104 32.127H275.732C275.656 33.5684 274.596 34.5586 272.908 34.5645ZM276.811 34.4355V28.0723H278.545V34.4355H276.811ZM276.729 26.3613C276.729 25.8691 277.156 25.4766 277.678 25.4707C278.193 25.4766 278.621 25.8691 278.615 26.3613C278.621 26.8418 278.193 27.2402 277.678 27.2402C277.156 27.2402 276.729 26.8418 276.729 26.3613ZM282.775 34.5645C280.824 34.5586 279.629 33.2988 279.635 31.2832C279.629 29.3203 280.842 27.9902 282.705 27.9902C284.375 27.9902 285.693 29.0449 285.693 31.2129V31.7051H281.346C281.346 32.666 281.914 33.2578 282.811 33.2637C283.402 33.2578 283.824 33 283.994 32.6191H285.646C285.4 33.7969 284.346 34.5586 282.775 34.5645ZM281.346 30.6152H284.053C284.047 29.8418 283.514 29.2852 282.74 29.291C281.943 29.2852 281.381 29.8828 281.346 30.6152ZM288.518 30.7559V34.4355H286.783V28.0723H288.436V29.1855H288.506C288.793 28.4531 289.473 27.9902 290.416 27.9902C291.746 27.9902 292.613 28.8984 292.607 30.3809V34.4355H290.885V30.6855C290.879 29.9004 290.457 29.4316 289.736 29.4316C289.016 29.4316 288.518 29.918 288.518 30.7559ZM297.307 28.0723V29.373H296.111V32.4785C296.105 32.9883 296.357 33.1113 296.709 33.123C296.885 33.123 297.189 33.1055 297.4 33.0879V34.459C297.213 34.4883 296.902 34.5234 296.475 34.5176C295.221 34.5234 294.365 33.9609 294.377 32.7246V29.373H293.498V28.0723H294.377V26.5488H296.111V28.0723H297.307ZM298.396 34.4355V28.0723H300.131V34.4355H298.396ZM298.314 26.3613C298.314 25.8691 298.742 25.4766 299.264 25.4707C299.779 25.4766 300.207 25.8691 300.201 26.3613C300.207 26.8418 299.779 27.2402 299.264 27.2402C298.742 27.2402 298.314 26.8418 298.314 26.3613ZM305.111 29.959C305.035 29.5137 304.648 29.2266 304.068 29.2207C303.506 29.2266 303.078 29.4902 303.084 29.877C303.078 30.1641 303.301 30.3867 303.904 30.5098L305.041 30.7441C306.277 31.002 306.875 31.5527 306.881 32.4668C306.875 33.7207 305.75 34.5586 304.057 34.5645C302.34 34.5586 301.332 33.791 301.186 32.5488H302.932C303.014 33.0469 303.418 33.3047 304.057 33.3105C304.689 33.3047 305.111 33.0527 305.111 32.6426C305.111 32.3145 304.842 32.1094 304.244 31.9863L303.189 31.7754C301.977 31.5352 301.355 30.9141 301.361 29.9707C301.355 28.752 302.404 27.9902 304.045 27.9902C305.65 27.9902 306.646 28.752 306.74 29.959H305.111Z" fill="#ECECF8"/>
<path d="M241.016 56.6982V78.0732H238.039V56.6982H241.016ZM224.258 60.8936V58.4795H234.406V66.7061H227.375V70.6201C230.633 70.5967 233.387 70.4326 236.516 69.917L236.773 72.3311C233.27 72.9521 230.094 73.0811 226.203 73.0811H224.281V64.3389H231.359V60.8936H224.258ZM249.617 58.1982C252.875 58.1982 255.23 61.1396 255.242 65.792C255.23 70.4795 252.875 73.4092 249.617 73.4092C246.348 73.4092 243.98 70.4795 243.992 65.792C243.98 61.1396 246.348 58.1982 249.617 58.1982ZM246.875 65.792C246.875 68.9678 247.988 70.7021 249.617 70.6904C251.281 70.7021 252.371 68.9678 252.383 65.792C252.371 62.6279 251.281 60.8936 249.617 60.8936C247.988 60.8936 246.875 62.6279 246.875 65.792ZM257.703 78.0264V56.6982H260.703V64.7373H263.844V67.2217H260.703V78.0264H257.703Z" fill="#ECECF8"/>
<path d="M234.25 96.6514V101.651H230.391V103.011H235.891V104.62H222.922V103.011H228.391V101.651H224.531V96.6514H234.25ZM224.359 107.229V105.667H234.312V110.308H232.328V107.229H224.359ZM226.484 100.089H232.297V98.1982H226.484V100.089ZM249.766 107.136V108.729H236.75V107.136H239.984V104.433H237.828V102.823H239.734V98.8232H237.766V97.2295H248.672V98.8232H246.672V102.823H248.609V104.433H246.469V107.136H249.766ZM241.734 102.823H244.703V98.8232H241.734V102.823ZM241.984 107.136H244.469V104.433H241.984V107.136Z" fill="#ECECF8" fill-opacity="0.5"/>
<path d="M233.656 118.504V130.945H231.975V118.504H233.656ZM223.252 128.17V119.912H228.01V121.307H224.961V126.728C226.287 126.714 227.299 126.639 228.461 126.406L228.598 127.828C227.189 128.108 225.938 128.17 224.113 128.17H223.252ZM227.162 124.465V123.043H229.391V118.723H231.018V130.385H229.391V124.465H227.162ZM245.387 118.504V130.973H243.623V118.504H245.387ZM235.338 123.809C235.331 121.095 236.719 119.379 238.633 119.379C240.506 119.379 241.9 121.095 241.9 123.809C241.9 126.543 240.506 128.252 238.633 128.252C236.719 128.252 235.331 126.543 235.338 123.809ZM237.02 123.809C237.013 125.661 237.662 126.673 238.633 126.666C239.576 126.673 240.212 125.661 240.219 123.809C240.212 121.963 239.576 120.951 238.633 120.951C237.662 120.951 237.013 121.963 237.02 123.809ZM257.568 118.504V130.973H255.846V124.301H253.658V122.893H255.846V118.504H257.568ZM247.643 128.156V119.543H253.453V120.951H249.379V123.016H253.002V124.383H249.379V126.734C251.108 126.721 252.489 126.659 254.027 126.42L254.205 127.814C252.387 128.088 250.76 128.149 248.627 128.156H247.643ZM270.543 124.082V125.381H259.154V124.082H270.543ZM260.453 127.199V125.996H269.176V128.936H262.203V129.646H269.545V130.836H260.467V127.828H267.453V127.199H260.453ZM260.549 119.912V118.723H269.162V121.648H262.312V122.318H269.381V123.494H260.576V120.541H267.412V119.912H260.549ZM285.869 124.889V126.256H281.18V128.266H279.457V126.256H274.48V124.889H285.869ZM275.82 130.727V127.281H277.543V129.332H284.611V130.727H275.82ZM275.943 124.014V118.9H277.666V120.199H282.656V118.9H284.393V124.014H275.943ZM277.666 122.633H282.656V121.498H277.666V122.633ZM291.256 120.445C291.249 121.997 292.117 123.501 294.086 124.123L293.156 125.504C291.823 125.053 290.907 124.157 290.381 123.029C289.834 124.26 288.856 125.224 287.455 125.723L286.512 124.328C288.597 123.665 289.485 122.038 289.492 120.336V119.146H291.256V120.445ZM288.535 127.855V126.475H297.08V130.945H295.344V127.855H288.535ZM293.006 122.25V120.814H295.344V118.504H297.08V125.914H295.344V122.25H293.006ZM308.51 118.504V123.371H310.342V124.807H308.51V130.945H306.787V118.504H308.51ZM298.625 121.758V120.363H301.441V118.695H303.191V120.363H305.939V121.758H298.625ZM299.131 125.422C299.124 123.686 300.478 122.448 302.316 122.455C304.128 122.448 305.488 123.686 305.488 125.422C305.488 127.158 304.128 128.382 302.316 128.389C300.478 128.382 299.124 127.158 299.131 125.422ZM300.799 125.422C300.799 126.386 301.435 126.96 302.316 126.953C303.185 126.96 303.82 126.386 303.82 125.422C303.82 124.465 303.185 123.877 302.316 123.863C301.435 123.877 300.799 124.465 300.799 125.422ZM321.047 119.584V120.76C321.04 122.318 321.04 124.068 320.541 126.707L318.791 126.529C319.27 124.178 319.29 122.428 319.297 120.965H311.969V119.584H321.047ZM310.793 129.428V128.006H314.854V123.727H316.59V128.006H322.141V129.428H310.793ZM334.281 128.061V129.496H322.893V128.061H327.691V125.518H324.096V119.42H333.01V125.518H329.428V128.061H334.281ZM325.818 124.15H331.287V120.814H325.818V124.15ZM345.752 118.518V125.025H344.098V118.518H345.752ZM335.525 124.711V119.105H340.379V120.473H337.262V123.33C338.649 123.316 339.613 123.269 340.734 123.084L340.844 124.465C339.49 124.677 338.342 124.711 336.387 124.711H335.525ZM337.166 126.789V125.422H345.752V128.73H338.916V129.441H346.121V130.809H337.18V127.432H344.043V126.789H337.166ZM339.654 122.428V121.115H341.609V118.723H343.25V124.971H341.609V122.428H339.654ZM352.766 118.682C355.63 118.682 357.284 119.434 357.291 120.801C357.284 122.188 355.63 122.934 352.766 122.934C349.895 122.934 348.227 122.188 348.227 120.801C348.227 119.434 349.895 118.682 352.766 118.682ZM347.092 124.902V123.521H358.439V124.902H347.092ZM348.404 126.898V125.627H357.059V128.799H350.127V129.551H357.387V130.863H348.418V127.582H355.336V126.898H348.404ZM350.059 120.801C350.052 121.409 350.94 121.648 352.766 121.648C354.604 121.648 355.486 121.409 355.486 120.801C355.486 120.247 354.604 119.953 352.766 119.953C350.94 119.953 350.052 120.247 350.059 120.801ZM368.762 119.529V125.504H362.787V119.529H368.762ZM364.223 130.727V126.693H365.959V129.332H372.74V130.727H364.223ZM364.51 124.137H367.039V120.924H364.51V124.137ZM370.539 127.582V118.504H372.289V122.086H373.971V123.521H372.289V127.582H370.539ZM234.244 141.904V143.299H222.869V141.904H234.244ZM224.236 148.768V143.982H225.945V145.008H231.1V143.982H232.85V148.768H224.236ZM224.25 141.043V136.805H232.877V138.24H225.986V139.648H233V141.043H224.25ZM225.945 147.373H231.1V146.348H225.945V147.373ZM245.428 136.504V148.945H243.691V136.504H245.428ZM235.639 145.869V137.693H237.361V144.386C239.043 144.358 240.848 144.201 242.68 143.846L242.898 145.281C240.718 145.739 238.653 145.876 236.732 145.869H235.639ZM256.885 136.504V141.125H258.717V142.547H256.885V148.973H255.135V136.504H256.885ZM247.561 145.951V137.652H253.398V139.061H249.297V144.516C251.102 144.502 252.592 144.406 254.246 144.119L254.438 145.582C252.503 145.91 250.808 145.958 248.613 145.951H247.561ZM260.781 147.811C260.139 147.811 259.619 147.298 259.633 146.662C259.619 146.033 260.139 145.521 260.781 145.527C261.39 145.521 261.916 146.033 261.916 146.662C261.916 147.298 261.39 147.811 260.781 147.811ZM276.477 141.85V143.23H271.965V137.543H276.381V138.938H273.715V141.85H276.477ZM265.895 147.496V146.088H270.68V143.777H272.402V146.088H277.283V147.496H265.895ZM266.77 143.23V137.543H271.186V138.938H268.52V141.815C269.497 141.788 270.338 141.713 271.268 141.535L271.391 142.957C270.126 143.217 269.046 143.237 267.562 143.23H266.77ZM287.865 136.518V140.332H289.547V141.754H287.865V145.801H286.115V136.518H287.865ZM277.994 139.197V137.816H280.824V136.49H282.561V137.816H285.377V139.197H277.994ZM278.596 142.041C278.596 140.599 279.874 139.635 281.686 139.635C283.49 139.635 284.748 140.599 284.748 142.041C284.748 143.477 283.49 144.42 281.686 144.42C279.874 144.42 278.596 143.477 278.596 142.041ZM279.799 148.727V145.09H281.535V147.332H288.316V148.727H279.799ZM280.305 142.041C280.298 142.725 280.852 143.094 281.686 143.094C282.526 143.094 283.094 142.725 283.094 142.041C283.094 141.351 282.526 140.968 281.686 140.961C280.852 140.968 280.298 141.351 280.305 142.041ZM299.664 137.529V143.504H293.689V137.529H299.664ZM295.125 148.727V144.693H296.861V147.332H303.643V148.727H295.125ZM295.412 142.137H297.941V138.924H295.412V142.137ZM301.441 145.582V136.504H303.191V140.086H304.873V141.521H303.191V145.582H301.441ZM316.795 141.357V142.725H305.42V141.357H316.795ZM306.732 144.775V143.463H315.387V146.717H308.455V147.482H315.715V148.836H306.746V145.473H313.664V144.775H306.732ZM306.842 140.674V136.75H315.346V138.145H308.578V139.307H315.441V140.674H306.842ZM320.951 137.379C322.633 137.379 323.891 138.76 324.137 141.002H326.297V136.504H328.02V148.973H326.297V142.396H324.157C323.973 144.789 322.688 146.252 320.951 146.252C319.064 146.252 317.711 144.543 317.725 141.809C317.711 139.095 319.064 137.379 320.951 137.379ZM319.393 141.809C319.386 143.661 320.021 144.673 320.951 144.666C321.888 144.673 322.51 143.661 322.51 141.809C322.51 139.963 321.888 138.951 320.951 138.951C320.021 138.951 319.386 139.963 319.393 141.809ZM334.473 138.965C334.466 140.448 335.396 141.966 337.439 142.588L336.551 143.955C335.156 143.511 334.179 142.615 333.618 141.494C333.051 142.725 332.039 143.702 330.576 144.188L329.674 142.82C331.745 142.157 332.695 140.537 332.695 138.965V138.787H330.139V137.393H336.975V138.787H334.473V138.965ZM331.697 148.727V144.693H333.461V147.332H340.365V148.727H331.697ZM338.287 145.514V136.518H340.037V145.514H338.287ZM356.334 146.061V147.496H344.945V146.061H349.744V143.518H346.148V137.42H355.062V143.518H351.48V146.061H356.334ZM347.871 142.15H353.34V138.814H347.871V142.15ZM367.805 136.518V143.025H366.15V136.518H367.805ZM357.578 142.711V137.105H362.432V138.473H359.314V141.33C360.702 141.316 361.666 141.269 362.787 141.084L362.896 142.465C361.543 142.677 360.395 142.711 358.439 142.711H357.578ZM359.219 144.789V143.422H367.805V146.73H360.969V147.441H368.174V148.809H359.232V145.432H366.096V144.789H359.219ZM361.707 140.428V139.115H363.662V136.723H365.303V142.971H363.662V140.428H361.707ZM374.818 136.682C377.683 136.682 379.337 137.434 379.344 138.801C379.337 140.188 377.683 140.934 374.818 140.934C371.947 140.934 370.279 140.188 370.279 138.801C370.279 137.434 371.947 136.682 374.818 136.682ZM369.145 142.902V141.521H380.492V142.902H369.145ZM370.457 144.898V143.627H379.111V146.799H372.18V147.551H379.439V148.863H370.471V145.582H377.389V144.898H370.457ZM372.111 138.801C372.104 139.409 372.993 139.648 374.818 139.648C376.657 139.648 377.539 139.409 377.539 138.801C377.539 138.247 376.657 137.953 374.818 137.953C372.993 137.953 372.104 138.247 372.111 138.801ZM233.287 154.518V163.459H231.537V154.518H233.287ZM223.061 158.441C223.061 156.616 224.551 155.304 226.465 155.311C228.372 155.304 229.862 156.616 229.869 158.441C229.862 160.294 228.372 161.6 226.465 161.6C224.551 161.6 223.061 160.294 223.061 158.441ZM224.77 158.441C224.756 159.48 225.487 160.082 226.465 160.082C227.408 160.082 228.14 159.48 228.146 158.441C228.14 157.43 227.408 156.821 226.465 156.828C225.487 156.821 224.756 157.43 224.77 158.441ZM224.947 166.727V162.557H226.711V165.332H233.615V166.727H224.947ZM246.357 164.047V165.496H234.969V164.047H246.357ZM235.857 156.992V155.598H245.4V156.992H243.65V160.766H245.346V162.133H235.912V160.766H237.58V156.992H235.857ZM239.33 160.766H241.928V156.992H239.33V160.766ZM256.885 154.504V159.207H258.717V160.643H256.885V166.973H255.162V154.504H256.885ZM247.574 156.951V155.543H253.33V160.369H249.324V162.625C251.136 162.618 252.633 162.536 254.287 162.256L254.438 163.65C252.537 163.999 250.828 164.074 248.641 164.074H247.588V158.988H251.594V156.951H247.574ZM267.221 157.895C267.214 159.904 268.253 162.058 270.338 162.926L269.395 164.293C267.932 163.671 266.92 162.434 266.359 160.93C265.799 162.563 264.767 163.931 263.297 164.607L262.299 163.227C264.363 162.304 265.43 160 265.43 157.895V157.129H262.791V155.707H269.818V157.129H267.221V157.895ZM271.049 166.945V154.504H272.812V166.945H271.049ZM279.266 156.268C279.252 157.819 280.141 159.33 282.191 159.945L281.316 161.312C279.901 160.861 278.917 159.973 278.363 158.838C277.803 160.062 276.791 161.032 275.328 161.504L274.453 160.137C276.531 159.474 277.447 157.854 277.447 156.268V155.078H279.266V156.268ZM276.354 163.855V162.461H284.912V166.945H283.162V163.855H276.354ZM283.162 161.928V154.504H284.912V161.928H283.162ZM289.588 161.777V163.021H290.928V161.777H292.541V165.558C293.922 164.929 294.51 163.767 294.51 162.639V161.682H296.26V162.639C296.253 163.91 296.861 165.113 298.42 165.619L297.518 166.918C296.444 166.549 295.754 165.838 295.357 164.942C294.947 165.811 294.264 166.528 293.252 166.918L292.541 165.845V166.809H287.975V161.777H289.588ZM286.758 157.895C286.744 156.186 288.152 154.976 290.066 154.969C291.646 154.976 292.91 155.851 293.252 157.17H295.344V154.504H297.08V161.094H295.344V158.605H293.259C292.924 159.952 291.652 160.848 290.066 160.848C288.152 160.848 286.744 159.631 286.758 157.895ZM288.412 157.895C288.405 158.838 289.089 159.419 290.066 159.426C291.01 159.419 291.687 158.838 291.693 157.895C291.687 156.979 291.01 156.411 290.066 156.404C289.089 156.411 288.405 156.979 288.412 157.895ZM289.588 165.482H290.928V164.307H289.588V165.482ZM309.111 154.504V166.973H307.348V154.504H309.111ZM299.062 159.809C299.056 157.095 300.443 155.379 302.357 155.379C304.23 155.379 305.625 157.095 305.625 159.809C305.625 162.543 304.23 164.252 302.357 164.252C300.443 164.252 299.056 162.543 299.062 159.809ZM300.744 159.809C300.737 161.661 301.387 162.673 302.357 162.666C303.301 162.673 303.937 161.661 303.943 159.809C303.937 157.963 303.301 156.951 302.357 156.951C301.387 156.951 300.737 157.963 300.744 159.809ZM316.016 155.611V158.414H317.711V155.611H319.324V163.992H314.375V155.611H316.016ZM316.016 162.598H317.711V159.781H316.016V162.598ZM320.363 166.371V154.682H322.018V159.248H323.139V154.504H324.807V166.945H323.139V160.67H322.018V166.371H320.363ZM337.508 164.102V165.564H326.119V164.102H330.904V161.859H327.062V160.492H328.73V156.938H327.008V155.543H336.551V156.938H334.801V160.492H336.496V161.859H332.641V164.102H337.508ZM330.48 160.492H333.078V156.938H330.48V160.492ZM340.844 164.676L339.668 168.572H338.219L338.902 164.676H340.844ZM346.941 157.32C346.948 159.658 347.892 161.935 349.963 162.83L348.896 164.225C347.516 163.555 346.586 162.311 346.066 160.772C345.533 162.406 344.576 163.746 343.154 164.443L342.061 163.021C344.193 162.058 345.164 159.658 345.178 157.32V155.461H346.941V157.32ZM348.568 159.822V158.414H351.016V154.504H352.738V166.973H351.016V159.822H348.568ZM356.689 155.256V156.896H359.301V155.256H361.037V161.162H354.967V155.256H356.689ZM356.238 164.566C356.231 163.042 357.872 162.153 360.518 162.146C363.149 162.153 364.783 163.042 364.797 164.566C364.783 166.077 363.149 166.952 360.518 166.945C357.872 166.952 356.231 166.077 356.238 164.566ZM356.689 159.781H359.301V158.236H356.689V159.781ZM357.988 164.566C357.988 165.243 358.843 165.619 360.518 165.619C362.179 165.619 363.067 165.243 363.074 164.566C363.067 163.835 362.179 163.479 360.518 163.486C358.843 163.479 357.988 163.835 357.988 164.566ZM363.006 161.955V154.518H364.756V161.955H363.006ZM376.254 154.504V159.371H378.086V160.807H376.254V166.945H374.531V154.504H376.254ZM366.369 157.758V156.363H369.186V154.695H370.936V156.363H373.684V157.758H366.369ZM366.875 161.422C366.868 159.686 368.222 158.448 370.061 158.455C371.872 158.448 373.232 159.686 373.232 161.422C373.232 163.158 371.872 164.382 370.061 164.389C368.222 164.382 366.868 163.158 366.875 161.422ZM368.543 161.422C368.543 162.386 369.179 162.96 370.061 162.953C370.929 162.96 371.564 162.386 371.564 161.422C371.564 160.465 370.929 159.877 370.061 159.863C369.179 159.877 368.543 160.465 368.543 161.422ZM233.123 173.584V174.76C233.116 176.318 233.116 178.068 232.617 180.707L230.867 180.529C231.346 178.178 231.366 176.428 231.373 174.965H224.045V173.584H233.123ZM222.869 183.428V182.006H226.93V177.727H228.666V182.006H234.217V183.428H222.869ZM248.613 172.518V179.408H246.863V172.518H248.613ZM238.154 177.863C240.232 177.234 241.148 175.683 241.148 174.145V172.941H242.967V174.145C242.953 175.621 243.855 177.084 245.893 177.645L245.059 179.025C243.623 178.602 242.632 177.74 242.064 176.626C241.497 177.829 240.479 178.779 238.988 179.23L238.154 177.863ZM240.027 184.809V183.414H241.641V181.35H240.137V179.969H248.682V181.35H247.191V183.414H248.791V184.809H240.027ZM243.363 183.414H245.469V181.35H243.363V183.414ZM253.344 179.969V181.021H258.471V179.969H260.207V184.809H251.621V179.969H253.344ZM250.295 179.34V177.932H261.643V179.34H250.295ZM250.855 176.018C253.631 175.683 255.066 174.329 255.08 173.051V172.627H256.871V173.051C256.871 174.295 258.3 175.703 261.082 176.018L260.467 177.385C258.327 177.111 256.769 176.223 255.969 175.02C255.162 176.223 253.604 177.111 251.484 177.385L250.855 176.018ZM253.344 183.441H258.471V182.348H253.344V183.441ZM272.854 172.504V184.945H271.117V172.504H272.854ZM263.064 181.869V173.693H264.787V180.386C266.469 180.358 268.273 180.201 270.105 179.846L270.324 181.281C268.144 181.739 266.079 181.876 264.158 181.869H263.064ZM284.311 172.504V177.125H286.143V178.547H284.311V184.973H282.561V172.504H284.311ZM274.986 181.951V173.652H280.824V175.061H276.723V180.516C278.527 180.502 280.018 180.406 281.672 180.119L281.863 181.582C279.929 181.91 278.233 181.958 276.039 181.951H274.986ZM288.207 183.811C287.564 183.811 287.045 183.298 287.059 182.662C287.045 182.033 287.564 181.521 288.207 181.527C288.815 181.521 289.342 182.033 289.342 182.662C289.342 183.298 288.815 183.811 288.207 183.811Z" fill="#ECECF8"/>
<path d="M20.3867 267.969V266.516H27.3359V267.969H24.7344V275H22.9883V267.969H20.3867ZM30.3477 275.129C28.3965 275.123 27.2012 273.863 27.207 271.848C27.2012 269.885 28.4141 268.555 30.2773 268.555C31.9473 268.555 33.2656 269.609 33.2656 271.777V272.27H28.918C28.918 273.23 29.4863 273.822 30.3828 273.828C30.9746 273.822 31.3965 273.564 31.5664 273.184H33.2188C32.9727 274.361 31.918 275.123 30.3477 275.129ZM28.918 271.18H31.625C31.6191 270.406 31.0859 269.85 30.3125 269.855C29.5156 269.85 28.9531 270.447 28.918 271.18ZM37.2148 275.129C35.2637 275.123 34.0918 273.775 34.0977 271.836C34.0918 269.891 35.2871 268.555 37.2148 268.555C38.8555 268.555 39.9688 269.51 40.0391 270.969H38.4102C38.3047 270.342 37.8945 269.908 37.2383 269.902C36.4062 269.908 35.8555 270.605 35.8555 271.812C35.8555 273.043 36.3945 273.746 37.2383 273.746C37.8477 273.746 38.2988 273.365 38.4102 272.691H40.0391C39.9629 274.133 38.9023 275.123 37.2148 275.129ZM42.8516 271.32V275H41.1172V266.516H42.8047V269.75H42.875C43.168 269.006 43.8066 268.555 44.7734 268.555C46.1035 268.555 46.9766 269.451 46.9766 270.945V275H45.2422V271.25C45.2422 270.459 44.8203 269.996 44.0938 269.996C43.3613 269.996 42.8516 270.482 42.8516 271.32Z" fill="#ECECF8" fill-opacity="0.5"/>
<path d="M20.9375 287.516H22.2031L25.0625 294.5H25.168L28.0273 287.516H29.293V296H28.2969V289.59H28.2148L25.5781 296H24.6406L22.0039 289.59H21.9336V296H20.9375V287.516ZM31.168 296V287.516H32.2227V295.062H36.1602V296H31.168ZM45.9805 286.531V296.949H45.0898V286.531H45.9805ZM37.1797 291.031C37.1855 288.816 38.0645 287.416 39.418 287.41C40.6836 287.416 41.5391 288.635 41.6562 290.598H43.0039V286.754H43.8828V296.422H43.0039V291.359H41.6621C41.5742 293.387 40.7012 294.658 39.418 294.652C38.0645 294.658 37.1855 293.246 37.1797 291.031ZM38.0469 291.031C38.0352 292.719 38.5742 293.785 39.418 293.773C40.2676 293.785 40.8066 292.719 40.8008 291.031C40.8066 289.338 40.2676 288.277 39.418 288.277C38.5742 288.277 38.0352 289.338 38.0469 291.031ZM59.3398 286.531V296.949H58.4609V291.488H56.9258V296.41H56.082V286.766H56.9258V290.727H58.4609V286.531H59.3398ZM50.8203 294.371V287.809H54.7227V288.57H51.7344V293.586C53.1699 293.58 54.1602 293.527 55.3203 293.293L55.4023 294.066C54.1484 294.324 53.0879 294.365 51.4883 294.371H50.8203ZM68.9492 286.543V289.977H70.5195V290.75H68.9492V294.348H68.0352V286.543H68.9492ZM60.8281 288.57V287.82H63.4766V286.543H64.3906V287.82H67.0391V288.57H60.8281ZM61.4258 291.09C61.4199 289.906 62.4277 289.145 63.9336 289.145C65.4219 289.145 66.4297 289.906 66.4414 291.09C66.4297 292.262 65.4219 293.018 63.9336 293.012C62.4277 293.018 61.4199 292.262 61.4258 291.09ZM62.3047 291.09C62.2988 291.822 62.9492 292.297 63.9336 292.285C64.9062 292.297 65.5625 291.822 65.5742 291.09C65.5625 290.346 64.9062 289.865 63.9336 289.871C62.9492 289.865 62.2988 290.346 62.3047 291.09ZM62.4336 296.727V293.727H63.3359V295.953H69.4297V296.727H62.4336ZM82.8008 286.531V296.949H81.875V286.531H82.8008ZM74.3164 294.242C77.1348 292.906 78.5762 290.908 78.7812 288.418H74.7969V287.668H79.7188C79.707 290.662 78.3125 293.316 74.8203 294.992L74.3164 294.242ZM89.7852 286.988C89.7793 288.283 91.6602 289.279 93.5352 289.508L93.207 290.211C91.5664 289.988 89.9609 289.256 89.3047 288.131C88.6367 289.256 87.0254 289.988 85.4023 290.211L85.0859 289.508C86.9551 289.279 88.8359 288.283 88.8359 286.988V286.59H89.7852V286.988ZM84.5586 291.641V290.891H94.0508V291.641H89.75V292.684H92.832V295.051H86.6445V296.105H93.1484V296.832H85.7305V294.359H91.9297V293.41H85.707V292.684H88.8359V291.641H84.5586ZM103.168 287.164C103.162 288.482 105.061 289.654 106.895 289.918L106.531 290.633C104.938 290.381 103.355 289.549 102.693 288.371C102.031 289.555 100.443 290.381 98.8438 290.633L98.4922 289.918C100.338 289.654 102.219 288.506 102.219 287.164V286.672H103.168V287.164ZM97.9414 292.227V291.465H107.434V292.227H103.133V293.562H106.262V296.949H105.336V294.312H98.9961V293.562H102.23V292.227H97.9414ZM113.258 287.281V290.316H109.672V292.039C111.576 292.039 112.625 291.992 113.891 291.77L113.984 292.531C112.625 292.766 111.535 292.801 109.496 292.801H108.746V289.59H112.32V288.031H108.723V287.281H113.258ZM110.176 296.668V293.645H111.102V295.906H117.266V296.668H110.176ZM113.961 291.395V290.633H116.023V289.051H113.961V288.301H116.023V286.543H116.949V294.207H116.023V291.395H113.961ZM127.098 291.418V292.168H123.875V294.863H128.223V295.637H118.684V294.863H122.973V292.168H119.902V287.387H126.992V288.137H120.828V291.418H127.098Z" fill="#ECECF8"/>
<circle cx="271" cy="292" r="6" fill="#944AF2"/>
<circle cx="295" cy="292" r="6" fill="#944AF2"/>
<circle cx="319" cy="292" r="6" fill="#944AF2"/>
<circle cx="343" cy="292" r="6" fill="#ECECF8" fill-opacity="0.3"/>
<circle cx="367" cy="292" r="6" fill="#ECECF8" fill-opacity="0.3"/>
<path d="M28.1094 311.758C28.1152 314.441 26.5332 316.117 24.3594 316.117C22.1797 316.117 20.6035 314.441 20.6094 311.758C20.6035 309.074 22.1797 307.398 24.3594 307.398C26.5332 307.398 28.1152 309.074 28.1094 311.758ZM21.6289 311.758C21.6348 313.943 22.8242 315.127 24.3594 315.133C25.8945 315.127 27.084 313.943 27.0898 311.758C27.084 309.566 25.8945 308.383 24.3594 308.383C22.8242 308.383 21.6348 309.566 21.6289 311.758ZM29.5273 318.391V309.637H30.5V310.645H30.6172C30.834 310.305 31.2207 309.555 32.457 309.555C34.0566 309.555 35.1641 310.82 35.1641 312.836C35.1641 314.857 34.0566 316.135 32.4688 316.129C31.2559 316.135 30.834 315.379 30.6172 315.027H30.5352V318.391H29.5273ZM30.5117 312.812C30.5176 314.242 31.1562 315.227 32.3281 315.227C33.5352 315.227 34.1562 314.166 34.1562 312.812C34.1562 311.482 33.5527 310.457 32.3281 310.457C31.1387 310.457 30.5176 311.4 30.5117 312.812ZM40.0156 311.289C39.875 310.762 39.4707 310.416 38.7266 310.41C37.9414 310.416 37.3848 310.838 37.3789 311.371C37.3848 311.793 37.7246 312.08 38.4688 312.262L39.418 312.496C40.5547 312.766 41.1113 313.334 41.1172 314.219C41.1113 315.32 40.2148 316.135 38.6211 316.129C37.1914 316.135 36.3418 315.496 36.1719 314.336H37.2266C37.3438 314.957 37.7949 315.256 38.5977 315.25C39.5059 315.256 40.0742 314.875 40.0742 314.277C40.0742 313.826 39.752 313.533 39.0312 313.363L38.0703 313.141C36.9629 312.883 36.3711 312.279 36.3711 311.43C36.3711 310.34 37.3262 309.555 38.7266 309.555C40.0449 309.555 40.8711 310.258 41 311.289H40.0156ZM50.9727 306.531V316.949H50.082V306.531H50.9727ZM42.1719 311.031C42.1777 308.816 43.0566 307.416 44.4102 307.41C45.6758 307.416 46.5312 308.635 46.6484 310.598H47.9961V306.754H48.875V316.422H47.9961V311.359H46.6543C46.5664 313.387 45.6934 314.658 44.4102 314.652C43.0566 314.658 42.1777 313.246 42.1719 311.031ZM43.0391 311.031C43.0273 312.719 43.5664 313.785 44.4102 313.773C45.2598 313.785 45.7988 312.719 45.793 311.031C45.7988 309.338 45.2598 308.277 44.4102 308.277C43.5664 308.277 43.0273 309.338 43.0391 311.031ZM64.332 306.531V316.949H63.4531V311.488H61.918V316.41H61.0742V306.766H61.918V310.727H63.4531V306.531H64.332ZM55.8125 314.371V307.809H59.7148V308.57H56.7266V313.586C58.1621 313.58 59.1523 313.527 60.3125 313.293L60.3945 314.066C59.1406 314.324 58.0801 314.365 56.4805 314.371H55.8125ZM73.9414 306.543V309.977H75.5117V310.75H73.9414V314.348H73.0273V306.543H73.9414ZM65.8203 308.57V307.82H68.4688V306.543H69.3828V307.82H72.0312V308.57H65.8203ZM66.418 311.09C66.4121 309.906 67.4199 309.145 68.9258 309.145C70.4141 309.145 71.4219 309.906 71.4336 311.09C71.4219 312.262 70.4141 313.018 68.9258 313.012C67.4199 313.018 66.4121 312.262 66.418 311.09ZM67.2969 311.09C67.291 311.822 67.9414 312.297 68.9258 312.285C69.8984 312.297 70.5547 311.822 70.5664 311.09C70.5547 310.346 69.8984 309.865 68.9258 309.871C67.9414 309.865 67.291 310.346 67.2969 311.09ZM67.4258 316.727V313.727H68.3281V315.953H74.4219V316.727H67.4258ZM87.793 306.531V316.949H86.8672V306.531H87.793ZM79.3086 314.242C82.127 312.906 83.5684 310.908 83.7734 308.418H79.7891V307.668H84.7109C84.6992 310.662 83.3047 313.316 79.8125 314.992L79.3086 314.242ZM94.7773 306.988C94.7715 308.283 96.6523 309.279 98.5273 309.508L98.1992 310.211C96.5586 309.988 94.9531 309.256 94.2969 308.131C93.6289 309.256 92.0176 309.988 90.3945 310.211L90.0781 309.508C91.9473 309.279 93.8281 308.283 93.8281 306.988V306.59H94.7773V306.988ZM89.5508 311.641V310.891H99.043V311.641H94.7422V312.684H97.8242V315.051H91.6367V316.105H98.1406V316.832H90.7227V314.359H96.9219V313.41H90.6992V312.684H93.8281V311.641H89.5508ZM108.16 307.164C108.154 308.482 110.053 309.654 111.887 309.918L111.523 310.633C109.93 310.381 108.348 309.549 107.686 308.371C107.023 309.555 105.436 310.381 103.836 310.633L103.484 309.918C105.33 309.654 107.211 308.506 107.211 307.164V306.672H108.16V307.164ZM102.934 312.227V311.465H112.426V312.227H108.125V313.562H111.254V316.949H110.328V314.312H103.988V313.562H107.223V312.227H102.934ZM118.25 307.281V310.316H114.664V312.039C116.568 312.039 117.617 311.992 118.883 311.77L118.977 312.531C117.617 312.766 116.527 312.801 114.488 312.801H113.738V309.59H117.312V308.031H113.715V307.281H118.25ZM115.168 316.668V313.645H116.094V315.906H122.258V316.668H115.168ZM118.953 311.395V310.633H121.016V309.051H118.953V308.301H121.016V306.543H121.941V314.207H121.016V311.395H118.953ZM132.09 311.418V312.168H128.867V314.863H133.215V315.637H123.676V314.863H127.965V312.168H124.895V307.387H131.984V308.137H125.82V311.418H132.09Z" fill="#ECECF8"/>
<circle cx="271" cy="312" r="6" fill="#944AF2"/>
<circle cx="295" cy="312" r="6" fill="#ECECF8" fill-opacity="0.3"/>
<circle cx="319" cy="312" r="6" fill="#ECECF8" fill-opacity="0.3"/>
<circle cx="343" cy="312" r="6" fill="#ECECF8" fill-opacity="0.3"/>
<circle cx="367" cy="312" r="6" fill="#ECECF8" fill-opacity="0.3"/>
</g>
<rect x="0.5" y="0.5" width="404" height="341" rx="19.5" stroke="white" stroke-opacity="0.2"/>
<defs>
<filter id="filter0_f_518_4414" x="132.117" y="103.37" width="20.5604" height="23.782" filterUnits="userSpaceOnUse" color-interpolation-filters="sRGB">
<feFlood flood-opacity="0" result="BackgroundImageFix"/>
<feBlend mode="normal" in="SourceGraphic" in2="BackgroundImageFix" result="shape"/>
<feGaussianBlur stdDeviation="2.12007" result="effect1_foregroundBlur_518_4414"/>
</filter>
<linearGradient id="paint0_linear_518_4414" x1="112.5" y1="20" x2="112.5" y2="220" gradientUnits="userSpaceOnUse">
<stop stop-color="#8371B9"/>
<stop offset="1" stop-opacity="0"/>
</linearGradient>
<linearGradient id="paint1_linear_518_4414" x1="112.336" y1="66.2387" x2="51.3842" y2="179.662" gradientUnits="userSpaceOnUse">
<stop stop-color="#2F2632"/>
<stop offset="0.503343" stop-color="#0C0C0F"/>
<stop offset="0.762152" stop-color="#39447A"/>
<stop offset="1" stop-color="#694795"/>
</linearGradient>
<linearGradient id="paint2_linear_518_4414" x1="113.589" y1="200.333" x2="113.589" y2="221.534" gradientUnits="userSpaceOnUse">
<stop stop-color="#4D3A63"/>
<stop offset="1" stop-color="#17121C"/>
</linearGradient>
<linearGradient id="paint3_linear_518_4414" x1="117.63" y1="133.551" x2="129.821" y2="162.172" gradientUnits="userSpaceOnUse">
<stop stop-color="#AA585E"/>
<stop offset="1" stop-color="#AA585E" stop-opacity="0"/>
</linearGradient>
<linearGradient id="paint4_linear_518_4414" x1="122.428" y1="44.0415" x2="89.3683" y2="97.0768" gradientUnits="userSpaceOnUse">
<stop stop-color="#0C0A0C"/>
<stop offset="0.281029" stop-color="#423445"/>
<stop offset="1" stop-color="#0C0C0E"/>
</linearGradient>
<linearGradient id="paint5_linear_518_4414" x1="149.347" y1="128.629" x2="146.765" y2="142.139" gradientUnits="userSpaceOnUse">
<stop stop-color="#464023"/>
<stop offset="1" stop-color="#9B905C"/>
</linearGradient>
<linearGradient id="paint6_linear_518_4414" x1="149.365" y1="58.2161" x2="137.067" y2="122.587" gradientUnits="userSpaceOnUse">
<stop stop-color="#110B13"/>
<stop offset="1" stop-color="#060107" stop-opacity="0"/>
<stop offset="1" stop-color="#060107"/>
</linearGradient>
<radialGradient id="paint7_radial_518_4414" cx="0" cy="0" r="1" gradientUnits="userSpaceOnUse" gradientTransform="translate(148.687 117.043) rotate(-179.549) scale(57.5608 45.8488)">
<stop stop-color="#D9A49A"/>
<stop offset="1" stop-color="#D67967"/>
</radialGradient>
<linearGradient id="paint8_linear_518_4414" x1="99.4833" y1="124.54" x2="103.849" y2="142.031" gradientUnits="userSpaceOnUse">
<stop offset="0.235389" stop-color="#665E31"/>
<stop offset="1" stop-color="#A79C66"/>
</linearGradient>
<linearGradient id="paint9_linear_518_4414" x1="130.633" y1="96.0485" x2="128.143" y2="110.836" gradientUnits="userSpaceOnUse">
<stop stop-color="#392C11"/>
<stop offset="1" stop-color="#060107"/>
</linearGradient>
<linearGradient id="paint10_linear_518_4414" x1="154.343" y1="103.312" x2="149.955" y2="112.383" gradientUnits="userSpaceOnUse">
<stop offset="0.0001" stop-color="#392C11"/>
<stop offset="1" stop-color="#140817"/>
</linearGradient>
<linearGradient id="paint11_linear_518_4414" x1="133.201" y1="56.8871" x2="101.712" y2="105.911" gradientUnits="userSpaceOnUse">
<stop stop-color="#060107"/>
<stop offset="0.314262" stop-color="#463749"/>
<stop offset="0.631981" stop-color="#2A212D"/>
</linearGradient>
<linearGradient id="paint12_linear_518_4414" x1="143.8" y1="58.282" x2="144.953" y2="93.7966" gradientUnits="userSpaceOnUse">
<stop stop-color="#0D060D"/>
<stop offset="0.421875" stop-color="#413344"/>
<stop offset="1" stop-color="#2B222D"/>
</linearGradient>
<linearGradient id="paint13_linear_518_4414" x1="160.143" y1="65.0242" x2="156.729" y2="105.362" gradientUnits="userSpaceOnUse">
<stop stop-color="#110A12"/>
<stop offset="0.322917" stop-color="#403243"/>
<stop offset="0.724698" stop-color="#2B222D"/>
</linearGradient>
<clipPath id="clip0_518_4414">
<rect width="405" height="342" rx="20" fill="white"/>
</clipPath>
</defs>
</svg>
