<svg width="300" height="600" viewBox="0 0 300 600" fill="none" xmlns="http://www.w3.org/2000/svg">
<rect width="300" height="600" rx="20" fill="black"/>
<g clip-path="url(#clip0_17_3682)">
<rect x="20" y="45" width="260" height="197.183" rx="8.4507" fill="url(#paint0_linear_17_3682)"/>
<ellipse cx="190.669" cy="131.879" rx="4.57746" ry="11.9718" transform="rotate(9.95946 190.669 131.879)" fill="#D36266"/>
<path d="M143.134 197.113C144.261 194.296 141.725 170.587 140.317 159.084C143.697 163.31 166.843 168.826 177.993 171.056C177.876 178.568 178.275 194.296 180.81 197.113C183.979 200.634 174.824 215.423 170.246 219.296C165.669 223.169 141.725 200.634 143.134 197.113Z" fill="#EB8682"/>
<mask id="mask0_17_3682" style="mask-type:alpha" maskUnits="userSpaceOnUse" x="140" y="159" width="42" height="61">
<path d="M143.134 197.113C144.261 194.296 141.726 170.587 140.317 159.084C143.698 163.31 166.843 168.826 177.993 171.056C177.876 178.568 178.275 194.296 180.81 197.113C183.979 200.634 174.824 215.423 170.247 219.296C165.669 223.169 141.726 200.634 143.134 197.113Z" fill="#EB8682"/>
</mask>
<g mask="url(#mask0_17_3682)">
<path d="M179.05 191.127C162.148 202.394 148.298 170.587 135.74 159.437L195.247 184.789C191.726 186.314 182.979 188.507 179.05 191.127Z" fill="#8F5250"/>
</g>
<path d="M180.472 80.212C178.5 78.5219 169.087 79.5078 164.627 80.212C162.632 82.9113 158.712 89.2959 158.993 93.2395C159.345 98.1691 173.43 91.8311 180.472 91.8311C186.106 91.8311 189.392 113.193 190.331 123.873C190.801 119.061 191.458 108.592 190.331 105.211C188.923 100.986 191.036 95.0001 189.275 91.8311C187.514 88.6621 182.937 82.3247 180.472 80.212Z" fill="#615151"/>
<path d="M143.842 131.714C149.476 124.39 153.936 111.995 155.462 106.714C162.27 108.122 174.268 108.122 167.789 96.8544C159.691 82.7699 124.826 92.5354 114.615 103.451C106.446 112.183 117.318 142.16 124.126 148.967L150.88 170.704C151.232 169.296 144.687 152.629 143.842 148.967C142.786 144.39 136.8 140.869 143.842 131.714Z" fill="#806669"/>
<path d="M191.119 121.699C191.401 117.474 186.072 99.7506 183.373 91.4173C168.936 77.6849 151.684 91.4173 142.528 96.699C135.203 100.924 135.251 121.229 136.191 130.854C134.782 130.737 130.767 130.572 125.979 130.854C119.994 131.206 123.514 134.727 122.457 140.713C121.401 146.699 129.148 150.572 131.964 153.741C134.218 156.276 139.946 156.441 142.528 156.206C143.819 159.023 146.824 165.783 148.514 170.291C150.626 175.924 176.331 184.023 183.373 184.727C190.415 185.431 191.119 174.164 195.345 162.896C199.57 151.629 194.641 151.629 193.232 148.107C191.824 144.586 190.767 126.981 191.119 121.699Z" fill="#EB8682"/>
<path d="M175.878 125.282C176.113 129.155 177.076 137.254 179.047 138.662C181.512 140.423 186.442 142.183 184.329 145C182.216 147.817 181.16 148.873 179.752 148.873C178.343 148.873 175.878 148.873 174.822 148.169C173.766 147.465 173.061 145.704 170.949 145.704M168.132 146.761C167.662 145.587 166.935 142.958 167.78 141.831" stroke="black" stroke-width="0.704225" stroke-linecap="round"/>
<path d="M163.556 125.634L166.021 127.042C166.256 129.859 165.669 135.563 161.444 135.845C157.218 136.127 153.345 132.911 151.937 131.268C153.908 128.451 160.505 126.338 163.556 125.634Z" fill="#D9D9D9" stroke="black" stroke-width="0.704225" stroke-linecap="round"/>
<mask id="mask1_17_3682" style="mask-type:alpha" maskUnits="userSpaceOnUse" x="151" y="125" width="16" height="12">
<path d="M163.556 125.634L166.021 127.042C166.256 129.859 165.669 135.563 161.444 135.845C157.218 136.127 153.345 132.911 151.937 131.268C153.908 128.451 160.505 126.338 163.556 125.634Z" fill="#D9D9D9" stroke="black" stroke-width="0.704225" stroke-linecap="round"/>
</mask>
<g mask="url(#mask1_17_3682)">
<path d="M163.556 133.732C159.894 133.732 158.979 128.568 158.979 125.986C158.979 123.873 163.556 123.169 166.373 123.169C168.627 123.169 169.66 127.864 169.894 130.211C169.308 131.385 167.218 133.732 163.556 133.732Z" fill="#131313"/>
</g>
<path d="M184.855 120.704L186.46 122.113C186.612 124.929 186.23 130.634 183.479 130.915C180.728 131.197 178.206 127.981 177.289 126.338C178.573 123.521 182.868 121.408 184.855 120.704Z" fill="#D9D9D9" stroke="black" stroke-width="0.704225" stroke-linecap="round"/>
<mask id="mask2_17_3682" style="mask-type:alpha" maskUnits="userSpaceOnUse" x="176" y="120" width="11" height="12">
<path d="M184.855 120.704L186.46 122.113C186.613 124.929 186.231 130.634 183.48 130.915C180.729 131.197 178.207 127.981 177.29 126.338C178.574 123.521 182.868 121.408 184.855 120.704Z" fill="#D9D9D9" stroke="black" stroke-width="0.704225" stroke-linecap="round"/>
</mask>
<g mask="url(#mask2_17_3682)">
<path d="M184.856 128.803C182.471 128.803 181.875 123.638 181.875 121.056C181.875 118.943 184.856 118.239 186.69 118.239C188.157 118.239 188.83 122.934 188.982 125.282C188.6 126.455 187.24 128.803 184.856 128.803Z" fill="#131313"/>
</g>
<path d="M164.261 117.887L167.43 113.662H156.514L149.824 116.831L143.486 125.282C145.247 124.225 149.19 121.902 150.88 121.056C152.57 120.211 160.505 118.592 164.261 117.887Z" fill="#614746"/>
<path d="M182.488 117.119L180.81 115.07H186.589L190.13 116.607L191.021 118.944C188.79 117.718 185.009 117.552 182.488 117.119Z" fill="#614746"/>
<path d="M145.595 113.31C151.229 105.986 155.689 93.5913 157.215 88.3096C164.023 89.718 176.021 89.718 169.542 78.4504C161.444 64.3659 125.879 88.3096 115.667 99.2251C107.498 107.957 119.071 123.756 125.879 130.563L137.496 139.366C137.848 137.957 138.341 134.225 137.496 130.563C136.44 125.986 138.553 122.465 145.595 113.31Z" fill="#806669"/>
<path d="M182.923 155.563C177.007 157.535 167.782 158.967 163.908 159.437C166.021 161.549 172.711 161.902 177.641 160.845C181.585 160 182.805 156.972 182.923 155.563Z" fill="#E26762"/>
<path d="M183.275 155.563C178.228 156.972 167.289 159.718 163.908 159.437" stroke="black" stroke-width="0.704225" stroke-linecap="round"/>
<path d="M168.829 134.105C168.829 134.806 169.397 135.374 170.098 135.374C170.798 135.374 171.366 134.806 171.366 134.105H168.829ZM177.428 133.182C177.428 133.883 177.995 134.45 178.696 134.45C179.397 134.45 179.965 133.883 179.965 133.182H177.428ZM152.824 134.862C153.492 135.073 154.204 134.702 154.416 134.034C154.627 133.366 154.256 132.654 153.589 132.443L152.824 134.862ZM123.281 129.27L123.827 130.415C123.84 130.409 123.854 130.402 123.867 130.395L123.281 129.27ZM117.587 138.271C117.715 138.96 118.377 139.414 119.066 139.287C119.754 139.159 120.209 138.497 120.081 137.808L117.587 138.271ZM168.829 133.652C168.829 138.54 165.447 142.171 161.655 142.171V144.708C167.188 144.708 171.366 139.576 171.366 133.652H168.829ZM161.655 142.171C157.862 142.171 154.48 138.54 154.48 133.652H151.943C151.943 139.576 156.122 144.708 161.655 144.708V142.171ZM154.48 133.652C154.48 128.764 157.862 125.133 161.655 125.133V122.596C156.122 122.596 151.943 127.728 151.943 133.652H154.48ZM161.655 125.133C165.447 125.133 168.829 128.764 168.829 133.652H171.366C171.366 127.728 167.188 122.596 161.655 122.596V125.133ZM194.235 131.761C194.235 136.648 190.854 140.28 187.061 140.28V142.817C192.594 142.817 196.772 137.684 196.772 131.761H194.235ZM187.061 140.28C183.268 140.28 179.887 136.648 179.887 131.761H177.35C177.35 137.684 181.529 142.817 187.061 142.817V140.28ZM179.887 131.761C179.887 126.873 183.268 123.241 187.061 123.241V120.704C181.529 120.704 177.35 125.837 177.35 131.761H179.887ZM187.061 123.241C190.854 123.241 194.235 126.873 194.235 131.761H196.772C196.772 125.837 192.594 120.704 187.061 120.704V123.241ZM171.366 134.105C171.366 133.672 171.576 133.288 172.123 132.94C172.697 132.573 173.546 132.328 174.474 132.272C175.403 132.215 176.259 132.357 176.828 132.616C177.407 132.878 177.428 133.108 177.428 133.182H179.965C179.965 131.697 178.91 130.774 177.876 130.305C176.833 129.832 175.54 129.665 174.319 129.74C173.097 129.814 171.797 130.139 170.759 130.8C169.694 131.479 168.829 132.58 168.829 134.105H171.366ZM153.206 133.652C153.589 132.443 153.588 132.442 153.588 132.442C153.588 132.442 153.587 132.442 153.587 132.442C153.586 132.442 153.585 132.441 153.583 132.441C153.58 132.44 153.575 132.438 153.569 132.437C153.557 132.433 153.539 132.427 153.516 132.42C153.47 132.405 153.401 132.384 153.311 132.356C153.132 132.301 152.87 132.22 152.535 132.119C151.864 131.918 150.901 131.633 149.727 131.302C147.381 130.64 144.184 129.789 140.792 129.037C137.406 128.286 133.793 127.626 130.622 127.357C129.037 127.222 127.534 127.182 126.209 127.286C124.903 127.388 123.671 127.636 122.694 128.145L123.867 130.395C124.406 130.114 125.247 129.906 126.406 129.815C127.547 129.726 128.903 129.757 130.407 129.885C133.416 130.141 136.905 130.774 140.243 131.514C143.574 132.252 146.721 133.09 149.039 133.744C150.196 134.07 151.145 134.35 151.803 134.549C152.132 134.648 152.389 134.726 152.562 134.78C152.649 134.807 152.715 134.827 152.759 134.841C152.781 134.848 152.797 134.853 152.808 134.857C152.814 134.858 152.818 134.86 152.82 134.86C152.822 134.861 152.823 134.861 152.823 134.861C152.823 134.861 152.824 134.861 152.824 134.862C152.824 134.862 152.824 134.862 153.206 133.652ZM122.735 128.125C120.882 129.008 119.373 130.483 118.443 132.319L120.705 133.466C121.384 132.128 122.482 131.056 123.827 130.415L122.735 128.125ZM118.443 132.319C117.512 134.154 117.212 136.246 117.587 138.271L120.081 137.808C119.807 136.331 120.027 134.804 120.705 133.466L118.443 132.319Z" fill="black"/>
<path d="M157.57 158.031C160.387 153.242 168.838 148.759 172.711 147.116C174.472 146.317 174.12 147.116 175.176 148.172C176.232 149.228 177.289 149.228 179.401 149.228C181.514 149.228 181.866 148.172 182.218 147.116C182.57 146.059 183.979 147.82 188.204 149.228C192.43 150.637 189.965 150.637 190.669 152.397C191.373 154.158 186.444 152.397 185.74 154.51C185.035 156.623 179.754 153.454 178.697 154.51C177.641 155.566 172.711 155.566 170.951 157.327C169.542 158.735 164.965 158.383 162.852 158.031C159.918 160.026 154.754 162.82 157.57 158.031Z" fill="#614746"/>
<path d="M88.5564 218.944C89.4014 216.69 122.007 203.92 138.204 197.817L154.401 208.732C158.275 212.136 166.655 218.38 169.19 216.127C171.725 213.873 177.758 205.563 180.458 201.69C188.791 204.859 207.218 211.69 214.261 213.662C221.303 215.634 223.063 233.498 223.063 242.183H76.9366C80.4578 235.376 87.7113 221.197 88.5564 218.944Z" fill="#214134"/>
<path d="M162.852 209.085L144.894 196.057C142.923 196.057 141.491 190.423 143.134 188.31L133.979 196.057L146.655 221.409C148.885 218.709 153.979 213.169 156.514 212.606C159.049 212.042 165.082 217.066 167.782 219.648L162.852 209.085Z" fill="#EEEEEE"/>
<path d="M169.689 209.085L177.92 196.057C178.823 196.057 179.48 190.423 178.727 188.31L182.923 196.057L187.5 219.648C186.478 216.949 173.756 213.169 172.594 212.606C171.432 212.042 168.667 217.066 167.43 219.648L169.689 209.085Z" fill="#EEEEEE"/>
<path d="M179.401 170.706C174.12 170.119 162.5 168.946 158.275 168.946C155.497 168.946 139.261 136.901 139.261 136.901L137.5 140.07C137.5 140.07 147.993 171.269 149.12 173.523C150.246 175.777 172.359 182.913 183.275 186.199C184.683 185.612 187.782 184.438 188.908 184.438C190.035 184.438 195.716 167.537 198.415 159.086L195.599 150.988V154.861C195.599 156.974 186.092 165.777 185.035 166.833C184.19 167.678 181.631 164.368 180.458 162.608L177.993 163.312L179.401 170.706Z" fill="#614746"/>
<path d="M181.162 92.8876C181.162 88.6622 176.232 85.0237 173.768 83.7327C177.289 79.5073 181.162 84.789 185.035 87.958C188.134 90.4932 182.101 98.6388 178.697 102.395C179.519 100.986 181.162 97.1129 181.162 92.8876Z" fill="#615151"/>
<path d="M131.515 137.958C131.797 138.24 133.745 141.831 134.684 143.592C135.39 144.905 134.331 146.057 133.627 146.057C132.923 146.057 132.57 147.465 132.923 148.521C133.275 149.578 134.331 152.042 132.923 152.747C131.514 153.451 124.825 145.704 123.769 144.296C122.712 142.888 122.712 138.662 123.417 136.55C124.121 134.437 125.529 135.141 126.938 134.437C128.346 133.733 131.163 137.606 131.515 137.958Z" fill="#D36266"/>
<path d="M133.979 141.832C132.57 139.132 129.12 133.874 126.584 134.437C124.049 135.001 123.181 136.315 123.063 136.902" stroke="#793033" stroke-width="0.704225" stroke-linecap="round"/>
<path d="M133.275 112.512C142.289 108.85 149.472 95.7283 151.937 89.625C148.556 112.724 124.472 119.672 112.852 120.259C115.904 119.202 124.261 116.174 133.275 112.512Z" fill="#D9D9D9"/>
<path d="M130.106 124.836C139.12 121.174 139.965 115.799 142.43 109.695C139.049 132.794 127.289 127.066 115.669 127.653C118.721 126.597 121.092 128.498 130.106 124.836Z" fill="#D9D9D9"/>
<path d="M128.003 106.98C135.311 103.865 141.135 92.7035 143.134 87.5122C140.393 107.159 120.865 113.069 111.444 113.569C113.918 112.67 120.694 110.094 128.003 106.98Z" fill="#D9D9D9"/>
</g>
<path d="M30.6597 259.113H29.353V271.464H30.6597V259.113ZM20.8803 264.353C20.8803 267.015 22.2076 268.693 24.0713 268.686C25.9006 268.693 27.2486 267.015 27.2486 264.353C27.2486 261.719 25.9006 260.041 24.0713 260.034C22.2076 260.041 20.8803 261.719 20.8803 264.353ZM22.1457 264.353C22.1388 262.421 22.9228 261.21 24.0713 261.203C25.1992 261.21 25.9832 262.421 25.9832 264.353C25.9832 266.313 25.1992 267.517 24.0713 267.517C22.9228 267.517 22.1388 266.313 22.1457 264.353ZM43.8914 265.426H32.6128V266.471H43.8914V265.426ZM34.0295 260.419H41.168V261.465H34.057V264.491H42.7223V263.487H35.3499V262.428H42.4747V259.388H34.0295V260.419ZM34.112 271.285H42.4884V267.475H34.112V271.285ZM35.4049 270.226V268.521H41.1955V270.226H35.4049Z" fill="#ECECF8" fill-opacity="0.7"/>
<path d="M34.1945 290.153H28.3682V286.803H26.2555V290.153H20.4456V291.853H34.1945V290.153ZM21.0068 285.796L21.8321 287.463C24.4234 286.993 26.3545 285.664 27.3036 283.857C28.2774 285.639 30.225 286.918 32.8576 287.38L33.6829 285.713C30.4643 285.243 28.5827 283.403 28.4177 281.422H32.9897V279.722H21.5845V281.422H26.173C25.9914 283.411 24.1263 285.293 21.0068 285.796ZM49.0328 284.277H46.9036V278.583H44.7909V293.57H46.9036V285.994H49.0328V284.277ZM35.5315 289.906H36.8354C39.0471 289.906 41.4816 289.774 43.9987 289.262L43.7841 287.513C41.6137 287.95 39.5505 288.131 37.6276 288.164V280.019H35.5315V289.906ZM61.5768 278.583H59.4641V289.444H61.5768V284.41H63.607V282.676H61.5768V278.583ZM50.2377 286.968H51.5086C54.8344 286.968 56.5675 286.877 58.4573 286.489L58.2427 284.806C56.5675 285.161 55.0737 285.251 52.3504 285.268V281.472H57.0213V279.788H50.2377V286.968ZM51.8387 293.339H62.1215V291.655H53.9349V288.288H51.8387V293.339Z" fill="#ECECF8"/>
<path d="M32.8741 313.823H22.8554V315.061H31.3061V319.121H32.8741V313.823ZM20.7592 308.723C20.751 310.827 22.4098 312.313 24.638 312.305C25.8924 312.313 26.9652 311.826 27.6585 311.017H31.3061V313.047H32.8741V304.332H31.3061V306.445H27.6585C26.9735 305.636 25.8924 305.149 24.638 305.158C22.4098 305.149 20.751 306.635 20.7592 308.723ZM22.2612 308.723C22.253 307.402 23.2515 306.486 24.638 306.478C25.9667 306.486 26.9817 307.402 26.9817 308.723C26.9817 310.076 25.9667 310.976 24.638 310.984C23.2515 310.976 22.253 310.076 22.2612 308.723ZM28.3434 309.73C28.4342 309.416 28.4837 309.078 28.4837 308.723C28.4837 308.376 28.4342 308.046 28.3517 307.733H31.3061V309.73H28.3434ZM46.7716 304.283H45.2036V312.42H46.7716V309.036H48.9338V307.749H46.7716V304.283ZM35.1684 306.825H43.9822V305.587H40.3675V304.2H38.7995V305.587H35.1684V306.825ZM35.9771 309.812C35.9689 311.314 37.4048 312.23 39.5753 312.222C41.7457 312.23 43.1569 311.314 43.1569 309.812C43.1569 308.319 41.7457 307.386 39.5753 307.386C37.4048 307.386 35.9689 308.319 35.9771 309.812ZM37.215 314.285H45.2201V315.441H37.248V318.973H47.2832V317.784H38.783V316.546H46.7716V313.113H37.215V314.285ZM37.4956 309.812C37.4791 309.012 38.2961 308.517 39.5753 308.508C40.8462 308.517 41.6714 309.012 41.6879 309.812C41.6714 310.613 40.8462 311.083 39.5753 311.083C38.2961 311.083 37.4791 310.613 37.4956 309.812ZM66.3798 311.034H62.6001V306.94H66.2313V305.669H61.0321V312.288H66.3798V311.034ZM53.8853 317.273H67.4197V316.002H61.3622V312.998H59.8272V316.002H53.8853V317.273ZM55.0077 312.288H55.8825C57.4505 312.296 58.7874 312.255 60.3719 311.908L60.2399 310.604C58.9607 310.893 57.8054 310.984 56.5757 311.001V306.957H60.1078V305.686H55.0077V312.288ZM80.4588 308.657H71.8266V304.861H70.2751V309.911H80.4588V308.657ZM68.476 313.031H82.0103V311.776H68.476V313.031ZM70.1596 318.775H80.5579V317.487H71.7276V314.434H70.1596V318.775ZM92.7058 306.99V306.577H95.9573V305.306H87.8037V306.577H91.1213V306.99C91.113 308.995 89.6936 310.926 87.3911 311.727L88.1998 312.932C89.9576 312.313 91.2698 311.042 91.9383 309.441C92.6067 310.926 93.8942 312.09 95.5942 312.651L96.403 311.43C94.117 310.712 92.7058 308.888 92.7058 306.99ZM89.4707 315.275H97.9214V319.121H99.4894V314.005H89.4707V315.275ZM97.9214 313.262H99.4894V304.332H97.9214V313.262ZM106.306 307.584V307.452H108.848V306.198H106.306V304.498H104.821V306.198H102.246V307.452H104.821V307.584C104.812 309.375 103.789 311.067 101.916 311.826L102.658 312.981C104.094 312.395 105.085 311.289 105.605 309.944C106.133 311.182 107.107 312.197 108.501 312.734L109.244 311.545C107.362 310.877 106.306 309.251 106.306 307.584ZM104.392 315.408H112.892V319.121H114.443V314.137H104.392V315.408ZM109.772 313.328H111.274V309.499H112.958V313.394H114.443V304.349H112.958V308.211H111.274V304.597H109.772V313.328Z" fill="#ECECF8" fill-opacity="0.7"/>
<rect x="20.3521" y="328.07" width="93.1972" height="24.9296" rx="12.4648" fill="#170330"/>
<path d="M41.886 333.034H39.8888V348.054H41.886V333.034ZM28.5827 343.663L29.8536 345.215C31.2318 344.373 32.1396 342.887 32.6513 341.138C33.1629 342.755 34.0377 344.092 35.3829 344.885L36.6208 343.333C34.4256 342.079 33.6416 339.553 33.6498 337.061V336.252H35.9276V334.569H29.1604V336.252H31.6197V337.061C31.6197 339.611 30.7944 342.302 28.5827 343.663ZM34.8547 339.884H36.8354V347.36H38.816V333.281H36.8354V338.183H34.8547V339.884ZM57.2029 340.065H43.5035V341.732H49.2969V343.02H45.088V347.889H55.5689V343.02H51.393V341.732H57.2029V340.065ZM44.7084 335.13H46.656V337.424H44.8074V339.108H55.8825V337.424H54.0174V335.13H55.9815V333.446H44.7084V335.13ZM47.1677 346.205V344.654H53.5057V346.205H47.1677ZM48.7687 337.424V335.13H51.9047V337.424H48.7687ZM75.7383 340.346H61.9894V342.029H67.9148V344.637H70.044V342.029H75.7383V340.346ZM63.4089 336.434C63.4089 338.349 65.5876 339.537 68.8556 339.537C72.1072 339.537 74.2776 338.349 74.2859 336.434C74.2776 334.528 72.1072 333.331 68.8556 333.314C65.5876 333.331 63.4089 334.528 63.4089 336.434ZM63.6234 347.79H74.2198V346.09H65.7526V343.3H63.6234V347.79ZM65.6866 336.434C65.6783 335.477 66.9162 334.981 68.8556 334.981C70.795 334.981 72.0246 335.477 72.0246 336.434C72.0246 337.35 70.795 337.845 68.8556 337.853C66.9162 337.845 65.6783 337.35 65.6866 336.434ZM80.8054 333.843C78.5277 333.834 76.7947 335.378 76.8112 337.523C76.7947 339.644 78.5277 341.196 80.8054 341.187C81.9938 341.196 83.0337 340.758 83.7516 340.032H87.1765V341.831H89.2726V333.034H87.1765V335.014H83.7681C83.0502 334.28 82.0021 333.834 80.8054 333.843ZM78.8083 337.523C78.8 336.327 79.6336 335.633 80.8054 335.642C81.936 335.633 82.7613 336.327 82.7696 337.523C82.7613 338.679 81.936 339.413 80.8054 339.405C79.6336 339.413 78.8 338.679 78.8083 337.523ZM78.9734 345.099C78.9734 346.964 80.9622 348.062 84.1395 348.054C87.3168 348.062 89.3139 346.964 89.3222 345.099C89.3139 343.234 87.3168 342.136 84.1395 342.145C80.9622 342.136 78.9734 343.234 78.9734 345.099ZM81.0365 345.099C81.0365 344.2 82.1506 343.754 84.1395 343.746C86.1697 343.754 87.2508 344.2 87.259 345.099C87.2508 345.974 86.1697 346.42 84.1395 346.42C82.1506 346.42 81.0365 345.974 81.0365 345.099ZM84.6677 336.682H87.1765V338.349H84.6759C84.7337 338.084 84.7667 337.812 84.7667 337.523C84.7667 337.234 84.7337 336.946 84.6677 336.682ZM96.766 337.127V336.203H99.7865V334.486H91.4679V336.203H94.6534V337.127C94.6369 339.611 93.3742 342.401 90.8737 343.564L92.0951 345.231C93.8281 344.414 95.066 342.731 95.7345 340.75C96.4112 342.549 97.5996 344.084 99.2749 344.852L100.447 343.201C97.9792 342.054 96.7578 339.413 96.766 337.127ZM100.958 348.054H103.071V340.527H105.283V338.761H103.071V333.034H100.958V348.054Z" fill="#944AF2"/>
<rect x="20.3521" y="328.07" width="93.1972" height="24.9296" rx="12.4648" stroke="#944AF2" stroke-width="0.704225"/>
<path d="M28.2746 383.916H21.4305V387.437H24.1483V388.395H20.2971V389.528H29.43V388.395H25.5568V387.437H28.2746V383.916ZM21.3094 391.366H26.9212V393.533H28.3187V390.265H21.3094V391.366ZM22.8059 386.337V385.006H26.8992V386.337H22.8059ZM39.2011 391.3H36.8794V389.396H38.3869V388.263H37.0224V385.446H38.4309V384.323H30.7504V385.446H32.1369V388.263H30.7945V389.396H32.3129V391.3H30.0352V392.422H39.2011V391.3ZM33.5453 388.263V385.446H35.636V388.263H33.5453ZM33.7214 391.3V389.396H35.471V391.3H33.7214Z" fill="#ECECF8" fill-opacity="0.5"/>
<path d="M36.7969 414.014H29.8633V410.381H34.9805V401.67H22.2461V410.381H27.3828V414.014H20.5273V416.064H36.7969V414.014ZM24.707 408.428V403.662H32.5195V408.428H24.707ZM53.1836 400.381H50.8203V409.678H53.1836V400.381ZM38.5742 409.229H39.8047C42.5977 409.229 44.2383 409.18 46.1719 408.877L46.0156 406.904C44.4141 407.168 43.0371 407.236 41.0547 407.256V403.174H45.5078V401.221H38.5742V409.229ZM40.918 412.197H50.7422V413.115H40.9375V417.939H53.7109V415.986H43.418V414.971H53.1836V410.244H40.918V412.197ZM44.4727 405.967H47.2656V409.6H49.6094V400.674H47.2656V404.092H44.4727V405.967ZM63.2031 400.615C59.1016 400.615 56.7188 401.689 56.7188 403.643C56.7188 405.625 59.1016 406.689 63.2031 406.689C67.2949 406.689 69.6582 405.625 69.668 403.643C69.6582 401.689 67.2949 400.615 63.2031 400.615ZM55.0977 409.502H71.3086V407.529H55.0977V409.502ZM56.9727 412.354H66.875V413.33H56.9922V418.018H69.8047V416.143H59.4336V415.068H69.3359V410.537H56.9727V412.354ZM59.3359 403.643C59.3262 402.852 60.5957 402.432 63.2031 402.432C65.8301 402.432 67.0898 402.852 67.0898 403.643C67.0898 404.512 65.8301 404.854 63.2031 404.854C60.5957 404.854 59.3262 404.512 59.3359 403.643ZM91.8555 400.361H89.375V409.365H91.8555V400.361ZM76.9141 407.451L78.1445 409.404C80.2637 408.77 81.7188 407.412 82.5195 405.684C83.3301 407.266 84.7363 408.506 86.7773 409.092L87.9883 407.178C85.0781 406.338 83.7891 404.277 83.8086 402.119V400.752H81.2109V402.119C81.2109 404.326 79.8828 406.562 76.9141 407.451ZM79.9414 412.061H89.3945V413.096H79.9805V418.018H92.3633V416.045H82.4219V414.951H91.875V410.127H79.9414V412.061ZM109.141 400.361H106.66V409.482H109.141V400.361ZM94.3555 407.705L95.4883 409.678C97.6758 409.053 99.1797 407.715 99.9902 406.025C100.791 407.549 102.217 408.74 104.277 409.307L105.469 407.393C102.744 406.68 101.396 404.941 101.23 403.174H104.785V401.182H95.0195V403.174H98.6523C98.4863 405.078 97.1191 406.943 94.3555 407.705ZM97.2266 412.08H106.68V413.154H97.2656V418.018H109.648V416.104H99.707V414.932H109.16V410.186H97.2266V412.08ZM121.816 401.357H112.168V403.33H115.742C115.723 405.537 114.395 407.891 111.465 408.818L112.734 410.791C114.834 410.117 116.25 408.691 117.041 406.924C117.812 408.516 119.17 409.805 121.133 410.42L122.363 408.506C119.561 407.578 118.291 405.42 118.281 403.33H121.816V401.357ZM114.336 413.721H124.062V418.135H126.543V411.729H114.336V413.721ZM121.309 406.67H124.062V410.947H126.543V400.361H124.062V404.639H121.309V406.67ZM136.953 401.26C133.193 401.27 130.273 403.301 130.273 406.377C130.273 409.482 133.193 411.504 136.953 411.494C140.703 411.504 143.643 409.482 143.652 406.377C143.643 403.301 140.703 401.27 136.953 401.26ZM128.848 415.967H145.117V413.955H128.848V415.967ZM132.695 406.377C132.686 404.473 134.482 403.271 136.953 403.291C139.404 403.271 141.182 404.473 141.191 406.377C141.182 408.311 139.404 409.463 136.953 409.463C134.482 409.463 132.686 408.311 132.695 406.377ZM162.402 414.111H155.469V411.436H160.938V409.404H150.508V407.412H160.527V401.514H147.988V403.506H158.066V405.459H148.008V411.436H152.988V414.111H146.133V416.162H162.402V414.111ZM184.277 409.014H168.008V411.006H175.02V414.092H177.539V411.006H184.277V409.014ZM169.688 404.385C169.688 406.65 172.266 408.057 176.133 408.057C179.98 408.057 182.549 406.65 182.559 404.385C182.549 402.129 179.98 400.713 176.133 400.693C172.266 400.713 169.688 402.129 169.688 404.385ZM169.941 417.822H182.48V415.811H172.461V412.51H169.941V417.822ZM172.383 404.385C172.373 403.252 173.838 402.666 176.133 402.666C178.428 402.666 179.883 403.252 179.883 404.385C179.883 405.469 178.428 406.055 176.133 406.064C173.838 406.055 172.373 405.469 172.383 404.385ZM190.273 401.318C187.578 401.309 185.527 403.135 185.547 405.674C185.527 408.184 187.578 410.02 190.273 410.01C191.68 410.02 192.91 409.502 193.76 408.643H197.812V410.771H200.293V400.361H197.812V402.705H193.779C192.93 401.836 191.689 401.309 190.273 401.318ZM187.91 405.674C187.9 404.258 188.887 403.438 190.273 403.447C191.611 403.438 192.588 404.258 192.598 405.674C192.588 407.041 191.611 407.91 190.273 407.9C188.887 407.91 187.9 407.041 187.91 405.674ZM188.105 414.639C188.105 416.846 190.459 418.145 194.219 418.135C197.979 418.145 200.342 416.846 200.352 414.639C200.342 412.432 197.979 411.133 194.219 411.143C190.459 411.133 188.105 412.432 188.105 414.639ZM190.547 414.639C190.547 413.574 191.865 413.047 194.219 413.037C196.621 413.047 197.9 413.574 197.91 414.639C197.9 415.674 196.621 416.201 194.219 416.201C191.865 416.201 190.547 415.674 190.547 414.639ZM194.844 404.678H197.812V406.65H194.854C194.922 406.338 194.961 406.016 194.961 405.674C194.961 405.332 194.922 404.99 194.844 404.678ZM216.621 400.361H214.16V418.135H216.621V409.365H219.238V407.314H216.621V400.361ZM202.5 405.01H212.949V403.018H209.023V400.635H206.523V403.018H202.5V405.01ZM203.223 410.244C203.213 412.725 205.146 414.473 207.773 414.482C210.361 414.473 212.305 412.725 212.305 410.244C212.305 407.764 210.361 405.996 207.773 406.006C205.146 405.996 203.213 407.764 203.223 410.244ZM205.605 410.244C205.605 408.877 206.514 408.037 207.773 408.018C209.014 408.037 209.922 408.877 209.922 410.244C209.922 411.621 209.014 412.441 207.773 412.432C206.514 412.441 205.605 411.621 205.605 410.244ZM234.531 401.904H221.562V403.877H232.031C232.021 405.967 231.992 408.467 231.309 411.826L233.809 412.08C234.521 408.311 234.521 405.811 234.531 403.584V401.904ZM219.883 415.967H236.094V413.936H228.164V407.822H225.684V413.936H219.883V415.967ZM30.4883 425.65H21.3477V427.682H28.0566C28.0371 428.746 27.959 430.045 27.6367 431.744L30.0781 431.979C30.4883 429.771 30.4883 427.994 30.4883 426.764V425.65ZM20.293 433.268L20.5078 435.26C23.6035 435.25 27.7637 435.182 31.4648 434.498L31.3281 432.701C29.6582 432.945 27.8516 433.082 26.0742 433.16V429.752H23.5938V433.238C22.4121 433.268 21.2891 433.268 20.293 433.268ZM22.9102 441.822H35.3906V439.83H25.4102V436.471H22.9102V441.822ZM32.2852 437.662H34.8438V431.861H36.9922V429.771H34.8438V424.361H32.2852V437.662ZM52.7148 424.361H50.2344V442.174H52.7148V424.361ZM38.75 427.857H44.668V430.729H38.7695V438.014H40.3711C43.6133 438.014 46.2598 437.906 49.1797 437.389L48.9648 435.377C46.3574 435.807 44.0625 435.943 41.3477 435.963V432.701H47.207V425.846H38.75V427.857ZM69.1211 424.361H66.6602V442.135H69.1211V433.365H71.7383V431.314H69.1211V424.361ZM55 429.01H65.4492V427.018H61.5234V424.635H59.0234V427.018H55V429.01ZM55.7227 434.244C55.7129 436.725 57.6465 438.473 60.2734 438.482C62.8613 438.473 64.8047 436.725 64.8047 434.244C64.8047 431.764 62.8613 429.996 60.2734 430.006C57.6465 429.996 55.7129 431.764 55.7227 434.244ZM58.1055 434.244C58.1055 432.877 59.0137 432.037 60.2734 432.018C61.5137 432.037 62.4219 432.877 62.4219 434.244C62.4219 435.621 61.5137 436.441 60.2734 436.432C59.0137 436.441 58.1055 435.621 58.1055 434.244ZM87.0312 425.904H74.0625V427.877H84.5312C84.5215 429.967 84.4922 432.467 83.8086 435.826L86.3086 436.08C87.0215 432.311 87.0215 429.811 87.0312 427.584V425.904ZM72.3828 439.967H88.5938V437.936H80.6641V431.822H78.1836V437.936H72.3828V439.967ZM109.16 424.381H106.66V434.225H109.16V424.381ZM94.2188 432.018L95.4102 433.971C97.5391 433.326 98.9941 431.969 99.8047 430.25C100.615 431.842 102.031 433.072 104.082 433.678L105.273 431.705C102.363 430.904 101.074 428.814 101.094 426.705V424.986H98.4961V426.705C98.4961 428.902 97.1875 431.119 94.2188 432.018ZM96.8945 441.939H109.414V439.947H107.129V436.998H109.258V435.025H97.0508V436.998H99.1992V439.947H96.8945V441.939ZM101.66 439.947V436.998H104.668V439.947H101.66ZM115.918 435.025H113.457V441.939H125.723V435.025H123.242V436.529H115.918V435.025ZM111.562 434.127H127.773V432.115H111.562V434.127ZM112.363 429.381L113.262 431.334C116.289 430.943 118.516 429.674 119.668 427.955C120.811 429.674 123.037 430.943 126.094 431.334L126.973 429.381C122.998 428.932 120.957 426.92 120.957 425.143V424.537H118.398V425.143C118.379 426.969 116.328 428.902 112.363 429.381ZM115.918 439.986V438.424H123.242V439.986H115.918ZM143.789 424.361H141.309V442.135H143.789V424.361ZM129.805 437.74H131.367C134.111 437.75 137.061 437.555 140.176 436.9L139.863 434.85C137.246 435.357 134.668 435.582 132.266 435.621V426.061H129.805V437.74ZM160.156 424.361H157.656V442.174H160.156V432.994H162.773V430.963H160.156V424.361ZM146.836 437.857H148.34C151.475 437.867 153.896 437.799 156.66 437.33L156.387 435.24C154.023 435.65 151.895 435.787 149.316 435.807V428.014H155.176V426.002H146.836V437.857ZM165.723 440.514C166.592 440.514 167.344 439.781 167.344 438.873C167.344 437.975 166.592 437.242 165.723 437.252C164.805 437.242 164.062 437.975 164.082 438.873C164.062 439.781 164.805 440.514 165.723 440.514Z" fill="#ECECF8"/>
<defs>
<linearGradient id="paint0_linear_17_3682" x1="150" y1="45" x2="150" y2="242.183" gradientUnits="userSpaceOnUse">
<stop stop-color="#E4FFDC"/>
<stop offset="1" stop-color="#27491C" stop-opacity="0"/>
</linearGradient>
<clipPath id="clip0_17_3682">
<rect x="20" y="45" width="260" height="197.183" rx="8.4507" fill="white"/>
</clipPath>
</defs>
</svg>
