<svg width="150" height="150" viewBox="0 0 150 150" fill="none" xmlns="http://www.w3.org/2000/svg">
<g clip-path="url(#clip0_9986_137255)">
<rect width="150" height="150" fill="white"/>
<rect width="340" height="340" fill="url(#paint0_linear_9986_137255)"/>
<path d="M95.3779 114.098C90.7885 113.958 77.1714 109.592 74.4644 107.577Z" fill="#F1CF73"/>
<path d="M97.2665 135.616C105.734 147.532 133.112 151.069 137.783 152.772C145.445 155.689 146.748 163.576 146.861 167.872C147.189 180.112 148.618 201.109 144.343 212.205" fill="#F1CF73"/>
<path d="M97.2665 135.616C92.1294 126.312 95.3779 114.098 95.3779 114.098C95.3779 114.098 105.331 114.574 109.322 112.522C116.996 109.198 126.112 97.0406 126.018 79.634C125.8 63.9586 122.521 48.4806 116.367 34.087C110.814 19.591 76.3593 6.04191 50.4031 31.3606C50.4031 31.3606 36.4083 44.2742 44.5358 65.7354" fill="#F1CF73"/>
<path d="M4.20654 212.205C0.511109 200.251 1.96536 168.819 2.50047 164.383C3.03558 159.947 5.10049 150.948 16.0357 148.209C20.8706 146.983 51.146 142.041 57.2904 133.468" fill="#F1CF73"/>
<path d="M58.7761 101.057C58.7761 101.057 48.6089 95.2294 44.5546 83.0785C40.5004 70.9275 44.5358 65.7354 44.5358 65.7354C47.7905 60.8356 60.7403 59.6345 60.7403 74.4165" fill="#F1CF73"/>
<path d="M58.7761 101.057C59.5504 116.5 59.7456 123.586 57.2904 133.468Z" fill="#F1CF73"/>
<path d="M97.2665 135.616C105.734 147.532 133.112 151.069 137.783 152.772C145.445 155.689 146.748 163.576 146.861 167.872C147.189 180.112 148.618 201.109 144.343 212.205H4.20654C0.511109 200.251 1.96536 168.819 2.50047 164.383C3.03558 159.947 5.10049 150.948 16.0357 148.209C20.8706 146.983 51.146 142.041 57.2904 133.468C59.7456 123.586 59.5504 116.5 58.7761 101.057C58.7761 101.057 48.6089 95.2294 44.5546 83.0785C40.5004 70.9275 44.5358 65.7354 44.5358 65.7354C36.4083 44.2742 50.4031 31.3606 50.4031 31.3606C76.3593 6.04191 110.814 19.591 116.367 34.087C122.521 48.4806 125.8 63.9586 126.018 79.634C126.112 97.0406 116.996 109.198 109.322 112.522C105.331 114.574 95.3779 114.098 95.3779 114.098C95.3779 114.098 92.1294 126.312 97.2665 135.616Z" fill="#F1CF73"/>
<path opacity="0.4" d="M95.2325 113.609C94.6229 117.934 93.6786 124.289 95.2325 129.373C89.4721 127.994 73.2109 116.647 73.2109 107.432C80.3257 110.237 87.704 112.306 95.2325 113.609Z" fill="#050504"/>
<path d="M51.9565 69.3164C49.5013 69.99 47.8267 73.7332 49.7783 77.7687" stroke="#050504" stroke-width="3" stroke-linecap="round"/>
<path d="M3.47757 207.297C-0.243776 195.289 1.22066 163.716 1.75952 159.26C2.29839 154.804 4.37778 145.765 15.3897 143.013C20.2585 141.781 50.5617 137.172 56.7491 128.561" fill="#A2BFF8"/>
<path d="M3.47757 207.297C-0.243776 195.289 1.22066 163.716 1.75952 159.26C2.29839 154.804 4.37778 145.765 15.3897 143.013C20.2585 141.781 50.5617 137.172 56.7491 128.561C56.7491 128.561 67.2089 133.667 76.7182 133.029L97.3226 130.476C105.849 142.445 133.287 145.886 137.991 147.597C145.706 150.527 147.018 158.449 147.133 162.764C147.462 175.059 148.901 196.151 144.597 207.297H11.1034H3.47757Z" fill="#A2BFF8"/>
<path d="M3.47757 207.297C-0.243776 195.289 1.22066 163.716 1.75952 159.26C2.29839 154.804 4.37778 145.765 15.3897 143.013C20.2585 141.781 50.5617 137.172 56.7491 128.561" stroke="#050504" stroke-width="3" stroke-linecap="round" stroke-linejoin="round"/>
<path d="M3.47757 207.297C-0.243776 195.289 1.22066 163.716 1.75952 159.26C2.29839 154.804 4.37778 145.765 15.3897 143.013C20.2585 141.781 50.5617 137.172 56.7491 128.561C56.7491 128.561 67.2089 133.667 76.7182 133.029L97.3226 130.476C105.849 142.445 133.287 145.886 137.991 147.597C145.706 150.527 147.018 158.449 147.133 162.764C147.462 175.059 148.901 196.151 144.597 207.297H11.1034H3.47757Z" stroke="#050504" stroke-width="3" stroke-linecap="round" stroke-linejoin="round"/>
<path d="M77.4121 137.18C80.475 164.353 80.5983 179.589 77.4121 206.762" stroke="#050504" stroke-width="3" stroke-linecap="round"/>
<path d="M94.7854 123.773C94.7854 129.295 86.0689 132.155 76.1157 132.155C66.1625 132.155 57.6611 129.295 57.6611 123.773C40.8485 136.349 49.5274 144.801 58.6691 145.203C68.0644 145.618 77.6055 136.503 77.6055 136.503C77.6055 136.503 84.4269 146.174 96.4214 145.216C109.101 144.201 111.319 133.087 95.413 124.093" fill="#E5ECF9"/>
<path d="M94.7854 123.773C94.7854 129.295 86.0689 132.155 76.1157 132.155C66.1625 132.155 57.6611 129.295 57.6611 123.773C40.8485 136.349 49.5274 144.801 58.6691 145.203C68.0644 145.618 77.6055 136.503 77.6055 136.503C77.6055 136.503 84.4269 146.174 96.4214 145.216C109.101 144.201 111.319 133.087 95.413 124.093" stroke="#050504" stroke-width="3" stroke-linecap="round" stroke-linejoin="round"/>
<path d="M59.8683 64.2289C61.9323 66.1614 64.9088 65.6954 66.8258 63.8561C70.4086 60.4013 71.7254 53.765 68.1119 49.8627C67.8611 49.5729 67.6761 49.2306 67.5703 48.8601C67.4644 48.4896 67.4403 48.1 67.4995 47.719C67.818 45.0409 70.8986 42.021 73.5506 41.7476C77.6601 41.3126 81.243 42.7791 84.6483 44.898C88.225 47.1473 91.5935 49.7012 95.5745 51.1614C105.662 54.8897 115.547 53.9203 124.972 49.0922C134.557 44.1896 138.091 36.2298 135.66 25.6167C133.933 18.0794 129.131 12.9158 122.559 9.35528C118.578 7.1929 114.23 6.31055 109.753 5.99986C102.832 5.52761 96.1257 6.21112 89.9521 9.76539C89.743 9.92478 89.4985 10.0297 89.2401 10.0708C88.9817 10.112 88.7172 10.0882 88.47 10.0015C83.7418 8.21817 78.7993 8.18089 73.869 8.34866C68.0144 8.54522 62.1975 9.37849 56.5181 10.8342C47.7894 12.9573 39.7494 17.3323 33.1774 23.5351C26.7099 29.6991 22.1532 37.0997 18.9745 45.4945C14.326 57.8474 14.7486 70.0388 19.6605 82.1556C22.1961 88.4129 25.7851 94.1047 29.0004 99.9891C29.9988 101.816 31.4503 103.45 31.9035 105.507C32.4433 108.279 32.5096 111.125 32.0995 113.92C31.2298 120.289 28.8473 126.112 25.8892 131.741C22.2451 138.67 18.1416 145.343 14.7363 152.402C10.6757 160.859 7.83394 169.558 8.16467 179.028C8.05327 182.113 8.27508 185.201 8.82612 188.237C10.2593 196.986 15.4039 203.523 21.4305 209.395C25.4115 213.266 30.3479 215.521 35.8048 216.522C41.1332 217.504 46.4616 218.485 51.9186 217.765C57.5899 217.031 61.9629 214.303 64.5352 209.034C65.703 206.635 66.7356 204.17 67.6281 201.652C70.5128 193.574 69.5573 186.012 64.0085 179.314C61.4423 176.207 58.7536 173.193 56.6222 169.738C54.8645 166.899 53.4497 163.866 53.7376 160.455C53.919 157.125 55.0961 153.93 57.1122 151.296C63.1633 143.777 66.495 136.451 67.1136 126.907C67.4872 121.085 68.4794 113.927 65.8336 108.794C64.3453 105.905 62.0364 103.55 58.8026 101.101C55.5688 98.6531 50.516 93.6449 48.7583 90.9046C44.9917 84.5603 44.4282 82.4849 43.3074 74.842C42.793 71.3499 43.7178 64.9435 47.8886 62.7128C51.9921 60.6436 56.4324 60.9294 59.8683 64.2289Z" fill="#050504"/>
<path d="M43.0453 85.1164C39.6472 87.7622 38.3184 92.2146 38.3184 97.734C38.3184 106.096 43.5386 112.875 49.978 112.875C56.4175 112.875 61.6377 106.096 61.6377 97.734C61.6377 90.7898 58.0378 84.9375 53.1293 83.1523" stroke="white" stroke-width="4" stroke-linecap="round" stroke-linejoin="round"/>
<path d="M105.939 70.784C105.608 70.0248 104.723 69.6782 103.964 70.0097C103.205 70.3413 102.858 71.2256 103.19 71.9847L105.939 70.784ZM105.487 86.8672C104.731 87.2062 104.393 88.0937 104.732 88.8496C105.071 89.6055 105.958 89.9435 106.714 89.6046L105.487 86.8672ZM75.617 56.6885C75.0842 57.3229 75.1665 58.269 75.8009 58.8018C76.4353 59.3346 77.3814 59.2523 77.9142 58.6179L75.617 56.6885ZM90.5426 51.6914L90.7963 50.213L90.7857 50.2113L90.5426 51.6914ZM92.0896 53.6552C92.8659 53.9444 93.7297 53.5494 94.0188 52.7731C94.308 51.9968 93.9131 51.133 93.1367 50.8439L92.0896 53.6552ZM106.357 52.5844C105.747 53.1447 105.707 54.0936 106.267 54.7038C106.827 55.314 107.776 55.3544 108.386 54.7941L106.357 52.5844ZM120.11 50.6893L120.743 49.3292L120.741 49.3284L120.11 50.6893ZM120.861 52.8813C121.521 53.3811 122.462 53.2508 122.962 52.5901C123.462 51.9295 123.331 50.9887 122.671 50.4889L120.861 52.8813ZM104.565 71.3843C103.19 71.9847 103.19 71.9848 103.19 71.9848C103.19 71.9849 103.19 71.985 103.19 71.9852C103.19 71.9855 103.191 71.986 103.191 71.9867C103.192 71.9882 103.192 71.9903 103.194 71.9932C103.196 71.9989 103.2 72.0076 103.205 72.0191C103.215 72.0421 103.23 72.0763 103.249 72.1212C103.289 72.2109 103.346 72.3429 103.419 72.5115C103.565 72.8488 103.774 73.3327 104.025 73.9179C104.526 75.0888 105.195 76.6631 105.862 78.2801C106.531 79.9 107.195 81.5505 107.689 82.8778C107.936 83.5433 108.135 84.1107 108.27 84.5448C108.338 84.7625 108.384 84.93 108.412 85.05C108.447 85.1988 108.433 85.1896 108.433 85.0964H111.433C111.433 84.8256 111.377 84.5539 111.333 84.3666C111.283 84.1505 111.214 83.9082 111.135 83.6539C110.976 83.1438 110.756 82.5179 110.5 81.8313C109.988 80.4544 109.309 78.7657 108.635 77.1351C107.961 75.5017 107.287 73.9144 106.782 72.7363C106.53 72.1469 106.319 71.6594 106.172 71.319C106.098 71.1488 106.04 71.0153 106 70.9243C105.981 70.8787 105.965 70.8438 105.955 70.8202C105.95 70.8084 105.946 70.7994 105.943 70.7933C105.942 70.7903 105.941 70.788 105.94 70.7864C105.94 70.7856 105.94 70.785 105.94 70.7846C105.939 70.7844 105.939 70.7843 105.939 70.7842C105.939 70.784 105.939 70.784 104.565 71.3843ZM108.433 85.0964C108.433 84.8207 108.577 84.8209 108.271 85.128C108.025 85.3749 107.652 85.6539 107.214 85.9319C106.787 86.2027 106.351 86.4388 106.017 86.609C105.852 86.6933 105.715 86.7597 105.622 86.8043C105.575 86.8265 105.539 86.8432 105.516 86.8539C105.504 86.8592 105.496 86.863 105.491 86.8653C105.488 86.8664 105.487 86.8671 105.486 86.8674C105.486 86.8676 105.486 86.8677 105.486 86.8676C105.486 86.8676 105.486 86.8675 105.486 86.8675C105.486 86.8674 105.486 86.8674 105.486 86.8674C105.486 86.8673 105.487 86.8672 106.1 88.2359C106.714 89.6046 106.714 89.6045 106.715 89.6044C106.715 89.6043 106.715 89.6042 106.715 89.6041C106.715 89.6039 106.716 89.6037 106.716 89.6035C106.717 89.603 106.719 89.6025 106.72 89.6018C106.723 89.6005 106.727 89.5987 106.732 89.5965C106.741 89.5922 106.755 89.5862 106.771 89.5786C106.804 89.5633 106.851 89.5417 106.908 89.5142C107.024 89.4592 107.187 89.3802 107.381 89.2813C107.766 89.0848 108.289 88.8024 108.82 88.4659C109.339 88.1366 109.924 87.7196 110.397 87.2446C110.81 86.8299 111.433 86.0825 111.433 85.0964H108.433ZM77.9142 58.6179C81.2772 54.6139 86.0526 52.4739 90.2994 53.1716L90.7857 50.2113C85.227 49.298 79.4666 52.105 75.617 56.6885L77.9142 58.6179ZM90.2888 53.1698C90.9026 53.2751 91.5054 53.4376 92.0896 53.6552L93.1367 50.8439C92.3777 50.5612 91.5942 50.35 90.7963 50.213L90.2888 53.1698ZM108.386 54.7941C111.931 51.5397 116.198 50.529 119.48 52.0503L120.741 49.3284C116.005 47.1331 110.466 48.8116 106.357 52.5844L108.386 54.7941ZM119.478 52.0495C119.966 52.2767 120.43 52.5555 120.861 52.8813L122.671 50.4889C122.071 50.035 121.425 49.6462 120.743 49.3292L119.478 52.0495Z" fill="#050504"/>
<path d="M93.7578 95.5176C95.6345 99.9194 102.128 100.977 105.086 100.478" stroke="#050504" stroke-width="3" stroke-miterlimit="10" stroke-linecap="round"/>
<path d="M90.284 74.0367C92.2444 74.0367 93.8337 71.8502 93.8337 69.1531C93.8337 66.456 92.2444 64.2695 90.284 64.2695C88.3236 64.2695 86.7344 66.456 86.7344 69.1531C86.7344 71.8502 88.3236 74.0367 90.284 74.0367Z" fill="#050504"/>
<path d="M92.6189 67.3892C91.6686 63.7614 86.9168 63.197 83.4805 66.2159" stroke="#050504" stroke-width="3" stroke-linecap="round"/>
<path d="M118.052 72.273C120.012 72.273 121.601 70.0866 121.601 67.3894C121.601 64.6923 120.012 62.5059 118.052 62.5059C116.091 62.5059 114.502 64.6923 114.502 67.3894C114.502 70.0866 116.091 72.273 118.052 72.273Z" fill="#050504"/>
<path d="M120.387 65.6255C119.436 61.9977 114.684 61.4333 111.248 64.4522" stroke="#050504" stroke-width="3" stroke-linecap="round"/>
</g>
<defs>
<linearGradient id="paint0_linear_9986_137255" x1="2.19688e-06" y1="166.136" x2="340" y2="166.136" gradientUnits="userSpaceOnUse">
<stop stop-color="#6C79F9"/>
<stop offset="1" stop-color="#AA7BF6"/>
</linearGradient>
<clipPath id="clip0_9986_137255">
<rect width="150" height="150" fill="white"/>
</clipPath>
</defs>
</svg>
