<svg width="300" height="650" viewBox="0 0 300 650" fill="none" xmlns="http://www.w3.org/2000/svg">
<rect width="300" height="649.673" rx="20" fill="#131316"/>
<rect x="1" y="1" width="298" height="647.673" rx="19" stroke="white" stroke-opacity="0.1" stroke-width="2"/>
<rect x="20.3521" y="20.3521" width="121.197" height="18.9296" rx="9.46479" fill="#944AF2"/>
<rect x="20.3521" y="20.3521" width="121.197" height="18.9296" rx="9.46479" stroke="#944AF2" stroke-width="0.704225"/>
<path d="M33.771 27.7583C33.7007 27.0845 33.1675 26.6919 32.3062 26.6919C31.4155 26.6919 30.9175 27.1021 30.9116 27.6646C30.9058 28.2798 31.5386 28.5552 32.271 28.7192L33.0327 28.9067C34.4858 29.2407 35.5698 29.979 35.5757 31.3911C35.5698 32.9438 34.3628 33.9399 32.2944 33.9341C30.2437 33.9399 28.937 32.9907 28.8843 31.1685H30.5952C30.6538 32.0239 31.3335 32.4575 32.271 32.4575C33.1968 32.4575 33.7944 32.0239 33.7944 31.3911C33.7944 30.811 33.2671 30.5415 32.3413 30.313L31.4155 30.0903C29.9858 29.7388 29.1069 29.0239 29.1069 27.7817C29.1011 26.2407 30.4604 25.2153 32.3179 25.2153C34.1987 25.2153 35.4351 26.2583 35.4585 27.7583H33.771ZM39.5483 33.9458C37.6265 33.9399 36.4253 32.6216 36.4312 30.6528C36.4253 28.6899 37.6265 27.3716 39.5483 27.3716C41.4761 27.3716 42.6714 28.6899 42.6772 30.6528C42.6714 32.6216 41.4761 33.9399 39.5483 33.9458ZM38.189 30.6528C38.189 31.7661 38.6519 32.5923 39.5601 32.5981C40.4448 32.5923 40.9136 31.7661 40.9077 30.6528C40.9136 29.5337 40.4448 28.6958 39.5601 28.6958C38.6519 28.6958 38.189 29.5337 38.189 30.6528ZM47.1538 27.4536V28.7544H45.8882V33.8169H44.1538V28.7544H43.2515V27.4536H44.1538V26.9731C44.1538 25.6313 44.9624 24.9341 46.2397 24.9341C46.6323 24.9341 46.9663 24.9692 47.271 25.0396V26.3521C47.019 26.3286 46.8374 26.3228 46.7437 26.3169C46.187 26.3228 45.8882 26.5337 45.8882 27.0669V27.4536H47.1538ZM51.5249 27.4536V28.7544H50.3296V31.8599C50.3237 32.3696 50.5757 32.4927 50.9272 32.5044C51.103 32.5044 51.4077 32.4868 51.6187 32.4692V33.8403C51.4312 33.8696 51.1206 33.9048 50.6929 33.8989C49.439 33.9048 48.5835 33.3423 48.5952 32.106V28.7544H47.7163V27.4536H48.5952V25.9302H50.3296V27.4536H51.5249ZM53.8687 33.8169L52.1343 27.4536H53.8921L54.8882 31.7544H54.9468L55.9897 27.4536H57.7124L58.7671 31.731H58.8257L59.8101 27.4536H61.5679L59.8218 33.8169H57.9937L56.8921 29.7739H56.8101L55.7085 33.8169H53.8687ZM62.1421 32.0356C62.1479 30.6177 63.2847 30.1548 64.5093 30.0786C64.9663 30.0493 65.8218 30.0083 66.0913 29.9966V29.481C66.0854 28.9478 65.7222 28.6431 65.0718 28.6372C64.48 28.6431 64.1108 28.9067 64.0171 29.3403H62.3647C62.4702 28.2388 63.4312 27.3716 65.1187 27.3716C66.5073 27.3716 67.8198 27.9927 67.814 29.5278V33.8169H66.1733V32.938H66.1265C65.8159 33.5239 65.2065 33.9399 64.2632 33.9341C63.0444 33.9399 62.1479 33.2954 62.1421 32.0356ZM63.8062 31.9888C63.8062 32.4751 64.1987 32.7329 64.7554 32.7388C65.5464 32.7329 66.0972 32.2173 66.0913 31.5435V31.0806C65.8276 31.0923 65.0835 31.1333 64.7905 31.1567C64.187 31.2095 63.8062 31.4966 63.8062 31.9888ZM69.1382 33.8169V27.4536H70.814V28.5552H70.8843C71.1128 27.7759 71.7046 27.3599 72.4194 27.3599C72.5952 27.3599 72.8179 27.3833 72.9702 27.4185V28.9653C72.8062 28.9126 72.4722 28.8716 72.2319 28.8716C71.4468 28.8716 70.8667 29.4165 70.8726 30.1958V33.8169H69.1382ZM76.4976 33.9458C74.5464 33.9399 73.3511 32.6802 73.3569 30.6646C73.3511 28.7017 74.564 27.3716 76.4272 27.3716C78.0972 27.3716 79.4155 28.4263 79.4155 30.5942V31.0864H75.0679C75.0679 32.0474 75.6362 32.6392 76.5327 32.645C77.1245 32.6392 77.5464 32.3813 77.7163 32.0005H79.3687C79.1226 33.1782 78.0679 33.9399 76.4976 33.9458ZM75.0679 29.9966H77.7749C77.769 29.2231 77.2358 28.6665 76.4624 28.6724C75.6655 28.6665 75.103 29.2642 75.0679 29.9966ZM83.3062 33.8169V25.3325H89.0015V26.7856H85.064V28.8481H88.7085V30.3013H85.064V32.3638H89.0132V33.8169H83.3062ZM92.0718 30.1372V33.8169H90.3374V27.4536H91.9897V28.5669H92.0601C92.3472 27.8345 93.0269 27.3716 93.9702 27.3716C95.3003 27.3716 96.1675 28.2798 96.1616 29.7622V33.8169H94.439V30.0669C94.4331 29.2817 94.0112 28.813 93.2905 28.813C92.5698 28.813 92.0718 29.2993 92.0718 30.1372ZM100.369 36.3364C98.6108 36.3364 97.5269 35.5454 97.4272 34.3442H99.1382C99.2319 34.854 99.7124 35.0825 100.404 35.0825C101.207 35.0825 101.746 34.7368 101.751 33.8521V32.6919H101.669C101.441 33.2075 100.878 33.729 99.853 33.7231C98.4175 33.729 97.2632 32.7153 97.2632 30.5942C97.2632 28.4438 98.4468 27.3716 99.853 27.3716C100.919 27.3716 101.435 28.0044 101.669 28.52H101.74V27.4536H103.462V33.8872C103.457 35.5103 102.179 36.3364 100.369 36.3364ZM99.0444 30.6177C99.0386 31.7192 99.5132 32.4165 100.392 32.4224C101.259 32.4165 101.751 31.7485 101.751 30.6177C101.751 29.4868 101.265 28.7544 100.392 28.7544C99.5073 28.7544 99.0386 29.522 99.0444 30.6177ZM104.81 33.8169V27.4536H106.544V33.8169H104.81ZM104.728 25.7427C104.728 25.2505 105.156 24.8579 105.677 24.8521C106.193 24.8579 106.621 25.2505 106.615 25.7427C106.621 26.2231 106.193 26.6216 105.677 26.6216C105.156 26.6216 104.728 26.2231 104.728 25.7427ZM109.626 30.1372V33.8169H107.892V27.4536H109.544V28.5669H109.615C109.902 27.8345 110.582 27.3716 111.525 27.3716C112.855 27.3716 113.722 28.2798 113.716 29.7622V33.8169H111.994V30.0669C111.988 29.2817 111.566 28.813 110.845 28.813C110.125 28.813 109.626 29.2993 109.626 30.1372ZM117.947 33.9458C115.996 33.9399 114.8 32.6802 114.806 30.6646C114.8 28.7017 116.013 27.3716 117.876 27.3716C119.546 27.3716 120.865 28.4263 120.865 30.5942V31.0864H116.517C116.517 32.0474 117.085 32.6392 117.982 32.645C118.574 32.6392 118.996 32.3813 119.166 32.0005H120.818C120.572 33.1782 119.517 33.9399 117.947 33.9458ZM116.517 29.9966H119.224C119.218 29.2231 118.685 28.6665 117.912 28.6724C117.115 28.6665 116.552 29.2642 116.517 29.9966ZM124.837 33.9458C122.886 33.9399 121.691 32.6802 121.697 30.6646C121.691 28.7017 122.904 27.3716 124.767 27.3716C126.437 27.3716 127.755 28.4263 127.755 30.5942V31.0864H123.408C123.408 32.0474 123.976 32.6392 124.873 32.645C125.464 32.6392 125.886 32.3813 126.056 32.0005H127.708C127.462 33.1782 126.408 33.9399 124.837 33.9458ZM123.408 29.9966H126.115C126.109 29.2231 125.576 28.6665 124.802 28.6724C124.005 28.6665 123.443 29.2642 123.408 29.9966ZM128.845 33.8169V27.4536H130.521V28.5552H130.591C130.82 27.7759 131.412 27.3599 132.126 27.3599C132.302 27.3599 132.525 27.3833 132.677 27.4185V28.9653C132.513 28.9126 132.179 28.8716 131.939 28.8716C131.154 28.8716 130.574 29.4165 130.58 30.1958V33.8169H128.845Z" fill="#131316"/>
<rect x="20" y="59.6338" width="260" height="197.183" rx="8.4507" fill="black"/>
<path d="M180.723 122.905C178.558 133.012 175.959 154.668 182.889 160.444L187.58 164.775C183.792 164.234 176.653 162.797 175.469 161.042C175.725 164.578 176.275 178.427 180.723 178.13C178.436 178.371 173.574 177.119 172.419 170.189C172.178 173.197 172.057 179.646 173.502 181.379C175.308 183.544 166.282 176.325 165.921 172.716C165.632 169.828 167.004 135.659 167.726 118.935L180.723 122.905Z" fill="#140610"/>
<path d="M114.727 132.919C118.257 143.02 125.297 165.728 114 171.5L108.5 175C114.43 174.481 121.701 172.96 123.267 171.253C122.838 175.105 121.836 188.403 114.727 188.112C118.455 188.352 126.381 187.102 128.264 180.176C128.657 183.182 128.855 189.627 126.499 191.359C123.554 193.523 138.269 186.308 138.857 182.701C139.328 179.815 137.092 145.665 135.915 128.951L114.727 132.919Z" fill="#140610"/>
<path d="M106.796 194.636C101.309 178.754 121.595 173.34 132.423 172.618C153.357 157.097 185.204 186.348 189.454 194.637C196.673 208.715 179.347 228.928 167.075 237.591C154.803 246.254 113.654 214.488 106.796 194.636Z" fill="#202F72"/>
<path d="M133.431 198.074C134.469 195.165 131.807 161.855 130.509 149.976C133.625 154.34 155.29 168.861 165.57 171.164C165.462 178.922 165.83 195.165 168.167 198.074C171.089 201.71 162.648 216.983 158.428 220.984C154.208 224.984 132.132 201.71 133.431 198.074Z" fill="url(#paint0_linear_1223_1230)"/>
<mask id="mask0_1223_1230" style="mask-type:alpha" maskUnits="userSpaceOnUse" x="129" y="149" width="40" height="73">
<path d="M133.364 198.192C134.405 195.298 131.088 161.795 129.787 149.976C132.909 154.318 155.264 169.127 165.564 171.419C165.456 179.137 165.824 195.298 168.166 198.192C171.093 201.81 162.637 217.006 158.408 220.986C154.18 224.966 132.063 201.81 133.364 198.192Z" fill="#EB8682"/>
</mask>
<g mask="url(#mask0_1223_1230)">
<path d="M171.657 188.333C154.331 199.883 139.893 175.243 129.065 149.976L188.26 181.836C184.651 183.4 175.684 185.648 171.657 188.333Z" fill="url(#paint1_linear_1223_1230)"/>
</g>
<path d="M122 152C124.327 136.763 127.795 130.039 127.795 130.039C127.795 130.039 123.829 126.676 120.335 129.933C116.841 133.19 118.113 153.049 117.015 157.23C115.5 163 113.219 163.811 109.5 166.5C114.5 164.5 120.372 162.657 122 152Z" fill="url(#paint2_linear_1223_1230)"/>
<path d="M118.358 143.66C117.601 128.266 119.659 120.985 119.659 120.985C119.659 120.985 115.101 118.48 112.327 122.369C109.552 126.257 115.242 140.684 115 145C114.666 150.956 114.108 156.123 111 159.5C115.501 156.543 118.888 154.428 118.358 143.66Z" fill="url(#paint3_linear_1223_1230)"/>
<path d="M181.679 83.6746C179.881 81.7117 170.18 81.5551 165.554 81.7221C163.191 84.2232 158.415 90.2374 158.215 94.2855C157.966 99.3455 173.081 94.6311 180.247 95.4989C185.97 96.1919 184.58 138.558 184.216 149.635L184.214 149.693C185.285 144.854 188.151 133.213 188.826 129.624C189.846 124.197 194.666 108.419 193.264 104.977C191.863 101.535 183.927 86.1284 181.679 83.6746Z" fill="#140610"/>
<path d="M138.055 131.571C144.691 124.812 150.757 112.748 152.961 107.561C159.717 109.834 171.926 111.312 166.721 99.047C160.215 83.7158 122.237 88.65 110.5 98.5C101.111 106.38 114.422 137.065 120.511 144.832L134.5 155.5C135.032 154.11 136.338 152.96 135.929 149.129C135.418 144.341 129.761 140.02 138.055 131.571Z" fill="#140610"/>
<path d="M185.371 125.763C186.178 121.497 184.971 104.249 183.25 95.4354C170.25 79.6814 151.001 91.5304 141.033 95.7771C133.059 99.1745 130.605 119.844 130.375 129.754C128.956 129.461 124.88 128.046 119.984 128.496C114.5 129 115.813 129.039 114 135C112.187 140.961 120.778 148.953 123.254 152.525C125.235 155.383 131.044 156.256 133.7 156.335C134.667 159.361 133.804 157.34 136 162C139.365 169.142 151.42 175.916 158.5 177.5C165.58 179.084 170.659 181.135 176.347 170.189C177.848 167.302 180.769 165.078 182.122 160.805C182.859 158.478 185.789 147.366 186.454 138.095C186.848 132.597 184.995 127.747 185.371 125.763Z" fill="url(#paint4_linear_1223_1230)"/>
<g filter="url(#filter0_f_1223_1230)">
<ellipse cx="172.817" cy="139.586" rx="7.05584" ry="10.6185" transform="rotate(-24.4392 172.817 139.586)" fill="#E36A6F" fill-opacity="0.3"/>
</g>
<path d="M158.57 127.344L162.527 131.289C162.478 134.186 159.707 137.688 155.369 137.543C151.03 137.397 147.409 133.72 146.141 131.9C148.441 129.228 155.385 127.75 158.57 127.344Z" fill="#D9D9D9" stroke="black" stroke-width="0.721897" stroke-linecap="round"/>
<mask id="mask1_1223_1230" style="mask-type:alpha" maskUnits="userSpaceOnUse" x="145" y="126" width="18" height="12">
<path d="M158.569 127.345L162.527 131.289C162.478 134.187 159.707 137.689 155.368 137.543C151.03 137.398 147.408 133.721 146.14 131.9C148.44 129.229 155.384 127.75 158.569 127.345Z" fill="#D9D9D9" stroke="black" stroke-width="0.721897" stroke-linecap="round"/>
</mask>
<g mask="url(#mask1_1223_1230)">
<path d="M159 136.5C155.265 136.125 153.602 129.868 153.866 127.234C154.083 125.079 158.824 124.83 161.697 125.118C163.995 125.349 164.568 130.244 164.567 132.662C163.848 133.799 162.735 136.875 159 136.5Z" fill="url(#paint5_radial_1223_1230)"/>
</g>
<ellipse cx="155.361" cy="130.159" rx="1.44379" ry="0.721897" transform="rotate(5.73654 155.361 130.159)" fill="white"/>
<path d="M181.874 136.892C185.257 135.681 185.335 132.242 185.729 130.216C180.976 126.809 176.39 127.938 173.936 132.56C174.943 135.274 178.491 138.103 181.874 136.892Z" fill="#D9D9D9" stroke="black" stroke-width="0.721897" stroke-linecap="round"/>
<mask id="mask2_1223_1230" style="mask-type:alpha" maskUnits="userSpaceOnUse" x="172" y="128" width="15" height="11">
<path d="M174.375 129.008L173.065 131.183C174.072 133.897 176.933 139.021 180.315 137.81C183.698 136.599 185.333 132.243 185.728 130.216C183.016 128.273 177.029 128.601 174.375 129.008Z" fill="#D9D9D9" stroke="black" stroke-width="0.721897" stroke-linecap="round"/>
</mask>
<g mask="url(#mask2_1223_1230)">
<path d="M187.075 136.576C189.904 135.299 188.432 130.155 187.342 127.742C186.45 125.769 182.617 126.708 180.441 127.691C178.7 128.477 178.917 133.243 180.693 135.499C182.469 137.754 184.246 137.854 187.075 136.576Z" fill="url(#paint6_radial_1223_1230)"/>
</g>
<path d="M162.2 121.312L165.74 119.096L154.632 117.751L147.587 118.881L140.506 123.312C142.377 122.878 146.563 121.93 148.346 121.618C150.13 121.305 158.325 121.283 162.2 121.312Z" fill="#101010"/>
<path d="M176.02 121.513L174.299 119.189L181.095 120.012L185.072 122.08L185.831 124.585C183.358 123.02 178.932 122.313 176.02 121.513Z" fill="#101010"/>
<path d="M143 121.5C149.636 114.741 162.751 94.7376 164.955 89.5507C171.71 91.823 175.978 92.7997 170.773 80.5347C164.267 65.2035 125.736 80.65 114 90.5C104.61 98.38 113.828 120.421 119.917 128.187L130.979 144.472C131.886 149.8 132.814 154.104 134.227 154.217C137.121 154.449 134.949 146.637 136.393 143.028C138.182 138.557 134.705 129.949 143 121.5Z" fill="url(#paint7_linear_1223_1230)"/>
<path d="M175.264 158.64C168.885 159.058 160.461 158.457 156.498 157.917C158.045 160.561 163.643 162.187 168.806 162.42C172.936 162.607 174.781 160.006 175.264 158.64Z" fill="#E79795"/>
<path d="M175.626 158.64C170.255 158.725 160.467 159.361 156.499 157.917" stroke="black" stroke-width="0.721897" stroke-linecap="round"/>
<path d="M84.4183 219.639C85.2846 217.329 108.963 200.9 125.566 194.644L144.336 216.295C148.306 219.784 160.578 230.733 167.075 227.845C170.253 226.433 175.137 206.549 177.904 202.579C186.446 205.827 198.839 215.091 206.058 217.113C213.277 219.134 220.565 247.914 220.565 256.817H79.4346C79.4346 249.237 83.552 221.949 84.4183 219.639Z" fill="url(#paint8_linear_1223_1230)"/>
<path d="M180.819 96.6586C181.339 92.3586 176.771 88.0484 174.422 86.4308C178.526 82.5648 181.817 88.417 185.368 92.1193C186.872 93.6875 188.988 111.045 190.421 122.448C191.695 132.581 198.004 133.54 196.156 135.141C196.707 134.414 189.379 135.141 186.5 124.5C184.104 115.645 180.582 98.6117 180.819 96.6586Z" fill="#140610"/>
<path d="M168.5 89.9998C169.021 85.6998 167.849 82.6174 165.5 80.9998C169.604 77.1337 173.28 81.3729 176.831 85.0751C178.335 86.6434 173.472 102.635 174.905 114.038C176.179 124.17 185.578 125.209 183.73 126.81C184.281 126.083 174.88 126.141 172 115.5C169.604 106.644 168.264 91.9529 168.5 89.9998Z" fill="url(#paint9_linear_1223_1230)"/>
<path d="M175.389 89.9154C172.477 85.9961 170.44 82.6247 168.071 81.1665C172.112 77.822 185.451 82.9253 189.05 86.2364C190.574 87.6389 189.264 99.2661 187.99 109.414C183.516 122.161 194.124 129.382 192.303 130.765C192.843 130.133 179.395 124.279 176.367 114.868C173.847 107.037 176.481 91.3847 175.389 89.9154Z" fill="url(#paint10_linear_1223_1230)"/>
<path d="M124.742 136.406C124.994 136.728 126.534 140.623 127.272 142.53C127.828 143.953 126.609 144.995 125.893 144.908C125.176 144.821 124.644 146.211 124.872 147.33C125.1 148.448 125.872 151.086 124.352 151.63C122.831 152.173 116.979 143.465 116.077 141.902C115.176 140.338 115.697 136.038 116.674 133.975C117.651 131.912 118.997 132.802 120.517 132.259C122.037 131.716 124.427 136.005 124.742 136.406Z" fill="#D36266"/>
<path d="M126.772 140.652C125.671 137.732 122.807 131.955 120.158 132.216C117.509 132.477 116.463 133.708 116.271 134.29" stroke="#793033" stroke-width="0.721897" stroke-linecap="round"/>
<ellipse cx="180.602" cy="130.266" rx="1.02531" ry="0.721897" transform="rotate(6.9042 180.602 130.266)" fill="white"/>
<path d="M169.127 97.5078C166.319 84.6605 169.473 82.4425 171.833 82.9706C169.185 80.8327 166.602 80.246 164.333 83.9707C162.064 87.6954 166.419 100.31 166.827 104.5C167.884 115.341 158.502 122.472 152 127.887C161.75 125.36 172.636 113.567 169.127 97.5078Z" fill="#2E0822"/>
<path d="M160.873 99.6066C163.494 84.3913 166.205 79.2409 161.811 79.1639C167.19 77.7446 167.706 77.2186 170.702 81.4164C173.698 85.6141 166.949 104.427 164.999 108.407C163.823 110.807 164.826 123.623 168.289 127.352C161.118 126.109 159.04 110.249 160.873 99.6066Z" fill="url(#paint11_linear_1223_1230)"/>
<path d="M156.059 112.14C160.522 97.3875 160.714 91.7357 163.924 93.2508C160.627 90.0226 160.474 89.3592 156.554 92.0881C152.633 94.817 149.651 114.324 149.398 118.639C149.245 121.241 140.563 128.865 136.5 131C142.205 132.459 152.937 122.459 156.059 112.14Z" fill="url(#paint12_linear_1223_1230)"/>
<path d="M173.462 129.402C173.462 133.733 175.341 138.894 178.5 141C181.5 143 180.106 146.668 179 147.5C177.895 148.332 174.5 151 174.5 151" stroke="black" stroke-width="0.721897" stroke-linecap="round"/>
<ellipse cx="176.824" cy="142.765" rx="0.784459" ry="0.721897" transform="rotate(3.19743 176.824 142.765)" fill="#FFDCD6"/>
<path d="M172.74 149.977C172.018 149.616 170.574 149.254 168.408 149.977" stroke="black" stroke-width="0.721897" stroke-linecap="round"/>
<path d="M167.698 133.028C166.725 128.606 160.788 127.034 149.787 128.391C144.076 129.095 143.922 138.793 151.286 141.891C159.754 145.453 169.769 142.444 167.698 133.028ZM167.698 133.028C170.569 130.821 172.592 131.437 174 132M174 132C175.878 129.653 181.224 125.023 186.287 128.391C191.508 131.864 187.287 139.891 182.287 139.891C178.611 139.891 175.394 139.193 174 132Z" stroke="#28111B" stroke-width="1.40845"/>
<path d="M34.9414 283.405C34.9414 290.436 30.3418 295.241 22.373 297.292L20.9375 294.391C26.9434 292.853 30.3418 289.894 30.9277 286.305H22.4902V283.405H34.9414ZM25.332 308.19V297.848H43.1152V308.19H25.332ZM29.0527 305.26H39.4531V300.778H29.0527V305.26ZM39.3652 296.764V281.881H43.1152V296.764H39.3652ZM67.8711 281.852V288.122H71.4746V291.168H67.8711V297.321H64.1211V281.852H67.8711ZM46.543 294.889C52.417 293.336 55.7715 290.29 56.3574 286.598H47.8027V283.61H60.4297C60.4443 290.714 55.9766 295.695 48.0371 297.907L46.543 294.889ZM50.1465 303.092C50.1172 299.752 53.75 297.643 59.1699 297.643C64.6045 297.643 68.1494 299.752 68.1641 303.092C68.1494 306.461 64.6045 308.542 59.1699 308.542C53.75 308.542 50.1172 306.461 50.1465 303.092ZM53.8379 303.092C53.8232 304.704 55.8154 305.626 59.1699 305.612C62.4805 305.626 64.4727 304.704 64.4727 303.092C64.4727 301.452 62.4805 300.543 59.1699 300.543C55.8154 300.543 53.8232 301.452 53.8379 303.092ZM80.2344 282.643C84.292 282.628 87.3389 285.177 87.3535 288.737C87.3389 292.267 84.292 294.787 80.2344 294.801C76.1182 294.787 73.0566 292.267 73.0566 288.737C73.0566 285.177 76.1182 282.628 80.2344 282.643ZM76.6895 288.737C76.6602 290.641 78.1689 291.769 80.2344 291.784C82.2559 291.769 83.7354 290.641 83.75 288.737C83.7354 286.818 82.2559 285.69 80.2344 285.69C78.1836 285.69 76.6602 286.818 76.6895 288.737ZM77.0703 299.196V296.325H94.9707V303.561H80.791V305.29H95.7031V308.219H77.1289V300.836H91.25V299.196H77.0703ZM91.2207 295.211V281.852H94.9707V295.211H91.2207Z" fill="#ECECF8"/>
<path d="M31.75 335.598V340.598H27.8906V341.958H33.3906V343.567H20.4219V341.958H25.8906V340.598H22.0312V335.598H31.75ZM21.8594 346.176V344.614H31.8125V349.254H29.8281V346.176H21.8594ZM23.9844 339.036H29.7969V337.145H23.9844V339.036ZM47.2656 346.083V347.676H34.25V346.083H37.4844V343.379H35.3281V341.77H37.2344V337.77H35.2656V336.176H46.1719V337.77H44.1719V341.77H46.1094V343.379H43.9688V346.083H47.2656ZM39.2344 341.77H42.2031V337.77H39.2344V341.77ZM39.4844 346.083H41.9688V343.379H39.4844V346.083Z" fill="#ECECF8" fill-opacity="0.5"/>
<path d="M21.7871 383.634V362.423H30.1074C34.9268 362.423 37.6953 365.133 37.6953 369.337C37.6953 372.237 36.3623 374.347 33.9453 375.387L38.457 383.634H33.5938L29.5361 376.104H26.1816V383.634H21.7871ZM26.1816 372.53H29.2871C31.8945 372.53 33.1689 371.461 33.1543 369.337C33.1689 367.198 31.8945 366.041 29.2871 366.026H26.1816V372.53ZM50.8496 376.866V367.726H55.1855V383.634H51.0254V380.763H50.8496C50.1318 382.608 48.418 383.839 46.0156 383.839C42.8369 383.839 40.6543 381.583 40.6543 377.862V367.726H44.9902V377.101C44.9902 378.99 46.0742 380.162 47.7734 380.177C49.3555 380.162 50.8496 379.034 50.8496 376.866ZM62.8906 374.435V383.634H58.5547V367.726H62.6855V370.509H62.8613C63.5791 368.678 65.2783 367.521 67.6367 367.521C70.9619 367.521 73.1299 369.791 73.1152 373.497V383.634H68.8086V374.259C68.7939 372.296 67.7393 371.124 65.9375 371.124C64.1357 371.124 62.8906 372.34 62.8906 374.435ZM79.6191 383.634L75.2832 367.726H79.6777L82.168 378.478H82.3145L84.9219 367.726H89.2285L91.8652 378.419H92.0117L94.4727 367.726H98.8672L94.502 383.634H89.9316L87.1777 373.526H86.9727L84.2188 383.634H79.6191ZM100.303 379.181C100.317 375.636 103.159 374.479 106.221 374.288C107.363 374.215 109.502 374.112 110.176 374.083V372.794C110.161 371.461 109.253 370.699 107.627 370.685C106.147 370.699 105.225 371.358 104.99 372.442H100.859C101.123 369.688 103.525 367.521 107.744 367.521C111.216 367.521 114.497 369.073 114.482 372.911V383.634H110.381V381.437H110.264C109.487 382.901 107.964 383.941 105.605 383.927C102.559 383.941 100.317 382.33 100.303 379.181ZM104.463 379.063C104.463 380.279 105.444 380.924 106.836 380.938C108.813 380.924 110.19 379.635 110.176 377.95V376.793C109.517 376.822 107.656 376.925 106.924 376.983C105.415 377.115 104.463 377.833 104.463 379.063ZM119.756 389.61C118.906 389.596 118.115 389.581 117.559 389.522V386.153C118.115 386.197 118.774 386.212 119.316 386.212C120.181 386.212 120.869 386.124 121.396 384.747L121.66 384.073L115.947 367.726H120.488L123.828 379.444H124.004L127.373 367.726H131.973L125.762 385.392C124.854 387.955 123.11 389.596 119.756 389.61ZM157.549 371.622V374.405H133.145V371.622H157.549ZM135.928 378.302V375.724H154.619V382.022H139.678V383.546H155.41V386.095H135.957V379.649H150.928V378.302H135.928ZM136.133 362.687V360.138H154.59V366.407H139.912V367.843H155.059V370.362H136.191V364.034H150.84V362.687H136.133ZM190.332 373.409V376.339H165.957V373.409H176.27V371.769H169.004V360.313H187.49V363.185H172.754V364.679H186.875V367.374H172.754V368.897H187.725V371.769H180.02V373.409H190.332ZM168.799 381.935C168.799 379.122 172.168 377.54 178.145 377.569C184.019 377.54 187.402 379.122 187.432 381.935C187.402 384.806 184.019 386.344 178.145 386.329C172.168 386.344 168.799 384.806 168.799 381.935ZM172.549 381.935C172.52 383.077 174.307 383.575 178.145 383.575C181.895 383.575 183.667 383.077 183.682 381.935C183.667 380.821 181.895 380.309 178.145 380.323C174.307 380.309 172.52 380.821 172.549 381.935ZM204.805 363.741V366.7H191.914V363.741H196.543V360.401H200.234V363.741H204.805ZM192.529 374.229C192.529 370.523 195.02 367.916 198.418 367.901C201.831 367.916 204.263 370.523 204.277 374.229C204.263 377.95 201.831 380.587 198.418 380.587C195.02 380.587 192.529 377.95 192.529 374.229ZM195.811 374.229C195.811 376.266 196.865 377.423 198.418 377.423C199.912 377.423 200.981 376.266 200.996 374.229C200.981 372.223 199.912 371.007 198.418 371.007C196.865 371.007 195.811 372.223 195.811 374.229ZM205.801 385.187V360.196H209.287V370.509H211.455V359.669H215V386.329H211.455V373.497H209.287V385.187H205.801ZM227.949 365.704C227.964 370.714 229.985 375.592 234.424 377.511L232.139 380.499C229.18 379.063 227.188 376.397 226.074 373.102C224.932 376.603 222.881 379.474 219.834 380.968L217.49 377.921C222.061 375.855 224.141 370.714 224.17 365.704V361.72H227.949V365.704ZM231.436 371.065V368.048H236.68V359.669H240.371V386.388H236.68V371.065H231.436ZM264.307 361.866V374.669H251.504V361.866H264.307ZM254.58 385.86V377.218H258.301V382.872H272.832V385.86H254.58ZM255.195 371.739H260.615V364.854H255.195V371.739ZM268.115 379.122V359.669H271.865V367.345H275.469V370.421H271.865V379.122H268.115ZM45.166 406.069V408.999H20.791V406.069H45.166ZM23.6035 413.394V410.581H42.1484V417.554H27.2949V419.194H42.8516V422.095H23.6328V414.888H38.457V413.394H23.6035ZM23.8379 404.604V396.196H42.0605V399.185H27.5586V401.675H42.2656V404.604H23.8379ZM54.0723 397.544C57.6758 397.544 60.3711 400.503 60.8984 405.308H65.5273V395.669H69.2188V422.388H65.5273V408.296H60.9424C60.5469 413.423 57.793 416.558 54.0723 416.558C50.0293 416.558 47.1289 412.896 47.1582 407.036C47.1289 401.221 50.0293 397.544 54.0723 397.544ZM50.7324 407.036C50.7178 411.006 52.0801 413.174 54.0723 413.159C56.0791 413.174 57.4121 411.006 57.4121 407.036C57.4121 403.081 56.0791 400.913 54.0723 400.913C52.0801 400.913 50.7178 403.081 50.7324 407.036ZM83.0469 400.942C83.0322 404.121 85.0244 407.373 89.4043 408.706L87.5 411.636C84.5117 410.684 82.417 408.765 81.2158 406.362C80 408.999 77.832 411.094 74.6973 412.134L72.7637 409.204C77.2021 407.783 79.2383 404.312 79.2383 400.942V400.562H73.7598V397.573H88.4082V400.562H83.0469V400.942ZM77.0996 421.86V413.218H80.8789V418.872H95.6738V421.86H77.0996ZM91.2207 414.976V395.698H94.9707V414.976H91.2207ZM129.893 416.147V419.224H105.488V416.147H115.771V410.698H108.066V397.632H127.168V410.698H119.492V416.147H129.893ZM111.758 407.769H123.477V400.62H111.758V407.769ZM154.473 395.698V409.644H150.928V395.698H154.473ZM132.559 408.97V396.958H142.959V399.888H136.279V406.011C139.253 405.981 141.318 405.879 143.721 405.483L143.955 408.442C141.055 408.896 138.594 408.97 134.404 408.97H132.559ZM136.074 413.423V410.493H154.473V417.583H139.824V419.106H155.264V422.036H136.104V414.8H150.811V413.423H136.074ZM141.406 404.077V401.265H145.596V396.138H149.111V409.526H145.596V404.077H141.406ZM168.799 419.634H164.053L171.406 398.423H177.061L184.385 419.634H179.668L178.071 414.741H170.396L168.799 419.634ZM171.509 411.313H176.958L174.307 403.198H174.16L171.509 411.313ZM186.787 419.634V398.423H195.107C199.927 398.423 202.695 401.396 202.695 405.571C202.695 409.805 199.883 412.72 194.99 412.72H191.182V419.634H186.787ZM191.182 409.175H194.287C196.895 409.175 198.169 407.71 198.154 405.571C198.169 403.462 196.895 402.041 194.287 402.026H191.182V409.175ZM209.873 398.423V419.634H205.479V398.423H209.873ZM236.826 407.622V410.405H212.422V407.622H236.826ZM215.205 414.302V411.724H233.896V418.022H218.955V419.546H234.688V422.095H215.234V415.649H230.205V414.302H215.205ZM215.41 398.687V396.138H233.867V402.407H219.189V403.843H234.336V406.362H215.469V400.034H230.117V398.687H215.41ZM25.332 455.634H20.5859L27.9395 434.423H33.5938L40.918 455.634H36.2012L34.6045 450.741H26.9287L25.332 455.634ZM28.042 447.313H33.4912L30.8398 439.198H30.6934L28.042 447.313ZM43.2324 461.61V439.726H47.5098V442.392H47.6855C48.2861 441.103 49.5459 439.521 52.2266 439.521C55.7422 439.521 58.6865 442.245 58.6719 447.694C58.6865 453.012 55.8594 455.897 52.2266 455.897C49.6338 455.897 48.3008 454.403 47.6855 453.085H47.5684V461.61H43.2324ZM47.4805 447.665C47.4658 450.536 48.6963 452.426 50.8496 452.44C53.0615 452.426 54.2627 450.478 54.248 447.665C54.2627 444.896 53.0908 442.978 50.8496 442.978C48.6816 442.978 47.4658 444.809 47.4805 447.665ZM61.4844 461.61V439.726H65.7617V442.392H65.9375C66.5381 441.103 67.7979 439.521 70.4785 439.521C73.9941 439.521 76.9385 442.245 76.9238 447.694C76.9385 453.012 74.1113 455.897 70.4785 455.897C67.8857 455.897 66.5527 454.403 65.9375 453.085H65.8203V461.61H61.4844ZM65.7324 447.665C65.7178 450.536 66.9482 452.426 69.1016 452.44C71.3135 452.426 72.5146 450.478 72.5 447.665C72.5146 444.896 71.3428 442.978 69.1016 442.978C66.9336 442.978 65.7178 444.809 65.7324 447.665ZM84.0723 434.423V455.634H79.7363V434.423H84.0723ZM87.4414 455.634V439.726H91.7773V455.634H87.4414ZM87.2363 435.448C87.2363 434.218 88.3057 433.236 89.6094 433.222C90.8984 433.236 91.9678 434.218 91.9531 435.448C91.9678 436.649 90.8984 437.646 89.6094 437.646C88.3057 437.646 87.2363 436.649 87.2363 435.448ZM102.295 455.956C97.417 455.941 94.4873 452.572 94.502 447.724C94.4873 442.86 97.4756 439.521 102.295 439.521C106.396 439.521 109.18 441.908 109.355 445.556H105.283C105.02 443.988 103.994 442.904 102.354 442.89C100.273 442.904 98.8965 444.647 98.8965 447.665C98.8965 450.741 100.244 452.499 102.354 452.499C103.877 452.499 105.005 451.547 105.283 449.862H109.355C109.165 453.466 106.514 455.941 102.295 455.956ZM111.289 451.181C111.304 447.636 114.146 446.479 117.207 446.288C118.35 446.215 120.488 446.112 121.162 446.083V444.794C121.147 443.461 120.239 442.699 118.613 442.685C117.134 442.699 116.211 443.358 115.977 444.442H111.846C112.109 441.688 114.512 439.521 118.73 439.521C122.202 439.521 125.483 441.073 125.469 444.911V455.634H121.367V453.437H121.25C120.474 454.901 118.95 455.941 116.592 455.927C113.545 455.941 111.304 454.33 111.289 451.181ZM115.449 451.063C115.449 452.279 116.431 452.924 117.822 452.938C119.8 452.924 121.177 451.635 121.162 449.95V448.793C120.503 448.822 118.643 448.925 117.91 448.983C116.401 449.115 115.449 449.833 115.449 451.063ZM137.158 439.726V442.978H134.17V450.741C134.155 452.016 134.785 452.323 135.664 452.353C136.104 452.353 136.865 452.309 137.393 452.265V455.692C136.924 455.766 136.147 455.854 135.078 455.839C131.943 455.854 129.805 454.447 129.834 451.356V442.978H127.637V439.726H129.834V435.917H134.17V439.726H137.158ZM139.883 455.634V439.726H144.219V455.634H139.883ZM139.678 435.448C139.678 434.218 140.747 433.236 142.051 433.222C143.34 433.236 144.409 434.218 144.395 435.448C144.409 436.649 143.34 437.646 142.051 437.646C140.747 437.646 139.678 436.649 139.678 435.448ZM154.736 455.956C149.932 455.941 146.929 452.646 146.943 447.724C146.929 442.816 149.932 439.521 154.736 439.521C159.556 439.521 162.544 442.816 162.559 447.724C162.544 452.646 159.556 455.941 154.736 455.956ZM151.338 447.724C151.338 450.507 152.495 452.572 154.766 452.587C156.978 452.572 158.149 450.507 158.135 447.724C158.149 444.926 156.978 442.831 154.766 442.831C152.495 442.831 151.338 444.926 151.338 447.724ZM169.619 446.435V455.634H165.283V439.726H169.414V442.509H169.59C170.308 440.678 172.007 439.521 174.365 439.521C177.69 439.521 179.858 441.791 179.844 445.497V455.634H175.537V446.259C175.522 444.296 174.468 443.124 172.666 443.124C170.864 443.124 169.619 444.34 169.619 446.435ZM212.217 431.669V458.329H208.613V444.765H206.182V457.157H202.695V432.372H206.182V441.776H208.613V431.669H212.217ZM188.896 450.272C194.331 447.079 196.675 443.168 197.173 437.938H190.244V434.95H200.82C200.806 442.392 198.579 448.485 191.064 452.851L188.896 450.272ZM219.658 432.87V436.034H225.107V432.87H228.857V444.501H215.938V432.87H219.658ZM218.604 449.13V446.229H236.299V453.466H222.324V455.194H237.061V458.153H218.662V450.8H232.578V449.13H218.604ZM219.658 441.571H225.107V438.847H219.658V441.571ZM232.549 445.233V431.669H236.299V436.854H239.902V439.872H236.299V445.233H232.549ZM264.189 431.669V458.329H260.615V431.669H264.189ZM241.309 443.212C241.309 437.25 243.579 433.559 247.109 433.573C250.317 433.559 252.515 436.562 252.925 441.542H255.107V432.05H258.623V457.099H255.107V444.501H252.954C252.632 449.73 250.391 452.909 247.109 452.909C243.579 452.909 241.309 449.203 241.309 443.212ZM244.766 443.212C244.736 447.313 245.615 449.335 247.109 449.306C248.647 449.335 249.556 447.313 249.541 443.212C249.556 439.125 248.647 437.089 247.109 437.089C245.615 437.089 244.736 439.125 244.766 443.212ZM30.6055 473.704C30.5908 478.479 32.627 483.299 36.9043 485.364L34.6484 488.353C31.792 486.932 29.8584 484.295 28.7598 481.087C27.5879 484.529 25.5371 487.356 22.5195 488.851L20.2051 485.833C24.7314 483.753 26.8555 478.655 26.8555 473.704V469.72H30.6055V473.704ZM38.0762 494.329V467.669H41.8262V477.952H45.752V481.116H41.8262V494.329H38.0762ZM71.0352 480.296V483.284H46.7188V480.296H52.1973V477.103C50.249 476.238 49.1504 474.92 49.1504 473.206C49.1504 469.983 52.9443 468.064 58.877 468.05C64.7656 468.064 68.5596 469.983 68.5742 473.206C68.5596 474.949 67.4316 476.282 65.4395 477.132V480.296H71.0352ZM49.502 489.466C49.502 486.39 53.0029 484.676 58.8477 484.69C64.6045 484.676 68.1055 486.39 68.1348 489.466C68.1055 492.615 64.6045 494.3 58.8477 494.3C53.0029 494.3 49.502 492.615 49.502 489.466ZM53.0469 473.206C53.0176 474.671 55.1123 475.418 58.877 475.403C62.5977 475.418 64.707 474.671 64.707 473.206C64.707 471.712 62.5977 470.921 58.877 470.921C55.1123 470.921 53.0176 471.712 53.0469 473.206ZM53.3105 489.466C53.2959 490.828 55.1562 491.517 58.8477 491.517C62.4658 491.517 64.3701 490.828 64.3848 489.466C64.3701 488.147 62.4658 487.518 58.8477 487.503C55.1562 487.518 53.2959 488.147 53.3105 489.466ZM55.9766 480.296H61.7188V478.055C60.8398 478.172 59.8877 478.216 58.877 478.216C57.8369 478.216 56.8701 478.157 55.9766 478.055V480.296ZM93.6816 467.669V478.099H97.6074V481.175H93.6816V494.329H89.9902V467.669H93.6816ZM72.5 474.642V471.653H78.5352V468.079H82.2852V471.653H88.1738V474.642H72.5ZM73.584 482.493C73.5693 478.772 76.4697 476.121 80.4102 476.136C84.292 476.121 87.207 478.772 87.207 482.493C87.207 486.214 84.292 488.836 80.4102 488.851C76.4697 488.836 73.5693 486.214 73.584 482.493ZM77.1582 482.493C77.1582 484.559 78.5205 485.789 80.4102 485.774C82.2705 485.789 83.6328 484.559 83.6328 482.493C83.6328 480.442 82.2705 479.183 80.4102 479.153C78.5205 479.183 77.1582 480.442 77.1582 482.493ZM120.225 474.935V477.864H101.592V468.606H105.312V474.935H120.225ZM98.5449 483.665V480.735H122.949V483.665H98.5449ZM101.357 493.743V485.833H105.107V490.755H120.4V493.743H101.357ZM141.23 473.704C141.216 478.479 143.252 483.299 147.529 485.364L145.273 488.353C142.417 486.932 140.483 484.295 139.385 481.087C138.213 484.529 136.162 487.356 133.145 488.851L130.83 485.833C135.356 483.753 137.48 478.655 137.48 473.704V469.72H141.23V473.704ZM148.701 494.329V467.669H152.451V477.952H156.377V481.116H152.451V494.329H148.701ZM178.496 467.698V473.997H182.1V477.103H178.496V483.519H174.746V467.698H178.496ZM158.281 471.976V468.987H170.527V477.103H162.031V479.505C166.426 479.476 169.414 479.344 172.812 478.743L173.223 481.673C169.399 482.42 165.972 482.552 160.566 482.552H158.311V474.29H166.895V471.976H158.281ZM161.035 494.036V484.632H178.496V494.036H161.035ZM164.697 491.048H174.834V487.562H164.697V491.048ZM205.596 467.669V481.995H201.846V467.669H205.596ZM183.682 475.11C183.682 471.36 186.816 468.753 190.977 468.782C195.122 468.753 198.257 471.36 198.271 475.11C198.257 478.743 195.122 481.351 190.977 481.351C186.816 481.351 183.682 478.743 183.682 475.11ZM187.344 475.11C187.314 477.088 188.838 478.274 190.977 478.274C193.057 478.274 194.565 477.088 194.58 475.11C194.565 473.104 193.057 471.873 190.977 471.888C188.838 471.873 187.314 473.104 187.344 475.11ZM187.754 494.036V483.167H191.445V485.657H201.875V483.167H205.596V494.036H187.754ZM191.445 491.019H201.875V488.558H191.445V491.019ZM231.611 467.669V494.329H227.891V467.669H231.611ZM210.635 487.737V470.218H214.326V484.559C217.93 484.5 221.797 484.163 225.723 483.401L226.191 486.478C221.519 487.459 217.095 487.752 212.979 487.737H210.635ZM256.162 467.669V477.571H260.088V480.618H256.162V494.388H252.412V467.669H256.162ZM236.182 487.913V470.13H248.691V473.147H239.902V484.837C243.77 484.808 246.963 484.603 250.508 483.987L250.918 487.122C246.772 487.825 243.14 487.928 238.438 487.913H236.182ZM264.512 491.897C263.135 491.897 262.021 490.799 262.051 489.437C262.021 488.089 263.135 486.99 264.512 487.005C265.815 486.99 266.943 488.089 266.943 489.437C266.943 490.799 265.815 491.897 264.512 491.897Z" fill="#ECECF8"/>
<defs>
<filter id="filter0_f_1223_1230" x="161.034" y="125.485" width="23.5659" height="28.2019" filterUnits="userSpaceOnUse" color-interpolation-filters="sRGB">
<feFlood flood-opacity="0" result="BackgroundImageFix"/>
<feBlend mode="normal" in="SourceGraphic" in2="BackgroundImageFix" result="shape"/>
<feGaussianBlur stdDeviation="2" result="effect1_foregroundBlur_1223_1230"/>
</filter>
<linearGradient id="paint0_linear_1223_1230" x1="141" y1="181.5" x2="157.5" y2="229" gradientUnits="userSpaceOnUse">
<stop stop-color="#FBBFB4"/>
<stop offset="1" stop-color="#EA8F7F"/>
</linearGradient>
<linearGradient id="paint1_linear_1223_1230" x1="160" y1="174.5" x2="161.5" y2="191" gradientUnits="userSpaceOnUse">
<stop stop-color="#E79795"/>
<stop offset="1" stop-color="#E79795" stop-opacity="0"/>
</linearGradient>
<linearGradient id="paint2_linear_1223_1230" x1="124.154" y1="127.764" x2="112.944" y2="175.44" gradientUnits="userSpaceOnUse">
<stop stop-color="#060204"/>
<stop offset="1" stop-color="#2E0822"/>
</linearGradient>
<linearGradient id="paint3_linear_1223_1230" x1="115.636" y1="119.482" x2="114.157" y2="168.435" gradientUnits="userSpaceOnUse">
<stop stop-color="#060204"/>
<stop offset="1" stop-color="#2E0822"/>
</linearGradient>
<linearGradient id="paint4_linear_1223_1230" x1="177" y1="136" x2="145.902" y2="178.624" gradientUnits="userSpaceOnUse">
<stop stop-color="#FFD3CB"/>
<stop offset="1" stop-color="#FFB2A4"/>
</linearGradient>
<radialGradient id="paint5_radial_1223_1230" cx="0" cy="0" r="1" gradientUnits="userSpaceOnUse" gradientTransform="translate(160 130.5) rotate(135) scale(4.94975 5.11474)">
<stop stop-color="#4B3F47"/>
<stop offset="1" stop-color="#1C1519"/>
</radialGradient>
<radialGradient id="paint6_radial_1223_1230" cx="0" cy="0" r="1" gradientUnits="userSpaceOnUse" gradientTransform="translate(184.5 130.5) rotate(114.444) scale(6.04152 5.24743)">
<stop stop-color="#4B3F47"/>
<stop offset="1" stop-color="#1C1519"/>
</radialGradient>
<linearGradient id="paint7_linear_1223_1230" x1="144.096" y1="72.8451" x2="134.243" y2="154.22" gradientUnits="userSpaceOnUse">
<stop stop-color="#060204"/>
<stop offset="1" stop-color="#2E0822"/>
</linearGradient>
<linearGradient id="paint8_linear_1223_1230" x1="150" y1="194.644" x2="150" y2="256.817" gradientUnits="userSpaceOnUse">
<stop offset="0.411458" stop-color="#202F72"/>
<stop offset="1" stop-color="#0D1021"/>
</linearGradient>
<linearGradient id="paint9_linear_1223_1230" x1="177.797" y1="79.2055" x2="172.201" y2="125.414" gradientUnits="userSpaceOnUse">
<stop stop-color="#090207"/>
<stop offset="1" stop-color="#2E0822"/>
</linearGradient>
<linearGradient id="paint10_linear_1223_1230" x1="183.254" y1="81.3135" x2="177.483" y2="128.97" gradientUnits="userSpaceOnUse">
<stop stop-color="#080306"/>
<stop offset="1" stop-color="#2E0822"/>
</linearGradient>
<linearGradient id="paint11_linear_1223_1230" x1="166.936" y1="78.1502" x2="163.398" y2="126.998" gradientUnits="userSpaceOnUse">
<stop stop-color="#060204"/>
<stop offset="1" stop-color="#2E0822"/>
</linearGradient>
<linearGradient id="paint12_linear_1223_1230" x1="160.642" y1="90.4823" x2="142.786" y2="136.087" gradientUnits="userSpaceOnUse">
<stop stop-color="#060204"/>
<stop offset="1" stop-color="#2E0822"/>
</linearGradient>
</defs>
</svg>
