<svg width="300" height="600" viewBox="0 0 300 600" fill="none" xmlns="http://www.w3.org/2000/svg">
<rect x="0.5" y="0.5" width="299" height="599" rx="19.5" fill="black"/>
<rect x="20" y="46" width="260" height="197.183" rx="8.4507" fill="url(#paint0_linear_17_3619)" fill-opacity="0.5"/>
<path d="M105.279 128.451C101.054 107.888 115.257 87.4894 121.83 85.8463C145.423 63.6632 181.754 83.4648 189.501 103.183C197.247 122.901 182.04 133.734 196.124 143.593C210.209 153.452 198.589 152.043 193.307 159.79C188.026 167.536 185.913 161.198 193.307 168.945C200.702 176.691 190.843 191.48 185.913 196.41C180.984 201.339 159.859 186.55 160.563 200.987C161.267 215.423 147.885 193.593 140.491 208.734C133.096 223.874 129.224 204.86 121.83 200.987C114.435 197.113 109.505 211.55 105.28 205.212C101.056 198.874 88.0253 190.423 99.645 177.395C111.265 164.367 110.561 154.156 105.279 128.451Z" fill="#060107"/>
<mask id="mask0_17_3619" style="mask-type:alpha" maskUnits="userSpaceOnUse" x="96" y="77" width="108" height="138">
<path d="M106.341 128.345C102.116 107.782 116.319 87.3835 122.892 85.7403C146.485 63.5572 158.102 89.2614 165.849 108.98C173.595 128.698 183.102 133.628 197.187 143.487C211.271 153.346 199.651 151.937 194.37 159.684C189.088 167.43 186.975 161.092 194.37 168.839C201.764 176.585 191.905 191.374 186.975 196.304C182.046 201.233 160.921 186.444 161.625 200.881C162.33 215.317 148.947 193.487 141.553 208.628C134.158 223.768 130.286 204.754 122.892 200.881C115.498 197.007 110.567 211.444 106.343 205.106C102.118 198.768 89.0876 190.317 100.707 177.289C112.327 164.261 111.623 154.05 106.341 128.345Z" fill="#060107"/>
</mask>
<g mask="url(#mask0_17_3619)">
<path d="M117.733 104.401C121.395 100.176 124.658 81.0444 125.831 72.0068C121.043 73.1336 98.7186 113.791 88.155 133.979V197.711C90.1503 197.007 95.3381 193.556 100.127 185.387C106.113 175.176 108.93 168.134 113.507 159.331C118.084 150.528 109.986 135.739 108.93 125.176C107.874 114.612 113.155 109.683 117.733 104.401Z" fill="#250B2B"/>
</g>
<path d="M218 243.183C217.653 231.078 204.572 197.965 191.576 190.877C168.185 181.47 130.195 185.343 111.478 190.878C98.1509 194.818 78.3839 227.37 82.5712 243.183H218Z" fill="#993B3B"/>
<path d="M133.449 192.324C137.955 189.789 144.717 166.738 141.548 152.184C148.707 152.184 163.755 152.465 165.942 153.865C169.365 156.057 159.505 175.423 167.956 189.859C167.956 189.859 163.999 220.155 156 219.655C148.001 219.155 128.942 194.859 133.449 192.324Z" fill="#D67967"/>
<mask id="mask1_17_3619" style="mask-type:alpha" maskUnits="userSpaceOnUse" x="132" y="152" width="36" height="63">
<path d="M133.45 192.324C137.957 189.788 144.718 166.737 141.549 152.183C148.709 152.183 163.757 152.464 165.944 153.865C169.366 156.056 159.507 175.422 167.958 189.859L155.381 214.78C149.395 208.677 128.943 194.859 133.45 192.324Z" fill="#D67967"/>
</mask>
<g mask="url(#mask1_17_3619)">
<path d="M170.522 153.513L175.451 183.091C175.451 183.091 168.761 187.668 152.564 171.471C136.367 155.274 132.494 150.344 132.494 150.344L136.719 140.133L170.522 153.513Z" fill="#AA585E"/>
</g>
<path d="M117.701 94.9224C125.025 65.9084 150.8 71.5656 162.772 78.021C171.503 73.796 174.157 79.7815 174.393 83.3024L156.436 153.725C148.923 151.612 133.124 145.204 130.025 136.471C126.152 125.556 108.546 131.19 117.701 94.9224Z" fill="#060107"/>
<path d="M188.11 151.338C190.299 153.803 192.38 161.832 188.11 164.014C184.665 165.775 180.088 159.436 181.849 153.803" stroke="white" stroke-width="0.704225" stroke-linecap="round"/>
<path d="M189.702 87.7247C183.223 78.1472 159.773 80.5641 153.787 85.611C146.04 95.4698 165.824 102.161 168.641 109.556C170.895 115.471 175.214 134.321 177.092 143.006C178.618 140.424 181.958 131.035 187.238 123.288C189.35 112.372 196.181 97.3021 189.702 87.7247Z" fill="#060107"/>
<path d="M188.541 117.978C189.386 112.907 189.245 106.005 178.681 91.92C168.118 77.8355 143.12 93.3299 138.543 99.6679C133.965 106.006 133.965 129.597 132.555 128.541C131.144 127.485 128.329 126.781 125.16 129.597C121.991 132.414 123.048 140.161 123.752 145.09C124.456 150.02 130.09 151.781 132.555 153.541C134.526 154.95 139.714 155.536 142.062 155.654C144.498 161.671 168.726 172.458 176.12 168.76C183.514 165.063 183.125 163.088 186.389 153.541C189.131 145.521 190.304 136.366 188.541 131.436C186.893 126.83 187.484 124.316 188.541 117.978Z" fill="#D67967"/>
<path d="M135.662 138.233C136.719 139.993 135.312 141.402 133.903 142.81C132.017 144.697 134.26 146.331 134.256 146.331C132.849 149.147 132.493 148.795 127.916 146.331C123.338 143.866 123.691 135.768 127.212 133.303C130.733 130.838 134.606 136.472 135.662 138.233Z" fill="#B15A46"/>
<path d="M138.778 151.338C140.967 153.803 143.047 161.832 138.778 164.014C135.332 165.775 130.755 159.436 132.516 153.803" stroke="white" stroke-width="0.704225" stroke-linecap="round"/>
<path d="M163.049 149.567C177.133 152.728 178.777 151.21 181.711 149.567C181.429 149.003 180.185 148.801 179.598 147.894C179.246 147.542 178.19 148.502 177.485 148.854C176.922 149.136 175.608 148.481 174.669 148.246L163.049 149.567Z" fill="#933C42"/>
<path d="M151.311 123.603C153.207 121.043 154.787 121.612 156.999 120.759C158.755 120.082 162.68 122.403 164.598 123.356C165.817 124.186 166.502 127.33 166.502 128.183C166.502 129.036 162.349 130.183 159.502 130.183H159.491C156.65 130.183 154.999 130.183 153.523 129.86C152.033 129.535 149.415 126.163 151.311 123.603Z" fill="#EDF1FA"/>
<mask id="mask2_17_3619" style="mask-type:alpha" maskUnits="userSpaceOnUse" x="150" y="120" width="17" height="11">
<path d="M151.311 123.603C153.207 121.043 154.787 121.612 156.999 120.759C158.755 120.082 162.68 122.403 164.598 123.356C165.817 124.186 166.502 127.33 166.502 128.183C166.502 129.036 162.349 130.183 159.502 130.183H159.491C156.65 130.183 154.999 130.183 153.523 129.86C152.033 129.535 149.415 126.163 151.311 123.603Z" fill="#EDF1FA"/>
</mask>
<g mask="url(#mask2_17_3619)">
<path d="M158.805 127.922C157.524 125.137 157.962 123.101 158.806 120.922C160.072 119.202 166.607 120.842 167.24 122.218C167.873 123.594 167.724 127.595 165.805 129.422C163.274 131.831 160.704 132.051 158.805 127.922Z" fill="url(#paint1_linear_17_3619)"/>
</g>
<path d="M153.524 129.892C151.752 128.791 150.642 126.752 150.748 125.261C151.816 122.937 154.737 122.802 156.5 122.272C159.747 121.294 164 122.771 166.5 124.683C164.5 120.683 157.706 119.137 153.91 120.788C150.113 122.44 149.797 121.477 149.164 120.788C149.481 122.165 149.918 123.373 151.942 122.272C151.31 123.304 150.234 125.282 148.462 124.732C146.691 124.182 146.106 123.885 146 123.885C148.779 125.605 149.544 125.605 149.797 125.605C150.113 125.605 150.431 126.796 150.748 127.484C151.064 128.172 151.944 129.204 153.524 129.892Z" fill="#060107"/>
<ellipse cx="159.452" cy="124.799" rx="0.949108" ry="0.688011" fill="white"/>
<path d="M186.623 124.612C185.629 122.766 184.801 123.177 183.641 122.562C182.721 122.073 180.663 123.747 179.658 124.434C179.018 125.033 179.003 127.484 179.003 128.099C179.003 128.714 180.819 130.139 182.311 130.139C183.804 130.139 184.801 129.74 185.464 129.125C186.126 128.509 187.618 126.458 186.623 124.612Z" fill="#EDF1FA"/>
<mask id="mask3_17_3619" style="mask-type:alpha" maskUnits="userSpaceOnUse" x="179" y="122" width="8" height="9">
<path d="M186.621 124.612C185.627 122.766 184.799 123.177 183.639 122.562C182.719 122.073 180.661 123.747 179.656 124.434C179.017 125.033 179.001 127.484 179.001 128.099C179.001 128.714 180.817 130.139 182.31 130.139C183.802 130.139 184.799 129.74 185.462 129.125C186.124 128.509 187.616 126.458 186.621 124.612Z" fill="#EDF1FA"/>
</mask>
<g mask="url(#mask3_17_3619)">
<path d="M185.862 129.744C187.741 130.72 187.616 124.907 187.596 123.275C187.275 121.905 183.275 120.62 181.767 122.901C180.259 125.183 181.299 129.075 182.5 129.827C184.589 131.136 185.656 129.637 185.862 129.744Z" fill="url(#paint2_linear_17_3619)"/>
</g>
<path d="M185.464 129.147C186.393 128.354 186.975 126.883 186.92 125.808C186.36 124.132 185.523 123.462 184.599 123.079C182.897 122.374 179.911 124.46 178.8 125.371C179.795 123.635 183.272 121.392 185.262 122.583C187.253 123.774 187.418 123.079 187.75 122.583C187.584 123.575 187.5 123.683 186.294 123.652C186.625 124.397 187.251 125.768 188.18 125.371C189.109 124.974 189.353 124.816 189.409 124.816C188.486 125.808 187.551 126.056 187.418 126.056C187.253 126.056 187.086 126.915 186.92 127.411C186.754 127.907 186.293 128.651 185.464 129.147Z" fill="#060107"/>
<ellipse cx="0.75" cy="0.5" rx="0.75" ry="0.5" transform="matrix(-1 0 0 1 183 125.183)" fill="white"/>
<path d="M178 127.183C178 131.183 181.981 134.514 183.227 134.577C184.473 134.641 185.5 140.183 179.5 141.683" stroke="#401109" stroke-width="0.704225" stroke-linecap="round"/>
<path d="M158.55 110.415C170.945 100.837 169.114 90.4616 166.649 86.471C166.649 71.985 145.872 79.4288 132.492 89.64C119.111 99.8513 129.675 112.879 132.492 128.372C135.308 143.865 147.987 148.091 141.297 139.64C134.607 131.189 143.057 122.387 158.55 110.415Z" fill="#060107"/>
<path d="M146.976 121.189C157.995 107.485 164.746 111.601 166.744 115.372C158.772 113.108 160.111 114.251 156.18 115.063C154.229 115.466 149.216 119.213 146.976 121.189Z" fill="#28111B"/>
<path d="M178.469 116.779C181.44 115.699 186.646 114.627 188.483 116.778C187.842 115.156 186.014 114.358 183.547 113.937C181.081 113.516 179.315 114.35 178.469 116.779Z" fill="#28111B"/>
<path d="M173 140.841C175.061 139.914 176.571 140.076 177 140.655C177 141.234 176.32 141.474 175.713 140.655C175.505 140.375 173.61 140.841 173 140.841Z" fill="#3A2323"/>
<path d="M173.887 151.417C178.658 151.715 179.45 150.628 181.359 149.559C179.246 151.671 178.454 155.382 175.725 155.545C171.259 155.81 168.331 154.136 163.049 149.559C165.162 149.911 171.326 151.257 173.887 151.417Z" fill="#AB4C53"/>
<circle cx="179.705" cy="137.887" r="0.704225" fill="white"/>
<circle cx="149.5" cy="130.683" r="0.5" fill="#060107"/>
<path d="M167.401 112.255C172.343 102.152 169.022 84.0223 161.462 81.6322C164.548 80.6493 171.166 83.3694 175.126 89.5384C180.524 97.9479 178.154 106.165 176.814 111.923L167.401 112.255Z" fill="#060107"/>
<path d="M186.261 120.448C191.742 109.521 179.71 91.7945 173.645 86.606C176.376 86.32 183.514 86.9961 190.221 91.9881C196.928 96.98 196.121 116.18 194.242 122.848L186.261 120.448Z" fill="#060107"/>
<path d="M30.6597 263.205H29.353V275.556H30.6597V263.205ZM20.8803 268.445C20.8803 271.106 22.2076 272.784 24.0713 272.778C25.9006 272.784 27.2486 271.106 27.2486 268.445C27.2486 265.811 25.9006 264.133 24.0713 264.126C22.2076 264.133 20.8803 265.811 20.8803 268.445ZM22.1457 268.445C22.1388 266.512 22.9228 265.302 24.0713 265.295C25.1992 265.302 25.9832 266.512 25.9832 268.445C25.9832 270.405 25.1992 271.608 24.0713 271.608C22.9228 271.608 22.1388 270.405 22.1457 268.445ZM43.8914 269.518H32.6128V270.563H43.8914V269.518ZM34.0295 264.511H41.168V265.557H34.057V268.583H42.7223V267.578H35.3499V266.519H42.4747V263.48H34.0295V264.511ZM34.112 275.377H42.4884V271.567H34.112V275.377ZM35.4049 274.318V272.613H41.1955V274.318H35.4049Z" fill="#ECECF8" fill-opacity="0.7"/>
<path d="M33.0392 283.293H30.943V298.346H33.0392V283.293ZM21.2379 286.248H26.239V288.674H21.2544V294.83H22.6078C25.3477 294.83 27.5842 294.74 30.0517 294.302L29.8702 292.602C27.6667 292.965 25.7273 293.081 23.4331 293.097V290.341H28.3847V284.548H21.2379V286.248ZM39.0966 284.349C36.7941 284.349 35.1271 286.421 35.1353 289.697C35.1271 292.998 36.7941 295.061 39.0966 295.061C41.3908 295.061 43.0496 292.998 43.0579 289.697C43.0496 286.421 41.3908 284.349 39.0966 284.349ZM37.1655 289.697C37.1655 287.469 37.9495 286.248 39.0966 286.248C40.2685 286.248 41.036 287.469 41.0442 289.697C41.036 291.934 40.2685 293.155 39.0966 293.147C37.9495 293.155 37.1655 291.934 37.1655 289.697ZM44.7909 298.313H46.9036V290.704H49.1153V288.954H46.9036V283.293H44.7909V298.313Z" fill="#ECECF8"/>
<path d="M30.7284 318.419H22.3795V319.451H29.4218V322.834H30.7284V318.419ZM20.6327 314.169C20.6258 315.923 22.0081 317.16 23.865 317.154C24.9103 317.16 25.8044 316.755 26.382 316.081H29.4218V317.773H30.7284V310.51H29.4218V312.271H26.382C25.8112 311.597 24.9103 311.191 23.865 311.198C22.0081 311.191 20.6258 312.429 20.6327 314.169ZM21.8844 314.169C21.8775 313.069 22.7096 312.305 23.865 312.298C24.9722 312.305 25.8181 313.069 25.8181 314.169C25.8181 315.297 24.9722 316.046 23.865 316.053C22.7096 316.046 21.8775 315.297 21.8844 314.169ZM26.9528 315.008C27.0285 314.747 27.0698 314.465 27.0698 314.169C27.0698 313.88 27.0285 313.605 26.9597 313.344H29.4218V315.008H26.9528ZM42.3096 310.469H41.003V317.25H42.3096V314.43H44.1115V313.357H42.3096V310.469ZM32.6403 312.587H39.9851V311.556H36.9729V310.4H35.6663V311.556H32.6403V312.587ZM33.3143 315.077C33.3074 316.328 34.504 317.092 36.3127 317.085C38.1214 317.092 39.2974 316.328 39.2974 315.077C39.2974 313.832 38.1214 313.055 36.3127 313.055C34.504 313.055 33.3074 313.832 33.3143 315.077ZM34.3458 318.804H41.0167V319.767H34.3733V322.71H42.736V321.72H35.6525V320.688H42.3096V317.828H34.3458V318.804ZM34.5797 315.077C34.5659 314.41 35.2468 313.997 36.3127 313.99C37.3718 313.997 38.0595 314.41 38.0733 315.077C38.0595 315.744 37.3718 316.136 36.3127 316.136C35.2468 316.136 34.5659 315.744 34.5797 315.077ZM58.6499 316.095H55.5001V312.683H58.5261V311.624H54.1934V317.14H58.6499V316.095ZM48.2378 321.294H59.5164V320.235H54.4685V317.731H53.1894V320.235H48.2378V321.294ZM49.1731 317.14H49.9021C51.2087 317.147 52.3228 317.112 53.6433 316.823L53.5332 315.737C52.4673 315.978 51.5045 316.053 50.4798 316.067V312.697H53.4232V311.638H49.1731V317.14ZM70.3824 314.114H63.1888V310.95H61.8959V315.159H70.3824V314.114ZM60.3967 317.759H71.6753V316.713H60.3967V317.759ZM61.7996 322.545H70.4649V321.472H63.1063V318.928H61.7996V322.545ZM80.5881 312.725V312.381H83.2978V311.322H76.5031V312.381H79.2677V312.725C79.2608 314.396 78.078 316.005 76.1592 316.672L76.8332 317.676C78.298 317.16 79.3915 316.101 79.9486 314.767C80.5056 316.005 81.5785 316.975 82.9952 317.442L83.6691 316.425C81.7641 315.826 80.5881 314.306 80.5881 312.725ZM77.8923 319.629H84.9345V322.834H86.2412V318.57H77.8923V319.629ZM84.9345 317.951H86.2412V310.51H84.9345V317.951ZM91.9218 313.22V313.11H94.0399V312.064H91.9218V310.648H90.6839V312.064H88.5382V313.11H90.6839V313.22C90.677 314.712 89.8242 316.122 88.2631 316.755L88.882 317.718C90.0787 317.229 90.9039 316.308 91.3372 315.187C91.7773 316.218 92.5889 317.064 93.7511 317.511L94.37 316.521C92.802 315.964 91.9218 314.609 91.9218 313.22ZM90.3263 319.739H97.4098V322.834H98.7027V318.68H90.3263V319.739ZM94.8102 318.006H96.0618V314.815H97.4648V318.061H98.7027V310.524H97.4648V313.743H96.0618V310.73H94.8102V318.006Z" fill="#ECECF8" fill-opacity="0.7"/>
<rect x="20.4294" y="328.53" width="124.753" height="26.0117" rx="13.0058" fill="#170330"/>
<path d="M35.5216 347.536C39.1692 347.536 41.3727 345.283 41.3644 341.544C41.3727 337.822 39.1692 335.586 35.5711 335.586H31.3127V347.536H35.5216ZM33.7885 345.406V337.715H35.4391C37.7003 337.715 38.8887 338.887 38.8887 341.544C38.8887 344.226 37.7003 345.406 35.4225 345.406H33.7885ZM42.6849 345.027C42.6931 346.801 43.9558 347.709 45.6723 347.701C47.001 347.709 47.8593 347.123 48.2967 346.298H48.3627V347.536H50.6734V341.495C50.6817 339.333 48.8331 338.458 46.8772 338.458C44.5005 338.458 43.147 339.679 42.9985 341.231H45.3257C45.4578 340.62 45.9777 340.249 46.8112 340.24C47.7272 340.249 48.2389 340.678 48.2472 341.429V342.155C47.8675 342.171 46.6626 342.229 46.0189 342.27C44.2941 342.378 42.6931 343.03 42.6849 345.027ZM45.0286 344.961C45.0286 344.268 45.565 343.863 46.4151 343.789C46.8277 343.756 47.8758 343.698 48.2472 343.682V344.334C48.2554 345.283 47.4797 346.009 46.3655 346.017C45.5815 346.009 45.0286 345.646 45.0286 344.961ZM57.259 338.573H55.5755V336.428H53.1327V338.573H51.8948V340.405H53.1327V345.126C53.1162 346.867 54.3211 347.659 56.0872 347.651C56.6896 347.659 57.127 347.61 57.3911 347.569V345.638C57.094 345.662 56.6648 345.687 56.4173 345.687C55.9221 345.671 55.5672 345.497 55.5755 344.779V340.405H57.259V338.573ZM58.3649 345.027C58.3731 346.801 59.6358 347.709 61.3523 347.701C62.681 347.709 63.5393 347.123 63.9767 346.298H64.0427V347.536H66.3534V341.495C66.3617 339.333 64.5131 338.458 62.5572 338.458C60.1805 338.458 58.827 339.679 58.6785 341.231H61.0057C61.1378 340.62 61.6577 340.249 62.4912 340.24C63.4073 340.249 63.9189 340.678 63.9272 341.429V342.155C63.5475 342.171 62.3427 342.229 61.699 342.27C59.9742 342.378 58.3731 343.03 58.3649 345.027ZM60.7086 344.961C60.7086 344.268 61.2451 343.863 62.0951 343.789C62.5077 343.756 63.5558 343.698 63.9272 343.682V344.334C63.9354 345.283 63.1597 346.009 62.0456 346.017C61.2616 346.009 60.7086 345.646 60.7086 344.961ZM78.6499 339.002H81.0266C80.9936 336.89 79.2523 335.421 76.6032 335.421C73.9871 335.421 72.0725 336.865 72.0808 339.035C72.0808 340.785 73.3187 341.792 75.3323 342.287L76.6362 342.601C77.9402 342.922 78.6829 343.302 78.6829 344.119C78.6829 345.01 77.8411 345.621 76.5372 345.621C75.2168 345.621 74.2595 345.01 74.1769 343.805H71.7672C71.8415 346.372 73.6818 347.709 76.5702 347.701C79.4834 347.709 81.1834 346.306 81.1917 344.119C81.1834 342.13 79.6567 341.09 77.61 340.62L76.5372 340.356C75.5056 340.125 74.6143 339.737 74.6226 338.87C74.6308 338.078 75.3323 337.5 76.5867 337.5C77.7999 337.5 78.5508 338.053 78.6499 339.002ZM86.787 347.717C89.1637 347.709 90.6575 346.314 90.7648 344.284H88.4705C88.3137 345.233 87.6783 345.77 86.82 345.77C85.6316 345.77 84.8724 344.779 84.8724 343.046C84.8724 341.346 85.6481 340.364 86.82 340.356C87.7443 340.364 88.322 340.975 88.4705 341.858H90.7648C90.6657 339.803 89.0977 338.458 86.787 338.458C84.0719 338.458 82.3883 340.339 82.3966 343.079C82.3883 345.811 84.0389 347.709 86.787 347.717ZM92.2832 347.536H94.726V338.573H92.2832V347.536ZM92.1677 336.164C92.1677 336.84 92.7702 337.401 93.5046 337.401C94.2309 337.401 94.8333 336.84 94.8251 336.164C94.8333 335.47 94.2309 334.917 93.5046 334.909C92.7702 334.917 92.1677 335.47 92.1677 336.164ZM100.684 347.717C102.896 347.709 104.382 346.636 104.728 344.977H102.401C102.162 345.514 101.567 345.877 100.734 345.885C99.4713 345.877 98.6708 345.043 98.6708 343.69H104.794V342.997C104.794 339.943 102.937 338.458 100.585 338.458C97.9611 338.458 96.2528 340.331 96.261 343.096C96.2528 345.935 97.9363 347.709 100.684 347.717ZM98.6708 342.155C98.7203 341.123 99.5126 340.282 100.635 340.29C101.724 340.282 102.475 341.066 102.484 342.155H98.6708ZM108.772 342.353C108.772 341.173 109.473 340.488 110.489 340.488C111.504 340.488 112.098 341.148 112.106 342.254V347.536H114.532V341.825C114.541 339.737 113.319 338.458 111.446 338.458C110.117 338.458 109.16 339.11 108.756 340.141H108.656V338.573H106.329V347.536H108.772V342.353ZM121.151 338.573H119.467V336.428H117.025V338.573H115.787V340.405H117.025V345.126C117.008 346.867 118.213 347.659 119.979 347.651C120.582 347.659 121.019 347.61 121.283 347.569V345.638C120.986 345.662 120.557 345.687 120.309 345.687C119.814 345.671 119.459 345.497 119.467 344.779V340.405H121.151V338.573ZM122.686 347.536H125.129V338.573H122.686V347.536ZM122.57 336.164C122.57 336.84 123.173 337.401 123.907 337.401C124.634 337.401 125.236 336.84 125.228 336.164C125.236 335.47 124.634 334.917 123.907 334.909C123.173 334.917 122.57 335.47 122.57 336.164ZM132.144 341.231H134.438C134.306 339.531 132.903 338.458 130.642 338.458C128.331 338.458 126.854 339.531 126.862 341.247C126.854 342.576 127.728 343.451 129.437 343.789L130.922 344.086C131.764 344.259 132.144 344.548 132.144 345.01C132.144 345.588 131.549 345.943 130.658 345.951C129.758 345.943 129.189 345.58 129.074 344.878H126.614C126.821 346.628 128.24 347.709 130.658 347.717C133.043 347.709 134.628 346.529 134.636 344.763C134.628 343.475 133.786 342.7 132.044 342.336L130.443 342.006C129.593 341.833 129.28 341.519 129.288 341.115C129.28 340.57 129.882 340.199 130.675 340.191C131.492 340.199 132.036 340.603 132.144 341.231Z" fill="#944AF2"/>
<rect x="20.4294" y="328.53" width="124.753" height="26.0117" rx="13.0058" stroke="#944AF2" stroke-width="0.858811"/>
<path d="M28.2746 385.535H21.4305V389.056H24.1483V390.013H20.2971V391.147H29.43V390.013H25.5568V389.056H28.2746V385.535ZM21.3094 392.984H26.9212V395.152H28.3187V391.884H21.3094V392.984ZM22.8059 387.956V386.624H26.8992V387.956H22.8059ZM39.2011 392.918H36.8794V391.015H38.3869V389.881H37.0224V387.064H38.4309V385.942H30.7504V387.064H32.1369V389.881H30.7945V391.015H32.3129V392.918H30.0352V394.041H39.2011V392.918ZM33.5453 389.881V387.064H35.636V389.881H33.5453ZM33.7214 392.918V391.015H35.471V392.918H33.7214Z" fill="#ECECF8" fill-opacity="0.5"/>
<path d="M35.9375 402.98H33.5352V420.753H35.9375V402.98ZM21.0742 416.789H22.3047C24.9121 416.789 26.6992 416.701 28.7109 416.3L28.5156 414.269C26.8555 414.601 25.4102 414.708 23.5156 414.728V406.984H27.8711V404.992H21.0742V416.789ZM26.6602 411.496H29.8438V419.953H32.168V403.292H29.8438V409.464H26.6602V411.496ZM52.6953 402.98H50.1758V420.792H52.6953V402.98ZM38.3398 410.558C38.3301 414.464 40.3125 416.906 43.0469 416.906C45.7227 416.906 47.7148 414.464 47.7148 410.558C47.7148 406.681 45.7227 404.23 43.0469 404.23C40.3125 404.23 38.3301 406.681 38.3398 410.558ZM40.7422 410.558C40.7324 407.921 41.6602 406.476 43.0469 406.476C44.3945 406.476 45.3027 407.921 45.3125 410.558C45.3027 413.205 44.3945 414.65 43.0469 414.64C41.6602 414.65 40.7324 413.205 40.7422 410.558ZM70.0977 402.98H67.6367V409.25H64.5117V411.261H67.6367V420.792H70.0977V402.98ZM55.918 416.769H57.3242C60.3711 416.759 62.6953 416.671 65.293 416.281L65.0391 414.289C62.8418 414.63 60.8691 414.718 58.3984 414.738V411.378H63.5742V409.425H58.3984V406.476H64.2188V404.464H55.918V416.769ZM88.6328 410.949H72.3633V412.804H88.6328V410.949ZM74.2188 415.402H84.2188V416.3H74.2383V420.597H87.207V418.898H76.7188V417.882H86.6797V413.683H74.2188V415.402ZM74.3555 404.992H84.1602V405.89H74.3945V410.109H86.9727V408.429H76.875V407.472H86.6602V403.292H74.3555V404.992ZM110.527 412.101H94.2578V414.054H101.367V416.925H103.828V414.054H110.527V412.101ZM96.1719 420.441H108.73V418.449H98.6328V415.519H96.1719V420.441ZM96.3477 410.851H108.418V403.546H105.938V405.402H98.8086V403.546H96.3477V410.851ZM98.8086 408.878V407.257H105.938V408.878H98.8086ZM118.223 405.753V403.898H115.703V405.597C115.693 408.029 114.424 410.353 111.445 411.3L112.793 413.292C114.795 412.58 116.191 411.203 116.973 409.445C117.725 411.056 119.033 412.335 120.938 412.98L122.266 411.007C119.453 410.119 118.213 407.97 118.223 405.753ZM114.336 416.339H124.062V420.753H126.543V414.367H114.336V416.339ZM120.723 408.332H124.062V413.566H126.543V402.98H124.062V406.281H120.723V408.332ZM142.871 402.98H140.41V420.753H142.871V411.984H145.488V409.933H142.871V402.98ZM128.75 407.628H139.199V405.636H135.273V403.253H132.773V405.636H128.75V407.628ZM129.473 412.863C129.463 415.343 131.396 417.091 134.023 417.101C136.611 417.091 138.555 415.343 138.555 412.863C138.555 410.382 136.611 408.615 134.023 408.625C131.396 408.615 129.463 410.382 129.473 412.863ZM131.855 412.863C131.855 411.496 132.764 410.656 134.023 410.636C135.264 410.656 136.172 411.496 136.172 412.863C136.172 414.24 135.264 415.06 134.023 415.05C132.764 415.06 131.855 414.24 131.855 412.863ZM160.781 404.523H147.812V406.496H158.281C158.271 408.585 158.242 411.085 157.559 414.445L160.059 414.699C160.771 410.929 160.771 408.429 160.781 406.203V404.523ZM146.133 418.585H162.344V416.554H154.414V410.441H151.934V416.554H146.133V418.585ZM184.297 416.632H177.363V413H182.48V404.289H169.746V413H174.883V416.632H168.027V418.683H184.297V416.632ZM172.207 411.046V406.281H180.02V411.046H172.207ZM200.684 403H198.32V412.296H200.684V403ZM186.074 411.847H187.305C190.098 411.847 191.738 411.798 193.672 411.496L193.516 409.523C191.914 409.787 190.537 409.855 188.555 409.875V405.792H193.008V403.839H186.074V411.847ZM188.418 414.816H198.242V415.734H188.438V420.558H201.211V418.605H190.918V417.589H200.684V412.863H188.418V414.816ZM191.973 408.585H194.766V412.218H197.109V403.292H194.766V406.71H191.973V408.585ZM210.703 403.234C206.602 403.234 204.219 404.308 204.219 406.261C204.219 408.244 206.602 409.308 210.703 409.308C214.795 409.308 217.158 408.244 217.168 406.261C217.158 404.308 214.795 403.234 210.703 403.234ZM202.598 412.121H218.809V410.148H202.598V412.121ZM204.473 414.972H214.375V415.949H204.492V420.636H217.305V418.761H206.934V417.687H216.836V413.156H204.473V414.972ZM206.836 406.261C206.826 405.47 208.096 405.05 210.703 405.05C213.33 405.05 214.59 405.47 214.59 406.261C214.59 407.13 213.33 407.472 210.703 407.472C208.096 407.472 206.826 407.13 206.836 406.261ZM29.5898 430.445H21.0547V438.98H29.5898V430.445ZM23.1055 446.441H35.2734V444.449H25.5859V440.679H23.1055V446.441ZM23.5156 437.027V432.437H27.1289V437.027H23.5156ZM32.1289 441.949H34.6289V436.148H37.0312V434.097H34.6289V428.98H32.1289V441.949ZM54.0625 436.695H37.8125V438.687H54.0625V436.695ZM39.7656 446.5H52.0703V439.664H49.5703V441.128H42.207V439.664H39.7656V446.5ZM39.7852 435.464H52.2852V433.472H42.2656V431.46H52.1094V429.41H39.7852V435.464ZM42.207 444.507V443.042H49.5703V444.507H42.207ZM70.0391 428.98H67.5586V446.753H70.0391V428.98ZM56.0547 442.359H57.6172C60.3613 442.369 63.3105 442.173 66.4258 441.519L66.1133 439.468C63.4961 439.976 60.918 440.201 58.5156 440.24V430.679H56.0547V442.359ZM86.4062 428.98H83.9062V446.792H86.4062V437.613H89.0234V435.582H86.4062V428.98ZM73.0859 442.476H74.5898C77.7246 442.486 80.1465 442.417 82.9102 441.949L82.6367 439.859C80.2734 440.269 78.1445 440.406 75.5664 440.425V432.632H81.4258V430.621H73.0859V442.476ZM91.9727 445.132C92.8418 445.132 93.5938 444.4 93.5938 443.492C93.5938 442.593 92.8418 441.861 91.9727 441.871C91.0547 441.861 90.3125 442.593 90.332 443.492C90.3125 444.4 91.0547 445.132 91.9727 445.132ZM114.395 436.617H110.449V432.457H114.258V430.464H107.949V438.589H114.395V436.617ZM99.2773 444.683H115.547V442.671H108.574V439.371H106.113V442.671H99.2773V444.683ZM100.527 438.589H101.66C103.779 438.599 105.322 438.57 107.129 438.199L106.953 436.167C105.625 436.421 104.424 436.529 103.027 436.568V432.457H106.836V430.464H100.527V438.589ZM130.664 429H128.164V442.261H130.664V436.48H133.066V434.449H130.664V429ZM116.562 432.828H127.109V430.855H123.086V428.96H120.605V430.855H116.562V432.828ZM117.422 436.89C117.422 438.941 119.248 440.289 121.836 440.289C124.414 440.289 126.211 438.941 126.211 436.89C126.211 434.83 124.414 433.453 121.836 433.453C119.248 433.453 117.422 434.83 117.422 436.89ZM119.141 446.441H131.309V444.449H121.621V441.246H119.141V446.441ZM119.863 436.89C119.854 435.904 120.645 435.357 121.836 435.347C123.037 435.357 123.848 435.904 123.848 436.89C123.848 437.867 123.037 438.394 121.836 438.394C120.645 438.394 119.854 437.867 119.863 436.89ZM147.52 430.445H138.984V438.98H147.52V430.445ZM141.035 446.441H153.203V444.449H143.516V440.679H141.035V446.441ZM141.445 437.027V432.437H145.059V437.027H141.445ZM150.059 441.949H152.559V436.148H154.961V434.097H152.559V428.98H150.059V441.949ZM171.992 435.914H155.742V437.867H171.992V435.914ZM157.617 440.796H167.52V441.792H157.637V446.597H170.449V444.664H160.078V443.57H169.98V438.921H157.617V440.796ZM157.773 434.937H170.059V432.984H160.254V431.324H169.922V429.332H157.773V434.937ZM177.93 430.23C175.234 430.23 173.301 432.681 173.32 436.558C173.301 440.464 175.234 442.906 177.93 442.906C180.41 442.906 182.246 440.816 182.51 437.398H185.566V446.792H188.027V428.98H185.566V435.406H182.48C182.129 432.203 180.332 430.23 177.93 430.23ZM175.703 436.558C175.693 433.921 176.602 432.476 177.93 432.476C179.268 432.476 180.156 433.921 180.156 436.558C180.156 439.205 179.268 440.65 177.93 440.64C176.602 440.65 175.693 439.205 175.703 436.558ZM197.246 432.496V432.242H200.82V430.25H191.055V432.242H194.707V432.496C194.707 434.742 193.35 437.056 190.391 438.003L191.68 439.957C193.77 439.263 195.215 437.867 196.025 436.109C196.826 437.71 198.223 438.99 200.215 439.625L201.484 437.671C198.564 436.783 197.236 434.615 197.246 432.496ZM193.281 446.441H205.664V444.449H195.801V440.679H193.281V446.441ZM202.695 441.851H205.195V429H202.695V441.851ZM228.477 442.632H221.543V439H226.66V430.289H213.926V439H219.062V442.632H212.207V444.683H228.477V442.632ZM216.387 437.046V432.281H224.199V437.046H216.387ZM244.863 429H242.5V438.296H244.863V429ZM230.254 437.847H231.484C234.277 437.847 235.918 437.798 237.852 437.496L237.695 435.523C236.094 435.787 234.717 435.855 232.734 435.875V431.792H237.188V429.839H230.254V437.847ZM232.598 440.816H242.422V441.734H232.617V446.558H245.391V444.605H235.098V443.589H244.863V438.863H232.598V440.816ZM236.152 434.585H238.945V438.218H241.289V429.292H238.945V432.71H236.152V434.585ZM254.883 429.234C250.781 429.234 248.398 430.308 248.398 432.261C248.398 434.244 250.781 435.308 254.883 435.308C258.975 435.308 261.338 434.244 261.348 432.261C261.338 430.308 258.975 429.234 254.883 429.234ZM246.777 438.121H262.988V436.148H246.777V438.121ZM248.652 440.972H258.555V441.949H248.672V446.636H261.484V444.761H251.113V443.687H261.016V439.156H248.652V440.972ZM251.016 432.261C251.006 431.47 252.275 431.05 254.883 431.05C257.51 431.05 258.77 431.47 258.77 432.261C258.77 433.13 257.51 433.472 254.883 433.472C252.275 433.472 251.006 433.13 251.016 432.261ZM35.4102 455H32.9102V467.773H35.4102V455ZM20.8008 460.605C20.8008 463.251 22.9297 465.117 25.6641 465.117C28.3887 465.117 30.5176 463.251 30.5273 460.605C30.5176 457.998 28.3887 456.123 25.6641 456.132C22.9297 456.123 20.8008 457.998 20.8008 460.605ZM23.2422 460.605C23.2227 459.16 24.2676 458.291 25.6641 458.3C27.0117 458.291 28.0566 459.16 28.0664 460.605C28.0566 462.089 27.0117 462.949 25.6641 462.949C24.2676 462.949 23.2227 462.089 23.2422 460.605ZM23.4961 472.441H35.8789V470.449H26.0156V466.484H23.4961V472.441ZM54.082 468.613H37.8125V470.683H54.082V468.613ZM39.082 458.535H41.543V463.925H39.1602V465.878H52.6367V463.925H50.2148V458.535H52.7148V456.542H39.082V458.535ZM44.043 463.925V458.535H47.7539V463.925H44.043ZM69.1211 454.98H66.6602V472.792H69.1211V463.75H71.7383V461.699H69.1211V454.98ZM55.8203 458.476H61.5625V461.386H55.8398V468.652H57.3438C60.4688 468.652 62.9102 468.544 65.625 468.046L65.4102 466.054C63.0469 466.455 60.9082 466.572 58.3203 466.582V463.359H64.043V456.464H55.8203V458.476ZM83.8867 459.824V458.73H87.5977V456.699H77.5586V458.73H81.3281V459.824C81.3281 462.832 79.8047 466.123 76.8555 467.441L78.2812 469.414C80.3809 468.447 81.8555 466.494 82.6562 464.16C83.457 466.308 84.9023 468.076 86.9922 468.964L88.3398 467.011C85.3613 465.771 83.877 462.695 83.8867 459.824ZM89.3555 472.753H91.875V454.98H89.3555V472.753ZM101.094 457.5V455.8H98.4961V457.5C98.4961 459.765 97.1875 462.08 94.2188 463.027L95.4688 464.98C97.5586 464.306 99.0039 462.919 99.8047 461.171C100.596 462.792 102.002 464.062 104.023 464.707L105.273 462.753C102.344 461.875 101.074 459.716 101.094 457.5ZM96.9336 468.339H106.66V472.753H109.16V466.347H96.9336V468.339ZM106.66 465.585H109.16V454.98H106.66V465.585ZM115.84 465.371H113.535V472.558H120.059V471.181L121.074 472.714C122.52 472.158 123.496 471.132 124.082 469.892C124.648 471.171 125.635 472.187 127.168 472.714L128.457 470.859C126.23 470.136 125.361 468.417 125.371 466.601V465.234H122.871V466.601C122.871 468.212 122.031 469.873 120.059 470.771V465.371H117.754V467.148H115.84V465.371ZM111.797 459.824C111.777 462.304 113.789 464.042 116.523 464.042C118.789 464.042 120.605 462.763 121.084 460.839H124.062V464.394H126.543V454.98H124.062V458.789H121.074C120.586 456.904 118.779 455.654 116.523 455.644C113.789 455.654 111.777 457.382 111.797 459.824ZM114.16 459.824C114.15 458.515 115.127 457.705 116.523 457.695C117.871 457.705 118.838 458.515 118.848 459.824C118.838 461.171 117.871 462.001 116.523 462.011C115.127 462.001 114.15 461.171 114.16 459.824ZM115.84 470.664V468.984H117.754V470.664H115.84ZM143.73 454.98H141.211V472.792H143.73V454.98ZM129.375 462.558C129.365 466.464 131.348 468.906 134.082 468.906C136.758 468.906 138.75 466.464 138.75 462.558C138.75 458.681 136.758 456.23 134.082 456.23C131.348 456.23 129.365 458.681 129.375 462.558ZM131.777 462.558C131.768 459.921 132.695 458.476 134.082 458.476C135.43 458.476 136.338 459.921 136.348 462.558C136.338 465.205 135.43 466.65 134.082 466.64C132.695 466.65 131.768 465.205 131.777 462.558ZM153.594 456.562H151.25V468.535H158.32V456.562H156.016V460.566H153.594V456.562ZM153.594 466.542V462.519H156.016V466.542H153.594ZM159.805 471.933H162.168V463.789H163.77V472.753H166.152V454.98H163.77V461.757H162.168V455.234H159.805V471.933ZM184.297 468.691H177.344V465.488H182.852V463.535H180.43V458.457H182.93V456.464H169.297V458.457H171.758V463.535H169.375V465.488H174.863V468.691H168.027V470.781H184.297V468.691ZM174.258 463.535V458.457H177.969V463.535H174.258ZM189.062 469.511H186.289L185.312 475.078H187.383L189.062 469.511ZM201.738 459.003V456.347H199.219V459.003C199.199 462.343 197.812 465.771 194.766 467.148L196.328 469.179C198.359 468.183 199.727 466.269 200.488 463.935C201.23 466.132 202.559 467.91 204.531 468.867L206.055 466.875C203.096 465.595 201.748 462.343 201.738 459.003ZM204.062 462.578H207.559V472.792H210.02V454.98H207.559V460.566H204.062V462.578ZM215.664 456.054H213.203V464.492H221.875V456.054H219.395V458.398H215.664V456.054ZM215.02 469.355C215.01 471.513 217.354 472.763 221.133 472.753C224.893 472.763 227.227 471.513 227.246 469.355C227.227 467.177 224.893 465.908 221.133 465.898C217.354 465.908 215.01 467.177 215.02 469.355ZM215.664 462.519V460.312H219.395V462.519H215.664ZM217.52 469.355C217.52 468.31 218.74 467.802 221.133 467.812C223.506 467.802 224.775 468.31 224.785 469.355C224.775 470.322 223.506 470.859 221.133 470.859C218.74 470.859 217.52 470.322 217.52 469.355ZM224.688 465.625H227.188V455H224.688V465.625ZM243.613 454.98H241.152V472.753H243.613V463.984H246.23V461.933H243.613V454.98ZM229.492 459.628H239.941V457.636H236.016V455.253H233.516V457.636H229.492V459.628ZM230.215 464.863C230.205 467.343 232.139 469.091 234.766 469.101C237.354 469.091 239.297 467.343 239.297 464.863C239.297 462.382 237.354 460.615 234.766 460.625C232.139 460.615 230.205 462.382 230.215 464.863ZM232.598 464.863C232.598 463.496 233.506 462.656 234.766 462.636C236.006 462.656 236.914 463.496 236.914 464.863C236.914 466.24 236.006 467.06 234.766 467.05C233.506 467.06 232.598 466.24 232.598 464.863ZM261.523 456.523H248.555V458.496H259.023C259.014 460.585 258.984 463.085 258.301 466.445L260.801 466.699C261.514 462.929 261.514 460.429 261.523 458.203V456.523ZM246.875 470.585H263.086V468.554H255.156V462.441H252.676V468.554H246.875V470.585ZM35.4102 481H32.9102V490.843H35.4102V481ZM20.4688 488.636L21.6602 490.589C23.7891 489.945 25.2441 488.587 26.0547 486.869C26.8652 488.46 28.2812 489.691 30.332 490.296L31.5234 488.324C28.6133 487.523 27.3242 485.433 27.3438 483.324V481.605H24.7461V483.324C24.7461 485.521 23.4375 487.738 20.4688 488.636ZM23.1445 498.558H35.6641V496.566H33.3789V493.617H35.5078V491.644H23.3008V493.617H25.4492V496.566H23.1445V498.558ZM27.9102 496.566V493.617H30.918V496.566H27.9102ZM42.168 491.644H39.707V498.558H51.9727V491.644H49.4922V493.148H42.168V491.644ZM37.8125 490.746H54.0234V488.734H37.8125V490.746ZM38.6133 486L39.5117 487.953C42.5391 487.562 44.7656 486.292 45.918 484.574C47.0605 486.292 49.2871 487.562 52.3438 487.953L53.2227 486C49.248 485.55 47.207 483.539 47.207 481.761V481.156H44.6484V481.761C44.6289 483.587 42.5781 485.521 38.6133 486ZM42.168 496.605V495.042H49.4922V496.605H42.168ZM70.0391 480.98H67.5586V498.753H70.0391V480.98ZM56.0547 494.359H57.6172C60.3613 494.369 63.3105 494.173 66.4258 493.519L66.1133 491.468C63.4961 491.976 60.918 492.201 58.5156 492.24V482.679H56.0547V494.359ZM86.4062 480.98H83.9062V498.792H86.4062V489.613H89.0234V487.582H86.4062V480.98ZM73.0859 494.476H74.5898C77.7246 494.486 80.1465 494.417 82.9102 493.949L82.6367 491.859C80.2734 492.269 78.1445 492.406 75.5664 492.425V484.632H81.4258V482.621H73.0859V494.476ZM91.9727 497.132C92.8418 497.132 93.5938 496.4 93.5938 495.492C93.5938 494.593 92.8418 493.861 91.9727 493.871C91.0547 493.861 90.3125 494.593 90.332 495.492C90.3125 496.4 91.0547 497.132 91.9727 497.132Z" fill="#ECECF8"/>
<rect x="0.5" y="0.5" width="299" height="599" rx="19.5" stroke="#282B30"/>
<defs>
<linearGradient id="paint0_linear_17_3619" x1="150" y1="46" x2="150" y2="243.183" gradientUnits="userSpaceOnUse">
<stop stop-color="#FF9F92"/>
<stop offset="1" stop-color="#DF0D0D" stop-opacity="0"/>
</linearGradient>
<linearGradient id="paint1_linear_17_3619" x1="163.262" y1="119.438" x2="163.262" y2="133.584" gradientUnits="userSpaceOnUse">
<stop stop-color="#392C11"/>
<stop offset="1" stop-color="#060107"/>
</linearGradient>
<linearGradient id="paint2_linear_17_3619" x1="185.713" y1="122.468" x2="183.253" y2="131.649" gradientUnits="userSpaceOnUse">
<stop offset="0.0001" stop-color="#392C11"/>
<stop offset="1" stop-color="#140817"/>
</linearGradient>
</defs>
</svg>
