<svg width="300" height="600" viewBox="0 0 300 600" fill="none" xmlns="http://www.w3.org/2000/svg">
<rect width="300" height="600" rx="20" fill="#1C1B20"/>
<rect x="20" y="46" width="260" height="197.183" rx="8.4507" fill="url(#paint0_linear_988_3404)" fill-opacity="0.5"/>
<path d="M105.278 132.268C101.053 111.705 115.256 91.3063 121.829 89.6631C145.422 67.48 181.754 87.2817 189.5 107C197.246 126.718 182.039 137.551 196.124 147.41C210.208 157.269 198.588 155.86 193.307 163.607C188.025 171.353 185.912 165.015 193.307 172.762C200.701 180.508 190.842 195.297 185.912 200.227C180.983 205.156 159.858 190.367 160.562 204.803C161.267 219.24 147.884 197.41 140.49 212.55C133.095 227.691 129.223 208.677 121.829 204.803C114.435 200.93 109.504 215.367 105.28 209.029C101.055 202.691 88.0246 194.24 99.6443 181.212C111.264 168.184 110.56 157.972 105.278 132.268Z" fill="#060107"/>
<mask id="mask0_988_3404" style="mask-type:alpha" maskUnits="userSpaceOnUse" x="96" y="81" width="108" height="138">
<path d="M106.341 132.162C102.116 111.599 116.319 91.2004 122.892 89.5572C146.484 67.3741 158.102 93.0783 165.848 112.797C173.595 132.515 183.102 137.444 197.186 147.304C211.271 157.163 199.651 155.754 194.369 163.501C189.088 171.247 186.975 164.909 194.369 172.656C201.764 180.402 191.904 195.191 186.975 200.121C182.045 205.05 160.921 190.261 161.625 204.697C162.329 219.134 148.947 197.304 141.552 212.445C134.158 227.585 130.286 208.571 122.892 204.697C115.497 200.824 110.567 215.261 106.342 208.923C102.118 202.585 89.0871 194.134 100.707 181.106C112.327 168.078 111.623 157.866 106.341 132.162Z" fill="#060107"/>
</mask>
<g mask="url(#mask0_988_3404)">
<path d="M117.732 108.218C121.394 103.993 124.657 84.8613 125.831 75.8237C121.042 76.9505 98.7179 117.608 88.1543 137.796V201.528C90.1496 200.824 95.3374 197.373 100.126 189.204C106.112 178.993 108.929 171.95 113.506 163.148C118.084 154.345 109.986 139.556 108.929 128.993C107.873 118.429 113.155 113.5 117.732 108.218Z" fill="#250B2B"/>
</g>
<path d="M208.822 243.183C208.522 232.719 197.206 204.095 185.965 197.967C165.73 189.836 132.866 193.183 116.675 197.968C105.146 201.374 88.0469 229.513 91.6692 243.183H208.822Z" fill="#372A46"/>
<path d="M133.448 196.141C137.955 193.606 144.716 170.554 141.547 156C148.707 156 163.755 156.282 165.942 157.682C169.364 159.874 159.505 179.239 167.956 193.676C167.956 193.676 163.998 223.972 156 223.472C148.001 222.972 128.941 198.676 133.448 196.141Z" fill="#D67967"/>
<mask id="mask1_988_3404" style="mask-type:alpha" maskUnits="userSpaceOnUse" x="132" y="156" width="36" height="63">
<path d="M133.45 196.141C137.957 193.605 144.718 170.554 141.549 156C148.709 156 163.757 156.281 165.944 157.682C169.366 159.873 159.507 179.239 167.957 193.676L155.38 218.597C149.394 212.494 128.943 198.676 133.45 196.141Z" fill="#D67967"/>
</mask>
<g mask="url(#mask1_988_3404)">
<path d="M170.52 157.33L175.45 186.907C175.45 186.907 168.76 191.485 152.563 175.288C136.365 159.091 132.492 154.161 132.492 154.161L136.718 143.95L170.52 157.33Z" fill="#AA585E"/>
</g>
<path d="M117.702 98.7393C125.025 69.7253 150.8 75.3825 162.772 81.8379C171.503 77.6129 174.158 83.5984 174.394 87.1193L156.436 157.542C148.924 155.429 133.124 149.021 130.025 140.288C126.152 129.373 108.547 135.007 117.702 98.7393Z" fill="#060107"/>
<path d="M188.11 155.155C190.299 157.62 192.38 165.649 188.11 167.831C184.665 169.591 180.088 163.253 181.849 157.62" stroke="white" stroke-width="0.704225" stroke-linecap="round"/>
<path d="M189.702 91.5416C183.223 81.9641 159.772 84.381 153.786 89.4279C146.04 99.2867 165.824 105.978 168.641 113.373C170.894 119.288 175.214 138.138 177.092 146.823C178.617 144.241 181.957 134.851 187.237 127.105C189.35 116.189 196.181 101.119 189.702 91.5416Z" fill="#060107"/>
<path d="M188.54 121.795C189.385 116.724 189.244 109.821 178.681 95.7369C168.117 81.6524 143.12 97.1468 138.542 103.485C133.965 109.823 133.965 133.414 132.554 132.358C131.143 131.302 128.329 130.597 125.16 133.414C121.991 136.231 123.047 143.978 123.751 148.907C124.456 153.837 130.089 155.597 132.554 157.358C134.526 158.767 139.714 159.353 142.061 159.471C144.498 165.488 168.725 176.274 176.119 172.577C183.514 168.88 183.124 166.905 186.389 157.358C189.131 149.338 190.303 140.183 188.54 135.253C186.893 130.647 187.484 128.133 188.54 121.795Z" fill="#D67967"/>
<path d="M135.662 142.05C136.719 143.81 135.312 145.219 133.903 146.627C132.017 148.514 134.26 150.147 134.256 150.147C132.849 152.964 132.493 152.612 127.916 150.147C123.338 147.683 123.691 139.585 127.212 137.12C130.733 134.655 134.606 140.289 135.662 142.05Z" fill="#B15A46"/>
<path d="M138.776 155.155C140.965 157.62 143.046 165.649 138.776 167.831C135.331 169.591 130.754 163.253 132.515 157.62" stroke="white" stroke-width="0.704225" stroke-linecap="round"/>
<path d="M163.049 153.384C177.133 156.545 178.777 155.027 181.711 153.384C181.429 152.82 180.185 152.618 179.598 151.711C179.246 151.358 178.19 152.319 177.485 152.671C176.922 152.953 175.608 152.297 174.669 152.063L163.049 153.384Z" fill="#933C42"/>
<path d="M151.31 127.42C153.206 124.86 154.787 125.429 156.999 124.576C158.754 123.899 162.679 126.22 164.597 127.173C165.816 128.003 166.501 131.147 166.501 132C166.501 132.853 162.348 134 159.501 134H159.491C156.65 134 154.998 134 153.522 133.677C152.032 133.352 149.414 129.98 151.31 127.42Z" fill="#EDF1FA"/>
<mask id="mask2_988_3404" style="mask-type:alpha" maskUnits="userSpaceOnUse" x="150" y="124" width="17" height="10">
<path d="M151.31 127.42C153.206 124.86 154.787 125.429 156.999 124.576C158.754 123.899 162.679 126.22 164.597 127.173C165.816 128.003 166.501 131.147 166.501 132C166.501 132.853 162.348 134 159.501 134H159.491C156.65 134 154.998 134 153.522 133.677C152.032 133.352 149.414 129.98 151.31 127.42Z" fill="#EDF1FA"/>
</mask>
<g mask="url(#mask2_988_3404)">
<path d="M158.805 131.739C157.524 128.954 157.961 126.918 158.805 124.739C160.071 123.019 166.607 124.659 167.24 126.035C167.872 127.411 167.724 131.412 165.804 133.239C163.274 135.648 160.704 135.868 158.805 131.739Z" fill="url(#paint1_linear_988_3404)"/>
</g>
<path d="M153.524 133.709C151.752 132.608 150.642 130.568 150.747 129.078C151.816 126.754 153.412 125.824 155.175 125.293C158.421 124.316 163.5 127.088 166 129C164 125 157.706 122.953 153.909 124.605C150.113 126.257 149.796 125.293 149.164 124.605C149.48 125.981 149.917 127.19 151.942 126.088C151.309 127.12 150.233 129.099 148.462 128.549C146.69 127.998 146.105 127.702 146 127.702C148.778 129.422 149.543 129.422 149.796 129.422C150.113 129.422 150.431 130.613 150.747 131.301C151.064 131.989 151.943 133.02 153.524 133.709Z" fill="#060107"/>
<ellipse cx="159.451" cy="128.616" rx="0.949108" ry="0.688011" fill="white"/>
<path d="M186.623 128.429C185.629 126.583 184.8 126.994 183.641 126.378C182.72 125.89 180.663 127.564 179.657 128.251C179.018 128.85 179.002 131.301 179.002 131.916C179.002 132.531 180.818 133.956 182.311 133.956C183.804 133.956 184.8 133.557 185.463 132.942C186.126 132.326 187.617 130.275 186.623 128.429Z" fill="#EDF1FA"/>
<mask id="mask3_988_3404" style="mask-type:alpha" maskUnits="userSpaceOnUse" x="179" y="126" width="8" height="8">
<path d="M186.621 128.429C185.627 126.583 184.799 126.994 183.639 126.378C182.718 125.89 180.661 127.564 179.655 128.251C179.016 128.85 179.001 131.301 179.001 131.916C179.001 132.531 180.816 133.956 182.309 133.956C183.802 133.956 184.799 133.557 185.461 132.942C186.124 132.326 187.615 130.275 186.621 128.429Z" fill="#EDF1FA"/>
</mask>
<g mask="url(#mask3_988_3404)">
<path d="M185.861 133.561C187.74 134.537 187.615 128.723 187.595 127.091C187.274 125.722 183.274 124.437 181.766 126.718C180.258 129 181.298 132.892 182.499 133.644C184.588 134.952 185.655 133.454 185.861 133.561Z" fill="url(#paint2_linear_988_3404)"/>
</g>
<path d="M185.464 132.964C186.393 132.171 186.975 130.7 186.919 129.625C186.359 127.949 185.522 127.279 184.598 126.896C182.896 126.191 179.911 128.277 178.8 129.188C179.795 127.452 183.271 125.209 185.262 126.4C187.252 127.591 187.418 126.896 187.75 126.4C187.584 127.392 187.5 127.5 186.293 127.469C186.625 128.213 187.251 129.585 188.18 129.188C189.108 128.791 189.353 128.632 189.408 128.632C188.486 129.625 187.551 129.873 187.418 129.873C187.252 129.873 187.085 130.732 186.919 131.228C186.754 131.724 186.292 132.468 185.464 132.964Z" fill="#060107"/>
<ellipse rx="0.75" ry="0.5" transform="matrix(-1 0 0 1 182.25 129.5)" fill="white"/>
<path d="M178 131C178 135 181.981 138.331 183.227 138.394C184.473 138.458 185.5 144 179.5 145.5" stroke="#401109" stroke-width="0.704225" stroke-linecap="round"/>
<path d="M158.55 114.232C170.944 104.654 169.113 94.2785 166.648 90.2879C166.648 75.8019 145.871 83.2456 132.491 93.4569C119.111 103.668 129.674 116.696 132.491 132.189C135.308 147.682 147.986 151.908 141.296 143.457C134.606 135.006 143.057 126.203 158.55 114.232Z" fill="#060107"/>
<path d="M146.975 125.006C157.994 111.302 164.745 115.418 166.744 119.189C158.771 116.925 160.111 118.068 156.179 118.88C154.228 119.283 149.215 123.03 146.975 125.006Z" fill="#28111B"/>
<path d="M178.469 120.596C181.441 119.515 186.647 118.444 188.483 120.595C187.842 118.973 186.014 118.175 183.548 117.754C181.081 117.333 179.316 118.167 178.469 120.596Z" fill="#28111B"/>
<path d="M173 144.658C175.06 143.731 176.571 143.892 177 144.472C177 145.051 176.32 145.291 175.712 144.472C175.505 144.192 173.61 144.658 173 144.658Z" fill="#3A2323"/>
<path d="M173.887 155.234C178.658 155.532 179.45 154.445 181.359 153.375C179.246 155.488 178.454 159.199 175.725 159.361C171.259 159.627 168.331 157.953 163.049 153.375C165.162 153.728 171.326 155.074 173.887 155.234Z" fill="#AB4C53"/>
<circle cx="179.704" cy="141.704" r="0.704225" fill="white"/>
<circle cx="149.5" cy="134.5" r="0.5" fill="#060107"/>
<path d="M167.401 116.072C172.343 105.969 169.022 87.8392 161.461 85.4491C164.548 84.4662 171.166 87.1863 175.126 93.3553C180.523 101.765 178.154 109.982 176.814 115.74L167.401 116.072Z" fill="#060107"/>
<path d="M186.26 124.265C191.742 113.338 179.709 95.6114 173.645 90.4229C176.375 90.1369 183.514 90.813 190.221 95.805C196.927 100.797 196.12 119.997 194.241 126.665L186.26 124.265Z" fill="#060107"/>
<path d="M30.6597 263.205H29.353V275.556H30.6597V263.205ZM20.8803 268.445C20.8803 271.106 22.2076 272.784 24.0713 272.778C25.9006 272.784 27.2486 271.106 27.2486 268.445C27.2486 265.811 25.9006 264.133 24.0713 264.126C22.2076 264.133 20.8803 265.811 20.8803 268.445ZM22.1457 268.445C22.1388 266.512 22.9228 265.302 24.0713 265.295C25.1992 265.302 25.9832 266.512 25.9832 268.445C25.9832 270.405 25.1992 271.608 24.0713 271.608C22.9228 271.608 22.1388 270.405 22.1457 268.445ZM43.8914 269.518H32.6128V270.563H43.8914V269.518ZM34.0295 264.511H41.168V265.557H34.057V268.583H42.7223V267.578H35.3499V266.519H42.4747V263.48H34.0295V264.511ZM34.112 275.377H42.4884V271.567H34.112V275.377ZM35.4049 274.318V272.613H41.1955V274.318H35.4049Z" fill="#ECECF8" fill-opacity="0.7"/>
<path d="M33.0392 283.293H30.943V298.346H33.0392V283.293ZM21.2379 286.248H26.239V288.674H21.2544V294.83H22.6078C25.3477 294.83 27.5842 294.74 30.0517 294.302L29.8702 292.602C27.6667 292.965 25.7273 293.081 23.4331 293.097V290.341H28.3847V284.548H21.2379V286.248ZM39.0966 284.349C36.7941 284.349 35.1271 286.421 35.1353 289.697C35.1271 292.998 36.7941 295.061 39.0966 295.061C41.3908 295.061 43.0496 292.998 43.0579 289.697C43.0496 286.421 41.3908 284.349 39.0966 284.349ZM37.1655 289.697C37.1655 287.469 37.9495 286.248 39.0966 286.248C40.2685 286.248 41.036 287.469 41.0442 289.697C41.036 291.934 40.2685 293.155 39.0966 293.147C37.9495 293.155 37.1655 291.934 37.1655 289.697ZM44.7909 298.313H46.9036V290.704H49.1153V288.954H46.9036V283.293H44.7909V298.313Z" fill="#ECECF8"/>
<path d="M30.7284 318.419H22.3795V319.451H29.4218V322.834H30.7284V318.419ZM20.6327 314.169C20.6258 315.923 22.0081 317.16 23.865 317.154C24.9103 317.16 25.8044 316.755 26.382 316.081H29.4218V317.773H30.7284V310.51H29.4218V312.271H26.382C25.8112 311.597 24.9103 311.191 23.865 311.198C22.0081 311.191 20.6258 312.429 20.6327 314.169ZM21.8844 314.169C21.8775 313.069 22.7096 312.305 23.865 312.298C24.9722 312.305 25.8181 313.069 25.8181 314.169C25.8181 315.297 24.9722 316.046 23.865 316.053C22.7096 316.046 21.8775 315.297 21.8844 314.169ZM26.9528 315.008C27.0285 314.747 27.0698 314.465 27.0698 314.169C27.0698 313.88 27.0285 313.605 26.9597 313.344H29.4218V315.008H26.9528ZM42.3096 310.469H41.003V317.25H42.3096V314.43H44.1115V313.357H42.3096V310.469ZM32.6403 312.587H39.9851V311.556H36.9729V310.4H35.6663V311.556H32.6403V312.587ZM33.3143 315.077C33.3074 316.328 34.504 317.092 36.3127 317.085C38.1214 317.092 39.2974 316.328 39.2974 315.077C39.2974 313.832 38.1214 313.055 36.3127 313.055C34.504 313.055 33.3074 313.832 33.3143 315.077ZM34.3458 318.804H41.0167V319.767H34.3733V322.71H42.736V321.72H35.6525V320.688H42.3096V317.828H34.3458V318.804ZM34.5797 315.077C34.5659 314.41 35.2468 313.997 36.3127 313.99C37.3718 313.997 38.0595 314.41 38.0733 315.077C38.0595 315.744 37.3718 316.136 36.3127 316.136C35.2468 316.136 34.5659 315.744 34.5797 315.077ZM58.6499 316.095H55.5001V312.683H58.5261V311.624H54.1934V317.14H58.6499V316.095ZM48.2378 321.294H59.5164V320.235H54.4685V317.731H53.1894V320.235H48.2378V321.294ZM49.1731 317.14H49.9021C51.2087 317.147 52.3228 317.112 53.6433 316.823L53.5332 315.737C52.4673 315.978 51.5045 316.053 50.4798 316.067V312.697H53.4232V311.638H49.1731V317.14ZM70.3824 314.114H63.1888V310.95H61.8959V315.159H70.3824V314.114ZM60.3967 317.759H71.6753V316.713H60.3967V317.759ZM61.7996 322.545H70.4649V321.472H63.1063V318.928H61.7996V322.545ZM80.5881 312.725V312.381H83.2978V311.322H76.5031V312.381H79.2677V312.725C79.2608 314.396 78.078 316.005 76.1592 316.672L76.8332 317.676C78.298 317.16 79.3915 316.101 79.9486 314.767C80.5056 316.005 81.5785 316.975 82.9952 317.442L83.6691 316.425C81.7641 315.826 80.5881 314.306 80.5881 312.725ZM77.8923 319.629H84.9345V322.834H86.2412V318.57H77.8923V319.629ZM84.9345 317.951H86.2412V310.51H84.9345V317.951ZM91.9218 313.22V313.11H94.0399V312.064H91.9218V310.648H90.6839V312.064H88.5382V313.11H90.6839V313.22C90.677 314.712 89.8242 316.122 88.2631 316.755L88.882 317.718C90.0787 317.229 90.9039 316.308 91.3372 315.187C91.7773 316.218 92.5889 317.064 93.7511 317.511L94.37 316.521C92.802 315.964 91.9218 314.609 91.9218 313.22ZM90.3263 319.739H97.4098V322.834H98.7027V318.68H90.3263V319.739ZM94.8102 318.006H96.0618V314.815H97.4648V318.061H98.7027V310.524H97.4648V313.743H96.0618V310.73H94.8102V318.006Z" fill="#ECECF8" fill-opacity="0.7"/>
<rect x="20.4294" y="328.53" width="124.753" height="26.0117" rx="13.0058" fill="#170330"/>
<path d="M35.5223 347.536C39.17 347.536 41.3734 345.283 41.3652 341.544C41.3734 337.822 39.17 335.586 35.5718 335.586H31.3135V347.536H35.5223ZM33.7893 345.406V337.715H35.4398C37.701 337.715 38.8894 338.887 38.8894 341.544C38.8894 344.226 37.701 345.406 35.4233 345.406H33.7893ZM42.6856 345.027C42.6939 346.801 43.9565 347.709 45.6731 347.701C47.0017 347.709 47.86 347.123 48.2974 346.298H48.3634V347.536H50.6742V341.495C50.6824 339.333 48.8338 338.458 46.8779 338.458C44.5012 338.458 43.1478 339.679 42.9992 341.231H45.3264C45.4585 340.62 45.9784 340.249 46.8119 340.24C47.728 340.249 48.2396 340.678 48.2479 341.429V342.155C47.8683 342.171 46.6634 342.229 46.0197 342.27C44.2949 342.378 42.6939 343.03 42.6856 345.027ZM45.0294 344.961C45.0294 344.268 45.5658 343.863 46.4158 343.789C46.8284 343.756 47.8765 343.698 48.2479 343.682V344.334C48.2561 345.283 47.4804 346.009 46.3663 346.017C45.5823 346.009 45.0294 345.646 45.0294 344.961ZM57.2598 338.573H55.5762V336.428H53.1334V338.573H51.8956V340.405H53.1334V345.126C53.1169 346.867 54.3218 347.659 56.0879 347.651C56.6903 347.659 57.1277 347.61 57.3918 347.569V345.638C57.0947 345.662 56.6656 345.687 56.418 345.687C55.9228 345.671 55.568 345.497 55.5762 344.779V340.405H57.2598V338.573ZM58.3656 345.027C58.3739 346.801 59.6365 347.709 61.3531 347.701C62.6818 347.709 63.54 347.123 63.9774 346.298H64.0434V347.536H66.3542V341.495C66.3624 339.333 64.5138 338.458 62.558 338.458C60.1812 338.458 58.8278 339.679 58.6792 341.231H61.0065C61.1385 340.62 61.6584 340.249 62.4919 340.24C63.408 340.249 63.9196 340.678 63.9279 341.429V342.155C63.5483 342.171 62.3434 342.229 61.6997 342.27C59.9749 342.378 58.3739 343.03 58.3656 345.027ZM60.7094 344.961C60.7094 344.268 61.2458 343.863 62.0958 343.789C62.5084 343.756 63.5565 343.698 63.9279 343.682V344.334C63.9362 345.283 63.1604 346.009 62.0463 346.017C61.2623 346.009 60.7094 345.646 60.7094 344.961ZM78.6506 339.002H81.0274C80.9944 336.89 79.2531 335.421 76.604 335.421C73.9879 335.421 72.0733 336.865 72.0815 339.035C72.0815 340.785 73.3194 341.792 75.3331 342.287L76.637 342.601C77.9409 342.922 78.6836 343.302 78.6836 344.119C78.6836 345.01 77.8419 345.621 76.5379 345.621C75.2175 345.621 74.2602 345.01 74.1777 343.805H71.7679C71.8422 346.372 73.6825 347.709 76.5709 347.701C79.4841 347.709 81.1842 346.306 81.1924 344.119C81.1842 342.13 79.6574 341.09 77.6108 340.62L76.5379 340.356C75.5064 340.125 74.6151 339.737 74.6233 338.87C74.6316 338.078 75.3331 337.5 76.5875 337.5C77.8006 337.5 78.5516 338.053 78.6506 339.002ZM86.7877 347.717C89.1645 347.709 90.6582 346.314 90.7655 344.284H88.4713C88.3145 345.233 87.679 345.77 86.8207 345.77C85.6323 345.77 84.8731 344.779 84.8731 343.046C84.8731 341.346 85.6489 340.364 86.8207 340.356C87.745 340.364 88.3227 340.975 88.4713 341.858H90.7655C90.6665 339.803 89.0985 338.458 86.7877 338.458C84.0726 338.458 82.3891 340.339 82.3973 343.079C82.3891 345.811 84.0396 347.709 86.7877 347.717ZM92.284 347.536H94.7268V338.573H92.284V347.536ZM92.1684 336.164C92.1684 336.84 92.7709 337.401 93.5054 337.401C94.2316 337.401 94.834 336.84 94.8258 336.164C94.834 335.47 94.2316 334.917 93.5054 334.909C92.7709 334.917 92.1684 335.47 92.1684 336.164ZM100.685 347.717C102.897 347.709 104.382 346.636 104.729 344.977H102.402C102.162 345.514 101.568 345.877 100.735 345.885C99.472 345.877 98.6715 345.043 98.6715 343.69H104.795V342.997C104.795 339.943 102.938 338.458 100.586 338.458C97.9618 338.458 96.2535 340.331 96.2618 343.096C96.2535 345.935 97.937 347.709 100.685 347.717ZM98.6715 342.155C98.721 341.123 99.5133 340.282 100.636 340.29C101.725 340.282 102.476 341.066 102.484 342.155H98.6715ZM108.773 342.353C108.773 341.173 109.474 340.488 110.489 340.488C111.504 340.488 112.099 341.148 112.107 342.254V347.536H114.533V341.825C114.541 339.737 113.32 338.458 111.447 338.458C110.118 338.458 109.161 339.11 108.756 340.141H108.657V338.573H106.33V347.536H108.773V342.353ZM121.152 338.573H119.468V336.428H117.025V338.573H115.788V340.405H117.025V345.126C117.009 346.867 118.214 347.659 119.98 347.651C120.582 347.659 121.02 347.61 121.284 347.569V345.638C120.987 345.662 120.558 345.687 120.31 345.687C119.815 345.671 119.46 345.497 119.468 344.779V340.405H121.152V338.573ZM122.687 347.536H125.129V338.573H122.687V347.536ZM122.571 336.164C122.571 336.84 123.174 337.401 123.908 337.401C124.634 337.401 125.237 336.84 125.229 336.164C125.237 335.47 124.634 334.917 123.908 334.909C123.174 334.917 122.571 335.47 122.571 336.164ZM132.144 341.231H134.438C134.306 339.531 132.903 338.458 130.642 338.458C128.332 338.458 126.854 339.531 126.863 341.247C126.854 342.576 127.729 343.451 129.437 343.789L130.923 344.086C131.765 344.259 132.144 344.548 132.144 345.01C132.144 345.588 131.55 345.943 130.659 345.951C129.759 345.943 129.19 345.58 129.074 344.878H126.615C126.821 346.628 128.241 347.709 130.659 347.717C133.044 347.709 134.628 346.529 134.637 344.763C134.628 343.475 133.787 342.7 132.045 342.336L130.444 342.006C129.594 341.833 129.281 341.519 129.289 341.115C129.281 340.57 129.883 340.199 130.675 340.191C131.492 340.199 132.037 340.603 132.144 341.231Z" fill="#944AF2"/>
<rect x="20.4294" y="328.53" width="124.753" height="26.0117" rx="13.0058" stroke="#944AF2" stroke-width="0.858811"/>
<path d="M28.2746 385.535H21.4305V389.056H24.1483V390.013H20.2971V391.147H29.43V390.013H25.5568V389.056H28.2746V385.535ZM21.3094 392.984H26.9212V395.152H28.3187V391.884H21.3094V392.984ZM22.8059 387.956V386.624H26.8992V387.956H22.8059ZM39.2011 392.918H36.8794V391.015H38.3869V389.881H37.0224V387.064H38.4309V385.942H30.7504V387.064H32.1369V389.881H30.7945V391.015H32.3129V392.918H30.0352V394.041H39.2011V392.918ZM33.5453 389.881V387.064H35.636V389.881H33.5453ZM33.7214 392.918V391.015H35.471V392.918H33.7214Z" fill="#ECECF8" fill-opacity="0.5"/>
<path d="M31.2236 401.705H29.5318V414.222H31.2236V401.705ZM20.7565 411.43H21.623C23.4592 411.43 24.7178 411.368 26.1345 411.086L25.9969 409.655C24.8278 409.889 23.81 409.965 22.4758 409.979V404.525H25.543V403.122H20.7565V411.43ZM24.6903 407.702H26.9322V413.658H28.569V401.926H26.9322V406.272H24.6903V407.702ZM43.0249 401.705H41.2506V414.249H43.0249V401.705ZM32.9154 407.042C32.9085 409.793 34.3046 411.512 36.2302 411.512C38.1145 411.512 39.5175 409.793 39.5175 407.042C39.5175 404.312 38.1145 402.586 36.2302 402.586C34.3046 402.586 32.9085 404.312 32.9154 407.042ZM34.6072 407.042C34.6003 405.185 35.2536 404.167 36.2302 404.167C37.1792 404.167 37.8188 405.185 37.8257 407.042C37.8188 408.906 37.1792 409.924 36.2302 409.917C35.2536 409.924 34.6003 408.906 34.6072 407.042ZM55.28 401.705H53.547V406.121H51.3463V407.537H53.547V414.249H55.28V401.705ZM45.2943 411.416H46.2847C48.4303 411.409 50.0671 411.347 51.8965 411.072L51.7177 409.669C50.1703 409.91 48.7811 409.972 47.0412 409.986V407.62H50.6861V406.244H47.0412V404.167H51.14V402.751H45.2943V411.416ZM68.333 407.317H56.8756V408.624H68.333V407.317ZM58.1822 410.453H65.2245V411.086H58.196V414.112H67.3289V412.915H59.9428V412.2H66.9575V409.243H58.1822V410.453ZM58.2785 403.122H65.1832V403.755H58.306V406.726H67.1638V405.543H60.0528V404.869H66.9438V401.926H58.2785V403.122ZM83.7517 408.129H72.2942V409.504H77.3008V411.526H79.0339V409.504H83.7517V408.129ZM73.6422 414.002H82.4862V412.599H75.3752V410.536H73.6422V414.002ZM73.766 407.248H82.2662V402.104H80.5194V403.411H75.499V402.104H73.766V407.248ZM75.499 405.859V404.718H80.5194V405.859H75.499ZM89.1709 403.659V402.352H87.3966V403.549C87.3897 405.261 86.4957 406.898 84.3981 407.565L85.3472 408.968C86.757 408.466 87.7404 407.496 88.2906 406.258C88.8202 407.393 89.7417 408.294 91.0827 408.748L92.018 407.359C90.0374 406.733 89.164 405.22 89.1709 403.659ZM86.4338 411.113H93.2835V414.222H95.0303V409.724H86.4338V411.113ZM90.9315 405.474H93.2835V409.16H95.0303V401.705H93.2835V404.03H90.9315V405.474ZM106.529 401.705H104.796V414.222H106.529V408.046H108.372V406.602H106.529V401.705ZM96.5845 404.979H103.943V403.576H101.178V401.898H99.4179V403.576H96.5845V404.979ZM97.0934 408.665C97.0865 410.412 98.4482 411.643 100.298 411.65C102.121 411.643 103.489 410.412 103.489 408.665C103.489 406.918 102.121 405.674 100.298 405.68C98.4482 405.674 97.0865 406.918 97.0934 408.665ZM98.7715 408.665C98.7715 407.702 99.411 407.111 100.298 407.097C101.172 407.111 101.811 407.702 101.811 408.665C101.811 409.635 101.172 410.213 100.298 410.206C99.411 410.213 98.7715 409.635 98.7715 408.665ZM119.142 402.792H110.009V404.181H117.381C117.374 405.653 117.354 407.414 116.872 409.779L118.633 409.958C119.135 407.303 119.135 405.543 119.142 403.975V402.792ZM108.826 412.695H120.242V411.265H114.658V406.96H112.911V411.265H108.826V412.695ZM135.702 411.32H130.819V408.761H134.423V402.627H125.455V408.761H129.072V411.32H124.245V412.764H135.702V411.32ZM127.188 407.386V404.03H132.69V407.386H127.188ZM147.242 401.719H145.578V408.266H147.242V401.719ZM136.954 407.95H137.82C139.787 407.95 140.942 407.916 142.304 407.702L142.194 406.313C141.066 406.499 140.097 406.547 138.7 406.561V403.686H141.836V402.311H136.954V407.95ZM138.604 410.041H145.523V410.687H138.618V414.084H147.613V412.709H140.365V411.994H147.242V408.665H138.604V410.041ZM141.108 405.653H143.074V408.211H144.725V401.926H143.074V404.333H141.108V405.653ZM154.298 401.884C151.41 401.884 149.732 402.641 149.732 404.016C149.732 405.412 151.41 406.162 154.298 406.162C157.18 406.162 158.844 405.412 158.851 404.016C158.844 402.641 157.18 401.884 154.298 401.884ZM148.59 408.143H160.006V406.753H148.59V408.143ZM149.91 410.151H156.884V410.838H149.924V414.139H158.947V412.819H151.643V412.063H158.617V408.871H149.91V410.151ZM151.575 404.016C151.568 403.459 152.462 403.163 154.298 403.163C156.148 403.163 157.035 403.459 157.035 404.016C157.035 404.628 156.148 404.869 154.298 404.869C152.462 404.869 151.568 404.628 151.575 404.016ZM170.391 402.737H164.38V408.748H170.391V402.737ZM165.824 414.002H174.393V412.599H167.571V409.944H165.824V414.002ZM166.113 407.372V404.14H168.658V407.372H166.113ZM172.179 410.838H173.939V406.753H175.631V405.309H173.939V401.705H172.179V410.838ZM187.625 407.138H176.181V408.541H187.625V407.138ZM177.557 414.043H186.222V409.229H184.461V410.261H179.276V409.229H177.557V414.043ZM177.57 406.272H186.373V404.869H179.317V403.452H186.249V402.008H177.57V406.272ZM179.276 412.64V411.609H184.461V412.64H179.276ZM198.876 401.705H197.129V414.222H198.876V401.705ZM189.028 411.127H190.128C192.061 411.134 194.138 410.997 196.331 410.536L196.111 409.092C194.268 409.449 192.453 409.607 190.761 409.635V402.902H189.028V411.127ZM210.402 401.705H208.642V414.249H210.402V407.785H212.245V406.354H210.402V401.705ZM201.022 411.21H202.081C204.288 411.217 205.994 411.168 207.94 410.838L207.748 409.367C206.083 409.655 204.584 409.752 202.768 409.766V404.278H206.895V402.861H201.022V411.21ZM214.322 413.08C214.934 413.08 215.464 412.565 215.464 411.925C215.464 411.292 214.934 410.776 214.322 410.783C213.676 410.776 213.153 411.292 213.167 411.925C213.153 412.565 213.676 413.08 214.322 413.08ZM31.0173 425.083H28.2389V422.154H30.921V420.751H26.4783V426.473H31.0173V425.083ZM20.3714 430.764H31.8288V429.347H26.9185V427.023H25.1854V429.347H20.3714V430.764ZM21.2517 426.473H22.0494C23.5418 426.479 24.6284 426.459 25.9006 426.198L25.7768 424.767C24.8415 424.946 23.9957 425.022 23.0122 425.049V422.154H25.6943V420.751H21.2517V426.473ZM42.4747 419.719H40.7141V429.058H42.4747V424.987H44.1665V423.557H42.4747V419.719ZM32.544 422.415H39.9714V421.026H37.138V419.692H35.3912V421.026H32.544V422.415ZM33.1492 425.276C33.1492 426.72 34.4352 427.669 36.2577 427.669C38.0733 427.669 39.3387 426.72 39.3387 425.276C39.3387 423.825 38.0733 422.855 36.2577 422.855C34.4352 422.855 33.1492 423.825 33.1492 425.276ZM34.3596 432.002H42.9286V430.599H36.1064V428.343H34.3596V432.002ZM34.8685 425.276C34.8616 424.581 35.4187 424.196 36.2577 424.189C37.1036 424.196 37.6744 424.581 37.6744 425.276C37.6744 425.964 37.1036 426.335 36.2577 426.335C35.4187 426.335 34.8616 425.964 34.8685 425.276ZM54.3447 420.737H48.3341V426.748H54.3447V420.737ZM49.7783 432.002H58.3473V430.599H51.5251V427.944H49.7783V432.002ZM50.0671 425.372V422.14H52.6117V425.372H50.0671ZM56.1328 428.838H57.8934V424.753H59.5852V423.309H57.8934V419.705H56.1328V428.838ZM71.579 424.588H60.1353V425.964H71.579V424.588ZM61.4558 428.027H68.4292V428.728H61.4695V432.112H70.4924V430.75H63.1888V429.98H70.1623V426.706H61.4558V428.027ZM61.5658 423.901H70.2173V422.525H63.3126V421.356H70.121V419.953H61.5658V423.901ZM75.7603 420.586C73.8622 420.586 72.5006 422.312 72.5143 425.042C72.5006 427.793 73.8622 429.512 75.7603 429.512C77.5072 429.512 78.8001 428.041 78.9858 425.634H81.1383V432.249H82.8714V419.705H81.1383V424.231H78.9651C78.7175 421.975 77.4521 420.586 75.7603 420.586ZM74.1923 425.042C74.1855 423.185 74.825 422.167 75.7603 422.167C76.7025 422.167 77.3283 423.185 77.3283 425.042C77.3283 426.906 76.7025 427.924 75.7603 427.917C74.825 427.924 74.1855 426.906 74.1923 425.042ZM89.3634 422.181V422.002H91.8805V420.599H85.0033V422.002H87.5754V422.181C87.5754 423.763 86.6194 425.393 84.5357 426.06L85.4434 427.435C86.9152 426.947 87.933 425.964 88.5038 424.726C89.0677 425.854 90.0512 426.755 91.4541 427.202L92.3482 425.826C90.2919 425.2 89.3566 423.674 89.3634 422.181ZM86.5713 432.002H95.2916V430.599H88.3456V427.944H86.5713V432.002ZM93.2009 428.77H94.9615V419.719H93.2009V428.77ZM111.357 429.32H106.474V426.761H110.078V420.627H101.11V426.761H104.727V429.32H99.8993V430.764H111.357V429.32ZM102.843 425.386V422.03H108.345V425.386H102.843ZM122.897 419.719H121.232V426.266H122.897V419.719ZM112.608 425.95H113.475C115.442 425.95 116.597 425.916 117.959 425.702L117.849 424.313C116.721 424.499 115.751 424.547 114.355 424.561V421.686H117.491V420.311H112.608V425.95ZM114.259 428.041H121.177V428.687H114.273V432.084H123.268V430.709H116.019V429.994H122.897V426.665H114.259V428.041ZM116.762 423.653H118.729V426.211H120.38V419.926H118.729V422.333H116.762V423.653ZM129.953 419.884C127.064 419.884 125.386 420.641 125.386 422.016C125.386 423.412 127.064 424.162 129.953 424.162C132.834 424.162 134.499 423.412 134.505 422.016C134.499 420.641 132.834 419.884 129.953 419.884ZM124.245 426.143H135.661V424.753H124.245V426.143ZM125.565 428.151H132.539V428.838H125.579V432.139H134.602V430.819H127.298V430.063H134.272V426.871H125.565V428.151ZM127.229 422.016C127.222 421.459 128.116 421.163 129.953 421.163C131.803 421.163 132.69 421.459 132.69 422.016C132.69 422.628 131.803 422.869 129.953 422.869C128.116 422.869 127.222 422.628 127.229 422.016ZM150.144 419.719H148.384V428.715H150.144V419.719ZM139.856 423.667C139.856 425.53 141.355 426.844 143.281 426.844C145.199 426.844 146.699 425.53 146.706 423.667C146.699 421.83 145.199 420.51 143.281 420.517C141.355 420.51 139.856 421.83 139.856 423.667ZM141.575 423.667C141.561 422.649 142.297 422.037 143.281 422.044C144.23 422.037 144.966 422.649 144.972 423.667C144.966 424.712 144.23 425.317 143.281 425.317C142.297 425.317 141.561 424.712 141.575 423.667ZM141.754 432.002H150.474V430.599H143.528V427.807H141.754V432.002ZM163.293 429.306H151.836V430.764H163.293V429.306ZM152.73 422.209H154.463V426.005H152.785V427.38H162.276V426.005H160.57V422.209H162.331V420.806H152.73V422.209ZM156.224 426.005V422.209H158.837V426.005H156.224ZM173.884 419.705H172.151V432.249H173.884V425.881H175.727V424.437H173.884V419.705ZM164.518 422.167H168.561V424.217H164.531V429.334H165.59C167.791 429.334 169.51 429.258 171.422 428.907L171.271 427.504C169.607 427.786 168.101 427.869 166.278 427.876V425.606H170.308V420.751H164.518V422.167ZM184.283 423.117V422.346H186.896V420.916H179.826V422.346H182.481V423.117C182.481 425.235 181.408 427.552 179.331 428.481L180.335 429.87C181.814 429.189 182.852 427.814 183.416 426.17C183.98 427.683 184.998 428.928 186.47 429.554L187.419 428.178C185.321 427.305 184.276 425.138 184.283 423.117ZM188.134 432.222H189.908V419.705H188.134V432.222ZM196.4 421.48V420.283H194.571V421.48C194.571 423.075 193.649 424.705 191.559 425.372L192.439 426.748C193.911 426.273 194.928 425.297 195.492 424.066C196.049 425.207 197.04 426.101 198.463 426.555L199.344 425.18C197.28 424.561 196.386 423.041 196.4 421.48ZM193.471 429.113H200.32V432.222H202.081V427.711H193.471V429.113ZM200.32 427.174H202.081V419.705H200.32V427.174ZM206.785 427.023H205.162V432.084H209.756V431.115L210.471 432.194C211.489 431.802 212.177 431.08 212.589 430.207C212.988 431.108 213.683 431.823 214.762 432.194L215.67 430.888C214.102 430.379 213.49 429.168 213.497 427.889V426.927H211.736V427.889C211.736 429.024 211.145 430.193 209.756 430.826V427.023H208.133V428.274H206.785V427.023ZM203.938 423.117C203.924 424.863 205.341 426.087 207.266 426.087C208.862 426.087 210.141 425.187 210.478 423.832H212.575V426.335H214.322V419.705H212.575V422.388H210.471C210.127 421.06 208.855 420.18 207.266 420.173C205.341 420.18 203.924 421.397 203.938 423.117ZM205.602 423.117C205.595 422.195 206.283 421.624 207.266 421.617C208.215 421.624 208.896 422.195 208.903 423.117C208.896 424.066 208.215 424.65 207.266 424.657C206.283 424.65 205.595 424.066 205.602 423.117ZM206.785 430.75V429.567H208.133V430.75H206.785ZM226.426 419.705H224.652V432.249H226.426V419.705ZM216.317 425.042C216.31 427.793 217.706 429.512 219.631 429.512C221.516 429.512 222.919 427.793 222.919 425.042C222.919 422.312 221.516 420.586 219.631 420.586C217.706 420.586 216.31 422.312 216.317 425.042ZM218.008 425.042C218.001 423.185 218.655 422.167 219.631 422.167C220.58 422.167 221.22 423.185 221.227 425.042C221.22 426.906 220.58 427.924 219.631 427.917C218.655 427.924 218.001 426.906 218.008 425.042ZM22.3795 438.82H20.729V447.251H25.7081V438.82H24.0851V441.639H22.3795V438.82ZM22.3795 445.848V443.015H24.0851V445.848H22.3795ZM26.7534 449.644H28.4177V443.909H29.5456V450.222H31.2236V437.705H29.5456V442.478H28.4177V437.884H26.7534V449.644ZM44.0014 447.361H39.1049V445.105H42.9836V443.73H41.2781V440.154H43.0386V438.751H33.4381V440.154H35.1711V443.73H33.4931V445.105H37.3581V447.361H32.544V448.833H44.0014V447.361ZM36.9317 443.73V440.154H39.545V443.73H36.9317ZM47.3575 447.939H45.4044L44.7167 451.859H46.1746L47.3575 447.939ZM56.2841 440.539V438.668H54.5098V440.539C54.496 442.891 53.5195 445.305 51.3738 446.274L52.4741 447.705C53.9046 447.003 54.8674 445.655 55.4038 444.012C55.9265 445.559 56.8618 446.811 58.251 447.485L59.3238 446.082C57.24 445.181 56.291 442.891 56.2841 440.539ZM57.9209 443.056H60.3829V450.249H62.116V437.705H60.3829V441.639H57.9209V443.056ZM66.091 438.462H64.3579V444.404H70.4649V438.462H68.7181V440.112H66.091V438.462ZM65.6371 447.829C65.6302 449.349 67.2808 450.229 69.9422 450.222C72.59 450.229 74.2336 449.349 74.2474 447.829C74.2336 446.295 72.59 445.401 69.9422 445.394C67.2808 445.401 65.6302 446.295 65.6371 447.829ZM66.091 443.015V441.46H68.7181V443.015H66.091ZM67.3977 447.829C67.3977 447.093 68.2573 446.735 69.9422 446.742C71.6134 446.735 72.5074 447.093 72.5143 447.829C72.5074 448.51 71.6134 448.888 69.9422 448.888C68.2573 448.888 67.3977 448.51 67.3977 447.829ZM72.4455 445.202H74.2061V437.719H72.4455V445.202ZM85.7735 437.705H84.0405V450.222H85.7735V444.046H87.6166V442.602H85.7735V437.705ZM75.8291 440.979H83.1877V439.576H80.4231V437.898H78.6625V439.576H75.8291V440.979ZM76.338 444.665C76.3312 446.412 77.6928 447.643 79.5428 447.65C81.3653 447.643 82.7338 446.412 82.7338 444.665C82.7338 442.918 81.3653 441.674 79.5428 441.68C77.6928 441.674 76.3312 442.918 76.338 444.665ZM78.0161 444.665C78.0161 443.702 78.6556 443.111 79.5428 443.097C80.4162 443.111 81.0558 443.702 81.0558 444.665C81.0558 445.635 80.4162 446.213 79.5428 446.206C78.6556 446.213 78.0161 445.635 78.0161 444.665ZM98.3863 438.792H89.2534V440.181H96.6258C96.6189 441.653 96.5983 443.414 96.1169 445.779L97.8774 445.958C98.3795 443.303 98.3795 441.543 98.3863 439.975V438.792ZM88.0705 448.695H99.4867V447.265H93.9024V442.96H92.1556V447.265H88.0705V448.695ZM113.97 437.719H112.21V444.651H113.97V437.719ZM103.448 443.097L104.287 444.473C105.786 444.019 106.811 443.063 107.382 441.852C107.953 442.973 108.95 443.84 110.394 444.266L111.233 442.877C109.184 442.313 108.276 440.841 108.29 439.356V438.146H106.46V439.356C106.46 440.903 105.539 442.464 103.448 443.097ZM105.332 450.084H114.149V448.681H112.54V446.605H114.039V445.215H105.442V446.605H106.955V448.681H105.332V450.084ZM108.688 448.681V446.605H110.807V448.681H108.688ZM118.729 445.215H116.996V450.084H125.634V445.215H123.887V446.274H118.729V445.215ZM115.662 444.583H127.078V443.166H115.662V444.583ZM116.226 441.24L116.858 442.616C118.99 442.341 120.558 441.447 121.37 440.236C122.175 441.447 123.743 442.341 125.895 442.616L126.514 441.24C123.715 440.924 122.278 439.507 122.278 438.256V437.829H120.476V438.256C120.462 439.542 119.018 440.903 116.226 441.24ZM118.729 448.709V447.609H123.887V448.709H118.729ZM138.357 437.705H136.61V450.222H138.357V437.705ZM128.508 447.127H129.609C131.541 447.134 133.618 446.997 135.812 446.536L135.592 445.092C133.749 445.449 131.933 445.607 130.242 445.635V438.902H128.508V447.127ZM149.883 437.705H148.122V450.249H149.883V443.785H151.726V442.354H149.883V437.705ZM140.502 447.21H141.561C143.769 447.217 145.475 447.168 147.421 446.838L147.228 445.367C145.564 445.655 144.065 445.752 142.249 445.766V440.278H146.375V438.861H140.502V447.21ZM153.803 449.08C154.415 449.08 154.944 448.565 154.944 447.925C154.944 447.292 154.415 446.776 153.803 446.783C153.156 446.776 152.634 447.292 152.647 447.925C152.634 448.565 153.156 449.08 153.803 449.08Z" fill="#ECECF8"/>
<path d="M29.452 487.856H25.5678V486.998H28.4067V485.897H22.8059V484.654H28.3517V483.565H21.4085V486.998H24.1923V487.856H20.2971V488.956H29.452V487.856ZM21.3424 491.311C21.3424 492.483 22.6629 493.149 24.8526 493.149C27.0257 493.149 28.3297 492.483 28.3407 491.311C28.3297 490.123 27.0257 489.463 24.8526 489.463C22.6629 489.463 21.3424 490.123 21.3424 491.311ZM22.7729 491.311C22.7674 490.794 23.4661 490.53 24.8526 490.53C26.2115 490.53 26.9267 490.794 26.9322 491.311C26.9267 491.834 26.2115 492.081 24.8526 492.081C23.4661 492.081 22.7674 491.834 22.7729 491.311ZM38.4529 483.125H37.0335V493.138H38.4529V483.125ZM30.0682 490.299L30.8055 491.421C34.3816 489.732 35.4434 487.207 35.4489 484.17H30.6074V485.27H34.0185C33.7929 487.493 32.654 489.078 30.0682 490.299ZM47.7729 483.73H42.8763V487.944H47.7729V483.73ZM43.4045 492.059L43.8886 493.116C45.5612 492.956 46.7551 492.368 47.3713 491.575C47.982 492.357 49.1648 492.962 50.8319 493.116L51.305 492.059C49.3189 491.867 48.268 491.08 48.114 490.398H50.9199V489.353H48.07V488.527H46.6615V489.353H43.8116V490.398H46.6175C46.4635 491.102 45.4071 491.894 43.4045 492.059ZM44.2628 486.844V484.819H46.3754V486.844H44.2628ZM49.3464 488.802H50.7438V483.125H49.3464V488.802ZM63.86 488.076H54.6941V489.188H58.6994V490.915H60.0858V489.188H63.86V488.076ZM55.7724 492.962H62.8477V491.839H57.1699V490.046H55.7724V492.962ZM55.8385 487.251H62.6827V483.565H55.8385V487.251ZM57.2139 486.162V484.654H61.3072V486.162H57.2139ZM73.103 483.125H71.7716V493.138H73.103V483.125ZM64.2342 490.211L65.0814 491.245C66.0002 490.684 66.6054 489.694 66.9465 488.527C67.2876 489.606 67.8708 490.497 68.7676 491.025L69.5929 489.991C68.1294 489.155 67.6067 487.471 67.6122 485.809V485.27H69.1307V484.148H64.6193V485.27H66.2588V485.809C66.2588 487.51 65.7086 489.303 64.2342 490.211ZM68.4155 487.691H69.7359V492.676H71.0563V483.29H69.7359V486.558H68.4155V487.691ZM82.621 483.125H81.2236V485.435H79.6391V486.58H81.2236V488.912H82.621V483.125ZM74.1263 487.823L74.8415 488.923C76.0189 488.549 76.8222 487.752 77.2623 486.75C77.697 487.653 78.4617 488.384 79.5731 488.747L80.2663 487.636C78.7038 487.113 77.9831 485.908 77.9665 484.764H79.9582V483.631H74.5224V484.764H76.5361C76.4976 486.024 75.7493 487.3 74.1263 487.823ZM75.8869 493.028H82.621V489.331H75.8869V493.028ZM77.2953 491.905V490.431H81.2456V491.905H77.2953ZM92.6012 483.125H91.2588V493.138H92.6012V483.125ZM84.0075 487.46C84.0075 489.71 84.8603 491.102 86.1862 491.102C87.4186 491.102 88.2603 489.908 88.3814 487.944H89.1901V492.676H90.5106V483.268H89.1901V486.833H88.3704C88.2163 484.962 87.3911 483.834 86.1862 483.84C84.8603 483.834 84.0075 485.221 84.0075 487.46ZM85.3059 487.46C85.2949 485.925 85.625 485.16 86.1862 485.16C86.7639 485.16 87.105 485.925 87.0995 487.46C87.105 489 86.7639 489.76 86.1862 489.749C85.625 489.76 85.2949 489 85.3059 487.46ZM104.914 483.125H103.583V486.987H102.614V483.29H101.327V492.654H102.614V488.109H103.583V493.138H104.914V483.125ZM96.5405 490.871H97.2337C98.5541 490.866 99.6215 490.827 100.843 490.596L100.744 489.452C99.7755 489.622 98.9173 489.677 97.9489 489.694V485.413H100.271V484.28H96.5405V490.871ZM113.937 483.136H112.529V490.607H113.937V487.35H115.29V486.206H113.937V483.136ZM105.993 485.292H111.934V484.181H109.668V483.114H108.27V484.181H105.993V485.292ZM106.477 487.581C106.477 488.736 107.506 489.496 108.963 489.496C110.416 489.496 111.428 488.736 111.428 487.581C111.428 486.42 110.416 485.644 108.963 485.644C107.506 485.644 106.477 486.42 106.477 487.581ZM107.445 492.962H114.3V491.839H108.842V490.035H107.445V492.962ZM107.852 487.581C107.847 487.025 108.292 486.717 108.963 486.712C109.64 486.717 110.097 487.025 110.097 487.581C110.097 488.131 109.64 488.428 108.963 488.428C108.292 488.428 107.847 488.131 107.852 487.581ZM126.767 483.125H125.37V484.621H123.488V485.732H125.37V488.219H126.767V483.125ZM118.25 487.185L118.977 488.296C120.149 487.928 120.935 487.179 121.375 486.217C121.81 487.075 122.558 487.746 123.631 488.087L124.368 487.009C122.773 486.536 122.074 485.375 122.08 484.181V483.455H120.66V484.181C120.655 485.474 119.912 486.695 118.25 487.185ZM120.11 489.716H125.381V490.288H120.121V493.028H127.053V491.927H121.507V491.311H126.767V488.637H120.11V489.716ZM136.505 483.125H135.108V484.588H133.237V483.862H128.484V488.439H133.237V487.713H135.108V488.989H136.505V483.125ZM129.639 491.201C129.639 492.439 130.949 493.143 133.083 493.138C135.223 493.143 136.533 492.439 136.538 491.201C136.533 489.969 135.223 489.248 133.083 489.254C130.949 489.248 129.639 489.969 129.639 491.201ZM129.881 487.328V484.973H131.862V487.328H129.881ZM131.037 491.201C131.037 490.607 131.757 490.321 133.083 490.321C134.415 490.321 135.135 490.607 135.141 491.201C135.135 491.773 134.415 492.07 133.083 492.07C131.757 492.07 131.037 491.773 131.037 491.201ZM133.237 486.58V485.699H135.108V486.58H133.237Z" fill="#ECECF8" fill-opacity="0.5"/>
<path d="M23.7632 500.592V499.613H22.9049V500.625C22.8939 502.144 21.8926 503.442 20.3851 503.97L20.8583 504.674C22.0412 504.229 22.9324 503.321 23.3506 502.149C23.7742 503.178 24.6215 503.976 25.6998 504.377L26.184 503.706C24.748 503.216 23.7522 501.989 23.7632 500.592ZM21.9806 506.985C21.9751 508.151 23.224 508.812 25.2597 508.812C27.2898 508.812 28.5387 508.151 28.5387 506.985C28.5387 505.808 27.2898 505.131 25.2597 505.136C23.224 505.131 21.9751 505.808 21.9806 506.985ZM22.8389 506.985C22.8334 506.253 23.7577 505.819 25.2597 505.819C26.7562 505.819 27.6805 506.253 27.6805 506.985C27.6805 507.695 26.7562 508.124 25.2597 508.118C23.7577 508.124 22.8334 507.695 22.8389 506.985ZM25.4577 501.868H27.6364V504.85H28.5057V499.052H27.6364V501.153H25.4577V501.868ZM38.0348 501.791H32.2139V499.25H31.3556V502.507H38.0348V501.791ZM30.1342 504.366H39.0581V503.651H30.1342V504.366ZM31.2126 507.018C31.2071 508.151 32.478 508.79 34.5907 508.79C36.6868 508.79 37.9467 508.151 37.9577 507.018C37.9467 505.879 36.6868 505.241 34.5907 505.247C32.478 505.241 31.2071 505.879 31.2126 507.018ZM32.0929 507.018C32.0819 506.325 33.0227 505.934 34.5907 505.929C36.1422 505.934 37.083 506.325 37.0885 507.018C37.083 507.7 36.1422 508.113 34.5907 508.118C33.0227 508.113 32.0819 507.7 32.0929 507.018ZM50.7658 499.052H49.8966V508.856H50.7658V499.052ZM43.2724 506.49H47.8939V499.888H47.0467V502.474H44.1307V499.888H43.2724V506.49ZM44.1307 505.764V503.167H47.0467V505.764H44.1307ZM60.2949 500.042H53.3737V500.757H59.4476V501.131C59.4421 502.353 59.4421 503.64 59.0955 505.368L59.9428 505.467C60.2894 503.646 60.2894 502.386 60.2949 501.131V500.042ZM52.4384 507.447H61.3512V506.732H57.9401V503.508H57.0929V506.732H55.5084V503.508H54.6501V506.732H52.4384V507.447ZM72.5748 499.052H71.7166V508.834H72.5748V503.805H74.2144V503.09H72.5748V499.052ZM64.9494 501.34H70.7702V500.625H68.3275V499.173H67.4692V500.625H64.9494V501.34ZM65.5106 504.399C65.5051 505.725 66.5174 506.644 67.9093 506.644C69.2903 506.644 70.2971 505.725 70.3081 504.399C70.2971 503.079 69.2903 502.155 67.9093 502.155C66.5174 502.155 65.5051 503.079 65.5106 504.399ZM66.3358 504.399C66.3303 503.513 66.996 502.875 67.9093 502.881C68.8116 502.875 69.4718 503.513 69.4828 504.399C69.4718 505.291 68.8116 505.918 67.9093 505.907C66.996 505.918 66.3303 505.291 66.3358 504.399ZM82.654 502.022H76.8112V499.415H75.9529V502.716H82.654V502.022ZM74.7315 504.751H83.6884V504.047H74.7315V504.751ZM75.8979 508.592H82.7091V507.876H76.7562V505.753H75.8979V508.592ZM92.8543 499.052H92.0291V508.834H92.8543V499.052ZM84.4916 506.094L84.9978 506.721C86.3622 505.918 87.3085 504.911 87.8972 503.772H89.9714V508.339H90.7967V499.316H89.9714V503.068H88.2163C88.5519 502.199 88.706 501.269 88.706 500.306H84.9098V501.021H87.8477C87.6827 503.068 86.6153 504.834 84.4916 506.094ZM105.167 499.052H104.298V502.287H101.25V503.002H104.298V508.856H105.167V499.052ZM97.5858 506.479H98.3341C99.9186 506.479 101.294 506.396 102.857 506.072L102.746 505.357C101.278 505.659 99.9516 505.736 98.4551 505.753V500.152H97.5858V506.479ZM115.731 504.74H106.774V505.456H110.801V508.834H111.648V505.456H115.731V504.74ZM107.929 503.409H114.564V499.602H107.929V503.409ZM108.776 502.727V500.306H113.706V502.727H108.776ZM121.981 499.811C120.534 499.816 119.521 501.142 119.527 503.222C119.521 505.307 120.534 506.627 121.981 506.622C123.345 506.627 124.324 505.428 124.418 503.508H126.602V508.856H127.46V499.052H126.602V502.793H124.407C124.275 500.961 123.312 499.816 121.981 499.811ZM120.352 503.222C120.358 501.632 121.018 500.587 121.981 500.581C122.938 500.587 123.609 501.632 123.609 503.222C123.609 504.812 122.938 505.857 121.981 505.852C121.018 505.857 120.358 504.812 120.352 503.222ZM137.199 499.063H136.329V500.328H134.382V501.043H136.329V502.232H134.382V502.936H136.329V504.531H137.199V499.063ZM129.485 500.218H132.874V501.472H129.507V504.234H130.2C132.153 504.223 133.149 504.201 134.393 503.992L134.316 503.277C133.133 503.48 132.181 503.497 130.365 503.508V502.144H133.732V499.503H129.485V500.218ZM130.816 508.702H137.199V504.927H136.34V506.072H131.686V504.927H130.816V508.702ZM131.686 507.997V506.765H136.34V507.997H131.686ZM146.397 499.052H145.539V508.856H146.397V503.651H148.037V502.925H146.397V499.052ZM139.256 506.402H140.026C141.886 506.402 143.168 506.347 144.703 506.072L144.593 505.324C143.135 505.593 141.886 505.67 140.114 505.676V500.724H143.823V500.009H139.256V506.402ZM149.599 508.008C149.99 508.003 150.309 507.684 150.304 507.293C150.309 506.908 149.99 506.589 149.599 506.589C149.214 506.589 148.884 506.908 148.895 507.293C148.884 507.684 149.214 508.003 149.599 508.008ZM29.353 519.853H25.2707V517.465H28.2416V512.877H21.4525V517.465H24.4234V519.853H20.3961V520.579H29.353V519.853ZM22.2997 516.772V513.57H27.4054V516.772H22.2997ZM38.4639 512.063H37.6386V517.267H38.4639V512.063ZM30.6184 516.772H31.2346C32.7421 516.772 33.7049 516.734 34.8878 516.519L34.8327 515.804C33.7269 516.024 32.8136 516.068 31.4767 516.068V513.328H34.3486V512.635H30.6184V516.772ZM31.9498 518.39H37.6276V519.303H31.9718V521.702H38.838V521.008H32.8301V519.974H38.4639V517.696H31.9498V518.39ZM33.7324 514.901H35.757V517.179H36.5823V512.261H35.757V514.219H33.7324V514.901ZM44.3288 512.228C42.1446 512.228 40.8627 512.827 40.8627 513.911C40.8627 515.022 42.1446 515.622 44.3288 515.628C46.502 515.622 47.7784 515.022 47.7839 513.911C47.7784 512.827 46.502 512.228 44.3288 512.228ZM39.8724 516.992H48.7852V516.288H39.8724V516.992ZM40.9507 518.5H46.7936V519.391H40.9727V521.724H47.9379V521.041H41.831V520.029H47.6408V517.839H40.9507V518.5ZM41.765 513.911C41.754 513.267 42.7058 512.882 44.3288 512.877C45.9518 512.882 46.8981 513.267 46.9036 513.911C46.8981 514.593 45.9518 514.967 44.3288 514.967C42.7058 514.967 41.754 514.593 41.765 513.911ZM53.6268 512.987H52.8015V519.391H56.5537V512.987H55.7504V515.375H53.6268V512.987ZM53.6268 518.676V516.079H55.7504V518.676H53.6268ZM57.7971 521.339H58.6224V516.651H59.9868V521.834H60.8231V512.052H59.9868V515.936H58.6224V512.261H57.7971V521.339ZM71.1334 519.886H67.0401V517.63H70.2531V516.937H68.7236V513.724H70.2751V513.009H62.9687V513.724H64.5202V516.937H62.9908V517.63H66.1928V519.886H62.1765V520.623H71.1334V519.886ZM65.3785 516.937V513.724H67.8763V516.937H65.3785ZM79.485 512.052H78.6268V521.834H79.485V516.805H81.1246V516.09H79.485V512.052ZM71.8596 514.34H77.6805V513.625H75.2377V512.173H74.3794V513.625H71.8596V514.34ZM72.4208 517.399C72.4153 518.725 73.4276 519.644 74.8195 519.644C76.2005 519.644 77.2073 518.725 77.2183 517.399C77.2073 516.079 76.2005 515.155 74.8195 515.155C73.4276 515.155 72.4153 516.079 72.4208 517.399ZM73.246 517.399C73.2405 516.513 73.9063 515.875 74.8195 515.881C75.7218 515.875 76.382 516.513 76.393 517.399C76.382 518.291 75.7218 518.918 74.8195 518.907C73.9063 518.918 73.2405 518.291 73.246 517.399ZM89.5643 515.022H83.7214V512.415H82.8631V515.716H89.5643V515.022ZM81.6417 517.751H90.5986V517.047H81.6417V517.751ZM82.8081 521.592H89.6193V520.876H83.6664V518.753H82.8081V521.592ZM99.7645 512.052H98.9393V521.834H99.7645V512.052ZM91.4019 519.094L91.908 519.721C93.2724 518.918 94.2188 517.911 94.8074 516.772H96.8816V521.339H97.7069V512.316H96.8816V516.068H95.1265C95.4622 515.199 95.6162 514.269 95.6162 513.306H91.82V514.021H94.7579C94.5929 516.068 93.5255 517.834 91.4019 519.094ZM112.077 512.052H111.208V515.287H108.16V516.002H111.208V521.856H112.077V512.052ZM104.496 519.479H105.244C106.829 519.479 108.204 519.396 109.767 519.072L109.657 518.357C108.188 518.659 106.862 518.736 105.365 518.753V513.152H104.496V519.479ZM122.641 517.74H113.684V518.456H117.711V521.834H118.559V518.456H122.641V517.74ZM114.839 516.409H121.474V512.602H114.839V516.409ZM115.687 515.727V513.306H120.616V515.727H115.687ZM128.891 512.811C127.444 512.816 126.432 514.142 126.437 516.222C126.432 518.307 127.444 519.627 128.891 519.622C130.255 519.627 131.235 518.428 131.328 516.508H133.512V521.856H134.371V512.052H133.512V515.793H131.317C131.185 513.961 130.222 512.816 128.891 512.811ZM127.262 516.222C127.268 514.632 127.928 513.587 128.891 513.581C129.848 513.587 130.519 514.632 130.519 516.222C130.519 517.812 129.848 518.857 128.891 518.852C127.928 518.857 127.268 517.812 127.262 516.222ZM144.109 512.063H143.239V513.328H141.292V514.043H143.239V515.232H141.292V515.936H143.239V517.531H144.109V512.063ZM136.395 513.218H139.784V514.472H136.417V517.234H137.11C139.064 517.223 140.059 517.201 141.303 516.992L141.226 516.277C140.043 516.48 139.091 516.497 137.276 516.508V515.144H140.643V512.503H136.395V513.218ZM137.727 521.702H144.109V517.927H143.25V519.072H138.596V517.927H137.727V521.702ZM138.596 520.997V519.765H143.25V520.997H138.596ZM153.308 512.052H152.449V521.856H153.308V516.651H154.947V515.925H153.308V512.052ZM146.166 519.402H146.937C148.796 519.402 150.078 519.347 151.613 519.072L151.503 518.324C150.045 518.593 148.796 518.67 147.025 518.676V513.724H150.733V513.009H146.166V519.402ZM156.51 521.008C156.9 521.003 157.219 520.684 157.214 520.293C157.219 519.908 156.9 519.589 156.51 519.589C156.125 519.589 155.794 519.908 155.805 520.293C155.794 520.684 156.125 521.003 156.51 521.008ZM169.219 512.063H168.36V519.215H169.219V512.063ZM161.373 515.144C161.368 516.568 162.474 517.559 163.937 517.553C165.401 517.559 166.495 516.568 166.501 515.144C166.495 513.735 165.401 512.75 163.937 512.745C162.474 512.75 161.368 513.735 161.373 515.144ZM162.221 515.144C162.21 514.186 162.947 513.504 163.937 513.504C164.911 513.504 165.654 514.186 165.654 515.144C165.654 516.117 164.911 516.794 163.937 516.794C162.947 516.794 162.21 516.117 162.221 515.144ZM162.903 521.625H169.527V520.898H163.761V518.489H162.903V521.625ZM179.837 519.842H170.88V520.579H179.837V519.842ZM171.673 513.757H173.224V517.179H171.695V517.883H178.957V517.179H177.427V513.757H178.979V513.042H171.673V513.757ZM174.082 517.179V513.757H176.58V517.179H174.082ZM188.189 512.052H187.331V521.856H188.189V516.673H189.828V515.947H188.189V512.052ZM181.004 513.68H184.591V515.749H181.026V519.49H181.807C183.694 519.479 184.998 519.407 186.538 519.127L186.45 518.412C184.97 518.687 183.699 518.758 181.884 518.753V516.464H185.449V512.965H181.004V513.68ZM193.757 513.856V513.438H195.946V512.734H190.676V513.438H192.887V513.867C192.887 515.248 191.842 516.552 190.401 517.069L190.852 517.751C192.013 517.322 192.92 516.42 193.344 515.298C193.762 516.304 194.615 517.124 195.715 517.52L196.166 516.838C194.736 516.343 193.757 515.127 193.757 513.856ZM191.886 519.149H197.597V521.834H198.466V518.434H191.886V519.149ZM195.638 515.342H197.597V517.916H198.466V512.052H197.597V514.615H195.638V515.342ZM208.171 512.063H207.313V519.215H208.171V512.063ZM200.326 515.144C200.32 516.568 201.426 517.559 202.89 517.553C204.353 517.559 205.448 516.568 205.453 515.144C205.448 513.735 204.353 512.75 202.89 512.745C201.426 512.75 200.32 513.735 200.326 515.144ZM201.173 515.144C201.162 514.186 201.899 513.504 202.89 513.504C203.863 513.504 204.606 514.186 204.606 515.144C204.606 516.117 203.863 516.794 202.89 516.794C201.899 516.794 201.162 516.117 201.173 515.144ZM201.855 521.625H208.479V520.898H202.713V518.489H201.855V521.625ZM216.16 515.055V513.779H218.493V513.064H212.98V513.779H215.29V515.055C215.285 516.75 214.064 518.599 212.661 519.27L213.178 519.952C214.295 519.391 215.285 518.147 215.742 516.712C216.198 518.065 217.183 519.193 218.327 519.71L218.812 519.028C217.37 518.406 216.165 516.717 216.16 515.055ZM219.857 521.834H220.726V512.052H219.857V521.834ZM225.865 513.471V512.536H224.985V513.471C224.985 514.951 223.961 516.304 222.498 516.849L222.949 517.531C224.099 517.086 225.001 516.172 225.43 515.011C225.87 516.095 226.767 516.937 227.901 517.355L228.341 516.673C226.888 516.167 225.854 514.896 225.865 513.471ZM223.895 519.149H229.617V521.834H230.475V518.434H223.895V519.149ZM229.617 517.949H230.475V512.052H229.617V517.949ZM239.883 512.052H239.014V521.834H239.883V516.816H241.369V516.09H239.883V512.052ZM232.104 519.127L232.797 519.622C234.574 517.746 235.097 515.446 235.108 513.119H232.412V513.845H234.288C234.178 515.793 233.578 517.614 232.104 519.127ZM234.91 519.787L235.614 520.271C237.446 518.142 237.787 515.441 237.793 513.119H235.416V513.845H236.978C236.896 515.886 236.439 518.059 234.91 519.787ZM245.374 515.055V513.779H247.707V513.064H242.194V513.779H244.505V515.055C244.499 516.75 243.278 518.599 241.875 519.27L242.392 519.952C243.509 519.391 244.499 518.147 244.956 516.712C245.413 518.065 246.397 519.193 247.542 519.71L248.026 519.028C246.585 518.406 245.38 516.717 245.374 515.055ZM249.071 521.834H249.941V512.052H249.071V521.834ZM262.793 512.052H261.945V516.035H260.537V512.272H259.723V521.328H260.537V516.772H261.945V521.834H262.793V512.052ZM254.936 519.303H255.541C256.62 519.303 257.742 519.231 259.107 518.984L258.996 518.214C257.808 518.456 256.763 518.527 255.794 518.533V513.251H254.936V519.303ZM271.75 512.052H270.891V521.834H271.75V516.761H273.334V516.035H271.75V512.052ZM264.245 519.292L264.729 519.974C267.915 518.401 269.213 515.875 269.219 513.108H264.696V513.834H268.344C268.146 516.15 266.77 518.037 264.245 519.292ZM28.0436 525.052H27.1853V530.036H28.0436V527.901H29.518V527.175H28.0436V525.052ZM20.5832 527.582C20.5777 528.87 21.656 529.756 23.125 529.761C24.5995 529.756 25.6668 528.87 25.6668 527.582C25.6668 526.3 24.5995 525.42 23.125 525.415C21.656 525.42 20.5777 526.3 20.5832 527.582ZM21.4305 527.582C21.425 526.735 22.1457 526.13 23.125 526.141C24.0988 526.13 24.825 526.735 24.8195 527.582C24.825 528.441 24.0988 529.057 23.125 529.057C22.1457 529.057 21.425 528.441 21.4305 527.582ZM21.8046 531.192H27.1853V532.226H21.8266V534.702H28.4067V534.008H22.6739V532.886H28.0436V530.498H21.8046V531.192ZM32.7531 525.811C31.3006 525.816 30.2828 527.142 30.2883 529.222C30.2828 531.307 31.3006 532.627 32.7531 532.622C34.1945 532.627 35.2179 531.307 35.2289 529.222C35.2179 527.142 34.1945 525.816 32.7531 525.811ZM31.1026 529.222C31.1081 527.632 31.7848 526.587 32.7531 526.581C33.7324 526.587 34.3926 527.632 34.3926 529.222C34.3926 530.812 33.7324 531.857 32.7531 531.852C31.7848 531.857 31.1081 530.812 31.1026 529.222ZM36.8464 534.834H37.7047V529.706H39.3442V528.958H37.7047V525.052H36.8464V534.834ZM42.4912 525.811C41.0387 525.816 40.0209 527.142 40.0264 529.222C40.0209 531.307 41.0387 532.627 42.4912 532.622C43.9327 532.627 44.956 531.307 44.967 529.222C44.956 527.142 43.9327 525.816 42.4912 525.811ZM40.8407 529.222C40.8462 527.632 41.5229 526.587 42.4912 526.581C43.4705 526.587 44.1307 527.632 44.1307 529.222C44.1307 530.812 43.4705 531.857 42.4912 531.852C41.5229 531.857 40.8462 530.812 40.8407 529.222ZM46.5845 534.834H47.4428V531.158H49.0273V530.432H47.4428V528.254H49.0273V527.516H47.4428V525.052H46.5845V534.834ZM57.1809 525.052H56.3226V534.834H57.1809V529.805H58.8204V529.09H57.1809V525.052ZM49.5555 527.34H55.3763V526.625H52.9335V525.173H52.0753V526.625H49.5555V527.34ZM50.1166 530.399C50.1111 531.725 51.1235 532.644 52.5154 532.644C53.8963 532.644 54.9032 531.725 54.9142 530.399C54.9032 529.079 53.8963 528.155 52.5154 528.155C51.1235 528.155 50.1111 529.079 50.1166 530.399ZM50.9419 530.399C50.9364 529.513 51.6021 528.875 52.5154 528.881C53.4177 528.875 54.0779 529.513 54.0889 530.399C54.0779 531.291 53.4177 531.918 52.5154 531.907C51.6021 531.918 50.9364 531.291 50.9419 530.399ZM66.919 525.052H66.0607V534.856H66.919V529.651H68.5585V528.925H66.919V525.052ZM59.7777 532.402H60.548C62.4076 532.402 63.6895 532.347 65.2245 532.072L65.1144 531.324C63.6565 531.593 62.4076 531.67 60.636 531.676V526.724H64.3442V526.009H59.7777V532.402ZM77.1523 525.052H76.294V534.834H77.1523V525.052ZM69.7249 532.314H70.5172C72.0852 532.314 73.6312 532.193 75.3697 531.83L75.2487 531.092C73.6092 531.439 72.0687 531.555 70.5722 531.566V526.02H69.7249V532.314ZM79.8592 534.008C80.2498 534.003 80.5689 533.684 80.5634 533.293C80.5689 532.908 80.2498 532.589 79.8592 532.589C79.474 532.589 79.1439 532.908 79.1549 533.293C79.1439 533.684 79.474 534.003 79.8592 534.008ZM82.0158 533.293C82.0048 533.684 82.3349 534.003 82.7201 534.008C83.1107 534.003 83.4298 533.684 83.4243 533.293C83.4298 532.908 83.1107 532.589 82.7201 532.589C82.3349 532.589 82.0048 532.908 82.0158 533.293ZM84.8768 533.293C84.8658 533.684 85.1959 534.003 85.581 534.008C85.9716 534.003 86.2907 533.684 86.2852 533.293C86.2907 532.908 85.9716 532.589 85.581 532.589C85.1959 532.589 84.8658 532.908 84.8768 533.293ZM98.2901 525.052H97.4318V530.982H98.2901V525.052ZM90.3565 526.812H96.3534V526.108H93.7896V524.975H92.9203V526.108H90.3565V526.812ZM90.9617 529.035C90.9507 530.108 91.908 530.784 93.3605 530.784C94.8074 530.784 95.7537 530.108 95.7592 529.035C95.7537 527.973 94.8074 527.296 93.3605 527.296C91.908 527.296 90.9507 527.973 90.9617 529.035ZM91.787 529.035C91.776 528.386 92.4032 527.956 93.3605 527.956C94.3068 527.956 94.9285 528.386 94.934 529.035C94.9285 529.701 94.3068 530.113 93.3605 530.124C92.4032 530.113 91.776 529.701 91.787 529.035ZM91.93 534.702H98.2901V531.511H91.93V534.702ZM92.7773 533.997V532.204H97.4428V533.997H92.7773ZM108.875 529.167H99.9516V529.86H108.875V529.167ZM101.03 531.412H106.873V532.358H101.052V534.724H108.017V534.019H101.91V533.007H107.72V530.74H101.03V531.412ZM101.14 528.364H107.808V527.659H102.009V526.086H107.709V525.393H101.14V528.364ZM117.26 525.052H116.402V534.856H117.26V529.651H118.9V528.925H117.26V525.052ZM110.119 532.402H110.889C112.749 532.402 114.031 532.347 115.566 532.072L115.456 531.324C113.998 531.593 112.749 531.67 110.977 531.676V526.724H114.685V526.009H110.119V532.402ZM120.462 534.008C120.853 534.003 121.172 533.684 121.166 533.293C121.172 532.908 120.853 532.589 120.462 532.589C120.077 532.589 119.747 532.908 119.758 533.293C119.747 533.684 120.077 534.003 120.462 534.008ZM28.4617 538.052H27.5924V547.856H28.4617V538.052ZM20.7592 542.222C20.7647 544.307 21.7991 545.627 23.257 545.622C24.7095 545.627 25.7603 544.307 25.7548 542.222C25.7603 540.142 24.7095 538.816 23.257 538.811C21.7991 538.816 20.7647 540.142 20.7592 542.222ZM21.5955 542.222C21.5955 540.632 22.2777 539.587 23.257 539.581C24.2419 539.587 24.9186 540.632 24.9186 542.222C24.9186 543.812 24.2419 544.857 23.257 544.852C22.2777 544.857 21.5955 543.812 21.5955 542.222ZM38.2438 538.063H37.3746V540.813H35.2289V541.54H37.3746V544.687H38.2438V538.063ZM30.2993 543.355L30.6844 544.048C33.4958 543.146 35.1794 541.342 35.1849 538.833H30.7835V539.537H34.2661C34.0845 541.276 32.6375 542.635 30.2993 543.355ZM31.3226 547.118L31.6747 547.801C33.1327 547.515 34.4751 546.75 35.0693 545.594C35.647 546.739 36.9784 547.504 38.4199 547.779L38.783 547.085C37.061 546.777 35.4985 545.704 35.493 544.28V543.828H34.6457V544.28C34.6347 545.721 33.0557 546.816 31.3226 547.118ZM48.7962 542.167H39.8724V542.86H48.7962V542.167ZM40.9507 544.412H46.7936V545.358H40.9727V547.724H47.9379V547.019H41.831V546.007H47.6408V543.74H40.9507V544.412ZM41.0607 541.364H47.7289V540.659H41.93V539.086H47.6298V538.393H41.0607V541.364ZM54.0669 538.228C51.8827 538.228 50.6008 538.827 50.6008 539.911C50.6008 541.022 51.8827 541.622 54.0669 541.628C56.2401 541.622 57.5165 541.022 57.522 539.911C57.5165 538.827 56.2401 538.228 54.0669 538.228ZM49.6105 542.992H58.5233V542.288H49.6105V542.992ZM50.6888 544.5H56.5317V545.391H50.7108V547.724H57.6761V547.041H51.5691V546.029H57.379V543.839H50.6888V544.5ZM51.5031 539.911C51.4921 539.267 52.4439 538.882 54.0669 538.877C55.6899 538.882 56.6362 539.267 56.6417 539.911C56.6362 540.593 55.6899 540.967 54.0669 540.967C52.4439 540.967 51.4921 540.593 51.5031 539.911ZM67.0621 539.746H65.0484V538.349H64.1901V539.746H62.1545V540.45H67.0621V539.746ZM62.5066 543.333C62.5066 544.648 63.3924 545.572 64.6083 545.578C65.8407 545.572 66.7209 544.648 66.732 543.333C66.7209 542.035 65.8407 541.116 64.6083 541.111C63.3924 541.116 62.5066 542.035 62.5066 543.333ZM63.2768 543.333C63.2768 542.475 63.8325 541.848 64.6083 541.837C65.3895 541.848 65.9617 542.475 65.9617 543.333C65.9617 544.203 65.3895 544.824 64.6083 544.819C63.8325 544.824 63.2768 544.203 63.2768 543.333ZM67.5682 547.35H68.3825V542.893H69.6809V547.834H70.5062V538.052H69.6809V542.178H68.3825V538.294H67.5682V547.35ZM80.0242 538.052H79.1549V539.482H76.8937C76.9542 539.185 76.9872 538.871 76.9872 538.547H72.5748V539.262H76.0354C75.8704 540.841 74.4784 542.007 72.0797 542.563L72.3878 543.278C74.561 542.756 76.0794 541.716 76.6901 540.175H79.1549V541.353H76.5471V542.035H79.1549V543.058H80.0242V538.052ZM73.6862 544.203H79.1549V545.226H73.7082V547.746H80.3543V547.03H74.5665V545.886H80.0242V543.498H73.6862V544.203ZM86.5383 539.746H84.5246V538.349H83.6664V539.746H81.6307V540.45H86.5383V539.746ZM81.9828 543.333C81.9828 544.648 82.8686 545.572 84.0845 545.578C85.3169 545.572 86.1972 544.648 86.2082 543.333C86.1972 542.035 85.3169 541.116 84.0845 541.111C82.8686 541.116 81.9828 542.035 81.9828 543.333ZM82.7531 543.333C82.7531 542.475 83.3088 541.848 84.0845 541.837C84.8658 541.848 85.4379 542.475 85.4379 543.333C85.4379 544.203 84.8658 544.824 84.0845 544.819C83.3088 544.824 82.7531 544.203 82.7531 543.333ZM87.0445 547.35H87.8587V542.893H89.1571V547.834H89.9824V538.052H89.1571V542.178H87.8587V538.294H87.0445V547.35ZM96.3314 539.438V539.372H99.4564V538.668H92.2271V539.372H95.3631V539.438C95.3576 540.747 93.6191 541.859 91.919 542.112L92.2601 542.794C93.7621 542.535 95.2531 541.721 95.8473 540.544C96.4415 541.721 97.9324 542.535 99.4564 542.794L99.7755 542.112C98.07 541.859 96.3259 540.747 96.3314 539.438ZM91.3908 544.346H95.4071V547.834H96.2544V544.346H100.304V543.63H91.3908V544.346ZM109.04 541.022H103.198V538.415H102.339V541.716H109.04V541.022ZM101.118 543.751H110.075V543.047H101.118V543.751ZM102.284 547.592H109.096V546.876H103.143V544.753H102.284V547.592ZM118.57 541.044H117.722V542.332H113.695V543.036H122.608V542.332H118.57V541.044ZM114.19 540.901L114.498 541.562C116.033 541.353 117.53 540.687 118.146 539.614C118.762 540.687 120.253 541.353 121.794 541.562L122.102 540.901C120.319 540.703 118.581 539.768 118.581 538.503V538.129H117.711V538.503C117.711 539.768 115.978 540.703 114.19 540.901ZM114.773 544.522H120.616V545.424H114.795V547.724H121.761V547.041H115.654V546.073H121.463V543.85H114.773V544.522ZM131.29 538.448H124.5V539.152H130.409V540.307H124.522V542.97H131.499V542.255H125.392V540.989H131.29V538.448ZM123.422 544.698H127.449V547.856H128.308V544.698H132.379V544.004H123.422V544.698ZM136.516 539.867V538.613H135.669V539.867C135.664 541.402 134.651 542.805 133.193 543.366L133.666 544.059C134.805 543.586 135.686 542.635 136.104 541.435C136.516 542.546 137.358 543.438 138.431 543.883L138.915 543.212C137.501 542.657 136.516 541.303 136.516 539.867ZM134.954 547.625H141.501V546.898H135.823V544.61H134.954V547.625ZM138.398 542.233H140.412V545.369H141.281V538.063H140.412V539.515H138.398V540.23H140.412V541.529H138.398V542.233ZM150.975 538.052H150.106V547.856H150.975V538.052ZM143.272 542.222C143.278 544.307 144.312 545.627 145.77 545.622C147.223 545.627 148.274 544.307 148.268 542.222C148.274 540.142 147.223 538.816 145.77 538.811C144.312 538.816 143.278 540.142 143.272 542.222ZM144.109 542.222C144.109 540.632 144.791 539.587 145.77 539.581C146.755 539.587 147.432 540.632 147.432 542.222C147.432 543.812 146.755 544.857 145.77 544.852C144.791 544.857 144.109 543.812 144.109 542.222ZM157.423 543.795H156.609V547.702H160.009V543.795H159.206V545.017H157.423V543.795ZM155.629 540.736C155.624 542.079 156.68 542.992 158.171 542.992C159.497 542.992 160.504 542.233 160.675 541.078H162.716V543.234H163.585V538.052H162.716V540.362H160.669C160.482 539.234 159.486 538.492 158.171 538.492C156.68 538.492 155.624 539.399 155.629 540.736ZM156.455 540.736C156.455 539.845 157.164 539.218 158.171 539.218C159.156 539.218 159.866 539.845 159.866 540.736C159.866 541.633 159.156 542.271 158.171 542.277C157.164 542.271 156.455 541.633 156.455 540.736ZM157.423 547.019V545.677H159.206V547.019H157.423ZM160.141 547.118L160.592 547.779C161.456 547.41 162.055 546.717 162.364 545.919C162.666 546.728 163.255 547.421 164.157 547.779L164.608 547.118C163.414 546.678 162.793 545.594 162.804 544.566V543.729H161.945V544.566C161.94 545.556 161.318 546.629 160.141 547.118ZM169.67 538.228C167.486 538.228 166.204 538.827 166.204 539.911C166.204 541.022 167.486 541.622 169.67 541.628C171.843 541.622 173.119 541.022 173.125 539.911C173.119 538.827 171.843 538.228 169.67 538.228ZM165.213 542.992H174.126V542.288H165.213V542.992ZM166.292 544.5H172.135V545.391H166.314V547.724H173.279V547.041H167.172V546.029H172.982V543.839H166.292V544.5ZM167.106 539.911C167.095 539.267 168.047 538.882 169.67 538.877C171.293 538.882 172.239 539.267 172.245 539.911C172.239 540.593 171.293 540.967 169.67 540.967C168.047 540.967 167.095 540.593 167.106 539.911ZM182.698 538.052H181.829V547.834H182.698V542.816H184.184V542.09H182.698V538.052ZM174.919 545.127L175.612 545.622C177.389 543.746 177.912 541.446 177.923 539.119H175.227V539.845H177.103C176.993 541.793 176.393 543.614 174.919 545.127ZM177.724 545.787L178.429 546.271C180.261 544.142 180.602 541.441 180.607 539.119H178.231V539.845H179.793C179.711 541.886 179.254 544.059 177.724 545.787ZM186.252 544.643V544.698H187.199V544.643C187.221 543.691 187.468 543.267 188.156 542.849C188.838 542.431 189.245 541.831 189.245 540.967C189.245 539.752 188.348 538.866 186.967 538.866C185.708 538.866 184.701 539.642 184.646 540.978H185.647C185.708 540.071 186.34 539.697 186.967 539.702C187.694 539.697 188.277 540.175 188.277 540.923C188.277 541.54 187.93 541.98 187.474 542.255C186.714 542.717 186.263 543.168 186.252 544.643ZM186.054 546.293C186.043 546.684 186.373 547.003 186.758 547.008C187.149 547.003 187.468 546.684 187.463 546.293C187.468 545.908 187.149 545.589 186.758 545.589C186.373 545.589 186.043 545.908 186.054 546.293Z" fill="#ECECF8" fill-opacity="0.7"/>
<defs>
<linearGradient id="paint0_linear_988_3404" x1="150" y1="46" x2="150" y2="243.183" gradientUnits="userSpaceOnUse">
<stop stop-color="#E83E3E"/>
<stop offset="1" stop-color="#D13333" stop-opacity="0"/>
</linearGradient>
<linearGradient id="paint1_linear_988_3404" x1="163.262" y1="123.255" x2="163.262" y2="137.401" gradientUnits="userSpaceOnUse">
<stop stop-color="#392C11"/>
<stop offset="1" stop-color="#060107"/>
</linearGradient>
<linearGradient id="paint2_linear_988_3404" x1="185.712" y1="126.285" x2="183.252" y2="135.466" gradientUnits="userSpaceOnUse">
<stop offset="0.0001" stop-color="#392C11"/>
<stop offset="1" stop-color="#140817"/>
</linearGradient>
</defs>
</svg>
