<svg width="405" height="342" viewBox="0 0 405 342" fill="none" xmlns="http://www.w3.org/2000/svg">
<g clip-path="url(#clip0_518_4633)">
<rect width="405" height="342" rx="20" fill="#131316" fill-opacity="0.6"/>
<rect x="20" y="20" width="180" height="200" rx="8.4507" fill="black"/>
<ellipse cx="145.452" cy="112.648" rx="4.57746" ry="11.9718" transform="rotate(9.95946 145.452 112.648)" fill="#F3A4A7"/>
<circle cx="144.803" cy="124.634" r="4.92958" fill="url(#paint0_radial_518_4633)"/>
<path d="M100.063 172.52C104.57 169.985 99.3585 140.243 96.1895 125.689C103.349 125.689 117.809 126.323 118.373 128.858C118.936 131.394 125.415 155.267 128.584 166.887L112.387 193.999C106.401 187.896 95.5557 175.056 100.063 172.52Z" fill="#FDC6BF"/>
<mask id="mask0_518_4633" style="mask-type:alpha" maskUnits="userSpaceOnUse" x="96" y="125" width="33" height="69">
<path d="M100.063 172.52C104.57 169.985 99.3585 140.243 96.1895 125.689C103.349 125.689 117.809 126.323 118.373 128.858C118.936 131.394 125.415 155.267 128.584 166.887L112.387 193.999C106.401 187.896 95.5557 175.056 100.063 172.52Z" fill="#FDC6BF"/>
</mask>
<g mask="url(#mask0_518_4633)">
<path d="M127.528 132.732L132.458 162.309C132.458 162.309 125.768 166.887 109.57 150.69C93.3732 134.492 89.5 129.563 89.5 129.563L93.7254 119.352L127.528 132.732Z" fill="url(#paint1_linear_518_4633)"/>
</g>
<mask id="mask1_518_4633" style="mask-type:alpha" maskUnits="userSpaceOnUse" x="57" y="159" width="106" height="61">
<path d="M57.6797 220C57.9614 209.578 68.5952 176.803 79.1586 170.7C98.1726 162.601 134.088 158.738 148.173 159.794C159.44 160.639 164.605 206.385 161.201 220H57.6797Z" fill="url(#paint2_linear_518_4633)"/>
</mask>
<g mask="url(#mask1_518_4633)">
<path d="M57.6797 220C57.9614 209.578 68.5952 176.803 79.1586 170.7C98.1726 162.601 134.088 158.738 148.173 159.794C159.44 160.639 164.605 206.385 161.201 220H57.6797Z" fill="url(#paint3_linear_518_4633)"/>
<path d="M80.8307 180.08L82.3794 184.155L86.7334 183.941L83.3365 186.673L84.8852 190.748L81.2371 188.362L77.8403 191.094L78.9825 186.887L75.3344 184.501L79.6884 184.287L80.8307 180.08Z" fill="#D9D9D9"/>
<path d="M95.8131 179.345L97.3618 183.419L101.716 183.206L98.3189 185.938L99.8676 190.013L96.2196 187.626L92.8227 190.358L93.9649 186.152L90.3168 183.765L94.6709 183.552L95.8131 179.345Z" fill="#D9D9D9"/>
<path d="M110.796 178.609L112.344 182.684L116.698 182.47L113.301 185.202L114.85 189.277L111.202 186.891L107.805 189.623L108.947 185.416L105.299 183.03L109.653 182.816L110.796 178.609Z" fill="#D9D9D9"/>
<path d="M125.776 177.874L127.325 181.949L131.679 181.735L128.282 184.467L129.831 188.542L126.182 186.156L122.786 188.888L123.928 184.681L120.28 182.294L124.634 182.081L125.776 177.874Z" fill="#D9D9D9"/>
<path d="M140.758 177.139L142.307 181.213L146.661 181L143.264 183.732L144.813 187.807L141.165 185.42L137.768 188.152L138.91 183.945L135.262 181.559L139.616 181.345L140.758 177.139Z" fill="#D9D9D9"/>
<path d="M80.8307 166.419L82.3794 170.494L86.7334 170.28L83.3365 173.012L84.8852 177.087L81.2371 174.701L77.8403 177.433L78.9825 173.226L75.3344 170.839L79.6884 170.626L80.8307 166.419Z" fill="#D9D9D9"/>
<path d="M95.8131 165.683L97.3618 169.758L101.716 169.545L98.3189 172.277L99.8676 176.352L96.2196 173.965L92.8227 176.697L93.9649 172.49L90.3168 170.104L94.6709 169.89L95.8131 165.683Z" fill="#D9D9D9"/>
<path d="M110.796 164.948L112.344 169.023L116.698 168.809L113.301 171.541L114.85 175.616L111.202 173.23L107.805 175.962L108.947 171.755L105.299 169.369L109.653 169.155L110.796 164.948Z" fill="#D9D9D9"/>
<path d="M125.776 164.213L127.325 168.288L131.679 168.074L128.282 170.806L129.831 174.881L126.182 172.495L122.786 175.227L123.928 171.02L120.28 168.633L124.634 168.42L125.776 164.213Z" fill="#D9D9D9"/>
<path d="M140.758 163.477L142.307 167.552L146.661 167.339L143.264 170.071L144.813 174.146L141.165 171.759L137.768 174.491L138.91 170.284L135.262 167.898L139.616 167.684L140.758 163.477Z" fill="#D9D9D9"/>
<path d="M80.8307 193.419L82.3794 197.494L86.7334 197.28L83.3365 200.012L84.8852 204.087L81.2371 201.701L77.8403 204.433L78.9825 200.226L75.3344 197.839L79.6884 197.626L80.8307 193.419Z" fill="#D9D9D9"/>
<path d="M95.8131 192.683L97.3618 196.758L101.716 196.545L98.3189 199.277L99.8676 203.352L96.2196 200.965L92.8227 203.697L93.9649 199.49L90.3168 197.104L94.6709 196.89L95.8131 192.683Z" fill="#D9D9D9"/>
<path d="M110.796 191.948L112.344 196.023L116.698 195.809L113.301 198.541L114.85 202.616L111.202 200.23L107.805 202.962L108.947 198.755L105.299 196.369L109.653 196.155L110.796 191.948Z" fill="#D9D9D9"/>
<path d="M125.776 191.213L127.325 195.288L131.679 195.074L128.282 197.806L129.831 201.881L126.182 199.495L122.786 202.227L123.928 198.02L120.28 195.633L124.634 195.42L125.776 191.213Z" fill="#D9D9D9"/>
<path d="M140.758 190.477L142.307 194.552L146.661 194.339L143.264 197.071L144.813 201.146L141.165 198.759L137.768 201.491L138.91 197.284L135.262 194.898L139.616 194.684L140.758 190.477Z" fill="#D9D9D9"/>
<path d="M80.8307 208.419L82.3794 212.494L86.7334 212.28L83.3365 215.012L84.8852 219.087L81.2371 216.701L77.8403 219.433L78.9825 215.226L75.3344 212.839L79.6884 212.626L80.8307 208.419Z" fill="#D9D9D9"/>
<path d="M95.8131 207.683L97.3618 211.758L101.716 211.545L98.3189 214.277L99.8676 218.352L96.2196 215.965L92.8227 218.697L93.9649 214.49L90.3168 212.104L94.6709 211.89L95.8131 207.683Z" fill="#D9D9D9"/>
<path d="M110.796 206.948L112.344 211.023L116.698 210.809L113.301 213.541L114.85 217.616L111.202 215.23L107.805 217.962L108.947 213.755L105.299 211.369L109.653 211.155L110.796 206.948Z" fill="#D9D9D9"/>
<path d="M125.776 206.213L127.325 210.288L131.679 210.074L128.282 212.806L129.831 216.881L126.182 214.495L122.786 217.227L123.928 213.02L120.28 210.633L124.634 210.42L125.776 206.213Z" fill="#D9D9D9"/>
<path d="M140.758 205.477L142.307 209.552L146.661 209.339L143.264 212.071L144.813 216.146L141.165 213.759L137.768 216.491L138.91 212.284L135.262 209.898L139.616 209.684L140.758 205.477Z" fill="#D9D9D9"/>
</g>
<path d="M79.6423 42.9438C88.938 37.0283 94.3136 45.4086 95.8394 50.3381C99.3623 50.3381 94.4293 55.2674 92.3166 64.0702C90.2039 72.873 86.6828 92.2392 82.8095 99.2815C78.9363 106.324 74.3588 110.901 71.5419 124.281C69.2884 134.986 67.9014 151.183 82.8095 160.197C82.8095 160.197 60.3739 158.401 53.3314 138.683C44.5284 114.035 65.9099 95.0561 62.7408 71.8167C59.5718 48.5773 68.0225 50.3381 79.6423 42.9438Z" fill="url(#paint4_linear_518_4633)"/>
<circle cx="85.6262" cy="60.549" r="9.50704" fill="#E0BF66"/>
<path d="M70.7889 74.6332C78.1129 45.6191 107.408 45.6423 119.38 52.0977C128.111 47.8727 131.166 55.972 131.402 59.4928L113.444 129.915C112.69 136.957 87.6196 135.478 84.5211 126.746C80.6478 115.83 61.634 110.901 70.7889 74.6332Z" fill="url(#paint5_linear_518_4633)"/>
<path d="M153 66.0002C148.638 55.2914 124.356 53.7408 118.37 58.7877C110.624 68.6465 130.408 75.338 133.225 82.7324C135.478 88.6478 137.994 110.905 139.872 119.591C141.397 117.009 148 111 148 100C148 89.0001 161 85.642 153 66.0002Z" fill="url(#paint6_linear_518_4633)"/>
<path d="M145.835 94.3513C146.68 89.2809 146.539 82.3781 135.976 68.2935C125.412 54.209 100.415 69.7034 95.8374 76.0415C91.2599 82.3795 91.2599 105.971 89.849 104.915C88.4381 103.858 85.6237 103.154 82.4547 105.971C79.2857 108.788 80.342 116.534 81.0462 121.464C81.7504 126.394 87.3842 128.154 89.849 129.915C91.8209 131.323 97.0087 131.91 99.3561 132.027C106.872 143.59 123.372 149.09 130.872 149.09C138.372 149.09 142.269 133.009 144.372 128.59C147.409 122.209 146.635 115.52 144.872 110.59C143.225 105.984 144.779 100.689 145.835 94.3513Z" fill="url(#paint7_linear_518_4633)"/>
<path d="M122.743 100.684C122.044 96.474 111.246 88.6821 103.745 102.183C110.246 96.1821 117.65 97.0423 122.743 100.684Z" fill="#D07966"/>
<mask id="mask2_518_4633" style="mask-type:alpha" maskUnits="userSpaceOnUse" x="104" y="97" width="19" height="14">
<path d="M105.538 101.221C107.471 97.9394 109.268 98.5447 111.67 97.3526C113.577 96.4066 118.344 98.2388 120.544 99.2973C121.957 100.248 121.984 105.24 122.042 106.295C122.101 107.35 119.791 109.425 118.404 109.855C117.017 110.285 113.911 110.105 107.809 108.443C106.11 107.98 103.606 104.503 105.538 101.221Z" fill="url(#paint8_linear_518_4633)"/>
</mask>
<g mask="url(#mask2_518_4633)">
<path d="M105.538 101.221C107.47 97.939 109.267 98.5442 111.669 97.3521C113.576 96.4062 118.343 98.2383 120.543 99.2968C121.957 100.248 121.983 105.24 122.042 106.295C122.1 107.349 119.79 109.424 118.403 109.854C117.017 110.284 109.273 109.419 107.808 108.443C106.343 107.466 103.605 104.503 105.538 101.221Z" fill="url(#paint9_linear_518_4633)"/>
<path d="M115.193 108.031C113.611 105.265 113.775 99.4692 114.588 97.1902C115.897 95.3539 120.623 97.9113 121.404 99.2783C122.186 100.645 123.871 106.675 121.843 108.662C119.168 111.281 117.539 112.133 115.193 108.031Z" fill="url(#paint10_radial_518_4633)"/>
<ellipse cx="118.199" cy="102.354" rx="2" ry="2.5" transform="rotate(-3.1954 118.199 102.354)" fill="#1F2714"/>
<ellipse cx="115.091" cy="100.525" rx="1" ry="0.5" transform="rotate(-3.1954 115.091 100.525)" fill="white"/>
</g>
<path d="M108.504 108.683C106.534 107.381 105.213 103.825 105.245 102.295C106.3 99.8538 108.25 99.3343 110.179 98.6826C113.73 97.4824 120.252 99.5231 122.679 100.683C121.903 99.8743 120.966 98.5171 119.246 97.8226C115.983 96.5053 111.204 96.2688 108.504 97.5282C104.379 99.4517 103.973 98.4869 103.23 97.8226C103.66 99.2096 104.989 100.264 107.176 99.0134C106.532 100.107 104.163 101.895 102.898 101.227C101.634 100.559 101.872 100.784 100.818 99.8408C100.929 101.838 104.048 102.474 104.208 102.706C104.508 103.14 104.788 104.999 105.179 105.683C105.569 106.366 106.679 108.183 108.504 108.683Z" fill="#000525"/>
<path d="M108.473 111.351C108.43 109.897 109.334 108.858 109.334 108.858L110.361 109.302C109.562 109.346 108.612 110.863 108.473 111.351Z" fill="black"/>
<path d="M107.422 110.468C107.338 108.97 108.309 108.415 108.309 108.415L108.836 108.886C108.037 108.931 107.866 109.441 107.422 110.468Z" fill="black"/>
<path d="M109.503 111.854C109.46 110.399 110.362 109.302 110.362 109.302L111.361 109.268C110.563 109.312 109.642 111.365 109.503 111.854Z" fill="black"/>
<path d="M111.472 111.243L111.888 109.717L112.388 109.711C111.917 110.238 111.472 111.243 111.472 111.243Z" fill="black"/>
<path d="M112.497 111.686C112.498 111.708 112.886 109.683 112.886 109.683L113.379 109.656C113.381 109.654 113.384 109.654 113.385 109.655L113.379 109.656C113.28 109.716 112.498 111.707 112.497 111.686Z" fill="black"/>
<path d="M113.968 111.126L113.885 109.628L114.384 109.6L113.968 111.126Z" fill="black"/>
<path d="M92.6702 114.423C93.7265 116.183 92.3198 117.592 90.9113 119C89.0244 120.887 91.2676 122.521 91.2634 122.521C89.8566 125.337 89.5012 124.985 84.9237 122.521C80.3463 120.056 80.6984 111.958 84.2195 109.493C87.7406 107.028 91.6139 112.662 92.6702 114.423Z" fill="#FA9CAE"/>
<path d="M129.64 130.952C134.41 131.25 135.963 131.66 137.872 130.591C135.407 132.703 137.651 133.607 134.922 133.769C130.456 134.035 124.2 132.434 122.598 130.248C124.566 131.232 127.078 130.792 129.64 130.952Z" fill="#F7E0E0"/>
<path d="M104.372 87.0901C116.767 77.5127 127.337 67.0807 124.872 63.0901C124.872 48.6041 100.972 53.5146 89.4989 65.83C80.8721 75.0901 83.0556 85.5972 85.8725 101.09C88.6894 116.583 94.4893 123.09 94.4893 120.59C94.4893 118.09 88.8794 99.062 104.372 87.0901Z" fill="url(#paint11_linear_518_4633)"/>
<g filter="url(#filter0_d_518_4633)">
<path d="M151.504 75.0001C149.331 59.4881 133.659 56.635 128.971 56.7973C121.01 63.5155 141.295 69.9082 143.531 86.5907C144.62 94.719 143.135 102.582 145.003 110.091C145.341 109.591 146.519 121.091 147.487 109.591C146.381 103.178 152.467 81.8669 151.504 75.0001Z" fill="url(#paint12_linear_518_4633)"/>
</g>
<path d="M101.873 97.9035C111.873 86.0903 119.644 88.3155 121.642 92.0863C113.669 89.8225 115.009 90.9652 111.077 91.7772C109.126 92.1801 104.114 95.9272 101.873 97.9035Z" fill="#C85B4B"/>
<path d="M144.313 101.39C143.69 96.9931 139.247 92.6831 134.247 100.183C140.849 97.2485 139.25 97.6731 144.313 101.39Z" fill="#D07966"/>
<path d="M143.596 100.732C142.304 98.0048 141.227 98.6111 139.72 97.7021C138.524 96.9807 135.675 98.7836 134.368 99.7985C133.537 100.683 133.691 104.974 133.691 105.883C133.691 106.792 135.146 108.496 136.007 108.799C136.868 109.102 141.227 108.307 142.088 107.398C142.95 106.489 144.888 103.459 143.596 100.732Z" fill="url(#paint13_linear_518_4633)"/>
<mask id="mask3_518_4633" style="mask-type:alpha" maskUnits="userSpaceOnUse" x="133" y="97" width="12" height="13">
<path d="M143.598 100.732C142.306 98.0048 141.229 98.6111 139.722 97.7021C138.526 96.9807 135.677 98.7836 134.37 99.7985C133.539 100.683 133.693 104.974 133.693 105.883C133.693 106.792 135.201 108.913 136.062 109.216C136.923 109.519 141.229 108.307 142.09 107.398C142.952 106.489 144.89 103.459 143.598 100.732Z" fill="#EDF1FA"/>
</mask>
<g mask="url(#mask3_518_4633)">
<path d="M144.044 104.653C145.422 102.714 144.618 98.3908 144.044 96.4718C143.182 94.9568 138.127 97.3399 137.697 98.5519C137.266 99.7639 137.356 107.503 142.483 107.503C145.3 107.503 142.321 107.077 144.044 104.653Z" fill="url(#paint14_radial_518_4633)"/>
</g>
<path d="M142.519 106.792C143.389 105.788 143.883 102.954 143.811 101.641C143.032 99.4484 142.022 98.8223 140.721 98.4135C138.57 97.7378 135.938 98.4506 134.552 99.5204C135.844 98.308 139.075 96.2471 141.659 97.7019C144.243 99.1567 145.89 97.9541 146.389 97.1826C146.174 97.9908 144.211 99.9893 142.833 99.0195C143.264 99.9285 143.699 101.137 144.889 100.625C145.889 100.194 146.752 99.5204 146.824 99.5204C146.824 100.194 144.631 101.944 144.458 101.944C144.243 101.944 144.243 103.156 144.028 103.762C143.812 104.368 143.595 106.186 142.519 106.792Z" fill="#000525"/>
<ellipse cx="1.5" cy="1.72103" rx="1.5" ry="1.72103" transform="matrix(-1 0 0 1 143.389 100.194)" fill="#1F2714"/>
<ellipse cx="1" cy="0.430257" rx="1" ry="0.430257" transform="matrix(-1 0 0 1 141.389 100.194)" fill="white"/>
<path d="M142.513 109.61C142.479 108.358 141.889 107.509 141.889 107.509L141.196 108.018C141.896 108.018 142.367 109.196 142.513 109.61Z" fill="black"/>
<path d="M143.674 108.369C143.674 107.078 142.389 107.078 142.389 107.078L141.889 107.508H141.889C142.589 107.508 143.236 107.508 143.674 108.369Z" fill="black"/>
<path d="M141.639 110.089C141.605 108.838 140.696 108.018 140.696 108.018L139.889 108.368C140.589 108.368 141.493 109.676 141.639 110.089Z" fill="black"/>
<path d="M138.889 109.739V108.604H138.196C138.634 109.034 138.889 109.739 138.889 109.739Z" fill="black"/>
<path d="M135.477 92.9694C138.448 91.8889 143.654 90.8178 145.491 92.9686C144.85 91.3465 143.022 90.5485 140.555 90.1277C138.089 89.7068 136.323 90.5406 135.477 92.9694Z" fill="#C85B4B"/>
<path d="M100.416 154.563C99.3593 157.38 94.4297 166.042 94.4297 175.338C106.754 195.408 132.106 175.338 134.218 168.295C135.909 162.662 128.585 154.915 124.711 151.746C124.125 152.92 122.058 161.957 111.331 161.957C102.176 161.957 104.641 157.38 100.416 154.563Z" fill="#F9EFE4"/>
<path d="M132.81 133.084C137.58 133.382 135.873 131.091 140.204 130.248C138.092 132.361 137.102 136.428 134.373 136.591C129.907 136.856 127.176 134.826 121.895 130.248C122.817 130.402 126.026 131.029 127.873 131.591C130.256 132.315 131.367 132.994 132.81 133.084Z" fill="url(#paint15_linear_518_4633)"/>
<circle cx="132.402" cy="134.5" r="0.5" fill="white"/>
<circle cx="133.902" cy="134.5" r="0.5" fill="white"/>
<circle cx="137.386" cy="114.422" r="0.704225" fill="white"/>
<path d="M121.895 130.256C135.979 133.417 137.622 131.899 140.557 130.256C140.275 129.693 139.031 129.49 138.444 128.583C138.092 128.231 137.035 129.192 136.331 129.544C135.768 129.826 134.453 129.17 133.514 128.935L121.895 130.256Z" fill="#D7506A"/>
<g filter="url(#filter1_f_518_4633)">
<path d="M140.907 110.902C136.964 112.592 134.842 109.337 133.785 107.459C131.321 112.036 129.21 115.91 127.802 118.022C126.394 120.135 129.563 120.135 130.619 120.135C131.675 120.135 133.084 120.839 134.492 122.248C135.619 123.374 137.126 122.9 137.738 122.521C140.837 119.423 141.142 113.484 140.907 110.902Z" fill="#F5A69C" fill-opacity="0.6"/>
</g>
<path d="M133.49 107.591C134.547 109.469 136.965 112.592 140.909 110.901C141.144 113.484 140.838 119.423 137.74 122.521" stroke="url(#paint16_linear_518_4633)" stroke-width="0.704225" stroke-linecap="round"/>
<path d="M130.344 120.056C132.034 119.492 133.865 120.055 134.217 120.407C134.217 120.759 133.659 120.904 133.161 120.407C132.809 120.055 130.931 119.938 130.344 120.056Z" fill="#3A2323"/>
<circle cx="137.388" cy="114.422" r="0.704225" fill="white"/>
<circle cx="97.1972" cy="132.38" r="4.92958" fill="url(#paint17_radial_518_4633)"/>
<g filter="url(#filter2_d_518_4633)">
<path d="M126.658 57.5034C129.122 61.494 122.552 74.426 110.158 84.0034C98.0096 93.3908 96.92 111.421 97.0157 118.044C97.0999 119.059 97.1582 119.893 97.1582 120.503C97.1582 120.827 97.042 119.868 97.0157 118.044C96.3409 109.915 94.0028 90.1612 106.658 80.5033C120.038 70.292 116.876 53.92 126.658 57.5034Z" fill="url(#paint18_linear_518_4633)"/>
</g>
<rect x="220.352" y="20.3521" width="115.197" height="18.9296" rx="9.46479" fill="#2E075F"/>
<rect x="220.352" y="20.3521" width="115.197" height="18.9296" rx="9.46479" stroke="#944AF2" stroke-width="0.704225"/>
<path d="M229.166 33.8174V25.333H232.494C234.422 25.333 235.529 26.5225 235.529 28.1924C235.529 29.8857 234.404 31.0518 232.447 31.0518H230.924V33.8174H229.166ZM230.924 29.6338H232.166C233.209 29.6338 233.719 29.0479 233.713 28.1924C233.719 27.3486 233.209 26.7803 232.166 26.7744H230.924V29.6338ZM236.607 33.8174V27.4541H238.283V28.5557H238.354C238.582 27.7764 239.174 27.3604 239.889 27.3604C240.064 27.3604 240.287 27.3838 240.439 27.4189V28.9658C240.275 28.9131 239.941 28.8721 239.701 28.8721C238.916 28.8721 238.336 29.417 238.342 30.1963V33.8174H236.607ZM243.943 33.9463C242.021 33.9404 240.82 32.6221 240.826 30.6533C240.82 28.6904 242.021 27.3721 243.943 27.3721C245.871 27.3721 247.066 28.6904 247.072 30.6533C247.066 32.6221 245.871 33.9404 243.943 33.9463ZM242.584 30.6533C242.584 31.7666 243.047 32.5928 243.955 32.5986C244.84 32.5928 245.309 31.7666 245.303 30.6533C245.309 29.5342 244.84 28.6963 243.955 28.6963C243.047 28.6963 242.584 29.5342 242.584 30.6533ZM250.506 33.9229C249.053 33.9229 247.916 32.7686 247.916 30.6416C247.916 28.4619 249.1 27.3721 250.506 27.3721C251.572 27.3721 252.082 28.0049 252.311 28.5205H252.369V25.333H254.104V33.8174H252.393V32.7979H252.311C252.07 33.3252 251.543 33.9229 250.506 33.9229ZM249.697 30.6299C249.691 31.7549 250.166 32.5342 251.045 32.54C251.912 32.5342 252.404 31.7783 252.404 30.6299C252.404 29.4873 251.918 28.7549 251.045 28.7549C250.16 28.7549 249.691 29.5225 249.697 30.6299ZM259.576 31.1104V27.4541H261.311V33.8174H259.646V32.6689H259.576C259.289 33.4072 258.604 33.8994 257.643 33.8994C256.371 33.8994 255.498 32.9971 255.498 31.5088V27.4541H257.232V31.2041C257.232 31.96 257.666 32.4287 258.346 32.4346C258.979 32.4287 259.576 31.9775 259.576 31.1104ZM265.518 33.9463C263.566 33.9404 262.395 32.5928 262.4 30.6533C262.395 28.708 263.59 27.3721 265.518 27.3721C267.158 27.3721 268.271 28.3271 268.342 29.7861H266.713C266.607 29.1592 266.197 28.7256 265.541 28.7197C264.709 28.7256 264.158 29.4229 264.158 30.6299C264.158 31.8604 264.697 32.5635 265.541 32.5635C266.15 32.5635 266.602 32.1826 266.713 31.5088H268.342C268.266 32.9502 267.205 33.9404 265.518 33.9463ZM272.771 27.4541V28.7549H271.576V31.8604C271.57 32.3701 271.822 32.4932 272.174 32.5049C272.35 32.5049 272.654 32.4873 272.865 32.4697V33.8408C272.678 33.8701 272.367 33.9053 271.939 33.8994C270.686 33.9053 269.83 33.3428 269.842 32.1064V28.7549H268.963V27.4541H269.842V25.9307H271.576V27.4541H272.771ZM284.432 29.5752C284.432 32.3467 282.715 33.9346 280.471 33.9346C278.209 33.9346 276.498 32.335 276.498 29.5752C276.498 26.8037 278.209 25.2158 280.471 25.2158C282.715 25.2158 284.432 26.8037 284.432 29.5752ZM278.291 29.5752C278.291 31.3857 279.152 32.3701 280.471 32.376C281.777 32.3701 282.645 31.3857 282.639 29.5752C282.645 27.7588 281.777 26.7803 280.471 26.7744C279.152 26.7803 278.291 27.7588 278.291 29.5752ZM285.662 36.208V27.4541H287.373V28.5205H287.443C287.684 28.0049 288.188 27.3721 289.26 27.3721C290.666 27.3721 291.844 28.4619 291.838 30.6416C291.844 32.7686 290.713 33.9229 289.26 33.9229C288.223 33.9229 287.689 33.3252 287.443 32.7979H287.396V36.208H285.662ZM287.361 30.6299C287.355 31.7783 287.848 32.5342 288.709 32.54C289.594 32.5342 290.074 31.7549 290.068 30.6299C290.074 29.5225 289.605 28.7549 288.709 28.7549C287.842 28.7549 287.355 29.4873 287.361 30.6299ZM295.846 33.9463C293.895 33.9404 292.699 32.6807 292.705 30.665C292.699 28.7021 293.912 27.3721 295.775 27.3721C297.445 27.3721 298.764 28.4268 298.764 30.5947V31.0869H294.416C294.416 32.0479 294.984 32.6396 295.881 32.6455C296.473 32.6396 296.895 32.3818 297.064 32.001H298.717C298.471 33.1787 297.416 33.9404 295.846 33.9463ZM294.416 29.9971H297.123C297.117 29.2236 296.584 28.667 295.811 28.6729C295.014 28.667 294.451 29.2646 294.416 29.9971ZM299.854 33.8174V27.4541H301.529V28.5557H301.6C301.828 27.7764 302.42 27.3604 303.135 27.3604C303.311 27.3604 303.533 27.3838 303.686 27.4189V28.9658C303.521 28.9131 303.188 28.8721 302.947 28.8721C302.162 28.8721 301.582 29.417 301.588 30.1963V33.8174H299.854ZM304.049 32.0361C304.055 30.6182 305.191 30.1553 306.416 30.0791C306.873 30.0498 307.729 30.0088 307.998 29.9971V29.4814C307.992 28.9482 307.629 28.6436 306.979 28.6377C306.387 28.6436 306.018 28.9072 305.924 29.3408H304.271C304.377 28.2393 305.338 27.3721 307.025 27.3721C308.414 27.3721 309.727 27.9932 309.721 29.5283V33.8174H308.08V32.9385H308.033C307.723 33.5244 307.113 33.9404 306.17 33.9346C304.951 33.9404 304.055 33.2959 304.049 32.0361ZM305.713 31.9893C305.713 32.4756 306.105 32.7334 306.662 32.7393C307.453 32.7334 308.004 32.2178 307.998 31.5439V31.0811C307.734 31.0928 306.99 31.1338 306.697 31.1572C306.094 31.21 305.713 31.4971 305.713 31.9893ZM314.396 27.4541V28.7549H313.201V31.8604C313.195 32.3701 313.447 32.4932 313.799 32.5049C313.975 32.5049 314.279 32.4873 314.49 32.4697V33.8408C314.303 33.8701 313.992 33.9053 313.564 33.8994C312.311 33.9053 311.455 33.3428 311.467 32.1064V28.7549H310.588V27.4541H311.467V25.9307H313.201V27.4541H314.396ZM318.275 33.9463C316.354 33.9404 315.152 32.6221 315.158 30.6533C315.152 28.6904 316.354 27.3721 318.275 27.3721C320.203 27.3721 321.398 28.6904 321.404 30.6533C321.398 32.6221 320.203 33.9404 318.275 33.9463ZM316.916 30.6533C316.916 31.7666 317.379 32.5928 318.287 32.5986C319.172 32.5928 319.641 31.7666 319.635 30.6533C319.641 29.5342 319.172 28.6963 318.287 28.6963C317.379 28.6963 316.916 29.5342 316.916 30.6533ZM322.494 33.8174V27.4541H324.17V28.5557H324.24C324.469 27.7764 325.061 27.3604 325.775 27.3604C325.951 27.3604 326.174 27.3838 326.326 27.4189V28.9658C326.162 28.9131 325.828 28.8721 325.588 28.8721C324.803 28.8721 324.223 29.417 324.229 30.1963V33.8174H322.494Z" fill="#ECECF8"/>
<path d="M238.961 55.4854V66.3838H236.125V55.4854H238.961ZM220.727 61.1807C220.715 58.2979 222.766 56.4229 225.625 56.4463C228.027 56.4229 229.879 57.7471 230.418 59.8916H231.883V55.8369H234.648V66.29H231.883V62.3057H230.441C229.949 64.4619 228.074 65.8916 225.625 65.8916C222.766 65.8916 220.715 63.9463 220.727 61.1807ZM223.398 61.1807C223.387 62.6455 224.312 63.5127 225.625 63.5244C226.926 63.5127 227.875 62.6455 227.898 61.1807C227.875 59.6455 226.926 58.7314 225.625 58.7197C224.312 58.7314 223.387 59.6455 223.398 61.1807ZM224.359 69.4541V67.1572H238.961V72.876H227.406V74.2119H239.688V76.5557H224.383V70.6963H235.961V69.4541H224.359ZM259.258 55.4619V76.8369H256.281V55.4619H259.258ZM242.5 59.6572V57.2432H252.648V65.4697H245.617V69.3838C248.875 69.3604 251.629 69.1963 254.758 68.6807L255.016 71.0947C251.512 71.7158 248.336 71.8447 244.445 71.8447H242.523V63.1025H249.602V59.6572H242.5Z" fill="#ECECF8"/>
<path d="M231.75 95.415V100.415H227.891V101.774H233.391V103.384H220.422V101.774H225.891V100.415H222.031V95.415H231.75ZM221.859 105.993V104.431H231.812V109.071H229.828V105.993H221.859ZM223.984 98.8525H229.797V96.9619H223.984V98.8525ZM247.266 105.899V107.493H234.25V105.899H237.484V103.196H235.328V101.587H237.234V97.5869H235.266V95.9932H246.172V97.5869H244.172V101.587H246.109V103.196H243.969V105.899H247.266ZM239.234 101.587H242.203V97.5869H239.234V101.587ZM239.484 105.899H241.969V103.196H239.484V105.899Z" fill="#ECECF8" fill-opacity="0.5"/>
<path d="M220.834 117.553H223.377L226.125 124.266H226.234L228.982 117.553H231.525V127.451H229.529V120.971H229.447L226.863 127.41H225.496L222.912 120.943H222.83V127.451H220.834V117.553ZM233.193 127.451V117.553H235.244V125.756H239.51V127.451H233.193ZM249.504 122.502C249.504 125.735 247.501 127.588 244.883 127.588C242.244 127.588 240.248 125.722 240.248 122.502C240.248 119.269 242.244 117.416 244.883 117.416C247.501 117.416 249.504 119.269 249.504 122.502ZM242.34 122.502C242.34 124.614 243.345 125.763 244.883 125.77C246.407 125.763 247.419 124.614 247.412 122.502C247.419 120.383 246.407 119.241 244.883 119.234C243.345 119.241 242.34 120.383 242.34 122.502ZM250.939 130.24V120.027H252.936V121.271H253.018C253.298 120.67 253.886 119.932 255.137 119.932C256.777 119.932 258.151 121.203 258.145 123.746C258.151 126.228 256.832 127.574 255.137 127.574C253.927 127.574 253.305 126.877 253.018 126.262H252.963V130.24H250.939ZM252.922 123.732C252.915 125.072 253.489 125.954 254.494 125.961C255.526 125.954 256.087 125.045 256.08 123.732C256.087 122.44 255.54 121.545 254.494 121.545C253.482 121.545 252.915 122.399 252.922 123.732ZM263.695 122.229C263.606 121.709 263.155 121.374 262.479 121.367C261.822 121.374 261.323 121.682 261.33 122.133C261.323 122.468 261.583 122.728 262.287 122.871L263.613 123.145C265.056 123.445 265.753 124.088 265.76 125.154C265.753 126.617 264.44 127.595 262.465 127.602C260.462 127.595 259.286 126.699 259.115 125.25H261.152C261.248 125.831 261.72 126.132 262.465 126.139C263.203 126.132 263.695 125.838 263.695 125.359C263.695 124.977 263.381 124.737 262.684 124.594L261.453 124.348C260.038 124.067 259.313 123.343 259.32 122.242C259.313 120.82 260.537 119.932 262.451 119.932C264.324 119.932 265.486 120.82 265.596 122.229H263.695ZM277.955 121.846V123.145H266.566V121.846H277.955ZM267.865 124.963V123.76H276.588V126.699H269.615V127.41H276.957V128.6H267.879V125.592H274.865V124.963H267.865ZM267.961 117.676V116.486H276.574V119.412H269.725V120.082H276.793V121.258H267.988V118.305H274.824V117.676H267.961ZM293.281 122.324V123.719H288.564V125.879H286.801V123.719H281.893V122.324H293.281ZM283.068 119.084C283.068 117.505 284.873 116.514 287.58 116.5C290.273 116.514 292.071 117.505 292.078 119.084C292.071 120.67 290.273 121.654 287.58 121.654C284.873 121.654 283.068 120.67 283.068 119.084ZM283.246 128.49V124.771H285.01V127.082H292.023V128.49H283.246ZM284.955 119.084C284.948 119.843 285.974 120.253 287.58 120.26C289.187 120.253 290.205 119.843 290.205 119.084C290.205 118.291 289.187 117.881 287.58 117.881C285.974 117.881 284.948 118.291 284.955 119.084ZM297.479 116.938C298.47 116.931 299.338 117.3 299.933 117.908H302.756V116.268H304.492V123.555H302.756V122.064H299.919C299.324 122.666 298.463 123.028 297.479 123.021C295.592 123.028 294.156 121.743 294.17 119.986C294.156 118.209 295.592 116.931 297.479 116.938ZM295.824 119.986C295.817 120.943 296.508 121.552 297.479 121.545C298.415 121.552 299.099 120.943 299.105 119.986C299.099 118.995 298.415 118.421 297.479 118.428C296.508 118.421 295.817 118.995 295.824 119.986ZM295.961 126.262C295.961 124.717 297.608 123.808 300.24 123.814C302.872 123.808 304.526 124.717 304.533 126.262C304.526 127.807 302.872 128.716 300.24 128.709C297.608 128.716 295.961 127.807 295.961 126.262ZM297.67 126.262C297.67 126.986 298.593 127.355 300.24 127.355C301.922 127.355 302.817 126.986 302.824 126.262C302.817 125.517 301.922 125.147 300.24 125.141C298.593 125.147 297.67 125.517 297.67 126.262ZM300.678 119.289C300.732 119.508 300.76 119.747 300.76 119.986C300.76 120.226 300.732 120.451 300.685 120.67H302.756V119.289H300.678ZM315.922 116.268V121.135H317.754V122.57H315.922V128.709H314.199V116.268H315.922ZM306.037 119.521V118.127H308.854V116.459H310.604V118.127H313.352V119.521H306.037ZM306.543 123.186C306.536 121.449 307.89 120.212 309.729 120.219C311.54 120.212 312.9 121.449 312.9 123.186C312.9 124.922 311.54 126.146 309.729 126.152C307.89 126.146 306.536 124.922 306.543 123.186ZM308.211 123.186C308.211 124.149 308.847 124.724 309.729 124.717C310.597 124.724 311.232 124.149 311.232 123.186C311.232 122.229 310.597 121.641 309.729 121.627C308.847 121.641 308.211 122.229 308.211 123.186ZM324.631 117.279V118.223H326.955V116.281H328.691V125.332H326.955V122.283H324.631V123.336H318.725V117.279H324.631ZM320.406 128.49V124.471H322.17V127.096H328.951V128.49H320.406ZM320.461 121.982H322.922V118.66H320.461V121.982ZM324.631 120.902H326.955V119.631H324.631V120.902ZM335.008 119.084C335.015 121.422 335.958 123.698 338.029 124.594L336.963 125.988C335.582 125.318 334.652 124.074 334.133 122.536C333.6 124.17 332.643 125.51 331.221 126.207L330.127 124.785C332.26 123.821 333.23 121.422 333.244 119.084V117.225H335.008V119.084ZM336.635 121.586V120.178H339.082V116.268H340.805V128.736H339.082V121.586H336.635ZM356.049 116.281V125.223H354.299V116.281H356.049ZM345.822 120.205C345.822 118.38 347.312 117.067 349.227 117.074C351.134 117.067 352.624 118.38 352.631 120.205C352.624 122.058 351.134 123.363 349.227 123.363C347.312 123.363 345.822 122.058 345.822 120.205ZM347.531 120.205C347.518 121.244 348.249 121.846 349.227 121.846C350.17 121.846 350.901 121.244 350.908 120.205C350.901 119.193 350.17 118.585 349.227 118.592C348.249 118.585 347.518 119.193 347.531 120.205ZM347.709 128.49V124.32H349.473V127.096H356.377V128.49H347.709ZM369.119 125.811V127.26H357.73V125.811H369.119ZM358.619 118.756V117.361H368.162V118.756H366.412V122.529H368.107V123.896H358.674V122.529H360.342V118.756H358.619ZM362.092 122.529H364.689V118.756H362.092V122.529ZM379.646 116.268V120.971H381.479V122.406H379.646V128.736H377.924V116.268H379.646ZM370.336 118.715V117.307H376.092V122.133H372.086V124.389C373.897 124.382 375.395 124.3 377.049 124.02L377.199 125.414C375.299 125.763 373.59 125.838 371.402 125.838H370.35V120.752H374.355V118.715H370.336ZM227.547 133.965V135.346H225.072C225.079 136.809 225.968 138.319 227.93 138.969L227.068 140.309C225.694 139.878 224.744 138.976 224.204 137.861C223.65 139.099 222.659 140.097 221.189 140.568L220.301 139.188C222.352 138.538 223.281 136.891 223.295 135.346H220.793V133.965H227.547ZM222.311 142.619V141.225H230.855V145.709H229.119V142.619H222.311ZM227.191 137.684V136.262H229.119V133.268H230.855V140.678H229.119V137.684H227.191ZM242.887 133.281V142.223H241.137V133.281H242.887ZM232.66 137.205C232.66 135.38 234.15 134.067 236.064 134.074C237.972 134.067 239.462 135.38 239.469 137.205C239.462 139.058 237.972 140.363 236.064 140.363C234.15 140.363 232.66 139.058 232.66 137.205ZM234.369 137.205C234.355 138.244 235.087 138.846 236.064 138.846C237.008 138.846 237.739 138.244 237.746 137.205C237.739 136.193 237.008 135.585 236.064 135.592C235.087 135.585 234.355 136.193 234.369 137.205ZM234.547 145.49V141.32H236.311V144.096H243.215V145.49H234.547ZM258.213 133.268V145.736H256.449V133.268H258.213ZM248.164 138.572C248.157 135.858 249.545 134.143 251.459 134.143C253.332 134.143 254.727 135.858 254.727 138.572C254.727 141.307 253.332 143.016 251.459 143.016C249.545 143.016 248.157 141.307 248.164 138.572ZM249.846 138.572C249.839 140.425 250.488 141.437 251.459 141.43C252.402 141.437 253.038 140.425 253.045 138.572C253.038 136.727 252.402 135.715 251.459 135.715C250.488 135.715 249.839 136.727 249.846 138.572ZM271.27 140.131V141.539H268.699V145.736H266.949V141.539H264.27V145.736H262.52V141.539H259.881V140.131H271.27ZM260.332 137.738C263.135 137.362 264.659 135.722 264.666 134.238V133.637H266.498V134.238C266.491 135.715 268.022 137.369 270.832 137.738L270.162 139.16C267.995 138.832 266.402 137.807 265.582 136.446C264.769 137.8 263.176 138.832 261.016 139.16L260.332 137.738ZM281.811 133.268V138.039H283.574V139.475H281.811V145.682H280.061V133.268H281.811ZM271.857 142.195C274.804 140.719 276.39 138.736 276.718 135.961H272.568V134.539H278.488C278.475 138.258 277.025 141.478 272.842 143.535L271.857 142.195ZM224.895 158.252C224.895 159.25 225.318 160.289 226.323 160.973C227.355 160.241 227.807 159.175 227.807 158.252V157.828H229.529V158.252C229.516 159.551 230.206 160.747 231.867 161.26L231.02 162.531C229.83 162.128 229.051 161.369 228.62 160.405C228.21 161.369 227.485 162.203 226.371 162.641C225.202 162.217 224.471 161.41 224.067 160.453C223.623 161.376 222.857 162.128 221.723 162.531L220.861 161.26C222.495 160.699 223.192 159.462 223.199 158.252V157.828H224.895V158.252ZM220.561 153.904C220.561 152.141 222.023 150.91 223.965 150.91C225.899 150.91 227.362 152.141 227.369 153.904C227.362 155.634 225.899 156.878 223.965 156.871C222.023 156.878 220.561 155.634 220.561 153.904ZM222.27 153.904C222.256 154.841 222.967 155.429 223.965 155.422C224.936 155.429 225.64 154.841 225.646 153.904C225.64 152.94 224.936 152.373 223.965 152.373C222.967 152.373 222.256 152.94 222.27 153.904ZM229.037 157.309V150.281H230.787V157.309H229.037ZM238.143 150.445C241.007 150.445 242.661 151.197 242.668 152.564C242.661 153.952 241.007 154.697 238.143 154.697C235.271 154.697 233.604 153.952 233.604 152.564C233.604 151.197 235.271 150.445 238.143 150.445ZM232.469 156.666V155.285H243.816V156.666H232.469ZM233.781 158.662V157.391H242.436V160.562H235.504V161.314H242.764V162.627H233.795V159.346H240.713V158.662H233.781ZM235.436 152.564C235.429 153.173 236.317 153.412 238.143 153.412C239.981 153.412 240.863 153.173 240.863 152.564C240.863 152.011 239.981 151.717 238.143 151.717C236.317 151.717 235.429 152.011 235.436 152.564ZM252.908 150.473V155.094H253.852V150.268H255.492V162.709H253.852V156.516H252.908V162.148H251.309V150.473H252.908ZM244.773 159.688V151.758H247.439V153.152H246.373V158.218C246.701 158.184 247.05 158.129 247.439 158.033L247.562 159.482C246.66 159.674 245.99 159.694 245.334 159.688H244.773ZM247.918 159.688V151.758H250.652V153.152H249.477V158.231C249.88 158.211 250.311 158.149 250.803 158.033L250.912 159.482C249.976 159.681 249.244 159.694 248.479 159.688H247.918ZM265.896 152.168V153.549H259.881V152.168H262.041V150.609H263.764V152.168H265.896ZM260.168 157.062C260.168 155.333 261.33 154.116 262.916 154.109C264.509 154.116 265.644 155.333 265.65 157.062C265.644 158.799 264.509 160.029 262.916 160.029C261.33 160.029 260.168 158.799 260.168 157.062ZM261.699 157.062C261.699 158.013 262.191 158.553 262.916 158.553C263.613 158.553 264.112 158.013 264.119 157.062C264.112 156.126 263.613 155.559 262.916 155.559C262.191 155.559 261.699 156.126 261.699 157.062ZM266.361 162.176V150.514H267.988V155.326H269V150.268H270.654V162.709H269V156.721H267.988V162.176H266.361ZM282.48 150.268V156.529H280.744V155.572H277.9V154.246H280.744V153.152H278.037C277.265 155.019 275.487 156.215 272.732 156.816L272.145 155.395C274.995 154.834 276.308 153.651 276.54 152.154H272.842V150.746H278.475C278.475 151.122 278.447 151.484 278.393 151.826H280.744V150.268H282.48ZM274.209 158.348V156.98H282.48V160.385H275.973V161.205H282.754V162.586H274.223V159.1H280.73V158.348H274.209ZM293.965 150.268V153.262H295.646V154.711H293.965V157.555H292.215V150.268H293.965ZM284.094 152.729V151.361H286.924V150.186H288.66V151.361H291.477V152.729H284.094ZM284.695 155.285C284.695 153.959 285.953 153.084 287.785 153.084C289.597 153.084 290.848 153.959 290.848 155.285C290.848 156.611 289.597 157.486 287.785 157.486C285.953 157.486 284.695 156.611 284.695 155.285ZM285.816 162.572V158.033H287.553V158.977H292.215V158.033H293.965V162.572H285.816ZM286.404 155.285C286.397 155.887 286.951 156.208 287.785 156.215C288.626 156.208 289.193 155.887 289.193 155.285C289.193 154.704 288.626 154.355 287.785 154.369C286.951 154.355 286.397 154.704 286.404 155.285ZM287.553 161.205H292.215V160.316H287.553V161.205ZM306.652 150.268V162.709H304.916V150.268H306.652ZM296.863 159.633V151.457H298.586V158.149C300.268 158.122 302.072 157.965 303.904 157.609L304.123 159.045C301.942 159.503 299.878 159.64 297.957 159.633H296.863ZM318.109 150.268V154.889H319.941V156.311H318.109V162.736H316.359V150.268H318.109ZM308.785 159.715V151.416H314.623V152.824H310.521V158.279C312.326 158.266 313.816 158.17 315.471 157.883L315.662 159.346C313.728 159.674 312.032 159.722 309.838 159.715H308.785ZM322.006 161.574C321.363 161.574 320.844 161.062 320.857 160.426C320.844 159.797 321.363 159.284 322.006 159.291C322.614 159.284 323.141 159.797 323.141 160.426C323.141 161.062 322.614 161.574 322.006 161.574Z" fill="#ECECF8"/>
<path d="M20.3867 267.969V266.516H27.3359V267.969H24.7344V275H22.9883V267.969H20.3867ZM30.3477 275.129C28.3965 275.123 27.2012 273.863 27.207 271.848C27.2012 269.885 28.4141 268.555 30.2773 268.555C31.9473 268.555 33.2656 269.609 33.2656 271.777V272.27H28.918C28.918 273.23 29.4863 273.822 30.3828 273.828C30.9746 273.822 31.3965 273.564 31.5664 273.184H33.2188C32.9727 274.361 31.918 275.123 30.3477 275.129ZM28.918 271.18H31.625C31.6191 270.406 31.0859 269.85 30.3125 269.855C29.5156 269.85 28.9531 270.447 28.918 271.18ZM37.2148 275.129C35.2637 275.123 34.0918 273.775 34.0977 271.836C34.0918 269.891 35.2871 268.555 37.2148 268.555C38.8555 268.555 39.9688 269.51 40.0391 270.969H38.4102C38.3047 270.342 37.8945 269.908 37.2383 269.902C36.4062 269.908 35.8555 270.605 35.8555 271.812C35.8555 273.043 36.3945 273.746 37.2383 273.746C37.8477 273.746 38.2988 273.365 38.4102 272.691H40.0391C39.9629 274.133 38.9023 275.123 37.2148 275.129ZM42.8516 271.32V275H41.1172V266.516H42.8047V269.75H42.875C43.168 269.006 43.8066 268.555 44.7734 268.555C46.1035 268.555 46.9766 269.451 46.9766 270.945V275H45.2422V271.25C45.2422 270.459 44.8203 269.996 44.0938 269.996C43.3613 269.996 42.8516 270.482 42.8516 271.32Z" fill="#ECECF8" fill-opacity="0.5"/>
<path d="M20.9375 287.516H22.2031L25.0625 294.5H25.168L28.0273 287.516H29.293V296H28.2969V289.59H28.2148L25.5781 296H24.6406L22.0039 289.59H21.9336V296H20.9375V287.516ZM31.168 296V287.516H32.2227V295.062H36.1602V296H31.168ZM45.9805 286.531V296.949H45.0898V286.531H45.9805ZM37.1797 291.031C37.1855 288.816 38.0645 287.416 39.418 287.41C40.6836 287.416 41.5391 288.635 41.6562 290.598H43.0039V286.754H43.8828V296.422H43.0039V291.359H41.6621C41.5742 293.387 40.7012 294.658 39.418 294.652C38.0645 294.658 37.1855 293.246 37.1797 291.031ZM38.0469 291.031C38.0352 292.719 38.5742 293.785 39.418 293.773C40.2676 293.785 40.8066 292.719 40.8008 291.031C40.8066 289.338 40.2676 288.277 39.418 288.277C38.5742 288.277 38.0352 289.338 38.0469 291.031ZM59.3398 286.531V296.949H58.4609V291.488H56.9258V296.41H56.082V286.766H56.9258V290.727H58.4609V286.531H59.3398ZM50.8203 294.371V287.809H54.7227V288.57H51.7344V293.586C53.1699 293.58 54.1602 293.527 55.3203 293.293L55.4023 294.066C54.1484 294.324 53.0879 294.365 51.4883 294.371H50.8203ZM68.9492 286.543V289.977H70.5195V290.75H68.9492V294.348H68.0352V286.543H68.9492ZM60.8281 288.57V287.82H63.4766V286.543H64.3906V287.82H67.0391V288.57H60.8281ZM61.4258 291.09C61.4199 289.906 62.4277 289.145 63.9336 289.145C65.4219 289.145 66.4297 289.906 66.4414 291.09C66.4297 292.262 65.4219 293.018 63.9336 293.012C62.4277 293.018 61.4199 292.262 61.4258 291.09ZM62.3047 291.09C62.2988 291.822 62.9492 292.297 63.9336 292.285C64.9062 292.297 65.5625 291.822 65.5742 291.09C65.5625 290.346 64.9062 289.865 63.9336 289.871C62.9492 289.865 62.2988 290.346 62.3047 291.09ZM62.4336 296.727V293.727H63.3359V295.953H69.4297V296.727H62.4336ZM82.8008 286.531V296.949H81.875V286.531H82.8008ZM74.3164 294.242C77.1348 292.906 78.5762 290.908 78.7812 288.418H74.7969V287.668H79.7188C79.707 290.662 78.3125 293.316 74.8203 294.992L74.3164 294.242ZM89.7852 286.988C89.7793 288.283 91.6602 289.279 93.5352 289.508L93.207 290.211C91.5664 289.988 89.9609 289.256 89.3047 288.131C88.6367 289.256 87.0254 289.988 85.4023 290.211L85.0859 289.508C86.9551 289.279 88.8359 288.283 88.8359 286.988V286.59H89.7852V286.988ZM84.5586 291.641V290.891H94.0508V291.641H89.75V292.684H92.832V295.051H86.6445V296.105H93.1484V296.832H85.7305V294.359H91.9297V293.41H85.707V292.684H88.8359V291.641H84.5586ZM103.168 287.164C103.162 288.482 105.061 289.654 106.895 289.918L106.531 290.633C104.938 290.381 103.355 289.549 102.693 288.371C102.031 289.555 100.443 290.381 98.8438 290.633L98.4922 289.918C100.338 289.654 102.219 288.506 102.219 287.164V286.672H103.168V287.164ZM97.9414 292.227V291.465H107.434V292.227H103.133V293.562H106.262V296.949H105.336V294.312H98.9961V293.562H102.23V292.227H97.9414ZM113.258 287.281V290.316H109.672V292.039C111.576 292.039 112.625 291.992 113.891 291.77L113.984 292.531C112.625 292.766 111.535 292.801 109.496 292.801H108.746V289.59H112.32V288.031H108.723V287.281H113.258ZM110.176 296.668V293.645H111.102V295.906H117.266V296.668H110.176ZM113.961 291.395V290.633H116.023V289.051H113.961V288.301H116.023V286.543H116.949V294.207H116.023V291.395H113.961ZM127.098 291.418V292.168H123.875V294.863H128.223V295.637H118.684V294.863H122.973V292.168H119.902V287.387H126.992V288.137H120.828V291.418H127.098Z" fill="#ECECF8"/>
<circle cx="271" cy="292" r="6" fill="#944AF2"/>
<circle cx="295" cy="292" r="6" fill="#ECECF8" fill-opacity="0.3"/>
<circle cx="319" cy="292" r="6" fill="#ECECF8" fill-opacity="0.3"/>
<circle cx="343" cy="292" r="6" fill="#ECECF8" fill-opacity="0.3"/>
<circle cx="367" cy="292" r="6" fill="#ECECF8" fill-opacity="0.3"/>
<path d="M28.1094 311.758C28.1152 314.441 26.5332 316.117 24.3594 316.117C22.1797 316.117 20.6035 314.441 20.6094 311.758C20.6035 309.074 22.1797 307.398 24.3594 307.398C26.5332 307.398 28.1152 309.074 28.1094 311.758ZM21.6289 311.758C21.6348 313.943 22.8242 315.127 24.3594 315.133C25.8945 315.127 27.084 313.943 27.0898 311.758C27.084 309.566 25.8945 308.383 24.3594 308.383C22.8242 308.383 21.6348 309.566 21.6289 311.758ZM29.5273 318.391V309.637H30.5V310.645H30.6172C30.834 310.305 31.2207 309.555 32.457 309.555C34.0566 309.555 35.1641 310.82 35.1641 312.836C35.1641 314.857 34.0566 316.135 32.4688 316.129C31.2559 316.135 30.834 315.379 30.6172 315.027H30.5352V318.391H29.5273ZM30.5117 312.812C30.5176 314.242 31.1562 315.227 32.3281 315.227C33.5352 315.227 34.1562 314.166 34.1562 312.812C34.1562 311.482 33.5527 310.457 32.3281 310.457C31.1387 310.457 30.5176 311.4 30.5117 312.812ZM40.0156 311.289C39.875 310.762 39.4707 310.416 38.7266 310.41C37.9414 310.416 37.3848 310.838 37.3789 311.371C37.3848 311.793 37.7246 312.08 38.4688 312.262L39.418 312.496C40.5547 312.766 41.1113 313.334 41.1172 314.219C41.1113 315.32 40.2148 316.135 38.6211 316.129C37.1914 316.135 36.3418 315.496 36.1719 314.336H37.2266C37.3438 314.957 37.7949 315.256 38.5977 315.25C39.5059 315.256 40.0742 314.875 40.0742 314.277C40.0742 313.826 39.752 313.533 39.0312 313.363L38.0703 313.141C36.9629 312.883 36.3711 312.279 36.3711 311.43C36.3711 310.34 37.3262 309.555 38.7266 309.555C40.0449 309.555 40.8711 310.258 41 311.289H40.0156ZM50.9727 306.531V316.949H50.082V306.531H50.9727ZM42.1719 311.031C42.1777 308.816 43.0566 307.416 44.4102 307.41C45.6758 307.416 46.5312 308.635 46.6484 310.598H47.9961V306.754H48.875V316.422H47.9961V311.359H46.6543C46.5664 313.387 45.6934 314.658 44.4102 314.652C43.0566 314.658 42.1777 313.246 42.1719 311.031ZM43.0391 311.031C43.0273 312.719 43.5664 313.785 44.4102 313.773C45.2598 313.785 45.7988 312.719 45.793 311.031C45.7988 309.338 45.2598 308.277 44.4102 308.277C43.5664 308.277 43.0273 309.338 43.0391 311.031ZM64.332 306.531V316.949H63.4531V311.488H61.918V316.41H61.0742V306.766H61.918V310.727H63.4531V306.531H64.332ZM55.8125 314.371V307.809H59.7148V308.57H56.7266V313.586C58.1621 313.58 59.1523 313.527 60.3125 313.293L60.3945 314.066C59.1406 314.324 58.0801 314.365 56.4805 314.371H55.8125ZM73.9414 306.543V309.977H75.5117V310.75H73.9414V314.348H73.0273V306.543H73.9414ZM65.8203 308.57V307.82H68.4688V306.543H69.3828V307.82H72.0312V308.57H65.8203ZM66.418 311.09C66.4121 309.906 67.4199 309.145 68.9258 309.145C70.4141 309.145 71.4219 309.906 71.4336 311.09C71.4219 312.262 70.4141 313.018 68.9258 313.012C67.4199 313.018 66.4121 312.262 66.418 311.09ZM67.2969 311.09C67.291 311.822 67.9414 312.297 68.9258 312.285C69.8984 312.297 70.5547 311.822 70.5664 311.09C70.5547 310.346 69.8984 309.865 68.9258 309.871C67.9414 309.865 67.291 310.346 67.2969 311.09ZM67.4258 316.727V313.727H68.3281V315.953H74.4219V316.727H67.4258ZM87.793 306.531V316.949H86.8672V306.531H87.793ZM79.3086 314.242C82.127 312.906 83.5684 310.908 83.7734 308.418H79.7891V307.668H84.7109C84.6992 310.662 83.3047 313.316 79.8125 314.992L79.3086 314.242ZM94.7773 306.988C94.7715 308.283 96.6523 309.279 98.5273 309.508L98.1992 310.211C96.5586 309.988 94.9531 309.256 94.2969 308.131C93.6289 309.256 92.0176 309.988 90.3945 310.211L90.0781 309.508C91.9473 309.279 93.8281 308.283 93.8281 306.988V306.59H94.7773V306.988ZM89.5508 311.641V310.891H99.043V311.641H94.7422V312.684H97.8242V315.051H91.6367V316.105H98.1406V316.832H90.7227V314.359H96.9219V313.41H90.6992V312.684H93.8281V311.641H89.5508ZM108.16 307.164C108.154 308.482 110.053 309.654 111.887 309.918L111.523 310.633C109.93 310.381 108.348 309.549 107.686 308.371C107.023 309.555 105.436 310.381 103.836 310.633L103.484 309.918C105.33 309.654 107.211 308.506 107.211 307.164V306.672H108.16V307.164ZM102.934 312.227V311.465H112.426V312.227H108.125V313.562H111.254V316.949H110.328V314.312H103.988V313.562H107.223V312.227H102.934ZM118.25 307.281V310.316H114.664V312.039C116.568 312.039 117.617 311.992 118.883 311.77L118.977 312.531C117.617 312.766 116.527 312.801 114.488 312.801H113.738V309.59H117.312V308.031H113.715V307.281H118.25ZM115.168 316.668V313.645H116.094V315.906H122.258V316.668H115.168ZM118.953 311.395V310.633H121.016V309.051H118.953V308.301H121.016V306.543H121.941V314.207H121.016V311.395H118.953ZM132.09 311.418V312.168H128.867V314.863H133.215V315.637H123.676V314.863H127.965V312.168H124.895V307.387H131.984V308.137H125.82V311.418H132.09Z" fill="#ECECF8"/>
<circle cx="271" cy="312" r="6" fill="#944AF2"/>
<circle cx="295" cy="312" r="6" fill="#944AF2"/>
<circle cx="319" cy="312" r="6" fill="#944AF2"/>
<circle cx="343" cy="312" r="6" fill="#ECECF8" fill-opacity="0.3"/>
<circle cx="367" cy="312" r="6" fill="#ECECF8" fill-opacity="0.3"/>
</g>
<rect x="0.5" y="0.5" width="404" height="341" rx="19.5" stroke="white" stroke-opacity="0.2"/>
<defs>
<filter id="filter0_d_518_4633" x="123.129" y="56.791" width="28.4785" height="61.9297" filterUnits="userSpaceOnUse" color-interpolation-filters="sRGB">
<feFlood flood-opacity="0" result="BackgroundImageFix"/>
<feColorMatrix in="SourceAlpha" type="matrix" values="0 0 0 0 0 0 0 0 0 0 0 0 0 0 0 0 0 0 127 0" result="hardAlpha"/>
<feOffset dx="-2" dy="2"/>
<feGaussianBlur stdDeviation="1"/>
<feComposite in2="hardAlpha" operator="out"/>
<feColorMatrix type="matrix" values="0 0 0 0 0.8625 0 0 0 0 0.531077 0 0 0 0 0.479167 0 0 0 0.2 0"/>
<feBlend mode="normal" in2="BackgroundImageFix" result="effect1_dropShadow_518_4633"/>
<feBlend mode="normal" in="SourceGraphic" in2="effect1_dropShadow_518_4633" result="shape"/>
</filter>
<filter id="filter1_f_518_4633" x="123.926" y="103.938" width="20.5637" height="22.5344" filterUnits="userSpaceOnUse" color-interpolation-filters="sRGB">
<feFlood flood-opacity="0" result="BackgroundImageFix"/>
<feBlend mode="normal" in="SourceGraphic" in2="BackgroundImageFix" result="shape"/>
<feGaussianBlur stdDeviation="1.76056" result="effect1_foregroundBlur_518_4633"/>
</filter>
<filter id="filter2_d_518_4633" x="94.4023" y="57" width="34.7676" height="67.5654" filterUnits="userSpaceOnUse" color-interpolation-filters="sRGB">
<feFlood flood-opacity="0" result="BackgroundImageFix"/>
<feColorMatrix in="SourceAlpha" type="matrix" values="0 0 0 0 0 0 0 0 0 0 0 0 0 0 0 0 0 0 127 0" result="hardAlpha"/>
<feOffset dy="2"/>
<feGaussianBlur stdDeviation="1"/>
<feComposite in2="hardAlpha" operator="out"/>
<feColorMatrix type="matrix" values="0 0 0 0 0.854167 0 0 0 0 0.400131 0 0 0 0 0.334549 0 0 0 0.2 0"/>
<feBlend mode="normal" in2="BackgroundImageFix" result="effect1_dropShadow_518_4633"/>
<feBlend mode="normal" in="SourceGraphic" in2="effect1_dropShadow_518_4633" result="shape"/>
</filter>
<radialGradient id="paint0_radial_518_4633" cx="0" cy="0" r="1" gradientUnits="userSpaceOnUse" gradientTransform="translate(147.873 122.591) rotate(112.62) scale(6.5)">
<stop stop-color="white"/>
<stop offset="1" stop-color="#A2957B"/>
</radialGradient>
<linearGradient id="paint1_linear_518_4633" x1="106.873" y1="137.09" x2="118.373" y2="157.59" gradientUnits="userSpaceOnUse">
<stop stop-color="#F3A4A7"/>
<stop offset="1" stop-color="#F3A4A7" stop-opacity="0"/>
</linearGradient>
<linearGradient id="paint2_linear_518_4633" x1="109.957" y1="159.623" x2="109.957" y2="220" gradientUnits="userSpaceOnUse">
<stop stop-color="#F1CF73"/>
<stop offset="1" stop-color="#8C6F20"/>
</linearGradient>
<linearGradient id="paint3_linear_518_4633" x1="109.957" y1="159.623" x2="109.957" y2="220" gradientUnits="userSpaceOnUse">
<stop stop-color="#F1CF73"/>
<stop offset="1" stop-color="#8C6F20"/>
</linearGradient>
<linearGradient id="paint4_linear_518_4633" x1="74.4094" y1="40.9092" x2="74.4094" y2="160.197" gradientUnits="userSpaceOnUse">
<stop stop-color="#C15646"/>
<stop offset="1" stop-color="#F98C7C"/>
</linearGradient>
<linearGradient id="paint5_linear_518_4633" x1="99.863" y1="48.6172" x2="99.863" y2="134.374" gradientUnits="userSpaceOnUse">
<stop stop-color="#DE6351"/>
<stop offset="0.270833" stop-color="#F68270"/>
<stop offset="1" stop-color="#A03A2B"/>
</linearGradient>
<linearGradient id="paint6_linear_518_4633" x1="138.872" y1="54.5909" x2="162.872" y2="94.0909" gradientUnits="userSpaceOnUse">
<stop stop-color="#EC7564"/>
<stop offset="0.281343" stop-color="#FF9E93"/>
<stop offset="1" stop-color="#A92D2D"/>
</linearGradient>
<linearGradient id="paint7_linear_518_4633" x1="133.872" y1="103.59" x2="99.3721" y2="124.09" gradientUnits="userSpaceOnUse">
<stop stop-color="#FFDAD5"/>
<stop offset="1" stop-color="#FDC4BD"/>
</linearGradient>
<linearGradient id="paint8_linear_518_4633" x1="113.074" y1="97.0811" x2="113.66" y2="101.606" gradientUnits="userSpaceOnUse">
<stop stop-color="#F4D6D6"/>
<stop offset="1" stop-color="#FFF9F9"/>
</linearGradient>
<linearGradient id="paint9_linear_518_4633" x1="113.073" y1="97.0807" x2="113.659" y2="101.606" gradientUnits="userSpaceOnUse">
<stop stop-color="#F4D6D6"/>
<stop offset="1" stop-color="#FFF9F9"/>
</linearGradient>
<radialGradient id="paint10_radial_518_4633" cx="0" cy="0" r="1" gradientUnits="userSpaceOnUse" gradientTransform="translate(118.697 102.327) rotate(89.9374) scale(8.54463 5.0205)">
<stop stop-color="#ADC54A"/>
<stop offset="1" stop-color="#51673E"/>
</radialGradient>
<linearGradient id="paint11_linear_518_4633" x1="111.401" y1="60.4994" x2="104.16" y2="120.109" gradientUnits="userSpaceOnUse">
<stop stop-color="#EC7664"/>
<stop offset="0.236111" stop-color="#FFA699"/>
<stop offset="0.488958" stop-color="#DE6351"/>
</linearGradient>
<linearGradient id="paint12_linear_518_4633" x1="126.16" y1="53.6785" x2="176.76" y2="97.1983" gradientUnits="userSpaceOnUse">
<stop stop-color="#EC7664"/>
<stop offset="0.288194" stop-color="#FA9485"/>
<stop offset="1" stop-color="#DE6351"/>
</linearGradient>
<linearGradient id="paint13_linear_518_4633" x1="138.854" y1="97.5361" x2="138.854" y2="108.865" gradientUnits="userSpaceOnUse">
<stop stop-color="#FFF5F5"/>
<stop offset="1" stop-color="#FAEDED"/>
<stop offset="1" stop-color="white"/>
</linearGradient>
<radialGradient id="paint14_radial_518_4633" cx="0" cy="0" r="1" gradientUnits="userSpaceOnUse" gradientTransform="translate(141.968 101.746) rotate(90) scale(5.75696 2.83652)">
<stop stop-color="#8EA646"/>
<stop offset="1" stop-color="#51673E"/>
</radialGradient>
<linearGradient id="paint15_linear_518_4633" x1="131.049" y1="132.5" x2="131.049" y2="136.614" gradientUnits="userSpaceOnUse">
<stop stop-color="#F05775"/>
<stop offset="1" stop-color="#F594AB"/>
</linearGradient>
<linearGradient id="paint16_linear_518_4633" x1="133.747" y1="108.683" x2="137.231" y2="122.521" gradientUnits="userSpaceOnUse">
<stop stop-color="#000525" stop-opacity="0"/>
<stop offset="0.264886" stop-color="#A06961"/>
<stop offset="1" stop-color="#000525" stop-opacity="0"/>
</linearGradient>
<radialGradient id="paint17_radial_518_4633" cx="0" cy="0" r="1" gradientUnits="userSpaceOnUse" gradientTransform="translate(98.873 130.59) rotate(104.005) scale(6.92487)">
<stop stop-color="white"/>
<stop offset="1" stop-color="#A2957B"/>
</radialGradient>
<linearGradient id="paint18_linear_518_4633" x1="124.538" y1="54.0156" x2="111.826" y2="119.535" gradientUnits="userSpaceOnUse">
<stop offset="0.116228" stop-color="#EC7664"/>
<stop offset="0.289525" stop-color="#FFB4A9"/>
<stop offset="0.637926" stop-color="#DE6351"/>
</linearGradient>
<clipPath id="clip0_518_4633">
<rect width="405" height="342" rx="20" fill="white"/>
</clipPath>
</defs>
</svg>
