<svg width="150" height="150" viewBox="0 0 150 150" fill="none" xmlns="http://www.w3.org/2000/svg">
<g clip-path="url(#clip0_9986_137308)">
<rect width="150" height="150" fill="white"/>
<rect width="340" height="340" fill="#EB8682"/>
<path d="M100.23 114.737C95.4461 114.591 81.2513 110.057 78.4294 107.965L100.23 114.737Z" fill="#A2BFF8"/>
<path d="M102.199 137.083C111.026 149.457 139.565 153.13 144.435 154.898C152.421 157.928 153.78 166.118 153.898 170.579C154.239 183.29 155.729 205.094 151.273 216.617" fill="#A2BFF8"/>
<path d="M102.199 137.083C96.8439 127.421 100.23 114.737 100.23 114.737C100.23 114.737 110.606 115.231 114.766 113.1C122.766 109.648 132.268 97.0233 132.17 78.9472C131.943 62.6689 128.524 46.5957 122.11 31.6484C116.322 16.5949 80.4047 2.52467 53.3474 28.8172C53.3474 28.8172 38.7589 42.2274 47.2311 64.5141" fill="#A2BFF8"/>
<path d="M5.19096 216.617C1.33875 204.203 2.85469 171.562 3.4125 166.956C3.97032 162.349 6.12283 153.004 17.522 150.16C22.562 148.886 54.1218 143.755 60.5268 134.852" fill="#A2BFF8"/>
<path d="M62.0756 101.194C62.0756 101.194 51.4771 95.1425 47.2508 82.5242C43.0245 69.9059 47.2311 64.5141 47.2311 64.5141C50.6239 59.4258 64.1231 58.1785 64.1231 73.529" fill="#A2BFF8"/>
<path d="M62.0756 101.194C62.8828 117.231 63.0862 124.59 60.5268 134.852L62.0756 101.194Z" fill="#A2BFF8"/>
<path d="M102.199 137.083C111.026 149.457 139.565 153.13 144.435 154.898C152.421 157.928 153.78 166.118 153.898 170.579C154.239 183.29 155.729 205.094 151.273 216.617H5.19096C1.33875 204.203 2.85469 171.562 3.4125 166.956C3.97032 162.349 6.12283 153.004 17.522 150.16C22.562 148.886 54.1218 143.755 60.5268 134.852C63.0862 124.59 62.8828 117.231 62.0756 101.194C62.0756 101.194 51.4771 95.1425 47.2508 82.5242C43.0245 69.9059 47.2311 64.5141 47.2311 64.5141C38.7589 42.2274 53.3474 28.8172 53.3474 28.8172C80.4047 2.52467 116.322 16.5949 122.11 31.6484C128.524 46.5957 131.943 62.6689 132.17 78.9472C132.268 97.0233 122.766 109.648 114.766 113.1C110.606 115.231 100.23 114.737 100.23 114.737C100.23 114.737 96.8439 127.421 102.199 137.083Z" fill="#A2BFF8"/>
<path opacity="0.4" d="M100.079 114.229C99.4434 118.721 98.459 125.32 100.079 130.6C94.0741 129.168 77.123 117.384 77.123 107.814C84.5397 110.728 92.231 112.877 100.079 114.229Z" fill="#050504"/>
<path d="M54.966 68.2324C52.4067 68.932 50.661 72.8191 52.6954 77.0098" stroke="#050504" stroke-width="3" stroke-linecap="round"/>
<path d="M2.0906 162.008C1.52967 166.603 0.00529051 199.169 3.87897 211.554H150.775C155.256 200.058 153.758 178.303 153.415 165.622C153.296 161.171 151.93 153 143.899 149.978C139.415 148.362 115.812 145.885 104.926 135.941C104.926 135.941 105.256 142.854 80.1797 142.854C55.1031 142.854 55.3712 134.096 55.3712 134.096C44.6966 140.715 20.6482 144.155 16.2787 145.251C4.81603 148.088 2.65152 157.412 2.0906 162.008Z" fill="#F1CF73" stroke="#050504" stroke-width="3" stroke-linecap="round" stroke-linejoin="round"/>
<path d="M104.709 136.315C104.709 139.346 97.7971 142.693 88.1788 143.944C85.6816 144.269 83.002 144.453 80.2136 144.453C79.527 144.453 78.8455 144.44 78.1702 144.415C65.5396 143.946 55.1035 139.235 55.1035 135.61" fill="#F9EFE4"/>
<path d="M55.7177 123.298C55.7242 123.368 55.7305 123.438 55.7365 123.508C56.0901 127.627 55.4899 131.482 55.1035 135.61" fill="#F9EFE4"/>
<path d="M104.709 123.298C104.703 123.369 104.696 123.44 104.69 123.511C104.327 127.572 104.333 132.277 104.709 136.315" fill="#F9EFE4"/>
<path d="M59.7229 126.206C60.1158 130.404 59.6353 135.656 59.2424 139.854L59.7229 126.206Z" fill="#F9EFE4"/>
<path d="M78.1678 128.604C78.5599 133.867 78.5606 139.152 78.1702 144.415C78.1694 144.425 78.1686 144.436 78.1678 144.446" fill="#F9EFE4"/>
<path d="M64.1315 127.301C64.5011 131.422 64.1047 138.07 63.6824 141.763L64.1315 127.301Z" fill="#F9EFE4"/>
<path d="M68.6317 127.975C69.0012 132.096 68.3809 139.319 67.9718 143.013L68.6317 127.975Z" fill="#F9EFE4"/>
<path d="M73.3528 128.393C73.7224 132.515 73.3387 140.252 72.9296 143.946L73.3528 128.393Z" fill="#F9EFE4"/>
<path d="M83.1964 128.591C83.5892 133.702 83.5892 139.272 83.1964 144.382V128.591Z" fill="#F9EFE4"/>
<path d="M88.1787 128.317C88.5682 133.379 88.5682 138.882 88.1788 143.944L88.1787 143.946" fill="#F9EFE4"/>
<path d="M92.7321 127.86C93.1217 132.788 93.1217 138.201 92.7321 143.129V127.86Z" fill="#F9EFE4"/>
<path d="M97.0545 127.151C97.444 131.848 97.444 137.227 97.0545 141.924V127.151Z" fill="#F9EFE4"/>
<path d="M100.79 126.26C101.183 130.96 101.183 135.684 100.79 140.384V126.26Z" fill="#F9EFE4"/>
<path fill-rule="evenodd" clip-rule="evenodd" d="M104.709 123.298C104.709 123.369 104.703 123.44 104.69 123.511C104.696 123.44 104.703 123.369 104.709 123.298ZM92.7321 127.86C92.7409 127.859 92.7498 127.858 92.7587 127.856C92.811 127.85 92.8632 127.843 92.9153 127.836M55.7365 123.508C55.724 123.438 55.7177 123.368 55.7177 123.298C55.7242 123.368 55.7305 123.438 55.7365 123.508Z" fill="#F9EFE4"/>
<path d="M88.1788 143.944C97.7971 142.693 104.709 139.346 104.709 136.315C104.333 132.277 104.327 127.572 104.69 123.511C104.355 125.345 99.7229 126.94 92.9153 127.836C92.8632 127.843 92.811 127.85 92.7587 127.856C92.7498 127.858 92.7409 127.859 92.7321 127.86C91.3019 128.044 89.7777 128.198 88.1787 128.317C88.5682 133.379 88.5682 138.882 88.1788 143.944Z" fill="#F9EFE4"/>
<path d="M78.1702 144.415C78.8455 144.44 79.527 144.453 80.2136 144.453C81.2233 144.453 82.2187 144.429 83.1964 144.382C84.9186 144.301 86.5858 144.152 88.1788 143.944C88.5682 138.882 88.5682 133.379 88.1787 128.317C85.6815 128.503 83.0019 128.604 80.2136 128.604C77.832 128.604 75.5298 128.531 73.3528 128.393C71.8586 128.299 70.4234 128.175 69.062 128.024C68.9177 128.008 68.7743 127.991 68.6317 127.975C65.0253 127.555 61.9606 126.944 59.7229 126.206C57.3565 125.425 55.9152 124.502 55.7365 123.508C56.0901 127.627 55.4899 131.482 55.1035 135.61C55.1035 139.235 65.5396 143.946 78.1702 144.415Z" fill="#F9EFE4"/>
<path d="M99.5885 120.052C102.796 120.947 104.709 122.073 104.709 123.298M104.709 123.298C104.709 123.369 104.703 123.44 104.69 123.511M104.709 123.298C104.703 123.369 104.696 123.44 104.69 123.511M80.2136 128.604C76.1974 128.604 72.4069 128.395 69.062 128.024M80.2136 128.604C84.7985 128.604 89.0893 128.331 92.7587 127.856M80.2136 128.604C83.0019 128.604 85.6815 128.503 88.1787 128.317M80.2136 128.604C77.832 128.604 75.5298 128.531 73.3528 128.393M55.7177 123.298C55.7177 122.073 57.6314 120.947 60.8518 120.045M55.7177 123.298C55.7177 123.368 55.724 123.438 55.7365 123.508M55.7177 123.298C55.7242 123.368 55.7305 123.438 55.7365 123.508M80.2136 144.453C83.002 144.453 85.6816 144.269 88.1788 143.944M80.2136 144.453C79.527 144.453 78.8455 144.44 78.1702 144.415M80.2136 144.453C81.2233 144.453 82.2187 144.429 83.1964 144.382M59.7229 126.206C60.1158 130.404 59.6353 135.656 59.2424 139.854M59.7229 126.206C61.9606 126.944 65.0253 127.555 68.6317 127.975M59.7229 126.206C57.3565 125.425 55.9152 124.502 55.7365 123.508M78.1678 128.604C78.5599 133.867 78.5606 139.152 78.1702 144.415M78.1678 144.446C78.1686 144.436 78.1694 144.425 78.1702 144.415M64.1315 127.301C64.5011 131.422 64.1047 138.07 63.6824 141.763M68.6317 127.975C69.0012 132.096 68.3809 139.319 67.9718 143.013M68.6317 127.975C68.7743 127.991 68.9177 128.008 69.062 128.024M73.3528 128.393C73.7224 132.515 73.3387 140.252 72.9296 143.946M73.3528 128.393C71.8586 128.299 70.4234 128.175 69.062 128.024M83.1964 128.591C83.5892 133.702 83.5892 139.272 83.1964 144.382M83.1964 144.382C84.9186 144.301 86.5858 144.152 88.1788 143.944M88.1787 128.317C89.7777 128.198 91.3019 128.044 92.7321 127.86M88.1787 128.317C88.5682 133.379 88.5682 138.882 88.1788 143.944M88.1787 143.946L88.1788 143.944M92.7321 127.86C93.1217 132.788 93.1217 138.201 92.7321 143.129M92.7321 127.86C92.7409 127.859 92.7498 127.858 92.7587 127.856M97.0545 127.151C97.444 131.848 97.444 137.227 97.0545 141.924M100.79 126.26C101.183 130.96 101.183 135.684 100.79 140.384M104.69 123.511C104.327 127.572 104.333 132.277 104.709 136.315C104.709 139.346 97.7971 142.693 88.1788 143.944M104.69 123.511C104.355 125.345 99.7229 126.94 92.9153 127.836C92.8632 127.843 92.811 127.85 92.7587 127.856M69.062 128.024C61.4104 127.174 56.0908 125.479 55.7365 123.508M55.7365 123.508C56.0901 127.627 55.4899 131.482 55.1035 135.61C55.1035 139.235 65.5396 143.946 78.1702 144.415" stroke="#050504" stroke-width="3" stroke-linecap="round" stroke-linejoin="round"/>
<path d="M61.701 126.064L61.833 119.809C60.1719 119.934 56.0918 121.295 56.0918 123.101C56.0918 124.907 60.1506 125.938 61.701 126.064Z" fill="#050504"/>
<path d="M98.6561 126.064L98.6219 120.138C100.283 120.263 103.935 121.295 103.935 123.101C103.935 124.907 100.206 125.938 98.6561 126.064Z" fill="#050504"/>
<path d="M132.395 51.8338C134.131 51.9312 136.066 49.6065 135.944 47.4248C135.944 45.9313 135.944 45.4768 135.944 43.9898L135.868 41.7106C135.797 41.0613 135.804 40.7236 135.714 40.1522C135.664 39.4972 135.57 38.8464 135.433 38.2042C133.518 29.1135 128.698 21.8539 121.586 16.1982C114.475 10.5424 106.45 7.67236 97.5631 6.80874C88.9515 5.93594 80.2666 7.40597 72.397 11.0684C66.8883 13.7129 61.7576 17.1052 57.1455 21.1526C57.21 21.3982 57.2911 21.639 57.3881 21.8734C57.6715 22.3537 57.7587 22.9278 57.631 23.4728C57.5034 24.0178 57.1709 24.4902 56.705 24.7889C52.2961 28.4728 48.4436 32.796 45.2711 37.6198C41.6444 42.8693 39.2825 48.9129 38.3763 55.2623C38.2103 56.522 37.4442 56.8532 37.1888 58.1129C36.9789 59.1977 36.8657 60.2995 36.8505 61.405C36.7228 65.0802 37.3995 68.6711 37.8975 72.2814C38.8232 79.041 40.6937 85.45 44.4092 91.2161C47.4672 95.9627 49.376 99.099 52.4595 103.826C53.8888 106.123 55.4783 108.313 57.2157 110.378C58.0073 111.242 60.2096 113.092 61.4034 112.482C61.3715 109.287 61.5438 105.846 61.4034 102.209C58.1419 99.9292 54.6798 97.2047 52.1465 94.1121C45.3985 83.2942 44.173 78.9631 44.3965 70.8399C44.8561 63.6972 50.3528 59.8011 56.4432 60.8076C58.294 61.1743 60.0188 62.3336 61.4035 63.6353C62.7882 64.9371 63.4523 66.3329 63.9571 68.1807C64.5087 70.0988 64.8944 72.3511 64.9147 74.3494C66.2362 76.5571 68.9369 74.8528 71.1905 73.6905C72.3356 73.1308 73.4078 72.4285 74.3825 71.5996C81.488 65.2686 83.8182 53.4961 82.2413 43.243C90.4512 49.4637 127.345 51.5416 132.395 51.8338Z" fill="#050504"/>
<path d="M60.2801 9.64634C60.1158 11.6576 59.5372 13.6111 58.5819 15.38C57.803 15.0164 57.1263 15.341 56.4177 15.6722C51.4936 18.0287 47.2548 21.6442 44.1156 26.1655C38.0251 34.6069 33.3201 43.6132 33.6265 54.522C33.6776 56.2233 34.0287 57.7687 35.4715 58.7947C35.031 60.8855 35.114 63.0738 34.4564 65.1257C32.6689 70.7165 29.1577 74.6515 23.4503 76.0021C17.5833 77.3917 12.1377 73.4048 10.797 67.0088C10.4926 65.8862 10.4316 64.7097 10.6183 63.5608C10.7779 62.8271 10.58 62.5413 9.82026 62.5608C8.46412 62.5777 7.11237 62.4006 5.80467 62.0349C1.12513 60.7946 -1.03906 57.2687 -2.0669 52.8403C-2.56062 50.9631 -2.66347 49.0018 -2.36885 47.082C-2.07423 45.1621 -1.38863 43.3259 -0.355968 41.6911C0.110069 40.9509 -0.158065 40.5613 -0.598567 40.0223C-3.24158 36.7757 -4.78652 33.0485 -4.66522 28.8083C-4.48009 22.6071 1.77632 16.815 7.89865 17.0098C9.67343 17.0683 9.67981 17.0683 9.73088 15.3475C9.92879 8.65285 13.3124 4.05556 18.9559 1.01017C22.3994 -0.980191 26.3658 -1.83335 30.3068 -1.43135C30.4792 -1.43135 30.6771 -1.43135 30.8111 -1.3794C32.3561 -0.444355 33.4286 -1.21057 34.6799 -2.19107C37.322 -4.158 40.4309 -5.37488 43.6878 -5.71697C43.8793 -5.50269 44.0389 -5.56113 44.1922 -5.76243C47.5374 -6.04813 50.7358 -5.61957 53.6981 -3.85986C58.4159 -1.06771 60.1907 3.3218 60.3247 8.62039C60.1883 8.75231 60.1074 8.9329 60.099 9.12421C60.0907 9.31552 60.1556 9.50266 60.2801 9.64634Z" fill="#050504"/>
<path d="M132.395 51.8338C134.131 51.9312 136.066 49.6065 135.944 47.4248C135.944 45.9313 135.944 45.4768 135.944 43.9898L135.868 41.7106C135.797 41.0613 135.804 40.7236 135.714 40.1522C135.664 39.4972 135.57 38.8464 135.433 38.2042C133.518 29.1135 128.698 21.8539 121.586 16.1982C114.475 10.5424 106.45 7.67236 97.5631 6.80874C88.9515 5.93594 80.2666 7.40597 72.397 11.0684C66.8883 13.7129 61.7576 17.1052 57.1455 21.1526C57.21 21.3982 57.2911 21.639 57.3881 21.8734C57.6715 22.3537 57.7587 22.9278 57.631 23.4728C57.5034 24.0178 57.1709 24.4902 56.705 24.7889C52.2961 28.4728 48.4436 32.796 45.2711 37.6198C41.6444 42.8693 39.2825 48.9129 38.3763 55.2623C38.2103 56.522 37.4442 56.8532 37.1888 58.1129C36.9789 59.1977 36.8657 60.2995 36.8505 61.405C36.7228 65.0802 37.3995 68.6711 37.8975 72.2814C38.8232 79.041 40.6937 85.45 44.4092 91.2161C47.4672 95.9627 49.376 99.099 52.4595 103.826C53.8888 106.123 55.4783 108.313 57.2157 110.378C58.0073 111.242 60.2096 113.092 61.4034 112.482C61.3715 109.287 61.5438 105.846 61.4034 102.209C58.1419 99.9292 54.6798 97.2047 52.1465 94.1121C45.3985 83.2942 44.173 78.9631 44.3965 70.8399C44.8561 63.6972 50.3528 59.8011 56.4432 60.8076C58.294 61.1743 60.0188 62.3336 61.4035 63.6353C62.7882 64.9371 63.4523 66.3329 63.9571 68.1807C64.5087 70.0988 64.8944 72.3511 64.9147 74.3494C66.2362 76.5571 68.9369 74.8528 71.1905 73.6905C72.3356 73.1308 73.4078 72.4285 74.3825 71.5996C81.488 65.2686 83.8182 53.4961 82.2413 43.243C90.4512 49.4637 127.345 51.5416 132.395 51.8338Z" stroke="black" stroke-width="3" stroke-linecap="round" stroke-linejoin="round"/>
<path d="M60.2801 9.64634C60.1158 11.6576 59.5372 13.6111 58.5819 15.38C57.803 15.0164 57.1263 15.341 56.4177 15.6722C51.4936 18.0287 47.2548 21.6442 44.1156 26.1655C38.0251 34.6069 33.3201 43.6132 33.6265 54.522C33.6776 56.2233 34.0287 57.7687 35.4715 58.7947C35.031 60.8855 35.114 63.0738 34.4564 65.1257C32.6689 70.7165 29.1577 74.6515 23.4503 76.0021C17.5833 77.3917 12.1377 73.4048 10.797 67.0088C10.4926 65.8862 10.4316 64.7097 10.6183 63.5608C10.7779 62.8271 10.58 62.5413 9.82026 62.5608C8.46412 62.5777 7.11237 62.4006 5.80467 62.0349C1.12513 60.7946 -1.03906 57.2687 -2.0669 52.8403C-2.56062 50.9631 -2.66347 49.0018 -2.36885 47.082C-2.07423 45.1621 -1.38863 43.3259 -0.355968 41.6911C0.110069 40.9509 -0.158065 40.5613 -0.598567 40.0223C-3.24158 36.7757 -4.78652 33.0485 -4.66522 28.8083C-4.48009 22.6071 1.77632 16.815 7.89865 17.0098C9.67343 17.0683 9.67981 17.0683 9.73088 15.3475C9.92879 8.65285 13.3124 4.05556 18.9559 1.01017C22.3994 -0.980191 26.3658 -1.83335 30.3068 -1.43135C30.4792 -1.43135 30.6771 -1.43135 30.8111 -1.3794C32.3561 -0.444355 33.4286 -1.21057 34.6799 -2.19107C37.322 -4.158 40.4309 -5.37488 43.6878 -5.71697C43.8793 -5.50269 44.0389 -5.56113 44.1922 -5.76243C47.5374 -6.04813 50.7358 -5.61957 53.6981 -3.85986C58.4159 -1.06771 60.1907 3.3218 60.3247 8.62039C60.1883 8.75231 60.1074 8.9329 60.099 9.12421C60.0907 9.31552 60.1556 9.50266 60.2801 9.64634Z" stroke="black" stroke-width="3" stroke-linecap="round" stroke-linejoin="round"/>
<path d="M35.4724 58.7945C34.0296 57.7426 33.6785 56.1972 33.6274 54.5219C33.321 43.613 38.0261 34.6262 44.1165 26.1653C47.2557 21.644 51.4945 18.0285 56.4186 15.672C57.1272 15.3409 57.804 15.0227 58.5828 15.3798C60.1405 16.6785 60.9513 18.4512 61.9025 20.1525C61.9563 20.3995 62.0267 20.6425 62.1132 20.8797C62.3771 21.3721 62.4413 21.9498 62.2922 22.4896C62.1431 23.0295 61.7925 23.4887 61.3152 23.7693C56.7551 27.2619 52.726 31.419 49.3578 36.1067C45.5197 41.1982 42.9149 47.1377 41.7544 53.444C41.5373 54.6907 41.5118 55.9634 41.2054 57.2036C41.0411 58.0844 40.6129 58.8918 39.9796 59.5153C38.4403 59.8017 36.851 59.5476 35.4724 58.7945ZM36.8769 51.6518V55.2556C36.8591 55.4738 36.9259 55.6905 37.0631 55.8592C37.2003 56.0279 37.397 56.1352 37.6111 56.1582C38.0835 56.1907 38.1601 55.7426 38.141 55.3336C38.193 54.6603 38.3041 53.9932 38.473 53.3401C38.9292 49.561 39.9766 45.8804 41.5756 42.4377C45.2878 34.6049 50.7226 27.7462 57.4592 22.3927C58.9084 21.2174 58.9723 20.9122 57.8295 19.4317C57.5295 19.0356 57.306 19.0161 56.8974 19.2629C54.9453 20.3643 53.1117 21.6701 51.4263 23.1589C47.5958 26.7303 44.6783 31.0548 42.1821 35.6522C39.4753 40.6585 37.1706 45.8273 36.8769 51.6778V51.6518Z" fill="#050504"/>
<path d="M36.877 51.6771C37.1706 45.833 39.4753 40.6383 42.1821 35.6644C44.6783 31.0671 47.5703 26.7425 51.4263 23.1712C53.1117 21.6823 54.9454 20.3766 56.8974 19.2751C57.306 19.0284 57.5359 19.0479 57.8295 19.444C58.9723 20.9245 58.9084 21.2297 57.4592 22.405C50.7311 27.757 45.3031 34.6109 41.5948 42.437C39.9958 45.8797 38.9484 49.5603 38.4921 53.3394C38.3232 53.9925 38.2121 54.6596 38.1602 55.3329C38.1602 55.7419 38.1027 56.19 37.6303 56.1575C37.4186 56.1345 37.2239 56.029 37.087 55.8632C36.9501 55.6973 36.8817 55.484 36.8961 55.2679L36.877 51.6771Z" fill="white"/>
<path d="M110.997 69.7585C110.664 68.9999 109.779 68.6547 109.021 68.9876C108.262 69.3204 107.917 70.2052 108.25 70.9639L110.997 69.7585ZM110.608 86.424C109.852 86.7617 109.512 87.6487 109.85 88.4052C110.187 89.1617 111.074 89.5012 111.831 89.1635L110.608 86.424ZM79.5879 55.1892C79.0537 55.8224 79.1339 56.7688 79.7671 57.303C80.4002 57.8372 81.3466 57.757 81.8808 57.1238L79.5879 55.1892ZM95.0516 49.9892L95.3042 48.5106L95.2937 48.5088L95.0516 49.9892ZM96.6819 51.973C97.4587 52.261 98.3218 51.8648 98.6098 51.088C98.8978 50.3112 98.5016 49.4481 97.7249 49.1601L96.6819 51.973ZM111.529 50.9487C110.917 51.5076 110.875 52.4564 111.434 53.0679C111.993 53.6794 112.941 53.722 113.553 53.1631L111.529 50.9487ZM125.779 48.9525L126.409 47.5913L126.407 47.5905L125.779 48.9525ZM126.597 51.1808C127.258 51.6792 128.199 51.5468 128.697 50.885C129.196 50.2233 129.063 49.2828 128.401 48.7844L126.597 51.1808ZM109.624 70.3612C108.25 70.9639 108.25 70.9639 108.25 70.9639C108.25 70.964 108.25 70.9641 108.25 70.9643C108.25 70.9647 108.251 70.9652 108.251 70.9659C108.252 70.9674 108.252 70.9696 108.254 70.9726C108.256 70.9786 108.26 70.9875 108.266 70.9994C108.276 71.0232 108.291 71.0587 108.312 71.1051C108.352 71.1979 108.412 71.3344 108.488 71.5089C108.64 71.8579 108.857 72.3585 109.118 72.964C109.639 74.1754 110.334 75.8042 111.028 77.4772C111.723 79.1531 112.412 80.8612 112.926 82.235C113.183 82.9238 113.391 83.5117 113.531 83.9619C113.602 84.1877 113.65 84.3622 113.68 84.4878C113.716 84.6423 113.703 84.637 113.703 84.5461H116.703C116.703 84.2714 116.646 83.9945 116.6 83.8014C116.548 83.5793 116.477 83.3298 116.395 83.0673C116.23 82.5408 116.001 81.8943 115.736 81.1843C115.204 79.7607 114.498 78.0144 113.799 76.3278C113.098 74.6383 112.398 72.9964 111.873 71.7778C111.611 71.1682 111.392 70.6639 111.239 70.3118C111.162 70.1358 111.102 69.9977 111.061 69.9036C111.04 69.8565 111.024 69.8204 111.014 69.7959C111.008 69.7837 111.004 69.7744 111.001 69.7682C111 69.765 110.999 69.7626 110.998 69.761C110.998 69.7602 110.998 69.7596 110.997 69.7592C110.997 69.759 110.997 69.7588 110.997 69.7587C110.997 69.7585 110.997 69.7585 109.624 70.3612ZM113.703 84.5461C113.703 84.2799 113.84 84.2923 113.52 84.6128C113.26 84.8725 112.868 85.1638 112.411 85.4524C111.965 85.7338 111.51 85.979 111.163 86.1556C110.99 86.2431 110.847 86.3121 110.75 86.3584C110.701 86.3815 110.663 86.3989 110.639 86.41C110.627 86.4156 110.618 86.4196 110.613 86.4219C110.61 86.4231 110.608 86.4239 110.608 86.4242C110.607 86.4244 110.607 86.4245 110.607 86.4245C110.607 86.4244 110.607 86.4244 110.607 86.4243C110.607 86.4243 110.608 86.4242 110.608 86.4242C110.608 86.4241 110.608 86.424 111.219 87.7938C111.831 89.1635 111.831 89.1634 111.831 89.1633C111.831 89.1633 111.832 89.1631 111.832 89.1631C111.832 89.1629 111.833 89.1627 111.833 89.1624C111.834 89.162 111.836 89.1614 111.837 89.1607C111.84 89.1593 111.844 89.1575 111.849 89.1553C111.859 89.1509 111.873 89.1447 111.89 89.1369C111.924 89.1212 111.972 89.099 112.032 89.0706C112.152 89.0139 112.32 88.9325 112.521 88.8304C112.92 88.6277 113.462 88.3365 114.011 87.9897C114.55 87.6501 115.154 87.2213 115.641 86.7343C116.067 86.3081 116.703 85.5471 116.703 84.5461H113.703ZM81.8808 57.1238C85.384 52.9719 90.3669 50.743 94.8095 51.4695L95.2937 48.5088C89.5462 47.5689 83.5802 50.4576 79.5879 55.1892L81.8808 57.1238ZM94.799 51.4677C95.4408 51.5774 96.0712 51.7465 96.6819 51.973L97.7249 49.1601C96.9398 48.869 96.1294 48.6516 95.3042 48.5106L94.799 51.4677ZM113.553 53.1631C117.247 49.787 121.708 48.7262 125.15 50.3146L126.407 47.5905C121.517 45.3341 115.789 47.0553 111.529 50.9487L113.553 53.1631ZM125.149 50.3138C125.66 50.5506 126.146 50.8413 126.597 51.1808L128.401 48.7844C127.781 48.3173 127.113 47.9174 126.409 47.5913L125.149 50.3138Z" fill="#050504"/>
<path d="M98.3945 95.3281C100.345 99.8817 107.093 100.976 110.167 100.459" stroke="#050504" stroke-width="3" stroke-miterlimit="10" stroke-linecap="round"/>
<path d="M94.7826 73.104C96.8199 73.104 98.4715 70.8421 98.4715 68.052C98.4715 65.2618 96.8199 63 94.7826 63C92.7453 63 91.0938 65.2618 91.0938 68.052C91.0938 70.8421 92.7453 73.104 94.7826 73.104Z" fill="#050504"/>
<path d="M97.2097 66.2273C96.2221 62.4744 91.284 61.8905 87.7129 65.0136" stroke="#050504" stroke-width="3" stroke-linecap="round"/>
<path d="M123.638 71.2797C125.675 71.2797 127.327 69.0179 127.327 66.2278C127.327 63.4376 125.675 61.1758 123.638 61.1758C121.601 61.1758 119.949 63.4376 119.949 66.2278C119.949 69.0179 121.601 71.2797 123.638 71.2797Z" fill="#050504"/>
<path d="M126.065 64.4031C125.078 60.6502 120.139 60.0663 116.568 63.1893" stroke="#050504" stroke-width="3" stroke-linecap="round"/>
</g>
<defs>
<clipPath id="clip0_9986_137308">
<rect width="150" height="150" fill="white"/>
</clipPath>
</defs>
</svg>
