<svg width="405" height="342" viewBox="0 0 405 342" fill="none" xmlns="http://www.w3.org/2000/svg">
<g clip-path="url(#clip0_518_4485)">
<rect width="405" height="342" rx="20" fill="#131316" fill-opacity="0.6"/>
<rect x="20" y="20" width="180" height="200" rx="8.9478" fill="black"/>
<ellipse cx="153.062" cy="103.208" rx="4.84673" ry="12.6761" transform="rotate(9.95946 153.062 103.208)" fill="#D36266"/>
<path d="M102.731 172.279C103.924 169.296 101.239 144.193 99.748 132.014C103.327 136.488 127.834 142.329 139.64 144.69C139.516 152.643 139.939 169.296 142.623 172.279C145.978 176.007 136.285 191.666 131.438 195.767C126.591 199.868 101.239 176.007 102.731 172.279Z" fill="#EB8682"/>
<mask id="mask0_518_4485" style="mask-type:alpha" maskUnits="userSpaceOnUse" x="99" y="132" width="45" height="65">
<path d="M102.731 172.279C103.924 169.296 101.239 144.193 99.748 132.014C103.327 136.488 127.834 142.329 139.64 144.69C139.516 152.643 139.939 169.296 142.623 172.279C145.978 176.007 136.285 191.666 131.438 195.767C126.591 199.868 101.239 176.007 102.731 172.279Z" fill="#EB8682"/>
</mask>
<g mask="url(#mask0_518_4485)">
<path d="M140.758 165.941C122.862 177.871 108.198 144.193 94.9004 132.387L157.908 159.23C154.18 160.846 144.918 163.168 140.758 165.941Z" fill="url(#paint0_linear_518_4485)"/>
</g>
<path d="M142.265 48.5018C140.178 46.7122 130.211 47.7561 125.488 48.5018C123.376 51.3599 119.225 58.12 119.523 62.2956C119.896 67.5152 134.809 60.8043 142.265 60.8043C148.231 60.8043 151.71 83.4224 152.705 94.7314C153.202 89.6361 153.898 78.5508 152.705 74.9717C151.213 70.4978 153.45 64.1597 151.586 60.8043C149.722 57.4489 144.875 50.7387 142.265 48.5018Z" fill="#615151"/>
<path d="M103.479 103.033C109.445 95.278 114.167 82.1545 115.783 76.5622C122.992 78.0535 135.696 78.0535 128.836 66.1231C120.261 51.21 83.3449 61.55 72.533 73.1076C63.8835 82.3536 75.3955 114.093 82.6034 121.301L110.932 144.317C111.305 142.826 104.374 125.179 103.479 121.301C102.361 116.454 96.0229 112.726 103.479 103.033Z" fill="#806669"/>
<path d="M153.538 92.4283C153.836 87.9544 148.194 69.1889 145.336 60.3654C130.049 45.8252 111.782 60.3654 102.088 65.9577C94.3325 70.4316 94.3831 91.9312 95.3779 102.122C93.8863 101.997 89.6357 101.824 84.5659 102.122C78.2287 102.495 80.4125 105.326 79.294 111.664C78.1755 118.003 87.9206 123 90.9032 126.355C93.2892 129.04 99.3539 129.214 102.088 128.965C103.455 131.948 106.636 139.106 108.426 143.878C110.663 149.843 137.879 158.418 145.336 159.164C152.792 159.91 153.538 147.979 158.012 136.049C162.486 124.118 157.266 124.118 155.775 120.39C154.283 116.662 153.165 98.0207 153.538 92.4283Z" fill="url(#paint1_radial_518_4485)"/>
<g filter="url(#filter0_f_518_4485)">
<ellipse cx="137.723" cy="112.461" rx="7.47089" ry="11.2432" transform="rotate(-24.4392 137.723 112.461)" fill="#E36A6F" fill-opacity="0.5"/>
</g>
<path d="M137.401 96.2227C137.649 100.324 138.668 108.899 140.756 110.39C143.366 112.254 148.585 114.118 146.348 117.101C144.111 120.083 142.993 121.202 141.502 121.202C140.01 121.202 137.401 121.202 136.282 120.456C135.164 119.711 134.418 117.847 132.181 117.847M129.198 118.965C128.701 117.722 127.931 114.938 128.826 113.745" stroke="black" stroke-width="0.74565" stroke-linecap="round"/>
<path d="M124.354 96.5947L126.964 98.086C127.212 101.069 126.591 107.108 122.117 107.407C117.643 107.705 113.542 104.3 112.051 102.56C114.139 99.5773 121.123 97.3404 124.354 96.5947Z" fill="#D9D9D9" stroke="black" stroke-width="0.74565" stroke-linecap="round"/>
<mask id="mask1_518_4485" style="mask-type:alpha" maskUnits="userSpaceOnUse" x="111" y="96" width="17" height="12">
<path d="M124.354 96.5947L126.964 98.086C127.212 101.069 126.591 107.108 122.117 107.407C117.643 107.705 113.542 104.3 112.051 102.56C114.139 99.5773 121.123 97.3404 124.354 96.5947Z" fill="#D9D9D9" stroke="black" stroke-width="0.74565" stroke-linecap="round"/>
</mask>
<g mask="url(#mask1_518_4485)">
<path d="M124.355 105.17C120.477 105.17 119.508 99.702 119.508 96.968C119.508 94.731 124.355 93.9854 127.337 93.9854C129.723 93.9854 130.817 98.9564 131.065 101.442C130.444 102.685 128.232 105.17 124.355 105.17Z" fill="#131313"/>
<circle cx="121.198" cy="100.098" r="0.529412" transform="rotate(9.55715 121.198 100.098)" fill="white"/>
</g>
<path d="M146.905 91.376L148.604 92.8673C148.766 95.8499 148.362 101.89 145.449 102.188C142.536 102.486 139.866 99.081 138.895 97.3412C140.254 94.3586 144.801 92.1216 146.905 91.376Z" fill="#D9D9D9" stroke="black" stroke-width="0.74565" stroke-linecap="round"/>
<mask id="mask2_518_4485" style="mask-type:alpha" maskUnits="userSpaceOnUse" x="138" y="90" width="12" height="13">
<path d="M146.905 91.376L148.604 92.8673C148.766 95.8499 148.362 101.89 145.449 102.188C142.536 102.486 139.866 99.081 138.895 97.3412C140.254 94.3586 144.801 92.1216 146.905 91.376Z" fill="#D9D9D9" stroke="black" stroke-width="0.74565" stroke-linecap="round"/>
</mask>
<g mask="url(#mask2_518_4485)">
<path d="M146.906 99.9504C144.381 99.9504 143.75 94.4823 143.75 91.7482C143.75 89.5113 146.906 88.7656 148.848 88.7656C150.401 88.7656 151.113 93.7366 151.275 96.2221C150.87 97.4649 149.43 99.9504 146.906 99.9504Z" fill="#131313"/>
<circle cx="144.493" cy="96.9215" r="0.529412" transform="rotate(9.55715 144.493 96.9215)" fill="white"/>
</g>
<path d="M126.234 88.3928L129.589 83.9189H116.898L109.814 87.2744L103.104 96.2222C104.968 95.1037 109.143 92.6431 110.933 91.7483C112.722 90.8535 122.257 89.1385 126.234 88.3928Z" fill="#614746"/>
<path d="M140.705 87.0371L138.929 84.868L148.74 85.4118L152.491 87.0386L153.434 89.5128C151.071 88.2147 143.375 87.4955 140.705 87.0371Z" fill="#614746"/>
<path d="M105.335 83.5458C111.3 75.791 116.022 62.6676 117.638 57.0752C124.847 58.5665 137.551 58.5665 130.691 46.6361C122.116 31.7231 84.4588 57.0752 73.6468 68.6328C64.9973 77.8789 77.2508 94.6063 84.4588 101.814L92.5287 104.782L97.2934 112.723C97.6663 111.232 99.7764 113.424 98.8817 109.547C97.7632 104.7 97.8782 93.2393 105.335 83.5458Z" fill="#806669"/>
<path d="M144.859 128.285C138.596 130.373 128.828 131.889 124.727 132.386C126.964 134.623 134.047 134.996 139.267 133.878C143.442 132.983 144.735 129.776 144.859 128.285Z" fill="#E26762"/>
<path d="M145.232 128.285C139.888 129.776 128.306 132.684 124.727 132.386" stroke="black" stroke-width="0.74565" stroke-linecap="round"/>
<path d="M129.937 105.566C129.937 106.307 130.538 106.909 131.28 106.909C132.022 106.909 132.623 106.307 132.623 105.566H129.937ZM139.041 104.588C139.041 105.33 139.642 105.931 140.385 105.931C141.126 105.931 141.728 105.33 141.728 104.588H139.041ZM110.872 106.366C111.58 106.59 112.334 106.198 112.558 105.49C112.781 104.783 112.389 104.028 111.682 103.805L110.872 106.366ZM81.709 100.446L82.2869 101.658C82.3014 101.651 82.3157 101.644 82.3301 101.637L81.709 100.446ZM75.6803 109.976C75.8156 110.705 76.5166 111.187 77.2459 111.052C77.9752 110.916 78.4568 110.215 78.3215 109.486L75.6803 109.976ZM129.937 105.086C129.937 110.261 126.356 114.106 122.34 114.106V116.792C128.199 116.792 132.623 111.358 132.623 105.086H129.937ZM122.34 114.106C118.324 114.106 112.626 110.261 112.626 105.086H109.94C109.94 111.358 116.482 116.792 122.34 116.792V114.106ZM112.626 105.086C112.626 99.9104 118.324 96.065 122.34 96.065V93.3788C116.482 93.3788 109.94 98.8133 109.94 105.086H112.626ZM122.34 96.065C126.356 96.065 129.937 99.9104 129.937 105.086H132.623C132.623 98.8133 128.199 93.3788 122.34 93.3788V96.065ZM156.838 103.083C156.838 108.258 153.257 112.103 149.241 112.103V114.789C155.1 114.789 159.524 109.355 159.524 103.083H156.838ZM149.241 112.103C145.225 112.103 141.645 108.258 141.645 103.083H138.959C138.959 109.355 143.383 114.789 149.241 114.789V112.103ZM141.645 103.083C141.645 97.9076 145.225 94.0622 149.241 94.0622V91.376C143.383 91.376 138.959 96.8105 138.959 103.083H141.645ZM149.241 94.0622C153.257 94.0622 156.838 97.9076 156.838 103.083H159.524C159.524 96.8105 155.1 91.376 149.241 91.376V94.0622ZM132.623 105.566C132.623 105.106 132.845 104.7 133.425 104.331C134.033 103.944 134.932 103.684 135.914 103.624C136.897 103.564 137.804 103.715 138.407 103.988C139.019 104.266 139.041 104.51 139.041 104.588H141.728C141.728 103.016 140.611 102.038 139.516 101.542C138.412 101.041 137.043 100.864 135.75 100.943C134.456 101.022 133.079 101.366 131.981 102.066C130.852 102.785 129.937 103.951 129.937 105.566H132.623ZM111.277 105.086C111.682 103.805 111.682 103.805 111.682 103.805L111.68 103.804L111.676 103.803C111.673 103.802 111.668 103.801 111.662 103.799C111.649 103.795 111.63 103.789 111.605 103.781C111.556 103.765 111.483 103.743 111.388 103.713C111.199 103.655 110.921 103.57 110.566 103.463C109.856 103.249 108.837 102.948 107.594 102.597C105.109 101.896 103.842 100.995 100.25 100.199C96.6655 99.4042 92.8396 98.7055 89.4824 98.4202C87.804 98.2775 86.2123 98.2354 84.8094 98.345C83.4264 98.4531 82.1223 98.7157 81.088 99.255L82.3301 101.637C82.9009 101.339 83.7909 101.119 85.0186 101.023C86.2264 100.929 87.6618 100.961 89.2549 101.097C92.4408 101.368 96.135 102.038 99.6689 102.821C103.196 103.604 104.411 104.49 106.864 105.182C108.09 105.528 109.095 105.825 109.792 106.035C110.14 106.14 110.411 106.223 110.595 106.28C110.687 106.308 110.757 106.33 110.804 106.345C110.827 106.352 110.844 106.357 110.856 106.361C110.862 106.363 110.866 106.364 110.869 106.365L110.872 106.366C110.872 106.366 110.872 106.366 111.277 105.086ZM81.1312 99.2334C79.1691 100.169 77.5715 101.731 76.5862 103.674L78.9821 104.888C79.7003 103.472 80.8629 102.337 82.2869 101.658L81.1312 99.2334ZM76.5862 103.674C75.601 105.617 75.2828 107.833 75.6803 109.976L78.3215 109.486C78.0313 107.922 78.2638 106.305 78.9821 104.888L76.5862 103.674Z" fill="black"/>
<path d="M118.016 130.897C120.999 125.827 129.947 121.08 134.048 119.34C135.912 118.494 135.539 119.34 136.658 120.458C137.776 121.576 138.895 121.577 141.132 121.577C143.369 121.577 143.741 120.458 144.114 119.34C144.487 118.221 145.978 120.085 150.452 121.577C154.926 123.068 152.316 123.068 153.062 124.932C153.808 126.796 148.588 124.932 147.842 127.169C147.097 129.406 141.504 126.051 140.386 127.169C139.267 128.288 134.048 128.288 132.184 130.152C130.693 131.643 125.846 131.27 123.609 130.897C120.502 133.01 115.034 135.968 118.016 130.897Z" fill="#614746"/>
<path d="M44.9419 195.394C45.8367 193.008 80.3603 179.487 97.5102 173.024L114.66 184.582C118.761 188.186 127.471 195.135 129.059 193.724C131.743 191.338 139.391 181.227 142.249 177.125C151.073 180.481 170.584 187.714 178.04 189.802C185.497 191.889 187.361 210.804 187.361 220H32.6387C36.3669 212.792 44.0471 197.78 44.9419 195.394Z" fill="url(#paint2_linear_518_4485)"/>
<path d="M123.607 184.955L104.593 171.16C103.117 169.9 103.117 166.724 102.729 162.958C102.729 162.958 94.6243 172.219 94.6465 173.606C94.6688 174.993 106.457 198.004 106.457 198.004C108.819 195.145 114.212 189.279 116.897 188.683C119.581 188.086 125.882 193.724 129.058 194.253L123.607 184.955Z" fill="#EEEEEE"/>
<path d="M139.561 171.16L130.847 184.955L129.058 194.253C131.176 192.135 134.253 189.235 134.882 188.959C136.134 188.409 145.47 194.253 148.646 196.139L144.941 177.841L140.516 163.288C140.486 163.171 140.452 163.06 140.416 162.958L140.516 163.288C141.149 165.729 140.474 171.16 139.561 171.16Z" fill="#EEEEEE"/>
<path d="M134.354 145.018C128.761 144.396 123.236 142.455 118.762 142.455C115.821 142.455 98.6298 108.525 98.6298 108.525L96.7656 111.881C96.7656 111.881 107.876 144.915 109.069 147.301C110.262 149.687 133.675 157.243 145.233 160.723C146.724 160.102 150.005 158.859 151.198 158.859C152.391 158.859 158.406 140.963 161.264 132.015L159.766 125.959L157.648 122.782C157.648 123.404 157.119 125.757 157.119 127.547C157.119 129.784 154.039 138.665 150.766 139.723C147.492 140.782 144.942 136.547 142.25 135.744L139.641 136.489C139.641 136.489 140.013 137.006 141.132 140.218C142.25 143.429 134.354 145.018 134.354 145.018Z" fill="#614746"/>
<path d="M142.995 61.9229C142.995 57.449 137.776 53.5965 135.166 52.2295C138.894 47.7555 142.995 53.3479 147.096 56.7034C150.377 59.3877 143.99 68.0124 140.386 71.9892C141.255 70.4979 142.995 66.3968 142.995 61.9229Z" fill="#615151"/>
<path d="M90.4286 109.644C90.7269 109.942 92.7899 113.745 93.7841 115.609C94.5309 116.999 93.41 118.219 92.6644 118.219C91.9187 118.219 91.5459 119.71 91.9187 120.828C92.2916 121.947 93.41 124.557 91.9187 125.302C90.4274 126.048 83.345 117.846 82.2265 116.355C81.108 114.863 81.108 110.389 81.8537 108.152C82.5993 105.915 84.0906 106.661 85.5819 105.916C87.0732 105.17 90.0558 109.271 90.4286 109.644Z" fill="#D36266"/>
<path d="M93.0361 113.746C91.5448 110.887 87.8911 105.32 85.2068 105.916C82.5224 106.513 81.6028 107.904 81.4785 108.526" stroke="#793033" stroke-width="0.74565" stroke-linecap="round"/>
<path d="M92.2899 82.7014C101.834 78.824 109.44 64.9301 112.05 58.4678C108.47 82.9251 82.9692 90.2822 70.666 90.9036C73.8972 89.7851 82.7456 86.5788 92.2899 82.7014Z" fill="#D9D9D9"/>
<path d="M88.9362 95.7502C98.4805 91.8729 99.3753 86.1811 101.985 79.7188C98.406 104.176 85.9536 98.1115 73.6504 98.7328C76.8815 97.6144 79.3919 99.6276 88.9362 95.7502Z" fill="#D9D9D9"/>
<path d="M86.7086 76.844C94.4473 73.546 100.614 61.7281 102.73 56.2314C99.8281 77.0342 79.1514 83.292 69.1758 83.8205C71.7956 82.8692 78.97 80.142 86.7086 76.844Z" fill="#D9D9D9"/>
<rect x="220.352" y="20.3521" width="115.197" height="18.9296" rx="9.46479" fill="#2E075F"/>
<rect x="220.352" y="20.3521" width="115.197" height="18.9296" rx="9.46479" stroke="#944AF2" stroke-width="0.704225"/>
<path d="M229.166 33.8174V25.333H232.494C234.422 25.333 235.529 26.5225 235.529 28.1924C235.529 29.8857 234.404 31.0518 232.447 31.0518H230.924V33.8174H229.166ZM230.924 29.6338H232.166C233.209 29.6338 233.719 29.0479 233.713 28.1924C233.719 27.3486 233.209 26.7803 232.166 26.7744H230.924V29.6338ZM236.607 33.8174V27.4541H238.283V28.5557H238.354C238.582 27.7764 239.174 27.3604 239.889 27.3604C240.064 27.3604 240.287 27.3838 240.439 27.4189V28.9658C240.275 28.9131 239.941 28.8721 239.701 28.8721C238.916 28.8721 238.336 29.417 238.342 30.1963V33.8174H236.607ZM243.943 33.9463C242.021 33.9404 240.82 32.6221 240.826 30.6533C240.82 28.6904 242.021 27.3721 243.943 27.3721C245.871 27.3721 247.066 28.6904 247.072 30.6533C247.066 32.6221 245.871 33.9404 243.943 33.9463ZM242.584 30.6533C242.584 31.7666 243.047 32.5928 243.955 32.5986C244.84 32.5928 245.309 31.7666 245.303 30.6533C245.309 29.5342 244.84 28.6963 243.955 28.6963C243.047 28.6963 242.584 29.5342 242.584 30.6533ZM250.506 33.9229C249.053 33.9229 247.916 32.7686 247.916 30.6416C247.916 28.4619 249.1 27.3721 250.506 27.3721C251.572 27.3721 252.082 28.0049 252.311 28.5205H252.369V25.333H254.104V33.8174H252.393V32.7979H252.311C252.07 33.3252 251.543 33.9229 250.506 33.9229ZM249.697 30.6299C249.691 31.7549 250.166 32.5342 251.045 32.54C251.912 32.5342 252.404 31.7783 252.404 30.6299C252.404 29.4873 251.918 28.7549 251.045 28.7549C250.16 28.7549 249.691 29.5225 249.697 30.6299ZM259.576 31.1104V27.4541H261.311V33.8174H259.646V32.6689H259.576C259.289 33.4072 258.604 33.8994 257.643 33.8994C256.371 33.8994 255.498 32.9971 255.498 31.5088V27.4541H257.232V31.2041C257.232 31.96 257.666 32.4287 258.346 32.4346C258.979 32.4287 259.576 31.9775 259.576 31.1104ZM265.518 33.9463C263.566 33.9404 262.395 32.5928 262.4 30.6533C262.395 28.708 263.59 27.3721 265.518 27.3721C267.158 27.3721 268.271 28.3271 268.342 29.7861H266.713C266.607 29.1592 266.197 28.7256 265.541 28.7197C264.709 28.7256 264.158 29.4229 264.158 30.6299C264.158 31.8604 264.697 32.5635 265.541 32.5635C266.15 32.5635 266.602 32.1826 266.713 31.5088H268.342C268.266 32.9502 267.205 33.9404 265.518 33.9463ZM272.771 27.4541V28.7549H271.576V31.8604C271.57 32.3701 271.822 32.4932 272.174 32.5049C272.35 32.5049 272.654 32.4873 272.865 32.4697V33.8408C272.678 33.8701 272.367 33.9053 271.939 33.8994C270.686 33.9053 269.83 33.3428 269.842 32.1064V28.7549H268.963V27.4541H269.842V25.9307H271.576V27.4541H272.771ZM284.432 29.5752C284.432 32.3467 282.715 33.9346 280.471 33.9346C278.209 33.9346 276.498 32.335 276.498 29.5752C276.498 26.8037 278.209 25.2158 280.471 25.2158C282.715 25.2158 284.432 26.8037 284.432 29.5752ZM278.291 29.5752C278.291 31.3857 279.152 32.3701 280.471 32.376C281.777 32.3701 282.645 31.3857 282.639 29.5752C282.645 27.7588 281.777 26.7803 280.471 26.7744C279.152 26.7803 278.291 27.7588 278.291 29.5752ZM285.662 36.208V27.4541H287.373V28.5205H287.443C287.684 28.0049 288.188 27.3721 289.26 27.3721C290.666 27.3721 291.844 28.4619 291.838 30.6416C291.844 32.7686 290.713 33.9229 289.26 33.9229C288.223 33.9229 287.689 33.3252 287.443 32.7979H287.396V36.208H285.662ZM287.361 30.6299C287.355 31.7783 287.848 32.5342 288.709 32.54C289.594 32.5342 290.074 31.7549 290.068 30.6299C290.074 29.5225 289.605 28.7549 288.709 28.7549C287.842 28.7549 287.355 29.4873 287.361 30.6299ZM295.846 33.9463C293.895 33.9404 292.699 32.6807 292.705 30.665C292.699 28.7021 293.912 27.3721 295.775 27.3721C297.445 27.3721 298.764 28.4268 298.764 30.5947V31.0869H294.416C294.416 32.0479 294.984 32.6396 295.881 32.6455C296.473 32.6396 296.895 32.3818 297.064 32.001H298.717C298.471 33.1787 297.416 33.9404 295.846 33.9463ZM294.416 29.9971H297.123C297.117 29.2236 296.584 28.667 295.811 28.6729C295.014 28.667 294.451 29.2646 294.416 29.9971ZM299.854 33.8174V27.4541H301.529V28.5557H301.6C301.828 27.7764 302.42 27.3604 303.135 27.3604C303.311 27.3604 303.533 27.3838 303.686 27.4189V28.9658C303.521 28.9131 303.188 28.8721 302.947 28.8721C302.162 28.8721 301.582 29.417 301.588 30.1963V33.8174H299.854ZM304.049 32.0361C304.055 30.6182 305.191 30.1553 306.416 30.0791C306.873 30.0498 307.729 30.0088 307.998 29.9971V29.4814C307.992 28.9482 307.629 28.6436 306.979 28.6377C306.387 28.6436 306.018 28.9072 305.924 29.3408H304.271C304.377 28.2393 305.338 27.3721 307.025 27.3721C308.414 27.3721 309.727 27.9932 309.721 29.5283V33.8174H308.08V32.9385H308.033C307.723 33.5244 307.113 33.9404 306.17 33.9346C304.951 33.9404 304.055 33.2959 304.049 32.0361ZM305.713 31.9893C305.713 32.4756 306.105 32.7334 306.662 32.7393C307.453 32.7334 308.004 32.2178 307.998 31.5439V31.0811C307.734 31.0928 306.99 31.1338 306.697 31.1572C306.094 31.21 305.713 31.4971 305.713 31.9893ZM314.396 27.4541V28.7549H313.201V31.8604C313.195 32.3701 313.447 32.4932 313.799 32.5049C313.975 32.5049 314.279 32.4873 314.49 32.4697V33.8408C314.303 33.8701 313.992 33.9053 313.564 33.8994C312.311 33.9053 311.455 33.3428 311.467 32.1064V28.7549H310.588V27.4541H311.467V25.9307H313.201V27.4541H314.396ZM318.275 33.9463C316.354 33.9404 315.152 32.6221 315.158 30.6533C315.152 28.6904 316.354 27.3721 318.275 27.3721C320.203 27.3721 321.398 28.6904 321.404 30.6533C321.398 32.6221 320.203 33.9404 318.275 33.9463ZM316.916 30.6533C316.916 31.7666 317.379 32.5928 318.287 32.5986C319.172 32.5928 319.641 31.7666 319.635 30.6533C319.641 29.5342 319.172 28.6963 318.287 28.6963C317.379 28.6963 316.916 29.5342 316.916 30.6533ZM322.494 33.8174V27.4541H324.17V28.5557H324.24C324.469 27.7764 325.061 27.3604 325.775 27.3604C325.951 27.3604 326.174 27.3838 326.326 27.4189V28.9658C326.162 28.9131 325.828 28.8721 325.588 28.8721C324.803 28.8721 324.223 29.417 324.229 30.1963V33.8174H322.494Z" fill="#ECECF8"/>
<path d="M240.156 71.8916V74.3057H220.633V71.8916H228.883V67.1338H231.883V71.8916H240.156ZM221.43 65.7041C225.859 64.9893 228.508 62.3174 228.766 59.4932H222.25V57.0791H238.445V59.4932H231.953C232.188 62.3057 234.859 64.9189 239.43 65.5869L238.258 67.9541C234.52 67.2979 231.754 65.4814 230.371 62.9502C229.023 65.5166 226.281 67.4033 222.602 68.0713L221.43 65.7041ZM261.227 63.5479V65.9854H258.203V76.7432H255.203V55.4619H258.203V63.5479H261.227ZM242.055 71.54V57.501H245.031V69.0674C247.762 69.0205 250.691 68.7627 253.773 68.1416L254.078 70.626C250.504 71.3525 247.047 71.54 243.906 71.54H242.055ZM279.039 55.4619V61.2744H281.922V63.7354H279.039V70.8838H276.039V55.4619H279.039ZM262.938 67.3682V57.1729H272.57V59.5635H265.938V64.9541C269.805 64.9307 271.926 64.8018 274.305 64.2979L274.609 66.6885C271.926 67.2393 269.465 67.3682 264.742 67.3682H262.938ZM265.211 76.415V69.2432H268.188V74.0244H279.812V76.415H265.211Z" fill="#ECECF8"/>
<path d="M231.75 95.415V100.415H227.891V101.774H233.391V103.384H220.422V101.774H225.891V100.415H222.031V95.415H231.75ZM221.859 105.993V104.431H231.812V109.071H229.828V105.993H221.859ZM223.984 98.8525H229.797V96.9619H223.984V98.8525ZM247.266 105.899V107.493H234.25V105.899H237.484V103.196H235.328V101.587H237.234V97.5869H235.266V95.9932H246.172V97.5869H244.172V101.587H246.109V103.196H243.969V105.899H247.266ZM239.234 101.587H242.203V97.5869H239.234V101.587ZM239.484 105.899H241.969V103.196H239.484V105.899Z" fill="#ECECF8" fill-opacity="0.5"/>
<path d="M231.758 125.824V127.26H220.369V125.824H225.168V123.281H221.572V117.184H230.486V123.281H226.904V125.824H231.758ZM223.295 121.914H228.764V118.578H223.295V121.914ZM243.229 116.281V122.789H241.574V116.281H243.229ZM233.002 122.475V116.869H237.855V118.236H234.738V121.094C236.126 121.08 237.09 121.032 238.211 120.848L238.32 122.229C236.967 122.44 235.818 122.475 233.863 122.475H233.002ZM234.643 124.553V123.186H243.229V126.494H236.393V127.205H243.598V128.572H234.656V125.195H241.52V124.553H234.643ZM237.131 120.191V118.879H239.086V116.486H240.727V122.734H239.086V120.191H237.131ZM250.242 116.445C253.106 116.445 254.761 117.197 254.768 118.564C254.761 119.952 253.106 120.697 250.242 120.697C247.371 120.697 245.703 119.952 245.703 118.564C245.703 117.197 247.371 116.445 250.242 116.445ZM244.568 122.666V121.285H255.916V122.666H244.568ZM245.881 124.662V123.391H254.535V126.562H247.604V127.314H254.863V128.627H245.895V125.346H252.812V124.662H245.881ZM247.535 118.564C247.528 119.173 248.417 119.412 250.242 119.412C252.081 119.412 252.963 119.173 252.963 118.564C252.963 118.011 252.081 117.717 250.242 117.717C248.417 117.717 247.528 118.011 247.535 118.564ZM270.299 116.268V122.57H268.562V116.268H270.299ZM259.84 121.23C261.918 120.608 262.848 119.043 262.848 117.498V116.541H264.666V117.498C264.652 119.009 265.555 120.451 267.592 121.039L266.744 122.379C265.315 121.969 264.331 121.101 263.764 119.993C263.203 121.203 262.185 122.153 260.701 122.598L259.84 121.23ZM261.959 124.457V123.104H270.312V126.48H263.695V127.246H270.654V128.627H261.986V125.182H268.576V124.457H261.959ZM282.398 116.268V122.652H280.662V116.268H282.398ZM272.049 121.408C273.983 120.875 274.94 119.569 275.057 118.236H272.514V116.842H279.35V118.236H276.861C276.978 119.474 277.921 120.69 279.828 121.189L278.994 122.529C277.552 122.133 276.554 121.299 275.993 120.232C275.426 121.415 274.373 122.352 272.842 122.789L272.049 121.408ZM274.059 124.471V123.145H282.412V126.467H275.795V127.287H282.754V128.627H274.086V125.223H280.676V124.471H274.059ZM291.271 116.965V118.346H288.797C288.804 119.809 289.692 121.319 291.654 121.969L290.793 123.309C289.419 122.878 288.469 121.976 287.929 120.861C287.375 122.099 286.384 123.097 284.914 123.568L284.025 122.188C286.076 121.538 287.006 119.891 287.02 118.346H284.518V116.965H291.271ZM286.035 125.619V124.225H294.58V128.709H292.844V125.619H286.035ZM290.916 120.684V119.262H292.844V116.268H294.58V123.678H292.844V120.684H290.916ZM301.867 116.896C304.492 116.903 306.55 118.325 306.557 120.479C306.55 122.652 304.492 124.067 301.867 124.061C299.235 124.067 297.191 122.652 297.191 120.479C297.191 118.325 299.235 116.903 301.867 116.896ZM296.193 127.191V125.783H307.582V127.191H296.193ZM298.887 120.479C298.88 121.832 300.138 122.639 301.867 122.639C303.583 122.639 304.827 121.832 304.834 120.479C304.827 119.146 303.583 118.305 301.867 118.318C300.138 118.305 298.88 119.146 298.887 120.479ZM319.682 125.893V127.328H308.293V125.893H313.092V124.02H309.605V119.836H316.646V118.469H309.592V117.074H318.369V121.203H311.355V122.598H318.656V124.02H314.828V125.893H319.682ZM334.994 122.324V123.719H330.277V125.879H328.514V123.719H323.605V122.324H334.994ZM324.781 119.084C324.781 117.505 326.586 116.514 329.293 116.5C331.986 116.514 333.784 117.505 333.791 119.084C333.784 120.67 331.986 121.654 329.293 121.654C326.586 121.654 324.781 120.67 324.781 119.084ZM324.959 128.49V124.771H326.723V127.082H333.736V128.49H324.959ZM326.668 119.084C326.661 119.843 327.687 120.253 329.293 120.26C330.899 120.253 331.918 119.843 331.918 119.084C331.918 118.291 330.899 117.881 329.293 117.881C327.687 117.881 326.661 118.291 326.668 119.084ZM339.191 116.938C340.183 116.931 341.051 117.3 341.646 117.908H344.469V116.268H346.205V123.555H344.469V122.064H341.632C341.037 122.666 340.176 123.028 339.191 123.021C337.305 123.028 335.869 121.743 335.883 119.986C335.869 118.209 337.305 116.931 339.191 116.938ZM337.537 119.986C337.53 120.943 338.221 121.552 339.191 121.545C340.128 121.552 340.812 120.943 340.818 119.986C340.812 118.995 340.128 118.421 339.191 118.428C338.221 118.421 337.53 118.995 337.537 119.986ZM337.674 126.262C337.674 124.717 339.321 123.808 341.953 123.814C344.585 123.808 346.239 124.717 346.246 126.262C346.239 127.807 344.585 128.716 341.953 128.709C339.321 128.716 337.674 127.807 337.674 126.262ZM339.383 126.262C339.383 126.986 340.306 127.355 341.953 127.355C343.635 127.355 344.53 126.986 344.537 126.262C344.53 125.517 343.635 125.147 341.953 125.141C340.306 125.147 339.383 125.517 339.383 126.262ZM342.391 119.289C342.445 119.508 342.473 119.747 342.473 119.986C342.473 120.226 342.445 120.451 342.397 120.67H344.469V119.289H342.391ZM357.635 116.268V121.135H359.467V122.57H357.635V128.709H355.912V116.268H357.635ZM347.75 119.521V118.127H350.566V116.459H352.316V118.127H355.064V119.521H347.75ZM348.256 123.186C348.249 121.449 349.603 120.212 351.441 120.219C353.253 120.212 354.613 121.449 354.613 123.186C354.613 124.922 353.253 126.146 351.441 126.152C349.603 126.146 348.249 124.922 348.256 123.186ZM349.924 123.186C349.924 124.149 350.56 124.724 351.441 124.717C352.31 124.724 352.945 124.149 352.945 123.186C352.945 122.229 352.31 121.641 351.441 121.627C350.56 121.641 349.924 122.229 349.924 123.186ZM370.172 117.348V118.523C370.165 120.082 370.165 121.832 369.666 124.471L367.916 124.293C368.395 121.941 368.415 120.191 368.422 118.729H361.094V117.348H370.172ZM359.918 127.191V125.77H363.979V121.49H365.715V125.77H371.266V127.191H359.918ZM227.342 134.17V134.949C227.342 135.811 227.342 137.055 227.055 138.6L225.346 138.436C225.571 137.246 225.626 136.337 225.64 135.592H220.943V134.17H227.342ZM220.205 139.502C220.902 139.502 221.688 139.502 222.516 139.481V137.041H224.252V139.427C225.496 139.372 226.761 139.276 227.93 139.105L228.025 140.363C225.435 140.842 222.522 140.89 220.355 140.896L220.205 139.502ZM222.037 145.49V141.744H223.787V144.096H230.773V145.49H222.037ZM228.6 142.578V133.268H230.391V137.055H231.895V138.518H230.391V142.578H228.6ZM242.9 133.268V145.736H241.164V133.268H242.9ZM233.125 135.715V134.307H239.045V139.105H234.943V141.389C236.844 141.375 238.45 141.279 240.275 140.979L240.426 142.387C238.382 142.749 236.529 142.824 234.26 142.824H233.139V137.725H237.268V135.715H233.125ZM254.385 133.268V138.135H256.217V139.57H254.385V145.709H252.662V133.268H254.385ZM244.5 136.521V135.127H247.316V133.459H249.066V135.127H251.814V136.521H244.5ZM245.006 140.186C244.999 138.449 246.353 137.212 248.191 137.219C250.003 137.212 251.363 138.449 251.363 140.186C251.363 141.922 250.003 143.146 248.191 143.152C246.353 143.146 244.999 141.922 245.006 140.186ZM246.674 140.186C246.674 141.149 247.31 141.724 248.191 141.717C249.06 141.724 249.695 141.149 249.695 140.186C249.695 139.229 249.06 138.641 248.191 138.627C247.31 138.641 246.674 139.229 246.674 140.186ZM266.922 134.348V135.523C266.915 137.082 266.915 138.832 266.416 141.471L264.666 141.293C265.145 138.941 265.165 137.191 265.172 135.729H257.844V134.348H266.922ZM256.668 144.191V142.77H260.729V138.49H262.465V142.77H268.016V144.191H256.668ZM282.412 133.281V140.172H280.662V133.281H282.412ZM271.953 138.627C274.031 137.998 274.947 136.446 274.947 134.908V133.705H276.766V134.908C276.752 136.385 277.654 137.848 279.691 138.408L278.857 139.789C277.422 139.365 276.431 138.504 275.863 137.39C275.296 138.593 274.277 139.543 272.787 139.994L271.953 138.627ZM273.826 145.572V144.178H275.439V142.113H273.936V140.732H282.48V142.113H280.99V144.178H282.59V145.572H273.826ZM277.162 144.178H279.268V142.113H277.162V144.178ZM287.143 140.732V141.785H292.27V140.732H294.006V145.572H285.42V140.732H287.143ZM284.094 140.104V138.695H295.441V140.104H284.094ZM284.654 136.781C287.43 136.446 288.865 135.093 288.879 133.814V133.391H290.67V133.814C290.67 135.059 292.099 136.467 294.881 136.781L294.266 138.148C292.126 137.875 290.567 136.986 289.768 135.783C288.961 136.986 287.402 137.875 285.283 138.148L284.654 136.781ZM287.143 144.205H292.27V143.111H287.143V144.205ZM306.652 133.268V145.709H304.916V133.268H306.652ZM296.863 142.633V134.457H298.586V141.149C300.268 141.122 302.072 140.965 303.904 140.609L304.123 142.045C301.942 142.503 299.878 142.64 297.957 142.633H296.863ZM318.109 133.268V137.889H319.941V139.311H318.109V145.736H316.359V133.268H318.109ZM308.785 142.715V134.416H314.623V135.824H310.521V141.279C312.326 141.266 313.816 141.17 315.471 140.883L315.662 142.346C313.728 142.674 312.032 142.722 309.838 142.715H308.785ZM322.006 144.574C321.363 144.574 320.844 144.062 320.857 143.426C320.844 142.797 321.363 142.284 322.006 142.291C322.614 142.284 323.141 142.797 323.141 143.426C323.141 144.062 322.614 144.574 322.006 144.574Z" fill="#ECECF8"/>
<path d="M20.3867 267.969V266.516H27.3359V267.969H24.7344V275H22.9883V267.969H20.3867ZM30.3477 275.129C28.3965 275.123 27.2012 273.863 27.207 271.848C27.2012 269.885 28.4141 268.555 30.2773 268.555C31.9473 268.555 33.2656 269.609 33.2656 271.777V272.27H28.918C28.918 273.23 29.4863 273.822 30.3828 273.828C30.9746 273.822 31.3965 273.564 31.5664 273.184H33.2188C32.9727 274.361 31.918 275.123 30.3477 275.129ZM28.918 271.18H31.625C31.6191 270.406 31.0859 269.85 30.3125 269.855C29.5156 269.85 28.9531 270.447 28.918 271.18ZM37.2148 275.129C35.2637 275.123 34.0918 273.775 34.0977 271.836C34.0918 269.891 35.2871 268.555 37.2148 268.555C38.8555 268.555 39.9688 269.51 40.0391 270.969H38.4102C38.3047 270.342 37.8945 269.908 37.2383 269.902C36.4062 269.908 35.8555 270.605 35.8555 271.812C35.8555 273.043 36.3945 273.746 37.2383 273.746C37.8477 273.746 38.2988 273.365 38.4102 272.691H40.0391C39.9629 274.133 38.9023 275.123 37.2148 275.129ZM42.8516 271.32V275H41.1172V266.516H42.8047V269.75H42.875C43.168 269.006 43.8066 268.555 44.7734 268.555C46.1035 268.555 46.9766 269.451 46.9766 270.945V275H45.2422V271.25C45.2422 270.459 44.8203 269.996 44.0938 269.996C43.3613 269.996 42.8516 270.482 42.8516 271.32Z" fill="#ECECF8" fill-opacity="0.5"/>
<path d="M20.9375 287.516H22.2031L25.0625 294.5H25.168L28.0273 287.516H29.293V296H28.2969V289.59H28.2148L25.5781 296H24.6406L22.0039 289.59H21.9336V296H20.9375V287.516ZM31.168 296V287.516H32.2227V295.062H36.1602V296H31.168ZM45.9805 286.531V296.949H45.0898V286.531H45.9805ZM37.1797 291.031C37.1855 288.816 38.0645 287.416 39.418 287.41C40.6836 287.416 41.5391 288.635 41.6562 290.598H43.0039V286.754H43.8828V296.422H43.0039V291.359H41.6621C41.5742 293.387 40.7012 294.658 39.418 294.652C38.0645 294.658 37.1855 293.246 37.1797 291.031ZM38.0469 291.031C38.0352 292.719 38.5742 293.785 39.418 293.773C40.2676 293.785 40.8066 292.719 40.8008 291.031C40.8066 289.338 40.2676 288.277 39.418 288.277C38.5742 288.277 38.0352 289.338 38.0469 291.031ZM59.3398 286.531V296.949H58.4609V291.488H56.9258V296.41H56.082V286.766H56.9258V290.727H58.4609V286.531H59.3398ZM50.8203 294.371V287.809H54.7227V288.57H51.7344V293.586C53.1699 293.58 54.1602 293.527 55.3203 293.293L55.4023 294.066C54.1484 294.324 53.0879 294.365 51.4883 294.371H50.8203ZM68.9492 286.543V289.977H70.5195V290.75H68.9492V294.348H68.0352V286.543H68.9492ZM60.8281 288.57V287.82H63.4766V286.543H64.3906V287.82H67.0391V288.57H60.8281ZM61.4258 291.09C61.4199 289.906 62.4277 289.145 63.9336 289.145C65.4219 289.145 66.4297 289.906 66.4414 291.09C66.4297 292.262 65.4219 293.018 63.9336 293.012C62.4277 293.018 61.4199 292.262 61.4258 291.09ZM62.3047 291.09C62.2988 291.822 62.9492 292.297 63.9336 292.285C64.9062 292.297 65.5625 291.822 65.5742 291.09C65.5625 290.346 64.9062 289.865 63.9336 289.871C62.9492 289.865 62.2988 290.346 62.3047 291.09ZM62.4336 296.727V293.727H63.3359V295.953H69.4297V296.727H62.4336ZM82.8008 286.531V296.949H81.875V286.531H82.8008ZM74.3164 294.242C77.1348 292.906 78.5762 290.908 78.7812 288.418H74.7969V287.668H79.7188C79.707 290.662 78.3125 293.316 74.8203 294.992L74.3164 294.242ZM89.7852 286.988C89.7793 288.283 91.6602 289.279 93.5352 289.508L93.207 290.211C91.5664 289.988 89.9609 289.256 89.3047 288.131C88.6367 289.256 87.0254 289.988 85.4023 290.211L85.0859 289.508C86.9551 289.279 88.8359 288.283 88.8359 286.988V286.59H89.7852V286.988ZM84.5586 291.641V290.891H94.0508V291.641H89.75V292.684H92.832V295.051H86.6445V296.105H93.1484V296.832H85.7305V294.359H91.9297V293.41H85.707V292.684H88.8359V291.641H84.5586ZM103.168 287.164C103.162 288.482 105.061 289.654 106.895 289.918L106.531 290.633C104.938 290.381 103.355 289.549 102.693 288.371C102.031 289.555 100.443 290.381 98.8438 290.633L98.4922 289.918C100.338 289.654 102.219 288.506 102.219 287.164V286.672H103.168V287.164ZM97.9414 292.227V291.465H107.434V292.227H103.133V293.562H106.262V296.949H105.336V294.312H98.9961V293.562H102.23V292.227H97.9414ZM113.258 287.281V290.316H109.672V292.039C111.576 292.039 112.625 291.992 113.891 291.77L113.984 292.531C112.625 292.766 111.535 292.801 109.496 292.801H108.746V289.59H112.32V288.031H108.723V287.281H113.258ZM110.176 296.668V293.645H111.102V295.906H117.266V296.668H110.176ZM113.961 291.395V290.633H116.023V289.051H113.961V288.301H116.023V286.543H116.949V294.207H116.023V291.395H113.961ZM127.098 291.418V292.168H123.875V294.863H128.223V295.637H118.684V294.863H122.973V292.168H119.902V287.387H126.992V288.137H120.828V291.418H127.098Z" fill="#ECECF8"/>
<circle cx="271" cy="292" r="6" fill="#944AF2"/>
<circle cx="295" cy="292" r="6" fill="#ECECF8" fill-opacity="0.3"/>
<circle cx="319" cy="292" r="6" fill="#ECECF8" fill-opacity="0.3"/>
<circle cx="343" cy="292" r="6" fill="#ECECF8" fill-opacity="0.3"/>
<circle cx="367" cy="292" r="6" fill="#ECECF8" fill-opacity="0.3"/>
<path d="M28.1094 311.758C28.1152 314.441 26.5332 316.117 24.3594 316.117C22.1797 316.117 20.6035 314.441 20.6094 311.758C20.6035 309.074 22.1797 307.398 24.3594 307.398C26.5332 307.398 28.1152 309.074 28.1094 311.758ZM21.6289 311.758C21.6348 313.943 22.8242 315.127 24.3594 315.133C25.8945 315.127 27.084 313.943 27.0898 311.758C27.084 309.566 25.8945 308.383 24.3594 308.383C22.8242 308.383 21.6348 309.566 21.6289 311.758ZM29.5273 318.391V309.637H30.5V310.645H30.6172C30.834 310.305 31.2207 309.555 32.457 309.555C34.0566 309.555 35.1641 310.82 35.1641 312.836C35.1641 314.857 34.0566 316.135 32.4688 316.129C31.2559 316.135 30.834 315.379 30.6172 315.027H30.5352V318.391H29.5273ZM30.5117 312.812C30.5176 314.242 31.1562 315.227 32.3281 315.227C33.5352 315.227 34.1562 314.166 34.1562 312.812C34.1562 311.482 33.5527 310.457 32.3281 310.457C31.1387 310.457 30.5176 311.4 30.5117 312.812ZM40.0156 311.289C39.875 310.762 39.4707 310.416 38.7266 310.41C37.9414 310.416 37.3848 310.838 37.3789 311.371C37.3848 311.793 37.7246 312.08 38.4688 312.262L39.418 312.496C40.5547 312.766 41.1113 313.334 41.1172 314.219C41.1113 315.32 40.2148 316.135 38.6211 316.129C37.1914 316.135 36.3418 315.496 36.1719 314.336H37.2266C37.3438 314.957 37.7949 315.256 38.5977 315.25C39.5059 315.256 40.0742 314.875 40.0742 314.277C40.0742 313.826 39.752 313.533 39.0312 313.363L38.0703 313.141C36.9629 312.883 36.3711 312.279 36.3711 311.43C36.3711 310.34 37.3262 309.555 38.7266 309.555C40.0449 309.555 40.8711 310.258 41 311.289H40.0156ZM50.9727 306.531V316.949H50.082V306.531H50.9727ZM42.1719 311.031C42.1777 308.816 43.0566 307.416 44.4102 307.41C45.6758 307.416 46.5312 308.635 46.6484 310.598H47.9961V306.754H48.875V316.422H47.9961V311.359H46.6543C46.5664 313.387 45.6934 314.658 44.4102 314.652C43.0566 314.658 42.1777 313.246 42.1719 311.031ZM43.0391 311.031C43.0273 312.719 43.5664 313.785 44.4102 313.773C45.2598 313.785 45.7988 312.719 45.793 311.031C45.7988 309.338 45.2598 308.277 44.4102 308.277C43.5664 308.277 43.0273 309.338 43.0391 311.031ZM64.332 306.531V316.949H63.4531V311.488H61.918V316.41H61.0742V306.766H61.918V310.727H63.4531V306.531H64.332ZM55.8125 314.371V307.809H59.7148V308.57H56.7266V313.586C58.1621 313.58 59.1523 313.527 60.3125 313.293L60.3945 314.066C59.1406 314.324 58.0801 314.365 56.4805 314.371H55.8125ZM73.9414 306.543V309.977H75.5117V310.75H73.9414V314.348H73.0273V306.543H73.9414ZM65.8203 308.57V307.82H68.4688V306.543H69.3828V307.82H72.0312V308.57H65.8203ZM66.418 311.09C66.4121 309.906 67.4199 309.145 68.9258 309.145C70.4141 309.145 71.4219 309.906 71.4336 311.09C71.4219 312.262 70.4141 313.018 68.9258 313.012C67.4199 313.018 66.4121 312.262 66.418 311.09ZM67.2969 311.09C67.291 311.822 67.9414 312.297 68.9258 312.285C69.8984 312.297 70.5547 311.822 70.5664 311.09C70.5547 310.346 69.8984 309.865 68.9258 309.871C67.9414 309.865 67.291 310.346 67.2969 311.09ZM67.4258 316.727V313.727H68.3281V315.953H74.4219V316.727H67.4258ZM87.793 306.531V316.949H86.8672V306.531H87.793ZM79.3086 314.242C82.127 312.906 83.5684 310.908 83.7734 308.418H79.7891V307.668H84.7109C84.6992 310.662 83.3047 313.316 79.8125 314.992L79.3086 314.242ZM94.7773 306.988C94.7715 308.283 96.6523 309.279 98.5273 309.508L98.1992 310.211C96.5586 309.988 94.9531 309.256 94.2969 308.131C93.6289 309.256 92.0176 309.988 90.3945 310.211L90.0781 309.508C91.9473 309.279 93.8281 308.283 93.8281 306.988V306.59H94.7773V306.988ZM89.5508 311.641V310.891H99.043V311.641H94.7422V312.684H97.8242V315.051H91.6367V316.105H98.1406V316.832H90.7227V314.359H96.9219V313.41H90.6992V312.684H93.8281V311.641H89.5508ZM108.16 307.164C108.154 308.482 110.053 309.654 111.887 309.918L111.523 310.633C109.93 310.381 108.348 309.549 107.686 308.371C107.023 309.555 105.436 310.381 103.836 310.633L103.484 309.918C105.33 309.654 107.211 308.506 107.211 307.164V306.672H108.16V307.164ZM102.934 312.227V311.465H112.426V312.227H108.125V313.562H111.254V316.949H110.328V314.312H103.988V313.562H107.223V312.227H102.934ZM118.25 307.281V310.316H114.664V312.039C116.568 312.039 117.617 311.992 118.883 311.77L118.977 312.531C117.617 312.766 116.527 312.801 114.488 312.801H113.738V309.59H117.312V308.031H113.715V307.281H118.25ZM115.168 316.668V313.645H116.094V315.906H122.258V316.668H115.168ZM118.953 311.395V310.633H121.016V309.051H118.953V308.301H121.016V306.543H121.941V314.207H121.016V311.395H118.953ZM132.09 311.418V312.168H128.867V314.863H133.215V315.637H123.676V314.863H127.965V312.168H124.895V307.387H131.984V308.137H125.82V311.418H132.09Z" fill="#ECECF8"/>
<circle cx="271" cy="312" r="6" fill="#944AF2"/>
<circle cx="295" cy="312" r="6" fill="#ECECF8" fill-opacity="0.3"/>
<circle cx="319" cy="312" r="6" fill="#ECECF8" fill-opacity="0.3"/>
<circle cx="343" cy="312" r="6" fill="#ECECF8" fill-opacity="0.3"/>
<circle cx="367" cy="312" r="6" fill="#ECECF8" fill-opacity="0.3"/>
</g>
<rect x="0.5" y="0.5" width="404" height="341" rx="19.5" stroke="white" stroke-opacity="0.2"/>
<defs>
<filter id="filter0_f_518_4485" x="125.247" y="97.5313" width="24.9511" height="29.8602" filterUnits="userSpaceOnUse" color-interpolation-filters="sRGB">
<feFlood flood-opacity="0" result="BackgroundImageFix"/>
<feBlend mode="normal" in="SourceGraphic" in2="BackgroundImageFix" result="shape"/>
<feGaussianBlur stdDeviation="2.11765" result="effect1_foregroundBlur_518_4485"/>
</filter>
<linearGradient id="paint0_linear_518_4485" x1="118.471" y1="138.136" x2="126.404" y2="168.46" gradientUnits="userSpaceOnUse">
<stop stop-color="#8F5250"/>
<stop offset="1" stop-color="#8F5250" stop-opacity="0"/>
</linearGradient>
<radialGradient id="paint1_radial_518_4485" cx="0" cy="0" r="1" gradientUnits="userSpaceOnUse" gradientTransform="translate(138.059 84.6645) rotate(109.622) scale(64.636 48.615)">
<stop stop-color="#FFC6C4"/>
<stop offset="1" stop-color="#EB8682"/>
</radialGradient>
<linearGradient id="paint2_linear_518_4485" x1="110" y1="173.024" x2="110" y2="220" gradientUnits="userSpaceOnUse">
<stop stop-color="#396352"/>
<stop offset="1" stop-color="#132E23"/>
</linearGradient>
<clipPath id="clip0_518_4485">
<rect width="405" height="342" rx="20" fill="white"/>
</clipPath>
</defs>
</svg>
