<svg width="405" height="342" viewBox="0 0 405 342" fill="none" xmlns="http://www.w3.org/2000/svg">
<g clip-path="url(#clip0_518_4414)">
<rect width="405" height="342" rx="20" fill="#131316" fill-opacity="0.6"/>
<rect x="22.5" y="20" width="180" height="200" rx="8.95804" fill="url(#paint0_linear_518_4414)" fill-opacity="0.5"/>
<rect x="22.5" y="20" width="180" height="200" rx="8.95804" fill="black"/>
<path d="M70.2696 94.1178C69.9605 71.8666 88.8066 53.4528 95.977 53.0494C124.954 34.6452 158.844 62.4896 162.988 84.5613C167.131 106.633 159.746 109.851 161.846 127.954C163.592 143 159.06 140.13 155.747 149.5C152.303 159.243 152.419 166.464 158.577 176C164.735 185.537 146.821 176.764 140.708 180.916C134.595 185.068 115.542 165.467 113.403 180.639C111.265 195.81 101.673 170.418 90.9626 184.712C80.2518 199.006 69.9672 204.004 63.0386 198.5C56.11 192.997 53.3734 192.152 50.2356 184.712C47.0978 177.273 44.5372 155.512 59.2272 144.258C73.9172 133.004 70.656 121.932 70.2696 94.1178Z" fill="url(#paint1_linear_518_4414)"/>
<path d="M176.131 220.001C175.812 207.832 160.852 174.547 148.9 167.422C127.386 157.967 99.8627 161.858 82.6475 167.422C70.3906 171.383 47.7208 204.105 51.5721 220.001H176.131Z" fill="url(#paint2_linear_518_4414)"/>
<path d="M99.8086 167.578C105.29 167.578 107.208 142.618 103.848 127.19C111.438 127.19 128.17 127.938 130.489 129.423C134.117 131.746 123.665 152.275 132.624 167.578C132.624 167.578 132.468 195.563 123.989 195.033C115.51 194.503 99.8086 167.578 99.8086 167.578Z" fill="#D67967"/>
<mask id="mask0_518_4414" style="mask-type:alpha" maskUnits="userSpaceOnUse" x="95" y="127" width="38" height="67">
<path d="M96.0469 170.19C100.824 167.503 108.09 144.151 103.85 127.19C111.439 127.19 128.173 127.938 130.492 129.423C134.119 131.746 123.668 152.274 132.626 167.578L119.294 193.995C112.949 187.526 91.2693 172.878 96.0469 170.19Z" fill="#D67967"/>
</mask>
<g mask="url(#mask0_518_4414)">
<path d="M135.344 129.05L140.57 160.403C140.57 160.403 133.478 165.255 116.309 148.086C99.139 130.916 95.0332 125.691 95.0332 125.691L99.5122 114.866L135.344 129.05Z" fill="url(#paint3_linear_518_4414)"/>
</g>
<path d="M84.7716 70.2978C98.1687 41.5451 128.981 43.9427 140.162 53.0455C150.093 50.383 151.667 57.1432 151.213 60.8562L118.507 130.608C111.105 126.914 101.098 135.309 99.6085 125.6C97.7469 113.465 68.0253 106.239 84.7716 70.2978Z" fill="url(#paint4_linear_518_4414)"/>
<path d="M151.517 129.044C153.306 132.046 153.875 140.82 148.996 142.242C145.058 143.39 141.554 135.88 144.507 130.365" stroke="url(#paint5_linear_518_4414)" stroke-width="2.12007" stroke-linecap="round"/>
<path d="M166.272 68.5059C161.432 57.245 136.534 55.0968 129.298 59.161C119.271 67.8851 138.539 78.7877 140.001 87.0471C141.171 93.6546 141.919 114.14 142.146 123.557C144.249 121.172 149.594 112.06 156.632 105.044C161.003 94.0992 171.113 79.7667 166.272 68.5059Z" fill="url(#paint6_linear_518_4414)"/>
<path d="M159.045 99.7745C160.934 94.6632 162.16 87.4479 153.963 70.6819C145.766 53.9158 116.656 65.0762 110.629 70.7649C104.603 76.4535 99.9099 101.017 98.651 99.6367C97.3921 98.2561 94.6018 96.9631 90.7419 99.2657C86.882 101.568 86.4409 109.844 86.1936 115.117C85.9463 120.39 91.462 123.343 93.6782 125.667C95.4511 127.526 100.736 129.168 103.157 129.758C104.497 136.507 127.577 152.558 136.011 150.179C144.446 147.8 144.433 145.666 149.731 136.375C154.182 128.57 157.223 119.271 156.368 113.788C155.569 108.664 156.684 106.164 159.045 99.7745Z" fill="url(#paint7_radial_518_4414)"/>
<g filter="url(#filter0_f_518_4414)">
<path d="M148.389 118.606C147.839 121.481 145.063 123.366 142.188 122.817C139.313 122.268 135.866 119.193 136.415 116.318C136.964 113.443 138.974 107.094 141.849 107.643C144.725 108.193 148.938 115.73 148.389 118.606Z" fill="#D8806F" fill-opacity="0.6"/>
</g>
<path d="M99.96 110.346C100.71 112.389 98.9647 113.576 97.2181 114.762C94.878 116.351 96.8887 118.498 96.8844 118.498C94.8593 121.151 94.5593 120.713 90.2835 117.237C86.0077 113.76 87.9851 105.398 92.1416 103.532C96.2981 101.666 99.2103 108.303 99.96 110.346Z" fill="#B15A46"/>
<path d="M101.693 124.54C104.014 127.153 106.219 135.665 101.693 137.977C98.0412 139.843 93.1895 133.125 95.0558 127.153" stroke="url(#paint8_linear_518_4414)" stroke-width="2.12007" stroke-linecap="round"/>
<path d="M126.22 127.595C140.256 133.688 142.269 132.434 145.651 131.307C145.47 130.664 144.215 130.206 143.784 129.145C143.488 128.708 142.197 129.498 141.394 129.725C140.751 129.906 139.513 128.962 138.582 128.531L126.22 127.595Z" fill="#933C42"/>
<path d="M119.106 98.3383C121.538 95.9962 123.09 96.8691 125.552 96.3665C127.506 95.9677 131.201 99.0846 133.038 100.418C134.166 101.501 134.329 104.907 134.179 105.799C134.028 106.691 129.486 107.159 126.509 106.658L126.498 106.656C123.529 106.156 121.803 105.865 120.317 105.269C118.816 104.666 116.673 100.68 119.106 98.3383Z" fill="#EDF1FA"/>
<mask id="mask1_518_4414" style="mask-type:alpha" maskUnits="userSpaceOnUse" x="118" y="96" width="17" height="11">
<path d="M119.106 98.3383C121.538 95.9962 123.09 96.8691 125.552 96.3665C127.506 95.9677 131.201 99.0846 133.038 100.418C134.166 101.501 134.329 104.907 134.179 105.799C134.028 106.691 129.486 107.159 126.509 106.658L126.498 106.656C123.529 106.156 121.803 105.865 120.317 105.269C118.816 104.666 116.673 100.68 119.106 98.3383Z" fill="#EDF1FA"/>
</mask>
<g mask="url(#mask1_518_4414)">
<path d="M124.481 104.132C123.632 100.996 124.448 98.9445 125.713 96.8155C127.34 95.2404 133.883 98.1051 134.302 99.6548C134.721 101.205 133.862 105.361 131.534 106.932C128.464 109.005 125.739 108.783 124.481 104.132Z" fill="url(#paint9_linear_518_4414)"/>
<ellipse cx="129.29" cy="100.689" rx="2.12007" ry="2.65009" fill="#14080E"/>
</g>
<path d="M120.312 105.302C118.653 103.84 117.852 101.512 118.224 99.9725C119.751 97.7311 121.978 97.7142 123.914 97.4697C127.48 97.0195 132.893 100.662 135.17 103.1C133.784 98.5669 126.576 94.7954 122.317 95.8537C118.058 96.9121 117.897 95.8494 117.356 95.0185C117.445 96.5129 117.689 97.8526 119.999 97.058C119.156 98.0254 117.684 99.9044 115.928 99.0172C114.173 98.13 113.614 97.717 113.504 97.6984C116.106 99.9853 116.905 100.12 117.17 100.165C117.501 100.22 117.623 101.521 117.833 102.296C118.043 103.071 118.781 104.304 120.312 105.302Z" fill="#060107"/>
<circle cx="130.765" cy="100.527" r="0.530017" transform="rotate(9.55715 130.765 100.527)" fill="white"/>
<path d="M155.729 106.301C155.061 104.182 154.117 104.444 153.032 103.573C152.17 102.881 149.695 104.215 148.511 104.73C147.727 105.226 147.223 107.775 147.101 108.416C146.978 109.057 148.585 110.902 150.14 111.198C151.694 111.495 152.811 111.278 153.624 110.769C154.436 110.26 156.397 108.421 155.729 106.301Z" fill="#EDF1FA"/>
<path d="M149.96 103.87C147.84 104.93 148.369 110.23 151.55 110.76C154.73 111.29 155.262 108.957 155.79 105.99C155.729 104.5 152.08 102.81 149.96 103.87Z" fill="url(#paint10_linear_518_4414)"/>
<ellipse cx="152.08" cy="105.46" rx="1.59005" ry="2.12007" fill="#14080E"/>
<path d="M153.62 110.792C154.745 110.15 155.644 108.735 155.8 107.605C155.55 105.748 154.812 104.884 153.926 104.302C152.294 103.229 148.771 104.807 147.433 105.535C148.814 103.925 152.88 102.281 154.716 103.917C156.551 105.553 156.862 104.862 157.306 104.412C156.936 105.412 156.827 105.508 155.577 105.236C155.774 106.076 156.153 107.629 157.199 107.401C158.245 107.172 158.531 107.055 158.589 107.066C157.431 107.916 156.408 107.988 156.27 107.962C156.097 107.929 155.753 108.79 155.481 109.274C155.21 109.757 154.582 110.44 153.62 110.792Z" fill="#060107"/>
<circle cx="0.530017" cy="0.530017" r="0.530017" transform="matrix(-0.982236 -0.187649 -0.187649 0.982236 154.297 104.625)" fill="white"/>
<path d="M146.24 107.263C145.445 111.428 148.927 115.688 150.211 116.001C151.496 116.315 151.463 122.29 144.918 122.659" stroke="#401109" stroke-width="0.746503" stroke-linecap="round"/>
<path d="M129.325 85.9353C144.135 78.4286 144.292 67.2613 142.52 62.616C145.401 47.5331 122.287 51.1506 106.325 59.1211C90.4209 67.0622 93.0204 80.453 96.2935 97.3133L96.3299 97.5009C99.5108 113.887 110.832 123.063 105.547 112.933C100.262 102.803 110.812 95.3186 129.325 85.9353Z" fill="url(#paint11_linear_518_4414)"/>
<path d="M115.129 94.8509C129.329 82.7744 135.539 88.4026 136.87 92.7263C129.019 88.7834 130.186 90.2396 125.931 90.303C123.82 90.3344 117.855 93.2389 115.129 94.8509Z" fill="#28111B"/>
<path d="M148.796 96.5233C152.105 95.9895 157.739 95.9098 159.223 98.5145C158.879 96.6981 157.134 95.5036 154.649 94.5748C152.165 93.6459 150.161 94.163 148.796 96.5233Z" fill="#28111B"/>
<path d="M138.316 120.489C140.646 119.933 142.187 120.402 142.518 121.091C142.403 121.694 141.647 121.808 141.177 120.835C141.017 120.502 138.951 120.61 138.316 120.489Z" fill="#3A2323"/>
<path d="M137.136 131.677C142.044 132.936 143.085 131.961 145.285 131.228C142.665 133.008 141.102 136.714 138.228 136.34C133.526 135.728 130.809 133.403 126.221 127.586C128.35 128.373 134.501 131 137.136 131.677Z" fill="#AB4C53"/>
<circle cx="145.884" cy="118.747" r="0.746503" transform="rotate(10.8156 145.884 118.747)" fill="white"/>
<circle cx="113.059" cy="104.849" r="0.530017" fill="#060107"/>
<path d="M136.919 91.3639C144.877 82.4861 146.723 63.0355 139.702 58.4151C143.134 58.3036 149.099 62.9886 151.357 70.4239C154.434 80.5596 149.645 88.2571 146.617 93.7426L136.919 91.3639Z" fill="url(#paint12_linear_518_4414)"/>
<path d="M155.261 100.689C163.142 90.4024 152.55 69.5521 147.268 62.9434C150.168 63.1888 159.975 66.5162 165.966 73.048C171.956 79.5797 167.296 99.4106 164.014 105.979L155.261 100.689Z" fill="url(#paint13_linear_518_4414)"/>
<rect x="222.929" y="20.4294" width="94.7527" height="20.0117" rx="10.0058" fill="#2E075F"/>
<rect x="222.929" y="20.4294" width="94.7527" height="20.0117" rx="10.0058" stroke="#944AF2" stroke-width="0.858811"/>
<path d="M236.51 34.4355H233.521V25.9512H236.545C239.1 25.9512 240.664 27.5391 240.658 30.1816C240.664 32.8359 239.1 34.4355 236.51 34.4355ZM235.279 32.9238H236.439C238.057 32.9238 238.9 32.0859 238.9 30.1816C238.9 28.2949 238.057 27.4629 236.451 27.4629H235.279V32.9238ZM241.596 32.6543C241.602 31.2363 242.738 30.7734 243.963 30.6973C244.42 30.668 245.275 30.627 245.545 30.6152V30.0996C245.539 29.5664 245.176 29.2617 244.525 29.2559C243.934 29.2617 243.564 29.5254 243.471 29.959H241.818C241.924 28.8574 242.885 27.9902 244.572 27.9902C245.961 27.9902 247.273 28.6113 247.268 30.1465V34.4355H245.627V33.5566H245.58C245.27 34.1426 244.66 34.5586 243.717 34.5527C242.498 34.5586 241.602 33.9141 241.596 32.6543ZM243.26 32.6074C243.26 33.0938 243.652 33.3516 244.209 33.3574C245 33.3516 245.551 32.8359 245.545 32.1621V31.6992C245.281 31.7109 244.537 31.752 244.244 31.7754C243.641 31.8281 243.26 32.1152 243.26 32.6074ZM251.943 28.0723V29.373H250.748V32.4785C250.742 32.9883 250.994 33.1113 251.346 33.123C251.521 33.123 251.826 33.1055 252.037 33.0879V34.459C251.85 34.4883 251.539 34.5234 251.111 34.5176C249.857 34.5234 249.002 33.9609 249.014 32.7246V29.373H248.135V28.0723H249.014V26.5488H250.748V28.0723H251.943ZM252.729 32.6543C252.734 31.2363 253.871 30.7734 255.096 30.6973C255.553 30.668 256.408 30.627 256.678 30.6152V30.0996C256.672 29.5664 256.309 29.2617 255.658 29.2559C255.066 29.2617 254.697 29.5254 254.604 29.959H252.951C253.057 28.8574 254.018 27.9902 255.705 27.9902C257.094 27.9902 258.406 28.6113 258.4 30.1465V34.4355H256.76V33.5566H256.713C256.402 34.1426 255.793 34.5586 254.85 34.5527C253.631 34.5586 252.734 33.9141 252.729 32.6543ZM254.393 32.6074C254.393 33.0938 254.785 33.3516 255.342 33.3574C256.133 33.3516 256.684 32.8359 256.678 32.1621V31.6992C256.414 31.7109 255.67 31.752 255.377 31.7754C254.773 31.8281 254.393 32.1152 254.393 32.6074ZM267.131 28.377C267.061 27.7031 266.527 27.3105 265.666 27.3105C264.775 27.3105 264.277 27.7207 264.271 28.2832C264.266 28.8984 264.898 29.1738 265.631 29.3379L266.393 29.5254C267.846 29.8594 268.93 30.5977 268.936 32.0098C268.93 33.5625 267.723 34.5586 265.654 34.5527C263.604 34.5586 262.297 33.6094 262.244 31.7871H263.955C264.014 32.6426 264.693 33.0762 265.631 33.0762C266.557 33.0762 267.154 32.6426 267.154 32.0098C267.154 31.4297 266.627 31.1602 265.701 30.9316L264.775 30.709C263.346 30.3574 262.467 29.6426 262.467 28.4004C262.461 26.8594 263.82 25.834 265.678 25.834C267.559 25.834 268.795 26.877 268.818 28.377H267.131ZM272.908 34.5645C270.957 34.5586 269.785 33.2109 269.791 31.2715C269.785 29.3262 270.98 27.9902 272.908 27.9902C274.549 27.9902 275.662 28.9453 275.732 30.4043H274.104C273.998 29.7773 273.588 29.3438 272.932 29.3379C272.1 29.3438 271.549 30.041 271.549 31.248C271.549 32.4785 272.088 33.1816 272.932 33.1816C273.541 33.1816 273.992 32.8008 274.104 32.127H275.732C275.656 33.5684 274.596 34.5586 272.908 34.5645ZM276.811 34.4355V28.0723H278.545V34.4355H276.811ZM276.729 26.3613C276.729 25.8691 277.156 25.4766 277.678 25.4707C278.193 25.4766 278.621 25.8691 278.615 26.3613C278.621 26.8418 278.193 27.2402 277.678 27.2402C277.156 27.2402 276.729 26.8418 276.729 26.3613ZM282.775 34.5645C280.824 34.5586 279.629 33.2988 279.635 31.2832C279.629 29.3203 280.842 27.9902 282.705 27.9902C284.375 27.9902 285.693 29.0449 285.693 31.2129V31.7051H281.346C281.346 32.666 281.914 33.2578 282.811 33.2637C283.402 33.2578 283.824 33 283.994 32.6191H285.646C285.4 33.7969 284.346 34.5586 282.775 34.5645ZM281.346 30.6152H284.053C284.047 29.8418 283.514 29.2852 282.74 29.291C281.943 29.2852 281.381 29.8828 281.346 30.6152ZM288.518 30.7559V34.4355H286.783V28.0723H288.436V29.1855H288.506C288.793 28.4531 289.473 27.9902 290.416 27.9902C291.746 27.9902 292.613 28.8984 292.607 30.3809V34.4355H290.885V30.6855C290.879 29.9004 290.457 29.4316 289.736 29.4316C289.016 29.4316 288.518 29.918 288.518 30.7559ZM297.307 28.0723V29.373H296.111V32.4785C296.105 32.9883 296.357 33.1113 296.709 33.123C296.885 33.123 297.189 33.1055 297.4 33.0879V34.459C297.213 34.4883 296.902 34.5234 296.475 34.5176C295.221 34.5234 294.365 33.9609 294.377 32.7246V29.373H293.498V28.0723H294.377V26.5488H296.111V28.0723H297.307ZM298.396 34.4355V28.0723H300.131V34.4355H298.396ZM298.314 26.3613C298.314 25.8691 298.742 25.4766 299.264 25.4707C299.779 25.4766 300.207 25.8691 300.201 26.3613C300.207 26.8418 299.779 27.2402 299.264 27.2402C298.742 27.2402 298.314 26.8418 298.314 26.3613ZM305.111 29.959C305.035 29.5137 304.648 29.2266 304.068 29.2207C303.506 29.2266 303.078 29.4902 303.084 29.877C303.078 30.1641 303.301 30.3867 303.904 30.5098L305.041 30.7441C306.277 31.002 306.875 31.5527 306.881 32.4668C306.875 33.7207 305.75 34.5586 304.057 34.5645C302.34 34.5586 301.332 33.791 301.186 32.5488H302.932C303.014 33.0469 303.418 33.3047 304.057 33.3105C304.689 33.3047 305.111 33.0527 305.111 32.6426C305.111 32.3145 304.842 32.1094 304.244 31.9863L303.189 31.7754C301.977 31.5352 301.355 30.9141 301.361 29.9707C301.355 28.752 302.404 27.9902 304.045 27.9902C305.65 27.9902 306.646 28.752 306.74 29.959H305.111Z" fill="#ECECF8"/>
<path d="M223.93 75.8701V58.9014H230.586C234.441 58.9014 236.656 61.0693 236.656 64.4326C236.656 66.7529 235.59 68.4404 233.656 69.2725L237.266 75.8701H233.375L230.129 69.8467H227.445V75.8701H223.93ZM227.445 66.9873H229.93C232.016 66.9873 233.035 66.1318 233.023 64.4326C233.035 62.7217 232.016 61.7959 229.93 61.7842H227.445V66.9873ZM239.023 75.8701V63.1436H242.492V75.8701H239.023ZM238.859 59.7217C238.859 58.7373 239.715 57.9521 240.758 57.9404C241.789 57.9521 242.645 58.7373 242.633 59.7217C242.645 60.6826 241.789 61.4795 240.758 61.4795C239.715 61.4795 238.859 60.6826 238.859 59.7217ZM244.578 72.3076C244.59 69.4717 246.863 68.5459 249.312 68.3936C250.227 68.335 251.938 68.2529 252.477 68.2295V67.1982C252.465 66.1318 251.738 65.5225 250.438 65.5107C249.254 65.5225 248.516 66.0498 248.328 66.917H245.023C245.234 64.7139 247.156 62.9795 250.531 62.9795C253.309 62.9795 255.934 64.2217 255.922 67.292V75.8701H252.641V74.1123H252.547C251.926 75.2842 250.707 76.1162 248.82 76.1045C246.383 76.1162 244.59 74.8271 244.578 72.3076ZM247.906 72.2139C247.906 73.1865 248.691 73.7021 249.805 73.7139C251.387 73.7021 252.488 72.6709 252.477 71.3232V70.3975C251.949 70.4209 250.461 70.5029 249.875 70.5498C248.668 70.6553 247.906 71.2295 247.906 72.2139Z" fill="#ECECF8"/>
<path d="M225.984 108.87L222.75 97.5576H225.312L227.219 105.464H227.312L229.391 97.5576H231.594L233.672 105.479H233.766L235.672 97.5576H238.234L235 108.87H232.703L230.547 101.401H230.453L228.281 108.87H225.984ZM241.703 103.964V108.87H239.391V97.5576H241.641V101.87H241.734C242.125 100.878 242.977 100.276 244.266 100.276C246.039 100.276 247.203 101.472 247.203 103.464V108.87H244.891V103.87C244.891 102.815 244.328 102.198 243.359 102.198C242.383 102.198 241.703 102.847 241.703 103.964ZM248.578 106.495C248.586 104.604 250.102 103.987 251.734 103.886C252.344 103.847 253.484 103.792 253.844 103.776V103.089C253.836 102.378 253.352 101.972 252.484 101.964C251.695 101.972 251.203 102.323 251.078 102.901H248.875C249.016 101.433 250.297 100.276 252.547 100.276C254.398 100.276 256.148 101.104 256.141 103.151V108.87H253.953V107.698H253.891C253.477 108.479 252.664 109.034 251.406 109.026C249.781 109.034 248.586 108.175 248.578 106.495ZM250.797 106.433C250.797 107.081 251.32 107.425 252.062 107.433C253.117 107.425 253.852 106.737 253.844 105.839V105.222C253.492 105.237 252.5 105.292 252.109 105.323C251.305 105.394 250.797 105.776 250.797 106.433ZM262.375 100.386V102.12H260.781V106.261C260.773 106.94 261.109 107.104 261.578 107.12C261.812 107.12 262.219 107.097 262.5 107.073V108.901C262.25 108.94 261.836 108.987 261.266 108.979C259.594 108.987 258.453 108.237 258.469 106.589V102.12H257.297V100.386H258.469V98.3545H260.781V100.386H262.375ZM268.875 112.058C268.422 112.05 268 112.042 267.703 112.011V110.214C268 110.237 268.352 110.245 268.641 110.245C269.102 110.245 269.469 110.198 269.75 109.464L269.891 109.104L266.844 100.386H269.266L271.047 106.636H271.141L272.938 100.386H275.391L272.078 109.808C271.594 111.175 270.664 112.05 268.875 112.058ZM280.047 109.042C277.484 109.034 275.883 107.276 275.891 104.651C275.883 102.034 277.484 100.276 280.047 100.276C282.617 100.276 284.211 102.034 284.219 104.651C284.211 107.276 282.617 109.034 280.047 109.042ZM278.234 104.651C278.234 106.136 278.852 107.237 280.062 107.245C281.242 107.237 281.867 106.136 281.859 104.651C281.867 103.159 281.242 102.042 280.062 102.042C278.852 102.042 278.234 103.159 278.234 104.651ZM291.109 105.261V100.386H293.422V108.87H291.203V107.339H291.109C290.727 108.323 289.812 108.979 288.531 108.979C286.836 108.979 285.672 107.776 285.672 105.792V100.386H287.984V105.386C287.984 106.394 288.562 107.019 289.469 107.026C290.312 107.019 291.109 106.417 291.109 105.261ZM300.578 108.87L298.266 100.386H300.609L301.938 106.12H302.016L303.406 100.386H305.703L307.109 106.089H307.188L308.5 100.386H310.844L308.516 108.87H306.078L304.609 103.479H304.5L303.031 108.87H300.578ZM311.609 106.495C311.617 104.604 313.133 103.987 314.766 103.886C315.375 103.847 316.516 103.792 316.875 103.776V103.089C316.867 102.378 316.383 101.972 315.516 101.964C314.727 101.972 314.234 102.323 314.109 102.901H311.906C312.047 101.433 313.328 100.276 315.578 100.276C317.43 100.276 319.18 101.104 319.172 103.151V108.87H316.984V107.698H316.922C316.508 108.479 315.695 109.034 314.438 109.026C312.812 109.034 311.617 108.175 311.609 106.495ZM313.828 106.433C313.828 107.081 314.352 107.425 315.094 107.433C316.148 107.425 316.883 106.737 316.875 105.839V105.222C316.523 105.237 315.531 105.292 315.141 105.323C314.336 105.394 313.828 105.776 313.828 106.433ZM323.25 103.964V108.87H320.938V100.386H323.141V101.87H323.234C323.617 100.894 324.523 100.276 325.781 100.276C327.555 100.276 328.711 101.487 328.703 103.464V108.87H326.406V103.87C326.398 102.823 325.836 102.198 324.875 102.198C323.914 102.198 323.25 102.847 323.25 103.964ZM334.969 100.386V102.12H333.375V106.261C333.367 106.94 333.703 107.104 334.172 107.12C334.406 107.12 334.812 107.097 335.094 107.073V108.901C334.844 108.94 334.43 108.987 333.859 108.979C332.188 108.987 331.047 108.237 331.062 106.589V102.12H329.891V100.386H331.062V98.3545H333.375V100.386H334.969Z" fill="#ECECF8" fill-opacity="0.5"/>
<path d="M225.016 119.789V129.688H223.512V119.789H225.016ZM231.92 129.688L229.746 122.264H231.25L232.699 127.705H232.781L234.23 122.264H235.734L237.17 127.678H237.252L238.688 122.264H240.191L238.018 129.688H236.527L235.023 124.342H234.914L233.424 129.688H231.92ZM241.053 127.596C241.046 125.9 242.488 125.463 243.828 125.367C244.32 125.34 245.435 125.278 245.776 125.265L245.77 124.67C245.776 123.829 245.257 123.344 244.266 123.344C243.404 123.344 242.885 123.74 242.734 124.287H241.285C241.415 123.057 242.563 122.168 244.32 122.168C245.503 122.168 247.226 122.599 247.232 124.752V129.688H245.811V128.676H245.756C245.469 129.229 244.785 129.852 243.555 129.852C242.146 129.852 241.046 129.045 241.053 127.596ZM242.475 127.609C242.475 128.32 243.062 128.683 243.883 128.689C245.072 128.683 245.783 127.89 245.783 127.008L245.776 126.331C245.441 126.352 244.382 126.427 244.033 126.447C243.076 126.516 242.475 126.878 242.475 127.609ZM250.459 125.285V129.688H248.996V122.264H250.404V123.48H250.486C250.835 122.681 251.566 122.168 252.674 122.168C254.198 122.168 255.21 123.132 255.203 124.971V129.688H253.754V125.148C253.747 124.068 253.166 123.426 252.182 123.426C251.177 123.426 250.459 124.103 250.459 125.285ZM260.453 122.264V123.426H258.936V127.5C258.942 128.341 259.353 128.491 259.824 128.498C260.036 128.498 260.357 128.478 260.562 128.457V129.729C260.364 129.756 260.05 129.783 259.646 129.783C258.505 129.783 257.473 129.154 257.486 127.801V123.426H256.393V122.264H257.486V120.486H258.936V122.264H260.453ZM268.766 122.264V123.426H267.248V127.5C267.255 128.341 267.665 128.491 268.137 128.498C268.349 128.498 268.67 128.478 268.875 128.457V129.729C268.677 129.756 268.362 129.783 267.959 129.783C266.817 129.783 265.785 129.154 265.799 127.801V123.426H264.705V122.264H265.799V120.486H267.248V122.264H268.766ZM273.25 129.838C271.145 129.838 269.771 128.307 269.777 126.01C269.771 123.699 271.145 122.168 273.25 122.168C275.342 122.168 276.709 123.699 276.709 126.01C276.709 128.307 275.342 129.838 273.25 129.838ZM271.24 126.01C271.24 127.425 271.89 128.621 273.25 128.621C274.59 128.621 275.232 127.425 275.232 126.01C275.232 124.588 274.59 123.378 273.25 123.371C271.89 123.378 271.24 124.588 271.24 126.01ZM281.221 127.596C281.214 125.9 282.656 125.463 283.996 125.367C284.488 125.34 285.603 125.278 285.944 125.265L285.938 124.67C285.944 123.829 285.425 123.344 284.434 123.344C283.572 123.344 283.053 123.74 282.902 124.287H281.453C281.583 123.057 282.731 122.168 284.488 122.168C285.671 122.168 287.394 122.599 287.4 124.752V129.688H285.979V128.676H285.924C285.637 129.229 284.953 129.852 283.723 129.852C282.314 129.852 281.214 129.045 281.221 127.596ZM282.643 127.609C282.643 128.32 283.23 128.683 284.051 128.689C285.24 128.683 285.951 127.89 285.951 127.008L285.944 126.331C285.609 126.352 284.55 126.427 284.201 126.447C283.244 126.516 282.643 126.878 282.643 127.609ZM290.627 125.285V129.688H289.164V122.264H290.572V123.48H290.654C291.003 122.681 291.734 122.168 292.842 122.168C294.366 122.168 295.378 123.132 295.371 124.971V129.688H293.922V125.148C293.915 124.068 293.334 123.426 292.35 123.426C291.345 123.426 290.627 124.103 290.627 125.285ZM296.807 127.596C296.8 125.9 298.242 125.463 299.582 125.367C300.074 125.34 301.188 125.278 301.53 125.265L301.523 124.67C301.53 123.829 301.011 123.344 300.02 123.344C299.158 123.344 298.639 123.74 298.488 124.287H297.039C297.169 123.057 298.317 122.168 300.074 122.168C301.257 122.168 302.979 122.599 302.986 124.752V129.688H301.564V128.676H301.51C301.223 129.229 300.539 129.852 299.309 129.852C297.9 129.852 296.8 129.045 296.807 127.596ZM298.229 127.609C298.229 128.32 298.816 128.683 299.637 128.689C300.826 128.683 301.537 127.89 301.537 127.008L301.53 126.331C301.195 126.352 300.136 126.427 299.787 126.447C298.83 126.516 298.229 126.878 298.229 127.609ZM306.213 119.789V129.688H304.75V119.789H306.213ZM308.893 132.477C308.592 132.47 308.298 132.463 308.113 132.436V131.219C308.277 131.232 308.564 131.239 308.77 131.246C309.221 131.239 309.597 131.212 309.945 130.275L310.123 129.783L307.402 122.264H308.961L310.834 128.02H310.916L312.789 122.264H314.361L311.299 130.672C310.868 131.848 310.116 132.47 308.893 132.477ZM315.387 129.688V128.689L319.406 123.59V123.521H315.523V122.264H321.225V123.316L317.369 128.361V128.43H321.361V129.688H315.387ZM325.873 129.838C323.686 129.838 322.339 128.327 322.346 126.023C322.339 123.74 323.706 122.168 325.777 122.168C327.466 122.168 329.072 123.214 329.072 125.9V126.42H323.795C323.836 127.835 324.67 128.635 325.887 128.635C326.714 128.635 327.254 128.279 327.5 127.828H328.977C328.648 129.031 327.507 129.838 325.873 129.838ZM323.802 125.326H327.637C327.637 124.198 326.905 123.364 325.791 123.371C324.622 123.364 323.863 124.28 323.802 125.326ZM336.715 129.838C334.924 129.831 333.611 128.389 333.611 125.996C333.611 123.576 334.944 122.168 336.729 122.168C338.109 122.168 338.608 123.002 338.875 123.467H338.943V119.789H340.406V129.688H338.984V128.525H338.875C338.602 129.011 338.068 129.831 336.715 129.838ZM335.102 125.969C335.095 127.459 335.765 128.587 337.043 128.594C338.287 128.587 338.984 127.527 338.984 125.969C338.984 124.424 338.301 123.405 337.043 123.412C335.751 123.405 335.095 124.506 335.102 125.969ZM341.965 127.596C341.958 125.9 343.4 125.463 344.74 125.367C345.232 125.34 346.347 125.278 346.688 125.265L346.682 124.67C346.688 123.829 346.169 123.344 345.178 123.344C344.316 123.344 343.797 123.74 343.646 124.287H342.197C342.327 123.057 343.476 122.168 345.232 122.168C346.415 122.168 348.138 122.599 348.145 124.752V129.688H346.723V128.676H346.668C346.381 129.229 345.697 129.852 344.467 129.852C343.059 129.852 341.958 129.045 341.965 127.596ZM343.387 127.609C343.387 128.32 343.975 128.683 344.795 128.689C345.984 128.683 346.695 127.89 346.695 127.008L346.688 126.331C346.354 126.352 345.294 126.427 344.945 126.447C343.988 126.516 343.387 126.878 343.387 127.609ZM353.381 122.264V123.426H351.863V127.5C351.87 128.341 352.28 128.491 352.752 128.498C352.964 128.498 353.285 128.478 353.49 128.457V129.729C353.292 129.756 352.978 129.783 352.574 129.783C351.433 129.783 350.4 129.154 350.414 127.801V123.426H349.32V122.264H350.414V120.486H351.863V122.264H353.381ZM354.461 127.596C354.454 125.9 355.896 125.463 357.236 125.367C357.729 125.34 358.843 125.278 359.185 125.265L359.178 124.67C359.185 123.829 358.665 123.344 357.674 123.344C356.812 123.344 356.293 123.74 356.143 124.287H354.693C354.823 123.057 355.972 122.168 357.729 122.168C358.911 122.168 360.634 122.599 360.641 124.752V129.688H359.219V128.676H359.164C358.877 129.229 358.193 129.852 356.963 129.852C355.555 129.852 354.454 129.045 354.461 127.596ZM355.883 127.609C355.883 128.32 356.471 128.683 357.291 128.689C358.48 128.683 359.191 127.89 359.191 127.008L359.185 126.331C358.85 126.352 357.79 126.427 357.441 126.447C356.484 126.516 355.883 126.878 355.883 127.609ZM223.047 145.596C223.04 143.9 224.482 143.463 225.822 143.367C226.314 143.34 227.429 143.278 227.771 143.265L227.764 142.67C227.771 141.829 227.251 141.344 226.26 141.344C225.398 141.344 224.879 141.74 224.729 142.287H223.279C223.409 141.057 224.558 140.168 226.314 140.168C227.497 140.168 229.22 140.599 229.227 142.752V147.688H227.805V146.676H227.75C227.463 147.229 226.779 147.852 225.549 147.852C224.141 147.852 223.04 147.045 223.047 145.596ZM224.469 145.609C224.469 146.32 225.057 146.683 225.877 146.689C227.066 146.683 227.777 145.89 227.777 145.008L227.771 144.331C227.436 144.352 226.376 144.427 226.027 144.447C225.07 144.516 224.469 144.878 224.469 145.609ZM232.453 143.285V147.688H230.99V140.264H232.398V141.48H232.48C232.829 140.681 233.561 140.168 234.668 140.168C236.192 140.168 237.204 141.132 237.197 142.971V147.688H235.748V143.148C235.741 142.068 235.16 141.426 234.176 141.426C233.171 141.426 232.453 142.103 232.453 143.285ZM241.75 147.838C239.959 147.831 238.646 146.389 238.646 143.996C238.646 141.576 239.979 140.168 241.764 140.168C243.145 140.168 243.644 141.002 243.91 141.467H243.979V137.789H245.441V147.688H244.02V146.525H243.91C243.637 147.011 243.104 147.831 241.75 147.838ZM240.137 143.969C240.13 145.459 240.8 146.587 242.078 146.594C243.322 146.587 244.02 145.527 244.02 143.969C244.02 142.424 243.336 141.405 242.078 141.412C240.786 141.405 240.13 142.506 240.137 143.969ZM253.904 147.838C251.737 147.838 250.425 146.245 250.432 144.01C250.425 141.747 251.785 140.168 253.877 140.168C255.572 140.168 256.796 141.166 256.953 142.67H255.531C255.381 141.973 254.827 141.392 253.904 141.385C252.701 141.392 251.895 142.39 251.895 143.969C251.895 145.596 252.681 146.601 253.904 146.594C254.731 146.601 255.347 146.136 255.531 145.336H256.953C256.796 146.778 255.654 147.838 253.904 147.838ZM258.334 147.688V140.264H259.742V141.439H259.824C260.098 140.646 260.843 140.147 261.711 140.154C261.889 140.147 262.176 140.168 262.326 140.182V141.576C262.203 141.549 261.861 141.487 261.561 141.494C260.549 141.487 259.797 142.191 259.797 143.162V147.688H258.334ZM266.373 147.838C264.186 147.838 262.839 146.327 262.846 144.023C262.839 141.74 264.206 140.168 266.277 140.168C267.966 140.168 269.572 141.214 269.572 143.9V144.42H264.295C264.336 145.835 265.17 146.635 266.387 146.635C267.214 146.635 267.754 146.279 268 145.828H269.477C269.148 147.031 268.007 147.838 266.373 147.838ZM264.302 143.326H268.137C268.137 142.198 267.405 141.364 266.291 141.371C265.122 141.364 264.363 142.28 264.302 143.326ZM270.68 145.596C270.673 143.9 272.115 143.463 273.455 143.367C273.947 143.34 275.062 143.278 275.403 143.265L275.396 142.67C275.403 141.829 274.884 141.344 273.893 141.344C273.031 141.344 272.512 141.74 272.361 142.287H270.912C271.042 141.057 272.19 140.168 273.947 140.168C275.13 140.168 276.853 140.599 276.859 142.752V147.688H275.438V146.676H275.383C275.096 147.229 274.412 147.852 273.182 147.852C271.773 147.852 270.673 147.045 270.68 145.596ZM272.102 145.609C272.102 146.32 272.689 146.683 273.51 146.689C274.699 146.683 275.41 145.89 275.41 145.008L275.403 144.331C275.068 144.352 274.009 144.427 273.66 144.447C272.703 144.516 272.102 144.878 272.102 145.609ZM282.096 140.264V141.426H280.578V145.5C280.585 146.341 280.995 146.491 281.467 146.498C281.679 146.498 282 146.478 282.205 146.457V147.729C282.007 147.756 281.692 147.783 281.289 147.783C280.147 147.783 279.115 147.154 279.129 145.801V141.426H278.035V140.264H279.129V138.486H280.578V140.264H282.096ZM286.635 147.838C284.447 147.838 283.101 146.327 283.107 144.023C283.101 141.74 284.468 140.168 286.539 140.168C288.228 140.168 289.834 141.214 289.834 143.9V144.42H284.557C284.598 145.835 285.432 146.635 286.648 146.635C287.476 146.635 288.016 146.279 288.262 145.828H289.738C289.41 147.031 288.269 147.838 286.635 147.838ZM284.563 143.326H288.398C288.398 142.198 287.667 141.364 286.553 141.371C285.384 141.364 284.625 142.28 284.563 143.326ZM294.359 145.596C294.353 143.9 295.795 143.463 297.135 143.367C297.627 143.34 298.741 143.278 299.083 143.265L299.076 142.67C299.083 141.829 298.563 141.344 297.572 141.344C296.711 141.344 296.191 141.74 296.041 142.287H294.592C294.722 141.057 295.87 140.168 297.627 140.168C298.81 140.168 300.532 140.599 300.539 142.752V147.688H299.117V146.676H299.062C298.775 147.229 298.092 147.852 296.861 147.852C295.453 147.852 294.353 147.045 294.359 145.596ZM295.781 145.609C295.781 146.32 296.369 146.683 297.189 146.689C298.379 146.683 299.09 145.89 299.09 145.008L299.083 144.331C298.748 144.352 297.688 144.427 297.34 144.447C296.383 144.516 295.781 144.878 295.781 145.609ZM305.721 147.688V140.264H307.129V141.48H307.211C307.525 140.653 308.257 140.168 309.234 140.168C310.226 140.168 310.916 140.653 311.23 141.48H311.312C311.661 140.681 312.468 140.168 313.541 140.168C314.881 140.168 315.831 141.009 315.838 142.711V147.688H314.375V142.848C314.375 141.843 313.746 141.426 312.98 141.426C312.044 141.426 311.504 142.068 311.504 142.957V147.688H310.055V142.766C310.055 141.952 309.501 141.426 308.701 141.426C307.881 141.426 307.184 142.109 307.184 143.107V147.688H305.721ZM320.746 147.838C318.641 147.838 317.267 146.307 317.273 144.01C317.267 141.699 318.641 140.168 320.746 140.168C322.838 140.168 324.205 141.699 324.205 144.01C324.205 146.307 322.838 147.838 320.746 147.838ZM318.736 144.01C318.736 145.425 319.386 146.621 320.746 146.621C322.086 146.621 322.729 145.425 322.729 144.01C322.729 142.588 322.086 141.378 320.746 141.371C319.386 141.378 318.736 142.588 318.736 144.01ZM328.416 147.838C326.625 147.831 325.312 146.389 325.312 143.996C325.312 141.576 326.646 140.168 328.43 140.168C329.811 140.168 330.31 141.002 330.576 141.467H330.645V137.789H332.107V147.688H330.686V146.525H330.576C330.303 147.011 329.77 147.831 328.416 147.838ZM326.803 143.969C326.796 145.459 327.466 146.587 328.744 146.594C329.988 146.587 330.686 145.527 330.686 143.969C330.686 142.424 330.002 141.405 328.744 141.412C327.452 141.405 326.796 142.506 326.803 143.969ZM337.207 147.838C335.02 147.838 333.673 146.327 333.68 144.023C333.673 141.74 335.04 140.168 337.111 140.168C338.8 140.168 340.406 141.214 340.406 143.9V144.42H335.129C335.17 145.835 336.004 146.635 337.221 146.635C338.048 146.635 338.588 146.279 338.834 145.828H340.311C339.982 147.031 338.841 147.838 337.207 147.838ZM335.136 143.326H338.971C338.971 142.198 338.239 141.364 337.125 141.371C335.956 141.364 335.197 142.28 335.136 143.326ZM343.318 137.789V147.688H341.855V137.789H343.318ZM346.859 146.744L345.766 150.518H344.604L345.328 146.744H346.859ZM351.754 145.596C351.747 143.9 353.189 143.463 354.529 143.367C355.021 143.34 356.136 143.278 356.478 143.265L356.471 142.67C356.478 141.829 355.958 141.344 354.967 141.344C354.105 141.344 353.586 141.74 353.436 142.287H351.986C352.116 141.057 353.265 140.168 355.021 140.168C356.204 140.168 357.927 140.599 357.934 142.752V147.688H356.512V146.676H356.457C356.17 147.229 355.486 147.852 354.256 147.852C352.848 147.852 351.747 147.045 351.754 145.596ZM353.176 145.609C353.176 146.32 353.764 146.683 354.584 146.689C355.773 146.683 356.484 145.89 356.484 145.008L356.478 144.331C356.143 144.352 355.083 144.427 354.734 144.447C353.777 144.516 353.176 144.878 353.176 145.609ZM361.16 143.285V147.688H359.697V140.264H361.105V141.48H361.188C361.536 140.681 362.268 140.168 363.375 140.168C364.899 140.168 365.911 141.132 365.904 142.971V147.688H364.455V143.148C364.448 142.068 363.867 141.426 362.883 141.426C361.878 141.426 361.16 142.103 361.16 143.285ZM370.457 147.838C368.666 147.831 367.354 146.389 367.354 143.996C367.354 141.576 368.687 140.168 370.471 140.168C371.852 140.168 372.351 141.002 372.617 141.467H372.686V137.789H374.148V147.688H372.727V146.525H372.617C372.344 147.011 371.811 147.831 370.457 147.838ZM368.844 143.969C368.837 145.459 369.507 146.587 370.785 146.594C372.029 146.587 372.727 145.527 372.727 143.969C372.727 142.424 372.043 141.405 370.785 141.412C369.493 141.405 368.837 142.506 368.844 143.969ZM226.164 165.838C224.373 165.831 223.061 164.389 223.061 161.996C223.061 159.576 224.394 158.168 226.178 158.168C227.559 158.168 228.058 159.002 228.324 159.467H228.393V155.789H229.855V165.688H228.434V164.525H228.324C228.051 165.011 227.518 165.831 226.164 165.838ZM224.551 161.969C224.544 163.459 225.214 164.587 226.492 164.594C227.736 164.587 228.434 163.527 228.434 161.969C228.434 160.424 227.75 159.405 226.492 159.412C225.2 159.405 224.544 160.506 224.551 161.969ZM231.756 165.688V158.264H233.219V165.688H231.756ZM231.564 156.254C231.571 155.775 231.988 155.393 232.494 155.393C232.993 155.393 233.41 155.775 233.41 156.254C233.41 156.732 232.993 157.122 232.494 157.115C231.988 157.122 231.571 156.732 231.564 156.254ZM239.166 160.287C239.029 159.699 238.564 159.316 237.758 159.316C236.924 159.316 236.329 159.747 236.336 160.314C236.329 160.752 236.678 161.066 237.498 161.258L238.674 161.531C240.041 161.839 240.704 162.488 240.711 163.541C240.704 164.881 239.569 165.838 237.676 165.838C235.892 165.838 234.839 165.045 234.654 163.664H236.145C236.274 164.334 236.78 164.669 237.662 164.662C238.605 164.669 239.214 164.272 239.221 163.65C239.214 163.172 238.858 162.864 238.072 162.68L236.91 162.434C235.57 162.14 234.873 161.422 234.873 160.396C234.873 159.077 236.021 158.168 237.744 158.168C239.398 158.168 240.431 159.009 240.574 160.287H239.166ZM245.605 158.264V159.426H244.088V163.5C244.095 164.341 244.505 164.491 244.977 164.498C245.188 164.498 245.51 164.478 245.715 164.457V165.729C245.517 165.756 245.202 165.783 244.799 165.783C243.657 165.783 242.625 165.154 242.639 163.801V159.426H241.545V158.264H242.639V156.486H244.088V158.264H245.605ZM247.027 165.688V158.264H248.436V159.439H248.518C248.791 158.646 249.536 158.147 250.404 158.154C250.582 158.147 250.869 158.168 251.02 158.182V159.576C250.896 159.549 250.555 159.487 250.254 159.494C249.242 159.487 248.49 160.191 248.49 161.162V165.688H247.027ZM252.113 165.688V158.264H253.576V165.688H252.113ZM251.922 156.254C251.929 155.775 252.346 155.393 252.852 155.393C253.351 155.393 253.768 155.775 253.768 156.254C253.768 156.732 253.351 157.122 252.852 157.115C252.346 157.122 251.929 156.732 251.922 156.254ZM255.477 165.688V155.789H256.926V159.467H257.008C257.274 159.002 257.767 158.168 259.141 158.168C260.938 158.168 262.265 159.576 262.271 161.996C262.265 164.389 260.952 165.831 259.154 165.838C257.808 165.831 257.281 165.011 257.008 164.525H256.898V165.688H255.477ZM256.898 161.969C256.898 163.527 257.596 164.587 258.826 164.594C260.111 164.587 260.781 163.459 260.781 161.969C260.781 160.506 260.132 159.405 258.826 159.412C257.575 159.405 256.898 160.424 256.898 161.969ZM268.438 162.598V158.264H269.887V165.688H268.465V164.402H268.383C268.041 165.195 267.282 165.783 266.168 165.783C264.732 165.783 263.721 164.819 263.721 162.98V158.264H265.184V162.803C265.184 163.814 265.799 164.457 266.688 164.457C267.501 164.457 268.438 163.862 268.438 162.598ZM275.137 158.264V159.426H273.619V163.5C273.626 164.341 274.036 164.491 274.508 164.498C274.72 164.498 275.041 164.478 275.246 164.457V165.729C275.048 165.756 274.733 165.783 274.33 165.783C273.188 165.783 272.156 165.154 272.17 163.801V159.426H271.076V158.264H272.17V156.486H273.619V158.264H275.137ZM279.676 165.838C277.488 165.838 276.142 164.327 276.148 162.023C276.142 159.74 277.509 158.168 279.58 158.168C281.269 158.168 282.875 159.214 282.875 161.9V162.42H277.598C277.639 163.835 278.473 164.635 279.689 164.635C280.517 164.635 281.057 164.279 281.303 163.828H282.779C282.451 165.031 281.31 165.838 279.676 165.838ZM277.604 161.326H281.439C281.439 160.198 280.708 159.364 279.594 159.371C278.425 159.364 277.666 160.28 277.604 161.326ZM287.4 163.596C287.394 161.9 288.836 161.463 290.176 161.367C290.668 161.34 291.782 161.278 292.124 161.265L292.117 160.67C292.124 159.829 291.604 159.344 290.613 159.344C289.752 159.344 289.232 159.74 289.082 160.287H287.633C287.763 159.057 288.911 158.168 290.668 158.168C291.851 158.168 293.573 158.599 293.58 160.752V165.688H292.158V164.676H292.104C291.816 165.229 291.133 165.852 289.902 165.852C288.494 165.852 287.394 165.045 287.4 163.596ZM288.822 163.609C288.822 164.32 289.41 164.683 290.23 164.689C291.42 164.683 292.131 163.89 292.131 163.008L292.124 162.331C291.789 162.352 290.729 162.427 290.381 162.447C289.424 162.516 288.822 162.878 288.822 163.609ZM296.807 161.285V165.688H295.344V158.264H296.752V159.48H296.834C297.183 158.681 297.914 158.168 299.021 158.168C300.546 158.168 301.558 159.132 301.551 160.971V165.688H300.102V161.148C300.095 160.068 299.514 159.426 298.529 159.426C297.524 159.426 296.807 160.103 296.807 161.285ZM306.104 165.838C304.312 165.831 303 164.389 303 161.996C303 159.576 304.333 158.168 306.117 158.168C307.498 158.168 307.997 159.002 308.264 159.467H308.332V155.789H309.795V165.688H308.373V164.525H308.264C307.99 165.011 307.457 165.831 306.104 165.838ZM304.49 161.969C304.483 163.459 305.153 164.587 306.432 164.594C307.676 164.587 308.373 163.527 308.373 161.969C308.373 160.424 307.689 159.405 306.432 159.412C305.14 159.405 304.483 160.506 304.49 161.969ZM319.283 160.287C319.146 159.699 318.682 159.316 317.875 159.316C317.041 159.316 316.446 159.747 316.453 160.314C316.446 160.752 316.795 161.066 317.615 161.258L318.791 161.531C320.158 161.839 320.821 162.488 320.828 163.541C320.821 164.881 319.687 165.838 317.793 165.838C316.009 165.838 314.956 165.045 314.771 163.664H316.262C316.392 164.334 316.897 164.669 317.779 164.662C318.723 164.669 319.331 164.272 319.338 163.65C319.331 163.172 318.976 162.864 318.189 162.68L317.027 162.434C315.688 162.14 314.99 161.422 314.99 160.396C314.99 159.077 316.139 158.168 317.861 158.168C319.516 158.168 320.548 159.009 320.691 160.287H319.283ZM325.449 165.838C323.262 165.838 321.915 164.327 321.922 162.023C321.915 159.74 323.282 158.168 325.354 158.168C327.042 158.168 328.648 159.214 328.648 161.9V162.42H323.371C323.412 163.835 324.246 164.635 325.463 164.635C326.29 164.635 326.83 164.279 327.076 163.828H328.553C328.225 165.031 327.083 165.838 325.449 165.838ZM323.378 161.326H327.213C327.213 160.198 326.481 159.364 325.367 159.371C324.198 159.364 323.439 160.28 323.378 161.326ZM330.098 165.688V158.264H331.506V159.439H331.588C331.861 158.646 332.606 158.147 333.475 158.154C333.652 158.147 333.939 158.168 334.09 158.182V159.576C333.967 159.549 333.625 159.487 333.324 159.494C332.312 159.487 331.561 160.191 331.561 161.162V165.688H330.098ZM341.787 158.264L339.094 165.688H337.521L334.828 158.264H336.4L338.273 163.965H338.342L340.215 158.264H341.787ZM345.916 165.838C343.729 165.838 342.382 164.327 342.389 162.023C342.382 159.74 343.749 158.168 345.82 158.168C347.509 158.168 349.115 159.214 349.115 161.9V162.42H343.838C343.879 163.835 344.713 164.635 345.93 164.635C346.757 164.635 347.297 164.279 347.543 163.828H349.02C348.691 165.031 347.55 165.838 345.916 165.838ZM343.845 161.326H347.68C347.68 160.198 346.948 159.364 345.834 159.371C344.665 159.364 343.906 160.28 343.845 161.326ZM357.455 158.264V159.426H355.938V163.5C355.944 164.341 356.354 164.491 356.826 164.498C357.038 164.498 357.359 164.478 357.564 164.457V165.729C357.366 165.756 357.052 165.783 356.648 165.783C355.507 165.783 354.475 165.154 354.488 163.801V159.426H353.395V158.264H354.488V156.486H355.938V158.264H357.455ZM360.504 161.285V165.688H359.041V155.789H360.477V159.48H360.572C360.921 158.674 361.618 158.168 362.773 158.168C364.298 158.168 365.316 159.111 365.316 160.971V165.688H363.854V161.148C363.854 160.055 363.266 159.426 362.281 159.426C361.249 159.426 360.504 160.103 360.504 161.285ZM370.279 165.838C368.092 165.838 366.745 164.327 366.752 162.023C366.745 159.74 368.112 158.168 370.184 158.168C371.872 158.168 373.479 159.214 373.479 161.9V162.42H368.201C368.242 163.835 369.076 164.635 370.293 164.635C371.12 164.635 371.66 164.279 371.906 163.828H373.383C373.055 165.031 371.913 165.838 370.279 165.838ZM368.208 161.326H372.043C372.043 160.198 371.312 159.364 370.197 159.371C369.028 159.364 368.27 160.28 368.208 161.326ZM226.533 183.838C224.366 183.838 223.054 182.245 223.061 180.01C223.054 177.747 224.414 176.168 226.506 176.168C228.201 176.168 229.425 177.166 229.582 178.67H228.16C228.01 177.973 227.456 177.392 226.533 177.385C225.33 177.392 224.523 178.39 224.523 179.969C224.523 181.596 225.31 182.601 226.533 182.594C227.36 182.601 227.976 182.136 228.16 181.336H229.582C229.425 182.778 228.283 183.838 226.533 183.838ZM230.963 183.688V176.264H232.371V177.439H232.453C232.727 176.646 233.472 176.147 234.34 176.154C234.518 176.147 234.805 176.168 234.955 176.182V177.576C234.832 177.549 234.49 177.487 234.189 177.494C233.178 177.487 232.426 178.191 232.426 179.162V183.688H230.963ZM239.002 183.838C236.814 183.838 235.468 182.327 235.475 180.023C235.468 177.74 236.835 176.168 238.906 176.168C240.595 176.168 242.201 177.214 242.201 179.9V180.42H236.924C236.965 181.835 237.799 182.635 239.016 182.635C239.843 182.635 240.383 182.279 240.629 181.828H242.105C241.777 183.031 240.636 183.838 239.002 183.838ZM236.931 179.326H240.766C240.766 178.198 240.034 177.364 238.92 177.371C237.751 177.364 236.992 178.28 236.931 179.326ZM243.309 181.596C243.302 179.9 244.744 179.463 246.084 179.367C246.576 179.34 247.69 179.278 248.032 179.265L248.025 178.67C248.032 177.829 247.513 177.344 246.521 177.344C245.66 177.344 245.141 177.74 244.99 178.287H243.541C243.671 177.057 244.819 176.168 246.576 176.168C247.759 176.168 249.481 176.599 249.488 178.752V183.688H248.066V182.676H248.012C247.725 183.229 247.041 183.852 245.811 183.852C244.402 183.852 243.302 183.045 243.309 181.596ZM244.73 181.609C244.73 182.32 245.318 182.683 246.139 182.689C247.328 182.683 248.039 181.89 248.039 181.008L248.032 180.331C247.697 180.352 246.638 180.427 246.289 180.447C245.332 180.516 244.73 180.878 244.73 181.609ZM254.725 176.264V177.426H253.207V181.5C253.214 182.341 253.624 182.491 254.096 182.498C254.308 182.498 254.629 182.478 254.834 182.457V183.729C254.636 183.756 254.321 183.783 253.918 183.783C252.776 183.783 251.744 183.154 251.758 181.801V177.426H250.664V176.264H251.758V174.486H253.207V176.264H254.725ZM259.264 183.838C257.076 183.838 255.729 182.327 255.736 180.023C255.729 177.74 257.097 176.168 259.168 176.168C260.856 176.168 262.463 177.214 262.463 179.9V180.42H257.186C257.227 181.835 258.061 182.635 259.277 182.635C260.104 182.635 260.645 182.279 260.891 181.828H262.367C262.039 183.031 260.897 183.838 259.264 183.838ZM257.192 179.326H261.027C261.027 178.198 260.296 177.364 259.182 177.371C258.013 177.364 257.254 178.28 257.192 179.326ZM266.688 183.838C264.896 183.831 263.584 182.389 263.584 179.996C263.584 177.576 264.917 176.168 266.701 176.168C268.082 176.168 268.581 177.002 268.848 177.467H268.916V173.789H270.379V183.688H268.957V182.525H268.848C268.574 183.011 268.041 183.831 266.688 183.838ZM265.074 179.969C265.067 181.459 265.737 182.587 267.016 182.594C268.26 182.587 268.957 181.527 268.957 179.969C268.957 178.424 268.273 177.405 267.016 177.412C265.724 177.405 265.067 178.506 265.074 179.969ZM275.697 183.688V176.264H277.105V177.48H277.188C277.502 176.653 278.233 176.168 279.211 176.168C280.202 176.168 280.893 176.653 281.207 177.48H281.289C281.638 176.681 282.444 176.168 283.518 176.168C284.857 176.168 285.808 177.009 285.814 178.711V183.688H284.352V178.848C284.352 177.843 283.723 177.426 282.957 177.426C282.021 177.426 281.48 178.068 281.48 178.957V183.688H280.031V178.766C280.031 177.952 279.478 177.426 278.678 177.426C277.857 177.426 277.16 178.109 277.16 179.107V183.688H275.697ZM290.723 183.838C288.617 183.838 287.243 182.307 287.25 180.01C287.243 177.699 288.617 176.168 290.723 176.168C292.814 176.168 294.182 177.699 294.182 180.01C294.182 182.307 292.814 183.838 290.723 183.838ZM288.713 180.01C288.713 181.425 289.362 182.621 290.723 182.621C292.062 182.621 292.705 181.425 292.705 180.01C292.705 178.588 292.062 177.378 290.723 177.371C289.362 177.378 288.713 178.588 288.713 180.01ZM298.393 183.838C296.602 183.831 295.289 182.389 295.289 179.996C295.289 177.576 296.622 176.168 298.406 176.168C299.787 176.168 300.286 177.002 300.553 177.467H300.621V173.789H302.084V183.688H300.662V182.525H300.553C300.279 183.011 299.746 183.831 298.393 183.838ZM296.779 179.969C296.772 181.459 297.442 182.587 298.721 182.594C299.965 182.587 300.662 181.527 300.662 179.969C300.662 178.424 299.979 177.405 298.721 177.412C297.429 177.405 296.772 178.506 296.779 179.969ZM307.184 183.838C304.996 183.838 303.649 182.327 303.656 180.023C303.649 177.74 305.017 176.168 307.088 176.168C308.776 176.168 310.383 177.214 310.383 179.9V180.42H305.105C305.146 181.835 305.98 182.635 307.197 182.635C308.024 182.635 308.564 182.279 308.811 181.828H310.287C309.959 183.031 308.817 183.838 307.184 183.838ZM305.112 179.326H308.947C308.947 178.198 308.216 177.364 307.102 177.371C305.933 177.364 305.174 178.28 305.112 179.326ZM313.295 173.789V183.688H311.832V173.789H313.295ZM320.09 183.688L317.916 176.264H319.42L320.869 181.705H320.951L322.4 176.264H323.904L325.34 181.678H325.422L326.857 176.264H328.361L326.188 183.688H324.697L323.193 178.342H323.084L321.594 183.688H320.09ZM329.564 183.688V176.264H331.027V183.688H329.564ZM329.373 174.254C329.38 173.775 329.797 173.393 330.303 173.393C330.802 173.393 331.219 173.775 331.219 174.254C331.219 174.732 330.802 175.122 330.303 175.115C329.797 175.122 329.38 174.732 329.373 174.254ZM336.277 176.264V177.426H334.76V181.5C334.767 182.341 335.177 182.491 335.648 182.498C335.86 182.498 336.182 182.478 336.387 182.457V183.729C336.188 183.756 335.874 183.783 335.471 183.783C334.329 183.783 333.297 183.154 333.311 181.801V177.426H332.217V176.264H333.311V174.486H334.76V176.264H336.277ZM339.326 179.285V183.688H337.863V173.789H339.299V177.48H339.395C339.743 176.674 340.44 176.168 341.596 176.168C343.12 176.168 344.139 177.111 344.139 178.971V183.688H342.676V179.148C342.676 178.055 342.088 177.426 341.104 177.426C340.071 177.426 339.326 178.103 339.326 179.285ZM349.047 183.838C346.941 183.838 345.567 182.307 345.574 180.01C345.567 177.699 346.941 176.168 349.047 176.168C351.139 176.168 352.506 177.699 352.506 180.01C352.506 182.307 351.139 183.838 349.047 183.838ZM347.037 180.01C347.037 181.425 347.687 182.621 349.047 182.621C350.387 182.621 351.029 181.425 351.029 180.01C351.029 178.588 350.387 177.378 349.047 177.371C347.687 177.378 347.037 178.588 347.037 180.01ZM358.658 180.598V176.264H360.107V183.688H358.686V182.402H358.604C358.262 183.195 357.503 183.783 356.389 183.783C354.953 183.783 353.941 182.819 353.941 180.98V176.264H355.404V180.803C355.404 181.814 356.02 182.457 356.908 182.457C357.722 182.457 358.658 181.862 358.658 180.598ZM365.357 176.264V177.426H363.84V181.5C363.847 182.341 364.257 182.491 364.729 182.498C364.94 182.498 365.262 182.478 365.467 182.457V183.729C365.269 183.756 364.954 183.783 364.551 183.783C363.409 183.783 362.377 183.154 362.391 181.801V177.426H361.297V176.264H362.391V174.486H363.84V176.264H365.357ZM223.047 199.596C223.04 197.9 224.482 197.463 225.822 197.367C226.314 197.34 227.429 197.278 227.771 197.265L227.764 196.67C227.771 195.829 227.251 195.344 226.26 195.344C225.398 195.344 224.879 195.74 224.729 196.287H223.279C223.409 195.057 224.558 194.168 226.314 194.168C227.497 194.168 229.22 194.599 229.227 196.752V201.688H227.805V200.676H227.75C227.463 201.229 226.779 201.852 225.549 201.852C224.141 201.852 223.04 201.045 223.047 199.596ZM224.469 199.609C224.469 200.32 225.057 200.683 225.877 200.689C227.066 200.683 227.777 199.89 227.777 199.008L227.771 198.331C227.436 198.352 226.376 198.427 226.027 198.447C225.07 198.516 224.469 198.878 224.469 199.609ZM232.453 197.285V201.688H230.99V194.264H232.398V195.48H232.48C232.829 194.681 233.561 194.168 234.668 194.168C236.192 194.168 237.204 195.132 237.197 196.971V201.688H235.748V197.148C235.741 196.068 235.16 195.426 234.176 195.426C233.171 195.426 232.453 196.103 232.453 197.285ZM239.604 204.477C239.303 204.47 239.009 204.463 238.824 204.436V203.219C238.988 203.232 239.275 203.239 239.48 203.246C239.932 203.239 240.308 203.212 240.656 202.275L240.834 201.783L238.113 194.264H239.672L241.545 200.02H241.627L243.5 194.264H245.072L242.01 202.672C241.579 203.848 240.827 204.47 239.604 204.477ZM249.68 201.688V194.264H251.143V201.688H249.68ZM249.488 192.254C249.495 191.775 249.912 191.393 250.418 191.393C250.917 191.393 251.334 191.775 251.334 192.254C251.334 192.732 250.917 193.122 250.418 193.115C249.912 193.122 249.495 192.732 249.488 192.254ZM254.383 197.285V201.688H252.92V194.264H254.328V195.48H254.41C254.759 194.681 255.49 194.168 256.598 194.168C258.122 194.168 259.134 195.132 259.127 196.971V201.688H257.678V197.148C257.671 196.068 257.09 195.426 256.105 195.426C255.101 195.426 254.383 196.103 254.383 197.285ZM264.445 194.264V195.426H262.846V201.688H261.383V195.426H260.234V194.264H261.383V193.402C261.39 192.076 262.237 191.324 263.598 191.324C263.946 191.324 264.309 191.365 264.596 191.42V192.637C264.322 192.596 264.11 192.582 263.98 192.582C263.208 192.582 262.846 192.896 262.846 193.621V194.264H264.445ZM265.771 201.688V194.264H267.18V195.439H267.262C267.535 194.646 268.28 194.147 269.148 194.154C269.326 194.147 269.613 194.168 269.764 194.182V195.576C269.641 195.549 269.299 195.487 268.998 195.494C267.986 195.487 267.234 196.191 267.234 197.162V201.688H265.771ZM270.434 199.596C270.427 197.9 271.869 197.463 273.209 197.367C273.701 197.34 274.815 197.278 275.157 197.265L275.15 196.67C275.157 195.829 274.638 195.344 273.646 195.344C272.785 195.344 272.266 195.74 272.115 196.287H270.666C270.796 195.057 271.944 194.168 273.701 194.168C274.884 194.168 276.606 194.599 276.613 196.752V201.688H275.191V200.676H275.137C274.85 201.229 274.166 201.852 272.936 201.852C271.527 201.852 270.427 201.045 270.434 199.596ZM271.855 199.609C271.855 200.32 272.443 200.683 273.264 200.689C274.453 200.683 275.164 199.89 275.164 199.008L275.157 198.331C274.822 198.352 273.763 198.427 273.414 198.447C272.457 198.516 271.855 198.878 271.855 199.609ZM282.547 196.287C282.41 195.699 281.945 195.316 281.139 195.316C280.305 195.316 279.71 195.747 279.717 196.314C279.71 196.752 280.059 197.066 280.879 197.258L282.055 197.531C283.422 197.839 284.085 198.488 284.092 199.541C284.085 200.881 282.95 201.838 281.057 201.838C279.272 201.838 278.22 201.045 278.035 199.664H279.525C279.655 200.334 280.161 200.669 281.043 200.662C281.986 200.669 282.595 200.272 282.602 199.65C282.595 199.172 282.239 198.864 281.453 198.68L280.291 198.434C278.951 198.14 278.254 197.422 278.254 196.396C278.254 195.077 279.402 194.168 281.125 194.168C282.779 194.168 283.812 195.009 283.955 196.287H282.547ZM288.986 194.264V195.426H287.469V199.5C287.476 200.341 287.886 200.491 288.357 200.498C288.569 200.498 288.891 200.478 289.096 200.457V201.729C288.897 201.756 288.583 201.783 288.18 201.783C287.038 201.783 286.006 201.154 286.02 199.801V195.426H284.926V194.264H286.02V192.486H287.469V194.264H288.986ZM290.408 201.688V194.264H291.816V195.439H291.898C292.172 194.646 292.917 194.147 293.785 194.154C293.963 194.147 294.25 194.168 294.4 194.182V195.576C294.277 195.549 293.936 195.487 293.635 195.494C292.623 195.487 291.871 196.191 291.871 197.162V201.688H290.408ZM300.211 198.598V194.264H301.66V201.688H300.238V200.402H300.156C299.814 201.195 299.056 201.783 297.941 201.783C296.506 201.783 295.494 200.819 295.494 198.98V194.264H296.957V198.803C296.957 199.814 297.572 200.457 298.461 200.457C299.274 200.457 300.211 199.862 300.211 198.598ZM306.582 201.838C304.415 201.838 303.103 200.245 303.109 198.01C303.103 195.747 304.463 194.168 306.555 194.168C308.25 194.168 309.474 195.166 309.631 196.67H308.209C308.059 195.973 307.505 195.392 306.582 195.385C305.379 195.392 304.572 196.39 304.572 197.969C304.572 199.596 305.358 200.601 306.582 200.594C307.409 200.601 308.024 200.136 308.209 199.336H309.631C309.474 200.778 308.332 201.838 306.582 201.838ZM314.484 194.264V195.426H312.967V199.5C312.974 200.341 313.384 200.491 313.855 200.498C314.067 200.498 314.389 200.478 314.594 200.457V201.729C314.396 201.756 314.081 201.783 313.678 201.783C312.536 201.783 311.504 201.154 311.518 199.801V195.426H310.424V194.264H311.518V192.486H312.967V194.264H314.484ZM320.623 198.598V194.264H322.072V201.688H320.65V200.402H320.568C320.227 201.195 319.468 201.783 318.354 201.783C316.918 201.783 315.906 200.819 315.906 198.98V194.264H317.369V198.803C317.369 199.814 317.984 200.457 318.873 200.457C319.687 200.457 320.623 199.862 320.623 198.598ZM323.85 201.688V194.264H325.258V195.439H325.34C325.613 194.646 326.358 194.147 327.227 194.154C327.404 194.147 327.691 194.168 327.842 194.182V195.576C327.719 195.549 327.377 195.487 327.076 195.494C326.064 195.487 325.312 196.191 325.312 197.162V201.688H323.85ZM331.889 201.838C329.701 201.838 328.354 200.327 328.361 198.023C328.354 195.74 329.722 194.168 331.793 194.168C333.481 194.168 335.088 195.214 335.088 197.9V198.42H329.811C329.852 199.835 330.686 200.635 331.902 200.635C332.729 200.635 333.27 200.279 333.516 199.828H334.992C334.664 201.031 333.522 201.838 331.889 201.838ZM329.817 197.326H333.652C333.652 196.198 332.921 195.364 331.807 195.371C330.638 195.364 329.879 196.28 329.817 197.326ZM223.389 219.688V209.789H224.852V215.395H224.975L227.914 212.264H229.664L226.663 215.449L229.869 219.688H228.078L225.556 216.352L224.852 217.049V219.688H223.389ZM232.275 215.285V219.688H230.812V212.264H232.221V213.48H232.303C232.651 212.681 233.383 212.168 234.49 212.168C236.015 212.168 237.026 213.132 237.02 214.971V219.688H235.57V215.148C235.563 214.068 234.982 213.426 233.998 213.426C232.993 213.426 232.275 214.103 232.275 215.285ZM241.941 219.838C239.836 219.838 238.462 218.307 238.469 216.01C238.462 213.699 239.836 212.168 241.941 212.168C244.033 212.168 245.4 213.699 245.4 216.01C245.4 218.307 244.033 219.838 241.941 219.838ZM239.932 216.01C239.932 217.425 240.581 218.621 241.941 218.621C243.281 218.621 243.924 217.425 243.924 216.01C243.924 214.588 243.281 213.378 241.941 213.371C240.581 213.378 239.932 214.588 239.932 216.01ZM248.203 219.688L246.029 212.264H247.533L248.982 217.705H249.064L250.514 212.264H252.018L253.453 217.678H253.535L254.971 212.264H256.475L254.301 219.688H252.811L251.307 214.342H251.197L249.707 219.688H248.203ZM259.141 209.789V219.688H257.678V209.789H259.141ZM264.117 219.838C261.93 219.838 260.583 218.327 260.59 216.023C260.583 213.74 261.95 212.168 264.021 212.168C265.71 212.168 267.316 213.214 267.316 215.9V216.42H262.039C262.08 217.835 262.914 218.635 264.131 218.635C264.958 218.635 265.498 218.279 265.744 217.828H267.221C266.893 219.031 265.751 219.838 264.117 219.838ZM262.046 215.326H265.881C265.881 214.198 265.149 213.364 264.035 213.371C262.866 213.364 262.107 214.28 262.046 215.326ZM271.541 219.838C269.75 219.831 268.438 218.389 268.438 215.996C268.438 213.576 269.771 212.168 271.555 212.168C272.936 212.168 273.435 213.002 273.701 213.467H273.77V209.789H275.232V219.688H273.811V218.525H273.701C273.428 219.011 272.895 219.831 271.541 219.838ZM269.928 215.969C269.921 217.459 270.591 218.587 271.869 218.594C273.113 218.587 273.811 217.527 273.811 215.969C273.811 214.424 273.127 213.405 271.869 213.412C270.577 213.405 269.921 214.506 269.928 215.969ZM280.25 222.627C278.377 222.627 277.14 221.8 277.01 220.412H278.5C278.644 221.116 279.3 221.458 280.264 221.451C281.426 221.458 282.157 220.952 282.164 219.797V218.334H282.068C281.809 218.812 281.275 219.578 279.908 219.578C278.158 219.578 276.805 218.272 276.805 215.9C276.805 213.528 278.138 212.168 279.922 212.168C281.303 212.168 281.809 213.002 282.082 213.467H282.178V212.264H283.6V219.852C283.606 221.759 282.164 222.627 280.25 222.627ZM278.295 215.928C278.288 217.384 278.958 218.368 280.236 218.375C281.48 218.368 282.178 217.459 282.178 215.928C282.178 214.424 281.494 213.405 280.236 213.412C278.944 213.405 278.288 214.506 278.295 215.928ZM288.576 219.838C286.389 219.838 285.042 218.327 285.049 216.023C285.042 213.74 286.409 212.168 288.48 212.168C290.169 212.168 291.775 213.214 291.775 215.9V216.42H286.498C286.539 217.835 287.373 218.635 288.59 218.635C289.417 218.635 289.957 218.279 290.203 217.828H291.68C291.352 219.031 290.21 219.838 288.576 219.838ZM286.505 215.326H290.34C290.34 214.198 289.608 213.364 288.494 213.371C287.325 213.364 286.566 214.28 286.505 215.326ZM294.182 219.783C293.648 219.776 293.204 219.346 293.211 218.812C293.204 218.279 293.648 217.842 294.182 217.842C294.708 217.842 295.146 218.279 295.152 218.812C295.146 219.346 294.708 219.776 294.182 219.783Z" fill="#ECECF8"/>
<path d="M20.3867 267.969V266.516H27.3359V267.969H24.7344V275H22.9883V267.969H20.3867ZM30.3477 275.129C28.3965 275.123 27.2012 273.863 27.207 271.848C27.2012 269.885 28.4141 268.555 30.2773 268.555C31.9473 268.555 33.2656 269.609 33.2656 271.777V272.27H28.918C28.918 273.23 29.4863 273.822 30.3828 273.828C30.9746 273.822 31.3965 273.564 31.5664 273.184H33.2188C32.9727 274.361 31.918 275.123 30.3477 275.129ZM28.918 271.18H31.625C31.6191 270.406 31.0859 269.85 30.3125 269.855C29.5156 269.85 28.9531 270.447 28.918 271.18ZM37.2148 275.129C35.2637 275.123 34.0918 273.775 34.0977 271.836C34.0918 269.891 35.2871 268.555 37.2148 268.555C38.8555 268.555 39.9688 269.51 40.0391 270.969H38.4102C38.3047 270.342 37.8945 269.908 37.2383 269.902C36.4062 269.908 35.8555 270.605 35.8555 271.812C35.8555 273.043 36.3945 273.746 37.2383 273.746C37.8477 273.746 38.2988 273.365 38.4102 272.691H40.0391C39.9629 274.133 38.9023 275.123 37.2148 275.129ZM42.8516 271.32V275H41.1172V266.516H42.8047V269.75H42.875C43.168 269.006 43.8066 268.555 44.7734 268.555C46.1035 268.555 46.9766 269.451 46.9766 270.945V275H45.2422V271.25C45.2422 270.459 44.8203 269.996 44.0938 269.996C43.3613 269.996 42.8516 270.482 42.8516 271.32Z" fill="#ECECF8" fill-opacity="0.5"/>
<path d="M20.4688 288.453V287.516H26.8672V288.453H24.207V296H23.1406V288.453H20.4688ZM29.8906 296.129C28.0508 296.135 26.9141 294.822 26.9141 292.871C26.9141 290.914 28.0684 289.555 29.7969 289.555C31.1328 289.555 32.5449 290.375 32.5391 292.73V293.152H27.9219C27.9746 294.5 28.7598 295.238 29.8906 295.238C30.6523 295.238 31.1328 294.904 31.3672 294.512H32.4453C32.1465 295.479 31.2031 296.135 29.8906 296.129ZM27.9277 292.297H31.5195C31.5137 291.236 30.8457 290.445 29.7969 290.445C28.6953 290.445 27.998 291.312 27.9277 292.297ZM36.4531 296.129C34.6484 296.135 33.5469 294.758 33.5469 292.848C33.5469 290.914 34.7012 289.555 36.4297 289.555C37.7832 289.555 38.8027 290.357 38.9609 291.559H37.9531C37.8066 290.979 37.3027 290.445 36.4531 290.445C35.3164 290.445 34.5605 291.383 34.5547 292.812C34.5605 294.283 35.2988 295.227 36.4531 295.227C37.2031 295.227 37.7773 294.822 37.9531 294.125H38.9609C38.8027 295.262 37.8652 296.135 36.4531 296.129ZM41.2109 292.18V296H40.2031V287.516H41.2109V290.633H41.293C41.5918 289.977 42.1602 289.555 43.168 289.555C44.4688 289.555 45.3359 290.322 45.3359 291.957V296H44.3281V292.027C44.3281 291.025 43.7773 290.457 42.8633 290.457C41.9141 290.457 41.2109 291.078 41.2109 292.18ZM47.9609 292.18V296H46.9531V289.637H47.9258V290.633H48.0078C48.3066 289.982 48.9043 289.555 49.8711 289.555C51.1602 289.555 52.0215 290.34 52.0156 291.957V296H51.0078V292.027C51.0078 291.043 50.4688 290.457 49.5664 290.457C48.6406 290.457 47.9609 291.078 47.9609 292.18ZM53.6328 296V289.637H54.6406V296H53.6328ZM53.4336 287.914C53.4277 287.539 53.75 287.24 54.1367 287.246C54.5234 287.24 54.8457 287.539 54.8516 287.914C54.8457 288.283 54.5234 288.582 54.1367 288.582C53.75 288.582 53.4277 288.283 53.4336 287.914ZM58.8477 296.129C57.043 296.135 55.9414 294.758 55.9414 292.848C55.9414 290.914 57.0957 289.555 58.8242 289.555C60.1777 289.555 61.1973 290.357 61.3555 291.559H60.3477C60.2012 290.979 59.6973 290.445 58.8477 290.445C57.7109 290.445 56.9551 291.383 56.9492 292.812C56.9551 294.283 57.6934 295.227 58.8477 295.227C59.5977 295.227 60.1719 294.822 60.3477 294.125H61.3555C61.1973 295.262 60.2598 296.135 58.8477 296.129ZM62.293 294.195C62.293 292.736 63.582 292.402 64.6836 292.32C65.0938 292.291 66.1191 292.232 66.4062 292.227V291.711C66.4062 290.902 65.9258 290.434 64.9648 290.434C64.1621 290.434 63.6758 290.803 63.5352 291.289H62.4805C62.6094 290.264 63.6055 289.555 65.0117 289.555C65.8438 289.555 67.4082 289.801 67.4023 291.805V296H66.4062V295.133H66.3594C66.1484 295.561 65.5684 296.146 64.4609 296.152C63.2539 296.146 62.293 295.438 62.293 294.195ZM63.3008 294.242C63.3066 294.916 63.8633 295.256 64.6367 295.25C65.7734 295.256 66.4062 294.494 66.4062 293.691V293.053C66.1074 293.07 65.1055 293.146 64.8008 293.164C63.8867 293.223 63.3066 293.545 63.3008 294.242ZM70.0273 287.516V296H69.0195V287.516H70.0273ZM74.6445 298.391V289.637H75.6172V290.645H75.7344C75.9512 290.305 76.3379 289.555 77.5742 289.555C79.1738 289.555 80.2812 290.82 80.2812 292.836C80.2812 294.857 79.1738 296.135 77.5859 296.129C76.373 296.135 75.9512 295.379 75.7344 295.027H75.6523V298.391H74.6445ZM75.6289 292.812C75.6348 294.242 76.2734 295.227 77.4453 295.227C78.6523 295.227 79.2734 294.166 79.2734 292.812C79.2734 291.482 78.6699 290.457 77.4453 290.457C76.2559 290.457 75.6348 291.4 75.6289 292.812ZM81.5938 296V289.637H82.5664V290.609H82.6367C82.8652 289.965 83.5273 289.537 84.2773 289.531C84.4297 289.537 84.6875 289.543 84.8047 289.555V290.574C84.7285 290.557 84.459 290.504 84.1953 290.504C83.2812 290.504 82.6016 291.137 82.6016 291.992V296H81.5938ZM88.1797 296.129C86.4453 296.135 85.2734 294.822 85.2734 292.848C85.2734 290.861 86.4453 289.555 88.1797 289.555C89.9082 289.555 91.0684 290.861 91.0625 292.848C91.0684 294.822 89.9082 296.135 88.1797 296.129ZM86.2812 292.848C86.2871 294.119 86.8848 295.238 88.1797 295.238C89.4629 295.238 90.0547 294.119 90.0547 292.848C90.0547 291.582 89.4629 290.445 88.1797 290.445C86.8848 290.445 86.2871 291.582 86.2812 292.848ZM95.2344 289.637V290.48H93.8281V296H92.8086V290.48H91.7891V289.637H92.8086V288.77C92.8145 287.738 93.5 287.117 94.625 287.117C94.8711 287.117 95.1641 287.146 95.375 287.188V288.09C95.1582 288.055 94.9766 288.043 94.8477 288.043C94.1387 288.043 93.8223 288.336 93.8281 288.992V289.637H95.2344ZM96.4297 296V289.637H97.4375V296H96.4297ZM96.2305 287.914C96.2246 287.539 96.5469 287.24 96.9336 287.246C97.3203 287.24 97.6426 287.539 97.6484 287.914C97.6426 288.283 97.3203 288.582 96.9336 288.582C96.5469 288.582 96.2246 288.283 96.2305 287.914ZM101.645 296.129C99.8398 296.135 98.7383 294.758 98.7383 292.848C98.7383 290.914 99.8926 289.555 101.621 289.555C102.975 289.555 103.994 290.357 104.152 291.559H103.145C102.998 290.979 102.494 290.445 101.645 290.445C100.508 290.445 99.752 291.383 99.7461 292.812C99.752 294.283 100.49 295.227 101.645 295.227C102.395 295.227 102.969 294.822 103.145 294.125H104.152C103.994 295.262 103.057 296.135 101.645 296.129ZM105.395 296V289.637H106.402V296H105.395ZM105.195 287.914C105.189 287.539 105.512 287.24 105.898 287.246C106.285 287.24 106.607 287.539 106.613 287.914C106.607 288.283 106.285 288.582 105.898 288.582C105.512 288.582 105.189 288.283 105.195 287.914ZM110.68 296.129C108.84 296.135 107.703 294.822 107.703 292.871C107.703 290.914 108.857 289.555 110.586 289.555C111.922 289.555 113.334 290.375 113.328 292.73V293.152H108.711C108.764 294.5 109.549 295.238 110.68 295.238C111.441 295.238 111.922 294.904 112.156 294.512H113.234C112.936 295.479 111.992 296.135 110.68 296.129ZM108.717 292.297H112.309C112.303 291.236 111.635 290.445 110.586 290.445C109.484 290.445 108.787 291.312 108.717 292.297ZM115.648 292.18V296H114.641V289.637H115.613V290.633H115.695C115.994 289.982 116.592 289.555 117.559 289.555C118.848 289.555 119.709 290.34 119.703 291.957V296H118.695V292.027C118.695 291.043 118.156 290.457 117.254 290.457C116.328 290.457 115.648 291.078 115.648 292.18ZM123.922 296.129C122.117 296.135 121.016 294.758 121.016 292.848C121.016 290.914 122.17 289.555 123.898 289.555C125.252 289.555 126.271 290.357 126.43 291.559H125.422C125.275 290.979 124.771 290.445 123.922 290.445C122.785 290.445 122.029 291.383 122.023 292.812C122.029 294.283 122.768 295.227 123.922 295.227C124.672 295.227 125.246 294.822 125.422 294.125H126.43C126.271 295.262 125.334 296.135 123.922 296.129ZM128.316 298.391C128.1 298.385 127.883 298.379 127.754 298.367V297.465C127.859 297.477 128.088 297.482 128.246 297.488C128.656 297.482 129.002 297.459 129.336 296.527L129.523 296.047L127.168 289.637H128.27L130.004 294.688H130.074L131.809 289.637H132.91L130.215 296.914C129.84 297.916 129.219 298.385 128.316 298.391ZM137.035 296V289.637H138.043V296H137.035ZM136.836 287.914C136.83 287.539 137.152 287.24 137.539 287.246C137.926 287.24 138.248 287.539 138.254 287.914C138.248 288.283 137.926 288.582 137.539 288.582C137.152 288.582 136.83 288.283 136.836 287.914ZM140.656 292.18V296H139.648V289.637H140.621V290.633H140.703C141.002 289.982 141.6 289.555 142.566 289.555C143.855 289.555 144.717 290.34 144.711 291.957V296H143.703V292.027C143.703 291.043 143.164 290.457 142.262 290.457C141.336 290.457 140.656 291.078 140.656 292.18ZM149.469 287.516H150.734L153.594 294.5H153.699L156.559 287.516H157.824V296H156.828V289.59H156.746L154.109 296H153.172L150.535 289.59H150.465V296H149.469V287.516ZM159.699 296V287.516H160.754V295.062H164.691V296H159.699Z" fill="#ECECF8"/>
<circle cx="271" cy="292" r="6" fill="#944AF2"/>
<circle cx="295" cy="292" r="6" fill="#944AF2"/>
<circle cx="319" cy="292" r="6" fill="#944AF2"/>
<circle cx="343" cy="292" r="6" fill="#ECECF8" fill-opacity="0.3"/>
<circle cx="367" cy="292" r="6" fill="#ECECF8" fill-opacity="0.3"/>
<path d="M20.4688 308.453V307.516H26.8672V308.453H24.207V316H23.1406V308.453H20.4688ZM29.8906 316.129C28.0508 316.135 26.9141 314.822 26.9141 312.871C26.9141 310.914 28.0684 309.555 29.7969 309.555C31.1328 309.555 32.5449 310.375 32.5391 312.73V313.152H27.9219C27.9746 314.5 28.7598 315.238 29.8906 315.238C30.6523 315.238 31.1328 314.904 31.3672 314.512H32.4453C32.1465 315.479 31.2031 316.135 29.8906 316.129ZM27.9277 312.297H31.5195C31.5137 311.236 30.8457 310.445 29.7969 310.445C28.6953 310.445 27.998 311.312 27.9277 312.297ZM36.4531 316.129C34.6484 316.135 33.5469 314.758 33.5469 312.848C33.5469 310.914 34.7012 309.555 36.4297 309.555C37.7832 309.555 38.8027 310.357 38.9609 311.559H37.9531C37.8066 310.979 37.3027 310.445 36.4531 310.445C35.3164 310.445 34.5605 311.383 34.5547 312.812C34.5605 314.283 35.2988 315.227 36.4531 315.227C37.2031 315.227 37.7773 314.822 37.9531 314.125H38.9609C38.8027 315.262 37.8652 316.135 36.4531 316.129ZM41.2109 312.18V316H40.2031V307.516H41.2109V310.633H41.293C41.5918 309.977 42.1602 309.555 43.168 309.555C44.4688 309.555 45.3359 310.322 45.3359 311.957V316H44.3281V312.027C44.3281 311.025 43.7773 310.457 42.8633 310.457C41.9141 310.457 41.2109 311.078 41.2109 312.18ZM47.9609 312.18V316H46.9531V309.637H47.9258V310.633H48.0078C48.3066 309.982 48.9043 309.555 49.8711 309.555C51.1602 309.555 52.0215 310.34 52.0156 311.957V316H51.0078V312.027C51.0078 311.043 50.4688 310.457 49.5664 310.457C48.6406 310.457 47.9609 311.078 47.9609 312.18ZM53.6328 316V309.637H54.6406V316H53.6328ZM53.4336 307.914C53.4277 307.539 53.75 307.24 54.1367 307.246C54.5234 307.24 54.8457 307.539 54.8516 307.914C54.8457 308.283 54.5234 308.582 54.1367 308.582C53.75 308.582 53.4277 308.283 53.4336 307.914ZM58.8477 316.129C57.043 316.135 55.9414 314.758 55.9414 312.848C55.9414 310.914 57.0957 309.555 58.8242 309.555C60.1777 309.555 61.1973 310.357 61.3555 311.559H60.3477C60.2012 310.979 59.6973 310.445 58.8477 310.445C57.7109 310.445 56.9551 311.383 56.9492 312.812C56.9551 314.283 57.6934 315.227 58.8477 315.227C59.5977 315.227 60.1719 314.822 60.3477 314.125H61.3555C61.1973 315.262 60.2598 316.135 58.8477 316.129ZM62.293 314.195C62.293 312.736 63.582 312.402 64.6836 312.32C65.0938 312.291 66.1191 312.232 66.4062 312.227V311.711C66.4062 310.902 65.9258 310.434 64.9648 310.434C64.1621 310.434 63.6758 310.803 63.5352 311.289H62.4805C62.6094 310.264 63.6055 309.555 65.0117 309.555C65.8438 309.555 67.4082 309.801 67.4023 311.805V316H66.4062V315.133H66.3594C66.1484 315.561 65.5684 316.146 64.4609 316.152C63.2539 316.146 62.293 315.438 62.293 314.195ZM63.3008 314.242C63.3066 314.916 63.8633 315.256 64.6367 315.25C65.7734 315.256 66.4062 314.494 66.4062 313.691V313.053C66.1074 313.07 65.1055 313.146 64.8008 313.164C63.8867 313.223 63.3066 313.545 63.3008 314.242ZM70.0273 307.516V316H69.0195V307.516H70.0273ZM74.6445 318.391V309.637H75.6172V310.645H75.7344C75.9512 310.305 76.3379 309.555 77.5742 309.555C79.1738 309.555 80.2812 310.82 80.2812 312.836C80.2812 314.857 79.1738 316.135 77.5859 316.129C76.373 316.135 75.9512 315.379 75.7344 315.027H75.6523V318.391H74.6445ZM75.6289 312.812C75.6348 314.242 76.2734 315.227 77.4453 315.227C78.6523 315.227 79.2734 314.166 79.2734 312.812C79.2734 311.482 78.6699 310.457 77.4453 310.457C76.2559 310.457 75.6348 311.4 75.6289 312.812ZM81.5938 316V309.637H82.5664V310.609H82.6367C82.8652 309.965 83.5273 309.537 84.2773 309.531C84.4297 309.537 84.6875 309.543 84.8047 309.555V310.574C84.7285 310.557 84.459 310.504 84.1953 310.504C83.2812 310.504 82.6016 311.137 82.6016 311.992V316H81.5938ZM88.1797 316.129C86.4453 316.135 85.2734 314.822 85.2734 312.848C85.2734 310.861 86.4453 309.555 88.1797 309.555C89.9082 309.555 91.0684 310.861 91.0625 312.848C91.0684 314.822 89.9082 316.135 88.1797 316.129ZM86.2812 312.848C86.2871 314.119 86.8848 315.238 88.1797 315.238C89.4629 315.238 90.0547 314.119 90.0547 312.848C90.0547 311.582 89.4629 310.445 88.1797 310.445C86.8848 310.445 86.2871 311.582 86.2812 312.848ZM95.2344 309.637V310.48H93.8281V316H92.8086V310.48H91.7891V309.637H92.8086V308.77C92.8145 307.738 93.5 307.117 94.625 307.117C94.8711 307.117 95.1641 307.146 95.375 307.188V308.09C95.1582 308.055 94.9766 308.043 94.8477 308.043C94.1387 308.043 93.8223 308.336 93.8281 308.992V309.637H95.2344ZM96.4297 316V309.637H97.4375V316H96.4297ZM96.2305 307.914C96.2246 307.539 96.5469 307.24 96.9336 307.246C97.3203 307.24 97.6426 307.539 97.6484 307.914C97.6426 308.283 97.3203 308.582 96.9336 308.582C96.5469 308.582 96.2246 308.283 96.2305 307.914ZM101.645 316.129C99.8398 316.135 98.7383 314.758 98.7383 312.848C98.7383 310.914 99.8926 309.555 101.621 309.555C102.975 309.555 103.994 310.357 104.152 311.559H103.145C102.998 310.979 102.494 310.445 101.645 310.445C100.508 310.445 99.752 311.383 99.7461 312.812C99.752 314.283 100.49 315.227 101.645 315.227C102.395 315.227 102.969 314.822 103.145 314.125H104.152C103.994 315.262 103.057 316.135 101.645 316.129ZM105.395 316V309.637H106.402V316H105.395ZM105.195 307.914C105.189 307.539 105.512 307.24 105.898 307.246C106.285 307.24 106.607 307.539 106.613 307.914C106.607 308.283 106.285 308.582 105.898 308.582C105.512 308.582 105.189 308.283 105.195 307.914ZM110.68 316.129C108.84 316.135 107.703 314.822 107.703 312.871C107.703 310.914 108.857 309.555 110.586 309.555C111.922 309.555 113.334 310.375 113.328 312.73V313.152H108.711C108.764 314.5 109.549 315.238 110.68 315.238C111.441 315.238 111.922 314.904 112.156 314.512H113.234C112.936 315.479 111.992 316.135 110.68 316.129ZM108.717 312.297H112.309C112.303 311.236 111.635 310.445 110.586 310.445C109.484 310.445 108.787 311.312 108.717 312.297ZM115.648 312.18V316H114.641V309.637H115.613V310.633H115.695C115.994 309.982 116.592 309.555 117.559 309.555C118.848 309.555 119.709 310.34 119.703 311.957V316H118.695V312.027C118.695 311.043 118.156 310.457 117.254 310.457C116.328 310.457 115.648 311.078 115.648 312.18ZM123.922 316.129C122.117 316.135 121.016 314.758 121.016 312.848C121.016 310.914 122.17 309.555 123.898 309.555C125.252 309.555 126.271 310.357 126.43 311.559H125.422C125.275 310.979 124.771 310.445 123.922 310.445C122.785 310.445 122.029 311.383 122.023 312.812C122.029 314.283 122.768 315.227 123.922 315.227C124.672 315.227 125.246 314.822 125.422 314.125H126.43C126.271 315.262 125.334 316.135 123.922 316.129ZM128.316 318.391C128.1 318.385 127.883 318.379 127.754 318.367V317.465C127.859 317.477 128.088 317.482 128.246 317.488C128.656 317.482 129.002 317.459 129.336 316.527L129.523 316.047L127.168 309.637H128.27L130.004 314.688H130.074L131.809 309.637H132.91L130.215 316.914C129.84 317.916 129.219 318.385 128.316 318.391ZM137.035 316V309.637H138.043V316H137.035ZM136.836 307.914C136.83 307.539 137.152 307.24 137.539 307.246C137.926 307.24 138.248 307.539 138.254 307.914C138.248 308.283 137.926 308.582 137.539 308.582C137.152 308.582 136.83 308.283 136.836 307.914ZM140.656 312.18V316H139.648V309.637H140.621V310.633H140.703C141.002 309.982 141.6 309.555 142.566 309.555C143.855 309.555 144.717 310.34 144.711 311.957V316H143.703V312.027C143.703 311.043 143.164 310.457 142.262 310.457C141.336 310.457 140.656 311.078 140.656 312.18ZM156.641 311.758C156.646 314.441 155.064 316.117 152.891 316.117C150.711 316.117 149.135 314.441 149.141 311.758C149.135 309.074 150.711 307.398 152.891 307.398C155.064 307.398 156.646 309.074 156.641 311.758ZM150.16 311.758C150.166 313.943 151.355 315.127 152.891 315.133C154.426 315.127 155.615 313.943 155.621 311.758C155.615 309.566 154.426 308.383 152.891 308.383C151.355 308.383 150.166 309.566 150.16 311.758ZM158.059 318.391V309.637H159.031V310.645H159.148C159.365 310.305 159.752 309.555 160.988 309.555C162.588 309.555 163.695 310.82 163.695 312.836C163.695 314.857 162.588 316.135 161 316.129C159.787 316.135 159.365 315.379 159.148 315.027H159.066V318.391H158.059ZM159.043 312.812C159.049 314.242 159.688 315.227 160.859 315.227C162.066 315.227 162.688 314.166 162.688 312.812C162.688 311.482 162.084 310.457 160.859 310.457C159.67 310.457 159.049 311.4 159.043 312.812ZM168.547 311.289C168.406 310.762 168.002 310.416 167.258 310.41C166.473 310.416 165.916 310.838 165.91 311.371C165.916 311.793 166.256 312.08 167 312.262L167.949 312.496C169.086 312.766 169.643 313.334 169.648 314.219C169.643 315.32 168.746 316.135 167.152 316.129C165.723 316.135 164.873 315.496 164.703 314.336H165.758C165.875 314.957 166.326 315.256 167.129 315.25C168.037 315.256 168.605 314.875 168.605 314.277C168.605 313.826 168.283 313.533 167.562 313.363L166.602 313.141C165.494 312.883 164.902 312.279 164.902 311.43C164.902 310.34 165.857 309.555 167.258 309.555C168.576 309.555 169.402 310.258 169.531 311.289H168.547Z" fill="#ECECF8"/>
<circle cx="271" cy="312" r="6" fill="#944AF2"/>
<circle cx="295" cy="312" r="6" fill="#ECECF8" fill-opacity="0.3"/>
<circle cx="319" cy="312" r="6" fill="#ECECF8" fill-opacity="0.3"/>
<circle cx="343" cy="312" r="6" fill="#ECECF8" fill-opacity="0.3"/>
<circle cx="367" cy="312" r="6" fill="#ECECF8" fill-opacity="0.3"/>
</g>
<rect x="0.5" y="0.5" width="404" height="341" rx="19.5" stroke="white" stroke-opacity="0.2"/>
<defs>
<filter id="filter0_f_518_4414" x="132.117" y="103.37" width="20.5604" height="23.782" filterUnits="userSpaceOnUse" color-interpolation-filters="sRGB">
<feFlood flood-opacity="0" result="BackgroundImageFix"/>
<feBlend mode="normal" in="SourceGraphic" in2="BackgroundImageFix" result="shape"/>
<feGaussianBlur stdDeviation="2.12007" result="effect1_foregroundBlur_518_4414"/>
</filter>
<linearGradient id="paint0_linear_518_4414" x1="112.5" y1="20" x2="112.5" y2="220" gradientUnits="userSpaceOnUse">
<stop stop-color="#8371B9"/>
<stop offset="1" stop-opacity="0"/>
</linearGradient>
<linearGradient id="paint1_linear_518_4414" x1="112.336" y1="66.2387" x2="51.3842" y2="179.662" gradientUnits="userSpaceOnUse">
<stop stop-color="#2F2632"/>
<stop offset="0.503343" stop-color="#0C0C0F"/>
<stop offset="0.762152" stop-color="#39447A"/>
<stop offset="1" stop-color="#694795"/>
</linearGradient>
<linearGradient id="paint2_linear_518_4414" x1="113.589" y1="200.333" x2="113.589" y2="221.534" gradientUnits="userSpaceOnUse">
<stop stop-color="#4D3A63"/>
<stop offset="1" stop-color="#17121C"/>
</linearGradient>
<linearGradient id="paint3_linear_518_4414" x1="117.63" y1="133.551" x2="129.821" y2="162.172" gradientUnits="userSpaceOnUse">
<stop stop-color="#AA585E"/>
<stop offset="1" stop-color="#AA585E" stop-opacity="0"/>
</linearGradient>
<linearGradient id="paint4_linear_518_4414" x1="122.428" y1="44.0415" x2="89.3683" y2="97.0768" gradientUnits="userSpaceOnUse">
<stop stop-color="#0C0A0C"/>
<stop offset="0.281029" stop-color="#423445"/>
<stop offset="1" stop-color="#0C0C0E"/>
</linearGradient>
<linearGradient id="paint5_linear_518_4414" x1="149.347" y1="128.629" x2="146.765" y2="142.139" gradientUnits="userSpaceOnUse">
<stop stop-color="#464023"/>
<stop offset="1" stop-color="#9B905C"/>
</linearGradient>
<linearGradient id="paint6_linear_518_4414" x1="149.365" y1="58.2161" x2="137.067" y2="122.587" gradientUnits="userSpaceOnUse">
<stop stop-color="#110B13"/>
<stop offset="1" stop-color="#060107" stop-opacity="0"/>
<stop offset="1" stop-color="#060107"/>
</linearGradient>
<radialGradient id="paint7_radial_518_4414" cx="0" cy="0" r="1" gradientUnits="userSpaceOnUse" gradientTransform="translate(148.687 117.043) rotate(-179.549) scale(57.5608 45.8488)">
<stop stop-color="#D9A49A"/>
<stop offset="1" stop-color="#D67967"/>
</radialGradient>
<linearGradient id="paint8_linear_518_4414" x1="99.4833" y1="124.54" x2="103.849" y2="142.031" gradientUnits="userSpaceOnUse">
<stop offset="0.235389" stop-color="#665E31"/>
<stop offset="1" stop-color="#A79C66"/>
</linearGradient>
<linearGradient id="paint9_linear_518_4414" x1="130.633" y1="96.0485" x2="128.143" y2="110.836" gradientUnits="userSpaceOnUse">
<stop stop-color="#392C11"/>
<stop offset="1" stop-color="#060107"/>
</linearGradient>
<linearGradient id="paint10_linear_518_4414" x1="154.343" y1="103.312" x2="149.955" y2="112.383" gradientUnits="userSpaceOnUse">
<stop offset="0.0001" stop-color="#392C11"/>
<stop offset="1" stop-color="#140817"/>
</linearGradient>
<linearGradient id="paint11_linear_518_4414" x1="133.201" y1="56.8871" x2="101.712" y2="105.911" gradientUnits="userSpaceOnUse">
<stop stop-color="#060107"/>
<stop offset="0.314262" stop-color="#463749"/>
<stop offset="0.631981" stop-color="#2A212D"/>
</linearGradient>
<linearGradient id="paint12_linear_518_4414" x1="143.8" y1="58.282" x2="144.953" y2="93.7966" gradientUnits="userSpaceOnUse">
<stop stop-color="#0D060D"/>
<stop offset="0.421875" stop-color="#413344"/>
<stop offset="1" stop-color="#2B222D"/>
</linearGradient>
<linearGradient id="paint13_linear_518_4414" x1="160.143" y1="65.0242" x2="156.729" y2="105.362" gradientUnits="userSpaceOnUse">
<stop stop-color="#110A12"/>
<stop offset="0.322917" stop-color="#403243"/>
<stop offset="0.724698" stop-color="#2B222D"/>
</linearGradient>
<clipPath id="clip0_518_4414">
<rect width="405" height="342" rx="20" fill="white"/>
</clipPath>
</defs>
</svg>
