<svg width="300" height="600" viewBox="0 0 300 600" fill="none" xmlns="http://www.w3.org/2000/svg">
<rect width="300" height="600" rx="20" fill="#1C1B20"/>
<rect x="20" y="46" width="260" height="197.183" rx="8.4507" fill="url(#paint0_linear_988_3520)" fill-opacity="0.5"/>
<path d="M180.723 109.271C178.558 119.378 175.959 141.035 182.889 146.81L187.581 151.141C183.792 150.6 176.653 149.163 175.469 147.408C175.725 150.944 176.275 164.793 180.723 164.496C178.437 164.737 173.574 163.486 172.419 156.555C172.178 159.563 172.057 166.012 173.502 167.745C175.308 169.911 166.282 162.692 165.921 159.082C165.632 156.194 167.004 122.025 167.726 105.301L180.723 109.271Z" fill="#140610"/>
<path d="M114.726 119.285C118.257 129.386 122.493 151.03 111.196 156.802L103.548 161.131C109.724 160.59 121.361 159.154 123.291 157.4C122.875 160.934 121.978 174.775 114.726 174.478C118.454 174.719 126.381 173.468 128.264 166.542C128.657 169.548 128.854 175.993 126.499 177.725C123.554 179.889 138.268 172.675 138.857 169.067C139.327 166.181 137.092 132.032 135.915 115.317L114.726 119.285Z" fill="#140610"/>
<path d="M106.796 181.002C101.31 165.12 121.595 159.706 132.423 158.984C153.357 143.463 185.204 172.714 189.454 181.003C196.673 195.081 179.348 215.294 167.075 223.957C154.803 232.62 113.654 200.854 106.796 181.002Z" fill="#202F72"/>
<path d="M133.431 184.44C134.469 181.531 131.807 148.221 130.509 136.342C133.625 140.706 155.29 155.227 165.57 157.53C165.462 165.288 165.83 181.531 168.167 184.44C171.089 188.076 162.648 203.349 158.428 207.35C154.208 211.35 132.132 188.076 133.431 184.44Z" fill="#FBBFB4"/>
<mask id="mask0_988_3520" style="mask-type:alpha" maskUnits="userSpaceOnUse" x="129" y="136" width="40" height="72">
<path d="M133.364 184.558C134.405 181.664 131.087 148.161 129.786 136.342C132.909 140.684 155.264 155.493 165.563 157.785C165.455 165.503 165.824 181.664 168.165 184.558C171.093 188.176 162.636 203.372 158.408 207.352C154.18 211.332 132.063 188.176 133.364 184.558Z" fill="#EB8682"/>
</mask>
<g mask="url(#mask0_988_3520)">
<path d="M171.656 174.699C154.331 186.249 139.893 161.609 129.064 136.342L188.26 168.202C184.65 169.766 175.684 172.014 171.656 174.699Z" fill="#E79795"/>
</g>
<path d="M181.679 70.0406C179.88 68.0776 170.179 67.921 165.554 68.0881C163.191 70.5892 158.415 76.6034 158.215 80.6514C157.966 85.7114 173.08 80.9971 180.247 81.8649C185.97 82.5579 184.579 124.924 184.216 136.001L184.214 136.059C185.285 131.22 188.15 119.579 188.825 115.99C189.846 110.563 194.665 94.7853 193.264 91.3434C191.863 87.9014 183.927 72.4943 181.679 70.0406Z" fill="#140610"/>
<path d="M138.056 117.937C144.692 111.178 150.758 99.1142 152.961 93.9272C159.717 96.1996 171.927 97.678 166.722 85.4131C160.216 70.0819 121.421 75.5639 109.684 85.4139C100.295 93.2939 114.422 123.431 120.511 131.198L138.056 147.44C138.588 146.05 136.338 139.326 135.93 135.495C135.419 130.707 129.761 126.386 138.056 117.937Z" fill="#140610"/>
<path d="M185.37 112.129C186.178 107.864 184.97 90.6148 183.25 81.8016C170.25 66.0476 151.001 77.8966 141.033 82.1434C133.058 85.5408 130.605 106.21 130.375 116.121C128.956 115.828 124.891 115.166 119.983 114.862C113.849 114.483 116.997 118.5 115.184 124.462C113.372 130.423 120.778 135.319 123.254 138.891C125.235 141.749 131.043 142.622 133.7 142.701C134.667 145.727 134.447 145.398 136.642 150.059C140.007 157.2 154.107 165.078 161.187 166.662C168.267 168.247 170.658 167.502 176.347 156.556C177.847 153.668 180.769 151.445 182.122 147.171C182.859 144.845 185.789 133.732 186.453 124.462C186.847 118.964 184.995 114.114 185.37 112.129Z" fill="#FBBFB4"/>
<path d="M158.57 113.71L162.528 117.655C162.479 120.552 159.708 124.054 155.369 123.909C151.031 123.763 147.41 120.086 146.141 118.266C148.441 115.595 155.386 114.116 158.57 113.71Z" fill="#D9D9D9" stroke="black" stroke-width="0.721897" stroke-linecap="round"/>
<mask id="mask1_988_3520" style="mask-type:alpha" maskUnits="userSpaceOnUse" x="145" y="113" width="18" height="12">
<path d="M158.569 113.711L162.527 117.656C162.478 120.553 159.707 124.055 155.368 123.91C151.03 123.764 147.409 120.087 146.141 118.267C148.44 115.596 155.385 114.117 158.569 113.711Z" fill="#D9D9D9" stroke="black" stroke-width="0.721897" stroke-linecap="round"/>
</mask>
<g mask="url(#mask1_988_3520)">
<path d="M157.742 121.971C154.007 121.596 153.602 116.234 153.867 113.601C154.083 111.446 158.824 111.197 161.697 111.485C163.996 111.716 164.568 116.61 164.567 119.029C163.848 120.166 161.477 122.346 157.742 121.971Z" fill="#0B143D"/>
</g>
<ellipse cx="155.361" cy="116.525" rx="1.44379" ry="0.721897" transform="rotate(5.73654 155.361 116.525)" fill="white"/>
<path d="M181.874 123.258C185.257 122.047 185.334 118.609 185.729 116.582C180.976 113.175 176.39 114.304 173.936 118.927C174.943 121.64 178.491 124.47 181.874 123.258Z" fill="#D9D9D9" stroke="black" stroke-width="0.721897" stroke-linecap="round"/>
<mask id="mask2_988_3520" style="mask-type:alpha" maskUnits="userSpaceOnUse" x="172" y="114" width="15" height="11">
<path d="M174.375 115.374L173.065 117.55C174.072 120.263 176.933 125.387 180.315 124.176C183.698 122.965 185.333 118.609 185.728 116.582C183.016 114.639 177.029 114.967 174.375 115.374Z" fill="#D9D9D9" stroke="black" stroke-width="0.721897" stroke-linecap="round"/>
</mask>
<g mask="url(#mask2_988_3520)">
<path d="M187.075 122.943C189.904 121.665 188.432 116.521 187.342 114.109C186.45 112.135 182.617 113.074 180.441 114.057C178.7 114.844 178.917 119.609 180.693 121.865C182.469 124.12 184.246 124.22 187.075 122.943Z" fill="#0B143D"/>
</g>
<path d="M162.2 107.678L165.741 105.462L154.632 104.117L147.587 105.247L140.506 109.678C142.377 109.244 146.564 108.296 148.347 107.983C150.13 107.671 158.325 107.649 162.2 107.678Z" fill="#1B041E"/>
<path d="M176.02 107.879L174.299 105.556L181.096 106.379L185.072 108.447L185.831 110.951C183.358 109.386 178.932 108.679 176.02 107.879Z" fill="#1B041E"/>
<path d="M154.654 109.937C161.29 103.178 162.751 81.1038 164.954 75.9169C171.71 78.1892 175.977 79.1659 170.773 66.9009C164.267 51.5697 125.123 71.5537 113.386 81.4036C103.997 89.2836 113.827 106.787 119.916 114.553L130.979 130.838C131.886 136.166 132.814 140.471 134.227 140.584C137.12 140.815 134.949 133.004 136.393 129.394C138.181 124.923 146.359 118.386 154.654 109.937Z" fill="#2E0822"/>
<path d="M175.264 145.006C168.885 145.424 160.461 144.823 156.498 144.283C158.045 146.927 163.643 148.553 168.806 148.786C172.936 148.973 174.781 146.372 175.264 145.006Z" fill="#E79795"/>
<path d="M175.626 145.006C170.255 145.091 160.467 145.726 156.498 144.283" stroke="black" stroke-width="0.721897" stroke-linecap="round"/>
<path d="M84.4183 206.005C85.2846 203.695 108.963 187.266 125.566 181.01L144.336 202.661C148.306 206.15 160.578 217.099 167.075 214.211C170.253 212.799 175.137 192.915 177.904 188.945C186.446 192.194 198.839 201.457 206.058 203.479C213.277 205.5 220.565 234.28 220.565 243.183H79.4346C79.4346 235.603 83.552 208.316 84.4183 206.005Z" fill="#202F72"/>
<path d="M180.818 83.0248C181.339 78.7249 176.771 74.4147 174.421 72.797C178.525 68.931 181.816 74.7832 185.367 78.4855C186.872 80.0537 188.988 97.4114 190.421 108.814C191.695 118.947 198.003 119.906 196.156 121.507C196.707 120.78 184.267 121.997 181.387 111.356C178.991 102.501 180.582 84.9779 180.818 83.0248Z" fill="#140610"/>
<path d="M168.393 74.6939C168.914 70.3939 168.235 67.3707 165.885 65.7531C169.989 61.887 173.28 67.7393 176.831 71.4415C178.335 73.0098 173.472 89.0011 174.905 100.404C176.179 110.537 185.578 111.575 183.73 113.176C184.281 112.449 171.841 113.666 168.962 103.025C166.565 94.1701 168.156 76.647 168.393 74.6939Z" fill="#2E0822"/>
<path d="M175.39 76.2816C172.478 72.3623 170.44 68.9909 168.072 67.5327C172.112 64.1882 185.452 69.2915 189.05 72.6026C190.574 74.0052 189.264 85.6323 187.99 95.7806C183.517 108.527 194.125 115.748 192.304 117.131C192.843 116.499 179.396 110.645 176.367 101.234C173.847 93.403 176.481 77.7509 175.39 76.2816Z" fill="#2E0822"/>
<path d="M124.742 122.773C124.994 123.094 126.534 126.989 127.273 128.896C127.829 130.32 126.61 131.361 125.893 131.274C125.176 131.188 124.644 132.577 124.872 133.696C125.101 134.814 125.872 137.453 124.352 137.996C122.832 138.539 116.979 129.831 116.078 128.268C115.176 126.704 115.697 122.404 116.674 120.341C117.651 118.278 118.997 119.168 120.518 118.625C122.038 118.082 124.427 122.371 124.742 122.773Z" fill="#D36266"/>
<path d="M126.772 127.019C125.671 124.098 122.808 118.322 120.158 118.582C117.509 118.843 116.463 120.074 116.271 120.656" stroke="#793033" stroke-width="0.721897" stroke-linecap="round"/>
<ellipse cx="180.602" cy="116.632" rx="1.02531" ry="0.721897" transform="rotate(6.9042 180.602 116.632)" fill="white"/>
<path d="M169.293 83.9033C166.486 71.056 170.504 68.9005 172.864 69.4287C170.216 67.2907 168.465 66.7139 166.196 70.4386C163.927 74.1633 166.585 86.7058 166.994 90.8958C168.051 101.736 158.668 108.868 152.167 114.282C161.917 111.756 172.803 99.9623 169.293 83.9033Z" fill="#2E0822"/>
<path d="M160.873 85.9729C163.493 70.7576 166.204 65.6071 161.81 65.5301C167.189 64.1108 167.705 63.5848 170.701 67.7826C173.697 71.9803 166.949 90.7934 164.998 94.7735C163.822 97.1736 164.826 109.989 168.289 113.718C161.117 112.475 159.04 96.6147 160.873 85.9729Z" fill="#2E0822"/>
<path d="M174.926 137.079C174.76 137.189 174.715 137.413 174.825 137.579C174.935 137.746 175.159 137.791 175.325 137.681L174.926 137.079ZM173.101 115.769C173.101 117.992 173.711 120.61 174.8 122.766C175.881 124.906 177.484 126.682 179.521 127.049L179.649 126.338C177.949 126.032 176.49 124.511 175.444 122.44C174.406 120.384 173.823 117.877 173.823 115.769L173.101 115.769ZM179.521 127.049C180.342 127.197 180.802 127.615 181.05 128.162C181.309 128.732 181.352 129.477 181.242 130.271C181.132 131.059 180.877 131.858 180.582 132.509C180.435 132.834 180.281 133.117 180.134 133.339C179.983 133.568 179.854 133.711 179.764 133.778L180.199 134.355C180.385 134.215 180.568 133.992 180.736 133.738C180.908 133.477 181.081 133.16 181.24 132.807C181.559 132.103 181.836 131.237 181.957 130.37C182.076 129.509 182.046 128.609 181.708 127.863C181.359 127.095 180.697 126.527 179.649 126.338L179.521 127.049ZM179.764 133.778C179.221 134.187 178.016 135.01 176.937 135.736C176.4 136.098 175.897 136.434 175.529 136.679C175.345 136.802 175.194 136.902 175.089 136.971C175.037 137.006 174.996 137.033 174.969 137.051C174.955 137.06 174.944 137.067 174.937 137.072C174.934 137.074 174.931 137.076 174.929 137.077C174.928 137.078 174.928 137.078 174.927 137.079C174.927 137.079 174.927 137.079 174.927 137.079C174.927 137.079 174.927 137.079 174.926 137.079C174.926 137.079 174.926 137.079 175.126 137.38C175.325 137.681 175.325 137.681 175.325 137.681C175.325 137.681 175.325 137.681 175.325 137.681C175.325 137.681 175.325 137.681 175.325 137.681C175.326 137.68 175.327 137.68 175.328 137.679C175.329 137.678 175.332 137.676 175.336 137.674C175.343 137.669 175.353 137.662 175.367 137.653C175.395 137.635 175.436 137.608 175.488 137.573C175.593 137.503 175.744 137.403 175.929 137.28C176.298 137.034 176.802 136.698 177.341 136.335C178.414 135.612 179.637 134.778 180.199 134.355L179.764 133.778Z" fill="#622B20"/>
<ellipse cx="178.155" cy="128.578" rx="0.784459" ry="0.721897" transform="rotate(3.19743 178.155 128.578)" fill="#FFDCD6"/>
<path d="M172.74 136.343C172.018 135.982 170.574 135.62 168.408 136.343" stroke="black" stroke-width="0.721897" stroke-linecap="round"/>
<path d="M167.698 119.394C166.725 114.972 160.788 113.401 149.787 114.757C144.076 115.461 143.922 125.159 151.286 128.257C159.754 131.819 169.769 128.81 167.698 119.394ZM167.698 119.394C170.569 117.187 171.484 117.501 172.893 118.065M172.893 118.065C174.771 115.717 181.224 111.389 186.287 114.757C191.508 118.23 187.287 126.257 182.287 126.257C178.611 126.257 174.287 125.257 172.893 118.065Z" stroke="#28111B" stroke-width="1.40845"/>
<path d="M78.2085 260.113H76.9018V272.464H78.2085V260.113ZM68.4291 265.353C68.4291 268.015 69.7564 269.693 71.6201 269.686C73.4495 269.693 74.7974 268.015 74.7974 265.353C74.7974 262.719 73.4495 261.041 71.6201 261.034C69.7564 261.041 68.4291 262.719 68.4291 265.353ZM69.6945 265.353C69.6876 263.421 70.4716 262.21 71.6201 262.203C72.748 262.21 73.532 263.421 73.532 265.353C73.532 267.313 72.748 268.517 71.6201 268.517C70.4716 268.517 69.6876 267.313 69.6945 265.353ZM91.4402 266.426H80.1616V267.471H91.4402V266.426ZM81.5783 261.419H88.7169V262.465H81.6058V265.491H90.2711V264.487H82.8987V263.428H90.0235V260.388H81.5783V261.419ZM81.6608 272.285H90.0373V268.475H81.6608V272.285ZM82.9538 271.226V269.521H88.7444V271.226H82.9538Z" fill="#ECECF8" fill-opacity="0.7"/>
<path d="M75.9665 280.458H68.9518V282.092H73.7053C73.3752 284.114 71.4606 285.781 68.077 286.647L68.8858 288.281C73.3752 287.126 75.9665 284.419 75.9665 280.458ZM70.5528 294.421H80.5715V288.595H70.5528V294.421ZM72.649 292.771V290.246H78.5083V292.771H72.649ZM78.4588 287.984H80.5715V279.6H78.4588V287.984ZM94.5185 279.583H92.4058V288.298H94.5185V284.832H96.5486V283.115H94.5185V279.583ZM82.5026 286.928L83.3444 288.628C87.8173 287.382 90.3344 284.576 90.3261 280.573H83.2123V282.257H88.0319C87.7018 284.337 85.8119 286.053 82.5026 286.928ZM84.5328 291.549C84.5163 293.448 86.5629 294.619 89.6164 294.619C92.6781 294.619 94.6753 293.448 94.6835 291.549C94.6753 289.668 92.6781 288.479 89.6164 288.479C86.5629 288.479 84.5163 289.668 84.5328 291.549ZM86.6124 291.549C86.6042 290.625 87.7265 290.114 89.6164 290.114C91.4815 290.114 92.6038 290.625 92.6038 291.549C92.6038 292.457 91.4815 292.977 89.6164 292.969C87.7265 292.977 86.6042 292.457 86.6124 291.549ZM101.484 280.029C99.1647 280.021 97.4399 281.457 97.4399 283.462C97.4399 285.451 99.1647 286.87 101.484 286.878C103.77 286.87 105.486 285.451 105.494 283.462C105.486 281.457 103.77 280.021 101.484 280.029ZM99.4865 283.462C99.47 282.381 100.328 281.745 101.484 281.745C102.623 281.745 103.456 282.381 103.464 283.462C103.456 284.535 102.623 285.17 101.484 285.178C100.32 285.17 99.47 284.535 99.4865 283.462ZM99.7011 289.354H107.69V290.279H99.7341V294.438H110.198V292.787H101.797V291.814H109.786V287.737H99.7011V289.354ZM107.673 287.11H109.786V279.583H107.673V287.11Z" fill="#ECECF8"/>
<path d="M80.4229 314.823H70.4042V316.061H78.8549V320.121H80.4229V314.823ZM68.3081 309.723C68.2998 311.827 69.9586 313.313 72.1868 313.305C73.4412 313.313 74.5141 312.826 75.2073 312.017H78.8549V314.047H80.4229V305.332H78.8549V307.445H75.2073C74.5223 306.636 73.4412 306.149 72.1868 306.158C69.9586 306.149 68.2998 307.635 68.3081 309.723ZM69.8101 309.723C69.8018 308.402 70.8004 307.486 72.1868 307.478C73.5155 307.486 74.5306 308.402 74.5306 309.723C74.5306 311.076 73.5155 311.976 72.1868 311.984C70.8004 311.976 69.8018 311.076 69.8101 309.723ZM75.8922 310.73C75.983 310.416 76.0325 310.078 76.0325 309.723C76.0325 309.376 75.983 309.046 75.9005 308.733H78.8549V310.73H75.8922ZM94.3204 305.283H92.7524V313.42H94.3204V310.036H96.4826V308.749H94.3204V305.283ZM82.7172 307.825H91.531V306.587H87.9163V305.2H86.3483V306.587H82.7172V307.825ZM83.5259 310.812C83.5177 312.314 84.9536 313.23 87.1241 313.222C89.2945 313.23 90.7057 312.314 90.7057 310.812C90.7057 309.319 89.2945 308.386 87.1241 308.386C84.9536 308.386 83.5177 309.319 83.5259 310.812ZM84.7638 315.285H92.7689V316.441H84.7968V319.973H94.8321V318.784H86.3318V317.546H94.3204V314.113H84.7638V315.285ZM85.0444 310.812C85.0279 310.012 85.8449 309.517 87.1241 309.508C88.395 309.517 89.2203 310.012 89.2368 310.812C89.2203 311.613 88.395 312.083 87.1241 312.083C85.8449 312.083 85.0279 311.613 85.0444 310.812ZM113.929 312.034H110.149V307.94H113.78V306.669H108.581V313.288H113.929V312.034ZM101.434 318.273H114.969V317.002H108.911V313.998H107.376V317.002H101.434V318.273ZM102.557 313.288H103.431C104.999 313.296 106.336 313.255 107.921 312.908L107.789 311.604C106.51 311.893 105.354 311.984 104.125 312.001V307.957H107.657V306.686H102.557V313.288ZM128.008 309.657H119.375V305.861H117.824V310.911H128.008V309.657ZM116.025 314.031H129.559V312.776H116.025V314.031ZM117.708 319.775H128.107V318.487H119.276V315.434H117.708V319.775ZM140.255 307.99V307.577H143.506V306.306H135.353V307.577H138.67V307.99C138.662 309.995 137.242 311.926 134.94 312.727L135.749 313.932C137.506 313.313 138.819 312.042 139.487 310.441C140.156 311.926 141.443 313.09 143.143 313.651L143.952 312.43C141.666 311.712 140.255 309.888 140.255 307.99ZM137.02 316.275H145.47V320.121H147.038V315.005H137.02V316.275ZM145.47 314.262H147.038V305.332H145.47V314.262ZM153.855 308.584V308.452H156.397V307.198H153.855V305.498H152.369V307.198H149.795V308.452H152.369V308.584C152.361 310.375 151.338 312.067 149.465 312.826L150.207 313.981C151.643 313.395 152.634 312.289 153.153 310.944C153.682 312.182 154.655 313.197 156.05 313.734L156.793 312.545C154.911 311.877 153.855 310.251 153.855 308.584ZM151.94 316.408H160.441V320.121H161.992V315.137H151.94V316.408ZM157.321 314.328H158.823V310.499H160.507V314.394H161.992V305.349H160.507V309.211H158.823V305.597H157.321V314.328Z" fill="#ECECF8" fill-opacity="0.7"/>
<rect x="67.9009" y="328.704" width="164.197" height="24.9296" rx="12.4648" fill="#170330"/>
<path d="M83.4934 338.636H85.8702C85.8371 336.523 84.0958 335.054 81.4467 335.054C78.8307 335.054 76.916 336.498 76.9243 338.669C76.9243 340.418 78.1622 341.425 80.1758 341.92L81.4798 342.234C82.7837 342.556 83.5264 342.935 83.5264 343.752C83.5264 344.644 82.6846 345.254 81.3807 345.254C80.0603 345.254 79.103 344.644 79.0205 343.439H76.6107C76.685 346.005 78.5253 347.342 81.4137 347.334C84.3269 347.342 86.027 345.939 86.0352 343.752C86.027 341.763 84.5002 340.724 82.4536 340.253L81.3807 339.989C80.3491 339.758 79.4579 339.37 79.4661 338.504C79.4744 337.711 80.1758 337.134 81.4302 337.134C82.6434 337.134 83.3944 337.687 83.4934 338.636ZM91.6305 347.351C94.3456 347.342 96.0292 345.485 96.0374 342.713C96.0292 339.948 94.3456 338.091 91.6305 338.091C88.9236 338.091 87.2318 339.948 87.2401 342.713C87.2318 345.485 88.9236 347.342 91.6305 347.351ZM89.7159 342.713C89.7159 341.136 90.3678 339.956 91.647 339.956C92.8932 339.956 93.5534 341.136 93.5451 342.713C93.5534 344.281 92.8932 345.444 91.647 345.452C90.3678 345.444 89.7159 344.281 89.7159 342.713ZM102.342 338.207H100.56V337.662C100.56 336.911 100.981 336.614 101.765 336.606C101.897 336.614 102.153 336.622 102.507 336.655V334.806C102.078 334.707 101.608 334.658 101.055 334.658C99.2559 334.658 98.1171 335.64 98.1171 337.53V338.207H96.8462V340.039H98.1171V347.169H100.56V340.039H102.342V338.207ZM108.499 338.207H106.815V336.061H104.373V338.207H103.135V340.039H104.373V344.759C104.356 346.5 105.561 347.293 107.327 347.284C107.929 347.293 108.367 347.243 108.631 347.202V345.271C108.334 345.296 107.905 345.32 107.657 345.32C107.162 345.304 106.807 345.131 106.815 344.413V340.039H108.499V338.207ZM111.8 347.169H114.391L115.943 341.475H116.058L117.61 347.169H120.185L122.644 338.207H120.168L118.782 344.231H118.699L117.214 338.207H114.787L113.318 344.264H113.236L111.833 338.207H109.357L111.8 347.169ZM123.453 344.66C123.461 346.434 124.724 347.342 126.44 347.334C127.769 347.342 128.627 346.756 129.064 345.931H129.131V347.169H131.441V341.128C131.449 338.966 129.601 338.091 127.645 338.091C125.268 338.091 123.915 339.312 123.766 340.864H126.094C126.226 340.253 126.745 339.882 127.579 339.874C128.495 339.882 129.007 340.311 129.015 341.062V341.788C128.635 341.805 127.43 341.862 126.787 341.904C125.062 342.011 123.461 342.663 123.453 344.66ZM125.796 344.594C125.796 343.901 126.333 343.497 127.183 343.422C127.596 343.389 128.644 343.331 129.015 343.315V343.967C129.023 344.916 128.247 345.642 127.133 345.65C126.349 345.642 125.796 345.279 125.796 344.594ZM133.306 347.169H135.749V342.069C135.741 340.971 136.558 340.204 137.664 340.204C138.002 340.204 138.472 340.261 138.704 340.336V338.157C138.489 338.108 138.175 338.075 137.928 338.075C136.921 338.075 136.087 338.66 135.766 339.758H135.667V338.207H133.306V347.169ZM143.672 347.351C145.883 347.342 147.369 346.269 147.715 344.611H145.388C145.149 345.147 144.555 345.51 143.721 345.518C142.459 345.51 141.658 344.677 141.658 343.323H147.781V342.63C147.781 339.577 145.925 338.091 143.573 338.091C140.948 338.091 139.24 339.964 139.248 342.729C139.24 345.568 140.924 347.342 143.672 347.351ZM141.658 341.788C141.708 340.757 142.5 339.915 143.622 339.923C144.711 339.915 145.462 340.699 145.471 341.788H141.658ZM153.261 347.169H161.299V345.122H155.737V342.217H160.87V340.171H155.737V337.266H161.283V335.219H153.261V347.169ZM165.607 341.986C165.607 340.806 166.309 340.121 167.324 340.121C168.339 340.121 168.933 340.781 168.941 341.887V347.169H171.368V341.458C171.376 339.37 170.154 338.091 168.281 338.091C166.952 338.091 165.995 338.743 165.591 339.775H165.492V338.207H163.164V347.169H165.607V341.986ZM177.293 350.718C179.843 350.718 181.642 349.554 181.65 347.268V338.207H179.224V339.709H179.125C178.795 338.982 178.069 338.091 176.567 338.091C174.586 338.091 172.919 339.601 172.919 342.63C172.919 345.617 174.545 347.045 176.567 347.037C178.011 347.045 178.803 346.311 179.125 345.584H179.241V347.218C179.232 348.465 178.473 348.952 177.342 348.952C176.369 348.952 175.692 348.63 175.56 347.912H173.15C173.29 349.603 174.817 350.718 177.293 350.718ZM175.428 342.663C175.42 341.12 176.08 340.039 177.326 340.039C178.556 340.039 179.241 341.07 179.241 342.663C179.241 344.256 178.547 345.197 177.326 345.205C176.088 345.197 175.42 344.214 175.428 342.663ZM183.548 347.169H185.991V338.207H183.548V347.169ZM183.433 335.797C183.433 336.474 184.035 337.035 184.77 337.035C185.496 337.035 186.098 336.474 186.09 335.797C186.098 335.104 185.496 334.551 184.77 334.542C184.035 334.551 183.433 335.104 183.433 335.797ZM190.332 341.986C190.332 340.806 191.034 340.121 192.049 340.121C193.064 340.121 193.658 340.781 193.666 341.887V347.169H196.092V341.458C196.101 339.37 194.879 338.091 193.006 338.091C191.677 338.091 190.72 338.743 190.316 339.775H190.217V338.207H187.889V347.169H190.332V341.986ZM202.051 347.351C204.263 347.342 205.748 346.269 206.095 344.611H203.767C203.528 345.147 202.934 345.51 202.1 345.518C200.838 345.51 200.037 344.677 200.037 343.323H206.161V342.63C206.161 339.577 204.304 338.091 201.952 338.091C199.327 338.091 197.619 339.964 197.627 342.729C197.619 345.568 199.303 347.342 202.051 347.351ZM200.037 341.788C200.087 340.757 200.879 339.915 202.001 339.923C203.091 339.915 203.842 340.699 203.85 341.788H200.037ZM211.756 347.351C213.968 347.342 215.453 346.269 215.8 344.611H213.472C213.233 345.147 212.639 345.51 211.805 345.518C210.543 345.51 209.742 344.677 209.742 343.323H215.866V342.63C215.866 339.577 214.009 338.091 211.657 338.091C209.033 338.091 207.324 339.964 207.333 342.729C207.324 345.568 209.008 347.342 211.756 347.351ZM209.742 341.788C209.792 340.757 210.584 339.915 211.706 339.923C212.796 339.915 213.547 340.699 213.555 341.788H209.742ZM217.401 347.169H219.844V342.069C219.835 340.971 220.652 340.204 221.758 340.204C222.097 340.204 222.567 340.261 222.798 340.336V338.157C222.583 338.108 222.27 338.075 222.022 338.075C221.015 338.075 220.182 338.66 219.86 339.758H219.761V338.207H217.401V347.169Z" fill="#944AF2"/>
<rect x="67.9009" y="328.704" width="164.197" height="24.9296" rx="12.4648" stroke="#944AF2" stroke-width="0.704225"/>
<rect x="67.9009" y="359.972" width="98.1972" height="24.9296" rx="12.4648" fill="#170330"/>
<path d="M81.2157 378.437C84.8633 378.437 87.0668 376.184 87.0585 372.445C87.0668 368.723 84.8633 366.487 81.2652 366.487H77.0068V378.437H81.2157ZM79.4826 376.307V368.616H81.1331C83.3944 368.616 84.5827 369.788 84.5827 372.445C84.5827 375.127 83.3944 376.307 81.1166 376.307H79.4826ZM92.8684 378.618C95.0801 378.61 96.5656 377.537 96.9122 375.878H94.5849C94.3456 376.415 93.7514 376.778 92.9179 376.786C91.6553 376.778 90.8548 375.944 90.8548 374.591H96.9782V373.898C96.9782 370.844 95.1214 369.359 92.7694 369.359C90.145 369.359 88.4367 371.232 88.445 373.997C88.4367 376.836 90.1203 378.61 92.8684 378.618ZM90.8548 373.056C90.9043 372.024 91.6965 371.182 92.8189 371.191C93.9082 371.182 94.6592 371.966 94.6675 373.056H90.8548ZM106.584 369.474H103.993L102.111 375.911H102.012L100.131 369.474H97.5559L100.692 378.437H103.432L106.584 369.474ZM111.536 378.618C113.748 378.61 115.233 377.537 115.58 375.878H113.252C113.013 376.415 112.419 376.778 111.585 376.786C110.323 376.778 109.522 375.944 109.522 374.591H115.646V373.898C115.646 370.844 113.789 369.359 111.437 369.359C108.813 369.359 107.104 371.232 107.112 373.997C107.104 376.836 108.788 378.61 111.536 378.618ZM109.522 373.056C109.572 372.024 110.364 371.182 111.486 371.191C112.576 371.182 113.327 371.966 113.335 373.056H109.522ZM119.623 366.487H117.181V378.437H119.623V366.487ZM125.549 378.618C128.264 378.61 129.948 376.753 129.956 373.98C129.948 371.215 128.264 369.359 125.549 369.359C122.842 369.359 121.15 371.215 121.158 373.98C121.15 376.753 122.842 378.61 125.549 378.618ZM123.634 373.98C123.634 372.404 124.286 371.224 125.565 371.224C126.812 371.224 127.472 372.404 127.463 373.98C127.472 375.548 126.812 376.712 125.565 376.72C124.286 376.712 123.634 375.548 123.634 373.98ZM131.491 381.804H133.934V377.001H134C134.346 377.743 135.097 378.585 136.558 378.585C138.605 378.585 140.197 376.959 140.189 373.964C140.197 370.894 138.539 369.359 136.558 369.359C135.048 369.359 134.338 370.25 134 370.976H133.901V369.474H131.491V381.804ZM133.884 373.947C133.876 372.338 134.561 371.306 135.782 371.306C137.045 371.306 137.705 372.387 137.697 373.947C137.705 375.532 137.028 376.629 135.782 376.637C134.569 376.629 133.876 375.565 133.884 373.947ZM145.834 378.618C148.046 378.61 149.531 377.537 149.878 375.878H147.55C147.311 376.415 146.717 376.778 145.883 376.786C144.621 376.778 143.82 375.944 143.82 374.591H149.944V373.898C149.944 370.844 148.087 369.359 145.735 369.359C143.11 369.359 141.402 371.232 141.41 373.997C141.402 376.836 143.086 378.61 145.834 378.618ZM143.82 373.056C143.87 372.024 144.662 371.182 145.784 371.191C146.874 371.182 147.625 371.966 147.633 373.056H143.82ZM151.479 378.437H153.921V373.336C153.913 372.239 154.73 371.471 155.836 371.471C156.174 371.471 156.645 371.529 156.876 371.603V369.425C156.661 369.375 156.348 369.342 156.1 369.342C155.093 369.342 154.26 369.928 153.938 371.026H153.839V369.474H151.479V378.437Z" fill="#944AF2"/>
<rect x="67.9009" y="359.972" width="98.1972" height="24.9296" rx="12.4648" stroke="#944AF2" stroke-width="0.704225"/>
<path d="M28.2746 415.818H21.4305V419.339H24.1483V420.296H20.2971V421.429H29.43V420.296H25.5568V419.339H28.2746V415.818ZM21.3094 423.267H26.9212V425.435H28.3187V422.167H21.3094V423.267ZM22.8059 418.238V416.907H26.8992V418.238H22.8059ZM39.2011 423.201H36.8794V421.297H38.3869V420.164H37.0224V417.347H38.4309V416.225H30.7504V417.347H32.1369V420.164H30.7945V421.297H32.3129V423.201H30.0352V424.323H39.2011V423.201ZM33.5453 420.164V417.347H35.636V420.164H33.5453ZM33.7214 423.201V421.297H35.471V423.201H33.7214Z" fill="#ECECF8" fill-opacity="0.5"/>
<path d="M20.839 443.239H22.9022V439.704H24.4771L26.382 443.239H28.6653L26.5471 439.367C27.6818 438.879 28.3077 437.889 28.3077 436.527C28.3077 434.553 27.0079 433.281 24.7453 433.281H20.839V443.239ZM22.9022 438.026V434.973H24.3601C25.5843 434.98 26.1826 435.523 26.1757 436.527C26.1826 437.524 25.5843 438.026 24.3601 438.026H22.9022ZM34.4834 440.062C34.4834 441.08 33.7819 441.609 33.0392 441.616C32.2414 441.609 31.7325 441.059 31.7325 440.172V435.771H29.6969V440.53C29.6969 442.276 30.7216 443.336 32.2139 443.336C33.3418 443.336 34.1464 442.758 34.4834 441.891H34.5659V443.239H36.519V435.771H34.4834V440.062ZM40.1364 438.92C40.1364 437.937 40.721 437.366 41.5669 437.366C42.4128 437.366 42.908 437.916 42.9148 438.838V443.239H44.9367V438.48C44.9436 436.74 43.9258 435.674 42.3647 435.674C41.2574 435.674 40.4597 436.218 40.1227 437.077H40.0402V435.771H38.1008V443.239H40.1364V438.92ZM47.9902 443.239H50.1496L51.4426 438.494H51.5388L52.8318 443.239H54.9774L57.0268 435.771H54.9637L53.8083 440.791H53.7395L52.5016 435.771H50.4798L49.2556 440.818H49.1868L48.0177 435.771H45.9546L47.9902 443.239ZM57.7008 441.149C57.7077 442.627 58.7599 443.384 60.1904 443.377C61.2976 443.384 62.0128 442.895 62.3773 442.208H62.4323V443.239H64.3579V438.205C64.3648 436.403 62.8243 435.674 61.1944 435.674C59.2138 435.674 58.0859 436.692 57.9621 437.985H59.9015C60.0116 437.476 60.4448 437.167 61.1394 437.16C61.9028 437.167 62.3292 437.524 62.336 438.15V438.755C62.0197 438.769 61.0156 438.817 60.4792 438.852C59.0419 438.941 57.7077 439.484 57.7008 441.149ZM59.6539 441.094C59.6539 440.516 60.101 440.179 60.8093 440.117C61.1532 440.089 62.0266 440.041 62.336 440.028V440.571C62.3429 441.362 61.6965 441.967 60.768 441.974C60.1147 441.967 59.6539 441.664 59.6539 441.094ZM66.8337 446.045C68.4086 446.038 69.227 445.268 69.6534 444.065L72.5693 435.771H70.4099L68.8281 441.272H68.7456L67.1776 435.771H65.0457L67.7278 443.446L67.604 443.762C67.3564 444.408 67.0332 444.45 66.6274 444.45C66.373 444.45 66.0635 444.443 65.8022 444.422V446.004C66.0635 446.031 66.4349 446.038 66.8337 446.045ZM84.5769 437.6H73.1195V438.907H84.5769V437.6ZM74.4262 440.736H81.4684V441.369H74.4399V444.395H83.5728V443.198H76.1867V442.483H83.2015V439.526H74.4262V440.736ZM74.5224 433.405H81.4272V434.038H74.55V437.009H83.4078V435.826H76.2968V435.152H83.1877V432.208H74.5224V433.405ZM99.9681 438.439H95.1265V437.669H98.7439V436.321H91.7154V435.606H98.3451V434.34H91.7154V433.639H98.6339V432.291H89.9549V437.669H93.366V438.439H88.5244V439.814H99.9681V438.439ZM89.8586 442.442C89.8586 443.789 91.4404 444.512 94.2463 444.505C97.004 444.512 98.5926 443.789 98.6064 442.442C98.5926 441.121 97.004 440.378 94.2463 440.392C91.4404 440.378 89.8586 441.121 89.8586 442.442ZM91.6192 442.442C91.6054 441.919 92.4444 441.678 94.2463 441.685C96.0068 441.678 96.839 441.919 96.8458 442.442C96.839 442.978 96.0068 443.212 94.2463 443.212C92.4444 443.212 91.6054 442.978 91.6192 442.442ZM106.763 433.9H104.617V432.332H102.884V433.9H100.711V435.289H106.763V433.9ZM101 438.824C101 440.571 102.169 441.809 103.764 441.809C105.367 441.809 106.508 440.571 106.515 438.824C106.508 437.084 105.367 435.86 103.764 435.853C102.169 435.86 101 437.084 101 438.824ZM102.54 438.824C102.54 437.882 103.035 437.311 103.764 437.311C104.466 437.311 104.968 437.882 104.975 438.824C104.968 439.78 104.466 440.323 103.764 440.323C103.035 440.323 102.54 439.78 102.54 438.824ZM107.23 443.968H108.867V438.48H109.885V444.505H111.549V431.988H109.885V437.077H108.867V432.236H107.23V443.968ZM117.629 434.822V432.951H115.854V434.822C115.841 437.174 114.864 439.587 112.718 440.557L113.819 441.988C115.249 441.286 116.212 439.938 116.748 438.295C117.271 439.842 118.206 441.094 119.596 441.768L120.668 440.365C118.585 439.464 117.636 437.174 117.629 434.822ZM119.266 437.339H121.728V444.532H123.461V431.988H121.728V435.922H119.266V437.339ZM134.698 433.02H128.687V439.03H134.698V433.02ZM130.131 444.285H138.7V442.882H131.878V440.227H130.131V444.285ZM130.42 437.655V434.423H132.965V437.655H130.42ZM136.486 441.121H138.247V437.036H139.938V435.592H138.247V431.988H136.486V441.121ZM151.932 436.871H140.489V438.246H151.932V436.871ZM141.809 440.31H148.782V441.011H141.823V444.395H150.846V443.033H143.542V442.263H150.516V438.989H141.809V440.31ZM141.919 436.183H150.571V434.808H143.666V433.639H150.474V432.236H141.919V436.183ZM156.114 432.868C154.215 432.868 152.854 434.595 152.868 437.325C152.854 440.076 154.215 441.795 156.114 441.795C157.86 441.795 159.153 440.323 159.339 437.916H161.492V444.532H163.225V431.988H161.492V436.513H159.318C159.071 434.258 157.805 432.868 156.114 432.868ZM154.546 437.325C154.539 435.468 155.178 434.45 156.114 434.45C157.056 434.45 157.682 435.468 157.682 437.325C157.682 439.189 157.056 440.206 156.114 440.2C155.178 440.206 154.539 439.189 154.546 437.325ZM169.717 434.464V434.285H172.234V432.882H165.357V434.285H167.929V434.464C167.929 436.046 166.973 437.676 164.889 438.343L165.797 439.718C167.268 439.23 168.286 438.246 168.857 437.009C169.421 438.136 170.404 439.037 171.807 439.484L172.701 438.109C170.645 437.483 169.71 435.956 169.717 434.464ZM166.925 444.285H175.645V442.882H168.699V440.227H166.925V444.285ZM173.554 441.052H175.315V432.002H173.554V441.052ZM191.71 441.602H186.827V439.044H190.431V432.91H181.463V439.044H185.08V441.602H180.253V443.047H191.71V441.602ZM183.196 437.669V434.313H188.698V437.669H183.196ZM203.25 432.002H201.586V438.549H203.25V432.002ZM192.962 438.233H193.828C195.795 438.233 196.95 438.198 198.312 437.985L198.202 436.596C197.074 436.782 196.104 436.83 194.708 436.843V433.969H197.844V432.593H192.962V438.233ZM194.612 440.323H201.531V440.97H194.626V444.367H203.621V442.992H196.373V442.276H203.25V438.948H194.612V440.323ZM197.115 435.936H199.082V438.494H200.733V432.208H199.082V434.615H197.115V435.936ZM209.976 443.239L210.725 440.942H214.329L215.079 443.239H217.293L213.855 433.281H211.2L207.748 443.239H209.976ZM211.248 439.333L212.493 435.523H212.562L213.806 439.333H211.248ZM218.421 443.239H220.484V439.993H222.272C224.569 439.993 225.89 438.625 225.89 436.637C225.89 434.677 224.59 433.281 222.327 433.281H218.421V443.239ZM220.484 438.329V434.973H221.942C223.166 434.98 223.765 435.647 223.758 436.637C223.765 437.641 223.166 438.329 221.942 438.329H220.484ZM229.259 433.281H227.196V443.239H229.259V433.281ZM241.914 437.6H230.456V438.907H241.914V437.6ZM231.763 440.736H238.805V441.369H231.777V444.395H240.909V443.198H233.523V442.483H240.538V439.526H231.763V440.736ZM231.859 433.405H238.764V434.038H231.887V437.009H240.744V435.826H233.633V435.152H240.524V432.208H231.859V433.405ZM22.5033 460.239L23.2529 457.942H26.8566L27.6062 460.239H29.8206L26.382 450.281H23.7274L20.2751 460.239H22.5033ZM23.7756 456.333L25.0204 452.523H25.0891L26.3339 456.333H23.7756ZM30.9072 463.045H32.9429V459.043H32.9979C33.2868 459.662 33.9126 460.363 35.1298 460.363C36.8354 460.363 38.1627 459.008 38.1558 456.512C38.1627 453.953 36.7804 452.674 35.1298 452.674C33.8713 452.674 33.2799 453.417 32.9979 454.022H32.9154V452.771H30.9072V463.045ZM32.9016 456.498C32.8948 455.157 33.4656 454.297 34.4834 454.297C35.5356 454.297 36.0858 455.198 36.0789 456.498C36.0858 457.818 35.5218 458.733 34.4834 458.74C33.4724 458.733 32.8948 457.846 32.9016 456.498ZM39.4762 463.045H41.5119V459.043H41.5669C41.8557 459.662 42.4816 460.363 43.6988 460.363C45.4044 460.363 46.7317 459.008 46.7248 456.512C46.7317 453.953 45.3494 452.674 43.6988 452.674C42.4403 452.674 41.8489 453.417 41.5669 454.022H41.4844V452.771H39.4762V463.045ZM41.4706 456.498C41.4637 455.157 42.0346 454.297 43.0524 454.297C44.1046 454.297 44.6548 455.198 44.6479 456.498C44.6548 457.818 44.0908 458.733 43.0524 458.74C42.0414 458.733 41.4637 457.846 41.4706 456.498ZM50.0809 450.281H48.0452V460.239H50.0809V450.281ZM51.6626 460.239H53.6983V452.771H51.6626V460.239ZM51.5664 450.762C51.5664 451.326 52.0684 451.794 52.6805 451.794C53.2857 451.794 53.7877 451.326 53.7808 450.762C53.7877 450.185 53.2857 449.724 52.6805 449.717C52.0684 449.724 51.5664 450.185 51.5664 450.762ZM58.6361 460.391C60.6167 460.384 61.8615 459.221 61.9509 457.53H60.0391C59.9084 458.321 59.3789 458.768 58.6636 458.768C57.6733 458.768 57.0406 457.942 57.0406 456.498C57.0406 455.081 57.6871 454.263 58.6636 454.256C59.4339 454.263 59.9153 454.772 60.0391 455.508H61.9509C61.8684 453.795 60.5617 452.674 58.6361 452.674C56.3735 452.674 54.9706 454.242 54.9774 456.526C54.9706 458.802 56.346 460.384 58.6361 460.391ZM62.8587 458.149C62.8656 459.627 63.9178 460.384 65.3483 460.377C66.4555 460.384 67.1707 459.895 67.5352 459.208H67.5902V460.239H69.5158V455.205C69.5227 453.403 67.9822 452.674 66.3523 452.674C64.3717 452.674 63.2438 453.692 63.12 454.985H65.0594C65.1695 454.476 65.6027 454.167 66.2973 454.16C67.0607 454.167 67.4871 454.524 67.4939 455.15V455.755C67.1776 455.769 66.1735 455.817 65.6371 455.852C64.1998 455.941 62.8656 456.484 62.8587 458.149ZM64.8118 458.094C64.8118 457.516 65.2589 457.179 65.9672 457.117C66.3111 457.089 67.1845 457.041 67.4939 457.028V457.571C67.5008 458.362 66.8544 458.967 65.9259 458.974C65.2726 458.967 64.8118 458.664 64.8118 458.094ZM75.0038 452.771H73.6009V450.983H71.5652V452.771H70.5337V454.297H71.5652V458.231C71.5515 459.682 72.5556 460.342 74.0273 460.336C74.5293 460.342 74.8938 460.301 75.1139 460.267V458.658C74.8663 458.678 74.5087 458.699 74.3024 458.699C73.8897 458.685 73.594 458.541 73.6009 457.942V454.297H75.0038V452.771ZM76.283 460.239H78.3187V452.771H76.283V460.239ZM76.1867 450.762C76.1867 451.326 76.6888 451.794 77.3008 451.794C77.906 451.794 78.4081 451.326 78.4012 450.762C78.4081 450.185 77.906 449.724 77.3008 449.717C76.6888 449.724 76.1867 450.185 76.1867 450.762ZM83.2565 460.391C85.5191 460.384 86.922 458.836 86.9289 456.526C86.922 454.222 85.5191 452.674 83.2565 452.674C81.0008 452.674 79.5909 454.222 79.5978 456.526C79.5909 458.836 81.0008 460.384 83.2565 460.391ZM81.661 456.526C81.661 455.212 82.2043 454.229 83.2702 454.229C84.3087 454.229 84.8589 455.212 84.852 456.526C84.8589 457.832 84.3087 458.802 83.2702 458.809C82.2043 458.802 81.661 457.832 81.661 456.526ZM90.2437 455.92C90.2437 454.937 90.8283 454.366 91.6742 454.366C92.5201 454.366 93.0152 454.916 93.0221 455.838V460.239H95.044V455.48C95.0509 453.74 94.0331 452.674 92.4719 452.674C91.3647 452.674 90.567 453.218 90.23 454.077H90.1474V452.771H88.2081V460.239H90.2437V455.92ZM110.243 448.988H108.551V453.733H107.409V449.318H105.772V460.954H107.409V455.136H108.551V461.505H110.243V448.988ZM99.2941 457.722L100.312 458.933C103.84 456.883 104.885 454.022 104.892 450.529H99.9268V451.932H103.18C102.946 454.387 101.846 456.223 99.2941 457.722ZM113.736 449.552H111.989V455.013H118.055V449.552H116.295V451.038H113.736V449.552ZM113.241 457.186H119.802V457.97H113.269V461.422H121.906V460.033H114.988V459.221H121.549V455.824H113.241V457.186ZM113.736 453.637V452.358H116.295V453.637H113.736ZM119.788 455.356H121.549V452.839H123.241V451.423H121.549V448.988H119.788V455.356ZM134.643 448.988H132.965V461.505H134.643V448.988ZM123.901 454.407C123.901 457.22 124.967 458.96 126.624 458.96C128.165 458.96 129.217 457.468 129.368 455.013H130.379V460.927H132.03V449.167H130.379V453.623H129.354C129.162 451.285 128.13 449.875 126.624 449.882C124.967 449.875 123.901 451.608 123.901 454.407ZM125.524 454.407C125.51 452.489 125.923 451.533 126.624 451.533C127.346 451.533 127.773 452.489 127.766 454.407C127.773 456.333 127.346 457.282 126.624 457.268C125.923 457.282 125.51 456.333 125.524 454.407ZM143.817 451.822V449.951H142.057V451.822C142.057 454.146 141.059 456.539 138.934 457.516L140.021 458.933C141.438 458.231 142.4 456.904 142.951 455.288C143.466 456.794 144.374 458.032 145.715 458.699L146.774 457.296C144.766 456.326 143.81 454.064 143.817 451.822ZM147.324 461.505H149.085V455.301H150.928V453.816H149.085V448.988H147.324V461.505ZM162.798 454.916H160.171V453.431C161.106 453.032 161.636 452.406 161.643 451.588C161.636 450.075 159.855 449.174 157.09 449.167C154.305 449.174 152.524 450.075 152.524 451.588C152.524 452.392 153.039 453.011 153.954 453.417V454.916H151.382V456.319H162.798V454.916ZM152.689 459.221C152.689 460.7 154.332 461.491 157.076 461.491C159.779 461.491 161.423 460.7 161.437 459.221C161.423 457.777 159.779 456.973 157.076 456.979C154.332 456.973 152.689 457.777 152.689 459.221ZM154.353 451.588C154.339 450.886 155.323 450.515 157.09 450.515C158.837 450.515 159.827 450.886 159.827 451.588C159.827 452.275 158.837 452.626 157.09 452.619C155.323 452.626 154.339 452.275 154.353 451.588ZM154.477 459.221C154.47 458.602 155.343 458.307 157.076 458.3C158.775 458.307 159.669 458.602 159.676 459.221C159.669 459.861 158.775 460.184 157.076 460.184C155.343 460.184 154.47 459.861 154.477 459.221ZM155.728 454.916V453.864C156.148 453.912 156.602 453.94 157.09 453.94C157.565 453.94 158.012 453.919 158.424 453.864V454.916H155.728ZM173.43 448.988H171.697V461.505H173.43V455.329H175.273V453.885H173.43V448.988ZM163.486 452.262H170.845V450.859H168.08V449.181H166.319V450.859H163.486V452.262ZM163.995 455.948C163.988 457.695 165.35 458.926 167.2 458.933C169.022 458.926 170.391 457.695 170.391 455.948C170.391 454.201 169.022 452.956 167.2 452.963C165.35 452.956 163.988 454.201 163.995 455.948ZM165.673 455.948C165.673 454.985 166.312 454.394 167.2 454.38C168.073 454.394 168.713 454.985 168.713 455.948C168.713 456.918 168.073 457.495 167.2 457.488C166.312 457.495 165.673 456.918 165.673 455.948ZM185.892 452.399H178.891V449.428H177.144V453.775H185.892V452.399ZM175.714 456.498H187.171V455.123H175.714V456.498ZM177.034 461.23H185.974V459.827H178.795V457.516H177.034V461.23ZM195.754 451.822V449.951H193.993V451.822C193.993 454.146 192.996 456.539 190.871 457.516L191.958 458.933C193.374 458.231 194.337 456.904 194.887 455.288C195.403 456.794 196.311 458.032 197.652 458.699L198.711 457.296C196.703 456.326 195.747 454.064 195.754 451.822ZM199.261 461.505H201.022V455.301H202.865V453.816H201.022V448.988H199.261V461.505ZM213.249 449.002H211.489V456.429H213.249V453.417H214.941V451.959H213.249V449.002ZM203.759 451.01H207.803V452.097H203.773V455.975H204.832C207.369 455.975 208.979 455.913 210.774 455.563L210.581 454.187C208.985 454.469 207.583 454.531 205.519 454.545V453.417H209.508V449.607H203.759V451.01ZM205.052 461.367H213.249V456.952H205.052V461.367ZM206.771 459.964V458.327H211.53V459.964H206.771ZM225.972 448.988H224.212V455.714H225.972V448.988ZM215.684 452.482C215.684 454.187 217.156 455.411 219.109 455.411C221.055 455.411 222.527 454.187 222.534 452.482C222.527 450.721 221.055 449.497 219.109 449.511C217.156 449.497 215.684 450.721 215.684 452.482ZM217.403 452.482C217.389 451.54 218.105 450.962 219.109 450.969C220.085 450.962 220.794 451.54 220.801 452.482C220.794 453.41 220.085 453.967 219.109 453.967C218.105 453.967 217.389 453.41 217.403 452.482ZM217.596 461.367H225.972V456.264H224.225V457.433H219.329V456.264H217.596V461.367ZM219.329 459.95V458.795H224.225V459.95H219.329ZM238.186 448.988H236.439V461.505H238.186V448.988ZM228.338 458.41H229.438C231.371 458.417 233.448 458.279 235.642 457.818L235.421 456.374C233.578 456.732 231.763 456.89 230.071 456.918V450.185H228.338V458.41ZM249.712 448.988H247.952V461.532H249.712V455.068H251.555V453.637H249.712V448.988ZM240.332 458.492H241.391C243.598 458.499 245.304 458.451 247.25 458.121L247.058 456.649C245.393 456.938 243.894 457.034 242.079 457.048V451.56H246.205V450.144H240.332V458.492ZM253.632 460.363C254.244 460.363 254.774 459.847 254.774 459.208C254.774 458.575 254.244 458.059 253.632 458.066C252.986 458.059 252.463 458.575 252.477 459.208C252.463 459.847 252.986 460.363 253.632 460.363Z" fill="#ECECF8"/>
<path d="M29.452 498.139H25.5678V497.281H28.4067V496.18H22.8059V494.937H28.3517V493.847H21.4085V497.281H24.1923V498.139H20.2971V499.239H29.452V498.139ZM21.3424 501.594C21.3424 502.766 22.6629 503.432 24.8526 503.432C27.0257 503.432 28.3297 502.766 28.3407 501.594C28.3297 500.406 27.0257 499.745 24.8526 499.745C22.6629 499.745 21.3424 500.406 21.3424 501.594ZM22.7729 501.594C22.7674 501.077 23.4661 500.813 24.8526 500.813C26.2115 500.813 26.9267 501.077 26.9322 501.594C26.9267 502.117 26.2115 502.364 24.8526 502.364C23.4661 502.364 22.7674 502.117 22.7729 501.594ZM38.4529 493.407H37.0335V503.421H38.4529V493.407ZM30.0682 500.582L30.8055 501.704C34.3816 500.015 35.4434 497.49 35.4489 494.453H30.6074V495.553H34.0185C33.7929 497.776 32.654 499.36 30.0682 500.582ZM47.7729 494.013H42.8763V498.227H47.7729V494.013ZM43.4045 502.342L43.8886 503.399C45.5612 503.239 46.7551 502.65 47.3713 501.858C47.982 502.639 49.1648 503.244 50.8319 503.399L51.305 502.342C49.3189 502.15 48.268 501.363 48.114 500.681H50.9199V499.635H48.07V498.81H46.6615V499.635H43.8116V500.681H46.6175C46.4635 501.385 45.4071 502.177 43.4045 502.342ZM44.2628 497.127V495.102H46.3754V497.127H44.2628ZM49.3464 499.085H50.7438V493.407H49.3464V499.085ZM63.86 498.359H54.6941V499.47H58.6994V501.198H60.0858V499.47H63.86V498.359ZM55.7724 503.244H62.8477V502.122H57.1699V500.329H55.7724V503.244ZM55.8385 497.534H62.6827V493.847H55.8385V497.534ZM57.2139 496.444V494.937H61.3072V496.444H57.2139ZM73.103 493.407H71.7716V503.421H73.103V493.407ZM64.2342 500.494L65.0814 501.528C66.0002 500.967 66.6054 499.976 66.9465 498.81C67.2876 499.888 67.8708 500.78 68.7676 501.308L69.5929 500.274C68.1294 499.437 67.6067 497.754 67.6122 496.092V495.553H69.1307V494.431H64.6193V495.553H66.2588V496.092C66.2588 497.792 65.7086 499.586 64.2342 500.494ZM68.4155 497.974H69.7359V502.958H71.0563V493.572H69.7359V496.84H68.4155V497.974ZM82.621 493.407H81.2236V495.718H79.6391V496.862H81.2236V499.195H82.621V493.407ZM74.1263 498.106L74.8415 499.206C76.0189 498.832 76.8222 498.034 77.2623 497.033C77.697 497.935 78.4617 498.667 79.5731 499.03L80.2663 497.919C78.7038 497.396 77.9831 496.191 77.9665 495.047H79.9582V493.913H74.5224V495.047H76.5361C76.4976 496.307 75.7493 497.583 74.1263 498.106ZM75.8869 503.31H82.621V499.613H75.8869V503.31ZM77.2953 502.188V500.714H81.2456V502.188H77.2953ZM92.6012 493.407H91.2588V503.421H92.6012V493.407ZM84.0075 497.743C84.0075 499.993 84.8603 501.385 86.1862 501.385C87.4186 501.385 88.2603 500.191 88.3814 498.227H89.1901V502.958H90.5106V493.55H89.1901V497.116H88.3704C88.2163 495.245 87.3911 494.117 86.1862 494.123C84.8603 494.117 84.0075 495.503 84.0075 497.743ZM85.3059 497.743C85.2949 496.208 85.625 495.443 86.1862 495.443C86.7639 495.443 87.105 496.208 87.0995 497.743C87.105 499.283 86.7639 500.042 86.1862 500.031C85.625 500.042 85.2949 499.283 85.3059 497.743ZM104.914 493.407H103.583V497.27H102.614V493.572H101.327V502.936H102.614V498.392H103.583V503.421H104.914V493.407ZM96.5405 501.154H97.2337C98.5541 501.148 99.6215 501.11 100.843 500.879L100.744 499.734C99.7755 499.905 98.9173 499.96 97.9489 499.976V495.696H100.271V494.563H96.5405V501.154ZM113.937 493.418H112.529V500.89H113.937V497.633H115.29V496.488H113.937V493.418ZM105.993 495.575H111.934V494.464H109.668V493.396H108.27V494.464H105.993V495.575ZM106.477 497.864C106.477 499.019 107.506 499.778 108.963 499.778C110.416 499.778 111.428 499.019 111.428 497.864C111.428 496.703 110.416 495.927 108.963 495.927C107.506 495.927 106.477 496.703 106.477 497.864ZM107.445 503.244H114.3V502.122H108.842V500.318H107.445V503.244ZM107.852 497.864C107.847 497.308 108.292 497 108.963 496.994C109.64 497 110.097 497.308 110.097 497.864C110.097 498.414 109.64 498.711 108.963 498.711C108.292 498.711 107.847 498.414 107.852 497.864ZM126.767 493.407H125.37V494.904H123.488V496.015H125.37V498.502H126.767V493.407ZM118.25 497.468L118.977 498.579C120.149 498.21 120.935 497.462 121.375 496.499C121.81 497.358 122.558 498.029 123.631 498.37L124.368 497.292C122.773 496.818 122.074 495.658 122.08 494.464V493.737H120.66V494.464C120.655 495.757 119.912 496.978 118.25 497.468ZM120.11 499.998H125.381V500.571H120.121V503.31H127.053V502.21H121.507V501.594H126.767V498.92H120.11V499.998ZM136.505 493.407H135.108V494.871H133.237V494.145H128.484V498.722H133.237V497.996H135.108V499.272H136.505V493.407ZM129.639 501.484C129.639 502.722 130.949 503.426 133.083 503.421C135.223 503.426 136.533 502.722 136.538 501.484C136.533 500.252 135.223 499.531 133.083 499.536C130.949 499.531 129.639 500.252 129.639 501.484ZM129.881 497.611V495.256H131.862V497.611H129.881ZM131.037 501.484C131.037 500.89 131.757 500.604 133.083 500.604C134.415 500.604 135.135 500.89 135.141 501.484C135.135 502.056 134.415 502.353 133.083 502.353C131.757 502.353 131.037 502.056 131.037 501.484ZM133.237 496.862V495.982H135.108V496.862H133.237Z" fill="#ECECF8" fill-opacity="0.5"/>
<path d="M29.353 517.136H25.2707V514.748H28.2416V510.16H21.4525V514.748H24.4234V517.136H20.3961V517.862H29.353V517.136ZM22.2997 514.055V510.853H27.4054V514.055H22.2997ZM38.4639 509.345H37.6386V514.55H38.4639V509.345ZM30.6184 514.055H31.2346C32.7421 514.055 33.7049 514.016 34.8878 513.802L34.8327 513.086C33.7269 513.307 32.8136 513.351 31.4767 513.351V510.611H34.3486V509.917H30.6184V514.055ZM31.9498 515.672H37.6276V516.586H31.9718V518.984H38.838V518.291H32.8301V517.257H38.4639V514.979H31.9498V515.672ZM33.7324 512.184H35.757V514.462H36.5823V509.543H35.757V511.502H33.7324V512.184ZM50.7768 509.345H49.9186V516.498H50.7768V509.345ZM42.9313 512.426C42.9258 513.851 44.0317 514.842 45.4952 514.836C46.9586 514.842 48.0535 513.851 48.059 512.426C48.0535 511.018 46.9586 510.033 45.4952 510.027C44.0317 510.033 42.9258 511.018 42.9313 512.426ZM43.7786 512.426C43.7676 511.469 44.5048 510.787 45.4952 510.787C46.469 510.787 47.2117 511.469 47.2117 512.426C47.2117 513.4 46.469 514.077 45.4952 514.077C44.5048 514.077 43.7676 513.4 43.7786 512.426ZM44.4608 518.907H51.0849V518.181H45.3191V515.771H44.4608V518.907ZM58.1162 510.369H52.6695V511.095H53.6818V515.947C53.2141 515.953 52.774 515.958 52.3614 515.958L52.4494 516.696C54.1659 516.701 56.4767 516.652 58.4793 516.343L58.4243 515.705C57.9621 515.76 57.478 515.799 56.9828 515.832V511.095H58.1162V510.369ZM54.5291 515.931V511.095H56.1466V515.881C55.6019 515.903 55.0572 515.92 54.5291 515.931ZM57.7751 513.747H59.6897V519.116H60.548V509.334H59.6897V513.031H57.7751V513.747ZM66.93 510.027H62.5616V510.732H66.0717V512.184H62.5836V515.177H63.3319C65.274 515.183 66.4349 515.133 67.8213 514.913L67.7443 514.187C66.4239 514.412 65.3015 514.467 63.4529 514.462V512.888H66.93V510.027ZM63.9371 518.907H70.5832V518.181H64.7953V515.98H63.9371V518.907ZM67.5572 512.646H69.4168V516.531H70.2861V509.345H69.4168V511.898H67.5572V512.646ZM76.7892 510.776V510.027H75.8869V510.776C75.8814 512.459 73.9833 513.939 72.2887 514.264L72.6849 514.99C74.1648 514.643 75.7108 513.598 76.349 512.162C76.9817 513.598 78.5332 514.649 80.0132 514.99L80.4093 514.264C78.7093 513.945 76.7947 512.454 76.7892 510.776ZM71.9146 517.785H80.8715V517.07H71.9146V517.785ZM89.3662 511.029H87.3526V509.631H86.4943V511.029H84.4586V511.733H89.3662V511.029ZM84.8107 514.616C84.8107 515.931 85.6965 516.855 86.9124 516.861C88.1448 516.855 89.0251 515.931 89.0361 514.616C89.0251 513.318 88.1448 512.399 86.9124 512.393C85.6965 512.399 84.8107 513.318 84.8107 514.616ZM85.581 514.616C85.581 513.758 86.1367 513.13 86.9124 513.119C87.6937 513.13 88.2658 513.758 88.2658 514.616C88.2658 515.485 87.6937 516.107 86.9124 516.101C86.1367 516.107 85.581 515.485 85.581 514.616ZM89.8724 518.632H90.6866V514.176H91.985V519.116H92.8103V509.334H91.985V513.461H90.6866V509.576H89.8724V518.632ZM99.1593 510.721V510.655H102.284V509.95H95.055V510.655H98.191V510.721C98.1855 512.03 96.447 513.141 94.7469 513.395L95.088 514.077C96.59 513.818 98.081 513.004 98.6752 511.827C99.2694 513.004 100.76 513.818 102.284 514.077L102.603 513.395C100.898 513.141 99.1538 512.03 99.1593 510.721ZM94.2188 515.628H98.235V519.116H99.0823V515.628H103.132V514.913H94.2188V515.628ZM111.868 512.305H106.026V509.697H105.167V512.998H111.868V512.305ZM103.946 515.034H112.903V514.33H103.946V515.034ZM105.112 518.874H111.923V518.159H105.971V516.035H105.112V518.874ZM117.359 518.225L118.157 515.98H121.359L122.157 518.225H123.202L120.286 510.259H119.241L116.325 518.225H117.359ZM118.46 515.111L119.725 511.546H119.791L121.056 515.111H118.46ZM124.28 518.225H125.271V515.331H126.998C128.852 515.331 129.705 514.203 129.705 512.789C129.705 511.37 128.852 510.259 126.987 510.259H124.28V518.225ZM125.271 514.451V511.139H126.943C128.225 511.139 128.72 511.838 128.726 512.789C128.72 513.736 128.225 514.451 126.954 514.451H125.271ZM132.082 510.259H131.092V518.225H132.082V510.259ZM142.304 513.879H133.347V514.561H142.304V513.879ZM134.426 515.991H140.324V516.828H134.437V518.984H141.501V518.357H135.306V517.422H141.182V515.342H134.426V515.991ZM134.481 510.259H140.279V511.062H134.514V513.141H141.325V512.514H135.372V511.656H141.149V509.631H134.481V510.259ZM153.99 509.334H153.143V514.407H153.99V509.334ZM145.99 513.626L146.441 514.308C147.602 513.89 148.521 512.993 148.961 511.854C149.401 512.91 150.309 513.73 151.459 514.121L151.888 513.45C150.436 512.971 149.379 511.75 149.39 510.369V509.62H148.51V510.369C148.51 511.805 147.465 513.114 145.99 513.626ZM147.641 515.595H153.143V516.575H147.663V519.006H154.353V518.302H148.51V517.246H154.001V514.902H147.641V515.595ZM163.728 509.334H162.881V514.418H163.728V509.334ZM155.805 513.747L156.213 514.429C157.406 514.027 158.342 513.174 158.765 512.08C159.2 513.081 160.119 513.857 161.274 514.22L161.703 513.549C160.229 513.114 159.189 511.992 159.184 510.721V510.611H161.439V509.895H156.026V510.611H158.314V510.721C158.309 512.063 157.263 513.263 155.805 513.747ZM157.379 515.573H162.881V516.575H157.401V519.006H164.091V518.313H158.248V517.224H163.739V514.891H157.379V515.573ZM168.801 511.139V510.721H170.99V510.016H165.72V510.721H167.931V511.15C167.931 512.531 166.886 513.835 165.445 514.352L165.896 515.034C167.057 514.605 167.964 513.703 168.388 512.58C168.806 513.587 169.659 514.407 170.759 514.803L171.21 514.121C169.78 513.626 168.801 512.41 168.801 511.139ZM166.93 516.432H172.641V519.116H173.51V515.716H166.93V516.432ZM170.682 512.624H172.641V515.199H173.51V509.334H172.641V511.898H170.682V512.624ZM179.595 509.972C177.554 509.978 176.019 511.045 176.019 512.657C176.019 514.286 177.554 515.353 179.595 515.342C181.636 515.353 183.171 514.286 183.171 512.657C183.171 511.045 181.636 509.978 179.595 509.972ZM175.139 517.818H184.096V517.092H175.139V517.818ZM176.844 512.657C176.833 511.485 178.016 510.671 179.595 510.677C181.163 510.671 182.335 511.485 182.335 512.657C182.335 513.846 181.163 514.638 179.595 514.638C178.016 514.638 176.833 513.846 176.844 512.657ZM193.834 517.18H189.751V515.331H192.931V514.616H186.857V513.02H192.7V510.06H185.977V510.776H191.853V512.316H185.999V515.331H188.904V517.18H184.877V517.906H193.834V517.18ZM200.722 511.964V510.182H199.875V511.964C199.864 513.752 198.73 515.628 197.3 516.332L197.85 517.026C198.95 516.437 199.875 515.199 200.309 513.758C200.744 515.117 201.646 516.277 202.724 516.839L203.253 516.145C201.861 515.463 200.722 513.686 200.722 511.964ZM204.155 519.116H205.013V514.055H206.653V513.307H205.013V509.334H204.155V519.116ZM216.094 514.176H213.882V512.795C214.652 512.487 215.087 511.992 215.092 511.337C215.087 510.187 213.767 509.527 211.637 509.521C209.492 509.527 208.171 510.187 208.171 511.337C208.171 511.997 208.611 512.492 209.393 512.795V514.176H207.181V514.891H216.094V514.176ZM208.259 517.367C208.254 518.484 209.514 519.094 211.637 519.094C213.733 519.094 214.993 518.484 215.004 517.367C214.993 516.25 213.733 515.634 211.637 515.639C209.514 515.634 208.254 516.25 208.259 517.367ZM209.063 511.337C209.057 510.633 210.036 510.204 211.637 510.204C213.222 510.204 214.207 510.633 214.212 511.337C214.207 512.052 213.222 512.465 211.637 512.47C210.036 512.465 209.057 512.052 209.063 511.337ZM209.14 517.367C209.129 516.701 210.069 516.31 211.637 516.299C213.189 516.31 214.13 516.701 214.135 517.367C214.13 518.033 213.189 518.429 211.637 518.423C210.069 518.429 209.129 518.033 209.14 517.367ZM210.251 514.176V513.031C210.664 513.103 211.126 513.141 211.637 513.141C212.149 513.141 212.611 513.103 213.024 513.026V514.176H210.251ZM221.805 511.029H219.791V509.631H218.933V511.029H216.897V511.733H221.805V511.029ZM217.249 514.616C217.249 515.931 218.135 516.855 219.351 516.861C220.583 516.855 221.463 515.931 221.474 514.616C221.463 513.318 220.583 512.399 219.351 512.393C218.135 512.399 217.249 513.318 217.249 514.616ZM218.019 514.616C218.019 513.758 218.575 513.13 219.351 513.119C220.132 513.13 220.704 513.758 220.704 514.616C220.704 515.485 220.132 516.107 219.351 516.101C218.575 516.107 218.019 515.485 218.019 514.616ZM222.311 518.632H223.125V514.176H224.423V519.116H225.249V509.334H224.423V513.461H223.125V509.576H222.311V518.632ZM230.101 511.964V510.182H229.221V511.964C229.215 513.769 228.082 515.65 226.646 516.354L227.207 517.048C228.319 516.459 229.237 515.205 229.672 513.741C230.107 515.133 231.026 516.299 232.137 516.872L232.654 516.167C231.235 515.518 230.096 513.736 230.101 511.964ZM231.587 513.384H233.908V519.138H234.767V509.334H233.908V512.679H231.587V513.384ZM21.2324 531.225L22.0301 528.98H25.2322L26.0299 531.225H27.0753L24.1593 523.259H23.114L20.1981 531.225H21.2324ZM22.3327 528.111L23.5982 524.546H23.6642L24.9296 528.111H22.3327ZM28.0326 533.47H28.9789V530.312H29.0559C29.2595 530.642 29.6556 531.352 30.7945 531.346C32.2854 531.352 33.3253 530.152 33.3253 528.254C33.3253 526.362 32.2854 525.173 30.7835 525.173C29.6226 525.173 29.2595 525.877 29.0559 526.196H28.9459V525.25H28.0326V533.47ZM28.9569 528.232C28.9624 526.906 29.5456 526.02 30.6624 526.02C31.8123 526.02 32.379 526.983 32.379 528.232C32.379 529.503 31.7958 530.499 30.6624 530.499C29.5621 530.499 28.9624 529.575 28.9569 528.232ZM34.5577 533.47H35.504V530.312H35.581C35.7846 530.642 36.1807 531.352 37.3195 531.346C38.8105 531.352 39.8504 530.152 39.8504 528.254C39.8504 526.362 38.8105 525.173 37.3085 525.173C36.1477 525.173 35.7846 525.877 35.581 526.196H35.471V525.25H34.5577V533.47ZM35.482 528.232C35.4875 526.906 36.0706 526.02 37.1875 526.02C38.3374 526.02 38.9041 526.983 38.9041 528.232C38.9041 529.503 38.3209 530.499 37.1875 530.499C36.0871 530.499 35.4875 529.575 35.482 528.232ZM42.029 523.259H41.0827V531.225H42.029V523.259ZM43.5365 531.225H44.4828V525.25H43.5365V531.225ZM43.3495 523.633C43.344 523.979 43.6466 524.26 44.0097 524.26C44.3728 524.26 44.6754 523.979 44.6809 523.633C44.6754 523.281 44.3728 523 44.0097 523.005C43.6466 523 43.344 523.281 43.3495 523.633ZM48.4331 531.346C49.759 531.352 50.6393 530.532 50.7879 529.465H49.8416C49.6765 530.119 49.1373 530.499 48.4331 530.499C47.3493 530.499 46.656 529.613 46.6505 528.232C46.656 526.89 47.3658 526.009 48.4331 526.009C49.2309 526.009 49.704 526.51 49.8416 527.055H50.7879C50.6393 525.927 49.682 525.173 48.4111 525.173C46.7881 525.173 45.7042 526.45 45.7042 528.265C45.7042 530.059 46.7386 531.352 48.4331 531.346ZM51.6681 529.531C51.6681 530.697 52.5704 531.363 53.7038 531.368C54.7436 531.363 55.2883 530.812 55.4864 530.411H55.5304V531.225H56.4657V527.286C56.4712 525.404 55.0022 525.173 54.221 525.173C52.9005 525.173 51.9652 525.839 51.8442 526.802H52.8345C52.9665 526.345 53.4232 525.998 54.1769 525.998C55.0792 525.998 55.5304 526.439 55.5304 527.198V527.682C55.2608 527.687 54.298 527.742 53.9129 527.77C52.8785 527.847 51.6681 528.161 51.6681 529.531ZM52.6144 529.575C52.6199 528.92 53.1646 528.617 54.0229 528.562C54.309 528.546 55.2498 528.474 55.5304 528.458V529.057C55.5304 529.811 54.9362 530.526 53.8688 530.521C53.1426 530.526 52.6199 530.207 52.6144 529.575ZM60.592 525.25H59.3376V523.82H58.3803V525.25H57.478V526.042H58.3803V529.751C58.3858 530.807 59.2221 531.302 60.0198 531.302C60.3004 531.302 60.5315 531.28 60.68 531.258V530.378C60.5425 530.383 60.2894 530.4 60.1188 530.4C59.7172 530.4 59.3321 530.273 59.3376 529.509V526.042H60.592V525.25ZM61.8134 531.225H62.7597V525.25H61.8134V531.225ZM61.6263 523.633C61.6208 523.979 61.9234 524.26 62.2865 524.26C62.6496 524.26 62.9522 523.979 62.9577 523.633C62.9522 523.281 62.6496 523 62.2865 523.005C61.9234 523 61.6208 523.281 61.6263 523.633ZM66.7099 531.346C68.333 531.352 69.4223 530.119 69.4168 528.265C69.4223 526.4 68.333 525.173 66.7099 525.173C65.0814 525.173 63.9811 526.4 63.9811 528.265C63.9811 530.119 65.0814 531.352 66.7099 531.346ZM64.9274 528.265C64.9329 527.077 65.4941 526.009 66.7099 526.009C67.9148 526.009 68.4705 527.077 68.4705 528.265C68.4705 529.459 67.9148 530.51 66.7099 530.51C65.4941 530.51 64.9329 529.459 64.9274 528.265ZM71.6065 527.638C71.6065 526.604 72.2447 526.02 73.114 526.02C73.9613 526.02 74.4674 526.571 74.4674 527.495V531.225H75.4137V527.429C75.4192 525.91 74.6105 525.173 73.4001 525.173C72.4923 525.173 71.9311 525.575 71.6505 526.185H71.5735V525.25H70.6602V531.225H71.6065V527.638ZM84.9538 522.334H84.1175V532.116H84.9538V522.334ZM76.6901 526.56C76.6956 528.639 77.5209 529.965 78.7918 529.96C79.9967 529.965 80.8165 528.771 80.899 526.868H82.1589V531.621H82.9842V522.543H82.1589V526.152H80.8935C80.7835 524.309 79.9802 523.165 78.7918 523.16C77.5209 523.165 76.6956 524.48 76.6901 526.56ZM77.5044 526.56C77.4934 524.97 77.9996 523.974 78.7918 523.974C79.5896 523.974 80.0957 524.97 80.0902 526.56C80.0957 528.144 79.5896 529.145 78.7918 529.134C77.9996 529.145 77.4934 528.144 77.5044 526.56ZM92.5352 524.139V523.721H94.7249V523.016H89.4542V523.721H91.6659V524.15C91.6659 525.531 90.6206 526.835 89.1791 527.352L89.6303 528.034C90.7912 527.605 91.6989 526.703 92.1226 525.58C92.5407 526.587 93.3935 527.407 94.4938 527.803L94.945 527.121C93.5145 526.626 92.5352 525.41 92.5352 524.139ZM90.6646 529.432H96.3754V532.116H97.2447V528.716H90.6646V529.432ZM94.4168 525.624H96.3754V528.199H97.2447V522.334H96.3754V524.898H94.4168V525.624ZM107.786 527.176H105.574V525.795C106.345 525.487 106.779 524.992 106.785 524.337C106.779 523.187 105.459 522.527 103.33 522.521C101.184 522.527 99.8636 523.187 99.8636 524.337C99.8636 524.997 100.304 525.492 101.085 525.795V527.176H98.8732V527.891H107.786V527.176ZM99.9516 530.367C99.9461 531.484 101.206 532.094 103.33 532.094C105.426 532.094 106.686 531.484 106.697 530.367C106.686 529.25 105.426 528.634 103.33 528.639C101.206 528.634 99.9461 529.25 99.9516 530.367ZM100.755 524.337C100.749 523.633 101.729 523.204 103.33 523.204C104.914 523.204 105.899 523.633 105.904 524.337C105.899 525.052 104.914 525.465 103.33 525.47C101.729 525.465 100.749 525.052 100.755 524.337ZM100.832 530.367C100.821 529.701 101.762 529.31 103.33 529.299C104.881 529.31 105.822 529.701 105.827 530.367C105.822 531.033 104.881 531.429 103.33 531.423C101.762 531.429 100.821 531.033 100.832 530.367ZM101.943 527.176V526.031C102.356 526.103 102.818 526.141 103.33 526.141C103.841 526.141 104.303 526.103 104.716 526.026V527.176H101.943ZM113.068 522.51C110.884 522.51 109.602 523.11 109.602 524.194C109.602 525.305 110.884 525.905 113.068 525.91C115.241 525.905 116.517 525.305 116.523 524.194C116.517 523.11 115.241 522.51 113.068 522.51ZM108.611 527.275H117.524V526.571H108.611V527.275ZM109.69 528.782H115.533V529.674H109.712V532.006H116.677V531.324H110.57V530.312H116.38V528.122H109.69V528.782ZM110.504 524.194C110.493 523.55 111.445 523.165 113.068 523.16C114.691 523.165 115.637 523.55 115.643 524.194C115.637 524.876 114.691 525.25 113.068 525.25C111.445 525.25 110.493 524.876 110.504 524.194ZM128.748 522.334H127.89V532.116H128.748V527.088H130.387V526.373H128.748V522.334ZM121.122 524.623H126.943V523.908H124.5V522.455H123.642V523.908H121.122V524.623ZM121.684 527.682C121.678 529.008 122.69 529.927 124.082 529.927C125.463 529.927 126.47 529.008 126.481 527.682C126.47 526.362 125.463 525.437 124.082 525.437C122.69 525.437 121.678 526.362 121.684 527.682ZM122.509 527.682C122.503 526.796 123.169 526.158 124.082 526.163C124.985 526.158 125.645 526.796 125.656 527.682C125.645 528.573 124.985 529.2 124.082 529.189C123.169 529.2 122.503 528.573 122.509 527.682ZM138.761 523.325H131.862V524.04H137.892V524.304C137.886 525.476 137.886 526.846 137.518 528.716L138.398 528.815C138.75 526.846 138.75 525.503 138.761 524.304V523.325ZM130.915 530.73H139.828V530.015H135.262V526.516H134.415V530.015H130.915V530.73ZM151.558 522.345H150.7V527.781H151.558V522.345ZM143.548 526.89L143.988 527.572C145.154 527.154 146.078 526.263 146.518 525.135C146.959 526.185 147.877 527.005 149.027 527.396L149.445 526.714C147.993 526.235 146.937 525.025 146.948 523.666V522.708H146.067V523.666C146.067 525.085 145.022 526.378 143.548 526.89ZM144.956 531.984H151.723V531.28H150.271V529.068H151.624V528.364H145.044V529.068H146.419V531.28H144.956V531.984ZM147.267 531.28V529.068H149.412V531.28H147.267ZM155.211 528.21H154.353V531.984H160.966V528.21H160.097V529.354H155.211V528.21ZM153.22 527.517H162.132V526.802H153.22V527.517ZM153.726 525.415L154.056 526.108C155.563 525.883 157.06 525.118 157.682 524.018C158.303 525.113 159.794 525.883 161.307 526.108L161.626 525.415C159.904 525.195 158.122 524.111 158.127 522.906V522.444H157.236V522.906C157.236 524.15 155.47 525.179 153.726 525.415ZM155.211 531.291V530.037H160.097V531.291H155.211ZM171.023 522.334H170.165V532.116H171.023V522.334ZM163.596 529.597H164.388C165.956 529.597 167.502 529.476 169.241 529.112L169.12 528.375C167.48 528.722 165.94 528.837 164.443 528.848V523.303H163.596V529.597ZM180.266 522.334H179.408V532.138H180.266V526.934H181.906V526.207H180.266V522.334ZM173.125 529.685H173.895C175.755 529.685 177.037 529.63 178.572 529.354L178.462 528.606C177.004 528.876 175.755 528.953 173.983 528.958V524.007H177.691V523.292H173.125V529.685ZM183.468 531.291C183.859 531.286 184.178 530.967 184.173 530.576C184.178 530.191 183.859 529.872 183.468 529.872C183.083 529.872 182.753 530.191 182.764 530.576C182.753 530.967 183.083 531.286 183.468 531.291ZM28.4617 535.334H27.5924V545.138H28.4617V535.334ZM20.7592 539.505C20.7647 541.59 21.7991 542.91 23.257 542.905C24.7095 542.91 25.7603 541.59 25.7548 539.505C25.7603 537.425 24.7095 536.099 23.257 536.093C21.7991 536.099 20.7647 537.425 20.7592 539.505ZM21.5955 539.505C21.5955 537.915 22.2777 536.869 23.257 536.864C24.2419 536.869 24.9186 537.915 24.9186 539.505C24.9186 541.095 24.2419 542.14 23.257 542.134C22.2777 542.14 21.5955 541.095 21.5955 539.505ZM35.2289 536.303H30.7064V542.663H35.2289V536.303ZM31.5537 541.958V536.996H34.3816V541.958H31.5537ZM37.3305 545.138H38.1998V535.334H37.3305V545.138ZM43.3715 538.338V537.062H45.7042V536.347H40.1915V537.062H42.5022V538.338C42.4967 540.033 41.2753 541.881 39.8724 542.553L40.3895 543.235C41.5064 542.674 42.4967 541.43 42.9533 539.994C43.41 541.348 44.3948 542.476 45.5392 542.993L46.0233 542.31C44.5819 541.689 43.377 540 43.3715 538.338ZM47.0687 545.116H47.9379V535.334H47.0687V545.116ZM51.217 543.488H50.1496L49.5445 546.481H50.3587L51.217 543.488ZM58.2923 538.25H57.0379V536.82H56.0805V538.25H55.1783V539.042H56.0805V542.751C56.086 543.807 56.9223 544.302 57.7201 544.302C58.0007 544.302 58.2317 544.28 58.3803 544.258V543.378C58.2427 543.383 57.9897 543.4 57.8191 543.4C57.4175 543.4 57.0323 543.273 57.0379 542.509V539.042H58.2923V538.25ZM61.9564 544.346C63.1888 544.352 64.0746 543.735 64.3552 542.828H63.3429C63.1228 543.196 62.6717 543.51 61.9564 543.51C60.8946 543.51 60.1574 542.817 60.1078 541.551H64.4432V541.155C64.4487 538.943 63.1228 538.173 61.8684 538.173C60.2454 538.173 59.1615 539.45 59.1615 541.287C59.1615 543.119 60.2289 544.352 61.9564 544.346ZM60.1133 540.748C60.1794 539.824 60.8341 539.009 61.8684 539.009C62.8532 539.009 63.4804 539.752 63.4859 540.748H60.1133ZM66.2368 538.25H65.1474L67.0291 541.232L65.1474 544.225H66.2368L67.6452 541.914L69.0757 544.225H70.1541L68.2284 541.232L70.1541 538.25H69.0647L67.6452 540.682L66.2368 538.25ZM73.9063 538.25H72.6518V536.82H71.6945V538.25H70.7923V539.042H71.6945V542.751C71.7 543.807 72.5363 544.302 73.3341 544.302C73.6147 544.302 73.8457 544.28 73.9943 544.258V543.378C73.8567 543.383 73.6037 543.4 73.4331 543.4C73.0315 543.4 72.6463 543.273 72.6518 542.509V539.042H73.9063V538.25ZM83.1492 535.334H82.3129V545.116H83.1492V535.334ZM74.8856 539.56C74.8911 541.639 75.7163 542.965 76.9872 542.96C78.1921 542.965 79.0119 541.771 79.0944 539.868H80.3543V544.621H81.1796V535.543H80.3543V539.152H79.0889C78.9789 537.309 78.1756 536.165 76.9872 536.16C75.7163 536.165 74.8911 537.48 74.8856 539.56ZM75.6998 539.56C75.6888 537.97 76.195 536.974 76.9872 536.974C77.785 536.974 78.2912 537.97 78.2857 539.56C78.2912 541.144 77.785 542.145 76.9872 542.134C76.195 542.145 75.6888 541.144 75.6998 539.56ZM95.6932 535.334H94.868V539.274H93.4265V535.554H92.6342V544.61H93.4265V539.989H94.868V545.116H95.6932V535.334ZM87.6937 542.696H88.3209C89.8228 542.69 90.8187 542.652 91.996 542.41L91.919 541.683C90.8297 541.903 89.8999 541.953 88.5519 541.958V537.249H91.3578V536.534H87.6937V542.696ZM104.716 535.345H103.858V542.674H104.716V539.296H106.191V538.569H104.716V535.345ZM97.0907 537.249H102.923V536.545H100.436V535.345H99.5775V536.545H97.0907V537.249ZM97.6519 539.615C97.6464 540.715 98.5927 541.425 100.007 541.419C101.404 541.425 102.35 540.715 102.361 539.615C102.35 538.503 101.404 537.788 100.007 537.788C98.5927 537.788 97.6464 538.503 97.6519 539.615ZM98.4771 539.615C98.4716 538.916 99.0823 538.465 100.007 538.47C100.92 538.465 101.536 538.916 101.547 539.615C101.536 540.302 100.92 540.748 100.007 540.737C99.0823 540.748 98.4716 540.302 98.4771 539.615ZM98.5982 544.907H105.167V544.181H99.4454V542.09H98.5982V544.907ZM113.079 537.964V536.182H112.199V537.964C112.193 539.769 111.06 541.65 109.624 542.354L110.185 543.048C111.296 542.459 112.215 541.205 112.65 539.741C113.084 541.133 114.003 542.299 115.114 542.872L115.632 542.167C114.212 541.518 113.073 539.736 113.079 537.964ZM114.564 539.384H116.886V545.138H117.744V535.334H116.886V538.679H114.564V539.384ZM120.748 535.95H119.89V540.484H124.489V535.95H123.631V537.469H120.748V535.95ZM120.748 539.769V538.151H123.631V539.769H120.748ZM120.88 543.29C120.875 544.434 122.129 545.094 124.181 545.094C126.228 545.094 127.471 544.434 127.482 543.29C127.471 542.123 126.228 541.463 124.181 541.452C122.129 541.463 120.875 542.123 120.88 543.29ZM121.75 543.29C121.75 542.558 122.657 542.14 124.181 542.134C125.7 542.14 126.624 542.558 126.624 543.29C126.624 543.983 125.7 544.412 124.181 544.412C122.657 544.412 121.75 543.983 121.75 543.29ZM126.591 541.276H127.449V535.345H126.591V541.276ZM132.775 544.225L133.573 541.98H136.775L137.573 544.225H138.618L135.702 536.259H134.657L131.741 544.225H132.775ZM133.875 541.111L135.141 537.546H135.207L136.472 541.111H133.875ZM139.696 544.225H140.687V541.331H142.414C144.268 541.331 145.121 540.203 145.121 538.789C145.121 537.37 144.268 536.259 142.403 536.259H139.696V544.225ZM140.687 540.451V537.139H142.359C143.641 537.139 144.136 537.838 144.142 538.789C144.136 539.736 143.641 540.451 142.37 540.451H140.687ZM147.498 536.259H146.507V544.225H147.498V536.259ZM157.72 539.879H148.763V540.561H157.72V539.879ZM149.842 541.991H155.739V542.828H149.853V544.984H156.917V544.357H150.722V543.422H156.598V541.342H149.842V541.991ZM149.897 536.259H155.695V537.062H149.93V539.141H156.741V538.514H150.788V537.656H156.565V535.631H149.897V536.259ZM169.791 536.787H166.215V535.499H165.368V536.787H161.78V537.502H169.791V536.787ZM161.34 543.972H170.297V543.257H166.215V541.881C167.942 541.788 169.015 541.111 169.01 540.011C169.015 538.85 167.766 538.162 165.797 538.173C163.8 538.162 162.573 538.85 162.584 540.011C162.573 541.111 163.623 541.788 165.368 541.881V543.257H161.34V543.972ZM163.453 540.011C163.442 539.285 164.339 538.855 165.797 538.855C167.238 538.855 168.135 539.285 168.129 540.011C168.135 540.753 167.238 541.183 165.797 541.188C164.339 541.183 163.442 540.753 163.453 540.011ZM179.991 539.692H171.089V540.363H175.106V541.276H172.157V541.925H178V542.773H172.179V545.006H179.144V544.346H173.037V543.389H178.847V541.276H175.953V540.363H179.991V539.692ZM171.563 538.58L171.816 539.241C173.455 539.103 174.93 538.597 175.535 537.667C176.134 538.597 177.609 539.103 179.243 539.241L179.507 538.58C177.702 538.465 176.173 537.854 176.019 536.875H179.089V536.193H175.953V535.279H175.106V536.193H172.003V536.875H175.045C174.886 537.854 173.356 538.465 171.563 538.58ZM185.702 537.029H183.688V535.631H182.83V537.029H180.794V537.733H185.702V537.029ZM181.147 540.616C181.147 541.931 182.032 542.855 183.248 542.861C184.481 542.855 185.361 541.931 185.372 540.616C185.361 539.318 184.481 538.399 183.248 538.393C182.032 538.399 181.147 539.318 181.147 540.616ZM181.917 540.616C181.917 539.758 182.472 539.13 183.248 539.119C184.029 539.13 184.602 539.758 184.602 540.616C184.602 541.485 184.029 542.107 183.248 542.101C182.472 542.107 181.917 541.485 181.917 540.616ZM186.208 544.632H187.022V540.176H188.321V545.116H189.146V535.334H188.321V539.461H187.022V535.576H186.208V544.632ZM193.999 537.964V536.182H193.118V537.964C193.113 539.769 191.98 541.65 190.544 542.354L191.105 543.048C192.216 542.459 193.135 541.205 193.57 539.741C194.004 541.133 194.923 542.299 196.034 542.872L196.551 542.167C195.132 541.518 193.993 539.736 193.999 537.964ZM195.484 539.384H197.806V545.138H198.664V535.334H197.806V538.679H195.484V539.384ZM206.4 537.964V536.182H205.552V537.964C205.541 539.752 204.408 541.628 202.978 542.332L203.528 543.026C204.628 542.437 205.552 541.199 205.987 539.758C206.422 541.117 207.324 542.277 208.402 542.839L208.93 542.145C207.539 541.463 206.4 539.686 206.4 537.964ZM209.833 545.116H210.691V540.055H212.331V539.307H210.691V535.334H209.833V545.116ZM221.772 540.176H219.56V538.795C220.33 538.487 220.765 537.992 220.77 537.337C220.765 536.187 219.444 535.527 217.315 535.521C215.169 535.527 213.849 536.187 213.849 537.337C213.849 537.997 214.289 538.492 215.07 538.795V540.176H212.859V540.891H221.772V540.176ZM213.937 543.367C213.932 544.484 215.191 545.094 217.315 545.094C219.411 545.094 220.671 544.484 220.682 543.367C220.671 542.25 219.411 541.634 217.315 541.639C215.191 541.634 213.932 542.25 213.937 543.367ZM214.74 537.337C214.735 536.633 215.714 536.204 217.315 536.204C218.9 536.204 219.884 536.633 219.89 537.337C219.884 538.052 218.9 538.465 217.315 538.47C215.714 538.465 214.735 538.052 214.74 537.337ZM214.817 543.367C214.806 542.701 215.747 542.31 217.315 542.299C218.867 542.31 219.807 542.701 219.813 543.367C219.807 544.033 218.867 544.429 217.315 544.423C215.747 544.429 214.806 544.033 214.817 543.367ZM215.929 540.176V539.031C216.341 539.103 216.803 539.141 217.315 539.141C217.827 539.141 218.289 539.103 218.702 539.026V540.176H215.929ZM232.995 535.334H232.137V545.116H232.995V540.088H234.635V539.373H232.995V535.334ZM225.37 537.623H231.191V536.908H228.748V535.455H227.89V536.908H225.37V537.623ZM225.931 540.682C225.925 542.008 226.938 542.927 228.33 542.927C229.711 542.927 230.717 542.008 230.728 540.682C230.717 539.362 229.711 538.437 228.33 538.437C226.938 538.437 225.925 539.362 225.931 540.682ZM226.756 540.682C226.751 539.796 227.416 539.158 228.33 539.163C229.232 539.158 229.892 539.796 229.903 540.682C229.892 541.573 229.232 542.2 228.33 542.189C227.416 542.2 226.751 541.573 226.756 540.682ZM243.008 536.325H236.109V537.04H242.139V537.304C242.134 538.476 242.134 539.846 241.765 541.716L242.645 541.815C242.997 539.846 242.997 538.503 243.008 537.304V536.325ZM235.163 543.73H244.076V543.015H239.509V539.516H238.662V543.015H235.163V543.73ZM255.805 535.345H254.947V540.781H255.805V535.345ZM247.795 539.89L248.235 540.572C249.401 540.154 250.326 539.263 250.766 538.135C251.206 539.185 252.125 540.005 253.275 540.396L253.693 539.714C252.24 539.235 251.184 538.025 251.195 536.666V535.708H250.315V536.666C250.315 538.085 249.269 539.378 247.795 539.89ZM249.203 544.984H255.971V544.28H254.518V542.068H255.871V541.364H249.291V542.068H250.667V544.28H249.203V544.984ZM251.514 544.28V542.068H253.66V544.28H251.514ZM265.037 535.334H264.179V545.138H265.037V539.934H266.677V539.207H265.037V535.334ZM257.896 542.685H258.666C260.526 542.685 261.808 542.63 263.343 542.354L263.233 541.606C261.775 541.876 260.526 541.953 258.754 541.958V537.007H262.463V536.292H257.896V542.685ZM268.239 544.291C268.63 544.286 268.949 543.967 268.944 543.576C268.949 543.191 268.63 542.872 268.239 542.872C267.854 542.872 267.524 543.191 267.535 543.576C267.524 543.967 267.854 544.286 268.239 544.291Z" fill="#ECECF8" fill-opacity="0.7"/>
<defs>
<linearGradient id="paint0_linear_988_3520" x1="150" y1="46" x2="150" y2="243.183" gradientUnits="userSpaceOnUse">
<stop stop-color="#3A5EA7"/>
<stop offset="1" stop-color="#28498B" stop-opacity="0"/>
</linearGradient>
</defs>
</svg>
