<svg width="300" height="600" viewBox="0 0 300 600" fill="none" xmlns="http://www.w3.org/2000/svg">
<rect x="0.5" y="0.5" width="299" height="599" rx="19.5" fill="black"/>
<rect x="20" y="46" width="260" height="197.183" rx="8.4507" fill="url(#paint0_linear_17_3741)"/>
<path d="M180.723 109.271C178.558 119.378 175.959 141.035 182.889 146.81L187.581 151.141C183.792 150.6 176.653 149.163 175.469 147.408C175.725 150.944 176.275 164.793 180.723 164.496C178.437 164.737 173.574 163.486 172.419 156.555C172.178 159.563 172.057 166.012 173.502 167.745C175.308 169.911 166.282 162.692 165.921 159.082C165.632 156.194 167.004 122.025 167.726 105.301L180.723 109.271Z" fill="#140610"/>
<path d="M114.727 119.285C118.257 129.386 122.494 151.03 111.196 156.802L103.548 161.131C109.724 160.59 121.362 159.154 123.292 157.4C122.875 160.934 121.979 174.775 114.727 174.478C118.455 174.719 126.381 173.468 128.264 166.542C128.657 169.548 128.855 175.993 126.499 177.725C123.554 179.889 138.269 172.675 138.857 169.067C139.328 166.181 137.092 132.032 135.915 115.317L114.727 119.285Z" fill="#140610"/>
<path d="M106.796 181.002C101.309 165.12 121.595 159.706 132.423 158.984C153.357 143.463 185.204 172.714 189.454 181.003C196.673 195.081 179.347 215.294 167.075 223.957C154.803 232.62 113.654 200.854 106.796 181.002Z" fill="#202F72"/>
<path d="M133.431 184.44C134.469 181.531 131.807 148.221 130.509 136.342C133.625 140.706 155.29 155.227 165.57 157.53C165.462 165.288 165.83 181.531 168.167 184.44C171.089 188.076 162.648 203.349 158.428 207.35C154.208 211.35 132.132 188.076 133.431 184.44Z" fill="#FBBFB4"/>
<mask id="mask0_17_3741" style="mask-type:alpha" maskUnits="userSpaceOnUse" x="129" y="136" width="40" height="72">
<path d="M133.364 184.558C134.405 181.664 131.088 148.161 129.787 136.342C132.909 140.684 155.264 155.493 165.564 157.785C165.456 165.503 165.824 181.664 168.166 184.558C171.093 188.176 162.637 203.372 158.408 207.352C154.18 211.332 132.063 188.176 133.364 184.558Z" fill="#EB8682"/>
</mask>
<g mask="url(#mask0_17_3741)">
<path d="M171.657 174.699C154.331 186.249 139.893 161.609 129.065 136.342L188.26 168.202C184.651 169.766 175.684 172.014 171.657 174.699Z" fill="#E79795"/>
</g>
<path d="M181.679 70.0406C179.881 68.0776 170.18 67.921 165.554 68.0881C163.191 70.5892 158.415 76.6034 158.215 80.6514C157.966 85.7114 173.081 80.9971 180.247 81.8649C185.97 82.5579 184.58 124.924 184.216 136.001L184.214 136.059C185.285 131.22 188.151 119.579 188.826 115.99C189.846 110.563 194.666 94.7853 193.264 91.3434C191.863 87.9014 183.927 72.4943 181.679 70.0406Z" fill="#140610"/>
<path d="M138.055 117.937C144.691 111.178 150.757 99.1142 152.961 93.9272C159.716 96.1996 171.926 97.678 166.721 85.4131C160.215 70.0819 121.421 75.5639 109.684 85.4139C100.295 93.2939 114.422 123.431 120.511 131.198L138.055 147.44C138.587 146.05 136.338 139.326 135.929 135.495C135.418 130.707 129.761 126.386 138.055 117.937Z" fill="#140610"/>
<path d="M185.371 112.129C186.178 107.864 184.971 90.6148 183.25 81.8016C170.25 66.0476 151.001 77.8966 141.033 82.1434C133.058 85.5408 130.605 106.21 130.375 116.121C128.956 115.828 124.891 115.166 119.984 114.862C113.849 114.483 116.997 118.5 115.185 124.462C113.372 130.423 120.778 135.319 123.254 138.891C125.235 141.749 131.044 142.622 133.7 142.701C134.667 145.727 134.447 145.398 136.643 150.059C140.007 157.2 154.107 165.078 161.187 166.662C168.267 168.247 170.659 167.502 176.347 156.556C177.848 153.668 180.769 151.445 182.122 147.171C182.859 144.845 185.789 133.732 186.454 124.462C186.848 118.964 184.995 114.114 185.371 112.129Z" fill="#FBBFB4"/>
<path d="M158.57 113.71L162.527 117.655C162.478 120.552 159.707 124.054 155.369 123.909C151.03 123.763 147.409 120.086 146.141 118.266C148.441 115.595 155.385 114.116 158.57 113.71Z" fill="#D9D9D9" stroke="black" stroke-width="0.721897" stroke-linecap="round"/>
<mask id="mask1_17_3741" style="mask-type:alpha" maskUnits="userSpaceOnUse" x="145" y="113" width="18" height="12">
<path d="M158.569 113.711L162.527 117.656C162.477 120.553 159.706 124.055 155.368 123.91C151.029 123.764 147.408 120.087 146.14 118.267C148.44 115.596 155.384 114.117 158.569 113.711Z" fill="#D9D9D9" stroke="black" stroke-width="0.721897" stroke-linecap="round"/>
</mask>
<g mask="url(#mask1_17_3741)">
<path d="M157.741 121.971C154.006 121.596 153.602 116.234 153.866 113.601C154.083 111.446 158.824 111.197 161.697 111.485C163.995 111.716 164.568 116.61 164.567 119.029C163.848 120.166 161.476 122.346 157.741 121.971Z" fill="#0B143D"/>
</g>
<ellipse cx="155.361" cy="116.525" rx="1.44379" ry="0.721897" transform="rotate(5.73654 155.361 116.525)" fill="white"/>
<path d="M181.874 123.258C185.257 122.047 185.335 118.609 185.729 116.582C180.976 113.175 176.39 114.304 173.936 118.927C174.943 121.64 178.491 124.47 181.874 123.258Z" fill="#D9D9D9" stroke="black" stroke-width="0.721897" stroke-linecap="round"/>
<mask id="mask2_17_3741" style="mask-type:alpha" maskUnits="userSpaceOnUse" x="172" y="114" width="15" height="11">
<path d="M174.374 115.374L173.065 117.55C174.072 120.263 176.932 125.387 180.315 124.176C183.698 122.965 185.333 118.609 185.728 116.582C183.016 114.639 177.029 114.967 174.374 115.374Z" fill="#D9D9D9" stroke="black" stroke-width="0.721897" stroke-linecap="round"/>
</mask>
<g mask="url(#mask2_17_3741)">
<path d="M187.075 122.943C189.904 121.665 188.432 116.521 187.342 114.109C186.45 112.135 182.617 113.074 180.441 114.057C178.7 114.844 178.916 119.609 180.693 121.865C182.469 124.12 184.246 124.22 187.075 122.943Z" fill="#0B143D"/>
</g>
<path d="M162.2 107.678L165.74 105.462L154.632 104.117L147.587 105.247L140.506 109.678C142.377 109.244 146.564 108.296 148.347 107.983C150.13 107.671 158.325 107.649 162.2 107.678Z" fill="#1B041E"/>
<path d="M176.02 107.879L174.299 105.556L181.095 106.379L185.072 108.447L185.831 110.951C183.358 109.386 178.932 108.679 176.02 107.879Z" fill="#1B041E"/>
<path d="M154.654 109.937C161.29 103.178 162.751 81.1038 164.955 75.9169C171.71 78.1892 175.978 79.1659 170.773 66.9009C164.267 51.5697 125.123 71.5537 113.387 81.4036C103.997 89.2836 113.828 106.787 119.917 114.553L130.979 130.838C131.886 136.166 132.814 140.471 134.228 140.584C137.121 140.815 134.949 133.004 136.393 129.394C138.182 124.923 146.36 118.386 154.654 109.937Z" fill="#2E0822"/>
<path d="M175.264 145.006C168.885 145.424 160.461 144.823 156.498 144.283C158.045 146.927 163.643 148.553 168.806 148.786C172.936 148.973 174.781 146.372 175.264 145.006Z" fill="#E79795"/>
<path d="M175.626 145.006C170.255 145.091 160.467 145.726 156.499 144.283" stroke="black" stroke-width="0.721897" stroke-linecap="round"/>
<path d="M84.4183 206.005C85.2846 203.695 108.963 187.266 125.566 181.01L144.336 202.661C148.306 206.15 160.578 217.099 167.075 214.211C170.253 212.799 175.137 192.915 177.904 188.945C186.446 192.194 198.839 201.457 206.058 203.479C213.277 205.5 220.565 234.28 220.565 243.183H79.4346C79.4346 235.603 83.552 208.316 84.4183 206.005Z" fill="#202F72"/>
<path d="M180.819 83.0248C181.339 78.7249 176.771 74.4147 174.422 72.797C178.526 68.931 181.817 74.7832 185.368 78.4855C186.872 80.0537 188.988 97.4114 190.421 108.814C191.695 118.947 198.004 119.906 196.156 121.507C196.707 120.78 184.267 121.997 181.387 111.356C178.991 102.501 180.582 84.9779 180.819 83.0248Z" fill="#140610"/>
<path d="M168.393 74.6939C168.914 70.3939 168.235 67.3707 165.885 65.7531C169.989 61.887 173.28 67.7393 176.831 71.4415C178.335 73.0098 173.472 89.0011 174.905 100.404C176.179 110.537 185.578 111.575 183.73 113.176C184.281 112.449 171.841 113.666 168.962 103.025C166.565 94.1701 168.156 76.647 168.393 74.6939Z" fill="#2E0822"/>
<path d="M175.389 76.2816C172.477 72.3623 170.44 68.9909 168.071 67.5327C172.112 64.1882 185.451 69.2915 189.05 72.6026C190.574 74.0052 189.264 85.6323 187.99 95.7806C183.516 108.527 194.124 115.748 192.303 117.131C192.843 116.499 179.395 110.645 176.367 101.234C173.847 93.403 176.481 77.7509 175.389 76.2816Z" fill="#2E0822"/>
<path d="M124.742 122.773C124.994 123.094 126.534 126.989 127.273 128.896C127.829 130.32 126.609 131.361 125.893 131.274C125.176 131.188 124.644 132.577 124.872 133.696C125.101 134.814 125.872 137.453 124.352 137.996C122.832 138.539 116.979 129.831 116.078 128.268C115.176 126.704 115.697 122.404 116.674 120.341C117.651 118.278 118.997 119.168 120.517 118.625C122.038 118.082 124.427 122.371 124.742 122.773Z" fill="#D36266"/>
<path d="M126.772 127.019C125.671 124.098 122.807 118.322 120.158 118.582C117.509 118.843 116.463 120.074 116.271 120.656" stroke="#793033" stroke-width="0.721897" stroke-linecap="round"/>
<ellipse cx="180.602" cy="116.632" rx="1.02531" ry="0.721897" transform="rotate(6.9042 180.602 116.632)" fill="white"/>
<path d="M169.293 83.9033C166.486 71.056 170.504 68.9005 172.864 69.4287C170.216 67.2907 168.465 66.7139 166.196 70.4386C163.927 74.1633 166.585 86.7058 166.994 90.8958C168.051 101.736 158.668 108.868 152.167 114.282C161.917 111.756 172.803 99.9623 169.293 83.9033Z" fill="#2E0822"/>
<path d="M160.873 85.9729C163.494 70.7576 166.205 65.6071 161.811 65.5301C167.19 64.1108 167.706 63.5848 170.702 67.7826C173.698 71.9803 166.949 90.7934 164.999 94.7735C163.823 97.1736 164.826 109.989 168.289 113.718C161.118 112.475 159.04 96.6147 160.873 85.9729Z" fill="#2E0822"/>
<path d="M174.926 137.079C174.76 137.189 174.714 137.413 174.824 137.579C174.934 137.746 175.158 137.791 175.325 137.681L174.926 137.079ZM173.101 115.769C173.101 117.992 173.711 120.61 174.8 122.766C175.881 124.906 177.484 126.682 179.521 127.049L179.649 126.338C177.949 126.032 176.49 124.511 175.444 122.44C174.405 120.384 173.823 117.877 173.823 115.769L173.101 115.769ZM179.521 127.049C180.341 127.197 180.802 127.615 181.05 128.162C181.309 128.732 181.352 129.477 181.241 130.271C181.132 131.059 180.877 131.858 180.582 132.509C180.435 132.834 180.281 133.117 180.134 133.339C179.983 133.568 179.854 133.711 179.764 133.778L180.198 134.355C180.385 134.215 180.568 133.992 180.736 133.738C180.908 133.477 181.08 133.16 181.24 132.807C181.559 132.103 181.836 131.237 181.956 130.37C182.076 129.509 182.046 128.609 181.707 127.863C181.358 127.095 180.697 126.527 179.649 126.338L179.521 127.049ZM179.764 133.778C179.221 134.187 178.016 135.01 176.937 135.736C176.4 136.098 175.897 136.434 175.529 136.679C175.344 136.802 175.194 136.902 175.089 136.971C175.037 137.006 174.996 137.033 174.968 137.051C174.955 137.06 174.944 137.067 174.937 137.072C174.933 137.074 174.931 137.076 174.929 137.077C174.928 137.078 174.927 137.078 174.927 137.079C174.927 137.079 174.926 137.079 174.926 137.079C174.926 137.079 174.926 137.079 174.926 137.079C174.926 137.079 174.926 137.079 175.125 137.38C175.325 137.681 175.325 137.681 175.325 137.681C175.325 137.681 175.325 137.681 175.325 137.681C175.325 137.681 175.325 137.681 175.325 137.681C175.326 137.68 175.326 137.68 175.327 137.679C175.329 137.678 175.332 137.676 175.335 137.674C175.343 137.669 175.353 137.662 175.367 137.653C175.395 137.635 175.436 137.608 175.488 137.573C175.593 137.503 175.744 137.403 175.929 137.28C176.298 137.034 176.802 136.698 177.34 136.335C178.414 135.612 179.636 134.778 180.198 134.355L179.764 133.778Z" fill="#622B20"/>
<ellipse cx="178.155" cy="128.578" rx="0.784459" ry="0.721897" transform="rotate(3.19743 178.155 128.578)" fill="#FFDCD6"/>
<path d="M172.74 136.343C172.018 135.982 170.574 135.62 168.408 136.343" stroke="black" stroke-width="0.721897" stroke-linecap="round"/>
<path d="M167.698 119.394C166.725 114.972 160.788 113.401 149.787 114.757C144.076 115.461 143.922 125.159 151.286 128.257C159.754 131.819 169.769 128.81 167.698 119.394ZM167.698 119.394C170.569 117.187 171.484 117.501 172.893 118.065M172.893 118.065C174.771 115.717 181.224 111.389 186.287 114.757C191.508 118.23 187.287 126.257 182.287 126.257C178.611 126.257 174.287 125.257 172.893 118.065Z" stroke="#28111B" stroke-width="1.40845"/>
<path d="M30.6597 260.113H29.353V272.464H30.6597V260.113ZM20.8803 265.353C20.8803 268.015 22.2076 269.693 24.0713 269.686C25.9006 269.693 27.2486 268.015 27.2486 265.353C27.2486 262.719 25.9006 261.041 24.0713 261.034C22.2076 261.041 20.8803 262.719 20.8803 265.353ZM22.1457 265.353C22.1388 263.421 22.9228 262.21 24.0713 262.203C25.1992 262.21 25.9832 263.421 25.9832 265.353C25.9832 267.313 25.1992 268.517 24.0713 268.517C22.9228 268.517 22.1388 267.313 22.1457 265.353ZM43.8914 266.426H32.6128V267.471H43.8914V266.426ZM34.0295 261.419H41.168V262.465H34.057V265.491H42.7223V264.487H35.3499V263.428H42.4747V260.388H34.0295V261.419ZM34.112 272.285H42.4884V268.475H34.112V272.285ZM35.4049 271.226V269.521H41.1955V271.226H35.4049Z" fill="#ECECF8" fill-opacity="0.7"/>
<path d="M28.4177 280.458H21.4029V282.092H26.1565C25.8264 284.114 23.9118 285.781 20.5282 286.647L21.3369 288.281C25.8264 287.126 28.4177 284.419 28.4177 280.458ZM23.004 294.421H33.0227V288.595H23.004V294.421ZM25.1001 292.771V290.246H30.9595V292.771H25.1001ZM30.91 287.984H33.0227V279.6H30.91V287.984ZM46.9696 279.583H44.857V288.298H46.9696V284.832H48.9998V283.115H46.9696V279.583ZM34.9538 286.928L35.7956 288.628C40.2685 287.382 42.7855 284.576 42.7773 280.573H35.6635V282.257H40.4831C40.1529 284.337 38.2631 286.053 34.9538 286.928ZM36.9839 291.549C36.9674 293.448 39.0141 294.619 42.0676 294.619C45.1293 294.619 47.1264 293.448 47.1347 291.549C47.1264 289.668 45.1293 288.479 42.0676 288.479C39.0141 288.479 36.9674 289.668 36.9839 291.549ZM39.0636 291.549C39.0553 290.625 40.1777 290.114 42.0676 290.114C43.9327 290.114 45.055 290.625 45.055 291.549C45.055 292.457 43.9327 292.977 42.0676 292.969C40.1777 292.977 39.0553 292.457 39.0636 291.549ZM53.9349 280.029C51.6159 280.021 49.8911 281.457 49.8911 283.462C49.8911 285.451 51.6159 286.87 53.9349 286.878C56.2208 286.87 57.9374 285.451 57.9456 283.462C57.9374 281.457 56.2208 280.021 53.9349 280.029ZM51.9377 283.462C51.9212 282.381 52.7795 281.745 53.9349 281.745C55.0737 281.745 55.9072 282.381 55.9155 283.462C55.9072 284.535 55.0737 285.17 53.9349 285.178C52.7712 285.17 51.9212 284.535 51.9377 283.462ZM52.1523 289.354H60.1408V290.279H52.1853V294.438H62.6496V292.787H54.2485V291.814H62.237V287.737H52.1523V289.354ZM60.1243 287.11H62.237V279.583H60.1243V287.11Z" fill="#ECECF8"/>
<path d="M32.8741 314.823H22.8554V316.061H31.3061V320.121H32.8741V314.823ZM20.7592 309.723C20.751 311.827 22.4098 313.313 24.638 313.305C25.8924 313.313 26.9652 312.826 27.6585 312.017H31.3061V314.047H32.8741V305.332H31.3061V307.445H27.6585C26.9735 306.636 25.8924 306.149 24.638 306.158C22.4098 306.149 20.751 307.635 20.7592 309.723ZM22.2612 309.723C22.253 308.402 23.2515 307.486 24.638 307.478C25.9667 307.486 26.9817 308.402 26.9817 309.723C26.9817 311.076 25.9667 311.976 24.638 311.984C23.2515 311.976 22.253 311.076 22.2612 309.723ZM28.3434 310.73C28.4342 310.416 28.4837 310.078 28.4837 309.723C28.4837 309.376 28.4342 309.046 28.3517 308.733H31.3061V310.73H28.3434ZM46.7716 305.283H45.2036V313.42H46.7716V310.036H48.9338V308.749H46.7716V305.283ZM35.1684 307.825H43.9822V306.587H40.3675V305.2H38.7995V306.587H35.1684V307.825ZM35.9771 310.812C35.9689 312.314 37.4048 313.23 39.5753 313.222C41.7457 313.23 43.1569 312.314 43.1569 310.812C43.1569 309.319 41.7457 308.386 39.5753 308.386C37.4048 308.386 35.9689 309.319 35.9771 310.812ZM37.215 315.285H45.2201V316.441H37.248V319.973H47.2832V318.784H38.783V317.546H46.7716V314.113H37.215V315.285ZM37.4956 310.812C37.4791 310.012 38.2961 309.517 39.5753 309.508C40.8462 309.517 41.6714 310.012 41.6879 310.812C41.6714 311.613 40.8462 312.083 39.5753 312.083C38.2961 312.083 37.4791 311.613 37.4956 310.812ZM66.3798 312.034H62.6001V307.94H66.2313V306.669H61.0321V313.288H66.3798V312.034ZM53.8853 318.273H67.4197V317.002H61.3622V313.998H59.8272V317.002H53.8853V318.273ZM55.0077 313.288H55.8825C57.4505 313.296 58.7874 313.255 60.3719 312.908L60.2399 311.604C58.9607 311.893 57.8054 311.984 56.5757 312.001V307.957H60.1078V306.686H55.0077V313.288ZM80.4588 309.657H71.8266V305.861H70.2751V310.911H80.4588V309.657ZM68.476 314.031H82.0103V312.776H68.476V314.031ZM70.1596 319.775H80.5579V318.487H71.7276V315.434H70.1596V319.775ZM92.7058 307.99V307.577H95.9573V306.306H87.8037V307.577H91.1213V307.99C91.113 309.995 89.6936 311.926 87.3911 312.727L88.1998 313.932C89.9576 313.313 91.2698 312.042 91.9383 310.441C92.6067 311.926 93.8942 313.09 95.5942 313.651L96.403 312.43C94.117 311.712 92.7058 309.888 92.7058 307.99ZM89.4707 316.275H97.9214V320.121H99.4894V315.005H89.4707V316.275ZM97.9214 314.262H99.4894V305.332H97.9214V314.262ZM106.306 308.584V308.452H108.848V307.198H106.306V305.498H104.821V307.198H102.246V308.452H104.821V308.584C104.812 310.375 103.789 312.067 101.916 312.826L102.658 313.981C104.094 313.395 105.085 312.289 105.605 310.944C106.133 312.182 107.107 313.197 108.501 313.734L109.244 312.545C107.362 311.877 106.306 310.251 106.306 308.584ZM104.392 316.408H112.892V320.121H114.443V315.137H104.392V316.408ZM109.772 314.328H111.274V310.499H112.958V314.394H114.443V305.349H112.958V309.211H111.274V305.597H109.772V314.328Z" fill="#ECECF8" fill-opacity="0.7"/>
<rect x="20.3521" y="328.704" width="164.197" height="24.9296" rx="12.4648" fill="#170330"/>
<path d="M35.9441 338.636H38.3208C38.2878 336.523 36.5465 335.054 33.8974 335.054C31.2813 335.054 29.3667 336.498 29.375 338.669C29.375 340.418 30.6129 341.425 32.6265 341.92L33.9304 342.234C35.2344 342.556 35.9771 342.935 35.9771 343.752C35.9771 344.644 35.1353 345.254 33.8314 345.254C32.511 345.254 31.5537 344.644 31.4712 343.439H29.0614C29.1357 346.005 30.976 347.342 33.8644 347.334C36.7776 347.342 38.4776 345.939 38.4859 343.752C38.4776 341.763 36.9509 340.724 34.9042 340.253L33.8314 339.989C32.7998 339.758 31.9085 339.37 31.9168 338.504C31.925 337.711 32.6265 337.134 33.8809 337.134C35.0941 337.134 35.8451 337.687 35.9441 338.636ZM44.0812 347.351C46.7963 347.342 48.4798 345.485 48.4881 342.713C48.4798 339.948 46.7963 338.091 44.0812 338.091C41.3743 338.091 39.6825 339.948 39.6908 342.713C39.6825 345.485 41.3743 347.342 44.0812 347.351ZM42.1666 342.713C42.1666 341.136 42.8185 339.956 44.0977 339.956C45.3438 339.956 46.0041 341.136 45.9958 342.713C46.0041 344.281 45.3438 345.444 44.0977 345.452C42.8185 345.444 42.1666 344.281 42.1666 342.713ZM54.7931 338.207H53.0105V337.662C53.0105 336.911 53.4314 336.614 54.2154 336.606C54.3475 336.614 54.6033 336.622 54.9582 336.655V334.806C54.529 334.707 54.0586 334.658 53.5057 334.658C51.7066 334.658 50.5678 335.64 50.5678 337.53V338.207H49.2969V340.039H50.5678V347.169H53.0105V340.039H54.7931V338.207ZM60.9496 338.207H59.266V336.061H56.8233V338.207H55.5854V340.039H56.8233V344.759C56.8068 346.5 58.0116 347.293 59.7777 347.284C60.3802 347.293 60.8175 347.243 61.0816 347.202V345.271C60.7845 345.296 60.3554 345.32 60.1078 345.32C59.6127 345.304 59.2578 345.131 59.266 344.413V340.039H60.9496V338.207ZM64.2506 347.169H66.842L68.3935 341.475H68.509L70.0605 347.169H72.6353L75.0946 338.207H72.6188L71.2324 344.231H71.1499L69.6644 338.207H67.2381L65.7691 344.264H65.6866L64.2837 338.207H61.8079L64.2506 347.169ZM75.9034 344.66C75.9116 346.434 77.1743 347.342 78.8908 347.334C80.2195 347.342 81.0778 346.756 81.5152 345.931H81.5812V347.169H83.8919V341.128C83.9002 338.966 82.0516 338.091 80.0957 338.091C77.719 338.091 76.3655 339.312 76.217 340.864H78.5442C78.6763 340.253 79.1962 339.882 80.0297 339.874C80.9457 339.882 81.4574 340.311 81.4657 341.062V341.788C81.086 341.805 79.8811 341.862 79.2374 341.904C77.5126 342.011 75.9116 342.663 75.9034 344.66ZM78.2471 344.594C78.2471 343.901 78.7835 343.497 79.6336 343.422C80.0462 343.389 81.0943 343.331 81.4657 343.315V343.967C81.4739 344.916 80.6982 345.642 79.584 345.65C78.8 345.642 78.2471 345.279 78.2471 344.594ZM85.757 347.169H88.1998V342.069C88.1916 340.971 89.0086 340.204 90.1144 340.204C90.4528 340.204 90.9232 340.261 91.1543 340.336V338.157C90.9397 338.108 90.6261 338.075 90.3785 338.075C89.3717 338.075 88.5382 338.66 88.2163 339.758H88.1173V338.207H85.757V347.169ZM96.1223 347.351C98.3341 347.342 99.8195 346.269 100.166 344.611H97.8389C97.5996 345.147 97.0054 345.51 96.1719 345.518C94.9092 345.51 94.1087 344.677 94.1087 343.323H100.232V342.63C100.232 339.577 98.3753 338.091 96.0233 338.091C93.399 338.091 91.6907 339.964 91.6989 342.729C91.6907 345.568 93.3742 347.342 96.1223 347.351ZM94.1087 341.788C94.1582 340.757 94.9505 339.915 96.0728 339.923C97.1622 339.915 97.9132 340.699 97.9214 341.788H94.1087ZM105.712 347.169H113.75V345.122H108.188V342.217H113.321V340.171H108.188V337.266H113.733V335.219H105.712V347.169ZM118.058 341.986C118.058 340.806 118.759 340.121 119.774 340.121C120.789 340.121 121.384 340.781 121.392 341.887V347.169H123.818V341.458C123.826 339.37 122.605 338.091 120.732 338.091C119.403 338.091 118.446 338.743 118.041 339.775H117.942V338.207H115.615V347.169H118.058V341.986ZM129.744 350.718C132.294 350.718 134.093 349.554 134.101 347.268V338.207H131.675V339.709H131.576C131.246 338.982 130.519 338.091 129.017 338.091C127.037 338.091 125.37 339.601 125.37 342.63C125.37 345.617 126.995 347.045 129.017 347.037C130.462 347.045 131.254 346.311 131.576 345.584H131.691V347.218C131.683 348.465 130.924 348.952 129.793 348.952C128.819 348.952 128.143 348.63 128.011 347.912H125.601C125.741 349.603 127.268 350.718 129.744 350.718ZM127.879 342.663C127.87 341.12 128.53 340.039 129.777 340.039C131.006 340.039 131.691 341.07 131.691 342.663C131.691 344.256 130.998 345.197 129.777 345.205C128.539 345.197 127.87 344.214 127.879 342.663ZM135.999 347.169H138.442V338.207H135.999V347.169ZM135.884 335.797C135.884 336.474 136.486 337.035 137.22 337.035C137.947 337.035 138.549 336.474 138.541 335.797C138.549 335.104 137.947 334.551 137.22 334.542C136.486 334.551 135.884 335.104 135.884 335.797ZM142.783 341.986C142.783 340.806 143.484 340.121 144.499 340.121C145.514 340.121 146.109 340.781 146.117 341.887V347.169H148.543V341.458C148.551 339.37 147.33 338.091 145.457 338.091C144.128 338.091 143.171 338.743 142.766 339.775H142.667V338.207H140.34V347.169H142.783V341.986ZM154.502 347.351C156.713 347.342 158.199 346.269 158.545 344.611H156.218C155.979 345.147 155.385 345.51 154.551 345.518C153.288 345.51 152.488 344.677 152.488 343.323H158.611V342.63C158.611 339.577 156.754 338.091 154.402 338.091C151.778 338.091 150.07 339.964 150.078 342.729C150.07 345.568 151.753 347.342 154.502 347.351ZM152.488 341.788C152.537 340.757 153.33 339.915 154.452 339.923C155.541 339.915 156.292 340.699 156.301 341.788H152.488ZM164.207 347.351C166.418 347.342 167.904 346.269 168.25 344.611H165.923C165.684 345.147 165.09 345.51 164.256 345.518C162.993 345.51 162.193 344.677 162.193 343.323H168.316V342.63C168.316 339.577 166.46 338.091 164.108 338.091C161.483 338.091 159.775 339.964 159.783 342.729C159.775 345.568 161.459 347.342 164.207 347.351ZM162.193 341.788C162.243 340.757 163.035 339.915 164.157 339.923C165.246 339.915 165.997 340.699 166.006 341.788H162.193ZM169.851 347.169H172.294V342.069C172.286 340.971 173.103 340.204 174.209 340.204C174.547 340.204 175.018 340.261 175.249 340.336V338.157C175.034 338.108 174.72 338.075 174.473 338.075C173.466 338.075 172.633 338.66 172.311 339.758H172.212V338.207H169.851V347.169Z" fill="#944AF2"/>
<rect x="20.3521" y="328.704" width="164.197" height="24.9296" rx="12.4648" stroke="#944AF2" stroke-width="0.704225"/>
<rect x="20.3521" y="359.972" width="98.1972" height="24.9296" rx="12.4648" fill="#170330"/>
<path d="M33.6664 378.437C37.314 378.437 39.5175 376.184 39.5092 372.445C39.5175 368.723 37.314 366.487 33.7159 366.487H29.4575V378.437H33.6664ZM31.9333 376.307V368.616H33.5838C35.8451 368.616 37.0334 369.788 37.0334 372.445C37.0334 375.127 35.8451 376.307 33.5673 376.307H31.9333ZM45.3191 378.618C47.5308 378.61 49.0163 377.537 49.3629 375.878H47.0356C46.7963 376.415 46.2021 376.778 45.3686 376.786C44.1059 376.778 43.3054 375.944 43.3054 374.591H49.4289V373.898C49.4289 370.844 47.5721 369.359 45.2201 369.359C42.5957 369.359 40.8874 371.232 40.8957 373.997C40.8874 376.836 42.571 378.61 45.3191 378.618ZM43.3054 373.056C43.355 372.024 44.1472 371.182 45.2696 371.191C46.3589 371.182 47.1099 371.966 47.1182 373.056H43.3054ZM59.035 369.474H56.4436L54.562 375.911H54.463L52.5814 369.474H50.0066L53.1426 378.437H55.8825L59.035 369.474ZM63.9866 378.618C66.1983 378.61 67.6837 377.537 68.0304 375.878H65.7031C65.4638 376.415 64.8696 376.778 64.0361 376.786C62.7734 376.778 61.9729 375.944 61.9729 374.591H68.0964V373.898C68.0964 370.844 66.2395 369.359 63.8875 369.359C61.2632 369.359 59.5549 371.232 59.5631 373.997C59.5549 376.836 61.2384 378.61 63.9866 378.618ZM61.9729 373.056C62.0224 372.024 62.8147 371.182 63.937 371.191C65.0264 371.182 65.7774 371.966 65.7856 373.056H61.9729ZM72.0741 366.487H69.6314V378.437H72.0741V366.487ZM77.9995 378.618C80.7147 378.61 82.3982 376.753 82.4065 373.98C82.3982 371.215 80.7147 369.359 77.9995 369.359C75.2927 369.359 73.6009 371.215 73.6091 373.98C73.6009 376.753 75.2927 378.61 77.9995 378.618ZM76.0849 373.98C76.0849 372.404 76.7369 371.224 78.016 371.224C79.2622 371.224 79.9224 372.404 79.9142 373.98C79.9224 375.548 79.2622 376.712 78.016 376.72C76.7369 376.712 76.0849 375.548 76.0849 373.98ZM83.9414 381.804H86.3842V377.001H86.4502C86.7969 377.743 87.5478 378.585 89.0086 378.585C91.0552 378.585 92.648 376.959 92.6397 373.964C92.648 370.894 90.9892 369.359 89.0086 369.359C87.4983 369.359 86.7886 370.25 86.4502 370.976H86.3512V369.474H83.9414V381.804ZM86.3347 373.947C86.3265 372.338 87.0114 371.306 88.2328 371.306C89.4955 371.306 90.1557 372.387 90.1474 373.947C90.1557 375.532 89.479 376.629 88.2328 376.637C87.0197 376.629 86.3265 375.565 86.3347 373.947ZM98.2845 378.618C100.496 378.61 101.982 377.537 102.328 375.878H100.001C99.7618 376.415 99.1676 376.778 98.3341 376.786C97.0714 376.778 96.2709 375.944 96.2709 374.591H102.394V373.898C102.394 370.844 100.538 369.359 98.1855 369.359C95.5612 369.359 93.8529 371.232 93.8611 373.997C93.8529 376.836 95.5364 378.61 98.2845 378.618ZM96.2709 373.056C96.3204 372.024 97.1127 371.182 98.235 371.191C99.3244 371.182 100.075 371.966 100.084 373.056H96.2709ZM103.929 378.437H106.372V373.336C106.364 372.239 107.181 371.471 108.287 371.471C108.625 371.471 109.095 371.529 109.327 371.603V369.425C109.112 369.375 108.798 369.342 108.551 369.342C107.544 369.342 106.71 369.928 106.389 371.026H106.29V369.474H103.929V378.437Z" fill="#944AF2"/>
<rect x="20.3521" y="359.972" width="98.1972" height="24.9296" rx="12.4648" stroke="#944AF2" stroke-width="0.704225"/>
<path d="M28.2746 415.818H21.4305V419.339H24.1483V420.296H20.2971V421.429H29.43V420.296H25.5568V419.339H28.2746V415.818ZM21.3094 423.267H26.9212V425.435H28.3187V422.167H21.3094V423.267ZM22.8059 418.238V416.907H26.8992V418.238H22.8059ZM39.2011 423.201H36.8794V421.297H38.3869V420.164H37.0224V417.347H38.4309V416.225H30.7504V417.347H32.1369V420.164H30.7945V421.297H32.3129V423.201H30.0352V424.323H39.2011V423.201ZM33.5453 420.164V417.347H35.636V420.164H33.5453ZM33.7214 423.201V421.297H35.471V423.201H33.7214Z" fill="#ECECF8" fill-opacity="0.5"/>
<path d="M21.1914 448.239H24.1211V443.22H26.3574L29.0625 448.239H32.3047L29.2969 442.741C30.9082 442.048 31.7969 440.642 31.7969 438.708C31.7969 435.905 29.9512 434.099 26.7383 434.099H21.1914V448.239ZM24.1211 440.837V436.501H26.1914C27.9297 436.511 28.7793 437.282 28.7695 438.708C28.7793 440.124 27.9297 440.837 26.1914 440.837H24.1211ZM40.5664 443.728C40.5664 445.173 39.5703 445.925 38.5156 445.935C37.3828 445.925 36.6602 445.144 36.6602 443.884V437.634H33.7695V444.392C33.7695 446.872 35.2246 448.376 37.3438 448.376C38.9453 448.376 40.0879 447.556 40.5664 446.325H40.6836V448.239H43.457V437.634H40.5664V443.728ZM48.5938 442.106C48.5938 440.71 49.4238 439.899 50.625 439.899C51.8262 439.899 52.5293 440.681 52.5391 441.989V448.239H55.4102V441.481C55.4199 439.011 53.9746 437.497 51.7578 437.497C50.1855 437.497 49.0527 438.269 48.5742 439.489H48.457V437.634H45.7031V448.239H48.5938V442.106ZM59.7461 448.239H62.8125L64.6484 441.501H64.7852L66.6211 448.239H69.668L72.5781 437.634H69.6484L68.0078 444.763H67.9102L66.1523 437.634H63.2812L61.543 444.802H61.4453L59.7852 437.634H56.8555L59.7461 448.239ZM73.5352 445.271C73.5449 447.37 75.0391 448.444 77.0703 448.435C78.6426 448.444 79.6582 447.751 80.1758 446.774H80.2539V448.239H82.9883V441.091C82.998 438.532 80.8105 437.497 78.4961 437.497C75.6836 437.497 74.082 438.942 73.9062 440.778H76.6602C76.8164 440.056 77.4316 439.616 78.418 439.606C79.502 439.616 80.1074 440.124 80.1172 441.013V441.872C79.668 441.892 78.2422 441.96 77.4805 442.009C75.4395 442.136 73.5449 442.907 73.5352 445.271ZM76.3086 445.192C76.3086 444.372 76.9434 443.894 77.9492 443.806C78.4375 443.767 79.6777 443.698 80.1172 443.679V444.45C80.127 445.573 79.209 446.433 77.8906 446.442C76.9629 446.433 76.3086 446.003 76.3086 445.192ZM86.5039 452.224C88.7402 452.214 89.9023 451.12 90.5078 449.411L94.6484 437.634H91.582L89.3359 445.446H89.2188L86.9922 437.634H83.9648L87.7734 448.532L87.5977 448.981C87.2461 449.899 86.7871 449.958 86.2109 449.958C85.8496 449.958 85.4102 449.948 85.0391 449.919V452.165C85.4102 452.204 85.9375 452.214 86.5039 452.224ZM111.699 440.231H95.4297V442.087H111.699V440.231ZM97.2852 444.685H107.285V445.583H97.3047V449.88H110.273V448.181H99.7852V447.165H109.746V442.966H97.2852V444.685ZM97.4219 434.274H107.227V435.173H97.4609V439.392H110.039V437.712H99.9414V436.755H109.727V432.575H97.4219V434.274ZM133.555 441.423H126.68V440.329H131.816V438.415H121.836V437.399H131.25V435.603H121.836V434.606H131.66V432.692H119.336V440.329H124.18V441.423H117.305V443.376H133.555V441.423ZM119.199 447.106C119.199 449.021 121.445 450.046 125.43 450.036C129.346 450.046 131.602 449.021 131.621 447.106C131.602 445.231 129.346 444.177 125.43 444.196C121.445 444.177 119.199 445.231 119.199 447.106ZM121.699 447.106C121.68 446.364 122.871 446.022 125.43 446.032C127.93 446.022 129.111 446.364 129.121 447.106C129.111 447.868 127.93 448.2 125.43 448.2C122.871 448.2 121.68 447.868 121.699 447.106ZM143.203 434.978H140.156V432.751H137.695V434.978H134.609V436.95H143.203V434.978ZM135.02 441.97C135.02 444.45 136.68 446.208 138.945 446.208C141.221 446.208 142.842 444.45 142.852 441.97C142.842 439.499 141.221 437.761 138.945 437.751C136.68 437.761 135.02 439.499 135.02 441.97ZM137.207 441.97C137.207 440.632 137.91 439.821 138.945 439.821C139.941 439.821 140.654 440.632 140.664 441.97C140.654 443.327 139.941 444.099 138.945 444.099C137.91 444.099 137.207 443.327 137.207 441.97ZM143.867 449.274H146.191V441.481H147.637V450.036H150V432.263H147.637V439.489H146.191V432.614H143.867V449.274ZM158.633 436.286V433.63H156.113V436.286C156.094 439.626 154.707 443.054 151.66 444.431L153.223 446.462C155.254 445.466 156.621 443.552 157.383 441.218C158.125 443.415 159.453 445.192 161.426 446.149L162.949 444.157C159.99 442.878 158.643 439.626 158.633 436.286ZM160.957 439.86H164.453V450.075H166.914V432.263H164.453V437.849H160.957V439.86ZM182.871 433.728H174.336V442.263H182.871V433.728ZM176.387 449.724H188.555V447.731H178.867V443.962H176.387V449.724ZM176.797 440.31V435.72H180.41V440.31H176.797ZM185.41 445.231H187.91V439.431H190.312V437.38H187.91V432.263H185.41V445.231ZM207.344 439.196H191.094V441.149H207.344V439.196ZM192.969 444.079H202.871V445.075H192.988V449.88H205.801V447.946H195.43V446.853H205.332V442.204H192.969V444.079ZM193.125 438.22H205.41V436.267H195.605V434.606H205.273V432.614H193.125V438.22ZM213.281 433.513C210.586 433.513 208.652 435.964 208.672 439.841C208.652 443.747 210.586 446.188 213.281 446.188C215.762 446.188 217.598 444.099 217.861 440.681H220.918V450.075H223.379V432.263H220.918V438.688H217.832C217.48 435.485 215.684 433.513 213.281 433.513ZM211.055 439.841C211.045 437.204 211.953 435.759 213.281 435.759C214.619 435.759 215.508 437.204 215.508 439.841C215.508 442.487 214.619 443.933 213.281 443.923C211.953 443.933 211.045 442.487 211.055 439.841ZM232.598 435.778V435.524H236.172V433.532H226.406V435.524H230.059V435.778C230.059 438.024 228.701 440.339 225.742 441.286L227.031 443.239C229.121 442.546 230.566 441.149 231.377 439.392C232.178 440.993 233.574 442.272 235.566 442.907L236.836 440.954C233.916 440.065 232.588 437.897 232.598 435.778ZM228.633 449.724H241.016V447.731H231.152V443.962H228.633V449.724ZM238.047 445.134H240.547V432.282H238.047V445.134ZM36.7969 469.915H29.8633V466.282H34.9805V457.571H22.2461V466.282H27.3828V469.915H20.5273V471.966H36.7969V469.915ZM24.707 464.329V459.563H32.5195V464.329H24.707ZM53.1836 456.282H50.8203V465.579H53.1836V456.282ZM38.5742 465.13H39.8047C42.5977 465.13 44.2383 465.081 46.1719 464.778L46.0156 462.806C44.4141 463.069 43.0371 463.138 41.0547 463.157V459.075H45.5078V457.122H38.5742V465.13ZM40.918 468.099H50.7422V469.017H40.9375V473.841H53.7109V471.888H43.418V470.872H53.1836V466.146H40.918V468.099ZM44.4727 461.868H47.2656V465.501H49.6094V456.575H47.2656V459.993H44.4727V461.868ZM62.7344 472.239L63.7988 468.978H68.916L69.9805 472.239H73.125L68.2422 458.099H64.4727L59.5703 472.239H62.7344ZM64.541 466.692L66.3086 461.282H66.4062L68.1738 466.692H64.541ZM74.7266 472.239H77.6562V467.63H80.1953C83.457 467.63 85.332 465.687 85.332 462.864C85.332 460.081 83.4863 458.099 80.2734 458.099H74.7266V472.239ZM77.6562 465.267V460.501H79.7266C81.4648 460.511 82.3145 461.458 82.3047 462.864C82.3145 464.29 81.4648 465.267 79.7266 465.267H77.6562ZM90.1172 458.099H87.1875V472.239H90.1172V458.099ZM108.086 464.231H91.8164V466.087H108.086V464.231ZM93.6719 468.685H103.672V469.583H93.6914V473.88H106.66V472.181H96.1719V471.165H106.133V466.966H93.6719V468.685ZM93.8086 458.274H103.613V459.173H93.8477V463.392H106.426V461.712H96.3281V460.755H106.113V456.575H93.8086V458.274ZM116.758 472.239L117.822 468.978H122.939L124.004 472.239H127.148L122.266 458.099H118.496L113.594 472.239H116.758ZM118.564 466.692L120.332 461.282H120.43L122.197 466.692H118.564ZM128.691 476.224H131.582V470.54H131.66C132.07 471.419 132.959 472.415 134.688 472.415C137.109 472.415 138.994 470.491 138.984 466.946C138.994 463.313 137.031 461.497 134.688 461.497C132.9 461.497 132.061 462.552 131.66 463.411H131.543V461.634H128.691V476.224ZM131.523 466.927C131.514 465.022 132.324 463.802 133.77 463.802C135.264 463.802 136.045 465.081 136.035 466.927C136.045 468.802 135.244 470.101 133.77 470.11C132.334 470.101 131.514 468.841 131.523 466.927ZM140.859 476.224H143.75V470.54H143.828C144.238 471.419 145.127 472.415 146.855 472.415C149.277 472.415 151.162 470.491 151.152 466.946C151.162 463.313 149.199 461.497 146.855 461.497C145.068 461.497 144.229 462.552 143.828 463.411H143.711V461.634H140.859V476.224ZM143.691 466.927C143.682 465.022 144.492 463.802 145.938 463.802C147.432 463.802 148.213 465.081 148.203 466.927C148.213 468.802 147.412 470.101 145.938 470.11C144.502 470.101 143.682 468.841 143.691 466.927ZM155.918 458.099H153.027V472.239H155.918V458.099ZM158.164 472.239H161.055V461.634H158.164V472.239ZM158.027 458.782C158.027 459.583 158.74 460.247 159.609 460.247C160.469 460.247 161.182 459.583 161.172 458.782C161.182 457.962 160.469 457.308 159.609 457.298C158.74 457.308 158.027 457.962 158.027 458.782ZM168.066 472.454C170.879 472.444 172.646 470.794 172.773 468.392H170.059C169.873 469.515 169.121 470.149 168.105 470.149C166.699 470.149 165.801 468.978 165.801 466.927C165.801 464.915 166.719 463.753 168.105 463.743C169.199 463.753 169.883 464.476 170.059 465.521H172.773C172.656 463.089 170.801 461.497 168.066 461.497C164.854 461.497 162.861 463.724 162.871 466.966C162.861 470.198 164.814 472.444 168.066 472.454ZM174.062 469.271C174.072 471.37 175.566 472.444 177.598 472.435C179.17 472.444 180.186 471.751 180.703 470.774H180.781V472.239H183.516V465.091C183.525 462.532 181.338 461.497 179.023 461.497C176.211 461.497 174.609 462.942 174.434 464.778H177.188C177.344 464.056 177.959 463.616 178.945 463.606C180.029 463.616 180.635 464.124 180.645 465.013V465.872C180.195 465.892 178.77 465.96 178.008 466.009C175.967 466.136 174.072 466.907 174.062 469.271ZM176.836 469.192C176.836 468.372 177.471 467.894 178.477 467.806C178.965 467.767 180.205 467.698 180.645 467.679V468.45C180.654 469.573 179.736 470.433 178.418 470.442C177.49 470.433 176.836 470.003 176.836 469.192ZM191.309 461.634H189.316V459.095H186.426V461.634H184.961V463.802H186.426V469.388C186.406 471.448 187.832 472.386 189.922 472.376C190.635 472.386 191.152 472.327 191.465 472.278V469.993C191.113 470.022 190.605 470.052 190.312 470.052C189.727 470.032 189.307 469.827 189.316 468.978V463.802H191.309V461.634ZM193.125 472.239H196.016V461.634H193.125V472.239ZM192.988 458.782C192.988 459.583 193.701 460.247 194.57 460.247C195.43 460.247 196.143 459.583 196.133 458.782C196.143 457.962 195.43 457.308 194.57 457.298C193.701 457.308 192.988 457.962 192.988 458.782ZM203.027 472.454C206.24 472.444 208.232 470.247 208.242 466.966C208.232 463.694 206.24 461.497 203.027 461.497C199.824 461.497 197.822 463.694 197.832 466.966C197.822 470.247 199.824 472.444 203.027 472.454ZM200.762 466.966C200.762 465.101 201.533 463.704 203.047 463.704C204.521 463.704 205.303 465.101 205.293 466.966C205.303 468.821 204.521 470.198 203.047 470.208C201.533 470.198 200.762 468.821 200.762 466.966ZM212.949 466.106C212.949 464.71 213.779 463.899 214.98 463.899C216.182 463.899 216.885 464.681 216.895 465.989V472.239H219.766V465.481C219.775 463.011 218.33 461.497 216.113 461.497C214.541 461.497 213.408 462.269 212.93 463.489H212.812V461.634H210.059V472.239H212.949V466.106ZM241.348 456.263H238.945V463.001H237.324V456.731H235V473.255H237.324V464.993H238.945V474.036H241.348V456.263ZM225.801 468.665L227.246 470.384C232.256 467.474 233.74 463.411 233.75 458.45H226.699V460.442H231.318C230.986 463.929 229.424 466.536 225.801 468.665ZM246.309 457.063H243.828V464.817H252.441V457.063H249.941V459.173H246.309V457.063ZM245.605 467.903H254.922V469.017H245.645V473.919H257.91V471.946H248.086V470.794H257.402V465.97H245.605V467.903ZM246.309 462.864V461.048H249.941V462.864H246.309ZM254.902 465.306H257.402V461.731H259.805V459.72H257.402V456.263H254.902V465.306ZM275.996 456.263H273.613V474.036H275.996V456.263ZM260.742 463.958C260.742 467.952 262.256 470.423 264.609 470.423C266.797 470.423 268.291 468.304 268.506 464.817H269.941V473.216H272.285V456.517H269.941V462.845H268.486C268.213 459.524 266.748 457.522 264.609 457.532C262.256 457.522 260.742 459.983 260.742 463.958ZM263.047 463.958C263.027 461.233 263.613 459.876 264.609 459.876C265.635 459.876 266.24 461.233 266.23 463.958C266.24 466.692 265.635 468.04 264.609 468.021C263.613 468.04 263.027 466.692 263.047 463.958ZM27.0703 484.286V481.63H24.5703V484.286C24.5703 487.587 23.1543 490.985 20.1367 492.372L21.6797 494.384C23.6914 493.388 25.0586 491.503 25.8398 489.208C26.5723 491.347 27.8613 493.104 29.7656 494.052L31.2695 492.06C28.418 490.683 27.0605 487.47 27.0703 484.286ZM32.0508 498.036H34.5508V489.228H37.168V487.118H34.5508V480.263H32.0508V498.036ZM54.0234 488.681H50.293V486.571C51.6211 486.005 52.373 485.116 52.3828 483.954C52.373 481.806 49.8438 480.526 45.918 480.517C41.9629 480.526 39.4336 481.806 39.4336 483.954C39.4336 485.097 40.166 485.976 41.4648 486.552V488.681H37.8125V490.673H54.0234V488.681ZM39.668 494.794C39.668 496.894 42.002 498.017 45.8984 498.017C49.7363 498.017 52.0703 496.894 52.0898 494.794C52.0703 492.743 49.7363 491.601 45.8984 491.61C42.002 491.601 39.668 492.743 39.668 494.794ZM42.0312 483.954C42.0117 482.958 43.4082 482.431 45.918 482.431C48.3984 482.431 49.8047 482.958 49.8047 483.954C49.8047 484.931 48.3984 485.429 45.918 485.419C43.4082 485.429 42.0117 484.931 42.0312 483.954ZM42.207 494.794C42.1973 493.915 43.4375 493.495 45.8984 493.485C48.3105 493.495 49.5801 493.915 49.5898 494.794C49.5801 495.702 48.3105 496.161 45.8984 496.161C43.4375 496.161 42.1973 495.702 42.207 494.794ZM43.9844 488.681V487.187C44.5801 487.255 45.2246 487.294 45.918 487.294C46.5918 487.294 47.2266 487.265 47.8125 487.187V488.681H43.9844ZM69.1211 480.263H66.6602V498.036H69.1211V489.267H71.7383V487.216H69.1211V480.263ZM55 484.911H65.4492V482.919H61.5234V480.536H59.0234V482.919H55V484.911ZM55.7227 490.146C55.7129 492.626 57.6465 494.374 60.2734 494.384C62.8613 494.374 64.8047 492.626 64.8047 490.146C64.8047 487.665 62.8613 485.897 60.2734 485.907C57.6465 485.897 55.7129 487.665 55.7227 490.146ZM58.1055 490.146C58.1055 488.778 59.0137 487.938 60.2734 487.919C61.5137 487.938 62.4219 488.778 62.4219 490.146C62.4219 491.522 61.5137 492.343 60.2734 492.333C59.0137 492.343 58.1055 491.522 58.1055 490.146ZM86.8164 485.106H76.875V480.888H74.3945V487.06H86.8164V485.106ZM72.3633 490.927H88.6328V488.974H72.3633V490.927ZM74.2383 497.646H86.9336V495.653H76.7383V492.372H74.2383V497.646ZM100.82 484.286V481.63H98.3203V484.286C98.3203 487.587 96.9043 490.985 93.8867 492.372L95.4297 494.384C97.4414 493.388 98.8086 491.503 99.5898 489.208C100.322 491.347 101.611 493.104 103.516 494.052L105.02 492.06C102.168 490.683 100.811 487.47 100.82 484.286ZM105.801 498.036H108.301V489.228H110.918V487.118H108.301V480.263H105.801V498.036ZM125.664 480.282H123.164V490.829H125.664V486.552H128.066V484.481H125.664V480.282ZM112.188 483.134H117.93V484.677H112.207V490.185H113.711C117.314 490.185 119.6 490.097 122.148 489.599L121.875 487.646C119.609 488.046 117.617 488.134 114.688 488.153V486.552H120.352V481.142H112.188V483.134ZM114.023 497.841H125.664V491.571H114.023V497.841ZM116.465 495.849V493.524H123.223V495.849H116.465ZM143.73 480.263H141.23V489.813H143.73V480.263ZM129.121 485.224C129.121 487.646 131.211 489.384 133.984 489.384C136.748 489.384 138.838 487.646 138.848 485.224C138.838 482.724 136.748 480.985 133.984 481.005C131.211 480.985 129.121 482.724 129.121 485.224ZM131.562 485.224C131.543 483.886 132.559 483.065 133.984 483.075C135.371 483.065 136.377 483.886 136.387 485.224C136.377 486.542 135.371 487.333 133.984 487.333C132.559 487.333 131.543 486.542 131.562 485.224ZM131.836 497.841H143.73V490.595H141.25V492.255H134.297V490.595H131.836V497.841ZM134.297 495.829V494.188H141.25V495.829H134.297ZM161.074 480.263H158.594V498.036H161.074V480.263ZM147.09 493.642H148.652C151.396 493.651 154.346 493.456 157.461 492.802L157.148 490.751C154.531 491.259 151.953 491.483 149.551 491.522V481.962H147.09V493.642ZM177.441 480.263H174.941V498.075H177.441V488.896H180.059V486.864H177.441V480.263ZM164.121 493.759H165.625C168.76 493.769 171.182 493.7 173.945 493.231L173.672 491.142C171.309 491.552 169.18 491.688 166.602 491.708V483.915H172.461V481.903H164.121V493.759ZM183.008 496.415C183.877 496.415 184.629 495.683 184.629 494.774C184.629 493.876 183.877 493.144 183.008 493.153C182.09 493.144 181.348 493.876 181.367 494.774C181.348 495.683 182.09 496.415 183.008 496.415Z" fill="#ECECF8"/>
<rect x="0.5" y="0.5" width="299" height="599" rx="19.5" stroke="#282B30"/>
<defs>
<linearGradient id="paint0_linear_17_3741" x1="150" y1="46" x2="150" y2="243.183" gradientUnits="userSpaceOnUse">
<stop stop-color="#A2BFF8"/>
<stop offset="1" stop-color="#A2BFF8" stop-opacity="0"/>
</linearGradient>
</defs>
</svg>
