<svg width="150" height="150" viewBox="0 0 150 150" fill="none" xmlns="http://www.w3.org/2000/svg">
<g clip-path="url(#clip0_9986_137228)">
<rect width="150" height="150" fill="white"/>
<rect width="150" height="150" fill="#E3F0DF"/>
<path d="M94.4958 106.133C89.7117 105.988 75.5169 101.444 72.695 99.3476L94.4958 106.133Z" fill="#EB8682"/>
<path d="M96.4646 128.528C105.291 140.929 133.831 144.61 138.7 146.383C146.687 149.419 148.045 157.626 148.163 162.097C148.505 174.836 149.994 196.688 145.538 208.236" fill="#EB8682"/>
<path d="M96.4646 128.528C91.1095 118.845 94.4958 106.133 94.4958 106.133C94.4958 106.133 104.871 106.629 109.032 104.493C117.032 101.034 126.534 88.3817 126.436 70.2662C126.209 53.9525 122.79 37.8442 116.375 22.8643C110.587 7.77801 74.6704 -6.32285 47.613 20.027C47.613 20.027 33.0245 33.4664 41.4967 55.8016" fill="#EB8682"/>
<path d="M-0.543418 208.236C-4.39563 195.795 -2.87969 163.083 -2.32187 158.466C-1.76405 153.85 0.388457 144.485 11.7876 141.634C16.8276 140.358 48.3874 135.215 54.7924 126.293" fill="#EB8682"/>
<path d="M56.3412 92.5617C56.3412 92.5617 45.7427 86.4967 41.5164 73.851C37.2901 61.2052 41.4967 55.8016 41.4967 55.8016C44.8896 50.7023 58.3887 49.4522 58.3887 64.8362" fill="#EB8682"/>
<path d="M56.3412 92.5617C57.1484 108.634 57.3518 116.008 54.7924 126.293L56.3412 92.5617Z" fill="#EB8682"/>
<path d="M96.4646 128.528C105.291 140.929 133.831 144.61 138.7 146.383C146.687 149.419 148.045 157.626 148.163 162.097C148.505 174.836 149.994 196.688 145.538 208.236H-0.543418C-4.39563 195.795 -2.87969 163.083 -2.32187 158.466C-1.76405 153.85 0.388457 144.485 11.7876 141.634C16.8276 140.358 48.3874 135.215 54.7924 126.293C57.3518 116.008 57.1484 108.634 56.3412 92.5617C56.3412 92.5617 45.7427 86.4967 41.5164 73.851C37.2901 61.2052 41.4967 55.8016 41.4967 55.8016C33.0245 33.4664 47.613 20.027 47.613 20.027C74.6704 -6.32285 110.587 7.77801 116.375 22.8643C122.79 37.8442 126.209 53.9525 126.436 70.2662C126.534 88.3817 117.032 101.034 109.032 104.493C104.871 106.629 94.4958 106.133 94.4958 106.133C94.4958 106.133 91.1095 118.845 96.4646 128.528Z" fill="#EB8682"/>
<path opacity="0.4" d="M94.3444 105.624C93.709 110.125 92.7246 116.739 94.3444 122.03C88.3397 120.595 71.3887 108.785 71.3887 99.1953C78.8053 102.115 86.4966 104.269 94.3444 105.624Z" fill="#050504"/>
<path d="M49.2317 59.5293C46.6723 60.2304 44.9266 64.126 46.961 68.3258" stroke="#050504" stroke-width="3" stroke-linecap="round"/>
<path d="M-2.98362 152.376C-3.54454 156.995 -5.06893 189.726 -1.19525 202.173H145.701C150.181 190.619 148.684 168.754 148.34 156.009C148.222 151.535 146.856 143.323 138.824 140.285C134.341 138.661 111.401 135.772 99.5222 126.176L76.0953 137.426L51.3487 123.529C40.6741 130.182 15.5739 134.433 11.2045 135.534C-0.258189 138.386 -2.4227 147.757 -2.98362 152.376Z" fill="#A2BFF8" stroke="#050504" stroke-width="3" stroke-linecap="round" stroke-linejoin="round"/>
<path d="M66.2944 136.66C55.0759 133.569 51.6246 128.48 48.9453 124.563C49.8626 120.486 50.3579 114.928 55.3073 112.611C46.7284 117.244 55.3003 120.414 70.9467 123.663L66.2944 136.66Z" fill="#E5ECF9"/>
<path d="M87.5897 135.019C98.8082 131.928 98.2077 130.122 99.7519 128.083C99.7519 123.219 99.3955 116.728 94.5122 114.802C101.725 118.534 97.5676 121.817 82.2444 123.663L87.5897 135.019Z" fill="#E5ECF9"/>
<path d="M66.2944 136.66C55.0759 133.569 51.6246 128.48 48.9453 124.563C49.8626 120.486 50.3579 114.928 55.3073 112.611C46.7284 117.244 55.3003 120.414 70.9467 123.663L66.2944 136.66Z" stroke="#050504" stroke-width="3" stroke-linecap="round" stroke-linejoin="round"/>
<path d="M87.5897 135.019C98.8082 131.928 98.2077 130.122 99.7519 128.083C99.7519 123.219 99.3955 116.728 94.5122 114.802C101.725 118.534 97.5676 121.817 82.2444 123.663L87.5897 135.019Z" stroke="#050504" stroke-width="3" stroke-linecap="round" stroke-linejoin="round"/>
<path d="M57.287 119.228L56.2971 112.279C54.636 112.405 51.6777 114.435 51.6777 116.25C51.6777 118.065 55.7366 119.102 57.287 119.228Z" fill="#050504"/>
<path d="M92.2623 121.213L93.5821 114.926C95.2432 115.052 97.8715 116.089 97.8715 117.904C97.8715 119.719 93.8127 121.087 92.2623 121.213Z" fill="#050504"/>
<g opacity="0.2">
<path d="M81.0439 123.529L86.6531 132.741L81.4662 134.958L78.3514 136.222L81.0439 123.529Z" fill="#050504"/>
<path d="M72.1351 123.529L74.7747 136.103L69.6802 133.721L67.2715 132.397L72.1351 123.529Z" fill="#050504"/>
</g>
<path d="M68.3689 76.6632C65.0071 70.3056 65.0202 69.0366 63.1366 62.1093C62.2471 58.801 61.1025 55.5639 61.5865 52.0355C62.6461 44.3119 66.5245 38.4916 73.8104 34.9373C79.5528 32.1275 85.7269 30.7679 92.0776 30.0493C98.1364 29.2718 104.291 29.6988 110.181 31.3053C113.118 32.1405 115.982 33.2475 118.886 34.1539C120.077 34.5424 121.431 34.9179 122.438 33.9921C124.576 32.0174 125.61 25.6987 126.362 22.7465C127.971 17.2629 128.834 12.0641 126.8 7.2862C125.387 3.95849 123.039 1.45947 119.233 0.637255C116.152 -0.123241 112.918 -0.0201302 109.893 0.935061C109.056 1.20697 108.749 0.935057 108.585 0.203478C108.324 -0.97484 107.842 -2.09455 107.166 -3.09833C102.261 -10.7896 91.2011 -12.6089 83.9348 -6.86629C83.0192 -6.14766 82.738 -6.27067 82.1428 -7.19C81.2818 -8.58851 80.1163 -9.77918 78.7314 -10.6752C77.3465 -11.5712 75.777 -12.15 74.1374 -12.3693C71.0137 -12.8345 67.8355 -12.8105 64.7194 -12.2981C58.6172 -11.3335 54.1175 -8.51072 52.2927 -2.51566C52.2739 -2.35765 52.2215 -2.20534 52.1393 -2.06866C52.057 -1.93198 51.9465 -1.81399 51.8151 -1.72238C51.6837 -1.63076 51.5342 -1.56758 51.3765 -1.53694C51.2188 -1.5063 51.0563 -1.50889 50.8996 -1.54454C48.8087 -1.71517 46.7063 -1.40267 44.7583 -0.631681C35.6672 3.07153 29.4931 9.2155 27.5572 18.7908C26.7724 22.6753 26.7004 26.5598 28.6363 30.1982C29.1007 31.0852 28.8914 31.3895 28.0608 31.8491C19.0351 36.8213 14.8035 47.4648 18.1587 56.7487C19.82 61.3518 23.9731 65.8125 30.3041 65.696C31.1347 65.696 31.3048 66.1168 31.5468 66.7318C33.2407 71.1343 31.9327 80.7743 34.1041 85.0019C36.9556 90.5373 38.0283 92.1558 42.2664 96.7395C44.0192 98.6494 45.9682 99.5558 49.1207 98.74C51.606 97.4452 53.9932 96.5 55.5367 94.5642C55.9618 93.9492 55.9548 93.1965 55.9286 92.18C54.7666 91.44 54.0314 90.8079 52.9855 89.9141C49.5257 87.3244 44.5163 81.3617 42.2664 75.671C40.736 72.3562 38.4599 63.6178 39.768 59.3125C41.148 54.7806 43.3652 53.0131 45.0853 52.4563C46.5924 51.87 48.2038 51.5919 49.8224 51.6386C51.441 51.6853 53.0333 52.056 54.5033 52.7282C57.6623 54.6705 57.9893 55.9977 59.3301 59.8498C60.8867 68.4216 61.1222 74.5073 62.9992 82.71C63.8299 86.3485 64.7324 89.9934 65.0268 93.7161C65.1903 95.8137 66.2236 96.8625 67.8849 97.7883C70.4618 99.2213 73.0975 100.548 75.7921 101.77C81.9204 104.573 88.2711 106.626 95.1188 106.6C101.437 106.6 107.755 106.716 114.086 106.846C115.825 106.846 117.559 106.846 119.318 106.846C120.229 106.893 121.13 106.647 121.888 106.144C122.645 105.641 123.217 104.908 123.517 104.055C123.966 102.939 124.307 101.784 124.537 100.605C125.584 95.6583 126.617 90.7099 127.637 85.7594C128.259 82.7748 128.893 76.6955 128.331 73.6397C128.262 73.1412 128.015 72.6836 127.635 72.3498C127.254 72.0161 126.766 71.8283 126.257 71.8205C124.982 71.6716 124.191 72.4679 123.393 73.193C120.777 75.6597 118.128 78.1393 114.838 79.8355C110.299 82.1792 105.387 83.338 100.377 84.0955C85.2625 85.591 75.0858 84.335 68.3689 76.6632Z" fill="#050504"/>
<path d="M97.2237 58.3217C97.2237 59.1501 97.8953 59.8217 98.7237 59.8217C99.5521 59.8217 100.224 59.1501 100.224 58.3217H97.2237ZM107.392 57.2298C107.392 58.0582 108.063 58.7298 108.892 58.7298C109.72 58.7298 110.392 58.0582 110.392 57.2298H107.392ZM78.2973 59.2159C79.0872 59.4656 79.93 59.0277 80.1797 58.2378C80.4294 57.4479 79.9915 56.6051 79.2017 56.3554L78.2973 59.2159ZM43.3624 52.604L44.0078 53.9581C44.024 53.9504 44.04 53.9424 44.056 53.9341L43.3624 52.604ZM36.6295 63.2474C36.7806 64.062 37.5634 64.5998 38.3779 64.4487C39.1924 64.2976 39.7303 63.5148 39.5792 62.7003L36.6295 63.2474ZM97.2237 57.7856C97.2237 63.5653 93.2249 67.8599 88.7399 67.8599V70.8599C95.2826 70.8599 100.224 64.7906 100.224 57.7856H97.2237ZM88.7399 67.8599C84.2548 67.8599 80.256 63.5653 80.256 57.7856H77.256C77.256 64.7906 82.1971 70.8599 88.7399 70.8599V67.8599ZM80.256 57.7856C80.256 52.006 84.2548 47.7114 88.7399 47.7114V44.7114C82.1971 44.7114 77.256 50.7807 77.256 57.7856H80.256ZM88.7399 47.7114C93.2249 47.7114 97.2237 52.006 97.2237 57.7856H100.224C100.224 50.7807 95.2826 44.7114 88.7399 44.7114V47.7114ZM127.267 55.5489C127.267 61.3285 123.268 65.6231 118.783 65.6231V68.6231C125.326 68.6231 130.267 62.5538 130.267 55.5489H127.267ZM118.783 65.6231C114.298 65.6231 110.3 61.3285 110.3 55.5489H107.3C107.3 62.5538 112.241 68.6231 118.783 68.6231V65.6231ZM110.3 55.5489C110.3 49.7692 114.298 45.4746 118.783 45.4746V42.4746C112.241 42.4746 107.3 48.5439 107.3 55.5489H110.3ZM118.783 45.4746C123.268 45.4746 127.267 49.7692 127.267 55.5489H130.267C130.267 48.5439 125.326 42.4746 118.783 42.4746V45.4746ZM100.224 58.3217C100.224 57.8089 100.472 57.3553 101.119 56.9434C101.798 56.5102 102.802 56.2203 103.899 56.1536C104.997 56.0867 106.01 56.2545 106.683 56.56C107.367 56.8701 107.392 57.1423 107.392 57.2298H110.392C110.392 55.4742 109.145 54.3824 107.922 53.8278C106.689 53.2687 105.16 53.0712 103.716 53.1591C102.271 53.247 100.733 53.6317 99.5063 54.4135C98.2461 55.2165 97.2237 56.5183 97.2237 58.3217H100.224ZM78.7495 57.7856C79.2017 56.3554 79.2014 56.3553 79.2011 56.3552C79.2008 56.3551 79.2003 56.355 79.1998 56.3548C79.1988 56.3545 79.1973 56.354 79.1954 56.3534C79.1916 56.3523 79.1861 56.3505 79.179 56.3483C79.1646 56.3438 79.1436 56.3372 79.116 56.3285C79.0609 56.3113 78.9797 56.286 78.8738 56.2533C78.6622 56.1879 78.3521 56.0928 77.9557 55.9734C77.1629 55.7346 76.0242 55.3982 74.6359 55.0066C71.8613 54.2238 68.0812 53.2177 64.0697 52.3283C60.066 51.4406 55.7932 50.6603 52.0438 50.3417C50.1694 50.1823 48.3917 50.1353 46.8249 50.2577C45.2804 50.3784 43.824 50.6717 42.6689 51.274L44.056 53.9341C44.6935 53.6016 45.6875 53.3557 47.0586 53.2486C48.4075 53.1432 50.0106 53.1797 51.7898 53.3309C55.3478 53.6333 59.4735 54.3821 63.4203 55.2571C67.3592 56.1305 71.0813 57.1209 73.8214 57.8939C75.1904 58.2801 76.3121 58.6115 77.0904 58.8459C77.4795 58.9631 77.7827 59.056 77.9879 59.1195C78.0905 59.1512 78.1685 59.1755 78.2206 59.1918C78.2467 59.1999 78.2662 59.2061 78.279 59.2101C78.2855 59.2121 78.2902 59.2136 78.2933 59.2146C78.2948 59.2151 78.2959 59.2154 78.2966 59.2156C78.2969 59.2157 78.2971 59.2158 78.2973 59.2159C78.2973 59.2159 78.2973 59.2159 78.7495 57.7856ZM42.7171 51.2499C40.5258 52.2943 38.7416 54.0387 37.6412 56.2088L40.3169 57.5655C41.119 55.9838 42.4174 54.716 44.0078 53.9581L42.7171 51.2499ZM37.6412 56.2088C36.5409 58.3788 36.1855 60.8536 36.6295 63.2474L39.5792 62.7003C39.2551 60.9532 39.5148 59.1474 40.3169 57.5655L37.6412 56.2088Z" fill="white"/>
<path d="M105.538 60.9961C105.209 60.236 104.326 59.8867 103.565 60.2161C102.805 60.5454 102.456 61.4287 102.785 62.1888L105.538 60.9961ZM105.155 78.0456C104.4 78.3869 104.065 79.2754 104.406 80.0303C104.747 80.7852 105.636 81.1205 106.391 80.7793L105.155 78.0456ZM73.8476 46.112C73.3173 46.7485 73.4034 47.6943 74.0398 48.2246C74.6763 48.7549 75.6221 48.6688 76.1524 48.0323L73.8476 46.112ZM89.4523 40.7677L89.708 39.2897L89.6974 39.2879L89.4523 40.7677ZM91.0971 42.7622C91.8727 43.0534 92.7375 42.6608 93.0287 41.8852C93.3199 41.1096 92.9272 40.2449 92.1516 39.9537L91.0971 42.7622ZM106.088 41.7796C105.48 42.3423 105.443 43.2914 106.006 43.8993C106.569 44.5073 107.518 44.544 108.126 43.9812L106.088 41.7796ZM120.469 39.7081L121.106 38.3499L121.104 38.3491L120.469 39.7081ZM121.296 41.9538C121.955 42.4562 122.896 42.3294 123.399 41.6707C123.901 41.012 123.774 40.0707 123.116 39.5684L121.296 41.9538ZM104.162 61.5924C102.785 62.1888 102.785 62.1888 102.785 62.1889C102.785 62.189 102.785 62.1891 102.786 62.1893C102.786 62.1896 102.786 62.1902 102.786 62.1909C102.787 62.1924 102.788 62.1947 102.789 62.1978C102.792 62.2039 102.796 62.213 102.801 62.2252C102.812 62.2495 102.827 62.2858 102.848 62.3332C102.889 62.4281 102.949 62.5677 103.026 62.7461C103.179 63.1029 103.398 63.6147 103.661 64.2336C104.188 65.472 104.889 67.1372 105.59 68.8477C106.291 70.561 106.987 72.3076 107.506 73.7127C107.766 74.4171 107.976 75.019 108.118 75.4804C108.189 75.7118 108.239 75.8913 108.269 76.0213C108.306 76.1798 108.293 76.1792 108.293 76.0926H111.293C111.293 75.8181 111.237 75.5399 111.191 75.343C111.139 75.1176 111.067 74.8638 110.985 74.596C110.819 74.059 110.588 73.399 110.321 72.6735C109.784 71.2191 109.072 69.4345 108.366 67.7106C107.658 65.9838 106.952 64.3056 106.422 63.06C106.157 62.4369 105.936 61.9215 105.782 61.5617C105.705 61.3817 105.644 61.2406 105.602 61.1444C105.581 61.0962 105.565 61.0593 105.555 61.0344C105.549 61.0219 105.545 61.0124 105.542 61.006C105.541 61.0028 105.54 61.0003 105.539 60.9987C105.539 60.9979 105.539 60.9972 105.538 60.9968C105.538 60.9966 105.538 60.9964 105.538 60.9963C105.538 60.9962 105.538 60.9961 104.162 61.5924ZM108.293 76.0926C108.293 75.8419 108.42 75.8648 108.098 76.191C107.834 76.4581 107.437 76.7567 106.975 77.0518C106.525 77.3397 106.066 77.5905 105.715 77.7711C105.541 77.8606 105.397 77.9311 105.298 77.9785C105.248 78.0021 105.21 78.0199 105.186 78.0313C105.174 78.037 105.165 78.041 105.16 78.0435C105.157 78.0447 105.155 78.0455 105.154 78.0458C105.154 78.046 105.154 78.0461 105.154 78.046C105.154 78.046 105.154 78.046 105.154 78.0459C105.154 78.0459 105.154 78.0458 105.154 78.0458C105.155 78.0457 105.155 78.0456 105.773 79.4125C106.391 80.7793 106.391 80.7792 106.391 80.7791C106.391 80.779 106.391 80.7789 106.392 80.7788C106.392 80.7786 106.392 80.7784 106.393 80.7782C106.394 80.7777 106.395 80.7771 106.397 80.7764C106.4 80.775 106.404 80.7732 106.409 80.7709C106.419 80.7664 106.433 80.7601 106.45 80.7521C106.484 80.7361 106.533 80.7134 106.593 80.6844C106.714 80.6265 106.884 80.5432 107.087 80.4389C107.49 80.2318 108.036 79.9342 108.591 79.5799C109.134 79.2329 109.742 78.7954 110.232 78.2991C110.664 77.862 111.293 77.0944 111.293 76.0926H108.293ZM76.1524 48.0323C79.6943 43.7813 84.7262 41.5055 89.2072 42.2476L89.6974 39.2879C83.8921 38.3265 77.8718 41.282 73.8476 46.112L76.1524 48.0323ZM89.1966 42.2458C89.8442 42.3578 90.4805 42.5307 91.0971 42.7622L92.1516 39.9537C91.3593 39.6562 90.5412 39.4338 89.708 39.2897L89.1966 42.2458ZM108.126 43.9812C111.859 40.5257 116.362 39.4444 119.835 41.0671L121.104 38.3491C116.166 36.0416 110.383 37.804 106.088 41.7796L108.126 43.9812ZM119.833 41.0663C120.35 41.3086 120.84 41.606 121.296 41.9538L123.116 39.5684C122.49 39.0916 121.817 38.6831 121.106 38.3499L119.833 41.0663Z" fill="#050504"/>
<path d="M92.8262 87.1133C94.7948 91.7681 101.606 92.8866 104.71 92.3586" stroke="white" stroke-width="3" stroke-miterlimit="10" stroke-linecap="round"/>
<path d="M89.1807 64.3969C91.2372 64.3969 92.9043 62.0847 92.9043 59.2326C92.9043 56.3805 91.2372 54.0684 89.1807 54.0684C87.1242 54.0684 85.457 56.3805 85.457 59.2326C85.457 62.0847 87.1242 64.3969 89.1807 64.3969Z" fill="#050504"/>
<path d="M91.6294 57.3674C90.6325 53.5311 85.6478 52.9343 82.043 56.1267" stroke="#050504" stroke-width="3" stroke-linecap="round"/>
<path d="M118.312 62.5316C120.368 62.5316 122.035 60.2195 122.035 57.3674C122.035 54.5152 120.368 52.2031 118.312 52.2031C116.255 52.2031 114.588 54.5152 114.588 57.3674C114.588 60.2195 116.255 62.5316 118.312 62.5316Z" fill="#050504"/>
<path d="M120.76 55.5022C119.763 51.6659 114.779 51.069 111.174 54.2615" stroke="#050504" stroke-width="3" stroke-linecap="round"/>
</g>
<defs>
<clipPath id="clip0_9986_137228">
<rect width="150" height="150" fill="white"/>
</clipPath>
</defs>
</svg>
