<svg width="300" height="645" viewBox="0 0 300 645" fill="none" xmlns="http://www.w3.org/2000/svg">
<rect width="300" height="644.225" rx="20" fill="black"/>
<rect x="20" y="46" width="260" height="197.183" rx="8.4507" fill="url(#paint0_linear_17_3805)"/>
<ellipse cx="187.187" cy="135.422" rx="4.57746" ry="11.9718" transform="rotate(9.95946 187.187 135.422)" fill="#F3A4A7"/>
<circle cx="186.62" cy="147.409" r="4.92958" fill="white"/>
<path d="M140.19 195.296C144.697 192.761 139.486 163.019 136.317 148.465C143.477 148.465 157.937 149.099 158.5 151.634C159.064 154.17 165.542 178.043 168.712 189.663L152.514 216.775C146.528 210.672 135.683 197.832 140.19 195.296Z" fill="#FDC6BF"/>
<mask id="mask0_17_3805" style="mask-type:alpha" maskUnits="userSpaceOnUse" x="136" y="148" width="33" height="69">
<path d="M140.191 195.296C144.698 192.761 139.486 163.019 136.317 148.465C143.477 148.465 157.937 149.099 158.5 151.634C159.064 154.17 165.543 178.043 168.712 189.663L152.515 216.775C146.529 210.672 135.684 197.832 140.191 195.296Z" fill="#FDC6BF"/>
</mask>
<g mask="url(#mask0_17_3805)">
<path d="M167.655 155.508L172.585 185.085C172.585 185.085 165.895 189.663 149.698 173.465C133.5 157.268 129.627 152.339 129.627 152.339L133.853 142.127L167.655 155.508Z" fill="#F3A4A7"/>
</g>
<path d="M119.77 65.7192C129.065 59.8037 134.441 68.184 135.967 73.1135C139.49 73.1135 134.557 78.0428 132.444 86.8456C130.331 95.6484 126.81 115.015 122.937 122.057C119.064 129.099 114.486 133.677 111.669 147.057C109.416 157.761 118.242 175.461 122.937 182.972C116.247 176.986 101.108 160.085 94.0651 140.367C85.2621 115.719 106.037 117.832 102.868 94.5921C99.6991 71.3526 108.15 73.1135 119.77 65.7192Z" fill="#A9504F"/>
<circle cx="125.754" cy="83.3244" r="9.50704" fill="white"/>
<path d="M110.915 97.4086C118.239 68.3945 147.535 68.4177 159.507 74.8731C168.237 70.6481 171.292 78.7474 171.528 82.2682L153.57 152.691C152.817 159.733 127.746 158.254 124.648 149.521C120.774 138.606 101.76 133.676 110.915 97.4086Z" fill="#DE6351"/>
<path d="M194.414 83.6763C187.935 74.0989 164.485 76.5157 158.499 81.5627C150.752 91.4214 170.536 98.113 173.353 105.507C175.606 111.423 182.981 134.497 184.859 143.183C186.385 140.601 194.414 131.563 191.949 119.24C189.484 106.916 200.893 93.2538 194.414 83.6763Z" fill="#DE6351"/>
<path d="M185.963 117.127C186.808 112.057 186.667 105.154 176.103 91.0694C165.54 76.9849 140.543 92.4793 135.965 98.8173C131.388 105.155 131.388 128.747 129.977 127.691C128.566 126.634 125.751 125.93 122.582 128.747C119.413 131.564 120.47 139.31 121.174 144.24C121.878 149.169 127.512 150.93 129.977 152.691C131.949 154.099 137.136 154.686 139.484 154.803C145.472 169.592 171.528 172.157 173.641 172.761C175.754 173.365 178.571 172.761 179.979 170.648C181.388 168.536 180.699 162.354 185.963 153.747C189.838 147.409 188.43 144.944 186.667 140.015C185.02 135.409 184.906 123.465 185.963 117.127Z" fill="#FDC4BD"/>
<path d="M132.797 137.198C133.854 138.959 132.447 140.367 131.039 141.776C129.152 143.663 131.395 145.296 131.391 145.296C129.984 148.113 129.628 147.761 125.051 145.296C120.473 142.832 120.826 134.734 124.347 132.269C127.868 129.804 131.741 135.438 132.797 137.198Z" fill="#FA9CAE"/>
<path d="M169.768 153.728C174.538 154.026 178.422 154.093 180.331 153.023C177.866 155.136 177.779 156.382 175.05 156.545C170.584 156.81 164.328 155.209 162.726 153.023C164.694 154.008 167.206 153.568 169.768 153.728Z" fill="white"/>
<path d="M162.021 153.032C176.106 156.193 177.749 154.675 180.683 153.032C180.402 152.468 179.158 152.266 178.571 151.359C178.219 151.006 177.162 151.967 176.458 152.319C175.895 152.601 174.58 151.945 173.641 151.711L162.021 153.032Z" fill="#E25E78"/>
<path d="M146.53 123.029C148.642 119.86 150.403 120.565 152.868 119.508C154.824 118.67 159.482 120.765 161.619 121.944C162.977 122.973 162.725 127.959 162.725 129.015C162.725 130.071 160.26 132.536 158.852 132.888C157.444 133.24 150.403 131.832 148.995 130.776C147.586 129.719 144.417 126.198 146.53 123.029Z" fill="#EDF1FA"/>
<mask id="mask1_17_3805" style="mask-type:alpha" maskUnits="userSpaceOnUse" x="145" y="119" width="18" height="14">
<path d="M146.529 123.03C148.642 119.861 150.402 120.565 152.867 119.509C154.823 118.671 159.481 120.766 161.618 121.945C162.977 122.973 162.724 127.959 162.724 129.016C162.724 130.072 160.26 132.537 158.851 132.889C157.443 133.241 150.402 131.832 148.994 130.776C147.585 129.72 144.416 126.199 146.529 123.03Z" fill="#EDF1FA"/>
</mask>
<g mask="url(#mask1_17_3805)">
<path d="M155.683 129.016C154.258 126.165 154.744 121.739 155.683 119.509C157.093 117.748 161.668 120.565 162.373 121.973C163.077 123.382 164.157 130.315 162.021 132.185C159.204 134.651 157.797 133.242 155.683 129.016Z" fill="#51673E"/>
</g>
<path d="M148.29 130.071C146.319 128.944 146.06 125.611 146.178 124.086C147.367 121.707 149.144 120.755 151.106 120.212C154.719 119.212 159.663 121.034 162.021 122.327C159.908 119.863 153.922 117.817 149.697 119.508C145.472 121.198 145.12 120.212 144.415 119.508C144.768 120.916 146.035 122.043 148.289 120.916C147.584 121.973 145.683 123.945 143.711 123.381C141.739 122.818 141.012 122.677 140.894 122.677C142.185 123.264 144.838 124.438 145.12 124.438C145.472 124.438 145.472 125.846 145.824 126.55C146.176 127.254 146.532 129.366 148.29 130.071Z" fill="#000525"/>
<ellipse cx="159.204" cy="125.494" rx="1.05634" ry="2.8169" fill="#000525"/>
<ellipse cx="156.387" cy="123.381" rx="1.05634" ry="0.704225" fill="white"/>
<path d="M183.206 122.991C181.914 119.822 180.837 120.526 179.33 119.47C178.134 118.631 175.285 120.727 173.978 121.906C173.148 122.934 173.302 127.92 173.302 128.976C173.302 130.033 174.809 132.498 175.67 132.85C176.532 133.202 180.837 131.793 181.699 130.737C182.56 129.681 184.498 126.16 183.206 122.991Z" fill="#EDF1FA"/>
<mask id="mask2_17_3805" style="mask-type:alpha" maskUnits="userSpaceOnUse" x="173" y="119" width="11" height="14">
<path d="M183.207 122.991C181.916 119.822 180.839 120.526 179.332 119.47C178.135 118.631 175.287 120.727 173.98 121.906C173.149 122.934 173.303 127.92 173.303 128.976C173.303 130.033 174.811 132.498 175.672 132.85C176.533 133.202 180.839 131.793 181.7 130.737C182.562 129.681 184.499 126.16 183.207 122.991Z" fill="#EDF1FA"/>
</mask>
<g mask="url(#mask2_17_3805)">
<path d="M183.654 127.547C185.032 125.294 184.228 120.27 183.654 118.04C182.792 116.28 179.994 119.097 179.563 120.505C179.133 121.914 176.966 130.859 182.093 130.859C184.91 130.859 181.931 130.364 183.654 127.547Z" fill="#51673E"/>
</g>
<path d="M183.422 124.047C183.493 125.573 183.336 128.906 182.13 130.033C183.205 129.328 183.423 127.216 183.638 126.512C183.853 125.808 183.853 124.399 184.069 124.399C184.241 124.399 185.863 123.225 186.653 122.639C186.581 122.639 186.136 122.779 184.93 123.343C183.724 123.906 182.875 122.057 182.444 121C183.592 121.939 184.104 120.903 184.368 119.988C184.462 119.826 184.499 119.639 184.499 119.469C184.463 119.626 184.421 119.804 184.368 119.988C184.074 120.494 183.229 120.751 181.269 119.469C178.685 117.779 175.455 120.174 174.162 121.582C175.549 120.339 178.181 119.511 180.331 120.296C181.632 120.771 182.642 121.499 183.422 124.047Z" fill="#000525"/>
<ellipse cx="0.645991" cy="2.8169" rx="0.645991" ry="2.8169" transform="matrix(-1 0 0 1 181.624 122.409)" fill="#000525"/>
<ellipse cx="0.645991" cy="0.704225" rx="0.645991" ry="0.704225" transform="matrix(-1 0 0 1 180.92 122.409)" fill="white"/>
<path d="M155.685 109.38C168.08 99.803 166.249 89.4274 163.784 85.4368C163.784 70.9508 143.007 78.3946 129.627 88.6058C116.246 98.8171 126.81 111.845 129.627 127.338C132.443 142.831 145.122 147.057 138.432 138.606C131.742 130.155 140.192 121.352 155.685 109.38Z" fill="#DE6351"/>
<path d="M144.111 120.155C155.13 106.451 161.881 110.567 163.879 114.338C155.907 112.074 157.246 113.217 153.315 114.029C151.364 114.432 146.351 118.179 144.111 120.155Z" fill="#401109"/>
<path d="M175.604 115.745C178.575 114.664 183.781 113.593 185.618 115.744C184.977 114.122 183.148 113.324 180.682 112.903C178.216 112.482 176.45 113.316 175.604 115.745Z" fill="#401109"/>
<path d="M103.571 243.183C103.852 232.761 114.486 199.986 125.05 193.883C144.064 185.784 179.979 181.921 194.064 182.977C205.331 183.822 210.496 229.568 207.092 243.183H103.571Z" fill="#F1CF73"/>
<path d="M140.542 177.338C139.486 180.155 134.557 188.817 134.557 198.113C146.88 218.183 172.233 198.113 174.345 191.071C176.035 185.437 168.711 177.69 164.838 174.521C164.251 175.695 162.184 184.733 151.458 184.733C142.303 184.733 144.768 180.155 140.542 177.338Z" fill="#F9EFE4"/>
<path d="M172.937 155.86C177.707 156.158 178.422 154.093 180.331 153.023C178.219 155.136 177.427 158.847 174.697 159.009C170.231 159.275 167.303 157.601 162.021 153.023C164.134 153.376 170.375 155.699 172.937 155.86Z" fill="#E25E78"/>
<g filter="url(#filter0_f_17_3805)">
<path d="M181.035 133.677C177.092 135.367 174.97 132.112 173.913 130.234C171.449 134.811 169.339 138.685 167.93 140.797C166.522 142.91 169.691 142.91 170.747 142.91C171.803 142.91 173.212 143.614 174.62 145.023C175.747 146.149 177.254 145.675 177.866 145.296C180.965 142.198 181.27 136.259 181.035 133.677Z" fill="#F5A69C"/>
</g>
<path d="M173.916 130.234C174.972 132.112 177.092 135.367 181.035 133.677C181.27 136.259 180.965 142.198 177.866 145.296" stroke="#65332D" stroke-width="0.704225" stroke-linecap="round"/>
<path d="M170.472 142.831C172.162 142.268 173.993 142.831 174.345 143.183C174.345 143.535 173.787 143.68 173.289 143.183C172.937 142.831 171.059 142.714 170.472 142.831Z" fill="#3A2323"/>
<circle cx="177.514" cy="137.198" r="0.704225" fill="white"/>
<circle cx="137.324" cy="155.156" r="4.92958" fill="white"/>
<path d="M30.6597 260.113H29.353V272.464H30.6597V260.113ZM20.8803 265.353C20.8803 268.015 22.2076 269.693 24.0713 269.686C25.9006 269.693 27.2486 268.015 27.2486 265.353C27.2486 262.719 25.9006 261.041 24.0713 261.034C22.2076 261.041 20.8803 262.719 20.8803 265.353ZM22.1457 265.353C22.1388 263.421 22.9228 262.21 24.0713 262.203C25.1992 262.21 25.9832 263.421 25.9832 265.353C25.9832 267.313 25.1992 268.517 24.0713 268.517C22.9228 268.517 22.1388 267.313 22.1457 265.353ZM43.8914 266.426H32.6128V267.471H43.8914V266.426ZM34.0295 261.419H41.168V262.465H34.057V265.491H42.7223V264.487H35.3499V263.428H42.4747V260.388H34.0295V261.419ZM34.112 272.285H42.4884V268.475H34.112V272.285ZM35.4049 271.226V269.521H41.1955V271.226H35.4049Z" fill="#ECECF8" fill-opacity="0.7"/>
<path d="M33.3528 279.6H31.3556V287.275H33.3528V279.6ZM20.5117 283.61C20.5034 285.558 21.9476 286.928 23.9613 286.928C25.6861 286.928 27.0065 285.921 27.3531 284.403H28.3682V287.209H30.3158V279.847H28.3682V282.703H27.3366C26.957 281.192 25.6531 280.26 23.9613 280.276C21.9476 280.26 20.5034 281.58 20.5117 283.61ZM22.3933 283.61C22.385 282.529 23.037 281.886 23.9613 281.877C24.8773 281.886 25.5458 282.529 25.5623 283.61C25.5458 284.642 24.8773 285.253 23.9613 285.261C23.037 285.253 22.385 284.642 22.3933 283.61ZM23.07 289.437H31.2401V290.312H23.0865V294.438H33.8644V292.787H25.2157V291.847H33.3528V287.819H23.07V289.437ZM47.6463 279.583H45.5502V294.636H47.6463V279.583ZM35.8451 282.538H40.8462V284.964H35.8616V291.12H37.215C39.9549 291.12 42.1914 291.03 44.6589 290.592L44.4773 288.892C42.2739 289.255 40.3345 289.371 38.0403 289.387V286.631H42.9919V280.838H35.8451V282.538Z" fill="#ECECF8"/>
<path d="M32.8741 314.823H22.8554V316.061H31.3061V320.121H32.8741V314.823ZM20.7592 309.723C20.751 311.827 22.4098 313.313 24.638 313.305C25.8924 313.313 26.9652 312.826 27.6585 312.017H31.3061V314.047H32.8741V305.332H31.3061V307.445H27.6585C26.9735 306.636 25.8924 306.149 24.638 306.158C22.4098 306.149 20.751 307.635 20.7592 309.723ZM22.2612 309.723C22.253 308.402 23.2515 307.486 24.638 307.478C25.9667 307.486 26.9817 308.402 26.9817 309.723C26.9817 311.076 25.9667 311.976 24.638 311.984C23.2515 311.976 22.253 311.076 22.2612 309.723ZM28.3434 310.73C28.4342 310.416 28.4837 310.078 28.4837 309.723C28.4837 309.376 28.4342 309.046 28.3517 308.733H31.3061V310.73H28.3434ZM46.7716 305.283H45.2036V313.42H46.7716V310.036H48.9338V308.749H46.7716V305.283ZM35.1684 307.825H43.9822V306.587H40.3675V305.2H38.7995V306.587H35.1684V307.825ZM35.9771 310.812C35.9689 312.314 37.4048 313.23 39.5753 313.222C41.7457 313.23 43.1569 312.314 43.1569 310.812C43.1569 309.319 41.7457 308.386 39.5753 308.386C37.4048 308.386 35.9689 309.319 35.9771 310.812ZM37.215 315.285H45.2201V316.441H37.248V319.973H47.2832V318.784H38.783V317.546H46.7716V314.113H37.215V315.285ZM37.4956 310.812C37.4791 310.012 38.2961 309.517 39.5753 309.508C40.8462 309.517 41.6714 310.012 41.6879 310.812C41.6714 311.613 40.8462 312.083 39.5753 312.083C38.2961 312.083 37.4791 311.613 37.4956 310.812ZM66.3798 312.034H62.6001V307.94H66.2313V306.669H61.0321V313.288H66.3798V312.034ZM53.8853 318.273H67.4197V317.002H61.3622V313.998H59.8272V317.002H53.8853V318.273ZM55.0077 313.288H55.8825C57.4505 313.296 58.7874 313.255 60.3719 312.908L60.2399 311.604C58.9607 311.893 57.8054 311.984 56.5757 312.001V307.957H60.1078V306.686H55.0077V313.288ZM80.4588 309.657H71.8266V305.861H70.2751V310.911H80.4588V309.657ZM68.476 314.031H82.0103V312.776H68.476V314.031ZM70.1596 319.775H80.5579V318.487H71.7276V315.434H70.1596V319.775ZM92.7058 307.99V307.577H95.9573V306.306H87.8037V307.577H91.1213V307.99C91.113 309.995 89.6936 311.926 87.3911 312.727L88.1998 313.932C89.9576 313.313 91.2698 312.042 91.9383 310.441C92.6067 311.926 93.8942 313.09 95.5942 313.651L96.403 312.43C94.117 311.712 92.7058 309.888 92.7058 307.99ZM89.4707 316.275H97.9214V320.121H99.4894V315.005H89.4707V316.275ZM97.9214 314.262H99.4894V305.332H97.9214V314.262ZM106.306 308.584V308.452H108.848V307.198H106.306V305.498H104.821V307.198H102.246V308.452H104.821V308.584C104.812 310.375 103.789 312.067 101.916 312.826L102.658 313.981C104.094 313.395 105.085 312.289 105.605 310.944C106.133 312.182 107.107 313.197 108.501 313.734L109.244 312.545C107.362 311.877 106.306 310.251 106.306 308.584ZM104.392 316.408H112.892V320.121H114.443V315.137H104.392V316.408ZM109.772 314.328H111.274V310.499H112.958V314.394H114.443V305.349H112.958V309.211H111.274V305.597H109.772V314.328Z" fill="#ECECF8" fill-opacity="0.7"/>
<rect x="20.3521" y="328.704" width="128.197" height="24.9296" rx="12.4648" fill="#170330"/>
<path d="M31.9333 335.219H29.4575V347.169H31.9333V335.219ZM36.3402 341.986C36.3402 340.806 37.0417 340.121 38.0568 340.121C39.0718 340.121 39.666 340.781 39.6743 341.887V347.169H42.1006V341.458C42.1088 339.37 40.8874 338.091 39.0141 338.091C37.6854 338.091 36.7281 338.743 36.3237 339.775H36.2247V338.207H33.8974V347.169H36.3402V341.986ZM48.7687 338.207H46.9861V337.662C46.9861 336.911 47.407 336.614 48.191 336.606C48.323 336.614 48.5789 336.622 48.9337 336.655V334.806C48.5046 334.707 48.0342 334.658 47.4813 334.658C45.6822 334.658 44.5433 335.64 44.5433 337.53V338.207H43.2724V340.039H44.5433V347.169H46.9861V340.039H48.7687V338.207ZM50.2046 347.169H52.6474V342.069C52.6392 340.971 53.4562 340.204 54.562 340.204C54.9004 340.204 55.3708 340.261 55.6019 340.336V338.157C55.3873 338.108 55.0737 338.075 54.8261 338.075C53.8193 338.075 52.9858 338.66 52.6639 339.758H52.5649V338.207H50.2046V347.169ZM56.1135 344.66C56.1218 346.434 57.3844 347.342 59.101 347.334C60.4297 347.342 61.2879 346.756 61.7253 345.931H61.7914V347.169H64.1021V341.128C64.1103 338.966 62.2618 338.091 60.3059 338.091C57.9291 338.091 56.5757 339.312 56.4271 340.864H58.7544C58.8864 340.253 59.4063 339.882 60.2399 339.874C61.1559 339.882 61.6676 340.311 61.6758 341.062V341.788C61.2962 341.805 60.0913 341.862 59.4476 341.904C57.7228 342.011 56.1218 342.663 56.1135 344.66ZM58.4573 344.594C58.4573 343.901 58.9937 343.497 59.8437 343.422C60.2564 343.389 61.3044 343.331 61.6758 343.315V343.967C61.6841 344.916 60.9083 345.642 59.7942 345.65C59.0102 345.642 58.4573 345.279 58.4573 344.594ZM69.912 347.169H77.95V345.122H72.3877V342.217H77.5209V340.171H72.3877V337.266H77.9335V335.219H69.912V347.169ZM82.2579 341.986C82.2579 340.806 82.9594 340.121 83.9745 340.121C84.9895 340.121 85.5837 340.781 85.592 341.887V347.169H88.0182V341.458C88.0265 339.37 86.8051 338.091 84.9318 338.091C83.6031 338.091 82.6458 338.743 82.2414 339.775H82.1424V338.207H79.8151V347.169H82.2579V341.986ZM93.9436 350.718C96.4937 350.718 98.2928 349.554 98.301 347.268V338.207H95.8748V339.709H95.7757C95.4456 338.982 94.7194 338.091 93.2174 338.091C91.2368 338.091 89.5697 339.601 89.5697 342.63C89.5697 345.617 91.1955 347.045 93.2174 347.037C94.6616 347.045 95.4539 346.311 95.7757 345.584H95.8913V347.218C95.883 348.465 95.1238 348.952 93.9932 348.952C93.0193 348.952 92.3426 348.63 92.2106 347.912H89.8008C89.9411 349.603 91.4679 350.718 93.9436 350.718ZM92.0785 342.663C92.0703 341.12 92.7305 340.039 93.9767 340.039C95.2063 340.039 95.8913 341.07 95.8913 342.663C95.8913 344.256 95.198 345.197 93.9767 345.205C92.7388 345.197 92.0703 344.214 92.0785 342.663ZM100.199 347.169H102.642V338.207H100.199V347.169ZM100.084 335.797C100.084 336.474 100.686 337.035 101.421 337.035C102.147 337.035 102.749 336.474 102.741 335.797C102.749 335.104 102.147 334.551 101.421 334.542C100.686 334.551 100.084 335.104 100.084 335.797ZM106.983 341.986C106.983 340.806 107.684 340.121 108.699 340.121C109.714 340.121 110.309 340.781 110.317 341.887V347.169H112.743V341.458C112.751 339.37 111.53 338.091 109.657 338.091C108.328 338.091 107.371 338.743 106.966 339.775H106.867V338.207H104.54V347.169H106.983V341.986ZM118.702 347.351C120.913 347.342 122.399 346.269 122.745 344.611H120.418C120.179 345.147 119.585 345.51 118.751 345.518C117.488 345.51 116.688 344.677 116.688 343.323H122.811V342.63C122.811 339.577 120.955 338.091 118.603 338.091C115.978 338.091 114.27 339.964 114.278 342.729C114.27 345.568 115.953 347.342 118.702 347.351ZM116.688 341.788C116.737 340.757 117.53 339.915 118.652 339.923C119.741 339.915 120.492 340.699 120.501 341.788H116.688ZM128.407 347.351C130.618 347.342 132.104 346.269 132.45 344.611H130.123C129.884 345.147 129.29 345.51 128.456 345.518C127.194 345.51 126.393 344.677 126.393 343.323H132.516V342.63C132.516 339.577 130.66 338.091 128.308 338.091C125.683 338.091 123.975 339.964 123.983 342.729C123.975 345.568 125.659 347.342 128.407 347.351ZM126.393 341.788C126.443 340.757 127.235 339.915 128.357 339.923C129.447 339.915 130.197 340.699 130.206 341.788H126.393ZM134.051 347.169H136.494V342.069C136.486 340.971 137.303 340.204 138.409 340.204C138.747 340.204 139.218 340.261 139.449 340.336V338.157C139.234 338.108 138.921 338.075 138.673 338.075C137.666 338.075 136.833 338.66 136.511 339.758H136.412V338.207H134.051V347.169Z" fill="#944AF2"/>
<rect x="20.3521" y="328.704" width="128.197" height="24.9296" rx="12.4648" stroke="#944AF2" stroke-width="0.704225"/>
<rect x="20.3521" y="359.972" width="151.197" height="24.9296" rx="12.4648" fill="#170330"/>
<path d="M35.9441 369.903H38.3208C38.2878 367.791 36.5465 366.322 33.8974 366.322C31.2813 366.322 29.3667 367.766 29.375 369.936C29.375 371.686 30.6129 372.693 32.6265 373.188L33.9304 373.501C35.2344 373.823 35.9771 374.203 35.9771 375.02C35.9771 375.911 35.1353 376.522 33.8314 376.522C32.511 376.522 31.5537 375.911 31.4712 374.706H29.0614C29.1357 377.273 30.976 378.61 33.8644 378.602C36.7776 378.61 38.4776 377.207 38.4859 375.02C38.4776 373.031 36.9509 371.991 34.9042 371.521L33.8314 371.257C32.7998 371.026 31.9085 370.638 31.9168 369.771C31.925 368.979 32.6265 368.401 33.8809 368.401C35.0941 368.401 35.8451 368.954 35.9441 369.903ZM41.4899 381.804C43.3797 381.795 44.3618 380.871 44.8734 379.427L48.3726 369.474H45.7812L43.8831 376.076H43.7841L41.9025 369.474H39.3442L42.5627 378.684L42.4142 379.064C42.1171 379.839 41.7292 379.889 41.2423 379.889C40.9369 379.889 40.5656 379.881 40.252 379.856V381.754C40.5656 381.787 41.0112 381.795 41.4899 381.804ZM54.6776 372.132H56.9718C56.8398 370.431 55.4368 369.359 53.1756 369.359C50.8649 369.359 49.3876 370.431 49.3959 372.148C49.3876 373.477 50.2624 374.351 51.9707 374.69L53.4562 374.987C54.298 375.16 54.6776 375.449 54.6776 375.911C54.6776 376.489 54.0834 376.844 53.1921 376.852C52.2926 376.844 51.7231 376.481 51.6076 375.779H49.1483C49.3546 377.529 50.7741 378.61 53.1921 378.618C55.5771 378.61 57.1616 377.43 57.1699 375.664C57.1616 374.376 56.3199 373.6 54.5785 373.237L52.9775 372.907C52.1275 372.734 51.8139 372.42 51.8222 372.016C51.8139 371.471 52.4164 371.1 53.2086 371.092C54.0256 371.1 54.5703 371.504 54.6776 372.132ZM63.3924 369.474H61.7088V367.328H59.266V369.474H58.0282V371.306H59.266V376.027C59.2495 377.768 60.4544 378.56 62.2205 378.552C62.8229 378.56 63.2603 378.511 63.5244 378.47V376.538C63.2273 376.563 62.7982 376.588 62.5506 376.588C62.0554 376.571 61.7006 376.398 61.7088 375.68V371.306H63.3924V369.474ZM68.8886 378.618C71.1003 378.61 72.5858 377.537 72.9324 375.878H70.6052C70.3658 376.415 69.7717 376.778 68.9381 376.786C67.6755 376.778 66.875 375.944 66.875 374.591H72.9984V373.898C72.9984 370.844 71.1416 369.359 68.7896 369.359C66.1653 369.359 64.457 371.232 64.4652 373.997C64.457 376.836 66.1405 378.61 68.8886 378.618ZM66.875 373.056C66.9245 372.024 67.7168 371.182 68.8391 371.191C69.9285 371.182 70.6795 371.966 70.6877 373.056H66.875ZM74.5334 378.437H76.9762V373.056C76.968 372.041 77.6117 371.372 78.4452 371.372C79.2787 371.372 79.8399 371.942 79.8316 372.825V378.437H82.2084V372.957C82.2001 372.008 82.7448 371.372 83.6609 371.372C84.4614 371.372 85.0721 371.867 85.0638 372.891V378.437H87.5066V372.412C87.5066 370.456 86.343 369.359 84.6842 369.359C83.372 369.359 82.3487 370.027 81.9773 371.042H81.8948C81.5977 370.011 80.6817 369.359 79.452 369.359C78.2471 369.359 77.3393 369.994 76.9597 371.042H76.8607V369.474H74.5334V378.437ZM93.3329 378.437H101.371V376.39H95.8087V373.485H100.942V371.438H95.8087V368.533H101.355V366.487H93.3329V378.437ZM105.679 373.254C105.679 372.074 106.38 371.389 107.395 371.389C108.411 371.389 109.005 372.049 109.013 373.155V378.437H111.439V372.726C111.448 370.638 110.226 369.359 108.353 369.359C107.024 369.359 106.067 370.011 105.662 371.042H105.563V369.474H103.236V378.437H105.679V373.254ZM117.365 381.985C119.915 381.985 121.714 380.822 121.722 378.536V369.474H119.296V370.976H119.197C118.867 370.25 118.14 369.359 116.638 369.359C114.658 369.359 112.991 370.869 112.991 373.898C112.991 376.885 114.617 378.313 116.638 378.304C118.083 378.313 118.875 377.578 119.197 376.852H119.312V378.486C119.304 379.732 118.545 380.219 117.414 380.219C116.44 380.219 115.764 379.897 115.632 379.179H113.222C113.362 380.871 114.889 381.985 117.365 381.985ZM115.5 373.931C115.491 372.387 116.152 371.306 117.398 371.306C118.627 371.306 119.312 372.338 119.312 373.931C119.312 375.523 118.619 376.464 117.398 376.472C116.16 376.464 115.491 375.482 115.5 373.931ZM123.62 378.437H126.063V369.474H123.62V378.437ZM123.505 367.064C123.505 367.741 124.107 368.302 124.842 368.302C125.568 368.302 126.17 367.741 126.162 367.064C126.17 366.371 125.568 365.818 124.842 365.81C124.107 365.818 123.505 366.371 123.505 367.064ZM130.404 373.254C130.404 372.074 131.105 371.389 132.12 371.389C133.135 371.389 133.73 372.049 133.738 373.155V378.437H136.164V372.726C136.172 370.638 134.951 369.359 133.078 369.359C131.749 369.359 130.792 370.011 130.387 371.042H130.288V369.474H127.961V378.437H130.404V373.254ZM142.123 378.618C144.334 378.61 145.82 377.537 146.166 375.878H143.839C143.6 376.415 143.006 376.778 142.172 376.786C140.909 376.778 140.109 375.944 140.109 374.591H146.232V373.898C146.232 370.844 144.376 369.359 142.024 369.359C139.399 369.359 137.691 371.232 137.699 373.997C137.691 376.836 139.374 378.61 142.123 378.618ZM140.109 373.056C140.158 372.024 140.951 371.182 142.073 371.191C143.162 371.182 143.913 371.966 143.922 373.056H140.109ZM151.828 378.618C154.039 378.61 155.525 377.537 155.871 375.878H153.544C153.305 376.415 152.711 376.778 151.877 376.786C150.615 376.778 149.814 375.944 149.814 374.591H155.937V373.898C155.937 370.844 154.081 369.359 151.729 369.359C149.104 369.359 147.396 371.232 147.404 373.997C147.396 376.836 149.08 378.61 151.828 378.618ZM149.814 373.056C149.864 372.024 150.656 371.182 151.778 371.191C152.868 371.182 153.618 371.966 153.627 373.056H149.814ZM157.472 378.437H159.915V373.336C159.907 372.239 160.724 371.471 161.83 371.471C162.168 371.471 162.639 371.529 162.87 371.603V369.425C162.655 369.375 162.342 369.342 162.094 369.342C161.087 369.342 160.254 369.928 159.932 371.026H159.833V369.474H157.472V378.437Z" fill="#944AF2"/>
<rect x="20.3521" y="359.972" width="151.197" height="24.9296" rx="12.4648" stroke="#944AF2" stroke-width="0.704225"/>
<path d="M28.2746 415.818H21.4305V419.339H24.1483V420.296H20.2971V421.429H29.43V420.296H25.5568V419.339H28.2746V415.818ZM21.3094 423.267H26.9212V425.435H28.3187V422.167H21.3094V423.267ZM22.8059 418.238V416.907H26.8992V418.238H22.8059ZM39.2011 423.201H36.8794V421.297H38.3869V420.164H37.0224V417.347H38.4309V416.225H30.7504V417.347H32.1369V420.164H30.7945V421.297H32.3129V423.201H30.0352V424.323H39.2011V423.201ZM33.5453 420.164V417.347H35.636V420.164H33.5453ZM33.7214 423.201V421.297H35.471V423.201H33.7214Z" fill="#ECECF8" fill-opacity="0.5"/>
<path d="M20.839 433.281V443.239H22.8472V436.692H22.9297L25.5293 443.198H26.9047L29.5043 436.72H29.5868V443.239H31.595V433.281H29.0366L26.272 440.034H26.162L23.3973 433.281H20.839ZM33.273 443.239H39.6275V441.534H35.3362V433.281H33.273V443.239ZM49.682 438.26C49.682 435.007 47.667 433.144 45.033 433.144C42.3784 433.144 40.3703 435.007 40.3703 438.26C40.3703 441.499 42.3784 443.377 45.033 443.377C47.667 443.377 49.682 441.513 49.682 438.26ZM42.4747 438.26C42.4747 436.128 43.4856 434.98 45.033 434.973C46.5666 434.98 47.5845 436.128 47.5776 438.26C47.5845 440.385 46.5666 441.541 45.033 441.547C43.4856 441.541 42.4747 440.385 42.4747 438.26ZM51.1262 446.045H53.1619V442.043H53.2169C53.5057 442.662 54.1315 443.363 55.3488 443.363C57.0544 443.363 58.3817 442.008 58.3748 439.512C58.3817 436.953 56.9993 435.674 55.3488 435.674C54.0903 435.674 53.4988 436.417 53.2169 437.022H53.1344V435.771H51.1262V446.045ZM53.1206 439.498C53.1137 438.157 53.6845 437.297 54.7024 437.297C55.7546 437.297 56.3047 438.198 56.2979 439.498C56.3047 440.818 55.7408 441.733 54.7024 441.74C53.6914 441.733 53.1137 440.846 53.1206 439.498ZM63.9591 437.985H65.8709C65.7609 436.568 64.5918 435.674 62.7074 435.674C60.7818 435.674 59.5508 436.568 59.5577 437.999C59.5508 439.106 60.2798 439.835 61.7033 440.117L62.9412 440.365C63.6427 440.509 63.9591 440.75 63.9591 441.135C63.9591 441.616 63.4639 441.912 62.7212 441.919C61.9716 441.912 61.497 441.609 61.4007 441.025H59.3513C59.5233 442.483 60.7061 443.384 62.7212 443.391C64.7087 443.384 66.0291 442.4 66.036 440.929C66.0291 439.856 65.3276 439.209 63.8765 438.907L62.5424 438.632C61.834 438.487 61.5727 438.226 61.5796 437.889C61.5727 437.435 62.0747 437.125 62.7349 437.119C63.4158 437.125 63.8697 437.462 63.9591 437.985ZM78.3049 437.6H66.8475V438.907H78.3049V437.6ZM68.1542 440.736H75.1964V441.369H68.1679V444.395H77.3008V443.198H69.9147V442.483H76.9295V439.526H68.1542V440.736ZM68.2504 433.405H75.1551V434.038H68.2779V437.009H77.1358V435.826H70.0248V435.152H76.9157V432.208H68.2504V433.405ZM93.7236 438.081H82.2662V439.484H87.204V441.658H88.9783V439.484H93.7236V438.081ZM83.4491 434.822C83.4491 436.417 85.2646 437.407 87.988 437.407C90.6976 437.407 92.5063 436.417 92.5132 434.822C92.5063 433.233 90.6976 432.236 87.988 432.222C85.2646 432.236 83.4491 433.233 83.4491 434.822ZM83.6279 444.285H92.4582V442.868H85.4022V440.543H83.6279V444.285ZM85.3472 434.822C85.3403 434.024 86.3719 433.611 87.988 433.611C89.6041 433.611 90.6289 434.024 90.6289 434.822C90.6289 435.585 89.6041 435.998 87.988 436.004C86.3719 435.998 85.3403 435.585 85.3472 434.822ZM97.9462 432.662C96.0481 432.655 94.6039 433.941 94.6176 435.729C94.6039 437.497 96.0481 438.79 97.9462 438.783C98.9365 438.79 99.803 438.425 100.401 437.82H103.255V439.319H105.002V431.988H103.255V433.639H100.415C99.8168 433.027 98.9434 432.655 97.9462 432.662ZM96.2819 435.729C96.275 434.732 96.9696 434.154 97.9462 434.161C98.8884 434.154 99.5761 434.732 99.583 435.729C99.5761 436.692 98.8884 437.304 97.9462 437.297C96.9696 437.304 96.275 436.692 96.2819 435.729ZM96.4195 442.043C96.4195 443.597 98.0769 444.512 100.725 444.505C103.372 444.512 105.037 443.597 105.043 442.043C105.037 440.488 103.372 439.574 100.725 439.581C98.0769 439.574 96.4195 440.488 96.4195 442.043ZM98.1388 442.043C98.1388 441.293 99.0672 440.922 100.725 440.915C102.416 440.922 103.317 441.293 103.324 442.043C103.317 442.772 102.416 443.143 100.725 443.143C99.0672 443.143 98.1388 442.772 98.1388 442.043ZM101.165 435.028H103.255V436.417H101.172C101.22 436.197 101.247 435.97 101.247 435.729C101.247 435.489 101.22 435.248 101.165 435.028ZM116.501 431.988H114.768V444.505H116.501V438.329H118.344V436.885H116.501V431.988ZM106.556 435.262H113.915V433.859H111.15V432.181H109.39V433.859H106.556V435.262ZM107.065 438.948C107.058 440.695 108.42 441.926 110.27 441.933C112.093 441.926 113.461 440.695 113.461 438.948C113.461 437.201 112.093 435.956 110.27 435.963C108.42 435.956 107.058 437.201 107.065 438.948ZM108.743 438.948C108.743 437.985 109.383 437.394 110.27 437.38C111.144 437.394 111.783 437.985 111.783 438.948C111.783 439.918 111.144 440.495 110.27 440.488C109.383 440.495 108.743 439.918 108.743 438.948ZM125.262 433.006H119.321V439.099H125.262V438.04H127.601V441.107H129.347V432.002H127.601V433.955H125.262V433.006ZM121.012 444.285H129.609V442.882H122.787V440.241H121.012V444.285ZM121.067 437.737V434.395H123.543V437.737H121.067ZM125.262 436.651V435.372H127.601V436.651H125.262ZM135.702 434.822V432.951H133.928V434.822C133.914 437.174 132.937 439.587 130.792 440.557L131.892 441.988C133.323 441.286 134.285 439.938 134.822 438.295C135.344 439.842 136.28 441.094 137.669 441.768L138.742 440.365C136.658 439.464 135.709 437.174 135.702 434.822ZM137.339 437.339H139.801V444.532H141.534V431.988H139.801V435.922H137.339V437.339ZM156.87 432.002H155.109V440.997H156.87V432.002ZM146.582 435.949C146.582 437.813 148.081 439.127 150.007 439.127C151.925 439.127 153.425 437.813 153.431 435.949C153.425 434.113 151.925 432.793 150.007 432.8C148.081 432.793 146.582 434.113 146.582 435.949ZM148.301 435.949C148.287 434.932 149.023 434.32 150.007 434.326C150.956 434.32 151.692 434.932 151.698 435.949C151.692 436.995 150.956 437.6 150.007 437.6C149.023 437.6 148.287 436.995 148.301 435.949ZM148.48 444.285H157.2V442.882H150.254V440.089H148.48V444.285ZM170.019 441.589H158.562V443.047H170.019V441.589ZM159.456 434.491H161.189V438.288H159.511V439.663H169.001V438.288H167.296V434.491H169.056V433.089H159.456V434.491ZM162.949 438.288V434.491H165.563V438.288H162.949ZM180.61 431.988H178.877V444.532H180.61V438.164H182.453V436.72H180.61V431.988ZM171.243 434.45H175.287V436.5H171.257V441.616H172.316C174.517 441.616 176.236 441.541 178.148 441.19L177.997 439.787C176.333 440.069 174.826 440.151 173.004 440.158V437.889H177.034V433.033H171.243V434.45ZM190.128 432.69H183.334V434.079H185.851C185.837 435.633 184.902 437.29 182.838 437.944L183.732 439.333C185.211 438.858 186.208 437.854 186.765 436.61C187.309 437.731 188.264 438.638 189.647 439.072L190.513 437.724C188.54 437.07 187.646 435.551 187.639 434.079H190.128V432.69ZM184.86 441.396H191.71V444.505H193.457V439.993H184.86V441.396ZM189.771 436.431H191.71V439.443H193.457V431.988H191.71V435H189.771V436.431ZM205.561 432.002H203.8V440.997H205.561V432.002ZM195.272 435.949C195.272 437.813 196.772 439.127 198.697 439.127C200.616 439.127 202.115 437.813 202.122 435.949C202.115 434.113 200.616 432.793 198.697 432.8C196.772 432.793 195.272 434.113 195.272 435.949ZM196.992 435.949C196.978 434.932 197.714 434.32 198.697 434.326C199.646 434.32 200.382 434.932 200.389 435.949C200.382 436.995 199.646 437.6 198.697 437.6C197.714 437.6 196.978 436.995 196.992 435.949ZM197.17 444.285H205.891V442.882H198.945V440.089H197.17V444.285ZM220.979 431.988H219.205V444.532H220.979V431.988ZM210.87 437.325C210.863 440.076 212.259 441.795 214.185 441.795C216.069 441.795 217.472 440.076 217.472 437.325C217.472 434.595 216.069 432.868 214.185 432.868C212.259 432.868 210.863 434.595 210.87 437.325ZM212.562 437.325C212.555 435.468 213.208 434.45 214.185 434.45C215.134 434.45 215.773 435.468 215.78 437.325C215.773 439.189 215.134 440.206 214.185 440.2C213.208 440.206 212.555 439.189 212.562 437.325ZM234.115 438.893H222.657V440.31H225.312V444.532H227.073V440.31H229.768V444.532H231.529V440.31H234.115V438.893ZM223.111 436.486L223.799 437.916C225.972 437.586 227.575 436.548 228.393 435.186C229.218 436.555 230.821 437.586 233.001 437.916L233.675 436.486C230.848 436.114 229.308 434.45 229.314 432.965V432.36H227.471V432.965C227.465 434.457 225.931 436.108 223.111 436.486ZM244.719 431.988H242.959V444.477H244.719V438.233H246.494V436.788H244.719V431.988ZM234.706 440.97L235.697 442.318C239.905 440.248 241.363 437.009 241.377 433.267H235.421V434.698H239.596C239.266 437.49 237.67 439.484 234.706 440.97ZM24.9241 457.021V456.594H23.2185V457.021C23.2117 458.238 22.5102 459.483 20.8665 460.047L21.7331 461.326C22.8747 460.92 23.6449 460.164 24.0919 459.235C24.4977 460.198 25.2335 461.01 26.4096 461.436C27.5305 460.996 28.2595 460.157 28.6722 459.187C29.1054 460.157 29.8894 460.92 31.086 461.326L31.9388 460.047C30.2677 459.531 29.5731 458.327 29.5868 457.021V456.594H27.8538V457.021C27.8538 457.949 27.3999 459.022 26.3614 459.758C25.3505 459.07 24.9241 458.025 24.9241 457.021ZM20.5639 452.647C20.5639 454.387 22.0357 455.638 23.9888 455.632C25.935 455.638 27.4067 454.387 27.4136 452.647C27.4067 450.873 25.935 449.635 23.9888 449.635C22.0357 449.635 20.5639 450.873 20.5639 452.647ZM22.2832 452.647C22.2695 451.677 22.9847 451.106 23.9888 451.106C24.9653 451.106 25.6737 451.677 25.6806 452.647C25.6737 453.589 24.9653 454.18 23.9888 454.174C22.9847 454.18 22.2695 453.589 22.2832 452.647ZM29.0917 456.072H30.8522V449.002H29.0917V456.072ZM38.2521 449.167C35.3637 449.167 33.6856 449.923 33.6856 451.299C33.6856 452.695 35.3637 453.445 38.2521 453.445C41.1336 453.445 42.7979 452.695 42.8048 451.299C42.7979 449.923 41.1336 449.167 38.2521 449.167ZM32.544 455.425H43.9602V454.036H32.544V455.425ZM33.8644 457.433H40.8379V458.121H33.8782V461.422H42.9011V460.102H35.5975V459.345H42.571V456.154H33.8644V457.433ZM35.5287 451.299C35.5218 450.742 36.4159 450.446 38.2521 450.446C40.1021 450.446 40.9892 450.742 40.9892 451.299C40.9892 451.911 40.1021 452.152 38.2521 452.152C36.4159 452.152 35.5218 451.911 35.5287 451.299ZM53.1068 449.194H51.4976V460.941H53.1068V455.274H54.0559V461.505H55.7064V448.988H54.0559V453.843H53.1068V449.194ZM44.923 458.465H45.4869C46.1471 458.472 46.8211 458.451 47.7289 458.259L47.6051 456.801C47.2131 456.897 46.8623 456.952 46.5322 456.986V451.89H47.6051V450.487H44.923V458.465ZM48.0865 458.465H48.6504C49.4207 458.472 50.1565 458.458 51.0987 458.259L50.9887 456.801C50.4935 456.918 50.0602 456.979 49.6545 457V451.89H50.8374V450.487H48.0865V458.465ZM66.1735 450.9H64.0278V449.332H62.2948V450.9H60.1216V452.289H66.1735V450.9ZM60.4104 455.824C60.4104 457.571 61.5796 458.809 63.1751 458.809C64.7775 458.809 65.9191 457.571 65.9259 455.824C65.9191 454.084 64.7775 452.86 63.1751 452.853C61.5796 452.86 60.4104 454.084 60.4104 455.824ZM61.9509 455.824C61.9509 454.882 62.4461 454.311 63.1751 454.311C63.8765 454.311 64.3786 454.882 64.3855 455.824C64.3786 456.78 63.8765 457.323 63.1751 457.323C62.4461 457.323 61.9509 456.78 61.9509 455.824ZM66.6412 460.968H68.278V455.48H69.2958V461.505H70.9601V448.988H69.2958V454.077H68.278V449.236H66.6412V460.968ZM82.8576 448.988H81.1108V450.556H78.7451C78.8001 450.212 78.8276 449.848 78.8276 449.47H73.1608V450.886H76.8813C76.6475 452.392 75.3271 453.582 72.4593 454.146L73.0507 455.577C75.8222 454.971 77.6103 453.768 78.3874 451.89H81.1108V452.991H78.2499V454.325H81.1108V455.288H82.8576V448.988ZM74.5362 457.117H81.0971V457.874H74.55V461.381H83.1327V459.992H76.3105V459.166H82.8576V455.742H74.5362V457.117ZM94.4113 448.988H92.6508V456.319H94.4113V453.458H96.1031V452H94.4113V448.988ZM84.4806 451.464H91.908V450.089H89.0746V448.906H87.3278V450.089H84.4806V451.464ZM85.0858 454.036C85.0858 455.37 86.3512 456.25 88.1943 456.25C90.0168 456.25 91.2753 455.37 91.2753 454.036C91.2753 452.702 90.0168 451.822 88.1943 451.822C86.3512 451.822 85.0858 452.702 85.0858 454.036ZM86.2137 461.367H94.4113V456.801H92.6508V457.75H87.9605V456.801H86.2137V461.367ZM86.8051 454.036C86.7983 453.451 87.3553 453.101 88.1943 453.114C89.0402 453.101 89.611 453.451 89.611 454.036C89.611 454.641 89.0402 454.964 88.1943 454.971C87.3553 454.964 86.7983 454.641 86.8051 454.036ZM87.9605 459.992V459.098H92.6508V459.992H87.9605ZM107.175 448.988H105.429V461.505H107.175V448.988ZM97.3272 458.41H98.4276C100.36 458.417 102.437 458.279 104.631 457.818L104.411 456.374C102.568 456.732 100.752 456.89 99.0603 456.918V450.185H97.3272V458.41ZM118.702 448.988H116.941V461.532H118.702V455.068H120.545V453.637H118.702V448.988ZM109.321 458.492H110.38C112.588 458.499 114.293 458.451 116.24 458.121L116.047 456.649C114.383 456.938 112.883 457.034 111.068 457.048V451.56H115.194V450.144H109.321V458.492ZM122.622 460.363C123.234 460.363 123.763 459.847 123.763 459.208C123.763 458.575 123.234 458.059 122.622 458.066C121.975 458.059 121.452 458.575 121.466 459.208C121.452 459.847 121.975 460.363 122.622 460.363Z" fill="#ECECF8"/>
<path d="M29.452 498.139H25.5678V497.281H28.4067V496.18H22.8059V494.937H28.3517V493.847H21.4085V497.281H24.1923V498.139H20.2971V499.239H29.452V498.139ZM21.3424 501.594C21.3424 502.766 22.6629 503.432 24.8526 503.432C27.0257 503.432 28.3297 502.766 28.3407 501.594C28.3297 500.406 27.0257 499.745 24.8526 499.745C22.6629 499.745 21.3424 500.406 21.3424 501.594ZM22.7729 501.594C22.7674 501.077 23.4661 500.813 24.8526 500.813C26.2115 500.813 26.9267 501.077 26.9322 501.594C26.9267 502.117 26.2115 502.364 24.8526 502.364C23.4661 502.364 22.7674 502.117 22.7729 501.594ZM38.4529 493.407H37.0335V503.421H38.4529V493.407ZM30.0682 500.582L30.8055 501.704C34.3816 500.015 35.4434 497.49 35.4489 494.453H30.6074V495.553H34.0185C33.7929 497.776 32.654 499.36 30.0682 500.582ZM47.7729 494.013H42.8763V498.227H47.7729V494.013ZM43.4045 502.342L43.8886 503.399C45.5612 503.239 46.7551 502.65 47.3713 501.858C47.982 502.639 49.1648 503.244 50.8319 503.399L51.305 502.342C49.3189 502.15 48.268 501.363 48.114 500.681H50.9199V499.635H48.07V498.81H46.6615V499.635H43.8116V500.681H46.6175C46.4635 501.385 45.4071 502.177 43.4045 502.342ZM44.2628 497.127V495.102H46.3754V497.127H44.2628ZM49.3464 499.085H50.7438V493.407H49.3464V499.085ZM63.86 498.359H54.6941V499.47H58.6994V501.198H60.0858V499.47H63.86V498.359ZM55.7724 503.244H62.8477V502.122H57.1699V500.329H55.7724V503.244ZM55.8385 497.534H62.6827V493.847H55.8385V497.534ZM57.2139 496.444V494.937H61.3072V496.444H57.2139ZM73.103 493.407H71.7716V503.421H73.103V493.407ZM64.2342 500.494L65.0814 501.528C66.0002 500.967 66.6054 499.976 66.9465 498.81C67.2876 499.888 67.8708 500.78 68.7676 501.308L69.5929 500.274C68.1294 499.437 67.6067 497.754 67.6122 496.092V495.553H69.1307V494.431H64.6193V495.553H66.2588V496.092C66.2588 497.792 65.7086 499.586 64.2342 500.494ZM68.4155 497.974H69.7359V502.958H71.0563V493.572H69.7359V496.84H68.4155V497.974ZM82.621 493.407H81.2236V495.718H79.6391V496.862H81.2236V499.195H82.621V493.407ZM74.1263 498.106L74.8415 499.206C76.0189 498.832 76.8222 498.034 77.2623 497.033C77.697 497.935 78.4617 498.667 79.5731 499.03L80.2663 497.919C78.7038 497.396 77.9831 496.191 77.9665 495.047H79.9582V493.913H74.5224V495.047H76.5361C76.4976 496.307 75.7493 497.583 74.1263 498.106ZM75.8869 503.31H82.621V499.613H75.8869V503.31ZM77.2953 502.188V500.714H81.2456V502.188H77.2953ZM92.6012 493.407H91.2588V503.421H92.6012V493.407ZM84.0075 497.743C84.0075 499.993 84.8603 501.385 86.1862 501.385C87.4186 501.385 88.2603 500.191 88.3814 498.227H89.1901V502.958H90.5106V493.55H89.1901V497.116H88.3704C88.2163 495.245 87.3911 494.117 86.1862 494.123C84.8603 494.117 84.0075 495.503 84.0075 497.743ZM85.3059 497.743C85.2949 496.208 85.625 495.443 86.1862 495.443C86.7639 495.443 87.105 496.208 87.0995 497.743C87.105 499.283 86.7639 500.042 86.1862 500.031C85.625 500.042 85.2949 499.283 85.3059 497.743ZM104.914 493.407H103.583V497.27H102.614V493.572H101.327V502.936H102.614V498.392H103.583V503.421H104.914V493.407ZM96.5405 501.154H97.2337C98.5541 501.148 99.6215 501.11 100.843 500.879L100.744 499.734C99.7755 499.905 98.9173 499.96 97.9489 499.976V495.696H100.271V494.563H96.5405V501.154ZM113.937 493.418H112.529V500.89H113.937V497.633H115.29V496.488H113.937V493.418ZM105.993 495.575H111.934V494.464H109.668V493.396H108.27V494.464H105.993V495.575ZM106.477 497.864C106.477 499.019 107.506 499.778 108.963 499.778C110.416 499.778 111.428 499.019 111.428 497.864C111.428 496.703 110.416 495.927 108.963 495.927C107.506 495.927 106.477 496.703 106.477 497.864ZM107.445 503.244H114.3V502.122H108.842V500.318H107.445V503.244ZM107.852 497.864C107.847 497.308 108.292 497 108.963 496.994C109.64 497 110.097 497.308 110.097 497.864C110.097 498.414 109.64 498.711 108.963 498.711C108.292 498.711 107.847 498.414 107.852 497.864ZM126.767 493.407H125.37V494.904H123.488V496.015H125.37V498.502H126.767V493.407ZM118.25 497.468L118.977 498.579C120.149 498.21 120.935 497.462 121.375 496.499C121.81 497.358 122.558 498.029 123.631 498.37L124.368 497.292C122.773 496.818 122.074 495.658 122.08 494.464V493.737H120.66V494.464C120.655 495.757 119.912 496.978 118.25 497.468ZM120.11 499.998H125.381V500.571H120.121V503.31H127.053V502.21H121.507V501.594H126.767V498.92H120.11V499.998ZM136.505 493.407H135.108V494.871H133.237V494.145H128.484V498.722H133.237V497.996H135.108V499.272H136.505V493.407ZM129.639 501.484C129.639 502.722 130.949 503.426 133.083 503.421C135.223 503.426 136.533 502.722 136.538 501.484C136.533 500.252 135.223 499.531 133.083 499.536C130.949 499.531 129.639 500.252 129.639 501.484ZM129.881 497.611V495.256H131.862V497.611H129.881ZM131.037 501.484C131.037 500.89 131.757 500.604 133.083 500.604C134.415 500.604 135.135 500.89 135.141 501.484C135.135 502.056 134.415 502.353 133.083 502.353C131.757 502.353 131.037 502.056 131.037 501.484ZM133.237 496.862V495.982H135.108V496.862H133.237Z" fill="#ECECF8" fill-opacity="0.5"/>
<path d="M28.4177 509.334H27.5594V519.116H28.4177V509.334ZM20.4511 516.509L20.5832 517.246C22.3988 517.246 24.792 517.213 26.9762 516.861L26.9102 516.2C26.0079 516.321 25.0506 516.388 24.1043 516.432V515.397C25.2652 515.265 26.0244 514.594 26.0189 513.626C26.0244 512.52 25.0671 511.805 23.6532 511.81C22.2392 511.805 21.2984 512.52 21.3094 513.626C21.2984 514.605 22.0577 515.276 23.235 515.397V516.465C22.2447 516.498 21.2874 516.503 20.4511 516.509ZM20.6602 511.249H26.6571V510.545H24.1043V509.345H23.235V510.545H20.6602V511.249ZM22.1127 513.626C22.1072 512.943 22.7454 512.481 23.6532 512.481C24.5665 512.481 25.1992 512.943 25.1937 513.626C25.1992 514.302 24.5665 514.748 23.6532 514.737C22.7454 514.748 22.1072 514.302 22.1127 513.626ZM33.4133 511.964V510.182H32.566V511.964C32.555 513.752 31.4217 515.628 29.9912 516.332L30.5414 517.026C31.6417 516.437 32.566 515.199 33.0007 513.758C33.4353 515.117 34.3376 516.277 35.4159 516.839L35.9441 516.145C34.5522 515.463 33.4133 513.686 33.4133 511.964ZM36.8464 519.116H37.7047V514.055H39.3442V513.307H37.7047V509.334H36.8464V519.116ZM48.257 509.334H47.4208V519.116H48.257V509.334ZM39.9934 513.56C39.9989 515.639 40.8242 516.965 42.0951 516.96C43.3 516.965 44.1197 515.771 44.2022 513.868H45.4621V518.621H46.2874V509.543H45.4621V513.152H44.1967C44.0867 511.309 43.2835 510.165 42.0951 510.16C40.8242 510.165 39.9989 511.48 39.9934 513.56ZM40.8077 513.56C40.7967 511.97 41.3028 510.974 42.0951 510.974C42.8928 510.974 43.399 511.97 43.3935 513.56C43.399 515.144 42.8928 516.145 42.0951 516.134C41.3028 516.145 40.7967 515.144 40.8077 513.56ZM53.0546 511.964V510.182H52.1743V511.964C52.1688 513.769 51.0354 515.65 49.5995 516.354L50.1607 517.048C51.272 516.459 52.1908 515.205 52.6254 513.741C53.0601 515.133 53.9789 516.299 55.0902 516.872L55.6074 516.167C54.1879 515.518 53.0491 513.736 53.0546 511.964ZM54.5401 513.384H56.8618V519.138H57.7201V509.334H56.8618V512.679H54.5401V513.384ZM62.6607 518.225H63.651V515.133H65.3785C65.4445 515.133 65.5106 515.133 65.5711 515.128L67.2381 518.225H68.3935L66.5999 514.946C67.6122 514.594 68.0854 513.769 68.0854 512.712C68.0854 511.293 67.2326 510.259 65.3675 510.259H62.6607V518.225ZM63.651 514.231V511.139H65.3235C66.6054 511.139 67.1006 511.761 67.1061 512.712C67.1006 513.659 66.6054 514.231 65.3345 514.231H63.651ZM73.169 515.771C73.1635 516.888 72.3162 517.394 71.6395 517.389C70.8748 517.394 70.3411 516.839 70.3411 515.98V512.25H69.3948V516.046C69.3893 517.565 70.1981 518.302 71.3314 518.302C72.2282 518.302 72.8224 517.818 73.103 517.213H73.169V518.225H74.1043V512.25H73.169V515.771ZM76.5691 514.638C76.5691 513.604 77.2073 513.02 78.0766 513.02C78.9239 513.02 79.43 513.571 79.43 514.495V518.225H80.3763V514.429C80.3818 512.91 79.5731 512.173 78.3627 512.173C77.4549 512.173 76.8937 512.575 76.6131 513.185H76.5361V512.25H75.6228V518.225H76.5691V514.638ZM83.2372 518.225H84.1835L85.471 513.67H85.559L86.8574 518.225H87.7927L89.6083 512.25H88.618L87.3415 516.784H87.2755L86.0321 512.25H85.0198L83.7544 516.806H83.6994L82.423 512.25H81.4217L83.2372 518.225ZM90.3675 516.531C90.3675 517.697 91.2698 518.363 92.4032 518.368C93.443 518.363 93.9877 517.812 94.1857 517.411H94.2298V518.225H95.1651V514.286C95.1706 512.404 93.7016 512.173 92.9203 512.173C91.5999 512.173 90.6646 512.839 90.5436 513.802H91.5339C91.6659 513.345 92.1226 512.998 92.8763 512.998C93.7786 512.998 94.2298 513.439 94.2298 514.198V514.682C93.9602 514.687 92.9974 514.742 92.6122 514.77C91.5779 514.847 90.3675 515.161 90.3675 516.531ZM91.3138 516.575C91.3193 515.92 91.864 515.617 92.7223 515.562C93.0084 515.546 93.9492 515.474 94.2298 515.458V516.057C94.2298 516.811 93.6356 517.526 92.5682 517.521C91.842 517.526 91.3193 517.207 91.3138 516.575ZM97.0687 520.47C97.9159 520.464 98.4991 520.024 98.8512 519.083L101.382 512.25H100.348L98.7192 516.993H98.6532L97.0246 512.25H95.9903L98.202 518.269L98.026 518.72C97.7124 519.595 97.3878 519.617 97.0026 519.623C96.8541 519.617 96.6395 519.612 96.5405 519.601V520.448C96.6615 520.459 96.8651 520.464 97.0687 520.47ZM111.01 513.879H102.053V514.561H111.01V513.879ZM103.132 515.991H109.029V516.828H103.143V518.984H110.207V518.357H104.012V517.422H109.888V515.342H103.132V515.991ZM103.187 510.259H108.985V511.062H103.22V513.141H110.031V512.514H104.078V511.656H109.855V509.631H103.187V510.259ZM117.909 511.964V510.182H117.062V511.964C117.051 513.752 115.918 515.628 114.487 516.332L115.037 517.026C116.138 516.437 117.062 515.199 117.497 513.758C117.931 515.117 118.834 516.277 119.912 516.839L120.44 516.145C119.048 515.463 117.909 513.686 117.909 511.964ZM121.342 519.116H122.201V514.055H123.84V513.307H122.201V509.334H121.342V519.116ZM133.281 514.176H131.07V512.795C131.84 512.487 132.274 511.992 132.28 511.337C132.274 510.187 130.954 509.527 128.825 509.521C126.679 509.527 125.359 510.187 125.359 511.337C125.359 511.997 125.799 512.492 126.58 512.795V514.176H124.368V514.891H133.281V514.176ZM125.447 517.367C125.441 518.484 126.701 519.094 128.825 519.094C130.921 519.094 132.181 518.484 132.192 517.367C132.181 516.25 130.921 515.634 128.825 515.639C126.701 515.634 125.441 516.25 125.447 517.367ZM126.25 511.337C126.245 510.633 127.224 510.204 128.825 510.204C130.409 510.204 131.394 510.633 131.4 511.337C131.394 512.052 130.409 512.465 128.825 512.47C127.224 512.465 126.245 512.052 126.25 511.337ZM126.327 517.367C126.316 516.701 127.257 516.31 128.825 516.299C130.376 516.31 131.317 516.701 131.323 517.367C131.317 518.033 130.376 518.429 128.825 518.423C127.257 518.429 126.316 518.033 126.327 517.367ZM127.438 514.176V513.031C127.851 513.103 128.313 513.141 128.825 513.141C129.336 513.141 129.799 513.103 130.211 513.026V514.176H127.438ZM141.677 509.334H140.819V519.116H141.677V514.088H143.316V513.373H141.677V509.334ZM134.051 511.623H139.872V510.908H137.43V509.455H136.571V510.908H134.051V511.623ZM134.613 514.682C134.607 516.008 135.619 516.927 137.011 516.927C138.392 516.927 139.399 516.008 139.41 514.682C139.399 513.362 138.392 512.437 137.011 512.437C135.619 512.437 134.607 513.362 134.613 514.682ZM135.438 514.682C135.432 513.796 136.098 513.158 137.011 513.163C137.914 513.158 138.574 513.796 138.585 514.682C138.574 515.573 137.914 516.2 137.011 516.189C136.098 516.2 135.432 515.573 135.438 514.682ZM151.756 512.305H145.913V509.697H145.055V512.998H151.756V512.305ZM143.834 515.034H152.79V514.33H143.834V515.034ZM145 518.874H151.811V518.159H145.858V516.035H145V518.874ZM161.956 509.334H161.12V519.116H161.956V509.334ZM153.968 516.762H154.584C156.158 516.756 157.115 516.707 158.248 516.476L158.16 515.738C157.109 515.975 156.218 516.024 154.804 516.035V511.26H157.654V510.545H153.968V516.762ZM156.994 513.802H159.129V518.61H159.954V509.576H159.129V513.075H156.994V513.802ZM164.927 517.488H163.86L163.255 520.481H164.069L164.927 517.488ZM177.108 509.345H176.25V516.498H177.108V509.345ZM169.263 512.426C169.257 513.851 170.363 514.842 171.827 514.836C173.29 514.842 174.385 513.851 174.39 512.426C174.385 511.018 173.29 510.033 171.827 510.027C170.363 510.033 169.257 511.018 169.263 512.426ZM170.11 512.426C170.099 511.469 170.836 510.787 171.827 510.787C172.8 510.787 173.543 511.469 173.543 512.426C173.543 513.4 172.8 514.077 171.827 514.077C170.836 514.077 170.099 513.4 170.11 512.426ZM170.792 518.907H177.416V518.181H171.651V515.771H170.792V518.907ZM187.727 517.125H178.77V517.862H187.727V517.125ZM179.562 511.04H181.114V514.462H179.584V515.166H186.846V514.462H185.317V511.04H186.868V510.325H179.562V511.04ZM181.972 514.462V511.04H184.47V514.462H181.972ZM196.078 509.334H195.22V519.138H196.078V513.956H197.718V513.229H196.078V509.334ZM188.893 510.963H192.48V513.031H188.915V516.773H189.696C191.583 516.762 192.887 516.69 194.428 516.41L194.34 515.694C192.86 515.969 191.589 516.041 189.773 516.035V513.747H193.338V510.248H188.893V510.963ZM201.646 511.139V510.721H203.836V510.016H198.565V510.721H200.777V511.15C200.777 512.531 199.732 513.835 198.29 514.352L198.741 515.034C199.902 514.605 200.81 513.703 201.233 512.58C201.652 513.587 202.504 514.407 203.605 514.803L204.056 514.121C202.625 513.626 201.646 512.41 201.646 511.139ZM199.776 516.432H205.486V519.116H206.356V515.716H199.776V516.432ZM203.528 512.624H205.486V515.199H206.356V509.334H205.486V511.898H203.528V512.624ZM216.061 509.345H215.202V516.498H216.061V509.345ZM208.215 512.426C208.21 513.851 209.316 514.842 210.779 514.836C212.243 514.842 213.337 513.851 213.343 512.426C213.337 511.018 212.243 510.033 210.779 510.027C209.316 510.033 208.21 511.018 208.215 512.426ZM209.062 512.426C209.051 511.469 209.789 510.787 210.779 510.787C211.753 510.787 212.496 511.469 212.496 512.426C212.496 513.4 211.753 514.077 210.779 514.077C209.789 514.077 209.051 513.4 209.062 512.426ZM209.745 518.907H216.369V518.181H210.603V515.771H209.745V518.907ZM228.616 509.334H227.746V519.138H228.616V509.334ZM220.913 513.505C220.919 515.59 221.953 516.91 223.411 516.905C224.864 516.91 225.914 515.59 225.909 513.505C225.914 511.425 224.864 510.099 223.411 510.093C221.953 510.099 220.919 511.425 220.913 513.505ZM221.75 513.505C221.75 511.915 222.432 510.869 223.411 510.864C224.396 510.869 225.073 511.915 225.073 513.505C225.073 515.095 224.396 516.14 223.411 516.134C222.432 516.14 221.75 515.095 221.75 513.505ZM239.234 514.935H230.277V515.65H232.577V519.193H233.435V515.65H236.087V519.193H236.945V515.65H239.234V514.935ZM230.75 513.097L231.103 513.813C232.632 513.543 234.129 512.701 234.756 511.485C235.388 512.696 236.89 513.543 238.409 513.813L238.75 513.097C237.011 512.85 235.201 511.634 235.196 510.248V509.686H234.305V510.248C234.305 511.656 232.506 512.839 230.75 513.097ZM248.279 510.093H243.404V510.82H247.426C247.415 511.441 247.393 512.272 247.157 513.439L248.026 513.505C248.274 512.228 248.274 511.254 248.279 510.611V510.093ZM242.799 514.418L242.887 515.133C244.631 515.128 246.986 515.089 249.038 514.737L248.983 514.099C247.965 514.242 246.843 514.319 245.759 514.363V512.261H244.901V514.39C244.147 514.412 243.432 514.418 242.799 514.418ZM244.307 518.907H250.843V518.181H245.176V516.035H244.307V518.907ZM249.643 516.696H250.524V513.263H251.954V512.525H250.524V509.334H249.643V516.696ZM260.669 509.334H259.811V519.138H260.669V509.334ZM253.143 510.963H256.829V513.02H253.165V516.762H253.979C255.668 516.762 257.153 516.69 258.952 516.41L258.864 515.683C257.115 515.964 255.668 516.041 254.045 516.035V513.725H257.698V510.248H253.143V510.963ZM270.264 509.972H265.676V513.956H270.264V509.972ZM266.38 518.412L266.688 519.083C268.162 518.88 269.538 518.209 270.127 517.284C270.71 518.187 272.052 518.88 273.521 519.083L273.818 518.412C272.14 518.203 270.567 517.251 270.572 516.299H273.477V515.628H270.55V514.671H269.692V515.628H266.787V516.299H269.681C269.681 517.273 268.063 518.225 266.38 518.412ZM266.523 513.274V510.677H269.417V513.274H266.523ZM272.377 514.957H273.224V509.334H272.377V514.957ZM29.342 527.308H20.3851V528.023H24.5004V530.026H25.3697V528.023H29.342V527.308ZM21.3974 524.557C21.3919 525.762 22.7619 526.51 24.8526 526.505C26.9432 526.51 28.2967 525.762 28.2967 524.557C28.2967 523.341 26.9432 522.593 24.8526 522.587C22.7619 522.593 21.3919 523.341 21.3974 524.557ZM21.5405 531.907H28.3407V531.17H22.4098V529.046H21.5405V531.907ZM22.3217 524.557C22.3107 523.776 23.3286 523.297 24.8526 523.292C26.371 523.297 27.3834 523.776 27.3834 524.557C27.3834 525.316 26.371 525.8 24.8526 525.8C23.3286 525.8 22.3107 525.316 22.3217 524.557ZM32.8301 522.928C31.3666 522.923 30.2828 523.88 30.2883 525.25C30.2828 526.609 31.3666 527.566 32.8301 527.561C33.6554 527.566 34.3596 527.253 34.8107 526.736H37.3746V528.133H38.2438V522.334H37.3746V523.754H34.8107C34.3541 523.237 33.6554 522.923 32.8301 522.928ZM31.1136 525.25C31.1136 524.32 31.8288 523.671 32.8301 523.677C33.7984 523.671 34.5246 524.32 34.5246 525.25C34.5246 526.158 33.7984 526.829 32.8301 526.824C31.8288 526.829 31.1136 526.158 31.1136 525.25ZM31.7188 530.224C31.7132 531.412 32.9676 532.094 34.9978 532.094C37.0224 532.094 38.2768 531.412 38.2768 530.224C38.2768 529.046 37.0224 528.364 34.9978 528.364C32.9676 528.364 31.7132 529.046 31.7188 530.224ZM32.566 530.224C32.5605 529.481 33.4958 529.041 34.9978 529.035C36.4998 529.041 37.4351 529.481 37.4296 530.224C37.4351 530.961 36.4998 531.407 34.9978 531.401C33.4958 531.407 32.5605 530.961 32.566 530.224ZM35.2234 524.458H37.3746V526.02H35.2289C35.3114 525.784 35.3609 525.525 35.3609 525.25C35.3609 524.964 35.3114 524.7 35.2234 524.458ZM44.3288 522.51C42.1446 522.51 40.8627 523.11 40.8627 524.194C40.8627 525.305 42.1446 525.905 44.3288 525.91C46.502 525.905 47.7784 525.305 47.7839 524.194C47.7784 523.11 46.502 522.51 44.3288 522.51ZM39.8724 527.275H48.7852V526.571H39.8724V527.275ZM40.9507 528.782H46.7936V529.674H40.9727V532.006H47.9379V531.324H41.831V530.312H47.6408V528.122H40.9507V528.782ZM41.765 524.194C41.754 523.55 42.7058 523.165 44.3288 523.16C45.9518 523.165 46.8981 523.55 46.9036 524.194C46.8981 524.876 45.9518 525.25 44.3288 525.25C42.7058 525.25 41.754 524.876 41.765 524.194ZM60.0088 522.334H59.1505V532.116H60.0088V527.088H61.6483V526.373H60.0088V522.334ZM52.3834 524.623H58.2042V523.908H55.7614V522.455H54.9032V523.908H52.3834V524.623ZM52.9445 527.682C52.939 529.008 53.9514 529.927 55.3433 529.927C56.7243 529.927 57.7311 529.008 57.7421 527.682C57.7311 526.362 56.7243 525.437 55.3433 525.437C53.9514 525.437 52.939 526.362 52.9445 527.682ZM53.7698 527.682C53.7643 526.796 54.43 526.158 55.3433 526.163C56.2456 526.158 56.9058 526.796 56.9168 527.682C56.9058 528.573 56.2456 529.2 55.3433 529.189C54.43 529.2 53.7643 528.573 53.7698 527.682ZM70.088 525.305H64.2452V522.697H63.3869V525.998H70.088V525.305ZM62.1655 528.034H71.1224V527.33H62.1655V528.034ZM63.3319 531.874H70.143V531.159H64.1901V529.035H63.3319V531.874ZM80.2883 522.334H79.452V532.116H80.2883V522.334ZM72.2997 529.762H72.9159C74.4894 529.756 75.4467 529.707 76.5801 529.476L76.4921 528.738C75.4412 528.975 74.55 529.024 73.136 529.035V524.26H75.9859V523.545H72.2997V529.762ZM75.3257 526.802H77.4604V531.61H78.2857V522.576H77.4604V526.075H75.3257V526.802ZM89.3662 524.029H87.3526V522.631H86.4943V524.029H84.4586V524.733H89.3662V524.029ZM84.8107 527.616C84.8107 528.931 85.6965 529.855 86.9124 529.861C88.1448 529.855 89.0251 528.931 89.0361 527.616C89.0251 526.318 88.1448 525.399 86.9124 525.393C85.6965 525.399 84.8107 526.318 84.8107 527.616ZM85.581 527.616C85.581 526.758 86.1367 526.13 86.9124 526.119C87.6937 526.13 88.2658 526.758 88.2658 527.616C88.2658 528.485 87.6937 529.107 86.9124 529.101C86.1367 529.107 85.581 528.485 85.581 527.616ZM89.8724 531.632H90.6866V527.176H91.985V532.116H92.8103V522.334H91.985V526.461H90.6866V522.576H89.8724V531.632ZM102.328 522.334H101.459V523.765H99.1978C99.2584 523.468 99.2914 523.154 99.2914 522.829H94.879V523.545H98.3396C98.1745 525.124 96.7826 526.29 94.3838 526.846L94.6919 527.561C96.8651 527.038 98.3836 525.998 98.9943 524.458H101.459V525.635H98.8512V526.318H101.459V527.341H102.328V522.334ZM95.9903 528.485H101.459V529.509H96.0123V532.028H102.658V531.313H96.8706V530.169H102.328V527.781H95.9903V528.485ZM108.413 522.51C106.229 522.51 104.947 523.11 104.947 524.194C104.947 525.305 106.229 525.905 108.413 525.91C110.586 525.905 111.863 525.305 111.868 524.194C111.863 523.11 110.586 522.51 108.413 522.51ZM103.957 527.275H112.87V526.571H103.957V527.275ZM105.035 528.782H110.878V529.674H105.057V532.006H112.022V531.324H105.915V530.312H111.725V528.122H105.035V528.782ZM105.849 524.194C105.838 523.55 106.79 523.165 108.413 523.16C110.036 523.165 110.983 523.55 110.988 524.194C110.983 524.876 110.036 525.25 108.413 525.25C106.79 525.25 105.838 524.876 105.849 524.194ZM121.408 524.029H119.395V522.631H118.537V524.029H116.501V524.733H121.408V524.029ZM116.853 527.616C116.853 528.931 117.739 529.855 118.955 529.861C120.187 529.855 121.067 528.931 121.078 527.616C121.067 526.318 120.187 525.399 118.955 525.393C117.739 525.399 116.853 526.318 116.853 527.616ZM117.623 527.616C117.623 526.758 118.179 526.13 118.955 526.119C119.736 526.13 120.308 526.758 120.308 527.616C120.308 528.485 119.736 529.107 118.955 529.101C118.179 529.107 117.623 528.485 117.623 527.616ZM121.915 531.632H122.729V527.176H124.027V532.116H124.853V522.334H124.027V526.461H122.729V522.576H121.915V531.632ZM134.382 522.686H127.075V523.402H130.151C130.052 524.463 128.44 525.283 126.756 525.459L127.075 526.141C128.687 525.954 130.178 525.25 130.717 524.172C131.257 525.25 132.759 525.954 134.36 526.141L134.679 525.459C132.995 525.283 131.383 524.463 131.284 523.402H134.382V522.686ZM126.261 527.473H130.288V528.848H131.136V527.473H135.174V526.758H126.261V527.473ZM127.394 531.984H134.018V528.232H133.16V529.377H128.253V528.232H127.394V531.984ZM128.253 531.291V530.059H133.16V531.291H128.253ZM144.065 522.334H143.206V532.116H144.065V522.334ZM136.637 529.597H137.43C138.998 529.597 140.544 529.476 142.282 529.112L142.161 528.375C140.522 528.722 138.981 528.837 137.485 528.848V523.303H136.637V529.597ZM153.308 522.334H152.449V532.138H153.308V526.934H154.947V526.207H153.308V522.334ZM146.166 529.685H146.937C148.796 529.685 150.078 529.63 151.613 529.354L151.503 528.606C150.045 528.876 148.796 528.953 147.025 528.958V524.007H150.733V523.292H146.166V529.685ZM156.51 531.291C156.9 531.286 157.219 530.967 157.214 530.576C157.219 530.191 156.9 529.872 156.51 529.872C156.125 529.872 155.794 530.191 155.805 530.576C155.794 530.967 156.125 531.286 156.51 531.291ZM28.1756 535.818H21.5295V536.523H27.3173V536.556C27.3173 536.842 27.3228 537.144 27.3063 537.463L21.2984 537.645L21.4085 538.338L27.2678 538.085C27.2293 538.465 27.1743 538.883 27.0698 539.351H20.4071V540.055H29.309V539.351H27.939C28.1756 538.19 28.1756 537.309 28.1756 536.556V535.818ZM21.4525 541.672H27.3944V542.597H21.4745V544.984H28.5938V544.291H22.3327V543.257H28.2526V541.001H21.4525V541.672ZM38.2328 535.334H37.3746V539.097H35.471V539.824H37.3746V545.138H38.2328V535.334ZM30.4754 536.963H34.0405V538.954H30.5084V542.784H31.2566C33.0282 542.778 34.2991 542.718 35.768 542.454L35.702 541.727C34.2771 541.991 33.0557 542.046 31.3666 542.046V539.67H34.8768V536.248H30.4754V536.963ZM44.7469 536.776V536.027H43.8446V536.776C43.8391 538.459 41.941 539.939 40.2465 540.264L40.6426 540.99C42.1226 540.643 43.6686 539.598 44.3068 538.162C44.9395 539.598 46.491 540.649 47.971 540.99L48.3671 540.264C46.667 539.945 44.7524 538.454 44.7469 536.776ZM39.8724 543.785H48.8292V543.07H39.8724V543.785ZM57.7201 535.334H56.8618V539.031H54.7931V539.747H56.8618V545.138H57.7201V535.334ZM50.0616 542.773H50.8099C52.7025 542.773 53.8963 542.707 55.3213 542.476L55.2223 541.76C53.8798 542.002 52.7245 542.052 50.9309 542.057V539.692H54.1989V538.987H50.9309V536.952H54.6281V536.237H50.0616V542.773ZM67.7333 535.334H66.897V545.116H67.7333V535.334ZM59.4696 539.56C59.4751 541.639 60.3004 542.965 61.5713 542.96C62.7762 542.965 63.596 541.771 63.6785 539.868H64.9384V544.621H65.7636V535.543H64.9384V539.152H63.673C63.5629 537.309 62.7597 536.165 61.5713 536.16C60.3004 536.165 59.4751 537.48 59.4696 539.56ZM60.2839 539.56C60.2729 537.97 60.779 536.974 61.5713 536.974C62.3691 536.974 62.8752 537.97 62.8697 539.56C62.8752 541.144 62.3691 542.145 61.5713 542.134C60.779 542.145 60.2729 541.144 60.2839 539.56ZM72.5308 537.964V536.182H71.6505V537.964C71.645 539.769 70.5117 541.65 69.0757 542.354L69.6369 543.048C70.7482 542.459 71.667 541.205 72.1017 539.741C72.5363 541.133 73.4551 542.299 74.5665 542.872L75.0836 542.167C73.6642 541.518 72.5253 539.736 72.5308 537.964ZM74.0163 539.384H76.338V545.138H77.1963V535.334H76.338V538.679H74.0163V539.384ZM84.9648 537.381V536.908H87.1655V536.193H81.9058V536.908H84.1175V537.381C84.1065 538.778 83.0832 540.088 81.6197 540.616L82.0819 541.309C83.2317 540.875 84.1285 539.972 84.5467 538.844C84.9648 539.862 85.8121 540.66 86.9014 541.045L87.3856 540.407C85.9386 539.901 84.9703 538.707 84.9648 537.381ZM83.1822 544.907H89.7513V544.181H84.0295V541.859H83.1822V544.907ZM88.4419 542.487H89.3002V539.053H90.7746V538.338H89.3002V535.334H88.4419V542.487ZM94.0207 536.093C92.5737 536.099 91.5614 537.425 91.5669 539.505C91.5614 541.59 92.5737 542.91 94.0207 542.905C94.967 542.91 95.7262 542.332 96.1334 541.342H98.6422V545.138H99.5004V535.334H98.6422V537.524H96.0728C95.6492 536.622 94.9175 536.099 94.0207 536.093ZM92.3922 539.505C92.3977 537.915 93.0579 536.869 94.0207 536.864C94.978 536.869 95.6492 537.915 95.6492 539.505C95.6492 541.095 94.978 542.14 94.0207 542.134C93.0579 542.14 92.3977 541.095 92.3922 539.505ZM96.3204 538.25H98.6422V540.627H96.3534C96.425 540.286 96.4635 539.906 96.4635 539.505C96.4635 539.048 96.414 538.63 96.3204 538.25ZM112.033 535.334H111.175V545.138H112.033V535.334ZM104.507 536.963H108.193V539.02H104.529V542.762H105.343C107.032 542.762 108.518 542.69 110.317 542.41L110.229 541.683C108.479 541.964 107.032 542.041 105.409 542.035V539.725H109.062V536.248H104.507V536.963ZM122.652 543.125H118.548V540.726H117.7V543.125H113.695V543.84H122.652V543.125ZM114.047 540.121L114.432 540.836C115.929 540.528 117.486 539.516 118.129 538.113C118.762 539.521 120.336 540.528 121.827 540.836L122.212 540.121C120.506 539.829 118.575 538.388 118.57 536.754V536.005H117.667V536.754C117.662 538.399 115.758 539.829 114.047 540.121ZM128.308 536.776V536.027H127.405V536.776C127.4 538.459 125.502 539.939 123.807 540.264L124.203 540.99C125.683 540.643 127.229 539.598 127.868 538.162C128.5 539.598 130.052 540.649 131.532 540.99L131.928 540.264C130.228 539.945 128.313 538.454 128.308 536.776ZM123.433 543.785H132.39V543.07H123.433V543.785ZM142.117 539.879H133.16V540.561H142.117V539.879ZM134.239 541.991H140.136V542.828H134.25V544.984H141.314V544.357H135.119V543.422H140.995V541.342H134.239V541.991ZM134.294 536.259H140.092V537.062H134.327V539.141H141.138V538.514H135.185V537.656H140.962V535.631H134.294V536.259ZM153.374 535.345H152.504V541.903H153.374V539.031H154.837V538.305H153.374V535.345ZM145.693 540.902L145.792 541.606C147.514 541.612 149.853 541.595 151.976 541.221L151.899 540.594C151.041 540.72 150.117 540.798 149.203 540.842V540.154C150.337 540.044 151.052 539.521 151.063 538.712C151.052 537.821 150.15 537.271 148.763 537.271C147.388 537.271 146.469 537.821 146.474 538.712C146.469 539.527 147.206 540.049 148.345 540.154V540.875C147.388 540.902 146.474 540.902 145.693 540.902ZM145.935 536.897H151.602V536.237H149.203V535.257H148.345V536.237H145.935V536.897ZM146.893 543.081H152.504V545.116H153.374V542.388H146.893V543.081ZM147.3 538.712C147.294 538.195 147.861 537.876 148.763 537.887C149.665 537.876 150.238 538.195 150.238 538.712C150.238 539.224 149.665 539.571 148.763 539.56C147.861 539.571 147.294 539.224 147.3 538.712ZM163.552 535.345H162.694V542.498H163.552V535.345ZM155.706 538.426C155.701 539.851 156.807 540.842 158.27 540.836C159.734 540.842 160.829 539.851 160.834 538.426C160.829 537.018 159.734 536.033 158.27 536.027C156.807 536.033 155.701 537.018 155.706 538.426ZM156.554 538.426C156.543 537.469 157.28 536.787 158.27 536.787C159.244 536.787 159.987 537.469 159.987 538.426C159.987 539.4 159.244 540.077 158.27 540.077C157.28 540.077 156.543 539.4 156.554 538.426ZM157.236 544.907H163.86V544.181H158.094V541.771H157.236V544.907ZM172.784 535.334H171.926V545.116H172.784V540.088H174.423V539.373H172.784V535.334ZM165.158 537.623H170.979V536.908H168.537V535.455H167.678V536.908H165.158V537.623ZM165.72 540.682C165.714 542.008 166.726 542.927 168.118 542.927C169.499 542.927 170.506 542.008 170.517 540.682C170.506 539.362 169.499 538.437 168.118 538.437C166.726 538.437 165.714 539.362 165.72 540.682ZM166.545 540.682C166.539 539.796 167.205 539.158 168.118 539.163C169.021 539.158 169.681 539.796 169.692 540.682C169.681 541.573 169.021 542.2 168.118 542.189C167.205 542.2 166.539 541.573 166.545 540.682ZM182.863 538.305H177.02V535.697H176.162V538.998H182.863V538.305ZM174.941 541.034H183.897V540.33H174.941V541.034ZM176.107 544.874H182.918V544.159H176.965V542.035H176.107V544.874ZM196.474 543.136H192.392V540.748H195.363V536.16H188.574V540.748H191.545V543.136H187.518V543.862H196.474V543.136ZM189.421 540.055V536.853H194.527V540.055H189.421ZM205.321 535.334H204.463V545.116H205.321V535.334ZM197.894 542.597H198.686C200.254 542.597 201.8 542.476 203.539 542.112L203.418 541.375C201.778 541.722 200.238 541.837 198.741 541.848V536.303H197.894V542.597ZM215.103 535.334H214.245V539.031H212.177V539.747H214.245V545.138H215.103V535.334ZM207.445 542.773H208.193C210.086 542.773 211.28 542.707 212.705 542.476L212.606 541.76C211.263 542.002 210.108 542.052 208.314 542.057V539.692H211.582V538.987H208.314V536.952H212.011V536.237H207.445V542.773ZM224.809 535.345H223.95V541.364H224.809V535.345ZM217.227 536.688H220.836V537.964H217.249V540.759H218.041C219.846 540.753 221.183 540.709 222.828 540.44L222.729 539.725C221.139 539.983 219.835 540.033 218.085 540.033V538.646H221.695V535.961H217.227V536.688ZM218.261 543.334C218.256 544.451 219.505 545.094 221.563 545.094C223.62 545.094 224.875 544.451 224.875 543.334C224.875 542.211 223.62 541.562 221.563 541.562C219.505 541.562 218.256 542.211 218.261 543.334ZM219.109 543.334C219.114 542.663 220.039 542.255 221.563 542.255C223.081 542.255 224.011 542.663 224.005 543.334C224.011 544.005 223.081 544.407 221.563 544.401C220.039 544.407 219.114 544.005 219.109 543.334ZM230.926 535.51C228.742 535.51 227.46 536.11 227.46 537.194C227.46 538.305 228.742 538.905 230.926 538.91C233.1 538.905 234.376 538.305 234.382 537.194C234.376 536.11 233.1 535.51 230.926 535.51ZM226.47 540.275H235.383V539.571H226.47V540.275ZM227.548 541.782H233.391V542.674H227.57V545.006H234.536V544.324H228.429V543.312H234.239V541.122H227.548V541.782ZM228.363 537.194C228.352 536.55 229.303 536.165 230.926 536.16C232.55 536.165 233.496 536.55 233.501 537.194C233.496 537.876 232.55 538.25 230.926 538.25C229.303 538.25 228.352 537.876 228.363 537.194ZM247.993 543.147H243.911V541.034H246.893V536.027H246.045V537.799H240.962V536.027H240.092V541.034H243.063V543.147H239.036V543.862H247.993V543.147ZM240.962 540.33V538.503H246.045V540.33H240.962ZM256.62 536.325H249.721V537.04H255.75V537.304C255.745 538.476 255.745 539.846 255.376 541.716L256.257 541.815C256.609 539.846 256.609 538.503 256.62 537.304V536.325ZM248.774 543.73H257.687V543.015H253.121V539.516H252.273V543.015H248.774V543.73ZM266.765 536.093H261.89V536.82H265.912C265.901 537.441 265.879 538.272 265.643 539.439L266.512 539.505C266.759 538.228 266.759 537.254 266.765 536.611V536.093ZM261.285 540.418L261.373 541.133C263.117 541.128 265.472 541.089 267.524 540.737L267.469 540.099C266.451 540.242 265.329 540.319 264.245 540.363V538.261H263.387V540.39C262.633 540.412 261.918 540.418 261.285 540.418ZM262.793 544.907H269.329V544.181H263.662V542.035H262.793V544.907ZM268.129 542.696H269.01V539.263H270.44V538.525H269.01V535.334H268.129V542.696ZM28.4727 548.334H27.6144V558.138H28.4727V548.334ZM20.9463 549.963H24.6325V552.02H20.9683V555.762H21.7826C23.4716 555.762 24.9571 555.69 26.7562 555.41L26.6681 554.683C24.9186 554.964 23.4716 555.041 21.8486 555.035V552.725H25.5018V549.248H20.9463V549.963ZM37.7817 548.334H36.9234V554.023H37.7817V551.58H39.2562V550.843H37.7817V548.334ZM30.1563 550.062H35.9881V549.347H33.5013V548.246H32.643V549.347H30.1563V550.062ZM30.7174 552.229C30.7119 553.275 31.6527 553.952 33.0722 553.946C34.4751 553.952 35.4159 553.275 35.4269 552.229C35.4159 551.184 34.4751 550.518 33.0722 550.513C31.6527 550.518 30.7119 551.184 30.7174 552.229ZM31.5427 552.229C31.5372 551.597 32.1479 551.173 33.0722 551.184C33.9855 551.173 34.6017 551.597 34.6127 552.229C34.6017 552.868 33.9855 553.286 33.0722 553.286C32.1479 553.286 31.5372 552.868 31.5427 552.229ZM31.5977 557.984H37.7817V554.452H36.9234V555.498H32.456V554.452H31.5977V557.984ZM32.456 557.291V556.18H36.9234V557.291H32.456ZM47.9379 548.334H47.0797V558.116H47.9379V548.334ZM40.5106 555.597H41.3028C42.8708 555.597 44.4168 555.476 46.1554 555.112L46.0343 554.375C44.3948 554.722 42.8543 554.837 41.3578 554.848V549.303H40.5106V555.597ZM57.1809 548.334H56.3226V558.138H57.1809V552.934H58.8204V552.207H57.1809V548.334ZM50.0396 555.685H50.8099C52.6695 555.685 53.9514 555.63 55.4864 555.354L55.3763 554.606C53.9184 554.876 52.6695 554.953 50.8979 554.958V550.007H54.6061V549.292H50.0396V555.685ZM60.3829 557.291C60.7735 557.286 61.0926 556.967 61.0871 556.576C61.0926 556.191 60.7735 555.872 60.3829 555.872C59.9978 555.872 59.6677 556.191 59.6787 556.576C59.6677 556.967 59.9978 557.286 60.3829 557.291ZM20.8803 570.225H21.8706V567.133H23.5982C23.6642 567.133 23.7302 567.133 23.7907 567.128L25.4577 570.225H26.6131L24.8195 566.946C25.8319 566.594 26.305 565.769 26.305 564.712C26.305 563.293 25.4522 562.259 23.5871 562.259H20.8803V570.225ZM21.8706 566.231V563.139H23.5431C24.825 563.139 25.3202 563.761 25.3257 564.712C25.3202 565.659 24.825 566.231 23.5541 566.231H21.8706ZM31.3886 567.771C31.3831 568.888 30.5359 569.394 29.8592 569.389C29.0944 569.394 28.5607 568.839 28.5607 567.98V564.25H27.6144V568.046C27.6089 569.565 28.4177 570.302 29.5511 570.302C30.4478 570.302 31.042 569.818 31.3226 569.213H31.3886V570.225H32.3239V564.25H31.3886V567.771ZM34.7887 566.638C34.7887 565.604 35.4269 565.02 36.2962 565.02C37.1435 565.02 37.6496 565.571 37.6496 566.495V570.225H38.596V566.429C38.6015 564.91 37.7927 564.173 36.5823 564.173C35.6745 564.173 35.1133 564.575 34.8327 565.185H34.7557V564.25H33.8424V570.225H34.7887V566.638ZM41.4569 570.225H42.4032L43.6906 565.67H43.7786L45.077 570.225H46.0123L47.8279 564.25H46.8376L45.5612 568.784H45.4952L44.2518 564.25H43.2394L41.974 568.806H41.919L40.6426 564.25H39.6413L41.4569 570.225ZM48.5871 568.531C48.5871 569.697 49.4894 570.363 50.6228 570.368C51.6626 570.363 52.2073 569.812 52.4054 569.411H52.4494V570.225H53.3847V566.286C53.3902 564.404 51.9212 564.173 51.14 564.173C49.8195 564.173 48.8842 564.839 48.7632 565.802H49.7535C49.8856 565.345 50.3422 564.998 51.096 564.998C51.9982 564.998 52.4494 565.439 52.4494 566.198V566.682C52.1798 566.687 51.217 566.742 50.8319 566.77C49.7975 566.847 48.5871 567.161 48.5871 568.531ZM49.5335 568.575C49.539 567.92 50.0836 567.617 50.9419 567.562C51.228 567.546 52.1688 567.474 52.4494 567.458V568.057C52.4494 568.811 51.8552 569.526 50.7879 569.521C50.0616 569.526 49.539 569.207 49.5335 568.575ZM55.2883 572.47C56.1356 572.464 56.7187 572.024 57.0709 571.083L59.6017 564.25H58.5673L56.9388 568.993H56.8728L55.2443 564.25H54.2099L56.4217 570.269L56.2456 570.72C55.932 571.595 55.6074 571.617 55.2223 571.623C55.0737 571.617 54.8592 571.612 54.7601 571.601V572.448C54.8812 572.459 55.0847 572.464 55.2883 572.47ZM69.2298 565.879H60.2729V566.561H69.2298V565.879ZM61.3512 567.991H67.2491V568.828H61.3622V570.984H68.4265V570.357H62.2315V569.422H68.1074V567.342H61.3512V567.991ZM61.4062 562.259H67.2051V563.062H61.4393V565.141H68.2504V564.514H62.2975V563.656H68.0744V561.631H61.4062V562.259ZM76.129 563.964V562.182H75.2817V563.964C75.2707 565.752 74.1373 567.628 72.7069 568.332L73.257 569.026C74.3574 568.437 75.2817 567.199 75.7163 565.758C76.151 567.117 77.0533 568.277 78.1316 568.839L78.6598 568.145C77.2678 567.463 76.129 565.686 76.129 563.964ZM79.5621 571.116H80.4203V566.055H82.0599V565.307H80.4203V561.334H79.5621V571.116ZM91.5009 566.176H89.2892V564.795C90.0594 564.487 90.4941 563.992 90.4996 563.337C90.4941 562.187 89.1736 561.527 87.0445 561.521C84.8988 561.527 83.5783 562.187 83.5783 563.337C83.5783 563.997 84.0185 564.492 84.7997 564.795V566.176H82.588V566.891H91.5009V566.176ZM83.6664 569.367C83.6609 570.484 84.9208 571.094 87.0445 571.094C89.1406 571.094 90.4005 570.484 90.4115 569.367C90.4005 568.25 89.1406 567.634 87.0445 567.639C84.9208 567.634 83.6609 568.25 83.6664 569.367ZM84.4696 563.337C84.4641 562.633 85.4434 562.204 87.0445 562.204C88.629 562.204 89.6138 562.633 89.6193 563.337C89.6138 564.052 88.629 564.465 87.0445 564.47C85.4434 564.465 84.4641 564.052 84.4696 563.337ZM84.5467 569.367C84.5357 568.701 85.4765 568.31 87.0445 568.299C88.596 568.31 89.5368 568.701 89.5423 569.367C89.5368 570.033 88.596 570.429 87.0445 570.423C85.4765 570.429 84.5357 570.033 84.5467 569.367ZM85.658 566.176V565.031C86.0706 565.103 86.5328 565.141 87.0445 565.141C87.5561 565.141 88.0183 565.103 88.4309 565.026V566.176H85.658ZM99.8966 561.334H99.0383V571.116H99.8966V566.088H101.536V565.373H99.8966V561.334ZM92.2711 563.623H98.092V562.908H95.6492V561.455H94.7909V562.908H92.2711V563.623ZM92.8323 566.682C92.8268 568.008 93.8391 568.927 95.2311 568.927C96.612 568.927 97.6188 568.008 97.6298 566.682C97.6188 565.362 96.612 564.437 95.2311 564.437C93.8391 564.437 92.8268 565.362 92.8323 566.682ZM93.6576 566.682C93.6521 565.796 94.3178 565.158 95.2311 565.163C96.1334 565.158 96.7936 565.796 96.8046 566.682C96.7936 567.573 96.1334 568.2 95.2311 568.189C94.3178 568.2 93.6521 567.573 93.6576 566.682ZM109.91 562.325H103.011V563.04H109.04V563.304C109.035 564.476 109.035 565.846 108.666 567.716L109.547 567.815C109.899 565.846 109.899 564.503 109.91 563.304V562.325ZM102.064 569.73H110.977V569.015H106.411V565.516H105.563V569.015H102.064V569.73ZM117.942 567.903V567.364H117.106V567.903C117.095 568.839 116.352 569.884 115.114 570.346L115.555 570.984C116.49 570.632 117.161 569.95 117.513 569.163C117.805 569.983 118.41 570.698 119.362 571.061C120.264 570.682 120.864 569.928 121.166 569.136C121.507 569.956 122.19 570.638 123.169 570.984L123.598 570.346C122.344 569.911 121.601 568.91 121.607 567.903V567.364H120.759V567.903C120.765 568.657 120.27 569.636 119.334 570.214C118.404 569.686 117.937 568.767 117.942 567.903ZM114.861 564.206C114.856 565.549 115.94 566.473 117.425 566.473C118.911 566.473 119.983 565.549 119.989 564.206C119.983 562.842 118.911 561.912 117.425 561.917C115.94 561.912 114.856 562.842 114.861 564.206ZM115.709 564.206C115.698 563.293 116.418 562.644 117.425 562.655C118.421 562.644 119.142 563.293 119.142 564.206C119.142 565.114 118.421 565.752 117.425 565.758C116.418 565.752 115.698 565.114 115.709 564.206ZM121.849 566.935H122.707V561.345H121.849V566.935ZM132.28 564.305H126.437V561.697H125.579V564.998H132.28V564.305ZM124.357 567.034H133.314V566.33H124.357V567.034ZM125.524 570.874H132.335V570.159H126.382V568.035H125.524V570.874ZM142.48 561.334H141.644V571.116H142.48V561.334ZM134.492 568.762H135.108C136.681 568.756 137.639 568.707 138.772 568.476L138.684 567.738C137.633 567.975 136.742 568.024 135.328 568.035V563.26H138.178V562.545H134.492V568.762ZM137.518 565.802H139.652V570.61H140.478V561.576H139.652V565.075H137.518V565.802ZM145.451 569.488H144.384L143.779 572.481H144.593L145.451 569.488ZM157.335 561.818H150.689V562.523H156.477V562.556C156.477 562.842 156.482 563.144 156.466 563.463L150.458 563.645L150.568 564.338L156.427 564.085C156.389 564.465 156.334 564.883 156.229 565.351H149.566V566.055H158.468V565.351H157.098C157.335 564.19 157.335 563.309 157.335 562.556V561.818ZM150.612 567.672H156.554V568.597H150.634V570.984H157.753V570.291H151.492V569.257H157.412V567.001H150.612V567.672ZM167.392 561.334H166.534V565.097H164.63V565.824H166.534V571.138H167.392V561.334ZM159.635 562.963H163.2V564.954H159.668V568.784H160.416C162.187 568.778 163.458 568.718 164.927 568.454L164.861 567.727C163.436 567.991 162.215 568.046 160.526 568.046V565.67H164.036V562.248H159.635V562.963ZM173.906 562.776V562.027H173.004V562.776C172.998 564.459 171.1 565.939 169.406 566.264L169.802 566.99C171.282 566.643 172.828 565.598 173.466 564.162C174.099 565.598 175.65 566.649 177.13 566.99L177.526 566.264C175.826 565.945 173.912 564.454 173.906 562.776ZM169.032 569.785H177.989V569.07H169.032V569.785ZM186.879 561.334H186.021V565.031H183.952V565.747H186.021V571.138H186.879V561.334ZM179.221 568.773H179.969C181.862 568.773 183.056 568.707 184.481 568.476L184.382 567.76C183.039 568.002 181.884 568.052 180.09 568.057V565.692H183.358V564.987H180.09V562.952H183.787V562.237H179.221V568.773ZM196.893 561.334H196.056V571.116H196.893V561.334ZM188.629 565.56C188.634 567.639 189.46 568.965 190.731 568.96C191.936 568.965 192.755 567.771 192.838 565.868H194.098V570.621H194.923V561.543H194.098V565.152H192.832C192.722 563.309 191.919 562.165 190.731 562.16C189.46 562.165 188.634 563.48 188.629 565.56ZM189.443 565.56C189.432 563.97 189.938 562.974 190.731 562.974C191.528 562.974 192.035 563.97 192.029 565.56C192.035 567.144 191.528 568.145 190.731 568.134C189.938 568.145 189.432 567.144 189.443 565.56ZM210.02 566.341H201.063V567.056H205.178V569.059H206.037V567.056H210.02V566.341ZM202.207 570.907H209.018V570.181H203.077V568.09H202.207V570.907ZM202.229 565.218H208.853V561.818H202.229V565.218ZM203.077 564.525V562.501H207.995V564.525H203.077ZM219.175 561.334H218.349V571.116H219.175V561.334ZM210.691 568.509L211.241 569.158C212.221 568.547 212.93 567.397 213.282 566.049C213.623 567.293 214.306 568.349 215.268 568.927L215.797 568.288C214.449 567.507 213.684 565.818 213.684 564.129V563.205H215.478V562.49H210.966V563.205H212.848V564.129C212.853 565.906 212.055 567.694 210.691 568.509ZM214.729 565.571H216.38V570.61H217.194V561.576H216.38V564.866H214.729V565.571ZM228.121 561.334H227.262V571.116H228.121V566.044H229.705V565.318H228.121V561.334ZM220.616 568.575L221.1 569.257C224.286 567.683 225.584 565.158 225.59 562.391H221.067V563.117H224.715C224.517 565.433 223.142 567.32 220.616 568.575ZM236.032 563.282V561.95H235.207V563.282C235.201 564.371 234.415 565.637 233.127 566.198L233.6 566.869C234.563 566.451 235.267 565.62 235.625 564.69C235.977 565.532 236.654 566.231 237.595 566.594L238.046 565.934C236.791 565.461 236.038 564.366 236.032 563.282ZM234.91 569.356C234.899 570.451 236.153 571.094 238.189 571.094C240.213 571.094 241.473 570.451 241.479 569.356C241.473 568.25 240.213 567.601 238.189 567.606C236.153 567.601 234.899 568.25 234.91 569.356ZM235.768 569.356C235.757 568.679 236.687 568.272 238.189 568.266C239.674 568.272 240.61 568.679 240.621 569.356C240.61 570.022 239.674 570.429 238.189 570.423C236.687 570.429 235.757 570.022 235.768 569.356ZM238.486 567.078H239.3V564.69H240.599V567.386H241.424V561.345H240.599V563.975H239.3V561.532H238.486V567.078ZM247.938 561.972H243.515V562.688H247.014C246.827 564.349 245.325 565.653 242.975 566.308L243.316 566.99C245.446 566.401 246.97 565.268 247.608 563.7H250.095V565.009H247.498V565.736H250.095V566.924H250.964V561.345H250.095V562.985H247.828C247.899 562.66 247.938 562.325 247.938 561.972ZM243.36 570.357L243.812 571.006C244.736 570.654 245.407 569.972 245.754 569.185C246.045 570.011 246.645 570.731 247.597 571.094C248.51 570.709 249.11 569.95 249.412 569.152C249.748 569.978 250.43 570.665 251.404 571.006L251.844 570.357C250.584 569.939 249.836 568.927 249.842 567.914V567.188H249.005V567.914C249 568.674 248.516 569.664 247.58 570.253C246.645 569.713 246.183 568.789 246.188 567.914V567.188H245.352V567.914C245.347 568.85 244.598 569.911 243.36 570.357ZM260.163 561.334H259.305V571.138H260.163V565.934H261.802V565.207H260.163V561.334ZM253.022 568.685H253.792C255.651 568.685 256.933 568.63 258.468 568.354L258.358 567.606C256.9 567.876 255.651 567.953 253.88 567.958V563.007H257.588V562.292H253.022V568.685ZM263.365 570.291C263.756 570.286 264.075 569.967 264.069 569.576C264.075 569.191 263.756 568.872 263.365 568.872C262.98 568.872 262.65 569.191 262.661 569.576C262.65 569.967 262.98 570.286 263.365 570.291ZM265.522 569.576C265.511 569.967 265.841 570.286 266.226 570.291C266.616 570.286 266.936 569.967 266.93 569.576C266.936 569.191 266.616 568.872 266.226 568.872C265.841 568.872 265.511 569.191 265.522 569.576ZM268.382 569.576C268.371 569.967 268.702 570.286 269.087 570.291C269.477 570.286 269.796 569.967 269.791 569.576C269.796 569.191 269.477 568.872 269.087 568.872C268.702 568.872 268.371 569.191 268.382 569.576ZM29.353 582.136H25.2707V579.748H28.2416V575.16H21.4525V579.748H24.4234V582.136H20.3961V582.862H29.353V582.136ZM22.2997 579.055V575.853H27.4054V579.055H22.2997ZM38.1998 574.334H37.3415V584.116H38.1998V574.334ZM30.7724 581.597H31.5647C33.1327 581.597 34.6787 581.476 36.4173 581.112L36.2962 580.375C34.6567 580.722 33.1162 580.837 31.6197 580.848V575.303H30.7724V581.597ZM47.982 574.334H47.1237V578.031H45.055V578.747H47.1237V584.138H47.982V574.334ZM40.3235 581.773H41.0717C42.9643 581.773 44.1582 581.707 45.5832 581.476L45.4842 580.76C44.1417 581.002 42.9864 581.052 41.1928 581.057V578.692H44.4608V577.987H41.1928V575.952H44.89V575.237H40.3235V581.773ZM57.6871 574.345H56.8288V580.364H57.6871V574.345ZM50.1056 575.688H53.7148V576.964H50.1276V579.759H50.9199C52.7245 579.753 54.0614 579.709 55.7064 579.44L55.6074 578.725C54.0174 578.983 52.7135 579.033 50.9639 579.033V577.646H54.5731V574.961H50.1056V575.688ZM51.14 582.334C51.1345 583.451 52.3834 584.094 54.441 584.094C56.4987 584.094 57.7531 583.451 57.7531 582.334C57.7531 581.211 56.4987 580.562 54.441 580.562C52.3834 580.562 51.1345 581.211 51.14 582.334ZM51.9872 582.334C51.9927 581.663 52.917 581.255 54.441 581.255C55.9595 581.255 56.8893 581.663 56.8838 582.334C56.8893 583.005 55.9595 583.407 54.441 583.401C52.917 583.407 51.9927 583.005 51.9872 582.334ZM69.7689 574.334H68.8996V584.116H69.7689V579.231H71.3314V578.505H69.7689V574.334ZM62.0555 581.509L62.1985 582.246C63.9151 582.246 66.2258 582.224 68.3605 581.861L68.3055 581.2C67.4527 581.321 66.5284 581.399 65.6206 581.443V580.397C66.754 580.265 67.5077 579.599 67.5132 578.626C67.5077 577.52 66.5559 576.805 65.1915 576.81C63.805 576.805 62.8697 577.52 62.8807 578.626C62.8697 579.594 63.6125 580.265 64.7513 580.397V581.476C63.783 581.503 62.8532 581.509 62.0555 581.509ZM62.2315 576.238H68.1294V575.534H65.6206V574.356H64.7513V575.534H62.2315V576.238ZM63.684 578.626C63.6895 577.943 64.2837 577.481 65.1915 577.481C66.0827 577.481 66.6824 577.943 66.6879 578.626C66.6824 579.302 66.0827 579.748 65.1915 579.737C64.2837 579.748 63.6895 579.302 63.684 578.626ZM76.8662 575.193H72.3768V579.759H76.8662V578.879H79.1549V581.487H80.0242V574.345H79.1549V576.062H76.8662V575.193ZM73.235 579.066V575.908H76.0189V579.066H73.235ZM73.6972 583.907H80.2443V583.181H74.5665V580.848H73.6972V583.907ZM76.8662 578.163V576.788H79.1549V578.163H76.8662ZM86.1092 574.51C83.925 574.51 82.643 575.11 82.643 576.194C82.643 577.305 83.925 577.905 86.1092 577.91C88.2824 577.905 89.5588 577.305 89.5643 576.194C89.5588 575.11 88.2824 574.51 86.1092 574.51ZM81.6527 579.275H90.5656V578.571H81.6527V579.275ZM82.7311 580.782H88.5739V581.674H82.7531V584.006H89.7183V583.324H83.6114V582.312H89.4212V580.122H82.7311V580.782ZM83.5453 576.194C83.5343 575.55 84.4861 575.165 86.1092 575.16C87.7322 575.165 88.6785 575.55 88.684 576.194C88.6785 576.876 87.7322 577.25 86.1092 577.25C84.4861 577.25 83.5343 576.876 83.5453 576.194ZM103.176 582.147H99.0933V580.034H102.075V575.027H101.228V576.799H96.1444V575.027H95.2751V580.034H98.246V582.147H94.2188V582.862H103.176V582.147ZM96.1444 579.33V577.503H101.228V579.33H96.1444ZM112.022 574.334H111.164V584.116H112.022V574.334ZM104.595 581.597H105.387C106.955 581.597 108.501 581.476 110.24 581.112L110.119 580.375C108.479 580.722 106.939 580.837 105.442 580.848V575.303H104.595V581.597ZM119.142 583.346C120.281 583.352 120.671 582.642 120.88 582.312H120.979V583.225H121.904V575.259H120.946V578.196H120.88C120.677 577.877 120.314 577.173 119.153 577.173C117.651 577.173 116.6 578.362 116.6 580.254C116.6 582.152 117.651 583.352 119.142 583.346ZM117.557 580.232C117.557 578.983 118.124 578.02 119.274 578.02C120.385 578.02 120.974 578.906 120.979 580.232C120.974 581.575 120.369 582.499 119.274 582.499C118.14 582.499 117.557 581.503 117.557 580.232ZM123.543 583.225H124.489V577.25H123.543V583.225ZM123.356 575.633C123.351 575.979 123.653 576.26 124.016 576.26C124.379 576.26 124.682 575.979 124.687 575.633C124.682 575.281 124.379 575 124.016 575.005C123.653 575 123.351 575.281 123.356 575.633ZM129.32 578.802H130.244C130.123 577.833 129.347 577.173 128.11 577.173C126.795 577.173 125.898 577.91 125.898 578.934C125.898 579.731 126.454 580.298 127.493 580.54L128.396 580.749C129.072 580.909 129.375 581.184 129.375 581.608C129.375 582.169 128.841 582.526 127.989 582.521C127.235 582.526 126.811 582.246 126.701 581.663H125.711C125.87 582.752 126.668 583.352 128.011 583.346C129.507 583.352 130.349 582.587 130.354 581.553C130.349 580.722 129.826 580.188 128.759 579.935L127.868 579.715C127.169 579.544 126.85 579.275 126.844 578.879C126.85 578.378 127.372 577.982 128.11 577.976C128.808 577.982 129.188 578.307 129.32 578.802ZM131.587 583.225H132.533V580.997L133.166 580.408L135.383 583.225H136.582L133.875 579.809L136.395 577.25H135.229L132.643 579.891H132.533V575.259H131.587V583.225ZM144.615 574.334H143.757V584.116H144.615V579.044H146.199V578.318H144.615V574.334ZM137.11 581.575L137.595 582.257C140.78 580.683 142.079 578.158 142.084 575.391H137.562V576.117H141.209C141.011 578.433 139.636 580.32 137.11 581.575ZM152.075 575.005H149.864V575.721H151.256C151.245 576.293 151.189 577.129 150.865 578.274L151.679 578.406C152.07 576.992 152.07 575.957 152.075 575.402V575.005ZM149.544 579.231L149.632 579.968C151.393 579.963 153.726 579.908 155.783 579.572L155.717 578.956C154.903 579.055 154.023 579.121 153.143 579.165V577.305H152.339V579.198C151.344 579.231 150.375 579.236 149.544 579.231ZM150.7 581.575H156.378V584.061H157.258V580.87H150.7V581.575ZM152.625 575.721H154.32C154.32 576.337 154.292 577.146 154.023 578.274L154.848 578.373C155.145 577.135 155.145 576.188 155.145 575.556V575.005H152.625V575.721ZM156.378 580.419H157.258V577.855H158.622V577.129H157.258V574.334H156.378V580.419ZM162.683 576.656V576.381H164.894V575.677H162.705V574.4H161.835V575.677H159.624V576.381H161.835V576.656C161.83 578.02 160.818 579.22 159.36 579.682L159.811 580.386C160.955 579.979 161.846 579.154 162.276 578.086C162.699 579.071 163.563 579.836 164.674 580.21L165.114 579.506C163.667 579.055 162.688 577.91 162.683 576.656ZM160.878 583.907H167.447V583.181H161.725V580.947H160.878V583.907ZM166.138 581.575H166.996V578.108H168.471V577.382H166.996V574.334H166.138V581.575ZM177.185 574.334H176.327V578.274H173.994V578.989H176.327V584.116H177.185V574.334ZM169.098 581.564L169.571 582.257C172.839 580.634 174.011 578.174 174.016 575.402H169.527V576.106H173.147C172.971 578.395 171.744 580.282 169.098 581.564ZM189.3 574.334H188.442V579.572H189.3V577.338H190.775V576.623H189.3V574.334ZM181.686 579.055L182.049 579.759C184.932 579.099 186.665 577.476 186.67 575.027H182.104V575.732H185.713C185.57 577.272 184.173 578.505 181.686 579.055ZM183.105 583.984H189.575V583.313H183.974V582.301H189.234V581.641H183.974V580.672H189.344V580.012H183.105V583.984ZM200.304 579.495H191.391V580.199H200.304V579.495ZM192.381 576.623C192.381 577.839 193.724 578.571 195.847 578.571C197.949 578.571 199.297 577.839 199.302 576.623C199.297 575.396 197.949 574.675 195.847 574.686C193.724 574.675 192.381 575.396 192.381 576.623ZM192.546 583.907H199.313V583.181H193.415V581.057H192.546V583.907ZM193.272 576.623C193.267 575.858 194.268 575.38 195.847 575.38C197.415 575.38 198.417 575.858 198.422 576.623C198.417 577.399 197.415 577.866 195.847 577.866C194.268 577.866 193.267 577.399 193.272 576.623ZM209.503 574.334H208.666V584.116H209.503V574.334ZM201.514 581.762H202.13C203.704 581.756 204.661 581.707 205.794 581.476L205.706 580.738C204.656 580.975 203.764 581.024 202.35 581.035V576.26H205.2V575.545H201.514V581.762ZM204.54 578.802H206.675V583.61H207.5V574.576H206.675V578.075H204.54V578.802ZM221.761 574.334H220.891V584.138H221.761V574.334ZM214.058 578.505C214.064 580.59 215.098 581.91 216.556 581.905C218.008 581.91 219.059 580.59 219.054 578.505C219.059 576.425 218.008 575.099 216.556 575.093C215.098 575.099 214.064 576.425 214.058 578.505ZM214.894 578.505C214.894 576.915 215.577 575.869 216.556 575.864C217.541 575.869 218.217 576.915 218.217 578.505C218.217 580.095 217.541 581.14 216.556 581.134C215.577 581.14 214.894 580.095 214.894 578.505ZM231.543 574.334H230.673V576.7H228.506V577.415H230.673V579.363H231.543V574.334ZM223.587 578.857L223.895 579.572C226.712 578.862 228.429 577.25 228.429 574.818H224.093V575.534H227.51C227.339 577.107 225.931 578.29 223.587 578.857ZM225.205 580.485H230.673V581.509H225.227V584.028H231.873V583.313H226.085V582.169H231.543V579.781H225.205V580.485ZM238.629 575.093C237.182 575.099 236.17 576.425 236.175 578.505C236.17 580.59 237.182 581.91 238.629 581.905C239.993 581.91 240.973 580.711 241.066 578.791H243.25V584.138H244.109V574.334H243.25V578.075H241.055C240.923 576.243 239.96 575.099 238.629 575.093ZM237 578.505C237.006 576.915 237.666 575.869 238.629 575.864C239.586 575.869 240.257 576.915 240.257 578.505C240.257 580.095 239.586 581.14 238.629 581.134C237.666 581.14 237.006 580.095 237 578.505ZM254.122 580.177H251.052V579.231H250.194V580.177H247.113V580.848H254.122V580.177ZM246.012 578.835H246.43C247.03 578.846 247.762 578.835 248.686 578.637L248.598 577.932C247.949 578.081 247.355 578.13 246.86 578.147V575.523H248.466V574.829H246.012V578.835ZM247.828 582.708C247.817 583.621 248.851 584.105 250.601 584.116C252.361 584.105 253.385 583.621 253.385 582.708C253.385 581.811 252.361 581.31 250.601 581.299C248.851 581.31 247.817 581.811 247.828 582.708ZM248.73 582.708C248.725 582.213 249.429 581.932 250.601 581.927C251.778 581.932 252.471 582.213 252.471 582.708C252.471 583.209 251.778 583.489 250.601 583.478C249.429 583.489 248.725 583.209 248.73 582.708ZM249.016 578.835H249.5C250.579 578.846 251.311 578.818 252.207 578.626L252.13 577.921C251.371 578.097 250.722 578.141 249.875 578.152V575.523H251.745V574.829H249.016V578.835ZM251.283 577.063H253.088V579.55H253.935V574.334H253.088V576.381H251.283V577.063ZM263.849 574.334H263.024V584.116H263.849V574.334ZM255.486 581.377L255.993 582.004C257.357 581.2 258.303 580.194 258.892 579.055H260.966V583.621H261.791V574.598H260.966V578.351H259.211C259.547 577.481 259.701 576.551 259.701 575.589H255.904V576.304H258.842C258.677 578.351 257.61 580.117 255.486 581.377ZM275.931 576.689H270.099V574.499H269.252V577.404H275.931V576.689ZM268.03 579.077H276.987V578.373H268.03V579.077ZM269.153 580.639H274.985V581.586H269.175V583.984H276.184V583.291H270.044V582.246H275.832V579.957H269.153V580.639ZM28.4727 587.334H27.6144V597.138H28.4727V587.334ZM20.9463 588.963H24.6325V591.02H20.9683V594.762H21.7826C23.4716 594.762 24.9571 594.69 26.7562 594.41L26.6681 593.683C24.9186 593.964 23.4716 594.041 21.8486 594.035V591.725H25.5018V588.248H20.9463V588.963ZM39.2892 591.241H37.7047V587.334H36.8464V597.116H37.7047V591.967H39.2892V591.241ZM30.5414 594.63H31.3226C32.8026 594.63 34.3211 594.531 36.0101 594.189L35.9001 593.452C34.2881 593.793 32.8301 593.903 31.3996 593.903V588.303H30.5414V594.63ZM41.4349 593.925V593.98H42.3812V593.925C42.4032 592.974 42.6507 592.55 43.3385 592.132C44.0207 591.714 44.4278 591.114 44.4278 590.25C44.4278 589.034 43.531 588.149 42.1501 588.149C40.8902 588.149 39.8834 588.924 39.8283 590.261H40.8297C40.8902 589.353 41.5229 588.979 42.1501 588.985C42.8763 588.979 43.4595 589.458 43.4595 590.206C43.4595 590.822 43.1129 591.263 42.6563 591.538C41.897 592 41.4459 592.451 41.4349 593.925ZM41.2368 595.576C41.2258 595.967 41.5559 596.286 41.941 596.291C42.3316 596.286 42.6507 595.967 42.6452 595.576C42.6507 595.191 42.3316 594.872 41.941 594.872C41.5559 594.872 41.2258 595.191 41.2368 595.576ZM56.4987 588.457H52.9776V587.279H52.1303V588.457H48.5651V589.172H56.4987V588.457ZM48.103 594.388H52.1303V597.138H52.9776V594.388H57.0599V593.672H48.103V594.388ZM49.3684 591.373C49.3574 592.407 50.5568 592.99 52.5594 593.001C54.5456 592.99 55.7449 592.407 55.7504 591.373C55.7449 590.316 54.5456 589.733 52.5594 589.733C50.5568 589.733 49.3574 590.316 49.3684 591.373ZM50.2597 591.373C50.2487 590.756 51.1015 590.399 52.5594 590.393C54.0009 590.399 54.8482 590.756 54.8592 591.373C54.8482 591.978 54.0009 592.335 52.5594 592.33C51.1015 592.335 50.2487 591.978 50.2597 591.373ZM58.8754 596.291C59.2661 596.286 59.5852 595.967 59.5797 595.576C59.5852 595.191 59.2661 594.872 58.8754 594.872C58.4903 594.872 58.1602 595.191 58.1712 595.576C58.1602 595.967 58.4903 596.286 58.8754 596.291ZM61.0321 595.576C61.0211 595.967 61.3512 596.286 61.7364 596.291C62.127 596.286 62.4461 595.967 62.4406 595.576C62.4461 595.191 62.127 594.872 61.7364 594.872C61.3512 594.872 61.0211 595.191 61.0321 595.576ZM63.893 595.576C63.882 595.967 64.2122 596.286 64.5973 596.291C64.9879 596.286 65.307 595.967 65.3015 595.576C65.307 595.191 64.9879 594.872 64.5973 594.872C64.2122 594.872 63.882 595.191 63.893 595.576Z" fill="#ECECF8"/>
<defs>
<filter id="filter0_f_17_3805" x="164.054" y="126.713" width="20.5642" height="22.5344" filterUnits="userSpaceOnUse" color-interpolation-filters="sRGB">
<feFlood flood-opacity="0" result="BackgroundImageFix"/>
<feBlend mode="normal" in="SourceGraphic" in2="BackgroundImageFix" result="shape"/>
<feGaussianBlur stdDeviation="1.76056" result="effect1_foregroundBlur_17_3805"/>
</filter>
<linearGradient id="paint0_linear_17_3805" x1="150" y1="46" x2="150" y2="243.183" gradientUnits="userSpaceOnUse">
<stop stop-color="#CDEFE3"/>
<stop offset="1" stop-color="#8CB2A5" stop-opacity="0"/>
</linearGradient>
</defs>
</svg>
