<svg width="405" height="342" viewBox="0 0 405 342" fill="none" xmlns="http://www.w3.org/2000/svg">
<g clip-path="url(#clip0_518_4557)">
<rect width="405" height="342" rx="20" fill="#131316" fill-opacity="0.6"/>
<rect x="20" y="20" width="180" height="200" rx="8.4507" fill="black"/>
<path d="M140.724 86.0886C138.559 96.1951 135.96 117.852 142.89 123.627L147.582 127.959C143.793 127.417 136.654 125.98 135.47 124.225C135.726 127.761 136.276 141.61 140.724 141.314C138.438 141.554 133.575 140.303 132.42 133.373C132.179 136.381 132.058 142.83 133.503 144.562C135.309 146.728 126.283 139.509 125.922 135.899C125.633 133.012 127.005 98.8421 127.727 82.1182L140.724 86.0886Z" fill="#140610"/>
<path d="M74.7274 96.1029C78.2579 106.204 85.2979 128.912 74.0005 134.684L68.5005 138.184C74.4311 137.664 81.7018 136.144 83.2673 134.437C82.8385 138.288 81.8372 151.586 74.7274 151.296C78.4553 151.536 86.3819 150.286 88.2648 143.359C88.658 146.366 88.8554 152.811 86.4996 154.542C83.5548 156.707 98.2693 149.492 98.8577 145.885C99.3285 142.999 97.0925 108.849 95.9157 92.1348L74.7274 96.1029Z" fill="#140610"/>
<path d="M66.797 157.819C61.3106 141.937 81.5958 136.523 92.4243 135.801C113.358 120.28 145.205 149.532 149.455 157.82C156.674 171.899 139.349 192.111 127.076 200.774C114.804 209.437 73.655 177.671 66.797 157.819Z" fill="#202F72"/>
<path d="M93.4316 161.257C94.4704 158.348 91.8083 125.038 90.5098 113.159C93.6263 117.523 115.291 132.044 125.571 134.347C125.463 142.105 125.831 158.348 128.168 161.257C131.09 164.893 122.649 180.166 118.429 184.166C114.209 188.167 92.133 164.893 93.4316 161.257Z" fill="url(#paint0_linear_518_4557)"/>
<mask id="mask0_518_4557" style="mask-type:alpha" maskUnits="userSpaceOnUse" x="89" y="113" width="40" height="72">
<path d="M93.3648 161.376C94.4056 158.482 91.0881 124.979 89.7871 113.16C92.9095 117.502 115.265 132.311 125.564 134.603C125.456 142.321 125.825 158.482 128.166 161.376C131.094 164.994 122.637 180.19 118.409 184.17C114.181 188.15 92.0638 164.994 93.3648 161.376Z" fill="#EB8682"/>
</mask>
<g mask="url(#mask0_518_4557)">
<path d="M131.656 151.517C114.331 163.067 99.8929 138.427 89.0645 113.16L148.26 145.019C144.65 146.584 135.684 148.832 131.656 151.517Z" fill="url(#paint1_linear_518_4557)"/>
</g>
<path d="M82.0015 115.184C84.3286 99.9471 87.7968 93.2233 87.7968 93.2233C87.7968 93.2233 83.8302 89.86 80.3361 93.1171C76.842 96.3742 78.1141 116.233 77.0163 120.414C75.5013 126.184 73.2204 126.995 69.5014 129.684C74.5014 127.684 80.374 125.841 82.0015 115.184Z" fill="url(#paint2_linear_518_4557)"/>
<path d="M78.3587 106.843C77.6011 91.4484 79.659 84.1681 79.659 84.1681C79.659 84.1681 75.1015 81.6632 72.327 85.5516C69.5525 89.44 75.2427 103.867 75.0005 108.183C74.6663 114.139 74.1086 119.306 71.0004 122.683C75.5013 119.726 78.8886 117.611 78.3587 106.843Z" fill="url(#paint3_linear_518_4557)"/>
<path d="M141.68 46.858C139.881 44.895 130.18 44.7384 125.555 44.9055C123.192 47.4066 118.416 53.4208 118.216 57.4688C117.967 62.5288 133.081 57.8144 140.248 58.6822C145.971 59.3752 144.58 101.741 144.217 112.818L144.215 112.877C145.286 108.037 148.151 96.3968 148.826 92.8072C149.847 87.3804 154.666 71.6027 153.265 68.1608C151.864 64.7188 143.928 49.3117 141.68 46.858Z" fill="#140610"/>
<path d="M98.0562 94.7537C104.692 87.9946 110.758 75.931 112.962 70.744C119.717 73.0164 131.927 74.4948 126.722 62.2299C120.216 46.8987 82.2376 51.8329 70.501 61.6829C61.1116 69.5628 74.423 100.248 80.5119 108.015L94.501 118.683C95.0329 117.293 96.3388 116.143 95.9301 112.312C95.4192 107.523 89.7614 103.202 98.0562 94.7537Z" fill="#140610"/>
<path d="M145.371 88.9454C146.178 84.6802 144.971 67.4314 143.25 58.6182C130.25 42.8642 111.001 54.7133 101.033 58.96C93.0585 62.3574 90.6051 83.027 90.3752 92.9372C88.9561 92.6441 84.8797 91.2288 79.9836 91.6789C74.5003 92.1829 75.8126 92.2214 74 98.1829C72.1874 104.144 80.778 112.136 83.2541 115.708C85.235 118.566 91.0436 119.439 93.7003 119.518C94.6671 122.544 93.8043 120.522 96 125.183C99.3646 132.325 111.42 139.098 118.5 140.683C125.58 142.267 130.659 144.318 136.347 133.372C137.848 130.485 140.769 128.261 142.122 123.988C142.859 121.661 145.789 110.548 146.454 101.278C146.848 95.7802 144.995 90.9303 145.371 88.9454Z" fill="url(#paint4_linear_518_4557)"/>
<g filter="url(#filter0_f_518_4557)">
<ellipse cx="132.817" cy="102.769" rx="7.05584" ry="10.6185" transform="rotate(-24.4392 132.817 102.769)" fill="#E36A6F" fill-opacity="0.3"/>
</g>
<path d="M118.57 90.5275L122.528 94.4723C122.479 97.3695 119.708 100.872 115.369 100.726C111.031 100.58 107.41 96.9035 106.141 95.0832C108.441 92.4121 115.386 90.9331 118.57 90.5275Z" fill="#D9D9D9" stroke="black" stroke-width="0.721897" stroke-linecap="round"/>
<mask id="mask1_518_4557" style="mask-type:alpha" maskUnits="userSpaceOnUse" x="105" y="90" width="18" height="12">
<path d="M118.57 90.5285L122.528 94.4733C122.479 97.3705 119.708 100.873 115.369 100.727C111.031 100.581 107.41 96.9044 106.141 95.0841C108.441 92.4131 115.386 90.9341 118.57 90.5285Z" fill="#D9D9D9" stroke="black" stroke-width="0.721897" stroke-linecap="round"/>
</mask>
<g mask="url(#mask1_518_4557)">
<path d="M119.001 99.6841C115.266 99.3089 113.603 93.0517 113.868 90.418C114.084 88.2632 118.825 88.0139 121.698 88.3026C123.997 88.5335 124.569 93.4278 124.568 95.8462C123.849 96.9832 122.737 100.059 119.001 99.6841Z" fill="url(#paint5_radial_518_4557)"/>
</g>
<ellipse cx="115.362" cy="93.3431" rx="1.44379" ry="0.721897" transform="rotate(5.73654 115.362 93.3431)" fill="white"/>
<path d="M141.876 100.076C145.259 98.8647 145.336 95.4261 145.731 93.3995C140.978 89.9928 136.391 91.1211 133.938 95.744C134.945 98.4575 138.493 101.287 141.876 100.076Z" fill="#D9D9D9" stroke="black" stroke-width="0.721897" stroke-linecap="round"/>
<mask id="mask2_518_4557" style="mask-type:alpha" maskUnits="userSpaceOnUse" x="132" y="91" width="15" height="11">
<path d="M134.375 92.1912L133.066 94.367C134.073 97.0805 136.934 102.205 140.316 100.993C143.699 99.7823 145.334 95.4264 145.729 93.3999C143.017 91.4563 137.03 91.7843 134.375 92.1912Z" fill="#D9D9D9" stroke="black" stroke-width="0.721897" stroke-linecap="round"/>
</mask>
<g mask="url(#mask2_518_4557)">
<path d="M147.076 99.7606C149.905 98.4828 148.433 93.3388 147.343 90.9265C146.451 88.9528 142.618 89.8921 140.442 90.875C138.701 91.6614 138.918 96.4274 140.694 98.6826C142.47 100.938 144.247 101.038 147.076 99.7606Z" fill="url(#paint6_radial_518_4557)"/>
</g>
<path d="M122.201 84.4951L125.742 82.2796L114.633 80.9345L107.588 82.0646L100.507 86.4957C102.378 86.0612 106.565 85.1138 108.348 84.8009C110.131 84.4879 118.326 84.4666 122.201 84.4951Z" fill="#101010"/>
<path d="M136.02 84.6967L134.299 82.373L141.096 83.1959L145.072 85.2639L145.831 87.7688C143.358 86.2034 138.932 85.4964 136.02 84.6967Z" fill="#101010"/>
<path d="M103.002 84.6834C109.637 77.9243 122.753 57.921 124.957 52.734C131.712 55.0064 135.98 55.983 130.775 43.718C124.269 28.3869 85.7381 43.8334 74.0015 53.6833C64.6121 61.5633 73.8295 83.6039 79.9184 91.3705L90.9807 107.655C91.8879 112.983 92.816 117.288 94.2292 117.401C97.1225 117.632 94.9511 109.821 96.3949 106.211C98.1834 101.74 94.7069 93.1322 103.002 84.6834Z" fill="url(#paint7_linear_518_4557)"/>
<path d="M135.265 121.823C128.886 122.241 120.462 121.64 116.499 121.1C118.046 123.743 123.644 125.37 128.807 125.603C132.937 125.79 134.782 123.189 135.265 121.823Z" fill="#E79795"/>
<path d="M135.627 121.822C130.256 121.908 120.468 122.543 116.499 121.1" stroke="black" stroke-width="0.721897" stroke-linecap="round"/>
<path d="M44.4193 182.823C45.2856 180.513 68.9638 164.084 85.5674 157.827L104.337 179.478C108.307 182.968 120.579 193.916 127.076 191.029C130.254 189.617 135.138 169.733 137.905 165.762C146.447 169.011 158.84 178.275 166.059 180.296C173.278 182.317 180.566 211.097 180.566 220H39.4355C39.4355 212.421 43.553 185.133 44.4193 182.823Z" fill="url(#paint8_linear_518_4557)"/>
<path d="M140.82 59.8417C141.341 55.5418 136.773 51.2315 134.423 49.6139C138.527 45.7479 141.818 51.6001 145.369 55.3024C146.874 56.8706 148.99 74.2283 150.423 85.6313C151.697 95.764 158.005 96.723 156.158 98.324C156.709 97.597 149.381 98.3239 146.501 87.6831C144.105 78.8278 140.584 61.7948 140.82 59.8417Z" fill="#140610"/>
<path d="M128.501 53.1829C129.022 48.8829 127.851 45.8005 125.502 44.1829C129.606 40.3168 133.282 44.556 136.833 48.2582C138.337 49.8265 133.474 65.8178 134.907 77.2209C136.181 87.3536 145.579 88.3918 143.732 89.9929C144.283 89.2658 134.881 89.3237 132.001 78.6829C129.605 69.8276 128.265 55.136 128.501 53.1829Z" fill="url(#paint9_linear_518_4557)"/>
<path d="M135.39 53.0985C132.478 49.1792 130.44 45.8078 128.072 44.3496C132.112 41.0051 145.452 46.1084 149.05 49.4195C150.574 50.8221 149.264 62.4492 147.99 72.5975C143.517 85.3437 154.125 92.565 152.304 93.9478C152.843 93.3157 139.396 87.4617 136.367 78.0513C133.847 70.2199 136.481 54.5678 135.39 53.0985Z" fill="url(#paint10_linear_518_4557)"/>
<path d="M84.742 99.59C84.9939 99.9113 86.5341 103.806 87.2727 105.714C87.8287 107.137 86.6095 108.178 85.8929 108.092C85.1762 108.005 84.6443 109.395 84.8725 110.513C85.1006 111.632 85.8719 114.27 84.3518 114.813C82.8317 115.356 76.9791 106.649 76.0777 105.085C75.1763 103.522 75.6969 99.2218 76.6739 97.1586C77.6509 95.0954 78.9975 95.9857 80.5176 95.4426C82.0377 94.8995 84.427 99.1882 84.742 99.59Z" fill="#D36266"/>
<path d="M86.772 103.836C85.6713 100.915 82.8076 95.1385 80.1582 95.3994C77.5088 95.6603 76.463 96.8906 76.2713 97.4732" stroke="#793033" stroke-width="0.721897" stroke-linecap="round"/>
<ellipse cx="140.603" cy="93.4493" rx="1.02531" ry="0.721897" transform="rotate(6.9042 140.603 93.4493)" fill="white"/>
<path d="M129.127 60.6914C126.32 47.8441 129.474 45.6261 131.834 46.1542C129.186 44.0163 126.602 43.4296 124.333 47.1543C122.065 50.879 126.419 63.4939 126.828 67.6839C127.885 78.5242 118.502 85.6561 112 91.0705C121.75 88.5437 132.636 76.7505 129.127 60.6914Z" fill="#2E0822"/>
<path d="M120.875 62.7897C123.495 47.5745 126.206 42.424 121.812 42.347C127.191 40.9277 127.707 40.4017 130.703 44.5995C133.699 48.7972 126.951 67.6103 125 71.5904C123.824 73.9905 124.827 86.8059 128.291 90.5351C121.119 89.2919 119.042 73.4316 120.875 62.7897Z" fill="url(#paint11_linear_518_4557)"/>
<path d="M116.059 75.3238C120.523 60.5709 120.715 54.9191 123.925 56.4341C120.628 53.206 120.475 52.5425 116.554 55.2714C112.634 58.0003 109.652 77.507 109.398 81.8223C109.246 84.4244 100.564 92.0483 96.501 94.1833C102.206 95.6419 112.938 85.6423 116.059 75.3238Z" fill="url(#paint12_linear_518_4557)"/>
<path d="M133.463 92.5859C133.463 96.9173 135.342 102.078 138.501 104.184C141.501 106.184 140.107 109.852 139.001 110.684C137.896 111.516 134.501 114.184 134.501 114.184" stroke="black" stroke-width="0.721897" stroke-linecap="round"/>
<ellipse cx="136.825" cy="105.948" rx="0.784459" ry="0.721897" transform="rotate(3.19743 136.825 105.948)" fill="#FFDCD6"/>
<path d="M132.742 113.16C132.02 112.8 130.576 112.438 128.41 113.16" stroke="black" stroke-width="0.721897" stroke-linecap="round"/>
<path d="M127.699 96.2116C126.726 91.79 120.789 90.2182 109.788 91.5747C104.077 92.279 103.923 101.977 111.287 105.075C119.755 108.637 129.77 105.628 127.699 96.2116ZM127.699 96.2116C130.569 94.0044 132.593 94.6205 134.001 95.1838M134.001 95.1838C135.879 92.8364 141.225 88.2068 146.288 91.5748C151.509 95.048 147.288 103.075 142.288 103.075C138.612 103.075 135.395 102.376 134.001 95.1838Z" stroke="#28111B" stroke-width="1.40845"/>
<rect x="220.352" y="20.3521" width="121.197" height="18.9296" rx="9.46479" fill="#2E075F"/>
<rect x="220.352" y="20.3521" width="121.197" height="18.9296" rx="9.46479" stroke="#944AF2" stroke-width="0.704225"/>
<path d="M233.771 27.7588C233.701 27.085 233.168 26.6924 232.307 26.6924C231.416 26.6924 230.918 27.1025 230.912 27.665C230.906 28.2803 231.539 28.5557 232.271 28.7197L233.033 28.9072C234.486 29.2412 235.57 29.9795 235.576 31.3916C235.57 32.9443 234.363 33.9404 232.295 33.9346C230.244 33.9404 228.938 32.9912 228.885 31.1689H230.596C230.654 32.0244 231.334 32.458 232.271 32.458C233.197 32.458 233.795 32.0244 233.795 31.3916C233.795 30.8115 233.268 30.542 232.342 30.3135L231.416 30.0908C229.986 29.7393 229.107 29.0244 229.107 27.7822C229.102 26.2412 230.461 25.2158 232.318 25.2158C234.199 25.2158 235.436 26.2588 235.459 27.7588H233.771ZM239.549 33.9463C237.627 33.9404 236.426 32.6221 236.432 30.6533C236.426 28.6904 237.627 27.3721 239.549 27.3721C241.477 27.3721 242.672 28.6904 242.678 30.6533C242.672 32.6221 241.477 33.9404 239.549 33.9463ZM238.189 30.6533C238.189 31.7666 238.652 32.5928 239.561 32.5986C240.445 32.5928 240.914 31.7666 240.908 30.6533C240.914 29.5342 240.445 28.6963 239.561 28.6963C238.652 28.6963 238.189 29.5342 238.189 30.6533ZM247.154 27.4541V28.7549H245.889V33.8174H244.154V28.7549H243.252V27.4541H244.154V26.9736C244.154 25.6318 244.963 24.9346 246.24 24.9346C246.633 24.9346 246.967 24.9697 247.271 25.04V26.3525C247.02 26.3291 246.838 26.3232 246.744 26.3174C246.188 26.3232 245.889 26.5342 245.889 27.0674V27.4541H247.154ZM251.525 27.4541V28.7549H250.33V31.8604C250.324 32.3701 250.576 32.4932 250.928 32.5049C251.104 32.5049 251.408 32.4873 251.619 32.4697V33.8408C251.432 33.8701 251.121 33.9053 250.693 33.8994C249.439 33.9053 248.584 33.3428 248.596 32.1064V28.7549H247.717V27.4541H248.596V25.9307H250.33V27.4541H251.525ZM253.869 33.8174L252.135 27.4541H253.893L254.889 31.7549H254.947L255.99 27.4541H257.713L258.768 31.7314H258.826L259.811 27.4541H261.568L259.822 33.8174H257.994L256.893 29.7744H256.811L255.709 33.8174H253.869ZM262.143 32.0361C262.148 30.6182 263.285 30.1553 264.51 30.0791C264.967 30.0498 265.822 30.0088 266.092 29.9971V29.4814C266.086 28.9482 265.723 28.6436 265.072 28.6377C264.48 28.6436 264.111 28.9072 264.018 29.3408H262.365C262.471 28.2393 263.432 27.3721 265.119 27.3721C266.508 27.3721 267.82 27.9932 267.814 29.5283V33.8174H266.174V32.9385H266.127C265.816 33.5244 265.207 33.9404 264.264 33.9346C263.045 33.9404 262.148 33.2959 262.143 32.0361ZM263.807 31.9893C263.807 32.4756 264.199 32.7334 264.756 32.7393C265.547 32.7334 266.098 32.2178 266.092 31.5439V31.0811C265.828 31.0928 265.084 31.1338 264.791 31.1572C264.188 31.21 263.807 31.4971 263.807 31.9893ZM269.139 33.8174V27.4541H270.814V28.5557H270.885C271.113 27.7764 271.705 27.3604 272.42 27.3604C272.596 27.3604 272.818 27.3838 272.971 27.4189V28.9658C272.807 28.9131 272.473 28.8721 272.232 28.8721C271.447 28.8721 270.867 29.417 270.873 30.1963V33.8174H269.139ZM276.498 33.9463C274.547 33.9404 273.352 32.6807 273.357 30.665C273.352 28.7021 274.564 27.3721 276.428 27.3721C278.098 27.3721 279.416 28.4268 279.416 30.5947V31.0869H275.068C275.068 32.0479 275.637 32.6396 276.533 32.6455C277.125 32.6396 277.547 32.3818 277.717 32.001H279.369C279.123 33.1787 278.068 33.9404 276.498 33.9463ZM275.068 29.9971H277.775C277.77 29.2236 277.236 28.667 276.463 28.6729C275.666 28.667 275.104 29.2646 275.068 29.9971ZM283.307 33.8174V25.333H289.002V26.7861H285.064V28.8486H288.709V30.3018H285.064V32.3643H289.014V33.8174H283.307ZM292.072 30.1377V33.8174H290.338V27.4541H291.99V28.5674H292.061C292.348 27.835 293.027 27.3721 293.971 27.3721C295.301 27.3721 296.168 28.2803 296.162 29.7627V33.8174H294.439V30.0674C294.434 29.2822 294.012 28.8135 293.291 28.8135C292.57 28.8135 292.072 29.2998 292.072 30.1377ZM300.369 36.3369C298.611 36.3369 297.527 35.5459 297.428 34.3447H299.139C299.232 34.8545 299.713 35.083 300.404 35.083C301.207 35.083 301.746 34.7373 301.752 33.8525V32.6924H301.67C301.441 33.208 300.879 33.7295 299.854 33.7236C298.418 33.7295 297.264 32.7158 297.264 30.5947C297.264 28.4443 298.447 27.3721 299.854 27.3721C300.92 27.3721 301.436 28.0049 301.67 28.5205H301.74V27.4541H303.463V33.8877C303.457 35.5107 302.18 36.3369 300.369 36.3369ZM299.045 30.6182C299.039 31.7197 299.514 32.417 300.393 32.4229C301.26 32.417 301.752 31.749 301.752 30.6182C301.752 29.4873 301.266 28.7549 300.393 28.7549C299.508 28.7549 299.039 29.5225 299.045 30.6182ZM304.811 33.8174V27.4541H306.545V33.8174H304.811ZM304.729 25.7432C304.729 25.251 305.156 24.8584 305.678 24.8525C306.193 24.8584 306.621 25.251 306.615 25.7432C306.621 26.2236 306.193 26.6221 305.678 26.6221C305.156 26.6221 304.729 26.2236 304.729 25.7432ZM309.627 30.1377V33.8174H307.893V27.4541H309.545V28.5674H309.615C309.902 27.835 310.582 27.3721 311.525 27.3721C312.855 27.3721 313.723 28.2803 313.717 29.7627V33.8174H311.994V30.0674C311.988 29.2822 311.566 28.8135 310.846 28.8135C310.125 28.8135 309.627 29.2998 309.627 30.1377ZM317.947 33.9463C315.996 33.9404 314.801 32.6807 314.807 30.665C314.801 28.7021 316.014 27.3721 317.877 27.3721C319.547 27.3721 320.865 28.4268 320.865 30.5947V31.0869H316.518C316.518 32.0479 317.086 32.6396 317.982 32.6455C318.574 32.6396 318.996 32.3818 319.166 32.001H320.818C320.572 33.1787 319.518 33.9404 317.947 33.9463ZM316.518 29.9971H319.225C319.219 29.2236 318.686 28.667 317.912 28.6729C317.115 28.667 316.553 29.2646 316.518 29.9971ZM324.838 33.9463C322.887 33.9404 321.691 32.6807 321.697 30.665C321.691 28.7021 322.904 27.3721 324.768 27.3721C326.438 27.3721 327.756 28.4268 327.756 30.5947V31.0869H323.408C323.408 32.0479 323.977 32.6396 324.873 32.6455C325.465 32.6396 325.887 32.3818 326.057 32.001H327.709C327.463 33.1787 326.408 33.9404 324.838 33.9463ZM323.408 29.9971H326.115C326.109 29.2236 325.576 28.667 324.803 28.6729C324.006 28.667 323.443 29.2646 323.408 29.9971ZM328.846 33.8174V27.4541H330.521V28.5557H330.592C330.82 27.7764 331.412 27.3604 332.127 27.3604C332.303 27.3604 332.525 27.3838 332.678 27.4189V28.9658C332.514 28.9131 332.18 28.8721 331.939 28.8721C331.154 28.8721 330.574 29.417 330.58 30.1963V33.8174H328.846Z" fill="#ECECF8"/>
<path d="M221.43 74.6338V57.665H224.945V65.1885H225.18L231.344 57.665H235.586L229.258 65.2588L235.656 74.6338H231.438L226.727 67.626L224.945 69.7822V74.6338H221.43ZM236.664 71.0713C236.676 68.2354 238.949 67.3096 241.398 67.1572C242.312 67.0986 244.023 67.0166 244.562 66.9932V65.9619C244.551 64.8955 243.824 64.2861 242.523 64.2744C241.34 64.2861 240.602 64.8135 240.414 65.6807H237.109C237.32 63.4775 239.242 61.7432 242.617 61.7432C245.395 61.7432 248.02 62.9854 248.008 66.0557V74.6338H244.727V72.876H244.633C244.012 74.0479 242.793 74.8799 240.906 74.8682C238.469 74.8799 236.676 73.5908 236.664 71.0713ZM239.992 70.9775C239.992 71.9502 240.777 72.4658 241.891 72.4775C243.473 72.4658 244.574 71.4346 244.562 70.0869V69.1611C244.035 69.1846 242.547 69.2666 241.961 69.3135C240.754 69.4189 239.992 69.9932 239.992 70.9775ZM254.125 67.2744V74.6338H250.656V61.9072H253.961V64.1338H254.102C254.676 62.6689 256.035 61.7432 257.922 61.7432C260.582 61.7432 262.316 63.5596 262.305 66.5244V74.6338H258.859V67.1338C258.848 65.5635 258.004 64.626 256.562 64.626C255.121 64.626 254.125 65.5986 254.125 67.2744ZM270.719 79.6729C267.203 79.6729 265.035 78.0908 264.836 75.6885H268.258C268.445 76.708 269.406 77.165 270.789 77.165C272.395 77.165 273.473 76.4736 273.484 74.7041V72.3838H273.32C272.863 73.415 271.738 74.458 269.688 74.4463C266.816 74.458 264.508 72.4307 264.508 68.1885C264.508 63.8877 266.875 61.7432 269.688 61.7432C271.82 61.7432 272.852 63.0088 273.32 64.04H273.461V61.9072H276.906V74.7744C276.895 78.0205 274.34 79.6729 270.719 79.6729ZM268.07 68.2354C268.059 70.4385 269.008 71.833 270.766 71.8447C272.5 71.833 273.484 70.4971 273.484 68.2354C273.484 65.9736 272.512 64.5088 270.766 64.5088C268.996 64.5088 268.059 66.0439 268.07 68.2354ZM287.5 66.2666V69.0322H279.766V66.2666H287.5ZM290.383 74.6338V61.9072H293.852V74.6338H290.383ZM290.219 58.4854C290.219 57.501 291.074 56.7158 292.117 56.7041C293.148 56.7158 294.004 57.501 293.992 58.4854C294.004 59.4463 293.148 60.2432 292.117 60.2432C291.074 60.2432 290.219 59.4463 290.219 58.4854ZM300.016 57.665V74.6338H296.547V57.665H300.016ZM308.312 74.6338V57.665H311.828V65.1885H312.062L318.227 57.665H322.469L316.141 65.2588L322.539 74.6338H318.32L313.609 67.626L311.828 69.7822V74.6338H308.312ZM324.953 74.6338V61.9072H328.422V74.6338H324.953ZM324.789 58.4854C324.789 57.501 325.645 56.7158 326.688 56.7041C327.719 56.7158 328.574 57.501 328.562 58.4854C328.574 59.4463 327.719 60.2432 326.688 60.2432C325.645 60.2432 324.789 59.4463 324.789 58.4854ZM331.117 74.6338V61.9072H334.422V64.1338H334.562C335.102 62.6455 336.391 61.7432 338.102 61.7432C339.848 61.7432 341.148 62.6689 341.57 64.1338H341.688C342.215 62.6924 343.668 61.7432 345.531 61.7432C347.887 61.7432 349.539 63.3018 349.539 66.0791V74.6338H346.07V66.7588C346.082 65.3057 345.215 64.6025 344.078 64.6025C342.777 64.6025 342.004 65.5049 342.016 66.8525V74.6338H338.641V66.665C338.652 65.4111 337.855 64.6025 336.672 64.6025C335.488 64.6025 334.574 65.5518 334.586 66.9932V74.6338H331.117Z" fill="#ECECF8"/>
<path d="M223.484 107.634L220.25 96.3213H222.812L224.719 104.228H224.812L226.891 96.3213H229.094L231.172 104.243H231.266L233.172 96.3213H235.734L232.5 107.634H230.203L228.047 100.165H227.953L225.781 107.634H223.484ZM239.203 102.728V107.634H236.891V96.3213H239.141V100.634H239.234C239.625 99.6416 240.477 99.04 241.766 99.04C243.539 99.04 244.703 100.235 244.703 102.228V107.634H242.391V102.634C242.391 101.579 241.828 100.962 240.859 100.962C239.883 100.962 239.203 101.61 239.203 102.728ZM246.078 105.259C246.086 103.368 247.602 102.751 249.234 102.649C249.844 102.61 250.984 102.556 251.344 102.54V101.853C251.336 101.142 250.852 100.735 249.984 100.728C249.195 100.735 248.703 101.087 248.578 101.665H246.375C246.516 100.196 247.797 99.04 250.047 99.04C251.898 99.04 253.648 99.8682 253.641 101.915V107.634H251.453V106.462H251.391C250.977 107.243 250.164 107.798 248.906 107.79C247.281 107.798 246.086 106.938 246.078 105.259ZM248.297 105.196C248.297 105.845 248.82 106.188 249.562 106.196C250.617 106.188 251.352 105.501 251.344 104.603V103.985C250.992 104.001 250 104.056 249.609 104.087C248.805 104.157 248.297 104.54 248.297 105.196ZM259.875 99.1494V100.884H258.281V105.024C258.273 105.704 258.609 105.868 259.078 105.884C259.312 105.884 259.719 105.86 260 105.837V107.665C259.75 107.704 259.336 107.751 258.766 107.743C257.094 107.751 255.953 107.001 255.969 105.353V100.884H254.797V99.1494H255.969V97.1182H258.281V99.1494H259.875ZM266.375 110.821C265.922 110.813 265.5 110.806 265.203 110.774V108.978C265.5 109.001 265.852 109.009 266.141 109.009C266.602 109.009 266.969 108.962 267.25 108.228L267.391 107.868L264.344 99.1494H266.766L268.547 105.399H268.641L270.438 99.1494H272.891L269.578 108.571C269.094 109.938 268.164 110.813 266.375 110.821ZM277.547 107.806C274.984 107.798 273.383 106.04 273.391 103.415C273.383 100.798 274.984 99.04 277.547 99.04C280.117 99.04 281.711 100.798 281.719 103.415C281.711 106.04 280.117 107.798 277.547 107.806ZM275.734 103.415C275.734 104.899 276.352 106.001 277.562 106.009C278.742 106.001 279.367 104.899 279.359 103.415C279.367 101.923 278.742 100.806 277.562 100.806C276.352 100.806 275.734 101.923 275.734 103.415ZM288.609 104.024V99.1494H290.922V107.634H288.703V106.103H288.609C288.227 107.087 287.312 107.743 286.031 107.743C284.336 107.743 283.172 106.54 283.172 104.556V99.1494H285.484V104.149C285.484 105.157 286.062 105.782 286.969 105.79C287.812 105.782 288.609 105.181 288.609 104.024ZM298.078 107.634L295.766 99.1494H298.109L299.438 104.884H299.516L300.906 99.1494H303.203L304.609 104.853H304.688L306 99.1494H308.344L306.016 107.634H303.578L302.109 102.243H302L300.531 107.634H298.078ZM309.109 105.259C309.117 103.368 310.633 102.751 312.266 102.649C312.875 102.61 314.016 102.556 314.375 102.54V101.853C314.367 101.142 313.883 100.735 313.016 100.728C312.227 100.735 311.734 101.087 311.609 101.665H309.406C309.547 100.196 310.828 99.04 313.078 99.04C314.93 99.04 316.68 99.8682 316.672 101.915V107.634H314.484V106.462H314.422C314.008 107.243 313.195 107.798 311.938 107.79C310.312 107.798 309.117 106.938 309.109 105.259ZM311.328 105.196C311.328 105.845 311.852 106.188 312.594 106.196C313.648 106.188 314.383 105.501 314.375 104.603V103.985C314.023 104.001 313.031 104.056 312.641 104.087C311.836 104.157 311.328 104.54 311.328 105.196ZM320.75 102.728V107.634H318.438V99.1494H320.641V100.634H320.734C321.117 99.6572 322.023 99.04 323.281 99.04C325.055 99.04 326.211 100.251 326.203 102.228V107.634H323.906V102.634C323.898 101.587 323.336 100.962 322.375 100.962C321.414 100.962 320.75 101.61 320.75 102.728ZM332.469 99.1494V100.884H330.875V105.024C330.867 105.704 331.203 105.868 331.672 105.884C331.906 105.884 332.312 105.86 332.594 105.837V107.665C332.344 107.704 331.93 107.751 331.359 107.743C329.688 107.751 328.547 107.001 328.562 105.353V100.884H327.391V99.1494H328.562V97.1182H330.875V99.1494H332.469Z" fill="#ECECF8" fill-opacity="0.5"/>
<path d="M222.516 117.553V127.451H221.012V117.553H222.516ZM229.42 127.451L227.246 120.027H228.75L230.199 125.469H230.281L231.73 120.027H233.234L234.67 125.441H234.752L236.188 120.027H237.691L235.518 127.451H234.027L232.523 122.105H232.414L230.924 127.451H229.42ZM238.553 125.359C238.546 123.664 239.988 123.227 241.328 123.131C241.82 123.104 242.935 123.042 243.276 123.028L243.27 122.434C243.276 121.593 242.757 121.107 241.766 121.107C240.904 121.107 240.385 121.504 240.234 122.051H238.785C238.915 120.82 240.063 119.932 241.82 119.932C243.003 119.932 244.726 120.362 244.732 122.516V127.451H243.311V126.439H243.256C242.969 126.993 242.285 127.615 241.055 127.615C239.646 127.615 238.546 126.809 238.553 125.359ZM239.975 125.373C239.975 126.084 240.562 126.446 241.383 126.453C242.572 126.446 243.283 125.653 243.283 124.771L243.276 124.095C242.941 124.115 241.882 124.19 241.533 124.211C240.576 124.279 239.975 124.642 239.975 125.373ZM247.959 123.049V127.451H246.496V120.027H247.904V121.244H247.986C248.335 120.444 249.066 119.932 250.174 119.932C251.698 119.932 252.71 120.896 252.703 122.734V127.451H251.254V122.912C251.247 121.832 250.666 121.189 249.682 121.189C248.677 121.189 247.959 121.866 247.959 123.049ZM257.953 120.027V121.189H256.436V125.264C256.442 126.104 256.853 126.255 257.324 126.262C257.536 126.262 257.857 126.241 258.062 126.221V127.492C257.864 127.52 257.55 127.547 257.146 127.547C256.005 127.547 254.973 126.918 254.986 125.564V121.189H253.893V120.027H254.986V118.25H256.436V120.027H257.953ZM266.266 120.027V121.189H264.748V125.264C264.755 126.104 265.165 126.255 265.637 126.262C265.849 126.262 266.17 126.241 266.375 126.221V127.492C266.177 127.52 265.862 127.547 265.459 127.547C264.317 127.547 263.285 126.918 263.299 125.564V121.189H262.205V120.027H263.299V118.25H264.748V120.027H266.266ZM270.75 127.602C268.645 127.602 267.271 126.07 267.277 123.773C267.271 121.463 268.645 119.932 270.75 119.932C272.842 119.932 274.209 121.463 274.209 123.773C274.209 126.07 272.842 127.602 270.75 127.602ZM268.74 123.773C268.74 125.188 269.39 126.385 270.75 126.385C272.09 126.385 272.732 125.188 272.732 123.773C272.732 122.352 272.09 121.142 270.75 121.135C269.39 121.142 268.74 122.352 268.74 123.773ZM283.779 124.361V120.027H285.229V127.451H283.807V126.166H283.725C283.383 126.959 282.624 127.547 281.51 127.547C280.074 127.547 279.062 126.583 279.062 124.744V120.027H280.525V124.566C280.525 125.578 281.141 126.221 282.029 126.221C282.843 126.221 283.779 125.626 283.779 124.361ZM291.176 122.051C291.039 121.463 290.574 121.08 289.768 121.08C288.934 121.08 288.339 121.511 288.346 122.078C288.339 122.516 288.688 122.83 289.508 123.021L290.684 123.295C292.051 123.603 292.714 124.252 292.721 125.305C292.714 126.645 291.579 127.602 289.686 127.602C287.901 127.602 286.849 126.809 286.664 125.428H288.154C288.284 126.098 288.79 126.433 289.672 126.426C290.615 126.433 291.224 126.036 291.23 125.414C291.224 124.936 290.868 124.628 290.082 124.443L288.92 124.197C287.58 123.903 286.883 123.186 286.883 122.16C286.883 120.841 288.031 119.932 289.754 119.932C291.408 119.932 292.44 120.772 292.584 122.051H291.176ZM297.342 127.602C295.154 127.602 293.808 126.091 293.814 123.787C293.808 121.504 295.175 119.932 297.246 119.932C298.935 119.932 300.541 120.978 300.541 123.664V124.184H295.264C295.305 125.599 296.139 126.398 297.355 126.398C298.183 126.398 298.723 126.043 298.969 125.592H300.445C300.117 126.795 298.976 127.602 297.342 127.602ZM295.271 123.09H299.105C299.105 121.962 298.374 121.128 297.26 121.135C296.091 121.128 295.332 122.044 295.271 123.09ZM305.408 127.451V120.027H306.871V127.451H305.408ZM305.217 118.018C305.224 117.539 305.641 117.156 306.146 117.156C306.646 117.156 307.062 117.539 307.062 118.018C307.062 118.496 306.646 118.886 306.146 118.879C305.641 118.886 305.224 118.496 305.217 118.018ZM312.121 120.027V121.189H310.604V125.264C310.61 126.104 311.021 126.255 311.492 126.262C311.704 126.262 312.025 126.241 312.23 126.221V127.492C312.032 127.52 311.718 127.547 311.314 127.547C310.173 127.547 309.141 126.918 309.154 125.564V121.189H308.061V120.027H309.154V118.25H310.604V120.027H312.121ZM320.434 120.027V121.189H318.916V125.264C318.923 126.104 319.333 126.255 319.805 126.262C320.017 126.262 320.338 126.241 320.543 126.221V127.492C320.345 127.52 320.03 127.547 319.627 127.547C318.485 127.547 317.453 126.918 317.467 125.564V121.189H316.373V120.027H317.467V118.25H318.916V120.027H320.434ZM324.918 127.602C322.812 127.602 321.438 126.07 321.445 123.773C321.438 121.463 322.812 119.932 324.918 119.932C327.01 119.932 328.377 121.463 328.377 123.773C328.377 126.07 327.01 127.602 324.918 127.602ZM322.908 123.773C322.908 125.188 323.558 126.385 324.918 126.385C326.258 126.385 326.9 125.188 326.9 123.773C326.9 122.352 326.258 121.142 324.918 121.135C323.558 121.142 322.908 122.352 322.908 123.773ZM336.006 127.602C334.215 127.595 332.902 126.152 332.902 123.76C332.902 121.34 334.235 119.932 336.02 119.932C337.4 119.932 337.899 120.766 338.166 121.23H338.234V117.553H339.697V127.451H338.275V126.289H338.166C337.893 126.774 337.359 127.595 336.006 127.602ZM334.393 123.732C334.386 125.223 335.056 126.351 336.334 126.357C337.578 126.351 338.275 125.291 338.275 123.732C338.275 122.188 337.592 121.169 336.334 121.176C335.042 121.169 334.386 122.27 334.393 123.732ZM344.797 127.602C342.609 127.602 341.263 126.091 341.27 123.787C341.263 121.504 342.63 119.932 344.701 119.932C346.39 119.932 347.996 120.978 347.996 123.664V124.184H342.719C342.76 125.599 343.594 126.398 344.811 126.398C345.638 126.398 346.178 126.043 346.424 125.592H347.9C347.572 126.795 346.431 127.602 344.797 127.602ZM342.726 123.09H346.561C346.561 121.962 345.829 121.128 344.715 121.135C343.546 121.128 342.787 122.044 342.726 123.09ZM355.584 120.027L352.891 127.451H351.318L348.625 120.027H350.197L352.07 125.729H352.139L354.012 120.027H355.584ZM359.713 127.602C357.525 127.602 356.179 126.091 356.186 123.787C356.179 121.504 357.546 119.932 359.617 119.932C361.306 119.932 362.912 120.978 362.912 123.664V124.184H357.635C357.676 125.599 358.51 126.398 359.727 126.398C360.554 126.398 361.094 126.043 361.34 125.592H362.816C362.488 126.795 361.347 127.602 359.713 127.602ZM357.642 123.09H361.477C361.477 121.962 360.745 121.128 359.631 121.135C358.462 121.128 357.703 122.044 357.642 123.09ZM365.824 117.553V127.451H364.361V117.553H365.824ZM370.746 127.602C368.641 127.602 367.267 126.07 367.273 123.773C367.267 121.463 368.641 119.932 370.746 119.932C372.838 119.932 374.205 121.463 374.205 123.773C374.205 126.07 372.838 127.602 370.746 127.602ZM368.736 123.773C368.736 125.188 369.386 126.385 370.746 126.385C372.086 126.385 372.729 125.188 372.729 123.773C372.729 122.352 372.086 121.142 370.746 121.135C369.386 121.142 368.736 122.352 368.736 123.773ZM375.641 130.24V120.027H377.062V121.23H377.186C377.445 120.766 377.944 119.932 379.318 119.932C381.116 119.932 382.436 121.34 382.436 123.76C382.436 126.152 381.13 127.595 379.332 127.602C377.985 127.595 377.452 126.774 377.186 126.289H377.104V130.24H375.641ZM377.076 123.732C377.076 125.291 377.76 126.351 379.004 126.357C380.289 126.351 380.959 125.223 380.959 123.732C380.959 122.27 380.31 121.169 379.004 121.176C377.746 121.169 377.076 122.188 377.076 123.732ZM220.889 144.451V137.027H222.297V138.244H222.379C222.693 137.417 223.425 136.932 224.402 136.932C225.394 136.932 226.084 137.417 226.398 138.244H226.48C226.829 137.444 227.636 136.932 228.709 136.932C230.049 136.932 230.999 137.772 231.006 139.475V144.451H229.543V139.611C229.543 138.606 228.914 138.189 228.148 138.189C227.212 138.189 226.672 138.832 226.672 139.721V144.451H225.223V139.529C225.223 138.716 224.669 138.189 223.869 138.189C223.049 138.189 222.352 138.873 222.352 139.871V144.451H220.889ZM235.914 144.602C233.809 144.602 232.435 143.07 232.441 140.773C232.435 138.463 233.809 136.932 235.914 136.932C238.006 136.932 239.373 138.463 239.373 140.773C239.373 143.07 238.006 144.602 235.914 144.602ZM233.904 140.773C233.904 142.188 234.554 143.385 235.914 143.385C237.254 143.385 237.896 142.188 237.896 140.773C237.896 139.352 237.254 138.142 235.914 138.135C234.554 138.142 233.904 139.352 233.904 140.773ZM243.584 144.602C241.793 144.595 240.48 143.152 240.48 140.76C240.48 138.34 241.813 136.932 243.598 136.932C244.979 136.932 245.478 137.766 245.744 138.23H245.812V134.553H247.275V144.451H245.854V143.289H245.744C245.471 143.774 244.938 144.595 243.584 144.602ZM241.971 140.732C241.964 142.223 242.634 143.351 243.912 143.357C245.156 143.351 245.854 142.291 245.854 140.732C245.854 139.188 245.17 138.169 243.912 138.176C242.62 138.169 241.964 139.27 241.971 140.732ZM252.375 144.602C250.188 144.602 248.841 143.091 248.848 140.787C248.841 138.504 250.208 136.932 252.279 136.932C253.968 136.932 255.574 137.978 255.574 140.664V141.184H250.297C250.338 142.599 251.172 143.398 252.389 143.398C253.216 143.398 253.756 143.043 254.002 142.592H255.479C255.15 143.795 254.009 144.602 252.375 144.602ZM250.304 140.09H254.139C254.139 138.962 253.407 138.128 252.293 138.135C251.124 138.128 250.365 139.044 250.304 140.09ZM258.486 134.553V144.451H257.023V134.553H258.486ZM264.652 144.451H263.053L266.607 134.553H268.344L271.912 144.451H270.312L269.41 141.84H265.555L264.652 144.451ZM265.985 140.582H268.973L267.51 136.357H267.441L265.985 140.582ZM273.17 144.451V134.553H276.697C279.001 134.553 280.129 135.934 280.129 137.766C280.129 139.591 278.994 140.979 276.697 140.979H274.674V144.451H273.17ZM274.674 139.693H276.547C278.003 139.7 278.611 138.88 278.611 137.766C278.611 136.645 278.003 135.845 276.547 135.838H274.674V139.693ZM283.219 134.553V144.451H281.715V134.553H283.219ZM288.182 142.359C288.175 140.664 289.617 140.227 290.957 140.131C291.449 140.104 292.563 140.042 292.905 140.028L292.898 139.434C292.905 138.593 292.386 138.107 291.395 138.107C290.533 138.107 290.014 138.504 289.863 139.051H288.414C288.544 137.82 289.692 136.932 291.449 136.932C292.632 136.932 294.354 137.362 294.361 139.516V144.451H292.939V143.439H292.885C292.598 143.993 291.914 144.615 290.684 144.615C289.275 144.615 288.175 143.809 288.182 142.359ZM289.604 142.373C289.604 143.084 290.191 143.446 291.012 143.453C292.201 143.446 292.912 142.653 292.912 141.771L292.905 141.095C292.57 141.115 291.511 141.19 291.162 141.211C290.205 141.279 289.604 141.642 289.604 142.373ZM296.125 147.24V137.027H297.547V138.23H297.67C297.93 137.766 298.429 136.932 299.803 136.932C301.601 136.932 302.92 138.34 302.92 140.76C302.92 143.152 301.614 144.595 299.816 144.602C298.47 144.595 297.937 143.774 297.67 143.289H297.588V147.24H296.125ZM297.561 140.732C297.561 142.291 298.244 143.351 299.488 143.357C300.773 143.351 301.443 142.223 301.443 140.732C301.443 139.27 300.794 138.169 299.488 138.176C298.23 138.169 297.561 139.188 297.561 140.732ZM304.369 147.24V137.027H305.791V138.23H305.914C306.174 137.766 306.673 136.932 308.047 136.932C309.845 136.932 311.164 138.34 311.164 140.76C311.164 143.152 309.858 144.595 308.061 144.602C306.714 144.595 306.181 143.774 305.914 143.289H305.832V147.24H304.369ZM305.805 140.732C305.805 142.291 306.488 143.351 307.732 143.357C309.018 143.351 309.688 142.223 309.688 140.732C309.688 139.27 309.038 138.169 307.732 138.176C306.475 138.169 305.805 139.188 305.805 140.732ZM314.076 134.553V144.451H312.613V134.553H314.076ZM315.854 144.451V137.027H317.316V144.451H315.854ZM315.662 135.018C315.669 134.539 316.086 134.156 316.592 134.156C317.091 134.156 317.508 134.539 317.508 135.018C317.508 135.496 317.091 135.886 316.592 135.879C316.086 135.886 315.669 135.496 315.662 135.018ZM322.238 144.602C320.071 144.602 318.759 143.009 318.766 140.773C318.759 138.511 320.119 136.932 322.211 136.932C323.906 136.932 325.13 137.93 325.287 139.434H323.865C323.715 138.736 323.161 138.155 322.238 138.148C321.035 138.155 320.229 139.153 320.229 140.732C320.229 142.359 321.015 143.364 322.238 143.357C323.065 143.364 323.681 142.899 323.865 142.1H325.287C325.13 143.542 323.988 144.602 322.238 144.602ZM326.326 142.359C326.319 140.664 327.762 140.227 329.102 140.131C329.594 140.104 330.708 140.042 331.05 140.028L331.043 139.434C331.05 138.593 330.53 138.107 329.539 138.107C328.678 138.107 328.158 138.504 328.008 139.051H326.559C326.688 137.82 327.837 136.932 329.594 136.932C330.776 136.932 332.499 137.362 332.506 139.516V144.451H331.084V143.439H331.029C330.742 143.993 330.059 144.615 328.828 144.615C327.42 144.615 326.319 143.809 326.326 142.359ZM327.748 142.373C327.748 143.084 328.336 143.446 329.156 143.453C330.346 143.446 331.057 142.653 331.057 141.771L331.05 141.095C330.715 141.115 329.655 141.19 329.307 141.211C328.35 141.279 327.748 141.642 327.748 142.373ZM337.742 137.027V138.189H336.225V142.264C336.231 143.104 336.642 143.255 337.113 143.262C337.325 143.262 337.646 143.241 337.852 143.221V144.492C337.653 144.52 337.339 144.547 336.936 144.547C335.794 144.547 334.762 143.918 334.775 142.564V138.189H333.682V137.027H334.775V135.25H336.225V137.027H337.742ZM339.164 144.451V137.027H340.627V144.451H339.164ZM338.973 135.018C338.979 134.539 339.396 134.156 339.902 134.156C340.401 134.156 340.818 134.539 340.818 135.018C340.818 135.496 340.401 135.886 339.902 135.879C339.396 135.886 338.979 135.496 338.973 135.018ZM345.549 144.602C343.443 144.602 342.069 143.07 342.076 140.773C342.069 138.463 343.443 136.932 345.549 136.932C347.641 136.932 349.008 138.463 349.008 140.773C349.008 143.07 347.641 144.602 345.549 144.602ZM343.539 140.773C343.539 142.188 344.188 143.385 345.549 143.385C346.889 143.385 347.531 142.188 347.531 140.773C347.531 139.352 346.889 138.142 345.549 138.135C344.188 138.142 343.539 139.352 343.539 140.773ZM351.906 140.049V144.451H350.443V137.027H351.852V138.244H351.934C352.282 137.444 353.014 136.932 354.121 136.932C355.646 136.932 356.657 137.896 356.65 139.734V144.451H355.201V139.912C355.194 138.832 354.613 138.189 353.629 138.189C352.624 138.189 351.906 138.866 351.906 140.049ZM362.598 139.051C362.461 138.463 361.996 138.08 361.189 138.08C360.355 138.08 359.761 138.511 359.768 139.078C359.761 139.516 360.109 139.83 360.93 140.021L362.105 140.295C363.473 140.603 364.136 141.252 364.143 142.305C364.136 143.645 363.001 144.602 361.107 144.602C359.323 144.602 358.271 143.809 358.086 142.428H359.576C359.706 143.098 360.212 143.433 361.094 143.426C362.037 143.433 362.646 143.036 362.652 142.414C362.646 141.936 362.29 141.628 361.504 141.443L360.342 141.197C359.002 140.903 358.305 140.186 358.305 139.16C358.305 137.841 359.453 136.932 361.176 136.932C362.83 136.932 363.862 137.772 364.006 139.051H362.598ZM224.033 161.602C221.866 161.602 220.554 160.009 220.561 157.773C220.554 155.511 221.914 153.932 224.006 153.932C225.701 153.932 226.925 154.93 227.082 156.434H225.66C225.51 155.736 224.956 155.155 224.033 155.148C222.83 155.155 222.023 156.153 222.023 157.732C222.023 159.359 222.81 160.364 224.033 160.357C224.86 160.364 225.476 159.899 225.66 159.1H227.082C226.925 160.542 225.783 161.602 224.033 161.602ZM228.463 161.451V154.027H229.871V155.203H229.953C230.227 154.41 230.972 153.911 231.84 153.918C232.018 153.911 232.305 153.932 232.455 153.945V155.34C232.332 155.312 231.99 155.251 231.689 155.258C230.678 155.251 229.926 155.955 229.926 156.926V161.451H228.463ZM236.502 161.602C234.314 161.602 232.968 160.091 232.975 157.787C232.968 155.504 234.335 153.932 236.406 153.932C238.095 153.932 239.701 154.978 239.701 157.664V158.184H234.424C234.465 159.599 235.299 160.398 236.516 160.398C237.343 160.398 237.883 160.043 238.129 159.592H239.605C239.277 160.795 238.136 161.602 236.502 161.602ZM234.431 157.09H238.266C238.266 155.962 237.534 155.128 236.42 155.135C235.251 155.128 234.492 156.044 234.431 157.09ZM240.809 159.359C240.802 157.664 242.244 157.227 243.584 157.131C244.076 157.104 245.19 157.042 245.532 157.028L245.525 156.434C245.532 155.593 245.013 155.107 244.021 155.107C243.16 155.107 242.641 155.504 242.49 156.051H241.041C241.171 154.82 242.319 153.932 244.076 153.932C245.259 153.932 246.981 154.362 246.988 156.516V161.451H245.566V160.439H245.512C245.225 160.993 244.541 161.615 243.311 161.615C241.902 161.615 240.802 160.809 240.809 159.359ZM242.23 159.373C242.23 160.084 242.818 160.446 243.639 160.453C244.828 160.446 245.539 159.653 245.539 158.771L245.532 158.095C245.197 158.115 244.138 158.19 243.789 158.211C242.832 158.279 242.23 158.642 242.23 159.373ZM252.225 154.027V155.189H250.707V159.264C250.714 160.104 251.124 160.255 251.596 160.262C251.808 160.262 252.129 160.241 252.334 160.221V161.492C252.136 161.52 251.821 161.547 251.418 161.547C250.276 161.547 249.244 160.918 249.258 159.564V155.189H248.164V154.027H249.258V152.25H250.707V154.027H252.225ZM256.764 161.602C254.576 161.602 253.229 160.091 253.236 157.787C253.229 155.504 254.597 153.932 256.668 153.932C258.356 153.932 259.963 154.978 259.963 157.664V158.184H254.686C254.727 159.599 255.561 160.398 256.777 160.398C257.604 160.398 258.145 160.043 258.391 159.592H259.867C259.539 160.795 258.397 161.602 256.764 161.602ZM254.692 157.09H258.527C258.527 155.962 257.796 155.128 256.682 155.135C255.513 155.128 254.754 156.044 254.692 157.09ZM264.188 161.602C262.396 161.595 261.084 160.152 261.084 157.76C261.084 155.34 262.417 153.932 264.201 153.932C265.582 153.932 266.081 154.766 266.348 155.23H266.416V151.553H267.879V161.451H266.457V160.289H266.348C266.074 160.774 265.541 161.595 264.188 161.602ZM262.574 157.732C262.567 159.223 263.237 160.351 264.516 160.357C265.76 160.351 266.457 159.291 266.457 157.732C266.457 156.188 265.773 155.169 264.516 155.176C263.224 155.169 262.567 156.27 262.574 157.732ZM276.67 154.027V155.189H275.152V159.264C275.159 160.104 275.569 160.255 276.041 160.262C276.253 160.262 276.574 160.241 276.779 160.221V161.492C276.581 161.52 276.267 161.547 275.863 161.547C274.722 161.547 273.689 160.918 273.703 159.564V155.189H272.609V154.027H273.703V152.25H275.152V154.027H276.67ZM279.719 157.049V161.451H278.256V151.553H279.691V155.244H279.787C280.136 154.438 280.833 153.932 281.988 153.932C283.513 153.932 284.531 154.875 284.531 156.734V161.451H283.068V156.912C283.068 155.818 282.48 155.189 281.496 155.189C280.464 155.189 279.719 155.866 279.719 157.049ZM286.295 161.451V154.027H287.703V155.203H287.785C288.059 154.41 288.804 153.911 289.672 153.918C289.85 153.911 290.137 153.932 290.287 153.945V155.34C290.164 155.312 289.822 155.251 289.521 155.258C288.51 155.251 287.758 155.955 287.758 156.926V161.451H286.295ZM294.279 161.602C292.174 161.602 290.8 160.07 290.807 157.773C290.8 155.463 292.174 153.932 294.279 153.932C296.371 153.932 297.738 155.463 297.738 157.773C297.738 160.07 296.371 161.602 294.279 161.602ZM292.27 157.773C292.27 159.188 292.919 160.385 294.279 160.385C295.619 160.385 296.262 159.188 296.262 157.773C296.262 156.352 295.619 155.142 294.279 155.135C292.919 155.142 292.27 156.352 292.27 157.773ZM303.891 158.361V154.027H305.34V161.451H303.918V160.166H303.836C303.494 160.959 302.735 161.547 301.621 161.547C300.186 161.547 299.174 160.583 299.174 158.744V154.027H300.637V158.566C300.637 159.578 301.252 160.221 302.141 160.221C302.954 160.221 303.891 159.626 303.891 158.361ZM310.234 164.391C308.361 164.391 307.124 163.563 306.994 162.176H308.484C308.628 162.88 309.284 163.222 310.248 163.215C311.41 163.222 312.142 162.716 312.148 161.561V160.098H312.053C311.793 160.576 311.26 161.342 309.893 161.342C308.143 161.342 306.789 160.036 306.789 157.664C306.789 155.292 308.122 153.932 309.906 153.932C311.287 153.932 311.793 154.766 312.066 155.23H312.162V154.027H313.584V161.615C313.591 163.522 312.148 164.391 310.234 164.391ZM308.279 157.691C308.272 159.147 308.942 160.132 310.221 160.139C311.465 160.132 312.162 159.223 312.162 157.691C312.162 156.188 311.479 155.169 310.221 155.176C308.929 155.169 308.272 156.27 308.279 157.691ZM316.824 157.049V161.451H315.361V151.553H316.797V155.244H316.893C317.241 154.438 317.938 153.932 319.094 153.932C320.618 153.932 321.637 154.875 321.637 156.734V161.451H320.174V156.912C320.174 155.818 319.586 155.189 318.602 155.189C317.569 155.189 316.824 155.866 316.824 157.049ZM326.941 161.451V151.553H330.469C332.772 151.553 333.9 152.831 333.9 154.656C333.9 155.989 333.299 156.994 332.096 157.452L334.283 161.451H332.574L330.564 157.719H330.469H328.445V161.451H326.941ZM328.445 156.42H330.318C331.774 156.413 332.383 155.771 332.383 154.656C332.383 153.542 331.774 152.845 330.318 152.838H328.445V156.42ZM340.162 158.361V154.027H341.611V161.451H340.189V160.166H340.107C339.766 160.959 339.007 161.547 337.893 161.547C336.457 161.547 335.445 160.583 335.445 158.744V154.027H336.908V158.566C336.908 159.578 337.523 160.221 338.412 160.221C339.226 160.221 340.162 159.626 340.162 158.361ZM344.852 157.049V161.451H343.389V154.027H344.797V155.244H344.879C345.228 154.444 345.959 153.932 347.066 153.932C348.591 153.932 349.603 154.896 349.596 156.734V161.451H348.146V156.912C348.14 155.832 347.559 155.189 346.574 155.189C345.569 155.189 344.852 155.866 344.852 157.049ZM352.973 161.451L350.799 154.027H352.303L353.752 159.469H353.834L355.283 154.027H356.787L358.223 159.441H358.305L359.74 154.027H361.244L359.07 161.451H357.58L356.076 156.105H355.967L354.477 161.451H352.973ZM362.105 159.359C362.099 157.664 363.541 157.227 364.881 157.131C365.373 157.104 366.487 157.042 366.829 157.028L366.822 156.434C366.829 155.593 366.31 155.107 365.318 155.107C364.457 155.107 363.938 155.504 363.787 156.051H362.338C362.468 154.82 363.616 153.932 365.373 153.932C366.556 153.932 368.278 154.362 368.285 156.516V161.451H366.863V160.439H366.809C366.521 160.993 365.838 161.615 364.607 161.615C363.199 161.615 362.099 160.809 362.105 159.359ZM363.527 159.373C363.527 160.084 364.115 160.446 364.936 160.453C366.125 160.446 366.836 159.653 366.836 158.771L366.829 158.095C366.494 158.115 365.435 158.19 365.086 158.211C364.129 158.279 363.527 158.642 363.527 159.373ZM370.678 164.24C370.377 164.233 370.083 164.227 369.898 164.199V162.982C370.062 162.996 370.35 163.003 370.555 163.01C371.006 163.003 371.382 162.976 371.73 162.039L371.908 161.547L369.188 154.027H370.746L372.619 159.783H372.701L374.574 154.027H376.146L373.084 162.436C372.653 163.611 371.901 164.233 370.678 164.24ZM377.828 161.547C377.295 161.54 376.851 161.109 376.857 160.576C376.851 160.043 377.295 159.605 377.828 159.605C378.354 159.605 378.792 160.043 378.799 160.576C378.792 161.109 378.354 161.54 377.828 161.547Z" fill="#ECECF8"/>
<path d="M20.3867 267.969V266.516H27.3359V267.969H24.7344V275H22.9883V267.969H20.3867ZM30.3477 275.129C28.3965 275.123 27.2012 273.863 27.207 271.848C27.2012 269.885 28.4141 268.555 30.2773 268.555C31.9473 268.555 33.2656 269.609 33.2656 271.777V272.27H28.918C28.918 273.23 29.4863 273.822 30.3828 273.828C30.9746 273.822 31.3965 273.564 31.5664 273.184H33.2188C32.9727 274.361 31.918 275.123 30.3477 275.129ZM28.918 271.18H31.625C31.6191 270.406 31.0859 269.85 30.3125 269.855C29.5156 269.85 28.9531 270.447 28.918 271.18ZM37.2148 275.129C35.2637 275.123 34.0918 273.775 34.0977 271.836C34.0918 269.891 35.2871 268.555 37.2148 268.555C38.8555 268.555 39.9688 269.51 40.0391 270.969H38.4102C38.3047 270.342 37.8945 269.908 37.2383 269.902C36.4062 269.908 35.8555 270.605 35.8555 271.812C35.8555 273.043 36.3945 273.746 37.2383 273.746C37.8477 273.746 38.2988 273.365 38.4102 272.691H40.0391C39.9629 274.133 38.9023 275.123 37.2148 275.129ZM42.8516 271.32V275H41.1172V266.516H42.8047V269.75H42.875C43.168 269.006 43.8066 268.555 44.7734 268.555C46.1035 268.555 46.9766 269.451 46.9766 270.945V275H45.2422V271.25C45.2422 270.459 44.8203 269.996 44.0938 269.996C43.3613 269.996 42.8516 270.482 42.8516 271.32Z" fill="#ECECF8" fill-opacity="0.5"/>
<path d="M20.4688 288.453V287.516H26.8672V288.453H24.207V296H23.1406V288.453H20.4688ZM29.8906 296.129C28.0508 296.135 26.9141 294.822 26.9141 292.871C26.9141 290.914 28.0684 289.555 29.7969 289.555C31.1328 289.555 32.5449 290.375 32.5391 292.73V293.152H27.9219C27.9746 294.5 28.7598 295.238 29.8906 295.238C30.6523 295.238 31.1328 294.904 31.3672 294.512H32.4453C32.1465 295.479 31.2031 296.135 29.8906 296.129ZM27.9277 292.297H31.5195C31.5137 291.236 30.8457 290.445 29.7969 290.445C28.6953 290.445 27.998 291.312 27.9277 292.297ZM36.4531 296.129C34.6484 296.135 33.5469 294.758 33.5469 292.848C33.5469 290.914 34.7012 289.555 36.4297 289.555C37.7832 289.555 38.8027 290.357 38.9609 291.559H37.9531C37.8066 290.979 37.3027 290.445 36.4531 290.445C35.3164 290.445 34.5605 291.383 34.5547 292.812C34.5605 294.283 35.2988 295.227 36.4531 295.227C37.2031 295.227 37.7773 294.822 37.9531 294.125H38.9609C38.8027 295.262 37.8652 296.135 36.4531 296.129ZM41.2109 292.18V296H40.2031V287.516H41.2109V290.633H41.293C41.5918 289.977 42.1602 289.555 43.168 289.555C44.4688 289.555 45.3359 290.322 45.3359 291.957V296H44.3281V292.027C44.3281 291.025 43.7773 290.457 42.8633 290.457C41.9141 290.457 41.2109 291.078 41.2109 292.18ZM47.9609 292.18V296H46.9531V289.637H47.9258V290.633H48.0078C48.3066 289.982 48.9043 289.555 49.8711 289.555C51.1602 289.555 52.0215 290.34 52.0156 291.957V296H51.0078V292.027C51.0078 291.043 50.4688 290.457 49.5664 290.457C48.6406 290.457 47.9609 291.078 47.9609 292.18ZM53.6328 296V289.637H54.6406V296H53.6328ZM53.4336 287.914C53.4277 287.539 53.75 287.24 54.1367 287.246C54.5234 287.24 54.8457 287.539 54.8516 287.914C54.8457 288.283 54.5234 288.582 54.1367 288.582C53.75 288.582 53.4277 288.283 53.4336 287.914ZM58.8477 296.129C57.043 296.135 55.9414 294.758 55.9414 292.848C55.9414 290.914 57.0957 289.555 58.8242 289.555C60.1777 289.555 61.1973 290.357 61.3555 291.559H60.3477C60.2012 290.979 59.6973 290.445 58.8477 290.445C57.7109 290.445 56.9551 291.383 56.9492 292.812C56.9551 294.283 57.6934 295.227 58.8477 295.227C59.5977 295.227 60.1719 294.822 60.3477 294.125H61.3555C61.1973 295.262 60.2598 296.135 58.8477 296.129ZM62.293 294.195C62.293 292.736 63.582 292.402 64.6836 292.32C65.0938 292.291 66.1191 292.232 66.4062 292.227V291.711C66.4062 290.902 65.9258 290.434 64.9648 290.434C64.1621 290.434 63.6758 290.803 63.5352 291.289H62.4805C62.6094 290.264 63.6055 289.555 65.0117 289.555C65.8438 289.555 67.4082 289.801 67.4023 291.805V296H66.4062V295.133H66.3594C66.1484 295.561 65.5684 296.146 64.4609 296.152C63.2539 296.146 62.293 295.438 62.293 294.195ZM63.3008 294.242C63.3066 294.916 63.8633 295.256 64.6367 295.25C65.7734 295.256 66.4062 294.494 66.4062 293.691V293.053C66.1074 293.07 65.1055 293.146 64.8008 293.164C63.8867 293.223 63.3066 293.545 63.3008 294.242ZM70.0273 287.516V296H69.0195V287.516H70.0273ZM74.6445 298.391V289.637H75.6172V290.645H75.7344C75.9512 290.305 76.3379 289.555 77.5742 289.555C79.1738 289.555 80.2812 290.82 80.2812 292.836C80.2812 294.857 79.1738 296.135 77.5859 296.129C76.373 296.135 75.9512 295.379 75.7344 295.027H75.6523V298.391H74.6445ZM75.6289 292.812C75.6348 294.242 76.2734 295.227 77.4453 295.227C78.6523 295.227 79.2734 294.166 79.2734 292.812C79.2734 291.482 78.6699 290.457 77.4453 290.457C76.2559 290.457 75.6348 291.4 75.6289 292.812ZM81.5938 296V289.637H82.5664V290.609H82.6367C82.8652 289.965 83.5273 289.537 84.2773 289.531C84.4297 289.537 84.6875 289.543 84.8047 289.555V290.574C84.7285 290.557 84.459 290.504 84.1953 290.504C83.2812 290.504 82.6016 291.137 82.6016 291.992V296H81.5938ZM88.1797 296.129C86.4453 296.135 85.2734 294.822 85.2734 292.848C85.2734 290.861 86.4453 289.555 88.1797 289.555C89.9082 289.555 91.0684 290.861 91.0625 292.848C91.0684 294.822 89.9082 296.135 88.1797 296.129ZM86.2812 292.848C86.2871 294.119 86.8848 295.238 88.1797 295.238C89.4629 295.238 90.0547 294.119 90.0547 292.848C90.0547 291.582 89.4629 290.445 88.1797 290.445C86.8848 290.445 86.2871 291.582 86.2812 292.848ZM95.2344 289.637V290.48H93.8281V296H92.8086V290.48H91.7891V289.637H92.8086V288.77C92.8145 287.738 93.5 287.117 94.625 287.117C94.8711 287.117 95.1641 287.146 95.375 287.188V288.09C95.1582 288.055 94.9766 288.043 94.8477 288.043C94.1387 288.043 93.8223 288.336 93.8281 288.992V289.637H95.2344ZM96.4297 296V289.637H97.4375V296H96.4297ZM96.2305 287.914C96.2246 287.539 96.5469 287.24 96.9336 287.246C97.3203 287.24 97.6426 287.539 97.6484 287.914C97.6426 288.283 97.3203 288.582 96.9336 288.582C96.5469 288.582 96.2246 288.283 96.2305 287.914ZM101.645 296.129C99.8398 296.135 98.7383 294.758 98.7383 292.848C98.7383 290.914 99.8926 289.555 101.621 289.555C102.975 289.555 103.994 290.357 104.152 291.559H103.145C102.998 290.979 102.494 290.445 101.645 290.445C100.508 290.445 99.752 291.383 99.7461 292.812C99.752 294.283 100.49 295.227 101.645 295.227C102.395 295.227 102.969 294.822 103.145 294.125H104.152C103.994 295.262 103.057 296.135 101.645 296.129ZM105.395 296V289.637H106.402V296H105.395ZM105.195 287.914C105.189 287.539 105.512 287.24 105.898 287.246C106.285 287.24 106.607 287.539 106.613 287.914C106.607 288.283 106.285 288.582 105.898 288.582C105.512 288.582 105.189 288.283 105.195 287.914ZM110.68 296.129C108.84 296.135 107.703 294.822 107.703 292.871C107.703 290.914 108.857 289.555 110.586 289.555C111.922 289.555 113.334 290.375 113.328 292.73V293.152H108.711C108.764 294.5 109.549 295.238 110.68 295.238C111.441 295.238 111.922 294.904 112.156 294.512H113.234C112.936 295.479 111.992 296.135 110.68 296.129ZM108.717 292.297H112.309C112.303 291.236 111.635 290.445 110.586 290.445C109.484 290.445 108.787 291.312 108.717 292.297ZM115.648 292.18V296H114.641V289.637H115.613V290.633H115.695C115.994 289.982 116.592 289.555 117.559 289.555C118.848 289.555 119.709 290.34 119.703 291.957V296H118.695V292.027C118.695 291.043 118.156 290.457 117.254 290.457C116.328 290.457 115.648 291.078 115.648 292.18ZM123.922 296.129C122.117 296.135 121.016 294.758 121.016 292.848C121.016 290.914 122.17 289.555 123.898 289.555C125.252 289.555 126.271 290.357 126.43 291.559H125.422C125.275 290.979 124.771 290.445 123.922 290.445C122.785 290.445 122.029 291.383 122.023 292.812C122.029 294.283 122.768 295.227 123.922 295.227C124.672 295.227 125.246 294.822 125.422 294.125H126.43C126.271 295.262 125.334 296.135 123.922 296.129ZM128.316 298.391C128.1 298.385 127.883 298.379 127.754 298.367V297.465C127.859 297.477 128.088 297.482 128.246 297.488C128.656 297.482 129.002 297.459 129.336 296.527L129.523 296.047L127.168 289.637H128.27L130.004 294.688H130.074L131.809 289.637H132.91L130.215 296.914C129.84 297.916 129.219 298.385 128.316 298.391ZM137.035 296V289.637H138.043V296H137.035ZM136.836 287.914C136.83 287.539 137.152 287.24 137.539 287.246C137.926 287.24 138.248 287.539 138.254 287.914C138.248 288.283 137.926 288.582 137.539 288.582C137.152 288.582 136.83 288.283 136.836 287.914ZM140.656 292.18V296H139.648V289.637H140.621V290.633H140.703C141.002 289.982 141.6 289.555 142.566 289.555C143.855 289.555 144.717 290.34 144.711 291.957V296H143.703V292.027C143.703 291.043 143.164 290.457 142.262 290.457C141.336 290.457 140.656 291.078 140.656 292.18ZM149.469 287.516H150.734L153.594 294.5H153.699L156.559 287.516H157.824V296H156.828V289.59H156.746L154.109 296H153.172L150.535 289.59H150.465V296H149.469V287.516ZM159.699 296V287.516H160.754V295.062H164.691V296H159.699Z" fill="#ECECF8"/>
<circle cx="271" cy="292" r="6" fill="#944AF2"/>
<circle cx="295" cy="292" r="6" fill="#ECECF8" fill-opacity="0.3"/>
<circle cx="319" cy="292" r="6" fill="#ECECF8" fill-opacity="0.3"/>
<circle cx="343" cy="292" r="6" fill="#ECECF8" fill-opacity="0.3"/>
<circle cx="367" cy="292" r="6" fill="#ECECF8" fill-opacity="0.3"/>
<path d="M20.4688 308.453V307.516H26.8672V308.453H24.207V316H23.1406V308.453H20.4688ZM29.8906 316.129C28.0508 316.135 26.9141 314.822 26.9141 312.871C26.9141 310.914 28.0684 309.555 29.7969 309.555C31.1328 309.555 32.5449 310.375 32.5391 312.73V313.152H27.9219C27.9746 314.5 28.7598 315.238 29.8906 315.238C30.6523 315.238 31.1328 314.904 31.3672 314.512H32.4453C32.1465 315.479 31.2031 316.135 29.8906 316.129ZM27.9277 312.297H31.5195C31.5137 311.236 30.8457 310.445 29.7969 310.445C28.6953 310.445 27.998 311.312 27.9277 312.297ZM36.4531 316.129C34.6484 316.135 33.5469 314.758 33.5469 312.848C33.5469 310.914 34.7012 309.555 36.4297 309.555C37.7832 309.555 38.8027 310.357 38.9609 311.559H37.9531C37.8066 310.979 37.3027 310.445 36.4531 310.445C35.3164 310.445 34.5605 311.383 34.5547 312.812C34.5605 314.283 35.2988 315.227 36.4531 315.227C37.2031 315.227 37.7773 314.822 37.9531 314.125H38.9609C38.8027 315.262 37.8652 316.135 36.4531 316.129ZM41.2109 312.18V316H40.2031V307.516H41.2109V310.633H41.293C41.5918 309.977 42.1602 309.555 43.168 309.555C44.4688 309.555 45.3359 310.322 45.3359 311.957V316H44.3281V312.027C44.3281 311.025 43.7773 310.457 42.8633 310.457C41.9141 310.457 41.2109 311.078 41.2109 312.18ZM47.9609 312.18V316H46.9531V309.637H47.9258V310.633H48.0078C48.3066 309.982 48.9043 309.555 49.8711 309.555C51.1602 309.555 52.0215 310.34 52.0156 311.957V316H51.0078V312.027C51.0078 311.043 50.4688 310.457 49.5664 310.457C48.6406 310.457 47.9609 311.078 47.9609 312.18ZM53.6328 316V309.637H54.6406V316H53.6328ZM53.4336 307.914C53.4277 307.539 53.75 307.24 54.1367 307.246C54.5234 307.24 54.8457 307.539 54.8516 307.914C54.8457 308.283 54.5234 308.582 54.1367 308.582C53.75 308.582 53.4277 308.283 53.4336 307.914ZM58.8477 316.129C57.043 316.135 55.9414 314.758 55.9414 312.848C55.9414 310.914 57.0957 309.555 58.8242 309.555C60.1777 309.555 61.1973 310.357 61.3555 311.559H60.3477C60.2012 310.979 59.6973 310.445 58.8477 310.445C57.7109 310.445 56.9551 311.383 56.9492 312.812C56.9551 314.283 57.6934 315.227 58.8477 315.227C59.5977 315.227 60.1719 314.822 60.3477 314.125H61.3555C61.1973 315.262 60.2598 316.135 58.8477 316.129ZM62.293 314.195C62.293 312.736 63.582 312.402 64.6836 312.32C65.0938 312.291 66.1191 312.232 66.4062 312.227V311.711C66.4062 310.902 65.9258 310.434 64.9648 310.434C64.1621 310.434 63.6758 310.803 63.5352 311.289H62.4805C62.6094 310.264 63.6055 309.555 65.0117 309.555C65.8438 309.555 67.4082 309.801 67.4023 311.805V316H66.4062V315.133H66.3594C66.1484 315.561 65.5684 316.146 64.4609 316.152C63.2539 316.146 62.293 315.438 62.293 314.195ZM63.3008 314.242C63.3066 314.916 63.8633 315.256 64.6367 315.25C65.7734 315.256 66.4062 314.494 66.4062 313.691V313.053C66.1074 313.07 65.1055 313.146 64.8008 313.164C63.8867 313.223 63.3066 313.545 63.3008 314.242ZM70.0273 307.516V316H69.0195V307.516H70.0273ZM74.6445 318.391V309.637H75.6172V310.645H75.7344C75.9512 310.305 76.3379 309.555 77.5742 309.555C79.1738 309.555 80.2812 310.82 80.2812 312.836C80.2812 314.857 79.1738 316.135 77.5859 316.129C76.373 316.135 75.9512 315.379 75.7344 315.027H75.6523V318.391H74.6445ZM75.6289 312.812C75.6348 314.242 76.2734 315.227 77.4453 315.227C78.6523 315.227 79.2734 314.166 79.2734 312.812C79.2734 311.482 78.6699 310.457 77.4453 310.457C76.2559 310.457 75.6348 311.4 75.6289 312.812ZM81.5938 316V309.637H82.5664V310.609H82.6367C82.8652 309.965 83.5273 309.537 84.2773 309.531C84.4297 309.537 84.6875 309.543 84.8047 309.555V310.574C84.7285 310.557 84.459 310.504 84.1953 310.504C83.2812 310.504 82.6016 311.137 82.6016 311.992V316H81.5938ZM88.1797 316.129C86.4453 316.135 85.2734 314.822 85.2734 312.848C85.2734 310.861 86.4453 309.555 88.1797 309.555C89.9082 309.555 91.0684 310.861 91.0625 312.848C91.0684 314.822 89.9082 316.135 88.1797 316.129ZM86.2812 312.848C86.2871 314.119 86.8848 315.238 88.1797 315.238C89.4629 315.238 90.0547 314.119 90.0547 312.848C90.0547 311.582 89.4629 310.445 88.1797 310.445C86.8848 310.445 86.2871 311.582 86.2812 312.848ZM95.2344 309.637V310.48H93.8281V316H92.8086V310.48H91.7891V309.637H92.8086V308.77C92.8145 307.738 93.5 307.117 94.625 307.117C94.8711 307.117 95.1641 307.146 95.375 307.188V308.09C95.1582 308.055 94.9766 308.043 94.8477 308.043C94.1387 308.043 93.8223 308.336 93.8281 308.992V309.637H95.2344ZM96.4297 316V309.637H97.4375V316H96.4297ZM96.2305 307.914C96.2246 307.539 96.5469 307.24 96.9336 307.246C97.3203 307.24 97.6426 307.539 97.6484 307.914C97.6426 308.283 97.3203 308.582 96.9336 308.582C96.5469 308.582 96.2246 308.283 96.2305 307.914ZM101.645 316.129C99.8398 316.135 98.7383 314.758 98.7383 312.848C98.7383 310.914 99.8926 309.555 101.621 309.555C102.975 309.555 103.994 310.357 104.152 311.559H103.145C102.998 310.979 102.494 310.445 101.645 310.445C100.508 310.445 99.752 311.383 99.7461 312.812C99.752 314.283 100.49 315.227 101.645 315.227C102.395 315.227 102.969 314.822 103.145 314.125H104.152C103.994 315.262 103.057 316.135 101.645 316.129ZM105.395 316V309.637H106.402V316H105.395ZM105.195 307.914C105.189 307.539 105.512 307.24 105.898 307.246C106.285 307.24 106.607 307.539 106.613 307.914C106.607 308.283 106.285 308.582 105.898 308.582C105.512 308.582 105.189 308.283 105.195 307.914ZM110.68 316.129C108.84 316.135 107.703 314.822 107.703 312.871C107.703 310.914 108.857 309.555 110.586 309.555C111.922 309.555 113.334 310.375 113.328 312.73V313.152H108.711C108.764 314.5 109.549 315.238 110.68 315.238C111.441 315.238 111.922 314.904 112.156 314.512H113.234C112.936 315.479 111.992 316.135 110.68 316.129ZM108.717 312.297H112.309C112.303 311.236 111.635 310.445 110.586 310.445C109.484 310.445 108.787 311.312 108.717 312.297ZM115.648 312.18V316H114.641V309.637H115.613V310.633H115.695C115.994 309.982 116.592 309.555 117.559 309.555C118.848 309.555 119.709 310.34 119.703 311.957V316H118.695V312.027C118.695 311.043 118.156 310.457 117.254 310.457C116.328 310.457 115.648 311.078 115.648 312.18ZM123.922 316.129C122.117 316.135 121.016 314.758 121.016 312.848C121.016 310.914 122.17 309.555 123.898 309.555C125.252 309.555 126.271 310.357 126.43 311.559H125.422C125.275 310.979 124.771 310.445 123.922 310.445C122.785 310.445 122.029 311.383 122.023 312.812C122.029 314.283 122.768 315.227 123.922 315.227C124.672 315.227 125.246 314.822 125.422 314.125H126.43C126.271 315.262 125.334 316.135 123.922 316.129ZM128.316 318.391C128.1 318.385 127.883 318.379 127.754 318.367V317.465C127.859 317.477 128.088 317.482 128.246 317.488C128.656 317.482 129.002 317.459 129.336 316.527L129.523 316.047L127.168 309.637H128.27L130.004 314.688H130.074L131.809 309.637H132.91L130.215 316.914C129.84 317.916 129.219 318.385 128.316 318.391ZM137.035 316V309.637H138.043V316H137.035ZM136.836 307.914C136.83 307.539 137.152 307.24 137.539 307.246C137.926 307.24 138.248 307.539 138.254 307.914C138.248 308.283 137.926 308.582 137.539 308.582C137.152 308.582 136.83 308.283 136.836 307.914ZM140.656 312.18V316H139.648V309.637H140.621V310.633H140.703C141.002 309.982 141.6 309.555 142.566 309.555C143.855 309.555 144.717 310.34 144.711 311.957V316H143.703V312.027C143.703 311.043 143.164 310.457 142.262 310.457C141.336 310.457 140.656 311.078 140.656 312.18ZM156.641 311.758C156.646 314.441 155.064 316.117 152.891 316.117C150.711 316.117 149.135 314.441 149.141 311.758C149.135 309.074 150.711 307.398 152.891 307.398C155.064 307.398 156.646 309.074 156.641 311.758ZM150.16 311.758C150.166 313.943 151.355 315.127 152.891 315.133C154.426 315.127 155.615 313.943 155.621 311.758C155.615 309.566 154.426 308.383 152.891 308.383C151.355 308.383 150.166 309.566 150.16 311.758ZM158.059 318.391V309.637H159.031V310.645H159.148C159.365 310.305 159.752 309.555 160.988 309.555C162.588 309.555 163.695 310.82 163.695 312.836C163.695 314.857 162.588 316.135 161 316.129C159.787 316.135 159.365 315.379 159.148 315.027H159.066V318.391H158.059ZM159.043 312.812C159.049 314.242 159.688 315.227 160.859 315.227C162.066 315.227 162.688 314.166 162.688 312.812C162.688 311.482 162.084 310.457 160.859 310.457C159.67 310.457 159.049 311.4 159.043 312.812ZM168.547 311.289C168.406 310.762 168.002 310.416 167.258 310.41C166.473 310.416 165.916 310.838 165.91 311.371C165.916 311.793 166.256 312.08 167 312.262L167.949 312.496C169.086 312.766 169.643 313.334 169.648 314.219C169.643 315.32 168.746 316.135 167.152 316.129C165.723 316.135 164.873 315.496 164.703 314.336H165.758C165.875 314.957 166.326 315.256 167.129 315.25C168.037 315.256 168.605 314.875 168.605 314.277C168.605 313.826 168.283 313.533 167.562 313.363L166.602 313.141C165.494 312.883 164.902 312.279 164.902 311.43C164.902 310.34 165.857 309.555 167.258 309.555C168.576 309.555 169.402 310.258 169.531 311.289H168.547Z" fill="#ECECF8"/>
<circle cx="271" cy="312" r="6" fill="#944AF2"/>
<circle cx="295" cy="312" r="6" fill="#ECECF8" fill-opacity="0.3"/>
<circle cx="319" cy="312" r="6" fill="#ECECF8" fill-opacity="0.3"/>
<circle cx="343" cy="312" r="6" fill="#ECECF8" fill-opacity="0.3"/>
<circle cx="367" cy="312" r="6" fill="#ECECF8" fill-opacity="0.3"/>
</g>
<rect x="0.5" y="0.5" width="404" height="341" rx="19.5" stroke="white" stroke-opacity="0.2"/>
<defs>
<filter id="filter0_f_518_4557" x="121.033" y="88.6689" width="23.5664" height="28.2012" filterUnits="userSpaceOnUse" color-interpolation-filters="sRGB">
<feFlood flood-opacity="0" result="BackgroundImageFix"/>
<feBlend mode="normal" in="SourceGraphic" in2="BackgroundImageFix" result="shape"/>
<feGaussianBlur stdDeviation="2" result="effect1_foregroundBlur_518_4557"/>
</filter>
<linearGradient id="paint0_linear_518_4557" x1="101.001" y1="144.683" x2="117.501" y2="192.183" gradientUnits="userSpaceOnUse">
<stop stop-color="#FBBFB4"/>
<stop offset="1" stop-color="#EA8F7F"/>
</linearGradient>
<linearGradient id="paint1_linear_518_4557" x1="120" y1="137.684" x2="121.5" y2="154.184" gradientUnits="userSpaceOnUse">
<stop stop-color="#E79795"/>
<stop offset="1" stop-color="#E79795" stop-opacity="0"/>
</linearGradient>
<linearGradient id="paint2_linear_518_4557" x1="84.1553" y1="90.9482" x2="72.9451" y2="138.623" gradientUnits="userSpaceOnUse">
<stop stop-color="#060204"/>
<stop offset="1" stop-color="#2E0822"/>
</linearGradient>
<linearGradient id="paint3_linear_518_4557" x1="75.6368" y1="82.6647" x2="74.1573" y2="131.618" gradientUnits="userSpaceOnUse">
<stop stop-color="#060204"/>
<stop offset="1" stop-color="#2E0822"/>
</linearGradient>
<linearGradient id="paint4_linear_518_4557" x1="137" y1="99.1829" x2="105.902" y2="141.806" gradientUnits="userSpaceOnUse">
<stop stop-color="#FFD3CB"/>
<stop offset="1" stop-color="#FFB2A4"/>
</linearGradient>
<radialGradient id="paint5_radial_518_4557" cx="0" cy="0" r="1" gradientUnits="userSpaceOnUse" gradientTransform="translate(120.001 93.6841) rotate(135) scale(4.94975 5.11474)">
<stop stop-color="#4B3F47"/>
<stop offset="1" stop-color="#1C1519"/>
</radialGradient>
<radialGradient id="paint6_radial_518_4557" cx="0" cy="0" r="1" gradientUnits="userSpaceOnUse" gradientTransform="translate(144.501 93.6841) rotate(114.444) scale(6.04152 5.24743)">
<stop stop-color="#4B3F47"/>
<stop offset="1" stop-color="#1C1519"/>
</radialGradient>
<linearGradient id="paint7_linear_518_4557" x1="104.098" y1="36.0285" x2="94.2443" y2="117.403" gradientUnits="userSpaceOnUse">
<stop stop-color="#060204"/>
<stop offset="1" stop-color="#2E0822"/>
</linearGradient>
<linearGradient id="paint8_linear_518_4557" x1="110.001" y1="157.827" x2="110.001" y2="220" gradientUnits="userSpaceOnUse">
<stop offset="0.411458" stop-color="#202F72"/>
<stop offset="1" stop-color="#0D1021"/>
</linearGradient>
<linearGradient id="paint9_linear_518_4557" x1="137.798" y1="42.3886" x2="132.203" y2="88.5971" gradientUnits="userSpaceOnUse">
<stop stop-color="#090207"/>
<stop offset="1" stop-color="#2E0822"/>
</linearGradient>
<linearGradient id="paint10_linear_518_4557" x1="143.255" y1="44.4967" x2="137.484" y2="92.1533" gradientUnits="userSpaceOnUse">
<stop stop-color="#080306"/>
<stop offset="1" stop-color="#2E0822"/>
</linearGradient>
<linearGradient id="paint11_linear_518_4557" x1="126.937" y1="41.3333" x2="123.4" y2="90.1809" gradientUnits="userSpaceOnUse">
<stop stop-color="#060204"/>
<stop offset="1" stop-color="#2E0822"/>
</linearGradient>
<linearGradient id="paint12_linear_518_4557" x1="120.642" y1="53.6657" x2="102.787" y2="99.2703" gradientUnits="userSpaceOnUse">
<stop stop-color="#060204"/>
<stop offset="1" stop-color="#2E0822"/>
</linearGradient>
<clipPath id="clip0_518_4557">
<rect width="405" height="342" rx="20" fill="white"/>
</clipPath>
</defs>
</svg>
