<svg width="300" height="600" viewBox="0 0 300 600" fill="none" xmlns="http://www.w3.org/2000/svg">
<rect width="300" height="600" rx="20" fill="#1C1B20"/>
<rect x="20" y="46" width="260" height="197.183" rx="8.4507" fill="url(#paint0_linear_988_3579)" fill-opacity="0.5"/>
<ellipse cx="187.187" cy="135.422" rx="4.57746" ry="11.9718" transform="rotate(9.95946 187.187 135.422)" fill="#F3A4A7"/>
<circle cx="186.62" cy="147.409" r="4.92958" fill="white"/>
<path d="M140.191 195.296C144.698 192.761 139.486 163.019 136.317 148.465C143.477 148.465 157.937 149.099 158.5 151.634C159.064 154.17 165.543 178.043 168.712 189.663L152.515 216.775C146.529 210.672 135.684 197.832 140.191 195.296Z" fill="#FDC6BF"/>
<mask id="mask0_988_3579" style="mask-type:alpha" maskUnits="userSpaceOnUse" x="136" y="148" width="33" height="69">
<path d="M140.191 195.296C144.698 192.761 139.486 163.019 136.317 148.465C143.477 148.465 157.937 149.099 158.5 151.634C159.064 154.17 165.543 178.043 168.712 189.663L152.515 216.775C146.529 210.672 135.684 197.832 140.191 195.296Z" fill="#FDC6BF"/>
</mask>
<g mask="url(#mask0_988_3579)">
<path d="M167.655 155.508L172.585 185.085C172.585 185.085 165.895 189.663 149.697 173.465C133.5 157.268 129.627 152.339 129.627 152.339L133.852 142.127L167.655 155.508Z" fill="#F3A4A7"/>
</g>
<path d="M119.77 65.7192C129.065 59.8037 134.441 68.184 135.967 73.1135C139.49 73.1135 134.557 78.0428 132.444 86.8456C130.331 95.6484 126.81 115.015 122.937 122.057C119.064 129.099 114.486 133.677 111.669 147.057C109.416 157.761 118.242 175.461 122.937 182.972C116.247 176.986 101.108 160.085 94.0653 140.367C85.2623 115.719 106.037 117.832 102.868 94.5921C99.6993 71.3526 108.15 73.1135 119.77 65.7192Z" fill="#A9504F"/>
<circle cx="125.754" cy="83.3244" r="9.50704" fill="white"/>
<path d="M110.916 97.4086C118.24 68.3945 147.535 68.4177 159.507 74.8731C168.238 70.6481 171.293 78.7474 171.529 82.2682L153.571 152.691C152.817 159.733 127.747 158.254 124.648 149.521C120.775 138.606 101.761 133.676 110.916 97.4086Z" fill="#DE6351"/>
<path d="M194.414 83.6763C187.935 74.0989 164.484 76.5157 158.498 81.5627C150.752 91.4214 170.536 98.113 173.353 105.507C175.606 111.423 182.981 134.497 184.859 143.183C186.385 140.601 194.414 131.563 191.949 119.24C189.484 106.916 200.893 93.2538 194.414 83.6763Z" fill="#DE6351"/>
<path d="M185.963 117.127C186.808 112.057 186.667 105.154 176.104 91.0694C165.54 76.9849 140.543 92.4793 135.965 98.8173C131.388 105.155 131.388 128.747 129.977 127.691C128.566 126.634 125.752 125.93 122.583 128.747C119.414 131.564 120.47 139.31 121.174 144.24C121.878 149.169 127.512 150.93 129.977 152.691C131.949 154.099 137.137 154.686 139.484 154.803C145.472 169.592 171.529 172.157 173.641 172.761C175.754 173.365 178.571 172.761 179.979 170.648C181.388 168.536 180.699 162.354 185.963 153.747C189.839 147.409 188.43 144.944 186.667 140.015C185.02 135.409 184.907 123.465 185.963 117.127Z" fill="#FDC4BD"/>
<path d="M132.797 137.198C133.853 138.959 132.447 140.367 131.038 141.776C129.151 143.663 131.395 145.296 131.39 145.296C129.984 148.113 129.628 147.761 125.051 145.296C120.473 142.832 120.825 134.734 124.346 132.269C127.868 129.804 131.741 135.438 132.797 137.198Z" fill="#FA9CAE"/>
<path d="M169.768 153.728C174.538 154.026 178.422 154.093 180.331 153.023C177.866 155.136 177.779 156.382 175.05 156.545C170.584 156.81 164.328 155.209 162.726 153.023C164.694 154.008 167.206 153.568 169.768 153.728Z" fill="white"/>
<path d="M162.021 153.032C176.106 156.193 177.749 154.675 180.683 153.032C180.402 152.468 179.158 152.266 178.571 151.359C178.219 151.006 177.162 151.967 176.458 152.319C175.895 152.601 174.58 151.945 173.641 151.711L162.021 153.032Z" fill="#E25E78"/>
<path d="M146.53 123.029C148.643 119.86 150.403 120.565 152.868 119.508C154.824 118.67 159.482 120.765 161.619 121.944C162.978 122.973 162.726 127.959 162.726 129.015C162.726 130.071 160.261 132.536 158.852 132.888C157.444 133.24 150.403 131.832 148.995 130.776C147.586 129.719 144.417 126.198 146.53 123.029Z" fill="#EDF1FA"/>
<mask id="mask1_988_3579" style="mask-type:alpha" maskUnits="userSpaceOnUse" x="145" y="119" width="18" height="14">
<path d="M146.529 123.03C148.642 119.861 150.402 120.565 152.867 119.509C154.823 118.671 159.481 120.766 161.618 121.945C162.977 122.973 162.725 127.959 162.725 129.016C162.725 130.072 160.26 132.537 158.851 132.889C157.443 133.241 150.402 131.832 148.994 130.776C147.585 129.72 144.416 126.199 146.529 123.03Z" fill="#EDF1FA"/>
</mask>
<g mask="url(#mask1_988_3579)">
<path d="M155.684 129.016C154.259 126.165 154.745 121.739 155.684 119.509C157.093 117.748 161.669 120.565 162.373 121.973C163.078 123.382 164.157 130.315 162.021 132.185C159.204 134.651 157.798 133.242 155.684 129.016Z" fill="#51673E"/>
</g>
<path d="M148.291 130.071C146.319 128.944 146.061 125.611 146.178 124.086C147.367 121.707 149.144 120.755 151.106 120.212C154.719 119.212 159.663 121.034 162.021 122.327C159.909 119.863 153.923 117.817 149.697 119.508C145.472 121.198 145.12 120.212 144.416 119.508C144.768 120.916 146.035 122.043 148.289 120.916C147.585 121.973 145.683 123.945 143.711 123.381C141.74 122.818 141.012 122.677 140.895 122.677C142.186 123.264 144.838 124.438 145.12 124.438C145.472 124.438 145.472 125.846 145.824 126.55C146.176 127.254 146.532 129.366 148.291 130.071Z" fill="#000525"/>
<ellipse cx="159.205" cy="125.494" rx="1.05634" ry="2.8169" fill="#000525"/>
<ellipse cx="156.387" cy="123.381" rx="1.05634" ry="0.704225" fill="white"/>
<path d="M183.207 122.991C181.915 119.822 180.838 120.526 179.331 119.47C178.135 118.631 175.286 120.727 173.979 121.906C173.149 122.934 173.303 127.92 173.303 128.976C173.303 130.033 174.81 132.498 175.671 132.85C176.533 133.202 180.838 131.793 181.7 130.737C182.561 129.681 184.499 126.16 183.207 122.991Z" fill="#EDF1FA"/>
<mask id="mask2_988_3579" style="mask-type:alpha" maskUnits="userSpaceOnUse" x="173" y="119" width="11" height="14">
<path d="M183.208 122.991C181.916 119.822 180.839 120.526 179.332 119.47C178.136 118.631 175.287 120.727 173.98 121.906C173.15 122.934 173.304 127.92 173.304 128.976C173.304 130.033 174.811 132.498 175.672 132.85C176.534 133.202 180.839 131.793 181.701 130.737C182.562 129.681 184.5 126.16 183.208 122.991Z" fill="#EDF1FA"/>
</mask>
<g mask="url(#mask2_988_3579)">
<path d="M183.654 127.547C185.032 125.294 184.228 120.27 183.654 118.04C182.792 116.28 179.994 119.097 179.563 120.505C179.133 121.914 176.966 130.859 182.093 130.859C184.91 130.859 181.931 130.364 183.654 127.547Z" fill="#51673E"/>
</g>
<path d="M183.422 124.047C183.494 125.573 183.336 128.906 182.13 130.033C183.206 129.328 183.423 127.216 183.639 126.512C183.854 125.808 183.854 124.399 184.069 124.399C184.242 124.399 185.864 123.225 186.653 122.639C186.582 122.639 186.137 122.779 184.931 123.343C183.725 123.906 182.875 122.057 182.444 121C183.593 121.939 184.105 120.903 184.368 119.988C184.462 119.826 184.5 119.639 184.5 119.469C184.464 119.626 184.421 119.804 184.368 119.988C184.074 120.494 183.229 120.751 181.27 119.469C178.686 117.779 175.455 120.174 174.163 121.582C175.549 120.339 178.181 119.511 180.332 120.296C181.633 120.771 182.643 121.499 183.422 124.047Z" fill="#000525"/>
<ellipse rx="0.645991" ry="2.8169" transform="matrix(-1 0 0 1 180.979 125.226)" fill="#000525"/>
<ellipse rx="0.645991" ry="0.704225" transform="matrix(-1 0 0 1 180.275 123.113)" fill="white"/>
<path d="M155.685 109.38C168.08 99.803 166.249 89.4274 163.784 85.4368C163.784 70.9508 143.007 78.3946 129.627 88.6058C116.246 98.8171 126.81 111.845 129.627 127.338C132.443 142.831 145.122 147.057 138.432 138.606C131.742 130.155 140.192 121.352 155.685 109.38Z" fill="#DE6351"/>
<path d="M144.111 120.155C155.13 106.451 161.881 110.567 163.879 114.338C155.907 112.074 157.246 113.217 153.315 114.029C151.364 114.432 146.351 118.179 144.111 120.155Z" fill="#401109"/>
<path d="M175.604 115.745C178.575 114.664 183.781 113.593 185.618 115.744C184.977 114.122 183.149 113.324 180.682 112.903C178.216 112.482 176.45 113.316 175.604 115.745Z" fill="#401109"/>
<path d="M103.57 243.183C103.852 232.761 114.486 199.986 125.049 193.883C144.063 185.784 179.979 181.921 194.063 182.977C205.331 183.822 210.495 229.568 207.091 243.183H103.57Z" fill="#F1CF73"/>
<path d="M140.543 177.338C139.486 180.155 134.557 188.817 134.557 198.113C146.881 218.183 172.233 198.113 174.345 191.071C176.036 185.437 168.712 177.69 164.838 174.521C164.251 175.695 162.184 184.733 151.458 184.733C142.303 184.733 144.768 180.155 140.543 177.338Z" fill="#F9EFE4"/>
<path d="M172.937 155.86C177.707 156.158 178.422 154.093 180.331 153.023C178.219 155.136 177.427 158.847 174.698 159.009C170.232 159.275 167.303 157.601 162.021 153.023C164.134 153.376 170.376 155.699 172.937 155.86Z" fill="#E25E78"/>
<g filter="url(#filter0_f_988_3579)">
<path d="M181.035 133.677C177.091 135.367 174.97 132.112 173.913 130.234C171.448 134.811 169.338 138.685 167.93 140.797C166.522 142.91 169.691 142.91 170.747 142.91C171.803 142.91 173.212 143.614 174.62 145.023C175.747 146.149 177.254 145.675 177.866 145.296C180.965 142.198 181.27 136.259 181.035 133.677Z" fill="#F5A69C"/>
</g>
<path d="M173.916 130.234C174.972 132.112 177.092 135.367 181.035 133.677C181.27 136.259 180.965 142.198 177.866 145.296" stroke="#65332D" stroke-width="0.704225" stroke-linecap="round"/>
<path d="M170.473 142.831C172.163 142.268 173.994 142.831 174.346 143.183C174.346 143.535 173.788 143.68 173.29 143.183C172.937 142.831 171.06 142.714 170.473 142.831Z" fill="#3A2323"/>
<circle cx="177.515" cy="137.198" r="0.704225" fill="white"/>
<circle cx="137.324" cy="155.156" r="4.92958" fill="white"/>
<path d="M30.6597 260.113H29.353V272.464H30.6597V260.113ZM20.8803 265.353C20.8803 268.015 22.2076 269.693 24.0713 269.686C25.9006 269.693 27.2486 268.015 27.2486 265.353C27.2486 262.719 25.9006 261.041 24.0713 261.034C22.2076 261.041 20.8803 262.719 20.8803 265.353ZM22.1457 265.353C22.1388 263.421 22.9228 262.21 24.0713 262.203C25.1992 262.21 25.9832 263.421 25.9832 265.353C25.9832 267.313 25.1992 268.517 24.0713 268.517C22.9228 268.517 22.1388 267.313 22.1457 265.353ZM43.8914 266.426H32.6128V267.471H43.8914V266.426ZM34.0295 261.419H41.168V262.465H34.057V265.491H42.7223V264.487H35.3499V263.428H42.4747V260.388H34.0295V261.419ZM34.112 272.285H42.4884V268.475H34.112V272.285ZM35.4049 271.226V269.521H41.1955V271.226H35.4049Z" fill="#ECECF8" fill-opacity="0.7"/>
<path d="M33.3528 279.6H31.3556V287.275H33.3528V279.6ZM20.5117 283.61C20.5034 285.558 21.9476 286.928 23.9613 286.928C25.6861 286.928 27.0065 285.921 27.3531 284.403H28.3682V287.209H30.3158V279.847H28.3682V282.703H27.3366C26.957 281.192 25.6531 280.26 23.9613 280.276C21.9476 280.26 20.5034 281.58 20.5117 283.61ZM22.3933 283.61C22.385 282.529 23.037 281.886 23.9613 281.877C24.8773 281.886 25.5458 282.529 25.5623 283.61C25.5458 284.642 24.8773 285.253 23.9613 285.261C23.037 285.253 22.385 284.642 22.3933 283.61ZM23.07 289.437H31.2401V290.312H23.0865V294.438H33.8644V292.787H25.2157V291.847H33.3528V287.819H23.07V289.437ZM47.6463 279.583H45.5502V294.636H47.6463V279.583ZM35.8451 282.538H40.8462V284.964H35.8616V291.12H37.215C39.9549 291.12 42.1914 291.03 44.6589 290.592L44.4773 288.892C42.2739 289.255 40.3345 289.371 38.0403 289.387V286.631H42.9919V280.838H35.8451V282.538Z" fill="#ECECF8"/>
<path d="M32.8741 314.823H22.8554V316.061H31.3061V320.121H32.8741V314.823ZM20.7592 309.723C20.751 311.827 22.4098 313.313 24.638 313.305C25.8924 313.313 26.9652 312.826 27.6585 312.017H31.3061V314.047H32.8741V305.332H31.3061V307.445H27.6585C26.9735 306.636 25.8924 306.149 24.638 306.158C22.4098 306.149 20.751 307.635 20.7592 309.723ZM22.2612 309.723C22.253 308.402 23.2515 307.486 24.638 307.478C25.9667 307.486 26.9817 308.402 26.9817 309.723C26.9817 311.076 25.9667 311.976 24.638 311.984C23.2515 311.976 22.253 311.076 22.2612 309.723ZM28.3434 310.73C28.4342 310.416 28.4837 310.078 28.4837 309.723C28.4837 309.376 28.4342 309.046 28.3517 308.733H31.3061V310.73H28.3434ZM46.7716 305.283H45.2036V313.42H46.7716V310.036H48.9338V308.749H46.7716V305.283ZM35.1684 307.825H43.9822V306.587H40.3675V305.2H38.7995V306.587H35.1684V307.825ZM35.9771 310.812C35.9689 312.314 37.4048 313.23 39.5753 313.222C41.7457 313.23 43.1569 312.314 43.1569 310.812C43.1569 309.319 41.7457 308.386 39.5753 308.386C37.4048 308.386 35.9689 309.319 35.9771 310.812ZM37.215 315.285H45.2201V316.441H37.248V319.973H47.2832V318.784H38.783V317.546H46.7716V314.113H37.215V315.285ZM37.4956 310.812C37.4791 310.012 38.2961 309.517 39.5753 309.508C40.8462 309.517 41.6714 310.012 41.6879 310.812C41.6714 311.613 40.8462 312.083 39.5753 312.083C38.2961 312.083 37.4791 311.613 37.4956 310.812ZM66.3798 312.034H62.6001V307.94H66.2313V306.669H61.0321V313.288H66.3798V312.034ZM53.8853 318.273H67.4197V317.002H61.3622V313.998H59.8272V317.002H53.8853V318.273ZM55.0077 313.288H55.8825C57.4505 313.296 58.7874 313.255 60.3719 312.908L60.2399 311.604C58.9607 311.893 57.8054 311.984 56.5757 312.001V307.957H60.1078V306.686H55.0077V313.288ZM80.4588 309.657H71.8266V305.861H70.2751V310.911H80.4588V309.657ZM68.476 314.031H82.0103V312.776H68.476V314.031ZM70.1596 319.775H80.5579V318.487H71.7276V315.434H70.1596V319.775ZM92.7058 307.99V307.577H95.9573V306.306H87.8037V307.577H91.1213V307.99C91.113 309.995 89.6936 311.926 87.3911 312.727L88.1998 313.932C89.9576 313.313 91.2698 312.042 91.9383 310.441C92.6067 311.926 93.8942 313.09 95.5942 313.651L96.403 312.43C94.117 311.712 92.7058 309.888 92.7058 307.99ZM89.4707 316.275H97.9214V320.121H99.4894V315.005H89.4707V316.275ZM97.9214 314.262H99.4894V305.332H97.9214V314.262ZM106.306 308.584V308.452H108.848V307.198H106.306V305.498H104.821V307.198H102.246V308.452H104.821V308.584C104.812 310.375 103.789 312.067 101.916 312.826L102.658 313.981C104.094 313.395 105.085 312.289 105.605 310.944C106.133 312.182 107.107 313.197 108.501 313.734L109.244 312.545C107.362 311.877 106.306 310.251 106.306 308.584ZM104.392 316.408H112.892V320.121H114.443V315.137H104.392V316.408ZM109.772 314.328H111.274V310.499H112.958V314.394H114.443V305.349H112.958V309.211H111.274V305.597H109.772V314.328Z" fill="#ECECF8" fill-opacity="0.7"/>
<rect x="20.3521" y="328.704" width="128.197" height="24.9296" rx="12.4648" fill="#170330"/>
<path d="M31.9338 335.219H29.458V347.169H31.9338V335.219ZM36.3407 341.986C36.3407 340.806 37.0422 340.121 38.0572 340.121C39.0723 340.121 39.6665 340.781 39.6748 341.887V347.169H42.101V341.458C42.1093 339.37 40.8879 338.091 39.0146 338.091C37.6859 338.091 36.7286 338.743 36.3242 339.775H36.2252V338.207H33.8979V347.169H36.3407V341.986ZM48.7692 338.207H46.9866V337.662C46.9866 336.911 47.4075 336.614 48.1915 336.606C48.3235 336.614 48.5794 336.622 48.9342 336.655V334.806C48.5051 334.707 48.0347 334.658 47.4818 334.658C45.6827 334.658 44.5438 335.64 44.5438 337.53V338.207H43.2729V340.039H44.5438V347.169H46.9866V340.039H48.7692V338.207ZM50.2051 347.169H52.6479V342.069C52.6397 340.971 53.4567 340.204 54.5625 340.204C54.9009 340.204 55.3713 340.261 55.6024 340.336V338.157C55.3878 338.108 55.0742 338.075 54.8266 338.075C53.8198 338.075 52.9863 338.66 52.6644 339.758H52.5654V338.207H50.2051V347.169ZM56.114 344.66C56.1223 346.434 57.3849 347.342 59.1015 347.334C60.4302 347.342 61.2884 346.756 61.7258 345.931H61.7918V347.169H64.1026V341.128C64.1108 338.966 62.2622 338.091 60.3064 338.091C57.9296 338.091 56.5762 339.312 56.4276 340.864H58.7549C58.8869 340.253 59.4068 339.882 60.2403 339.874C61.1564 339.882 61.6681 340.311 61.6763 341.062V341.788C61.2967 341.805 60.0918 341.862 59.4481 341.904C57.7233 342.011 56.1223 342.663 56.114 344.66ZM58.4578 344.594C58.4578 343.901 58.9942 343.497 59.8442 343.422C60.2569 343.389 61.3049 343.331 61.6763 343.315V343.967C61.6846 344.916 60.9088 345.642 59.7947 345.65C59.0107 345.642 58.4578 345.279 58.4578 344.594ZM69.9124 347.169H77.9505V345.122H72.3882V342.217H77.5214V340.171H72.3882V337.266H77.934V335.219H69.9124V347.169ZM82.2584 341.986C82.2584 340.806 82.9599 340.121 83.9749 340.121C84.99 340.121 85.5842 340.781 85.5925 341.887V347.169H88.0187V341.458C88.027 339.37 86.8056 338.091 84.9322 338.091C83.6036 338.091 82.6463 338.743 82.2419 339.775H82.1429V338.207H79.8156V347.169H82.2584V341.986ZM93.9441 350.718C96.4942 350.718 98.2933 349.554 98.3015 347.268V338.207H95.8753V339.709H95.7762C95.4461 338.982 94.7199 338.091 93.2179 338.091C91.2373 338.091 89.5702 339.601 89.5702 342.63C89.5702 345.617 91.196 347.045 93.2179 347.037C94.6621 347.045 95.4544 346.311 95.7762 345.584H95.8918V347.218C95.8835 348.465 95.1243 348.952 93.9936 348.952C93.0198 348.952 92.3431 348.63 92.2111 347.912H89.8013C89.9416 349.603 91.4683 350.718 93.9441 350.718ZM92.079 342.663C92.0708 341.12 92.731 340.039 93.9771 340.039C95.2068 340.039 95.8918 341.07 95.8918 342.663C95.8918 344.256 95.1985 345.197 93.9771 345.205C92.7392 345.197 92.0708 344.214 92.079 342.663ZM100.2 347.169H102.642V338.207H100.2V347.169ZM100.084 335.797C100.084 336.474 100.687 337.035 101.421 337.035C102.147 337.035 102.75 336.474 102.741 335.797C102.75 335.104 102.147 334.551 101.421 334.542C100.687 334.551 100.084 335.104 100.084 335.797ZM106.983 341.986C106.983 340.806 107.685 340.121 108.7 340.121C109.715 340.121 110.309 340.781 110.317 341.887V347.169H112.744V341.458C112.752 339.37 111.531 338.091 109.657 338.091C108.328 338.091 107.371 338.743 106.967 339.775H106.868V338.207H104.541V347.169H106.983V341.986ZM118.702 347.351C120.914 347.342 122.399 346.269 122.746 344.611H120.419C120.179 345.147 119.585 345.51 118.752 345.518C117.489 345.51 116.688 344.677 116.688 343.323H122.812V342.63C122.812 339.577 120.955 338.091 118.603 338.091C115.979 338.091 114.27 339.964 114.279 342.729C114.27 345.568 115.954 347.342 118.702 347.351ZM116.688 341.788C116.738 340.757 117.53 339.915 118.653 339.923C119.742 339.915 120.493 340.699 120.501 341.788H116.688ZM128.407 347.351C130.619 347.342 132.104 346.269 132.451 344.611H130.124C129.884 345.147 129.29 345.51 128.457 345.518C127.194 345.51 126.394 344.677 126.394 343.323H132.517V342.63C132.517 339.577 130.66 338.091 128.308 338.091C125.684 338.091 123.975 339.964 123.984 342.729C123.975 345.568 125.659 347.342 128.407 347.351ZM126.394 341.788C126.443 340.757 127.235 339.915 128.358 339.923C129.447 339.915 130.198 340.699 130.206 341.788H126.394ZM134.052 347.169H136.495V342.069C136.486 340.971 137.304 340.204 138.409 340.204C138.748 340.204 139.218 340.261 139.449 340.336V338.157C139.235 338.108 138.921 338.075 138.673 338.075C137.667 338.075 136.833 338.66 136.511 339.758H136.412V338.207H134.052V347.169Z" fill="#944AF2"/>
<rect x="20.3521" y="328.704" width="128.197" height="24.9296" rx="12.4648" stroke="#944AF2" stroke-width="0.704225"/>
<rect x="20.3521" y="359.972" width="151.197" height="24.9296" rx="12.4648" fill="#170330"/>
<path d="M35.9446 369.903H38.3213C38.2883 367.791 36.547 366.322 33.8979 366.322C31.2818 366.322 29.3672 367.766 29.3755 369.936C29.3755 371.686 30.6134 372.693 32.627 373.188L33.9309 373.501C35.2348 373.823 35.9776 374.203 35.9776 375.02C35.9776 375.911 35.1358 376.522 33.8319 376.522C32.5115 376.522 31.5542 375.911 31.4716 374.706H29.0619C29.1361 377.273 30.9765 378.61 33.8649 378.602C36.7781 378.61 38.4781 377.207 38.4864 375.02C38.4781 373.031 36.9514 371.991 34.9047 371.521L33.8319 371.257C32.8003 371.026 31.909 370.638 31.9173 369.771C31.9255 368.979 32.627 368.401 33.8814 368.401C35.0945 368.401 35.8455 368.954 35.9446 369.903ZM41.4903 381.804C43.3802 381.795 44.3623 380.871 44.8739 379.427L48.373 369.474H45.7817L43.8836 376.076H43.7846L41.903 369.474H39.3447L42.5632 378.684L42.4146 379.064C42.1175 379.839 41.7297 379.889 41.2428 379.889C40.9374 379.889 40.566 379.881 40.2524 379.856V381.754C40.566 381.787 41.0117 381.795 41.4903 381.804ZM54.6781 372.132H56.9723C56.8403 370.431 55.4373 369.359 53.1761 369.359C50.8653 369.359 49.3881 370.431 49.3964 372.148C49.3881 373.477 50.2629 374.351 51.9712 374.69L53.4567 374.987C54.2984 375.16 54.6781 375.449 54.6781 375.911C54.6781 376.489 54.0839 376.844 53.1926 376.852C52.2931 376.844 51.7236 376.481 51.6081 375.779H49.1488C49.3551 377.529 50.7746 378.61 53.1926 378.618C55.5776 378.61 57.1621 377.43 57.1704 375.664C57.1621 374.376 56.3203 373.6 54.579 373.237L52.978 372.907C52.128 372.734 51.8144 372.42 51.8227 372.016C51.8144 371.471 52.4168 371.1 53.2091 371.092C54.0261 371.1 54.5708 371.504 54.6781 372.132ZM63.3929 369.474H61.7093V367.328H59.2665V369.474H58.0286V371.306H59.2665V376.027C59.25 377.768 60.4549 378.56 62.221 378.552C62.8234 378.56 63.2608 378.511 63.5249 378.47V376.538C63.2278 376.563 62.7987 376.588 62.5511 376.588C62.0559 376.571 61.7011 376.398 61.7093 375.68V371.306H63.3929V369.474ZM68.8891 378.618C71.1008 378.61 72.5863 377.537 72.9329 375.878H70.6057C70.3663 376.415 69.7721 376.778 68.9386 376.786C67.676 376.778 66.8755 375.944 66.8755 374.591H72.9989V373.898C72.9989 370.844 71.1421 369.359 68.7901 369.359C66.1657 369.359 64.4574 371.232 64.4657 373.997C64.4574 376.836 66.141 378.61 68.8891 378.618ZM66.8755 373.056C66.925 372.024 67.7172 371.182 68.8396 371.191C69.9289 371.182 70.6799 371.966 70.6882 373.056H66.8755ZM74.5339 378.437H76.9767V373.056C76.9684 372.041 77.6122 371.372 78.4457 371.372C79.2792 371.372 79.8404 371.942 79.8321 372.825V378.437H82.2089V372.957C82.2006 372.008 82.7453 371.372 83.6613 371.372C84.4618 371.372 85.0725 371.867 85.0643 372.891V378.437H87.5071V372.412C87.5071 370.456 86.3435 369.359 84.6847 369.359C83.3725 369.359 82.3492 370.027 81.9778 371.042H81.8953C81.5982 370.011 80.6821 369.359 79.4525 369.359C78.2476 369.359 77.3398 369.994 76.9602 371.042H76.8612V369.474H74.5339V378.437ZM93.3334 378.437H101.372V376.39H95.8092V373.485H100.942V371.438H95.8092V368.533H101.355V366.487H93.3334V378.437ZM105.679 373.254C105.679 372.074 106.381 371.389 107.396 371.389C108.411 371.389 109.005 372.049 109.013 373.155V378.437H111.44V372.726C111.448 370.638 110.227 369.359 108.353 369.359C107.025 369.359 106.067 370.011 105.663 371.042H105.564V369.474H103.237V378.437H105.679V373.254ZM117.365 381.985C119.915 381.985 121.714 380.822 121.723 378.536V369.474H119.296V370.976H119.197C118.867 370.25 118.141 369.359 116.639 369.359C114.658 369.359 112.991 370.869 112.991 373.898C112.991 376.885 114.617 378.313 116.639 378.304C118.083 378.313 118.875 377.578 119.197 376.852H119.313V378.486C119.304 379.732 118.545 380.219 117.415 380.219C116.441 380.219 115.764 379.897 115.632 379.179H113.222C113.363 380.871 114.889 381.985 117.365 381.985ZM115.5 373.931C115.492 372.387 116.152 371.306 117.398 371.306C118.628 371.306 119.313 372.338 119.313 373.931C119.313 375.523 118.62 376.464 117.398 376.472C116.16 376.464 115.492 375.482 115.5 373.931ZM123.621 378.437H126.063V369.474H123.621V378.437ZM123.505 367.064C123.505 367.741 124.108 368.302 124.842 368.302C125.568 368.302 126.171 367.741 126.162 367.064C126.171 366.371 125.568 365.818 124.842 365.81C124.108 365.818 123.505 366.371 123.505 367.064ZM130.404 373.254C130.404 372.074 131.106 371.389 132.121 371.389C133.136 371.389 133.73 372.049 133.738 373.155V378.437H136.165V372.726C136.173 370.638 134.952 369.359 133.078 369.359C131.749 369.359 130.792 370.011 130.388 371.042H130.289V369.474H127.962V378.437H130.404V373.254ZM142.123 378.618C144.335 378.61 145.82 377.537 146.167 375.878H143.84C143.6 376.415 143.006 376.778 142.173 376.786C140.91 376.778 140.109 375.944 140.109 374.591H146.233V373.898C146.233 370.844 144.376 369.359 142.024 369.359C139.4 369.359 137.691 371.232 137.7 373.997C137.691 376.836 139.375 378.61 142.123 378.618ZM140.109 373.056C140.159 372.024 140.951 371.182 142.074 371.191C143.163 371.182 143.914 371.966 143.922 373.056H140.109ZM151.828 378.618C154.04 378.61 155.525 377.537 155.872 375.878H153.545C153.305 376.415 152.711 376.778 151.878 376.786C150.615 376.778 149.815 375.944 149.815 374.591H155.938V373.898C155.938 370.844 154.081 369.359 151.729 369.359C149.105 369.359 147.396 371.232 147.405 373.997C147.396 376.836 149.08 378.61 151.828 378.618ZM149.815 373.056C149.864 372.024 150.656 371.182 151.779 371.191C152.868 371.182 153.619 371.966 153.627 373.056H149.815ZM157.473 378.437H159.916V373.336C159.907 372.239 160.725 371.471 161.83 371.471C162.169 371.471 162.639 371.529 162.87 371.603V369.425C162.656 369.375 162.342 369.342 162.094 369.342C161.088 369.342 160.254 369.928 159.932 371.026H159.833V369.474H157.473V378.437Z" fill="#944AF2"/>
<rect x="20.3521" y="359.972" width="151.197" height="24.9296" rx="12.4648" stroke="#944AF2" stroke-width="0.704225"/>
<path d="M28.2746 415.818H21.4305V419.339H24.1483V420.296H20.2971V421.429H29.43V420.296H25.5568V419.339H28.2746V415.818ZM21.3094 423.267H26.9212V425.435H28.3187V422.167H21.3094V423.267ZM22.8059 418.238V416.907H26.8992V418.238H22.8059ZM39.2011 423.201H36.8794V421.297H38.3869V420.164H37.0224V417.347H38.4309V416.225H30.7504V417.347H32.1369V420.164H30.7945V421.297H32.3129V423.201H30.0352V424.323H39.2011V423.201ZM33.5453 420.164V417.347H35.636V420.164H33.5453ZM33.7214 423.201V421.297H35.471V423.201H33.7214Z" fill="#ECECF8" fill-opacity="0.5"/>
<path d="M20.839 433.281V443.239H22.8472V436.692H22.9297L25.5293 443.198H26.9047L29.5043 436.72H29.5868V443.239H31.595V433.281H29.0366L26.272 440.034H26.162L23.3973 433.281H20.839ZM33.273 443.239H39.6275V441.534H35.3362V433.281H33.273V443.239ZM49.682 438.26C49.682 435.007 47.667 433.144 45.033 433.144C42.3784 433.144 40.3703 435.007 40.3703 438.26C40.3703 441.499 42.3784 443.377 45.033 443.377C47.667 443.377 49.682 441.513 49.682 438.26ZM42.4747 438.26C42.4747 436.128 43.4856 434.98 45.033 434.973C46.5666 434.98 47.5845 436.128 47.5776 438.26C47.5845 440.385 46.5666 441.541 45.033 441.547C43.4856 441.541 42.4747 440.385 42.4747 438.26ZM51.1262 446.045H53.1619V442.043H53.2169C53.5057 442.662 54.1315 443.363 55.3488 443.363C57.0544 443.363 58.3817 442.008 58.3748 439.512C58.3817 436.953 56.9993 435.674 55.3488 435.674C54.0903 435.674 53.4988 436.417 53.2169 437.022H53.1344V435.771H51.1262V446.045ZM53.1206 439.498C53.1137 438.157 53.6845 437.297 54.7024 437.297C55.7546 437.297 56.3047 438.198 56.2979 439.498C56.3047 440.818 55.7408 441.733 54.7024 441.74C53.6914 441.733 53.1137 440.846 53.1206 439.498ZM63.9591 437.985H65.8709C65.7609 436.568 64.5918 435.674 62.7074 435.674C60.7818 435.674 59.5508 436.568 59.5577 437.999C59.5508 439.106 60.2798 439.835 61.7033 440.117L62.9412 440.365C63.6427 440.509 63.9591 440.75 63.9591 441.135C63.9591 441.616 63.4639 441.912 62.7212 441.919C61.9716 441.912 61.497 441.609 61.4007 441.025H59.3513C59.5233 442.483 60.7061 443.384 62.7212 443.391C64.7087 443.384 66.0291 442.4 66.036 440.929C66.0291 439.856 65.3276 439.209 63.8765 438.907L62.5424 438.632C61.834 438.487 61.5727 438.226 61.5796 437.889C61.5727 437.435 62.0747 437.125 62.7349 437.119C63.4158 437.125 63.8697 437.462 63.9591 437.985ZM78.3049 437.6H66.8475V438.907H78.3049V437.6ZM68.1542 440.736H75.1964V441.369H68.1679V444.395H77.3008V443.198H69.9147V442.483H76.9295V439.526H68.1542V440.736ZM68.2504 433.405H75.1551V434.038H68.2779V437.009H77.1358V435.826H70.0248V435.152H76.9157V432.208H68.2504V433.405ZM93.7236 438.081H82.2662V439.484H87.204V441.658H88.9783V439.484H93.7236V438.081ZM83.4491 434.822C83.4491 436.417 85.2646 437.407 87.988 437.407C90.6976 437.407 92.5063 436.417 92.5132 434.822C92.5063 433.233 90.6976 432.236 87.988 432.222C85.2646 432.236 83.4491 433.233 83.4491 434.822ZM83.6279 444.285H92.4582V442.868H85.4022V440.543H83.6279V444.285ZM85.3472 434.822C85.3403 434.024 86.3719 433.611 87.988 433.611C89.6041 433.611 90.6289 434.024 90.6289 434.822C90.6289 435.585 89.6041 435.998 87.988 436.004C86.3719 435.998 85.3403 435.585 85.3472 434.822ZM97.9462 432.662C96.0481 432.655 94.6039 433.941 94.6176 435.729C94.6039 437.497 96.0481 438.79 97.9462 438.783C98.9365 438.79 99.803 438.425 100.401 437.82H103.255V439.319H105.002V431.988H103.255V433.639H100.415C99.8168 433.027 98.9434 432.655 97.9462 432.662ZM96.2819 435.729C96.275 434.732 96.9696 434.154 97.9462 434.161C98.8884 434.154 99.5761 434.732 99.583 435.729C99.5761 436.692 98.8884 437.304 97.9462 437.297C96.9696 437.304 96.275 436.692 96.2819 435.729ZM96.4195 442.043C96.4195 443.597 98.0769 444.512 100.725 444.505C103.372 444.512 105.037 443.597 105.043 442.043C105.037 440.488 103.372 439.574 100.725 439.581C98.0769 439.574 96.4195 440.488 96.4195 442.043ZM98.1388 442.043C98.1388 441.293 99.0672 440.922 100.725 440.915C102.416 440.922 103.317 441.293 103.324 442.043C103.317 442.772 102.416 443.143 100.725 443.143C99.0672 443.143 98.1388 442.772 98.1388 442.043ZM101.165 435.028H103.255V436.417H101.172C101.22 436.197 101.247 435.97 101.247 435.729C101.247 435.489 101.22 435.248 101.165 435.028ZM116.501 431.988H114.768V444.505H116.501V438.329H118.344V436.885H116.501V431.988ZM106.556 435.262H113.915V433.859H111.15V432.181H109.39V433.859H106.556V435.262ZM107.065 438.948C107.058 440.695 108.42 441.926 110.27 441.933C112.093 441.926 113.461 440.695 113.461 438.948C113.461 437.201 112.093 435.956 110.27 435.963C108.42 435.956 107.058 437.201 107.065 438.948ZM108.743 438.948C108.743 437.985 109.383 437.394 110.27 437.38C111.144 437.394 111.783 437.985 111.783 438.948C111.783 439.918 111.144 440.495 110.27 440.488C109.383 440.495 108.743 439.918 108.743 438.948ZM125.262 433.006H119.321V439.099H125.262V438.04H127.601V441.107H129.347V432.002H127.601V433.955H125.262V433.006ZM121.012 444.285H129.609V442.882H122.787V440.241H121.012V444.285ZM121.067 437.737V434.395H123.543V437.737H121.067ZM125.262 436.651V435.372H127.601V436.651H125.262ZM135.702 434.822V432.951H133.928V434.822C133.914 437.174 132.937 439.587 130.792 440.557L131.892 441.988C133.323 441.286 134.285 439.938 134.822 438.295C135.344 439.842 136.28 441.094 137.669 441.768L138.742 440.365C136.658 439.464 135.709 437.174 135.702 434.822ZM137.339 437.339H139.801V444.532H141.534V431.988H139.801V435.922H137.339V437.339ZM156.87 432.002H155.109V440.997H156.87V432.002ZM146.582 435.949C146.582 437.813 148.081 439.127 150.007 439.127C151.925 439.127 153.425 437.813 153.431 435.949C153.425 434.113 151.925 432.793 150.007 432.8C148.081 432.793 146.582 434.113 146.582 435.949ZM148.301 435.949C148.287 434.932 149.023 434.32 150.007 434.326C150.956 434.32 151.692 434.932 151.698 435.949C151.692 436.995 150.956 437.6 150.007 437.6C149.023 437.6 148.287 436.995 148.301 435.949ZM148.48 444.285H157.2V442.882H150.254V440.089H148.48V444.285ZM170.019 441.589H158.562V443.047H170.019V441.589ZM159.456 434.491H161.189V438.288H159.511V439.663H169.001V438.288H167.296V434.491H169.056V433.089H159.456V434.491ZM162.949 438.288V434.491H165.563V438.288H162.949ZM180.61 431.988H178.877V444.532H180.61V438.164H182.453V436.72H180.61V431.988ZM171.243 434.45H175.287V436.5H171.257V441.616H172.316C174.517 441.616 176.236 441.541 178.148 441.19L177.997 439.787C176.333 440.069 174.826 440.151 173.004 440.158V437.889H177.034V433.033H171.243V434.45ZM190.128 432.69H183.334V434.079H185.851C185.837 435.633 184.902 437.29 182.838 437.944L183.732 439.333C185.211 438.858 186.208 437.854 186.765 436.61C187.309 437.731 188.264 438.638 189.647 439.072L190.513 437.724C188.54 437.07 187.646 435.551 187.639 434.079H190.128V432.69ZM184.86 441.396H191.71V444.505H193.457V439.993H184.86V441.396ZM189.771 436.431H191.71V439.443H193.457V431.988H191.71V435H189.771V436.431ZM205.561 432.002H203.8V440.997H205.561V432.002ZM195.272 435.949C195.272 437.813 196.772 439.127 198.697 439.127C200.616 439.127 202.115 437.813 202.122 435.949C202.115 434.113 200.616 432.793 198.697 432.8C196.772 432.793 195.272 434.113 195.272 435.949ZM196.992 435.949C196.978 434.932 197.714 434.32 198.697 434.326C199.646 434.32 200.382 434.932 200.389 435.949C200.382 436.995 199.646 437.6 198.697 437.6C197.714 437.6 196.978 436.995 196.992 435.949ZM197.17 444.285H205.891V442.882H198.945V440.089H197.17V444.285ZM220.979 431.988H219.205V444.532H220.979V431.988ZM210.87 437.325C210.863 440.076 212.259 441.795 214.185 441.795C216.069 441.795 217.472 440.076 217.472 437.325C217.472 434.595 216.069 432.868 214.185 432.868C212.259 432.868 210.863 434.595 210.87 437.325ZM212.562 437.325C212.555 435.468 213.208 434.45 214.185 434.45C215.134 434.45 215.773 435.468 215.78 437.325C215.773 439.189 215.134 440.206 214.185 440.2C213.208 440.206 212.555 439.189 212.562 437.325ZM234.115 438.893H222.657V440.31H225.312V444.532H227.073V440.31H229.768V444.532H231.529V440.31H234.115V438.893ZM223.111 436.486L223.799 437.916C225.972 437.586 227.575 436.548 228.393 435.186C229.218 436.555 230.821 437.586 233.001 437.916L233.675 436.486C230.848 436.114 229.308 434.45 229.314 432.965V432.36H227.471V432.965C227.465 434.457 225.931 436.108 223.111 436.486ZM244.719 431.988H242.959V444.477H244.719V438.233H246.494V436.788H244.719V431.988ZM234.706 440.97L235.697 442.318C239.905 440.248 241.363 437.009 241.377 433.267H235.421V434.698H239.596C239.266 437.49 237.67 439.484 234.706 440.97ZM24.9241 457.021V456.594H23.2185V457.021C23.2117 458.238 22.5102 459.483 20.8665 460.047L21.7331 461.326C22.8747 460.92 23.6449 460.164 24.0919 459.235C24.4977 460.198 25.2335 461.01 26.4096 461.436C27.5305 460.996 28.2595 460.157 28.6722 459.187C29.1054 460.157 29.8894 460.92 31.086 461.326L31.9388 460.047C30.2677 459.531 29.5731 458.327 29.5868 457.021V456.594H27.8538V457.021C27.8538 457.949 27.3999 459.022 26.3614 459.758C25.3505 459.07 24.9241 458.025 24.9241 457.021ZM20.5639 452.647C20.5639 454.387 22.0357 455.638 23.9888 455.632C25.935 455.638 27.4067 454.387 27.4136 452.647C27.4067 450.873 25.935 449.635 23.9888 449.635C22.0357 449.635 20.5639 450.873 20.5639 452.647ZM22.2832 452.647C22.2695 451.677 22.9847 451.106 23.9888 451.106C24.9653 451.106 25.6737 451.677 25.6806 452.647C25.6737 453.589 24.9653 454.18 23.9888 454.174C22.9847 454.18 22.2695 453.589 22.2832 452.647ZM29.0917 456.072H30.8522V449.002H29.0917V456.072ZM38.2521 449.167C35.3637 449.167 33.6856 449.923 33.6856 451.299C33.6856 452.695 35.3637 453.445 38.2521 453.445C41.1336 453.445 42.7979 452.695 42.8048 451.299C42.7979 449.923 41.1336 449.167 38.2521 449.167ZM32.544 455.425H43.9602V454.036H32.544V455.425ZM33.8644 457.433H40.8379V458.121H33.8782V461.422H42.9011V460.102H35.5975V459.345H42.571V456.154H33.8644V457.433ZM35.5287 451.299C35.5218 450.742 36.4159 450.446 38.2521 450.446C40.1021 450.446 40.9892 450.742 40.9892 451.299C40.9892 451.911 40.1021 452.152 38.2521 452.152C36.4159 452.152 35.5218 451.911 35.5287 451.299ZM53.1068 449.194H51.4976V460.941H53.1068V455.274H54.0559V461.505H55.7064V448.988H54.0559V453.843H53.1068V449.194ZM44.923 458.465H45.4869C46.1471 458.472 46.8211 458.451 47.7289 458.259L47.6051 456.801C47.2131 456.897 46.8623 456.952 46.5322 456.986V451.89H47.6051V450.487H44.923V458.465ZM48.0865 458.465H48.6504C49.4207 458.472 50.1565 458.458 51.0987 458.259L50.9887 456.801C50.4935 456.918 50.0602 456.979 49.6545 457V451.89H50.8374V450.487H48.0865V458.465ZM66.1735 450.9H64.0278V449.332H62.2948V450.9H60.1216V452.289H66.1735V450.9ZM60.4104 455.824C60.4104 457.571 61.5796 458.809 63.1751 458.809C64.7775 458.809 65.9191 457.571 65.9259 455.824C65.9191 454.084 64.7775 452.86 63.1751 452.853C61.5796 452.86 60.4104 454.084 60.4104 455.824ZM61.9509 455.824C61.9509 454.882 62.4461 454.311 63.1751 454.311C63.8765 454.311 64.3786 454.882 64.3855 455.824C64.3786 456.78 63.8765 457.323 63.1751 457.323C62.4461 457.323 61.9509 456.78 61.9509 455.824ZM66.6412 460.968H68.278V455.48H69.2958V461.505H70.9601V448.988H69.2958V454.077H68.278V449.236H66.6412V460.968ZM82.8576 448.988H81.1108V450.556H78.7451C78.8001 450.212 78.8276 449.848 78.8276 449.47H73.1608V450.886H76.8813C76.6475 452.392 75.3271 453.582 72.4593 454.146L73.0507 455.577C75.8222 454.971 77.6103 453.768 78.3874 451.89H81.1108V452.991H78.2499V454.325H81.1108V455.288H82.8576V448.988ZM74.5362 457.117H81.0971V457.874H74.55V461.381H83.1327V459.992H76.3105V459.166H82.8576V455.742H74.5362V457.117ZM94.4113 448.988H92.6508V456.319H94.4113V453.458H96.1031V452H94.4113V448.988ZM84.4806 451.464H91.908V450.089H89.0746V448.906H87.3278V450.089H84.4806V451.464ZM85.0858 454.036C85.0858 455.37 86.3512 456.25 88.1943 456.25C90.0168 456.25 91.2753 455.37 91.2753 454.036C91.2753 452.702 90.0168 451.822 88.1943 451.822C86.3512 451.822 85.0858 452.702 85.0858 454.036ZM86.2137 461.367H94.4113V456.801H92.6508V457.75H87.9605V456.801H86.2137V461.367ZM86.8051 454.036C86.7983 453.451 87.3553 453.101 88.1943 453.114C89.0402 453.101 89.611 453.451 89.611 454.036C89.611 454.641 89.0402 454.964 88.1943 454.971C87.3553 454.964 86.7983 454.641 86.8051 454.036ZM87.9605 459.992V459.098H92.6508V459.992H87.9605ZM107.175 448.988H105.429V461.505H107.175V448.988ZM97.3272 458.41H98.4276C100.36 458.417 102.437 458.279 104.631 457.818L104.411 456.374C102.568 456.732 100.752 456.89 99.0603 456.918V450.185H97.3272V458.41ZM118.702 448.988H116.941V461.532H118.702V455.068H120.545V453.637H118.702V448.988ZM109.321 458.492H110.38C112.588 458.499 114.293 458.451 116.24 458.121L116.047 456.649C114.383 456.938 112.883 457.034 111.068 457.048V451.56H115.194V450.144H109.321V458.492ZM122.622 460.363C123.234 460.363 123.763 459.847 123.763 459.208C123.763 458.575 123.234 458.059 122.622 458.066C121.975 458.059 121.452 458.575 121.466 459.208C121.452 459.847 121.975 460.363 122.622 460.363Z" fill="#ECECF8"/>
<path d="M29.452 498.139H25.5678V497.281H28.4067V496.18H22.8059V494.937H28.3517V493.847H21.4085V497.281H24.1923V498.139H20.2971V499.239H29.452V498.139ZM21.3424 501.594C21.3424 502.766 22.6629 503.432 24.8526 503.432C27.0257 503.432 28.3297 502.766 28.3407 501.594C28.3297 500.406 27.0257 499.745 24.8526 499.745C22.6629 499.745 21.3424 500.406 21.3424 501.594ZM22.7729 501.594C22.7674 501.077 23.4661 500.813 24.8526 500.813C26.2115 500.813 26.9267 501.077 26.9322 501.594C26.9267 502.117 26.2115 502.364 24.8526 502.364C23.4661 502.364 22.7674 502.117 22.7729 501.594ZM38.4529 493.407H37.0335V503.421H38.4529V493.407ZM30.0682 500.582L30.8055 501.704C34.3816 500.015 35.4434 497.49 35.4489 494.453H30.6074V495.553H34.0185C33.7929 497.776 32.654 499.36 30.0682 500.582ZM47.7729 494.013H42.8763V498.227H47.7729V494.013ZM43.4045 502.342L43.8886 503.399C45.5612 503.239 46.7551 502.65 47.3713 501.858C47.982 502.639 49.1648 503.244 50.8319 503.399L51.305 502.342C49.3189 502.15 48.268 501.363 48.114 500.681H50.9199V499.635H48.07V498.81H46.6615V499.635H43.8116V500.681H46.6175C46.4635 501.385 45.4071 502.177 43.4045 502.342ZM44.2628 497.127V495.102H46.3754V497.127H44.2628ZM49.3464 499.085H50.7438V493.407H49.3464V499.085ZM63.86 498.359H54.6941V499.47H58.6994V501.198H60.0858V499.47H63.86V498.359ZM55.7724 503.244H62.8477V502.122H57.1699V500.329H55.7724V503.244ZM55.8385 497.534H62.6827V493.847H55.8385V497.534ZM57.2139 496.444V494.937H61.3072V496.444H57.2139ZM73.103 493.407H71.7716V503.421H73.103V493.407ZM64.2342 500.494L65.0814 501.528C66.0002 500.967 66.6054 499.976 66.9465 498.81C67.2876 499.888 67.8708 500.78 68.7676 501.308L69.5929 500.274C68.1294 499.437 67.6067 497.754 67.6122 496.092V495.553H69.1307V494.431H64.6193V495.553H66.2588V496.092C66.2588 497.792 65.7086 499.586 64.2342 500.494ZM68.4155 497.974H69.7359V502.958H71.0563V493.572H69.7359V496.84H68.4155V497.974ZM82.621 493.407H81.2236V495.718H79.6391V496.862H81.2236V499.195H82.621V493.407ZM74.1263 498.106L74.8415 499.206C76.0189 498.832 76.8222 498.034 77.2623 497.033C77.697 497.935 78.4617 498.667 79.5731 499.03L80.2663 497.919C78.7038 497.396 77.9831 496.191 77.9665 495.047H79.9582V493.913H74.5224V495.047H76.5361C76.4976 496.307 75.7493 497.583 74.1263 498.106ZM75.8869 503.31H82.621V499.613H75.8869V503.31ZM77.2953 502.188V500.714H81.2456V502.188H77.2953ZM92.6012 493.407H91.2588V503.421H92.6012V493.407ZM84.0075 497.743C84.0075 499.993 84.8603 501.385 86.1862 501.385C87.4186 501.385 88.2603 500.191 88.3814 498.227H89.1901V502.958H90.5106V493.55H89.1901V497.116H88.3704C88.2163 495.245 87.3911 494.117 86.1862 494.123C84.8603 494.117 84.0075 495.503 84.0075 497.743ZM85.3059 497.743C85.2949 496.208 85.625 495.443 86.1862 495.443C86.7639 495.443 87.105 496.208 87.0995 497.743C87.105 499.283 86.7639 500.042 86.1862 500.031C85.625 500.042 85.2949 499.283 85.3059 497.743ZM104.914 493.407H103.583V497.27H102.614V493.572H101.327V502.936H102.614V498.392H103.583V503.421H104.914V493.407ZM96.5405 501.154H97.2337C98.5541 501.148 99.6215 501.11 100.843 500.879L100.744 499.734C99.7755 499.905 98.9173 499.96 97.9489 499.976V495.696H100.271V494.563H96.5405V501.154ZM113.937 493.418H112.529V500.89H113.937V497.633H115.29V496.488H113.937V493.418ZM105.993 495.575H111.934V494.464H109.668V493.396H108.27V494.464H105.993V495.575ZM106.477 497.864C106.477 499.019 107.506 499.778 108.963 499.778C110.416 499.778 111.428 499.019 111.428 497.864C111.428 496.703 110.416 495.927 108.963 495.927C107.506 495.927 106.477 496.703 106.477 497.864ZM107.445 503.244H114.3V502.122H108.842V500.318H107.445V503.244ZM107.852 497.864C107.847 497.308 108.292 497 108.963 496.994C109.64 497 110.097 497.308 110.097 497.864C110.097 498.414 109.64 498.711 108.963 498.711C108.292 498.711 107.847 498.414 107.852 497.864ZM126.767 493.407H125.37V494.904H123.488V496.015H125.37V498.502H126.767V493.407ZM118.25 497.468L118.977 498.579C120.149 498.21 120.935 497.462 121.375 496.499C121.81 497.358 122.558 498.029 123.631 498.37L124.368 497.292C122.773 496.818 122.074 495.658 122.08 494.464V493.737H120.66V494.464C120.655 495.757 119.912 496.978 118.25 497.468ZM120.11 499.998H125.381V500.571H120.121V503.31H127.053V502.21H121.507V501.594H126.767V498.92H120.11V499.998ZM136.505 493.407H135.108V494.871H133.237V494.145H128.484V498.722H133.237V497.996H135.108V499.272H136.505V493.407ZM129.639 501.484C129.639 502.722 130.949 503.426 133.083 503.421C135.223 503.426 136.533 502.722 136.538 501.484C136.533 500.252 135.223 499.531 133.083 499.536C130.949 499.531 129.639 500.252 129.639 501.484ZM129.881 497.611V495.256H131.862V497.611H129.881ZM131.037 501.484C131.037 500.89 131.757 500.604 133.083 500.604C134.415 500.604 135.135 500.89 135.141 501.484C135.135 502.056 134.415 502.353 133.083 502.353C131.757 502.353 131.037 502.056 131.037 501.484ZM133.237 496.862V495.982H135.108V496.862H133.237Z" fill="#ECECF8" fill-opacity="0.5"/>
<path d="M20.8803 518.225H21.8706V515.133H23.5982C23.6642 515.133 23.7302 515.133 23.7907 515.128L25.4577 518.225H26.6131L24.8195 514.946C25.8319 514.594 26.305 513.769 26.305 512.712C26.305 511.293 25.4522 510.259 23.5871 510.259H20.8803V518.225ZM21.8706 514.231V511.139H23.5431C24.825 511.139 25.3202 511.761 25.3257 512.712C25.3202 513.659 24.825 514.231 23.5541 514.231H21.8706ZM31.3886 515.771C31.3831 516.888 30.5359 517.394 29.8592 517.389C29.0944 517.394 28.5607 516.839 28.5607 515.98V512.25H27.6144V516.046C27.6089 517.565 28.4177 518.302 29.5511 518.302C30.4478 518.302 31.042 517.818 31.3226 517.213H31.3886V518.225H32.3239V512.25H31.3886V515.771ZM34.7887 514.638C34.7887 513.604 35.4269 513.02 36.2962 513.02C37.1435 513.02 37.6496 513.571 37.6496 514.495V518.225H38.596V514.429C38.6015 512.91 37.7927 512.173 36.5823 512.173C35.6745 512.173 35.1133 512.575 34.8327 513.185H34.7557V512.25H33.8424V518.225H34.7887V514.638ZM41.4569 518.225H42.4032L43.6906 513.67H43.7786L45.077 518.225H46.0123L47.8279 512.25H46.8376L45.5612 516.784H45.4952L44.2518 512.25H43.2394L41.974 516.806H41.919L40.6426 512.25H39.6413L41.4569 518.225ZM48.5871 516.531C48.5871 517.697 49.4894 518.363 50.6228 518.368C51.6626 518.363 52.2073 517.812 52.4054 517.411H52.4494V518.225H53.3847V514.286C53.3902 512.404 51.9212 512.173 51.14 512.173C49.8195 512.173 48.8842 512.839 48.7632 513.802H49.7535C49.8856 513.345 50.3422 512.998 51.096 512.998C51.9982 512.998 52.4494 513.439 52.4494 514.198V514.682C52.1798 514.687 51.217 514.742 50.8319 514.77C49.7975 514.847 48.5871 515.161 48.5871 516.531ZM49.5335 516.575C49.539 515.92 50.0836 515.617 50.9419 515.562C51.228 515.546 52.1688 515.474 52.4494 515.458V516.057C52.4494 516.811 51.8552 517.526 50.7879 517.521C50.0616 517.526 49.539 517.207 49.5335 516.575ZM55.2883 520.47C56.1356 520.464 56.7187 520.024 57.0709 519.083L59.6017 512.25H58.5673L56.9388 516.993H56.8728L55.2443 512.25H54.2099L56.4217 518.269L56.2456 518.72C55.932 519.595 55.6074 519.617 55.2223 519.623C55.0737 519.617 54.8592 519.612 54.7601 519.601V520.448C54.8812 520.459 55.0847 520.464 55.2883 520.47ZM69.2298 513.879H60.2729V514.561H69.2298V513.879ZM61.3512 515.991H67.2491V516.828H61.3622V518.984H68.4265V518.357H62.2315V517.422H68.1074V515.342H61.3512V515.991ZM61.4062 510.259H67.2051V511.062H61.4393V513.141H68.2504V512.514H62.2975V511.656H68.0744V509.631H61.4062V510.259ZM76.129 511.964V510.182H75.2817V511.964C75.2707 513.752 74.1373 515.628 72.7069 516.332L73.257 517.026C74.3574 516.437 75.2817 515.199 75.7163 513.758C76.151 515.117 77.0533 516.277 78.1316 516.839L78.6598 516.145C77.2678 515.463 76.129 513.686 76.129 511.964ZM79.5621 519.116H80.4203V514.055H82.0599V513.307H80.4203V509.334H79.5621V519.116ZM91.5009 514.176H89.2892V512.795C90.0594 512.487 90.4941 511.992 90.4996 511.337C90.4941 510.187 89.1736 509.527 87.0445 509.521C84.8988 509.527 83.5783 510.187 83.5783 511.337C83.5783 511.997 84.0185 512.492 84.7997 512.795V514.176H82.588V514.891H91.5009V514.176ZM83.6664 517.367C83.6609 518.484 84.9208 519.094 87.0445 519.094C89.1406 519.094 90.4005 518.484 90.4115 517.367C90.4005 516.25 89.1406 515.634 87.0445 515.639C84.9208 515.634 83.6609 516.25 83.6664 517.367ZM84.4696 511.337C84.4641 510.633 85.4434 510.204 87.0445 510.204C88.629 510.204 89.6138 510.633 89.6193 511.337C89.6138 512.052 88.629 512.465 87.0445 512.47C85.4434 512.465 84.4641 512.052 84.4696 511.337ZM84.5467 517.367C84.5357 516.701 85.4765 516.31 87.0445 516.299C88.596 516.31 89.5368 516.701 89.5423 517.367C89.5368 518.033 88.596 518.429 87.0445 518.423C85.4765 518.429 84.5357 518.033 84.5467 517.367ZM85.658 514.176V513.031C86.0706 513.103 86.5328 513.141 87.0445 513.141C87.5561 513.141 88.0183 513.103 88.4309 513.026V514.176H85.658ZM99.8966 509.334H99.0383V519.116H99.8966V514.088H101.536V513.373H99.8966V509.334ZM92.2711 511.623H98.092V510.908H95.6492V509.455H94.7909V510.908H92.2711V511.623ZM92.8323 514.682C92.8268 516.008 93.8391 516.927 95.2311 516.927C96.612 516.927 97.6188 516.008 97.6298 514.682C97.6188 513.362 96.612 512.437 95.2311 512.437C93.8391 512.437 92.8268 513.362 92.8323 514.682ZM93.6576 514.682C93.6521 513.796 94.3178 513.158 95.2311 513.163C96.1334 513.158 96.7936 513.796 96.8046 514.682C96.7936 515.573 96.1334 516.2 95.2311 516.189C94.3178 516.2 93.6521 515.573 93.6576 514.682ZM109.91 510.325H103.011V511.04H109.04V511.304C109.035 512.476 109.035 513.846 108.666 515.716L109.547 515.815C109.899 513.846 109.899 512.503 109.91 511.304V510.325ZM102.064 517.73H110.977V517.015H106.411V513.516H105.563V517.015H102.064V517.73ZM117.942 515.903V515.364H117.106V515.903C117.095 516.839 116.352 517.884 115.114 518.346L115.555 518.984C116.49 518.632 117.161 517.95 117.513 517.163C117.805 517.983 118.41 518.698 119.362 519.061C120.264 518.682 120.864 517.928 121.166 517.136C121.507 517.956 122.19 518.638 123.169 518.984L123.598 518.346C122.344 517.911 121.601 516.91 121.607 515.903V515.364H120.759V515.903C120.765 516.657 120.27 517.636 119.334 518.214C118.404 517.686 117.937 516.767 117.942 515.903ZM114.861 512.206C114.856 513.549 115.94 514.473 117.425 514.473C118.911 514.473 119.983 513.549 119.989 512.206C119.983 510.842 118.911 509.912 117.425 509.917C115.94 509.912 114.856 510.842 114.861 512.206ZM115.709 512.206C115.698 511.293 116.418 510.644 117.425 510.655C118.421 510.644 119.142 511.293 119.142 512.206C119.142 513.114 118.421 513.752 117.425 513.758C116.418 513.752 115.698 513.114 115.709 512.206ZM121.849 514.935H122.707V509.345H121.849V514.935ZM132.28 512.305H126.437V509.697H125.579V512.998H132.28V512.305ZM124.357 515.034H133.314V514.33H124.357V515.034ZM125.524 518.874H132.335V518.159H126.382V516.035H125.524V518.874ZM142.48 509.334H141.644V519.116H142.48V509.334ZM134.492 516.762H135.108C136.681 516.756 137.639 516.707 138.772 516.476L138.684 515.738C137.633 515.975 136.742 516.024 135.328 516.035V511.26H138.178V510.545H134.492V516.762ZM137.518 513.802H139.652V518.61H140.478V509.576H139.652V513.075H137.518V513.802ZM145.451 517.488H144.384L143.779 520.481H144.593L145.451 517.488ZM157.335 509.818H150.689V510.523H156.477V510.556C156.477 510.842 156.482 511.144 156.466 511.463L150.458 511.645L150.568 512.338L156.427 512.085C156.389 512.465 156.334 512.883 156.229 513.351H149.566V514.055H158.468V513.351H157.098C157.335 512.19 157.335 511.309 157.335 510.556V509.818ZM150.612 515.672H156.554V516.597H150.634V518.984H157.753V518.291H151.492V517.257H157.412V515.001H150.612V515.672ZM167.392 509.334H166.534V513.097H164.63V513.824H166.534V519.138H167.392V509.334ZM159.635 510.963H163.2V512.954H159.668V516.784H160.416C162.187 516.778 163.458 516.718 164.927 516.454L164.861 515.727C163.436 515.991 162.215 516.046 160.526 516.046V513.67H164.036V510.248H159.635V510.963ZM173.906 510.776V510.027H173.004V510.776C172.998 512.459 171.1 513.939 169.406 514.264L169.802 514.99C171.282 514.643 172.828 513.598 173.466 512.162C174.099 513.598 175.65 514.649 177.13 514.99L177.526 514.264C175.826 513.945 173.912 512.454 173.906 510.776ZM169.032 517.785H177.989V517.07H169.032V517.785ZM186.879 509.334H186.021V513.031H183.952V513.747H186.021V519.138H186.879V509.334ZM179.221 516.773H179.969C181.862 516.773 183.056 516.707 184.481 516.476L184.382 515.76C183.039 516.002 181.884 516.052 180.09 516.057V513.692H183.358V512.987H180.09V510.952H183.787V510.237H179.221V516.773ZM196.893 509.334H196.056V519.116H196.893V509.334ZM188.629 513.56C188.634 515.639 189.46 516.965 190.731 516.96C191.936 516.965 192.755 515.771 192.838 513.868H194.098V518.621H194.923V509.543H194.098V513.152H192.832C192.722 511.309 191.919 510.165 190.731 510.16C189.46 510.165 188.634 511.48 188.629 513.56ZM189.443 513.56C189.432 511.97 189.938 510.974 190.731 510.974C191.528 510.974 192.035 511.97 192.029 513.56C192.035 515.144 191.528 516.145 190.731 516.134C189.938 516.145 189.432 515.144 189.443 513.56ZM210.02 514.341H201.063V515.056H205.178V517.059H206.037V515.056H210.02V514.341ZM202.207 518.907H209.018V518.181H203.077V516.09H202.207V518.907ZM202.229 513.218H208.853V509.818H202.229V513.218ZM203.077 512.525V510.501H207.995V512.525H203.077ZM219.175 509.334H218.349V519.116H219.175V509.334ZM210.691 516.509L211.241 517.158C212.221 516.547 212.93 515.397 213.282 514.049C213.623 515.293 214.306 516.349 215.268 516.927L215.797 516.288C214.449 515.507 213.684 513.818 213.684 512.129V511.205H215.478V510.49H210.966V511.205H212.848V512.129C212.853 513.906 212.055 515.694 210.691 516.509ZM214.729 513.571H216.38V518.61H217.194V509.576H216.38V512.866H214.729V513.571ZM228.121 509.334H227.262V519.116H228.121V514.044H229.705V513.318H228.121V509.334ZM220.616 516.575L221.1 517.257C224.286 515.683 225.584 513.158 225.59 510.391H221.067V511.117H224.715C224.517 513.433 223.142 515.32 220.616 516.575ZM236.032 511.282V509.95H235.207V511.282C235.201 512.371 234.415 513.637 233.127 514.198L233.6 514.869C234.563 514.451 235.267 513.62 235.625 512.69C235.977 513.532 236.654 514.231 237.595 514.594L238.046 513.934C236.791 513.461 236.038 512.366 236.032 511.282ZM234.91 517.356C234.899 518.451 236.153 519.094 238.189 519.094C240.213 519.094 241.473 518.451 241.479 517.356C241.473 516.25 240.213 515.601 238.189 515.606C236.153 515.601 234.899 516.25 234.91 517.356ZM235.768 517.356C235.757 516.679 236.687 516.272 238.189 516.266C239.674 516.272 240.61 516.679 240.621 517.356C240.61 518.022 239.674 518.429 238.189 518.423C236.687 518.429 235.757 518.022 235.768 517.356ZM238.486 515.078H239.3V512.69H240.599V515.386H241.424V509.345H240.599V511.975H239.3V509.532H238.486V515.078ZM247.938 509.972H243.515V510.688H247.014C246.827 512.349 245.325 513.653 242.975 514.308L243.316 514.99C245.446 514.401 246.97 513.268 247.608 511.7H250.095V513.009H247.498V513.736H250.095V514.924H250.964V509.345H250.095V510.985H247.828C247.899 510.66 247.938 510.325 247.938 509.972ZM243.36 518.357L243.812 519.006C244.736 518.654 245.407 517.972 245.754 517.185C246.045 518.011 246.645 518.731 247.597 519.094C248.51 518.709 249.11 517.95 249.412 517.152C249.748 517.978 250.43 518.665 251.404 519.006L251.844 518.357C250.584 517.939 249.836 516.927 249.842 515.914V515.188H249.005V515.914C249 516.674 248.516 517.664 247.58 518.253C246.645 517.713 246.183 516.789 246.188 515.914V515.188H245.352V515.914C245.347 516.85 244.598 517.911 243.36 518.357ZM260.163 509.334H259.305V519.138H260.163V513.934H261.802V513.207H260.163V509.334ZM253.022 516.685H253.792C255.651 516.685 256.933 516.63 258.468 516.354L258.358 515.606C256.9 515.876 255.651 515.953 253.88 515.958V511.007H257.588V510.292H253.022V516.685ZM263.365 518.291C263.756 518.286 264.075 517.967 264.069 517.576C264.075 517.191 263.756 516.872 263.365 516.872C262.98 516.872 262.65 517.191 262.661 517.576C262.65 517.967 262.98 518.286 263.365 518.291ZM265.522 517.576C265.511 517.967 265.841 518.286 266.226 518.291C266.616 518.286 266.936 517.967 266.93 517.576C266.936 517.191 266.616 516.872 266.226 516.872C265.841 516.872 265.511 517.191 265.522 517.576ZM268.382 517.576C268.371 517.967 268.702 518.286 269.087 518.291C269.477 518.286 269.796 517.967 269.791 517.576C269.796 517.191 269.477 516.872 269.087 516.872C268.702 516.872 268.371 517.191 268.382 517.576ZM29.353 530.136H25.2707V527.748H28.2416V523.16H21.4525V527.748H24.4234V530.136H20.3961V530.862H29.353V530.136ZM22.2997 527.055V523.853H27.4054V527.055H22.2997ZM38.1998 522.334H37.3415V532.116H38.1998V522.334ZM30.7724 529.597H31.5647C33.1327 529.597 34.6787 529.476 36.4173 529.112L36.2962 528.375C34.6567 528.722 33.1162 528.837 31.6197 528.848V523.303H30.7724V529.597ZM47.982 522.334H47.1237V526.031H45.055V526.747H47.1237V532.138H47.982V522.334ZM40.3235 529.773H41.0717C42.9643 529.773 44.1582 529.707 45.5832 529.476L45.4842 528.76C44.1417 529.002 42.9864 529.052 41.1928 529.057V526.692H44.4608V525.987H41.1928V523.952H44.89V523.237H40.3235V529.773ZM57.6871 522.345H56.8288V528.364H57.6871V522.345ZM50.1056 523.688H53.7148V524.964H50.1276V527.759H50.9199C52.7245 527.753 54.0614 527.709 55.7064 527.44L55.6074 526.725C54.0174 526.983 52.7135 527.033 50.9639 527.033V525.646H54.5731V522.961H50.1056V523.688ZM51.14 530.334C51.1345 531.451 52.3834 532.094 54.441 532.094C56.4987 532.094 57.7531 531.451 57.7531 530.334C57.7531 529.211 56.4987 528.562 54.441 528.562C52.3834 528.562 51.1345 529.211 51.14 530.334ZM51.9872 530.334C51.9927 529.663 52.917 529.255 54.441 529.255C55.9595 529.255 56.8893 529.663 56.8838 530.334C56.8893 531.005 55.9595 531.407 54.441 531.401C52.917 531.407 51.9927 531.005 51.9872 530.334ZM69.7689 522.334H68.8996V532.116H69.7689V527.231H71.3314V526.505H69.7689V522.334ZM62.0555 529.509L62.1985 530.246C63.9151 530.246 66.2258 530.224 68.3605 529.861L68.3055 529.2C67.4527 529.321 66.5284 529.399 65.6206 529.443V528.397C66.754 528.265 67.5077 527.599 67.5132 526.626C67.5077 525.52 66.5559 524.805 65.1915 524.81C63.805 524.805 62.8697 525.52 62.8807 526.626C62.8697 527.594 63.6125 528.265 64.7513 528.397V529.476C63.783 529.503 62.8532 529.509 62.0555 529.509ZM62.2315 524.238H68.1294V523.534H65.6206V522.356H64.7513V523.534H62.2315V524.238ZM63.684 526.626C63.6895 525.943 64.2837 525.481 65.1915 525.481C66.0827 525.481 66.6824 525.943 66.6879 526.626C66.6824 527.302 66.0827 527.748 65.1915 527.737C64.2837 527.748 63.6895 527.302 63.684 526.626ZM76.8662 523.193H72.3768V527.759H76.8662V526.879H79.1549V529.487H80.0242V522.345H79.1549V524.062H76.8662V523.193ZM73.235 527.066V523.908H76.0189V527.066H73.235ZM73.6972 531.907H80.2443V531.181H74.5665V528.848H73.6972V531.907ZM76.8662 526.163V524.788H79.1549V526.163H76.8662ZM86.1092 522.51C83.925 522.51 82.643 523.11 82.643 524.194C82.643 525.305 83.925 525.905 86.1092 525.91C88.2824 525.905 89.5588 525.305 89.5643 524.194C89.5588 523.11 88.2824 522.51 86.1092 522.51ZM81.6527 527.275H90.5656V526.571H81.6527V527.275ZM82.7311 528.782H88.5739V529.674H82.7531V532.006H89.7183V531.324H83.6114V530.312H89.4212V528.122H82.7311V528.782ZM83.5453 524.194C83.5343 523.55 84.4861 523.165 86.1092 523.16C87.7322 523.165 88.6785 523.55 88.684 524.194C88.6785 524.876 87.7322 525.25 86.1092 525.25C84.4861 525.25 83.5343 524.876 83.5453 524.194ZM103.176 530.147H99.0933V528.034H102.075V523.027H101.228V524.799H96.1444V523.027H95.2751V528.034H98.246V530.147H94.2188V530.862H103.176V530.147ZM96.1444 527.33V525.503H101.228V527.33H96.1444ZM112.022 522.334H111.164V532.116H112.022V522.334ZM104.595 529.597H105.387C106.955 529.597 108.501 529.476 110.24 529.112L110.119 528.375C108.479 528.722 106.939 528.837 105.442 528.848V523.303H104.595V529.597ZM119.142 531.346C120.281 531.352 120.671 530.642 120.88 530.312H120.979V531.225H121.904V523.259H120.946V526.196H120.88C120.677 525.877 120.314 525.173 119.153 525.173C117.651 525.173 116.6 526.362 116.6 528.254C116.6 530.152 117.651 531.352 119.142 531.346ZM117.557 528.232C117.557 526.983 118.124 526.02 119.274 526.02C120.385 526.02 120.974 526.906 120.979 528.232C120.974 529.575 120.369 530.499 119.274 530.499C118.14 530.499 117.557 529.503 117.557 528.232ZM123.543 531.225H124.489V525.25H123.543V531.225ZM123.356 523.633C123.351 523.979 123.653 524.26 124.016 524.26C124.379 524.26 124.682 523.979 124.687 523.633C124.682 523.281 124.379 523 124.016 523.005C123.653 523 123.351 523.281 123.356 523.633ZM129.32 526.802H130.244C130.123 525.833 129.347 525.173 128.11 525.173C126.795 525.173 125.898 525.91 125.898 526.934C125.898 527.731 126.454 528.298 127.493 528.54L128.396 528.749C129.072 528.909 129.375 529.184 129.375 529.608C129.375 530.169 128.841 530.526 127.989 530.521C127.235 530.526 126.811 530.246 126.701 529.663H125.711C125.87 530.752 126.668 531.352 128.011 531.346C129.507 531.352 130.349 530.587 130.354 529.553C130.349 528.722 129.826 528.188 128.759 527.935L127.868 527.715C127.169 527.544 126.85 527.275 126.844 526.879C126.85 526.378 127.372 525.982 128.11 525.976C128.808 525.982 129.188 526.307 129.32 526.802ZM131.587 531.225H132.533V528.997L133.166 528.408L135.383 531.225H136.582L133.875 527.809L136.395 525.25H135.229L132.643 527.891H132.533V523.259H131.587V531.225ZM144.615 522.334H143.757V532.116H144.615V527.044H146.199V526.318H144.615V522.334ZM137.11 529.575L137.595 530.257C140.78 528.683 142.079 526.158 142.084 523.391H137.562V524.117H141.209C141.011 526.433 139.636 528.32 137.11 529.575ZM152.075 523.005H149.864V523.721H151.256C151.245 524.293 151.189 525.129 150.865 526.274L151.679 526.406C152.07 524.992 152.07 523.957 152.075 523.402V523.005ZM149.544 527.231L149.632 527.968C151.393 527.963 153.726 527.908 155.783 527.572L155.717 526.956C154.903 527.055 154.023 527.121 153.143 527.165V525.305H152.339V527.198C151.344 527.231 150.375 527.236 149.544 527.231ZM150.7 529.575H156.378V532.061H157.258V528.87H150.7V529.575ZM152.625 523.721H154.32C154.32 524.337 154.292 525.146 154.023 526.274L154.848 526.373C155.145 525.135 155.145 524.188 155.145 523.556V523.005H152.625V523.721ZM156.378 528.419H157.258V525.855H158.622V525.129H157.258V522.334H156.378V528.419ZM162.683 524.656V524.381H164.894V523.677H162.705V522.4H161.835V523.677H159.624V524.381H161.835V524.656C161.83 526.02 160.818 527.22 159.36 527.682L159.811 528.386C160.955 527.979 161.846 527.154 162.276 526.086C162.699 527.071 163.563 527.836 164.674 528.21L165.114 527.506C163.667 527.055 162.688 525.91 162.683 524.656ZM160.878 531.907H167.447V531.181H161.725V528.947H160.878V531.907ZM166.138 529.575H166.996V526.108H168.471V525.382H166.996V522.334H166.138V529.575ZM177.185 522.334H176.327V526.274H173.994V526.989H176.327V532.116H177.185V522.334ZM169.098 529.564L169.571 530.257C172.839 528.634 174.011 526.174 174.016 523.402H169.527V524.106H173.147C172.971 526.395 171.744 528.282 169.098 529.564ZM189.3 522.334H188.442V527.572H189.3V525.338H190.775V524.623H189.3V522.334ZM181.686 527.055L182.049 527.759C184.932 527.099 186.665 525.476 186.67 523.027H182.104V523.732H185.713C185.57 525.272 184.173 526.505 181.686 527.055ZM183.105 531.984H189.575V531.313H183.974V530.301H189.234V529.641H183.974V528.672H189.344V528.012H183.105V531.984ZM200.304 527.495H191.391V528.199H200.304V527.495ZM192.381 524.623C192.381 525.839 193.724 526.571 195.847 526.571C197.949 526.571 199.297 525.839 199.302 524.623C199.297 523.396 197.949 522.675 195.847 522.686C193.724 522.675 192.381 523.396 192.381 524.623ZM192.546 531.907H199.313V531.181H193.415V529.057H192.546V531.907ZM193.272 524.623C193.267 523.858 194.268 523.38 195.847 523.38C197.415 523.38 198.417 523.858 198.422 524.623C198.417 525.399 197.415 525.866 195.847 525.866C194.268 525.866 193.267 525.399 193.272 524.623ZM209.503 522.334H208.666V532.116H209.503V522.334ZM201.514 529.762H202.13C203.704 529.756 204.661 529.707 205.794 529.476L205.706 528.738C204.656 528.975 203.764 529.024 202.35 529.035V524.26H205.2V523.545H201.514V529.762ZM204.54 526.802H206.675V531.61H207.5V522.576H206.675V526.075H204.54V526.802ZM28.4617 535.334H27.5924V545.138H28.4617V535.334ZM20.7592 539.505C20.7647 541.59 21.7991 542.91 23.257 542.905C24.7095 542.91 25.7603 541.59 25.7548 539.505C25.7603 537.425 24.7095 536.099 23.257 536.093C21.7991 536.099 20.7647 537.425 20.7592 539.505ZM21.5955 539.505C21.5955 537.915 22.2777 536.869 23.257 536.864C24.2419 536.869 24.9186 537.915 24.9186 539.505C24.9186 541.095 24.2419 542.14 23.257 542.134C22.2777 542.14 21.5955 541.095 21.5955 539.505ZM38.2438 535.334H37.3746V537.7H35.2069V538.415H37.3746V540.363H38.2438V535.334ZM30.2883 539.857L30.5964 540.572C33.4133 539.862 35.1298 538.25 35.1298 535.818H30.7945V536.534H34.211C34.0405 538.107 32.632 539.29 30.2883 539.857ZM31.9058 541.485H37.3746V542.509H31.9278V545.028H38.5739V544.313H32.7861V543.169H38.2438V540.781H31.9058V541.485ZM45.3301 536.093C43.8831 536.099 42.8708 537.425 42.8763 539.505C42.8708 541.59 43.8831 542.91 45.3301 542.905C46.6945 542.91 47.6739 541.711 47.7674 539.791H49.9516V545.138H50.8099V535.334H49.9516V539.075H47.7564C47.6243 537.243 46.6615 536.099 45.3301 536.093ZM43.7016 539.505C43.7071 537.915 44.3673 536.869 45.3301 536.864C46.2874 536.869 46.9586 537.915 46.9586 539.505C46.9586 541.095 46.2874 542.14 45.3301 542.134C44.3673 542.14 43.7071 541.095 43.7016 539.505ZM60.8231 541.177H57.7531V540.231H56.8948V541.177H53.8138V541.848H60.8231V541.177ZM52.7135 539.835H53.1316C53.7313 539.846 54.463 539.835 55.3873 539.637L55.2993 538.932C54.6501 539.081 54.0559 539.13 53.5607 539.147V536.523H55.1673V535.829H52.7135V539.835ZM54.5291 543.708C54.518 544.621 55.5524 545.105 57.3019 545.116C59.0625 545.105 60.0858 544.621 60.0858 543.708C60.0858 542.811 59.0625 542.31 57.3019 542.299C55.5524 542.31 54.518 542.811 54.5291 543.708ZM55.4313 543.708C55.4258 543.213 56.1301 542.932 57.3019 542.927C58.4793 542.932 59.1725 543.213 59.1725 543.708C59.1725 544.209 58.4793 544.489 57.3019 544.478C56.1301 544.489 55.4258 544.209 55.4313 543.708ZM55.7174 539.835H56.2016C57.2799 539.846 58.0117 539.818 58.9085 539.626L58.8314 538.921C58.0722 539.097 57.423 539.141 56.5757 539.152V536.523H58.4463V535.829H55.7174V539.835ZM57.9842 538.063H59.7887V540.55H60.636V535.334H59.7887V537.381H57.9842V538.063ZM70.5502 535.334H69.7249V545.116H70.5502V535.334ZM62.1875 542.377L62.6937 543.004C64.0581 542.2 65.0044 541.194 65.5931 540.055H67.6673V544.621H68.4925V535.598H67.6673V539.351H65.9122C66.2478 538.481 66.4018 537.551 66.4018 536.589H62.6056V537.304H65.5436C65.3785 539.351 64.3112 541.117 62.1875 542.377ZM82.632 537.689H76.8002V535.499H75.9529V538.404H82.632V537.689ZM74.7315 540.077H83.6884V539.373H74.7315V540.077ZM75.8539 541.639H81.6857V542.586H75.8759V544.984H82.8851V544.291H76.7452V543.246H82.533V540.957H75.8539V541.639ZM92.5572 535.334H91.6989V545.138H92.5572V535.334ZM85.0308 536.963H88.717V539.02H85.0528V542.762H85.8671C87.5561 542.762 89.0416 542.69 90.8407 542.41L90.7526 541.683C89.0031 541.964 87.5561 542.041 85.9331 542.035V539.725H89.5863V536.248H85.0308V536.963ZM103.374 539.241H101.789V535.334H100.931V545.116H101.789V539.967H103.374V539.241ZM94.6259 542.63H95.4071C96.8871 542.63 98.4056 542.531 100.095 542.189L99.9846 541.452C98.3726 541.793 96.9146 541.903 95.4842 541.903V536.303H94.6259V542.63ZM105.519 541.925V541.98H106.466V541.925C106.488 540.974 106.735 540.55 107.423 540.132C108.105 539.714 108.512 539.114 108.512 538.25C108.512 537.034 107.616 536.149 106.235 536.149C104.975 536.149 103.968 536.924 103.913 538.261H104.914C104.975 537.353 105.607 536.979 106.235 536.985C106.961 536.979 107.544 537.458 107.544 538.206C107.544 538.822 107.197 539.263 106.741 539.538C105.982 540 105.53 540.451 105.519 541.925ZM105.321 543.576C105.31 543.967 105.64 544.286 106.026 544.291C106.416 544.286 106.735 543.967 106.73 543.576C106.735 543.191 106.416 542.872 106.026 542.872C105.64 542.872 105.31 543.191 105.321 543.576ZM120.583 536.457H117.062V535.279H116.215V536.457H112.65V537.172H120.583V536.457ZM112.188 542.388H116.215V545.138H117.062V542.388H121.144V541.672H112.188V542.388ZM113.453 539.373C113.442 540.407 114.641 540.99 116.644 541.001C118.63 540.99 119.829 540.407 119.835 539.373C119.829 538.316 118.63 537.733 116.644 537.733C114.641 537.733 113.442 538.316 113.453 539.373ZM114.344 539.373C114.333 538.756 115.186 538.399 116.644 538.393C118.085 538.399 118.933 538.756 118.944 539.373C118.933 539.978 118.085 540.335 116.644 540.33C115.186 540.335 114.333 539.978 114.344 539.373ZM122.96 544.291C123.351 544.286 123.67 543.967 123.664 543.576C123.67 543.191 123.351 542.872 122.96 542.872C122.575 542.872 122.245 543.191 122.256 543.576C122.245 543.967 122.575 544.286 122.96 544.291ZM125.117 543.576C125.106 543.967 125.436 544.286 125.821 544.291C126.211 544.286 126.531 543.967 126.525 543.576C126.531 543.191 126.211 542.872 125.821 542.872C125.436 542.872 125.106 543.191 125.117 543.576ZM127.978 543.576C127.967 543.967 128.297 544.286 128.682 544.291C129.072 544.286 129.392 543.967 129.386 543.576C129.392 543.191 129.072 542.872 128.682 542.872C128.297 542.872 127.967 543.191 127.978 543.576Z" fill="#ECECF8" fill-opacity="0.7"/>
<defs>
<filter id="filter0_f_988_3579" x="164.054" y="126.713" width="20.5637" height="22.5344" filterUnits="userSpaceOnUse" color-interpolation-filters="sRGB">
<feFlood flood-opacity="0" result="BackgroundImageFix"/>
<feBlend mode="normal" in="SourceGraphic" in2="BackgroundImageFix" result="shape"/>
<feGaussianBlur stdDeviation="1.76056" result="effect1_foregroundBlur_988_3579"/>
</filter>
<linearGradient id="paint0_linear_988_3579" x1="150" y1="46" x2="150" y2="243.183" gradientUnits="userSpaceOnUse">
<stop stop-color="#857E3D"/>
<stop offset="1" stop-color="#473213" stop-opacity="0"/>
</linearGradient>
</defs>
</svg>
