<svg width="405" height="342" viewBox="0 0 405 342" fill="none" xmlns="http://www.w3.org/2000/svg">
<g clip-path="url(#clip0_518_4485)">
<rect width="405" height="342" rx="20" fill="#131316" fill-opacity="0.6"/>
<rect x="20" y="20" width="180" height="200" rx="8.9478" fill="black"/>
<ellipse cx="153.062" cy="103.208" rx="4.84673" ry="12.6761" transform="rotate(9.95946 153.062 103.208)" fill="#D36266"/>
<path d="M102.731 172.279C103.924 169.296 101.239 144.193 99.748 132.014C103.327 136.488 127.834 142.329 139.64 144.69C139.516 152.643 139.939 169.296 142.623 172.279C145.978 176.007 136.285 191.666 131.438 195.767C126.591 199.868 101.239 176.007 102.731 172.279Z" fill="#EB8682"/>
<mask id="mask0_518_4485" style="mask-type:alpha" maskUnits="userSpaceOnUse" x="99" y="132" width="45" height="65">
<path d="M102.731 172.279C103.924 169.296 101.239 144.193 99.748 132.014C103.327 136.488 127.834 142.329 139.64 144.69C139.516 152.643 139.939 169.296 142.623 172.279C145.978 176.007 136.285 191.666 131.438 195.767C126.591 199.868 101.239 176.007 102.731 172.279Z" fill="#EB8682"/>
</mask>
<g mask="url(#mask0_518_4485)">
<path d="M140.758 165.941C122.862 177.871 108.198 144.193 94.9004 132.387L157.908 159.23C154.18 160.846 144.918 163.168 140.758 165.941Z" fill="url(#paint0_linear_518_4485)"/>
</g>
<path d="M142.265 48.5018C140.178 46.7122 130.211 47.7561 125.488 48.5018C123.376 51.3599 119.225 58.12 119.523 62.2956C119.896 67.5152 134.809 60.8043 142.265 60.8043C148.231 60.8043 151.71 83.4224 152.705 94.7314C153.202 89.6361 153.898 78.5508 152.705 74.9717C151.213 70.4978 153.45 64.1597 151.586 60.8043C149.722 57.4489 144.875 50.7387 142.265 48.5018Z" fill="#615151"/>
<path d="M103.479 103.033C109.445 95.278 114.167 82.1545 115.783 76.5622C122.992 78.0535 135.696 78.0535 128.836 66.1231C120.261 51.21 83.3449 61.55 72.533 73.1076C63.8835 82.3536 75.3955 114.093 82.6034 121.301L110.932 144.317C111.305 142.826 104.374 125.179 103.479 121.301C102.361 116.454 96.0229 112.726 103.479 103.033Z" fill="#806669"/>
<path d="M153.538 92.4283C153.836 87.9544 148.194 69.1889 145.336 60.3654C130.049 45.8252 111.782 60.3654 102.088 65.9577C94.3325 70.4316 94.3831 91.9312 95.3779 102.122C93.8863 101.997 89.6357 101.824 84.5659 102.122C78.2287 102.495 80.4125 105.326 79.294 111.664C78.1755 118.003 87.9206 123 90.9032 126.355C93.2892 129.04 99.3539 129.214 102.088 128.965C103.455 131.948 106.636 139.106 108.426 143.878C110.663 149.843 137.879 158.418 145.336 159.164C152.792 159.91 153.538 147.979 158.012 136.049C162.486 124.118 157.266 124.118 155.775 120.39C154.283 116.662 153.165 98.0207 153.538 92.4283Z" fill="url(#paint1_radial_518_4485)"/>
<g filter="url(#filter0_f_518_4485)">
<ellipse cx="137.723" cy="112.461" rx="7.47089" ry="11.2432" transform="rotate(-24.4392 137.723 112.461)" fill="#E36A6F" fill-opacity="0.5"/>
</g>
<path d="M137.401 96.2227C137.649 100.324 138.668 108.899 140.756 110.39C143.366 112.254 148.585 114.118 146.348 117.101C144.111 120.083 142.993 121.202 141.502 121.202C140.01 121.202 137.401 121.202 136.282 120.456C135.164 119.711 134.418 117.847 132.181 117.847M129.198 118.965C128.701 117.722 127.931 114.938 128.826 113.745" stroke="black" stroke-width="0.74565" stroke-linecap="round"/>
<path d="M124.354 96.5947L126.964 98.086C127.212 101.069 126.591 107.108 122.117 107.407C117.643 107.705 113.542 104.3 112.051 102.56C114.139 99.5773 121.123 97.3404 124.354 96.5947Z" fill="#D9D9D9" stroke="black" stroke-width="0.74565" stroke-linecap="round"/>
<mask id="mask1_518_4485" style="mask-type:alpha" maskUnits="userSpaceOnUse" x="111" y="96" width="17" height="12">
<path d="M124.354 96.5947L126.964 98.086C127.212 101.069 126.591 107.108 122.117 107.407C117.643 107.705 113.542 104.3 112.051 102.56C114.139 99.5773 121.123 97.3404 124.354 96.5947Z" fill="#D9D9D9" stroke="black" stroke-width="0.74565" stroke-linecap="round"/>
</mask>
<g mask="url(#mask1_518_4485)">
<path d="M124.355 105.17C120.477 105.17 119.508 99.702 119.508 96.968C119.508 94.731 124.355 93.9854 127.337 93.9854C129.723 93.9854 130.817 98.9564 131.065 101.442C130.444 102.685 128.232 105.17 124.355 105.17Z" fill="#131313"/>
<circle cx="121.198" cy="100.098" r="0.529412" transform="rotate(9.55715 121.198 100.098)" fill="white"/>
</g>
<path d="M146.905 91.376L148.604 92.8673C148.766 95.8499 148.362 101.89 145.449 102.188C142.536 102.486 139.866 99.081 138.895 97.3412C140.254 94.3586 144.801 92.1216 146.905 91.376Z" fill="#D9D9D9" stroke="black" stroke-width="0.74565" stroke-linecap="round"/>
<mask id="mask2_518_4485" style="mask-type:alpha" maskUnits="userSpaceOnUse" x="138" y="90" width="12" height="13">
<path d="M146.905 91.376L148.604 92.8673C148.766 95.8499 148.362 101.89 145.449 102.188C142.536 102.486 139.866 99.081 138.895 97.3412C140.254 94.3586 144.801 92.1216 146.905 91.376Z" fill="#D9D9D9" stroke="black" stroke-width="0.74565" stroke-linecap="round"/>
</mask>
<g mask="url(#mask2_518_4485)">
<path d="M146.906 99.9504C144.381 99.9504 143.75 94.4823 143.75 91.7482C143.75 89.5113 146.906 88.7656 148.848 88.7656C150.401 88.7656 151.113 93.7366 151.275 96.2221C150.87 97.4649 149.43 99.9504 146.906 99.9504Z" fill="#131313"/>
<circle cx="144.493" cy="96.9215" r="0.529412" transform="rotate(9.55715 144.493 96.9215)" fill="white"/>
</g>
<path d="M126.234 88.3928L129.589 83.9189H116.898L109.814 87.2744L103.104 96.2222C104.968 95.1037 109.143 92.6431 110.933 91.7483C112.722 90.8535 122.257 89.1385 126.234 88.3928Z" fill="#614746"/>
<path d="M140.705 87.0371L138.929 84.868L148.74 85.4118L152.491 87.0386L153.434 89.5128C151.071 88.2147 143.375 87.4955 140.705 87.0371Z" fill="#614746"/>
<path d="M105.335 83.5458C111.3 75.791 116.022 62.6676 117.638 57.0752C124.847 58.5665 137.551 58.5665 130.691 46.6361C122.116 31.7231 84.4588 57.0752 73.6468 68.6328C64.9973 77.8789 77.2508 94.6063 84.4588 101.814L92.5287 104.782L97.2934 112.723C97.6663 111.232 99.7764 113.424 98.8817 109.547C97.7632 104.7 97.8782 93.2393 105.335 83.5458Z" fill="#806669"/>
<path d="M144.859 128.285C138.596 130.373 128.828 131.889 124.727 132.386C126.964 134.623 134.047 134.996 139.267 133.878C143.442 132.983 144.735 129.776 144.859 128.285Z" fill="#E26762"/>
<path d="M145.232 128.285C139.888 129.776 128.306 132.684 124.727 132.386" stroke="black" stroke-width="0.74565" stroke-linecap="round"/>
<path d="M129.937 105.566C129.937 106.307 130.538 106.909 131.28 106.909C132.022 106.909 132.623 106.307 132.623 105.566H129.937ZM139.041 104.588C139.041 105.33 139.642 105.931 140.385 105.931C141.126 105.931 141.728 105.33 141.728 104.588H139.041ZM110.872 106.366C111.58 106.59 112.334 106.198 112.558 105.49C112.781 104.783 112.389 104.028 111.682 103.805L110.872 106.366ZM81.709 100.446L82.2869 101.658C82.3014 101.651 82.3157 101.644 82.3301 101.637L81.709 100.446ZM75.6803 109.976C75.8156 110.705 76.5166 111.187 77.2459 111.052C77.9752 110.916 78.4568 110.215 78.3215 109.486L75.6803 109.976ZM129.937 105.086C129.937 110.261 126.356 114.106 122.34 114.106V116.792C128.199 116.792 132.623 111.358 132.623 105.086H129.937ZM122.34 114.106C118.324 114.106 112.626 110.261 112.626 105.086H109.94C109.94 111.358 116.482 116.792 122.34 116.792V114.106ZM112.626 105.086C112.626 99.9104 118.324 96.065 122.34 96.065V93.3788C116.482 93.3788 109.94 98.8133 109.94 105.086H112.626ZM122.34 96.065C126.356 96.065 129.937 99.9104 129.937 105.086H132.623C132.623 98.8133 128.199 93.3788 122.34 93.3788V96.065ZM156.838 103.083C156.838 108.258 153.257 112.103 149.241 112.103V114.789C155.1 114.789 159.524 109.355 159.524 103.083H156.838ZM149.241 112.103C145.225 112.103 141.645 108.258 141.645 103.083H138.959C138.959 109.355 143.383 114.789 149.241 114.789V112.103ZM141.645 103.083C141.645 97.9076 145.225 94.0622 149.241 94.0622V91.376C143.383 91.376 138.959 96.8105 138.959 103.083H141.645ZM149.241 94.0622C153.257 94.0622 156.838 97.9076 156.838 103.083H159.524C159.524 96.8105 155.1 91.376 149.241 91.376V94.0622ZM132.623 105.566C132.623 105.106 132.845 104.7 133.425 104.331C134.033 103.944 134.932 103.684 135.914 103.624C136.897 103.564 137.804 103.715 138.407 103.988C139.019 104.266 139.041 104.51 139.041 104.588H141.728C141.728 103.016 140.611 102.038 139.516 101.542C138.412 101.041 137.043 100.864 135.75 100.943C134.456 101.022 133.079 101.366 131.981 102.066C130.852 102.785 129.937 103.951 129.937 105.566H132.623ZM111.277 105.086C111.682 103.805 111.682 103.805 111.682 103.805L111.68 103.804L111.676 103.803C111.673 103.802 111.668 103.801 111.662 103.799C111.649 103.795 111.63 103.789 111.605 103.781C111.556 103.765 111.483 103.743 111.388 103.713C111.199 103.655 110.921 103.57 110.566 103.463C109.856 103.249 108.837 102.948 107.594 102.597C105.109 101.896 103.842 100.995 100.25 100.199C96.6655 99.4042 92.8396 98.7055 89.4824 98.4202C87.804 98.2775 86.2123 98.2354 84.8094 98.345C83.4264 98.4531 82.1223 98.7157 81.088 99.255L82.3301 101.637C82.9009 101.339 83.7909 101.119 85.0186 101.023C86.2264 100.929 87.6618 100.961 89.2549 101.097C92.4408 101.368 96.135 102.038 99.6689 102.821C103.196 103.604 104.411 104.49 106.864 105.182C108.09 105.528 109.095 105.825 109.792 106.035C110.14 106.14 110.411 106.223 110.595 106.28C110.687 106.308 110.757 106.33 110.804 106.345C110.827 106.352 110.844 106.357 110.856 106.361C110.862 106.363 110.866 106.364 110.869 106.365L110.872 106.366C110.872 106.366 110.872 106.366 111.277 105.086ZM81.1312 99.2334C79.1691 100.169 77.5715 101.731 76.5862 103.674L78.9821 104.888C79.7003 103.472 80.8629 102.337 82.2869 101.658L81.1312 99.2334ZM76.5862 103.674C75.601 105.617 75.2828 107.833 75.6803 109.976L78.3215 109.486C78.0313 107.922 78.2638 106.305 78.9821 104.888L76.5862 103.674Z" fill="black"/>
<path d="M118.016 130.897C120.999 125.827 129.947 121.08 134.048 119.34C135.912 118.494 135.539 119.34 136.658 120.458C137.776 121.576 138.895 121.577 141.132 121.577C143.369 121.577 143.741 120.458 144.114 119.34C144.487 118.221 145.978 120.085 150.452 121.577C154.926 123.068 152.316 123.068 153.062 124.932C153.808 126.796 148.588 124.932 147.842 127.169C147.097 129.406 141.504 126.051 140.386 127.169C139.267 128.288 134.048 128.288 132.184 130.152C130.693 131.643 125.846 131.27 123.609 130.897C120.502 133.01 115.034 135.968 118.016 130.897Z" fill="#614746"/>
<path d="M44.9419 195.394C45.8367 193.008 80.3603 179.487 97.5102 173.024L114.66 184.582C118.761 188.186 127.471 195.135 129.059 193.724C131.743 191.338 139.391 181.227 142.249 177.125C151.073 180.481 170.584 187.714 178.04 189.802C185.497 191.889 187.361 210.804 187.361 220H32.6387C36.3669 212.792 44.0471 197.78 44.9419 195.394Z" fill="url(#paint2_linear_518_4485)"/>
<path d="M123.607 184.955L104.593 171.16C103.117 169.9 103.117 166.724 102.729 162.958C102.729 162.958 94.6243 172.219 94.6465 173.606C94.6688 174.993 106.457 198.004 106.457 198.004C108.819 195.145 114.212 189.279 116.897 188.683C119.581 188.086 125.882 193.724 129.058 194.253L123.607 184.955Z" fill="#EEEEEE"/>
<path d="M139.561 171.16L130.847 184.955L129.058 194.253C131.176 192.135 134.253 189.235 134.882 188.959C136.134 188.409 145.47 194.253 148.646 196.139L144.941 177.841L140.516 163.288C140.486 163.171 140.452 163.06 140.416 162.958L140.516 163.288C141.149 165.729 140.474 171.16 139.561 171.16Z" fill="#EEEEEE"/>
<path d="M134.354 145.018C128.761 144.396 123.236 142.455 118.762 142.455C115.821 142.455 98.6298 108.525 98.6298 108.525L96.7656 111.881C96.7656 111.881 107.876 144.915 109.069 147.301C110.262 149.687 133.675 157.243 145.233 160.723C146.724 160.102 150.005 158.859 151.198 158.859C152.391 158.859 158.406 140.963 161.264 132.015L159.766 125.959L157.648 122.782C157.648 123.404 157.119 125.757 157.119 127.547C157.119 129.784 154.039 138.665 150.766 139.723C147.492 140.782 144.942 136.547 142.25 135.744L139.641 136.489C139.641 136.489 140.013 137.006 141.132 140.218C142.25 143.429 134.354 145.018 134.354 145.018Z" fill="#614746"/>
<path d="M142.995 61.9229C142.995 57.449 137.776 53.5965 135.166 52.2295C138.894 47.7555 142.995 53.3479 147.096 56.7034C150.377 59.3877 143.99 68.0124 140.386 71.9892C141.255 70.4979 142.995 66.3968 142.995 61.9229Z" fill="#615151"/>
<path d="M90.4286 109.644C90.7269 109.942 92.7899 113.745 93.7841 115.609C94.5309 116.999 93.41 118.219 92.6644 118.219C91.9187 118.219 91.5459 119.71 91.9187 120.828C92.2916 121.947 93.41 124.557 91.9187 125.302C90.4274 126.048 83.345 117.846 82.2265 116.355C81.108 114.863 81.108 110.389 81.8537 108.152C82.5993 105.915 84.0906 106.661 85.5819 105.916C87.0732 105.17 90.0558 109.271 90.4286 109.644Z" fill="#D36266"/>
<path d="M93.0361 113.746C91.5448 110.887 87.8911 105.32 85.2068 105.916C82.5224 106.513 81.6028 107.904 81.4785 108.526" stroke="#793033" stroke-width="0.74565" stroke-linecap="round"/>
<path d="M92.2899 82.7014C101.834 78.824 109.44 64.9301 112.05 58.4678C108.47 82.9251 82.9692 90.2822 70.666 90.9036C73.8972 89.7851 82.7456 86.5788 92.2899 82.7014Z" fill="#D9D9D9"/>
<path d="M88.9362 95.7502C98.4805 91.8729 99.3753 86.1811 101.985 79.7188C98.406 104.176 85.9536 98.1115 73.6504 98.7328C76.8815 97.6144 79.3919 99.6276 88.9362 95.7502Z" fill="#D9D9D9"/>
<path d="M86.7086 76.844C94.4473 73.546 100.614 61.7281 102.73 56.2314C99.8281 77.0342 79.1514 83.292 69.1758 83.8205C71.7956 82.8692 78.97 80.142 86.7086 76.844Z" fill="#D9D9D9"/>
<rect x="220.352" y="20.3521" width="115.197" height="18.9296" rx="9.46479" fill="#2E075F"/>
<rect x="220.352" y="20.3521" width="115.197" height="18.9296" rx="9.46479" stroke="#944AF2" stroke-width="0.704225"/>
<path d="M229.166 33.8174V25.333H232.494C234.422 25.333 235.529 26.5225 235.529 28.1924C235.529 29.8857 234.404 31.0518 232.447 31.0518H230.924V33.8174H229.166ZM230.924 29.6338H232.166C233.209 29.6338 233.719 29.0479 233.713 28.1924C233.719 27.3486 233.209 26.7803 232.166 26.7744H230.924V29.6338ZM236.607 33.8174V27.4541H238.283V28.5557H238.354C238.582 27.7764 239.174 27.3604 239.889 27.3604C240.064 27.3604 240.287 27.3838 240.439 27.4189V28.9658C240.275 28.9131 239.941 28.8721 239.701 28.8721C238.916 28.8721 238.336 29.417 238.342 30.1963V33.8174H236.607ZM243.943 33.9463C242.021 33.9404 240.82 32.6221 240.826 30.6533C240.82 28.6904 242.021 27.3721 243.943 27.3721C245.871 27.3721 247.066 28.6904 247.072 30.6533C247.066 32.6221 245.871 33.9404 243.943 33.9463ZM242.584 30.6533C242.584 31.7666 243.047 32.5928 243.955 32.5986C244.84 32.5928 245.309 31.7666 245.303 30.6533C245.309 29.5342 244.84 28.6963 243.955 28.6963C243.047 28.6963 242.584 29.5342 242.584 30.6533ZM250.506 33.9229C249.053 33.9229 247.916 32.7686 247.916 30.6416C247.916 28.4619 249.1 27.3721 250.506 27.3721C251.572 27.3721 252.082 28.0049 252.311 28.5205H252.369V25.333H254.104V33.8174H252.393V32.7979H252.311C252.07 33.3252 251.543 33.9229 250.506 33.9229ZM249.697 30.6299C249.691 31.7549 250.166 32.5342 251.045 32.54C251.912 32.5342 252.404 31.7783 252.404 30.6299C252.404 29.4873 251.918 28.7549 251.045 28.7549C250.16 28.7549 249.691 29.5225 249.697 30.6299ZM259.576 31.1104V27.4541H261.311V33.8174H259.646V32.6689H259.576C259.289 33.4072 258.604 33.8994 257.643 33.8994C256.371 33.8994 255.498 32.9971 255.498 31.5088V27.4541H257.232V31.2041C257.232 31.96 257.666 32.4287 258.346 32.4346C258.979 32.4287 259.576 31.9775 259.576 31.1104ZM265.518 33.9463C263.566 33.9404 262.395 32.5928 262.4 30.6533C262.395 28.708 263.59 27.3721 265.518 27.3721C267.158 27.3721 268.271 28.3271 268.342 29.7861H266.713C266.607 29.1592 266.197 28.7256 265.541 28.7197C264.709 28.7256 264.158 29.4229 264.158 30.6299C264.158 31.8604 264.697 32.5635 265.541 32.5635C266.15 32.5635 266.602 32.1826 266.713 31.5088H268.342C268.266 32.9502 267.205 33.9404 265.518 33.9463ZM272.771 27.4541V28.7549H271.576V31.8604C271.57 32.3701 271.822 32.4932 272.174 32.5049C272.35 32.5049 272.654 32.4873 272.865 32.4697V33.8408C272.678 33.8701 272.367 33.9053 271.939 33.8994C270.686 33.9053 269.83 33.3428 269.842 32.1064V28.7549H268.963V27.4541H269.842V25.9307H271.576V27.4541H272.771ZM284.432 29.5752C284.432 32.3467 282.715 33.9346 280.471 33.9346C278.209 33.9346 276.498 32.335 276.498 29.5752C276.498 26.8037 278.209 25.2158 280.471 25.2158C282.715 25.2158 284.432 26.8037 284.432 29.5752ZM278.291 29.5752C278.291 31.3857 279.152 32.3701 280.471 32.376C281.777 32.3701 282.645 31.3857 282.639 29.5752C282.645 27.7588 281.777 26.7803 280.471 26.7744C279.152 26.7803 278.291 27.7588 278.291 29.5752ZM285.662 36.208V27.4541H287.373V28.5205H287.443C287.684 28.0049 288.188 27.3721 289.26 27.3721C290.666 27.3721 291.844 28.4619 291.838 30.6416C291.844 32.7686 290.713 33.9229 289.26 33.9229C288.223 33.9229 287.689 33.3252 287.443 32.7979H287.396V36.208H285.662ZM287.361 30.6299C287.355 31.7783 287.848 32.5342 288.709 32.54C289.594 32.5342 290.074 31.7549 290.068 30.6299C290.074 29.5225 289.605 28.7549 288.709 28.7549C287.842 28.7549 287.355 29.4873 287.361 30.6299ZM295.846 33.9463C293.895 33.9404 292.699 32.6807 292.705 30.665C292.699 28.7021 293.912 27.3721 295.775 27.3721C297.445 27.3721 298.764 28.4268 298.764 30.5947V31.0869H294.416C294.416 32.0479 294.984 32.6396 295.881 32.6455C296.473 32.6396 296.895 32.3818 297.064 32.001H298.717C298.471 33.1787 297.416 33.9404 295.846 33.9463ZM294.416 29.9971H297.123C297.117 29.2236 296.584 28.667 295.811 28.6729C295.014 28.667 294.451 29.2646 294.416 29.9971ZM299.854 33.8174V27.4541H301.529V28.5557H301.6C301.828 27.7764 302.42 27.3604 303.135 27.3604C303.311 27.3604 303.533 27.3838 303.686 27.4189V28.9658C303.521 28.9131 303.188 28.8721 302.947 28.8721C302.162 28.8721 301.582 29.417 301.588 30.1963V33.8174H299.854ZM304.049 32.0361C304.055 30.6182 305.191 30.1553 306.416 30.0791C306.873 30.0498 307.729 30.0088 307.998 29.9971V29.4814C307.992 28.9482 307.629 28.6436 306.979 28.6377C306.387 28.6436 306.018 28.9072 305.924 29.3408H304.271C304.377 28.2393 305.338 27.3721 307.025 27.3721C308.414 27.3721 309.727 27.9932 309.721 29.5283V33.8174H308.08V32.9385H308.033C307.723 33.5244 307.113 33.9404 306.17 33.9346C304.951 33.9404 304.055 33.2959 304.049 32.0361ZM305.713 31.9893C305.713 32.4756 306.105 32.7334 306.662 32.7393C307.453 32.7334 308.004 32.2178 307.998 31.5439V31.0811C307.734 31.0928 306.99 31.1338 306.697 31.1572C306.094 31.21 305.713 31.4971 305.713 31.9893ZM314.396 27.4541V28.7549H313.201V31.8604C313.195 32.3701 313.447 32.4932 313.799 32.5049C313.975 32.5049 314.279 32.4873 314.49 32.4697V33.8408C314.303 33.8701 313.992 33.9053 313.564 33.8994C312.311 33.9053 311.455 33.3428 311.467 32.1064V28.7549H310.588V27.4541H311.467V25.9307H313.201V27.4541H314.396ZM318.275 33.9463C316.354 33.9404 315.152 32.6221 315.158 30.6533C315.152 28.6904 316.354 27.3721 318.275 27.3721C320.203 27.3721 321.398 28.6904 321.404 30.6533C321.398 32.6221 320.203 33.9404 318.275 33.9463ZM316.916 30.6533C316.916 31.7666 317.379 32.5928 318.287 32.5986C319.172 32.5928 319.641 31.7666 319.635 30.6533C319.641 29.5342 319.172 28.6963 318.287 28.6963C317.379 28.6963 316.916 29.5342 316.916 30.6533ZM322.494 33.8174V27.4541H324.17V28.5557H324.24C324.469 27.7764 325.061 27.3604 325.775 27.3604C325.951 27.3604 326.174 27.3838 326.326 27.4189V28.9658C326.162 28.9131 325.828 28.8721 325.588 28.8721C324.803 28.8721 324.223 29.417 324.229 30.1963V33.8174H322.494Z" fill="#ECECF8"/>
<path d="M228.203 57.665H231.695V69.501C231.695 72.7939 229.363 74.8682 225.953 74.8682C222.883 74.8682 220.48 73.251 220.492 69.8994H224.008C224.031 71.2471 224.852 72.0322 226.117 72.0322C227.465 72.0322 228.203 71.165 228.203 69.501V57.665ZM240.203 74.8916C236.359 74.8799 233.957 72.2432 233.969 68.3057C233.957 64.3799 236.359 61.7432 240.203 61.7432C244.059 61.7432 246.449 64.3799 246.461 68.3057C246.449 72.2432 244.059 74.8799 240.203 74.8916ZM237.484 68.3057C237.484 70.5322 238.41 72.1846 240.227 72.1963C241.996 72.1846 242.934 70.5322 242.922 68.3057C242.934 66.0674 241.996 64.3916 240.227 64.3916C238.41 64.3916 237.484 66.0674 237.484 68.3057ZM252.109 67.2744V74.6338H248.641V61.9072H251.945V64.1338H252.086C252.66 62.6689 254.02 61.7432 255.906 61.7432C258.566 61.7432 260.301 63.5596 260.289 66.5244V74.6338H256.844V67.1338C256.832 65.5635 255.988 64.626 254.547 64.626C253.105 64.626 252.109 65.5986 252.109 67.2744ZM262.375 71.0713C262.387 68.2354 264.66 67.3096 267.109 67.1572C268.023 67.0986 269.734 67.0166 270.273 66.9932V65.9619C270.262 64.8955 269.535 64.2861 268.234 64.2744C267.051 64.2861 266.312 64.8135 266.125 65.6807H262.82C263.031 63.4775 264.953 61.7432 268.328 61.7432C271.105 61.7432 273.73 62.9854 273.719 66.0557V74.6338H270.438V72.876H270.344C269.723 74.0479 268.504 74.8799 266.617 74.8682C264.18 74.8799 262.387 73.5908 262.375 71.0713ZM265.703 70.9775C265.703 71.9502 266.488 72.4658 267.602 72.4775C269.184 72.4658 270.285 71.4346 270.273 70.0869V69.1611C269.746 69.1846 268.258 69.2666 267.672 69.3135C266.465 69.4189 265.703 69.9932 265.703 70.9775ZM283.07 61.9072V64.5088H280.68V70.7197C280.668 71.7393 281.172 71.9854 281.875 72.0088C282.227 72.0088 282.836 71.9736 283.258 71.9385V74.6807C282.883 74.7393 282.262 74.8096 281.406 74.7979C278.898 74.8096 277.188 73.6846 277.211 71.2119V64.5088H275.453V61.9072H277.211V58.8604H280.68V61.9072H283.07ZM289 67.2744V74.6338H285.531V57.665H288.906V64.1338H289.047C289.633 62.6455 290.91 61.7432 292.844 61.7432C295.504 61.7432 297.25 63.5361 297.25 66.5244V74.6338H293.781V67.1338C293.781 65.5518 292.938 64.626 291.484 64.626C290.02 64.626 289 65.5986 289 67.2744ZM299.312 71.0713C299.324 68.2354 301.598 67.3096 304.047 67.1572C304.961 67.0986 306.672 67.0166 307.211 66.9932V65.9619C307.199 64.8955 306.473 64.2861 305.172 64.2744C303.988 64.2861 303.25 64.8135 303.062 65.6807H299.758C299.969 63.4775 301.891 61.7432 305.266 61.7432C308.043 61.7432 310.668 62.9854 310.656 66.0557V74.6338H307.375V72.876H307.281C306.66 74.0479 305.441 74.8799 303.555 74.8682C301.117 74.8799 299.324 73.5908 299.312 71.0713ZM302.641 70.9775C302.641 71.9502 303.426 72.4658 304.539 72.4775C306.121 72.4658 307.223 71.4346 307.211 70.0869V69.1611C306.684 69.1846 305.195 69.2666 304.609 69.3135C303.402 69.4189 302.641 69.9932 302.641 70.9775ZM316.773 67.2744V74.6338H313.305V61.9072H316.609V64.1338H316.75C317.324 62.6689 318.684 61.7432 320.57 61.7432C323.23 61.7432 324.965 63.5596 324.953 66.5244V74.6338H321.508V67.1338C321.496 65.5635 320.652 64.626 319.211 64.626C317.77 64.626 316.773 65.5986 316.773 67.2744Z" fill="#ECECF8"/>
<path d="M223.484 107.634L220.25 96.3213H222.812L224.719 104.228H224.812L226.891 96.3213H229.094L231.172 104.243H231.266L233.172 96.3213H235.734L232.5 107.634H230.203L228.047 100.165H227.953L225.781 107.634H223.484ZM239.203 102.728V107.634H236.891V96.3213H239.141V100.634H239.234C239.625 99.6416 240.477 99.04 241.766 99.04C243.539 99.04 244.703 100.235 244.703 102.228V107.634H242.391V102.634C242.391 101.579 241.828 100.962 240.859 100.962C239.883 100.962 239.203 101.61 239.203 102.728ZM246.078 105.259C246.086 103.368 247.602 102.751 249.234 102.649C249.844 102.61 250.984 102.556 251.344 102.54V101.853C251.336 101.142 250.852 100.735 249.984 100.728C249.195 100.735 248.703 101.087 248.578 101.665H246.375C246.516 100.196 247.797 99.04 250.047 99.04C251.898 99.04 253.648 99.8682 253.641 101.915V107.634H251.453V106.462H251.391C250.977 107.243 250.164 107.798 248.906 107.79C247.281 107.798 246.086 106.938 246.078 105.259ZM248.297 105.196C248.297 105.845 248.82 106.188 249.562 106.196C250.617 106.188 251.352 105.501 251.344 104.603V103.985C250.992 104.001 250 104.056 249.609 104.087C248.805 104.157 248.297 104.54 248.297 105.196ZM259.875 99.1494V100.884H258.281V105.024C258.273 105.704 258.609 105.868 259.078 105.884C259.312 105.884 259.719 105.86 260 105.837V107.665C259.75 107.704 259.336 107.751 258.766 107.743C257.094 107.751 255.953 107.001 255.969 105.353V100.884H254.797V99.1494H255.969V97.1182H258.281V99.1494H259.875ZM266.375 110.821C265.922 110.813 265.5 110.806 265.203 110.774V108.978C265.5 109.001 265.852 109.009 266.141 109.009C266.602 109.009 266.969 108.962 267.25 108.228L267.391 107.868L264.344 99.1494H266.766L268.547 105.399H268.641L270.438 99.1494H272.891L269.578 108.571C269.094 109.938 268.164 110.813 266.375 110.821ZM277.547 107.806C274.984 107.798 273.383 106.04 273.391 103.415C273.383 100.798 274.984 99.04 277.547 99.04C280.117 99.04 281.711 100.798 281.719 103.415C281.711 106.04 280.117 107.798 277.547 107.806ZM275.734 103.415C275.734 104.899 276.352 106.001 277.562 106.009C278.742 106.001 279.367 104.899 279.359 103.415C279.367 101.923 278.742 100.806 277.562 100.806C276.352 100.806 275.734 101.923 275.734 103.415ZM288.609 104.024V99.1494H290.922V107.634H288.703V106.103H288.609C288.227 107.087 287.312 107.743 286.031 107.743C284.336 107.743 283.172 106.54 283.172 104.556V99.1494H285.484V104.149C285.484 105.157 286.062 105.782 286.969 105.79C287.812 105.782 288.609 105.181 288.609 104.024ZM298.078 107.634L295.766 99.1494H298.109L299.438 104.884H299.516L300.906 99.1494H303.203L304.609 104.853H304.688L306 99.1494H308.344L306.016 107.634H303.578L302.109 102.243H302L300.531 107.634H298.078ZM309.109 105.259C309.117 103.368 310.633 102.751 312.266 102.649C312.875 102.61 314.016 102.556 314.375 102.54V101.853C314.367 101.142 313.883 100.735 313.016 100.728C312.227 100.735 311.734 101.087 311.609 101.665H309.406C309.547 100.196 310.828 99.04 313.078 99.04C314.93 99.04 316.68 99.8682 316.672 101.915V107.634H314.484V106.462H314.422C314.008 107.243 313.195 107.798 311.938 107.79C310.312 107.798 309.117 106.938 309.109 105.259ZM311.328 105.196C311.328 105.845 311.852 106.188 312.594 106.196C313.648 106.188 314.383 105.501 314.375 104.603V103.985C314.023 104.001 313.031 104.056 312.641 104.087C311.836 104.157 311.328 104.54 311.328 105.196ZM320.75 102.728V107.634H318.438V99.1494H320.641V100.634H320.734C321.117 99.6572 322.023 99.04 323.281 99.04C325.055 99.04 326.211 100.251 326.203 102.228V107.634H323.906V102.634C323.898 101.587 323.336 100.962 322.375 100.962C321.414 100.962 320.75 101.61 320.75 102.728ZM332.469 99.1494V100.884H330.875V105.024C330.867 105.704 331.203 105.868 331.672 105.884C331.906 105.884 332.312 105.86 332.594 105.837V107.665C332.344 107.704 331.93 107.751 331.359 107.743C329.688 107.751 328.547 107.001 328.562 105.353V100.884H327.391V99.1494H328.562V97.1182H330.875V99.1494H332.469Z" fill="#ECECF8" fill-opacity="0.5"/>
<path d="M222.516 117.553V127.451H221.012V117.553H222.516ZM229.42 127.451L227.246 120.027H228.75L230.199 125.469H230.281L231.73 120.027H233.234L234.67 125.441H234.752L236.188 120.027H237.691L235.518 127.451H234.027L232.523 122.105H232.414L230.924 127.451H229.42ZM238.553 125.359C238.546 123.664 239.988 123.227 241.328 123.131C241.82 123.104 242.935 123.042 243.276 123.028L243.27 122.434C243.276 121.593 242.757 121.107 241.766 121.107C240.904 121.107 240.385 121.504 240.234 122.051H238.785C238.915 120.82 240.063 119.932 241.82 119.932C243.003 119.932 244.726 120.362 244.732 122.516V127.451H243.311V126.439H243.256C242.969 126.993 242.285 127.615 241.055 127.615C239.646 127.615 238.546 126.809 238.553 125.359ZM239.975 125.373C239.975 126.084 240.562 126.446 241.383 126.453C242.572 126.446 243.283 125.653 243.283 124.771L243.276 124.095C242.941 124.115 241.882 124.19 241.533 124.211C240.576 124.279 239.975 124.642 239.975 125.373ZM247.959 123.049V127.451H246.496V120.027H247.904V121.244H247.986C248.335 120.444 249.066 119.932 250.174 119.932C251.698 119.932 252.71 120.896 252.703 122.734V127.451H251.254V122.912C251.247 121.832 250.666 121.189 249.682 121.189C248.677 121.189 247.959 121.866 247.959 123.049ZM257.953 120.027V121.189H256.436V125.264C256.442 126.104 256.853 126.255 257.324 126.262C257.536 126.262 257.857 126.241 258.062 126.221V127.492C257.864 127.52 257.55 127.547 257.146 127.547C256.005 127.547 254.973 126.918 254.986 125.564V121.189H253.893V120.027H254.986V118.25H256.436V120.027H257.953ZM266.266 120.027V121.189H264.748V125.264C264.755 126.104 265.165 126.255 265.637 126.262C265.849 126.262 266.17 126.241 266.375 126.221V127.492C266.177 127.52 265.862 127.547 265.459 127.547C264.317 127.547 263.285 126.918 263.299 125.564V121.189H262.205V120.027H263.299V118.25H264.748V120.027H266.266ZM270.75 127.602C268.645 127.602 267.271 126.07 267.277 123.773C267.271 121.463 268.645 119.932 270.75 119.932C272.842 119.932 274.209 121.463 274.209 123.773C274.209 126.07 272.842 127.602 270.75 127.602ZM268.74 123.773C268.74 125.188 269.39 126.385 270.75 126.385C272.09 126.385 272.732 125.188 272.732 123.773C272.732 122.352 272.09 121.142 270.75 121.135C269.39 121.142 268.74 122.352 268.74 123.773ZM278.721 125.359C278.714 123.664 280.156 123.227 281.496 123.131C281.988 123.104 283.103 123.042 283.444 123.028L283.438 122.434C283.444 121.593 282.925 121.107 281.934 121.107C281.072 121.107 280.553 121.504 280.402 122.051H278.953C279.083 120.82 280.231 119.932 281.988 119.932C283.171 119.932 284.894 120.362 284.9 122.516V127.451H283.479V126.439H283.424C283.137 126.993 282.453 127.615 281.223 127.615C279.814 127.615 278.714 126.809 278.721 125.359ZM280.143 125.373C280.143 126.084 280.73 126.446 281.551 126.453C282.74 126.446 283.451 125.653 283.451 124.771L283.444 124.095C283.109 124.115 282.05 124.19 281.701 124.211C280.744 124.279 280.143 124.642 280.143 125.373ZM289.809 127.602C287.642 127.602 286.329 126.009 286.336 123.773C286.329 121.511 287.689 119.932 289.781 119.932C291.477 119.932 292.7 120.93 292.857 122.434H291.436C291.285 121.736 290.731 121.155 289.809 121.148C288.605 121.155 287.799 122.153 287.799 123.732C287.799 125.359 288.585 126.364 289.809 126.357C290.636 126.364 291.251 125.899 291.436 125.1H292.857C292.7 126.542 291.559 127.602 289.809 127.602ZM297.711 120.027V121.189H296.193V125.264C296.2 126.104 296.61 126.255 297.082 126.262C297.294 126.262 297.615 126.241 297.82 126.221V127.492C297.622 127.52 297.308 127.547 296.904 127.547C295.763 127.547 294.73 126.918 294.744 125.564V121.189H293.65V120.027H294.744V118.25H296.193V120.027H297.711ZM303.85 124.361V120.027H305.299V127.451H303.877V126.166H303.795C303.453 126.959 302.694 127.547 301.58 127.547C300.145 127.547 299.133 126.583 299.133 124.744V120.027H300.596V124.566C300.596 125.578 301.211 126.221 302.1 126.221C302.913 126.221 303.85 125.626 303.85 124.361ZM306.734 125.359C306.728 123.664 308.17 123.227 309.51 123.131C310.002 123.104 311.116 123.042 311.458 123.028L311.451 122.434C311.458 121.593 310.938 121.107 309.947 121.107C309.086 121.107 308.566 121.504 308.416 122.051H306.967C307.097 120.82 308.245 119.932 310.002 119.932C311.185 119.932 312.907 120.362 312.914 122.516V127.451H311.492V126.439H311.438C311.15 126.993 310.467 127.615 309.236 127.615C307.828 127.615 306.728 126.809 306.734 125.359ZM308.156 125.373C308.156 126.084 308.744 126.446 309.564 126.453C310.754 126.446 311.465 125.653 311.465 124.771L311.458 124.095C311.123 124.115 310.063 124.19 309.715 124.211C308.758 124.279 308.156 124.642 308.156 125.373ZM316.141 117.553V127.451H314.678V117.553H316.141ZM319.381 117.553V127.451H317.918V117.553H319.381ZM322.061 130.24C321.76 130.233 321.466 130.227 321.281 130.199V128.982C321.445 128.996 321.732 129.003 321.938 129.01C322.389 129.003 322.765 128.976 323.113 128.039L323.291 127.547L320.57 120.027H322.129L324.002 125.783H324.084L325.957 120.027H327.529L324.467 128.436C324.036 129.611 323.284 130.233 322.061 130.24ZM335.281 127.602C333.176 127.602 331.802 126.07 331.809 123.773C331.802 121.463 333.176 119.932 335.281 119.932C337.373 119.932 338.74 121.463 338.74 123.773C338.74 126.07 337.373 127.602 335.281 127.602ZM333.271 123.773C333.271 125.188 333.921 126.385 335.281 126.385C336.621 126.385 337.264 125.188 337.264 123.773C337.264 122.352 336.621 121.142 335.281 121.135C333.921 121.142 333.271 122.352 333.271 123.773ZM340.176 130.24V120.027H341.598V121.23H341.721C341.98 120.766 342.479 119.932 343.854 119.932C345.651 119.932 346.971 121.34 346.971 123.76C346.971 126.152 345.665 127.595 343.867 127.602C342.521 127.595 341.987 126.774 341.721 126.289H341.639V130.24H340.176ZM341.611 123.732C341.611 125.291 342.295 126.351 343.539 126.357C344.824 126.351 345.494 125.223 345.494 123.732C345.494 122.27 344.845 121.169 343.539 121.176C342.281 121.169 341.611 122.188 341.611 123.732ZM351.619 127.602C349.432 127.602 348.085 126.091 348.092 123.787C348.085 121.504 349.452 119.932 351.523 119.932C353.212 119.932 354.818 120.978 354.818 123.664V124.184H349.541C349.582 125.599 350.416 126.398 351.633 126.398C352.46 126.398 353 126.043 353.246 125.592H354.723C354.395 126.795 353.253 127.602 351.619 127.602ZM349.548 123.09H353.383C353.383 121.962 352.651 121.128 351.537 121.135C350.368 121.128 349.609 122.044 349.548 123.09ZM356.268 127.451V120.027H357.676V121.203H357.758C358.031 120.41 358.776 119.911 359.645 119.918C359.822 119.911 360.109 119.932 360.26 119.945V121.34C360.137 121.312 359.795 121.251 359.494 121.258C358.482 121.251 357.73 121.955 357.73 122.926V127.451H356.268ZM360.93 125.359C360.923 123.664 362.365 123.227 363.705 123.131C364.197 123.104 365.312 123.042 365.653 123.028L365.646 122.434C365.653 121.593 365.134 121.107 364.143 121.107C363.281 121.107 362.762 121.504 362.611 122.051H361.162C361.292 120.82 362.44 119.932 364.197 119.932C365.38 119.932 367.103 120.362 367.109 122.516V127.451H365.688V126.439H365.633C365.346 126.993 364.662 127.615 363.432 127.615C362.023 127.615 360.923 126.809 360.93 125.359ZM362.352 125.373C362.352 126.084 362.939 126.446 363.76 126.453C364.949 126.446 365.66 125.653 365.66 124.771L365.653 124.095C365.318 124.115 364.259 124.19 363.91 124.211C362.953 124.279 362.352 124.642 362.352 125.373ZM372.346 120.027V121.189H370.828V125.264C370.835 126.104 371.245 126.255 371.717 126.262C371.929 126.262 372.25 126.241 372.455 126.221V127.492C372.257 127.52 371.942 127.547 371.539 127.547C370.397 127.547 369.365 126.918 369.379 125.564V121.189H368.285V120.027H369.379V118.25H370.828V120.027H372.346ZM376.885 127.602C374.697 127.602 373.351 126.091 373.357 123.787C373.351 121.504 374.718 119.932 376.789 119.932C378.478 119.932 380.084 120.978 380.084 123.664V124.184H374.807C374.848 125.599 375.682 126.398 376.898 126.398C377.726 126.398 378.266 126.043 378.512 125.592H379.988C379.66 126.795 378.519 127.602 376.885 127.602ZM374.813 123.09H378.648C378.648 121.962 377.917 121.128 376.803 121.135C375.634 121.128 374.875 122.044 374.813 123.09ZM220.547 142.359C220.54 140.664 221.982 140.227 223.322 140.131C223.814 140.104 224.929 140.042 225.271 140.028L225.264 139.434C225.271 138.593 224.751 138.107 223.76 138.107C222.898 138.107 222.379 138.504 222.229 139.051H220.779C220.909 137.82 222.058 136.932 223.814 136.932C224.997 136.932 226.72 137.362 226.727 139.516V144.451H225.305V143.439H225.25C224.963 143.993 224.279 144.615 223.049 144.615C221.641 144.615 220.54 143.809 220.547 142.359ZM221.969 142.373C221.969 143.084 222.557 143.446 223.377 143.453C224.566 143.446 225.277 142.653 225.277 141.771L225.271 141.095C224.936 141.115 223.876 141.19 223.527 141.211C222.57 141.279 221.969 141.642 221.969 142.373ZM229.953 140.049V144.451H228.49V137.027H229.898V138.244H229.98C230.329 137.444 231.061 136.932 232.168 136.932C233.692 136.932 234.704 137.896 234.697 139.734V144.451H233.248V139.912C233.241 138.832 232.66 138.189 231.676 138.189C230.671 138.189 229.953 138.866 229.953 140.049ZM239.25 144.602C237.459 144.595 236.146 143.152 236.146 140.76C236.146 138.34 237.479 136.932 239.264 136.932C240.645 136.932 241.144 137.766 241.41 138.23H241.479V134.553H242.941V144.451H241.52V143.289H241.41C241.137 143.774 240.604 144.595 239.25 144.602ZM237.637 140.732C237.63 142.223 238.3 143.351 239.578 143.357C240.822 143.351 241.52 142.291 241.52 140.732C241.52 139.188 240.836 138.169 239.578 138.176C238.286 138.169 237.63 139.27 237.637 140.732ZM248.26 144.451V137.027H249.668V138.244H249.75C250.064 137.417 250.796 136.932 251.773 136.932C252.765 136.932 253.455 137.417 253.77 138.244H253.852C254.2 137.444 255.007 136.932 256.08 136.932C257.42 136.932 258.37 137.772 258.377 139.475V144.451H256.914V139.611C256.914 138.606 256.285 138.189 255.52 138.189C254.583 138.189 254.043 138.832 254.043 139.721V144.451H252.594V139.529C252.594 138.716 252.04 138.189 251.24 138.189C250.42 138.189 249.723 138.873 249.723 139.871V144.451H248.26ZM259.799 142.359C259.792 140.664 261.234 140.227 262.574 140.131C263.066 140.104 264.181 140.042 264.522 140.028L264.516 139.434C264.522 138.593 264.003 138.107 263.012 138.107C262.15 138.107 261.631 138.504 261.48 139.051H260.031C260.161 137.82 261.31 136.932 263.066 136.932C264.249 136.932 265.972 137.362 265.979 139.516V144.451H264.557V143.439H264.502C264.215 143.993 263.531 144.615 262.301 144.615C260.893 144.615 259.792 143.809 259.799 142.359ZM261.221 142.373C261.221 143.084 261.809 143.446 262.629 143.453C263.818 143.446 264.529 142.653 264.529 141.771L264.522 141.095C264.188 141.115 263.128 141.19 262.779 141.211C261.822 141.279 261.221 141.642 261.221 142.373ZM269.205 140.049V144.451H267.742V137.027H269.15V138.244H269.232C269.581 137.444 270.312 136.932 271.42 136.932C272.944 136.932 273.956 137.896 273.949 139.734V144.451H272.5V139.912C272.493 138.832 271.912 138.189 270.928 138.189C269.923 138.189 269.205 138.866 269.205 140.049ZM275.385 142.359C275.378 140.664 276.82 140.227 278.16 140.131C278.652 140.104 279.767 140.042 280.108 140.028L280.102 139.434C280.108 138.593 279.589 138.107 278.598 138.107C277.736 138.107 277.217 138.504 277.066 139.051H275.617C275.747 137.82 276.896 136.932 278.652 136.932C279.835 136.932 281.558 137.362 281.564 139.516V144.451H280.143V143.439H280.088C279.801 143.993 279.117 144.615 277.887 144.615C276.479 144.615 275.378 143.809 275.385 142.359ZM276.807 142.373C276.807 143.084 277.395 143.446 278.215 143.453C279.404 143.446 280.115 142.653 280.115 141.771L280.108 141.095C279.773 141.115 278.714 141.19 278.365 141.211C277.408 141.279 276.807 141.642 276.807 142.373ZM286.445 147.391C284.572 147.391 283.335 146.563 283.205 145.176H284.695C284.839 145.88 285.495 146.222 286.459 146.215C287.621 146.222 288.353 145.716 288.359 144.561V143.098H288.264C288.004 143.576 287.471 144.342 286.104 144.342C284.354 144.342 283 143.036 283 140.664C283 138.292 284.333 136.932 286.117 136.932C287.498 136.932 288.004 137.766 288.277 138.23H288.373V137.027H289.795V144.615C289.802 146.522 288.359 147.391 286.445 147.391ZM284.49 140.691C284.483 142.147 285.153 143.132 286.432 143.139C287.676 143.132 288.373 142.223 288.373 140.691C288.373 139.188 287.689 138.169 286.432 138.176C285.14 138.169 284.483 139.27 284.49 140.691ZM294.771 144.602C292.584 144.602 291.237 143.091 291.244 140.787C291.237 138.504 292.604 136.932 294.676 136.932C296.364 136.932 297.971 137.978 297.971 140.664V141.184H292.693C292.734 142.599 293.568 143.398 294.785 143.398C295.612 143.398 296.152 143.043 296.398 142.592H297.875C297.547 143.795 296.405 144.602 294.771 144.602ZM292.7 140.09H296.535C296.535 138.962 295.804 138.128 294.689 138.135C293.521 138.128 292.762 139.044 292.7 140.09ZM306.311 137.027V138.189H304.793V142.264C304.8 143.104 305.21 143.255 305.682 143.262C305.894 143.262 306.215 143.241 306.42 143.221V144.492C306.222 144.52 305.907 144.547 305.504 144.547C304.362 144.547 303.33 143.918 303.344 142.564V138.189H302.25V137.027H303.344V135.25H304.793V137.027H306.311ZM309.359 140.049V144.451H307.896V134.553H309.332V138.244H309.428C309.776 137.438 310.474 136.932 311.629 136.932C313.153 136.932 314.172 137.875 314.172 139.734V144.451H312.709V139.912C312.709 138.818 312.121 138.189 311.137 138.189C310.104 138.189 309.359 138.866 309.359 140.049ZM319.135 144.602C316.947 144.602 315.601 143.091 315.607 140.787C315.601 138.504 316.968 136.932 319.039 136.932C320.728 136.932 322.334 137.978 322.334 140.664V141.184H317.057C317.098 142.599 317.932 143.398 319.148 143.398C319.976 143.398 320.516 143.043 320.762 142.592H322.238C321.91 143.795 320.769 144.602 319.135 144.602ZM317.063 140.09H320.898C320.898 138.962 320.167 138.128 319.053 138.135C317.884 138.128 317.125 139.044 317.063 140.09ZM327.201 144.451V137.027H328.609V138.244H328.691C329.006 137.417 329.737 136.932 330.715 136.932C331.706 136.932 332.396 137.417 332.711 138.244H332.793C333.142 137.444 333.948 136.932 335.021 136.932C336.361 136.932 337.312 137.772 337.318 139.475V144.451H335.855V139.611C335.855 138.606 335.227 138.189 334.461 138.189C333.524 138.189 332.984 138.832 332.984 139.721V144.451H331.535V139.529C331.535 138.716 330.981 138.189 330.182 138.189C329.361 138.189 328.664 138.873 328.664 139.871V144.451H327.201ZM342.227 144.602C340.121 144.602 338.747 143.07 338.754 140.773C338.747 138.463 340.121 136.932 342.227 136.932C344.318 136.932 345.686 138.463 345.686 140.773C345.686 143.07 344.318 144.602 342.227 144.602ZM340.217 140.773C340.217 142.188 340.866 143.385 342.227 143.385C343.566 143.385 344.209 142.188 344.209 140.773C344.209 139.352 343.566 138.142 342.227 138.135C340.866 138.142 340.217 139.352 340.217 140.773ZM349.896 144.602C348.105 144.595 346.793 143.152 346.793 140.76C346.793 138.34 348.126 136.932 349.91 136.932C351.291 136.932 351.79 137.766 352.057 138.23H352.125V134.553H353.588V144.451H352.166V143.289H352.057C351.783 143.774 351.25 144.595 349.896 144.602ZM348.283 140.732C348.276 142.223 348.946 143.351 350.225 143.357C351.469 143.351 352.166 142.291 352.166 140.732C352.166 139.188 351.482 138.169 350.225 138.176C348.933 138.169 348.276 139.27 348.283 140.732ZM358.688 144.602C356.5 144.602 355.153 143.091 355.16 140.787C355.153 138.504 356.521 136.932 358.592 136.932C360.28 136.932 361.887 137.978 361.887 140.664V141.184H356.609C356.65 142.599 357.484 143.398 358.701 143.398C359.528 143.398 360.068 143.043 360.314 142.592H361.791C361.463 143.795 360.321 144.602 358.688 144.602ZM356.616 140.09H360.451C360.451 138.962 359.72 138.128 358.605 138.135C357.437 138.128 356.678 139.044 356.616 140.09ZM364.799 134.553V144.451H363.336V134.553H364.799ZM367.533 144.547C367 144.54 366.556 144.109 366.562 143.576C366.556 143.043 367 142.605 367.533 142.605C368.06 142.605 368.497 143.043 368.504 143.576C368.497 144.109 368.06 144.54 367.533 144.547Z" fill="#ECECF8"/>
<path d="M20.3867 267.969V266.516H27.3359V267.969H24.7344V275H22.9883V267.969H20.3867ZM30.3477 275.129C28.3965 275.123 27.2012 273.863 27.207 271.848C27.2012 269.885 28.4141 268.555 30.2773 268.555C31.9473 268.555 33.2656 269.609 33.2656 271.777V272.27H28.918C28.918 273.23 29.4863 273.822 30.3828 273.828C30.9746 273.822 31.3965 273.564 31.5664 273.184H33.2188C32.9727 274.361 31.918 275.123 30.3477 275.129ZM28.918 271.18H31.625C31.6191 270.406 31.0859 269.85 30.3125 269.855C29.5156 269.85 28.9531 270.447 28.918 271.18ZM37.2148 275.129C35.2637 275.123 34.0918 273.775 34.0977 271.836C34.0918 269.891 35.2871 268.555 37.2148 268.555C38.8555 268.555 39.9688 269.51 40.0391 270.969H38.4102C38.3047 270.342 37.8945 269.908 37.2383 269.902C36.4062 269.908 35.8555 270.605 35.8555 271.812C35.8555 273.043 36.3945 273.746 37.2383 273.746C37.8477 273.746 38.2988 273.365 38.4102 272.691H40.0391C39.9629 274.133 38.9023 275.123 37.2148 275.129ZM42.8516 271.32V275H41.1172V266.516H42.8047V269.75H42.875C43.168 269.006 43.8066 268.555 44.7734 268.555C46.1035 268.555 46.9766 269.451 46.9766 270.945V275H45.2422V271.25C45.2422 270.459 44.8203 269.996 44.0938 269.996C43.3613 269.996 42.8516 270.482 42.8516 271.32Z" fill="#ECECF8" fill-opacity="0.5"/>
<path d="M20.4688 288.453V287.516H26.8672V288.453H24.207V296H23.1406V288.453H20.4688ZM29.8906 296.129C28.0508 296.135 26.9141 294.822 26.9141 292.871C26.9141 290.914 28.0684 289.555 29.7969 289.555C31.1328 289.555 32.5449 290.375 32.5391 292.73V293.152H27.9219C27.9746 294.5 28.7598 295.238 29.8906 295.238C30.6523 295.238 31.1328 294.904 31.3672 294.512H32.4453C32.1465 295.479 31.2031 296.135 29.8906 296.129ZM27.9277 292.297H31.5195C31.5137 291.236 30.8457 290.445 29.7969 290.445C28.6953 290.445 27.998 291.312 27.9277 292.297ZM36.4531 296.129C34.6484 296.135 33.5469 294.758 33.5469 292.848C33.5469 290.914 34.7012 289.555 36.4297 289.555C37.7832 289.555 38.8027 290.357 38.9609 291.559H37.9531C37.8066 290.979 37.3027 290.445 36.4531 290.445C35.3164 290.445 34.5605 291.383 34.5547 292.812C34.5605 294.283 35.2988 295.227 36.4531 295.227C37.2031 295.227 37.7773 294.822 37.9531 294.125H38.9609C38.8027 295.262 37.8652 296.135 36.4531 296.129ZM41.2109 292.18V296H40.2031V287.516H41.2109V290.633H41.293C41.5918 289.977 42.1602 289.555 43.168 289.555C44.4688 289.555 45.3359 290.322 45.3359 291.957V296H44.3281V292.027C44.3281 291.025 43.7773 290.457 42.8633 290.457C41.9141 290.457 41.2109 291.078 41.2109 292.18ZM47.9609 292.18V296H46.9531V289.637H47.9258V290.633H48.0078C48.3066 289.982 48.9043 289.555 49.8711 289.555C51.1602 289.555 52.0215 290.34 52.0156 291.957V296H51.0078V292.027C51.0078 291.043 50.4688 290.457 49.5664 290.457C48.6406 290.457 47.9609 291.078 47.9609 292.18ZM53.6328 296V289.637H54.6406V296H53.6328ZM53.4336 287.914C53.4277 287.539 53.75 287.24 54.1367 287.246C54.5234 287.24 54.8457 287.539 54.8516 287.914C54.8457 288.283 54.5234 288.582 54.1367 288.582C53.75 288.582 53.4277 288.283 53.4336 287.914ZM58.8477 296.129C57.043 296.135 55.9414 294.758 55.9414 292.848C55.9414 290.914 57.0957 289.555 58.8242 289.555C60.1777 289.555 61.1973 290.357 61.3555 291.559H60.3477C60.2012 290.979 59.6973 290.445 58.8477 290.445C57.7109 290.445 56.9551 291.383 56.9492 292.812C56.9551 294.283 57.6934 295.227 58.8477 295.227C59.5977 295.227 60.1719 294.822 60.3477 294.125H61.3555C61.1973 295.262 60.2598 296.135 58.8477 296.129ZM62.293 294.195C62.293 292.736 63.582 292.402 64.6836 292.32C65.0938 292.291 66.1191 292.232 66.4062 292.227V291.711C66.4062 290.902 65.9258 290.434 64.9648 290.434C64.1621 290.434 63.6758 290.803 63.5352 291.289H62.4805C62.6094 290.264 63.6055 289.555 65.0117 289.555C65.8438 289.555 67.4082 289.801 67.4023 291.805V296H66.4062V295.133H66.3594C66.1484 295.561 65.5684 296.146 64.4609 296.152C63.2539 296.146 62.293 295.438 62.293 294.195ZM63.3008 294.242C63.3066 294.916 63.8633 295.256 64.6367 295.25C65.7734 295.256 66.4062 294.494 66.4062 293.691V293.053C66.1074 293.07 65.1055 293.146 64.8008 293.164C63.8867 293.223 63.3066 293.545 63.3008 294.242ZM70.0273 287.516V296H69.0195V287.516H70.0273ZM74.6445 298.391V289.637H75.6172V290.645H75.7344C75.9512 290.305 76.3379 289.555 77.5742 289.555C79.1738 289.555 80.2812 290.82 80.2812 292.836C80.2812 294.857 79.1738 296.135 77.5859 296.129C76.373 296.135 75.9512 295.379 75.7344 295.027H75.6523V298.391H74.6445ZM75.6289 292.812C75.6348 294.242 76.2734 295.227 77.4453 295.227C78.6523 295.227 79.2734 294.166 79.2734 292.812C79.2734 291.482 78.6699 290.457 77.4453 290.457C76.2559 290.457 75.6348 291.4 75.6289 292.812ZM81.5938 296V289.637H82.5664V290.609H82.6367C82.8652 289.965 83.5273 289.537 84.2773 289.531C84.4297 289.537 84.6875 289.543 84.8047 289.555V290.574C84.7285 290.557 84.459 290.504 84.1953 290.504C83.2812 290.504 82.6016 291.137 82.6016 291.992V296H81.5938ZM88.1797 296.129C86.4453 296.135 85.2734 294.822 85.2734 292.848C85.2734 290.861 86.4453 289.555 88.1797 289.555C89.9082 289.555 91.0684 290.861 91.0625 292.848C91.0684 294.822 89.9082 296.135 88.1797 296.129ZM86.2812 292.848C86.2871 294.119 86.8848 295.238 88.1797 295.238C89.4629 295.238 90.0547 294.119 90.0547 292.848C90.0547 291.582 89.4629 290.445 88.1797 290.445C86.8848 290.445 86.2871 291.582 86.2812 292.848ZM95.2344 289.637V290.48H93.8281V296H92.8086V290.48H91.7891V289.637H92.8086V288.77C92.8145 287.738 93.5 287.117 94.625 287.117C94.8711 287.117 95.1641 287.146 95.375 287.188V288.09C95.1582 288.055 94.9766 288.043 94.8477 288.043C94.1387 288.043 93.8223 288.336 93.8281 288.992V289.637H95.2344ZM96.4297 296V289.637H97.4375V296H96.4297ZM96.2305 287.914C96.2246 287.539 96.5469 287.24 96.9336 287.246C97.3203 287.24 97.6426 287.539 97.6484 287.914C97.6426 288.283 97.3203 288.582 96.9336 288.582C96.5469 288.582 96.2246 288.283 96.2305 287.914ZM101.645 296.129C99.8398 296.135 98.7383 294.758 98.7383 292.848C98.7383 290.914 99.8926 289.555 101.621 289.555C102.975 289.555 103.994 290.357 104.152 291.559H103.145C102.998 290.979 102.494 290.445 101.645 290.445C100.508 290.445 99.752 291.383 99.7461 292.812C99.752 294.283 100.49 295.227 101.645 295.227C102.395 295.227 102.969 294.822 103.145 294.125H104.152C103.994 295.262 103.057 296.135 101.645 296.129ZM105.395 296V289.637H106.402V296H105.395ZM105.195 287.914C105.189 287.539 105.512 287.24 105.898 287.246C106.285 287.24 106.607 287.539 106.613 287.914C106.607 288.283 106.285 288.582 105.898 288.582C105.512 288.582 105.189 288.283 105.195 287.914ZM110.68 296.129C108.84 296.135 107.703 294.822 107.703 292.871C107.703 290.914 108.857 289.555 110.586 289.555C111.922 289.555 113.334 290.375 113.328 292.73V293.152H108.711C108.764 294.5 109.549 295.238 110.68 295.238C111.441 295.238 111.922 294.904 112.156 294.512H113.234C112.936 295.479 111.992 296.135 110.68 296.129ZM108.717 292.297H112.309C112.303 291.236 111.635 290.445 110.586 290.445C109.484 290.445 108.787 291.312 108.717 292.297ZM115.648 292.18V296H114.641V289.637H115.613V290.633H115.695C115.994 289.982 116.592 289.555 117.559 289.555C118.848 289.555 119.709 290.34 119.703 291.957V296H118.695V292.027C118.695 291.043 118.156 290.457 117.254 290.457C116.328 290.457 115.648 291.078 115.648 292.18ZM123.922 296.129C122.117 296.135 121.016 294.758 121.016 292.848C121.016 290.914 122.17 289.555 123.898 289.555C125.252 289.555 126.271 290.357 126.43 291.559H125.422C125.275 290.979 124.771 290.445 123.922 290.445C122.785 290.445 122.029 291.383 122.023 292.812C122.029 294.283 122.768 295.227 123.922 295.227C124.672 295.227 125.246 294.822 125.422 294.125H126.43C126.271 295.262 125.334 296.135 123.922 296.129ZM128.316 298.391C128.1 298.385 127.883 298.379 127.754 298.367V297.465C127.859 297.477 128.088 297.482 128.246 297.488C128.656 297.482 129.002 297.459 129.336 296.527L129.523 296.047L127.168 289.637H128.27L130.004 294.688H130.074L131.809 289.637H132.91L130.215 296.914C129.84 297.916 129.219 298.385 128.316 298.391ZM137.035 296V289.637H138.043V296H137.035ZM136.836 287.914C136.83 287.539 137.152 287.24 137.539 287.246C137.926 287.24 138.248 287.539 138.254 287.914C138.248 288.283 137.926 288.582 137.539 288.582C137.152 288.582 136.83 288.283 136.836 287.914ZM140.656 292.18V296H139.648V289.637H140.621V290.633H140.703C141.002 289.982 141.6 289.555 142.566 289.555C143.855 289.555 144.717 290.34 144.711 291.957V296H143.703V292.027C143.703 291.043 143.164 290.457 142.262 290.457C141.336 290.457 140.656 291.078 140.656 292.18ZM149.469 287.516H150.734L153.594 294.5H153.699L156.559 287.516H157.824V296H156.828V289.59H156.746L154.109 296H153.172L150.535 289.59H150.465V296H149.469V287.516ZM159.699 296V287.516H160.754V295.062H164.691V296H159.699Z" fill="#ECECF8"/>
<circle cx="271" cy="292" r="6" fill="#944AF2"/>
<circle cx="295" cy="292" r="6" fill="#ECECF8" fill-opacity="0.3"/>
<circle cx="319" cy="292" r="6" fill="#ECECF8" fill-opacity="0.3"/>
<circle cx="343" cy="292" r="6" fill="#ECECF8" fill-opacity="0.3"/>
<circle cx="367" cy="292" r="6" fill="#ECECF8" fill-opacity="0.3"/>
<path d="M20.4688 308.453V307.516H26.8672V308.453H24.207V316H23.1406V308.453H20.4688ZM29.8906 316.129C28.0508 316.135 26.9141 314.822 26.9141 312.871C26.9141 310.914 28.0684 309.555 29.7969 309.555C31.1328 309.555 32.5449 310.375 32.5391 312.73V313.152H27.9219C27.9746 314.5 28.7598 315.238 29.8906 315.238C30.6523 315.238 31.1328 314.904 31.3672 314.512H32.4453C32.1465 315.479 31.2031 316.135 29.8906 316.129ZM27.9277 312.297H31.5195C31.5137 311.236 30.8457 310.445 29.7969 310.445C28.6953 310.445 27.998 311.312 27.9277 312.297ZM36.4531 316.129C34.6484 316.135 33.5469 314.758 33.5469 312.848C33.5469 310.914 34.7012 309.555 36.4297 309.555C37.7832 309.555 38.8027 310.357 38.9609 311.559H37.9531C37.8066 310.979 37.3027 310.445 36.4531 310.445C35.3164 310.445 34.5605 311.383 34.5547 312.812C34.5605 314.283 35.2988 315.227 36.4531 315.227C37.2031 315.227 37.7773 314.822 37.9531 314.125H38.9609C38.8027 315.262 37.8652 316.135 36.4531 316.129ZM41.2109 312.18V316H40.2031V307.516H41.2109V310.633H41.293C41.5918 309.977 42.1602 309.555 43.168 309.555C44.4688 309.555 45.3359 310.322 45.3359 311.957V316H44.3281V312.027C44.3281 311.025 43.7773 310.457 42.8633 310.457C41.9141 310.457 41.2109 311.078 41.2109 312.18ZM47.9609 312.18V316H46.9531V309.637H47.9258V310.633H48.0078C48.3066 309.982 48.9043 309.555 49.8711 309.555C51.1602 309.555 52.0215 310.34 52.0156 311.957V316H51.0078V312.027C51.0078 311.043 50.4688 310.457 49.5664 310.457C48.6406 310.457 47.9609 311.078 47.9609 312.18ZM53.6328 316V309.637H54.6406V316H53.6328ZM53.4336 307.914C53.4277 307.539 53.75 307.24 54.1367 307.246C54.5234 307.24 54.8457 307.539 54.8516 307.914C54.8457 308.283 54.5234 308.582 54.1367 308.582C53.75 308.582 53.4277 308.283 53.4336 307.914ZM58.8477 316.129C57.043 316.135 55.9414 314.758 55.9414 312.848C55.9414 310.914 57.0957 309.555 58.8242 309.555C60.1777 309.555 61.1973 310.357 61.3555 311.559H60.3477C60.2012 310.979 59.6973 310.445 58.8477 310.445C57.7109 310.445 56.9551 311.383 56.9492 312.812C56.9551 314.283 57.6934 315.227 58.8477 315.227C59.5977 315.227 60.1719 314.822 60.3477 314.125H61.3555C61.1973 315.262 60.2598 316.135 58.8477 316.129ZM62.293 314.195C62.293 312.736 63.582 312.402 64.6836 312.32C65.0938 312.291 66.1191 312.232 66.4062 312.227V311.711C66.4062 310.902 65.9258 310.434 64.9648 310.434C64.1621 310.434 63.6758 310.803 63.5352 311.289H62.4805C62.6094 310.264 63.6055 309.555 65.0117 309.555C65.8438 309.555 67.4082 309.801 67.4023 311.805V316H66.4062V315.133H66.3594C66.1484 315.561 65.5684 316.146 64.4609 316.152C63.2539 316.146 62.293 315.438 62.293 314.195ZM63.3008 314.242C63.3066 314.916 63.8633 315.256 64.6367 315.25C65.7734 315.256 66.4062 314.494 66.4062 313.691V313.053C66.1074 313.07 65.1055 313.146 64.8008 313.164C63.8867 313.223 63.3066 313.545 63.3008 314.242ZM70.0273 307.516V316H69.0195V307.516H70.0273ZM74.6445 318.391V309.637H75.6172V310.645H75.7344C75.9512 310.305 76.3379 309.555 77.5742 309.555C79.1738 309.555 80.2812 310.82 80.2812 312.836C80.2812 314.857 79.1738 316.135 77.5859 316.129C76.373 316.135 75.9512 315.379 75.7344 315.027H75.6523V318.391H74.6445ZM75.6289 312.812C75.6348 314.242 76.2734 315.227 77.4453 315.227C78.6523 315.227 79.2734 314.166 79.2734 312.812C79.2734 311.482 78.6699 310.457 77.4453 310.457C76.2559 310.457 75.6348 311.4 75.6289 312.812ZM81.5938 316V309.637H82.5664V310.609H82.6367C82.8652 309.965 83.5273 309.537 84.2773 309.531C84.4297 309.537 84.6875 309.543 84.8047 309.555V310.574C84.7285 310.557 84.459 310.504 84.1953 310.504C83.2812 310.504 82.6016 311.137 82.6016 311.992V316H81.5938ZM88.1797 316.129C86.4453 316.135 85.2734 314.822 85.2734 312.848C85.2734 310.861 86.4453 309.555 88.1797 309.555C89.9082 309.555 91.0684 310.861 91.0625 312.848C91.0684 314.822 89.9082 316.135 88.1797 316.129ZM86.2812 312.848C86.2871 314.119 86.8848 315.238 88.1797 315.238C89.4629 315.238 90.0547 314.119 90.0547 312.848C90.0547 311.582 89.4629 310.445 88.1797 310.445C86.8848 310.445 86.2871 311.582 86.2812 312.848ZM95.2344 309.637V310.48H93.8281V316H92.8086V310.48H91.7891V309.637H92.8086V308.77C92.8145 307.738 93.5 307.117 94.625 307.117C94.8711 307.117 95.1641 307.146 95.375 307.188V308.09C95.1582 308.055 94.9766 308.043 94.8477 308.043C94.1387 308.043 93.8223 308.336 93.8281 308.992V309.637H95.2344ZM96.4297 316V309.637H97.4375V316H96.4297ZM96.2305 307.914C96.2246 307.539 96.5469 307.24 96.9336 307.246C97.3203 307.24 97.6426 307.539 97.6484 307.914C97.6426 308.283 97.3203 308.582 96.9336 308.582C96.5469 308.582 96.2246 308.283 96.2305 307.914ZM101.645 316.129C99.8398 316.135 98.7383 314.758 98.7383 312.848C98.7383 310.914 99.8926 309.555 101.621 309.555C102.975 309.555 103.994 310.357 104.152 311.559H103.145C102.998 310.979 102.494 310.445 101.645 310.445C100.508 310.445 99.752 311.383 99.7461 312.812C99.752 314.283 100.49 315.227 101.645 315.227C102.395 315.227 102.969 314.822 103.145 314.125H104.152C103.994 315.262 103.057 316.135 101.645 316.129ZM105.395 316V309.637H106.402V316H105.395ZM105.195 307.914C105.189 307.539 105.512 307.24 105.898 307.246C106.285 307.24 106.607 307.539 106.613 307.914C106.607 308.283 106.285 308.582 105.898 308.582C105.512 308.582 105.189 308.283 105.195 307.914ZM110.68 316.129C108.84 316.135 107.703 314.822 107.703 312.871C107.703 310.914 108.857 309.555 110.586 309.555C111.922 309.555 113.334 310.375 113.328 312.73V313.152H108.711C108.764 314.5 109.549 315.238 110.68 315.238C111.441 315.238 111.922 314.904 112.156 314.512H113.234C112.936 315.479 111.992 316.135 110.68 316.129ZM108.717 312.297H112.309C112.303 311.236 111.635 310.445 110.586 310.445C109.484 310.445 108.787 311.312 108.717 312.297ZM115.648 312.18V316H114.641V309.637H115.613V310.633H115.695C115.994 309.982 116.592 309.555 117.559 309.555C118.848 309.555 119.709 310.34 119.703 311.957V316H118.695V312.027C118.695 311.043 118.156 310.457 117.254 310.457C116.328 310.457 115.648 311.078 115.648 312.18ZM123.922 316.129C122.117 316.135 121.016 314.758 121.016 312.848C121.016 310.914 122.17 309.555 123.898 309.555C125.252 309.555 126.271 310.357 126.43 311.559H125.422C125.275 310.979 124.771 310.445 123.922 310.445C122.785 310.445 122.029 311.383 122.023 312.812C122.029 314.283 122.768 315.227 123.922 315.227C124.672 315.227 125.246 314.822 125.422 314.125H126.43C126.271 315.262 125.334 316.135 123.922 316.129ZM128.316 318.391C128.1 318.385 127.883 318.379 127.754 318.367V317.465C127.859 317.477 128.088 317.482 128.246 317.488C128.656 317.482 129.002 317.459 129.336 316.527L129.523 316.047L127.168 309.637H128.27L130.004 314.688H130.074L131.809 309.637H132.91L130.215 316.914C129.84 317.916 129.219 318.385 128.316 318.391ZM137.035 316V309.637H138.043V316H137.035ZM136.836 307.914C136.83 307.539 137.152 307.24 137.539 307.246C137.926 307.24 138.248 307.539 138.254 307.914C138.248 308.283 137.926 308.582 137.539 308.582C137.152 308.582 136.83 308.283 136.836 307.914ZM140.656 312.18V316H139.648V309.637H140.621V310.633H140.703C141.002 309.982 141.6 309.555 142.566 309.555C143.855 309.555 144.717 310.34 144.711 311.957V316H143.703V312.027C143.703 311.043 143.164 310.457 142.262 310.457C141.336 310.457 140.656 311.078 140.656 312.18ZM156.641 311.758C156.646 314.441 155.064 316.117 152.891 316.117C150.711 316.117 149.135 314.441 149.141 311.758C149.135 309.074 150.711 307.398 152.891 307.398C155.064 307.398 156.646 309.074 156.641 311.758ZM150.16 311.758C150.166 313.943 151.355 315.127 152.891 315.133C154.426 315.127 155.615 313.943 155.621 311.758C155.615 309.566 154.426 308.383 152.891 308.383C151.355 308.383 150.166 309.566 150.16 311.758ZM158.059 318.391V309.637H159.031V310.645H159.148C159.365 310.305 159.752 309.555 160.988 309.555C162.588 309.555 163.695 310.82 163.695 312.836C163.695 314.857 162.588 316.135 161 316.129C159.787 316.135 159.365 315.379 159.148 315.027H159.066V318.391H158.059ZM159.043 312.812C159.049 314.242 159.688 315.227 160.859 315.227C162.066 315.227 162.688 314.166 162.688 312.812C162.688 311.482 162.084 310.457 160.859 310.457C159.67 310.457 159.049 311.4 159.043 312.812ZM168.547 311.289C168.406 310.762 168.002 310.416 167.258 310.41C166.473 310.416 165.916 310.838 165.91 311.371C165.916 311.793 166.256 312.08 167 312.262L167.949 312.496C169.086 312.766 169.643 313.334 169.648 314.219C169.643 315.32 168.746 316.135 167.152 316.129C165.723 316.135 164.873 315.496 164.703 314.336H165.758C165.875 314.957 166.326 315.256 167.129 315.25C168.037 315.256 168.605 314.875 168.605 314.277C168.605 313.826 168.283 313.533 167.562 313.363L166.602 313.141C165.494 312.883 164.902 312.279 164.902 311.43C164.902 310.34 165.857 309.555 167.258 309.555C168.576 309.555 169.402 310.258 169.531 311.289H168.547Z" fill="#ECECF8"/>
<circle cx="271" cy="312" r="6" fill="#944AF2"/>
<circle cx="295" cy="312" r="6" fill="#ECECF8" fill-opacity="0.3"/>
<circle cx="319" cy="312" r="6" fill="#ECECF8" fill-opacity="0.3"/>
<circle cx="343" cy="312" r="6" fill="#ECECF8" fill-opacity="0.3"/>
<circle cx="367" cy="312" r="6" fill="#ECECF8" fill-opacity="0.3"/>
</g>
<rect x="0.5" y="0.5" width="404" height="341" rx="19.5" stroke="white" stroke-opacity="0.2"/>
<defs>
<filter id="filter0_f_518_4485" x="125.247" y="97.5313" width="24.9511" height="29.8602" filterUnits="userSpaceOnUse" color-interpolation-filters="sRGB">
<feFlood flood-opacity="0" result="BackgroundImageFix"/>
<feBlend mode="normal" in="SourceGraphic" in2="BackgroundImageFix" result="shape"/>
<feGaussianBlur stdDeviation="2.11765" result="effect1_foregroundBlur_518_4485"/>
</filter>
<linearGradient id="paint0_linear_518_4485" x1="118.471" y1="138.136" x2="126.404" y2="168.46" gradientUnits="userSpaceOnUse">
<stop stop-color="#8F5250"/>
<stop offset="1" stop-color="#8F5250" stop-opacity="0"/>
</linearGradient>
<radialGradient id="paint1_radial_518_4485" cx="0" cy="0" r="1" gradientUnits="userSpaceOnUse" gradientTransform="translate(138.059 84.6645) rotate(109.622) scale(64.636 48.615)">
<stop stop-color="#FFC6C4"/>
<stop offset="1" stop-color="#EB8682"/>
</radialGradient>
<linearGradient id="paint2_linear_518_4485" x1="110" y1="173.024" x2="110" y2="220" gradientUnits="userSpaceOnUse">
<stop stop-color="#396352"/>
<stop offset="1" stop-color="#132E23"/>
</linearGradient>
<clipPath id="clip0_518_4485">
<rect width="405" height="342" rx="20" fill="white"/>
</clipPath>
</defs>
</svg>
