<svg width="339" height="1036" viewBox="0 0 339 1036" fill="none" xmlns="http://www.w3.org/2000/svg">
<g style="mix-blend-mode:screen">
<path d="M0 1036V192H304V1036H0Z" fill="url(#paint0_linear_901_12986)"/>
</g>
<circle cx="152" cy="191" r="152" fill="url(#paint1_radial_901_12986)"/>
<mask id="mask0_901_12986" style="mask-type:alpha" maskUnits="userSpaceOnUse" x="0" y="39" width="304" height="304">
<circle cx="152" cy="191" r="152" fill="#FE0050"/>
</mask>
<g mask="url(#mask0_901_12986)">
<g filter="url(#filter0_f_901_12986)">
<path d="M69.7983 282.111C30.3775 270.218 28.1033 195.385 31.8937 159.456C80.222 239.987 119.074 174.323 133.288 169.368C147.503 164.412 122.865 207.775 119.074 243.704C116.042 272.448 127.287 302.761 133.288 314.324C128.55 308.542 109.219 294.005 69.7983 282.111Z" fill="url(#paint2_linear_901_12986)"/>
</g>
<g filter="url(#filter1_f_901_12986)">
<path d="M24.8667 192.912C22.5724 72.0772 155.198 37.4072 221.798 35.1766L78.4013 21.793L-36.3157 82.0194L-21.9761 362.12L207.458 354.472C147.55 350.967 27.161 313.748 24.8667 192.912Z" fill="url(#paint3_linear_901_12986)"/>
</g>
<g filter="url(#filter2_f_901_12986)">
<path d="M251.427 321.016C145.887 343.194 29.3221 288.194 2.87348 251.229L-15.29 290.424L153.918 393.67C235.813 373.913 356.967 298.837 251.427 321.016Z" fill="#08E038"/>
</g>
</g>
<g style="mix-blend-mode:color" filter="url(#filter3_f_901_12986)">
<ellipse cx="84.0105" cy="119.897" rx="26.9426" ry="37.2064" transform="rotate(30 84.0105 119.897)" fill="#FFBA2F"/>
</g>
<g style="mix-blend-mode:color-dodge" filter="url(#filter4_f_901_12986)">
<path d="M168.244 130.77C176.656 108.592 154.542 92.8501 142.433 87.7516C86.986 70.5441 109.929 68.6321 162.508 54.2924C215.087 39.9528 253.326 101.135 270.533 121.211C287.741 141.286 257.15 195.777 239.942 210.116C222.734 224.456 157.728 158.494 168.244 130.77Z" fill="url(#paint4_linear_901_12986)"/>
</g>
<g style="mix-blend-mode:hard-light" filter="url(#filter5_f_901_12986)">
<path d="M219.113 225.463C173.211 250.336 152.81 202.503 101.808 225.463C77.5374 236.389 58.472 299.544 92.747 312.401C267.174 363.678 289.24 219.404 286.69 147.974C279.04 152.438 265.525 163.663 272.665 172.847C281.59 184.327 265.015 200.59 219.113 225.463Z" fill="#41BBFF"/>
</g>
<defs>
<filter id="filter0_f_901_12986" x="4.77692" y="133.638" width="158.705" height="206.504" filterUnits="userSpaceOnUse" color-interpolation-filters="sRGB">
<feFlood flood-opacity="0" result="BackgroundImageFix"/>
<feBlend mode="normal" in="SourceGraphic" in2="BackgroundImageFix" result="shape"/>
<feGaussianBlur stdDeviation="12.909" result="effect1_foregroundBlur_901_12986"/>
</filter>
<filter id="filter1_f_901_12986" x="-87.9518" y="-29.8431" width="361.385" height="443.599" filterUnits="userSpaceOnUse" color-interpolation-filters="sRGB">
<feFlood flood-opacity="0" result="BackgroundImageFix"/>
<feBlend mode="normal" in="SourceGraphic" in2="BackgroundImageFix" result="shape"/>
<feGaussianBlur stdDeviation="25.8181" result="effect1_foregroundBlur_901_12986"/>
</filter>
<filter id="filter2_f_901_12986" x="-66.9261" y="199.593" width="411.164" height="245.713" filterUnits="userSpaceOnUse" color-interpolation-filters="sRGB">
<feFlood flood-opacity="0" result="BackgroundImageFix"/>
<feBlend mode="normal" in="SourceGraphic" in2="BackgroundImageFix" result="shape"/>
<feGaussianBlur stdDeviation="25.8181" result="effect1_foregroundBlur_901_12986"/>
</filter>
<filter id="filter3_f_901_12986" x="2.53186" y="33.3278" width="162.957" height="173.139" filterUnits="userSpaceOnUse" color-interpolation-filters="sRGB">
<feFlood flood-opacity="0" result="BackgroundImageFix"/>
<feBlend mode="normal" in="SourceGraphic" in2="BackgroundImageFix" result="shape"/>
<feGaussianBlur stdDeviation="25.8181" result="effect1_foregroundBlur_901_12986"/>
</filter>
<filter id="filter4_f_901_12986" x="58.7638" y="0.501587" width="268.49" height="263.265" filterUnits="userSpaceOnUse" color-interpolation-filters="sRGB">
<feFlood flood-opacity="0" result="BackgroundImageFix"/>
<feBlend mode="normal" in="SourceGraphic" in2="BackgroundImageFix" result="shape"/>
<feGaussianBlur stdDeviation="25.8181" result="effect1_foregroundBlur_901_12986"/>
</filter>
<filter id="filter5_f_901_12986" x="22.493" y="96.3375" width="316.017" height="278.489" filterUnits="userSpaceOnUse" color-interpolation-filters="sRGB">
<feFlood flood-opacity="0" result="BackgroundImageFix"/>
<feBlend mode="normal" in="SourceGraphic" in2="BackgroundImageFix" result="shape"/>
<feGaussianBlur stdDeviation="25.8181" result="effect1_foregroundBlur_901_12986"/>
</filter>
<linearGradient id="paint0_linear_901_12986" x1="152" y1="192" x2="152" y2="1036" gradientUnits="userSpaceOnUse">
<stop offset="0.141126" stop-color="#2FCB6A"/>
<stop offset="0.354091" stop-color="#8386FF"/>
<stop offset="0.707301" stop-color="#FF7C6E"/>
<stop offset="1" stop-color="#FF7C6E" stop-opacity="0"/>
</linearGradient>
<radialGradient id="paint1_radial_901_12986" cx="0" cy="0" r="1" gradientUnits="userSpaceOnUse" gradientTransform="translate(87.9497 122.17) rotate(45.6128) scale(252.83)">
<stop stop-color="#FFE792"/>
<stop offset="0.698054" stop-color="#FE0050"/>
<stop offset="1" stop-color="#FFC93D"/>
</radialGradient>
<linearGradient id="paint2_linear_901_12986" x1="84.1296" y1="159.456" x2="84.1296" y2="314.324" gradientUnits="userSpaceOnUse">
<stop stop-color="#FF8A00"/>
<stop offset="1" stop-color="#FF000F"/>
</linearGradient>
<linearGradient id="paint3_linear_901_12986" x1="-19.1081" y1="175.705" x2="132.892" y2="215.856" gradientUnits="userSpaceOnUse">
<stop stop-color="#CF1900"/>
<stop offset="1" stop-color="#6F078E" stop-opacity="0"/>
</linearGradient>
<linearGradient id="paint4_linear_901_12986" x1="155.816" y1="52.3804" x2="256.194" y2="183.349" gradientUnits="userSpaceOnUse">
<stop stop-color="#F80071"/>
<stop offset="1" stop-color="#00AEF8"/>
</linearGradient>
</defs>
</svg>
