<svg width="512" height="78" viewBox="0 0 512 78" fill="none" xmlns="http://www.w3.org/2000/svg">
<rect width="77.8484" height="77.8469" rx="3.14388" fill="#2D2D3C"/>
<path d="M25.6471 38.9583H23.5624V36.8618H25.7602C26.5647 36.8618 26.967 37.2166 26.967 37.9264C26.967 38.6144 26.5268 38.9587 25.6471 38.9587M27.1453 36.8373C26.8579 36.5815 26.46 36.4536 25.9464 36.4536L22.9609 36.4701V41.486H23.5624L23.557 39.3507H25.7786C26.3355 39.3507 26.7742 39.2227 27.0941 38.9669C27.4141 38.7111 27.5742 38.3561 27.5742 37.9021C27.5742 37.4482 27.4313 37.0933 27.1457 36.8373H27.1453ZM31.0387 40.4327C30.9812 40.5968 30.883 40.7436 30.7533 40.8594C30.4838 41.1224 30.0727 41.2537 29.5198 41.2537C29.0204 41.2537 28.6373 41.1279 28.37 40.8703C28.1027 40.6127 27.9689 40.2726 27.9689 39.844C27.9689 39.6208 28.0039 39.4227 28.0738 39.2499C28.1437 39.077 28.2452 38.9312 28.3781 38.8122C28.6548 38.5602 29.0353 38.4341 29.52 38.4341C30.5935 38.4341 31.1305 38.904 31.1305 39.844C31.1305 40.0673 31.1 40.2635 31.0407 40.4327M31.1497 38.5823C30.7833 38.2481 30.2407 38.0793 29.5218 38.0793C28.8427 38.0793 28.3177 38.2499 27.9477 38.5913C27.6135 38.9003 27.4446 39.3171 27.4446 39.842C27.4446 40.363 27.6171 40.7834 27.962 41.1031C28.1525 41.2756 28.3743 41.4006 28.6278 41.4779C28.8813 41.5551 29.1786 41.5938 29.52 41.5938C30.235 41.5938 30.7775 41.4285 31.1533 41.0979C31.4875 40.7961 31.6564 40.3793 31.6564 39.8418C31.6564 39.3029 31.4875 38.8825 31.1497 38.5803V38.5823ZM35.6981 40.5777C35.6981 41.2528 35.0932 41.5904 33.8837 41.5904C33.5139 41.5904 33.2024 41.567 32.9495 41.5199C32.6965 41.4729 32.4908 41.3951 32.3329 41.2867C32.211 41.2043 32.1112 41.0933 32.0421 40.9634C31.9702 40.8304 31.9235 40.6634 31.9019 40.4604L32.4648 40.455C32.4648 40.7208 32.5632 40.9163 32.7603 41.0421C32.9718 41.193 33.346 41.2684 33.8837 41.2684C34.7291 41.2684 35.152 41.0564 35.152 40.6328C35.152 40.3849 35.0083 40.2146 34.7266 40.1208C34.6691 40.1028 34.3272 40.0552 33.7026 39.9782C33.0779 39.9011 32.6858 39.8318 32.5316 39.7707C32.1978 39.6377 32.0309 39.3988 32.0309 39.0542C32.0309 38.7165 32.18 38.465 32.4801 38.3001C32.6274 38.2318 32.8115 38.179 33.0327 38.1411C33.2538 38.1032 33.5098 38.0845 33.8008 38.0845C34.9653 38.0845 35.5476 38.4499 35.5476 39.1803H35.0122C35.0122 38.6665 34.6026 38.4078 33.7843 38.4078C33.3679 38.4078 33.0573 38.4617 32.8526 38.5641C32.648 38.6665 32.5458 38.8282 32.5458 39.0438C32.5458 39.245 32.6841 39.3905 32.9604 39.4804C33.1221 39.5271 33.4936 39.581 34.0753 39.642C34.596 39.6888 34.9533 39.7552 35.1471 39.8397C35.5172 39.9834 35.7019 40.2277 35.7019 40.5721L35.6981 40.5777ZM37.9089 41.4926L37.6798 41.525L37.537 41.5357C37.1705 41.5357 36.9082 41.4827 36.7442 41.3764C36.5802 41.27 36.5012 41.0841 36.5012 40.8195V38.528H35.8354V38.1914H36.4977L36.5031 37.1099H37.0162V38.1914H37.9098V38.5334L37.0162 38.528V40.7552C37.0162 40.921 37.0602 41.0354 37.1483 41.0965C37.2363 41.1576 37.3933 41.191 37.6197 41.191C37.652 41.1946 37.6879 41.1935 37.7275 41.1874C37.7874 41.1767 37.8467 41.1632 37.9053 41.1468L37.9107 41.4881L37.9089 41.4926ZM41.4579 40.7327C41.3178 40.8477 41.1582 40.9353 40.9788 40.9968C40.7993 41.0582 40.5929 41.0866 40.3597 41.0866C39.2865 41.0866 38.75 40.6434 38.75 39.7572C38.75 39.3445 38.8873 39.0215 39.162 38.7882C39.4366 38.5548 39.8231 38.4382 40.3221 38.4382C40.8246 38.4382 41.206 38.5559 41.4662 38.7909C41.7263 39.0258 41.8565 39.341 41.8565 39.7358C41.8565 40.1664 41.7236 40.4984 41.4581 40.7316M42.3698 38.1923H41.8567L41.8513 38.7582C41.625 38.5282 41.4633 38.3832 41.3663 38.3222C41.0788 38.1641 40.7073 38.0854 40.2512 38.0854C39.5832 38.0854 39.073 38.2381 38.7213 38.5431C38.3871 38.8234 38.2204 39.2288 38.2204 39.7601C38.2204 40.0224 38.2626 40.2563 38.3471 40.4607C38.4315 40.6652 38.5547 40.8421 38.7166 40.9856C39.0691 41.2799 39.5672 41.4272 40.2113 41.4272C40.9845 41.4272 41.533 41.2158 41.8569 40.7927V41.3784C41.8569 41.752 41.7392 42.0409 41.5041 42.2457C41.2689 42.4505 40.8819 42.5511 40.3432 42.5511C39.8365 42.5511 39.4758 42.4793 39.2604 42.342C39.0987 42.2348 38.9873 42.0488 38.9263 41.7842H38.3981C38.4556 42.1537 38.6137 42.4211 38.8652 42.586C39.1598 42.776 39.6556 42.8711 40.3563 42.8711C41.6965 42.8711 42.3683 42.3729 42.3683 41.3764V38.1937L42.3698 38.1923ZM45.1454 38.5252C44.9909 38.5 44.8475 38.4892 44.7149 38.4892C43.8715 38.4892 43.4498 38.9518 43.4498 39.8767V41.4853H42.9422L42.9368 38.1937L43.45 38.1987V38.7862H43.477C43.5632 38.5548 43.6997 38.3793 43.8862 38.2598C44.0907 38.1441 44.3957 38.0863 44.8013 38.0863H45.1457V38.5282L45.1454 38.5252ZM45.6227 39.6314C45.6874 39.2574 45.8329 38.9678 46.0587 38.7627C46.206 38.6441 46.3731 38.5548 46.5596 38.4955C46.7461 38.4362 46.9548 38.4064 47.1898 38.4064C47.6458 38.4064 48.0162 38.5314 48.3072 38.7815C48.5983 39.0316 48.7405 39.3151 48.7405 39.6313H45.6227M48.7905 38.6159C48.6108 38.4357 48.3881 38.3026 48.1222 38.216C47.8563 38.1294 47.5473 38.0863 47.188 38.0863C46.5233 38.0863 46.0077 38.2408 45.6409 38.5498C45.274 38.8588 45.0911 39.2792 45.0911 39.8113C45.0911 40.3434 45.2672 40.7634 45.6193 41.0778C46.0002 41.4227 46.5355 41.5952 47.2304 41.5952C47.5071 41.5952 47.7627 41.5638 47.998 41.5012C48.2334 41.4387 48.4391 41.35 48.615 41.2354C48.924 41.0135 49.1194 40.7395 49.2024 40.4144H48.6477C48.4572 40.9772 47.9835 41.2587 47.2259 41.2587C46.6909 41.2587 46.2797 41.1211 45.9926 40.8459C45.7447 40.61 45.6211 40.3044 45.6211 39.9289H49.2793C49.2793 39.3706 49.1176 38.9328 48.7889 38.6175L48.7905 38.6159Z" fill="white"/>
<path d="M54.7014 40.1416C54.7014 41.1189 53.9133 41.6076 52.3369 41.6076C51.3924 41.6076 50.7029 41.4392 50.2686 41.1045C49.9128 40.8279 49.7354 40.4061 49.7354 39.8384H50.3699C50.3699 40.7506 51.0256 41.2068 52.3367 41.2068C52.9655 41.2068 53.42 41.1134 53.702 40.9269C53.9392 40.762 54.0577 40.5034 54.0577 40.1519C54.0577 39.8037 53.896 39.5597 53.5727 39.4196C53.3894 39.3442 52.9439 39.2489 52.2307 39.1343C51.336 38.9978 50.7561 38.8616 50.4902 38.7253C50.1058 38.5241 49.9154 38.1833 49.9154 37.7023C49.9154 37.2537 50.077 36.92 50.4058 36.701C50.7579 36.4606 51.3615 36.3402 52.2163 36.3402C53.7613 36.3402 54.5338 36.8533 54.5338 37.8795H53.8937C53.8937 37.1106 53.3201 36.7265 52.173 36.7265C51.5976 36.7265 51.1769 36.8037 50.9108 36.96C50.6589 37.1253 50.5335 37.3678 50.5335 37.6876C50.5335 38.0218 50.6952 38.2571 51.0186 38.3936C51.1911 38.4727 51.6977 38.5823 52.5384 38.7224C53.3289 38.841 53.8625 38.9793 54.1373 39.1356C54.5146 39.3296 54.7032 39.6656 54.7032 40.1416H54.7014ZM59.8574 40.6403C59.6202 40.8302 59.3522 40.9727 59.0538 41.0679C58.7554 41.1631 58.4209 41.2104 58.0506 41.2104C57.2954 41.2104 56.6853 41.0068 56.2193 40.5999C55.7533 40.193 55.521 39.6506 55.521 38.9728C55.521 38.2664 55.7518 37.716 56.2139 37.3215C56.676 36.927 57.2882 36.7299 58.0505 36.7299C58.8235 36.7299 59.4312 36.9361 59.8735 37.3484C60.1071 37.5496 60.2796 37.7843 60.3913 38.0532C60.503 38.3221 60.5584 38.6288 60.5584 38.973C60.5584 39.6758 60.3245 40.2316 59.857 40.6402M60.1944 40.9729C60.525 40.7397 60.7696 40.4573 60.9279 40.1253C61.0862 39.7933 61.1654 39.4103 61.1654 38.9759C61.1654 38.1971 60.9067 37.5746 60.3893 37.1025C60.1127 36.8441 59.7785 36.6521 59.3869 36.5265C58.9952 36.4009 58.5479 36.3379 58.0449 36.3379C57.0676 36.3379 56.3023 36.575 55.7454 37.0484C55.1884 37.5218 54.91 38.1644 54.91 38.9755C54.91 39.7649 55.191 40.4019 55.7531 40.8863C56.3152 41.3706 57.083 41.613 58.0562 41.613C58.4371 41.613 58.7691 41.5873 59.0527 41.5357C59.3364 41.4841 59.5773 41.4051 59.7749 41.2986L60.7123 41.9484L61.104 41.5887L60.1962 40.973L60.1944 40.9729ZM65.9163 41.4861H61.5784V36.4631L62.1745 36.4523V41.0652H65.9198L65.9145 41.4845L65.9163 41.4861Z" fill="#367FAF"/>
<path d="M18.8462 40.6423C18.9066 40.2165 18.8884 40.154 19.2626 40.223L19.3579 40.2302C19.6457 40.2413 20.022 40.191 20.2432 40.1039C20.7193 39.9167 21.0013 39.6041 20.5321 39.6862C19.4613 39.8734 19.3877 39.5659 19.3877 39.5659C20.5182 38.1439 20.9909 36.3388 20.5831 35.8969C19.4683 34.6919 17.5443 35.2618 17.5102 35.2767L17.4999 35.2785C17.2883 35.2413 17.0515 35.2192 16.7856 35.2156C16.3011 35.2088 15.9336 35.3234 15.6546 35.5025C15.6546 35.5025 12.2186 34.3025 12.3785 37.0116C12.4126 37.5879 13.3531 41.3722 14.4746 40.2291C14.8846 39.8111 15.2809 39.4577 15.2809 39.4577C15.4875 39.5734 15.7241 39.6246 15.9601 39.6047L15.9792 39.5908C15.9733 39.6429 15.9756 39.6932 15.9869 39.7536C15.698 40.0272 15.7828 40.0752 15.2051 40.1761C14.6207 40.2782 14.964 40.46 15.1882 40.5076C15.46 40.5651 16.0888 40.6468 16.5136 40.1429L16.4968 40.2004C16.6099 40.2773 16.6024 40.7528 16.6186 41.0927C16.6347 41.4326 16.6617 41.7497 16.7432 41.9367C16.8248 42.1237 16.9214 42.605 17.6807 42.4674C18.3152 42.352 18.8004 42.1862 18.8448 40.643" fill="#231F20"/>
<path d="M18.8462 40.6423C18.9066 40.2165 18.8884 40.154 19.2626 40.223L19.3579 40.2302C19.6457 40.2413 20.022 40.191 20.2432 40.1039C20.7193 39.9167 21.0013 39.6041 20.5321 39.6862C19.4613 39.8734 19.3877 39.5659 19.3877 39.5659C20.5182 38.1439 20.9909 36.3388 20.5831 35.8969C19.4683 34.6919 17.5443 35.2618 17.5102 35.2767L17.4999 35.2785C17.2883 35.2413 17.0515 35.2192 16.7856 35.2156C16.3011 35.2088 15.9336 35.3234 15.6546 35.5025C15.6546 35.5025 12.2186 34.3025 12.3785 37.0116C12.4126 37.5879 13.3531 41.3722 14.4746 40.2291C14.8846 39.8111 15.2809 39.4577 15.2809 39.4577C15.4875 39.5734 15.7241 39.6246 15.9601 39.6047L15.9792 39.5908C15.9733 39.6429 15.9756 39.6932 15.9869 39.7536C15.698 40.0272 15.7828 40.0752 15.2051 40.1761C14.6207 40.2782 14.964 40.46 15.1882 40.5076C15.46 40.5651 16.0888 40.6468 16.5136 40.1429L16.4968 40.2004C16.6099 40.2773 16.6024 40.7528 16.6186 41.0927C16.6347 41.4326 16.6617 41.7497 16.7432 41.9367C16.8248 42.1237 16.9214 42.605 17.6807 42.4674C18.3152 42.352 18.8004 42.1862 18.8448 40.643" stroke="#231F20" stroke-width="0.738003"/>
<path d="M20.5322 39.6861C19.4615 39.8733 19.3879 39.5658 19.3879 39.5658C20.5184 38.1437 20.9911 36.3385 20.5833 35.8968C19.4705 34.6919 17.5447 35.2619 17.5105 35.2768L17.5001 35.2786C17.2885 35.2414 17.0517 35.2193 16.7856 35.2157C16.3011 35.2091 15.9336 35.3235 15.6547 35.5026C15.6547 35.5026 12.2186 34.3025 12.3785 37.0117C12.4126 37.588 13.3529 41.3725 14.4746 40.2292C14.8846 39.8112 15.2807 39.4578 15.2807 39.4578C15.4874 39.5735 15.7239 39.6247 15.96 39.6047L15.9792 39.5909C15.9733 39.643 15.976 39.6933 15.9869 39.7537C15.698 40.0273 15.7828 40.0752 15.2054 40.1762C14.6209 40.2783 14.9643 40.4601 15.1885 40.5077C15.4604 40.5652 16.0891 40.6469 16.514 40.143L16.4971 40.2005C16.6103 40.2774 16.6899 40.7004 16.6768 41.0843C16.6637 41.4683 16.6545 41.7311 16.7438 41.937C16.8331 42.1428 16.922 42.6053 17.6815 42.4676C18.3161 42.3523 18.645 42.0537 18.6906 41.5554C18.723 41.2011 18.7966 41.2536 18.8011 40.9369L18.8601 40.787C18.928 40.3068 18.8708 40.152 19.2617 40.224L19.357 40.2312C19.6448 40.2423 20.0213 40.192 20.2423 40.1049C20.7184 39.9177 21.0004 39.6051 20.5312 39.6872L20.5322 39.6861Z" fill="#417BA2"/>
<path d="M16.5618 39.9607C16.5323 40.8541 16.569 41.7539 16.6723 41.9727C16.7756 42.1916 16.9964 42.6168 17.7559 42.4788C18.3905 42.3635 18.6213 42.1404 18.7214 41.6478C18.7932 41.2854 18.9375 40.2788 18.9556 40.0728M15.6513 35.4813C15.6513 35.4813 12.211 34.2902 12.3727 37.0006C12.4086 37.5769 13.3471 41.3614 14.4692 40.2163C14.8792 39.7983 15.2498 39.4704 15.2498 39.4704M17.5107 35.2639C17.3916 35.2955 19.4234 34.6344 20.5781 35.8849C20.9859 36.3269 20.5134 38.132 19.3827 39.5541" stroke="#0E0E12" stroke-width="0.245941" stroke-linecap="round" stroke-linejoin="round"/>
<path d="M19.3799 39.5529C19.3799 39.5529 19.4518 39.8601 20.5243 39.6729C20.9935 39.5908 20.7111 39.9034 20.2351 40.0908C19.8445 40.2444 18.9689 40.2837 18.9547 40.0715C18.9179 39.5236 19.4155 39.6901 19.3796 39.5529C19.3472 39.4293 19.1245 39.308 18.9772 39.0055C18.8487 38.7414 17.2148 36.7164 19.4302 37.0171C19.5114 37.0028 18.8523 35.2307 16.7786 35.2019C14.7049 35.1732 14.7737 37.3631 14.7737 37.3631" stroke="#0E0E12" stroke-width="0.245941" stroke-linecap="round" stroke-linejoin="bevel"/>
<path d="M15.981 39.7394C15.6918 40.013 15.7769 40.061 15.1992 40.162C14.6146 40.2644 14.9581 40.4458 15.1823 40.4934C15.4541 40.5509 16.0829 40.6326 16.5077 40.1284C16.6371 39.9748 16.507 39.7295 16.3293 39.6674C16.2435 39.6372 16.1287 39.5995 15.9808 39.7392L15.981 39.7394Z" stroke="#0E0E12" stroke-width="0.245941" stroke-linejoin="round"/>
<path d="M15.9629 39.7357C15.9338 39.5748 16.0252 39.3836 16.1233 39.1594C16.2706 38.8235 16.6105 38.4872 16.3389 37.4209C16.1362 36.6264 14.7765 37.2557 14.7759 37.3635C14.7754 37.4712 14.8374 37.9096 14.7531 38.4198C14.6432 39.0859 15.2531 39.6491 15.9553 39.5917" stroke="#0E0E12" stroke-width="0.245941" stroke-linecap="round" stroke-linejoin="round"/>
<path d="M15.639 37.349C15.6329 37.3858 15.7186 37.4837 15.8301 37.497C15.9417 37.5103 16.0367 37.4334 16.043 37.3967C16.0493 37.3601 15.9636 37.3195 15.8519 37.3062C15.7401 37.2929 15.6449 37.3123 15.639 37.349Z" fill="#0E0E12" stroke="#0E0E12" stroke-width="0.0819204"/>
<path d="M19.0324 37.2739C19.0386 37.3107 18.953 37.4086 18.8413 37.4219C18.7296 37.4352 18.6343 37.3583 18.6282 37.3213C18.6221 37.2843 18.7078 37.2441 18.8194 37.2308C18.9309 37.2175 19.026 37.2367 19.0323 37.2735L19.0324 37.2739Z" fill="#0E0E12" stroke="#0E0E12" stroke-width="0.0409602"/>
<path d="M19.4314 37.0181C19.4497 37.3068 19.3581 37.5031 19.3464 37.8107C19.3294 38.2573 19.5976 38.7682 19.1934 39.2802" stroke="#0E0E12" stroke-width="0.245941" stroke-linecap="round" stroke-linejoin="round"/>
<rect x="86.8311" width="77.8484" height="77.8469" rx="3.14388" fill="#2D2D3C"/>
<g clip-path="url(#clip0_976_3939)">
<path d="M122.868 39.7437H125.633L124.172 37.3846L121.487 41.6454H120.265L123.532 36.5336C123.603 36.4316 123.698 36.3481 123.808 36.2902C123.918 36.2323 124.04 36.2016 124.165 36.2007C124.289 36.1998 124.412 36.2288 124.523 36.2851C124.634 36.3414 124.729 36.4235 124.802 36.5245L128.077 41.6454H126.856L126.281 40.6927H123.483L122.873 39.7437M135.563 40.6927V36.2523H134.525V41.1301C134.525 41.1979 134.538 41.265 134.565 41.3274C134.591 41.3897 134.63 41.4461 134.679 41.493C134.728 41.5433 134.787 41.5831 134.852 41.6103C134.917 41.6374 134.986 41.6512 135.057 41.6509H139.775L140.39 40.6982H135.557M118.402 39.8997C118.885 39.8997 119.349 39.7076 119.691 39.3656C120.033 39.0236 120.225 38.5597 120.225 38.076C120.225 37.5923 120.033 37.1285 119.691 36.7865C119.349 36.4444 118.885 36.2523 118.402 36.2523H113.865V41.6454H114.901V37.2068H118.338C118.57 37.2068 118.792 37.2988 118.955 37.4625C119.119 37.6261 119.211 37.8482 119.211 38.0797C119.211 38.3111 119.119 38.5332 118.955 38.6968C118.792 38.8605 118.57 38.9525 118.338 38.9525H115.415L118.511 41.6454H120.015L117.935 39.8997H118.402ZM107.492 41.6454H110.626C111.329 41.6272 111.997 41.3352 112.487 40.8316C112.978 40.3281 113.253 39.6528 113.253 38.9498C113.253 38.2467 112.978 37.5715 112.487 37.0679C111.997 36.5644 111.329 36.2724 110.626 36.2541H107.492C107.132 36.2448 106.774 36.3076 106.439 36.4389C106.104 36.5701 105.798 36.7672 105.54 37.0184C105.282 37.2697 105.078 37.57 104.938 37.9017C104.798 38.2334 104.726 38.5898 104.726 38.9498C104.726 39.3098 104.798 39.6661 104.938 39.9978C105.078 40.3295 105.282 40.6299 105.54 40.8811C105.798 41.1323 106.104 41.3294 106.439 41.4607C106.774 41.592 107.132 41.6548 107.492 41.6454ZM110.555 40.6964H107.561C107.108 40.6818 106.678 40.4915 106.363 40.1659C106.048 39.8403 105.872 39.4048 105.872 38.9516C105.872 38.4983 106.048 38.0629 106.363 37.7373C106.678 37.4116 107.108 37.2214 107.561 37.2068H110.555C110.789 37.1993 111.022 37.2388 111.24 37.3231C111.459 37.4074 111.658 37.5347 111.826 37.6975C111.994 37.8602 112.128 38.0551 112.219 38.2706C112.31 38.486 112.357 38.7176 112.357 38.9516C112.357 39.1856 112.31 39.4172 112.219 39.6326C112.128 39.8481 111.994 40.043 111.826 40.2057C111.658 40.3685 111.459 40.4958 111.24 40.5801C111.022 40.6644 110.789 40.7039 110.555 40.6964ZM130.242 41.6454H133.442L134.048 40.6964H130.313C130.079 40.7039 129.846 40.6644 129.628 40.5801C129.41 40.4958 129.211 40.3685 129.043 40.2057C128.874 40.043 128.741 39.8481 128.649 39.6326C128.558 39.4172 128.511 39.1856 128.511 38.9516C128.511 38.7176 128.558 38.486 128.649 38.2706C128.741 38.0551 128.874 37.8602 129.043 37.6975C129.211 37.5347 129.41 37.4074 129.628 37.3231C129.846 37.2388 130.079 37.1993 130.313 37.2068H133.353L133.966 36.2541H130.242C129.882 36.2448 129.524 36.3076 129.189 36.4389C128.854 36.5701 128.548 36.7672 128.291 37.0184C128.033 37.2697 127.828 37.57 127.688 37.9017C127.548 38.2334 127.476 38.5898 127.476 38.9498C127.476 39.3098 127.548 39.6661 127.688 39.9978C127.828 40.3295 128.033 40.6299 128.291 40.8811C128.548 41.1323 128.854 41.3294 129.189 41.4607C129.524 41.592 129.882 41.6548 130.242 41.6454ZM142.921 40.6964C142.541 40.6965 142.171 40.5725 141.868 40.3433C141.565 40.114 141.344 39.792 141.241 39.4261H145.672L146.282 38.4752H141.241C141.344 38.1093 141.564 37.7871 141.868 37.5577C142.171 37.3284 142.541 37.2045 142.921 37.205H145.963L146.571 36.2523H142.851C142.148 36.2705 141.48 36.5625 140.989 37.0661C140.498 37.5696 140.224 38.2449 140.224 38.948C140.224 39.651 140.498 40.3263 140.989 40.8298C141.48 41.3334 142.148 41.6254 142.851 41.6436H146.05L146.658 40.6946H142.919" fill="#C74634"/>
</g>
<rect x="173.662" width="77.8484" height="77.8469" rx="3.14388" fill="#2D2D3C"/>
<path fill-rule="evenodd" clip-rule="evenodd" d="M196.867 44.5539H197.919V40.385L199.563 44.0197C199.749 44.4566 200.016 44.6185 200.534 44.6185C201.052 44.6185 201.304 44.4564 201.496 44.0197L203.131 40.385V44.5539H204.192V40.385C204.192 39.9804 204.03 39.7857 203.69 39.6805C202.888 39.4378 202.354 39.6482 202.111 40.1903L200.5 43.7846L198.946 40.1903C198.711 39.6482 198.169 39.4378 197.359 39.6805C197.027 39.7857 196.865 39.9802 196.865 40.385L196.865 44.5539H196.867ZM205.068 41.1621H206.128V43.4531C206.12 43.5825 206.169 43.874 206.745 43.8818C207.044 43.89 209.028 43.8818 209.044 43.8818V41.1458H210.104V44.8939C210.104 45.8167 208.961 46.0188 208.428 46.0271H205.094V45.3232H208.437C209.117 45.2502 209.036 44.9104 209.036 44.797V44.5216H206.794C205.749 44.5134 205.077 44.052 205.069 43.5259V41.1618L205.068 41.1621ZM227.815 38.5068C227.167 38.4905 226.665 38.5554 226.244 38.7336C226.123 38.7826 225.929 38.7826 225.913 38.9361C225.977 39.0005 225.985 39.1059 226.042 39.1952C226.139 39.3572 226.309 39.5755 226.463 39.6887C226.633 39.8184 226.803 39.9478 226.981 40.0612C227.297 40.2553 227.653 40.3687 227.96 40.563C228.139 40.6764 228.316 40.8221 228.495 40.9437C228.585 41.0084 228.64 41.1139 228.754 41.1541V41.1296C228.697 41.0571 228.681 40.9518 228.624 40.8705C228.543 40.7898 228.462 40.7167 228.381 40.636C228.147 40.3203 227.855 40.0448 227.539 39.8184C227.28 39.6402 226.714 39.3975 226.609 39.0981L226.593 39.0818C226.77 39.0654 226.981 39.0007 227.151 38.9521C227.427 38.8795 227.677 38.8954 227.96 38.8227C228.09 38.79 228.219 38.7498 228.349 38.7093V38.6367C228.203 38.491 228.098 38.2967 227.945 38.1592C227.532 37.803 227.078 37.4548 226.609 37.1635C226.358 37.0016 226.034 36.8962 225.767 36.7589C225.669 36.7102 225.508 36.6859 225.451 36.605C225.305 36.4272 225.224 36.1922 225.119 35.9816C224.884 35.5364 224.658 35.0427 224.455 34.5731C224.31 34.2574 224.22 33.9417 224.043 33.6503C223.209 32.2741 222.302 31.4404 220.91 30.6227C220.61 30.4527 220.254 30.3796 219.875 30.2907L219.268 30.258C219.139 30.2014 219.009 30.0476 218.896 29.9746C218.434 29.6832 217.244 29.0519 216.904 29.8857C216.686 30.4119 217.228 30.9299 217.412 31.1971C217.55 31.3833 217.728 31.5938 217.825 31.8042C217.88 31.9418 217.898 32.0876 217.955 32.2333C218.084 32.5895 218.206 32.9863 218.376 33.3183C218.466 33.4883 218.562 33.6667 218.675 33.8203C218.74 33.9092 218.853 33.9499 218.877 34.0956C218.764 34.2576 218.756 34.5002 218.691 34.7028C218.4 35.6176 218.513 36.7509 218.926 37.4226C219.056 37.6249 219.361 38.0703 219.776 37.9001C220.14 37.7544 220.059 37.293 220.164 36.8882C220.189 36.7912 220.173 36.7264 220.221 36.6614V36.6778L220.553 37.3496C220.804 37.7462 221.241 38.1592 221.605 38.4346C221.8 38.5803 221.953 38.8314 222.196 38.9203V38.8958H222.18C222.132 38.8232 222.059 38.7906 221.994 38.734C221.848 38.5883 221.686 38.4101 221.573 38.2483C221.233 37.795 220.934 37.293 220.666 36.775C220.537 36.5241 220.423 36.2488 220.318 35.9979C220.269 35.9007 220.269 35.7548 220.189 35.7065C220.067 35.8843 219.889 36.0386 219.8 36.257C219.646 36.605 219.63 37.0341 219.573 37.4793C219.541 37.4875 219.555 37.4793 219.541 37.4957C219.282 37.4311 219.193 37.1636 219.096 36.9372C218.853 36.3624 218.812 35.4396 219.023 34.7758C219.079 34.6058 219.323 34.0714 219.226 33.9096C219.177 33.7557 219.015 33.6668 218.926 33.5453C218.821 33.3914 218.708 33.1973 218.635 33.0273C218.44 32.5737 218.343 32.072 218.133 31.6186C218.035 31.4082 217.865 31.1895 217.728 30.9954C217.574 30.7768 217.404 30.6229 217.283 30.364C217.242 30.2751 217.186 30.1292 217.25 30.032C217.266 29.9672 217.299 29.9431 217.363 29.9267C217.469 29.8378 217.768 29.951 217.874 29.9993C218.173 30.1209 218.424 30.2341 218.675 30.4039C218.788 30.4848 218.91 30.6387 219.055 30.6793H219.226C219.485 30.7359 219.776 30.6957 220.019 30.7682C220.448 30.9061 220.836 31.1082 221.184 31.3271C222.245 31.9989 223.119 32.9542 223.71 34.0958C223.807 34.2819 223.848 34.4519 223.937 34.6462C224.107 35.043 224.317 35.4476 224.487 35.8364C224.657 36.2169 224.819 36.6057 225.062 36.9214C225.183 37.0914 225.669 37.1803 225.887 37.2694C226.049 37.342 226.3 37.4073 226.446 37.4962C226.721 37.6662 226.997 37.8605 227.255 38.0467C227.385 38.1436 227.79 38.3461 227.814 38.5075L227.815 38.5068ZM219.56 31.4722C219.448 31.4712 219.336 31.4848 219.228 31.5127V31.529H219.244C219.309 31.6585 219.422 31.7476 219.503 31.861L219.689 32.2496L219.705 32.2333C219.819 32.1524 219.875 32.0229 219.875 31.8287C219.827 31.7721 219.819 31.7153 219.778 31.6587C219.73 31.5778 219.624 31.5372 219.56 31.4726V31.4722Z" fill="#00678C"/>
<path fill-rule="evenodd" clip-rule="evenodd" d="M210.912 44.5537H213.956C214.312 44.5537 214.652 44.4811 214.927 44.3514C215.389 44.1409 215.607 43.8578 215.607 43.4854V42.7083C215.607 42.4089 215.356 42.1253 214.855 41.9312C214.596 41.8341 214.272 41.7773 213.956 41.7773H212.677C212.248 41.7773 212.046 41.6476 211.989 41.3646C211.981 41.3323 211.981 41.2998 211.981 41.2675V40.7898C211.981 40.7653 211.981 40.7332 211.989 40.7009C212.045 40.4822 212.159 40.4255 212.533 40.3852H215.65V39.6807H212.687C212.258 39.6807 212.031 39.7052 211.829 39.7699C211.205 39.9641 210.93 40.2718 210.93 40.8139V41.4295C210.93 41.9067 211.464 42.3118 212.371 42.4089C212.468 42.4171 212.573 42.4171 212.678 42.4171H213.771C213.812 42.4171 213.852 42.4171 213.884 42.4252C214.216 42.4575 214.362 42.5141 214.459 42.6353C214.524 42.7001 214.54 42.7569 214.54 42.8298V43.4449C214.54 43.5175 214.492 43.6151 214.395 43.6958C214.298 43.7766 214.143 43.8334 213.941 43.8415C213.901 43.8415 213.877 43.8497 213.836 43.8497H210.912V44.5537ZM222.196 43.3315C222.196 44.0518 222.741 44.4564 223.824 44.5377C223.929 44.5459 224.026 44.5537 224.131 44.5537H226.884V43.8497H224.107C223.492 43.8497 223.257 43.6958 223.257 43.3235V39.6807H222.194V43.3317L222.196 43.3315ZM216.279 43.3636V40.8544C216.279 40.2148 216.732 39.826 217.615 39.7048C217.712 39.6966 217.809 39.6885 217.898 39.6885H219.905C220.011 39.6885 220.1 39.6966 220.205 39.7048C221.087 39.826 221.532 40.2146 221.532 40.8544V43.3636C221.532 43.8816 221.346 44.157 220.909 44.3434L221.945 45.2821H220.723L219.881 44.5214L219.031 44.57H217.898C217.69 44.5689 217.483 44.5418 217.282 44.4892C216.611 44.3027 216.279 43.9468 216.279 43.3636ZM217.42 43.3074C217.42 43.3397 217.438 43.3718 217.445 43.4126C217.501 43.7038 217.776 43.8658 218.197 43.8658H219.153L218.279 43.0724H219.501L220.27 43.7688C220.416 43.6877 220.505 43.5743 220.537 43.4286C220.545 43.3963 220.545 43.356 220.545 43.3233V40.919C220.545 40.8867 220.545 40.8546 220.537 40.8219C220.48 40.5468 220.205 40.3932 219.792 40.3932H218.197C217.728 40.3932 217.42 40.5955 217.42 40.919L217.42 43.3074Z" fill="#CE8B2C"/>
<rect x="260.493" width="77.8484" height="77.8469" rx="3.14388" fill="#2D2D3C"/>
<path d="M278.772 39.3421L281.43 38.4739H281.432L281.499 38.6311C281.377 38.6598 281.257 38.6955 281.139 38.738C281.134 38.7652 281.134 38.7931 281.139 38.8203C281.193 39.1319 281.226 39.4466 281.24 39.7624C281.252 39.9837 281.246 40.636 281.232 40.8317C281.195 41.4125 281.114 41.9897 280.991 42.5586C280.767 43.4212 280.451 44.2572 280.049 45.0522C279.977 45.2211 279.895 45.3857 279.804 45.5451C279.687 45.5521 279.569 45.5521 279.452 45.5451C278.535 45.4904 277.624 45.3605 276.729 45.157C276.291 45.0468 275.862 44.9039 275.445 44.7292C274.81 44.4502 274.266 44.0406 273.993 43.6386C273.89 43.4971 273.822 43.3332 273.795 43.1603C273.767 42.9874 273.782 42.8105 273.836 42.6441C273.929 42.4048 274.06 42.1823 274.225 41.9854C274.384 41.7955 274.561 41.6208 274.752 41.4636C274.899 41.3471 275.089 41.1856 275.295 41.0092C275.482 40.8488 275.654 40.6895 275.819 40.5333L276.46 40.3623L278.772 39.3421Z" fill="url(#paint0_linear_976_3939)"/>
<path d="M278.69 32.2783C278.646 32.2783 277.933 32.5296 277.473 32.7167C276.984 32.9022 276.515 33.1376 276.073 33.4193C275.967 33.4927 275.875 33.5847 275.802 33.6909C275.793 33.7127 275.789 33.7359 275.79 33.7593L276.058 34.0149L276.7 34.2191L278.225 34.4928L279.968 34.7922L279.986 34.6415H279.97L279.741 34.6051L279.695 34.5228C279.458 34.1047 279.197 33.5861 279.044 33.2396C278.929 32.9764 278.831 32.7061 278.751 32.4302C278.717 32.2933 278.712 32.2847 278.69 32.2826V32.2783ZM278.658 32.3852C278.666 32.4266 278.672 32.4684 278.676 32.5104C278.713 32.7969 278.779 33.0789 278.873 33.3519C278.948 33.5722 278.948 33.5658 278.861 33.5347C278.656 33.4781 277.738 33.3209 277.073 33.2268C276.966 33.2129 276.877 33.199 276.877 33.1968C276.877 33.1947 277.357 32.9338 277.572 32.8333C277.846 32.7071 278.602 32.3917 278.659 32.381L278.658 32.3852ZM276.721 33.2813L276.801 33.307C277.483 33.5012 278.182 33.6343 278.888 33.7048L279.012 33.7176C278.972 33.7433 278.93 33.7655 278.886 33.7839C278.6 33.9272 278.287 34.1047 278.07 34.2362C278.029 34.2643 277.985 34.2886 277.939 34.3089C277.931 34.3089 277.889 34.3004 277.845 34.295L277.764 34.2822L277.564 34.0854C277.21 33.7422 276.933 33.477 276.826 33.3765L276.721 33.2813ZM276.641 33.3433L276.925 33.6973C277.08 33.8919 277.236 34.0822 277.27 34.125C277.292 34.1497 277.312 34.1758 277.331 34.2031C277.322 34.2095 276.92 34.1303 276.708 34.0822C276.495 34.0341 276.399 34.0084 276.264 33.9657L276.157 33.9304V33.9015C276.157 33.7668 276.329 33.5668 276.619 33.3669L276.644 33.3487L276.641 33.3433ZM279.048 33.8245C279.056 33.8245 279.066 33.8427 279.09 33.8972C279.158 34.0469 279.371 34.4533 279.424 34.5313C279.44 34.5581 279.467 34.5602 279.185 34.5131C278.504 34.4062 278.285 34.3667 278.285 34.3624C278.299 34.3508 278.314 34.3408 278.331 34.3324C278.548 34.2096 278.753 34.0664 278.943 33.9047L279.04 33.8245C279.04 33.8245 279.046 33.8181 279.048 33.8245Z" fill="url(#paint1_linear_976_3939)"/>
<path d="M275.816 33.6631C275.802 33.6903 275.796 33.7201 275.796 33.7503C275.796 33.7804 275.802 33.8102 275.816 33.8374C275.864 33.9229 275.929 33.9987 276.005 34.0609C276.005 34.0609 276.899 34.9324 277.007 35.0575C277.482 35.5784 277.743 36.2599 277.736 36.9651C277.748 37.4655 277.638 37.9613 277.415 38.4097C276.998 39.3218 276.116 40.328 274.756 41.4454L274.955 41.3791C275.183 41.2211 275.421 41.0782 275.668 40.9514C276.736 40.3783 277.844 39.8823 278.983 39.4673C280.863 38.7604 283.954 37.9328 285.714 37.6634L285.897 37.6355L285.869 37.5906C285.745 37.3941 285.61 37.2045 285.465 37.0228C285.071 36.5381 284.586 36.1347 284.038 35.8349C283.251 35.3954 282.232 35.0521 280.943 34.7966C280.7 34.7485 280.165 34.6565 279.731 34.5902C278.812 34.4469 278.217 34.3485 277.562 34.2363C277.328 34.1956 276.976 34.1357 276.743 34.0855C276.562 34.0478 276.383 34.0003 276.208 33.9433C276.064 33.8866 275.854 33.8299 275.81 33.6599L275.816 33.6631ZM276.334 34.1646C276.334 34.1646 276.368 34.1753 276.41 34.1892C276.487 34.2149 276.585 34.2459 276.702 34.278L276.967 34.3475L277.19 34.4063C277.203 34.4202 277.403 35.0692 277.475 35.3184C277.501 35.4125 277.521 35.4927 277.519 35.4927C277.499 35.4685 277.483 35.4424 277.469 35.4146C277.201 34.9606 276.849 34.5615 276.433 34.2384C276.398 34.2146 276.365 34.1882 276.334 34.1593V34.1646ZM277.322 34.4384C277.358 34.4421 277.394 34.4482 277.429 34.4565C277.771 34.5325 278.384 34.649 278.775 34.7153C278.816 34.7193 278.856 34.7283 278.894 34.742C278.877 34.7555 278.859 34.7669 278.839 34.7763C278.773 34.8094 278.506 34.9687 278.418 35.0286C278.215 35.1617 278.024 35.3139 277.849 35.4831C277.792 35.5408 277.742 35.59 277.742 35.59C277.733 35.5651 277.726 35.5398 277.72 35.5141C277.626 35.1769 277.506 34.8476 277.361 34.5292C277.345 34.4995 277.332 34.4688 277.32 34.4373L277.322 34.4384ZM279.062 34.7698C279.097 34.84 279.121 34.915 279.135 34.9923C279.209 35.2932 279.242 35.603 279.231 35.9129C279.23 35.9705 279.225 36.028 279.218 36.0851V36.1054L279.111 36.0712C278.897 36.0027 278.547 35.9012 278.247 35.8167C278.077 35.7696 277.938 35.7279 277.938 35.7237C278.05 35.5991 278.169 35.4806 278.294 35.3686C278.54 35.1555 278.798 34.9556 279.065 34.7698H279.062ZM279.201 34.7902C279.206 34.7837 280.032 34.926 280.408 35.004C280.687 35.0585 281.092 35.143 281.117 35.1526C281.142 35.1623 281.087 35.1804 280.952 35.2414C280.494 35.4413 280.053 35.6806 279.636 35.9568C279.529 36.0241 279.448 36.0808 279.446 36.0808C279.443 36.0381 279.443 35.9952 279.446 35.9525C279.449 35.5776 279.376 35.2059 279.232 34.8597C279.218 34.837 279.208 34.8125 279.201 34.7869V34.7902ZM281.332 35.2147C281.325 35.3042 281.31 35.3929 281.287 35.4799C281.168 35.8867 280.998 36.2769 280.781 36.6411C280.756 36.6884 280.728 36.7341 280.697 36.778C280.658 36.7587 280.62 36.7365 280.584 36.7117C280.33 36.5657 280.067 36.4367 279.797 36.3257C279.716 36.2914 279.646 36.2636 279.644 36.2594C279.641 36.2551 280.277 35.8199 280.618 35.6178C280.886 35.4488 281.332 35.204 281.332 35.2147ZM281.484 35.2393C281.502 35.2393 281.868 35.3398 282.059 35.3954C282.525 35.5345 282.981 35.7016 283.427 35.8958L283.578 35.9632L283.471 35.9878C282.681 36.164 281.906 36.4036 281.155 36.7042C281.097 36.7288 281.048 36.7491 281.04 36.7491C281.05 36.7118 281.064 36.6759 281.083 36.6422C281.288 36.2218 281.419 35.7693 281.47 35.3045C281.47 35.266 281.479 35.2361 281.484 35.2361V35.2393ZM277.848 36.0701C277.855 36.0648 278.134 36.1311 278.285 36.177C278.527 36.2448 278.766 36.3247 279 36.4166C279 36.4166 278.945 36.4647 278.881 36.5235C278.618 36.7373 278.365 36.9737 278.061 37.2666C277.971 37.3533 277.894 37.4238 277.891 37.4238C277.888 37.4238 277.885 37.4121 277.891 37.396C277.935 36.9901 277.924 36.5801 277.859 36.177C277.854 36.1416 277.85 36.1059 277.848 36.0701ZM283.717 36.0765C283.651 36.1907 283.58 36.3014 283.503 36.408C283.382 36.5802 283.205 36.8101 282.806 37.3116C282.592 37.5767 282.357 37.8761 282.279 37.9767C282.201 38.0772 282.132 38.1616 282.131 38.1616C282.11 38.1364 282.091 38.1096 282.074 38.0814C281.849 37.7436 281.574 37.4409 281.26 37.1832C281.2 37.133 281.134 37.0763 281.112 37.0624C281.097 37.0527 281.083 37.0412 281.071 37.0282C281.071 37.0282 281.413 36.8763 281.672 36.7716C282.127 36.5866 282.741 36.3652 283.209 36.223C283.452 36.1471 283.711 36.0722 283.715 36.0765H283.717ZM283.871 36.1161C283.911 36.13 283.95 36.149 283.986 36.1728C284.474 36.4521 284.925 36.7908 285.329 37.1811C285.436 37.288 285.699 37.5586 285.695 37.5607C285.69 37.5628 285.603 37.5693 285.494 37.5767C284.493 37.6662 283.501 37.8313 282.525 38.0708L282.388 38.1018C282.388 38.1018 282.463 38.0226 282.562 37.9285C283.172 37.3404 283.451 36.9662 283.781 36.3053C283.827 36.207 283.867 36.1225 283.871 36.1161ZM279.398 36.5748C279.425 36.5748 279.686 36.7031 279.883 36.8015C280.064 36.8924 280.335 37.0367 280.349 37.0485C280.363 37.0603 280.255 37.1009 280.135 37.1554C279.758 37.3447 279.434 37.5233 279.097 37.7286L278.919 37.8355C278.91 37.8355 278.912 37.828 278.967 37.7286C279.154 37.3821 279.292 37.011 279.375 36.6261C279.384 36.5962 279.391 36.5759 279.398 36.5759V36.5748ZM279.136 36.6229C279.107 36.7538 279.071 36.883 279.029 37.01C278.935 37.2922 278.816 37.5653 278.673 37.8259C278.641 37.8826 278.592 37.9649 278.566 38.0109L278.515 38.0911L278.409 37.9841C278.299 37.8731 278.173 37.78 278.034 37.7083C278.001 37.6929 277.968 37.6742 277.938 37.6527C277.938 37.6366 278.281 37.3255 278.544 37.0998C278.734 36.9373 279.131 36.6176 279.137 36.624L279.136 36.6229ZM280.733 37.2795L280.832 37.3436C281.072 37.5015 281.303 37.6725 281.524 37.8558C281.639 37.951 281.86 38.1499 281.904 38.198L281.929 38.2237L281.766 38.2696C280.845 38.5295 280.134 38.753 279.3 39.0641C279.208 39.0983 279.13 39.1261 279.124 39.1261C279.118 39.1261 279.101 39.1358 279.309 38.9454C279.817 38.4828 280.27 37.9624 280.658 37.395L280.729 37.288L280.733 37.2795ZM280.313 37.3864C280.313 37.3864 280.042 37.781 279.878 37.9948C279.681 38.2557 279.331 38.6941 279.09 38.9786C278.989 39.0973 278.904 39.1924 278.899 39.1978C278.895 39.2031 278.891 39.17 278.891 39.124C278.889 38.8731 278.83 38.6258 278.721 38.4001C278.674 38.3081 278.666 38.2857 278.676 38.2761C278.714 38.2418 279.299 37.9082 279.668 37.7093C279.917 37.5767 280.31 37.38 280.31 37.3885L280.313 37.3864ZM277.774 38.0087C277.811 38.024 277.847 38.0415 277.881 38.0611C278.004 38.1277 278.12 38.2057 278.228 38.2942C278.193 38.3306 278.154 38.3629 278.111 38.3905C277.92 38.5273 277.631 38.7465 277.462 38.8813C277.293 39.016 277.279 39.0256 277.3 38.9957C277.4 38.8471 277.488 38.6912 277.565 38.5295C277.63 38.3932 277.687 38.2528 277.734 38.1092C277.741 38.0715 277.755 38.0354 277.774 38.0023V38.0087ZM278.451 38.5434C278.461 38.5434 278.474 38.5594 278.527 38.6396C278.644 38.8159 278.721 39.0155 278.753 39.2245V39.2652L278.478 39.3721C277.986 39.5635 277.532 39.7517 277.225 39.8928C277.138 39.9324 276.987 40.0051 276.889 40.0532C276.791 40.1013 276.711 40.142 276.711 40.1398C276.711 40.1377 276.773 40.0917 276.848 40.0329C277.409 39.6359 277.917 39.1687 278.359 38.6428C278.402 38.5926 278.44 38.5466 278.444 38.5444L278.451 38.5434ZM278.14 38.6204C278.023 38.7707 277.897 38.9135 277.763 39.0481C277.39 39.4293 276.973 39.7645 276.52 40.0468L276.399 40.1227C276.385 40.1313 276.399 40.111 276.613 39.8843C276.736 39.753 276.852 39.6156 276.961 39.4726C277.012 39.3956 277.078 39.3294 277.155 39.278C277.45 39.0641 278.132 38.6065 278.14 38.615V38.6204Z" fill="url(#paint2_radial_976_3939)"/>
<path d="M293.769 37.2967C293.71 37.2967 293.651 37.3031 293.593 37.3031C292.406 37.3662 291.607 37.888 291.139 38.907C290.739 39.8298 290.782 41.0349 291.139 41.962C291.559 42.8688 292.236 43.3521 293.369 43.5275C293.608 43.567 293.769 43.6985 294.233 44.2396L294.804 44.909H295.839L295.15 44.215C294.77 43.8344 294.462 43.5029 294.462 43.474C294.462 43.4451 294.607 43.381 294.782 43.3275C295.363 43.1521 295.845 42.703 296.183 42.0155C296.456 41.4627 296.495 41.2926 296.535 40.6051C296.642 38.5606 295.559 37.2817 293.763 37.2967H293.769ZM294.677 42.6432C294.173 42.887 293.442 42.9351 292.966 42.7608C292.472 42.579 291.994 42.0668 291.779 41.4862C291.54 40.8521 291.575 39.6812 291.847 39.154C292.287 38.3147 292.867 37.9286 293.716 37.9286C294.975 37.9286 295.691 38.6996 295.784 40.1496C295.858 41.3589 295.453 42.2668 294.678 42.6421L294.677 42.6432ZM312.555 39.0439C312.359 39.0352 312.163 39.0789 311.989 39.1706C311.815 39.2623 311.668 39.3987 311.564 39.5657L311.389 39.8405V39.1273H310.64V43.4045H311.389V42.0358C311.389 40.7858 311.404 40.6457 311.578 40.2982C311.82 39.8298 312.233 39.5957 312.633 39.7079L312.902 39.786V39.045H312.555V39.0439ZM308.14 39.0043C307.986 39.006 307.832 39.0243 307.681 39.0589C306.676 39.3219 306.109 40.2843 306.144 41.2745C306.144 42.1032 306.305 42.518 306.705 42.9522C307.525 43.6248 308.266 43.6793 309.266 43.3179C309.437 43.2452 309.623 43.1618 309.623 43.1618V42.486L309.266 42.6699C308.457 43.0228 307.847 43.0228 307.358 42.6079C307.047 42.2871 306.909 41.9096 306.846 41.4755H309.882V40.8991C309.882 39.7229 309.174 38.983 308.145 39.0011L308.14 39.0043ZM306.917 40.882C306.917 40.882 307.029 40.1496 307.444 39.8619C307.634 39.7247 307.863 39.6499 308.097 39.6481C308.327 39.6477 308.55 39.7228 308.732 39.8619C309.112 40.1538 309.176 40.8713 309.176 40.8713H306.917V40.882ZM288.802 40.1111C287.987 39.6181 287.626 39.262 287.671 38.8418C287.797 37.6816 289.231 37.842 290.023 38.2815L290.029 37.4999C289.688 37.3699 289.326 37.3021 288.96 37.2999C287.998 37.2849 287.37 37.6014 287.078 38.2462C286.65 39.1979 287.028 39.9154 288.404 40.7152C289.176 41.1643 289.517 41.5546 289.517 41.9791C289.517 42.8581 288.458 43.165 287.365 42.6132C287.14 42.5063 286.95 42.4079 286.937 42.4079C286.913 42.6888 286.906 42.9709 286.918 43.2527C287.19 43.3582 287.471 43.438 287.757 43.4911C289.006 43.7403 290.143 43.1543 290.25 42.208C290.343 41.3151 290.02 40.8467 288.797 40.1153L288.802 40.1111ZM319.207 38.9979C319.051 39 318.896 39.0183 318.743 39.0525C317.738 39.3155 317.172 40.2779 317.211 41.268C317.211 42.0957 317.372 42.5063 317.772 42.9404C318.591 43.6141 319.333 43.6686 320.339 43.3072C320.509 43.2345 320.694 43.1511 320.694 43.1511V42.4774L320.338 42.6635C319.527 43.0142 318.916 43.0142 318.43 42.5993C318.117 42.2785 317.981 41.9064 317.918 41.468H320.942V40.8917C320.942 39.7218 320.235 38.9798 319.205 38.999L319.207 38.9979ZM317.982 40.8724C317.982 40.8724 318.095 40.1399 318.509 39.847C318.699 39.7097 318.928 39.635 319.162 39.6331C319.391 39.6328 319.614 39.708 319.796 39.847C320.177 40.1399 320.241 40.8617 320.241 40.8617H317.983L317.982 40.8724ZM304.209 40.1239C303.395 39.632 303.033 39.2749 303.078 38.8546C303.204 37.6934 304.639 37.8549 305.43 38.2943L305.436 37.5127C305.094 37.3828 304.732 37.3154 304.367 37.3138C303.404 37.2988 302.776 37.6153 302.484 38.2601C302.056 39.2118 302.44 39.9282 303.81 40.7291C304.581 41.1772 304.924 41.5621 304.924 41.9877C304.924 42.8666 303.865 43.1778 302.772 42.6218C302.548 42.5095 302.357 42.4175 302.344 42.4175C302.32 42.6984 302.314 42.9806 302.325 43.2623C302.596 43.3652 302.875 43.445 303.159 43.5007C304.409 43.7499 305.546 43.165 305.653 42.2176C305.746 41.329 305.423 40.8617 304.204 40.1292L304.209 40.1239ZM323.622 39.0343C323.426 39.025 323.23 39.0684 323.056 39.1602C322.882 39.252 322.736 39.3887 322.632 39.5561L322.456 39.8298V39.1177H321.707V43.3949H322.456V42.0251C322.456 40.7762 322.471 40.6297 322.646 40.2886C322.887 39.8202 323.301 39.586 323.7 39.6983L323.969 39.7764V39.0343H323.622ZM298.233 40.0929V37.3705H297.478V43.4013H300.664V42.6881H298.233V40.0929ZM315.752 40.9419L315.128 42.5662L314.528 40.9323L313.919 39.122H313.142C313.645 40.5463 314.191 41.9962 314.746 43.3991C314.985 43.4045 315.224 43.3991 315.464 43.3991L316.306 41.2819L317.162 39.1209H316.421C316.421 39.1209 316.093 39.9763 315.752 40.9387V40.9419ZM299.979 35.727C300.036 35.7288 300.093 35.7188 300.146 35.6977C300.199 35.6765 300.247 35.6446 300.287 35.604C300.328 35.5652 300.36 35.5183 300.382 35.4664C300.404 35.4145 300.414 35.3587 300.413 35.3025C300.415 35.2461 300.404 35.1902 300.382 35.1382C300.361 35.0863 300.328 35.0395 300.287 35.0009C300.206 34.9235 300.097 34.8812 299.985 34.8833C299.928 34.881 299.871 34.8902 299.819 34.9105C299.766 34.9307 299.717 34.9615 299.677 35.0009C299.637 35.0403 299.605 35.0875 299.584 35.1396C299.563 35.1916 299.553 35.2474 299.555 35.3035C299.552 35.3596 299.562 35.4154 299.583 35.4674C299.604 35.5194 299.636 35.5663 299.677 35.6051C299.716 35.6442 299.764 35.6748 299.816 35.6951C299.868 35.7153 299.923 35.7247 299.979 35.7227V35.727ZM299.711 35.033C299.764 34.9797 299.833 34.9435 299.907 34.9288C299.981 34.9141 300.058 34.9216 300.128 34.9504C300.197 34.9791 300.257 35.0279 300.3 35.0905C300.342 35.1532 300.365 35.2269 300.365 35.3025C300.367 35.3527 300.358 35.4028 300.339 35.4496C300.321 35.4964 300.293 35.5391 300.258 35.5751C300.223 35.6103 300.181 35.638 300.135 35.6564C300.089 35.6748 300.04 35.6835 299.99 35.6821C299.94 35.684 299.891 35.6754 299.844 35.657C299.798 35.6386 299.756 35.6107 299.722 35.5751C299.685 35.5396 299.657 35.4971 299.638 35.4502C299.618 35.4034 299.609 35.3531 299.609 35.3025C299.607 35.253 299.615 35.2035 299.632 35.1572C299.65 35.1109 299.676 35.0686 299.711 35.033ZM299.892 35.3409H299.938C299.972 35.3409 300.006 35.3752 300.035 35.4383L300.094 35.5708H300.187L300.117 35.4286C300.087 35.3698 300.058 35.3356 300.024 35.3217C300.063 35.3152 300.098 35.2965 300.126 35.2682C300.149 35.2411 300.161 35.2057 300.159 35.1699C300.161 35.1499 300.158 35.1298 300.15 35.1112C300.143 35.0926 300.131 35.0761 300.116 35.0629C300.07 35.031 300.015 35.0156 299.959 35.0191H299.804V35.5666H299.882V35.3409H299.892ZM299.892 35.0875H299.96C299.997 35.0838 300.035 35.0924 300.067 35.1121C300.085 35.126 300.09 35.1453 300.09 35.1795C300.09 35.2436 300.051 35.2725 299.978 35.2725H299.895V35.0875H299.892ZM287.381 35.2928C287.381 35.1025 287.381 34.9603 287.37 34.8769H287.375C287.389 34.9525 287.41 35.0266 287.439 35.0982L288.166 36.7225H288.282L289.009 35.0832C289.036 35.0166 289.057 34.9479 289.072 34.8779H289.079C289.064 35.0405 289.059 35.1816 289.059 35.2939V36.7278H289.308V34.5956H288.995L288.327 36.0788C288.303 36.1379 288.267 36.2256 288.22 36.3418H288.211C288.184 36.2551 288.152 36.1704 288.113 36.0884L287.459 34.5914H287.127V36.7225H287.367V35.2939L287.381 35.2928ZM289.858 35.2928H290.072V36.6209H289.858V35.2928ZM289.965 34.8063C289.985 34.8064 290.005 34.8024 290.023 34.7947C290.042 34.787 290.058 34.7757 290.072 34.7614C290.102 34.7338 290.12 34.6953 290.122 34.6545C290.122 34.6341 290.118 34.6141 290.11 34.5956C290.101 34.5772 290.089 34.5608 290.073 34.5475C290.058 34.5328 290.041 34.5212 290.021 34.5135C290.002 34.5057 289.981 34.5021 289.96 34.5026C289.94 34.5026 289.92 34.5066 289.902 34.5143C289.884 34.522 289.867 34.5333 289.853 34.5475C289.823 34.5754 289.806 34.6138 289.804 34.6545C289.803 34.6749 289.807 34.6951 289.816 34.7136C289.825 34.7322 289.837 34.7485 289.853 34.7614C289.882 34.7894 289.92 34.8055 289.96 34.8063H289.965ZM291.604 36.6498V36.4156C291.497 36.4999 291.365 36.5462 291.229 36.5471C291.158 36.5505 291.087 36.5382 291.022 36.5113C290.956 36.4843 290.897 36.4432 290.849 36.391C290.75 36.274 290.7 36.1243 290.707 35.9718C290.702 35.8123 290.756 35.6565 290.86 35.5356C290.908 35.4827 290.967 35.441 291.033 35.4131C291.099 35.3852 291.17 35.3719 291.241 35.3741C291.371 35.3749 291.497 35.416 291.602 35.4917V35.2383C291.45 35.1675 291.28 35.1441 291.115 35.1711C290.949 35.1982 290.796 35.2745 290.674 35.3901C290.527 35.5562 290.451 35.7728 290.46 35.9943C290.452 36.1951 290.522 36.3913 290.655 36.5418C290.723 36.6127 290.805 36.6685 290.896 36.7054C290.986 36.7423 291.084 36.7594 291.182 36.7556C291.329 36.756 291.473 36.7192 291.601 36.6487L291.604 36.6498ZM292.219 35.9419C292.21 35.7961 292.248 35.6511 292.326 35.5281C292.354 35.4878 292.391 35.4548 292.434 35.4319C292.477 35.409 292.525 35.3969 292.574 35.3965C292.64 35.3912 292.705 35.4085 292.759 35.4457V35.1945C292.713 35.1786 292.663 35.1721 292.614 35.1752C292.528 35.1751 292.445 35.2046 292.379 35.2586C292.299 35.3258 292.241 35.4157 292.214 35.5163H292.209V35.2041H291.965V36.7268H292.209V35.9451L292.219 35.9419ZM293.62 36.7535C293.722 36.758 293.824 36.7407 293.919 36.7027C294.014 36.6647 294.1 36.6069 294.171 36.5332C294.313 36.3733 294.387 36.1642 294.377 35.9504C294.39 35.7398 294.322 35.5323 294.187 35.3698C294.119 35.2969 294.036 35.24 293.943 35.203C293.851 35.166 293.752 35.15 293.652 35.156C293.552 35.1514 293.451 35.1667 293.356 35.201C293.262 35.2353 293.175 35.2879 293.1 35.3559C293.024 35.4388 292.965 35.5364 292.927 35.6429C292.889 35.7493 292.873 35.8623 292.88 35.975C292.87 36.1803 292.939 36.3817 293.075 36.5364C293.145 36.6089 293.231 36.6655 293.325 36.7024C293.419 36.7393 293.52 36.7556 293.621 36.7503L293.62 36.7535ZM293.273 35.5131C293.32 35.4644 293.377 35.4261 293.44 35.4009C293.503 35.3757 293.57 35.364 293.638 35.3666C293.706 35.3627 293.773 35.3739 293.835 35.3992C293.898 35.4246 293.954 35.4635 294 35.5131C294.097 35.6421 294.143 35.8024 294.129 35.9633C294.14 36.1157 294.097 36.2672 294.007 36.391C293.963 36.4439 293.907 36.4857 293.843 36.513C293.78 36.5403 293.711 36.5523 293.642 36.5482C293.572 36.5507 293.503 36.538 293.439 36.5108C293.374 36.4836 293.317 36.4427 293.27 36.391C293.173 36.2705 293.125 36.1178 293.135 35.9633C293.127 35.884 293.134 35.8039 293.158 35.7277C293.181 35.6515 293.219 35.5807 293.27 35.5195L293.273 35.5131ZM295.446 36.6241C295.492 36.5859 295.528 36.5381 295.553 36.4841C295.577 36.43 295.59 36.3712 295.589 36.3119C295.591 36.2607 295.582 36.2097 295.564 36.1619C295.545 36.1141 295.517 36.0705 295.482 36.0338C295.398 35.961 295.302 35.9047 295.197 35.8681C295.115 35.8373 295.038 35.7944 294.968 35.7409C294.948 35.7208 294.931 35.6965 294.92 35.6696C294.909 35.6427 294.904 35.6137 294.905 35.5847C294.905 35.5555 294.911 35.5265 294.924 35.5001C294.936 35.4737 294.955 35.4507 294.978 35.4329C295.035 35.3916 295.104 35.3712 295.174 35.3752C295.298 35.3727 295.419 35.4102 295.52 35.4821V35.2394C295.418 35.1895 295.306 35.1646 295.193 35.1667C295.053 35.1609 294.916 35.2057 294.807 35.2928C294.722 35.364 294.668 35.4662 294.658 35.5769C294.648 35.6876 294.682 35.7977 294.754 35.8831C294.83 35.9571 294.92 36.015 295.019 36.0531C295.108 36.0887 295.192 36.1365 295.268 36.1953C295.289 36.2133 295.305 36.2357 295.316 36.2609C295.327 36.286 295.332 36.3133 295.331 36.3407C295.331 36.483 295.234 36.5546 295.043 36.5546C294.898 36.5552 294.758 36.5036 294.648 36.4092V36.6722C294.762 36.7369 294.892 36.7691 295.023 36.7652C295.175 36.7677 295.323 36.7178 295.442 36.6241H295.446ZM296.609 35.1602C296.508 35.1556 296.408 35.1709 296.313 35.2052C296.218 35.2396 296.131 35.2922 296.057 35.3602C295.98 35.4425 295.921 35.5393 295.883 35.6449C295.844 35.7505 295.828 35.8628 295.834 35.975C295.823 36.1803 295.893 36.3815 296.028 36.5364C296.176 36.6775 296.373 36.7563 296.577 36.7563C296.782 36.7563 296.978 36.6775 297.126 36.5364C297.269 36.3758 297.342 36.1658 297.332 35.9515C297.344 35.7409 297.276 35.5334 297.141 35.3709C297.073 35.2986 296.99 35.2421 296.897 35.2052C296.805 35.1683 296.706 35.1518 296.607 35.157L296.609 35.1602ZM297.076 35.9633C297.087 36.1157 297.044 36.2672 296.954 36.391C296.91 36.4439 296.853 36.4857 296.79 36.513C296.726 36.5403 296.657 36.5523 296.588 36.5482C296.519 36.5508 296.45 36.5381 296.385 36.5109C296.321 36.4837 296.264 36.4428 296.217 36.391C296.127 36.2622 296.079 36.108 296.081 35.9503C296.082 35.7927 296.134 35.6397 296.228 35.5131C296.275 35.4642 296.332 35.4259 296.395 35.4006C296.458 35.3754 296.526 35.3638 296.594 35.3666C296.661 35.3634 296.728 35.3749 296.79 35.4002C296.852 35.4255 296.908 35.464 296.954 35.5131C297.042 35.6462 297.085 35.804 297.076 35.9633ZM297.736 36.7257H297.979V35.404H298.334V35.1998H297.976V34.9646C297.976 34.7507 298.06 34.6438 298.231 34.6438C298.287 34.6432 298.342 34.6564 298.391 34.6823V34.4663C298.335 34.446 298.275 34.4376 298.215 34.4417C298.155 34.4396 298.096 34.4492 298.04 34.4701C297.984 34.4911 297.932 34.5228 297.889 34.5636C297.836 34.6145 297.794 34.6761 297.767 34.7444C297.74 34.8126 297.728 34.8859 297.732 34.9592V35.2084H297.478V35.4137H297.736V36.7225V36.7257ZM298.736 36.3097C298.736 36.6081 298.867 36.7588 299.136 36.7588C299.215 36.7637 299.294 36.7463 299.364 36.7086V36.4947C299.319 36.5279 299.264 36.5451 299.208 36.5439C299.176 36.5472 299.144 36.5431 299.113 36.532C299.083 36.5209 299.055 36.503 299.033 36.4797C298.993 36.4159 298.974 36.3411 298.978 36.2659V35.4104H299.364V35.1987H298.975V34.7507C298.892 34.7796 298.809 34.8042 298.731 34.8288V35.1987H298.468V35.404H298.731V36.3065L298.736 36.3097ZM324.921 39.1156C324.88 39.0769 324.833 39.0466 324.781 39.0264C324.729 39.0062 324.674 38.9965 324.618 38.9979C324.561 38.9966 324.505 39.0068 324.453 39.0278C324.4 39.0488 324.353 39.0803 324.313 39.1203C324.273 39.1603 324.241 39.2079 324.22 39.2604C324.199 39.3129 324.189 39.3691 324.19 39.4257C324.188 39.4817 324.198 39.5375 324.219 39.5894C324.24 39.6414 324.272 39.6884 324.312 39.7272C324.353 39.7662 324.401 39.7967 324.454 39.8169C324.507 39.8371 324.563 39.8466 324.62 39.8448C324.677 39.8463 324.733 39.8363 324.786 39.8154C324.839 39.7944 324.887 39.763 324.927 39.7229C324.968 39.6838 325 39.6368 325.021 39.5847C325.043 39.5327 325.054 39.4767 325.053 39.4203C325.053 39.3636 325.041 39.3075 325.018 39.2555C324.996 39.2035 324.963 39.1566 324.922 39.1177L324.921 39.1156ZM324.881 39.6919C324.808 39.7592 324.713 39.7966 324.614 39.7966C324.514 39.7966 324.419 39.7592 324.346 39.6919C324.31 39.656 324.282 39.6131 324.262 39.5659C324.243 39.5187 324.233 39.4681 324.234 39.4171C324.236 39.3427 324.259 39.2704 324.301 39.209C324.343 39.1477 324.402 39.0999 324.471 39.0714C324.54 39.043 324.615 39.0351 324.689 39.0489C324.762 39.0626 324.829 39.0973 324.883 39.1487C324.919 39.1835 324.947 39.2253 324.967 39.2714C324.986 39.3175 324.996 39.3671 324.995 39.4171C324.997 39.4679 324.988 39.5185 324.968 39.5654C324.948 39.6123 324.918 39.6543 324.881 39.6887V39.6919ZM324.667 39.4428C324.707 39.4355 324.744 39.4169 324.774 39.3893C324.798 39.3622 324.81 39.3268 324.807 39.2909C324.809 39.2709 324.806 39.2506 324.799 39.232C324.791 39.2133 324.779 39.1969 324.763 39.184C324.718 39.1524 324.663 39.1374 324.607 39.1412H324.451V39.6866H324.53V39.4577H324.578C324.613 39.4577 324.646 39.4909 324.676 39.555L324.734 39.6866H324.827L324.755 39.5401C324.729 39.4759 324.7 39.447 324.67 39.4331L324.667 39.4428ZM324.614 39.3936H324.529V39.2086H324.599C324.634 39.2059 324.67 39.2145 324.7 39.2332C324.721 39.2471 324.725 39.2663 324.725 39.3016C324.725 39.3647 324.685 39.3936 324.613 39.3936H324.614ZM280.311 45.5687H280.354V45.2244H280.468V45.1817H280.197V45.2244H280.311V45.5687ZM280.573 45.31C280.575 45.2844 280.575 45.2586 280.573 45.233C280.575 45.2469 280.58 45.2606 280.585 45.2736L280.717 45.5687H280.738L280.868 45.2661C280.868 45.2565 280.874 45.2447 280.881 45.2287C280.879 45.2536 280.879 45.2786 280.881 45.3036V45.5645H280.927V45.1774H280.871L280.751 45.4447C280.751 45.4543 280.739 45.4725 280.733 45.4939C280.728 45.4782 280.722 45.4629 280.715 45.4479L280.595 45.1774H280.533V45.5655H280.576V45.3057L280.573 45.31Z" fill="#DCDEE1"/>
<rect x="347.323" width="77.8469" height="77.8469" rx="3.14388" fill="#2D2D3C"/>
<path d="M370.928 30.2439L371.309 30.96C371.392 31.0892 371.488 31.2091 371.597 31.3177C371.915 31.6366 372.219 31.9709 372.491 32.329C373.136 33.1768 373.572 34.1182 373.883 35.1375C374.07 35.76 374.171 36.3979 374.179 37.0434C374.21 38.9727 373.549 40.6295 372.211 42.0065C371.994 42.2248 371.76 42.4252 371.511 42.6056C371.378 42.6056 371.316 42.5008 371.262 42.4111C371.157 42.2364 371.098 42.0453 371.067 41.8511C371.02 41.6177 370.989 41.3844 371.005 41.143V41.034C370.997 41.0106 370.88 30.2987 370.927 30.2442L370.928 30.2439Z" fill="#599636"/>
<path d="M370.928 30.2208C370.912 30.1893 370.896 30.2131 370.881 30.2285C370.888 30.3839 370.834 30.524 370.748 30.6564C370.655 30.7891 370.53 30.8897 370.406 30.9987C369.713 31.5978 369.169 32.3212 368.733 33.1303C368.157 34.2194 367.854 35.3862 367.769 36.6154C367.731 37.0591 367.909 38.6226 368.049 39.0736C368.43 40.2718 369.115 41.275 370.005 42.1462C370.223 42.3558 370.457 42.5507 370.698 42.7373C370.768 42.7373 370.776 42.6751 370.791 42.6283C370.822 42.5289 370.845 42.4275 370.861 42.3247C370.931 41.9359 370.97 41.5468 371.016 41.158L370.931 30.2208H370.928Z" fill="#6CAC48"/>
<path d="M371.31 43.0801C371.325 42.9013 371.415 42.7535 371.504 42.6057C371.411 42.5673 371.341 42.4891 371.286 42.4031C371.24 42.3252 371.201 42.2285 371.17 42.1464C371.061 41.8198 371.037 41.4774 371.006 41.1428V40.9402C370.968 40.9716 370.959 41.2357 370.959 41.2748C370.936 41.6325 370.89 41.9829 370.82 42.3249C370.796 42.4646 370.781 42.605 370.695 42.7294C370.695 42.7451 370.695 42.7608 370.703 42.7839C370.843 43.1961 370.882 43.6163 370.906 44.0442V44.1997C370.906 44.3862 370.898 44.3475 371.053 44.4093C371.116 44.4327 371.186 44.4407 371.248 44.4872C371.295 44.4872 371.302 44.4488 371.302 44.4173L371.279 44.1606V43.4445C371.271 43.3201 371.295 43.1954 371.31 43.0787L371.31 43.0801Z" fill="#C2BFBF"/>
<path d="M377.216 39.8262V40.5671C377.215 40.5964 377.217 40.6258 377.221 40.6549C377.231 40.7426 377.285 40.7961 377.364 40.8207C377.438 40.8402 377.513 40.8548 377.589 40.8646C377.633 40.8696 377.647 40.8889 377.652 40.9359C377.657 41.1018 377.643 41.1214 377.482 41.1114C377.106 41.0918 376.731 41.0872 376.356 41.1114H376.32C376.203 41.1164 376.193 41.1064 376.193 40.9894C376.193 40.9698 376.198 40.9456 376.198 40.926C376.198 40.8903 376.223 40.8724 376.257 40.8724C376.335 40.8628 376.408 40.8432 376.481 40.8286C376.584 40.8043 376.642 40.7408 376.652 40.6385C376.666 40.5264 376.666 40.4095 376.666 40.2971L376.671 38.9909C376.673 38.953 376.664 38.9154 376.645 38.8826C376.626 38.8497 376.598 38.8229 376.564 38.8054C376.476 38.7564 376.383 38.7171 376.286 38.6884C376.257 38.6787 376.228 38.6741 376.203 38.6591C376.132 38.6249 376.13 38.5618 376.198 38.5225C376.223 38.5082 376.252 38.4983 376.281 38.4933C376.577 38.4496 376.867 38.3761 377.149 38.2739C377.207 38.2543 377.222 38.2596 377.227 38.3178C377.232 38.3534 377.227 38.3962 377.222 38.4298C377.212 38.4933 377.212 38.5564 377.212 38.6153C377.212 38.6395 377.217 38.6641 377.242 38.6787C377.266 38.6934 377.29 38.6787 377.313 38.6645C377.415 38.586 377.518 38.5132 377.63 38.4505C377.79 38.3627 377.961 38.2846 378.147 38.2603C378.372 38.2311 378.566 38.2896 378.737 38.4358C378.808 38.4991 378.87 38.5711 378.922 38.6502C378.971 38.7216 378.976 38.7233 379.039 38.6745C379.225 38.5379 379.419 38.4162 379.629 38.3285C379.848 38.2357 380.073 38.2215 380.297 38.2992C380.526 38.382 380.682 38.5428 380.775 38.7622C380.853 38.9377 380.887 39.1189 380.887 39.308V40.6142C380.887 40.7019 380.922 40.7569 381.009 40.7997C381.101 40.8353 381.204 40.8532 381.301 40.8728C381.365 40.8871 381.365 40.8871 381.365 40.9513C381.355 41.1118 381.34 41.1218 381.184 41.1118C380.793 41.0899 380.401 41.0899 380.01 41.1118C379.931 41.1168 379.931 41.1168 379.927 41.0387V41.0144C379.922 40.8824 379.922 40.8824 380.049 40.8539L380.175 40.8197C380.218 40.8096 380.257 40.7853 380.284 40.7508C380.311 40.7163 380.327 40.6736 380.327 40.6295L380.341 40.2639L380.331 39.3087C380.328 39.2234 380.31 39.1393 380.278 39.0601C380.156 38.7626 379.888 38.6556 379.629 38.6848C379.434 38.7044 379.264 38.7822 379.103 38.8946C379.069 38.9188 379.044 38.9481 379.049 38.9969C379.093 39.309 379.064 39.6211 379.069 39.9329V40.6106C379.069 40.7326 379.118 40.7911 379.235 40.8204L379.46 40.8692C379.494 40.8742 379.513 40.8889 379.513 40.9277V40.9634C379.508 41.1 379.499 41.1061 379.362 41.1047C378.972 41.085 378.582 41.0904 378.197 41.1047C378.065 41.1097 378.054 41.095 378.06 40.962C378.065 40.8835 378.075 40.8792 378.148 40.8646L378.309 40.8353C378.451 40.8061 378.504 40.7526 378.513 40.6014L378.528 40.2746L378.518 39.2948C378.508 39.1728 378.482 39.0558 378.416 38.9438C378.318 38.7633 378.166 38.6709 377.957 38.6609C377.747 38.6466 377.562 38.7244 377.386 38.8214C377.264 38.8928 377.211 38.9773 377.221 39.1189V39.8305L377.216 39.8262ZM386.4 39.8559V40.5432C386.401 40.5921 386.404 40.6409 386.41 40.6895C386.412 40.7218 386.424 40.7526 386.446 40.7773C386.467 40.8019 386.495 40.819 386.527 40.8261C386.611 40.8506 386.698 40.8653 386.785 40.8699C386.834 40.8749 386.844 40.8942 386.849 40.9334V40.9677C386.844 41.1382 386.824 41.1578 386.658 41.1482C386.287 41.1239 385.918 41.1286 385.547 41.1482L385.404 41.1532C385.375 41.1532 385.369 41.1389 385.36 41.1189C385.346 41.0514 385.346 40.9817 385.36 40.9142C385.365 40.8849 385.385 40.8785 385.414 40.8703C385.485 40.8607 385.546 40.846 385.614 40.8346C385.736 40.8054 385.78 40.7562 385.784 40.6299L385.798 40.2204V39.0212C385.798 38.9334 385.764 38.8799 385.686 38.8407C385.599 38.7918 385.506 38.7579 385.408 38.7237C385.379 38.7141 385.35 38.7041 385.325 38.6894C385.262 38.6456 385.254 38.5824 385.316 38.5336C385.344 38.5108 385.378 38.4971 385.413 38.4943C385.725 38.4455 386.027 38.3773 386.32 38.2603C386.354 38.2461 386.369 38.2553 386.383 38.2846C386.398 38.3138 386.403 38.3481 386.398 38.382L386.383 38.611C386.383 38.6402 386.369 38.6823 386.393 38.6937C386.422 38.7133 386.442 38.6695 386.466 38.6581C386.61 38.5373 386.769 38.4358 386.939 38.3559C387.09 38.2846 387.246 38.2389 387.422 38.2489C387.749 38.2685 387.983 38.4344 388.133 38.7219C388.212 38.8731 388.245 39.0387 388.26 39.2095L388.274 39.5662L388.279 40.6434C388.284 40.7262 388.314 40.7801 388.396 40.8093C388.482 40.8379 388.57 40.8591 388.66 40.8728C388.738 40.8824 388.742 40.8971 388.747 40.9702V40.9944C388.738 41.1603 388.728 41.1649 388.562 41.155C388.198 41.1355 387.834 41.1355 387.47 41.155C387.421 41.1599 387.373 41.155 387.327 41.1599C387.298 41.1599 387.278 41.155 387.274 41.1257C387.264 41.0622 387.254 40.9991 387.269 40.9306C387.274 40.9013 387.288 40.8867 387.322 40.8817L387.547 40.846C387.625 40.8264 387.669 40.7747 387.679 40.7034L387.689 40.5668L387.684 39.548C387.684 39.431 387.679 39.314 387.654 39.197C387.596 38.9473 387.406 38.769 387.148 38.744C386.923 38.7198 386.72 38.7783 386.534 38.8999C386.441 38.9584 386.402 39.0412 386.402 39.1435V39.8798C386.402 39.8655 386.402 39.8655 386.407 39.8655L386.4 39.8559Z" fill="#ABAFBA"/>
<path d="M400.677 38.4763C400.623 38.1203 400.492 37.8035 400.263 37.5257C400.063 37.2802 399.805 37.0891 399.512 36.9699C399.205 36.8433 398.878 36.8041 398.546 36.7944C398.41 36.7894 396.548 36.8187 396.411 36.7944C396.377 36.7894 396.353 36.7994 396.333 36.8287C396.308 36.8644 396.284 36.9018 396.269 36.9407C396.211 37.0727 396.211 37.0627 396.352 37.0819C396.469 37.1016 396.581 37.1112 396.693 37.1454C396.796 37.1797 396.869 37.2382 396.893 37.3502C396.903 37.4037 396.913 39.1194 396.913 39.9191L396.893 40.4898C396.888 40.5337 396.883 40.5776 396.869 40.6165C396.849 40.675 396.815 40.7235 396.757 40.7484C396.692 40.7787 396.623 40.7969 396.552 40.802C396.42 40.8162 396.401 40.8216 396.357 40.9678L396.343 41.0213C396.333 41.0848 396.338 41.0944 396.401 41.0944L397.859 41.1087L398.429 41.0991L398.824 41.0502C399.273 40.9675 399.673 40.782 400.014 40.4848C400.208 40.3128 400.367 40.1041 400.482 39.8706C400.618 39.5977 400.677 39.2999 400.691 38.9981C400.716 38.8276 400.706 38.6521 400.677 38.4766V38.4763ZM399.97 39.1683C399.95 39.4804 399.887 39.7825 399.726 40.0554C399.522 40.4114 399.229 40.66 398.825 40.7474C398.649 40.783 398.474 40.8009 398.29 40.7766C398.158 40.7624 398.031 40.7474 397.909 40.7035C397.69 40.625 397.612 40.4895 397.607 40.2755L397.602 37.3363C397.602 37.1608 397.681 37.1222 397.807 37.1169C397.997 37.1026 398.192 37.1073 398.382 37.1265C398.585 37.1461 398.783 37.1941 398.972 37.2692C399.113 37.3277 399.243 37.4084 399.358 37.5082C399.621 37.7329 399.796 38.0147 399.893 38.3464C399.971 38.6147 399.985 38.8876 399.971 39.1604L399.97 39.1683ZM404.728 39.6462C404.728 39.617 404.728 39.5927 404.723 39.5635C404.68 39.2953 404.538 39.0905 404.319 38.9346C404.178 38.8323 404.017 38.7641 403.851 38.7153C403.822 38.7056 403.797 38.6956 403.768 38.691C403.773 38.6668 403.788 38.6618 403.802 38.6568C403.9 38.6079 403.993 38.5544 404.075 38.4813C404.226 38.3546 404.325 38.1984 404.377 38.0083C404.407 37.9059 404.407 37.8035 404.397 37.6962C404.389 37.5706 404.353 37.4484 404.291 37.3387C404.23 37.2289 404.144 37.1345 404.041 37.0623C403.816 36.8965 403.553 36.8283 403.281 36.8233C402.754 36.8137 402.223 36.8233 401.697 36.8233C401.546 36.8233 401.395 36.833 401.238 36.8091C401.209 36.8041 401.167 36.7948 401.146 36.8287C401.11 36.8922 401.067 36.9553 401.053 37.0284C401.048 37.0627 401.058 37.0819 401.097 37.0869L401.433 37.1358C401.565 37.1554 401.658 37.2285 401.667 37.3455C401.677 37.4264 401.682 37.5077 401.681 37.5892L401.672 38.5005L401.667 40.304C401.667 40.411 401.653 40.5137 401.633 40.6207C401.628 40.6547 401.613 40.6866 401.591 40.7125C401.568 40.7385 401.539 40.7574 401.506 40.767C401.409 40.7962 401.316 40.8255 401.213 40.8255C401.186 40.8229 401.159 40.8297 401.136 40.8447C401.113 40.8597 401.095 40.8821 401.087 40.9082C401.067 40.9521 401.051 41.001 401.043 41.0449C401.033 41.1034 401.048 41.1233 401.106 41.1162C401.15 41.1112 402.759 41.1504 403.061 41.1212C403.242 41.1016 403.418 41.0773 403.597 41.0238C403.904 40.9264 404.187 40.7848 404.411 40.5458C404.597 40.3507 404.704 40.1167 404.713 39.8439C404.728 39.7804 404.728 39.7172 404.728 39.6487L404.728 39.6462ZM402.364 37.6487L402.378 37.2589C402.378 37.1857 402.408 37.1519 402.481 37.1369C402.598 37.1126 402.715 37.1226 402.832 37.1272C402.949 37.1369 403.061 37.1515 403.178 37.1857C403.392 37.2492 403.558 37.3712 403.656 37.5756C403.7 37.6685 403.723 37.7701 403.724 37.8731C403.729 38.0097 403.719 38.1413 403.665 38.2726C403.583 38.4531 403.451 38.5701 403.261 38.6043C403.07 38.6386 402.53 38.624 402.447 38.624C402.374 38.624 402.368 38.6143 402.368 38.5412V38.0821C402.357 37.9394 402.355 37.796 402.363 37.653L402.364 37.6487ZM403.948 40.2712C403.865 40.4906 403.714 40.6422 403.5 40.7242C403.383 40.7681 403.266 40.7955 403.143 40.7877C402.992 40.7827 402.841 40.7877 402.69 40.7584C402.485 40.7146 402.392 40.5194 402.378 40.3782C402.353 40.1296 402.368 39.876 402.363 39.6908V39.0474C402.363 38.9689 402.373 38.945 402.456 38.945L402.915 38.95L403.227 38.9856C403.446 39.0345 403.646 39.1176 403.802 39.2878C403.929 39.4244 403.997 39.5899 404.012 39.7704C404.026 39.9409 404.017 40.1067 403.953 40.2676L403.948 40.2712Z" fill="#E3E4E8"/>
<path d="M391.563 38.8027L391.69 38.8223C391.826 38.8273 391.987 38.7784 392.036 38.5883C392.063 38.4975 392.063 38.4009 392.036 38.3101C392.007 38.3101 391.992 38.3344 391.977 38.3443C391.904 38.4028 391.821 38.4371 391.734 38.4467C391.558 38.4663 391.383 38.4563 391.212 38.3932L390.973 38.3105C390.807 38.2559 390.631 38.2329 390.456 38.2427C390.207 38.2623 389.973 38.3451 389.754 38.462C389.52 38.5887 389.354 38.7788 389.276 39.0374C389.232 39.1886 389.227 39.3442 389.247 39.5004C389.296 39.8564 389.481 40.105 389.812 40.2366C389.832 40.2416 389.846 40.2509 389.866 40.2562C389.91 40.2805 389.915 40.3051 389.875 40.339L389.753 40.4218L389.461 40.6022C389.388 40.6461 389.378 40.6807 389.402 40.7581C389.431 40.8492 389.485 40.9303 389.558 40.9921C389.625 41.0495 389.701 41.0956 389.783 41.1287C389.836 41.153 389.836 41.1644 389.788 41.2072L389.509 41.407C389.417 41.4783 389.324 41.5496 389.246 41.6409C389.192 41.6988 389.153 41.7691 389.133 41.8457C389.112 41.9222 389.111 42.0026 389.129 42.0797C389.165 42.2489 389.254 42.4024 389.382 42.5184C389.509 42.6358 389.663 42.7196 389.831 42.7621C390.104 42.8405 390.386 42.8448 390.664 42.7913C391.064 42.7182 391.413 42.5416 391.688 42.2406C391.878 42.0408 391.99 41.8068 392 41.5272C392.011 41.3654 391.964 41.2052 391.867 41.0749C391.771 40.9446 391.631 40.8527 391.474 40.8155L391.21 40.7667L390.406 40.6953C390.318 40.6903 390.231 40.6757 390.157 40.6318C390.065 40.5733 390.04 40.4613 390.099 40.3882C390.143 40.3347 390.196 40.3005 390.265 40.2955L390.421 40.2812C390.729 40.2499 391.018 40.118 391.244 39.906C391.365 39.7943 391.451 39.6505 391.493 39.4915C391.551 39.2817 391.551 39.0634 391.503 38.8494C391.488 38.7959 391.493 38.7909 391.561 38.8006L391.563 38.8027ZM390.368 41.2307C390.397 41.2357 390.427 41.2307 390.456 41.2307C390.661 41.2404 390.87 41.255 391.07 41.3092C391.135 41.3285 391.199 41.3529 391.26 41.3823C391.455 41.4894 391.529 41.6748 391.504 41.8746C391.475 42.094 391.353 42.2498 391.163 42.3526C391.036 42.4239 390.894 42.4549 390.748 42.4696C390.695 42.4746 390.646 42.4696 390.592 42.4696C390.422 42.4746 390.256 42.4553 390.095 42.3868C389.983 42.3429 389.89 42.2798 389.807 42.1917C389.637 42.0212 389.558 41.7091 389.812 41.4555C389.968 41.3128 390.144 41.2118 390.368 41.2307ZM390.924 39.7098C390.822 39.968 390.597 40.0461 390.373 40.0119C390.168 39.9827 390.017 39.8707 389.92 39.6852C389.794 39.4366 389.76 39.1787 389.832 38.9101C389.886 38.7103 390.008 38.5591 390.222 38.5248C390.495 38.476 390.757 38.5737 390.895 38.8466C390.966 38.9785 390.997 39.1391 390.997 39.3681C390.992 39.4608 390.973 39.5874 390.924 39.7094L390.924 39.7098ZM384.782 39.3781C384.738 39.1148 384.641 38.8758 384.461 38.6761C384.192 38.3786 383.851 38.248 383.466 38.247C383.13 38.242 382.813 38.3397 382.53 38.5152C382.252 38.6818 382.048 38.9487 381.96 39.2611C381.877 39.5439 381.881 39.8318 381.946 40.1189C382.116 40.8894 382.711 41.2204 383.422 41.1719C383.632 41.1576 383.832 41.0891 384.021 40.9964C384.304 40.8644 384.509 40.655 384.65 40.3772C384.762 40.1482 384.811 39.9042 384.806 39.6263L384.782 39.3777L384.782 39.3781ZM384.09 40.4603C384.055 40.57 383.989 40.6671 383.9 40.7398C383.811 40.8125 383.703 40.8577 383.588 40.8698C383.374 40.899 383.174 40.8455 382.993 40.7185C382.863 40.6229 382.758 40.4975 382.686 40.3529C382.487 39.9434 382.452 39.5147 382.554 39.0759C382.587 38.9401 382.658 38.8166 382.759 38.7199C382.94 38.5541 383.149 38.5152 383.383 38.5641C383.608 38.6129 383.778 38.7346 383.918 38.9201C384.059 39.1055 384.123 39.3196 384.162 39.5443C384.182 39.6563 384.182 39.7733 384.186 39.8464C384.186 40.0804 384.167 40.2744 384.094 40.4606L384.09 40.4603ZM395.433 39.4173C395.398 39.1344 395.292 38.8762 395.092 38.6618C394.829 38.3743 394.487 38.2523 394.108 38.2473C393.781 38.2423 393.479 38.3351 393.201 38.4959C392.889 38.6814 392.674 38.9443 392.592 39.3003C392.493 39.6887 392.534 40.0995 392.709 40.4603C392.869 40.8016 393.142 41.021 393.503 41.1184C393.903 41.2254 394.283 41.1769 394.654 40.9964C394.975 40.8405 395.204 40.5969 395.336 40.2652C395.414 40.07 395.443 39.8607 395.448 39.6167C395.453 39.5728 395.443 39.4947 395.434 39.4169L395.433 39.4173ZM394.761 40.3971C394.682 40.6604 394.517 40.8309 394.239 40.8701C394.034 40.8994 393.84 40.8505 393.664 40.7335C393.513 40.6311 393.406 40.4945 393.327 40.334C393.24 40.1635 393.191 39.983 393.172 39.7979C393.142 39.5689 393.142 39.3449 393.196 39.1155C393.206 39.0703 393.221 39.0262 393.24 38.9839C393.376 38.6425 393.678 38.4867 394.034 38.5648C394.273 38.6183 394.453 38.7503 394.59 38.95C394.722 39.1451 394.785 39.3595 394.815 39.5921C394.829 39.6848 394.834 39.7822 394.829 39.8649C394.829 40.0551 394.815 40.2306 394.758 40.4011L394.761 40.3971Z" fill="#ABAFBA"/>
<rect x="434.153" width="77.8469" height="77.8469" rx="3.14388" fill="#2D2D3C"/>
<path d="M481.218 34.783C481.418 37.1171 477.744 39.3385 473.013 39.7446C468.282 40.1507 464.283 38.5871 464.083 36.2531C463.883 33.9177 467.556 31.6963 472.288 31.2915C477.021 30.8854 481.018 32.449 481.218 34.783Z" fill="#B9E5FB"/>
<path opacity="0.35" d="M472.426 31.5646C470.621 31.5355 468.51 32.2515 466.937 32.9233C466.774 33.3951 466.686 33.8961 466.686 34.416C466.686 37.1853 469.185 39.4295 472.27 39.4295C475.354 39.4295 477.855 37.184 477.855 34.416C477.855 33.5393 477.604 32.7158 477.164 31.9998C475.907 31.8049 474.177 31.5937 472.426 31.5658V31.5646Z" fill="#EFF1F4" fill-opacity="0.7"/>
<path d="M472.27 31.562C471.27 31.5012 469.549 32.0225 468.111 32.5424C467.894 33.0573 467.772 33.6215 467.772 34.2123C467.772 36.6387 469.972 38.6058 472.299 38.6058C474.625 38.6058 476.656 36.6361 476.825 34.2123C476.881 33.4229 476.609 32.6803 476.232 32.0389C474.743 31.777 473.163 31.6164 472.27 31.562Z" fill="#EFF1F4" fill-opacity="0.7"/>
<path d="M469.706 33.8935C469.829 33.6215 470.015 33.4887 470.194 33.261C470.174 33.2066 470.131 33.0307 470.131 32.97C470.131 32.6967 470.352 32.4753 470.626 32.4753C470.69 32.4753 470.751 32.488 470.808 32.5108C471.625 31.8871 472.703 31.6164 473.785 31.858C473.883 31.8808 473.981 31.9073 474.075 31.9364C473.007 31.7884 471.801 32.1667 470.981 32.8283C471.006 32.8878 471.076 33.056 471.076 33.1243C471.076 33.3976 470.899 33.4634 470.627 33.4634C470.565 33.4634 470.505 33.4507 470.451 33.4305C470.266 33.6797 470.039 34.1528 469.927 34.4488C470.38 34.8549 470.79 35.0017 471.324 35.2003C471.323 35.175 471.343 35.151 471.343 35.1257C471.343 34.3034 472.067 33.6341 472.89 33.6341C473.628 33.6341 474.237 34.1705 474.358 34.8739C474.726 34.6399 475.081 34.4602 475.352 34.1136C475.289 34.0364 475.22 33.8176 475.22 33.71C475.22 33.4621 475.422 33.2622 475.668 33.2622C475.704 33.2622 475.737 33.2673 475.769 33.2749C475.907 32.9915 476.011 32.6917 476.077 32.383C474.79 31.4304 472.301 31.5607 472.301 31.5607C472.301 31.5607 470.319 31.457 468.979 32.111C469.068 32.7575 469.326 33.3723 469.706 33.8922V33.8935Z" fill="#221E1F"/>
<path d="M475.855 33.5234C475.946 33.6056 475.996 33.6777 476.035 33.7473C476.155 33.9636 475.913 34.1622 475.667 34.1622C475.641 34.1622 475.617 34.1585 475.593 34.1547C475.314 34.5911 474.826 35.149 474.392 35.4311C475.057 35.5399 475.685 35.8068 476.184 36.2192C476.547 35.5677 476.827 34.6265 476.827 33.827C476.827 33.2185 476.559 32.7732 476.153 32.4456C476.131 32.7719 475.958 33.2274 475.855 33.5247V33.5234Z" fill="#221E1F"/>
<path d="M470.452 37.6502C470.674 37.0379 471.22 36.5635 471.735 36.146C471.659 36.0423 471.546 35.7867 471.498 35.6653C470.87 35.4743 470.312 35.115 469.88 34.6418C469.877 34.6558 469.873 34.6684 469.87 34.6823C469.789 35.0467 469.774 35.4123 469.815 35.7678C470.116 35.8234 470.345 36.0878 470.345 36.4053C470.345 36.5938 470.18 36.8671 470.051 36.986C470.19 37.2871 470.285 37.4313 470.452 37.6502Z" fill="#221E1F"/>
<path d="M470.413 38.1654C470.149 37.9023 469.965 37.3773 469.794 37.0484C469.762 37.0534 469.729 37.0572 469.696 37.0572C469.336 37.0572 468.961 36.7561 469.047 36.4082C469.094 36.216 469.226 36.0894 469.444 35.9844C469.395 35.5847 469.381 35.0116 469.474 34.5954C469.501 34.4765 469.557 34.4208 469.595 34.3082C469.199 33.7288 468.943 32.9685 468.943 32.2146C468.943 32.1867 468.943 32.1602 468.946 32.1323C468.276 32.4676 467.775 32.9964 467.775 33.8288C467.775 35.6694 468.836 37.4747 470.413 38.1819C470.413 38.1768 470.416 38.1717 470.417 38.1667L470.413 38.1654Z" fill="#221E1F"/>
<path d="M474.291 35.6191C474.088 36.1985 473.536 36.6147 472.887 36.6147C472.539 36.6147 472.22 36.4946 471.967 36.296C471.445 36.702 470.972 37.4168 470.731 38.0367C470.839 38.1531 470.915 38.2492 471.036 38.3517C471.402 38.4466 471.904 38.3517 472.3 38.3517C473.89 38.3517 475.298 37.6445 476.107 36.4035C475.57 36.0316 474.937 35.6773 474.293 35.6191H474.291Z" fill="#221E1F"/>
<path d="M469.666 34.1097C469.789 33.8378 469.942 33.5873 470.123 33.3596C470.103 33.3052 470.091 33.2482 470.091 33.1863C470.091 32.913 470.313 32.6916 470.586 32.6916C470.65 32.6916 470.711 32.7043 470.768 32.727C471.585 32.1034 472.663 31.8314 473.745 32.0743C473.843 32.097 473.941 32.1236 474.036 32.1527C472.967 32.0047 471.861 32.3323 471.041 32.994C471.067 33.0534 471.081 33.1179 471.081 33.1863C471.081 33.4595 470.859 33.6809 470.586 33.6809C470.524 33.6809 470.464 33.6695 470.41 33.648C470.225 33.8972 470.074 34.1717 469.962 34.4678C470.352 34.8878 470.83 35.2192 471.363 35.4191C471.363 35.3938 471.359 35.3685 471.359 35.3419C471.359 34.5196 472.026 33.8517 472.849 33.8517C473.587 33.8517 474.196 34.3881 474.317 35.0914C474.685 34.8574 475.011 34.5563 475.282 34.2097C475.219 34.1325 475.179 34.0351 475.179 33.9276C475.179 33.6796 475.381 33.4797 475.627 33.4797C475.663 33.4797 475.696 33.4848 475.728 33.4924C475.866 33.209 475.97 32.9092 476.036 32.6005C474.749 31.6479 472.26 31.7782 472.26 31.7782C472.26 31.7782 470.278 31.6745 468.938 32.3285C469.027 32.975 469.285 33.5898 469.665 34.1097H469.666Z" fill="#0082AF"/>
<path d="M475.926 33.5961C476.017 33.6783 476.075 33.796 476.075 33.9276C476.075 34.1755 475.874 34.3754 475.627 34.3754C475.602 34.3754 475.578 34.3716 475.554 34.3678C475.275 34.8042 474.905 35.1749 474.471 35.457C475.112 35.557 475.717 35.8302 476.215 36.2414C476.578 35.5898 476.787 34.8397 476.787 34.0401C476.787 33.4316 476.519 32.9863 476.113 32.6587C476.091 32.9851 476.028 33.2988 475.926 33.5961Z" fill="#0082AF"/>
<path d="M470.522 37.7972C470.743 37.1849 471.129 36.6346 471.645 36.2184C471.569 36.1147 471.507 36.0021 471.46 35.8806C470.832 35.6896 470.274 35.3316 469.842 34.8572C469.838 34.8711 469.835 34.8837 469.832 34.8977C469.751 35.262 469.736 35.6276 469.776 35.9831C470.078 36.04 470.307 36.3031 470.307 36.6207C470.307 36.8092 470.226 36.9787 470.098 37.0976C470.214 37.3443 470.357 37.5783 470.524 37.7972H470.522Z" fill="#0082AF"/>
<path d="M470.412 38.1557C470.148 37.8926 469.925 37.5903 469.754 37.2613C469.722 37.2664 469.689 37.2689 469.656 37.2689C469.296 37.2689 469.007 36.978 469.007 36.62C469.007 36.3631 469.157 36.1405 469.374 36.0355C469.324 35.6357 469.341 35.2221 469.434 34.8071C469.461 34.6882 469.493 34.5718 469.53 34.4592C469.135 33.8798 468.903 33.1802 468.903 32.425C468.903 32.3972 468.903 32.3706 468.906 32.3428C468.236 32.678 467.735 33.2068 467.735 34.0392C467.735 35.8799 468.835 37.4625 470.411 38.1697C470.411 38.1646 470.414 38.1595 470.415 38.1545L470.412 38.1557Z" fill="#0082AF"/>
<path d="M474.252 35.8345C474.048 36.4139 473.496 36.8301 472.847 36.8301C472.5 36.8301 472.181 36.7099 471.928 36.5113C471.405 36.9174 471.012 37.4727 470.771 38.0913C470.879 38.2077 470.995 38.3178 471.116 38.4203C471.481 38.5151 471.865 38.5657 472.259 38.5657C473.849 38.5657 475.247 37.7447 476.054 36.505C475.518 36.133 474.894 35.8927 474.25 35.8345H474.252Z" fill="#0082AF"/>
<g style="mix-blend-mode:soft-light">
<path d="M474.303 35.4522L475.68 35.1246L474.298 35.0537L475.423 34.1948L474.146 34.6515L475.014 33.4509L473.816 34.2466L474.235 32.8399L473.413 33.9987L473.394 32.5337L472.854 33.8393L472.402 32.5186L472.426 34.0746L471.647 32.6792L472.068 34.1606L470.804 33.2409L471.795 34.4857L470.225 33.9076L471.463 34.8248L469.874 34.8741L471.499 35.2928L469.873 35.6445L471.478 35.7609L470.125 36.6275L471.519 36.1227L470.551 37.3473L471.773 36.3618L471.333 38.0051L472.277 36.668L472.145 38.2468L472.68 36.8147L473.136 38.3201L473.247 36.8109L473.924 38.0988L473.524 36.625L474.763 37.5851L473.963 36.3618L475.322 36.8906L474.283 35.8697L475.676 35.9798L474.303 35.4522Z" fill="#EFF1F4" fill-opacity="0.7"/>
</g>
<path opacity="0.35" d="M459.651 38.0843C463.92 33.816 467.329 32.4978 470.423 31.8969C470.833 31.8172 470.91 30.9228 470.91 30.9228C470.91 30.9228 470.967 31.5819 471.255 31.6679C471.541 31.7539 471.914 30.6369 471.914 30.6369C471.914 30.6369 471.57 31.6401 471.914 31.697C472.258 31.7539 472.888 30.7229 472.888 30.7229C472.888 30.7229 472.63 31.611 472.802 31.6679C472.974 31.7248 473.833 30.3788 473.833 30.3788C473.833 30.3788 473.317 31.2669 473.804 31.3529C474.291 31.4389 475.002 30.7469 475.002 30.7469C475.002 30.7469 474.443 31.3795 474.692 31.468C475.752 31.8399 476.61 30.4623 476.61 30.4623C476.61 30.4623 476.411 31.067 475.895 31.7248C477.012 32.0107 477.842 30.3282 477.842 30.3282L477.012 32.0107C477.442 32.2397 479.16 30.2637 479.16 30.2637C479.16 30.2637 478.272 31.8108 477.756 32.1258C478.042 32.3548 479.074 31.4389 479.074 31.4389C479.074 31.4389 478.243 32.4699 478.558 32.5269C479.016 32.8988 480.706 30.6078 480.706 30.6078C480.706 30.6078 480.047 31.9538 479.073 33.0139C479.887 33.4213 481.909 30.8076 481.909 30.8076C481.909 30.8076 481.852 31.6388 480.391 32.9557C481.48 32.8128 482.883 30.7495 482.883 30.7495C482.883 30.7495 482.367 32.2966 481.136 33.3846C482.205 33.2733 483.914 30.6343 483.914 30.6343C483.914 30.6343 483.255 32.4674 481.909 33.5275C483.399 33.8565 485.547 31.6363 485.547 31.6363C485.547 31.6363 484.702 33.2125 483.599 33.8565C484.831 34.3296 486.521 32.3814 486.521 32.3814C486.521 32.3814 484.831 34.9887 482.139 34.8736C481.256 34.8356 478.583 32.1929 472.857 32.4105C465.295 32.6989 463.691 35.9071 459.651 38.0843Z" fill="black"/>
<path d="M459.827 37.7615C464.095 33.4932 467.504 32.175 470.598 31.5741C471.008 31.4944 471.085 30.6 471.085 30.6C471.085 30.6 471.142 31.2591 471.429 31.3451C471.715 31.4312 472.088 30.3141 472.088 30.3141C472.088 30.3141 471.744 31.3173 472.088 31.3742C472.432 31.4312 473.062 30.4001 473.062 30.4001C473.062 30.4001 472.804 31.2882 472.976 31.3451C473.148 31.4021 474.007 30.056 474.007 30.056C474.007 30.056 473.491 30.9441 473.978 31.0301C474.465 31.1162 475.176 30.4242 475.176 30.4242C475.176 30.4242 474.617 31.0567 474.866 31.1453C475.926 31.5172 476.784 30.1395 476.784 30.1395C476.784 30.1395 476.586 30.7442 476.071 31.4021C477.188 31.688 478.018 30.0054 478.018 30.0054L477.188 31.688C477.618 31.9169 479.336 29.9409 479.336 29.9409C479.336 29.9409 478.448 31.4881 477.933 31.8031C478.219 32.0321 479.251 31.1162 479.251 31.1162C479.251 31.1162 478.42 32.1472 478.735 32.2041C479.193 32.576 480.883 30.285 480.883 30.285C480.883 30.285 480.224 31.631 479.25 32.6912C480.064 33.0985 482.086 30.4849 482.086 30.4849C482.086 30.4849 482.029 31.316 480.568 32.633C481.657 32.49 483.06 30.4267 483.06 30.4267C483.06 30.4267 482.544 31.9739 481.313 33.0618C482.382 32.9505 484.091 30.3116 484.091 30.3116C484.091 30.3116 483.432 32.1447 482.086 33.2048C483.576 33.5337 485.724 31.3148 485.724 31.3148C485.724 31.3148 484.879 32.8898 483.776 33.535C485.008 34.0081 486.699 32.0599 486.699 32.0599C486.699 32.0599 485.008 34.6672 482.315 34.5521C481.432 34.5141 478.759 31.8714 473.033 32.089C465.469 32.3762 463.865 35.5844 459.827 37.7615Z" fill="#EFF1F4" fill-opacity="0.7"/>
<path opacity="0.35" d="M459.541 38.5524C461.797 39.6847 463.86 38.3804 466.46 39.1129C468.436 39.6695 470.842 40.3564 474.108 39.8845C477.373 39.4127 480.167 37.9945 481.499 35.4594C481.914 34.3284 483.604 35.7174 483.604 35.7174C483.604 35.7174 482.372 35.2013 482.401 35.4454C482.43 35.6896 484.249 36.5347 484.249 36.5347C484.249 36.5347 482.602 36.0185 482.702 36.4056C482.802 36.7927 484.764 38.3399 484.764 38.3399C484.764 38.3399 482.544 36.6498 482.358 36.8788C482.172 37.1077 483.303 38.0388 483.303 38.0388C483.303 38.0388 481.427 36.8788 480.768 37.2203C480.293 37.4657 482.716 39.0559 482.716 39.0559C482.716 39.0559 481.14 37.8529 480.768 38.1679C480.396 38.4829 482.544 41.0611 482.544 41.0611C482.544 41.0611 480.109 38.4259 479.866 38.555C479.621 38.684 480.539 39.944 480.539 39.944C480.539 39.944 479.336 38.6258 479.007 38.8548C478.678 39.0838 480.726 42.507 480.726 42.507C480.726 42.507 478.506 38.9977 477.59 39.5847C479.029 42.7436 478.492 43.194 478.492 43.194C478.492 43.194 478.308 39.9718 476.516 40.0566C475.614 40.0996 476.946 42.4628 476.946 42.4628C476.946 42.4628 475.72 40.3046 474.904 40.3476C476.408 43.1952 475.872 44.354 475.872 44.354C475.872 44.354 476.121 41.9213 474.079 40.5677C474.852 41.2546 473.593 44.354 473.593 44.354C473.593 44.354 474.7 39.7884 472.776 40.6588C472.473 40.7967 472.755 42.9359 472.755 42.9359C472.755 42.9359 472.368 40.4867 471.788 40.6158C471.45 40.6904 469.64 44.0099 469.64 44.0099C469.64 44.0099 471.123 40.4222 470.671 40.5727C470.342 40.6828 469.726 42.1629 469.726 42.1629C469.726 42.1629 470.027 40.7018 469.726 40.6158C469.425 40.5297 467.75 42.1629 467.75 42.1629C467.75 42.1629 468.996 40.7018 468.781 40.4007C468.456 39.9453 468.074 39.9238 467.621 40.0996C466.962 40.3564 466.074 41.5608 466.074 41.5608C466.074 41.5608 466.959 40.3412 466.804 39.8845C466.556 39.1508 464.011 41.3027 464.011 41.3027C464.011 41.3027 465.515 39.8846 465.171 39.5835C464.826 39.2824 462.961 39.376 462.377 39.3735C460.658 39.3684 460.063 38.9648 459.541 38.5512V38.5524Z" fill="black"/>
<path d="M459.454 38.294C461.71 39.4262 463.773 38.1219 466.373 38.8544C468.349 39.411 470.756 40.0979 474.021 39.6261C477.287 39.1529 480.08 37.7348 481.412 35.2009C481.827 34.0686 483.517 35.4589 483.517 35.4589C483.517 35.4589 482.285 34.9428 482.314 35.187C482.343 35.4299 484.162 36.2749 484.162 36.2749C484.162 36.2749 482.515 35.76 482.615 36.1459C482.715 36.533 484.677 38.0789 484.677 38.0789C484.677 38.0789 482.457 36.3888 482.271 36.6177C482.085 36.8467 483.216 37.7778 483.216 37.7778C483.216 37.7778 481.34 36.6177 480.681 36.9593C480.206 37.2047 482.629 38.7949 482.629 38.7949C482.629 38.7949 481.053 37.5918 480.681 37.9068C480.309 38.2218 482.457 40.8001 482.457 40.8001C482.457 40.8001 480.022 38.1649 479.779 38.294C479.536 38.423 480.452 39.683 480.452 39.683C480.452 39.683 479.249 38.3648 478.918 38.5938C478.59 38.8228 480.638 42.246 480.638 42.246C480.638 42.246 478.418 38.7367 477.502 39.3237C478.941 42.4813 478.404 42.933 478.404 42.933C478.404 42.933 478.22 39.7108 476.428 39.7956C475.526 39.8386 476.858 42.2017 476.858 42.2017C476.858 42.2017 475.632 40.0435 474.816 40.0866C476.321 42.9342 475.784 44.093 475.784 44.093C475.784 44.093 476.033 41.6603 473.991 40.3067C474.764 40.9936 473.505 44.093 473.505 44.093C473.505 44.093 474.612 39.5274 472.689 40.3978C472.386 40.5357 472.668 42.6749 472.668 42.6749C472.668 42.6749 472.281 40.2257 471.701 40.3547C471.363 40.4294 469.553 43.7489 469.553 43.7489C469.553 43.7489 471.036 40.1612 470.584 40.3117C470.255 40.4218 469.639 41.9019 469.639 41.9019C469.639 41.9019 469.94 40.4408 469.639 40.3547C469.338 40.2687 467.663 41.9019 467.663 41.9019C467.663 41.9019 468.909 40.4408 468.694 40.1397C468.369 39.6843 467.987 39.6628 467.534 39.8386C466.875 40.0954 465.987 41.2998 465.987 41.2998C465.987 41.2998 466.872 40.0802 466.717 39.6235C466.469 38.8898 463.924 41.0417 463.924 41.0417C463.924 41.0417 465.428 39.6235 465.084 39.3225C464.74 39.0214 462.874 39.115 462.29 39.1125C460.571 39.1074 459.977 38.7038 459.454 38.2902V38.294Z" fill="#EFF1F4" fill-opacity="0.7"/>
<path d="M462.32 45.0733C462.55 45.0733 462.769 45.1277 462.879 45.2377C462.896 45.4073 462.745 45.6805 462.648 45.6805C462.533 45.6375 462.423 45.6135 462.29 45.6135C461.738 45.6135 461.464 46.184 461.464 46.7495C461.464 47.1012 461.586 47.3137 461.865 47.3137C462.163 47.3137 462.466 47.1138 462.637 46.9608C462.68 46.9911 462.735 47.0885 462.735 47.1973C462.735 47.3188 462.698 47.4339 462.589 47.544C462.394 47.7388 462.067 47.902 461.593 47.902C461.047 47.902 460.67 47.592 460.67 46.8697C460.67 45.9221 461.295 45.072 462.316 45.072H462.322L462.32 45.0733Z" fill="#EFF1F4" fill-opacity="0.7"/>
<path d="M463.127 47.0101C463.127 46.6521 463.249 46.0259 463.704 45.5705C464.092 45.1694 464.567 45.072 464.997 45.072C465.283 45.072 465.671 45.1631 465.914 45.2124C465.853 45.4794 465.708 46.4876 465.641 47.0708C465.611 47.32 465.598 47.6654 465.611 47.7932C465.411 47.8779 465.034 47.9032 464.93 47.9032C464.876 47.9032 464.863 47.654 464.882 47.4175C464.888 47.339 464.9 47.2226 464.906 47.1746C464.669 47.5693 464.201 47.9032 463.709 47.9032C463.357 47.9032 463.126 47.6123 463.126 47.0164V47.0101H463.127ZM464.105 47.2834C464.402 47.2834 464.943 46.7609 465.094 45.7653C465.101 45.7046 465.107 45.6868 465.118 45.6261C465.051 45.6021 464.96 45.5831 464.869 45.5831C464.644 45.5831 464.414 45.6502 464.208 45.9297C463.995 46.227 463.904 46.5977 463.904 46.895C463.904 47.1505 463.977 47.2834 464.099 47.2834H464.105Z" fill="#EFF1F4" fill-opacity="0.7"/>
<path d="M467.427 45.072C467.676 45.072 467.913 45.1631 468.021 45.2782C468.015 45.4477 467.882 45.7337 467.668 45.6552C467.577 45.6249 467.486 45.6008 467.365 45.6008C467.202 45.6008 467.061 45.6742 467.061 45.826C467.061 45.9411 467.146 46.0259 467.553 46.3118C467.844 46.5243 467.961 46.7128 467.961 46.9797C467.961 47.4225 467.542 47.9032 466.813 47.9032C466.516 47.9032 466.254 47.7881 466.169 47.6667C466.06 47.4845 466.145 47.1265 466.267 47.1872C466.425 47.2656 466.685 47.3517 466.898 47.3517C467.098 47.3517 467.226 47.2606 467.226 47.1391C467.226 47.0354 467.135 46.9443 466.764 46.6837C466.454 46.4535 466.357 46.2409 466.357 45.998C466.357 45.4946 466.788 45.0746 467.419 45.0746H467.425L467.427 45.072Z" fill="#EFF1F4" fill-opacity="0.7"/>
<path d="M469.521 45.072C469.771 45.072 470.007 45.1631 470.116 45.2782C470.11 45.4477 469.977 45.7337 469.764 45.6552C469.673 45.6249 469.582 45.6008 469.461 45.6008C469.296 45.6008 469.157 45.6742 469.157 45.826C469.157 45.9411 469.242 46.0259 469.649 46.3118C469.94 46.5243 470.055 46.7128 470.055 46.9797C470.055 47.4225 469.637 47.9032 468.908 47.9032C468.611 47.9032 468.349 47.7881 468.264 47.6667C468.155 47.4845 468.24 47.1265 468.361 47.1872C468.52 47.2656 468.78 47.3517 468.993 47.3517C469.193 47.3517 469.32 47.2606 469.32 47.1391C469.32 47.0354 469.229 46.9443 468.859 46.6837C468.549 46.4535 468.451 46.2409 468.451 45.998C468.451 45.4946 468.883 45.0746 469.514 45.0746H469.52L469.521 45.072Z" fill="#EFF1F4" fill-opacity="0.7"/>
<path d="M470.456 47.0101C470.456 46.6521 470.578 46.0259 471.033 45.5705C471.422 45.1694 471.896 45.072 472.326 45.072C472.612 45.072 473 45.1631 473.243 45.2124C473.183 45.4794 473.037 46.4876 472.97 47.0708C472.94 47.32 472.927 47.6654 472.94 47.7932C472.74 47.8779 472.363 47.9032 472.259 47.9032C472.205 47.9032 472.192 47.654 472.211 47.4175C472.217 47.339 472.229 47.2226 472.235 47.1746C471.998 47.5693 471.53 47.9032 471.038 47.9032C470.685 47.9032 470.455 47.6123 470.455 47.0164V47.0101H470.456ZM471.434 47.2834C471.732 47.2834 472.272 46.7609 472.425 45.7653C472.431 45.7046 472.437 45.6868 472.449 45.6261C472.382 45.6021 472.291 45.5831 472.2 45.5831C471.974 45.5831 471.744 45.6502 471.538 45.9297C471.325 46.227 471.234 46.5977 471.234 46.895C471.234 47.1505 471.308 47.2834 471.429 47.2834H471.436H471.434Z" fill="#EFF1F4" fill-opacity="0.7"/>
<path d="M474.616 45.8614C474.896 45.4123 475.26 45.072 475.77 45.072C476.201 45.072 476.34 45.473 476.262 46.0436C476.219 46.3105 476.147 46.6938 476.097 47.0455C476.054 47.3428 476.024 47.6097 476.03 47.7919C475.872 47.8703 475.41 47.902 475.308 47.902C475.265 47.902 475.26 47.568 475.314 47.215C475.362 46.9241 475.466 46.3953 475.514 46.0917C475.545 45.9158 475.538 45.7033 475.369 45.7033C475.144 45.7033 474.61 46.0613 474.343 47.5313C474.325 47.6528 474.276 47.7261 474.209 47.7679C474.118 47.8223 473.923 47.8716 473.529 47.8767C473.603 47.506 473.718 46.747 473.803 46.1891C473.881 45.6793 473.911 45.3503 473.894 45.2238C473.997 45.1871 474.538 45.072 474.598 45.072C474.665 45.072 474.677 45.2605 474.616 45.7159C474.61 45.759 474.603 45.8247 474.598 45.8614H474.616Z" fill="#EFF1F4" fill-opacity="0.7"/>
<path d="M477.299 47.9032C476.911 47.9032 476.668 47.5566 476.668 46.962C476.668 45.9778 477.282 45.0732 478.314 45.0732C478.496 45.0732 478.66 45.1213 478.763 45.1833C478.817 44.9037 478.945 44.0409 478.951 43.7867C479.121 43.7563 479.485 43.7019 479.65 43.7019C479.717 43.7019 479.734 43.769 479.71 43.9208C479.565 44.8316 479.304 46.5812 479.255 46.9696C479.218 47.2972 479.212 47.6198 479.218 47.802C479.024 47.8867 478.629 47.9057 478.526 47.9057C478.483 47.9057 478.459 47.6261 478.472 47.3769C478.478 47.2985 478.49 47.1821 478.49 47.1644C478.186 47.6628 477.767 47.9057 477.306 47.9057H477.299V47.9032ZM477.7 47.277C477.967 47.277 478.507 46.7785 478.659 45.8981C478.666 45.85 478.683 45.7589 478.696 45.7032C478.617 45.6299 478.514 45.5818 478.349 45.5818C477.736 45.5818 477.462 46.3168 477.462 46.8443C477.462 47.1302 477.56 47.2757 477.693 47.2757H477.699L477.7 47.277Z" fill="#EFF1F4" fill-opacity="0.7"/>
<path d="M480.858 45.9489C481.179 45.2316 481.563 45.0747 481.812 45.0747C481.89 45.0747 482.012 45.1228 482.067 45.1848C482.091 45.3846 481.935 45.7857 481.794 45.9375C481.721 45.9008 481.631 45.8641 481.527 45.8641C481.321 45.8641 480.914 46.1867 480.658 47.5707C480.64 47.6858 480.604 47.7351 480.537 47.7655C480.433 47.8262 480.027 47.8756 479.832 47.8806C479.923 47.3822 480.081 46.3689 480.142 45.773C480.16 45.6212 480.166 45.3416 480.155 45.2328C480.27 45.1784 480.725 45.0747 480.829 45.0747C480.883 45.0747 480.926 45.4087 480.842 45.9489H480.859H480.858Z" fill="#EFF1F4" fill-opacity="0.7"/>
<path d="M482.024 47.0101C482.024 46.6521 482.145 46.0259 482.601 45.5705C482.989 45.1694 483.463 45.072 483.894 45.072C484.179 45.072 484.568 45.1631 484.811 45.2124C484.75 45.4794 484.604 46.4876 484.537 47.0708C484.507 47.32 484.494 47.6654 484.507 47.7932C484.307 47.8779 483.93 47.9032 483.826 47.9032C483.772 47.9032 483.759 47.654 483.778 47.4175C483.785 47.339 483.796 47.2226 483.802 47.1746C483.566 47.5693 483.098 47.9032 482.606 47.9032C482.253 47.9032 482.022 47.6123 482.022 47.0164V47.0101H482.024ZM483.002 47.2834C483.299 47.2834 483.839 46.7609 483.992 45.7653C483.999 45.7046 484.005 45.6868 484.016 45.6261C483.949 45.6021 483.858 45.5831 483.767 45.5831C483.542 45.5831 483.312 45.6502 483.105 45.9297C482.893 46.227 482.802 46.5977 482.802 46.895C482.802 47.1505 482.875 47.2834 482.997 47.2834H483.003H483.002Z" fill="#EFF1F4" fill-opacity="0.7"/>
<defs>
<linearGradient id="paint0_linear_976_3939" x1="275.709" y1="43.0103" x2="276.68" y2="42.4363" gradientUnits="userSpaceOnUse">
<stop stop-color="#919DAA"/>
<stop offset="1" stop-color="#EEEDEE"/>
</linearGradient>
<linearGradient id="paint1_linear_976_3939" x1="275.731" y1="32.194" x2="276.513" y2="32.194" gradientUnits="userSpaceOnUse">
<stop stop-color="#949FAB"/>
<stop offset="1" stop-color="#DCDEE1"/>
</linearGradient>
<radialGradient id="paint2_radial_976_3939" cx="0" cy="0" r="1" gradientUnits="userSpaceOnUse" gradientTransform="translate(275.118 42.9931) rotate(-169.695) scale(0.966687 2.00298)">
<stop stop-color="#E7382F"/>
<stop offset="1" stop-color="#AA1F22"/>
</radialGradient>
<clipPath id="clip0_976_3939">
<rect width="41.9184" height="5.44394" fill="white" transform="translate(104.796 36.2014)"/>
</clipPath>
</defs>
</svg>
