<svg width="218" height="78" viewBox="0 0 218 78" fill="none" xmlns="http://www.w3.org/2000/svg">
<path opacity="0.5" d="M31.5273 11.5781V13.0729C31.5273 13.8535 31.5273 14.2438 31.6793 14.542C31.8129 14.8043 32.0261 15.0175 32.2884 15.1511C32.5866 15.303 32.9769 15.303 33.7575 15.303H35.6745C36.4552 15.303 36.8455 15.303 37.1436 15.455C37.4059 15.5886 37.6191 15.8018 37.7528 16.0641C37.9047 16.3623 37.9047 16.7526 37.9047 17.5332V18.542M39.013 24.6309V30.3285M46.5002 11.5784V13.0729C46.5002 13.8535 46.5002 14.2438 46.3483 14.542C46.2147 14.8043 46.0015 15.0175 45.7392 15.1511C45.441 15.303 45.0507 15.303 44.2701 15.303H42.3531C41.5724 15.303 41.1821 15.303 40.884 15.455C40.6217 15.5886 40.4085 15.8018 40.2748 16.0641C40.1229 16.3623 40.1229 16.7526 40.1229 17.5332V18.542" stroke="#D9DBE0" stroke-width="0.696923" stroke-linecap="square"/>
<g filter="url(#filter0_d_557_7979)">
<mask id="path-2-inside-1_557_7979" fill="white">
<path fill-rule="evenodd" clip-rule="evenodd" d="M37.636 6.96221C37.636 6.19241 37.012 5.56836 36.2422 5.56836H26.9095C26.1397 5.56836 25.5156 6.19241 25.5156 6.96221V10.9081C25.5156 11.6779 26.1397 12.3019 26.9095 12.3019H36.2422C37.012 12.3019 37.636 11.6779 37.636 10.9081V6.96221ZM44.6251 20.222C44.6251 19.4522 44.0011 18.8281 43.2313 18.8281H34.3704C33.6006 18.8281 32.9766 19.4522 32.9766 20.222V23.9057C32.9766 24.6755 33.6006 25.2996 34.3704 25.2996H43.2313C44.0011 25.2996 44.6251 24.6755 44.6251 23.9057V20.222ZM32.9766 31.72C32.9766 30.9502 33.6006 30.3262 34.3704 30.3262H43.2313C44.0011 30.3262 44.6251 30.9502 44.6251 31.72V35.4038C44.6251 36.1736 44.0011 36.7976 43.2313 36.7976H34.3704C33.6006 36.7976 32.9766 36.1736 32.9766 35.4038V31.72ZM51.8788 7.16747C51.8788 6.39767 51.2548 5.77362 50.485 5.77362H41.6241C40.8543 5.77362 40.2303 6.39767 40.2303 7.16747V10.8512C40.2303 11.621 40.8543 12.245 41.6241 12.245H50.485C51.2548 12.245 51.8788 11.621 51.8788 10.8512V7.16747Z"/>
</mask>
<path fill-rule="evenodd" clip-rule="evenodd" d="M37.636 6.96221C37.636 6.19241 37.012 5.56836 36.2422 5.56836H26.9095C26.1397 5.56836 25.5156 6.19241 25.5156 6.96221V10.9081C25.5156 11.6779 26.1397 12.3019 26.9095 12.3019H36.2422C37.012 12.3019 37.636 11.6779 37.636 10.9081V6.96221ZM44.6251 20.222C44.6251 19.4522 44.0011 18.8281 43.2313 18.8281H34.3704C33.6006 18.8281 32.9766 19.4522 32.9766 20.222V23.9057C32.9766 24.6755 33.6006 25.2996 34.3704 25.2996H43.2313C44.0011 25.2996 44.6251 24.6755 44.6251 23.9057V20.222ZM32.9766 31.72C32.9766 30.9502 33.6006 30.3262 34.3704 30.3262H43.2313C44.0011 30.3262 44.6251 30.9502 44.6251 31.72V35.4038C44.6251 36.1736 44.0011 36.7976 43.2313 36.7976H34.3704C33.6006 36.7976 32.9766 36.1736 32.9766 35.4038V31.72ZM51.8788 7.16747C51.8788 6.39767 51.2548 5.77362 50.485 5.77362H41.6241C40.8543 5.77362 40.2303 6.39767 40.2303 7.16747V10.8512C40.2303 11.621 40.8543 12.245 41.6241 12.245H50.485C51.2548 12.245 51.8788 11.621 51.8788 10.8512V7.16747Z" fill="#944AF2"/>
<path d="M26.9095 6.26528H36.2422V4.87144H26.9095V6.26528ZM26.2125 10.9081V6.96221H24.8187V10.9081H26.2125ZM36.2422 11.605H26.9095V12.9988H36.2422V11.605ZM36.9391 6.96221V10.9081H38.3329V6.96221H36.9391ZM34.3704 19.525H43.2313V18.1312H34.3704V19.525ZM33.6735 23.9057V20.222H32.2796V23.9057H33.6735ZM43.2313 24.6026H34.3704V25.9965H43.2313V24.6026ZM43.9282 20.222V23.9057H45.3221V20.222H43.9282ZM43.2313 29.6292H34.3704V31.0231H43.2313V29.6292ZM45.3221 35.4038V31.72H43.9282V35.4038H45.3221ZM34.3704 37.4945H43.2313V36.1007H34.3704V37.4945ZM32.2796 31.72V35.4038H33.6735V31.72H32.2796ZM41.6241 6.47054H50.485V5.0767H41.6241V6.47054ZM40.9272 10.8512V7.16747H39.5333V10.8512H40.9272ZM50.485 11.5481H41.6241V12.942H50.485V11.5481ZM51.1819 7.16747V10.8512H52.5758V7.16747H51.1819ZM50.485 12.942C51.6397 12.942 52.5758 12.0059 52.5758 10.8512H51.1819C51.1819 11.2361 50.8699 11.5481 50.485 11.5481V12.942ZM39.5333 10.8512C39.5333 12.0059 40.4694 12.942 41.6241 12.942V11.5481C41.2392 11.5481 40.9272 11.2361 40.9272 10.8512H39.5333ZM50.485 6.47054C50.8699 6.47054 51.1819 6.78257 51.1819 7.16747H52.5758C52.5758 6.01277 51.6397 5.0767 50.485 5.0767V6.47054ZM41.6241 5.0767C40.4694 5.0767 39.5333 6.01277 39.5333 7.16747H40.9272C40.9272 6.78257 41.2392 6.47054 41.6241 6.47054V5.0767ZM34.3704 36.1007C33.9855 36.1007 33.6735 35.7887 33.6735 35.4038H32.2796C32.2796 36.5584 33.2157 37.4945 34.3704 37.4945V36.1007ZM43.9282 35.4038C43.9282 35.7887 43.6162 36.1007 43.2313 36.1007V37.4945C44.386 37.4945 45.3221 36.5585 45.3221 35.4038H43.9282ZM34.3704 29.6292C33.2157 29.6292 32.2796 30.5653 32.2796 31.72H33.6735C33.6735 31.3351 33.9855 31.0231 34.3704 31.0231V29.6292ZM43.2313 31.0231C43.6162 31.0231 43.9282 31.3351 43.9282 31.72H45.3221C45.3221 30.5653 44.386 29.6292 43.2313 29.6292V31.0231ZM43.2313 25.9965C44.386 25.9965 45.3221 25.0604 45.3221 23.9057H43.9282C43.9282 24.2906 43.6162 24.6026 43.2313 24.6026V25.9965ZM32.2796 23.9057C32.2796 25.0604 33.2157 25.9965 34.3704 25.9965V24.6026C33.9855 24.6026 33.6735 24.2906 33.6735 23.9057H32.2796ZM43.2313 19.525C43.6162 19.525 43.9282 19.8371 43.9282 20.222H45.3221C45.3221 19.0673 44.386 18.1312 43.2313 18.1312V19.525ZM34.3704 18.1312C33.2157 18.1312 32.2796 19.0673 32.2796 20.222H33.6735C33.6735 19.8371 33.9855 19.525 34.3704 19.525V18.1312ZM36.2422 12.9988C37.3969 12.9988 38.3329 12.0628 38.3329 10.9081H36.9391C36.9391 11.293 36.6271 11.605 36.2422 11.605V12.9988ZM24.8187 10.9081C24.8187 12.0628 25.7548 12.9988 26.9095 12.9988V11.605C26.5246 11.605 26.2125 11.293 26.2125 10.9081H24.8187ZM36.2422 6.26528C36.6271 6.26528 36.9391 6.57731 36.9391 6.96221H38.3329C38.3329 5.80751 37.3969 4.87144 36.2422 4.87144V6.26528ZM26.9095 4.87144C25.7548 4.87144 24.8187 5.80751 24.8187 6.96221H26.2125C26.2125 6.57731 26.5246 6.26528 26.9095 6.26528V4.87144Z" fill="#763BC2" mask="url(#path-2-inside-1_557_7979)"/>
</g>
<path fill-rule="evenodd" clip-rule="evenodd" d="M52.1392 40.5831C56.945 40.5831 60.8409 36.6872 60.8409 31.8814C60.8409 27.0756 56.945 23.1797 52.1392 23.1797C47.3334 23.1797 43.4375 27.0756 43.4375 31.8814C43.4375 36.6872 47.3334 40.5831 52.1392 40.5831ZM50.4641 34.7785L55.4844 31.8801L50.4641 28.9816L50.4641 34.7785Z" fill="url(#paint0_linear_557_7979)"/>
<path d="M16.2029 71.3848H17.8399V67.6047H20.0425C22.5427 67.6047 23.778 66.0941 23.778 64.1073C23.778 62.1131 22.5502 60.61 20.0425 60.61H16.2029V71.3848ZM17.8399 66.2057V62.0089H19.8788C21.4638 62.0163 22.126 62.887 22.126 64.1073C22.126 65.3202 21.4638 66.2132 19.8788 66.2057H17.8399ZM25.4502 71.3848H27.0426V63.3037H25.4502V71.3848ZM25.2418 61.116C25.2493 61.6368 25.7032 62.061 26.2538 62.0535C26.797 62.061 27.2509 61.6368 27.2509 61.116C27.2509 60.5951 26.797 60.1784 26.2538 60.1784C25.7032 60.1784 25.2493 60.5951 25.2418 61.116ZM29.0571 74.4208H30.6495V70.1198H30.7388C31.029 70.6481 31.6094 71.541 33.0753 71.5485C35.0324 71.541 36.4536 69.9709 36.4536 67.3665C36.4536 64.7324 35.0175 63.1995 33.0604 63.1995C31.5648 63.1995 31.0216 64.1073 30.7388 64.6133H30.6049V63.3037H29.0571V74.4208ZM30.6197 67.3368C30.6197 65.6551 31.349 64.5463 32.7182 64.5538C34.1394 64.5463 34.8463 65.7444 34.8463 67.3368C34.8463 68.9589 34.1171 70.1867 32.7182 70.1942C31.3639 70.1867 30.6197 69.0334 30.6197 67.3368ZM41.5934 71.5485C43.3719 71.5485 44.6145 70.6704 44.9717 69.3608H43.3644C43.0965 69.8519 42.5087 70.2388 41.6083 70.2388C40.2838 70.2388 39.3759 69.3682 39.3313 67.8279H45.0759V67.2624C45.0759 64.338 43.3272 63.1995 41.4892 63.1995C39.2346 63.1995 37.7463 64.9109 37.7538 67.3963C37.7463 69.904 39.2122 71.5485 41.5934 71.5485ZM39.3387 66.6373C39.4057 65.4988 40.2317 64.5017 41.5041 64.5091C42.717 64.5017 43.5132 65.4095 43.5132 66.6373H39.3387ZM48.3256 60.61H46.7332V71.3848H48.3256V60.61ZM50.3401 71.3848H51.9325V63.3037H50.3401V71.3848ZM50.1318 61.116C50.1392 61.6368 50.5931 62.061 51.1438 62.0535C51.687 62.061 52.1409 61.6368 52.1409 61.116C52.1409 60.5951 51.687 60.1784 51.1438 60.1784C50.5931 60.1784 50.1392 60.5951 50.1318 61.116ZM55.5395 66.5927C55.5395 65.3053 56.3208 64.5687 57.4146 64.5687C58.4862 64.5687 59.1187 65.2681 59.1261 66.4438V71.3848H60.7036V66.2504C60.7111 64.2487 59.6098 63.1995 57.9504 63.1995C56.7449 63.1995 55.9487 63.7576 55.5692 64.6282H55.4799V63.3037H53.9471V71.3848H55.5395V66.5927ZM66.2006 71.5485C67.979 71.5485 69.2217 70.6704 69.5789 69.3608H67.9716C67.7037 69.8519 67.1159 70.2388 66.2155 70.2388C64.891 70.2388 63.9831 69.3682 63.9385 67.8279H69.6831V67.2624C69.6831 64.338 67.9344 63.1995 66.0964 63.1995C63.8418 63.1995 62.3535 64.9109 62.361 67.3963C62.3535 69.904 63.8194 71.5485 66.2006 71.5485ZM63.9459 66.6373C64.0129 65.4988 64.8389 64.5017 66.1113 64.5091C67.3242 64.5017 68.1204 65.4095 68.1204 66.6373H63.9459Z" fill="#737A8C"/>
<path d="M123.08 38.8008L119.27 36.6011V41.0004L123.08 38.8008ZM94.9141 39.1818H95.6964V38.4198H94.9141V39.1818ZM97.2612 39.1818H98.826V38.4198H97.2612V39.1818ZM100.391 39.1818H101.956V38.4198H100.391V39.1818ZM103.52 39.1818H105.085V38.4198H103.52V39.1818ZM106.65 39.1818H108.215V38.4198H106.65V39.1818ZM109.779 39.1818H111.344V38.4198H109.779V39.1818ZM112.909 39.1818H114.474V38.4198H112.909V39.1818ZM116.038 39.1818H117.603V38.4198H116.038V39.1818ZM119.168 39.1818H120.733V38.4198H119.168V39.1818Z" fill="#454954"/>
<path opacity="0.4" d="M161.051 31.9775L174.898 24.0647M174.898 24.0647L188.746 31.9775M174.898 24.0647V7.25" stroke="url(#paint1_linear_557_7979)" stroke-width="0.879201"/>
<circle cx="174.896" cy="24.0655" r="5.93461" fill="url(#paint2_linear_557_7979)"/>
<path fill-rule="evenodd" clip-rule="evenodd" d="M176.732 6.99854C176.824 6.77073 176.874 6.52195 176.874 6.2614C176.874 5.16887 175.988 4.2832 174.896 4.2832C173.803 4.2832 172.918 5.16887 172.918 6.2614C172.918 6.49159 172.957 6.71259 173.029 6.91806L162.558 13.8847C162.195 13.4568 161.654 13.1851 161.049 13.1851C159.956 13.1851 159.07 14.0708 159.07 15.1633C159.07 16.1048 159.728 16.8926 160.609 17.0925V30.0488C159.728 30.2487 159.07 31.0366 159.07 31.978C159.07 33.0706 159.956 33.9562 161.049 33.9562C161.722 33.9562 162.317 33.6198 162.674 33.1059L173.002 39.3168C172.947 39.4985 172.918 39.6912 172.918 39.8908C172.918 40.9834 173.803 41.869 174.896 41.869C175.988 41.869 176.874 40.9834 176.874 39.8908C176.874 39.6632 176.836 39.4445 176.765 39.241L187.111 33.0962C187.468 33.6156 188.066 33.9562 188.743 33.9562C189.836 33.9562 190.722 33.0706 190.722 31.978C190.722 31.0366 190.064 30.2487 189.183 30.0488V17.0925C190.064 16.8926 190.722 16.1048 190.722 15.1633C190.722 14.0708 189.836 13.1851 188.743 13.1851C188.134 13.1851 187.589 13.4607 187.226 13.894L176.732 6.99854ZM176.298 38.4956L186.786 32.2667C186.772 32.1725 186.765 32.0761 186.765 31.978C186.765 31.0366 187.423 30.2487 188.304 30.0488V17.0925C188.022 17.0285 187.762 16.9041 187.54 16.7337L176.85 23.7579C176.866 23.8581 176.874 23.9607 176.874 24.0652C176.874 25.0371 176.173 25.8452 175.25 26.0119V37.9441C175.656 38.0175 176.019 38.2148 176.298 38.4956ZM174.37 37.9832V25.9728C173.533 25.7426 172.918 24.9758 172.918 24.0652C172.918 23.9923 172.922 23.9204 172.929 23.8496L162.243 16.74C162.023 16.9072 161.767 17.0293 161.488 17.0925V30.0488C162.369 30.2487 163.027 31.0366 163.027 31.978C163.027 32.0802 163.019 32.1805 163.004 32.2785L173.439 38.5532C173.686 38.2837 174.007 38.083 174.37 37.9832ZM186.824 14.682L176.231 7.72119C175.879 8.04317 175.41 8.23961 174.896 8.23961C174.35 8.23961 173.857 8.01884 173.499 7.66178L162.965 14.6702C163.005 14.8278 163.027 14.993 163.027 15.1633C163.027 15.4869 162.949 15.7923 162.811 16.0619L173.232 22.9949C173.584 22.4487 174.198 22.087 174.896 22.087C175.565 22.087 176.156 22.4189 176.514 22.9269L186.976 16.0525C186.841 15.7852 186.765 15.4831 186.765 15.1633C186.765 14.9973 186.786 14.836 186.824 14.682Z" fill="url(#paint3_linear_557_7979)"/>
<path d="M153.996 60.61V71.3848H155.558V63.5864H155.648L158.818 71.3699H160.112L163.268 63.6013H163.372V71.3848H164.934V60.61H162.94L159.532 68.9589H159.398L155.99 60.61H153.996ZM170.506 71.5485C172.783 71.5485 174.271 69.8816 174.271 67.3814C174.271 64.8663 172.783 63.1995 170.506 63.1995C168.214 63.1995 166.718 64.8663 166.726 67.3814C166.718 69.8816 168.214 71.5485 170.506 71.5485ZM168.318 67.3814C168.318 65.8337 169.025 64.5166 170.506 64.5091C171.964 64.5166 172.664 65.8337 172.664 67.3814C172.664 68.9217 171.964 70.2239 170.506 70.2239C169.025 70.2239 168.318 68.9217 168.318 67.3814ZM178.935 71.5485C180.408 71.541 180.988 70.6481 181.286 70.1198H181.405V71.3848H182.953V60.61H181.36V64.6133H181.286C180.996 64.1073 180.453 63.1995 178.949 63.1995C177.007 63.1995 175.556 64.7324 175.556 67.3665C175.556 69.9709 176.985 71.541 178.935 71.5485ZM177.178 67.3368C177.171 65.7444 177.885 64.5463 179.292 64.5538C180.661 64.5463 181.405 65.6551 181.405 67.3368C181.405 69.0334 180.646 70.1867 179.292 70.1942C177.9 70.1867 177.171 68.9589 177.178 67.3368ZM188.584 71.5485C190.362 71.5485 191.605 70.6704 191.962 69.3608H190.355C190.087 69.8519 189.499 70.2388 188.599 70.2388C187.274 70.2388 186.366 69.3682 186.322 67.8279H192.066V67.2624C192.066 64.338 190.317 63.1995 188.479 63.1995C186.225 63.1995 184.737 64.9109 184.744 67.3963C184.737 69.904 186.202 71.5485 188.584 71.5485ZM186.329 66.6373C186.396 65.4988 187.222 64.5017 188.494 64.5091C189.707 64.5017 190.503 65.4095 190.503 66.6373H186.329ZM195.316 60.61H193.723V71.3848H195.316V60.61Z" fill="#737A8C"/>
<defs>
<filter id="filter0_d_557_7979" x="24.1218" y="5.56836" width="29.151" height="34.0162" filterUnits="userSpaceOnUse" color-interpolation-filters="sRGB">
<feFlood flood-opacity="0" result="BackgroundImageFix"/>
<feColorMatrix in="SourceAlpha" type="matrix" values="0 0 0 0 0 0 0 0 0 0 0 0 0 0 0 0 0 0 127 0" result="hardAlpha"/>
<feOffset dy="1.39385"/>
<feGaussianBlur stdDeviation="0.696923"/>
<feComposite in2="hardAlpha" operator="out"/>
<feColorMatrix type="matrix" values="0 0 0 0 0 0 0 0 0 0 0 0 0 0 0 0 0 0 0.25 0"/>
<feBlend mode="normal" in2="BackgroundImageFix" result="effect1_dropShadow_557_7979"/>
<feBlend mode="normal" in="SourceGraphic" in2="effect1_dropShadow_557_7979" result="shape"/>
</filter>
<linearGradient id="paint0_linear_557_7979" x1="52.1392" y1="23.1797" x2="52.1392" y2="40.5831" gradientUnits="userSpaceOnUse">
<stop stop-color="#6C79F9" stop-opacity="0.3"/>
<stop offset="1" stop-color="#6C79F9"/>
</linearGradient>
<linearGradient id="paint1_linear_557_7979" x1="161.051" y1="19.3327" x2="188.746" y2="19.3327" gradientUnits="userSpaceOnUse">
<stop stop-color="#6C79F9"/>
<stop offset="1" stop-color="#AA7BF6"/>
</linearGradient>
<linearGradient id="paint2_linear_557_7979" x1="174.896" y1="18.1309" x2="174.896" y2="30.0001" gradientUnits="userSpaceOnUse">
<stop stop-color="#6C79F9" stop-opacity="0.3"/>
<stop offset="1" stop-color="#6C79F9"/>
</linearGradient>
<linearGradient id="paint3_linear_557_7979" x1="159.07" y1="22.649" x2="190.722" y2="22.649" gradientUnits="userSpaceOnUse">
<stop stop-color="#6C79F9"/>
<stop offset="1" stop-color="#AA7BF6"/>
</linearGradient>
</defs>
</svg>
