<svg width="49" height="49" viewBox="0 0 49 49" fill="none" xmlns="http://www.w3.org/2000/svg">
<g clip-path="url(#clip0_326_2785)">
<path d="M24.653 6.73438H24.92C27.386 6.74338 39.881 6.83338 43.25 7.73938C44.2685 8.01588 45.1966 8.55484 45.9415 9.3024C46.6864 10.05 47.2221 10.9799 47.495 11.9994C47.798 13.1394 48.011 14.6484 48.155 16.2054L48.185 16.5174L48.251 17.2974L48.275 17.6094C48.47 20.3514 48.494 22.9194 48.497 23.4804V23.7054C48.494 24.2874 48.467 27.0294 48.251 29.8854L48.227 30.2004L48.2 30.5124C48.05 32.2284 47.828 33.9324 47.495 35.1864C47.2229 36.2062 46.6875 37.1366 45.9425 37.8843C45.1974 38.632 44.2689 39.1707 43.25 39.4464C39.77 40.3824 26.543 40.4484 24.71 40.4514H24.284C23.357 40.4514 19.523 40.4334 15.503 40.2954L14.993 40.2774L14.732 40.2654L14.219 40.2444L13.706 40.2234C10.376 40.0764 7.205 39.8394 5.744 39.4434C4.72547 39.168 3.7972 38.6297 3.05217 37.8826C2.30715 37.1355 1.77154 36.2057 1.499 35.1864C1.166 33.9354 0.944 32.2284 0.794 30.5124L0.77 30.1974L0.746 29.8854C0.597943 27.8526 0.5159 25.8155 0.5 23.7774L0.5 23.4084C0.506 22.7634 0.53 20.5344 0.692 18.0744L0.713 17.7654L0.722 17.6094L0.746 17.2974L0.812 16.5174L0.842 16.2054C0.986 14.6484 1.199 13.1364 1.502 11.9994C1.77408 10.9795 2.30949 10.0491 3.05454 9.30142C3.79959 8.55374 4.72811 8.01505 5.747 7.73938C7.208 7.34938 10.379 7.10937 13.709 6.95937L14.219 6.93837L14.735 6.92038L14.993 6.91138L15.506 6.89038C18.3611 6.7985 21.2174 6.74749 24.074 6.73738H24.653V6.73438ZM19.7 16.3644V30.8184L32.171 23.5944L19.7 16.3644Z" fill="#944AF2"/>
</g>
<defs>
<clipPath id="clip0_326_2785">
<rect width="48" height="48" fill="white" transform="translate(0.5 0.740234)"/>
</clipPath>
</defs>
</svg>
