<svg width="428" height="880" viewBox="0 0 428 880" fill="none" xmlns="http://www.w3.org/2000/svg">
<rect width="428" height="880" rx="73" fill="#585858"/>
<rect x="1" y="1" width="426" height="878" rx="72" stroke="black" stroke-opacity="0.2" stroke-width="2"/>
<g clip-path="url(#clip0_573_8912)">
<rect x="19" y="19" width="390" height="844" rx="60" fill="white"/>
<path d="M55.5352 130.633V136.539H58.8438V139.383H55.5352V145.043H51.9805V130.633H55.5352ZM47.332 145.48C52.4453 145.48 55.7266 147.34 55.7266 150.457C55.7266 153.656 52.4453 155.516 47.332 155.516C42.1094 155.516 38.8008 153.656 38.8008 150.457C38.8008 147.34 42.1094 145.48 47.332 145.48ZM47.332 148.242C44.0508 148.242 42.2188 149.008 42.2461 150.457C42.2188 151.961 44.0508 152.754 47.332 152.754C50.4766 152.754 52.3359 151.961 52.3359 150.457C52.3359 149.008 50.4766 148.242 47.332 148.242ZM47.7969 132.301V135.09H40.0859V140.887C44.6934 140.859 47.2227 140.723 50.0117 140.121L50.3125 142.91C47.25 143.594 44.3242 143.676 38.6914 143.703H36.6133V132.301H47.7969ZM80.7734 130.66V148.816H77.2734V130.66H80.7734ZM81.4297 152.289V155.078H64.0938V147.066H67.6211V152.289H81.4297ZM69.4805 134.434C69.4531 137.715 71.2031 140.941 75.3047 142.254L73.5273 144.988C70.7246 144.059 68.7832 142.199 67.6758 139.82C66.5684 142.377 64.5723 144.428 61.6602 145.426L59.8555 142.664C64.0391 141.27 65.8438 137.797 65.8438 134.434V132.027H69.4805V134.434ZM92.2031 132.301C96.1406 132.273 99.0938 134.844 99.0938 138.398C99.0938 141.98 96.1406 144.523 92.2031 144.523C88.2656 144.523 85.2852 141.98 85.2852 138.398C85.2852 134.844 88.2656 132.273 92.2031 132.301ZM92.2031 135.309C90.2344 135.309 88.7305 136.457 88.7578 138.398C88.7305 140.367 90.2344 141.488 92.2031 141.488C94.1719 141.488 95.6758 140.367 95.7031 138.398C95.6758 136.457 94.1992 135.309 92.2031 135.309ZM105.055 130.633V155.57H101.582V130.633H105.055ZM84.2461 147.641C88.6758 147.668 94.8281 147.586 100.16 146.848L100.434 149.363C94.9102 150.43 89.0039 150.484 84.6562 150.484L84.2461 147.641ZM134.777 146.766V155.242H117.414V146.766H124.359V144.496H114.789V141.68H137.484V144.496H127.859V146.766H134.777ZM120.859 149.527V152.453H131.359V149.527H120.859ZM127.941 131.699C127.941 134.27 130.812 137.113 136.363 137.742L135.133 140.449C130.84 139.902 127.736 138.125 126.137 135.691C124.537 138.125 121.42 139.902 117.168 140.449L115.91 137.742C121.461 137.086 124.332 134.324 124.359 131.699V130.879H127.941V131.699ZM150.336 130.988C156.051 130.988 159.359 132.492 159.387 135.227C159.359 137.988 156.051 139.492 150.336 139.492C144.594 139.492 141.258 137.988 141.258 135.227C141.258 132.492 144.594 130.988 150.336 130.988ZM150.336 133.531C146.672 133.531 144.895 134.133 144.922 135.227C144.895 136.457 146.672 136.922 150.336 136.922C154.027 136.922 155.777 136.457 155.777 135.227C155.777 134.133 154.027 133.531 150.336 133.531ZM161.684 140.668V143.43H138.988V140.668H161.684ZM158.922 144.879V151.223H145.059V152.727H159.578V155.352H141.641V148.789H155.477V147.422H141.613V144.879H158.922ZM190.559 130.633V155.516H187.031V130.633H190.559ZM183.094 133.23C183.094 140.777 180.441 147.039 171.555 151.25L169.723 148.461C176.148 145.426 178.979 141.488 179.539 135.965H171.062V133.23H183.094ZM216.59 143.977V146.766H193.812V143.977H203.465V142.172H196.656V135.336H210.328V133.805H196.602V131.098H213.828V137.852H200.129V139.492H214.293V142.172H206.938V143.977H216.59ZM213.965 148.188V155.406H210.438V150.922H196.355V148.188H213.965ZM237.672 130.633V140.367H241.336V143.238H237.672V155.516H234.227V130.633H237.672ZM232.531 134.352V137.141H217.902V134.352H223.535V131.016H227.035V134.352H232.531ZM225.285 138.535C228.922 138.535 231.629 140.996 231.629 144.469C231.629 147.941 228.922 150.402 225.285 150.402C221.621 150.402 218.914 147.941 218.914 144.469C218.914 140.996 221.621 138.535 225.285 138.535ZM225.285 141.352C223.535 141.379 222.25 142.555 222.25 144.469C222.25 146.41 223.535 147.559 225.285 147.531C227.035 147.559 228.293 146.41 228.293 144.469C228.293 142.555 227.035 141.379 225.285 141.352ZM250.223 136.895C250.223 140.914 251.344 145.07 254.734 147.258L252.848 149.965C250.701 148.666 249.334 146.533 248.555 143.977C247.652 146.793 246.162 149.145 243.906 150.512L241.773 147.941C245.465 145.645 246.832 141.27 246.832 137.059V132.766H250.223V136.895ZM263.812 130.633V155.516H260.477V130.633H263.812ZM258.59 130.988V154.367H255.336V141.871H252.109V139.027H255.336V130.988H258.59ZM289.215 149.746V152.617H266.438V149.746H271.523V143.648C269.596 142.5 268.434 140.736 268.434 138.535C268.434 134.516 272.371 131.836 277.785 131.836C283.172 131.836 287.137 134.516 287.164 138.535C287.15 140.682 286.016 142.432 284.156 143.594V149.746H289.215ZM277.785 134.598C274.23 134.598 271.879 136.02 271.879 138.535C271.879 140.969 274.23 142.473 277.785 142.473C281.312 142.473 283.691 140.969 283.719 138.535C283.691 136.02 281.312 134.598 277.785 134.598ZM274.969 149.746H280.629V144.906C279.74 145.084 278.783 145.18 277.785 145.18C276.787 145.18 275.844 145.098 274.969 144.906V149.746ZM295.887 150.977L293.535 158.77H290.637L292.004 150.977H295.887Z" fill="#292E34"/>
<rect x="75" y="295" width="278" height="278" rx="139" fill="url(#paint0_radial_573_8912)" fill-opacity="0.7"/>
<rect x="75.5" y="295.5" width="277" height="277" rx="138.5" stroke="#0663FF" stroke-opacity="0.1"/>
<rect x="96.4574" y="316.457" width="235.085" height="235.085" rx="117.543" stroke="#0663FF" stroke-opacity="0.2" stroke-width="0.914729"/>
<rect x="123.5" y="343.5" width="181" height="181" rx="90.5" stroke="#0F68FF" stroke-opacity="0.3"/>
<g style="mix-blend-mode:multiply">
<rect width="126" height="71.7907" transform="translate(151 398.104)" fill="url(#paint1_radial_573_8912)" fill-opacity="0.7"/>
<g filter="url(#filter0_di_573_8912)">
<rect x="158.326" y="417.884" width="5.86047" height="32.2326" rx="2.93023" fill="url(#paint2_linear_573_8912)"/>
</g>
<g filter="url(#filter1_di_573_8912)">
<rect x="171.512" y="405.431" width="5.86047" height="57.1395" rx="2.93023" fill="url(#paint3_linear_573_8912)"/>
</g>
<g filter="url(#filter2_di_573_8912)">
<rect x="184.698" y="409.459" width="5.86047" height="49.0814" rx="2.93023" fill="url(#paint4_linear_573_8912)"/>
</g>
<g filter="url(#filter3_di_573_8912)">
<rect x="197.884" y="413.122" width="5.86047" height="41.7558" rx="2.93023" fill="url(#paint5_linear_573_8912)"/>
</g>
<g filter="url(#filter4_di_573_8912)">
<rect x="211.07" y="413.122" width="5.86047" height="41.7558" rx="2.93023" fill="url(#paint6_linear_573_8912)"/>
</g>
<g filter="url(#filter5_di_573_8912)">
<rect x="224.256" y="418.616" width="5.86047" height="30.7674" rx="2.93023" fill="url(#paint7_linear_573_8912)"/>
</g>
<g filter="url(#filter6_di_573_8912)">
<rect x="237.442" y="426.675" width="5.86047" height="14.6512" rx="2.93023" fill="url(#paint8_linear_573_8912)"/>
</g>
<g filter="url(#filter7_di_573_8912)">
<rect x="250.628" y="417.151" width="5.86047" height="33.6977" rx="2.93023" fill="url(#paint9_linear_573_8912)"/>
</g>
<g filter="url(#filter8_di_573_8912)">
<rect x="263.814" y="412.39" width="5.86047" height="43.2209" rx="2.93023" fill="url(#paint10_linear_573_8912)"/>
</g>
</g>
<rect x="31.5" y="669.5" width="223" height="61" rx="11.5" stroke="#E9E9E9"/>
<path d="M51.3252 683.288V692.935H50.3047V683.288H51.3252ZM46.1797 684.008C47.6084 684.008 48.6611 685.318 48.6611 687.381C48.6611 689.454 47.6084 690.765 46.1797 690.765C44.7295 690.765 43.6875 689.454 43.6875 687.381C43.6875 685.318 44.7295 684.008 46.1797 684.008ZM46.1797 684.921C45.2881 684.921 44.6758 685.866 44.6758 687.381C44.6758 688.906 45.2881 689.852 46.1797 689.852C47.0605 689.852 47.6729 688.906 47.6729 687.381C47.6729 685.866 47.0605 684.921 46.1797 684.921ZM60.8857 683.288V688.541H59.8652V685.941H58.1357V685.114H59.8652V683.288H60.8857ZM61.0791 689.067V689.841H54.3008V689.067H57.1904V688.208H58.2109V689.067H61.0791ZM57.6846 690.206C59.4141 690.195 60.4238 690.668 60.4238 691.549C60.4238 692.44 59.4141 692.902 57.6846 692.892C55.9658 692.902 54.9668 692.44 54.9668 691.549C54.9668 690.668 55.9658 690.195 57.6846 690.206ZM57.6846 690.915C56.5566 690.915 55.9551 691.151 55.9551 691.549C55.9551 691.968 56.5566 692.183 57.6846 692.183C58.8232 692.183 59.4248 691.968 59.4248 691.549C59.4248 691.151 58.8232 690.915 57.6846 690.915ZM57.5557 683.729V686.178H54.2686V687.177C55.853 687.171 56.9863 687.128 58.3076 686.887L58.4043 687.692C56.9648 687.939 55.751 687.982 54 687.982H53.248V685.447H56.5459V684.502H53.2266V683.729H57.5557ZM70.6396 683.288V692.913H69.6729V683.288H70.6396ZM68.6094 683.535V692.44H67.6426V687.972H65.7627C65.188 689.089 64.2749 690.066 62.916 690.861L62.3359 690.131C64.377 688.917 65.3599 687.3 65.5371 685.318H62.7871V684.48H66.5469C66.5415 685.42 66.4126 686.317 66.1172 687.155H67.6426V683.535H68.6094ZM76.8486 684.029C78.0034 684.029 78.8789 684.808 79.04 685.995H79.9316V683.46H80.8877V690.195H79.9316V686.844H79.0293C78.8467 687.988 77.9819 688.756 76.8486 688.745C75.5596 688.756 74.6357 687.778 74.6465 686.393C74.6357 684.985 75.5596 684.029 76.8486 684.029ZM76.8486 684.899C76.0967 684.899 75.5596 685.501 75.5596 686.393C75.5596 687.284 76.0967 687.875 76.8486 687.875C77.5898 687.875 78.1377 687.284 78.1484 686.393C78.1377 685.501 77.5898 684.899 76.8486 684.899ZM82.7676 683.288V690.485H81.8008V683.288H82.7676ZM83.0469 691.882V692.709H76.3867V689.551H77.3965V691.882H83.0469ZM92.0488 683.288V689.153H91.0283V683.288H92.0488ZM89.2236 684.029V684.856H85.6572V687.499C87.6499 687.494 88.8047 687.424 90.126 687.166L90.2227 688.004C88.8262 688.272 87.6123 688.326 85.4531 688.326H84.6475V684.029H89.2236ZM88.8154 689.196C90.8242 689.186 92.0811 689.884 92.0811 691.055C92.0811 692.226 90.8242 692.902 88.8154 692.913C86.7852 692.902 85.5391 692.226 85.5391 691.055C85.5391 689.884 86.7852 689.186 88.8154 689.196ZM88.8154 690.002C87.3975 690.002 86.5703 690.378 86.5703 691.055C86.5703 691.71 87.3975 692.097 88.8154 692.097C90.2334 692.097 91.0713 691.71 91.0713 691.055C91.0713 690.378 90.2334 690.002 88.8154 690.002ZM104.069 687.585V688.423H101.158V690.872H105.068V691.71H96.2598V690.872H100.138V688.423H97.3125V684.083H98.3438V687.585H104.069ZM113.576 688.412V689.229H106.873V684.083H113.479V684.91H107.904V686.21H113.275V687.016H107.904V688.412H113.576ZM114.575 690.861V691.699H105.767V690.861H114.575ZM124.071 687.703V688.487H115.263V687.703H124.071ZM122.986 689.164V691.28H117.336V692.075H123.287V692.795H116.315V690.604H121.977V689.895H116.305V689.164H122.986ZM122.965 683.535V685.619H117.4V686.35H123.126V687.069H116.391V684.942H121.944V684.255H116.369V683.535H122.965ZM130.914 684.996C130.914 686.21 131.784 687.402 133.234 687.896L132.708 688.691C131.628 688.315 130.828 687.547 130.409 686.597C129.99 687.655 129.147 688.503 128.003 688.906L127.477 688.101C128.959 687.596 129.872 686.307 129.872 685.007V684.738H127.788V683.911H132.977V684.738H130.914V684.996ZM135.49 689.529V692.913H134.47V690.356H128.97V689.529H135.49ZM135.49 683.288V689.046H134.47V686.575H132.687V685.737H134.47V683.288H135.49ZM139.583 684.008C140.888 684.008 141.844 685.114 142 686.897H143.987V683.288H144.997V692.935H143.987V687.725H142.011C141.898 689.599 140.92 690.765 139.583 690.765C138.144 690.765 137.134 689.454 137.145 687.381C137.134 685.318 138.144 684.008 139.583 684.008ZM139.583 684.921C138.713 684.921 138.111 685.866 138.111 687.381C138.111 688.906 138.713 689.852 139.583 689.852C140.453 689.852 141.055 688.906 141.055 687.381C141.055 685.866 140.453 684.921 139.583 684.921ZM155.288 690.872V691.721H146.479V690.872H150.357V688.896H147.489V683.943H148.51V685.598H153.236V683.943H154.246V688.896H151.367V690.872H155.288ZM148.51 688.068H153.236V686.425H148.51V688.068ZM163.774 686.103V686.919H157.146V683.632H158.156V686.103H163.774ZM164.784 688.133V688.949H155.976V688.133H164.784ZM163.839 691.85V692.688H157.071V689.862H158.092V691.85H163.839ZM176.203 683.299V690.389H175.183V687.048H173.185V686.199H175.183V683.299H176.203ZM173.249 684.019C173.238 686.532 171.509 688.423 168.748 689.314L168.318 688.498C170.461 687.805 171.917 686.495 172.132 684.867H168.812V684.019H173.249ZM176.45 691.882V692.709H170.005V689.658H171.036V691.882H176.45ZM182.981 684.008C184.287 684.008 185.243 685.114 185.398 686.897H187.386V683.288H188.396V692.935H187.386V687.725H185.409C185.296 689.599 184.319 690.765 182.981 690.765C181.542 690.765 180.532 689.454 180.543 687.381C180.532 685.318 181.542 684.008 182.981 684.008ZM182.981 684.921C182.111 684.921 181.51 685.866 181.51 687.381C181.51 688.906 182.111 689.852 182.981 689.852C183.852 689.852 184.453 688.906 184.453 687.381C184.453 685.866 183.852 684.921 182.981 684.921ZM192.563 683.825V684.642H191.103V687.069C191.581 687.053 192.102 687.005 192.682 686.876L192.768 687.692C191.887 687.864 191.21 687.875 190.544 687.875H190.114V683.825H192.563ZM195.775 683.825V684.642H194.1V687.069C194.884 687.064 195.448 687.016 196.108 686.865L196.194 687.671C195.367 687.864 194.701 687.875 193.584 687.875H193.09V683.825H195.775ZM197.988 688.681V691.076H192.478V691.979H198.332V692.795H191.446V690.313H196.989V689.486H191.425V688.681H197.988ZM197.988 683.288V688.24H196.989V686.135H195.303V685.34H196.989V683.288H197.988ZM207.033 683.288V687.198H208.43V688.036H207.033V692.913H206.013V683.288H207.033ZM202.285 684.319C202.285 686.726 201.845 688.917 200.104 690.775L199.299 690.206C200.706 688.745 201.216 687.085 201.318 685.157H199.643V684.319H202.285ZM204.938 684.319C204.938 686.758 204.638 689.314 202.865 691.409L202.049 690.851C203.478 689.18 203.907 687.214 203.982 685.157H202.597V684.319H204.938ZM217.7 690.861V691.71H208.892V690.861H210.997V688.348C210.208 687.913 209.729 687.22 209.729 686.36C209.729 684.846 211.212 683.847 213.274 683.847C215.348 683.847 216.83 684.846 216.83 686.36C216.83 687.209 216.368 687.891 215.595 688.326V690.861H217.7ZM213.274 684.663C211.76 684.663 210.718 685.318 210.718 686.36C210.718 687.392 211.76 688.068 213.274 688.068C214.778 688.068 215.842 687.392 215.842 686.36C215.842 685.318 214.778 684.663 213.274 684.663ZM212.007 690.861H214.563V688.713C214.171 688.815 213.736 688.863 213.274 688.863C212.823 688.863 212.394 688.815 212.007 688.724V690.861ZM219.978 689.69C219.988 688.283 220.407 687.854 221.116 687.413C221.567 687.134 221.911 686.747 221.911 686.178C221.911 685.501 221.396 685.082 220.751 685.082C220.171 685.082 219.612 685.437 219.559 686.231H218.398C218.441 684.867 219.473 684.115 220.751 684.115C222.147 684.115 223.082 684.953 223.082 686.178C223.082 687.037 222.674 687.617 221.986 688.036C221.342 688.423 221.095 688.82 221.073 689.69V689.755H219.978V689.69ZM220.568 692.075C220.149 692.075 219.795 691.731 219.806 691.312C219.795 690.894 220.149 690.55 220.568 690.55C220.977 690.55 221.331 690.894 221.331 691.312C221.331 691.731 220.977 692.075 220.568 692.075Z" fill="#292E34" fill-opacity="0.6"/>
<path d="M44.8281 705.821V708.576H47.2783V705.821H48.2051V713.21H43.876V705.821H44.8281ZM44.8281 712.385H47.2783V709.389H44.8281V712.385ZM53.1309 704.742V716.028H52.166V710.049H50.5918V715.457H49.6396V704.983H50.5918V709.224H52.166V704.742H53.1309ZM65.0137 711.217V712.055H60.3037V716.028H59.3262V712.055H54.6797V711.217H65.0137ZM59.8213 705.199C62.1953 705.199 63.7949 706.151 63.7949 707.688C63.7949 709.186 62.1953 710.138 59.8213 710.138C57.4473 710.138 55.8477 709.186 55.8477 707.688C55.8477 706.151 57.4473 705.199 59.8213 705.199ZM59.8213 706.012C58.0566 706.012 56.8633 706.672 56.876 707.688C56.8633 708.69 58.0566 709.338 59.8213 709.338C61.5732 709.338 62.7793 708.69 62.7793 707.688C62.7793 706.672 61.5732 706.012 59.8213 706.012ZM69.749 708.208C69.7363 710.023 71.0439 712.017 72.6816 712.791L72.1104 713.578C70.8408 712.962 69.7681 711.617 69.2666 710.087C68.7461 711.75 67.6099 713.21 66.3467 713.857L65.7373 713.07C67.3623 712.283 68.7588 710.138 68.7715 708.208V706.735H66.1436V705.91H72.2881V706.735H69.749V708.208ZM74.6621 704.742V709.312H76.5537V710.163H74.6621V716.028H73.6719V704.742H74.6621ZM86.8369 704.742V716.028H85.8721V704.742H86.8369ZM84.5645 704.983V715.457H83.6123V709.973H82.165C82.0571 712.169 81.124 713.54 79.7275 713.54C78.2549 713.54 77.3027 712.017 77.3027 709.617C77.3027 707.218 78.2549 705.694 79.7275 705.694C81.0986 705.694 82.0254 707.021 82.1523 709.147H83.6123V704.983H84.5645ZM79.7275 706.634C78.8135 706.634 78.2295 707.776 78.2422 709.617C78.2295 711.445 78.8135 712.601 79.7275 712.588C80.6416 712.601 81.2256 711.445 81.2256 709.617C81.2256 707.776 80.6416 706.634 79.7275 706.634ZM98.0596 704.742V716.028H97.1074V704.742H98.0596ZM95.6855 705.047V715.457H94.7334V710.188H92.3467C91.6548 711.502 90.5693 712.664 88.9951 713.591L88.4111 712.867C90.8677 711.414 92.0991 709.376 92.2832 707.015H88.8936V706.189H93.2734C93.2671 707.3 93.0894 708.373 92.7148 709.376H94.7334V705.047H95.6855ZM111.631 704.742V709.401H113.522V710.227H111.631V716.028H110.641V704.742H111.631ZM109.549 706.558V707.383H102.833V706.558H105.74V704.882H106.73V706.558H109.549ZM106.248 708.322C107.848 708.322 109.003 709.389 109.016 710.912C109.003 712.436 107.848 713.502 106.248 713.502C104.636 713.502 103.468 712.436 103.48 710.912C103.468 709.389 104.636 708.322 106.248 708.322ZM106.248 709.16C105.194 709.16 104.42 709.896 104.433 710.912C104.42 711.94 105.194 712.664 106.248 712.651C107.289 712.664 108.051 711.94 108.063 710.912C108.051 709.896 107.289 709.16 106.248 709.16ZM123.184 705.885V707.015C123.171 708.398 123.171 709.947 122.765 712.22L121.749 712.105C122.181 709.947 122.181 708.36 122.181 707.015V706.71H115.224V705.885H123.184ZM124.415 713.604V714.429H114.132V713.604H118.169V709.566H119.146V713.604H124.415ZM137.948 704.755V711.026H136.958V704.755H137.948ZM132.629 706.278C132.616 707.84 133.835 709.249 135.511 709.795L135.028 710.582C133.695 710.131 132.642 709.192 132.134 707.967C131.626 709.281 130.56 710.309 129.214 710.785L128.706 709.998C130.407 709.401 131.613 707.916 131.613 706.278V705.174H132.629V706.278ZM138.024 711.699V712.512H136.463V715.063H138.139V715.876H130.331V715.063H132.02V712.512H130.433V711.699H138.024ZM132.997 715.063H135.473V712.512H132.997V715.063ZM150.148 710.696V711.509H139.865V710.696H150.148ZM149.006 714.949V715.787H141.198V712.499H142.201V714.949H149.006ZM145.007 705.148C147.432 705.136 148.993 705.974 148.993 707.383C148.993 708.792 147.432 709.63 145.007 709.63C142.557 709.63 141.008 708.792 141.008 707.383C141.008 705.974 142.557 705.136 145.007 705.148ZM145.007 705.948C143.191 705.948 142.023 706.494 142.036 707.383C142.023 708.271 143.191 708.817 145.007 708.817C146.81 708.817 147.978 708.271 147.978 707.383C147.978 706.494 146.81 705.948 145.007 705.948ZM163.187 704.742V707.192H164.888V708.03H163.187V710.493H162.196V704.742H163.187ZM160.063 705.39V709.896H154.846V705.39H160.063ZM155.823 706.202V709.097H159.099V706.202H155.823ZM163.187 711.026V713.781H156.991V715.076H163.605V715.876H156.014V713.02H162.196V711.826H155.988V711.026H163.187ZM175.882 710.696V711.509H165.599V710.696H175.882ZM174.739 714.949V715.787H166.932V712.499H167.935V714.949H174.739ZM170.74 705.148C173.165 705.136 174.727 705.974 174.727 707.383C174.727 708.792 173.165 709.63 170.74 709.63C168.29 709.63 166.741 708.792 166.741 707.383C166.741 705.974 168.29 705.136 170.74 705.148ZM170.74 705.948C168.925 705.948 167.757 706.494 167.77 707.383C167.757 708.271 168.925 708.817 170.74 708.817C172.543 708.817 173.711 708.271 173.711 707.383C173.711 706.494 172.543 705.948 170.74 705.948ZM190.418 711.306V712.131H185.708V716.028H184.73V712.131H180.084V711.306H190.418ZM189.072 705.377V709.77H181.417V705.377H189.072ZM182.395 706.189V708.982H188.082V706.189H182.395ZM200.688 704.742V712.499H199.686V708.665H197.337C197.115 710.03 195.953 710.963 194.442 710.963C192.754 710.963 191.51 709.833 191.51 708.233C191.51 706.621 192.754 705.517 194.442 705.517C195.972 705.517 197.146 706.45 197.337 707.853H199.686V704.742H200.688ZM194.442 706.367C193.287 706.367 192.462 707.167 192.462 708.233C192.462 709.338 193.287 710.112 194.442 710.112C195.547 710.112 196.397 709.338 196.397 708.233C196.397 707.167 195.547 706.367 194.442 706.367ZM197.553 712.042C197.54 713.642 199.381 714.848 201.399 715.165L200.98 715.965C199.279 715.66 197.705 714.771 197.032 713.464C196.353 714.759 194.779 715.66 193.071 715.965L192.703 715.165C194.671 714.835 196.524 713.591 196.537 712.042V711.598H197.553V712.042ZM211.886 704.755V713.007H210.896V704.755H211.886ZM212.241 714.949V715.787H204.599V712.169H205.589V714.949H212.241ZM205.792 705.542C207.48 705.542 208.75 706.685 208.75 708.31C208.75 709.96 207.48 711.09 205.792 711.09C204.104 711.09 202.834 709.96 202.834 708.31C202.834 706.685 204.104 705.542 205.792 705.542ZM205.792 706.418C204.649 706.418 203.799 707.205 203.812 708.31C203.799 709.439 204.649 710.214 205.792 710.214C206.909 710.214 207.772 709.439 207.772 708.31C207.772 707.205 206.909 706.418 205.792 706.418ZM222.537 704.742V709.338H224.365V710.176H222.537V716.028H221.547V704.742H222.537ZM219.617 705.961C219.617 709.16 218.119 712.067 214.438 713.883L213.879 713.096C216.799 711.642 218.386 709.471 218.614 706.799H214.399V705.961H219.617ZM235.372 713.743V714.581H225.038V713.743H227.603V710.696C226.638 710.195 226.054 709.382 226.054 708.36C226.054 706.608 227.768 705.466 230.18 705.453C232.592 705.466 234.306 706.608 234.306 708.36C234.306 709.363 233.741 710.169 232.808 710.671V713.743H235.372ZM230.18 706.278C228.326 706.266 227.019 707.104 227.019 708.36C227.019 709.617 228.326 710.468 230.18 710.468C232.021 710.468 233.341 709.617 233.341 708.36C233.341 707.104 232.021 706.266 230.18 706.278ZM228.58 713.743H231.805V711.052C231.316 711.185 230.77 711.255 230.18 711.255C229.602 711.255 229.062 711.191 228.58 711.064V713.743ZM238.076 712.347C238.089 710.646 238.609 710.125 239.485 709.592C240.006 709.274 240.412 708.767 240.412 708.056C240.412 707.192 239.739 706.646 238.901 706.646C238.178 706.646 237.454 707.078 237.378 708.119H236.223C236.286 706.583 237.454 705.682 238.901 705.682C240.488 705.682 241.529 706.71 241.529 708.106C241.529 709.097 241.06 709.795 240.272 710.277C239.485 710.76 239.193 711.242 239.168 712.347V712.41H238.076V712.347ZM238.66 715.076C238.216 715.076 237.835 714.708 237.848 714.251C237.835 713.807 238.216 713.438 238.66 713.438C239.104 713.438 239.473 713.807 239.473 714.251C239.473 714.708 239.104 715.076 238.66 715.076Z" fill="#292E34"/>
<rect x="267.5" y="669.5" width="268" height="61" rx="11.5" stroke="#E9E9E9"/>
<path d="M287.325 683.288V692.935H286.305V683.288H287.325ZM282.18 684.008C283.608 684.008 284.661 685.318 284.661 687.381C284.661 689.454 283.608 690.765 282.18 690.765C280.729 690.765 279.688 689.454 279.688 687.381C279.688 685.318 280.729 684.008 282.18 684.008ZM282.18 684.921C281.288 684.921 280.676 685.866 280.676 687.381C280.676 688.906 281.288 689.852 282.18 689.852C283.061 689.852 283.673 688.906 283.673 687.381C283.673 685.866 283.061 684.921 282.18 684.921ZM296.886 683.288V688.541H295.865V685.941H294.136V685.114H295.865V683.288H296.886ZM297.079 689.067V689.841H290.301V689.067H293.19V688.208H294.211V689.067H297.079ZM293.685 690.206C295.414 690.195 296.424 690.668 296.424 691.549C296.424 692.44 295.414 692.902 293.685 692.892C291.966 692.902 290.967 692.44 290.967 691.549C290.967 690.668 291.966 690.195 293.685 690.206ZM293.685 690.915C292.557 690.915 291.955 691.151 291.955 691.549C291.955 691.968 292.557 692.183 293.685 692.183C294.823 692.183 295.425 691.968 295.425 691.549C295.425 691.151 294.823 690.915 293.685 690.915ZM293.556 683.729V686.178H290.269V687.177C291.853 687.171 292.986 687.128 294.308 686.887L294.404 687.692C292.965 687.939 291.751 687.982 290 687.982H289.248V685.447H292.546V684.502H289.227V683.729H293.556ZM306.64 683.288V692.913H305.673V683.288H306.64ZM304.609 683.535V692.44H303.643V687.972H301.763C301.188 689.089 300.275 690.066 298.916 690.861L298.336 690.131C300.377 688.917 301.36 687.3 301.537 685.318H298.787V684.48H302.547C302.542 685.42 302.413 686.317 302.117 687.155H303.643V683.535H304.609ZM312.849 684.029C314.003 684.029 314.879 684.808 315.04 685.995H315.932V683.46H316.888V690.195H315.932V686.844H315.029C314.847 687.988 313.982 688.756 312.849 688.745C311.56 688.756 310.636 687.778 310.646 686.393C310.636 684.985 311.56 684.029 312.849 684.029ZM312.849 684.899C312.097 684.899 311.56 685.501 311.56 686.393C311.56 687.284 312.097 687.875 312.849 687.875C313.59 687.875 314.138 687.284 314.148 686.393C314.138 685.501 313.59 684.899 312.849 684.899ZM318.768 683.288V690.485H317.801V683.288H318.768ZM319.047 691.882V692.709H312.387V689.551H313.396V691.882H319.047ZM328.049 683.288V689.153H327.028V683.288H328.049ZM325.224 684.029V684.856H321.657V687.499C323.65 687.494 324.805 687.424 326.126 687.166L326.223 688.004C324.826 688.272 323.612 688.326 321.453 688.326H320.647V684.029H325.224ZM324.815 689.196C326.824 689.186 328.081 689.884 328.081 691.055C328.081 692.226 326.824 692.902 324.815 692.913C322.785 692.902 321.539 692.226 321.539 691.055C321.539 689.884 322.785 689.186 324.815 689.196ZM324.815 690.002C323.397 690.002 322.57 690.378 322.57 691.055C322.57 691.71 323.397 692.097 324.815 692.097C326.233 692.097 327.071 691.71 327.071 691.055C327.071 690.378 326.233 690.002 324.815 690.002ZM340.069 687.585V688.423H337.158V690.872H341.068V691.71H332.26V690.872H336.138V688.423H333.312V684.083H334.344V687.585H340.069ZM349.576 688.412V689.229H342.873V684.083H349.479V684.91H343.904V686.21H349.275V687.016H343.904V688.412H349.576ZM350.575 690.861V691.699H341.767V690.861H350.575ZM360.071 687.703V688.487H351.263V687.703H360.071ZM358.986 689.164V691.28H353.336V692.075H359.287V692.795H352.315V690.604H357.977V689.895H352.305V689.164H358.986ZM358.965 683.535V685.619H353.4V686.35H359.126V687.069H352.391V684.942H357.944V684.255H352.369V683.535H358.965ZM366.914 684.996C366.914 686.21 367.784 687.402 369.234 687.896L368.708 688.691C367.628 688.315 366.828 687.547 366.409 686.597C365.99 687.655 365.147 688.503 364.003 688.906L363.477 688.101C364.959 687.596 365.872 686.307 365.872 685.007V684.738H363.788V683.911H368.977V684.738H366.914V684.996ZM371.49 689.529V692.913H370.47V690.356H364.97V689.529H371.49ZM371.49 683.288V689.046H370.47V686.575H368.687V685.737H370.47V683.288H371.49ZM375.583 684.008C376.888 684.008 377.844 685.114 378 686.897H379.987V683.288H380.997V692.935H379.987V687.725H378.011C377.898 689.599 376.92 690.765 375.583 690.765C374.144 690.765 373.134 689.454 373.145 687.381C373.134 685.318 374.144 684.008 375.583 684.008ZM375.583 684.921C374.713 684.921 374.111 685.866 374.111 687.381C374.111 688.906 374.713 689.852 375.583 689.852C376.453 689.852 377.055 688.906 377.055 687.381C377.055 685.866 376.453 684.921 375.583 684.921ZM391.288 690.872V691.721H382.479V690.872H386.357V688.896H383.489V683.943H384.51V685.598H389.236V683.943H390.246V688.896H387.367V690.872H391.288ZM384.51 688.068H389.236V686.425H384.51V688.068ZM399.774 686.103V686.919H393.146V683.632H394.156V686.103H399.774ZM400.784 688.133V688.949H391.976V688.133H400.784ZM399.839 691.85V692.688H393.071V689.862H394.092V691.85H399.839ZM412.203 683.299V690.389H411.183V687.048H409.185V686.199H411.183V683.299H412.203ZM409.249 684.019C409.238 686.532 407.509 688.423 404.748 689.314L404.318 688.498C406.461 687.805 407.917 686.495 408.132 684.867H404.812V684.019H409.249ZM412.45 691.882V692.709H406.005V689.658H407.036V691.882H412.45ZM418.981 684.008C420.287 684.008 421.243 685.114 421.398 686.897H423.386V683.288H424.396V692.935H423.386V687.725H421.409C421.296 689.599 420.319 690.765 418.981 690.765C417.542 690.765 416.532 689.454 416.543 687.381C416.532 685.318 417.542 684.008 418.981 684.008ZM418.981 684.921C418.111 684.921 417.51 685.866 417.51 687.381C417.51 688.906 418.111 689.852 418.981 689.852C419.852 689.852 420.453 688.906 420.453 687.381C420.453 685.866 419.852 684.921 418.981 684.921ZM428.563 683.825V684.642H427.103V687.069C427.581 687.053 428.102 687.005 428.682 686.876L428.768 687.692C427.887 687.864 427.21 687.875 426.544 687.875H426.114V683.825H428.563ZM431.775 683.825V684.642H430.1V687.069C430.884 687.064 431.448 687.016 432.108 686.865L432.194 687.671C431.367 687.864 430.701 687.875 429.584 687.875H429.09V683.825H431.775ZM433.988 688.681V691.076H428.478V691.979H434.332V692.795H427.446V690.313H432.989V689.486H427.425V688.681H433.988ZM433.988 683.288V688.24H432.989V686.135H431.303V685.34H432.989V683.288H433.988ZM443.033 683.288V687.198H444.43V688.036H443.033V692.913H442.013V683.288H443.033ZM438.285 684.319C438.285 686.726 437.845 688.917 436.104 690.775L435.299 690.206C436.706 688.745 437.216 687.085 437.318 685.157H435.643V684.319H438.285ZM440.938 684.319C440.938 686.758 440.638 689.314 438.865 691.409L438.049 690.851C439.478 689.18 439.907 687.214 439.982 685.157H438.597V684.319H440.938ZM453.7 690.861V691.71H444.892V690.861H446.997V688.348C446.208 687.913 445.729 687.22 445.729 686.36C445.729 684.846 447.212 683.847 449.274 683.847C451.348 683.847 452.83 684.846 452.83 686.36C452.83 687.209 452.368 687.891 451.595 688.326V690.861H453.7ZM449.274 684.663C447.76 684.663 446.718 685.318 446.718 686.36C446.718 687.392 447.76 688.068 449.274 688.068C450.778 688.068 451.842 687.392 451.842 686.36C451.842 685.318 450.778 684.663 449.274 684.663ZM448.007 690.861H450.563V688.713C450.171 688.815 449.736 688.863 449.274 688.863C448.823 688.863 448.394 688.815 448.007 688.724V690.861ZM455.978 689.69C455.988 688.283 456.407 687.854 457.116 687.413C457.567 687.134 457.911 686.747 457.911 686.178C457.911 685.501 457.396 685.082 456.751 685.082C456.171 685.082 455.612 685.437 455.559 686.231H454.398C454.441 684.867 455.473 684.115 456.751 684.115C458.147 684.115 459.082 684.953 459.082 686.178C459.082 687.037 458.674 687.617 457.986 688.036C457.342 688.423 457.095 688.82 457.073 689.69V689.755H455.978V689.69ZM456.568 692.075C456.149 692.075 455.795 691.731 455.806 691.312C455.795 690.894 456.149 690.55 456.568 690.55C456.977 690.55 457.331 690.894 457.331 691.312C457.331 691.731 456.977 692.075 456.568 692.075Z" fill="#606060"/>
<path d="M283.278 708.208C283.266 710.023 284.573 712.017 286.211 712.791L285.64 713.578C284.37 712.962 283.297 711.617 282.796 710.087C282.275 711.75 281.139 713.21 279.876 713.857L279.267 713.07C280.892 712.283 282.288 710.138 282.301 708.208V706.735H279.673V705.91H285.817V706.735H283.278V708.208ZM288.191 704.742V709.312H290.083V710.163H288.191V716.028H287.201V704.742H288.191ZM300.062 704.742V716.054H299.059V710.772H295.631V709.947H299.059V708.208H295.631V707.396H299.059V704.742H300.062ZM292.317 705.999V712.562C294.152 712.556 295.555 712.493 297.142 712.169L297.243 712.994C295.567 713.324 294.133 713.426 292.178 713.426H291.314V705.999H292.317ZM311.602 704.742V716.028H310.637V704.742H311.602ZM309.329 704.983V715.457H308.377V709.973H306.93C306.822 712.169 305.889 713.54 304.492 713.54C303.02 713.54 302.067 712.017 302.067 709.617C302.067 707.218 303.02 705.694 304.492 705.694C305.863 705.694 306.79 707.021 306.917 709.147H308.377V704.983H309.329ZM304.492 706.634C303.578 706.634 302.994 707.776 303.007 709.617C302.994 711.445 303.578 712.601 304.492 712.588C305.406 712.601 305.99 711.445 305.99 709.617C305.99 707.776 305.406 706.634 304.492 706.634ZM322.824 704.742V716.028H321.872V704.742H322.824ZM320.45 705.047V715.457H319.498V710.188H317.111C316.419 711.502 315.334 712.664 313.76 713.591L313.176 712.867C315.632 711.414 316.864 709.376 317.048 707.015H313.658V706.189H318.038C318.032 707.3 317.854 708.373 317.479 709.376H319.498V705.047H320.45ZM336.396 704.742V709.401H338.287V710.227H336.396V716.028H335.405V704.742H336.396ZM334.313 706.558V707.383H327.598V706.558H330.505V704.882H331.495V706.558H334.313ZM331.013 708.322C332.612 708.322 333.768 709.389 333.78 710.912C333.768 712.436 332.612 713.502 331.013 713.502C329.4 713.502 328.232 712.436 328.245 710.912C328.232 709.389 329.4 708.322 331.013 708.322ZM331.013 709.16C329.959 709.16 329.185 709.896 329.197 710.912C329.185 711.94 329.959 712.664 331.013 712.651C332.054 712.664 332.815 711.94 332.828 710.912C332.815 709.896 332.054 709.16 331.013 709.16ZM347.948 705.885V707.015C347.936 708.398 347.936 709.947 347.529 712.22L346.514 712.105C346.945 709.947 346.945 708.36 346.945 707.015V706.71H339.988V705.885H347.948ZM349.18 713.604V714.429H338.896V713.604H342.934V709.566H343.911V713.604H349.18ZM362.713 704.755V711.026H361.723V704.755H362.713ZM357.394 706.278C357.381 707.84 358.6 709.249 360.275 709.795L359.793 710.582C358.46 710.131 357.406 709.192 356.898 707.967C356.391 709.281 355.324 710.309 353.979 710.785L353.471 709.998C355.172 709.401 356.378 707.916 356.378 706.278V705.174H357.394V706.278ZM362.789 711.699V712.512H361.228V715.063H362.903V715.876H355.096V715.063H356.784V712.512H355.197V711.699H362.789ZM357.762 715.063H360.237V712.512H357.762V715.063ZM374.913 710.696V711.509H364.63V710.696H374.913ZM373.771 714.949V715.787H365.963V712.499H366.966V714.949H373.771ZM369.771 705.148C372.196 705.136 373.758 705.974 373.758 707.383C373.758 708.792 372.196 709.63 369.771 709.63C367.321 709.63 365.772 708.792 365.772 707.383C365.772 705.974 367.321 705.136 369.771 705.148ZM369.771 705.948C367.956 705.948 366.788 706.494 366.801 707.383C366.788 708.271 367.956 708.817 369.771 708.817C371.574 708.817 372.742 708.271 372.742 707.383C372.742 706.494 371.574 705.948 369.771 705.948ZM387.951 704.742V707.192H389.652V708.03H387.951V710.493H386.961V704.742H387.951ZM384.828 705.39V709.896H379.61V705.39H384.828ZM380.588 706.202V709.097H383.863V706.202H380.588ZM387.951 711.026V713.781H381.756V715.076H388.37V715.876H380.778V713.02H386.961V711.826H380.753V711.026H387.951ZM400.646 710.696V711.509H390.363V710.696H400.646ZM399.504 714.949V715.787H391.696V712.499H392.699V714.949H399.504ZM395.505 705.148C397.93 705.136 399.491 705.974 399.491 707.383C399.491 708.792 397.93 709.63 395.505 709.63C393.055 709.63 391.506 708.792 391.506 707.383C391.506 705.974 393.055 705.136 395.505 705.148ZM395.505 705.948C393.689 705.948 392.521 706.494 392.534 707.383C392.521 708.271 393.689 708.817 395.505 708.817C397.308 708.817 398.476 708.271 398.476 707.383C398.476 706.494 397.308 705.948 395.505 705.948ZM415.183 711.306V712.131H410.473V716.028H409.495V712.131H404.849V711.306H415.183ZM413.837 705.377V709.77H406.182V705.377H413.837ZM407.159 706.189V708.982H412.847V706.189H407.159ZM425.453 704.742V712.499H424.45V708.665H422.102C421.879 710.03 420.718 710.963 419.207 710.963C417.519 710.963 416.274 709.833 416.274 708.233C416.274 706.621 417.519 705.517 419.207 705.517C420.737 705.517 421.911 706.45 422.102 707.853H424.45V704.742H425.453ZM419.207 706.367C418.052 706.367 417.227 707.167 417.227 708.233C417.227 709.338 418.052 710.112 419.207 710.112C420.312 710.112 421.162 709.338 421.162 708.233C421.162 707.167 420.312 706.367 419.207 706.367ZM422.317 712.042C422.305 713.642 424.146 714.848 426.164 715.165L425.745 715.965C424.044 715.66 422.47 714.771 421.797 713.464C421.118 714.759 419.543 715.66 417.836 715.965L417.468 715.165C419.436 714.835 421.289 713.591 421.302 712.042V711.598H422.317V712.042ZM436.65 704.755V713.007H435.66V704.755H436.65ZM437.006 714.949V715.787H429.363V712.169H430.354V714.949H437.006ZM430.557 705.542C432.245 705.542 433.515 706.685 433.515 708.31C433.515 709.96 432.245 711.09 430.557 711.09C428.868 711.09 427.599 709.96 427.599 708.31C427.599 706.685 428.868 705.542 430.557 705.542ZM430.557 706.418C429.414 706.418 428.563 707.205 428.576 708.31C428.563 709.439 429.414 710.214 430.557 710.214C431.674 710.214 432.537 709.439 432.537 708.31C432.537 707.205 431.674 706.418 430.557 706.418ZM447.302 704.742V709.338H449.13V710.176H447.302V716.028H446.312V704.742H447.302ZM444.382 705.961C444.382 709.16 442.884 712.067 439.202 713.883L438.644 713.096C441.563 711.642 443.15 709.471 443.379 706.799H439.164V705.961H444.382ZM460.137 713.743V714.581H449.803V713.743H452.367V710.696C451.402 710.195 450.818 709.382 450.818 708.36C450.818 706.608 452.532 705.466 454.944 705.453C457.356 705.466 459.07 706.608 459.07 708.36C459.07 709.363 458.505 710.169 457.572 710.671V713.743H460.137ZM454.944 706.278C453.091 706.266 451.783 707.104 451.783 708.36C451.783 709.617 453.091 710.468 454.944 710.468C456.785 710.468 458.105 709.617 458.105 708.36C458.105 707.104 456.785 706.266 454.944 706.278ZM453.345 713.743H456.569V711.052C456.081 711.185 455.535 711.255 454.944 711.255C454.367 711.255 453.827 711.191 453.345 711.064V713.743ZM462.841 712.347C462.854 710.646 463.374 710.125 464.25 709.592C464.771 709.274 465.177 708.767 465.177 708.056C465.177 707.192 464.504 706.646 463.666 706.646C462.942 706.646 462.219 707.078 462.143 708.119H460.987C461.051 706.583 462.219 705.682 463.666 705.682C465.253 705.682 466.294 706.71 466.294 708.106C466.294 709.097 465.824 709.795 465.037 710.277C464.25 710.76 463.958 711.242 463.933 712.347V712.41H462.841V712.347ZM463.425 715.076C462.98 715.076 462.6 714.708 462.612 714.251C462.6 713.807 462.98 713.438 463.425 713.438C463.869 713.438 464.237 713.807 464.237 714.251C464.237 714.708 463.869 715.076 463.425 715.076Z" fill="#292E34"/>
<circle cx="186" cy="753" r="2" fill="#00A3FF"/>
<circle cx="200" cy="753" r="2" fill="#D9D9D9"/>
<circle cx="214" cy="753" r="2" fill="#D9D9D9"/>
<circle cx="228" cy="753" r="2" fill="#D9D9D9"/>
<circle cx="242" cy="753" r="2" fill="#D9D9D9"/>
<rect width="390" height="102" transform="translate(19 764)" fill="white"/>
<path d="M54.6817 795.399V806.548H67.318V795.399M51.7085 797.629L60.9999 789.452L70.2913 797.629" stroke="#D2D6D8" stroke-width="1.85828" stroke-linecap="round" stroke-linejoin="round"/>
<path d="M64.5215 824.651V827.939H56.6631V824.651H64.5215ZM57.8564 825.578V827.013H63.3535V825.578H57.8564ZM65.207 817.605V818.532H55.9521V817.605H60.002V816.552H61.208V817.605H65.207ZM60.5986 818.938C62.998 818.938 64.3311 819.484 64.3311 820.551C64.3311 821.522 63.2202 822.062 61.208 822.15V822.925H65.791V823.877H55.4189V822.925H60.002V822.15C57.9897 822.062 56.8535 821.522 56.8662 820.551C56.8535 819.484 58.2119 818.938 60.5986 818.938ZM60.5986 819.764C59.0117 819.776 58.1484 820.03 58.1484 820.551C58.1484 821.059 59.0117 821.338 60.5986 821.338C62.1982 821.338 63.0488 821.059 63.0488 820.551C63.0488 820.03 62.1982 819.776 60.5986 819.764Z" fill="#D2D6D8"/>
<mask id="path-32-inside-1_573_8912" fill="white">
<rect x="127.5" y="787.167" width="20" height="21.6667" rx="2.08333"/>
</mask>
<rect x="127.5" y="787.167" width="20" height="21.6667" rx="2.08333" stroke="#292E34" stroke-width="5" mask="url(#path-32-inside-1_573_8912)"/>
<rect x="132.5" y="792.375" width="10" height="2.08333" rx="1.04167" fill="#292E34"/>
<rect x="132.5" y="796.958" width="10" height="2.08333" rx="1.04167" fill="#292E34"/>
<rect x="132.5" y="801.542" width="10" height="2.08333" rx="1.04167" fill="#292E34"/>
<path d="M118.123 817.58C119.488 817.58 120.522 818.5 120.713 819.903H121.767V816.907H122.896V824.867H121.767V820.906H120.7C120.484 822.258 119.462 823.166 118.123 823.153C116.6 823.166 115.508 822.011 115.521 820.373C115.508 818.71 116.6 817.58 118.123 817.58ZM118.123 818.608C117.234 818.608 116.6 819.319 116.6 820.373C116.6 821.427 117.234 822.125 118.123 822.125C118.999 822.125 119.646 821.427 119.659 820.373C119.646 819.319 118.999 818.608 118.123 818.608ZM125.118 816.704V825.21H123.976V816.704H125.118ZM125.448 826.86V827.838H117.577V824.105H118.771V826.86H125.448ZM136.087 816.704V823.636H134.881V816.704H136.087ZM132.748 817.58V818.558H128.533V821.681C130.888 821.674 132.253 821.592 133.814 821.287L133.929 822.277C132.278 822.595 130.844 822.658 128.292 822.658H127.34V817.58H132.748ZM132.266 823.687C134.64 823.674 136.125 824.499 136.125 825.883C136.125 827.267 134.64 828.066 132.266 828.079C129.866 828.066 128.394 827.267 128.394 825.883C128.394 824.499 129.866 823.674 132.266 823.687ZM132.266 824.639C130.59 824.639 129.612 825.083 129.612 825.883C129.612 826.657 130.59 827.114 132.266 827.114C133.941 827.114 134.932 826.657 134.932 825.883C134.932 825.083 133.941 824.639 132.266 824.639ZM147.119 821.782V822.772H143.679V825.667H148.3V826.657H137.89V825.667H142.473V822.772H139.134V817.644H140.353V821.782H147.119ZM158.354 822.76V823.725H150.433V817.644H158.24V818.621H151.651V820.157H157.999V821.109H151.651V822.76H158.354ZM159.535 825.654V826.645H149.125V825.654H159.535Z" fill="#292E34"/>
<path d="M228.002 803.843C227.442 803.843 227.023 803.636 226.743 803.222C226.463 802.808 226.273 802.198 226.172 801.392C226.082 800.575 226.038 799.439 226.038 797.984C226.038 796.584 226.071 795.493 226.138 794.71C226.217 793.926 226.396 793.299 226.676 792.829C226.967 792.359 227.414 792.124 228.019 792.124C228.623 792.124 229.065 792.359 229.345 792.829C229.636 793.299 229.815 793.926 229.882 794.71C229.961 795.493 230 796.584 230 797.984C230 799.36 229.938 800.474 229.815 801.325C229.703 802.164 229.502 802.796 229.211 803.222C228.92 803.636 228.517 803.843 228.002 803.843Z" fill="#D2D6D8"/>
<path d="M223.198 803.843C222.638 803.843 222.218 803.636 221.939 803.222C221.659 802.808 221.468 802.198 221.368 801.392C221.278 800.575 221.233 799.439 221.233 797.984C221.233 796.584 221.267 795.493 221.334 794.71C221.412 793.926 221.592 793.299 221.871 792.829C222.162 792.359 222.61 792.124 223.215 792.124C223.819 792.124 224.261 792.359 224.541 792.829C224.832 793.299 225.011 793.926 225.078 794.71C225.157 795.493 225.196 796.584 225.196 797.984C225.196 799.36 225.134 800.474 225.011 801.325C224.899 802.164 224.698 802.796 224.407 803.222C224.116 803.636 223.713 803.843 223.198 803.843Z" fill="#D2D6D8"/>
<path d="M216.889 803.877C216.061 803.877 215.328 803.715 214.69 803.39C214.052 803.066 213.553 802.613 213.195 802.031C212.848 801.437 212.675 800.771 212.675 800.033C212.675 799.305 212.848 798.633 213.195 798.018C213.553 797.402 214.046 796.91 214.673 796.54C215.3 796.171 216.01 795.986 216.805 795.986C217.521 795.986 218.154 796.132 218.702 796.423C219.251 796.714 219.671 797.1 219.962 797.581C220.253 798.051 220.398 798.544 220.398 799.059C220.398 799.898 220.079 800.514 219.441 800.906C218.814 801.286 218.064 801.476 217.191 801.476C216.609 801.476 216.117 801.404 215.714 801.258C216.05 801.807 216.604 802.081 217.376 802.081C217.689 802.081 218.025 802.042 218.383 801.963C218.518 801.93 218.646 801.913 218.769 801.913C219.016 801.913 219.212 801.975 219.357 802.098C219.514 802.221 219.592 802.389 219.592 802.601C219.592 802.948 219.38 803.251 218.954 803.508C218.529 803.754 217.84 803.877 216.889 803.877ZM215.764 799.21C215.865 799.367 215.999 799.484 216.167 799.562C216.346 799.63 216.542 799.663 216.755 799.663C217.001 799.663 217.214 799.607 217.393 799.495C217.583 799.383 217.678 799.238 217.678 799.059C217.678 798.857 217.594 798.684 217.426 798.538C217.27 798.393 217.04 798.32 216.738 798.32C216.436 798.32 216.195 798.415 216.016 798.605C215.848 798.785 215.764 798.986 215.764 799.21Z" fill="#D2D6D8"/>
<path d="M202.416 803.877C201.52 803.877 200.737 803.631 200.065 803.138C199.405 802.646 198.895 801.946 198.537 801.04C198.179 800.133 198 799.064 198 797.833C198 797.116 198.118 796.35 198.353 795.533C198.599 794.716 198.946 794.027 199.394 793.468C199.852 792.897 200.384 792.611 200.989 792.611C201.481 792.611 201.89 792.79 202.214 793.149C202.539 793.507 202.701 793.949 202.701 794.475C202.701 794.632 202.662 794.844 202.584 795.113C202.516 795.37 202.438 795.639 202.349 795.919C202.181 796.4 202.052 796.825 201.962 797.195C201.873 797.553 201.828 797.9 201.828 798.236C201.828 798.728 201.901 799.086 202.046 799.31C202.192 799.534 202.371 799.646 202.584 799.646C202.863 799.646 203.059 799.506 203.171 799.226C203.294 798.935 203.356 798.404 203.356 797.631L203.339 796.473C203.339 795.577 203.457 794.867 203.692 794.341C203.927 793.803 204.397 793.535 205.102 793.535C205.628 793.535 206.026 793.68 206.294 793.971C206.563 794.262 206.736 794.632 206.815 795.079C206.893 795.516 206.932 796.048 206.932 796.674V797.531C206.932 798.348 206.999 798.93 207.134 799.277C207.279 799.612 207.509 799.78 207.822 799.78C208.035 799.78 208.197 799.674 208.309 799.461C208.432 799.238 208.494 798.907 208.494 798.471C208.494 798.146 208.454 797.822 208.376 797.497C208.298 797.172 208.175 796.758 208.007 796.255C207.861 795.773 207.755 795.415 207.688 795.18C207.632 794.934 207.604 794.699 207.604 794.475C207.604 793.949 207.772 793.512 208.107 793.165C208.454 792.818 208.857 792.645 209.316 792.645C209.977 792.645 210.531 792.925 210.978 793.484C211.437 794.033 211.779 794.71 212.003 795.516C212.227 796.322 212.338 797.094 212.338 797.833C212.338 799.064 212.159 800.133 211.801 801.04C211.443 801.946 210.928 802.646 210.257 803.138C209.596 803.62 208.818 803.86 207.923 803.86C207.43 803.86 206.949 803.748 206.479 803.524C206.009 803.301 205.572 802.965 205.169 802.517C204.766 802.965 204.324 803.306 203.843 803.541C203.373 803.765 202.897 803.877 202.416 803.877Z" fill="#D2D6D8"/>
<path d="M207.291 816.717V823.356H206.135V816.717H207.291ZM205.183 816.895V823.268H204.041V822.811H202.124V822.011H204.041V816.895H205.183ZM197.502 820.855C199.039 820.855 201.578 820.83 203.469 820.538L203.558 821.325C202.809 821.478 201.997 821.573 201.184 821.63V823.331H200.016V821.706C199.121 821.744 198.29 821.75 197.617 821.757L197.502 820.855ZM207.291 823.725V826.2H200.651V827.089H207.659V827.965H199.445V825.388H206.097V824.588H199.419V823.725H207.291ZM200.549 817.021C202.06 817.034 203.038 817.644 203.038 818.672C203.038 819.688 202.06 820.31 200.549 820.297C199.039 820.31 198.061 819.688 198.061 818.672C198.061 817.644 199.039 817.034 200.549 817.021ZM200.549 817.847C199.711 817.847 199.153 818.164 199.153 818.672C199.153 819.142 199.711 819.472 200.549 819.472C201.4 819.472 201.958 819.142 201.958 818.672C201.958 818.164 201.4 817.847 200.549 817.847ZM217.663 816.704V821.109H219.491V822.1H217.663V828.104H216.457V816.704H217.663ZM214.603 817.796V818.773H210.49V824.271C212.4 824.264 213.835 824.182 215.454 823.89L215.606 824.905C213.829 825.223 212.318 825.286 210.198 825.273H209.284V817.796H214.603ZM229.469 816.717V823.445H228.263V816.717H229.469ZM225.648 823.674C228.022 823.674 229.507 824.474 229.507 825.87C229.507 827.254 228.022 828.066 225.648 828.054C223.249 828.066 221.776 827.254 221.776 825.87C221.776 824.474 223.249 823.674 225.648 823.674ZM225.648 824.626C223.972 824.613 222.995 825.058 222.995 825.87C222.995 826.657 223.972 827.102 225.648 827.102C227.324 827.102 228.314 826.657 228.314 825.87C228.314 825.058 227.324 824.613 225.648 824.626ZM223.299 817.402C225.039 817.402 226.321 818.507 226.321 820.081C226.321 821.668 225.039 822.747 223.299 822.76C221.56 822.747 220.265 821.668 220.265 820.081C220.265 818.507 221.56 817.402 223.299 817.402ZM223.299 818.431C222.22 818.418 221.446 819.078 221.446 820.081C221.446 821.084 222.22 821.731 223.299 821.744C224.366 821.731 225.14 821.084 225.14 820.081C225.14 819.078 224.366 818.418 223.299 818.431Z" fill="#D2D6D8"/>
<path d="M298.573 795.484C297.338 792.227 294.191 789.911 290.506 789.911C286.82 789.911 283.674 792.224 282.439 795.481C280.128 796.088 278.421 798.191 278.421 800.696C278.421 803.675 280.834 806.088 283.811 806.088H297.189C300.166 806.088 302.579 803.675 302.579 800.696C302.579 798.196 300.878 796.093 298.573 795.484ZM299.551 803.06C299.242 803.372 298.874 803.618 298.468 803.786C298.063 803.954 297.628 804.04 297.189 804.039H283.811C282.919 804.039 282.08 803.691 281.449 803.06C281.138 802.75 280.891 802.382 280.723 801.976C280.555 801.57 280.469 801.135 280.47 800.696C280.47 799.941 280.716 799.232 281.177 798.639C281.628 798.064 282.253 797.651 282.959 797.46L283.981 797.193L284.356 796.207C284.588 795.592 284.911 795.018 285.318 794.497C285.72 793.982 286.196 793.528 286.731 793.152C287.839 792.373 289.144 791.96 290.506 791.96C291.867 791.96 293.172 792.373 294.28 793.152C294.817 793.529 295.291 793.982 295.693 794.497C296.1 795.018 296.424 795.595 296.656 796.207L297.028 797.191L298.047 797.46C299.511 797.851 300.53 799.181 300.53 800.696C300.53 801.588 300.182 802.429 299.551 803.06Z" fill="#D2D6D8"/>
<path d="M274.221 817.859C274.208 821.211 273.116 824.194 269.079 826.251L268.406 825.337C270.399 824.315 271.631 823.09 272.316 821.643L268.635 821.998L268.444 820.957L272.697 820.69C272.869 820.106 272.977 819.484 273.027 818.837H269.028V817.859H274.221ZM277.89 816.704V828.079H276.696V822.201H274.195V821.211H276.696V816.704H277.89ZM290.052 823.204V824.194H287.5V828.143H286.294V824.194H283.438V828.143H282.231V824.194H279.642V823.204H290.052ZM288.744 817.301V821.782H280.949V817.301H288.744ZM282.13 818.266V820.817H287.538V818.266H282.13ZM300.335 816.704V828.079H299.129V816.704H300.335ZM292.781 817.809V824.144C294.438 824.131 296.184 823.998 298.012 823.623L298.177 824.639C296.158 825.045 294.33 825.185 292.54 825.185H291.588V817.809H292.781ZM308.447 817.707V818.697H304.017V820.894H308.016V821.858H304.017V824.41C306.01 824.404 307.444 824.321 309.133 824.055L309.26 825.032C307.457 825.324 305.896 825.388 303.75 825.388H302.823V817.707H308.447ZM311.583 816.704V828.079H310.364V816.704H311.583Z" fill="#D2D6D8"/>
<path d="M359.853 800.144C359.284 800.144 358.739 799.918 358.337 799.516C357.934 799.114 357.708 798.568 357.708 798C357.708 797.431 357.934 796.886 358.337 796.483C358.739 796.081 359.284 795.855 359.853 795.855C360.421 795.855 360.967 796.081 361.369 796.483C361.771 796.886 361.997 797.431 361.997 798C361.997 798.568 361.771 799.114 361.369 799.516C360.967 799.918 360.421 800.144 359.853 800.144ZM367 800.144C366.431 800.144 365.886 799.918 365.484 799.516C365.082 799.114 364.856 798.568 364.856 798C364.856 797.431 365.082 796.886 365.484 796.483C365.886 796.081 366.431 795.855 367 795.855C367.569 795.855 368.114 796.081 368.516 796.483C368.918 796.886 369.144 797.431 369.144 798C369.144 798.568 368.918 799.114 368.516 799.516C368.114 799.918 367.569 800.144 367 800.144ZM374.147 800.144C373.578 800.144 373.033 799.918 372.631 799.516C372.229 799.114 372.003 798.568 372.003 798C372.003 797.431 372.229 796.886 372.631 796.483C373.033 796.081 373.578 795.855 374.147 795.855C374.716 795.855 375.261 796.081 375.663 796.483C376.065 796.886 376.291 797.431 376.291 798C376.291 798.568 376.065 799.114 375.663 799.516C375.261 799.918 374.716 800.144 374.147 800.144Z" fill="#D2D6D8"/>
<path d="M356.195 817.758V818.761H352.196V824.309C354.101 824.302 355.415 824.232 356.906 823.94L357.046 824.931C355.408 825.235 354.024 825.312 351.879 825.312H350.978V817.758H356.195ZM359.915 816.704V828.104H358.709V821.77H355.548V820.767H358.709V816.704H359.915ZM372.064 825.667V826.67H361.654V825.667H366.237V823.331H362.848V817.479H364.054V819.434H369.64V817.479H370.833V823.331H367.431V825.667H372.064ZM364.054 822.354H369.64V820.411H364.054V822.354ZM382.348 816.704V828.079H381.129V816.704H382.348ZM378.958 817.923C378.958 821.249 377.536 824.144 373.639 826.01L373.004 825.032C376.032 823.591 377.504 821.541 377.739 818.888H373.55V817.923H378.958Z" fill="#D2D6D8"/>
<path d="M71.1963 50.8145C73.4043 50.8311 75.7285 52.1592 75.7285 56.5586C75.7285 60.7754 73.9189 63.166 71.0303 63.166C68.8223 63.166 67.2617 61.8047 66.9795 59.8457H68.7891C69.0381 60.8584 69.8184 61.5723 71.0303 61.5723C72.8896 61.5723 73.9688 59.9453 73.9854 57.2061H73.8359C73.1885 58.2188 72.0596 58.833 70.7646 58.833C68.6064 58.833 66.8799 57.1895 66.8799 54.8818C66.8799 52.5908 68.5898 50.7979 71.1963 50.8145ZM71.1963 52.3418C69.7354 52.3418 68.6562 53.4707 68.6562 54.8486C68.6562 56.2432 69.7021 57.3389 71.1631 57.3389C72.6074 57.3389 73.7363 56.1602 73.7363 54.832C73.7363 53.5371 72.6738 52.3418 71.1963 52.3418ZM78.153 61.4561C77.5055 61.4561 76.9577 60.9248 76.9743 60.2773C76.9577 59.6299 77.5055 59.0986 78.153 59.0986C78.7839 59.0986 79.3317 59.6299 79.3317 60.2773C79.3317 60.9248 78.7839 61.4561 78.153 61.4561ZM78.153 54.8984C77.5055 54.8984 76.9577 54.3672 76.9743 53.7197C76.9577 53.0723 77.5055 52.541 78.153 52.541C78.7839 52.541 79.3317 53.0723 79.3317 53.7197C79.3317 54.3672 78.7839 54.8984 78.153 54.8984ZM80.5111 60.6592V59.1816L85.8236 50.9805H88.0814V59.1152H89.725V60.6592H88.0814V63H86.3548V60.6592H80.5111ZM82.4369 59.1152H86.3548V53.1553H86.222L82.4369 59.0156V59.1152ZM95.2871 50.9805V63H93.4444V52.8066H93.378L90.5059 54.6826V52.9395L93.4942 50.9805H95.2871Z" fill="black"/>
<rect x="325.35" y="50" width="3.2" height="12" rx="1" fill="black"/>
<rect x="320.05" y="52.4004" width="3.2" height="9.6" rx="1" fill="black"/>
<rect x="314.75" y="55" width="3.2" height="7" rx="1" fill="black"/>
<rect x="309.45" y="57.4004" width="3.2" height="4.6" rx="1" fill="black"/>
<path d="M343.009 58.1338C343.712 58.1338 344.396 58.3186 344.998 58.6711L345.242 58.8139C345.427 58.9222 345.459 59.1756 345.308 59.3268L343.224 61.4045C343.096 61.5322 342.889 61.5322 342.761 61.4045L340.691 59.3402C340.54 59.1896 340.571 58.9375 340.755 58.8284L340.996 58.685C341.604 58.3236 342.296 58.1338 343.009 58.1338Z" fill="black"/>
<path d="M343.009 54.3164C344.759 54.3164 346.439 54.8969 347.807 55.972L348.001 56.1239C348.155 56.245 348.169 56.4733 348.03 56.6117L346.786 57.8521C346.671 57.9668 346.489 57.98 346.358 57.8831L346.207 57.7704C345.282 57.0833 344.168 56.7148 343.009 56.7148C341.842 56.7148 340.721 57.0879 339.794 57.7828L339.642 57.8966C339.512 57.9943 339.329 57.9814 339.213 57.8664L337.97 56.6264C337.831 56.4883 337.845 56.2606 337.998 56.1393L338.19 55.9872C339.562 54.9026 341.25 54.3164 343.009 54.3164Z" fill="black"/>
<path d="M343.009 50.5C345.786 50.5 348.442 51.4796 350.544 53.2752L350.723 53.4285C350.868 53.5524 350.877 53.7731 350.742 53.9078L349.502 55.1441C349.382 55.2639 349.19 55.2723 349.06 55.1635L348.906 55.0351C347.251 53.6512 345.177 52.8984 343.009 52.8984C340.833 52.8984 338.752 53.6564 337.095 55.049L336.941 55.178C336.811 55.2873 336.619 55.2791 336.498 55.1591L335.259 53.9229C335.124 53.7885 335.132 53.5681 335.277 53.4441L335.455 53.2908C337.56 51.4855 340.223 50.5 343.009 50.5Z" fill="black"/>
<rect x="359" y="51.5" width="21" height="9" rx="1.33" fill="black"/>
<path opacity="0.4" fill-rule="evenodd" clip-rule="evenodd" d="M362.6 50.5H376.4C377.397 50.5 378.084 50.5008 378.617 50.5444C379.139 50.587 379.425 50.6655 379.635 50.7725C380.105 51.0122 380.488 51.3946 380.728 51.865C380.834 52.0749 380.913 52.3608 380.956 52.8826C380.999 53.4161 381 54.1034 381 55.1V56.9C381 57.8966 380.999 58.5839 380.956 59.1174C380.913 59.6392 380.834 59.9251 380.728 60.135C380.488 60.6054 380.105 60.9878 379.635 61.2275C379.425 61.3345 379.139 61.413 378.617 61.4556C378.084 61.4992 377.397 61.5 376.4 61.5H362.6C361.603 61.5 360.916 61.4992 360.383 61.4556C359.861 61.413 359.575 61.3345 359.365 61.2275C358.895 60.9878 358.512 60.6054 358.272 60.135C358.166 59.9251 358.087 59.6392 358.044 59.1174C358.001 58.5839 358 57.8966 358 56.9V55.1C358 54.1034 358.001 53.4161 358.044 52.8826C358.087 52.3608 358.166 52.0749 358.272 51.865C358.512 51.3946 358.895 51.0122 359.365 50.7725C359.575 50.6655 359.861 50.587 360.383 50.5444C360.916 50.5008 361.603 50.5 362.6 50.5ZM357 55.1C357 53.1398 357 52.1597 357.381 51.411C357.717 50.7525 358.252 50.217 358.911 49.8815C359.66 49.5 360.64 49.5 362.6 49.5H376.4C378.36 49.5 379.34 49.5 380.089 49.8815C380.748 50.217 381.283 50.7525 381.619 51.411C382 52.1597 382 53.1398 382 55.1V56.9C382 58.8602 382 59.8403 381.619 60.589C381.283 61.2475 380.748 61.783 380.089 62.1185C379.34 62.5 378.36 62.5 376.4 62.5H362.6C360.64 62.5 359.66 62.5 358.911 62.1185C358.252 61.783 357.717 61.2475 357.381 60.589C357 59.8403 357 58.8602 357 56.9V55.1ZM383 58C383.828 57.8 384.5 57.1046 384.5 56C384.5 54.8954 383.828 54.2 383 54L383 56L383 58Z" fill="black"/>
<rect x="177" y="47" width="74" height="20" rx="10" fill="black"/>
<rect x="144" y="848" width="140" height="6" rx="3" fill="black"/>
</g>
<rect x="13" y="13" width="402" height="856" rx="66" stroke="black" stroke-width="12"/>
<defs>
<filter id="filter0_di_573_8912" x="149.535" y="409.093" width="23.4417" height="49.8138" filterUnits="userSpaceOnUse" color-interpolation-filters="sRGB">
<feFlood flood-opacity="0" result="BackgroundImageFix"/>
<feColorMatrix in="SourceAlpha" type="matrix" values="0 0 0 0 0 0 0 0 0 0 0 0 0 0 0 0 0 0 127 0" result="hardAlpha"/>
<feMorphology radius="4.39535" operator="dilate" in="SourceAlpha" result="effect1_dropShadow_573_8912"/>
<feOffset/>
<feGaussianBlur stdDeviation="2.19767"/>
<feComposite in2="hardAlpha" operator="out"/>
<feColorMatrix type="matrix" values="0 0 0 0 1 0 0 0 0 1 0 0 0 0 1 0 0 0 1 0"/>
<feBlend mode="normal" in2="BackgroundImageFix" result="effect1_dropShadow_573_8912"/>
<feBlend mode="normal" in="SourceGraphic" in2="effect1_dropShadow_573_8912" result="shape"/>
<feColorMatrix in="SourceAlpha" type="matrix" values="0 0 0 0 0 0 0 0 0 0 0 0 0 0 0 0 0 0 127 0" result="hardAlpha"/>
<feOffset dy="0.732558"/>
<feGaussianBlur stdDeviation="0.366279"/>
<feComposite in2="hardAlpha" operator="arithmetic" k2="-1" k3="1"/>
<feColorMatrix type="matrix" values="0 0 0 0 1 0 0 0 0 1 0 0 0 0 1 0 0 0 0.7 0"/>
<feBlend mode="normal" in2="shape" result="effect2_innerShadow_573_8912"/>
</filter>
<filter id="filter1_di_573_8912" x="162.721" y="396.64" width="23.4417" height="74.721" filterUnits="userSpaceOnUse" color-interpolation-filters="sRGB">
<feFlood flood-opacity="0" result="BackgroundImageFix"/>
<feColorMatrix in="SourceAlpha" type="matrix" values="0 0 0 0 0 0 0 0 0 0 0 0 0 0 0 0 0 0 127 0" result="hardAlpha"/>
<feMorphology radius="4.39535" operator="dilate" in="SourceAlpha" result="effect1_dropShadow_573_8912"/>
<feOffset/>
<feGaussianBlur stdDeviation="2.19767"/>
<feComposite in2="hardAlpha" operator="out"/>
<feColorMatrix type="matrix" values="0 0 0 0 1 0 0 0 0 1 0 0 0 0 1 0 0 0 1 0"/>
<feBlend mode="normal" in2="BackgroundImageFix" result="effect1_dropShadow_573_8912"/>
<feBlend mode="normal" in="SourceGraphic" in2="effect1_dropShadow_573_8912" result="shape"/>
<feColorMatrix in="SourceAlpha" type="matrix" values="0 0 0 0 0 0 0 0 0 0 0 0 0 0 0 0 0 0 127 0" result="hardAlpha"/>
<feOffset dy="0.732558"/>
<feGaussianBlur stdDeviation="0.366279"/>
<feComposite in2="hardAlpha" operator="arithmetic" k2="-1" k3="1"/>
<feColorMatrix type="matrix" values="0 0 0 0 1 0 0 0 0 1 0 0 0 0 1 0 0 0 0.7 0"/>
<feBlend mode="normal" in2="shape" result="effect2_innerShadow_573_8912"/>
</filter>
<filter id="filter2_di_573_8912" x="175.907" y="400.668" width="23.4417" height="66.6624" filterUnits="userSpaceOnUse" color-interpolation-filters="sRGB">
<feFlood flood-opacity="0" result="BackgroundImageFix"/>
<feColorMatrix in="SourceAlpha" type="matrix" values="0 0 0 0 0 0 0 0 0 0 0 0 0 0 0 0 0 0 127 0" result="hardAlpha"/>
<feMorphology radius="4.39535" operator="dilate" in="SourceAlpha" result="effect1_dropShadow_573_8912"/>
<feOffset/>
<feGaussianBlur stdDeviation="2.19767"/>
<feComposite in2="hardAlpha" operator="out"/>
<feColorMatrix type="matrix" values="0 0 0 0 1 0 0 0 0 1 0 0 0 0 1 0 0 0 1 0"/>
<feBlend mode="normal" in2="BackgroundImageFix" result="effect1_dropShadow_573_8912"/>
<feBlend mode="normal" in="SourceGraphic" in2="effect1_dropShadow_573_8912" result="shape"/>
<feColorMatrix in="SourceAlpha" type="matrix" values="0 0 0 0 0 0 0 0 0 0 0 0 0 0 0 0 0 0 127 0" result="hardAlpha"/>
<feOffset dy="0.732558"/>
<feGaussianBlur stdDeviation="0.366279"/>
<feComposite in2="hardAlpha" operator="arithmetic" k2="-1" k3="1"/>
<feColorMatrix type="matrix" values="0 0 0 0 1 0 0 0 0 1 0 0 0 0 1 0 0 0 0.7 0"/>
<feBlend mode="normal" in2="shape" result="effect2_innerShadow_573_8912"/>
</filter>
<filter id="filter3_di_573_8912" x="189.093" y="404.331" width="23.4417" height="59.3373" filterUnits="userSpaceOnUse" color-interpolation-filters="sRGB">
<feFlood flood-opacity="0" result="BackgroundImageFix"/>
<feColorMatrix in="SourceAlpha" type="matrix" values="0 0 0 0 0 0 0 0 0 0 0 0 0 0 0 0 0 0 127 0" result="hardAlpha"/>
<feMorphology radius="4.39535" operator="dilate" in="SourceAlpha" result="effect1_dropShadow_573_8912"/>
<feOffset/>
<feGaussianBlur stdDeviation="2.19767"/>
<feComposite in2="hardAlpha" operator="out"/>
<feColorMatrix type="matrix" values="0 0 0 0 1 0 0 0 0 1 0 0 0 0 1 0 0 0 1 0"/>
<feBlend mode="normal" in2="BackgroundImageFix" result="effect1_dropShadow_573_8912"/>
<feBlend mode="normal" in="SourceGraphic" in2="effect1_dropShadow_573_8912" result="shape"/>
<feColorMatrix in="SourceAlpha" type="matrix" values="0 0 0 0 0 0 0 0 0 0 0 0 0 0 0 0 0 0 127 0" result="hardAlpha"/>
<feOffset dy="0.732558"/>
<feGaussianBlur stdDeviation="0.366279"/>
<feComposite in2="hardAlpha" operator="arithmetic" k2="-1" k3="1"/>
<feColorMatrix type="matrix" values="0 0 0 0 1 0 0 0 0 1 0 0 0 0 1 0 0 0 0.7 0"/>
<feBlend mode="normal" in2="shape" result="effect2_innerShadow_573_8912"/>
</filter>
<filter id="filter4_di_573_8912" x="202.279" y="404.331" width="23.4417" height="59.3373" filterUnits="userSpaceOnUse" color-interpolation-filters="sRGB">
<feFlood flood-opacity="0" result="BackgroundImageFix"/>
<feColorMatrix in="SourceAlpha" type="matrix" values="0 0 0 0 0 0 0 0 0 0 0 0 0 0 0 0 0 0 127 0" result="hardAlpha"/>
<feMorphology radius="4.39535" operator="dilate" in="SourceAlpha" result="effect1_dropShadow_573_8912"/>
<feOffset/>
<feGaussianBlur stdDeviation="2.19767"/>
<feComposite in2="hardAlpha" operator="out"/>
<feColorMatrix type="matrix" values="0 0 0 0 1 0 0 0 0 1 0 0 0 0 1 0 0 0 1 0"/>
<feBlend mode="normal" in2="BackgroundImageFix" result="effect1_dropShadow_573_8912"/>
<feBlend mode="normal" in="SourceGraphic" in2="effect1_dropShadow_573_8912" result="shape"/>
<feColorMatrix in="SourceAlpha" type="matrix" values="0 0 0 0 0 0 0 0 0 0 0 0 0 0 0 0 0 0 127 0" result="hardAlpha"/>
<feOffset dy="0.732558"/>
<feGaussianBlur stdDeviation="0.366279"/>
<feComposite in2="hardAlpha" operator="arithmetic" k2="-1" k3="1"/>
<feColorMatrix type="matrix" values="0 0 0 0 1 0 0 0 0 1 0 0 0 0 1 0 0 0 0.7 0"/>
<feBlend mode="normal" in2="shape" result="effect2_innerShadow_573_8912"/>
</filter>
<filter id="filter5_di_573_8912" x="215.465" y="409.826" width="23.4417" height="48.349" filterUnits="userSpaceOnUse" color-interpolation-filters="sRGB">
<feFlood flood-opacity="0" result="BackgroundImageFix"/>
<feColorMatrix in="SourceAlpha" type="matrix" values="0 0 0 0 0 0 0 0 0 0 0 0 0 0 0 0 0 0 127 0" result="hardAlpha"/>
<feMorphology radius="4.39535" operator="dilate" in="SourceAlpha" result="effect1_dropShadow_573_8912"/>
<feOffset/>
<feGaussianBlur stdDeviation="2.19767"/>
<feComposite in2="hardAlpha" operator="out"/>
<feColorMatrix type="matrix" values="0 0 0 0 1 0 0 0 0 1 0 0 0 0 1 0 0 0 1 0"/>
<feBlend mode="normal" in2="BackgroundImageFix" result="effect1_dropShadow_573_8912"/>
<feBlend mode="normal" in="SourceGraphic" in2="effect1_dropShadow_573_8912" result="shape"/>
<feColorMatrix in="SourceAlpha" type="matrix" values="0 0 0 0 0 0 0 0 0 0 0 0 0 0 0 0 0 0 127 0" result="hardAlpha"/>
<feOffset dy="0.732558"/>
<feGaussianBlur stdDeviation="0.366279"/>
<feComposite in2="hardAlpha" operator="arithmetic" k2="-1" k3="1"/>
<feColorMatrix type="matrix" values="0 0 0 0 1 0 0 0 0 1 0 0 0 0 1 0 0 0 0.7 0"/>
<feBlend mode="normal" in2="shape" result="effect2_innerShadow_573_8912"/>
</filter>
<filter id="filter6_di_573_8912" x="228.651" y="417.884" width="23.4417" height="32.2328" filterUnits="userSpaceOnUse" color-interpolation-filters="sRGB">
<feFlood flood-opacity="0" result="BackgroundImageFix"/>
<feColorMatrix in="SourceAlpha" type="matrix" values="0 0 0 0 0 0 0 0 0 0 0 0 0 0 0 0 0 0 127 0" result="hardAlpha"/>
<feMorphology radius="4.39535" operator="dilate" in="SourceAlpha" result="effect1_dropShadow_573_8912"/>
<feOffset/>
<feGaussianBlur stdDeviation="2.19767"/>
<feComposite in2="hardAlpha" operator="out"/>
<feColorMatrix type="matrix" values="0 0 0 0 1 0 0 0 0 1 0 0 0 0 1 0 0 0 1 0"/>
<feBlend mode="normal" in2="BackgroundImageFix" result="effect1_dropShadow_573_8912"/>
<feBlend mode="normal" in="SourceGraphic" in2="effect1_dropShadow_573_8912" result="shape"/>
<feColorMatrix in="SourceAlpha" type="matrix" values="0 0 0 0 0 0 0 0 0 0 0 0 0 0 0 0 0 0 127 0" result="hardAlpha"/>
<feOffset dy="0.732558"/>
<feGaussianBlur stdDeviation="0.366279"/>
<feComposite in2="hardAlpha" operator="arithmetic" k2="-1" k3="1"/>
<feColorMatrix type="matrix" values="0 0 0 0 1 0 0 0 0 1 0 0 0 0 1 0 0 0 0.7 0"/>
<feBlend mode="normal" in2="shape" result="effect2_innerShadow_573_8912"/>
</filter>
<filter id="filter7_di_573_8912" x="241.837" y="408.361" width="23.4417" height="51.2787" filterUnits="userSpaceOnUse" color-interpolation-filters="sRGB">
<feFlood flood-opacity="0" result="BackgroundImageFix"/>
<feColorMatrix in="SourceAlpha" type="matrix" values="0 0 0 0 0 0 0 0 0 0 0 0 0 0 0 0 0 0 127 0" result="hardAlpha"/>
<feMorphology radius="4.39535" operator="dilate" in="SourceAlpha" result="effect1_dropShadow_573_8912"/>
<feOffset/>
<feGaussianBlur stdDeviation="2.19767"/>
<feComposite in2="hardAlpha" operator="out"/>
<feColorMatrix type="matrix" values="0 0 0 0 1 0 0 0 0 1 0 0 0 0 1 0 0 0 1 0"/>
<feBlend mode="normal" in2="BackgroundImageFix" result="effect1_dropShadow_573_8912"/>
<feBlend mode="normal" in="SourceGraphic" in2="effect1_dropShadow_573_8912" result="shape"/>
<feColorMatrix in="SourceAlpha" type="matrix" values="0 0 0 0 0 0 0 0 0 0 0 0 0 0 0 0 0 0 127 0" result="hardAlpha"/>
<feOffset dy="0.732558"/>
<feGaussianBlur stdDeviation="0.366279"/>
<feComposite in2="hardAlpha" operator="arithmetic" k2="-1" k3="1"/>
<feColorMatrix type="matrix" values="0 0 0 0 1 0 0 0 0 1 0 0 0 0 1 0 0 0 0.7 0"/>
<feBlend mode="normal" in2="shape" result="effect2_innerShadow_573_8912"/>
</filter>
<filter id="filter8_di_573_8912" x="255.023" y="403.599" width="23.4417" height="60.8021" filterUnits="userSpaceOnUse" color-interpolation-filters="sRGB">
<feFlood flood-opacity="0" result="BackgroundImageFix"/>
<feColorMatrix in="SourceAlpha" type="matrix" values="0 0 0 0 0 0 0 0 0 0 0 0 0 0 0 0 0 0 127 0" result="hardAlpha"/>
<feMorphology radius="4.39535" operator="dilate" in="SourceAlpha" result="effect1_dropShadow_573_8912"/>
<feOffset/>
<feGaussianBlur stdDeviation="2.19767"/>
<feComposite in2="hardAlpha" operator="out"/>
<feColorMatrix type="matrix" values="0 0 0 0 1 0 0 0 0 1 0 0 0 0 1 0 0 0 1 0"/>
<feBlend mode="normal" in2="BackgroundImageFix" result="effect1_dropShadow_573_8912"/>
<feBlend mode="normal" in="SourceGraphic" in2="effect1_dropShadow_573_8912" result="shape"/>
<feColorMatrix in="SourceAlpha" type="matrix" values="0 0 0 0 0 0 0 0 0 0 0 0 0 0 0 0 0 0 127 0" result="hardAlpha"/>
<feOffset dy="0.732558"/>
<feGaussianBlur stdDeviation="0.366279"/>
<feComposite in2="hardAlpha" operator="arithmetic" k2="-1" k3="1"/>
<feColorMatrix type="matrix" values="0 0 0 0 1 0 0 0 0 1 0 0 0 0 1 0 0 0 0.7 0"/>
<feBlend mode="normal" in2="shape" result="effect2_innerShadow_573_8912"/>
</filter>
<radialGradient id="paint0_radial_573_8912" cx="0" cy="0" r="1" gradientUnits="userSpaceOnUse" gradientTransform="translate(214 434) rotate(90) scale(139)">
<stop stop-color="#64A2FF"/>
<stop offset="0.83" stop-color="#64A2FF" stop-opacity="0"/>
</radialGradient>
<radialGradient id="paint1_radial_573_8912" cx="0" cy="0" r="1" gradientUnits="userSpaceOnUse" gradientTransform="translate(63 35.8953) rotate(90) scale(35.8953 63)">
<stop stop-color="#64A2FF"/>
<stop offset="1" stop-color="#CFF3FF" stop-opacity="0"/>
</radialGradient>
<linearGradient id="paint2_linear_573_8912" x1="161.323" y1="418.976" x2="161.323" y2="449.194" gradientUnits="userSpaceOnUse">
<stop stop-color="#A0CBFF"/>
<stop offset="1" stop-color="#0075FF"/>
</linearGradient>
<linearGradient id="paint3_linear_573_8912" x1="174.509" y1="407.367" x2="174.509" y2="460.936" gradientUnits="userSpaceOnUse">
<stop stop-color="#A0CBFF"/>
<stop offset="1" stop-color="#0075FF"/>
</linearGradient>
<linearGradient id="paint4_linear_573_8912" x1="187.695" y1="411.123" x2="187.695" y2="457.136" gradientUnits="userSpaceOnUse">
<stop stop-color="#A0CBFF"/>
<stop offset="1" stop-color="#0075FF"/>
</linearGradient>
<linearGradient id="paint5_linear_573_8912" x1="200.881" y1="414.537" x2="200.881" y2="453.683" gradientUnits="userSpaceOnUse">
<stop stop-color="#A0CBFF"/>
<stop offset="1" stop-color="#0075FF"/>
</linearGradient>
<linearGradient id="paint6_linear_573_8912" x1="214.067" y1="414.537" x2="214.067" y2="453.683" gradientUnits="userSpaceOnUse">
<stop stop-color="#A0CBFF"/>
<stop offset="1" stop-color="#0075FF"/>
</linearGradient>
<linearGradient id="paint7_linear_573_8912" x1="227.253" y1="419.659" x2="227.253" y2="448.504" gradientUnits="userSpaceOnUse">
<stop stop-color="#A0CBFF"/>
<stop offset="1" stop-color="#0075FF"/>
</linearGradient>
<linearGradient id="paint8_linear_573_8912" x1="240.439" y1="427.171" x2="240.439" y2="440.907" gradientUnits="userSpaceOnUse">
<stop stop-color="#A0CBFF"/>
<stop offset="1" stop-color="#0075FF"/>
</linearGradient>
<linearGradient id="paint9_linear_573_8912" x1="253.625" y1="418.294" x2="253.625" y2="449.885" gradientUnits="userSpaceOnUse">
<stop stop-color="#A0CBFF"/>
<stop offset="1" stop-color="#0075FF"/>
</linearGradient>
<linearGradient id="paint10_linear_573_8912" x1="266.811" y1="413.855" x2="266.811" y2="454.374" gradientUnits="userSpaceOnUse">
<stop stop-color="#A0CBFF"/>
<stop offset="1" stop-color="#0075FF"/>
</linearGradient>
<clipPath id="clip0_573_8912">
<rect x="19" y="19" width="390" height="844" rx="60" fill="white"/>
</clipPath>
</defs>
</svg>
