<svg width="503" height="236" viewBox="0 0 503 236" fill="none" xmlns="http://www.w3.org/2000/svg">
<rect width="503" height="236" rx="20" fill="white"/>
<path d="M39.4102 28.0234V45.8359H36.8906V28.0234H39.4102ZM34.2539 29.5859V31.6172H28.1016V39.4883C31.2852 39.4785 33.2383 39.4102 35.4844 39L35.7188 41.0508C33.2578 41.5195 30.9922 41.5977 27.1445 41.5977H25.6016V29.5859H34.2539ZM48.707 32.8672C48.707 35.7383 50.1719 38.8047 53.1602 40.0547L51.8125 42.0078C49.7129 41.1191 48.2676 39.3516 47.4766 37.1836C46.666 39.5371 45.1914 41.4902 43.1016 42.457L41.6758 40.4844C44.625 39.1758 46.1484 35.875 46.1484 32.8672V31.7734H42.3789V29.7422H52.418V31.7734H48.707V32.8672ZM56.6953 28.0234V45.7969H54.1758V28.0234H56.6953ZM68.1797 29V30.9531H62.418V32.0469H67.6523V33.9023H62.418V35.1133C65.0352 35.1133 66.793 35.0742 68.8242 34.7617L69 36.7148C66.6367 37.0664 64.625 37.0859 61.3242 37.0859H59.9375V29H68.1797ZM74.0781 28.0234V37.4375H71.5977V33.7656H68.707V31.8125H71.5977V28.0234H74.0781ZM74.0781 38.082V42.75H64.7617V43.7656H74.6055V45.6797H62.2617V40.9531H71.5977V39.9961H62.2422V38.082H74.0781ZM87.5547 32.8672C87.5352 35.582 88.9805 38.707 91.9102 40.0547L90.5234 42.0078C88.541 41.0996 87.125 39.2832 86.3438 37.1445C85.543 39.498 84.0879 41.4902 82.0273 42.457L80.582 40.4844C83.5508 39.0977 85.0352 35.7969 85.0547 32.8672V31.7734H81.2852V29.7422H91.1289V31.7734H87.5547V32.8672ZM95.0156 28.0234V34.8008H97.6328V36.8906H95.0156V45.7969H92.5156V28.0234H95.0156ZM104.84 31.0703C104.82 33.3359 106.109 35.543 109 36.4805L107.691 38.4336C105.748 37.7793 104.41 36.5 103.648 34.8789C102.848 36.666 101.432 38.0625 99.3711 38.7656L97.9844 36.793C101.012 35.8555 102.32 33.4727 102.34 31.0508V29.1172H104.84V31.0703ZM112.379 28.0234V33.1602H114.781V35.2695H112.379V41.0508H109.879V28.0234H112.379ZM113.043 43.4922V45.4844H100.836V39.7617H103.375V43.4922H113.043ZM123.668 28.2773C127.75 28.2773 130.113 29.3516 130.133 31.3047C130.113 33.2773 127.75 34.3516 123.668 34.3516C119.566 34.3516 117.184 33.2773 117.184 31.3047C117.184 29.3516 119.566 28.2773 123.668 28.2773ZM123.668 30.0938C121.051 30.0938 119.781 30.5234 119.801 31.3047C119.781 32.1836 121.051 32.5156 123.668 32.5156C126.305 32.5156 127.555 32.1836 127.555 31.3047C127.555 30.5234 126.305 30.0938 123.668 30.0938ZM131.773 35.1914V37.1641H115.562V35.1914H131.773ZM129.801 38.1992V42.7305H119.898V43.8047H130.27V45.6797H117.457V40.9922H127.34V40.0156H117.438V38.1992H129.801ZM153.727 41.6953V43.7266H137.457V41.6953H144.312V38.4141H139.176V29.1562H141.676V31.9102H149.43V29.1562H151.91V38.4141H146.793V41.6953H153.727ZM141.676 36.4219H149.43V33.9023H141.676V36.4219ZM164.703 29.3125V30.4258C164.703 31.6562 164.703 33.4336 164.293 35.6406L161.852 35.4062C162.164 33.6973 162.242 32.4082 162.262 31.3438H155.562V29.3125H164.703ZM160.289 33.4141V36.8125C162.057 36.7441 163.873 36.6074 165.543 36.3633L165.68 38.1602C161.988 38.8438 157.809 38.9023 154.723 38.9219L154.508 36.9297C155.504 36.9297 156.627 36.9297 157.809 36.8906V33.4141H160.289ZM169.059 28.0234V33.4336H171.207V35.5234H169.059V41.3242H166.5V28.0234H169.059ZM169.605 43.4922V45.4844H157.125V40.1328H159.625V43.4922H169.605ZM186.051 28.0234V34.9766H188.668V37.0273H186.051V45.7969H183.59V28.0234H186.051ZM182.379 30.6797V32.6719H171.93V30.6797H175.953V28.2969H178.453V30.6797H182.379ZM177.203 33.668C179.801 33.668 181.734 35.4258 181.734 37.9062C181.734 40.3867 179.801 42.1445 177.203 42.1445C174.586 42.1445 172.652 40.3867 172.652 37.9062C172.652 35.4258 174.586 33.668 177.203 33.668ZM177.203 35.6797C175.953 35.6992 175.035 36.5391 175.035 37.9062C175.035 39.293 175.953 40.1133 177.203 40.0938C178.453 40.1133 179.352 39.293 179.352 37.9062C179.352 36.5391 178.453 35.6992 177.203 35.6797ZM203.961 29.5664V31.2461C203.961 33.4727 203.961 35.9727 203.238 39.7422L200.738 39.4883C201.412 36.1289 201.441 33.6289 201.461 31.5391H190.992V29.5664H203.961ZM205.523 41.5977V43.6289H189.312V41.5977H195.113V35.4844H197.594V41.5977H205.523ZM217.672 39.4297C217.672 40.8652 218.268 42.3398 219.723 43.3164C221.188 42.2812 221.832 40.748 221.832 39.4297V38.8242H224.293V39.4297C224.273 41.2852 225.27 43.0039 227.633 43.7266L226.422 45.543C224.723 44.9668 223.609 43.8828 223.004 42.5156C222.408 43.8828 221.373 45.0742 219.781 45.6992C218.102 45.0938 217.057 43.9414 216.48 42.5742C215.855 43.9023 214.762 44.9766 213.141 45.543L211.91 43.7266C214.254 42.9258 215.23 41.168 215.25 39.4297V38.8242H217.672V39.4297ZM226.09 28.043V38.082H223.59V28.043H226.09ZM216.344 28.9414C219.117 28.9414 221.207 30.6992 221.207 33.2188C221.207 35.6992 219.117 37.457 216.344 37.457C213.57 37.457 211.48 35.6992 211.48 33.2188C211.48 30.6992 213.57 28.9414 216.344 28.9414ZM216.344 31.0312C214.918 31.0312 213.902 31.8516 213.922 33.2188C213.902 34.5664 214.918 35.3867 216.344 35.3867C217.73 35.3867 218.746 34.5664 218.746 33.2188C218.746 31.8516 217.73 31.0312 216.344 31.0312ZM232.848 38.6875V40.1914H240.172V38.6875H242.652V45.6016H230.387V38.6875H232.848ZM232.848 43.6484H240.172V42.0859H232.848V43.6484ZM244.703 35.7773V37.7891H228.492V35.7773H244.703ZM237.887 28.8047C237.887 30.582 239.938 32.5938 243.902 33.043L243.023 34.9961C239.957 34.6055 237.74 33.3359 236.598 31.6172C235.455 33.3359 233.229 34.6055 230.191 34.9961L229.293 33.043C233.258 32.5742 235.309 30.6211 235.328 28.8047V28.1992H237.887V28.8047ZM260.719 28.0234V45.7969H258.238V28.0234H260.719ZM249.195 29.7227V39.2734C251.598 39.2441 254.176 39.0195 256.793 38.5117L257.105 40.5625C253.98 41.207 251.051 41.4219 248.297 41.4023H246.734V29.7227H249.195ZM277.086 28.0234V34.625H279.703V36.6562H277.086V45.8359H274.586V28.0234H277.086ZM272.105 29.6641V31.6758H266.246V39.4688C268.824 39.4395 270.953 39.3223 273.316 38.9023L273.59 40.9922C270.836 41.4609 268.414 41.5391 265.27 41.5195H263.766V29.6641H272.105Z" fill="#292E34"/>
<path d="M33.5088 77.8848V79.0146C33.4961 80.3984 33.4961 81.9473 33.0898 84.2197L32.0742 84.1055C32.5059 81.9473 32.5059 80.3604 32.5059 79.0146V78.71H25.5488V77.8848H33.5088ZM34.7402 85.6035V86.4287H24.457V85.6035H28.4941V81.5664H29.4717V85.6035H34.7402ZM45.2773 76.7549V83.4072H44.3252V80.4238H42.7891V83.3311H41.8369V76.9707H42.7891V79.5986H44.3252V76.7549H45.2773ZM45.2773 83.9277V88.0283H44.2998V84.7402H37.6602V83.9277H45.2773ZM40.6436 77.5801C40.6436 80.2715 39.1201 82.3154 36.251 83.5342L35.7559 82.7852C38.0981 81.8267 39.4248 80.3032 39.6152 78.4053H36.2129V77.5801H40.6436ZM56.2334 76.7422V83.1533H55.2559V76.7422H56.2334ZM48.6416 77.415V81.4395C50.5078 81.4331 52.1836 81.3062 53.9736 80.9189L54.126 81.7568C52.2217 82.1377 50.5078 82.2773 48.5527 82.29H47.6387V77.415H48.6416ZM56.2334 83.6738V87.876H48.9082V83.6738H56.2334ZM49.8857 84.4736V87.0635H55.2559V84.4736H49.8857ZM67.4688 76.7422V88.0537H66.4658V76.7422H67.4688ZM61.4639 77.6182C63.1396 77.6309 64.3457 79.1543 64.3457 81.5537C64.3457 83.9531 63.1396 85.4766 61.4639 85.4766C59.7754 85.4766 58.582 83.9531 58.582 81.5537C58.582 79.1543 59.7754 77.6309 61.4639 77.6182ZM61.4639 78.5068C60.334 78.5195 59.5469 79.7129 59.5469 81.5537C59.5469 83.3945 60.334 84.5879 61.4639 84.5879C62.5938 84.5879 63.3809 83.3945 63.3809 81.5537C63.3809 79.7129 62.5938 78.5195 61.4639 78.5068ZM81.7256 79.7764V80.5762H78.2979V81.668H82.9443V82.4805H72.6611V81.668H77.3076V80.5762H74.0322V77.1865H81.6113V78.0117H75.0352V79.7764H81.7256ZM81.624 83.4453V85.959H74.9209V87.1016H81.9668V87.9014H73.9307V85.2227H80.6465V84.207H73.9053V83.4453H81.624ZM86.918 77.6182C88.5811 77.6309 89.7617 79.1543 89.7744 81.5537C89.7617 83.9531 88.5811 85.4766 86.918 85.4766C85.2422 85.4766 84.0742 83.9531 84.0742 81.5537C84.0742 79.1543 85.2422 77.6309 86.918 77.6182ZM86.918 78.5068C85.8008 78.5195 85.0137 79.7129 85.0137 81.5537C85.0137 83.3945 85.8008 84.5879 86.918 84.5879C88.0479 84.5879 88.8096 83.3945 88.8096 81.5537C88.8096 79.7129 88.0479 78.5195 86.918 78.5068ZM92.6309 76.7422V81.249H94.5225V82.1123H92.6309V88.0283H91.6406V76.7422H92.6309ZM103.866 76.7422V81.3379H105.694V82.1758H103.866V88.0283H102.876V76.7422H103.866ZM100.946 77.9609C100.946 81.1602 99.4482 84.0674 95.7666 85.8828L95.208 85.0957C98.1279 83.6421 99.7148 81.4712 99.9434 78.7988H95.7285V77.9609H100.946ZM115.686 76.7549V85.0322H114.695V76.7549H115.686ZM116.041 86.9492V87.7871H108.398V84.2705H109.389V86.9492H116.041ZM110.366 78.5195C110.354 80.2334 111.534 81.7822 113.21 82.3916L112.689 83.1914C111.382 82.6899 110.366 81.6743 109.871 80.373C109.37 81.7568 108.341 82.8677 107.027 83.3945L106.481 82.6201C108.195 81.96 109.351 80.2969 109.351 78.5195V77.3896H110.366V78.5195ZM130.552 78.0371V78.8623H121.398V78.0371H125.512V76.6787H126.489V78.0371H130.552ZM131.199 84.0547V84.8799H126.489V88.0537H125.512V84.8799H120.865V84.0547H131.199ZM126.007 79.5098C128.305 79.5098 129.688 80.1826 129.688 81.4014C129.688 82.5947 128.305 83.2676 126.007 83.2803C123.696 83.2676 122.312 82.5947 122.325 81.4014C122.312 80.1826 123.696 79.5098 126.007 79.5098ZM126.007 80.2715C124.318 80.2715 123.341 80.6904 123.354 81.4014C123.341 82.0996 124.318 82.5059 126.007 82.5059C127.67 82.5059 128.647 82.0996 128.66 81.4014C128.647 80.6904 127.67 80.2715 126.007 80.2715ZM139.02 77.8086V87H137.864V79.002H137.813L135.579 80.4873V79.332L137.864 77.8086H139.02ZM144.479 87.127C142.435 87.127 141.267 85.4131 141.267 82.4043C141.267 79.4209 142.46 77.6816 144.479 77.6816C146.497 77.6816 147.69 79.4209 147.69 82.4043C147.69 85.4131 146.51 87.127 144.479 87.127ZM144.479 86.1113C145.799 86.1113 146.573 84.7783 146.573 82.4043C146.573 80.0303 145.799 78.6719 144.479 78.6719C143.158 78.6719 142.371 80.0303 142.371 82.4043C142.371 84.7783 143.146 86.1113 144.479 86.1113ZM152.223 87.127C150.179 87.127 149.011 85.4131 149.011 82.4043C149.011 79.4209 150.204 77.6816 152.223 77.6816C154.241 77.6816 155.435 79.4209 155.435 82.4043C155.435 85.4131 154.254 87.127 152.223 87.127ZM152.223 86.1113C153.543 86.1113 154.317 84.7783 154.317 82.4043C154.317 80.0303 153.543 78.6719 152.223 78.6719C150.902 78.6719 150.115 80.0303 150.115 82.4043C150.115 84.7783 150.89 86.1113 152.223 86.1113ZM165.908 76.7549V85.1084H164.905V81.1982H161.655V80.3984H164.905V79.04H161.655V78.2402H164.905V76.7549H165.908ZM166.213 86.9492V87.7871H158.634V84.3975H159.637V86.9492H166.213ZM158.228 77.5674V82.582C159.783 82.5757 161.281 82.4932 163.001 82.1758L163.103 83.001C161.262 83.3438 159.726 83.4199 158.075 83.4326H157.225V77.5674H158.228ZM181.346 82.3281V83.1279H171.05V82.3281H175.709V81.0078H172.357V77.2754H180.063V78.0752H173.335V80.1953H180.14V81.0078H176.674V82.3281H181.346ZM176.191 83.9531C178.616 83.9531 180.063 84.6895 180.076 85.9844C180.063 87.292 178.616 88.0156 176.191 88.0283C173.754 88.0156 172.294 87.292 172.294 85.9844C172.294 84.6895 173.754 83.9531 176.191 83.9531ZM176.191 84.7402C174.376 84.7402 173.297 85.21 173.31 85.9844C173.297 86.7715 174.376 87.2285 176.191 87.2285C177.981 87.2285 179.073 86.7715 179.073 85.9844C179.073 85.21 177.981 84.7402 176.191 84.7402ZM191.108 76.7422V80.1826H192.81V81.0205H191.108V85.0703H190.118V76.7422H191.108ZM191.629 86.9492V87.7871H184.05V84.207H185.027V86.9492H191.629ZM185.459 77.542C187.147 77.542 188.417 78.6846 188.43 80.3223C188.417 81.96 187.147 83.1025 185.459 83.1025C183.771 83.1025 182.488 81.96 182.501 80.3223C182.488 78.6846 183.771 77.542 185.459 77.542ZM185.459 78.418C184.342 78.418 183.466 79.2051 183.479 80.3223C183.466 81.4395 184.342 82.2266 185.459 82.2266C186.602 82.2266 187.452 81.4395 187.452 80.3223C187.452 79.2051 186.602 78.418 185.459 78.418ZM206.089 76.7422V88.0537H205.086V76.7422H206.089ZM202.89 77.8213V78.6592H198.522V84.3848C200.719 84.3848 202.166 84.3149 203.854 84.0166L203.956 84.8545C202.204 85.1719 200.719 85.2354 198.434 85.248H197.52V77.8213H202.89ZM212.056 80.208C212.056 82.125 213.452 84.0674 215.115 84.791L214.557 85.5781C213.236 84.9751 212.094 83.6738 211.573 82.1123C211.04 83.769 209.904 85.21 208.615 85.8574L208.019 85.0703C209.631 84.2959 211.04 82.1631 211.053 80.208V78.7354H208.387V77.9102H214.747V78.7354H212.056V80.208ZM217.324 76.7422V88.0283H216.321V76.7422H217.324ZM224.954 77.4404V78.2656H220.828V79.4717H224.649V80.2461H220.828V81.5918C222.91 81.5918 224.104 81.5474 225.563 81.2998L225.652 82.1123C224.116 82.3662 222.872 82.3916 220.663 82.3916H219.838V77.4404H224.954ZM228.598 76.7422V82.8486H227.607V80.1572H225.437V79.3447H227.607V76.7422H228.598ZM228.598 83.3564V85.9717H222.301V87.1016H229.029V87.9014H221.311V85.21H227.607V84.1562H221.285V83.3564H228.598ZM237.573 80.208C237.561 82.0234 238.868 84.0166 240.506 84.791L239.935 85.5781C238.665 84.9624 237.592 83.6167 237.091 82.0869C236.57 83.75 235.434 85.21 234.171 85.8574L233.562 85.0703C235.187 84.2832 236.583 82.1377 236.596 80.208V78.7354H233.968V77.9102H240.112V78.7354H237.573V80.208ZM242.486 76.7422V81.3125H244.378V82.1631H242.486V88.0283H241.496V76.7422H242.486ZM248.783 78.875C248.771 80.4238 249.951 81.8584 251.614 82.4424L251.106 83.2422C249.824 82.7788 248.828 81.8203 248.326 80.6143C247.85 81.9663 246.828 83.0073 245.495 83.5215L244.949 82.7217C246.663 82.1123 247.793 80.5889 247.806 78.8369V77.4404H248.783V78.875ZM253.811 76.7422V80.208H255.512V81.0586H253.811V85.083H252.82V76.7422H253.811ZM254.331 86.9492V87.7871H246.765V84.2832H247.78V86.9492H254.331ZM261.364 76.9453C263.878 76.9453 265.351 77.6309 265.351 78.8877C265.351 80.1699 263.878 80.8555 261.364 80.8682C258.851 80.8555 257.365 80.1699 257.365 78.8877C257.365 77.6309 258.851 76.9453 261.364 76.9453ZM261.364 77.6943C259.485 77.6943 258.394 78.1514 258.406 78.8877C258.394 79.6748 259.485 80.1064 261.364 80.1064C263.23 80.1064 264.335 79.6748 264.335 78.8877C264.335 78.1514 263.23 77.6943 261.364 77.6943ZM266.506 81.6299V82.4424H256.223V81.6299H266.506ZM265.186 83.4199V85.9463H258.482V87.1143H265.528V87.9014H257.492V85.21H264.208V84.1816H257.467V83.4199H265.186ZM281.055 85.7559V86.5811H270.721V85.7559H275.367V83.3184H271.939V77.542H272.942V79.5859H278.808V77.542H279.785V83.3184H276.345V85.7559H281.055ZM272.942 82.5059H278.808V80.3984H272.942V82.5059ZM291.706 78.418V79.2432H282.464V78.418H286.603V76.9326H287.58V78.418H291.706ZM292.29 85.8828V86.708H281.956V85.8828H286.603V84.2959C284.597 84.188 283.378 83.4072 283.391 82.1377C283.378 80.792 284.8 80.0049 287.098 80.0176C289.37 80.0049 290.805 80.792 290.805 82.1377C290.805 83.4072 289.573 84.188 287.58 84.2959V85.8828H292.29ZM287.098 80.8047C285.409 80.8047 284.381 81.2998 284.394 82.1377C284.381 83.001 285.409 83.4834 287.098 83.4961C288.761 83.4834 289.789 83.001 289.789 82.1377C289.789 81.2998 288.761 80.8047 287.098 80.8047ZM298.828 78.6973V79.5098H293.166V78.6973H295.515V77.085H296.505V78.6973H298.828ZM295.997 80.2715C297.419 80.2715 298.435 81.3379 298.447 82.8359C298.435 84.3467 297.419 85.4258 295.997 85.4258C294.588 85.4258 293.572 84.3467 293.572 82.8359C293.572 81.3379 294.588 80.2715 295.997 80.2715ZM295.997 81.1094C295.108 81.1221 294.461 81.8457 294.461 82.8359C294.461 83.8389 295.108 84.5625 295.997 84.5498C296.898 84.5625 297.559 83.8389 297.559 82.8359C297.559 81.8457 296.898 81.1221 295.997 81.1094ZM302.802 76.7422V88.0283H301.85V82.3281H300.352V87.4697H299.412V77.0215H300.352V81.5029H301.85V76.7422H302.802ZM316.805 82.1758V83.001H309.01V77.7959H316.69V78.6211H310V82.1758H316.805ZM318.023 85.6543V86.4922H307.689V85.6543H318.023ZM328.243 76.7549V82.9502H327.253V76.7549H328.243ZM324.65 77.3008V80.3477H320.486V81.8838C322.505 81.8711 324.016 81.833 325.844 81.5283L325.958 82.3535C324.066 82.6582 322.518 82.709 320.436 82.7217H319.521V79.5605H323.66V78.126H319.496V77.3008H324.65ZM321.908 83.5215V84.8672H327.253V83.5215H328.243V87.876H320.905V83.5215H321.908ZM321.908 87.0635H327.253V85.667H321.908V87.0635ZM339.466 76.7422V88.0283H338.476V76.7422H339.466ZM331.874 77.8594V84.2578C333.594 84.2515 335.378 84.1118 337.27 83.7119L337.409 84.5625C335.403 84.9814 333.613 85.1211 331.811 85.1211H330.896V77.8594H331.874ZM350.13 76.7422V81.2109H352.021V82.0488H350.13V88.0537H349.14V76.7422H350.13ZM347.159 77.8467V78.6719H342.881V84.3848C344.925 84.3848 346.372 84.2896 348.048 83.9785L348.175 84.8418C346.41 85.1592 344.925 85.2227 342.779 85.2227H341.891V77.8467H347.159ZM353.824 87.0762C353.38 87.0762 352.999 86.708 353.012 86.251C352.999 85.8066 353.38 85.4385 353.824 85.4385C354.269 85.4385 354.637 85.8066 354.637 86.251C354.637 86.708 354.269 87.0762 353.824 87.0762ZM25.4219 104H24.2285L27.5928 94.8086H28.7988L32.1631 104H30.957L30.043 101.41H26.3486L25.4219 104ZM26.6914 100.407H29.6875L28.2275 96.2939H28.1514L26.6914 100.407ZM34.5498 94.8086V104H33.4072V94.8086H34.5498ZM46.3438 98.9854V99.7725H36.0098V98.9854H46.3438ZM45.0488 100.674V103.073H38.2695V104.152H45.417V104.876H37.2666V102.388H44.0586V101.423H37.2539V100.674H45.0488ZM45.0107 94.085V96.4209H38.3457V97.4111H45.2139V98.1348H37.3555V95.7354H44.0078V94.8086H37.3174V94.085H45.0107ZM60.8037 99.7344V100.547H50.5078V99.7344H55.1543V98.6172H51.8789V94.0723H59.5215V94.8848H52.8818V95.9385H59.2168V96.7002H52.8818V97.8174H59.585V98.6172H56.1445V99.7344H60.8037ZM55.6621 101.397C58.1377 101.385 59.5342 102.02 59.5469 103.2C59.5342 104.381 58.1377 105.003 55.6621 105.003C53.1611 105.003 51.7646 104.381 51.7646 103.2C51.7646 102.02 53.1611 101.385 55.6621 101.397ZM55.6621 102.146C53.7959 102.146 52.7549 102.527 52.7676 103.2C52.7549 103.886 53.7959 104.241 55.6621 104.229C57.5029 104.241 58.5439 103.886 58.5439 103.2C58.5439 102.527 57.5029 102.146 55.6621 102.146ZM67.3926 95.6973V96.5098H61.7305V95.6973H64.0791V94.085H65.0693V95.6973H67.3926ZM64.5615 97.2715C65.9834 97.2715 66.999 98.3379 67.0117 99.8359C66.999 101.347 65.9834 102.426 64.5615 102.426C63.1523 102.426 62.1367 101.347 62.1367 99.8359C62.1367 98.3379 63.1523 97.2715 64.5615 97.2715ZM64.5615 98.1094C63.6729 98.1221 63.0254 98.8457 63.0254 99.8359C63.0254 100.839 63.6729 101.562 64.5615 101.55C65.4629 101.562 66.123 100.839 66.123 99.8359C66.123 98.8457 65.4629 98.1221 64.5615 98.1094ZM71.3662 93.7422V105.028H70.4141V99.3281H68.916V104.47H67.9766V94.0215H68.916V98.5029H70.4141V93.7422H71.3662ZM84.9883 93.7422V98.3379H86.8164V99.1758H84.9883V105.028H83.998V93.7422H84.9883ZM82.0684 94.9609C82.0684 98.1602 80.5703 101.067 76.8887 102.883L76.3301 102.096C79.25 100.642 80.8369 98.4712 81.0654 95.7988H76.8506V94.9609H82.0684ZM96.8584 94.2119V95.0244H93.2783C93.291 96.3066 95.208 97.3223 97.2012 97.5508L96.833 98.3379C94.9858 98.103 93.2529 97.2778 92.6309 96.0146C92.0151 97.2778 90.2886 98.103 88.4414 98.3379L88.0732 97.5508C90.0537 97.3223 91.958 96.3066 91.9834 95.0244H88.4287V94.2119H96.8584ZM97.8105 99.417V100.242H87.4893V99.417H92.1357V97.7031H93.1133V99.417H97.8105ZM96.5029 101.359V105.028H95.5V102.172H88.6318V101.359H96.5029ZM107.878 94.4785V99.0742H102.584V94.4785H107.878ZM103.562 95.291V98.2871H106.9V95.291H103.562ZM111.293 93.7422V100.229H110.315V93.7422H111.293ZM108.233 101.778C108.233 102.883 110.036 103.975 111.979 104.216L111.636 104.99C109.935 104.762 108.386 103.962 107.726 102.908C107.04 103.981 105.453 104.762 103.752 104.99L103.396 104.216C105.339 104 107.205 102.908 107.205 101.778H103.866V101.004H107.218V99.8994H108.208V101.004H111.585V101.778H108.233ZM125.804 93.7549V102.096H124.813V93.7549H125.804ZM126.159 103.949V104.787H118.517V101.321H119.507V103.949H126.159ZM120.586 96.3828C120.586 97.8809 121.792 99.2012 123.48 99.7217L122.985 100.521C121.659 100.096 120.611 99.1948 120.104 98.0205C119.608 99.2837 118.567 100.261 117.222 100.725L116.714 99.9375C118.402 99.3916 119.596 97.9697 119.596 96.3828V96.0781H116.993V95.2783H119.596V93.8057H120.599V95.2783H123.176V96.0781H120.586V96.3828ZM136.646 94.4785V95.4688C136.646 96.5415 136.646 97.7031 136.328 99.3281H138.004V100.153H133.345V105.054H132.342V100.153H127.721V99.3281H135.312C135.655 97.7031 135.655 96.5161 135.655 95.4688V95.3037H129.016V94.4785H136.646ZM149.252 98.4902V99.29H138.956V98.4902H149.252ZM148.021 96.751V97.5635H140.327V94.1357H147.906V94.9355H141.33V96.751H148.021ZM147.919 100.306V102.921H141.216V104.089H148.262V104.901H140.226V102.172H146.941V101.08H140.2V100.306H147.919ZM156.45 94.999V95.583C156.438 96.4717 156.438 97.9697 156.12 100.064L155.117 99.9756C155.422 98.084 155.447 96.7129 155.447 95.8115H150.712V94.999H156.45ZM153.492 98.2236V101.651C154.743 101.607 156.025 101.524 157.199 101.385L157.25 102.134C154.876 102.502 152.223 102.553 150.204 102.54L150.077 101.715C150.82 101.708 151.645 101.702 152.515 101.677V98.2236H153.492ZM158.9 93.7422V98.4648H160.729V99.3281H158.9V105.028H157.91V93.7422H158.9ZM170.352 94.7959C170.352 96.3828 172.434 97.7666 174.465 98.0459L174.059 98.8584C172.307 98.5664 170.574 97.5952 169.844 96.2051C169.12 97.6016 167.381 98.5664 165.629 98.8584L165.223 98.0459C167.254 97.7666 169.323 96.4082 169.323 94.7959V94.1484H170.352V94.7959ZM174.973 100.103V100.94H170.301V105.028H169.323V100.94H164.689V100.103H174.973ZM179.937 96.7764C179.924 98.833 181.333 100.915 182.996 101.664L182.387 102.451C181.104 101.823 179.994 100.496 179.454 98.8838C178.927 100.591 177.816 102.013 176.496 102.68L175.861 101.842C177.537 101.067 178.934 98.9219 178.946 96.7764V94.7197H179.937V96.7764ZM185.23 93.7422V105.054H184.228V93.7422H185.23ZM197.494 102.794V103.632H187.16V102.794H191.807V100.661H188.455V97.1826H195.209V95.4053H188.43V94.5801H196.187V97.9951H189.445V99.8359H196.453V100.661H192.784V102.794H197.494ZM206.762 100.877C209.187 100.877 210.723 101.639 210.723 102.946C210.723 104.241 209.187 105.003 206.762 105.003C204.35 105.003 202.813 104.241 202.813 102.946C202.813 101.639 204.35 100.877 206.762 100.877ZM206.762 101.639C204.959 101.651 203.791 102.146 203.804 102.946C203.791 103.733 204.959 104.216 206.762 104.216C208.564 104.216 209.72 103.733 209.732 102.946C209.72 102.146 208.564 101.651 206.762 101.639ZM210.634 94.3262V95.2783C210.634 96.1924 210.634 97.1064 210.316 98.2744L209.339 98.1602C209.644 96.9922 209.644 96.167 209.644 95.2783V95.1387H202.89V94.3262H210.634ZM211.941 99.0107V99.8232H201.671V99.0107H205.924V96.8271H206.901V99.0107H211.941ZM223.215 100.179V101.004H220.485V105.028H219.482V101.004H216.588V105.028H215.56V101.004H212.881V100.179H223.215ZM218.022 94.1992C220.396 94.1992 221.996 95.1514 221.996 96.6621C221.996 98.1602 220.396 99.1123 218.022 99.0996C215.648 99.1123 214.049 98.1602 214.049 96.6621C214.049 95.1514 215.648 94.1992 218.022 94.1992ZM218.022 95.0117C216.258 95.0117 215.064 95.6592 215.077 96.6621C215.064 97.665 216.258 98.2998 218.022 98.2998C219.774 98.2998 220.98 97.665 220.98 96.6621C220.98 95.6592 219.774 95.0117 218.022 95.0117ZM233.447 93.7549V100.242H232.444V93.7549H233.447ZM224.167 99.1377C225.125 99.1377 226.243 99.1313 227.404 99.0869V97.8809H225.195V94.3135H230.553V95.1387H226.198V97.0811H230.654V97.8809H228.407V99.0488C229.455 99.0044 230.515 98.9155 231.505 98.7822L231.568 99.5059C229.093 99.9248 226.351 99.9629 224.319 99.9629L224.167 99.1377ZM226.998 100.75V101.956H232.47V100.75H233.447V104.876H226.008V100.75H226.998ZM226.998 104.063H232.47V102.73H226.998V104.063ZM244.67 93.7422V105.028H243.68V93.7422H244.67ZM237.078 94.8594V101.258C238.798 101.251 240.582 101.112 242.474 100.712L242.613 101.562C240.607 101.981 238.817 102.121 237.015 102.121H236.101V94.8594H237.078ZM255.334 93.7422V98.2109H257.226V99.0488H255.334V105.054H254.344V93.7422H255.334ZM252.363 94.8467V95.6719H248.085V101.385C250.129 101.385 251.576 101.29 253.252 100.979L253.379 101.842C251.614 102.159 250.129 102.223 247.983 102.223H247.095V94.8467H252.363ZM259.028 104.076C258.584 104.076 258.203 103.708 258.216 103.251C258.203 102.807 258.584 102.438 259.028 102.438C259.473 102.438 259.841 102.807 259.841 103.251C259.841 103.708 259.473 104.076 259.028 104.076Z" fill="#777777"/>
<rect x="24" y="154" width="455" height="58" rx="12" fill="#0075FF"/>
<path d="M214.246 174.043V179.121H216.512V181.172H214.246V186.113H211.746V174.043H214.246ZM199.832 183.828C201.131 183.828 202.615 183.828 204.148 183.789V182.793C202.215 182.52 201.004 181.582 201.023 180.215C201.004 178.574 202.742 177.559 205.379 177.559C207.996 177.559 209.715 178.574 209.734 180.215C209.715 181.582 208.533 182.51 206.629 182.773V183.691C208.094 183.633 209.549 183.516 210.926 183.34L211.102 185.059C207.352 185.723 203.23 185.762 200.086 185.762L199.832 183.828ZM214.246 186.836V191.797H211.746V188.75H202.098V186.836H214.246ZM210.477 175.332V177.148H200.301V175.332H204.148V173.887H206.629V175.332H210.477ZM205.379 179.219C204.109 179.219 203.387 179.531 203.406 180.215C203.387 180.859 204.109 181.23 205.379 181.23C206.629 181.23 207.332 180.859 207.352 180.215C207.332 179.531 206.629 179.219 205.379 179.219ZM232.195 174.043V186.816H229.695V174.043H232.195ZM232.664 189.492V191.484H220.281V185.527H222.801V189.492H232.664ZM222.449 175.176C225.184 175.176 227.312 177.051 227.312 179.648C227.312 182.305 225.184 184.16 222.449 184.16C219.715 184.16 217.586 182.305 217.586 179.648C217.586 177.051 219.715 175.176 222.449 175.176ZM222.449 177.344C221.062 177.324 220.008 178.203 220.027 179.648C220.008 181.133 221.062 181.992 222.449 181.992C223.797 181.992 224.852 181.133 224.852 179.648C224.852 178.203 223.797 177.324 222.449 177.344ZM249.871 174.043V184.98H247.508V180.605H246.121V184.785H243.797V174.277H246.121V178.594H247.508V174.043H249.871ZM243.23 175.723V177.695H234.5V175.723H237.645V174.121H240.125V175.723H243.23ZM238.895 178.262C241.16 178.262 242.762 179.512 242.781 181.367C242.762 183.184 241.16 184.473 238.895 184.473C236.668 184.473 235.047 183.184 235.047 181.367C235.047 179.512 236.668 178.262 238.895 178.262ZM238.895 180.039C237.918 180.039 237.273 180.488 237.273 181.367C237.273 182.207 237.918 182.676 238.895 182.676C239.871 182.676 240.516 182.207 240.535 181.367C240.516 180.488 239.871 180.039 238.895 180.039ZM241.414 185.898C241.395 187.197 241.971 188.535 243.387 189.414C244.793 188.486 245.418 187.08 245.438 185.898V185.527H247.918V185.898C247.898 187.559 248.895 189.121 251.258 189.727L250.105 191.582C248.387 191.064 247.254 190.029 246.648 188.711C246.062 190.02 245.037 191.172 243.426 191.758C241.766 191.182 240.721 190.098 240.164 188.789C239.51 190.039 238.396 191.055 236.766 191.582L235.594 189.727C237.898 189.062 238.934 187.461 238.934 185.898V185.527H241.414V185.898ZM256.238 184.688V186.191H263.562V184.688H266.043V191.602H253.777V184.688H256.238ZM256.238 189.648H263.562V188.086H256.238V189.648ZM268.094 181.777V183.789H251.883V181.777H268.094ZM261.277 174.805C261.277 176.582 263.328 178.594 267.293 179.043L266.414 180.996C263.348 180.605 261.131 179.336 259.988 177.617C258.846 179.336 256.619 180.605 253.582 180.996L252.684 179.043C256.648 178.574 258.699 176.621 258.719 174.805V174.199H261.277V174.805ZM284.109 174.023V191.797H281.629V174.023H284.109ZM272.586 175.723V185.273C274.988 185.244 277.566 185.02 280.184 184.512L280.496 186.562C277.371 187.207 274.441 187.422 271.688 187.402H270.125V175.723H272.586ZM300.477 174.023V180.625H303.094V182.656H300.477V191.836H297.977V174.023H300.477ZM295.496 175.664V177.676H289.637V185.469C292.215 185.439 294.344 185.322 296.707 184.902L296.98 186.992C294.227 187.461 291.805 187.539 288.66 187.52H287.156V175.664H295.496Z" fill="white"/>
</svg>
