<svg width="820" height="714" viewBox="0 0 820 714" fill="none" xmlns="http://www.w3.org/2000/svg">
<g style="mix-blend-mode:color-dodge" opacity="0.2" filter="url(#filter0_f_1595_16526)">
<g filter="url(#filter1_f_1595_16526)">
<circle cx="420.248" cy="257.215" r="159.318" fill="white"/>
</g>
</g>
<path d="M233.256 539.744H563.64L575.899 713.824H221.609L233.256 539.744Z" fill="url(#paint0_linear_1595_16526)"/>
<path d="M233.547 539.416H563.875L564.001 545.482H232.82L233.547 539.416Z" fill="white"/>
<path d="M252.252 457.607H545.245L563.634 539.744H233.25L252.252 457.607Z" fill="url(#paint1_linear_1595_16526)"/>
<path fill-rule="evenodd" clip-rule="evenodd" d="M681.596 508.003L790.877 478.721L805.582 533.602C805.55 533.627 805.517 533.651 805.485 533.676C810.344 563.822 750.674 604.943 669.753 626.625C588.828 648.309 516.587 642.53 505.729 613.99C505.691 613.986 505.653 613.982 505.615 613.978L505.146 612.227C505.118 612.129 505.091 612.031 505.065 611.933C505.038 611.835 505.013 611.736 504.988 611.638L490.91 559.097L600.186 529.817C612.773 525.016 626.235 520.645 640.343 516.865C654.451 513.084 668.295 510.139 681.596 508.003Z" fill="url(#paint2_linear_1595_16526)"/>
<ellipse cx="640.931" cy="519.056" rx="155.274" ry="56.637" transform="rotate(-15 640.931 519.056)" fill="url(#paint3_linear_1595_16526)"/>
<path d="M251.137 428.413L307.705 392.695L307.062 385.357L219.22 404.804L160.639 429.081L160.893 435.264L251.137 428.413Z" fill="#2B2B2B"/>
<path d="M250.502 421.207L307.07 385.488L218.585 397.598L160.636 429.081L250.502 421.207Z" fill="#797979"/>
<g filter="url(#filter2_d_1595_16526)">
<circle cx="110.69" cy="350.034" r="31.8469" transform="rotate(81.3719 110.69 350.034)" fill="url(#paint4_radial_1595_16526)"/>
</g>
<g clip-path="url(#clip0_1595_16526)" filter="url(#filter3_i_1595_16526)">
<path d="M249.276 70.5653L246.581 64.0898C247.544 62.704 248.354 61.2179 248.997 59.6576L255.85 58.3124C256.108 58.2611 256.342 58.1279 256.519 57.9325C256.695 57.7372 256.804 57.4902 256.829 57.2282L257.528 50.4689C257.556 50.2072 257.499 49.9434 257.365 49.7167C257.231 49.4899 257.028 49.3123 256.785 49.2103L250.383 46.5372C250.087 44.8436 249.604 43.188 248.944 41.6005L252.82 35.8475C252.956 35.627 253.018 35.3691 252.999 35.1108C252.979 34.8526 252.877 34.6073 252.709 34.4104L248.421 29.1568C248.256 28.9557 248.03 28.8127 247.778 28.7487C247.525 28.6846 247.259 28.7029 247.017 28.8007L240.62 31.4324C239.19 30.4549 237.656 29.6396 236.046 29.0016L234.759 22.2837C234.707 22.0255 234.574 21.7907 234.379 21.6143C234.184 21.4378 233.937 21.329 233.674 21.3041L226.908 20.5334C226.647 20.5053 226.383 20.5624 226.156 20.6961C225.929 20.8298 225.752 21.0331 225.65 21.2757L223.042 27.5992C221.342 27.8986 219.681 28.3856 218.089 29.0512L212.336 25.1749C212.119 25.0306 211.862 24.9594 211.602 24.9715C211.342 24.9836 211.092 25.0785 210.889 25.2423L205.636 29.5297C205.435 29.6954 205.292 29.9209 205.228 30.1735C205.164 30.426 205.182 30.6924 205.28 30.9338L207.949 37.3782C207.003 38.7912 206.214 40.3035 205.596 41.8881L198.636 43.3221C198.377 43.3734 198.143 43.5067 197.966 43.702C197.79 43.8973 197.681 44.1443 197.656 44.4064L196.973 51.1529C196.945 51.4146 197.002 51.6785 197.135 51.9052C197.269 52.1319 197.472 52.3095 197.715 52.4116L204.199 55.1214C204.514 56.7579 205.002 58.3561 205.656 59.8887L201.686 65.7179C201.542 65.9348 201.471 66.1922 201.483 66.4524C201.495 66.7126 201.59 66.9622 201.754 67.1648L206.041 72.4185C206.207 72.6195 206.432 72.7625 206.685 72.8265C206.937 72.8906 207.204 72.8724 207.445 72.7745L213.967 70.0413C215.331 70.9772 216.79 71.7655 218.321 72.3928L219.685 79.3325C219.737 79.5906 219.87 79.8254 220.065 80.0019C220.261 80.1783 220.508 80.2871 220.77 80.3121L227.516 80.9952C227.778 81.0233 228.042 80.9662 228.268 80.8325C228.495 80.6988 228.673 80.4955 228.775 80.2529L231.488 73.7404C233.122 73.4354 234.719 72.9566 236.252 72.3121L242.081 76.2817C242.298 76.426 242.555 76.4972 242.816 76.4851C243.076 76.473 243.326 76.3781 243.528 76.2143L248.828 71.8888C249.029 71.7402 249.18 71.5338 249.26 71.2972C249.34 71.0606 249.345 70.8052 249.276 70.5653V70.5653ZM218.702 57.7876C217.322 56.0968 216.474 54.0348 216.266 51.8624C216.058 49.6899 216.499 47.5046 217.533 45.5827C218.567 43.6609 220.148 42.0888 222.075 41.0653C224.003 40.0418 226.191 39.6129 228.362 39.8328C230.533 40.0526 232.591 40.9114 234.274 42.3005C235.957 43.6896 237.19 45.5466 237.818 47.6368C238.446 49.7269 238.44 51.9563 237.801 54.0429C237.161 56.1296 235.918 57.9799 234.227 59.3597C231.96 61.2101 229.05 62.0839 226.139 61.7891C223.227 61.4943 220.552 60.0549 218.702 57.7876V57.7876Z" fill="url(#paint5_linear_1595_16526)"/>
</g>
<path d="M394.34 304.421C644.423 241.021 745.612 264.303 764.947 283.87C775.55 273.824 758.082 265.238 755.7 257.446C685.561 219.534 492.034 268.881 390.822 294.778L394.34 304.421Z" fill="#131313"/>
<g filter="url(#filter4_d_1595_16526)">
<path d="M441.662 256.026C253.135 253.478 55.6501 264.192 45.7028 246.723C36.318 251.809 47.0245 261.174 47.2319 267.125C89.5732 307.154 367.114 269.13 443.459 269.993L441.662 256.026Z" fill="#242424"/>
</g>
<g filter="url(#filter5_f_1595_16526)">
<circle cx="416.43" cy="266.897" r="137.313" fill="white" fill-opacity="0.6"/>
</g>
<circle cx="416.432" cy="266.897" r="133.206" fill="url(#paint6_radial_1595_16526)"/>
<ellipse cx="363.03" cy="179.168" rx="17.0174" ry="7.92191" transform="rotate(-35.2768 363.03 179.168)" fill="white"/>
<ellipse cx="518.836" cy="324.902" rx="17.0174" ry="4.26219" transform="rotate(-60.7276 518.836 324.902)" fill="white"/>
<path d="M419.738 477.952L449.568 361.372C686.255 355.031 803.312 312.707 750.816 256.445C851.584 333.552 640.525 427.01 419.738 477.952Z" fill="url(#paint7_linear_1595_16526)"/>
<g filter="url(#filter6_f_1595_16526)">
<circle cx="282.943" cy="194.589" r="134.645" transform="rotate(20.1736 282.943 194.589)" fill="white" fill-opacity="0.02"/>
</g>
<g style="mix-blend-mode:color-dodge" filter="url(#filter7_f_1595_16526)">
<circle cx="311.2" cy="199.46" r="134.645" transform="rotate(20.1736 311.2 199.46)" fill="white" fill-opacity="0.05"/>
</g>
<path d="M307.761 145.547L301.128 204.554C203.518 211.476 21.6902 218.136 48.106 267.782C-8.44236 194.291 197.178 158.721 307.761 145.547Z" fill="#6A6A6A"/>
<g filter="url(#filter8_f_1595_16526)">
<ellipse cx="610.756" cy="143.042" rx="35.9991" ry="15.1522" transform="rotate(30 610.756 143.042)" fill="black" fill-opacity="0.4"/>
</g>
<ellipse cx="611.209" cy="142.201" rx="35.9763" ry="11.4881" transform="rotate(30 611.209 142.201)" fill="url(#paint8_linear_1595_16526)"/>
<path d="M676.909 87.4337C675.588 89.7207 660.795 88.2718 646.469 80.0006C632.143 71.7294 623.913 59.1638 625.11 57.0912C625.574 56.2862 625.918 55.444 626.981 55.0272C632.228 52.9712 644.543 55.828 656.455 62.7051C668.012 69.3779 676.599 78.125 677.838 83.7224C678.135 85.0631 677.441 86.5107 676.909 87.4337Z" fill="url(#paint9_linear_1595_16526)"/>
<ellipse cx="651.026" cy="72.2652" rx="29.9992" ry="8.45501" transform="rotate(30 651.026 72.2652)" fill="#4C4C4C"/>
<ellipse cx="612.105" cy="140.157" rx="35.0749" ry="9.74507" transform="rotate(30 612.105 140.157)" fill="#4D4D4D"/>
<g filter="url(#filter9_b_1595_16526)">
<path fill-rule="evenodd" clip-rule="evenodd" d="M587.773 120.821C595.747 109.798 603.462 106.662 617.497 104.809C618.049 104.703 619.07 104.692 620.332 104.678C624.425 104.634 631.051 104.562 632.392 101.137C633.585 98.09 631.483 94.5766 628.714 89.9482C626.392 86.0663 624.643 84.5175 623.309 76.3861C621.975 68.2548 627.213 62.3317 629.844 57.7733C631.096 55.0071 652.067 66.2521 653.588 67.1303C655.239 68.0837 675.906 80.9384 674.166 83.3627C671.175 87.5303 667.286 96.8757 661.307 98.3243C655.396 99.7563 651.375 100.489 646.85 100.417C641.452 100.332 637.356 100.266 635.313 102.823C633.016 105.698 636.27 111.474 638.281 115.042C638.9 116.141 639.401 117.031 639.585 117.561C645.011 130.65 646.159 138.903 640.601 151.321C636.873 159.649 630.097 159.324 608.131 146.642C586.166 133.96 582.432 128.205 587.773 120.821Z" fill="#E8E8E8" fill-opacity="0.79"/>
</g>
<g style="mix-blend-mode:darken">
<path d="M659.902 98.6786C654.971 93.4527 640.679 86.5737 632.89 84.8214C633.131 85.6616 633.996 89.1011 634.348 90.3285C634.787 91.8627 649.162 100.071 651.602 100.107C653.553 100.136 658.173 99.0522 659.902 98.6786Z" fill="#959595"/>
</g>
<path d="M635.489 93.2733L640.883 96.3874C640.883 96.3874 636.852 100.514 632.81 106.273C626.919 114.666 620.17 126.045 618.923 129.177C616.82 134.459 630.335 139.242 628.508 140.932C626.68 142.621 603.588 126.728 602.057 126.758C614.247 130.228 615.48 133.319 618.427 128.89C621.623 124.086 627.3 113.599 631.035 105.248C634.02 98.5761 635.489 93.2733 635.489 93.2733Z" fill="#5A5A5A"/>
<g style="mix-blend-mode:darken">
<path d="M632.357 105.444C632.357 105.444 636.859 102.336 638.176 101.995C639.494 101.654 645.893 101.243 645.893 101.243L651.942 100.63L658.328 99.1103C658.328 99.1103 649.951 100.682 641.362 90.8169C632.773 80.9516 624.585 81.1306 624.585 81.1306C624.585 81.1306 625.683 85.4695 627.423 88.2767C629.164 91.0838 631.261 95.699 631.261 95.699L632.278 98.7893L632.357 105.444Z" fill="#5A5A5A"/>
</g>
<path d="M619.02 128.353C605.38 130.999 592.854 117.455 588.055 121.179C579.843 129.338 596.239 139.48 607.812 146.126C620.578 153.457 637.267 162.309 640.36 151.378C640.816 148.622 634.351 144.249 628.117 138.82C621.883 133.391 619.02 128.353 619.02 128.353Z" fill="#5A5A5A"/>
<path d="M630.691 58.8026C631.35 57.7924 639.47 61.1879 643.117 62.6837C630.535 59.957 626.498 70.6536 626.653 75.9577C624.676 69.876 629.867 60.0652 630.691 58.8026Z" fill="url(#paint10_linear_1595_16526)"/>
<path d="M672.723 82.8643C671.772 78.2169 654.148 68.8163 645.901 64.9084C659.64 71.9256 669.25 78.3893 669.897 82.5137C670.415 85.8132 664.764 92.3883 661.874 95.2634C668.671 91.3569 672.236 85.5107 672.723 82.8643Z" fill="url(#paint11_linear_1595_16526)"/>
<g style="mix-blend-mode:darken">
<mask id="mask0_1595_16526" style="mask-type:alpha" maskUnits="userSpaceOnUse" x="583" y="111" width="67" height="52">
<path d="M597.062 127.057C591.318 122.395 589.403 114.786 589.164 111.564L583.045 129.268L609.015 153.737L645.168 162.062L649.465 156.86C648.668 155.111 650.815 150.504 647.34 153.073C642.996 156.284 647.506 157.266 643.607 156.551C634.925 154.96 632.213 147.351 629.457 141.724C626.701 136.096 604.243 132.885 597.062 127.057Z" fill="white"/>
</mask>
<g mask="url(#mask0_1595_16526)">
<g style="mix-blend-mode:darken">
<path d="M618.707 128.518C604.821 131.459 592.314 117.663 587.385 121.583C578.925 130.134 594.853 141.313 606.5 148C619.346 155.376 636.711 163.306 640.018 151.971C640.523 149.117 634.027 144.7 627.782 139.189C621.537 133.678 618.707 128.518 618.707 128.518Z" fill="#424242"/>
</g>
</g>
</g>
<ellipse cx="625.688" cy="80.1867" rx="0.86874" ry="1.38998" transform="rotate(-5.96612 625.688 80.1867)" fill="white"/>
<path d="M626.363 106.944C621.677 106.647 611.364 106.7 607.6 109.285C608.906 108.88 614.488 107.845 626.363 106.944Z" fill="white" fill-opacity="0.7"/>
<g style="mix-blend-mode:color-dodge">
<path d="M638.804 131.216C638.585 146.538 629.674 149.236 625.635 152.515C631.994 156.187 636.462 155.289 637.9 154.382C639.904 150.911 640.883 147.413 641.761 138.68C642.533 131.011 642.605 125.09 634.094 109.838C639.745 123.332 638.935 122.056 638.804 131.216Z" fill="url(#paint12_linear_1595_16526)"/>
</g>
<ellipse rx="1.18809" ry="2.58837" transform="matrix(0.535441 0.844572 -0.861441 0.507858 603.641 110.943)" fill="white"/>
<path d="M673.206 85.3499C673.471 84.8081 674.139 84.6038 674.661 84.9052V84.9052C675.134 85.1783 675.315 85.7709 675.076 86.2618L641.017 156.083C640.752 156.625 640.084 156.829 639.562 156.528V156.528C639.089 156.255 638.908 155.662 639.147 155.171L673.206 85.3499Z" fill="#333333"/>
<path d="M625.906 56.9041C626.207 56.4368 626.821 56.2878 627.303 56.5657V56.5657C627.818 56.863 627.98 57.5306 627.658 58.0308L585.687 123.281C585.386 123.749 584.772 123.898 584.291 123.62V123.62C583.776 123.322 583.614 122.655 583.936 122.155L625.906 56.9041Z" fill="#333333"/>
<circle cx="562.055" cy="125.121" r="26.0283" transform="rotate(12.8521 562.055 125.121)" fill="url(#paint13_radial_1595_16526)"/>
<defs>
<filter id="filter0_f_1595_16526" x="220.93" y="57.8965" width="398.641" height="398.637" filterUnits="userSpaceOnUse" color-interpolation-filters="sRGB">
<feFlood flood-opacity="0" result="BackgroundImageFix"/>
<feBlend mode="normal" in="SourceGraphic" in2="BackgroundImageFix" result="shape"/>
<feGaussianBlur stdDeviation="20" result="effect1_foregroundBlur_1595_16526"/>
</filter>
<filter id="filter1_f_1595_16526" x="234.182" y="71.1492" width="372.135" height="372.131" filterUnits="userSpaceOnUse" color-interpolation-filters="sRGB">
<feFlood flood-opacity="0" result="BackgroundImageFix"/>
<feBlend mode="normal" in="SourceGraphic" in2="BackgroundImageFix" result="shape"/>
<feGaussianBlur stdDeviation="13.3736" result="effect1_foregroundBlur_1595_16526"/>
</filter>
<filter id="filter2_d_1595_16526" x="78.8359" y="318.182" width="87.1755" height="87.1755" filterUnits="userSpaceOnUse" color-interpolation-filters="sRGB">
<feFlood flood-opacity="0" result="BackgroundImageFix"/>
<feColorMatrix in="SourceAlpha" type="matrix" values="0 0 0 0 0 0 0 0 0 0 0 0 0 0 0 0 0 0 127 0" result="hardAlpha"/>
<feOffset dx="11.7362" dy="11.7362"/>
<feGaussianBlur stdDeviation="5.86808"/>
<feComposite in2="hardAlpha" operator="out"/>
<feColorMatrix type="matrix" values="0 0 0 0 0 0 0 0 0 0 0 0 0 0 0 0 0 0 0.25 0"/>
<feBlend mode="normal" in2="BackgroundImageFix" result="effect1_dropShadow_1595_16526"/>
<feBlend mode="normal" in="SourceGraphic" in2="effect1_dropShadow_1595_16526" result="shape"/>
</filter>
<filter id="filter3_i_1595_16526" x="176.445" y="0" width="102.204" height="102.208" filterUnits="userSpaceOnUse" color-interpolation-filters="sRGB">
<feFlood flood-opacity="0" result="BackgroundImageFix"/>
<feBlend mode="normal" in="SourceGraphic" in2="BackgroundImageFix" result="shape"/>
<feColorMatrix in="SourceAlpha" type="matrix" values="0 0 0 0 0 0 0 0 0 0 0 0 0 0 0 0 0 0 127 0" result="hardAlpha"/>
<feOffset dx="1.76043" dy="1.76043"/>
<feGaussianBlur stdDeviation="0.293404"/>
<feComposite in2="hardAlpha" operator="arithmetic" k2="-1" k3="1"/>
<feColorMatrix type="matrix" values="0 0 0 0 1 0 0 0 0 1 0 0 0 0 1 0 0 0 0.25 0"/>
<feBlend mode="normal" in2="shape" result="effect1_innerShadow_1595_16526"/>
</filter>
<filter id="filter4_d_1595_16526" x="30.1154" y="246.723" width="425.082" height="62.236" filterUnits="userSpaceOnUse" color-interpolation-filters="sRGB">
<feFlood flood-opacity="0" result="BackgroundImageFix"/>
<feColorMatrix in="SourceAlpha" type="matrix" values="0 0 0 0 0 0 0 0 0 0 0 0 0 0 0 0 0 0 127 0" result="hardAlpha"/>
<feOffset dy="11.7362"/>
<feGaussianBlur stdDeviation="5.86808"/>
<feComposite in2="hardAlpha" operator="out"/>
<feColorMatrix type="matrix" values="0 0 0 0 0 0 0 0 0 0 0 0 0 0 0 0 0 0 0.25 0"/>
<feBlend mode="normal" in2="BackgroundImageFix" result="effect1_dropShadow_1595_16526"/>
<feBlend mode="normal" in="SourceGraphic" in2="effect1_dropShadow_1595_16526" result="shape"/>
</filter>
<filter id="filter5_f_1595_16526" x="267.381" y="117.848" width="298.097" height="298.099" filterUnits="userSpaceOnUse" color-interpolation-filters="sRGB">
<feFlood flood-opacity="0" result="BackgroundImageFix"/>
<feBlend mode="normal" in="SourceGraphic" in2="BackgroundImageFix" result="shape"/>
<feGaussianBlur stdDeviation="5.86808" result="effect1_foregroundBlur_1595_16526"/>
</filter>
<filter id="filter6_f_1595_16526" x="143.819" y="55.4674" width="278.245" height="278.243" filterUnits="userSpaceOnUse" color-interpolation-filters="sRGB">
<feFlood flood-opacity="0" result="BackgroundImageFix"/>
<feBlend mode="normal" in="SourceGraphic" in2="BackgroundImageFix" result="shape"/>
<feGaussianBlur stdDeviation="2.21943" result="effect1_foregroundBlur_1595_16526"/>
</filter>
<filter id="filter7_f_1595_16526" x="172.077" y="60.3385" width="278.245" height="278.243" filterUnits="userSpaceOnUse" color-interpolation-filters="sRGB">
<feFlood flood-opacity="0" result="BackgroundImageFix"/>
<feBlend mode="normal" in="SourceGraphic" in2="BackgroundImageFix" result="shape"/>
<feGaussianBlur stdDeviation="2.21943" result="effect1_foregroundBlur_1595_16526"/>
</filter>
<filter id="filter8_f_1595_16526" x="570.614" y="112.715" width="80.2806" height="60.6536" filterUnits="userSpaceOnUse" color-interpolation-filters="sRGB">
<feFlood flood-opacity="0" result="BackgroundImageFix"/>
<feBlend mode="normal" in="SourceGraphic" in2="BackgroundImageFix" result="shape"/>
<feGaussianBlur stdDeviation="4.02522" result="effect1_foregroundBlur_1595_16526"/>
</filter>
<filter id="filter9_b_1595_16526" x="584.914" y="56.6409" width="90.054" height="101.027" filterUnits="userSpaceOnUse" color-interpolation-filters="sRGB">
<feFlood flood-opacity="0" result="BackgroundImageFix"/>
<feGaussianBlur in="BackgroundImageFix" stdDeviation="0.347496"/>
<feComposite in2="SourceAlpha" operator="in" result="effect1_backgroundBlur_1595_16526"/>
<feBlend mode="normal" in="SourceGraphic" in2="effect1_backgroundBlur_1595_16526" result="shape"/>
</filter>
<linearGradient id="paint0_linear_1595_16526" x1="398.754" y1="539.744" x2="398.754" y2="713.824" gradientUnits="userSpaceOnUse">
<stop stop-color="#7E8085"/>
<stop offset="1" stop-color="#222222"/>
</linearGradient>
<linearGradient id="paint1_linear_1595_16526" x1="398.442" y1="457.607" x2="398.442" y2="539.744" gradientUnits="userSpaceOnUse">
<stop stop-color="#9B9B9B"/>
<stop offset="1" stop-color="#444444"/>
</linearGradient>
<linearGradient id="paint2_linear_1595_16526" x1="507.7" y1="610.862" x2="806.233" y2="526.486" gradientUnits="userSpaceOnUse">
<stop stop-color="#626262"/>
<stop offset="0.489709" stop-color="#13181C"/>
<stop offset="0.713542" stop-color="#C1C1C1"/>
<stop offset="1" stop-color="#3C3C3C"/>
</linearGradient>
<linearGradient id="paint3_linear_1595_16526" x1="640.931" y1="462.419" x2="640.931" y2="575.693" gradientUnits="userSpaceOnUse">
<stop stop-color="#606060"/>
<stop offset="1" stop-color="#151515"/>
</linearGradient>
<radialGradient id="paint4_radial_1595_16526" cx="0" cy="0" r="1" gradientUnits="userSpaceOnUse" gradientTransform="translate(101.027 334.655) rotate(44.6441) scale(46.4828)">
<stop stop-color="#DCDCDC"/>
<stop offset="0.223958" stop-color="#878787"/>
<stop offset="0.765625" stop-color="#262626"/>
<stop offset="1" stop-color="#525252"/>
</radialGradient>
<linearGradient id="paint5_linear_1595_16526" x1="232.29" y1="18.7057" x2="217.786" y2="80.4039" gradientUnits="userSpaceOnUse">
<stop stop-color="#9E9E9E"/>
<stop offset="1" stop-color="#2B2B2B"/>
</linearGradient>
<radialGradient id="paint6_radial_1595_16526" cx="0" cy="0" r="1" gradientUnits="userSpaceOnUse" gradientTransform="translate(388.852 224.353) rotate(51.7025) scale(188.424)">
<stop offset="0.0989583" stop-color="white"/>
<stop offset="0.348958" stop-color="#C6C6C6"/>
<stop offset="0.713542" stop-color="#3A3C41"/>
<stop offset="1" stop-color="#83878D"/>
</radialGradient>
<linearGradient id="paint7_linear_1595_16526" x1="442.109" y1="482.804" x2="760.617" y2="307.877" gradientUnits="userSpaceOnUse">
<stop stop-color="#E9E9E9"/>
<stop offset="1" stop-color="#212121"/>
</linearGradient>
<linearGradient id="paint8_linear_1595_16526" x1="612.573" y1="161.216" x2="612.573" y2="136.179" gradientUnits="userSpaceOnUse">
<stop stop-color="white"/>
<stop offset="1" stop-color="#414141"/>
</linearGradient>
<linearGradient id="paint9_linear_1595_16526" x1="657.865" y1="62.7835" x2="654.441" y2="68.7154" gradientUnits="userSpaceOnUse">
<stop stop-color="white"/>
<stop offset="1" stop-color="#8F8F8F"/>
</linearGradient>
<linearGradient id="paint10_linear_1595_16526" x1="638.002" y1="59.7302" x2="628.772" y2="75.7172" gradientUnits="userSpaceOnUse">
<stop stop-color="white"/>
<stop offset="1" stop-color="#F5F5F5" stop-opacity="0"/>
<stop offset="1" stop-color="#F5F5F5" stop-opacity="0"/>
</linearGradient>
<linearGradient id="paint11_linear_1595_16526" x1="660.025" y1="72.415" x2="657.832" y2="91.2269" gradientUnits="userSpaceOnUse">
<stop stop-color="white"/>
<stop offset="1" stop-color="#C4C4C4" stop-opacity="0"/>
</linearGradient>
<linearGradient id="paint12_linear_1595_16526" x1="636.734" y1="151.726" x2="643.656" y2="116.399" gradientUnits="userSpaceOnUse">
<stop stop-color="white" stop-opacity="0.53"/>
<stop offset="0.927083" stop-color="#BCBCBC" stop-opacity="0"/>
</linearGradient>
<radialGradient id="paint13_radial_1595_16526" cx="0" cy="0" r="1" gradientUnits="userSpaceOnUse" gradientTransform="translate(554.158 112.552) rotate(44.6441) scale(37.9901)">
<stop stop-color="white"/>
<stop offset="0.223958" stop-color="#C4C4C4"/>
<stop offset="0.765625" stop-color="#262626"/>
<stop offset="1" stop-color="#959595"/>
</radialGradient>
<clipPath id="clip0_1595_16526">
<rect width="72.2246" height="72.2246" fill="white" transform="translate(232.398) rotate(50.782)"/>
</clipPath>
</defs>
</svg>
