<svg width="501" height="178" viewBox="0 0 501 178" fill="none" xmlns="http://www.w3.org/2000/svg">
<g opacity="0.6" filter="url(#filter0_f_1296_21275)">
<path d="M289.151 86.6535C345.975 87.3029 336.951 72.8985 356.704 59.0532C368.069 62.0297 369.479 58.2114 379.705 62.9768C434.864 88.683 488.306 95.8536 468.959 95.8536C388.892 95.8536 355.081 140.095 343.581 118.854C332.081 97.6125 218.12 85.8418 289.151 86.6535Z" fill="black"/>
</g>
<g filter="url(#filter1_f_1296_21275)">
<circle cx="378.758" cy="88.683" r="61.4242" fill="black"/>
</g>
<circle cx="378.758" cy="88.6829" r="55.6065" fill="white" stroke="black" stroke-width="1.35296"/>
<path fill-rule="evenodd" clip-rule="evenodd" d="M217.186 148.528C245.428 139.987 265.992 113.76 265.992 82.7301C265.992 60.2162 255.167 40.2307 238.437 27.6943C268.894 31.3277 292.509 57.2476 292.509 88.683C292.509 122.607 265.008 150.107 231.084 150.107C226.304 150.107 221.652 149.561 217.186 148.528Z" fill="url(#paint0_radial_1296_21275)"/>
<path fill-rule="evenodd" clip-rule="evenodd" d="M217.186 148.528C245.428 139.987 265.992 113.76 265.992 82.7301C265.992 60.2162 255.167 40.2307 238.437 27.6943C268.894 31.3277 292.509 57.2476 292.509 88.683C292.509 122.607 265.008 150.107 231.084 150.107C226.304 150.107 221.652 149.561 217.186 148.528Z" fill="black"/>
<path fill-rule="evenodd" clip-rule="evenodd" d="M149.23 150.107C183.092 150.035 210.52 122.562 210.52 88.6833C210.52 54.8046 183.092 27.3319 149.23 27.2593V150.107Z" fill="url(#paint1_radial_1296_21275)"/>
<path fill-rule="evenodd" clip-rule="evenodd" d="M149.23 150.107C183.092 150.035 210.52 122.562 210.52 88.6833C210.52 54.8046 183.092 27.3319 149.23 27.2593V150.107Z" fill="black"/>
<circle cx="61.4242" cy="88.683" r="61.4242" fill="url(#paint2_radial_1296_21275)"/>
<circle cx="61.4242" cy="88.683" r="61.4242" fill="black"/>
<defs>
<filter id="filter0_f_1296_21275" x="238.933" y="31.9941" width="261.128" height="119.689" filterUnits="userSpaceOnUse" color-interpolation-filters="sRGB">
<feFlood flood-opacity="0" result="BackgroundImageFix"/>
<feBlend mode="normal" in="SourceGraphic" in2="BackgroundImageFix" result="shape"/>
<feGaussianBlur stdDeviation="13.5296" result="effect1_foregroundBlur_1296_21275"/>
</filter>
<filter id="filter1_f_1296_21275" x="290.275" y="0.199669" width="176.966" height="176.967" filterUnits="userSpaceOnUse" color-interpolation-filters="sRGB">
<feFlood flood-opacity="0" result="BackgroundImageFix"/>
<feBlend mode="normal" in="SourceGraphic" in2="BackgroundImageFix" result="shape"/>
<feGaussianBlur stdDeviation="13.5296" result="effect1_foregroundBlur_1296_21275"/>
</filter>
<radialGradient id="paint0_radial_1296_21275" cx="0" cy="0" r="1" gradientUnits="userSpaceOnUse" gradientTransform="translate(175.207 59.5944) rotate(38.6793) scale(124.263 124.263)">
<stop offset="0.0989583" stop-color="white"/>
<stop offset="0.348958" stop-color="#DEE2E6"/>
<stop offset="0.713542" stop-color="#343A40"/>
<stop offset="1" stop-color="#ADB5BD"/>
</radialGradient>
<radialGradient id="paint1_radial_1296_21275" cx="0" cy="0" r="1" gradientUnits="userSpaceOnUse" gradientTransform="translate(136.378 69.0656) rotate(51.7025) scale(86.8867)">
<stop stop-color="white"/>
<stop offset="0.786458" stop-color="#636B73"/>
<stop offset="1" stop-color="#ADB5BD"/>
</radialGradient>
<radialGradient id="paint2_radial_1296_21275" cx="0" cy="0" r="1" gradientUnits="userSpaceOnUse" gradientTransform="translate(48.7064 69.0651) rotate(51.7025) scale(86.8867)">
<stop stop-color="white"/>
<stop offset="0.84375" stop-color="#666B71"/>
<stop offset="1" stop-color="#ADB5BD"/>
</radialGradient>
</defs>
</svg>
