<svg width="392" height="849" viewBox="0 0 392 849" fill="none" xmlns="http://www.w3.org/2000/svg">
<g clip-path="url(#clip0_401_20159)">
<rect width="392" height="848.328" rx="30.1538" fill="white"/>
<rect x="-0.000976562" width="392" height="155.795" fill="white"/>
<path d="M28.4405 130.837V141.202H26.6972V136.004H24.1844V134.59H26.6972V130.837H28.4405ZM28.8017 143.322V144.736H19.1274V140.291H20.8706V143.322H28.8017ZM21.7658 133.664C21.7658 135.375 22.9123 137.134 25.111 137.857L24.2315 139.255C22.6453 138.713 21.5224 137.637 20.902 136.286C20.2738 137.786 19.0881 138.972 17.4155 139.553L16.5203 138.14C18.7818 137.401 19.9911 135.532 19.9911 133.648V133.271H17.0386V131.857H24.7027V133.271H21.7658V133.664ZM34.7854 135.156C34.7854 137.354 35.6963 139.569 37.6751 140.637L36.7014 141.924C35.3822 141.226 34.487 139.977 33.9844 138.485C33.4818 140.095 32.5867 141.469 31.2517 142.254L30.2309 140.935C32.2411 139.773 33.1363 137.401 33.1363 135.156V134.716H30.7177V133.302H33.1363V131.323H34.7854V133.302H37.1568V134.716H34.7854V135.156ZM42.6693 130.821V145.018H41.0046V130.821H42.6693ZM39.7796 131.088V144.327H38.1306V137.715H36.2774V136.271H38.1306V131.088H39.7796Z" fill="#454545" fill-opacity="0.3"/>
<path d="M71.1764 130.821V145.018H69.4959V130.821H71.1764ZM68.2552 131.072V144.327H66.5905V137.574H65.2398C65.0749 140.338 63.8892 142.05 62.1302 142.034C60.277 142.05 59.0677 140.087 59.0677 136.962C59.0677 133.836 60.277 131.905 62.1302 131.905C63.8499 131.905 65.02 133.507 65.2241 136.161H66.5905V131.072H68.2552ZM62.1302 133.554C61.235 133.538 60.6697 134.747 60.6854 136.962C60.6697 139.176 61.235 140.385 62.1302 140.37C63.0725 140.385 63.6379 139.176 63.6379 136.962C63.6379 134.747 63.0725 133.538 62.1302 133.554ZM84.7456 130.821V145.034H83.0023V136.726H78.9347V135.313H83.0023V130.821H84.7456ZM75.3225 132.376V140.213C77.2307 140.181 79.1232 140.032 81.1177 139.647L81.3219 141.076C79.0289 141.548 76.9088 141.673 74.7414 141.673H73.5793V132.376H75.3225ZM92.0799 134.857C92.0799 137.182 93.4463 139.632 95.7392 140.59L94.7812 141.972C93.1007 141.249 91.8757 139.757 91.2318 137.951C90.5722 139.898 89.3315 141.532 87.6668 142.317L86.6616 140.951C88.9075 139.914 90.3052 137.276 90.3052 134.857V133.664H87.1799V132.219H95.1895V133.664H92.0799V134.857ZM98.5347 130.821V145.018H96.7757V130.821H98.5347ZM113.596 141.877V143.307H100.623V141.877H106.215V139.113H102.053V131.763H103.796V134.088H110.376V131.763H112.12V139.113H107.942V141.877H113.596ZM103.796 137.7H110.376V135.485H103.796V137.7ZM126.113 132.124V133.491C126.097 135.25 126.097 137.229 125.548 140.197L123.789 140.008C124.338 137.244 124.338 135.226 124.354 133.522H115.873V132.124H126.113ZM127.464 141.752V143.181H114.523V141.752H119.297V136.82H121.024V141.752H127.464ZM133.667 134.229C133.667 136.867 134.923 139.459 137.185 140.448L136.133 141.846C134.523 141.061 133.392 139.553 132.788 137.7C132.167 139.655 131.013 141.281 129.38 142.113L128.28 140.699C130.589 139.616 131.877 136.883 131.892 134.229V131.967H133.667V134.229ZM140.326 130.821V145.034H138.598V136.82H135.615V135.407H138.598V130.821H140.326Z" fill="#454545"/>
<rect x="58.1523" y="153.621" width="84" height="2.01026" rx="1.00513" fill="#454545"/>
<path d="M164.626 131.873V132.721C164.611 133.695 164.611 135.093 164.281 136.899L162.553 136.742C162.828 135.273 162.883 134.19 162.915 133.318H157.386V131.873H164.626ZM161.046 135.108V137.935C162.514 137.88 164.022 137.77 165.396 137.574L165.49 138.831C162.538 139.365 159.192 139.412 156.695 139.427L156.538 138.03C157.378 138.022 158.321 138.014 159.318 137.998V135.108H161.046ZM168.019 130.821V135.25H169.856V136.71H168.019V141.453H166.228V130.821H168.019ZM168.474 143.322V144.736H158.658V140.511H160.417V143.322H168.474ZM182.42 130.821V145.034H180.693V130.821H182.42ZM178.054 132.062V137.386H173.17V140.244C175.408 140.228 177.34 140.118 179.546 139.741L179.703 141.171C177.285 141.595 175.165 141.673 172.62 141.673H171.38V136.004H176.28V133.475H171.364V132.062H178.054ZM196.304 130.821V145.034H194.545V130.821H196.304ZM186.99 131.983V135.532H190.43V131.983H192.157V141.689H185.247V131.983H186.99ZM186.99 140.26H190.43V136.899H186.99V140.26ZM209.59 130.79V133.993H211.585V135.407H209.59V138.532H207.847V130.79H209.59ZM209.59 139.16V142.584H202.052V143.589H210.03V144.893H200.324V141.375H207.847V140.432H200.308V139.16H209.59ZM206.826 131.967V133.302H198.408V131.967H201.753V130.711H203.497V131.967H206.826ZM202.617 133.742C204.722 133.758 206.072 134.653 206.088 136.066C206.072 137.527 204.722 138.391 202.617 138.391C200.513 138.391 199.131 137.527 199.131 136.066C199.131 134.653 200.513 133.758 202.617 133.742ZM202.617 134.998C201.518 134.998 200.827 135.391 200.827 136.066C200.827 136.757 201.518 137.134 202.617 137.134C203.716 137.134 204.423 136.757 204.423 136.066C204.423 135.391 203.716 134.998 202.617 134.998ZM224.117 130.837V141.092H222.358V130.837H224.117ZM224.51 143.322V144.736H214.726V140.056H216.485V143.322H224.51ZM216.375 131.763C218.526 131.763 220.191 133.255 220.191 135.313C220.191 137.417 218.526 138.878 216.375 138.878C214.207 138.878 212.543 137.417 212.543 135.313C212.543 133.255 214.207 131.763 216.375 131.763ZM216.375 133.287C215.165 133.287 214.239 134.088 214.255 135.313C214.239 136.569 215.165 137.354 216.375 137.354C217.553 137.354 218.479 136.569 218.479 135.313C218.479 134.088 217.553 133.287 216.375 133.287Z" fill="#454545" fill-opacity="0.3"/>
<path d="M253.724 137.621V139.019H240.767V137.621H246.389V136.271H242.353V131.465H252.153V132.831H244.097V134.889H252.232V136.271H248.101V137.621H253.724ZM247.222 139.836C250.284 139.836 252.122 140.762 252.138 142.427C252.122 144.076 250.284 145.018 247.222 145.018C244.128 145.018 242.275 144.076 242.275 142.427C242.275 140.762 244.128 139.836 247.222 139.836ZM247.222 141.171C245.149 141.171 244.034 141.61 244.049 142.427C244.034 143.244 245.149 143.668 247.222 143.668C249.248 143.668 250.379 143.244 250.394 142.427C250.379 141.61 249.248 141.171 247.222 141.171ZM257.006 132.234V140.04C258.396 140.024 259.676 139.922 261.121 139.616L261.372 141.092C259.566 141.485 258.011 141.548 256.221 141.548H255.263V132.234H257.006ZM266.916 130.821V145.018H265.251V130.821H266.916ZM263.869 131.119V144.343H262.22V136.82H259.252V135.407H262.22V131.119H263.869ZM279.763 130.79V133.993H281.757V135.407H279.763V138.532H278.02V130.79H279.763ZM279.763 139.16V142.584H272.224V143.589H280.203V144.893H270.497V141.375H278.02V140.432H270.481V139.16H279.763ZM276.999 131.967V133.302H268.581V131.967H271.926V130.711H273.669V131.967H276.999ZM272.79 133.742C274.894 133.758 276.245 134.653 276.261 136.066C276.245 137.527 274.894 138.391 272.79 138.391C270.685 138.391 269.303 137.527 269.303 136.066C269.303 134.653 270.685 133.758 272.79 133.742ZM272.79 134.998C271.69 134.998 270.999 135.391 270.999 136.066C270.999 136.757 271.69 137.134 272.79 137.134C273.889 137.134 274.596 136.757 274.596 136.066C274.596 135.391 273.889 134.998 272.79 134.998ZM294.29 130.837V141.092H292.531V130.837H294.29ZM294.683 143.322V144.736H284.898V140.056H286.657V143.322H294.683ZM286.547 131.763C288.699 131.763 290.364 133.255 290.364 135.313C290.364 137.417 288.699 138.878 286.547 138.878C284.38 138.878 282.715 137.417 282.715 135.313C282.715 133.255 284.38 131.763 286.547 131.763ZM286.547 133.287C285.338 133.287 284.412 134.088 284.427 135.313C284.412 136.569 285.338 137.354 286.547 137.354C287.725 137.354 288.652 136.569 288.652 135.313C288.652 134.088 287.725 133.287 286.547 133.287Z" fill="#454545" fill-opacity="0.3"/>
<path d="M322.649 130.821V145.034H320.89V130.821H322.649ZM315.001 131.857C317.137 131.857 318.691 133.805 318.707 136.867C318.691 139.961 317.137 141.893 315.001 141.893C312.849 141.893 311.294 139.961 311.294 136.867C311.294 133.805 312.849 131.857 315.001 131.857ZM315.001 133.428C313.791 133.428 312.975 134.7 312.975 136.867C312.975 139.05 313.791 140.323 315.001 140.323C316.194 140.323 317.011 139.05 317.011 136.867C317.011 134.7 316.194 133.428 315.001 133.428ZM336.878 130.821V141.563H335.213V130.821H336.878ZM334.051 131.072V141.123H332.402V136.223H330.894V139.019H325.288V131.936H326.937V134.182H329.277V131.936H330.894V134.81H332.402V131.072H334.051ZM326.937 137.606H329.277V135.517H326.937V137.606ZM337.271 143.322V144.736H327.376V140.134H329.12V143.322H337.271ZM350.18 138.265V139.647H340.223V131.936H350.055V133.349H341.998V135.061H349.725V136.428H341.998V138.265H350.18ZM351.609 141.862V143.291H338.637V141.862H351.609Z" fill="#454545" fill-opacity="0.3"/>
<path d="M52.1119 19.834C54.4815 19.8507 56.8176 21.2524 56.8343 25.6743C56.8343 29.846 54.9487 32.2489 51.9785 32.2489C49.6423 32.2489 48.0404 30.7972 47.7734 28.7948H49.926C50.1429 29.7459 50.8771 30.3633 51.9785 30.3633C53.7306 30.3633 54.7151 28.8114 54.7318 26.225H54.5983C53.9809 27.2763 52.8295 27.8937 51.4945 27.8937C49.342 27.8937 47.6733 26.2584 47.6566 23.9723C47.6566 21.6028 49.4254 19.8173 52.1119 19.834ZM52.1286 21.5861C50.777 21.5861 49.7591 22.6374 49.7758 23.9222C49.7758 25.2238 50.7436 26.2417 52.0953 26.2417C53.4302 26.2417 54.4815 25.1571 54.4648 23.9055C54.4648 22.6707 53.4803 21.5861 52.1286 21.5861ZM59.2879 30.5802C58.5704 30.5802 57.9863 29.9962 57.9863 29.2787C57.9863 28.5778 58.5704 27.9938 59.2879 27.9938C59.9721 27.9938 60.5728 28.5778 60.5728 29.2787C60.5728 29.9962 59.9721 30.5802 59.2879 30.5802ZM59.2879 24.1058C58.5704 24.1058 57.9863 23.5218 57.9863 22.8042C57.9863 22.1034 58.5704 21.5194 59.2879 21.5194C59.9721 21.5194 60.5728 22.1034 60.5728 22.8042C60.5728 23.5218 59.9721 24.1058 59.2879 24.1058ZM61.7081 29.8293V28.0939L66.9311 20.0009H69.6343V28.0439H71.2196V29.8293H69.6343V32.082H67.5652V29.8293H61.7081ZM63.9275 28.0439H67.5985V22.4705H67.465L63.9275 27.9604V28.0439ZM77.0105 20.0009V32.082H74.8245V22.1201H74.7578L71.9377 23.9222V21.9365L74.9247 20.0009H77.0105Z" fill="#454545"/>
<g clip-path="url(#clip1_401_20159)">
<rect x="307.92" y="19.0974" width="3.21641" height="12.0615" rx="1.00513" fill="#454545"/>
<rect x="302.593" y="21.5098" width="3.21641" height="9.64923" rx="1.00513" fill="#454545"/>
<rect x="297.266" y="24.123" width="3.21641" height="7.0359" rx="1.00513" fill="#454545"/>
<rect x="291.938" y="26.5354" width="3.21641" height="4.62359" rx="1.00513" fill="#454545"/>
</g>
<g clip-path="url(#clip2_401_20159)">
<path d="M325.669 27.2727C326.377 27.2727 327.064 27.4585 327.669 27.8128L327.914 27.9563C328.1 28.0651 328.133 28.3198 327.98 28.4719L325.886 30.5602C325.758 30.6885 325.549 30.6885 325.42 30.5602L323.34 28.4853C323.188 28.3339 323.22 28.0805 323.404 27.9709L323.646 27.8267C324.257 27.4635 324.953 27.2727 325.669 27.2727Z" fill="#454545"/>
<path d="M325.669 23.4364C327.428 23.4364 329.117 24.0199 330.493 25.1005L330.687 25.2532C330.842 25.3749 330.856 25.6043 330.716 25.7435L329.466 26.9902C329.35 27.1056 329.167 27.1188 329.036 27.0213L328.884 26.9081C327.955 26.2175 326.834 25.8471 325.669 25.8471C324.497 25.8471 323.37 26.2221 322.438 26.9206L322.285 27.0349C322.154 27.1332 321.971 27.1202 321.855 27.0046L320.605 25.7583C320.466 25.6194 320.479 25.3906 320.633 25.2686L320.826 25.1158C322.205 24.0256 323.902 23.4364 325.669 23.4364Z" fill="#454545"/>
<path d="M325.669 19.6C328.46 19.6 331.13 20.5846 333.243 22.3894L333.423 22.5435C333.569 22.668 333.577 22.8899 333.442 23.0252L332.195 24.2679C332.075 24.3883 331.882 24.3968 331.751 24.2874L331.597 24.1584C329.933 22.7673 327.848 22.0107 325.669 22.0107C323.482 22.0107 321.391 22.7725 319.725 24.1723L319.57 24.3019C319.44 24.4118 319.246 24.4036 319.125 24.283L317.879 23.0405C317.744 22.9053 317.752 22.6838 317.897 22.5592L318.077 22.4051C320.192 20.5905 322.869 19.6 325.669 19.6Z" fill="#454545"/>
</g>
<rect x="341.743" y="20.6051" width="21.1077" height="9.04615" rx="1.33682" fill="#454545"/>
<path opacity="0.4" fill-rule="evenodd" clip-rule="evenodd" d="M345.361 19.6H359.232C360.234 19.6 360.924 19.6008 361.461 19.6446C361.985 19.6874 362.273 19.7664 362.483 19.8739C362.956 20.1148 363.341 20.4992 363.582 20.972C363.689 21.183 363.768 21.4704 363.811 21.9948C363.855 22.531 363.855 23.2219 363.855 24.2236V26.0328C363.855 27.0345 363.855 27.7253 363.811 28.2615C363.768 28.786 363.689 29.0734 363.582 29.2844C363.341 29.7572 362.956 30.1416 362.483 30.3825C362.273 30.49 361.985 30.5689 361.461 30.6118C360.924 30.6556 360.234 30.6564 359.232 30.6564H345.361C344.359 30.6564 343.669 30.6556 343.132 30.6118C342.608 30.5689 342.321 30.49 342.11 30.3825C341.637 30.1416 341.252 29.7572 341.011 29.2844C340.904 29.0734 340.825 28.786 340.782 28.2615C340.738 27.7253 340.738 27.0345 340.738 26.0328V24.2236C340.738 23.2219 340.738 22.531 340.782 21.9948C340.825 21.4704 340.904 21.183 341.011 20.972C341.252 20.4992 341.637 20.1148 342.11 19.8739C342.321 19.7664 342.608 19.6874 343.132 19.6446C343.669 19.6008 344.359 19.6 345.361 19.6ZM339.732 24.2236C339.732 22.2533 339.732 21.2682 340.116 20.5157C340.453 19.8537 340.991 19.3156 341.653 18.9783C342.406 18.5948 343.391 18.5948 345.361 18.5948H359.232C361.202 18.5948 362.187 18.5948 362.94 18.9783C363.602 19.3156 364.14 19.8537 364.477 20.5157C364.861 21.2682 364.861 22.2533 364.861 24.2236V26.0328C364.861 28.003 364.861 28.9882 364.477 29.7407C364.14 30.4026 363.602 30.9408 362.94 31.2781C362.187 31.6615 361.202 31.6615 359.232 31.6615H345.361C343.391 31.6615 342.406 31.6615 341.653 31.2781C340.991 30.9408 340.453 30.4026 340.116 29.7407C339.732 28.9882 339.732 28.003 339.732 26.0328V24.2236ZM365.866 27.1384C366.698 26.9374 367.373 26.2384 367.373 25.1282C367.373 24.0179 366.698 23.3189 365.866 23.1179L365.866 25.1282L365.866 27.1384Z" fill="#454545"/>
<rect x="123.869" y="838.277" width="144.256" height="5.02564" rx="2.51282" fill="black"/>
<rect x="18.5026" y="260.503" width="77.2205" height="30.9949" rx="3.49744" stroke="#E0E0E0" stroke-width="1.00513"/>
<path d="M34.5002 281.137C32.3702 281.137 30.8586 279.983 30.8173 278.307H32.6175C32.6725 279.104 33.4695 279.626 34.5002 279.626C35.5995 279.626 36.3828 279.021 36.3828 278.142C36.3828 277.248 35.6133 276.603 34.3215 276.603H33.4283V275.228H34.3215C35.3797 275.228 36.1217 274.637 36.108 273.772C36.1217 272.933 35.4896 272.37 34.5139 272.37C33.5795 272.37 32.7687 272.892 32.7412 273.73H31.0235C31.0647 272.054 32.5763 270.913 34.5277 270.913C36.5477 270.913 37.8532 272.15 37.8395 273.676C37.8532 274.789 37.1112 275.599 36.0255 275.819V275.902C37.4272 276.094 38.2243 276.987 38.2105 278.238C38.2243 279.914 36.6577 281.137 34.5002 281.137ZM50.0286 269.8V282.223H48.5582V275.847H47.2253V281.646H45.7961V270.13H47.2253V274.61H48.5582V269.8H50.0286ZM44.738 271.367C44.738 274.72 43.6798 277.606 40.1481 279.626L39.2687 278.568C41.914 277.035 43.034 275.07 43.2538 272.59H39.8458V271.367H44.738ZM61.9429 269.814V277.056H60.4038V276.548H58.0814V275.613H60.4038V269.814H61.9429ZM51.5128 274.294C53.9176 274.294 56.9134 274.266 59.5793 274.005L59.6618 274.967C58.5281 275.125 57.36 275.221 56.2125 275.27V277.07H54.7009V275.338C53.6359 275.366 52.6121 275.373 51.6777 275.366L51.5128 274.294ZM61.9429 277.441V280.23H54.8796V281.027H62.2727V282.113H53.3817V279.227H60.4313V278.485H53.3267V277.441H61.9429ZM55.5254 270.006C57.3669 270.006 58.6311 270.748 58.6311 271.875C58.6311 273.03 57.3669 273.73 55.5254 273.73C53.6428 273.73 52.3923 273.03 52.3923 271.875C52.3923 270.748 53.6428 270.006 55.5254 270.006ZM55.5254 271.023C54.481 271.023 53.8352 271.353 53.8489 271.875C53.8352 272.398 54.481 272.714 55.5254 272.714C56.5423 272.714 57.202 272.398 57.202 271.875C57.202 271.353 56.5423 271.023 55.5254 271.023Z" fill="black"/>
<path d="M81.1479 273.311L76.1243 278.208L71.1007 273.311C71.0109 273.224 70.8904 273.175 70.765 273.175C70.6395 273.175 70.519 273.224 70.4293 273.311C70.3858 273.354 70.3513 273.405 70.3277 273.461C70.3041 273.517 70.292 273.577 70.292 273.638C70.292 273.699 70.3041 273.759 70.3277 273.815C70.3513 273.871 70.3858 273.922 70.4293 273.965L75.7735 279.175C75.8674 279.267 75.9933 279.318 76.1243 279.318C76.2554 279.318 76.3813 279.267 76.4751 279.175L81.8194 273.966C81.8631 273.923 81.8979 273.872 81.9217 273.816C81.9454 273.76 81.9577 273.699 81.9577 273.638C81.9577 273.577 81.9454 273.516 81.9217 273.46C81.8979 273.404 81.8631 273.353 81.8194 273.31C81.7296 273.223 81.6091 273.174 81.4837 273.174C81.3582 273.174 81.2377 273.223 81.1479 273.31V273.311Z" fill="#454545"/>
<path d="M105.719 270.79C107.643 270.79 109.004 271.958 109.004 273.662C109.004 275.366 107.643 276.534 105.719 276.534C103.795 276.534 102.407 275.366 102.421 273.662C102.407 271.958 103.795 270.79 105.719 270.79ZM105.719 271.738C104.414 271.738 103.466 272.521 103.479 273.662C103.466 274.802 104.414 275.586 105.719 275.586C107.011 275.586 107.945 274.802 107.945 273.662C107.945 272.521 107.011 271.738 105.719 271.738ZM111.738 269.896V282.141H110.666V269.896H111.738ZM101.789 278.526C104.043 278.526 107.148 278.513 109.856 278.114L109.938 278.911C107.148 279.433 104.139 279.447 101.94 279.447L101.789 278.526ZM127.885 269.896V282.113H126.841V269.896H127.885ZM125.425 270.158V281.495H124.395V275.558H122.828C122.711 277.936 121.701 279.42 120.19 279.42C118.595 279.42 117.565 277.771 117.565 275.173C117.565 272.576 118.595 270.927 120.19 270.927C121.674 270.927 122.677 272.363 122.814 274.665H124.395V270.158H125.425ZM120.19 271.944C119.2 271.944 118.568 273.181 118.582 275.173C118.568 277.152 119.2 278.403 120.19 278.389C121.179 278.403 121.811 277.152 121.811 275.173C121.811 273.181 121.179 271.944 120.19 271.944ZM139.717 269.896V282.141H138.631V274.83H134.825V273.937H138.631V269.896H139.717ZM131.334 271.271V278.265C133.196 278.245 134.859 278.149 136.694 277.771L136.831 278.664C134.88 279.062 133.162 279.172 131.183 279.172H130.249V271.271H131.334ZM146.107 273.648C146.107 275.723 147.619 277.826 149.419 278.609L148.814 279.461C147.385 278.808 146.148 277.4 145.585 275.709C145.008 277.503 143.778 279.062 142.383 279.763L141.737 278.911C143.482 278.073 145.008 275.764 145.021 273.648V272.054H142.135V271.161H149.02V272.054H146.107V273.648ZM151.81 269.896V282.113H150.724V269.896H151.81ZM161.525 273.181C161.525 275.338 162.955 277.551 164.686 278.403L164.026 279.269C162.68 278.561 161.553 277.118 161.017 275.421C160.467 277.228 159.313 278.767 157.939 279.502L157.252 278.636C159.038 277.757 160.454 275.407 160.467 273.181V270.955H161.525V273.181ZM166.885 269.896V274.857H168.932V275.792H166.885V282.113H165.813V269.896H166.885ZM180.723 275.943V276.836H169.592V275.943H172.354V274.225C171.378 273.847 170.829 273.222 170.829 272.398C170.829 270.955 172.478 270.13 175.157 270.13C177.81 270.13 179.472 270.955 179.472 272.398C179.472 273.215 178.93 273.84 177.961 274.211V275.943H180.723ZM175.157 277.771C177.782 277.771 179.349 278.526 179.363 279.928C179.349 281.316 177.782 282.086 175.157 282.086C172.505 282.086 170.939 281.316 170.939 279.928C170.939 278.526 172.505 277.771 175.157 277.771ZM175.157 278.595C173.192 278.609 172.024 279.09 172.038 279.928C172.024 280.753 173.192 281.247 175.157 281.247C177.095 281.247 178.277 280.753 178.277 279.928C178.277 279.09 177.095 278.609 175.157 278.595ZM175.157 270.982C173.165 270.982 171.928 271.518 171.942 272.398C171.928 273.291 173.165 273.813 175.157 273.813C177.136 273.813 178.373 273.291 178.373 272.398C178.373 271.518 177.136 270.982 175.157 270.982ZM173.426 275.943H176.889V274.514C176.374 274.603 175.796 274.651 175.157 274.651C174.518 274.651 173.941 274.603 173.426 274.514V275.943ZM195.757 269.896V282.113H194.712V275.737H193.05V281.481H192.019V270.171H193.05V274.83H194.712V269.896H195.757ZM191.112 271.449V272.343H190.054V278.004C190.514 277.977 190.954 277.936 191.359 277.881L191.414 278.678C189.477 279.035 186.893 279.09 185.285 279.09L185.148 278.169L186.481 278.155V272.343H185.409V271.449H191.112ZM187.484 278.142C187.999 278.128 188.528 278.107 189.051 278.073V272.343H187.484V278.142ZM207.575 269.91V278.98H206.489V274.239H204.098V273.346H206.489V269.91H207.575ZM207.905 280.945V281.852H199.701V278.197H200.786V280.945H207.905ZM203.576 270.858V271.752H199.151V273.456H203.246V274.321H199.151V276.135C201.405 276.135 202.683 276.087 204.236 275.806L204.332 276.699C202.71 276.987 201.363 277.042 198.972 277.042H198.079V270.858H203.576ZM216.383 271.257V271.889C216.37 272.851 216.37 274.473 216.026 276.74L214.941 276.644C215.27 274.596 215.298 273.112 215.298 272.136H210.172V271.257H216.383ZM213.182 274.747V278.458C214.535 278.41 215.923 278.32 217.194 278.169L217.249 278.98C214.679 279.378 211.807 279.433 209.622 279.42L209.485 278.526C210.289 278.52 211.182 278.513 212.123 278.485V274.747H213.182ZM219.036 269.896V275.008H221.014V275.943H219.036V282.113H217.964V269.896H219.036ZM235.375 269.896V282.141H234.289V269.896H235.375ZM227.088 270.941V274.17H230.73V270.941H231.788V279.186H226.017V270.941H227.088ZM227.088 278.279H230.73V275.036H227.088V278.279ZM247.275 271.133V272.494C247.275 274.06 247.275 275.641 246.836 277.908L245.778 277.784C246.217 275.627 246.217 274.019 246.217 272.494V272.026H238.632V271.133H247.275ZM248.595 279.488V280.382H237.464V279.488H240.226V275.462H241.298V279.488H243.277V275.462H244.335V279.488H248.595ZM255.727 272.013V272.892H249.598V272.013H252.14V270.268H253.212V272.013H255.727ZM252.662 273.717C254.201 273.717 255.301 274.871 255.314 276.493C255.301 278.128 254.201 279.296 252.662 279.296C251.137 279.296 250.038 278.128 250.038 276.493C250.038 274.871 251.137 273.717 252.662 273.717ZM252.662 274.624C251.7 274.637 251 275.421 251 276.493C251 277.578 251.7 278.362 252.662 278.348C253.638 278.362 254.353 277.578 254.353 276.493C254.353 275.421 253.638 274.637 252.662 274.624ZM260.028 269.896V282.113H258.997V275.943H257.376V281.508H256.359V270.199H257.376V275.05H258.997V269.896H260.028ZM276.505 279.653V280.547H265.319V279.653H270.348V277.015H266.638V270.762H267.724V272.975H274.072V270.762H275.13V277.015H271.406V279.653H276.505ZM267.724 276.135H274.072V273.854H267.724V276.135ZM281.108 273.373C281.108 275.311 282.056 277.413 283.678 278.375L283.06 279.214C281.885 278.499 281.039 277.193 280.613 275.709C280.16 277.331 279.253 278.726 278.03 279.475L277.343 278.664C279.033 277.674 280.064 275.503 280.064 273.414V271.051H281.108V273.373ZM287.952 269.896V282.113H286.907V269.896H287.952ZM285.423 270.158V281.495H284.406V275.201H282.331V274.28H284.406V270.158H285.423ZM300.828 279.64V280.547H289.642V279.64H292.418V276.341C291.373 275.799 290.741 274.919 290.741 273.813C290.741 271.917 292.597 270.68 295.207 270.666C297.818 270.68 299.674 271.917 299.674 273.813C299.674 274.899 299.062 275.771 298.052 276.314V279.64H300.828ZM295.207 271.559C293.201 271.546 291.786 272.452 291.786 273.813C291.786 275.173 293.201 276.094 295.207 276.094C297.2 276.094 298.629 275.173 298.629 273.813C298.629 272.452 297.2 271.546 295.207 271.559ZM293.476 279.64H296.966V276.726C296.437 276.871 295.846 276.946 295.207 276.946C294.582 276.946 293.998 276.877 293.476 276.74V279.64Z" fill="#232323"/>
<g clip-path="url(#clip3_401_20159)">
<rect width="173.918" height="26.041" transform="translate(16.0806 325.25)" fill="#1E7EDE"/>
<path d="M67.8794 333.373V343.271H66.0884V335.109H66.0337L63.7231 336.585V334.958L66.1704 333.373H67.8794ZM74.3052 333.373V343.271H72.5142V335.109H72.4595L70.1489 336.585V334.958L72.5962 333.373H74.3052ZM86.6646 332.142V339.347H85.1333V338.841H82.8228V337.912H85.1333V332.142H86.6646ZM76.2876 336.599C78.6802 336.599 81.6606 336.572 84.313 336.312L84.395 337.269C83.2671 337.426 82.105 337.522 80.9634 337.57V339.361H79.4595V337.638C78.3999 337.666 77.3813 337.672 76.4517 337.666L76.2876 336.599ZM86.6646 339.73V342.505H79.6372V343.298H86.9927V344.378H78.147V341.507H85.1606V340.769H78.0923V339.73H86.6646ZM80.2798 332.333C82.1118 332.333 83.3696 333.072 83.3696 334.193C83.3696 335.341 82.1118 336.039 80.2798 336.039C78.4067 336.039 77.1626 335.341 77.1626 334.193C77.1626 333.072 78.4067 332.333 80.2798 332.333ZM80.2798 333.345C79.2407 333.345 78.5981 333.673 78.6118 334.193C78.5981 334.712 79.2407 335.027 80.2798 335.027C81.2915 335.027 81.9478 334.712 81.9478 334.193C81.9478 333.673 81.2915 333.345 80.2798 333.345ZM102.989 338.39V339.621H91.7231V338.39H96.5903V337.078H98.0942V338.39H102.989ZM98.0942 332.156V333.277H101.881V334.48H98.2173C98.4019 335.492 99.8579 336.339 102.428 336.517L101.963 337.679C99.7485 337.508 98.1147 336.818 97.3423 335.751C96.5698 336.818 94.9224 337.508 92.7212 337.679L92.2563 336.517C94.813 336.339 96.269 335.492 96.4673 334.48H92.8306V333.277H96.5903V332.156H98.0942ZM97.3423 340.304C100.036 340.304 101.608 341.042 101.622 342.396C101.608 343.736 100.036 344.474 97.3423 344.474C94.6353 344.474 93.0356 343.736 93.0356 342.396C93.0356 341.042 94.6353 340.304 97.3423 340.304ZM97.3423 341.439C95.5239 341.439 94.5669 341.753 94.5806 342.396C94.5669 343.025 95.5239 343.339 97.3423 343.339C99.1196 343.339 100.09 343.025 100.104 342.396C100.09 341.753 99.1196 341.439 97.3423 341.439ZM111.561 335.095C111.547 337.296 112.655 339.539 114.569 340.455L113.639 341.671C112.299 340.995 111.335 339.689 110.809 338.117C110.269 339.798 109.257 341.193 107.842 341.904L106.913 340.687C108.895 339.744 110.03 337.378 110.043 335.095V333.126H111.561V335.095ZM116.825 332.128V336.968H118.725V338.267H116.825V344.488H115.307V332.128H116.825ZM130.51 338.076V339.292H119.245V338.076H121.87V336.503C120.94 336.114 120.407 335.492 120.407 334.685C120.407 333.208 122.143 332.333 124.864 332.333C127.584 332.333 129.307 333.208 129.321 334.685C129.314 335.499 128.781 336.121 127.844 336.503V338.076H130.51ZM124.864 340.044C127.53 340.031 129.129 340.824 129.143 342.246C129.129 343.681 127.53 344.46 124.864 344.46C122.17 344.46 120.557 343.681 120.557 342.246C120.557 340.824 122.17 340.031 124.864 340.044ZM124.864 341.193C123.059 341.193 122.088 341.548 122.102 342.246C122.088 342.943 123.059 343.312 124.864 343.312C126.627 343.312 127.612 342.943 127.625 342.246C127.612 341.548 126.627 341.193 124.864 341.193ZM124.864 333.509C123.032 333.509 121.979 333.919 121.993 334.685C121.979 335.437 123.032 335.833 124.864 335.833C126.682 335.833 127.749 335.437 127.749 334.685C127.749 333.919 126.682 333.509 124.864 333.509ZM123.401 338.076H126.327V336.9C125.882 336.961 125.39 336.996 124.864 336.996C124.337 336.996 123.845 336.961 123.401 336.9V338.076ZM142.829 333.892V335.15H141.092V336.49H142.829V337.761H141.092V339.607H139.575V332.142H141.092V333.892H142.829ZM137.456 332.894V336.449H133.34V337.748C135.439 337.734 136.875 337.659 138.563 337.378L138.727 338.595C136.881 338.923 135.282 339.005 132.834 338.992H131.823V335.3H135.965V334.097H131.809V332.894H137.456ZM137.059 339.839C139.602 339.853 141.202 340.714 141.215 342.177C141.202 343.626 139.602 344.46 137.059 344.46C134.461 344.46 132.875 343.626 132.875 342.177C132.875 340.714 134.461 339.853 137.059 339.839ZM137.059 341.029C135.336 341.029 134.352 341.439 134.366 342.177C134.352 342.916 135.336 343.312 137.059 343.312C138.768 343.312 139.711 342.916 139.711 342.177C139.711 341.439 138.768 341.029 137.059 341.029Z" fill="white"/>
<path d="M82.5697 369.306C84.9196 369.324 87.3932 370.737 87.3932 375.419C87.3932 379.907 85.4673 382.451 82.393 382.451C80.0432 382.451 78.3823 381.002 78.082 378.918H80.0078C80.2728 379.995 81.1033 380.755 82.393 380.755C84.3719 380.755 85.5203 379.024 85.538 376.108H85.379C84.6899 377.186 83.4885 377.84 82.1103 377.84C79.8135 377.84 77.976 376.091 77.976 373.635C77.976 371.197 79.7958 369.288 82.5697 369.306ZM82.5697 370.932C81.0149 370.932 79.8665 372.133 79.8665 373.599C79.8665 375.084 80.9796 376.25 82.5344 376.25C84.0715 376.25 85.273 374.995 85.273 373.582C85.273 372.204 84.1422 370.932 82.5697 370.932ZM93.8421 369.306C96.192 369.324 98.6655 370.737 98.6655 375.419C98.6655 379.907 96.7397 382.451 93.6654 382.451C91.3155 382.451 89.6547 381.002 89.3543 378.918H91.2802C91.5452 379.995 92.3756 380.755 93.6654 380.755C95.6442 380.755 96.7927 379.024 96.8103 376.108H96.6513C95.9623 377.186 94.7608 377.84 93.3827 377.84C91.0858 377.84 89.2483 376.091 89.2483 373.635C89.2483 371.197 91.0682 369.288 93.8421 369.306ZM93.8421 370.932C92.2873 370.932 91.1388 372.133 91.1388 373.599C91.1388 375.084 92.2519 376.25 93.8067 376.25C95.3439 376.25 96.5453 374.995 96.5453 373.582C96.5453 372.204 95.4146 370.932 93.8421 370.932ZM100.477 382.275V372.325H101.948V377.96H102.072L105.026 374.813H106.785L103.776 378.015L106.991 382.275H105.191L102.662 378.921L101.948 379.622V382.275H100.477ZM110.028 382.275L107.266 372.325H108.86L110.798 380.021H110.88L112.9 372.325H114.467L116.487 380.021H116.569L118.507 372.325H120.101L117.339 382.275H115.814L113.725 374.84H113.642L111.554 382.275H110.028ZM122.685 377.85V382.275H121.214V372.325H122.657V376.036H122.753C123.111 375.225 123.798 374.716 124.966 374.716C126.505 374.716 127.522 375.665 127.522 377.534V382.275H126.051V377.712C126.051 376.613 125.46 375.981 124.471 375.981C123.44 375.981 122.685 376.654 122.685 377.85Z" fill="#232323"/>
</g>
<rect x="16.6215" y="325.791" width="172.836" height="74.9252" rx="3.78672" stroke="#F1F1F1" stroke-width="1.08192"/>
<g clip-path="url(#clip4_401_20159)">
<rect width="173.918" height="26.041" transform="translate(201.999 325.25)" fill="#474961"/>
<path d="M242.874 343.408C240.754 343.408 239.25 342.259 239.209 340.591H241C241.055 341.384 241.848 341.904 242.874 341.904C243.967 341.904 244.747 341.302 244.747 340.427C244.747 339.539 243.981 338.896 242.696 338.896H241.807V337.529H242.696C243.749 337.529 244.487 336.941 244.473 336.08C244.487 335.246 243.858 334.685 242.887 334.685C241.958 334.685 241.151 335.205 241.124 336.039H239.415C239.456 334.371 240.959 333.236 242.901 333.236C244.911 333.236 246.209 334.466 246.196 335.984C246.209 337.091 245.471 337.898 244.391 338.117V338.199C245.786 338.39 246.579 339.279 246.565 340.523C246.579 342.191 245.02 343.408 242.874 343.408ZM258.323 332.128V344.488H256.86V338.144H255.534V343.914H254.112V332.457H255.534V336.914H256.86V332.128H258.323ZM253.059 333.687C253.059 337.023 252.006 339.894 248.493 341.904L247.618 340.851C250.25 339.327 251.364 337.372 251.583 334.904H248.192V333.687H253.059ZM270.176 332.142V339.347H268.645V338.841H266.334V337.912H268.645V332.142H270.176ZM259.799 336.599C262.192 336.599 265.172 336.572 267.825 336.312L267.907 337.269C266.779 337.426 265.617 337.522 264.475 337.57V339.361H262.971V337.638C261.912 337.666 260.893 337.672 259.963 337.666L259.799 336.599ZM270.176 339.73V342.505H263.149V343.298H270.504V344.378H261.659V341.507H268.672V340.769H261.604V339.73H270.176ZM263.792 332.333C265.624 332.333 266.881 333.072 266.881 334.193C266.881 335.341 265.624 336.039 263.792 336.039C261.918 336.039 260.674 335.341 260.674 334.193C260.674 333.072 261.918 332.333 263.792 332.333ZM263.792 333.345C262.752 333.345 262.11 333.673 262.124 334.193C262.11 334.712 262.752 335.027 263.792 335.027C264.803 335.027 265.459 334.712 265.459 334.193C265.459 333.673 264.803 333.345 263.792 333.345ZM282.139 332.99V334.22H281.045V337.72C281.497 337.693 281.941 337.652 282.372 337.597V336.49H284.067V335.423H282.372V334.207H284.067V332.128H285.584V339.703H284.067V337.707H282.413L282.467 338.718C280.116 339.101 277.381 339.156 275.413 339.156L275.249 337.898L276.643 337.884V334.22H275.563V332.99H282.139ZM281.401 339.921C284.04 339.921 285.625 340.742 285.625 342.205C285.625 343.626 284.04 344.474 281.401 344.474C278.776 344.474 277.19 343.626 277.204 342.205C277.19 340.742 278.776 339.921 281.401 339.921ZM281.401 341.083C279.678 341.083 278.708 341.466 278.708 342.205C278.708 342.916 279.678 343.298 281.401 343.298C283.137 343.298 284.108 342.916 284.108 342.205C284.108 341.466 283.137 341.083 281.401 341.083ZM278.12 337.871C278.598 337.857 279.09 337.836 279.583 337.816V334.22H278.12V337.871ZM297.247 332.757V333.769C297.247 334.753 297.247 335.875 296.987 337.324H298.627V338.554H295.688V341.343H294.211V338.554H292.571V341.343H291.081V338.554H287.334V337.324H295.456C295.715 335.943 295.729 334.89 295.729 333.947H288.715V332.757H297.247ZM297.575 343.011V344.242H288.606V340.277H290.124V343.011H297.575ZM307.172 335.095C307.159 337.296 308.266 339.539 310.18 340.455L309.25 341.671C307.911 340.995 306.947 339.689 306.42 338.117C305.88 339.798 304.869 341.193 303.454 341.904L302.524 340.687C304.506 339.744 305.641 337.378 305.655 335.095V333.126H307.172V335.095ZM312.436 332.128V336.968H314.336V338.267H312.436V344.488H310.918V332.128H312.436ZM326.122 338.076V339.292H314.856V338.076H317.481V336.503C316.551 336.114 316.018 335.492 316.018 334.685C316.018 333.208 317.754 332.333 320.475 332.333C323.196 332.333 324.918 333.208 324.932 334.685C324.925 335.499 324.392 336.121 323.456 336.503V338.076H326.122ZM320.475 340.044C323.141 340.031 324.741 340.824 324.754 342.246C324.741 343.681 323.141 344.46 320.475 344.46C317.782 344.46 316.168 343.681 316.168 342.246C316.168 340.824 317.782 340.031 320.475 340.044ZM320.475 341.193C318.67 341.193 317.7 341.548 317.713 342.246C317.7 342.943 318.67 343.312 320.475 343.312C322.239 343.312 323.223 342.943 323.237 342.246C323.223 341.548 322.239 341.193 320.475 341.193ZM320.475 333.509C318.643 333.509 317.59 333.919 317.604 334.685C317.59 335.437 318.643 335.833 320.475 335.833C322.293 335.833 323.36 335.437 323.36 334.685C323.36 333.919 322.293 333.509 320.475 333.509ZM319.012 338.076H321.938V336.9C321.494 336.961 321.001 336.996 320.475 336.996C319.949 336.996 319.457 336.961 319.012 336.9V338.076ZM338.44 333.892V335.15H336.704V336.49H338.44V337.761H336.704V339.607H335.186V332.142H336.704V333.892H338.44ZM333.067 332.894V336.449H328.952V337.748C331.05 337.734 332.486 337.659 334.174 337.378L334.338 338.595C332.493 338.923 330.893 339.005 328.446 338.992H327.434V335.3H331.577V334.097H327.42V332.894H333.067ZM332.67 339.839C335.213 339.853 336.813 340.714 336.827 342.177C336.813 343.626 335.213 344.46 332.67 344.46C330.073 344.46 328.487 343.626 328.487 342.177C328.487 340.714 330.073 339.853 332.67 339.839ZM332.67 341.029C330.948 341.029 329.963 341.439 329.977 342.177C329.963 342.916 330.948 343.312 332.67 343.312C334.379 343.312 335.323 342.916 335.323 342.177C335.323 341.439 334.379 341.029 332.67 341.029Z" fill="white"/>
<path d="M259.088 382.275V380.861L263.523 376.391C264.919 374.925 265.626 374.112 265.626 372.999C265.626 371.744 264.601 370.932 263.258 370.932C261.845 370.932 260.926 371.833 260.926 373.193H259.088C259.071 370.861 260.855 369.306 263.293 369.306C265.767 369.306 267.463 370.861 267.481 372.946C267.463 374.377 266.792 375.508 264.389 377.875L261.792 380.508V380.614H267.693V382.275H259.088ZM274.195 382.451C271.774 382.451 269.954 380.967 269.866 378.935H271.756C271.862 380.031 272.905 380.826 274.195 380.826C275.749 380.826 276.863 379.695 276.863 378.175C276.863 376.621 275.714 375.49 274.106 375.472C273.082 375.472 272.304 375.808 271.862 376.603H270.025L270.855 369.483H278.099V371.144H272.463L272.039 374.73H272.163C272.693 374.218 273.594 373.864 274.566 373.864C276.969 373.864 278.753 375.649 278.753 378.122C278.753 380.649 276.863 382.451 274.195 382.451ZM285.361 382.451C282.711 382.451 280.82 381.02 280.75 378.935H282.728C282.799 380.066 283.912 380.773 285.343 380.773C286.88 380.773 288.011 379.925 288.011 378.688C288.011 377.433 286.951 376.515 285.131 376.515H284.036V374.925H285.131C286.58 374.925 287.605 374.112 287.605 372.893C287.605 371.727 286.739 370.932 285.379 370.932C284.089 370.932 282.958 371.638 282.905 372.804H281.032C281.085 370.719 283.011 369.306 285.396 369.306C287.905 369.306 289.495 370.896 289.478 372.787C289.495 374.235 288.594 375.296 287.216 375.631V375.72C288.965 375.967 289.972 377.133 289.972 378.759C289.972 380.896 288.011 382.451 285.361 382.451ZM291.873 382.275V372.325H293.343V377.96H293.467L296.421 374.813H298.18L295.171 378.015L298.386 382.275H296.586L294.058 378.921L293.343 379.622V382.275H291.873ZM301.423 382.275L298.661 372.325H300.255L302.193 380.021H302.275L304.296 372.325H305.862L307.882 380.021H307.965L309.902 372.325H311.496L308.734 382.275H307.209L305.12 374.84H305.038L302.949 382.275H301.423ZM314.08 377.85V382.275H312.609V372.325H314.052V376.036H314.149C314.506 375.225 315.193 374.716 316.361 374.716C317.9 374.716 318.917 375.665 318.917 377.534V382.275H317.447V377.712C317.447 376.613 316.856 375.981 315.866 375.981C314.836 375.981 314.08 376.654 314.08 377.85Z" fill="#232323"/>
</g>
<rect x="202.539" y="325.791" width="172.836" height="74.9252" rx="3.78672" stroke="#F1F1F1" stroke-width="1.08192"/>
<g clip-path="url(#clip5_401_20159)">
<rect width="360.841" height="25.5103" transform="translate(16.0806 657.354)" fill="#888888"/>
<path d="M54.5727 665.217V666.147C54.5727 667.148 54.5727 668.232 54.2782 669.74H55.7977V670.658H51.5219V675.123H50.3912V670.658H46.1743V669.74H53.1474C53.4655 668.238 53.4655 667.131 53.4655 666.147V666.135H47.3522V665.217H54.5727ZM66.2455 670.081V670.976H62.0522V672.92H60.945V670.976H56.5868V670.081H66.2455ZM65.1736 673.98V674.887H57.7883V672.001H58.8955V673.98H65.1736ZM58.9662 664.887V666.171H63.8544V664.887H64.9734V669.151H57.859V664.887H58.9662ZM58.9662 668.256H63.8544V667.007H58.9662V668.256Z" fill="white"/>
<path d="M126.305 665.582V674.11H124.997V666.877H124.95L122.912 668.208V666.972L125.032 665.582H126.305ZM137.73 670.505V671.412H133.443V675.099H132.347V671.412H128.107V670.505H137.73ZM136.823 665.181V666.076H133.56C133.578 667.384 135.203 668.55 137.2 668.821L136.788 669.704C135.056 669.433 133.56 668.579 132.924 667.372C132.271 668.579 130.781 669.433 129.073 669.704L128.649 668.821C130.621 668.55 132.247 667.384 132.288 666.076H129.002V665.181H136.823Z" fill="white"/>
<path d="M177.151 674.109V673.167L180.108 670.187C181.038 669.209 181.509 668.668 181.509 667.925C181.509 667.089 180.826 666.547 179.931 666.547C178.989 666.547 178.376 667.148 178.376 668.055H177.151C177.14 666.5 178.329 665.464 179.955 665.464C181.604 665.464 182.734 666.5 182.746 667.89C182.734 668.844 182.287 669.598 180.685 671.176L178.953 672.931V673.002H182.888V674.109H177.151ZM193.583 670.505V671.412H189.295V675.099H188.2V671.412H183.959V670.505H193.583ZM192.676 665.181V666.076H189.413C189.431 667.384 191.056 668.55 193.053 668.821L192.64 669.704C190.909 669.433 189.413 668.579 188.777 667.372C188.123 668.579 186.633 669.433 184.925 669.704L184.501 668.821C186.474 668.55 188.1 667.384 188.141 666.076H184.855V665.181H192.676Z" fill="white"/>
<path d="M236.265 674.227C234.498 674.227 233.238 673.273 233.191 671.883H234.51C234.557 672.637 235.299 673.108 236.253 673.108C237.278 673.108 238.032 672.543 238.032 671.719C238.032 670.882 237.325 670.27 236.112 670.27H235.381V669.21H236.112C237.078 669.21 237.761 668.668 237.761 667.855C237.761 667.078 237.184 666.548 236.277 666.548C235.417 666.548 234.663 667.019 234.628 667.796H233.379C233.414 666.406 234.698 665.464 236.288 665.464C237.961 665.464 239.021 666.524 239.009 667.784C239.021 668.75 238.42 669.457 237.502 669.681V669.74C238.668 669.905 239.339 670.682 239.339 671.766C239.339 673.191 238.032 674.227 236.265 674.227ZM250.023 670.505V671.412H245.735V675.099H244.64V671.412H240.399V670.505H250.023ZM249.116 665.181V666.076H245.853C245.871 667.384 247.496 668.55 249.493 668.821L249.08 669.704C247.349 669.433 245.853 668.579 245.217 667.372C244.563 668.579 243.073 669.433 241.365 669.704L240.941 668.821C242.914 668.55 244.54 667.384 244.581 666.076H241.294V665.181H249.116Z" fill="white"/>
<path d="M288.136 672.449V671.4L291.905 665.582H293.507V671.353H294.673V672.449H293.507V674.11H292.282V672.449H288.136ZM289.502 671.353H292.282V667.125H292.188L289.502 671.283V671.353ZM305.239 670.505V671.412H300.951V675.099H299.856V671.412H295.615V670.505H305.239ZM304.332 665.181V666.076H301.069C301.087 667.384 302.712 668.55 304.709 668.821L304.296 669.704C302.565 669.433 301.069 668.579 300.433 667.372C299.779 668.579 298.289 669.433 296.581 669.704L296.157 668.821C298.13 668.55 299.756 667.384 299.797 666.076H296.51V665.181H304.332Z" fill="white"/>
<path d="M348.308 674.227C346.694 674.227 345.481 673.238 345.422 671.883H346.682C346.753 672.614 347.448 673.144 348.308 673.144C349.344 673.144 350.086 672.39 350.086 671.377C350.086 670.34 349.321 669.587 348.249 669.575C347.566 669.575 347.047 669.799 346.753 670.329H345.528L346.081 665.582H350.911V666.689H347.153L346.871 669.08H346.953C347.306 668.738 347.907 668.503 348.555 668.503C350.157 668.503 351.347 669.693 351.347 671.342C351.347 673.026 350.086 674.227 348.308 674.227ZM361.983 670.505V671.412H357.695V675.099H356.6V671.412H352.36V670.505H361.983ZM361.076 665.181V666.076H357.813C357.831 667.384 359.456 668.55 361.453 668.821L361.041 669.704C359.309 669.433 357.813 668.579 357.177 667.372C356.523 668.579 355.033 669.433 353.325 669.704L352.901 668.821C354.874 668.55 356.5 667.384 356.541 666.076H353.255V665.181H361.076Z" fill="white"/>
<rect width="360.841" height="25.5103" transform="translate(16.0806 682.865)" fill="white"/>
<rect width="80.4103" height="25.5103" transform="translate(16.0806 682.865)" fill="#1E7EDE"/>
<path d="M49.2787 691.092V699.62H47.9712V692.388H47.9241L45.8864 693.719V692.482L48.0066 691.092H49.2787ZM54.6852 691.092V699.62H53.3777V692.388H53.3306L51.2929 693.719V692.482L53.413 691.092H54.6852ZM65.2626 690.079V696.263H64.1436V695.757H62.0823V695.05H64.1436V690.079H65.2626ZM56.4638 693.966C58.5015 693.978 61.0929 693.954 63.3662 693.707L63.4251 694.426C62.4298 694.561 61.3991 694.644 60.3861 694.697V696.287H59.2789V694.744C58.3248 694.767 57.4179 694.773 56.5933 694.767L56.4638 693.966ZM65.2626 696.617V698.89H59.1847V699.703H65.5806V700.515H58.0892V698.148H64.1554V697.394H58.0421V696.617H65.2626ZM59.8914 690.256C61.458 690.256 62.5181 690.88 62.5299 691.846C62.5181 692.836 61.458 693.424 59.8914 693.424C58.2895 693.424 57.2412 692.836 57.253 691.846C57.2412 690.88 58.2895 690.256 59.8914 690.256ZM59.8914 691.01C58.9138 691.01 58.3013 691.34 58.3013 691.846C58.3013 692.353 58.9138 692.671 59.8914 692.671C60.8455 692.671 61.4698 692.353 61.4698 691.846C61.4698 691.34 60.8455 691.01 59.8914 691.01Z" fill="white"/>
<rect width="56.0862" height="25.5103" transform="translate(96.4907 682.865)" fill="white"/>
<path d="M118.027 691.092V699.62H116.719V692.388H116.672L114.634 693.719V692.482L116.755 691.092H118.027ZM123.162 699.738C121.183 699.738 120.029 698.148 120.029 695.356C120.029 692.588 121.207 690.974 123.162 690.974C125.118 690.974 126.295 692.588 126.295 695.356C126.295 698.148 125.129 699.738 123.162 699.738ZM123.162 698.619C124.317 698.619 125 697.488 125 695.356C125 693.236 124.305 692.07 123.162 692.07C122.02 692.07 121.325 693.236 121.325 695.356C121.325 697.488 122.008 698.619 123.162 698.619ZM130.665 699.738C128.899 699.738 127.638 698.784 127.591 697.394H128.91C128.957 698.148 129.7 698.619 130.654 698.619C131.678 698.619 132.432 698.054 132.432 697.229C132.432 696.393 131.726 695.78 130.512 695.78H129.782V694.72H130.512C131.478 694.72 132.161 694.178 132.161 693.366C132.161 692.588 131.584 692.058 130.677 692.058C129.817 692.058 129.063 692.529 129.028 693.307H127.78C127.815 691.917 129.099 690.974 130.689 690.974C132.362 690.974 133.422 692.035 133.41 693.295C133.422 694.261 132.821 694.967 131.902 695.191V695.25C133.068 695.415 133.74 696.192 133.74 697.276C133.74 698.701 132.432 699.738 130.665 699.738Z" fill="#454545"/>
<rect width="56.0862" height="25.5103" transform="translate(152.577 682.865)" fill="white"/>
<path d="M175.113 691.092V699.62H173.805V692.388H173.758L171.72 693.719V692.482L173.841 691.092H175.113ZM180.519 691.092V699.62H179.212V692.388H179.165L177.127 693.719V692.482L179.247 691.092H180.519ZM182.498 697.959V696.911L186.267 691.092H187.869V696.864H189.035V697.959H187.869V699.62H186.644V697.959H182.498ZM183.864 696.864H186.644V692.635H186.55L183.864 696.793V696.864Z" fill="#454545"/>
<rect width="56.0862" height="25.5103" transform="translate(208.663 682.865)" fill="white"/>
<path d="M232.893 690.974C234.459 690.986 236.108 691.929 236.108 695.05C236.108 698.042 234.825 699.738 232.775 699.738C231.208 699.738 230.101 698.772 229.901 697.382H231.185C231.362 698.101 231.915 698.607 232.775 698.607C234.094 698.607 234.86 697.453 234.872 695.509H234.766C234.306 696.228 233.505 696.664 232.587 696.664C231.055 696.664 229.83 695.498 229.83 693.86C229.83 692.235 231.044 690.963 232.893 690.974ZM232.893 692.058C231.856 692.058 231.091 692.859 231.091 693.837C231.091 694.826 231.833 695.604 232.869 695.604C233.894 695.604 234.695 694.767 234.695 693.825C234.695 692.906 233.941 692.058 232.893 692.058ZM240.455 699.738C238.606 699.738 237.31 698.737 237.322 697.347C237.31 696.251 238.099 695.356 239.1 695.203V695.156C238.229 694.956 237.64 694.178 237.64 693.248C237.64 691.94 238.829 690.974 240.455 690.974C242.069 690.974 243.246 691.94 243.258 693.248C243.246 694.178 242.657 694.956 241.798 695.156V695.203C242.787 695.356 243.576 696.251 243.588 697.347C243.576 698.737 242.281 699.738 240.455 699.738ZM240.455 698.666C241.562 698.666 242.269 698.089 242.269 697.253C242.269 696.369 241.503 695.733 240.455 695.733C239.395 695.733 238.617 696.369 238.641 697.253C238.617 698.089 239.324 698.666 240.455 698.666ZM240.455 694.708C241.35 694.708 241.986 694.167 241.986 693.366C241.986 692.576 241.362 692.035 240.455 692.035C239.513 692.035 238.9 692.565 238.9 693.366C238.9 694.167 239.548 694.708 240.455 694.708Z" fill="#454545"/>
<rect width="56.0862" height="25.5103" transform="translate(264.75 682.865)" fill="white"/>
<path d="M286.286 691.092V699.62H284.978V692.388H284.931L282.893 693.719V692.482L285.013 691.092H286.286ZM291.48 699.738C289.713 699.738 288.453 698.784 288.406 697.394H289.725C289.772 698.148 290.514 698.619 291.468 698.619C292.493 698.619 293.247 698.054 293.247 697.229C293.247 696.393 292.54 695.78 291.327 695.78H290.597V694.72H291.327C292.293 694.72 292.976 694.178 292.976 693.366C292.976 692.588 292.399 692.058 291.492 692.058C290.632 692.058 289.878 692.529 289.843 693.307H288.594C288.629 691.917 289.913 690.974 291.504 690.974C293.176 690.974 294.236 692.035 294.224 693.295C294.236 694.261 293.636 694.967 292.717 695.191V695.25C293.883 695.415 294.554 696.192 294.554 697.276C294.554 698.701 293.247 699.738 291.48 699.738ZM299.007 699.738C297.24 699.738 295.979 698.784 295.932 697.394H297.252C297.299 698.148 298.041 698.619 298.995 698.619C300.02 698.619 300.773 698.054 300.773 697.229C300.773 696.393 300.067 695.78 298.854 695.78H298.123V694.72H298.854C299.819 694.72 300.503 694.178 300.503 693.366C300.503 692.588 299.925 692.058 299.018 692.058C298.159 692.058 297.405 692.529 297.369 693.307H296.121C296.156 691.917 297.44 690.974 299.03 690.974C300.703 690.974 301.763 692.035 301.751 693.295C301.763 694.261 301.162 694.967 300.243 695.191V695.25C301.41 695.415 302.081 696.192 302.081 697.276C302.081 698.701 300.773 699.738 299.007 699.738Z" fill="#454545"/>
<rect width="56.0862" height="25.5103" transform="translate(320.835 682.865)" fill="white"/>
<path d="M339.094 691.092V699.62H337.787V692.388H337.74L335.702 693.719V692.482L337.822 691.092H339.094ZM344.289 699.738C342.522 699.738 341.261 698.784 341.214 697.394H342.534C342.581 698.148 343.323 698.619 344.277 698.619C345.302 698.619 346.055 698.054 346.055 697.229C346.055 696.393 345.349 695.78 344.135 695.78H343.405V694.72H344.135C345.101 694.72 345.784 694.178 345.784 693.366C345.784 692.588 345.207 692.058 344.3 692.058C343.44 692.058 342.687 692.529 342.651 693.307H341.403C341.438 691.917 342.722 690.974 344.312 690.974C345.985 690.974 347.045 692.035 347.033 693.295C347.045 694.261 346.444 694.967 345.525 695.191V695.25C346.691 695.415 347.363 696.192 347.363 697.276C347.363 698.701 346.055 699.738 344.289 699.738ZM348.788 699.62V698.678L351.745 695.698C352.675 694.72 353.146 694.178 353.146 693.436C353.146 692.6 352.463 692.058 351.568 692.058C350.626 692.058 350.013 692.659 350.013 693.566H348.788C348.776 692.011 349.966 690.974 351.591 690.974C353.24 690.974 354.371 692.011 354.383 693.401C354.371 694.355 353.924 695.109 352.322 696.687L350.59 698.442V698.513H354.524V699.62H348.788Z" fill="#454545"/>
<rect width="360.841" height="25.5103" transform="translate(16.0806 708.375)" fill="white"/>
<rect width="80.4103" height="25.5103" transform="translate(16.0806 708.375)" fill="#474961"/>
<path d="M33.5667 725.248C31.7998 725.248 30.5395 724.294 30.4924 722.904H31.8116C31.8587 723.658 32.6008 724.129 33.5549 724.129C34.5796 724.129 35.3335 723.564 35.3335 722.739C35.3335 721.903 34.6268 721.29 33.4135 721.29H32.6832V720.23H33.4135C34.3794 720.23 35.0626 719.689 35.0626 718.876C35.0626 718.098 34.4854 717.568 33.5784 717.568C32.7186 717.568 31.9647 718.04 31.9294 718.817H30.6808C30.7162 717.427 32.0001 716.485 33.5902 716.485C35.2628 716.485 36.3229 717.545 36.3111 718.805C36.3229 719.771 35.7222 720.478 34.8034 720.702V720.76C35.9695 720.925 36.6409 721.703 36.6409 722.786C36.6409 724.212 35.3335 725.248 33.5667 725.248ZM46.7354 715.578V726.132H45.6635V720.654H44.3561V725.625H43.3078V715.86H44.3561V719.747H45.6635V715.578H46.7354ZM42.2594 716.921C42.2477 719.7 41.3289 722.186 38.3135 723.894L37.6657 723.116C40.0097 721.791 40.9991 719.995 41.1758 717.839H38.1133V716.921H42.2594ZM56.9005 715.59V721.773H55.7816V721.267H53.7203V720.56H55.7816V715.59H56.9005ZM48.1017 719.477C50.1395 719.488 52.7308 719.465 55.0042 719.217L55.063 719.936C54.0677 720.071 53.0371 720.154 52.0241 720.207V721.797H50.9169V720.254C49.9628 720.277 49.0558 720.283 48.2313 720.277L48.1017 719.477ZM56.9005 722.127V724.4H50.8227V725.213H57.2186V726.026H49.7272V723.658H55.7933V722.904H49.6801V722.127H56.9005ZM51.5294 715.766C53.096 715.766 54.1561 716.39 54.1679 717.356C54.1561 718.346 53.096 718.935 51.5294 718.935C49.9275 718.935 48.8792 718.346 48.8909 717.356C48.8792 716.39 49.9275 715.766 51.5294 715.766ZM51.5294 716.52C50.5517 716.52 49.9392 716.85 49.9392 717.356C49.9392 717.863 50.5517 718.181 51.5294 718.181C52.4835 718.181 53.1078 717.863 53.1078 717.356C53.1078 716.85 52.4835 716.52 51.5294 716.52ZM67.4073 716.343V717.25H66.3943V720.442C66.8419 720.407 67.2718 720.366 67.69 720.313L67.7371 721.161C65.7111 721.479 63.3436 721.514 61.6474 721.514L61.5061 720.584L62.79 720.572V717.25H61.8005V716.343H67.4073ZM70.2931 715.578V722.068H69.1741V720.23H67.5604V719.335H69.1741V718.31H67.5604V717.415H69.1741V715.578H70.2931ZM66.7594 722.268C68.9856 722.268 70.3284 722.963 70.3284 724.2C70.3284 725.401 68.9856 726.12 66.7594 726.108C64.5332 726.12 63.1787 725.401 63.1905 724.2C63.1787 722.963 64.5332 722.268 66.7594 722.268ZM66.7594 723.14C65.2046 723.14 64.2977 723.517 64.2977 724.2C64.2977 724.871 65.2046 725.248 66.7594 725.248C68.3025 725.248 69.2212 724.871 69.2212 724.2C69.2212 723.517 68.3025 723.14 66.7594 723.14ZM63.8736 720.56C64.3507 720.548 64.8336 720.531 65.3224 720.501V717.25H63.8736V720.56ZM80.3522 716.131V716.968C80.3522 717.81 80.3522 718.787 80.1167 720.065H81.5772V720.972H78.9741V723.446H77.8904V720.972H76.2179V723.446H75.1224V720.972H71.9186V720.065H78.9977C79.2391 718.799 79.245 717.857 79.245 717.027H73.12V716.131H80.3522ZM80.6349 725.001V725.908H73.0493V722.563H74.1683V725.001H80.6349Z" fill="white"/>
<rect width="56.0862" height="25.5103" transform="translate(96.4907 708.375)" fill="white"/>
<path d="M120.527 716.602V725.13H119.219V717.898H119.172L117.134 719.229V717.992L119.255 716.602H120.527ZM131.952 721.526V722.433H127.665V726.12H126.569V722.433H122.329V721.526H131.952ZM131.045 716.202V717.097H127.782C127.8 718.405 129.426 719.571 131.422 719.842L131.01 720.725C129.278 720.454 127.782 719.6 127.146 718.393C126.493 719.6 125.003 720.454 123.295 720.725L122.871 719.842C124.844 719.571 126.469 718.405 126.51 717.097H123.224V716.202H131.045Z" fill="#454545"/>
<rect width="56.0862" height="25.5103" transform="translate(152.577 708.375)" fill="white"/>
<path d="M172.374 725.13V724.188L175.33 721.208C176.261 720.23 176.732 719.689 176.732 718.946C176.732 718.11 176.049 717.568 175.154 717.568C174.211 717.568 173.599 718.169 173.599 719.076H172.374C172.362 717.521 173.552 716.485 175.177 716.485C176.826 716.485 177.957 717.521 177.969 718.911C177.957 719.865 177.51 720.619 175.908 722.197L174.176 723.952V724.023H178.11V725.13H172.374ZM188.805 721.526V722.433H184.518V726.12H183.423V722.433H179.182V721.526H188.805ZM187.898 716.202V717.097H184.636C184.653 718.405 186.279 719.571 188.275 719.842L187.863 720.725C186.132 720.454 184.636 719.6 184 718.393C183.346 719.6 181.856 720.454 180.148 720.725L179.724 719.842C181.697 719.571 183.322 718.405 183.364 717.097H180.077V716.202H187.898Z" fill="#454545"/>
<rect width="56.0862" height="25.5103" transform="translate(208.663 708.375)" fill="white"/>
<path d="M231.487 725.248C229.72 725.248 228.46 724.294 228.413 722.904H229.732C229.779 723.658 230.521 724.129 231.475 724.129C232.5 724.129 233.254 723.564 233.254 722.739C233.254 721.903 232.547 721.29 231.334 721.29H230.604V720.23H231.334C232.3 720.23 232.983 719.689 232.983 718.876C232.983 718.098 232.406 717.568 231.499 717.568C230.639 717.568 229.885 718.04 229.85 718.817H228.601C228.637 717.427 229.92 716.485 231.511 716.485C233.183 716.485 234.243 717.545 234.232 718.805C234.243 719.771 233.643 720.478 232.724 720.702V720.76C233.89 720.925 234.561 721.703 234.561 722.786C234.561 724.212 233.254 725.248 231.487 725.248ZM245.245 721.526V722.433H240.957V726.12H239.862V722.433H235.621V721.526H245.245ZM244.338 716.202V717.097H241.075C241.093 718.405 242.718 719.571 244.715 719.842L244.302 720.725C242.571 720.454 241.075 719.6 240.439 718.393C239.785 719.6 238.295 720.454 236.587 720.725L236.163 719.842C238.136 719.571 239.762 718.405 239.803 717.097H236.517V716.202H244.338Z" fill="#454545"/>
<rect width="56.0862" height="25.5103" transform="translate(264.75 708.375)" fill="white"/>
<path d="M283.858 723.47V722.421L287.627 716.602H289.229V722.374H290.395V723.47H289.229V725.13H288.004V723.47H283.858ZM285.224 722.374H288.004V718.146H287.91L285.224 722.303V722.374ZM300.961 721.526V722.433H296.673V726.12H295.578V722.433H291.337V721.526H300.961ZM300.054 716.202V717.097H296.791C296.809 718.405 298.434 719.571 300.431 719.842L300.018 720.725C298.287 720.454 296.791 719.6 296.155 718.393C295.501 719.6 294.011 720.454 292.303 720.725L291.879 719.842C293.852 719.571 295.478 718.405 295.519 717.097H292.233V716.202H300.054Z" fill="#454545"/>
<rect width="56.0862" height="25.5103" transform="translate(320.835 708.375)" fill="white"/>
<path d="M343.53 725.248C341.916 725.248 340.703 724.259 340.644 722.904H341.904C341.975 723.634 342.67 724.165 343.53 724.165C344.566 724.165 345.308 723.411 345.308 722.398C345.308 721.361 344.543 720.607 343.471 720.596C342.788 720.596 342.27 720.819 341.975 721.349H340.75L341.304 716.602H346.133V717.71H342.376L342.093 720.101H342.175C342.529 719.759 343.129 719.524 343.777 719.524C345.379 719.524 346.569 720.713 346.569 722.362C346.569 724.047 345.308 725.248 343.53 725.248ZM357.205 721.526V722.433H352.918V726.12H351.822V722.433H347.582V721.526H357.205ZM356.298 716.202V717.097H353.035C353.053 718.405 354.679 719.571 356.675 719.842L356.263 720.725C354.531 720.454 353.035 719.6 352.399 718.393C351.746 719.6 350.256 720.454 348.548 720.725L348.124 719.842C350.097 719.571 351.722 718.405 351.763 717.097H348.477V716.202H356.298Z" fill="#454545"/>
</g>
<rect x="16.5831" y="657.857" width="359.836" height="75.5258" stroke="#E0E0E0" stroke-width="1.00513"/>
<mask id="path-52-inside-1_401_20159" fill="white">
<path d="M10 752H383V821.431H10V752Z"/>
</mask>
<path d="M10 752H383V821.431H10V752Z" fill="white"/>
<path d="M10 753.008H383V750.992H10V753.008Z" fill="#D2D6D8" mask="url(#path-52-inside-1_401_20159)"/>
<path d="M35.3018 785.455V797.548H49.0064V785.455M32.0771 787.874L42.1541 779.006L52.231 787.874" stroke="#777777" stroke-width="2.01538" stroke-linecap="round" stroke-linejoin="round"/>
<path d="M37.5402 817.915V821.374H45.7539V817.915H37.5402ZM44.4177 818.95V820.339H38.8895V818.95H44.4177ZM36.7935 810.462V811.523H46.4744V810.462H36.7935ZM41.6536 811.916C39.1384 811.916 37.7236 812.492 37.7236 813.619C37.7236 814.732 39.1384 815.309 41.6536 815.309C44.1688 815.309 45.5836 814.732 45.5836 813.619C45.5836 812.492 44.1688 811.916 41.6536 811.916ZM41.6536 812.859C43.278 812.859 44.1164 813.108 44.1164 813.619C44.1164 814.116 43.278 814.378 41.6536 814.378C40.0423 814.378 39.1908 814.116 39.1908 813.619C39.1908 813.108 40.0423 812.859 41.6536 812.859ZM40.9724 809.414V811.182H42.3348V809.414H40.9724ZM36.2433 816.068V817.143H47.0639V816.068H36.2433ZM40.9724 814.981V816.645H42.3348V814.981H40.9724Z" fill="#777777"/>
<path d="M125.473 793.096L130.73 798.354" stroke="#D2D6D8" stroke-width="2.01538" stroke-linecap="round" stroke-linejoin="round"/>
<path d="M118.902 794.849C123.499 794.849 127.226 791.122 127.226 786.525C127.226 781.927 123.499 778.2 118.902 778.2C114.305 778.2 110.578 781.927 110.578 786.525C110.578 791.122 114.305 794.849 118.902 794.849Z" stroke="#D2D6D8" stroke-width="2.01538" stroke-linecap="round" stroke-linejoin="round"/>
<path d="M109.256 818.924V820.051H120.103V818.924H109.256ZM113.986 816.134V819.265H115.348V816.134H113.986ZM113.946 811.077V811.68C113.946 813.475 112.06 815.138 109.728 815.518L110.278 816.605C112.938 816.081 115.112 814.169 115.112 811.68V811.077H113.946ZM114.221 811.077V811.68C114.221 814.169 116.396 816.042 119.108 816.553L119.645 815.466C117.274 815.099 115.374 813.475 115.374 811.68V811.077H114.221ZM110.147 810.553V811.667H119.173V810.553H110.147ZM123.535 816.763V818.728H124.911V816.763H123.535ZM128.775 809.545V821.518H130.151V809.545H128.775ZM120.535 819.37C122.697 819.37 125.54 819.343 128.173 818.885L128.081 817.876C125.527 818.217 122.579 818.23 120.365 818.243L120.535 819.37ZM120.601 810.946V812.034H127.845V810.946H120.601ZM124.217 812.623C122.487 812.623 121.295 813.514 121.295 814.85C121.295 816.199 122.487 817.077 124.217 817.077C125.959 817.077 127.151 816.199 127.151 814.85C127.151 813.514 125.959 812.623 124.217 812.623ZM124.217 813.671C125.173 813.671 125.841 814.13 125.841 814.85C125.841 815.584 125.173 816.029 124.217 816.029C123.273 816.029 122.605 815.584 122.605 814.85C122.605 814.13 123.273 813.671 124.217 813.671ZM123.535 809.571V811.562H124.911V809.571H123.535Z" fill="#D2D6D8"/>
<path d="M189.077 778.2V798.354H209.231M194.72 793.517V789.486M201.169 793.517V784.649M207.619 793.517V779.812" stroke="#D2D6D8" stroke-width="2.01538" stroke-linecap="round" stroke-linejoin="round"/>
<path d="M187.743 815.78V816.881H198.59V815.78H187.743ZM192.59 816.357V819.003H193.953V816.357H192.59ZM189.066 820.169V821.282H197.385V820.169H189.066ZM189.066 818.007V820.614H190.429V818.007H189.066ZM189.158 809.924V814.771H197.175V809.924H195.813V811.313H190.507V809.924H189.158ZM190.507 812.361H195.813V813.684H190.507V812.361ZM204.917 811.929V813.055H207.577V811.929H204.917ZM201.669 810.16V811.352C201.669 813.082 200.66 814.68 198.76 815.335L199.494 816.422C201.616 815.649 202.795 813.684 202.795 811.352V810.16H201.669ZM201.931 810.16V811.431C201.931 813.579 203.096 815.453 205.127 816.186L205.847 815.112C204.066 814.496 203.044 813.003 203.044 811.431V810.16H201.931ZM200.647 817.247V818.348H207.341V821.518H208.716V817.247H200.647ZM207.341 809.545V816.645H208.716V809.545H207.341Z" fill="#D2D6D8"/>
<path d="M286.408 785.549C285.069 782.016 281.657 779.505 277.66 779.505C273.662 779.505 270.25 782.014 268.911 785.546C266.405 786.204 264.554 788.485 264.554 791.201C264.554 794.432 267.171 797.049 270.399 797.049H284.908C288.137 797.049 290.754 794.432 290.754 791.201C290.754 788.49 288.909 786.21 286.408 785.549ZM287.47 793.766C287.134 794.103 286.735 794.371 286.296 794.553C285.856 794.735 285.384 794.828 284.908 794.827H270.399C269.431 794.827 268.522 794.45 267.837 793.766C267.5 793.429 267.232 793.03 267.05 792.59C266.868 792.149 266.775 791.677 266.776 791.201C266.776 790.382 267.042 789.613 267.542 788.97C268.032 788.347 268.71 787.899 269.475 787.692L270.583 787.403L270.99 786.332C271.241 785.666 271.592 785.043 272.034 784.479C272.469 783.919 272.986 783.427 273.566 783.019C274.768 782.174 276.183 781.727 277.66 781.727C279.136 781.727 280.552 782.174 281.753 783.019C282.335 783.429 282.85 783.92 283.286 784.479C283.727 785.043 284.078 785.669 284.329 786.332L284.733 787.4L285.838 787.692C287.426 788.116 288.531 789.558 288.531 791.201C288.531 792.169 288.154 793.081 287.47 793.766Z" fill="#D2D6D8"/>
<path d="M268.911 820.431H270.444V810.789H268.911V820.431ZM275.627 820.614C278.103 820.614 279.819 818.688 279.819 815.571C279.819 812.466 278.103 810.619 275.627 810.619C273.138 810.619 271.422 812.466 271.422 815.571C271.422 818.688 273.138 820.614 275.627 820.614ZM275.627 819.278C274.016 819.278 272.994 817.824 272.994 815.571C272.994 813.317 274.016 811.942 275.627 811.942C277.226 811.942 278.26 813.317 278.26 815.571C278.26 817.824 277.226 819.278 275.627 819.278ZM282.358 820.431H283.89V812.073H286.72V810.789H279.528V812.073H282.358V820.431Z" fill="#D2D6D8"/>
<path d="M345.748 790.602C345.132 790.602 344.54 790.357 344.104 789.921C343.668 789.485 343.423 788.894 343.423 788.277C343.423 787.66 343.668 787.069 344.104 786.633C344.54 786.196 345.132 785.951 345.748 785.951C346.365 785.951 346.957 786.196 347.393 786.633C347.829 787.069 348.074 787.66 348.074 788.277C348.074 788.894 347.829 789.485 347.393 789.921C346.957 790.357 346.365 790.602 345.748 790.602ZM353.5 790.602C352.883 790.602 352.292 790.357 351.855 789.921C351.419 789.485 351.174 788.894 351.174 788.277C351.174 787.66 351.419 787.069 351.855 786.633C352.292 786.196 352.883 785.951 353.5 785.951C354.117 785.951 354.708 786.196 355.144 786.633C355.58 787.069 355.825 787.66 355.825 788.277C355.825 788.894 355.58 789.485 355.144 789.921C354.708 790.357 354.117 790.602 353.5 790.602ZM361.251 790.602C360.635 790.602 360.043 790.357 359.607 789.921C359.171 789.485 358.926 788.894 358.926 788.277C358.926 787.66 359.171 787.069 359.607 786.633C360.043 786.196 360.635 785.951 361.251 785.951C361.868 785.951 362.459 786.196 362.896 786.633C363.332 787.069 363.577 787.66 363.577 788.277C363.577 788.894 363.332 789.485 362.896 789.921C362.459 790.357 361.868 790.602 361.251 790.602Z" fill="#D2D6D8"/>
<path d="M337.179 815.765V816.904H338.122C340.349 816.904 341.79 816.839 343.467 816.525L343.323 815.411C341.712 815.712 340.297 815.765 338.122 815.765H337.179ZM337.179 808.94V816.197H338.555V810.053H342.616V808.94H337.179ZM345.17 807.839V819.839H346.546V807.839H345.17ZM341.961 812.084V813.21H345.746V812.084H341.961ZM347.646 817.219V818.345H358.493V817.219H347.646ZM352.362 814.494V817.52H353.724V814.494H352.362ZM348.851 808.651V814.822H357.235V808.651H355.873V810.656H350.227V808.651H348.851ZM350.227 811.743H355.873V813.708H350.227V811.743ZM367.191 807.839V819.813H368.567V807.839H367.191ZM363.68 809.11V809.346C363.68 812.542 362.226 814.913 358.781 816.577L359.501 817.677C363.615 815.673 365.03 812.66 365.03 809.11H363.68ZM359.37 809.11V810.21H364.296V809.11H359.37Z" fill="#D2D6D8"/>
<rect x="30.0034" y="65.5887" width="3.44203" height="11.4734" fill="#575556"/>
<rect x="39.7573" y="73.6188" width="3.44203" height="9.17875" transform="rotate(90 39.7573 73.6188)" fill="#575556"/>
<rect x="65.5718" y="73.6188" width="3.44203" height="12.6208" transform="rotate(90 65.5718 73.6188)" fill="#575556"/>
<rect x="60.9819" y="86.8132" width="3.44203" height="12.0471" transform="rotate(-180 60.9819 86.8132)" fill="#575556"/>
<path d="M30.0076 65.5903L32.8722 68.4572L23.1198 79.9307L20.2518 77.0626L30.0076 65.5903Z" fill="#575556" fill-opacity="0.5"/>
<rect x="30.0034" y="77.061" width="3.44203" height="9.75242" transform="rotate(90 30.0034 77.061)" fill="#575556"/>
<path d="M33.4478 86.8132L30.0057 86.8132L30.0057 77.0608C31.9067 77.0608 33.4478 78.6019 33.4478 80.5028L33.4478 86.8132Z" fill="#575556"/>
<path d="M36.3174 85.0934H38.7474C39.9149 85.0934 41.0029 84.5015 41.6372 83.5212L45.913 76.9131C46.5473 75.9328 47.6353 75.3409 48.8029 75.3409H51.5197" stroke="#575556" stroke-width="3.44203"/>
<rect x="69.5889" y="80.5023" width="1.14734" height="8.60507" transform="rotate(-90 69.5889 80.5023)" fill="#575556"/>
<rect x="78.2329" y="86.8132" width="1.14734" height="13.1944" transform="rotate(-180 78.2329 86.8132)" fill="#575556"/>
<rect x="70.7344" y="86.8319" width="1.14734" height="13.1944" transform="rotate(-180 70.7344 86.8319)" fill="#575556"/>
<path d="M89.1328 80.216C89.1328 83.6816 86.9551 86.2395 84.5434 86.2395C82.1318 86.2395 79.954 83.6816 79.954 80.216C79.954 76.7504 82.1318 74.1924 84.5434 74.1924C86.9551 74.1924 89.1328 76.7504 89.1328 80.216Z" stroke="#575556" stroke-width="1.14734"/>
<path d="M96.019 85.6659L94.8716 85.6659L98.8873 73.6188L100.035 73.6188L96.019 85.6659Z" fill="#575556"/>
<path d="M96.02 85.6659L94.8727 85.6659L90.857 73.6188L92.0043 73.6188L96.02 85.6659Z" fill="#575556"/>
<rect x="100.035" y="86.8134" width="1.14734" height="13.1944" transform="rotate(-180 100.035 86.8134)" fill="#575556"/>
<rect x="92.001" y="86.8134" width="1.14734" height="13.1944" transform="rotate(-180 92.001 86.8134)" fill="#575556"/>
<path fill-rule="evenodd" clip-rule="evenodd" d="M101.182 86.8132H102.781H102.903H108.518V85.6659L102.903 85.6659L102.903 81.0761H107.37V79.9287L102.903 79.9287L102.903 74.7662L108.64 74.7662V73.6188L102.903 73.6188V73.6188C101.953 73.6188 101.182 74.3893 101.182 75.3398L101.182 86.8132Z" fill="#575556"/>
<path d="M118.927 74.7666L117.684 73.5236L117.684 69.7948L118.927 68.5518L120.17 69.7948L120.17 73.5236L118.927 74.7666Z" fill="#DC8772"/>
<path d="M118.927 67.2147L117.684 65.9718L117.684 62.2429L118.927 60.9999L120.17 62.2429L120.17 65.9718L118.927 67.2147Z" fill="#86A6D9"/>
<path d="M119.595 67.8829L120.838 66.6399L124.567 66.6399L125.81 67.8829L124.567 69.1259L120.838 69.1259L119.595 67.8829Z" fill="#F5C851"/>
<path d="M112.042 67.8829L113.284 66.6399L117.013 66.6399L118.256 67.8829L117.013 69.1259L113.284 69.1259L112.042 67.8829Z" fill="#87D5D7"/>
<path d="M352 68.5986C351.576 68.5986 351.169 68.7583 350.869 69.0426C350.569 69.3268 350.4 69.7123 350.4 70.1143C350.4 70.1795 350.416 70.2416 350.425 70.3038C347.659 70.9729 345.6 73.3526 345.6 76.177V82.9976C345.6 83.4266 345.253 83.7555 344.8 83.7555H344V85.2711H349.75C349.654 85.5136 349.603 85.77 349.6 86.029C349.6 87.2756 350.684 88.3025 352 88.3025C353.316 88.3025 354.4 87.2756 354.4 86.029C354.397 85.77 354.346 85.5136 354.25 85.2711H360V83.7555H359.2C358.747 83.7555 358.4 83.4266 358.4 82.9976V76.39C358.4 73.542 356.39 71.0017 353.575 70.3038C353.584 70.2416 353.6 70.1795 353.6 70.1143C353.6 69.7123 353.431 69.3268 353.131 69.0426C352.831 68.7583 352.424 68.5986 352 68.5986ZM351.65 71.63C351.766 71.6209 351.882 71.63 352 71.63H352.15C354.762 71.7043 356.8 73.8732 356.8 76.39V82.9976C356.8 83.2644 356.859 83.516 356.95 83.7555H347.05C347.146 83.513 347.197 83.2565 347.2 82.9976V76.177C347.198 75.0266 347.655 73.918 348.481 73.0744C349.307 72.2308 350.439 71.7147 351.65 71.63H351.65ZM352 85.2711C352.45 85.2711 352.8 85.6031 352.8 86.029C352.8 86.4556 352.45 86.7868 352 86.7868C351.55 86.7868 351.2 86.4549 351.2 86.029C351.2 85.6023 351.55 85.2711 352 85.2711Z" fill="black"/>
<rect x="352" y="65.6974" width="16" height="16" rx="8" fill="#DD8382"/>
<path d="M357.44 77.6974H362.19V76.7174H360.35C359.99 76.7174 359.53 76.7474 359.15 76.7874C360.71 75.2974 361.84 73.8274 361.84 72.4074C361.84 71.0774 360.97 70.1974 359.62 70.1974C358.66 70.1974 358.01 70.6074 357.38 71.2974L358.03 71.9374C358.42 71.4874 358.9 71.1174 359.48 71.1174C360.31 71.1174 360.73 71.6674 360.73 72.4674C360.73 73.6774 359.61 75.1074 357.44 77.0274V77.6974Z" fill="white"/>
<rect x="383.688" y="391.884" width="1.00769" height="184.408" fill="#D9D9D9"/>
<path d="M36.0137 539.19C20.4208 539.461 18.3527 523.083 2 523.083V586H384V454.63C379.041 469.435 368.955 482.817 349.986 482.817C331.566 482.817 328.401 477.28 314.664 479.797C297.484 482.944 301.126 510.5 280.651 510.5C262.336 510.5 261.599 492.098 245.329 484.327C226.36 475.267 245.914 467.674 223.5 462.5C203.877 457.97 195.723 477.45 180 486.843C163 497 157.045 493.387 142 510.5C125.358 529.431 130.86 539.19 106.658 539.19C88.5371 539.19 89.4561 516.037 71.3356 516.037C53.2152 516.037 54.1295 538.875 36.0137 539.19Z" fill="url(#paint0_linear_401_20159)" fill-opacity="0.6"/>
<path d="M-98.9961 548.58C-89.2584 544.441 -82.3692 543.038 -71.7884 543.038C-61.2076 543.038 -55.6653 539.007 -44.5807 539.007C-33.8756 539.007 -29.0853 546.957 -18.3807 547.068C-7.29945 547.184 27.4192 555 38 555C67.1771 555 65.1725 522.884 89.4424 522.884C102.039 522.884 103.632 539.278 115.642 539.007C132.355 538.629 146.628 520.5 172.5 520.5C224.312 520.5 191.087 430.841 276.873 484.088C289.406 491.867 289.973 510.288 304.081 510.288C319.853 510.288 317.047 482.704 330.281 479.553C340.862 477.034 343.3 482.576 357.489 482.576C372.1 482.576 379.868 469.181 383.689 454.361" stroke="#474961" stroke-width="2.01538"/>
<circle opacity="0.2" cx="383.64" cy="456.332" r="6.04615" fill="#4285F4"/>
<circle cx="383.641" cy="456.332" r="3.02308" fill="#4285F4"/>
<rect x="16" y="180" width="359.836" height="44.1422" rx="22" fill="#F4F5F9"/>
<rect x="20" y="184" width="67.6003" height="36.1422" rx="18.0711" fill="white"/>
<path d="M29.8203 203.417L40.7353 192.25L38.1809 200.558H42.1796L31.2436 211.892L33.798 203.417H29.8203Z" fill="#3D9DFF"/>
<path d="M61.9023 196.288V204.616H60.6963V200.338H58.5254V199.36H60.6963V196.288H61.9023ZM62.207 206.431V207.409H54.5137V203.867H55.7197V206.431H62.207ZM56.4941 198.586C56.4941 200.008 57.5225 201.429 59.2363 202.001L58.6143 202.966C57.3384 202.515 56.3926 201.601 55.8975 200.477C55.4023 201.728 54.4058 202.737 53.0537 203.219L52.4316 202.242C54.1836 201.645 55.2627 200.147 55.2627 198.586V198.141H52.7998V197.151H58.9316V198.141H56.4941V198.586ZM72.1123 196.275V207.65H70.8936V196.275H72.1123ZM68.7227 197.494C68.7227 200.82 67.3008 203.715 63.4033 205.581L62.7686 204.603C65.7964 203.162 67.269 201.112 67.5039 198.459H63.3145V197.494H68.7227Z" fill="#485760"/>
<path d="M111.972 207.667C111.972 208.009 111.879 208.345 111.703 208.637C111.527 208.929 111.275 209.166 110.975 209.323C110.675 209.48 110.337 209.551 110 209.527C109.663 209.504 109.338 209.387 109.062 209.189C108.786 208.992 108.569 208.721 108.435 208.407C108.301 208.094 108.254 207.748 108.301 207.41C108.347 207.071 108.485 206.752 108.699 206.487C108.912 206.222 109.194 206.022 109.513 205.908V200.206C109.513 200.041 109.578 199.883 109.693 199.766C109.808 199.649 109.965 199.584 110.128 199.584C110.291 199.584 110.447 199.649 110.562 199.766C110.678 199.883 110.742 200.041 110.742 200.206V205.908C111.102 206.036 111.414 206.275 111.634 206.59C111.854 206.905 111.972 207.281 111.972 207.667Z" fill="#BCBCBC"/>
<path d="M107.055 195.232C107.055 194.407 107.379 193.616 107.956 193.033C108.532 192.45 109.314 192.123 110.129 192.123C110.945 192.123 111.727 192.45 112.303 193.033C112.88 193.616 113.203 194.407 113.203 195.232V204.621C113.797 205.233 114.198 206.009 114.357 206.85C114.516 207.692 114.425 208.563 114.097 209.353C113.769 210.143 113.217 210.818 112.511 211.292C111.805 211.766 110.977 212.019 110.129 212.019C109.282 212.019 108.453 211.766 107.748 211.292C107.042 210.818 106.49 210.143 106.162 209.353C105.833 208.563 105.743 207.692 105.902 206.85C106.061 206.009 106.462 205.233 107.055 204.621V195.232ZM110.129 193.366C109.64 193.366 109.171 193.563 108.825 193.913C108.479 194.262 108.285 194.737 108.285 195.232V205.164L108.08 205.351C107.615 205.77 107.288 206.323 107.141 206.935C106.995 207.547 107.035 208.189 107.257 208.777C107.479 209.366 107.873 209.872 108.385 210.229C108.898 210.586 109.506 210.777 110.129 210.777C110.751 210.777 111.359 210.586 111.872 210.229C112.385 209.872 112.778 209.366 113.001 208.777C113.223 208.189 113.263 207.547 113.116 206.935C112.969 206.323 112.642 205.77 112.178 205.351L111.974 205.164V195.232C111.974 194.737 111.779 194.262 111.434 193.913C111.088 193.563 110.619 193.366 110.129 193.366Z" fill="#BCBCBC"/>
<path d="M128.275 197.088V201.468C129.817 201.468 131.442 201.366 133.201 200.998L133.34 201.988C131.436 202.382 129.684 202.483 127.996 202.483H127.069V197.088H128.275ZM135.486 196.288V199.601H137.136V200.63H135.486V204.489H134.28V196.288H135.486ZM135.879 206.432V207.409H128.3V203.689H129.519V206.432H135.879ZM142.052 203.359C144.401 203.359 145.823 204.146 145.823 205.492C145.823 206.85 144.401 207.638 142.052 207.65C139.678 207.638 138.231 206.85 138.231 205.492C138.231 204.146 139.678 203.359 142.052 203.359ZM142.052 204.311C140.402 204.311 139.424 204.73 139.437 205.492C139.424 206.254 140.402 206.685 142.052 206.685C143.69 206.685 144.642 206.254 144.642 205.492C144.642 204.73 143.69 204.311 142.052 204.311ZM145.721 196.275V199.056H147.372V200.084H145.721V203.067H144.515V196.275H145.721ZM138.409 196.986V198.624H141.392V196.986H142.585V202.267H137.228V196.986H138.409ZM138.409 201.303H141.392V199.576H138.409V201.303Z" fill="#BCBCBC"/>
<path d="M186.927 204.462C186.927 207.981 184.71 210.196 181.188 210.196C177.667 210.196 175.45 207.981 175.45 204.462C175.45 200.686 179.564 195.588 180.825 194.113C180.87 194.061 180.926 194.019 180.989 193.99C181.051 193.961 181.12 193.946 181.189 193.946C181.258 193.946 181.326 193.961 181.389 193.99C181.451 194.019 181.507 194.061 181.552 194.113C182.813 195.588 186.927 200.686 186.927 204.462Z" fill="#BCBCBC"/>
<path d="M203.435 197.278C203.422 198.789 205.275 200.211 207.51 200.503L207.04 201.493C205.18 201.195 203.542 200.23 202.812 198.89C202.063 200.236 200.432 201.195 198.585 201.493L198.103 200.503C200.337 200.211 202.165 198.802 202.178 197.278V196.656H203.435V197.278ZM207.979 202.61V203.6H203.358V207.65H202.178V203.6H197.607V202.61H207.979ZM217.06 201.518V202.483H213.619V205.263H218.253V206.254H207.843V205.263H212.426V202.483H209.138V197.151H216.958V198.129H210.344V201.518H217.06Z" fill="#BCBCBC"/>
<path d="M247.593 195.821C246.127 196.636 245.386 198.053 245.827 200.285C246.287 202.611 247.151 202.071 247.151 205.196C247.151 206.089 246.71 207.874 245.386 208.321" stroke="#BCBCBC" stroke-width="1.77561" stroke-linecap="round"/>
<path d="M253.351 195.821C251.885 196.636 251.144 198.053 251.585 200.285C252.045 202.611 252.91 202.071 252.91 205.196C252.91 206.089 252.468 207.874 251.144 208.321" stroke="#BCBCBC" stroke-width="1.77561" stroke-linecap="round"/>
<path d="M259.109 195.821C257.643 196.636 256.902 198.053 257.344 200.285C257.804 202.611 258.668 202.071 258.668 205.196C258.668 206.089 258.227 207.874 256.902 208.321" stroke="#BCBCBC" stroke-width="1.77561" stroke-linecap="round"/>
<path d="M279.039 202.267V203.258H268.667V202.267H273.25V201.163C271.117 201.042 269.784 200.217 269.784 198.878C269.784 197.469 271.371 196.605 273.846 196.593C276.309 196.605 277.909 197.469 277.909 198.878C277.909 200.217 276.563 201.042 274.443 201.163V202.267H279.039ZM277.871 206.431V207.409H269.974V204.108H271.193V206.431H277.871ZM273.846 197.57C272.107 197.57 271.015 198.065 271.028 198.878C271.015 199.741 272.107 200.211 273.846 200.211C275.585 200.211 276.665 199.741 276.665 198.878C276.665 198.065 275.585 197.57 273.846 197.57ZM284.729 197.278C284.716 198.789 286.57 200.211 288.804 200.503L288.334 201.493C286.475 201.195 284.837 200.23 284.107 198.89C283.358 200.236 281.727 201.195 279.879 201.493L279.397 200.503C281.631 200.211 283.459 198.802 283.472 197.278V196.656H284.729V197.278ZM289.274 202.61V203.6H284.653V207.65H283.472V203.6H278.902V202.61H289.274Z" fill="#BCBCBC"/>
<path d="M317.131 209.884H315.586V194.259H317.131M331.035 194.259H329.49V209.884H331.035M327.358 196.868L324.268 199.993C323.836 199.784 323.35 199.716 322.878 199.798C322.405 199.88 321.97 200.108 321.631 200.451C321.292 200.794 321.067 201.234 320.986 201.712C320.905 202.19 320.972 202.681 321.179 203.118L318.089 206.243L319.186 207.352L322.275 204.228C322.708 204.436 323.194 204.505 323.666 204.423C324.138 204.341 324.574 204.113 324.913 203.77C325.252 203.427 325.477 202.987 325.558 202.509C325.639 202.031 325.572 201.54 325.365 201.103L328.455 197.978L327.358 196.868Z" fill="#BCBCBC"/>
<path d="M348.586 196.275V200.807H350.351V201.81H348.586V207.637H347.38V196.275H348.586ZM345.616 197.469C345.603 200.757 344.156 203.689 340.411 205.543L339.738 204.603C342.588 203.181 344.137 201.125 344.384 198.471H340.309V197.469H345.616ZM355.737 197.887C355.737 199.741 357.717 201.493 359.901 201.886L359.342 202.889C357.527 202.496 355.851 201.302 355.115 199.703C354.366 201.29 352.696 202.483 350.875 202.889L350.341 201.886C352.5 201.48 354.467 199.741 354.467 197.887V197.024H355.737V197.887ZM360.371 205.149V206.152H349.96V205.149H360.371Z" fill="#BCBCBC"/>
</g>
<defs>
<linearGradient id="paint0_linear_401_20159" x1="193" y1="435" x2="193" y2="572.41" gradientUnits="userSpaceOnUse">
<stop stop-color="#3444E0" stop-opacity="0.6"/>
<stop offset="1" stop-color="#3444E0" stop-opacity="0"/>
</linearGradient>
<clipPath id="clip0_401_20159">
<rect width="392" height="848.328" rx="30.1538" fill="white"/>
</clipPath>
<clipPath id="clip1_401_20159">
<rect width="20.1026" height="14.0718" fill="white" transform="translate(291.486 18.0923)"/>
</clipPath>
<clipPath id="clip2_401_20159">
<rect width="20.1026" height="12.0615" fill="white" transform="translate(315.609 19.0974)"/>
</clipPath>
<clipPath id="clip3_401_20159">
<rect x="16.0806" y="325.25" width="173.918" height="76.0071" rx="4.32768" fill="white"/>
</clipPath>
<clipPath id="clip4_401_20159">
<rect x="201.999" y="325.25" width="173.918" height="76.0071" rx="4.32768" fill="white"/>
</clipPath>
<clipPath id="clip5_401_20159">
<rect x="16.0806" y="657.354" width="360.841" height="76.531" fill="white"/>
</clipPath>
</defs>
</svg>
