<svg width="405" height="877" viewBox="0 0 405 877" fill="none" xmlns="http://www.w3.org/2000/svg">
<g clip-path="url(#clip0_654_7317)">
<rect width="405" height="876.462" rx="24.9231" fill="white"/>
<path d="M53.8365 20.9598C54.7213 20.9598 55.5314 21.1551 56.2668 21.5458C57.0022 21.9307 57.5968 22.5713 58.0507 23.4676C58.5103 24.3638 58.743 25.5387 58.7487 26.9923C58.7487 28.4114 58.5448 29.6322 58.1368 30.6549C57.7289 31.6718 57.1487 32.4474 56.396 32.9817C55.6434 33.516 54.7558 33.7832 53.7331 33.7832C52.946 33.7832 52.2393 33.6309 51.6131 33.3264C50.9869 33.0219 50.4813 32.5997 50.0963 32.0596C49.7171 31.5196 49.4816 30.9048 49.3897 30.2154H51.6131C51.728 30.7152 51.9693 31.1116 52.337 31.4047C52.7104 31.6919 53.1758 31.8356 53.7331 31.8356C54.3306 31.8356 54.8419 31.6661 55.2671 31.3271C55.6922 30.9881 56.014 30.4998 56.2323 29.8621C56.4564 29.2186 56.5713 28.4516 56.577 27.5611H56.4391C56.1231 28.1011 55.6807 28.5234 55.112 28.8279C54.5489 29.1324 53.9227 29.2847 53.2333 29.2847C52.4979 29.2847 51.8285 29.1123 51.2253 28.7676C50.6278 28.4171 50.1538 27.9345 49.8033 27.3198C49.4529 26.705 49.2748 26.0098 49.269 25.2342C49.269 24.4242 49.4586 23.6945 49.8378 23.0453C50.217 22.3961 50.7513 21.8876 51.4407 21.5199C52.1359 21.1465 52.9345 20.9598 53.8365 20.9598ZM53.8882 22.7695C53.4401 22.7695 53.0293 22.8758 52.6559 23.0884C52.2824 23.301 51.9894 23.5911 51.7768 23.9588C51.5643 24.3207 51.458 24.7172 51.458 25.1481C51.458 25.6019 51.5585 26.0127 51.7596 26.3804C51.9664 26.7481 52.2508 27.0411 52.6128 27.2594C52.9805 27.472 53.3941 27.5783 53.8537 27.5783C54.2961 27.5783 54.704 27.4691 55.0775 27.2508C55.4567 27.0325 55.7554 26.7424 55.9737 26.3804C56.1921 26.0127 56.3012 25.6192 56.3012 25.1998C56.3012 24.7689 56.1978 24.3696 55.991 24.0019C55.7842 23.6284 55.4969 23.3297 55.1292 23.1056C54.7615 22.8815 54.3478 22.7695 53.8882 22.7695ZM61.2831 32.0596C61.0418 32.0596 60.8177 31.9993 60.6109 31.8786C60.404 31.758 60.2403 31.5942 60.1197 31.3874C59.999 31.1806 59.9387 30.9565 59.9387 30.7152C59.9387 30.4797 59.999 30.2613 60.1197 30.0603C60.2403 29.8534 60.404 29.6897 60.6109 29.569C60.8177 29.4484 61.0418 29.3881 61.2831 29.3881C61.5129 29.3881 61.7283 29.4484 61.9294 29.569C62.1362 29.6897 62.3 29.8534 62.4206 30.0603C62.547 30.2613 62.6102 30.4797 62.6102 30.7152C62.6102 30.9565 62.547 31.1806 62.4206 31.3874C62.3 31.5942 62.1362 31.758 61.9294 31.8786C61.7283 31.9993 61.5129 32.0596 61.2831 32.0596ZM61.2831 25.3721C61.0418 25.3721 60.8177 25.3118 60.6109 25.1911C60.404 25.0705 60.2403 24.9068 60.1197 24.6999C59.999 24.4931 59.9387 24.269 59.9387 24.0277C59.9387 23.7922 59.999 23.5739 60.1197 23.3728C60.2403 23.1659 60.404 23.0022 60.6109 22.8815C60.8177 22.7609 61.0418 22.7006 61.2831 22.7006C61.5129 22.7006 61.7283 22.7609 61.9294 22.8815C62.1362 23.0022 62.3 23.1659 62.4206 23.3728C62.547 23.5739 62.6102 23.7922 62.6102 24.0277C62.6102 24.269 62.547 24.4931 62.4206 24.6999C62.3 24.9068 62.1362 25.0705 61.9294 25.1911C61.7283 25.3118 61.5129 25.3721 61.2831 25.3721ZM63.783 29.4915L69.1778 21.1321H71.97V29.4398H73.6074V31.284H71.97V33.6108H69.8327V31.284H63.783V29.4915ZM69.8672 29.4398V23.683H69.7293L66.0753 29.3536V29.4398H69.8672ZM79.5889 33.6108H77.331V23.3211H77.262L74.3492 25.1825V23.1315L77.4344 21.1321H79.5889V33.6108Z" fill="black"/>
<g clip-path="url(#clip1_654_7317)">
<rect x="318.054" y="19.7256" width="3.32225" height="12.4585" rx="1.0382" fill="black"/>
<rect x="312.551" y="22.2168" width="3.32225" height="9.96676" rx="1.0382" fill="black"/>
<rect x="307.049" y="24.9165" width="3.32225" height="7.26743" rx="1.0382" fill="black"/>
<rect x="301.547" y="27.4082" width="3.32225" height="4.77574" rx="1.0382" fill="black"/>
</g>
<path d="M336.385 28.1689C337.115 28.1689 337.825 28.3609 338.45 28.7268L338.704 28.8751C338.896 28.9875 338.929 29.2505 338.772 29.4076L336.609 31.5646C336.476 31.6971 336.261 31.6971 336.128 31.5646L333.979 29.4214C333.822 29.2651 333.854 29.0033 334.045 28.8901L334.295 28.7412C334.926 28.366 335.645 28.1689 336.385 28.1689Z" fill="black"/>
<path d="M336.385 24.207C338.202 24.207 339.947 24.8097 341.368 25.9259L341.568 26.0836C341.729 26.2093 341.743 26.4463 341.598 26.59L340.307 27.8778C340.188 27.9969 339.999 28.0106 339.863 27.9099L339.706 27.793C338.746 27.0797 337.589 26.6971 336.385 26.6971C335.175 26.6971 334.011 27.0844 333.048 27.8059L332.89 27.924C332.755 28.0254 332.565 28.0121 332.445 27.8926L331.154 26.6053C331.011 26.4619 331.024 26.2255 331.184 26.0995L331.383 25.9417C332.808 24.8156 334.56 24.207 336.385 24.207Z" fill="black"/>
<path d="M336.386 20.2441C339.269 20.2441 342.026 21.2612 344.209 23.1254L344.395 23.2845C344.546 23.4131 344.555 23.6423 344.414 23.7821L343.127 25.0657C343.003 25.1901 342.803 25.1988 342.668 25.0858L342.509 24.9525C340.79 23.5157 338.637 22.7342 336.386 22.7342C334.128 22.7342 331.967 23.5211 330.246 24.9669L330.087 25.1008C329.952 25.2143 329.752 25.2059 329.627 25.0813L328.34 23.7979C328.2 23.6583 328.209 23.4295 328.359 23.3007L328.544 23.1416C330.729 21.2673 333.494 20.2441 336.386 20.2441Z" fill="black"/>
<rect x="352.989" y="21.2827" width="21.8023" height="9.34384" rx="1.38081" fill="black"/>
<path opacity="0.4" fill-rule="evenodd" clip-rule="evenodd" d="M356.727 20.2443H371.054C372.089 20.2443 372.802 20.2451 373.356 20.2903C373.898 20.3346 374.195 20.4161 374.413 20.5272C374.901 20.776 375.298 21.1731 375.547 21.6614C375.658 21.8793 375.74 22.1762 375.784 22.7179C375.829 23.2718 375.83 23.9853 375.83 25.02V26.8888C375.83 27.9234 375.829 28.637 375.784 29.1908C375.74 29.7326 375.658 30.0294 375.547 30.2473C375.298 30.7357 374.901 31.1328 374.413 31.3816C374.195 31.4926 373.898 31.5742 373.356 31.6184C372.802 31.6637 372.089 31.6645 371.054 31.6645H356.727C355.692 31.6645 354.979 31.6637 354.425 31.6184C353.883 31.5742 353.586 31.4926 353.368 31.3816C352.88 31.1328 352.483 30.7357 352.234 30.2473C352.123 30.0294 352.042 29.7326 351.997 29.1908C351.952 28.637 351.951 27.9234 351.951 26.8888V25.02C351.951 23.9853 351.952 23.2718 351.997 22.7179C352.042 22.1762 352.123 21.8793 352.234 21.6614C352.483 21.1731 352.88 20.776 353.368 20.5272C353.586 20.4161 353.883 20.3346 354.425 20.2903C354.979 20.2451 355.692 20.2443 356.727 20.2443ZM350.913 25.02C350.913 22.9849 350.913 21.9674 351.309 21.1901C351.658 20.5064 352.213 19.9505 352.897 19.6021C353.674 19.2061 354.692 19.2061 356.727 19.2061H371.054C373.089 19.2061 374.107 19.2061 374.884 19.6021C375.568 19.9505 376.124 20.5064 376.472 21.1901C376.868 21.9674 376.868 22.9849 376.868 25.02V26.8888C376.868 28.9238 376.868 29.9414 376.472 30.7187C376.124 31.4024 375.568 31.9583 374.884 32.3067C374.107 32.7027 373.089 32.7027 371.054 32.7027H356.727C354.692 32.7027 353.674 32.7027 352.897 32.3067C352.213 31.9583 351.658 31.4024 351.309 30.7187C350.913 29.9414 350.913 28.9238 350.913 26.8888V25.02ZM377.906 28.031C378.766 27.8234 379.464 27.1014 379.464 25.9546C379.464 24.8079 378.766 24.0859 377.906 23.8782L377.906 25.9546L377.906 28.031Z" fill="black"/>
<rect x="127.982" y="866.076" width="149.04" height="5.19231" rx="2.59615" fill="black"/>
<rect x="0.00488281" y="774.692" width="405" height="101.769" fill="white"/>
<mask id="path-14-inside-1_654_7317" fill="white">
<path d="M16.6211 775.729H388.39V847.883H16.6211V775.729Z"/>
</mask>
<path d="M16.6211 775.729H388.39V847.883H16.6211V775.729Z" fill="white"/>
<path d="M16.6211 776.768H388.39V774.691H16.6211V776.768Z" fill="#D2D6D8" mask="url(#path-14-inside-1_654_7317)"/>
<path d="M30.3289 810.206V822.668H44.452V810.206M27.0059 812.699L37.3905 803.56L47.7751 812.699" stroke="#D2D6D8" stroke-width="2.07692" stroke-linecap="round" stroke-linejoin="round"/>
<path d="M41.2783 843.444V846.859H33.1177V843.444H41.2783ZM34.3569 844.407V845.896H40.0654V844.407H34.3569ZM41.9902 836.127V837.09H32.3794V836.127H36.585V835.033H37.8374V836.127H41.9902ZM37.2046 837.512C39.6963 837.512 41.0806 838.079 41.0806 839.186C41.0806 840.195 39.927 840.755 37.8374 840.847V841.651H42.5967V842.64H31.8257V841.651H36.585V840.847C34.4954 840.755 33.3154 840.195 33.3286 839.186C33.3154 838.079 34.7261 837.512 37.2046 837.512ZM37.2046 838.369C35.5566 838.382 34.6602 838.646 34.6602 839.186C34.6602 839.713 35.5566 840.003 37.2046 840.003C38.8657 840.003 39.749 839.713 39.749 839.186C39.749 838.646 38.8657 838.382 37.2046 838.369Z" fill="#D2D6D8"/>
<path d="M127.046 818.08L132.464 823.498" stroke="#D2D6D8" stroke-width="2.07692" stroke-linecap="round" stroke-linejoin="round"/>
<path d="M120.279 819.887C125.017 819.887 128.857 816.046 128.857 811.308C128.857 806.57 125.017 802.729 120.279 802.729C115.541 802.729 111.7 806.57 111.7 811.308C111.7 816.046 115.541 819.887 120.279 819.887Z" stroke="#D2D6D8" stroke-width="2.07692" stroke-linecap="round" stroke-linejoin="round"/>
<path d="M121.829 844.499V845.527H111.018V844.499H115.791V841.704H117.043V844.499H121.829ZM117.056 837.34C117.056 839.146 119.1 840.755 121.354 841.111L120.853 842.1C118.948 841.737 117.188 840.63 116.423 839.081C115.652 840.649 113.905 841.79 112.033 842.152L111.519 841.164C113.721 840.794 115.751 839.146 115.751 837.34V837.235H111.915V836.207H120.893V837.235H117.056V837.34ZM131.416 835.191V847.004H130.164V835.191H131.416ZM121.713 843.787C122.682 843.781 123.796 843.774 124.956 843.734V842.561C123.572 842.383 122.675 841.572 122.689 840.412C122.675 839.081 123.836 838.197 125.549 838.197C127.276 838.197 128.463 839.081 128.463 840.412C128.463 841.559 127.567 842.363 126.195 842.548V843.695C127.29 843.649 128.397 843.563 129.439 843.431L129.531 844.367C126.907 844.802 124.047 844.829 121.884 844.829L121.713 843.787ZM129.175 836.602V837.604H121.963V836.602H124.956V835.218H126.209V836.602H129.175ZM125.549 839.173C124.561 839.173 123.862 839.661 123.875 840.412C123.862 841.164 124.561 841.625 125.549 841.625C126.565 841.625 127.263 841.164 127.263 840.412C127.263 839.661 126.565 839.173 125.549 839.173Z" fill="#D2D6D8"/>
<path d="M196.391 802.729V823.499H217.16M202.206 818.514V814.36M208.852 818.514V809.376M215.498 818.514V804.391" stroke="#485760" stroke-width="2.07692" stroke-linecap="round" stroke-linejoin="round"/>
<path d="M206.508 841.375V842.376H201.814V844.552H200.575V842.376H195.697V841.375H206.508ZM205.308 845.738V846.753H197.042V843.523H198.281V845.738H205.308ZM198.36 835.561V836.998H203.832V835.561H205.084V840.333H197.121V835.561H198.36ZM198.36 839.331H203.832V837.934H198.36V839.331ZM210.505 837.077C210.492 838.646 211.573 840.122 213.353 840.715L212.668 841.717C211.362 841.249 210.4 840.293 209.899 839.094C209.378 840.412 208.376 841.447 206.999 841.968L206.326 840.953C208.172 840.307 209.24 838.751 209.253 837.011V835.798H210.505V837.077ZM216.188 842.812V847.004H214.935V843.8H208.185V842.812H216.188ZM216.188 835.191V842.192H214.935V838.606H212.443V837.578H214.935V835.191H216.188Z" fill="#485760"/>
<g opacity="0.3">
<path d="M300.49 810.302C299.11 806.662 295.593 804.074 291.474 804.074C287.354 804.074 283.838 806.659 282.458 810.299C279.875 810.977 277.968 813.328 277.968 816.127C277.968 819.457 280.665 822.154 283.992 822.154H298.944C302.271 822.154 304.968 819.457 304.968 816.127C304.968 813.334 303.066 810.983 300.49 810.302ZM301.584 818.77C301.238 819.118 300.827 819.394 300.373 819.581C299.92 819.769 299.434 819.865 298.944 819.864H283.992C282.994 819.864 282.057 819.475 281.352 818.77C281.004 818.424 280.728 818.012 280.54 817.558C280.353 817.105 280.257 816.618 280.258 816.127C280.258 815.284 280.532 814.491 281.047 813.828C281.552 813.186 282.251 812.724 283.039 812.511L284.181 812.213L284.6 811.11C284.859 810.423 285.221 809.781 285.676 809.2C286.125 808.623 286.657 808.116 287.255 807.696C288.494 806.825 289.952 806.364 291.474 806.364C292.996 806.364 294.454 806.825 295.693 807.696C296.292 808.118 296.823 808.624 297.272 809.2C297.727 809.781 298.088 810.426 298.347 811.11L298.763 812.21L299.902 812.511C301.539 812.948 302.678 814.434 302.678 816.127C302.678 817.125 302.289 818.065 301.584 818.77Z" fill="#485760"/>
<path d="M283.894 836.338V845.883H282.443V836.338H283.894ZM293.086 841.111C293.086 844.156 291.253 846.015 288.788 846.015C286.296 846.015 284.477 844.156 284.477 841.111C284.477 838.052 286.296 836.207 288.788 836.207C291.253 836.207 293.086 838.052 293.086 841.111ZM291.649 841.111C291.649 838.791 290.422 837.538 288.788 837.538C287.14 837.538 285.914 838.791 285.914 841.111C285.914 843.431 287.14 844.684 288.788 844.684C290.422 844.684 291.649 843.431 291.649 841.111ZM292.799 837.591V836.338H300.195V837.591H297.228V845.883H295.778V837.591H292.799Z" fill="#485760"/>
</g>
<path d="M363.902 815.51C363.267 815.51 362.657 815.258 362.208 814.808C361.758 814.359 361.506 813.749 361.506 813.114C361.506 812.478 361.758 811.869 362.208 811.419C362.657 810.97 363.267 810.717 363.902 810.717C364.538 810.717 365.147 810.97 365.597 811.419C366.046 811.869 366.299 812.478 366.299 813.114C366.299 813.749 366.046 814.359 365.597 814.808C365.147 815.258 364.538 815.51 363.902 815.51ZM371.89 815.51C371.255 815.51 370.645 815.258 370.196 814.808C369.747 814.359 369.494 813.749 369.494 813.114C369.494 812.478 369.747 811.869 370.196 811.419C370.645 810.97 371.255 810.717 371.89 810.717C372.526 810.717 373.136 810.97 373.585 811.419C374.034 811.869 374.287 812.478 374.287 813.114C374.287 813.749 374.034 814.359 373.585 814.808C373.136 815.258 372.526 815.51 371.89 815.51ZM379.879 815.51C379.243 815.51 378.634 815.258 378.184 814.808C377.735 814.359 377.482 813.749 377.482 813.114C377.482 812.478 377.735 811.869 378.184 811.419C378.634 810.97 379.243 810.717 379.879 810.717C380.514 810.717 381.124 810.97 381.573 811.419C382.023 811.869 382.275 812.478 382.275 813.114C382.275 813.749 382.023 814.359 381.573 814.808C381.124 815.258 380.514 815.51 379.879 815.51Z" fill="#D2D6D8"/>
<path d="M361.824 834.528V835.57H357.671V841.331C359.649 841.324 361.013 841.252 362.563 840.949L362.708 841.977C361.007 842.293 359.57 842.373 357.342 842.373H356.406V834.528H361.824ZM365.687 833.434V845.273H364.435V838.694H361.152V837.653H364.435V833.434H365.687ZM377.265 842.742V843.783H366.455V842.742H371.214V840.316H367.694V834.238H368.946V836.269H374.747V834.238H375.986V840.316H372.453V842.742H377.265ZM368.946 839.301H374.747V837.284H368.946V839.301ZM386.906 833.434V845.247H385.64V833.434H386.906ZM383.385 834.7C383.385 838.154 381.909 841.16 377.862 843.098L377.202 842.083C380.347 840.586 381.876 838.457 382.12 835.702H377.769V834.7H383.385Z" fill="#D2D6D8"/>
<rect x="16.6123" y="144.643" width="371.778" height="45.6061" rx="22.7296" fill="#F4F5F9"/>
<rect x="20.7451" y="148.776" width="69.8421" height="37.3408" rx="18.6704" fill="white"/>
<path d="M30.8916 168.838L42.1686 157.3L39.5294 165.883H43.6608L32.362 177.593L35.0012 168.838H30.8916Z" fill="#3D9DFF"/>
<path d="M64.0374 161.322V169.926H62.7913V165.506H60.5484V164.496H62.7913V161.322H64.0374ZM64.3522 171.802V172.812H56.4037V169.153H57.6497V171.802H64.3522ZM58.4498 163.696C58.4498 165.165 59.5122 166.634 61.2829 167.224L60.6402 168.221C59.3221 167.756 58.3449 166.811 57.8334 165.65C57.3218 166.942 56.2922 167.985 54.8953 168.484L54.2526 167.474C56.0626 166.857 57.1775 165.309 57.1775 163.696V163.237H54.633V162.214H60.9682V163.237H58.4498V163.696ZM74.5859 161.309V173.061H73.3268V161.309H74.5859ZM71.0839 162.568C71.0839 166.005 69.6148 168.995 65.5881 170.923L64.9323 169.913C68.0606 168.425 69.5821 166.306 69.8247 163.565H65.4963V162.568H71.0839Z" fill="#485760"/>
<path d="M115.632 173.228C115.632 173.582 115.536 173.928 115.354 174.23C115.173 174.531 114.913 174.777 114.602 174.939C114.292 175.101 113.944 175.174 113.595 175.15C113.247 175.125 112.911 175.005 112.626 174.801C112.341 174.597 112.117 174.317 111.978 173.993C111.839 173.669 111.791 173.312 111.839 172.962C111.887 172.612 112.03 172.283 112.251 172.009C112.471 171.735 112.762 171.528 113.092 171.41V165.519C113.092 165.349 113.159 165.186 113.278 165.065C113.397 164.945 113.558 164.877 113.727 164.877C113.895 164.877 114.057 164.945 114.176 165.065C114.295 165.186 114.362 165.349 114.362 165.519V171.41C114.734 171.543 115.056 171.789 115.283 172.115C115.511 172.441 115.633 172.83 115.632 173.228V173.228Z" fill="#BCBCBC"/>
<path d="M110.553 160.38C110.553 159.528 110.887 158.711 111.483 158.109C112.078 157.506 112.886 157.168 113.729 157.168C114.571 157.168 115.379 157.506 115.974 158.109C116.57 158.711 116.905 159.528 116.905 160.38V170.08C117.517 170.713 117.932 171.514 118.096 172.384C118.26 173.254 118.167 174.153 117.828 174.97C117.489 175.786 116.919 176.483 116.189 176.973C115.46 177.463 114.604 177.724 113.729 177.724C112.853 177.724 111.997 177.463 111.268 176.973C110.539 176.483 109.969 175.786 109.629 174.97C109.29 174.153 109.197 173.254 109.361 172.384C109.525 171.514 109.94 170.713 110.553 170.08V160.38ZM113.729 158.453C113.223 158.453 112.739 158.656 112.381 159.017C112.024 159.379 111.823 159.869 111.823 160.38V170.642L111.611 170.835C111.131 171.268 110.793 171.839 110.642 172.471C110.49 173.103 110.532 173.767 110.761 174.375C110.991 174.983 111.397 175.506 111.927 175.875C112.457 176.243 113.085 176.441 113.728 176.441C114.371 176.441 114.999 176.243 115.529 175.875C116.059 175.506 116.465 174.983 116.695 174.375C116.924 173.767 116.966 173.103 116.814 172.471C116.663 171.839 116.325 171.268 115.845 170.835L115.634 170.642V160.38C115.634 159.869 115.433 159.379 115.076 159.017C114.719 158.656 114.234 158.453 113.729 158.453Z" fill="#BCBCBC"/>
<path d="M132.476 162.148V166.674C134.07 166.674 135.749 166.569 137.566 166.188L137.71 167.211C135.742 167.618 133.932 167.723 132.188 167.723H131.23V162.148H132.476ZM139.927 161.322V164.745H141.632V165.808H139.927V169.795H138.68V161.322H139.927ZM140.333 171.802V172.812H132.503V168.969H133.762V171.802H140.333ZM146.711 168.628C149.137 168.628 150.606 169.441 150.606 170.831C150.606 172.235 149.137 173.048 146.711 173.061C144.258 173.048 142.763 172.235 142.763 170.831C142.763 169.441 144.258 168.628 146.711 168.628ZM146.711 169.612C145.006 169.612 143.996 170.044 144.009 170.831C143.996 171.618 145.006 172.064 146.711 172.064C148.403 172.064 149.386 171.618 149.386 170.831C149.386 170.044 148.403 169.612 146.711 169.612ZM150.501 161.309V164.181H152.206V165.244H150.501V168.326H149.255V161.309H150.501ZM142.946 162.043V163.735H146.029V162.043H147.262V167.5H141.726V162.043H142.946ZM142.946 166.503H146.029V164.719H142.946V166.503Z" fill="#BCBCBC"/>
<path d="M193.076 169.916C193.076 173.552 190.786 175.841 187.147 175.841C183.509 175.841 181.219 173.552 181.219 169.916C181.219 166.015 185.469 160.748 186.772 159.225C186.819 159.171 186.876 159.127 186.941 159.097C187.006 159.068 187.076 159.052 187.148 159.052C187.219 159.052 187.289 159.068 187.354 159.097C187.419 159.127 187.476 159.171 187.523 159.225C188.826 160.748 193.076 166.015 193.076 169.916Z" fill="#BCBCBC"/>
<path d="M210.131 162.345C210.118 163.906 212.033 165.375 214.341 165.677L213.856 166.7C211.934 166.392 210.242 165.395 209.488 164.011C208.714 165.401 207.029 166.392 205.121 166.7L204.622 165.677C206.931 165.375 208.819 163.919 208.832 162.345V161.702H210.131V162.345ZM214.827 167.854V168.877H210.052V173.061H208.832V168.877H204.111V167.854H214.827ZM224.208 166.726V167.723H220.653V170.595H225.441V171.618H214.685V170.595H219.42V167.723H216.023V162.214H224.103V163.224H217.269V166.726H224.208Z" fill="#BCBCBC"/>
<path d="M255.756 160.989C254.241 161.831 253.476 163.295 253.932 165.601C254.407 168.004 255.3 167.446 255.3 170.675C255.3 171.597 254.844 173.442 253.476 173.903" stroke="#BCBCBC" stroke-width="1.83449" stroke-linecap="round"/>
<path d="M261.705 160.989C260.19 161.831 259.425 163.295 259.881 165.601C260.356 168.004 261.249 167.446 261.249 170.675C261.249 171.597 260.793 173.442 259.425 173.903" stroke="#BCBCBC" stroke-width="1.83449" stroke-linecap="round"/>
<path d="M267.654 160.989C266.139 161.831 265.374 163.295 265.83 165.601C266.305 168.004 267.198 167.446 267.198 170.675C267.198 171.597 266.742 173.442 265.374 173.903" stroke="#BCBCBC" stroke-width="1.83449" stroke-linecap="round"/>
<path d="M288.245 167.5V168.523H277.529V167.5H282.264V166.359C280.06 166.234 278.683 165.382 278.683 163.998C278.683 162.542 280.322 161.65 282.88 161.637C285.425 161.65 287.077 162.542 287.077 163.998C287.077 165.382 285.687 166.234 283.496 166.359V167.5H288.245ZM287.038 171.802V172.812H278.88V169.402H280.139V171.802H287.038ZM282.88 162.647C281.083 162.647 279.955 163.158 279.968 163.998C279.955 164.89 281.083 165.375 282.88 165.375C284.677 165.375 285.792 164.89 285.792 163.998C285.792 163.158 284.677 162.647 282.88 162.647ZM294.124 162.345C294.111 163.906 296.026 165.375 298.334 165.677L297.849 166.7C295.927 166.392 294.235 165.395 293.481 164.011C292.707 165.401 291.022 166.392 289.113 166.7L288.615 165.677C290.923 165.375 292.812 163.919 292.825 162.345V161.702H294.124V162.345ZM298.819 167.854V168.877H294.045V173.061H292.825V168.877H288.103V167.854H298.819Z" fill="#BCBCBC"/>
<path d="M327.602 175.518H326.006V159.375H327.602M341.967 159.375H340.371V175.518H341.967M338.169 162.071L334.976 165.3C334.529 165.084 334.027 165.014 333.54 165.098C333.052 165.183 332.602 165.419 332.251 165.773C331.901 166.127 331.668 166.582 331.585 167.075C331.501 167.569 331.571 168.077 331.784 168.528L328.592 171.757L329.725 172.903L332.917 169.674C333.364 169.89 333.866 169.961 334.354 169.876C334.842 169.791 335.292 169.556 335.642 169.202C335.992 168.848 336.225 168.392 336.309 167.899C336.392 167.405 336.323 166.898 336.109 166.446L339.302 163.217L338.169 162.071Z" fill="#BCBCBC"/>
<path d="M360.101 161.309V165.991H361.924V167.028H360.101V173.048H358.855V161.309H360.101ZM357.032 162.542C357.018 165.939 355.523 168.969 351.654 170.884L350.959 169.913C353.903 168.444 355.503 166.319 355.759 163.578H351.549V162.542H357.032ZM367.488 162.975C367.488 164.89 369.534 166.7 371.79 167.106L371.213 168.143C369.338 167.736 367.606 166.503 366.846 164.85C366.072 166.49 364.347 167.723 362.465 168.143L361.914 167.106C364.144 166.687 366.177 164.89 366.177 162.975V162.083H367.488V162.975ZM372.276 170.477V171.513H361.52V170.477H372.276Z" fill="#BCBCBC"/>
<path d="M30.5322 226.853V242.673H28.5743V226.853H30.5322ZM20.1659 228.147V232.097H23.9943V228.147H25.9172V238.95H18.2255V228.147H20.1659ZM20.1659 237.359H23.9943V233.618H20.1659V237.359ZM44.6832 228.304V229.912C44.6832 231.87 44.6832 234.003 44.1063 237.097L42.2009 236.905C42.7428 233.985 42.7428 231.818 42.7428 229.912V229.86H33.1807V228.304H44.6832ZM46.1341 239.02V240.611H31.7297V239.02H34.9637V233.985H36.9041V239.02H38.9144V233.985H40.8199V239.02H46.1341ZM60.4949 235.034V236.59H54.394V239.317H52.4711V236.59H46.0556V235.034H60.4949ZM58.9041 240.768V242.341H47.8037V237.988H49.7266V240.768H58.9041ZM49.8664 227.36V229.143H56.684V227.36H58.6069V233.793H47.9435V227.36H49.8664ZM49.8664 232.255H56.684V230.594H49.8664V232.255ZM66.1501 229.353C66.1501 231.381 67.4262 233.321 69.8561 234.108L68.8072 235.664C67.0941 235.06 65.8704 233.863 65.2061 232.342C64.4982 234.003 63.2133 235.305 61.3953 235.961L60.3464 234.405C62.9161 233.548 64.1922 231.486 64.1922 229.23V227.675H66.1501V229.353ZM73.6495 237.01V242.656H71.7091V238.548H62.8812V237.01H73.6495ZM73.6495 226.853V236.24H71.7091V231.521H68.5625V229.93H71.7091V226.853H73.6495Z" fill="#232323" fill-opacity="0.3"/>
<path d="M121.348 226.853V242.656H119.477V226.853H121.348ZM118.149 227.133V241.887H116.313V236.905H114.251C113.665 238.46 112.616 239.343 111.279 239.335C109.216 239.352 107.87 237.167 107.87 233.688C107.87 230.209 109.216 228.059 111.279 228.059C112.616 228.059 113.656 228.933 114.251 230.472H116.313V227.133H118.149ZM111.279 229.895C110.247 229.877 109.636 231.223 109.653 233.688C109.636 236.153 110.247 237.499 111.279 237.482C112.328 237.499 112.974 236.153 112.974 233.688C112.974 231.223 112.328 229.877 111.279 229.895ZM114.635 232.045C114.714 232.552 114.757 233.103 114.757 233.688C114.757 234.265 114.714 234.807 114.653 235.314H116.313V232.045H114.635ZM136.46 234.737V236.293H122.056V234.737H136.46ZM134.695 237.656V242.656H132.754V239.195H123.647V237.656H134.695ZM130.202 226.888V228.374H135.044V229.895H130.342C130.552 231.241 132.405 232.342 135.744 232.569L135.132 234.055C132.317 233.819 130.228 232.936 129.241 231.555C128.253 232.936 126.155 233.819 123.35 234.055L122.738 232.569C126.042 232.342 127.912 231.241 128.139 229.895H123.472V228.374H128.279V226.888H130.202ZM150.821 235.034V236.59H144.72V239.317H142.797V236.59H136.382V235.034H150.821ZM149.23 240.768V242.341H138.13V237.988H140.053V240.768H149.23ZM140.193 227.36V229.143H147.01V227.36H148.933V233.793H138.27V227.36H140.193ZM140.193 232.255H147.01V230.594H140.193V232.255ZM156.476 229.353C156.476 231.381 157.752 233.321 160.182 234.108L159.133 235.664C157.42 235.06 156.197 233.863 155.532 232.342C154.824 234.003 153.539 235.305 151.721 235.961L150.673 234.405C153.242 233.548 154.518 231.486 154.518 229.23V227.675H156.476V229.353ZM163.976 237.01V242.656H162.035V238.548H153.207V237.01H163.976ZM163.976 226.853V236.24H162.035V231.521H158.889V229.93H162.035V226.853H163.976Z" fill="#232323"/>
<rect x="106.938" y="253.1" width="59" height="2.25478" rx="1.12739" fill="#232323"/>
<path d="M35.0674 308.216H17.1709V310.451H24.7119V316.853H27.4189V310.451H35.0674V308.216ZM18.9756 302.373C18.9648 305.026 21.8652 306.734 26.0654 306.734C30.2656 306.734 33.1982 305.026 33.1982 302.373C33.1982 299.655 30.2656 297.936 26.0654 297.925C21.8652 297.936 18.9648 299.655 18.9756 302.373ZM21.79 302.373C21.7793 300.922 23.4443 300.127 26.0654 300.117C28.708 300.127 30.3623 300.922 30.3623 302.373C30.3623 303.769 28.708 304.553 26.0654 304.564C23.4443 304.553 21.7793 303.769 21.79 302.373ZM51.6695 297.281H48.941V316.875H51.6695V297.281ZM36.3082 301.126H42.8179V304.285H36.3296V312.298H38.0914C41.6578 312.298 44.5689 312.18 47.7808 311.611L47.5445 309.398C44.6763 309.871 42.1519 310.021 39.1656 310.042V306.455H45.6109V298.914H36.3082V301.126ZM64.92 298.355H54.1779V300.546H58.1847C58.0558 302.759 56.5411 304.94 53.4259 305.832L54.8009 307.98C57.1212 307.271 58.7325 305.799 59.6134 303.952C60.505 305.649 62.0626 306.992 64.297 307.636L65.672 305.509C62.6212 304.671 61.128 302.62 60.9991 300.546H64.92V298.355ZM56.6486 316.617H69.7325V308.71H67.004V310.537H59.3556V308.71H56.6486V316.617ZM59.3556 314.425V312.664H67.004V314.425H59.3556ZM66.9825 307.894H69.7325V297.281H66.9825V307.894Z" fill="#232323"/>
<path d="M80.4231 298.589H76.7646L82.2306 314.355H86.4335L91.8777 298.589H88.2627L84.4083 310.609H84.2558L80.4231 298.589ZM101.292 303.096H104.428C104.385 300.309 102.087 298.371 98.5922 298.371C95.1406 298.371 92.6145 300.276 92.6253 303.14C92.6253 305.448 94.2586 306.777 96.9154 307.43L98.6357 307.844C100.356 308.268 101.336 308.769 101.336 309.847C101.336 311.023 100.225 311.829 98.5051 311.829C96.7629 311.829 95.4999 311.023 95.391 309.433H92.2116C92.3096 312.82 94.7377 314.584 98.5486 314.573C102.392 314.584 104.635 312.733 104.646 309.847C104.635 307.223 102.621 305.851 99.9205 305.231L98.5051 304.882C97.144 304.577 95.9681 304.065 95.979 302.922C95.9898 301.877 96.9154 301.115 98.5704 301.115C100.171 301.115 101.162 301.844 101.292 303.096Z" fill="#3D9DFF"/>
<path d="M128.501 308.216H110.604V310.451H118.146V316.853H120.853V310.451H128.501V308.216ZM112.409 302.373C112.398 305.026 115.299 306.734 119.499 306.734C123.699 306.734 126.632 305.026 126.632 302.373C126.632 299.655 123.699 297.936 119.499 297.925C115.299 297.936 112.398 299.655 112.409 302.373ZM115.224 302.373C115.213 300.922 116.878 300.127 119.499 300.117C122.142 300.127 123.796 300.922 123.796 302.373C123.796 303.769 122.142 304.553 119.499 304.564C116.878 304.553 115.213 303.769 115.224 302.373ZM145.103 297.281H142.375V316.875H145.103V297.281ZM129.742 301.126H136.252V304.285H129.763V312.298H131.525C135.091 312.298 138.003 312.18 141.214 311.611L140.978 309.398C138.11 309.871 135.586 310.021 132.599 310.042V306.455H139.044V298.914H129.742V301.126ZM162.307 297.281H159.557V311.417H162.307V304.865H164.949V302.609H162.307V297.281ZM147.547 308.195H149.201C153.53 308.195 155.786 308.077 158.246 307.572L157.967 305.38C155.786 305.842 153.842 305.96 150.297 305.982V301.041H156.377V298.849H147.547V308.195ZM149.631 316.488H163.016V314.296H152.359V309.914H149.631V316.488ZM172.464 302.609V301.406H176.546V299.171H165.503V301.406H169.649V302.609C169.649 305.917 167.973 309.538 164.729 310.988L166.298 313.158C168.607 312.094 170.229 309.946 171.11 307.378C171.991 309.742 173.581 311.686 175.88 312.664L177.362 310.515C174.086 309.151 172.453 305.767 172.464 302.609ZM178.479 316.832H181.251V297.281H178.479V316.832Z" fill="#232323"/>
<path d="M188.918 308.349C188.93 310.75 189.578 312.744 190.747 314.446H191.712C190.855 313.182 190.055 310.616 190.048 308.349C190.055 306.088 190.855 303.515 191.712 302.264H190.747C189.578 303.96 188.93 305.954 188.918 308.349ZM198.062 302.455H192.066V303.28H193.21V307.034C192.689 307.041 192.2 307.041 191.749 307.041L191.876 307.879C193.711 307.885 196.277 307.847 198.481 307.511L198.43 306.748C197.941 306.812 197.427 306.856 196.906 306.894V303.28H198.062V302.455ZM193.553 310.826C193.546 312.115 194.975 312.859 197.338 312.859C199.701 312.859 201.124 312.115 201.124 310.826C201.124 309.537 199.701 308.8 197.338 308.806C194.975 308.8 193.546 309.537 193.553 310.826ZM194.175 307.015V303.28H195.941V306.952C195.35 306.983 194.753 307.002 194.175 307.015ZM194.543 310.826C194.537 310.051 195.598 309.581 197.338 309.581C199.072 309.581 200.133 310.051 200.133 310.826C200.133 311.614 199.072 312.071 197.338 312.071C195.598 312.071 194.537 311.614 194.543 310.826ZM198.176 306.469H200.082V308.565H201.085V301.591H200.082V303.623H198.176V304.449H200.082V305.643H198.176V306.469ZM211.017 302.213H203.345V303.026H210.027V303.064C210.033 303.973 210.033 305.014 209.76 306.443H202.036V307.269H205.466V310H206.444V307.269H208.515V310H209.48V307.269H212.377V306.443H210.751C211.017 305.033 211.017 303.973 211.017 303.064V302.213ZM203.307 312.643H211.322V311.804H204.298V309.111H203.307V312.643ZM215.17 308.349C215.157 305.954 214.509 303.96 213.34 302.264H212.375C213.232 303.515 214.033 306.088 214.039 308.349C214.033 310.616 213.232 313.182 212.375 314.446H213.34C214.509 312.744 215.157 310.75 215.17 308.349Z" fill="#3D9DFF"/>
<path d="M27.5243 362.013H16.9426V363.334H21.4014V367.119H23.002V363.334H27.5243V362.013ZM18.0096 358.557C18.0033 360.126 19.7182 361.136 22.2017 361.136C24.6851 361.136 26.4191 360.126 26.4191 358.557C26.4191 356.951 24.6851 355.934 22.2017 355.928C19.7182 355.934 18.0033 356.951 18.0096 358.557ZM19.6737 358.557C19.6674 357.7 20.6519 357.23 22.2017 357.224C23.7641 357.23 24.7423 357.7 24.7423 358.557C24.7423 359.383 23.7641 359.847 22.2017 359.853C20.6519 359.847 19.6674 359.383 19.6737 358.557ZM36.9608 355.547H35.3475V367.132H36.9608V355.547ZM27.8781 357.821H31.7272V359.688H27.8908V364.426H28.9325C31.0412 364.426 32.7625 364.356 34.6616 364.02L34.5218 362.711C32.826 362.991 31.3334 363.08 29.5676 363.092V360.971H33.3786V356.512H27.8781V357.821ZM44.4157 356.182H38.0642V357.478H40.4333C40.3571 358.786 39.4615 360.076 37.6196 360.603L38.4326 361.873C39.8045 361.454 40.7572 360.584 41.2781 359.491C41.8052 360.495 42.7262 361.289 44.0473 361.67L44.8603 360.412C43.0565 359.917 42.1736 358.704 42.0974 357.478H44.4157V356.182ZM39.525 366.98H47.2612V362.305H45.6479V363.385H41.1256V362.305H39.525V366.98ZM41.1256 365.684V364.642H45.6479V365.684H41.1256ZM45.6352 361.822H47.2612V355.547H45.6352V361.822Z" fill="#232323"/>
<path d="M52.3291 367.349H65.3371V354.341H52.3291V367.349Z" fill="#232323"/>
<rect x="16.6123" y="377.655" width="371.778" height="11.1497" rx="5.57484" fill="#F4F5F9"/>
<rect x="16.6123" y="377.655" width="257.687" height="11.1497" rx="5.57484" fill="#3D9DFF"/>
<path d="M20.7281 401.324H19.5721L17.2856 402.848V404.004L19.5213 402.518H19.5721V410.521H20.7281V401.324ZM25.5027 401.324H24.3467L22.0601 402.848V404.004L24.2959 402.518H24.3467V410.521H25.5027V401.324ZM27.9271 409.67H26.6949L25.9963 413.125H26.9363L27.9271 409.67ZM31.8633 401.197C29.907 401.178 28.6494 402.569 28.6494 404.284C28.6494 406.056 30.015 407.32 31.66 407.32C32.6382 407.32 33.4829 406.863 34.0101 406.1H34.1371C34.1244 408.336 33.2098 409.632 31.7108 409.632C30.6882 409.632 30.0594 409.022 29.8562 408.196H28.7256C28.9543 409.657 30.0912 410.648 31.7108 410.648C33.864 410.648 35.2042 408.825 35.2042 405.554C35.2042 402.169 33.4448 401.216 31.8633 401.197ZM29.7673 404.271C29.7546 403.134 30.6628 402.2 31.8633 402.2C33.0764 402.2 33.9593 403.191 33.9593 404.246C33.9593 405.325 33.0256 406.316 31.8252 406.316C30.6247 406.316 29.7609 405.408 29.7673 404.271ZM35.8883 410.521H37.0824L41.2871 402.391V401.324H35.2405V402.34H40.1058V402.404L35.8883 410.521ZM44.7406 410.648C46.6587 410.648 48.0053 409.575 48.018 408.082C48.0053 406.894 47.1796 405.91 46.1379 405.745V405.694C47.0398 405.484 47.6496 404.639 47.6623 403.636C47.6496 402.232 46.4174 401.197 44.7406 401.197C43.0574 401.197 41.8252 402.232 41.8316 403.636C41.8252 404.639 42.4286 405.484 43.3432 405.694V405.745C42.2952 405.91 41.4695 406.894 41.4759 408.082C41.4695 409.575 42.8033 410.648 44.7406 410.648ZM42.6192 408.018C42.6001 407.002 43.5084 406.253 44.7406 406.253C45.9791 406.253 46.8747 407.002 46.8747 408.018C46.8747 408.984 46.0553 409.638 44.7406 409.644C43.4194 409.638 42.6001 408.984 42.6192 408.018ZM42.9367 403.725C42.9431 402.804 43.6481 402.181 44.7406 402.188C45.814 402.181 46.5444 402.804 46.5444 403.725C46.5444 404.652 45.7886 405.281 44.7406 405.287C43.6862 405.281 42.9431 404.652 42.9367 403.725ZM49.1213 410.597C49.5723 410.591 49.9407 410.222 49.9343 409.772C49.9407 409.327 49.5723 408.959 49.1213 408.959C48.6767 408.959 48.2956 409.327 48.3083 409.772C48.2956 410.222 48.6767 410.591 49.1213 410.597ZM53.5402 410.648C55.3758 410.648 56.7477 409.53 56.7414 408.018C56.7477 406.85 56.0236 405.992 54.8232 405.808V405.745C55.7886 405.472 56.3984 404.709 56.3857 403.661C56.3984 402.347 55.3313 401.197 53.5783 401.197C51.9459 401.197 50.5867 402.175 50.5295 403.636H51.6347C51.6855 402.734 52.5811 402.194 53.5656 402.188C54.6136 402.194 55.2869 402.804 55.2805 403.725C55.2869 404.671 54.5056 405.3 53.3877 405.3H52.6383V406.304H53.3877C54.8168 406.31 55.6171 407.015 55.6235 408.018C55.6171 408.978 54.7406 409.632 53.5275 409.632C52.4287 409.632 51.5585 409.086 51.495 408.209H50.339C50.3962 409.67 51.7109 410.648 53.5402 410.648ZM59.8119 410.521H60.9043V407.949L61.6348 407.269L64.1944 410.521H65.5791L62.4541 406.577L65.3631 403.623H64.0166L61.0314 406.672H60.9043V401.324H59.8119V410.521ZM67.4446 410.521H68.626L70.6458 403.242H70.722L72.7291 410.521H73.9105L76.4257 401.324H75.2697L73.3515 408.768H73.2753L71.3191 401.324H70.036L68.0925 408.768H68.0035L66.0854 401.324H64.9294L67.4446 410.521ZM77.6688 406.38C77.6688 405.186 78.431 404.512 79.4599 404.512C80.4508 404.512 81.0478 405.129 81.0478 406.215V410.521H82.1403V406.138C82.1403 404.366 81.2002 403.534 79.7902 403.534C78.6977 403.534 78.0816 403.992 77.7577 404.703H77.6688V401.324H76.5763V410.521H77.6688V406.38Z" fill="#232323"/>
<path d="M321.126 409.43H326.875V411.521H329.21V409.43H330.713V407.454H329.21V399.696H326.123L321.126 407.487V409.43ZM323.608 407.454V407.356L326.793 402.391H326.907V407.454H323.608ZM335.761 411.684C338.432 411.684 340.351 410.231 340.334 408.205C340.351 406.727 339.395 405.674 337.656 405.462V405.364C338.979 405.127 339.902 404.188 339.893 402.865C339.902 400.995 338.26 399.533 335.794 399.533C333.369 399.533 331.539 400.946 331.499 402.979H333.85C333.891 402.073 334.749 401.485 335.794 401.493C336.839 401.485 337.533 402.105 337.525 403.012C337.533 403.943 336.717 404.58 335.549 404.58H334.455V406.393H335.549C336.937 406.401 337.795 407.079 337.787 408.042C337.795 408.998 336.954 409.651 335.778 409.659C334.634 409.651 333.777 409.071 333.736 408.189H331.254C331.303 410.255 333.164 411.684 335.761 411.684ZM343.439 410.312H341.12L340.304 414.967H342.035L343.439 410.312ZM348.766 411.684C351.722 411.684 353.518 409.496 353.518 405.609C353.518 401.746 351.714 399.533 348.766 399.533C345.818 399.533 344.013 401.746 344.013 405.609C344.013 409.479 345.801 411.684 348.766 411.684ZM346.528 405.609C346.528 402.906 347.402 401.55 348.766 401.542C350.129 401.55 351.011 402.906 351.003 405.609C351.011 408.336 350.138 409.659 348.766 409.659C347.394 409.659 346.512 408.336 346.528 405.609ZM358.877 411.684C361.834 411.684 363.63 409.496 363.63 405.609C363.63 401.746 361.825 399.533 358.877 399.533C355.929 399.533 354.125 401.746 354.125 405.609C354.125 409.479 355.913 411.684 358.877 411.684ZM356.64 405.609C356.64 402.906 357.514 401.55 358.877 401.542C360.241 401.55 361.123 402.906 361.115 405.609C361.123 408.336 360.249 409.659 358.877 409.659C357.505 409.659 356.623 408.336 356.64 405.609ZM368.989 411.684C371.945 411.684 373.742 409.496 373.742 405.609C373.742 401.746 371.937 399.533 368.989 399.533C366.041 399.533 364.236 401.746 364.236 405.609C364.236 409.479 366.025 411.684 368.989 411.684ZM366.751 405.609C366.751 402.906 367.625 401.55 368.989 401.542C370.353 401.55 371.235 402.906 371.227 405.609C371.235 408.336 370.361 409.659 368.989 409.659C367.617 409.659 366.735 408.336 366.751 405.609ZM386.614 398.177H384.523V406.801H381.681V408.222H384.523V409.398H386.614V398.177ZM373.972 404.759L374.217 406.409C375.344 406.409 376.61 406.401 377.941 406.352V408.32H375.867V412.762H386.94V411.096H377.941V409.055H380.032V406.229C381.232 406.139 382.449 406.001 383.625 405.805L383.51 404.318C380.366 404.702 376.692 404.743 373.972 404.759ZM375.067 401.346C375.067 402.938 376.594 403.967 378.807 403.959C380.963 403.967 382.506 402.938 382.514 401.346C382.506 399.762 380.963 398.675 378.807 398.684C376.594 398.675 375.067 399.762 375.067 401.346ZM377.043 401.346C377.035 400.611 377.745 400.203 378.807 400.203C379.803 400.203 380.522 400.611 380.538 401.346C380.522 402.064 379.803 402.465 378.807 402.456C377.745 402.465 377.035 402.064 377.043 401.346Z" fill="#3D9DFF"/>
<path d="M27.5243 443.745H16.9426V445.066H21.4014V448.852H23.002V445.066H27.5243V443.745ZM18.0096 440.29C18.0033 441.859 19.7182 442.869 22.2017 442.869C24.6851 442.869 26.4191 441.859 26.4191 440.29C26.4191 438.683 24.6851 437.667 22.2017 437.66C19.7182 437.667 18.0033 438.683 18.0096 440.29ZM19.6737 440.29C19.6674 439.432 20.6519 438.962 22.2017 438.956C23.7641 438.962 24.7423 439.432 24.7423 440.29C24.7423 441.116 23.7641 441.579 22.2017 441.586C20.6519 441.579 19.6674 441.116 19.6737 440.29ZM36.9608 437.279H35.3475V448.865H36.9608V437.279ZM27.8781 439.553H31.7272V441.42H27.8908V446.159H28.9325C31.0412 446.159 32.7625 446.089 34.6616 445.752L34.5218 444.444C32.826 444.723 31.3334 444.812 29.5676 444.825V442.704H33.3786V438.245H27.8781V439.553ZM46.7531 437.279H45.1271V445.638H46.7531V441.763H48.3156V440.43H46.7531V437.279ZM38.0261 443.732H39.0042C41.5639 443.732 42.8977 443.663 44.3522 443.364L44.1871 442.068C42.8977 442.341 41.7481 442.411 39.6521 442.424V439.502H43.247V438.207H38.0261V443.732ZM39.2583 448.636H47.1723V447.34H40.8716V444.749H39.2583V448.636ZM52.3788 440.43V439.718H54.7923V438.397H48.263V439.718H50.7146V440.43C50.7146 442.386 49.7238 444.526 47.8056 445.384L48.733 446.667C50.0985 446.038 51.0576 444.768 51.5785 443.25C52.0993 444.647 53.0393 445.797 54.3985 446.375L55.2751 445.104C53.3378 444.298 52.3724 442.297 52.3788 440.43ZM55.9356 448.839H57.5743V437.279H55.9356V448.839Z" fill="#232323"/>
<path d="M63.0693 449.081H76.0773V436.073H63.0693V449.081Z" fill="#232323"/>
<rect x="16.6123" y="459.387" width="371.778" height="11.1497" rx="5.57484" fill="#F4F5F9"/>
<rect x="16.6123" y="459.387" width="232.621" height="11.1497" rx="5.57484" fill="#69BCDE"/>
<path d="M20.7281 483.056H19.5721L17.2856 484.581V485.737L19.5213 484.25H19.5721V492.253H20.7281V483.056ZM25.2613 492.38C27.3001 492.38 28.4752 490.666 28.4752 487.655C28.4752 484.67 27.2811 482.929 25.2613 482.929C23.2351 482.929 22.0411 484.67 22.0474 487.655C22.0411 490.666 23.2224 492.38 25.2613 492.38ZM23.1526 487.655C23.1589 485.273 23.9402 483.927 25.2613 483.92C26.5824 483.927 27.3637 485.273 27.3573 487.655C27.3637 490.037 26.5888 491.364 25.2613 491.364C23.9275 491.364 23.1589 490.037 23.1526 487.655ZM30.1883 491.402H28.9561L28.2574 494.858H29.1974L30.1883 491.402ZM31.2662 492.253H32.4603L36.665 484.123V483.056H30.6184V484.073H35.4836V484.136L31.2662 492.253ZM40.1566 482.929C38.2003 482.91 36.9427 484.301 36.9427 486.016C36.9427 487.788 38.3083 489.052 39.9533 489.052C40.9315 489.052 41.7762 488.595 42.3034 487.833H42.4304C42.4177 490.068 41.5031 491.364 40.0041 491.364C38.9815 491.364 38.3527 490.754 38.1495 489.929H37.0189C37.2476 491.39 38.3845 492.38 40.0041 492.38C42.1573 492.38 43.4975 490.558 43.4975 487.287C43.4975 483.901 41.7381 482.948 40.1566 482.929ZM38.0606 486.003C38.0479 484.867 38.9561 483.933 40.1566 483.933C41.3697 483.933 42.2526 484.924 42.2526 485.978C42.2526 487.058 41.3189 488.049 40.1185 488.049C38.918 488.049 38.0542 487.14 38.0606 486.003ZM47.3193 492.38C49.1549 492.38 50.5268 491.263 50.5205 489.751C50.5268 488.582 49.8027 487.725 48.6023 487.541V487.477C49.5677 487.204 50.1775 486.442 50.1648 485.394C50.1775 484.079 49.1104 482.929 47.3574 482.929C45.7251 482.929 44.3658 483.907 44.3087 485.368H45.4138C45.4646 484.466 46.3602 483.927 47.3447 483.92C48.3927 483.927 49.066 484.536 49.0596 485.457C49.066 486.404 48.2847 487.032 47.1669 487.032H46.4174V488.036H47.1669C48.596 488.042 49.3962 488.747 49.4026 489.751C49.3962 490.71 48.5197 491.364 47.3066 491.364C46.2078 491.364 45.3376 490.818 45.2741 489.941H44.1181C44.1753 491.402 45.49 492.38 47.3193 492.38ZM51.7382 492.33C52.1891 492.323 52.5575 491.955 52.5511 491.504C52.5575 491.059 52.1891 490.691 51.7382 490.691C51.2935 490.691 50.9125 491.059 50.9252 491.504C50.9125 491.955 51.2935 492.323 51.7382 492.33ZM53.3242 492.253H59.2947V491.237H54.9121V491.161L57.0208 488.989C58.6468 487.312 59.1232 486.512 59.1295 485.483C59.1232 484.054 57.9418 482.929 56.2713 482.929C54.6072 482.929 53.3496 484.022 53.3623 485.648H54.4421C54.4484 484.619 55.1344 483.927 56.2332 483.92C57.2685 483.927 58.0561 484.536 58.0625 485.483C58.0561 486.334 57.5353 486.956 56.4492 488.112L53.3115 491.415L53.3242 492.253ZM62.3779 492.253H63.4704V489.681L64.2008 489.001L66.7605 492.253H68.1451L65.0201 488.309L67.9291 485.356H66.5826L63.5974 488.404H63.4704V483.056H62.3779V492.253ZM70.0106 492.253H71.192L73.2118 484.975H73.288L75.2951 492.253H76.4765L78.9917 483.056H77.8357L75.9176 490.5H75.8414L73.8851 483.056H72.6021L70.6585 490.5H70.5696L68.6514 483.056H67.4954L70.0106 492.253ZM80.2348 488.112C80.2348 486.918 80.997 486.245 82.0259 486.245C83.0168 486.245 83.6138 486.861 83.6138 487.947V492.253H84.7063V487.871C84.7063 486.099 83.7663 485.267 82.3562 485.267C81.2638 485.267 80.6477 485.724 80.3237 486.435H80.2348V483.056H79.1423V492.253H80.2348V488.112Z" fill="#232323"/>
<path d="M325.699 491.417C328.369 491.417 330.288 489.963 330.272 487.938C330.288 486.46 329.333 485.406 327.593 485.194V485.096C328.916 484.859 329.839 483.92 329.831 482.597C329.839 480.727 328.198 479.265 325.731 479.265C323.306 479.265 321.477 480.678 321.436 482.711H323.788C323.829 481.805 324.686 481.217 325.731 481.225C326.777 481.217 327.471 481.838 327.463 482.744C327.471 483.675 326.654 484.312 325.486 484.312H324.392V486.125H325.486C326.875 486.133 327.732 486.811 327.724 487.775C327.732 488.73 326.891 489.383 325.715 489.392C324.572 489.383 323.714 488.804 323.673 487.922H321.191C321.24 489.988 323.102 491.417 325.699 491.417ZM335.386 479.265C332.715 479.257 330.911 480.988 330.911 483.365C330.927 485.57 332.495 487.17 334.618 487.17C335.933 487.17 337.101 486.55 337.656 485.504H337.754C337.746 487.864 336.896 489.31 335.288 489.31C334.34 489.31 333.663 488.795 333.458 487.922H331.041C331.278 489.922 332.911 491.417 335.288 491.417C338.26 491.417 340.163 489.049 340.155 485.031C340.155 480.735 337.836 479.273 335.386 479.265ZM333.311 483.299C333.295 482.124 334.193 481.201 335.402 481.193C336.611 481.201 337.493 482.156 337.509 483.283C337.509 484.418 336.586 485.374 335.386 485.374C334.169 485.374 333.311 484.467 333.311 483.299ZM343.047 490.045H340.728L339.912 494.7H341.643L343.047 490.045ZM348.374 491.417C351.33 491.417 353.126 489.228 353.126 485.341C353.126 481.478 351.322 479.265 348.374 479.265C345.426 479.265 343.621 481.478 343.621 485.341C343.621 489.212 345.409 491.417 348.374 491.417ZM346.136 485.341C346.136 482.638 347.01 481.282 348.374 481.274C349.737 481.282 350.619 482.638 350.611 485.341C350.619 488.069 349.746 489.392 348.374 489.392C347.002 489.392 346.12 488.069 346.136 485.341ZM358.485 491.417C361.442 491.417 363.238 489.228 363.238 485.341C363.238 481.478 361.433 479.265 358.485 479.265C355.537 479.265 353.733 481.478 353.733 485.341C353.733 489.212 355.521 491.417 358.485 491.417ZM356.248 485.341C356.248 482.638 357.122 481.282 358.485 481.274C359.849 481.282 360.731 482.638 360.723 485.341C360.731 488.069 359.857 489.392 358.485 489.392C357.113 489.392 356.231 488.069 356.248 485.341ZM368.597 491.417C371.553 491.417 373.35 489.228 373.35 485.341C373.35 481.478 371.545 479.265 368.597 479.265C365.649 479.265 363.844 481.478 363.844 485.341C363.844 489.212 365.633 491.417 368.597 491.417ZM366.359 485.341C366.359 482.638 367.233 481.282 368.597 481.274C369.961 481.282 370.843 482.638 370.835 485.341C370.843 488.069 369.969 489.392 368.597 489.392C367.225 489.392 366.343 488.069 366.359 485.341ZM386.222 477.91H384.131V486.533H381.289V487.954H384.131V489.13H386.222V477.91ZM373.58 484.492L373.825 486.141C374.952 486.141 376.218 486.133 377.549 486.084V488.052H375.475V492.495H386.548V490.829H377.549V488.787H379.64V485.962C380.84 485.872 382.057 485.733 383.233 485.537L383.118 484.051C379.974 484.435 376.3 484.475 373.58 484.492ZM374.675 481.078C374.675 482.671 376.202 483.7 378.415 483.691C380.571 483.7 382.114 482.671 382.122 481.078C382.114 479.494 380.571 478.408 378.415 478.416C376.202 478.408 374.675 479.494 374.675 481.078ZM376.651 481.078C376.643 480.343 377.353 479.935 378.415 479.935C379.411 479.935 380.13 480.343 380.146 481.078C380.13 481.797 379.411 482.197 378.415 482.189C377.353 482.197 376.643 481.797 376.651 481.078Z" fill="#69BCDE"/>
<path d="M35.0674 553.114H17.1709V555.349H24.7119V561.751H27.4189V555.349H35.0674V553.114ZM18.9756 547.271C18.9648 549.924 21.8652 551.632 26.0654 551.632C30.2656 551.632 33.1982 549.924 33.1982 547.271C33.1982 544.553 30.2656 542.834 26.0654 542.823C21.8652 542.834 18.9648 544.553 18.9756 547.271ZM21.79 547.271C21.7793 545.82 23.4443 545.025 26.0654 545.015C28.708 545.025 30.3623 545.82 30.3623 547.271C30.3623 548.667 28.708 549.451 26.0654 549.462C23.4443 549.451 21.7793 548.667 21.79 547.271ZM51.6695 542.179H48.941V561.772H51.6695V542.179ZM36.3082 546.024H42.8179V549.183H36.3296V557.196H38.0914C41.6578 557.196 44.5689 557.078 47.7808 556.509L47.5445 554.296C44.6763 554.769 42.1519 554.919 39.1656 554.94V551.353H45.6109V543.812H36.3082V546.024ZM64.92 543.253H54.1779V545.444H58.1847C58.0558 547.657 56.5411 549.838 53.4259 550.729L54.8009 552.878C57.1212 552.169 58.7325 550.697 59.6134 548.85C60.505 550.547 62.0626 551.89 64.297 552.534L65.672 550.407C62.6212 549.569 61.128 547.518 60.9991 545.444H64.92V543.253ZM56.6486 561.515H69.7325V553.608H67.004V555.435H59.3556V553.608H56.6486V561.515ZM59.3556 559.323V557.562H67.004V559.323H59.3556ZM66.9825 552.792H69.7325V542.179H66.9825V552.792Z" fill="#232323"/>
<path d="M80.4231 543.487H76.7646L82.2306 559.253H86.4335L91.8777 543.487H88.2627L84.4083 555.507H84.2558L80.4231 543.487ZM101.292 547.994H104.428C104.385 545.207 102.087 543.269 98.5922 543.269C95.1406 543.269 92.6145 545.174 92.6253 548.038C92.6253 550.346 94.2586 551.675 96.9154 552.328L98.6357 552.742C100.356 553.166 101.336 553.667 101.336 554.745C101.336 555.921 100.225 556.727 98.5051 556.727C96.7629 556.727 95.4999 555.921 95.391 554.331H92.2116C92.3096 557.718 94.7377 559.482 98.5486 559.471C102.392 559.482 104.635 557.631 104.646 554.745C104.635 552.121 102.621 550.749 99.9205 550.128L98.5051 549.78C97.144 549.475 95.9681 548.963 95.979 547.82C95.9898 546.775 96.9154 546.013 98.5704 546.013C100.171 546.013 101.162 546.742 101.292 547.994Z" fill="#3D9DFF"/>
<path d="M128.501 555.349H120.853V561.751H118.146V555.349H110.604V553.114H128.501V555.349ZM119.499 542.823C120.888 542.823 122.124 543.006 123.205 543.371C124.286 543.736 125.128 544.256 125.729 544.929C126.331 545.602 126.632 546.382 126.632 547.271C126.632 548.144 126.331 548.91 125.729 549.569C125.128 550.228 124.286 550.737 123.205 551.095C122.124 551.453 120.888 551.632 119.499 551.632C118.11 551.632 116.878 551.453 115.804 551.095C114.729 550.737 113.892 550.228 113.29 549.569C112.696 548.91 112.402 548.144 112.409 547.271C112.402 546.382 112.696 545.602 113.29 544.929C113.892 544.256 114.729 543.736 115.804 543.371C116.878 543.006 118.11 542.823 119.499 542.823ZM119.499 545.015C118.625 545.015 117.866 545.104 117.222 545.283C116.577 545.455 116.079 545.713 115.729 546.057C115.385 546.393 115.216 546.798 115.224 547.271C115.216 547.729 115.385 548.123 115.729 548.452C116.079 548.782 116.577 549.032 117.222 549.204C117.866 549.376 118.625 549.462 119.499 549.462C120.38 549.462 121.143 549.376 121.787 549.204C122.432 549.032 122.926 548.782 123.27 548.452C123.62 548.123 123.796 547.729 123.796 547.271C123.796 546.798 123.62 546.393 123.27 546.057C122.926 545.713 122.432 545.455 121.787 545.283C121.143 545.104 120.38 545.015 119.499 545.015ZM145.103 561.772H142.375V542.179H145.103V561.772ZM139.044 551.353H132.599V554.94C134.132 554.933 135.56 554.88 136.885 554.779C138.217 554.679 139.582 554.518 140.978 554.296L141.214 556.509C139.696 556.774 138.185 556.956 136.681 557.057C135.177 557.15 133.459 557.196 131.525 557.196H129.763V549.183H136.252V546.024H129.742V543.812H139.044V551.353ZM164.67 553.565H146.795V551.417H154.401V549.741H148.965V543.038H162.522V545.165H151.693V547.593H162.629V549.741H157.086V551.417H164.67V553.565ZM155.69 554.554C157.1 554.554 158.314 554.693 159.331 554.973C160.348 555.252 161.129 555.664 161.673 556.208C162.217 556.745 162.493 557.397 162.5 558.163C162.493 558.915 162.217 559.56 161.673 560.097C161.129 560.634 160.345 561.042 159.32 561.321C158.304 561.608 157.093 561.751 155.69 561.751C154.272 561.751 153.047 561.608 152.016 561.321C150.992 561.042 150.204 560.634 149.652 560.097C149.108 559.56 148.836 558.915 148.836 558.163C148.836 557.397 149.108 556.745 149.652 556.208C150.197 555.664 150.981 555.252 152.005 554.973C153.036 554.693 154.264 554.554 155.69 554.554ZM155.69 556.638C154.336 556.638 153.319 556.767 152.639 557.024C151.958 557.282 151.622 557.662 151.629 558.163C151.622 558.672 151.955 559.051 152.628 559.302C153.301 559.545 154.322 559.667 155.69 559.667C157.029 559.667 158.039 559.545 158.719 559.302C159.399 559.051 159.743 558.672 159.75 558.163C159.743 557.662 159.396 557.282 158.708 557.024C158.021 556.767 157.014 556.638 155.69 556.638Z" fill="#232323"/>
<path d="M170.918 553.247C170.93 555.648 171.578 557.642 172.747 559.344H173.712C172.855 558.08 172.055 555.514 172.048 553.247C172.055 550.986 172.855 548.413 173.712 547.162H172.747C171.578 548.858 170.93 550.852 170.918 553.247ZM180.062 547.353H174.066V548.178H175.21V551.932C174.689 551.938 174.2 551.938 173.749 551.938L173.876 552.777C175.711 552.783 178.277 552.745 180.481 552.408L180.43 551.646C179.941 551.71 179.427 551.754 178.906 551.792V548.178H180.062V547.353ZM175.553 555.724C175.546 557.013 176.975 557.756 179.338 557.756C181.701 557.756 183.124 557.013 183.124 555.724C183.124 554.435 181.701 553.698 179.338 553.704C176.975 553.698 175.546 554.435 175.553 555.724ZM176.175 551.913V548.178H177.941V551.85C177.35 551.881 176.753 551.9 176.175 551.913ZM176.543 555.724C176.537 554.949 177.598 554.479 179.338 554.479C181.072 554.479 182.133 554.949 182.133 555.724C182.133 556.512 181.072 556.969 179.338 556.969C177.598 556.969 176.537 556.512 176.543 555.724ZM180.176 551.367H182.082V553.463H183.085V546.489H182.082V548.521H180.176V549.347H182.082V550.541H180.176V551.367ZM193.017 547.111H185.345V547.924H192.027V547.962C192.033 548.871 192.033 549.912 191.76 551.341H184.036V552.167H187.466V554.898H188.444V552.167H190.515V554.898H191.48V552.167H194.377V551.341H192.751C193.017 549.931 193.017 548.871 193.017 547.962V547.111ZM185.307 557.541H193.322V556.702H186.298V554.009H185.307V557.541ZM197.17 553.247C197.157 550.852 196.509 548.858 195.34 547.162H194.375C195.232 548.413 196.033 550.986 196.039 553.247C196.033 555.514 195.232 558.08 194.375 559.344H195.34C196.509 557.642 197.157 555.648 197.17 553.247Z" fill="#3D9DFF"/>
<path d="M27.5243 606.911H16.9426V608.232H21.4014V612.017H23.002V608.232H27.5243V606.911ZM18.0096 603.455C18.0033 605.024 19.7182 606.034 22.2017 606.034C24.6851 606.034 26.4191 605.024 26.4191 603.455C26.4191 601.849 24.6851 600.832 22.2017 600.826C19.7182 600.832 18.0033 601.849 18.0096 603.455ZM19.6737 603.455C19.6674 602.598 20.6519 602.128 22.2017 602.122C23.7641 602.128 24.7423 602.598 24.7423 603.455C24.7423 604.281 23.7641 604.745 22.2017 604.751C20.6519 604.745 19.6674 604.281 19.6737 603.455ZM36.9608 600.445H35.3475V612.03H36.9608V600.445ZM27.8781 602.719H31.7272V604.586H27.8908V609.324H28.9325C31.0412 609.324 32.7625 609.254 34.6616 608.918L34.5218 607.609C32.826 607.889 31.3334 607.978 29.5676 607.99V605.869H33.3786V601.41H27.8781V602.719ZM44.4157 601.08H38.0642V602.376H40.4333C40.3571 603.684 39.4615 604.973 37.6196 605.501L38.4326 606.771C39.8045 606.352 40.7572 605.482 41.2781 604.389C41.8052 605.393 42.7262 606.187 44.0473 606.568L44.8603 605.31C43.0565 604.815 42.1736 603.602 42.0974 602.376H44.4157V601.08ZM39.525 611.878H47.2612V607.203H45.6479V608.283H41.1256V607.203H39.525V611.878ZM41.1256 610.582V609.54H45.6479V610.582H41.1256ZM45.6352 606.72H47.2612V600.445H45.6352V606.72Z" fill="#232323"/>
<path d="M52.3291 612.246H65.3371V599.239H52.3291V612.246Z" fill="#232323"/>
<rect x="16.6123" y="622.553" width="371.778" height="11.1497" rx="5.57484" fill="#F4F5F9"/>
<rect x="16.6123" y="622.553" width="257.687" height="11.1497" rx="5.57484" fill="#3D9DFF"/>
<path d="M20.7281 646.222H19.5721L17.2856 647.746V648.902L19.5213 647.416H19.5721V655.419H20.7281V646.222ZM25.5027 646.222H24.3467L22.0601 647.746V648.902L24.2959 647.416H24.3467V655.419H25.5027V646.222ZM27.9271 654.568H26.6949L25.9963 658.023H26.9363L27.9271 654.568ZM31.8633 646.095C29.907 646.076 28.6494 647.467 28.6494 649.182C28.6494 650.954 30.015 652.218 31.66 652.218C32.6382 652.218 33.4829 651.76 34.0101 650.998H34.1371C34.1244 653.234 33.2098 654.53 31.7108 654.53C30.6882 654.53 30.0594 653.92 29.8562 653.094H28.7256C28.9543 654.555 30.0912 655.546 31.7108 655.546C33.864 655.546 35.2042 653.723 35.2042 650.452C35.2042 647.067 33.4448 646.114 31.8633 646.095ZM29.7673 649.169C29.7546 648.032 30.6628 647.098 31.8633 647.098C33.0764 647.098 33.9593 648.089 33.9593 649.144C33.9593 650.223 33.0256 651.214 31.8252 651.214C30.6247 651.214 29.7609 650.306 29.7673 649.169ZM35.8883 655.419H37.0824L41.2871 647.289V646.222H35.2405V647.238H40.1058V647.302L35.8883 655.419ZM44.7406 655.546C46.6587 655.546 48.0053 654.473 48.018 652.98C48.0053 651.792 47.1796 650.808 46.1379 650.643V650.592C47.0398 650.382 47.6496 649.537 47.6623 648.534C47.6496 647.13 46.4174 646.095 44.7406 646.095C43.0574 646.095 41.8252 647.13 41.8316 648.534C41.8252 649.537 42.4286 650.382 43.3432 650.592V650.643C42.2952 650.808 41.4695 651.792 41.4759 652.98C41.4695 654.473 42.8033 655.546 44.7406 655.546ZM42.6192 652.916C42.6001 651.9 43.5084 651.151 44.7406 651.151C45.9791 651.151 46.8747 651.9 46.8747 652.916C46.8747 653.882 46.0553 654.536 44.7406 654.542C43.4194 654.536 42.6001 653.882 42.6192 652.916ZM42.9367 648.623C42.9431 647.702 43.6481 647.079 44.7406 647.086C45.814 647.079 46.5444 647.702 46.5444 648.623C46.5444 649.55 45.7886 650.179 44.7406 650.185C43.6862 650.179 42.9431 649.55 42.9367 648.623ZM49.1213 655.495C49.5723 655.489 49.9407 655.12 49.9343 654.669C49.9407 654.225 49.5723 653.856 49.1213 653.856C48.6767 653.856 48.2956 654.225 48.3083 654.669C48.2956 655.12 48.6767 655.489 49.1213 655.495ZM53.5402 655.546C55.3758 655.546 56.7477 654.428 56.7414 652.916C56.7477 651.748 56.0236 650.89 54.8232 650.706V650.643C55.7886 650.369 56.3984 649.607 56.3857 648.559C56.3984 647.245 55.3313 646.095 53.5783 646.095C51.9459 646.095 50.5867 647.073 50.5295 648.534H51.6347C51.6855 647.632 52.5811 647.092 53.5656 647.086C54.6136 647.092 55.2869 647.702 55.2805 648.623C55.2869 649.569 54.5056 650.198 53.3877 650.198H52.6383V651.202H53.3877C54.8168 651.208 55.6171 651.913 55.6235 652.916C55.6171 653.876 54.7406 654.53 53.5275 654.53C52.4287 654.53 51.5585 653.983 51.495 653.107H50.339C50.3962 654.568 51.7109 655.546 53.5402 655.546ZM59.8119 655.419H60.9043V652.847L61.6348 652.167L64.1944 655.419H65.5791L62.4541 651.475L65.3631 648.521H64.0166L61.0314 651.57H60.9043V646.222H59.8119V655.419ZM67.4446 655.419H68.626L70.6458 648.14H70.722L72.7291 655.419H73.9105L76.4257 646.222H75.2697L73.3515 653.666H73.2753L71.3191 646.222H70.036L68.0925 653.666H68.0035L66.0854 646.222H64.9294L67.4446 655.419ZM77.6688 651.278C77.6688 650.084 78.431 649.41 79.4599 649.41C80.4508 649.41 81.0478 650.026 81.0478 651.113V655.419H82.1403V651.036C82.1403 649.264 81.2002 648.432 79.7902 648.432C78.6977 648.432 78.0816 648.89 77.7577 649.601H77.6688V646.222H76.5763V655.419H77.6688V651.278Z" fill="#232323"/>
<path d="M321.126 654.328H326.875V656.419H329.21V654.328H330.713V652.352H329.21V644.594H326.123L321.126 652.385V654.328ZM323.608 652.352V652.254L326.793 647.289H326.907V652.352H323.608ZM335.761 656.582C338.432 656.582 340.351 655.129 340.334 653.103C340.351 651.625 339.395 650.572 337.656 650.36V650.262C338.979 650.025 339.902 649.086 339.893 647.763C339.902 645.893 338.26 644.431 335.794 644.431C333.369 644.431 331.539 645.844 331.499 647.877H333.85C333.891 646.971 334.749 646.383 335.794 646.391C336.839 646.383 337.533 647.003 337.525 647.91C337.533 648.841 336.717 649.478 335.549 649.478H334.455V651.291H335.549C336.937 651.299 337.795 651.976 337.787 652.94C337.795 653.896 336.954 654.549 335.778 654.557C334.634 654.549 333.777 653.969 333.736 653.087H331.254C331.303 655.153 333.164 656.582 335.761 656.582ZM343.439 655.21H341.12L340.304 659.865H342.035L343.439 655.21ZM348.766 656.582C351.722 656.582 353.518 654.394 353.518 650.507C353.518 646.644 351.714 644.431 348.766 644.431C345.818 644.431 344.013 646.644 344.013 650.507C344.013 654.377 345.801 656.582 348.766 656.582ZM346.528 650.507C346.528 647.804 347.402 646.448 348.766 646.44C350.129 646.448 351.011 647.804 351.003 650.507C351.011 653.234 350.138 654.557 348.766 654.557C347.394 654.557 346.512 653.234 346.528 650.507ZM358.877 656.582C361.834 656.582 363.63 654.394 363.63 650.507C363.63 646.644 361.825 644.431 358.877 644.431C355.929 644.431 354.125 646.644 354.125 650.507C354.125 654.377 355.913 656.582 358.877 656.582ZM356.64 650.507C356.64 647.804 357.514 646.448 358.877 646.44C360.241 646.448 361.123 647.804 361.115 650.507C361.123 653.234 360.249 654.557 358.877 654.557C357.505 654.557 356.623 653.234 356.64 650.507ZM368.989 656.582C371.945 656.582 373.742 654.394 373.742 650.507C373.742 646.644 371.937 644.431 368.989 644.431C366.041 644.431 364.236 646.644 364.236 650.507C364.236 654.377 366.025 656.582 368.989 656.582ZM366.751 650.507C366.751 647.804 367.625 646.448 368.989 646.44C370.353 646.448 371.235 647.804 371.227 650.507C371.235 653.234 370.361 654.557 368.989 654.557C367.617 654.557 366.735 653.234 366.751 650.507ZM386.614 643.075H384.523V651.699H381.681V653.12H384.523V654.296H386.614V643.075ZM373.972 649.657L374.217 651.307C375.344 651.307 376.61 651.299 377.941 651.25V653.218H375.867V657.66H386.94V655.994H377.941V653.953H380.032V651.127C381.232 651.037 382.449 650.899 383.625 650.703L383.51 649.216C380.366 649.6 376.692 649.641 373.972 649.657ZM375.067 646.244C375.067 647.836 376.594 648.865 378.807 648.857C380.963 648.865 382.506 647.836 382.514 646.244C382.506 644.66 380.963 643.573 378.807 643.582C376.594 643.573 375.067 644.66 375.067 646.244ZM377.043 646.244C377.035 645.509 377.745 645.1 378.807 645.1C379.803 645.1 380.522 645.509 380.538 646.244C380.522 646.962 379.803 647.363 378.807 647.354C377.745 647.363 377.035 646.962 377.043 646.244Z" fill="#3D9DFF"/>
<path d="M27.5243 688.643H16.9426V689.964H21.4014V693.75H23.002V689.964H27.5243V688.643ZM18.0096 685.188C18.0033 686.757 19.7182 687.767 22.2017 687.767C24.6851 687.767 26.4191 686.757 26.4191 685.188C26.4191 683.581 24.6851 682.565 22.2017 682.558C19.7182 682.565 18.0033 683.581 18.0096 685.188ZM19.6737 685.188C19.6674 684.33 20.6519 683.86 22.2017 683.854C23.7641 683.86 24.7423 684.33 24.7423 685.188C24.7423 686.014 23.7641 686.477 22.2017 686.484C20.6519 686.477 19.6674 686.014 19.6737 685.188ZM36.9608 682.177H35.3475V693.762H36.9608V682.177ZM27.8781 684.451H31.7272V686.318H27.8908V691.057H28.9325C31.0412 691.057 32.7625 690.987 34.6616 690.65L34.5218 689.342C32.826 689.621 31.3334 689.71 29.5676 689.723V687.601H33.3786V683.143H27.8781V684.451ZM48.1504 687.64H43.6662V686.649H46.9436V685.378H40.4778V683.943H46.8801V682.685H38.8645V686.649H42.0784V687.64H37.5815V688.91H48.1504V687.64ZM38.7883 691.628C38.7883 692.981 40.3126 693.75 42.8405 693.75C45.3494 693.75 46.8547 692.981 46.8674 691.628C46.8547 690.256 45.3494 689.494 42.8405 689.494C40.3126 689.494 38.7883 690.256 38.7883 691.628ZM40.4397 691.628C40.4333 691.031 41.24 690.726 42.8405 690.726C44.4094 690.726 45.2351 691.031 45.2414 691.628C45.2351 692.232 44.4094 692.518 42.8405 692.518C41.24 692.518 40.4333 692.232 40.4397 691.628Z" fill="#232323"/>
<path d="M52.3291 694.479H65.3371V681.471H52.3291V694.479Z" fill="black"/>
<rect x="16.6123" y="704.285" width="371.778" height="11.1497" rx="5.57484" fill="#F4F5F9"/>
<rect x="16.6123" y="704.285" width="295.969" height="11.1497" rx="5.57484" fill="#69BCDE"/>
<path d="M20.7281 727.954H19.5721L17.2856 729.479V730.635L19.5213 729.148H19.5721V737.151H20.7281V727.954ZM25.2613 737.278C27.3001 737.278 28.4752 735.563 28.4752 732.553C28.4752 729.568 27.2811 727.827 25.2613 727.827C23.2351 727.827 22.0411 729.568 22.0474 732.553C22.0411 735.563 23.2224 737.278 25.2613 737.278ZM23.1526 732.553C23.1589 730.171 23.9402 728.824 25.2613 728.818C26.5824 728.824 27.3637 730.171 27.3573 732.553C27.3637 734.935 26.5888 736.262 25.2613 736.262C23.9275 736.262 23.1589 734.935 23.1526 732.553ZM30.1883 736.3H28.9561L28.2574 739.755H29.1974L30.1883 736.3ZM31.2662 737.151H32.4603L36.665 729.021V727.954H30.6184V728.971H35.4836V729.034L31.2662 737.151ZM40.1566 727.827C38.2003 727.808 36.9427 729.199 36.9427 730.914C36.9427 732.686 38.3083 733.95 39.9533 733.95C40.9315 733.95 41.7762 733.493 42.3034 732.731H42.4304C42.4177 734.966 41.5031 736.262 40.0041 736.262C38.9815 736.262 38.3527 735.652 38.1495 734.827H37.0189C37.2476 736.288 38.3845 737.278 40.0041 737.278C42.1573 737.278 43.4975 735.456 43.4975 732.184C43.4975 728.799 41.7381 727.846 40.1566 727.827ZM38.0606 730.901C38.0479 729.765 38.9561 728.831 40.1566 728.831C41.3697 728.831 42.2526 729.822 42.2526 730.876C42.2526 731.956 41.3189 732.947 40.1185 732.947C38.918 732.947 38.0542 732.038 38.0606 730.901ZM47.3193 737.278C49.1549 737.278 50.5268 736.161 50.5205 734.649C50.5268 733.48 49.8027 732.623 48.6023 732.439V732.375C49.5677 732.102 50.1775 731.34 50.1648 730.292C50.1775 728.977 49.1104 727.827 47.3574 727.827C45.7251 727.827 44.3658 728.805 44.3087 730.266H45.4138C45.4646 729.364 46.3602 728.824 47.3447 728.818C48.3927 728.824 49.066 729.434 49.0596 730.355C49.066 731.302 48.2847 731.93 47.1669 731.93H46.4174V732.934H47.1669C48.596 732.94 49.3962 733.645 49.4026 734.649C49.3962 735.608 48.5197 736.262 47.3066 736.262C46.2078 736.262 45.3376 735.716 45.2741 734.839H44.1181C44.1753 736.3 45.49 737.278 47.3193 737.278ZM51.7382 737.228C52.1891 737.221 52.5575 736.853 52.5511 736.402C52.5575 735.957 52.1891 735.589 51.7382 735.589C51.2935 735.589 50.9125 735.957 50.9252 736.402C50.9125 736.853 51.2935 737.221 51.7382 737.228ZM53.3242 737.151H59.2947V736.135H54.9121V736.059L57.0208 733.887C58.6468 732.21 59.1232 731.41 59.1295 730.381C59.1232 728.952 57.9418 727.827 56.2713 727.827C54.6072 727.827 53.3496 728.92 53.3623 730.546H54.4421C54.4484 729.517 55.1344 728.824 56.2332 728.818C57.2685 728.824 58.0561 729.434 58.0625 730.381C58.0561 731.232 57.5353 731.854 56.4492 733.01L53.3115 736.313L53.3242 737.151ZM62.3779 737.151H63.4704V734.579L64.2008 733.899L66.7605 737.151H68.1451L65.0201 733.207L67.9291 730.254H66.5826L63.5974 733.302H63.4704V727.954H62.3779V737.151ZM70.0106 737.151H71.192L73.2118 729.872H73.288L75.2951 737.151H76.4765L78.9917 727.954H77.8357L75.9176 735.398H75.8414L73.8851 727.954H72.6021L70.6585 735.398H70.5696L68.6514 727.954H67.4954L70.0106 737.151ZM80.2348 733.01C80.2348 731.816 80.997 731.143 82.0259 731.143C83.0168 731.143 83.6138 731.759 83.6138 732.845V737.151H84.7063V732.769C84.7063 730.997 83.7663 730.165 82.3562 730.165C81.2638 730.165 80.6477 730.622 80.3237 731.333H80.2348V727.954H79.1423V737.151H80.2348V733.01Z" fill="#232323"/>
<path d="M324.126 732.117L329.123 724.327H332.21V732.085H333.713V734.061H332.21V736.151H329.875V734.061H324.126V732.117ZM329.907 732.085V727.021H329.793L326.608 731.987V732.085H329.907ZM339.317 736.151H336.85V726.662H336.785L334.074 728.361V726.189L336.997 724.327H339.317V736.151ZM341.736 739.598H340.004L340.821 734.943H343.14L341.736 739.598ZM344.351 734.371L348.597 730.468C349.016 730.065 349.34 729.73 349.569 729.463C349.803 729.196 349.983 728.932 350.108 728.671C350.233 728.404 350.296 728.121 350.296 727.822C350.296 727.479 350.214 727.179 350.051 726.923C349.893 726.668 349.67 726.472 349.381 726.336C349.098 726.194 348.777 726.123 348.418 726.123C347.862 726.123 347.419 726.289 347.086 726.621C346.754 726.948 346.588 727.392 346.588 727.952H344.253C344.247 727.19 344.419 726.523 344.767 725.952C345.121 725.38 345.616 724.939 346.253 724.629C346.89 724.318 347.623 724.163 348.45 724.163C349.283 724.163 350.018 724.313 350.655 724.612C351.292 724.906 351.785 725.317 352.133 725.846C352.487 726.374 352.664 726.978 352.664 727.658C352.664 728.121 352.574 728.568 352.394 728.998C352.215 729.422 351.902 729.899 351.455 730.427C351.014 730.949 350.388 731.578 349.577 732.313L347.781 734.061V734.126H352.827V736.151H344.367L344.351 734.371ZM358.235 736.315C357.25 736.315 356.401 736.078 355.687 735.604C354.98 735.125 354.435 734.431 354.054 733.522C353.673 732.613 353.482 731.518 353.482 730.239C353.482 728.96 353.673 727.865 354.054 726.956C354.435 726.047 354.98 725.356 355.687 724.882C356.401 724.403 357.25 724.163 358.235 724.163C359.215 724.163 360.062 724.403 360.775 724.882C361.488 725.356 362.035 726.05 362.416 726.964C362.797 727.873 362.988 728.965 362.988 730.239C362.988 731.524 362.797 732.621 362.416 733.53C362.035 734.439 361.488 735.131 360.775 735.604C360.067 736.078 359.221 736.315 358.235 736.315ZM358.235 734.289C358.693 734.289 359.087 734.142 359.419 733.848C359.757 733.554 360.015 733.111 360.195 732.517C360.38 731.924 360.473 731.192 360.473 730.321C360.473 728.965 360.277 727.936 359.885 727.234C359.493 726.526 358.943 726.172 358.235 726.172C357.527 726.172 356.978 726.526 356.586 727.234C356.194 727.936 355.998 728.965 355.998 730.321C355.998 731.192 356.087 731.924 356.267 732.517C356.452 733.111 356.711 733.554 357.043 733.848C357.38 734.142 357.778 734.289 358.235 734.289ZM368.347 736.315C367.361 736.315 366.512 736.078 365.799 735.604C365.091 735.125 364.547 734.431 364.166 733.522C363.785 732.613 363.594 731.518 363.594 730.239C363.594 728.96 363.785 727.865 364.166 726.956C364.547 726.047 365.091 725.356 365.799 724.882C366.512 724.403 367.361 724.163 368.347 724.163C369.327 724.163 370.173 724.403 370.887 724.882C371.6 725.356 372.147 726.05 372.528 726.964C372.909 727.873 373.1 728.965 373.1 730.239C373.1 731.524 372.909 732.621 372.528 733.53C372.147 734.439 371.6 735.131 370.887 735.604C370.179 736.078 369.332 736.315 368.347 736.315ZM368.347 734.289C368.804 734.289 369.199 734.142 369.531 733.848C369.868 733.554 370.127 733.111 370.307 732.517C370.492 731.924 370.584 731.192 370.584 730.321C370.584 728.965 370.388 727.936 369.996 727.234C369.604 726.526 369.055 726.172 368.347 726.172C367.639 726.172 367.089 726.526 366.697 727.234C366.305 727.936 366.109 728.965 366.109 730.321C366.109 731.192 366.199 731.924 366.379 732.517C366.564 733.111 366.822 733.554 367.155 733.848C367.492 734.142 367.89 734.289 368.347 734.289ZM385.971 734.028H383.881V732.852H381.039V731.431H383.881V722.808H385.971V734.028ZM386.298 737.393H375.225V732.95H377.299V730.974C376.286 731.018 375.045 731.039 373.575 731.039L373.33 729.39C375.246 729.379 376.97 729.346 378.499 729.292C380.029 729.237 381.485 729.123 382.868 728.949L382.983 730.435C381.85 730.626 380.653 730.767 379.389 730.86V733.685H377.299V735.727H386.298V737.393ZM378.165 723.314C378.878 723.309 379.515 723.417 380.075 723.641C380.636 723.864 381.074 724.18 381.39 724.588C381.711 724.991 381.872 725.454 381.872 725.976C381.872 726.493 381.714 726.951 381.398 727.348C381.083 727.746 380.642 728.053 380.075 728.271C379.515 728.483 378.878 728.589 378.165 728.589C377.435 728.589 376.787 728.483 376.221 728.271C375.655 728.053 375.214 727.748 374.898 727.356C374.582 726.959 374.424 726.499 374.424 725.976C374.424 725.454 374.58 724.991 374.89 724.588C375.206 724.18 375.647 723.864 376.213 723.641C376.784 723.417 377.435 723.309 378.165 723.314ZM378.165 724.833C377.626 724.833 377.195 724.934 376.874 725.135C376.553 725.337 376.395 725.617 376.401 725.976C376.395 726.33 376.55 726.605 376.866 726.801C377.187 726.992 377.62 727.087 378.165 727.087C378.676 727.087 379.09 726.989 379.406 726.793C379.727 726.597 379.89 726.325 379.896 725.976C379.89 725.617 379.727 725.337 379.406 725.135C379.09 724.934 378.676 724.833 378.165 724.833Z" fill="#69BCDE"/>
<rect x="31.1582" y="68.1123" width="3.57442" height="11.9147" fill="#232323"/>
<rect x="41.2871" y="76.4512" width="3.57442" height="9.53177" transform="rotate(90 41.2871 76.4512)" fill="#232323"/>
<rect x="68.0938" y="76.4512" width="3.57442" height="13.1062" transform="rotate(90 68.0938 76.4512)" fill="#232323"/>
<rect x="63.3281" y="90.1533" width="3.57442" height="12.5105" transform="rotate(-180 63.3281 90.1533)" fill="#232323"/>
<path d="M31.1618 68.1137L34.1366 71.0909L24.0091 83.0057L21.0308 80.0273L31.1618 68.1137Z" fill="#575556" fill-opacity="0.5"/>
<rect x="31.1572" y="80.0259" width="3.57442" height="10.1275" transform="rotate(90 31.1572 80.0259)" fill="#232323"/>
<path d="M34.7344 90.1533L31.16 90.1533L31.16 80.0258V80.0258C33.1341 80.0258 34.7344 81.6261 34.7344 83.6002L34.7344 90.1533Z" fill="#232323"/>
<path d="M37.7139 88.3668H40.2373C41.4498 88.3668 42.5796 87.7521 43.2383 86.7342L47.6786 79.8719C48.3373 78.8539 49.4671 78.2393 50.6796 78.2393H53.5009" stroke="#232323" stroke-width="3.57442"/>
<rect x="72.2656" y="83.5996" width="1.19147" height="8.93604" transform="rotate(-90 72.2656 83.5996)" fill="#232323"/>
<rect x="81.2422" y="90.1533" width="1.19147" height="13.7019" transform="rotate(-180 81.2422 90.1533)" fill="#232323"/>
<rect x="73.4551" y="90.1724" width="1.19147" height="13.7019" transform="rotate(-180 73.4551 90.1724)" fill="#232323"/>
<path d="M92.5611 83.3021C92.5611 86.901 90.2996 89.5574 87.7952 89.5574C85.2908 89.5574 83.0293 86.901 83.0293 83.3021C83.0293 79.7032 85.2908 77.0469 87.7952 77.0469C90.2996 77.0469 92.5611 79.7032 92.5611 83.3021Z" stroke="#232323" stroke-width="1.19147"/>
<path d="M99.7127 88.9619L98.5212 88.9619L102.691 76.4515L103.883 76.4515L99.7127 88.9619Z" fill="#232323"/>
<path d="M99.7139 88.9619L98.5224 88.9619L94.3522 76.4515L95.5437 76.4515L99.7139 88.9619Z" fill="#232323"/>
<rect x="103.883" y="90.1533" width="1.19147" height="13.7019" transform="rotate(-180 103.883 90.1533)" fill="#232323"/>
<rect x="95.54" y="90.1533" width="1.19147" height="13.7019" transform="rotate(-180 95.54 90.1533)" fill="#232323"/>
<path fill-rule="evenodd" clip-rule="evenodd" d="M105.074 90.1531H106.861V90.153H112.692V88.9615L106.861 88.9615L106.861 84.1957H111.501V83.0042H106.861L106.861 77.6429L112.819 77.6429V76.4514L106.861 76.4514V76.4512C105.874 76.4512 105.074 77.2513 105.074 78.2384V90.1531Z" fill="#232323"/>
<path d="M123.501 77.6431L122.21 76.3523L122.21 72.48L123.501 71.1893L124.792 72.48L124.792 76.3523L123.501 77.6431Z" fill="#DC8772"/>
<path d="M123.502 69.8003L122.211 68.5095L122.211 64.6372L123.502 63.3465L124.793 64.6372L124.793 68.5095L123.502 69.8003Z" fill="#86A6D9"/>
<path d="M124.196 70.4944L125.487 69.2036L129.359 69.2036L130.65 70.4944L129.359 71.7852L125.487 71.7852L124.196 70.4944Z" fill="#F5C851"/>
<path d="M116.352 70.4944L117.642 69.2036L121.515 69.2036L122.805 70.4944L121.515 71.7852L117.642 71.7852L116.352 70.4944Z" fill="#87D5D7"/>
<path d="M364.539 72.2373C364.098 72.2373 363.676 72.4031 363.364 72.6983C363.053 72.9935 362.878 73.3938 362.878 73.8113C362.878 73.879 362.894 73.9435 362.903 74.008C360.031 74.7029 357.893 77.1741 357.893 80.1072V87.1901C357.893 87.6355 357.532 87.9771 357.062 87.9771H356.231V89.5511H362.203C362.103 89.8028 362.05 90.0691 362.047 90.3381C362.047 91.6326 363.173 92.699 364.539 92.699C365.906 92.699 367.031 91.6326 367.031 90.3381C367.028 90.0691 366.975 89.8028 366.875 89.5511H372.847V87.9771H372.016C371.546 87.9771 371.185 87.6355 371.185 87.1901V80.3283C371.185 77.3708 369.098 74.7328 366.175 74.008C366.184 73.9435 366.201 73.879 366.201 73.8113C366.201 73.3938 366.026 72.9935 365.714 72.6983C365.402 72.4031 364.98 72.2373 364.539 72.2373V72.2373ZM364.175 75.3853C364.296 75.3758 364.416 75.3853 364.539 75.3853H364.695C367.408 75.4624 369.524 77.7147 369.524 80.3283V87.1901C369.524 87.4671 369.585 87.7284 369.68 87.9771H359.399C359.499 87.7253 359.551 87.459 359.555 87.1901V80.1072C359.552 78.9125 360.028 77.7613 360.885 76.8852C361.742 76.0091 362.918 75.4732 364.176 75.3853H364.175ZM364.539 89.5511C365.007 89.5511 365.37 89.8958 365.37 90.3381C365.37 90.7811 365.006 91.125 364.539 91.125C364.071 91.125 363.708 90.7803 363.708 90.3381C363.708 89.895 364.072 89.5511 364.539 89.5511Z" fill="#232323"/>
<rect x="366.539" y="67.2246" width="16.6154" height="16.6154" rx="8.30769" fill="#DD8382"/>
<path d="M371.996 79.5322V78.7209L374.541 76.1552C375.342 75.3135 375.748 74.847 375.748 74.2081C375.748 73.4881 375.16 73.0216 374.389 73.0216C373.578 73.0216 373.05 73.5388 373.05 74.3196H371.996C371.986 72.981 373.01 72.0886 374.409 72.0886C375.829 72.0886 376.803 72.981 376.813 74.1777C376.803 74.9991 376.417 75.6481 375.038 77.0071L373.547 78.5181V78.579H376.934V79.5322H371.996Z" fill="white"/>
</g>
<defs>
<clipPath id="clip0_654_7317">
<rect width="405" height="876.462" rx="24.9231" fill="white"/>
</clipPath>
<clipPath id="clip1_654_7317">
<rect width="20.7641" height="14.5349" fill="white" transform="translate(301.079 18.687)"/>
</clipPath>
</defs>
</svg>
