<svg width="405" height="877" viewBox="0 0 405 877" fill="none" xmlns="http://www.w3.org/2000/svg">
<g clip-path="url(#clip0_401_20823)">
<rect width="405" height="876.462" rx="31.1538" fill="white"/>
<rect y="154.249" width="402.934" height="621.964" fill="#FEFEFE"/>
<circle cx="280.767" cy="549.25" r="6.75" fill="#3D9DFF"/>
<path d="M302.475 542.968V544.005C302.475 545.013 302.475 546.134 302.177 547.611H303.88V549.073H292.054V547.611H300.345C300.629 546.319 300.665 545.318 300.672 544.417H293.502V542.968H302.475ZM302.432 550.436V555.164H293.459V550.436H302.432ZM295.234 551.856V553.716H300.629V551.856H295.234ZM307.396 542.77C309.355 542.77 310.846 543.991 310.846 545.723C310.846 547.426 309.355 548.662 307.396 548.662C305.394 548.662 303.917 547.426 303.917 545.723C303.917 543.991 305.394 542.77 307.396 542.77ZM307.396 544.246C306.402 544.246 305.663 544.786 305.678 545.723C305.663 546.646 306.402 547.199 307.396 547.199C308.375 547.199 309.099 546.646 309.099 545.723C309.099 544.786 308.375 544.246 307.396 544.246ZM314.537 542.386V548.86H312.72V542.386H314.537ZM314.537 549.4V552.907H307.665V553.744H314.892V555.164H305.891V551.586H312.734V550.791H305.862V549.4H314.537Z" fill="#485760"/>
<circle cx="335.882" cy="549.25" r="6.75" fill="#D8DBE0"/>
<path d="M358.059 542.4V551.828H356.256V547.199H354.14V545.737H356.256V542.4H358.059ZM358.371 553.631V555.079H349.483V551.004H351.301V553.631H358.371ZM352.053 544.928C352.053 546.418 352.962 548.023 355.02 548.69L354.126 550.124C352.692 549.663 351.712 548.718 351.144 547.54C350.576 548.846 349.547 549.883 348.021 550.394L347.098 548.917C349.228 548.25 350.193 546.56 350.207 544.913V544.715H347.609V543.267H354.623V544.715H352.053V544.928ZM362.511 542.77C364.47 542.77 365.961 543.991 365.961 545.723C365.961 547.426 364.47 548.662 362.511 548.662C360.509 548.662 359.032 547.426 359.032 545.723C359.032 543.991 360.509 542.77 362.511 542.77ZM362.511 544.246C361.517 544.246 360.779 544.786 360.793 545.723C360.779 546.646 361.517 547.199 362.511 547.199C363.49 547.199 364.215 546.646 364.215 545.723C364.215 544.786 363.49 544.246 362.511 544.246ZM369.652 542.386V548.86H367.835V542.386H369.652ZM369.652 549.4V552.907H362.781V553.744H370.007V555.164H361.006V551.586H367.849V550.791H360.977V549.4H369.652Z" fill="#485760"/>
<path d="M32.2873 593.501C30.7539 593.477 29.0746 592.576 29.0746 589.315C29.0746 586.199 30.3524 584.447 32.4212 584.447C33.9667 584.447 35.0498 585.396 35.281 586.783H34.1979C33.991 586.004 33.4069 585.42 32.4212 585.42C30.973 585.42 30.109 586.662 30.109 588.779H30.2185C30.7296 588.049 31.5328 587.611 32.482 587.611C34.0519 587.611 35.354 588.828 35.354 590.531C35.354 592.187 34.1371 593.513 32.2873 593.501ZM32.2873 592.539C33.4312 592.539 34.2831 591.639 34.2953 590.544C34.2831 589.461 33.4677 588.572 32.3116 588.572C31.1555 588.572 30.2672 589.509 30.255 590.556C30.255 591.59 31.1069 592.539 32.2873 592.539ZM39.2807 586.455C39.2685 588.426 40.6193 590.422 42.2135 591.14L41.6294 591.894C40.4003 591.292 39.3354 590.02 38.8182 588.475C38.3132 590.112 37.2484 591.475 35.9828 592.114L35.3743 591.31C36.9807 590.568 38.3193 588.511 38.3315 586.455V584.483H39.2807V586.455ZM44.3554 583.546V594.389H43.394V583.546H44.3554Z" fill="#485760"/>
<rect x="63.0083" y="581.071" width="147.462" height="8.30769" fill="#1E7EDE"/>
<rect x="63.0083" y="589.379" width="162" height="8.30769" fill="url(#paint0_linear_401_20823)"/>
<path d="M29.5005 622.456L33.5408 614.68V614.619H28.8798V613.645H34.6725V614.667L30.6444 622.456H29.5005ZM38.514 615.532C38.5018 617.503 39.8527 619.499 41.4469 620.217L40.8627 620.971C39.6336 620.369 38.5688 619.097 38.0516 617.552C37.5465 619.188 36.4817 620.551 35.2161 621.19L34.6076 620.387C36.214 619.645 37.5526 617.588 37.5648 615.532V613.56H38.514V615.532ZM43.5887 612.623V623.466H42.6273V612.623H43.5887Z" fill="#485760"/>
<rect x="63.0469" y="610.148" width="93.4615" height="8.30769" fill="#1E7EDE"/>
<rect x="63.0469" y="618.456" width="116.308" height="8.30769" fill="url(#paint1_linear_401_20823)"/>
<path d="M32.1656 651.501C30.3158 651.501 29.0259 650.478 29.038 649.042C29.0259 647.898 29.8169 646.961 30.827 646.803V646.755C29.9508 646.548 29.3788 645.744 29.3788 644.783C29.3788 643.432 30.5592 642.447 32.1656 642.447C33.772 642.447 34.9524 643.432 34.9646 644.783C34.9524 645.744 34.3683 646.548 33.5042 646.755V646.803C34.5021 646.961 35.2932 647.898 35.3053 649.042C35.2932 650.478 34.0032 651.501 32.1656 651.501ZM32.1656 650.539C33.4312 650.539 34.2101 649.906 34.2101 648.982C34.2101 648.008 33.346 647.29 32.1656 647.29C30.9852 647.29 30.109 648.008 30.1333 648.982C30.109 649.906 30.9 650.539 32.1656 650.539ZM32.1656 646.365C33.1635 646.365 33.8937 645.757 33.8937 644.868C33.8937 643.992 33.2 643.396 32.1656 643.396C31.119 643.396 30.4375 643.992 30.4375 644.868C30.4375 645.757 31.1555 646.365 32.1656 646.365ZM39.1955 644.454C39.1833 646.426 40.5341 648.422 42.1283 649.14L41.5442 649.894C40.3151 649.292 39.2503 648.02 38.7331 646.475C38.228 648.111 37.1632 649.474 35.8976 650.113L35.2891 649.31C36.8955 648.568 38.2341 646.511 38.2463 644.454V642.483H39.1955V644.454ZM44.2702 641.546V652.389H43.3088V641.546H44.2702Z" fill="#485760"/>
<rect x="63.0083" y="639.225" width="201.519" height="8.30769" fill="#1E7EDE"/>
<rect x="63.0083" y="647.533" width="225" height="8" fill="url(#paint2_linear_401_20823)"/>
<path d="M32.1534 671.716C33.6746 671.728 35.354 672.641 35.354 675.89C35.354 679.018 34.0762 680.77 32.0074 680.77C30.4619 680.77 29.3666 679.821 29.1476 678.421H30.2307C30.4254 679.212 31.0217 679.796 32.0074 679.796C33.4434 679.796 34.3196 678.555 34.3318 676.413H34.2101C33.699 677.144 32.8958 677.582 31.9587 677.582C30.3767 677.582 29.0746 676.377 29.0746 674.673C29.0746 673.03 30.2793 671.704 32.1534 671.716ZM32.1534 672.677C30.9973 672.677 30.1333 673.578 30.1455 674.661C30.1455 675.756 30.9608 676.62 32.1169 676.62C33.2609 676.62 34.1614 675.671 34.1614 674.637C34.1614 673.627 33.3217 672.677 32.1534 672.677ZM39.2807 673.724C39.2685 675.695 40.6193 677.691 42.2135 678.409L41.6294 679.164C40.4003 678.561 39.3354 677.29 38.8182 675.744C38.3132 677.381 37.2484 678.744 35.9828 679.383L35.3743 678.58C36.9807 677.837 38.3193 675.781 38.3315 673.724V671.752H39.2807V673.724ZM44.3554 670.815V681.658H43.394V670.815H44.3554Z" fill="#485760"/>
<rect x="63.0083" y="667.995" width="192.967" height="8.30769" fill="#1E7EDE"/>
<rect x="63.0083" y="676.302" width="212" height="9" fill="url(#paint3_linear_401_20823)"/>
<path d="M32.336 701.107V709.917H31.2286V702.251H31.1799L29.038 703.675V702.567L31.2286 701.107H32.336ZM36.5304 710.039C34.5711 710.039 33.4515 708.396 33.4515 705.512C33.4515 702.652 34.5954 700.985 36.5304 700.985C38.4653 700.985 39.6093 702.652 39.6093 705.512C39.6093 708.396 38.4775 710.039 36.5304 710.039ZM36.5304 709.066C37.796 709.066 38.5383 707.788 38.5383 705.512C38.5383 703.236 37.796 701.934 36.5304 701.934C35.2648 701.934 34.5103 703.236 34.5103 705.512C34.5103 707.788 35.2526 709.066 36.5304 709.066ZM43.4873 702.993C43.4751 704.965 44.8259 706.96 46.4201 707.678L45.836 708.433C44.6069 707.83 43.542 706.559 43.0248 705.013C42.5198 706.65 41.455 708.013 40.1893 708.652L39.5809 707.849C41.1872 707.106 42.5259 705.05 42.538 702.993V701.022H43.4873V702.993ZM48.5619 700.085V710.928H47.6005V700.085H48.5619Z" fill="#485760"/>
<rect x="62.8545" y="697.764" width="188.48" height="8.30769" fill="#1E7EDE"/>
<rect x="62.8545" y="706.071" width="199" height="8" fill="url(#paint4_linear_401_20823)"/>
<path d="M32.336 730.722V739.533H31.2286V731.866H31.1799L29.038 733.29V732.183L31.2286 730.722H32.336ZM36.7616 730.722V739.533H35.6542V731.866H35.6055L33.4637 733.29V732.183L35.6542 730.722H36.7616ZM41.528 732.609C41.5158 734.58 42.8666 736.576 44.4608 737.294L43.8767 738.048C42.6476 737.446 41.5827 736.174 41.0655 734.629C40.5605 736.265 39.4957 737.628 38.2301 738.267L37.6216 737.464C39.228 736.722 40.5666 734.665 40.5788 732.609V730.637H41.528V732.609ZM46.6027 729.7V740.543H45.6413V729.7H46.6027Z" fill="#485760"/>
<rect x="60.8545" y="726.533" width="125" height="9" fill="#1E7EDE"/>
<rect x="60.8545" y="735.533" width="143" height="9" fill="url(#paint5_linear_401_20823)"/>
<path d="M32.336 760.338V769.148H31.2286V761.482H31.1799L29.038 762.905V761.798L31.2286 760.338H32.336ZM33.6462 769.148L33.6341 768.345L36.6399 765.181C37.6865 764.074 38.1854 763.477 38.1854 762.662C38.1854 761.762 37.4188 761.165 36.433 761.165C35.3865 761.165 34.7171 761.835 34.7171 762.82H33.6827C33.6706 761.263 34.8753 760.216 36.4695 760.216C38.0637 760.216 39.2077 761.287 39.2077 762.662C39.2077 763.648 38.7452 764.415 37.1875 766.021L35.1674 768.102V768.175H39.3659V769.148H33.6462ZM43.3777 762.224C43.3656 764.195 44.7164 766.191 46.3106 766.909L45.7264 767.664C44.4973 767.061 43.4325 765.79 42.9153 764.244C42.4103 765.881 41.3454 767.244 40.0798 767.883L39.4713 767.08C41.0777 766.337 42.4164 764.281 42.4285 762.224V760.253H43.3777V762.224ZM48.4524 759.316V770.159H47.491V759.316H48.4524Z" fill="#485760"/>
<rect x="62.8545" y="756.995" width="124" height="8" fill="#1E7EDE"/>
<rect x="62.8545" y="764.995" width="230.538" height="8.30769" fill="url(#paint6_linear_401_20823)"/>
<path d="M79.8394 779.224L79.8393 571.724" stroke="#999999" stroke-opacity="0.2" stroke-width="1.03846" stroke-dasharray="2.08 2.08"/>
<path d="M227.304 779.224L227.304 571.724" stroke="#999999" stroke-opacity="0.2" stroke-width="1.03846" stroke-dasharray="2.08 2.08"/>
<path d="M301.036 779.224L301.036 571.724" stroke="#999999" stroke-opacity="0.2" stroke-width="1.03846" stroke-dasharray="2.08 2.08"/>
<path d="M374.77 779.224L374.77 571.724" stroke="#999999" stroke-opacity="0.2" stroke-width="1.03846" stroke-dasharray="2.08 2.08"/>
<path d="M53.8705 20.9596C56.318 20.9769 58.731 22.4247 58.7482 26.9922C58.7482 31.3011 56.8006 33.7831 53.7326 33.7831C51.3196 33.7831 49.665 32.2836 49.3892 30.2153H51.6126C51.8367 31.1977 52.595 31.8354 53.7326 31.8354C55.5424 31.8354 56.5593 30.2325 56.5765 27.5609H56.4386C55.8009 28.6468 54.6116 29.2845 53.2328 29.2845C51.0093 29.2845 49.2858 27.5954 49.2685 25.2341C49.2685 22.7866 51.0955 20.9424 53.8705 20.9596ZM53.8877 22.7694C52.4916 22.7694 51.4402 23.8552 51.4575 25.1824C51.4575 26.5268 52.4572 27.5782 53.8533 27.5782C55.2321 27.5782 56.318 26.4579 56.3007 25.1652C56.3007 23.8897 55.2838 22.7694 53.8877 22.7694ZM61.2826 32.0595C60.5414 32.0595 59.9382 31.4562 59.9382 30.7151C59.9382 29.9912 60.5414 29.3879 61.2826 29.3879C61.9892 29.3879 62.6097 29.9912 62.6097 30.7151C62.6097 31.4562 61.9892 32.0595 61.2826 32.0595ZM61.2826 25.372C60.5414 25.372 59.9382 24.7687 59.9382 24.0276C59.9382 23.3037 60.5414 22.7005 61.2826 22.7005C61.9892 22.7005 62.6097 23.3037 62.6097 24.0276C62.6097 24.7687 61.9892 25.372 61.2826 25.372ZM63.7825 31.2839V29.4914L69.1773 21.132H71.9695V29.4397H73.6069V31.2839H71.9695V33.6107H69.8322V31.2839H63.7825ZM66.0748 29.4397H69.8667V23.6829H69.7288L66.0748 29.3535V29.4397ZM79.5884 21.132V33.6107H77.3305V23.3209H77.2616L74.3487 25.1824V23.1313L77.4339 21.132H79.5884Z" fill="black"/>
<g clip-path="url(#clip1_401_20823)">
<rect x="318.054" y="19.7252" width="3.32225" height="12.4584" rx="1.0382" fill="black"/>
<rect x="312.551" y="22.2168" width="3.32225" height="9.96676" rx="1.0382" fill="black"/>
<rect x="307.049" y="24.9163" width="3.32225" height="7.26743" rx="1.0382" fill="black"/>
<rect x="301.546" y="27.4078" width="3.32225" height="4.77574" rx="1.0382" fill="black"/>
</g>
<path d="M336.387 28.1697C337.117 28.1697 337.827 28.3616 338.452 28.7275L338.706 28.8758C338.898 28.9882 338.931 29.2513 338.774 29.4083L336.611 31.5654C336.478 31.6979 336.263 31.6979 336.13 31.5654L333.981 29.4222C333.824 29.2658 333.856 29.0041 334.047 28.8908L334.297 28.7419C334.928 28.3667 335.647 28.1697 336.387 28.1697Z" fill="black"/>
<path d="M336.387 24.2072C338.204 24.2072 339.948 24.8098 341.369 25.926L341.57 26.0837C341.73 26.2095 341.744 26.4464 341.6 26.5901L340.309 27.8779C340.189 27.997 340 28.0107 339.865 27.9101L339.707 27.7931C338.748 27.0798 337.59 26.6972 336.387 26.6972C335.176 26.6972 334.012 27.0845 333.049 27.806L332.892 27.9241C332.756 28.0256 332.567 28.0122 332.447 27.8927L331.156 26.6054C331.012 26.462 331.026 26.2257 331.185 26.0997L331.385 25.9418C332.809 24.8157 334.561 24.2072 336.387 24.2072Z" fill="black"/>
<path d="M336.387 20.2444C339.27 20.2444 342.027 21.2614 344.21 23.1257L344.396 23.2848C344.547 23.4134 344.556 23.6426 344.415 23.7823L343.128 25.066C343.004 25.1903 342.804 25.199 342.669 25.086L342.51 24.9528C340.791 23.516 338.638 22.7344 336.387 22.7344C334.129 22.7344 331.968 23.5213 330.247 24.9671L330.088 25.1011C329.953 25.2146 329.753 25.2061 329.628 25.0815L328.341 23.7981C328.201 23.6585 328.21 23.4297 328.36 23.301L328.545 23.1418C330.73 21.2675 333.495 20.2444 336.387 20.2444Z" fill="black"/>
<rect x="352.989" y="21.2825" width="21.8023" height="9.34384" rx="1.38081" fill="black"/>
<path opacity="0.4" fill-rule="evenodd" clip-rule="evenodd" d="M356.727 20.2443H371.054C372.089 20.2443 372.802 20.2451 373.356 20.2903C373.898 20.3346 374.195 20.4161 374.413 20.5272C374.901 20.776 375.298 21.1731 375.547 21.6614C375.658 21.8793 375.74 22.1762 375.784 22.7179C375.829 23.2718 375.83 23.9853 375.83 25.02V26.8888C375.83 27.9234 375.829 28.637 375.784 29.1908C375.74 29.7326 375.658 30.0294 375.547 30.2473C375.298 30.7357 374.901 31.1328 374.413 31.3816C374.195 31.4926 373.898 31.5742 373.356 31.6184C372.802 31.6637 372.089 31.6645 371.054 31.6645H356.727C355.692 31.6645 354.979 31.6637 354.425 31.6184C353.883 31.5742 353.586 31.4926 353.368 31.3816C352.88 31.1328 352.483 30.7357 352.234 30.2473C352.123 30.0294 352.042 29.7326 351.997 29.1908C351.952 28.637 351.951 27.9234 351.951 26.8888V25.02C351.951 23.9853 351.952 23.2718 351.997 22.7179C352.042 22.1762 352.123 21.8793 352.234 21.6614C352.483 21.1731 352.88 20.776 353.368 20.5272C353.586 20.4161 353.883 20.3346 354.425 20.2903C354.979 20.2451 355.692 20.2443 356.727 20.2443ZM350.913 25.02C350.913 22.9849 350.913 21.9674 351.309 21.1901C351.658 20.5064 352.213 19.9505 352.897 19.6021C353.674 19.2061 354.692 19.2061 356.727 19.2061H371.054C373.089 19.2061 374.107 19.2061 374.884 19.6021C375.568 19.9505 376.124 20.5064 376.472 21.1901C376.868 21.9674 376.868 22.9849 376.868 25.02V26.8888C376.868 28.9238 376.868 29.9414 376.472 30.7187C376.124 31.4024 375.568 31.9583 374.884 32.3067C374.107 32.7027 373.089 32.7027 371.054 32.7027H356.727C354.692 32.7027 353.674 32.7027 352.897 32.3067C352.213 31.9583 351.658 31.4024 351.309 30.7187C350.913 29.9414 350.913 28.9238 350.913 26.8888V25.02ZM377.906 28.0308C378.766 27.8231 379.464 27.1011 379.464 25.9544C379.464 24.8076 378.766 24.0856 377.906 23.878L377.906 25.9544L377.906 28.0308Z" fill="black"/>
<rect x="127.978" y="866.076" width="149.04" height="5.19231" rx="2.59615" fill="black"/>
<rect x="17.8828" y="144.643" width="366.122" height="45.6061" rx="22.7296" fill="#F4F5F9"/>
<rect x="22.0151" y="148.776" width="69.8421" height="37.3408" rx="18.6704" fill="white"/>
<path d="M32.1611 168.837L43.4381 157.299L40.7989 165.883H44.9303L33.6316 177.593L36.2708 168.837H32.1611Z" fill="#1E7EDE"/>
<path d="M65.3069 161.322V169.926H64.0609V165.506H61.818V164.496H64.0609V161.322H65.3069ZM65.6217 171.802V172.812H57.6732V169.152H58.9193V171.802H65.6217ZM59.7194 163.696C59.7194 165.165 60.7818 166.634 62.5525 167.224L61.9098 168.221C60.5916 167.755 59.6144 166.811 59.1029 165.65C58.5913 166.942 57.5617 167.985 56.1648 168.483L55.5221 167.473C57.3322 166.857 58.4471 165.309 58.4471 163.696V163.237H55.9025V162.214H62.2377V163.237H59.7194V163.696ZM76.8215 161.309V173.061H75.5623V161.309H76.8215ZM73.3194 162.568C73.3194 166.004 71.8504 168.995 67.8237 170.923L67.1679 169.913C70.2961 168.424 71.8176 166.306 72.0602 163.565H67.7319V162.568H73.3194Z" fill="#485760"/>
<path d="M115.697 173.228C115.697 173.581 115.601 173.928 115.419 174.229C115.237 174.531 114.977 174.776 114.667 174.939C114.356 175.101 114.008 175.174 113.66 175.149C113.311 175.125 112.976 175.004 112.691 174.8C112.406 174.596 112.181 174.317 112.043 173.992C111.904 173.668 111.856 173.312 111.904 172.962C111.952 172.612 112.094 172.282 112.315 172.008C112.536 171.735 112.827 171.528 113.156 171.41V165.519C113.156 165.348 113.223 165.185 113.342 165.065C113.461 164.944 113.623 164.876 113.791 164.876C113.96 164.876 114.121 164.944 114.241 165.065C114.36 165.185 114.427 165.348 114.427 165.519V171.41C114.798 171.543 115.12 171.789 115.348 172.115C115.575 172.44 115.697 172.829 115.697 173.228Z" fill="#BCBCBC"/>
<path d="M110.617 160.38C110.617 159.528 110.952 158.711 111.547 158.108C112.143 157.506 112.951 157.168 113.793 157.168C114.635 157.168 115.443 157.506 116.039 158.108C116.634 158.711 116.969 159.528 116.969 160.38V170.08C117.582 170.713 117.996 171.514 118.161 172.384C118.325 173.253 118.231 174.153 117.892 174.969C117.553 175.786 116.983 176.483 116.254 176.973C115.525 177.463 114.669 177.724 113.793 177.724C112.918 177.724 112.061 177.463 111.332 176.973C110.603 176.483 110.033 175.786 109.694 174.969C109.355 174.153 109.261 173.253 109.426 172.384C109.59 171.514 110.004 170.713 110.617 170.08V160.38ZM113.793 158.452C113.288 158.452 112.803 158.655 112.446 159.017C112.088 159.378 111.887 159.869 111.887 160.38V170.642L111.675 170.834C111.196 171.268 110.858 171.839 110.706 172.471C110.554 173.103 110.596 173.767 110.825 174.375C111.055 174.982 111.462 175.505 111.991 175.874C112.521 176.243 113.149 176.441 113.792 176.441C114.436 176.441 115.064 176.243 115.594 175.874C116.123 175.505 116.53 174.982 116.759 174.375C116.989 173.767 117.031 173.103 116.879 172.471C116.727 171.839 116.389 171.268 115.91 170.834L115.699 170.642V160.38C115.699 159.869 115.498 159.378 115.141 159.017C114.783 158.655 114.298 158.452 113.793 158.452Z" fill="#BCBCBC"/>
<path d="M132.54 162.148V166.673C134.134 166.673 135.813 166.568 137.63 166.188L137.774 167.211C135.806 167.618 133.996 167.722 132.252 167.722H131.294V162.148H132.54ZM139.99 161.322V164.745H141.696V165.807H139.99V169.795H138.744V161.322H139.99ZM140.397 171.802V172.812H132.567V168.969H133.826V171.802H140.397ZM147.741 168.627C150.167 168.627 151.636 169.441 151.636 170.831C151.636 172.234 150.167 173.048 147.741 173.061C145.288 173.048 143.793 172.234 143.793 170.831C143.793 169.441 145.288 168.627 147.741 168.627ZM147.741 169.611C146.036 169.611 145.026 170.044 145.039 170.831C145.026 171.618 146.036 172.064 147.741 172.064C149.433 172.064 150.416 171.618 150.416 170.831C150.416 170.044 149.433 169.611 147.741 169.611ZM151.531 161.309V164.181H153.236V165.243H151.531V168.326H150.285V161.309H151.531ZM143.976 162.043V163.735H147.059V162.043H148.292V167.499H142.756V162.043H143.976ZM143.976 166.503H147.059V164.719H143.976V166.503Z" fill="#BCBCBC"/>
<path d="M191.725 169.916C191.725 173.551 189.435 175.84 185.797 175.84C182.158 175.84 179.868 173.551 179.868 169.916C179.868 166.015 184.118 160.748 185.422 159.224C185.468 159.17 185.526 159.127 185.59 159.097C185.655 159.067 185.726 159.052 185.797 159.052C185.868 159.052 185.939 159.067 186.003 159.097C186.068 159.127 186.126 159.17 186.172 159.224C187.475 160.748 191.725 166.015 191.725 169.916Z" fill="#BCBCBC"/>
<path d="M208.781 162.345C208.768 163.906 210.683 165.375 212.991 165.676L212.506 166.699C210.584 166.391 208.892 165.394 208.138 164.011C207.364 165.401 205.679 166.391 203.77 166.699L203.272 165.676C205.58 165.375 207.469 163.919 207.482 162.345V161.702H208.781V162.345ZM213.477 167.854V168.877H208.702V173.061H207.482V168.877H202.76V167.854H213.477ZM223.824 166.726V167.722H220.269V170.595H225.057V171.618H214.301V170.595H219.036V167.722H215.639V162.214H223.719V163.224H216.885V166.726H223.824Z" fill="#BCBCBC"/>
<path d="M252.991 160.989C251.476 161.83 250.711 163.295 251.167 165.601C251.642 168.004 252.535 167.446 252.535 170.674C252.535 171.597 252.079 173.442 250.711 173.903" stroke="#BCBCBC" stroke-width="1.83449" stroke-linecap="round"/>
<path d="M258.94 160.989C257.426 161.83 256.66 163.295 257.116 165.601C257.591 168.004 258.484 167.446 258.484 170.674C258.484 171.597 258.028 173.442 256.66 173.903" stroke="#BCBCBC" stroke-width="1.83449" stroke-linecap="round"/>
<path d="M264.89 160.989C263.375 161.83 262.609 163.295 263.065 165.601C263.541 168.004 264.434 167.446 264.434 170.674C264.434 171.597 263.978 173.442 262.609 173.903" stroke="#BCBCBC" stroke-width="1.83449" stroke-linecap="round"/>
<path d="M285.48 167.499V168.523H274.764V167.499H279.499V166.358C277.295 166.234 275.918 165.381 275.918 163.997C275.918 162.542 277.558 161.65 280.115 161.636C282.66 161.65 284.313 162.542 284.313 163.997C284.313 165.381 282.922 166.234 280.732 166.358V167.499H285.48ZM284.273 171.802V172.812H276.115V169.401H277.374V171.802H284.273ZM280.115 162.646C278.318 162.646 277.19 163.158 277.204 163.997C277.19 164.889 278.318 165.375 280.115 165.375C281.912 165.375 283.027 164.889 283.027 163.997C283.027 163.158 281.912 162.646 280.115 162.646ZM292.325 162.345C292.312 163.906 294.227 165.375 296.535 165.676L296.05 166.699C294.129 166.391 292.437 165.394 291.682 164.011C290.909 165.401 289.223 166.391 287.315 166.699L286.816 165.676C289.125 165.375 291.013 163.919 291.027 162.345V161.702H292.325V162.345ZM297.021 167.854V168.877H292.246V173.061H291.027V168.877H286.305V167.854H297.021Z" fill="#BCBCBC"/>
<path d="M323.424 175.517H321.828V159.375H323.424M337.79 159.375H336.193V175.517H337.79M333.991 162.071L330.798 165.299C330.352 165.083 329.85 165.013 329.362 165.098C328.874 165.182 328.424 165.418 328.074 165.772C327.724 166.126 327.491 166.581 327.407 167.075C327.323 167.568 327.393 168.076 327.606 168.528L324.414 171.756L325.547 172.902L328.739 169.674C329.186 169.89 329.688 169.96 330.176 169.875C330.664 169.791 331.114 169.555 331.464 169.201C331.814 168.847 332.047 168.392 332.131 167.898C332.215 167.405 332.145 166.897 331.932 166.445L335.124 163.217L333.991 162.071Z" fill="#BCBCBC"/>
<path d="M355.923 161.309V165.991H357.746V167.027H355.923V173.048H354.677V161.309H355.923ZM352.854 162.542C352.841 165.939 351.345 168.969 347.476 170.884L346.781 169.913C349.726 168.444 351.326 166.319 351.581 163.578H347.371V162.542H352.854ZM364.277 162.974C364.277 164.889 366.323 166.699 368.579 167.106L368.002 168.142C366.126 167.736 364.395 166.503 363.634 164.85C362.86 166.49 361.135 167.722 359.253 168.142L358.702 167.106C360.932 166.686 362.965 164.889 362.965 162.974V162.082H364.277V162.974ZM369.064 170.477V171.513H358.309V170.477H369.064Z" fill="#BCBCBC"/>
<path d="M35.6185 220.126V221.343C35.6185 222.56 35.6185 223.952 35.2359 225.813H37.3751V227.378H23.0095V225.813H33.288C33.6533 224.117 33.6881 222.821 33.6881 221.673H24.7834V220.126H35.6185ZM35.6012 229.204V234.891H24.7313V229.204H35.6012ZM26.627 230.717V233.326H33.6881V230.717H26.627ZM42.7645 219.865C45.1472 219.865 46.9211 221.343 46.9385 223.413C46.9211 225.5 45.1472 226.961 42.7645 226.961C40.3644 226.961 38.5905 225.5 38.5905 223.413C38.5905 221.343 40.3644 219.865 42.7645 219.865ZM42.7645 221.465C41.4427 221.465 40.4688 222.213 40.4688 223.413C40.4688 224.63 41.4427 225.395 42.7645 225.395C44.0863 225.395 45.0602 224.63 45.0602 223.413C45.0602 222.213 44.0863 221.465 42.7645 221.465ZM51.4082 219.36V227.308H49.4603V219.36H51.4082ZM51.4082 227.987V232.091H42.9036V233.361H51.8778V234.891H41.0079V230.665H49.4777V229.5H40.9731V227.987H51.4082Z" fill="#232323"/>
<rect x="22.335" y="245.535" width="31" height="2.24328" rx="1.12164" fill="#232323"/>
<path d="M97.7851 220.126V221.343C97.7851 222.56 97.7851 223.952 97.4024 225.813H99.5416V227.378H85.176V225.813H95.4545C95.8198 224.117 95.8546 222.821 95.8546 221.673H86.9499V220.126H97.7851ZM97.7677 229.204V234.891H86.8978V229.204H97.7677ZM88.7935 230.717V233.326H95.8546V230.717H88.7935ZM113.662 219.378V228.543H111.714V227.9H108.775V226.717H111.714V219.378H113.662ZM100.461 225.047C103.505 225.047 107.296 225.013 110.67 224.682L110.775 225.9C109.34 226.1 107.862 226.221 106.409 226.282V228.561H104.496V226.369C103.148 226.404 101.853 226.413 100.67 226.404L100.461 225.047ZM113.662 229.03V232.561H104.722V233.569H114.079V234.943H102.827V231.291H111.749V230.352H102.757V229.03H113.662ZM105.54 219.621C107.87 219.621 109.47 220.56 109.47 221.986C109.47 223.447 107.87 224.334 105.54 224.334C103.157 224.334 101.574 223.447 101.574 221.986C101.574 220.56 103.157 219.621 105.54 219.621ZM105.54 220.908C104.218 220.908 103.401 221.326 103.418 221.986C103.401 222.647 104.218 223.047 105.54 223.047C106.827 223.047 107.662 222.647 107.662 221.986C107.662 221.326 106.827 220.908 105.54 220.908Z" fill="#232323" fill-opacity="0.3"/>
<path d="M155.499 220.126V221.343C155.499 222.56 155.499 223.952 155.116 225.813H157.255V227.378H142.89V225.813H153.168C153.534 224.117 153.568 222.821 153.568 221.673H144.664V220.126H155.499ZM155.482 229.204V234.891H144.612V229.204H155.482ZM146.507 230.717V233.326H153.568V230.717H146.507ZM171.358 219.378V230.961H169.428V225.726H165.323V224.195H169.428V222.769H165.323V221.239H169.428V219.378H171.358ZM171.758 233.204V234.769H161.027V229.935H162.975V233.204H171.758ZM161.01 220.421V227.221C163.01 227.195 164.897 227.074 167.01 226.7L167.202 228.265C164.784 228.717 162.662 228.804 160.332 228.821H159.097V220.421H161.01Z" fill="#232323" fill-opacity="0.3"/>
<path d="M23.5391 279.501C23.5234 282.048 24.6172 284.626 26.8984 285.72L25.6953 287.314C24.1719 286.564 23.1484 285.157 22.5547 283.439C21.9375 285.282 20.8359 286.79 19.2266 287.579L17.9922 285.97C20.3984 284.86 21.5391 282.142 21.5391 279.501V277.376H23.5391V279.501ZM29.5234 276.282V281.767H31.6172V283.454H29.5234V290.501H27.5234V276.282H29.5234ZM45.0216 283.017V284.61H32.0528V283.017H34.9747V281.314C33.9356 280.853 33.3497 280.15 33.3497 279.235C33.3497 277.517 35.3653 276.485 38.5372 276.485C41.6778 276.485 43.6934 277.517 43.7091 279.235C43.7013 280.157 43.0919 280.876 42.0372 281.329V283.017H45.0216ZM38.5216 285.36C41.5997 285.36 43.4591 286.267 43.4747 287.907C43.4591 289.579 41.5997 290.485 38.5216 290.485C35.3966 290.485 33.5372 289.579 33.5372 287.907C33.5372 286.267 35.3966 285.36 38.5216 285.36ZM38.5216 286.86C36.5528 286.86 35.5528 287.204 35.5684 287.907C35.5528 288.642 36.5528 289.001 38.5216 289.001C40.4434 289.001 41.4591 288.642 41.4747 287.907C41.4591 287.204 40.4434 286.86 38.5216 286.86ZM38.5372 278.017C36.5216 278.017 35.4122 278.439 35.4278 279.235C35.4122 280.017 36.5216 280.407 38.5372 280.407C40.5216 280.407 41.6466 280.017 41.6466 279.235C41.6466 278.439 40.5216 278.017 38.5372 278.017ZM36.9903 283.017H40.0528V281.829C39.5841 281.884 39.0763 281.907 38.5372 281.907C37.9825 281.907 37.4669 281.884 36.9903 281.814V283.017ZM59.0041 278.189V279.845H57.0822V281.204H59.0041V282.845H57.0822V284.876H55.0822V276.298H57.0822V278.189H59.0041ZM52.8322 277.142V281.376H48.3009V282.626C50.6525 282.61 52.2463 282.517 54.0509 282.204L54.2697 283.798C52.2228 284.173 50.3947 284.251 47.5197 284.251H46.3166V279.876H50.8947V278.704H46.3009V277.142H52.8322ZM52.3947 285.095C55.3478 285.095 57.2228 286.126 57.2228 287.829C57.2228 289.517 55.3478 290.485 52.3947 290.485C49.3791 290.485 47.5197 289.517 47.5197 287.829C47.5197 286.126 49.3791 285.095 52.3947 285.095ZM52.3947 286.642C50.5041 286.642 49.4728 287.032 49.4884 287.829C49.4728 288.595 50.5041 289.001 52.3947 289.001C54.2697 289.001 55.2541 288.595 55.2541 287.829C55.2541 287.032 54.2697 286.642 52.3947 286.642ZM75.0628 276.282V290.532H73.0472V276.282H75.0628ZM65.8597 277.407V280.876H68.9222V277.407H70.8909V287.204H63.8597V277.407H65.8597ZM65.8597 285.595H68.9222V282.423H65.8597V285.595ZM88.7016 277.517V278.907C88.6859 280.642 88.6859 282.595 88.1703 285.454L86.2172 285.282C86.6859 282.681 86.7016 280.743 86.7016 279.095H78.1859V277.517H88.7016ZM89.8734 287.142V288.767H76.9047V287.142H79.6703V282.673H81.6547V287.142H83.2172V282.673H85.1859V287.142H89.8734Z" fill="#232323"/>
<path d="M96.127 284.29C96.1406 281.706 96.8379 279.56 98.0957 277.741H99.1348C98.2051 279.095 97.3438 281.857 97.3438 284.29C97.3438 286.724 98.2051 289.499 99.1348 290.853H98.0957C96.8379 289.021 96.1406 286.874 96.127 284.29ZM103.959 288.2C102.237 288.173 100.35 287.161 100.35 283.497C100.35 279.997 101.785 278.028 104.11 278.028C105.846 278.028 107.063 279.095 107.323 280.653H106.106C105.873 279.778 105.217 279.122 104.11 279.122C102.483 279.122 101.512 280.517 101.512 282.896H101.635C102.209 282.075 103.112 281.583 104.178 281.583C105.942 281.583 107.405 282.95 107.405 284.864C107.405 286.724 106.037 288.214 103.959 288.2ZM103.959 287.12C105.244 287.12 106.201 286.109 106.215 284.878C106.201 283.661 105.285 282.663 103.987 282.663C102.688 282.663 101.69 283.716 101.676 284.892C101.676 286.054 102.633 287.12 103.959 287.12ZM118.614 277.03V284.194H117.534V283.525H115.073V282.814H117.534V277.03H118.614ZM108.551 281.61C110.903 281.624 113.911 281.597 116.536 281.31L116.604 282.007C115.415 282.178 114.177 282.28 112.967 282.335V284.235H111.915V282.376C110.766 282.417 109.666 282.424 108.674 282.417L108.551 281.61ZM118.614 284.632V287.148H111.518V288.241H119.01V289.034H110.465V286.396H117.547V285.411H110.411V284.632H118.614ZM112.516 277.263C114.321 277.263 115.524 277.974 115.538 279.095C115.524 280.23 114.321 280.913 112.516 280.913C110.684 280.913 109.495 280.23 109.495 279.095C109.495 277.974 110.684 277.263 112.516 277.263ZM112.516 278.015C111.286 278.015 110.493 278.439 110.506 279.095C110.493 279.737 111.286 280.175 112.516 280.175C113.733 280.175 114.526 279.737 114.526 279.095C114.526 278.439 113.733 278.015 112.516 278.015ZM121.06 288.064L121.046 287.161L124.423 283.607C125.599 282.362 126.159 281.693 126.159 280.776C126.159 279.765 125.298 279.095 124.19 279.095C123.015 279.095 122.263 279.847 122.263 280.954H121.101C121.087 279.204 122.44 278.028 124.231 278.028C126.022 278.028 127.308 279.232 127.308 280.776C127.308 281.884 126.788 282.745 125.038 284.55L122.769 286.888V286.97H127.485V288.064H121.06ZM132.214 277.468C134.033 277.482 135.359 278.575 135.359 280.161C135.359 281.747 134.033 282.841 132.214 282.841C130.368 282.841 129.056 281.747 129.056 280.161C129.056 278.575 130.368 277.482 132.214 277.468ZM132.214 278.37C130.997 278.37 130.095 279.109 130.109 280.161C130.095 281.228 130.997 281.966 132.214 281.966C133.417 281.966 134.32 281.228 134.32 280.161C134.32 279.109 133.417 278.37 132.214 278.37ZM138.804 277.017V283.265H137.738V277.017H138.804ZM138.804 283.853V286.778H131.982V288.146H139.241V289.007H130.929V285.972H137.738V284.714H130.902V283.853H138.804ZM150.805 280.64L148.057 288.064H146.84L144.105 280.64H145.391L147.414 286.532H147.496L149.519 280.64H150.805ZM156.162 282.568C155.998 281.952 155.533 281.542 154.658 281.542C153.742 281.542 153.086 282.034 153.086 282.663C153.086 283.155 153.483 283.497 154.358 283.702L155.465 283.976C156.791 284.29 157.447 284.946 157.447 285.985C157.447 287.271 156.395 288.214 154.535 288.214C152.867 288.214 151.869 287.476 151.678 286.122H152.908C153.045 286.847 153.578 287.189 154.508 287.189C155.561 287.189 156.231 286.751 156.231 286.054C156.231 285.534 155.862 285.179 155.014 284.987L153.893 284.728C152.594 284.427 151.91 283.716 151.91 282.732C151.91 281.46 153.018 280.544 154.658 280.544C156.19 280.544 157.16 281.364 157.311 282.568H156.162ZM165.784 288.2C164.061 288.173 162.175 287.161 162.175 283.497C162.175 279.997 163.61 278.028 165.934 278.028C167.671 278.028 168.888 279.095 169.147 280.653H167.931C167.698 279.778 167.042 279.122 165.934 279.122C164.308 279.122 163.337 280.517 163.337 282.896H163.46C164.034 282.075 164.936 281.583 166.003 281.583C167.766 281.583 169.229 282.95 169.229 284.864C169.229 286.724 167.862 288.214 165.784 288.2ZM165.784 287.12C167.069 287.12 168.026 286.109 168.04 284.878C168.026 283.661 167.11 282.663 165.811 282.663C164.513 282.663 163.515 283.716 163.501 284.892C163.501 286.054 164.458 287.12 165.784 287.12ZM180.439 277.03V284.194H179.359V283.525H176.898V282.814H179.359V277.03H180.439ZM170.376 281.61C172.728 281.624 175.736 281.597 178.361 281.31L178.429 282.007C177.239 282.178 176.002 282.28 174.792 282.335V284.235H173.739V282.376C172.591 282.417 171.49 282.424 170.499 282.417L170.376 281.61ZM180.439 284.632V287.148H173.343V288.241H180.835V289.034H172.29V286.396H179.372V285.411H172.236V284.632H180.439ZM174.341 277.263C176.146 277.263 177.349 277.974 177.363 279.095C177.349 280.23 176.146 280.913 174.341 280.913C172.509 280.913 171.32 280.23 171.32 279.095C171.32 277.974 172.509 277.263 174.341 277.263ZM174.341 278.015C173.111 278.015 172.318 278.439 172.331 279.095C172.318 279.737 173.111 280.175 174.341 280.175C175.558 280.175 176.351 279.737 176.351 279.095C176.351 278.439 175.558 278.015 174.341 278.015ZM186.384 278.165V288.064H185.14V279.45H185.085L182.679 281.05V279.806L185.14 278.165H186.384ZM191.961 277.468C193.779 277.482 195.105 278.575 195.105 280.161C195.105 281.747 193.779 282.841 191.961 282.841C190.115 282.841 188.803 281.747 188.803 280.161C188.803 278.575 190.115 277.482 191.961 277.468ZM191.961 278.37C190.744 278.37 189.842 279.109 189.855 280.161C189.842 281.228 190.744 281.966 191.961 281.966C193.164 281.966 194.066 281.228 194.066 280.161C194.066 279.109 193.164 278.37 191.961 278.37ZM198.551 277.017V283.265H197.484V277.017H198.551ZM198.551 283.853V286.778H191.728V288.146H198.988V289.007H190.676V285.972H197.484V284.714H190.648V283.853H198.551ZM203.58 284.29C203.567 286.874 202.869 289.021 201.611 290.853H200.572C201.502 289.499 202.363 286.724 202.363 284.29C202.363 281.857 201.502 279.095 200.572 277.741H201.611C202.869 279.56 203.567 281.706 203.58 284.29Z" fill="#778288"/>
<rect x="17.8828" y="311.064" width="366.122" height="159.965" rx="12.398" fill="#F4F6FA"/>
<rect x="42.6787" y="335.859" width="40.2533" height="22.1266" rx="11.0633" fill="#1E7EDE"/>
<path d="M61.1242 341.368V342.285C61.1242 343.243 61.1242 344.368 60.8047 345.909H62.6102V346.812H51.3052V345.909H59.7076C60.0409 344.361 60.0409 343.243 60.0409 342.285V342.271H52.7356V341.368H61.1242ZM61.1797 348.52V352.881H52.694V348.52H61.1797ZM53.7773 349.381V351.992H60.0964V349.381H53.7773ZM66.0803 341.16C67.9274 341.173 69.2746 342.285 69.2746 343.896C69.2746 345.507 67.9274 346.618 66.0803 346.618C64.2054 346.618 62.8721 345.507 62.8721 343.896C62.8721 342.285 64.2054 341.173 66.0803 341.16ZM66.0803 342.076C64.8442 342.076 63.9276 342.826 63.9415 343.896C63.9276 344.979 64.8442 345.729 66.0803 345.729C67.3025 345.729 68.2191 344.979 68.2191 343.896C68.2191 342.826 67.3025 342.076 66.0803 342.076ZM72.7745 340.701V347.048H71.6912V340.701H72.7745ZM72.7745 347.645V350.617H65.8442V352.006H73.2189V352.881H64.7748V349.798H71.6912V348.52H64.747V347.645H72.7745Z" fill="white"/>
<path d="M228.768 339.463V354.923H225.971V342.175H225.885L222.277 344.481V341.94L226.099 339.463H228.768ZM234.68 353.407L232.887 359.386H230.858L231.969 353.407H234.68ZM242.621 355.136C239.312 355.136 236.963 353.343 236.899 350.738H239.696C239.781 351.976 241.02 352.788 242.621 352.788C244.33 352.788 245.547 351.848 245.547 350.481C245.547 349.093 244.351 348.09 242.344 348.09H240.956V345.954H242.344C243.988 345.954 245.141 345.036 245.12 343.691C245.141 342.388 244.159 341.513 242.643 341.513C241.191 341.513 239.931 342.324 239.888 343.627H237.219C237.283 341.022 239.632 339.249 242.664 339.249C245.803 339.249 247.832 341.171 247.81 343.541C247.832 345.271 246.679 346.531 244.992 346.873V347.001C247.17 347.3 248.408 348.688 248.387 350.631C248.408 353.236 245.974 355.136 242.621 355.136ZM256.328 355.136C253.018 355.136 250.669 353.343 250.605 350.738H253.402C253.488 351.976 254.726 352.788 256.328 352.788C258.036 352.788 259.253 351.848 259.253 350.481C259.253 349.093 258.057 348.09 256.05 348.09H254.662V345.954H256.05C257.694 345.954 258.848 345.036 258.826 343.691C258.848 342.388 257.865 341.513 256.349 341.513C254.897 341.513 253.637 342.324 253.595 343.627H250.925C250.989 341.022 253.338 339.249 256.371 339.249C259.51 339.249 261.538 341.171 261.517 343.541C261.538 345.271 260.385 346.531 258.698 346.873V347.001C260.876 347.3 262.115 348.688 262.093 350.631C262.115 353.236 259.68 355.136 256.328 355.136ZM270.12 355.136C266.404 355.136 264.183 352.254 264.183 347.193C264.183 342.153 266.404 339.249 270.12 339.249C273.814 339.249 276.056 342.153 276.056 347.193C276.056 352.254 273.835 355.136 270.12 355.136ZM270.12 352.809C272.063 352.809 273.259 350.908 273.259 347.193C273.259 343.499 272.041 341.556 270.12 341.556C268.198 341.556 266.981 343.499 266.981 347.193C266.981 350.908 268.176 352.809 270.12 352.809ZM293.819 337.541V352.147H291.428V350.46H287.648V348.794H291.428V337.541H293.819ZM294.268 354.517V356.439H280.111V350.738H282.481V354.517H294.268ZM277.548 346.211C281.114 346.189 285.897 346.147 289.997 345.634L290.125 347.342C288.534 347.609 286.89 347.791 285.257 347.898V351.613H282.886V348.026C281.082 348.1 279.363 348.111 277.847 348.111L277.548 346.211ZM283.847 338.246C286.666 338.246 288.631 339.634 288.652 341.662C288.631 343.734 286.666 345.058 283.847 345.058C280.986 345.058 279.021 343.734 279.021 341.662C279.021 339.634 280.986 338.246 283.847 338.246ZM283.847 339.997C282.31 339.997 281.264 340.616 281.264 341.662C281.264 342.709 282.31 343.328 283.847 343.328C285.321 343.328 286.367 342.709 286.388 341.662C286.367 340.616 285.321 339.997 283.847 339.997Z" fill="#232323"/>
<path d="M309.473 348.09C309.487 345.465 310.195 343.284 311.473 341.437H312.528C311.584 342.812 310.709 345.618 310.709 348.09C310.709 350.562 311.584 353.381 312.528 354.756H311.473C310.195 352.895 309.487 350.715 309.473 348.09ZM317.207 352.062C315.388 352.062 314.013 350.937 313.943 349.395H315.151C315.249 350.298 316.124 350.965 317.207 350.965C318.512 350.965 319.457 350.006 319.457 348.742C319.457 347.437 318.471 346.479 317.124 346.465C316.276 346.451 315.624 346.715 315.249 347.367H314.04L314.749 341.868H320.193V342.979H315.79L315.415 345.923H315.513C315.957 345.576 316.638 345.34 317.346 345.34C319.262 345.34 320.679 346.756 320.679 348.715C320.679 350.659 319.207 352.062 317.207 352.062ZM325.899 341.868V351.923H324.635V343.173H324.58L322.136 344.798V343.534L324.635 341.868H325.899ZM328.523 351.923V341.868H329.717V347.715H329.856L333.12 344.382H334.592L331.411 347.604L334.828 351.923H333.314L330.522 348.367L329.717 349.104V351.923H328.523ZM337.493 351.923L335.201 344.382H336.465L338.076 350.131H338.145L339.743 344.382H341.02L342.59 350.103H342.673L344.284 344.382H345.534L343.242 351.923H342.062L340.423 346.173H340.312L338.687 351.923H337.493ZM347.977 347.395V351.923H346.782V341.868H347.977V345.562H348.074C348.421 344.784 349.102 344.284 350.296 344.284C351.838 344.284 352.865 345.201 352.865 347.131V351.923H351.671V347.215C351.671 346.034 351.018 345.354 349.935 345.354C348.81 345.354 347.977 346.09 347.977 347.395ZM357.336 348.09C357.322 350.715 356.614 352.895 355.336 354.756H354.28C355.225 353.381 356.1 350.562 356.1 348.09C356.1 345.618 355.225 342.812 354.28 341.437H355.336C356.614 343.284 357.322 345.465 357.336 348.09Z" fill="#232323"/>
<rect x="42.6787" y="371.106" width="40.2533" height="22.1266" rx="11.0633" fill="#778288"/>
<path d="M61.5408 375.961V385.016H60.4436V380.28H57.9021V379.378H60.4436V375.961H61.5408ZM61.888 387.113V388.03H53.6106V384.197H54.7078V387.113H61.888ZM55.5966 378.503C55.5966 380.1 56.8327 381.655 58.6382 382.266L58.0687 383.141C56.673 382.641 55.5966 381.6 55.0689 380.322C54.5342 381.746 53.3953 382.884 51.9301 383.433L51.3607 382.544C53.1801 381.905 54.4995 380.28 54.4995 378.503V377.864H51.7079V376.961H58.3604V377.864H55.5966V378.503ZM66.0803 376.406C67.9274 376.419 69.2746 377.53 69.2746 379.142C69.2746 380.753 67.9274 381.864 66.0803 381.864C64.2054 381.864 62.8721 380.753 62.8721 379.142C62.8721 377.53 64.2054 376.419 66.0803 376.406ZM66.0803 377.322C64.8442 377.322 63.9276 378.072 63.9415 379.142C63.9276 380.225 64.8442 380.975 66.0803 380.975C67.3025 380.975 68.2191 380.225 68.2191 379.142C68.2191 378.072 67.3025 377.322 66.0803 377.322ZM72.7745 375.947V382.294H71.6912V375.947H72.7745ZM72.7745 382.891V385.863H65.8442V387.252H73.2189V388.127H64.7748V385.044H71.6912V383.766H64.747V382.891H72.7745Z" fill="white"/>
<path d="M226.768 374.709V390.169H223.971V377.421H223.885L220.277 379.727V377.186L224.099 374.709H226.768ZM232.68 388.653L230.887 394.632H228.858L229.969 388.653H232.68ZM240.814 390.383C237.717 390.383 235.454 388.546 235.368 385.984H238.08C238.166 387.244 239.34 388.14 240.814 388.14C242.543 388.14 243.782 386.881 243.782 385.172C243.782 383.4 242.501 382.14 240.728 382.14C239.532 382.119 238.657 382.546 238.166 383.464H235.582L236.522 374.709H245.661V377.037H238.806L238.337 381.137H238.486C239.084 380.453 240.216 379.962 241.476 379.962C244.358 379.962 246.472 382.119 246.472 385.087C246.472 388.183 244.145 390.383 240.814 390.383ZM254.328 390.383C251.018 390.383 248.669 388.589 248.605 385.984H251.402C251.488 387.222 252.726 388.034 254.328 388.034C256.036 388.034 257.253 387.094 257.253 385.728C257.253 384.34 256.057 383.336 254.05 383.336H252.662V381.201H254.05C255.694 381.201 256.848 380.282 256.826 378.937C256.848 377.635 255.865 376.759 254.349 376.759C252.897 376.759 251.637 377.57 251.595 378.873H248.925C248.989 376.268 251.338 374.496 254.371 374.496C257.51 374.496 259.538 376.417 259.517 378.788C259.538 380.517 258.385 381.777 256.698 382.119V382.247C258.876 382.546 260.115 383.934 260.093 385.877C260.115 388.482 257.68 390.383 254.328 390.383ZM268.12 390.383C264.404 390.383 262.183 387.5 262.183 382.439C262.183 377.4 264.404 374.496 268.12 374.496C271.814 374.496 274.056 377.4 274.056 382.439C274.056 387.5 271.835 390.383 268.12 390.383ZM268.12 388.055C270.063 388.055 271.259 386.155 271.259 382.439C271.259 378.745 270.041 376.802 268.12 376.802C266.198 376.802 264.981 378.745 264.981 382.439C264.981 386.155 266.176 388.055 268.12 388.055ZM291.819 372.787V387.393H289.428V385.706H285.648V384.041H289.428V372.787H291.819ZM292.268 389.763V391.685H278.111V385.984H280.481V389.763H292.268ZM275.548 381.457C279.114 381.435 283.897 381.393 287.997 380.88L288.125 382.589C286.534 382.855 284.89 383.037 283.257 383.144V386.859H280.886V383.272C279.082 383.347 277.363 383.357 275.847 383.357L275.548 381.457ZM281.847 373.492C284.666 373.492 286.631 374.88 286.652 376.909C286.631 378.98 284.666 380.304 281.847 380.304C278.986 380.304 277.021 378.98 277.021 376.909C277.021 374.88 278.986 373.492 281.847 373.492ZM281.847 375.243C280.31 375.243 279.264 375.862 279.264 376.909C279.264 377.955 280.31 378.574 281.847 378.574C283.321 378.574 284.367 377.955 284.388 376.909C284.367 375.862 283.321 375.243 281.847 375.243Z" fill="#778288"/>
<path d="M307.473 383.336C307.487 380.711 308.195 378.531 309.473 376.683H310.528C309.584 378.058 308.709 380.864 308.709 383.336C308.709 385.808 309.584 388.627 310.528 390.002H309.473C308.195 388.141 307.487 385.961 307.473 383.336ZM315.429 387.308C313.679 387.28 311.763 386.252 311.763 382.53C311.763 378.975 313.221 376.975 315.582 376.975C317.346 376.975 318.582 378.058 318.846 379.642H317.61C317.373 378.753 316.707 378.086 315.582 378.086C313.929 378.086 312.943 379.503 312.943 381.919H313.068C313.651 381.086 314.568 380.586 315.651 380.586C317.443 380.586 318.929 381.975 318.929 383.919C318.929 385.808 317.54 387.322 315.429 387.308ZM315.429 386.211C316.735 386.211 317.707 385.183 317.721 383.933C317.707 382.697 316.776 381.683 315.457 381.683C314.138 381.683 313.124 382.753 313.11 383.947C313.11 385.127 314.082 386.211 315.429 386.211ZM320.58 387.169L320.566 386.252L323.997 382.641C325.191 381.378 325.76 380.697 325.76 379.767C325.76 378.739 324.885 378.058 323.76 378.058C322.566 378.058 321.802 378.822 321.802 379.947H320.622C320.608 378.169 321.983 376.975 323.802 376.975C325.621 376.975 326.927 378.197 326.927 379.767C326.927 380.892 326.399 381.767 324.622 383.6L322.316 385.975V386.058H327.108V387.169H320.58ZM328.87 387.169V377.114H330.064V382.961H330.203L333.467 379.628H334.939L331.758 382.85L335.175 387.169H333.661L330.87 383.614L330.064 384.35V387.169H328.87ZM337.84 387.169L335.548 379.628H336.812L338.423 385.377H338.493L340.09 379.628H341.367L342.937 385.35H343.02L344.631 379.628H345.881L343.59 387.169H342.409L340.77 381.419H340.659L339.034 387.169H337.84ZM348.324 382.641V387.169H347.129V377.114H348.324V380.808H348.421C348.768 380.03 349.449 379.531 350.643 379.531C352.185 379.531 353.212 380.447 353.212 382.378V387.169H352.018V382.461C352.018 381.28 351.365 380.6 350.282 380.6C349.157 380.6 348.324 381.336 348.324 382.641ZM357.683 383.336C357.669 385.961 356.961 388.141 355.683 390.002H354.627C355.572 388.627 356.447 385.808 356.447 383.336C356.447 380.864 355.572 378.058 354.627 376.683H355.683C356.961 378.531 357.669 380.711 357.683 383.336Z" fill="#778288"/>
<rect x="84.2856" y="417.232" width="233.316" height="29" rx="14.5" fill="#1E7EDE"/>
<g clip-path="url(#clip2_401_20823)">
<path d="M104.443 440.619C110.369 440.619 113.33 436.64 113.33 431.732C113.33 426.823 110.369 422.844 104.443 422.844C98.5165 422.844 95.5552 426.823 95.5552 431.732C95.5552 436.64 98.5165 440.619 104.443 440.619Z" fill="url(#paint7_radial_401_20823)"/>
<path d="M104.443 440.619C110.369 440.619 113.33 436.64 113.33 431.732C113.33 426.823 110.369 422.844 104.443 422.844C98.5165 422.844 95.5552 426.823 95.5552 431.732C95.5552 436.64 98.5165 440.619 104.443 440.619Z" fill="url(#paint8_radial_401_20823)"/>
<path d="M104.443 440.619C110.369 440.619 113.33 436.64 113.33 431.732C113.33 426.823 110.369 422.844 104.443 422.844C98.5165 422.844 95.5552 426.823 95.5552 431.732C95.5552 436.64 98.5165 440.619 104.443 440.619Z" fill="url(#paint9_radial_401_20823)" fill-opacity="0.6"/>
<path d="M104.443 440.619C110.369 440.619 113.33 436.64 113.33 431.732C113.33 426.823 110.369 422.844 104.443 422.844C98.5165 422.844 95.5552 426.823 95.5552 431.732C95.5552 436.64 98.5165 440.619 104.443 440.619Z" fill="url(#paint10_radial_401_20823)"/>
<path d="M104.443 440.619C110.369 440.619 113.33 436.64 113.33 431.732C113.33 426.823 110.369 422.844 104.443 422.844C98.5165 422.844 95.5552 426.823 95.5552 431.732C95.5552 436.64 98.5165 440.619 104.443 440.619Z" fill="url(#paint11_radial_401_20823)"/>
<path d="M104.443 440.619C110.369 440.619 113.33 436.64 113.33 431.732C113.33 426.823 110.369 422.844 104.443 422.844C98.5165 422.844 95.5552 426.823 95.5552 431.732C95.5552 436.64 98.5165 440.619 104.443 440.619Z" fill="url(#paint12_radial_401_20823)"/>
<path d="M104.443 440.619C110.369 440.619 113.33 436.64 113.33 431.732C113.33 426.823 110.369 422.844 104.443 422.844C98.5165 422.844 95.5552 426.823 95.5552 431.732C95.5552 436.64 98.5165 440.619 104.443 440.619Z" fill="url(#paint13_radial_401_20823)"/>
<g filter="url(#filter0_f_401_20823)">
<path fill-rule="evenodd" clip-rule="evenodd" d="M101.901 430.861C102.483 430.395 102.856 429.679 102.856 428.875C102.856 427.473 101.719 426.336 100.317 426.336C98.9143 426.336 97.7773 427.473 97.7773 428.875C97.7773 429.679 98.1506 430.395 98.7331 430.861C99.1864 430.709 99.7657 430.568 100.317 430.568C100.868 430.568 101.447 430.709 101.901 430.861Z" fill="#B3671F"/>
</g>
<g filter="url(#filter1_f_401_20823)">
<path fill-rule="evenodd" clip-rule="evenodd" d="M109.202 430.702C109.784 430.237 110.158 429.52 110.158 428.717C110.158 427.314 109.021 426.177 107.618 426.177C106.216 426.177 105.079 427.314 105.079 428.717C105.079 429.52 105.452 430.237 106.034 430.702C106.488 430.55 107.067 430.41 107.618 430.41C108.169 430.41 108.749 430.55 109.202 430.702Z" fill="#9F5915"/>
</g>
<path fill-rule="evenodd" clip-rule="evenodd" d="M110.793 428.241C110.793 429.145 110.373 429.951 109.717 430.474C109.207 430.303 108.556 430.145 107.936 430.145C107.315 430.145 106.664 430.303 106.154 430.474C105.498 429.951 105.079 429.145 105.079 428.241C105.079 426.663 106.358 425.384 107.936 425.384C109.513 425.384 110.793 426.663 110.793 428.241ZM103.809 428.241C103.809 429.145 103.389 429.951 102.734 430.474C102.224 430.303 101.572 430.145 100.952 430.145C100.332 430.145 99.6799 430.303 99.17 430.474C98.5146 429.951 98.0947 429.145 98.0947 428.241C98.0947 426.663 99.3738 425.384 100.952 425.384C102.53 425.384 103.809 426.663 103.809 428.241ZM107.936 431.098L107.928 431.098H107.943L107.936 431.098ZM100.952 431.098L100.944 431.098H100.959L100.952 431.098Z" fill="white"/>
<path fill-rule="evenodd" clip-rule="evenodd" d="M103.174 428.241C103.174 429.151 102.705 429.934 102.033 430.277C101.684 430.199 101.313 430.145 100.952 430.145C100.754 430.145 100.552 430.161 100.353 430.189C99.7639 429.811 99.3647 429.08 99.3647 428.241C99.3647 427.013 100.217 426.019 101.269 426.019C102.321 426.019 103.174 427.013 103.174 428.241ZM109.523 428.241C109.523 429.08 109.124 429.811 108.535 430.189C108.336 430.161 108.134 430.145 107.936 430.145C107.575 430.145 107.203 430.199 106.855 430.277C106.183 429.934 105.714 429.151 105.714 428.241C105.714 427.013 106.566 426.019 107.618 426.019C108.67 426.019 109.523 427.013 109.523 428.241Z" fill="url(#paint14_linear_401_20823)"/>
<path d="M104.444 437.446C98.73 437.446 98.73 431.732 98.73 431.732H110.158C110.158 431.732 110.158 437.446 104.444 437.446Z" fill="url(#paint15_radial_401_20823)"/>
<path d="M99.3647 432.05V431.732H109.523V432.05C109.523 432.4 109.239 432.685 108.888 432.685H99.9996C99.649 432.685 99.3647 432.4 99.3647 432.05Z" fill="url(#paint16_linear_401_20823)"/>
</g>
<path d="M119.158 429.852L120.316 425.741H121.253L120.364 429.852H119.158ZM126.056 425.582C127.968 425.582 129.333 427.257 129.5 429.915H132.881V424.471H133.865V438.486H132.881V430.741H129.516C129.397 433.51 128.016 435.264 126.056 435.264C124.008 435.264 122.58 433.375 122.596 430.423C122.58 427.471 124.008 425.582 126.056 425.582ZM126.056 426.471C124.564 426.471 123.548 428.09 123.548 430.423C123.548 432.772 124.564 434.375 126.056 434.375C127.532 434.375 128.564 432.772 128.564 430.423C128.564 428.09 127.532 426.471 126.056 426.471ZM148.191 424.471V438.47H147.223V424.471H148.191ZM145.366 424.836V437.709H144.414V430.423H141.89V429.582H144.414V424.836H145.366ZM140.287 428.519C140.271 430.995 141.493 433.423 143.382 434.518L142.763 435.28C141.35 434.423 140.295 432.836 139.811 430.947C139.311 432.979 138.223 434.701 136.779 435.598L136.144 434.852C138.049 433.709 139.319 431.137 139.319 428.519V427.027H136.477V426.185H142.985V427.027H140.287V428.519ZM163.041 435.772V436.629H150.217V435.772H156.089V432.614H151.772V425.487H152.788V428.122H160.438V425.487H161.422V432.614H157.089V435.772H163.041ZM152.788 431.772H160.438V428.963H152.788V431.772ZM174.939 424.471V430.122H177.352V430.963H174.939V438.486H173.939V424.471H174.939ZM165.876 434.074C168.543 434.074 170.352 433.979 172.479 433.582L172.622 434.455C170.416 434.852 168.59 434.947 165.876 434.947H164.797V425.852H171.32V426.693H165.797V434.074H165.876ZM182.037 437.232L182.021 435.502L186.148 431.709C187.228 430.677 187.799 430.042 187.799 429.138C187.799 428.122 187.021 427.487 185.974 427.487C184.894 427.487 184.196 428.169 184.196 429.265H181.926C181.91 427.011 183.577 425.582 186.005 425.582C188.466 425.582 190.101 426.979 190.101 428.979C190.101 430.28 189.466 431.36 187.101 433.502L185.355 435.201V435.264H190.259V437.232H182.037ZM196.316 437.391C193.443 437.391 191.697 435.248 191.697 431.487C191.697 427.725 193.443 425.582 196.316 425.582C199.189 425.582 200.935 427.741 200.935 431.487C200.935 435.264 199.189 437.391 196.316 437.391ZM196.316 435.423C197.649 435.423 198.506 434.137 198.491 431.487C198.491 428.868 197.649 427.534 196.316 427.534C194.983 427.534 194.142 428.868 194.142 431.487C194.126 434.137 194.983 435.423 196.316 435.423ZM206.944 437.391C204.071 437.391 202.325 435.248 202.325 431.487C202.325 427.725 204.071 425.582 206.944 425.582C209.817 425.582 211.563 427.741 211.563 431.487C211.563 435.264 209.817 437.391 206.944 437.391ZM206.944 435.423C208.277 435.423 209.135 434.137 209.119 431.487C209.119 428.868 208.277 427.534 206.944 427.534C205.611 427.534 204.77 428.868 204.77 431.487C204.754 434.137 205.611 435.423 206.944 435.423ZM224.874 424.265V435.169H222.842V434.026H220.08V432.645H222.842V424.265H224.874ZM225.191 436.82V438.439H214.43V434.121H216.445V432.201C215.152 432.256 213.922 432.264 212.827 432.264L212.588 430.661C215.239 430.645 218.81 430.614 221.858 430.233L221.969 431.677C220.826 431.868 219.644 432.002 218.477 432.09V434.836H216.445V436.82H225.191ZM217.287 424.757C219.382 424.741 220.89 425.804 220.89 427.344C220.89 428.884 219.382 429.884 217.287 429.884C215.144 429.884 213.652 428.884 213.652 427.344C213.652 425.804 215.128 424.741 217.287 424.757ZM217.287 426.233C216.255 426.233 215.557 426.63 215.572 427.344C215.557 428.042 216.255 428.423 217.287 428.423C218.255 428.423 218.953 428.042 218.969 427.344C218.953 426.63 218.255 426.233 217.287 426.233ZM233.137 424.725C236.216 424.725 238.041 425.582 238.041 427.153C238.041 428.741 236.216 429.614 233.137 429.614C230.057 429.614 228.232 428.741 228.232 427.153C228.232 425.582 230.057 424.725 233.137 424.725ZM233.137 425.503C230.74 425.503 229.264 426.138 229.264 427.153C229.264 428.217 230.74 428.836 233.137 428.836C235.549 428.836 237.025 428.217 237.025 427.153C237.025 426.138 235.549 425.503 233.137 425.503ZM239.533 430.661V431.487H226.772V430.661H239.533ZM237.851 432.82V435.82H229.359V437.471H238.295V438.296H228.391V435.042H236.883V433.614H228.343V432.82H237.851ZM246.346 430.487C249.044 430.503 250.679 430.423 252.615 430.026L252.726 430.852C250.742 431.233 249.092 431.328 246.346 431.328H245.314V425.36H251.774V426.185H246.298V430.487H246.346ZM256.06 424.471V431.931H255.075V428.455H250.853V427.646H255.075V424.471H256.06ZM256.06 432.629V435.756H248.092V437.439H256.647V438.264H247.108V434.947H255.075V433.455H247.06V432.629H256.06ZM266.967 434.01C266.967 435.296 267.705 436.677 269.094 437.423C270.491 436.59 271.253 435.113 271.268 434.01V433.09H272.221V434.01C272.221 435.455 273.379 436.931 275.157 437.534L274.633 438.312C273.229 437.796 272.205 436.772 271.729 435.566C271.308 436.717 270.443 437.851 269.11 438.423C267.745 437.891 266.872 436.82 266.475 435.613C265.967 436.764 264.959 437.788 263.602 438.312L263.094 437.534C264.84 436.899 265.999 435.344 266.015 434.01V433.09H266.967V434.01ZM274.03 424.471V432.725H273.03V428.455H270.618V427.63H273.03V424.471H274.03ZM265.443 426.82C265.443 427.828 265.761 429.598 266.951 430.709C268.094 429.63 268.411 427.907 268.411 426.82V425.249H269.364V426.82C269.364 428.296 270.014 430.153 271.633 431.042L271.046 431.772C269.935 431.145 269.253 430.066 268.903 428.899C268.61 430.066 268.022 431.233 266.935 431.899C265.816 431.193 265.221 429.979 264.935 428.804C264.578 429.963 263.904 431.114 262.808 431.772L262.237 431.042C263.84 430.09 264.475 428.09 264.491 426.82V425.249H265.443V426.82ZM279.976 425.582C281.889 425.582 283.254 427.257 283.42 429.915H286.801V424.471H287.785V438.486H286.801V430.741H283.436C283.317 433.51 281.936 435.264 279.976 435.264C277.928 435.264 276.5 433.375 276.516 430.423C276.5 427.471 277.928 425.582 279.976 425.582ZM279.976 426.471C278.484 426.471 277.468 428.09 277.468 430.423C277.468 432.772 278.484 434.375 279.976 434.375C281.452 434.375 282.484 432.772 282.484 430.423C282.484 428.09 281.452 426.471 279.976 426.471ZM303.016 435.756V436.613H290.191V435.756H293.461V431.868C292.231 431.249 291.493 430.241 291.493 428.979C291.493 426.82 293.588 425.423 296.556 425.408C299.54 425.423 301.635 426.82 301.635 428.979C301.635 430.225 300.913 431.225 299.715 431.836V435.756H303.016ZM296.556 426.249C294.175 426.233 292.445 427.344 292.445 428.979C292.445 430.582 294.175 431.709 296.556 431.693C298.937 431.709 300.683 430.582 300.683 428.979C300.683 427.344 298.937 426.233 296.556 426.249ZM294.445 435.756H298.715V432.217C298.072 432.407 297.342 432.502 296.556 432.502C295.786 432.502 295.072 432.407 294.445 432.233V435.756ZM306.168 425.757L305.01 429.868H304.073L304.962 425.757H306.168Z" fill="white"/>
<rect x="0.00439453" y="774.692" width="405" height="101.769" fill="white"/>
<mask id="path-83-inside-1_401_20823" fill="white">
<path d="M16.6211 775.73H388.39V847.884H16.6211V775.73Z"/>
</mask>
<path d="M16.6211 775.73H388.39V847.884H16.6211V775.73Z" fill="white"/>
<path d="M16.6211 776.768H388.39V774.691H16.6211V776.768Z" fill="#D2D6D8" mask="url(#path-83-inside-1_401_20823)"/>
<path d="M30.3284 810.207V822.668H44.4515V810.207M27.0054 812.699L37.39 803.56L47.7746 812.699" stroke="#D2D6D8" stroke-width="2.07692" stroke-linecap="round" stroke-linejoin="round"/>
<path d="M41.2778 843.445V846.859H33.1172V843.445H41.2778ZM34.3564 844.407V845.897H40.0649V844.407H34.3564ZM41.9897 836.128V837.09H32.3789V836.128H36.5845V835.033H37.8369V836.128H41.9897ZM37.2041 837.512C39.6958 837.512 41.0801 838.079 41.0801 839.186C41.0801 840.195 39.9265 840.755 37.8369 840.847V841.652H42.5962V842.64H31.8252V841.652H36.5845V840.847C34.4949 840.755 33.3149 840.195 33.3281 839.186C33.3149 838.079 34.7256 837.512 37.2041 837.512ZM37.2041 838.369C35.5562 838.382 34.6597 838.646 34.6597 839.186C34.6597 839.714 35.5562 840.004 37.2041 840.004C38.8652 840.004 39.7485 839.714 39.7485 839.186C39.7485 838.646 38.8652 838.382 37.2041 838.369Z" fill="#D2D6D8"/>
<path d="M127.046 818.081L132.464 823.499" stroke="#D2D6D8" stroke-width="2.07692" stroke-linecap="round" stroke-linejoin="round"/>
<path d="M120.279 819.887C125.017 819.887 128.858 816.046 128.858 811.308C128.858 806.571 125.017 802.73 120.279 802.73C115.541 802.73 111.701 806.571 111.701 811.308C111.701 816.046 115.541 819.887 120.279 819.887Z" stroke="#D2D6D8" stroke-width="2.07692" stroke-linecap="round" stroke-linejoin="round"/>
<path d="M121.828 844.499V845.528H111.018V844.499H115.79V841.704H117.042V844.499H121.828ZM117.056 837.341C117.056 839.147 119.099 840.755 121.354 841.111L120.853 842.1C118.948 841.737 117.188 840.63 116.423 839.081C115.652 840.65 113.905 841.79 112.033 842.153L111.519 841.164C113.72 840.795 115.75 839.147 115.75 837.341V837.235H111.914V836.207H120.892V837.235H117.056V837.341ZM131.416 835.192V847.004H130.163V835.192H131.416ZM121.713 843.787C122.682 843.781 123.796 843.774 124.956 843.735V842.561C123.571 842.383 122.675 841.573 122.688 840.412C122.675 839.081 123.835 838.198 125.549 838.198C127.276 838.198 128.463 839.081 128.463 840.412C128.463 841.559 127.566 842.364 126.195 842.548V843.695C127.289 843.649 128.397 843.563 129.438 843.431L129.53 844.367C126.907 844.802 124.046 844.829 121.884 844.829L121.713 843.787ZM129.174 836.602V837.604H121.963V836.602H124.956V835.218H126.208V836.602H129.174ZM125.549 839.173C124.56 839.173 123.861 839.661 123.875 840.412C123.861 841.164 124.56 841.625 125.549 841.625C126.564 841.625 127.263 841.164 127.263 840.412C127.263 839.661 126.564 839.173 125.549 839.173Z" fill="#D2D6D8"/>
<path d="M196.39 802.73V823.499H217.159M202.206 818.514V814.361M208.852 818.514V809.376M215.498 818.514V804.391" stroke="#485760" stroke-width="2.07692" stroke-linecap="round" stroke-linejoin="round"/>
<path d="M206.507 841.375V842.377H201.814V844.552H200.575V842.377H195.697V841.375H206.507ZM205.308 845.739V846.754H197.042V843.524H198.281V845.739H205.308ZM198.36 835.561V836.998H203.831V835.561H205.083V840.333H197.121V835.561H198.36ZM198.36 839.331H203.831V837.934H198.36V839.331ZM210.505 837.077C210.492 838.646 211.573 840.122 213.353 840.716L212.667 841.718C211.362 841.25 210.4 840.294 209.899 839.094C209.378 840.412 208.376 841.447 206.998 841.968L206.326 840.953C208.172 840.307 209.239 838.751 209.253 837.011V835.798H210.505V837.077ZM216.187 842.812V847.004H214.935V843.801H208.185V842.812H216.187ZM216.187 835.192V842.192H214.935V838.606H212.443V837.578H214.935V835.192H216.187Z" fill="#485760"/>
<g opacity="0.3">
<path d="M300.489 810.303C299.109 806.663 295.593 804.074 291.473 804.074C287.354 804.074 283.837 806.66 282.457 810.3C279.875 810.978 277.967 813.328 277.967 816.128C277.967 819.458 280.664 822.155 283.991 822.155H298.944C302.27 822.155 304.967 819.458 304.967 816.128C304.967 813.334 303.066 810.984 300.489 810.303ZM301.583 818.771C301.237 819.118 300.826 819.394 300.373 819.582C299.92 819.77 299.434 819.866 298.944 819.865H283.991C282.994 819.865 282.056 819.476 281.351 818.771C281.003 818.424 280.728 818.012 280.54 817.559C280.352 817.105 280.256 816.619 280.257 816.128C280.257 815.284 280.532 814.492 281.047 813.829C281.552 813.186 282.25 812.725 283.039 812.512L284.181 812.214L284.6 811.111C284.859 810.424 285.221 809.782 285.676 809.2C286.125 808.624 286.657 808.117 287.255 807.696C288.493 806.826 289.952 806.365 291.473 806.365C292.995 806.365 294.454 806.826 295.692 807.696C296.292 808.118 296.822 808.625 297.271 809.2C297.726 809.782 298.088 810.427 298.347 811.111L298.763 812.211L299.902 812.512C301.538 812.949 302.677 814.434 302.677 816.128C302.677 817.125 302.288 818.066 301.583 818.771Z" fill="#485760"/>
<path d="M283.893 836.339V845.884H282.443V836.339H283.893ZM293.085 841.111C293.085 844.156 291.253 846.015 288.787 846.015C286.296 846.015 284.476 844.156 284.476 841.111C284.476 838.052 286.296 836.207 288.787 836.207C291.253 836.207 293.085 838.052 293.085 841.111ZM291.648 841.111C291.648 838.791 290.422 837.538 288.787 837.538C287.139 837.538 285.913 838.791 285.913 841.111C285.913 843.431 287.139 844.684 288.787 844.684C290.422 844.684 291.648 843.431 291.648 841.111ZM292.798 837.591V836.339H300.194V837.591H297.228V845.884H295.778V837.591H292.798Z" fill="#485760"/>
</g>
<path d="M363.902 815.511C363.266 815.511 362.657 815.258 362.207 814.809C361.758 814.359 361.505 813.75 361.505 813.114C361.505 812.479 361.758 811.869 362.207 811.42C362.657 810.97 363.266 810.718 363.902 810.718C364.537 810.718 365.147 810.97 365.596 811.42C366.046 811.869 366.298 812.479 366.298 813.114C366.298 813.75 366.046 814.359 365.596 814.809C365.147 815.258 364.537 815.511 363.902 815.511ZM371.89 815.511C371.254 815.511 370.645 815.258 370.195 814.809C369.746 814.359 369.494 813.75 369.494 813.114C369.494 812.479 369.746 811.869 370.195 811.42C370.645 810.97 371.254 810.718 371.89 810.718C372.526 810.718 373.135 810.97 373.585 811.42C374.034 811.869 374.286 812.479 374.286 813.114C374.286 813.75 374.034 814.359 373.585 814.809C373.135 815.258 372.526 815.511 371.89 815.511ZM379.878 815.511C379.243 815.511 378.633 815.258 378.184 814.809C377.734 814.359 377.482 813.75 377.482 813.114C377.482 812.479 377.734 811.869 378.184 811.42C378.633 810.97 379.243 810.718 379.878 810.718C380.514 810.718 381.123 810.97 381.573 811.42C382.022 811.869 382.275 812.479 382.275 813.114C382.275 813.75 382.022 814.359 381.573 814.809C381.123 815.258 380.514 815.511 379.878 815.511Z" fill="#D2D6D8"/>
<path d="M361.824 834.529V835.57H357.671V841.331C359.648 841.325 361.013 841.252 362.562 840.949L362.707 841.977C361.006 842.294 359.569 842.373 357.341 842.373H356.405V834.529H361.824ZM365.687 833.434V845.273H364.434V838.695H361.151V837.653H364.434V833.434H365.687ZM377.265 842.742V843.783H366.454V842.742H371.213V840.316H367.693V834.239H368.946V836.269H374.747V834.239H375.986V840.316H372.453V842.742H377.265ZM368.946 839.301H374.747V837.284H368.946V839.301ZM386.905 833.434V845.247H385.639V833.434H386.905ZM383.385 834.7C383.385 838.154 381.908 841.16 377.861 843.098L377.202 842.083C380.346 840.586 381.875 838.457 382.119 835.702H377.769V834.7H383.385Z" fill="#D2D6D8"/>
<rect x="31.1572" y="68.1119" width="3.57442" height="11.9147" fill="#232323"/>
<rect x="41.2866" y="76.4508" width="3.57442" height="9.53177" transform="rotate(90 41.2866 76.4508)" fill="#232323"/>
<rect x="68.0938" y="76.4508" width="3.57442" height="13.1062" transform="rotate(90 68.0938 76.4508)" fill="#232323"/>
<rect x="63.3276" y="90.1528" width="3.57442" height="12.5105" transform="rotate(-180 63.3276 90.1528)" fill="#232323"/>
<path d="M31.1613 68.1137L34.1361 71.0909L24.0086 83.0057L21.0303 80.0273L31.1613 68.1137Z" fill="#575556" fill-opacity="0.5"/>
<rect x="31.1572" y="80.0255" width="3.57442" height="10.1275" transform="rotate(90 31.1572 80.0255)" fill="#232323"/>
<path d="M34.7339 90.1528L31.1595 90.1528L31.1595 80.0253C33.1336 80.0253 34.7339 81.6256 34.7339 83.5997L34.7339 90.1528Z" fill="#232323"/>
<path d="M37.7139 88.3666H40.2373C41.4498 88.3666 42.5796 87.752 43.2383 86.734L47.6786 79.8717C48.3373 78.8538 49.4671 78.2391 50.6796 78.2391H53.5009" stroke="#232323" stroke-width="3.57442"/>
<rect x="72.2651" y="83.5994" width="1.19147" height="8.93604" transform="rotate(-90 72.2651 83.5994)" fill="#232323"/>
<rect x="81.2417" y="90.1527" width="1.19147" height="13.7019" transform="rotate(-180 81.2417 90.1527)" fill="#232323"/>
<rect x="73.4546" y="90.1719" width="1.19147" height="13.7019" transform="rotate(-180 73.4546 90.1719)" fill="#232323"/>
<path d="M92.5611 83.3018C92.5611 86.9007 90.2996 89.557 87.7952 89.557C85.2908 89.557 83.0293 86.9007 83.0293 83.3018C83.0293 79.7029 85.2908 77.0465 87.7952 77.0465C90.2996 77.0465 92.5611 79.7029 92.5611 83.3018Z" stroke="#232323" stroke-width="1.19147"/>
<path d="M99.7122 88.9614L98.5207 88.9614L102.691 76.451L103.882 76.451L99.7122 88.9614Z" fill="#232323"/>
<path d="M99.7134 88.9614L98.5219 88.9614L94.3518 76.451L95.5432 76.451L99.7134 88.9614Z" fill="#232323"/>
<rect x="103.882" y="90.1528" width="1.19147" height="13.7019" transform="rotate(-180 103.882 90.1528)" fill="#232323"/>
<rect x="95.5396" y="90.1528" width="1.19147" height="13.7019" transform="rotate(-180 95.5396 90.1528)" fill="#232323"/>
<path fill-rule="evenodd" clip-rule="evenodd" d="M105.074 90.1527H106.861V90.1526H112.691V88.9612L106.861 88.9612L106.861 84.1953H111.5V83.0039H106.861L106.861 77.6425L112.818 77.6425V76.4511L106.861 76.4511V76.4508C105.874 76.4508 105.074 77.251 105.074 78.238V90.1527Z" fill="#232323"/>
<path d="M123.501 77.6427L122.21 76.3519L122.21 72.4797L123.501 71.1889L124.792 72.4797L124.792 76.3519L123.501 77.6427Z" fill="#DC8772"/>
<path d="M123.501 69.8002L122.21 68.5094L122.21 64.6371L123.501 63.3464L124.792 64.6371L124.792 68.5094L123.501 69.8002Z" fill="#86A6D9"/>
<path d="M124.195 70.4939L125.486 69.2031L129.358 69.2031L130.649 70.4939L129.358 71.7847L125.486 71.7847L124.195 70.4939Z" fill="#F5C851"/>
<path d="M116.351 70.4939L117.642 69.2031L121.514 69.2031L122.805 70.4939L121.514 71.7847L117.642 71.7847L116.351 70.4939Z" fill="#87D5D7"/>
<path d="M364.539 72.2374C364.098 72.2374 363.675 72.4033 363.364 72.6984C363.052 72.9936 362.877 73.394 362.877 73.8114C362.877 73.8791 362.894 73.9436 362.903 74.0082C360.031 74.7031 357.892 77.1742 357.892 80.1073V87.1902C357.892 87.6357 357.532 87.9772 357.062 87.9772H356.231V89.5512H362.203C362.103 89.803 362.05 90.0693 362.046 90.3382C362.046 91.6328 363.172 92.6991 364.539 92.6991C365.905 92.6991 367.031 91.6328 367.031 90.3382C367.027 90.0693 366.975 89.803 366.875 89.5512H372.846V87.9772H372.016C371.545 87.9772 371.185 87.6357 371.185 87.1902V80.3285C371.185 77.371 369.098 74.733 366.174 74.0082C366.184 73.9436 366.2 73.8791 366.2 73.8114C366.2 73.394 366.025 72.9936 365.714 72.6984C365.402 72.4033 364.979 72.2374 364.539 72.2374ZM364.175 75.3854C364.295 75.3759 364.416 75.3854 364.539 75.3854H364.695C367.407 75.4625 369.523 77.7149 369.523 80.3285V87.1902C369.523 87.4672 369.585 87.7285 369.679 87.9772H359.399C359.498 87.7254 359.551 87.4591 359.554 87.1902V80.1073C359.552 78.9126 360.027 77.7614 360.884 76.8853C361.742 76.0092 362.918 75.4733 364.176 75.3854H364.175ZM364.539 89.5512C365.006 89.5512 365.369 89.8959 365.369 90.3382C365.369 90.7812 365.006 91.1252 364.539 91.1252C364.071 91.1252 363.708 90.7805 363.708 90.3382C363.708 89.8951 364.072 89.5512 364.539 89.5512Z" fill="#232323"/>
<rect x="366.538" y="67.2245" width="16.6154" height="16.6154" rx="8.30769" fill="#DD8382"/>
<path d="M371.995 79.5322V78.7209L374.54 76.1552C375.341 75.3135 375.747 74.847 375.747 74.2081C375.747 73.4881 375.159 73.0216 374.388 73.0216C373.577 73.0216 373.049 73.5388 373.049 74.3196H371.995C371.985 72.981 373.009 72.0886 374.408 72.0886C375.828 72.0886 376.802 72.981 376.812 74.1777C376.802 74.9991 376.416 75.6481 375.037 77.0071L373.546 78.5181V78.579H376.934V79.5322H371.995Z" fill="white"/>
<path d="M30.3511 512.656C30.3354 515.25 31.6948 517.844 33.9917 518.828L32.9604 520.219C31.3354 519.469 30.1401 517.969 29.4917 516.125C28.8433 518.117 27.6323 519.742 25.9136 520.547L24.8511 519.094C27.2104 518.078 28.5854 515.375 28.5854 512.656V510.406H30.3511V512.656ZM36.7573 509.266V523.406H35.0073V509.266H36.7573ZM49.8961 509.266V513.328H51.8648V514.781H49.8961V519.453H48.1304V509.266H49.8961ZM46.0523 510.344C46.0523 514.094 43.6148 516.766 39.4273 517.984L38.7086 516.609C41.9351 515.68 43.857 513.922 44.1617 511.766H39.3023V510.344H46.0523ZM50.4273 521.703V523.109H40.8179V518.406H42.5836V521.703H50.4273ZM64.3317 509.266V516.562H62.5973V515.031H59.7536V516.109H53.1442V509.891H54.8786V511.672H58.0348V509.891H59.7536V511.141H62.5973V509.266H64.3317ZM64.3317 517.141V520.766H56.7692V521.844H64.7848V523.219H55.0348V519.484H62.5973V518.5H55.0192V517.141H64.3317ZM54.8786 514.734H58.0348V513H54.8786V514.734ZM59.7536 513.703H62.5973V512.453H59.7536V513.703ZM75.0154 512.656C74.9998 515.172 76.2654 517.734 78.4529 518.781L77.3904 520.172C75.8592 519.398 74.7576 517.906 74.1561 516.109C73.5389 518.031 72.3826 519.625 70.7654 520.438L69.7029 519.047C71.9686 517.969 73.2654 515.266 73.2811 512.656V510.406H75.0154V512.656ZM81.0311 509.266V514.797H83.2029V516.281H81.0311V523.391H79.2967V509.266H81.0311ZM96.5917 516.062V517.453H83.7167V516.062H86.7167V514.266C85.6542 513.82 85.0448 513.109 85.0448 512.188C85.0448 510.5 87.0292 509.5 90.1386 509.5C93.2479 509.5 95.2167 510.5 95.2323 512.188C95.2245 513.117 94.6151 513.828 93.5448 514.266V516.062H96.5917ZM90.1386 518.312C93.1854 518.297 95.0136 519.203 95.0292 520.828C95.0136 522.469 93.1854 523.359 90.1386 523.359C87.0604 523.359 85.2167 522.469 85.2167 520.828C85.2167 519.203 87.0604 518.297 90.1386 518.312ZM90.1386 519.625C88.0761 519.625 86.9667 520.031 86.9823 520.828C86.9667 521.625 88.0761 522.047 90.1386 522.047C92.1542 522.047 93.2792 521.625 93.2948 520.828C93.2792 520.031 92.1542 519.625 90.1386 519.625ZM90.1386 510.844C88.0448 510.844 86.8417 511.312 86.8573 512.188C86.8417 513.047 88.0448 513.5 90.1386 513.5C92.2167 513.5 93.4354 513.047 93.4354 512.188C93.4354 511.312 92.2167 510.844 90.1386 510.844ZM88.4667 516.062H91.8104V514.719C91.3026 514.789 90.7401 514.828 90.1386 514.828C89.537 514.828 88.9745 514.789 88.4667 514.719V516.062ZM110.59 511.281V512.719H108.605V514.25H110.59V515.703H108.605V517.812H106.871V509.281H108.605V511.281H110.59ZM104.449 510.141V514.203H99.7461V515.688C102.145 515.672 103.785 515.586 105.715 515.266L105.902 516.656C103.793 517.031 101.965 517.125 99.1679 517.109H98.0117V512.891H102.746V511.516H97.9961V510.141H104.449ZM103.996 518.078C106.902 518.094 108.73 519.078 108.746 520.75C108.73 522.406 106.902 523.359 103.996 523.359C101.027 523.359 99.2148 522.406 99.2148 520.75C99.2148 519.078 101.027 518.094 103.996 518.078ZM103.996 519.438C102.027 519.438 100.902 519.906 100.918 520.75C100.902 521.594 102.027 522.047 103.996 522.047C105.949 522.047 107.027 521.594 107.027 520.75C107.027 519.906 105.949 519.438 103.996 519.438ZM126.68 509.266V523.406H124.93V509.266H126.68ZM117.414 510.422V513.953H120.836V510.422H122.555V520.078H115.68V510.422H117.414ZM117.414 518.656H120.836V515.312H117.414V518.656ZM140.256 510.562V512C140.256 513.75 140.256 515.656 139.74 518.422L138.037 518.25C138.522 515.641 138.522 513.703 138.522 512V511.953H129.975V510.562H140.256ZM141.553 520.141V521.562H128.678V520.141H131.569V515.641H133.303V520.141H135.1V515.641H136.803V520.141H141.553Z" fill="#232323"/>
</g>
<defs>
<filter id="filter0_f_401_20823" x="96.5076" y="425.066" width="7.61863" height="7.0643" filterUnits="userSpaceOnUse" color-interpolation-filters="sRGB">
<feFlood flood-opacity="0" result="BackgroundImageFix"/>
<feBlend mode="normal" in="SourceGraphic" in2="BackgroundImageFix" result="shape"/>
<feGaussianBlur stdDeviation="0.634881" result="effect1_foregroundBlur_401_20823"/>
</filter>
<filter id="filter1_f_401_20823" x="103.809" y="424.907" width="7.61863" height="7.0643" filterUnits="userSpaceOnUse" color-interpolation-filters="sRGB">
<feFlood flood-opacity="0" result="BackgroundImageFix"/>
<feBlend mode="normal" in="SourceGraphic" in2="BackgroundImageFix" result="shape"/>
<feGaussianBlur stdDeviation="0.634881" result="effect1_foregroundBlur_401_20823"/>
</filter>
<linearGradient id="paint0_linear_401_20823" x1="225.008" y1="593.533" x2="63.0083" y2="593.533" gradientUnits="userSpaceOnUse">
<stop stop-color="#D8DBE0"/>
<stop offset="1" stop-color="#D8DBE0" stop-opacity="0.4"/>
</linearGradient>
<linearGradient id="paint1_linear_401_20823" x1="179.355" y1="622.61" x2="63.0469" y2="622.61" gradientUnits="userSpaceOnUse">
<stop stop-color="#D8DBE0"/>
<stop offset="1" stop-color="#D8DBE0" stop-opacity="0.4"/>
</linearGradient>
<linearGradient id="paint2_linear_401_20823" x1="288.008" y1="651.533" x2="63.0083" y2="651.533" gradientUnits="userSpaceOnUse">
<stop stop-color="#D8DBE0"/>
<stop offset="1" stop-color="#D8DBE0" stop-opacity="0.4"/>
</linearGradient>
<linearGradient id="paint3_linear_401_20823" x1="275.008" y1="680.802" x2="63.0083" y2="680.802" gradientUnits="userSpaceOnUse">
<stop stop-color="#D8DBE0"/>
<stop offset="1" stop-color="#D8DBE0" stop-opacity="0.4"/>
</linearGradient>
<linearGradient id="paint4_linear_401_20823" x1="261.854" y1="710.071" x2="62.8545" y2="710.071" gradientUnits="userSpaceOnUse">
<stop stop-color="#D8DBE0"/>
<stop offset="1" stop-color="#D8DBE0" stop-opacity="0.4"/>
</linearGradient>
<linearGradient id="paint5_linear_401_20823" x1="203.854" y1="740.033" x2="60.8545" y2="740.033" gradientUnits="userSpaceOnUse">
<stop stop-color="#D8DBE0"/>
<stop offset="1" stop-color="#D8DBE0" stop-opacity="0.4"/>
</linearGradient>
<linearGradient id="paint6_linear_401_20823" x1="293.393" y1="769.148" x2="62.8545" y2="769.149" gradientUnits="userSpaceOnUse">
<stop stop-color="#D8DBE0"/>
<stop offset="1" stop-color="#D8DBE0" stop-opacity="0.4"/>
</linearGradient>
<radialGradient id="paint7_radial_401_20823" cx="0" cy="0" r="1" gradientUnits="userSpaceOnUse" gradientTransform="translate(110.475 427.288) rotate(131.878) scale(24.7278)">
<stop stop-color="#FFF478"/>
<stop offset="0.474827" stop-color="#FFB02E"/>
<stop offset="1" stop-color="#F70A8D"/>
</radialGradient>
<radialGradient id="paint8_radial_401_20823" cx="0" cy="0" r="1" gradientUnits="userSpaceOnUse" gradientTransform="translate(104.444 429.51) rotate(101.31) scale(11.3304 14.5121)">
<stop offset="0.787821" stop-color="#F59639" stop-opacity="0"/>
<stop offset="0.972509" stop-color="#FF7DCE"/>
</radialGradient>
<radialGradient id="paint9_radial_401_20823" cx="0" cy="0" r="1" gradientUnits="userSpaceOnUse" gradientTransform="translate(105.713 430.463) rotate(135) scale(26.0379)">
<stop offset="0.314853" stop-opacity="0"/>
<stop offset="1"/>
</radialGradient>
<radialGradient id="paint10_radial_401_20823" cx="0" cy="0" r="1" gradientUnits="userSpaceOnUse" gradientTransform="translate(104.444 432.367) rotate(77.692) scale(17.87)">
<stop offset="0.507903" stop-color="#7D6133" stop-opacity="0"/>
<stop offset="1" stop-color="#715B32"/>
</radialGradient>
<radialGradient id="paint11_radial_401_20823" cx="0" cy="0" r="1" gradientUnits="userSpaceOnUse" gradientTransform="translate(104.761 432.05) rotate(55.7131) scale(8.45251 6.1268)">
<stop stop-color="#FFB849"/>
<stop offset="1" stop-color="#FFB847" stop-opacity="0"/>
</radialGradient>
<radialGradient id="paint12_radial_401_20823" cx="0" cy="0" r="1" gradientUnits="userSpaceOnUse" gradientTransform="translate(107.3 433.002) rotate(9.86581) scale(7.41072)">
<stop stop-color="#FFA64B"/>
<stop offset="0.900412" stop-color="#FFAE46" stop-opacity="0"/>
</radialGradient>
<radialGradient id="paint13_radial_401_20823" cx="0" cy="0" r="1" gradientUnits="userSpaceOnUse" gradientTransform="translate(105.396 431.098) rotate(43.9708) scale(37.4916)">
<stop offset="0.185425" stop-opacity="0"/>
<stop offset="1" stop-opacity="0.4"/>
</radialGradient>
<linearGradient id="paint14_linear_401_20823" x1="108.351" y1="426.019" x2="107.443" y2="430.24" gradientUnits="userSpaceOnUse">
<stop stop-color="#553B3E"/>
<stop offset="1" stop-color="#3D2432"/>
</linearGradient>
<radialGradient id="paint15_radial_401_20823" cx="0" cy="0" r="1" gradientUnits="userSpaceOnUse" gradientTransform="translate(104.444 438.716) rotate(-90) scale(6.98369 13.9674)">
<stop stop-color="#F70A8D"/>
<stop offset="1" stop-color="#89029C"/>
</radialGradient>
<linearGradient id="paint16_linear_401_20823" x1="104.444" y1="431.732" x2="104.444" y2="432.685" gradientUnits="userSpaceOnUse">
<stop stop-color="#ECCDFF"/>
<stop offset="1" stop-color="white"/>
</linearGradient>
<clipPath id="clip0_401_20823">
<rect width="405" height="876.462" rx="31.1538" fill="white"/>
</clipPath>
<clipPath id="clip1_401_20823">
<rect width="20.7641" height="14.5349" fill="white" transform="translate(301.079 18.6871)"/>
</clipPath>
<clipPath id="clip2_401_20823">
<rect width="20.3162" height="20.3162" fill="white" transform="translate(94.2856 421.574)"/>
</clipPath>
</defs>
</svg>
