<svg width="392" height="849" viewBox="0 0 392 849" fill="none" xmlns="http://www.w3.org/2000/svg">
<g clip-path="url(#clip0_401_20334)">
<rect width="392" height="848.328" rx="30.1538" fill="white"/>
<rect width="392" height="155.795" fill="white"/>
<path d="M28.4415 130.837V141.202H26.6982V136.004H24.1854V134.59H26.6982V130.837H28.4415ZM28.8027 143.322V144.736H19.1283V140.291H20.8716V143.322H28.8027ZM21.7668 133.664C21.7668 135.375 22.9133 137.134 25.112 137.857L24.2325 139.255C22.6463 138.713 21.5234 137.637 20.903 136.286C20.2748 137.786 19.0891 138.972 17.4165 139.553L16.5213 138.14C18.7828 137.401 19.9921 135.532 19.9921 133.648V133.271H17.0396V131.857H24.7037V133.271H21.7668V133.664ZM34.7863 135.156C34.7863 137.354 35.6972 139.569 37.6761 140.637L36.7024 141.924C35.3831 141.226 34.488 139.977 33.9854 138.485C33.4828 140.095 32.5876 141.469 31.2527 142.254L30.2319 140.935C32.2421 139.773 33.1373 137.401 33.1373 135.156V134.716H30.7187V133.302H33.1373V131.323H34.7863V133.302H37.1578V134.716H34.7863V135.156ZM42.6703 130.821V145.018H41.0056V130.821H42.6703ZM39.7806 131.088V144.327H38.1315V137.715H36.2783V136.271H38.1315V131.088H39.7806Z" fill="#454545" fill-opacity="0.3"/>
<path d="M69.582 130.821V145.018H67.9015V130.821H69.582ZM66.6608 131.072V144.327H64.9961V137.574H63.6455C63.4806 140.338 62.2948 142.05 60.5358 142.034C58.6826 142.05 57.4733 140.087 57.4733 136.962C57.4733 133.836 58.6826 131.905 60.5358 131.905C62.2556 131.905 63.4256 133.507 63.6297 136.161H64.9961V131.072H66.6608ZM60.5358 133.554C59.6406 133.538 59.0753 134.747 59.091 136.962C59.0753 139.176 59.6406 140.385 60.5358 140.37C61.4781 140.385 62.0435 139.176 62.0435 136.962C62.0435 134.747 61.4781 133.538 60.5358 133.554ZM83.1512 130.821V145.034H81.408V136.726H77.3403V135.313H81.408V130.821H83.1512ZM73.7281 132.376V140.213C75.6363 140.181 77.5288 140.032 79.5233 139.647L79.7275 141.076C77.4346 141.548 75.3144 141.673 73.1471 141.673H71.9849V132.376H73.7281ZM90.4855 134.857C90.4855 137.182 91.8519 139.632 94.1448 140.59L93.1868 141.972C91.5064 141.249 90.2814 139.757 89.6374 137.951C88.9778 139.898 87.7371 141.532 86.0724 142.317L85.0672 140.951C87.3131 139.914 88.7108 137.276 88.7108 134.857V133.664H85.5855V132.219H93.5951V133.664H90.4855V134.857ZM96.9403 130.821V145.018H95.1813V130.821H96.9403ZM112.002 141.877V143.307H99.0291V141.877H104.62V139.113H100.458V131.763H102.202V134.088H108.782V131.763H110.525V139.113H106.348V141.877H112.002ZM102.202 137.7H108.782V135.485H102.202V137.7ZM124.519 132.124V133.491C124.503 135.25 124.503 137.229 123.953 140.197L122.194 140.008C122.744 137.244 122.744 135.226 122.76 133.522H114.279V132.124H124.519ZM125.869 141.752V143.181H112.928V141.752H117.703V136.82H119.43V141.752H125.869ZM132.073 134.229C132.073 136.867 133.329 139.459 135.591 140.448L134.538 141.846C132.929 141.061 131.798 139.553 131.193 137.7C130.573 139.655 129.419 141.281 127.785 142.113L126.686 140.699C128.994 139.616 130.282 136.883 130.298 134.229V131.967H132.073V134.229ZM138.732 130.821V145.034H137.004V136.82H134.02V135.407H137.004V130.821H138.732Z" fill="#454545" fill-opacity="0.3"/>
<path d="M166.495 131.873V132.721C166.48 133.695 166.48 135.093 166.15 136.899L164.422 136.742C164.697 135.273 164.752 134.19 164.784 133.318H159.255V131.873H166.495ZM162.915 135.108V137.935C164.383 137.88 165.891 137.77 167.265 137.574L167.359 138.831C164.407 139.365 161.061 139.412 158.564 139.427L158.407 138.03C159.248 138.022 160.19 138.014 161.187 137.998V135.108H162.915ZM169.888 130.821V135.25H171.725V136.71H169.888V141.453H168.097V130.821H169.888ZM170.343 143.322V144.736H160.528V140.511H162.286V143.322H170.343ZM184.289 130.821V145.034H182.562V130.821H184.289ZM179.923 132.062V137.386H175.039V140.244C177.277 140.228 179.209 140.118 181.415 139.741L181.572 141.171C179.154 141.595 177.034 141.673 174.489 141.673H173.249V136.004H178.149V133.475H173.233V132.062H179.923ZM198.173 130.821V145.034H196.414V130.821H198.173ZM188.86 131.983V135.532H192.299V131.983H194.027V141.689H187.116V131.983H188.86ZM188.86 140.26H192.299V136.899H188.86V140.26ZM211.459 130.79V133.993H213.454V135.407H211.459V138.532H209.716V130.79H211.459ZM211.459 139.16V142.584H203.921V143.589H211.899V144.893H202.193V141.375H209.716V140.432H202.178V139.16H211.459ZM208.695 131.967V133.302H200.277V131.967H203.622V130.711H205.366V131.967H208.695ZM204.486 133.742C206.591 133.758 207.941 134.653 207.957 136.066C207.941 137.527 206.591 138.391 204.486 138.391C202.382 138.391 201 137.527 201 136.066C201 134.653 202.382 133.758 204.486 133.742ZM204.486 134.998C203.387 134.998 202.696 135.391 202.696 136.066C202.696 136.757 203.387 137.134 204.486 137.134C205.586 137.134 206.292 136.757 206.292 136.066C206.292 135.391 205.586 134.998 204.486 134.998ZM225.986 130.837V141.092H224.228V130.837H225.986ZM226.379 143.322V144.736H216.595V140.056H218.354V143.322H226.379ZM218.244 131.763C220.395 131.763 222.06 133.255 222.06 135.313C222.06 137.417 220.395 138.878 218.244 138.878C216.077 138.878 214.412 137.417 214.412 135.313C214.412 133.255 216.077 131.763 218.244 131.763ZM218.244 133.287C217.035 133.287 216.108 134.088 216.124 135.313C216.108 136.569 217.035 137.354 218.244 137.354C219.422 137.354 220.348 136.569 220.348 135.313C220.348 134.088 219.422 133.287 218.244 133.287Z" fill="#454545"/>
<rect x="153.641" y="153.621" width="78.4" height="2.01026" rx="1.00513" fill="#454545"/>
<path d="M261.55 137.621V139.019H248.594V137.621H254.216V136.271H250.18V131.465H259.98V132.831H251.923V134.889H260.058V136.271H255.928V137.621H261.55ZM255.049 139.836C258.111 139.836 259.949 140.762 259.964 142.427C259.949 144.076 258.111 145.018 255.049 145.018C251.955 145.018 250.101 144.076 250.101 142.427C250.101 140.762 251.955 139.836 255.049 139.836ZM255.049 141.171C252.975 141.171 251.86 141.61 251.876 142.427C251.86 143.244 252.975 143.668 255.049 143.668C257.074 143.668 258.205 143.244 258.221 142.427C258.205 141.61 257.074 141.171 255.049 141.171ZM264.833 132.234V140.04C266.223 140.024 267.503 139.922 268.948 139.616L269.199 141.092C267.393 141.485 265.838 141.548 264.048 141.548H263.09V132.234H264.833ZM274.743 130.821V145.018H273.078V130.821H274.743ZM271.696 131.119V144.343H270.047V136.82H267.079V135.407H270.047V131.119H271.696ZM287.59 130.79V133.993H289.584V135.407H287.59V138.532H285.846V130.79H287.59ZM287.59 139.16V142.584H280.051V143.589H288.029V144.893H278.324V141.375H285.846V140.432H278.308V139.16H287.59ZM284.825 131.967V133.302H276.407V131.967H279.753V130.711H281.496V131.967H284.825ZM280.616 133.742C282.721 133.758 284.072 134.653 284.087 136.066C284.072 137.527 282.721 138.391 280.616 138.391C278.512 138.391 277.13 137.527 277.13 136.066C277.13 134.653 278.512 133.758 280.616 133.742ZM280.616 134.998C279.517 134.998 278.826 135.391 278.826 136.066C278.826 136.757 279.517 137.134 280.616 137.134C281.716 137.134 282.423 136.757 282.423 136.066C282.423 135.391 281.716 134.998 280.616 134.998ZM302.117 130.837V141.092H300.358V130.837H302.117ZM302.509 143.322V144.736H292.725V140.056H294.484V143.322H302.509ZM294.374 131.763C296.526 131.763 298.191 133.255 298.191 135.313C298.191 137.417 296.526 138.878 294.374 138.878C292.207 138.878 290.542 137.417 290.542 135.313C290.542 133.255 292.207 131.763 294.374 131.763ZM294.374 133.287C293.165 133.287 292.238 134.088 292.254 135.313C292.238 136.569 293.165 137.354 294.374 137.354C295.552 137.354 296.479 136.569 296.479 135.313C296.479 134.088 295.552 133.287 294.374 133.287Z" fill="#454545" fill-opacity="0.3"/>
<path d="M332.486 130.821V145.034H330.727V130.821H332.486ZM324.838 131.857C326.973 131.857 328.528 133.805 328.544 136.867C328.528 139.961 326.973 141.893 324.838 141.893C322.686 141.893 321.131 139.961 321.131 136.867C321.131 133.805 322.686 131.857 324.838 131.857ZM324.838 133.428C323.628 133.428 322.812 134.7 322.812 136.867C322.812 139.05 323.628 140.323 324.838 140.323C326.031 140.323 326.848 139.05 326.848 136.867C326.848 134.7 326.031 133.428 324.838 133.428ZM346.715 130.821V141.563H345.05V130.821H346.715ZM343.888 131.072V141.123H342.239V136.223H340.731V139.019H335.124V131.936H336.773V134.182H339.114V131.936H340.731V134.81H342.239V131.072H343.888ZM336.773 137.606H339.114V135.517H336.773V137.606ZM347.107 143.322V144.736H337.213V140.134H338.957V143.322H347.107ZM360.017 138.265V139.647H350.06V131.936H359.891V133.349H351.835V135.061H359.562V136.428H351.835V138.265H360.017ZM361.446 141.862V143.291H348.474V141.862H361.446Z" fill="#454545" fill-opacity="0.3"/>
<path d="M52.1129 19.834C54.4824 19.8507 56.8186 21.2524 56.8353 25.6743C56.8353 29.846 54.9497 32.2489 51.9794 32.2489C49.6433 32.2489 48.0414 30.7972 47.7744 28.7948H49.927C50.1439 29.7459 50.8781 30.3633 51.9794 30.3633C53.7315 30.3633 54.7161 28.8114 54.7327 26.225H54.5992C53.9818 27.2763 52.8305 27.8937 51.4955 27.8937C49.3429 27.8937 47.6743 26.2584 47.6576 23.9723C47.6576 21.6028 49.4264 19.8173 52.1129 19.834ZM52.1296 21.5861C50.778 21.5861 49.7601 22.6374 49.7768 23.9222C49.7768 25.2238 50.7446 26.2417 52.0962 26.2417C53.4312 26.2417 54.4824 25.1571 54.4658 23.9055C54.4658 22.6707 53.4812 21.5861 52.1296 21.5861ZM59.2889 30.5802C58.5713 30.5802 57.9873 29.9962 57.9873 29.2787C57.9873 28.5778 58.5713 27.9938 59.2889 27.9938C59.973 27.9938 60.5737 28.5778 60.5737 29.2787C60.5737 29.9962 59.973 30.5802 59.2889 30.5802ZM59.2889 24.1058C58.5713 24.1058 57.9873 23.5218 57.9873 22.8042C57.9873 22.1034 58.5713 21.5194 59.2889 21.5194C59.973 21.5194 60.5737 22.1034 60.5737 22.8042C60.5737 23.5218 59.973 24.1058 59.2889 24.1058ZM61.7091 29.8293V28.0939L66.932 20.0009H69.6353V28.0439H71.2205V29.8293H69.6353V32.082H67.5661V29.8293H61.7091ZM63.9284 28.0439H67.5995V22.4705H67.466L63.9284 27.9604V28.0439ZM77.0115 20.0009V32.082H74.8255V22.1201H74.7588L71.9387 23.9222V21.9365L74.9256 20.0009H77.0115Z" fill="#454545"/>
<g clip-path="url(#clip1_401_20334)">
<rect x="307.921" y="19.0974" width="3.21641" height="12.0615" rx="1.00513" fill="#454545"/>
<rect x="302.594" y="21.5098" width="3.21641" height="9.64923" rx="1.00513" fill="#454545"/>
<rect x="297.267" y="24.123" width="3.21641" height="7.0359" rx="1.00513" fill="#454545"/>
<rect x="291.939" y="26.5354" width="3.21641" height="4.62359" rx="1.00513" fill="#454545"/>
</g>
<g clip-path="url(#clip2_401_20334)">
<path d="M325.67 27.2727C326.378 27.2727 327.065 27.4585 327.67 27.8128L327.915 27.9563C328.101 28.0651 328.134 28.3198 327.981 28.4719L325.887 30.5602C325.759 30.6885 325.55 30.6885 325.421 30.5602L323.341 28.4853C323.189 28.3339 323.22 28.0805 323.405 27.9709L323.647 27.8267C324.258 27.4635 324.954 27.2727 325.67 27.2727Z" fill="#454545"/>
<path d="M325.67 23.4364C327.429 23.4364 329.118 24.0199 330.494 25.1005L330.688 25.2532C330.843 25.3749 330.857 25.6043 330.717 25.7435L329.467 26.9902C329.351 27.1056 329.168 27.1188 329.037 27.0213L328.885 26.9081C327.956 26.2175 326.835 25.8471 325.67 25.8471C324.498 25.8471 323.371 26.2221 322.439 26.9206L322.286 27.0349C322.155 27.1332 321.972 27.1202 321.856 27.0046L320.606 25.7583C320.467 25.6194 320.48 25.3906 320.634 25.2686L320.827 25.1158C322.206 24.0256 323.903 23.4364 325.67 23.4364Z" fill="#454545"/>
<path d="M325.67 19.6C328.461 19.6 331.131 20.5846 333.244 22.3894L333.424 22.5435C333.57 22.668 333.578 22.8899 333.443 23.0252L332.196 24.2679C332.076 24.3883 331.883 24.3968 331.752 24.2874L331.598 24.1584C329.934 22.7673 327.849 22.0107 325.67 22.0107C323.483 22.0107 321.392 22.7725 319.726 24.1723L319.571 24.3019C319.44 24.4118 319.247 24.4036 319.126 24.283L317.88 23.0405C317.745 22.9053 317.753 22.6838 317.898 22.5592L318.078 22.4051C320.193 20.5905 322.87 19.6 325.67 19.6Z" fill="#454545"/>
</g>
<rect x="341.744" y="20.6051" width="21.1077" height="9.04615" rx="1.33682" fill="#454545"/>
<path opacity="0.4" fill-rule="evenodd" clip-rule="evenodd" d="M345.362 19.6H359.233C360.235 19.6 360.925 19.6008 361.462 19.6446C361.986 19.6874 362.273 19.7664 362.484 19.8739C362.957 20.1148 363.342 20.4992 363.583 20.972C363.69 21.183 363.769 21.4704 363.812 21.9948C363.856 22.531 363.856 23.2219 363.856 24.2236V26.0328C363.856 27.0345 363.856 27.7253 363.812 28.2615C363.769 28.786 363.69 29.0734 363.583 29.2844C363.342 29.7572 362.957 30.1416 362.484 30.3825C362.273 30.49 361.986 30.5689 361.462 30.6118C360.925 30.6556 360.235 30.6564 359.233 30.6564H345.362C344.36 30.6564 343.67 30.6556 343.133 30.6118C342.609 30.5689 342.322 30.49 342.111 30.3825C341.638 30.1416 341.253 29.7572 341.012 29.2844C340.905 29.0734 340.826 28.786 340.783 28.2615C340.739 27.7253 340.739 27.0345 340.739 26.0328V24.2236C340.739 23.2219 340.739 22.531 340.783 21.9948C340.826 21.4704 340.905 21.183 341.012 20.972C341.253 20.4992 341.638 20.1148 342.111 19.8739C342.322 19.7664 342.609 19.6874 343.133 19.6446C343.67 19.6008 344.36 19.6 345.362 19.6ZM339.733 24.2236C339.733 22.2533 339.733 21.2682 340.117 20.5157C340.454 19.8537 340.992 19.3156 341.654 18.9783C342.407 18.5948 343.392 18.5948 345.362 18.5948H359.233C361.203 18.5948 362.188 18.5948 362.941 18.9783C363.603 19.3156 364.141 19.8537 364.478 20.5157C364.862 21.2682 364.862 22.2533 364.862 24.2236V26.0328C364.862 28.003 364.862 28.9882 364.478 29.7407C364.141 30.4026 363.603 30.9408 362.941 31.2781C362.188 31.6615 361.203 31.6615 359.233 31.6615H345.362C343.392 31.6615 342.407 31.6615 341.654 31.2781C340.992 30.9408 340.454 30.4026 340.117 29.7407C339.733 28.9882 339.733 28.003 339.733 26.0328V24.2236ZM365.867 27.1384C366.699 26.9374 367.374 26.2384 367.374 25.1282C367.374 24.0179 366.699 23.3189 365.867 23.1179L365.867 25.1282L365.867 27.1384Z" fill="#454545"/>
<rect x="123.87" y="838.277" width="144.256" height="5.02564" rx="2.51282" fill="black"/>
<path d="M24.3125 191.267C24.3037 192.778 24.18 194.209 23.8355 195.543H25.567V189.818H27.6695V204.836H25.567V197.363H23.1994C22.316 199.271 20.8142 200.949 18.3583 202.345L17.1039 200.808C19.1446 199.624 20.4167 198.29 21.1853 196.727L17.4396 197.115L17.1922 195.207L21.8213 194.96C21.9627 194.359 22.051 193.732 22.104 193.069H17.9873V191.267H24.3125ZM31.0972 189.465V205.543H28.977V189.465H31.0972ZM35.8323 190.614V192.928H39.2069V190.614H41.4508V198.759H33.606V190.614H35.8323ZM35.8323 196.992H39.2069V194.642H35.8323V196.992ZM46.2565 189.483V201.285H43.995V189.483H46.2565ZM46.6276 203.458V205.261H35.4435V200.101H37.7051V203.458H46.6276ZM62.2463 189.483V198.405H60.1085V194.836H58.7127V198.317H56.6101V189.73H58.7127V193.069H60.1085V189.483H62.2463ZM53.4829 199.059V200.419H60.0201V199.059H62.2463V205.367H51.2567V199.059H53.4829ZM53.4829 203.564H60.0201V202.169H53.4829V203.564ZM55.1967 190.295V194.872H51.2567V196.144C53.0146 196.126 54.3221 196.055 55.8504 195.755L56.0448 197.557C54.1719 197.875 52.5818 197.946 50.1966 197.946H49.0835V193.228H53.0235V192.062H49.0658V190.295H55.1967ZM77.5117 189.465V198.494H75.2678V189.465H77.5117ZM67.2464 190.384V195.808C69.6847 195.79 71.7518 195.614 73.9074 195.154L74.1724 196.974C71.6635 197.504 69.2606 197.698 66.3807 197.698H64.9849V190.384H67.2464ZM77.5117 199.147V205.349H66.7694V199.147H77.5117ZM68.9779 200.914V203.582H75.3032V200.914H68.9779ZM93.1128 190.861V191.691C93.0951 192.716 93.0951 194.289 92.7064 196.338L91.3106 196.232C91.6905 194.35 91.7258 193.016 91.7523 192.027H85.2857V190.861H93.1128ZM89.0667 194.342V197.716C90.8071 197.645 92.6092 197.522 94.2435 197.292L94.3319 198.317C91.0456 198.882 87.2469 198.953 84.4553 198.953L84.314 197.805C85.3299 197.796 86.4783 197.787 87.6886 197.751V194.342H89.0667ZM96.7171 189.642V194.766H99.014V195.949H96.7171V201.462H95.3036V189.642H96.7171ZM97.2295 203.847V205.013H86.7345V200.402H88.1303V203.847H97.2295ZM113.007 189.642V205.384H111.629V189.642H113.007ZM108.237 191.108V196.691H102.371V200.402C104.977 200.402 107.3 200.287 110.11 199.836L110.251 201.002C107.353 201.462 104.968 201.568 102.265 201.568H100.957V195.561H106.841V192.257H100.922V191.108H108.237ZM128.626 189.642V205.384H127.23V189.642H128.626ZM117.972 190.985V195.137H122.654V190.985H124.015V201.586H116.594V190.985H117.972ZM117.972 200.419H122.654V196.25H117.972V200.419ZM148.132 189.589V193.405H150.517V194.554H148.132V198.282H146.754V189.589H148.132ZM148.132 199.094V202.575H139.51V204.112H148.715V205.172H138.149V201.55H146.754V200.137H138.114V199.094H148.132ZM145.252 191.073V192.186H135.888V191.073H139.881V189.483H141.259V191.073H145.252ZM140.57 192.893C142.849 192.893 144.333 193.882 144.351 195.472C144.333 197.062 142.849 198.052 140.57 198.052C138.273 198.052 136.771 197.062 136.789 195.472C136.771 193.882 138.273 192.893 140.57 192.893ZM140.57 193.917C139.086 193.917 138.096 194.536 138.114 195.472C138.096 196.426 139.086 197.009 140.57 197.009C142.054 197.009 143.026 196.426 143.043 195.472C143.026 194.536 142.054 193.917 140.57 193.917ZM164.457 189.659V201.144H163.079V189.659H164.457ZM164.952 203.847V205.013H154.316V199.978H155.694V203.847H164.952ZM155.976 190.755C158.326 190.755 160.093 192.345 160.093 194.607C160.093 196.903 158.326 198.476 155.976 198.476C153.627 198.476 151.86 196.903 151.86 194.607C151.86 192.345 153.627 190.755 155.976 190.755ZM155.976 191.974C154.386 191.974 153.203 193.069 153.22 194.607C153.203 196.179 154.386 197.257 155.976 197.257C157.531 197.257 158.733 196.179 158.733 194.607C158.733 193.069 157.531 191.974 155.976 191.974Z" fill="#454545"/>
<path d="M326.943 191.126V203.918H324.275V193.652H324.204L321.271 195.49V193.14L324.434 191.126H326.943ZM334.611 204.094C331.943 204.094 329.999 202.522 329.946 200.313H332.526C332.579 201.32 333.498 201.992 334.611 201.992C335.936 201.992 336.872 201.055 336.872 199.73C336.872 198.37 335.918 197.433 334.575 197.416C333.621 197.416 332.95 197.769 332.561 198.494H330.158L330.847 191.126H338.728V193.299H333.038L332.685 196.532H332.791C333.268 195.896 334.222 195.455 335.353 195.455C337.703 195.455 339.452 197.204 339.452 199.66C339.452 202.239 337.491 204.094 334.611 204.094ZM346.219 204.094C343.021 204.094 341.077 201.709 341.077 197.522C341.077 193.334 343.021 190.949 346.219 190.949C349.417 190.949 351.36 193.352 351.36 197.522C351.36 201.727 349.417 204.094 346.219 204.094ZM346.219 201.904C347.703 201.904 348.657 200.472 348.639 197.522C348.639 194.607 347.703 193.122 346.219 193.122C344.735 193.122 343.798 194.607 343.798 197.522C343.781 200.472 344.735 201.904 346.219 201.904ZM358.163 204.094C354.965 204.094 353.021 201.709 353.021 197.522C353.021 193.334 354.965 190.949 358.163 190.949C361.361 190.949 363.304 193.352 363.304 197.522C363.304 201.727 361.361 204.094 358.163 204.094ZM358.163 201.904C359.647 201.904 360.601 200.472 360.583 197.522C360.583 194.607 359.647 193.122 358.163 193.122C356.679 193.122 355.742 194.607 355.742 197.522C355.724 200.472 356.679 201.904 358.163 201.904ZM365.212 203.918V191.126H370.23C373.145 191.126 374.806 192.91 374.806 195.437C374.806 197.999 373.11 199.748 370.159 199.748H367.863V203.918H365.212ZM367.863 197.61H369.735C371.308 197.61 372.068 196.727 372.068 195.437C372.068 194.165 371.308 193.299 369.735 193.299H367.863V197.61Z" fill="#3D9DFF"/>
<rect x="17.5895" y="236.523" width="356.821" height="35.1795" stroke="#E0E0E0" stroke-width="1.00513"/>
<path d="M39.6922 247.968V250.936H41.5474V251.829H39.6922V254.729H38.6203V247.968H39.6922ZM39.6922 255.361V258.068H32.9861V259.264H40.1457V260.088H31.928V257.271H38.6203V256.172H31.9005V255.361H39.6922ZM37.4522 249.122V249.988H30.169V249.122H33.2747V247.885H34.3465V249.122H37.4522ZM33.8106 250.538C35.5833 250.538 36.7377 251.307 36.7514 252.544C36.7377 253.781 35.5833 254.55 33.8106 254.55C32.0242 254.55 30.8561 253.781 30.8698 252.544C30.8561 251.307 32.0242 250.538 33.8106 250.538ZM33.8106 251.335C32.6563 251.335 31.8867 251.816 31.9005 252.544C31.8867 253.286 32.6563 253.739 33.8106 253.739C34.9649 253.739 35.7207 253.286 35.7345 252.544C35.7207 251.816 34.9649 251.335 33.8106 251.335ZM52.3898 248.023V256.955H51.3179V248.023H52.3898ZM52.7746 259.058V259.965H44.5019V256.048H45.5738V259.058H52.7746ZM45.7936 248.875C47.6213 248.875 48.9955 250.112 48.9955 251.871C48.9955 253.657 47.6213 254.88 45.7936 254.88C43.9659 254.88 42.5917 253.657 42.5917 251.871C42.5917 250.112 43.9659 248.875 45.7936 248.875ZM45.7936 249.823C44.5568 249.823 43.6361 250.675 43.6499 251.871C43.6361 253.094 44.5568 253.932 45.7936 253.932C47.0029 253.932 47.9374 253.094 47.9374 251.871C47.9374 250.675 47.0029 249.823 45.7936 249.823ZM64.0155 247.968V250.936H65.8707V251.829H64.0155V254.729H62.9436V247.968H64.0155ZM64.0155 255.361V258.068H57.3094V259.264H64.469V260.088H56.2513V257.271H62.9436V256.172H56.2238V255.361H64.0155ZM61.7756 249.122V249.988H54.4923V249.122H57.598V247.885H58.6699V249.122H61.7756ZM58.1339 250.538C59.9066 250.538 61.061 251.307 61.0747 252.544C61.061 253.781 59.9066 254.55 58.1339 254.55C56.3475 254.55 55.1794 253.781 55.1931 252.544C55.1794 251.307 56.3475 250.538 58.1339 250.538ZM58.1339 251.335C56.9796 251.335 56.2101 251.816 56.2238 252.544C56.2101 253.286 56.9796 253.739 58.1339 253.739C59.2883 253.739 60.0441 253.286 60.0578 252.544C60.0441 251.816 59.2883 251.335 58.1339 251.335ZM79.8738 248.669V249.576C79.8738 250.524 79.8738 251.637 79.5577 253.162H81.3441V254.055H70.1582V253.162H78.4721C78.8019 251.63 78.8019 250.524 78.8019 249.576V249.562H71.5736V248.669H79.8738ZM79.9287 255.746V260.061H71.5324V255.746H79.9287ZM72.6042 256.598V259.181H78.8568V256.598H72.6042ZM85.2469 248.779C86.8547 248.779 88.0502 249.974 88.0502 251.664C88.0502 253.368 86.8547 254.523 85.2469 254.523C83.6116 254.523 82.4435 253.368 82.4573 251.664C82.4435 249.974 83.6116 248.779 85.2469 248.779ZM85.2469 249.713C84.2025 249.713 83.4192 250.538 83.4329 251.664C83.4192 252.791 84.2025 253.616 85.2469 253.616C86.2913 253.616 87.0471 252.791 87.0608 251.664C87.0471 250.538 86.2913 249.713 85.2469 249.713ZM92.695 248.023V255.292H91.6644V252.063H90.0428V255.21H89.0259V248.256H90.0428V251.17H91.6644V248.023H92.695ZM92.695 255.979V260.226H91.6369V256.845H84.4636V255.979H92.695ZM100.047 248.229C102.768 248.229 104.362 248.971 104.362 250.331C104.362 251.719 102.768 252.461 100.047 252.475C97.3261 252.461 95.7183 251.719 95.7183 250.331C95.7183 248.971 97.3261 248.229 100.047 248.229ZM100.047 249.04C98.0132 249.04 96.8314 249.534 96.8451 250.331C96.8314 251.183 98.0132 251.651 100.047 251.651C102.067 251.651 103.263 251.183 103.263 250.331C103.263 249.534 102.067 249.04 100.047 249.04ZM105.612 253.3V254.179H94.4815V253.3H105.612ZM104.183 255.237V257.972H96.9276V259.236H104.554V260.088H95.8557V257.175H103.125V256.062H95.8282V255.237H104.183ZM114.352 250.318C114.352 252.022 115.589 253.629 117.376 254.275L116.771 255.114C115.431 254.578 114.366 253.513 113.844 252.187C113.322 253.664 112.209 254.839 110.766 255.416L110.189 254.536C112.016 253.863 113.281 252.159 113.294 250.276V248.765H114.352V250.318ZM120.303 248.023V257.175H119.217V251.802H116.496V250.895H119.217V248.023H120.303ZM120.578 259.058V259.965H112.401V256.131H113.487V259.058H120.578ZM127.627 248.902V249.809H123.917V251.335H127.49V252.187H123.917V253.877C125.696 253.87 126.81 253.808 128.122 253.547L128.232 254.44C126.803 254.715 125.648 254.784 123.656 254.784H122.886V248.902H127.627ZM132.712 248.023V255.43H131.681V252.09H129.963V255.347H128.96V248.256H129.963V251.211H131.681V248.023H132.712ZM132.712 256.062V260.226H131.654V256.941H124.48V256.062H132.712ZM140.6 250.125V251.005H134.471V250.125H137.013V248.38H138.085V250.125H140.6ZM137.535 251.829C139.074 251.829 140.174 252.984 140.187 254.605C140.174 256.24 139.074 257.409 137.535 257.409C136.01 257.409 134.91 256.24 134.91 254.605C134.91 252.984 136.01 251.829 137.535 251.829ZM137.535 252.736C136.573 252.75 135.872 253.533 135.872 254.605C135.872 255.691 136.573 256.474 137.535 256.46C138.511 256.474 139.225 255.691 139.225 254.605C139.225 253.533 138.511 252.75 137.535 252.736ZM144.901 248.009V260.226H143.87V254.055H142.249V259.621H141.232V248.311H142.249V253.162H143.87V248.009H144.901ZM152.83 249.741C152.816 251.376 155.001 252.764 157.131 253.08L156.733 253.932C154.823 253.609 152.967 252.592 152.225 251.115C151.483 252.592 149.621 253.609 147.745 253.932L147.319 253.08C149.436 252.764 151.621 251.376 151.621 249.741V249.658H147.704V248.779H156.733V249.658H152.83V249.741ZM157.791 254.976V255.869H152.734V260.226H151.676V255.869H146.66V254.976H157.791ZM162.449 251.486C162.449 253.423 163.398 255.526 165.019 256.488L164.401 257.326C163.226 256.612 162.381 255.306 161.955 253.822C161.501 255.443 160.594 256.838 159.371 257.587L158.684 256.776C160.374 255.787 161.405 253.616 161.405 251.527V249.163H162.449V251.486ZM169.293 248.009V260.226H168.248V248.009H169.293ZM166.764 248.27V259.607H165.747V253.313H163.672V252.393H165.747V248.27H166.764ZM182.169 257.752V258.659H170.983V257.752H173.759V254.454C172.715 253.911 172.082 253.032 172.082 251.925C172.082 250.029 173.938 248.792 176.549 248.779C179.16 248.792 181.015 250.029 181.015 251.925C181.015 253.011 180.403 253.884 179.393 254.427V257.752H182.169ZM176.549 249.672C174.542 249.658 173.127 250.565 173.127 251.925C173.127 253.286 174.542 254.207 176.549 254.207C178.541 254.207 179.97 253.286 179.97 251.925C179.97 250.565 178.541 249.658 176.549 249.672ZM174.817 257.752H178.308V254.839C177.779 254.983 177.188 255.059 176.549 255.059C175.923 255.059 175.339 254.99 174.817 254.853V257.752Z" fill="#454545"/>
<path d="M359.837 251.424L354.813 256.321L349.79 251.424C349.7 251.336 349.579 251.287 349.454 251.287C349.328 251.287 349.208 251.336 349.118 251.424C349.075 251.466 349.04 251.517 349.017 251.573C348.993 251.629 348.981 251.69 348.981 251.751C348.981 251.811 348.993 251.872 349.017 251.928C349.04 251.984 349.075 252.035 349.118 252.077L354.462 257.288C354.556 257.379 354.682 257.43 354.813 257.43C354.944 257.43 355.07 257.379 355.164 257.288L360.508 252.078C360.552 252.036 360.587 251.985 360.611 251.928C360.634 251.872 360.647 251.812 360.647 251.751C360.647 251.689 360.634 251.629 360.611 251.573C360.587 251.516 360.552 251.465 360.508 251.423C360.419 251.335 360.298 251.286 360.173 251.286C360.047 251.286 359.927 251.335 359.837 251.423V251.424Z" fill="#454545"/>
<rect x="17.0869" y="284.266" width="357.826" height="40.0615" rx="4.02051" fill="#1E7EDE"/>
<path d="M183.477 298.029V300.75H185.167V302.151H183.477V304.804H181.718V298.029H183.477ZM183.477 305.312V308.473H176.922V309.187H183.834V310.479H175.204V307.277H181.731V306.576H175.176V305.312H183.477ZM180.976 298.991V300.324H173.555V298.991H176.4V297.974H178.145V298.991H180.976ZM177.265 300.626C179.134 300.626 180.343 301.423 180.343 302.674C180.343 303.952 179.134 304.721 177.265 304.721C175.396 304.721 174.16 303.952 174.16 302.674C174.16 301.423 175.396 300.626 177.265 300.626ZM177.265 301.863C176.4 301.863 175.864 302.151 175.877 302.674C175.864 303.21 176.4 303.471 177.265 303.471C178.131 303.471 178.681 303.21 178.681 302.674C178.681 302.151 178.131 301.863 177.265 301.863ZM195.183 298.07V307.057H193.424V298.07H195.183ZM195.513 308.94V310.342H186.8V306.15H188.573V308.94H195.513ZM188.326 298.867C190.249 298.867 191.747 300.186 191.747 302.014C191.747 303.883 190.249 305.188 188.326 305.188C186.402 305.188 184.904 303.883 184.904 302.014C184.904 300.186 186.402 298.867 188.326 298.867ZM188.326 300.392C187.35 300.379 186.608 300.997 186.622 302.014C186.608 303.058 187.35 303.663 188.326 303.663C189.274 303.663 190.016 303.058 190.016 302.014C190.016 300.997 189.274 300.379 188.326 300.392ZM205.735 298.056V302.948H207.576V304.391H205.735V310.562H204.003V298.056H205.735ZM203.151 299.925V301.327H195.799V299.925H198.63V298.249H200.389V299.925H203.151ZM199.51 302.028C201.337 302.028 202.698 303.265 202.698 305.01C202.698 306.755 201.337 307.992 199.51 307.992C197.668 307.992 196.308 306.755 196.308 305.01C196.308 303.265 197.668 302.028 199.51 302.028ZM199.51 303.443C198.63 303.457 197.984 304.048 197.984 305.01C197.984 305.985 198.63 306.563 199.51 306.549C200.389 306.563 201.021 305.985 201.021 305.01C201.021 304.048 200.389 303.457 199.51 303.443ZM217.537 298.056V310.562H215.764V298.056H217.537ZM213.786 299.362C213.786 303.155 212.453 306.301 207.986 308.418L207.066 307.016C210.295 305.491 211.717 303.512 211.999 300.736H207.739V299.362H213.786Z" fill="white"/>
<rect y="360.513" width="392" height="8.04103" fill="#E0E0E0"/>
<path d="M27.6351 407.511V410.314H29.3803V411.551H27.6351V414.286H26.1097V407.511H27.6351ZM27.6351 414.836V417.831H21.0389V418.711H28.0199V419.851H19.5273V416.773H26.1097V415.949H19.5136V414.836H27.6351ZM25.2165 408.542V409.71H17.8508V408.542H20.7778V407.442H22.3032V408.542H25.2165ZM21.5336 410.095C23.3751 410.108 24.5569 410.892 24.5706 412.128C24.5569 413.406 23.3751 414.162 21.5336 414.162C19.6922 414.162 18.4829 413.406 18.4829 412.128C18.4829 410.892 19.6922 410.108 21.5336 410.095ZM21.5336 411.194C20.5717 411.194 19.967 411.537 19.967 412.128C19.967 412.733 20.5717 413.063 21.5336 413.063C22.4956 413.063 23.114 412.733 23.114 412.128C23.114 411.537 22.4956 411.194 21.5336 411.194ZM40.3464 407.552V416.526H38.8073V407.552H40.3464ZM40.69 418.477V419.714H32.1287V415.619H33.6678V418.477H40.69ZM33.5716 408.363C35.4543 408.363 36.9109 409.669 36.9109 411.469C36.9109 413.31 35.4543 414.588 33.5716 414.588C31.6752 414.588 30.2186 413.31 30.2186 411.469C30.2186 409.669 31.6752 408.363 33.5716 408.363ZM33.5716 409.696C32.5135 409.696 31.7027 410.397 31.7164 411.469C31.7027 412.568 32.5135 413.255 33.5716 413.255C34.6023 413.255 35.413 412.568 35.413 411.469C35.413 410.397 34.6023 409.696 33.5716 409.696ZM59.5027 407.539V419.961H58.0324V413.681H56.6582V419.329H55.229V407.772H56.6582V412.431H58.0324V407.539H59.5027ZM50.914 408.968V415.523C51.9859 415.502 53.1608 415.413 54.4594 415.152L54.6106 416.485C52.9341 416.787 51.5187 416.869 50.1994 416.869H49.3749V408.968H50.914ZM71.4033 415.468V419.961H69.8779V416.677H62.9382V415.468H71.4033ZM71.4033 407.539V414.877H69.8779V413.228H66.9646C66.3737 413.887 65.4805 414.286 64.4499 414.286C62.581 414.286 61.1655 413.022 61.1655 411.235C61.1655 409.476 62.581 408.212 64.4499 408.226C65.4736 408.219 66.3669 408.604 66.9509 409.256H69.8779V407.539H71.4033ZM64.4499 409.517C63.378 409.517 62.6222 410.205 62.6222 411.235C62.6222 412.307 63.378 412.98 64.4499 412.994C65.4668 412.98 66.2363 412.307 66.2501 411.235C66.2363 410.205 65.4668 409.517 64.4499 409.517ZM67.6105 411.991H69.8779V410.507H67.6243C67.6724 410.74 67.7067 410.981 67.7067 411.235C67.7067 411.496 67.6724 411.75 67.6105 411.991Z" fill="#454545"/>
<path d="M82.462 408.715L87.359 413.738L82.462 418.762C82.3743 418.852 82.3252 418.972 82.3252 419.098C82.3252 419.223 82.3743 419.344 82.462 419.433C82.5046 419.477 82.5554 419.511 82.6115 419.535C82.6676 419.559 82.7278 419.571 82.7886 419.571C82.8495 419.571 82.9097 419.559 82.9658 419.535C83.0219 419.511 83.0727 419.477 83.1153 419.433L88.3259 414.089C88.4174 413.995 88.4686 413.869 88.4686 413.738C88.4686 413.607 88.4174 413.481 88.3259 413.388L83.1163 408.043C83.0737 408 83.0227 407.965 82.9665 407.941C82.9102 407.917 82.8497 407.905 82.7886 407.905C82.7276 407.905 82.6671 407.917 82.6108 407.941C82.5545 407.965 82.5036 408 82.461 408.043C82.3733 408.133 82.3242 408.254 82.3242 408.379C82.3242 408.504 82.3733 408.625 82.461 408.715L82.462 408.715Z" fill="#454545"/>
<mask id="path-31-inside-1_401_20334" fill="white">
<path d="M17.0874 442.841H374.913V518.902H17.0874V442.841Z"/>
</mask>
<path d="M374.913 517.897H17.0874V519.907H374.913V517.897Z" fill="#E0E0E0" mask="url(#path-31-inside-1_401_20334)"/>
<path d="M33.471 469.999C31.2585 469.999 29.9943 468.144 29.9943 464.887C29.9943 461.657 31.286 459.775 33.471 459.775C35.656 459.775 36.9477 461.657 36.9477 464.887C36.9477 468.144 35.6697 469.999 33.471 469.999ZM33.471 468.899C34.9001 468.899 35.7384 467.456 35.7384 464.887C35.7384 462.317 34.9001 460.847 33.471 460.847C32.0418 460.847 31.1898 462.317 31.1898 464.887C31.1898 467.456 32.0281 468.899 33.471 468.899ZM41.9086 459.775C43.6263 459.788 45.5227 460.819 45.5227 464.488C45.5227 468.02 44.0798 469.999 41.7437 469.999C39.9984 469.999 38.7616 468.927 38.5143 467.347H39.7373C39.9572 468.24 40.6306 468.899 41.7437 468.899C43.3652 468.899 44.3546 467.498 44.3684 465.079H44.231C43.6538 465.904 42.7468 466.398 41.6887 466.398C39.9022 466.398 38.4318 465.038 38.4318 463.114C38.4318 461.259 39.7923 459.761 41.9086 459.775ZM41.9086 460.86C40.6031 460.86 39.6274 461.877 39.6411 463.1C39.6411 464.337 40.5618 465.313 41.8673 465.313C43.1591 465.313 44.176 464.241 44.176 463.073C44.176 461.932 43.2278 460.86 41.9086 460.86ZM47.7214 469.944C47.2405 469.944 46.8282 469.545 46.8419 469.051C46.8282 468.57 47.2405 468.171 47.7214 468.171C48.2024 468.171 48.6009 468.57 48.6009 469.051C48.6009 469.545 48.2024 469.944 47.7214 469.944ZM53.3419 469.999C51.1294 469.999 49.8652 468.144 49.8652 464.887C49.8652 461.657 51.1569 459.775 53.3419 459.775C55.5269 459.775 56.8186 461.657 56.8186 464.887C56.8186 468.144 55.5406 469.999 53.3419 469.999ZM53.3419 468.899C54.7711 468.899 55.6093 467.456 55.6093 464.887C55.6093 462.317 54.7711 460.847 53.3419 460.847C51.9127 460.847 51.0607 462.317 51.0607 464.887C51.0607 467.456 51.899 468.899 53.3419 468.899ZM61.7795 459.775C63.4972 459.788 65.3936 460.819 65.3936 464.488C65.3936 468.02 63.9507 469.999 61.6146 469.999C59.8693 469.999 58.6326 468.927 58.3852 467.347H59.6082C59.8281 468.24 60.5015 468.899 61.6146 468.899C63.2361 468.899 64.2255 467.498 64.2393 465.079H64.1019C63.5247 465.904 62.6177 466.398 61.5596 466.398C59.7731 466.398 58.3028 465.038 58.3028 463.114C58.3028 461.259 59.6632 459.761 61.7795 459.775ZM61.7795 460.86C60.474 460.86 59.4983 461.877 59.512 463.1C59.512 464.337 60.4328 465.313 61.7382 465.313C63.03 465.313 64.0469 464.241 64.0469 463.073C64.0469 461.932 63.0987 460.86 61.7795 460.86ZM80.2762 458.772V467.731H79.2043V458.772H80.2762ZM80.661 469.806V470.713H72.3883V466.907H73.4602V469.806H80.661ZM74.5183 460.682C74.5046 462.537 75.7826 464.213 77.5965 464.873L77.0331 465.739C75.6177 465.196 74.5183 464.097 73.9824 462.688C73.4396 464.186 72.3264 465.388 70.9042 465.959L70.3132 465.12C72.1684 464.406 73.4189 462.606 73.4189 460.682V459.459H74.5183V460.682ZM86.5151 461.383C86.5151 462.908 87.8343 464.268 89.6345 464.804L89.1123 465.643C87.6969 465.223 86.5631 464.296 86.0203 463.087C85.4844 464.426 84.3713 465.478 82.9147 465.959L82.3925 465.134C84.1927 464.529 85.4569 463.045 85.4569 461.383V461.121H82.6948V460.256H85.4569V458.703H86.5425V460.256H89.2772V461.121H86.5151V461.383ZM92.4791 458.758V466.165H91.3935V463.155H88.8924V462.262H91.3935V458.758H92.4791ZM88.4252 466.495C90.9675 466.495 92.5203 467.292 92.5203 468.721C92.5203 470.136 90.9675 470.947 88.4252 470.947C85.8829 470.947 84.3301 470.136 84.3301 468.721C84.3301 467.292 85.8829 466.495 88.4252 466.495ZM88.4252 467.333C86.5563 467.347 85.3882 467.855 85.402 468.721C85.3882 469.573 86.5563 470.095 88.4252 470.095C90.3078 470.095 91.4484 469.573 91.4484 468.721C91.4484 467.855 90.3078 467.347 88.4252 467.333Z" fill="#454545"/>
<path d="M281.527 458.07V470.861H278.859V460.596H278.789L275.856 462.434V460.084L279.018 458.07H281.527ZM284.284 468.6V466.497L289.69 458.07H293.029V466.462H294.655V468.6H293.029V470.861H290.503V468.6H284.284ZM286.969 466.462H290.538V460.985H290.414L286.969 466.356V466.462ZM301.121 471.038C298.312 471.038 296.298 469.483 296.245 467.257H298.931C298.984 468.211 299.902 468.847 301.139 468.847C302.411 468.847 303.33 468.123 303.312 467.098C303.33 466.056 302.394 465.313 300.892 465.313H299.708V463.352H300.892C302.146 463.352 303.03 462.663 303.03 461.656C303.03 460.684 302.288 460.013 301.157 460.013C300.026 460.013 299.09 460.649 299.054 461.621H296.51C296.545 459.412 298.542 457.893 301.157 457.893C303.825 457.893 305.609 459.465 305.592 461.497C305.609 462.928 304.602 463.953 303.171 464.2V464.306C305.044 464.536 306.086 465.685 306.069 467.275C306.086 469.466 304.001 471.038 301.121 471.038ZM310.433 469.554L308.913 474.589H307.04L307.924 469.554H310.433ZM317.2 471.038C314.002 471.038 312.058 468.653 312.058 464.465C312.058 460.278 314.002 457.893 317.2 457.893C320.398 457.893 322.341 460.296 322.341 464.465C322.341 468.67 320.398 471.038 317.2 471.038ZM317.2 468.847C318.684 468.847 319.638 467.416 319.62 464.465C319.62 461.55 318.684 460.066 317.2 460.066C315.715 460.066 314.779 461.55 314.779 464.465C314.761 467.416 315.715 468.847 317.2 468.847ZM329.143 471.038C325.945 471.038 324.002 468.653 324.002 464.465C324.002 460.278 325.945 457.893 329.143 457.893C332.341 457.893 334.285 460.296 334.285 464.465C334.285 468.67 332.341 471.038 329.143 471.038ZM329.143 468.847C330.627 468.847 331.582 467.416 331.564 464.465C331.564 461.55 330.627 460.066 329.143 460.066C327.659 460.066 326.723 461.55 326.723 464.465C326.705 467.416 327.659 468.847 329.143 468.847ZM341.087 471.038C337.889 471.038 335.946 468.653 335.946 464.465C335.946 460.278 337.889 457.893 341.087 457.893C344.285 457.893 346.229 460.296 346.229 464.465C346.229 468.67 344.285 471.038 341.087 471.038ZM341.087 468.847C342.571 468.847 343.525 467.416 343.508 464.465C343.508 461.55 342.571 460.066 341.087 460.066C339.603 460.066 338.667 461.55 338.667 464.465C338.649 467.416 339.603 468.847 341.087 468.847ZM361.158 456.426V468.564H358.897V467.292H355.822V465.755H358.897V456.426H361.158ZM361.512 470.402V472.204H349.533V467.398H351.776V465.26C350.336 465.322 348.967 465.331 347.748 465.331L347.483 463.547C350.434 463.529 354.409 463.494 357.801 463.07L357.925 464.677C356.653 464.889 355.337 465.04 354.038 465.137V468.193H351.776V470.402H361.512ZM352.713 456.974C355.045 456.956 356.723 458.14 356.723 459.854C356.723 461.568 355.045 462.681 352.713 462.681C350.328 462.681 348.667 461.568 348.667 459.854C348.667 458.14 350.31 456.956 352.713 456.974ZM352.713 458.617C351.564 458.617 350.787 459.059 350.805 459.854C350.787 460.631 351.564 461.055 352.713 461.055C353.791 461.055 354.568 460.631 354.586 459.854C354.568 459.059 353.791 458.617 352.713 458.617Z" fill="#454545"/>
<path d="M319.242 500.371V501.457H314.886V500.371H319.242ZM323.281 506.019C321.48 506.019 320.12 504.906 320.051 503.381H321.247C321.343 504.274 322.209 504.934 323.281 504.934C324.572 504.934 325.507 503.985 325.507 502.735C325.507 501.443 324.531 500.495 323.198 500.481C322.36 500.467 321.714 500.729 321.343 501.374H320.147L320.848 495.933H326.235V497.032H321.879L321.508 499.945H321.604C322.044 499.602 322.717 499.368 323.418 499.368C325.314 499.368 326.716 500.77 326.716 502.707C326.716 504.631 325.259 506.019 323.281 506.019ZM328.624 504.961L327.552 508.699H326.535L327.291 504.961H328.624ZM332.58 506.019C330.367 506.019 329.103 504.164 329.103 500.907C329.103 497.678 330.395 495.795 332.58 495.795C334.765 495.795 336.057 497.678 336.057 500.907C336.057 504.164 334.779 506.019 332.58 506.019ZM332.58 504.92C334.009 504.92 334.847 503.477 334.847 500.907C334.847 498.337 334.009 496.867 332.58 496.867C331.151 496.867 330.299 498.337 330.299 500.907C330.299 503.477 331.137 504.92 332.58 504.92ZM339.957 506.019C337.745 506.019 336.481 504.164 336.481 500.907C336.481 497.678 337.772 495.795 339.957 495.795C342.142 495.795 343.434 497.678 343.434 500.907C343.434 504.164 342.156 506.019 339.957 506.019ZM339.957 504.92C341.387 504.92 342.225 503.477 342.225 500.907C342.225 498.337 341.387 496.867 339.957 496.867C338.528 496.867 337.676 498.337 337.676 500.907C337.676 503.477 338.515 504.92 339.957 504.92ZM347.335 506.019C345.122 506.019 343.858 504.164 343.858 500.907C343.858 497.678 345.15 495.795 347.335 495.795C349.52 495.795 350.812 497.678 350.812 500.907C350.812 504.164 349.534 506.019 347.335 506.019ZM347.335 504.92C348.764 504.92 349.602 503.477 349.602 500.907C349.602 498.337 348.764 496.867 347.335 496.867C345.906 496.867 345.054 498.337 345.054 500.907C345.054 503.477 345.892 504.92 347.335 504.92ZM361.089 494.792V504.068H360.003V502.804H357.475V502.02H360.003V494.792H361.089ZM361.391 505.827V506.734H352.706V503.161H353.792V505.827H361.391ZM350.947 500.454C353.228 500.44 356.279 500.426 358.904 500.096L358.972 500.88C357.88 501.052 356.739 501.161 355.619 501.223V503.642H354.534V501.278C353.297 501.333 352.122 501.34 351.098 501.333L350.947 500.454ZM354.96 495.287C356.746 495.287 357.969 496.139 357.983 497.417C357.969 498.722 356.746 499.533 354.96 499.533C353.16 499.533 351.936 498.722 351.936 497.417C351.936 496.139 353.16 495.287 354.96 495.287ZM354.96 496.111C353.764 496.098 352.953 496.633 352.967 497.417C352.953 498.214 353.764 498.736 354.96 498.736C356.114 498.736 356.939 498.214 356.952 497.417C356.939 496.633 356.114 496.098 354.96 496.111Z" fill="#3D9DFF"/>
<mask id="path-36-inside-2_401_20334" fill="white">
<path d="M17.0874 518.902H374.913V594.964H17.0874V518.902Z"/>
</mask>
<path d="M374.913 593.959H17.0874V595.969H374.913V593.959Z" fill="#E0E0E0" mask="url(#path-36-inside-2_401_20334)"/>
<path d="M33.471 546.06C31.2585 546.06 29.9943 544.205 29.9943 540.948C29.9943 537.719 31.286 535.836 33.471 535.836C35.656 535.836 36.9477 537.719 36.9477 540.948C36.9477 544.205 35.6697 546.06 33.471 546.06ZM33.471 544.961C34.9001 544.961 35.7384 543.518 35.7384 540.948C35.7384 538.378 34.9001 536.908 33.471 536.908C32.0418 536.908 31.1898 538.378 31.1898 540.948C31.1898 543.518 32.0281 544.961 33.471 544.961ZM41.9223 546.06C39.8335 546.06 38.3769 544.906 38.3906 543.284C38.3769 541.993 39.2701 540.934 40.4107 540.756V540.701C39.4213 540.467 38.7754 539.56 38.7754 538.475C38.7754 536.949 40.1084 535.836 41.9223 535.836C43.7362 535.836 45.0692 536.949 45.083 538.475C45.0692 539.56 44.4096 540.467 43.4339 540.701V540.756C44.5608 540.934 45.454 541.993 45.4677 543.284C45.454 544.906 43.9973 546.06 41.9223 546.06ZM41.9223 544.975C43.3515 544.975 44.231 544.26 44.231 543.216C44.231 542.116 43.2553 541.305 41.9223 541.305C40.5893 541.305 39.5999 542.116 39.6274 543.216C39.5999 544.26 40.4931 544.975 41.9223 544.975ZM41.9223 540.261C43.0491 540.261 43.8737 539.574 43.8737 538.571C43.8737 537.581 43.0904 536.908 41.9223 536.908C40.7405 536.908 39.9709 537.581 39.9709 538.571C39.9709 539.574 40.7817 540.261 41.9223 540.261ZM47.6665 546.005C47.1855 546.005 46.7732 545.607 46.787 545.112C46.7732 544.631 47.1855 544.232 47.6665 544.232C48.1474 544.232 48.5459 544.631 48.5459 545.112C48.5459 545.607 48.1474 546.005 47.6665 546.005ZM53.2869 546.06C51.0745 546.06 49.8102 544.205 49.8102 540.948C49.8102 537.719 51.102 535.836 53.2869 535.836C55.4719 535.836 56.7637 537.719 56.7637 540.948C56.7637 544.205 55.4856 546.06 53.2869 546.06ZM53.2869 544.961C54.7161 544.961 55.5544 543.518 55.5544 540.948C55.5544 538.378 54.7161 536.908 53.2869 536.908C51.8578 536.908 51.0058 538.378 51.0058 540.948C51.0058 543.518 51.844 544.961 53.2869 544.961ZM61.8482 546.06C59.8693 546.06 58.4539 545.002 58.3852 543.422H59.6357C59.7044 544.37 60.6526 544.961 61.8344 544.961C63.1399 544.961 64.1019 544.246 64.1019 543.216C64.1019 542.13 63.2361 541.36 61.6833 541.36H60.8725V540.275H61.6833C62.8926 540.275 63.7308 539.601 63.7308 538.571C63.7308 537.581 63.0025 536.908 61.8757 536.908C60.8175 536.908 59.8419 537.499 59.7869 538.475H58.5913C58.66 536.894 60.1167 535.836 61.8894 535.836C63.7858 535.836 64.9401 537.073 64.9264 538.502C64.9401 539.629 64.2805 540.467 63.2361 540.756V540.824C64.5279 541.031 65.3249 541.951 65.3112 543.216C65.3249 544.851 63.827 546.06 61.8482 546.06ZM80.2762 534.833V543.793H79.2043V534.833H80.2762ZM80.661 545.868V546.775H72.3883V542.968H73.4602V545.868H80.661ZM74.5183 536.743C74.5046 538.598 75.7826 540.275 77.5965 540.934L77.0331 541.8C75.6177 541.257 74.5183 540.158 73.9824 538.749C73.4396 540.247 72.3264 541.45 70.9042 542.02L70.3132 541.182C72.1684 540.467 73.4189 538.667 73.4189 536.743V535.52H74.5183V536.743ZM86.5151 537.444C86.5151 538.969 87.8343 540.33 89.6345 540.866L89.1123 541.704C87.6969 541.285 86.5631 540.357 86.0203 539.148C85.4844 540.488 84.3713 541.539 82.9147 542.02L82.3925 541.195C84.1927 540.591 85.4569 539.107 85.4569 537.444V537.183H82.6948V536.317H85.4569V534.764H86.5425V536.317H89.2772V537.183H86.5151V537.444ZM92.4791 534.819V542.226H91.3935V539.217H88.8924V538.323H91.3935V534.819H92.4791ZM88.4252 542.556C90.9675 542.556 92.5203 543.353 92.5203 544.782C92.5203 546.198 90.9675 547.008 88.4252 547.008C85.8829 547.008 84.3301 546.198 84.3301 544.782C84.3301 543.353 85.8829 542.556 88.4252 542.556ZM88.4252 543.394C86.5563 543.408 85.3882 543.916 85.402 544.782C85.3882 545.634 86.5563 546.156 88.4252 546.156C90.3078 546.156 91.4484 545.634 91.4484 544.782C91.4484 543.916 90.3078 543.408 88.4252 543.394Z" fill="#454545"/>
<path d="M285.444 534.131V546.923H282.776V536.657H282.706L279.773 538.495V536.145L282.935 534.131H285.444ZM288.413 546.923L288.395 544.997L292.989 540.774C294.19 539.626 294.826 538.919 294.826 537.912C294.826 536.781 293.96 536.074 292.794 536.074C291.593 536.074 290.816 536.834 290.816 538.053H288.289C288.271 535.544 290.126 533.954 292.83 533.954C295.568 533.954 297.388 535.509 297.388 537.735C297.388 539.184 296.681 540.385 294.049 542.771L292.105 544.661V544.732H297.565V546.923H288.413ZM299.95 546.923L305.339 536.392V536.304H299.067V534.131H308.095V536.339L302.706 546.923H299.95ZM310.516 545.615L308.996 550.651H307.123L308.007 545.615H310.516ZM317.283 547.099C314.085 547.099 312.141 544.714 312.141 540.527C312.141 536.339 314.085 533.954 317.283 533.954C320.481 533.954 322.424 536.357 322.424 540.527C322.424 544.732 320.481 547.099 317.283 547.099ZM317.283 544.909C318.767 544.909 319.721 543.477 319.703 540.527C319.703 537.612 318.767 536.127 317.283 536.127C315.798 536.127 314.862 537.612 314.862 540.527C314.844 543.477 315.798 544.909 317.283 544.909ZM329.226 547.099C326.028 547.099 324.085 544.714 324.085 540.527C324.085 536.339 326.028 533.954 329.226 533.954C332.424 533.954 334.368 536.357 334.368 540.527C334.368 544.732 332.424 547.099 329.226 547.099ZM329.226 544.909C330.71 544.909 331.665 543.477 331.647 540.527C331.647 537.612 330.71 536.127 329.226 536.127C327.742 536.127 326.806 537.612 326.806 540.527C326.788 543.477 327.742 544.909 329.226 544.909ZM341.17 547.099C337.972 547.099 336.029 544.714 336.029 540.527C336.029 536.339 337.972 533.954 341.17 533.954C344.368 533.954 346.312 536.357 346.312 540.527C346.312 544.732 344.368 547.099 341.17 547.099ZM341.17 544.909C342.654 544.909 343.608 543.477 343.591 540.527C343.591 537.612 342.654 536.127 341.17 536.127C339.686 536.127 338.75 537.612 338.75 540.527C338.732 543.477 339.686 544.909 341.17 544.909ZM361.241 532.488V544.626H358.98V543.354H355.905V541.817H358.98V532.488H361.241ZM361.595 546.463V548.266H349.616V543.46H351.859V541.322C350.419 541.384 349.05 541.393 347.831 541.393L347.566 539.608C350.517 539.59 354.492 539.555 357.884 539.131L358.008 540.739C356.736 540.951 355.42 541.101 354.121 541.198V544.255H351.859V546.463H361.595ZM352.796 533.035C355.128 533.018 356.806 534.202 356.806 535.915C356.806 537.629 355.128 538.742 352.796 538.742C350.411 538.742 348.75 537.629 348.75 535.915C348.75 534.202 350.393 533.018 352.796 533.035ZM352.796 534.679C351.647 534.679 350.87 535.12 350.888 535.915C350.87 536.693 351.647 537.117 352.796 537.117C353.874 537.117 354.651 536.693 354.669 535.915C354.651 535.12 353.874 534.679 352.796 534.679Z" fill="#454545"/>
<path d="M319.146 576.433V577.518H314.79V576.433H319.146ZM323.226 582.081C321.247 582.081 319.831 581.023 319.763 579.442H321.013C321.082 580.391 322.03 580.981 323.212 580.981C324.517 580.981 325.479 580.267 325.479 579.236C325.479 578.151 324.614 577.381 323.061 577.381H322.25V576.295H323.061C324.27 576.295 325.108 575.622 325.108 574.591C325.108 573.602 324.38 572.929 323.253 572.929C322.195 572.929 321.219 573.52 321.164 574.495H319.969C320.037 572.915 321.494 571.857 323.267 571.857C325.163 571.857 326.318 573.094 326.304 574.523C326.318 575.65 325.658 576.488 324.614 576.776V576.845C325.905 577.051 326.702 577.972 326.689 579.236C326.702 580.871 325.204 582.081 323.226 582.081ZM328.72 581.023L327.649 584.76H326.632L327.387 581.023H328.72ZM332.676 582.081C330.464 582.081 329.199 580.226 329.199 576.969C329.199 573.739 330.491 571.857 332.676 571.857C334.861 571.857 336.153 573.739 336.153 576.969C336.153 580.226 334.875 582.081 332.676 582.081ZM332.676 580.981C334.105 580.981 334.944 579.539 334.944 576.969C334.944 574.399 334.105 572.929 332.676 572.929C331.247 572.929 330.395 574.399 330.395 576.969C330.395 579.539 331.233 580.981 332.676 580.981ZM340.054 582.081C337.841 582.081 336.577 580.226 336.577 576.969C336.577 573.739 337.869 571.857 340.054 571.857C342.239 571.857 343.53 573.739 343.53 576.969C343.53 580.226 342.252 582.081 340.054 582.081ZM340.054 580.981C341.483 580.981 342.321 579.539 342.321 576.969C342.321 574.399 341.483 572.929 340.054 572.929C338.624 572.929 337.772 574.399 337.772 576.969C337.772 579.539 338.611 580.981 340.054 580.981ZM347.431 582.081C345.219 582.081 343.954 580.226 343.954 576.969C343.954 573.739 345.246 571.857 347.431 571.857C349.616 571.857 350.908 573.739 350.908 576.969C350.908 580.226 349.63 582.081 347.431 582.081ZM347.431 580.981C348.86 580.981 349.699 579.539 349.699 576.969C349.699 574.399 348.86 572.929 347.431 572.929C346.002 572.929 345.15 574.399 345.15 576.969C345.15 579.539 345.988 580.981 347.431 580.981ZM361.185 570.854V580.129H360.099V578.865H357.571V578.082H360.099V570.854H361.185ZM361.487 581.888V582.795H352.802V579.222H353.888V581.888H361.487ZM351.043 576.515C353.324 576.502 356.375 576.488 359 576.158L359.069 576.941C357.976 577.113 356.836 577.223 355.716 577.285V579.703H354.63V577.34C353.393 577.395 352.218 577.402 351.194 577.395L351.043 576.515ZM355.056 571.348C356.842 571.348 358.065 572.2 358.079 573.478C358.065 574.784 356.842 575.595 355.056 575.595C353.256 575.595 352.033 574.784 352.033 573.478C352.033 572.2 353.256 571.348 355.056 571.348ZM355.056 572.173C353.86 572.159 353.05 572.695 353.063 573.478C353.05 574.275 353.86 574.798 355.056 574.798C356.21 574.798 357.035 574.275 357.049 573.478C357.035 572.695 356.21 572.159 355.056 572.173Z" fill="#3D9DFF"/>
<path d="M33.7918 622.122C31.5793 622.122 30.3151 620.267 30.3151 617.01C30.3151 613.78 31.6068 611.898 33.7918 611.898C35.9768 611.898 37.2685 613.78 37.2685 617.01C37.2685 620.267 35.9905 622.122 33.7918 622.122ZM33.7918 621.022C35.221 621.022 36.0592 619.58 36.0592 617.01C36.0592 614.44 35.221 612.97 33.7918 612.97C32.3626 612.97 31.5106 614.44 31.5106 617.01C31.5106 619.58 32.3489 621.022 33.7918 621.022ZM38.9588 621.984L43.5211 613.203V613.135H38.2579V612.035H44.7991V613.19L40.2505 621.984H38.9588ZM45.5412 622.067C45.0602 622.067 44.648 621.668 44.6617 621.174C44.648 620.693 45.0602 620.294 45.5412 620.294C46.0222 620.294 46.4207 620.693 46.4207 621.174C46.4207 621.668 46.0222 622.067 45.5412 622.067ZM51.1617 622.122C48.9492 622.122 47.6849 620.267 47.6849 617.01C47.6849 613.78 48.9767 611.898 51.1617 611.898C53.3466 611.898 54.6384 613.78 54.6384 617.01C54.6384 620.267 53.3604 622.122 51.1617 622.122ZM51.1617 621.022C52.5908 621.022 53.4291 619.58 53.4291 617.01C53.4291 614.44 52.5908 612.97 51.1617 612.97C49.7325 612.97 48.8805 614.44 48.8805 617.01C48.8805 619.58 49.7188 621.022 51.1617 621.022ZM56.3287 621.984L60.891 613.203V613.135H55.6278V612.035H62.169V613.19L57.6204 621.984H56.3287ZM76.9554 610.895V619.854H75.8835V610.895H76.9554ZM77.3402 621.929V622.836H69.0675V619.03H70.1394V621.929H77.3402ZM71.1975 612.805C71.1837 614.66 72.4617 616.336 74.2757 616.996L73.7123 617.862C72.2968 617.319 71.1975 616.22 70.6615 614.811C70.1187 616.309 69.0056 617.511 67.5833 618.082L66.9924 617.243C68.8476 616.529 70.0981 614.729 70.0981 612.805V611.582H71.1975V612.805ZM83.1942 613.506C83.1942 615.031 84.5135 616.391 86.3137 616.927L85.7915 617.766C84.3761 617.346 83.2423 616.419 82.6995 615.21C82.1636 616.549 81.0505 617.601 79.5938 618.082L79.0716 617.257C80.8718 616.652 82.1361 615.168 82.1361 613.506V613.244H79.374V612.379H82.1361V610.826H83.2217V612.379H85.9564V613.244H83.1942V613.506ZM89.1583 610.881V618.288H88.0726V615.278H85.5716V614.385H88.0726V610.881H89.1583ZM85.1044 618.618C87.6466 618.618 89.1995 619.415 89.1995 620.844C89.1995 622.259 87.6466 623.07 85.1044 623.07C82.5621 623.07 81.0093 622.259 81.0093 620.844C81.0093 619.415 82.5621 618.618 85.1044 618.618ZM85.1044 619.456C83.2355 619.47 82.0674 619.978 82.0811 620.844C82.0674 621.696 83.2355 622.218 85.1044 622.218C86.987 622.218 88.1276 621.696 88.1276 620.844C88.1276 619.978 86.987 619.47 85.1044 619.456Z" fill="#454545"/>
<path d="M284.644 610.193V622.984H281.976V612.719H281.905L278.972 614.557V612.207L282.135 610.193H284.644ZM288.107 622.984L293.496 612.454V612.366H287.224V610.193H296.252V612.401L290.863 622.984H288.107ZM296.782 620.723V618.62L302.189 610.193H305.528V618.585H307.153V620.723H305.528V622.984H303.001V620.723H296.782ZM299.468 618.585H303.037V613.108H302.913L299.468 618.479V618.585ZM311.482 621.677L309.963 626.712H308.09L308.973 621.677H311.482ZM318.143 623.161C315.334 623.161 313.32 621.606 313.267 619.38H315.952C316.005 620.334 316.924 620.97 318.161 620.97C319.433 620.97 320.352 620.246 320.334 619.221C320.352 618.179 319.415 617.437 317.913 617.437H316.73V615.475H317.913C319.168 615.475 320.051 614.786 320.051 613.779C320.051 612.807 319.309 612.136 318.178 612.136C317.048 612.136 316.111 612.772 316.076 613.744H313.532C313.567 611.535 315.563 610.016 318.178 610.016C320.846 610.016 322.631 611.588 322.613 613.62C322.631 615.051 321.624 616.076 320.193 616.323V616.429C322.065 616.659 323.108 617.808 323.09 619.398C323.108 621.589 321.023 623.161 318.143 623.161ZM324.963 622.984L324.945 621.059L329.539 616.836C330.741 615.687 331.377 614.981 331.377 613.974C331.377 612.843 330.511 612.136 329.345 612.136C328.143 612.136 327.366 612.896 327.366 614.115H324.839C324.822 611.606 326.677 610.016 329.38 610.016C332.119 610.016 333.938 611.571 333.938 613.797C333.938 615.246 333.232 616.447 330.599 618.832L328.656 620.723V620.794H334.115V622.984H324.963ZM340.97 623.161C337.772 623.161 335.829 620.776 335.829 616.588C335.829 612.401 337.772 610.016 340.97 610.016C344.168 610.016 346.112 612.419 346.112 616.588C346.112 620.794 344.168 623.161 340.97 623.161ZM340.97 620.97C342.455 620.97 343.409 619.539 343.391 616.588C343.391 613.673 342.455 612.189 340.97 612.189C339.486 612.189 338.55 613.673 338.55 616.588C338.532 619.539 339.486 620.97 340.97 620.97ZM361.042 608.549V620.687H358.78V619.415H355.706V617.878H358.78V608.549H361.042ZM361.395 622.525V624.327H349.416V619.521H351.66V617.384C350.22 617.445 348.85 617.454 347.631 617.454L347.366 615.67C350.317 615.652 354.292 615.617 357.685 615.193L357.808 616.8C356.536 617.012 355.22 617.163 353.921 617.26V620.316H351.66V622.525H361.395ZM352.596 609.097C354.928 609.079 356.607 610.263 356.607 611.977C356.607 613.691 354.928 614.804 352.596 614.804C350.211 614.804 348.55 613.691 348.55 611.977C348.55 610.263 350.193 609.079 352.596 609.097ZM352.596 610.74C351.448 610.74 350.67 611.182 350.688 611.977C350.67 612.754 351.448 613.178 352.596 613.178C353.674 613.178 354.451 612.754 354.469 611.977C354.451 611.182 353.674 610.74 352.596 610.74Z" fill="#454545"/>
<path d="M314.16 652.494V653.58H309.804V652.494H314.16ZM318.473 648.056V658.005H317.222V649.347H317.167L314.749 650.955V649.705L317.222 648.056H318.473ZM323.377 658.142C321.164 658.142 319.9 656.287 319.9 653.03C319.9 649.801 321.192 647.918 323.377 647.918C325.562 647.918 326.854 649.801 326.854 653.03C326.854 656.287 325.576 658.142 323.377 658.142ZM323.377 657.043C324.806 657.043 325.644 655.6 325.644 653.03C325.644 650.461 324.806 648.99 323.377 648.99C321.948 648.99 321.096 650.461 321.096 653.03C321.096 655.6 321.934 657.043 323.377 657.043ZM328.707 657.084L327.635 660.822H326.618L327.374 657.084H328.707ZM332.662 658.142C330.45 658.142 329.186 656.287 329.186 653.03C329.186 649.801 330.477 647.918 332.662 647.918C334.847 647.918 336.139 649.801 336.139 653.03C336.139 656.287 334.861 658.142 332.662 658.142ZM332.662 657.043C334.092 657.043 334.93 655.6 334.93 653.03C334.93 650.461 334.092 648.99 332.662 648.99C331.233 648.99 330.381 650.461 330.381 653.03C330.381 655.6 331.22 657.043 332.662 657.043ZM340.04 658.142C337.827 658.142 336.563 656.287 336.563 653.03C336.563 649.801 337.855 647.918 340.04 647.918C342.225 647.918 343.517 649.801 343.517 653.03C343.517 656.287 342.239 658.142 340.04 658.142ZM340.04 657.043C341.469 657.043 342.307 655.6 342.307 653.03C342.307 650.461 341.469 648.99 340.04 648.99C338.611 648.99 337.759 650.461 337.759 653.03C337.759 655.6 338.597 657.043 340.04 657.043ZM347.417 658.142C345.205 658.142 343.941 656.287 343.941 653.03C343.941 649.801 345.232 647.918 347.417 647.918C349.602 647.918 350.894 649.801 350.894 653.03C350.894 656.287 349.616 658.142 347.417 658.142ZM347.417 657.043C348.847 657.043 349.685 655.6 349.685 653.03C349.685 650.461 348.847 648.99 347.417 648.99C345.988 648.99 345.136 650.461 345.136 653.03C345.136 655.6 345.975 657.043 347.417 657.043ZM361.171 646.915V656.191H360.086V654.927H357.557V654.143H360.086V646.915H361.171ZM361.473 657.95V658.857H352.789V655.284H353.874V657.95H361.473ZM351.03 652.577C353.311 652.563 356.361 652.549 358.986 652.22L359.055 653.003C357.962 653.175 356.822 653.285 355.702 653.346V655.765H354.616V653.401C353.379 653.456 352.205 653.463 351.181 653.456L351.03 652.577ZM355.042 647.41C356.829 647.41 358.052 648.262 358.065 649.54C358.052 650.845 356.829 651.656 355.042 651.656C353.242 651.656 352.019 650.845 352.019 649.54C352.019 648.262 353.242 647.41 355.042 647.41ZM355.042 648.234C353.847 648.221 353.036 648.757 353.05 649.54C353.036 650.337 353.847 650.859 355.042 650.859C356.197 650.859 357.021 650.337 357.035 649.54C357.021 648.757 356.197 648.221 355.042 648.234Z" fill="#3D9DFF"/>
<rect x="17.0874" y="691.128" width="357.826" height="48.1026" rx="4.02051" fill="#CCCCCC"/>
<path d="M185.002 718.571V719.987H173.555V718.571H178.393V715.782H180.152V718.571H185.002ZM183.999 709.886V711.302H180.193C180.337 712.951 181.89 714.483 184.576 714.875L183.889 716.263C181.698 715.878 180.076 714.806 179.272 713.322C178.475 714.834 176.867 715.933 174.71 716.331L174.023 714.944C176.62 714.524 178.18 712.958 178.324 711.302H174.504V709.886H183.999ZM195.225 708.938V721.443H193.479V708.938H195.225ZM184.767 717.912C185.722 717.905 186.814 717.905 187.955 717.871V716.812C186.581 716.572 185.688 715.72 185.701 714.545C185.688 713.143 186.966 712.195 188.807 712.195C190.662 712.195 191.954 713.143 191.954 714.545C191.954 715.713 191.061 716.565 189.687 716.812V717.816C190.731 717.767 191.789 717.685 192.792 717.554L192.916 718.846C190.181 719.313 187.227 719.341 185.001 719.341L184.767 717.912ZM192.614 710.326V711.7H185.014V710.326H187.955V708.993H189.7V710.326H192.614ZM188.807 713.528C187.955 713.528 187.35 713.899 187.364 714.545C187.35 715.205 187.955 715.562 188.807 715.562C189.687 715.562 190.277 715.205 190.277 714.545C190.277 713.899 189.687 713.528 188.807 713.528ZM205.735 708.938V713.83H207.577V715.273H205.735V721.443H204.004V708.938H205.735ZM203.152 710.807V712.209H195.8V710.807H198.631V709.131H200.39V710.807H203.152ZM199.51 712.91C201.338 712.91 202.698 714.146 202.698 715.892C202.698 717.637 201.338 718.874 199.51 718.874C197.669 718.874 196.308 717.637 196.308 715.892C196.308 714.146 197.669 712.91 199.51 712.91ZM199.51 714.325C198.631 714.339 197.985 714.93 197.985 715.892C197.985 716.867 198.631 717.445 199.51 717.431C200.39 717.445 201.022 716.867 201.022 715.892C201.022 714.93 200.39 714.339 199.51 714.325ZM217.538 708.938V721.443H215.765V708.938H217.538ZM213.786 710.244C213.786 714.037 212.453 717.183 207.987 719.3L207.066 717.898C210.296 716.373 211.718 714.394 212 711.618H207.74V710.244H213.786Z" fill="white"/>
<mask id="path-46-inside-3_401_20334" fill="white">
<path d="M10 752H383V821.431H10V752Z"/>
</mask>
<path d="M10 752H383V821.431H10V752Z" fill="white"/>
<path d="M10 753.008H383V750.992H10V753.008Z" fill="#D2D6D8" mask="url(#path-46-inside-3_401_20334)"/>
<path d="M35.3018 785.455V797.548H49.0064V785.455M32.0771 787.874L42.1541 779.006L52.231 787.874" stroke="#777777" stroke-width="2.01538" stroke-linecap="round" stroke-linejoin="round"/>
<path d="M37.5402 817.915V821.374H45.7539V817.915H37.5402ZM44.4177 818.95V820.339H38.8895V818.95H44.4177ZM36.7935 810.462V811.523H46.4744V810.462H36.7935ZM41.6536 811.916C39.1384 811.916 37.7236 812.492 37.7236 813.619C37.7236 814.732 39.1384 815.309 41.6536 815.309C44.1688 815.309 45.5836 814.732 45.5836 813.619C45.5836 812.492 44.1688 811.916 41.6536 811.916ZM41.6536 812.859C43.278 812.859 44.1164 813.108 44.1164 813.619C44.1164 814.116 43.278 814.378 41.6536 814.378C40.0423 814.378 39.1908 814.116 39.1908 813.619C39.1908 813.108 40.0423 812.859 41.6536 812.859ZM40.9724 809.414V811.182H42.3348V809.414H40.9724ZM36.2433 816.068V817.143H47.0639V816.068H36.2433ZM40.9724 814.981V816.645H42.3348V814.981H40.9724Z" fill="#777777"/>
<path d="M125.473 793.096L130.73 798.354" stroke="#D2D6D8" stroke-width="2.01538" stroke-linecap="round" stroke-linejoin="round"/>
<path d="M118.902 794.849C123.499 794.849 127.226 791.122 127.226 786.525C127.226 781.927 123.499 778.2 118.902 778.2C114.305 778.2 110.578 781.927 110.578 786.525C110.578 791.122 114.305 794.849 118.902 794.849Z" stroke="#D2D6D8" stroke-width="2.01538" stroke-linecap="round" stroke-linejoin="round"/>
<path d="M109.256 818.924V820.051H120.103V818.924H109.256ZM113.986 816.134V819.265H115.348V816.134H113.986ZM113.946 811.077V811.68C113.946 813.475 112.06 815.138 109.728 815.518L110.278 816.605C112.938 816.081 115.112 814.169 115.112 811.68V811.077H113.946ZM114.221 811.077V811.68C114.221 814.169 116.396 816.042 119.108 816.553L119.645 815.466C117.274 815.099 115.374 813.475 115.374 811.68V811.077H114.221ZM110.147 810.553V811.667H119.173V810.553H110.147ZM123.535 816.763V818.728H124.911V816.763H123.535ZM128.775 809.545V821.518H130.151V809.545H128.775ZM120.535 819.37C122.697 819.37 125.54 819.343 128.173 818.885L128.081 817.876C125.527 818.217 122.579 818.23 120.365 818.243L120.535 819.37ZM120.601 810.946V812.034H127.845V810.946H120.601ZM124.217 812.623C122.487 812.623 121.295 813.514 121.295 814.85C121.295 816.199 122.487 817.077 124.217 817.077C125.959 817.077 127.151 816.199 127.151 814.85C127.151 813.514 125.959 812.623 124.217 812.623ZM124.217 813.671C125.173 813.671 125.841 814.13 125.841 814.85C125.841 815.584 125.173 816.029 124.217 816.029C123.273 816.029 122.605 815.584 122.605 814.85C122.605 814.13 123.273 813.671 124.217 813.671ZM123.535 809.571V811.562H124.911V809.571H123.535Z" fill="#D2D6D8"/>
<path d="M189.077 778.2V798.354H209.231M194.72 793.517V789.486M201.169 793.517V784.649M207.619 793.517V779.812" stroke="#D2D6D8" stroke-width="2.01538" stroke-linecap="round" stroke-linejoin="round"/>
<path d="M187.743 815.78V816.881H198.59V815.78H187.743ZM192.59 816.357V819.003H193.953V816.357H192.59ZM189.066 820.169V821.282H197.385V820.169H189.066ZM189.066 818.007V820.614H190.429V818.007H189.066ZM189.158 809.924V814.771H197.175V809.924H195.813V811.313H190.507V809.924H189.158ZM190.507 812.361H195.813V813.684H190.507V812.361ZM204.917 811.929V813.055H207.577V811.929H204.917ZM201.669 810.16V811.352C201.669 813.082 200.66 814.68 198.76 815.335L199.494 816.422C201.616 815.649 202.795 813.684 202.795 811.352V810.16H201.669ZM201.931 810.16V811.431C201.931 813.579 203.096 815.453 205.127 816.186L205.847 815.112C204.066 814.496 203.044 813.003 203.044 811.431V810.16H201.931ZM200.647 817.247V818.348H207.341V821.518H208.716V817.247H200.647ZM207.341 809.545V816.645H208.716V809.545H207.341Z" fill="#D2D6D8"/>
<path d="M286.408 785.549C285.069 782.016 281.657 779.505 277.66 779.505C273.662 779.505 270.25 782.014 268.911 785.546C266.405 786.204 264.554 788.485 264.554 791.201C264.554 794.432 267.171 797.049 270.399 797.049H284.908C288.137 797.049 290.754 794.432 290.754 791.201C290.754 788.49 288.909 786.21 286.408 785.549ZM287.47 793.766C287.134 794.103 286.735 794.371 286.296 794.553C285.856 794.735 285.384 794.828 284.908 794.827H270.399C269.431 794.827 268.522 794.45 267.837 793.766C267.5 793.429 267.232 793.03 267.05 792.59C266.868 792.149 266.775 791.677 266.776 791.201C266.776 790.382 267.042 789.613 267.542 788.97C268.032 788.347 268.71 787.899 269.475 787.692L270.583 787.403L270.99 786.332C271.241 785.666 271.592 785.043 272.034 784.479C272.469 783.919 272.986 783.427 273.566 783.019C274.768 782.174 276.183 781.727 277.66 781.727C279.136 781.727 280.552 782.174 281.753 783.019C282.335 783.429 282.85 783.92 283.286 784.479C283.727 785.043 284.078 785.669 284.329 786.332L284.733 787.4L285.838 787.692C287.426 788.116 288.531 789.558 288.531 791.201C288.531 792.169 288.154 793.081 287.47 793.766Z" fill="#D2D6D8"/>
<path d="M268.911 820.431H270.444V810.789H268.911V820.431ZM275.627 820.614C278.103 820.614 279.819 818.688 279.819 815.571C279.819 812.466 278.103 810.619 275.627 810.619C273.138 810.619 271.422 812.466 271.422 815.571C271.422 818.688 273.138 820.614 275.627 820.614ZM275.627 819.278C274.016 819.278 272.994 817.824 272.994 815.571C272.994 813.317 274.016 811.942 275.627 811.942C277.226 811.942 278.26 813.317 278.26 815.571C278.26 817.824 277.226 819.278 275.627 819.278ZM282.358 820.431H283.89V812.073H286.72V810.789H279.528V812.073H282.358V820.431Z" fill="#D2D6D8"/>
<path d="M345.748 790.602C345.132 790.602 344.54 790.357 344.104 789.921C343.668 789.485 343.423 788.894 343.423 788.277C343.423 787.66 343.668 787.069 344.104 786.633C344.54 786.196 345.132 785.951 345.748 785.951C346.365 785.951 346.957 786.196 347.393 786.633C347.829 787.069 348.074 787.66 348.074 788.277C348.074 788.894 347.829 789.485 347.393 789.921C346.957 790.357 346.365 790.602 345.748 790.602ZM353.5 790.602C352.883 790.602 352.292 790.357 351.855 789.921C351.419 789.485 351.174 788.894 351.174 788.277C351.174 787.66 351.419 787.069 351.855 786.633C352.292 786.196 352.883 785.951 353.5 785.951C354.117 785.951 354.708 786.196 355.144 786.633C355.58 787.069 355.825 787.66 355.825 788.277C355.825 788.894 355.58 789.485 355.144 789.921C354.708 790.357 354.117 790.602 353.5 790.602ZM361.251 790.602C360.635 790.602 360.043 790.357 359.607 789.921C359.171 789.485 358.926 788.894 358.926 788.277C358.926 787.66 359.171 787.069 359.607 786.633C360.043 786.196 360.635 785.951 361.251 785.951C361.868 785.951 362.459 786.196 362.896 786.633C363.332 787.069 363.577 787.66 363.577 788.277C363.577 788.894 363.332 789.485 362.896 789.921C362.459 790.357 361.868 790.602 361.251 790.602Z" fill="#D2D6D8"/>
<path d="M337.179 815.765V816.904H338.122C340.349 816.904 341.79 816.839 343.467 816.525L343.323 815.411C341.712 815.712 340.297 815.765 338.122 815.765H337.179ZM337.179 808.94V816.197H338.555V810.053H342.616V808.94H337.179ZM345.17 807.839V819.839H346.546V807.839H345.17ZM341.961 812.084V813.21H345.746V812.084H341.961ZM347.646 817.219V818.345H358.493V817.219H347.646ZM352.362 814.494V817.52H353.724V814.494H352.362ZM348.851 808.651V814.822H357.235V808.651H355.873V810.656H350.227V808.651H348.851ZM350.227 811.743H355.873V813.708H350.227V811.743ZM367.191 807.839V819.813H368.567V807.839H367.191ZM363.68 809.11V809.346C363.68 812.542 362.226 814.913 358.781 816.577L359.501 817.677C363.615 815.673 365.03 812.66 365.03 809.11H363.68ZM359.37 809.11V810.21H364.296V809.11H359.37Z" fill="#D2D6D8"/>
<rect x="30.0034" y="65.5887" width="3.44203" height="11.4734" fill="#575556"/>
<rect x="39.7573" y="73.6188" width="3.44203" height="9.17875" transform="rotate(90 39.7573 73.6188)" fill="#575556"/>
<rect x="65.5718" y="73.6188" width="3.44203" height="12.6208" transform="rotate(90 65.5718 73.6188)" fill="#575556"/>
<rect x="60.9819" y="86.8132" width="3.44203" height="12.0471" transform="rotate(-180 60.9819 86.8132)" fill="#575556"/>
<path d="M30.0076 65.5903L32.8722 68.4572L23.1198 79.9307L20.2518 77.0626L30.0076 65.5903Z" fill="#575556" fill-opacity="0.5"/>
<rect x="30.0034" y="77.061" width="3.44203" height="9.75242" transform="rotate(90 30.0034 77.061)" fill="#575556"/>
<path d="M33.4478 86.8132L30.0057 86.8132L30.0057 77.0608C31.9067 77.0608 33.4478 78.6019 33.4478 80.5028L33.4478 86.8132Z" fill="#575556"/>
<path d="M36.3174 85.0934H38.7474C39.9149 85.0934 41.0029 84.5015 41.6372 83.5212L45.913 76.9131C46.5473 75.9328 47.6353 75.3409 48.8029 75.3409H51.5197" stroke="#575556" stroke-width="3.44203"/>
<rect x="69.5889" y="80.5023" width="1.14734" height="8.60507" transform="rotate(-90 69.5889 80.5023)" fill="#575556"/>
<rect x="78.2329" y="86.8132" width="1.14734" height="13.1944" transform="rotate(-180 78.2329 86.8132)" fill="#575556"/>
<rect x="70.7344" y="86.8319" width="1.14734" height="13.1944" transform="rotate(-180 70.7344 86.8319)" fill="#575556"/>
<path d="M89.1328 80.216C89.1328 83.6816 86.9551 86.2395 84.5434 86.2395C82.1318 86.2395 79.954 83.6816 79.954 80.216C79.954 76.7504 82.1318 74.1924 84.5434 74.1924C86.9551 74.1924 89.1328 76.7504 89.1328 80.216Z" stroke="#575556" stroke-width="1.14734"/>
<path d="M96.019 85.6659L94.8716 85.6659L98.8873 73.6188L100.035 73.6188L96.019 85.6659Z" fill="#575556"/>
<path d="M96.02 85.6659L94.8727 85.6659L90.857 73.6188L92.0043 73.6188L96.02 85.6659Z" fill="#575556"/>
<rect x="100.035" y="86.8134" width="1.14734" height="13.1944" transform="rotate(-180 100.035 86.8134)" fill="#575556"/>
<rect x="92.001" y="86.8134" width="1.14734" height="13.1944" transform="rotate(-180 92.001 86.8134)" fill="#575556"/>
<path fill-rule="evenodd" clip-rule="evenodd" d="M101.182 86.8132H102.781H102.903H108.518V85.6659L102.903 85.6659L102.903 81.0761H107.37V79.9287L102.903 79.9287L102.903 74.7662L108.64 74.7662V73.6188L102.903 73.6188V73.6188C101.953 73.6188 101.182 74.3893 101.182 75.3398L101.182 86.8132Z" fill="#575556"/>
<path d="M118.927 74.7666L117.684 73.5236L117.684 69.7948L118.927 68.5518L120.17 69.7948L120.17 73.5236L118.927 74.7666Z" fill="#DC8772"/>
<path d="M118.927 67.2147L117.684 65.9718L117.684 62.2429L118.927 60.9999L120.17 62.2429L120.17 65.9718L118.927 67.2147Z" fill="#86A6D9"/>
<path d="M119.595 67.8829L120.838 66.6399L124.567 66.6399L125.81 67.8829L124.567 69.1259L120.838 69.1259L119.595 67.8829Z" fill="#F5C851"/>
<path d="M112.042 67.8829L113.284 66.6399L117.013 66.6399L118.256 67.8829L117.013 69.1259L113.284 69.1259L112.042 67.8829Z" fill="#87D5D7"/>
<path d="M352 68.5986C351.576 68.5986 351.169 68.7583 350.869 69.0426C350.569 69.3268 350.4 69.7123 350.4 70.1143C350.4 70.1795 350.416 70.2416 350.425 70.3038C347.659 70.9729 345.6 73.3526 345.6 76.177V82.9976C345.6 83.4266 345.253 83.7555 344.8 83.7555H344V85.2711H349.75C349.654 85.5136 349.603 85.77 349.6 86.029C349.6 87.2756 350.684 88.3025 352 88.3025C353.316 88.3025 354.4 87.2756 354.4 86.029C354.397 85.77 354.346 85.5136 354.25 85.2711H360V83.7555H359.2C358.747 83.7555 358.4 83.4266 358.4 82.9976V76.39C358.4 73.542 356.39 71.0017 353.575 70.3038C353.584 70.2416 353.6 70.1795 353.6 70.1143C353.6 69.7123 353.431 69.3268 353.131 69.0426C352.831 68.7583 352.424 68.5986 352 68.5986ZM351.65 71.63C351.766 71.6209 351.882 71.63 352 71.63H352.15C354.762 71.7043 356.8 73.8732 356.8 76.39V82.9976C356.8 83.2644 356.859 83.516 356.95 83.7555H347.05C347.146 83.513 347.197 83.2565 347.2 82.9976V76.177C347.198 75.0266 347.655 73.918 348.481 73.0744C349.307 72.2308 350.439 71.7147 351.65 71.63H351.65ZM352 85.2711C352.45 85.2711 352.8 85.6031 352.8 86.029C352.8 86.4556 352.45 86.7868 352 86.7868C351.55 86.7868 351.2 86.4549 351.2 86.029C351.2 85.6023 351.55 85.2711 352 85.2711Z" fill="black"/>
<rect x="352" y="65.6974" width="16" height="16" rx="8" fill="#DD8382"/>
<path d="M357.44 77.6974H362.19V76.7174H360.35C359.99 76.7174 359.53 76.7474 359.15 76.7874C360.71 75.2974 361.84 73.8274 361.84 72.4074C361.84 71.0774 360.97 70.1974 359.62 70.1974C358.66 70.1974 358.01 70.6074 357.38 71.2974L358.03 71.9374C358.42 71.4874 358.9 71.1174 359.48 71.1174C360.31 71.1174 360.73 71.6674 360.73 72.4674C360.73 73.6774 359.61 75.1074 357.44 77.0274V77.6974Z" fill="white"/>
</g>
<defs>
<clipPath id="clip0_401_20334">
<rect width="392" height="848.328" rx="30.1538" fill="white"/>
</clipPath>
<clipPath id="clip1_401_20334">
<rect width="20.1026" height="14.0718" fill="white" transform="translate(291.487 18.0923)"/>
</clipPath>
<clipPath id="clip2_401_20334">
<rect width="20.1026" height="12.0615" fill="white" transform="translate(315.61 19.0974)"/>
</clipPath>
</defs>
</svg>
