<svg width="393" height="852" viewBox="0 0 393 852" fill="none" xmlns="http://www.w3.org/2000/svg">
<rect width="393" height="852" rx="24" fill="white"/>
<path d="M52.2876 19.8438C54.6631 19.8605 57.0052 21.2658 57.0219 25.699C57.0219 29.8814 55.1315 32.2904 52.1537 32.2904C49.8116 32.2904 48.2056 30.8349 47.9379 28.8274H50.096C50.3135 29.781 51.0496 30.4 52.1537 30.4C53.9103 30.4 54.8973 28.8441 54.914 26.2511H54.7802C54.1612 27.305 53.0069 27.924 51.6686 27.924C49.5105 27.924 47.8376 26.2846 47.8208 23.9927C47.8208 21.6171 49.5941 19.8271 52.2876 19.8438ZM52.3043 21.6004C50.9492 21.6004 49.9287 22.6543 49.9455 23.9425C49.9455 25.2473 50.9158 26.2678 52.2708 26.2678C53.6092 26.2678 54.6631 25.1804 54.6464 23.9257C54.6464 22.6878 53.6594 21.6004 52.3043 21.6004ZM59.4818 30.6174C58.7624 30.6174 58.1769 30.0319 58.1769 29.3126C58.1769 28.6099 58.7624 28.0244 59.4818 28.0244C60.1677 28.0244 60.77 28.6099 60.77 29.3126C60.77 30.0319 60.1677 30.6174 59.4818 30.6174ZM59.4818 24.1265C58.7624 24.1265 58.1769 23.541 58.1769 22.8216C58.1769 22.119 58.7624 21.5335 59.4818 21.5335C60.1677 21.5335 60.77 22.119 60.77 22.8216C60.77 23.541 60.1677 24.1265 59.4818 24.1265ZM61.9082 29.8646V28.1248L67.1445 20.0111H69.8546V28.0746H71.4439V29.8646H69.8546V32.1231H67.7802V29.8646H61.9082ZM64.1332 28.0746H67.8137V22.487H67.6798L64.1332 27.9909V28.0746ZM77.2496 20.0111V32.1231H75.0581V22.1357H74.9912L72.1639 23.9425V21.9517L75.1585 20.0111H77.2496Z" fill="black"/>
<g clip-path="url(#clip0_411_5374)">
<rect x="308.707" y="19.1461" width="3.22462" height="12.0923" rx="1.00769" fill="black"/>
<rect x="303.366" y="21.5646" width="3.22462" height="9.67385" rx="1.00769" fill="black"/>
<rect x="298.025" y="24.1846" width="3.22462" height="7.05385" rx="1.00769" fill="black"/>
<rect x="292.685" y="26.6031" width="3.22462" height="4.63538" rx="1.00769" fill="black"/>
</g>
<g clip-path="url(#clip1_411_5374)">
<path d="M326.501 27.3422C327.21 27.3422 327.898 27.5284 328.505 27.8836L328.751 28.0275C328.938 28.1366 328.971 28.392 328.818 28.5444L326.718 30.6381C326.589 30.7667 326.38 30.7667 326.251 30.6381L324.165 28.5578C324.013 28.4061 324.045 28.1521 324.229 28.0422L324.473 27.8976C325.085 27.5334 325.783 27.3422 326.501 27.3422Z" fill="black"/>
<path d="M326.501 23.4961C328.265 23.4961 329.958 24.0811 331.337 25.1644L331.532 25.3175C331.687 25.4396 331.701 25.6696 331.561 25.8091L330.308 27.059C330.192 27.1746 330.008 27.1879 329.877 27.0902L329.724 26.9766C328.792 26.2843 327.669 25.913 326.501 25.913C325.326 25.913 324.196 26.2889 323.262 26.9892L323.109 27.1038C322.977 27.2023 322.793 27.1893 322.677 27.0734L321.424 25.8239C321.284 25.6847 321.298 25.4553 321.452 25.333L321.646 25.1798C323.029 24.0868 324.729 23.4961 326.501 23.4961Z" fill="black"/>
<path d="M326.501 19.6499C329.3 19.6499 331.976 20.6371 334.094 22.4465L334.275 22.601C334.421 22.7258 334.43 22.9482 334.294 23.0839L333.044 24.3298C332.923 24.4505 332.73 24.459 332.599 24.3493L332.444 24.2199C330.776 22.8254 328.686 22.0668 326.501 22.0668C324.309 22.0668 322.212 22.8306 320.542 24.2339L320.387 24.3639C320.256 24.4741 320.062 24.4658 319.941 24.3449L318.691 23.0992C318.556 22.9637 318.564 22.7416 318.71 22.6167L318.89 22.4622C321.011 20.643 323.694 19.6499 326.501 19.6499Z" fill="black"/>
</g>
<rect x="342.615" y="20.6576" width="21.1615" height="9.06923" rx="1.34023" fill="black"/>
<path opacity="0.4" fill-rule="evenodd" clip-rule="evenodd" d="M346.243 19.6499H360.149C361.154 19.6499 361.846 19.6507 362.384 19.6946C362.91 19.7376 363.198 19.8168 363.409 19.9245C363.883 20.166 364.269 20.5514 364.51 21.0255C364.618 21.237 364.697 21.5251 364.74 22.0509C364.784 22.5885 364.785 23.2811 364.785 24.2853V26.0992C364.785 27.1034 364.784 27.796 364.74 28.3336C364.697 28.8594 364.618 29.1475 364.51 29.359C364.269 29.833 363.883 30.2184 363.409 30.46C363.198 30.5677 362.91 30.6469 362.384 30.6898C361.846 30.7338 361.154 30.7346 360.149 30.7346H346.243C345.239 30.7346 344.546 30.7338 344.009 30.6898C343.483 30.6469 343.195 30.5677 342.983 30.46C342.509 30.2184 342.124 29.833 341.882 29.359C341.775 29.1475 341.695 28.8594 341.652 28.3336C341.609 27.796 341.608 27.1034 341.608 26.0992V24.2853C341.608 23.2811 341.609 22.5885 341.652 22.0509C341.695 21.5251 341.775 21.237 341.882 21.0255C342.124 20.5514 342.509 20.166 342.983 19.9245C343.195 19.8168 343.483 19.7376 344.009 19.6946C344.546 19.6507 345.239 19.6499 346.243 19.6499ZM340.6 24.2853C340.6 22.3101 340.6 21.3224 340.985 20.568C341.323 19.9043 341.862 19.3648 342.526 19.0267C343.28 18.6422 344.268 18.6422 346.243 18.6422H360.149C362.125 18.6422 363.112 18.6422 363.867 19.0267C364.53 19.3648 365.07 19.9043 365.408 20.568C365.792 21.3224 365.792 22.3101 365.792 24.2853V26.0992C365.792 28.0744 365.792 29.0621 365.408 29.8165C365.07 30.4801 364.53 31.0197 363.867 31.3578C363.112 31.7422 362.125 31.7422 360.149 31.7422H346.243C344.268 31.7422 343.28 31.7422 342.526 31.3578C341.862 31.0197 341.323 30.4801 340.985 29.8165C340.6 29.0621 340.6 28.0744 340.6 26.0992V24.2853ZM366.8 27.2076C367.635 27.0061 368.312 26.3053 368.312 25.1922C368.312 24.0792 367.635 23.3784 366.8 23.1768L366.8 25.1922L366.8 27.2076Z" fill="black"/>
<path d="M28.4178 136.594V145.953H21.699V136.594H28.4178ZM23.4178 137.953V144.562H26.7303V137.953H23.4178ZM32.699 135.266V149.406H30.949V135.266H32.699ZM38.1757 138.969C38.1757 141.25 38.9726 143.625 40.8788 144.828L39.9257 146.156C38.6523 145.391 37.8242 144.07 37.3632 142.516C36.8476 144.227 35.9413 145.672 34.6132 146.484L33.5351 145.188C35.582 143.938 36.5038 141.453 36.5038 139.047V136.516H38.1757V138.969ZM45.957 135.266V149.391H44.2851V135.266H45.957ZM43.0195 135.516V148.703H41.3788V141.562H39.3632V140.125H41.3788V135.516H43.0195ZM53.8399 136.453V139.078H56.6837V135.281H58.418V145.562H56.6837V140.469H53.8399V143.156H47.1993V136.453H53.8399ZM48.9337 137.828V141.781H52.1212V137.828H48.9337ZM58.7774 147.703V149.109H49.1524V144.594H50.8868V147.703H58.7774ZM64.7385 139.281C64.7385 141.594 66.0978 144.031 68.3791 144.984L67.426 146.359C65.7541 145.641 64.5353 144.156 63.8947 142.359C63.2385 144.297 62.0041 145.922 60.3478 146.703L59.3478 145.344C61.5822 144.312 62.9728 141.688 62.9728 139.281V138.094H59.8635V136.656H67.8322V138.094H64.7385V139.281ZM71.1603 135.266V149.391H69.4103V135.266H71.1603Z" fill="#232323"/>
<rect x="20.125" y="158" width="53" height="2.01538" rx="1.00769" fill="#232323"/>
<path d="M103.871 148H101.699L105.683 136.688H108.183L112.183 148H110.011L109.074 145.203H104.808L103.871 148ZM105.355 143.562H108.527L106.98 139H106.886L105.355 143.562ZM114.551 136.688V148H112.519V136.688H114.551ZM125.16 137.203C125.16 139.391 127.301 141.578 130.254 142.094L129.473 143.547C127.106 143.047 125.168 141.617 124.254 139.719C123.316 141.602 121.379 143.039 119.02 143.547L118.254 142.094C121.176 141.562 123.301 139.375 123.316 137.203V136.156H125.16V137.203ZM130.77 146.156V147.594H117.863V146.156H130.77ZM142.481 135.266V149.391H140.731V135.266H142.481ZM139.043 136.641V138.062H137.684V144.391C138.363 144.344 139.028 144.281 139.668 144.203L139.762 145.5C136.731 145.984 133.418 146.047 130.824 146.047L130.653 144.625L132.403 144.609V138.062H131.028V136.641H139.043ZM134.074 144.562C134.699 144.555 135.34 144.531 135.981 144.5V138.062H134.074V144.562ZM150.723 136.656C150.707 140.922 149.457 144.578 144.395 147.188L143.442 145.859C145.785 144.648 147.246 143.242 148.082 141.562L143.754 141.969L143.504 140.484L148.629 140.172C148.817 139.508 148.934 138.805 148.989 138.062H144.239V136.656H150.723ZM155.332 135.266V149.391H153.598V142.203H150.692V140.781H153.598V135.266H155.332Z" fill="#232323" fill-opacity="0.3"/>
<path d="M188.062 136.797V138.188H184.031V140.5H187.812V141.859H184.031V144.609C185.773 144.594 186.984 144.531 188.422 144.312L188.562 145.734C186.922 146.016 185.531 146.062 183.328 146.062H182.375V136.797H188.062ZM194.047 135.266V149.391H192.375V142.219H190.922V148.703H189.281V135.516H190.922V140.812H192.375V135.266H194.047ZM207.742 137.156V138.578H205.82V140.188H207.742V141.625H205.82V143.562H204.086V135.266H205.82V137.156H207.742ZM198.648 136.078C200.82 136.062 202.445 137.453 202.461 139.453C202.445 141.438 200.82 142.828 198.648 142.844C196.461 142.828 194.82 141.438 194.836 139.453C194.82 137.453 196.461 136.062 198.648 136.078ZM198.648 137.531C197.43 137.531 196.523 138.297 196.539 139.453C196.523 140.625 197.43 141.359 198.648 141.375C199.852 141.359 200.758 140.625 200.758 139.453C200.758 138.297 199.852 137.531 198.648 137.531ZM201.227 143.891C204.117 143.891 205.945 144.922 205.961 146.641C205.945 148.359 204.117 149.375 201.227 149.375C198.305 149.375 196.445 148.359 196.445 146.641C196.445 144.922 198.305 143.891 201.227 143.891ZM201.227 145.281C199.289 145.281 198.18 145.75 198.18 146.641C198.18 147.531 199.289 147.984 201.227 147.984C203.164 147.984 204.242 147.531 204.242 146.641C204.242 145.75 203.164 145.281 201.227 145.281ZM215.391 136.078V136.953C215.391 137.859 215.391 139.125 215.047 140.703L213.344 140.562C213.594 139.289 213.649 138.305 213.672 137.5H208.188V136.078H215.391ZM211.828 139.203V141.75C213.297 141.695 214.789 141.602 216.156 141.438L216.25 142.656C213.313 143.156 210.047 143.234 207.5 143.234L207.344 141.828C208.195 141.828 209.133 141.82 210.109 141.797V139.203H211.828ZM218.766 135.266V138.875H220.594V140.328H218.766V143.953H216.984V135.266H218.766ZM214.031 144.109C217.016 144.125 218.875 145.094 218.875 146.703C218.875 148.375 217.016 149.344 214.031 149.344C211.047 149.344 209.188 148.375 209.188 146.703C209.188 145.094 211.047 144.125 214.031 144.109ZM214.031 145.453C212.078 145.453 210.953 145.906 210.953 146.703C210.953 147.562 212.078 147.984 214.031 147.984C215.969 147.984 217.078 147.562 217.094 146.703C217.078 145.906 215.969 145.453 214.031 145.453Z" fill="#232323" fill-opacity="0.3"/>
<circle cx="18.1906" cy="504.987" r="2.06562" fill="#A7B7F6" fill-opacity="0.8"/>
<circle cx="18.1906" cy="517.18" r="2.06562" fill="#A7B7F6" fill-opacity="0.8"/>
<circle cx="18.1906" cy="529.373" r="2.06562" fill="#A7B7F6" fill-opacity="0.8"/>
<circle cx="18.1906" cy="541.566" r="2.06562" fill="#A7B7F6" fill-opacity="0.8"/>
<circle cx="18.1906" cy="553.758" r="2.06562" fill="#A7B7F6" fill-opacity="0.8"/>
<circle cx="351.194" cy="558.11" r="2.06562" fill="#B0E8F7" fill-opacity="0.8"/>
<circle cx="351.194" cy="568.438" r="2.06562" fill="#B0E8F7" fill-opacity="0.8"/>
<circle cx="351.194" cy="578.766" r="2.06562" fill="#B0E8F7" fill-opacity="0.8"/>
<circle cx="351.194" cy="589.094" r="2.06562" fill="#B0E8F7" fill-opacity="0.8"/>
<circle cx="351.194" cy="599.422" r="2.06562" fill="#B0E8F7" fill-opacity="0.8"/>
<circle cx="328.072" cy="558.11" r="2.06562" fill="#B0E8F7" fill-opacity="0.8"/>
<circle cx="328.072" cy="568.438" r="2.06562" fill="#B0E8F7" fill-opacity="0.8"/>
<circle cx="328.072" cy="578.766" r="2.06562" fill="#B0E8F7" fill-opacity="0.8"/>
<circle cx="328.072" cy="589.094" r="2.06562" fill="#B0E8F7" fill-opacity="0.8"/>
<circle cx="328.072" cy="599.422" r="2.06562" fill="#B0E8F7" fill-opacity="0.8"/>
<circle cx="304.95" cy="558.11" r="2.06562" fill="#B0E8F7" fill-opacity="0.8"/>
<circle cx="304.95" cy="568.438" r="2.06562" fill="#B0E8F7" fill-opacity="0.8"/>
<circle cx="304.95" cy="578.766" r="2.06562" fill="#B0E8F7" fill-opacity="0.8"/>
<circle cx="304.95" cy="589.094" r="2.06562" fill="#B0E8F7" fill-opacity="0.8"/>
<circle cx="304.95" cy="599.422" r="2.06562" fill="#B0E8F7" fill-opacity="0.8"/>
<circle cx="293.385" cy="564.75" r="2.06562" fill="#B0E8F7" fill-opacity="0.8"/>
<circle cx="293.385" cy="575.078" r="2.06562" fill="#B0E8F7" fill-opacity="0.8"/>
<circle cx="293.385" cy="585.406" r="2.06562" fill="#B0E8F7" fill-opacity="0.8"/>
<circle cx="293.385" cy="595.734" r="2.06562" fill="#B0E8F7" fill-opacity="0.8"/>
<circle cx="293.385" cy="606.063" r="2.06562" fill="#B0E8F7" fill-opacity="0.8"/>
<circle cx="281.824" cy="569.178" r="2.06562" fill="#B0E8F7" fill-opacity="0.8"/>
<circle cx="281.824" cy="579.507" r="2.06562" fill="#B0E8F7" fill-opacity="0.8"/>
<circle cx="281.824" cy="589.835" r="2.06562" fill="#B0E8F7" fill-opacity="0.8"/>
<circle cx="281.824" cy="600.163" r="2.06562" fill="#B0E8F7" fill-opacity="0.8"/>
<circle cx="281.824" cy="610.491" r="2.06562" fill="#B0E8F7" fill-opacity="0.8"/>
<circle cx="270.259" cy="562.538" r="2.06562" fill="#B0E8F7" fill-opacity="0.8"/>
<circle cx="270.259" cy="572.866" r="2.06562" fill="#B0E8F7" fill-opacity="0.8"/>
<circle cx="270.259" cy="583.194" r="2.06562" fill="#B0E8F7" fill-opacity="0.8"/>
<circle cx="270.259" cy="593.522" r="2.06562" fill="#B0E8F7" fill-opacity="0.8"/>
<circle cx="270.259" cy="603.85" r="2.06562" fill="#B0E8F7" fill-opacity="0.8"/>
<circle cx="270.259" cy="614.179" r="2.06562" fill="#B0E8F7" fill-opacity="0.8"/>
<circle cx="258.695" cy="558.11" r="2.06562" fill="#B0E8F7" fill-opacity="0.8"/>
<circle cx="258.695" cy="568.438" r="2.06562" fill="#B0E8F7" fill-opacity="0.8"/>
<circle cx="258.695" cy="578.766" r="2.06562" fill="#B0E8F7" fill-opacity="0.8"/>
<circle cx="258.695" cy="589.094" r="2.06562" fill="#B0E8F7" fill-opacity="0.8"/>
<circle cx="258.695" cy="599.422" r="2.06562" fill="#B0E8F7" fill-opacity="0.8"/>
<circle cx="258.695" cy="609.75" r="2.06562" fill="#B0E8F7" fill-opacity="0.8"/>
<circle cx="247.133" cy="562.538" r="2.06562" fill="#B0E8F7" fill-opacity="0.8"/>
<circle cx="247.133" cy="572.866" r="2.06562" fill="#B0E8F7" fill-opacity="0.8"/>
<circle cx="247.133" cy="583.194" r="2.06562" fill="#B0E8F7" fill-opacity="0.8"/>
<circle cx="247.133" cy="593.522" r="2.06562" fill="#B0E8F7" fill-opacity="0.8"/>
<circle cx="247.133" cy="603.85" r="2.06562" fill="#B0E8F7" fill-opacity="0.8"/>
<circle cx="247.133" cy="614.179" r="2.06562" fill="#B0E8F7" fill-opacity="0.8"/>
<circle cx="235.572" cy="558.11" r="2.06562" fill="#B0E8F7" fill-opacity="0.8"/>
<circle cx="235.572" cy="568.438" r="2.06562" fill="#B0E8F7" fill-opacity="0.8"/>
<circle cx="235.572" cy="578.766" r="2.06562" fill="#B0E8F7" fill-opacity="0.8"/>
<circle cx="235.572" cy="589.094" r="2.06562" fill="#B0E8F7" fill-opacity="0.8"/>
<circle cx="235.572" cy="599.422" r="2.06562" fill="#B0E8F7" fill-opacity="0.8"/>
<circle cx="235.572" cy="609.75" r="2.06562" fill="#B0E8F7" fill-opacity="0.8"/>
<circle cx="117.63" cy="575.815" r="2.06562" fill="#B0E8F7" fill-opacity="0.8"/>
<circle cx="117.63" cy="586.143" r="2.06562" fill="#B0E8F7" fill-opacity="0.8"/>
<circle cx="129.19" cy="569.178" r="2.06562" fill="#B0E8F7" fill-opacity="0.8"/>
<circle cx="129.19" cy="579.507" r="2.06562" fill="#B0E8F7" fill-opacity="0.8"/>
<circle cx="129.19" cy="589.835" r="2.06562" fill="#B0E8F7" fill-opacity="0.8"/>
<circle cx="140.755" cy="562.538" r="2.06562" fill="#B0E8F7" fill-opacity="0.8"/>
<circle cx="140.755" cy="572.866" r="2.06562" fill="#B0E8F7" fill-opacity="0.8"/>
<circle cx="140.755" cy="583.194" r="2.06562" fill="#B0E8F7" fill-opacity="0.8"/>
<circle cx="140.755" cy="593.522" r="2.06562" fill="#B0E8F7" fill-opacity="0.8"/>
<circle cx="154.631" cy="571.391" r="2.06562" fill="#B0E8F7" fill-opacity="0.8"/>
<circle cx="154.631" cy="581.719" r="2.06562" fill="#B0E8F7" fill-opacity="0.8"/>
<circle cx="154.631" cy="592.047" r="2.06562" fill="#B0E8F7" fill-opacity="0.8"/>
<circle cx="154.631" cy="602.375" r="2.06562" fill="#B0E8F7" fill-opacity="0.8"/>
<circle cx="166.199" cy="544.828" r="2.06562" fill="#B0E8F7" fill-opacity="0.8"/>
<circle cx="166.199" cy="555.157" r="2.06562" fill="#B0E8F7" fill-opacity="0.8"/>
<circle cx="166.199" cy="565.485" r="2.06562" fill="#B0E8F7" fill-opacity="0.8"/>
<circle cx="166.199" cy="575.813" r="2.06562" fill="#B0E8F7" fill-opacity="0.8"/>
<circle cx="166.199" cy="586.141" r="2.06562" fill="#B0E8F7" fill-opacity="0.8"/>
<circle cx="166.199" cy="596.469" r="2.06562" fill="#B0E8F7" fill-opacity="0.8"/>
<circle cx="177.757" cy="551.469" r="2.06562" fill="#B0E8F7" fill-opacity="0.8"/>
<circle cx="177.757" cy="561.797" r="2.06562" fill="#B0E8F7" fill-opacity="0.8"/>
<circle cx="177.757" cy="572.125" r="2.06562" fill="#B0E8F7" fill-opacity="0.8"/>
<circle cx="177.757" cy="582.453" r="2.06562" fill="#B0E8F7" fill-opacity="0.8"/>
<circle cx="177.757" cy="592.781" r="2.06562" fill="#B0E8F7" fill-opacity="0.8"/>
<circle cx="177.757" cy="603.11" r="2.06562" fill="#B0E8F7" fill-opacity="0.8"/>
<circle cx="189.321" cy="560.324" r="2.06562" fill="#B0E8F7" fill-opacity="0.8"/>
<circle cx="189.321" cy="570.652" r="2.06562" fill="#B0E8F7" fill-opacity="0.8"/>
<circle cx="189.321" cy="580.98" r="2.06562" fill="#B0E8F7" fill-opacity="0.8"/>
<circle cx="189.321" cy="591.308" r="2.06562" fill="#B0E8F7" fill-opacity="0.8"/>
<circle cx="189.321" cy="601.636" r="2.06562" fill="#B0E8F7" fill-opacity="0.8"/>
<circle cx="189.321" cy="611.964" r="2.06562" fill="#B0E8F7" fill-opacity="0.8"/>
<circle cx="200.886" cy="566.964" r="2.06562" fill="#B0E8F7" fill-opacity="0.8"/>
<circle cx="200.886" cy="577.292" r="2.06562" fill="#B0E8F7" fill-opacity="0.8"/>
<circle cx="200.886" cy="587.62" r="2.06562" fill="#B0E8F7" fill-opacity="0.8"/>
<circle cx="200.886" cy="597.949" r="2.06562" fill="#B0E8F7" fill-opacity="0.8"/>
<circle cx="200.886" cy="608.277" r="2.06562" fill="#B0E8F7" fill-opacity="0.8"/>
<circle cx="200.886" cy="618.605" r="2.06562" fill="#B0E8F7" fill-opacity="0.8"/>
<circle cx="212.447" cy="562.538" r="2.06562" fill="#B0E8F7" fill-opacity="0.8"/>
<circle cx="212.447" cy="572.866" r="2.06562" fill="#B0E8F7" fill-opacity="0.8"/>
<circle cx="212.447" cy="583.194" r="2.06562" fill="#B0E8F7" fill-opacity="0.8"/>
<circle cx="212.447" cy="593.522" r="2.06562" fill="#B0E8F7" fill-opacity="0.8"/>
<circle cx="212.447" cy="603.85" r="2.06562" fill="#B0E8F7" fill-opacity="0.8"/>
<circle cx="212.447" cy="614.179" r="2.06562" fill="#B0E8F7" fill-opacity="0.8"/>
<circle cx="224" cy="562.538" r="2.06562" fill="#B0E8F7" fill-opacity="0.8"/>
<circle cx="224" cy="572.866" r="2.06562" fill="#B0E8F7" fill-opacity="0.8"/>
<circle cx="224" cy="583.194" r="2.06562" fill="#B0E8F7" fill-opacity="0.8"/>
<circle cx="224" cy="593.522" r="2.06562" fill="#B0E8F7" fill-opacity="0.8"/>
<circle cx="224" cy="603.85" r="2.06562" fill="#B0E8F7" fill-opacity="0.8"/>
<circle cx="224" cy="614.179" r="2.06562" fill="#B0E8F7" fill-opacity="0.8"/>
<circle cx="339.629" cy="553.683" r="2.06562" fill="#B0E8F7" fill-opacity="0.8"/>
<circle cx="339.629" cy="564.011" r="2.06562" fill="#B0E8F7" fill-opacity="0.8"/>
<circle cx="339.629" cy="574.339" r="2.06562" fill="#B0E8F7" fill-opacity="0.8"/>
<circle cx="339.629" cy="584.668" r="2.06562" fill="#B0E8F7" fill-opacity="0.8"/>
<circle cx="339.629" cy="594.996" r="2.06562" fill="#B0E8F7" fill-opacity="0.8"/>
<circle cx="339.629" cy="605.324" r="2.06562" fill="#B0E8F7" fill-opacity="0.8"/>
<circle cx="316.515" cy="553.683" r="2.06562" fill="#B0E8F7" fill-opacity="0.8"/>
<circle cx="316.515" cy="564.011" r="2.06562" fill="#B0E8F7" fill-opacity="0.8"/>
<circle cx="316.515" cy="574.339" r="2.06562" fill="#B0E8F7" fill-opacity="0.8"/>
<circle cx="316.515" cy="584.668" r="2.06562" fill="#B0E8F7" fill-opacity="0.8"/>
<circle cx="316.515" cy="594.996" r="2.06562" fill="#B0E8F7" fill-opacity="0.8"/>
<circle cx="362.762" cy="573.605" r="2.06562" fill="#B0E8F7" fill-opacity="0.8"/>
<circle cx="362.762" cy="583.933" r="2.06562" fill="#B0E8F7" fill-opacity="0.8"/>
<circle cx="362.762" cy="594.261" r="2.06562" fill="#B0E8F7" fill-opacity="0.8"/>
<circle cx="374.32" cy="580.241" r="2.06562" fill="#B0E8F7" fill-opacity="0.8"/>
<circle cx="32.0661" cy="511.628" r="2.06562" fill="#A7B7F6" fill-opacity="0.8"/>
<circle cx="32.0661" cy="523.821" r="2.06562" fill="#A7B7F6" fill-opacity="0.8"/>
<circle cx="32.0661" cy="536.013" r="2.06562" fill="#A7B7F6" fill-opacity="0.8"/>
<circle cx="32.0661" cy="548.206" r="2.06562" fill="#A7B7F6" fill-opacity="0.8"/>
<circle cx="32.0661" cy="560.399" r="2.06562" fill="#A7B7F6" fill-opacity="0.8"/>
<circle cx="45.9416" cy="504.987" r="2.06562" fill="#A7B7F6" fill-opacity="0.8"/>
<circle cx="45.9416" cy="517.18" r="2.06562" fill="#A7B7F6" fill-opacity="0.8"/>
<circle cx="45.9416" cy="529.373" r="2.06562" fill="#A7B7F6" fill-opacity="0.8"/>
<circle cx="45.9416" cy="541.566" r="2.06562" fill="#A7B7F6" fill-opacity="0.8"/>
<circle cx="45.9416" cy="553.758" r="2.06562" fill="#A7B7F6" fill-opacity="0.8"/>
<circle cx="60.5886" cy="510.842" r="2.06562" fill="#A7B7F6" fill-opacity="0.8"/>
<circle cx="60.5886" cy="523.035" r="2.06562" fill="#A7B7F6" fill-opacity="0.8"/>
<circle cx="60.5886" cy="535.228" r="2.06562" fill="#A7B7F6" fill-opacity="0.8"/>
<circle cx="60.5886" cy="547.421" r="2.06562" fill="#A7B7F6" fill-opacity="0.8"/>
<circle cx="60.5886" cy="559.614" r="2.06562" fill="#A7B7F6" fill-opacity="0.8"/>
<circle cx="73.6926" cy="504.987" r="2.06562" fill="#A7B7F6" fill-opacity="0.8"/>
<circle cx="73.6926" cy="517.18" r="2.06562" fill="#A7B7F6" fill-opacity="0.8"/>
<circle cx="73.6926" cy="529.373" r="2.06562" fill="#A7B7F6" fill-opacity="0.8"/>
<circle cx="73.6926" cy="541.566" r="2.06562" fill="#A7B7F6" fill-opacity="0.8"/>
<circle cx="73.6926" cy="553.758" r="2.06562" fill="#A7B7F6" fill-opacity="0.8"/>
<circle cx="101.435" cy="491.706" r="2.06562" fill="#A7B7F6" fill-opacity="0.8"/>
<circle cx="101.435" cy="503.899" r="2.06562" fill="#A7B7F6" fill-opacity="0.8"/>
<circle cx="101.435" cy="516.092" r="2.06562" fill="#A7B7F6" fill-opacity="0.8"/>
<circle cx="101.435" cy="528.285" r="2.06562" fill="#A7B7F6" fill-opacity="0.8"/>
<circle cx="101.435" cy="540.477" r="2.06562" fill="#A7B7F6" fill-opacity="0.8"/>
<circle cx="101.435" cy="552.67" r="2.06562" fill="#A7B7F6" fill-opacity="0.8"/>
<circle cx="126.88" cy="491.706" r="2.06562" fill="#A7B7F6" fill-opacity="0.8"/>
<circle cx="126.88" cy="503.899" r="2.06562" fill="#A7B7F6" fill-opacity="0.8"/>
<circle cx="126.88" cy="516.092" r="2.06562" fill="#A7B7F6" fill-opacity="0.8"/>
<circle cx="126.88" cy="528.285" r="2.06562" fill="#A7B7F6" fill-opacity="0.8"/>
<circle cx="126.88" cy="540.477" r="2.06562" fill="#A7B7F6" fill-opacity="0.8"/>
<circle cx="126.88" cy="552.67" r="2.06562" fill="#A7B7F6" fill-opacity="0.8"/>
<circle cx="115.315" cy="485.066" r="2.06562" fill="#A7B7F6" fill-opacity="0.8"/>
<circle cx="115.315" cy="497.258" r="2.06562" fill="#A7B7F6" fill-opacity="0.8"/>
<circle cx="115.315" cy="509.451" r="2.06562" fill="#A7B7F6" fill-opacity="0.8"/>
<circle cx="115.315" cy="521.644" r="2.06562" fill="#A7B7F6" fill-opacity="0.8"/>
<circle cx="115.315" cy="533.837" r="2.06562" fill="#A7B7F6" fill-opacity="0.8"/>
<circle cx="115.315" cy="546.03" r="2.06562" fill="#A7B7F6" fill-opacity="0.8"/>
<circle cx="87.5598" cy="498.347" r="2.06562" fill="#A7B7F6" fill-opacity="0.8"/>
<circle cx="87.5598" cy="510.539" r="2.06562" fill="#A7B7F6" fill-opacity="0.8"/>
<circle cx="87.5598" cy="522.732" r="2.06562" fill="#A7B7F6" fill-opacity="0.8"/>
<circle cx="87.5598" cy="534.925" r="2.06562" fill="#A7B7F6" fill-opacity="0.8"/>
<circle cx="87.5598" cy="547.118" r="2.06562" fill="#A7B7F6" fill-opacity="0.8"/>
<circle cx="140.755" cy="498.347" r="2.06562" fill="#A7B7F6" fill-opacity="0.8"/>
<circle cx="140.755" cy="510.539" r="2.06562" fill="#A7B7F6" fill-opacity="0.8"/>
<circle cx="140.755" cy="522.732" r="2.06562" fill="#A7B7F6" fill-opacity="0.8"/>
<circle cx="140.755" cy="534.925" r="2.06562" fill="#A7B7F6" fill-opacity="0.8"/>
<circle cx="140.755" cy="547.118" r="2.06562" fill="#A7B7F6" fill-opacity="0.8"/>
<circle cx="154.631" cy="504.987" r="2.06562" fill="#A7B7F6" fill-opacity="0.8"/>
<circle cx="154.631" cy="517.18" r="2.06562" fill="#A7B7F6" fill-opacity="0.8"/>
<circle cx="154.631" cy="529.373" r="2.06562" fill="#A7B7F6" fill-opacity="0.8"/>
<circle cx="154.631" cy="541.566" r="2.06562" fill="#A7B7F6" fill-opacity="0.8"/>
<circle cx="154.631" cy="553.758" r="2.06562" fill="#A7B7F6" fill-opacity="0.8"/>
<path d="M23.0549 669.947H17.2685V678.061H23.0549V669.947ZM18.5635 677V670.98H21.7874V677H18.5635ZM25.4934 681.134H26.8022V668.762H25.4934V681.134ZM31.5258 672.137V669.892H30.2583V672.192C30.2652 674.293 29.3421 676.477 27.5993 677.524L28.4122 678.502C29.6108 677.772 30.4649 676.436 30.9127 674.872C31.3398 676.298 32.1182 677.531 33.2755 678.227L34.0056 677.221C32.3524 676.208 31.5258 674.107 31.5258 672.137ZM32.6693 674.19H34.5843V680.5H35.8242V668.996H34.5843V673.102H32.6693V674.19ZM37.133 681.106H38.3867V668.762H37.133V681.106ZM45.2457 669.809H39.5145V675.609H45.2457V673.198H47.9323V677.772H49.2411V668.776H47.9323V672.151H45.2457V669.809ZM40.8095 674.576V670.87H43.9645V674.576H40.8095ZM41.2228 680.844H49.5717V679.783H42.5317V676.932H41.2228V680.844ZM54.681 672.399V671.09H57.4916V670.002H50.5342V671.09H53.3584V672.399C53.3447 674.528 51.967 676.842 50.1071 677.717L50.8648 678.75C52.3045 678.048 53.4618 676.546 54.0335 674.782C54.6053 676.429 55.7625 677.793 57.216 678.433L57.9324 677.414C56.0312 676.601 54.6742 674.466 54.681 672.399ZM59.0484 681.106H60.3572V668.762H59.0484V681.106ZM73.7308 672.096H66.5529V668.982H65.2579V673.157H68.7435V674.645H63.7562V675.719H75.0258V674.645H70.0385V673.157H73.7308V672.096ZM65.0925 678.833C65.0925 680.266 66.6976 681.085 69.3772 681.078C72.0362 681.085 73.6274 680.266 73.6343 678.833C73.6274 677.386 72.0362 676.567 69.3772 676.56C66.6976 676.567 65.0925 677.386 65.0925 678.833ZM66.4151 678.833C66.4083 678.02 67.4898 677.586 69.3772 677.579C71.2371 677.586 72.3255 678.02 72.3255 678.833C72.3255 679.611 71.2371 680.066 69.3772 680.073C67.4898 680.066 66.4083 679.611 66.4151 678.833ZM84.9433 674.452H77.6552V670.773H84.8331V669.712H76.3464V675.499H79.9147V678.516H74.9412V679.591H86.2383V678.516H81.2097V675.499H84.9433V674.452ZM98.8266 668.762H97.504V681.106H98.8266V668.762ZM88.6867 677.8L89.3756 678.86C93.612 676.828 95.1482 673.701 95.1482 670.084H89.2791V671.131H93.8256C93.5707 674.011 91.9657 676.236 88.6867 677.8ZM109.998 669.354H100.781V670.401H104.501C104.439 671.738 102.675 672.929 100.368 673.212L100.864 674.245C102.972 673.97 104.701 672.984 105.376 671.6C106.037 672.984 107.773 673.97 109.888 674.245L110.384 673.212C108.09 672.929 106.312 671.745 106.237 670.401H109.998V669.354ZM99.7339 676.105H104.831V678.502H106.126V676.105H111.031V675.044H99.7339V676.105ZM101.139 680.844H109.777V679.783H102.448V677.317H101.139V680.844ZM114.113 676.133C114.127 678.736 114.864 680.893 116.152 682.746H117.502C116.552 681.375 115.642 678.599 115.642 676.133C115.642 673.673 116.552 670.897 117.502 669.533H116.152C114.864 671.379 114.127 673.536 114.113 676.133ZM127.103 668.776H125.794V678.006H127.103V673.832H128.894V672.743H127.103V668.776ZM117.418 671.269H124.775V670.208H121.758V668.762H120.449V670.208H117.418V671.269ZM118.093 674.19C118.086 675.588 119.305 676.498 121.096 676.505C122.867 676.498 124.086 675.588 124.086 674.19C124.086 672.778 122.867 671.855 121.096 671.862C119.305 671.855 118.086 672.778 118.093 674.19ZM119.278 680.844H127.627V679.783H120.586V677.276H119.278V680.844ZM119.36 674.19C119.347 673.377 120.049 672.874 121.096 672.867C122.143 672.874 122.846 673.377 122.86 674.19C122.846 674.996 122.143 675.492 121.096 675.485C120.049 675.492 119.347 674.996 119.36 674.19ZM138.453 669.34H130.008V670.401H137.158C137.158 671.283 137.145 672.309 136.855 673.694H128.589V674.755H133.562V676.863H129.746V677.91H137.2V681.106H138.508V676.863H134.871V674.755H139.886V673.694H138.171C138.46 672.261 138.46 671.173 138.453 670.264V669.34ZM143.163 676.133C143.149 673.536 142.412 671.379 141.124 669.533H139.774C140.725 670.897 141.634 673.673 141.634 676.133C141.634 678.599 140.725 681.375 139.774 682.746H141.124C142.412 680.893 143.149 678.736 143.163 676.133Z" fill="#232323"/>
<path d="M24.9561 726.012H24.0311V726.977H20.4687V727.734H28.5381V726.977H24.9561V726.012ZM20.882 725.835L21.1871 726.534C22.7419 726.401 24.0311 725.83 24.5034 724.954C24.9659 725.835 26.2551 726.401 27.8099 726.534L28.115 725.835C26.5208 725.727 25.2808 725.122 25.1283 724.359H27.8001V723.64H21.2166V724.359H23.8588C23.7063 725.117 22.4516 725.727 20.882 725.835ZM21.2166 729.535H27.7705V728.817H24.9561V728.039H24.0311V728.817H21.2166V729.535ZM21.8169 731.07C21.812 731.843 22.7714 732.246 24.4837 732.241C26.196 732.246 27.1752 731.843 27.1801 731.07C27.1752 730.308 26.196 729.914 24.4837 729.909C22.7714 729.914 21.812 730.308 21.8169 731.07ZM22.7714 731.07C22.7616 730.716 23.3816 730.554 24.4837 730.549C25.6056 730.554 26.2108 730.716 26.2157 731.07C26.2108 731.425 25.6056 731.611 24.4837 731.602C23.3816 731.611 22.7616 731.425 22.7714 731.07ZM32.1949 723.572C30.2662 723.567 29.041 724.196 29.0459 725.264C29.041 726.312 30.2662 726.932 32.1949 726.927C34.1287 726.932 35.3391 726.312 35.344 725.264C35.3391 724.196 34.1287 723.567 32.1949 723.572ZM28.1799 728.364H36.2198V727.606H28.1799V728.364ZM29.1443 732.094H35.2357V729.151H29.1443V732.094ZM30.0103 725.264C30.0054 724.654 30.8369 724.305 32.1949 724.31C33.5431 724.305 34.3845 724.654 34.3796 725.264C34.3845 725.85 33.5431 726.194 32.1949 726.199C30.8369 726.194 30.0054 725.85 30.0103 725.264ZM30.0693 731.336V729.899H34.3304V731.336H30.0693Z" fill="#5FB2FF"/>
<path d="M86.2255 727.616C86.5502 727.252 86.9537 727.065 87.3965 727.065C88.1641 727.065 88.8431 727.626 89.591 727.626C90.0437 727.626 90.4373 727.429 90.7424 727.036V727.98C90.4078 728.344 90.0142 728.531 89.5713 728.531C88.8037 728.531 88.1149 727.97 87.367 727.97C86.9242 727.97 86.5404 728.167 86.2255 728.561V727.616ZM93.7497 731.464C92.2736 731.464 91.2206 730.667 91.1813 729.506H92.2834C92.3228 730.135 92.9428 730.529 93.7399 730.529C94.596 730.529 95.2258 730.057 95.2258 729.368C95.2258 728.669 94.6354 728.157 93.6218 728.157H93.0117V727.272H93.6218C94.4287 727.272 94.9995 726.819 94.9995 726.14C94.9995 725.491 94.5173 725.048 93.7595 725.048C93.0412 725.048 92.4114 725.441 92.3818 726.091H91.3387C91.3682 724.93 92.4409 724.142 93.7694 724.142C95.1668 724.142 96.0524 725.028 96.0426 726.081C96.0524 726.888 95.5506 727.478 94.783 727.665V727.715C95.7572 727.852 96.3181 728.502 96.3181 729.407C96.3181 730.598 95.2258 731.464 93.7497 731.464ZM98.981 731.464C97.3278 731.464 96.3634 730.135 96.3634 727.803C96.3634 725.491 97.3475 724.142 98.981 724.142C100.615 724.142 101.599 725.491 101.599 727.803C101.599 730.135 100.624 731.464 98.981 731.464ZM98.981 730.529C99.9454 730.529 100.516 729.584 100.516 727.803C100.516 726.032 99.9356 725.058 98.981 725.058C98.0265 725.058 97.4459 726.032 97.4459 727.803C97.4459 729.584 98.0167 730.529 98.981 730.529Z" fill="#5FB2FF"/>
<path d="M118.736 730.332H115.145V728.522H117.782V723.985H116.857V725.5H112.527V723.985H111.592V728.522H114.22V730.332H110.667V731.11H118.736V730.332ZM112.527 727.764V726.258H116.857V727.764H112.527ZM126.408 728.02H122.846V727.252H125.483V726.524H120.346V725.776H125.198V725.077H120.346V724.359H125.424V723.621H119.402V727.252H121.911V728.02H118.349V728.758H126.408V728.02ZM119.323 730.765C119.323 731.695 120.42 732.187 122.383 732.182C124.317 732.187 125.419 731.695 125.424 730.765C125.419 729.84 124.317 729.333 122.383 729.338C120.42 729.333 119.323 729.84 119.323 730.765ZM120.258 730.765C120.253 730.288 120.991 730.037 122.383 730.037C123.756 730.037 124.489 730.288 124.489 730.765C124.489 731.242 123.756 731.484 122.383 731.474C120.991 731.484 120.253 731.242 120.258 730.765Z" fill="#77CB85"/>
<path d="M176.414 727.616V728.561C176.724 728.172 177.118 727.97 177.555 727.97C178.308 727.97 178.992 728.531 179.76 728.531C180.203 728.531 180.601 728.344 180.931 727.98V727.036C180.621 727.424 180.227 727.626 179.779 727.626C179.032 727.626 178.353 727.065 177.585 727.065C177.142 727.065 176.744 727.252 176.414 727.616ZM183.987 731.464C185.513 731.464 186.6 730.627 186.605 729.466C186.6 728.551 185.941 727.803 185.109 727.675V727.636C185.828 727.469 186.325 726.819 186.329 726.042C186.325 724.944 185.331 724.142 183.987 724.142C182.624 724.142 181.635 724.944 181.635 726.042C181.635 726.819 182.123 727.469 182.856 727.636V727.675C182.014 727.803 181.36 728.551 181.37 729.466C181.36 730.627 182.437 731.464 183.987 731.464ZM182.472 729.387C182.457 728.654 183.102 728.118 183.987 728.118C184.863 728.118 185.503 728.654 185.503 729.387C185.503 730.086 184.912 730.568 183.987 730.568C183.048 730.568 182.457 730.086 182.472 729.387ZM182.688 726.14C182.693 725.476 183.205 725.023 183.987 725.028C184.75 725.023 185.272 725.476 185.267 726.14C185.272 726.809 184.73 727.267 183.987 727.262C183.225 727.267 182.693 726.804 182.688 726.14ZM189.199 731.464C190.847 731.464 191.812 730.135 191.817 727.803C191.812 725.486 190.833 724.142 189.199 724.142C187.561 724.142 186.581 725.486 186.581 727.803C186.581 730.135 187.551 731.464 189.199 731.464ZM187.664 727.803C187.664 726.032 188.24 725.062 189.199 725.058C190.154 725.062 190.734 726.032 190.734 727.803C190.734 729.579 190.159 730.529 189.199 730.529C188.235 730.529 187.659 729.579 187.664 727.803Z" fill="#77CB85"/>
<g clip-path="url(#clip2_411_5374)">
<path d="M209.092 726.848H207.724V723.384H206.789V732.192H207.724V727.616H209.092V726.848ZM201.19 729.978H201.918C203.242 729.983 204.629 729.894 206.14 729.594L206.032 728.807C204.629 729.092 203.345 729.195 202.115 729.2V724.241H201.19V729.978ZM210.151 723.591H209.265V726.966H212.257V723.591H211.381V724.536H210.151V723.591ZM208.557 728.482H216.597V727.724H208.557V728.482ZM209.521 732.093H215.613V729.279H209.521V732.093ZM210.151 726.209V725.264H211.381V726.209H210.151ZM210.436 731.336V730.027H214.697V731.336H210.436ZM212.887 726.966H215.888V723.591H214.993V724.536H213.782V723.591H212.887V726.966ZM213.782 726.209V725.264H214.993V726.209H213.782Z" fill="#FFAD78"/>
<path d="M262.602 727.616V728.561C262.912 728.172 263.306 727.97 263.744 727.97C264.497 727.97 265.181 728.531 265.948 728.531C266.391 728.531 266.79 728.344 267.119 727.98V727.036C266.809 727.424 266.416 727.626 265.968 727.626C265.22 727.626 264.541 727.065 263.773 727.065C263.331 727.065 262.932 727.252 262.602 727.616ZM270.392 724.241H269.33L267.558 725.402V726.435L269.261 725.323H269.3V731.365H270.392V724.241ZM273.616 731.464C275.102 731.464 276.155 730.455 276.155 729.053C276.155 727.68 275.166 726.686 273.823 726.681C273.282 726.686 272.78 726.878 272.485 727.163H272.416L272.652 725.166H275.791V724.241H271.756L271.294 728.207H272.317C272.558 727.769 272.996 727.577 273.567 727.577C274.462 727.587 275.102 728.216 275.102 729.082C275.102 729.929 274.482 730.554 273.616 730.559C272.898 730.554 272.317 730.111 272.258 729.506H271.205C271.254 730.642 272.268 731.464 273.616 731.464ZM278.779 731.464C280.427 731.464 281.391 730.135 281.396 727.803C281.391 725.486 280.412 724.142 278.779 724.142C277.14 724.142 276.161 725.486 276.161 727.803C276.161 730.135 277.13 731.464 278.779 731.464ZM277.243 727.803C277.243 726.032 277.819 725.062 278.779 725.058C279.733 725.062 280.314 726.032 280.314 727.803C280.314 729.579 279.738 730.529 278.779 730.529C277.814 730.529 277.239 729.579 277.243 727.803Z" fill="#FFAD78"/>
</g>
<path d="M298.631 723.385H297.736V726.839H296.643V723.552H295.758V731.769H296.643V727.606H297.736V732.202H298.631V723.385ZM291.339 729.88H294.764V724.379H291.339V729.88ZM292.225 729.132V725.117H293.888V729.132H292.225ZM306.805 728.394H298.736V729.171H302.288V732.202H303.203V729.171H306.805V728.394ZM299.611 725.678C299.616 726.863 300.886 727.616 302.751 727.616C304.615 727.616 305.895 726.863 305.89 725.678C305.895 724.477 304.615 723.719 302.751 723.719C300.886 723.719 299.616 724.477 299.611 725.678ZM300.576 725.678C300.571 724.935 301.442 724.472 302.751 724.467C304.064 724.472 304.93 724.935 304.935 725.678C304.93 726.411 304.064 726.868 302.751 726.868C301.442 726.868 300.571 726.411 300.576 725.678ZM314.683 726.849H313.316V723.385H312.381V732.192H313.316V727.616H314.683V726.849ZM306.781 729.978H307.51C308.833 729.983 310.221 729.894 311.731 729.594L311.623 728.807C310.221 729.092 308.936 729.196 307.706 729.201V724.241H306.781V729.978ZM315.742 723.591H314.857V726.967H317.848V723.591H316.972V724.536H315.742V723.591ZM314.148 728.482H322.188V727.724H314.148V728.482ZM315.112 732.094H321.204V729.279H315.112V732.094ZM315.742 726.209V725.264H316.972V726.209H315.742ZM316.028 731.336V730.027H320.289V731.336H316.028ZM318.478 726.967H321.479V723.591H320.584V724.536H319.374V723.591H318.478V726.967ZM319.374 726.209V725.264H320.584V726.209H319.374Z" fill="#FF7C7B"/>
<path d="M357.182 724.241H356.119L354.348 725.402V726.435L356.051 725.323H356.09V731.365H357.182V724.241ZM360.406 731.464C361.892 731.464 362.945 730.455 362.945 729.053C362.945 727.68 361.956 726.686 360.613 726.681C360.071 726.686 359.57 726.878 359.274 727.163H359.205L359.442 725.166H362.581V724.241H358.546L358.084 728.207H359.107C359.348 727.769 359.786 727.577 360.357 727.577C361.252 727.587 361.892 728.216 361.892 729.082C361.892 729.929 361.272 730.554 360.406 730.559C359.688 730.554 359.107 730.111 359.048 729.506H357.995C358.044 730.642 359.058 731.464 360.406 731.464ZM365.795 724.241H364.732L362.961 725.402V726.435L364.663 725.323H364.703V731.365H365.795V724.241ZM366.913 727.616V728.561C367.223 728.172 367.616 727.97 368.054 727.97C368.807 727.97 369.491 728.531 370.259 728.531C370.701 728.531 371.1 728.344 371.43 727.98V727.036C371.12 727.424 370.726 727.626 370.278 727.626C369.53 727.626 368.851 727.065 368.084 727.065C367.641 727.065 367.242 727.252 366.913 727.616Z" fill="#FF7C7B"/>
<rect x="16.123" y="701.242" width="90.1885" height="8.06154" fill="#5FB2FF"/>
<rect x="106.312" y="701.242" width="90.1885" height="8.06154" fill="#77CB85"/>
<rect x="196.5" y="701.242" width="90.1885" height="8.06154" fill="#FFAD78"/>
<rect x="286.688" y="701.242" width="90.1885" height="8.06154" fill="#FF7C7B"/>
<rect x="124.188" y="841" width="144.624" height="5.03846" rx="2.51923" fill="black"/>
<rect x="27.0034" y="65.5887" width="3.44203" height="11.4734" fill="#575556"/>
<rect x="36.7573" y="73.6188" width="3.44203" height="9.17875" transform="rotate(90 36.7573 73.6188)" fill="#575556"/>
<rect x="62.5718" y="73.6188" width="3.44203" height="12.6208" transform="rotate(90 62.5718 73.6188)" fill="#575556"/>
<rect x="57.9819" y="86.8132" width="3.44203" height="12.0471" transform="rotate(-180 57.9819 86.8132)" fill="#575556"/>
<path d="M27.0076 65.5903L29.8722 68.4573L20.1198 79.9307L17.2518 77.0627L27.0076 65.5903Z" fill="#575556" fill-opacity="0.5"/>
<rect x="27.0034" y="77.0611" width="3.44203" height="9.75242" transform="rotate(90 27.0034 77.0611)" fill="#575556"/>
<path d="M30.4478 86.8132L27.0057 86.8132L27.0057 77.0608C28.9067 77.0608 30.4478 78.6019 30.4478 80.5028L30.4478 86.8132Z" fill="#575556"/>
<path d="M33.3174 85.0933H35.7474C36.9149 85.0933 38.0029 84.5014 38.6372 83.5212L42.913 76.913C43.5473 75.9328 44.6353 75.3409 45.8029 75.3409H48.5197" stroke="#575556" stroke-width="3.44203"/>
<rect x="66.5889" y="80.5023" width="1.14734" height="8.60507" transform="rotate(-90 66.5889 80.5023)" fill="#575556"/>
<rect x="75.2329" y="86.8132" width="1.14734" height="13.1944" transform="rotate(-180 75.2329 86.8132)" fill="#575556"/>
<rect x="67.7344" y="86.8319" width="1.14734" height="13.1944" transform="rotate(-180 67.7344 86.8319)" fill="#575556"/>
<path d="M86.1328 80.216C86.1328 83.6816 83.9551 86.2395 81.5434 86.2395C79.1318 86.2395 76.954 83.6816 76.954 80.216C76.954 76.7504 79.1318 74.1924 81.5434 74.1924C83.9551 74.1924 86.1328 76.7504 86.1328 80.216Z" stroke="#575556" stroke-width="1.14734"/>
<path d="M93.019 85.6659L91.8716 85.6659L95.8873 73.6188L97.0347 73.6188L93.019 85.6659Z" fill="#575556"/>
<path d="M93.02 85.6659L91.8727 85.6659L87.857 73.6188L89.0043 73.6188L93.02 85.6659Z" fill="#575556"/>
<rect x="97.0347" y="86.8133" width="1.14734" height="13.1944" transform="rotate(-180 97.0347 86.8133)" fill="#575556"/>
<rect x="89.001" y="86.8133" width="1.14734" height="13.1944" transform="rotate(-180 89.001 86.8133)" fill="#575556"/>
<path fill-rule="evenodd" clip-rule="evenodd" d="M98.1821 86.8132H99.7811H99.9031H105.518V85.6659L99.9031 85.6659L99.9031 81.0761H104.37V79.9287L99.9031 79.9287L99.9031 74.7662L105.64 74.7662V73.6188L99.9031 73.6188V73.6188C98.9527 73.6188 98.1821 74.3893 98.1821 75.3398L98.1821 86.8132Z" fill="#575556"/>
<path d="M115.927 74.7666L114.684 73.5236L114.684 69.7947L115.927 68.5518L117.17 69.7947L117.17 73.5236L115.927 74.7666Z" fill="#DC8772"/>
<path d="M115.927 67.2148L114.684 65.9718L114.684 62.243L115.927 61L117.17 62.243L117.17 65.9718L115.927 67.2148Z" fill="#86A6D9"/>
<path d="M116.595 67.8829L117.838 66.6399L121.567 66.6399L122.81 67.8829L121.567 69.1258L117.838 69.1258L116.595 67.8829Z" fill="#F5C851"/>
<path d="M109.042 67.8829L110.284 66.6399L114.013 66.6399L115.256 67.8829L114.013 69.1258L110.284 69.1258L109.042 67.8829Z" fill="#87D5D7"/>
<path d="M357 68.5987C356.576 68.5987 356.169 68.7584 355.869 69.0426C355.569 69.3269 355.4 69.7124 355.4 70.1144C355.4 70.1796 355.416 70.2417 355.425 70.3039C352.659 70.973 350.6 73.3526 350.6 76.1771V82.9977C350.6 83.4266 350.253 83.7555 349.8 83.7555H349V85.2712H354.75C354.654 85.5137 354.603 85.7701 354.6 86.0291C354.6 87.2757 355.684 88.3026 357 88.3026C358.316 88.3026 359.4 87.2757 359.4 86.0291C359.397 85.7701 359.346 85.5137 359.25 85.2712H365V83.7555H364.2C363.747 83.7555 363.4 83.4266 363.4 82.9977V76.3901C363.4 73.5421 361.39 71.0018 358.575 70.3039C358.584 70.2417 358.6 70.1796 358.6 70.1144C358.6 69.7124 358.431 69.3269 358.131 69.0426C357.831 68.7584 357.424 68.5987 357 68.5987ZM356.65 71.6301C356.766 71.621 356.882 71.6301 357 71.6301H357.15C359.762 71.7043 361.8 73.8733 361.8 76.3901V82.9977C361.8 83.2645 361.859 83.5161 361.95 83.7555H352.05C352.146 83.513 352.197 83.2566 352.2 82.9977V76.1771C352.198 75.0267 352.655 73.9181 353.481 73.0745C354.307 72.2308 355.439 71.7148 356.65 71.6301H356.65ZM357 85.2712C357.45 85.2712 357.8 85.6032 357.8 86.0291C357.8 86.4557 357.45 86.7869 357 86.7869C356.55 86.7869 356.2 86.455 356.2 86.0291C356.2 85.6024 356.55 85.2712 357 85.2712Z" fill="black"/>
<rect x="357" y="65.6974" width="16" height="16" rx="8" fill="#DD8382"/>
<path d="M362.44 77.6974H367.19V76.7174H365.35C364.99 76.7174 364.53 76.7474 364.15 76.7874C365.71 75.2974 366.84 73.8274 366.84 72.4074C366.84 71.0774 365.97 70.1974 364.62 70.1974C363.66 70.1974 363.01 70.6074 362.38 71.2974L363.03 71.9374C363.42 71.4874 363.9 71.1174 364.48 71.1174C365.31 71.1174 365.73 71.6674 365.73 72.4674C365.73 73.6774 364.61 75.1074 362.44 77.0274V77.6974Z" fill="white"/>
<path d="M151.049 272.752V277.947H154.025V280.097H151.049V285.269H148.428V272.752H151.049ZM145.145 274.216C145.145 279.837 141.484 283.805 135.178 285.6L134.139 283.474C138.981 282.151 141.85 279.542 142.311 276.341H135.107V274.216H145.145ZM144.153 285.529C148.475 285.529 151.286 287.182 151.286 289.804C151.286 292.472 148.475 294.078 144.153 294.078C139.855 294.078 136.997 292.472 137.021 289.804C136.997 287.182 139.855 285.529 144.153 285.529ZM144.153 287.583C141.343 287.583 139.595 288.386 139.618 289.804C139.595 291.197 141.343 292.024 144.153 292.024C146.964 292.024 148.711 291.197 148.711 289.804C148.711 288.386 146.964 287.583 144.153 287.583ZM170.944 272.775V277.404H173.943V279.577H170.944V284.797H168.322V272.775H170.944ZM170.944 285.836V293.819H157.127V285.836H170.944ZM159.701 287.891V291.74H168.369V287.891H159.701ZM157.67 273.814V281.325C160.41 281.301 163.291 281.053 166.409 280.451L166.716 282.6C163.173 283.309 159.89 283.498 156.796 283.498H155.025V273.814H157.67ZM191.074 274.05V275.964C191.074 277.959 191.074 280.144 190.507 283.167H193.459V285.293H184.98V294.126H182.335V285.293H173.998V283.167H187.838C188.429 280.262 188.452 278.089 188.452 276.176H176.289V274.05H191.074ZM216.998 272.752V294.102H214.495V283.214H212.086V293.016H209.677V273.153H212.086V281.112H214.495V272.752H216.998ZM207.268 275.279V277.404H201.93V286.899C204.256 286.875 206.169 286.757 208.33 286.355L208.519 288.505C205.945 289.024 203.701 289.095 200.726 289.119H199.285V275.279H207.268ZM236.255 272.752V294.102H233.633V272.752H236.255ZM226.713 279.53C226.713 282.789 228.697 286.261 232.145 287.702L230.704 289.709C228.248 288.682 226.418 286.544 225.438 283.97C224.481 286.698 222.639 288.977 220.147 290.063L218.73 288.032C222.131 286.521 224.091 282.931 224.091 279.53V278.42H219.391V276.318H224.091V273.2H226.689V276.318H231.295V278.42H226.713V279.53ZM257.896 282.978V285.08H238.412V282.978H246.867V280.947H240.797V273.72H255.535V275.775H243.419V278.869H255.653V280.947H249.441V282.978H257.896ZM248.119 286.308C252.724 286.308 255.487 287.702 255.511 290.205C255.487 292.685 252.724 294.102 248.119 294.102C243.466 294.102 240.679 292.685 240.679 290.205C240.679 287.702 243.466 286.308 248.119 286.308ZM248.119 288.316C245.001 288.316 243.324 288.977 243.348 290.205C243.324 291.433 245.001 292.071 248.119 292.071C251.165 292.071 252.866 291.433 252.889 290.205C252.866 288.977 251.165 288.316 248.119 288.316Z" fill="#232323"/>
<path d="M138.931 325L138.917 324.098L142.294 320.543C143.47 319.299 144.031 318.629 144.031 317.713C144.031 316.701 143.169 316.031 142.062 316.031C140.886 316.031 140.134 316.783 140.134 317.891H138.972C138.958 316.141 140.312 314.965 142.103 314.965C143.894 314.965 145.179 316.168 145.179 317.713C145.179 318.82 144.66 319.682 142.91 321.486L140.64 323.824V323.906H145.357V325H138.931ZM149.38 325.137C147.179 325.137 145.922 323.291 145.922 320.051C145.922 316.838 147.207 314.965 149.38 314.965C151.554 314.965 152.839 316.838 152.839 320.051C152.839 323.291 151.568 325.137 149.38 325.137ZM149.38 324.043C150.802 324.043 151.636 322.607 151.636 320.051C151.636 317.494 150.802 316.031 149.38 316.031C147.959 316.031 147.111 317.494 147.111 320.051C147.111 322.607 147.945 324.043 149.38 324.043ZM156.972 315.102V325H155.728V316.387H155.674L153.267 317.986V316.742L155.728 315.102H156.972ZM161.898 314.965C163.607 314.979 165.494 316.004 165.494 319.654C165.494 323.168 164.058 325.137 161.734 325.137C159.998 325.137 158.767 324.07 158.521 322.498H159.738C159.957 323.387 160.627 324.043 161.734 324.043C163.348 324.043 164.332 322.648 164.346 320.242H164.209C163.635 321.062 162.732 321.555 161.68 321.555C159.902 321.555 158.439 320.201 158.439 318.287C158.439 316.441 159.793 314.951 161.898 314.965ZM161.898 316.045C160.599 316.045 159.629 317.057 159.642 318.273C159.642 319.504 160.558 320.475 161.857 320.475C163.142 320.475 164.154 319.408 164.154 318.246C164.154 317.111 163.211 316.045 161.898 316.045ZM166.674 325.082C166.195 325.082 165.785 324.686 165.799 324.193C165.785 323.715 166.195 323.318 166.674 323.318C167.152 323.318 167.549 323.715 167.549 324.193C167.549 324.686 167.152 325.082 166.674 325.082ZM171.258 325.137C169.057 325.137 167.799 323.291 167.799 320.051C167.799 316.838 169.084 314.965 171.258 314.965C173.432 314.965 174.717 316.838 174.717 320.051C174.717 323.291 173.445 325.137 171.258 325.137ZM171.258 324.043C172.68 324.043 173.514 322.607 173.514 320.051C173.514 317.494 172.68 316.031 171.258 316.031C169.836 316.031 168.988 317.494 168.988 320.051C168.988 322.607 169.822 324.043 171.258 324.043ZM178.768 325.137C176.799 325.137 175.391 324.084 175.322 322.512H176.567C176.635 323.455 177.578 324.043 178.754 324.043C180.053 324.043 181.01 323.332 181.01 322.307C181.01 321.227 180.149 320.461 178.604 320.461H177.797V319.381H178.604C179.807 319.381 180.641 318.711 180.641 317.686C180.641 316.701 179.916 316.031 178.795 316.031C177.742 316.031 176.772 316.619 176.717 317.59H175.528C175.596 316.018 177.045 314.965 178.809 314.965C180.696 314.965 181.844 316.195 181.83 317.617C181.844 318.738 181.188 319.572 180.149 319.859V319.928C181.434 320.133 182.227 321.049 182.213 322.307C182.227 323.934 180.737 325.137 178.768 325.137ZM183.516 325.082C183.037 325.082 182.627 324.686 182.641 324.193C182.627 323.715 183.037 323.318 183.516 323.318C183.994 323.318 184.391 323.715 184.391 324.193C184.391 324.686 183.994 325.082 183.516 325.082ZM188.1 325.137C185.899 325.137 184.641 323.291 184.641 320.051C184.641 316.838 185.926 314.965 188.1 314.965C190.274 314.965 191.559 316.838 191.559 320.051C191.559 323.291 190.288 325.137 188.1 325.137ZM188.1 324.043C189.522 324.043 190.356 322.607 190.356 320.051C190.356 317.494 189.522 316.031 188.1 316.031C186.678 316.031 185.831 317.494 185.831 320.051C185.831 322.607 186.665 324.043 188.1 324.043ZM192.192 325L192.178 324.098L195.555 320.543C196.731 319.299 197.292 318.629 197.292 317.713C197.292 316.701 196.43 316.031 195.323 316.031C194.147 316.031 193.395 316.783 193.395 317.891H192.233C192.219 316.141 193.573 314.965 195.364 314.965C197.155 314.965 198.44 316.168 198.44 317.713C198.44 318.82 197.921 319.682 196.171 321.486L193.901 323.824V323.906H198.618V325H192.192ZM205.147 325.137C202.946 325.137 201.688 323.291 201.688 320.051C201.688 316.838 202.973 314.965 205.147 314.965C207.321 314.965 208.606 316.838 208.606 320.051C208.606 323.291 207.335 325.137 205.147 325.137ZM205.147 324.043C206.569 324.043 207.403 322.607 207.403 320.051C207.403 317.494 206.569 316.031 205.147 316.031C203.725 316.031 202.878 317.494 202.878 320.051C202.878 322.607 203.712 324.043 205.147 324.043ZM209.239 325L209.226 324.098L212.603 320.543C213.778 319.299 214.339 318.629 214.339 317.713C214.339 316.701 213.478 316.031 212.37 316.031C211.194 316.031 210.442 316.783 210.442 317.891H209.28C209.267 316.141 210.62 314.965 212.411 314.965C214.202 314.965 215.487 316.168 215.487 317.713C215.487 318.82 214.968 319.682 213.218 321.486L210.948 323.824V323.906H215.665V325H209.239ZM217.296 323.688C216.817 323.688 216.407 323.291 216.421 322.799C216.407 322.32 216.817 321.924 217.296 321.924C217.775 321.924 218.171 322.32 218.171 322.799C218.171 323.291 217.775 323.688 217.296 323.688ZM217.296 318.191C216.817 318.191 216.407 317.795 216.421 317.303C216.407 316.824 216.817 316.428 217.296 316.428C217.775 316.428 218.171 316.824 218.171 317.303C218.171 317.795 217.775 318.191 217.296 318.191ZM222.413 325.137C220.445 325.137 219.036 324.084 218.968 322.512H220.212C220.28 323.455 221.224 324.043 222.4 324.043C223.698 324.043 224.655 323.332 224.655 322.307C224.655 321.227 223.794 320.461 222.249 320.461H221.443V319.381H222.249C223.452 319.381 224.286 318.711 224.286 317.686C224.286 316.701 223.562 316.031 222.441 316.031C221.388 316.031 220.417 316.619 220.363 317.59H219.173C219.241 316.018 220.691 314.965 222.454 314.965C224.341 314.965 225.489 316.195 225.476 317.617C225.489 318.738 224.833 319.572 223.794 319.859V319.928C225.079 320.133 225.872 321.049 225.859 322.307C225.872 323.934 224.382 325.137 222.413 325.137ZM226.943 325L231.482 316.264V316.195H226.245V315.102H232.753V316.25L228.228 325H226.943ZM236.453 325H235.168L238.791 315.102H240.089L243.712 325H242.414L241.429 322.211H237.451L236.453 325ZM237.82 321.131H241.046L239.474 316.701H239.392L237.82 321.131ZM244.045 315.102H245.521L248.857 323.25H248.98L252.316 315.102H253.793V325H252.631V317.521H252.535L249.459 325H248.365L245.289 317.521H245.207V325H244.045V315.102Z" fill="#232323"/>
<path d="M136.544 392.586C127.228 392.586 120.548 387.43 120.373 380.047H129.279C129.455 383.211 132.501 385.32 136.603 385.32C140.822 385.32 143.869 382.918 143.81 379.52C143.869 376.062 140.763 373.602 135.783 373.602H131.857V367.098H135.783C139.943 367.098 142.873 364.812 142.873 361.473C142.873 358.25 140.412 356.023 136.662 356.023C132.912 356.023 129.806 358.133 129.689 361.355H121.251C121.369 354.031 127.99 348.992 136.662 348.992C145.509 348.992 151.427 354.207 151.369 360.945C151.427 365.691 148.087 369.09 143.341 369.91V370.262C149.552 371.023 153.009 374.832 152.951 380.105C153.009 387.371 146.095 392.586 136.544 392.586ZM158.154 392L158.095 385.613L173.33 371.609C177.314 367.801 179.423 365.457 179.423 362.117C179.423 358.367 176.552 356.023 172.685 356.023C168.701 356.023 166.123 358.543 166.123 362.586H157.744C157.685 354.266 163.838 348.992 172.802 348.992C181.884 348.992 187.92 354.148 187.92 361.531C187.92 366.336 185.576 370.32 176.845 378.23L170.4 384.5V384.734H188.505V392H158.154ZM192.127 397.771V376.092H196.463V385.232C196.463 387.195 197.898 388.543 200.037 388.543C202.176 388.543 203.611 387.166 203.611 385.232V376.092H207.947V392H203.787V389.744H203.67C203.025 391.121 201.648 391.912 200.037 391.912C198.426 391.912 197.049 391.121 196.404 389.744H196.287V397.771H192.127ZM218.494 398.299C214.099 398.299 211.404 396.336 211.14 393.318H215.418C215.652 394.578 216.853 395.164 218.582 395.164C220.603 395.164 221.951 394.314 221.951 392.088V389.188H221.746C221.16 390.477 219.754 391.766 217.205 391.766C213.601 391.766 210.73 389.246 210.73 383.943C210.73 378.553 213.689 375.887 217.205 375.887C219.871 375.887 221.16 377.469 221.746 378.758H221.922V376.092H226.228V392.176C226.228 396.219 223.006 398.299 218.494 398.299ZM218.552 388.514C220.72 388.514 221.951 386.814 221.951 384.002C221.951 381.16 220.72 379.344 218.552 379.344C216.355 379.344 215.183 381.248 215.183 384.002C215.183 386.756 216.355 388.514 218.552 388.514ZM237.76 369.793L230.904 395.193H227.183L234.01 369.793H237.76ZM238.715 392V376.092H242.846V378.875H243.021C243.695 377.029 245.307 375.887 247.445 375.887C249.643 375.887 251.254 377.029 251.781 378.875H251.928C252.602 377.059 254.389 375.887 256.732 375.887C259.691 375.887 261.742 377.85 261.742 381.307V392H257.406V382.156C257.406 380.34 256.352 379.461 254.916 379.461C253.275 379.461 252.338 380.604 252.338 382.273V392H248.119V382.039C248.119 380.457 247.123 379.461 245.658 379.461C244.193 379.461 243.051 380.633 243.051 382.449V392H238.715ZM268.674 381.57C265.568 381.57 263.313 379.988 263.225 377.703H266.447C266.506 378.494 267.443 378.963 268.674 378.963C269.934 378.963 270.93 378.436 270.93 377.527C270.93 376.678 269.992 376.062 268.44 376.062H267.004V373.748H268.44C269.729 373.748 270.608 373.162 270.608 372.342C270.608 371.521 269.846 370.965 268.703 370.965C267.531 370.965 266.565 371.521 266.535 372.283H263.518C263.576 370.057 265.832 368.504 268.733 368.504C271.692 368.504 273.654 370.115 273.654 372.137C273.654 373.631 272.483 374.568 271.018 374.773V374.861C273.039 375.066 274.211 376.15 274.211 377.762C274.211 379.988 271.867 381.57 268.674 381.57Z" fill="#1E7EDE"/>
<rect x="113.848" y="413" width="165.308" height="44.0615" rx="22.0308" fill="#929EAA"/>
<path d="M146.932 426.718H145.533V439.047H146.932V433.414H149.288V432.245H146.932V426.718ZM134.568 436.089L134.728 437.222C137.482 437.196 141.308 437.152 144.683 436.514L144.559 435.522C143.186 435.734 141.689 435.867 140.219 435.956V434.813C142.043 434.636 143.195 433.759 143.212 432.44C143.195 430.925 141.742 430.004 139.51 430.013C137.296 430.004 135.817 430.925 135.826 432.44C135.817 433.768 137.004 434.645 138.837 434.813V436.018C137.296 436.071 135.817 436.089 134.568 436.089ZM134.958 429.322H144.08V428.277H140.219V426.683H138.837V428.277H134.958V429.322ZM136.924 442.129H147.499V440.96H138.324V438.214H136.924V442.129ZM137.154 432.44C137.146 431.545 138.058 430.996 139.51 431.005C140.963 430.996 141.884 431.545 141.884 432.44C141.884 433.299 140.963 433.857 139.51 433.857C138.058 433.857 137.146 433.299 137.154 432.44ZM162.362 426.736H160.963V429.677H157.288C157.42 429.119 157.491 428.525 157.491 427.905H150.317V429.074H155.977C155.702 431.802 153.32 433.937 149.52 435.061L150.105 436.16C153.479 435.159 155.906 433.325 156.942 430.792H160.963V432.918H156.783V434.069H160.963V436.195H162.362V426.736ZM151.947 439.366C151.938 441.252 153.984 442.395 157.208 442.395C160.396 442.395 162.451 441.252 162.451 439.366C162.451 437.488 160.396 436.354 157.208 436.354C153.984 436.354 151.938 437.488 151.947 439.366ZM153.311 439.366C153.32 438.179 154.834 437.462 157.208 437.47C159.546 437.462 161.061 438.179 161.069 439.366C161.061 440.553 159.546 441.27 157.208 441.261C154.834 441.27 153.32 440.553 153.311 439.366ZM178.377 436.071H163.959V437.205H170.442V442.466H171.806V437.205H178.377V436.071ZM165.801 434.158H176.517V427.374H175.118V429.553H167.182V427.374H165.801V434.158ZM167.182 433.024V430.686H175.118V433.024H167.182ZM183.855 441.137C184.484 441.128 184.997 440.614 184.988 439.986C184.997 439.366 184.484 438.852 183.855 438.852C183.235 438.852 182.703 439.366 182.721 439.986C182.703 440.614 183.235 441.128 183.855 441.137ZM182.721 432.865C182.703 433.494 183.235 434.007 183.855 434.016C184.484 434.007 184.997 433.494 184.988 432.865C184.997 432.245 184.484 431.731 183.855 431.731C183.235 431.731 182.703 432.245 182.721 432.865ZM197.872 441.208C200.431 441.208 202.344 439.649 202.336 437.541C202.344 435.912 201.335 434.716 199.661 434.459V434.371C201.007 433.99 201.857 432.927 201.84 431.466C201.857 429.632 200.369 428.029 197.925 428.029C195.649 428.029 193.753 429.393 193.674 431.43H195.215C195.286 430.172 196.534 429.42 197.907 429.411C199.369 429.42 200.307 430.27 200.299 431.554C200.307 432.874 199.218 433.751 197.659 433.751H196.614V435.15H197.659C199.652 435.159 200.768 436.142 200.777 437.541C200.768 438.879 199.546 439.791 197.854 439.791C196.322 439.791 195.109 439.029 195.02 437.807H193.408C193.488 439.844 195.321 441.208 197.872 441.208ZM207.811 441.208C210.371 441.208 212.23 439.419 212.239 436.939C212.23 434.441 210.433 432.635 207.988 432.635C207.085 432.635 206.226 432.936 205.65 433.379H205.526L206.004 429.623H211.619V428.206H204.676L203.772 435.221H205.313C205.783 434.388 206.624 434.052 207.705 434.069C209.432 434.078 210.681 435.309 210.681 436.974C210.681 438.586 209.476 439.8 207.811 439.809C206.42 439.8 205.305 438.949 205.189 437.807H203.648C203.746 439.782 205.499 441.208 207.811 441.208ZM213.464 444.644H214.987V439.596H215.058C215.571 440.614 216.554 441.146 217.608 441.137C218.689 441.146 219.672 440.614 220.177 439.596H220.265V441.031H221.789V431.412H220.265V437.081C220.257 438.622 219.203 439.693 217.608 439.685C216.023 439.693 214.987 438.639 214.987 437.081V431.412H213.464V444.644ZM223.755 436.089C223.755 439.118 225.509 440.88 227.847 440.889C229.707 440.88 230.318 439.791 230.645 439.259H230.769V441.208C230.769 442.793 229.76 443.511 228.112 443.511C226.749 443.511 225.836 443.024 225.633 442.04H224.038C224.207 443.821 225.783 444.839 228.112 444.839C230.459 444.839 232.284 443.776 232.293 441.296V431.412H230.805V432.936H230.681C230.335 432.422 229.733 431.288 227.864 431.288C225.447 431.288 223.755 433.131 223.755 436.089ZM225.296 436.142C225.296 434.202 226.208 432.652 228.059 432.652C229.848 432.652 230.796 434.078 230.805 436.142C230.796 438.259 229.822 439.525 228.059 439.525C226.235 439.525 225.296 438.135 225.296 436.142ZM238.282 427.604H236.883L232.755 442.962H234.137L238.282 427.604ZM238.762 441.031H240.285V435.026C240.285 433.627 241.295 432.652 242.446 432.652C243.554 432.652 244.333 433.379 244.324 434.459V441.031H245.865V434.778C245.874 433.556 246.636 432.652 247.973 432.652C249.027 432.652 249.913 433.201 249.922 434.619V441.031H251.445V434.601C251.445 432.334 250.214 431.288 248.504 431.288C247.123 431.288 246.104 431.926 245.617 432.918H245.511C245.059 431.891 244.2 431.288 242.942 431.288C241.685 431.288 240.755 431.891 240.356 432.918H240.232V431.412H238.762V441.031ZM255.308 434.725C257.124 434.716 258.399 433.768 258.39 432.493C258.399 431.563 257.726 430.837 256.495 430.651V430.615C257.399 430.456 258.098 429.854 258.089 428.95C258.098 427.728 256.973 426.825 255.326 426.825C253.723 426.825 252.474 427.728 252.456 429.057H253.767C253.785 428.366 254.494 427.914 255.326 427.923C256.185 427.914 256.743 428.392 256.743 429.039C256.743 429.73 256.052 430.172 255.131 430.172H254.511V431.2H255.131C256.256 431.2 256.973 431.687 256.973 432.387C256.973 433.077 256.283 433.565 255.308 433.573C254.387 433.565 253.688 433.131 253.661 432.458H252.279C252.297 433.786 253.572 434.716 255.308 434.725Z" fill="white"/>
<mask id="path-230-inside-1_411_5374" fill="white">
<path d="M10 752H383V821.431H10V752Z"/>
</mask>
<path d="M10 752H383V821.431H10V752Z" fill="white"/>
<path d="M10 753.008H383V750.992H10V753.008Z" fill="#D2D6D8" mask="url(#path-230-inside-1_411_5374)"/>
<path d="M35.3018 785.455V797.548H49.0064V785.455M32.0771 787.874L42.1541 779.006L52.231 787.874" stroke="#D2D6D8" stroke-width="2.01538" stroke-linecap="round" stroke-linejoin="round"/>
<path d="M37.5402 817.916V821.374H45.7539V817.916H37.5402ZM44.4177 818.95V820.339H38.8895V818.95H44.4177ZM36.7935 810.462V811.523H46.4744V810.462H36.7935ZM41.6536 811.916C39.1384 811.916 37.7236 812.492 37.7236 813.619C37.7236 814.732 39.1384 815.309 41.6536 815.309C44.1688 815.309 45.5836 814.732 45.5836 813.619C45.5836 812.492 44.1688 811.916 41.6536 811.916ZM41.6536 812.859C43.278 812.859 44.1164 813.108 44.1164 813.619C44.1164 814.117 43.278 814.379 41.6536 814.379C40.0423 814.379 39.1908 814.117 39.1908 813.619C39.1908 813.108 40.0423 812.859 41.6536 812.859ZM40.9724 809.414V811.182H42.3348V809.414H40.9724ZM36.2433 816.068V817.143H47.0639V816.068H36.2433ZM40.9724 814.981V816.645H42.3348V814.981H40.9724Z" fill="#D2D6D8"/>
<path d="M125.473 793.096L130.73 798.354" stroke="#D2D6D8" stroke-width="2.01538" stroke-linecap="round" stroke-linejoin="round"/>
<path d="M118.902 794.849C123.499 794.849 127.226 791.122 127.226 786.525C127.226 781.927 123.499 778.2 118.902 778.2C114.305 778.2 110.578 781.927 110.578 786.525C110.578 791.122 114.305 794.849 118.902 794.849Z" stroke="#D2D6D8" stroke-width="2.01538" stroke-linecap="round" stroke-linejoin="round"/>
<path d="M109.256 818.924V820.051H120.103V818.924H109.256ZM113.986 816.134V819.265H115.348V816.134H113.986ZM113.946 811.077V811.68C113.946 813.475 112.06 815.138 109.728 815.518L110.278 816.606C112.938 816.082 115.112 814.169 115.112 811.68V811.077H113.946ZM114.221 811.077V811.68C114.221 814.169 116.396 816.042 119.108 816.553L119.645 815.466C117.274 815.099 115.374 813.475 115.374 811.68V811.077H114.221ZM110.147 810.553V811.667H119.173V810.553H110.147ZM123.535 816.763V818.728H124.911V816.763H123.535ZM128.775 809.545V821.518H130.151V809.545H128.775ZM120.535 819.37C122.697 819.37 125.54 819.343 128.173 818.885L128.081 817.876C125.527 818.217 122.579 818.23 120.365 818.243L120.535 819.37ZM120.601 810.946V812.034H127.845V810.946H120.601ZM124.217 812.623C122.487 812.623 121.295 813.514 121.295 814.85C121.295 816.199 122.487 817.077 124.217 817.077C125.959 817.077 127.151 816.199 127.151 814.85C127.151 813.514 125.959 812.623 124.217 812.623ZM124.217 813.671C125.173 813.671 125.841 814.13 125.841 814.85C125.841 815.584 125.173 816.029 124.217 816.029C123.273 816.029 122.605 815.584 122.605 814.85C122.605 814.13 123.273 813.671 124.217 813.671ZM123.535 809.571V811.562H124.911V809.571H123.535Z" fill="#D2D6D8"/>
<path d="M189.077 778.2V798.354H209.231M194.72 793.517V789.486M201.169 793.517V784.649M207.619 793.517V779.812" stroke="#D2D6D8" stroke-width="2.01538" stroke-linecap="round" stroke-linejoin="round"/>
<path d="M187.743 815.78V816.881H198.59V815.78H187.743ZM192.59 816.357V819.003H193.953V816.357H192.59ZM189.066 820.169V821.282H197.385V820.169H189.066ZM189.066 818.007V820.614H190.429V818.007H189.066ZM189.158 809.925V814.772H197.175V809.925H195.813V811.313H190.507V809.925H189.158ZM190.507 812.361H195.813V813.684H190.507V812.361ZM204.917 811.929V813.055H207.577V811.929H204.917ZM201.669 810.16V811.352C201.669 813.082 200.66 814.68 198.76 815.335L199.494 816.422C201.616 815.649 202.795 813.684 202.795 811.352V810.16H201.669ZM201.931 810.16V811.431C201.931 813.579 203.096 815.453 205.127 816.186L205.847 815.112C204.066 814.496 203.044 813.003 203.044 811.431V810.16H201.931ZM200.647 817.247V818.348H207.341V821.518H208.716V817.247H200.647ZM207.341 809.545V816.645H208.716V809.545H207.341Z" fill="#D2D6D8"/>
<path d="M286.408 785.549C285.069 782.016 281.657 779.505 277.66 779.505C273.662 779.505 270.25 782.013 268.911 785.546C266.405 786.204 264.554 788.485 264.554 791.201C264.554 794.432 267.171 797.049 270.399 797.049H284.908C288.137 797.049 290.754 794.432 290.754 791.201C290.754 788.49 288.909 786.21 286.408 785.549ZM287.47 793.765C287.134 794.103 286.735 794.371 286.296 794.553C285.856 794.735 285.384 794.828 284.908 794.827H270.399C269.431 794.827 268.522 794.45 267.837 793.765C267.5 793.429 267.232 793.03 267.05 792.589C266.868 792.149 266.775 791.677 266.776 791.201C266.776 790.382 267.042 789.613 267.542 788.97C268.032 788.347 268.71 787.899 269.475 787.692L270.583 787.403L270.99 786.332C271.241 785.666 271.592 785.043 272.034 784.478C272.469 783.919 272.986 783.427 273.566 783.019C274.768 782.174 276.183 781.727 277.66 781.727C279.136 781.727 280.552 782.174 281.753 783.019C282.335 783.429 282.85 783.92 283.286 784.478C283.727 785.043 284.078 785.669 284.329 786.332L284.733 787.4L285.838 787.692C287.426 788.116 288.531 789.558 288.531 791.201C288.531 792.169 288.154 793.081 287.47 793.765Z" fill="#485760"/>
<path d="M268.911 820.431H270.444V810.789H268.911V820.431ZM275.627 820.614C278.103 820.614 279.819 818.688 279.819 815.571C279.819 812.466 278.103 810.619 275.627 810.619C273.138 810.619 271.422 812.466 271.422 815.571C271.422 818.688 273.138 820.614 275.627 820.614ZM275.627 819.278C274.016 819.278 272.994 817.824 272.994 815.571C272.994 813.317 274.016 811.942 275.627 811.942C277.226 811.942 278.26 813.317 278.26 815.571C278.26 817.824 277.226 819.278 275.627 819.278ZM282.358 820.431H283.89V812.073H286.72V810.789H279.528V812.073H282.358V820.431Z" fill="#485760"/>
<path d="M345.748 790.602C345.132 790.602 344.54 790.357 344.104 789.921C343.668 789.485 343.423 788.894 343.423 788.277C343.423 787.66 343.668 787.069 344.104 786.633C344.54 786.197 345.132 785.952 345.748 785.952C346.365 785.952 346.957 786.197 347.393 786.633C347.829 787.069 348.074 787.66 348.074 788.277C348.074 788.894 347.829 789.485 347.393 789.921C346.957 790.357 346.365 790.602 345.748 790.602ZM353.5 790.602C352.883 790.602 352.292 790.357 351.855 789.921C351.419 789.485 351.174 788.894 351.174 788.277C351.174 787.66 351.419 787.069 351.855 786.633C352.292 786.197 352.883 785.952 353.5 785.952C354.117 785.952 354.708 786.197 355.144 786.633C355.58 787.069 355.825 787.66 355.825 788.277C355.825 788.894 355.58 789.485 355.144 789.921C354.708 790.357 354.117 790.602 353.5 790.602ZM361.251 790.602C360.635 790.602 360.043 790.357 359.607 789.921C359.171 789.485 358.926 788.894 358.926 788.277C358.926 787.66 359.171 787.069 359.607 786.633C360.043 786.197 360.635 785.952 361.251 785.952C361.868 785.952 362.459 786.197 362.896 786.633C363.332 787.069 363.577 787.66 363.577 788.277C363.577 788.894 363.332 789.485 362.896 789.921C362.459 790.357 361.868 790.602 361.251 790.602Z" fill="#D2D6D8"/>
<path d="M337.179 815.765V816.905H338.122C340.349 816.905 341.79 816.839 343.467 816.525L343.323 815.411C341.712 815.712 340.297 815.765 338.122 815.765H337.179ZM337.179 808.94V816.197H338.555V810.053H342.616V808.94H337.179ZM345.17 807.839V819.839H346.546V807.839H345.17ZM341.961 812.084V813.21H345.746V812.084H341.961ZM347.646 817.219V818.346H358.493V817.219H347.646ZM352.362 814.494V817.52H353.724V814.494H352.362ZM348.851 808.652V814.822H357.235V808.652H355.873V810.656H350.227V808.652H348.851ZM350.227 811.743H355.873V813.708H350.227V811.743ZM367.191 807.839V819.813H368.567V807.839H367.191ZM363.68 809.11V809.346C363.68 812.542 362.226 814.913 358.781 816.577L359.501 817.677C363.615 815.673 365.03 812.66 365.03 809.11H363.68ZM359.37 809.11V810.21H364.296V809.11H359.37Z" fill="#D2D6D8"/>
<defs>
<clipPath id="clip0_411_5374">
<rect width="20.1538" height="14.1077" fill="white" transform="translate(292.231 18.1385)"/>
</clipPath>
<clipPath id="clip1_411_5374">
<rect width="20.1538" height="12.0923" fill="white" transform="translate(316.416 19.1461)"/>
</clipPath>
<clipPath id="clip2_411_5374">
<rect width="90.1885" height="20" fill="white" transform="translate(196.5 717.365)"/>
</clipPath>
</defs>
</svg>
