<svg width="428" height="880" viewBox="0 0 428 880" fill="none" xmlns="http://www.w3.org/2000/svg">
<rect width="428" height="880" rx="73" fill="#585858"/>
<rect x="1" y="1" width="426" height="878" rx="72" stroke="black" stroke-opacity="0.2" stroke-width="2"/>
<g clip-path="url(#clip0_286_1384)">
<rect x="19" y="19" width="390" height="844" rx="60" fill="white"/>
<path d="M41.0977 153L35.4375 133.203H39.9219L43.2578 147.039H43.4219L47.0586 133.203H50.9141L54.5508 147.066H54.7148L58.0508 133.203H62.5352L56.875 153H52.8555L49.082 139.93H48.918L45.1172 153H41.0977ZM64.5586 153V138.152H68.6055V153H64.5586ZM64.3672 134.16C64.3672 133.012 65.3652 132.096 66.582 132.082C67.7852 132.096 68.7832 133.012 68.7695 134.16C68.7832 135.281 67.7852 136.211 66.582 136.211C65.3652 136.211 64.3672 135.281 64.3672 134.16ZM79.5703 138.152V141.188H76.7812V148.434C76.7676 149.623 77.3555 149.91 78.1758 149.938C78.5859 149.938 79.2969 149.896 79.7891 149.855V153.055C79.3516 153.123 78.627 153.205 77.6289 153.191C74.7031 153.205 72.707 151.893 72.7344 149.008V141.188H70.6836V138.152H72.7344V134.598H76.7812V138.152H79.5703ZM86.4883 144.414V153H82.4414V133.203H86.3789V140.75H86.543C87.2266 139.014 88.7168 137.961 90.9727 137.961C94.0762 137.961 96.1133 140.053 96.1133 143.539V153H92.0664V144.25C92.0664 142.404 91.082 141.324 89.3867 141.324C87.6777 141.324 86.4883 142.459 86.4883 144.414ZM108.062 158.578C107.27 158.564 106.531 158.551 106.012 158.496V155.352C106.531 155.393 107.146 155.406 107.652 155.406C108.459 155.406 109.102 155.324 109.594 154.039L109.84 153.41L104.508 138.152H108.746L111.863 149.09H112.027L115.172 138.152H119.465L113.668 154.641C112.82 157.033 111.193 158.564 108.062 158.578ZM127.613 153.301C123.129 153.287 120.326 150.211 120.34 145.617C120.326 141.037 123.129 137.961 127.613 137.961C132.111 137.961 134.9 141.037 134.914 145.617C134.9 150.211 132.111 153.287 127.613 153.301ZM124.441 145.617C124.441 148.215 125.521 150.143 127.641 150.156C129.705 150.143 130.799 148.215 130.785 145.617C130.799 143.006 129.705 141.051 127.641 141.051C125.521 141.051 124.441 143.006 124.441 145.617ZM146.973 146.684V138.152H151.02V153H147.137V150.32H146.973C146.303 152.043 144.703 153.191 142.461 153.191C139.494 153.191 137.457 151.086 137.457 147.613V138.152H141.504V146.902C141.504 148.666 142.516 149.76 144.102 149.773C145.578 149.76 146.973 148.707 146.973 146.684ZM154.164 153V138.152H158.074V140.723H158.238C158.771 138.904 160.152 137.934 161.82 137.934C162.23 137.934 162.75 137.988 163.105 138.07V141.68C162.723 141.557 161.943 141.461 161.383 141.461C159.551 141.461 158.197 142.732 158.211 144.551V153H154.164ZM185.309 138.152L180.086 153H175.547L170.352 138.152H174.617L177.734 148.816H177.898L181.016 138.152H185.309ZM193.457 153.301C188.973 153.287 186.17 150.211 186.184 145.617C186.17 141.037 188.973 137.961 193.457 137.961C197.955 137.961 200.744 141.037 200.758 145.617C200.744 150.211 197.955 153.287 193.457 153.301ZM190.285 145.617C190.285 148.215 191.365 150.143 193.484 150.156C195.549 150.143 196.643 148.215 196.629 145.617C196.643 143.006 195.549 141.051 193.484 141.051C191.365 141.051 190.285 143.006 190.285 145.617ZM203.301 153V138.152H207.348V153H203.301ZM203.109 134.16C203.109 133.012 204.107 132.096 205.324 132.082C206.527 132.096 207.525 133.012 207.512 134.16C207.525 135.281 206.527 136.211 205.324 136.211C204.107 136.211 203.109 135.281 203.109 134.16ZM217.164 153.301C212.611 153.287 209.877 150.143 209.891 145.617C209.877 141.078 212.666 137.961 217.164 137.961C220.992 137.961 223.59 140.189 223.754 143.594H219.953C219.707 142.131 218.75 141.119 217.219 141.105C215.277 141.119 213.992 142.746 213.992 145.562C213.992 148.434 215.25 150.074 217.219 150.074C218.641 150.074 219.693 149.186 219.953 147.613H223.754C223.576 150.977 221.102 153.287 217.164 153.301ZM232.996 153.301C228.443 153.287 225.654 150.348 225.668 145.645C225.654 141.064 228.484 137.961 232.832 137.961C236.729 137.961 239.805 140.422 239.805 145.48V146.629H229.66C229.66 148.871 230.986 150.252 233.078 150.266C234.459 150.252 235.443 149.65 235.84 148.762H239.695C239.121 151.51 236.66 153.287 232.996 153.301ZM229.66 144.086H235.977C235.963 142.281 234.719 140.982 232.914 140.996C231.055 140.982 229.742 142.377 229.66 144.086ZM36.668 189V169.203H44.4336C48.9316 169.203 51.5156 171.979 51.5156 175.875C51.5156 179.826 48.8906 182.547 44.3242 182.547H40.7695V189H36.668ZM40.7695 179.238H43.668C46.1016 179.238 47.291 177.871 47.2773 175.875C47.291 173.906 46.1016 172.58 43.668 172.566H40.7695V179.238ZM58.0781 169.203V189H54.0312V169.203H58.0781ZM67.9492 189.301C63.3965 189.287 60.6074 186.348 60.6211 181.645C60.6074 177.064 63.4375 173.961 67.7852 173.961C71.6816 173.961 74.7578 176.422 74.7578 181.48V182.629H64.6133C64.6133 184.871 65.9395 186.252 68.0312 186.266C69.4121 186.252 70.3965 185.65 70.793 184.762H74.6484C74.0742 187.51 71.6133 189.287 67.9492 189.301ZM64.6133 180.086H70.9297C70.916 178.281 69.6719 176.982 67.8672 176.996C66.0078 176.982 64.6953 178.377 64.6133 180.086ZM76.5898 184.844C76.6035 181.535 79.2559 180.455 82.1133 180.277C83.1797 180.209 85.1758 180.113 85.8047 180.086V178.883C85.791 177.639 84.9434 176.928 83.4258 176.914C82.0449 176.928 81.1836 177.543 80.9648 178.555H77.1094C77.3555 175.984 79.5977 173.961 83.5352 173.961C86.7754 173.961 89.8379 175.41 89.8242 178.992V189H85.9961V186.949H85.8867C85.1621 188.316 83.7402 189.287 81.5391 189.273C78.6953 189.287 76.6035 187.783 76.5898 184.844ZM80.4727 184.734C80.4727 185.869 81.3887 186.471 82.6875 186.484C84.5332 186.471 85.8184 185.268 85.8047 183.695V182.615C85.1895 182.643 83.4531 182.738 82.7695 182.793C81.3613 182.916 80.4727 183.586 80.4727 184.734ZM101.391 178.555C101.213 177.516 100.311 176.846 98.957 176.832C97.6445 176.846 96.6465 177.461 96.6602 178.363C96.6465 179.033 97.166 179.553 98.5742 179.84L101.227 180.387C104.111 180.988 105.506 182.273 105.52 184.406C105.506 187.332 102.881 189.287 98.9297 189.301C94.9238 189.287 92.5723 187.496 92.2305 184.598H96.3047C96.4961 185.76 97.4395 186.361 98.9297 186.375C100.406 186.361 101.391 185.773 101.391 184.816C101.391 184.051 100.762 183.572 99.3672 183.285L96.9062 182.793C94.0762 182.232 92.627 180.783 92.6406 178.582C92.627 175.738 95.0742 173.961 98.9023 173.961C102.648 173.961 104.973 175.738 105.191 178.555H101.391ZM114.734 189.301C110.182 189.287 107.393 186.348 107.406 181.645C107.393 177.064 110.223 173.961 114.57 173.961C118.467 173.961 121.543 176.422 121.543 181.48V182.629H111.398C111.398 184.871 112.725 186.252 114.816 186.266C116.197 186.252 117.182 185.65 117.578 184.762H121.434C120.859 187.51 118.398 189.287 114.734 189.301ZM111.398 180.086H117.715C117.701 178.281 116.457 176.982 114.652 176.996C112.793 176.982 111.48 178.377 111.398 180.086ZM130.621 189V169.203H134.668V176.641H134.777C135.338 175.438 136.514 173.961 139.016 173.961C142.297 173.961 145.045 176.504 145.059 181.59C145.045 186.553 142.406 189.246 139.016 189.246C136.596 189.246 135.365 187.852 134.777 186.621H134.613V189H130.621ZM134.586 181.562C134.572 184.242 135.734 186.006 137.73 186.02C139.795 186.006 140.916 184.188 140.902 181.562C140.916 178.979 139.822 177.188 137.73 177.188C135.721 177.188 134.572 178.896 134.586 181.562ZM147.656 189V174.152H151.566V176.723H151.73C152.264 174.904 153.645 173.934 155.312 173.934C155.723 173.934 156.242 173.988 156.598 174.07V177.68C156.215 177.557 155.436 177.461 154.875 177.461C153.043 177.461 151.689 178.732 151.703 180.551V189H147.656ZM164.828 189.301C160.275 189.287 157.486 186.348 157.5 181.645C157.486 177.064 160.316 173.961 164.664 173.961C168.561 173.961 171.637 176.422 171.637 181.48V182.629H161.492C161.492 184.871 162.818 186.252 164.91 186.266C166.291 186.252 167.275 185.65 167.672 184.762H171.527C170.953 187.51 168.492 189.287 164.828 189.301ZM161.492 180.086H167.809C167.795 178.281 166.551 176.982 164.746 176.996C162.887 176.982 161.574 178.377 161.492 180.086ZM173.469 184.844C173.482 181.535 176.135 180.455 178.992 180.277C180.059 180.209 182.055 180.113 182.684 180.086V178.883C182.67 177.639 181.822 176.928 180.305 176.914C178.924 176.928 178.062 177.543 177.844 178.555H173.988C174.234 175.984 176.477 173.961 180.414 173.961C183.654 173.961 186.717 175.41 186.703 178.992V189H182.875V186.949H182.766C182.041 188.316 180.619 189.287 178.418 189.273C175.574 189.287 173.482 187.783 173.469 184.844ZM177.352 184.734C177.352 185.869 178.268 186.471 179.566 186.484C181.412 186.471 182.697 185.268 182.684 183.695V182.615C182.068 182.643 180.332 182.738 179.648 182.793C178.24 182.916 177.352 183.586 177.352 184.734ZM197.613 174.152V177.188H194.824V184.434C194.811 185.623 195.398 185.91 196.219 185.938C196.629 185.938 197.34 185.896 197.832 185.855V189.055C197.395 189.123 196.67 189.205 195.672 189.191C192.746 189.205 190.75 187.893 190.777 185.008V177.188H188.727V174.152H190.777V170.598H194.824V174.152H197.613ZM204.531 180.414V189H200.484V169.203H204.422V176.75H204.586C205.27 175.014 206.76 173.961 209.016 173.961C212.119 173.961 214.156 176.053 214.156 179.539V189H210.109V180.25C210.109 178.404 209.125 177.324 207.43 177.324C205.721 177.324 204.531 178.459 204.531 180.414ZM224 189.301C219.447 189.287 216.658 186.348 216.672 181.645C216.658 177.064 219.488 173.961 223.836 173.961C227.732 173.961 230.809 176.422 230.809 181.48V182.629H220.664C220.664 184.871 221.99 186.252 224.082 186.266C225.463 186.252 226.447 185.65 226.844 184.762H230.699C230.125 187.51 227.664 189.287 224 189.301ZM220.664 180.086H226.98C226.967 178.281 225.723 176.982 223.918 176.996C222.059 176.982 220.746 178.377 220.664 180.086Z" fill="#292E34"/>
<rect x="50" y="270" width="328" height="328" rx="164" fill="url(#paint0_radial_286_1384)" fill-opacity="0.7"/>
<rect width="172" height="98" transform="translate(128 385)" fill="url(#paint1_radial_286_1384)" fill-opacity="0.7"/>
<g filter="url(#filter0_i_286_1384)">
<rect x="138" y="412" width="8" height="44" rx="4" fill="url(#paint2_linear_286_1384)"/>
</g>
<g filter="url(#filter1_i_286_1384)">
<rect x="156" y="395" width="8" height="78" rx="4" fill="url(#paint3_linear_286_1384)"/>
</g>
<g filter="url(#filter2_i_286_1384)">
<rect x="174" y="400.5" width="8" height="67" rx="4" fill="url(#paint4_linear_286_1384)"/>
</g>
<g filter="url(#filter3_i_286_1384)">
<rect x="192" y="405.5" width="8" height="57" rx="4" fill="url(#paint5_linear_286_1384)"/>
</g>
<g filter="url(#filter4_i_286_1384)">
<rect x="210" y="405.5" width="8" height="57" rx="4" fill="url(#paint6_linear_286_1384)"/>
</g>
<g filter="url(#filter5_i_286_1384)">
<rect x="228" y="413" width="8" height="42" rx="4" fill="url(#paint7_linear_286_1384)"/>
</g>
<g filter="url(#filter6_i_286_1384)">
<rect x="246" y="424" width="8" height="20" rx="4" fill="url(#paint8_linear_286_1384)"/>
</g>
<g filter="url(#filter7_i_286_1384)">
<rect x="264" y="411" width="8" height="46" rx="4" fill="url(#paint9_linear_286_1384)"/>
</g>
<g filter="url(#filter8_i_286_1384)">
<rect x="282" y="404.5" width="8" height="59" rx="4" fill="url(#paint10_linear_286_1384)"/>
</g>
<g filter="url(#filter9_d_286_1384)">
<rect x="31.5" y="669.5" width="276" height="61" rx="11.5" stroke="#E9E9E9" shape-rendering="crispEdges"/>
<path d="M45.3311 692L43.1719 684.223H44.418L45.9326 690.238H45.9971L47.5762 684.223H48.8008L50.3799 690.238H50.4443L51.959 684.223H53.2051L51.0459 692H49.8535L48.2207 686.188H48.1562L46.5234 692H45.3311ZM55.2246 688.541V692H54.0752V684.223H55.2031V687.123H55.2783C55.5522 686.489 56.1001 686.092 57.0078 686.092C58.2056 686.092 59.0059 686.833 59.0059 688.294V692H57.8564V688.434C57.8564 687.574 57.3945 687.08 56.6211 687.08C55.8101 687.08 55.2246 687.612 55.2246 688.541ZM60.8857 694.191C60.6494 694.186 60.4185 694.181 60.2734 694.159V693.203C60.4023 693.214 60.6279 693.219 60.7891 693.225C61.1436 693.219 61.439 693.198 61.7129 692.462L61.8525 692.075L59.7148 686.167H60.9395L62.4111 690.689H62.4756L63.9473 686.167H65.1826L62.7764 692.773C62.438 693.697 61.8472 694.186 60.8857 694.191ZM70.9834 692.118C69.5762 692.113 68.5449 690.979 68.5449 689.1C68.5449 687.198 69.5923 686.092 70.9941 686.092C72.0791 686.092 72.4712 686.747 72.6807 687.112H72.7344V684.223H73.8838V692H72.7666V691.087H72.6807C72.4658 691.468 72.0469 692.113 70.9834 692.118ZM69.7158 689.078C69.7104 690.249 70.2368 691.135 71.2412 691.141C72.2188 691.135 72.7666 690.303 72.7666 689.078C72.7666 687.864 72.2295 687.064 71.2412 687.069C70.2261 687.064 69.7104 687.929 69.7158 689.078ZM77.8477 692.118C76.1934 692.118 75.1138 690.915 75.1191 689.11C75.1138 687.295 76.1934 686.092 77.8477 686.092C79.4912 686.092 80.5654 687.295 80.5654 689.11C80.5654 690.915 79.4912 692.118 77.8477 692.118ZM76.2686 689.11C76.2686 690.222 76.7788 691.162 77.8477 691.162C78.9004 691.162 79.4053 690.222 79.4053 689.11C79.4053 687.993 78.9004 687.042 77.8477 687.037C76.7788 687.042 76.2686 687.993 76.2686 689.11ZM82.8428 688.541V692H81.6934V686.167H82.7998V687.123H82.8643C83.1382 686.495 83.7129 686.092 84.583 686.092C85.7808 686.092 86.5757 686.849 86.5703 688.294V692H85.4316V688.434C85.4263 687.585 84.9697 687.08 84.1963 687.08C83.4067 687.08 82.8428 687.612 82.8428 688.541ZM88.8369 684.223V686.994H87.8916V684.223H88.8369ZM92.8975 686.167V687.08H91.7051V690.281C91.7104 690.942 92.0327 691.06 92.4033 691.065C92.5698 691.065 92.8223 691.049 92.9834 691.033V692.032C92.8276 692.054 92.5806 692.075 92.2637 692.075C91.3667 692.075 90.5557 691.581 90.5664 690.518V687.08H89.707V686.167H90.5664V684.771H91.7051V686.167H92.8975ZM97.4092 694.191C97.1729 694.186 96.9419 694.181 96.7969 694.159V693.203C96.9258 693.214 97.1514 693.219 97.3125 693.225C97.667 693.219 97.9624 693.198 98.2363 692.462L98.376 692.075L96.2383 686.167H97.4629L98.9346 690.689H98.999L100.471 686.167H101.706L99.2998 692.773C98.9614 693.697 98.3706 694.186 97.4092 694.191ZM104.907 692.118C103.253 692.118 102.173 690.915 102.179 689.11C102.173 687.295 103.253 686.092 104.907 686.092C106.551 686.092 107.625 687.295 107.625 689.11C107.625 690.915 106.551 692.118 104.907 692.118ZM103.328 689.11C103.328 690.222 103.838 691.162 104.907 691.162C105.96 691.162 106.465 690.222 106.465 689.11C106.465 687.993 105.96 687.042 104.907 687.037C103.838 687.042 103.328 687.993 103.328 689.11ZM112.459 689.572V686.167H113.598V692H112.48V690.99H112.416C112.147 691.613 111.551 692.075 110.676 692.075C109.548 692.075 108.753 691.318 108.753 689.873V686.167H109.902V689.733C109.902 690.528 110.386 691.033 111.084 691.033C111.723 691.033 112.459 690.566 112.459 689.572ZM118.937 692L117.229 686.167H118.41L119.549 690.442H119.613L120.752 686.167H121.934L123.062 690.421H123.126L124.254 686.167H125.436L123.728 692H122.557L121.375 687.8H121.289L120.118 692H118.937ZM126.381 692V686.167H127.487V687.091H127.552C127.767 686.468 128.352 686.076 129.034 686.081C129.174 686.076 129.399 686.092 129.518 686.103V687.198C129.421 687.177 129.152 687.128 128.916 687.134C128.121 687.128 127.53 687.682 127.53 688.444V692H126.381ZM130.377 692V686.167H131.526V692H130.377ZM130.227 684.588C130.232 684.212 130.56 683.911 130.957 683.911C131.349 683.911 131.677 684.212 131.677 684.588C131.677 684.964 131.349 685.27 130.957 685.265C130.56 685.27 130.232 684.964 130.227 684.588ZM135.651 686.167V687.08H134.459V690.281C134.464 690.942 134.787 691.06 135.157 691.065C135.324 691.065 135.576 691.049 135.737 691.033V692.032C135.582 692.054 135.334 692.075 135.018 692.075C134.121 692.075 133.31 691.581 133.32 690.518V687.08H132.461V686.167H133.32V684.771H134.459V686.167H135.651ZM139.218 692.118C137.499 692.118 136.441 690.931 136.446 689.121C136.441 687.327 137.515 686.092 139.143 686.092C140.469 686.092 141.731 686.914 141.731 689.024V689.433H137.585C137.617 690.544 138.272 691.173 139.229 691.173C139.878 691.173 140.303 690.894 140.496 690.539H141.656C141.398 691.484 140.501 692.118 139.218 692.118ZM137.59 688.573H140.604C140.604 687.687 140.029 687.032 139.153 687.037C138.235 687.032 137.639 687.751 137.59 688.573ZM147.736 692.118C146.329 692.113 145.298 690.979 145.298 689.1C145.298 687.198 146.345 686.092 147.747 686.092C148.832 686.092 149.224 686.747 149.434 687.112H149.487V684.223H150.637V692H149.52V691.087H149.434C149.219 691.468 148.8 692.113 147.736 692.118ZM146.469 689.078C146.463 690.249 146.99 691.135 147.994 691.141C148.972 691.135 149.52 690.303 149.52 689.078C149.52 687.864 148.982 687.064 147.994 687.069C146.979 687.064 146.463 687.929 146.469 689.078ZM154.601 692.118C152.946 692.118 151.867 690.915 151.872 689.11C151.867 687.295 152.946 686.092 154.601 686.092C156.244 686.092 157.318 687.295 157.318 689.11C157.318 690.915 156.244 692.118 154.601 692.118ZM153.021 689.11C153.021 690.222 153.532 691.162 154.601 691.162C155.653 691.162 156.158 690.222 156.158 689.11C156.158 687.993 155.653 687.042 154.601 687.037C153.532 687.042 153.021 687.993 153.021 689.11ZM159.521 692L157.812 686.167H158.994L160.133 690.442H160.197L161.336 686.167H162.518L163.646 690.421H163.71L164.838 686.167H166.02L164.312 692H163.141L161.959 687.8H161.873L160.702 692H159.521ZM168.114 688.541V692H166.965V686.167H168.071V687.123H168.136C168.41 686.495 168.984 686.092 169.854 686.092C171.052 686.092 171.847 686.849 171.842 688.294V692H170.703V688.434C170.698 687.585 170.241 687.08 169.468 687.08C168.678 687.08 168.114 687.612 168.114 688.541ZM175.655 690.356C175.65 689.024 176.783 688.681 177.836 688.605C178.223 688.584 179.098 688.536 179.367 688.525L179.361 688.058C179.367 687.397 178.958 687.016 178.18 687.016C177.503 687.016 177.095 687.327 176.977 687.757H175.838C175.94 686.79 176.842 686.092 178.223 686.092C179.152 686.092 180.505 686.43 180.511 688.122V692H179.394V691.205H179.351C179.125 691.64 178.588 692.129 177.621 692.129C176.515 692.129 175.65 691.495 175.655 690.356ZM176.772 690.367C176.772 690.926 177.234 691.21 177.879 691.216C178.813 691.21 179.372 690.587 179.372 689.895L179.367 689.363C179.104 689.379 178.271 689.438 177.997 689.454C177.245 689.508 176.772 689.792 176.772 690.367ZM183.046 688.541V692H181.896V686.167H183.003V687.123H183.067C183.341 686.495 183.916 686.092 184.786 686.092C185.984 686.092 186.779 686.849 186.773 688.294V692H185.635V688.434C185.629 687.585 185.173 687.08 184.399 687.08C183.61 687.08 183.046 687.612 183.046 688.541ZM193.369 692.118C191.65 692.118 190.592 690.931 190.598 689.121C190.592 687.327 191.667 686.092 193.294 686.092C194.621 686.092 195.883 686.914 195.883 689.024V689.433H191.736C191.769 690.544 192.424 691.173 193.38 691.173C194.03 691.173 194.454 690.894 194.647 690.539H195.808C195.55 691.484 194.653 692.118 193.369 692.118ZM191.742 688.573H194.755C194.755 687.687 194.18 687.032 193.305 687.037C192.386 687.032 191.79 687.751 191.742 688.573ZM198.171 688.541V692H197.021V686.167H198.128V687.123H198.192C198.466 686.495 199.041 686.092 199.911 686.092C201.109 686.092 201.904 686.849 201.898 688.294V692H200.76V688.434C200.754 687.585 200.298 687.08 199.524 687.08C198.735 687.08 198.171 687.612 198.171 688.541ZM205.476 692.118C204.068 692.113 203.037 690.979 203.037 689.1C203.037 687.198 204.084 686.092 205.486 686.092C206.571 686.092 206.963 686.747 207.173 687.112H207.227V684.223H208.376V692H207.259V691.087H207.173C206.958 691.468 206.539 692.113 205.476 692.118ZM204.208 689.078C204.203 690.249 204.729 691.135 205.733 691.141C206.711 691.135 207.259 690.303 207.259 689.078C207.259 687.864 206.722 687.064 205.733 687.069C204.718 687.064 204.203 687.929 204.208 689.078ZM209.869 692V686.167H211.019V692H209.869ZM209.719 684.588C209.724 684.212 210.052 683.911 210.449 683.911C210.841 683.911 211.169 684.212 211.169 684.588C211.169 684.964 210.841 685.27 210.449 685.265C210.052 685.27 209.724 684.964 209.719 684.588ZM213.564 688.541V692H212.415V686.167H213.521V687.123H213.586C213.86 686.495 214.435 686.092 215.305 686.092C216.502 686.092 217.297 686.849 217.292 688.294V692H216.153V688.434C216.148 687.585 215.691 687.08 214.918 687.08C214.128 687.08 213.564 687.612 213.564 688.541ZM221.138 694.31C219.666 694.31 218.694 693.66 218.592 692.569H219.763C219.875 693.123 220.391 693.391 221.148 693.386C222.062 693.391 222.636 692.994 222.642 692.086V690.937H222.566C222.362 691.312 221.943 691.914 220.869 691.914C219.494 691.914 218.431 690.888 218.431 689.024C218.431 687.161 219.478 686.092 220.88 686.092C221.965 686.092 222.362 686.747 222.577 687.112H222.652V686.167H223.77V692.129C223.775 693.627 222.642 694.31 221.138 694.31ZM219.602 689.046C219.596 690.19 220.123 690.963 221.127 690.969C222.104 690.963 222.652 690.249 222.652 689.046C222.652 687.864 222.115 687.064 221.127 687.069C220.112 687.064 219.596 687.929 219.602 689.046ZM229.001 688.541V692H227.852V686.167H228.958V687.123H229.022C229.296 686.495 229.871 686.092 230.741 686.092C231.939 686.092 232.734 686.849 232.729 688.294V692H231.59V688.434C231.584 687.585 231.128 687.08 230.354 687.08C229.565 687.08 229.001 687.612 229.001 688.541ZM236.596 692.118C234.941 692.118 233.862 690.915 233.867 689.11C233.862 687.295 234.941 686.092 236.596 686.092C238.239 686.092 239.313 687.295 239.313 689.11C239.313 690.915 238.239 692.118 236.596 692.118ZM235.017 689.11C235.017 690.222 235.527 691.162 236.596 691.162C237.648 691.162 238.153 690.222 238.153 689.11C238.153 687.993 237.648 687.042 236.596 687.037C235.527 687.042 235.017 687.993 235.017 689.11ZM243.17 686.167V687.08H241.978V690.281C241.983 690.942 242.305 691.06 242.676 691.065C242.842 691.065 243.095 691.049 243.256 691.033V692.032C243.1 692.054 242.853 692.075 242.536 692.075C241.639 692.075 240.828 691.581 240.839 690.518V687.08H239.979V686.167H240.839V684.771H241.978V686.167H243.17ZM246.736 692.118C245.018 692.118 243.959 690.931 243.965 689.121C243.959 687.327 245.034 686.092 246.661 686.092C247.988 686.092 249.25 686.914 249.25 689.024V689.433H245.104C245.136 690.544 245.791 691.173 246.747 691.173C247.397 691.173 247.821 690.894 248.015 690.539H249.175C248.917 691.484 248.02 692.118 246.736 692.118ZM245.109 688.573H248.122C248.122 687.687 247.547 687.032 246.672 687.037C245.753 687.032 245.157 687.751 245.109 688.573ZM254.224 684.223V692H253.074V684.223H254.224ZM255.62 692V686.167H256.77V692H255.62ZM255.47 684.588C255.475 684.212 255.803 683.911 256.2 683.911C256.592 683.911 256.92 684.212 256.92 684.588C256.92 684.964 256.592 685.27 256.2 685.265C255.803 685.27 255.475 684.964 255.47 684.588ZM258.166 692V684.223H259.315V688.627H259.412L261.722 686.167H263.097L260.739 688.67L263.258 692H261.851L259.869 689.379L259.315 689.927V692H258.166ZM266.266 692.118C264.547 692.118 263.489 690.931 263.494 689.121C263.489 687.327 264.563 686.092 266.19 686.092C267.517 686.092 268.779 686.914 268.779 689.024V689.433H264.633C264.665 690.544 265.32 691.173 266.276 691.173C266.926 691.173 267.351 690.894 267.544 690.539H268.704C268.446 691.484 267.549 692.118 266.266 692.118ZM264.638 688.573H267.651C267.651 687.687 267.077 687.032 266.201 687.037C265.283 687.032 264.687 687.751 264.638 688.573ZM275.332 686.167V687.08H274.14V690.281C274.145 690.942 274.467 691.06 274.838 691.065C275.004 691.065 275.257 691.049 275.418 691.033V692.032C275.262 692.054 275.015 692.075 274.698 692.075C273.801 692.075 272.99 691.581 273.001 690.518V687.08H272.142V686.167H273.001V684.771H274.14V686.167H275.332ZM277.728 688.541V692H276.578V684.223H277.706V687.123H277.781C278.055 686.489 278.603 686.092 279.511 686.092C280.708 686.092 281.509 686.833 281.509 688.294V692H280.359V688.434C280.359 687.574 279.897 687.08 279.124 687.08C278.313 687.08 277.728 687.612 277.728 688.541ZM282.895 692V686.167H284.044V692H282.895ZM282.744 684.588C282.75 684.212 283.077 683.911 283.475 683.911C283.867 683.911 284.194 684.212 284.194 684.588C284.194 684.964 283.867 685.27 283.475 685.265C283.077 685.27 282.75 684.964 282.744 684.588ZM288.717 687.757C288.609 687.295 288.244 686.994 287.61 686.994C286.955 686.994 286.488 687.333 286.493 687.778C286.488 688.122 286.762 688.369 287.406 688.52L288.33 688.734C289.404 688.976 289.925 689.486 289.931 690.313C289.925 691.366 289.034 692.118 287.546 692.118C286.144 692.118 285.317 691.495 285.172 690.41H286.343C286.445 690.937 286.842 691.2 287.535 691.194C288.276 691.2 288.754 690.888 288.76 690.399C288.754 690.023 288.475 689.782 287.857 689.637L286.944 689.443C285.892 689.212 285.344 688.648 285.344 687.843C285.344 686.806 286.246 686.092 287.6 686.092C288.899 686.092 289.71 686.752 289.823 687.757H288.717ZM292.283 689.69C292.299 688.283 292.713 687.854 293.422 687.413C293.873 687.139 294.217 686.742 294.217 686.178C294.217 685.506 293.701 685.082 293.057 685.082C292.477 685.082 291.913 685.437 291.864 686.231H290.704C290.747 684.862 291.778 684.115 293.057 684.115C294.453 684.115 295.388 684.953 295.388 686.178C295.388 687.042 294.974 687.617 294.292 688.036C293.647 688.428 293.395 688.815 293.379 689.69V689.755H292.283V689.69ZM292.111 691.312C292.106 690.894 292.455 690.55 292.874 690.55C293.288 690.55 293.631 690.894 293.637 691.312C293.631 691.731 293.288 692.07 292.874 692.075C292.455 692.07 292.106 691.731 292.111 691.312Z" fill="#292E34" fill-opacity="0.6"/>
<path d="M45.7168 715L43.2031 705.809H44.3584L46.2754 713.248H46.3643L48.3066 705.809H49.5889L51.5439 713.248H51.6201L53.5371 705.809H54.6924L52.1787 715H50.998L48.9922 707.726H48.916L46.8975 715H45.7168ZM56.8633 710.861V715H55.7715V705.809H56.8633V709.186H56.9521C57.2759 708.475 57.8916 708.018 58.9834 708.018C60.3926 708.018 61.332 708.849 61.332 710.62V715H60.2402V710.696C60.2402 709.611 59.6436 708.995 58.6533 708.995C57.625 708.995 56.8633 709.668 56.8633 710.861ZM62.7539 713.045C62.7539 711.464 64.1504 711.103 65.3438 711.014C65.7881 710.982 66.8989 710.918 67.21 710.912V710.354C67.21 709.478 66.6895 708.97 65.6484 708.97C64.7788 708.97 64.252 709.37 64.0996 709.896H62.957C63.0967 708.786 64.1758 708.018 65.6992 708.018C66.6006 708.018 68.2954 708.284 68.2891 710.455V715H67.21V714.061H67.1592C66.9307 714.524 66.3022 715.159 65.1025 715.165C63.7949 715.159 62.7539 714.391 62.7539 713.045ZM63.8457 713.096C63.8521 713.826 64.4551 714.194 65.293 714.188C66.5244 714.194 67.21 713.369 67.21 712.499V711.807C66.8862 711.826 65.8008 711.909 65.4707 711.928C64.4805 711.991 63.8521 712.34 63.8457 713.096ZM73.0498 708.106V709.021H71.6025V713.02C71.5962 713.902 72.0405 714.048 72.5039 714.048C72.7007 714.048 72.9927 714.029 73.1514 714.022V715.038C72.98 715.063 72.7134 715.089 72.3896 715.089C71.4692 715.089 70.5044 714.518 70.498 713.299V709.021H69.457V708.106H70.498V706.456H71.6025V708.106H73.0498ZM80.3242 715.14C78.604 715.146 77.3916 713.762 77.3916 711.572C77.3916 709.389 78.604 708.018 80.3369 708.018C81.6763 708.018 82.0952 708.83 82.3301 709.198H82.4062V705.809H83.5107V715H82.4443V713.946H82.3301C82.0889 714.327 81.6382 715.146 80.3242 715.14ZM78.4961 711.547C78.4961 713.013 79.1689 714.162 80.4766 714.162C81.7397 714.162 82.438 713.096 82.4443 711.547C82.438 710.017 81.7588 708.995 80.4766 708.995C79.1499 708.995 78.4961 710.106 78.4961 711.547ZM88.2207 715.14C86.3418 715.146 85.0723 713.724 85.0723 711.585C85.0723 709.433 86.3418 708.018 88.2207 708.018C90.0933 708.018 91.3501 709.433 91.3438 711.585C91.3501 713.724 90.0933 715.146 88.2207 715.14ZM86.1641 711.585C86.1704 712.962 86.8179 714.175 88.2207 714.175C89.6108 714.175 90.252 712.962 90.252 711.585C90.252 710.214 89.6108 708.982 88.2207 708.982C86.8179 708.982 86.1704 710.214 86.1641 711.585ZM96.7393 717.59C96.5044 717.583 96.2695 717.577 96.1299 717.564V716.587C96.2441 716.6 96.4917 716.606 96.6631 716.612C97.1074 716.606 97.4819 716.581 97.8438 715.571L98.0469 715.051L95.4951 708.106H96.6885L98.5674 713.578H98.6436L100.522 708.106H101.716L98.7959 715.99C98.3896 717.076 97.7168 717.583 96.7393 717.59ZM105.486 715.14C103.607 715.146 102.338 713.724 102.338 711.585C102.338 709.433 103.607 708.018 105.486 708.018C107.359 708.018 108.616 709.433 108.609 711.585C108.616 713.724 107.359 715.146 105.486 715.14ZM103.43 711.585C103.436 712.962 104.083 714.175 105.486 714.175C106.876 714.175 107.518 712.962 107.518 711.585C107.518 710.214 106.876 708.982 105.486 708.982C104.083 708.982 103.436 710.214 103.43 711.585ZM114.398 712.169V708.106H115.478V715H114.398V713.832H114.322C113.999 714.53 113.313 715.089 112.278 715.089C110.971 715.089 110.038 714.238 110.044 712.486V708.106H111.136V712.41C111.136 713.4 111.751 714.042 112.634 714.035C113.415 714.042 114.392 713.458 114.398 712.169ZM122.041 715L119.946 708.106H121.102L122.574 713.362H122.638L124.098 708.106H125.266L126.7 713.337H126.776L128.249 708.106H129.392L127.297 715H126.218L124.72 709.744H124.618L123.133 715H122.041ZM130.268 713.045C130.268 711.464 131.664 711.103 132.857 711.014C133.302 710.982 134.413 710.918 134.724 710.912V710.354C134.724 709.478 134.203 708.97 133.162 708.97C132.292 708.97 131.766 709.37 131.613 709.896H130.471C130.61 708.786 131.689 708.018 133.213 708.018C134.114 708.018 135.809 708.284 135.803 710.455V715H134.724V714.061H134.673C134.444 714.524 133.816 715.159 132.616 715.165C131.309 715.159 130.268 714.391 130.268 713.045ZM131.359 713.096C131.366 713.826 131.969 714.194 132.807 714.188C134.038 714.194 134.724 713.369 134.724 712.499V711.807C134.4 711.826 133.314 711.909 132.984 711.928C131.994 711.991 131.366 712.34 131.359 713.096ZM138.646 710.861V715H137.555V708.106H138.608V709.186H138.697C139.021 708.481 139.668 708.018 140.716 708.018C142.112 708.018 143.045 708.868 143.039 710.62V715H141.947V710.696C141.947 709.63 141.363 708.995 140.386 708.995C139.383 708.995 138.646 709.668 138.646 710.861ZM147.8 708.106V709.021H146.353V713.02C146.346 713.902 146.791 714.048 147.254 714.048C147.451 714.048 147.743 714.029 147.901 714.022V715.038C147.73 715.063 147.463 715.089 147.14 715.089C146.219 715.089 145.254 714.518 145.248 713.299V709.021H144.207V708.106H145.248V706.456H146.353V708.106H147.8ZM155.48 708.106V709.021H154.033V713.02C154.027 713.902 154.471 714.048 154.935 714.048C155.131 714.048 155.423 714.029 155.582 714.022V715.038C155.411 715.063 155.144 715.089 154.82 715.089C153.9 715.089 152.935 714.518 152.929 713.299V709.021H151.888V708.106H152.929V706.456H154.033V708.106H155.48ZM159.632 715.14C157.753 715.146 156.483 713.724 156.483 711.585C156.483 709.433 157.753 708.018 159.632 708.018C161.504 708.018 162.761 709.433 162.755 711.585C162.761 713.724 161.504 715.146 159.632 715.14ZM157.575 711.585C157.582 712.962 158.229 714.175 159.632 714.175C161.022 714.175 161.663 712.962 161.663 711.585C161.663 710.214 161.022 708.982 159.632 708.982C158.229 708.982 157.582 710.214 157.575 711.585ZM171.286 709.896C171.134 709.325 170.696 708.951 169.89 708.944C169.039 708.951 168.436 709.408 168.43 709.985C168.436 710.442 168.804 710.753 169.61 710.95L170.639 711.204C171.87 711.496 172.473 712.112 172.479 713.07C172.473 714.264 171.502 715.146 169.775 715.14C168.227 715.146 167.306 714.454 167.122 713.197H168.265C168.392 713.87 168.88 714.194 169.75 714.188C170.734 714.194 171.35 713.781 171.35 713.134C171.35 712.645 171 712.328 170.22 712.144L169.179 711.902C167.979 711.623 167.338 710.969 167.338 710.049C167.338 708.868 168.373 708.018 169.89 708.018C171.318 708.018 172.213 708.779 172.353 709.896H171.286ZM173.571 713.045C173.571 711.464 174.968 711.103 176.161 711.014C176.605 710.982 177.716 710.918 178.027 710.912V710.354C178.027 709.478 177.507 708.97 176.466 708.97C175.596 708.97 175.069 709.37 174.917 709.896H173.774C173.914 708.786 174.993 708.018 176.517 708.018C177.418 708.018 179.113 708.284 179.106 710.455V715H178.027V714.061H177.977C177.748 714.524 177.12 715.159 175.92 715.165C174.612 715.159 173.571 714.391 173.571 713.045ZM174.663 713.096C174.669 713.826 175.272 714.194 176.11 714.188C177.342 714.194 178.027 713.369 178.027 712.499V711.807C177.704 711.826 176.618 711.909 176.288 711.928C175.298 711.991 174.669 712.34 174.663 713.096ZM181.303 717.59C181.068 717.583 180.833 717.577 180.693 717.564V716.587C180.808 716.6 181.055 716.606 181.227 716.612C181.671 716.606 182.045 716.581 182.407 715.571L182.61 715.051L180.059 708.106H181.252L183.131 713.578H183.207L185.086 708.106H186.279L183.359 715.99C182.953 717.076 182.28 717.583 181.303 717.59ZM193.757 708.106V709.021H192.31V713.02C192.303 713.902 192.748 714.048 193.211 714.048C193.408 714.048 193.7 714.029 193.858 714.022V715.038C193.687 715.063 193.42 715.089 193.097 715.089C192.176 715.089 191.211 714.518 191.205 713.299V709.021H190.164V708.106H191.205V706.456H192.31V708.106H193.757ZM197.908 715.14C196.029 715.146 194.76 713.724 194.76 711.585C194.76 709.433 196.029 708.018 197.908 708.018C199.781 708.018 201.038 709.433 201.031 711.585C201.038 713.724 199.781 715.146 197.908 715.14ZM195.852 711.585C195.858 712.962 196.505 714.175 197.908 714.175C199.298 714.175 199.939 712.962 199.939 711.585C199.939 710.214 199.298 708.982 197.908 708.982C196.505 708.982 195.858 710.214 195.852 711.585ZM206.427 717.59C206.192 717.583 205.957 717.577 205.817 717.564V716.587C205.932 716.6 206.179 716.606 206.351 716.612C206.795 716.606 207.169 716.581 207.531 715.571L207.734 715.051L205.183 708.106H206.376L208.255 713.578H208.331L210.21 708.106H211.403L208.483 715.99C208.077 717.076 207.404 717.583 206.427 717.59ZM215.174 715.14C213.295 715.146 212.025 713.724 212.025 711.585C212.025 709.433 213.295 708.018 215.174 708.018C217.046 708.018 218.303 709.433 218.297 711.585C218.303 713.724 217.046 715.146 215.174 715.14ZM213.117 711.585C213.124 712.962 213.771 714.175 215.174 714.175C216.564 714.175 217.205 712.962 217.205 711.585C217.205 710.214 216.564 708.982 215.174 708.982C213.771 708.982 213.124 710.214 213.117 711.585ZM224.086 712.169V708.106H225.165V715H224.086V713.832H224.01C223.686 714.53 223 715.089 221.966 715.089C220.658 715.089 219.725 714.238 219.731 712.486V708.106H220.823V712.41C220.823 713.4 221.439 714.042 222.321 714.035C223.102 714.042 224.08 713.458 224.086 712.169ZM226.917 715V708.106H227.971V709.16H228.047C228.294 708.462 229.012 707.999 229.824 707.992C229.989 707.999 230.269 708.005 230.396 708.018V709.122C230.313 709.103 230.021 709.046 229.735 709.046C228.745 709.046 228.009 709.731 228.009 710.658V715H226.917ZM238.559 709.896C238.406 709.325 237.968 708.951 237.162 708.944C236.312 708.951 235.708 709.408 235.702 709.985C235.708 710.442 236.077 710.753 236.883 710.95L237.911 711.204C239.143 711.496 239.746 712.112 239.752 713.07C239.746 714.264 238.774 715.146 237.048 715.14C235.499 715.146 234.579 714.454 234.395 713.197H235.537C235.664 713.87 236.153 714.194 237.022 714.188C238.006 714.194 238.622 713.781 238.622 713.134C238.622 712.645 238.273 712.328 237.492 712.144L236.451 711.902C235.251 711.623 234.61 710.969 234.61 710.049C234.61 708.868 235.645 708.018 237.162 708.018C238.59 708.018 239.485 708.779 239.625 709.896H238.559ZM241.174 717.59V708.106H242.228V709.198H242.354C242.589 708.83 243.008 708.018 244.348 708.018C246.081 708.018 247.28 709.389 247.28 711.572C247.28 713.762 246.081 715.146 244.36 715.14C243.046 715.146 242.589 714.327 242.354 713.946H242.266V717.59H241.174ZM242.24 711.547C242.247 713.096 242.938 714.162 244.208 714.162C245.516 714.162 246.188 713.013 246.188 711.547C246.188 710.106 245.535 708.995 244.208 708.995C242.919 708.995 242.247 710.017 242.24 711.547ZM251.521 715.14C249.642 715.146 248.372 713.724 248.372 711.585C248.372 709.433 249.642 708.018 251.521 708.018C253.393 708.018 254.65 709.433 254.644 711.585C254.65 713.724 253.393 715.146 251.521 715.14ZM249.464 711.585C249.47 712.962 250.118 714.175 251.521 714.175C252.911 714.175 253.552 712.962 253.552 711.585C253.552 710.214 252.911 708.982 251.521 708.982C250.118 708.982 249.47 710.214 249.464 711.585ZM260.433 712.169V708.106H261.512V715H260.433V713.832H260.356C260.033 714.53 259.347 715.089 258.312 715.089C257.005 715.089 256.072 714.238 256.078 712.486V708.106H257.17V712.41C257.17 713.4 257.786 714.042 258.668 714.035C259.449 714.042 260.426 713.458 260.433 712.169ZM267.098 709.896C266.945 709.325 266.507 708.951 265.701 708.944C264.851 708.951 264.248 709.408 264.241 709.985C264.248 710.442 264.616 710.753 265.422 710.95L266.45 711.204C267.682 711.496 268.285 712.112 268.291 713.07C268.285 714.264 267.313 715.146 265.587 715.14C264.038 715.146 263.118 714.454 262.934 713.197H264.076C264.203 713.87 264.692 714.194 265.562 714.188C266.545 714.194 267.161 713.781 267.161 713.134C267.161 712.645 266.812 712.328 266.031 712.144L264.99 711.902C263.791 711.623 263.149 710.969 263.149 710.049C263.149 708.868 264.184 708.018 265.701 708.018C267.129 708.018 268.024 708.779 268.164 709.896H267.098ZM272.607 715.14C270.614 715.146 269.383 713.724 269.383 711.61C269.383 709.49 270.633 708.018 272.506 708.018C273.953 708.018 275.483 708.906 275.477 711.458V711.915H270.475C270.532 713.375 271.382 714.175 272.607 714.175C273.433 714.175 273.953 713.813 274.207 713.388H275.375C275.051 714.435 274.029 715.146 272.607 715.14ZM270.481 710.988H274.372C274.366 709.839 273.642 708.982 272.506 708.982C271.312 708.982 270.557 709.922 270.481 710.988ZM278.282 712.347C278.295 710.646 278.815 710.125 279.691 709.592C280.218 709.274 280.618 708.767 280.618 708.056C280.618 707.192 279.945 706.64 279.107 706.646C278.384 706.64 277.654 707.072 277.584 708.119H276.429C276.492 706.577 277.654 705.682 279.107 705.682C280.701 705.682 281.735 706.704 281.735 708.106C281.735 709.103 281.266 709.795 280.479 710.277C279.685 710.76 279.399 711.249 279.374 712.347V712.41H278.282V712.347ZM278.054 714.251C278.041 713.807 278.422 713.438 278.866 713.438C279.317 713.438 279.685 713.807 279.679 714.251C279.685 714.702 279.317 715.07 278.866 715.076C278.422 715.07 278.041 714.702 278.054 714.251Z" fill="#292E34"/>
</g>
<g filter="url(#filter10_d_286_1384)">
<rect x="320.5" y="669.5" width="268" height="61" rx="11.5" stroke="#E9E9E9" shape-rendering="crispEdges"/>
<path d="M334.331 692L332.172 684.223H333.418L334.933 690.238H334.997L336.576 684.223H337.801L339.38 690.238H339.444L340.959 684.223H342.205L340.046 692H338.854L337.221 686.188H337.156L335.523 692H334.331ZM344.225 688.541V692H343.075V684.223H344.203V687.123H344.278C344.552 686.489 345.1 686.092 346.008 686.092C347.206 686.092 348.006 686.833 348.006 688.294V692H346.856V688.434C346.856 687.574 346.395 687.08 345.621 687.08C344.81 687.08 344.225 687.612 344.225 688.541ZM349.886 694.191C349.649 694.186 349.418 694.181 349.273 694.159V693.203C349.402 693.214 349.628 693.219 349.789 693.225C350.144 693.219 350.439 693.198 350.713 692.462L350.853 692.075L348.715 686.167H349.939L351.411 690.689H351.476L352.947 686.167H354.183L351.776 692.773C351.438 693.697 350.847 694.186 349.886 694.191ZM359.983 692.118C358.576 692.113 357.545 690.979 357.545 689.1C357.545 687.198 358.592 686.092 359.994 686.092C361.079 686.092 361.471 686.747 361.681 687.112H361.734V684.223H362.884V692H361.767V691.087H361.681C361.466 691.468 361.047 692.113 359.983 692.118ZM358.716 689.078C358.71 690.249 359.237 691.135 360.241 691.141C361.219 691.135 361.767 690.303 361.767 689.078C361.767 687.864 361.229 687.064 360.241 687.069C359.226 687.064 358.71 687.929 358.716 689.078ZM366.848 692.118C365.193 692.118 364.114 690.915 364.119 689.11C364.114 687.295 365.193 686.092 366.848 686.092C368.491 686.092 369.565 687.295 369.565 689.11C369.565 690.915 368.491 692.118 366.848 692.118ZM365.269 689.11C365.269 690.222 365.779 691.162 366.848 691.162C367.9 691.162 368.405 690.222 368.405 689.11C368.405 687.993 367.9 687.042 366.848 687.037C365.779 687.042 365.269 687.993 365.269 689.11ZM371.843 688.541V692H370.693V686.167H371.8V687.123H371.864C372.138 686.495 372.713 686.092 373.583 686.092C374.781 686.092 375.576 686.849 375.57 688.294V692H374.432V688.434C374.426 687.585 373.97 687.08 373.196 687.08C372.407 687.08 371.843 687.612 371.843 688.541ZM377.837 684.223V686.994H376.892V684.223H377.837ZM381.897 686.167V687.08H380.705V690.281C380.71 690.942 381.033 691.06 381.403 691.065C381.57 691.065 381.822 691.049 381.983 691.033V692.032C381.828 692.054 381.581 692.075 381.264 692.075C380.367 692.075 379.556 691.581 379.566 690.518V687.08H378.707V686.167H379.566V684.771H380.705V686.167H381.897ZM386.409 694.191C386.173 694.186 385.942 694.181 385.797 694.159V693.203C385.926 693.214 386.151 693.219 386.312 693.225C386.667 693.219 386.962 693.198 387.236 692.462L387.376 692.075L385.238 686.167H386.463L387.935 690.689H387.999L389.471 686.167H390.706L388.3 692.773C387.961 693.697 387.371 694.186 386.409 694.191ZM393.907 692.118C392.253 692.118 391.173 690.915 391.179 689.11C391.173 687.295 392.253 686.092 393.907 686.092C395.551 686.092 396.625 687.295 396.625 689.11C396.625 690.915 395.551 692.118 393.907 692.118ZM392.328 689.11C392.328 690.222 392.838 691.162 393.907 691.162C394.96 691.162 395.465 690.222 395.465 689.11C395.465 687.993 394.96 687.042 393.907 687.037C392.838 687.042 392.328 687.993 392.328 689.11ZM401.459 689.572V686.167H402.598V692H401.48V690.99H401.416C401.147 691.613 400.551 692.075 399.676 692.075C398.548 692.075 397.753 691.318 397.753 689.873V686.167H398.902V689.733C398.902 690.528 399.386 691.033 400.084 691.033C400.723 691.033 401.459 690.566 401.459 689.572ZM407.937 692L406.229 686.167H407.41L408.549 690.442H408.613L409.752 686.167H410.934L412.062 690.421H412.126L413.254 686.167H414.436L412.728 692H411.557L410.375 687.8H410.289L409.118 692H407.937ZM415.381 692V686.167H416.487V687.091H416.552C416.767 686.468 417.352 686.076 418.034 686.081C418.174 686.076 418.399 686.092 418.518 686.103V687.198C418.421 687.177 418.152 687.128 417.916 687.134C417.121 687.128 416.53 687.682 416.53 688.444V692H415.381ZM419.377 692V686.167H420.526V692H419.377ZM419.227 684.588C419.232 684.212 419.56 683.911 419.957 683.911C420.349 683.911 420.677 684.212 420.677 684.588C420.677 684.964 420.349 685.27 419.957 685.265C419.56 685.27 419.232 684.964 419.227 684.588ZM424.651 686.167V687.08H423.459V690.281C423.464 690.942 423.787 691.06 424.157 691.065C424.324 691.065 424.576 691.049 424.737 691.033V692.032C424.582 692.054 424.334 692.075 424.018 692.075C423.121 692.075 422.31 691.581 422.32 690.518V687.08H421.461V686.167H422.32V684.771H423.459V686.167H424.651ZM428.218 692.118C426.499 692.118 425.441 690.931 425.446 689.121C425.441 687.327 426.515 686.092 428.143 686.092C429.469 686.092 430.731 686.914 430.731 689.024V689.433H426.585C426.617 690.544 427.272 691.173 428.229 691.173C428.878 691.173 429.303 690.894 429.496 690.539H430.656C430.398 691.484 429.501 692.118 428.218 692.118ZM426.59 688.573H429.604C429.604 687.687 429.029 687.032 428.153 687.037C427.235 687.032 426.639 687.751 426.59 688.573ZM436.736 692.118C435.329 692.113 434.298 690.979 434.298 689.1C434.298 687.198 435.345 686.092 436.747 686.092C437.832 686.092 438.224 686.747 438.434 687.112H438.487V684.223H439.637V692H438.52V691.087H438.434C438.219 691.468 437.8 692.113 436.736 692.118ZM435.469 689.078C435.463 690.249 435.99 691.135 436.994 691.141C437.972 691.135 438.52 690.303 438.52 689.078C438.52 687.864 437.982 687.064 436.994 687.069C435.979 687.064 435.463 687.929 435.469 689.078ZM443.601 692.118C441.946 692.118 440.867 690.915 440.872 689.11C440.867 687.295 441.946 686.092 443.601 686.092C445.244 686.092 446.318 687.295 446.318 689.11C446.318 690.915 445.244 692.118 443.601 692.118ZM442.021 689.11C442.021 690.222 442.532 691.162 443.601 691.162C444.653 691.162 445.158 690.222 445.158 689.11C445.158 687.993 444.653 687.042 443.601 687.037C442.532 687.042 442.021 687.993 442.021 689.11ZM448.521 692L446.812 686.167H447.994L449.133 690.442H449.197L450.336 686.167H451.518L452.646 690.421H452.71L453.838 686.167H455.02L453.312 692H452.141L450.959 687.8H450.873L449.702 692H448.521ZM457.114 688.541V692H455.965V686.167H457.071V687.123H457.136C457.41 686.495 457.984 686.092 458.854 686.092C460.052 686.092 460.847 686.849 460.842 688.294V692H459.703V688.434C459.698 687.585 459.241 687.08 458.468 687.08C457.678 687.08 457.114 687.612 457.114 688.541ZM464.655 690.356C464.65 689.024 465.783 688.681 466.836 688.605C467.223 688.584 468.098 688.536 468.367 688.525L468.361 688.058C468.367 687.397 467.958 687.016 467.18 687.016C466.503 687.016 466.095 687.327 465.977 687.757H464.838C464.94 686.79 465.842 686.092 467.223 686.092C468.152 686.092 469.505 686.43 469.511 688.122V692H468.394V691.205H468.351C468.125 691.64 467.588 692.129 466.621 692.129C465.515 692.129 464.65 691.495 464.655 690.356ZM465.772 690.367C465.772 690.926 466.234 691.21 466.879 691.216C467.813 691.21 468.372 690.587 468.372 689.895L468.367 689.363C468.104 689.379 467.271 689.438 466.997 689.454C466.245 689.508 465.772 689.792 465.772 690.367ZM472.046 688.541V692H470.896V686.167H472.003V687.123H472.067C472.341 686.495 472.916 686.092 473.786 686.092C474.984 686.092 475.779 686.849 475.773 688.294V692H474.635V688.434C474.629 687.585 474.173 687.08 473.399 687.08C472.61 687.08 472.046 687.612 472.046 688.541ZM482.369 692.118C480.65 692.118 479.592 690.931 479.598 689.121C479.592 687.327 480.667 686.092 482.294 686.092C483.621 686.092 484.883 686.914 484.883 689.024V689.433H480.736C480.769 690.544 481.424 691.173 482.38 691.173C483.03 691.173 483.454 690.894 483.647 690.539H484.808C484.55 691.484 483.653 692.118 482.369 692.118ZM480.742 688.573H483.755C483.755 687.687 483.18 687.032 482.305 687.037C481.386 687.032 480.79 687.751 480.742 688.573ZM487.171 688.541V692H486.021V686.167H487.128V687.123H487.192C487.466 686.495 488.041 686.092 488.911 686.092C490.109 686.092 490.904 686.849 490.898 688.294V692H489.76V688.434C489.754 687.585 489.298 687.08 488.524 687.08C487.735 687.08 487.171 687.612 487.171 688.541ZM494.476 692.118C493.068 692.113 492.037 690.979 492.037 689.1C492.037 687.198 493.084 686.092 494.486 686.092C495.571 686.092 495.963 686.747 496.173 687.112H496.227V684.223H497.376V692H496.259V691.087H496.173C495.958 691.468 495.539 692.113 494.476 692.118ZM493.208 689.078C493.203 690.249 493.729 691.135 494.733 691.141C495.711 691.135 496.259 690.303 496.259 689.078C496.259 687.864 495.722 687.064 494.733 687.069C493.718 687.064 493.203 687.929 493.208 689.078ZM498.869 692V686.167H500.019V692H498.869ZM498.719 684.588C498.724 684.212 499.052 683.911 499.449 683.911C499.841 683.911 500.169 684.212 500.169 684.588C500.169 684.964 499.841 685.27 499.449 685.265C499.052 685.27 498.724 684.964 498.719 684.588ZM502.564 688.541V692H501.415V686.167H502.521V687.123H502.586C502.86 686.495 503.435 686.092 504.305 686.092C505.502 686.092 506.297 686.849 506.292 688.294V692H505.153V688.434C505.148 687.585 504.691 687.08 503.918 687.08C503.128 687.08 502.564 687.612 502.564 688.541ZM510.138 694.31C508.666 694.31 507.694 693.66 507.592 692.569H508.763C508.875 693.123 509.391 693.391 510.148 693.386C511.062 693.391 511.636 692.994 511.642 692.086V690.937H511.566C511.362 691.312 510.943 691.914 509.869 691.914C508.494 691.914 507.431 690.888 507.431 689.024C507.431 687.161 508.478 686.092 509.88 686.092C510.965 686.092 511.362 686.747 511.577 687.112H511.652V686.167H512.77V692.129C512.775 693.627 511.642 694.31 510.138 694.31ZM508.602 689.046C508.596 690.19 509.123 690.963 510.127 690.969C511.104 690.963 511.652 690.249 511.652 689.046C511.652 687.864 511.115 687.064 510.127 687.069C509.112 687.064 508.596 687.929 508.602 689.046ZM518.001 688.541V692H516.852V686.167H517.958V687.123H518.022C518.296 686.495 518.871 686.092 519.741 686.092C520.939 686.092 521.734 686.849 521.729 688.294V692H520.59V688.434C520.584 687.585 520.128 687.08 519.354 687.08C518.565 687.08 518.001 687.612 518.001 688.541ZM525.596 692.118C523.941 692.118 522.862 690.915 522.867 689.11C522.862 687.295 523.941 686.092 525.596 686.092C527.239 686.092 528.313 687.295 528.313 689.11C528.313 690.915 527.239 692.118 525.596 692.118ZM524.017 689.11C524.017 690.222 524.527 691.162 525.596 691.162C526.648 691.162 527.153 690.222 527.153 689.11C527.153 687.993 526.648 687.042 525.596 687.037C524.527 687.042 524.017 687.993 524.017 689.11ZM532.17 686.167V687.08H530.978V690.281C530.983 690.942 531.305 691.06 531.676 691.065C531.842 691.065 532.095 691.049 532.256 691.033V692.032C532.1 692.054 531.853 692.075 531.536 692.075C530.639 692.075 529.828 691.581 529.839 690.518V687.08H528.979V686.167H529.839V684.771H530.978V686.167H532.17ZM535.736 692.118C534.018 692.118 532.959 690.931 532.965 689.121C532.959 687.327 534.034 686.092 535.661 686.092C536.988 686.092 538.25 686.914 538.25 689.024V689.433H534.104C534.136 690.544 534.791 691.173 535.747 691.173C536.397 691.173 536.821 690.894 537.015 690.539H538.175C537.917 691.484 537.02 692.118 535.736 692.118ZM534.109 688.573H537.122C537.122 687.687 536.547 687.032 535.672 687.037C534.753 687.032 534.157 687.751 534.109 688.573ZM543.224 684.223V692H542.074V684.223H543.224ZM544.62 692V686.167H545.77V692H544.62ZM544.47 684.588C544.475 684.212 544.803 683.911 545.2 683.911C545.592 683.911 545.92 684.212 545.92 684.588C545.92 684.964 545.592 685.27 545.2 685.265C544.803 685.27 544.475 684.964 544.47 684.588ZM547.166 692V684.223H548.315V688.627H548.412L550.722 686.167H552.097L549.739 688.67L552.258 692H550.851L548.869 689.379L548.315 689.927V692H547.166ZM555.266 692.118C553.547 692.118 552.489 690.931 552.494 689.121C552.489 687.327 553.563 686.092 555.19 686.092C556.517 686.092 557.779 686.914 557.779 689.024V689.433H553.633C553.665 690.544 554.32 691.173 555.276 691.173C555.926 691.173 556.351 690.894 556.544 690.539H557.704C557.446 691.484 556.549 692.118 555.266 692.118ZM553.638 688.573H556.651C556.651 687.687 556.077 687.032 555.201 687.037C554.283 687.032 553.687 687.751 553.638 688.573ZM564.332 686.167V687.08H563.14V690.281C563.145 690.942 563.467 691.06 563.838 691.065C564.004 691.065 564.257 691.049 564.418 691.033V692.032C564.262 692.054 564.015 692.075 563.698 692.075C562.801 692.075 561.99 691.581 562.001 690.518V687.08H561.142V686.167H562.001V684.771H563.14V686.167H564.332ZM566.728 688.541V692H565.578V684.223H566.706V687.123H566.781C567.055 686.489 567.603 686.092 568.511 686.092C569.708 686.092 570.509 686.833 570.509 688.294V692H569.359V688.434C569.359 687.574 568.897 687.08 568.124 687.08C567.313 687.08 566.728 687.612 566.728 688.541ZM571.895 692V686.167H573.044V692H571.895ZM571.744 684.588C571.75 684.212 572.077 683.911 572.475 683.911C572.867 683.911 573.194 684.212 573.194 684.588C573.194 684.964 572.867 685.27 572.475 685.265C572.077 685.27 571.75 684.964 571.744 684.588ZM577.717 687.757C577.609 687.295 577.244 686.994 576.61 686.994C575.955 686.994 575.488 687.333 575.493 687.778C575.488 688.122 575.762 688.369 576.406 688.52L577.33 688.734C578.404 688.976 578.925 689.486 578.931 690.313C578.925 691.366 578.034 692.118 576.546 692.118C575.144 692.118 574.317 691.495 574.172 690.41H575.343C575.445 690.937 575.842 691.2 576.535 691.194C577.276 691.2 577.754 690.888 577.76 690.399C577.754 690.023 577.475 689.782 576.857 689.637L575.944 689.443C574.892 689.212 574.344 688.648 574.344 687.843C574.344 686.806 575.246 686.092 576.6 686.092C577.899 686.092 578.71 686.752 578.823 687.757H577.717ZM581.283 689.69C581.299 688.283 581.713 687.854 582.422 687.413C582.873 687.139 583.217 686.742 583.217 686.178C583.217 685.506 582.701 685.082 582.057 685.082C581.477 685.082 580.913 685.437 580.864 686.231H579.704C579.747 684.862 580.778 684.115 582.057 684.115C583.453 684.115 584.388 684.953 584.388 686.178C584.388 687.042 583.974 687.617 583.292 688.036C582.647 688.428 582.395 688.815 582.379 689.69V689.755H581.283V689.69ZM581.111 691.312C581.106 690.894 581.455 690.55 581.874 690.55C582.288 690.55 582.631 690.894 582.637 691.312C582.631 691.731 582.288 692.07 581.874 692.075C581.455 692.07 581.106 691.731 581.111 691.312Z" fill="#606060"/>
<path d="M334.717 715L332.203 705.809H333.358L335.275 713.248H335.364L337.307 705.809H338.589L340.544 713.248H340.62L342.537 705.809H343.692L341.179 715H339.998L337.992 707.726H337.916L335.897 715H334.717ZM345.863 710.861V715H344.771V705.809H345.863V709.186H345.952C346.276 708.475 346.892 708.018 347.983 708.018C349.393 708.018 350.332 708.849 350.332 710.62V715H349.24V710.696C349.24 709.611 348.644 708.995 347.653 708.995C346.625 708.995 345.863 709.668 345.863 710.861ZM351.754 713.045C351.754 711.464 353.15 711.103 354.344 711.014C354.788 710.982 355.899 710.918 356.21 710.912V710.354C356.21 709.478 355.689 708.97 354.648 708.97C353.779 708.97 353.252 709.37 353.1 709.896H351.957C352.097 708.786 353.176 708.018 354.699 708.018C355.601 708.018 357.295 708.284 357.289 710.455V715H356.21V714.061H356.159C355.931 714.524 355.302 715.159 354.103 715.165C352.795 715.159 351.754 714.391 351.754 713.045ZM352.846 713.096C352.852 713.826 353.455 714.194 354.293 714.188C355.524 714.194 356.21 713.369 356.21 712.499V711.807C355.886 711.826 354.801 711.909 354.471 711.928C353.48 711.991 352.852 712.34 352.846 713.096ZM362.05 708.106V709.021H360.603V713.02C360.596 713.902 361.041 714.048 361.504 714.048C361.701 714.048 361.993 714.029 362.151 714.022V715.038C361.98 715.063 361.713 715.089 361.39 715.089C360.469 715.089 359.504 714.518 359.498 713.299V709.021H358.457V708.106H359.498V706.456H360.603V708.106H362.05ZM369.324 715.14C367.604 715.146 366.392 713.762 366.392 711.572C366.392 709.389 367.604 708.018 369.337 708.018C370.676 708.018 371.095 708.83 371.33 709.198H371.406V705.809H372.511V715H371.444V713.946H371.33C371.089 714.327 370.638 715.146 369.324 715.14ZM367.496 711.547C367.496 713.013 368.169 714.162 369.477 714.162C370.74 714.162 371.438 713.096 371.444 711.547C371.438 710.017 370.759 708.995 369.477 708.995C368.15 708.995 367.496 710.106 367.496 711.547ZM377.221 715.14C375.342 715.146 374.072 713.724 374.072 711.585C374.072 709.433 375.342 708.018 377.221 708.018C379.093 708.018 380.35 709.433 380.344 711.585C380.35 713.724 379.093 715.146 377.221 715.14ZM375.164 711.585C375.17 712.962 375.818 714.175 377.221 714.175C378.611 714.175 379.252 712.962 379.252 711.585C379.252 710.214 378.611 708.982 377.221 708.982C375.818 708.982 375.17 710.214 375.164 711.585ZM385.739 717.59C385.504 717.583 385.27 717.577 385.13 717.564V716.587C385.244 716.6 385.492 716.606 385.663 716.612C386.107 716.606 386.482 716.581 386.844 715.571L387.047 715.051L384.495 708.106H385.688L387.567 713.578H387.644L389.522 708.106H390.716L387.796 715.99C387.39 717.076 386.717 717.583 385.739 717.59ZM394.486 715.14C392.607 715.146 391.338 713.724 391.338 711.585C391.338 709.433 392.607 708.018 394.486 708.018C396.359 708.018 397.616 709.433 397.609 711.585C397.616 713.724 396.359 715.146 394.486 715.14ZM392.43 711.585C392.436 712.962 393.083 714.175 394.486 714.175C395.876 714.175 396.518 712.962 396.518 711.585C396.518 710.214 395.876 708.982 394.486 708.982C393.083 708.982 392.436 710.214 392.43 711.585ZM403.398 712.169V708.106H404.478V715H403.398V713.832H403.322C402.999 714.53 402.313 715.089 401.278 715.089C399.971 715.089 399.038 714.238 399.044 712.486V708.106H400.136V712.41C400.136 713.4 400.751 714.042 401.634 714.035C402.415 714.042 403.392 713.458 403.398 712.169ZM411.041 715L408.946 708.106H410.102L411.574 713.362H411.638L413.098 708.106H414.266L415.7 713.337H415.776L417.249 708.106H418.392L416.297 715H415.218L413.72 709.744H413.618L412.133 715H411.041ZM419.268 713.045C419.268 711.464 420.664 711.103 421.857 711.014C422.302 710.982 423.413 710.918 423.724 710.912V710.354C423.724 709.478 423.203 708.97 422.162 708.97C421.292 708.97 420.766 709.37 420.613 709.896H419.471C419.61 708.786 420.689 708.018 422.213 708.018C423.114 708.018 424.809 708.284 424.803 710.455V715H423.724V714.061H423.673C423.444 714.524 422.816 715.159 421.616 715.165C420.309 715.159 419.268 714.391 419.268 713.045ZM420.359 713.096C420.366 713.826 420.969 714.194 421.807 714.188C423.038 714.194 423.724 713.369 423.724 712.499V711.807C423.4 711.826 422.314 711.909 421.984 711.928C420.994 711.991 420.366 712.34 420.359 713.096ZM427.646 710.861V715H426.555V708.106H427.608V709.186H427.697C428.021 708.481 428.668 708.018 429.716 708.018C431.112 708.018 432.045 708.868 432.039 710.62V715H430.947V710.696C430.947 709.63 430.363 708.995 429.386 708.995C428.383 708.995 427.646 709.668 427.646 710.861ZM436.8 708.106V709.021H435.353V713.02C435.346 713.902 435.791 714.048 436.254 714.048C436.451 714.048 436.743 714.029 436.901 714.022V715.038C436.73 715.063 436.463 715.089 436.14 715.089C435.219 715.089 434.254 714.518 434.248 713.299V709.021H433.207V708.106H434.248V706.456H435.353V708.106H436.8ZM444.48 708.106V709.021H443.033V713.02C443.027 713.902 443.471 714.048 443.935 714.048C444.131 714.048 444.423 714.029 444.582 714.022V715.038C444.411 715.063 444.144 715.089 443.82 715.089C442.9 715.089 441.935 714.518 441.929 713.299V709.021H440.888V708.106H441.929V706.456H443.033V708.106H444.48ZM448.632 715.14C446.753 715.146 445.483 713.724 445.483 711.585C445.483 709.433 446.753 708.018 448.632 708.018C450.504 708.018 451.761 709.433 451.755 711.585C451.761 713.724 450.504 715.146 448.632 715.14ZM446.575 711.585C446.582 712.962 447.229 714.175 448.632 714.175C450.022 714.175 450.663 712.962 450.663 711.585C450.663 710.214 450.022 708.982 448.632 708.982C447.229 708.982 446.582 710.214 446.575 711.585ZM459.461 708.106V709.021H458.014V713.02C458.007 713.902 458.452 714.048 458.915 714.048C459.112 714.048 459.404 714.029 459.562 714.022V715.038C459.391 715.063 459.125 715.089 458.801 715.089C457.88 715.089 456.916 714.518 456.909 713.299V709.021H455.868V708.106H456.909V706.456H458.014V708.106H459.461ZM463.688 715.14C461.695 715.146 460.464 713.724 460.464 711.61C460.464 709.49 461.714 708.018 463.587 708.018C465.034 708.018 466.564 708.906 466.558 711.458V711.915H461.556C461.613 713.375 462.463 714.175 463.688 714.175C464.514 714.175 465.034 713.813 465.288 713.388H466.456C466.132 714.435 465.11 715.146 463.688 715.14ZM461.562 710.988H465.453C465.447 709.839 464.723 708.982 463.587 708.982C462.394 708.982 461.638 709.922 461.562 710.988ZM469.071 705.809V715H467.979V705.809H469.071ZM471.902 705.809V715H470.811V705.809H471.902ZM477.603 717.59C477.368 717.583 477.133 717.577 476.993 717.564V716.587C477.107 716.6 477.355 716.606 477.526 716.612C477.971 716.606 478.345 716.581 478.707 715.571L478.91 715.051L476.358 708.106H477.552L479.431 713.578H479.507L481.386 708.106H482.579L479.659 715.99C479.253 717.076 478.58 717.583 477.603 717.59ZM486.35 715.14C484.471 715.146 483.201 713.724 483.201 711.585C483.201 709.433 484.471 708.018 486.35 708.018C488.222 708.018 489.479 709.433 489.473 711.585C489.479 713.724 488.222 715.146 486.35 715.14ZM484.293 711.585C484.299 712.962 484.947 714.175 486.35 714.175C487.74 714.175 488.381 712.962 488.381 711.585C488.381 710.214 487.74 708.982 486.35 708.982C484.947 708.982 484.299 710.214 484.293 711.585ZM495.262 712.169V708.106H496.341V715H495.262V713.832H495.186C494.862 714.53 494.176 715.089 493.142 715.089C491.834 715.089 490.901 714.238 490.907 712.486V708.106H491.999V712.41C491.999 713.4 492.615 714.042 493.497 714.035C494.278 714.042 495.255 713.458 495.262 712.169ZM498.093 715V708.106H499.146V709.16H499.223C499.47 708.462 500.188 707.999 501 707.992C501.165 707.999 501.444 708.005 501.571 708.018V709.122C501.489 709.103 501.197 709.046 500.911 709.046C499.921 709.046 499.185 709.731 499.185 710.658V715H498.093ZM505.9 715V705.809H506.992V711.153H507.119L510.103 708.106H511.448L508.541 711.058L511.664 715H510.28L507.722 711.75L506.992 712.429V715H505.9ZM512.616 715V708.106H513.708V715H512.616ZM512.4 706.24C512.394 705.834 512.743 705.51 513.162 705.517C513.581 705.51 513.93 705.834 513.937 706.24C513.93 706.64 513.581 706.964 513.162 706.964C512.743 706.964 512.394 706.64 512.4 706.24ZM518.05 715.14C516.33 715.146 515.117 713.762 515.117 711.572C515.117 709.389 516.33 708.018 518.062 708.018C519.402 708.018 519.821 708.83 520.056 709.198H520.132V705.809H521.236V715H520.17V713.946H520.056C519.814 714.327 519.364 715.146 518.05 715.14ZM516.222 711.547C516.222 713.013 516.895 714.162 518.202 714.162C519.465 714.162 520.164 713.096 520.17 711.547C520.164 710.017 519.484 708.995 518.202 708.995C516.875 708.995 516.222 710.106 516.222 711.547ZM526.962 709.896C526.81 709.325 526.372 708.951 525.565 708.944C524.715 708.951 524.112 709.408 524.105 709.985C524.112 710.442 524.48 710.753 525.286 710.95L526.314 711.204C527.546 711.496 528.149 712.112 528.155 713.07C528.149 714.264 527.178 715.146 525.451 715.14C523.902 715.146 522.982 714.454 522.798 713.197H523.94C524.067 713.87 524.556 714.194 525.426 714.188C526.41 714.194 527.025 713.781 527.025 713.134C527.025 712.645 526.676 712.328 525.896 712.144L524.854 711.902C523.655 711.623 523.014 710.969 523.014 710.049C523.014 708.868 524.048 708.018 525.565 708.018C526.994 708.018 527.889 708.779 528.028 709.896H526.962ZM530.961 712.347C530.974 710.646 531.494 710.125 532.37 709.592C532.897 709.274 533.297 708.767 533.297 708.056C533.297 707.192 532.624 706.64 531.786 706.646C531.062 706.64 530.333 707.072 530.263 708.119H529.107C529.171 706.577 530.333 705.682 531.786 705.682C533.379 705.682 534.414 706.704 534.414 708.106C534.414 709.103 533.944 709.795 533.157 710.277C532.364 710.76 532.078 711.249 532.053 712.347V712.41H530.961V712.347ZM530.732 714.251C530.72 713.807 531.101 713.438 531.545 713.438C531.996 713.438 532.364 713.807 532.357 714.251C532.364 714.702 531.996 715.07 531.545 715.076C531.101 715.07 530.72 714.702 530.732 714.251Z" fill="#292E34"/>
</g>
<circle cx="186" cy="753" r="2" fill="#00A3FF"/>
<circle cx="200" cy="753" r="2" fill="#D9D9D9"/>
<circle cx="214" cy="753" r="2" fill="#D9D9D9"/>
<circle cx="228" cy="753" r="2" fill="#D9D9D9"/>
<circle cx="242" cy="753" r="2" fill="#D9D9D9"/>
<rect width="390" height="103" transform="translate(19 764)" fill="white"/>
<path d="M55.6822 795.399V806.548H68.3185V795.399M52.709 797.629L62.0004 789.452L71.2918 797.629" stroke="#D2D6D8" stroke-width="1.85828" stroke-linecap="round" stroke-linejoin="round"/>
<path d="M44.0117 828V818.102H45.5156V822.395H50.4375V818.102H51.9414V828H50.4375V823.68H45.5156V828H44.0117ZM56.9863 828.15C54.8809 828.15 53.5068 826.619 53.5137 824.322C53.5068 822.012 54.8809 820.48 56.9863 820.48C59.0781 820.48 60.4453 822.012 60.4453 824.322C60.4453 826.619 59.0781 828.15 56.9863 828.15ZM54.9766 824.322C54.9766 825.737 55.626 826.934 56.9863 826.934C58.3262 826.934 58.9688 825.737 58.9688 824.322C58.9688 822.9 58.3262 821.69 56.9863 821.684C55.626 821.69 54.9766 822.9 54.9766 824.322ZM61.8809 828V820.576H63.2891V821.793H63.3711C63.6855 820.966 64.417 820.48 65.3945 820.48C66.3857 820.48 67.0762 820.966 67.3906 821.793H67.4727C67.8213 820.993 68.6279 820.48 69.7012 820.48C71.041 820.48 71.9912 821.321 71.998 823.023V828H70.5352V823.16C70.5352 822.155 69.9062 821.738 69.1406 821.738C68.2041 821.738 67.6641 822.381 67.6641 823.27V828H66.2148V823.078C66.2148 822.265 65.6611 821.738 64.8613 821.738C64.041 821.738 63.3438 822.422 63.3438 823.42V828H61.8809ZM76.9609 828.15C74.7734 828.15 73.4268 826.64 73.4336 824.336C73.4268 822.053 74.7939 820.48 76.8652 820.48C78.5537 820.48 80.1602 821.526 80.1602 824.213V824.732H74.8828C74.9238 826.147 75.7578 826.947 76.9746 826.947C77.8018 826.947 78.3418 826.592 78.5879 826.141H80.0645C79.7363 827.344 78.5947 828.15 76.9609 828.15ZM74.8896 823.639H78.7246C78.7246 822.511 77.9932 821.677 76.8789 821.684C75.71 821.677 74.9512 822.593 74.8896 823.639Z" fill="#D2D6D8"/>
<mask id="path-31-inside-1_286_1384" fill="white">
<rect x="124.5" y="787.167" width="20" height="21.6667" rx="2.08333"/>
</mask>
<rect x="124.5" y="787.167" width="20" height="21.6667" rx="2.08333" stroke="#292E34" stroke-width="5" mask="url(#path-31-inside-1_286_1384)"/>
<rect x="129.5" y="792.375" width="10" height="2.08333" rx="1.04167" fill="#292E34"/>
<rect x="129.5" y="796.958" width="10" height="2.08333" rx="1.04167" fill="#292E34"/>
<rect x="129.5" y="801.542" width="10" height="2.08333" rx="1.04167" fill="#292E34"/>
<path d="M97.5117 828V818.102H103.719V819.4H99.0156V822.395H103.391V823.68H99.0156V826.701H103.773V828H97.5117ZM106.904 823.598V828H105.441V820.576H106.85V821.793H106.932C107.28 820.993 108.012 820.48 109.119 820.48C110.644 820.48 111.655 821.444 111.648 823.283V828H110.199V823.461C110.192 822.381 109.611 821.738 108.627 821.738C107.622 821.738 106.904 822.415 106.904 823.598ZM116.201 828.15C114.41 828.144 113.098 826.701 113.098 824.309C113.098 821.889 114.431 820.48 116.215 820.48C117.596 820.48 118.095 821.314 118.361 821.779H118.43V818.102H119.893V828H118.471V826.838H118.361C118.088 827.323 117.555 828.144 116.201 828.15ZM114.588 824.281C114.581 825.771 115.251 826.899 116.529 826.906C117.773 826.899 118.471 825.84 118.471 824.281C118.471 822.736 117.787 821.718 116.529 821.725C115.237 821.718 114.581 822.818 114.588 824.281ZM121.793 828V820.576H123.256V828H121.793ZM121.602 818.566C121.608 818.088 122.025 817.705 122.531 817.705C123.03 817.705 123.447 818.088 123.447 818.566C123.447 819.045 123.03 819.435 122.531 819.428C122.025 819.435 121.608 819.045 121.602 818.566ZM126.496 823.598V828H125.033V820.576H126.441V821.793H126.523C126.872 820.993 127.604 820.48 128.711 820.48C130.235 820.48 131.247 821.444 131.24 823.283V828H129.791V823.461C129.784 822.381 129.203 821.738 128.219 821.738C127.214 821.738 126.496 822.415 126.496 823.598ZM136.135 830.939C134.262 830.939 133.024 830.112 132.895 828.725H134.385C134.528 829.429 135.185 829.771 136.148 829.764C137.311 829.771 138.042 829.265 138.049 828.109V826.646H137.953C137.693 827.125 137.16 827.891 135.793 827.891C134.043 827.891 132.689 826.585 132.689 824.213C132.689 821.841 134.022 820.48 135.807 820.48C137.188 820.48 137.693 821.314 137.967 821.779H138.062V820.576H139.484V828.164C139.491 830.071 138.049 830.939 136.135 830.939ZM134.18 824.24C134.173 825.696 134.843 826.681 136.121 826.688C137.365 826.681 138.062 825.771 138.062 824.24C138.062 822.736 137.379 821.718 136.121 821.725C134.829 821.718 134.173 822.818 134.18 824.24ZM146.143 823.598V828H144.68V820.576H146.088V821.793H146.17C146.519 820.993 147.25 820.48 148.357 820.48C149.882 820.48 150.894 821.444 150.887 823.283V828H149.438V823.461C149.431 822.381 148.85 821.738 147.865 821.738C146.86 821.738 146.143 822.415 146.143 823.598ZM155.809 828.15C153.703 828.15 152.329 826.619 152.336 824.322C152.329 822.012 153.703 820.48 155.809 820.48C157.9 820.48 159.268 822.012 159.268 824.322C159.268 826.619 157.9 828.15 155.809 828.15ZM153.799 824.322C153.799 825.737 154.448 826.934 155.809 826.934C157.148 826.934 157.791 825.737 157.791 824.322C157.791 822.9 157.148 821.69 155.809 821.684C154.448 821.69 153.799 822.9 153.799 824.322ZM164.176 820.576V821.738H162.658V825.812C162.665 826.653 163.075 826.804 163.547 826.811C163.759 826.811 164.08 826.79 164.285 826.77V828.041C164.087 828.068 163.772 828.096 163.369 828.096C162.228 828.096 161.195 827.467 161.209 826.113V821.738H160.115V820.576H161.209V818.799H162.658V820.576H164.176ZM168.715 828.15C166.527 828.15 165.181 826.64 165.188 824.336C165.181 822.053 166.548 820.48 168.619 820.48C170.308 820.48 171.914 821.526 171.914 824.213V824.732H166.637C166.678 826.147 167.512 826.947 168.729 826.947C169.556 826.947 170.096 826.592 170.342 826.141H171.818C171.49 827.344 170.349 828.15 168.715 828.15ZM166.644 823.639H170.479C170.479 822.511 169.747 821.677 168.633 821.684C167.464 821.677 166.705 822.593 166.644 823.639Z" fill="#292E34"/>
<path d="M232.502 803.843C231.942 803.843 231.522 803.636 231.242 803.222C230.962 802.808 230.772 802.198 230.671 801.392C230.582 800.575 230.537 799.439 230.537 797.984C230.537 796.584 230.571 795.493 230.638 794.71C230.716 793.926 230.895 793.299 231.175 792.829C231.466 792.359 231.914 792.124 232.518 792.124C233.123 792.124 233.565 792.359 233.845 792.829C234.136 793.299 234.315 793.926 234.382 794.71C234.46 795.493 234.499 796.584 234.499 797.984C234.499 799.36 234.438 800.474 234.315 801.325C234.203 802.164 234.001 802.796 233.71 803.222C233.419 803.636 233.016 803.843 232.502 803.843Z" fill="#D2D6D8"/>
<path d="M227.698 803.843C227.138 803.843 226.718 803.636 226.439 803.222C226.159 802.808 225.968 802.198 225.868 801.392C225.778 800.575 225.733 799.439 225.733 797.984C225.733 796.584 225.767 795.493 225.834 794.71C225.912 793.926 226.092 793.299 226.371 792.829C226.662 792.359 227.11 792.124 227.715 792.124C228.319 792.124 228.761 792.359 229.041 792.829C229.332 793.299 229.511 793.926 229.578 794.71C229.657 795.493 229.696 796.584 229.696 797.984C229.696 799.36 229.634 800.474 229.511 801.325C229.399 802.164 229.198 802.796 228.907 803.222C228.616 803.636 228.213 803.843 227.698 803.843Z" fill="#D2D6D8"/>
<path d="M221.389 803.877C220.561 803.877 219.828 803.715 219.19 803.39C218.552 803.066 218.053 802.613 217.695 802.031C217.348 801.437 217.175 800.771 217.175 800.033C217.175 799.305 217.348 798.633 217.695 798.018C218.053 797.402 218.546 796.91 219.173 796.54C219.8 796.171 220.51 795.986 221.305 795.986C222.021 795.986 222.654 796.132 223.202 796.423C223.751 796.714 224.171 797.1 224.462 797.581C224.753 798.051 224.898 798.544 224.898 799.059C224.898 799.898 224.579 800.514 223.941 800.906C223.314 801.286 222.564 801.476 221.691 801.476C221.109 801.476 220.617 801.404 220.214 801.258C220.55 801.807 221.104 802.081 221.876 802.081C222.189 802.081 222.525 802.042 222.883 801.963C223.018 801.93 223.146 801.913 223.269 801.913C223.516 801.913 223.712 801.975 223.857 802.098C224.014 802.221 224.092 802.389 224.092 802.601C224.092 802.948 223.88 803.251 223.454 803.508C223.029 803.754 222.34 803.877 221.389 803.877ZM220.264 799.21C220.365 799.367 220.499 799.484 220.667 799.562C220.846 799.63 221.042 799.663 221.255 799.663C221.501 799.663 221.714 799.607 221.893 799.495C222.083 799.383 222.178 799.238 222.178 799.059C222.178 798.857 222.094 798.684 221.926 798.538C221.77 798.393 221.54 798.32 221.238 798.32C220.936 798.32 220.695 798.415 220.516 798.605C220.348 798.785 220.264 798.986 220.264 799.21Z" fill="#D2D6D8"/>
<path d="M206.916 803.877C206.02 803.877 205.237 803.631 204.565 803.138C203.905 802.646 203.395 801.946 203.037 801.04C202.679 800.133 202.5 799.064 202.5 797.833C202.5 797.116 202.618 796.35 202.853 795.533C203.099 794.716 203.446 794.027 203.894 793.468C204.352 792.897 204.884 792.611 205.489 792.611C205.981 792.611 206.39 792.79 206.714 793.149C207.039 793.507 207.201 793.949 207.201 794.475C207.201 794.632 207.162 794.844 207.084 795.113C207.016 795.37 206.938 795.639 206.849 795.919C206.681 796.4 206.552 796.825 206.462 797.195C206.373 797.553 206.328 797.9 206.328 798.236C206.328 798.728 206.401 799.086 206.546 799.31C206.692 799.534 206.871 799.646 207.084 799.646C207.363 799.646 207.559 799.506 207.671 799.226C207.794 798.935 207.856 798.404 207.856 797.631L207.839 796.473C207.839 795.577 207.957 794.867 208.192 794.341C208.427 793.803 208.897 793.535 209.602 793.535C210.128 793.535 210.526 793.68 210.794 793.971C211.063 794.262 211.236 794.632 211.315 795.079C211.393 795.516 211.432 796.048 211.432 796.674V797.531C211.432 798.348 211.499 798.93 211.634 799.277C211.779 799.612 212.009 799.78 212.322 799.78C212.535 799.78 212.697 799.674 212.809 799.461C212.932 799.238 212.994 798.907 212.994 798.471C212.994 798.146 212.954 797.822 212.876 797.497C212.798 797.172 212.675 796.758 212.507 796.255C212.361 795.773 212.255 795.415 212.188 795.18C212.132 794.934 212.104 794.699 212.104 794.475C212.104 793.949 212.272 793.512 212.607 793.165C212.954 792.818 213.357 792.645 213.816 792.645C214.477 792.645 215.031 792.925 215.478 793.484C215.937 794.033 216.279 794.71 216.503 795.516C216.727 796.322 216.838 797.094 216.838 797.833C216.838 799.064 216.659 800.133 216.301 801.04C215.943 801.946 215.428 802.646 214.757 803.138C214.096 803.62 213.318 803.86 212.423 803.86C211.93 803.86 211.449 803.748 210.979 803.524C210.509 803.301 210.072 802.965 209.669 802.517C209.266 802.965 208.824 803.306 208.343 803.541C207.873 803.765 207.397 803.877 206.916 803.877Z" fill="#D2D6D8"/>
<path d="M190.792 827L188.241 817.809H189.713L191.503 824.918H191.58L193.446 817.809H194.893L196.759 824.918H196.835L198.625 817.809H200.098L197.546 827H196.137L194.208 820.132H194.131L192.202 827H190.792ZM203.412 827.14C201.38 827.14 200.13 825.737 200.136 823.598C200.13 821.478 201.399 820.018 203.323 820.018C204.891 820.018 206.382 820.989 206.382 823.483V823.966H201.482C201.52 825.28 202.294 826.022 203.424 826.022C204.192 826.022 204.694 825.692 204.922 825.273H206.293C205.989 826.391 204.929 827.14 203.412 827.14ZM201.488 822.95H205.049C205.049 821.903 204.37 821.128 203.335 821.135C202.25 821.128 201.545 821.979 201.488 822.95ZM209.086 817.809V827H207.728V817.809H209.086ZM212.095 817.809V827H210.737V817.809H212.095ZM219.497 827.14C217.833 827.133 216.615 825.794 216.615 823.572C216.615 821.325 217.853 820.018 219.509 820.018C220.792 820.018 221.255 820.792 221.502 821.224H221.566V817.809H222.924V827H221.604V825.921H221.502C221.249 826.372 220.753 827.133 219.497 827.14ZM217.999 823.547C217.992 824.931 218.614 825.978 219.801 825.984C220.957 825.978 221.604 824.994 221.604 823.547C221.604 822.112 220.969 821.167 219.801 821.173C218.602 821.167 217.992 822.188 217.999 823.547ZM225.527 829.59C225.248 829.583 224.975 829.577 224.803 829.552V828.422C224.956 828.435 225.222 828.441 225.413 828.447C225.832 828.441 226.181 828.416 226.504 827.546L226.669 827.089L224.143 820.106H225.59L227.33 825.451H227.406L229.145 820.106H230.605L227.761 827.914C227.361 829.006 226.663 829.583 225.527 829.59ZM231.709 827V820.106H233.068V827H231.709ZM231.532 818.24C231.538 817.796 231.925 817.44 232.395 817.44C232.858 817.44 233.246 817.796 233.246 818.24C233.246 818.685 232.858 819.046 232.395 819.04C231.925 819.046 231.538 818.685 231.532 818.24ZM236.077 822.912V827H234.718V820.106H236.026V821.236H236.102C236.426 820.494 237.105 820.018 238.133 820.018C239.549 820.018 240.488 820.913 240.482 822.62V827H239.136V822.785C239.13 821.782 238.59 821.186 237.676 821.186C236.743 821.186 236.077 821.814 236.077 822.912ZM245.027 829.729C243.288 829.729 242.139 828.961 242.018 827.673H243.402C243.535 828.327 244.145 828.644 245.04 828.638C246.119 828.644 246.798 828.174 246.804 827.102V825.743H246.715C246.474 826.188 245.979 826.898 244.709 826.898C243.084 826.898 241.828 825.686 241.828 823.483C241.828 821.281 243.065 820.018 244.722 820.018C246.004 820.018 246.474 820.792 246.728 821.224H246.817V820.106H248.137V827.152C248.144 828.923 246.804 829.729 245.027 829.729ZM243.211 823.509C243.205 824.861 243.827 825.775 245.014 825.781C246.169 825.775 246.817 824.931 246.817 823.509C246.817 822.112 246.182 821.167 245.014 821.173C243.814 821.167 243.205 822.188 243.211 823.509Z" fill="#D2D6D8"/>
<path d="M307.072 795.484C305.837 792.227 302.691 789.911 299.005 789.911C295.319 789.911 292.173 792.224 290.938 795.481C288.628 796.088 286.921 798.191 286.921 800.696C286.921 803.675 289.334 806.088 292.311 806.088H305.689C308.665 806.088 311.079 803.675 311.079 800.696C311.079 798.196 309.377 796.093 307.072 795.484ZM308.051 803.06C307.741 803.372 307.373 803.618 306.968 803.786C306.562 803.954 306.128 804.04 305.689 804.039H292.311C291.418 804.039 290.58 803.691 289.949 803.06C289.637 802.75 289.391 802.382 289.223 801.976C289.055 801.57 288.969 801.135 288.97 800.696C288.97 799.941 289.215 799.232 289.676 798.639C290.128 798.064 290.753 797.651 291.459 797.46L292.48 797.193L292.855 796.207C293.087 795.592 293.411 795.018 293.818 794.497C294.22 793.982 294.696 793.528 295.23 793.152C296.339 792.373 297.644 791.96 299.005 791.96C300.367 791.96 301.672 792.373 302.78 793.152C303.316 793.529 303.791 793.982 304.193 794.497C304.6 795.018 304.923 795.595 305.155 796.207L305.527 797.191L306.546 797.46C308.01 797.851 309.029 799.181 309.029 800.696C309.029 801.588 308.682 802.429 308.051 803.06Z" fill="#D2D6D8"/>
<path d="M271.66 820.805C271.438 819.618 270.454 818.958 269.286 818.964C267.699 818.958 266.525 820.176 266.519 822.404C266.525 824.645 267.706 825.851 269.286 825.845C270.441 825.851 271.419 825.204 271.66 824.029L273.069 824.042C272.777 825.857 271.298 827.127 269.273 827.127C266.88 827.127 265.135 825.343 265.135 822.404C265.135 819.465 266.893 817.682 269.273 817.682C271.216 817.682 272.758 818.831 273.069 820.805H271.66ZM277.386 827.14C275.431 827.14 274.155 825.718 274.161 823.585C274.155 821.439 275.431 820.018 277.386 820.018C279.328 820.018 280.598 821.439 280.598 823.585C280.598 825.718 279.328 827.14 277.386 827.14ZM275.52 823.585C275.52 824.899 276.123 826.01 277.386 826.01C278.63 826.01 279.227 824.899 279.227 823.585C279.227 822.265 278.63 821.141 277.386 821.135C276.123 821.141 275.52 822.265 275.52 823.585ZM281.931 827V820.106H283.238V821.236H283.314C283.606 820.468 284.286 820.018 285.193 820.018C286.114 820.018 286.755 820.468 287.047 821.236H287.123C287.447 820.494 288.196 820.018 289.192 820.018C290.437 820.018 291.319 820.798 291.325 822.379V827H289.967V822.506C289.967 821.573 289.383 821.186 288.672 821.186C287.802 821.186 287.301 821.782 287.301 822.607V827H285.955V822.43C285.955 821.674 285.441 821.186 284.698 821.186C283.937 821.186 283.289 821.82 283.289 822.747V827H281.931ZM292.963 827V820.106H294.271V821.236H294.347C294.639 820.468 295.318 820.018 296.226 820.018C297.146 820.018 297.787 820.468 298.079 821.236H298.155C298.479 820.494 299.228 820.018 300.225 820.018C301.469 820.018 302.351 820.798 302.357 822.379V827H300.999V822.506C300.999 821.573 300.415 821.186 299.704 821.186C298.834 821.186 298.333 821.782 298.333 822.607V827H296.987V822.43C296.987 821.674 296.473 821.186 295.73 821.186C294.969 821.186 294.321 821.82 294.321 822.747V827H292.963ZM308.375 824.131V820.106H309.721V827H308.4V825.807H308.324C308.007 826.543 307.302 827.089 306.268 827.089C304.935 827.089 303.995 826.194 303.995 824.486V820.106H305.354V824.321C305.354 825.261 305.925 825.857 306.75 825.857C307.505 825.857 308.375 825.305 308.375 824.131ZM312.729 822.912V827H311.371V820.106H312.679V821.236H312.755C313.079 820.494 313.758 820.018 314.786 820.018C316.202 820.018 317.141 820.913 317.135 822.62V827H315.789V822.785C315.783 821.782 315.243 821.186 314.329 821.186C313.396 821.186 312.729 821.814 312.729 822.912ZM318.785 827V820.106H320.144V827H318.785ZM318.607 818.24C318.614 817.796 319.001 817.44 319.471 817.44C319.934 817.44 320.321 817.796 320.321 818.24C320.321 818.685 319.934 819.046 319.471 819.04C319.001 819.046 318.614 818.685 318.607 818.24ZM325.019 820.106V821.186H323.609V824.969C323.616 825.75 323.997 825.889 324.435 825.896C324.631 825.896 324.93 825.876 325.12 825.857V827.038C324.936 827.063 324.644 827.089 324.27 827.089C323.209 827.089 322.251 826.505 322.264 825.248V821.186H321.248V820.106H322.264V818.456H323.609V820.106H325.019ZM327.177 829.59C326.897 829.583 326.625 829.577 326.453 829.552V828.422C326.605 828.435 326.872 828.441 327.062 828.447C327.481 828.441 327.831 828.416 328.154 827.546L328.319 827.089L325.793 820.106H327.24L328.979 825.451H329.056L330.795 820.106H332.255L329.411 827.914C329.011 829.006 328.313 829.583 327.177 829.59Z" fill="#D2D6D8"/>
<path d="M359.853 800.144C359.284 800.144 358.739 799.918 358.337 799.516C357.935 799.114 357.709 798.568 357.709 798C357.709 797.431 357.935 796.886 358.337 796.483C358.739 796.081 359.284 795.855 359.853 795.855C360.422 795.855 360.967 796.081 361.369 796.483C361.771 796.886 361.997 797.431 361.997 798C361.997 798.568 361.771 799.114 361.369 799.516C360.967 799.918 360.422 800.144 359.853 800.144ZM367 800.144C366.432 800.144 365.886 799.918 365.484 799.516C365.082 799.114 364.856 798.568 364.856 798C364.856 797.431 365.082 796.886 365.484 796.483C365.886 796.081 366.432 795.855 367 795.855C367.569 795.855 368.114 796.081 368.517 796.483C368.919 796.886 369.145 797.431 369.145 798C369.145 798.568 368.919 799.114 368.517 799.516C368.114 799.918 367.569 800.144 367 800.144ZM374.148 800.144C373.579 800.144 373.034 799.918 372.631 799.516C372.229 799.114 372.003 798.568 372.003 798C372.003 797.431 372.229 796.886 372.631 796.483C373.034 796.081 373.579 795.855 374.148 795.855C374.716 795.855 375.262 796.081 375.664 796.483C376.066 796.886 376.292 797.431 376.292 798C376.292 798.568 376.066 799.114 375.664 799.516C375.262 799.918 374.716 800.144 374.148 800.144Z" fill="#D2D6D8"/>
<path d="M358.925 822.404C358.925 825.343 357.16 827.127 354.786 827.127C352.393 827.127 350.635 825.337 350.635 822.404C350.635 819.465 352.393 817.682 354.786 817.682C357.16 817.682 358.925 819.465 358.925 822.404ZM352.019 822.404C352.025 824.639 353.199 825.851 354.786 825.845C356.36 825.851 357.535 824.639 357.541 822.404C357.535 820.17 356.36 818.958 354.786 818.964C353.199 818.958 352.025 820.17 352.019 822.404ZM363.609 820.106V821.186H362.2V824.969C362.207 825.75 362.587 825.889 363.025 825.896C363.222 825.896 363.521 825.876 363.711 825.857V827.038C363.527 827.063 363.235 827.089 362.86 827.089C361.8 827.089 360.842 826.505 360.854 825.248V821.186H359.839V820.106H360.854V818.456H362.2V820.106H363.609ZM366.44 822.912V827H365.082V817.809H366.415V821.236H366.504C366.828 820.487 367.475 820.018 368.548 820.018C369.963 820.018 370.909 820.894 370.909 822.62V827H369.551V822.785C369.551 821.77 369.005 821.186 368.091 821.186C367.132 821.186 366.44 821.814 366.44 822.912ZM375.518 827.14C373.486 827.14 372.236 825.737 372.242 823.598C372.236 821.478 373.505 820.018 375.429 820.018C376.997 820.018 378.488 820.989 378.488 823.483V823.966H373.588C373.626 825.28 374.4 826.022 375.53 826.022C376.298 826.022 376.8 825.692 377.028 825.273H378.399C378.095 826.391 377.035 827.14 375.518 827.14ZM373.594 822.95H377.155C377.155 821.903 376.476 821.128 375.441 821.135C374.356 821.128 373.651 821.979 373.594 822.95ZM379.834 827V820.106H381.142V821.198H381.218C381.472 820.462 382.164 819.999 382.97 820.005C383.135 819.999 383.401 820.018 383.541 820.03V821.325C383.427 821.3 383.109 821.243 382.83 821.249C381.891 821.243 381.192 821.896 381.192 822.798V827H379.834Z" fill="#D2D6D8"/>
<path d="M71.1963 50.8145C73.4043 50.8311 75.7202 52.1592 75.7285 56.5586C75.7285 60.7754 73.9106 63.166 71.0303 63.166C68.814 63.166 67.27 61.7964 66.9795 59.8457H68.7891C69.0381 60.8584 69.8184 61.564 71.0303 61.5723C72.8813 61.564 73.9688 59.9536 73.9854 57.2061H73.8359C73.1885 58.2188 72.0596 58.833 70.7646 58.833C68.6064 58.833 66.8799 57.1812 66.8799 54.8818C66.8799 52.5908 68.5815 50.7979 71.1963 50.8145ZM68.6562 54.8486C68.6646 56.2432 69.7021 57.3472 71.1631 57.3389C72.6157 57.3472 73.7363 56.1602 73.7363 54.832C73.7363 53.5288 72.6655 52.3418 71.1963 52.3418C69.7437 52.3418 68.6479 53.4707 68.6562 54.8486ZM78.153 61.4561C77.5055 61.4478 76.966 60.9248 76.9743 60.2773C76.966 59.6299 77.5055 59.0986 78.153 59.0986C78.7922 59.0986 79.3234 59.6299 79.3317 60.2773C79.3234 60.9248 78.7922 61.4478 78.153 61.4561ZM76.9743 53.7197C76.966 53.0723 77.5055 52.541 78.153 52.541C78.7922 52.541 79.3234 53.0723 79.3317 53.7197C79.3234 54.3672 78.7922 54.8901 78.153 54.8984C77.5055 54.8901 76.966 54.3672 76.9743 53.7197ZM80.5111 60.6592V59.1816L85.8236 50.9805H88.0814V59.1152H89.725V60.6592H88.0814V63H86.3548V60.6592H80.5111ZM82.4369 59.1152H86.3548V53.1553H86.222L82.4369 59.0156V59.1152ZM95.2871 50.9805V63H93.4444V52.8066H93.378L90.5059 54.6826V52.9395L93.4942 50.9805H95.2871Z" fill="black"/>
<rect x="325.35" y="50" width="3.2" height="12" rx="1" fill="black"/>
<rect x="320.05" y="52.4004" width="3.2" height="9.6" rx="1" fill="black"/>
<rect x="314.75" y="55" width="3.2" height="7" rx="1" fill="black"/>
<rect x="309.45" y="57.4004" width="3.2" height="4.6" rx="1" fill="black"/>
<path d="M343.008 58.1338C343.711 58.1338 344.395 58.3186 344.997 58.6711L345.241 58.8139C345.426 58.9222 345.458 59.1756 345.307 59.3268L343.223 61.4045C343.095 61.5322 342.888 61.5322 342.76 61.4045L340.69 59.3402C340.539 59.1896 340.57 58.9375 340.754 58.8284L340.995 58.685C341.603 58.3236 342.295 58.1338 343.008 58.1338Z" fill="black"/>
<path d="M343.008 54.3164C344.758 54.3164 346.438 54.8969 347.806 55.972L348 56.1239C348.154 56.245 348.168 56.4733 348.029 56.6117L346.785 57.8521C346.67 57.9668 346.488 57.98 346.357 57.8831L346.206 57.7704C345.281 57.0833 344.167 56.7148 343.008 56.7148C341.841 56.7148 340.72 57.0879 339.793 57.7828L339.641 57.8966C339.511 57.9943 339.328 57.9814 339.212 57.8664L337.969 56.6264C337.831 56.4883 337.844 56.2606 337.997 56.1393L338.19 55.9872C339.561 54.9026 341.249 54.3164 343.008 54.3164Z" fill="black"/>
<path d="M343.008 50.5C345.785 50.5 348.441 51.4796 350.543 53.2752L350.723 53.4285C350.868 53.5524 350.876 53.7731 350.741 53.9078L349.501 55.1441C349.381 55.2639 349.189 55.2723 349.059 55.1635L348.906 55.0351C347.25 53.6512 345.176 52.8984 343.008 52.8984C340.833 52.8984 338.752 53.6564 337.094 55.049L336.941 55.178C336.81 55.2873 336.618 55.2791 336.498 55.1591L335.258 53.9229C335.123 53.7885 335.132 53.5681 335.276 53.4441L335.455 53.2908C337.56 51.4855 340.223 50.5 343.008 50.5Z" fill="black"/>
<rect x="359" y="51.5" width="21" height="9" rx="1.33" fill="black"/>
<path opacity="0.4" fill-rule="evenodd" clip-rule="evenodd" d="M362.6 50.5H376.4C377.397 50.5 378.084 50.5008 378.617 50.5444C379.139 50.587 379.425 50.6655 379.635 50.7725C380.105 51.0122 380.488 51.3946 380.728 51.865C380.834 52.0749 380.913 52.3608 380.956 52.8826C380.999 53.4161 381 54.1034 381 55.1V56.9C381 57.8966 380.999 58.5839 380.956 59.1174C380.913 59.6392 380.834 59.9251 380.728 60.135C380.488 60.6054 380.105 60.9878 379.635 61.2275C379.425 61.3345 379.139 61.413 378.617 61.4556C378.084 61.4992 377.397 61.5 376.4 61.5H362.6C361.603 61.5 360.916 61.4992 360.383 61.4556C359.861 61.413 359.575 61.3345 359.365 61.2275C358.895 60.9878 358.512 60.6054 358.272 60.135C358.166 59.9251 358.087 59.6392 358.044 59.1174C358.001 58.5839 358 57.8966 358 56.9V55.1C358 54.1034 358.001 53.4161 358.044 52.8826C358.087 52.3608 358.166 52.0749 358.272 51.865C358.512 51.3946 358.895 51.0122 359.365 50.7725C359.575 50.6655 359.861 50.587 360.383 50.5444C360.916 50.5008 361.603 50.5 362.6 50.5ZM357 55.1C357 53.1398 357 52.1597 357.381 51.411C357.717 50.7525 358.252 50.217 358.911 49.8815C359.66 49.5 360.64 49.5 362.6 49.5H376.4C378.36 49.5 379.34 49.5 380.089 49.8815C380.748 50.217 381.283 50.7525 381.619 51.411C382 52.1597 382 53.1398 382 55.1V56.9C382 58.8602 382 59.8403 381.619 60.589C381.283 61.2475 380.748 61.783 380.089 62.1185C379.34 62.5 378.36 62.5 376.4 62.5H362.6C360.64 62.5 359.66 62.5 358.911 62.1185C358.252 61.783 357.717 61.2475 357.381 60.589C357 59.8403 357 58.8602 357 56.9V55.1ZM383 58C383.828 57.8 384.5 57.1046 384.5 56C384.5 54.8954 383.828 54.2 383 54L383 56L383 58Z" fill="black"/>
<rect x="177" y="47" width="74" height="20" rx="10" fill="black"/>
<rect x="144" y="848" width="140" height="6" rx="3" fill="black"/>
</g>
<rect x="13" y="13" width="402" height="856" rx="66" stroke="black" stroke-width="12"/>
<defs>
<filter id="filter0_i_286_1384" x="138" y="412" width="8" height="48" filterUnits="userSpaceOnUse" color-interpolation-filters="sRGB">
<feFlood flood-opacity="0" result="BackgroundImageFix"/>
<feBlend mode="normal" in="SourceGraphic" in2="BackgroundImageFix" result="shape"/>
<feColorMatrix in="SourceAlpha" type="matrix" values="0 0 0 0 0 0 0 0 0 0 0 0 0 0 0 0 0 0 127 0" result="hardAlpha"/>
<feOffset dy="4"/>
<feGaussianBlur stdDeviation="2"/>
<feComposite in2="hardAlpha" operator="arithmetic" k2="-1" k3="1"/>
<feColorMatrix type="matrix" values="0 0 0 0 1 0 0 0 0 1 0 0 0 0 1 0 0 0 0.7 0"/>
<feBlend mode="normal" in2="shape" result="effect1_innerShadow_286_1384"/>
</filter>
<filter id="filter1_i_286_1384" x="156" y="395" width="8" height="82" filterUnits="userSpaceOnUse" color-interpolation-filters="sRGB">
<feFlood flood-opacity="0" result="BackgroundImageFix"/>
<feBlend mode="normal" in="SourceGraphic" in2="BackgroundImageFix" result="shape"/>
<feColorMatrix in="SourceAlpha" type="matrix" values="0 0 0 0 0 0 0 0 0 0 0 0 0 0 0 0 0 0 127 0" result="hardAlpha"/>
<feOffset dy="4"/>
<feGaussianBlur stdDeviation="2"/>
<feComposite in2="hardAlpha" operator="arithmetic" k2="-1" k3="1"/>
<feColorMatrix type="matrix" values="0 0 0 0 1 0 0 0 0 1 0 0 0 0 1 0 0 0 0.7 0"/>
<feBlend mode="normal" in2="shape" result="effect1_innerShadow_286_1384"/>
</filter>
<filter id="filter2_i_286_1384" x="174" y="400.5" width="8" height="71" filterUnits="userSpaceOnUse" color-interpolation-filters="sRGB">
<feFlood flood-opacity="0" result="BackgroundImageFix"/>
<feBlend mode="normal" in="SourceGraphic" in2="BackgroundImageFix" result="shape"/>
<feColorMatrix in="SourceAlpha" type="matrix" values="0 0 0 0 0 0 0 0 0 0 0 0 0 0 0 0 0 0 127 0" result="hardAlpha"/>
<feOffset dy="4"/>
<feGaussianBlur stdDeviation="2"/>
<feComposite in2="hardAlpha" operator="arithmetic" k2="-1" k3="1"/>
<feColorMatrix type="matrix" values="0 0 0 0 1 0 0 0 0 1 0 0 0 0 1 0 0 0 0.7 0"/>
<feBlend mode="normal" in2="shape" result="effect1_innerShadow_286_1384"/>
</filter>
<filter id="filter3_i_286_1384" x="192" y="405.5" width="8" height="61" filterUnits="userSpaceOnUse" color-interpolation-filters="sRGB">
<feFlood flood-opacity="0" result="BackgroundImageFix"/>
<feBlend mode="normal" in="SourceGraphic" in2="BackgroundImageFix" result="shape"/>
<feColorMatrix in="SourceAlpha" type="matrix" values="0 0 0 0 0 0 0 0 0 0 0 0 0 0 0 0 0 0 127 0" result="hardAlpha"/>
<feOffset dy="4"/>
<feGaussianBlur stdDeviation="2"/>
<feComposite in2="hardAlpha" operator="arithmetic" k2="-1" k3="1"/>
<feColorMatrix type="matrix" values="0 0 0 0 1 0 0 0 0 1 0 0 0 0 1 0 0 0 0.7 0"/>
<feBlend mode="normal" in2="shape" result="effect1_innerShadow_286_1384"/>
</filter>
<filter id="filter4_i_286_1384" x="210" y="405.5" width="8" height="61" filterUnits="userSpaceOnUse" color-interpolation-filters="sRGB">
<feFlood flood-opacity="0" result="BackgroundImageFix"/>
<feBlend mode="normal" in="SourceGraphic" in2="BackgroundImageFix" result="shape"/>
<feColorMatrix in="SourceAlpha" type="matrix" values="0 0 0 0 0 0 0 0 0 0 0 0 0 0 0 0 0 0 127 0" result="hardAlpha"/>
<feOffset dy="4"/>
<feGaussianBlur stdDeviation="2"/>
<feComposite in2="hardAlpha" operator="arithmetic" k2="-1" k3="1"/>
<feColorMatrix type="matrix" values="0 0 0 0 1 0 0 0 0 1 0 0 0 0 1 0 0 0 0.7 0"/>
<feBlend mode="normal" in2="shape" result="effect1_innerShadow_286_1384"/>
</filter>
<filter id="filter5_i_286_1384" x="228" y="413" width="8" height="46" filterUnits="userSpaceOnUse" color-interpolation-filters="sRGB">
<feFlood flood-opacity="0" result="BackgroundImageFix"/>
<feBlend mode="normal" in="SourceGraphic" in2="BackgroundImageFix" result="shape"/>
<feColorMatrix in="SourceAlpha" type="matrix" values="0 0 0 0 0 0 0 0 0 0 0 0 0 0 0 0 0 0 127 0" result="hardAlpha"/>
<feOffset dy="4"/>
<feGaussianBlur stdDeviation="2"/>
<feComposite in2="hardAlpha" operator="arithmetic" k2="-1" k3="1"/>
<feColorMatrix type="matrix" values="0 0 0 0 1 0 0 0 0 1 0 0 0 0 1 0 0 0 0.7 0"/>
<feBlend mode="normal" in2="shape" result="effect1_innerShadow_286_1384"/>
</filter>
<filter id="filter6_i_286_1384" x="246" y="424" width="8" height="24" filterUnits="userSpaceOnUse" color-interpolation-filters="sRGB">
<feFlood flood-opacity="0" result="BackgroundImageFix"/>
<feBlend mode="normal" in="SourceGraphic" in2="BackgroundImageFix" result="shape"/>
<feColorMatrix in="SourceAlpha" type="matrix" values="0 0 0 0 0 0 0 0 0 0 0 0 0 0 0 0 0 0 127 0" result="hardAlpha"/>
<feOffset dy="4"/>
<feGaussianBlur stdDeviation="2"/>
<feComposite in2="hardAlpha" operator="arithmetic" k2="-1" k3="1"/>
<feColorMatrix type="matrix" values="0 0 0 0 1 0 0 0 0 1 0 0 0 0 1 0 0 0 0.7 0"/>
<feBlend mode="normal" in2="shape" result="effect1_innerShadow_286_1384"/>
</filter>
<filter id="filter7_i_286_1384" x="264" y="411" width="8" height="50" filterUnits="userSpaceOnUse" color-interpolation-filters="sRGB">
<feFlood flood-opacity="0" result="BackgroundImageFix"/>
<feBlend mode="normal" in="SourceGraphic" in2="BackgroundImageFix" result="shape"/>
<feColorMatrix in="SourceAlpha" type="matrix" values="0 0 0 0 0 0 0 0 0 0 0 0 0 0 0 0 0 0 127 0" result="hardAlpha"/>
<feOffset dy="4"/>
<feGaussianBlur stdDeviation="2"/>
<feComposite in2="hardAlpha" operator="arithmetic" k2="-1" k3="1"/>
<feColorMatrix type="matrix" values="0 0 0 0 1 0 0 0 0 1 0 0 0 0 1 0 0 0 0.7 0"/>
<feBlend mode="normal" in2="shape" result="effect1_innerShadow_286_1384"/>
</filter>
<filter id="filter8_i_286_1384" x="282" y="404.5" width="8" height="63" filterUnits="userSpaceOnUse" color-interpolation-filters="sRGB">
<feFlood flood-opacity="0" result="BackgroundImageFix"/>
<feBlend mode="normal" in="SourceGraphic" in2="BackgroundImageFix" result="shape"/>
<feColorMatrix in="SourceAlpha" type="matrix" values="0 0 0 0 0 0 0 0 0 0 0 0 0 0 0 0 0 0 127 0" result="hardAlpha"/>
<feOffset dy="4"/>
<feGaussianBlur stdDeviation="2"/>
<feComposite in2="hardAlpha" operator="arithmetic" k2="-1" k3="1"/>
<feColorMatrix type="matrix" values="0 0 0 0 1 0 0 0 0 1 0 0 0 0 1 0 0 0 0.7 0"/>
<feBlend mode="normal" in2="shape" result="effect1_innerShadow_286_1384"/>
</filter>
<filter id="filter9_d_286_1384" x="19" y="657" width="301" height="86" filterUnits="userSpaceOnUse" color-interpolation-filters="sRGB">
<feFlood flood-opacity="0" result="BackgroundImageFix"/>
<feColorMatrix in="SourceAlpha" type="matrix" values="0 0 0 0 0 0 0 0 0 0 0 0 0 0 0 0 0 0 127 0" result="hardAlpha"/>
<feOffset/>
<feGaussianBlur stdDeviation="6"/>
<feComposite in2="hardAlpha" operator="out"/>
<feColorMatrix type="matrix" values="0 0 0 0 0.00784314 0 0 0 0 0.635294 0 0 0 0 0.992157 0 0 0 0.25 0"/>
<feBlend mode="normal" in2="BackgroundImageFix" result="effect1_dropShadow_286_1384"/>
<feBlend mode="normal" in="SourceGraphic" in2="effect1_dropShadow_286_1384" result="shape"/>
</filter>
<filter id="filter10_d_286_1384" x="308" y="657" width="293" height="86" filterUnits="userSpaceOnUse" color-interpolation-filters="sRGB">
<feFlood flood-opacity="0" result="BackgroundImageFix"/>
<feColorMatrix in="SourceAlpha" type="matrix" values="0 0 0 0 0 0 0 0 0 0 0 0 0 0 0 0 0 0 127 0" result="hardAlpha"/>
<feOffset/>
<feGaussianBlur stdDeviation="6"/>
<feComposite in2="hardAlpha" operator="out"/>
<feColorMatrix type="matrix" values="0 0 0 0 0.00784314 0 0 0 0 0.635294 0 0 0 0 0.992157 0 0 0 0.25 0"/>
<feBlend mode="normal" in2="BackgroundImageFix" result="effect1_dropShadow_286_1384"/>
<feBlend mode="normal" in="SourceGraphic" in2="effect1_dropShadow_286_1384" result="shape"/>
</filter>
<radialGradient id="paint0_radial_286_1384" cx="0" cy="0" r="1" gradientUnits="userSpaceOnUse" gradientTransform="translate(214 434) rotate(90) scale(164)">
<stop stop-color="#64A2FF"/>
<stop offset="1" stop-color="#CFF3FF" stop-opacity="0"/>
</radialGradient>
<radialGradient id="paint1_radial_286_1384" cx="0" cy="0" r="1" gradientUnits="userSpaceOnUse" gradientTransform="translate(86 49) rotate(90) scale(49 86)">
<stop stop-color="#64A2FF"/>
<stop offset="1" stop-color="#CFF3FF" stop-opacity="0"/>
</radialGradient>
<linearGradient id="paint2_linear_286_1384" x1="142.092" y1="413.491" x2="142.092" y2="454.741" gradientUnits="userSpaceOnUse">
<stop stop-color="#A0CBFF"/>
<stop offset="1" stop-color="#0075FF"/>
</linearGradient>
<linearGradient id="paint3_linear_286_1384" x1="160.092" y1="397.644" x2="160.092" y2="470.769" gradientUnits="userSpaceOnUse">
<stop stop-color="#A0CBFF"/>
<stop offset="1" stop-color="#0075FF"/>
</linearGradient>
<linearGradient id="paint4_linear_286_1384" x1="178.092" y1="402.771" x2="178.092" y2="465.583" gradientUnits="userSpaceOnUse">
<stop stop-color="#A0CBFF"/>
<stop offset="1" stop-color="#0075FF"/>
</linearGradient>
<linearGradient id="paint5_linear_286_1384" x1="196.092" y1="407.432" x2="196.092" y2="460.87" gradientUnits="userSpaceOnUse">
<stop stop-color="#A0CBFF"/>
<stop offset="1" stop-color="#0075FF"/>
</linearGradient>
<linearGradient id="paint6_linear_286_1384" x1="214.092" y1="407.432" x2="214.092" y2="460.87" gradientUnits="userSpaceOnUse">
<stop stop-color="#A0CBFF"/>
<stop offset="1" stop-color="#0075FF"/>
</linearGradient>
<linearGradient id="paint7_linear_286_1384" x1="232.092" y1="414.424" x2="232.092" y2="453.799" gradientUnits="userSpaceOnUse">
<stop stop-color="#A0CBFF"/>
<stop offset="1" stop-color="#0075FF"/>
</linearGradient>
<linearGradient id="paint8_linear_286_1384" x1="250.092" y1="424.678" x2="250.092" y2="443.428" gradientUnits="userSpaceOnUse">
<stop stop-color="#A0CBFF"/>
<stop offset="1" stop-color="#0075FF"/>
</linearGradient>
<linearGradient id="paint9_linear_286_1384" x1="268.092" y1="412.559" x2="268.092" y2="455.684" gradientUnits="userSpaceOnUse">
<stop stop-color="#A0CBFF"/>
<stop offset="1" stop-color="#0075FF"/>
</linearGradient>
<linearGradient id="paint10_linear_286_1384" x1="286.092" y1="406.5" x2="286.092" y2="461.812" gradientUnits="userSpaceOnUse">
<stop stop-color="#A0CBFF"/>
<stop offset="1" stop-color="#0075FF"/>
</linearGradient>
<clipPath id="clip0_286_1384">
<rect x="19" y="19" width="390" height="844" rx="60" fill="white"/>
</clipPath>
</defs>
</svg>
