<svg width="122" height="126" viewBox="0 0 122 126" fill="none" xmlns="http://www.w3.org/2000/svg">
<g filter="url(#filter0_f_108_1375)">
<ellipse cx="47.7804" cy="100.653" rx="38.8604" ry="16.3565" fill="black" fill-opacity="0.4"/>
</g>
<ellipse cx="47.7558" cy="99.618" rx="38.8359" ry="12.4012" fill="url(#paint0_linear_108_1375)"/>
<path d="M79.6137 12.9608C79.6137 15.8115 65.0023 22.4414 47.1451 22.4414C29.2878 22.4414 14.8116 15.1364 14.8116 12.553C14.8116 11.5495 14.678 10.5769 15.4474 9.61316C19.2428 4.85907 32.2977 0.882812 47.1451 0.882812C61.5515 0.882812 74.3 4.42554 78.4795 8.98956C79.4805 10.0828 79.6137 11.8104 79.6137 12.9608Z" fill="url(#paint1_linear_108_1375)"/>
<ellipse cx="47.2314" cy="12.7482" rx="32.3837" ry="9.12706" fill="#4C4C4C"/>
<ellipse cx="47.4897" cy="97.2247" rx="37.8628" ry="10.5197" fill="#4D4D4D"/>
<g filter="url(#filter1_b_108_1375)">
<path fill-rule="evenodd" clip-rule="evenodd" d="M14.3027 92.283C15.8073 77.6737 21.3275 70.5783 33.4478 61.2702C33.9064 60.8735 34.8551 60.312 36.0273 59.6182C39.8302 57.3674 45.9855 53.7244 45.3904 49.7979C44.8612 46.3058 40.9999 44.1558 35.9131 41.3234C31.6468 38.9478 29.1756 38.444 23.5399 31.5622C17.9042 24.6804 19.6034 16.3163 19.6034 10.6344C19.2803 7.37297 44.9549 6.56641 46.8508 6.56641C48.9092 6.56641 75.1682 7.42897 74.8501 10.6344C74.3034 16.1449 75.7117 26.9807 70.9036 31.5622C66.1504 36.0914 62.7874 38.9468 58.5179 41.3221C53.4257 44.1551 49.561 46.3053 49.031 49.7979C48.435 53.7251 54.5954 57.3688 58.4006 59.6194C59.5726 60.3126 60.5212 60.8737 60.9801 61.2702C73.1166 70.5783 78.6442 77.6737 80.1508 92.2829C81.1613 102.081 74.6508 105.434 47.2711 105.434C19.8913 105.434 13.2949 102.068 14.3027 92.283Z" fill="#E8E8E8" fill-opacity="0.79"/>
</g>
<g style="mix-blend-mode:darken">
<path d="M69.7836 32.6518C62.3526 30.4281 45.279 31.711 37.0518 34.2768C37.73 34.9325 40.3957 37.6807 41.3865 38.6386C42.625 39.8359 60.4948 39.7504 62.7949 38.4675C64.635 37.4412 68.3682 33.9347 69.7836 32.6518Z" fill="#959595"/>
</g>
<path d="M44.0416 40.7773H50.7649C50.7649 40.7773 49.2234 46.8105 48.5532 54.3759C47.5765 65.4019 47.4093 79.6823 47.934 83.2836C48.8186 89.3559 64.0345 86.5336 63.2384 89.0994C62.4422 91.6651 32.2758 89.2704 30.8604 90.1257C44.13 86.7902 46.9505 89.0138 47.3147 83.2836C47.7099 77.0664 47.3572 64.1991 46.3416 54.3759C45.5302 46.5277 44.0416 40.7773 44.0416 40.7773Z" fill="#5A5A5A"/>
<g style="mix-blend-mode:darken">
<path d="M47.4029 52.0664C47.4029 52.0664 49.9684 47.1914 51.0299 46.2507C52.0915 45.3099 57.9302 41.8033 57.9302 41.8033L63.3265 38.2968L68.5459 33.8494C68.5459 33.8494 61.4687 39.3231 47.9337 35.1323C34.3986 30.9416 26.7383 35.1323 26.7383 35.1323C26.7383 35.1323 30.1523 38.2968 33.3371 39.8362C36.5218 41.3757 41.0335 44.2836 41.0335 44.2836L43.6874 46.4217L47.4029 52.0664Z" fill="#5A5A5A"/>
</g>
<path d="M47.5799 82.459C36.2565 92.2944 17.2366 86.3932 14.7596 92.4655C11.4864 104.525 32.2883 105.157 46.6953 105.123C62.5862 105.087 82.9656 104.354 79.9579 92.4655C78.8963 89.6431 70.4922 89.0441 61.7342 87.3337C52.9762 85.6233 47.5799 82.459 47.5799 82.459Z" fill="#5A5A5A"/>
<path d="M20.9537 11.1395C21.0245 9.83948 30.4489 8.63072 34.6657 8.06055C21.4314 12.3026 23.4307 24.4815 26.4385 29.3564C21.3076 24.7381 20.8653 12.7645 20.9537 11.1395Z" fill="url(#paint2_linear_108_1375)"/>
<path d="M73.2353 10.9488C69.8382 7.11723 48.2883 7.84135 38.4688 8.63959C55.1001 7.78433 67.5736 8.63959 70.4044 12.1461C72.6691 14.9514 70.9352 24.1482 69.7852 28.396C74.0315 21.075 74.2084 13.6856 73.2353 10.9488Z" fill="url(#paint3_linear_108_1375)"/>
<g style="mix-blend-mode:darken">
<mask id="mask0_108_1375" style="mask-type:alpha" maskUnits="userSpaceOnUse" x="10" y="89" width="112" height="32">
<path d="M25.2555 97.1052C17.9158 96.1197 12.428 91.3562 10.6016 89.0977L12.1307 120.881L115.601 117.678L121.08 90.6992C119.508 89.7547 115.932 88.7034 114.199 92.0543C112.033 96.2428 95.2124 98.3371 86.5474 99.3227C77.8825 100.308 66.0318 97.1052 60.8074 94.1486C55.5829 91.1919 34.4302 98.3371 25.2555 97.1052Z" fill="white"/>
</mask>
<g mask="url(#mask0_108_1375)">
<g style="mix-blend-mode:darken">
<path d="M47.5809 82.7812C36.2574 92.6167 17.2376 86.7154 14.7606 92.7878C11.4874 104.847 32.2892 105.479 46.6962 105.446C62.5872 105.409 82.9666 104.676 79.9588 92.7878C78.8973 89.9654 70.4932 89.3663 61.7352 87.656C52.9772 85.9456 47.5809 82.7812 47.5809 82.7812Z" fill="#424242"/>
</g>
</g>
</g>
<ellipse cx="27.816" cy="33.8336" rx="0.937792" ry="1.50047" transform="rotate(-35.9661 27.816 33.8336)" fill="white"/>
<path d="M42.8917 58.4805C38.3505 60.7326 28.7374 66.3488 26.6143 70.7962C27.6169 69.7128 32.276 65.733 42.8917 58.4805Z" fill="white" fill-opacity="0.7"/>
<g style="mix-blend-mode:color-dodge">
<path d="M67.6251 74.4566C75.6901 88.8986 68.8152 96.2309 66.81 101.477C74.7365 101.477 78.4284 98.2265 79.2835 96.6015C79.2835 92.2747 78.3104 88.4766 74.418 79.8385C70.9997 72.2527 67.8716 66.6781 51.6826 57.0137C64.249 66.5792 62.8034 65.8224 67.6251 74.4566Z" fill="url(#paint4_linear_108_1375)"/>
</g>
<ellipse cx="1.28252" cy="2.7941" rx="1.28252" ry="2.7941" transform="matrix(0.885992 0.463701 -0.4921 0.870539 24.0479 71.4551)" fill="white"/>
<path fill-rule="evenodd" clip-rule="evenodd" d="M17.3954 11.3944C18.1777 11.4339 18.7799 12.1002 18.7404 12.8825L14.4941 96.9543C14.4545 97.7366 13.7883 98.3387 13.006 98.2992C12.2237 98.2597 11.6215 97.5935 11.661 96.8112L15.9073 12.7394C15.9468 11.9571 16.6131 11.3549 17.3954 11.3944Z" fill="#333333"/>
<path fill-rule="evenodd" clip-rule="evenodd" d="M76.6215 9.68709C77.4029 9.63261 78.0806 10.2219 78.135 11.0033L84.0622 96.0159C84.1166 96.7973 83.5273 97.475 82.7459 97.5294C81.9645 97.5839 81.2869 96.9946 81.2324 96.2132L75.3053 11.2006C75.2508 10.4192 75.8401 9.74157 76.6215 9.68709Z" fill="#333333"/>
<defs>
<filter id="filter0_f_108_1375" x="0.229588" y="75.6065" width="95.1014" height="50.0936" filterUnits="userSpaceOnUse" color-interpolation-filters="sRGB">
<feFlood flood-opacity="0" result="BackgroundImageFix"/>
<feBlend mode="normal" in="SourceGraphic" in2="BackgroundImageFix" result="shape"/>
<feGaussianBlur stdDeviation="4.34517" result="effect1_foregroundBlur_108_1375"/>
</filter>
<filter id="filter1_b_108_1375" x="13.4558" y="5.81617" width="67.5434" height="100.368" filterUnits="userSpaceOnUse" color-interpolation-filters="sRGB">
<feFlood flood-opacity="0" result="BackgroundImageFix"/>
<feGaussianBlur in="BackgroundImageFix" stdDeviation="0.375117"/>
<feComposite in2="SourceAlpha" operator="in" result="effect1_backgroundBlur_108_1375"/>
<feBlend mode="normal" in="SourceGraphic" in2="effect1_backgroundBlur_108_1375" result="shape"/>
</filter>
<linearGradient id="paint0_linear_108_1375" x1="49.2283" y1="120.144" x2="49.2283" y2="93.1181" gradientUnits="userSpaceOnUse">
<stop stop-color="white"/>
<stop offset="1" stop-color="#414141"/>
</linearGradient>
<linearGradient id="paint1_linear_108_1375" x1="48.5062" y1="0.194701" x2="48.5062" y2="7.58877" gradientUnits="userSpaceOnUse">
<stop stop-color="white"/>
<stop offset="1" stop-color="#8F8F8F"/>
</linearGradient>
<linearGradient id="paint2_linear_108_1375" x1="28.2893" y1="8.06055" x2="28.2893" y2="27.988" gradientUnits="userSpaceOnUse">
<stop stop-color="white"/>
<stop offset="1" stop-color="#F5F5F5" stop-opacity="0"/>
<stop offset="1" stop-color="#F5F5F5" stop-opacity="0"/>
</linearGradient>
<linearGradient id="paint3_linear_108_1375" x1="55.7241" y1="8.03406" x2="63.8281" y2="26.8039" gradientUnits="userSpaceOnUse">
<stop stop-color="white"/>
<stop offset="1" stop-color="#C4C4C4" stop-opacity="0"/>
</linearGradient>
<linearGradient id="paint4_linear_108_1375" x1="76.7597" y1="94.7481" x2="64.1636" y2="57.9863" gradientUnits="userSpaceOnUse">
<stop stop-color="white" stop-opacity="0.53"/>
<stop offset="0.927083" stop-color="#BCBCBC" stop-opacity="0"/>
</linearGradient>
</defs>
</svg>
