<svg width="120" height="121" viewBox="0 0 120 121" fill="none" xmlns="http://www.w3.org/2000/svg">
<rect x="15" y="32.7559" width="90" height="75" rx="37.5" fill="url(#paint0_radial_108_1279)"/>
<circle cx="43.125" cy="69.6152" r="5.625" fill="#A96EF5"/>
<circle cx="76.875" cy="69.6152" r="5.625" fill="#A96EF5"/>
<g style="mix-blend-mode:hard-light">
<path d="M18.75 65.6024C18.75 58.0811 24.2792 51.8507 31.5957 51.1644C40.0226 50.374 50.4879 49.6309 60 49.6309C69.5121 49.6309 79.9774 50.374 88.4043 51.1644C95.7208 51.8507 101.25 58.0811 101.25 65.6024V75.4764C101.25 85.8016 90.9467 93.2128 80.8314 90.0893C76.6146 88.7872 72.4401 87.5745 68.876 86.6838C65.4487 85.8272 62.1853 85.1609 60 85.1609C57.8147 85.1609 54.5513 85.8272 51.124 86.6838C47.5599 87.5745 43.3854 88.7872 39.1686 90.0893C29.0533 93.2128 18.75 85.8016 18.75 75.4764V65.6024Z" fill="url(#paint1_linear_108_1279)"/>
<path d="M18.75 65.6024C18.75 58.0811 24.2792 51.8507 31.5957 51.1644C40.0226 50.374 50.4879 49.6309 60 49.6309C69.5121 49.6309 79.9774 50.374 88.4043 51.1644C95.7208 51.8507 101.25 58.0811 101.25 65.6024V75.4764C101.25 85.8016 90.9467 93.2128 80.8314 90.0893C76.6146 88.7872 72.4401 87.5745 68.876 86.6838C65.4487 85.8272 62.1853 85.1609 60 85.1609C57.8147 85.1609 54.5513 85.8272 51.124 86.6838C47.5599 87.5745 43.3854 88.7872 39.1686 90.0893C29.0533 93.2128 18.75 85.8016 18.75 75.4764V65.6024Z" stroke="#434356" stroke-width="7.5"/>
</g>
<g filter="url(#filter0_f_108_1279)">
<path opacity="0.7" d="M36 57.1289H45C45 57.1289 45 64.6301 45 70.256C45 75.882 45 83.3832 45 83.3832H36C36 83.3832 33.75 75.882 33.75 70.256C33.75 64.6301 36 57.1289 36 57.1289Z" fill="url(#paint2_linear_108_1279)"/>
<path d="M86.25 57.1289H90C90 57.1289 91.875 65.0775 91.875 70.256C91.875 75.4346 90 83.3832 90 83.3832H86.25C86.25 83.3832 88.125 75.4346 88.125 70.256C88.125 65.0775 86.25 57.1289 86.25 57.1289Z" fill="url(#paint3_linear_108_1279)" fill-opacity="0.7"/>
<path opacity="0.7" d="M28.75 57.1289H33.75C33.75 57.1289 31.25 64.6301 31.25 70.256C31.25 75.882 33.75 83.3832 33.75 83.3832H28.75C28.75 83.3832 26.25 75.882 26.25 70.256C26.25 64.6301 28.75 57.1289 28.75 57.1289Z" fill="url(#paint4_linear_108_1279)"/>
</g>
<circle cx="60" cy="21.5059" r="7.5" fill="#E8E8EF"/>
<rect x="56.25" y="23.3809" width="7.5" height="11.25" fill="#E5E5EE"/>
<defs>
<filter id="filter0_f_108_1279" x="25.5" y="56.3789" width="67.125" height="27.7539" filterUnits="userSpaceOnUse" color-interpolation-filters="sRGB">
<feFlood flood-opacity="0" result="BackgroundImageFix"/>
<feBlend mode="normal" in="SourceGraphic" in2="BackgroundImageFix" result="shape"/>
<feGaussianBlur stdDeviation="0.375" result="effect1_foregroundBlur_108_1279"/>
</filter>
<radialGradient id="paint0_radial_108_1279" cx="0" cy="0" r="1" gradientUnits="userSpaceOnUse" gradientTransform="translate(60 57.4269) rotate(90) scale(50.3289 45)">
<stop stop-color="white"/>
<stop offset="1" stop-color="#C7C7D8"/>
</radialGradient>
<linearGradient id="paint1_linear_108_1279" x1="60" y1="51.2846" x2="60" y2="87.8939" gradientUnits="userSpaceOnUse">
<stop stop-color="#606EFF"/>
<stop offset="0.266666" stop-color="#18ACFF"/>
<stop offset="1" stop-color="#BD94FF"/>
</linearGradient>
<linearGradient id="paint2_linear_108_1279" x1="40.5" y1="57.1289" x2="40.5" y2="83.3832" gradientUnits="userSpaceOnUse">
<stop stop-color="white" stop-opacity="0"/>
<stop offset="0.356666" stop-color="white" stop-opacity="0.943334"/>
<stop offset="1" stop-color="white" stop-opacity="0"/>
</linearGradient>
<linearGradient id="paint3_linear_108_1279" x1="88.125" y1="57.1289" x2="88.125" y2="83.3832" gradientUnits="userSpaceOnUse">
<stop stop-color="white" stop-opacity="0"/>
<stop offset="0.346666" stop-color="white"/>
<stop offset="1" stop-color="white" stop-opacity="0"/>
</linearGradient>
<linearGradient id="paint4_linear_108_1279" x1="31.25" y1="57.1289" x2="31.25" y2="83.3832" gradientUnits="userSpaceOnUse">
<stop stop-color="white" stop-opacity="0"/>
<stop offset="0.316666" stop-color="white"/>
<stop offset="1" stop-color="white" stop-opacity="0"/>
</linearGradient>
</defs>
</svg>
