<svg width="503" height="237" viewBox="0 0 503 237" fill="none" xmlns="http://www.w3.org/2000/svg">
<rect y="0.575195" width="503" height="236" rx="20" fill="white"/>
<path d="M28.3555 44.5752L24.3125 30.4346H27.5156L29.8984 40.3174H30.0156L32.6133 30.4346H35.3672L37.9648 40.3369H38.082L40.4648 30.4346H43.668L39.625 44.5752H36.7539L34.0586 35.2393H33.9414L31.2266 44.5752H28.3555ZM48.7656 44.79C45.5137 44.7803 43.5215 42.6807 43.5312 39.3213C43.5215 36.0498 45.543 33.833 48.6484 33.833C51.4316 33.833 53.6289 35.5908 53.6289 39.2041V40.0244H46.3828C46.3828 41.626 47.3301 42.6123 48.8242 42.6221C49.8105 42.6123 50.5137 42.1826 50.7969 41.5479H53.5508C53.1406 43.5107 51.3828 44.7803 48.7656 44.79ZM46.3828 38.208H50.8945C50.8848 36.9189 49.9961 35.9912 48.707 36.001C47.3789 35.9912 46.4414 36.9873 46.3828 38.208ZM57.3203 30.4346V35.7861H55.2305V30.4346H57.3203ZM59.3906 44.5752V33.9697H62.1836V35.8057H62.3008C62.6816 34.5068 63.668 33.8135 64.8594 33.8135C65.1523 33.8135 65.5234 33.8525 65.7773 33.9111V36.4893C65.5039 36.4014 64.9473 36.333 64.5469 36.333C63.2383 36.333 62.2715 37.2412 62.2812 38.54V44.5752H59.3906ZM71.6562 44.79C68.4043 44.7803 66.4121 42.6807 66.4219 39.3213C66.4121 36.0498 68.4336 33.833 71.5391 33.833C74.3223 33.833 76.5195 35.5908 76.5195 39.2041V40.0244H69.2734C69.2734 41.626 70.2207 42.6123 71.7148 42.6221C72.7012 42.6123 73.4043 42.1826 73.6875 41.5479H76.4414C76.0312 43.5107 74.2734 44.7803 71.6562 44.79ZM69.2734 38.208H73.7852C73.7754 36.9189 72.8867 35.9912 71.5977 36.001C70.2695 35.9912 69.332 36.9873 69.2734 38.208ZM82.4375 41.6064C82.4473 39.2432 84.3418 38.4717 86.3828 38.3447C87.1445 38.2959 88.5703 38.2275 89.0195 38.208V37.3486C89.0098 36.46 88.4043 35.9521 87.3203 35.9424C86.334 35.9521 85.7188 36.3916 85.5625 37.1143H82.8086C82.9844 35.2783 84.5859 33.833 87.3984 33.833C89.7129 33.833 91.9004 34.8682 91.8906 37.4268V44.5752H89.1562V43.1104H89.0781C88.5605 44.0869 87.5449 44.7803 85.9727 44.7705C83.9414 44.7803 82.4473 43.7061 82.4375 41.6064ZM85.2109 41.5283C85.2109 42.3389 85.8652 42.7686 86.793 42.7783C88.1113 42.7686 89.0293 41.9092 89.0195 40.7861V40.0146C88.5801 40.0342 87.3398 40.1025 86.8516 40.1416C85.8457 40.2295 85.2109 40.708 85.2109 41.5283ZM94.0977 44.5752V33.9697H96.8906V35.8057H97.0078C97.3887 34.5068 98.375 33.8135 99.5664 33.8135C99.8594 33.8135 100.23 33.8525 100.484 33.9111V36.4893C100.211 36.4014 99.6543 36.333 99.2539 36.333C97.9453 36.333 96.9785 37.2412 96.9883 38.54V44.5752H94.0977ZM106.324 44.79C103.072 44.7803 101.119 42.5342 101.129 39.3018C101.119 36.0596 103.111 33.833 106.324 33.833C109.059 33.833 110.914 35.4248 111.031 37.8564H108.316C108.141 36.8115 107.457 36.0889 106.363 36.0791C104.977 36.0889 104.059 37.251 104.059 39.2627C104.059 41.3135 104.957 42.4854 106.363 42.4854C107.379 42.4854 108.131 41.8506 108.316 40.7275H111.031C110.904 43.1299 109.137 44.7803 106.324 44.79ZM115.719 38.4424V44.5752H112.828V30.4346H115.641V35.8252H115.758C116.246 34.585 117.311 33.833 118.922 33.833C121.139 33.833 122.594 35.3271 122.594 37.8174V44.5752H119.703V38.3252C119.703 37.0068 119 36.2354 117.789 36.2354C116.568 36.2354 115.719 37.0459 115.719 38.4424ZM124.82 44.5752V33.9697H127.711V44.5752H124.82ZM124.684 31.1182C124.684 30.2979 125.396 29.6436 126.266 29.6338C127.125 29.6436 127.838 30.2979 127.828 31.1182C127.838 31.9189 127.125 32.583 126.266 32.583C125.396 32.583 124.684 31.9189 124.684 31.1182ZM139.801 33.9697L136.07 44.5752H132.828L129.117 33.9697H132.164L134.391 41.5869H134.508L136.734 33.9697H139.801ZM141.207 44.5752V33.9697H144.098V44.5752H141.207ZM141.07 31.1182C141.07 30.2979 141.783 29.6436 142.652 29.6338C143.512 29.6436 144.225 30.2979 144.215 31.1182C144.225 31.9189 143.512 32.583 142.652 32.583C141.783 32.583 141.07 31.9189 141.07 31.1182ZM149.234 38.4424V44.5752H146.344V33.9697H149.098V35.8252H149.215C149.693 34.6045 150.826 33.833 152.398 33.833C154.615 33.833 156.061 35.3467 156.051 37.8174V44.5752H153.18V38.3252C153.17 37.0166 152.467 36.2354 151.266 36.2354C150.064 36.2354 149.234 37.0459 149.234 38.4424ZM163.062 48.7744C160.133 48.7744 158.326 47.4561 158.16 45.4541H161.012C161.168 46.3037 161.969 46.6846 163.121 46.6846C164.459 46.6846 165.357 46.1084 165.367 44.6338V42.7002H165.23C164.85 43.5596 163.912 44.4287 162.203 44.4189C159.811 44.4287 157.887 42.7393 157.887 39.2041C157.887 35.6201 159.859 33.833 162.203 33.833C163.98 33.833 164.84 34.8877 165.23 35.7471H165.348V33.9697H168.219V44.6924C168.209 47.3975 166.08 48.7744 163.062 48.7744ZM160.855 39.2432C160.846 41.0791 161.637 42.2412 163.102 42.251C164.547 42.2412 165.367 41.1279 165.367 39.2432C165.367 37.3584 164.557 36.1377 163.102 36.1377C161.627 36.1377 160.846 37.417 160.855 39.2432ZM176.773 48.5596C176.207 48.5498 175.68 48.54 175.309 48.501V46.2549C175.68 46.2842 176.119 46.2939 176.48 46.2939C177.057 46.2939 177.516 46.2354 177.867 45.3174L178.043 44.8682L174.234 33.9697H177.262L179.488 41.7822H179.605L181.852 33.9697H184.918L180.777 45.7471C180.172 47.4561 179.01 48.5498 176.773 48.5596ZM190.738 44.79C187.535 44.7803 185.533 42.583 185.543 39.3018C185.533 36.0303 187.535 33.833 190.738 33.833C193.951 33.833 195.943 36.0303 195.953 39.3018C195.943 42.583 193.951 44.7803 190.738 44.79ZM188.473 39.3018C188.473 41.1572 189.244 42.5342 190.758 42.5439C192.232 42.5342 193.014 41.1572 193.004 39.3018C193.014 37.4365 192.232 36.04 190.758 36.04C189.244 36.04 188.473 37.4365 188.473 39.3018ZM204.566 40.0635V33.9697H207.457V44.5752H204.684V42.6611H204.566C204.088 43.8916 202.945 44.7119 201.344 44.7119C199.225 44.7119 197.77 43.208 197.77 40.7275V33.9697H200.66V40.2197C200.66 41.4795 201.383 42.2607 202.516 42.2705C203.57 42.2607 204.566 41.5088 204.566 40.0635ZM209.703 44.5752V33.9697H212.496V35.8057H212.613C212.994 34.5068 213.98 33.8135 215.172 33.8135C215.465 33.8135 215.836 33.8525 216.09 33.9111V36.4893C215.816 36.4014 215.26 36.333 214.859 36.333C213.551 36.333 212.584 37.2412 212.594 38.54V44.5752H209.703ZM226.012 44.751C223.59 44.751 221.695 42.8271 221.695 39.2822C221.695 35.6494 223.668 33.833 226.012 33.833C227.789 33.833 228.639 34.8877 229.02 35.7471H229.117V30.4346H232.008V44.5752H229.156V42.876H229.02C228.619 43.7549 227.74 44.751 226.012 44.751ZM224.664 39.2627C224.654 41.1377 225.445 42.4365 226.91 42.4463C228.355 42.4365 229.176 41.1768 229.176 39.2627C229.176 37.3584 228.365 36.1377 226.91 36.1377C225.436 36.1377 224.654 37.417 224.664 39.2627ZM234.332 44.5752V33.9697H237.223V44.5752H234.332ZM234.195 31.1182C234.195 30.2979 234.908 29.6436 235.777 29.6338C236.637 29.6436 237.35 30.2979 237.34 31.1182C237.35 31.9189 236.637 32.583 235.777 32.583C234.908 32.583 234.195 31.9189 234.195 31.1182ZM244.234 48.7744C241.305 48.7744 239.498 47.4561 239.332 45.4541H242.184C242.34 46.3037 243.141 46.6846 244.293 46.6846C245.631 46.6846 246.529 46.1084 246.539 44.6338V42.7002H246.402C246.021 43.5596 245.084 44.4287 243.375 44.4189C240.982 44.4287 239.059 42.7393 239.059 39.2041C239.059 35.6201 241.031 33.833 243.375 33.833C245.152 33.833 246.012 34.8877 246.402 35.7471H246.52V33.9697H249.391V44.6924C249.381 47.3975 247.252 48.7744 244.234 48.7744ZM242.027 39.2432C242.018 41.0791 242.809 42.2412 244.273 42.251C245.719 42.2412 246.539 41.1279 246.539 39.2432C246.539 37.3584 245.729 36.1377 244.273 36.1377C242.799 36.1377 242.018 37.417 242.027 39.2432ZM251.637 44.5752V33.9697H254.527V44.5752H251.637ZM251.5 31.1182C251.5 30.2979 252.213 29.6436 253.082 29.6338C253.941 29.6436 254.654 30.2979 254.645 31.1182C254.654 31.9189 253.941 32.583 253.082 32.583C252.213 32.583 251.5 31.9189 251.5 31.1182ZM262.359 33.9697V36.1377H260.367V41.3135C260.357 42.1631 260.777 42.3682 261.363 42.3877C261.656 42.3877 262.164 42.3584 262.516 42.3291V44.6143C262.203 44.6631 261.686 44.7217 260.973 44.7119C258.883 44.7217 257.457 43.7842 257.477 41.7236V36.1377H256.012V33.9697H257.477V31.4307H260.367V33.9697H262.359ZM263.668 41.6064C263.678 39.2432 265.572 38.4717 267.613 38.3447C268.375 38.2959 269.801 38.2275 270.25 38.208V37.3486C270.24 36.46 269.635 35.9521 268.551 35.9424C267.564 35.9521 266.949 36.3916 266.793 37.1143H264.039C264.215 35.2783 265.816 33.833 268.629 33.833C270.943 33.833 273.131 34.8682 273.121 37.4268V44.5752H270.387V43.1104H270.309C269.791 44.0869 268.775 44.7803 267.203 44.7705C265.172 44.7803 263.678 43.7061 263.668 41.6064ZM266.441 41.5283C266.441 42.3389 267.096 42.7686 268.023 42.7783C269.342 42.7686 270.26 41.9092 270.25 40.7861V40.0146C269.811 40.0342 268.57 40.1025 268.082 40.1416C267.076 40.2295 266.441 40.708 266.441 41.5283ZM278.219 30.4346V44.5752H275.328V30.4346H278.219ZM284.566 41.6064C284.576 39.2432 286.471 38.4717 288.512 38.3447C289.273 38.2959 290.699 38.2275 291.148 38.208V37.3486C291.139 36.46 290.533 35.9521 289.449 35.9424C288.463 35.9521 287.848 36.3916 287.691 37.1143H284.938C285.113 35.2783 286.715 33.833 289.527 33.833C291.842 33.833 294.029 34.8682 294.02 37.4268V44.5752H291.285V43.1104H291.207C290.689 44.0869 289.674 44.7803 288.102 44.7705C286.07 44.7803 284.576 43.7061 284.566 41.6064ZM287.34 41.5283C287.34 42.3389 287.994 42.7686 288.922 42.7783C290.24 42.7686 291.158 41.9092 291.148 40.7861V40.0146C290.709 40.0342 289.469 40.1025 288.98 40.1416C287.975 40.2295 287.34 40.708 287.34 41.5283ZM302.281 37.1143C302.154 36.3721 301.51 35.8936 300.543 35.8838C299.605 35.8936 298.893 36.333 298.902 36.9775C298.893 37.4561 299.264 37.8271 300.27 38.0322L302.164 38.4229C304.225 38.8525 305.221 39.7705 305.23 41.2939C305.221 43.3838 303.346 44.7803 300.523 44.79C297.662 44.7803 295.982 43.501 295.738 41.4307H298.648C298.785 42.2607 299.459 42.6904 300.523 42.7002C301.578 42.6904 302.281 42.2705 302.281 41.5869C302.281 41.04 301.832 40.6982 300.836 40.4932L299.078 40.1416C297.057 39.7412 296.021 38.7061 296.031 37.1338C296.021 35.1025 297.77 33.833 300.504 33.833C303.18 33.833 304.84 35.1025 304.996 37.1143H302.281ZM313.062 37.1143C312.936 36.3721 312.291 35.8936 311.324 35.8838C310.387 35.8936 309.674 36.333 309.684 36.9775C309.674 37.4561 310.045 37.8271 311.051 38.0322L312.945 38.4229C315.006 38.8525 316.002 39.7705 316.012 41.2939C316.002 43.3838 314.127 44.7803 311.305 44.79C308.443 44.7803 306.764 43.501 306.52 41.4307H309.43C309.566 42.2607 310.24 42.6904 311.305 42.7002C312.359 42.6904 313.062 42.2705 313.062 41.5869C313.062 41.04 312.613 40.6982 311.617 40.4932L309.859 40.1416C307.838 39.7412 306.803 38.7061 306.812 37.1338C306.803 35.1025 308.551 33.833 311.285 33.833C313.961 33.833 315.621 35.1025 315.777 37.1143H313.062ZM322.594 44.79C319.342 44.7803 317.35 42.6807 317.359 39.3213C317.35 36.0498 319.371 33.833 322.477 33.833C325.26 33.833 327.457 35.5908 327.457 39.2041V40.0244H320.211C320.211 41.626 321.158 42.6123 322.652 42.6221C323.639 42.6123 324.342 42.1826 324.625 41.5479H327.379C326.969 43.5107 325.211 44.7803 322.594 44.79ZM320.211 38.208H324.723C324.713 36.9189 323.824 35.9912 322.535 36.001C321.207 35.9912 320.27 36.9873 320.211 38.208ZM334.859 33.9697V36.1377H332.867V41.3135C332.857 42.1631 333.277 42.3682 333.863 42.3877C334.156 42.3877 334.664 42.3584 335.016 42.3291V44.6143C334.703 44.6631 334.186 44.7217 333.473 44.7119C331.383 44.7217 329.957 43.7842 329.977 41.7236V36.1377H328.512V33.9697H329.977V31.4307H332.867V33.9697H334.859ZM342.574 37.1143C342.447 36.3721 341.803 35.8936 340.836 35.8838C339.898 35.8936 339.186 36.333 339.195 36.9775C339.186 37.4561 339.557 37.8271 340.562 38.0322L342.457 38.4229C344.518 38.8525 345.514 39.7705 345.523 41.2939C345.514 43.3838 343.639 44.7803 340.816 44.79C337.955 44.7803 336.275 43.501 336.031 41.4307H338.941C339.078 42.2607 339.752 42.6904 340.816 42.7002C341.871 42.6904 342.574 42.2705 342.574 41.5869C342.574 41.04 342.125 40.6982 341.129 40.4932L339.371 40.1416C337.35 39.7412 336.314 38.7061 336.324 37.1338C336.314 35.1025 338.062 33.833 340.797 33.833C343.473 33.833 345.133 35.1025 345.289 37.1143H342.574Z" fill="#292E34"/>
<path d="M26.7168 87.5752L24.2031 78.3838H25.3584L27.2754 85.8232H27.3643L29.3066 78.3838H30.5889L32.5439 85.8232H32.6201L34.5371 78.3838H35.6924L33.1787 87.5752H31.998L29.9922 80.3008H29.916L27.8975 87.5752H26.7168ZM39.0059 87.7148C37.0127 87.7212 35.7812 86.2993 35.7812 84.1855C35.7812 82.0654 37.0317 80.5928 38.9043 80.5928C40.3516 80.5928 41.8813 81.4814 41.875 84.0332V84.4902H36.873C36.9302 85.9502 37.7808 86.75 39.0059 86.75C39.8311 86.75 40.3516 86.3882 40.6055 85.9629H41.7734C41.4497 87.0103 40.4277 87.7212 39.0059 87.7148ZM36.8794 83.5635H40.7705C40.7642 82.4146 40.0405 81.5576 38.9043 81.5576C37.7109 81.5576 36.9556 82.4971 36.8794 83.5635ZM44.2236 78.3838V81.5576H43.2207V78.3838H44.2236ZM47.0039 78.3838V87.5752H45.9121V78.3838H47.0039ZM49.835 78.3838V87.5752H48.7432V78.3838H49.835ZM54.8369 90.165V80.6816H55.8906V81.7734H56.0176C56.2524 81.4053 56.6714 80.5928 58.0107 80.5928C59.7437 80.5928 60.9434 81.9639 60.9434 84.1475C60.9434 86.3374 59.7437 87.7212 58.0234 87.7148C56.7095 87.7212 56.2524 86.9023 56.0176 86.5215H55.9287V90.165H54.8369ZM55.9033 84.1221C55.9097 85.6709 56.6016 86.7373 57.8711 86.7373C59.1787 86.7373 59.8516 85.5884 59.8516 84.1221C59.8516 82.6812 59.1978 81.5703 57.8711 81.5703C56.5825 81.5703 55.9097 82.5923 55.9033 84.1221ZM62.3652 87.5752V80.6816H63.4189V81.7354H63.4951C63.7427 81.0371 64.46 80.5737 65.2725 80.5674C65.4375 80.5737 65.7168 80.5801 65.8438 80.5928V81.6973C65.7612 81.6782 65.4692 81.6211 65.1836 81.6211C64.1934 81.6211 63.457 82.3066 63.457 83.2334V87.5752H62.3652ZM69.5 87.7148C67.6211 87.7212 66.3516 86.2993 66.3516 84.1602C66.3516 82.0083 67.6211 80.5928 69.5 80.5928C71.3726 80.5928 72.6294 82.0083 72.623 84.1602C72.6294 86.2993 71.3726 87.7212 69.5 87.7148ZM67.4434 84.1602C67.4497 85.5376 68.0972 86.75 69.5 86.75C70.8901 86.75 71.5312 85.5376 71.5312 84.1602C71.5312 82.7891 70.8901 81.5576 69.5 81.5576C68.0972 81.5576 67.4497 82.7891 67.4434 84.1602ZM77.0664 80.6816V81.5957H75.6191V85.5947C75.6128 86.4771 76.0571 86.623 76.5205 86.623C76.7173 86.623 77.0093 86.604 77.168 86.5977V87.6133C76.9966 87.6387 76.73 87.6641 76.4062 87.6641C75.4858 87.6641 74.521 87.0928 74.5146 85.874V81.5957H73.4736V80.6816H74.5146V79.0312H75.6191V80.6816H77.0664ZM81.2939 87.7148C79.3008 87.7212 78.0693 86.2993 78.0693 84.1855C78.0693 82.0654 79.3198 80.5928 81.1924 80.5928C82.6396 80.5928 84.1694 81.4814 84.1631 84.0332V84.4902H79.1611C79.2183 85.9502 80.0688 86.75 81.2939 86.75C82.1191 86.75 82.6396 86.3882 82.8936 85.9629H84.0615C83.7378 87.0103 82.7158 87.7212 81.2939 87.7148ZM79.1675 83.5635H83.0586C83.0522 82.4146 82.3286 81.5576 81.1924 81.5576C79.999 81.5576 79.2437 82.4971 79.1675 83.5635ZM88.4033 87.7148C86.4482 87.7212 85.2549 86.2295 85.2549 84.1602C85.2549 82.0654 86.5054 80.5928 88.3779 80.5928C89.8442 80.5928 90.9487 81.4624 91.1201 82.7637H90.0283C89.8696 82.1353 89.3237 81.5576 88.4033 81.5576C87.1719 81.5576 86.353 82.5732 86.3467 84.1221C86.353 85.7153 87.1528 86.7373 88.4033 86.7373C89.2158 86.7373 89.8379 86.2993 90.0283 85.5439H91.1201C90.9487 86.7754 89.9331 87.7212 88.4033 87.7148ZM95.4746 80.6816V81.5957H94.0273V85.5947C94.021 86.4771 94.4653 86.623 94.9287 86.623C95.1255 86.623 95.4175 86.604 95.5762 86.5977V87.6133C95.4048 87.6387 95.1382 87.6641 94.8145 87.6641C93.894 87.6641 92.9292 87.0928 92.9229 85.874V81.5957H91.8818V80.6816H92.9229V79.0312H94.0273V80.6816H95.4746ZM100.845 90.165C100.61 90.1587 100.375 90.1523 100.235 90.1396V89.1621C100.35 89.1748 100.597 89.1812 100.769 89.1875C101.213 89.1812 101.587 89.1558 101.949 88.1465L102.152 87.626L99.6006 80.6816H100.794L102.673 86.1533H102.749L104.628 80.6816H105.821L102.901 88.5654C102.495 89.6509 101.822 90.1587 100.845 90.165ZM109.592 87.7148C107.713 87.7212 106.443 86.2993 106.443 84.1602C106.443 82.0083 107.713 80.5928 109.592 80.5928C111.464 80.5928 112.721 82.0083 112.715 84.1602C112.721 86.2993 111.464 87.7212 109.592 87.7148ZM107.535 84.1602C107.542 85.5376 108.189 86.75 109.592 86.75C110.982 86.75 111.623 85.5376 111.623 84.1602C111.623 82.7891 110.982 81.5576 109.592 81.5576C108.189 81.5576 107.542 82.7891 107.535 84.1602ZM118.504 84.7441V80.6816H119.583V87.5752H118.504V86.4072H118.428C118.104 87.1055 117.418 87.6641 116.384 87.6641C115.076 87.6641 114.143 86.8135 114.149 85.0615V80.6816H115.241V84.9854C115.241 85.9756 115.857 86.6167 116.739 86.6104C117.52 86.6167 118.498 86.0327 118.504 84.7441ZM121.335 87.5752V80.6816H122.389V81.7354H122.465C122.712 81.0371 123.43 80.5737 124.242 80.5674C124.407 80.5737 124.687 80.5801 124.813 80.5928V81.6973C124.731 81.6782 124.439 81.6211 124.153 81.6211C123.163 81.6211 122.427 82.3066 122.427 83.2334V87.5752H121.335ZM131.745 87.7148C130.025 87.7212 128.812 86.3374 128.812 84.1475C128.812 81.9639 130.025 80.5928 131.758 80.5928C133.097 80.5928 133.516 81.4053 133.751 81.7734H133.827V78.3838H134.932V87.5752H133.865V86.5215H133.751C133.51 86.9023 133.059 87.7212 131.745 87.7148ZM129.917 84.1221C129.917 85.5884 130.59 86.7373 131.897 86.7373C133.161 86.7373 133.859 85.6709 133.865 84.1221C133.859 82.5923 133.18 81.5703 131.897 81.5703C130.571 81.5703 129.917 82.6812 129.917 84.1221ZM136.823 87.5752V80.6816H137.915V87.5752H136.823ZM136.607 78.8154C136.601 78.4092 136.95 78.0854 137.369 78.0918C137.788 78.0854 138.137 78.4092 138.144 78.8154C138.137 79.2153 137.788 79.5391 137.369 79.5391C136.95 79.5391 136.601 79.2153 136.607 78.8154ZM142.447 90.3047C140.778 90.3047 139.648 89.5747 139.527 88.2988H140.67C140.816 89.0034 141.47 89.3525 142.447 89.3525C143.628 89.3525 144.352 88.8384 144.352 87.7021V86.3057H144.263C144.028 86.6865 143.59 87.4673 142.257 87.4736C140.581 87.4673 139.324 86.2041 139.324 84.0332C139.324 81.9131 140.537 80.5928 142.27 80.5928C143.609 80.5928 144.041 81.4053 144.288 81.7734H144.377V80.6816H145.443V87.7656C145.437 89.543 144.129 90.3047 142.447 90.3047ZM140.429 84.0713C140.429 85.4995 141.102 86.4961 142.409 86.4961C143.672 86.4961 144.371 85.5884 144.377 84.0713C144.371 82.5923 143.691 81.5703 142.409 81.5703C141.083 81.5703 140.429 82.6812 140.429 84.0713ZM147.183 87.5752V80.6816H148.274V87.5752H147.183ZM146.967 78.8154C146.96 78.4092 147.31 78.0854 147.729 78.0918C148.147 78.0854 148.497 78.4092 148.503 78.8154C148.497 79.2153 148.147 79.5391 147.729 79.5391C147.31 79.5391 146.96 79.2153 146.967 78.8154ZM153.022 80.6816V81.5957H151.575V85.5947C151.569 86.4771 152.013 86.623 152.477 86.623C152.673 86.623 152.965 86.604 153.124 86.5977V87.6133C152.953 87.6387 152.686 87.6641 152.362 87.6641C151.442 87.6641 150.477 87.0928 150.471 85.874V81.5957H149.43V80.6816H150.471V79.0312H151.575V80.6816H153.022ZM154.102 85.6201C154.102 84.0396 155.498 83.6777 156.691 83.5889C157.136 83.5571 158.247 83.4937 158.558 83.4873V82.9287C158.558 82.0527 158.037 81.5449 156.996 81.5449C156.126 81.5449 155.6 81.9448 155.447 82.4717H154.305C154.444 81.3608 155.523 80.5928 157.047 80.5928C157.948 80.5928 159.643 80.8594 159.637 83.0303V87.5752H158.558V86.6357H158.507C158.278 87.0991 157.65 87.7339 156.45 87.7402C155.143 87.7339 154.102 86.9658 154.102 85.6201ZM155.193 85.6709C155.2 86.4009 155.803 86.769 156.641 86.7627C157.872 86.769 158.558 85.9438 158.558 85.0742V84.3823C158.234 84.4014 157.148 84.4839 156.818 84.5029C155.828 84.5664 155.2 84.9155 155.193 85.6709ZM162.48 78.3838V87.5752H161.389V78.3838H162.48ZM167.152 85.6201C167.152 84.0396 168.549 83.6777 169.742 83.5889C170.187 83.5571 171.297 83.4937 171.608 83.4873V82.9287C171.608 82.0527 171.088 81.5449 170.047 81.5449C169.177 81.5449 168.65 81.9448 168.498 82.4717H167.355C167.495 81.3608 168.574 80.5928 170.098 80.5928C170.999 80.5928 172.694 80.8594 172.688 83.0303V87.5752H171.608V86.6357H171.558C171.329 87.0991 170.701 87.7339 169.501 87.7402C168.193 87.7339 167.152 86.9658 167.152 85.6201ZM168.244 85.6709C168.25 86.4009 168.854 86.769 169.691 86.7627C170.923 86.769 171.608 85.9438 171.608 85.0742V84.3823C171.285 84.4014 170.199 84.4839 169.869 84.5029C168.879 84.5664 168.25 84.9155 168.244 85.6709ZM178.273 82.4717C178.121 81.9004 177.683 81.5259 176.877 81.5195C176.026 81.5259 175.423 81.9829 175.417 82.5605C175.423 83.0176 175.792 83.3286 176.598 83.5254L177.626 83.7793C178.857 84.0713 179.46 84.687 179.467 85.6455C179.46 86.8389 178.489 87.7212 176.763 87.7148C175.214 87.7212 174.293 87.0293 174.109 85.7725H175.252C175.379 86.4453 175.868 86.769 176.737 86.7627C177.721 86.769 178.337 86.3564 178.337 85.709C178.337 85.2202 177.988 84.9028 177.207 84.7188L176.166 84.4775C174.966 84.1982 174.325 83.5444 174.325 82.624C174.325 81.4434 175.36 80.5928 176.877 80.5928C178.305 80.5928 179.2 81.3545 179.34 82.4717H178.273ZM184.723 82.4717C184.57 81.9004 184.132 81.5259 183.326 81.5195C182.476 81.5259 181.873 81.9829 181.866 82.5605C181.873 83.0176 182.241 83.3286 183.047 83.5254L184.075 83.7793C185.307 84.0713 185.91 84.687 185.916 85.6455C185.91 86.8389 184.938 87.7212 183.212 87.7148C181.663 87.7212 180.743 87.0293 180.559 85.7725H181.701C181.828 86.4453 182.317 86.769 183.187 86.7627C184.17 86.769 184.786 86.3564 184.786 85.709C184.786 85.2202 184.437 84.9028 183.656 84.7188L182.615 84.4775C181.416 84.1982 180.774 83.5444 180.774 82.624C180.774 81.4434 181.809 80.5928 183.326 80.5928C184.754 80.5928 185.649 81.3545 185.789 82.4717H184.723ZM190.232 87.7148C188.239 87.7212 187.008 86.2993 187.008 84.1855C187.008 82.0654 188.258 80.5928 190.131 80.5928C191.578 80.5928 193.108 81.4814 193.102 84.0332V84.4902H188.1C188.157 85.9502 189.007 86.75 190.232 86.75C191.058 86.75 191.578 86.3882 191.832 85.9629H193C192.676 87.0103 191.654 87.7212 190.232 87.7148ZM188.106 83.5635H191.997C191.991 82.4146 191.267 81.5576 190.131 81.5576C188.938 81.5576 188.182 82.4971 188.106 83.5635ZM197.532 80.6816V81.5957H196.085V85.5947C196.079 86.4771 196.523 86.623 196.986 86.623C197.183 86.623 197.475 86.604 197.634 86.5977V87.6133C197.462 87.6387 197.196 87.6641 196.872 87.6641C195.952 87.6641 194.987 87.0928 194.98 85.874V81.5957H193.939V80.6816H194.98V79.0312H196.085V80.6816H197.532ZM202.648 82.4717C202.496 81.9004 202.058 81.5259 201.252 81.5195C200.401 81.5259 199.798 81.9829 199.792 82.5605C199.798 83.0176 200.167 83.3286 200.973 83.5254L202.001 83.7793C203.232 84.0713 203.835 84.687 203.842 85.6455C203.835 86.8389 202.864 87.7212 201.138 87.7148C199.589 87.7212 198.668 87.0293 198.484 85.7725H199.627C199.754 86.4453 200.243 86.769 201.112 86.7627C202.096 86.769 202.712 86.3564 202.712 85.709C202.712 85.2202 202.363 84.9028 201.582 84.7188L200.541 84.4775C199.341 84.1982 198.7 83.5444 198.7 82.624C198.7 81.4434 199.735 80.5928 201.252 80.5928C202.68 80.5928 203.575 81.3545 203.715 82.4717H202.648ZM211.611 80.6816V81.5957H210.088V87.5752H208.983V81.5957H207.879V80.6816H208.983V79.7422C208.99 78.625 209.732 77.9521 210.951 77.9521C211.218 77.9521 211.535 77.9839 211.764 78.0283V79.0059C211.529 78.9678 211.332 78.9551 211.192 78.9551C210.424 78.9551 210.082 79.2725 210.088 79.9834V80.6816H211.611ZM215.433 87.7148C213.554 87.7212 212.284 86.2993 212.284 84.1602C212.284 82.0083 213.554 80.5928 215.433 80.5928C217.305 80.5928 218.562 82.0083 218.556 84.1602C218.562 86.2993 217.305 87.7212 215.433 87.7148ZM213.376 84.1602C213.382 85.5376 214.03 86.75 215.433 86.75C216.823 86.75 217.464 85.5376 217.464 84.1602C217.464 82.7891 216.823 81.5576 215.433 81.5576C214.03 81.5576 213.382 82.7891 213.376 84.1602ZM219.99 87.5752V80.6816H221.044V81.7354H221.12C221.368 81.0371 222.085 80.5737 222.897 80.5674C223.062 80.5737 223.342 80.5801 223.469 80.5928V81.6973C223.386 81.6782 223.094 81.6211 222.809 81.6211C221.818 81.6211 221.082 82.3066 221.082 83.2334V87.5752H219.99ZM231.035 78.3838V87.5752H229.88V79.5771H229.829L227.595 81.0625V79.9072L229.88 78.3838H231.035ZM236.494 87.7021C234.457 87.7021 233.276 85.9883 233.282 82.9795C233.276 79.9961 234.469 78.2568 236.494 78.2568C238.513 78.2568 239.706 79.9961 239.706 82.9795C239.706 85.9883 238.532 87.7021 236.494 87.7021ZM234.387 82.9795C234.393 85.3599 235.161 86.6865 236.494 86.6865C237.821 86.6865 238.595 85.3599 238.589 82.9795C238.595 80.5991 237.814 79.2534 236.494 79.2471C235.174 79.2534 234.393 80.5991 234.387 82.9795ZM244.238 87.7021C242.201 87.7021 241.02 85.9883 241.026 82.9795C241.02 79.9961 242.213 78.2568 244.238 78.2568C246.257 78.2568 247.45 79.9961 247.45 82.9795C247.45 85.9883 246.276 87.7021 244.238 87.7021ZM242.131 82.9795C242.137 85.3599 242.905 86.6865 244.238 86.6865C245.565 86.6865 246.339 85.3599 246.333 82.9795C246.339 80.5991 245.559 79.2534 244.238 79.2471C242.918 79.2534 242.137 80.5991 242.131 82.9795ZM252.947 90.165C252.712 90.1587 252.478 90.1523 252.338 90.1396V89.1621C252.452 89.1748 252.7 89.1812 252.871 89.1875C253.315 89.1812 253.69 89.1558 254.052 88.1465L254.255 87.626L251.703 80.6816H252.896L254.775 86.1533H254.852L256.73 80.6816H257.924L255.004 88.5654C254.598 89.6509 253.925 90.1587 252.947 90.165ZM261.771 87.7148C259.777 87.7212 258.546 86.2993 258.546 84.1855C258.546 82.0654 259.796 80.5928 261.669 80.5928C263.116 80.5928 264.646 81.4814 264.64 84.0332V84.4902H259.638C259.695 85.9502 260.545 86.75 261.771 86.75C262.596 86.75 263.116 86.3882 263.37 85.9629H264.538C264.214 87.0103 263.192 87.7212 261.771 87.7148ZM259.644 83.5635H263.535C263.529 82.4146 262.805 81.5576 261.669 81.5576C260.476 81.5576 259.72 82.4971 259.644 83.5635ZM265.731 85.6201C265.731 84.0396 267.128 83.6777 268.321 83.5889C268.766 83.5571 269.876 83.4937 270.188 83.4873V82.9287C270.188 82.0527 269.667 81.5449 268.626 81.5449C267.756 81.5449 267.229 81.9448 267.077 82.4717H265.935C266.074 81.3608 267.153 80.5928 268.677 80.5928C269.578 80.5928 271.273 80.8594 271.267 83.0303V87.5752H270.188V86.6357H270.137C269.908 87.0991 269.28 87.7339 268.08 87.7402C266.772 87.7339 265.731 86.9658 265.731 85.6201ZM266.823 85.6709C266.83 86.4009 267.433 86.769 268.271 86.7627C269.502 86.769 270.188 85.9438 270.188 85.0742V84.3823C269.864 84.4014 268.778 84.4839 268.448 84.5029C267.458 84.5664 266.83 84.9155 266.823 85.6709ZM273.019 87.5752V80.6816H274.072V81.7354H274.148C274.396 81.0371 275.113 80.5737 275.926 80.5674C276.091 80.5737 276.37 80.5801 276.497 80.5928V81.6973C276.415 81.6782 276.123 81.6211 275.837 81.6211C274.847 81.6211 274.11 82.3066 274.11 83.2334V87.5752H273.019ZM281.397 82.4717C281.245 81.9004 280.807 81.5259 280.001 81.5195C279.15 81.5259 278.547 81.9829 278.541 82.5605C278.547 83.0176 278.916 83.3286 279.722 83.5254L280.75 83.7793C281.981 84.0713 282.584 84.687 282.591 85.6455C282.584 86.8389 281.613 87.7212 279.887 87.7148C278.338 87.7212 277.417 87.0293 277.233 85.7725H278.376C278.503 86.4453 278.992 86.769 279.861 86.7627C280.845 86.769 281.461 86.3564 281.461 85.709C281.461 85.2202 281.112 84.9028 280.331 84.7188L279.29 84.4775C278.09 84.1982 277.449 83.5444 277.449 82.624C277.449 81.4434 278.484 80.5928 280.001 80.5928C281.429 80.5928 282.324 81.3545 282.464 82.4717H281.397ZM286.945 85.6201C286.945 84.0396 288.342 83.6777 289.535 83.5889C289.979 83.5571 291.09 83.4937 291.401 83.4873V82.9287C291.401 82.0527 290.881 81.5449 289.84 81.5449C288.97 81.5449 288.443 81.9448 288.291 82.4717H287.148C287.288 81.3608 288.367 80.5928 289.891 80.5928C290.792 80.5928 292.487 80.8594 292.48 83.0303V87.5752H291.401V86.6357H291.351C291.122 87.0991 290.494 87.7339 289.294 87.7402C287.986 87.7339 286.945 86.9658 286.945 85.6201ZM288.037 85.6709C288.043 86.4009 288.646 86.769 289.484 86.7627C290.716 86.769 291.401 85.9438 291.401 85.0742V84.3823C291.078 84.4014 289.992 84.4839 289.662 84.5029C288.672 84.5664 288.043 84.9155 288.037 85.6709ZM297.317 80.6816V81.5957H295.794V87.5752H294.689V81.5957H293.585V80.6816H294.689V79.7422C294.696 78.625 295.438 77.9521 296.657 77.9521C296.924 77.9521 297.241 77.9839 297.47 78.0283V79.0059C297.235 78.9678 297.038 78.9551 296.898 78.9551C296.13 78.9551 295.788 79.2725 295.794 79.9834V80.6816H297.317ZM301.621 80.6816V81.5957H300.174V85.5947C300.167 86.4771 300.612 86.623 301.075 86.623C301.272 86.623 301.564 86.604 301.723 86.5977V87.6133C301.551 87.6387 301.285 87.6641 300.961 87.6641C300.041 87.6641 299.076 87.0928 299.069 85.874V81.5957H298.028V80.6816H299.069V79.0312H300.174V80.6816H301.621ZM305.849 87.7148C303.855 87.7212 302.624 86.2993 302.624 84.1855C302.624 82.0654 303.875 80.5928 305.747 80.5928C307.194 80.5928 308.724 81.4814 308.718 84.0332V84.4902H303.716C303.773 85.9502 304.624 86.75 305.849 86.75C306.674 86.75 307.194 86.3882 307.448 85.9629H308.616C308.292 87.0103 307.271 87.7212 305.849 87.7148ZM303.722 83.5635H307.613C307.607 82.4146 306.883 81.5576 305.747 81.5576C304.554 81.5576 303.798 82.4971 303.722 83.5635ZM310.14 87.5752V80.6816H311.193V81.7354H311.27C311.517 81.0371 312.234 80.5737 313.047 80.5674C313.212 80.5737 313.491 80.5801 313.618 80.5928V81.6973C313.536 81.6782 313.244 81.6211 312.958 81.6211C311.968 81.6211 311.231 82.3066 311.231 83.2334V87.5752H310.14ZM318.646 90.165C318.411 90.1587 318.176 90.1523 318.036 90.1396V89.1621C318.15 89.1748 318.398 89.1812 318.569 89.1875C319.014 89.1812 319.388 89.1558 319.75 88.1465L319.953 87.626L317.401 80.6816H318.595L320.474 86.1533H320.55L322.429 80.6816H323.622L320.702 88.5654C320.296 89.6509 319.623 90.1587 318.646 90.165ZM327.393 87.7148C325.514 87.7212 324.244 86.2993 324.244 84.1602C324.244 82.0083 325.514 80.5928 327.393 80.5928C329.265 80.5928 330.522 82.0083 330.516 84.1602C330.522 86.2993 329.265 87.7212 327.393 87.7148ZM325.336 84.1602C325.342 85.5376 325.99 86.75 327.393 86.75C328.783 86.75 329.424 85.5376 329.424 84.1602C329.424 82.7891 328.783 81.5576 327.393 81.5576C325.99 81.5576 325.342 82.7891 325.336 84.1602ZM336.305 84.7441V80.6816H337.384V87.5752H336.305V86.4072H336.229C335.905 87.1055 335.219 87.6641 334.185 87.6641C332.877 87.6641 331.944 86.8135 331.95 85.0615V80.6816H333.042V84.9854C333.042 85.9756 333.658 86.6167 334.54 86.6104C335.321 86.6167 336.298 86.0327 336.305 84.7441ZM340.062 78.3838V81.5576H339.06V78.3838H340.062ZM341.751 87.5752V80.6816H342.805V81.7354H342.881C343.128 81.0371 343.846 80.5737 344.658 80.5674C344.823 80.5737 345.103 80.5801 345.229 80.5928V81.6973C345.147 81.6782 344.855 81.6211 344.569 81.6211C343.579 81.6211 342.843 82.3066 342.843 83.2334V87.5752H341.751ZM348.962 87.7148C346.969 87.7212 345.737 86.2993 345.737 84.1855C345.737 82.0654 346.988 80.5928 348.86 80.5928C350.308 80.5928 351.837 81.4814 351.831 84.0332V84.4902H346.829C346.886 85.9502 347.737 86.75 348.962 86.75C349.787 86.75 350.308 86.3882 350.562 85.9629H351.729C351.406 87.0103 350.384 87.7212 348.962 87.7148ZM346.835 83.5635H350.727C350.72 82.4146 349.997 81.5576 348.86 81.5576C347.667 81.5576 346.912 82.4971 346.835 83.5635ZM359.309 90.3047C357.639 90.3047 356.509 89.5747 356.389 88.2988H357.531C357.677 89.0034 358.331 89.3525 359.309 89.3525C360.489 89.3525 361.213 88.8384 361.213 87.7021V86.3057H361.124C360.889 86.6865 360.451 87.4673 359.118 87.4736C357.442 87.4673 356.186 86.2041 356.186 84.0332C356.186 81.9131 357.398 80.5928 359.131 80.5928C360.47 80.5928 360.902 81.4053 361.149 81.7734H361.238V80.6816H362.305V87.7656C362.298 89.543 360.991 90.3047 359.309 90.3047ZM357.29 84.0713C357.29 85.4995 357.963 86.4961 359.271 86.4961C360.534 86.4961 361.232 85.5884 361.238 84.0713C361.232 82.5923 360.553 81.5703 359.271 81.5703C357.944 81.5703 357.29 82.6812 357.29 84.0713ZM366.862 87.7148C364.983 87.7212 363.714 86.2993 363.714 84.1602C363.714 82.0083 364.983 80.5928 366.862 80.5928C368.735 80.5928 369.992 82.0083 369.985 84.1602C369.992 86.2993 368.735 87.7212 366.862 87.7148ZM364.806 84.1602C364.812 85.5376 365.459 86.75 366.862 86.75C368.252 86.75 368.894 85.5376 368.894 84.1602C368.894 82.7891 368.252 81.5576 366.862 81.5576C365.459 81.5576 364.812 82.7891 364.806 84.1602ZM372.512 83.4365V87.5752H371.42V80.6816H372.474V81.7607H372.562C372.886 81.0562 373.534 80.5928 374.581 80.5928C375.978 80.5928 376.911 81.4434 376.904 83.1953V87.5752H375.812V83.2715C375.812 82.2051 375.229 81.5703 374.251 81.5703C373.248 81.5703 372.512 82.2432 372.512 83.4365ZM381.551 87.7148C379.558 87.7212 378.326 86.2993 378.326 84.1855C378.326 82.0654 379.577 80.5928 381.449 80.5928C382.896 80.5928 384.426 81.4814 384.42 84.0332V84.4902H379.418C379.475 85.9502 380.326 86.75 381.551 86.75C382.376 86.75 382.896 86.3882 383.15 85.9629H384.318C383.995 87.0103 382.973 87.7212 381.551 87.7148ZM379.424 83.5635H383.315C383.309 82.4146 382.585 81.5576 381.449 81.5576C380.256 81.5576 379.5 82.4971 379.424 83.5635ZM26.1582 95.3838V104.575H25.0156V95.3838H26.1582ZM31.0586 97.6816V98.5957H29.6113V102.595C29.605 103.477 30.0493 103.623 30.5127 103.623C30.7095 103.623 31.0015 103.604 31.1602 103.598V104.613C30.9888 104.639 30.7222 104.664 30.3984 104.664C29.478 104.664 28.5132 104.093 28.5068 102.874V98.5957H27.4658V97.6816H28.5068V96.0312H29.6113V97.6816H31.0586ZM37.2793 104.575L35.1846 97.6816H36.3398L37.8125 102.938H37.876L39.3359 97.6816H40.5039L41.9385 102.912H42.0146L43.4873 97.6816H44.6299L42.5352 104.575H41.4561L39.958 99.3193H39.8564L38.3711 104.575H37.2793ZM45.8359 104.575V97.6816H46.9277V104.575H45.8359ZM45.6201 95.8154C45.6138 95.4092 45.9629 95.0854 46.3818 95.0918C46.8008 95.0854 47.1499 95.4092 47.1562 95.8154C47.1499 96.2153 46.8008 96.5391 46.3818 96.5391C45.9629 96.5391 45.6138 96.2153 45.6201 95.8154ZM49.7588 95.3838V104.575H48.667V95.3838H49.7588ZM52.5898 95.3838V104.575H51.498V95.3838H52.5898ZM57.7314 104.575V95.3838H58.8232V98.7734H58.9121C59.147 98.4053 59.5596 97.5928 60.9053 97.5928C62.6318 97.5928 63.8442 98.9639 63.8506 101.147C63.8442 103.337 62.6318 104.721 60.918 104.715C59.5977 104.721 59.147 103.902 58.9121 103.521H58.7852V104.575H57.7314ZM58.7979 101.122C58.7979 102.671 59.4961 103.737 60.7529 103.737C62.0669 103.737 62.7397 102.588 62.7461 101.122C62.7397 99.6812 62.0859 98.5703 60.7529 98.5703C59.4834 98.5703 58.7979 99.5923 58.7979 101.122ZM68.167 104.715C66.1738 104.721 64.9424 103.299 64.9424 101.186C64.9424 99.0654 66.1929 97.5928 68.0654 97.5928C69.5127 97.5928 71.0425 98.4814 71.0361 101.033V101.49H66.0342C66.0913 102.95 66.9419 103.75 68.167 103.75C68.9922 103.75 69.5127 103.388 69.7666 102.963H70.9346C70.6108 104.01 69.5889 104.721 68.167 104.715ZM66.0405 100.563H69.9316C69.9253 99.4146 69.2017 98.5576 68.0654 98.5576C66.8721 98.5576 66.1167 99.4971 66.0405 100.563ZM79.5547 99.4717C79.4023 98.9004 78.9644 98.5259 78.1582 98.5195C77.3076 98.5259 76.7046 98.9829 76.6982 99.5605C76.7046 100.018 77.0728 100.329 77.8789 100.525L78.9072 100.779C80.1387 101.071 80.7417 101.687 80.748 102.646C80.7417 103.839 79.7705 104.721 78.0439 104.715C76.4951 104.721 75.5747 104.029 75.3906 102.772H76.5332C76.6602 103.445 77.1489 103.769 78.0186 103.763C79.0024 103.769 79.6182 103.356 79.6182 102.709C79.6182 102.22 79.269 101.903 78.4883 101.719L77.4473 101.478C76.2476 101.198 75.6064 100.544 75.6064 99.624C75.6064 98.4434 76.6411 97.5928 78.1582 97.5928C79.5864 97.5928 80.4814 98.3545 80.6211 99.4717H79.5547ZM83.2617 100.437V104.575H82.1699V95.3838H83.2617V98.7607H83.3506C83.6743 98.0498 84.29 97.5928 85.3818 97.5928C86.791 97.5928 87.7305 98.4243 87.7305 100.195V104.575H86.6387V100.271C86.6387 99.186 86.042 98.5703 85.0518 98.5703C84.0234 98.5703 83.2617 99.2432 83.2617 100.437ZM89.1523 102.62C89.1523 101.04 90.5488 100.678 91.7422 100.589C92.1865 100.557 93.2974 100.494 93.6084 100.487V99.9287C93.6084 99.0527 93.0879 98.5449 92.0469 98.5449C91.1772 98.5449 90.6504 98.9448 90.498 99.4717H89.3555C89.4951 98.3608 90.5742 97.5928 92.0977 97.5928C92.999 97.5928 94.6938 97.8594 94.6875 100.03V104.575H93.6084V103.636H93.5576C93.3291 104.099 92.7007 104.734 91.501 104.74C90.1934 104.734 89.1523 103.966 89.1523 102.62ZM90.2441 102.671C90.2505 103.401 90.8535 103.769 91.6914 103.763C92.9229 103.769 93.6084 102.944 93.6084 102.074V101.382C93.2847 101.401 92.1992 101.484 91.8691 101.503C90.8789 101.566 90.2505 101.916 90.2441 102.671ZM96.4395 104.575V97.6816H97.4932V98.7354H97.5693C97.8169 98.0371 98.5342 97.5737 99.3467 97.5674C99.5117 97.5737 99.791 97.5801 99.918 97.5928V98.6973C99.8354 98.6782 99.5435 98.6211 99.2578 98.6211C98.2676 98.6211 97.5312 99.3066 97.5312 100.233V104.575H96.4395ZM103.65 104.715C101.657 104.721 100.426 103.299 100.426 101.186C100.426 99.0654 101.676 97.5928 103.549 97.5928C104.996 97.5928 106.526 98.4814 106.52 101.033V101.49H101.518C101.575 102.95 102.425 103.75 103.65 103.75C104.476 103.75 104.996 103.388 105.25 102.963H106.418C106.094 104.01 105.072 104.721 103.65 104.715ZM101.524 100.563H105.415C105.409 99.4146 104.685 98.5576 103.549 98.5576C102.355 98.5576 101.6 99.4971 101.524 100.563ZM110.544 104.715C108.824 104.721 107.611 103.337 107.611 101.147C107.611 98.9639 108.824 97.5928 110.557 97.5928C111.896 97.5928 112.315 98.4053 112.55 98.7734H112.626V95.3838H113.73V104.575H112.664V103.521H112.55C112.309 103.902 111.858 104.721 110.544 104.715ZM108.716 101.122C108.716 102.588 109.389 103.737 110.696 103.737C111.959 103.737 112.658 102.671 112.664 101.122C112.658 99.5923 111.979 98.5703 110.696 98.5703C109.37 98.5703 108.716 99.6812 108.716 101.122ZM120.434 104.575L118.339 97.6816H119.494L120.967 102.938H121.03L122.49 97.6816H123.658L125.093 102.912H125.169L126.642 97.6816H127.784L125.689 104.575H124.61L123.112 99.3193H123.011L121.525 104.575H120.434ZM128.99 104.575V97.6816H130.082V104.575H128.99ZM128.774 95.8154C128.768 95.4092 129.117 95.0854 129.536 95.0918C129.955 95.0854 130.304 95.4092 130.311 95.8154C130.304 96.2153 129.955 96.5391 129.536 96.5391C129.117 96.5391 128.768 96.2153 128.774 95.8154ZM134.83 97.6816V98.5957H133.383V102.595C133.376 103.477 133.821 103.623 134.284 103.623C134.481 103.623 134.773 103.604 134.932 103.598V104.613C134.76 104.639 134.494 104.664 134.17 104.664C133.25 104.664 132.285 104.093 132.278 102.874V98.5957H131.237V97.6816H132.278V96.0312H133.383V97.6816H134.83ZM137.483 100.437V104.575H136.392V95.3838H137.483V98.7607H137.572C137.896 98.0498 138.512 97.5928 139.604 97.5928C141.013 97.5928 141.952 98.4243 141.952 100.195V104.575H140.86V100.271C140.86 99.186 140.264 98.5703 139.273 98.5703C138.245 98.5703 137.483 99.2432 137.483 100.437ZM147.665 107.165C147.43 107.159 147.195 107.152 147.056 107.14V106.162C147.17 106.175 147.417 106.181 147.589 106.188C148.033 106.181 148.408 106.156 148.77 105.146L148.973 104.626L146.421 97.6816H147.614L149.493 103.153H149.569L151.448 97.6816H152.642L149.722 105.565C149.315 106.651 148.643 107.159 147.665 107.165ZM156.412 104.715C154.533 104.721 153.264 103.299 153.264 101.16C153.264 99.0083 154.533 97.5928 156.412 97.5928C158.285 97.5928 159.542 99.0083 159.535 101.16C159.542 103.299 158.285 104.721 156.412 104.715ZM154.355 101.16C154.362 102.538 155.009 103.75 156.412 103.75C157.802 103.75 158.443 102.538 158.443 101.16C158.443 99.7891 157.802 98.5576 156.412 98.5576C155.009 98.5576 154.362 99.7891 154.355 101.16ZM165.324 101.744V97.6816H166.403V104.575H165.324V103.407H165.248C164.924 104.105 164.239 104.664 163.204 104.664C161.896 104.664 160.963 103.813 160.97 102.062V97.6816H162.062V101.985C162.062 102.976 162.677 103.617 163.56 103.61C164.34 103.617 165.318 103.033 165.324 101.744ZM168.155 104.575V97.6816H169.209V98.7354H169.285C169.533 98.0371 170.25 97.5737 171.062 97.5674C171.228 97.5737 171.507 97.5801 171.634 97.5928V98.6973C171.551 98.6782 171.259 98.6211 170.974 98.6211C169.983 98.6211 169.247 99.3066 169.247 100.233V104.575H168.155ZM179.048 97.6816V98.5957H177.524V104.575H176.42V98.5957H175.315V97.6816H176.42V96.7422C176.426 95.625 177.169 94.9521 178.388 94.9521C178.654 94.9521 178.972 94.9839 179.2 95.0283V96.0059C178.965 95.9678 178.769 95.9551 178.629 95.9551C177.861 95.9551 177.518 96.2725 177.524 96.9834V97.6816H179.048ZM179.81 102.62C179.81 101.04 181.206 100.678 182.399 100.589C182.844 100.557 183.955 100.494 184.266 100.487V99.9287C184.266 99.0527 183.745 98.5449 182.704 98.5449C181.834 98.5449 181.308 98.9448 181.155 99.4717H180.013C180.152 98.3608 181.231 97.5928 182.755 97.5928C183.656 97.5928 185.351 97.8594 185.345 100.03V104.575H184.266V103.636H184.215C183.986 104.099 183.358 104.734 182.158 104.74C180.851 104.734 179.81 103.966 179.81 102.62ZM180.901 102.671C180.908 103.401 181.511 103.769 182.349 103.763C183.58 103.769 184.266 102.944 184.266 102.074V101.382C183.942 101.401 182.856 101.484 182.526 101.503C181.536 101.566 180.908 101.916 180.901 102.671ZM187.097 104.575V97.6816H188.15V98.7607H188.239C188.525 98.0244 189.191 97.5928 190.093 97.5928C190.994 97.5928 191.61 98.0244 191.934 98.7607H192.01C192.359 98.0498 193.089 97.5928 194.079 97.5928C195.304 97.5928 196.187 98.3418 196.187 99.9668V104.575H195.095V99.9795C195.088 98.9639 194.454 98.5703 193.698 98.5703C192.74 98.5703 192.194 99.2178 192.188 100.094V104.575H191.083V99.8652C191.089 99.0908 190.531 98.5703 189.737 98.5703C188.912 98.5703 188.188 99.2686 188.188 100.271V104.575H187.097ZM197.938 104.575V97.6816H199.03V104.575H197.938ZM197.723 95.8154C197.716 95.4092 198.065 95.0854 198.484 95.0918C198.903 95.0854 199.252 95.4092 199.259 95.8154C199.252 96.2153 198.903 96.5391 198.484 96.5391C198.065 96.5391 197.716 96.2153 197.723 95.8154ZM201.861 95.3838V104.575H200.77V95.3838H201.861ZM204.299 107.165C204.064 107.159 203.829 107.152 203.689 107.14V106.162C203.804 106.175 204.051 106.181 204.223 106.188C204.667 106.181 205.042 106.156 205.403 105.146L205.606 104.626L203.055 97.6816H204.248L206.127 103.153H206.203L208.082 97.6816H209.275L206.355 105.565C205.949 106.651 205.276 107.159 204.299 107.165ZM213.414 102.62C213.414 101.04 214.811 100.678 216.004 100.589C216.448 100.557 217.559 100.494 217.87 100.487V99.9287C217.87 99.0527 217.35 98.5449 216.309 98.5449C215.439 98.5449 214.912 98.9448 214.76 99.4717H213.617C213.757 98.3608 214.836 97.5928 216.359 97.5928C217.261 97.5928 218.956 97.8594 218.949 100.03V104.575H217.87V103.636H217.819C217.591 104.099 216.962 104.734 215.763 104.74C214.455 104.734 213.414 103.966 213.414 102.62ZM214.506 102.671C214.512 103.401 215.115 103.769 215.953 103.763C217.185 103.769 217.87 102.944 217.87 102.074V101.382C217.546 101.401 216.461 101.484 216.131 101.503C215.141 101.566 214.512 101.916 214.506 102.671ZM221.793 100.437V104.575H220.701V97.6816H221.755V98.7607H221.844C222.167 98.0562 222.815 97.5928 223.862 97.5928C225.259 97.5928 226.192 98.4434 226.186 100.195V104.575H225.094V100.271C225.094 99.2051 224.51 98.5703 223.532 98.5703C222.529 98.5703 221.793 99.2432 221.793 100.437ZM230.54 104.715C228.82 104.721 227.607 103.337 227.607 101.147C227.607 98.9639 228.82 97.5928 230.553 97.5928C231.892 97.5928 232.311 98.4053 232.546 98.7734H232.622V95.3838H233.727V104.575H232.66V103.521H232.546C232.305 103.902 231.854 104.721 230.54 104.715ZM228.712 101.122C228.712 102.588 229.385 103.737 230.692 103.737C231.956 103.737 232.654 102.671 232.66 101.122C232.654 99.5923 231.975 98.5703 230.692 98.5703C229.366 98.5703 228.712 99.6812 228.712 101.122ZM241.966 97.6816V98.5957H240.442V104.575H239.338V98.5957H238.233V97.6816H239.338V96.7422C239.344 95.625 240.087 94.9521 241.306 94.9521C241.572 94.9521 241.89 94.9839 242.118 95.0283V96.0059C241.883 95.9678 241.687 95.9551 241.547 95.9551C240.779 95.9551 240.436 96.2725 240.442 96.9834V97.6816H241.966ZM243.261 104.575V97.6816H244.314V98.7354H244.391C244.638 98.0371 245.355 97.5737 246.168 97.5674C246.333 97.5737 246.612 97.5801 246.739 97.5928V98.6973C246.657 98.6782 246.365 98.6211 246.079 98.6211C245.089 98.6211 244.353 99.3066 244.353 100.233V104.575H243.261ZM247.806 104.575V97.6816H248.897V104.575H247.806ZM247.59 95.8154C247.583 95.4092 247.933 95.0854 248.352 95.0918C248.771 95.0854 249.12 95.4092 249.126 95.8154C249.12 96.2153 248.771 96.5391 248.352 96.5391C247.933 96.5391 247.583 96.2153 247.59 95.8154ZM253.531 104.715C251.538 104.721 250.307 103.299 250.307 101.186C250.307 99.0654 251.557 97.5928 253.43 97.5928C254.877 97.5928 256.407 98.4814 256.4 101.033V101.49H251.398C251.456 102.95 252.306 103.75 253.531 103.75C254.356 103.75 254.877 103.388 255.131 102.963H256.299C255.975 104.01 254.953 104.721 253.531 104.715ZM251.405 100.563H255.296C255.29 99.4146 254.566 98.5576 253.43 98.5576C252.236 98.5576 251.481 99.4971 251.405 100.563ZM258.914 100.437V104.575H257.822V97.6816H258.876V98.7607H258.965C259.289 98.0562 259.936 97.5928 260.983 97.5928C262.38 97.5928 263.313 98.4434 263.307 100.195V104.575H262.215V100.271C262.215 99.2051 261.631 98.5703 260.653 98.5703C259.65 98.5703 258.914 99.2432 258.914 100.437ZM267.661 104.715C265.941 104.721 264.729 103.337 264.729 101.147C264.729 98.9639 265.941 97.5928 267.674 97.5928C269.013 97.5928 269.432 98.4053 269.667 98.7734H269.743V95.3838H270.848V104.575H269.781V103.521H269.667C269.426 103.902 268.975 104.721 267.661 104.715ZM265.833 101.122C265.833 102.588 266.506 103.737 267.813 103.737C269.077 103.737 269.775 102.671 269.781 101.122C269.775 99.5923 269.096 98.5703 267.813 98.5703C266.487 98.5703 265.833 99.6812 265.833 101.122ZM276.573 99.4717C276.421 98.9004 275.983 98.5259 275.177 98.5195C274.326 98.5259 273.723 98.9829 273.717 99.5605C273.723 100.018 274.091 100.329 274.897 100.525L275.926 100.779C277.157 101.071 277.76 101.687 277.767 102.646C277.76 103.839 276.789 104.721 275.062 104.715C273.514 104.721 272.593 104.029 272.409 102.772H273.552C273.679 103.445 274.167 103.769 275.037 103.763C276.021 103.769 276.637 103.356 276.637 102.709C276.637 102.22 276.288 101.903 275.507 101.719L274.466 101.478C273.266 101.198 272.625 100.544 272.625 99.624C272.625 98.4434 273.66 97.5928 275.177 97.5928C276.605 97.5928 277.5 98.3545 277.64 99.4717H276.573ZM285.536 97.6816V98.5957H284.013V104.575H282.908V98.5957H281.804V97.6816H282.908V96.7422C282.915 95.625 283.657 94.9521 284.876 94.9521C285.143 94.9521 285.46 94.9839 285.688 95.0283V96.0059C285.454 95.9678 285.257 95.9551 285.117 95.9551C284.349 95.9551 284.006 96.2725 284.013 96.9834V97.6816H285.536ZM286.831 104.575V97.6816H287.885V98.7354H287.961C288.208 98.0371 288.926 97.5737 289.738 97.5674C289.903 97.5737 290.183 97.5801 290.31 97.5928V98.6973C290.227 98.6782 289.935 98.6211 289.649 98.6211C288.659 98.6211 287.923 99.3066 287.923 100.233V104.575H286.831ZM293.966 104.715C292.087 104.721 290.817 103.299 290.817 101.16C290.817 99.0083 292.087 97.5928 293.966 97.5928C295.838 97.5928 297.095 99.0083 297.089 101.16C297.095 103.299 295.838 104.721 293.966 104.715ZM291.909 101.16C291.916 102.538 292.563 103.75 293.966 103.75C295.356 103.75 295.997 102.538 295.997 101.16C295.997 99.7891 295.356 98.5576 293.966 98.5576C292.563 98.5576 291.916 99.7891 291.909 101.16ZM298.523 104.575V97.6816H299.577V98.7607H299.666C299.952 98.0244 300.618 97.5928 301.52 97.5928C302.421 97.5928 303.037 98.0244 303.36 98.7607H303.437C303.786 98.0498 304.516 97.5928 305.506 97.5928C306.731 97.5928 307.613 98.3418 307.613 99.9668V104.575H306.521V99.9795C306.515 98.9639 305.88 98.5703 305.125 98.5703C304.167 98.5703 303.621 99.2178 303.614 100.094V104.575H302.51V99.8652C302.516 99.0908 301.958 98.5703 301.164 98.5703C300.339 98.5703 299.615 99.2686 299.615 100.271V104.575H298.523ZM315.637 97.6816V98.5957H314.189V102.595C314.183 103.477 314.627 103.623 315.091 103.623C315.288 103.623 315.58 103.604 315.738 103.598V104.613C315.567 104.639 315.3 104.664 314.977 104.664C314.056 104.664 313.091 104.093 313.085 102.874V98.5957H312.044V97.6816H313.085V96.0312H314.189V97.6816H315.637ZM317.046 104.575V97.6816H318.138V104.575H317.046ZM316.83 95.8154C316.824 95.4092 317.173 95.0854 317.592 95.0918C318.011 95.0854 318.36 95.4092 318.366 95.8154C318.36 96.2153 318.011 96.5391 317.592 96.5391C317.173 96.5391 316.824 96.2153 316.83 95.8154ZM319.877 104.575V97.6816H320.931V98.7607H321.02C321.305 98.0244 321.972 97.5928 322.873 97.5928C323.774 97.5928 324.39 98.0244 324.714 98.7607H324.79C325.139 98.0498 325.869 97.5928 326.859 97.5928C328.084 97.5928 328.967 98.3418 328.967 99.9668V104.575H327.875V99.9795C327.869 98.9639 327.234 98.5703 326.479 98.5703C325.52 98.5703 324.974 99.2178 324.968 100.094V104.575H323.863V99.8652C323.87 99.0908 323.311 98.5703 322.518 98.5703C321.692 98.5703 320.969 99.2686 320.969 100.271V104.575H319.877ZM333.613 104.715C331.62 104.721 330.389 103.299 330.389 101.186C330.389 99.0654 331.639 97.5928 333.512 97.5928C334.959 97.5928 336.489 98.4814 336.482 101.033V101.49H331.48C331.538 102.95 332.388 103.75 333.613 103.75C334.438 103.75 334.959 103.388 335.213 102.963H336.381C336.057 104.01 335.035 104.721 333.613 104.715ZM331.487 100.563H335.378C335.372 99.4146 334.648 98.5576 333.512 98.5576C332.318 98.5576 331.563 99.4971 331.487 100.563ZM344.176 97.6816V98.5957H342.729V102.595C342.722 103.477 343.167 103.623 343.63 103.623C343.827 103.623 344.119 103.604 344.277 103.598V104.613C344.106 104.639 343.839 104.664 343.516 104.664C342.595 104.664 341.63 104.093 341.624 102.874V98.5957H340.583V97.6816H341.624V96.0312H342.729V97.6816H344.176ZM348.327 104.715C346.448 104.721 345.179 103.299 345.179 101.16C345.179 99.0083 346.448 97.5928 348.327 97.5928C350.2 97.5928 351.457 99.0083 351.45 101.16C351.457 103.299 350.2 104.721 348.327 104.715ZM346.271 101.16C346.277 102.538 346.924 103.75 348.327 103.75C349.717 103.75 350.358 102.538 350.358 101.16C350.358 99.7891 349.717 98.5576 348.327 98.5576C346.924 98.5576 346.277 99.7891 346.271 101.16ZM359.156 97.6816V98.5957H357.709V102.595C357.703 103.477 358.147 103.623 358.61 103.623C358.807 103.623 359.099 103.604 359.258 103.598V104.613C359.086 104.639 358.82 104.664 358.496 104.664C357.576 104.664 356.611 104.093 356.604 102.874V98.5957H355.563V97.6816H356.604V96.0312H357.709V97.6816H359.156ZM360.565 104.575V97.6816H361.657V104.575H360.565ZM360.35 95.8154C360.343 95.4092 360.692 95.0854 361.111 95.0918C361.53 95.0854 361.879 95.4092 361.886 95.8154C361.879 96.2153 361.53 96.5391 361.111 96.5391C360.692 96.5391 360.343 96.2153 360.35 95.8154ZM363.396 104.575V97.6816H364.45V98.7607H364.539C364.825 98.0244 365.491 97.5928 366.393 97.5928C367.294 97.5928 367.91 98.0244 368.233 98.7607H368.31C368.659 98.0498 369.389 97.5928 370.379 97.5928C371.604 97.5928 372.486 98.3418 372.486 99.9668V104.575H371.395V99.9795C371.388 98.9639 370.753 98.5703 369.998 98.5703C369.04 98.5703 368.494 99.2178 368.487 100.094V104.575H367.383V99.8652C367.389 99.0908 366.831 98.5703 366.037 98.5703C365.212 98.5703 364.488 99.2686 364.488 100.271V104.575H363.396ZM377.133 104.715C375.14 104.721 373.908 103.299 373.908 101.186C373.908 99.0654 375.159 97.5928 377.031 97.5928C378.479 97.5928 380.008 98.4814 380.002 101.033V101.49H375C375.057 102.95 375.908 103.75 377.133 103.75C377.958 103.75 378.479 103.388 378.732 102.963H379.9C379.577 104.01 378.555 104.721 377.133 104.715ZM375.006 100.563H378.897C378.891 99.4146 378.167 98.5576 377.031 98.5576C375.838 98.5576 375.083 99.4971 375.006 100.563ZM390.361 97.6816L387.81 104.575H386.68L384.141 97.6816H385.334L387.213 103.153H387.289L389.168 97.6816H390.361ZM391.567 104.575V97.6816H392.659V104.575H391.567ZM391.352 95.8154C391.345 95.4092 391.694 95.0854 392.113 95.0918C392.532 95.0854 392.881 95.4092 392.888 95.8154C392.881 96.2153 392.532 96.5391 392.113 96.5391C391.694 96.5391 391.345 96.2153 391.352 95.8154ZM394.068 102.62C394.068 101.04 395.465 100.678 396.658 100.589C397.103 100.557 398.213 100.494 398.524 100.487V99.9287C398.524 99.0527 398.004 98.5449 396.963 98.5449C396.093 98.5449 395.566 98.9448 395.414 99.4717H394.271C394.411 98.3608 395.49 97.5928 397.014 97.5928C397.915 97.5928 399.61 97.8594 399.604 100.03V104.575H398.524V103.636H398.474C398.245 104.099 397.617 104.734 396.417 104.74C395.109 104.734 394.068 103.966 394.068 102.62ZM395.16 102.671C395.167 103.401 395.77 103.769 396.607 103.763C397.839 103.769 398.524 102.944 398.524 102.074V101.382C398.201 101.401 397.115 101.484 396.785 101.503C395.795 101.566 395.167 101.916 395.16 102.671ZM405.164 104.575H403.971L407.335 95.3838H408.541L411.905 104.575H410.699L409.779 101.985H406.084L405.164 104.575ZM406.434 100.982H409.43L407.97 96.8691H407.894L406.434 100.982ZM414.292 95.3838V104.575H413.149V95.3838H414.292ZM416.958 104.651C416.514 104.645 416.133 104.277 416.146 103.826C416.133 103.382 416.514 103.014 416.958 103.014C417.409 103.014 417.777 103.382 417.771 103.826C417.777 104.277 417.409 104.645 416.958 104.651Z" fill="#777777"/>
<rect x="24" y="154.575" width="455" height="58" rx="12" fill="#0075FF"/>
<path d="M207.332 176.435H210.633L213.895 182.528H214.031L217.273 176.435H220.574L215.418 185.536V190.575H212.488V185.536L207.332 176.435ZM224.656 190.79C221.404 190.78 219.412 188.681 219.422 185.321C219.412 182.05 221.434 179.833 224.539 179.833C227.322 179.833 229.52 181.591 229.52 185.204V186.024H222.273C222.273 187.626 223.221 188.612 224.715 188.622C225.701 188.612 226.404 188.183 226.688 187.548H229.441C229.031 189.511 227.273 190.78 224.656 190.79ZM222.273 184.208H226.785C226.775 182.919 225.887 181.991 224.598 182.001C223.27 181.991 222.332 182.987 222.273 184.208ZM237.391 183.114C237.264 182.372 236.619 181.894 235.652 181.884C234.715 181.894 234.002 182.333 234.012 182.978C234.002 183.456 234.373 183.827 235.379 184.032L237.273 184.423C239.334 184.853 240.33 185.771 240.34 187.294C240.33 189.384 238.455 190.78 235.633 190.79C232.771 190.78 231.092 189.501 230.848 187.431H233.758C233.895 188.261 234.568 188.69 235.633 188.7C236.688 188.69 237.391 188.271 237.391 187.587C237.391 187.04 236.941 186.698 235.945 186.493L234.188 186.142C232.166 185.741 231.131 184.706 231.141 183.134C231.131 181.103 232.879 179.833 235.613 179.833C238.289 179.833 239.949 181.103 240.105 183.114H237.391ZM245.262 189.13L243.582 194.696H241.512L242.488 189.13H245.262ZM256.59 190.79C253.387 190.78 251.385 188.583 251.395 185.302C251.385 182.03 253.387 179.833 256.59 179.833C259.803 179.833 261.795 182.03 261.805 185.302C261.795 188.583 259.803 190.78 256.59 190.79ZM254.324 185.302C254.324 187.157 255.096 188.534 256.609 188.544C258.084 188.534 258.865 187.157 258.855 185.302C258.865 183.437 258.084 182.04 256.609 182.04C255.096 182.04 254.324 183.437 254.324 185.302ZM263.621 190.575V176.435H266.512V184.032H266.668L270.105 179.97H273.426L269.471 184.56L273.641 190.575H270.242L267.322 186.259L266.512 187.177V190.575H263.621ZM274.266 187.606C274.275 185.243 276.17 184.472 278.211 184.345C278.973 184.296 280.398 184.228 280.848 184.208V183.349C280.838 182.46 280.232 181.952 279.148 181.942C278.162 181.952 277.547 182.392 277.391 183.114H274.637C274.812 181.278 276.414 179.833 279.227 179.833C281.541 179.833 283.729 180.868 283.719 183.427V190.575H280.984V189.11H280.906C280.389 190.087 279.373 190.78 277.801 190.771C275.77 190.78 274.275 189.706 274.266 187.606ZM277.039 187.528C277.039 188.339 277.693 188.769 278.621 188.778C279.939 188.769 280.857 187.909 280.848 186.786V186.015C280.408 186.034 279.168 186.103 278.68 186.142C277.674 186.229 277.039 186.708 277.039 187.528ZM287.234 194.56C286.668 194.55 286.141 194.54 285.77 194.501V192.255C286.141 192.284 286.58 192.294 286.941 192.294C287.518 192.294 287.977 192.235 288.328 191.317L288.504 190.868L284.695 179.97H287.723L289.949 187.782H290.066L292.312 179.97H295.379L291.238 191.747C290.633 193.456 289.471 194.55 287.234 194.56Z" fill="white"/>
</svg>
