<svg width="415" height="355" viewBox="0 0 415 355" fill="none" xmlns="http://www.w3.org/2000/svg">
<rect x="409.147" y="69.4238" width="0.851786" height="155.877" fill="#D9D9D9"/>
<path d="M205.57 174.194C193.772 174.194 194.37 193.785 182.572 193.785C175 193.785 173.5 185 161 179.5C158.928 179.759 152.5 181.5 144.5 189.5C140 193 135.957 193.473 133 196.5C131 198 124 213.5 116.5 214.5C106 215.5 101.5 193.5 92 193.5C83.255 193.5 77.3012 200.805 69.5 201C60.4889 201.225 51 188.5 30 197C26.5 197 11.5 197.5 1 201.5V233.393H409.147V122.235C405.918 134.762 399.352 146.085 387.001 146.085C375.008 146.085 372.946 141.4 364.003 143.529C352.816 146.193 355.188 169.509 341.856 169.509C329.931 169.509 329.452 153.938 318.858 147.362C306.507 139.696 310.453 120.225 295.86 115.846C283.083 112.013 285.638 105.625 273.713 105.625C258.381 105.625 260.511 135.012 250.715 149.492C239.879 165.51 244.327 193.785 228.569 193.785C216.77 193.785 217.369 174.194 205.57 174.194Z" fill="url(#paint0_linear_301_1800)" fill-opacity="0.4"/>
<path d="M1.1416 201.877C9.37268 198.378 15.1961 197.192 24.1398 197.192C33.0836 197.192 37.7684 193.785 47.138 193.785C56.1869 193.785 60.2361 200.505 69.2845 200.599C78.6513 200.697 83.3389 193.785 92.2827 193.785C104.41 193.785 103.155 214.882 115.281 214.654C127.162 214.43 127.206 197.192 137.427 193.785C147.331 190.483 149.986 180.156 160.426 180.156C171.073 180.156 172.419 194.014 182.572 193.785C194.367 193.518 193.772 174.194 205.57 174.194C217.368 174.194 216.77 193.785 228.568 193.785C244.326 193.785 239.879 165.51 250.715 149.492C260.51 135.012 258.381 105.625 273.713 105.625C285.638 105.625 283.083 112.013 295.859 115.846C310.453 120.225 306.507 139.696 318.858 147.363C329.451 153.938 329.931 169.509 341.856 169.509C355.188 169.509 352.816 146.193 364.002 143.529C372.946 141.4 375.007 146.085 387.001 146.085C399.351 146.085 405.918 134.762 409.147 122.235" stroke="#4285F4" stroke-width="1.70357" stroke-linecap="round"/>
<circle opacity="0.2" cx="409.037" cy="123.828" r="5.11071" fill="#4285F4"/>
<circle cx="409.037" cy="123.828" r="2.55536" fill="#4285F4"/>
<defs>
<linearGradient id="paint0_linear_301_1800" x1="284.786" y1="105.625" x2="284.786" y2="221.894" gradientUnits="userSpaceOnUse">
<stop stop-color="#4285F4" stop-opacity="0.6"/>
<stop offset="1" stop-color="#4285F4" stop-opacity="0"/>
</linearGradient>
</defs>
</svg>
