<svg width="120" height="121" viewBox="0 0 120 121" fill="none" xmlns="http://www.w3.org/2000/svg">
<path d="M71.25 27.1328C71.25 24.1491 70.0647 21.2876 67.955 19.1779C65.8452 17.0681 62.9837 15.8828 60 15.8828C57.0163 15.8828 54.1548 17.0681 52.045 19.1779C49.9353 21.2876 48.75 24.1491 48.75 27.1328L71.25 27.1328Z" fill="#F4C00B"/>
<mask id="mask0_108_1402" style="mask-type:alpha" maskUnits="userSpaceOnUse" x="22" y="25" width="76" height="70">
<path d="M96.6517 91.5599C96.1005 92.4991 95.3033 93.2786 94.3418 93.8184C93.3802 94.3583 92.2889 94.6391 91.1795 94.6322H28.8205C27.7111 94.6391 26.6198 94.3583 25.6582 93.8184C24.6967 93.2786 23.8995 92.4991 23.3483 91.5599C22.7862 90.6205 22.4932 89.5509 22.5001 88.4631C22.507 87.3753 22.8136 86.3094 23.3877 85.3768C25.7104 81.4596 28.576 72.226 28.576 59.0534V55.9811C28.5709 51.945 29.3819 47.9476 30.9629 44.2178C32.5438 40.488 34.8634 37.0991 37.789 34.2452C40.7146 31.3913 44.1885 29.1284 48.012 27.5862C51.8354 26.044 55.9331 25.2528 60.0705 25.2578H60.3067C77.5499 25.373 91.5649 39.3137 91.5649 56.3267V59.0534C91.5649 72.226 94.2896 81.4596 96.6123 85.3768C97.1864 86.3094 97.493 87.3753 97.4999 88.4631C97.5068 89.5509 97.2138 90.6205 96.6517 91.5599Z" fill="#FFF1BE"/>
</mask>
<g mask="url(#mask0_108_1402)">
<path d="M96.6517 91.5599C96.1005 92.4991 95.3033 93.2786 94.3418 93.8184C93.3802 94.3583 92.2889 94.6391 91.1795 94.6322H28.8205C27.7111 94.6391 26.6198 94.3583 25.6582 93.8184C24.6967 93.2786 23.8995 92.4991 23.3483 91.5599C22.7862 90.6205 22.4932 89.5509 22.5001 88.4631C22.507 87.3753 22.8136 86.3094 23.3877 85.3768C25.7104 81.4596 28.576 72.226 28.576 59.0534V55.9811C28.5709 51.945 29.3819 47.9476 30.9629 44.2178C32.5438 40.488 34.8634 37.0991 37.789 34.2452C40.7146 31.3913 44.1885 29.1284 48.012 27.5862C51.8354 26.044 55.9331 25.2528 60.0705 25.2578H60.3067C77.5499 25.373 91.5649 39.3137 91.5649 56.3267V59.0534C91.5649 72.226 94.2896 81.4596 96.6123 85.3768C97.1864 86.3094 97.493 87.3753 97.4999 88.4631C97.5068 89.5509 97.2138 90.6205 96.6517 91.5599Z" fill="url(#paint0_radial_108_1402)"/>
<rect x="37.5" y="49.6328" width="7.5" height="30" fill="url(#paint1_linear_108_1402)"/>
<rect x="22.5" y="87.1328" width="75" height="11.25" fill="#FFE589"/>
</g>
<path d="M48.75 94.6328C48.75 97.6165 49.9353 100.478 52.045 102.588C54.1548 104.698 57.0163 105.883 60 105.883C62.9837 105.883 65.8452 104.698 67.955 102.588C70.0647 100.478 71.25 97.6165 71.25 94.6328L48.75 94.6328Z" fill="#F4C00B"/>
<circle cx="41.25" cy="42.1328" r="3.75" fill="white"/>
<defs>
<radialGradient id="paint0_radial_108_1402" cx="0" cy="0" r="1" gradientUnits="userSpaceOnUse" gradientTransform="translate(60 47.7578) rotate(90) scale(46.8745 50.6755)">
<stop stop-color="#FFE58A"/>
<stop offset="1" stop-color="#EBB700"/>
</radialGradient>
<linearGradient id="paint1_linear_108_1402" x1="41.25" y1="49.6328" x2="41.25" y2="79.6328" gradientUnits="userSpaceOnUse">
<stop stop-color="white"/>
<stop offset="1" stop-color="white" stop-opacity="0"/>
</linearGradient>
</defs>
</svg>
