<svg width="428" height="880" viewBox="0 0 428 880" fill="none" xmlns="http://www.w3.org/2000/svg">
<rect width="428" height="880" rx="73" fill="#585858"/>
<rect x="1" y="1" width="426" height="878" rx="72" stroke="black" stroke-opacity="0.2" stroke-width="2"/>
<rect x="12" y="12" width="402" height="856" rx="66" fill="white"/>
<rect x="12" y="12" width="402" height="856" rx="66" stroke="black" stroke-width="12"/>
<path d="M70.1963 37.8145C72.4043 37.8311 74.7285 39.1592 74.7285 43.5586C74.7285 47.7754 72.9189 50.166 70.0303 50.166C67.8223 50.166 66.2617 48.8047 65.9795 46.8457H67.7891C68.0381 47.8584 68.8184 48.5723 70.0303 48.5723C71.8896 48.5723 72.9688 46.9453 72.9854 44.2061H72.8359C72.1885 45.2188 71.0596 45.833 69.7646 45.833C67.6064 45.833 65.8799 44.1895 65.8799 41.8818C65.8799 39.5908 67.5898 37.7979 70.1963 37.8145ZM70.1963 39.3418C68.7354 39.3418 67.6562 40.4707 67.6562 41.8486C67.6562 43.2432 68.7021 44.3389 70.1631 44.3389C71.6074 44.3389 72.7363 43.1602 72.7363 41.832C72.7363 40.5371 71.6738 39.3418 70.1963 39.3418ZM77.153 48.4561C76.5055 48.4561 75.9577 47.9248 75.9743 47.2773C75.9577 46.6299 76.5055 46.0986 77.153 46.0986C77.7839 46.0986 78.3317 46.6299 78.3317 47.2773C78.3317 47.9248 77.7839 48.4561 77.153 48.4561ZM77.153 41.8984C76.5055 41.8984 75.9577 41.3672 75.9743 40.7197C75.9577 40.0723 76.5055 39.541 77.153 39.541C77.7839 39.541 78.3317 40.0723 78.3317 40.7197C78.3317 41.3672 77.7839 41.8984 77.153 41.8984ZM79.5111 47.6592V46.1816L84.8236 37.9805H87.0814V46.1152H88.725V47.6592H87.0814V50H85.3548V47.6592H79.5111ZM81.4369 46.1152H85.3548V40.1553H85.222L81.4369 46.0156V46.1152ZM94.2871 37.9805V50H92.4444V39.8066H92.378L89.5059 41.6826V39.9395L92.4942 37.9805H94.2871Z" fill="black"/>
<rect x="324.35" y="37" width="3.2" height="12" rx="1" fill="black"/>
<rect x="319.05" y="39.4004" width="3.2" height="9.6" rx="1" fill="black"/>
<rect x="313.75" y="42" width="3.2" height="7" rx="1" fill="black"/>
<rect x="308.45" y="44.4004" width="3.2" height="4.6" rx="1" fill="black"/>
<path d="M342.009 45.1338C342.712 45.1338 343.396 45.3186 343.998 45.6711L344.242 45.8139C344.427 45.9222 344.459 46.1756 344.308 46.3268L342.224 48.4045C342.096 48.5322 341.889 48.5322 341.761 48.4045L339.691 46.3402C339.54 46.1896 339.571 45.9375 339.755 45.8284L339.996 45.685C340.604 45.3236 341.296 45.1338 342.009 45.1338Z" fill="black"/>
<path d="M342.009 41.3164C343.759 41.3164 345.439 41.8969 346.807 42.972L347.001 43.1239C347.155 43.245 347.169 43.4733 347.03 43.6117L345.786 44.8521C345.671 44.9668 345.489 44.98 345.358 44.8831L345.207 44.7704C344.282 44.0833 343.168 43.7148 342.009 43.7148C340.842 43.7148 339.721 44.0879 338.794 44.7828L338.642 44.8966C338.512 44.9943 338.329 44.9814 338.213 44.8664L336.97 43.6264C336.831 43.4883 336.845 43.2606 336.998 43.1393L337.19 42.9872C338.562 41.9026 340.25 41.3164 342.009 41.3164Z" fill="black"/>
<path d="M342.009 37.5C344.786 37.5 347.442 38.4796 349.544 40.2752L349.723 40.4285C349.868 40.5524 349.877 40.7731 349.742 40.9078L348.502 42.1441C348.382 42.2639 348.19 42.2723 348.06 42.1635L347.906 42.0351C346.251 40.6512 344.177 39.8984 342.009 39.8984C339.833 39.8984 337.752 40.6564 336.095 42.049L335.941 42.178C335.811 42.2873 335.619 42.2791 335.498 42.1591L334.259 40.9229C334.124 40.7885 334.132 40.5681 334.277 40.4441L334.455 40.2908C336.56 38.4855 339.223 37.5 342.009 37.5Z" fill="black"/>
<rect x="358" y="38.5" width="21" height="9" rx="1.33" fill="black"/>
<path opacity="0.4" fill-rule="evenodd" clip-rule="evenodd" d="M361.6 37.5H375.4C376.397 37.5 377.084 37.5008 377.617 37.5444C378.139 37.587 378.425 37.6655 378.635 37.7725C379.105 38.0122 379.488 38.3946 379.728 38.865C379.834 39.0749 379.913 39.3608 379.956 39.8826C379.999 40.4161 380 41.1034 380 42.1V43.9C380 44.8966 379.999 45.5839 379.956 46.1174C379.913 46.6392 379.834 46.9251 379.728 47.135C379.488 47.6054 379.105 47.9878 378.635 48.2275C378.425 48.3345 378.139 48.413 377.617 48.4556C377.084 48.4992 376.397 48.5 375.4 48.5H361.6C360.603 48.5 359.916 48.4992 359.383 48.4556C358.861 48.413 358.575 48.3345 358.365 48.2275C357.895 47.9878 357.512 47.6054 357.272 47.135C357.166 46.9251 357.087 46.6392 357.044 46.1174C357.001 45.5839 357 44.8966 357 43.9V42.1C357 41.1034 357.001 40.4161 357.044 39.8826C357.087 39.3608 357.166 39.0749 357.272 38.865C357.512 38.3946 357.895 38.0122 358.365 37.7725C358.575 37.6655 358.861 37.587 359.383 37.5444C359.916 37.5008 360.603 37.5 361.6 37.5ZM356 42.1C356 40.1398 356 39.1597 356.381 38.411C356.717 37.7525 357.252 37.217 357.911 36.8815C358.66 36.5 359.64 36.5 361.6 36.5H375.4C377.36 36.5 378.34 36.5 379.089 36.8815C379.748 37.217 380.283 37.7525 380.619 38.411C381 39.1597 381 40.1398 381 42.1V43.9C381 45.8602 381 46.8403 380.619 47.589C380.283 48.2475 379.748 48.783 379.089 49.1185C378.34 49.5 377.36 49.5 375.4 49.5H361.6C359.64 49.5 358.66 49.5 357.911 49.1185C357.252 48.783 356.717 48.2475 356.381 47.589C356 46.8403 356 45.8602 356 43.9V42.1ZM382 45C382.828 44.8 383.5 44.1046 383.5 43C383.5 41.8954 382.828 41.2 382 41L382 43L382 45Z" fill="black"/>
<path fill-rule="evenodd" clip-rule="evenodd" d="M213 490C240.614 490 263 467.614 263 440C263 412.386 240.614 390 213 390C185.386 390 163 412.386 163 440C163 467.614 185.386 490 213 490ZM220.813 427.5C220.813 424.911 222.911 422.813 225.5 422.813C228.089 422.813 230.188 424.911 230.188 427.5C230.188 430.089 228.089 432.188 225.5 432.188H197.375C196.512 432.188 195.813 432.887 195.813 433.75C195.813 434.613 196.512 435.313 197.375 435.313H225.5C229.815 435.313 233.313 431.815 233.313 427.5C233.313 423.186 229.815 419.688 225.5 419.688C221.185 419.688 217.688 423.186 217.688 427.5C217.688 428.363 218.387 429.063 219.25 429.063C220.113 429.063 220.813 428.363 220.813 427.5ZM234.875 454.063C232.286 454.063 230.187 451.964 230.187 449.375C230.187 448.512 229.488 447.813 228.625 447.813C227.762 447.813 227.062 448.512 227.062 449.375C227.062 453.69 230.56 457.188 234.875 457.188C239.19 457.188 242.687 453.69 242.687 449.375C242.687 445.06 239.19 441.563 234.875 441.563H184.875C184.012 441.563 183.312 442.262 183.312 443.125C183.312 443.988 184.012 444.688 184.875 444.688H234.875C237.464 444.688 239.562 446.786 239.562 449.375C239.562 451.964 237.464 454.063 234.875 454.063ZM191.125 452.5C190.262 452.5 189.562 453.2 189.562 454.062C189.562 454.925 190.262 455.625 191.125 455.625H222.375C223.238 455.625 223.937 454.925 223.937 454.062C223.937 453.2 223.238 452.5 222.375 452.5H191.125Z" fill="#0075FF"/>
</svg>
