<svg width="48" height="48" viewBox="0 0 48 48" fill="none" xmlns="http://www.w3.org/2000/svg">
<path fill-rule="evenodd" clip-rule="evenodd" d="M24 48C37.2548 48 48 37.2548 48 24C48 10.7452 37.2548 0 24 0C10.7452 0 0 10.7452 0 24C0 37.2548 10.7452 48 24 48ZM27.75 18C27.75 16.7574 28.7574 15.75 30 15.75C31.2426 15.75 32.25 16.7574 32.25 18C32.25 19.2426 31.2426 20.25 30 20.25H16.5C16.0858 20.25 15.75 20.5858 15.75 21C15.75 21.4142 16.0858 21.75 16.5 21.75H30C32.0711 21.75 33.75 20.0711 33.75 18C33.75 15.9289 32.0711 14.25 30 14.25C27.9289 14.25 26.25 15.9289 26.25 18C26.25 18.4142 26.5858 18.75 27 18.75C27.4142 18.75 27.75 18.4142 27.75 18ZM34.5 30.75C33.2574 30.75 32.25 29.7426 32.25 28.5C32.25 28.0858 31.9142 27.75 31.5 27.75C31.0858 27.75 30.75 28.0858 30.75 28.5C30.75 30.5711 32.4289 32.25 34.5 32.25C36.5711 32.25 38.25 30.5711 38.25 28.5C38.25 26.4289 36.5711 24.75 34.5 24.75H10.5C10.0858 24.75 9.75 25.0858 9.75 25.5C9.75 25.9142 10.0858 26.25 10.5 26.25H34.5C35.7426 26.25 36.75 27.2574 36.75 28.5C36.75 29.7426 35.7426 30.75 34.5 30.75ZM13.5 30C13.0858 30 12.75 30.3358 12.75 30.75C12.75 31.1642 13.0858 31.5 13.5 31.5H28.5C28.9142 31.5 29.25 31.1642 29.25 30.75C29.25 30.3358 28.9142 30 28.5 30H13.5Z" fill="#0075FF"/>
</svg>
