<svg width="24" height="25" viewBox="0 0 24 25" fill="none" xmlns="http://www.w3.org/2000/svg">
<path d="M10 15.0898L15.19 12.0898L10 9.08984V15.0898ZM21.56 7.25984C21.69 7.72984 21.78 8.35984 21.84 9.15984C21.91 9.95984 21.94 10.6498 21.94 11.2498L22 12.0898C22 14.2798 21.84 15.8898 21.56 16.9198C21.31 17.8198 20.73 18.3998 19.83 18.6498C19.36 18.7798 18.5 18.8698 17.18 18.9298C15.88 18.9998 14.69 19.0298 13.59 19.0298L12 19.0898C7.81 19.0898 5.2 18.9298 4.17 18.6498C3.27 18.3998 2.69 17.8198 2.44 16.9198C2.31 16.4498 2.22 15.8198 2.16 15.0198C2.09 14.2198 2.06 13.5298 2.06 12.9298L2 12.0898C2 9.89984 2.16 8.28984 2.44 7.25984C2.69 6.35984 3.27 5.77984 4.17 5.52984C4.64 5.39984 5.5 5.30984 6.82 5.24984C8.12 5.17984 9.31 5.14984 10.41 5.14984L12 5.08984C16.19 5.08984 18.8 5.24984 19.83 5.52984C20.73 5.77984 21.31 6.35984 21.56 7.25984Z" fill="#292E34"/>
</svg>
