<svg width="144" height="130" viewBox="0 0 144 130" fill="none" xmlns="http://www.w3.org/2000/svg">
<ellipse cx="72" cy="64.9997" rx="63" ry="62.9997" fill="url(#paint0_linear_2096_4015)"/>
<mask id="mask0_2096_4015" style="mask-type:alpha" maskUnits="userSpaceOnUse" x="9" y="2" width="126" height="126">
<ellipse cx="72" cy="64.9997" rx="63" ry="62.9997" fill="#D9D9D9"/>
</mask>
<g mask="url(#mask0_2096_4015)">
<path d="M47.8544 135.665C48.7021 123.069 55.2512 106.831 56.3814 105.82L91.8704 106.525C95.0675 115.51 98.2155 125.36 97.5963 135.665C96.8246 148.506 91.7695 162.052 91.8704 175.51C95.8326 204.731 95.7091 221.953 96.3833 231.228H80.1629C80.6126 228.135 77.3811 206.405 76.3929 180.463C73.1736 164.366 72.5404 136.504 71.844 138.147C71.3184 139.386 71.4401 172.538 68.7161 180.091C65.9921 187.644 68.8341 225.079 68.7161 231.228H48.4651C48.677 226.486 50.6677 195.197 53.9132 173.653C54.6951 168.462 47.0068 148.26 47.8544 135.665Z" fill="#6587BB"/>
<g filter="url(#filter0_i_2096_4015)">
<path d="M51.4046 61.051C52.8458 58.1685 53.9796 58.2183 54.48 58.9189C58.9839 70.2874 56.0217 94.9771 56.0217 97.3791C56.0217 99.7812 51.2176 103.785 48.8155 105.486C42.5101 107.588 31.2211 82.393 30.3203 75.1869C34.2236 67.9808 37.5362 69.5023 38.1367 69.5023C38.7372 69.5023 46.7737 80.8651 47.3742 80.8651C47.9747 80.8651 49.603 64.654 51.4046 61.051Z" fill="url(#paint1_linear_2096_4015)"/>
</g>
<g filter="url(#filter1_i_2096_4015)">
<path d="M53.5422 58.532L67.4927 53.761C72.7774 52.8002 79.5029 53.3606 82.205 53.761C88.8106 54.8619 100.054 57.0908 99.0934 58.532C97.8924 60.3336 91.4956 104.612 91.1954 105.813C90.8951 107.014 78.7981 110.935 72.961 111.426C69.9333 111.68 64.1322 110.234 61.351 109.366C58.5699 108.498 55.103 106.646 56.377 104.392C57.3678 102.638 53.6289 89.7156 52.4799 84.0867C51.4031 78.8112 54.5981 71.6224 54.4866 70.2843C54.2498 67.442 54.7432 62.7356 53.5422 58.532Z" fill="url(#paint2_linear_2096_4015)"/>
</g>
<g filter="url(#filter2_di_2096_4015)">
<path d="M62.7762 60.3371C62.0683 53.9419 69.1721 51.8102 69.1721 51.8102L79.8244 51.0996C81.2256 52.4007 86.4233 54.6315 86.2246 56.7842C85.2598 67.2324 78.582 70.7063 74.2783 76.2109C78.7822 87.3203 76.6804 94.2262 74.8788 94.2262C73.4376 94.2262 71.8763 84.8182 71.2758 80.1142C70.7953 82.5163 67.9729 91.2236 65.5709 94.2262C64.1297 89.9025 67.7728 80.4145 69.7745 76.2109C69.7745 76.2109 63.484 66.7323 62.7762 60.3371Z" fill="#F3CE69"/>
</g>
<path d="M73.3078 79.0209C73.7462 77.3848 75.4278 76.414 77.0638 76.8523L95.2496 81.7252C96.9645 82.1847 97.9321 83.9999 97.3577 85.6797L88.9989 110.123C88.5919 111.313 87.4997 112.134 86.2435 112.194L68.3319 113.05C66.2567 113.149 64.6855 111.2 65.2232 109.193L73.3078 79.0209Z" fill="url(#paint3_linear_2096_4015)"/>
<path d="M73.3078 79.0209C73.7462 77.3848 75.4278 76.414 77.0638 76.8523L95.2496 81.7252C96.9645 82.1847 97.9321 83.9999 97.3577 85.6797L88.9989 110.123C88.5919 111.313 87.4997 112.134 86.2435 112.194L68.3319 113.05C66.2567 113.149 64.6855 111.2 65.2232 109.193L73.3078 79.0209Z" fill="url(#paint4_linear_2096_4015)"/>
<path d="M94.7521 107.237C89.2274 107.958 83.8321 100.615 83.5318 99.4139C83.2315 98.2128 83.2311 97.6123 85.0326 97.312C86.8341 97.0118 91.9385 99.714 94.6408 102.116C96.8026 104.038 95.2525 105.336 94.7521 107.237Z" fill="#E8BE4F"/>
<g filter="url(#filter3_i_2096_4015)">
<path d="M31.4017 48.2843C32.3025 48.5846 32.3025 53.3887 32.3025 54.5897C32.3025 55.5193 32.3805 56.8563 32.903 58.1927C33.0555 58.5829 32.9797 58.7042 33.2108 59.1664C33.5111 59.7669 33.3509 60.3439 33.4543 60.5947C34.5352 63.2163 35.8739 65.5756 37.4267 69.5034L39.8089 76.208C39.8089 76.208 39.5585 78.0303 38.1373 79.4515C36.7162 80.8727 32.903 75.8986 32.903 75.8986C30.5009 69.8935 27.7386 63.237 27.4984 62.9968C27.2582 62.7566 26.6939 62.067 26.6939 61.4665C26.6939 60.866 26.6939 61.0831 25.6968 59.9943C24.683 58.8871 23.2948 56.9917 22.6943 56.3912C22.0938 55.7907 22.0938 53.0884 22.0938 52.4879C22.0938 51.8874 22.394 51.5871 22.9945 51.2869C23.595 50.9866 22.9945 50.6863 23.2948 50.0858C23.595 49.4853 24.1955 50.3861 24.1955 48.8848C24.1955 47.6838 25.1964 47.5837 25.6968 47.6838C25.897 47.6838 26.1172 47.5036 25.3966 46.783C24.4958 45.8823 22.9945 41.3785 22.9945 40.4777C22.9945 39.577 23.8953 38.9765 24.1955 39.8772C24.4357 40.5978 27.2982 45.1817 28.6994 47.3836L31.4017 48.2843Z" fill="url(#paint5_linear_2096_4015)"/>
</g>
<path d="M80.3628 50.3511C80.7028 45.9228 77.2968 34.5788 79.1264 30.9595C80.7594 29.1041 86.4016 17.1067 88.7642 23.1372C91.7173 30.6752 93.7575 28.3018 95.9907 33.2747C99.9666 42.1283 79.9115 56.229 80.3628 50.3511Z" fill="url(#paint6_linear_2096_4015)"/>
<path d="M73.8881 30.0244C74.4454 25.66 75.987 21.1876 73.8676 17.426C71.9126 15.4309 69.6192 14.2044 67.4134 20.4178C65.1939 26.6697 57.3183 28.5641 57.635 33.5288C57.9954 39.1799 54.0057 40.0513 53.7386 46.9346C53.4658 53.9664 64.6232 55.3775 65.4406 52.767C66.2579 50.1565 68.0098 54.6746 74.6006 47.4322C77.2487 44.5223 73.1916 35.4799 73.8881 30.0244Z" fill="url(#paint7_linear_2096_4015)"/>
<path d="M65.1924 31.31C65.7496 26.9456 67.2913 22.4732 65.1719 18.7117C63.2169 16.7166 59.221 12.0063 57.0152 18.2197C54.7957 24.4715 53.1251 25.9075 53.4418 30.8723C53.8022 36.5234 56.2857 36.5698 52.8389 43.4999C49.7051 49.8007 61.4939 55.4476 61.5701 55.2071C61.6462 54.9665 56.4029 48.5932 59.4199 44.3793C61.7104 41.1802 64.4958 36.7656 65.1924 31.31Z" fill="url(#paint8_linear_2096_4015)"/>
<path d="M93.3367 32.191C92.1872 29.397 89.9243 26.8499 87.2061 25.397C85.2122 24.9317 83.261 25.0467 83.9589 29.5434C84.661 34.0679 84.4745 36.5263 86.4138 39.3553C88.6211 42.5755 88.5692 45.6045 87.2061 48.2411C85.8429 50.8778 84.2155 52.618 84.2155 52.618C84.2155 52.618 92.5641 49.599 94.4219 42.8808C95.1684 40.1814 94.7736 35.6835 93.3367 32.191Z" fill="url(#paint9_linear_2096_4015)"/>
<path d="M81.3814 49.9171C85.5736 44.9128 81.499 34.5688 80.2677 32.4545C78.378 31.4786 64.0954 31.6584 61.6328 27.4297C63.0806 38.4812 67.8134 41.0405 65.7752 46.536C64.5257 49.905 63.7349 52.9419 64.7835 53.9089C67.4866 50.4472 76.1411 56.1724 81.3814 49.9171Z" fill="url(#paint10_linear_2096_4015)"/>
<g filter="url(#filter4_i_2096_4015)">
<path d="M67.8757 54.4136V40.6684L79.414 39.8867C79.414 39.8867 78.9943 50.6716 79.4142 52.0542C79.8341 53.4368 82.7485 53.3194 83.478 55.1431C84.2075 56.9668 78.0908 70.4664 72.2514 70.2861C66.412 70.1057 63.7789 56.8493 64.51 56.2373C65.2411 55.6254 67.8757 54.4136 67.8757 54.4136Z" fill="url(#paint11_linear_2096_4015)"/>
</g>
<mask id="mask1_2096_4015" style="mask-type:alpha" maskUnits="userSpaceOnUse" x="64" y="39" width="20" height="32">
<path d="M67.8679 54.4156V40.6704L79.4062 39.8887C79.4062 39.8887 78.9865 50.6736 79.4064 52.0562C79.8263 53.4388 82.7407 53.3214 83.4702 55.1451C84.1997 56.9688 78.083 70.4683 72.2436 70.288C66.4042 70.1077 63.7711 56.8512 64.5022 56.2393C65.2333 55.6274 67.8679 54.4156 67.8679 54.4156Z" fill="url(#paint12_linear_2096_4015)"/>
</mask>
<g mask="url(#mask1_2096_4015)">
<path d="M65.2344 54.8636V44.2861L80.9183 42.0977C81.0399 43.435 81.2101 46.2557 80.9183 46.8393C80.6265 47.4229 70.3408 52.432 65.2344 54.8636Z" fill="#EB7866" fill-opacity="0.3"/>
</g>
<g filter="url(#filter5_i_2096_4015)">
<ellipse cx="2.46744" cy="5.24327" rx="2.46744" ry="5.24327" transform="matrix(0.976124 -0.217212 0.217214 0.976124 56.2344 30.3926)" fill="#F5BEB5"/>
</g>
<ellipse cx="3.08429" cy="5.24327" rx="3.08429" ry="5.24327" transform="matrix(0.985378 0.170383 -0.170385 0.985377 83.0938 27.5234)" fill="#F5BEB5"/>
<g filter="url(#filter6_i_2096_4015)">
<path d="M72.2923 47.3594C65.1186 47.8169 60.0906 38.7973 58.8596 33.1853L56.5017 24.9617L70.5791 12.9674L84.0979 16.2861L86.2503 31.4384C85.0902 36.0648 79.466 46.9019 72.2923 47.3594Z" fill="url(#paint13_radial_2096_4015)"/>
</g>
<path d="M72.2923 47.3594C65.1186 47.8169 60.0906 38.7973 58.8596 33.1853L56.5017 24.9617L70.5791 12.9674L84.0979 16.2861L86.2503 31.4384C85.0902 36.0648 79.466 46.9019 72.2923 47.3594Z" stroke="#FDD9D3" stroke-width="0.364741"/>
<path d="M68.0306 35.635C68.0452 35.8648 67.8621 36.3736 67.6384 36.7852C67.5651 36.9201 67.5747 37.0878 67.6738 37.205L68.168 37.7896" stroke="#894B1F" stroke-width="0.422081" stroke-linecap="round"/>
<g filter="url(#filter7_i_2096_4015)">
<ellipse cx="65.3218" cy="33.7933" rx="1.09708" ry="1.47941" transform="rotate(-3.64908 65.3218 33.7933)" fill="#2A190D"/>
</g>
<ellipse cx="65.2778" cy="33.0439" rx="0.364742" ry="0.36474" transform="rotate(-3.64908 65.2778 33.0439)" fill="white"/>
<path d="M66.0768 34.091C66.0897 34.2921 65.9657 34.8291 65.7647 34.8419C65.5636 34.8547 65.7258 34.3153 65.713 34.1142C65.7002 33.9132 65.4903 33.763 65.6913 33.7501C65.8923 33.7373 66.064 33.89 66.0768 34.091Z" fill="white" fill-opacity="0.4"/>
<g filter="url(#filter8_f_2096_4015)">
<ellipse cx="64.4575" cy="37.4152" rx="1.66933" ry="1.26624" transform="rotate(-3.64908 64.4575 37.4152)" fill="#FF5939" fill-opacity="0.8"/>
</g>
<g filter="url(#filter9_f_2096_4015)">
<ellipse cx="75.2856" cy="36.7356" rx="1.66933" ry="1.26624" transform="rotate(-3.64908 75.2856 36.7356)" fill="#FF5939" fill-opacity="0.8"/>
</g>
<path d="M66.3586 28.7059C64.9299 28.4223 62.8306 28.4834 60.8951 30.1586" stroke="#894B1F" stroke-width="0.422081" stroke-linecap="round"/>
<path d="M67.7492 40.3835C69.116 40.8914 71.1991 41.166 73.3722 39.821" stroke="#E9654C" stroke-width="0.422081" stroke-linecap="round"/>
<path d="M80.5712 27.8006C78.4441 27.2312 75.7737 26.9852 73.3386 28.0473" stroke="#894B1F" stroke-width="0.422081" stroke-linecap="round"/>
<g filter="url(#filter10_i_2096_4015)">
<ellipse cx="74.1265" cy="33.2094" rx="1.02014" ry="1.45896" transform="rotate(-3.64908 74.1265 33.2094)" fill="#2A190D"/>
</g>
<ellipse cx="74.046" cy="32.5513" rx="0.402131" ry="0.431334" transform="rotate(-3.64908 74.046 32.5513)" fill="white"/>
<path d="M75.0735 33.5809C75.0887 33.8187 74.7014 34.2689 74.4797 34.283C74.2581 34.2972 74.4521 33.7925 74.4369 33.5548C74.4218 33.3171 74.5174 33.1842 74.7391 33.1701C74.9607 33.1559 75.0584 33.3432 75.0735 33.5809Z" fill="white" fill-opacity="0.4"/>
<path d="M68.3621 15.0123C70.1088 14.5962 78.0873 16.142 78.2731 19.0559C78.1493 19.0384 77.9882 18.9731 77.794 18.8778L73.8341 17.4062C71.1384 17.2313 66.801 16.8653 62.556 19.0401C60.5577 20.0638 66.968 16.3203 68.3621 15.0123Z" fill="#0A0401"/>
<path d="M88.3646 20.5476C90.3314 28.4627 85.6406 36.9509 83.1103 37.3918C81.7658 37.6261 82.3285 30.863 81.074 28.3846C79.8195 25.9063 72.8074 17.836 72.0281 16.831C70.6978 15.1153 70.2145 16.5648 69.5017 17.3606C67.3956 16.2446 66.3306 11.3896 72.9043 9.16977C81.1215 6.39492 86.9821 14.9834 88.3646 20.5476Z" fill="url(#paint14_linear_2096_4015)"/>
<path d="M64.1294 20.6911C66.0226 14.8235 69.026 16.4009 69.6544 16.9499L71.9384 9.73572C67.4068 7.39077 59.961 10.837 56.275 17.8006C53.1144 23.7719 53.2069 23.9944 54.2526 29.7817C54.8698 33.1979 60.3253 41.1939 60.1991 39.2146C59.2241 23.9265 61.394 29.1685 64.1294 20.6911Z" fill="url(#paint15_linear_2096_4015)"/>
<path d="M60.6609 28.3587C60.9401 29.8856 62.0816 31.3773 62.0824 30.4904C62.0858 26.7341 64.9136 16.9894 69.4066 17.4291L70.3592 15.1746C68.3632 14.1401 64.253 15.3093 62.0792 18.4079C60.1792 21.1162 60.1832 25.7451 60.6609 28.3587Z" fill="url(#paint16_linear_2096_4015)"/>
<path d="M80.5672 28.5225C78.4556 26.1938 77.426 23.7839 75.1362 20.5294C73.4316 18.1068 72.8509 16.1233 71.0058 14.9185C67.1963 16.7183 72.2074 26.2962 77.2851 28.8786C78.6687 29.5822 81.163 29.1795 80.5672 28.5225Z" fill="url(#paint17_linear_2096_4015)"/>
<path d="M76.2037 30.7879C74.5747 28.0993 74.0235 25.5373 72.3961 21.906C71.1847 19.2028 70.9928 17.145 69.4111 15.6106C65.3284 16.6511 68.4216 27.0087 72.9139 30.5117C74.138 31.4663 76.6633 31.5464 76.2037 30.7879Z" fill="url(#paint18_linear_2096_4015)"/>
<path d="M80.9494 101.585C81.5499 102.486 81.5765 102.978 83.378 102.978C87.0811 101.376 93.7764 94.2361 95.4579 92.3144C97.5597 89.9124 102.664 91.4137 102.364 93.8157C102.063 96.2177 101.333 107.571 79.1145 109.373C67.4045 109.373 65.3359 104.288 65.3359 102.486C65.3359 100.685 68.3385 96.7814 68.6388 99.1834C68.939 101.585 78.2471 101.886 75.5448 100.685C73.3829 99.7239 73.2428 97.6821 73.443 96.7814C73.443 96.1808 74.3438 96.1808 74.644 96.7814C74.9443 97.3819 75.845 98.2826 77.3463 98.8831C78.8476 99.4836 80.3489 100.685 80.9494 101.585Z" fill="#F7D0C8"/>
<g filter="url(#filter11_i_2096_4015)">
<path d="M99.5494 58.0457C90.1814 57.3251 95.0465 77.9667 96.5478 86.5739C97.331 93.4798 78.4216 97.7295 84.727 98.6302C89.7713 99.3508 93.8548 107.24 94.7548 107.24C95.6548 107.24 106.114 94.2298 106.835 93.0288C107.736 91.5275 107.135 84.7422 106.835 80.2384C106.535 75.7346 107.356 58.9465 99.5494 58.0457Z" fill="#F4D06F"/>
</g>
</g>
<defs>
<filter id="filter0_i_2096_4015" x="30.3203" y="58.5195" width="26.6562" height="47.0898" filterUnits="userSpaceOnUse" color-interpolation-filters="sRGB">
<feFlood flood-opacity="0" result="BackgroundImageFix"/>
<feBlend mode="normal" in="SourceGraphic" in2="BackgroundImageFix" result="shape"/>
<feColorMatrix in="SourceAlpha" type="matrix" values="0 0 0 0 0 0 0 0 0 0 0 0 0 0 0 0 0 0 127 0" result="hardAlpha"/>
<feOffset/>
<feGaussianBlur stdDeviation="1.42116"/>
<feComposite in2="hardAlpha" operator="arithmetic" k2="-1" k3="1"/>
<feColorMatrix type="matrix" values="0 0 0 0 1 0 0 0 0 0.842434 0 0 0 0 0.702376 0 0 0 1 0"/>
<feBlend mode="normal" in2="shape" result="effect1_innerShadow_2096_4015"/>
</filter>
<filter id="filter1_i_2096_4015" x="52.2578" y="53.2305" width="46.8906" height="58.2246" filterUnits="userSpaceOnUse" color-interpolation-filters="sRGB">
<feFlood flood-opacity="0" result="BackgroundImageFix"/>
<feBlend mode="normal" in="SourceGraphic" in2="BackgroundImageFix" result="shape"/>
<feColorMatrix in="SourceAlpha" type="matrix" values="0 0 0 0 0 0 0 0 0 0 0 0 0 0 0 0 0 0 127 0" result="hardAlpha"/>
<feOffset/>
<feGaussianBlur stdDeviation="1.42116"/>
<feComposite in2="hardAlpha" operator="arithmetic" k2="-1" k3="1"/>
<feColorMatrix type="matrix" values="0 0 0 0 1 0 0 0 0 0.859857 0 0 0 0 0.735286 0 0 0 1 0"/>
<feBlend mode="normal" in2="shape" result="effect1_innerShadow_2096_4015"/>
</filter>
<filter id="filter2_di_2096_4015" x="59.8843" y="48.2573" width="29.1846" height="48.8116" filterUnits="userSpaceOnUse" color-interpolation-filters="sRGB">
<feFlood flood-opacity="0" result="BackgroundImageFix"/>
<feColorMatrix in="SourceAlpha" type="matrix" values="0 0 0 0 0 0 0 0 0 0 0 0 0 0 0 0 0 0 127 0" result="hardAlpha"/>
<feOffset/>
<feGaussianBlur stdDeviation="1.42116"/>
<feComposite in2="hardAlpha" operator="out"/>
<feColorMatrix type="matrix" values="0 0 0 0 0 0 0 0 0 0 0 0 0 0 0 0 0 0 0.25 0"/>
<feBlend mode="normal" in2="BackgroundImageFix" result="effect1_dropShadow_2096_4015"/>
<feBlend mode="normal" in="SourceGraphic" in2="effect1_dropShadow_2096_4015" result="shape"/>
<feColorMatrix in="SourceAlpha" type="matrix" values="0 0 0 0 0 0 0 0 0 0 0 0 0 0 0 0 0 0 127 0" result="hardAlpha"/>
<feOffset dy="2.84231"/>
<feGaussianBlur stdDeviation="1.42116"/>
<feComposite in2="hardAlpha" operator="arithmetic" k2="-1" k3="1"/>
<feColorMatrix type="matrix" values="0 0 0 0 1 0 0 0 0 0.813629 0 0 0 0 0.647965 0 0 0 1 0"/>
<feBlend mode="normal" in2="shape" result="effect2_innerShadow_2096_4015"/>
</filter>
<filter id="filter3_i_2096_4015" x="22.0938" y="39.4316" width="17.7188" height="40.2754" filterUnits="userSpaceOnUse" color-interpolation-filters="sRGB">
<feFlood flood-opacity="0" result="BackgroundImageFix"/>
<feBlend mode="normal" in="SourceGraphic" in2="BackgroundImageFix" result="shape"/>
<feColorMatrix in="SourceAlpha" type="matrix" values="0 0 0 0 0 0 0 0 0 0 0 0 0 0 0 0 0 0 127 0" result="hardAlpha"/>
<feOffset/>
<feGaussianBlur stdDeviation="1.42116"/>
<feComposite in2="hardAlpha" operator="arithmetic" k2="-1" k3="1"/>
<feColorMatrix type="matrix" values="0 0 0 0 1 0 0 0 0 0.902329 0 0 0 0 0.815511 0 0 0 1 0"/>
<feBlend mode="normal" in2="shape" result="effect1_innerShadow_2096_4015"/>
</filter>
<filter id="filter4_i_2096_4015" x="64.3906" y="39.8867" width="19.1484" height="30.4004" filterUnits="userSpaceOnUse" color-interpolation-filters="sRGB">
<feFlood flood-opacity="0" result="BackgroundImageFix"/>
<feBlend mode="normal" in="SourceGraphic" in2="BackgroundImageFix" result="shape"/>
<feColorMatrix in="SourceAlpha" type="matrix" values="0 0 0 0 0 0 0 0 0 0 0 0 0 0 0 0 0 0 127 0" result="hardAlpha"/>
<feOffset/>
<feGaussianBlur stdDeviation="1.45896"/>
<feComposite in2="hardAlpha" operator="arithmetic" k2="-1" k3="1"/>
<feColorMatrix type="matrix" values="0 0 0 0 1 0 0 0 0 0.898039 0 0 0 0 0.301961 0 0 0 1 0"/>
<feBlend mode="normal" in2="shape" result="effect1_innerShadow_2096_4015"/>
</filter>
<filter id="filter5_i_2096_4015" x="57.1172" y="29.8281" width="6.05761" height="10.293" filterUnits="userSpaceOnUse" color-interpolation-filters="sRGB">
<feFlood flood-opacity="0" result="BackgroundImageFix"/>
<feBlend mode="normal" in="SourceGraphic" in2="BackgroundImageFix" result="shape"/>
<feColorMatrix in="SourceAlpha" type="matrix" values="0 0 0 0 0 0 0 0 0 0 0 0 0 0 0 0 0 0 127 0" result="hardAlpha"/>
<feOffset dx="0.729482"/>
<feGaussianBlur stdDeviation="0.364741"/>
<feComposite in2="hardAlpha" operator="arithmetic" k2="-1" k3="1"/>
<feColorMatrix type="matrix" values="0 0 0 0 1 0 0 0 0 0.866667 0 0 0 0 0.443137 0 0 0 0.5 0"/>
<feBlend mode="normal" in2="shape" result="effect1_innerShadow_2096_4015"/>
</filter>
<filter id="filter6_i_2096_4015" x="56.2969" y="12.7676" width="31.5996" height="34.791" filterUnits="userSpaceOnUse" color-interpolation-filters="sRGB">
<feFlood flood-opacity="0" result="BackgroundImageFix"/>
<feBlend mode="normal" in="SourceGraphic" in2="BackgroundImageFix" result="shape"/>
<feColorMatrix in="SourceAlpha" type="matrix" values="0 0 0 0 0 0 0 0 0 0 0 0 0 0 0 0 0 0 127 0" result="hardAlpha"/>
<feOffset dx="1.45896"/>
<feGaussianBlur stdDeviation="0.729482"/>
<feComposite in2="hardAlpha" operator="arithmetic" k2="-1" k3="1"/>
<feColorMatrix type="matrix" values="0 0 0 0 1 0 0 0 0 0.898039 0 0 0 0 0.301961 0 0 0 0.5 0"/>
<feBlend mode="normal" in2="shape" result="effect1_innerShadow_2096_4015"/>
</filter>
<filter id="filter7_i_2096_4015" x="64.2266" y="32.3145" width="2.19531" height="2.95703" filterUnits="userSpaceOnUse" color-interpolation-filters="sRGB">
<feFlood flood-opacity="0" result="BackgroundImageFix"/>
<feBlend mode="normal" in="SourceGraphic" in2="BackgroundImageFix" result="shape"/>
<feColorMatrix in="SourceAlpha" type="matrix" values="0 0 0 0 0 0 0 0 0 0 0 0 0 0 0 0 0 0 127 0" result="hardAlpha"/>
<feOffset/>
<feGaussianBlur stdDeviation="0.43738"/>
<feComposite in2="hardAlpha" operator="arithmetic" k2="-1" k3="1"/>
<feColorMatrix type="matrix" values="0 0 0 0 0.996078 0 0 0 0 0.843137 0 0 0 0 0.603922 0 0 0 1 0"/>
<feBlend mode="normal" in2="shape" result="effect1_innerShadow_2096_4015"/>
</filter>
<filter id="filter8_f_2096_4015" x="59.8711" y="33.2286" width="9.1718" height="8.37297" filterUnits="userSpaceOnUse" color-interpolation-filters="sRGB">
<feFlood flood-opacity="0" result="BackgroundImageFix"/>
<feBlend mode="normal" in="SourceGraphic" in2="BackgroundImageFix" result="shape"/>
<feGaussianBlur stdDeviation="1.45896" result="effect1_foregroundBlur_2096_4015"/>
</filter>
<filter id="filter9_f_2096_4015" x="70.6993" y="32.5489" width="9.1718" height="8.37297" filterUnits="userSpaceOnUse" color-interpolation-filters="sRGB">
<feFlood flood-opacity="0" result="BackgroundImageFix"/>
<feBlend mode="normal" in="SourceGraphic" in2="BackgroundImageFix" result="shape"/>
<feGaussianBlur stdDeviation="1.45896" result="effect1_foregroundBlur_2096_4015"/>
</filter>
<filter id="filter10_i_2096_4015" x="73.1016" y="31.752" width="2.04688" height="2.91406" filterUnits="userSpaceOnUse" color-interpolation-filters="sRGB">
<feFlood flood-opacity="0" result="BackgroundImageFix"/>
<feBlend mode="normal" in="SourceGraphic" in2="BackgroundImageFix" result="shape"/>
<feColorMatrix in="SourceAlpha" type="matrix" values="0 0 0 0 0 0 0 0 0 0 0 0 0 0 0 0 0 0 127 0" result="hardAlpha"/>
<feOffset/>
<feGaussianBlur stdDeviation="0.406707"/>
<feComposite in2="hardAlpha" operator="arithmetic" k2="-1" k3="1"/>
<feColorMatrix type="matrix" values="0 0 0 0 1 0 0 0 0 0.835294 0 0 0 0 0.6 0 0 0 1 0"/>
<feBlend mode="normal" in2="shape" result="effect1_innerShadow_2096_4015"/>
</filter>
<filter id="filter11_i_2096_4015" x="83.4375" y="58.0273" width="23.875" height="49.2129" filterUnits="userSpaceOnUse" color-interpolation-filters="sRGB">
<feFlood flood-opacity="0" result="BackgroundImageFix"/>
<feBlend mode="normal" in="SourceGraphic" in2="BackgroundImageFix" result="shape"/>
<feColorMatrix in="SourceAlpha" type="matrix" values="0 0 0 0 0 0 0 0 0 0 0 0 0 0 0 0 0 0 127 0" result="hardAlpha"/>
<feOffset/>
<feGaussianBlur stdDeviation="1.42116"/>
<feComposite in2="hardAlpha" operator="arithmetic" k2="-1" k3="1"/>
<feColorMatrix type="matrix" values="0 0 0 0 1 0 0 0 0 0.875204 0 0 0 0 0.764274 0 0 0 1 0"/>
<feBlend mode="normal" in2="shape" result="effect1_innerShadow_2096_4015"/>
</filter>
<linearGradient id="paint0_linear_2096_4015" x1="72" y1="2" x2="72" y2="127.999" gradientUnits="userSpaceOnUse">
<stop stop-color="#FFC490"/>
<stop offset="1" stop-color="#FF7800"/>
</linearGradient>
<linearGradient id="paint1_linear_2096_4015" x1="34.5838" y1="78.8098" x2="54.6049" y2="88.4885" gradientUnits="userSpaceOnUse">
<stop stop-color="#FFD667"/>
<stop offset="1" stop-color="#CEA63B"/>
</linearGradient>
<linearGradient id="paint2_linear_2096_4015" x1="75.573" y1="53.2305" x2="75.573" y2="119.774" gradientUnits="userSpaceOnUse">
<stop stop-color="#F4D06F"/>
<stop offset="1" stop-color="#EEC452"/>
</linearGradient>
<linearGradient id="paint3_linear_2096_4015" x1="86.2606" y1="79.3166" x2="76.295" y2="116.509" gradientUnits="userSpaceOnUse">
<stop stop-color="white"/>
<stop offset="0.0001" stop-color="#F1F1F1"/>
<stop offset="0.119792" stop-color="#D9D9D9"/>
<stop offset="1" stop-color="#787878"/>
</linearGradient>
<linearGradient id="paint4_linear_2096_4015" x1="86.2606" y1="79.3166" x2="76.295" y2="116.509" gradientUnits="userSpaceOnUse">
<stop stop-color="white"/>
<stop offset="0.0001" stop-color="#F1F1F1"/>
<stop offset="0.119792" stop-color="#D9D9D9"/>
<stop offset="1" stop-color="#787878"/>
</linearGradient>
<linearGradient id="paint5_linear_2096_4015" x1="26.768" y1="46.765" x2="38.8478" y2="78.0304" gradientUnits="userSpaceOnUse">
<stop stop-color="#F7D0C8"/>
<stop offset="0.75" stop-color="#F7D0C8"/>
<stop offset="1" stop-color="#ED9360"/>
</linearGradient>
<linearGradient id="paint6_linear_2096_4015" x1="84.8048" y1="33.3364" x2="86.226" y2="51.1008" gradientUnits="userSpaceOnUse">
<stop stop-color="#130903"/>
<stop offset="1" stop-color="#5E3C26"/>
</linearGradient>
<linearGradient id="paint7_linear_2096_4015" x1="64.6513" y1="40.3909" x2="61.483" y2="53.7503" gradientUnits="userSpaceOnUse">
<stop stop-color="#120802"/>
<stop offset="1" stop-color="#754C31"/>
</linearGradient>
<linearGradient id="paint8_linear_2096_4015" x1="59.2264" y1="36.1791" x2="54.9058" y2="56.3964" gradientUnits="userSpaceOnUse">
<stop stop-color="#120802"/>
<stop offset="1" stop-color="#754C31"/>
</linearGradient>
<linearGradient id="paint9_linear_2096_4015" x1="88.3609" y1="30.494" x2="93.5069" y2="51.5265" gradientUnits="userSpaceOnUse">
<stop stop-color="#120802"/>
<stop offset="1" stop-color="#754C31"/>
</linearGradient>
<linearGradient id="paint10_linear_2096_4015" x1="70.12" y1="45.8934" x2="71.9316" y2="57.1078" gradientUnits="userSpaceOnUse">
<stop stop-color="#291203"/>
<stop offset="1" stop-color="#AB6D43"/>
</linearGradient>
<linearGradient id="paint11_linear_2096_4015" x1="68.8923" y1="50.8489" x2="80.1993" y2="50.8489" gradientUnits="userSpaceOnUse">
<stop stop-color="#EE9B8E"/>
<stop offset="0.595" stop-color="#F5BEB5"/>
<stop offset="1" stop-color="#FFE5E1"/>
</linearGradient>
<linearGradient id="paint12_linear_2096_4015" x1="68.8845" y1="50.8508" x2="80.1915" y2="50.8508" gradientUnits="userSpaceOnUse">
<stop stop-color="#CA7E71"/>
<stop offset="0.595" stop-color="#F5BEB5"/>
<stop offset="1" stop-color="#FFE5E1"/>
</linearGradient>
<radialGradient id="paint13_radial_2096_4015" cx="0" cy="0" r="1" gradientUnits="userSpaceOnUse" gradientTransform="translate(68.8045 30.992) rotate(42.2601) scale(16.2504 14.415)">
<stop stop-color="#FFD7CF"/>
<stop offset="0.66" stop-color="#FFC2B6"/>
<stop offset="1" stop-color="#FFD9D1"/>
</radialGradient>
<linearGradient id="paint14_linear_2096_4015" x1="78.4165" y1="14.8631" x2="88.7972" y2="34.8365" gradientUnits="userSpaceOnUse">
<stop stop-color="#342216"/>
<stop offset="0.359375" stop-color="#AA866E"/>
<stop offset="0.723958" stop-color="#342216"/>
</linearGradient>
<linearGradient id="paint15_linear_2096_4015" x1="62.8174" y1="15.565" x2="54.5231" y2="36.7141" gradientUnits="userSpaceOnUse">
<stop stop-color="#342216"/>
<stop offset="0.364583" stop-color="#957158"/>
<stop offset="0.50547" stop-color="#342216"/>
</linearGradient>
<linearGradient id="paint16_linear_2096_4015" x1="65.6544" y1="14.9822" x2="61.4834" y2="27.3364" gradientUnits="userSpaceOnUse">
<stop stop-color="#342216"/>
<stop offset="0.364583" stop-color="#957158"/>
<stop offset="0.744792" stop-color="#342216"/>
</linearGradient>
<linearGradient id="paint17_linear_2096_4015" x1="69.664" y1="17.6817" x2="76.9607" y2="28.4883" gradientUnits="userSpaceOnUse">
<stop stop-color="#342216"/>
<stop offset="0.364583" stop-color="#957158"/>
<stop offset="0.744792" stop-color="#342216"/>
</linearGradient>
<linearGradient id="paint18_linear_2096_4015" x1="67.5672" y1="18.0673" x2="72.6699" y2="30.0667" gradientUnits="userSpaceOnUse">
<stop stop-color="#342216"/>
<stop offset="0.364583" stop-color="#957158"/>
<stop offset="0.744792" stop-color="#342216"/>
</linearGradient>
</defs>
</svg>
