<svg width="189" height="229" viewBox="0 0 189 229" fill="none" xmlns="http://www.w3.org/2000/svg">
<g filter="url(#filter0_i_6_12)">
<path d="M119.912 18.3934L162.924 132.452L68.6451 209.723L25.6334 95.665L119.912 18.3934Z" fill="url(#paint0_linear_6_12)"/>
<mask id="mask0_6_12" style="mask-type:alpha" maskUnits="userSpaceOnUse" x="25" y="18" width="138" height="192">
<path d="M119.912 18.3934L162.924 132.452L68.6451 209.723L25.6334 95.665L119.912 18.3934Z" fill="#D9D9D9"/>
</mask>
<g mask="url(#mask0_6_12)">
<rect x="126.173" y="-4.9751" width="134.573" height="266.122" transform="rotate(15 126.173 -4.9751)" fill="url(#paint1_linear_6_12)"/>
<rect x="19.9869" y="93.3693" width="163.302" height="104.332" transform="rotate(15 19.9869 93.3693)" fill="url(#paint2_linear_6_12)" fill-opacity="0.5"/>
<rect x="94.4741" y="113.328" width="86.1872" height="104.332" transform="rotate(15 94.4741 113.328)" fill="url(#paint3_linear_6_12)" fill-opacity="0.5"/>
</g>
</g>
<defs>
<filter id="filter0_i_6_12" x="25.6334" y="18.3934" width="137.29" height="191.33" filterUnits="userSpaceOnUse" color-interpolation-filters="sRGB">
<feFlood flood-opacity="0" result="BackgroundImageFix"/>
<feBlend mode="normal" in="SourceGraphic" in2="BackgroundImageFix" result="shape"/>
<feColorMatrix in="SourceAlpha" type="matrix" values="0 0 0 0 0 0 0 0 0 0 0 0 0 0 0 0 0 0 127 0" result="hardAlpha"/>
<feOffset/>
<feGaussianBlur stdDeviation="10"/>
<feComposite in2="hardAlpha" operator="arithmetic" k2="-1" k3="1"/>
<feColorMatrix type="matrix" values="0 0 0 0 0.839339 0 0 0 0 0.932523 0 0 0 0 1 0 0 0 1 0"/>
<feBlend mode="normal" in2="shape" result="effect1_innerShadow_6_12"/>
</filter>
<linearGradient id="paint0_linear_6_12" x1="84.5304" y1="39.4382" x2="68.6451" y2="209.723" gradientUnits="userSpaceOnUse">
<stop stop-color="#E2EEFF"/>
<stop offset="0.253012" stop-color="#6DA9FA"/>
<stop offset="1" stop-color="#0C63D7"/>
</linearGradient>
<linearGradient id="paint1_linear_6_12" x1="126.173" y1="88.7724" x2="195.728" y2="119.77" gradientUnits="userSpaceOnUse">
<stop stop-color="#BCE3FF"/>
<stop offset="1" stop-color="#58ADEB"/>
</linearGradient>
<linearGradient id="paint2_linear_6_12" x1="101.638" y1="93.3693" x2="101.638" y2="181.825" gradientUnits="userSpaceOnUse">
<stop stop-color="#6978FF"/>
<stop offset="1" stop-color="#333972"/>
</linearGradient>
<linearGradient id="paint3_linear_6_12" x1="104.302" y1="121.645" x2="130.007" y2="164.738" gradientUnits="userSpaceOnUse">
<stop stop-color="#6978FF"/>
<stop offset="1" stop-color="#FFBDD9"/>
</linearGradient>
</defs>
</svg>
