<svg width="148" height="146" viewBox="0 0 148 146" fill="none" xmlns="http://www.w3.org/2000/svg">
<g filter="url(#filter0_i_154_57)">
<path d="M73.0133 1.05739C73.1976 -0.0588285 74.8024 -0.0588244 74.9867 1.05739L82.7947 48.3678C82.9217 49.137 83.8409 49.4715 84.4325 48.9639L120.824 17.741C121.683 17.0043 122.912 18.0359 122.336 19.0094L97.9068 60.2702C97.5097 60.941 97.9988 61.7882 98.7783 61.7796L146.726 61.2537C147.857 61.2413 148.136 62.8218 147.068 63.197L101.833 79.1019C101.097 79.3604 100.927 80.3238 101.53 80.8183L138.598 111.235C139.473 111.953 138.67 113.343 137.611 112.944L92.7353 96.0512C92.0057 95.7766 91.2564 96.4053 91.4001 97.1715L100.244 144.299C100.453 145.411 98.9446 145.96 98.3898 144.974L74.8715 103.187C74.4891 102.508 73.5109 102.508 73.1285 103.187L49.6102 144.974C49.0554 145.96 47.5473 145.411 47.7559 144.299L56.5999 97.1715C56.7436 96.4053 55.9943 95.7766 55.2647 96.0512L10.3886 112.944C9.32986 113.343 8.52743 111.953 9.40199 111.235L46.47 80.8183C47.0726 80.3238 46.9028 79.3604 46.1673 79.1019L0.931512 63.197C-0.135759 62.8218 0.142926 61.2413 1.27418 61.2537L49.2217 61.7796C50.0012 61.7882 50.4903 60.941 50.0932 60.2702L25.6639 19.0094C25.0876 18.0359 26.317 17.0043 27.1756 17.741L63.5675 48.9639C64.1591 49.4715 65.0783 49.137 65.2053 48.3678L73.0133 1.05739Z" fill="#D86AFF"/>
</g>
<defs>
<filter id="filter0_i_154_57" x="0.262207" y="0.220703" width="147.476" height="145.267" filterUnits="userSpaceOnUse" color-interpolation-filters="sRGB">
<feFlood flood-opacity="0" result="BackgroundImageFix"/>
<feBlend mode="normal" in="SourceGraphic" in2="BackgroundImageFix" result="shape"/>
<feColorMatrix in="SourceAlpha" type="matrix" values="0 0 0 0 0 0 0 0 0 0 0 0 0 0 0 0 0 0 127 0" result="hardAlpha"/>
<feOffset/>
<feGaussianBlur stdDeviation="10"/>
<feComposite in2="hardAlpha" operator="arithmetic" k2="-1" k3="1"/>
<feColorMatrix type="matrix" values="0 0 0 0 1 0 0 0 0 0.868115 0 0 0 0 0.868115 0 0 0 1 0"/>
<feBlend mode="normal" in2="shape" result="effect1_innerShadow_154_57"/>
</filter>
</defs>
</svg>
