<svg width="24" height="25" viewBox="0 0 24 25" fill="none" xmlns="http://www.w3.org/2000/svg">
<path d="M12 22.0898C6.477 22.0898 2 17.6128 2 12.0898C2 6.56684 6.477 2.08984 12 2.08984C17.523 2.08984 22 6.56684 22 12.0898C22 17.6128 17.523 22.0898 12 22.0898ZM9.71 19.7568C8.72341 17.6642 8.15187 15.4001 8.027 13.0898H4.062C4.25659 14.6287 4.89392 16.078 5.89657 17.2615C6.89922 18.4451 8.22401 19.312 9.71 19.7568ZM10.03 13.0898C10.181 15.5288 10.878 17.8198 12 19.8418C13.1523 17.7664 13.8254 15.4593 13.97 13.0898H10.03ZM19.938 13.0898H15.973C15.8481 15.4001 15.2766 17.6642 14.29 19.7568C15.776 19.312 17.1008 18.4451 18.1034 17.2615C19.1061 16.078 19.7434 14.6287 19.938 13.0898ZM4.062 11.0898H8.027C8.15187 8.77963 8.72341 6.51553 9.71 4.42284C8.22401 4.86772 6.89922 5.7346 5.89657 6.91814C4.89392 8.10168 4.25659 9.55095 4.062 11.0898ZM10.031 11.0898H13.969C13.8248 8.72044 13.152 6.41338 12 4.33784C10.8477 6.41329 10.1746 8.72036 10.03 11.0898M14.289 4.42284C15.2759 6.51546 15.8478 8.77956 15.973 11.0898H19.938C19.7434 9.55095 19.1061 8.10168 18.1034 6.91814C17.1008 5.7346 15.776 4.86772 14.29 4.42284" fill="#747e94"/>
</svg>
