<svg width="36" height="36" viewBox="0 0 36 36" fill="none" xmlns="http://www.w3.org/2000/svg">
<path d="M30.6854 5.2896L26.4487 9.52637L22.2119 5.2896L30.6854 5.2896Z" fill="#0819C4"/>
<path d="M17.9751 0.0249023L23.9668 6.0166V12.0083L17.9751 18L17.9751 0.0249023Z" fill="#4A6DFD"/>
<path d="M17.9751 0.0249085L17.9751 6.0166L11.9834 6.0166L17.9751 0.0249085Z" fill="#0229CA"/>
<path d="M35.9503 18L29.9586 18L29.9586 12.0083L35.9503 18Z" fill="#0819C4"/>
<path d="M17.9751 35.9751V29.9834H23.9668L17.9751 35.9751Z" fill="#0083CC"/>
<path d="M6.7234e-05 18L5.99176 18L5.99176 23.9917L6.7234e-05 18Z" fill="#2C00CC"/>
<path d="M5.26477 5.28955H13.7383L17.9751 9.52632V17.9999L5.26477 5.28955Z" fill="#4A6DFD"/>
<path d="M5.26476 5.2896L9.50153 9.52637L5.26476 13.7631L5.26476 5.2896Z" fill="#0229CA"/>
<path d="M30.6854 30.7104L26.4486 26.4736L30.6854 22.2369L30.6854 30.7104Z" fill="#0083CC"/>
<path d="M5.26476 30.7104L9.50153 26.4736L13.7383 30.7104L5.26476 30.7104Z" fill="#2C00CC"/>
<path fill-rule="evenodd" clip-rule="evenodd" d="M30.6853 13.7631L30.6853 5.28956L22.2118 13.7631L22.2118 13.7631L17.975 17.9998L26.4485 17.9998L26.4485 17.9999L30.6853 13.7631Z" fill="#6C79F9"/>
<path fill-rule="evenodd" clip-rule="evenodd" d="M22.2116 30.7106L30.6852 30.7106L22.2117 22.2371L22.2118 22.237L17.975 18.0002L17.975 26.4736L17.9749 26.4738L22.2116 30.7106Z" fill="#78CEFF"/>
<path fill-rule="evenodd" clip-rule="evenodd" d="M5.26476 22.2369L5.26476 30.7104L13.7383 22.2369L9.50152 18.0001L5.26476 22.2369ZM13.7383 22.2369L17.9751 18.0001L9.50156 18.0001L13.7383 22.2369Z" fill="#8378FF"/>
<path fill-rule="evenodd" clip-rule="evenodd" d="M11.9833 29.9834L17.975 35.9751L17.975 23.9917L11.9833 23.9917L11.9833 29.9834ZM17.975 23.9917L17.975 18L11.9833 23.9917L17.975 23.9917Z" fill="#78CEFF"/>
<path fill-rule="evenodd" clip-rule="evenodd" d="M29.9584 23.9917L35.9501 18L23.9667 18L23.9667 23.9917L29.9584 23.9917ZM23.9666 18L17.9749 18L23.9666 23.9917L23.9666 18Z" fill="#6C79F9"/>
<path fill-rule="evenodd" clip-rule="evenodd" d="M5.99169 12.0083L0 18L11.9834 18L11.9834 12.0083L5.99169 12.0083ZM11.9835 18L17.9752 18L11.9835 12.0083L11.9835 18Z" fill="#9578FF"/>
</svg>
