<svg width="24" height="25" viewBox="0 0 24 25" fill="none" xmlns="http://www.w3.org/2000/svg">
<path d="M12 2.08984C10.6868 2.08984 9.38642 2.3485 8.17317 2.85105C6.95991 3.3536 5.85752 4.09019 4.92893 5.01878C3.05357 6.89414 2 9.43768 2 12.0898C2 16.5098 4.87 20.2598 8.84 21.5898C9.34 21.6698 9.5 21.3598 9.5 21.0898V19.3998C6.73 19.9998 6.14 18.0598 6.14 18.0598C5.68 16.8998 5.03 16.5898 5.03 16.5898C4.12 15.9698 5.1 15.9898 5.1 15.9898C6.1 16.0598 6.63 17.0198 6.63 17.0198C7.5 18.5398 8.97 18.0898 9.54 17.8498C9.63 17.1998 9.89 16.7598 10.17 16.5098C7.95 16.2598 5.62 15.3998 5.62 11.5898C5.62 10.4798 6 9.58984 6.65 8.87984C6.55 8.62984 6.2 7.58984 6.75 6.23984C6.75 6.23984 7.59 5.96984 9.5 7.25984C10.29 7.03984 11.15 6.92984 12 6.92984C12.85 6.92984 13.71 7.03984 14.5 7.25984C16.41 5.96984 17.25 6.23984 17.25 6.23984C17.8 7.58984 17.45 8.62984 17.35 8.87984C18 9.58984 18.38 10.4798 18.38 11.5898C18.38 15.4098 16.04 16.2498 13.81 16.4998C14.17 16.8098 14.5 17.4198 14.5 18.3498V21.0898C14.5 21.3598 14.66 21.6798 15.17 21.5898C19.14 20.2498 22 16.5098 22 12.0898C22 10.7766 21.7413 9.47626 21.2388 8.26301C20.7362 7.04975 19.9997 5.94736 19.0711 5.01878C18.1425 4.09019 17.0401 3.3536 15.8268 2.85105C14.6136 2.3485 13.3132 2.08984 12 2.08984Z" fill="#747e94"/>
</svg>
