<svg width="120" height="36" viewBox="0 0 120 36" fill="none" xmlns="http://www.w3.org/2000/svg">
<path d="M30.6854 5.28969L26.4486 9.52646L22.2119 5.28969L30.6854 5.28969Z" fill="#0819C4"/>
<path d="M17.9751 0.0249329L23.9668 6.01663V12.0083L17.9751 18L17.9751 0.0249329Z" fill="#4A6DFD"/>
<path d="M17.9751 0.0249085L17.9751 6.0166L11.9834 6.0166L17.9751 0.0249085Z" fill="#0229CA"/>
<path d="M35.9503 18L29.9586 18L29.9586 12.0083L35.9503 18Z" fill="#0819C4"/>
<path d="M17.9751 35.9751V29.9834H23.9668L17.9751 35.9751Z" fill="#0083CC"/>
<path d="M8.24928e-05 18L5.99178 18L5.99178 23.9917L8.24928e-05 18Z" fill="#2C00CC"/>
<path d="M5.26477 5.28967H13.7383L17.9751 9.52644L17.9751 18L5.26477 5.28967Z" fill="#4A6DFD"/>
<path d="M5.26478 5.28969L9.50155 9.52646L5.26478 13.7632L5.26478 5.28969Z" fill="#0229CA"/>
<path d="M30.6854 30.7103L26.4486 26.4735L30.6854 22.2368L30.6854 30.7103Z" fill="#0083CC"/>
<path d="M5.26478 30.7103L9.50155 26.4735L13.7383 30.7103L5.26478 30.7103Z" fill="#2C00CC"/>
<path fill-rule="evenodd" clip-rule="evenodd" d="M30.6853 13.7632L30.6853 5.28968L22.2118 13.7632L22.2118 13.7632L17.975 18L26.4486 18L26.4486 18L30.6853 13.7632Z" fill="#6C79F9"/>
<path fill-rule="evenodd" clip-rule="evenodd" d="M22.2117 30.7104L30.6852 30.7104L22.2117 22.2369L22.2118 22.2368L17.9751 18L17.9751 26.4735L17.9749 26.4737L22.2117 30.7104Z" fill="#78CEFF"/>
<path fill-rule="evenodd" clip-rule="evenodd" d="M5.26476 22.2368L5.26476 30.7103L13.7383 22.2368L9.50152 18L5.26476 22.2368ZM13.7383 22.2367L17.9751 18L9.50156 18L13.7383 22.2367Z" fill="#8378FF"/>
<path fill-rule="evenodd" clip-rule="evenodd" d="M11.9833 29.9834L17.975 35.9751L17.975 23.9917L11.9833 23.9917L11.9833 29.9834ZM17.9751 23.9917L17.9751 18L11.9834 23.9917L17.9751 23.9917Z" fill="#78CEFF"/>
<path fill-rule="evenodd" clip-rule="evenodd" d="M29.9584 23.9917L35.9501 18L23.9667 18L23.9667 23.9917L29.9584 23.9917ZM23.9666 18L17.9749 18L23.9666 23.9917L23.9666 18Z" fill="#6C79F9"/>
<path fill-rule="evenodd" clip-rule="evenodd" d="M5.99169 12.0083L0 18L11.9834 18L11.9834 12.0083L5.99169 12.0083ZM11.9835 18L17.9752 18L11.9835 12.0083L11.9835 18Z" fill="#9578FF"/>
<path d="M112.785 20.3489V25.9908H110.469V16.6514C110.469 16.012 110.988 15.4938 111.627 15.4938C112.266 15.4938 112.785 16.012 112.785 16.6514V17.0672C113.054 16.5127 113.489 16.0782 114.088 15.7635C114.703 15.4338 115.34 15.269 115.999 15.269C117.273 15.269 118.254 15.6661 118.944 16.4603C119.648 17.2545 120 18.3934 120 19.8769V25.9908H117.685V20.1466C117.685 19.3374 117.483 18.7006 117.078 18.236C116.688 17.7715 116.156 17.5392 115.482 17.5392C114.673 17.5392 114.021 17.779 113.526 18.2585C113.032 18.738 112.785 19.4348 112.785 20.3489Z" fill="#2B2B3B"/>
<path d="M102.394 23.9678C103.308 23.9678 104.065 23.6681 104.664 23.0687C105.279 22.4543 105.586 21.6676 105.586 20.7086C105.586 19.7795 105.279 19.0228 104.664 18.4383C104.065 17.8389 103.308 17.5392 102.394 17.5392C101.51 17.5392 100.761 17.8314 100.146 18.4159C99.532 19.0003 99.2248 19.7645 99.2248 20.7086C99.2248 21.6676 99.532 22.4543 100.146 23.0687C100.746 23.6681 101.495 23.9678 102.394 23.9678ZM102.394 15.269C103.953 15.269 105.256 15.771 106.305 16.775C107.369 17.794 107.901 19.1052 107.901 20.7086C107.901 22.327 107.362 23.6532 106.283 24.6871C105.219 25.7061 103.923 26.2156 102.394 26.2156C100.866 26.2156 99.5694 25.7061 98.5055 24.6871C97.4565 23.6532 96.9321 22.327 96.9321 20.7086C96.9321 19.0902 97.4565 17.779 98.5055 16.775C99.5545 15.771 100.851 15.269 102.394 15.269Z" fill="#2B2B3B"/>
<path d="M86.0525 17.6741V15.4937H94.9986V17.3369L88.9746 23.8105H94.9986V25.9908H85.6929V24.1476L91.627 17.6741H86.0525Z" fill="#2B2B3B"/>
<path d="M83.1506 25.9908H80.8579V16.6401C80.8579 16.007 81.3712 15.4938 82.0043 15.4938C82.6374 15.4938 83.1506 16.007 83.1506 16.6401V25.9908ZM82.0043 9.78442C82.4388 9.78442 82.7985 9.92678 83.0832 10.2115C83.3829 10.4812 83.5328 10.8259 83.5328 11.2455C83.5328 11.6651 83.3829 12.0172 83.0832 12.3019C82.7985 12.5717 82.4388 12.7065 82.0043 12.7065C81.5847 12.7065 81.2176 12.5642 80.9029 12.2794C80.6032 11.9947 80.4533 11.6501 80.4533 11.2455C80.4533 10.8409 80.6032 10.4962 80.9029 10.2115C81.2176 9.92678 81.5847 9.78442 82.0043 9.78442Z" fill="#2B2B3B"/>
<path d="M74.1951 22.2146V25.9908H71.8799V16.6514C71.8799 16.012 72.3982 15.4938 73.0375 15.4938C73.6768 15.4938 74.1951 16.012 74.1951 16.6514V17.8989C74.7196 16.1456 75.6786 15.269 77.0723 15.269C77.9114 15.269 78.5333 15.4038 78.9379 15.6736L78.5558 17.809C78.0912 17.5692 77.5743 17.4493 77.0048 17.4493C76.0757 17.4493 75.3714 17.8689 74.8919 18.7081C74.4274 19.5472 74.1951 20.7161 74.1951 22.2146Z" fill="#2B2B3B"/>
<path d="M63.8046 23.9678C64.7187 23.9678 65.4754 23.6681 66.0748 23.0687C66.6892 22.4543 66.9964 21.6676 66.9964 20.7086C66.9964 19.7795 66.6892 19.0228 66.0748 18.4383C65.4754 17.8389 64.7187 17.5392 63.8046 17.5392C62.9204 17.5392 62.1712 17.8314 61.5568 18.4159C60.9424 19.0003 60.6352 19.7645 60.6352 20.7086C60.6352 21.6676 60.9424 22.4543 61.5568 23.0687C62.1562 23.6681 62.9055 23.9678 63.8046 23.9678ZM63.8046 15.269C65.363 15.269 66.6667 15.771 67.7157 16.775C68.7796 17.794 69.3116 19.1052 69.3116 20.7086C69.3116 22.327 68.7721 23.6532 67.6932 24.6871C66.6293 25.7061 65.333 26.2156 63.8046 26.2156C62.2761 26.2156 60.9799 25.7061 59.9159 24.6871C58.867 23.6532 58.3425 22.327 58.3425 20.7086C58.3425 19.0902 58.867 17.779 59.9159 16.775C60.9649 15.771 62.2611 15.269 63.8046 15.269Z" fill="#2B2B3B"/>
<path d="M53.1875 17.202V11.7175C53.1875 11.0471 53.7309 10.5037 54.4013 10.5037C55.0717 10.5037 55.6151 11.0471 55.6151 11.7175V25.9908H53.1875V19.3824H46.1969V25.9908H43.8143V11.695C43.8143 11.0371 44.3477 10.5037 45.0056 10.5037C45.6636 10.5037 46.1969 11.0371 46.1969 11.695V17.202H53.1875Z" fill="#2B2B3B"/>
</svg>
