<svg width="113" height="91" viewBox="0 0 113 91" fill="none" xmlns="http://www.w3.org/2000/svg">
<path d="M19.6599 63.9C16.2199 63.9 9.1399 54.88 6.6999 54L10.8399 51.12C12.9199 52.32 15.4999 52.92 18.5799 52.92C20.6199 52.92 22.4599 52.46 24.0999 51.54C25.7799 50.58 26.8399 49.24 27.2799 47.52C26.2799 48.16 25.0599 48.68 23.6199 49.08C22.1799 49.44 20.6799 49.62 19.1199 49.62C16.3599 49.62 13.8999 49.06 11.7399 47.94C9.6199 46.82 7.9399 45.18 6.6999 43.02C5.4999 40.86 4.8999 38.28 4.8999 35.28C4.8999 32.4 5.5799 29.82 6.9399 27.54C8.2999 25.26 10.3399 23.46 13.0599 22.14C15.8199 20.82 19.1999 20.16 23.1999 20.16C29.2799 20.16 33.8999 21.96 37.0599 25.56C40.2599 29.12 41.8599 34.02 41.8599 40.26C41.8599 45.26 40.8599 49.54 38.8599 53.1C36.8999 56.66 34.2399 59.36 30.8799 61.2C27.5199 63 23.7799 63.9 19.6599 63.9ZM23.2599 39.18C24.4599 39.18 25.4199 38.8 26.1399 38.04C26.8599 37.28 27.2199 36.24 27.2199 34.92C27.2199 33.64 26.8599 32.62 26.1399 31.86C25.4599 31.06 24.4999 30.66 23.2599 30.66C21.9399 30.66 20.9199 31.04 20.1999 31.8C19.5199 32.52 19.1799 33.56 19.1799 34.92C19.1799 36.28 19.5199 37.34 20.1999 38.1C20.9199 38.82 21.9399 39.18 23.2599 39.18Z" fill="url(#paint0_linear_210_32)"/>
<mask id="path-2-inside-1_210_32" fill="white">
<path d="M15.66 66.9C12.22 66.9 9.28 66.46 6.84 65.58V54.12C8.92 55.32 11.5 55.92 14.58 55.92C16.62 55.92 18.46 55.46 20.1 54.54C21.78 53.58 22.84 52.24 23.28 50.52C22.28 51.16 21.06 51.68 19.62 52.08C18.18 52.44 16.68 52.62 15.12 52.62C12.36 52.62 9.9 52.06 7.74 50.94C5.62 49.82 3.94 48.18 2.7 46.02C1.5 43.86 0.9 41.28 0.9 38.28C0.9 35.4 1.58 32.82 2.94 30.54C4.3 28.26 6.34 26.46 9.06 25.14C11.82 23.82 15.2 23.16 19.2 23.16C25.28 23.16 29.9 24.96 33.06 28.56C36.26 32.12 37.86 37.02 37.86 43.26C37.86 48.26 36.86 52.54 34.86 56.1C32.9 59.66 30.24 62.36 26.88 64.2C23.52 66 19.78 66.9 15.66 66.9ZM19.26 42.18C20.46 42.18 21.42 41.8 22.14 41.04C22.86 40.28 23.22 39.24 23.22 37.92C23.22 36.64 22.86 35.62 22.14 34.86C21.46 34.06 20.5 33.66 19.26 33.66C17.94 33.66 16.92 34.04 16.2 34.8C15.52 35.52 15.18 36.56 15.18 37.92C15.18 39.28 15.52 40.34 16.2 41.1C16.92 41.82 17.94 42.18 19.26 42.18Z"/>
</mask>
<path d="M15.66 66.9C12.22 66.9 9.28 66.46 6.84 65.58V54.12C8.92 55.32 11.5 55.92 14.58 55.92C16.62 55.92 18.46 55.46 20.1 54.54C21.78 53.58 22.84 52.24 23.28 50.52C22.28 51.16 21.06 51.68 19.62 52.08C18.18 52.44 16.68 52.62 15.12 52.62C12.36 52.62 9.9 52.06 7.74 50.94C5.62 49.82 3.94 48.18 2.7 46.02C1.5 43.86 0.9 41.28 0.9 38.28C0.9 35.4 1.58 32.82 2.94 30.54C4.3 28.26 6.34 26.46 9.06 25.14C11.82 23.82 15.2 23.16 19.2 23.16C25.28 23.16 29.9 24.96 33.06 28.56C36.26 32.12 37.86 37.02 37.86 43.26C37.86 48.26 36.86 52.54 34.86 56.1C32.9 59.66 30.24 62.36 26.88 64.2C23.52 66 19.78 66.9 15.66 66.9ZM19.26 42.18C20.46 42.18 21.42 41.8 22.14 41.04C22.86 40.28 23.22 39.24 23.22 37.92C23.22 36.64 22.86 35.62 22.14 34.86C21.46 34.06 20.5 33.66 19.26 33.66C17.94 33.66 16.92 34.04 16.2 34.8C15.52 35.52 15.18 36.56 15.18 37.92C15.18 39.28 15.52 40.34 16.2 41.1C16.92 41.82 17.94 42.18 19.26 42.18Z" fill="url(#paint1_linear_210_32)"/>
<path d="M6.84 65.58H4.84V66.9848L6.16147 67.4614L6.84 65.58ZM6.84 54.12L7.83945 52.3876L4.84 50.6572V54.12H6.84ZM20.1 54.54L21.0785 56.2843L21.0854 56.2804L21.0923 56.2765L20.1 54.54ZM23.28 50.52L25.2176 51.0157L26.4749 46.1007L22.2019 48.8355L23.28 50.52ZM19.62 52.08L20.1051 54.0203L20.1303 54.014L20.1553 54.007L19.62 52.08ZM7.74 50.94L6.80576 52.7084L6.81255 52.712L6.81937 52.7155L7.74 50.94ZM2.7 46.02L0.951685 46.9913L0.958504 47.0036L0.965494 47.0157L2.7 46.02ZM2.94 30.54L4.65764 31.5646L2.94 30.54ZM9.06 25.14L8.19708 23.3357L8.1868 23.3407L9.06 25.14ZM33.06 28.56L31.5569 29.8794L31.5647 29.8882L31.5726 29.897L33.06 28.56ZM34.86 56.1L33.1163 55.1204L33.1121 55.1279L33.108 55.1354L34.86 56.1ZM26.88 64.2L27.8244 65.963L27.8326 65.9586L27.8406 65.9542L26.88 64.2ZM22.14 41.04L23.5919 42.4155L23.5919 42.4155L22.14 41.04ZM22.14 34.86L20.6161 36.1553L20.651 36.1964L20.6881 36.2355L22.14 34.86ZM16.2 34.8L14.7481 33.4245L14.746 33.4268L16.2 34.8ZM16.2 41.1L14.7095 42.4336L14.7465 42.475L14.7858 42.5142L16.2 41.1ZM15.66 64.9C12.3803 64.9 9.68288 64.4792 7.51853 63.6986L6.16147 67.4614C8.87712 68.4408 12.0597 68.9 15.66 68.9V64.9ZM8.84 65.58V54.12H4.84V65.58H8.84ZM5.84056 55.8524C8.29879 57.2706 11.2463 57.92 14.58 57.92V53.92C11.7537 53.92 9.54121 53.3694 7.83945 52.3876L5.84056 55.8524ZM14.58 57.92C16.9328 57.92 19.1146 57.386 21.0785 56.2843L19.1215 52.7957C17.8054 53.534 16.3072 53.92 14.58 53.92V57.92ZM21.0923 56.2765C23.1956 55.0746 24.6306 53.3102 25.2176 51.0157L21.3424 50.0243C21.0494 51.1698 20.3644 52.0854 19.1077 52.8035L21.0923 56.2765ZM22.2019 48.8355C21.4066 49.3444 20.38 49.7932 19.0847 50.153L20.1553 54.007C21.74 53.5668 23.1534 52.9756 24.3581 52.2045L22.2019 48.8355ZM19.1349 50.1397C17.8614 50.4581 16.5248 50.62 15.12 50.62V54.62C16.8352 54.62 18.4986 54.4219 20.1051 54.0203L19.1349 50.1397ZM15.12 50.62C12.637 50.62 10.5 50.1182 8.66064 49.1645L6.81937 52.7155C9.30005 54.0018 12.083 54.62 15.12 54.62V50.62ZM8.67424 49.1716C6.90208 48.2354 5.49387 46.8696 4.43451 45.0243L0.965494 47.0157C2.38613 49.4904 4.33792 51.4046 6.80576 52.7084L8.67424 49.1716ZM4.44831 45.0487C3.44527 43.2432 2.9 41.0125 2.9 38.28H-1.1C-1.1 41.5475 -0.445271 44.4768 0.951685 46.9913L4.44831 45.0487ZM2.9 38.28C2.9 35.7291 3.498 33.5087 4.65764 31.5646L1.22236 29.5154C-0.338 32.1313 -1.1 35.0709 -1.1 38.28H2.9ZM4.65764 31.5646C5.79099 29.6645 7.51405 28.1133 9.9332 26.9393L8.1868 23.3407C5.16595 24.8067 2.80902 26.8555 1.22236 29.5154L4.65764 31.5646ZM9.92291 26.9443C12.3439 25.7864 15.4105 25.16 19.2 25.16V21.16C14.9895 21.16 11.2961 21.8536 8.19709 23.3357L9.92291 26.9443ZM19.2 25.16C24.8707 25.16 28.8741 26.823 31.5569 29.8794L34.5631 27.2406C30.9259 23.097 25.6893 21.16 19.2 21.16V25.16ZM31.5726 29.897C34.3526 32.9898 35.86 37.3601 35.86 43.26H39.86C39.86 36.6799 38.1674 31.2502 34.5474 27.223L31.5726 29.897ZM35.86 43.26C35.86 47.9933 34.9144 51.9198 33.1163 55.1204L36.6037 57.0796C38.8056 53.1602 39.86 48.5267 39.86 43.26H35.86ZM33.108 55.1354C31.3197 58.3835 28.9253 60.7997 25.9194 62.4458L27.8406 65.9542C31.5547 63.9203 34.4803 60.9365 36.612 57.0646L33.108 55.1354ZM25.9356 62.437C22.8892 64.069 19.4778 64.9 15.66 64.9V68.9C20.0822 68.9 24.1508 67.931 27.8244 65.963L25.9356 62.437ZM19.26 44.18C20.9212 44.18 22.4377 43.6338 23.5919 42.4155L20.6881 39.6645C20.4023 39.9662 19.9988 40.18 19.26 40.18V44.18ZM23.5919 42.4155C24.7493 41.1938 25.22 39.6123 25.22 37.92H21.22C21.22 38.8677 20.9707 39.3662 20.6881 39.6645L23.5919 42.4155ZM25.22 37.92C25.22 36.2485 24.7386 34.695 23.5919 33.4845L20.6881 36.2355C20.9814 36.545 21.22 37.0315 21.22 37.92H25.22ZM23.6639 33.5647C22.5339 32.2354 20.9694 31.66 19.26 31.66V35.66C20.0306 35.66 20.3861 35.8846 20.6161 36.1553L23.6639 33.5647ZM19.26 31.66C17.543 31.66 15.9391 32.1674 14.7481 33.4245L17.6519 36.1755C17.901 35.9126 18.337 35.66 19.26 35.66V31.66ZM14.746 33.4268C13.602 34.638 13.18 36.2425 13.18 37.92H17.18C17.18 36.8775 17.438 36.402 17.654 36.1732L14.746 33.4268ZM13.18 37.92C13.18 39.6053 13.605 41.1991 14.7095 42.4336L17.6905 39.7664C17.435 39.4809 17.18 38.9547 17.18 37.92H13.18ZM14.7858 42.5142C15.9828 43.7112 17.5736 44.18 19.26 44.18V40.18C18.3064 40.18 17.8572 39.9288 17.6142 39.6858L14.7858 42.5142Z" fill="#2B0076" mask="url(#path-2-inside-1_210_32)"/>
<path d="M54.6599 63.9C51.2199 63.9 44.1399 54.88 41.6999 54L45.8399 51.12C47.9199 52.32 50.4999 52.92 53.5799 52.92C55.6199 52.92 57.4599 52.46 59.0999 51.54C60.7799 50.58 61.8399 49.24 62.2799 47.52C61.2799 48.16 60.0599 48.68 58.6199 49.08C57.1799 49.44 55.6799 49.62 54.1199 49.62C51.3599 49.62 48.8999 49.06 46.7399 47.94C44.6199 46.82 42.9399 45.18 41.6999 43.02C40.4999 40.86 39.8999 38.28 39.8999 35.28C39.8999 32.4 40.5799 29.82 41.9399 27.54C43.2999 25.26 45.3399 23.46 48.0599 22.14C50.8199 20.82 54.1999 20.16 58.1999 20.16C64.2799 20.16 68.8999 21.96 72.0599 25.56C75.2599 29.12 76.8599 34.02 76.8599 40.26C76.8599 45.26 75.8599 49.54 73.8599 53.1C71.8999 56.66 69.2399 59.36 65.8799 61.2C62.5199 63 58.7799 63.9 54.6599 63.9ZM58.2599 39.18C59.4599 39.18 60.4199 38.8 61.1399 38.04C61.8599 37.28 62.2199 36.24 62.2199 34.92C62.2199 33.64 61.8599 32.62 61.1399 31.86C60.4599 31.06 59.4999 30.66 58.2599 30.66C56.9399 30.66 55.9199 31.04 55.1999 31.8C54.5199 32.52 54.1799 33.56 54.1799 34.92C54.1799 36.28 54.5199 37.34 55.1999 38.1C55.9199 38.82 56.9399 39.18 58.2599 39.18Z" fill="url(#paint2_linear_210_32)"/>
<mask id="path-5-inside-2_210_32" fill="white">
<path d="M50.66 66.9C47.22 66.9 44.28 66.46 41.84 65.58V54.12C43.92 55.32 46.5 55.92 49.58 55.92C51.62 55.92 53.46 55.46 55.1 54.54C56.78 53.58 57.84 52.24 58.28 50.52C57.28 51.16 56.06 51.68 54.62 52.08C53.18 52.44 51.68 52.62 50.12 52.62C47.36 52.62 44.9 52.06 42.74 50.94C40.62 49.82 38.94 48.18 37.7 46.02C36.5 43.86 35.9 41.28 35.9 38.28C35.9 35.4 36.58 32.82 37.94 30.54C39.3 28.26 41.34 26.46 44.06 25.14C46.82 23.82 50.2 23.16 54.2 23.16C60.28 23.16 64.9 24.96 68.06 28.56C71.26 32.12 72.86 37.02 72.86 43.26C72.86 48.26 71.86 52.54 69.86 56.1C67.9 59.66 65.24 62.36 61.88 64.2C58.52 66 54.78 66.9 50.66 66.9ZM54.26 42.18C55.46 42.18 56.42 41.8 57.14 41.04C57.86 40.28 58.22 39.24 58.22 37.92C58.22 36.64 57.86 35.62 57.14 34.86C56.46 34.06 55.5 33.66 54.26 33.66C52.94 33.66 51.92 34.04 51.2 34.8C50.52 35.52 50.18 36.56 50.18 37.92C50.18 39.28 50.52 40.34 51.2 41.1C51.92 41.82 52.94 42.18 54.26 42.18Z"/>
</mask>
<path d="M50.66 66.9C47.22 66.9 44.28 66.46 41.84 65.58V54.12C43.92 55.32 46.5 55.92 49.58 55.92C51.62 55.92 53.46 55.46 55.1 54.54C56.78 53.58 57.84 52.24 58.28 50.52C57.28 51.16 56.06 51.68 54.62 52.08C53.18 52.44 51.68 52.62 50.12 52.62C47.36 52.62 44.9 52.06 42.74 50.94C40.62 49.82 38.94 48.18 37.7 46.02C36.5 43.86 35.9 41.28 35.9 38.28C35.9 35.4 36.58 32.82 37.94 30.54C39.3 28.26 41.34 26.46 44.06 25.14C46.82 23.82 50.2 23.16 54.2 23.16C60.28 23.16 64.9 24.96 68.06 28.56C71.26 32.12 72.86 37.02 72.86 43.26C72.86 48.26 71.86 52.54 69.86 56.1C67.9 59.66 65.24 62.36 61.88 64.2C58.52 66 54.78 66.9 50.66 66.9ZM54.26 42.18C55.46 42.18 56.42 41.8 57.14 41.04C57.86 40.28 58.22 39.24 58.22 37.92C58.22 36.64 57.86 35.62 57.14 34.86C56.46 34.06 55.5 33.66 54.26 33.66C52.94 33.66 51.92 34.04 51.2 34.8C50.52 35.52 50.18 36.56 50.18 37.92C50.18 39.28 50.52 40.34 51.2 41.1C51.92 41.82 52.94 42.18 54.26 42.18Z" fill="url(#paint3_linear_210_32)"/>
<path d="M41.84 65.58H39.84V66.9848L41.1615 67.4614L41.84 65.58ZM41.84 54.12L42.8394 52.3876L39.84 50.6572V54.12H41.84ZM55.1 54.54L56.0785 56.2843L56.0854 56.2804L56.0923 56.2765L55.1 54.54ZM58.28 50.52L60.2176 51.0157L61.4749 46.1007L57.2019 48.8355L58.28 50.52ZM54.62 52.08L55.1051 54.0203L55.1303 54.014L55.1553 54.007L54.62 52.08ZM42.74 50.94L41.8058 52.7084L41.8125 52.712L41.8194 52.7155L42.74 50.94ZM37.7 46.02L35.9517 46.9913L35.9585 47.0036L35.9655 47.0157L37.7 46.02ZM37.94 30.54L39.6576 31.5646L37.94 30.54ZM44.06 25.14L43.1971 23.3357L43.1868 23.3407L44.06 25.14ZM68.06 28.56L66.5569 29.8794L66.5647 29.8882L66.5726 29.897L68.06 28.56ZM69.86 56.1L68.1163 55.1204L68.1121 55.1279L68.108 55.1354L69.86 56.1ZM61.88 64.2L62.8244 65.963L62.8326 65.9586L62.8406 65.9542L61.88 64.2ZM57.14 41.04L58.5919 42.4155L58.5919 42.4155L57.14 41.04ZM57.14 34.86L55.6161 36.1553L55.651 36.1964L55.6881 36.2355L57.14 34.86ZM51.2 34.8L49.7481 33.4245L49.746 33.4268L51.2 34.8ZM51.2 41.1L49.7095 42.4336L49.7465 42.475L49.7858 42.5142L51.2 41.1ZM50.66 64.9C47.3803 64.9 44.6829 64.4792 42.5185 63.6986L41.1615 67.4614C43.8771 68.4408 47.0597 68.9 50.66 68.9V64.9ZM43.84 65.58V54.12H39.84V65.58H43.84ZM40.8406 55.8524C43.2988 57.2706 46.2463 57.92 49.58 57.92V53.92C46.7537 53.92 44.5412 53.3694 42.8394 52.3876L40.8406 55.8524ZM49.58 57.92C51.9328 57.92 54.1146 57.386 56.0785 56.2843L54.1215 52.7957C52.8054 53.534 51.3072 53.92 49.58 53.92V57.92ZM56.0923 56.2765C58.1956 55.0746 59.6306 53.3102 60.2176 51.0157L56.3424 50.0243C56.0494 51.1698 55.3644 52.0854 54.1077 52.8035L56.0923 56.2765ZM57.2019 48.8355C56.4066 49.3444 55.38 49.7932 54.0847 50.153L55.1553 54.007C56.74 53.5668 58.1534 52.9756 59.3581 52.2045L57.2019 48.8355ZM54.1349 50.1397C52.8614 50.4581 51.5248 50.62 50.12 50.62V54.62C51.8352 54.62 53.4986 54.4219 55.1051 54.0203L54.1349 50.1397ZM50.12 50.62C47.637 50.62 45.5 50.1182 43.6606 49.1645L41.8194 52.7155C44.3001 54.0018 47.083 54.62 50.12 54.62V50.62ZM43.6742 49.1716C41.9021 48.2354 40.4939 46.8696 39.4345 45.0243L35.9655 47.0157C37.3861 49.4904 39.3379 51.4046 41.8058 52.7084L43.6742 49.1716ZM39.4483 45.0487C38.4453 43.2432 37.9 41.0125 37.9 38.28H33.9C33.9 41.5475 34.5547 44.4768 35.9517 46.9913L39.4483 45.0487ZM37.9 38.28C37.9 35.7291 38.498 33.5087 39.6576 31.5646L36.2224 29.5154C34.662 32.1313 33.9 35.0709 33.9 38.28H37.9ZM39.6576 31.5646C40.791 29.6645 42.5141 28.1133 44.9332 26.9393L43.1868 23.3407C40.1659 24.8067 37.809 26.8555 36.2224 29.5154L39.6576 31.5646ZM44.9229 26.9443C47.3439 25.7864 50.4105 25.16 54.2 25.16V21.16C49.9895 21.16 46.2961 21.8536 43.1971 23.3357L44.9229 26.9443ZM54.2 25.16C59.8707 25.16 63.8741 26.823 66.5569 29.8794L69.5631 27.2406C65.9259 23.097 60.6893 21.16 54.2 21.16V25.16ZM66.5726 29.897C69.3526 32.9898 70.86 37.3601 70.86 43.26H74.86C74.86 36.6799 73.1674 31.2502 69.5474 27.223L66.5726 29.897ZM70.86 43.26C70.86 47.9933 69.9144 51.9198 68.1163 55.1204L71.6037 57.0796C73.8056 53.1602 74.86 48.5267 74.86 43.26H70.86ZM68.108 55.1354C66.3197 58.3835 63.9253 60.7997 60.9194 62.4458L62.8406 65.9542C66.5547 63.9203 69.4803 60.9365 71.612 57.0646L68.108 55.1354ZM60.9356 62.437C57.8892 64.069 54.4778 64.9 50.66 64.9V68.9C55.0822 68.9 59.1508 67.931 62.8244 65.963L60.9356 62.437ZM54.26 44.18C55.9212 44.18 57.4377 43.6338 58.5919 42.4155L55.6881 39.6645C55.4023 39.9662 54.9988 40.18 54.26 40.18V44.18ZM58.5919 42.4155C59.7493 41.1938 60.22 39.6123 60.22 37.92H56.22C56.22 38.8677 55.9707 39.3662 55.6881 39.6645L58.5919 42.4155ZM60.22 37.92C60.22 36.2485 59.7386 34.695 58.5919 33.4845L55.6881 36.2355C55.9814 36.545 56.22 37.0315 56.22 37.92H60.22ZM58.6639 33.5647C57.5339 32.2354 55.9694 31.66 54.26 31.66V35.66C55.0306 35.66 55.3861 35.8846 55.6161 36.1553L58.6639 33.5647ZM54.26 31.66C52.543 31.66 50.9391 32.1674 49.7481 33.4245L52.6519 36.1755C52.901 35.9126 53.337 35.66 54.26 35.66V31.66ZM49.746 33.4268C48.602 34.638 48.18 36.2425 48.18 37.92H52.18C52.18 36.8775 52.438 36.402 52.654 36.1732L49.746 33.4268ZM48.18 37.92C48.18 39.6053 48.605 41.1991 49.7095 42.4336L52.6905 39.7664C52.435 39.4809 52.18 38.9547 52.18 37.92H48.18ZM49.7858 42.5142C50.9828 43.7112 52.5736 44.18 54.26 44.18V40.18C53.3064 40.18 52.8572 39.9288 52.6142 39.6858L49.7858 42.5142Z" fill="#2B0076" mask="url(#path-5-inside-2_210_32)"/>
<path d="M83.92 49.12C82.5867 49.12 81.36 48.8 80.24 48.16C79.12 47.4933 78.2267 46.6 77.56 45.48C76.92 44.36 76.6 43.1333 76.6 41.8C76.6 40.4667 76.92 39.24 77.56 38.12C78.2267 36.9733 79.12 36.08 80.24 35.44C81.36 34.7733 82.5867 34.44 83.92 34.44C85.2533 34.44 86.48 34.7733 87.6 35.44C88.7467 36.08 89.64 36.9733 90.28 38.12C90.9467 39.24 91.28 40.4667 91.28 41.8C91.28 43.1333 90.9467 44.36 90.28 45.48C89.64 46.6 88.7467 47.4933 87.6 48.16C86.48 48.8 85.2533 49.12 83.92 49.12ZM97.24 35.04H106.44L90.96 63H81.76L97.24 35.04ZM83.92 44.04C84.5333 44.04 85.04 43.84 85.44 43.44C85.84 43.0133 86.04 42.5067 86.04 41.92C86.04 41.3067 85.8267 40.8 85.4 40.4C85 39.9733 84.5067 39.76 83.92 39.76C83.3333 39.76 82.8267 39.9733 82.4 40.4C82 40.8 81.8 41.3067 81.8 41.92C81.8 42.5067 82 43.0133 82.4 43.44C82.8267 43.84 83.3333 44.04 83.92 44.04ZM104.2 63.6C102.867 63.6 101.64 63.28 100.52 62.64C99.4 61.9733 98.5067 61.08 97.84 59.96C97.2 58.84 96.88 57.6133 96.88 56.28C96.88 54.9467 97.2 53.72 97.84 52.6C98.5067 51.4533 99.4 50.56 100.52 49.92C101.64 49.2533 102.867 48.92 104.2 48.92C105.533 48.92 106.76 49.2533 107.88 49.92C109.027 50.56 109.92 51.4533 110.56 52.6C111.227 53.72 111.56 54.9467 111.56 56.28C111.56 57.6133 111.227 58.84 110.56 59.96C109.92 61.08 109.027 61.9733 107.88 62.64C106.76 63.28 105.533 63.6 104.2 63.6ZM104.2 58.52C104.813 58.52 105.32 58.32 105.72 57.92C106.12 57.4933 106.32 56.9867 106.32 56.4C106.32 55.7867 106.107 55.28 105.68 54.88C105.28 54.4533 104.787 54.24 104.2 54.24C103.613 54.24 103.107 54.4533 102.68 54.88C102.28 55.28 102.08 55.7867 102.08 56.4C102.08 56.9867 102.28 57.4933 102.68 57.92C103.107 58.32 103.613 58.52 104.2 58.52Z" fill="#4701BC"/>
<mask id="path-8-inside-3_210_32" fill="white">
<path d="M81.92 49.12C80.5867 49.12 79.36 48.8 78.24 48.16C77.12 47.4933 76.2267 46.6 75.56 45.48C74.92 44.36 74.6 43.1333 74.6 41.8C74.6 40.4667 74.92 39.24 75.56 38.12C76.2267 36.9733 77.12 36.08 78.24 35.44C79.36 34.7733 80.5867 34.44 81.92 34.44C83.2533 34.44 84.48 34.7733 85.6 35.44C86.7467 36.08 87.64 36.9733 88.28 38.12C88.9467 39.24 89.28 40.4667 89.28 41.8C89.28 43.1333 88.9467 44.36 88.28 45.48C87.64 46.6 86.7467 47.4933 85.6 48.16C84.48 48.8 83.2533 49.12 81.92 49.12ZM95.24 35.04H104.44L88.96 63H79.76L95.24 35.04ZM81.92 44.04C82.5333 44.04 83.04 43.84 83.44 43.44C83.84 43.0133 84.04 42.5067 84.04 41.92C84.04 41.3067 83.8267 40.8 83.4 40.4C83 39.9733 82.5067 39.76 81.92 39.76C81.3333 39.76 80.8267 39.9733 80.4 40.4C80 40.8 79.8 41.3067 79.8 41.92C79.8 42.5067 80 43.0133 80.4 43.44C80.8267 43.84 81.3333 44.04 81.92 44.04ZM102.2 63.6C100.867 63.6 99.64 63.28 98.52 62.64C97.4 61.9733 96.5067 61.08 95.84 59.96C95.2 58.84 94.88 57.6133 94.88 56.28C94.88 54.9467 95.2 53.72 95.84 52.6C96.5067 51.4533 97.4 50.56 98.52 49.92C99.64 49.2533 100.867 48.92 102.2 48.92C103.533 48.92 104.76 49.2533 105.88 49.92C107.027 50.56 107.92 51.4533 108.56 52.6C109.227 53.72 109.56 54.9467 109.56 56.28C109.56 57.6133 109.227 58.84 108.56 59.96C107.92 61.08 107.027 61.9733 105.88 62.64C104.76 63.28 103.533 63.6 102.2 63.6ZM102.2 58.52C102.813 58.52 103.32 58.32 103.72 57.92C104.12 57.4933 104.32 56.9867 104.32 56.4C104.32 55.7867 104.107 55.28 103.68 54.88C103.28 54.4533 102.787 54.24 102.2 54.24C101.613 54.24 101.107 54.4533 100.68 54.88C100.28 55.28 100.08 55.7867 100.08 56.4C100.08 56.9867 100.28 57.4933 100.68 57.92C101.107 58.32 101.613 58.52 102.2 58.52Z"/>
</mask>
<path d="M81.92 49.12C80.5867 49.12 79.36 48.8 78.24 48.16C77.12 47.4933 76.2267 46.6 75.56 45.48C74.92 44.36 74.6 43.1333 74.6 41.8C74.6 40.4667 74.92 39.24 75.56 38.12C76.2267 36.9733 77.12 36.08 78.24 35.44C79.36 34.7733 80.5867 34.44 81.92 34.44C83.2533 34.44 84.48 34.7733 85.6 35.44C86.7467 36.08 87.64 36.9733 88.28 38.12C88.9467 39.24 89.28 40.4667 89.28 41.8C89.28 43.1333 88.9467 44.36 88.28 45.48C87.64 46.6 86.7467 47.4933 85.6 48.16C84.48 48.8 83.2533 49.12 81.92 49.12ZM95.24 35.04H104.44L88.96 63H79.76L95.24 35.04ZM81.92 44.04C82.5333 44.04 83.04 43.84 83.44 43.44C83.84 43.0133 84.04 42.5067 84.04 41.92C84.04 41.3067 83.8267 40.8 83.4 40.4C83 39.9733 82.5067 39.76 81.92 39.76C81.3333 39.76 80.8267 39.9733 80.4 40.4C80 40.8 79.8 41.3067 79.8 41.92C79.8 42.5067 80 43.0133 80.4 43.44C80.8267 43.84 81.3333 44.04 81.92 44.04ZM102.2 63.6C100.867 63.6 99.64 63.28 98.52 62.64C97.4 61.9733 96.5067 61.08 95.84 59.96C95.2 58.84 94.88 57.6133 94.88 56.28C94.88 54.9467 95.2 53.72 95.84 52.6C96.5067 51.4533 97.4 50.56 98.52 49.92C99.64 49.2533 100.867 48.92 102.2 48.92C103.533 48.92 104.76 49.2533 105.88 49.92C107.027 50.56 107.92 51.4533 108.56 52.6C109.227 53.72 109.56 54.9467 109.56 56.28C109.56 57.6133 109.227 58.84 108.56 59.96C107.92 61.08 107.027 61.9733 105.88 62.64C104.76 63.28 103.533 63.6 102.2 63.6ZM102.2 58.52C102.813 58.52 103.32 58.32 103.72 57.92C104.12 57.4933 104.32 56.9867 104.32 56.4C104.32 55.7867 104.107 55.28 103.68 54.88C103.28 54.4533 102.787 54.24 102.2 54.24C101.613 54.24 101.107 54.4533 100.68 54.88C100.28 55.28 100.08 55.7867 100.08 56.4C100.08 56.9867 100.28 57.4933 100.68 57.92C101.107 58.32 101.613 58.52 102.2 58.52Z" fill="url(#paint4_linear_210_32)"/>
<path d="M78.24 48.16L77.217 49.8786L77.2323 49.8877L77.2477 49.8965L78.24 48.16ZM75.56 45.48L73.8235 46.4723L73.8323 46.4877L73.8414 46.503L75.56 45.48ZM75.56 38.12L73.831 37.1148L73.8272 37.1212L73.8235 37.1277L75.56 38.12ZM78.24 35.44L79.2323 37.1765L79.2477 37.1677L79.263 37.1586L78.24 35.44ZM85.6 35.44L84.577 37.1586L84.601 37.1728L84.6253 37.1864L85.6 35.44ZM88.28 38.12L86.5336 39.0947L86.5472 39.119L86.5614 39.143L88.28 38.12ZM88.28 45.48L86.5614 44.457L86.5523 44.4723L86.5435 44.4877L88.28 45.48ZM85.6 48.16L86.5923 49.8965L86.5988 49.8928L86.6052 49.889L85.6 48.16ZM95.24 35.04V33.04H94.0612L93.4903 34.0713L95.24 35.04ZM104.44 35.04L106.19 36.0087L107.833 33.04H104.44V35.04ZM88.96 63V65H90.1388L90.7097 63.9687L88.96 63ZM79.76 63L78.0103 62.0313L76.3666 65H79.76V63ZM83.44 43.44L84.8542 44.8542L84.877 44.8314L84.8991 44.8079L83.44 43.44ZM83.4 40.4L81.9409 41.7679L81.9851 41.8149L82.0321 41.8591L83.4 40.4ZM80.4 40.4L81.8142 41.8142L81.8142 41.8142L80.4 40.4ZM80.4 43.44L78.9409 44.8079L78.9851 44.8549L79.0321 44.8991L80.4 43.44ZM98.52 62.64L97.497 64.3586L97.5123 64.3677L97.5277 64.3765L98.52 62.64ZM95.84 59.96L94.1035 60.9523L94.1123 60.9677L94.1214 60.983L95.84 59.96ZM95.84 52.6L94.111 51.5948L94.1072 51.6012L94.1035 51.6077L95.84 52.6ZM98.52 49.92L99.5123 51.6565L99.5277 51.6477L99.543 51.6386L98.52 49.92ZM105.88 49.92L104.857 51.6386L104.881 51.6528L104.905 51.6664L105.88 49.92ZM108.56 52.6L106.814 53.5747L106.827 53.599L106.841 53.623L108.56 52.6ZM108.56 59.96L106.841 58.937L106.832 58.9523L106.824 58.9677L108.56 59.96ZM105.88 62.64L106.872 64.3765L106.879 64.3728L106.885 64.369L105.88 62.64ZM103.72 57.92L105.134 59.3342L105.157 59.3114L105.179 59.2879L103.72 57.92ZM103.68 54.88L102.221 56.2479L102.265 56.2949L102.312 56.3391L103.68 54.88ZM100.68 54.88L102.094 56.2942L102.094 56.2942L100.68 54.88ZM100.68 57.92L99.2209 59.2879L99.2651 59.3349L99.3121 59.3791L100.68 57.92ZM81.92 47.12C80.9225 47.12 80.0397 46.8849 79.2323 46.4235L77.2477 49.8965C78.6803 50.7151 80.2508 51.12 81.92 51.12V47.12ZM79.263 46.4414C78.4291 45.9451 77.7749 45.2909 77.2786 44.457L73.8414 46.503C74.6784 47.9091 75.8109 49.0416 77.217 49.8786L79.263 46.4414ZM77.2965 44.4877C76.8351 43.6803 76.6 42.7975 76.6 41.8H72.6C72.6 43.4692 73.0049 45.0397 73.8235 46.4723L77.2965 44.4877ZM76.6 41.8C76.6 40.8025 76.8351 39.9196 77.2965 39.1123L73.8235 37.1277C73.0049 38.5603 72.6 40.1308 72.6 41.8H76.6ZM77.289 39.1252C77.784 38.2739 78.4268 37.6367 79.2323 37.1765L77.2477 33.7035C75.8132 34.5233 74.6694 35.6727 73.831 37.1148L77.289 39.1252ZM79.263 37.1586C80.0662 36.6805 80.9381 36.44 81.92 36.44V32.44C80.2352 32.44 78.6538 32.8662 77.217 33.7214L79.263 37.1586ZM81.92 36.44C82.9019 36.44 83.7738 36.6805 84.577 37.1586L86.623 33.7214C85.1862 32.8662 83.6048 32.44 81.92 32.44V36.44ZM84.6253 37.1864C85.4482 37.6457 86.0743 38.2718 86.5336 39.0947L90.0264 37.1453C89.2057 35.6748 88.0452 34.5143 86.5747 33.6936L84.6253 37.1864ZM86.5614 39.143C87.0395 39.9461 87.28 40.8181 87.28 41.8H91.28C91.28 40.1152 90.8538 38.5338 89.9986 37.097L86.5614 39.143ZM87.28 41.8C87.28 42.7819 87.0395 43.6538 86.5614 44.457L89.9986 46.503C90.8538 45.0662 91.28 43.4848 91.28 41.8H87.28ZM86.5435 44.4877C86.0833 45.2932 85.4461 45.936 84.5948 46.431L86.6052 49.889C88.0473 49.0506 89.1967 47.9068 90.0165 46.4723L86.5435 44.4877ZM84.6077 46.4235C83.8003 46.8849 82.9175 47.12 81.92 47.12V51.12C83.5892 51.12 85.1597 50.7151 86.5923 49.8965L84.6077 46.4235ZM95.24 37.04H104.44V33.04H95.24V37.04ZM102.69 34.0713L87.2103 62.0313L90.7097 63.9687L106.19 36.0087L102.69 34.0713ZM88.96 61H79.76V65H88.96V61ZM81.5097 63.9687L96.9897 36.0087L93.4903 34.0713L78.0103 62.0313L81.5097 63.9687ZM81.92 46.04C83.0145 46.04 84.0457 45.6628 84.8542 44.8542L82.0258 42.0258C82.0167 42.0349 82.0134 42.0365 82.0163 42.0346C82.0193 42.0326 82.0231 42.0307 82.0257 42.0297C82.0338 42.0265 82.0068 42.04 81.92 42.04V46.04ZM84.8991 44.8079C85.6478 44.0092 86.04 43.013 86.04 41.92H82.04C82.04 41.9815 82.0305 42.0036 82.0297 42.0057C82.0289 42.0076 82.0212 42.0291 81.9809 42.0721L84.8991 44.8079ZM86.04 41.92C86.04 40.7841 85.6194 39.7392 84.7679 38.9409L82.0321 41.8591C82.0453 41.8714 82.0483 41.8765 82.0461 41.8734C82.0437 41.87 82.0399 41.8636 82.0367 41.8561C82.0336 41.8488 82.0339 41.847 82.0353 41.8542C82.0368 41.862 82.04 41.8828 82.04 41.92H86.04ZM84.8591 39.0321C84.0796 38.2007 83.0575 37.76 81.92 37.76V41.76C81.945 41.76 81.9556 41.7622 81.9549 41.7621C81.9548 41.7621 81.9526 41.7616 81.949 41.7605C81.9453 41.7593 81.9409 41.7578 81.9362 41.7557C81.9314 41.7537 81.9272 41.7515 81.9237 41.7495C81.9202 41.7475 81.9182 41.7461 81.9177 41.7458C81.9165 41.745 81.9247 41.7505 81.9409 41.7679L84.8591 39.0321ZM81.92 37.76C80.7862 37.76 79.7756 38.196 78.9858 38.9858L81.8142 41.8142C81.8396 41.7888 81.8573 41.7755 81.8661 41.7695C81.8745 41.7636 81.8776 41.7626 81.8761 41.7633C81.8745 41.7639 81.8744 41.7637 81.878 41.763C81.882 41.7622 81.8951 41.76 81.92 41.76V37.76ZM78.9858 38.9858C78.1772 39.7943 77.8 40.8255 77.8 41.92H81.8C81.8 41.8332 81.8135 41.8062 81.8103 41.8143C81.8093 41.8169 81.8074 41.8207 81.8054 41.8237C81.8035 41.8266 81.8051 41.8233 81.8142 41.8142L78.9858 38.9858ZM77.8 41.92C77.8 43.013 78.1922 44.0092 78.9409 44.8079L81.8591 42.0721C81.8188 42.0291 81.8111 42.0076 81.8103 42.0057C81.8095 42.0036 81.8 41.9815 81.8 41.92H77.8ZM79.0321 44.8991C79.8308 45.6478 80.827 46.04 81.92 46.04V42.04C81.8585 42.04 81.8364 42.0305 81.8343 42.0297C81.8324 42.0289 81.8109 42.0212 81.7679 41.9809L79.0321 44.8991ZM102.2 61.6C101.203 61.6 100.32 61.3649 99.5123 60.9035L97.5277 64.3765C98.9603 65.1951 100.531 65.6 102.2 65.6V61.6ZM99.543 60.9214C98.7091 60.4251 98.0549 59.7709 97.5586 58.937L94.1214 60.983C94.9584 62.3891 96.0909 63.5216 97.497 64.3586L99.543 60.9214ZM97.5765 58.9677C97.1151 58.1603 96.88 57.2775 96.88 56.28H92.88C92.88 57.9492 93.2849 59.5197 94.1035 60.9523L97.5765 58.9677ZM96.88 56.28C96.88 55.2825 97.1151 54.3997 97.5765 53.5923L94.1035 51.6077C93.2849 53.0403 92.88 54.6108 92.88 56.28H96.88ZM97.569 53.6052C98.064 52.7539 98.7068 52.1167 99.5123 51.6565L97.5277 48.1835C96.0932 49.0033 94.9494 50.1527 94.111 51.5948L97.569 53.6052ZM99.543 51.6386C100.346 51.1605 101.218 50.92 102.2 50.92V46.92C100.515 46.92 98.9339 47.3462 97.497 48.2014L99.543 51.6386ZM102.2 50.92C103.182 50.92 104.054 51.1605 104.857 51.6386L106.903 48.2014C105.466 47.3462 103.885 46.92 102.2 46.92V50.92ZM104.905 51.6664C105.728 52.1257 106.354 52.7518 106.814 53.5747L110.306 51.6253C109.486 50.1548 108.325 48.9943 106.855 48.1736L104.905 51.6664ZM106.841 53.623C107.32 54.4262 107.56 55.2981 107.56 56.28H111.56C111.56 54.5952 111.134 53.0138 110.279 51.577L106.841 53.623ZM107.56 56.28C107.56 57.2619 107.32 58.1338 106.841 58.937L110.279 60.983C111.134 59.5462 111.56 57.9648 111.56 56.28H107.56ZM106.824 58.9677C106.363 59.7732 105.726 60.416 104.875 60.911L106.885 64.369C108.327 63.5306 109.477 62.3868 110.296 60.9523L106.824 58.9677ZM104.888 60.9035C104.08 61.3649 103.197 61.6 102.2 61.6V65.6C103.869 65.6 105.44 65.1951 106.872 64.3765L104.888 60.9035ZM102.2 60.52C103.294 60.52 104.326 60.1428 105.134 59.3342L102.306 56.5058C102.297 56.5149 102.293 56.5165 102.296 56.5146C102.299 56.5126 102.303 56.5107 102.306 56.5097C102.314 56.5065 102.287 56.52 102.2 56.52V60.52ZM105.179 59.2879C105.928 58.4892 106.32 57.493 106.32 56.4H102.32C102.32 56.4615 102.31 56.4836 102.31 56.4857C102.309 56.4876 102.301 56.5091 102.261 56.5521L105.179 59.2879ZM106.32 56.4C106.32 55.2641 105.899 54.2193 105.048 53.4209L102.312 56.3391C102.325 56.3514 102.328 56.3565 102.326 56.3534C102.324 56.35 102.32 56.3436 102.317 56.3361C102.314 56.3288 102.314 56.327 102.315 56.3342C102.317 56.342 102.32 56.3628 102.32 56.4H106.32ZM105.139 53.5121C104.36 52.6807 103.338 52.24 102.2 52.24V56.24C102.225 56.24 102.236 56.2422 102.235 56.2421C102.235 56.2421 102.233 56.2416 102.229 56.2405C102.225 56.2394 102.221 56.2378 102.216 56.2357C102.211 56.2337 102.207 56.2315 102.204 56.2295C102.2 56.2275 102.198 56.2261 102.198 56.2258C102.197 56.225 102.205 56.2305 102.221 56.2479L105.139 53.5121ZM102.2 52.24C101.066 52.24 100.056 52.676 99.2658 53.4658L102.094 56.2942C102.12 56.2688 102.137 56.2555 102.146 56.2495C102.155 56.2436 102.158 56.2426 102.156 56.2433C102.155 56.2439 102.154 56.2437 102.158 56.243C102.162 56.2422 102.175 56.24 102.2 56.24V52.24ZM99.2658 53.4658C98.4572 54.2743 98.08 55.3055 98.08 56.4H102.08C102.08 56.3132 102.094 56.2862 102.09 56.2943C102.089 56.2969 102.087 56.3007 102.085 56.3037C102.083 56.3066 102.085 56.3033 102.094 56.2942L99.2658 53.4658ZM98.08 56.4C98.08 57.493 98.4722 58.4892 99.2209 59.2879L102.139 56.5521C102.099 56.5091 102.091 56.4876 102.09 56.4857C102.09 56.4836 102.08 56.4615 102.08 56.4H98.08ZM99.3121 59.3791C100.111 60.1278 101.107 60.52 102.2 60.52V56.52C102.139 56.52 102.116 56.5105 102.114 56.5097C102.112 56.5089 102.091 56.5012 102.048 56.4609L99.3121 59.3791Z" fill="#2B0076" mask="url(#path-8-inside-3_210_32)"/>
<path d="M69.0463 51.8809L71.243 49.1659L71.7879 52.6154C72.0234 54.1068 72.7184 55.4876 73.7759 56.5652L75.8699 58.6992L72.9894 59.5003C71.5348 59.9049 70.2426 60.7531 69.2929 61.9269L67.0962 64.6419L66.5513 61.1923C66.3158 59.701 65.6208 58.3202 64.5633 57.2425L62.4693 55.1086L65.3498 54.3075C66.8044 53.9029 68.0966 53.0546 69.0463 51.8809Z" fill="white" stroke="#2B0076" stroke-width="1.25047"/>
<path d="M35.211 13.5929L35.8202 12.84L35.9713 13.7966C36.2069 15.288 36.9019 16.6688 37.9594 17.7464L38.4995 18.2969L37.7565 18.5035C36.3018 18.908 35.0096 19.7563 34.0599 20.9301L33.4507 21.683L33.2996 20.7264C33.0641 19.235 32.3691 17.8542 31.3116 16.7766L30.7715 16.2262L31.5145 16.0195C32.9691 15.615 34.2613 14.7667 35.211 13.5929Z" fill="white" stroke="#2B0076" stroke-width="1.25047"/>
<defs>
<linearGradient id="paint0_linear_210_32" x1="38.5" y1="9" x2="59.1023" y2="48.6622" gradientUnits="userSpaceOnUse">
<stop stop-color="#3500A5"/>
<stop offset="0.245" stop-color="#4800BD"/>
<stop offset="0.82" stop-color="#1D0287"/>
</linearGradient>
<linearGradient id="paint1_linear_210_32" x1="34.5" y1="12" x2="55.1023" y2="51.6622" gradientUnits="userSpaceOnUse">
<stop stop-color="white"/>
<stop offset="0.245" stop-color="#B7A3E3"/>
<stop offset="0.325" stop-color="#E2D8F3"/>
<stop offset="0.695" stop-color="#E2D8F3"/>
<stop offset="0.82" stop-color="#BFA4E2"/>
<stop offset="1" stop-color="white"/>
</linearGradient>
<linearGradient id="paint2_linear_210_32" x1="73.5" y1="9" x2="94.1023" y2="48.6622" gradientUnits="userSpaceOnUse">
<stop stop-color="#3500A5"/>
<stop offset="0.245" stop-color="#4800BD"/>
<stop offset="0.82" stop-color="#1D0287"/>
</linearGradient>
<linearGradient id="paint3_linear_210_32" x1="69.5" y1="12" x2="90.1023" y2="51.6622" gradientUnits="userSpaceOnUse">
<stop stop-color="white"/>
<stop offset="0.245" stop-color="#B7A3E3"/>
<stop offset="0.325" stop-color="#E2D8F3"/>
<stop offset="0.695" stop-color="#E2D8F3"/>
<stop offset="0.82" stop-color="#BFA4E2"/>
<stop offset="1" stop-color="white"/>
</linearGradient>
<linearGradient id="paint4_linear_210_32" x1="106.731" y1="27.9121" x2="117.336" y2="57.2904" gradientUnits="userSpaceOnUse">
<stop stop-color="white"/>
<stop offset="0.245" stop-color="#B7A3E3"/>
<stop offset="0.325" stop-color="#E2D8F3"/>
<stop offset="0.695" stop-color="#E2D8F3"/>
<stop offset="0.82" stop-color="#BFA4E2"/>
<stop offset="1" stop-color="white"/>
</linearGradient>
</defs>
</svg>
