<svg width="24" height="25" viewBox="0 0 24 25" fill="none" xmlns="http://www.w3.org/2000/svg">
<path d="M22.46 6.08984C21.69 6.43984 20.86 6.66984 20 6.77984C20.88 6.24984 21.56 5.40984 21.88 4.39984C21.05 4.89984 20.13 5.24984 19.16 5.44984C18.37 4.58984 17.26 4.08984 16 4.08984C13.65 4.08984 11.73 6.00984 11.73 8.37984C11.73 8.71984 11.77 9.04984 11.84 9.35984C8.28004 9.17984 5.11004 7.46984 3.00004 4.87984C2.63004 5.50984 2.42004 6.24984 2.42004 7.02984C2.42004 8.51984 3.17004 9.83984 4.33004 10.5898C3.62004 10.5898 2.96004 10.3898 2.38004 10.0898V10.1198C2.38004 12.1998 3.86004 13.9398 5.82004 14.3298C5.19088 14.5028 4.53008 14.5267 3.89004 14.3998C4.16165 15.2523 4.69358 15.9983 5.41106 16.5328C6.12854 17.0673 6.99549 17.3635 7.89004 17.3798C6.37371 18.5804 4.49405 19.2292 2.56004 19.2198C2.22004 19.2198 1.88004 19.1998 1.54004 19.1598C3.44004 20.3798 5.70004 21.0898 8.12004 21.0898C16 21.0898 20.33 14.5498 20.33 8.87984C20.33 8.68984 20.33 8.50984 20.32 8.31984C21.16 7.71984 21.88 6.95984 22.46 6.08984Z" fill="#747e94"/>
</svg>
