<svg width="1252" height="673" viewBox="0 0 1252 673" fill="none" xmlns="http://www.w3.org/2000/svg">
<path d="M116.333 30C116.333 31.4728 117.527 32.6667 119 32.6667C120.473 32.6667 121.667 31.4728 121.667 30C121.667 28.5272 120.473 27.3333 119 27.3333C117.527 27.3333 116.333 28.5272 116.333 30ZM75 30.5H76V29.5H75V30.5ZM78 30.5H80V29.5H78V30.5ZM82 30.5H84V29.5H82V30.5ZM86 30.5H88V29.5H86V30.5ZM90 30.5H92V29.5H90V30.5ZM94 30.5H96V29.5H94V30.5ZM98 30.5H100V29.5H98V30.5ZM102 30.5H104V29.5H102V30.5ZM106 30.5H108V29.5H106V30.5ZM110 30.5H112V29.5H110V30.5ZM114 30.5H116V29.5H114V30.5ZM118 30.5H119V29.5H118V30.5Z" fill="#4EAC62"/>
<rect x="119.5" y="0.5" width="151" height="59" rx="7.5" fill="#DCEFE0"/>
<path d="M177.418 24.957V24.0547H175.559V24.957C175.545 26.7617 173.925 28.7168 171.156 29.209L171.908 30.6582C174.062 30.2207 175.675 28.9902 176.495 27.4111C177.302 29.0039 178.908 30.2275 181.082 30.6582L181.848 29.209C179.031 28.7305 177.411 26.7822 177.418 24.957ZM170.869 34.2266H182.258V32.791H170.869V34.2266ZM193.291 23.6582H183.953V24.957H185.566V26.5977H184.035V27.8965H193.209V26.5977H191.664V24.957H193.291V23.6582ZM182.955 29.9199H194.302V28.5527H182.955V29.9199ZM184.267 31.8887H191.199V32.5176H184.281V35.6758H193.25V34.3906H185.99V33.707H192.922V30.6309H184.267V31.8887ZM187.316 26.5977V24.957H189.914V26.5977H187.316ZM200.113 24.5195H195.382V25.9277H198.431V27.9238H195.396V32.9961H196.257C197.795 32.9961 199.142 32.9551 200.769 32.6816L200.646 31.2871C199.368 31.4854 198.246 31.5332 197.064 31.5469V29.3184H200.113V24.5195ZM201.343 35.1562H202.943V29.4277H204.146V35.7578H205.8V23.3164H204.146V28.0195H202.943V23.5215H201.343V35.1562ZM211.966 26.1328V24.2734H210.202V26.1328C210.195 28.5459 209.136 30.9316 206.962 31.8477L208.015 33.2969C209.532 32.6064 210.551 31.2529 211.111 29.5713C211.679 31.1094 212.663 32.3535 214.085 32.9961L215.11 31.6016C212.998 30.7061 211.959 28.416 211.966 26.1328ZM215.78 35.7852H217.544V23.3164H215.78V35.7852Z" fill="#4EAC62"/>
<rect x="119.5" y="0.5" width="151" height="59" rx="7.5" stroke="#4EAC62"/>
<path d="M312.333 30C312.333 31.4728 313.527 32.6667 315 32.6667C316.473 32.6667 317.667 31.4728 317.667 30C317.667 28.5272 316.473 27.3333 315 27.3333C313.527 27.3333 312.333 28.5272 312.333 30ZM271 30.5H272V29.5H271V30.5ZM274 30.5H276V29.5H274V30.5ZM278 30.5H280V29.5H278V30.5ZM282 30.5H284V29.5H282V30.5ZM286 30.5H288V29.5H286V30.5ZM290 30.5H292V29.5H290V30.5ZM294 30.5H296V29.5H294V30.5ZM298 30.5H300V29.5H298V30.5ZM302 30.5H304V29.5H302V30.5ZM306 30.5H308V29.5H306V30.5ZM310 30.5H312V29.5H310V30.5ZM314 30.5H315V29.5H314V30.5Z" fill="#4EAC62"/>
<rect x="315.5" y="0.5" width="151" height="59" rx="7.5" fill="#DCEFE0"/>
<path d="M357.758 32.9414H352.904V31.0684H356.732V29.6465H349.432V28.252H356.445V24.123H347.668V25.5176H354.723V26.8848H347.682V31.0684H351.168V32.9414H346.369V34.377H357.758V32.9414ZM368.408 24.4648H359.631V25.8594H366.672V25.9551C366.665 27.6094 366.665 29.3867 366.193 31.7793L367.957 31.9297C368.401 29.3525 368.401 27.6641 368.408 25.9551V24.4648ZM358.455 34.1309H369.802V32.6953H358.455V34.1309ZM380.958 23.3301H379.208V32.2715H380.958V23.3301ZM370.732 27.2539C370.732 29.1064 372.222 30.4121 374.136 30.4121C376.043 30.4121 377.534 29.1064 377.54 27.2539C377.534 25.4287 376.043 24.1162 374.136 24.123C372.222 24.1162 370.732 25.4287 370.732 27.2539ZM372.441 27.2539C372.427 26.2422 373.159 25.6338 374.136 25.6406C375.079 25.6338 375.811 26.2422 375.818 27.2539C375.811 28.293 375.079 28.8945 374.136 28.8945C373.159 28.8945 372.427 28.293 372.441 27.2539ZM372.618 35.5391H381.286V34.1445H374.382V31.3691H372.618V35.5391ZM387.329 24.1367H385.579L382.394 35.9902H384.13L387.329 24.1367ZM398.266 23.3164H396.53V35.7578H398.266V23.3164ZM387.862 32.2441L388.094 33.666C390.309 33.6729 393.242 33.6455 395.969 33.1738L395.846 31.8887C394.848 32.0186 393.802 32.1006 392.757 32.1484V31.1572C394.124 30.9043 395.012 30.0566 395.012 28.8945C395.012 27.5068 393.727 26.5566 391.882 26.5566C390.049 26.5566 388.785 27.5068 388.792 28.8945C388.785 30.0635 389.673 30.9111 391.034 31.1572V32.21C389.899 32.2373 388.812 32.2373 387.862 32.2441ZM388.108 26.0645H395.669V24.6973H392.77V23.3711H391.034V24.6973H388.108V26.0645ZM390.446 28.8945C390.439 28.252 391.034 27.8896 391.882 27.8828C392.757 27.8896 393.344 28.252 393.344 28.8945C393.344 29.5508 392.757 29.9062 391.882 29.9062C391.034 29.9062 390.439 29.5508 390.446 28.8945ZM410.434 23.3301H408.684V30.5488H406.305V31.7383H408.684V32.7227H410.434V23.3301ZM399.852 28.8398L400.057 30.2207C401 30.2207 402.06 30.2139 403.174 30.1729V31.8203H401.438V35.5391H410.707V34.1445H403.174V32.4355H404.924V30.0703C405.929 29.9951 406.948 29.8789 407.932 29.7148L407.836 28.4707C405.204 28.792 402.128 28.8262 399.852 28.8398ZM400.768 25.9824C400.768 27.3154 402.046 28.1768 403.899 28.1699C405.703 28.1768 406.995 27.3154 407.002 25.9824C406.995 24.6562 405.703 23.7471 403.899 23.7539C402.046 23.7471 400.768 24.6562 400.768 25.9824ZM402.422 25.9824C402.415 25.3672 403.01 25.0254 403.899 25.0254C404.733 25.0254 405.334 25.3672 405.348 25.9824C405.334 26.584 404.733 26.9189 403.899 26.9121C403.01 26.9189 402.415 26.584 402.422 25.9824ZM421.795 23.3164H420.045V35.7305H421.795V29.5234H423.559V28.0879H421.795V23.3164ZM411.842 32.2441L412.826 33.584C417.01 31.5264 418.459 28.3066 418.473 24.5879H412.553V26.0098H416.702C416.374 28.7852 414.788 30.7676 411.842 32.2441ZM434.482 23.3164H432.732V30.002H434.482V23.3164ZM424.256 26.7891C424.256 28.4844 425.718 29.7012 427.66 29.7012C429.594 29.7012 431.057 28.4844 431.064 26.7891C431.057 25.0391 429.594 23.8223 427.66 23.8359C425.718 23.8223 424.256 25.0391 424.256 26.7891ZM425.965 26.7891C425.951 25.8525 426.662 25.2783 427.66 25.2852C428.631 25.2783 429.335 25.8525 429.341 26.7891C429.335 27.7119 428.631 28.2656 427.66 28.2656C426.662 28.2656 425.951 27.7119 425.965 26.7891ZM426.156 35.6211H434.482V30.5488H432.746V31.7109H427.879V30.5488H426.156V35.6211ZM427.879 34.2129V33.0645H432.746V34.2129H427.879Z" fill="#4EAC62"/>
<rect x="315.5" y="0.5" width="151" height="59" rx="7.5" stroke="#4EAC62"/>
<path d="M508.333 30C508.333 31.4728 509.527 32.6667 511 32.6667C512.473 32.6667 513.667 31.4728 513.667 30C513.667 28.5272 512.473 27.3333 511 27.3333C509.527 27.3333 508.333 28.5272 508.333 30ZM467 30.5H468V29.5H467V30.5ZM470 30.5H472V29.5H470V30.5ZM474 30.5H476V29.5H474V30.5ZM478 30.5H480V29.5H478V30.5ZM482 30.5H484V29.5H482V30.5ZM486 30.5H488V29.5H486V30.5ZM490 30.5H492V29.5H490V30.5ZM494 30.5H496V29.5H494V30.5ZM498 30.5H500V29.5H498V30.5ZM502 30.5H504V29.5H502V30.5ZM506 30.5H508V29.5H506V30.5ZM510 30.5H511V29.5H510V30.5Z" fill="#4EAC62"/>
<rect x="511" width="152" height="60" rx="8" fill="#4EAC62"/>
<path d="M590.863 31.9707H582.182V35.6211H590.863V31.9707ZM580.869 31.3418H592.217V29.9746H587.418V29.3662C589.558 29.2432 590.72 28.6484 590.727 27.6094C590.72 26.4336 589.236 25.8389 586.543 25.832C583.863 25.8389 582.346 26.4336 582.359 27.6094C582.346 28.6484 583.535 29.2432 585.668 29.3662V29.9746H580.869V31.3418ZM581.416 25.5176H591.629V24.2051H587.418V23.207H585.668V24.2051H581.416V25.5176ZM583.904 34.3223V33.2695H589.154V34.3223H583.904ZM584.219 27.6094C584.219 27.1719 584.971 27.0146 586.543 27.0078C588.129 27.0146 588.854 27.1719 588.854 27.6094C588.854 28.0264 588.129 28.2109 586.543 28.2109C584.971 28.2109 584.219 28.0264 584.219 27.6094Z" fill="white"/>
<path d="M315 120.833C313.527 120.833 312.333 122.027 312.333 123.5C312.333 124.973 313.527 126.167 315 126.167C316.473 126.167 317.667 124.973 317.667 123.5C317.667 122.027 316.473 120.833 315 120.833ZM297.5 76L297.5 75.5L297 75.5L297 76L297.5 76ZM297.5 123.5L297 123.5L297 124L297.5 124L297.5 123.5ZM787 76L787.5 76L787.5 75.5L787 75.5L787 76ZM585.5 59.5L585.5 60.5312L586.5 60.5312L586.5 59.5L585.5 59.5ZM585.5 62.5937L585.5 64.6562L586.5 64.6562L586.5 62.5937L585.5 62.5937ZM585.5 66.7187L585.5 68.7812L586.5 68.7812L586.5 66.7187L585.5 66.7187ZM585.5 70.8437L585.5 72.9062L586.5 72.9062L586.5 70.8437L585.5 70.8437ZM585.5 74.9687L585.5 76L586.5 76L586.5 74.9687L585.5 74.9687ZM586 75.5L584.998 75.5L584.998 76.5L586 76.5L586 75.5ZM582.995 75.5L580.991 75.5L580.991 76.5L582.995 76.5L582.995 75.5ZM578.988 75.5L576.984 75.5L576.984 76.5L578.988 76.5L578.988 75.5ZM574.981 75.5L572.977 75.5L572.977 76.5L574.981 76.5L574.981 75.5ZM570.974 75.5L568.97 75.5L568.97 76.5L570.974 76.5L570.974 75.5ZM566.967 75.5L564.964 75.5L564.964 76.5L566.967 76.5L566.967 75.5ZM562.96 75.5L560.957 75.5L560.957 76.5L562.96 76.5L562.96 75.5ZM558.953 75.5L556.95 75.5L556.95 76.5L558.953 76.5L558.953 75.5ZM554.946 75.5L552.943 75.5L552.943 76.5L554.946 76.5L554.946 75.5ZM550.939 75.5L548.936 75.5L548.936 76.5L550.939 76.5L550.939 75.5ZM546.932 75.5L544.929 75.5L544.929 76.5L546.932 76.5L546.932 75.5ZM542.925 75.5L540.922 75.5L540.922 76.5L542.925 76.5L542.925 75.5ZM538.918 75.5L536.915 75.5L536.915 76.5L538.918 76.5L538.918 75.5ZM534.911 75.5L532.908 75.5L532.908 76.5L534.911 76.5L534.911 75.5ZM530.905 75.5L528.901 75.5L528.901 76.5L530.905 76.5L530.905 75.5ZM526.898 75.5L524.894 75.5L524.894 76.5L526.898 76.5L526.898 75.5ZM522.891 75.5L520.887 75.5L520.887 76.5L522.891 76.5L522.891 75.5ZM518.884 75.5L516.88 75.5L516.88 76.5L518.884 76.5L518.884 75.5ZM514.877 75.5L512.873 75.5L512.873 76.5L514.877 76.5L514.877 75.5ZM510.87 75.5L508.866 75.5L508.866 76.5L510.87 76.5L510.87 75.5ZM506.863 75.5L504.859 75.5L504.859 76.5L506.863 76.5L506.863 75.5ZM502.856 75.5L500.852 75.5L500.852 76.5L502.856 76.5L502.856 75.5ZM498.849 75.5L496.846 75.5L496.846 76.5L498.849 76.5L498.849 75.5ZM494.842 75.5L492.839 75.5L492.839 76.5L494.842 76.5L494.842 75.5ZM490.835 75.5L488.832 75.5L488.832 76.5L490.835 76.5L490.835 75.5ZM486.828 75.5L484.825 75.5L484.825 76.5L486.828 76.5L486.828 75.5ZM482.821 75.5L480.818 75.5L480.818 76.5L482.821 76.5L482.821 75.5ZM478.814 75.5L476.811 75.5L476.811 76.5L478.814 76.5L478.814 75.5ZM474.807 75.5L472.804 75.5L472.804 76.5L474.807 76.5L474.807 75.5ZM470.8 75.5L468.797 75.5L468.797 76.5L470.8 76.5L470.8 75.5ZM466.793 75.5L464.79 75.5L464.79 76.5L466.793 76.5L466.793 75.5ZM462.786 75.5L460.783 75.5L460.783 76.5L462.786 76.5L462.786 75.5ZM458.78 75.5L456.776 75.5L456.776 76.5L458.78 76.5L458.78 75.5ZM454.773 75.5L452.769 75.5L452.769 76.5L454.773 76.5L454.773 75.5ZM450.766 75.5L448.762 75.5L448.762 76.5L450.766 76.5L450.766 75.5ZM446.759 75.5L444.755 75.5L444.755 76.5L446.759 76.5L446.759 75.5ZM442.752 75.5L440.748 75.5L440.748 76.5L442.752 76.5L442.752 75.5ZM438.745 75.5L436.741 75.5L436.741 76.5L438.745 76.5L438.745 75.5ZM434.738 75.5L432.734 75.5L432.734 76.5L434.738 76.5L434.738 75.5ZM430.731 75.5L428.727 75.5L428.727 76.5L430.731 76.5L430.731 75.5ZM426.724 75.5L424.72 75.5L424.72 76.5L426.724 76.5L426.724 75.5ZM422.717 75.5L420.713 75.5L420.713 76.5L422.717 76.5L422.717 75.5ZM418.71 75.5L416.707 75.5L416.707 76.5L418.71 76.5L418.71 75.5ZM414.703 75.5L412.7 75.5L412.7 76.5L414.703 76.5L414.703 75.5ZM410.696 75.5L408.693 75.5L408.693 76.5L410.696 76.5L410.696 75.5ZM406.689 75.5L404.686 75.5L404.686 76.5L406.689 76.5L406.689 75.5ZM402.682 75.5L400.679 75.5L400.679 76.5L402.682 76.5L402.682 75.5ZM398.675 75.5L396.672 75.5L396.672 76.5L398.675 76.5L398.675 75.5ZM394.668 75.5L392.665 75.5L392.665 76.5L394.668 76.5L394.668 75.5ZM390.661 75.5L388.658 75.5L388.658 76.5L390.661 76.5L390.661 75.5ZM386.654 75.5L384.651 75.5L384.651 76.5L386.654 76.5L386.654 75.5ZM382.647 75.5L380.644 75.5L380.644 76.5L382.647 76.5L382.647 75.5ZM378.64 75.5L376.637 75.5L376.637 76.5L378.64 76.5L378.64 75.5ZM374.633 75.5L372.63 75.5L372.63 76.5L374.633 76.5L374.633 75.5ZM370.626 75.5L368.623 75.5L368.623 76.5L370.626 76.5L370.626 75.5ZM366.62 75.5L364.616 75.5L364.616 76.5L366.62 76.5L366.62 75.5ZM362.613 75.5L360.609 75.5L360.609 76.5L362.613 76.5L362.613 75.5ZM358.606 75.5L356.602 75.5L356.602 76.5L358.606 76.5L358.606 75.5ZM354.599 75.5L352.595 75.5L352.595 76.5L354.599 76.5L354.599 75.5ZM350.592 75.5L348.588 75.5L348.588 76.5L350.592 76.5L350.592 75.5ZM346.585 75.5L344.581 75.5L344.581 76.5L346.585 76.5L346.585 75.5ZM342.578 75.5L340.574 75.5L340.574 76.5L342.578 76.5L342.578 75.5ZM338.571 75.5L336.567 75.5L336.567 76.5L338.571 76.5L338.571 75.5ZM334.564 75.5L332.56 75.5L332.56 76.5L334.564 76.5L334.564 75.5ZM330.557 75.5L328.553 75.5L328.553 76.5L330.557 76.5L330.557 75.5ZM326.55 75.5L324.546 75.5L324.546 76.5L326.55 76.5L326.55 75.5ZM322.543 75.5L320.54 75.5L320.54 76.5L322.543 76.5L322.543 75.5ZM318.536 75.5L316.533 75.5L316.533 76.5L318.536 76.5L318.536 75.5ZM314.529 75.5L312.526 75.5L312.526 76.5L314.529 76.5L314.529 75.5ZM310.522 75.5L308.519 75.5L308.519 76.5L310.522 76.5L310.522 75.5ZM306.515 75.5L304.512 75.5L304.512 76.5L306.515 76.5L306.515 75.5ZM302.508 75.5L300.505 75.5L300.505 76.5L302.508 76.5L302.508 75.5ZM298.501 75.5L297.5 75.5L297.5 76.5L298.501 76.5L298.501 75.5ZM297 76L297 76.9896L298 76.9896L298 76L297 76ZM297 78.9687L297 80.9479L298 80.9479L298 78.9687L297 78.9687ZM297 82.9271L297 84.9062L298 84.9062L298 82.9271L297 82.9271ZM297 86.8854L297 88.8646L298 88.8646L298 86.8854L297 86.8854ZM297 90.8437L297 92.8229L298 92.8229L298 90.8437L297 90.8437ZM297 94.8021L297 96.7812L298 96.7812L298 94.8021L297 94.8021ZM297 98.7604L297 100.74L298 100.74L298 98.7604L297 98.7604ZM297 102.719L297 104.698L298 104.698L298 102.719L297 102.719ZM297 106.677L297 108.656L298 108.656L298 106.677L297 106.677ZM297 110.635L297 112.615L298 112.615L298 110.635L297 110.635ZM297 114.594L297 116.573L298 116.573L298 114.594L297 114.594ZM297 118.552L297 120.531L298 120.531L298 118.552L297 118.552ZM297 122.51L297 123.5L298 123.5L298 122.51L297 122.51ZM297.5 124L298.594 124L298.594 123L297.5 123L297.5 124ZM300.781 124L302.969 124L302.969 123L300.781 123L300.781 124ZM305.156 124L307.344 124L307.344 123L305.156 123L305.156 124ZM309.531 124L311.719 124L311.719 123L309.531 123L309.531 124ZM313.906 124L315 124L315 123L313.906 123L313.906 124ZM585.5 76L585.5 76.925L586.5 76.925L586.5 76L585.5 76ZM585.5 78.775L585.5 80.625L586.5 80.625L586.5 78.775L585.5 78.775ZM585.5 82.475L585.5 84.325L586.5 84.325L586.5 82.475L585.5 82.475ZM585.5 86.175L585.5 88.025L586.5 88.025L586.5 86.175L585.5 86.175ZM585.5 89.875L585.5 91.725L586.5 91.725L586.5 89.875L585.5 89.875ZM585.5 93.575L585.5 94.5L586.5 94.5L586.5 93.575L585.5 93.575ZM586 76.5L587.005 76.5L587.005 75.5L586 75.5L586 76.5ZM589.015 76.5L591.025 76.5L591.025 75.5L589.015 75.5L589.015 76.5ZM593.035 76.5L595.045 76.5L595.045 75.5L593.035 75.5L593.035 76.5ZM597.055 76.5L599.065 76.5L599.065 75.5L597.055 75.5L597.055 76.5ZM601.075 76.5L603.085 76.5L603.085 75.5L601.075 75.5L601.075 76.5ZM605.095 76.5L607.105 76.5L607.105 75.5L605.095 75.5L605.095 76.5ZM609.115 76.5L611.125 76.5L611.125 75.5L609.115 75.5L609.115 76.5ZM613.135 76.5L615.145 76.5L615.145 75.5L613.135 75.5L613.135 76.5ZM617.155 76.5L619.165 76.5L619.165 75.5L617.155 75.5L617.155 76.5ZM621.175 76.5L623.185 76.5L623.185 75.5L621.175 75.5L621.175 76.5ZM625.195 76.5L627.205 76.5L627.205 75.5L625.195 75.5L625.195 76.5ZM629.215 76.5L631.225 76.5L631.225 75.5L629.215 75.5L629.215 76.5ZM633.235 76.5L635.245 76.5L635.245 75.5L633.235 75.5L633.235 76.5ZM637.255 76.5L639.265 76.5L639.265 75.5L637.255 75.5L637.255 76.5ZM641.275 76.5L643.285 76.5L643.285 75.5L641.275 75.5L641.275 76.5ZM645.295 76.5L647.305 76.5L647.305 75.5L645.295 75.5L645.295 76.5ZM649.315 76.5L651.325 76.5L651.325 75.5L649.315 75.5L649.315 76.5ZM653.335 76.5L655.345 76.5L655.345 75.5L653.335 75.5L653.335 76.5ZM657.355 76.5L659.365 76.5L659.365 75.5L657.355 75.5L657.355 76.5ZM661.375 76.5L663.385 76.5L663.385 75.5L661.375 75.5L661.375 76.5ZM665.395 76.5L667.405 76.5L667.405 75.5L665.395 75.5L665.395 76.5ZM669.415 76.5L671.425 76.5L671.425 75.5L669.415 75.5L669.415 76.5ZM673.435 76.5L675.445 76.5L675.445 75.5L673.435 75.5L673.435 76.5ZM677.455 76.5L679.465 76.5L679.465 75.5L677.455 75.5L677.455 76.5ZM681.475 76.5L683.485 76.5L683.485 75.5L681.475 75.5L681.475 76.5ZM685.495 76.5L687.505 76.5L687.505 75.5L685.495 75.5L685.495 76.5ZM689.515 76.5L691.525 76.5L691.525 75.5L689.515 75.5L689.515 76.5ZM693.535 76.5L695.545 76.5L695.545 75.5L693.535 75.5L693.535 76.5ZM697.555 76.5L699.565 76.5L699.565 75.5L697.555 75.5L697.555 76.5ZM701.575 76.5L703.585 76.5L703.585 75.5L701.575 75.5L701.575 76.5ZM705.595 76.5L707.605 76.5L707.605 75.5L705.595 75.5L705.595 76.5ZM709.615 76.5L711.625 76.5L711.625 75.5L709.615 75.5L709.615 76.5ZM713.635 76.5L715.645 76.5L715.645 75.5L713.635 75.5L713.635 76.5ZM717.655 76.5L719.665 76.5L719.665 75.5L717.655 75.5L717.655 76.5ZM721.675 76.5L723.685 76.5L723.685 75.5L721.675 75.5L721.675 76.5ZM725.695 76.5L727.705 76.5L727.705 75.5L725.695 75.5L725.695 76.5ZM729.715 76.5L731.725 76.5L731.725 75.5L729.715 75.5L729.715 76.5ZM733.735 76.5L735.745 76.5L735.745 75.5L733.735 75.5L733.735 76.5ZM737.755 76.5L739.765 76.5L739.765 75.5L737.755 75.5L737.755 76.5ZM741.775 76.5L743.785 76.5L743.785 75.5L741.775 75.5L741.775 76.5ZM745.795 76.5L747.805 76.5L747.805 75.5L745.795 75.5L745.795 76.5ZM749.815 76.5L751.825 76.5L751.825 75.5L749.815 75.5L749.815 76.5ZM753.835 76.5L755.845 76.5L755.845 75.5L753.835 75.5L753.835 76.5ZM757.855 76.5L759.865 76.5L759.865 75.5L757.855 75.5L757.855 76.5ZM761.875 76.5L763.885 76.5L763.885 75.5L761.875 75.5L761.875 76.5ZM765.895 76.5L767.905 76.5L767.905 75.5L765.895 75.5L765.895 76.5ZM769.915 76.5L771.925 76.5L771.925 75.5L769.915 75.5L769.915 76.5ZM773.935 76.5L775.945 76.5L775.945 75.5L773.935 75.5L773.935 76.5ZM777.955 76.5L779.965 76.5L779.965 75.5L777.955 75.5L777.955 76.5ZM781.975 76.5L783.985 76.5L783.985 75.5L781.975 75.5L781.975 76.5ZM785.995 76.5L787 76.5L787 75.5L785.995 75.5L785.995 76.5ZM786.5 76L786.5 76.925L787.5 76.925L787.5 76L786.5 76ZM786.5 78.775L786.5 80.625L787.5 80.625L787.5 78.775L786.5 78.775ZM786.5 82.475L786.5 84.325L787.5 84.325L787.5 82.475L786.5 82.475ZM786.5 86.175L786.5 88.025L787.5 88.025L787.5 86.175L786.5 86.175ZM786.5 89.875L786.5 91.725L787.5 91.725L787.5 89.875L786.5 89.875ZM786.5 93.575L786.5 94.5L787.5 94.5L787.5 93.575L786.5 93.575Z" fill="#4EAC62"/>
<rect x="315" y="93" width="152" height="60" rx="8" fill="#65C718"/>
<path d="M385.322 117.041H379.607V118.436H383.456C383.169 120.11 381.624 121.478 378.938 122.209L379.621 123.562C383.265 122.551 385.322 120.295 385.322 117.041ZM381.111 128.607H389.355V123.781H381.111V128.607ZM382.82 127.24V125.148H387.633V127.24H382.82ZM385.404 120.705H387.619V123.289H389.355V116.33H387.619V119.283H385.404V120.705ZM394.933 118.477V117.041H393.238V118.477C393.238 119.885 392.534 121.43 390.777 122.182L391.707 123.535C392.862 123.05 393.648 122.154 394.099 121.088C394.544 122.024 395.275 122.783 396.328 123.207L397.271 121.867C395.617 121.211 394.933 119.864 394.933 118.477ZM393.047 125.805H399.91V128.758H401.646V124.41H393.047V125.805ZM397.326 123.795H398.953V120.773H399.992V123.863H401.646V116.33H399.992V119.352H398.953V116.521H397.326V123.795Z" fill="white"/>
<rect x="511" y="93" width="152" height="60" rx="8" fill="#65C718"/>
<path d="M567.355 116.316H565.619V121.102H563.145V122.523H565.619V128.758H567.355V116.316ZM556.746 125.23L557.648 126.598C561.989 124.444 563.206 121.368 563.213 117.615H557.334V118.982H561.456C561.196 121.71 559.891 123.679 556.746 125.23ZM574.027 117.52H569.297V118.928H572.345V120.924H569.31V125.996H570.172C571.71 125.996 573.056 125.955 574.683 125.682L574.56 124.287C573.282 124.485 572.161 124.533 570.978 124.547V122.318H574.027V117.52ZM575.257 128.156H576.857V122.428H578.06V128.758H579.715V116.316H578.06V121.02H576.857V116.521H575.257V128.156ZM592.593 117.984H590.911V116.33H589.161V123.836H590.911V122.059H592.593V120.623H590.911V119.434H592.593V117.984ZM581.478 118.436H585.497V119.461H581.492V123.289H582.544C585.067 123.289 586.666 123.228 588.451 122.893L588.259 121.498C586.673 121.778 585.279 121.854 583.228 121.867V120.773H587.193V117.068H581.478V118.436ZM582.544 126.42C582.544 127.89 584.178 128.744 586.81 128.744C589.394 128.744 591.028 127.89 591.035 126.42C591.028 124.923 589.394 124.027 586.81 124.027C584.178 124.027 582.544 124.923 582.544 126.42ZM584.267 126.42C584.253 125.729 585.149 125.374 586.81 125.381C588.451 125.374 589.312 125.729 589.312 126.42C589.312 127.097 588.451 127.445 586.81 127.445C585.149 127.445 584.253 127.097 584.267 126.42ZM599.702 117.041V116.631H597.911V117.041C597.897 118.477 596.435 119.987 593.714 120.377L594.356 121.744C596.455 121.43 598.007 120.459 598.807 119.16C599.6 120.438 601.145 121.402 603.243 121.717L603.899 120.336C601.165 119.967 599.702 118.429 599.702 117.041ZM593.112 123.822H598.089V125.969H599.812V123.822H604.501V122.428H593.112V123.822ZM594.452 128.539H603.243V127.145H596.188V124.889H594.452V128.539ZM609.272 116.836C607.379 116.822 605.998 117.909 606.005 119.475C605.998 121.026 607.379 122.127 609.272 122.113C611.173 122.127 612.553 121.026 612.553 119.475C612.553 117.909 611.173 116.822 609.272 116.836ZM605.239 122.879L605.458 124.301C606.353 124.287 607.385 124.28 608.479 124.232V128.389H610.215V124.13C611.255 124.048 612.307 123.918 613.333 123.713L613.223 122.428C610.571 122.831 607.447 122.872 605.239 122.879ZM607.686 119.475C607.679 118.682 608.342 118.224 609.272 118.23C610.229 118.224 610.899 118.682 610.899 119.475C610.899 120.254 610.229 120.705 609.272 120.691C608.342 120.705 607.679 120.254 607.686 119.475ZM613.975 128.758H615.698V116.33H613.975V128.758Z" fill="white"/>
<rect x="707" y="93" width="152" height="60" rx="8" fill="#65C718"/>
<path d="M763.859 123.043H762.123V124.998C760.961 125.032 759.86 125.039 758.924 125.039L759.129 126.447C761.303 126.44 764.256 126.413 767.018 125.887L766.881 124.615C765.91 124.759 764.885 124.854 763.859 124.916V123.043ZM759.17 122.113L759.99 123.426C761.46 123.05 762.451 122.209 762.991 121.122C763.559 122.154 764.563 122.961 766.02 123.33L766.812 121.977C764.933 121.519 764.003 120.391 763.887 119.188H766.43V117.779H763.859V116.426H762.123V117.779H759.566V119.188H762.082C761.966 120.452 761.05 121.614 759.17 122.113ZM767.592 128.785H769.328V116.316H767.592V128.785ZM781.373 116.33H779.623V125.408H781.373V116.33ZM770.914 122.332L771.816 123.713C773.272 123.214 774.263 122.188 774.824 120.917C775.378 122.1 776.341 123.029 777.75 123.494L778.638 122.127C776.594 121.471 775.713 119.864 775.726 118.217V117.014H773.908V118.217C773.908 119.905 772.999 121.635 770.914 122.332ZM773.033 128.539H781.701V127.145H774.797V124.533H773.033V128.539ZM793.13 120.24H786.158V116.877H784.421V121.635H793.13V120.24ZM783.04 124.438H785.665V128.758H787.415V124.438H790.027V128.758H791.79V124.438H794.388V123.043H783.04V124.438ZM801.675 117.957V117.055H799.815V117.957C799.802 119.762 798.182 121.717 795.413 122.209L796.165 123.658C798.318 123.221 799.932 121.99 800.752 120.411C801.559 122.004 803.165 123.228 805.339 123.658L806.104 122.209C803.288 121.73 801.668 119.782 801.675 117.957ZM795.126 127.227H806.515V125.791H795.126V127.227Z" fill="white"/>
<path d="M392 194.333C390.527 194.333 389.333 195.527 389.333 197C389.333 198.473 390.527 199.667 392 199.667C393.473 199.667 394.667 198.473 394.667 197C394.667 195.527 393.473 194.333 392 194.333ZM391.5 153L391.5 154L392.5 154L392.5 153L391.5 153ZM391.5 156L391.5 158L392.5 158L392.5 156L391.5 156ZM391.5 160L391.5 162L392.5 162L392.5 160L391.5 160ZM391.5 164L391.5 166L392.5 166L392.5 164L391.5 164ZM391.5 168L391.5 170L392.5 170L392.5 168L391.5 168ZM391.5 172L391.5 174L392.5 174L392.5 172L391.5 172ZM391.5 176L391.5 178L392.5 178L392.5 176L391.5 176ZM391.5 180L391.5 182L392.5 182L392.5 180L391.5 180ZM391.5 184L391.5 186L392.5 186L392.5 184L391.5 184ZM391.5 188L391.5 190L392.5 190L392.5 188L391.5 188ZM391.5 192L391.5 194L392.5 194L392.5 192L391.5 192ZM391.5 196L391.5 197L392.5 197L392.5 196L391.5 196Z" fill="#4EAC62"/>
<rect x="316.5" y="197.5" width="151" height="59" rx="7.5" fill="white"/>
<path d="M378.014 225.881H370.959V222.586H377.918V221.191H369.209V227.262H372.668V229.914H367.869V231.336H379.258V229.914H374.404V227.262H378.014V225.881ZM390.742 220.316H389.074V225.061H387.953V220.494H386.299V232.184H387.953V226.482H389.074V232.758H390.742V220.316ZM380.31 229.627H385.259V221.602H380.31V229.627ZM381.937 228.26V222.982H383.632V228.26H381.937ZM401.857 220.316H400.107V232.73H401.857V226.523H403.62V225.088H401.857V220.316ZM391.904 229.244L392.888 230.584C397.072 228.526 398.521 225.307 398.535 221.588H392.615V223.01H396.764C396.436 225.785 394.85 227.768 391.904 229.244ZM410.784 221.096H404.974V222.504H408.911C408.638 224.186 407.065 225.587 404.263 226.305L404.919 227.699C407.599 226.988 409.437 225.635 410.271 223.707H412.876V224.965H410.046V226.359H412.876V227.713H414.612V220.33H412.876V222.34H410.675C410.75 221.943 410.784 221.526 410.784 221.096ZM406.067 229.586H412.876V232.73H414.612V228.219H406.067V229.586Z" fill="#4EAC62"/>
<rect x="316.5" y="197.5" width="151" height="59" rx="7.5" stroke="#4EAC62"/>
<path d="M392 298.333C390.527 298.333 389.333 299.527 389.333 301C389.333 302.473 390.527 303.667 392 303.667C393.473 303.667 394.667 302.473 394.667 301C394.667 299.527 393.473 298.333 392 298.333ZM391.5 257L391.5 258L392.5 258L392.5 257L391.5 257ZM391.5 260L391.5 262L392.5 262L392.5 260L391.5 260ZM391.5 264L391.5 266L392.5 266L392.5 264L391.5 264ZM391.5 268L391.5 270L392.5 270L392.5 268L391.5 268ZM391.5 272L391.5 274L392.5 274L392.5 272L391.5 272ZM391.5 276L391.5 278L392.5 278L392.5 276L391.5 276ZM391.5 280L391.5 282L392.5 282L392.5 280L391.5 280ZM391.5 284L391.5 286L392.5 286L392.5 284L391.5 284ZM391.5 288L391.5 290L392.5 290L392.5 288L391.5 288ZM391.5 292L391.5 294L392.5 294L392.5 292L391.5 292ZM391.5 296L391.5 298L392.5 298L392.5 296L391.5 296ZM391.5 300L391.5 301L392.5 301L392.5 300L391.5 300Z" fill="#4EAC62"/>
<rect x="316.5" y="301.5" width="151" height="59" rx="7.5" fill="white"/>
<path d="M379.258 333.873H374.363V331.057H372.627V333.873H367.869V335.268H379.258V333.873ZM368.143 330.004L368.881 331.453C371.055 331.063 372.675 329.881 373.488 328.336C374.309 329.888 375.936 331.057 378.123 331.453L378.861 330.004C376.018 329.566 374.411 327.693 374.418 325.916V325.027H372.559V325.916C372.545 327.673 370.959 329.566 368.143 330.004ZM390.742 324.316H389.074V329.061H387.953V324.494H386.299V336.184H387.953V330.482H389.074V336.758H390.742V324.316ZM380.31 333.627H385.259V325.602H380.31V333.627ZM381.937 332.26V326.982H383.632V332.26H381.937ZM401.857 324.316H400.107V336.73H401.857V330.523H403.62V329.088H401.857V324.316ZM391.904 333.244L392.888 334.584C397.072 332.526 398.521 329.307 398.535 325.588H392.615V327.01H396.764C396.436 329.785 394.85 331.768 391.904 333.244ZM410.784 325.096H404.974V326.504H408.911C408.638 328.186 407.065 329.587 404.263 330.305L404.919 331.699C407.599 330.988 409.437 329.635 410.271 327.707H412.876V328.965H410.046V330.359H412.876V331.713H414.612V324.33H412.876V326.34H410.675C410.75 325.943 410.784 325.526 410.784 325.096ZM406.067 333.586H412.876V336.73H414.612V332.219H406.067V333.586Z" fill="#4EAC62"/>
<rect x="316.5" y="301.5" width="151" height="59" rx="7.5" stroke="#4EAC62"/>
<path d="M392 402.333C390.527 402.333 389.333 403.527 389.333 405C389.333 406.473 390.527 407.667 392 407.667C393.473 407.667 394.667 406.473 394.667 405C394.667 403.527 393.473 402.333 392 402.333ZM391.5 361L391.5 362L392.5 362L392.5 361L391.5 361ZM391.5 364L391.5 366L392.5 366L392.5 364L391.5 364ZM391.5 368L391.5 370L392.5 370L392.5 368L391.5 368ZM391.5 372L391.5 374L392.5 374L392.5 372L391.5 372ZM391.5 376L391.5 378L392.5 378L392.5 376L391.5 376ZM391.5 380L391.5 382L392.5 382L392.5 380L391.5 380ZM391.5 384L391.5 386L392.5 386L392.5 384L391.5 384ZM391.5 388L391.5 390L392.5 390L392.5 388L391.5 388ZM391.5 392L391.5 394L392.5 394L392.5 392L391.5 392ZM391.5 396L391.5 398L392.5 398L392.5 396L391.5 396ZM391.5 400L391.5 402L392.5 402L392.5 400L391.5 400ZM391.5 404L391.5 405L392.5 405L392.5 404L391.5 404Z" fill="#4EAC62"/>
<rect x="316.5" y="405.5" width="151" height="59" rx="7.5" fill="white"/>
<path d="M366.973 429.287V428.686H365.141V429.287C365.134 430.757 363.637 432.377 360.807 432.732L361.504 434.141C363.65 433.826 365.236 432.814 366.057 431.475C366.87 432.821 368.463 433.826 370.637 434.141L371.32 432.732C368.47 432.377 366.966 430.757 366.973 429.287ZM360.369 436.506H365.154V440.758H366.877V436.506H371.717V435.084H360.369V436.506ZM383.775 433.621H372.482V434.893H377.254V435.672H373.767V436.916H380.699V437.531H373.781V440.676H382.75V439.391H375.49V438.707H382.422V435.672H378.99V434.893H383.775V433.621ZM372.92 431.994L373.398 433.279C375.729 433.163 377.329 432.582 378.115 431.646C378.901 432.582 380.507 433.163 382.818 433.279L383.324 431.994C380.815 431.885 379.544 431.29 379.188 430.572H382.709V429.287H378.976V428.303H377.254V429.287H373.549V430.572H377.035C376.673 431.29 375.408 431.885 372.92 431.994ZM394.958 428.316H393.208V435.002H394.958V428.316ZM384.732 431.789C384.732 433.484 386.195 434.701 388.136 434.701C390.071 434.701 391.534 433.484 391.54 431.789C391.534 430.039 390.071 428.822 388.136 428.836C386.195 428.822 384.732 430.039 384.732 431.789ZM386.441 431.789C386.427 430.853 387.138 430.278 388.136 430.285C389.107 430.278 389.811 430.853 389.818 431.789C389.811 432.712 389.107 433.266 388.136 433.266C387.138 433.266 386.427 432.712 386.441 431.789ZM386.632 440.621H394.958V435.549H393.222V436.711H388.355V435.549H386.632V440.621ZM388.355 439.213V438.064H393.222V439.213H388.355ZM410.325 428.316H408.589V431.352H406.647V432.76H408.589V435.699H410.325V428.316ZM399.757 434.332L400.659 435.713C402.135 435.207 403.133 434.188 403.68 432.924C404.22 434.038 405.171 434.94 406.538 435.385L407.399 434.018C405.465 433.375 404.576 431.912 404.542 430.463H407.016V429.068H400.262V430.463H402.764C402.723 432.021 401.794 433.648 399.757 434.332ZM401.794 438.379C401.794 439.89 403.421 440.771 406.073 440.771C408.732 440.771 410.359 439.89 410.366 438.379C410.359 436.868 408.732 435.979 406.073 435.973C403.421 435.979 401.794 436.868 401.794 438.379ZM403.53 438.379C403.53 437.661 404.425 437.306 406.073 437.312C407.727 437.306 408.623 437.661 408.63 438.379C408.623 439.09 407.727 439.445 406.073 439.445C404.425 439.445 403.53 439.09 403.53 438.379ZM423.313 437.887H418.459V435.59H422.041V429.109H420.305V431.037H414.877V429.109H413.127V435.59H416.723V437.887H411.924V439.309H423.313V437.887ZM414.877 434.195V432.432H420.305V434.195H414.877Z" fill="#4EAC62"/>
<rect x="316.5" y="405.5" width="151" height="59" rx="7.5" stroke="#4EAC62"/>
<path d="M392 506.333C390.527 506.333 389.333 507.527 389.333 509C389.333 510.473 390.527 511.667 392 511.667C393.473 511.667 394.667 510.473 394.667 509C394.667 507.527 393.473 506.333 392 506.333ZM391.5 465L391.5 466L392.5 466L392.5 465L391.5 465ZM391.5 468L391.5 470L392.5 470L392.5 468L391.5 468ZM391.5 472L391.5 474L392.5 474L392.5 472L391.5 472ZM391.5 476L391.5 478L392.5 478L392.5 476L391.5 476ZM391.5 480L391.5 482L392.5 482L392.5 480L391.5 480ZM391.5 484L391.5 486L392.5 486L392.5 484L391.5 484ZM391.5 488L391.5 490L392.5 490L392.5 488L391.5 488ZM391.5 492L391.5 494L392.5 494L392.5 492L391.5 492ZM391.5 496L391.5 498L392.5 498L392.5 496L391.5 496ZM391.5 500L391.5 502L392.5 502L392.5 500L391.5 500ZM391.5 504L391.5 506L392.5 506L392.5 504L391.5 504ZM391.5 508L391.5 509L392.5 509L392.5 508L391.5 508Z" fill="#4EAC62"/>
<rect x="316.5" y="509.5" width="151" height="59" rx="7.5" fill="white"/>
<path d="M374.842 533.219H368.443V534.641H373.14C373.126 535.386 373.071 536.295 372.846 537.484L374.555 537.648C374.842 536.104 374.842 534.859 374.842 533.998V533.219ZM367.705 538.551L367.855 539.945C370.022 539.938 372.935 539.891 375.525 539.412L375.43 538.154C374.261 538.325 372.996 538.421 371.752 538.476V536.09H370.016V538.53C369.188 538.551 368.402 538.551 367.705 538.551ZM369.537 544.539H378.273V543.145H371.287V540.793H369.537V544.539ZM376.1 541.627H377.891V537.566H379.395V536.104H377.891V532.316H376.1V541.627ZM385.929 533.164H380.406V534.559H384.179V535.857H380.42V539.986H381.377C383.591 539.979 384.972 539.945 386.572 539.672L386.381 538.264C385.054 538.489 383.879 538.564 382.17 538.578V537.156H385.929V533.164ZM382.101 544.525H390.756V543.104H383.838V540.807H382.101V544.525ZM386.654 538.414H388.705V541.518H390.441V532.33H388.705V534.217H386.654V535.598H388.705V537.006H386.654V538.414ZM395.513 532.85C393.599 532.836 392.191 534.087 392.204 535.789C392.191 537.525 393.599 538.77 395.513 538.77C397.113 538.77 398.391 537.84 398.712 536.473H400.79V539.002H402.527V532.316H400.79V535.078H398.705C398.364 533.745 397.099 532.836 395.513 532.85ZM393.859 535.789C393.852 534.859 394.535 534.292 395.513 534.299C396.456 534.292 397.133 534.859 397.14 535.789C397.133 536.719 396.456 537.307 395.513 537.307C394.535 537.307 393.852 536.719 393.859 535.789ZM394.228 544.621H402.527V539.549H400.79V540.752H395.951V539.549H394.228V544.621ZM395.951 543.213V542.092H400.79V543.213H395.951ZM408.009 536.104V535.816H409.964V534.422H407.995V532.74H406.368V534.422H404.358V535.816H406.368V536.104C406.354 538.024 405.691 540.055 403.894 541.094L404.892 542.406C406.02 541.75 406.765 540.636 407.195 539.316C407.633 540.526 408.378 541.531 409.499 542.105L410.456 540.834C408.686 539.884 408.009 537.99 408.009 536.104ZM409.239 538.455H410.702V544.184H412.343V532.521H410.702V537.033H409.239V538.455ZM413.231 544.758H414.886V532.316H413.231V544.758Z" fill="#4EAC62"/>
<rect x="316.5" y="509.5" width="151" height="59" rx="7.5" stroke="#4EAC62"/>
<path d="M392 610.333C390.527 610.333 389.333 611.527 389.333 613C389.333 614.473 390.527 615.667 392 615.667C393.473 615.667 394.667 614.473 394.667 613C394.667 611.527 393.473 610.333 392 610.333ZM391.5 569L391.5 570L392.5 570L392.5 569L391.5 569ZM391.5 572L391.5 574L392.5 574L392.5 572L391.5 572ZM391.5 576L391.5 578L392.5 578L392.5 576L391.5 576ZM391.5 580L391.5 582L392.5 582L392.5 580L391.5 580ZM391.5 584L391.5 586L392.5 586L392.5 584L391.5 584ZM391.5 588L391.5 590L392.5 590L392.5 588L391.5 588ZM391.5 592L391.5 594L392.5 594L392.5 592L391.5 592ZM391.5 596L391.5 598L392.5 598L392.5 596L391.5 596ZM391.5 600L391.5 602L392.5 602L392.5 600L391.5 600ZM391.5 604L391.5 606L392.5 606L392.5 604L391.5 604ZM391.5 608L391.5 610L392.5 610L392.5 608L391.5 608ZM391.5 612L391.5 613L392.5 613L392.5 612L391.5 612Z" fill="#4EAC62"/>
<rect x="316.5" y="613.5" width="151" height="59" rx="7.5" fill="white"/>
<path d="M384.014 642.742H376.986V641.32H383.631V639.953H376.986V638.641H383.918V637.232H375.209V644.123H384.014V642.742ZM373.869 647.309H385.258V645.887H373.869V647.309ZM396.646 636.33H394.992V639.857H393.912V636.549H392.285V645.299H393.912V641.266H394.992V645.559H396.646V636.33ZM386.447 638.695H389.509V639.912H386.461V643.85H387.322C389.168 643.85 390.391 643.809 391.847 643.549L391.697 642.168C390.521 642.394 389.503 642.462 388.142 642.476V641.197H391.191V637.328H386.447V638.695ZM388.211 648.539H396.961V647.145H389.961V644.684H388.211V648.539ZM408.185 642.072H401.103V638.764H408.089V637.355H399.38V643.467H408.185V642.072ZM398.04 647.24H409.429V645.805H398.04V647.24Z" fill="#4EAC62"/>
<rect x="316.5" y="613.5" width="151" height="59" rx="7.5" stroke="#4EAC62"/>
<rect x="7.07031" y="25.051" width="7" height="7" transform="rotate(45 7.07031 25.051)" stroke="#4EAC62" stroke-width="3"/>
<path d="M28.0078 26.9023H30.8203C30.7812 24.4023 28.7207 22.6641 25.5859 22.6641C22.4902 22.6641 20.2246 24.373 20.2344 26.9414C20.2344 29.0117 21.6992 30.2031 24.082 30.7891L25.625 31.1602C27.168 31.541 28.0469 31.9902 28.0469 32.957C28.0469 34.0117 27.0508 34.7344 25.5078 34.7344C23.9453 34.7344 22.8125 34.0117 22.7148 32.5859H19.8633C19.9512 35.623 22.1289 37.2051 25.5469 37.1953C28.9941 37.2051 31.0059 35.5449 31.0156 32.957C31.0059 30.6035 29.1992 29.373 26.7773 28.8164L25.5078 28.5039C24.2871 28.2305 23.2324 27.7715 23.2422 26.7461C23.252 25.8086 24.082 25.125 25.5664 25.125C27.002 25.125 27.8906 25.7793 28.0078 26.9023ZM38.437 26.3945H36.4448V23.8555H33.5542V26.3945H32.0894V28.5625H33.5542V34.1484C33.5347 36.209 34.9605 37.1465 37.0503 37.1367C37.7632 37.1465 38.2808 37.0879 38.5933 37.0391V34.7539C38.2417 34.7832 37.7339 34.8125 37.4409 34.8125C36.855 34.793 36.4351 34.5879 36.4448 33.7383V28.5625H38.437V26.3945ZM39.7256 34.0312C39.7354 36.1309 41.2295 37.2051 43.2608 37.1953C44.833 37.2051 45.8487 36.5117 46.3662 35.5352H46.4444V37H49.1787V29.8516C49.1885 27.293 47.001 26.2578 44.6866 26.2578C41.8741 26.2578 40.2725 27.7031 40.0967 29.5391H42.8506C43.0069 28.8164 43.6221 28.377 44.6084 28.3672C45.6924 28.377 46.2979 28.8848 46.3077 29.7734V30.6328C45.8584 30.6523 44.4327 30.7207 43.6709 30.7695C41.6299 30.8965 39.7354 31.668 39.7256 34.0312ZM42.4991 33.9531C42.4991 33.1328 43.1338 32.6543 44.1397 32.5664C44.628 32.5273 45.8682 32.459 46.3077 32.4395V33.2109C46.3174 34.334 45.3995 35.1934 44.0811 35.2031C43.1534 35.1934 42.4991 34.7637 42.4991 33.9531ZM51.3658 37H54.2564V30.9648C54.2466 29.666 55.2134 28.7578 56.522 28.7578C56.9224 28.7578 57.4791 28.8262 57.7525 28.9141V26.3359C57.4986 26.2773 57.1275 26.2383 56.8345 26.2383C55.6431 26.2383 54.6568 26.9316 54.2759 28.2305H54.1588V26.3945H51.3658V37ZM65.252 26.3945H63.2598V23.8555H60.3692V26.3945H58.9044V28.5625H60.3692V34.1484C60.3497 36.209 61.7755 37.1465 63.8653 37.1367C64.5782 37.1465 65.0958 37.0879 65.4083 37.0391V34.7539C65.0567 34.7832 64.5489 34.8125 64.2559 34.8125C63.67 34.793 63.2501 34.5879 63.2598 33.7383V28.5625H65.252V26.3945Z" fill="#4EAC62"/>
<path d="M509.333 227C509.333 228.473 510.527 229.667 512 229.667C513.473 229.667 514.667 228.473 514.667 227C514.667 225.527 513.473 224.333 512 224.333C510.527 224.333 509.333 225.527 509.333 227ZM468 227.5H469V226.5H468V227.5ZM471 227.5H473V226.5H471V227.5ZM475 227.5H477V226.5H475V227.5ZM479 227.5H481V226.5H479V227.5ZM483 227.5H485V226.5H483V227.5ZM487 227.5H489V226.5H487V227.5ZM491 227.5H493V226.5H491V227.5ZM495 227.5H497V226.5H495V227.5ZM499 227.5H501V226.5H499V227.5ZM503 227.5H505V226.5H503V227.5ZM507 227.5H509V226.5H507V227.5ZM511 227.5H512V226.5H511V227.5Z" fill="#4EAC62"/>
<rect x="512.5" y="197.5" width="151" height="59" rx="7.5" fill="#DCEFE0"/>
<path d="M570.938 221.041H564.156V222.436H566.699C566.679 223.987 565.735 225.587 563.678 226.25L564.607 227.59C566.05 227.118 567.048 226.147 567.602 224.938C568.142 226.045 569.092 226.934 570.473 227.385L571.361 226.031C569.345 225.389 568.47 223.892 568.463 222.436H570.938V221.041ZM565.359 229.736H571.99V232.758H573.74V228.355H565.359V229.736ZM571.99 227.822H573.74V224.787H575.422V223.338H573.74V220.316H571.99V227.822ZM586.441 220.33H584.705V221.711H581.615V223.078H584.705V224.035H581.615V225.402H584.705V229.477H586.441V220.33ZM576.652 227.863H577.65C579.509 227.856 581.184 227.795 583.05 227.439L582.873 226.031C581.328 226.312 579.892 226.407 578.375 226.428V221.109H576.652V227.863ZM578.17 232.539H586.742V231.145H579.92V228.656H578.17V232.539ZM597.857 220.316H596.107V232.73H597.857V226.523H599.62V225.088H597.857V220.316ZM587.904 229.244L588.888 230.584C593.072 228.526 594.521 225.307 594.535 221.588H588.615V223.01H592.764C592.436 225.785 590.85 227.768 587.904 229.244ZM606.784 221.096H600.974V222.504H604.911C604.638 224.186 603.065 225.587 600.263 226.305L600.919 227.699C603.599 226.988 605.437 225.635 606.271 223.707H608.876V224.965H606.046V226.359H608.876V227.713H610.612V220.33H608.876V222.34H606.675C606.75 221.943 606.784 221.526 606.784 221.096ZM602.067 229.586H608.876V232.73H610.612V228.219H602.067V229.586Z" fill="#4EAC62"/>
<rect x="512.5" y="197.5" width="151" height="59" rx="7.5" stroke="#4EAC62"/>
<path d="M705.333 227C705.333 228.473 706.527 229.667 708 229.667C709.473 229.667 710.667 228.473 710.667 227C710.667 225.527 709.473 224.333 708 224.333C706.527 224.333 705.333 225.527 705.333 227ZM664 227.5H665V226.5H664V227.5ZM667 227.5H669V226.5H667V227.5ZM671 227.5H673V226.5H671V227.5ZM675 227.5H677V226.5H675V227.5ZM679 227.5H681V226.5H679V227.5ZM683 227.5H685V226.5H683V227.5ZM687 227.5H689V226.5H687V227.5ZM691 227.5H693V226.5H691V227.5ZM695 227.5H697V226.5H695V227.5ZM699 227.5H701V226.5H699V227.5ZM703 227.5H705V226.5H703V227.5ZM707 227.5H708V226.5H707V227.5Z" fill="#4EAC62"/>
<rect x="708.5" y="197.5" width="151" height="59" rx="7.5" fill="#DCEFE0"/>
<path d="M770.355 220.33H768.619V223.42H766.938V224.828H768.619V226.072H766.938V227.453H768.619V229.805H770.355V220.33ZM759.896 223.01H766.814V221.629H764.312V220.303H762.576V221.629H759.896V223.01ZM760.512 225.895C760.498 227.33 761.735 228.328 763.424 228.328C765.133 228.328 766.363 227.33 766.377 225.895C766.363 224.459 765.133 223.447 763.424 223.447C761.735 223.447 760.498 224.459 760.512 225.895ZM762.07 232.539H770.615V231.145H763.834V228.998H762.07V232.539ZM762.139 225.895C762.132 225.197 762.665 224.808 763.424 224.801C764.176 224.808 764.729 225.197 764.736 225.895C764.729 226.612 764.176 227.002 763.424 227.002C762.665 227.002 762.132 226.612 762.139 225.895ZM782.81 220.316H781.142V225.102H780.09V220.494H778.435V228.595C776.562 227.624 775.92 225.56 775.92 223.393V222.996H777.82V221.602H772.119V222.996H774.224V223.393C774.217 225.771 773.589 227.973 771.695 229.039L772.775 230.379C773.965 229.668 774.696 228.479 775.106 227.022C775.55 228.287 776.296 229.319 777.451 229.928L778.435 228.622V232.184H780.09V226.523H781.142V232.758H782.81V220.316ZM793.857 220.316H792.107V232.73H793.857V226.523H795.62V225.088H793.857V220.316ZM783.904 229.244L784.888 230.584C789.072 228.526 790.521 225.307 790.535 221.588H784.615V223.01H788.764C788.436 225.785 786.85 227.768 783.904 229.244ZM802.784 221.096H796.974V222.504H800.911C800.638 224.186 799.065 225.587 796.263 226.305L796.919 227.699C799.599 226.988 801.437 225.635 802.271 223.707H804.876V224.965H802.046V226.359H804.876V227.713H806.612V220.33H804.876V222.34H802.675C802.75 221.943 802.784 221.526 802.784 221.096ZM798.067 229.586H804.876V232.73H806.612V228.219H798.067V229.586Z" fill="#4EAC62"/>
<rect x="708.5" y="197.5" width="151" height="59" rx="7.5" stroke="#4EAC62"/>
<path d="M901.333 227C901.333 228.473 902.527 229.667 904 229.667C905.473 229.667 906.667 228.473 906.667 227C906.667 225.527 905.473 224.333 904 224.333C902.527 224.333 901.333 225.527 901.333 227ZM860 227.5H861V226.5H860V227.5ZM863 227.5H865V226.5H863V227.5ZM867 227.5H869V226.5H867V227.5ZM871 227.5H873V226.5H871V227.5ZM875 227.5H877V226.5H875V227.5ZM879 227.5H881V226.5H879V227.5ZM883 227.5H885V226.5H883V227.5ZM887 227.5H889V226.5H887V227.5ZM891 227.5H893V226.5H891V227.5ZM895 227.5H897V226.5H895V227.5ZM899 227.5H901V226.5H899V227.5ZM903 227.5H904V226.5H903V227.5Z" fill="#4EAC62"/>
<rect x="904.5" y="197.5" width="151" height="59" rx="7.5" fill="#DCEFE0"/>
<path d="M951.014 225.881H943.959V222.586H950.918V221.191H942.209V227.262H945.668V229.914H940.869V231.336H952.258V229.914H947.404V227.262H951.014V225.881ZM963.742 220.316H962.074V225.061H960.953V220.494H959.299V232.184H960.953V226.482H962.074V232.758H963.742V220.316ZM953.31 229.627H958.259V221.602H953.31V229.627ZM954.937 228.26V222.982H956.632V228.26H954.937ZM978.069 220.316H976.319V232.73H978.069V226.523H979.833V225.088H978.069V220.316ZM968.116 229.244L969.101 230.584C973.284 228.526 974.733 225.307 974.747 221.588H968.827V223.01H972.977C972.648 225.785 971.062 227.768 968.116 229.244ZM986.997 221.096H981.186V222.504H985.124C984.85 224.186 983.278 225.587 980.475 226.305L981.132 227.699C983.811 226.988 985.65 225.635 986.484 223.707H989.089V224.965H986.258V226.359H989.089V227.713H990.825V220.33H989.089V222.34H986.887C986.963 221.943 986.997 221.526 986.997 221.096ZM982.28 229.586H989.089V232.73H990.825V228.219H982.28V229.586ZM1006.98 227.768H995.637V229.189H1000.44V232.771H1002.16V229.189H1006.98V227.768ZM996.211 225.73L996.84 227.098C998.966 226.858 1000.5 226.004 1001.31 224.862C1002.12 225.99 1003.64 226.858 1005.75 227.098L1006.38 225.73C1003.81 225.443 1002.4 224.213 1002.21 223.119H1005.95V221.752H1002.16V220.33H1000.44V221.752H996.662V223.119H1000.41C1000.2 224.227 998.795 225.443 996.211 225.73ZM1018.14 220.316H1016.38V232.785H1018.14V220.316ZM1008.09 225.621C1008.08 228.355 1009.47 230.064 1011.39 230.064C1013.26 230.064 1014.65 228.355 1014.65 225.621C1014.65 222.907 1013.26 221.191 1011.39 221.191C1009.47 221.191 1008.08 222.907 1008.09 225.621ZM1009.77 225.621C1009.77 223.775 1010.42 222.764 1011.39 222.764C1012.33 222.764 1012.97 223.775 1012.97 225.621C1012.97 227.474 1012.33 228.485 1011.39 228.479C1010.42 228.485 1009.77 227.474 1009.77 225.621Z" fill="#4EAC62"/>
<rect x="904.5" y="197.5" width="151" height="59" rx="7.5" stroke="#4EAC62"/>
<path d="M1097.33 227C1097.33 228.473 1098.53 229.667 1100 229.667C1101.47 229.667 1102.67 228.473 1102.67 227C1102.67 225.527 1101.47 224.333 1100 224.333C1098.53 224.333 1097.33 225.527 1097.33 227ZM1056 227.5H1057V226.5H1056V227.5ZM1059 227.5H1061V226.5H1059V227.5ZM1063 227.5H1065V226.5H1063V227.5ZM1067 227.5H1069V226.5H1067V227.5ZM1071 227.5H1073V226.5H1071V227.5ZM1075 227.5H1077V226.5H1075V227.5ZM1079 227.5H1081V226.5H1079V227.5ZM1083 227.5H1085V226.5H1083V227.5ZM1087 227.5H1089V226.5H1087V227.5ZM1091 227.5H1093V226.5H1091V227.5ZM1095 227.5H1097V226.5H1095V227.5ZM1099 227.5H1100V226.5H1099V227.5Z" fill="#4EAC62"/>
<rect x="1100.5" y="197.5" width="151" height="59" rx="7.5" fill="#DCEFE0"/>
<path d="M1154.86 220.316H1153.12V225.102H1150.64V226.523H1153.12V232.758H1154.86V220.316ZM1144.25 229.23L1145.15 230.598C1149.49 228.444 1150.71 225.368 1150.71 221.615H1144.83V222.982H1148.96C1148.7 225.71 1147.39 227.679 1144.25 229.23ZM1161.53 221.52H1156.8V222.928H1159.85V224.924H1156.81V229.996H1157.67C1159.21 229.996 1160.56 229.955 1162.18 229.682L1162.06 228.287C1160.78 228.485 1159.66 228.533 1158.48 228.547V226.318H1161.53V221.52ZM1162.76 232.156H1164.36V226.428H1165.56V232.758H1167.21V220.316H1165.56V225.02H1164.36V220.521H1162.76V232.156ZM1180.09 221.984H1178.41V220.33H1176.66V227.836H1178.41V226.059H1180.09V224.623H1178.41V223.434H1180.09V221.984ZM1168.98 222.436H1173V223.461H1168.99V227.289H1170.04C1172.57 227.289 1174.17 227.228 1175.95 226.893L1175.76 225.498C1174.17 225.778 1172.78 225.854 1170.73 225.867V224.773H1174.69V221.068H1168.98V222.436ZM1170.04 230.42C1170.04 231.89 1171.68 232.744 1174.31 232.744C1176.89 232.744 1178.53 231.89 1178.53 230.42C1178.53 228.923 1176.89 228.027 1174.31 228.027C1171.68 228.027 1170.04 228.923 1170.04 230.42ZM1171.77 230.42C1171.75 229.729 1172.65 229.374 1174.31 229.381C1175.95 229.374 1176.81 229.729 1176.81 230.42C1176.81 231.097 1175.95 231.445 1174.31 231.445C1172.65 231.445 1171.75 231.097 1171.77 230.42ZM1195.19 227.768H1183.84V229.189H1188.64V232.771H1190.36V229.189H1195.19V227.768ZM1184.41 225.73L1185.04 227.098C1187.17 226.858 1188.7 226.004 1189.51 224.862C1190.32 225.99 1191.84 226.858 1193.96 227.098L1194.58 225.73C1192.01 225.443 1190.61 224.213 1190.41 223.119H1194.15V221.752H1190.36V220.33H1188.64V221.752H1184.86V223.119H1188.61C1188.4 224.227 1187 225.443 1184.41 225.73ZM1206.34 220.316H1204.58V232.785H1206.34V220.316ZM1196.29 225.621C1196.29 228.355 1197.67 230.064 1199.59 230.064C1201.46 230.064 1202.86 228.355 1202.86 225.621C1202.86 222.907 1201.46 221.191 1199.59 221.191C1197.67 221.191 1196.29 222.907 1196.29 225.621ZM1197.97 225.621C1197.97 223.775 1198.62 222.764 1199.59 222.764C1200.53 222.764 1201.17 223.775 1201.17 225.621C1201.17 227.474 1200.53 228.485 1199.59 228.479C1198.62 228.485 1197.97 227.474 1197.97 225.621Z" fill="#4EAC62"/>
<rect x="1100.5" y="197.5" width="151" height="59" rx="7.5" stroke="#4EAC62"/>
<path d="M509.333 331C509.333 332.473 510.527 333.667 512 333.667C513.473 333.667 514.667 332.473 514.667 331C514.667 329.527 513.473 328.333 512 328.333C510.527 328.333 509.333 329.527 509.333 331ZM468 331.5H469V330.5H468V331.5ZM471 331.5H473V330.5H471V331.5ZM475 331.5H477V330.5H475V331.5ZM479 331.5H481V330.5H479V331.5ZM483 331.5H485V330.5H483V331.5ZM487 331.5H489V330.5H487V331.5ZM491 331.5H493V330.5H491V331.5ZM495 331.5H497V330.5H495V331.5ZM499 331.5H501V330.5H499V331.5ZM503 331.5H505V330.5H503V331.5ZM507 331.5H509V330.5H507V331.5ZM511 331.5H512V330.5H511V331.5Z" fill="#4EAC62"/>
<rect x="512.5" y="301.5" width="151" height="59" rx="7.5" fill="#DCEFE0"/>
<path d="M570.938 325.041H564.156V326.436H566.699C566.679 327.987 565.735 329.587 563.678 330.25L564.607 331.59C566.05 331.118 567.048 330.147 567.602 328.938C568.142 330.045 569.092 330.934 570.473 331.385L571.361 330.031C569.345 329.389 568.47 327.892 568.463 326.436H570.938V325.041ZM565.359 333.736H571.99V336.758H573.74V332.355H565.359V333.736ZM571.99 331.822H573.74V328.787H575.422V327.338H573.74V324.316H571.99V331.822ZM586.441 324.33H584.705V325.711H581.615V327.078H584.705V328.035H581.615V329.402H584.705V333.477H586.441V324.33ZM576.652 331.863H577.65C579.509 331.856 581.184 331.795 583.05 331.439L582.873 330.031C581.328 330.312 579.892 330.407 578.375 330.428V325.109H576.652V331.863ZM578.17 336.539H586.742V335.145H579.92V332.656H578.17V336.539ZM597.857 324.316H596.107V336.73H597.857V330.523H599.62V329.088H597.857V324.316ZM587.904 333.244L588.888 334.584C593.072 332.526 594.521 329.307 594.535 325.588H588.615V327.01H592.764C592.436 329.785 590.85 331.768 587.904 333.244ZM606.784 325.096H600.974V326.504H604.911C604.638 328.186 603.065 329.587 600.263 330.305L600.919 331.699C603.599 330.988 605.437 329.635 606.271 327.707H608.876V328.965H606.046V330.359H608.876V331.713H610.612V324.33H608.876V326.34H606.675C606.75 325.943 606.784 325.526 606.784 325.096ZM602.067 333.586H608.876V336.73H610.612V332.219H602.067V333.586Z" fill="#4EAC62"/>
<rect x="512.5" y="301.5" width="151" height="59" rx="7.5" stroke="#4EAC62"/>
<path d="M705.333 331C705.333 332.473 706.527 333.667 708 333.667C709.473 333.667 710.667 332.473 710.667 331C710.667 329.527 709.473 328.333 708 328.333C706.527 328.333 705.333 329.527 705.333 331ZM664 331.5H665V330.5H664V331.5ZM667 331.5H669V330.5H667V331.5ZM671 331.5H673V330.5H671V331.5ZM675 331.5H677V330.5H675V331.5ZM679 331.5H681V330.5H679V331.5ZM683 331.5H685V330.5H683V331.5ZM687 331.5H689V330.5H687V331.5ZM691 331.5H693V330.5H691V331.5ZM695 331.5H697V330.5H695V331.5ZM699 331.5H701V330.5H699V331.5ZM703 331.5H705V330.5H703V331.5ZM707 331.5H708V330.5H707V331.5Z" fill="#4EAC62"/>
<rect x="708.5" y="301.5" width="151" height="59" rx="7.5" fill="#DCEFE0"/>
<path d="M770.355 324.33H768.619V327.42H766.938V328.828H768.619V330.072H766.938V331.453H768.619V333.805H770.355V324.33ZM759.896 327.01H766.814V325.629H764.312V324.303H762.576V325.629H759.896V327.01ZM760.512 329.895C760.498 331.33 761.735 332.328 763.424 332.328C765.133 332.328 766.363 331.33 766.377 329.895C766.363 328.459 765.133 327.447 763.424 327.447C761.735 327.447 760.498 328.459 760.512 329.895ZM762.07 336.539H770.615V335.145H763.834V332.998H762.07V336.539ZM762.139 329.895C762.132 329.197 762.665 328.808 763.424 328.801C764.176 328.808 764.729 329.197 764.736 329.895C764.729 330.612 764.176 331.002 763.424 331.002C762.665 331.002 762.132 330.612 762.139 329.895ZM782.81 324.316H781.142V329.102H780.09V324.494H778.435V332.595C776.562 331.624 775.92 329.56 775.92 327.393V326.996H777.82V325.602H772.119V326.996H774.224V327.393C774.217 329.771 773.589 331.973 771.695 333.039L772.775 334.379C773.965 333.668 774.696 332.479 775.106 331.022C775.55 332.287 776.296 333.319 777.451 333.928L778.435 332.622V336.184H780.09V330.523H781.142V336.758H782.81V324.316ZM793.857 324.316H792.107V336.73H793.857V330.523H795.62V329.088H793.857V324.316ZM783.904 333.244L784.888 334.584C789.072 332.526 790.521 329.307 790.535 325.588H784.615V327.01H788.764C788.436 329.785 786.85 331.768 783.904 333.244ZM802.784 325.096H796.974V326.504H800.911C800.638 328.186 799.065 329.587 796.263 330.305L796.919 331.699C799.599 330.988 801.437 329.635 802.271 327.707H804.876V328.965H802.046V330.359H804.876V331.713H806.612V324.33H804.876V326.34H802.675C802.75 325.943 802.784 325.526 802.784 325.096ZM798.067 333.586H804.876V336.73H806.612V332.219H798.067V333.586Z" fill="#4EAC62"/>
<rect x="708.5" y="301.5" width="151" height="59" rx="7.5" stroke="#4EAC62"/>
<path d="M901.333 331C901.333 332.473 902.527 333.667 904 333.667C905.473 333.667 906.667 332.473 906.667 331C906.667 329.527 905.473 328.333 904 328.333C902.527 328.333 901.333 329.527 901.333 331ZM860 331.5H861V330.5H860V331.5ZM863 331.5H865V330.5H863V331.5ZM867 331.5H869V330.5H867V331.5ZM871 331.5H873V330.5H871V331.5ZM875 331.5H877V330.5H875V331.5ZM879 331.5H881V330.5H879V331.5ZM883 331.5H885V330.5H883V331.5ZM887 331.5H889V330.5H887V331.5ZM891 331.5H893V330.5H891V331.5ZM895 331.5H897V330.5H895V331.5ZM899 331.5H901V330.5H899V331.5ZM903 331.5H904V330.5H903V331.5Z" fill="#4EAC62"/>
<rect x="904.5" y="301.5" width="151" height="59" rx="7.5" fill="#DCEFE0"/>
<path d="M952.258 333.873H947.363V331.057H945.627V333.873H940.869V335.268H952.258V333.873ZM941.143 330.004L941.881 331.453C944.055 331.063 945.675 329.881 946.488 328.336C947.309 329.888 948.936 331.057 951.123 331.453L951.861 330.004C949.018 329.566 947.411 327.693 947.418 325.916V325.027H945.559V325.916C945.545 327.673 943.959 329.566 941.143 330.004ZM963.742 324.316H962.074V329.061H960.953V324.494H959.299V336.184H960.953V330.482H962.074V336.758H963.742V324.316ZM953.31 333.627H958.259V325.602H953.31V333.627ZM954.937 332.26V326.982H956.632V332.26H954.937ZM978.069 324.316H976.319V336.73H978.069V330.523H979.833V329.088H978.069V324.316ZM968.116 333.244L969.101 334.584C973.284 332.526 974.733 329.307 974.747 325.588H968.827V327.01H972.977C972.648 329.785 971.062 331.768 968.116 333.244ZM986.997 325.096H981.186V326.504H985.124C984.85 328.186 983.278 329.587 980.475 330.305L981.132 331.699C983.811 330.988 985.65 329.635 986.484 327.707H989.089V328.965H986.258V330.359H989.089V331.713H990.825V324.33H989.089V326.34H986.887C986.963 325.943 986.997 325.526 986.997 325.096ZM982.28 333.586H989.089V336.73H990.825V332.219H982.28V333.586ZM1006.98 331.768H995.637V333.189H1000.44V336.771H1002.16V333.189H1006.98V331.768ZM996.211 329.73L996.84 331.098C998.966 330.858 1000.5 330.004 1001.31 328.862C1002.12 329.99 1003.64 330.858 1005.75 331.098L1006.38 329.73C1003.81 329.443 1002.4 328.213 1002.21 327.119H1005.95V325.752H1002.16V324.33H1000.44V325.752H996.662V327.119H1000.41C1000.2 328.227 998.795 329.443 996.211 329.73ZM1018.14 324.316H1016.38V336.785H1018.14V324.316ZM1008.09 329.621C1008.08 332.355 1009.47 334.064 1011.39 334.064C1013.26 334.064 1014.65 332.355 1014.65 329.621C1014.65 326.907 1013.26 325.191 1011.39 325.191C1009.47 325.191 1008.08 326.907 1008.09 329.621ZM1009.77 329.621C1009.77 327.775 1010.42 326.764 1011.39 326.764C1012.33 326.764 1012.97 327.775 1012.97 329.621C1012.97 331.474 1012.33 332.485 1011.39 332.479C1010.42 332.485 1009.77 331.474 1009.77 329.621Z" fill="#4EAC62"/>
<rect x="904.5" y="301.5" width="151" height="59" rx="7.5" stroke="#4EAC62"/>
<path d="M510.333 436C510.333 437.473 511.527 438.667 513 438.667C514.473 438.667 515.667 437.473 515.667 436C515.667 434.527 514.473 433.333 513 433.333C511.527 433.333 510.333 434.527 510.333 436ZM469 436.5H470V435.5H469V436.5ZM472 436.5H474V435.5H472V436.5ZM476 436.5H478V435.5H476V436.5ZM480 436.5H482V435.5H480V436.5ZM484 436.5H486V435.5H484V436.5ZM488 436.5H490V435.5H488V436.5ZM492 436.5H494V435.5H492V436.5ZM496 436.5H498V435.5H496V436.5ZM500 436.5H502V435.5H500V436.5ZM504 436.5H506V435.5H504V436.5ZM508 436.5H510V435.5H508V436.5ZM512 436.5H513V435.5H512V436.5Z" fill="#4EAC62"/>
<rect x="513.5" y="406.5" width="151" height="59" rx="7.5" fill="#DCEFE0"/>
<path d="M556.473 430.287V429.686H554.641V430.287C554.634 431.757 553.137 433.377 550.307 433.732L551.004 435.141C553.15 434.826 554.736 433.814 555.557 432.475C556.37 433.821 557.963 434.826 560.137 435.141L560.82 433.732C557.97 433.377 556.466 431.757 556.473 430.287ZM549.869 437.506H554.654V441.758H556.377V437.506H561.217V436.084H549.869V437.506ZM572.373 429.316H570.623V436.002H572.373V429.316ZM562.146 432.789C562.146 434.484 563.609 435.701 565.55 435.701C567.485 435.701 568.948 434.484 568.955 432.789C568.948 431.039 567.485 429.822 565.55 429.836C563.609 429.822 562.146 431.039 562.146 432.789ZM563.855 432.789C563.841 431.853 564.552 431.278 565.55 431.285C566.521 431.278 567.225 431.853 567.232 432.789C567.225 433.712 566.521 434.266 565.55 434.266C564.552 434.266 563.841 433.712 563.855 432.789ZM564.047 441.621H572.373V436.549H570.636V437.711H565.769V436.549H564.047V441.621ZM565.769 440.213V439.064H570.636V440.213H565.769ZM587.794 429.33H586.044V435.086H583.788V436.139H586.044V436.535H587.794V429.33ZM577.253 433.705L577.431 434.908C578.333 434.915 579.311 434.915 580.329 434.888V436.562H582.052V434.826C583.159 434.765 584.287 434.669 585.388 434.525L585.306 433.445C582.64 433.698 579.659 433.712 577.253 433.705ZM578.101 431.367C578.101 432.522 579.358 433.233 581.259 433.227C583.111 433.233 584.383 432.522 584.39 431.367C584.383 430.246 583.111 429.501 581.259 429.494C579.358 429.501 578.101 430.246 578.101 431.367ZM579.03 438.08H586.058V438.695H579.085V441.676H588.081V440.459H580.794V439.816H587.794V436.904H579.03V438.08ZM579.755 431.367C579.741 430.909 580.315 430.636 581.259 430.643C582.175 430.636 582.756 430.909 582.763 431.367C582.756 431.825 582.175 432.085 581.259 432.092C580.315 432.085 579.741 431.825 579.755 431.367ZM599.21 429.316H597.446V438.23H599.21V434.238H600.891V432.803H599.21V429.316ZM589.257 435.633L589.981 437.014C593.714 435.961 595.812 433.609 595.819 430.246H589.803V431.668H593.898C593.625 433.418 592.046 434.86 589.257 435.633ZM591.116 441.539H599.633V440.145H592.88V437.314H591.116V441.539ZM615.984 436.768H604.637V438.189H609.436V441.771H611.158V438.189H615.984V436.768ZM605.211 434.73L605.84 436.098C607.966 435.858 609.497 435.004 610.311 433.862C611.117 434.99 612.642 435.858 614.754 436.098L615.383 434.73C612.806 434.443 611.404 433.213 611.213 432.119H614.945V430.752H611.158V429.33H609.436V430.752H605.662V432.119H609.408C609.196 433.227 607.795 434.443 605.211 434.73ZM627.14 429.316H625.377V441.785H627.14V429.316ZM617.091 434.621C617.085 437.355 618.472 439.064 620.386 439.064C622.259 439.064 623.654 437.355 623.654 434.621C623.654 431.907 622.259 430.191 620.386 430.191C618.472 430.191 617.085 431.907 617.091 434.621ZM618.773 434.621C618.766 432.775 619.416 431.764 620.386 431.764C621.33 431.764 621.965 432.775 621.972 434.621C621.965 436.474 621.33 437.485 620.386 437.479C619.416 437.485 618.766 436.474 618.773 434.621Z" fill="#4EAC62"/>
<rect x="513.5" y="406.5" width="151" height="59" rx="7.5" stroke="#4EAC62"/>
<path d="M706.333 436C706.333 437.473 707.527 438.667 709 438.667C710.473 438.667 711.667 437.473 711.667 436C711.667 434.527 710.473 433.333 709 433.333C707.527 433.333 706.333 434.527 706.333 436ZM665 436.5H666V435.5H665V436.5ZM668 436.5H670V435.5H668V436.5ZM672 436.5H674V435.5H672V436.5ZM676 436.5H678V435.5H676V436.5ZM680 436.5H682V435.5H680V436.5ZM684 436.5H686V435.5H684V436.5ZM688 436.5H690V435.5H688V436.5ZM692 436.5H694V435.5H692V436.5ZM696 436.5H698V435.5H696V436.5ZM700 436.5H702V435.5H700V436.5ZM704 436.5H706V435.5H704V436.5ZM708 436.5H709V435.5H708V436.5Z" fill="#4EAC62"/>
<rect x="709.5" y="406.5" width="151" height="59" rx="7.5" fill="#DCEFE0"/>
<path d="M752.473 430.287V429.686H750.641V430.287C750.634 431.757 749.137 433.377 746.307 433.732L747.004 435.141C749.15 434.826 750.736 433.814 751.557 432.475C752.37 433.821 753.963 434.826 756.137 435.141L756.82 433.732C753.97 433.377 752.466 431.757 752.473 430.287ZM745.869 437.506H750.654V441.758H752.377V437.506H757.217V436.084H745.869V437.506ZM769.275 434.621H757.982V435.893H762.754V436.672H759.267V437.916H766.199V438.531H759.281V441.676H768.25V440.391H760.99V439.707H767.922V436.672H764.49V435.893H769.275V434.621ZM758.42 432.994L758.898 434.279C761.229 434.163 762.829 433.582 763.615 432.646C764.401 433.582 766.007 434.163 768.318 434.279L768.824 432.994C766.315 432.885 765.044 432.29 764.688 431.572H768.209V430.287H764.476V429.303H762.754V430.287H759.049V431.572H762.535C762.173 432.29 760.908 432.885 758.42 432.994ZM783.794 429.33H782.044V435.086H779.788V436.139H782.044V436.535H783.794V429.33ZM773.253 433.705L773.431 434.908C774.333 434.915 775.311 434.915 776.329 434.888V436.562H778.052V434.826C779.159 434.765 780.287 434.669 781.388 434.525L781.306 433.445C778.64 433.698 775.659 433.712 773.253 433.705ZM774.101 431.367C774.101 432.522 775.358 433.233 777.259 433.227C779.111 433.233 780.383 432.522 780.39 431.367C780.383 430.246 779.111 429.501 777.259 429.494C775.358 429.501 774.101 430.246 774.101 431.367ZM775.03 438.08H782.058V438.695H775.085V441.676H784.081V440.459H776.794V439.816H783.794V436.904H775.03V438.08ZM775.755 431.367C775.741 430.909 776.315 430.636 777.259 430.643C778.175 430.636 778.756 430.909 778.763 431.367C778.756 431.825 778.175 432.085 777.259 432.092C776.315 432.085 775.741 431.825 775.755 431.367ZM795.21 429.316H793.446V438.23H795.21V434.238H796.891V432.803H795.21V429.316ZM785.257 435.633L785.981 437.014C789.714 435.961 791.812 433.609 791.819 430.246H785.803V431.668H789.898C789.625 433.418 788.046 434.86 785.257 435.633ZM787.116 441.539H795.633V440.145H788.88V437.314H787.116V441.539ZM811.984 436.768H800.637V438.189H805.436V441.771H807.158V438.189H811.984V436.768ZM801.211 434.73L801.84 436.098C803.966 435.858 805.497 435.004 806.311 433.862C807.117 434.99 808.642 435.858 810.754 436.098L811.383 434.73C808.806 434.443 807.404 433.213 807.213 432.119H810.945V430.752H807.158V429.33H805.436V430.752H801.662V432.119H805.408C805.196 433.227 803.795 434.443 801.211 434.73ZM823.14 429.316H821.377V441.785H823.14V429.316ZM813.091 434.621C813.085 437.355 814.472 439.064 816.386 439.064C818.259 439.064 819.654 437.355 819.654 434.621C819.654 431.907 818.259 430.191 816.386 430.191C814.472 430.191 813.085 431.907 813.091 434.621ZM814.773 434.621C814.766 432.775 815.416 431.764 816.386 431.764C817.33 431.764 817.965 432.775 817.972 434.621C817.965 436.474 817.33 437.485 816.386 437.479C815.416 437.485 814.766 436.474 814.773 434.621Z" fill="#4EAC62"/>
<rect x="709.5" y="406.5" width="151" height="59" rx="7.5" stroke="#4EAC62"/>
<path d="M509.333 643C509.333 644.473 510.527 645.667 512 645.667C513.473 645.667 514.667 644.473 514.667 643C514.667 641.527 513.473 640.333 512 640.333C510.527 640.333 509.333 641.527 509.333 643ZM468 643.5H469V642.5H468V643.5ZM471 643.5H473V642.5H471V643.5ZM475 643.5H477V642.5H475V643.5ZM479 643.5H481V642.5H479V643.5ZM483 643.5H485V642.5H483V643.5ZM487 643.5H489V642.5H487V643.5ZM491 643.5H493V642.5H491V643.5ZM495 643.5H497V642.5H495V643.5ZM499 643.5H501V642.5H499V643.5ZM503 643.5H505V642.5H503V643.5ZM507 643.5H509V642.5H507V643.5ZM511 643.5H512V642.5H511V643.5Z" fill="#4EAC62"/>
<rect x="512.5" y="613.5" width="151" height="59" rx="7.5" fill="#DCEFE0"/>
<path d="M585.959 640.24H578.986V636.877H577.25V641.635H585.959V640.24ZM575.869 644.438H578.494V648.758H580.244V644.438H582.855V648.758H584.619V644.438H587.217V643.043H575.869V644.438ZM594.504 637.957V637.055H592.644V637.957C592.631 639.762 591.01 641.717 588.242 642.209L588.994 643.658C591.147 643.221 592.76 641.99 593.581 640.411C594.387 642.004 595.994 643.228 598.168 643.658L598.933 642.209C596.117 641.73 594.497 639.782 594.504 637.957ZM587.955 647.227H599.343V645.791H587.955V647.227Z" fill="#4EAC62"/>
<rect x="512.5" y="613.5" width="151" height="59" rx="7.5" stroke="#4EAC62"/>
<path d="M705.333 643C705.333 644.473 706.527 645.667 708 645.667C709.473 645.667 710.667 644.473 710.667 643C710.667 641.527 709.473 640.333 708 640.333C706.527 640.333 705.333 641.527 705.333 643ZM664 643.5H665V642.5H664V643.5ZM667 643.5H669V642.5H667V643.5ZM671 643.5H673V642.5H671V643.5ZM675 643.5H677V642.5H675V643.5ZM679 643.5H681V642.5H679V643.5ZM683 643.5H685V642.5H683V643.5ZM687 643.5H689V642.5H687V643.5ZM691 643.5H693V642.5H691V643.5ZM695 643.5H697V642.5H695V643.5ZM699 643.5H701V642.5H699V643.5ZM703 643.5H705V642.5H703V643.5ZM707 643.5H708V642.5H707V643.5Z" fill="#4EAC62"/>
<rect x="708.5" y="613.5" width="151" height="59" rx="7.5" fill="#DCEFE0"/>
<path d="M777.244 643.234H765.855V644.643H768.467V648.758H770.258V644.643H772.801V648.758H774.578V644.643H777.244V643.234ZM767.004 639.543C766.997 641.218 768.843 642.284 771.516 642.277C774.188 642.284 776.055 641.218 776.055 639.543C776.055 637.827 774.188 636.733 771.516 636.727C768.843 636.733 766.997 637.827 767.004 639.543ZM768.795 639.543C768.788 638.627 769.848 638.128 771.516 638.121C773.197 638.128 774.25 638.627 774.25 639.543C774.25 640.418 773.197 640.903 771.516 640.91C769.848 640.903 768.788 640.418 768.795 639.543ZM789.33 643.672H777.941V645.094H780.607V648.758H782.343V645.094H784.941V648.758H786.705V645.094H789.33V643.672ZM779.377 642.797H788.113V641.416H781.086V640.459H787.716V639.105H781.086V638.189H787.976V636.822H779.377V642.797ZM801.429 645.832H790.04V647.254H801.429V645.832ZM791.243 643.754H800.158V637.109H798.421V639.174H792.993V637.109H791.243V643.754ZM792.993 642.387V640.527H798.421V642.387H792.993Z" fill="#4EAC62"/>
<rect x="708.5" y="613.5" width="151" height="59" rx="7.5" stroke="#4EAC62"/>
</svg>
