<svg width="100" height="30" viewBox="0 0 100 30" fill="none" xmlns="http://www.w3.org/2000/svg">
<circle cx="2.81727" cy="15.1395" r="2.81727" fill="#232323"/>
<circle cx="97.1845" cy="15.1395" r="2.81727" fill="#232323"/>
<path fill-rule="evenodd" clip-rule="evenodd" d="M42.4009 17.4319C33.3767 25.837 19.4348 25.9822 10.2374 17.7669C9.03535 16.6933 7.19052 16.7973 6.11684 17.9993C5.04317 19.2014 5.14722 21.0462 6.34926 22.1199C17.796 32.3443 35.1476 32.1636 46.3789 21.7029L51.169 17.2414L56.7671 12.1707C65.8726 3.92299 79.6819 3.705 89.0432 11.6612C90.2713 12.705 92.113 12.5556 93.1567 11.3275C94.2005 10.0994 94.0511 8.25767 92.823 7.2139C81.229 -2.63995 64.126 -2.36997 52.8488 7.84491L47.2207 12.9428L42.4009 17.4319Z" fill="#232323"/>
<path fill-rule="evenodd" clip-rule="evenodd" d="M41.8716 12.341C32.966 4.04642 19.2548 3.75205 10.0013 11.6568C8.77587 12.7036 6.93379 12.5589 5.88694 11.3334C4.84009 10.1079 4.98489 8.26584 6.21035 7.21899C17.7195 -2.61267 34.773 -2.24654 45.8496 8.07004L50.9816 12.8499L56.2344 17.6079C65.4611 25.9654 79.5015 26.032 88.8071 17.7624C90.0118 16.6917 91.8564 16.8004 92.927 18.0052C93.9976 19.2099 93.8889 21.0545 92.6842 22.1251C81.1516 32.3739 63.751 32.2914 52.3161 21.9337L47.0333 17.1485L41.8716 12.341Z" fill="#232323"/>
</svg>
