<svg width="200" height="60" viewBox="0 0 200 60" fill="none" xmlns="http://www.w3.org/2000/svg">
<path fill-rule="evenodd" clip-rule="evenodd" d="M16.101 36.4445C20.3703 36.4445 23.8312 32.9836 23.8312 28.7143C23.8312 24.445 20.3703 20.9841 16.101 20.9841C11.8317 20.9841 8.37082 24.445 8.37082 28.7143C8.37082 32.9836 11.8317 36.4445 16.101 36.4445ZM16.101 44.1747C24.6396 44.1747 31.5614 37.2528 31.5614 28.7143C31.5614 20.1758 24.6396 13.2539 16.101 13.2539C7.56248 13.2539 0.640625 20.1758 0.640625 28.7143C0.640625 37.2528 7.56248 44.1747 16.101 44.1747Z" fill="#292929"/>
<rect x="36.7188" y="10.6758" width="7.7302" height="38.651" fill="#292929"/>
<rect x="83.0938" y="10.6758" width="7.7302" height="38.651" fill="#292929"/>
<rect x="114.016" y="10.6758" width="7.7302" height="20.6139" fill="#292929"/>
<rect x="101.133" y="26.1367" width="7.7302" height="20.6139" fill="#292929"/>
<rect x="129.477" y="10.6758" width="7.7302" height="38.651" fill="#292929"/>
<rect x="150.094" y="10.6758" width="7.7302" height="38.651" fill="#292929"/>
<rect x="178.734" y="10.6758" width="7.7302" height="38.651" fill="#292929"/>
<rect x="162.977" y="10.6758" width="7.7302" height="38.651" fill="#292929"/>
<rect x="36.7188" y="10.6758" width="20.6139" height="7.7302" fill="#292929"/>
<rect x="65.0547" y="10.6758" width="25.7673" height="7.7302" fill="#292929"/>
<rect x="54.75" y="41.5977" width="36.0742" height="7.7302" fill="#292929"/>
<rect x="101.133" y="10.6758" width="20.6139" height="7.7302" fill="#292929"/>
<rect x="147.516" y="10.6758" width="25.7673" height="7.7302" fill="#292929"/>
<rect x="178.734" y="10.6758" width="20.6139" height="7.7302" fill="#292929"/>
<rect x="147.516" y="41.5977" width="36.0742" height="7.7302" fill="#292929"/>
<rect x="101.133" y="26.1367" width="20.6139" height="7.7302" fill="#292929"/>
<rect x="101.133" y="41.5977" width="36.0742" height="7.7302" fill="#292929"/>
</svg>
