<svg width="200" height="60" viewBox="0 0 200 60" fill="none" xmlns="http://www.w3.org/2000/svg">
<circle cx="8.10439" cy="30.5067" r="5.4872" fill="#292929"/>
<circle cx="191.901" cy="30.5067" r="5.4872" fill="#292929"/>
<path fill-rule="evenodd" clip-rule="evenodd" d="M85.1938 34.9725C67.6171 51.3431 40.4625 51.626 22.5486 35.6251C20.2074 33.5339 16.6142 33.7365 14.523 36.0777C12.4318 38.4189 12.6345 42.0121 14.9757 44.1033C37.2706 64.0175 71.0664 63.6655 92.9417 43.2912L102.271 34.6016L113.175 24.7253C130.91 8.66113 157.806 8.23655 176.039 23.7329C178.431 25.7659 182.018 25.4748 184.051 23.0829C186.084 20.6909 185.793 17.1038 183.401 15.0709C160.819 -4.12153 127.508 -3.59569 105.543 16.2999L94.5813 26.2291L85.1938 34.9725Z" fill="#292929"/>
<path fill-rule="evenodd" clip-rule="evenodd" d="M84.1687 25.0566C66.8231 8.90116 40.1177 8.3278 22.0947 23.7239C19.7078 25.7629 16.12 25.4809 14.0811 23.094C12.0421 20.7072 12.3241 17.1193 14.711 15.0804C37.1274 -4.06881 70.3427 -3.35568 91.9166 16.738L101.912 26.0478L112.143 35.3149C130.114 51.5929 157.461 51.7226 175.585 35.6158C177.932 33.5305 181.524 33.7422 183.609 36.0887C185.695 38.4352 185.483 42.0279 183.137 44.1131C160.674 64.0747 126.783 63.914 104.511 43.7403L94.222 34.4202L84.1687 25.0566Z" fill="#56BA70"/>
</svg>
