<svg width="335" height="69" viewBox="0 0 335 69" fill="none" xmlns="http://www.w3.org/2000/svg">
<rect x="2.5" y="2.5" width="330" height="64" rx="9.5" fill="white"/>
<path d="M27.008 43.192C25.488 43.192 24.304 42.808 23.456 42.04C22.608 41.256 22.184 40.096 22.184 38.56V27.232H25.928V38.512C25.928 39.056 26.072 39.48 26.36 39.784C26.648 40.072 27.04 40.216 27.536 40.216C28.128 40.216 28.632 40.056 29.048 39.736L30.056 42.376C29.672 42.648 29.208 42.856 28.664 43C28.136 43.128 27.584 43.192 27.008 43.192ZM20.192 33.256V30.376H29.144V33.256H20.192ZM40.0057 29.896C41.0297 29.896 41.9417 30.104 42.7417 30.52C43.5577 30.92 44.1977 31.544 44.6617 32.392C45.1257 33.224 45.3577 34.296 45.3577 35.608V43H41.6137V36.184C41.6137 35.144 41.3817 34.376 40.9177 33.88C40.4697 33.384 39.8297 33.136 38.9977 33.136C38.4057 33.136 37.8697 33.264 37.3897 33.52C36.9257 33.76 36.5577 34.136 36.2857 34.648C36.0297 35.16 35.9017 35.816 35.9017 36.616V43H32.1577V25.192H35.9017V33.664L35.0617 32.584C35.5257 31.72 36.1897 31.056 37.0537 30.592C37.9177 30.128 38.9017 29.896 40.0057 29.896ZM56.6714 43V40.48L56.4314 39.928V35.416C56.4314 34.616 56.1834 33.992 55.6874 33.544C55.2074 33.096 54.4634 32.872 53.4554 32.872C52.7674 32.872 52.0874 32.984 51.4154 33.208C50.7594 33.416 50.1994 33.704 49.7354 34.072L48.3914 31.456C49.0954 30.96 49.9434 30.576 50.9354 30.304C51.9274 30.032 52.9354 29.896 53.9594 29.896C55.9274 29.896 57.4554 30.36 58.5434 31.288C59.6314 32.216 60.1754 33.664 60.1754 35.632V43H56.6714ZM52.7354 43.192C51.7274 43.192 50.8634 43.024 50.1434 42.688C49.4234 42.336 48.8714 41.864 48.4874 41.272C48.1034 40.68 47.9114 40.016 47.9114 39.28C47.9114 38.512 48.0954 37.84 48.4634 37.264C48.8474 36.688 49.4474 36.24 50.2634 35.92C51.0794 35.584 52.1434 35.416 53.4554 35.416H56.8874V37.6H53.8634C52.9834 37.6 52.3754 37.744 52.0394 38.032C51.7194 38.32 51.5594 38.68 51.5594 39.112C51.5594 39.592 51.7434 39.976 52.1114 40.264C52.4954 40.536 53.0154 40.672 53.6714 40.672C54.2954 40.672 54.8554 40.528 55.3514 40.24C55.8474 39.936 56.2074 39.496 56.4314 38.92L57.0074 40.648C56.7354 41.48 56.2394 42.112 55.5194 42.544C54.7994 42.976 53.8714 43.192 52.7354 43.192ZM71.4119 29.896C72.4359 29.896 73.3479 30.104 74.1479 30.52C74.9639 30.92 75.6039 31.544 76.0679 32.392C76.5319 33.224 76.7639 34.296 76.7639 35.608V43H73.0199V36.184C73.0199 35.144 72.7879 34.376 72.3239 33.88C71.8759 33.384 71.2359 33.136 70.4039 33.136C69.8119 33.136 69.2759 33.264 68.7959 33.52C68.3319 33.76 67.9639 34.136 67.6919 34.648C67.4359 35.16 67.3079 35.816 67.3079 36.616V43H63.5639V30.088H67.1399V33.664L66.4679 32.584C66.9319 31.72 67.5959 31.056 68.4599 30.592C69.3239 30.128 70.3079 29.896 71.4119 29.896ZM83.2537 40.36L83.3497 35.8L89.3737 30.088H93.8377L88.0537 35.968L86.1097 37.552L83.2537 40.36ZM80.1577 43V25.192H83.9017V43H80.1577ZM89.7817 43L85.4137 37.576L87.7657 34.672L94.3177 43H89.7817ZM104.43 47.848C103.758 47.848 103.094 47.744 102.438 47.536C101.782 47.328 101.246 47.04 100.83 46.672L102.198 44.008C102.486 44.264 102.814 44.464 103.182 44.608C103.566 44.752 103.942 44.824 104.31 44.824C104.838 44.824 105.254 44.696 105.558 44.44C105.878 44.2 106.166 43.792 106.422 43.216L107.094 41.632L107.382 41.224L112.014 30.088H115.614L109.782 43.792C109.366 44.832 108.886 45.648 108.342 46.24C107.814 46.832 107.222 47.248 106.566 47.488C105.926 47.728 105.214 47.848 104.43 47.848ZM106.638 43.504L100.878 30.088H104.742L109.206 40.888L106.638 43.504ZM122.935 43.192C121.559 43.192 120.335 42.904 119.263 42.328C118.207 41.752 117.367 40.968 116.743 39.976C116.135 38.968 115.831 37.824 115.831 36.544C115.831 35.248 116.135 34.104 116.743 33.112C117.367 32.104 118.207 31.32 119.263 30.76C120.335 30.184 121.559 29.896 122.935 29.896C124.295 29.896 125.511 30.184 126.583 30.76C127.655 31.32 128.495 32.096 129.103 33.088C129.711 34.08 130.015 35.232 130.015 36.544C130.015 37.824 129.711 38.968 129.103 39.976C128.495 40.968 127.655 41.752 126.583 42.328C125.511 42.904 124.295 43.192 122.935 43.192ZM122.935 40.12C123.559 40.12 124.119 39.976 124.615 39.688C125.111 39.4 125.503 38.992 125.791 38.464C126.079 37.92 126.223 37.28 126.223 36.544C126.223 35.792 126.079 35.152 125.791 34.624C125.503 34.096 125.111 33.688 124.615 33.4C124.119 33.112 123.559 32.968 122.935 32.968C122.311 32.968 121.751 33.112 121.255 33.4C120.759 33.688 120.359 34.096 120.055 34.624C119.767 35.152 119.623 35.792 119.623 36.544C119.623 37.28 119.767 37.92 120.055 38.464C120.359 38.992 120.759 39.4 121.255 39.688C121.751 39.976 122.311 40.12 122.935 40.12ZM137.965 43.192C136.893 43.192 135.933 42.984 135.085 42.568C134.253 42.152 133.605 41.52 133.141 40.672C132.677 39.808 132.445 38.712 132.445 37.384V30.088H136.189V36.832C136.189 37.904 136.413 38.696 136.861 39.208C137.325 39.704 137.973 39.952 138.805 39.952C139.381 39.952 139.893 39.832 140.341 39.592C140.789 39.336 141.141 38.952 141.397 38.44C141.653 37.912 141.781 37.256 141.781 36.472V30.088H145.525V43H141.973V39.448L142.621 40.48C142.189 41.376 141.549 42.056 140.701 42.52C139.869 42.968 138.957 43.192 137.965 43.192ZM156.247 43V29.8C156.247 28.344 156.679 27.184 157.543 26.32C158.407 25.44 159.639 25 161.239 25C161.783 25 162.303 25.056 162.799 25.168C163.311 25.28 163.743 25.456 164.095 25.696L163.111 28.408C162.903 28.264 162.671 28.152 162.415 28.072C162.159 27.992 161.887 27.952 161.599 27.952C161.055 27.952 160.631 28.112 160.327 28.432C160.039 28.736 159.895 29.2 159.895 29.824V31.024L159.991 32.632V43H156.247ZM154.255 33.256V30.376H163.207V33.256H154.255ZM171.052 43.192C169.676 43.192 168.452 42.904 167.38 42.328C166.324 41.752 165.484 40.968 164.86 39.976C164.252 38.968 163.948 37.824 163.948 36.544C163.948 35.248 164.252 34.104 164.86 33.112C165.484 32.104 166.324 31.32 167.38 30.76C168.452 30.184 169.676 29.896 171.052 29.896C172.412 29.896 173.628 30.184 174.7 30.76C175.772 31.32 176.612 32.096 177.22 33.088C177.828 34.08 178.132 35.232 178.132 36.544C178.132 37.824 177.828 38.968 177.22 39.976C176.612 40.968 175.772 41.752 174.7 42.328C173.628 42.904 172.412 43.192 171.052 43.192ZM171.052 40.12C171.676 40.12 172.236 39.976 172.732 39.688C173.228 39.4 173.62 38.992 173.908 38.464C174.196 37.92 174.34 37.28 174.34 36.544C174.34 35.792 174.196 35.152 173.908 34.624C173.62 34.096 173.228 33.688 172.732 33.4C172.236 33.112 171.676 32.968 171.052 32.968C170.428 32.968 169.868 33.112 169.372 33.4C168.876 33.688 168.476 34.096 168.172 34.624C167.884 35.152 167.74 35.792 167.74 36.544C167.74 37.28 167.884 37.92 168.172 38.464C168.476 38.992 168.876 39.4 169.372 39.688C169.868 39.976 170.428 40.12 171.052 40.12ZM180.634 43V30.088H184.21V33.736L183.706 32.68C184.09 31.768 184.706 31.08 185.554 30.616C186.402 30.136 187.434 29.896 188.65 29.896V33.352C188.49 33.336 188.346 33.328 188.218 33.328C188.09 33.312 187.954 33.304 187.81 33.304C186.786 33.304 185.954 33.6 185.314 34.192C184.69 34.768 184.378 35.672 184.378 36.904V43H180.634ZM200.719 43L196.063 30.088H199.591L203.455 41.2H201.775L205.807 30.088H208.975L212.887 41.2H211.207L215.191 30.088H218.503L213.823 43H210.199L206.767 33.472H207.871L204.319 43H200.719ZM227.742 43V40.48L227.502 39.928V35.416C227.502 34.616 227.254 33.992 226.758 33.544C226.278 33.096 225.534 32.872 224.526 32.872C223.838 32.872 223.158 32.984 222.486 33.208C221.83 33.416 221.27 33.704 220.806 34.072L219.462 31.456C220.166 30.96 221.014 30.576 222.006 30.304C222.998 30.032 224.006 29.896 225.03 29.896C226.998 29.896 228.526 30.36 229.614 31.288C230.702 32.216 231.246 33.664 231.246 35.632V43H227.742ZM223.806 43.192C222.798 43.192 221.934 43.024 221.214 42.688C220.494 42.336 219.942 41.864 219.558 41.272C219.174 40.68 218.982 40.016 218.982 39.28C218.982 38.512 219.166 37.84 219.534 37.264C219.918 36.688 220.518 36.24 221.334 35.92C222.15 35.584 223.214 35.416 224.526 35.416H227.958V37.6H224.934C224.054 37.6 223.446 37.744 223.11 38.032C222.79 38.32 222.63 38.68 222.63 39.112C222.63 39.592 222.814 39.976 223.182 40.264C223.566 40.536 224.086 40.672 224.742 40.672C225.366 40.672 225.926 40.528 226.422 40.24C226.918 39.936 227.278 39.496 227.502 38.92L228.078 40.648C227.806 41.48 227.31 42.112 226.59 42.544C225.87 42.976 224.942 43.192 223.806 43.192ZM239.914 43.192C238.394 43.192 237.21 42.808 236.362 42.04C235.514 41.256 235.09 40.096 235.09 38.56V27.232H238.834V38.512C238.834 39.056 238.978 39.48 239.266 39.784C239.554 40.072 239.946 40.216 240.442 40.216C241.034 40.216 241.538 40.056 241.954 39.736L242.962 42.376C242.578 42.648 242.114 42.856 241.57 43C241.042 43.128 240.49 43.192 239.914 43.192ZM233.098 33.256V30.376H242.05V33.256H233.098ZM250.906 43.192C249.514 43.192 248.274 42.912 247.186 42.352C246.098 41.776 245.242 40.984 244.618 39.976C244.01 38.968 243.706 37.824 243.706 36.544C243.706 35.248 244.01 34.104 244.618 33.112C245.242 32.104 246.098 31.32 247.186 30.76C248.274 30.184 249.514 29.896 250.906 29.896C252.266 29.896 253.45 30.184 254.458 30.76C255.466 31.32 256.21 32.128 256.69 33.184L253.786 34.744C253.45 34.136 253.026 33.688 252.514 33.4C252.018 33.112 251.474 32.968 250.882 32.968C250.242 32.968 249.666 33.112 249.154 33.4C248.642 33.688 248.234 34.096 247.93 34.624C247.642 35.152 247.498 35.792 247.498 36.544C247.498 37.296 247.642 37.936 247.93 38.464C248.234 38.992 248.642 39.4 249.154 39.688C249.666 39.976 250.242 40.12 250.882 40.12C251.474 40.12 252.018 39.984 252.514 39.712C253.026 39.424 253.45 38.968 253.786 38.344L256.69 39.928C256.21 40.968 255.466 41.776 254.458 42.352C253.45 42.912 252.266 43.192 250.906 43.192ZM266.623 29.896C267.647 29.896 268.559 30.104 269.359 30.52C270.175 30.92 270.815 31.544 271.279 32.392C271.743 33.224 271.975 34.296 271.975 35.608V43H268.231V36.184C268.231 35.144 267.999 34.376 267.535 33.88C267.087 33.384 266.447 33.136 265.615 33.136C265.023 33.136 264.487 33.264 264.007 33.52C263.543 33.76 263.175 34.136 262.903 34.648C262.647 35.16 262.519 35.816 262.519 36.616V43H258.775V25.192H262.519V33.664L261.679 32.584C262.143 31.72 262.807 31.056 263.671 30.592C264.535 30.128 265.519 29.896 266.623 29.896ZM275.369 43V30.088H279.113V43H275.369ZM277.241 28.288C276.553 28.288 275.993 28.088 275.561 27.688C275.129 27.288 274.913 26.792 274.913 26.2C274.913 25.608 275.129 25.112 275.561 24.712C275.993 24.312 276.553 24.112 277.241 24.112C277.929 24.112 278.489 24.304 278.921 24.688C279.353 25.056 279.569 25.536 279.569 26.128C279.569 26.752 279.353 27.272 278.921 27.688C278.505 28.088 277.945 28.288 277.241 28.288ZM290.435 29.896C291.459 29.896 292.371 30.104 293.171 30.52C293.987 30.92 294.627 31.544 295.091 32.392C295.555 33.224 295.787 34.296 295.787 35.608V43H292.043V36.184C292.043 35.144 291.811 34.376 291.347 33.88C290.899 33.384 290.259 33.136 289.427 33.136C288.835 33.136 288.299 33.264 287.819 33.52C287.355 33.76 286.987 34.136 286.715 34.648C286.459 35.16 286.331 35.816 286.331 36.616V43H282.587V30.088H286.163V33.664L285.491 32.584C285.955 31.72 286.619 31.056 287.483 30.592C288.347 30.128 289.331 29.896 290.435 29.896ZM305.347 47.848C304.131 47.848 302.955 47.696 301.819 47.392C300.699 47.104 299.763 46.664 299.011 46.072L300.499 43.384C301.043 43.832 301.731 44.184 302.563 44.44C303.411 44.712 304.243 44.848 305.059 44.848C306.387 44.848 307.347 44.552 307.939 43.96C308.547 43.368 308.851 42.488 308.851 41.32V39.376L309.091 36.136L309.043 32.872V30.088H312.595V40.84C312.595 43.24 311.971 45.008 310.723 46.144C309.475 47.28 307.683 47.848 305.347 47.848ZM304.771 42.376C303.571 42.376 302.483 42.12 301.507 41.608C300.547 41.08 299.771 40.352 299.179 39.424C298.603 38.48 298.315 37.384 298.315 36.136C298.315 34.872 298.603 33.776 299.179 32.848C299.771 31.904 300.547 31.176 301.507 30.664C302.483 30.152 303.571 29.896 304.771 29.896C305.859 29.896 306.819 30.12 307.651 30.568C308.483 31 309.131 31.68 309.595 32.608C310.059 33.52 310.291 34.696 310.291 36.136C310.291 37.56 310.059 38.736 309.595 39.664C309.131 40.576 308.483 41.256 307.651 41.704C306.819 42.152 305.859 42.376 304.771 42.376ZM305.515 39.304C306.171 39.304 306.755 39.176 307.267 38.92C307.779 38.648 308.179 38.272 308.467 37.792C308.755 37.312 308.899 36.76 308.899 36.136C308.899 35.496 308.755 34.944 308.467 34.48C308.179 34 307.779 33.632 307.267 33.376C306.755 33.104 306.171 32.968 305.515 32.968C304.859 32.968 304.275 33.104 303.763 33.376C303.251 33.632 302.843 34 302.539 34.48C302.251 34.944 302.107 35.496 302.107 36.136C302.107 36.76 302.251 37.312 302.539 37.792C302.843 38.272 303.251 38.648 303.763 38.92C304.275 39.176 304.859 39.304 305.515 39.304Z" fill="black"/>
<rect x="2.5" y="2.5" width="330" height="64" rx="9.5" stroke="#56BA70" stroke-width="5"/>
</svg>
