<svg width="421" height="1001" viewBox="0 0 421 1001" fill="none" xmlns="http://www.w3.org/2000/svg">
<circle cx="290" cy="32.0054" r="22" fill="#382619"/>
<circle cx="47" cy="710.006" r="1" fill="white"/>
<circle cx="252" cy="726.006" r="1" fill="white"/>
<circle cx="82" cy="710.006" r="1" fill="white"/>
<path d="M198.999 529.005C202.422 478.142 197.936 459.087 202.499 455.005L362.499 439.505C391.499 521.005 345.265 576.056 345.999 674.006C361.999 792.006 328.277 902.05 330.999 939.506H306.999C308.815 927.013 303.99 811.764 299.999 707.006C286.999 642.006 284.442 529.493 281.63 536.126C279.507 541.133 279.999 675.006 268.999 705.506C257.999 736.006 262.476 914.672 261.999 939.506H241.999C242.855 920.354 208.894 761.006 221.999 674.006C225.157 653.044 195.576 579.868 198.999 529.005Z" fill="#F5BFB6"/>
<path d="M149 349.505C145 341.905 110.834 296.004 112.5 268.504C112.5 268.504 129.999 246.019 151.999 245.019C173.999 244.019 188.5 257.505 188.5 257.505C191 282.005 207.999 339.605 209.999 350.005C212.499 363.005 190 383.005 175.5 383.005C163.573 383.005 154 359.005 149 349.505Z" fill="#1BADB1"/>
<path d="M411.913 496.879C410.504 492.867 401.578 493.25 401.016 486.666C397.479 468.735 392.793 399.654 392.175 392.414C391.18 380.749 381.979 365.389 372.407 367.311C362.836 369.233 371.014 434.984 383.245 502.974C386.888 545.672 387.942 545.583 395.146 544.968L395.195 544.964C402.444 544.345 411.334 552.065 414.409 540.358C418.783 523.696 420.426 521.113 411.913 496.879Z" fill="#F7D0C8"/>
<path d="M300.748 182.474C300.748 166.69 293.442 125.842 300.749 113.419C306.961 107.208 336.481 63.5948 343.496 85.5168C352.264 112.919 339.116 161.649 333.631 178.089C327.113 197.625 354.175 201.128 379.015 231.513C391.522 246.813 378.307 273.051 375.015 255.513C362.044 219.806 287.707 274.461 266.507 250.517C258.648 241.64 300.748 202.203 300.748 182.474Z" fill="url(#paint0_linear_1009_17872)"/>
<path d="M262.089 157.49C265.053 142.137 271.532 126.624 264.866 112.804C258.384 105.286 250.527 100.417 241.299 121.955C232.013 143.626 224.77 153.837 224.77 171.517C224.77 191.641 229.262 197.943 199.853 216.519C178.709 229.875 198.307 276.89 206.045 256.768C213.783 236.645 230.567 239.168 255.58 214.973C265.63 205.251 258.385 176.681 262.089 157.49Z" fill="url(#paint1_linear_1009_17872)"/>
<path d="M203.515 215.595C207.515 210.677 268.008 199.098 268.008 199.098C289.511 199.1 282.37 193.291 306.008 199.097C334.508 206.097 361.965 219.313 355.008 218.597C330.692 216.095 329.72 449.745 328.508 454.595C327.295 459.445 328.079 500.616 304.508 502.599C292.281 503.627 244.738 490.104 233.508 486.599C222.277 483.094 211.508 441.552 211.508 431.095C211.508 420.597 207.008 342.595 207.008 314.595C207.007 306.832 196.083 278.449 198.508 273.599C200.447 269.719 199.515 220.513 203.515 215.595Z" fill="#16ABB5"/>
<path d="M260.504 197.512C260.503 193.516 260.504 146.294 260.504 146.294L301.508 143.516C301.508 143.516 303.516 193.516 303.516 197.512C303.516 201.508 305.515 197.512 307.516 199.012C313.435 203.45 322.168 230.38 278.008 229.016C234.568 227.674 245.372 216.673 247.516 210.012C257.516 202.013 260.504 201.508 260.504 197.512Z" fill="url(#paint2_linear_1009_17872)"/>
<ellipse cx="231.182" cy="123.272" rx="8.7688" ry="18.6337" transform="rotate(-8.89629 231.182 123.272)" fill="#F5BEB5"/>
<ellipse cx="324.514" cy="123.279" rx="10.961" ry="18.6337" transform="rotate(13.4592 324.514 123.279)" fill="#F5BEB5"/>
<path d="M273.518 172.968C247.682 172.968 231.71 137.249 228.578 117.067L228.579 84.5049L275.241 48.0127L331.611 63.1493L327.227 117.067C322.008 133.213 299.355 172.968 273.518 172.968Z" fill="#FFD4CB"/>
<path d="M260.889 127.837C260.889 128.654 260.119 130.413 259.223 131.822C258.928 132.286 258.924 132.889 259.255 133.33L260.889 135.51" stroke="#2A190D" stroke-width="1.5" stroke-linecap="round"/>
<ellipse cx="250.964" cy="122.553" rx="3.2883" ry="4.3844" fill="#2A190D"/>
<ellipse cx="247.676" cy="133.337" rx="6" ry="4.5" fill="#E1745F" fill-opacity="0.8"/>
<ellipse cx="286.697" cy="133.378" rx="6" ry="4.5" fill="#E1745F" fill-opacity="0.8"/>
<ellipse cx="282.986" cy="122.553" rx="3.2883" ry="4.3844" fill="#2A190D"/>
<path d="M256.507 102.875C251.447 101.547 243.903 101.289 236.577 106.792" stroke="#2A190D" stroke-width="1.5" stroke-linecap="round"/>
<path d="M307.69 102.879C300.19 100.378 290.668 98.9019 281.69 102.118" stroke="#2A190D" stroke-width="1.5" stroke-linecap="round"/>
<path d="M257.111 144.234C261.897 146.345 269.306 147.79 277.409 143.511" stroke="#AE5C4C" stroke-width="1.5" stroke-linecap="round"/>
<path d="M266.163 54.4118C272.452 53.3312 300.748 57.0071 300.748 67.3837C300.748 67.3836 300.747 67.3835 300.747 67.3834L285.028 64.1399C275.507 62.9099 264.119 62.6809 259.875 64.1402C252.329 66.7345 260.923 58.7356 266.163 54.4118Z" fill="#0A0401"/>
<path d="M256.29 69.6736C277.375 48.7439 268.179 59.4827 270.283 61.5718L280.015 36.5024C236.026 18.0056 219.499 61.5678 219.5 104.01C219.5 116.935 233.127 139.044 233.5 132.005C235.99 85.0505 240.506 85.3413 256.29 69.6736Z" fill="url(#paint3_linear_1009_17872)"/>
<path d="M340.525 62.9849C350.496 78.1089 353.999 125.004 334.999 111.004C324.502 103.27 300.295 117.199 292.499 109.504C274.542 91.7806 282.486 67.2449 278.711 61.6788C274.381 55.2929 272.339 60.3245 269.631 62.9858C262.414 58.5511 254.893 44.1172 278.71 37.731C308.48 29.7483 329.311 45.9733 340.525 62.9849Z" fill="url(#paint4_linear_1009_17872)"/>
<path d="M342.516 208.097C304.687 205.187 336.454 308.404 342.517 343.161C348.582 396.647 346.551 438.499 351.507 472.097C351.507 472.097 326.507 480.095 381.007 472.097C435.507 464.098 388.13 390.027 385.005 343.161C383.793 324.974 374.041 211.734 342.516 208.097Z" fill="#0EA8BB"/>
<path d="M322.014 203.017C322.014 203.017 340.507 204.225 344.507 209.225C345.606 210.599 359 274.505 354.5 376.005C380.5 444.505 395.869 518.861 400 579.005C400 579.005 356 607.005 284 607.005C212 607.005 167.5 585.513 167.5 585.513C170.243 549.603 187.5 460.005 210 376.005C195 286.505 216.007 213.228 216.007 213.228C217.182 206.828 231.496 205.561 235.007 205.728C226.34 244.895 231.515 300.505 231.515 300.505H281.015H330.515C330.515 300.505 326.631 230.275 322.014 203.017Z" fill="#F07638"/>
<path d="M229 319.005H241" stroke="white"/>
<path d="M245 319.005H257" stroke="white"/>
<path d="M261 319.005H273" stroke="white"/>
<path d="M277 319.005H289" stroke="white"/>
<path d="M293 319.005H305" stroke="white"/>
<path d="M309 319.005H321" stroke="white"/>
<path d="M325 319.005H337" stroke="white"/>
<path d="M277.016 228.013C257.016 226.013 260.516 198.513 256.016 198.513C254.506 198.513 248.824 203.31 245.016 211.013C237.473 226.272 230.516 250.013 230.516 250.013L277.016 238.013L325.016 255.013C325.016 255.013 323.016 238.013 320.516 224.013C318.016 210.013 313.016 198.513 309.516 198.513C306.016 198.513 297.016 230.013 277.016 228.013Z" fill="white"/>
<path d="M117.926 210.277C120.082 214.533 125.388 230.602 127.003 237.844C133.608 257.27 133.208 263.999 134.984 271.962C137.846 284.792 142.077 288.574 157.107 283.359C172.136 278.143 155.399 252.764 146.273 224.395C135.366 190.491 126.859 185.309 123.74 171.273C122.156 164.148 117.783 158.348 107.623 158.32C92.6508 158.28 94.3646 164.427 92.1421 168.941C87.1781 179.023 90.6516 189.708 102.18 195.901C110.841 200.553 112.338 199.25 117.926 210.277Z" fill="#F7D0C8"/>
<path d="M178.015 279.513C182.415 269.913 194.599 226.505 203.515 215.505C212.515 215.505 209.015 257.083 209.015 259.083C209.015 260.683 206.515 320.013 203.515 355.513C194.015 362.513 178.315 372.983 169.514 368.583C158.514 363.083 170.014 352.583 169.514 341.583C169.014 330.583 172.515 291.513 178.015 279.513Z" fill="#1BADB1"/>
<path d="M170 565.005C207.833 581.005 306.5 602.805 398.5 562.005" stroke="white"/>
<path d="M92.2656 105.822L102.14 104.244L112.015 163.928C112.015 163.928 112.331 165.903 107.393 166.692C102.456 167.48 102.14 165.505 102.14 165.505L92.2656 105.822Z" fill="#2F2B45"/>
<path d="M316.5 132.5C320.5 123.7 315.667 106.672 314.5 103.505C317 101.505 326.7 100.205 327.5 105.005C328.5 111.005 323 128 320 132.5C317 137 312.314 149 313.5 152C310.5 145.5 311.5 143.5 316.5 132.5Z" fill="#331F11"/>
<path d="M237 902.506H262.5L266 952.006H242L237 902.506Z" fill="#1BADB1"/>
<path d="M334.5 902.006H307L306 952.006H330L334.5 902.006Z" fill="#1BADB1"/>
<path d="M105.832 190.982L115.707 189.405L123.436 237.791C123.436 237.791 122.764 239.924 118.32 240.634C113.877 241.343 113.561 239.368 113.561 239.368L105.832 190.982Z" fill="#2F2B45"/>
<path d="M227.427 985.03C224.595 975.979 236.558 956.117 242.121 947.317H245.156L246.208 939.474C246.475 937.488 248.169 936.006 250.173 936.006H259.35C261.357 936.006 263.054 937.493 263.316 939.483L264.348 947.317H266.398C274.49 951.088 273.866 976.608 274.996 985.03C275.501 988.802 230.968 996.344 227.427 985.03Z" fill="#F07638"/>
<path d="M242 961.006L263 966.046M263 961.006C262.067 961.006 248.611 964.366 242 966.046M242 969.646L263 975.406M263 969.646L242 975.406M242 979.006C246.083 978.286 256.583 978.286 263 978.286" stroke="white" stroke-width="2" stroke-linecap="round"/>
<path d="M291.427 985.03C288.595 975.979 300.558 956.117 306.121 947.317H309.156L310.208 939.474C310.475 937.488 312.169 936.006 314.173 936.006H323.35C325.357 936.006 327.054 937.493 327.316 939.483L328.348 947.317H330.398C338.49 951.088 337.866 976.608 338.996 985.03C339.501 988.802 294.968 996.344 291.427 985.03Z" fill="#F07638"/>
<path d="M226 984.733C226 983.382 227.314 982.411 228.612 982.787C233.51 984.202 244.171 987.046 250.758 987.046C257.3 987.046 267.574 984.24 272.37 982.816C273.673 982.429 275 983.401 275 984.761V993.581C275 994.414 274.483 995.159 273.695 995.429C270.07 996.676 259.562 1000.01 250.758 1000.01C241.932 1000.01 231.052 996.66 227.325 995.42C226.526 995.155 226 994.405 226 993.563V984.733Z" fill="white"/>
<path d="M290 984.733C290 983.382 291.314 982.411 292.612 982.787C297.51 984.202 308.171 987.046 314.758 987.046C321.3 987.046 331.574 984.24 336.37 982.816C337.673 982.429 339 983.401 339 984.761V993.581C339 994.414 338.483 995.159 337.695 995.429C334.07 996.676 323.562 1000.01 314.758 1000.01C305.932 1000.01 295.052 996.66 291.325 995.42C290.526 995.155 290 994.405 290 993.563V984.733Z" fill="white"/>
<path d="M238.502 960.562C235.502 957.062 253.002 952.562 253.002 953.062C255.502 952.64 271.502 954.563 269.502 960.063C267.902 964.463 257.835 958.229 253.002 954.563C249.169 957.729 240.902 963.362 238.502 960.562Z" stroke="white" stroke-width="2"/>
<path d="M301.346 960.503C298.346 957.003 315.846 952.503 315.846 953.003C318.346 952.582 334.346 954.504 332.346 960.004C330.746 964.404 320.679 958.171 315.846 954.504C312.013 957.67 303.746 963.303 301.346 960.503Z" stroke="white" stroke-width="2"/>
<rect x="251" y="951.006" width="4" height="7" rx="2" fill="white"/>
<rect x="314" y="951.006" width="4" height="7" rx="2" fill="white"/>
<path d="M306 961.006L327 966.046M327 961.006C326.067 961.006 312.611 964.366 306 966.046M306 969.646L327 975.406M327 969.646L306 975.406M306 979.006C310.083 978.286 320.583 978.286 327 978.286" stroke="white" stroke-width="2" stroke-linecap="round"/>
<rect x="0.429688" y="25.4971" width="164" height="99" rx="20" transform="rotate(-8.78855 0.429688 25.4971)" fill="#2F2B45"/>
<path d="M26.4059 59.0117C26.0993 57.0286 26.4333 55.3714 27.408 54.0402C28.3828 52.709 29.8617 51.89 31.8448 51.5835L54.6736 48.054C55.0748 48.5114 55.4549 49.1374 55.8139 49.9319C56.2189 50.7192 56.4927 51.5741 56.6353 52.4965C56.9063 54.249 56.7068 55.5548 56.0369 56.4139C55.413 57.2659 54.4785 57.7881 53.2333 57.9806L38.6367 60.2373L39.6314 66.6709L55.1965 64.2645C55.5977 64.7219 55.9778 65.3478 56.3368 66.1423C56.7347 66.8835 57.0049 67.7153 57.1475 68.6377C57.4185 70.3902 57.2421 71.6925 56.6182 72.5445C55.9944 73.3964 55.0599 73.9187 53.8147 74.1112L41.0859 76.0791L42.2089 83.3428L59.9877 80.5942C60.389 81.0516 60.7691 81.6775 61.128 82.472C61.5331 83.2593 61.8069 84.1142 61.9495 85.0366C62.2204 86.7891 62.0245 88.118 61.3617 89.0232C60.7379 89.8752 59.8034 90.3974 58.5582 90.5899L38.3581 93.7129C36.375 94.0195 34.7179 93.6855 33.3866 92.7108C32.0554 91.736 31.2365 90.2571 30.9299 88.274L26.4059 59.0117ZM106.854 81.4232C106.308 82.1687 105.438 82.7991 104.243 83.3145C103.1 83.8688 101.676 84.2779 99.9699 84.5417C98.2635 84.8055 96.6101 84.8014 95.0098 84.5294C93.4094 84.2574 91.9753 83.2278 90.7073 81.4405L81.6982 68.5253C80.7854 67.2026 79.956 65.9614 79.2101 64.8018C78.457 63.596 77.6293 62.2129 76.727 60.6525L76.3226 60.7858C76.8921 63.2477 77.3765 65.77 77.7758 68.3526C78.2212 70.9281 78.6364 73.4611 79.0214 75.9515L80.6792 86.6741C80.1933 86.8909 79.4307 87.1505 78.3913 87.4528C77.3981 87.7481 76.3942 87.9741 75.3796 88.131C74.3649 88.2878 73.4549 88.3577 72.6495 88.3405C71.8441 88.3234 71.1557 88.1465 70.5842 87.8099C70.0127 87.4732 69.5351 86.9804 69.1515 86.3314C68.7607 85.6363 68.4762 84.7122 68.2979 83.5593L62.9503 48.9702C63.4534 47.948 64.338 47.1029 65.6041 46.435C66.8703 45.767 68.2643 45.3154 69.7862 45.0801C71.4926 44.8163 73.1495 44.8434 74.757 45.1616C76.4035 45.4264 77.8341 46.433 79.0488 48.1813L88.127 61.0857C89.0399 62.4085 89.8728 63.6727 90.6259 64.8785C91.3718 66.0381 92.1959 67.3982 93.0983 68.9586L93.4335 68.836C92.864 66.3741 92.3637 63.9015 91.9325 61.4182C91.5014 58.9349 91.0933 56.4481 90.7083 53.9577L88.9756 42.7508C89.4616 42.534 90.2011 42.278 91.1943 41.9828C92.2337 41.6805 93.2607 41.4509 94.2753 41.294C96.3045 40.9803 97.9065 41.1104 99.0813 41.6843C100.249 42.2121 101.008 43.6059 101.357 45.8657L106.854 81.4232ZM126.007 70.7415C126.528 70.7553 127.165 70.7513 127.917 70.7295C128.662 70.6615 129.358 70.5776 130.003 70.4778C131.572 70.2354 132.966 69.7837 134.186 69.1229C135.452 68.4549 136.471 67.5654 137.244 66.4543C138.063 65.3361 138.608 63.9768 138.88 62.3765C139.191 60.7229 139.179 58.8123 138.844 56.6447C138.202 52.494 136.752 49.5307 134.494 47.7548C132.229 45.9328 129.483 45.2714 126.254 45.7705C125.609 45.8703 124.944 45.9968 124.259 46.1498C123.62 46.2958 122.962 46.4683 122.285 46.6675L126.007 70.7415ZM131.442 80.2426C130.658 80.3638 129.755 80.4798 128.734 80.5905C127.712 80.7013 126.637 80.773 125.509 80.8058C124.427 80.8314 123.314 80.8145 122.172 80.7551C121.083 80.7346 120.048 80.6112 119.069 80.3848C116.382 79.8085 114.854 78.3212 114.483 75.923L109.489 43.6169C109.339 42.6484 109.478 41.8712 109.907 41.2855C110.375 40.6465 111.045 40.0943 111.918 39.6289C113.801 38.6766 115.835 37.9371 118.02 37.4104C120.199 36.8376 122.164 36.4157 123.916 36.1447C127.514 35.5886 130.833 35.524 133.874 35.9511C136.961 36.371 139.685 37.3429 142.045 38.8668C144.445 40.3375 146.435 42.3672 148.016 44.9561C149.596 47.545 150.679 50.7303 151.264 54.512C151.834 58.2015 151.78 61.5154 151.101 64.4536C150.415 67.3458 149.18 69.8977 147.397 72.1094C145.653 74.2679 143.423 76.0294 140.706 77.3938C137.989 78.7582 134.901 79.7078 131.442 80.2426Z" fill="white"/>
<defs>
<linearGradient id="paint0_linear_1009_17872" x1="320.659" y1="108.216" x2="320.659" y2="276.415" gradientUnits="userSpaceOnUse">
<stop stop-color="#120802"/>
<stop offset="1" stop-color="#754C31"/>
</linearGradient>
<linearGradient id="paint1_linear_1009_17872" x1="251.513" y1="80.5271" x2="219.932" y2="244.135" gradientUnits="userSpaceOnUse">
<stop stop-color="#120802"/>
<stop offset="1" stop-color="#754C31"/>
</linearGradient>
<linearGradient id="paint2_linear_1009_17872" x1="280.47" y1="151.775" x2="280.47" y2="186.85" gradientUnits="userSpaceOnUse">
<stop stop-color="#B97D74"/>
<stop offset="1" stop-color="#F5BEB5"/>
</linearGradient>
<linearGradient id="paint3_linear_1009_17872" x1="251.425" y1="32.2827" x2="212.039" y2="128.259" gradientUnits="userSpaceOnUse">
<stop stop-color="#342216"/>
<stop offset="0.364583" stop-color="#412D1F"/>
<stop offset="0.744792" stop-color="#342216"/>
</linearGradient>
<linearGradient id="paint4_linear_1009_17872" x1="298.697" y1="36.6797" x2="298.697" y2="130.944" gradientUnits="userSpaceOnUse">
<stop stop-color="#342216"/>
<stop offset="0.359375" stop-color="#4A2E1C"/>
<stop offset="0.723958" stop-color="#342216"/>
</linearGradient>
</defs>
</svg>
