<svg width="311" height="984" viewBox="0 0 311 984" fill="none" xmlns="http://www.w3.org/2000/svg">
<path d="M78 786L118 793.5L110 857L118 923H94L78 786Z" fill="#F7D0C8"/>
<path d="M55.4997 481C58.9226 430.137 64.9359 414.082 69.4997 410L226.776 413.5C255.776 495 245.318 539.049 246.052 636.999C262.052 754.999 280.83 859.044 283.552 896.5C283.552 896.5 292 903 271 903C250 903 256 878 256 878C257.816 865.507 199.99 760.258 196 655.5C183 590.5 148.719 503.488 145.907 510.121C143.784 515.128 147.5 629.5 136.5 660C125.5 690.5 110.477 871.666 110 896.5C110 896.5 110.276 903 98.388 903C86.5 903 86.5 896.5 86.5 896.5C87.3557 877.348 60.3942 716.499 73.4997 629.499C76.6574 608.537 52.0768 531.863 55.4997 481Z" fill="#4D84A4"/>
<path d="M58.1445 197.582L126.043 170.908C147.383 167.028 174.542 169.291 185.453 170.908C212.128 175.354 264.507 185.7 260.627 191.52C255.777 198.795 227.89 418.253 226.677 423.103C225.465 427.952 177.5 434.457 153.929 436.44C141.703 437.468 81.4999 431.457 70.2693 427.952C59.0387 424.448 53.0002 407.957 58.1445 398.853C62.1459 391.772 70.2693 299.43 65.4194 293.368C60.5695 287.305 67.8443 258.206 70.2693 253.356C72.2092 249.476 62.9944 214.557 58.1445 197.582Z" fill="url(#paint0_linear_1158_19967)"/>
<g filter="url(#filter0_d_1158_19967)">
<path d="M102.625 169.7L124.45 157.576L194.773 150.301C200.431 155.555 211.748 168.245 211.748 176.975C211.748 185.705 176.99 232.345 159.611 254.574C177.798 299.435 169.311 327.322 162.036 327.322C156.216 327.322 149.911 289.331 147.487 270.336C145.547 280.036 134.149 315.197 124.45 327.322C118.63 309.862 133.341 271.548 141.424 254.574L102.625 169.7Z" fill="#F3CE69"/>
</g>
<path d="M151.787 271.384C153.557 264.777 160.348 260.857 166.954 262.627L240.391 282.304C247.316 284.16 251.223 291.49 248.903 298.274L215.149 396.979C213.506 401.784 209.096 405.099 204.023 405.342L131.693 408.799C123.314 409.2 116.969 401.327 119.14 393.224L151.787 271.384Z" fill="url(#paint1_linear_1158_19967)"/>
<path d="M245.69 408.55C223.38 411.46 196.58 369.844 195.367 364.994C194.155 360.144 194.153 357.719 201.428 356.507C208.702 355.294 229.315 366.207 240.227 375.906C248.957 383.666 247.71 400.871 245.69 408.55Z" fill="#E8BE4F"/>
<path d="M182.643 362.48C185.068 366.117 186.28 375.817 193.555 375.817C208.509 369.351 240.114 354.478 246.904 346.718C255.391 337.018 276.003 343.08 274.79 352.78C273.578 362.48 265.091 391.579 175.368 398.854C128.081 398.854 119.594 373.392 119.594 366.117C119.594 358.843 131.718 343.08 132.931 352.78C134.143 362.48 171.731 363.692 160.818 358.843C152.089 354.963 151.523 346.718 152.331 343.08C152.331 340.655 155.969 340.655 157.181 343.08C158.394 345.505 162.031 349.143 168.093 351.568C174.156 353.993 180.218 358.843 182.643 362.48Z" fill="#F7D0C8"/>
<path d="M257.816 186.67C219.987 183.76 235.996 253.76 242.058 288.517C245.22 316.404 175.369 361.266 200.831 364.904C221.201 367.814 242.06 408.552 245.694 408.552C249.328 408.553 277.943 374.603 280.853 369.754C284.49 363.691 278.428 320.042 277.215 301.855C276.003 283.668 289.34 190.307 257.816 186.67Z" fill="#F4D06F"/>
<path d="M138.663 175.064L135.375 114.779L182.507 104.914L179.219 163.007L150.72 217.812L138.663 175.064Z" fill="url(#paint2_linear_1158_19967)"/>
<path d="M138.817 125.973C141.781 110.62 148.26 95.1067 141.594 81.2865C135.112 73.7684 112.122 65.9401 102.894 87.4778C93.6081 109.149 99.7982 120.882 99.7982 138.562C99.7982 158.686 105.99 166.426 76.5807 185.002C55.4365 198.357 75.0344 245.373 82.7727 225.25C90.511 205.128 107.294 207.651 132.308 183.456C142.358 173.734 135.113 145.164 138.817 125.973Z" fill="url(#paint3_linear_1158_19967)"/>
<ellipse cx="109.654" cy="91.7585" rx="8.7688" ry="18.6337" transform="rotate(-8.89629 109.654 91.7585)" fill="#F5BEB5"/>
<path d="M179.22 150.956C179.22 135.172 171.914 94.3242 179.221 81.9017C185.433 75.6905 212.763 70.941 219.778 92.863C228.547 120.265 217.588 130.132 212.103 146.572C205.585 166.107 197.128 176.472 221.968 206.857C234.475 222.157 219.778 258.374 216.486 240.836C203.515 205.129 200.419 232.993 179.219 209.049C171.36 200.173 179.22 170.686 179.22 150.956Z" fill="url(#paint4_linear_1158_19967)"/>
<ellipse cx="202.987" cy="91.761" rx="10.961" ry="18.6337" transform="rotate(13.4592 202.987 91.761)" fill="#F5BEB5"/>
<path d="M151.821 141.09C125.985 141.09 110.013 105.371 106.881 85.189L100.305 55.49L153.544 16.1348L209.915 31.2714L205.53 85.189C200.311 101.335 177.658 141.09 151.821 141.09Z" fill="#FFD4CB"/>
<path d="M148.192 95.959C148.192 96.776 147.421 98.5353 146.526 99.9437C146.231 100.408 146.227 101.011 146.557 101.452L148.192 103.632" stroke="#2A190D" stroke-width="1.5" stroke-linecap="round"/>
<path d="M158.41 113.697H143.058C142.047 113.697 141.305 114.653 141.668 115.597C142.834 118.622 145.249 122.179 150.027 122.179C154.825 122.179 158.195 118.591 159.696 115.557C160.144 114.651 159.421 113.697 158.41 113.697Z" fill="url(#paint5_linear_1158_19967)"/>
<mask id="mask0_1158_19967" style="mask-type:alpha" maskUnits="userSpaceOnUse" x="141" y="112" width="19" height="11">
<path d="M150.027 122.173C154.924 122.173 158.333 118.437 159.786 115.365C160.189 114.513 159.566 113.601 158.628 113.5L150.448 112.615C150.332 112.602 150.215 112.603 150.099 112.616L142.819 113.483C141.889 113.593 141.264 114.5 141.588 115.379C142.721 118.448 145.137 122.173 150.027 122.173Z" fill="#D9D9D9"/>
</mask>
<g mask="url(#mask0_1158_19967)">
<rect x="137.102" y="108.775" width="25.8452" height="7.82471" fill="white" stroke="#2A190D" stroke-width="1.5"/>
</g>
<path d="M150.029 122.174C155.011 122.174 158.453 118.307 159.862 115.207C160.226 114.406 159.687 113.558 158.814 113.452C157.223 113.257 154.383 113.008 150.029 112.954C145.803 112.902 143.45 113.155 142.214 113.378C141.493 113.509 141.123 114.203 141.359 114.898C142.425 118.043 144.881 122.174 150.029 122.174Z" stroke="#2A190D" stroke-width="1.5" stroke-linecap="round"/>
<ellipse cx="134.28" cy="90.6754" rx="3.2883" ry="4.3844" fill="#2A190D"/>
<ellipse cx="132" cy="101.459" rx="6" ry="4.5" fill="#E1745F" fill-opacity="0.8"/>
<ellipse cx="171" cy="101.459" rx="6" ry="4.5" fill="#E1745F" fill-opacity="0.8"/>
<ellipse cx="169.359" cy="90.6754" rx="3.2883" ry="4.3844" fill="#2A190D"/>
<path d="M141.956 67.6534C136.841 66.5573 129.293 66.6446 122.227 72.4774" stroke="#2A190D" stroke-width="1.5" stroke-linecap="round"/>
<path d="M185.23 72.0262C180.214 66.6422 172.94 65.43 163.962 68.6463" stroke="#2A190D" stroke-width="1.5" stroke-linecap="round"/>
<path d="M144.633 22.8943C150.922 21.8136 179.219 25.4896 179.219 35.8661C179.218 35.866 179.218 35.8659 179.217 35.8658L163.499 32.6223C153.978 31.3923 142.59 31.1633 138.345 32.6226C130.8 35.2169 139.393 27.218 144.633 22.8943Z" fill="#0A0401"/>
<path d="M205.001 98.4577C180.643 101.119 176.708 38.1468 171.295 30.1641C166.965 23.7782 164.923 28.8098 162.215 31.4711C154.998 27.0364 147.477 12.6025 171.294 6.21631C201.064 -1.76644 205.286 26.4454 216.501 43.457C226.471 58.581 229.359 95.7968 205.001 98.4577Z" fill="url(#paint6_linear_1158_19967)"/>
<path d="M134.76 38.1581C155.845 17.2284 160.806 29.8024 162.91 31.8914L172.642 6.82205C109.506 -24.5135 88.7309 60.6928 90.6429 88.5272C91.5287 101.422 109.473 107.902 114.496 102.957C145.231 72.6916 118.976 53.8259 134.76 38.1581Z" fill="url(#paint7_linear_1158_19967)"/>
<circle cx="201.895" cy="111.496" r="5.4805" fill="white"/>
<circle cx="108.559" cy="111.496" r="5.4805" fill="white"/>
<path d="M50.4021 204.859C56.222 193.219 61.7186 195.968 63.7393 198.797C69.8017 243.658 81.9265 335.806 81.9265 345.506C81.9265 355.206 76.699 370.129 66.9992 377C11.0299 395.656 3.00137 325.5 33.4992 312.5C35.7299 311.549 40.7023 259.421 43.1273 259.421C45.5522 259.421 43.1273 219.409 50.4021 204.859Z" fill="#EAC35B"/>
<path d="M58.1445 197.582L126.043 170.908C147.383 167.028 174.542 169.291 185.453 170.908C212.128 175.354 264.507 185.7 260.627 191.52C255.777 198.795 227.89 418.253 226.677 423.103C225.465 427.952 177.5 434.457 153.929 436.44C141.703 437.468 81.4999 431.457 70.2693 427.952C59.0387 424.448 53.0002 407.957 58.1445 398.853C62.1459 391.772 70.2693 299.43 65.4194 293.368C60.5695 287.305 67.8443 258.206 70.2693 253.356C72.2092 249.476 62.9944 214.557 58.1445 197.582Z" fill="url(#paint8_linear_1158_19967)"/>
<g filter="url(#filter1_d_1158_19967)">
<path d="M103 180.4C103 180.4 113.5 175 124.825 168.275C136.149 161.55 195.148 161 195.148 161C200.806 166.254 212.123 178.945 212.123 187.674C212.123 196.404 157.561 254.546 159.986 265.273C162.411 276 169.686 338.021 162.411 338.021C156.591 338.021 150.286 300.03 147.862 281.035C145.922 290.735 134.524 325.896 124.825 338.021C119.005 320.562 143 274.5 141.799 265.273C140.598 256.046 103 180.4 103 180.4Z" fill="#F3CE69"/>
</g>
<path d="M245.69 408.55C223.38 411.46 196.58 369.844 195.367 364.994C194.155 360.144 194.153 357.719 201.428 356.507C208.702 355.294 229.315 366.207 240.227 375.906C248.957 383.666 247.71 400.871 245.69 408.55Z" fill="#E8BE4F"/>
<path d="M257.816 186.674C219.987 183.764 235.996 253.764 242.058 288.521C245.22 316.408 175.369 361.27 200.831 364.908C221.201 367.817 242.06 408.556 245.694 408.556C249.328 408.557 277.943 374.607 280.853 369.757C284.49 363.695 278.428 320.046 277.215 301.859C276.003 283.672 289.34 190.311 257.816 186.674Z" fill="#F4D06F"/>
<path d="M138.663 175.064L135.375 114.779L182.507 104.914L179.219 163.007C179.219 163.007 162.777 236 150.72 236C138.663 236 138.663 175.064 138.663 175.064Z" fill="url(#paint9_linear_1158_19967)"/>
<ellipse cx="109.654" cy="91.7585" rx="8.7688" ry="18.6337" transform="rotate(-8.89629 109.654 91.7585)" fill="#F5BEB5"/>
<path d="M179.22 150.956C179.22 135.172 171.914 94.3242 179.221 81.9017C185.433 75.6905 212.763 70.941 219.778 92.863C228.547 120.265 217.588 130.132 212.103 146.572C205.585 166.107 197.128 176.472 221.968 206.857C234.475 222.157 219.778 258.374 216.486 240.836C203.515 205.129 200.419 232.993 179.219 209.049C171.36 200.173 179.22 170.686 179.22 150.956Z" fill="url(#paint10_linear_1158_19967)"/>
<ellipse cx="202.987" cy="91.761" rx="10.961" ry="18.6337" transform="rotate(13.4592 202.987 91.761)" fill="#F5BEB5"/>
<path d="M151.821 141.09C125.985 141.09 110.013 105.371 106.881 85.189L100.305 55.49L153.544 16.1348L209.915 31.2714L205.53 85.189C200.311 101.335 177.658 141.09 151.821 141.09Z" fill="#FFD4CB"/>
<path d="M148.192 95.959C148.192 96.776 147.421 98.5353 146.526 99.9437C146.231 100.408 146.227 101.011 146.557 101.452L148.192 103.632" stroke="#2A190D" stroke-width="1.5" stroke-linecap="round"/>
<path d="M158.41 113.697H143.058C142.047 113.697 141.305 114.653 141.668 115.597C142.834 118.622 145.249 122.179 150.027 122.179C154.825 122.179 158.195 118.591 159.696 115.557C160.144 114.651 159.421 113.697 158.41 113.697Z" fill="url(#paint11_linear_1158_19967)"/>
<mask id="mask1_1158_19967" style="mask-type:alpha" maskUnits="userSpaceOnUse" x="141" y="112" width="19" height="11">
<path d="M150.027 122.173C154.924 122.173 158.333 118.437 159.786 115.365C160.189 114.513 159.566 113.601 158.628 113.5L150.448 112.615C150.332 112.602 150.215 112.603 150.099 112.616L142.819 113.483C141.889 113.593 141.264 114.5 141.588 115.379C142.721 118.448 145.137 122.173 150.027 122.173Z" fill="#D9D9D9"/>
</mask>
<g mask="url(#mask1_1158_19967)">
<rect x="137.102" y="108.775" width="25.8452" height="7.82471" fill="white" stroke="#2A190D" stroke-width="1.5"/>
</g>
<path d="M150.029 122.174C155.011 122.174 158.453 118.307 159.862 115.207C160.226 114.406 159.687 113.558 158.814 113.452C157.223 113.257 154.383 113.008 150.029 112.954C145.803 112.902 143.45 113.155 142.214 113.378C141.493 113.509 141.123 114.203 141.359 114.898C142.425 118.043 144.881 122.174 150.029 122.174Z" stroke="#2A190D" stroke-width="1.5" stroke-linecap="round"/>
<ellipse cx="134.28" cy="90.6754" rx="3.2883" ry="4.3844" fill="#2A190D"/>
<ellipse cx="132" cy="101.459" rx="6" ry="4.5" fill="#E1745F" fill-opacity="0.8"/>
<ellipse cx="171" cy="101.459" rx="6" ry="4.5" fill="#E1745F" fill-opacity="0.8"/>
<ellipse cx="169.359" cy="90.6754" rx="3.2883" ry="4.3844" fill="#2A190D"/>
<path d="M141.956 67.6534C136.841 66.5573 129.293 66.6446 122.227 72.4774" stroke="#2A190D" stroke-width="1.5" stroke-linecap="round"/>
<path d="M185.23 72.0262C180.214 66.6422 172.94 65.43 163.962 68.6463" stroke="#2A190D" stroke-width="1.5" stroke-linecap="round"/>
<path d="M144.633 22.8943C150.922 21.8136 179.219 25.4896 179.219 35.8661C179.218 35.866 179.218 35.8659 179.217 35.8658L163.499 32.6223C153.978 31.3923 142.59 31.1633 138.345 32.6226C130.8 35.2169 139.393 27.218 144.633 22.8943Z" fill="#0A0401"/>
<path d="M204.993 98.4577C180.635 101.119 176.7 38.1468 171.287 30.1641C166.957 23.7782 164.916 28.8098 162.207 31.4711C154.99 27.0364 147.469 12.6025 171.286 6.21631C201.056 -1.76644 205.278 26.4454 216.493 43.457C226.463 58.581 229.351 95.7968 204.993 98.4577Z" fill="url(#paint12_linear_1158_19967)"/>
<path d="M134.76 38.1581C155.845 17.2284 160.806 29.8024 162.91 31.8914L172.642 6.82205C109.506 -24.5135 88.7309 60.6928 90.6429 88.5272C91.5287 101.422 109.473 107.902 114.496 102.957C145.231 72.6916 118.976 53.8259 134.76 38.1581Z" fill="url(#paint13_linear_1158_19967)"/>
<circle cx="201.887" cy="111.496" r="5.4805" fill="white"/>
<circle cx="108.551" cy="111.496" r="5.4805" fill="white"/>
<path d="M115.495 857.016C113.683 907.191 126.485 952.578 126.95 956.04C127.115 957.275 126.945 976.766 120.465 978.016C107.171 980.579 80.3647 947.122 77.9845 939.516C77.7211 938.674 77.8797 935.923 78.2147 931.632L79.9849 871.016L72.1347 803.923C69.9663 788.625 67.959 773.633 66.9973 760.016C64.522 724.964 67.9976 690.501 69.5002 689.501C71.0028 688.501 71.4982 705.016 93.9982 705.516C116.498 706.016 129 698.5 129 698.5C133.767 700.721 118.091 785.099 115.495 857.016Z" fill="#232323"/>
<path d="M278.999 865.502C285.444 915.294 297.176 946.331 298.202 949.67C298.568 950.861 285.186 975.206 278.999 977.502C266.305 982.212 250.785 948.516 247.189 941.403C246.956 940.942 246.993 939.722 247.189 937.852L247.189 870.002L228.557 809.804C223.366 794.858 218.371 780.068 214.999 766.002C206.806 731.831 198.148 700.706 199.499 697.501C199.499 697.501 208.499 712.002 232.499 707.502C256.499 703.002 253.499 693.502 253.499 693.502C256.276 694.274 269.423 720.37 270.656 755.503C271.672 784.47 274.824 833.25 278.999 865.502Z" fill="#232323"/>
<path d="M287.498 300.098C283.27 300.55 275.255 321.123 268.717 320.161C250.453 319.493 182.137 308.219 174.948 307.16C163.366 305.455 146.305 310.89 145.982 320.647C145.658 330.404 180.506 338.415 249.49 342.095C291.983 348.352 302.573 354.027 303.998 346.893C306.493 334.394 301.493 313.754 296.499 311.097C294.175 309.861 300.998 298.655 287.498 300.098Z" fill="#F7D0C8"/>
<path d="M11.1001 344.66C13.3613 345.058 22.1944 364.833 25.3073 363.845C34.4702 363.036 66.7195 351.541 70.1428 350.454C75.6579 348.704 85.6144 353.794 88.0294 363.204C90.4444 372.614 74.5153 380.658 40.1739 384.833C19.94 391.254 15.8468 396.826 13.4749 389.956C9.31926 377.919 7.11026 357.961 9.04498 355.353C9.94525 354.139 3.8805 343.389 11.1001 344.66Z" fill="#F7D0C8"/>
<rect x="8.70524" y="286.111" width="271" height="161.908" rx="7" transform="rotate(-8.78855 8.70524 286.111)" fill="white"/>
<path d="M49.6327 405.21L106.831 396.367L104.579 381.803L64.9986 387.922L61.8027 367.251L98.3296 361.604L96.0779 347.04L59.5511 352.688L56.3553 332.016L95.8184 325.915L93.5667 311.352L36.4862 320.176L49.6327 405.21ZM177.045 298.446L159.545 301.151L167.898 355.178L167.076 355.305L121.609 307.016L106.106 309.413L119.252 394.447L136.87 391.723L128.517 337.696L129.222 337.587L174.923 385.84L190.192 383.479L177.045 298.446ZM233.268 376.819C259.224 372.806 272.425 354.35 268.253 327.757C264.217 301.263 246.077 287.773 220.473 291.731L190.171 296.416L203.318 381.45L233.268 376.819ZM218.593 363.575L210.131 308.843L221.876 307.028C237.967 304.54 247.712 311.572 250.636 330.481C253.587 349.566 246.428 359.271 230.22 361.777L218.593 363.575Z" fill="#2F2B45"/>
<rect x="8.70524" y="286.111" width="271" height="161.908" rx="7" transform="rotate(-8.78855 8.70524 286.111)" stroke="#2F2B45" stroke-width="10"/>
<path d="M284 321.598C283.997 317.91 288.496 318.098 298.996 317.598C299.829 318.431 302.74 323.629 298.996 324.098C295 324.598 284.005 326.598 284 321.598Z" fill="#F7D0C8"/>
<path d="M26.5114 361.275C25.5384 357.884 21.9978 359.09 13.4874 361.041C13.0431 361.999 12.0957 367.446 15.2072 367.017C18.528 366.559 27.8307 365.873 26.5114 361.275Z" fill="#F7D0C8"/>
<path d="M282 329.598C281.997 325.91 286.496 326.098 296.996 325.598C297.829 326.431 300.74 331.629 296.996 332.098C293 332.598 282.005 334.598 282 329.598Z" fill="#F7D0C8"/>
<path d="M289 343.098C288.997 339.41 290.996 340.098 301.496 339.598C302.329 340.431 305.24 345.629 301.496 346.098C297.5 346.598 289.005 348.098 289 343.098Z" fill="#F7D0C8"/>
<path d="M27.6491 381.16C26.6471 377.667 25.0951 378.819 15.8248 380.974C15.3272 381.972 14.2115 387.623 17.5962 387.129C21.2087 386.602 29.0078 385.896 27.6491 381.16Z" fill="#F7D0C8"/>
<path d="M285 336.598C284.997 332.91 289.496 333.098 299.996 332.598C300.829 333.431 303.74 338.629 299.996 339.098C296 339.598 285.005 341.598 285 336.598Z" fill="#F7D0C8"/>
<path d="M28.6989 373.967C27.7259 370.575 24.1853 371.781 15.6749 373.733C15.2306 374.69 14.2832 380.138 17.3947 379.709C20.7155 379.251 30.0182 378.565 28.6989 373.967Z" fill="#F7D0C8"/>
<defs>
<filter id="filter0_d_1158_19967" x="96.433" y="150.301" width="121.509" height="189.406" filterUnits="userSpaceOnUse" color-interpolation-filters="sRGB">
<feFlood flood-opacity="0" result="BackgroundImageFix"/>
<feColorMatrix in="SourceAlpha" type="matrix" values="0 0 0 0 0 0 0 0 0 0 0 0 0 0 0 0 0 0 127 0" result="hardAlpha"/>
<feOffset dy="6.19202"/>
<feGaussianBlur stdDeviation="3.09601"/>
<feComposite in2="hardAlpha" operator="out"/>
<feColorMatrix type="matrix" values="0 0 0 0 0.575 0 0 0 0 0.463459 0 0 0 0 0.162917 0 0 0 0.2 0"/>
<feBlend mode="normal" in2="BackgroundImageFix" result="effect1_dropShadow_1158_19967"/>
<feBlend mode="normal" in="SourceGraphic" in2="effect1_dropShadow_1158_19967" result="shape"/>
</filter>
<filter id="filter1_d_1158_19967" x="96.808" y="161" width="121.509" height="189.406" filterUnits="userSpaceOnUse" color-interpolation-filters="sRGB">
<feFlood flood-opacity="0" result="BackgroundImageFix"/>
<feColorMatrix in="SourceAlpha" type="matrix" values="0 0 0 0 0 0 0 0 0 0 0 0 0 0 0 0 0 0 127 0" result="hardAlpha"/>
<feOffset dy="6.19202"/>
<feGaussianBlur stdDeviation="3.09601"/>
<feComposite in2="hardAlpha" operator="out"/>
<feColorMatrix type="matrix" values="0 0 0 0 0.575 0 0 0 0 0.463459 0 0 0 0 0.162917 0 0 0 0.2 0"/>
<feBlend mode="normal" in2="BackgroundImageFix" result="effect1_dropShadow_1158_19967"/>
<feBlend mode="normal" in="SourceGraphic" in2="effect1_dropShadow_1158_19967" result="shape"/>
</filter>
<linearGradient id="paint0_linear_1158_19967" x1="158.689" y1="168.766" x2="158.689" y2="437.478" gradientUnits="userSpaceOnUse">
<stop stop-color="#F4D06F"/>
<stop offset="1" stop-color="#EEC452"/>
</linearGradient>
<linearGradient id="paint1_linear_1158_19967" x1="204.092" y1="272.578" x2="163.849" y2="422.765" gradientUnits="userSpaceOnUse">
<stop stop-color="white"/>
<stop offset="0.0001" stop-color="#F1F1F1"/>
<stop offset="0.119792" stop-color="#D9D9D9"/>
<stop offset="1" stop-color="#787878"/>
</linearGradient>
<linearGradient id="paint2_linear_1158_19967" x1="158.941" y1="120.259" x2="158.941" y2="155.335" gradientUnits="userSpaceOnUse">
<stop stop-color="#B97D74"/>
<stop offset="1" stop-color="#F5BEB5"/>
</linearGradient>
<linearGradient id="paint3_linear_1158_19967" x1="128.241" y1="49.01" x2="96.6607" y2="212.618" gradientUnits="userSpaceOnUse">
<stop stop-color="#120802"/>
<stop offset="1" stop-color="#754C31"/>
</linearGradient>
<linearGradient id="paint4_linear_1158_19967" x1="199.131" y1="76.6992" x2="199.131" y2="244.898" gradientUnits="userSpaceOnUse">
<stop stop-color="#120802"/>
<stop offset="1" stop-color="#754C31"/>
</linearGradient>
<linearGradient id="paint5_linear_1158_19967" x1="150.027" y1="114.793" x2="150.027" y2="122.179" gradientUnits="userSpaceOnUse">
<stop stop-color="#CE3D21"/>
<stop offset="1" stop-color="#F2A99B"/>
</linearGradient>
<linearGradient id="paint6_linear_1158_19967" x1="191.281" y1="5.16406" x2="191.281" y2="99.4286" gradientUnits="userSpaceOnUse">
<stop stop-color="#342216"/>
<stop offset="0.359375" stop-color="#4A2E1C"/>
<stop offset="0.723958" stop-color="#342216"/>
</linearGradient>
<linearGradient id="paint7_linear_1158_19967" x1="129.894" y1="0.785154" x2="90.5086" y2="96.7615" gradientUnits="userSpaceOnUse">
<stop stop-color="#342216"/>
<stop offset="0.364583" stop-color="#412D1F"/>
<stop offset="0.744792" stop-color="#342216"/>
</linearGradient>
<linearGradient id="paint8_linear_1158_19967" x1="158.689" y1="168.766" x2="158.689" y2="437.478" gradientUnits="userSpaceOnUse">
<stop stop-color="#F4D06F"/>
<stop offset="1" stop-color="#EEC452"/>
</linearGradient>
<linearGradient id="paint9_linear_1158_19967" x1="158.941" y1="120.259" x2="158.941" y2="155.335" gradientUnits="userSpaceOnUse">
<stop stop-color="#B97D74"/>
<stop offset="1" stop-color="#F5BEB5"/>
</linearGradient>
<linearGradient id="paint10_linear_1158_19967" x1="199.131" y1="76.6992" x2="199.131" y2="244.898" gradientUnits="userSpaceOnUse">
<stop stop-color="#120802"/>
<stop offset="1" stop-color="#754C31"/>
</linearGradient>
<linearGradient id="paint11_linear_1158_19967" x1="150.027" y1="114.793" x2="150.027" y2="122.179" gradientUnits="userSpaceOnUse">
<stop stop-color="#CE3D21"/>
<stop offset="1" stop-color="#F2A99B"/>
</linearGradient>
<linearGradient id="paint12_linear_1158_19967" x1="191.273" y1="5.16406" x2="191.273" y2="99.4286" gradientUnits="userSpaceOnUse">
<stop stop-color="#342216"/>
<stop offset="0.359375" stop-color="#4A2E1C"/>
<stop offset="0.723958" stop-color="#342216"/>
</linearGradient>
<linearGradient id="paint13_linear_1158_19967" x1="129.894" y1="0.785154" x2="90.5086" y2="96.7615" gradientUnits="userSpaceOnUse">
<stop stop-color="#342216"/>
<stop offset="0.364583" stop-color="#412D1F"/>
<stop offset="0.744792" stop-color="#342216"/>
</linearGradient>
</defs>
</svg>
