<svg width="431" height="890" viewBox="0 0 431 890" fill="none" xmlns="http://www.w3.org/2000/svg">
<g clip-path="url(#clip0_123_189)">
<rect x="19" y="19" width="393" height="852" rx="60" fill="white"/>
<rect x="140" y="858" width="152" height="5" rx="2.5" fill="black"/>
<rect opacity="0.35" x="352.7" y="42.1" width="24" height="12" rx="3.8" stroke="black"/>
<path opacity="0.4" d="M378.1 46.2667V50.2667C378.905 49.9279 379.428 49.1398 379.428 48.2667C379.428 47.3935 378.905 46.6054 378.1 46.2667Z" fill="black"/>
<rect x="354.2" y="43.6" width="21" height="9" rx="2.5" fill="black"/>
<path fill-rule="evenodd" clip-rule="evenodd" d="M336.271 44.6206C338.758 44.6207 341.15 45.5257 342.953 47.1486C343.089 47.2739 343.306 47.2723 343.439 47.145L344.737 45.905C344.804 45.8404 344.842 45.753 344.842 45.662C344.841 45.5711 344.802 45.4841 344.734 45.4203C340.003 41.1266 332.539 41.1266 327.808 45.4203C327.74 45.484 327.701 45.571 327.7 45.662C327.699 45.7529 327.737 45.8404 327.805 45.905L329.103 47.145C329.236 47.2725 329.453 47.2741 329.589 47.1486C331.392 45.5256 333.784 44.6206 336.271 44.6206ZM336.27 48.7627C337.627 48.7626 338.936 49.2649 339.942 50.1719C340.078 50.3006 340.292 50.2979 340.425 50.1656L341.712 48.8708C341.78 48.8028 341.818 48.7107 341.817 48.615C341.816 48.5192 341.776 48.4278 341.707 48.3613C338.643 45.524 333.898 45.524 330.835 48.3613C330.765 48.4278 330.726 48.5193 330.725 48.615C330.724 48.7108 330.762 48.8029 330.83 48.8708L332.117 50.1656C332.249 50.2979 332.464 50.3006 332.6 50.1719C333.605 49.2655 334.913 48.7633 336.27 48.7627ZM338.792 51.5045C338.794 51.6079 338.756 51.7076 338.689 51.7801L336.513 54.1893C336.449 54.2601 336.362 54.3 336.271 54.3C336.18 54.3 336.093 54.2601 336.029 54.1893L333.852 51.7801C333.785 51.7076 333.748 51.6079 333.75 51.5045C333.752 51.4011 333.793 51.3031 333.863 51.2338C335.253 49.9443 337.289 49.9443 338.679 51.2338C338.749 51.3032 338.79 51.4011 338.792 51.5045Z" fill="black"/>
<path fill-rule="evenodd" clip-rule="evenodd" d="M320.2 43.225C320.2 42.6037 319.722 42.1 319.133 42.1H318.067C317.478 42.1 317 42.6037 317 43.225V52.975C317 53.5963 317.478 54.1 318.067 54.1H319.133C319.722 54.1 320.2 53.5963 320.2 52.975V43.225ZM312.767 44.5H313.833C314.422 44.5 314.9 45.0158 314.9 45.652V52.948C314.9 53.5842 314.422 54.1 313.833 54.1H312.767C312.178 54.1 311.7 53.5842 311.7 52.948V45.652C311.7 45.0158 312.178 44.5 312.767 44.5ZM308.433 47.1H307.367C306.778 47.1 306.3 47.6223 306.3 48.2667V52.9333C306.3 53.5777 306.778 54.1 307.367 54.1H308.433C309.022 54.1 309.5 53.5777 309.5 52.9333V48.2667C309.5 47.6223 309.022 47.1 308.433 47.1ZM303.133 49.5H302.067C301.478 49.5 301 50.0149 301 50.65V52.95C301 53.5851 301.478 54.1 302.067 54.1H303.133C303.722 54.1 304.2 53.5851 304.2 52.95V50.65C304.2 50.0149 303.722 49.5 303.133 49.5Z" fill="black"/>
<path d="M70.8877 54.5H73.021V42.522H70.8877L67.7583 44.7217V46.7305L70.7383 44.6304H70.8877V54.5ZM80.6826 54.7407C81.568 54.7407 82.3455 54.5885 83.0151 54.2842C83.6903 53.9798 84.216 53.5592 84.5923 53.0225C84.9686 52.4801 85.1567 51.8604 85.1567 51.1631V51.1465C85.1567 50.3164 84.8883 49.6523 84.3516 49.1543C83.8148 48.6507 83.1037 48.3574 82.2183 48.2744V48.2329C82.6997 48.1333 83.1286 47.959 83.5049 47.71C83.8867 47.4609 84.1855 47.1483 84.4014 46.772C84.6227 46.3901 84.7334 45.953 84.7334 45.4604V45.4438C84.7334 44.813 84.5646 44.2624 84.2271 43.792C83.895 43.3216 83.4246 42.9536 82.8159 42.688C82.2072 42.4168 81.4906 42.2812 80.666 42.2812C79.8581 42.2812 79.147 42.4251 78.5327 42.7129C77.924 42.9951 77.437 43.3936 77.0718 43.9082C76.7121 44.4173 76.5018 45.0177 76.4409 45.7095L76.4326 45.8091H78.4165L78.4248 45.7261C78.4635 45.3719 78.5798 45.0648 78.7734 44.8047C78.9671 44.5391 79.2244 44.3343 79.5454 44.1904C79.8719 44.0465 80.2454 43.9746 80.666 43.9746C81.0921 43.9746 81.4546 44.0438 81.7534 44.1821C82.0578 44.3205 82.2874 44.5197 82.4424 44.7798C82.6029 45.0399 82.6831 45.3553 82.6831 45.7261V45.7427C82.6831 46.0913 82.5918 46.4012 82.4092 46.6724C82.2266 46.938 81.9692 47.1483 81.6372 47.3032C81.3052 47.4582 80.9206 47.5356 80.4834 47.5356H79.1055V49.1294H80.5249C81.2941 49.1294 81.8973 49.2982 82.3345 49.6357C82.7716 49.9733 82.9902 50.4575 82.9902 51.0884V51.105C82.9902 51.4757 82.8934 51.8022 82.6997 52.0845C82.506 52.3667 82.2349 52.5881 81.8862 52.7485C81.5431 52.909 81.1419 52.9893 80.6826 52.9893C80.2122 52.9893 79.8 52.9173 79.4458 52.7734C79.0916 52.624 78.8094 52.4193 78.5991 52.1592C78.3888 51.8936 78.2643 51.592 78.2256 51.2544L78.2173 51.1631H76.1753L76.1836 51.2627C76.2389 51.9489 76.4548 52.5549 76.8311 53.0806C77.2129 53.6007 77.7303 54.0075 78.3833 54.3008C79.0418 54.5941 79.8083 54.7407 80.6826 54.7407ZM89 52.8896C89.3818 52.8896 89.6973 52.7651 89.9463 52.5161C90.1953 52.2616 90.3198 51.9517 90.3198 51.5864C90.3198 51.2157 90.1953 50.9058 89.9463 50.6567C89.6973 50.4022 89.3818 50.2749 89 50.2749C88.6237 50.2749 88.3083 50.4022 88.0537 50.6567C87.8047 50.9058 87.6802 51.2157 87.6802 51.5864C87.6802 51.9517 87.8047 52.2616 88.0537 52.5161C88.3083 52.7651 88.6237 52.8896 89 52.8896ZM89 46.7305C89.3818 46.7305 89.6973 46.606 89.9463 46.3569C90.1953 46.1024 90.3198 45.7925 90.3198 45.4272C90.3198 45.0565 90.1953 44.7466 89.9463 44.4976C89.6973 44.243 89.3818 44.1157 89 44.1157C88.6237 44.1157 88.3083 44.243 88.0537 44.4976C87.8047 44.7466 87.6802 45.0565 87.6802 45.4272C87.6802 45.7925 87.8047 46.1024 88.0537 46.3569C88.3083 46.606 88.6237 46.7305 89 46.7305ZM95.9893 54.5H98.1226V42.522H95.9893L92.8599 44.7217V46.7305L95.8398 44.6304H95.9893V54.5ZM105.784 54.7407C106.67 54.7407 107.447 54.5885 108.117 54.2842C108.792 53.9798 109.318 53.5592 109.694 53.0225C110.07 52.4801 110.258 51.8604 110.258 51.1631V51.1465C110.258 50.3164 109.99 49.6523 109.453 49.1543C108.916 48.6507 108.205 48.3574 107.32 48.2744V48.2329C107.801 48.1333 108.23 47.959 108.606 47.71C108.988 47.4609 109.287 47.1483 109.503 46.772C109.724 46.3901 109.835 45.953 109.835 45.4604V45.4438C109.835 44.813 109.666 44.2624 109.329 43.792C108.997 43.3216 108.526 42.9536 107.917 42.688C107.309 42.4168 106.592 42.2812 105.768 42.2812C104.96 42.2812 104.249 42.4251 103.634 42.7129C103.026 42.9951 102.539 43.3936 102.173 43.9082C101.814 44.4173 101.603 45.0177 101.542 45.7095L101.534 45.8091H103.518L103.526 45.7261C103.565 45.3719 103.681 45.0648 103.875 44.8047C104.069 44.5391 104.326 44.3343 104.647 44.1904C104.973 44.0465 105.347 43.9746 105.768 43.9746C106.194 43.9746 106.556 44.0438 106.855 44.1821C107.159 44.3205 107.389 44.5197 107.544 44.7798C107.704 45.0399 107.785 45.3553 107.785 45.7261V45.7427C107.785 46.0913 107.693 46.4012 107.511 46.6724C107.328 46.938 107.071 47.1483 106.739 47.3032C106.407 47.4582 106.022 47.5356 105.585 47.5356H104.207V49.1294H105.626C106.396 49.1294 106.999 49.2982 107.436 49.6357C107.873 49.9733 108.092 50.4575 108.092 51.0884V51.105C108.092 51.4757 107.995 51.8022 107.801 52.0845C107.608 52.3667 107.336 52.5881 106.988 52.7485C106.645 52.909 106.243 52.9893 105.784 52.9893C105.314 52.9893 104.902 52.9173 104.547 52.7734C104.193 52.624 103.911 52.4193 103.701 52.1592C103.49 51.8936 103.366 51.592 103.327 51.2544L103.319 51.1631H101.277L101.285 51.2627C101.34 51.9489 101.556 52.5549 101.933 53.0806C102.314 53.6007 102.832 54.0075 103.485 54.3008C104.143 54.5941 104.91 54.7407 105.784 54.7407Z" fill="black"/>
</g>
<rect x="151.5" y="30.33" width="125" height="36.67" rx="18.335" fill="black"/>
<rect x="12" y="12" width="407" height="866" rx="67" stroke="black" stroke-width="14"/>
<rect x="2.5" y="2.5" width="426" height="885" rx="76.5" stroke="#B8AFE6" stroke-width="5"/>
<defs>
<clipPath id="clip0_123_189">
<rect x="19" y="19" width="393" height="852" rx="60" fill="white"/>
</clipPath>
</defs>
</svg>
