<svg width="311" height="991" viewBox="0 0 311 991" fill="none" xmlns="http://www.w3.org/2000/svg">
<circle cx="175.712" cy="23.5423" r="22" transform="rotate(4.17209 175.712 23.5423)" fill="#382619"/>
<circle cx="125" cy="716.006" r="1" fill="white"/>
<path d="M71.9989 519.006C75.4218 468.143 70.9356 449.087 75.4994 445.006L235.499 429.506C264.499 511.006 218.265 566.056 218.999 664.006C234.999 782.006 201.277 892.05 203.999 929.506H179.999C181.815 917.014 176.99 801.764 172.999 697.006C159.999 632.006 157.442 519.494 154.63 526.127C152.507 531.134 152.999 665.006 141.999 695.506C130.999 726.006 135.476 904.672 134.999 929.506H114.999C115.855 910.354 81.8936 751.006 94.9991 664.006C98.1568 643.044 68.576 569.869 71.9989 519.006Z" fill="#F5BFB6"/>
<path d="M175.487 174.394C176.635 158.652 172.32 117.38 180.512 105.522C187.158 99.7794 219.773 58.4294 225.174 80.8037C231.926 108.771 215.267 156.416 208.601 172.413C200.679 191.422 227.415 196.886 249.978 228.997C261.339 245.167 246.25 270.373 244.242 252.643C233.904 216.087 155.787 265.188 136.386 239.766C129.193 230.341 174.051 194.071 175.487 174.394Z" fill="url(#paint0_linear_1030_18341)"/>
<path d="M138.747 146.664C142.82 131.567 150.41 116.567 144.767 102.298C138.849 94.3283 131.368 88.9008 120.597 109.71C109.759 130.648 101.792 140.306 100.505 157.939C99.0414 178.009 103.064 184.622 72.3807 201.009C50.321 212.791 66.4464 261.107 75.6282 241.601C84.8099 222.095 101.365 225.832 128.072 203.521C138.803 194.556 133.656 165.535 138.747 146.664Z" fill="url(#paint1_linear_1030_18341)"/>
<path d="M76.5146 205.596C80.5146 200.678 141.008 189.099 141.008 189.099C162.511 189.1 155.061 193.458 179.008 189.097C192.493 186.642 204.165 185.915 209.854 185.573C210.492 185.115 211.206 184.918 212 185C214.788 185.287 213.657 185.344 209.854 185.573C190.962 199.122 238.673 441.309 237.5 446C236.288 450.85 201.079 490.617 177.508 492.6C165.281 493.628 117.738 480.104 106.508 476.6C95.2769 473.095 84.5075 431.553 84.5075 421.096C84.5075 410.598 80.008 332.596 80.0075 304.596C80.0074 296.832 69.0826 268.45 71.5075 263.6C73.4475 259.72 72.5146 210.514 76.5146 205.596Z" fill="#16ABB5"/>
<path d="M134.254 186.464C134.545 182.479 137.98 135.382 137.98 135.382L179.079 135.594C179.079 135.594 177.443 185.608 177.152 189.594C176.862 193.579 179.147 189.739 181.033 191.381C186.613 196.238 193.364 223.731 149.42 219.158C106.193 214.66 117.769 204.474 120.391 197.986C130.947 190.736 133.964 190.45 134.254 186.464Z" fill="url(#paint2_linear_1030_18341)"/>
<ellipse cx="110.41" cy="110.288" rx="8.7688" ry="18.6337" transform="rotate(-4.7242 110.41 110.288)" fill="#F5BEB5"/>
<ellipse cx="203.495" cy="117.085" rx="10.961" ry="18.6337" transform="rotate(17.6313 203.495 117.085)" fill="#F5BEB5"/>
<path d="M149.019 162.933C123.251 161.053 109.92 124.267 108.265 103.91L110.635 71.4346L159.828 38.4339L214.948 57.6315L206.653 111.087C200.272 126.81 174.787 164.812 149.019 162.933Z" fill="#FFD4CB"/>
<path d="M139.708 117.002C139.648 117.817 138.752 119.516 137.756 120.855C137.428 121.297 137.38 121.898 137.678 122.362L139.15 124.655" stroke="#2A190D" stroke-width="1.5" stroke-linecap="round"/>
<ellipse cx="130.193" cy="111.011" rx="3.2883" ry="4.3844" transform="rotate(4.17209 130.193 111.011)" fill="#2A190D"/>
<ellipse cx="126.129" cy="121.527" rx="6" ry="4.5" transform="rotate(4.17209 126.129 121.527)" fill="#E1745F" fill-opacity="0.8"/>
<ellipse cx="165.043" cy="124.407" rx="6" ry="4.5" transform="rotate(4.17209 165.043 124.407)" fill="#E1745F" fill-opacity="0.8"/>
<ellipse cx="162.129" cy="113.341" rx="3.2883" ry="4.3844" transform="rotate(4.17209 162.129 113.341)" fill="#2A190D"/>
<path d="M137.152 91.7881C132.202 90.0946 124.697 89.2885 116.99 94.2444" stroke="#2A190D" stroke-width="1.5" stroke-linecap="round"/>
<path d="M188.198 95.5153C180.9 92.4759 171.51 90.3104 162.323 92.8651" stroke="#2A190D" stroke-width="1.5" stroke-linecap="round"/>
<path d="M134.745 133.082C139.366 135.535 146.65 137.515 155.042 133.837" stroke="#AE5C4C" stroke-width="1.5" stroke-linecap="round"/>
<path d="M150.309 44.1552C156.66 43.535 184.614 49.2598 183.859 59.6089C183.858 59.6087 183.858 59.6086 183.857 59.6085L168.416 55.23C159.01 53.3107 147.669 52.2537 143.329 53.4003C135.615 55.4388 144.768 48.0863 150.309 44.1552Z" fill="#0A0401"/>
<path d="M139.352 58.6584C161.904 39.3181 151.95 49.3595 153.897 51.5961L165.427 27.3012C122.9 5.65303 103.248 47.8974 100.161 90.2271C99.221 103.118 111.203 126.16 112.087 119.167C117.987 72.5177 122.47 73.1363 139.352 58.6584Z" fill="url(#paint3_linear_1030_18341)"/>
<path d="M211.243 184.06C173.414 181.15 205.181 284.367 211.243 319.125C217.309 372.611 215.771 343.865 220.727 377.463C220.727 377.463 195.727 385.462 250.227 377.463C304.727 369.464 285.624 365.99 282.5 319.125C281.288 300.938 242.767 187.698 211.243 184.06Z" fill="#0EA8BB"/>
<path d="M193 186C193 186 211 181 215 186C216.099 187.374 232 264.506 227.5 366.006C253.5 434.506 268.869 508.862 273 569.006C273 569.006 229 597.006 157 597.006C85 597.006 40.5 575.514 40.5 575.514C43.2432 539.603 60.5 450.006 83 366.006C68 276.506 89.0067 203.228 89.0067 203.228C90.1817 196.828 104.496 195.562 108.007 195.728C99.34 234.895 104.515 290.506 104.515 290.506H154.015H203.515C203.515 290.506 197.616 213.258 193 186Z" fill="#F07638"/>
<path d="M102 309.006H114" stroke="white"/>
<path d="M118 309.006H130" stroke="white"/>
<path d="M134 309.006H146" stroke="white"/>
<path d="M150 309.006H162" stroke="white"/>
<path d="M166 309.006H178" stroke="white"/>
<path d="M182 309.006H194" stroke="white"/>
<path d="M198 309.006H210" stroke="white"/>
<path d="M150.014 218.014C130.014 216.014 133.514 188.514 129.014 188.514C127.504 188.514 121.822 193.31 118.014 201.014C110.471 216.272 103.514 240.014 103.514 240.014L150.014 228.014L198.014 245.014C198.014 245.014 196.014 228.014 193.514 214.014C191.014 200.014 186.014 188.514 182.514 188.514C179.014 188.514 170.014 220.014 150.014 218.014Z" fill="white"/>
<path d="M51.0146 269.514C55.4146 259.914 51.0146 224 76.5146 205.506C85.5146 205.506 82.0146 247.084 82.0146 249.084C82.0146 250.684 79.5146 310.014 76.5146 345.514C67.0146 352.514 51.3145 362.984 42.5142 358.584C31.5138 353.084 43.0142 342.584 42.5142 331.584C42.0142 320.584 45.5146 281.514 51.0146 269.514Z" fill="#1BADB1"/>
<path d="M43 555.006C80.8333 571.006 179.5 592.806 271.5 552.006" stroke="white"/>
<path d="M189.5 122.5C193.5 113.7 188.667 96.6721 187.5 93.5054C190 91.5054 199.7 90.2058 200.5 95.0058C201.5 101.006 196 118 193 122.5C190 127 185.314 139 186.5 142C183.5 135.5 184.5 133.5 189.5 122.5Z" fill="#331F11"/>
<path d="M223.851 58.1154C232.694 73.9247 232.776 120.95 214.845 105.605C204.939 97.1276 179.783 109.259 172.567 101.017C155.947 82.0344 165.655 58.1416 162.295 52.3157C158.441 45.6317 156.039 50.5014 153.144 52.9586C146.269 48.0106 139.818 33.0678 164.036 28.4312C194.308 22.6355 213.903 40.333 223.851 58.1154Z" fill="url(#paint4_linear_1030_18341)"/>
<path d="M110 892.506H135.5L139 942.006H115L110 892.506Z" fill="#1BADB1"/>
<path d="M207.5 892.006H180L179 942.006H203L207.5 892.006Z" fill="#1BADB1"/>
<path d="M100.427 975.031C97.5952 965.98 109.558 946.117 115.121 937.318H118.156L119.208 929.475C119.475 927.489 121.169 926.006 123.173 926.006H132.35C134.357 926.006 136.054 927.494 136.316 929.484L137.348 937.318H139.398C147.49 941.089 146.866 966.608 147.996 975.031C148.501 978.802 103.968 986.345 100.427 975.031Z" fill="#F07638"/>
<path d="M115 951.006L136 956.046M136 951.006C135.067 951.006 121.611 954.366 115 956.046M115 959.646L136 965.406M136 959.646L115 965.406M115 969.006C119.083 968.286 129.583 968.286 136 968.286" stroke="white" stroke-width="2" stroke-linecap="round"/>
<path d="M164.427 975.031C161.595 965.98 173.558 946.117 179.121 937.318H182.156L183.208 929.475C183.475 927.489 185.169 926.006 187.173 926.006H196.35C198.357 926.006 200.054 927.494 200.316 929.484L201.348 937.318H203.398C211.49 941.089 210.866 966.608 211.996 975.031C212.501 978.802 167.968 986.345 164.427 975.031Z" fill="#F07638"/>
<path d="M99 974.734C99 973.382 100.314 972.412 101.612 972.787C106.51 974.202 117.171 977.046 123.758 977.046C130.3 977.046 140.574 974.241 145.37 972.816C146.673 972.429 148 973.402 148 974.761V983.581C148 984.415 147.483 985.159 146.695 985.43C143.07 986.676 132.562 990.006 123.758 990.006C114.932 990.006 104.052 986.66 100.325 985.421C99.5259 985.155 99 984.405 99 983.563V974.734Z" fill="white"/>
<path d="M163 974.734C163 973.382 164.314 972.412 165.612 972.787C170.51 974.202 181.171 977.046 187.758 977.046C194.3 977.046 204.574 974.241 209.37 972.816C210.673 972.429 212 973.402 212 974.761V983.581C212 984.415 211.483 985.159 210.695 985.43C207.07 986.676 196.562 990.006 187.758 990.006C178.932 990.006 168.052 986.66 164.325 985.421C163.526 985.155 163 984.405 163 983.563V974.734Z" fill="white"/>
<path d="M111.502 950.562C108.502 947.062 126.002 942.562 126.002 943.062C128.502 942.641 144.502 944.563 142.502 950.063C140.902 954.463 130.835 948.23 126.002 944.563C122.169 947.73 113.902 953.362 111.502 950.562Z" stroke="white" stroke-width="2"/>
<path d="M174.346 950.504C171.346 947.004 188.846 942.504 188.846 943.004C191.346 942.582 207.346 944.505 205.346 950.005C203.746 954.405 193.679 948.171 188.846 944.505C185.013 947.671 176.746 953.304 174.346 950.504Z" stroke="white" stroke-width="2"/>
<rect x="124" y="941.006" width="4" height="7" rx="2" fill="white"/>
<rect x="187" y="941.006" width="4" height="7" rx="2" fill="white"/>
<path d="M179 951.006L200 956.046M200 951.006C199.067 951.006 185.611 954.366 179 956.046M179 959.646L200 965.406M200 959.646L179 965.406M179 969.006C183.083 968.286 193.583 968.286 200 968.286" stroke="white" stroke-width="2" stroke-linecap="round"/>
<path d="M287.5 306.501C283.272 306.953 275.257 327.526 268.719 326.563C250.455 325.896 182.139 314.621 174.95 313.563C163.368 311.857 146.307 317.293 145.984 327.05C145.66 336.806 180.508 344.817 249.492 348.498C291.985 354.755 302.575 360.43 304 353.296C306.495 340.797 301.495 320.157 296.501 317.5C294.177 316.264 301 305.057 287.5 306.501Z" fill="#F7D0C8"/>
<path d="M11.1001 351.062C13.3613 351.459 22.1944 371.235 25.3073 370.247C34.4702 369.438 66.7195 357.942 70.1428 356.856C75.6579 355.106 85.6144 360.196 88.0294 369.606C90.4444 379.016 74.5153 387.06 40.1739 391.235C19.94 397.656 15.8468 403.227 13.4749 396.358C9.31926 384.321 7.11026 364.363 9.04498 361.755C9.94525 360.541 3.8805 349.791 11.1001 351.062Z" fill="#F7D0C8"/>
<rect x="8.70524" y="292.513" width="271" height="161.908" rx="7" transform="rotate(-8.78855 8.70524 292.513)" fill="white"/>
<path d="M49.6327 411.613L106.831 402.77L104.579 388.206L64.9986 394.325L61.8027 373.654L98.3296 368.007L96.0779 353.443L59.5511 359.09L56.3553 338.419L95.8184 332.318L93.5667 317.754L36.4862 326.579L49.6327 411.613ZM177.045 304.848L159.545 307.554L167.898 361.581L167.076 361.708L121.609 313.419L106.106 315.816L119.252 400.849L136.87 398.126L128.517 344.099L129.222 343.99L174.923 392.242L190.192 389.882L177.045 304.848ZM233.268 383.222C259.224 379.209 272.425 360.753 268.253 334.16C264.217 307.666 246.077 294.176 220.473 298.134L190.171 302.819L203.318 387.853L233.268 383.222ZM218.593 369.978L210.131 315.246L221.876 313.43C237.967 310.943 247.712 317.974 250.636 336.884C253.587 355.969 246.428 365.674 230.22 368.18L218.593 369.978Z" fill="#2F2B45"/>
<rect x="8.70524" y="292.513" width="271" height="161.908" rx="7" transform="rotate(-8.78855 8.70524 292.513)" stroke="#2F2B45" stroke-width="10"/>
<path d="M284 328C283.997 324.312 288.496 324.5 298.996 324C299.829 324.833 302.74 330.032 298.996 330.5C295 331 284.005 333 284 328Z" fill="#F7D0C8"/>
<path d="M26.5114 367.678C25.5384 364.286 21.9978 365.492 13.4874 367.444C13.0431 368.401 12.0957 373.849 15.2072 373.419C18.528 372.962 27.8307 372.275 26.5114 367.678Z" fill="#F7D0C8"/>
<path d="M282 336C281.997 332.312 286.496 332.5 296.996 332C297.829 332.833 300.74 338.032 296.996 338.5C293 339 282.005 341 282 336Z" fill="#F7D0C8"/>
<path d="M28.4724 373.678C27.4995 370.286 23.7025 371.566 14.5936 373.689C14.1019 374.661 12.9885 380.156 16.3134 379.665C19.862 379.142 29.7914 378.276 28.4724 373.678Z" fill="#F7D0C8"/>
<path d="M289 349.5C288.997 345.812 290.996 346.5 301.496 346C302.329 346.833 305.24 352.032 301.496 352.5C297.5 353 289.005 354.5 289 349.5Z" fill="#F7D0C8"/>
<path d="M27.6472 387.563C26.6451 384.07 25.0931 385.222 15.8229 387.377C15.3252 388.375 14.2096 394.026 17.5943 393.532C21.2067 393.005 29.0058 392.299 27.6472 387.563Z" fill="#F7D0C8"/>
<path d="M285 343C284.997 339.312 289.496 339.5 299.996 339C300.829 339.833 303.74 345.032 299.996 345.5C296 346 285.005 348 285 343Z" fill="#F7D0C8"/>
<path d="M28.6989 380.369C27.7259 376.978 24.1853 378.184 15.6749 380.135C15.2306 381.093 14.2832 386.54 17.3947 386.111C20.7155 385.653 30.0182 384.967 28.6989 380.369Z" fill="#F7D0C8"/>
<defs>
<linearGradient id="paint0_linear_1030_18341" x1="200.747" y1="101.782" x2="188.51" y2="269.535" gradientUnits="userSpaceOnUse">
<stop stop-color="#120802"/>
<stop offset="1" stop-color="#754C31"/>
</linearGradient>
<linearGradient id="paint1_linear_1030_18341" x1="133.797" y1="69.1353" x2="90.3979" y2="230.012" gradientUnits="userSpaceOnUse">
<stop stop-color="#120802"/>
<stop offset="1" stop-color="#754C31"/>
</linearGradient>
<linearGradient id="paint2_linear_1030_18341" x1="157.496" y1="142.301" x2="154.944" y2="177.284" gradientUnits="userSpaceOnUse">
<stop stop-color="#B97D74"/>
<stop offset="1" stop-color="#F5BEB5"/>
</linearGradient>
<linearGradient id="paint3_linear_1030_18341" x1="137.22" y1="21.0126" x2="90.9556" y2="113.869" gradientUnits="userSpaceOnUse">
<stop stop-color="#342216"/>
<stop offset="0.364583" stop-color="#412D1F"/>
<stop offset="0.744792" stop-color="#342216"/>
</linearGradient>
<linearGradient id="paint4_linear_1030_18341" x1="184.046" y1="28.8368" x2="177.188" y2="122.852" gradientUnits="userSpaceOnUse">
<stop stop-color="#342216"/>
<stop offset="0.359375" stop-color="#4A2E1C"/>
<stop offset="0.723958" stop-color="#342216"/>
</linearGradient>
</defs>
</svg>
